<svg aria-hidden="true" role="img" data-name="Add Task" class="d-icon d-icon--add-task" viewBox="0 0 12 12" xmlns="http://www.w3.org/2000/svg"><g clip-path="url(#a)"><path fill-rule="evenodd" clip-rule="evenodd" d="M7.497 2.228A4.058 4.058 0 1 0 6 10.058a.5.5 0 1 1 0 1 5.06 5.06 0 1 1 1.866-9.76.5.5 0 1 1-.369.93Zm3.404-.082a.5.5 0 0 1 0 .708L6.354 7.4a.5.5 0 0 1-.71-.002L4.098 5.837a.5.5 0 0 1 .71-.704L6.003 6.34l4.192-4.193a.5.5 0 0 1 .707 0ZM9 7a.5.5 0 0 1 .5.5v1h1a.5.5 0 1 1 0 1h-1v1a.5.5 0 0 1-1 0v-1h-1a.5.5 0 1 1 0-1h1v-1A.5.5 0 0 1 9 7Z" fill="currentColor"/></g><defs><clipPath id="a"><path fill="#fff" d="M0 0h12v12H0z"/></clipPath></defs></svg>