<?xml version="1.0" encoding="utf-8"?>
<!-- Generator: Adobe Illustrator 24.1.2, SVG Export Plug-In . SVG Version: 6.00 Build 0)  -->
<svg version="1.1" id="Layer_1" xmlns="http://www.w3.org/2000/svg" xmlns:xlink="http://www.w3.org/1999/xlink" x="0px" y="0px"
	 width="64px" height="64px" viewBox="0 0 64 64" style="enable-background:new 0 0 64 64;" xml:space="preserve">
<style type="text/css">
	.st0{fill:url(#SVGID_1_);}
	.st1{fill:url(#SVGID_2_);}
	.st2{fill:url(#SVGID_3_);}
	.st3{fill:url(#SVGID_4_);}
	.st4{fill:url(#SVGID_5_);}
	.st5{fill:url(#SVGID_6_);}
</style>
<linearGradient id="SVGID_1_" gradientUnits="userSpaceOnUse" x1="12.4358" y1="61.6982" x2="12.4358" y2="1.8638">
	<stop  offset="0" style="stop-color:#0062D0"/>
	<stop  offset="0.0496" style="stop-color:#0069D3"/>
	<stop  offset="0.2921" style="stop-color:#0086E0"/>
	<stop  offset="0.5333" style="stop-color:#009AE9"/>
	<stop  offset="0.7708" style="stop-color:#00A7EF"/>
	<stop  offset="1" style="stop-color:#00ABF1"/>
</linearGradient>
<path class="st0" d="M13.62,31.36c0.55-0.15,1.09-0.17,1.61-0.05c0.53,0.11,1.06,0.37,1.61,0.78l1.02-3.64
	c-0.48-0.48-1.11-0.79-1.89-0.94c-0.78-0.14-1.59-0.1-2.43,0.12c-1.34,0.36-2.5,1.05-3.48,2.08c-0.98,1.03-1.74,2.31-2.27,3.83
	C7.27,35.08,7,36.76,7,38.6c0,1.86,0.27,3.41,0.8,4.66c0.53,1.25,1.29,2.13,2.27,2.63s2.14,0.58,3.48,0.22
	c0.84-0.22,1.65-0.62,2.43-1.18c0.78-0.56,1.41-1.21,1.89-1.95l-1.02-3.09c-0.55,0.7-1.09,1.25-1.61,1.65
	c-0.53,0.39-1.06,0.66-1.61,0.81c-1.02,0.27-1.8,0.02-2.36-0.76c-0.56-0.78-0.83-2.08-0.83-3.9c0-1.82,0.28-3.26,0.83-4.32
	S12.6,31.63,13.62,31.36z"/>
<linearGradient id="SVGID_2_" gradientUnits="userSpaceOnUse" x1="25.4081" y1="61.6982" x2="25.4081" y2="1.8639">
	<stop  offset="0" style="stop-color:#0062D0"/>
	<stop  offset="0.0496" style="stop-color:#0069D3"/>
	<stop  offset="0.2921" style="stop-color:#0086E0"/>
	<stop  offset="0.5333" style="stop-color:#009AE9"/>
	<stop  offset="0.7708" style="stop-color:#00A7EF"/>
	<stop  offset="1" style="stop-color:#00ABF1"/>
</linearGradient>
<path class="st1" d="M28.83,24.67c-0.95-0.5-2.08-0.57-3.4-0.21c-1.32,0.35-2.45,1.03-3.41,2.04c-0.96,1.01-1.7,2.27-2.22,3.8
	c-0.53,1.53-0.79,3.22-0.79,5.1c0,1.89,0.26,3.46,0.78,4.7c0.52,1.24,1.26,2.12,2.23,2.62c0.96,0.5,2.1,0.58,3.42,0.22
	c1.32-0.35,2.45-1.04,3.4-2.05c0.95-1.01,1.69-2.28,2.21-3.8c0.52-1.52,0.78-3.23,0.78-5.12c0-1.87-0.26-3.43-0.78-4.68
	C30.51,26.03,29.78,25.16,28.83,24.67z M27.66,37.29c-0.56,1.09-1.3,1.77-2.23,2.02c-0.93,0.25-1.67-0.02-2.23-0.81
	c-0.55-0.79-0.83-2.13-0.83-4.02c0-1.87,0.27-3.35,0.83-4.42c0.55-1.07,1.29-1.74,2.23-1.99c0.93-0.25,1.68,0.02,2.23,0.81
	c0.56,0.79,0.83,2.11,0.83,3.96C28.49,34.72,28.22,36.2,27.66,37.29z"/>
<linearGradient id="SVGID_3_" gradientUnits="userSpaceOnUse" x1="39.8507" y1="61.6981" x2="39.8507" y2="1.8638">
	<stop  offset="0" style="stop-color:#0062D0"/>
	<stop  offset="0.0496" style="stop-color:#0069D3"/>
	<stop  offset="0.2921" style="stop-color:#0086E0"/>
	<stop  offset="0.5333" style="stop-color:#009AE9"/>
	<stop  offset="0.7708" style="stop-color:#00A7EF"/>
	<stop  offset="1" style="stop-color:#00ABF1"/>
</linearGradient>
<path class="st2" d="M43.27,20.8c-0.95-0.5-2.08-0.57-3.4-0.21c-1.32,0.35-2.45,1.03-3.41,2.04c-0.96,1.01-1.7,2.27-2.22,3.8
	c-0.53,1.53-0.79,3.22-0.79,5.1c0,1.89,0.26,3.46,0.78,4.7c0.52,1.24,1.26,2.12,2.23,2.62c0.96,0.5,2.1,0.58,3.42,0.22
	c1.32-0.35,2.45-1.04,3.4-2.05c0.95-1.01,1.69-2.28,2.21-3.8c0.52-1.52,0.78-3.23,0.78-5.12c0-1.87-0.26-3.43-0.78-4.68
	C44.96,22.16,44.22,21.29,43.27,20.8z M42.1,33.42c-0.56,1.09-1.3,1.77-2.23,2.02c-0.93,0.25-1.67-0.02-2.23-0.81
	c-0.55-0.79-0.82-2.13-0.82-4.02c0-1.87,0.27-3.35,0.82-4.42c0.55-1.07,1.29-1.74,2.23-1.99c0.93-0.25,1.68,0.02,2.23,0.81
	c0.56,0.79,0.83,2.11,0.83,3.96C42.94,30.85,42.66,32.33,42.1,33.42z"/>
<linearGradient id="SVGID_4_" gradientUnits="userSpaceOnUse" x1="52.6134" y1="61.6981" x2="52.6134" y2="1.8638">
	<stop  offset="0" style="stop-color:#0062D0"/>
	<stop  offset="0.0496" style="stop-color:#0069D3"/>
	<stop  offset="0.2921" style="stop-color:#0086E0"/>
	<stop  offset="0.5333" style="stop-color:#009AE9"/>
	<stop  offset="0.7708" style="stop-color:#00A7EF"/>
	<stop  offset="1" style="stop-color:#00ABF1"/>
</linearGradient>
<polygon class="st3" points="51.6,17.67 48.23,18.57 48.23,36.59 57,34.24 57,30.39 51.6,31.84 "/>
<linearGradient id="SVGID_5_" gradientUnits="userSpaceOnUse" x1="32" y1="4.0246" x2="32" y2="63.9001" gradientTransform="matrix(1 0 0 -1 0 66)">
	<stop  offset="0" style="stop-color:#0062D0"/>
	<stop  offset="1" style="stop-color:#00ABF1"/>
</linearGradient>
<path class="st4" d="M5.18,21.69L60.13,6.96c1.1-0.3,1.87-1.3,1.87-2.44C62,3.13,60.87,2,59.48,2H4.52C3.13,2,2,3.13,2,4.52v14.72
	C2,20.91,3.57,22.12,5.18,21.69z"/>
<linearGradient id="SVGID_6_" gradientUnits="userSpaceOnUse" x1="31.995" y1="4.0246" x2="31.995" y2="63.9001" gradientTransform="matrix(1 0 0 -1 0 66)">
	<stop  offset="0" style="stop-color:#0062D0"/>
	<stop  offset="1" style="stop-color:#00ABF1"/>
</linearGradient>
<path class="st5" d="M58.82,42.31L3.87,57.04C2.77,57.33,2,58.33,2,59.48C2,60.87,3.13,62,4.52,62h54.95c1.39,0,2.52-1.13,2.52-2.52
	V44.75C62,43.09,60.43,41.88,58.82,42.31z"/>
</svg>
