<?xml version="1.0" encoding="utf-8"?>
<!-- Generator: Adobe Illustrator 24.1.2, SVG Export Plug-In . SVG Version: 6.00 Build 0)  -->
<svg version="1.1" id="Layer_1" xmlns="http://www.w3.org/2000/svg" xmlns:xlink="http://www.w3.org/1999/xlink" x="0px" y="0px"
	 width="64px" height="64px" viewBox="0 0 64 64" style="enable-background:new 0 0 64 64;" xml:space="preserve">
<style type="text/css">
	.st0{fill:url(#SVGID_1_);}
	.st1{fill:#FFFFFF;}
</style>
<linearGradient id="SVGID_1_" gradientUnits="userSpaceOnUse" x1="32" y1="2" x2="32" y2="62">
	<stop  offset="0" style="stop-color:#BC2AF7"/>
	<stop  offset="0.2161" style="stop-color:#B928F3"/>
	<stop  offset="0.4401" style="stop-color:#B121E6"/>
	<stop  offset="0.6677" style="stop-color:#A217D2"/>
	<stop  offset="0.8963" style="stop-color:#8E08B5"/>
	<stop  offset="0.9949" style="stop-color:#8400A6"/>
</linearGradient>
<path class="st0" d="M62,54c0,4.4-3.6,8-8,8H10c-4.4,0-8-3.6-8-8V10c0-4.4,3.6-8,8-8h44c4.4,0,8,3.6,8,8V54z"/>
<rect x="12.03" y="17" class="st1" width="6.57" height="30"/>
<path class="st1" d="M44.71,18.77C42.36,17.59,39.54,17,36.26,17H24.63v30h11.63c3.31,0,6.14-0.6,8.49-1.79
	c2.35-1.19,4.14-2.91,5.37-5.14c1.23-2.23,1.85-4.94,1.85-8.11c0-3.14-0.62-5.83-1.87-8.07C48.85,21.66,47.05,19.95,44.71,18.77z
	 M43,39.27c-1.6,1.62-4,2.42-7.2,2.42H31.2V22.31h4.59c6.41,0,9.6,3.22,9.6,9.65C45.4,35.22,44.6,37.65,43,39.27z"/>
</svg>
