<?xml version="1.0" encoding="utf-8"?>
<!-- Generator: Adobe Illustrator 24.1.2, SVG Export Plug-In . SVG Version: 6.00 Build 0)  -->
<svg version="1.1" id="Layer_1" xmlns="http://www.w3.org/2000/svg" xmlns:xlink="http://www.w3.org/1999/xlink" x="0px" y="0px"
	 width="64px" height="64px" viewBox="0 0 64 64" style="enable-background:new 0 0 64 64;" xml:space="preserve">
<style type="text/css">
	.st0{fill:url(#SVGID_1_);}
	.st1{fill:#FFFFFF;}
</style>
<linearGradient id="SVGID_1_" gradientUnits="userSpaceOnUse" x1="32" y1="2" x2="32" y2="62">
	<stop  offset="0" style="stop-color:#FF3B3B"/>
	<stop  offset="0.2558" style="stop-color:#FB3737"/>
	<stop  offset="0.5207" style="stop-color:#F02B2A"/>
	<stop  offset="0.7889" style="stop-color:#DD1616"/>
	<stop  offset="1" style="stop-color:#C90100"/>
</linearGradient>
<path class="st0" d="M62,54c0,4.4-3.6,8-8,8H10c-4.4,0-8-3.6-8-8V10c0-4.4,3.6-8,8-8h44c4.4,0,8,3.6,8,8V54z"/>
<path class="st1" d="M23.35,23.05c1.24,0,2.43,0.2,3.56,0.61c1.13,0.41,2.29,1.06,3.49,1.96l1.83-4.18
	c-1.04-0.97-2.36-1.72-3.95-2.26c-1.59-0.53-3.27-0.8-5.03-0.8c-2.71,0-5.06,0.56-7.05,1.68c-1.99,1.12-3.52,2.7-4.58,4.73
	C10.53,26.84,10,29.23,10,31.96c0,2.76,0.53,5.16,1.61,7.22c1.07,2.05,2.6,3.64,4.58,4.75c1.99,1.12,4.34,1.68,7.05,1.68
	c1.76,0,3.44-0.27,5.03-0.8c1.59-0.53,2.91-1.29,3.95-2.26l-1.83-4.18c-1.19,0.9-2.35,1.55-3.49,1.96
	c-1.13,0.41-2.32,0.61-3.56,0.61c-2.36,0-4.19-0.76-5.48-2.29c-1.29-1.53-1.94-3.76-1.94-6.69c0-2.93,0.65-5.15,1.94-6.65
	C19.16,23.8,20.99,23.05,23.35,23.05z"/>
<polygon class="st1" points="42.14,18.73 36.33,18.73 36.33,45.27 54,45.27 54,40.54 42.14,40.54 "/>
</svg>
