<?xml version="1.0" encoding="utf-8"?>
<!-- Generator: Adobe Illustrator 24.1.2, SVG Export Plug-In . SVG Version: 6.00 Build 0)  -->
<svg version="1.1" id="Layer_1" xmlns="http://www.w3.org/2000/svg" xmlns:xlink="http://www.w3.org/1999/xlink" x="0px" y="0px"
	 width="64px" height="64px" viewBox="0 0 64 64" style="enable-background:new 0 0 64 64;" xml:space="preserve">
<style type="text/css">
	.st0{fill:url(#SVGID_1_);}
	.st1{fill:#FFFFFF;}
	.st2{fill:url(#SVGID_2_);}
</style>
<linearGradient id="SVGID_1_" gradientUnits="userSpaceOnUse" x1="32" y1="64" x2="32" y2="-9.094947e-13">
	<stop  offset="0" style="stop-color:#C90100"/>
	<stop  offset="0.2111" style="stop-color:#DD1616"/>
	<stop  offset="0.4793" style="stop-color:#F02B2A"/>
	<stop  offset="0.7442" style="stop-color:#FB3737"/>
	<stop  offset="1" style="stop-color:#FF3B3B"/>
</linearGradient>
<path class="st0" d="M32,0C14.33,0,0,14.33,0,32s14.33,32,32,32s32-14.33,32-32S49.67,0,32,0L32,0z"/>
<circle class="st1" cx="32" cy="32" r="28"/>
<linearGradient id="SVGID_2_" gradientUnits="userSpaceOnUse" x1="32" y1="57" x2="32" y2="7">
	<stop  offset="0" style="stop-color:#C90100"/>
	<stop  offset="0.2111" style="stop-color:#DD1616"/>
	<stop  offset="0.4793" style="stop-color:#F02B2A"/>
	<stop  offset="0.7442" style="stop-color:#FB3737"/>
	<stop  offset="1" style="stop-color:#FF3B3B"/>
</linearGradient>
<circle class="st2" cx="32" cy="32" r="25"/>
<polygon class="st1" points="26.19,33.13 18.33,23.34 15,23.34 15,40.66 19.26,40.66 19.26,30.83 27.11,40.66 30.49,40.66 
	30.49,23.34 26.19,23.34 "/>
<path class="st1" d="M41.88,30.88v3.09h3.02v3.17c-0.23,0.05-0.46,0.13-0.68,0.16c-0.55,0.08-1.09,0.12-1.61,0.12
	c-1.64,0-2.85-0.45-3.64-1.34c-0.79-0.89-1.18-2.26-1.18-4.11c0-1.78,0.38-3.11,1.13-3.98c0.75-0.87,1.9-1.3,3.44-1.3
	c0.84,0,1.63,0.12,2.36,0.35c0.73,0.23,1.5,0.61,2.31,1.13l1.43-3.23c-0.7-0.57-1.6-1.01-2.71-1.34c-1.11-0.32-2.29-0.49-3.54-0.49
	c-1.83,0-3.43,0.36-4.78,1.08c-1.36,0.72-2.4,1.75-3.15,3.08c-0.75,1.33-1.12,2.89-1.12,4.69c0,1.85,0.37,3.44,1.12,4.77
	c0.75,1.33,1.81,2.35,3.19,3.06c1.38,0.71,3.02,1.07,4.91,1.07c0.79,0,1.58-0.05,2.36-0.15c0.78-0.1,1.53-0.24,2.25-0.44
	c0.72-0.19,1.39-0.44,2-0.73v-8.68H41.88z"/>
</svg>
