<?xml version="1.0" encoding="utf-8"?>
<!-- Generator: Adobe Illustrator 24.1.2, SVG Export Plug-In . SVG Version: 6.00 Build 0)  -->
<svg version="1.1" id="Layer_1" xmlns="http://www.w3.org/2000/svg" xmlns:xlink="http://www.w3.org/1999/xlink" x="0px" y="0px"
	 width="64px" height="64px" viewBox="0 0 64 64" style="enable-background:new 0 0 64 64;" xml:space="preserve">
<style type="text/css">
	.st0{fill:#E81C27;}
	.st1{fill:#002395;}
	.st2{fill:#016A16;}
	.st3{fill:#FCFCFC;}
	.st4{fill:#F1B517;}
	.st5{fill:#0A328C;}
	.st6{fill:#D20014;}
	.st7{fill:#BF0012;}
	.st8{fill:#092E82;}
	.st9{fill:#D19D14;}
	.st10{opacity:0.1;fill:url(#SVGID_1_);}
</style>
<path class="st0" d="M32,62c16.57,0,30-13.43,30-30H2C2,48.57,15.43,62,32,62z"/>
<path class="st1" d="M32,2C15.43,2,2,15.43,2,32h60C62,15.43,48.57,2,32,2z"/>
<path class="st2" d="M32.31,36.55l0.01,0L32.31,36.55z"/>
<path class="st3" d="M22,24v14.69c0.23-0.16,19.78-0.01,20,0.11V24H22z"/>
<path class="st2" d="M25.66,36.67c-1.32,1-3.66,2.04-3.66,2.04V40h20v-1.28c0,0-2.34-1.05-3.66-2.04
	C36.15,35.01,27.85,35.01,25.66,36.67z"/>
<rect x="31.19" y="36.97" class="st4" width="1.61" height="1.49"/>
<path class="st5" d="M31.88,25.24l-0.08-0.05l-0.04-0.12c0.04-0.07,0.09-0.16,0.27-0.15c0.18,0.01,0.31,0.02,0.37,0.21
	c0.06,0.19,0.08,0.68,0.03,0.88c-0.27-0.01-0.68-0.23-0.74-0.37C31.63,25.49,31.88,25.24,31.88,25.24z"/>
<path class="st6" d="M31.78,25.42h-0.01l-0.03,0.01l-0.04,0.21l0.02,0.03l0.02-0.01c0,0,0.48-0.04,0.69,0.32l0.01,0.02
	c0.02-0.08,0.03-0.21,0.03-0.35C32.13,25.42,31.85,25.41,31.78,25.42z"/>
<path class="st4" d="M32.07,25.7L32,26.62c0.07,0.12,0.11,0.21,0.11,0.21s0.01-0.07,0.07-0.18l-0.03-0.91L32.07,25.7z"/>
<path class="st6" d="M35.35,29.98c-0.19,0.01-0.2,0.01-0.22,0.04c-0.02,0.03-0.05,0.19,0.04,0.3c0.09,0.11,0.12,0.09,0.14,0.06
	c0.02-0.02,0.14-0.09,0.37-0.04l0.18-0.13C35.85,30.22,35.54,29.97,35.35,29.98z"/>
<path class="st5" d="M35.37,29.98h-0.02c-0.19,0.01-0.2,0.01-0.22,0.04c-0.01,0.02-0.03,0.1-0.01,0.19
	c0.03-0.03,0.09-0.05,0.21-0.05c0.24,0.01,0.38,0.11,0.38,0.11l0.02,0.02l0.11-0.08C35.85,30.22,35.56,29.99,35.37,29.98z"/>
<polygon class="st6" points="32.29,34.49 33.63,32.82 34.18,34.19 32.28,35.76 "/>
<path class="st5" d="M33.63,32.82c0,0,0.26,0.85,0.22,1.63l2.64-2.14l-0.73-2.15L33.63,32.82z"/>
<polygon class="st7" points="32.23,35.75 34.32,33.87 34.99,35.49 32.78,36.7 32.26,36.45 32.24,36.01 "/>
<path class="st8" d="M37.47,33.65c0.06-0.98-0.16-2.42-0.16-2.42l-0.01-0.17l-2.97,2.81c0,0,0.17,0.64,0.09,1.8L37.47,33.65z"/>
<polygon class="st4" points="34.34,30.94 33.66,32.37 33.5,32.3 32.27,34.59 32.26,34.2 33.42,32.17 33.37,32.13 33.45,32.04 
	33.49,32.07 33.49,32.06 33.58,32.08 "/>
<polygon class="st4" points="33.89,30.39 33.35,31.89 33.19,31.83 32.2,34.23 32.15,33.85 33.11,31.71 33.05,31.68 33.12,31.58 
	33.16,31.6 33.16,31.6 33.25,31.61 "/>
<polygon class="st4" points="33.31,30.21 32.88,31.74 32.71,31.69 31.9,34.16 31.82,33.78 32.62,31.58 32.56,31.55 32.62,31.45 
	32.66,31.47 32.66,31.47 32.75,31.47 "/>
<polygon class="st6" points="34.6,35.37 34.6,36.75 32.72,36.63 "/>
<path class="st5" d="M38.19,33.76c0,0-0.13,2.26-0.83,3.4l-2.84-0.42l0.08-1.38l3.59-2.42V33.76z"/>
<path class="st5" d="M38.36,32.94c0,0,0.16,0.16,0.18,0.51c0.02,0.35,0.02,0.6,0.02,0.6s-0.26,0.15-0.5,0.09c0,0,0.04-0.1,0.05-0.25
	c0-0.15,0-0.9,0-0.9L38.36,32.94z"/>
<path class="st6" d="M38.21,32.99L38.09,33c0,0.01,0.01,0.75,0,0.89c0,0.15-0.05,0.25-0.05,0.25c0.09,0.02,0.18,0.02,0.26,0
	c0-0.03,0.03-0.46,0.03-0.69C38.33,33.22,38.21,32.99,38.21,32.99z"/>
<path class="st4" d="M39.65,39.72c0.1-0.25,0.36-0.31,0.36-0.31s0.02-0.02-0.06-0.2c-0.08-0.18-0.04-0.32-0.04-0.32
	c0.03-0.97-0.07-1.23-0.07-1.23l0.38,0.37c-0.01-0.92-1.39-1.36-1.39-1.36c0.51,1.27,0.31,1.41,0.31,1.41
	c0.32-0.13,0.36-0.35,0.36-0.35c0.06,0.35,0.01,1.02,0.01,1.02s0.02,0.32-0.28,0.16c-0.3-0.15-1.52-0.73-1.52-0.73l-0.13,0.25
	l1.67,0.77c0,0,0.24,0.11,0.18,0.29c-0.07,0.18-0.11,0.21-0.11,0.21L39.65,39.72z"/>
<path class="st5" d="M37.48,31.22c0,0-0.5-0.09-0.62-0.02c-0.12,0.07,0.21,0.08,0.28,0.06l-0.13,0.12c0,0-0.29-0.07-0.34-0.34
	c-0.05-0.27,0.14-0.27,0.19-0.26C36.9,30.78,37.16,30.82,37.48,31.22z"/>
<path class="st5" d="M37.39,31.19l-0.02,0.18c0.16,0.41,0.39,0.42,0.3,0.92l0.17,0c0.02-0.23-0.02-0.45-0.06-0.55l-0.12-0.16
	l-0.15-0.15c-0.08-0.09-0.02-0.2-0.02-0.2L37.39,31.19z"/>
<path class="st6" d="M37.28,31.15c0,0-0.03,0.08-0.03,0.19l0.03,0.18l0.06,0.2c0.03,0.14,0.05,0.31,0.05,0.57l0.27-0.01
	c0.09-0.5-0.13-0.51-0.3-0.92l0.02-0.18L37.28,31.15z"/>
<path class="st9" d="M37.04,36.28l-0.38,0.66l-1.52,0.11l-0.14,0.02c0,0-0.22,0.52-0.47,0.59c-0.25,0.07-1.89,0.58-1.89,0.58
	l-0.05-0.37l1.07-0.34c0,0,0.31-0.11,0.41-0.23c0.09-0.12,0.87-0.86,0.87-0.86L37.04,36.28z"/>
<path class="st4" d="M38.27,35.33c0.08-0.01,0.22,0.15,0.26,0.42c0.04,0.28,0,0.51-0.08,0.52l-0.1-0.08l-4.4,0.59l-0.09-0.82
	l4.37-0.51C38.24,35.34,38.22,35.34,38.27,35.33z"/>
<path class="st4" d="M36.23,35.53c0.76,0,1.37,0.61,1.37,1.36c0,0.75-0.62,1.36-1.37,1.36c-0.76,0-1.37-0.61-1.37-1.36
	C34.85,36.13,35.47,35.53,36.23,35.53z M36.23,35.87c-0.57,0-1.02,0.45-1.02,1.01c0,0.56,0.46,1.01,1.02,1.01
	c0.57,0,1.02-0.45,1.02-1.01C37.25,36.33,36.79,35.87,36.23,35.87z"/>
<path class="st4" d="M33.7,36.68l0.07,0.02l-0.03,0.04v0.2c0,0.06,0.05,1.02,0.08,1.2l0.04,0.17c0,0,0.23,0.03,0.22,0.13
	c-0.01,0.1-0.14,0.17-0.34,0.17c-0.26-0.01-0.33-0.06-0.34-0.12c-0.01-0.06,0.06-0.12,0.17-0.14l0.06-0.32c0,0-0.01,0.05-0.16,0.02
	c-0.15-0.03-0.14-0.25-0.14-0.25s0-0.66,0-0.79c0.01-0.12,0.08-0.18,0.17-0.22c0.08-0.01,0.13,0,0.14,0.05l0.04,0.04v-0.13
	l-0.03-0.04L33.7,36.68z M33.51,36.91l-0.05,0.03l-0.02,0.14v0.72l0.01,0.05l0.07,0.06l0.08-0.02l0.04-0.05l0.03-0.64l0.01-0.21
	l-0.1-0.06L33.51,36.91z"/>
<path class="st6" d="M35.86,30.23c0,0-0.02,0.17,0.13,0.27c0.15,0.1,0.32,0.21,0.38,0.5c0.07,0.29,0.02,0.25,0.02,0.25l-0.45,0.08
	c0,0,0.05-0.2-0.06-0.36c-0.11-0.16-0.27-0.63-0.12-0.81L35.86,30.23z"/>
<path class="st5" d="M35.85,30.21c-0.03,0.07-0.07,0.22,0.03,0.33c0.14,0.14,0.27,0.21,0.32,0.41c0.03,0.12,0.05,0.24,0.06,0.32
	l0.13-0.02c0,0,0.05,0.03-0.02-0.25c-0.07-0.29-0.24-0.4-0.38-0.5c-0.15-0.1-0.13-0.27-0.13-0.27L35.85,30.21z"/>
<path class="st5" d="M38.02,32.62c0,0-0.27-0.13-0.34-0.02c-0.06,0.11-0.09,0.33,0,0.46c0,0,0.39,0.05,0.59-0.02l0.03-0.02
	L38.02,32.62z"/>
<path class="st4" d="M38.32,30.16L37.78,31c0,0-0.1-0.13-0.21-0.03l-0.11,0.1 M38.32,30.15l-0.86,0.52c0,0,0.13,0.1,0.03,0.21
	l-0.11,0.11l0.09,0.09"/>
<polygon class="st4" points="37.2,30.75 37.68,31.23 37.51,31.4 37.03,30.92 "/>
<path class="st4" d="M36.59,29.09L36.19,30c0,0-0.12-0.12-0.21,0.01l-0.09,0.12 M36.59,29.09l-0.77,0.65c0,0,0.15,0.08,0.06,0.2
	l-0.09,0.12l0.1,0.07"/>
<polygon class="st4" points="35.58,29.85 36.13,30.25 35.99,30.44 35.44,30.05 "/>
<path class="st4" d="M38.44,32.55c0,0,0.11,0.12-0.01,0.21l-0.12,0.09l0.07,0.1l0.13-0.08c0.13-0.08,0.2,0.06,0.2,0.06l0.68-0.74
	L38.44,32.55z"/>
<polygon class="st4" points="38.18,32.59 38.56,33.14 38.36,33.27 37.98,32.72 "/>
<path class="st6" d="M28.65,29.98c0.19,0.01,0.2,0.01,0.22,0.04c0.02,0.03,0.05,0.19-0.03,0.3c-0.09,0.11-0.12,0.09-0.14,0.06
	c-0.02-0.02-0.14-0.09-0.37-0.04l-0.18-0.13C28.15,30.22,28.46,29.97,28.65,29.98z"/>
<path class="st5" d="M28.63,29.98h0.02c0.19,0.01,0.2,0.01,0.22,0.04c0.01,0.02,0.03,0.1,0.01,0.19c-0.03-0.03-0.09-0.05-0.21-0.05
	c-0.24,0.01-0.38,0.11-0.38,0.11l-0.02,0.02l-0.11-0.08C28.15,30.22,28.44,29.99,28.63,29.98z"/>
<polygon class="st6" points="31.72,35.76 29.82,34.19 30.37,32.82 31.71,34.49 "/>
<path class="st5" d="M28.24,30.16l-0.73,2.15l2.64,2.14c-0.04-0.79,0.22-1.63,0.22-1.63L28.24,30.16z"/>
<polygon class="st7" points="31.76,36.01 31.74,36.45 31.22,36.7 29.01,35.49 29.68,33.87 31.77,35.75 "/>
<path class="st8" d="M29.58,35.68c-0.07-1.16,0.09-1.8,0.09-1.8l-2.97-2.81l-0.01,0.17c0,0-0.22,1.44-0.16,2.42L29.58,35.68z"/>
<polygon class="st4" points="30.42,32.08 30.51,32.06 30.51,32.07 30.55,32.04 30.63,32.13 30.58,32.17 31.74,34.2 31.73,34.59 
	30.5,32.3 30.34,32.37 29.66,30.94 "/>
<polygon class="st4" points="30.75,31.61 30.84,31.6 30.84,31.6 30.88,31.58 30.95,31.68 30.89,31.71 31.85,33.85 31.8,34.23 
	30.81,31.83 30.65,31.89 30.11,30.39 "/>
<polygon class="st4" points="31.25,31.47 31.34,31.47 31.34,31.47 31.38,31.45 31.44,31.55 31.38,31.58 32.18,33.78 32.1,34.16 
	31.29,31.69 31.12,31.74 30.69,30.21 "/>
<polygon class="st6" points="31.28,36.63 29.4,36.75 29.4,35.37 "/>
<path class="st5" d="M25.81,32.95l3.59,2.42l0.08,1.38l-2.84,0.42c-0.7-1.14-0.83-3.4-0.83-3.4V32.95z"/>
<path class="st5" d="M25.91,32.99c0,0-0.01,0.75,0,0.9c0,0.15,0.05,0.25,0.05,0.25c-0.24,0.06-0.5-0.09-0.5-0.09s0-0.24,0.02-0.6
	c0.02-0.35,0.18-0.51,0.18-0.51L25.91,32.99z"/>
<path class="st6" d="M25.79,32.99c0,0-0.12,0.23-0.13,0.46c0,0.23,0.02,0.66,0.03,0.69c0.08,0.02,0.17,0.02,0.26,0
	c0,0-0.04-0.1-0.05-0.25c-0.01-0.14,0-0.88,0-0.89L25.79,32.99z"/>
<path class="st4" d="M24.67,39.71c0,0-0.04-0.03-0.11-0.21c-0.07-0.18,0.18-0.29,0.18-0.29l1.67-0.77l-0.13-0.25
	c0,0-1.22,0.58-1.52,0.73c-0.3,0.15-0.28-0.16-0.28-0.16s-0.05-0.67,0.01-1.02c0,0,0.04,0.21,0.36,0.35c0,0-0.19-0.14,0.31-1.41
	c0,0-1.38,0.43-1.39,1.36l0.38-0.37c0,0-0.1,0.26-0.07,1.23c0,0,0.04,0.13-0.04,0.32c-0.08,0.18-0.06,0.2-0.06,0.2
	s0.26,0.06,0.36,0.31L24.67,39.71z"/>
<path class="st5" d="M27.14,30.78c0.04,0,0.24,0,0.19,0.26c-0.05,0.27-0.34,0.34-0.34,0.34l-0.13-0.12c0.07,0.02,0.4,0.02,0.28-0.06
	c-0.12-0.07-0.62,0.02-0.62,0.02C26.84,30.82,27.1,30.78,27.14,30.78z"/>
<path class="st5" d="M26.52,31.22c0,0,0.06,0.11-0.02,0.2l-0.15,0.15l-0.12,0.16c-0.04,0.1-0.08,0.32-0.06,0.55l0.17,0
	c-0.09-0.5,0.13-0.51,0.3-0.92l-0.02-0.18L26.52,31.22z"/>
<path class="st6" d="M26.61,31.19l0.02,0.18c-0.16,0.41-0.38,0.42-0.3,0.92l0.27,0.01c0-0.26,0.02-0.43,0.05-0.57l0.06-0.2
	l0.03-0.18c0-0.11-0.03-0.19-0.03-0.19L26.61,31.19z"/>
<path class="st9" d="M29.08,36.44c0,0,0.78,0.73,0.87,0.86c0.09,0.12,0.41,0.23,0.41,0.23l1.07,0.34l-0.05,0.37
	c0,0-1.65-0.51-1.89-0.58c-0.25-0.07-0.47-0.59-0.47-0.59l-0.14-0.02l-1.52-0.11l-0.38-0.66L29.08,36.44z"/>
<path class="st4" d="M25.78,35.45l4.37,0.51l-0.09,0.82l-4.4-0.59l-0.1,0.08c-0.08-0.01-0.12-0.24-0.08-0.52
	c0.04-0.28,0.18-0.44,0.26-0.42C25.78,35.34,25.76,35.34,25.78,35.45z"/>
<path class="st4" d="M27.77,35.53c0.76,0,1.37,0.61,1.37,1.36c0,0.75-0.62,1.36-1.37,1.36c-0.76,0-1.37-0.61-1.37-1.36
	C26.4,36.13,27.01,35.53,27.77,35.53z M26.75,36.88c0,0.56,0.46,1.01,1.02,1.01c0.57,0,1.02-0.45,1.02-1.01
	c0-0.56-0.46-1.01-1.02-1.01C27.2,35.87,26.75,36.33,26.75,36.88z"/>
<path class="st4" d="M30.3,36.68l0.07,0.02l-0.03,0.04v0.13l0.04-0.04c0.01-0.04,0.06-0.06,0.14-0.05c0.1,0.04,0.16,0.09,0.17,0.22
	c0.01,0.12,0,0.79,0,0.79s0,0.22-0.14,0.25c-0.15,0.03-0.16-0.02-0.16-0.02l0.06,0.32c0.11,0.02,0.18,0.08,0.17,0.14
	c-0.01,0.06-0.08,0.12-0.34,0.12c-0.21,0.01-0.33-0.06-0.34-0.17c-0.01-0.1,0.22-0.13,0.22-0.13l0.04-0.17
	c0.02-0.19,0.08-1.14,0.08-1.2v-0.2l-0.03-0.04L30.3,36.68z M30.43,36.92l-0.1,0.06l0.01,0.21l0.03,0.64l0.04,0.05l0.08,0.02
	l0.07-0.06l0.01-0.05v-0.72l-0.02-0.14l-0.05-0.03L30.43,36.92z"/>
<path class="st6" d="M28.24,30.15c0.15,0.19-0.01,0.65-0.12,0.81c-0.11,0.16-0.06,0.36-0.06,0.36l-0.45-0.08
	c0,0-0.05,0.03,0.02-0.25c0.07-0.29,0.24-0.4,0.38-0.5c0.15-0.1,0.13-0.27,0.13-0.27L28.24,30.15z"/>
<path class="st5" d="M28.14,30.23c0,0,0.02,0.17-0.13,0.27c-0.14,0.1-0.32,0.21-0.38,0.5c-0.07,0.29-0.02,0.25-0.02,0.25l0.13,0.02
	c0.01-0.08,0.03-0.2,0.06-0.32c0.05-0.19,0.18-0.26,0.32-0.41c0.11-0.11,0.06-0.27,0.03-0.33L28.14,30.23z"/>
<path class="st5" d="M25.7,33.02l0.03,0.02c0.2,0.07,0.59,0.02,0.59,0.02c0.09-0.13,0.06-0.35,0-0.46
	c-0.06-0.11-0.34,0.02-0.34,0.02L25.7,33.02z"/>
<path class="st4" d="M26.54,31.07l-0.11-0.1c-0.11-0.1-0.21,0.03-0.21,0.03l-0.54-0.84 M26.54,31.07l0.09-0.09l-0.11-0.11
	c-0.11-0.11,0.03-0.21,0.03-0.21l-0.86-0.52"/>
<polygon class="st4" points="26.97,30.92 26.49,31.4 26.32,31.23 26.8,30.75 "/>
<path class="st4" d="M28.11,30.13l-0.09-0.12C27.93,29.89,27.81,30,27.81,30l-0.4-0.92 M28.11,30.13l0.1-0.07l-0.09-0.12
	c-0.09-0.12,0.06-0.2,0.06-0.2l-0.77-0.65"/>
<polygon class="st4" points="28.56,30.05 28.01,30.44 27.87,30.25 28.42,29.85 "/>
<path class="st4" d="M25.56,32.55c0,0-0.11,0.12,0.01,0.21l0.12,0.09l-0.07,0.1l-0.13-0.08c-0.13-0.08-0.2,0.06-0.2,0.06l-0.68-0.74
	L25.56,32.55z"/>
<polygon class="st4" points="26.02,32.72 25.64,33.27 25.44,33.14 25.82,32.59 "/>
<polygon class="st2" points="31.75,29.55 31.82,27.3 32.14,27.13 32.23,29.55 "/>
<path class="st4" d="M32.24,29.53c0,0,0.15,4.95,0.03,6.81 M32.24,29.53c-0.18-0.03-0.49,0-0.49,0s-0.15,4.95-0.03,6.81
	c0,0,0.34-0.04,0.55,0"/>
<path class="st3" d="M27.44,38.57v0.68c0,0,1.63,0.62,4.55,0.62c2.93,0,4.55-0.62,4.55-0.62v-0.68c0,0-1.24,0.58-4.55,0.58
	C28.69,39.15,27.44,38.57,27.44,38.57z"/>
<path class="st2" d="M32.28,28.39c0,0,0,0.11,0.01,0.3c0.15,0.41,0.35,0.79,0.63,1.01c0.2-0.28,0.21-0.99,0.03-1.67
	c0.29,0.31,0.64,0.61,0.99,0.68c0.03-0.23-0.15-0.64-0.44-1.01c0.46,0.22,1.07,0.41,1.76,0.36c-0.17-0.27-0.55-0.53-0.97-0.74
	c0.78,0.21,1.53,0.41,1.57,0.43c-0.09-0.73-0.42-0.76-1.03-1.06l1.46,0.02c-0.37-0.66-1.61-0.7-2.6-0.54
	c0.62-0.2,1.39-0.42,1.51-0.44c-0.28-0.21-1.38-0.9-2.82,0.25c-0.02,0.45-0.21,0.81-0.44,0.81c-0.24,0-0.43-0.38-0.44-0.84
	c-1.42-1.1-2.5-0.42-2.78-0.21c0.12,0.02,0.89,0.24,1.51,0.44c-0.99-0.16-2.23-0.13-2.6,0.54l1.46-0.02
	c-0.61,0.3-0.94,0.33-1.03,1.06c0.04-0.01,0.79-0.22,1.57-0.43c-0.42,0.21-0.8,0.48-0.97,0.74c0.69,0.06,1.3-0.13,1.76-0.36
	c-0.28,0.37-0.46,0.78-0.44,1.01c0.34-0.06,0.7-0.36,0.99-0.68c-0.18,0.69-0.16,1.39,0.03,1.67c0.21-0.17,0.39-0.43,0.52-0.73
	c0.01-0.35,0.02-0.58,0.02-0.58H32.28z"/>
<linearGradient id="SVGID_1_" gradientUnits="userSpaceOnUse" x1="32" y1="62" x2="32" y2="2">
	<stop  offset="0" style="stop-color:#1A1A1A"/>
	<stop  offset="0.102" style="stop-color:#393939;stop-opacity:0.949"/>
	<stop  offset="0.3475" style="stop-color:#7F7F7F;stop-opacity:0.8262"/>
	<stop  offset="0.5688" style="stop-color:#B6B6B6;stop-opacity:0.7156"/>
	<stop  offset="0.7582" style="stop-color:#DEDEDE;stop-opacity:0.6209"/>
	<stop  offset="0.9081" style="stop-color:#F6F6F6;stop-opacity:0.5459"/>
	<stop  offset="1" style="stop-color:#FFFFFF;stop-opacity:0.5"/>
</linearGradient>
<circle class="st10" cx="32" cy="32" r="30"/>
</svg>
