<?xml version="1.0" encoding="utf-8"?>
<!-- Generator: Adobe Illustrator 24.1.2, SVG Export Plug-In . SVG Version: 6.00 Build 0)  -->
<svg version="1.1" id="Layer_1" xmlns="http://www.w3.org/2000/svg" xmlns:xlink="http://www.w3.org/1999/xlink" x="0px" y="0px"
	 width="64px" height="64px" viewBox="0 0 64 64" style="enable-background:new 0 0 64 64;" xml:space="preserve">
<style type="text/css">
	.st0{fill:#E81C27;}
	.st1{fill:#FFE000;}
	.st2{opacity:0.1;fill:url(#SVGID_1_);}
</style>
<circle class="st0" cx="32" cy="32" r="30"/>
<polygon class="st1" points="21.58,19.38 18.84,10.94 16.1,19.38 7.23,19.38 14.4,24.59 11.66,33.03 18.84,27.81 26.01,33.03 
	23.27,24.59 30.45,19.38 "/>
<polygon class="st1" points="34.45,12.37 35.97,14.91 36.23,11.96 39.11,11.3 36.39,10.14 36.65,7.2 34.71,9.43 31.99,8.27 
	33.51,10.81 31.57,13.04 "/>
<polygon class="st1" points="42.08,20.16 42.5,23.09 43.88,20.48 46.79,20.98 44.74,18.86 46.12,16.25 43.46,17.55 41.41,15.43 
	41.82,18.35 39.17,19.66 "/>
<polygon class="st1" points="44.69,31.72 47.02,29.89 44.07,30 43.05,27.22 42.24,30.06 39.28,30.17 41.74,31.82 40.92,34.66 
	43.25,32.84 45.71,34.49 "/>
<polygon class="st1" points="36.36,38.57 36.49,35.62 34.65,37.93 31.88,36.88 33.51,39.36 31.66,41.66 34.51,40.88 36.13,43.35 
	36.27,40.4 39.12,39.62 "/>
<linearGradient id="SVGID_1_" gradientUnits="userSpaceOnUse" x1="32" y1="62" x2="32" y2="2">
	<stop  offset="0" style="stop-color:#1A1A1A"/>
	<stop  offset="0.102" style="stop-color:#393939;stop-opacity:0.949"/>
	<stop  offset="0.3475" style="stop-color:#7F7F7F;stop-opacity:0.8262"/>
	<stop  offset="0.5688" style="stop-color:#B6B6B6;stop-opacity:0.7156"/>
	<stop  offset="0.7582" style="stop-color:#DEDEDE;stop-opacity:0.6209"/>
	<stop  offset="0.9081" style="stop-color:#F6F6F6;stop-opacity:0.5459"/>
	<stop  offset="1" style="stop-color:#FFFFFF;stop-opacity:0.5"/>
</linearGradient>
<circle class="st2" cx="32" cy="32" r="30"/>
</svg>
