<?xml version="1.0" encoding="utf-8"?>
<!-- Generator: Adobe Illustrator 24.1.2, SVG Export Plug-In . SVG Version: 6.00 Build 0)  -->
<svg version="1.1" id="Layer_1" xmlns="http://www.w3.org/2000/svg" xmlns:xlink="http://www.w3.org/1999/xlink" x="0px" y="0px"
	 width="64px" height="64px" viewBox="0 0 64 64" style="enable-background:new 0 0 64 64;" xml:space="preserve">
<style type="text/css">
	.st0{fill:#FCFCFC;}
	.st1{fill:#00A650;}
	.st2{fill:#FFE000;}
	.st3{fill:#000080;}
	.st4{fill:#E81C27;}
	.st5{opacity:0.1;fill:url(#SVGID_1_);}
</style>
<path class="st0" d="M6.63,16C3.7,20.63,2,26.12,2,32h60c0-5.88-1.7-11.37-4.63-16H6.63z"/>
<path class="st1" d="M6.63,48h50.74C60.3,43.37,62,37.88,62,32H2C2,37.88,3.7,43.37,6.63,48z"/>
<path class="st2" d="M32,62c10.68,0,20.06-5.59,25.37-14H6.63C11.94,56.41,21.32,62,32,62z"/>
<path class="st3" d="M32,2C21.32,2,11.94,7.59,6.63,16h50.74C52.06,7.59,42.68,2,32,2z"/>
<polygon class="st2" points="19.34,12.48 21.39,14.03 20.62,11.5 22.66,9.94 20.13,9.93 19.34,7.41 18.55,9.93 16.03,9.94 
	18.07,11.5 17.29,14.03 "/>
<path class="st4" d="M26,2.6v58.8c1.94,0.39,3.95,0.6,6,0.6s4.06-0.21,6-0.6V2.6C36.06,2.21,34.05,2,32,2S27.94,2.21,26,2.6z"/>
<linearGradient id="SVGID_1_" gradientUnits="userSpaceOnUse" x1="32.0005" y1="62" x2="32.0005" y2="2">
	<stop  offset="0" style="stop-color:#1A1A1A"/>
	<stop  offset="0.102" style="stop-color:#393939;stop-opacity:0.949"/>
	<stop  offset="0.3475" style="stop-color:#7F7F7F;stop-opacity:0.8262"/>
	<stop  offset="0.5688" style="stop-color:#B6B6B6;stop-opacity:0.7156"/>
	<stop  offset="0.7582" style="stop-color:#DEDEDE;stop-opacity:0.6209"/>
	<stop  offset="0.9081" style="stop-color:#F6F6F6;stop-opacity:0.5459"/>
	<stop  offset="1" style="stop-color:#FFFFFF;stop-opacity:0.5"/>
</linearGradient>
<path class="st5" d="M62,32c0,16.57-13.43,30-30,30C15.43,62,2,48.57,2,32S15.43,2,32,2C48.57,2,62,15.43,62,32z"/>
</svg>
