<?xml version="1.0" encoding="utf-8"?>
<!-- Generator: Adobe Illustrator 24.1.2, SVG Export Plug-In . SVG Version: 6.00 Build 0)  -->
<svg version="1.1" id="Layer_1" xmlns="http://www.w3.org/2000/svg" xmlns:xlink="http://www.w3.org/1999/xlink" x="0px" y="0px"
	 width="64px" height="64px" viewBox="0 0 64 64" style="enable-background:new 0 0 64 64;" xml:space="preserve">
<style type="text/css">
	.st0{fill:#FF8200;}
	.st1{fill:#00A650;}
	.st2{fill:#FCFCFC;}
	.st3{fill:#000080;}
	.st4{opacity:0.1;fill:url(#SVGID_1_);}
</style>
<path class="st0" d="M32,2C18.94,2,7.83,10.35,3.71,22h56.57C56.17,10.35,45.06,2,32,2z"/>
<path class="st1" d="M32,62c13.06,0,24.17-8.35,28.29-20H3.71C7.83,53.65,18.94,62,32,62z"/>
<path class="st2" d="M3.71,22C2.61,25.13,2,28.49,2,32s0.61,6.87,1.71,10h56.57C61.39,38.87,62,35.51,62,32s-0.61-6.87-1.71-10H3.71
	z"/>
<circle class="st3" cx="32" cy="32" r="8"/>
<circle class="st2" cx="32" cy="32" r="7"/>
<path class="st3" d="M29.78,25.34c0.11,0.26-0.02,0.55-0.27,0.65c-0.26,0.11-0.55-0.01-0.65-0.27c-0.11-0.26,0.02-0.55,0.27-0.65
	C29.39,24.97,29.68,25.09,29.78,25.34z"/>
<path class="st3" d="M28.13,26.14c0.17,0.22,0.13,0.53-0.09,0.7c-0.22,0.17-0.53,0.13-0.7-0.09c-0.17-0.22-0.13-0.53,0.09-0.7
	C27.65,25.88,27.97,25.92,28.13,26.14z"/>
<path class="st3" d="M26.75,27.34c0.22,0.17,0.26,0.48,0.09,0.7c-0.17,0.22-0.48,0.26-0.7,0.09c-0.22-0.17-0.26-0.48-0.09-0.7
	C26.22,27.22,26.53,27.17,26.75,27.34z"/>
<path class="st3" d="M25.72,28.86c0.26,0.11,0.38,0.4,0.27,0.65c-0.11,0.26-0.4,0.38-0.65,0.27c-0.26-0.11-0.38-0.4-0.27-0.65
	C25.18,28.88,25.47,28.75,25.72,28.86z"/>
<path class="st3" d="M25.13,30.59c0.28,0.04,0.47,0.29,0.43,0.56c-0.04,0.27-0.29,0.47-0.56,0.43c-0.27-0.04-0.47-0.29-0.43-0.56
	C24.6,30.75,24.85,30.55,25.13,30.59z"/>
<path class="st3" d="M25,32.42c0.27-0.04,0.52,0.16,0.56,0.43c0.04,0.27-0.16,0.52-0.43,0.56c-0.28,0.04-0.53-0.16-0.56-0.43
	C24.53,32.71,24.72,32.45,25,32.42z"/>
<path class="st3" d="M25.34,34.22c0.26-0.11,0.55,0.02,0.65,0.27c0.1,0.25-0.02,0.54-0.27,0.65c-0.26,0.11-0.55-0.02-0.65-0.27
	C24.97,34.62,25.09,34.32,25.34,34.22z"/>
<path class="st3" d="M26.14,35.87c0.22-0.17,0.53-0.13,0.7,0.09c0.17,0.22,0.13,0.53-0.09,0.7c-0.22,0.17-0.53,0.13-0.7-0.09
	C25.88,36.35,25.92,36.03,26.14,35.87z"/>
<path class="st3" d="M27.34,37.25c0.17-0.22,0.48-0.26,0.7-0.09c0.22,0.17,0.26,0.48,0.09,0.7c-0.17,0.22-0.48,0.26-0.7,0.09
	C27.22,37.78,27.17,37.47,27.34,37.25z"/>
<path class="st3" d="M28.86,38.28c0.11-0.26,0.4-0.38,0.65-0.27c0.25,0.11,0.38,0.4,0.27,0.65c-0.11,0.26-0.4,0.38-0.65,0.27
	C28.88,38.82,28.75,38.53,28.86,38.28z"/>
<path class="st3" d="M30.59,38.88c0.04-0.27,0.29-0.47,0.56-0.43c0.27,0.04,0.46,0.29,0.43,0.56c-0.04,0.27-0.29,0.47-0.56,0.43
	C30.75,39.4,30.55,39.15,30.59,38.88z"/>
<path class="st3" d="M32.42,39.01c-0.04-0.27,0.15-0.53,0.43-0.56c0.27-0.03,0.52,0.16,0.56,0.43c0.04,0.27-0.16,0.53-0.43,0.56
	C32.71,39.47,32.46,39.28,32.42,39.01z"/>
<path class="st3" d="M34.22,38.66c-0.11-0.25,0.01-0.55,0.27-0.65c0.26-0.1,0.55,0.02,0.65,0.27c0.11,0.25-0.02,0.55-0.27,0.65
	C34.62,39.03,34.32,38.91,34.22,38.66z"/>
<path class="st3" d="M35.87,37.86c-0.17-0.22-0.13-0.53,0.09-0.7c0.22-0.17,0.53-0.13,0.7,0.09c0.17,0.22,0.13,0.53-0.09,0.7
	C36.35,38.12,36.03,38.08,35.87,37.86z"/>
<path class="st3" d="M37.25,36.66c-0.22-0.17-0.26-0.48-0.09-0.7c0.17-0.22,0.48-0.26,0.7-0.09c0.22,0.17,0.26,0.48,0.09,0.7
	C37.78,36.79,37.47,36.83,37.25,36.66z"/>
<path class="st3" d="M38.28,35.14c-0.26-0.1-0.38-0.4-0.27-0.65c0.11-0.25,0.4-0.37,0.65-0.27c0.26,0.11,0.38,0.4,0.27,0.66
	C38.82,35.13,38.53,35.25,38.28,35.14z"/>
<path class="st3" d="M38.88,33.41c-0.28-0.03-0.47-0.29-0.43-0.56c0.04-0.27,0.29-0.46,0.56-0.43c0.28,0.04,0.47,0.29,0.43,0.56
	C39.4,33.25,39.15,33.45,38.88,33.41z"/>
<path class="st3" d="M39.01,31.58c-0.27,0.04-0.53-0.15-0.56-0.43c-0.04-0.27,0.15-0.52,0.43-0.56c0.27-0.04,0.53,0.16,0.56,0.43
	C39.47,31.29,39.28,31.55,39.01,31.58z"/>
<path class="st3" d="M38.66,29.78c-0.25,0.11-0.55-0.01-0.65-0.27c-0.11-0.26,0.02-0.54,0.27-0.65c0.26-0.11,0.55,0.02,0.65,0.27
	C39.04,29.39,38.91,29.68,38.66,29.78z"/>
<path class="st3" d="M37.86,28.13c-0.22,0.17-0.53,0.13-0.7-0.09c-0.17-0.22-0.13-0.53,0.09-0.7c0.22-0.17,0.54-0.13,0.7,0.09
	C38.12,27.65,38.08,27.97,37.86,28.13z"/>
<path class="st3" d="M36.66,26.75c-0.17,0.22-0.48,0.26-0.7,0.09c-0.22-0.17-0.26-0.48-0.09-0.7c0.17-0.22,0.48-0.26,0.7-0.09
	C36.79,26.22,36.83,26.53,36.66,26.75z"/>
<path class="st3" d="M35.14,25.72c-0.1,0.26-0.39,0.38-0.65,0.27c-0.26-0.11-0.38-0.4-0.27-0.65c0.1-0.25,0.4-0.38,0.65-0.27
	C35.13,25.18,35.25,25.47,35.14,25.72z"/>
<path class="st3" d="M33.41,25.13c-0.03,0.27-0.29,0.47-0.56,0.43c-0.28-0.04-0.47-0.29-0.43-0.56c0.04-0.27,0.29-0.47,0.56-0.43
	C33.25,24.6,33.45,24.85,33.41,25.13z"/>
<path class="st3" d="M31.58,25c0.04,0.27-0.15,0.52-0.43,0.56c-0.28,0.04-0.52-0.15-0.56-0.43c-0.04-0.27,0.16-0.53,0.43-0.56
	C31.29,24.53,31.55,24.72,31.58,25z"/>
<path class="st3" d="M33.5,32c0,0.83-0.67,1.5-1.5,1.5c-0.83,0-1.5-0.67-1.5-1.5c0-0.83,0.67-1.5,1.5-1.5
	C32.83,30.5,33.5,31.17,33.5,32z"/>
<polygon class="st3" points="32,25 31.75,29.32 32,32 32.25,29.31 "/>
<polygon class="st3" points="30.19,25.24 31.07,29.48 32,32 31.55,29.34 "/>
<polygon class="st3" points="28.5,25.94 30.45,29.81 32,32 30.87,29.55 "/>
<polygon class="st3" points="27.05,27.05 29.93,30.28 32,32 30.28,29.92 "/>
<polygon class="st3" points="25.94,28.5 29.56,30.88 32,32 29.8,30.44 "/>
<polygon class="st3" points="25.24,30.19 29.35,31.55 32,32 29.47,31.06 "/>
<polygon class="st3" points="25,32 29.32,32.25 32,32 29.31,31.75 "/>
<polygon class="st3" points="25.24,33.81 29.48,32.94 32,32 29.34,32.46 "/>
<polygon class="st3" points="25.94,35.5 29.81,33.56 32,32 29.55,33.13 "/>
<polygon class="st3" points="27.05,36.95 30.29,34.07 32,32 29.92,33.72 "/>
<polygon class="st3" points="28.5,38.06 30.88,34.44 32,32 30.44,34.2 "/>
<polygon class="st3" points="30.19,38.76 31.55,34.65 32,32 31.06,34.53 "/>
<polygon class="st3" points="32,39 32.25,34.68 32,32 31.75,34.69 "/>
<polygon class="st3" points="33.81,38.76 32.94,34.52 32,32 32.46,34.66 "/>
<polygon class="st3" points="35.5,38.06 33.56,34.19 32,32 33.13,34.45 "/>
<polygon class="st3" points="36.95,36.95 34.07,33.71 32,32 33.72,34.08 "/>
<polygon class="st3" points="38.06,35.5 34.45,33.12 32,32 34.2,33.56 "/>
<polygon class="st3" points="38.76,33.81 34.65,32.45 32,32 34.53,32.94 "/>
<polygon class="st3" points="39,32 34.68,31.75 32,32 34.69,32.25 "/>
<polygon class="st3" points="38.76,30.19 34.52,31.06 32,32 34.66,31.55 "/>
<polygon class="st3" points="38.06,28.5 34.19,30.44 32,32 34.45,30.87 "/>
<polygon class="st3" points="36.95,27.05 33.72,29.93 32,32 34.08,30.28 "/>
<polygon class="st3" points="35.5,25.94 33.12,29.55 32,32 33.56,29.8 "/>
<polygon class="st3" points="33.81,25.24 32.45,29.35 32,32 32.94,29.47 "/>
<linearGradient id="SVGID_1_" gradientUnits="userSpaceOnUse" x1="32" y1="62" x2="32" y2="2">
	<stop  offset="0" style="stop-color:#1A1A1A"/>
	<stop  offset="0.102" style="stop-color:#393939;stop-opacity:0.949"/>
	<stop  offset="0.3475" style="stop-color:#7F7F7F;stop-opacity:0.8262"/>
	<stop  offset="0.5688" style="stop-color:#B6B6B6;stop-opacity:0.7156"/>
	<stop  offset="0.7582" style="stop-color:#DEDEDE;stop-opacity:0.6209"/>
	<stop  offset="0.9081" style="stop-color:#F6F6F6;stop-opacity:0.5459"/>
	<stop  offset="1" style="stop-color:#FFFFFF;stop-opacity:0.5"/>
</linearGradient>
<circle class="st4" cx="32" cy="32" r="30"/>
</svg>
