<?xml version="1.0" encoding="utf-8"?>
<!-- Generator: Adobe Illustrator 24.1.2, SVG Export Plug-In . SVG Version: 6.00 Build 0)  -->
<svg version="1.1" id="Layer_1" xmlns="http://www.w3.org/2000/svg" xmlns:xlink="http://www.w3.org/1999/xlink" x="0px" y="0px"
	 width="64px" height="64px" viewBox="0 0 64 64" style="enable-background:new 0 0 64 64;" xml:space="preserve">
<style type="text/css">
	.st0{fill:#4189DD;}
	.st1{fill:#12AD2B;}
	.st2{fill:#E81C27;}
	.st3{fill:#FCD70B;}
	.st4{opacity:0.1;fill:url(#SVGID_1_);}
</style>
<path class="st0" d="M11.01,32v21.42C16.42,58.72,23.82,62,32,62c16.57,0,30-13.43,30-30H11.01z"/>
<path class="st1" d="M11.01,32H62C62,15.43,48.57,2,32,2c-8.18,0-15.58,3.28-20.99,8.58V32z"/>
<path class="st2" d="M11.01,10.58C5.45,16.02,2,23.61,2,32s3.45,15.98,9.01,21.42L62,32L11.01,10.58z"/>
<path class="st3" d="M28.93,33.49c-0.5,1.57-2.03,2.87-2.68,3.21c1.49-2.31,3.52-4.71,1.76-6.57c0.09,1.08-0.67,2.26-1.01,2.35
	c0.86-2.44,1.69-5.5-0.18-7.52c0.25,0.73,0.15,2.79-0.19,2.88c-0.1-1.66-0.38-5.14-2.09-5.09c0.54,0.49,0.78,1.84,0.79,3.2
	c-0.39-0.93-0.83-1.63-1.78-2.32c-0.77-1.5-2.13-2.74-3.5-3.63c0.15,1.09,0.28,1.95,1.77,3.09c-0.78-0.05-1.56-1.56-2.39-1.6
	c-0.66-0.03-1.18,0.61-2.27,0.24c0.12,0.36,0.63,0.53,0.73,0.8c-0.23,0.16-0.78-0.03-1.24-0.27c0.63,0.87,1.6,1.39,2.43,1.21
	c0.99-0.19,2.04-0.09,3.05,0.49c-0.26,0.13-1.26,0.13-1.9,0.05c0.58,0.6,0.98,1,1.99,1c0.91-0.01,1.38-0.49,1.62-0.19
	c0.57,0.69,0.95,1.37,1.43,2.18c-1.05,0.12-0.73-1.21-1.9-1.89c-0.66,1.39,0.76,3.04,1.72,3.72c0.01,1.04,0.16,1.92,0.6,2.71
	c0.29,0.56,0.67,1.13,0.53,2.4c-0.58-0.43-1.14-1.87-0.93-3.02c-0.72,0.2-1,1.5-0.66,2.15c0.25,0.5,0.42,1.44,0.13,1.87
	c-0.29,0.4-0.32,0.35-0.31,1.2c0.01,0.51-0.27,1.11-0.72,1.53c0.09-0.36,0.2-0.97,0.1-1.36c-0.36,0.62-1.26,1.26-1.54,1.93
	c-0.28,0.67-0.35,1.82-1.69,2.09c-1.73,0.35-2.32,0.66-3.44,1.12c-0.12-0.86,0.25-2.66,0.95-2.56c0.69,0.13,2.78-0.73,2.03-2.53
	c-0.15,0.57-0.64,1.12-1.17,1.14c0.58-0.76,1.6-1.55,1.1-2.83c-0.28,0.54-0.72,1.19-1.38,1.56c0.71-1.39,0.08-1.81-0.76-0.66
	c-0.32,0.44-0.51,1.33-0.71,2.45c-0.33-0.92-0.31-2.12-0.7-3.1c-0.41-1.06,0.54-1.34,1-1.25c1.1,0.3,2.94,0.3,2.8-1.56
	c-0.48,0.63-1.31,0.82-2.21,0.6c1.01-0.75,1.81-2.17,0.68-2.91c-0.04,0.79-0.63,1.66-1.43,2.07c-0.19-0.66-0.19-1.37-0.03-2.14
	c-0.44,0.48-0.77,1.47-1.03,2.59c-0.02-1.11,0.19-1.92,0.34-2.52c0.23-0.88,0.81-0.31,1.69-0.24c0.85,0.05,2.02-0.43,1.8-1.61
	c-0.29,0.47-0.89,0.65-1.5,0.6c0.73-0.45,2.01-1.26,1.31-2.5c-0.29,0.47-0.39,0.87-1.24,1.01c0.22-0.52,0.26-1.26,0.92-1.56
	c-1.18-0.24-1.86,0.55-2.2,1.79c-0.14-0.86-0.31-1.17-0.34-1.8c0.64-0.72,0.7-2.14-0.68-2.45c-0.08,0.73-0.06,0.9,0.1,1.5
	c-0.65-0.39-1.56-0.61-2.17-0.05c0.41,0.45,1.05,0.85,2.03,0.36c-0.23,0.77-0.84,0.64-1.67,0.35c0.51,0.97,1.15,1.15,1.85,1.03
	c0.37,1,0.39,1.75-0.7,3.2c0.05-0.9-0.01-1.57-0.71-2.3c-0.6-0.6-1.09,0.03-0.15,1.36c-0.57-0.43-1.21-1.3-1.41-2.17
	c-0.19,1.07-0.02,2.34,0.56,3.05c-0.28,0.3-0.59-0.03-1.05-0.77c0.17,2.35,1.16,2.8,2.48,2.28c0.04,1.29,0.04,2.49,0.11,4.04
	c-0.77-1.13-1.75-1.97-2.29-2.18c-0.17,0.63,0.47,1.46,0.83,1.92c-0.55-0.12-1.73-1.04-1.73-1.04c-0.12,1.05,1.21,2.02,2.07,2.45
	c-1.01-0.04-1.45-0.43-2.1-1.07c0.01,2.91,3.09,2.4,3.66,1.96c0.07,1.43,0.18,3.08,0.26,4.51c-0.87-0.15-0.8-0.42-1.54-0.49
	c-2.06-0.08-3.7-2.53-4.24-4.33c-0.16,0.3-0.03,0.61-0.17,0.97c-0.33-0.88-0.76-2.02-1.34-2.55c0.15,0.51,0.16,1.04,0.11,2
	C9,36.46,8.81,36.27,8.8,35.54c0.01-0.56,0.53-0.98,0.5-1.77c-0.02-0.58-0.54-1.83-0.61-2.79c-0.25,1-0.41,2.05-0.79,2.66
	c0.19-1.06,0.13-1.8,0.45-2.51c0.37-0.75,0.69-1.43,0.44-2.19c-0.24,0.29-0.16,0.56-0.75,1.27c-0.13-0.78,0.77-2.02,1.64-2.52
	c0.62-0.33,1.39-1.52,0.89-2.33c-0.58,0.42-0.84,1-1.66,1.98c0.58-2.33,2.1-2.94,3.92-2.95c0.4,0,1.21-0.15,1.44-0.69
	c-0.51,0.2-1.12,0.23-1.66,0.12c0.39-0.59,1.22-0.51,1.99-0.51c0.6,0,1.54-0.09,1.92-0.96c-0.74,0.33-1.88,0.39-2.61,0.16
	c1.15-0.61,2.95-0.67,3.87-1.47c-1.05-0.8-3.69,0.19-5.35,1.35c0.46-0.43,1.2-1.2,1.61-1.82c-0.91-0.45-3.21,2.15-4,3.7
	c-0.75,0.43-1.05,1.11-1.35,1.59c0.4-1.38,0.44-2.39,0.78-3.52c-2.58,0.91-1.51,5.77-2.07,6.93c0.07-1.28,0.01-2.93-0.51-3.79
	c-0.79,0.62-0.86,4.26-0.11,7.29c-0.27-0.81-0.78-1.57-0.94-2.55c-1.18,2.19,0.69,4.77,2.25,6.81C6.92,36.4,5.76,35.05,5,33.93
	c0.21,3.92,4.22,4.73,4.84,5.69C9,39.22,7.38,38.43,6.7,39.26c1.12,0.26,2.01,0.57,2.72,1.05c1.04,1.33,3.01,1.91,6.44,2.05
	c-0.9,0.25-1.42,0.97-1.41,1.64l4.45-0.02c0.04-0.73-0.54-1.4-1.43-1.66c4.35-0.09,8.13-1.75,8.82-2.82
	c-0.68-0.3-1.47,0.18-2.03,0.07C25.59,38.95,29.58,36.31,28.93,33.49z"/>
<linearGradient id="SVGID_1_" gradientUnits="userSpaceOnUse" x1="32" y1="62" x2="32" y2="2">
	<stop  offset="0" style="stop-color:#1A1A1A"/>
	<stop  offset="0.102" style="stop-color:#393939;stop-opacity:0.949"/>
	<stop  offset="0.3475" style="stop-color:#7F7F7F;stop-opacity:0.8262"/>
	<stop  offset="0.5688" style="stop-color:#B6B6B6;stop-opacity:0.7156"/>
	<stop  offset="0.7582" style="stop-color:#DEDEDE;stop-opacity:0.6209"/>
	<stop  offset="0.9081" style="stop-color:#F6F6F6;stop-opacity:0.5459"/>
	<stop  offset="1" style="stop-color:#FFFFFF;stop-opacity:0.5"/>
</linearGradient>
<circle class="st4" cx="32" cy="32" r="30"/>
</svg>
