<?xml version="1.0" encoding="utf-8"?>
<!-- Generator: Adobe Illustrator 24.1.2, SVG Export Plug-In . SVG Version: 6.00 Build 0)  -->
<svg version="1.1" id="Layer_1" xmlns="http://www.w3.org/2000/svg" xmlns:xlink="http://www.w3.org/1999/xlink" x="0px" y="0px"
	 width="64px" height="64px" viewBox="0 0 64 64" style="enable-background:new 0 0 64 64;" xml:space="preserve">
<style type="text/css">
	.st0{fill:#006952;}
	.st1{fill:#E81C27;}
	.st2{fill:#FCD70B;}
	.st3{opacity:0.1;fill:url(#SVGID_1_);}
</style>
<path class="st0" d="M62,32c0-8.18-3.28-15.59-8.58-21H10.58C5.28,16.41,2,23.82,2,32s3.28,15.59,8.58,21h42.83
	C58.72,47.59,62,40.18,62,32z"/>
<path class="st1" d="M32,2c-8.39,0-15.97,3.45-21.42,9h42.83C47.97,5.45,40.39,2,32,2z"/>
<path class="st1" d="M53.42,53H10.58c5.44,5.55,13.03,9,21.42,9S47.97,58.55,53.42,53z"/>
<polygon class="st2" points="10.58,53 53.42,53 32,32 "/>
<polygon class="st2" points="53.42,11 10.58,11 32,32 "/>
<circle class="st1" cx="32" cy="32" r="9"/>
<path class="st1" d="M8.29,34.41c0.77,0.8,1.64,1.47,2.45,1.81c0.01-0.89-0.15-1.9-0.42-2.92c-0.68-0.64-1.45-1.19-2.21-1.48
	C7.99,32.64,8.07,33.54,8.29,34.41z"/>
<path class="st2" d="M5.02,26.33c1.31,2.72-3.39,9.21,4.43,10.74c-0.52-0.71-0.93-1.65-1.17-2.65c-0.21-0.87-0.29-1.77-0.18-2.58
	c0.76,0.29,1.53,0.84,2.21,1.48c0.8,0.75,1.48,1.62,1.85,2.37C14.21,28.25,6.92,28.7,5.02,26.33z"/>
<polygon class="st2" points="32,4.86 32.59,6.67 34.5,6.67 32.96,7.79 33.54,9.61 32,8.49 30.46,9.61 31.04,7.79 29.5,6.67 
	31.41,6.67 "/>
<polygon class="st2" points="32,54.1 32.59,55.91 34.5,55.91 32.96,57.04 33.54,58.85 32,57.73 30.46,58.85 31.04,57.04 29.5,55.91 
	31.41,55.91 "/>
<polygon class="st2" points="32,23 33.93,29.25 40.19,29.25 35.13,33.12 37.06,39.38 32,35.51 26.94,39.38 28.87,33.12 23.81,29.25 
	30.07,29.25 "/>
<polygon class="st2" points="22,4.86 22.59,6.67 24.5,6.67 22.96,7.79 23.55,9.61 22,8.49 20.46,9.61 21.05,7.79 19.5,6.67 
	21.41,6.67 "/>
<polygon class="st2" points="42,4.86 42.59,6.67 44.5,6.67 42.96,7.79 43.55,9.61 42,8.49 40.46,9.61 41.05,7.79 39.5,6.67 
	41.41,6.67 "/>
<polygon class="st2" points="22,54.1 22.59,55.92 24.5,55.92 22.96,57.04 23.55,58.86 22,57.73 20.46,58.86 21.05,57.04 19.5,55.92 
	21.41,55.92 "/>
<polygon class="st2" points="42,54.1 42.59,55.92 44.5,55.92 42.96,57.04 43.55,58.85 42,57.73 40.46,58.85 41.05,57.04 39.5,55.92 
	41.41,55.92 "/>
<linearGradient id="SVGID_1_" gradientUnits="userSpaceOnUse" x1="32" y1="62" x2="32" y2="2">
	<stop  offset="0" style="stop-color:#1A1A1A"/>
	<stop  offset="0.102" style="stop-color:#393939;stop-opacity:0.949"/>
	<stop  offset="0.3475" style="stop-color:#7F7F7F;stop-opacity:0.8262"/>
	<stop  offset="0.5688" style="stop-color:#B6B6B6;stop-opacity:0.7156"/>
	<stop  offset="0.7582" style="stop-color:#DEDEDE;stop-opacity:0.6209"/>
	<stop  offset="0.9081" style="stop-color:#F6F6F6;stop-opacity:0.5459"/>
	<stop  offset="1" style="stop-color:#FFFFFF;stop-opacity:0.5"/>
</linearGradient>
<circle class="st3" cx="32" cy="32" r="30"/>
</svg>
