<?xml version="1.0" encoding="utf-8"?>
<!-- Generator: Adobe Illustrator 24.1.2, SVG Export Plug-In . SVG Version: 6.00 Build 0)  -->
<svg version="1.1" id="Layer_1" xmlns="http://www.w3.org/2000/svg" xmlns:xlink="http://www.w3.org/1999/xlink" x="0px" y="0px"
	 width="64px" height="64px" viewBox="0 0 64 64" style="enable-background:new 0 0 64 64;" xml:space="preserve">
<style type="text/css">
	.st0{fill:#007FFF;}
	.st1{fill:#FFE000;}
	.st2{fill:#E81C27;}
	.st3{opacity:0.1;fill:url(#SVGID_1_);}
</style>
<path class="st0" d="M10.79,10.79C1.03,20.54-0.59,35.34,5.89,46.78L46.78,5.89C35.33-0.59,20.54,1.03,10.79,10.79z"/>
<path class="st0" d="M53.21,53.21c9.76-9.76,11.38-24.56,4.88-36.01L17.2,58.09C28.65,64.59,43.45,62.97,53.21,53.21z"/>
<path class="st1" d="M48.54,6.97c-0.58-0.38-1.17-0.74-1.77-1.08L5.89,46.78c0.34,0.6,0.69,1.19,1.08,1.77L48.54,6.97z"/>
<path class="st1" d="M15.45,57.03c0.57,0.38,1.16,0.73,1.75,1.06L58.09,17.2c-0.33-0.59-0.69-1.18-1.07-1.75L15.45,57.03z"/>
<path class="st2" d="M10.79,53.21c1.45,1.45,3.02,2.72,4.67,3.82l41.58-41.58c-1.09-1.65-2.36-3.21-3.82-4.67
	c-1.45-1.45-3.02-2.72-4.67-3.82L6.97,48.54C8.06,50.19,9.33,51.76,10.79,53.21z"/>
<polygon class="st1" points="17.21,21.58 20.92,24.39 19.52,19.81 23.21,16.89 18.64,16.89 17.21,12.39 15.83,16.89 11.21,16.89 
	14.9,19.81 13.5,24.39 "/>
<linearGradient id="SVGID_1_" gradientUnits="userSpaceOnUse" x1="31.9998" y1="62" x2="31.9998" y2="2" gradientTransform="matrix(1 0 0 1 2.000000e-04 0)">
	<stop  offset="0" style="stop-color:#1A1A1A"/>
	<stop  offset="0.102" style="stop-color:#393939;stop-opacity:0.949"/>
	<stop  offset="0.3475" style="stop-color:#7F7F7F;stop-opacity:0.8262"/>
	<stop  offset="0.5688" style="stop-color:#B6B6B6;stop-opacity:0.7156"/>
	<stop  offset="0.7582" style="stop-color:#DEDEDE;stop-opacity:0.6209"/>
	<stop  offset="0.9081" style="stop-color:#F6F6F6;stop-opacity:0.5459"/>
	<stop  offset="1" style="stop-color:#FFFFFF;stop-opacity:0.5"/>
</linearGradient>
<circle class="st3" cx="32" cy="32" r="30"/>
</svg>
