<?xml version="1.0" encoding="utf-8"?>
<!-- Generator: Adobe Illustrator 15.0.0, SVG Export Plug-In . SVG Version: 6.00 Build 0)  -->
<!DOCTYPE svg PUBLIC "-//W3C//DTD SVG 1.1//EN" "http://www.w3.org/Graphics/SVG/1.1/DTD/svg11.dtd" [
	<!ENTITY ns_flows "http://ns.adobe.com/Flows/1.0/">
	<!ENTITY ns_extend "http://ns.adobe.com/Extensibility/1.0/">
	<!ENTITY ns_ai "http://ns.adobe.com/AdobeIllustrator/10.0/">
	<!ENTITY ns_graphs "http://ns.adobe.com/Graphs/1.0/">
]>
<svg version="1.1" id="Layer_1" xmlns:x="&ns_extend;" xmlns:i="&ns_ai;" xmlns:graph="&ns_graphs;"
	 xmlns="http://www.w3.org/2000/svg" xmlns:xlink="http://www.w3.org/1999/xlink" xmlns:a="http://ns.adobe.com/AdobeSVGViewerExtensions/3.0/"
	 x="0px" y="0px" width="64px" height="64px" viewBox="0 0 64 64" enable-background="new 0 0 64 64" xml:space="preserve">
<circle fill="#006952" cx="32" cy="32" r="30"/>
<path fill="#FCFCFC" d="M20.296,44.484c0.316,0.271,0.643,0.532,0.978,0.781H32h10.727c0.335-0.249,0.661-0.51,0.978-0.781H32
	H20.296z"/>
<path fill="#FCFCFC" d="M22.413,46.047c0.581,0.366,1.183,0.701,1.806,1H32h7.781c0.623-0.299,1.225-0.634,1.806-1H32H22.413z"/>
<path fill="#FCFCFC" d="M25.361,47.547c2.055,0.816,4.295,1.266,6.639,1.266s4.584-0.449,6.639-1.266H32H25.361z"/>
<path fill="#FCFCFC" d="M18.715,42.953c0.155,0.17,0.314,0.336,0.476,0.5H32h12.81c0.161-0.164,0.32-0.33,0.476-0.5H32H18.715z"/>
<path fill="#FCFCFC" d="M36.062,40.489c-1.992-0.603-3.343-1.692-4.062-2.373c-0.719,0.681-2.069,1.771-4.062,2.373
	c-0.931,0.281-1.917,0.433-2.938,0.433h-7.892c0.232,0.342,0.477,0.676,0.731,1h7.629c2.487,0,4.767-0.897,6.531-2.386
	c1.765,1.488,4.044,2.386,6.531,2.386h7.629c0.255-0.324,0.499-0.658,0.731-1H39C37.979,40.922,36.992,40.771,36.062,40.489z"/>
<path fill="#FCFCFC" d="M38.656,39.297c-0.615,0-1.218-0.055-1.803-0.16c0.275,0.022,0.553,0.035,0.834,0.035
	c4.336,0,8.037-2.726,9.487-6.556c-1.411-0.588-2.958-0.913-4.581-0.913c-2.904,0-5.566,1.041-7.636,2.769
	c2.166-2.26,5.212-3.67,8.586-3.675c0.216-0.418,0.503-0.794,0.844-1.112c-0.181-0.008-0.362-0.013-0.544-0.013
	c-3.392,0-6.453,1.419-8.625,3.695c1.247-1.685,1.984-3.769,1.984-6.023c0-1.813-0.477-3.515-1.312-4.988
	c-0.185,0.615-0.511,1.168-0.941,1.623c0.623,1.314,0.972,2.783,0.972,4.334c0,2.334-0.79,4.484-2.117,6.198
	c1.08-1.612,1.711-3.551,1.711-5.636c0-1.005-0.146-1.975-0.419-2.892C34.369,23.536,32.824,21.939,32,21.2
	c-0.824,0.739-2.369,2.336-3.097,4.783c-0.272,0.917-0.419,1.887-0.419,2.892c0,2.085,0.631,4.023,1.711,5.636
	c-1.327-1.714-2.117-3.864-2.117-6.198c0-1.551,0.349-3.02,0.972-4.334c-0.431-0.455-0.757-1.008-0.941-1.623
	c-0.835,1.474-1.312,3.175-1.312,4.988c0,2.255,0.737,4.339,1.984,6.023c-2.172-2.276-5.233-3.695-8.625-3.695
	c-0.182,0-0.363,0.005-0.544,0.013c0.341,0.318,0.628,0.694,0.844,1.112c3.374,0.005,6.42,1.415,8.586,3.675
	c-2.069-1.728-4.731-2.769-7.636-2.769c-1.623,0-3.17,0.325-4.581,0.913c1.45,3.83,5.151,6.556,9.487,6.556
	c0.281,0,0.559-0.013,0.834-0.035c-0.585,0.105-1.188,0.16-1.803,0.16c-2.735,0-5.219-1.085-7.043-2.848
	c-0.38,0.146-0.787,0.237-1.212,0.263c1.858,2.103,4.574,3.429,7.599,3.429c2.873,0,5.467-1.196,7.313-3.118
	c1.846,1.922,4.439,3.118,7.313,3.118c3.024,0,5.74-1.326,7.599-3.429c-0.425-0.025-0.832-0.116-1.212-0.263
	C43.875,38.212,41.392,39.297,38.656,39.297z"/>
<polygon fill="#FFF300" points="32.74,15.591 32,13.313 31.26,15.591 28.864,15.591 30.803,16.999 30.063,19.276 32,17.869 
	33.938,19.276 33.197,16.999 35.136,15.591 "/>
<polygon fill="#FFF300" points="19.722,24.172 19.405,22.546 18.705,24.048 17.061,23.846 18.272,24.977 17.572,26.479 
	19.021,25.675 20.233,26.805 19.917,25.178 21.366,24.374 "/>
<polygon fill="#FFF300" points="25.227,17.355 23.869,18.307 22.545,17.31 23.029,18.895 21.672,19.845 23.328,19.873 
	23.813,21.459 24.354,19.892 26.011,19.92 24.688,18.923 "/>
<polygon fill="#FFF300" points="46.939,23.846 45.295,24.048 44.595,22.546 44.278,24.172 42.634,24.374 44.083,25.178 
	43.767,26.805 44.979,25.675 46.428,26.479 45.728,24.977 "/>
<polygon fill="#FFF300" points="41.455,17.31 40.131,18.307 38.773,17.355 39.313,18.923 37.989,19.92 39.646,19.892 40.187,21.459 
	40.672,19.873 42.328,19.845 40.971,18.895 "/>
<linearGradient id="SVGID_1_" gradientUnits="userSpaceOnUse" x1="32.0005" y1="62" x2="32.0005" y2="2.0005">
	<stop  offset="0" style="stop-color:#1A1A1A"/>
	<stop  offset="0.102" style="stop-color:#393939;stop-opacity:0.949"/>
	<stop  offset="0.3475" style="stop-color:#7F7F7F;stop-opacity:0.8262"/>
	<stop  offset="0.5688" style="stop-color:#B6B6B6;stop-opacity:0.7156"/>
	<stop  offset="0.7582" style="stop-color:#DEDEDE;stop-opacity:0.6209"/>
	<stop  offset="0.9081" style="stop-color:#F6F6F6;stop-opacity:0.5459"/>
	<stop  offset="1" style="stop-color:#FFFFFF;stop-opacity:0.5"/>
	<a:midPointStop  offset="0" style="stop-color:#1A1A1A"/>
	<a:midPointStop  offset="0.4" style="stop-color:#1A1A1A"/>
	<a:midPointStop  offset="1" style="stop-color:#FFFFFF;stop-opacity:0.5"/>
</linearGradient>
<circle opacity="0.1" fill="url(#SVGID_1_)" cx="32" cy="32" r="30"/>
</svg>
