<?xml version="1.0" encoding="utf-8"?>
<!-- Generator: Adobe Illustrator 24.1.2, SVG Export Plug-In . SVG Version: 6.00 Build 0)  -->
<svg version="1.1" id="Layer_1" xmlns="http://www.w3.org/2000/svg" xmlns:xlink="http://www.w3.org/1999/xlink" x="0px" y="0px"
	 width="64px" height="64px" viewBox="0 0 64 64" style="enable-background:new 0 0 64 64;" xml:space="preserve">
<style type="text/css">
	.st0{fill:#007934;}
	.st1{fill:#E81C27;}
	.st2{fill:#FFE000;}
	.st3{opacity:0.1;fill:url(#SVGID_1_);}
</style>
<path class="st0" d="M62,32c0-8.18-3.28-15.59-8.58-21H10.58C5.28,16.41,2,23.82,2,32s3.28,15.59,8.58,21h42.83
	C58.72,47.59,62,40.18,62,32z"/>
<path class="st1" d="M32,2c-8.39,0-15.97,3.45-21.42,9h42.83C47.97,5.45,40.39,2,32,2z"/>
<path class="st1" d="M53.42,53H10.58c5.44,5.55,13.03,9,21.42,9S47.97,58.55,53.42,53z"/>
<path class="st2" d="M48.29,28.68c-1.54,7.59-8.25,13.3-16.29,13.3s-14.75-5.71-16.29-13.3c-0.22,1.07-0.33,2.19-0.33,3.32
	c0,9.18,7.44,16.63,16.63,16.63S48.63,41.18,48.63,32C48.63,30.86,48.51,29.75,48.29,28.68z"/>
<polygon class="st2" points="26.35,32 32,28.1 37.65,32 35.52,25.66 41.14,21.61 34.17,21.61 32,15.38 29.89,21.61 22.86,21.61 
	28.48,25.66 "/>
<linearGradient id="SVGID_1_" gradientUnits="userSpaceOnUse" x1="32" y1="62" x2="32" y2="2">
	<stop  offset="0" style="stop-color:#1A1A1A"/>
	<stop  offset="0.102" style="stop-color:#393939;stop-opacity:0.949"/>
	<stop  offset="0.3475" style="stop-color:#7F7F7F;stop-opacity:0.8262"/>
	<stop  offset="0.5688" style="stop-color:#B6B6B6;stop-opacity:0.7156"/>
	<stop  offset="0.7582" style="stop-color:#DEDEDE;stop-opacity:0.6209"/>
	<stop  offset="0.9081" style="stop-color:#F6F6F6;stop-opacity:0.5459"/>
	<stop  offset="1" style="stop-color:#FFFFFF;stop-opacity:0.5"/>
</linearGradient>
<circle class="st3" cx="32" cy="32" r="30"/>
</svg>
