<?xml version="1.0" encoding="utf-8"?>
<!-- Generator: Adobe Illustrator 24.1.2, SVG Export Plug-In . SVG Version: 6.00 Build 0)  -->
<svg version="1.1" id="Layer_1" xmlns="http://www.w3.org/2000/svg" xmlns:xlink="http://www.w3.org/1999/xlink" x="0px" y="0px"
	 width="64px" height="64px" viewBox="0 0 64 64" style="enable-background:new 0 0 64 64;" xml:space="preserve">
<style type="text/css">
	.st0{fill:#E81C27;}
	.st1{fill:#FCFCFC;}
	.st2{opacity:0.1;fill:url(#SVGID_1_);}
</style>
<circle class="st0" cx="32" cy="32" r="30"/>
<path class="st1" d="M32,14.71c-9.55,0-17.29,7.74-17.29,17.29S22.45,49.29,32,49.29c9.55,0,17.29-7.74,17.29-17.29
	S41.55,14.71,32,14.71z M41.75,36.57l-5.38-1.75l-3.32,4.57v-5.65L27.68,32l5.38-1.75V24.6l3.32,4.57l5.38-1.75L38.43,32
	L41.75,36.57z M35.46,21.63c-5.73,0-10.37,4.64-10.37,10.37s4.64,10.37,10.37,10.37c2.71,0,5.16-1.04,7.01-2.74
	c-2.36,3.23-6.16,5.33-10.46,5.33c-7.16,0-12.96-5.8-12.96-12.96S24.84,19.04,32,19.04c4.3,0,8.11,2.11,10.46,5.33
	C40.62,22.67,38.16,21.63,35.46,21.63z"/>
<linearGradient id="SVGID_1_" gradientUnits="userSpaceOnUse" x1="32" y1="62" x2="32" y2="2">
	<stop  offset="0" style="stop-color:#1A1A1A"/>
	<stop  offset="0.102" style="stop-color:#393939;stop-opacity:0.949"/>
	<stop  offset="0.3475" style="stop-color:#7F7F7F;stop-opacity:0.8262"/>
	<stop  offset="0.5688" style="stop-color:#B6B6B6;stop-opacity:0.7156"/>
	<stop  offset="0.7582" style="stop-color:#DEDEDE;stop-opacity:0.6209"/>
	<stop  offset="0.9081" style="stop-color:#F6F6F6;stop-opacity:0.5459"/>
	<stop  offset="1" style="stop-color:#FFFFFF;stop-opacity:0.5"/>
</linearGradient>
<circle class="st2" cx="32" cy="32" r="30"/>
</svg>
