<?xml version="1.0" encoding="utf-8"?>
<!-- Generator: Adobe Illustrator 24.1.2, SVG Export Plug-In . SVG Version: 6.00 Build 0)  -->
<svg version="1.1" id="Layer_1" xmlns="http://www.w3.org/2000/svg" xmlns:xlink="http://www.w3.org/1999/xlink" x="0px" y="0px"
	 width="64px" height="64px" viewBox="0 0 64 64" style="enable-background:new 0 0 64 64;" xml:space="preserve">
<style type="text/css">
	.st0{fill:#0038B8;}
	.st1{fill:#FCFCFC;}
	.st2{fill:#FF0000;}
	.st3{opacity:0.1;fill:url(#SVGID_1_);}
</style>
<path class="st0" d="M32,2v30H2c0,16.57,13.43,30,30,30s30-13.43,30-30S48.57,2,32,2z"/>
<path class="st1" d="M32,2c-0.17,0-0.33,0.01-0.5,0.01v29.32h-9.67V3.77c-3.59,1.29-6.86,3.25-9.67,5.73v21.83H2.02
	C2.01,31.56,2,31.78,2,32h30V2z"/>
<path class="st0" d="M2.02,31.34h10.15V9.5C6.09,14.86,2.21,22.64,2.02,31.34z"/>
<path class="st2" d="M21.83,31.34h9.67V2.01c-3.39,0.06-6.64,0.67-9.67,1.76V31.34z"/>
<path class="st1" d="M47.65,42.8v-4.3h1.8l1.33-2.12h-3.13v-1.36h3.99l1.4-2.23H39.76l1.4,2.23h3.99v7.78l-2.99-4.68l-4.03,6.42
	h1.96l0.4-0.71h3.34l2.58,4.63l2.58-4.63h3.34l0.4,0.71h1.96l-4.03-6.42L47.65,42.8z M41.33,42.31l0.82-1.47l0.82,1.47H41.33z
	 M49.83,42.31l0.82-1.47l0.82,1.47H49.83z"/>
<polygon class="st1" points="46.91,51.57 46.4,49.99 45.89,51.57 44.22,51.57 45.57,52.54 45.06,54.12 46.4,53.15 47.74,54.12 
	47.23,52.54 48.57,51.57 "/>
<polygon class="st1" points="42.01,47.87 41.5,46.29 40.99,47.87 39.33,47.87 40.67,48.84 40.16,50.42 41.5,49.45 42.85,50.42 
	42.33,48.84 43.67,47.87 "/>
<polygon class="st1" points="51.81,47.87 51.3,46.29 50.79,47.87 49.13,47.87 50.47,48.84 49.96,50.42 51.3,49.45 52.64,50.42 
	52.13,48.84 53.47,47.87 "/>
<polygon class="st1" points="38.19,37.85 39.54,36.87 37.88,36.87 37.36,35.29 36.85,36.87 35.19,36.87 36.53,37.85 36.02,39.43 
	37.36,38.45 38.71,39.43 "/>
<polygon class="st1" points="57.61,36.87 55.95,36.87 55.43,35.29 54.92,36.87 53.26,36.87 54.6,37.85 54.09,39.43 55.43,38.45 
	56.78,39.43 56.26,37.85 "/>
<linearGradient id="SVGID_1_" gradientUnits="userSpaceOnUse" x1="32" y1="62" x2="32" y2="2">
	<stop  offset="0" style="stop-color:#1A1A1A"/>
	<stop  offset="0.102" style="stop-color:#393939;stop-opacity:0.949"/>
	<stop  offset="0.3475" style="stop-color:#7F7F7F;stop-opacity:0.8262"/>
	<stop  offset="0.5688" style="stop-color:#B6B6B6;stop-opacity:0.7156"/>
	<stop  offset="0.7582" style="stop-color:#DEDEDE;stop-opacity:0.6209"/>
	<stop  offset="0.9081" style="stop-color:#F6F6F6;stop-opacity:0.5459"/>
	<stop  offset="1" style="stop-color:#FFFFFF;stop-opacity:0.5"/>
</linearGradient>
<circle class="st3" cx="32" cy="32" r="30"/>
</svg>
