<?xml version="1.0" encoding="utf-8"?>
<!-- Generator: Adobe Illustrator 24.1.2, SVG Export Plug-In . SVG Version: 6.00 Build 0)  -->
<svg version="1.1" id="Layer_1" xmlns="http://www.w3.org/2000/svg" xmlns:xlink="http://www.w3.org/1999/xlink" x="0px" y="0px"
	 width="64px" height="64px" viewBox="0 0 64 64" style="enable-background:new 0 0 64 64;" xml:space="preserve">
<style type="text/css">
	.st0{fill:url(#SVGID_1_);}
	.st1{fill:#FFFFFF;}
</style>
<linearGradient id="SVGID_1_" gradientUnits="userSpaceOnUse" x1="32" y1="2" x2="32" y2="62">
	<stop  offset="0" style="stop-color:#FF9900"/>
	<stop  offset="0.2875" style="stop-color:#FF9500"/>
	<stop  offset="0.5853" style="stop-color:#FF8800"/>
	<stop  offset="0.8868" style="stop-color:#FF7400"/>
	<stop  offset="1" style="stop-color:#FF6A00"/>
</linearGradient>
<circle class="st0" cx="32" cy="32" r="30"/>
<path class="st1" d="M38.7,34.86c0,2.52-0.58,4.44-1.73,5.77c-1.15,1.33-2.81,2-4.97,2c-2.25,0-3.95-0.67-5.1-2
	c-1.15-1.33-1.73-3.25-1.73-5.77V16h-6.75v18.55c0,4.41,1.15,7.75,3.44,10.03C24.15,46.86,27.53,48,32,48
	c4.38,0,7.74-1.15,10.07-3.44c2.34-2.29,3.51-5.63,3.51-10.01V16H38.7V34.86z"/>
</svg>
