<?xml version="1.0" encoding="utf-8"?>
<!-- Generator: Adobe Illustrator 24.1.2, SVG Export Plug-In . SVG Version: 6.00 Build 0)  -->
<svg version="1.1" id="Layer_1" xmlns="http://www.w3.org/2000/svg" xmlns:xlink="http://www.w3.org/1999/xlink" x="0px" y="0px"
	 width="64px" height="64px" viewBox="0 0 64 64" style="enable-background:new 0 0 64 64;" xml:space="preserve">
<style type="text/css">
	.st0{fill:#FCFCFC;}
	.st1{fill:#E81C27;}
	.st2{fill:#000080;}
	.st3{opacity:0.1;fill:url(#SVGID_1_);}
</style>
<path class="st0" d="M56,14H8c-1.81,2.41-3.26,5.1-4.29,8h56.57C59.26,19.1,57.81,16.41,56,14z"/>
<path class="st0" d="M8,50h48c1.81-2.41,3.26-5.1,4.29-8H3.71C4.74,44.9,6.19,47.59,8,50z"/>
<path class="st1" d="M32,2C22.19,2,13.47,6.71,8,14h48C50.53,6.71,41.81,2,32,2z"/>
<path class="st1" d="M32,62c9.81,0,18.53-4.71,24-12H8C13.47,57.29,22.19,62,32,62z"/>
<path class="st2" d="M60.29,22H3.71C2.61,25.13,2,28.49,2,32s0.61,6.87,1.71,10h56.57C61.39,38.87,62,35.51,62,32
	S61.39,25.13,60.29,22z"/>
<linearGradient id="SVGID_1_" gradientUnits="userSpaceOnUse" x1="32" y1="62" x2="32" y2="2">
	<stop  offset="0" style="stop-color:#1A1A1A"/>
	<stop  offset="0.102" style="stop-color:#393939;stop-opacity:0.949"/>
	<stop  offset="0.3475" style="stop-color:#7F7F7F;stop-opacity:0.8262"/>
	<stop  offset="0.5688" style="stop-color:#B6B6B6;stop-opacity:0.7156"/>
	<stop  offset="0.7582" style="stop-color:#DEDEDE;stop-opacity:0.6209"/>
	<stop  offset="0.9081" style="stop-color:#F6F6F6;stop-opacity:0.5459"/>
	<stop  offset="1" style="stop-color:#FFFFFF;stop-opacity:0.5"/>
</linearGradient>
<circle class="st3" cx="32" cy="32" r="30"/>
</svg>
