<?xml version="1.0" encoding="utf-8"?>
<!-- Generator: Adobe Illustrator 24.1.2, SVG Export Plug-In . SVG Version: 6.00 Build 0)  -->
<svg version="1.1" id="Layer_1" xmlns="http://www.w3.org/2000/svg" xmlns:xlink="http://www.w3.org/1999/xlink" x="0px" y="0px"
	 width="64px" height="64px" viewBox="0 0 64 64" style="enable-background:new 0 0 64 64;" xml:space="preserve">
<style type="text/css">
	.st0{fill:#1A1626;}
	.st1{fill:#007934;}
	.st2{fill:#E81C27;}
	.st3{fill:#FCFCFC;}
	.st4{fill:#0F47AF;}
	.st5{fill:#FFF300;}
	.st6{opacity:0.1;fill:url(#SVGID_1_);}
</style>
<path class="st0" d="M32,2C19.32,2,8.5,9.88,4.11,21h55.78C55.5,9.88,44.68,2,32,2z"/>
<path class="st1" d="M32,62c12.68,0,23.5-7.88,27.89-19H4.11C8.5,54.12,19.32,62,32,62z"/>
<path class="st2" d="M62,32c0-3.14-0.49-6.16-1.38-9H3.38C2.49,25.84,2,28.86,2,32c0,3.14,0.49,6.16,1.38,9h57.23
	C61.51,38.16,62,35.14,62,32z"/>
<path class="st3" d="M60.29,22c-0.12-0.34-0.27-0.67-0.4-1H4.11c-0.13,0.33-0.28,0.66-0.4,1c-0.12,0.33-0.22,0.66-0.33,1h57.23
	C60.51,22.66,60.4,22.33,60.29,22z"/>
<path class="st3" d="M3.71,42c0.12,0.34,0.27,0.67,0.4,1h55.78c0.13-0.33,0.28-0.66,0.4-1c0.12-0.33,0.23-0.66,0.33-1H3.38
	C3.49,41.34,3.6,41.67,3.71,42z"/>
<path class="st4" d="M10.79,10.79C5.36,16.21,2,23.71,2,32c0,8.28,3.36,15.78,8.79,21.21L32,32L10.79,10.79z"/>
<polygon class="st5" points="16.61,32.12 20.94,29.1 15.51,29.01 13.64,24 12.05,28.95 6.69,28.91 11.07,31.98 9.45,36.96 
	13.89,33.99 18.35,37.1 "/>
<linearGradient id="SVGID_1_" gradientUnits="userSpaceOnUse" x1="32" y1="62" x2="32" y2="2">
	<stop  offset="0" style="stop-color:#1A1A1A"/>
	<stop  offset="0.102" style="stop-color:#393939;stop-opacity:0.949"/>
	<stop  offset="0.3475" style="stop-color:#7F7F7F;stop-opacity:0.8262"/>
	<stop  offset="0.5688" style="stop-color:#B6B6B6;stop-opacity:0.7156"/>
	<stop  offset="0.7582" style="stop-color:#DEDEDE;stop-opacity:0.6209"/>
	<stop  offset="0.9081" style="stop-color:#F6F6F6;stop-opacity:0.5459"/>
	<stop  offset="1" style="stop-color:#FFFFFF;stop-opacity:0.5"/>
</linearGradient>
<circle class="st6" cx="32" cy="32" r="30"/>
</svg>
