<?xml version="1.0" encoding="utf-8"?>
<!-- Generator: Adobe Illustrator 24.1.2, SVG Export Plug-In . SVG Version: 6.00 Build 0)  -->
<svg version="1.1" id="Layer_1" xmlns="http://www.w3.org/2000/svg" xmlns:xlink="http://www.w3.org/1999/xlink" x="0px" y="0px"
	 width="64px" height="64px" viewBox="0 0 64 64" style="enable-background:new 0 0 64 64;" xml:space="preserve">
<style type="text/css">
	.st0{fill:#FF0000;}
	.st1{fill:#002395;}
	.st2{fill:#FCFCFC;}
	.st3{fill:#FFE000;}
	.st4{fill:#E81C27;}
	.st5{fill:#69B4E9;}
	.st6{fill:#F9C300;}
	.st7{fill:#A65000;}
	.st8{fill:#008830;}
	.st9{opacity:0.1;fill:url(#SVGID_1_);}
</style>
<path class="st0" d="M10.79,10.79V32H62C62,15.43,48.57,2,32,2C23.71,2,16.21,5.36,10.79,10.79L10.79,10.79z"/>
<path class="st1" d="M10.79,32v21.21l0,0C16.21,58.64,23.71,62,32,62c16.57,0,30-13.43,30-30H10.79z"/>
<path class="st2" d="M10.79,10.79C5.36,16.22,2,23.72,2,32c0,8.29,3.36,15.78,8.79,21.21L32,32L10.79,10.79z"/>
<path class="st3" d="M18.59,25.34l0.01-0.39c0,0-0.21-0.33,0.03-0.69c0,0-0.51-0.27-0.39-0.7c0,0-0.46-0.12-0.43-0.63
	c0,0-0.5-0.04-0.55-0.46c0,0-0.5,0.08-0.72-0.33c0,0-0.49,0.1-0.63-0.25c0,0-0.48,0.16-0.76-0.24c0,0-0.5,0.2-0.71-0.18
	c-0.21,0.38-0.71,0.18-0.71,0.18c-0.28,0.4-0.76,0.23-0.76,0.23c-0.13,0.34-0.62,0.25-0.62,0.25c-0.22,0.42-0.72,0.33-0.72,0.33
	c-0.05,0.42-0.55,0.46-0.55,0.46c0.04,0.51-0.42,0.63-0.42,0.63c0.12,0.42-0.39,0.7-0.39,0.7c0.25,0.36,0.04,0.69,0.04,0.69
	L10.3,25.3L18.59,25.34L18.59,25.34L18.59,25.34z"/>
<path class="st4" d="M20.95,28.88c0.14-1.55,0.43-3.07,0.69-4.56c-0.82,0.37-1.68,0.65-2.63,0.58l-0.08-0.01
	c-0.52-0.09-1.11-0.09-1.61-0.17c-0.92-0.09-2.05-0.12-2.83,0.34l0,0c-0.78-0.46-1.91-0.43-2.83-0.34c-0.5,0.09-1.09,0.09-1.61,0.17
	l-0.08,0.01c-0.95,0.06-1.81-0.22-2.63-0.58c0.26,1.48,0.55,3,0.69,4.56c0.31,2.3-1.09,4.23-0.51,6.5c0.34,1.09,1.54,1.72,2.64,1.85
	c1.06,0.06,2.16,0.24,3.15,0.45c0.19,0.04,0.41,0.13,0.54,0.18c0.27,0.11,0.47,0.28,0.65,0.46c0.17-0.18,0.38-0.35,0.65-0.46
	c0.13-0.05,0.35-0.14,0.54-0.18c0.98-0.21,2.08-0.39,3.15-0.45c1.1-0.13,2.3-0.76,2.64-1.85C22.04,33.11,20.64,31.18,20.95,28.88z"
	/>
<path class="st5" d="M20.03,29.48c0.08-1.37,0.31-2.68,0.62-3.96c-1.04,0.49-2.25,0.57-3.43,0.33c-0.87-0.12-1.92-0.12-2.73,0.24
	l0,0c-0.81-0.37-1.86-0.37-2.73-0.24c-1.17,0.23-2.38,0.15-3.43-0.33c0.32,1.28,0.54,2.59,0.63,3.96c0.12,1.79-0.92,3.32-0.49,5.12
	c0.17,0.69,0.87,1.21,1.54,1.42c1.34,0.34,2.87,0.13,4.06,0.76c0.17,0.08,0.29,0.21,0.42,0.29c0.13-0.08,0.26-0.22,0.42-0.29
	c1.18-0.63,2.72-0.42,4.06-0.76c0.67-0.21,1.37-0.73,1.54-1.42C20.95,32.8,19.91,31.27,20.03,29.48z"/>
<polygon class="st2" points="19.4,35.05 18.7,35.05 18.69,32.91 18.84,32.91 18.83,32.46 18.46,32.46 18.46,30.45 18.7,30.45 
	15.66,28.48 15.66,27.46 15.95,27.46 14.43,26.38 12.92,27.46 13.21,27.46 13.22,28.48 10.19,30.44 10.43,30.45 10.44,32.45 
	10.08,32.45 10.08,32.9 10.25,32.91 10.26,35.04 9.61,35.04 9.61,35.66 19.4,35.67 19.4,35.05 "/>
<path class="st1" d="M19.46,34.99h-0.71l-0.01-2.03h0.15l0-0.56l-0.36,0l-0.01-1.9h0.38l-3.17-2.05l0-0.94h0.41l-1.69-1.21
	l-1.68,1.21h0.41l0.01,0.93l-3.15,2.04l0.37,0l0.01,1.9h-0.31h-0.06v0.56l0.17,0.01l0.01,2.02H9.55v0.73l9.91,0.01V34.99z
	 M13.27,28.51l-0.01-1.11h-0.18l1.34-0.96l1.35,0.96H15.6l0.01,1.11l2.91,1.88H18.4l0.01,1.99l-7.91-0.01l-0.01-1.99l-0.11,0
	L13.27,28.51z M10.13,32.85v-0.34l8.64,0.01l0,0.34h-0.15l0.01,2.11l-8.33-0.01l-0.01-2.1L10.13,32.85z M9.66,35.61l0-0.51
	l9.69,0.01v0.51L9.66,35.61z"/>
<path class="st1" d="M14.31,32.16l-0.01-1.58h-1.29l0.01,1.58H14.31z M14.2,30.69l0,1.36h-1.06l0-1.36H14.2z"/>
<path class="st1" d="M12.2,34.55l-0.01-1.53v-0.05H10.9l0.01,1.58H12.2z M12.08,33.08l0.01,1.36h-1.06l-0.01-1.36H12.08z"/>
<path class="st1" d="M12.19,32.16l-0.01-1.58h-1.29l0.01,1.58H12.19z M12.07,30.69l0.01,1.36h-1.06l0-1.36H12.07z"/>
<path class="st1" d="M17.93,32.16l-0.01-1.58h-1.28l0,1.58H17.93z M17.82,30.69l0.01,1.36h-1.06l0-1.36H17.82z"/>
<path class="st1" d="M17.94,34.55l-0.01-1.58h-1.28l0.01,1.58H17.94z M17.82,33.08l0.01,1.36h-1.06l-0.01-1.36H17.82z"/>
<path class="st1" d="M14.67,32.16h1.29l-0.01-1.58h-1.28L14.67,32.16z M15.83,30.69l0.01,1.36h-1.06l-0.01-1.36H15.83z"/>
<path class="st1" d="M13.47,27.6l0,0.96l1.92,0l0-0.96H13.47z M13.59,28.45l0-0.74h1.7l0,0.74L13.59,28.45z"/>
<path class="st1" d="M14.43,26.62l-1.11,0.83l2.23,0L14.43,26.62z M14.43,26.75l0.83,0.59l-1.66,0L14.43,26.75z"/>
<polygon class="st2" points="16.19,31.65 12.79,31.65 12.8,35.04 16.2,35.04 "/>
<path class="st1" d="M12.73,31.6l0.01,3.49l3.51,0.01l-0.01-3.5L12.73,31.6z M16.13,31.71l0,0.86h-3.29l0-0.86L16.13,31.71z
	 M13.24,32.68h2.48l0.01,2.3l-2.48,0L13.24,32.68z M12.85,32.68h0.28l0.01,2.3l-0.28,0L12.85,32.68z M15.84,34.98l-0.01-2.3h0.3
	l0.01,2.3H15.84z"/>
<path class="st1" d="M15.53,28.76h-2.19l-2.05,1.51h6.31L15.53,28.76z M13.38,28.87h2.12l1.76,1.29h-5.63L13.38,28.87z"/>
<path class="st2" d="M18.5,26.2c0.29-0.01,0.36,1.18,0.36,1.77c0.25,0.07,0.79,0.41,1.03,0.72l-2.76,0
	c0.24-0.31,0.78-0.65,1.02-0.72C18.15,27.38,18.21,26.19,18.5,26.2"/>
<path class="st6" d="M14.5,39.38c1.27,0,2.84-0.26,3.57-0.63l1.61-0.14l0.03,1.97c-1.37,0.75-4.52,0.91-5.21,0.91
	c-0.69,0.01-3.88-0.16-5.26-0.91l0.02-1.97l1.62,0.14C11.62,39.12,13.24,39.38,14.5,39.38L14.5,39.38"/>
<path class="st3" d="M5.11,30.99l1.42,0.45l-0.43,2.3l-1.34,0.21C4.75,33.95,4.53,32.74,5.11,30.99"/>
<polyline class="st6" points="6.1,33.72 4.75,33.95 5.6,32.74 6.1,33.72 "/>
<path class="st3" d="M4.26,32.65l1.37,0.1c0.03,1.16,0.17,5.58,5.46,5.82l-0.16,1.61C4.49,40.25,4,34.76,4.26,32.65"/>
<path class="st3" d="M23.79,31.01l-1.42,0.45l0.45,2.29l1.35,0.22C24.17,33.97,24.39,32.76,23.79,31.01L23.79,31.01L23.79,31.01z"/>
<polyline class="st6" points="22.83,33.73 24.17,33.97 23.31,32.76 22.83,33.73 "/>
<path class="st3" d="M24.66,32.67l-1.37,0.09c-0.02,1.16-0.12,5.58-5.41,5.82l0.18,1.61C24.49,40.26,24.93,34.77,24.66,32.67"/>
<path class="st1" d="M13.65,40.35c-0.04,0.02-0.09,0.03-0.14,0.03l-0.25-0.01l0.02-0.32l0.25,0.01c0.05,0,0.09,0.01,0.11,0.03
	c0.05,0.03,0.07,0.07,0.07,0.14C13.71,40.29,13.69,40.33,13.65,40.35 M13.22,40.85l0.03-0.39l0.3,0.02c0.1,0.01,0.17-0.02,0.22-0.07
	c0.05-0.05,0.08-0.11,0.08-0.18c0.01-0.08-0.02-0.15-0.06-0.2c-0.05-0.05-0.11-0.07-0.2-0.08l-0.42-0.03l-0.06,0.91L13.22,40.85
	 M14.15,40.09l0.31,0 M14.15,40.09l0.31,0 M14.15,40.09l0.31,0 M14.15,40.09l0.31,0 M14.15,40.09l0.31,0c0.04,0,0.08,0.01,0.11,0.02
	c0.05,0.02,0.07,0.07,0.07,0.13c0,0.06-0.02,0.1-0.05,0.13c-0.03,0.02-0.08,0.03-0.14,0.03l-0.3,0L14.15,40.09 M14.14,40.89l0-0.39
	l0.29,0c0.05,0,0.09,0,0.12,0.02c0.04,0.02,0.06,0.06,0.07,0.12l0.01,0.15c0,0.04,0,0.06,0,0.07c0,0.01,0.01,0.02,0.01,0.03h0.16
	l0-0.02c-0.02-0.01-0.03-0.03-0.04-0.06c-0.01-0.02-0.01-0.04-0.01-0.08l0-0.12c0-0.06-0.01-0.09-0.03-0.12
	c-0.02-0.03-0.05-0.05-0.08-0.06c0.04-0.02,0.08-0.05,0.1-0.08c0.02-0.04,0.03-0.08,0.03-0.14c0-0.11-0.04-0.18-0.13-0.21
	c-0.05-0.02-0.11-0.03-0.18-0.04l-0.44,0l0,0.92L14.14,40.89 M15.11,40.7c-0.06-0.07-0.09-0.15-0.09-0.25
	c-0.01-0.13,0.02-0.22,0.08-0.29c0.06-0.07,0.13-0.11,0.23-0.11c0.1-0.01,0.18,0.03,0.24,0.09c0.06,0.06,0.1,0.15,0.1,0.25
	c0,0.1-0.01,0.19-0.06,0.27c-0.05,0.08-0.12,0.13-0.24,0.13C15.26,40.8,15.17,40.77,15.11,40.7 M14.96,40.13
	c-0.06,0.09-0.08,0.2-0.08,0.32c0.01,0.14,0.05,0.25,0.13,0.34c0.09,0.08,0.21,0.13,0.35,0.12c0.15-0.01,0.27-0.06,0.35-0.17
	c0.06-0.1,0.09-0.21,0.09-0.35c-0.01-0.13-0.04-0.23-0.11-0.3c-0.09-0.1-0.21-0.15-0.38-0.14C15.16,39.95,15.04,40.01,14.96,40.13
	 M19.27,38.81c0.09-0.01,0.16-0.01,0.23,0.01c0.1,0.03,0.17,0.11,0.21,0.22l-0.13,0.02c-0.03-0.06-0.07-0.11-0.12-0.13
	c-0.05-0.02-0.12-0.03-0.19-0.02c-0.08,0.01-0.16,0.05-0.2,0.12c-0.05,0.07-0.06,0.17-0.04,0.3c0.02,0.1,0.06,0.19,0.12,0.25
	c0.06,0.06,0.14,0.08,0.25,0.06c0.08-0.01,0.15-0.05,0.2-0.1c0.05-0.05,0.06-0.14,0.05-0.24l-0.29,0.04l-0.02-0.1l0.41-0.06
	l0.08,0.48l-0.08,0.01l-0.05-0.11c-0.03,0.05-0.07,0.09-0.1,0.11c-0.05,0.04-0.12,0.06-0.2,0.08c-0.11,0.02-0.21,0-0.3-0.06
	c-0.1-0.07-0.17-0.19-0.19-0.34c-0.03-0.15,0-0.28,0.07-0.38C19.05,38.88,19.14,38.82,19.27,38.81 M20.2,38.74l0.29-0.11
	c0.04-0.01,0.08-0.02,0.1-0.02c0.05,0,0.09,0.04,0.12,0.1c0.02,0.05,0.02,0.1,0,0.14c-0.02,0.04-0.06,0.06-0.12,0.08l-0.28,0.1
	L20.2,38.74 M20.49,39.49l-0.14-0.37l0.27-0.1c0.05-0.02,0.09-0.02,0.11-0.02c0.05,0.01,0.08,0.04,0.11,0.09l0.06,0.14
	c0.01,0.04,0.02,0.06,0.03,0.07c0,0.01,0.01,0.02,0.02,0.03l0.15-0.05l-0.01-0.02c-0.02,0-0.04-0.01-0.06-0.04
	c-0.01-0.02-0.02-0.04-0.04-0.07l-0.05-0.12c-0.02-0.05-0.04-0.08-0.07-0.1c-0.03-0.02-0.06-0.02-0.1-0.03
	c0.03-0.04,0.05-0.07,0.06-0.11c0.01-0.04,0-0.09-0.01-0.14c-0.04-0.1-0.11-0.15-0.2-0.16c-0.05,0-0.11,0.01-0.18,0.03l-0.41,0.15
	l0.33,0.86L20.49,39.49 M21.57,39.04l-0.52-0.76l0.57-0.37L21.68,38l-0.47,0.3l0.16,0.23l0.44-0.28l0.06,0.09l-0.43,0.28l0.18,0.26
	l0.48-0.31l0.06,0.09L21.57,39.04 M22.03,37.69l0.15-0.16c0.07-0.07,0.14-0.11,0.22-0.1c0.08,0.01,0.16,0.05,0.25,0.13
	c0.02,0.02,0.04,0.04,0.07,0.07c0.04,0.05,0.06,0.09,0.08,0.14c0.01,0.05,0.01,0.1-0.01,0.15c-0.01,0.02-0.03,0.05-0.06,0.08
	l-0.15,0.16L22.03,37.69 M22.82,38.05c0.11-0.12,0.13-0.24,0.07-0.39c-0.04-0.08-0.1-0.16-0.17-0.22c-0.1-0.09-0.2-0.13-0.3-0.14
	c-0.12-0.01-0.22,0.04-0.3,0.13l-0.26,0.28l0.71,0.62L22.82,38.05 M23.37,37.34l-0.81-0.48l0.07-0.11l0.81,0.47L23.37,37.34
	 M23.68,36.78l-0.88-0.35l0.26-0.62l0.11,0.04l-0.21,0.51l0.26,0.11l0.2-0.47l0.1,0.04l-0.19,0.47l0.29,0.12l0.22-0.51l0.11,0.04
	L23.68,36.78 M24.09,35.71l-0.92-0.2l0.03-0.14l0.85-0.29l-0.75-0.16l0.03-0.11l0.92,0.2l-0.03,0.14l-0.85,0.29l0.75,0.16
	L24.09,35.71 M24.01,34.54l0.01-0.12c0.05,0,0.1-0.01,0.13-0.03c0.07-0.04,0.11-0.11,0.12-0.21c0-0.05,0-0.09-0.01-0.13
	c-0.02-0.08-0.06-0.12-0.13-0.13c-0.05-0.01-0.09,0.01-0.12,0.04C24,34,23.97,34.04,23.95,34.11l-0.04,0.12
	c-0.03,0.08-0.05,0.13-0.08,0.16c-0.04,0.06-0.11,0.08-0.18,0.07c-0.08-0.01-0.15-0.04-0.2-0.11c-0.05-0.06-0.07-0.14-0.06-0.25
	c0.01-0.09,0.04-0.17,0.1-0.24c0.05-0.06,0.13-0.09,0.24-0.08l-0.01,0.12c-0.05,0-0.09,0.01-0.12,0.03
	c-0.05,0.03-0.08,0.09-0.09,0.18c-0.01,0.08,0,0.13,0.03,0.16c0.03,0.03,0.06,0.05,0.11,0.06c0.04,0,0.08-0.01,0.11-0.04
	c0.02-0.03,0.04-0.08,0.07-0.16l0.04-0.13c0.02-0.06,0.05-0.1,0.07-0.14c0.05-0.05,0.12-0.07,0.2-0.07c0.1,0.01,0.17,0.05,0.21,0.13
	c0.04,0.08,0.05,0.16,0.04,0.26c-0.01,0.11-0.05,0.2-0.11,0.26C24.2,34.52,24.12,34.54,24.01,34.54 M4.89,34.48l0.02,0.11
	c-0.05,0.01-0.09,0.03-0.12,0.06c-0.05,0.05-0.07,0.13-0.05,0.23c0.01,0.04,0.02,0.09,0.04,0.12c0.04,0.07,0.09,0.1,0.16,0.09
	c0.05-0.01,0.08-0.03,0.1-0.06c0.01-0.04,0.03-0.09,0.03-0.16l0.01-0.13c0-0.08,0.01-0.14,0.03-0.18c0.03-0.06,0.08-0.1,0.16-0.12
	c0.08-0.02,0.16,0,0.22,0.05c0.06,0.04,0.11,0.12,0.12,0.22c0.02,0.09,0.01,0.18-0.03,0.25c-0.04,0.07-0.1,0.12-0.21,0.14L5.35,35
	c0.05-0.02,0.08-0.04,0.11-0.06c0.04-0.04,0.05-0.11,0.04-0.2c-0.01-0.07-0.04-0.12-0.08-0.14c-0.04-0.03-0.08-0.04-0.12-0.03
	c-0.04,0.01-0.08,0.03-0.09,0.07C5.2,34.66,5.2,34.71,5.19,34.8l-0.01,0.13c0,0.06-0.01,0.12-0.03,0.15
	c-0.03,0.07-0.09,0.11-0.17,0.12c-0.1,0.02-0.19-0.01-0.24-0.07c-0.06-0.07-0.09-0.14-0.11-0.24c-0.02-0.12,0-0.21,0.04-0.28
	C4.71,34.54,4.79,34.49,4.89,34.48 M4.83,35.69l0.9-0.27l0.21,0.63l-0.11,0.04l-0.17-0.52l-0.27,0.08l0.16,0.48l-0.1,0.03
	l-0.16-0.48l-0.31,0.09l0.17,0.53l-0.11,0.03L4.83,35.69 M5.23,36.79l0.83-0.44l0.09,0.15l-0.57,0.6l0.83-0.14l0.09,0.15l-0.83,0.44
	l-0.06-0.1L6.1,37.2c0.02-0.01,0.04-0.03,0.09-0.05c0.04-0.02,0.08-0.04,0.13-0.06l-0.83,0.14l-0.06-0.11l0.57-0.6l-0.03,0.01
	c-0.02,0.01-0.05,0.03-0.09,0.05c-0.03,0.02-0.06,0.04-0.09,0.05l-0.49,0.26L5.23,36.79 M6.77,38.01C6.73,38,6.69,37.98,6.65,37.94
	l-0.17-0.18l0.24-0.22l0.18,0.18c0.03,0.03,0.06,0.07,0.07,0.1c0.02,0.05,0,0.1-0.05,0.15C6.86,38,6.82,38.02,6.77,38.01 M6.11,38.1
	l0.29-0.27l0.21,0.21c0.07,0.07,0.13,0.1,0.21,0.1c0.07,0,0.14-0.03,0.19-0.08c0.06-0.05,0.09-0.12,0.09-0.19
	c0-0.07-0.03-0.13-0.09-0.19l-0.29-0.3l-0.69,0.63L6.11,38.1 M6.94,38.83l0.5-0.78l0.59,0.36L7.96,38.5l-0.48-0.29l-0.15,0.24
	l0.44,0.27l-0.06,0.09l-0.45-0.27L7.1,38.8l0.49,0.29l-0.06,0.09L6.94,38.83 M8.41,38.68l0.3,0.1c0.04,0.01,0.07,0.03,0.09,0.05
	c0.04,0.04,0.05,0.09,0.03,0.15c-0.02,0.05-0.05,0.09-0.09,0.11c-0.04,0.01-0.09,0.01-0.15-0.01l-0.28-0.09L8.41,38.68 M8.15,39.45
	l0.12-0.37l0.28,0.09c0.05,0.01,0.09,0.03,0.1,0.05c0.03,0.03,0.04,0.08,0.03,0.13L8.64,39.5c-0.01,0.04-0.01,0.06-0.02,0.07
	c0,0.01,0,0.02,0,0.03l0.15,0.05l0.01-0.02c-0.02-0.01-0.02-0.04-0.02-0.06c0-0.02,0.01-0.04,0.02-0.08l0.04-0.12
	c0.01-0.05,0.02-0.09,0.01-0.12c-0.01-0.03-0.03-0.06-0.06-0.08c0.05-0.01,0.09-0.02,0.12-0.05c0.03-0.03,0.06-0.07,0.08-0.12
	c0.03-0.1,0.01-0.18-0.06-0.24c-0.04-0.03-0.09-0.06-0.16-0.09l-0.42-0.13l-0.29,0.87L8.15,39.45"/>
<path class="st7" d="M9.42,23.62c0.11-0.26,1.11-0.97,4.39-0.66c0,0,0.55,0.34,0.88,0.3c0.19-0.03-0.11,0.01-0.35-0.19
	c-0.25-0.2-0.3-0.61,0.26-0.6c0.56,0.01,2.66,0.13,2.7,0.32c0.04,0.19-1.11,0.27-1.54,0.26c-0.43-0.01-0.38,0.21,0.05,0.19
	c1.33-0.05,2.79-0.52,4.33,0.57c0.18,0.13-0.46,0.15-0.96-0.06c0,0-1.36,0.07-1.94-0.03c0,0-0.45,0.37-1.04,0.33
	c0.08,0.19-0.22,0.9-2.06,0.37c-0.3,0.09-1.42,0.28-1.3-0.05c-0.29,0-0.81,0.09-0.88-0.07c-0.07-0.16,0.9-0.41,1.08-0.59
	c0,0-2.07,0.02-2.46-0.12C10.56,23.58,9.34,23.85,9.42,23.62"/>
<path class="st8" d="M10.08,26.51c0.04-0.06,0.06-0.17,0.16-0.17c0.2,0.05,0.34,0.43,0.6,0.19c0.09-0.02,0.12,0.1,0.2,0.12
	c0.05,0.21,0.21-0.04,0.34-0.03c0.27-0.12,0.6-0.15,0.91-0.09c0.01,0.2-0.15,0.43-0.35,0.54c0,0.21,0.19,0.34,0.19,0.54
	c-0.03,0.08,0,0.2-0.12,0.22c-0.15-0.03-0.29-0.04-0.42-0.13c-0.01-0.02-0.03-0.05-0.06-0.04c-0.01,0.07,0.09,0.14,0.14,0.21
	c-0.08,0.13-0.2,0.01-0.3,0.01c-0.03,0.07,0,0.16-0.08,0.21c-0.13,0-0.16-0.15-0.24-0.22c-0.08,0.09,0.06,0.14,0.08,0.21
	c-0.05,0.27-0.04,0.53-0.31,0.71l-0.18,0.09c-0.05-0.13-0.02-0.34-0.05-0.48c-0.11,0.17-0.19,0.32-0.35,0.47
	c-0.18-0.06-0.29-0.28-0.33-0.45c-0.08-0.21-0.03-0.46,0.13-0.61c-0.06-0.11-0.25-0.08-0.28-0.24c-0.29-0.19-0.45,0.33-0.63,0.06
	c-0.06-0.25,0.01-0.56,0.19-0.75c-0.04-0.1-0.17-0.08-0.25-0.13c-0.18-0.15-0.44-0.31-0.43-0.59C9.13,26,9.72,26.13,10.08,26.51"/>
<path class="st3" d="M10.34,26.48c-0.01,0.23,0.15,0.06,0.27,0.2c-0.1-0.04-0.17,0.17-0.26,0.05l-0.06,0.06
	c0.03,0.08,0.1,0.09,0.03,0.17c-0.1,0.04-0.12-0.09-0.17-0.14c-0.01-0.02,0.02-0.06-0.02-0.08c-0.06,0.05-0.12,0.07-0.2,0.06
	c-0.02-0.04-0.06-0.1-0.02-0.13c0.08-0.11,0.2,0.04,0.26-0.04c0.01-0.07-0.05-0.15,0.03-0.19C10.25,26.45,10.32,26.42,10.34,26.48
	 M10.95,26.67c0.01,0.04-0.02,0.1,0.04,0.13c0.07-0.04,0.15-0.01,0.2,0.06c0,0.04,0.01,0.09-0.04,0.11l-0.12-0.02
	c0.01-0.02-0.03-0.04-0.04-0.06c-0.05-0.02-0.08,0.03-0.12,0.05c0.03,0.04,0.09,0.07,0.08,0.13c-0.07,0.07-0.1-0.06-0.18-0.03
	c-0.05-0.02,0.02-0.13-0.06-0.16c-0.1,0-0.03,0.16-0.15,0.1c-0.04-0.05-0.09-0.12-0.04-0.17c0.05-0.04,0.14-0.03,0.18,0.02
	C10.76,26.75,10.77,26.43,10.95,26.67 M10.19,27c0.05,0.07-0.01,0.17,0.05,0.25c0.1-0.19,0.2,0.04,0.31,0.02
	c0.04,0.04,0.01,0.11,0.02,0.16c-0.15,0.04-0.32,0.09-0.45-0.03l-0.04,0.04c0.08,0.07,0.15,0.15,0.09,0.27
	c-0.11,0.02-0.28,0.03-0.33-0.09c-0.03-0.09,0.07-0.16-0.03-0.24c-0.07,0.09-0.07,0.21-0.22,0.13c-0.09-0.05-0.12-0.16-0.08-0.25
	c0.1-0.15,0.27,0.01,0.38-0.07c0.01-0.13-0.03-0.25,0.09-0.32C10.08,26.85,10.12,26.93,10.19,27"/>
<path class="st3" d="M10.97,27.28c0.03,0.08-0.08,0.14,0.02,0.2c0.03-0.03,0.07-0.06,0.08-0.07c0.08,0.02,0.18,0.04,0.23,0.12
	c0.06,0.17-0.11,0.16-0.2,0.21l-0.09,0c0.02-0.05-0.04-0.07-0.06-0.1c-0.04-0.01-0.08,0-0.1,0.04c0.02,0.11,0.15,0.19,0.02,0.28
	c-0.11-0.01-0.29,0.04-0.28-0.12c-0.04-0.09,0.12-0.22-0.05-0.23c-0.06,0.12-0.12,0.23-0.26,0.12l0.02-0.17
	c0.14,0,0.3,0.03,0.36-0.13c0.04-0.11-0.07-0.21,0.03-0.3C10.82,27.09,10.9,27.19,10.97,27.28"/>
<linearGradient id="SVGID_1_" gradientUnits="userSpaceOnUse" x1="32" y1="62" x2="32" y2="2">
	<stop  offset="0" style="stop-color:#1A1A1A"/>
	<stop  offset="0.102" style="stop-color:#393939;stop-opacity:0.949"/>
	<stop  offset="0.3475" style="stop-color:#7F7F7F;stop-opacity:0.8262"/>
	<stop  offset="0.5688" style="stop-color:#B6B6B6;stop-opacity:0.7156"/>
	<stop  offset="0.7582" style="stop-color:#DEDEDE;stop-opacity:0.6209"/>
	<stop  offset="0.9081" style="stop-color:#F6F6F6;stop-opacity:0.5459"/>
	<stop  offset="1" style="stop-color:#FFFFFF;stop-opacity:0.5"/>
</linearGradient>
<circle class="st9" cx="32" cy="32" r="30"/>
</svg>
