<?xml version="1.0" encoding="utf-8"?>
<!-- Generator: Adobe Illustrator 24.1.2, SVG Export Plug-In . SVG Version: 6.00 Build 0)  -->
<svg version="1.1" id="Layer_1" xmlns="http://www.w3.org/2000/svg" xmlns:xlink="http://www.w3.org/1999/xlink" x="0px" y="0px"
	 width="64px" height="64px" viewBox="0 0 64 64" style="enable-background:new 0 0 64 64;" xml:space="preserve">
<style type="text/css">
	.st0{fill:#000080;}
	.st1{fill:#FFD000;}
	.st2{fill:#FCFCFC;}
	.st3{opacity:0.1;fill:url(#SVGID_1_);}
</style>
<path class="st0" d="M32,2C16.44,2,3.66,13.84,2.15,29h59.7C60.34,13.84,47.56,2,32,2z"/>
<path class="st0" d="M32,62c15.56,0,28.34-11.84,29.85-27H2.15C3.66,50.16,16.44,62,32,62z"/>
<path class="st1" d="M61.85,29H2.15C2.05,29.99,2,30.99,2,32s0.05,2.01,0.15,3h59.7c0.1-0.99,0.15-1.99,0.15-3S61.95,29.99,61.85,29
	z"/>
<polygon class="st2" points="16,41.18 17.19,39 17.46,41.47 19.4,39.91 18.7,42.3 21.09,41.6 19.53,43.54 22,43.81 19.82,45 
	22,46.19 19.53,46.46 21.09,48.4 18.7,47.7 19.4,50.09 17.46,48.53 17.19,51 16,48.82 14.81,51 14.54,48.53 12.6,50.09 13.3,47.7 
	10.92,48.4 12.47,46.46 10,46.19 12.18,45 10,43.81 12.47,43.54 10.92,41.6 13.3,42.3 12.6,39.91 14.54,41.47 14.81,39 "/>
<linearGradient id="SVGID_1_" gradientUnits="userSpaceOnUse" x1="32" y1="62" x2="32" y2="2">
	<stop  offset="0" style="stop-color:#1A1A1A"/>
	<stop  offset="0.102" style="stop-color:#393939;stop-opacity:0.949"/>
	<stop  offset="0.3475" style="stop-color:#7F7F7F;stop-opacity:0.8262"/>
	<stop  offset="0.5688" style="stop-color:#B6B6B6;stop-opacity:0.7156"/>
	<stop  offset="0.7582" style="stop-color:#DEDEDE;stop-opacity:0.6209"/>
	<stop  offset="0.9081" style="stop-color:#F6F6F6;stop-opacity:0.5459"/>
	<stop  offset="1" style="stop-color:#FFFFFF;stop-opacity:0.5"/>
</linearGradient>
<circle class="st3" cx="32" cy="32" r="30"/>
</svg>
