<?xml version="1.0" encoding="utf-8"?>
<!-- Generator: Adobe Illustrator 24.1.2, SVG Export Plug-In . SVG Version: 6.00 Build 0)  -->
<svg version="1.1" id="Layer_1" xmlns="http://www.w3.org/2000/svg" xmlns:xlink="http://www.w3.org/1999/xlink" x="0px" y="0px"
	 width="64px" height="64px" viewBox="0 0 64 64" style="enable-background:new 0 0 64 64;" xml:space="preserve">
<style type="text/css">
	.st0{fill:#E81C27;}
	.st1{fill:#000080;}
	.st2{fill:#FFE000;}
	.st3{opacity:0.1;fill:url(#SVGID_1_);}
</style>
<path class="st0" d="M32,62c16.57,0,30-13.43,30-30H2C2,48.57,15.43,62,32,62z"/>
<path class="st1" d="M32,2C15.43,2,2,15.43,2,32h60C62,15.43,48.57,2,32,2z"/>
<path class="st2" d="M18.09,16.99l-0.21,7.32H10.7c-0.88-1.78-1.61-3.29-1.61-5.33c0-1.71,1.3-3.07,3.17-3.07
	C14.25,15.91,16.43,16.6,18.09,16.99z"/>
<path class="st2" d="M19.36,16.99l0.21,7.32h7.18c0.88-1.78,1.61-3.29,1.61-5.33c0-1.71-1.3-3.07-3.17-3.07
	C23.21,15.91,21.03,16.6,19.36,16.99z"/>
<path class="st2" d="M18.73,8.89l-0.58,1.13l0.58,1.13l0.58-1.13L18.73,8.89z M18.73,11.74l-0.58,1.13L18.73,14l0.58-1.13
	L18.73,11.74z"/>
<path d="M18.73,14.12c-0.04,0-0.08-0.02-0.1-0.06l-0.58-1.13c-0.02-0.03-0.02-0.07,0-0.11l0.58-1.13c0.04-0.08,0.16-0.08,0.2,0
	l0.58,1.13c0.02,0.04,0.02,0.08,0,0.11l-0.58,1.13C18.81,14.1,18.77,14.12,18.73,14.12z M18.27,12.87l0.46,0.88l0.46-0.88
	l-0.46-0.88L18.27,12.87z M18.73,11.26c-0.04,0-0.08-0.02-0.1-0.06l-0.58-1.13c-0.02-0.03-0.02-0.08,0-0.11l0.58-1.13
	c0.04-0.08,0.16-0.08,0.2,0l0.58,1.13c0.02,0.03,0.02,0.08,0,0.11l-0.58,1.13C18.81,11.24,18.77,11.26,18.73,11.26z M18.27,10.02
	l0.46,0.88l0.46-0.88l-0.46-0.88L18.27,10.02z"/>
<path class="st2" d="M16.65,11.45l0.92,0.6l0.92-0.6l-0.92-0.6L16.65,11.45z M18.97,11.45l0.92,0.6l0.92-0.6l-0.92-0.6L18.97,11.45z
	"/>
<path d="M19.89,12.17c-0.02,0-0.04-0.01-0.06-0.02l-0.92-0.6c-0.03-0.02-0.05-0.06-0.05-0.1c0-0.04,0.02-0.08,0.05-0.1l0.92-0.6
	c0.04-0.02,0.08-0.02,0.12,0l0.92,0.6c0.03,0.02,0.05,0.06,0.05,0.1c0,0.04-0.02,0.08-0.05,0.1l-0.92,0.6
	C19.93,12.16,19.91,12.17,19.89,12.17z M19.18,11.45l0.71,0.46l0.71-0.46l-0.71-0.46L19.18,11.45z M17.57,12.17
	c-0.02,0-0.04-0.01-0.06-0.02l-0.92-0.6c-0.03-0.02-0.05-0.06-0.05-0.1c0-0.04,0.02-0.08,0.05-0.1l0.92-0.6
	c0.04-0.02,0.08-0.02,0.12,0l0.92,0.6c0.03,0.02,0.05,0.06,0.05,0.1c0,0.04-0.02,0.08-0.05,0.1l-0.92,0.6
	C17.61,12.16,17.59,12.17,17.57,12.17z M16.86,11.45l0.71,0.46l0.71-0.46l-0.71-0.46L16.86,11.45z"/>
<path class="st2" d="M18.73,11c0.24,0,0.44,0.2,0.44,0.46c0,0.25-0.2,0.46-0.44,0.46c-0.24,0-0.44-0.2-0.44-0.46
	C18.29,11.21,18.48,11,18.73,11z"/>
<path d="M18.73,12.03c-0.31,0-0.56-0.26-0.56-0.58c0-0.32,0.25-0.57,0.56-0.57c0.31,0,0.56,0.26,0.56,0.57
	C19.28,11.78,19.04,12.03,18.73,12.03z M18.73,11.12c-0.18,0-0.33,0.15-0.33,0.34s0.15,0.34,0.33,0.34c0.18,0,0.33-0.15,0.33-0.34
	S18.91,11.12,18.73,11.12z"/>
<path class="st2" d="M18.73,13.15c0.65,0,1.18,0.55,1.18,1.22c0,0.68-0.53,1.22-1.18,1.22c-0.65,0-1.19-0.55-1.19-1.22
	C17.54,13.7,18.07,13.15,18.73,13.15z"/>
<path d="M18.73,15.72c-0.72,0-1.3-0.6-1.3-1.34c0-0.74,0.58-1.34,1.3-1.34c0.71,0,1.3,0.6,1.3,1.34
	C20.02,15.12,19.44,15.72,18.73,15.72z M18.73,13.27c-0.59,0-1.07,0.5-1.07,1.11c0,0.61,0.48,1.11,1.07,1.11
	c0.59,0,1.07-0.5,1.07-1.11C19.8,13.77,19.32,13.27,18.73,13.27z"/>
<path d="M19.88,14.77c0,0-0.01,0-0.02,0c-0.75-0.13-1.52-0.13-2.26,0c-0.06,0.01-0.09-0.02-0.1-0.07c-0.01-0.05,0.02-0.09,0.07-0.1
	c0.77-0.13,1.55-0.13,2.32,0c0.05,0.01,0.08,0.05,0.07,0.1C19.95,14.74,19.92,14.77,19.88,14.77z M19.87,14.15c0,0-0.01,0-0.01,0
	c-0.27-0.05-0.55-0.08-0.83-0.09c-0.04,0-0.08-0.04-0.08-0.09v-0.78c0-0.05,0.04-0.09,0.08-0.09s0.08,0.04,0.08,0.09v0.69
	c0.26,0.01,0.52,0.04,0.77,0.09c0.04,0.01,0.08,0.05,0.07,0.1C19.95,14.12,19.91,14.15,19.87,14.15z M17.58,14.15
	c-0.04,0-0.08-0.03-0.08-0.07c-0.01-0.05,0.02-0.09,0.07-0.1c0.25-0.04,0.51-0.07,0.77-0.09v-0.06c0-0.16,0-0.35,0-0.63
	c0-0.05,0.04-0.09,0.09-0.09c0.05,0,0.08,0.04,0.08,0.09c0,0.28,0,0.47,0,0.63l0,0.15c0,0.05-0.04,0.09-0.08,0.09
	c-0.28,0.01-0.56,0.04-0.83,0.09C17.59,14.15,17.59,14.15,17.58,14.15z"/>
<path d="M23.96,20.78c-0.14,0.03-0.27,0.06-0.41,0.09l-0.17,0.04c-0.14,0.04-0.27,0.07-0.41,0.11l-0.17,0.05
	c-0.14,0.04-0.28,0.07-0.41,0.1l-0.17,0.04c-0.14,0.03-0.28,0.05-0.41,0.06l-0.17,0.01c-0.13,0-0.27-0.01-0.41-0.06l-0.17-0.08
	c-0.15-0.09-0.29-0.24-0.41-0.47l-0.17-0.44c-0.04-0.15-0.08-0.32-0.12-0.51c-0.05-0.3-0.01-0.6,0.12-0.9l0.17-0.32
	c0.01-0.01,0.02-0.03,0.03-0.04c0.11-0.16,0.24-0.31,0.38-0.45l0.17-0.16c0.13-0.11,0.26-0.22,0.41-0.32l0.17-0.11
	c0.13-0.09,0.27-0.17,0.41-0.24l0.17-0.09c0.14-0.07,0.27-0.13,0.41-0.19l0.17-0.07c0.14-0.06,0.28-0.1,0.41-0.14l0.17-0.05
	c0.13-0.03,0.24-0.06,0.35-0.08c0.03,0,0.05-0.02,0.06-0.04l0.17-0.11c-0.78,0.08-1.7,0.31-2.44,0.54c-0.77,0.24-3.09,0.9-7.21-0.33
	c-0.36-0.11-0.77-0.12-1.14-0.18c-0.01,0-0.01,0-0.02,0l0.17,0.08c0.01,0.02,0.03,0.04,0.06,0.04c0.11,0.02,0.22,0.05,0.35,0.08
	l0.17,0.05c0.13,0.04,0.27,0.09,0.41,0.14l0.17,0.07c0.13,0.06,0.27,0.12,0.41,0.19l0.17,0.09c0.14,0.07,0.27,0.15,0.41,0.24
	l0.17,0.11c0.14,0.1,0.28,0.21,0.41,0.32l0.17,0.16c0.14,0.14,0.27,0.29,0.38,0.45c0.01,0.01,0.02,0.03,0.02,0.04l0.17,0.32
	c0.13,0.3,0.17,0.6,0.12,0.9c-0.03,0.19-0.07,0.36-0.12,0.51l-0.17,0.44c-0.12,0.23-0.26,0.38-0.41,0.47l-0.17,0.08
	c-0.13,0.05-0.27,0.06-0.41,0.06l-0.17-0.01c-0.13-0.01-0.26-0.03-0.41-0.06l-0.17-0.04c-0.13-0.03-0.26-0.07-0.41-0.1l-0.17-0.05
	c-0.13-0.04-0.27-0.07-0.41-0.11l-0.17-0.04c-0.13-0.03-0.27-0.06-0.41-0.09l-0.17,0.04l-0.14,0.05c1.31,0.07,2.61,1.85,2.94,2.44
	c0.06-1.82,1.14-2.53,2.6-2.53c1.46,0,2.54,0.71,2.61,2.53c0.33-0.6,1.64-2.38,2.94-2.44l-0.14-0.05L23.96,20.78z"/>
<path class="st2" d="M17.69,15.32c0.31,0,0.56,0.26,0.56,0.58c0,0.32-0.25,0.58-0.56,0.58c-0.31,0-0.56-0.26-0.56-0.58
	C17.13,15.58,17.38,15.32,17.69,15.32z"/>
<path d="M17.69,16.6c-0.37,0-0.67-0.31-0.67-0.7c0-0.38,0.3-0.7,0.67-0.7c0.37,0,0.67,0.31,0.67,0.7
	C18.36,16.28,18.06,16.6,17.69,16.6z M17.69,15.44c-0.25,0-0.45,0.21-0.45,0.46c0,0.25,0.2,0.46,0.45,0.46
	c0.25,0,0.45-0.21,0.45-0.46C18.14,15.64,17.94,15.44,17.69,15.44z"/>
<path class="st2" d="M16.43,15.01c0.31,0,0.56,0.26,0.56,0.58c0,0.32-0.25,0.58-0.56,0.58c-0.31,0-0.56-0.26-0.56-0.58
	C15.87,15.27,16.13,15.01,16.43,15.01z"/>
<path d="M16.43,16.28c-0.37,0-0.67-0.31-0.67-0.7c0-0.38,0.3-0.7,0.67-0.7c0.37,0,0.67,0.31,0.67,0.7
	C17.11,15.97,16.8,16.28,16.43,16.28z M16.43,15.13c-0.25,0-0.44,0.21-0.44,0.46s0.2,0.46,0.44,0.46c0.25,0,0.45-0.21,0.45-0.46
	S16.68,15.13,16.43,15.13z"/>
<path class="st2" d="M15.16,14.68c0.31,0,0.56,0.26,0.56,0.58c0,0.32-0.25,0.58-0.56,0.58c-0.31,0-0.56-0.26-0.56-0.58
	C14.6,14.94,14.85,14.68,15.16,14.68z"/>
<path d="M15.16,15.95c-0.37,0-0.67-0.31-0.67-0.7c0-0.38,0.3-0.7,0.67-0.7c0.37,0,0.67,0.31,0.67,0.7
	C15.83,15.64,15.53,15.95,15.16,15.95z M15.16,14.79c-0.25,0-0.45,0.21-0.45,0.46c0,0.25,0.2,0.46,0.45,0.46
	c0.25,0,0.45-0.21,0.45-0.46C15.6,15,15.4,14.79,15.16,14.79z"/>
<path class="st2" d="M13.88,14.46c0.31,0,0.56,0.26,0.56,0.58c0,0.32-0.25,0.58-0.56,0.58c-0.31,0-0.56-0.26-0.56-0.58
	C13.32,14.71,13.57,14.46,13.88,14.46z"/>
<path d="M13.88,15.73c-0.37,0-0.67-0.31-0.67-0.7c0-0.38,0.3-0.7,0.67-0.7c0.37,0,0.67,0.31,0.67,0.7
	C14.55,15.42,14.25,15.73,13.88,15.73z M13.88,14.57c-0.25,0-0.45,0.21-0.45,0.46c0,0.25,0.2,0.46,0.45,0.46
	c0.25,0,0.45-0.21,0.45-0.46C14.32,14.78,14.12,14.57,13.88,14.57z"/>
<path class="st2" d="M12.6,14.33c0.31,0,0.56,0.26,0.56,0.58c0,0.32-0.25,0.58-0.56,0.58c-0.31,0-0.56-0.26-0.56-0.58
	C12.04,14.58,12.29,14.33,12.6,14.33z"/>
<path d="M12.6,15.6c-0.37,0-0.67-0.31-0.67-0.7c0-0.38,0.3-0.7,0.67-0.7c0.37,0,0.67,0.31,0.67,0.7
	C13.27,15.29,12.97,15.6,12.6,15.6z M12.6,14.44c-0.25,0-0.45,0.21-0.45,0.46c0,0.25,0.2,0.46,0.45,0.46c0.25,0,0.45-0.21,0.45-0.46
	C13.04,14.65,12.84,14.44,12.6,14.44z"/>
<path class="st2" d="M11.34,14.4c0.31,0,0.56,0.26,0.56,0.58c0,0.32-0.25,0.58-0.56,0.58c-0.31,0-0.56-0.26-0.56-0.58
	C10.78,14.66,11.03,14.4,11.34,14.4z"/>
<path d="M11.34,15.67c-0.37,0-0.67-0.31-0.67-0.7c0-0.38,0.3-0.7,0.67-0.7c0.37,0,0.67,0.31,0.67,0.7
	C12.01,15.36,11.71,15.67,11.34,15.67z M11.34,14.52c-0.25,0-0.45,0.21-0.45,0.46s0.2,0.46,0.45,0.46c0.25,0,0.45-0.21,0.45-0.46
	S11.59,14.52,11.34,14.52z"/>
<path class="st2" d="M10.14,14.82c0.31,0,0.56,0.26,0.56,0.58c0,0.32-0.25,0.58-0.56,0.58c-0.31,0-0.56-0.26-0.56-0.58
	C9.58,15.08,9.83,14.82,10.14,14.82z"/>
<path d="M10.14,16.1c-0.37,0-0.67-0.31-0.67-0.7c0-0.38,0.3-0.7,0.67-0.7c0.37,0,0.67,0.31,0.67,0.7
	C10.82,15.79,10.51,16.1,10.14,16.1z M10.14,14.94c-0.25,0-0.45,0.21-0.45,0.46c0,0.25,0.2,0.46,0.45,0.46
	c0.25,0,0.45-0.21,0.45-0.46C10.59,15.15,10.39,14.94,10.14,14.94z"/>
<path class="st2" d="M9.14,15.59c0.31,0,0.56,0.26,0.56,0.58c0,0.32-0.25,0.58-0.56,0.58c-0.31,0-0.56-0.26-0.56-0.58
	C8.58,15.85,8.83,15.59,9.14,15.59z"/>
<path d="M9.14,16.86c-0.37,0-0.67-0.31-0.67-0.7c0-0.38,0.3-0.7,0.67-0.7c0.37,0,0.67,0.31,0.67,0.7
	C9.81,16.55,9.5,16.86,9.14,16.86z M9.14,15.71c-0.25,0-0.45,0.21-0.45,0.46c0,0.25,0.2,0.46,0.45,0.46c0.25,0,0.45-0.21,0.45-0.46
	C9.58,15.91,9.38,15.71,9.14,15.71z"/>
<path class="st2" d="M8.42,16.66c0.31,0,0.56,0.26,0.56,0.58c0,0.32-0.25,0.58-0.56,0.58c-0.31,0-0.56-0.26-0.56-0.58
	C7.86,16.92,8.11,16.66,8.42,16.66z"/>
<path d="M8.42,17.93c-0.37,0-0.67-0.31-0.67-0.7s0.3-0.7,0.67-0.7s0.67,0.31,0.67,0.7S8.79,17.93,8.42,17.93z M8.42,16.78
	c-0.25,0-0.45,0.21-0.45,0.46c0,0.25,0.2,0.46,0.45,0.46c0.25,0,0.45-0.21,0.45-0.46C8.87,16.98,8.67,16.78,8.42,16.78z"/>
<path class="st2" d="M8.07,17.92c0.31,0,0.56,0.26,0.56,0.58c0,0.32-0.25,0.58-0.56,0.58c-0.31,0-0.56-0.26-0.56-0.58
	C7.52,18.18,7.77,17.92,8.07,17.92z"/>
<path d="M8.07,19.19c-0.37,0-0.67-0.31-0.67-0.7c0-0.38,0.3-0.7,0.67-0.7c0.37,0,0.67,0.31,0.67,0.7
	C8.75,18.88,8.45,19.19,8.07,19.19z M8.07,18.03c-0.25,0-0.45,0.21-0.45,0.46s0.2,0.46,0.45,0.46s0.45-0.21,0.45-0.46
	S8.32,18.03,8.07,18.03z"/>
<path class="st2" d="M8.09,19.22c0.31,0,0.56,0.26,0.56,0.58c0,0.32-0.25,0.58-0.56,0.58c-0.31,0-0.56-0.26-0.56-0.58
	C7.53,19.48,7.78,19.22,8.09,19.22z"/>
<path d="M8.09,20.5c-0.37,0-0.67-0.31-0.67-0.7c0-0.38,0.3-0.69,0.67-0.69c0.37,0,0.67,0.31,0.67,0.69
	C8.76,20.19,8.46,20.5,8.09,20.5z M8.09,19.34c-0.25,0-0.45,0.21-0.45,0.46c0,0.25,0.2,0.46,0.45,0.46c0.25,0,0.45-0.21,0.45-0.46
	C8.54,19.55,8.34,19.34,8.09,19.34z"/>
<ellipse class="st2" cx="8.33" cy="21.08" rx="0.56" ry="0.58"/>
<path d="M8.33,21.77c-0.37,0-0.67-0.31-0.67-0.7c0-0.38,0.3-0.7,0.67-0.7C8.7,20.38,9,20.7,9,21.08C9,21.46,8.7,21.77,8.33,21.77z
	 M8.33,20.62c-0.25,0-0.45,0.21-0.45,0.46c0,0.25,0.2,0.46,0.45,0.46s0.45-0.21,0.45-0.46C8.78,20.83,8.58,20.62,8.33,20.62z"/>
<path class="st2" d="M17.94,16.67l-0.05,0.75c-1.39-0.22-3.37-1.02-5.21-1.02c-1.7,0-3.02,0.7-3.02,2.48c0,1.75,0.71,3.34,1.67,4.95
	l-0.99,0.48c-0.88-1.78-1.61-3.29-1.61-5.33c0-1.71,1.3-3.39,3.54-3.39C14.25,15.59,16.27,16.28,17.94,16.67z"/>
<path class="st2" d="M19.76,15.32c-0.31,0-0.56,0.26-0.56,0.58c0,0.32,0.25,0.58,0.56,0.58c0.31,0,0.56-0.26,0.56-0.58
	C20.32,15.58,20.07,15.32,19.76,15.32z"/>
<path d="M19.76,16.6c-0.37,0-0.67-0.31-0.67-0.7c0-0.38,0.3-0.7,0.67-0.7c0.37,0,0.67,0.31,0.67,0.7
	C20.44,16.28,20.14,16.6,19.76,16.6z M19.76,15.44c-0.25,0-0.45,0.21-0.45,0.46c0,0.25,0.2,0.46,0.45,0.46
	c0.25,0,0.45-0.21,0.45-0.46C20.21,15.64,20.01,15.44,19.76,15.44z"/>
<path class="st2" d="M21.02,15.01c-0.31,0-0.56,0.26-0.56,0.58c0,0.32,0.25,0.58,0.56,0.58c0.31,0,0.56-0.26,0.56-0.58
	C21.58,15.27,21.33,15.01,21.02,15.01z"/>
<path d="M21.02,16.28c-0.37,0-0.67-0.31-0.67-0.7c0-0.38,0.3-0.7,0.67-0.7c0.37,0,0.67,0.31,0.67,0.7
	C21.7,15.97,21.39,16.28,21.02,16.28z M21.02,15.13c-0.25,0-0.45,0.21-0.45,0.46s0.2,0.46,0.45,0.46c0.25,0,0.45-0.21,0.45-0.46
	S21.27,15.13,21.02,15.13z"/>
<path class="st2" d="M22.3,14.68c-0.31,0-0.56,0.26-0.56,0.58c0,0.32,0.25,0.58,0.56,0.58c0.31,0,0.56-0.26,0.56-0.58
	C22.86,14.94,22.61,14.68,22.3,14.68z"/>
<path d="M22.3,15.95c-0.37,0-0.67-0.31-0.67-0.7c0-0.38,0.3-0.7,0.67-0.7c0.37,0,0.67,0.31,0.67,0.7
	C22.97,15.64,22.67,15.95,22.3,15.95z M22.3,14.79c-0.25,0-0.45,0.21-0.45,0.46c0,0.25,0.2,0.46,0.45,0.46
	c0.25,0,0.45-0.21,0.45-0.46C22.75,15,22.54,14.79,22.3,14.79z"/>
<path class="st2" d="M23.58,14.46c-0.31,0-0.56,0.26-0.56,0.58c0,0.32,0.25,0.58,0.56,0.58s0.56-0.26,0.56-0.58
	C24.14,14.71,23.89,14.46,23.58,14.46z"/>
<path d="M23.58,15.73c-0.37,0-0.67-0.31-0.67-0.7c0-0.38,0.3-0.7,0.67-0.7s0.67,0.31,0.67,0.7C24.25,15.42,23.95,15.73,23.58,15.73z
	 M23.58,14.57c-0.25,0-0.45,0.21-0.45,0.46c0,0.25,0.2,0.46,0.45,0.46c0.25,0,0.45-0.21,0.45-0.46
	C24.03,14.78,23.83,14.57,23.58,14.57z"/>
<path class="st2" d="M24.86,14.33c-0.31,0-0.56,0.26-0.56,0.58c0,0.32,0.25,0.58,0.56,0.58c0.31,0,0.56-0.26,0.56-0.58
	C25.42,14.58,25.17,14.33,24.86,14.33z"/>
<path d="M24.86,15.6c-0.37,0-0.67-0.31-0.67-0.7c0-0.38,0.3-0.7,0.67-0.7c0.37,0,0.67,0.31,0.67,0.7
	C25.53,15.29,25.23,15.6,24.86,15.6z M24.86,14.44c-0.25,0-0.45,0.21-0.45,0.46c0,0.25,0.2,0.46,0.45,0.46
	c0.25,0,0.45-0.21,0.45-0.46C25.31,14.65,25.11,14.44,24.86,14.44z"/>
<path class="st2" d="M26.12,14.4c-0.31,0-0.56,0.26-0.56,0.58c0,0.32,0.25,0.58,0.56,0.58s0.56-0.26,0.56-0.58
	C26.67,14.66,26.42,14.4,26.12,14.4z"/>
<path d="M26.12,15.67c-0.37,0-0.67-0.31-0.67-0.7c0-0.38,0.3-0.7,0.67-0.7c0.37,0,0.67,0.31,0.67,0.7
	C26.79,15.36,26.49,15.67,26.12,15.67z M26.12,14.52c-0.25,0-0.45,0.21-0.45,0.46s0.2,0.46,0.45,0.46c0.25,0,0.45-0.21,0.45-0.46
	S26.36,14.52,26.12,14.52z"/>
<path class="st2" d="M27.31,14.82c-0.31,0-0.56,0.26-0.56,0.58c0,0.32,0.25,0.58,0.56,0.58s0.56-0.26,0.56-0.58
	C27.87,15.08,27.62,14.82,27.31,14.82z"/>
<path d="M27.31,16.1c-0.37,0-0.67-0.31-0.67-0.7c0-0.38,0.3-0.7,0.67-0.7c0.37,0,0.67,0.31,0.67,0.7
	C27.98,15.79,27.68,16.1,27.31,16.1z M27.31,14.94c-0.25,0-0.45,0.21-0.45,0.46c0,0.25,0.2,0.46,0.45,0.46
	c0.25,0,0.45-0.21,0.45-0.46C27.76,15.15,27.56,14.94,27.31,14.94z"/>
<path class="st2" d="M28.32,15.59c-0.31,0-0.56,0.26-0.56,0.58c0,0.32,0.25,0.58,0.56,0.58c0.31,0,0.56-0.26,0.56-0.58
	C28.88,15.85,28.63,15.59,28.32,15.59z"/>
<path d="M28.32,16.86c-0.37,0-0.67-0.31-0.67-0.7c0-0.38,0.3-0.7,0.67-0.7c0.37,0,0.67,0.31,0.67,0.7
	C28.99,16.55,28.69,16.86,28.32,16.86z M28.32,15.71c-0.25,0-0.45,0.21-0.45,0.46c0,0.25,0.2,0.46,0.45,0.46
	c0.25,0,0.45-0.21,0.45-0.46C28.77,15.91,28.57,15.71,28.32,15.71z"/>
<path class="st2" d="M29.04,16.66c-0.31,0-0.56,0.26-0.56,0.58c0,0.32,0.25,0.58,0.56,0.58c0.31,0,0.56-0.26,0.56-0.58
	C29.6,16.92,29.35,16.66,29.04,16.66z"/>
<path d="M29.04,17.93c-0.37,0-0.67-0.31-0.67-0.7s0.3-0.7,0.67-0.7c0.37,0,0.67,0.31,0.67,0.7S29.41,17.93,29.04,17.93z
	 M29.04,16.78c-0.25,0-0.45,0.21-0.45,0.46c0,0.25,0.2,0.46,0.45,0.46c0.25,0,0.45-0.21,0.45-0.46
	C29.48,16.98,29.28,16.78,29.04,16.78z"/>
<path class="st2" d="M29.38,17.92c-0.31,0-0.56,0.26-0.56,0.58c0,0.32,0.25,0.58,0.56,0.58c0.31,0,0.56-0.26,0.56-0.58
	C29.94,18.18,29.69,17.92,29.38,17.92z"/>
<path d="M29.38,19.19c-0.37,0-0.67-0.31-0.67-0.7c0-0.38,0.3-0.7,0.67-0.7c0.37,0,0.67,0.31,0.67,0.7
	C30.05,18.88,29.75,19.19,29.38,19.19z M29.38,18.03c-0.25,0-0.45,0.21-0.45,0.46s0.2,0.46,0.45,0.46c0.25,0,0.45-0.21,0.45-0.46
	S29.63,18.03,29.38,18.03z"/>
<path class="st2" d="M29.37,19.22c-0.31,0-0.56,0.26-0.56,0.58c0,0.32,0.25,0.58,0.56,0.58c0.31,0,0.56-0.26,0.56-0.58
	C29.93,19.48,29.68,19.22,29.37,19.22z"/>
<path d="M29.37,20.5c-0.37,0-0.67-0.31-0.67-0.7c0-0.38,0.3-0.69,0.67-0.69c0.37,0,0.67,0.31,0.67,0.69
	C30.04,20.19,29.74,20.5,29.37,20.5z M29.37,19.34c-0.25,0-0.45,0.21-0.45,0.46c0,0.25,0.2,0.46,0.45,0.46
	c0.25,0,0.45-0.21,0.45-0.46C29.82,19.55,29.62,19.34,29.37,19.34z"/>
<path class="st2" d="M29.13,20.5c-0.31,0-0.56,0.26-0.56,0.58c0,0.32,0.25,0.58,0.56,0.58c0.31,0,0.56-0.26,0.56-0.58
	C29.69,20.76,29.44,20.5,29.13,20.5z"/>
<path d="M29.13,21.77c-0.37,0-0.67-0.31-0.67-0.7c0-0.38,0.3-0.7,0.67-0.7c0.37,0,0.67,0.31,0.67,0.7
	C29.8,21.46,29.5,21.77,29.13,21.77z M29.13,20.62c-0.25,0-0.45,0.21-0.45,0.46c0,0.25,0.2,0.46,0.45,0.46
	c0.25,0,0.45-0.21,0.45-0.46C29.58,20.83,29.38,20.62,29.13,20.62z"/>
<path class="st2" d="M19.52,16.67l0.05,0.75c1.39-0.22,3.37-1.02,5.21-1.02c1.7,0,3.02,0.7,3.02,2.48c0,1.75-0.72,3.34-1.67,4.95
	l0.99,0.48c0.88-1.78,1.62-3.29,1.62-5.33c0-1.71-1.3-3.39-3.54-3.39C23.21,15.59,21.18,16.28,19.52,16.67z"/>
<path class="st2" d="M17.82,20.97c0.33-1.59,0.41-3.46,0.53-4.38l-0.78-0.14c-0.1,1.83-0.3,3.7-0.92,5.13
	C16.99,21.3,17.39,21.09,17.82,20.97z"/>
<path class="st2" d="M20.89,21.77c-0.68-1.46-0.89-3.41-1-5.32l-0.78,0.14c0.12,0.92,0.2,2.74,0.52,4.32
	C20.13,21.05,20.56,21.37,20.89,21.77z"/>
<path class="st2" d="M18.73,20.78c-1.46,0-2.54,0.71-2.6,2.53c-0.36-0.65-1.87-2.7-3.28-2.42c-0.84,0.16-1.58,1.37-1.46,2.75
	c-0.69-2.07-2.73-2.4-4.21-1.18c1.32,1.12,1.91,4.43,3.02,5.87h8.54h8.54c1.11-1.44,1.7-4.74,3.02-5.87
	c-1.49-1.22-3.52-0.88-4.22,1.18c0.13-1.38-0.62-2.58-1.46-2.75c-1.41-0.27-2.92,1.77-3.28,2.42C21.27,21.5,20.19,20.78,18.73,20.78
	z"/>
<path class="st2" d="M18.73,15.66c0.22,0,0.39,0.18,0.39,0.41c0,0.23-0.18,0.41-0.39,0.41c-0.22,0-0.4-0.18-0.4-0.41
	C18.33,15.84,18.51,15.66,18.73,15.66z"/>
<path d="M18.73,16.57c-0.27,0-0.48-0.22-0.48-0.5c0-0.27,0.22-0.5,0.48-0.5s0.48,0.22,0.48,0.5C19.21,16.35,18.99,16.57,18.73,16.57
	z M18.73,15.75c-0.17,0-0.31,0.14-0.31,0.32c0,0.18,0.14,0.32,0.31,0.32c0.17,0,0.31-0.14,0.31-0.32
	C19.04,15.89,18.9,15.75,18.73,15.75z"/>
<path class="st2" d="M18.73,17.44c0.25,0,0.46,0.21,0.46,0.48c0,0.26-0.21,0.48-0.46,0.48c-0.26,0-0.46-0.21-0.46-0.48
	C18.27,17.65,18.47,17.44,18.73,17.44z"/>
<path class="st2" d="M18.73,18.43c0.29,0,0.53,0.24,0.53,0.55c0,0.3-0.24,0.54-0.53,0.54c-0.29,0-0.53-0.24-0.53-0.54
	C18.2,18.68,18.44,18.43,18.73,18.43z"/>
<path class="st2" d="M18.73,19.56c0.32,0,0.58,0.27,0.58,0.6c0,0.33-0.26,0.6-0.58,0.6c-0.32,0-0.58-0.27-0.58-0.6
	C18.15,19.83,18.41,19.56,18.73,19.56z"/>
<path d="M18.5,21.31c-0.06,0-0.12,0.05-0.11,0.16c0.02,0.12,0.04,0.35,0.06,0.5c0.03,0.17,0.12,0.13,0.15,0
	c0.02-0.14,0.01-0.22,0.02-0.48C18.63,21.37,18.56,21.31,18.5,21.31z M18.96,21.31c-0.06,0-0.13,0.06-0.13,0.18
	c0.01,0.25,0,0.34,0.02,0.48c0.03,0.14,0.12,0.18,0.15,0c0.02-0.15,0.05-0.38,0.06-0.5C19.08,21.37,19.02,21.31,18.96,21.31z
	 M18.09,21.38c-0.06,0.01-0.12,0.07-0.11,0.13c0.01,0.12,0.04,0.26,0.05,0.43c0.01,0.18,0.13,0.11,0.15,0.01
	c0.01-0.1,0.03-0.26,0.01-0.46c0-0.08-0.04-0.11-0.07-0.11C18.11,21.38,18.1,21.38,18.09,21.38z M19.34,21.38
	c-0.04,0-0.07,0.04-0.07,0.11c-0.01,0.2,0,0.35,0.01,0.46c0.01,0.1,0.13,0.17,0.15-0.01c0.01-0.18,0.05-0.32,0.05-0.43
	c0-0.06-0.06-0.12-0.11-0.13C19.36,21.38,19.35,21.38,19.34,21.38z M17.6,21.58c-0.05,0.02-0.1,0.08-0.09,0.15
	c0.03,0.15,0.06,0.31,0.06,0.46c0,0.13,0.11,0.08,0.11-0.01c0.01-0.09,0.02-0.28,0.02-0.46C17.7,21.61,17.65,21.57,17.6,21.58z
	 M19.83,21.58c-0.04,0.01-0.07,0.06-0.07,0.15c0,0.18,0.01,0.37,0.02,0.46c0.01,0.09,0.11,0.14,0.11,0.01
	c0-0.15,0.03-0.32,0.06-0.46c0.02-0.07-0.03-0.14-0.08-0.15C19.85,21.58,19.84,21.58,19.83,21.58z M13.13,21.6
	c-0.06,0-0.11,0.09-0.06,0.18c0.07,0.16,0.14,0.25,0.21,0.42c0.06,0.15,0.16,0.06,0.13-0.05c-0.03-0.1-0.06-0.22-0.16-0.44
	C13.21,21.64,13.17,21.61,13.13,21.6z M24.32,21.6c-0.04,0-0.08,0.03-0.12,0.12c-0.1,0.22-0.13,0.34-0.16,0.44
	c-0.03,0.1,0.07,0.2,0.13,0.05c0.07-0.17,0.14-0.26,0.21-0.42C24.43,21.69,24.39,21.6,24.32,21.6z M13.59,21.61
	c-0.05,0.02-0.07,0.08-0.05,0.15c0.06,0.14,0.14,0.29,0.2,0.44c0.05,0.14,0.16,0.1,0.12-0.02c-0.04-0.12-0.05-0.2-0.12-0.43
	C13.7,21.63,13.63,21.6,13.59,21.61z M23.83,21.61c-0.04,0.01-0.08,0.05-0.11,0.14c-0.08,0.23-0.09,0.31-0.12,0.43
	c-0.04,0.12,0.07,0.16,0.12,0.02c0.06-0.15,0.14-0.3,0.19-0.44c0.03-0.07,0-0.13-0.05-0.15C23.86,21.61,23.85,21.61,23.83,21.61z
	 M14.15,21.72c-0.06,0.01-0.1,0.1-0.06,0.22c0.05,0.14,0.12,0.28,0.19,0.44c0.06,0.16,0.16,0.13,0.14,0.02
	c-0.03-0.1-0.06-0.28-0.13-0.53C14.25,21.76,14.2,21.72,14.15,21.72z M23.3,21.72c-0.05-0.01-0.1,0.03-0.13,0.15
	c-0.07,0.26-0.11,0.43-0.13,0.53c-0.02,0.1,0.08,0.14,0.14-0.02c0.06-0.16,0.14-0.3,0.19-0.44C23.41,21.83,23.36,21.73,23.3,21.72z
	 M12.75,21.81c-0.06,0.01-0.12,0.11-0.08,0.19c0.06,0.13,0.1,0.17,0.16,0.31c0.06,0.14,0.13,0.03,0.11-0.06
	c-0.02-0.09-0.06-0.2-0.09-0.33C12.83,21.83,12.79,21.8,12.75,21.81z M24.71,21.81c-0.04,0-0.08,0.02-0.1,0.12
	c-0.03,0.13-0.06,0.24-0.09,0.33c-0.03,0.09,0.04,0.2,0.11,0.06c0.06-0.14,0.1-0.18,0.16-0.31C24.83,21.92,24.77,21.81,24.71,21.81z
	 M17.11,22.13c-0.07,0-0.14,0.09-0.11,0.18c0.04,0.14,0.09,0.26,0.14,0.43c0.04,0.15,0.14,0.08,0.14-0.02
	c-0.01-0.1-0.02-0.25-0.07-0.47C17.19,22.17,17.15,22.13,17.11,22.13z M20.34,22.13c-0.04,0-0.08,0.03-0.1,0.12
	c-0.04,0.22-0.06,0.36-0.07,0.47c-0.01,0.1,0.1,0.18,0.14,0.02c0.04-0.18,0.1-0.3,0.14-0.43C20.48,22.22,20.41,22.13,20.34,22.13z
	 M18.73,22.27c-0.08,0-0.09,0.11-0.1,0.21c-0.01,0.3-0.13,0.59-0.23,0.74c-0.1,0.15-0.26,0.11-0.39,0.03
	c-0.14-0.08-0.23-0.14-0.38-0.25c-0.15-0.12-0.26-0.05-0.09,0.22c0.52,0.77,1.09,1.43,1.09,2.69c0,0.16,0.03,0.21,0.1,0.21
	c0.07,0,0.1-0.05,0.1-0.21c0-1.26,0.56-1.91,1.09-2.69c0.18-0.27,0.07-0.33-0.08-0.22c-0.15,0.12-0.24,0.17-0.38,0.25
	c-0.14,0.08-0.29,0.12-0.4-0.03c-0.1-0.15-0.22-0.44-0.23-0.74C18.82,22.38,18.81,22.27,18.73,22.27z M14.73,22.08
	c-0.01,0-0.01,0-0.02,0c-0.03,0.01-0.05,0.05-0.04,0.11c0.02,0.12,0.1,0.35,0.13,0.46c0.03,0.11,0.16,0.09,0.13-0.06
	c-0.03-0.15-0.03-0.19-0.07-0.36C14.85,22.14,14.78,22.08,14.73,22.08z M22.72,22.08c-0.05,0-0.12,0.06-0.13,0.15
	c-0.04,0.17-0.04,0.21-0.07,0.36c-0.03,0.15,0.1,0.17,0.13,0.06c0.03-0.11,0.11-0.34,0.13-0.46c0.01-0.07-0.01-0.1-0.04-0.11
	C22.74,22.08,22.73,22.08,22.72,22.08z M12.36,22.13c-0.07,0-0.11,0.09-0.05,0.21c0.07,0.14,0.2,0.31,0.25,0.4
	c0.05,0.1,0.15,0.03,0.08-0.09c-0.07-0.12-0.09-0.26-0.17-0.44C12.44,22.15,12.4,22.13,12.36,22.13z M25.1,22.13
	c-0.04,0-0.09,0.02-0.12,0.09c-0.08,0.18-0.1,0.32-0.17,0.44c-0.07,0.12,0.03,0.19,0.08,0.09c0.06-0.1,0.18-0.27,0.25-0.4
	C25.21,22.22,25.17,22.14,25.1,22.13z M8.77,22.52c-0.08,0-0.1,0.14-0.03,0.23c0.11,0.14,0.18,0.21,0.29,0.32
	c0.09,0.09,0.12-0.03,0.07-0.11c-0.05-0.09-0.12-0.18-0.21-0.32C8.85,22.55,8.8,22.52,8.77,22.52z M28.69,22.52
	c-0.03,0-0.08,0.03-0.13,0.11c-0.09,0.15-0.16,0.23-0.21,0.32c-0.05,0.09-0.02,0.2,0.07,0.11c0.12-0.11,0.19-0.18,0.29-0.32
	C28.79,22.66,28.76,22.52,28.69,22.52z M9.34,22.64c-0.06,0-0.1,0.05-0.05,0.15c0.07,0.15,0.16,0.33,0.21,0.44
	c0.06,0.12,0.23,0.15,0.16-0.03c-0.07-0.18-0.08-0.28-0.15-0.44C9.48,22.68,9.4,22.64,9.34,22.64z M28.12,22.64
	c-0.06,0-0.14,0.04-0.18,0.13c-0.06,0.17-0.07,0.26-0.14,0.44c-0.07,0.18,0.1,0.14,0.16,0.03c0.06-0.12,0.15-0.29,0.21-0.44
	C28.22,22.68,28.18,22.64,28.12,22.64z M8.23,22.68c-0.09,0-0.09,0.09-0.02,0.15c0.1,0.08,0.22,0.16,0.35,0.26
	C8.7,23.21,8.76,23.1,8.68,23c-0.08-0.1-0.15-0.19-0.33-0.29C8.3,22.69,8.26,22.68,8.23,22.68z M29.22,22.68
	c-0.03,0-0.07,0.01-0.12,0.03c-0.19,0.1-0.26,0.2-0.34,0.29c-0.07,0.1-0.02,0.21,0.12,0.09c0.12-0.1,0.24-0.18,0.35-0.26
	C29.32,22.77,29.31,22.68,29.22,22.68z M16.8,22.76c-0.05,0.01-0.09,0.06-0.07,0.14c0.04,0.14,0.08,0.28,0.11,0.42
	c0.02,0.14,0.18,0.14,0.15,0.01c-0.02-0.12-0.04-0.28-0.08-0.46c-0.02-0.07-0.05-0.1-0.08-0.11C16.82,22.76,16.81,22.76,16.8,22.76z
	 M20.63,22.76c-0.03,0-0.07,0.04-0.08,0.11c-0.04,0.19-0.06,0.34-0.08,0.46c-0.03,0.12,0.13,0.12,0.15-0.01
	c0.03-0.14,0.07-0.28,0.11-0.42c0.02-0.08-0.02-0.13-0.07-0.14C20.65,22.76,20.64,22.76,20.63,22.76z M13.39,22.53
	c-0.04,0.01-0.06,0.09-0.03,0.19c0.16,0.59,0.21,0.9,0.18,1.05c-0.03,0.15-0.11,0.17-0.21,0.12c-0.11-0.05-0.22-0.12-0.32-0.19
	c-0.09-0.07-0.19,0.01-0.06,0.13c0.69,0.58,1.16,1.25,1.35,2.06c0.04,0.16,0.14,0.18,0.11,0c-0.16-1.02-0.19-1.85,0.05-2.38
	c0.09-0.2,0-0.39-0.14-0.07c-0.09,0.21-0.25,0.3-0.37,0.11c-0.12-0.18-0.37-0.68-0.45-0.9c-0.03-0.08-0.06-0.12-0.09-0.13
	C13.41,22.53,13.4,22.53,13.39,22.53z M24.04,22.53c-0.03,0.01-0.06,0.04-0.09,0.13c-0.08,0.22-0.33,0.72-0.45,0.9
	c-0.12,0.19-0.27,0.1-0.37-0.11c-0.14-0.32-0.23-0.13-0.14,0.07c0.23,0.52,0.2,1.36,0.05,2.38c-0.03,0.18,0.07,0.16,0.11,0
	c0.18-0.81,0.66-1.47,1.35-2.06c0.13-0.12,0.04-0.2-0.06-0.13c-0.09,0.07-0.21,0.14-0.32,0.19c-0.1,0.05-0.18,0.03-0.21-0.12
	c-0.03-0.15,0.02-0.46,0.18-1.05c0.03-0.11,0.01-0.18-0.03-0.19C24.06,22.53,24.05,22.53,24.04,22.53z M9.95,22.81
	c-0.06,0-0.11,0.05-0.08,0.14c0.04,0.15,0.14,0.32,0.17,0.42c0.03,0.1,0.13,0.05,0.11-0.08c-0.02-0.14-0.03-0.22-0.05-0.37
	C10.08,22.85,10.01,22.81,9.95,22.81z M27.51,22.81c-0.06,0-0.13,0.04-0.15,0.11c-0.02,0.15-0.03,0.23-0.05,0.37
	c-0.02,0.14,0.08,0.18,0.11,0.08c0.03-0.1,0.13-0.27,0.17-0.42C27.62,22.86,27.57,22.81,27.51,22.81z M12.07,22.61
	c-0.07-0.01-0.08,0.18-0.02,0.26c0.08,0.1,0.19,0.23,0.31,0.37c0.09,0.12,0.15,0.01,0.1-0.08c-0.06-0.1-0.14-0.2-0.29-0.45
	C12.13,22.64,12.1,22.62,12.07,22.61z M25.38,22.61c-0.03,0-0.06,0.03-0.09,0.09c-0.15,0.25-0.24,0.35-0.29,0.45
	c-0.06,0.1,0,0.2,0.1,0.08c0.11-0.14,0.23-0.27,0.31-0.37C25.46,22.79,25.45,22.6,25.38,22.61z M10.43,23.07
	c-0.04,0-0.08,0.03-0.06,0.13c0.03,0.13,0.06,0.24,0.1,0.36c0.03,0.12,0.11,0.1,0.11-0.01c0-0.12-0.02-0.25-0.04-0.37
	C10.53,23.12,10.47,23.08,10.43,23.07z M27.02,23.07c-0.04,0-0.1,0.05-0.1,0.11c-0.02,0.12-0.04,0.25-0.04,0.37
	c0,0.12,0.08,0.14,0.11,0.01c0.03-0.12,0.07-0.23,0.09-0.36C27.11,23.11,27.07,23.07,27.02,23.07z M11.91,23.24
	c-0.07,0.01-0.13,0.08-0.05,0.19c0.13,0.17,0.28,0.3,0.33,0.36c0.05,0.06,0.18,0.04,0.1-0.1c-0.08-0.14-0.21-0.31-0.27-0.41
	C12,23.25,11.96,23.23,11.91,23.24z M25.51,23.24c-0.03,0-0.06,0.02-0.08,0.05c-0.06,0.1-0.18,0.27-0.27,0.41
	c-0.08,0.14,0.04,0.16,0.09,0.1c0.05-0.07,0.19-0.19,0.32-0.36c0.08-0.11,0.02-0.18-0.05-0.19C25.53,23.24,25.52,23.24,25.51,23.24z
	 M9.57,23.73c-0.05,0-0.07,0.04,0,0.15c0.17,0.24,0.36,0.6,0.37,0.76c0.01,0.16-0.06,0.16-0.13,0.16c-0.21,0-0.31-0.16-0.5-0.2
	c-0.19-0.05-0.22,0.06-0.08,0.16c0.69,0.52,1.38,1.1,1.66,1.62c0.11,0.21,0.26,0.29,0.18,0.09c-0.26-0.63-0.32-1.15-0.27-1.48
	c0.06-0.32,0.13-0.54,0.13-0.72c-0.01-0.18-0.11-0.17-0.15,0c-0.03,0.12-0.08,0.27-0.12,0.33c-0.04,0.06-0.19,0.09-0.33-0.11
	c-0.14-0.2-0.51-0.59-0.63-0.68C9.65,23.75,9.61,23.73,9.57,23.73z M27.88,23.73c-0.03,0-0.08,0.03-0.12,0.06
	c-0.12,0.1-0.48,0.48-0.63,0.68c-0.14,0.2-0.29,0.17-0.33,0.11c-0.04-0.06-0.09-0.21-0.12-0.33c-0.04-0.17-0.14-0.18-0.16,0
	c-0.01,0.18,0.07,0.4,0.13,0.72c0.06,0.32-0.01,0.85-0.27,1.48c-0.08,0.2,0.07,0.13,0.18-0.09c0.28-0.53,0.97-1.1,1.66-1.62
	c0.13-0.1,0.11-0.2-0.08-0.16c-0.19,0.04-0.29,0.2-0.5,0.2c-0.07,0-0.14,0-0.13-0.16c0.01-0.15,0.2-0.52,0.37-0.76
	C27.96,23.77,27.94,23.72,27.88,23.73z"/>
<path class="st2" d="M10.59,27.57l0.22,0.72 M11.04,27.44l0.2,0.73 M11.54,27.35l0.13,0.75 M11.99,27.26L12.14,28 M12.58,27.2
	l0.12,0.75 M13.2,27.2l0.13,0.75 M13.8,26.99l0.09,0.75 M14.37,27.02l0.09,0.75 M14.92,26.95l0.09,0.75 M15.48,26.89l0.05,0.76
	 M16.07,26.89l0.04,0.76 M16.61,26.85l0.04,0.76 M17.2,26.81l0.03,0.76 M17.88,26.79l0.03,0.76 M26.87,27.57l-0.22,0.72
	 M26.41,27.44l-0.2,0.73 M25.92,27.35l-0.13,0.75 M25.46,27.26L25.32,28 M24.88,27.2l-0.12,0.75 M24.26,27.2l-0.13,0.75
	 M23.65,26.99l-0.09,0.75 M23.08,27.02l-0.09,0.75 M22.53,26.95l-0.09,0.75 M21.98,26.89l-0.05,0.76 M21.38,26.89l-0.04,0.76
	 M20.85,26.85l-0.04,0.76 M20.25,26.81l-0.03,0.76 M19.58,26.79l-0.03,0.76 M18.73,26.74v0.83"/>
<path d="M30.35,22.36c-0.58-0.47-1.25-0.73-1.92-0.73c-0.01,0-0.02,0-0.03,0c0.26-0.81,0.43-1.67,0.43-2.65
	c0-1.7-1.28-3.51-3.65-3.51c-1.53,0-3.08,0.41-4.46,0.77c-0.25,0.07-0.5,0.13-0.74,0.19c0-0.03-0.02-0.05-0.04-0.07
	c-0.03-0.02-0.06-0.03-0.09-0.02l-0.78,0.14c-0.03,0.01-0.06,0.03-0.08,0.05c-0.08-0.06-0.18-0.09-0.28-0.09s-0.2,0.03-0.29,0.09
	c-0.02-0.03-0.04-0.05-0.07-0.05l-0.78-0.14c-0.03-0.01-0.06,0-0.09,0.02c-0.02,0.02-0.03,0.04-0.04,0.07
	c-0.24-0.06-0.49-0.12-0.74-0.19c-1.37-0.36-2.93-0.77-4.46-0.77c-2.37,0-3.65,1.81-3.65,3.51c0,0.97,0.17,1.84,0.43,2.65
	c-0.01,0-0.02,0-0.03,0c-0.66,0-1.34,0.26-1.92,0.73c-0.03,0.02-0.04,0.06-0.04,0.09c0,0.04,0.01,0.07,0.04,0.09
	c0.71,0.61,1.22,1.91,1.71,3.17c0.41,1.04,0.79,2.03,1.29,2.68c0.02,0.02,0.04,0.03,0.06,0.04c0.36,0.73,4.21,1.35,8.57,1.35
	c4.36,0,8.21-0.62,8.57-1.35c0.02-0.01,0.04-0.02,0.06-0.04c0.5-0.65,0.88-1.63,1.29-2.68c0.49-1.26,1-2.56,1.71-3.17
	c0.03-0.02,0.04-0.05,0.04-0.09C30.4,22.42,30.38,22.38,30.35,22.36z M20.79,16.47c1.36-0.36,2.9-0.76,4.4-0.76
	c2.23,0,3.43,1.69,3.43,3.27c0,0.98-0.18,1.84-0.45,2.66c-0.34,0.04-0.66,0.14-0.95,0.31c0.4-0.95,0.69-1.98,0.69-3.08
	c0-1.65-1.14-2.59-3.13-2.59c-1.2,0-2.45,0.34-3.55,0.63c-0.41,0.11-0.81,0.22-1.17,0.3c-0.01-0.18-0.02-0.36-0.04-0.54
	C20.27,16.6,20.52,16.54,20.79,16.47z M26.84,21.88c-0.08,0.04-0.18,0.07-0.27,0.07c-0.04,0-0.09-0.01-0.13-0.01l-0.17-0.05
	c-0.14-0.05-0.28-0.14-0.41-0.23l-0.17-0.14c-0.05-0.05-0.1-0.09-0.14-0.13c-0.08-0.1-0.17-0.19-0.26-0.27l-0.17-0.13
	c-0.13-0.09-0.27-0.15-0.41-0.19l-0.17-0.03c-0.06-0.01-0.13-0.01-0.19-0.01c-1.24,0-2.43,1.46-2.93,2.21
	c-0.06-0.51-0.22-0.94-0.46-1.29c-0.55-1.21-0.77-2.74-0.9-4.22c0.38-0.08,0.79-0.19,1.21-0.31c1.02-0.27,2.16-0.58,3.26-0.62
	l0.17,0c0.02,0,0.04,0,0.07,0c0.11,0,0.22,0,0.34,0.01l0.17,0.01c0.13,0.01,0.27,0.03,0.41,0.06l0.17,0.04
	c0.14,0.03,0.27,0.07,0.41,0.12l0.17,0.07c0.14,0.06,0.28,0.14,0.41,0.23l0.17,0.14c0.16,0.14,0.3,0.31,0.41,0.52l0.17,0.44
	c0.05,0.21,0.09,0.45,0.09,0.72c0,0.36-0.03,0.7-0.09,1.05l-0.17,0.77c-0.09,0.33-0.2,0.65-0.33,0.96c-0.01,0-0.01,0.01-0.02,0.02
	c-0.02,0.03-0.04,0.05-0.06,0.07L26.84,21.88z M19.78,16.59c0.09,1.54,0.26,3.23,0.75,4.62c-0.23-0.18-0.5-0.32-0.81-0.41
	c-0.21-1.07-0.32-2.26-0.4-3.17c-0.03-0.37-0.06-0.69-0.09-0.95L19.78,16.59z M18.44,16.78c0.06-0.1,0.16-0.17,0.29-0.17
	c0.12,0,0.23,0.07,0.29,0.17c0.01,0.09,0.02,0.19,0.03,0.3c-0.05,0.14-0.17,0.23-0.32,0.23c-0.15,0-0.27-0.1-0.32-0.23
	C18.42,16.97,18.43,16.87,18.44,16.78z M18.73,17.52c0.21,0,0.38,0.17,0.38,0.39c0,0.21-0.17,0.39-0.38,0.39
	c-0.21,0-0.38-0.18-0.38-0.39C18.35,17.7,18.52,17.52,18.73,17.52z M18.73,18.52c0.24,0,0.44,0.21,0.44,0.46
	c0,0.25-0.2,0.46-0.44,0.46c-0.24,0-0.44-0.2-0.44-0.46C18.29,18.73,18.48,18.52,18.73,18.52z M18.73,19.65
	c0.27,0,0.49,0.23,0.49,0.51c0,0.27-0.2,0.49-0.46,0.51c-0.01,0-0.02,0-0.04,0c-0.01,0-0.02,0-0.03,0
	c-0.26-0.02-0.46-0.24-0.46-0.51C18.23,19.88,18.46,19.65,18.73,19.65z M17.68,16.59l0.55,0.09c-0.03,0.26-0.06,0.58-0.09,0.94
	c-0.08,0.91-0.19,2.1-0.4,3.17c-0.31,0.09-0.58,0.23-0.81,0.41C17.42,19.81,17.59,18.12,17.68,16.59z M16.49,21.68
	c-0.23,0.34-0.39,0.77-0.45,1.27c-0.5-0.75-1.69-2.21-2.93-2.21c-0.06,0-0.13,0.01-0.19,0.01l-0.17,0.03
	c-0.14,0.04-0.28,0.1-0.41,0.19l-0.17,0.13c-0.1,0.08-0.19,0.18-0.28,0.29c-0.04,0.04-0.08,0.08-0.13,0.12l-0.17,0.14
	c-0.13,0.09-0.26,0.18-0.41,0.23l-0.17,0.05c-0.04,0.01-0.09,0.01-0.13,0.01c-0.1,0-0.19-0.02-0.28-0.07l-0.17-0.13
	c-0.02-0.02-0.04-0.04-0.06-0.07c0-0.01-0.01-0.01-0.02-0.02c-0.13-0.31-0.24-0.64-0.33-0.97l-0.17-0.78
	c-0.05-0.34-0.09-0.68-0.09-1.04c0-0.27,0.03-0.5,0.09-0.71l0.17-0.44c0.11-0.21,0.25-0.38,0.41-0.52l0.17-0.14
	c0.13-0.09,0.26-0.17,0.41-0.23l0.17-0.07c0.14-0.05,0.27-0.09,0.41-0.12l0.17-0.04c0.14-0.03,0.28-0.04,0.41-0.06l0.17-0.01
	c0.12-0.01,0.23-0.01,0.34-0.01c0.02,0,0.05,0,0.07,0l0.17,0c1.1,0.04,2.24,0.35,3.26,0.62c0.43,0.11,0.83,0.22,1.21,0.31
	C17.27,18.93,17.04,20.47,16.49,21.68z M8.84,18.98c0-1.59,1.2-3.27,3.43-3.27c1.5,0,3.04,0.4,4.4,0.76
	c0.27,0.07,0.53,0.14,0.78,0.2c-0.01,0.18-0.02,0.36-0.04,0.54c-0.37-0.08-0.76-0.18-1.18-0.3c-1.1-0.3-2.35-0.63-3.55-0.63
	c-1.99,0-3.13,0.95-3.13,2.59c0,1.1,0.29,2.13,0.69,3.08c-0.29-0.17-0.61-0.27-0.95-0.31C9.02,20.83,8.84,19.96,8.84,18.98z
	 M28.43,25.63c-0.38,0.97-0.74,1.89-1.18,2.52c-0.08-0.09-0.21-0.17-0.4-0.24l0.09-0.3c0.01-0.05-0.01-0.1-0.05-0.11
	c-0.05-0.01-0.09,0.01-0.11,0.06l-0.09,0.3c-0.09-0.03-0.18-0.06-0.28-0.08l0.08-0.3c0.01-0.05-0.01-0.09-0.06-0.11
	c-0.04-0.01-0.09,0.01-0.1,0.06l-0.08,0.31c-0.09-0.02-0.19-0.04-0.3-0.06L26,27.37c0.01-0.05-0.02-0.09-0.07-0.1
	c-0.05-0.01-0.09,0.02-0.1,0.07l-0.05,0.29c-0.09-0.02-0.19-0.03-0.29-0.05l0.06-0.31c0.01-0.05-0.02-0.09-0.07-0.1
	c-0.04-0.01-0.09,0.02-0.1,0.07l-0.06,0.32c-0.13-0.02-0.26-0.04-0.4-0.05l0.05-0.3c0.01-0.05-0.02-0.09-0.07-0.1
	c-0.04,0-0.09,0.02-0.1,0.07l-0.05,0.3c-0.14-0.02-0.29-0.03-0.44-0.05l0.04-0.23c0.01-0.05-0.02-0.09-0.07-0.1
	c-0.04-0.01-0.09,0.02-0.1,0.07l-0.04,0.24c-0.15-0.01-0.29-0.03-0.44-0.04l0.05-0.4c0-0.05-0.03-0.09-0.07-0.1
	c-0.05-0.01-0.09,0.03-0.1,0.08l-0.05,0.41c-0.13-0.01-0.26-0.02-0.39-0.03l0.04-0.32c0.01-0.05-0.03-0.09-0.07-0.1
	c0,0-0.01,0-0.01,0c-0.04,0-0.08,0.03-0.08,0.08l-0.04,0.33c-0.13-0.01-0.26-0.01-0.39-0.02l0.04-0.37c0.01-0.05-0.03-0.09-0.07-0.1
	c-0.06-0.01-0.09,0.03-0.09,0.08l-0.05,0.38c-0.12-0.01-0.25-0.01-0.37-0.02l0.03-0.4c0-0.05-0.03-0.09-0.08-0.09h-0.01
	c-0.04,0-0.08,0.04-0.08,0.08l-0.03,0.41c-0.14-0.01-0.28-0.01-0.42-0.01l0.02-0.38c0-0.05-0.03-0.09-0.08-0.09c0,0-0.01,0-0.01,0
	c-0.05,0-0.08,0.04-0.09,0.08l-0.02,0.39c-0.12,0-0.25-0.01-0.37-0.01l0.02-0.41c0-0.05-0.04-0.09-0.08-0.09
	c-0.06,0-0.09,0.04-0.09,0.08l-0.02,0.41c-0.14,0-0.28-0.01-0.42-0.01l0.02-0.43c0-0.05-0.03-0.09-0.08-0.09c0,0,0,0,0,0
	c-0.04,0-0.08,0.04-0.08,0.08l-0.02,0.44c-0.18,0-0.35-0.01-0.51-0.01l0.02-0.44c0-0.05-0.03-0.09-0.08-0.09c0,0,0,0,0,0
	c-0.05,0-0.08,0.04-0.09,0.08l-0.02,0.45c-0.25,0-0.47,0-0.66,0v-0.49c0-0.05-0.04-0.09-0.08-0.09s-0.08,0.04-0.08,0.09v0.49
	c-0.19,0-0.41,0-0.66,0l-0.02-0.45c0-0.05-0.04-0.08-0.08-0.08c0,0,0,0,0,0c-0.05,0-0.08,0.04-0.08,0.09l0.02,0.44
	c-0.16,0-0.33,0-0.51,0.01l-0.02-0.44c0-0.05-0.04-0.08-0.08-0.08c0,0,0,0,0,0c-0.05,0-0.08,0.04-0.08,0.09l0.02,0.43
	c-0.14,0-0.28,0-0.42,0.01l-0.02-0.41c0-0.05-0.03-0.09-0.09-0.08c-0.05,0-0.08,0.04-0.08,0.09l0.02,0.41
	c-0.12,0-0.24,0.01-0.37,0.01l-0.02-0.39c0-0.05-0.04-0.08-0.08-0.08h-0.01c-0.05,0-0.08,0.05-0.08,0.09l0.02,0.38
	c-0.14,0-0.28,0.01-0.42,0.01l-0.03-0.41c0-0.05-0.04-0.09-0.09-0.08c-0.05,0-0.08,0.05-0.08,0.09l0.03,0.4
	c-0.12,0-0.24,0.01-0.37,0.02l-0.04-0.38c-0.01-0.05-0.04-0.08-0.09-0.08c-0.05,0.01-0.08,0.05-0.07,0.1l0.04,0.37
	c-0.13,0.01-0.26,0.01-0.39,0.02l-0.04-0.33c0-0.04-0.04-0.08-0.08-0.08c0,0-0.01,0-0.01,0c-0.05,0.01-0.08,0.05-0.07,0.1l0.04,0.32
	c-0.13,0.01-0.26,0.02-0.39,0.03l-0.05-0.41c0-0.05-0.05-0.08-0.09-0.08c-0.05,0.01-0.08,0.05-0.07,0.1l0.05,0.4
	c-0.15,0.01-0.3,0.02-0.44,0.04l-0.04-0.24c-0.01-0.05-0.05-0.08-0.1-0.07c-0.05,0.01-0.08,0.05-0.07,0.1l0.04,0.23
	c-0.15,0.01-0.3,0.03-0.44,0.05l-0.05-0.3c-0.01-0.05-0.05-0.07-0.1-0.07c-0.05,0.01-0.08,0.05-0.07,0.1l0.05,0.3
	c-0.14,0.02-0.27,0.03-0.4,0.05l-0.06-0.32c-0.01-0.05-0.05-0.08-0.1-0.07c-0.05,0.01-0.08,0.06-0.07,0.1l0.06,0.31
	c-0.1,0.02-0.2,0.03-0.3,0.05l-0.05-0.29c-0.01-0.05-0.05-0.08-0.1-0.07c-0.05,0.01-0.08,0.06-0.07,0.1l0.05,0.29
	c-0.1,0.02-0.2,0.04-0.3,0.06l-0.08-0.31c-0.01-0.05-0.06-0.07-0.1-0.06c-0.05,0.01-0.07,0.06-0.06,0.11l0.08,0.3
	c-0.1,0.03-0.2,0.05-0.28,0.08l-0.09-0.3c-0.01-0.05-0.06-0.07-0.11-0.06c-0.04,0.01-0.07,0.06-0.06,0.11l0.09,0.3
	c-0.19,0.07-0.32,0.15-0.4,0.25c-0.45-0.62-0.8-1.55-1.18-2.52c-0.48-1.23-0.97-2.49-1.67-3.17c0.51-0.39,1.1-0.6,1.67-0.6
	c1.04,0,1.88,0.68,2.26,1.81c0.02,0.06,0.07,0.09,0.13,0.08c0.06-0.01,0.09-0.07,0.09-0.13c-0.13-1.36,0.62-2.47,1.36-2.62
	c0.08-0.02,0.16-0.02,0.24-0.02c1.32,0,2.66,1.92,2.92,2.39c0.02,0.05,0.07,0.07,0.12,0.06c0.05-0.01,0.09-0.06,0.09-0.11
	c0.07-2,1.39-2.42,2.49-2.42c1.1,0,2.42,0.42,2.49,2.42c0,0.05,0.04,0.1,0.09,0.11c0.05,0.01,0.1-0.01,0.13-0.06
	c0.26-0.47,1.6-2.39,2.92-2.39c0.08,0,0.16,0.01,0.24,0.02c0.75,0.14,1.49,1.26,1.37,2.62c0,0.06,0.03,0.11,0.09,0.13
	c0.06,0.01,0.11-0.02,0.13-0.08c0.38-1.13,1.23-1.81,2.26-1.81c0.57,0,1.16,0.21,1.67,0.6C29.4,23.13,28.91,24.4,28.43,25.63z"/>
<path class="st2" d="M18.73,16.6c0.19,0,0.34,0.16,0.34,0.36c0,0.2-0.15,0.36-0.34,0.36c-0.19,0-0.35-0.16-0.35-0.36
	C18.38,16.76,18.54,16.6,18.73,16.6z"/>
<linearGradient id="SVGID_1_" gradientUnits="userSpaceOnUse" x1="32" y1="62" x2="32" y2="2">
	<stop  offset="0" style="stop-color:#1A1A1A"/>
	<stop  offset="0.102" style="stop-color:#393939;stop-opacity:0.949"/>
	<stop  offset="0.3475" style="stop-color:#7F7F7F;stop-opacity:0.8262"/>
	<stop  offset="0.5688" style="stop-color:#B6B6B6;stop-opacity:0.7156"/>
	<stop  offset="0.7582" style="stop-color:#DEDEDE;stop-opacity:0.6209"/>
	<stop  offset="0.9081" style="stop-color:#F6F6F6;stop-opacity:0.5459"/>
	<stop  offset="1" style="stop-color:#FFFFFF;stop-opacity:0.5"/>
</linearGradient>
<circle class="st3" cx="32" cy="32" r="30"/>
</svg>
