<?xml version="1.0" encoding="utf-8"?>
<!-- Generator: Adobe Illustrator 24.1.2, SVG Export Plug-In . SVG Version: 6.00 Build 0)  -->
<svg version="1.1" id="Layer_1" xmlns="http://www.w3.org/2000/svg" xmlns:xlink="http://www.w3.org/1999/xlink" x="0px" y="0px"
	 width="64px" height="64px" viewBox="0 0 64 64" style="enable-background:new 0 0 64 64;" xml:space="preserve">
<style type="text/css">
	.st0{fill:#FF0000;}
	.st1{fill:#0000B3;}
	.st2{fill:#FCFCFC;}
	.st3{opacity:0.1;fill:url(#SVGID_1_);}
</style>
<path class="st0" d="M32,2v30H2c0,16.57,13.43,30,30,30c16.57,0,30-13.43,30-30S48.57,2,32,2z"/>
<path class="st1" d="M32,2C15.43,2,2,15.43,2,32h30V2z"/>
<path class="st2" d="M23.99,20.34L29,19l-5.01-1.34L27.66,14l-5.01,1.35L24,10.34l-3.66,3.67L19,9l-1.34,5.01L14,10.34l1.35,5.01
	L10.34,14l3.67,3.66L9,19l5.01,1.34L10.34,24l5.01-1.35L14,27.66l3.66-3.67L19,29l1.34-5.01L24,27.66l-1.35-5.01L27.66,24
	L23.99,20.34z"/>
<path class="st1" d="M19,13.33c3.13,0,5.67,2.54,5.67,5.67c0,3.13-2.54,5.67-5.67,5.67c-3.13,0-5.67-2.54-5.67-5.67
	C13.33,15.87,15.87,13.33,19,13.33z"/>
<circle class="st2" cx="19" cy="19" r="5"/>
<linearGradient id="SVGID_1_" gradientUnits="userSpaceOnUse" x1="32" y1="62" x2="32" y2="2">
	<stop  offset="0" style="stop-color:#1A1A1A"/>
	<stop  offset="0.102" style="stop-color:#393939;stop-opacity:0.949"/>
	<stop  offset="0.3475" style="stop-color:#7F7F7F;stop-opacity:0.8262"/>
	<stop  offset="0.5688" style="stop-color:#B6B6B6;stop-opacity:0.7156"/>
	<stop  offset="0.7582" style="stop-color:#DEDEDE;stop-opacity:0.6209"/>
	<stop  offset="0.9081" style="stop-color:#F6F6F6;stop-opacity:0.5459"/>
	<stop  offset="1" style="stop-color:#FFFFFF;stop-opacity:0.5"/>
</linearGradient>
<circle class="st3" cx="32" cy="32" r="30"/>
</svg>
