<?xml version="1.0" encoding="utf-8"?>
<!-- Generator: Adobe Illustrator 24.1.2, SVG Export Plug-In . SVG Version: 6.00 Build 0)  -->
<svg version="1.1" id="Layer_1" xmlns="http://www.w3.org/2000/svg" xmlns:xlink="http://www.w3.org/1999/xlink" x="0px" y="0px"
	 width="64px" height="64px" viewBox="0 0 64 64" style="enable-background:new 0 0 64 64;" xml:space="preserve">
<style type="text/css">
	.st0{fill:url(#SVGID_1_);}
	.st1{opacity:0.7;fill:#87CCFF;}
	.st2{fill:#FFFFFF;}
	.st3{fill:url(#SVGID_2_);}
	.st4{fill:#018BC9;}
	.st5{fill:#822D39;}
	.st6{fill:#E95349;}
	.st7{fill:#6E8189;}
	.st8{fill:#B3C2C6;}
</style>
<radialGradient id="SVGID_1_" cx="32.125" cy="62" r="115.5465" gradientTransform="matrix(1 0 0 0.8135 0 11.5613)" gradientUnits="userSpaceOnUse">
	<stop  offset="0" style="stop-color:#DBEDB3"/>
	<stop  offset="0.4242" style="stop-color:#006DAE"/>
	<stop  offset="0.6909" style="stop-color:#011B36"/>
</radialGradient>
<rect x="2" y="2" class="st0" width="60" height="60"/>
<path class="st1" d="M59.34,16.94c0.88,0,0.88-1.32,0-1.32C58.46,15.63,58.46,16.94,59.34,16.94z"/>
<path class="st1" d="M39.45,13.63c0.88,0,0.88-1.31,0-1.31C38.57,12.32,38.58,13.63,39.45,13.63z"/>
<path class="st1" d="M5.35,16.28c0.88,0,0.88-1.31,0-1.32C4.47,14.97,4.47,16.28,5.35,16.28z"/>
<path class="st1" d="M46.95,9.18c0.88,0,0.88-1.32,0-1.32C46.07,7.86,46.07,9.18,46.95,9.18z"/>
<path class="st1" d="M50.36,21.56c0.88,0,0.88-1.31,0-1.31C49.48,20.25,49.48,21.56,50.36,21.56z"/>
<path class="st1" d="M51.38,39.7c0.88,0,0.88-1.31,0-1.31C50.5,38.39,50.5,39.7,51.38,39.7z"/>
<path class="st1" d="M19.97,39.37c0.88,0,0.88-1.31,0-1.31C19.09,38.05,19.09,39.37,19.97,39.37z"/>
<path class="st1" d="M4.94,34.82c0.88,0,0.88-1.31,0-1.31C4.06,33.51,4.06,34.82,4.94,34.82z"/>
<path class="st1" d="M19.28,18.23c0.58,0,0.58-0.88,0-0.88C18.7,17.35,18.7,18.23,19.28,18.23z"/>
<path class="st1" d="M14.72,4.63c0.58,0,0.59-0.88,0-0.88C14.13,3.75,14.13,4.63,14.72,4.63z"/>
<path class="st2" d="M6.45,25.34c0.58,0,0.59-0.88,0-0.88C5.86,24.47,5.86,25.34,6.45,25.34z"/>
<path class="st2" d="M13.83,36.22c0.58,0,0.59-0.88,0-0.88C13.25,35.34,13.25,36.22,13.83,36.22z"/>
<path class="st2" d="M45.25,34.96c0.58,0,0.59-0.88,0-0.88C44.66,34.08,44.66,34.96,45.25,34.96z"/>
<path class="st2" d="M59.22,37.17c0.58,0,0.59-0.88,0-0.88C58.63,36.29,58.63,37.17,59.22,37.17z"/>
<path class="st2" d="M12.96,13.8c0.58,0,0.59-0.88,0-0.88C12.37,12.93,12.37,13.8,12.96,13.8z"/>
<path class="st2" d="M23.8,6.45c0.58,0,0.59-0.88,0-0.88C23.21,5.57,23.21,6.45,23.8,6.45z"/>
<path class="st2" d="M19.75,26.2c0.58,0,0.59-0.88,0-0.88C19.17,25.32,19.17,26.2,19.75,26.2z"/>
<path class="st2" d="M43.72,21.78c0.58,0,0.59-0.88,0-0.88C43.13,20.9,43.13,21.78,43.72,21.78z"/>
<path class="st2" d="M40.24,4.19c0.58,0,0.59-0.88,0-0.88C39.66,3.32,39.66,4.19,40.24,4.19z"/>
<path class="st2" d="M60,6.75c0.58,0,0.59-0.88,0-0.88C59.41,5.88,59.41,6.75,60,6.75z"/>
<path class="st1" d="M29.82,17.02c0.58,0,0.58-0.88,0-0.88C29.23,16.14,29.23,17.02,29.82,17.02z"/>
<path class="st1" d="M33.8,20.35c0.88,0,0.88-1.32,0-1.32C32.92,19.03,32.92,20.35,33.8,20.35z"/>
<path class="st1" d="M29.82,34.52c0.88,0,0.88-1.32,0-1.32C28.94,33.21,28.94,34.52,29.82,34.52z"/>
<path class="st1" d="M7.94,7.63c0.87,0,0.87-1.32,0-1.32C7.06,6.32,7.06,7.63,7.94,7.63z"/>
<path class="st1" d="M31.44,8.51c0.61,0,0.61-0.88,0-0.88C30.83,7.63,30.83,8.51,31.44,8.51z"/>
<path class="st2" d="M54.6,6.45c2.53,3.76-1.06,9.98-5.58,9.67C55.39,19.67,60.86,10.19,54.6,6.45z"/>
<linearGradient id="SVGID_2_" gradientUnits="userSpaceOnUse" x1="32" y1="62" x2="32" y2="51.0449">
	<stop  offset="0" style="stop-color:#013366"/>
	<stop  offset="1" style="stop-color:#006DAE"/>
</linearGradient>
<rect x="2" y="51.04" class="st3" width="60" height="10.96"/>
<path class="st4" d="M44.96,56.67c0,1.07-26.02,1.07-26.02,0C18.94,55.6,44.96,55.6,44.96,56.67z"/>
<rect x="36.77" y="7" class="st5" width="0.21" height="0.48"/>
<rect x="36.84" y="7" class="st6" width="0.21" height="0.48"/>
<rect x="36.41" y="7.36" class="st5" width="0.43" height="1.16"/>
<rect x="36.72" y="7.36" class="st6" width="0.69" height="1.16"/>
<rect x="27.75" y="7" class="st5" width="0.21" height="0.48"/>
<rect x="27.82" y="7" class="st6" width="0.21" height="0.48"/>
<rect x="27.39" y="7.36" class="st5" width="0.43" height="1.16"/>
<rect x="27.7" y="7.36" class="st6" width="0.69" height="1.16"/>
<polygon class="st5" points="25.16,53.67 25.16,36.85 25.53,36.38 25.53,22.54 25.86,22.11 25.86,9.37 26.81,8.38 28.88,53.67 "/>
<path class="st6" d="M26.1,53.67V36.85l0.38-0.47V22.53l0.33-0.42V8.38c0-0.26,0.21-0.47,0.47-0.47h1.28c0.26,0,0.47,0.21,0.47,0.47
	v13.54l0.47,0.52v13.89l0.33,0.33v17.01H26.1z"/>
<polygon class="st5" points="27.96,21.6 27.37,21.98 27.37,29.12 27.02,29.54 27.02,53.67 27.49,53.67 27.49,29.65 27.79,29.15 
	27.79,21.98 "/>
<polygon class="st5" points="27.78,39.53 27.78,53.67 29.82,53.67 29.82,40.95 "/>
<path class="st5" d="M27.35,16.58V13.9l-0.31-0.33V8.91l0.31-0.53v1.07h6.83l1.65-1.07l-0.71,5.81L33.9,13.4h-5.22
	c-0.41,0-0.75,0.31-0.8,0.72l-0.2,1.99L27.35,16.58z"/>
<path class="st5" d="M27.35,30.16v-2.68l-0.31-0.33v-4.66l0.75-0.26l0.59,0.8h5.8l0.71-0.47v5.06l-0.99-0.64h-5.22
	c-0.41,0-0.75,0.31-0.8,0.72l-0.2,1.99L27.35,30.16z"/>
<path class="st5" d="M27.35,44.22l-0.31-7.67l0.75-0.26l0.59,0.8h5.5l1-0.8v6.92l-0.36-0.46c-0.39-0.5-1-0.79-1.63-0.79h-3.02
	c-0.41,0-0.75,0.31-0.8,0.72l-0.2,1.07L27.35,44.22z"/>
<polygon class="st5" points="34.18,53.67 34.18,36.85 34.56,36.38 34.56,22.54 34.89,22.11 34.89,8.98 35.83,8.38 37.9,53.67 "/>
<path class="st6" d="M35.12,53.67V36.85l0.38-0.47V22.53l0.33-0.42V8.38c0-0.26,0.21-0.47,0.47-0.47h1.28
	c0.26,0,0.47,0.21,0.47,0.47v13.54l0.47,0.52v13.89l0.33,0.33v17.01H35.12z"/>
<polygon class="st5" points="36.98,21.6 36.39,21.98 36.39,29.12 36.04,29.54 36.04,53.67 36.51,53.67 36.51,29.65 36.82,29.15 
	36.82,21.98 "/>
<polygon class="st5" points="37.39,35.78 36.81,36.17 36.81,53.67 37.23,53.67 37.23,36.17 "/>
<path class="st6" d="M62,29.02c0,0-14.21-4.91-25.41-20.06c-0.06-0.08,0-1.2,0-1.2C47.79,22.71,62,27.82,62,27.82V29.02z"/>
<path class="st6" d="M62,34.16c0,0-13.54-2.37-25.38-18.14c-0.06-0.08-0.07-1.28,0-1.2C49.71,31.46,62,33.27,62,33.27V34.16z"/>
<path class="st6" d="M2,25.01c0,0,14.21-4.88,25.38-16.05c0.07-0.07,0.07-1.28,0-1.2C16.21,19.13,2,23.81,2,23.81V25.01z"/>
<path class="st6" d="M2,30.51c0,0,17.32-6.26,34.59-21.55c0.08-0.07,0-1.2,0-1.2C19.31,23.05,2,29.31,2,29.31V30.51z"/>
<polygon class="st6" points="40.96,48.67 41.66,48.67 41.66,13.98 40.96,13.37 "/>
<polygon class="st6" points="23.04,48.67 22.34,48.67 22.34,12.44 23.04,12.04 "/>
<polygon class="st6" points="47.09,48.67 47.79,48.67 47.79,19.28 47.09,18.77 "/>
<polygon class="st6" points="16.91,48.67 16.21,48.67 16.21,17.03 16.91,16.53 "/>
<polygon class="st6" points="53.23,48.67 53.93,48.67 53.93,23.67 53.23,23.18 "/>
<polygon class="st6" points="10.77,48.67 10.07,48.67 10.07,20.63 10.77,20.37 "/>
<polygon class="st6" points="59.37,48.67 60.07,48.67 60.07,26.87 59.37,26.56 "/>
<polygon class="st6" points="4.63,48.67 3.93,48.67 3.93,23.23 4.63,23.46 "/>
<path class="st6" d="M41.81,14.3c0,0.3-1-0.63-1-0.93c0-0.14,0-0.22,0-0.59c0-0.29,1,0.62,1,0.91
	C41.81,13.86,41.81,14.16,41.81,14.3z"/>
<path class="st6" d="M47.94,19.96c0,0.3-1-0.48-1-0.77c0-0.14,0-0.22,0-0.59c0-0.29,1,0.46,1,0.75
	C47.94,19.52,47.94,19.82,47.94,19.96z"/>
<path class="st6" d="M54.08,24.3c0,0.3-1-0.39-1-0.68c0-0.14,0-0.22,0-0.59c0-0.29,1,0.37,1,0.66
	C54.08,23.87,54.08,24.16,54.08,24.3z"/>
<path class="st6" d="M60.22,27.62c0,0.3-1-0.27-1-0.56c0-0.14,0-0.22,0-0.59c0-0.29,1,0.25,1,0.54
	C60.22,27.18,60.22,27.48,60.22,27.62z"/>
<path class="st6" d="M22.19,12.77c0,0.33,1-0.33,1-0.66c0-0.15,0-0.07,0-0.49c0-0.33-1,0.31-1,0.64
	C22.19,12.46,22.19,12.62,22.19,12.77z"/>
<path class="st6" d="M16.06,17.26c0,0.33,1-0.33,1-0.66c0-0.15,0-0.07,0-0.49c0-0.33-1,0.31-1,0.64
	C16.06,16.95,16.06,17.1,16.06,17.26z"/>
<path class="st6" d="M9.92,20.82c0,0.33,1-0.2,1-0.53c0-0.15,0-0.07,0-0.49c0-0.33-1,0.18-1,0.51C9.92,20.51,9.92,20.66,9.92,20.82z
	"/>
<path class="st6" d="M3.77,23.63c0,0.33,1-0.09,1-0.42c0-0.15,0-0.07,0-0.49c0-0.33-1,0.07-1,0.4C3.77,23.31,3.77,23.47,3.77,23.63z
	"/>
<rect x="2" y="47.67" class="st6" width="60" height="2"/>
<path class="st7" d="M24.44,52.96v3.71H34v-3.71H24.44z"/>
<path class="st8" d="M34,52.96v3.71h5.46v-3.71H34z"/>
</svg>
