<?xml version="1.0" encoding="utf-8"?>
<!-- Generator: Adobe Illustrator 15.0.0, SVG Export Plug-In . SVG Version: 6.00 Build 0)  -->
<!DOCTYPE svg PUBLIC "-//W3C//DTD SVG 1.1//EN" "http://www.w3.org/Graphics/SVG/1.1/DTD/svg11.dtd" [
	<!ENTITY ns_flows "http://ns.adobe.com/Flows/1.0/">
	<!ENTITY ns_extend "http://ns.adobe.com/Extensibility/1.0/">
	<!ENTITY ns_ai "http://ns.adobe.com/AdobeIllustrator/10.0/">
	<!ENTITY ns_graphs "http://ns.adobe.com/Graphs/1.0/">
]>
<svg version="1.1" id="Layer_1" xmlns:x="&ns_extend;" xmlns:i="&ns_ai;" xmlns:graph="&ns_graphs;"
	 xmlns="http://www.w3.org/2000/svg" xmlns:xlink="http://www.w3.org/1999/xlink" xmlns:a="http://ns.adobe.com/AdobeSVGViewerExtensions/3.0/"
	 x="0px" y="0px" width="64px" height="64px" viewBox="0 0 64 64" enable-background="new 0 0 64 64" xml:space="preserve">
<polygon fill="#B3C2C6" points="25.915,20.002 23.968,21.955 16.96,14.936 18.907,12.986 "/>
<path fill="#302C3B" d="M18.389,16.912c0,0-6.268-6.268-6.818-6.831c-4.436-4.546-11.562,3.742-3.052,6.416
	c2.188,0.685,0.479,4.359-2.016,3.162C-6.361,13.5,6.408-0.262,13.608,7.125c1.308,1.344,7.278,7.286,7.278,7.286L18.389,16.912z"/>
<path fill="#B3C2C6" d="M61.626,58.81c0.666,0.648,1.842-0.518,1.177-1.167c-1.985-1.951-2.41-2.611-2.41-2.611l-1.422,1.41
	C58.971,56.441,59.942,57.156,61.626,58.81z"/>
<polygon fill="#302C3B" points="60.37,58.271 62.215,56.443 60.247,54.054 57.949,56.33 "/>
<path fill="#99A8AE" d="M26.254,18.84c0.519-0.231-0.497-1.583-0.94-1.247C24.886,17.916,25.753,19.056,26.254,18.84z"/>
<path fill="#99A8AE" d="M25.603,19.637c0.504-0.272-0.694-1.475-1.109-1.118C24.087,18.875,25.102,19.895,25.603,19.637z"/>
<path fill="#99A8AE" d="M24.693,20.536c0.5-0.257-0.629-1.527-1.04-1.173C23.241,19.713,24.198,20.791,24.693,20.536z"/>
<path fill="#99A8AE" d="M23.759,21.464c0.492-0.278-0.676-1.512-1.077-1.146C22.288,20.68,23.268,21.734,23.759,21.464z"/>
<path fill="#99A8AE" d="M22.75,22.458c0.479-0.299-0.791-1.43-1.167-1.044C21.197,21.804,22.269,22.763,22.75,22.458z"/>
<path fill="#014D87" d="M52.962,40.58c-15.548-19.659-20.699-0.428-23.088-19.816C30.819,48.288,47.218,35.043,52.962,40.58z"/>
<path fill="#006DAE" d="M38.816,18.915c-6.076,3.32-16.813-1.863-0.237,9.714C37.51,25.917,40.908,21.089,38.816,18.915z"/>
<path fill="#014D87" d="M26.123,17.89c-0.841,1.633-2.49,3.438-4.186,4.384c1.674,3.629,5.637,6.474,6.854,6.787
	C31.278,19.667,27.464,19.222,26.123,17.89z"/>
<path fill="#006DAE" d="M25.051,18.575c0.037-0.049,1.963,4.364-2.258,9.705C27.25,35.515,31.746,18.574,25.051,18.575z"/>
<path fill="#014D87" d="M26.123,17.89c2.038,6.704-1,11.483-3.779,16.44C42.175,37.611,38.447,29.255,26.123,17.89z"/>
<path fill="#006DAE" d="M25.828,17.689c3.583,3.262,1.694,10.518-1.284,15.689C45.383,35.574,32.667,18.808,25.828,17.689z"/>
<path fill="#01284F" d="M26.796,18.925c2.031,6.748-4.359,16.206-1.879,14.206C28.875,29.952,29.61,22.026,26.796,18.925z"/>
<path fill="#006DAE" d="M60.378,56.821c6.134-5.619-9.606-11.622-17.436-9.991C45.727,50.238,56.865,57.185,60.378,56.821z"/>
<path fill="#014D87" d="M61.087,52.252c-5.828-13.208-12.826-4.341-21.247-8.444C45.814,52.675,55.706,45.78,61.087,52.252z"/>
<path fill="#006DAE" d="M57.384,46.62c-7.896-17.261-15.203-5.914-23.188-10.448C42.249,53.254,51.857,42.257,57.384,46.62z"/>
<path fill="#014D87" d="M30.763,20.535c7.4,6.794-10.506,11.179,11.773,10.902C35.699,28.757,41.745,23.537,30.763,20.535z"/>
<path fill="#01284F" d="M30.763,20.535c4.171,4.659-1.705,8.939,0.733,9.097C34.643,29.838,38.458,23.116,30.763,20.535z"/>
<path fill="#014D87" d="M61.586,55.152c-1.505,1.642-10.938-2.271-15.794-5.714C49.967,56.105,60.474,60.567,61.586,55.152z"/>
<path fill="#006DAE" d="M33.304,36.169c0.221,4.034,10.937-6.339,6.972-6.891C39.768,25.5,29.763,36.046,33.304,36.169z"/>
<path fill="#014D87" d="M33.012,36.517c1.122,1.061,8.677-6.388,7.584-7.497C39.538,27.946,32.116,35.657,33.012,36.517z"/>
</svg>
