<?xml version="1.0" encoding="utf-8"?>
<!-- Generator: Adobe Illustrator 24.1.2, SVG Export Plug-In . SVG Version: 6.00 Build 0)  -->
<svg version="1.1" id="Layer_1" xmlns="http://www.w3.org/2000/svg" xmlns:xlink="http://www.w3.org/1999/xlink" x="0px" y="0px"
	 width="64px" height="64px" viewBox="0 0 64 64" style="enable-background:new 0 0 64 64;" xml:space="preserve">
<style type="text/css">
	.st0{fill:url(#SVGID_1_);}
	.st1{fill:url(#SVGID_2_);}
	.st2{fill:url(#SVGID_3_);}
	.st3{fill:url(#SVGID_4_);}
	.st4{fill:url(#SVGID_5_);}
</style>
<linearGradient id="SVGID_1_" gradientUnits="userSpaceOnUse" x1="4.457357e-05" y1="64" x2="64" y2="4.080150e-06">
	<stop  offset="0" style="stop-color:#99A8AE"/>
	<stop  offset="1" style="stop-color:#F3F8FC"/>
</linearGradient>
<polygon class="st0" points="64,0 0,0 0,64 64,64 64,0 "/>
<linearGradient id="SVGID_2_" gradientUnits="userSpaceOnUse" x1="-454.8859" y1="30.0234" x2="-454.8859" y2="6.875" gradientTransform="matrix(-1 0 0 1 -422.886 0)">
	<stop  offset="0" style="stop-color:#99A8AE;stop-opacity:0"/>
	<stop  offset="0.2114" style="stop-color:#B3BFC4;stop-opacity:0.2114"/>
	<stop  offset="0.5463" style="stop-color:#D6DEE3;stop-opacity:0.5463"/>
	<stop  offset="0.8212" style="stop-color:#EBF1F5;stop-opacity:0.8212"/>
	<stop  offset="1" style="stop-color:#F3F8FC"/>
</linearGradient>
<path class="st1" d="M0,8.07c23.43-6.24,43.18,14.67,64,0v21.95H0V8.07z"/>
<linearGradient id="SVGID_3_" gradientUnits="userSpaceOnUse" x1="32" y1="43.0901" x2="32" y2="15.0667">
	<stop  offset="0" style="stop-color:#99A8AE;stop-opacity:0"/>
	<stop  offset="0.2114" style="stop-color:#B3BFC4;stop-opacity:0.2114"/>
	<stop  offset="0.5463" style="stop-color:#D6DEE3;stop-opacity:0.5463"/>
	<stop  offset="0.8212" style="stop-color:#EBF1F5;stop-opacity:0.8212"/>
	<stop  offset="1" style="stop-color:#F3F8FC"/>
</linearGradient>
<path class="st2" d="M50.93,24.05c-0.92-0.33-1.9-0.52-2.93-0.52c-2.89,0-5.44,1.43-7,3.61c-0.61-0.2-1.27-0.3-1.95-0.3
	c-1.64,0-3.14,0.63-4.27,1.65c-0.91-2.42-3.24-4.15-5.98-4.15c-1.18,0-2.29,0.33-3.24,0.89c-1.55-4.07-5.48-6.96-10.09-6.96
	c-3.67,0-6.91,1.84-8.87,4.64c-1.65-1.76-3.99-2.87-6.6-2.87v23.06h64V15.07C58.03,15.07,52.95,18.8,50.93,24.05z"/>
<linearGradient id="SVGID_4_" gradientUnits="userSpaceOnUse" x1="-454.886" y1="60.9333" x2="-454.886" y2="34.6955" gradientTransform="matrix(-1 0 0 1 -422.886 0)">
	<stop  offset="0" style="stop-color:#99A8AE;stop-opacity:0"/>
	<stop  offset="0.2114" style="stop-color:#B3BFC4;stop-opacity:0.2114"/>
	<stop  offset="0.5463" style="stop-color:#D6DEE3;stop-opacity:0.5463"/>
	<stop  offset="0.8212" style="stop-color:#EBF1F5;stop-opacity:0.8212"/>
	<stop  offset="1" style="stop-color:#F3F8FC"/>
</linearGradient>
<path class="st3" d="M64,35.4v25.54H0V35.4C28.51,50.29,35.76,30.88,64,35.4z"/>
<linearGradient id="SVGID_5_" gradientUnits="userSpaceOnUse" x1="32" y1="64" x2="32" y2="42.9766">
	<stop  offset="0" style="stop-color:#99A8AE;stop-opacity:0"/>
	<stop  offset="0.2114" style="stop-color:#B3BFC4;stop-opacity:0.2114"/>
	<stop  offset="0.5463" style="stop-color:#D6DEE3;stop-opacity:0.5463"/>
	<stop  offset="0.8212" style="stop-color:#EBF1F5;stop-opacity:0.8212"/>
	<stop  offset="1" style="stop-color:#F3F8FC"/>
</linearGradient>
<path class="st4" d="M50.93,51.96c-0.92-0.33-1.9-0.52-2.93-0.52c-2.89,0-5.44,1.43-7,3.61c-0.61-0.2-1.27-0.3-1.95-0.3
	c-1.64,0-3.14,0.63-4.27,1.65c-0.91-2.42-3.24-4.15-5.98-4.15c-1.18,0-2.29,0.33-3.24,0.89c-1.55-4.07-5.48-6.96-10.09-6.96
	c-3.67,0-6.91,1.84-8.87,4.64c-1.65-1.76-3.99-2.87-6.6-2.87V64h64V42.98C58.03,42.98,52.95,46.71,50.93,51.96z"/>
</svg>
