<?xml version="1.0" encoding="utf-8"?>
<!-- Generator: Adobe Illustrator 24.1.2, SVG Export Plug-In . SVG Version: 6.00 Build 0)  -->
<svg version="1.1" id="Layer_1" xmlns="http://www.w3.org/2000/svg" xmlns:xlink="http://www.w3.org/1999/xlink" x="0px" y="0px"
	 width="64px" height="64px" viewBox="0 0 64 64" style="enable-background:new 0 0 64 64;" xml:space="preserve">
<style type="text/css">
	.st0{fill:url(#SVGID_1_);}
	.st1{fill:url(#SVGID_2_);}
	.st2{fill:url(#SVGID_3_);}
	.st3{fill:url(#SVGID_4_);}
	.st4{fill:url(#SVGID_5_);}
	.st5{fill:url(#SVGID_6_);}
	.st6{fill:url(#SVGID_7_);}
	.st7{fill:url(#SVGID_8_);}
	.st8{fill:#00FFFF;}
	.st9{fill:#FFFFFF;}
	.st10{fill:#FF00FF;}
	.st11{fill:#FFFF00;}
</style>
<radialGradient id="SVGID_1_" cx="22.9375" cy="40.125" r="42.9703" gradientUnits="userSpaceOnUse">
	<stop  offset="0" style="stop-color:#0047C9"/>
	<stop  offset="0.131" style="stop-color:#0044C1"/>
	<stop  offset="0.3335" style="stop-color:#003DAB"/>
	<stop  offset="0.5823" style="stop-color:#003088"/>
	<stop  offset="0.8653" style="stop-color:#001F57"/>
	<stop  offset="1" style="stop-color:#00163D"/>
</radialGradient>
<rect x="2" y="2" class="st0" width="60" height="60"/>
<linearGradient id="SVGID_2_" gradientUnits="userSpaceOnUse" x1="58.4329" y1="4.9316" x2="27.6426" y2="34.4389" gradientTransform="matrix(1 0 0 1 1.000000e-04 0)">
	<stop  offset="0" style="stop-color:#FFFDA3"/>
	<stop  offset="0.1294" style="stop-color:#FFF696"/>
	<stop  offset="0.3698" style="stop-color:#FFE373"/>
	<stop  offset="0.692" style="stop-color:#FFC63B"/>
	<stop  offset="1" style="stop-color:#FFA600"/>
</linearGradient>
<path class="st1" d="M23.65,32.31l7.06,6.89c0,0,10.65-21.99,27.6-33.88C38.41,11.5,23.65,32.31,23.65,32.31z"/>
<linearGradient id="SVGID_3_" gradientUnits="userSpaceOnUse" x1="3.6715" y1="42.0369" x2="56.484" y2="3.99">
	<stop  offset="0" style="stop-color:#FFA600"/>
	<stop  offset="0.308" style="stop-color:#FFC63B;stop-opacity:0.692"/>
	<stop  offset="0.6302" style="stop-color:#FFE373;stop-opacity:0.3698"/>
	<stop  offset="0.8706" style="stop-color:#FFF696;stop-opacity:0.1294"/>
	<stop  offset="1" style="stop-color:#FFFDA3;stop-opacity:0"/>
</linearGradient>
<path class="st2" d="M3.92,43.94l7.43-1.1c0,0,16.02-24.61,46.95-37.53C12.06,18.78,3.92,43.94,3.92,43.94z"/>
<linearGradient id="SVGID_4_" gradientUnits="userSpaceOnUse" x1="56.0052" y1="6.4888" x2="16.5068" y2="21.8943" gradientTransform="matrix(1 0 0 1 1.000000e-04 0)">
	<stop  offset="0" style="stop-color:#FFFDA3"/>
	<stop  offset="0.1294" style="stop-color:#FFF696"/>
	<stop  offset="0.3698" style="stop-color:#FFE373"/>
	<stop  offset="0.692" style="stop-color:#FFC63B"/>
	<stop  offset="1" style="stop-color:#FFA600"/>
</linearGradient>
<path class="st3" d="M13.18,23.04l4,4.16c0,0,14.82-18.9,38.22-22.39C28.25,6.26,13.18,23.04,13.18,23.04z"/>
<linearGradient id="SVGID_5_" gradientUnits="userSpaceOnUse" x1="23.3314" y1="52.8943" x2="57.567" y2="8.157">
	<stop  offset="0" style="stop-color:#FFA600"/>
	<stop  offset="0.308" style="stop-color:#FFC63B;stop-opacity:0.692"/>
	<stop  offset="0.6302" style="stop-color:#FFE373;stop-opacity:0.3698"/>
	<stop  offset="0.8706" style="stop-color:#FFF696;stop-opacity:0.1294"/>
	<stop  offset="1" style="stop-color:#FFFDA3;stop-opacity:0"/>
</linearGradient>
<path class="st4" d="M20.2,51.85l1.76,7.96c0,0,18.62-24.08,36.34-54.5C34.29,34.09,20.2,51.85,20.2,51.85z"/>
<linearGradient id="SVGID_6_" gradientUnits="userSpaceOnUse" x1="56.2217" y1="6.0126" x2="38.5421" y2="47.7048" gradientTransform="matrix(1 0 0 1 1.000000e-04 0)">
	<stop  offset="0" style="stop-color:#FFFDA3"/>
	<stop  offset="0.1294" style="stop-color:#FFF696"/>
	<stop  offset="0.3698" style="stop-color:#FFE373"/>
	<stop  offset="0.692" style="stop-color:#FFC63B"/>
	<stop  offset="1" style="stop-color:#FFA600"/>
</linearGradient>
<path class="st5" d="M36.38,45.04l4.9,3.49c0,0,4.39-22.42,18.01-41.07C43.09,22.33,36.38,45.04,36.38,45.04z"/>
<linearGradient id="SVGID_7_" gradientUnits="userSpaceOnUse" x1="34.9944" y1="-10.6506" x2="53.203" y2="-42.188" gradientTransform="matrix(0.866 -0.5 0.5 0.866 -2.366 86.4582)">
	<stop  offset="0" style="stop-color:#FFDD00"/>
	<stop  offset="0.0665" style="stop-color:#FFE00C"/>
	<stop  offset="0.3812" style="stop-color:#FFEB43"/>
	<stop  offset="0.6529" style="stop-color:#FFF46B"/>
	<stop  offset="0.8681" style="stop-color:#FFF983"/>
	<stop  offset="1" style="stop-color:#FFFB8C"/>
</linearGradient>
<path class="st6" d="M13.2,24.63c-0.3-1.37,0.31-1.72,1.35-0.78l9.41,8.55l10.77-6.23c1.25-0.72,1.81-0.24,1.24,1.06l-5.03,11.5
	l9.41,8.53c1.04,0.94,0.72,1.58-0.7,1.42L27.19,47.3l-5.03,11.49c-0.57,1.31-1.28,1.26-1.58-0.11l-2.69-12.42L5.42,44.87
	c-1.42-0.16-1.55-0.88-0.3-1.6l10.78-6.21L13.2,24.63z"/>
<linearGradient id="SVGID_8_" gradientUnits="userSpaceOnUse" x1="22.6139" y1="60.125" x2="22.6139" y2="22.9334" gradientTransform="matrix(1 0 0 1 1.000000e-04 0)">
	<stop  offset="0" style="stop-color:#FFBF00"/>
	<stop  offset="0.0241" style="stop-color:#FFC102"/>
	<stop  offset="0.4344" style="stop-color:#FFDD24"/>
	<stop  offset="0.7744" style="stop-color:#FFEF39"/>
	<stop  offset="1" style="stop-color:#FFF540"/>
</linearGradient>
<path class="st7" d="M21.29,60.13c-0.03,0-0.05,0-0.08,0c-0.34-0.03-0.78-0.3-1.02-1.36l-2.63-12.14L5.38,45.26
	c-1.1-0.12-1.42-0.55-1.49-0.89c-0.07-0.34,0.05-0.87,1.03-1.44l10.53-6.07l-2.63-12.15c-0.23-1.08,0.07-1.5,0.36-1.67
	c0.29-0.17,0.81-0.21,1.63,0.53l9.2,8.36l10.53-6.08c0.98-0.57,1.5-0.41,1.76-0.18c0.26,0.23,0.47,0.72,0.03,1.73l-4.92,11.24
	l9.2,8.35c0.81,0.73,0.81,1.25,0.67,1.56c-0.14,0.31-0.55,0.66-1.67,0.54l-12.18-1.35l-4.92,11.22
	C22.09,59.9,21.63,60.13,21.29,60.13z M13.58,24.54l2.75,12.7L5.31,43.6c-0.57,0.33-0.67,0.56-0.66,0.61
	c0.01,0.04,0.19,0.21,0.81,0.28l12.75,1.42l2.75,12.69c0.12,0.58,0.3,0.74,0.34,0.75c0.04-0.01,0.26-0.14,0.51-0.72l5.15-11.75
	L39.7,48.3c0.63,0.07,0.85-0.05,0.88-0.09c0.01-0.04-0.05-0.27-0.49-0.66l-9.62-8.72l5.14-11.75c0.25-0.57,0.2-0.81,0.17-0.84
	c-0.03-0.03-0.29-0.06-0.86,0.27l-11.02,6.37l-9.62-8.74c-0.5-0.45-0.71-0.42-0.72-0.43C13.57,23.71,13.44,23.89,13.58,24.54
	L13.58,24.54z"/>
<path class="st8" d="M36.38,53.93c0,0.94-1.41,0.94-1.41,0C34.98,53,36.38,53,36.38,53.93z"/>
<path class="st9" d="M47.84,56.59c0,0.94-1.41,0.94-1.41,0C46.43,55.65,47.84,55.65,47.84,56.59z"/>
<path class="st10" d="M50.6,43.56c0,0.94-1.41,0.94-1.41,0C49.2,42.62,50.6,42.62,50.6,43.56z"/>
<path class="st11" d="M58.1,48.75c0,0.94-1.41,0.94-1.41,0C56.7,47.82,58.1,47.82,58.1,48.75z"/>
<path class="st8" d="M57.17,34.43c0,0.94-1.41,0.94-1.41,0C55.76,33.5,57.17,33.5,57.17,34.43z"/>
<path class="st11" d="M53.73,26.22c0,0.94-1.41,0.94-1.41,0C52.32,25.29,53.73,25.29,53.73,26.22z"/>
<path class="st9" d="M39.25,4.49c0,0.94-1.41,0.94-1.41,0C37.85,3.56,39.25,3.56,39.25,4.49z"/>
<path class="st10" d="M57.87,17.45c0,0.94-1.41,0.94-1.41,0C56.46,16.52,57.87,16.52,57.87,17.45z"/>
<path class="st9" d="M11.87,20.69c0,0.94-1.41,0.94-1.41,0C10.47,19.76,11.87,19.76,11.87,20.69z"/>
<path class="st8" d="M6.8,29.25c0,0.94-1.41,0.94-1.41,0C5.4,28.31,6.8,28.31,6.8,29.25z"/>
<path class="st11" d="M11.7,51.79c0,0.94-1.41,0.94-1.41,0C10.29,50.85,11.7,50.85,11.7,51.79z"/>
<path class="st11" d="M7.51,12.49c0,0.94-1.41,0.94-1.41,0C6.1,11.56,7.51,11.56,7.51,12.49z"/>
<path class="st9" d="M23.65,5.84c0,0.94-1.41,0.94-1.41,0C22.24,4.91,23.65,4.91,23.65,5.84z"/>
<path class="st8" d="M18.01,12.49c0,0.94-1.41,0.94-1.41,0C16.61,11.56,18.01,11.56,18.01,12.49z"/>
<path class="st11" d="M31.81,7.03c0,0.94-1.41,0.94-1.41,0C30.41,6.09,31.81,6.09,31.81,7.03z"/>
<path class="st10" d="M12.21,6.19c0,0.94-1.41,0.94-1.41,0C10.81,5.26,12.21,5.26,12.21,6.19z"/>
</svg>
