<?xml version="1.0" encoding="utf-8"?>
<!-- Generator: Adobe Illustrator 15.0.0, SVG Export Plug-In . SVG Version: 6.00 Build 0)  -->
<!DOCTYPE svg PUBLIC "-//W3C//DTD SVG 1.1//EN" "http://www.w3.org/Graphics/SVG/1.1/DTD/svg11.dtd" [
	<!ENTITY ns_flows "http://ns.adobe.com/Flows/1.0/">
	<!ENTITY ns_extend "http://ns.adobe.com/Extensibility/1.0/">
	<!ENTITY ns_ai "http://ns.adobe.com/AdobeIllustrator/10.0/">
	<!ENTITY ns_graphs "http://ns.adobe.com/Graphs/1.0/">
]>
<svg version="1.1" id="Layer_1" xmlns:x="&ns_extend;" xmlns:i="&ns_ai;" xmlns:graph="&ns_graphs;"
	 xmlns="http://www.w3.org/2000/svg" xmlns:xlink="http://www.w3.org/1999/xlink" xmlns:a="http://ns.adobe.com/AdobeSVGViewerExtensions/3.0/"
	 x="0px" y="0px" width="64px" height="64px" viewBox="0 0 64 64" enable-background="new 0 0 64 64" xml:space="preserve">
<linearGradient id="SVGID_1_" gradientUnits="userSpaceOnUse" x1="24.4316" y1="31.8545" x2="6.1816" y2="11.4795">
	<stop  offset="0" style="stop-color:#DBA742"/>
	<stop  offset="0.0989" style="stop-color:#E1AF49"/>
	<stop  offset="0.3971" style="stop-color:#EFC35B"/>
	<stop  offset="0.6972" style="stop-color:#F7CF65"/>
	<stop  offset="1" style="stop-color:#FAD369"/>
	<a:midPointStop  offset="0" style="stop-color:#DBA742"/>
	<a:midPointStop  offset="0.2909" style="stop-color:#DBA742"/>
	<a:midPointStop  offset="1" style="stop-color:#FAD369"/>
</linearGradient>
<path fill="url(#SVGID_1_)" d="M42.404,7.571c-48.15-26.92-46.551,52.381-28.621,53.932C28.031,62.734,42.404,7.571,42.404,7.571z"
	/>
<path opacity="0.3" fill="#CF8A54" d="M5.5,37.761c-1.055,3.141,1.84,4.552,3.965,4.568C11.631,42.35,6.234,35.573,5.5,37.761z"/>
<path opacity="0.3" fill="#CF8A54" d="M5.203,33.035c1.301,2.47,3.012,1.231,3.73-0.24C9.66,31.296,4.295,31.31,5.203,33.035z"/>
<path opacity="0.3" fill="#CF8A54" d="M9.535,22.014c-2.291-0.99-2.504,1.463-1.998,3.285C8.059,27.161,11.137,22.709,9.535,22.014z
	"/>
<path opacity="0.3" fill="#CF8A54" d="M30.492,4.286c-2.291-0.99-2.504,1.463-1.998,3.285C29.016,9.434,32.094,4.981,30.492,4.286z"
	/>
<path opacity="0.3" fill="#CF8A54" d="M19.559,4.244c-1.057,3.131,1.84,4.548,3.963,4.563C25.688,8.824,20.295,2.05,19.559,4.244z"
	/>
<path opacity="0.3" fill="#CF8A54" d="M15.166,13.057c1.299,2.467,3.008,1.228,3.727-0.244
	C19.621,11.314,14.258,11.33,15.166,13.057z"/>
<path opacity="0.3" fill="#CF8A54" d="M16.555,19.05c-2.291-0.989-2.502,1.461-1.998,3.286
	C15.072,24.199,18.154,19.743,16.555,19.05z"/>
<path opacity="0.3" fill="#CF8A54" d="M9.508,13.68c-0.686,2.033,1.193,2.945,2.57,2.958C13.482,16.652,9.984,12.256,9.508,13.68z"
	/>
<path fill="#C76E2F" d="M23.023,29.145c13.338,0,4.031,9.166,4.031,9.166L23.023,29.145z"/>
<path fill="#AB4F16" d="M16.381,35.138c0.973,2.69,10.674,3.173,10.674,3.173s-1.484-9.166-4.031-9.166
	C20.928,29.145,15.648,33.107,16.381,35.138z"/>
<path fill="#AB4F16" d="M24.838,21.791c13.336,0,4.031,9.17,4.031,9.17L24.838,21.791z"/>
<path fill="#C76E2F" d="M18.195,27.785c0.975,2.694,10.674,3.176,10.674,3.176s-1.48-9.17-4.031-9.17
	C22.744,21.791,17.467,25.756,18.195,27.785z"/>
<path fill="#AB4F16" d="M24.574,10.66c14.773,0,4.467,10.16,4.467,10.16L24.574,10.66z"/>
<path fill="#C76E2F" d="M17.215,17.302c1.078,2.984,11.826,3.519,11.826,3.519s-1.643-10.16-4.467-10.16
	C22.254,10.66,16.408,15.053,17.215,17.302z"/>
<path fill="#C76E2F" d="M28.275,19.059c9.293-11.799,10.916,2.818,10.916,2.818L28.275,19.059z"/>
<path fill="#AB4F16" d="M28.951,29.107c3.057,1.015,10.24-7.23,10.24-7.23s-9.143-5.071-10.916-2.818
	C26.816,20.912,26.646,28.339,28.951,29.107z"/>
<path fill="#AB4F16" d="M20.69,33.728c-12.777,0-3.863,8.783-3.863,8.783L20.69,33.728z"/>
<path fill="#C76E2F" d="M28.072,39.47c-0.934,2.578-10.225,3.041-10.225,3.041s1.422-8.783,3.863-8.783
	C23.713,33.728,28.773,37.528,28.072,39.47z"/>
<path fill="#77B516" d="M29.547,8.695c0,0,0.279,2.794,0.676,4.148c-3.35-1.099-3.457-6.625-3.457-6.625s-2.25,1.242-2.043,3.348
	c-3.695-2.743-6.838-1.458-6.838-1.458s4.682,2.431,5.328,4.069c-2.629,0.19-4.162,1.028-5.057,2.979
	c0,0.02,5.199-2.281,9.045-0.623c-1.52,1.143-0.762,4.003-0.762,4.003c6.146-6.01,10.178-0.596,12.818-2.085
	c-2.211-2.832-5.658-3.231-5.658-3.231C32.586,10.539,29.547,8.695,29.547,8.695z"/>
<path fill="#AB4F16" d="M32.945,15.241C28.148-0.566,43.691,7.319,43.691,7.319L32.945,15.241z"/>
<path fill="#C76E2F" d="M17.885,44.018c13.342,0,4.035,8.761,4.035,8.761L17.885,44.018z"/>
<path fill="#AB4F16" d="M11.246,49.745c0.975,2.572,10.674,3.033,10.674,3.033s-1.484-8.761-4.035-8.761
	C15.793,44.018,10.516,47.804,11.246,49.745z"/>
<path fill="#AB4F16" d="M21.242,39.05c10.416,0,3.146,7.155,3.146,7.155L21.242,39.05z"/>
<path fill="#C76E2F" d="M16.057,43.729c0.762,2.104,8.332,2.477,8.332,2.477s-1.156-7.155-3.146-7.155
	C19.607,39.05,15.484,42.146,16.057,43.729z"/>
<path fill="#AB4F16" d="M15.713,49.481c-15.004,0-4.535,10.312-4.535,10.312L15.713,49.481z"/>
<path fill="#C76E2F" d="M23.186,56.223c-1.1,3.029-12.008,3.57-12.008,3.57s1.672-10.312,4.535-10.312
	C18.063,49.481,24.008,53.942,23.186,56.223z"/>
<linearGradient id="SVGID_2_" gradientUnits="userSpaceOnUse" x1="28.8965" y1="270.582" x2="37.8496" y2="270.582" gradientTransform="matrix(0.6294 0.97 -0.9469 0.6257 250.8691 -183.4418)">
	<stop  offset="0" style="stop-color:#FF75E1"/>
	<stop  offset="0.1738" style="stop-color:#FB71DE"/>
	<stop  offset="0.3619" style="stop-color:#F164D3"/>
	<stop  offset="0.5569" style="stop-color:#DF4EC2"/>
	<stop  offset="0.7564" style="stop-color:#C630AA"/>
	<stop  offset="0.9577" style="stop-color:#A6098B"/>
	<stop  offset="1" style="stop-color:#9E0084"/>
	<a:midPointStop  offset="0" style="stop-color:#FF75E1"/>
	<a:midPointStop  offset="0.6909" style="stop-color:#FF75E1"/>
	<a:midPointStop  offset="1" style="stop-color:#9E0084"/>
</linearGradient>
<path fill="url(#SVGID_2_)" d="M12.615,25.16c-0.606,0.129-2.081-0.872-1.475-0.999c6.011-1.263,10.571-5.099,6.588-12.427
	c-0.323-0.598,0.999-2.188,1.313-1.585C24.438,20.51,17.549,24.109,12.615,25.16z"/>
<linearGradient id="SVGID_3_" gradientUnits="userSpaceOnUse" x1="114.248" y1="356.251" x2="120.3857" y2="356.251" gradientTransform="matrix(0.0213 1.1561 -1.1345 0.0303 428.3233 -137.1085)">
	<stop  offset="0" style="stop-color:#FF75E1"/>
	<stop  offset="0.1738" style="stop-color:#FB71DE"/>
	<stop  offset="0.3619" style="stop-color:#F164D3"/>
	<stop  offset="0.5569" style="stop-color:#DF4EC2"/>
	<stop  offset="0.7564" style="stop-color:#C630AA"/>
	<stop  offset="0.9577" style="stop-color:#A6098B"/>
	<stop  offset="1" style="stop-color:#9E0084"/>
	<a:midPointStop  offset="0" style="stop-color:#FF75E1"/>
	<a:midPointStop  offset="0.6909" style="stop-color:#FF75E1"/>
	<a:midPointStop  offset="1" style="stop-color:#9E0084"/>
</linearGradient>
<path fill="url(#SVGID_3_)" d="M22.349,12.256c-0.399-0.146-0.895-1.263-0.496-1.116c3.955,1.443,8,0.866,8.339-4.843
	c0.029-0.465,1.374-0.909,1.338-0.445C30.913,13.835,25.601,13.433,22.349,12.256z"/>
<path fill="#77B516" d="M7.355,28.761c2.205,1.371,4.266,1.299,6.943-0.052c0.502,1.967-2.373,7.052-2.373,7.052
	s3.928-0.582,5.627-5.398c1.244,2.163,4.277,2.067,4.277,2.067s-3.689-5.432-1.191-8.446c0.545,1.556,2.189,4.427,2.189,4.427
	s1.67-3.556,0.834-6.756c0,0,3.066-2.387,3.26-6.413c-3.57,0.08-3.781,7.68-13.855,5.421c0,0,1.227,3.215,3.482,3.439
	C13.957,27.949,7.348,28.738,7.355,28.761z"/>
<polygon fill="#FFE8BB" points="27.01,36.265 26.275,37.446 23.369,37.58 22.668,35.113 23.947,33.933 26.168,34.995 "/>
<linearGradient id="SVGID_4_" gradientUnits="userSpaceOnUse" x1="-0.3306" y1="336.4023" x2="5.8911" y2="336.4023" gradientTransform="matrix(0.3586 0.837 -0.9307 0.3548 327.1891 -92.8831)">
	<stop  offset="0" style="stop-color:#FF75E1"/>
	<stop  offset="0.1738" style="stop-color:#FB71DE"/>
	<stop  offset="0.3619" style="stop-color:#F164D3"/>
	<stop  offset="0.5569" style="stop-color:#DF4EC2"/>
	<stop  offset="0.7564" style="stop-color:#C630AA"/>
	<stop  offset="0.9577" style="stop-color:#A6098B"/>
	<stop  offset="1" style="stop-color:#9E0084"/>
	<a:midPointStop  offset="0" style="stop-color:#FF75E1"/>
	<a:midPointStop  offset="0.6909" style="stop-color:#FF75E1"/>
	<a:midPointStop  offset="1" style="stop-color:#9E0084"/>
</linearGradient>
<path fill="url(#SVGID_4_)" d="M12.378,32.237c-0.38,0.011-1.13-0.667-0.752-0.679c3.753-0.106,6.975-1.736,5.553-6.059
	c-0.115-0.352,0.882-1.081,0.989-0.727C20.038,30.857,15.458,32.14,12.378,32.237z"/>
<polygon fill="#FFE8BB" points="19.17,35.112 18.355,36.428 15.121,36.576 14.336,33.832 15.766,32.518 18.232,33.7 "/>
<polygon fill="#FFE8BB" points="17.988,48.104 20.971,49.618 20.33,52.729 18.219,53.301 16.357,50.872 15.871,48.577 "/>
<path fill="#529320" d="M21.926,17.249c-1.973-2.563-4.912-1.101-6.223,0.542C14.367,19.46,23.299,19.037,21.926,17.249z"/>
<path fill="#529320" d="M40.438,4.945c-4.461-0.569-4.48,2.591-3.246,4.747C38.451,11.882,43.557,5.344,40.438,4.945z"/>
<path fill="#529320" d="M24.52,48.238c3.48-1.926,0.484-4.32-2.377-5.291C19.219,41.959,22.086,49.58,24.52,48.238z"/>
<path fill="#529320" d="M16.529,50.278c-3.076-4.011-7.686-1.722-9.734,0.85C4.705,53.747,18.686,53.086,16.529,50.278z"/>
<path fill="#77B516" d="M17.822,54.028c-4.455-0.568-4.473,2.59-3.238,4.744C15.842,60.965,20.943,54.425,17.822,54.028z"/>
<linearGradient id="SVGID_5_" gradientUnits="userSpaceOnUse" x1="43.2861" y1="43.5117" x2="26.1197" y2="23.5124">
	<stop  offset="0" style="stop-color:#EBB447"/>
	<stop  offset="0.3155" style="stop-color:#F3C559"/>
	<stop  offset="0.6559" style="stop-color:#F8CF65"/>
	<stop  offset="1" style="stop-color:#FAD369"/>
	<a:midPointStop  offset="0" style="stop-color:#EBB447"/>
	<a:midPointStop  offset="0.2909" style="stop-color:#EBB447"/>
	<a:midPointStop  offset="1" style="stop-color:#FAD369"/>
</linearGradient>
<path fill="url(#SVGID_5_)" d="M58.207,30.039c7.348-6.479,3.277-22.41-5.848-25.195c-24.531-7.486-17.068,46.2-37.773,57.048
	C21.387,62.104,26.889,57.664,58.207,30.039z"/>
<path fill="#FFE091" d="M52.359,4.844C27.455,1.825,34.785,62,13.754,62c-6.498,0-14.74-15.795-10.67-36.919
	C0.135,45.112,8.201,59.659,13.141,59.659C30.615,59.659,26.443-3.919,52.359,4.844z"/>
<polygon fill="#FFE8BB" points="12.975,54.151 12.225,56.438 9.598,56.497 8.797,55.143 10.467,53.479 12.252,52.777 "/>
<linearGradient id="SVGID_6_" gradientUnits="userSpaceOnUse" x1="6.1294" y1="332.3965" x2="11.7837" y2="332.3965" gradientTransform="matrix(0.3586 0.837 -0.9307 0.3548 327.1891 -92.8831)">
	<stop  offset="0" style="stop-color:#FFA8EC"/>
	<stop  offset="0.1433" style="stop-color:#FEA4EA"/>
	<stop  offset="0.2985" style="stop-color:#FA97E5"/>
	<stop  offset="0.4593" style="stop-color:#F481DD"/>
	<stop  offset="0.624" style="stop-color:#EB63D2"/>
	<stop  offset="0.7916" style="stop-color:#E03CC3"/>
	<stop  offset="0.9595" style="stop-color:#D30DB1"/>
	<stop  offset="1" style="stop-color:#CF00AC"/>
	<a:midPointStop  offset="0" style="stop-color:#FFA8EC"/>
	<a:midPointStop  offset="0.6909" style="stop-color:#FFA8EC"/>
	<a:midPointStop  offset="1" style="stop-color:#CF00AC"/>
</linearGradient>
<path fill="url(#SVGID_6_)" d="M18.568,35.672c-0.345,0.01-1.026-0.606-0.683-0.617c3.41-0.097,6.338-1.577,5.046-5.506
	c-0.104-0.319,0.802-0.982,0.899-0.66C25.53,34.418,21.368,35.583,18.568,35.672z"/>
<linearGradient id="SVGID_7_" gradientUnits="userSpaceOnUse" x1="395.3994" y1="467.8623" x2="402.6084" y2="467.8623" gradientTransform="matrix(-1.0093 0.2032 -0.2508 -0.7289 538.0943 278.8668)">
	<stop  offset="0" style="stop-color:#FFA8EC"/>
	<stop  offset="0.1433" style="stop-color:#FEA4EA"/>
	<stop  offset="0.2985" style="stop-color:#FA97E5"/>
	<stop  offset="0.4593" style="stop-color:#F481DD"/>
	<stop  offset="0.624" style="stop-color:#EB63D2"/>
	<stop  offset="0.7916" style="stop-color:#E03CC3"/>
	<stop  offset="0.9595" style="stop-color:#D30DB1"/>
	<stop  offset="1" style="stop-color:#CF00AC"/>
	<a:midPointStop  offset="0" style="stop-color:#FFA8EC"/>
	<a:midPointStop  offset="0.6909" style="stop-color:#FFA8EC"/>
	<a:midPointStop  offset="1" style="stop-color:#CF00AC"/>
</linearGradient>
<path fill="url(#SVGID_7_)" d="M14.03,16.228c0.056-0.331,1.091-0.922,1.034-0.59c-0.569,3.282,0.965,6.243,6.922,5.402
	c0.485-0.069,1.256,0.867,0.771,0.931C14.393,23.039,13.574,18.924,14.03,16.228z"/>
<path opacity="0.3" fill="#CF8A54" d="M33.416,31.866c-1.053,3.141,1.84,4.552,3.967,4.568
	C39.547,36.455,34.152,29.679,33.416,31.866z"/>
<path opacity="0.3" fill="#CF8A54" d="M39.766,41.159c1.299,2.47,3.01,1.231,3.73-0.24C44.223,39.42,38.857,39.434,39.766,41.159z"
	/>
<path opacity="0.3" fill="#CF8A54" d="M44.098,30.138c-2.291-0.99-2.504,1.463-1.998,3.285
	C42.619,35.285,45.699,30.833,44.098,30.138z"/>
<path opacity="0.3" fill="#CF8A54" d="M46.768,10.453c-1.055,3.131,1.84,4.548,3.965,4.563
	C52.896,15.033,47.506,8.259,46.768,10.453z"/>
<path opacity="0.3" fill="#CF8A54" d="M49.729,21.181c1.299,2.467,3.008,1.228,3.725-0.244
	C54.184,19.438,48.818,19.454,49.729,21.181z"/>
<path opacity="0.3" fill="#CF8A54" d="M31.348,45.482c1.299,2.467,3.008,1.228,3.727-0.244
	C35.803,43.74,30.439,43.756,31.348,45.482z"/>
<path opacity="0.3" fill="#CF8A54" d="M51.117,27.174c-2.291-0.989-2.504,1.461-2,3.286C49.635,32.323,52.717,27.867,51.117,27.174z
	"/>
<path opacity="0.3" fill="#CF8A54" d="M41.576,18.844c-0.684,2.033,1.193,2.945,2.57,2.958
	C45.553,21.816,42.053,17.42,41.576,18.844z"/>
<path opacity="0.3" fill="#CF8A54" d="M54.646,12.618c0.842,1.597,1.951,0.795,2.418-0.16
	C57.537,11.481,54.057,11.498,54.646,12.618z"/>
<path opacity="0.3" fill="#CF8A54" d="M58.885,21.751c-1.484-0.642-1.623,0.949-1.295,2.135
	C57.928,25.091,59.924,22.202,58.885,21.751z"/>
<path fill="#77B516" d="M26.34,41.777c-1.57-1.75-3.422-2.181-6.189-1.625c0.113-1.869,4.119-5.7,4.119-5.7
	s-3.658-0.428-6.541,3.447c-0.492-2.223-3.215-2.868-3.215-2.868s1.732,5.718-1.348,7.799c-0.041-1.514-0.688-4.464-0.688-4.464
	s-2.496,2.761-2.664,5.807c0,0-3.406,1.386-4.729,4.92c3.201,0.787,5.551-5.922,13.867-1.487c0,0-0.172-3.153-2.117-3.897
	C20.236,40.91,26.34,41.8,26.34,41.777z"/>
<linearGradient id="SVGID_8_" gradientUnits="userSpaceOnUse" x1="18.1909" y1="30.9111" x2="27.1445" y2="30.9111">
	<stop  offset="0" style="stop-color:#FFA8EC"/>
	<stop  offset="0.1433" style="stop-color:#FEA4EA"/>
	<stop  offset="0.2985" style="stop-color:#FA97E5"/>
	<stop  offset="0.4593" style="stop-color:#F481DD"/>
	<stop  offset="0.624" style="stop-color:#EB63D2"/>
	<stop  offset="0.7916" style="stop-color:#E03CC3"/>
	<stop  offset="0.9595" style="stop-color:#D30DB1"/>
	<stop  offset="1" style="stop-color:#CF00AC"/>
	<a:midPointStop  offset="0" style="stop-color:#FFA8EC"/>
	<a:midPointStop  offset="0.6909" style="stop-color:#FFA8EC"/>
	<a:midPointStop  offset="1" style="stop-color:#CF00AC"/>
</linearGradient>
<path fill="url(#SVGID_8_)" d="M26.215,36.485c-0.196,0.51-1.621,1.12-1.424,0.61c1.955-5.048,1.361-10.259-5.826-10.829
	c-0.585-0.047-1.102-1.787-0.518-1.73C28.496,25.517,27.809,32.335,26.215,36.485z"/>
<linearGradient id="SVGID_9_" gradientUnits="userSpaceOnUse" x1="40.1416" y1="302.2715" x2="45.9629" y2="302.2715" gradientTransform="matrix(0.4315 1.0204 -1.1092 0.4279 340.5147 -148.0417)">
	<stop  offset="0" style="stop-color:#FFA8EC"/>
	<stop  offset="0.1433" style="stop-color:#FEA4EA"/>
	<stop  offset="0.2985" style="stop-color:#FA97E5"/>
	<stop  offset="0.4593" style="stop-color:#F481DD"/>
	<stop  offset="0.624" style="stop-color:#EB63D2"/>
	<stop  offset="0.7916" style="stop-color:#E03CC3"/>
	<stop  offset="0.9595" style="stop-color:#D30DB1"/>
	<stop  offset="1" style="stop-color:#CF00AC"/>
	<a:midPointStop  offset="0" style="stop-color:#FFA8EC"/>
	<a:midPointStop  offset="0.6909" style="stop-color:#FFA8EC"/>
	<a:midPointStop  offset="1" style="stop-color:#CF00AC"/>
</linearGradient>
<path fill="url(#SVGID_9_)" d="M20.789,29.136c-0.424,0.011-1.265-0.765-0.841-0.776c4.189-0.106,7.78-1.95,6.176-6.879
	c-0.13-0.401,0.981-1.228,1.102-0.823C29.339,27.594,24.229,29.036,20.789,29.136z"/>
<linearGradient id="SVGID_10_" gradientUnits="userSpaceOnUse" x1="31.374" y1="291.9043" x2="37.1953" y2="291.9043" gradientTransform="matrix(0.4315 1.0204 -1.1092 0.4279 340.5147 -148.0417)">
	<stop  offset="0" style="stop-color:#FFA8EC"/>
	<stop  offset="0.1433" style="stop-color:#FEA4EA"/>
	<stop  offset="0.2985" style="stop-color:#FA97E5"/>
	<stop  offset="0.4593" style="stop-color:#F481DD"/>
	<stop  offset="0.624" style="stop-color:#EB63D2"/>
	<stop  offset="0.7916" style="stop-color:#E03CC3"/>
	<stop  offset="0.9595" style="stop-color:#D30DB1"/>
	<stop  offset="1" style="stop-color:#CF00AC"/>
	<a:midPointStop  offset="0" style="stop-color:#FFA8EC"/>
	<a:midPointStop  offset="0.6909" style="stop-color:#FFA8EC"/>
	<a:midPointStop  offset="1" style="stop-color:#CF00AC"/>
</linearGradient>
<path fill="url(#SVGID_10_)" d="M28.507,15.753c-0.424,0.011-1.265-0.765-0.841-0.776c4.189-0.106,7.78-1.95,6.176-6.879
	c-0.13-0.401,0.981-1.228,1.102-0.823C37.057,14.211,31.947,15.653,28.507,15.753z"/>
<linearGradient id="SVGID_11_" gradientUnits="userSpaceOnUse" x1="42.6846" y1="1.5059" x2="48.3379" y2="1.5059" gradientTransform="matrix(0.2434 1.0756 1.1692 -0.3374 8.5298 -30.9155)">
	<stop  offset="0" style="stop-color:#FF75E1"/>
	<stop  offset="0.1738" style="stop-color:#FB71DE"/>
	<stop  offset="0.3619" style="stop-color:#F164D3"/>
	<stop  offset="0.5569" style="stop-color:#DF4EC2"/>
	<stop  offset="0.7564" style="stop-color:#C630AA"/>
	<stop  offset="0.9577" style="stop-color:#A6098B"/>
	<stop  offset="1" style="stop-color:#9E0084"/>
	<a:midPointStop  offset="0" style="stop-color:#FF75E1"/>
	<a:midPointStop  offset="0.6909" style="stop-color:#FF75E1"/>
	<a:midPointStop  offset="1" style="stop-color:#9E0084"/>
</linearGradient>
<path fill="url(#SVGID_11_)" d="M26.027,18.752c0.346-0.244,0.579-1.342,0.232-1.101c-3.427,2.405-7.364,3.113-8.892-1.648
	c-0.124-0.387-1.489-0.367-1.356,0.018C18.278,22.636,23.207,20.717,26.027,18.752z"/>
<linearGradient id="SVGID_12_" gradientUnits="userSpaceOnUse" x1="-15.3281" y1="312.4492" x2="-8.8262" y2="312.4492" gradientTransform="matrix(0.3586 0.837 -0.9307 0.3548 327.1891 -92.8831)">
	<stop  offset="0" style="stop-color:#FFA8EC"/>
	<stop  offset="0.1433" style="stop-color:#FEA4EA"/>
	<stop  offset="0.2985" style="stop-color:#FA97E5"/>
	<stop  offset="0.4593" style="stop-color:#F481DD"/>
	<stop  offset="0.624" style="stop-color:#EB63D2"/>
	<stop  offset="0.7916" style="stop-color:#E03CC3"/>
	<stop  offset="0.9595" style="stop-color:#D30DB1"/>
	<stop  offset="1" style="stop-color:#CF00AC"/>
	<a:midPointStop  offset="0" style="stop-color:#FFA8EC"/>
	<a:midPointStop  offset="0.6909" style="stop-color:#FFA8EC"/>
	<a:midPointStop  offset="1" style="stop-color:#CF00AC"/>
</linearGradient>
<path fill="url(#SVGID_12_)" d="M29.219,11.459c-0.396,0.011-1.18-0.697-0.784-0.71c3.921-0.111,7.288-1.813,5.803-6.332
	c-0.12-0.367,0.922-1.13,1.034-0.759C37.226,10.017,32.438,11.356,29.219,11.459z"/>
<linearGradient id="SVGID_13_" gradientUnits="userSpaceOnUse" x1="387.4199" y1="468.3984" x2="394.6289" y2="468.3984" gradientTransform="matrix(-1.0093 0.2032 -0.2508 -0.7289 538.0943 278.8668)">
	<stop  offset="0" style="stop-color:#FFA8EC"/>
	<stop  offset="0.1433" style="stop-color:#FEA4EA"/>
	<stop  offset="0.2985" style="stop-color:#FA97E5"/>
	<stop  offset="0.4593" style="stop-color:#F481DD"/>
	<stop  offset="0.624" style="stop-color:#EB63D2"/>
	<stop  offset="0.7916" style="stop-color:#E03CC3"/>
	<stop  offset="0.9595" style="stop-color:#D30DB1"/>
	<stop  offset="1" style="stop-color:#CF00AC"/>
	<a:midPointStop  offset="0" style="stop-color:#FFA8EC"/>
	<a:midPointStop  offset="0.6909" style="stop-color:#FFA8EC"/>
	<a:midPointStop  offset="1" style="stop-color:#CF00AC"/>
</linearGradient>
<path fill="url(#SVGID_13_)" d="M21.949,14.215c0.056-0.331,1.091-0.922,1.034-0.59c-0.569,3.282,0.965,6.243,6.922,5.402
	c0.485-0.069,1.256,0.867,0.771,0.931C22.312,21.026,21.493,16.911,21.949,14.215z"/>
<linearGradient id="SVGID_14_" gradientUnits="userSpaceOnUse" x1="297.5801" y1="-81.7783" x2="304.7881" y2="-81.7783" gradientTransform="matrix(0.3601 -1.0335 0.8524 0.2032 -17.5709 353.1969)">
	<stop  offset="0" style="stop-color:#FFA8EC"/>
	<stop  offset="0.1433" style="stop-color:#FEA4EA"/>
	<stop  offset="0.2985" style="stop-color:#FA97E5"/>
	<stop  offset="0.4593" style="stop-color:#F481DD"/>
	<stop  offset="0.624" style="stop-color:#EB63D2"/>
	<stop  offset="0.7916" style="stop-color:#E03CC3"/>
	<stop  offset="0.9595" style="stop-color:#D30DB1"/>
	<stop  offset="1" style="stop-color:#CF00AC"/>
	<a:midPointStop  offset="0" style="stop-color:#FFA8EC"/>
	<a:midPointStop  offset="0.6909" style="stop-color:#FFA8EC"/>
	<a:midPointStop  offset="1" style="stop-color:#CF00AC"/>
</linearGradient>
<path fill="url(#SVGID_14_)" d="M26.034,23.266c0.293,0.246,0.298,1.532,0.004,1.285c-2.898-2.453-6.646-2.812-9.122,3.076
	c-0.2,0.479-1.544,0.624-1.337,0.146C19.165,19.574,23.646,21.262,26.034,23.266z"/>
<linearGradient id="SVGID_15_" gradientUnits="userSpaceOnUse" x1="313.3545" y1="-80.1006" x2="320.5625" y2="-80.1006" gradientTransform="matrix(0.3601 -1.0335 0.8524 0.2032 -17.5709 353.1969)">
	<stop  offset="0" style="stop-color:#FFA8EC"/>
	<stop  offset="0.1433" style="stop-color:#FEA4EA"/>
	<stop  offset="0.2985" style="stop-color:#FA97E5"/>
	<stop  offset="0.4593" style="stop-color:#F481DD"/>
	<stop  offset="0.624" style="stop-color:#EB63D2"/>
	<stop  offset="0.7916" style="stop-color:#E03CC3"/>
	<stop  offset="0.9595" style="stop-color:#D30DB1"/>
	<stop  offset="1" style="stop-color:#CF00AC"/>
	<a:midPointStop  offset="0" style="stop-color:#FFA8EC"/>
	<a:midPointStop  offset="0.6909" style="stop-color:#FFA8EC"/>
	<a:midPointStop  offset="1" style="stop-color:#CF00AC"/>
</linearGradient>
<path fill="url(#SVGID_15_)" d="M33.145,7.304c0.293,0.246,0.298,1.532,0.004,1.285c-2.898-2.453-6.646-2.812-9.122,3.076
	c-0.2,0.479-1.544,0.624-1.337,0.146C26.275,3.612,30.757,5.3,33.145,7.304z"/>
<linearGradient id="SVGID_16_" gradientUnits="userSpaceOnUse" x1="381.5215" y1="473.7588" x2="388.7305" y2="473.7588" gradientTransform="matrix(-1.0093 0.2032 -0.2508 -0.7289 538.0943 278.8668)">
	<stop  offset="0" style="stop-color:#FF75E1"/>
	<stop  offset="0.1738" style="stop-color:#FB71DE"/>
	<stop  offset="0.3619" style="stop-color:#F164D3"/>
	<stop  offset="0.5569" style="stop-color:#DF4EC2"/>
	<stop  offset="0.7564" style="stop-color:#C630AA"/>
	<stop  offset="0.9577" style="stop-color:#A6098B"/>
	<stop  offset="1" style="stop-color:#9E0084"/>
	<a:midPointStop  offset="0" style="stop-color:#FF75E1"/>
	<a:midPointStop  offset="0.6909" style="stop-color:#FF75E1"/>
	<a:midPointStop  offset="1" style="stop-color:#9E0084"/>
</linearGradient>
<path fill="url(#SVGID_16_)" d="M26.559,9.109c0.056-0.331,1.091-0.922,1.034-0.59c-0.569,3.282,0.965,6.243,6.922,5.402
	c0.485-0.069,1.256,0.867,0.771,0.931C26.921,15.921,26.103,11.806,26.559,9.109z"/>
<linearGradient id="SVGID_17_" gradientUnits="userSpaceOnUse" x1="21.9829" y1="18.4814" x2="30.9365" y2="18.4814">
	<stop  offset="0" style="stop-color:#FFA8EC"/>
	<stop  offset="0.1433" style="stop-color:#FEA4EA"/>
	<stop  offset="0.2985" style="stop-color:#FA97E5"/>
	<stop  offset="0.4593" style="stop-color:#F481DD"/>
	<stop  offset="0.624" style="stop-color:#EB63D2"/>
	<stop  offset="0.7916" style="stop-color:#E03CC3"/>
	<stop  offset="0.9595" style="stop-color:#D30DB1"/>
	<stop  offset="1" style="stop-color:#CF00AC"/>
	<a:midPointStop  offset="0" style="stop-color:#FFA8EC"/>
	<a:midPointStop  offset="0.6909" style="stop-color:#FFA8EC"/>
	<a:midPointStop  offset="1" style="stop-color:#CF00AC"/>
</linearGradient>
<path fill="url(#SVGID_17_)" d="M30.007,24.056c-0.196,0.51-1.621,1.12-1.424,0.61c1.955-5.048,1.361-10.259-5.826-10.829
	c-0.585-0.047-1.102-1.787-0.518-1.73C32.288,13.087,31.601,19.905,30.007,24.056z"/>
<polygon fill="#FFE8BB" points="28.707,26.875 27.957,29.161 25.33,29.221 24.529,27.866 26.201,26.202 27.984,25.501 "/>
<polygon fill="#FFE8BB" points="34.443,12.943 33.627,14.259 30.393,14.407 29.609,11.663 31.033,10.349 33.506,11.53 "/>
<polygon fill="#FFE8BB" points="26.997,20.759 26.167,22.104 22.862,22.251 22.062,19.451 23.519,18.11 26.04,19.316 "/>
</svg>
