<?xml version="1.0" encoding="utf-8"?>
<!-- Generator: Adobe Illustrator 24.1.2, SVG Export Plug-In . SVG Version: 6.00 Build 0)  -->
<svg version="1.1" id="Layer_1" xmlns="http://www.w3.org/2000/svg" xmlns:xlink="http://www.w3.org/1999/xlink" x="0px" y="0px"
	 width="64px" height="64px" viewBox="0 0 64 64" style="enable-background:new 0 0 64 64;" xml:space="preserve">
<style type="text/css">
	.st0{fill:url(#SVGID_1_);}
	.st1{fill:url(#SVGID_2_);}
	.st2{fill:url(#SVGID_3_);}
	.st3{fill:url(#SVGID_4_);}
	.st4{fill:url(#SVGID_5_);}
	.st5{fill:url(#SVGID_6_);}
	.st6{fill:url(#SVGID_7_);}
	.st7{fill:url(#SVGID_8_);}
</style>
<radialGradient id="SVGID_1_" cx="30.835" cy="46.9542" r="13.4842" fx="26.0044" fy="46.9894" gradientTransform="matrix(0.9977 0 0 1.1804 0.5879 -8.3453)" gradientUnits="userSpaceOnUse">
	<stop  offset="0" style="stop-color:#FAF2F0"/>
	<stop  offset="0.1924" style="stop-color:#F6ECE4"/>
	<stop  offset="0.5404" style="stop-color:#EDDCC4"/>
	<stop  offset="1" style="stop-color:#DEC291"/>
</radialGradient>
<path class="st0" d="M43.93,52.7c0.65,12.39-24.83,12.39-24.17,0c0.21-4.08,3.42-12.17,3.42-16.25c0-8.12,17.33-7.75,17.33,0
	C40.5,40.53,43.71,48.63,43.93,52.7z"/>
<linearGradient id="SVGID_2_" gradientUnits="userSpaceOnUse" x1="31.8413" y1="62" x2="31.8413" y2="30.5021">
	<stop  offset="0.3636" style="stop-color:#BD9D62;stop-opacity:0"/>
	<stop  offset="0.7576" style="stop-color:#BD9D62"/>
</linearGradient>
<path class="st1" d="M43.93,52.7c0.65,12.39-24.83,12.39-24.17,0c0.21-4.08,3.42-12.17,3.42-16.25c0-8.12,17.33-7.75,17.33,0
	C40.5,40.53,43.71,48.63,43.93,52.7z"/>
<radialGradient id="SVGID_3_" cx="23.417" cy="14.6106" r="30.101" gradientTransform="matrix(0.9977 0 0 0.6957 0.5879 4.5732)" gradientUnits="userSpaceOnUse">
	<stop  offset="0" style="stop-color:#FF3B3B"/>
	<stop  offset="0.2816" style="stop-color:#FC3838"/>
	<stop  offset="0.5284" style="stop-color:#F32D2D"/>
	<stop  offset="0.7622" style="stop-color:#E31B1B"/>
	<stop  offset="0.9869" style="stop-color:#CD0302"/>
	<stop  offset="1" style="stop-color:#CC0100"/>
</radialGradient>
<path class="st2" d="M32.14,2C15.49,2,2,14.49,2,27.7c0,13.72,59.87,13.7,59.87-0.02C61.87,14.47,48.79,2,32.14,2z"/>
<radialGradient id="SVGID_4_" cx="22.7191" cy="5.6524" r="41.332" gradientTransform="matrix(0.9977 0 0 1 0.5879 0.1271)" gradientUnits="userSpaceOnUse">
	<stop  offset="0" style="stop-color:#FFEFEB"/>
	<stop  offset="0.3494" style="stop-color:#FDECE8"/>
	<stop  offset="0.601" style="stop-color:#F6E4DF"/>
	<stop  offset="0.8212" style="stop-color:#EBD6CF"/>
	<stop  offset="1" style="stop-color:#DEC5BC"/>
</radialGradient>
<path class="st3" d="M27.98,4.22c-0.47-0.69-0.96-1.26-1.55-1.73c-5.18,0.58-11.28,3.33-14.26,6.29
	C10.39,15.72,32.97,11.48,27.98,4.22z"/>
<radialGradient id="SVGID_5_" cx="22.7187" cy="5.6515" r="41.3329" gradientTransform="matrix(0.9977 0 0 1 0.5879 0.1271)" gradientUnits="userSpaceOnUse">
	<stop  offset="0" style="stop-color:#FFEFEB"/>
	<stop  offset="0.3494" style="stop-color:#FDECE8"/>
	<stop  offset="0.601" style="stop-color:#F6E4DF"/>
	<stop  offset="0.8212" style="stop-color:#EBD6CF"/>
	<stop  offset="1" style="stop-color:#DEC5BC"/>
</radialGradient>
<path class="st4" d="M40.33,23.09c1.5,9.82-19.3,10.7-16.98,0.18C25.31,14.37,39.13,15.18,40.33,23.09z"/>
<radialGradient id="SVGID_6_" cx="22.722" cy="5.6524" r="41.3278" gradientTransform="matrix(0.9977 0 0 1 0.5879 0.1271)" gradientUnits="userSpaceOnUse">
	<stop  offset="0" style="stop-color:#FFEFEB"/>
	<stop  offset="0.3494" style="stop-color:#FDECE8"/>
	<stop  offset="0.601" style="stop-color:#F6E4DF"/>
	<stop  offset="0.8212" style="stop-color:#EBD6CF"/>
	<stop  offset="1" style="stop-color:#DEC5BC"/>
</radialGradient>
<path class="st5" d="M53.96,14.82c-1.47,5.27-14.22-2.97-8.79-6.16C49.26,6.25,54.83,11.7,53.96,14.82z"/>
<radialGradient id="SVGID_7_" cx="22.7165" cy="5.6515" r="41.3317" gradientTransform="matrix(0.9977 0 0 1 0.5879 0.1271)" gradientUnits="userSpaceOnUse">
	<stop  offset="0" style="stop-color:#FFEFEB"/>
	<stop  offset="0.3494" style="stop-color:#FDECE8"/>
	<stop  offset="0.601" style="stop-color:#F6E4DF"/>
	<stop  offset="0.8212" style="stop-color:#EBD6CF"/>
	<stop  offset="1" style="stop-color:#DEC5BC"/>
</radialGradient>
<path class="st6" d="M15.01,24.38c-1.87,9.38-13.75,9.31-11.91-0.07C5.17,13.79,16.75,15.63,15.01,24.38z"/>
<radialGradient id="SVGID_8_" cx="22.719" cy="5.6533" r="41.3312" gradientTransform="matrix(0.9977 0 0 1 0.5879 0.1271)" gradientUnits="userSpaceOnUse">
	<stop  offset="0" style="stop-color:#FFEFEB"/>
	<stop  offset="0.3494" style="stop-color:#FDECE8"/>
	<stop  offset="0.601" style="stop-color:#F6E4DF"/>
	<stop  offset="0.8212" style="stop-color:#EBD6CF"/>
	<stop  offset="1" style="stop-color:#DEC5BC"/>
</radialGradient>
<path class="st7" d="M61.96,28.24c0.13-1.44-0.08-3.32-0.48-4.52c-3.03-2.54-9.06-1.26-10.46,5.87c-0.54,2.74,0.12,4.71,1.33,5.86
	C57.64,34.03,61.64,31.66,61.96,28.24z"/>
</svg>
