<?xml version="1.0" encoding="utf-8"?>
<!-- Generator: Adobe Illustrator 15.0.0, SVG Export Plug-In . SVG Version: 6.00 Build 0)  -->
<!DOCTYPE svg PUBLIC "-//W3C//DTD SVG 1.1//EN" "http://www.w3.org/Graphics/SVG/1.1/DTD/svg11.dtd" [
	<!ENTITY ns_flows "http://ns.adobe.com/Flows/1.0/">
	<!ENTITY ns_extend "http://ns.adobe.com/Extensibility/1.0/">
	<!ENTITY ns_ai "http://ns.adobe.com/AdobeIllustrator/10.0/">
	<!ENTITY ns_graphs "http://ns.adobe.com/Graphs/1.0/">
]>
<svg version="1.1" id="Layer_1" xmlns:x="&ns_extend;" xmlns:i="&ns_ai;" xmlns:graph="&ns_graphs;"
	 xmlns="http://www.w3.org/2000/svg" xmlns:xlink="http://www.w3.org/1999/xlink" xmlns:a="http://ns.adobe.com/AdobeSVGViewerExtensions/3.0/"
	 x="0px" y="0px" width="64px" height="64px" viewBox="0 0 64 64" enable-background="new 0 0 64 64" xml:space="preserve">
<linearGradient id="SVGID_1_" gradientUnits="userSpaceOnUse" x1="17.2749" y1="50.0859" x2="36.0975" y2="13.9142">
	<stop  offset="0" style="stop-color:#E60000"/>
	<stop  offset="1" style="stop-color:#FF693B"/>
	<a:midPointStop  offset="0" style="stop-color:#E60000"/>
	<a:midPointStop  offset="0.5" style="stop-color:#E60000"/>
	<a:midPointStop  offset="1" style="stop-color:#FF693B"/>
</linearGradient>
<path fill="url(#SVGID_1_)" d="M56.341,27.968L12.815,4.654C-14.214,57.169,36.751,79.019,56.341,27.968z"/>
<path fill="#529320" d="M18.088,58.056c22.075,6.549,50.495-3.494,39.45-29.446C57.538,28.609,45.165,60.618,18.088,58.056z"/>
<path fill="#E5EFCD" d="M56.341,27.968C41.728,80.167-16.912,60.235,12.815,4.655C-9.529,59.198,36.435,73.268,56.341,27.968z"/>
<path fill="#92C932" d="M11.59,4l1.225,0.655c-27.078,58.426,28.29,70.846,43.526,23.313l1.197,0.642
	c-1.744,7.487-11.852,30.589-31.11,30.589c-8.828,0-15.656-3.229-19.166-9.596C-0.499,35.529,7.495,11.92,11.59,4z"/>
<path fill="#92C932" d="M54.848,43.729c0.271-3.594,3.803-4.963,2.071-11.308c-0.24,6.229-3.506,6.471-4.059,10.906
	c-0.484,3.892-3.555,4.374-5.668,8.933c-1.189,2.567-6.701,5-6.701,5s6.652,0.002,8.451-4.426
	C50.374,49.308,54.501,48.329,54.848,43.729z"/>
<path fill="#92C932" d="M57.912,44.319c-0.166-2.975,2.587-4.428,0.481-9.476c0.474,5.137-2.181,5.64-2.156,9.333
	c0.02,3.24-3.522,5.254-4.766,9.193C53.843,49.81,58.124,48.13,57.912,44.319z"/>
<linearGradient id="SVGID_2_" gradientUnits="userSpaceOnUse" x1="-283.626" y1="68.5273" x2="-283.1663" y2="64.4393" gradientTransform="matrix(0.6061 0.0249 0.0681 0.9942 198.5533 -13.1114)">
	<stop  offset="0" style="stop-color:#1A1626"/>
	<stop  offset="1" style="stop-color:#45505C"/>
	<a:midPointStop  offset="0" style="stop-color:#1A1626"/>
	<a:midPointStop  offset="0.5" style="stop-color:#1A1626"/>
	<a:midPointStop  offset="1" style="stop-color:#45505C"/>
</linearGradient>
<path fill="url(#SVGID_2_)" d="M32.289,45.592c1.38,2.933-2.652,3.239-2.202,0.29C30.478,43.313,31.112,43.088,32.289,45.592z"/>
<linearGradient id="SVGID_3_" gradientUnits="userSpaceOnUse" x1="-441.1187" y1="-196.1304" x2="-438.3481" y2="-198.7658" gradientTransform="matrix(0.5351 -0.2857 0.5626 0.8226 386.3057 78.5155)">
	<stop  offset="0" style="stop-color:#1A1626"/>
	<stop  offset="1" style="stop-color:#45505C"/>
	<a:midPointStop  offset="0" style="stop-color:#1A1626"/>
	<a:midPointStop  offset="0.5" style="stop-color:#1A1626"/>
	<a:midPointStop  offset="1" style="stop-color:#45505C"/>
</linearGradient>
<path fill="url(#SVGID_3_)" d="M40.516,40.651c2.62,1.791-0.632,4.05-1.718,1.338C37.856,39.627,38.279,39.122,40.516,40.651z"/>
<linearGradient id="SVGID_4_" gradientUnits="userSpaceOnUse" x1="-128.0464" y1="140.6113" x2="-128.8853" y2="137.8625" gradientTransform="matrix(0.5815 0.1726 -0.1775 0.9806 126.8844 -78.1105)">
	<stop  offset="0" style="stop-color:#1A1626"/>
	<stop  offset="1" style="stop-color:#45505C"/>
	<a:midPointStop  offset="0" style="stop-color:#1A1626"/>
	<a:midPointStop  offset="0.5" style="stop-color:#1A1626"/>
	<a:midPointStop  offset="1" style="stop-color:#45505C"/>
</linearGradient>
<path fill="url(#SVGID_4_)" d="M28.273,36.205c0.423,2.18-2.304,1.707-1.511-0.176C27.453,34.391,27.913,34.348,28.273,36.205z"/>
<linearGradient id="SVGID_5_" gradientUnits="userSpaceOnUse" x1="-440" y1="-217.1763" x2="-437.9762" y2="-219.0783" gradientTransform="matrix(0.5334 -0.2889 0.5675 0.8191 395.3173 82.8284)">
	<stop  offset="0" style="stop-color:#1A1626"/>
	<stop  offset="1" style="stop-color:#45505C"/>
	<a:midPointStop  offset="0" style="stop-color:#1A1626"/>
	<a:midPointStop  offset="0.5" style="stop-color:#1A1626"/>
	<a:midPointStop  offset="1" style="stop-color:#45505C"/>
</linearGradient>
<path fill="url(#SVGID_5_)" d="M37.804,30.201c1.912,1.29-0.441,2.945-1.241,0.979C35.868,29.467,36.173,29.098,37.804,30.201z"/>
<linearGradient id="SVGID_6_" gradientUnits="userSpaceOnUse" x1="1149.4209" y1="-37.4741" x2="1146.6508" y2="-36.9715" gradientTransform="matrix(-0.1776 0.58 -0.979 -0.1859 189.6304 -651.4465)">
	<stop  offset="0" style="stop-color:#1A1626"/>
	<stop  offset="1" style="stop-color:#45505C"/>
	<a:midPointStop  offset="0" style="stop-color:#1A1626"/>
	<a:midPointStop  offset="0.5" style="stop-color:#1A1626"/>
	<a:midPointStop  offset="1" style="stop-color:#45505C"/>
</linearGradient>
<path fill="url(#SVGID_6_)" d="M22.196,22.106c-2.172,0.402-1.678-2.309,0.19-1.503C24.01,21.304,24.049,21.761,22.196,22.106z"/>
<linearGradient id="SVGID_7_" gradientUnits="userSpaceOnUse" x1="504.2656" y1="219.7002" x2="501.5247" y2="218.6823" gradientTransform="matrix(0.2998 0.5273 -0.8073 0.5843 46.3105 -361.7653)">
	<stop  offset="0" style="stop-color:#1A1626"/>
	<stop  offset="1" style="stop-color:#45505C"/>
	<a:midPointStop  offset="0" style="stop-color:#1A1626"/>
	<a:midPointStop  offset="0.5" style="stop-color:#1A1626"/>
	<a:midPointStop  offset="1" style="stop-color:#45505C"/>
</linearGradient>
<path fill="url(#SVGID_7_)" d="M20.777,31.853c-1.266,1.958-2.986-0.386-1.015-1.235C21.478,29.879,21.857,30.181,20.777,31.853z"/>
<linearGradient id="SVGID_8_" gradientUnits="userSpaceOnUse" x1="104.6768" y1="217.9629" x2="102.0844" y2="215.3076" gradientTransform="matrix(0.4951 0.3505 -0.4834 0.8714 72.7748 -179.6059)">
	<stop  offset="0" style="stop-color:#1A1626"/>
	<stop  offset="1" style="stop-color:#45505C"/>
	<a:midPointStop  offset="0" style="stop-color:#1A1626"/>
	<a:midPointStop  offset="0.5" style="stop-color:#1A1626"/>
	<a:midPointStop  offset="1" style="stop-color:#45505C"/>
</linearGradient>
<path fill="url(#SVGID_8_)" d="M20.347,45.445c-0.389,2.849-3.537,1.132-1.781-0.847C20.098,42.876,20.679,43.014,20.347,45.445z"/>
<linearGradient id="SVGID_9_" gradientUnits="userSpaceOnUse" x1="626.4102" y1="199.3135" x2="623.496" y2="198.6302" gradientTransform="matrix(0.2092 0.5694 -0.8922 0.4438 59.7087 -406.6829)">
	<stop  offset="0" style="stop-color:#1A1626"/>
	<stop  offset="1" style="stop-color:#45505C"/>
	<a:midPointStop  offset="0" style="stop-color:#1A1626"/>
	<a:midPointStop  offset="0.5" style="stop-color:#1A1626"/>
	<a:midPointStop  offset="1" style="stop-color:#45505C"/>
</linearGradient>
<path fill="url(#SVGID_9_)" d="M13.46,37.985c-1.587,1.744-2.915-0.879-0.81-1.399C14.487,36.134,14.814,36.498,13.46,37.985z"/>
<linearGradient id="SVGID_10_" gradientUnits="userSpaceOnUse" x1="917.9658" y1="90.083" x2="915.0247" y2="90.1232" gradientTransform="matrix(-0.0136 0.6064 -0.9928 0.0867 114.2414 -537.2187)">
	<stop  offset="0" style="stop-color:#1A1626"/>
	<stop  offset="1" style="stop-color:#45505C"/>
	<a:midPointStop  offset="0" style="stop-color:#1A1626"/>
	<a:midPointStop  offset="0.5" style="stop-color:#1A1626"/>
	<a:midPointStop  offset="1" style="stop-color:#45505C"/>
</linearGradient>
<path fill="url(#SVGID_10_)" d="M12.547,27.077c-2.057,1.016-2.327-1.834-0.234-1.556C14.136,25.765,14.304,26.211,12.547,27.077z"
	/>
<linearGradient id="SVGID_11_" gradientUnits="userSpaceOnUse" x1="1156.9727" y1="-95.2539" x2="1154.1097" y2="-94.4666" gradientTransform="matrix(-0.2591 0.5485 -0.9422 -0.3246 223.1812 -648.3223)">
	<stop  offset="0" style="stop-color:#1A1626"/>
	<stop  offset="1" style="stop-color:#45505C"/>
	<a:midPointStop  offset="0" style="stop-color:#1A1626"/>
	<a:midPointStop  offset="0.5" style="stop-color:#1A1626"/>
	<a:midPointStop  offset="1" style="stop-color:#45505C"/>
</linearGradient>
<path fill="url(#SVGID_11_)" d="M13.071,17.125c-2.344,0.092-1.41-2.682,0.43-1.552C15.101,16.56,15.072,17.047,13.071,17.125z"/>
<linearGradient id="SVGID_12_" gradientUnits="userSpaceOnUse" x1="-424.0278" y1="-309.7271" x2="-420.7408" y2="-311.8846" gradientTransform="matrix(0.4684 -0.3855 0.7136 0.6956 466.3558 86.3226)">
	<stop  offset="0" style="stop-color:#1A1626"/>
	<stop  offset="1" style="stop-color:#45505C"/>
	<a:midPointStop  offset="0" style="stop-color:#1A1626"/>
	<a:midPointStop  offset="0.5" style="stop-color:#1A1626"/>
	<a:midPointStop  offset="1" style="stop-color:#45505C"/>
</linearGradient>
<path fill="url(#SVGID_12_)" d="M47.206,31.782c2.987,1.268,0.183,4.189-1.451,1.688C44.333,31.292,44.657,30.698,47.206,31.782z"/>
</svg>
