<?xml version="1.0" encoding="utf-8"?>
<!-- Generator: Adobe Illustrator 15.0.0, SVG Export Plug-In . SVG Version: 6.00 Build 0)  -->
<!DOCTYPE svg PUBLIC "-//W3C//DTD SVG 1.1//EN" "http://www.w3.org/Graphics/SVG/1.1/DTD/svg11.dtd" [
	<!ENTITY ns_flows "http://ns.adobe.com/Flows/1.0/">
	<!ENTITY ns_extend "http://ns.adobe.com/Extensibility/1.0/">
	<!ENTITY ns_ai "http://ns.adobe.com/AdobeIllustrator/10.0/">
	<!ENTITY ns_graphs "http://ns.adobe.com/Graphs/1.0/">
]>
<svg version="1.1" id="Layer_1" xmlns:x="&ns_extend;" xmlns:i="&ns_ai;" xmlns:graph="&ns_graphs;"
	 xmlns="http://www.w3.org/2000/svg" xmlns:xlink="http://www.w3.org/1999/xlink" xmlns:a="http://ns.adobe.com/AdobeSVGViewerExtensions/3.0/"
	 x="0px" y="0px" width="64px" height="64px" viewBox="0 0 64 64" enable-background="new 0 0 64 64" xml:space="preserve">
<radialGradient id="SVGID_1_" cx="-395.0313" cy="194.1387" r="19.5223" gradientTransform="matrix(-0.7455 0.7647 0.9184 0.9438 -431.2222 155.1906)" gradientUnits="userSpaceOnUse">
	<stop  offset="0" style="stop-color:#FFBD3B"/>
	<stop  offset="0.2525" style="stop-color:#FDBA39"/>
	<stop  offset="0.4603" style="stop-color:#F6B032"/>
	<stop  offset="0.6521" style="stop-color:#EB9E25"/>
	<stop  offset="0.8334" style="stop-color:#DB8615"/>
	<stop  offset="1" style="stop-color:#C76900"/>
	<a:midPointStop  offset="0" style="stop-color:#FFBD3B"/>
	<a:midPointStop  offset="0.7455" style="stop-color:#FFBD3B"/>
	<a:midPointStop  offset="1" style="stop-color:#C76900"/>
</radialGradient>
<path fill="url(#SVGID_1_)" d="M27.686,52.064c-2.133-1.646-4.223-5.598-4.231-9.174c-0.945-1.144-1.599-4.643-1.032-6.209
	c-0.535-1.35-0.087-4.953,0.835-5.724c0.257-1.769,1.93-4.057,3.25-5.415c1.321-1.359,3.546-3.082,5.269-3.35
	c0.746-0.949,4.258-1.414,5.575-0.869c1.523-0.586,4.93,0.081,6.045,1.048c3.482-0.001,7.336,2.135,8.944,4.325
	c2.377,0.705,5.327,3.638,6.71,6.34c1.535,1.051,3.504,4.014,3.785,6.693c0.912,1.05,1.507,5.121,0.949,6.449
	c0.691,1.3-1.035,6.688-2.152,7.59c0,0.842-1.627,2.883-3.191,4.492c-1.565,1.609-3.547,3.287-4.369,3.288
	c-0.875,1.147-6.119,2.933-7.385,2.226c-1.293,0.575-5.259-0.028-6.281-0.963c-2.611-0.281-5.504-2.299-6.528-3.871
	C31.241,57.526,28.379,54.502,27.686,52.064z"/>
<path opacity="0.4" fill="#FFF6C9" d="M37.749,29.681c0,0,0.346,1.255-0.074,2.651c-0.379-1.813-1.664-3.782-1.664-3.782
	s2.666,0.137,4.197,1.184C38.862,29.498,37.749,29.681,37.749,29.681z"/>
<path opacity="0.4" fill="#FFF6C9" d="M45.454,30.534c0,0,0.194,1.288-0.39,2.622c-0.159-1.85-1.2-3.964-1.2-3.964
	s2.631,0.471,4.025,1.702C46.583,30.491,45.454,30.534,45.454,30.534z"/>
<path opacity="0.4" fill="#FFF6C9" d="M47.134,38.638c0,0,0.228,1.282-0.324,2.628c-0.205-1.841-1.297-3.93-1.297-3.93
	s2.641,0.399,4.066,1.596C48.261,38.563,47.134,38.638,47.134,38.638z"/>
<path opacity="0.4" fill="#FFF6C9" d="M56.655,48.193c0,0,0.195,1.289-0.391,2.621c-0.157-1.847-1.197-3.964-1.197-3.964
	s2.02,0.312,3.413,1.542C57.175,47.99,56.655,48.193,56.655,48.193z"/>
<path opacity="0.4" fill="#FFF6C9" d="M55.366,39.875c0,0,0.031,1.244-0.703,2.471c0.074-1.771-0.68-3.863-0.68-3.863
	s2.176,0.326,3.383,1.6C56.143,39.604,55.366,39.875,55.366,39.875z"/>
<path opacity="0.4" fill="#FFF6C9" d="M62.257,41.141c0,0,0.039,0.873-0.358,2.109c-0.228-1.682-0.757-3.393-0.757-3.393
	s1.606,0.742,2.326,2.057C62.741,41.199,62.257,41.141,62.257,41.141z"/>
<path opacity="0.4" fill="#FFF6C9" d="M60.033,35.176c0,0,0.021,0.77-0.357,1.863c0.067-1.35-0.616-2.969-0.616-2.969
	s1.425,0.619,2.047,1.765C60.469,35.217,60.033,35.176,60.033,35.176z"/>
<path opacity="0.4" fill="#FFF6C9" d="M53.937,32.664c0,0,0.111,0.986-0.281,2.525c-0.058-1.768-1.154-3.635-1.154-3.635
	s1.994,0.332,2.958,1.606C54.528,32.577,53.937,32.664,53.937,32.664z"/>
<path opacity="0.4" fill="#FFF6C9" d="M50.199,25.628c0,0,0.102,0.816-0.2,2.085c-0.07-1.463-1.001-3.022-1.001-3.022
	s1.649,0.303,2.462,1.367C50.683,25.563,50.199,25.628,50.199,25.628z"/>
<path opacity="0.4" fill="#FFF6C9" d="M42.62,23.004c0,0,0.197,0.798,0.045,2.098c-0.24-1.445-1.346-2.881-1.346-2.881
	s1.675,0.096,2.604,1.058C43.096,22.882,42.62,23.004,42.62,23.004z"/>
<path opacity="0.4" fill="#FFF6C9" d="M36.464,22.623c0,0,0.277,0.772,0.26,2.082c-0.387-1.411-1.635-2.719-1.635-2.719
	s1.672-0.085,2.696,0.768C36.921,22.451,36.464,22.623,36.464,22.623z"/>
<path opacity="0.4" fill="#FFF6C9" d="M62.728,47.723c0,0-0.074,0.674-0.582,1.684c0.004-1.277-0.256-2.533-0.256-2.533
	s1.342,0.365,1.826,1.293C63.153,47.704,62.728,47.723,62.728,47.723z"/>
<path opacity="0.4" fill="#FFF6C9" d="M38.539,37.854c0,0,1.475-0.324,2.915-0.24c-1.521-0.732-4.285-1.167-4.285-1.167
	s0.418,2.838,1.133,4.401C38.222,39.367,38.539,37.854,38.539,37.854z"/>
<path opacity="0.4" fill="#FFF6C9" d="M29.729,28.803c0,0,1.475-0.326,2.916-0.239c-1.521-0.737-4.287-1.171-4.287-1.171
	s0.42,2.84,1.135,4.402C29.415,30.314,29.729,28.803,29.729,28.803z"/>
<path opacity="0.4" fill="#FFF6C9" d="M30.581,37.037c0,0,1.223,0.354,2.58-0.076c-1.765-0.389-3.681-1.708-3.681-1.708
	s0.129,2.735,1.148,4.308C30.397,38.18,30.581,37.037,30.581,37.037z"/>
<path opacity="0.4" fill="#FFF6C9" d="M31.403,44.949c0,0,1.255,0.199,2.552-0.401c-1.798-0.165-3.856-1.233-3.856-1.233
	s0.453,2.701,1.651,4.136C31.359,46.105,31.403,44.949,31.403,44.949z"/>
<path opacity="0.4" fill="#FFF6C9" d="M39.295,46.679c0,0,1.247,0.234,2.56-0.329c-1.794-0.213-3.825-1.336-3.825-1.336
	s0.387,2.711,1.548,4.176C39.222,47.837,39.295,46.679,39.295,46.679z"/>
<path opacity="0.4" fill="#FFF6C9" d="M48.593,56.464c0,0,1.256,0.202,2.552-0.396c-1.798-0.167-3.86-1.236-3.86-1.236
	s0.302,2.075,1.501,3.507C48.394,56.997,48.593,56.464,48.593,56.464z"/>
<path opacity="0.4" fill="#FFF6C9" d="M40.491,55.135c0,0,1.211,0.031,2.407-0.721c-1.726,0.071-3.763-0.703-3.763-0.703
	s0.318,2.234,1.557,3.479C40.228,55.93,40.491,55.135,40.491,55.135z"/>
<path opacity="0.4" fill="#FFF6C9" d="M41.717,62.209c0,0,0.851,0.041,2.056-0.365c-1.638-0.237-3.304-0.779-3.304-0.779
	s0.72,1.647,2.001,2.389C41.773,62.705,41.717,62.209,41.717,62.209z"/>
<path opacity="0.4" fill="#FFF6C9" d="M35.911,59.922c0,0,0.748,0.021,1.814-0.365c-1.315,0.064-2.891-0.638-2.891-0.638
	s0.602,1.465,1.714,2.106C35.952,60.365,35.911,59.922,35.911,59.922z"/>
<path opacity="0.4" fill="#FFF6C9" d="M33.469,53.662c0,0,0.96,0.111,2.46-0.289c-1.72-0.063-3.541-1.19-3.541-1.19
	s0.325,2.048,1.563,3.04C33.384,54.267,33.469,53.662,33.469,53.662z"/>
<path opacity="0.4" fill="#FFF6C9" d="M26.619,49.814c0,0,0.796,0.105,2.032-0.205c-1.424-0.072-2.942-1.029-2.942-1.029
	S26,50.273,27.04,51.108C26.557,50.311,26.619,49.814,26.619,49.814z"/>
<path opacity="0.4" fill="#FFF6C9" d="M24.07,42.029c0,0,0.779,0.203,2.043,0.049c-1.407-0.246-2.804-1.384-2.804-1.384
	s0.095,1.715,1.027,2.672C23.951,42.518,24.07,42.029,24.07,42.029z"/>
<path opacity="0.4" fill="#FFF6C9" d="M23.706,35.707c0,0,0.753,0.285,2.026,0.271c-1.373-0.4-2.645-1.682-2.645-1.682
	s-0.083,1.715,0.745,2.77C23.538,36.179,23.706,35.707,23.706,35.707z"/>
<path opacity="0.4" fill="#FFF6C9" d="M48.126,62.698c0,0,0.659-0.075,1.643-0.594c-1.241-0.001-2.469-0.271-2.469-0.271
	s0.354,1.383,1.258,1.879C48.111,63.135,48.126,62.698,48.126,62.698z"/>
<path opacity="0.4" fill="#FFF6C9" d="M47.785,47.365c0,0,1.534-0.297,3.048-0.17c-1.614-0.811-4.289-1.108-4.289-1.108
	s0.285,2.748,1.074,4.405C47.495,48.941,47.785,47.365,47.785,47.365z"/>
<path opacity="0.4" fill="#FFF6C9" d="M56.39,56.198c0,0,1.578-0.43,3.095-0.428c-1.569-0.685-3.905-0.405-3.905-0.405
	s-0.277,2.402,0.391,4.014C55.97,57.817,56.39,56.198,56.39,56.198z"/>
<path opacity="0.5" fill="#BD5C33" d="M55.481,30.202c-0.859-1.57-1.501-2.244-3.078-3.492c1.391,1.513,1.846,2.148,2.371,3.319
	c-2.191-0.63-3.771-2.083-5.897-1.954c-1.237-1.774-2.101-4.718-5.403-5.718c2.504,1.158,3.256,3.328,3.901,4.746
	c0.001,0.001,0.003,0.004,0.005,0.009c-1.826-0.973-3.713-1.125-5.75-0.621c-0.509-2.675-1.5-3.552-4.203-5.198
	c2.224,1.868,3.139,2.511,3.473,5.067c-2.283-0.822-4.078-0.909-6.912-0.106c-1.344-1.749,0.688-2.457-2.135-4.109
	c2.224,1.885,0.66,2.105,1.206,3.787c-1.999-0.74-3.854-0.478-6.524-0.413c2.879,0.299,4.801,0.117,6.89,1.305
	c-0.552,2.108-0.275,4.442,0.313,6.097c-1.612-0.606-3.881-0.893-5.936-0.328c-1.155-2.147-0.978-4.119-1.266-7.075
	c-0.066,2.743-0.323,4.648,0.4,6.696c-1.64-0.559-1.856,1.045-3.69-1.239c1.606,2.902,2.297,0.816,4.001,2.195
	c-0.786,2.908-0.703,4.754,0.097,7.097c-2.488-0.344-3.117-1.284-4.934-3.568c1.601,2.778,2.454,3.793,5.059,4.321
	c-0.495,2.09-0.345,4.027,0.599,5.902c-0.003-0.002-0.004-0.003-0.008-0.004c-1.379-0.662-3.491-1.439-4.617-4.01
	c0.968,3.393,3.837,4.279,5.564,5.552c-0.127,2.183,1.285,3.808,1.896,6.058c-1.139-0.539-1.758-1.012-3.229-2.438
	c1.212,1.62,1.867,2.28,3.396,3.165c0.65,1.289,1.908,2.881,2.793,3.713c-0.54-0.83-1.032-1.689-1.458-2.569
	c2.167,1.593,3.515,1.001,5.791,2.513c-0.005,1.404,0.974,2.982,2.194,3.927c-0.985-1.036-1.782-2.622-1.68-3.836
	c2.393-0.313,4.035,1.502,6.782,1.346c-0.22,1.222,0.085,2.527,1.181,3.454c-0.957-1.081-1.028-2.483-0.697-3.483
	c2.283-0.216,6.217,1.42,8.084,1.258c-2.82-0.729-4.889-2.61-8.141-2.521c-0.664-1.5-1.275-4.967-0.754-6.602
	c1.811-0.533,5.52,0.205,8.195,1.426c-0.816,2.354-0.774,5.607,0.699,7.696c-1.119-2.299-0.899-5.413,0.152-7.606
	c2.136-1.079,5.168-1.299,7.406-0.147c-2.031-1.516-5.199-1.561-7.493-0.727c-1.188-2.747-1.903-6.556-1.382-8.415
	c1.59-0.533,4.97,0.097,6.428,0.781c-0.09,3.34,1.739,5.461,2.447,8.36c0.16-1.917-1.427-5.96-1.215-8.302
	c0.973-0.34,2.34-0.264,3.391,0.719c-0.898-1.125-2.173-1.441-3.365-1.214c0.156-2.821-1.611-4.511-1.301-6.966
	c1.181-0.104,2.725,0.713,3.734,1.729c-0.92-1.254-2.454-2.26-3.822-2.256c-1.472-2.34-0.895-3.723-2.441-5.948
	c0.855,0.437,1.69,0.94,2.5,1.499C58.288,32.162,56.738,30.868,55.481,30.202z M48.392,29.264c0.248,1.831,1.673,3.68,2.004,5.859
	c-2.027-0.943-4.664-1.072-7.051-0.828c-0.062-2.235-1.383-5.527-1.527-6.576C44.287,27.179,46.024,27.6,48.392,29.264z
	 M34.142,26.953c2.42-0.422,4.147-0.431,6.878,0.744c0.097,2.123,1.097,3.801,1.2,6.253c-1.947-0.851-4.928-1.026-7.043-0.555
	C34.177,31.507,33.753,28.925,34.142,26.953z M42.104,35.365c-0.337,1.996,0.267,5.385,0.732,6.904
	c-1.479-0.479-4.781-1.102-6.726-0.756c-1.001-1.831-1.055-5.459-0.771-6.948C36.791,34.277,40.32,34.336,42.104,35.365z
	 M27.924,33.329c1.921-0.397,4.437,0.04,6.274,1.069c-0.461,2.171-0.293,5.23,0.534,7.232c-2.39-0.109-4.021-1.137-6.089-1.236
	C27.5,37.588,27.51,35.813,27.924,33.329z M28.664,41.211c1.021,0.15,4.226,1.511,6.403,1.575c-0.239,2.448-0.116,5.156,0.798,7.237
	c-2.12-0.338-3.918-1.802-5.703-2.061C28.544,45.529,28.133,43.744,28.664,41.211z M37.468,57.27
	c-2.596-1.082-3.55-0.402-5.668-2.26c-0.106-2.188-1.577-3.984-1.529-6.055c1.252,0.35,3.614,2.071,5.949,2.324
	C35.939,53.623,36.813,55.955,37.468,57.27z M45.268,59.072c-2.286,0.005-4.241-1.664-6.704-1.267
	c-1.004-1.948-1.623-4.362-1.23-6.494c2.281-0.128,4.563,1.216,6.751,1.224C43.812,54.207,44.274,57.166,45.268,59.072z
	 M43.79,51.254c-2.74-0.2-3.82-1.456-6.606-1.178c-1.025-2.005-1.109-5.003-0.834-7.393c1.648-0.188,5.419,0.51,6.928,1.169
	C43.011,47.143,42.815,49.257,43.79,51.254z M52.927,52.642c-2.445-1.151-5.778-1.979-7.928-1.466
	c-1.088-1.839-0.701-4.59-0.462-7.157c2.501-0.243,5.182-0.638,6.969,0.483C51.005,46.707,51.807,50.129,52.927,52.642z
	 M44.374,42.728c-0.639-1.55-1.316-5.425-1.13-7.116c2.329-0.282,5.247-0.192,7.197,0.865c-0.271,2.856,0.952,3.967,1.141,6.783
	C49.641,42.256,47.581,42.455,44.374,42.728z M59.195,44.784c-1.853-1.023-4.733-1.499-6.364-1.223
	c-0.005-2.247-1.311-4.589-1.184-6.931c2.074-0.399,4.426,0.234,6.323,1.268C57.581,40.428,59.202,42.437,59.195,44.784z
	 M57.45,36.773c-1.28-0.672-3.553-1.572-5.836-1.287c-0.242-2.399-1.918-4.826-2.256-6.112c2.014-0.045,3.765,1.466,5.894,1.578
	C57.06,33.128,56.399,34.106,57.45,36.773z"/>
<path fill="#56A31A" d="M10.717,1.709c12.55,9.396,12.879,17.417,13.532,22.57C11.954,15.617,13.88,11.015,10.717,1.709z"/>
<path fill="#388F10" d="M10.717,1.709c13.011,9.148,12.879,17.417,13.532,22.57C17.107,17.005,17.171,11.143,10.717,1.709z"/>
<path fill="#7AB51D" d="M6.724,30.908c7.258-3.664,10.381-3.428,17.033-2.417C24.888,23.256,14.134,17.068,6.724,30.908z"/>
<path fill="#65A305" d="M6.724,30.908c7.092-2.866,10.381-3.428,17.033-2.417C24.888,23.256,14.531,21.518,6.724,30.908z"/>
<path fill="#529320" d="M34.454,9.916c-5.444,4.233-5.994,7.86-5.046,14.443C24.54,25.484,19.358,12.77,34.454,9.916z"/>
<path fill="#5BA324" d="M34.454,9.916c-4.815,3.742-5.765,9.444-5.046,14.443C24.868,25.408,23.939,13.076,34.454,9.916z"/>
<path fill="#529320" d="M18.213,0c1.982,5.392-3.006,7.948,0.423,19.025C24.193,22.194,24.974,6.61,18.213,0z"/>
<path fill="#56A31A" d="M18.213,0c1.982,5.392,2.774,11.217,1.151,19.245C24.919,22.415,25.169,6.333,18.213,0z"/>
<path fill="#388F10" d="M16.842,36.598c2.863-5.542,5.135-6.72,10.264-8.897C24.875,23.738,13.983,24.221,16.842,36.598z"/>
<path fill="#56A31A" d="M16.842,36.598c3.113-5.159,5.135-6.72,10.264-8.897C24.847,23.689,17.383,27.035,16.842,36.598z"/>
<path fill="#529320" d="M2.957,19.289c4.848,2.344,7.743-3.975,17.767,0.033C23.127,26.207,8.457,27.591,2.957,19.289z"/>
<path fill="#60AB26" d="M2.957,19.289c5.458,4.258,11.411,0.94,17.767,0.033C23.127,26.207,8.792,28.451,2.957,19.289z"/>
<path fill="#529320" d="M11.364,34.316c1.641-4.628,7.309-6.187,12.617-8.595C24.271,20.683,11.653,18.815,11.364,34.316z"/>
<path fill="#64B327" d="M11.364,34.316c3.569-6.511,11.577-4.981,13.896-8.824C25.549,20.454,13.15,24.305,11.364,34.316z"/>
<path fill="#6FA61B" d="M28.79,5.634c-3.406,7.195-3.184,10.284-2.233,16.868C21.682,23.625,15.922,12.99,28.79,5.634z"/>
<path fill="#7AB51D" d="M28.79,5.634c-2.819,7.277-3.184,10.284-2.233,16.868C21.682,23.625,20.201,12.9,28.79,5.634z"/>
<path fill="#297124" d="M37.275,15.875c-5.636,2.946-6.884,5.225-9.197,10.374C24.154,24.089,24.928,13.232,37.275,15.875z"/>
<path fill="#31872B" d="M37.275,15.875c-5.417,3.377-6.884,5.225-9.197,10.374C24.154,24.089,27.266,16.306,37.275,15.875z"/>
<path fill="#56A31A" d="M0,8.678c15.319,1.869,19.087,9.484,21.902,14.118C7.133,21.494,6.867,15.896,0,8.678z"/>
<path fill="#388F10" d="M0,8.678c15.623,1.362,19.087,9.484,21.902,14.118C12.351,19.855,9.871,14.115,0,8.678z"/>
<path fill="#7AB51D" d="M7.89,5.577c8.313,5.211,13.687,4.038,18.046,18.919C20.938,22.794,12.912,20.88,7.89,5.577z"/>
<path fill="#56A31A" d="M7.89,5.577c5.021,15.303,13.048,17.217,18.046,18.919C21.105,14.862,13.782,13.196,7.89,5.577z"/>
<path fill="#31872B" d="M9.125,22.823c6.208-1.424,9.891,2.603,17.764,3.47C25.76,20.265,16.046,12.537,9.125,22.823z"/>
<path fill="#297124" d="M9.125,22.823c5.744-0.875,8.218,4.888,18.855,4.318C26.852,21.112,14.174,18.635,9.125,22.823z"/>
<path fill="#388F10" d="M23.37,8.227c-1.279,7.2,6.068,6.848,2.737,17.125C21.847,26.959,15.956,18.398,23.37,8.227z"/>
<path fill="#56A31A" d="M23.37,8.227c-1.082,6.791,6.268,7.142,2.737,17.125C23.761,23.764,19.462,14.673,23.37,8.227z"/>
<path fill="#297124" d="M28.836,27.446c-5.079-4.603-2.759-13.872,1.678-11.962C26.46,20.965,32.619,21.921,28.836,27.446z"/>
<path fill="#31872B" d="M28.836,27.446c-2.707-0.076-7.873-8.355,1.678-11.962C26.46,20.965,30.065,24.631,28.836,27.446z"/>
<path fill="#297124" d="M28.827,27.456c-5.089-5.549-15.807-1.523-13.781,3.602C21.483,25.426,22.351,32.764,28.827,27.456z"/>
<path fill="#529320" d="M28.827,27.456c0.014-3.27-9.288-8.443-13.781,3.602C21.483,25.426,25.553,29.313,28.827,27.456z"/>
<path fill="#31872B" d="M28.589,27.695c0.774-2.207-6.553-2.542-7.493,4.542C25.34,28.131,25.346,30.962,28.589,27.695z"/>
<path fill="#529320" d="M28.534,27.742c-2.17,0.557-3.285-6.264,4.342-7.297C29.153,23.275,31.833,24.418,28.534,27.742z"/>
</svg>
