<?xml version="1.0" encoding="utf-8"?>
<!-- Generator: Adobe Illustrator 15.0.0, SVG Export Plug-In . SVG Version: 6.00 Build 0)  -->
<!DOCTYPE svg PUBLIC "-//W3C//DTD SVG 1.1//EN" "http://www.w3.org/Graphics/SVG/1.1/DTD/svg11.dtd" [
	<!ENTITY ns_flows "http://ns.adobe.com/Flows/1.0/">
	<!ENTITY ns_extend "http://ns.adobe.com/Extensibility/1.0/">
	<!ENTITY ns_ai "http://ns.adobe.com/AdobeIllustrator/10.0/">
	<!ENTITY ns_graphs "http://ns.adobe.com/Graphs/1.0/">
]>
<svg version="1.1" id="Layer_1" xmlns:x="&ns_extend;" xmlns:i="&ns_ai;" xmlns:graph="&ns_graphs;"
	 xmlns="http://www.w3.org/2000/svg" xmlns:xlink="http://www.w3.org/1999/xlink" xmlns:a="http://ns.adobe.com/AdobeSVGViewerExtensions/3.0/"
	 x="0px" y="0px" width="64px" height="64px" viewBox="0 0 64 64" enable-background="new 0 0 64 64" xml:space="preserve">
<path fill="#302C3B" d="M48.51,57.949c-0.004,0-4.285,4.051-16.512,4.051c-12.225,0-16.508-4.051-16.512-4.051
	c0,0-1.215-12.375,16.512-12.375C49.727,45.574,48.51,57.949,48.51,57.949z"/>
<linearGradient id="SVGID_1_" gradientUnits="userSpaceOnUse" x1="2" y1="43.4414" x2="62" y2="43.4414">
	<stop  offset="0" style="stop-color:#4E5E67"/>
	<stop  offset="0.2885" style="stop-color:#4C5A64"/>
	<stop  offset="0.5659" style="stop-color:#454F59"/>
	<stop  offset="0.838" style="stop-color:#393B48"/>
	<stop  offset="1" style="stop-color:#302C3B"/>
	<a:midPointStop  offset="0" style="stop-color:#4E5E67"/>
	<a:midPointStop  offset="0.7152" style="stop-color:#4E5E67"/>
	<a:midPointStop  offset="1" style="stop-color:#302C3B"/>
</linearGradient>
<path fill="url(#SVGID_1_)" d="M62,29.482c0,37.225-60,37.225-60,0H62z"/>
<path fill="#4E5E67" d="M31.998,19.92C48.57,19.92,62,24.342,62,29.482s-13.43,9.564-30.002,9.564C15.434,39.047,2,34.623,2,29.482
	S15.43,19.92,31.998,19.92z"/>
<path fill="#302C3B" d="M31.998,20.9c15.387,0,27.857,3.869,27.857,8.367s-12.471,8.367-27.857,8.367
	c-15.381,0-27.855-3.869-27.855-8.367S16.613,20.9,31.998,20.9z"/>
<path fill="#CFD8DD" d="M31.994,37.635c12.701,0,23.41-2.639,26.762-6.088c0.008-3.229,0.289-6.648-1.236-9.088
	c-1.262-2.021-1.012-4.807-2.553-6.326c-2.352-2.316-3.152-6.119-5.891-7.479c-3.094-1.531-5.613-4.994-9.131-5.264
	c-2.676-0.203-5.248-1.875-7.961-1.252c-2.652,0.605-5.578-0.207-7.801,1.199c-1.855,1.172-4.59,1.336-6.268,2.992
	c-1.596,1.576-4.914,3.115-6.23,5.729c-1.277,2.539-3.777,4.605-4.313,7.604c-0.389,2.168-1.973,4.135-1.721,6.41
	c0.203,1.816-0.398,3.578-0.434,5.455C8.549,34.986,19.273,37.635,31.994,37.635z"/>
<path fill="#F2F5F7" d="M26.101,4.172c-1.717-0.17-4.971,6.111-3.491,7.459C24.735,11.773,27.316,5.333,26.101,4.172z"/>
<path fill="#F2F5F7" d="M35.332,25.072c-1.063-1.359-7.852,0.625-7.805,2.627C28.891,29.334,35.332,26.754,35.332,25.072z"/>
<path fill="#F2F5F7" d="M26.112,18.961c1.413-0.991-0.214-7.873-2.215-7.932C22.192,12.307,24.433,18.872,26.112,18.961z"/>
<path fill="#F2F5F7" d="M34.476,18.836c1.413-0.991-0.214-7.873-2.215-7.932C30.556,12.182,32.796,18.747,34.476,18.836z"/>
<path fill="#F2F5F7" d="M14.333,23.74c-0.605-1.615-7.678-1.764-8.234,0.158C6.909,25.869,13.829,25.344,14.333,23.74z"/>
<path fill="#E6E9EB" d="M27.458,27.599c-0.605-1.617-7.678-1.764-8.234,0.158C20.032,29.726,26.952,29.202,27.458,27.599z"/>
<path fill="#E6E9EB" d="M17.541,10.535c-1.728-0.026-4.452,6.5-2.868,7.722C16.803,18.225,18.849,11.595,17.541,10.535z"/>
<path fill="#F2F5F7" d="M34.741,37.434c1.494-0.863,0.475-7.863-1.512-8.096C31.419,30.461,33.075,37.199,34.741,37.434z"/>
<path fill="#F2F5F7" d="M39.663,19.243c-0.605-1.615-7.676-1.764-8.232,0.158C32.239,21.372,39.159,20.849,39.663,19.243z"/>
<path fill="#F2F5F7" d="M48.136,18.608c-0.267-1.704-7.166-3.272-8.096-1.501C40.435,19.202,47.319,20.08,48.136,18.608z"/>
<path fill="#E6E9EB" d="M39.094,34.732c0.951-1.438-3.086-7.248-4.969-6.566C33.008,29.979,37.498,35.268,39.094,34.732z"/>
<path fill="#F2F5F7" d="M43.355,15.099c0.949-1.441-3.088-7.248-4.969-6.57C37.268,10.341,41.76,15.63,43.355,15.099z"/>
<path fill="#F2F5F7" d="M18.196,32.419c0.951-1.438-3.086-7.248-4.969-6.566C12.11,27.665,16.603,32.954,18.196,32.419z"/>
<path fill="#F2F5F7" d="M28.582,36.025c1.704-0.275,3.236-7.183,1.461-8.104C27.953,28.329,27.108,35.217,28.582,36.025z"/>
<path fill="#F2F5F7" d="M13.189,24.193c0.951-1.439-3.088-7.248-4.969-6.568C7.102,19.438,11.594,24.727,13.189,24.193z"/>
<path fill="#F2F5F7" d="M55.021,30.909c0.951-1.439-3.086-7.248-4.969-6.568C48.936,26.153,53.426,31.442,55.021,30.909z"/>
<path fill="#F2F5F7" d="M43.935,29.593c-0.201-1.715-7.032-3.546-8.032-1.814C36.218,29.887,43.062,31.029,43.935,29.593z"/>
<path fill="#F2F5F7" d="M55.2,26.71c0.951-1.438-3.086-7.246-4.969-6.566C49.112,21.956,53.604,27.245,55.2,26.71z"/>
<path fill="#F2F5F7" d="M51.291,22.775c1.723-0.076,4.051-6.756,2.393-7.879C51.561,15.057,49.922,21.799,51.291,22.775z"/>
<path fill="#F2F5F7" d="M47.771,34.729c0.995,1.41,7.875-0.239,7.926-2.239C54.415,30.789,47.855,33.051,47.771,34.729z"/>
<path fill="#F2F5F7" d="M28.108,23.275c1.723-0.076,4.051-6.756,2.393-7.879C28.378,15.557,26.739,22.301,28.108,23.275z"/>
<path fill="#F2F5F7" d="M18.755,26.531c-1.479,0.891-0.332,7.871,1.658,8.066C22.202,33.443,20.425,26.736,18.755,26.531z"/>
<path fill="#E6E9EB" d="M13.824,24.682c1.725-0.078,4.049-6.758,2.395-7.881C14.094,16.961,12.455,23.703,13.824,24.682z"/>
<path fill="#F2F5F7" d="M12.803,13.396c1.6,0.643,6.482-4.475,5.439-6.184C16.242,6.479,11.959,11.938,12.803,13.396z"/>
<path fill="#F2F5F7" d="M37.969,34.225c0.851,1.501,7.86,0.54,8.107-1.446C44.968,30.96,38.217,32.561,37.969,34.225z"/>
<path fill="#F2F5F7" d="M43.622,31.521c1.074,1.35,7.848-0.695,7.781-2.695C50.024,27.202,43.606,29.839,43.622,31.521z"/>
<path fill="#F2F5F7" d="M33.573,21.517c0.067,1.725,6.733,4.09,7.867,2.44C41.291,21.832,34.559,20.154,33.573,21.517z"/>
<path fill="#E6E9EB" d="M31.274,11.37c1.076,1.35,7.848-0.697,7.783-2.695C37.679,7.05,31.261,9.688,31.274,11.37z"/>
<path fill="#F2F5F7" d="M15.54,16.588c1.074,1.348,7.848-0.695,7.781-2.697C21.944,12.268,15.526,14.904,15.54,16.588z"/>
<path fill="#F2F5F7" d="M20.727,31.424c1.076,1.35,7.848-0.695,7.783-2.695C27.131,27.105,20.713,29.742,20.727,31.424z"/>
<path fill="#F2F5F7" d="M7.913,30.376c1.074,1.35,7.846-0.695,7.781-2.695C14.315,26.058,7.897,28.694,7.913,30.376z"/>
<path fill="#F2F5F7" d="M11.54,30.735c-0.459,1.662,5.176,5.939,6.756,4.711C18.798,33.376,12.894,29.733,11.54,30.735z"/>
<path fill="#F2F5F7" d="M23.287,34.844c0.174,1.717,6.973,3.664,8.002,1.947C31.01,34.68,24.186,33.422,23.287,34.844z"/>
<path fill="#F2F5F7" d="M33.452,12.327c-0.459,1.662,5.176,5.939,6.756,4.711C40.712,14.97,34.806,11.327,33.452,12.327z"/>
<path fill="#F2F5F7" d="M40.527,19.662c0.038,1.726,6.662,4.205,7.822,2.577C48.238,20.111,41.535,18.316,40.527,19.662z"/>
<path fill="#F2F5F7" d="M33.895,3.817c-0.461,1.662,5.174,5.939,6.754,4.711C41.152,6.46,35.246,2.817,33.895,3.817z"/>
<path fill="#E6E9EB" d="M21.456,16.443c-0.459,1.664,5.174,5.939,6.754,4.713C28.714,19.086,22.808,15.443,21.456,16.443z"/>
<path fill="#F2F5F7" d="M15.42,22.598c1.154,1.281,7.791-1.167,7.606-3.16C21.551,17.9,15.304,20.917,15.42,22.598z"/>
<path fill="#F2F5F7" d="M13.895,14.396c-1.709,0.24-3.389,7.112-1.634,8.072C14.36,22.107,15.35,15.238,13.895,14.396z"/>
<path fill="#F2F5F7" d="M57.828,24.972c-1.701,0.287-3.191,7.203-1.41,8.115C58.506,32.667,59.307,25.774,57.828,24.972z"/>
<path fill="#F2F5F7" d="M43.992,5.484c-1.615,0.605-1.764,7.678,0.158,8.234C46.121,12.908,45.596,5.99,43.992,5.484z"/>
<path fill="#F2F5F7" d="M49.932,11.85c-1.615,0.605-1.764,7.678,0.158,8.234C52.061,19.273,51.535,12.355,49.932,11.85z"/>
<path fill="#F2F5F7" d="M38.752,17.901c-0.941,1.445,3.133,7.229,5.011,6.536C44.869,22.617,40.343,17.358,38.752,17.901z"/>
<path fill="#F2F5F7" d="M34.311,8.341c-0.402-1.678-7.404-2.692-8.192-0.854C26.682,9.543,33.611,9.87,34.311,8.341z"/>
<path fill="#F2F5F7" d="M24.687,18.433c-1.615,0.605-1.764,7.678,0.158,8.234C26.815,25.858,26.29,18.938,24.687,18.433z"/>
<path fill="#F2F5F7" d="M45.877,7.003c1.725,0.024,4.256,6.629,2.636,7.803C46.384,14.71,44.539,8.021,45.877,7.003z"/>
<path fill="#E6E9EB" d="M29.523,22.482c1.063-1.359,7.852,0.625,7.805,2.627C35.965,26.744,29.523,24.164,29.523,22.482z"/>
<path fill="#E6E9EB" d="M35.43,15.479c-0.818-1.52,3.723-6.941,5.537-6.096C41.918,11.29,36.971,16.153,35.43,15.479z"/>
<path fill="#E6E9EB" d="M47.771,30.901c0.605-1.615,7.678-1.764,8.234,0.158C55.195,33.03,48.275,32.505,47.771,30.901z"/>
<path fill="#E6E9EB" d="M36.204,26.575c0.605-1.617,7.678-1.764,8.234,0.158C43.63,28.702,36.71,28.179,36.204,26.575z"/>
<path fill="#E6E9EB" d="M32.227,4.435c0.605-1.615,7.678-1.764,8.232,0.16C39.65,6.565,32.732,6.04,32.227,4.435z"/>
<path fill="#E6E9EB" d="M32.012,37.521c-1.701-0.283-3.205-7.196-1.427-8.111C32.675,29.826,33.49,36.717,32.012,37.521z"/>
<path fill="#F2F5F7" d="M24.619,22.434c1.138-1.297,7.804,1.065,7.645,3.061C30.81,27.051,24.522,24.113,24.619,22.434z"/>
<path fill="#F2F5F7" d="M24.836,11.627c1.138-1.297,7.804,1.065,7.645,3.061C31.026,16.244,24.739,13.307,24.836,11.627z"/>
<path fill="#F2F5F7" d="M15.063,20.041c-0.267-1.703,5.824-5.304,7.251-3.901C22.576,18.256,16.289,21.193,15.063,20.041z"/>
<path fill="#E6E9EB" d="M25.147,34.631c-1.295-1.138,1.079-7.803,3.074-7.639C29.774,28.448,26.827,34.729,25.147,34.631z"/>
<path fill="#E6E9EB" d="M19.82,14.73c-0.949-1.441,3.088-7.248,4.969-6.57C25.908,9.973,21.416,15.262,19.82,14.73z"/>
<path fill="#E6E9EB" d="M46.929,31.233c-1.361-1.057,0.597-7.855,2.599-7.814C51.167,24.777,48.61,31.229,46.929,31.233z"/>
<path fill="#E6E9EB" d="M33.211,35.808c0.585-1.624,7.656-1.854,8.234,0.061C40.659,37.847,33.733,37.405,33.211,35.808z"/>
<path fill="#E6E9EB" d="M52.663,29.96c-0.951-1.439,3.088-7.248,4.969-6.568C58.751,25.204,54.259,30.493,52.663,29.96z"/>
<path fill="#E6E9EB" d="M14.285,31.61c-0.951-1.439,3.086-7.248,4.969-6.568C20.371,26.854,15.881,32.144,14.285,31.61z"/>
<path fill="#F2F5F7" d="M15.416,28.072c-0.951-1.439,3.086-7.246,4.967-6.568C21.502,23.318,17.01,28.607,15.416,28.072z"/>
<path fill="#E6E9EB" d="M9.303,17.998c-0.951-1.438,3.086-7.246,4.969-6.566C15.391,13.244,10.898,18.533,9.303,17.998z"/>
<path fill="#E6E9EB" d="M10.186,28.233c-1.723-0.076-4.051-6.756-2.393-7.879C9.916,20.515,11.555,27.257,10.186,28.233z"/>
<path fill="#E6E9EB" d="M14.657,35.002c-1.247,1.192-7.684-1.744-7.351-3.717C8.891,29.862,14.896,33.338,14.657,35.002z"/>
<path fill="#E6E9EB" d="M32.504,23.278c-1.723-0.076-4.051-6.756-2.393-7.879C32.234,15.56,33.873,22.304,32.504,23.278z"/>
<path fill="#E6E9EB" d="M45.805,25.319c1.479,0.891,0.332,7.871-1.658,8.066C42.357,32.231,44.135,25.524,45.805,25.319z"/>
<path fill="#E6E9EB" d="M49.783,24.294c-1.725-0.078-4.049-6.758-2.395-7.881C49.514,16.573,51.152,23.315,49.783,24.294z"/>
<path fill="#E6E9EB" d="M53.118,15.517c-1.6,0.643-6.482-4.475-5.439-6.184C49.679,8.601,53.962,14.06,53.118,15.517z"/>
<path fill="#E6E9EB" d="M43.2,11.639c-1.725-0.076-4.051-6.758-2.395-7.881C42.931,3.92,44.569,10.662,43.2,11.639z"/>
<path fill="#E6E9EB" d="M27.478,34.197c-1.074,1.35-7.848-0.695-7.781-2.695C21.075,29.879,27.493,32.516,27.478,34.197z"/>
<path fill="#F2F5F7" d="M29.682,27.491c-1.076,1.35-7.848-0.695-7.783-2.695C23.277,23.173,29.695,25.81,29.682,27.491z"/>
<path fill="#E6E9EB" d="M31.757,11.194c-0.901,1.472-7.873,0.275-8.056-1.715C24.869,7.696,31.563,9.523,31.757,11.194z"/>
<path fill="#E6E9EB" d="M47.976,16.381c-1.074,1.348-7.848-0.695-7.781-2.697C41.571,12.061,47.989,14.697,47.976,16.381z"/>
<path fill="#F2F5F7" d="M43.935,32.681c-1.076,1.35-7.848-0.695-7.783-2.695C37.53,28.362,43.948,30.999,43.935,32.681z"/>
<path fill="#E6E9EB" d="M49.456,31.611c0.459,1.662-5.176,5.939-6.756,4.711C42.198,34.252,48.103,30.609,49.456,31.611z"/>
<path fill="#E6E9EB" d="M48.752,16.184c-1.675,0.41-5.778-5.354-4.501-6.895C46.335,8.848,49.795,14.863,48.752,16.184z"/>
<path fill="#E6E9EB" d="M31.109,14.268c0.459,1.662-5.176,5.939-6.756,4.711C23.85,16.91,29.756,13.268,31.109,14.268z"/>
<path fill="#F2F5F7" d="M17.182,22.947c0.459,1.664-5.176,5.939-6.754,4.713C9.924,25.59,15.83,21.947,17.182,22.947z"/>
<path fill="#F2F5F7" d="M31.433,3.346c-0.165,1.717-6.957,3.694-7.993,1.981C23.71,3.215,30.528,1.929,31.433,3.346z"/>
<path fill="#E6E9EB" d="M41.414,13.893c0.459,1.664-5.174,5.939-6.754,4.713C34.156,16.535,40.063,12.893,41.414,13.893z"/>
<path fill="#F2F5F7" d="M36.709,25.937c0.459,1.664-5.174,5.939-6.754,4.713C29.451,28.579,35.357,24.937,36.709,25.937z"/>
<path fill="#F2F5F7" d="M48.853,23.576c-0.307,1.697-7.239,3.106-8.131,1.314C41.168,22.808,48.067,22.087,48.853,23.576z"/>
<path fill="#E6E9EB" d="M54.3,16.951c1.71,0.232,3.425,7.095,1.675,8.064C53.873,24.665,52.849,17.801,54.3,16.951z"/>
<path fill="#E6E9EB" d="M7.385,24.495c1.565,0.727,1.181,7.79-0.778,8.2C4.704,31.74,5.748,24.881,7.385,24.495z"/>
<path fill="#F2F5F7" d="M23.006,4.477c1.201,1.24-1.695,7.693-3.672,7.373C17.902,10.273,21.34,4.246,23.006,4.477z"/>
<path fill="#E6E9EB" d="M19.316,5.868c1.615,0.605,1.764,7.678-0.158,8.234C17.188,13.292,17.713,6.374,19.316,5.868z"/>
<path fill="#E6E9EB" d="M16.617,34.961c0.681-1.586,7.752-1.401,8.218,0.545C23.933,37.437,17.046,36.587,16.617,34.961z"/>
<path fill="#E6E9EB" d="M23.294,20.051c1.266,1.172-1.276,7.773-3.266,7.561C18.512,26.115,21.618,19.911,23.294,20.051z"/>
<path fill="#E6E9EB" d="M34.328,2.629c0.219,1.711-5.966,5.145-7.355,3.705C26.77,4.213,33.132,1.447,34.328,2.629z"/>
<path fill="#E6E9EB" d="M38.127,17.563c1.615,0.605,1.764,7.678-0.158,8.234C35.998,24.988,36.523,18.068,38.127,17.563z"/>
<path fill="#F2F5F7" d="M37.131,10.992c0.949-1.441-3.088-7.248-4.969-6.57C31.043,6.234,35.535,11.523,37.131,10.992z"/>
</svg>
