<?xml version="1.0" encoding="utf-8"?>
<!-- Generator: Adobe Illustrator 15.0.0, SVG Export Plug-In . SVG Version: 6.00 Build 0)  -->
<!DOCTYPE svg PUBLIC "-//W3C//DTD SVG 1.1//EN" "http://www.w3.org/Graphics/SVG/1.1/DTD/svg11.dtd" [
	<!ENTITY ns_flows "http://ns.adobe.com/Flows/1.0/">
	<!ENTITY ns_extend "http://ns.adobe.com/Extensibility/1.0/">
	<!ENTITY ns_ai "http://ns.adobe.com/AdobeIllustrator/10.0/">
	<!ENTITY ns_graphs "http://ns.adobe.com/Graphs/1.0/">
]>
<svg version="1.1" id="Layer_1" xmlns:x="&ns_extend;" xmlns:i="&ns_ai;" xmlns:graph="&ns_graphs;"
	 xmlns="http://www.w3.org/2000/svg" xmlns:xlink="http://www.w3.org/1999/xlink" xmlns:a="http://ns.adobe.com/AdobeSVGViewerExtensions/3.0/"
	 x="0px" y="0px" width="64px" height="64px" viewBox="0 0 64 64" enable-background="new 0 0 64 64" xml:space="preserve">
<radialGradient id="SVGID_1_" cx="-65.3994" cy="-122.6523" r="27.9826" gradientTransform="matrix(0.8505 -0.2739 0.3959 1.0767 142.6981 145.523)" gradientUnits="userSpaceOnUse">
	<stop  offset="0.4" style="stop-color:#CBD716"/>
	<stop  offset="0.6742" style="stop-color:#C9D414"/>
	<stop  offset="0.8515" style="stop-color:#C0CC0C"/>
	<stop  offset="1" style="stop-color:#B3BD00"/>
	<a:midPointStop  offset="0.4" style="stop-color:#CBD716"/>
	<a:midPointStop  offset="0.7879" style="stop-color:#CBD716"/>
	<a:midPointStop  offset="1" style="stop-color:#B3BD00"/>
</radialGradient>
<path fill="url(#SVGID_1_)" d="M53.02,33.168C49.017,26.906,41.487,23.1,36.349,20.092c-7.044-4.116-10.841-15.456-22.313-9.476
	c-11.467,5.976-3.147,14.927-2.731,22.492c0.299,5.532,0.193,13.285,4.208,19.555C29.258,74.161,66.771,54.667,53.02,33.168z"/>
<radialGradient id="SVGID_2_" cx="-23.8496" cy="-153.5571" r="4.2804" gradientTransform="matrix(0.921 -0.4966 0.2021 0.3269 68.4749 51.8145)" gradientUnits="userSpaceOnUse">
	<stop  offset="0" style="stop-color:#98A100"/>
	<stop  offset="1" style="stop-color:#97A239;stop-opacity:0"/>
	<a:midPointStop  offset="0" style="stop-color:#98A100"/>
	<a:midPointStop  offset="0.5" style="stop-color:#98A100"/>
	<a:midPointStop  offset="1" style="stop-color:#97A239;stop-opacity:0"/>
</radialGradient>
<path fill="url(#SVGID_2_)" d="M14.275,11.115c-2.409,1.265-3.586,2.621-4.061,4.026c3.024-1.059,3.862-0.185,5.608-1.125
	c1.775-0.958,1.342-2.097,3.996-4.084C18.336,9.657,16.561,9.917,14.275,11.115z"/>
<path fill="#785647" d="M16.279,13.746c-0.334,0.444-1.061,0.54-1.061,0.54c-3.85-1.338-7.149-6.979-4.565-7.993
	C14.498,4.787,11.521,9.368,16.279,13.746z"/>
<radialGradient id="SVGID_3_" cx="503.5957" cy="-604.7061" r="14.3049" gradientTransform="matrix(1.0197 0.6077 0.3665 -0.8679 -252.2399 -792.451)" gradientUnits="userSpaceOnUse">
	<stop  offset="0" style="stop-color:#D3E600"/>
	<stop  offset="1" style="stop-color:#D3E600;stop-opacity:0"/>
	<a:midPointStop  offset="0" style="stop-color:#D3E600"/>
	<a:midPointStop  offset="0.5" style="stop-color:#D3E600"/>
	<a:midPointStop  offset="1" style="stop-color:#D3E600;stop-opacity:0"/>
</radialGradient>
<path fill="url(#SVGID_3_)" d="M54.273,47.104c2.9-6.856-1.289-16.308-9.341-21.107c-8.057-4.805-16.935-3.14-19.835,3.716
	c-2.895,6.857,1.289,16.31,9.347,21.111C42.501,55.628,51.379,53.962,54.273,47.104z"/>
<radialGradient id="SVGID_4_" cx="484.0527" cy="-592.6338" r="5.6101" gradientTransform="matrix(1.0197 0.6077 0.3665 -0.8679 -252.2399 -792.451)" gradientUnits="userSpaceOnUse">
	<stop  offset="0" style="stop-color:#DAED00"/>
	<stop  offset="1" style="stop-color:#D3E600;stop-opacity:0"/>
	<a:midPointStop  offset="0" style="stop-color:#DAED00"/>
	<a:midPointStop  offset="0.5" style="stop-color:#DAED00"/>
	<a:midPointStop  offset="1" style="stop-color:#D3E600;stop-opacity:0"/>
</radialGradient>
<path fill="url(#SVGID_4_)" d="M29.902,19.466c1.138-2.689-0.504-6.396-3.662-8.278c-3.164-1.883-6.645-1.23-7.781,1.458
	c-1.131,2.689,0.51,6.396,3.668,8.279S28.766,22.155,29.902,19.466z"/>
</svg>
