<?xml version="1.0" encoding="utf-8"?>
<!-- Generator: Adobe Illustrator 15.0.0, SVG Export Plug-In . SVG Version: 6.00 Build 0)  -->
<!DOCTYPE svg PUBLIC "-//W3C//DTD SVG 1.1//EN" "http://www.w3.org/Graphics/SVG/1.1/DTD/svg11.dtd" [
	<!ENTITY ns_flows "http://ns.adobe.com/Flows/1.0/">
	<!ENTITY ns_extend "http://ns.adobe.com/Extensibility/1.0/">
	<!ENTITY ns_ai "http://ns.adobe.com/AdobeIllustrator/10.0/">
	<!ENTITY ns_graphs "http://ns.adobe.com/Graphs/1.0/">
]>
<svg version="1.1" id="Layer_1" xmlns:x="&ns_extend;" xmlns:i="&ns_ai;" xmlns:graph="&ns_graphs;"
	 xmlns="http://www.w3.org/2000/svg" xmlns:xlink="http://www.w3.org/1999/xlink" xmlns:a="http://ns.adobe.com/AdobeSVGViewerExtensions/3.0/"
	 x="0px" y="0px" width="64px" height="64px" viewBox="0 0 64 64" enable-background="new 0 0 64 64" xml:space="preserve">
<path fill="#CFD8DD" d="M56.274,36.209c1.163-4.194-3.357-10.272-5.821-11.783c-0.738-9.786-6.419-10.645-6.419-10.645
	c-6.281-14.375-17.787-14.375-24.068,0c0,0-5.683,0.856-6.421,10.645c-2.464,1.509-6.982,7.587-5.821,11.783
	c-5.387,3.736-6.028,13.845-2.63,14.76c-2.128,11.091,55.934,11.091,53.806,0C62.307,50.051,61.662,39.943,56.274,36.209z"/>
<path fill="#F2F5F7" d="M4.92,41.731c-1.562,0.589-1.704,7.451,0.153,7.991C6.979,48.937,6.471,42.223,4.92,41.731z"/>
<path fill="#F2F5F7" d="M35.414,25.164c-1.026-1.319-7.589,0.606-7.543,2.549C29.188,29.3,35.414,26.796,35.414,25.164z"/>
<path fill="#F2F5F7" d="M26.502,19.233c1.366-0.962-0.207-7.64-2.141-7.697C22.713,12.775,24.878,19.147,26.502,19.233z"/>
<path fill="#F2F5F7" d="M34.587,19.112c1.365-0.962-0.207-7.641-2.141-7.697C30.797,12.654,32.963,19.025,34.587,19.112z"/>
<path fill="#F2F5F7" d="M17.195,35.837c-0.586-1.568-7.422-1.712-7.96,0.153C10.018,37.902,16.708,37.393,17.195,35.837z"/>
<path fill="#E6E9EB" d="M27.803,27.616c-0.585-1.57-7.422-1.712-7.96,0.153C20.625,29.68,27.314,29.172,27.803,27.616z"/>
<path fill="#F2F5F7" d="M16.402,40.23c-1.67-0.025-4.304,6.309-2.772,7.494C15.688,47.693,17.666,41.259,16.402,40.23z"/>
<path fill="#F2F5F7" d="M59.378,47.59c-0.585-1.566-7.422-1.711-7.958,0.156C52.202,49.658,58.889,49.148,59.378,47.59z"/>
<path fill="#F2F5F7" d="M34.9,37.339c1.444-0.837,0.458-7.63-1.462-7.855C31.689,30.572,33.289,37.112,34.9,37.339z"/>
<path fill="#F2F5F7" d="M39.602,19.507c-0.586-1.566-7.419-1.711-7.958,0.154C32.425,21.573,39.114,21.065,39.602,19.507z"/>
<path fill="#F2F5F7" d="M47.791,18.892c-0.258-1.654-6.927-3.176-7.825-1.457C40.347,19.468,47.002,20.319,47.791,18.892z"/>
<path fill="#E6E9EB" d="M39.051,34.538c0.919-1.394-2.983-7.033-4.803-6.372C33.168,29.925,37.508,35.059,39.051,34.538z"/>
<path fill="#F2F5F7" d="M43.737,15.228c0.918-1.398-2.984-7.033-4.803-6.377C37.853,10.61,42.195,15.743,43.737,15.228z"/>
<path fill="#F2F5F7" d="M18.85,32.294c0.92-1.396-2.982-7.034-4.803-6.372C12.967,27.681,17.31,32.813,18.85,32.294z"/>
<path fill="#F2F5F7" d="M28.544,35.925c1.647-0.267,3.129-6.97,1.412-7.864C27.937,28.456,27.12,35.141,28.544,35.925z"/>
<path fill="#F2F5F7" d="M17.021,41.985c0.92-1.396-2.985-7.033-4.803-6.374C11.136,37.37,15.478,42.503,17.021,41.985z"/>
<path fill="#F2F5F7" d="M18.434,57.036c-0.108-1.671-6.61-3.793-7.663-2.162C10.968,56.932,17.518,58.384,18.434,57.036z"/>
<path fill="#F2F5F7" d="M54.145,31.027c0.919-1.396-2.983-7.033-4.803-6.374C48.262,26.412,52.602,31.545,54.145,31.027z"/>
<path fill="#F2F5F7" d="M43.73,29.552c-0.194-1.665-6.798-3.441-7.765-1.761C36.271,29.836,42.887,30.945,43.73,29.552z"/>
<path fill="#F2F5F7" d="M58.486,44.72c0.919-1.396-2.983-7.032-4.804-6.373C52.601,40.106,56.943,45.239,58.486,44.72z"/>
<path fill="#F2F5F7" d="M48.318,43.858c1.665-0.073,3.915-6.556,2.313-7.646C48.579,36.368,46.994,42.911,48.318,43.858z"/>
<path fill="#F2F5F7" d="M48.067,36.018c1.597,0.483,5.856-4.889,4.704-6.448C50.784,29.035,47.133,34.683,48.067,36.018z"/>
<path fill="#F2F5F7" d="M28.432,23.42c1.665-0.073,3.916-6.556,2.313-7.646C28.693,15.931,27.109,22.475,28.432,23.42z"/>
<path fill="#F2F5F7" d="M19.39,26.58c-1.429,0.864-0.32,7.639,1.604,7.828C22.723,33.288,21.004,26.778,19.39,26.58z"/>
<path fill="#F2F5F7" d="M14.625,24.785c1.667-0.076,3.913-6.559,2.314-7.647C14.884,17.292,13.3,23.835,14.625,24.785z"/>
<path fill="#F2F5F7" d="M6.571,46.273c1.546,0.624,6.267-4.343,5.258-6.001C9.896,39.562,5.755,44.859,6.571,46.273z"/>
<path fill="#F2F5F7" d="M5.814,48.437c1.098,1.262,7.548-1.018,7.398-2.954C11.808,43.968,5.726,46.807,5.814,48.437z"/>
<path fill="#F2F5F7" d="M52.289,56.059c1.405,0.904,6.962-3.098,6.276-4.914C56.798,50.085,51.75,54.521,52.289,56.059z"/>
<path fill="#F2F5F7" d="M37.963,34.046c0.822,1.456,7.599,0.524,7.838-1.403C44.729,30.878,38.203,32.432,37.963,34.046z"/>
<path fill="#F2F5F7" d="M47.062,54.315c1.04,1.311,7.586-0.675,7.523-2.616C53.252,50.125,47.049,52.685,47.062,54.315z"/>
<path fill="#F2F5F7" d="M43.428,31.422c1.039,1.31,7.587-0.675,7.522-2.615C49.617,27.23,43.413,29.79,43.428,31.422z"/>
<path fill="#F2F5F7" d="M33.714,21.713c0.065,1.674,6.51,3.97,7.605,2.369C41.175,22.02,34.667,20.392,33.714,21.713z"/>
<path fill="#E6E9EB" d="M31.493,11.867c1.04,1.31,7.585-0.677,7.523-2.616C37.683,7.674,31.479,10.235,31.493,11.867z"/>
<path fill="#F2F5F7" d="M16.283,16.931c1.038,1.308,7.586-0.675,7.521-2.617C22.473,12.737,16.269,15.297,16.283,16.931z"/>
<path fill="#F2F5F7" d="M21.296,31.328c1.04,1.31,7.586-0.675,7.523-2.616C27.487,27.138,21.283,29.695,21.296,31.328z"/>
<path fill="#F2F5F7" d="M8.91,30.312c1.039,1.309,7.585-0.676,7.522-2.616C15.099,26.121,8.895,28.679,8.91,30.312z"/>
<path fill="#F2F5F7" d="M7.081,51.525c1.038,1.31,7.586-0.675,7.521-2.615C13.269,47.333,7.066,49.894,7.081,51.525z"/>
<path fill="#F2F5F7" d="M12.417,30.659c-0.444,1.613,5.003,5.765,6.53,4.572C19.432,33.223,13.724,29.688,12.417,30.659z"/>
<path fill="#F2F5F7" d="M18.3,33.467c0.168,1.666,6.74,3.557,7.735,1.89C25.765,33.308,19.168,32.087,18.3,33.467z"/>
<path fill="#F2F5F7" d="M33.598,12.796c-0.444,1.612,5.003,5.764,6.53,4.571C40.615,15.36,34.905,11.825,33.598,12.796z"/>
<path fill="#F2F5F7" d="M40.437,19.914c0.037,1.675,6.44,4.081,7.562,2.501C47.891,20.35,41.411,18.608,40.437,19.914z"/>
<path fill="#F2F5F7" d="M33.466,4.014c-0.445,1.613,5.002,5.765,6.529,4.572C40.481,6.579,34.772,3.044,33.466,4.014z"/>
<path fill="#E6E9EB" d="M21.947,17.504c-0.443,1.615,5.001,5.764,6.528,4.573C28.962,20.068,23.253,16.533,21.947,17.504z"/>
<path fill="#F2F5F7" d="M16.167,22.763c1.116,1.243,7.531-1.133,7.353-3.066C22.093,18.204,16.054,21.132,16.167,22.763z"/>
<path fill="#F2F5F7" d="M17.206,50.037c-1.148-1.211-7.496,1.345-7.262,3.273C11.411,54.762,17.365,51.661,17.206,50.037z"/>
<path fill="#F2F5F7" d="M8.668,37.815c-1.652,0.232-3.275,6.902-1.579,7.833C9.119,45.298,10.075,38.632,8.668,37.815z"/>
<path fill="#F2F5F7" d="M54.986,31.991c-1.645,0.278-3.085,6.99-1.363,7.875C55.642,39.46,56.416,32.771,54.986,31.991z"/>
<path fill="#F2F5F7" d="M48.158,44.102c-1.161,1.203,1.64,7.466,3.55,7.155C53.092,49.727,49.769,43.878,48.158,44.102z"/>
<path fill="#F2F5F7" d="M53.635,39.862c-1.562,0.589-1.705,7.451,0.153,7.992C55.692,47.067,55.185,40.354,53.635,39.862z"/>
<path fill="#F2F5F7" d="M47.101,32.901c-1.562,0.587-1.705,7.45,0.152,7.991C49.158,40.106,48.65,33.393,47.101,32.901z"/>
<path fill="#F2F5F7" d="M38.721,18.205c-0.91,1.403,3.028,7.015,4.844,6.343C44.634,22.782,40.258,17.679,38.721,18.205z"/>
<path fill="#F2F5F7" d="M33.912,9.225c-0.389-1.628-7.157-2.612-7.918-0.828C26.539,10.392,33.236,10.709,33.912,9.225z"/>
<path fill="#F2F5F7" d="M25.125,18.721c-1.562,0.587-1.705,7.451,0.152,7.991C27.182,25.927,26.674,19.212,25.125,18.721z"/>
<path fill="#F2F5F7" d="M59.468,41.694c1.562,0.587,1.705,7.451-0.153,7.99C57.41,48.898,57.918,42.185,59.468,41.694z"/>
<path fill="#E6E9EB" d="M29.8,22.65c1.026-1.318,7.589,0.607,7.543,2.55C36.026,26.786,29.8,24.282,29.8,22.65z"/>
<path fill="#E6E9EB" d="M35.349,15.323c-0.791-1.475,3.599-6.736,5.353-5.915C41.62,11.257,36.838,15.978,35.349,15.323z"/>
<path fill="#E6E9EB" d="M47.439,31.683c0.585-1.567,7.422-1.711,7.96,0.153C54.615,33.748,47.927,33.238,47.439,31.683z"/>
<path fill="#E6E9EB" d="M36.258,26.623c0.585-1.57,7.421-1.712,7.96,0.153C43.436,28.687,36.746,28.179,36.258,26.623z"/>
<path fill="#E6E9EB" d="M46.437,41.663c1.396-0.922,7.003,3.006,6.344,4.831C51.026,47.576,45.919,43.211,46.437,41.663z"/>
<path fill="#E6E9EB" d="M3.715,49.404c0.585-1.567,7.422-1.711,7.958,0.156C10.891,51.472,4.205,50.962,3.715,49.404z"/>
<path fill="#E6E9EB" d="M30.878,38.029c-1.444-0.838-0.459-7.631,1.461-7.856C34.089,31.263,32.489,37.802,30.878,38.029z"/>
<path fill="#F2F5F7" d="M25.059,22.604c1.1-1.259,7.544,1.033,7.39,2.97C31.043,27.085,24.965,24.233,25.059,22.604z"/>
<path fill="#F2F5F7" d="M25.269,12.116c1.1-1.258,7.543,1.034,7.39,2.97C31.252,16.597,25.175,13.746,25.269,12.116z"/>
<path fill="#F2F5F7" d="M15.821,20.282c-0.258-1.653,5.63-5.147,7.01-3.787C23.084,18.549,17.006,21.399,15.821,20.282z"/>
<path fill="#E6E9EB" d="M25.57,34.44c-1.252-1.104,1.043-7.572,2.972-7.413C30.042,28.44,27.194,34.535,25.57,34.44z"/>
<path fill="#E6E9EB" d="M20.42,15.128c-0.918-1.399,2.985-7.034,4.803-6.376C26.305,10.511,21.962,15.644,20.42,15.128z"/>
<path fill="#E6E9EB" d="M46.624,31.143c-1.315-1.025,0.577-7.623,2.513-7.583C50.722,24.878,48.25,31.138,46.624,31.143z"/>
<path fill="#E6E9EB" d="M33.221,38.189c-0.921-1.396,2.983-7.034,4.801-6.374C39.102,33.573,34.761,38.709,33.221,38.189z"/>
<path fill="#E6E9EB" d="M48.023,39.737c-0.919-1.397,2.985-7.034,4.804-6.374C53.908,35.122,49.566,40.255,48.023,39.737z"/>
<path fill="#E6E9EB" d="M46.475,55.388c0.57-1.573,7.404-1.78,7.96,0.081C53.67,57.389,46.977,56.939,46.475,55.388z"/>
<path fill="#E6E9EB" d="M15.07,31.509c-0.92-1.396,2.982-7.033,4.803-6.374C20.953,26.894,16.612,32.026,15.07,31.509z"/>
<path fill="#F2F5F7" d="M16.163,28.076c-0.919-1.397,2.983-7.032,4.802-6.375C22.046,23.462,17.704,28.595,16.163,28.076z"/>
<path fill="#E6E9EB" d="M4.944,42.047c-0.919-1.396,2.983-7.032,4.804-6.373C10.83,37.433,6.487,42.566,4.944,42.047z"/>
<path fill="#E6E9EB" d="M13.999,44.939c-1.665-0.074-3.916-6.557-2.313-7.646C13.738,37.448,15.322,43.991,13.999,44.939z"/>
<path fill="#E6E9EB" d="M15.525,35.354c-1.206,1.157-7.428-1.693-7.105-3.607C9.951,30.365,15.756,33.738,15.525,35.354z"/>
<path fill="#E6E9EB" d="M32.681,23.424c-1.665-0.075-3.916-6.558-2.313-7.646C32.42,15.933,34.004,22.478,32.681,23.424z"/>
<path fill="#E6E9EB" d="M45.538,25.404c1.429,0.863,0.321,7.638-1.604,7.827C42.206,32.111,43.924,25.604,45.538,25.404z"/>
<path fill="#E6E9EB" d="M49.384,24.409c-1.667-0.076-3.914-6.559-2.314-7.648C49.123,16.917,50.707,23.46,49.384,24.409z"/>
<path fill="#E6E9EB" d="M59.405,41.794c-1.546,0.624-6.267-4.342-5.258-6C56.081,35.083,60.221,40.381,59.405,41.794z"/>
<path fill="#E6E9EB" d="M57.102,47.919c-1.668-0.074-3.916-6.559-2.315-7.648C56.841,40.428,58.425,46.971,57.102,47.919z"/>
<path fill="#E6E9EB" d="M11.928,56.16c-1.405,0.904-6.961-3.1-6.276-4.915C7.419,50.186,12.468,54.621,11.928,56.16z"/>
<path fill="#E6E9EB" d="M18.741,52.332c-0.004,1.675-6.36,4.204-7.513,2.646C11.296,52.911,17.741,51.045,18.741,52.332z"/>
<path fill="#E6E9EB" d="M27.822,34.02c-1.038,1.31-7.586-0.675-7.521-2.615C21.633,29.829,27.837,32.388,27.822,34.02z"/>
<path fill="#F2F5F7" d="M29.953,27.511c-1.04,1.311-7.586-0.674-7.523-2.614C23.762,23.321,29.966,25.88,29.953,27.511z"/>
<path fill="#E6E9EB" d="M31.958,11.696c-0.871,1.429-7.61,0.268-7.787-1.664C25.301,8.302,31.772,10.074,31.958,11.696z"/>
<path fill="#E6E9EB" d="M47.637,16.729c-1.039,1.308-7.586-0.675-7.522-2.617C41.445,12.537,47.649,15.096,47.637,16.729z"/>
<path fill="#F2F5F7" d="M43.73,32.548c-1.041,1.31-7.586-0.676-7.524-2.616C37.539,28.357,43.743,30.915,43.73,32.548z"/>
<path fill="#E6E9EB" d="M59.871,49.688c-0.389,1.629-7.156,2.618-7.918,0.833C52.494,48.525,59.195,48.205,59.871,49.688z"/>
<path fill="#E6E9EB" d="M48.371,32.05c0.443,1.613-5.003,5.765-6.53,4.572C41.355,34.613,47.063,31.078,48.371,32.05z"/>
<path fill="#E6E9EB" d="M11.57,46.931c-1.08,1.275-7.56-0.923-7.433-2.86C5.52,42.538,11.638,45.299,11.57,46.931z"/>
<path fill="#E6E9EB" d="M31.333,14.679c0.443,1.613-5.004,5.764-6.531,4.571C24.315,17.243,30.025,13.708,31.333,14.679z"/>
<path fill="#E6E9EB" d="M17.87,23.102c0.443,1.615-5.003,5.765-6.528,4.574C10.854,25.667,16.563,22.132,17.87,23.102z"/>
<path fill="#F2F5F7" d="M30.596,3.915c0.445,1.613-5.002,5.764-6.529,4.571C23.58,6.479,29.29,2.944,30.596,3.915z"/>
<path fill="#E6E9EB" d="M41.294,14.315c0.443,1.615-5.002,5.764-6.529,4.573C34.278,16.879,39.987,13.345,41.294,14.315z"/>
<path fill="#F2F5F7" d="M36.745,26.003c0.444,1.615-5,5.764-6.528,4.573C29.73,28.567,35.438,25.032,36.745,26.003z"/>
<path fill="#F2F5F7" d="M48.484,23.713c-0.297,1.646-6.998,3.014-7.86,1.275C41.056,22.967,47.726,22.268,48.484,23.713z"/>
<path fill="#E6E9EB" d="M45.833,46.26c1.597-0.478,5.837,4.909,4.68,6.466C48.521,53.253,44.891,47.59,45.833,46.26z"/>
<path fill="#E6E9EB" d="M52.042,36.697c1.562,0.588,1.705,7.451-0.152,7.991C49.984,43.904,50.492,37.188,52.042,36.697z"/>
<path fill="#E6E9EB" d="M8.528,33.066c1.66,0.16,3.58,6.749,1.927,7.756C8.413,40.563,7.159,33.948,8.528,33.066z"/>
<path fill="#E6E9EB" d="M17.214,44.312c1.161,1.204-1.639,7.467-3.549,7.155C12.281,49.938,15.604,44.088,17.214,44.312z"/>
<path fill="#E6E9EB" d="M11.963,41.731c1.561,0.589,1.704,7.451-0.153,7.991C9.905,48.937,10.413,42.223,11.963,41.731z"/>
<path fill="#E6E9EB" d="M17.536,31.129c1.562,0.588,1.705,7.451-0.153,7.991C15.478,38.333,15.986,31.619,17.536,31.129z"/>
<path fill="#E6E9EB" d="M23.778,20.292c1.224,1.136-1.233,7.543-3.156,7.336C19.156,26.177,22.159,20.155,23.778,20.292z"/>
<path fill="#E6E9EB" d="M34.276,3.701c0.211,1.661-5.767,4.993-7.11,3.596C26.97,5.238,33.119,2.555,34.276,3.701z"/>
<path fill="#E6E9EB" d="M38.116,17.877c1.562,0.587,1.705,7.45-0.153,7.991C36.059,25.082,36.566,18.367,38.116,17.877z"/>
<path fill="#F2F5F7" d="M37.153,11.5c0.918-1.399-2.985-7.034-4.802-6.376C31.269,6.883,35.61,12.016,37.153,11.5z"/>
<linearGradient id="SVGID_1_" gradientUnits="userSpaceOnUse" x1="31.8657" y1="61" x2="31.8657" y2="34.9004">
	<stop  offset="0" style="stop-color:#1F2420"/>
	<stop  offset="0.5402" style="stop-color:#2B342C"/>
	<stop  offset="1" style="stop-color:#374538"/>
	<a:midPointStop  offset="0" style="stop-color:#1F2420"/>
	<a:midPointStop  offset="0.5576" style="stop-color:#1F2420"/>
	<a:midPointStop  offset="1" style="stop-color:#374538"/>
</linearGradient>
<path fill="url(#SVGID_1_)" d="M47.53,35.565c-0.245-0.244-3.717,0.001-6.264-0.138c-1.361-0.075-2.939-0.333-4.625-0.373
	c-1.49-0.035-3.068,0.243-4.641,0.238c-1.571-0.006-3.15-0.419-4.643-0.392c-1.687,0.029-3.262,0.425-4.627,0.499
	c-2.453,0.131-5.246-0.126-5.604,0.165c-0.608,0.499-0.004,2.463-0.399,4.547c-0.25,1.307-0.604,2.803-0.762,4.389
	c-0.144,1.457-0.462,2.972-0.523,4.445c-0.063,1.576,0.174,3.115,0.21,4.469c0.054,1.967,0.137,3.604,0.419,4.451
	c0.288,0.855,1.639,1.608,3.498,2.142c1.157,0.33,2.601,0.325,4.135,0.531c1.298,0.173,2.68,0.347,4.131,0.433
	c1.36,0.079,2.757-0.03,4.16-0.03c1.406,0,2.792-0.07,4.153-0.148c1.452-0.083,2.844-0.111,4.142-0.286
	c1.537-0.206,2.956-0.274,4.115-0.605c1.859-0.532,3.218-1.187,3.506-2.043c0.268-0.796,0.359-2.433,0.384-4.436
	c0.014-1.344-0.011-2.867-0.09-4.44c-0.075-1.466-0.486-2.952-0.636-4.404c-0.159-1.581,0.083-3.152-0.152-4.462
	C47.04,38.024,48.057,36.093,47.53,35.565z"/>
<path opacity="0.4" fill="#1F2420" d="M32.223,49.965c0.487,3.112,3.712,3.06,5.617,2.157
	C39.781,51.206,31.884,47.797,32.223,49.965z"/>
<path opacity="0.4" fill="#1F2420" d="M34.926,47.143c2.283,1.531,3.249-0.255,3.222-1.81
	C38.114,43.749,33.333,46.075,34.926,47.143z"/>
<path opacity="0.4" fill="#1F2420" d="M24.943,43.059c2.284,1.53,3.249-0.255,3.222-1.811C28.132,39.664,23.35,41.99,24.943,43.059z
	"/>
<path opacity="0.4" fill="#1F2420" d="M25.758,46.016c-2.495,0.149-1.569,2.317-0.289,3.641
	C26.779,51.007,27.504,45.914,25.758,46.016z"/>
<path opacity="0.4" fill="#1F2420" d="M40.322,44.946c0.482,3.106,3.712,3.058,5.613,2.153C47.874,46.18,39.98,42.772,40.322,44.946
	z"/>
<path opacity="0.4" fill="#1F2420" d="M43.602,51.48c2.282,1.527,3.243-0.26,3.217-1.814C46.787,48.084,42.008,50.41,43.602,51.48z"
	/>
<path opacity="0.4" fill="#1F2420" d="M40.386,49.022c-2.493,0.15-1.569,2.314-0.29,3.643
	C41.405,54.019,42.129,48.919,40.386,49.022z"/>
<path opacity="0.4" fill="#1F2420" d="M43.132,36.726c0.313,2.017,2.404,1.979,3.64,1.396C48.031,37.528,42.91,35.315,43.132,36.726
	z"/>
<path opacity="0.4" fill="#1F2420" d="M40.849,42.355c1.478,0.988,2.103-0.17,2.083-1.179
	C42.911,40.146,39.813,41.662,40.849,42.355z"/>
<path opacity="0.4" fill="#1F2420" d="M30.523,42.238c1.478,0.989,2.101-0.169,2.084-1.178
	C32.585,40.03,29.487,41.545,30.523,42.238z"/>
<path opacity="0.4" fill="#1F2420" d="M18.542,40.792c1.477,0.99,2.102-0.169,2.085-1.178C20.604,38.584,17.505,40.1,18.542,40.792z
	"/>
<path opacity="0.4" fill="#1F2420" d="M20.655,47.789c1.476,0.989,2.101-0.169,2.083-1.178
	C22.715,45.581,19.617,47.097,20.655,47.789z"/>
<path opacity="0.4" fill="#1F2420" d="M36.477,49.596c1.477,0.988,2.102-0.169,2.083-1.179
	C38.537,47.388,35.438,48.901,36.477,49.596z"/>
<path opacity="0.4" fill="#1F2420" d="M37.88,43.996c1.479,0.989,2.103-0.169,2.086-1.178C39.942,41.788,36.845,43.304,37.88,43.996
	z"/>
<path opacity="0.4" fill="#1F2420" d="M45.221,40.524c-1.617,0.096-1.017,1.502-0.186,2.365
	C45.885,43.763,46.355,40.456,45.221,40.524z"/>
<path opacity="0.4" fill="#1F2420" d="M34.342,38.47c-1.616,0.096-1.017,1.502-0.185,2.366
	C35.007,41.708,35.477,38.402,34.342,38.47z"/>
<path opacity="0.4" fill="#1F2420" d="M29.639,48.681c-1.617,0.096-1.017,1.501-0.186,2.365
	C30.304,51.919,30.774,48.611,29.639,48.681z"/>
<path opacity="0.4" fill="#1F2420" d="M41.775,39.098c-0.488-3.111-3.715-3.061-5.618-2.157
	C34.216,37.856,42.111,41.267,41.775,39.098z"/>
<path opacity="0.4" fill="#1F2420" d="M34.122,36.486c-2.282-1.531-3.249,0.255-3.219,1.811
	C30.936,39.88,35.717,37.554,34.122,36.486z"/>
<path opacity="0.4" fill="#1F2420" d="M38.236,40.333c-2.284-1.53-3.251,0.255-3.222,1.811
	C35.047,43.727,39.829,41.401,38.236,40.333z"/>
<path opacity="0.4" fill="#1F2420" d="M27.898,40.216c2.493-0.149,1.568-2.317,0.29-3.642
	C26.875,35.224,26.151,40.317,27.898,40.216z"/>
<path opacity="0.4" fill="#1F2420" d="M24.1,44.552c-0.482-3.106-3.711-3.058-5.614-2.153C16.546,43.317,24.442,46.726,24.1,44.552z
	"/>
<path opacity="0.4" fill="#1F2420" d="M21.154,36.929c-2.28-1.527-3.242,0.259-3.215,1.814
	C17.968,40.324,22.75,37.997,21.154,36.929z"/>
<path opacity="0.4" fill="#1F2420" d="M22.62,41.214c2.493-0.151,1.569-2.317,0.288-3.645C21.6,36.215,20.876,41.315,22.62,41.214z"
	/>
<path opacity="0.4" fill="#1F2420" d="M31.314,47.032c2.236,1.066,2.568-1.252,2.158-3.014
	C33.048,42.218,29.75,46.286,31.314,47.032z"/>
<path opacity="0.4" fill="#1F2420" d="M22.017,51.238c-0.313-2.017-2.404-1.979-3.639-1.396
	C17.119,50.436,22.239,52.647,22.017,51.238z"/>
<path opacity="0.4" fill="#1F2420" d="M18.874,46.2c-1.476-0.989-2.102,0.17-2.085,1.179C16.813,48.409,19.911,46.894,18.874,46.2z"
	/>
<path opacity="0.4" fill="#1F2420" d="M28.836,45.934c1.617-0.097,1.017-1.503,0.186-2.365
	C28.171,42.694,27.702,46.001,28.836,45.934z"/>
</svg>
