<?xml version="1.0" encoding="utf-8"?>
<!-- Generator: Adobe Illustrator 15.0.0, SVG Export Plug-In . SVG Version: 6.00 Build 0)  -->
<!DOCTYPE svg PUBLIC "-//W3C//DTD SVG 1.1//EN" "http://www.w3.org/Graphics/SVG/1.1/DTD/svg11.dtd" [
	<!ENTITY ns_flows "http://ns.adobe.com/Flows/1.0/">
	<!ENTITY ns_extend "http://ns.adobe.com/Extensibility/1.0/">
	<!ENTITY ns_ai "http://ns.adobe.com/AdobeIllustrator/10.0/">
	<!ENTITY ns_graphs "http://ns.adobe.com/Graphs/1.0/">
]>
<svg version="1.1" id="Layer_1" xmlns:x="&ns_extend;" xmlns:i="&ns_ai;" xmlns:graph="&ns_graphs;"
	 xmlns="http://www.w3.org/2000/svg" xmlns:xlink="http://www.w3.org/1999/xlink" xmlns:a="http://ns.adobe.com/AdobeSVGViewerExtensions/3.0/"
	 x="0px" y="0px" width="64px" height="64px" viewBox="0 0 64 64" enable-background="new 0 0 64 64" xml:space="preserve">
<radialGradient id="SVGID_1_" cx="33.1406" cy="31.6279" r="34.682" gradientTransform="matrix(0.6822 -0.6835 0.4149 0.4158 2.279 34.8181)" gradientUnits="userSpaceOnUse">
	<stop  offset="0" style="stop-color:#BA746E"/>
	<stop  offset="0.5677" style="stop-color:#995B57"/>
	<stop  offset="1" style="stop-color:#854C48"/>
	<a:midPointStop  offset="0" style="stop-color:#BA746E"/>
	<a:midPointStop  offset="0.4545" style="stop-color:#BA746E"/>
	<a:midPointStop  offset="1" style="stop-color:#854C48"/>
</radialGradient>
<path fill="url(#SVGID_1_)" d="M59.69,3.775c-2.097-1.608-6.395-0.404-10.278,0.808c-1.158,0.363-8.594,1.365-13.583,2.119
	c-4.526,0.687-12.269,5.005-13.698,7.365c-0.654,1.078-19.065,5.242-18.803,17.768c0.176,8.456,3.787,15.135,9.082,19.53
	c-1.102,0.076-2.231,0.145-3.405,0.197c12.969,13.58,30.466,12.582,38.491-3.486c3.616-7.242,3.916-10.234,5.469-13.689
	c1.648-3.686,3.512-7.964,3.887-13.148c0,0,1.401-5.11,2.22-9.151C59.613,9.398,62.723,7.132,59.69,3.775z"/>
<path fill="#854C48" d="M57.577,18.484c-0.109,1.498-0.807,3.655-0.807,3.655c-1.161-5-3.806-7.84-11.099-11.673
	C45.623,10.421,55.309,12.487,57.577,18.484z"/>
<path fill="#854C48" d="M46.287,5.158c4.158,0.683,7.574,4.49,7.574,4.49s-5.707-3.383-10.011-4.12
	C45.044,5.158,46.287,5.158,46.287,5.158z"/>
<path fill="#854C48" d="M52.965,34.386c-0.372,1.631-1.544,4.189-1.544,4.189c0.369-9.264-8.051-19.322-8.051-19.322
	S52.416,25.053,52.965,34.386z"/>
<path fill="#854C48" d="M22.59,13.467c9.745,0,14.388,5.424,14.388,5.424s-8.663-4.41-17.329-3.672
	C20.485,14.617,22.59,13.467,22.59,13.467z"/>
<path fill="#854C48" d="M3.433,31.493c0.097-6.129,3.94-9.627,9.28-10.902c0.677-0.162,2.855,0.664,3.246-0.129
	c0.72-1.461,2.864-0.967,3.936-0.346c2.573,1.491,5.351-0.862,8.048,1.701c1.685,1.601,4.779,0.971,6.349,2.941
	c1.317,1.652,3.676,0.809,5.012,3.761c0.341,0.754,0.9,1.662,1.711,1.779c1.791,0.257,5.12,4.7,4.545,7.776
	c-0.296,1.586,0.374,1.113,0.94,1.947c0.28,0.412-1.271,1.86-0.547,3.403c0.492,1.045-0.141,2.253-0.331,3.293
	C41.593,68.741,2.896,64.982,3.433,31.493z"/>
<path fill="#BF6600" d="M40.6,30.555c-2.954-1.642-2.536-3.918-4.614-4.12c-2.118-0.205-3.033-3.402-4.78-2.789
	c-1.397,0.49-2.892-0.88-3.391-1.393c-2.449-2.513-5.724,0.718-8.149-1.759c-1.819-1.856-3.238,2.05-6.86,1.265
	c-1.582-0.343-3.532,1.099-4.717,0.944c-1.475-0.194-5.871,4.944-4.966,9.15c0.316,1.466-0.367,5.856,0.55,7.267
	c0.351,0.538-0.375,1.127,0.384,1.855c0.668,0.641,0.909,4.668,2.019,5.804c0.45,0.46,0.217,0.999,0.876,1.689
	c2.017,2.115,1.311,3.982,5.197,6.451c0.506,0.321-0.107,0.874,1.38,1.13c1.603,0.276,2.572,2.161,4.076,2.498
	c2.919,0.655,5.49,2.452,8.373,2.28c3.764-0.223,9.703,0.039,10.605-1.929c0.621-1.354,4.5-2.663,5.442-4.364
	c1.003-1.809,3.151-3.461,2.918-5.756c-0.241-2.371,1.154-3.479,0.382-5.109c-0.706-1.484,0.457-2.176-0.121-3.021
	c-0.83-1.211,0.38-2.647-0.543-3.258C42.116,35.71,43.318,32.065,40.6,30.555z"/>
<radialGradient id="SVGID_2_" cx="18.979" cy="47.873" r="20.0966" gradientTransform="matrix(0.9647 0 0 0.9667 6.0383 -5.2584)" gradientUnits="userSpaceOnUse">
	<stop  offset="0" style="stop-color:#FFAA00"/>
	<stop  offset="0.6358" style="stop-color:#F29600"/>
	<stop  offset="1" style="stop-color:#EA8800"/>
	<a:midPointStop  offset="0" style="stop-color:#FFAA00"/>
	<a:midPointStop  offset="0.5455" style="stop-color:#FFAA00"/>
	<a:midPointStop  offset="1" style="stop-color:#EA8800"/>
</radialGradient>
<path fill="url(#SVGID_2_)" d="M40.078,32.901c-0.136-2.32-3.592-3.824-5.837-5.303c-1.46-0.963-3.437-1.211-4.64-2.5
	c-0.904-0.967-1.899,0.21-3.676-1.334c-1.291-1.124-3.922,0.246-5.073-1.06c-0.532-0.602-1.585-0.157-2.36-0.182
	c-1.055-0.034-3.475,0.75-4.438,0.485c-2.256-0.62-3.666,1.222-5.86,1.833c-0.851,0.237-1.45,2.478-2.385,2.868
	c-1.552,0.648-1.396,3.174-1.43,5.246c-0.018,1.163-0.464,2.438,0.099,3.368c0.401,0.662-0.284,1.742,0.249,2.251
	c1.675,1.599,0.429,2.423,0.737,3.55c1.078,3.932,2.303,7.857,5.164,9.756c0.657,0.436,0.451,0.868,0.867,0.929
	c1.584,0.231,0.698,0.684,1.06,1.005c4.016,3.567,9.148,6.74,13.83,5.598c0.608-0.147,0.532,0.419,1.181-0.162
	c0.229-0.205,0.702,0.152,1.006,0.132c3.244-0.218,6.316-1.214,8.843-2.964c0.296-0.206,0.039-0.748,0.867-0.649
	c1.493,0.178,1.724-2.399,2.959-3.245c3.26-2.23,2.592-4.656,3.238-8.061c0.207-1.093-1.186-2.396-0.799-3.111
	c1.07-1.979-1.699-3.111-1.317-4.667C42.73,35.188,40.164,34.362,40.078,32.901z"/>
</svg>
