<?xml version="1.0" encoding="utf-8"?>
<!-- Generator: Adobe Illustrator 15.0.0, SVG Export Plug-In . SVG Version: 6.00 Build 0)  -->
<!DOCTYPE svg PUBLIC "-//W3C//DTD SVG 1.1//EN" "http://www.w3.org/Graphics/SVG/1.1/DTD/svg11.dtd" [
	<!ENTITY ns_flows "http://ns.adobe.com/Flows/1.0/">
	<!ENTITY ns_extend "http://ns.adobe.com/Extensibility/1.0/">
	<!ENTITY ns_ai "http://ns.adobe.com/AdobeIllustrator/10.0/">
	<!ENTITY ns_graphs "http://ns.adobe.com/Graphs/1.0/">
]>
<svg version="1.1" id="Layer_1" xmlns:x="&ns_extend;" xmlns:i="&ns_ai;" xmlns:graph="&ns_graphs;"
	 xmlns="http://www.w3.org/2000/svg" xmlns:xlink="http://www.w3.org/1999/xlink" xmlns:a="http://ns.adobe.com/AdobeSVGViewerExtensions/3.0/"
	 x="0px" y="0px" width="64px" height="64px" viewBox="0 0 64 64" enable-background="new 0 0 64 64" xml:space="preserve">
<linearGradient id="SVGID_1_" gradientUnits="userSpaceOnUse" x1="392.4873" y1="397.6885" x2="423.6094" y2="397.6885" gradientTransform="matrix(0.7071 -0.7071 0.7071 0.7071 -533.1422 43.9209)">
	<stop  offset="0" style="stop-color:#CCD4DB"/>
	<stop  offset="0.132" style="stop-color:#D8E0E6"/>
	<stop  offset="0.333" style="stop-color:#E5EBF1"/>
	<stop  offset="0.5273" style="stop-color:#E9EFF5"/>
	<stop  offset="0.7427" style="stop-color:#E6EDF3"/>
	<stop  offset="0.8722" style="stop-color:#DEE5EB"/>
	<stop  offset="0.9787" style="stop-color:#D0D8DE"/>
	<stop  offset="1" style="stop-color:#CCD4DB"/>
	<a:midPointStop  offset="0" style="stop-color:#CCD4DB"/>
	<a:midPointStop  offset="0.3" style="stop-color:#CCD4DB"/>
	<a:midPointStop  offset="0.5273" style="stop-color:#E9EFF5"/>
	<a:midPointStop  offset="0.8" style="stop-color:#E9EFF5"/>
	<a:midPointStop  offset="1" style="stop-color:#CCD4DB"/>
</linearGradient>
<path fill="url(#SVGID_1_)" d="M28.326,15.049l-0.651-0.652l-6.64,6.638l-6.639,6.641l0.652,0.653c0,0-1.915,4.095-0.577,7.233
	c1.512,3.541,7.088,5.266,11.563,9.741c5.008,5.005,7.981,12.645,12.548,14.366c3.217,1.215,6.895-0.837,13.572-7.513
	c6.678-6.68,8.729-10.357,7.516-13.573c-1.724-4.567-9.362-7.542-14.369-12.546c-4.476-4.476-6.199-10.052-9.739-11.563
	C32.828,13.306,28.326,15.049,28.326,15.049z"/>
<linearGradient id="SVGID_2_" gradientUnits="userSpaceOnUse" x1="393.4971" y1="395.875" x2="422.6006" y2="395.875" gradientTransform="matrix(0.7071 -0.7071 0.7018 0.7018 -529.5704 47.4928)">
	<stop  offset="0" style="stop-color:#E8E5DF"/>
	<stop  offset="0.4456" style="stop-color:#F4F2EF"/>
	<stop  offset="1" style="stop-color:#FFFFFF"/>
	<a:midPointStop  offset="0" style="stop-color:#E8E5DF"/>
	<a:midPointStop  offset="0.4424" style="stop-color:#E8E5DF"/>
	<a:midPointStop  offset="1" style="stop-color:#FFFFFF"/>
</linearGradient>
<path fill="url(#SVGID_2_)" d="M51.343,32.002c-2.359-1.623-4.799-3.299-6.854-5.355c-1.99-1.987-3.438-4.186-4.716-6.125
	l-23.887,8.087c-0.017,0.034-1.716,3.739-0.567,6.454c0.755,1.781,2.816,3.14,5.202,4.713c1.938,1.277,4.137,2.727,6.125,4.715
	c2.056,2.054,3.732,4.494,5.354,6.853c2.231,3.247,4.34,6.313,6.825,7.243c2.354,0.88,5.267-0.026,12.501-7.261
	c7.232-7.233,8.14-10.144,7.26-12.498C57.655,36.34,54.589,34.233,51.343,32.002z"/>
<linearGradient id="SVGID_3_" gradientUnits="userSpaceOnUse" x1="464.1387" y1="192.625" x2="477.3281" y2="192.625" gradientTransform="matrix(0.7071 -0.7071 0.7071 0.7071 -458.4762 207.2354)">
	<stop  offset="0" style="stop-color:#FFA400"/>
	<stop  offset="0.3098" style="stop-color:#FFB70E"/>
	<stop  offset="0.7109" style="stop-color:#FFC91C"/>
	<stop  offset="1" style="stop-color:#FFCF21"/>
	<a:midPointStop  offset="0" style="stop-color:#FFA400"/>
	<a:midPointStop  offset="0.3636" style="stop-color:#FFA400"/>
	<a:midPointStop  offset="1" style="stop-color:#FFCF21"/>
</linearGradient>
<path fill="url(#SVGID_3_)" d="M13.62,8.729c-0.877-0.373-2.8-2.342-2.8-2.342c0.174-1.016-2.714-4.063-5.605-1.173
	c-2.892,2.894,0.155,5.779,1.17,5.606c0,0,1.969,1.922,2.345,2.801c0.354,0.831-0.335,4.098,1.854,6.288l5.372-3.954l3.953-5.373
	C17.719,8.393,14.45,9.083,13.62,8.729z"/>
<linearGradient id="SVGID_4_" gradientUnits="userSpaceOnUse" x1="463.0703" y1="200.3281" x2="478.3955" y2="200.3281" gradientTransform="matrix(0.7071 -0.7071 0.7071 0.7071 -458.4762 207.2354)">
	<stop  offset="0" style="stop-color:#FFA400"/>
	<stop  offset="0.3804" style="stop-color:#FFB10A"/>
	<stop  offset="1" style="stop-color:#FFCF21"/>
	<a:midPointStop  offset="0" style="stop-color:#FFA400"/>
	<a:midPointStop  offset="0.5697" style="stop-color:#FFA400"/>
	<a:midPointStop  offset="1" style="stop-color:#FFCF21"/>
</linearGradient>
<path fill="url(#SVGID_4_)" d="M19.908,10.583c-1.703,1.706-4.662,4.662-4.662,4.662s-2.958,2.959-4.663,4.665
	c-0.756,0.756,0.817,2.328,0.817,2.328l5.417-5.421l5.418-5.418C22.235,11.399,20.664,9.828,19.908,10.583z"/>
<linearGradient id="SVGID_5_" gradientUnits="userSpaceOnUse" x1="462.1445" y1="201.6328" x2="479.3213" y2="201.6328" gradientTransform="matrix(0.7071 -0.7071 0.7071 0.7071 -458.4762 207.2354)">
	<stop  offset="0" style="stop-color:#0094EB"/>
	<stop  offset="0.2434" style="stop-color:#0496EC"/>
	<stop  offset="0.4992" style="stop-color:#119DF0"/>
	<stop  offset="0.7599" style="stop-color:#26A9F7"/>
	<stop  offset="1" style="stop-color:#40B7FF"/>
	<a:midPointStop  offset="0" style="stop-color:#0094EB"/>
	<a:midPointStop  offset="0.697" style="stop-color:#0094EB"/>
	<a:midPointStop  offset="1" style="stop-color:#40B7FF"/>
</linearGradient>
<path fill="url(#SVGID_5_)" d="M22.234,10.714c-1.175,1.174-5.759,5.761-5.759,5.761s-4.586,4.585-5.759,5.759
	c-0.315,0.315,0.357,0.986,0.357,0.986l6.359-5.784l5.786-6.361C23.22,11.075,22.549,10.403,22.234,10.714z"/>
<linearGradient id="SVGID_6_" gradientUnits="userSpaceOnUse" x1="460.8516" y1="204.8145" x2="480.6133" y2="204.8145" gradientTransform="matrix(0.7071 -0.7071 0.7071 0.7071 -458.4762 207.2354)">
	<stop  offset="0" style="stop-color:#0094EB"/>
	<stop  offset="0.158" style="stop-color:#0C9BEF"/>
	<stop  offset="0.7093" style="stop-color:#32AFFB"/>
	<stop  offset="1" style="stop-color:#40B7FF"/>
	<a:midPointStop  offset="0" style="stop-color:#0094EB"/>
	<a:midPointStop  offset="0.4364" style="stop-color:#0094EB"/>
	<a:midPointStop  offset="1" style="stop-color:#40B7FF"/>
</linearGradient>
<path fill="url(#SVGID_6_)" d="M26.774,13.874c0,0-3.112-3.241-3.555-2.799c-1.1,1.101-6.072,6.074-6.072,6.074
	s-4.973,4.971-6.073,6.071c-0.441,0.443,2.798,3.554,2.798,3.554s-0.173,0.898,0.402,1.476l6.986-6.989l6.986-6.985
	C27.673,13.7,26.774,13.874,26.774,13.874z"/>
<rect x="16.491" y="18.17" transform="matrix(0.7072 0.707 -0.707 0.7072 18.7312 -7.7613)" fill="#0094EB" width="4.491" height="1.129"/>
<rect x="12.226" y="22.433" transform="matrix(0.7073 0.7069 -0.7069 0.7073 20.4931 -3.4991)" fill="#0094EB" width="4.493" height="1.132"/>
<rect x="20.753" y="13.908" transform="matrix(0.7071 0.7071 -0.7071 0.7071 16.9703 -12.0237)" fill="#0094EB" width="4.493" height="1.131"/>
<path fill="#FFFFFF" d="M39.773,20.522c-1.112-1.672-23.203,6.198-23.887,8.087C15.381,30.008,40.816,22.085,39.773,20.522z"/>
</svg>
