<?xml version="1.0" encoding="utf-8"?>
<!-- Generator: Adobe Illustrator 15.0.0, SVG Export Plug-In . SVG Version: 6.00 Build 0)  -->
<!DOCTYPE svg PUBLIC "-//W3C//DTD SVG 1.1//EN" "http://www.w3.org/Graphics/SVG/1.1/DTD/svg11.dtd" [
	<!ENTITY ns_flows "http://ns.adobe.com/Flows/1.0/">
	<!ENTITY ns_extend "http://ns.adobe.com/Extensibility/1.0/">
	<!ENTITY ns_ai "http://ns.adobe.com/AdobeIllustrator/10.0/">
	<!ENTITY ns_graphs "http://ns.adobe.com/Graphs/1.0/">
]>
<svg version="1.1" id="Layer_1" xmlns:x="&ns_extend;" xmlns:i="&ns_ai;" xmlns:graph="&ns_graphs;"
	 xmlns="http://www.w3.org/2000/svg" xmlns:xlink="http://www.w3.org/1999/xlink" xmlns:a="http://ns.adobe.com/AdobeSVGViewerExtensions/3.0/"
	 x="0px" y="0px" width="64px" height="64px" viewBox="0 0 64 64" enable-background="new 0 0 64 64" xml:space="preserve">
<radialGradient id="SVGID_1_" cx="30.6826" cy="2.3662" r="6.9907" gradientTransform="matrix(1 0 0 1 0.0135 -0.0221)" gradientUnits="userSpaceOnUse">
	<stop  offset="0.2061" style="stop-color:#FFEBD4"/>
	<stop  offset="0.3827" style="stop-color:#FFE9CF"/>
	<stop  offset="0.597" style="stop-color:#FFE2C0"/>
	<stop  offset="0.8298" style="stop-color:#FFD6A8"/>
	<stop  offset="1" style="stop-color:#FFCC91"/>
	<a:midPointStop  offset="0.2061" style="stop-color:#FFEBD4"/>
	<a:midPointStop  offset="0.6667" style="stop-color:#FFEBD4"/>
	<a:midPointStop  offset="1" style="stop-color:#FFCC91"/>
</radialGradient>
<path fill="url(#SVGID_1_)" d="M35.773,4.207c0.173-0.253,0.282-0.574,0.282-0.969c0-1.339-1.215-1.855-2.162-1.558
	c-0.394-2.37-4.119-2.234-4.119,0.414c0,0.714,0.272,1.243,0.676,1.592c-0.553,0.387-0.948,1.024-0.948,1.933
	c0,2.479,2.887,3.003,4.133,1.591c0.771,1.942,4.094,1.654,4.094-0.874C37.729,4.984,36.776,4.28,35.773,4.207z"/>
<path fill="#E08200" d="M34.368,5.511c1.5,0.356,1.318-2.048-0.313-0.541c0.27-0.616-0.438-0.976-0.701-0.573
	c0.736-3.851-3.901-1.557-0.605,0.206C32.162,5.912,34.987,6.676,34.368,5.511z"/>
<radialGradient id="SVGID_2_" cx="38.1045" cy="3.1084" r="4.5935" gradientTransform="matrix(1 0 0 1 0.0135 -0.0221)" gradientUnits="userSpaceOnUse">
	<stop  offset="0.2061" style="stop-color:#FFEBD4"/>
	<stop  offset="0.3827" style="stop-color:#FFE9CF"/>
	<stop  offset="0.597" style="stop-color:#FFE2C0"/>
	<stop  offset="0.8298" style="stop-color:#FFD6A8"/>
	<stop  offset="1" style="stop-color:#FFCC91"/>
	<a:midPointStop  offset="0.2061" style="stop-color:#FFEBD4"/>
	<a:midPointStop  offset="0.6667" style="stop-color:#FFEBD4"/>
	<a:midPointStop  offset="1" style="stop-color:#FFCC91"/>
</radialGradient>
<path fill="url(#SVGID_2_)" d="M41.414,3.152c0-2.221-2.944-2.453-3.577-0.709c-0.783-1.025-2.771-0.695-2.771,0.997
	c0,0.82,0.469,1.316,1.041,1.498c-0.121,0.291-0.193,0.627-0.193,1.012c0,3.188,4.747,3.188,4.747,0
	c0-0.438-0.095-0.809-0.249-1.126C40.979,4.555,41.414,4.002,41.414,3.152z"/>
<path fill="#BF6F00" d="M39.964,3.491c-1.107-1.279-2.064,0.218-1.795,0.595c-1.326-0.847-2.076,1.71-0.248,2.003
	c-0.451-0.868,0.434-1.551,1.266-1.194C38.769,4.244,39.062,3.788,39.964,3.491z"/>
<radialGradient id="SVGID_3_" cx="25.6724" cy="3.4102" r="5.5838" gradientTransform="matrix(1 0 0 1 0.0135 -0.0221)" gradientUnits="userSpaceOnUse">
	<stop  offset="0.2061" style="stop-color:#FFEBD4"/>
	<stop  offset="0.3827" style="stop-color:#FFE9CF"/>
	<stop  offset="0.597" style="stop-color:#FFE2C0"/>
	<stop  offset="0.8298" style="stop-color:#FFD6A8"/>
	<stop  offset="1" style="stop-color:#FFCC91"/>
	<a:midPointStop  offset="0.2061" style="stop-color:#FFEBD4"/>
	<a:midPointStop  offset="0.6667" style="stop-color:#FFEBD4"/>
	<a:midPointStop  offset="1" style="stop-color:#FFCC91"/>
</radialGradient>
<path fill="url(#SVGID_3_)" d="M30.105,5.371c0.627-0.376,1.082-1.056,1.082-2.042c0-2.625-3.209-3.085-4.349-1.392
	c-0.807-0.983-2.775-0.647-2.775,1.018c0,0.436,0.139,0.774,0.353,1.029c-0.67,0.365-1.168,1.058-1.168,2.088
	c0,2.383,2.648,2.984,3.989,1.808c0.894,1.363,3.458,1.005,3.458-1.085C30.695,6.162,30.458,5.688,30.105,5.371z"/>
<radialGradient id="SVGID_4_" cx="42.0313" cy="8.5376" r="6.4604" gradientTransform="matrix(1 0 0 1 0.0135 -0.0221)" gradientUnits="userSpaceOnUse">
	<stop  offset="0.2061" style="stop-color:#FFEBD4"/>
	<stop  offset="0.3827" style="stop-color:#FFE9CF"/>
	<stop  offset="0.597" style="stop-color:#FFE2C0"/>
	<stop  offset="0.8298" style="stop-color:#FFD6A8"/>
	<stop  offset="1" style="stop-color:#FFCC91"/>
	<a:midPointStop  offset="0.2061" style="stop-color:#FFEBD4"/>
	<a:midPointStop  offset="0.6667" style="stop-color:#FFEBD4"/>
	<a:midPointStop  offset="1" style="stop-color:#FFCC91"/>
</radialGradient>
<path fill="url(#SVGID_4_)" d="M46.675,5.797c0.928-0.87,0.48-2.831-1.17-2.733c-0.432,0.025-0.76,0.186-0.999,0.415
	c-0.4-0.653-1.115-1.113-2.136-1.053c-3.16,0.186-2.883,4.963,0.277,4.777c0.175-0.011,0.336-0.04,0.489-0.077
	c-0.407,1.428,0.442,3.243,2.413,3.127C48.149,10.1,48.418,6.845,46.675,5.797z"/>
<path fill="#BF6F00" d="M44.342,5.251c-0.35-0.881-2.008-1.213-2.491-0.158c1.434-0.003,2.005,0.995,1.223,2.056
	c0.713-0.187,1.127,0.57,0.737,1.055C46.583,8.478,46.34,4.684,44.342,5.251z"/>
<radialGradient id="SVGID_5_" cx="19.6328" cy="6.3501" r="5.0625" gradientTransform="matrix(1 0 0 1 0.0135 -0.0221)" gradientUnits="userSpaceOnUse">
	<stop  offset="0.2061" style="stop-color:#FFEBD4"/>
	<stop  offset="0.3827" style="stop-color:#FFE9CF"/>
	<stop  offset="0.597" style="stop-color:#FFE2C0"/>
	<stop  offset="0.8298" style="stop-color:#FFD6A8"/>
	<stop  offset="1" style="stop-color:#FFCC91"/>
	<a:midPointStop  offset="0.2061" style="stop-color:#FFEBD4"/>
	<a:midPointStop  offset="0.6667" style="stop-color:#FFEBD4"/>
	<a:midPointStop  offset="1" style="stop-color:#FFCC91"/>
</radialGradient>
<path fill="url(#SVGID_5_)" d="M19.941,3.79c-1.364-0.369-3.053,0.39-3.053,2.295c0,3.147,4.608,3.185,4.736,0.125
	c1.364,0.369,3.054-0.39,3.054-2.294C24.678,0.77,20.07,0.731,19.941,3.79z"/>
<path fill="#BF6F00" d="M21.486,4.807c-0.477-0.47-1.033-0.146-0.854,0.328c-2.213-1.515-2.361,2.957,0.25,1.236
	c0.688,1.316,2.661-0.186,1.774-1.178C23.532,4.134,22.123,3.296,21.486,4.807z"/>
<radialGradient id="SVGID_6_" cx="13.3794" cy="10.0313" r="7.7146" gradientTransform="matrix(1 0 0 1 0.0135 -0.0221)" gradientUnits="userSpaceOnUse">
	<stop  offset="0.2061" style="stop-color:#FFEBD4"/>
	<stop  offset="0.3827" style="stop-color:#FFE9CF"/>
	<stop  offset="0.597" style="stop-color:#FFE2C0"/>
	<stop  offset="0.8298" style="stop-color:#FFD6A8"/>
	<stop  offset="1" style="stop-color:#FFCC91"/>
	<a:midPointStop  offset="0.2061" style="stop-color:#FFEBD4"/>
	<a:midPointStop  offset="0.6667" style="stop-color:#FFEBD4"/>
	<a:midPointStop  offset="1" style="stop-color:#FFCC91"/>
</radialGradient>
<path fill="url(#SVGID_6_)" d="M19.468,10.82c-0.443-0.382-0.91-0.553-1.358-0.574c-0.104-0.413-0.341-0.819-0.754-1.177
	c-2.043-1.763-4.597,0.854-3.407,2.816c-1.844-0.095-3.372,2.425-1.552,3.995c1.853,1.6,4.131-0.402,3.655-2.255
	c0.128,0.216,0.287,0.423,0.51,0.616C18.825,16.193,21.729,12.773,19.468,10.82z M15.805,13.063c0.001,0,0.002,0,0.003,0
	c0.001,0.005,0.004,0.009,0.005,0.014C15.81,13.072,15.807,13.068,15.805,13.063z"/>
<path fill="#E08200" d="M16.882,12.574c0.042,0.632-0.527,0.835-0.754,0.414c-0.28,2.521-3.539-0.108-0.722-0.936
	c-0.515-1.301,1.757-1.802,1.919-0.558C18.612,11.516,18.342,13.042,16.882,12.574z"/>
<radialGradient id="SVGID_7_" cx="20.4146" cy="8.5625" r="6.8396" gradientTransform="matrix(1 0 0 1 0.0135 -0.0221)" gradientUnits="userSpaceOnUse">
	<stop  offset="0.2061" style="stop-color:#FFEBD4"/>
	<stop  offset="0.3827" style="stop-color:#FFE9CF"/>
	<stop  offset="0.597" style="stop-color:#FFE2C0"/>
	<stop  offset="0.8298" style="stop-color:#FFD6A8"/>
	<stop  offset="1" style="stop-color:#FFCC91"/>
	<a:midPointStop  offset="0.2061" style="stop-color:#FFEBD4"/>
	<a:midPointStop  offset="0.6667" style="stop-color:#FFEBD4"/>
	<a:midPointStop  offset="1" style="stop-color:#FFCC91"/>
</radialGradient>
<path fill="url(#SVGID_7_)" d="M25.802,9.542c0.417-0.4,0.683-0.987,0.656-1.758c-0.087-2.54-3.222-2.867-4.252-1.171
	c-1.681-1.376-4.879-0.531-4.78,2.369c0.043,1.255,0.679,2.076,1.51,2.491c-0.249,0.318-0.403,0.737-0.385,1.266
	c0.069,2.028,2.478,2.353,3.418,1.12c1.457,2.014,5.343,1.316,5.233-1.878C27.162,10.781,26.58,9.974,25.802,9.542z"/>
<radialGradient id="SVGID_8_" cx="32.4248" cy="7.8262" r="7.248" gradientTransform="matrix(1 0 0 1 0.0135 -0.0221)" gradientUnits="userSpaceOnUse">
	<stop  offset="0.2061" style="stop-color:#FFEBD4"/>
	<stop  offset="0.3827" style="stop-color:#FFE9CF"/>
	<stop  offset="0.597" style="stop-color:#FFE2C0"/>
	<stop  offset="0.8298" style="stop-color:#FFD6A8"/>
	<stop  offset="1" style="stop-color:#FFCC91"/>
	<a:midPointStop  offset="0.2061" style="stop-color:#FFEBD4"/>
	<a:midPointStop  offset="0.6667" style="stop-color:#FFEBD4"/>
	<a:midPointStop  offset="1" style="stop-color:#FFCC91"/>
</radialGradient>
<path fill="url(#SVGID_8_)" d="M39.284,10.353c-0.158-0.789-0.563-1.328-1.07-1.656c0.279-0.438,0.411-0.997,0.275-1.669
	c-0.539-2.686-4.215-2.178-4.423,0.162c-1.116-0.279-2.506,0.537-2.2,2.063c0.089,0.447,0.291,0.778,0.553,1.011
	c-0.786,0.427-1.334,1.279-1.098,2.461c0.501,2.491,3.636,2.298,4.382,0.462C37.355,13.928,39.765,12.742,39.284,10.353z"/>
<radialGradient id="SVGID_9_" cx="29.1143" cy="8.7134" r="6.3191" gradientTransform="matrix(1 0 0 1 0.0135 -0.0221)" gradientUnits="userSpaceOnUse">
	<stop  offset="0.2061" style="stop-color:#FFEBD4"/>
	<stop  offset="0.3827" style="stop-color:#FFE9CF"/>
	<stop  offset="0.597" style="stop-color:#FFE2C0"/>
	<stop  offset="0.8298" style="stop-color:#FFD6A8"/>
	<stop  offset="1" style="stop-color:#FFCC91"/>
	<a:midPointStop  offset="0.2061" style="stop-color:#FFEBD4"/>
	<a:midPointStop  offset="0.6667" style="stop-color:#FFEBD4"/>
	<a:midPointStop  offset="1" style="stop-color:#FFCC91"/>
</radialGradient>
<path fill="url(#SVGID_9_)" d="M33.563,8.711c-0.142-2.271-2.837-2.546-3.802-1.101c-0.994-2.291-4.928-1.73-4.744,1.253
	c0.084,1.355,0.955,2.099,1.943,2.293c-0.265,0.494-0.417,1.09-0.373,1.803c0.266,4.283,6.638,3.883,6.373-0.4
	c-0.045-0.727-0.276-1.308-0.611-1.769C33.073,10.485,33.63,9.784,33.563,8.711z"/>
<path fill="#E08200" d="M26.994,9.193c1.38-1.812,2.787,0.119,2.459,0.647c1.707-1.248,2.929,2.118,0.5,2.667
	c0.533-1.205-0.712-2.045-1.798-1.497C28.66,10.103,28.228,9.516,26.994,9.193z"/>
<radialGradient id="SVGID_10_" cx="39.4502" cy="8.6353" r="7.3982" gradientTransform="matrix(1 0 0 1 0.0135 -0.0221)" gradientUnits="userSpaceOnUse">
	<stop  offset="0.2061" style="stop-color:#FFEBD4"/>
	<stop  offset="0.3827" style="stop-color:#FFE9CF"/>
	<stop  offset="0.597" style="stop-color:#FFE2C0"/>
	<stop  offset="0.8298" style="stop-color:#FFD6A8"/>
	<stop  offset="1" style="stop-color:#FFCC91"/>
	<a:midPointStop  offset="0.2061" style="stop-color:#FFEBD4"/>
	<a:midPointStop  offset="0.6667" style="stop-color:#FFEBD4"/>
	<a:midPointStop  offset="1" style="stop-color:#FFCC91"/>
</radialGradient>
<path fill="url(#SVGID_10_)" d="M43.835,7.973c-0.116-2.489-3.739-4.065-5.393-1.339c-0.621,1.024-0.578,2.021-0.164,2.814
	c-0.566,0.102-1.109,0.443-1.508,1.101c-1.318,2.171,1.12,4.186,2.908,3.34c0.65,2.082,3.781,3.152,5.282,0.676
	c0.649-1.07,0.569-2.107,0.103-2.916c0.381-0.128,0.74-0.392,1.014-0.843C47.127,9.076,45.294,7.466,43.835,7.973z"/>
<path fill="#E08200" d="M43.081,10.811c0.736,0.883,0.138,2.869-1.26,2.788c0.824-1.552,0.089-2.741-1.489-2.503
	c0.606-0.664,0.038-1.548-0.702-1.404C40.927,6.534,44.828,8.973,43.081,10.811z"/>
<radialGradient id="SVGID_11_" cx="44.5439" cy="10.1792" r="8.1144" gradientTransform="matrix(1 0 0 1 0.0135 -0.0221)" gradientUnits="userSpaceOnUse">
	<stop  offset="0.2061" style="stop-color:#FFEBD4"/>
	<stop  offset="0.3827" style="stop-color:#FFE9CF"/>
	<stop  offset="0.597" style="stop-color:#FFE2C0"/>
	<stop  offset="0.8298" style="stop-color:#FFD6A8"/>
	<stop  offset="1" style="stop-color:#FFCC91"/>
	<a:midPointStop  offset="0.2061" style="stop-color:#FFEBD4"/>
	<a:midPointStop  offset="0.6667" style="stop-color:#FFEBD4"/>
	<a:midPointStop  offset="1" style="stop-color:#FFCC91"/>
</radialGradient>
<path fill="url(#SVGID_11_)" d="M49.841,12.516c1.947-2.543-1.777-5.649-3.885-3.124c-0.51,0.611-0.674,1.26-0.611,1.859
	c-0.672-0.028-1.373,0.23-1.951,0.924c-1.951,2.337,1.047,5.218,3.213,3.765c0.746,1.404,2.786,2.133,4.15,0.498
	C52.032,14.908,51.185,13.148,49.841,12.516z"/>
<path fill="#E08200" d="M47.92,12.278c0.698-0.052,0.927,0.587,0.466,0.846c2.79,0.289-0.087,3.981-1.028,0.821
	c-1.436,0.59-2.013-1.96-0.639-2.152C46.729,10.347,48.423,10.633,47.92,12.278z"/>
<radialGradient id="SVGID_12_" cx="47.3164" cy="17.5347" r="7.8096" gradientTransform="matrix(1 0 0 1 0.0135 -0.0221)" gradientUnits="userSpaceOnUse">
	<stop  offset="0.2061" style="stop-color:#FFEBD4"/>
	<stop  offset="0.3827" style="stop-color:#FFE9CF"/>
	<stop  offset="0.597" style="stop-color:#FFE2C0"/>
	<stop  offset="0.8298" style="stop-color:#FFD6A8"/>
	<stop  offset="1" style="stop-color:#FFCC91"/>
	<a:midPointStop  offset="0.2061" style="stop-color:#FFEBD4"/>
	<a:midPointStop  offset="0.6667" style="stop-color:#FFEBD4"/>
	<a:midPointStop  offset="1" style="stop-color:#FFCC91"/>
</radialGradient>
<path fill="url(#SVGID_12_)" d="M52.835,19.826c1.584-1.963-0.884-5.131-3.292-3.459c-0.714,0.496-1.024,1.148-1.062,1.804
	c-0.566-0.118-1.199-0.019-1.83,0.419c-2.604,1.81,0.014,5.705,2.62,4.055c0.478,1.359,2.077,2.345,3.654,1.249
	C54.61,22.723,54.105,20.679,52.835,19.826z"/>
<path fill="#E08200" d="M49.225,20.762c-0.116,0.671,0.472,0.953,0.762,0.529c0.019,2.73,3.804,0.285,0.878-0.922
	c0.696-1.334-1.682-2.13-1.993-0.815C47.491,19.43,47.608,21.096,49.225,20.762z"/>
<radialGradient id="SVGID_13_" cx="41.4082" cy="15.9834" r="7.4834" gradientTransform="matrix(1 0 0 1 0.0135 -0.0221)" gradientUnits="userSpaceOnUse">
	<stop  offset="0.2061" style="stop-color:#FFEBD4"/>
	<stop  offset="0.3827" style="stop-color:#FFE9CF"/>
	<stop  offset="0.597" style="stop-color:#FFE2C0"/>
	<stop  offset="0.8298" style="stop-color:#FFD6A8"/>
	<stop  offset="1" style="stop-color:#FFCC91"/>
	<a:midPointStop  offset="0.2061" style="stop-color:#FFEBD4"/>
	<a:midPointStop  offset="0.6667" style="stop-color:#FFEBD4"/>
	<a:midPointStop  offset="1" style="stop-color:#FFCC91"/>
</radialGradient>
<path fill="url(#SVGID_13_)" d="M44.071,14.131c-0.914-1.935-4.309-1.94-4.686,0.773c-0.115,0.82,0.105,1.48,0.506,1.955
	c-0.881,0.375-1.595,1.174-1.773,2.454c-0.475,3.41,3.611,4.597,5.396,2.605c0.869,1.426,3.486,1.353,3.787-0.811
	c0.078-0.564-0.041-1.03-0.271-1.4c0.938-0.351,1.709-1.158,1.896-2.497C49.356,14.115,46.024,12.847,44.071,14.131z"/>
<radialGradient id="SVGID_14_" cx="26.771" cy="14.73" r="8.334" gradientTransform="matrix(1 0 0 1 0.0135 -0.0221)" gradientUnits="userSpaceOnUse">
	<stop  offset="0.2061" style="stop-color:#FFEBD4"/>
	<stop  offset="0.3827" style="stop-color:#FFE9CF"/>
	<stop  offset="0.597" style="stop-color:#FFE2C0"/>
	<stop  offset="0.8298" style="stop-color:#FFD6A8"/>
	<stop  offset="1" style="stop-color:#FFCC91"/>
	<a:midPointStop  offset="0.2061" style="stop-color:#FFEBD4"/>
	<a:midPointStop  offset="0.6667" style="stop-color:#FFEBD4"/>
	<a:midPointStop  offset="1" style="stop-color:#FFCC91"/>
</radialGradient>
<path fill="url(#SVGID_14_)" d="M33.032,17.835c0.279-0.219,0.51-0.536,0.646-0.974c0.462-1.48-0.705-2.479-1.855-2.48
	c0.382-2.759-3.788-3.915-4.701-0.986c-0.246,0.791-0.126,1.471,0.2,2c-0.746,0.232-1.402,0.801-1.715,1.805
	c-0.855,2.742,2.158,4.334,4.024,3.209c0.183,2.42,3.957,3.266,4.83,0.468C34.928,19.381,34.117,18.268,33.032,17.835z"/>
<path fill="#BF6F00" d="M31.027,18.784c1.537,0.922,2.164-1.804-0.156-0.706c0.51-0.59-0.148-1.232-0.58-0.881
	c2.143-4.004-3.779-3.09-0.739,0.016C28.447,18.455,31.312,20.291,31.027,18.784z"/>
<radialGradient id="SVGID_15_" cx="36.5918" cy="14.3809" r="6.4932" gradientTransform="matrix(1 0 0 1 0.0135 -0.0221)" gradientUnits="userSpaceOnUse">
	<stop  offset="0.2061" style="stop-color:#FFEBD4"/>
	<stop  offset="0.3827" style="stop-color:#FFE9CF"/>
	<stop  offset="0.597" style="stop-color:#FFE2C0"/>
	<stop  offset="0.8298" style="stop-color:#FFD6A8"/>
	<stop  offset="1" style="stop-color:#FFCC91"/>
	<a:midPointStop  offset="0.2061" style="stop-color:#FFEBD4"/>
	<a:midPointStop  offset="0.6667" style="stop-color:#FFEBD4"/>
	<a:midPointStop  offset="1" style="stop-color:#FFCC91"/>
</radialGradient>
<path fill="url(#SVGID_15_)" d="M36.403,13.119c-0.873-1.656-3.791-1.669-4.195,0.748c-0.196,1.172,0.355,1.994,1.126,2.393
	c-0.242,0.387-0.425,0.85-0.517,1.398c-0.762,4.556,6.017,5.71,6.781,1.153c0.104-0.624,0.058-1.178-0.086-1.669
	c0.875-0.246,1.629-0.93,1.832-2.143C41.876,11.827,37.725,10.779,36.403,13.119z"/>
<path fill="#E08200" d="M39.19,15.131c-1.273-2.098-2.996-0.189-2.707,0.412c-1.688-1.529-3.373,1.938-0.83,2.802
	c-0.438-1.351,0.99-2.108,2.092-1.399C37.304,15.914,37.833,15.336,39.19,15.131z"/>
<radialGradient id="SVGID_16_" cx="20.4038" cy="15.3633" r="7.3224" gradientTransform="matrix(1 0 0 1 0.0135 -0.0221)" gradientUnits="userSpaceOnUse">
	<stop  offset="0.2061" style="stop-color:#FFEBD4"/>
	<stop  offset="0.3827" style="stop-color:#FFE9CF"/>
	<stop  offset="0.597" style="stop-color:#FFE2C0"/>
	<stop  offset="0.8298" style="stop-color:#FFD6A8"/>
	<stop  offset="1" style="stop-color:#FFCC91"/>
	<a:midPointStop  offset="0.2061" style="stop-color:#FFEBD4"/>
	<a:midPointStop  offset="0.6667" style="stop-color:#FFEBD4"/>
	<a:midPointStop  offset="1" style="stop-color:#FFCC91"/>
</radialGradient>
<path fill="url(#SVGID_16_)" d="M26.213,17.943c0.821-0.494,1.417-1.385,1.417-2.678c0-3.444-4.208-4.048-5.703-1.825
	c-1.058-1.291-3.639-0.851-3.639,1.335c0,0.57,0.182,1.014,0.461,1.348c-0.879,0.479-1.531,1.387-1.531,2.738
	c0,3.126,3.472,3.914,5.23,2.371c1.171,1.787,4.535,1.316,4.535-1.423C26.985,18.98,26.676,18.357,26.213,17.943z"/>
<path fill="#E08200" d="M21.041,16.475c-1.17,0.395-1.727,2.56-0.396,3.276c0.105-1.892,1.445-2.569,2.763-1.455
	c-0.186-0.956,0.828-1.444,1.428-0.894C25.403,13.766,20.458,13.797,21.041,16.475z"/>
<radialGradient id="SVGID_17_" cx="11.8608" cy="15.2529" r="8.5559" gradientTransform="matrix(1 0 0 1 0.0135 -0.0221)" gradientUnits="userSpaceOnUse">
	<stop  offset="0.2061" style="stop-color:#FFEBD4"/>
	<stop  offset="0.3827" style="stop-color:#FFE9CF"/>
	<stop  offset="0.597" style="stop-color:#FFE2C0"/>
	<stop  offset="0.8298" style="stop-color:#FFD6A8"/>
	<stop  offset="1" style="stop-color:#FFCC91"/>
	<a:midPointStop  offset="0.2061" style="stop-color:#FFEBD4"/>
	<a:midPointStop  offset="0.6667" style="stop-color:#FFEBD4"/>
	<a:midPointStop  offset="1" style="stop-color:#FFCC91"/>
</radialGradient>
<path fill="url(#SVGID_17_)" d="M18.027,18.084c0.465-0.45,0.776-1.1,0.776-1.959c0-3.606-5.365-3.606-5.365,0
	c0,0.039,0.009,0.072,0.011,0.111C11.908,15.82,10,16.678,10,18.828c0,2.334,2.246,3.147,3.831,2.459
	c0.955,2.475,5.167,2.119,5.167-1.078C18.999,19.233,18.6,18.531,18.027,18.084z"/>
<path fill="#F2F5F7" d="M44.207,20.997c-2.401,0.084-4.804,0.168-7.202,0.252c-0.088-2.781-6.937-2.542-6.765,0.236
	c-2.322,0.08-4.638,0.162-6.955,0.242l0,0c-0.194-2.485-6.273-2.26-6.057,0.213c-0.121-0.001-0.164,9.396,5.293,41.24
	c6.608,0.272,13.193,0.547,19.761,0.819C58.212,30.555,44.753,20.997,44.207,20.997z"/>
<path fill="#B3C2C6" d="M51.061,23.71c0.117-2.049-1.891-2.852-1.991-0.807l0,0c-0.806-0.311-1.509-0.583-2.32-0.894
	c0.185-1.973-2.564-3-2.542-1.007C43.692,35.335,42.78,49.668,42.282,64c1.789-1.08,3.601-2.16,5.436-3.24
	C52.594,30.627,51.157,23.709,51.061,23.71z"/>
<path fill="#E81C27" d="M11.158,22.154c2.451,13.611,4.708,27.225,6.761,40.836c1.535,0.063,3.069,0.127,4.603,0.19
	c-1.598-13.746-3.363-27.494-5.297-41.24C16.979,19.444,10.845,19.659,11.158,22.154z"/>
<path fill="#E81C27" d="M23.285,21.728c1.406,13.881,2.681,27.763,3.821,41.644c1.733,0.071,3.464,0.144,5.197,0.215
	c-0.598-14.033-1.285-28.067-2.063-42.101C30.093,18.778,23.051,19.022,23.285,21.728z"/>
<path fill="#E81C27" d="M37.005,21.249c0.092,14.18,0.143,28.358,0.152,42.538c1.711,0.07,3.418,0.143,5.125,0.213
	c0.624-14.334,1.267-28.669,1.925-43.003C44.188,18.503,36.905,18.754,37.005,21.249z"/>
<path fill="#C21413" d="M46.749,22.01C46,35.621,44.968,49.193,44.272,62.805c0.626-0.375,1.254-0.749,1.887-1.124
	c0.861-12.926,1.968-25.851,2.91-38.777C49.184,20.716,46.837,19.821,46.749,22.01z"/>
<path fill="#C21413" d="M51.061,23.71c-1.106,12.363-2.339,24.687-3.343,37.05c0.574-0.338,1.147-0.675,1.723-1.012
	c1.083-11.775,2.22-23.554,3.409-35.329C52.962,22.694,51.155,21.986,51.061,23.71z"/>
</svg>
