<?xml version="1.0" encoding="utf-8"?>
<!-- Generator: Adobe Illustrator 15.0.0, SVG Export Plug-In . SVG Version: 6.00 Build 0)  -->
<!DOCTYPE svg PUBLIC "-//W3C//DTD SVG 1.1//EN" "http://www.w3.org/Graphics/SVG/1.1/DTD/svg11.dtd" [
	<!ENTITY ns_flows "http://ns.adobe.com/Flows/1.0/">
	<!ENTITY ns_extend "http://ns.adobe.com/Extensibility/1.0/">
	<!ENTITY ns_ai "http://ns.adobe.com/AdobeIllustrator/10.0/">
	<!ENTITY ns_graphs "http://ns.adobe.com/Graphs/1.0/">
]>
<svg version="1.1" id="Layer_1" xmlns:x="&ns_extend;" xmlns:i="&ns_ai;" xmlns:graph="&ns_graphs;"
	 xmlns="http://www.w3.org/2000/svg" xmlns:xlink="http://www.w3.org/1999/xlink" xmlns:a="http://ns.adobe.com/AdobeSVGViewerExtensions/3.0/"
	 x="0px" y="0px" width="64px" height="64px" viewBox="0 0 64 64" enable-background="new 0 0 64 64" xml:space="preserve">
<linearGradient id="SVGID_1_" gradientUnits="userSpaceOnUse" x1="69.999" y1="91.6709" x2="69.999" y2="54.4014" gradientTransform="matrix(0.9972 -0.0748 0.0748 0.9972 -26.4791 -33.8878)">
	<stop  offset="0" style="stop-color:#B8CAD9"/>
	<stop  offset="0.0755" style="stop-color:#BACCDC"/>
	<stop  offset="0.4623" style="stop-color:#C2D4E5"/>
	<stop  offset="1" style="stop-color:#C5D7E8"/>
	<a:midPointStop  offset="0" style="stop-color:#B8CAD9"/>
	<a:midPointStop  offset="0.2303" style="stop-color:#B8CAD9"/>
	<a:midPointStop  offset="1" style="stop-color:#C5D7E8"/>
</linearGradient>
<path fill="url(#SVGID_1_)" d="M41.433,15.572l0.271,7.509c0,0,0.632-1.48,1.346-1.938c1.529-0.979,7.435-1.881,9.125-0.456
	c3.305,2.784,1.351,20.511-8.758,23.434c-1.619,0.47-2.02-2.782-2.02-2.782l-0.771,11.669c0,0,0.972-3.183,2.049-3.572
	c17.128-6.197,16.199-27.467,13.648-30.52c-2.188-2.618-4.485-2.41-13.22-2.042C42.151,16.913,41.433,15.572,41.433,15.572z"/>
<linearGradient id="SVGID_2_" gradientUnits="userSpaceOnUse" x1="69.8545" y1="93.7783" x2="69.8545" y2="53.3232" gradientTransform="matrix(0.9972 -0.0748 0.0748 0.9972 -26.4791 -33.8878)">
	<stop  offset="0" style="stop-color:#B8CAD9"/>
	<stop  offset="0.2377" style="stop-color:#C3D5E6"/>
	<stop  offset="0.5566" style="stop-color:#CBDDEF"/>
	<stop  offset="1" style="stop-color:#CEE0F2"/>
	<a:midPointStop  offset="0" style="stop-color:#B8CAD9"/>
	<a:midPointStop  offset="0.2303" style="stop-color:#B8CAD9"/>
	<a:midPointStop  offset="1" style="stop-color:#CEE0F2"/>
</linearGradient>
<path fill="url(#SVGID_2_)" d="M40.231,55.149l0.915-13.826l0.503-0.012c0.086,0.701,0.551,2.693,1.51,2.625
	c0.059-0.004,0.12-0.016,0.183-0.033c6.163-1.781,8.556-8.869,9.298-11.833c1.218-4.863,0.933-9.894-0.636-11.217
	c-0.647-0.545-2.138-0.778-4.091-0.641c-1.906,0.134-3.934,0.614-4.717,1.115c-0.535,0.344-1.089,1.441-1.257,1.833l-0.444,1.046
	l-0.353-9.694l0.518,0.96c0.18,0.335,0.79,1.2,1.432,1.172l1.004-0.044c7.873-0.331,10.248-0.434,12.43,2.176
	c1.511,1.809,2.315,8.907,0.141,15.919c-1.58,5.098-5.275,11.83-13.898,14.95c-0.698,0.254-1.535,2.234-1.899,3.422L40.231,55.149z
	 M41.397,44.092l-0.408,7.238c0.4-0.901,0.965-1.881,1.594-2.106c8.432-3.053,11.977-9.309,13.527-14.307
	c2.26-7.291,0.89-13.297-0.316-14.742c-2.021-2.417-4.138-2.33-12.008-1.995l-1.002,0.043c-0.577,0.025-1.063-0.35-1.4-0.722
	l0.383,4.775c0.258-0.436,0.761-1.078,1.14-1.32c0.862-0.555,2.952-1.058,4.972-1.2c1.229-0.085,3.443-0.102,4.471,0.763
	c1.713,1.442,2.125,7.888,0.851,12.976c-0.763,3.042-3.185,10.438-9.638,12.17C42.46,45.96,41.696,44.857,41.397,44.092z"/>
<path fill="#C5D7E8" d="M42.033,53.461V7.086c0-1.309-35.405-1.309-35.405,0v46.375c0,0-0.331,0.59-0.331,4.076
	c0,5.951,36.066,5.951,36.066,0C42.363,54.051,42.033,53.461,42.033,53.461z"/>
<linearGradient id="SVGID_3_" gradientUnits="userSpaceOnUse" x1="24.3306" y1="55.0479" x2="24.3306" y2="15.1011">
	<stop  offset="0" style="stop-color:#F59E01"/>
	<stop  offset="0.3749" style="stop-color:#F39B01"/>
	<stop  offset="0.6448" style="stop-color:#EB9203"/>
	<stop  offset="0.8811" style="stop-color:#DD8205"/>
	<stop  offset="1" style="stop-color:#D47706"/>
	<a:midPointStop  offset="0" style="stop-color:#F59E01"/>
	<a:midPointStop  offset="0.7697" style="stop-color:#F59E01"/>
	<a:midPointStop  offset="1" style="stop-color:#D47706"/>
</linearGradient>
<path fill="url(#SVGID_3_)" d="M7.783,16.151c0,0,0.623,28.92,0.623,35.865c0,4.043,31.851,4.043,31.851,0
	c0-6.603,0.622-35.865,0.622-35.865C40.705,14.75,7.956,14.75,7.783,16.151z"/>
<path fill="#FFE8C9" d="M7.783,7.497c0,0,0,3.577,0,8.654c12.21-0.343,20.885-0.343,33.095,0c0-5.077,0-8.654,0-8.654
	C40.878,6.505,7.783,6.505,7.783,7.497z"/>
<path fill="#D47706" d="M23.717,44.187c0,3.419-5.338,3.419-5.338,0C18.379,40.766,23.717,40.766,23.717,44.187z"/>
<path fill="#D47706" d="M19.714,36.135c0,2.053-3.203,2.053-3.203,0C16.511,34.083,19.714,34.083,19.714,36.135z"/>
<path fill="#D47706" d="M24.518,33.058c0,2.734-4.271,2.734-4.271,0C20.247,30.322,24.518,30.32,24.518,33.058z"/>
<path fill="#D47706" d="M19.18,27.286c0,1.367-2.135,1.367-2.135,0C17.044,25.917,19.18,25.917,19.18,27.286z"/>
<path fill="#B2C1D1" d="M8.22,55.88c12.963,3.714,15.497,4.446,30.322-0.196C27.333,56.722,18.658,57.254,8.22,55.88z"/>
<path fill="#B2C1D1" d="M12.95,58.331c8.442,2.445,17.943,1.82,26.765-1.052C30.713,57.58,22,58.766,12.95,58.331z"/>
<linearGradient id="SVGID_4_" gradientUnits="userSpaceOnUse" x1="12.2739" y1="49.2656" x2="12.2739" y2="8.0661">
	<stop  offset="0" style="stop-color:#FFFFFF;stop-opacity:0"/>
	<stop  offset="0.1142" style="stop-color:#FFFFFF;stop-opacity:0.1142"/>
	<stop  offset="1" style="stop-color:#FFFFFF"/>
	<a:midPointStop  offset="0" style="stop-color:#FFFFFF;stop-opacity:0"/>
	<a:midPointStop  offset="0.2303" style="stop-color:#FFFFFF;stop-opacity:0"/>
	<a:midPointStop  offset="1" style="stop-color:#FFFFFF"/>
</linearGradient>
<path opacity="0.5" fill="url(#SVGID_4_)" enable-background="new    " d="M10.099,13.077c0.221,12.399,0.967,25.111,0.136,34.82
	c-0.117,1.343,4.071,2.197,4.122,0.127c0.24-9.481-0.052-23.485-0.146-34.947H10.099z"/>
<path fill="#FFF3E3" d="M6.004,9.168c0.202-3.888,2.313-3.651,4.514-4.12c2.258-0.481,2.886-1.697,6.335-2.686
	c4.725-1.353,8.72,1.581,12.544,0.598c7.346-1.889,15.141,3.682,12.636,6.388c-0.878-1.282-3.46-3.01-5.858,0.642
	c-1.602,2.437,0.125,6.255,0.125,8.912c0,3.593-2.928,3.178-2.928,0c0-2.827,1.323-6.667-0.907-7.975
	c-5.365-3.15-8.312,3.845-11.417,0.284c-4.374-5.018-5.758,2.785-8.995-1.992C10.187,6.462,5.849,12.125,6.004,9.168z"/>
<path fill="#FFFFFF" d="M11.365,5.973c0,0-3.8-0.269-4.433,1.71C6.3,9.661,10.188,6.997,11.365,5.973z"/>
<path fill="#FFFFFF" d="M34.387,16.81c0,0-1.38,1.888-0.171,3.572C34.95,21.401,34.387,16.81,34.387,16.81z"/>
<path fill="#FFFFFF" d="M15.716,6.09c2.694-0.245,2.461,0.531,5.293,0.531c3.597,0,4.401-1.904,8.195-1.592
	c0,0-3.884-1.549-9.099,0.461c0,0-0.022-0.523,1.194-1.422C18.456,4.234,17.914,5.552,15.716,6.09z"/>
</svg>
