<?xml version="1.0" encoding="utf-8"?>
<!-- Generator: Adobe Illustrator 24.1.2, SVG Export Plug-In . SVG Version: 6.00 Build 0)  -->
<svg version="1.1" id="Layer_1" xmlns="http://www.w3.org/2000/svg" xmlns:xlink="http://www.w3.org/1999/xlink" x="0px" y="0px"
	 width="64px" height="64px" viewBox="0 0 64 64" style="enable-background:new 0 0 64 64;" xml:space="preserve">
<style type="text/css">
	.st0{fill:#F9C802;}
	.st1{fill:#CFD8DD;}
	.st2{fill:url(#SVGID_1_);}
	.st3{fill:#FFFFFF;}
	.st4{fill:#C20067;}
	.st5{fill:#93E67F;}
	.st6{fill:#302C3B;}
	.st7{fill:#E6EBEF;}
	.st8{fill:#E81566;}
	.st9{fill:url(#SVGID_2_);}
	.st10{fill:url(#SVGID_3_);}
	.st11{fill:#014D87;}
	.st12{fill:#FFE12C;}
	.st13{fill:#006DAE;}
	.st14{fill:#018BC9;}
	.st15{fill:url(#SVGID_4_);}
	.st16{fill:url(#SVGID_5_);}
	.st17{fill:#F9B700;}
</style>
<path class="st0" d="M4.27,0c-2.84,0-2.84,4.27,0,4.27C1.78,4.27,1.78,0,4.27,0z"/>
<path class="st0" d="M4.27,0c2.49,0,2.49,4.27,0,4.27C7.11,4.27,7.11,0,4.27,0z"/>
<path class="st0" d="M3.79,2.13C3.79,0.96,4.27,0,4.27,0s0.47,0.96,0.47,2.13S4.27,4.27,4.27,4.27S3.79,3.31,3.79,2.13z"/>
<path class="st0" d="M3.89,0.04c-1.6,0.45-1.6,3.74,0,4.19C3,3.29,3,0.98,3.89,0.04z"/>
<path class="st0" d="M4.64,4.23c1.6-0.45,1.6-3.74,0-4.19C5.54,0.98,5.54,3.29,4.64,4.23z"/>
<path class="st1" d="M4.4,61.3l-0.5-0.13c11.76-34.39,0.72-50.53,0.61-50.68l0.45-0.24C5.07,10.41,16.23,26.72,4.4,61.3z"/>
<radialGradient id="SVGID_1_" cx="36.8647" cy="37.2687" r="20.3854" gradientTransform="matrix(1.0221 0 0 0.6647 2.1161 14.6981)" gradientUnits="userSpaceOnUse">
	<stop  offset="0" style="stop-color:#FF5E9C"/>
	<stop  offset="0.3985" style="stop-color:#FF5C9B"/>
	<stop  offset="0.6114" style="stop-color:#FF5496"/>
	<stop  offset="0.7805" style="stop-color:#FE468E"/>
	<stop  offset="0.9257" style="stop-color:#FD3382"/>
	<stop  offset="1" style="stop-color:#FD267A"/>
</radialGradient>
<path class="st2" d="M18.73,34.91c-3.62,0.19-3.4,5.86-1.9,7.58c1.33,1.52,6.07,2.19,7.99,2.91c2.36,0.88,13.08,0.25,13.77-0.05
	c2.1-0.91,5.13-1.56,11.05-1.09c3.04,0.24,8.67,2.02,13.8,1.78c0.15-3.12-3.06-5.13-3.06-6.13c0-1.49,2.76-2.37,3.39-6.12
	c-5.08-0.15-12.13,3.29-13.55,3.29c-7.17,0-8.54-2.78-11.5-3.34c-2.28-1.64-9.29-0.49-9.46-0.39
	C26.22,35.36,19.09,34.89,18.73,34.91z"/>
<path class="st3" d="M25.38,38.44c0,3.33-4.66,3.33-4.66,0C20.72,35.11,25.38,35.11,25.38,38.44z"/>
<path class="st4" d="M25.04,38.4c0,2.8-4.1,2.8-4.1,0S25.04,35.61,25.04,38.4z"/>
<path class="st5" d="M24.31,38.71c0,2.18-3.2,2.18-3.2,0C21.11,36.52,24.31,36.52,24.31,38.71z"/>
<path class="st6" d="M23.31,39.05c0,1.26-1.84,1.26-1.84,0C21.47,37.8,23.31,37.8,23.31,39.05z"/>
<path class="st4" d="M46.93,43.94c2.59-0.04,2.59-3.73,0-3.77C48.63,40.74,48.63,43.36,46.93,43.94z"/>
<path class="st4" d="M47.89,40.78c2.67-0.06,1.56-4.35-1.15-3.61C48.54,37.25,49.34,39.76,47.89,40.78z"/>
<path class="st4" d="M45.95,41.46c2.13-0.04,2.13-3.26,0-3.3C47.1,38.67,47.1,40.96,45.95,41.46z"/>
<path class="st4" d="M45.03,39.91c1.94-0.04,1.94-3.26,0-3.3C46.18,37.11,46.18,39.4,45.03,39.91z"/>
<path class="st4" d="M44.91,43.55c2.02-0.04,2.02-3.26,0-3.3C46.06,40.75,46.06,43.04,44.91,43.55z"/>
<path class="st4" d="M43.9,41.67c2.02-0.04,2.02-3.26,0-3.3C45.05,38.88,45.05,41.17,43.9,41.67z"/>
<path class="st4" d="M43.04,39.47c1.76-0.03,1.76-3.26,0-3.3C44.2,36.68,44.2,38.97,43.04,39.47z"/>
<path class="st4" d="M42.72,43.47c2.02-0.04,2.02-3.26,0-3.3C43.87,40.67,43.87,42.96,42.72,43.47z"/>
<path class="st4" d="M40.92,43.74c2-0.03,2-2.99,0-3.03C42.07,41.18,42.07,43.28,40.92,43.74z"/>
<path class="st4" d="M41.8,41.46c2.04-0.04,2.04-3.26,0-3.3C42.96,38.67,42.96,40.96,41.8,41.46z"/>
<path class="st4" d="M41.97,37.99c1.89-0.03,1.89-2.58,0-2.61C43.13,35.77,43.13,37.59,41.97,37.99z"/>
<path class="st4" d="M40.87,39.53c2.15-0.04,2.15-3.26,0-3.3C42.02,36.74,42.02,39.03,40.87,39.53z"/>
<path class="st4" d="M39.94,41.89c1.97-0.04,1.97-3.26,0-3.3C41.09,39.09,41.09,41.38,39.94,41.89z"/>
<path class="st4" d="M38.98,44.2c2.07-0.04,2.07-3.26,0-3.3C40.13,41.41,40.13,43.7,38.98,44.2z"/>
<path class="st4" d="M39.83,37.99c2.07-0.04,2.07-3.26,0-3.3C40.99,35.19,40.99,37.48,39.83,37.99z"/>
<path class="st4" d="M38.83,36.34c1.99-0.03,1.99-2.46,0-2.49C39.99,34.23,39.99,35.96,38.83,36.34z"/>
<path class="st4" d="M37.22,44.48c2.21-0.04,2.21-3.26,0-3.3C38.37,41.68,38.37,43.97,37.22,44.48z"/>
<path class="st4" d="M37.95,38.26c2.03-0.04,2.03-3.26,0-3.3C39.11,35.46,39.11,37.76,37.95,38.26z"/>
<path class="st4" d="M36.93,36.39c1.87-0.03,1.87-3.26,0-3.3C38.08,33.6,38.08,35.89,36.93,36.39z"/>
<path class="st4" d="M35.89,38.38c2.11-0.04,2.11-3.26,0-3.3C37.05,35.58,37.05,37.87,35.89,38.38z"/>
<path class="st4" d="M34.74,36.28c2.11-0.04,2.11-3.26,0-3.3C35.9,33.49,35.9,35.78,34.74,36.28z"/>
<path class="st4" d="M33.76,38.33c2.15-0.04,2.15-3.26,0-3.3C34.92,35.53,34.92,37.83,33.76,38.33z"/>
<path class="st4" d="M32.61,36.34c2.05-0.04,2.05-3.26,0-3.3C33.77,33.54,33.77,35.83,32.61,36.34z"/>
<path class="st4" d="M31.53,38.67c2.05-0.04,2.05-3.26,0-3.3C32.69,35.88,32.69,38.17,31.53,38.67z"/>
<path class="st4" d="M29.55,37.64c2.07-0.04,2.07-3.26,0-3.3C30.7,34.85,30.7,37.14,29.55,37.64z"/>
<path class="st4" d="M30.66,36.34c2.18-0.04,2.18-3.26,0-3.3C31.82,33.54,31.82,35.83,30.66,36.34z"/>
<path class="st4" d="M35.09,44.27c2.2-0.04,2.2-3.26,0-3.3C36.24,41.47,36.24,43.76,35.09,44.27z"/>
<path class="st4" d="M33.03,44.14c2.18-0.04,2.18-3.26,0-3.3C34.19,41.35,34.19,43.64,33.03,44.14z"/>
<path class="st4" d="M30.87,44.27c2.18-0.04,2.18-3.26,0-3.3C32.02,41.47,32.02,43.76,30.87,44.27z"/>
<path class="st4" d="M28.77,44.37c2-0.04,2-3.26,0-3.3C29.92,41.58,29.92,43.87,28.77,44.37z"/>
<path class="st7" d="M18.73,34.91c-4.03,6.18,0.68,5.87,0.65,6.96c-0.02,1.17-1.92,0.51-1.92-0.53c-0.03,2.24,2.49,2.01,2.62,0.71
	c0.17-1.7-3.38-1.35-1.68-4.22c0.31,2.18,3.89,5.29,6.77,4.08c0.64-0.44,0.47,3-0.35,3.5c-1.86,1.14-8.92-0.97-9-1.14
	c-0.73-1.72-1.68-2.01-1.91-3.6C13.48,37.64,15.18,34.7,18.73,34.91z"/>
<path class="st4" d="M48.82,38.62c-1.19-0.47,10.05-3.72,10.97-3.66C60.71,35.02,49.73,38.98,48.82,38.62z"/>
<path class="st4" d="M48.97,39.51c-1.2-0.45,9.6-2.73,10.41-2.52C60.28,37.22,49.89,39.85,48.97,39.51z"/>
<path class="st4" d="M48.53,40.49c-1.16-0.45,8.5-1.64,9.03-1.39C58.38,39.5,49.41,40.84,48.53,40.49z"/>
<path class="st4" d="M58.37,41.27c-0.8-0.34-11.05-0.97-10.11-0.15C48.98,41.74,59.16,41.61,58.37,41.27z"/>
<path class="st4" d="M48.56,42.09c-1.06-0.77,10.25,0.9,10.98,1.33C60.35,43.89,49.37,42.67,48.56,42.09z"/>
<path class="st4" d="M48.5,42.99c-1.15-0.78,11.41,1.82,11.93,2.24C61.24,45.85,49.38,43.59,48.5,42.99z"/>
<path class="st7" d="M61.02,34c0.29,3.71-3.08,3.97-3.08,5.75c0,1.47,3.57,2.18,3.57,6.29c0.97,0.13,2.03,0.03,2.03,0.03
	c-0.03-4.26-3.04-5.02-3.04-6.18c0-1.09,3.28-2.88,3.5-6.18C62.38,33.55,61.02,34,61.02,34z"/>
<path class="st8" d="M29.28,33.37c5.07-0.27,8.9,0.37,9.46,0.39C35.4,31.45,30.67,30.21,29.28,33.37z"/>
<path class="st3" d="M30.06,38.02c0,0,8.89-1.63,9.84-1.54c0.95,0.09,0.71,3.76-0.85,4.83c-1.56,1.08-8.62,0.51-9.21-0.33
	C29.25,40.15,30.06,38.02,30.06,38.02z"/>
<path class="st8" d="M30.22,39.02c-1.4-0.57,7.89-1.63,8.97-1.58C40.26,37.49,31.29,39.46,30.22,39.02z"/>
<path class="st8" d="M30.07,39.83c-1.4-0.57,8.06-0.93,9-0.66C40.13,39.47,31.15,40.27,30.07,39.83z"/>
<path class="st8" d="M30.07,40.67c-1.4-0.57,7.69-0.23,8.34,0.1C39.41,41.27,31.15,41.11,30.07,40.67z"/>
<path class="st8" d="M24.73,43.01c0.93,1.32,3.11,1.67,3.52,0.19c0.35-1.28,2.45-0.72,2.03-2.45c-0.33-1.37,0.86-1.95-0.4-3.6
	c-0.7-0.91-3.09-0.22-2.59,1.18C27.81,39.73,24.2,42.25,24.73,43.01z"/>
<path class="st5" d="M25.91,42.49c2.09,0.55,3.52-3.4,2.19-4.67C28.52,39.68,27.07,41.99,25.91,42.49z"/>
<linearGradient id="SVGID_2_" gradientUnits="userSpaceOnUse" x1="14.4281" y1="40.1695" x2="17.0322" y2="40.1695">
	<stop  offset="0" style="stop-color:#B3C3CC"/>
	<stop  offset="0.1754" style="stop-color:#AFBFC8"/>
	<stop  offset="0.3653" style="stop-color:#A4B2BB"/>
	<stop  offset="0.562" style="stop-color:#919EA5"/>
	<stop  offset="0.7634" style="stop-color:#768187"/>
	<stop  offset="0.9666" style="stop-color:#545C60"/>
	<stop  offset="1" style="stop-color:#4E5559"/>
</linearGradient>
<path class="st9" d="M16.02,36.06c1.25,0-0.66,5.96,1.02,8.23C13.59,42.02,13.89,37.5,16.02,36.06z"/>
<path class="st1" d="M17.03,44.28c-7.67-3.31-8.44-3.57-8.44-4.32c0-0.69,2.2-1.85,7.42-3.91c0.38-0.07,0.38,0.41,0.38,0.41
	S9.22,39.15,9.22,40c0,0.84,7.47,3.66,7.47,3.66S17.03,43.89,17.03,44.28z"/>
<radialGradient id="SVGID_3_" cx="36.8647" cy="18.5048" r="21.3322" gradientTransform="matrix(1.0221 0 0 0.6257 2.1161 9.5392)" gradientUnits="userSpaceOnUse">
	<stop  offset="0" style="stop-color:#57E5FF"/>
	<stop  offset="0.2047" style="stop-color:#52E1FF"/>
	<stop  offset="0.446" style="stop-color:#44D5FF"/>
	<stop  offset="0.706" style="stop-color:#2CC1FF"/>
	<stop  offset="0.9772" style="stop-color:#0BA6FF"/>
	<stop  offset="1" style="stop-color:#08A3FF"/>
</radialGradient>
<path class="st10" d="M18.73,16.56c-3.62,0.19-3.4,5.86-1.9,7.58c1.33,1.52,6.07,2.2,7.99,2.91C27.17,27.93,37.9,27.3,38.59,27
	c2.1-0.91,5.13-1.56,11.05-1.09c3.04,0.24,8.67,2.02,13.8,1.78c0.15-3.12-3.06-5.13-3.06-6.13c0-1.49,2.76-2.37,3.39-6.12
	c-5.08-0.15-12.13,3.29-13.55,3.29c-7.17,0-8.54-2.78-11.5-3.34c-2.28-1.64-9.29-0.5-9.46-0.39C26.22,17,19.09,16.54,18.73,16.56z"
	/>
<path class="st3" d="M25.38,20.08c0,3.33-4.66,3.33-4.66,0C20.72,16.75,25.38,16.75,25.38,20.08z"/>
<path class="st11" d="M25.04,20.05c0,2.8-4.1,2.8-4.1,0C20.95,17.25,25.04,17.25,25.04,20.05z"/>
<path class="st12" d="M24.31,20.35c0,2.18-3.2,2.18-3.2,0C21.11,18.17,24.31,18.17,24.31,20.35z"/>
<path class="st6" d="M23.31,20.7c0,1.26-1.84,1.26-1.84,0C21.47,19.44,23.31,19.44,23.31,20.7z"/>
<path class="st13" d="M46.93,25.58c2.59-0.04,2.59-3.73,0-3.77C48.63,22.39,48.63,25.01,46.93,25.58z"/>
<path class="st13" d="M47.89,22.42c2.67-0.06,1.56-4.35-1.15-3.61C48.54,18.9,49.34,21.4,47.89,22.42z"/>
<path class="st13" d="M45.95,23.11c2.13-0.04,2.13-3.26,0-3.3C47.1,20.31,47.1,22.6,45.95,23.11z"/>
<path class="st13" d="M45.03,21.55c1.94-0.04,1.94-3.26,0-3.3C46.18,18.76,46.18,21.05,45.03,21.55z"/>
<path class="st13" d="M44.91,25.19c2.02-0.04,2.02-3.26,0-3.3C46.06,22.4,46.06,24.69,44.91,25.19z"/>
<path class="st13" d="M43.9,23.32c2.02-0.04,2.02-3.26,0-3.3C45.05,20.53,45.05,22.82,43.9,23.32z"/>
<path class="st13" d="M43.04,21.12c1.76-0.03,1.76-3.26,0-3.3C44.2,18.32,44.2,20.61,43.04,21.12z"/>
<path class="st13" d="M42.72,25.11c2.02-0.04,2.02-3.26,0-3.3C43.87,22.32,43.87,24.61,42.72,25.11z"/>
<path class="st13" d="M40.92,25.39c2-0.03,2-2.99,0-3.03C42.07,22.82,42.07,24.93,40.92,25.39z"/>
<path class="st13" d="M41.8,23.11c2.04-0.04,2.04-3.26,0-3.3C42.96,20.31,42.96,22.6,41.8,23.11z"/>
<path class="st13" d="M41.97,19.63c1.89-0.03,1.89-2.58,0-2.61C43.13,17.42,43.13,19.23,41.97,19.63z"/>
<path class="st13" d="M40.87,21.18c2.15-0.04,2.15-3.26,0-3.3C42.02,18.38,42.02,20.67,40.87,21.18z"/>
<path class="st13" d="M39.94,23.53c1.97-0.04,1.97-3.26,0-3.3C41.09,20.74,41.09,23.03,39.94,23.53z"/>
<path class="st13" d="M38.98,25.84c2.07-0.04,2.07-3.26,0-3.3C40.13,23.05,40.13,25.34,38.98,25.84z"/>
<path class="st13" d="M39.83,19.63c2.07-0.04,2.07-3.26,0-3.3C40.99,16.84,40.99,19.13,39.83,19.63z"/>
<path class="st13" d="M38.83,17.98c1.99-0.03,1.99-2.46,0-2.49C39.99,15.87,39.99,17.6,38.83,17.98z"/>
<path class="st13" d="M37.22,26.12c2.21-0.04,2.21-3.26,0-3.3C38.37,23.33,38.37,25.62,37.22,26.12z"/>
<path class="st13" d="M37.95,19.9c2.03-0.04,2.03-3.26,0-3.3C39.11,17.11,39.11,19.4,37.95,19.9z"/>
<path class="st13" d="M36.93,18.04c1.87-0.03,1.87-3.26,0-3.3C38.08,15.24,38.08,17.53,36.93,18.04z"/>
<path class="st13" d="M35.89,20.02c2.11-0.04,2.11-3.26,0-3.3C37.05,17.23,37.05,19.52,35.89,20.02z"/>
<path class="st13" d="M34.74,17.93c2.11-0.04,2.11-3.26,0-3.3C35.9,15.13,35.9,17.42,34.74,17.93z"/>
<path class="st13" d="M33.76,19.98c2.15-0.04,2.15-3.26,0-3.3C34.92,17.18,34.92,19.47,33.76,19.98z"/>
<path class="st13" d="M32.61,17.98c2.05-0.04,2.05-3.26,0-3.3C33.77,15.19,33.77,17.48,32.61,17.98z"/>
<path class="st13" d="M31.53,20.32c2.05-0.04,2.05-3.26,0-3.3C32.69,17.52,32.69,19.82,31.53,20.32z"/>
<path class="st13" d="M29.55,19.29c2.07-0.04,2.07-3.26,0-3.3C30.7,16.49,30.7,18.78,29.55,19.29z"/>
<path class="st13" d="M30.66,17.98c2.18-0.04,2.18-3.26,0-3.3C31.82,15.19,31.82,17.48,30.66,17.98z"/>
<path class="st13" d="M35.09,25.91c2.2-0.04,2.2-3.26,0-3.3C36.24,23.12,36.24,25.41,35.09,25.91z"/>
<path class="st13" d="M33.03,25.79c2.18-0.04,2.18-3.26,0-3.3C34.19,22.99,34.19,25.28,33.03,25.79z"/>
<path class="st13" d="M30.87,25.91c2.18-0.04,2.18-3.26,0-3.3C32.02,23.12,32.02,25.41,30.87,25.91z"/>
<path class="st13" d="M28.77,26.01c2-0.04,2-3.26,0-3.3C29.92,23.22,29.92,25.51,28.77,26.01z"/>
<path class="st7" d="M18.73,16.56c-4.03,6.18,0.68,5.87,0.65,6.96c-0.02,1.17-1.92,0.51-1.92-0.53c-0.03,2.24,2.49,2.01,2.62,0.71
	c0.17-1.7-3.38-1.35-1.68-4.22c0.31,2.18,3.89,5.29,6.77,4.08c0.64-0.44,0.47,3-0.35,3.51c-1.86,1.14-8.92-0.97-9-1.14
	c-0.73-1.72-1.68-2.01-1.91-3.6C13.48,19.29,15.18,16.34,18.73,16.56z"/>
<path class="st13" d="M48.82,20.26c-1.19-0.47,10.05-3.72,10.97-3.66C60.71,16.66,49.73,20.62,48.82,20.26z"/>
<path class="st13" d="M48.97,21.15c-1.2-0.45,9.6-2.73,10.41-2.52C60.28,18.87,49.89,21.5,48.97,21.15z"/>
<path class="st13" d="M48.53,22.14c-1.16-0.45,8.5-1.64,9.03-1.39C58.38,21.15,49.41,22.48,48.53,22.14z"/>
<path class="st13" d="M58.37,22.91c-0.8-0.34-11.05-0.97-10.11-0.15C48.98,23.39,59.16,23.25,58.37,22.91z"/>
<path class="st13" d="M48.56,23.73c-1.06-0.77,10.25,0.9,10.98,1.33C60.35,25.54,49.37,24.32,48.56,23.73z"/>
<path class="st13" d="M48.5,24.63c-1.15-0.78,11.41,1.82,11.93,2.23C61.24,27.5,49.38,25.23,48.5,24.63z"/>
<path class="st7" d="M61.02,15.65c0.29,3.71-3.08,3.97-3.08,5.75c0,1.47,3.57,2.18,3.57,6.29c0.97,0.13,2.03,0.03,2.03,0.03
	c-0.03-4.26-3.04-5.02-3.04-6.18c0-1.09,3.28-2.88,3.5-6.18C62.38,15.2,61.02,15.65,61.02,15.65z"/>
<path class="st11" d="M29.28,15.01c5.07-0.27,8.9,0.37,9.46,0.39C35.4,13.1,30.67,11.86,29.28,15.01z"/>
<path class="st3" d="M30.06,19.66c0,0,8.89-1.63,9.84-1.54c0.95,0.09,0.71,3.76-0.85,4.83c-1.56,1.07-8.62,0.51-9.21-0.33
	C29.25,21.79,30.06,19.66,30.06,19.66z"/>
<path class="st13" d="M30.22,20.66c-1.4-0.57,7.89-1.63,8.97-1.58C40.26,19.14,31.29,21.1,30.22,20.66z"/>
<path class="st13" d="M30.07,21.47c-1.4-0.57,8.06-0.93,9-0.66C40.13,21.11,31.15,21.91,30.07,21.47z"/>
<path class="st13" d="M30.07,22.31c-1.4-0.57,7.69-0.23,8.34,0.1C39.41,22.91,31.15,22.75,30.07,22.31z"/>
<path class="st14" d="M24.73,24.65c0.93,1.32,3.11,1.67,3.52,0.19c0.35-1.28,2.45-0.72,2.03-2.45c-0.33-1.37,0.86-1.95-0.4-3.6
	c-0.7-0.91-3.09-0.22-2.59,1.18C27.81,21.38,24.2,23.9,24.73,24.65z"/>
<path class="st12" d="M25.91,24.14c2.09,0.55,3.52-3.4,2.19-4.67C28.52,21.33,27.07,23.64,25.91,24.14z"/>
<linearGradient id="SVGID_4_" gradientUnits="userSpaceOnUse" x1="14.4281" y1="21.7565" x2="17.0322" y2="21.7565">
	<stop  offset="0" style="stop-color:#B3C3CC"/>
	<stop  offset="0.1754" style="stop-color:#AFBFC8"/>
	<stop  offset="0.3653" style="stop-color:#A4B2BB"/>
	<stop  offset="0.562" style="stop-color:#919EA5"/>
	<stop  offset="0.7634" style="stop-color:#768187"/>
	<stop  offset="0.9666" style="stop-color:#545C60"/>
	<stop  offset="1" style="stop-color:#4E5559"/>
</linearGradient>
<path class="st15" d="M16.02,17.64c1.25,0-0.66,5.96,1.02,8.23C13.59,23.6,13.89,19.09,16.02,17.64z"/>
<path class="st1" d="M17.03,25.87c-7.67-3.31-8.86-3.49-8.86-4.24c0-0.69,2.63-1.93,7.84-3.98c0.38-0.06,0.38,0.41,0.38,0.41
	s-7.61,2.76-7.6,3.6c0.01,0.84,7.89,3.59,7.89,3.59S17.03,25.47,17.03,25.87z"/>
<linearGradient id="SVGID_5_" gradientUnits="userSpaceOnUse" x1="3.2" y1="34.1333" x2="5.3333" y2="34.1333">
	<stop  offset="0.1497" style="stop-color:#FFE285"/>
	<stop  offset="0.187" style="stop-color:#FFE080"/>
	<stop  offset="0.5519" style="stop-color:#FFCA54"/>
	<stop  offset="0.8349" style="stop-color:#FFBD38"/>
	<stop  offset="1" style="stop-color:#FFB82E"/>
</linearGradient>
<rect x="3.2" y="4.27" class="st16" width="2.13" height="59.73"/>
<rect x="4.13" y="4.14" class="st17" width="0.27" height="8.32"/>
<polygon class="st17" points="4.8,6.36 3.73,6.36 3.6,4.14 4.93,4.14 "/>
<polygon class="st17" points="3.73,10.24 4.8,10.24 4.93,12.46 3.6,12.46 "/>
<rect x="0.11" y="8.17" class="st17" width="8.32" height="0.27"/>
<polygon class="st17" points="6.21,8.83 6.21,7.77 8.43,7.63 8.43,8.97 "/>
<polygon class="st17" points="2.33,7.77 2.33,8.83 0.11,8.97 0.11,7.63 "/>
<rect x="0.11" y="8.17" transform="matrix(0.7071 -0.7071 0.7071 0.7071 -4.6195 5.4481)" class="st17" width="8.32" height="0.27"/>
<polygon class="st17" points="6.02,7.3 5.26,6.55 6.74,4.89 7.68,5.83 "/>
<polygon class="st17" points="2.52,9.3 3.27,10.05 1.8,11.71 0.85,10.77 "/>
<rect x="4.13" y="4.14" transform="matrix(0.7069 -0.7073 0.7073 0.7069 -4.6203 5.4506)" class="st17" width="0.27" height="8.32"/>
<polygon class="st17" points="5.26,10.05 6.02,9.3 7.68,10.77 6.74,11.71 "/>
<polygon class="st17" points="3.27,6.55 2.52,7.3 0.85,5.83 1.8,4.89 "/>
<path class="st0" d="M4.27,4.03C1.91,4.03,0,5.94,0,8.3c0,2.36,1.91,4.27,4.27,4.27s4.27-1.91,4.27-4.27
	C8.53,5.94,6.62,4.03,4.27,4.03z M4.27,12.3c-2.21,0-4-1.79-4-4c0-2.21,1.79-4,4-4s4,1.79,4,4C8.27,10.51,6.48,12.3,4.27,12.3z"/>
<path class="st0" d="M5.33,8.3c0,1.42-2.13,1.42-2.13,0S5.33,6.88,5.33,8.3z"/>
</svg>
