<?xml version="1.0" encoding="utf-8"?>
<!-- Generator: Adobe Illustrator 24.1.2, SVG Export Plug-In . SVG Version: 6.00 Build 0)  -->
<svg version="1.1" id="Layer_1" xmlns="http://www.w3.org/2000/svg" xmlns:xlink="http://www.w3.org/1999/xlink" x="0px" y="0px"
	 width="64px" height="64px" viewBox="0 0 64 64" style="enable-background:new 0 0 64 64;" xml:space="preserve">
<style type="text/css">
	.st0{fill:url(#SVGID_1_);}
	.st1{fill:url(#SVGID_2_);}
	.st2{fill:url(#SVGID_3_);}
	.st3{fill:url(#SVGID_4_);}
	.st4{fill:url(#SVGID_5_);}
	.st5{fill:#FFFFFF;}
	.st6{fill:url(#SVGID_6_);}
	.st7{fill:url(#SVGID_7_);}
	.st8{fill:url(#SVGID_8_);}
	.st9{fill:url(#SVGID_9_);}
	.st10{fill:url(#SVGID_10_);}
	.st11{fill:url(#SVGID_11_);}
	.st12{fill:url(#SVGID_12_);}
	.st13{fill:url(#SVGID_13_);}
	.st14{fill:url(#SVGID_14_);}
	.st15{fill:url(#SVGID_15_);}
	.st16{fill:url(#SVGID_16_);}
	.st17{fill:url(#SVGID_17_);}
	.st18{fill:url(#SVGID_18_);}
	.st19{fill:url(#SVGID_19_);}
	.st20{fill:url(#SVGID_20_);}
	.st21{fill:url(#SVGID_21_);}
	.st22{fill:url(#SVGID_22_);}
	.st23{fill:url(#SVGID_23_);}
</style>
<linearGradient id="SVGID_1_" gradientUnits="userSpaceOnUse" x1="16.8745" y1="43.2843" x2="32.4743" y2="43.2843" gradientTransform="matrix(0.9998 -0.0192 0.0192 0.9998 5.0362 14.5608)">
	<stop  offset="0" style="stop-color:#CC884A"/>
	<stop  offset="0.3098" style="stop-color:#A16937"/>
	<stop  offset="0.7769" style="stop-color:#653E1C"/>
	<stop  offset="1" style="stop-color:#4D2D12"/>
</linearGradient>
<path class="st0" d="M35.79,50.75h-8.25c-0.04,2.7-0.08,5.35-0.12,7.51c-0.02,1.14-0.44,2.76-1.04,4.22
	c-0.17,0.41,0.05,0.88,0.47,0.99c1.27,0.33,3.11,0.54,5.17,0.54c2,0,3.81-0.2,5.07-0.52c0.45-0.11,0.66-0.64,0.44-1.06
	c-0.6-1.14-1.09-2.23-1.18-3.2C36.12,56.86,35.93,53.83,35.79,50.75z"/>
<linearGradient id="SVGID_2_" gradientUnits="userSpaceOnUse" x1="1331.1835" y1="35.7313" x2="1343.218" y2="35.7313" gradientTransform="matrix(-0.9996 0.029 0.029 0.9996 1367.3798 -17.2566)">
	<stop  offset="0" style="stop-color:#4D2D12"/>
	<stop  offset="4.255883e-03" style="stop-color:#4E2E12"/>
	<stop  offset="0.3758" style="stop-color:#925E30"/>
	<stop  offset="0.6446" style="stop-color:#BC7C43"/>
	<stop  offset="0.7818" style="stop-color:#CC884A"/>
</linearGradient>
<path class="st1" d="M27.54,50.75c-0.04,2.7,0.1,5.35,0.19,7.5c0.05,1.4-0.89,5.2-0.89,5.2c0.17,0.04,0.35,0.09,0.53,0.12
	c0.55-1.67,1.36-6.7,1.36-6.7s-0.26,4.74-0.81,6.8c0.55,0.09,1.17,0.17,1.82,0.22c0.78-3.06,0.59-7.95,0.86-13.16H27.54z"/>
<linearGradient id="SVGID_3_" gradientUnits="userSpaceOnUse" x1="1330.317" y1="35.8667" x2="1343.7026" y2="35.8667" gradientTransform="matrix(-0.9996 0.029 0.029 0.9996 1367.3798 -17.2566)">
	<stop  offset="0" style="stop-color:#4D2D12"/>
	<stop  offset="4.255883e-03" style="stop-color:#4E2E12"/>
	<stop  offset="0.3758" style="stop-color:#925E30"/>
	<stop  offset="0.6446" style="stop-color:#BC7C43"/>
	<stop  offset="0.7818" style="stop-color:#CC884A"/>
</linearGradient>
<path class="st2" d="M34.36,50.75h-3.27c-0.01,4.36,0.1,9.99-0.2,13.23c0.36,0.01,0.74,0.02,1.12,0.02c0.63,0,1.24-0.02,1.82-0.06
	c-0.79-2.6-1.16-6.78-1.05-12.77c0.89,7.15,1.52,10.9,2.1,12.69c0.38-0.04,0.75-0.09,1.09-0.14c-1.09-1.65-1.01-4.23-1.11-5.32
	C34.63,56.07,34.47,53.39,34.36,50.75z"/>
<linearGradient id="SVGID_4_" gradientUnits="userSpaceOnUse" x1="32" y1="61.7494" x2="32" y2="42.3098">
	<stop  offset="0" style="stop-color:#009E03"/>
	<stop  offset="0.2001" style="stop-color:#009A04"/>
	<stop  offset="0.4046" style="stop-color:#008E05"/>
	<stop  offset="0.6109" style="stop-color:#007908"/>
	<stop  offset="0.8173" style="stop-color:#005D0B"/>
	<stop  offset="1" style="stop-color:#003D0F"/>
</linearGradient>
<path class="st3" d="M53.71,56.59c-2.23,0.05-3.24-1.26-3.24-1.26s4.87,1.45,9.57-1.5c-6.7-0.61-9.86-2.98-9.86-2.98
	s3.46,1,5.76-0.83c-2.64-0.03-5.52-3.29-7.21-5.56H17.44c-0.9,0.93-5.25,5.2-9.45,5.83c1.27,0.69,3.14,0.99,3.14,0.99
	s-4.43,0.9-7.17,0.45c3.47,2.23,6.32,1.54,6.32,1.54s-1.2,1.39-2.82,2.22c2.87,0.27,5.56-0.86,5.56-0.86s-0.86,1.6-2.96,2.53
	c3.18,0.26,5.97-1.77,5.97-1.77s-0.09,1.83-2.77,3.4c5.3-0.24,5.47-1.36,5.47-1.36s0.08,1.28-1.01,3.14
	c4.62-0.54,6.42-4.82,6.42-4.82s0.38,2.88-1.59,5.52c4.23-0.92,5.99-5.7,5.99-5.7s0.33,4.23-1.1,6.18c4.26-1.45,4.75-8.26,4.75-8.26
	s0.68,6.06,2.85,7.42c0.15-2.19,1.13-4.46,1.13-4.46s0.94,2.99,4.28,3.44c-1.69-1.99-1.25-4.86-1.25-4.86s0.86,4.62,6.6,5.3
	c-0.89-0.69-1.63-3.68-1.63-3.68s2.03,2.49,7.11,2.23c-3.03-1.35-4.21-3.5-4.21-3.5S49.65,58.27,53.71,56.59z"/>
<radialGradient id="SVGID_5_" cx="40.5067" cy="55.3238" r="2.077" gradientTransform="matrix(1.007 0 0 1 -5.4517 0)" gradientUnits="userSpaceOnUse">
	<stop  offset="0" style="stop-color:#FF00F8"/>
	<stop  offset="1" style="stop-color:#940090"/>
</radialGradient>
<path class="st4" d="M33.87,56.19c0,2.77,4.18,2.77,4.18,0C38.06,53.42,33.87,53.42,33.87,56.19z"/>
<path id="Shape_81_" class="st5" d="M25.36,51.43c-0.3,2.96-0.93,3.49-3.54,3.81c2.61,0.31,3.23,0.84,3.54,3.81
	c0.31-2.96,0.93-3.5,3.54-3.81C26.29,54.92,25.67,54.39,25.36,51.43z"/>
<radialGradient id="SVGID_6_" cx="19.2794" cy="50.4867" r="2.4153" gradientTransform="matrix(1.007 0 0 1 -5.4517 0)" gradientUnits="userSpaceOnUse">
	<stop  offset="0" style="stop-color:#FFFCDE"/>
	<stop  offset="1" style="stop-color:#FFD500"/>
</radialGradient>
<path class="st6" d="M12.21,51.43c0,3.22,4.86,3.22,4.86,0C17.07,48.21,12.21,48.21,12.21,51.43z"/>
<radialGradient id="SVGID_7_" cx="52.1029" cy="49.5873" r="2.2732" gradientTransform="matrix(1.007 0 0 1 -5.4517 0)" gradientUnits="userSpaceOnUse">
	<stop  offset="0" style="stop-color:#FFB8D5"/>
	<stop  offset="0.205" style="stop-color:#FF9DC0"/>
	<stop  offset="1" style="stop-color:#FF3672"/>
</radialGradient>
<path class="st7" d="M45.23,50.47c0,3.03,4.58,3.03,4.58,0C49.81,47.44,45.23,47.44,45.23,50.47z"/>
<linearGradient id="SVGID_8_" gradientUnits="userSpaceOnUse" x1="31.4214" y1="53.3664" x2="31.4214" y2="36.2676">
	<stop  offset="0" style="stop-color:#009E03"/>
	<stop  offset="0.2001" style="stop-color:#009A04"/>
	<stop  offset="0.4046" style="stop-color:#008E05"/>
	<stop  offset="0.6109" style="stop-color:#007908"/>
	<stop  offset="0.8173" style="stop-color:#005D0B"/>
	<stop  offset="1" style="stop-color:#003D0F"/>
</linearGradient>
<path class="st8" d="M56.88,48.3c-4.1-1.42-6.73-4.06-6.73-4.06s2.08,0.26,4.86-0.93c-3.78-0.77-7.19-3.7-9.02-5.53H17.34
	c-0.78,0.89-4.6,5.04-9.11,6.11c2.41,1.18,4.68,0.42,4.68,0.42s-3.15,1.56-5.15,1.9c3,0.79,6.34-0.36,6.34-0.36
	s-3.69,2.31-8.13,2.41C6.8,48.74,7.84,49,8.87,48.99c-0.45,0.13-0.9,0.26-1.36,0.39c3.5,1.14,7.4-0.69,7.4-0.69s-1.1,1.33-2.9,1.69
	c3.54,0.18,6.87-1.38,8.63-3.85c-0.94,1.94-2.74,3.61-5.01,4.62c6.9-0.21,9.41-5.48,9.41-5.48s-1.96,5.16-3.06,7.3
	c2.64-0.61,6.41-4.74,6.41-4.74s-0.35,3.2,2.61,5.15c0.66-1.59,0.61-5.08,0.92-6.73c1.17,3.68,4.93,4,6.39,4.29
	c-1.21-1.35-2.29-2.77-3.23-4.25c2.2,2.37,5.81,3.86,9.49,3.92c-1.07-0.8-1.91-1.81-2.42-2.91c1.17,1.02,2.81,1.68,4.52,1.84
	c-0.5-0.75-1.01-1.51-1.51-2.26C48.51,49.15,53.09,49.56,56.88,48.3z"/>
<radialGradient id="SVGID_9_" cx="30.0425" cy="46.942" r="2.0627" gradientTransform="matrix(1.007 0 0 1 -5.4517 0)" gradientUnits="userSpaceOnUse">
	<stop  offset="0" style="stop-color:#FF8080"/>
	<stop  offset="1" style="stop-color:#E00100"/>
</radialGradient>
<path class="st9" d="M23.29,47.59c0,2.75,4.15,2.75,4.15,0C27.44,44.84,23.29,44.84,23.29,47.59z"/>
<radialGradient id="SVGID_10_" cx="54.9618" cy="43.9706" r="2.2675" gradientTransform="matrix(1.007 0 0 1 -5.4517 0)" gradientUnits="userSpaceOnUse">
	<stop  offset="0" style="stop-color:#759CFF"/>
	<stop  offset="1" style="stop-color:#003FC7"/>
</radialGradient>
<path class="st10" d="M48.09,44.69c0,3.02,4.57,3.02,4.57,0C52.65,41.67,48.09,41.67,48.09,44.69z"/>
<radialGradient id="SVGID_11_" cx="40.7627" cy="44.3845" r="2.2598" gradientTransform="matrix(1.007 0 0 1 -5.4517 0)" gradientUnits="userSpaceOnUse">
	<stop  offset="0" style="stop-color:#FFDC69"/>
	<stop  offset="1" style="stop-color:#FF7B00"/>
</radialGradient>
<path class="st11" d="M33.97,45.33c0,3.01,4.55,3.01,4.55,0C38.52,42.31,33.97,42.31,33.97,45.33z"/>
<g>
	<linearGradient id="SVGID_12_" gradientUnits="userSpaceOnUse" x1="32" y1="45.0807" x2="32" y2="31.4732">
		<stop  offset="0" style="stop-color:#009E03"/>
		<stop  offset="0.2001" style="stop-color:#009A04"/>
		<stop  offset="0.4046" style="stop-color:#008E05"/>
		<stop  offset="0.6109" style="stop-color:#007908"/>
		<stop  offset="0.8173" style="stop-color:#005D0B"/>
		<stop  offset="1" style="stop-color:#003D0F"/>
	</linearGradient>
	<path class="st12" d="M52.21,38.02c-4.23-1-8.03-3.87-9.89-5.46H20.83c-1.26,1.15-7.26,6.46-11.16,6.52
		c2.32,1.84,6.11,1.52,6.11,1.52s-1.51,1.36-1.92,1.73c1.78,0.06,3.58-0.29,5.13-0.98c-0.6,0.65-1.26,1.26-1.98,1.84
		c3.24-0.17,6.38-1.3,8.68-3.14c-0.11,0.44-0.21,0.88-0.32,1.32c1.78-0.3,4.59-2.2,4.59-2.2s-0.52,2.78,2.64,5.37
		c0.32-1.61,0.63-4.22,0.63-4.22s0.9,2.97,5.35,3.58c-0.15-0.9,0.16-1.84,0.16-1.84s1.68,2.69,6.35,3.03
		c-0.51-0.56-0.9-1.18-1.17-1.83c1.31,0.76,2.96,1.55,4.42,1c-2.24-1.11-4.22-2.56-5.8-4.26c1.04,0.65,2.67,1.91,5.25,1.67
		c-0.2-0.22-0.4-0.45-0.61-0.67c2.29,0.77,5.05,0.57,7.13-0.52c-2.32-0.23-4.57-0.9-6.52-1.92C49.25,39,50.99,38.79,52.21,38.02z"/>
</g>
<radialGradient id="SVGID_13_" cx="22.0643" cy="35.8108" r="2.0624" gradientTransform="matrix(1.007 0 0 1 -5.4517 0)" gradientUnits="userSpaceOnUse">
	<stop  offset="0" style="stop-color:#759CFF"/>
	<stop  offset="1" style="stop-color:#003FC7"/>
</radialGradient>
<path class="st13" d="M15.34,36.58c0,2.75,4.15,2.75,4.15,0C19.49,33.83,15.34,33.83,15.34,36.58z"/>
<radialGradient id="SVGID_14_" cx="52.0141" cy="35.2842" r="2.3746" gradientTransform="matrix(1.007 0 0 1 -5.4517 0)" gradientUnits="userSpaceOnUse">
	<stop  offset="0" style="stop-color:#FFFCDE"/>
	<stop  offset="1" style="stop-color:#FFD500"/>
</radialGradient>
<path class="st14" d="M45.13,36.17c0,3.17,4.78,3.17,4.78,0C49.92,33.01,45.13,33.01,45.13,36.17z"/>
<path id="Shape_75_" class="st5" d="M22.19,39.53c-0.24,2.26-0.71,2.66-2.7,2.9c1.99,0.24,2.46,0.65,2.7,2.9
	c0.23-2.25,0.7-2.66,2.69-2.9C22.89,42.19,22.42,41.78,22.19,39.53z"/>
<g>
	<linearGradient id="SVGID_15_" gradientUnits="userSpaceOnUse" x1="31.595" y1="38.5493" x2="31.595" y2="25.2926">
		<stop  offset="0" style="stop-color:#009E03"/>
		<stop  offset="0.2001" style="stop-color:#009A04"/>
		<stop  offset="0.4046" style="stop-color:#008E05"/>
		<stop  offset="0.6109" style="stop-color:#007908"/>
		<stop  offset="0.8173" style="stop-color:#005D0B"/>
		<stop  offset="1" style="stop-color:#003D0F"/>
	</linearGradient>
	<path class="st15" d="M45.63,33.58c0,0,2.63,0.61,5.6-0.63c-5.55-1.41-9.27-2.98-11.07-6.42H21.74c-2.04,1.41-5.64,3.61-9.11,4.36
		c1.55,1.16,3.31,1.34,4.58,1.57c0,0-2.45,1.14-5.26,1.29c3.38,1.76,7.26,1.21,8.73,0.85c-0.79,0.56-1.73,1-2.74,1.3
		c1.38,0.12,2.79-0.02,4.08-0.4c-0.09,0.49-1.71,1.49-1.71,1.49s3.38-0.31,4.53-1.94c-0.06,0.43,0.16,1.27-1.54,2.58
		c3.61,0.17,5.98-1.49,6.79-2.17c0.33,0.64-0.45,2.03-0.45,2.03s4.38-1.17,4.14-3.94c0.44,0.76,1.01,3.76,5.12,5
		c-1.25-2.24-1.23-4.02-1.23-4.02s1.39,2.27,4.49,3.26c-1.49-1.88-0.89-3.8-0.89-3.8s2.89,2.34,6.9,1.97
		C46.51,34.96,45.63,33.58,45.63,33.58z"/>
</g>
<radialGradient id="SVGID_16_" cx="34.2543" cy="34.8047" r="2.3749" gradientTransform="matrix(1.007 0 0 1 -5.4517 0)" gradientUnits="userSpaceOnUse">
	<stop  offset="0" style="stop-color:#FFB8D5"/>
	<stop  offset="0.205" style="stop-color:#FF9DC0"/>
	<stop  offset="1" style="stop-color:#FF3672"/>
</radialGradient>
<path class="st16" d="M27.18,35.73c0,3.17,4.78,3.17,4.78,0C31.97,32.56,27.18,32.56,27.18,35.73z"/>
<path id="Shape_76_" class="st5" d="M37.74,31.69c-0.29,2.84-0.89,3.35-3.39,3.65c2.5,0.3,3.1,0.81,3.39,3.65
	c0.29-2.84,0.89-3.35,3.39-3.65C38.62,35.04,38.03,34.53,37.74,31.69z"/>
<radialGradient id="SVGID_17_" cx="28.053" cy="29.976" r="1.9852" gradientTransform="matrix(1.007 0 0 1 -5.4517 0)" gradientUnits="userSpaceOnUse">
	<stop  offset="0" style="stop-color:#FFDC69"/>
	<stop  offset="1" style="stop-color:#FF7B00"/>
</radialGradient>
<path class="st17" d="M21.36,30.8c0,2.65,4,2.65,4,0C25.36,28.16,21.36,28.16,21.36,30.8z"/>
<linearGradient id="SVGID_18_" gradientUnits="userSpaceOnUse" x1="31.595" y1="31.4732" x2="31.595" y2="20.7997">
	<stop  offset="0" style="stop-color:#009E03"/>
	<stop  offset="0.2001" style="stop-color:#009A04"/>
	<stop  offset="0.4046" style="stop-color:#008E05"/>
	<stop  offset="0.6109" style="stop-color:#007908"/>
	<stop  offset="0.8173" style="stop-color:#005D0B"/>
	<stop  offset="1" style="stop-color:#003D0F"/>
</linearGradient>
<path class="st18" d="M46.49,28.06c-1.14-0.47-2.19-1.03-3.11-1.67c2.08,0.42,4.32,0.5,6.45,0.23c-3.72-0.45-7.01-2.29-7.01-2.29
	s1.73,0.46,3.03,0.28C42.49,23.68,39.93,21,39.93,21l-14.95-0.04c-0.96,0.6-4.48,2.7-6.81,2.88c1.05,0.41,2.87,0.28,2.87,0.28
	s-4.1,1.03-7.69,1.23c2.23,0.66,4.87,0.63,4.87,0.63s-2.04,0.99-4.19,1.05c3.41,1.63,8.76,0.61,8.76,0.61s-2.52,1.78-4.53,2
	c2.64,0.13,5.96-0.72,5.96-0.72s-0.59,1.18-1.58,1.84c2.65-0.19,4.26-1.21,4.26-1.21s-0.11,1.3,0.11,1.94
	c0.93-0.59,1.62-1.35,1.97-2.17c0.1,0.65,0.36,1.29,0.78,1.88c1.42-0.76,2.28-1.94,2.28-3.14c1.14,1.24,2.81,2.28,4.77,2.96
	c-0.28-0.64-0.56-1.27-0.84-1.91c1.98,1.49,5.26,1.85,8.25,2.11c-0.8-0.53-1.59-1.07-2.39-1.6c1.71,0.72,3.81,1.03,5.82,0.86
	c-2.48-1-4.78-2.19-6.84-3.53C42.38,27.77,44.47,28.19,46.49,28.06z"/>
<radialGradient id="SVGID_19_" cx="43.5218" cy="23.649" r="1.9495" gradientTransform="matrix(1.007 0 0 1 -5.4517 0)" gradientUnits="userSpaceOnUse">
	<stop  offset="0" style="stop-color:#FF8080"/>
	<stop  offset="1" style="stop-color:#E00100"/>
</radialGradient>
<path class="st19" d="M37.07,24.41c0,2.6,3.93,2.6,3.93,0C40.99,21.81,37.07,21.81,37.07,24.41z"/>
<linearGradient id="SVGID_20_" gradientUnits="userSpaceOnUse" x1="31.595" y1="25.665" x2="31.595" y2="14.0049">
	<stop  offset="0" style="stop-color:#009E03"/>
	<stop  offset="0.2001" style="stop-color:#009A04"/>
	<stop  offset="0.4046" style="stop-color:#008E05"/>
	<stop  offset="0.6109" style="stop-color:#007908"/>
	<stop  offset="0.8173" style="stop-color:#005D0B"/>
	<stop  offset="1" style="stop-color:#003D0F"/>
</linearGradient>
<path class="st20" d="M41.33,20.51c0,0,1.45-0.57,1.7-1.09c-2.04-0.36-5.12-3.08-6.67-4.67h-9.32c-1.56,2.68-4.6,4.66-7.98,5.14
	c1.12,0.28,2.3,0.35,3.45,0.21c-0.94,0.46-1.96,0.82-3,1.04c1.17,0.16,2.38,0.11,3.53-0.13c-1.28,0.76-2.68,1.35-4.16,1.74
	c1.54,0.23,3.14,0.12,4.62-0.32c-0.29,0.57-0.77,1.06-1.35,1.41c1.51,0.04,3.03-0.58,3.98-1.62c-0.52,1.1-1.38,2.08-2.47,2.8
	c1.84-0.08,3.58-1.11,4.37-2.58c0.34,1.05,0.26,2.21-0.22,3.22c1.06-0.66,1.49-1.88,1.54-3.03c1.33,1.13,2.93,2.02,4.66,2.59
	c-0.82-1.02-1.39-2.2-1.66-3.43c1.24,1.17,2.87,2.02,4.64,2.4c-0.52-0.72-0.82-1.56-0.86-2.41c0.82,0.91,1.96,1.58,3.22,1.9
	c-0.13-0.77-0.38-1.52-0.75-2.22c1.54,1.26,3.46,1.69,5.7,0.58C42.57,21.63,41.33,20.51,41.33,20.51z"/>
<path id="Shape_82_" class="st5" d="M30.79,20.33c-0.29,3.17-0.87,3.74-3.32,4.08c2.45,0.33,3.03,0.9,3.32,4.08
	c0.29-3.17,0.87-3.75,3.32-4.08C31.66,24.07,31.08,23.5,30.79,20.33z"/>
<radialGradient id="SVGID_21_" cx="30.6795" cy="18.9345" r="1.8317" gradientTransform="matrix(1.007 0 0 1 -5.4517 0)" gradientUnits="userSpaceOnUse">
	<stop  offset="0" style="stop-color:#FF00F8"/>
	<stop  offset="1" style="stop-color:#940090"/>
</radialGradient>
<path class="st21" d="M24.15,19.7c0,2.44,3.69,2.44,3.69,0C27.84,17.25,24.15,17.25,24.15,19.7z"/>
<linearGradient id="SVGID_22_" gradientUnits="userSpaceOnUse" x1="31.239" y1="20.4564" x2="31.239" y2="5.5474">
	<stop  offset="0" style="stop-color:#009E03"/>
	<stop  offset="1" style="stop-color:#009E03"/>
</linearGradient>
<path class="st22" d="M36.63,16.19c0,0,1.71,0.98,3.41,0.55c-2.22-1.17-2.86-2.11-2.86-2.11s0.53,0.03,1.66-0.32
	c-2.36-1.35-5.53-3.91-6.47-7.89c-0.14-0.58-0.57-0.58-0.73,0c-0.9,3.24-4.14,7.14-7.08,8.2c0.42,0.42,1.01,0.52,1.01,0.52
	s-1.49,1.1-2.73,1.28c1.07,0.48,2.44,0.32,2.44,0.32s-0.98,1.76-2.86,2.58c3.57-0.24,5.26-2,6.04-3.12
	c0.37,1.32-0.15,3.27-0.15,3.27s2.46-1.29,2.27-3.6c0.49,2.79,3.42,4.3,3.42,4.3s-0.85-2.23-0.49-3.98
	c1.81,3.02,5.65,3.89,6.56,3.98C37.33,18.2,36.63,16.19,36.63,16.19z"/>
<linearGradient id="SVGID_23_" gradientUnits="userSpaceOnUse" x1="31.9639" y1="12.8263" x2="31.9639" y2="2.500000e-05">
	<stop  offset="0" style="stop-color:#FFAA00"/>
	<stop  offset="0.0326" style="stop-color:#FFAD00"/>
	<stop  offset="0.456" style="stop-color:#FFD500"/>
	<stop  offset="0.7932" style="stop-color:#FFED00"/>
	<stop  offset="1" style="stop-color:#FFF600"/>
</linearGradient>
<path class="st23" d="M31.68,0.36c0.16-0.48,0.41-0.48,0.57,0l1.43,4.38l4.59,0c0.53,0,0.62,0.25,0.2,0.56l-3.73,2.69l1.43,4.37
	c0.16,0.48-0.06,0.62-0.48,0.32l-3.73-2.68l-3.72,2.68c-0.42,0.31-0.64,0.16-0.49-0.32l1.43-4.37l-3.73-2.69
	c-0.42-0.31-0.33-0.56,0.2-0.56l4.59,0L31.68,0.36z"/>
<path id="Shape_80_" class="st5" d="M40.31,46.89c-0.27,2.99-0.82,3.52-3.12,3.84c2.3,0.31,2.85,0.85,3.12,3.84
	c0.27-2.99,0.82-3.53,3.12-3.84C41.13,50.42,40.58,49.88,40.31,46.89z"/>
</svg>
