<?xml version="1.0" encoding="utf-8"?>
<!-- Generator: Adobe Illustrator 24.1.2, SVG Export Plug-In . SVG Version: 6.00 Build 0)  -->
<svg version="1.1" id="Layer_1" xmlns="http://www.w3.org/2000/svg" xmlns:xlink="http://www.w3.org/1999/xlink" x="0px" y="0px"
	 width="64px" height="64px" viewBox="0 0 64 64" style="enable-background:new 0 0 64 64;" xml:space="preserve">
<style type="text/css">
	.st0{fill:url(#SVGID_1_);}
	.st1{fill:url(#SVGID_2_);}
	.st2{fill:#FFE600;}
	.st3{fill:#F59E01;}
	.st4{fill:#FFFFFF;}
	.st5{fill:#F9C802;}
	.st6{fill:#FFCC00;}
	.st7{fill:#FF9901;}
	.st8{fill:#FF6A00;}
	.st9{fill:#F9B700;}
	.st10{fill:#FFFDCD;}
</style>
<linearGradient id="SVGID_1_" gradientUnits="userSpaceOnUse" x1="675.8543" y1="61.9985" x2="675.8543" y2="1.9985" gradientTransform="matrix(-1 0 0 1 707.8543 1.500000e-03)">
	<stop  offset="0" style="stop-color:#0047C9"/>
	<stop  offset="1" style="stop-color:#00163D"/>
</linearGradient>
<polygon class="st0" points="2,2 62,2 62,2 62,62 2,62 2,62 2,2 "/>
<linearGradient id="SVGID_2_" gradientUnits="userSpaceOnUse" x1="328.176" y1="514.4021" x2="330.7984" y2="514.4021" gradientTransform="matrix(-0.7071 -0.7071 -0.7071 0.7071 616.5086 -86.7417)">
	<stop  offset="0" style="stop-color:#99A8AE"/>
	<stop  offset="0.281" style="stop-color:#B1BFC7"/>
	<stop  offset="0.6102" style="stop-color:#C7D5DE"/>
	<stop  offset="0.8182" style="stop-color:#CFDDE6"/>
</linearGradient>
<polygon class="st1" points="38.48,26.91 3.66,62 2,62 2,60.3 36.8,25.23 "/>
<path class="st2" d="M47.12,6.64c-0.02,0.41,7.34,0.5,7.37,0.08C54.51,6.32,47.15,6.23,47.12,6.64z"/>
<path class="st2" d="M49.17,3.43c-0.37,0.2,2.91,6.71,3.28,6.5C52.81,9.73,49.53,3.23,49.17,3.43z"/>
<path class="st3" d="M17.99,11.83c0.37,0.12,1.24-6.26,0.87-6.38C18.49,5.34,17.62,11.71,17.99,11.83z"/>
<path class="st3" d="M15.31,9.31c0.15,0.37,6.38-0.97,6.23-1.34C21.4,7.61,15.17,8.95,15.31,9.31z"/>
<path class="st4" d="M52.37,45.74c0.36,0.1,2.09-6.44,1.73-6.53C53.75,39.11,52.01,45.64,52.37,45.74z"/>
<path class="st4" d="M50.01,43.35c0.1,0.37,6.56-1.39,6.46-1.75C56.38,41.23,49.91,42.99,50.01,43.35z"/>
<path class="st4" d="M35.4,5.98c0.13,0.22,4.06-2.07,3.93-2.29C39.21,3.47,35.27,5.76,35.4,5.98z"/>
<path class="st4" d="M35.4,3.68c-0.13,0.22,3.8,2.52,3.93,2.29C39.46,5.76,35.53,3.47,35.4,3.68z"/>
<path class="st3" d="M34.98,49.64c0.16,0.27,5.02-2.56,4.86-2.84C39.69,46.53,34.83,49.37,34.98,49.64z"/>
<path class="st3" d="M34.98,46.8c-0.16,0.27,4.71,3.11,4.86,2.84C40,49.37,35.14,46.53,34.98,46.8z"/>
<path class="st4" d="M17.55,29.06c0.28-0.17-2.68-5.36-2.97-5.19C14.29,24.04,17.26,29.23,17.55,29.06z"/>
<path class="st4" d="M14.58,29.06c0.29,0.17,3.25-5.02,2.97-5.19C17.26,23.71,14.3,28.9,14.58,29.06z"/>
<path class="st4" d="M60.54,29.09c0.3-0.17-2.81-5.61-3.11-5.43C57.14,23.84,60.24,29.27,60.54,29.09z"/>
<path class="st4" d="M57.44,29.09c0.3,0.18,3.4-5.26,3.11-5.43C60.24,23.49,57.14,28.92,57.44,29.09z"/>
<path class="st3" d="M37.77,25.96c0.54-0.96,18.52,10.25,18.52,10.25S37.23,26.92,37.77,25.96z"/>
<path class="st4" d="M37.79,25.94C36.68,26.63,26.62,6.53,26.62,6.53S38.91,25.26,37.79,25.94z"/>
<path class="st5" d="M37.77,25.96c0.27-0.96,16.95,4.13,16.95,4.13S37.5,26.92,37.77,25.96z"/>
<path class="st3" d="M37.77,25.96c-0.27,1.06-18.98-4.94-18.98-4.94S38.05,24.91,37.77,25.96z"/>
<path class="st4" d="M37.77,25.96c1,0.58-12.64,19.37-12.64,19.37S36.78,25.38,37.77,25.96z"/>
<path class="st6" d="M37.77,25.96c-0.95-0.22,4.11-16.75,4.11-16.75S38.72,26.19,37.77,25.96z"/>
<path class="st2" d="M57.19,15.61c0.74,1.42-19.42,10.35-19.42,10.35S56.45,14.19,57.19,15.61z"/>
<path class="st2" d="M56.78,19.13c-0.38-0.02,0.21-6.82,0.59-6.8C57.75,12.35,57.16,19.16,56.78,19.13z"/>
<path class="st2" d="M59.9,17.59c-0.22,0.32-5.86-3.4-5.64-3.72C54.47,13.56,60.12,17.28,59.9,17.59z"/>
<path class="st3" d="M54.48,37.27c-0.12-0.2,3.47-2.32,3.59-2.12C58.18,35.34,54.6,37.46,54.48,37.27z"/>
<path class="st3" d="M56.29,38.27c-0.23,0-0.27-4.13-0.04-4.13C56.48,34.14,56.52,38.27,56.29,38.27z"/>
<path class="st4" d="M23.13,6.75c0.01-0.38,7.01-0.78,6.99-0.39C30.12,6.74,23.13,7.13,23.13,6.75z"/>
<path class="st4" d="M24.8,9.65c-0.33-0.18,3.33-6.36,3.66-6.19C28.79,3.63,25.13,9.82,24.8,9.65z"/>
<path class="st5" d="M53.31,31.44c-0.14-0.14,2.52-2.8,2.67-2.66C56.12,28.92,53.45,31.58,53.31,31.44z"/>
<path class="st5" d="M55.1,31.87c-0.2,0.06-1.11-3.48-0.91-3.53C54.39,28.28,55.3,31.82,55.1,31.87z"/>
<path class="st3" d="M17,22.83c-0.2-0.2,3.38-3.8,3.58-3.6C20.78,19.42,17.21,23.03,17,22.83z"/>
<path class="st3" d="M19.48,23.47c-0.28,0.08-1.65-4.81-1.37-4.89C18.38,18.51,19.75,23.4,19.48,23.47z"/>
<path class="st4" d="M24,42.62c0.3-0.18,2.78,4.95,2.47,5.13C26.17,47.92,23.7,42.79,24,42.62z"/>
<path class="st4" d="M22.26,45.28c0.03-0.34,5.99-0.55,5.96-0.21C28.19,45.41,22.23,45.62,22.26,45.28z"/>
<path class="st6" d="M40.17,7.48c0.19-0.2,3.82,3.21,3.62,3.41C43.6,11.08,39.97,7.68,40.17,7.48z"/>
<path class="st6" d="M39.57,9.89c-0.08-0.27,4.73-1.69,4.81-1.43C44.47,8.73,39.65,10.16,39.57,9.89z"/>
<path class="st4" d="M37.41,26.48c0.86,0.87,17.64-17.83,17.64-17.83S36.55,25.62,37.41,26.48z"/>
<path class="st3" d="M37.41,26.48c0.75-0.82-19-17.86-19-17.86S36.66,27.3,37.41,26.48z"/>
<path class="st4" d="M37.41,26.48c-0.85,0.86,15.84,16.01,15.84,16.01S38.27,25.62,37.41,26.48z"/>
<path class="st4" d="M37.41,26.48c1.21,0,0-21.74,0-21.74S36.2,26.48,37.41,26.48z"/>
<path class="st3" d="M37.41,26.48c-1.21,0,0,21.74,0,21.74S38.62,26.48,37.41,26.48z"/>
<path class="st4" d="M37.41,26.48c0-1.22-21.52-0.01-21.52-0.01S37.41,27.7,37.41,26.48z"/>
<path class="st4" d="M37.41,26.48c0,1.22,21.52,0,21.52,0S37.41,25.26,37.41,26.48z"/>
<path class="st7" d="M50.32,16.11c-0.77-0.98-12.91,10.37-12.91,10.37S51.09,17.09,50.32,16.11z"/>
<path class="st7" d="M24.5,36.85c0.77,0.98,12.91-10.37,12.91-10.37S23.73,35.87,24.5,36.85z"/>
<path class="st6" d="M27.14,13.43c-0.97,0.78,10.27,13.05,10.27,13.05S28.11,12.65,27.14,13.43z"/>
<path class="st8" d="M47.68,39.53c0.97-0.78-10.27-13.05-10.27-13.05C37.41,26.48,46.71,40.3,47.68,39.53z"/>
<path class="st7" d="M39.27,9.92c-1.23-0.14-1.86,16.56-1.86,16.56S40.5,10.06,39.27,9.92z"/>
<path class="st8" d="M35.55,43.04c1.23,0.14,1.86-16.56,1.86-16.56S34.32,42.9,35.55,43.04z"/>
<path class="st7" d="M21.02,24.59c-0.14,1.24,16.39,1.89,16.39,1.89S21.16,23.35,21.02,24.59z"/>
<path class="st2" d="M53.8,28.37c0.14-1.24-16.39-1.89-16.39-1.89C37.41,26.48,53.66,29.61,53.8,28.37z"/>
<path class="st9" d="M57.66,19.11c-0.55-1.54-20.25,7.37-20.25,7.37S58.2,20.65,57.66,19.11z"/>
<path class="st8" d="M17.68,35.14c0.64,1.5,19.73-8.66,19.73-8.66S17.04,33.65,17.68,35.14z"/>
<path class="st7" d="M28.83,6.54c-1.46,0.69,9.12,19.7,9.12,19.7C37.95,26.24,30.29,5.85,28.83,6.54z"/>
<path class="st7" d="M45.99,46.42c1.48-0.65-8.58-19.94-8.58-19.94C37.41,26.48,44.51,47.07,45.99,46.42z"/>
<path class="st8" d="M46.22,6.64c-1.47-0.67-8.81,19.84-8.81,19.84S47.69,7.31,46.22,6.64z"/>
<path class="st2" d="M29.53,46.71c1.5,0.6,7.88-20.23,7.88-20.23S28.03,46.11,29.53,46.71z"/>
<path class="st2" d="M18.2,16.73c-0.73,1.46,19.22,9.75,19.22,9.75C37.41,26.48,18.92,15.27,18.2,16.73z"/>
<path class="st8" d="M57.43,34.45c0.59-1.52-20.02-7.97-20.02-7.97C37.41,26.48,56.84,35.97,57.43,34.45z"/>
<path class="st8" d="M55.76,23.71c-0.21-1.39-18.35,2.77-18.35,2.77S55.96,25.1,55.76,23.71z"/>
<path class="st7" d="M19.06,29.25c0.21,1.39,18.35-2.77,18.35-2.77S18.85,27.85,19.06,29.25z"/>
<path class="st8" d="M34.66,7.94c-1.38,0.21,2.75,18.55,2.75,18.54C37.41,26.48,36.04,7.73,34.66,7.94z"/>
<path class="st6" d="M40.16,45.02c1.38-0.21-2.75-18.54-2.75-18.54C37.41,26.48,38.78,45.23,40.16,45.02z"/>
<path class="st2" d="M50.95,6.57c-1.43-0.95-13.54,19.91-13.54,19.91S52.38,7.52,50.95,6.57z"/>
<path class="st8" d="M26.37,41.55c1.12,0.84,11.04-15.07,11.04-15.07S25.26,40.71,26.37,41.55z"/>
<path class="st8" d="M22.49,15.32c-0.83,1.13,14.92,11.16,14.92,11.16C37.41,26.48,23.32,14.19,22.49,15.32z"/>
<path class="st7" d="M52.33,37.64c0.83-1.13-14.92-11.16-14.92-11.16C37.41,26.48,51.5,38.77,52.33,37.64z"/>
<path class="st2" d="M23.23,40.78c0,0,15.09-13.62,15.45-13.98c1.31-1.32-0.31-2.95-1.62-1.63C36.71,25.53,23.23,40.78,23.23,40.78z
	"/>
<polygon class="st10" points="34.15,29.74 35.02,35.54 38.67,30.95 44.08,33.05 42,27.58 46.54,23.89 40.81,23.02 39.95,17.22 
	36.29,21.81 30.88,19.71 32.96,25.17 28.42,28.87 "/>
<polygon class="st4" points="35.13,28.75 35.74,32.85 38.32,29.6 42.14,31.09 40.67,27.23 43.88,24.62 39.83,24 39.22,19.91 
	36.64,23.15 32.82,21.67 34.29,25.53 31.08,28.14 "/>
</svg>
