<?xml version="1.0" encoding="utf-8"?>
<!-- Generator: Adobe Illustrator 15.0.0, SVG Export Plug-In . SVG Version: 6.00 Build 0)  -->
<!DOCTYPE svg PUBLIC "-//W3C//DTD SVG 1.1//EN" "http://www.w3.org/Graphics/SVG/1.1/DTD/svg11.dtd" [
	<!ENTITY ns_flows "http://ns.adobe.com/Flows/1.0/">
	<!ENTITY ns_extend "http://ns.adobe.com/Extensibility/1.0/">
	<!ENTITY ns_ai "http://ns.adobe.com/AdobeIllustrator/10.0/">
	<!ENTITY ns_graphs "http://ns.adobe.com/Graphs/1.0/">
]>
<svg version="1.1" id="Layer_1" xmlns:x="&ns_extend;" xmlns:i="&ns_ai;" xmlns:graph="&ns_graphs;"
	 xmlns="http://www.w3.org/2000/svg" xmlns:xlink="http://www.w3.org/1999/xlink" xmlns:a="http://ns.adobe.com/AdobeSVGViewerExtensions/3.0/"
	 x="0px" y="0px" width="64px" height="64px" viewBox="0 0 64 64" enable-background="new 0 0 64 64" xml:space="preserve">
<linearGradient id="SVGID_1_" gradientUnits="userSpaceOnUse" x1="33.1914" y1="16.0732" x2="33.1914" y2="3.0029">
	<stop  offset="0.6545" style="stop-color:#4B5961"/>
	<stop  offset="0.739" style="stop-color:#47545B"/>
	<stop  offset="0.8469" style="stop-color:#3A454C"/>
	<stop  offset="0.967" style="stop-color:#262D31"/>
	<stop  offset="1" style="stop-color:#1F2529"/>
	<a:midPointStop  offset="0.6545" style="stop-color:#4B5961"/>
	<a:midPointStop  offset="0.6552" style="stop-color:#4B5961"/>
	<a:midPointStop  offset="1" style="stop-color:#1F2529"/>
</linearGradient>
<path fill="url(#SVGID_1_)" d="M39.441,16.073l-6.691-4.371c-0.112-2.725-1.112-7.363-5.809-6.997
	C34.252,0.152,38.033,5,39.441,16.073z"/>
<linearGradient id="SVGID_2_" gradientUnits="userSpaceOnUse" x1="21.8975" y1="5.7476" x2="35.1602" y2="5.7476">
	<stop  offset="0" style="stop-color:#778B94"/>
	<stop  offset="1" style="stop-color:#4E5E67"/>
	<a:midPointStop  offset="0" style="stop-color:#778B94"/>
	<a:midPointStop  offset="0.5" style="stop-color:#778B94"/>
	<a:midPointStop  offset="1" style="stop-color:#4E5E67"/>
</linearGradient>
<path fill="url(#SVGID_2_)" d="M21.898,9.295l7.219,0.2c-1.134-5.498,3.02-6.944,6.043-5.195
	C30.219-0.927,21.817,3.624,21.898,9.295z"/>
<linearGradient id="SVGID_3_" gradientUnits="userSpaceOnUse" x1="50.6094" y1="51.7412" x2="50.6094" y2="3.4263">
	<stop  offset="0.6545" style="stop-color:#4B5961"/>
	<stop  offset="0.739" style="stop-color:#47545B"/>
	<stop  offset="0.8469" style="stop-color:#3A454C"/>
	<stop  offset="0.967" style="stop-color:#262D31"/>
	<stop  offset="1" style="stop-color:#1F2529"/>
	<a:midPointStop  offset="0.6545" style="stop-color:#4B5961"/>
	<a:midPointStop  offset="0.6552" style="stop-color:#4B5961"/>
	<a:midPointStop  offset="1" style="stop-color:#1F2529"/>
</linearGradient>
<path fill="url(#SVGID_3_)" d="M52.292,51.741l-6.135-5.423C54.387,3.612,48.362,6.748,45.22,4.713
	C53.306,0.856,60.687,2.817,52.292,51.741z"/>
<linearGradient id="SVGID_4_" gradientUnits="userSpaceOnUse" x1="39.8359" y1="7.0322" x2="52.5439" y2="7.0322">
	<stop  offset="0" style="stop-color:#778B94"/>
	<stop  offset="1" style="stop-color:#4E5E67"/>
	<a:midPointStop  offset="0" style="stop-color:#778B94"/>
	<a:midPointStop  offset="0.5" style="stop-color:#778B94"/>
	<a:midPointStop  offset="1" style="stop-color:#4E5E67"/>
</linearGradient>
<path fill="url(#SVGID_4_)" d="M39.861,7.885l6.226,4.18c-0.261-2.921,2.392-9.402,6.457-7.722
	C46.238-1.333,39.363,4.687,39.861,7.885z"/>
<linearGradient id="SVGID_5_" gradientUnits="userSpaceOnUse" x1="39.7246" y1="62" x2="39.7246" y2="6.3511">
	<stop  offset="0" style="stop-color:#45545C"/>
	<stop  offset="1" style="stop-color:#6B7D85"/>
	<a:midPointStop  offset="0" style="stop-color:#45545C"/>
	<a:midPointStop  offset="0.5" style="stop-color:#45545C"/>
	<a:midPointStop  offset="1" style="stop-color:#6B7D85"/>
</linearGradient>
<path fill="url(#SVGID_5_)" d="M52.426,17.887C50.363,5.864,33.476,6.129,29.414,6.451c-1.944,0.154-3.806,0.301-3.806,0.301v53.939
	c0,0,12.034,1.293,16.194,1.309c3.43,0.012,11.365-2.604,11.718-4.657C54.346,52.529,53.441,23.814,52.426,17.887z"/>
<linearGradient id="SVGID_6_" gradientUnits="userSpaceOnUse" x1="26.6099" y1="61.7188" x2="26.6099" y2="6.626">
	<stop  offset="0" style="stop-color:#4E5E67"/>
	<stop  offset="1" style="stop-color:#778B94"/>
	<a:midPointStop  offset="0" style="stop-color:#4E5E67"/>
	<a:midPointStop  offset="0.5" style="stop-color:#4E5E67"/>
	<a:midPointStop  offset="1" style="stop-color:#778B94"/>
</linearGradient>
<path fill="url(#SVGID_6_)" d="M44.144,17.541C42.797,1.321,9.994,4.29,8.89,19.128c-0.4,5.376-0.794,18.195-0.794,30.622
	c0,9.078,2.438,9.749,6.455,10.066l22.878,1.811c4.714,0.373,7.693,0.076,7.693-10.041C45.123,37.736,44.637,23.475,44.144,17.541z"
	/>
<path fill="#75D6FF" d="M43.502,18.736c0.476,5.797,1.178,35.239,1.178,32.399c0-13.533-0.475-27.47-0.955-33.272
	C42.409,2.011,10.313,4.856,9.232,19.386C10.832,5.261,42.206,2.887,43.502,18.736z"/>
<path fill="#75D6FF" d="M48.806,17.914c0.475,5.797,1.177,35.238,1.177,32.399c0-13.533-0.475-27.47-0.955-33.273
	C48.188,6.94,33.492,6.427,33.492,6.427S47.953,7.495,48.806,17.914z"/>
<polygon fill="#75D6FF" points="37.43,20.568 14.551,21.422 14.551,20.197 37.43,19.258 "/>
<path fill="#E6EBEF" d="M27.239,11.247l-0.289-2.53c-0.09-0.805-1.13-0.737-1.227,0.077l-0.286,2.553
	C25.277,12.782,27.403,12.671,27.239,11.247z M25.776,11.614l0.11-1.423l0.899-0.051l0.117,1.413
	C26.873,11.668,25.799,11.725,25.776,11.614z"/>
<polygon fill="#B3C2C6" points="26.681,9.396 25.994,9.436 25.993,7.435 26.681,7.391 "/>
<path fill="#E6EBEF" d="M25.776,11.343L25.49,8.822c-0.092-0.801-1.123-0.733-1.215,0.076L23.99,11.44
	C23.831,12.871,25.938,12.761,25.776,11.343z M24.323,11.708l0.111-1.417l0.892-0.05l0.114,1.407
	C25.411,11.762,24.35,11.818,24.323,11.708z"/>
<polygon fill="#B3C2C6" points="25.221,9.499 24.541,9.54 24.54,7.547 25.221,7.502 "/>
<path fill="#E6EBEF" d="M37.555,23.933l-0.31-2.617c-0.096-0.832-1.201-0.801-1.3,0.033l-0.305,2.619
	C35.47,25.44,37.727,25.407,37.555,23.933z M35.997,24.255l0.118-1.459l0.957-0.02l0.121,1.459
	C37.162,24.352,36.026,24.372,35.997,24.255z"/>
<polygon fill="#B3C2C6" points="36.958,22.004 36.231,22.02 36.229,19.961 36.958,19.939 "/>
<path fill="#4F5F69" d="M41.652,58.448c2.434-2.795,1.509-12.928,1.251-16.288c-1.253-16.361-31.96-15.679-32.998-0.777
	c-0.213,3.035-0.97,12.125,1.035,14.938C11.878,57.633,40.598,59.662,41.652,58.448z"/>
<linearGradient id="SVGID_7_" gradientUnits="userSpaceOnUse" x1="24.6792" y1="58.6875" x2="24.6792" y2="30.0664">
	<stop  offset="0" style="stop-color:#5B6D78"/>
	<stop  offset="1" style="stop-color:#7D929C"/>
	<a:midPointStop  offset="0" style="stop-color:#5B6D78"/>
	<a:midPointStop  offset="0.5" style="stop-color:#5B6D78"/>
	<a:midPointStop  offset="1" style="stop-color:#7D929C"/>
</linearGradient>
<path fill="url(#SVGID_7_)" d="M39.737,58.315c2.406-2.78,1.491-12.858,1.235-16.202c-1.238-16.272-31.63-15.597-32.659-0.769
	c-0.21,3.021-0.96,12.066,1.026,14.864C10.266,57.516,38.691,59.523,39.737,58.315z"/>
<path fill="#75D6FF" d="M40.271,43.29c0.18,2.356,0.511,7.097,0.511,7.097s-0.062-4.701-0.309-7.946
	C39.274,26.639,9.463,27.229,8.461,41.662C10.072,27.951,39.087,27.495,40.271,43.29z"/>
<path fill="#E6EBEF" d="M41.645,51.743L41.33,49.07c-0.1-0.85-1.231-0.906-1.333-0.07l-0.31,2.625
	C39.513,53.102,41.82,53.248,41.645,51.743z M40.053,51.947l0.121-1.469l0.979,0.057l0.123,1.486
	C41.243,52.137,40.08,52.064,40.053,51.947z"/>
<polygon fill="#B3C2C6" points="41.036,49.746 40.289,49.703 40.289,47.619 41.036,47.656 "/>
<path fill="#E6EBEF" d="M50.961,51.625L50.651,49c-0.102-0.836-1.233-0.779-1.333,0.07l-0.314,2.673
	C48.828,53.248,51.136,53.102,50.961,51.625z M49.373,52.021l0.123-1.486l0.979-0.057l0.121,1.469
	C50.568,52.064,49.405,52.137,49.373,52.021z"/>
<polygon fill="#B3C2C6" points="49.612,49.746 50.359,49.703 50.359,47.619 49.612,47.656 "/>
<polygon fill="#E6EBEF" points="15.565,20.655 15.565,21.219 14.931,21.24 14.931,20.676 "/>
<polygon fill="#E6EBEF" points="16.781,20.614 16.781,21.178 16.148,21.199 16.148,20.635 "/>
<polygon fill="#E6EBEF" points="17.997,20.573 17.997,21.137 17.364,21.158 17.364,20.594 "/>
<polygon fill="#E6EBEF" points="19.213,20.531 19.213,21.095 18.58,21.117 18.58,20.553 "/>
<polygon fill="#E6EBEF" points="20.429,20.49 20.429,21.054 19.796,21.076 19.796,20.512 "/>
<polygon fill="#E6EBEF" points="21.646,20.449 21.646,21.013 21.013,21.035 21.013,20.471 "/>
<polygon fill="#E6EBEF" points="22.862,20.408 22.862,20.972 22.228,20.994 22.228,20.43 "/>
<polygon fill="#E6EBEF" points="24.079,20.367 24.079,20.931 23.445,20.953 23.445,20.389 "/>
<polygon fill="#E6EBEF" points="25.294,20.326 25.294,20.89 24.662,20.912 24.662,20.348 "/>
<polygon fill="#E6EBEF" points="26.511,20.285 26.511,20.849 25.877,20.871 25.877,20.307 "/>
<polygon fill="#E6EBEF" points="27.727,20.244 27.727,20.808 27.094,20.83 27.094,20.266 "/>
<polygon fill="#E6EBEF" points="28.943,20.203 28.943,20.767 28.31,20.789 28.31,20.225 "/>
<polygon fill="#E6EBEF" points="30.16,20.162 30.16,20.726 29.526,20.748 29.526,20.184 "/>
<polygon fill="#E6EBEF" points="31.376,20.121 31.376,20.685 30.743,20.707 30.743,20.143 "/>
<polygon fill="#E6EBEF" points="32.591,20.08 32.591,20.644 31.958,20.666 31.958,20.102 "/>
<polygon fill="#E6EBEF" points="33.809,20.039 33.809,20.603 33.176,20.625 33.176,20.061 "/>
<polygon fill="#E6EBEF" points="35.025,19.998 35.025,20.562 34.392,20.583 34.392,20.019 "/>
<polygon fill="#E6EBEF" points="36.242,19.957 36.242,20.521 35.608,20.542 35.608,19.978 "/>
<polygon fill="#D5DADE" points="16.171,20.247 16.171,20.81 15.538,20.831 15.538,20.268 "/>
<polygon fill="#D5DADE" points="17.388,20.206 17.388,20.769 16.754,20.79 16.754,20.227 "/>
<polygon fill="#D5DADE" points="18.604,20.165 18.604,20.728 17.971,20.749 17.971,20.186 "/>
<polygon fill="#D5DADE" points="19.821,20.123 19.821,20.687 19.187,20.708 19.187,20.145 "/>
<polygon fill="#D5DADE" points="21.037,20.082 21.037,20.646 20.403,20.667 20.403,20.104 "/>
<polygon fill="#D5DADE" points="22.253,20.041 22.253,20.604 21.62,20.626 21.62,20.063 "/>
<polygon fill="#D5DADE" points="23.469,20 23.469,20.563 22.835,20.585 22.835,20.021 "/>
<polygon fill="#D5DADE" points="24.685,19.959 24.685,20.522 24.052,20.544 24.052,19.98 "/>
<polygon fill="#D5DADE" points="25.902,19.918 25.902,20.481 25.268,20.503 25.268,19.939 "/>
<polygon fill="#D5DADE" points="27.118,19.877 27.118,20.44 26.485,20.462 26.485,19.898 "/>
<polygon fill="#D5DADE" points="28.334,19.836 28.334,20.399 27.701,20.421 27.701,19.857 "/>
<polygon fill="#D5DADE" points="29.551,19.795 29.551,20.358 28.917,20.38 28.917,19.816 "/>
<polygon fill="#D5DADE" points="30.767,19.754 30.767,20.317 30.133,20.339 30.133,19.775 "/>
<polygon fill="#D5DADE" points="31.983,19.713 31.983,20.276 31.349,20.298 31.349,19.734 "/>
<polygon fill="#D5DADE" points="33.2,19.672 33.2,20.235 32.566,20.257 32.566,19.693 "/>
<polygon fill="#D5DADE" points="34.416,19.631 34.416,20.194 33.783,20.216 33.783,19.652 "/>
<polygon fill="#D5DADE" points="35.632,19.59 35.632,20.153 34.998,20.175 34.998,19.611 "/>
<polygon fill="#D5DADE" points="36.849,19.549 36.849,20.112 36.215,20.133 36.215,19.57 "/>
</svg>
