<?xml version="1.0" encoding="utf-8"?>
<!-- Generator: Adobe Illustrator 15.0.0, SVG Export Plug-In . SVG Version: 6.00 Build 0)  -->
<!DOCTYPE svg PUBLIC "-//W3C//DTD SVG 1.1//EN" "http://www.w3.org/Graphics/SVG/1.1/DTD/svg11.dtd" [
	<!ENTITY ns_flows "http://ns.adobe.com/Flows/1.0/">
	<!ENTITY ns_extend "http://ns.adobe.com/Extensibility/1.0/">
	<!ENTITY ns_ai "http://ns.adobe.com/AdobeIllustrator/10.0/">
	<!ENTITY ns_graphs "http://ns.adobe.com/Graphs/1.0/">
]>
<svg version="1.1" id="Layer_1" xmlns:x="&ns_extend;" xmlns:i="&ns_ai;" xmlns:graph="&ns_graphs;"
	 xmlns="http://www.w3.org/2000/svg" xmlns:xlink="http://www.w3.org/1999/xlink" xmlns:a="http://ns.adobe.com/AdobeSVGViewerExtensions/3.0/"
	 x="0px" y="0px" width="64px" height="64px" viewBox="0 0 64 64" enable-background="new 0 0 64 64" xml:space="preserve">
<linearGradient id="SVGID_1_" gradientUnits="userSpaceOnUse" x1="2" y1="32" x2="62" y2="32">
	<stop  offset="0" style="stop-color:#26221D"/>
	<stop  offset="0.1272" style="stop-color:#2C2823"/>
	<stop  offset="0.3025" style="stop-color:#3D3935"/>
	<stop  offset="0.505" style="stop-color:#585552"/>
	<stop  offset="0.5758" style="stop-color:#63615E"/>
	<stop  offset="0.8701" style="stop-color:#3A3632"/>
	<stop  offset="1" style="stop-color:#26221D"/>
	<a:midPointStop  offset="0" style="stop-color:#26221D"/>
	<a:midPointStop  offset="0.6383" style="stop-color:#26221D"/>
	<a:midPointStop  offset="0.5758" style="stop-color:#63615E"/>
	<a:midPointStop  offset="0.5211" style="stop-color:#63615E"/>
	<a:midPointStop  offset="1" style="stop-color:#26221D"/>
</linearGradient>
<path fill="url(#SVGID_1_)" d="M2,7c0,2.701,0,5.4,0,8.102c0-0.078,12,13.161,0,25.462c0,2.7,0,5.402,0,8.103C22,48.666,42,57,62,57
	c0-2.701,0-5.402,0-8.103c-12-13.161,0-25.384,0-25.463c0-2.7,0-5.401,0-8.102C42,15.333,22,7,2,7z M4,10.499
	c0-0.637,0.449-1.146,1-1.125c0.666,0.027,1.333,0.062,2,0.104c0.55,0.035,0.999,0.591,1,1.227c0,0.385,0,0.771,0,1.157
	c0,0.639-0.45,1.123-1,1.088c-0.667-0.042-1.333-0.076-2-0.103c-0.55-0.022-1-0.554-1-1.191C4,11.271,4,10.885,4,10.499z M8,45.428
	c0,0.638-0.45,1.123-1,1.088c-0.667-0.042-1.333-0.078-2-0.104c-0.55-0.021-1-0.553-1-1.191c0-0.386,0-0.771,0-1.157
	c0-0.636,0.449-1.146,1-1.124C5.666,42.966,6.333,43,7,43.043c0.55,0.034,0.999,0.593,1,1.228C8,44.655,8,45.041,8,45.428z
	 M10.5,10.927c0-0.637,0.451-1.113,1-1.052c0.667,0.075,1.333,0.154,2,0.241c0.55,0.071,1,0.653,1,1.29c0,0.385,0,0.771,0,1.158
	c-0.001,0.638-0.451,1.094-1,1.023c-0.667-0.086-1.333-0.167-2-0.241c-0.55-0.062-1-0.626-1-1.264
	C10.5,11.697,10.5,11.312,10.5,10.927z M14.5,46.128c-0.001,0.639-0.451,1.097-1,1.024c-0.667-0.086-1.333-0.166-2-0.241
	c-0.55-0.058-1-0.627-1-1.263c0-0.387,0-0.772,0-1.157c0-0.636,0.451-1.113,1-1.052c0.667,0.074,1.333,0.155,2,0.24
	c0.55,0.072,1,0.655,1,1.29C14.5,45.356,14.5,45.743,14.5,46.128z M17,11.773c0-0.635,0.45-1.087,1-0.998
	c0.667,0.109,1.333,0.223,2,0.34c0.549,0.098,1,0.698,1,1.334c0,0.386,0,0.772,0,1.158c0,0.637-0.45,1.074-1,0.979
	c-0.667-0.117-1.333-0.229-2-0.339c-0.551-0.091-1-0.679-1-1.316C17,12.545,17,12.159,17,11.773z M21,47.172
	c0,0.637-0.45,1.076-1,0.98c-0.667-0.118-1.333-0.23-2-0.34c-0.551-0.088-1-0.678-1-1.317c0-0.385,0-0.771,0-1.157
	c0-0.634,0.45-1.088,1-0.998c0.667,0.11,1.333,0.223,2,0.34c0.549,0.097,1,0.698,1,1.335C21,46.4,21,46.786,21,47.172z M23.5,12.914
	c-0.001-0.635,0.45-1.07,1-0.962c0.666,0.129,1.333,0.263,2,0.396c0.551,0.112,0.999,0.726,1,1.359c0,0.388,0,0.772,0,1.157
	c0,0.64-0.449,1.067-1,0.955c-0.667-0.134-1.333-0.265-2-0.396c-0.55-0.105-1-0.714-1-1.351C23.5,13.687,23.5,13.301,23.5,12.914z
	 M27.5,48.43c0,0.639-0.449,1.065-1,0.955c-0.667-0.134-1.333-0.267-2-0.396c-0.55-0.107-1-0.713-1-1.352c0-0.385,0-0.771,0-1.157
	c-0.001-0.636,0.45-1.071,1-0.964c0.666,0.132,1.333,0.263,2,0.397c0.551,0.111,0.999,0.726,1,1.358
	C27.5,47.658,27.5,48.044,27.5,48.43z M30,14.224c0-0.636,0.45-1.066,1-0.951c0.667,0.14,1.333,0.278,2,0.417
	c0.549,0.114,1,0.73,1,1.365c0,0.386,0,0.771,0,1.157c0,0.64-0.451,1.063-1,0.949c-0.667-0.138-1.333-0.277-2-0.416
	c-0.55-0.115-1-0.728-1-1.365C30,14.993,30,14.608,30,14.224z M34,49.776c0,0.638-0.451,1.064-1,0.95
	c-0.667-0.14-1.333-0.278-2-0.416c-0.55-0.118-1-0.729-1-1.365c0-0.388,0-0.772,0-1.157c0-0.636,0.45-1.067,1-0.95
	c0.667,0.138,1.333,0.278,2,0.417c0.549,0.114,1,0.729,1,1.364C34,49.006,34,49.391,34,49.776z M36.5,15.569
	c0.001-0.636,0.449-1.068,1-0.955c0.667,0.134,1.333,0.268,2,0.396c0.55,0.106,0.999,0.714,1,1.351c0,0.386,0,0.771,0,1.158
	c0,0.637-0.45,1.071-1,0.964c-0.667-0.131-1.333-0.265-2-0.397c-0.55-0.111-1-0.721-1-1.359C36.5,16.342,36.5,15.954,36.5,15.569z
	 M40.5,51.084c0,0.637-0.45,1.07-1,0.963c-0.667-0.129-1.333-0.263-2-0.396c-0.55-0.108-1-0.723-1-1.36c0-0.386,0-0.771,0-1.156
	c0.001-0.639,0.449-1.067,1-0.956c0.667,0.134,1.333,0.267,2,0.396c0.55,0.109,0.999,0.716,1,1.351
	C40.5,50.313,40.5,50.698,40.5,51.084z M43,16.826c0-0.635,0.451-1.074,1-0.979c0.666,0.116,1.333,0.23,2,0.338
	c0.549,0.09,1,0.681,1,1.316c0,0.387,0,0.773,0,1.159c0,0.638-0.449,1.086-1,0.997c-0.667-0.108-1.333-0.222-2-0.338
	c-0.551-0.095-1-0.7-1-1.336C43,17.599,43,17.214,43,16.826z M47,52.225c0,0.639-0.449,1.088-1,0.999
	c-0.667-0.108-1.333-0.223-2-0.339c-0.551-0.096-1-0.7-1-1.336c0-0.385,0-0.771,0-1.157c0-0.637,0.451-1.073,1-0.979
	c0.666,0.117,1.333,0.23,2,0.339c0.549,0.09,1,0.681,1,1.316C47,51.454,47,51.84,47,52.225z M49.5,17.87
	c0-0.633,0.449-1.094,1-1.023c0.667,0.087,1.333,0.167,2,0.24c0.55,0.063,1,0.627,1,1.264c0,0.386,0,0.772,0,1.157
	c0,0.641-0.45,1.111-1,1.052c-0.667-0.074-1.333-0.154-2-0.241c-0.549-0.068-1-0.654-1-1.291C49.5,18.643,49.5,18.256,49.5,17.87z
	 M53.5,53.072c0,0.64-0.45,1.112-1,1.051c-0.667-0.073-1.333-0.153-2-0.239c-0.549-0.071-1-0.652-1-1.292c0-0.385,0-0.771,0-1.157
	c0-0.635,0.449-1.094,1-1.022c0.667,0.085,1.333,0.166,2,0.24c0.55,0.063,1,0.627,1,1.263C53.5,52.301,53.5,52.688,53.5,53.072z
	 M56,18.572c0-0.637,0.45-1.122,1-1.089c0.667,0.042,1.333,0.077,2,0.104c0.549,0.021,1,0.554,1,1.19c0,0.386,0,0.772,0,1.158
	c0,0.637-0.45,1.146-1,1.124c-0.667-0.025-1.333-0.062-2-0.104c-0.549-0.036-1.001-0.589-1-1.227C56,19.344,56,18.957,56,18.572z
	 M60,53.5c0,0.638-0.45,1.146-1,1.124c-0.667-0.026-1.333-0.062-2-0.104c-0.549-0.036-1.001-0.589-1-1.227c0-0.387,0-0.771,0-1.156
	c0-0.638,0.45-1.123,1-1.09c0.667,0.043,1.333,0.077,2,0.104c0.549,0.023,1,0.557,1,1.19C60,52.728,60,53.115,60,53.5z"/>
<path fill="#989A94" d="M13.5,15.902C9.667,15.407,5.833,15.102,2,15.102c0,8.486,0,16.975,0,25.462c3.833,0,7.667,0.307,11.5,0.802
	c0.274,0.035,0.5-0.194,0.5-0.513c0-8.103,0-16.203,0-24.306C14,16.23,13.773,15.938,13.5,15.902z"/>
<path fill="#C3C6BE" d="M50.5,22.634C50.226,22.6,50,22.829,50,23.146c0,8.102,0,16.203,0,24.306
	c-0.001,0.318,0.226,0.609,0.5,0.646c3.833,0.495,7.667,0.8,11.5,0.8c0-8.487,0-16.975,0-25.463
	C58.166,23.435,54.333,23.129,50.5,22.634z"/>
<linearGradient id="SVGID_2_" gradientUnits="userSpaceOnUse" x1="18" y1="31.9995" x2="46" y2="31.9995">
	<stop  offset="0" style="stop-color:#989A94"/>
	<stop  offset="0.1231" style="stop-color:#AFB1AA"/>
	<stop  offset="0.3339" style="stop-color:#D1D1CB"/>
	<stop  offset="0.5085" style="stop-color:#E5E6DF"/>
	<stop  offset="0.6242" style="stop-color:#EDEDE6"/>
	<a:midPointStop  offset="0" style="stop-color:#989A94"/>
	<a:midPointStop  offset="0.3821" style="stop-color:#989A94"/>
	<a:midPointStop  offset="0.6242" style="stop-color:#EDEDE6"/>
</linearGradient>
<path fill="url(#SVGID_2_)" d="M46,46.857c0.001,0.318-0.226,0.54-0.5,0.497c-9-1.496-18-3.752-27-5.246
	c-0.275-0.047-0.499-0.342-0.5-0.661c0-8.103,0-16.205,0-24.306c-0.002-0.318,0.225-0.542,0.5-0.496c9,1.495,18,3.75,27,5.245
	c0.274,0.044,0.499,0.342,0.5,0.661C46,30.654,46,38.756,46,46.857z"/>
</svg>
