<?xml version="1.0" encoding="utf-8"?>
<!-- Generator: Adobe Illustrator 24.1.2, SVG Export Plug-In . SVG Version: 6.00 Build 0)  -->
<svg version="1.1" id="Layer_1" xmlns="http://www.w3.org/2000/svg" xmlns:xlink="http://www.w3.org/1999/xlink" x="0px" y="0px"
	 width="64px" height="64px" viewBox="0 0 64 64" style="enable-background:new 0 0 64 64;" xml:space="preserve">
<style type="text/css">
	.st0{fill:#302C3B;}
	.st1{fill:url(#SVGID_1_);}
	.st2{fill:url(#SVGID_2_);}
	.st3{fill:url(#SVGID_3_);}
	.st4{fill:url(#SVGID_4_);}
	.st5{opacity:0.5;fill:#1A1626;}
	.st6{fill:url(#SVGID_5_);}
	.st7{fill:url(#SVGID_6_);}
	.st8{fill:url(#SVGID_7_);}
	.st9{fill:#556670;}
	.st10{fill:url(#SVGID_8_);}
	.st11{fill:url(#SVGID_9_);}
	.st12{fill:url(#SVGID_10_);}
	.st13{fill:url(#SVGID_11_);}
	.st14{fill:url(#SVGID_12_);}
	.st15{fill:url(#SVGID_13_);}
	.st16{fill:url(#SVGID_14_);}
	.st17{fill:url(#SVGID_15_);}
	.st18{fill:url(#SVGID_16_);}
	.st19{fill:url(#SVGID_17_);}
	.st20{fill:url(#SVGID_18_);}
	.st21{fill:url(#SVGID_19_);}
</style>
<path class="st0" d="M25.47,12.07c0,0-2.9-2.07-4.33-2.07c-10.79,0-12.18,4.86-12.57,6.28C8.19,17.71,24.96,12.3,25.47,12.07z"/>
<path class="st0" d="M38.53,12.07c0,0,2.9-2.07,4.33-2.07c10.79,0,12.18,4.86,12.57,6.28C55.81,17.71,39.04,12.3,38.53,12.07z"/>
<linearGradient id="SVGID_1_" gradientUnits="userSpaceOnUse" x1="32" y1="39.5654" x2="32" y2="11.6572">
	<stop  offset="0.1212" style="stop-color:#302C3B"/>
	<stop  offset="0.2424" style="stop-color:#393945"/>
	<stop  offset="0.4695" style="stop-color:#454A53"/>
	<stop  offset="0.7132" style="stop-color:#4C555B"/>
	<stop  offset="1" style="stop-color:#4E585E"/>
</linearGradient>
<path class="st1" d="M58.84,25.34c0,0-0.97-4.29-1.88-7c-1.71-5.06-10.43-6.69-24.96-6.69c-14.53,0-23.26,1.62-24.96,6.69
	c-0.91,2.71-1.88,7-1.88,7S4.28,37.67,19.24,39.57c2.41,0,7.58,0,12.76,0s10.35,0,12.76,0C59.72,37.67,58.84,25.34,58.84,25.34z"/>
<linearGradient id="SVGID_2_" gradientUnits="userSpaceOnUse" x1="260.4693" y1="44.7329" x2="248.37" y2="39.0909" gradientTransform="matrix(-1 0 0 1 308.6133 0)">
	<stop  offset="0.3213" style="stop-color:#302C3B"/>
	<stop  offset="0.3691" style="stop-color:#33303E"/>
	<stop  offset="0.7706" style="stop-color:#474D55"/>
	<stop  offset="1" style="stop-color:#4E585E"/>
</linearGradient>
<path class="st2" d="M58.84,25.34C60.45,32.49,62,47.01,62,50.06c0,2.05-1.59,3.94-3.5,3.94c-2.03,0-5.55-1.5-7.26-3.2
	c-1.25-1.25-6.48-11.23-6.48-11.23C48.38,38.55,58.49,29.79,58.84,25.34z"/>
<linearGradient id="SVGID_3_" gradientUnits="userSpaceOnUse" x1="657.2213" y1="48.5433" x2="645.4995" y2="36.6917" gradientTransform="matrix(1 0 0 1 -643.7535 0)">
	<stop  offset="0.3213" style="stop-color:#302C3B"/>
	<stop  offset="0.3691" style="stop-color:#33303E"/>
	<stop  offset="0.7706" style="stop-color:#474D55"/>
	<stop  offset="1" style="stop-color:#4E585E"/>
</linearGradient>
<path class="st3" d="M5.16,25.34C3.55,32.49,2,47.01,2,50.06C2,52.11,3.59,54,5.5,54c2.03,0,5.55-1.5,7.26-3.2
	c1.25-1.25,6.48-11.23,6.48-11.23C15.62,38.55,5.51,29.79,5.16,25.34z"/>
<linearGradient id="SVGID_4_" gradientUnits="userSpaceOnUse" x1="40.9033" y1="41.5654" x2="40.9033" y2="29.5654">
	<stop  offset="0" style="stop-color:#302C3B"/>
	<stop  offset="0.3449" style="stop-color:#3F424C"/>
	<stop  offset="0.7169" style="stop-color:#4A5259"/>
	<stop  offset="1" style="stop-color:#4E585E"/>
</linearGradient>
<circle class="st4" cx="40.9" cy="35.57" r="6"/>
<circle class="st5" cx="40.9" cy="35.57" r="5"/>
<radialGradient id="SVGID_5_" cx="39.9926" cy="34.2499" r="4.7471" gradientUnits="userSpaceOnUse">
	<stop  offset="0" style="stop-color:#7B9099"/>
	<stop  offset="0.3196" style="stop-color:#788D95"/>
	<stop  offset="0.6224" style="stop-color:#70828A"/>
	<stop  offset="0.9176" style="stop-color:#617077"/>
	<stop  offset="1" style="stop-color:#5C6A70"/>
</radialGradient>
<circle class="st6" cx="40.9" cy="35.57" r="4.25"/>
<linearGradient id="SVGID_6_" gradientUnits="userSpaceOnUse" x1="23.0967" y1="41.5654" x2="23.0967" y2="29.5654">
	<stop  offset="0" style="stop-color:#302C3B"/>
	<stop  offset="0.3449" style="stop-color:#3F424C"/>
	<stop  offset="0.7169" style="stop-color:#4A5259"/>
	<stop  offset="1" style="stop-color:#4E585E"/>
</linearGradient>
<circle class="st7" cx="23.1" cy="35.57" r="6"/>
<circle class="st5" cx="23.1" cy="35.57" r="5"/>
<radialGradient id="SVGID_7_" cx="22.186" cy="34.2499" r="4.7471" gradientUnits="userSpaceOnUse">
	<stop  offset="0" style="stop-color:#7B9099"/>
	<stop  offset="0.3196" style="stop-color:#788D95"/>
	<stop  offset="0.6224" style="stop-color:#70828A"/>
	<stop  offset="0.9176" style="stop-color:#617077"/>
	<stop  offset="1" style="stop-color:#5C6A70"/>
</radialGradient>
<circle class="st8" cx="23.1" cy="35.57" r="4.25"/>
<path id="Shape_6_" class="st9" d="M32,20.12c1.65,0,3,1.35,3,3s-1.35,3-3,3c-1.65,0-3-1.35-3-3S30.35,20.12,32,20.12z M32,19.12
	c-2.21,0-4,1.79-4,4s1.79,4,4,4c2.21,0,4-1.79,4-4S34.21,19.12,32,19.12z"/>
<path id="Combined-Shape_6_" class="st9" d="M32.8,23.52c-0.13,0-0.2-0.07-0.2-0.2v-0.4c0-0.13,0.07-0.2,0.2-0.2h1.3
	c0.13,0,0.2,0.07,0.2,0.2v0.2c0,1.27-1.03,2.3-2.3,2.3c-0.62,0-1.2-0.25-1.63-0.67c-0.09-0.1-0.09-0.19,0-0.28l0.43-0.42
	c0.09-0.09,0.19-0.09,0.28,0c0.24,0.24,0.57,0.38,0.92,0.38c0.58,0,1.07-0.38,1.24-0.9H32.8z"/>
<linearGradient id="SVGID_8_" gradientUnits="userSpaceOnUse" x1="48.8145" y1="30.1572" x2="48.8145" y2="12.1572">
	<stop  offset="0" style="stop-color:#4E585E"/>
	<stop  offset="0.2831" style="stop-color:#4A5259"/>
	<stop  offset="0.6551" style="stop-color:#3F424C"/>
	<stop  offset="1" style="stop-color:#302C3B"/>
</linearGradient>
<circle class="st10" cx="48.81" cy="21.16" r="9"/>
<linearGradient id="SVGID_9_" gradientUnits="userSpaceOnUse" x1="15.1865" y1="30.1572" x2="15.1865" y2="12.1572">
	<stop  offset="0" style="stop-color:#4E585E"/>
	<stop  offset="0.2831" style="stop-color:#4A5259"/>
	<stop  offset="0.6551" style="stop-color:#3F424C"/>
	<stop  offset="1" style="stop-color:#302C3B"/>
</linearGradient>
<circle class="st11" cx="15.19" cy="21.16" r="9"/>
<linearGradient id="SVGID_10_" gradientUnits="userSpaceOnUse" x1="48.8145" y1="29.1572" x2="48.8145" y2="13.1572">
	<stop  offset="0" style="stop-color:#302C3B;stop-opacity:0.3"/>
	<stop  offset="0.3449" style="stop-color:#3F424C;stop-opacity:0.5414"/>
	<stop  offset="0.7169" style="stop-color:#4A5259;stop-opacity:0.8018"/>
	<stop  offset="1" style="stop-color:#4E585E"/>
</linearGradient>
<circle class="st12" cx="48.81" cy="21.16" r="8"/>
<linearGradient id="SVGID_11_" gradientUnits="userSpaceOnUse" x1="15.1865" y1="29.1572" x2="15.1865" y2="13.1572">
	<stop  offset="0" style="stop-color:#302C3B;stop-opacity:0.3"/>
	<stop  offset="0.3449" style="stop-color:#3F424C;stop-opacity:0.5414"/>
	<stop  offset="0.7169" style="stop-color:#4A5259;stop-opacity:0.8018"/>
	<stop  offset="1" style="stop-color:#4E585E"/>
</linearGradient>
<circle class="st13" cx="15.19" cy="21.16" r="8"/>
<radialGradient id="SVGID_12_" cx="48.277" cy="16.0026" r="2.7457" gradientUnits="userSpaceOnUse">
	<stop  offset="0" style="stop-color:#FFE02E"/>
	<stop  offset="0.3732" style="stop-color:#FFDD2C"/>
	<stop  offset="0.5976" style="stop-color:#FFD525"/>
	<stop  offset="0.7825" style="stop-color:#FFC719"/>
	<stop  offset="0.9452" style="stop-color:#FFB307"/>
	<stop  offset="1" style="stop-color:#FFAA00"/>
</radialGradient>
<path class="st14" d="M48.81,14.66c-1.27,0-2.31,1.04-2.31,2.31c0,1.28,1.03,2.31,2.31,2.31s2.31-1.03,2.31-2.31
	C51.12,15.69,50.09,14.66,48.81,14.66z"/>
<radialGradient id="SVGID_13_" cx="52.3776" cy="20.1963" r="2.746" gradientUnits="userSpaceOnUse">
	<stop  offset="0" style="stop-color:#FF3B3B"/>
	<stop  offset="0.3627" style="stop-color:#FD3938"/>
	<stop  offset="0.5807" style="stop-color:#F63030"/>
	<stop  offset="0.7605" style="stop-color:#E92222"/>
	<stop  offset="0.9186" style="stop-color:#D80E0E"/>
	<stop  offset="1" style="stop-color:#CC0100"/>
</radialGradient>
<path class="st15" d="M53.01,18.85c-1.28,0-2.31,1.03-2.31,2.31c0,1.28,1.03,2.31,2.31,2.31c1.27,0,2.31-1.03,2.31-2.31
	C55.31,19.88,54.28,18.85,53.01,18.85z"/>
<radialGradient id="SVGID_14_" cx="48.152" cy="24.2975" r="2.7457" gradientUnits="userSpaceOnUse">
	<stop  offset="0" style="stop-color:#9BE022"/>
	<stop  offset="0.3551" style="stop-color:#99DD22"/>
	<stop  offset="0.5686" style="stop-color:#92D522"/>
	<stop  offset="0.7447" style="stop-color:#87C722"/>
	<stop  offset="0.8994" style="stop-color:#77B323"/>
	<stop  offset="1" style="stop-color:#69A123"/>
</radialGradient>
<path class="st16" d="M48.81,23.04c-1.27,0-2.31,1.03-2.31,2.31c0,1.28,1.03,2.31,2.31,2.31s2.31-1.03,2.31-2.31
	C51.12,24.08,50.09,23.04,48.81,23.04z"/>
<radialGradient id="SVGID_15_" cx="44.1153" cy="20.1035" r="2.7463" gradientUnits="userSpaceOnUse">
	<stop  offset="0" style="stop-color:#2289C7"/>
	<stop  offset="0.3533" style="stop-color:#2187C4"/>
	<stop  offset="0.5657" style="stop-color:#1C80BC"/>
	<stop  offset="0.7409" style="stop-color:#1575AE"/>
	<stop  offset="0.8949" style="stop-color:#0A659A"/>
	<stop  offset="1" style="stop-color:#005687"/>
</radialGradient>
<path class="st17" d="M44.62,18.85c-1.28,0-2.31,1.04-2.31,2.31c0,1.28,1.03,2.31,2.31,2.31c1.27,0,2.31-1.03,2.31-2.31
	C46.93,19.89,45.89,18.85,44.62,18.85z"/>
<radialGradient id="SVGID_16_" cx="11.4751" cy="21.1572" r="2.1017" gradientUnits="userSpaceOnUse">
	<stop  offset="0" style="stop-color:#7B9099"/>
	<stop  offset="0.4494" style="stop-color:#768A92"/>
	<stop  offset="1" style="stop-color:#6A7B82"/>
</radialGradient>
<path class="st18" d="M12.92,19.89c-0.32-0.35-0.98-0.63-1.45-0.63h-1.42c-0.47,0-0.86,0.39-0.86,0.86v2.07
	c0,0.47,0.39,0.86,0.86,0.86h1.42c0.48,0,1.13-0.28,1.45-0.63l0.6-0.64c0.32-0.35,0.32-0.91,0-1.26L12.92,19.89z"/>
<radialGradient id="SVGID_17_" cx="18.8994" cy="21.1572" r="2.1009" gradientUnits="userSpaceOnUse">
	<stop  offset="0" style="stop-color:#7B9099"/>
	<stop  offset="0.4494" style="stop-color:#768A92"/>
	<stop  offset="1" style="stop-color:#6A7B82"/>
</radialGradient>
<path class="st19" d="M17.45,22.42c0.32,0.35,0.98,0.63,1.45,0.63h1.43c0.47,0,0.86-0.39,0.86-0.86v-2.07
	c0-0.47-0.39-0.86-0.86-0.86H18.9c-0.47,0-1.13,0.28-1.45,0.63l-0.6,0.64c-0.32,0.35-0.32,0.91,0,1.26L17.45,22.42z"/>
<radialGradient id="SVGID_18_" cx="15.189" cy="17.445" r="2.1011" gradientUnits="userSpaceOnUse">
	<stop  offset="0" style="stop-color:#7B9099"/>
	<stop  offset="0.4494" style="stop-color:#768A92"/>
	<stop  offset="1" style="stop-color:#6A7B82"/>
</radialGradient>
<path class="st20" d="M16.46,18.89c0.34-0.33,0.63-0.98,0.63-1.45v-1.42c0-0.47-0.39-0.86-0.86-0.86h-2.07
	c-0.47,0-0.86,0.39-0.86,0.86v1.42c0,0.47,0.28,1.13,0.63,1.45l0.64,0.6c0.34,0.32,0.91,0.32,1.26,0L16.46,18.89z"/>
<radialGradient id="SVGID_19_" cx="15.189" cy="24.8693" r="2.1011" gradientUnits="userSpaceOnUse">
	<stop  offset="0" style="stop-color:#7B9099"/>
	<stop  offset="0.4494" style="stop-color:#768A92"/>
	<stop  offset="1" style="stop-color:#6A7B82"/>
</radialGradient>
<path class="st21" d="M13.92,23.42c-0.35,0.32-0.63,0.98-0.63,1.45v1.43c0,0.47,0.39,0.86,0.86,0.86h2.07
	c0.47,0,0.86-0.39,0.86-0.86v-1.43c0-0.47-0.28-1.13-0.63-1.45l-0.64-0.6c-0.35-0.32-0.91-0.32-1.26,0L13.92,23.42z"/>
</svg>
