<?xml version="1.0" encoding="utf-8"?>
<!-- Generator: Adobe Illustrator 24.1.2, SVG Export Plug-In . SVG Version: 6.00 Build 0)  -->
<svg version="1.1" id="Layer_1" xmlns="http://www.w3.org/2000/svg" xmlns:xlink="http://www.w3.org/1999/xlink" x="0px" y="0px"
	 width="64px" height="64px" viewBox="0 0 64 64" style="enable-background:new 0 0 64 64;" xml:space="preserve">
<style type="text/css">
	.st0{fill:#75D6FF;}
	.st1{fill:#018BC9;}
</style>
<path class="st0" d="M60,17H45.05c0,0.41-0.34,0.75-0.75,0.75c-0.41,0-0.75-0.34-0.75-0.75H4c-1.1,0-2,0.9-2,2v26c0,1.1,0.9,2,2,2
	h39.55c0-0.41,0.34-0.75,0.75-0.75c0.41,0,0.75,0.34,0.75,0.75H60c1.1,0,2-0.9,2-2V19C62,17.9,61.1,17,60,17z M44.3,45.02
	c-0.41,0-0.75-0.34-0.75-0.75c0-0.41,0.34-0.75,0.75-0.75c0.41,0,0.75,0.34,0.75,0.75C45.05,44.69,44.71,45.02,44.3,45.02z
	 M44.3,42.3c-0.41,0-0.75-0.34-0.75-0.75c0-0.41,0.34-0.75,0.75-0.75c0.41,0,0.75,0.34,0.75,0.75C45.05,41.96,44.71,42.3,44.3,42.3z
	 M44.3,39.57c-0.41,0-0.75-0.34-0.75-0.75c0-0.41,0.34-0.75,0.75-0.75c0.41,0,0.75,0.34,0.75,0.75
	C45.05,39.23,44.71,39.57,44.3,39.57z M44.3,36.84c-0.41,0-0.75-0.34-0.75-0.75c0-0.41,0.34-0.75,0.75-0.75
	c0.41,0,0.75,0.34,0.75,0.75C45.05,36.5,44.71,36.84,44.3,36.84z M44.3,34.11c-0.41,0-0.75-0.34-0.75-0.75
	c0-0.41,0.34-0.75,0.75-0.75c0.41,0,0.75,0.34,0.75,0.75C45.05,33.78,44.71,34.11,44.3,34.11z M44.3,31.39
	c-0.41,0-0.75-0.34-0.75-0.75c0-0.41,0.34-0.75,0.75-0.75c0.41,0,0.75,0.34,0.75,0.75C45.05,31.05,44.71,31.39,44.3,31.39z
	 M44.3,28.66c-0.41,0-0.75-0.34-0.75-0.75c0-0.41,0.34-0.75,0.75-0.75c0.41,0,0.75,0.34,0.75,0.75
	C45.05,28.32,44.71,28.66,44.3,28.66z M44.3,25.93c-0.41,0-0.75-0.34-0.75-0.75c0-0.41,0.34-0.75,0.75-0.75
	c0.41,0,0.75,0.34,0.75,0.75C45.05,25.6,44.71,25.93,44.3,25.93z M44.3,23.2c-0.41,0-0.75-0.34-0.75-0.75
	c0-0.41,0.34-0.75,0.75-0.75c0.41,0,0.75,0.34,0.75,0.75C45.05,22.87,44.71,23.2,44.3,23.2z M44.3,20.48
	c-0.41,0-0.75-0.34-0.75-0.75c0-0.41,0.34-0.75,0.75-0.75c0.41,0,0.75,0.34,0.75,0.75C45.05,20.14,44.71,20.48,44.3,20.48z"/>
<path class="st1" d="M59,20v24H48.54V20H59 M60,19H47.54v26H60V19L60,19z"/>
<path class="st1" d="M40.06,20v24H5V20H40.06 M41.06,19H4v26h37.06V19L41.06,19z"/>
<path id="Shape_2_" class="st1" d="M33.06,33.25c2.07,0,3.75,1.68,3.75,3.75c0,2.07-1.68,3.75-3.75,3.75
	c-2.07,0-3.75-1.68-3.75-3.75C29.31,34.93,30.99,33.25,33.06,33.25z M33.06,32c-2.76,0-5,2.24-5,5c0,2.76,2.24,5,5,5s5-2.24,5-5
	C38.06,34.24,35.82,32,33.06,32z"/>
<path id="Combined-Shape_2_" class="st1" d="M34.06,37.5c-0.17,0-0.25-0.08-0.25-0.25v-0.5c0-0.17,0.08-0.25,0.25-0.25h1.62
	c0.17,0,0.25,0.08,0.25,0.25V37c0,1.59-1.29,2.88-2.88,2.88c-0.77,0-1.5-0.31-2.03-0.84c-0.12-0.12-0.12-0.24,0-0.35l0.53-0.53
	c0.12-0.12,0.23-0.12,0.35,0c0.3,0.3,0.71,0.48,1.15,0.48c0.72,0,1.34-0.47,1.55-1.12H34.06z"/>
<polygon class="st1" points="10.69,23.01 12.2,23.01 12.2,26.96 13.26,26.96 13.26,23.01 14.77,23.01 14.77,22.16 10.69,22.16 "/>
<rect x="15.33" y="22.16" class="st1" width="1.05" height="4.81"/>
<path class="st1" d="M19.62,22.94c0.22,0,0.44,0.04,0.64,0.11c0.2,0.07,0.42,0.19,0.63,0.35l0.33-0.76
	c-0.19-0.18-0.43-0.31-0.72-0.41c-0.29-0.1-0.59-0.15-0.91-0.15c-0.49,0-0.92,0.1-1.28,0.3c-0.36,0.2-0.64,0.49-0.83,0.86
	c-0.19,0.37-0.29,0.8-0.29,1.3c0,0.5,0.1,0.93,0.29,1.31c0.19,0.37,0.47,0.66,0.83,0.86c0.36,0.2,0.79,0.3,1.28,0.3
	c0.32,0,0.62-0.05,0.91-0.15c0.29-0.1,0.53-0.23,0.72-0.41l-0.33-0.76c-0.22,0.16-0.43,0.28-0.63,0.35
	c-0.2,0.07-0.42,0.11-0.64,0.11c-0.43,0-0.76-0.14-0.99-0.42c-0.23-0.28-0.35-0.68-0.35-1.21c0-0.53,0.12-0.93,0.35-1.2
	C18.86,23.08,19.2,22.94,19.62,22.94z"/>
<polygon class="st1" points="26.3,22.16 25.04,22.16 23.02,24.27 23.02,22.16 21.97,22.16 21.97,26.96 23.02,26.96 23.02,24.74 
	25.12,26.96 26.39,26.96 24.06,24.46 "/>
<polygon class="st1" points="26.59,26.96 29.9,26.96 29.9,26.15 27.62,26.15 27.62,24.93 29.76,24.93 29.76,24.11 27.62,24.11 
	27.62,22.97 29.9,22.97 29.9,22.16 26.59,22.16 "/>
<polygon class="st1" points="30.29,22.16 30.29,23.01 31.79,23.01 31.79,26.96 32.86,26.96 32.86,23.01 34.36,23.01 34.36,22.16 "/>
<path class="st1" d="M8.96,36.32c0.19-0.07,0.35-0.18,0.46-0.35c0.12-0.18,0.18-0.4,0.18-0.65c0-0.24-0.05-0.45-0.16-0.63
	c-0.11-0.18-0.27-0.32-0.47-0.41c-0.2-0.1-0.44-0.14-0.71-0.14c-0.26,0-0.52,0.04-0.77,0.13c-0.25,0.09-0.46,0.21-0.62,0.36
	l0.28,0.69C7.33,35.18,7.5,35.07,7.68,35s0.36-0.11,0.53-0.11c0.18,0,0.32,0.05,0.42,0.14c0.1,0.09,0.15,0.23,0.15,0.41
	c0,0.18-0.06,0.32-0.17,0.41c-0.11,0.09-0.28,0.13-0.52,0.13H7.63v0.74h0.57c0.24,0,0.42,0.05,0.53,0.14
	c0.11,0.09,0.16,0.23,0.16,0.42c0,0.21-0.05,0.35-0.16,0.44c-0.11,0.09-0.29,0.14-0.53,0.14c-0.19,0-0.37-0.04-0.55-0.1
	c-0.18-0.07-0.36-0.18-0.54-0.32l-0.28,0.69c0.16,0.15,0.37,0.27,0.62,0.36c0.25,0.09,0.51,0.13,0.79,0.13
	c0.45,0,0.81-0.11,1.08-0.33c0.26-0.22,0.4-0.53,0.4-0.91c0-0.28-0.07-0.52-0.21-0.71C9.37,36.5,9.19,36.38,8.96,36.32z"/>
<polygon class="st1" points="12.31,34.19 11.8,34.19 10.63,34.94 10.63,35.79 11.44,35.26 11.44,37.8 10.58,37.8 10.58,38.57 
	13.17,38.57 13.17,37.8 12.31,37.8 "/>
<polygon class="st1" points="7.89,32.34 7.25,30.86 6.9,30.86 6.9,32.86 7.28,32.86 7.28,31.79 7.75,32.86 8.03,32.86 8.49,31.78 
	8.49,32.86 8.88,32.86 8.88,30.86 8.53,30.86 "/>
<path class="st1" d="M9.97,30.86l-0.92,2h0.44l0.19-0.44h0.93l0.19,0.44h0.44l-0.92-2H9.97z M9.83,32.09l0.32-0.75l0.32,0.75H9.83z"
	/>
<path class="st1" d="M12.86,32.24c-0.03-0.08-0.08-0.15-0.13-0.19c-0.04-0.03-0.08-0.04-0.13-0.05c0.09-0.03,0.17-0.07,0.23-0.12
	c0.12-0.11,0.19-0.25,0.19-0.43c0-0.19-0.06-0.33-0.18-0.43c-0.12-0.1-0.3-0.15-0.53-0.15h-0.89v2h0.43v-0.81h0.28
	c0.06,0,0.11,0.01,0.15,0.03c0.04,0.02,0.08,0.06,0.1,0.11l0.26,0.67h0.46L12.86,32.24z M12.24,31.72h-0.4V31.2h0.4
	c0.13,0,0.22,0.02,0.28,0.06c0.06,0.04,0.09,0.11,0.09,0.2c0,0.09-0.03,0.15-0.09,0.2C12.46,31.7,12.37,31.72,12.24,31.72z"/>
<path class="st1" d="M7.86,41.07c0.11-0.12,0.19-0.22,0.23-0.32c0.05-0.09,0.07-0.2,0.07-0.32c0-0.11-0.03-0.2-0.08-0.29
	C8.03,40.07,7.95,40,7.85,39.96c-0.1-0.04-0.22-0.07-0.35-0.07c-0.13,0-0.25,0.02-0.37,0.06c-0.12,0.04-0.22,0.09-0.3,0.16
	l0.14,0.31c0.09-0.06,0.18-0.11,0.26-0.14s0.17-0.05,0.25-0.05c0.09,0,0.15,0.02,0.2,0.06s0.07,0.1,0.07,0.17
	c0,0.06-0.02,0.13-0.05,0.19c-0.03,0.06-0.08,0.13-0.15,0.21l-0.65,0.69v0.32h1.34v-0.34H7.42L7.86,41.07z"/>
<path class="st1" d="M9.18,39.9c-0.24,0-0.42,0.08-0.54,0.25c-0.13,0.17-0.19,0.42-0.19,0.74c0,0.33,0.06,0.58,0.19,0.75
	c0.13,0.17,0.31,0.26,0.54,0.26c0.24,0,0.42-0.09,0.54-0.26c0.13-0.17,0.19-0.42,0.19-0.75c0-0.32-0.06-0.57-0.19-0.74
	C9.6,39.98,9.42,39.9,9.18,39.9z M9.42,41.41c-0.05,0.11-0.13,0.16-0.24,0.16c-0.11,0-0.19-0.05-0.24-0.16
	c-0.05-0.11-0.07-0.28-0.07-0.51c0-0.23,0.02-0.4,0.07-0.51c0.05-0.11,0.13-0.16,0.24-0.16c0.11,0,0.19,0.05,0.24,0.16
	c0.05,0.11,0.07,0.27,0.07,0.51C9.49,41.13,9.47,41.3,9.42,41.41z"/>
<polygon class="st1" points="11.14,39.92 10.89,39.92 10.32,40.25 10.32,40.63 10.71,40.39 10.71,41.53 10.29,41.53 10.29,41.87 
	11.56,41.87 11.56,41.53 11.14,41.53 "/>
<polygon class="st1" points="11.77,39.92 11.77,40.26 12.71,40.26 11.85,41.87 12.3,41.87 13.17,40.24 13.17,39.92 "/>
<path class="st1" d="M54.48,23.93c0.18,0.16,0.33,0.28,0.48,0.35c0.14,0.07,0.3,0.1,0.47,0.1c0.16,0,0.31-0.04,0.43-0.12
	c0.12-0.08,0.22-0.2,0.28-0.35c0.07-0.15,0.1-0.33,0.1-0.53c0-0.19-0.03-0.38-0.09-0.56c-0.06-0.18-0.14-0.33-0.24-0.45l-0.46,0.21
	c0.09,0.13,0.16,0.26,0.21,0.39c0.05,0.13,0.07,0.26,0.07,0.38c0,0.13-0.03,0.23-0.09,0.3c-0.06,0.07-0.14,0.1-0.26,0.1
	c-0.1,0-0.19-0.03-0.29-0.08c-0.1-0.05-0.2-0.13-0.31-0.23l-1.04-0.98h-0.47v2.01h0.51v-1.22L54.48,23.93z"/>
<path class="st1" d="M54.79,26.39c0.05,0.14,0.12,0.26,0.23,0.34c0.12,0.09,0.27,0.13,0.44,0.13c0.16,0,0.3-0.04,0.42-0.12
	c0.12-0.08,0.21-0.2,0.28-0.34c0.06-0.15,0.1-0.32,0.1-0.52c0-0.19-0.03-0.38-0.09-0.57c-0.06-0.19-0.14-0.34-0.24-0.45l-0.46,0.21
	c0.09,0.12,0.16,0.25,0.21,0.39c0.05,0.13,0.07,0.26,0.07,0.39c0,0.13-0.03,0.23-0.09,0.31c-0.06,0.07-0.16,0.11-0.28,0.11
	c-0.12,0-0.21-0.04-0.27-0.12c-0.06-0.08-0.09-0.21-0.09-0.38V25.4h-0.5v0.42c0,0.18-0.03,0.31-0.09,0.39
	c-0.06,0.08-0.15,0.12-0.28,0.12c-0.14,0-0.24-0.04-0.3-0.12s-0.09-0.21-0.09-0.39c0-0.14,0.02-0.27,0.07-0.41
	c0.05-0.13,0.12-0.27,0.21-0.39l-0.46-0.21c-0.1,0.12-0.18,0.27-0.24,0.46c-0.06,0.19-0.09,0.38-0.09,0.58
	c0,0.33,0.07,0.6,0.22,0.79c0.15,0.19,0.35,0.29,0.61,0.29c0.19,0,0.35-0.05,0.47-0.15C54.67,26.69,54.74,26.56,54.79,26.39z"/>
<path class="st1" d="M51.94,23.63c0.03-0.04,0.06-0.1,0.09-0.17c0.03-0.07,0.05-0.15,0.07-0.24c0.02-0.08,0.04-0.14,0.05-0.18
	c0.02-0.04,0.04-0.08,0.06-0.1c0.02-0.02,0.05-0.03,0.08-0.03c0.06,0,0.1,0.02,0.14,0.07c0.03,0.05,0.05,0.12,0.05,0.2
	c0,0.07-0.01,0.15-0.04,0.22s-0.06,0.14-0.11,0.21l0.23,0.1c0.04-0.04,0.07-0.09,0.09-0.14c0.02-0.06,0.04-0.12,0.06-0.18
	c0.01-0.07,0.02-0.13,0.02-0.2c0-0.12-0.02-0.22-0.06-0.31c-0.04-0.09-0.09-0.15-0.16-0.2s-0.15-0.07-0.23-0.07
	c-0.06,0-0.11,0.01-0.16,0.03c-0.05,0.02-0.09,0.05-0.12,0.09c-0.03,0.04-0.06,0.1-0.09,0.16c-0.03,0.07-0.05,0.15-0.07,0.24
	c-0.02,0.08-0.03,0.14-0.05,0.18c-0.02,0.05-0.04,0.08-0.06,0.1c-0.02,0.02-0.05,0.03-0.08,0.03c-0.05,0-0.1-0.03-0.13-0.08
	c-0.03-0.05-0.05-0.12-0.05-0.21c0-0.09,0.01-0.17,0.04-0.25c0.02-0.08,0.06-0.15,0.11-0.23l-0.23-0.1
	c-0.04,0.05-0.07,0.1-0.09,0.16s-0.04,0.13-0.06,0.2c-0.01,0.07-0.02,0.14-0.02,0.22c0,0.13,0.02,0.24,0.05,0.33
	c0.04,0.09,0.09,0.16,0.15,0.21c0.07,0.05,0.15,0.07,0.24,0.07c0.06,0,0.11-0.01,0.15-0.03C51.87,23.7,51.9,23.67,51.94,23.63z"/>
<polygon class="st1" points="51.24,23.99 51.24,25 51.49,25 51.49,24.3 51.86,24.3 51.86,24.95 52.11,24.95 52.11,24.3 52.45,24.3 
	52.45,25 52.7,25 52.7,23.99 "/>
<path class="st1" d="M52.47,25.91c0,0.07-0.01,0.13-0.03,0.2c-0.02,0.06-0.06,0.13-0.11,0.19l0.23,0.1
	c0.05-0.06,0.09-0.13,0.12-0.22c0.03-0.09,0.04-0.18,0.04-0.28c0-0.15-0.03-0.28-0.09-0.39c-0.06-0.11-0.15-0.19-0.26-0.25
	c-0.11-0.06-0.24-0.09-0.39-0.09c-0.15,0-0.28,0.03-0.4,0.09c-0.11,0.06-0.2,0.14-0.26,0.25c-0.06,0.11-0.09,0.24-0.09,0.39
	c0,0.1,0.01,0.19,0.04,0.28s0.07,0.16,0.12,0.22l0.23-0.1c-0.05-0.07-0.09-0.13-0.11-0.19c-0.02-0.06-0.03-0.13-0.03-0.2
	c0-0.13,0.04-0.23,0.13-0.3c0.08-0.07,0.21-0.11,0.37-0.11c0.16,0,0.28,0.04,0.37,0.11S52.47,25.78,52.47,25.91z"/>
<rect x="51.24" y="26.6" class="st1" width="0.33" height="0.34"/>
<path class="st1" d="M54.79,31.23c0.05,0.14,0.12,0.26,0.23,0.34c0.12,0.09,0.27,0.13,0.44,0.13c0.16,0,0.3-0.04,0.42-0.12
	c0.12-0.08,0.21-0.2,0.28-0.34c0.06-0.15,0.1-0.32,0.1-0.52c0-0.19-0.03-0.38-0.09-0.57c-0.06-0.19-0.14-0.34-0.24-0.45l-0.46,0.21
	c0.09,0.12,0.16,0.25,0.21,0.39c0.05,0.13,0.07,0.26,0.07,0.39c0,0.13-0.03,0.23-0.09,0.31c-0.06,0.07-0.16,0.11-0.28,0.11
	c-0.12,0-0.21-0.04-0.27-0.12c-0.06-0.08-0.09-0.21-0.09-0.38v-0.35h-0.5v0.42c0,0.18-0.03,0.31-0.09,0.39
	c-0.06,0.08-0.15,0.12-0.28,0.12c-0.14,0-0.24-0.04-0.3-0.12s-0.09-0.21-0.09-0.39c0-0.14,0.02-0.27,0.07-0.41
	c0.05-0.13,0.12-0.27,0.21-0.39l-0.46-0.21c-0.1,0.12-0.18,0.27-0.24,0.46c-0.06,0.19-0.09,0.38-0.09,0.58
	c0,0.33,0.07,0.6,0.22,0.79c0.15,0.19,0.35,0.29,0.61,0.29c0.19,0,0.35-0.05,0.47-0.15C54.67,31.53,54.74,31.4,54.79,31.23z"/>
<path class="st1" d="M56.21,33.99v-0.51l-1.92-1.34h-0.48v1.22h-0.54v0.63h0.54v0.4h0.5v-0.4H56.21z M54.31,33.36v-0.64l0.91,0.64
	H54.31z"/>
<path class="st1" d="M51.83,30.4c0.02-0.03,0.03-0.06,0.04-0.1c0.02,0.07,0.05,0.12,0.09,0.17c0.08,0.09,0.18,0.14,0.31,0.14
	c0.14,0,0.24-0.04,0.32-0.13c0.07-0.09,0.11-0.22,0.11-0.39v-0.65h-1.46v0.32h0.59v0.21c0,0.04-0.01,0.08-0.02,0.11
	s-0.04,0.06-0.08,0.07l-0.49,0.19v0.34l0.45-0.18C51.76,30.48,51.8,30.44,51.83,30.4z M52.07,30.05v-0.29h0.38v0.29
	c0,0.09-0.02,0.16-0.05,0.2c-0.03,0.04-0.08,0.06-0.14,0.06c-0.06,0-0.11-0.02-0.14-0.06C52.09,30.2,52.07,30.14,52.07,30.05z"/>
<path class="st1" d="M52.63,31.94c0.06-0.11,0.09-0.23,0.09-0.38c0-0.15-0.03-0.27-0.09-0.38c-0.06-0.11-0.15-0.19-0.26-0.25
	c-0.11-0.06-0.24-0.09-0.4-0.09c-0.15,0-0.29,0.03-0.4,0.09c-0.11,0.06-0.2,0.14-0.26,0.25c-0.06,0.11-0.09,0.23-0.09,0.38
	c0,0.15,0.03,0.27,0.09,0.38c0.06,0.11,0.15,0.19,0.26,0.25c0.11,0.06,0.25,0.09,0.4,0.09c0.15,0,0.28-0.03,0.4-0.09
	C52.48,32.12,52.57,32.04,52.63,31.94z M51.6,31.84c-0.09-0.07-0.13-0.17-0.13-0.29c0-0.12,0.04-0.22,0.13-0.29
	c0.08-0.07,0.21-0.1,0.38-0.1c0.16,0,0.29,0.03,0.37,0.1c0.08,0.07,0.13,0.17,0.13,0.29c0,0.12-0.04,0.22-0.13,0.29
	c-0.08,0.07-0.21,0.11-0.37,0.11C51.81,31.95,51.68,31.91,51.6,31.84z"/>
<polygon class="st1" points="51.68,33.95 52.7,33.61 52.7,33.39 51.69,33.03 52.7,32.7 52.7,32.37 51.24,32.89 51.24,33.15 
	52.21,33.49 51.24,33.83 51.24,34.09 52.7,34.61 52.7,34.3 "/>
<path class="st1" d="M54.46,38.61c0.18,0.17,0.34,0.29,0.48,0.36c0.14,0.07,0.3,0.11,0.48,0.11c0.17,0,0.31-0.04,0.44-0.12
	c0.12-0.08,0.22-0.2,0.28-0.35c0.07-0.15,0.1-0.33,0.1-0.53c0-0.19-0.03-0.38-0.09-0.57c-0.06-0.19-0.14-0.34-0.24-0.46l-0.47,0.21
	c0.09,0.13,0.17,0.27,0.21,0.4c0.05,0.13,0.07,0.26,0.07,0.38c0,0.13-0.03,0.23-0.09,0.3c-0.06,0.07-0.15,0.1-0.26,0.1
	c-0.1,0-0.2-0.03-0.29-0.08c-0.1-0.05-0.2-0.13-0.32-0.23l-1.05-0.99h-0.48v2.03h0.52v-1.23L54.46,38.61z"/>
<polygon class="st1" points="53.77,41.09 56.21,41.09 56.21,40.71 55.7,39.84 55.13,39.84 55.48,40.44 53.77,40.44 53.77,39.8 
	53.25,39.8 53.25,41.73 53.77,41.73 "/>
<path class="st1" d="M51.94,37.88c0.03-0.04,0.06-0.1,0.09-0.17c0.03-0.07,0.05-0.15,0.07-0.24c0.02-0.08,0.04-0.14,0.05-0.18
	c0.02-0.04,0.04-0.08,0.06-0.1c0.02-0.02,0.05-0.03,0.08-0.03c0.06,0,0.1,0.02,0.14,0.07c0.03,0.05,0.05,0.12,0.05,0.2
	c0,0.07-0.01,0.15-0.04,0.22c-0.02,0.07-0.06,0.14-0.11,0.21l0.23,0.1c0.04-0.04,0.07-0.09,0.09-0.14c0.02-0.06,0.04-0.12,0.06-0.18
	c0.01-0.07,0.02-0.13,0.02-0.2c0-0.12-0.02-0.22-0.06-0.31c-0.04-0.09-0.09-0.15-0.16-0.2c-0.07-0.05-0.15-0.07-0.23-0.07
	c-0.06,0-0.11,0.01-0.16,0.03c-0.05,0.02-0.09,0.05-0.12,0.09c-0.03,0.04-0.06,0.1-0.09,0.16c-0.03,0.07-0.05,0.15-0.07,0.24
	c-0.02,0.08-0.03,0.14-0.05,0.18c-0.02,0.05-0.04,0.08-0.06,0.1c-0.02,0.02-0.05,0.03-0.08,0.03c-0.05,0-0.1-0.03-0.13-0.08
	c-0.03-0.05-0.05-0.12-0.05-0.21c0-0.09,0.01-0.17,0.04-0.25c0.02-0.08,0.06-0.15,0.11-0.23l-0.23-0.1
	c-0.04,0.05-0.07,0.1-0.09,0.16s-0.04,0.13-0.06,0.2c-0.01,0.07-0.02,0.14-0.02,0.22c0,0.13,0.02,0.24,0.05,0.33
	c0.04,0.09,0.09,0.16,0.15,0.21c0.07,0.05,0.15,0.07,0.24,0.07c0.06,0,0.11-0.01,0.15-0.03C51.87,37.96,51.9,37.92,51.94,37.88z"/>
<polygon class="st1" points="51.24,38.24 51.24,39.25 51.49,39.25 51.49,38.55 51.86,38.55 51.86,39.2 52.11,39.2 52.11,38.55 
	52.45,38.55 52.45,39.25 52.7,39.25 52.7,38.24 "/>
<path class="st1" d="M52.7,39.95l-1.46-0.67v0.32l0.32,0.14v0.68l-0.32,0.14v0.32l1.46-0.67V39.95z M51.81,39.85l0.55,0.24
	l-0.55,0.23V39.85z"/>
<polygon class="st1" points="52.7,40.7 52.44,40.7 52.44,41.16 51.24,41.16 51.24,41.49 52.44,41.49 52.44,41.94 52.7,41.94 "/>
</svg>
