<?xml version="1.0" encoding="utf-8"?>
<!-- Generator: Adobe Illustrator 24.1.2, SVG Export Plug-In . SVG Version: 6.00 Build 0)  -->
<svg version="1.1" id="Layer_1" xmlns="http://www.w3.org/2000/svg" xmlns:xlink="http://www.w3.org/1999/xlink" x="0px" y="0px"
	 width="64px" height="64px" viewBox="0 0 64 64" style="enable-background:new 0 0 64 64;" xml:space="preserve">
<style type="text/css">
	.st0{fill:#AB6A22;}
	.st1{fill:url(#SVGID_1_);}
	.st2{opacity:0.2;fill:#D48142;}
	.st3{opacity:0.15;fill:#9C4900;}
	.st4{fill:url(#SVGID_2_);}
	.st5{fill:url(#SVGID_3_);}
	.st6{fill:url(#SVGID_4_);}
	.st7{fill:url(#SVGID_5_);}
	.st8{fill:url(#SVGID_6_);}
	.st9{fill:url(#SVGID_7_);}
</style>
<path class="st0" d="M60.7,25.61c-4.06-4.17-10.1,5.33-12.23,0.94c-2.22-4.57,7.36-7.09,4.88-15.56L42.12,30.1L2.01,33.85
	c0,18.3,18.24,28.05,31.68,25.84C58.56,55.58,65.18,30.22,60.7,25.61z"/>
<linearGradient id="SVGID_1_" gradientUnits="userSpaceOnUse" x1="31.9355" y1="58.2775" x2="31.9355" y2="3.837" gradientTransform="matrix(1 0 0 1 0 0.163)">
	<stop  offset="0" style="stop-color:#E38A47"/>
	<stop  offset="0.294" style="stop-color:#EBA053"/>
	<stop  offset="1" style="stop-color:#FDD36F"/>
</linearGradient>
<path class="st1" d="M60.55,24.77c-4.06-4.18-10.22,5.15-12.35,0.76c-2.22-4.57,9.36-9.15,4.05-16.61
	C49.6,5.19,35.04,1.68,23.82,5.98C10.26,11.16,0.99,23.5,2.09,35.14c1.52,16.02,18.17,25.19,31.6,22.97
	C58.56,54.01,65.04,29.38,60.55,24.77z M31.82,20.48c-0.97-6.42,10.41-8.84,11.38-2.42C44.17,24.48,32.79,26.91,31.82,20.48z"/>
<path class="st2" d="M4.73,22.52c-1,1.98-1.76,4.02-2.21,6.09c8,3.82,26.53,25.4,24.72,27.28c-1.83,1.89-12.63-6.21-24.8-18.41
	c1.01,5.21,3.66,9.6,7.23,12.99c2.96-0.82,8.88,2.16,15.29,7.57c2.94,0.5,5.91,0.54,8.74,0.08c0.98-0.16,1.92-0.36,2.84-0.59
	C29.38,50.24,10.45,29.84,4.73,22.52z"/>
<path class="st2" d="M8.07,17.36c7,7.46,26.71,29.81,25.51,31.05c-0.36,0.37-1.29,0.08-2.69-0.73c3.01,3.15,5.82,6.19,8.4,9.07
	c1.87-0.61,3.62-1.34,5.24-2.17c-5.91-6.32-10.02-11.61-9.41-12.24c0.63-0.65,6.1,3.94,12.49,10.45c0.43-0.28,0.85-0.58,1.27-0.87
	l-37.13-38.5C10.4,14.65,9.17,15.97,8.07,17.36z"/>
<path class="st2" d="M40.5,23.22c-1,0.59-2.18,0.94-3.33,1.02c5.05,4.63,11.01,10.45,17.25,16.92c0.82,0.85,1.62,1.69,2.41,2.53
	c0.72-1.06,1.36-2.13,1.92-3.19C58.75,40.5,46.51,32.17,40.5,23.22z"/>
<path class="st2" d="M22.51,13.44c0.67-0.69,4.12,1.64,9.27,6.02c0.02-0.36,0.08-0.7,0.17-1.03c-3.56-2.68-7.74-6.35-12.08-10.68
	c-1.88,0.97-3.64,2.08-5.28,3.31c9.22,9.56,27.93,29.47,36.43,39.15c0.89-0.76,1.72-1.56,2.49-2.37
	C43.44,39.16,21.28,14.71,22.51,13.44z"/>
<path class="st2" d="M60.31,37c0.73-1.95,1.2-3.83,1.42-5.52c-2.3-2.42-4.49-4.78-6.54-7.04c-1.75,0.82-3.46,2.01-4.82,2.25
	L60.31,37z"/>
<path class="st2" d="M43.2,18.07c0.06,0.43,0.07,0.84,0.03,1.23l4.69,4.86c0.08-1.55,1.37-3.13,2.7-4.85
	C44.35,12.09,40.1,6.47,39.29,4.2c-1.54-0.15-3.14-0.22-4.77-0.18c2.77,3.31,4.34,5.54,4.01,5.87c-0.38,0.39-3.21-1.86-7.3-5.66
	c-0.74,0.08-1.48,0.19-2.22,0.32l9.39,9.74C40.71,14.32,42.81,15.47,43.2,18.07z"/>
<path class="st0" d="M43.22,18.66c0.04-7.31-11.77-5.21-11.46,0.92C33.26,14.91,41.75,13.62,43.22,18.66z"/>
<path class="st3" d="M25.65,14.84c-0.88-1.43-12.85,0.28-13.65,2.56c-1.2,3.47,1.66,2.81,2.73,4.29c1.13,1.57,5.05,0.16,6.96,0.17
	c2.56,0,2.05-2.25,3.1-2.71C26.69,18.33,26.6,16.39,25.65,14.84z"/>
<radialGradient id="SVGID_2_" cx="47.0718" cy="-146.0539" r="6.9683" fx="47.0456" fy="-141.0646" gradientTransform="matrix(0.9582 -0.088 -0.1047 -0.6969 -41.0286 -81.5466)" gradientUnits="userSpaceOnUse">
	<stop  offset="0" style="stop-color:#FF562B"/>
	<stop  offset="0.2107" style="stop-color:#FD5229"/>
	<stop  offset="0.429" style="stop-color:#F84523"/>
	<stop  offset="0.6508" style="stop-color:#EF3118"/>
	<stop  offset="0.8736" style="stop-color:#E3140A"/>
	<stop  offset="1" style="stop-color:#DB0000"/>
</radialGradient>
<path class="st4" d="M25.65,14.45c-1.03-0.73-1.35-2.1-2.22-2.1c-2.49-0.02-3.12-1.34-4.59-0.47c-2.17,1.29-2.76,1.08-3.97,1.53
	c-1.78,0.67-2.29,1.56-2.86,3.6c-1,3.54,1.66,2.81,2.73,4.29c1.13,1.57,5.05,0.16,6.96,0.17c2.56,0,2.05-2.25,3.1-2.71
	C26.69,17.94,27.13,15.5,25.65,14.45z"/>
<path class="st3" d="M58.13,33c0.61-2.17-2.02-2.9-4.73-3.08c-3.25-0.23-3.23,1.19-5.55,1.69c-1.74,0.38-1.81,2.45-1.84,4.34
	c-0.03,1.56,1.26,1.56,1.53,3.02c0.22,1.22,1.7,1.09,2.94,1.67c3.24,1.49,3.87-1.18,5.5-1.68c1.96-0.6,0.54-2.12,1.67-3
	C58.75,35.11,57.82,34.12,58.13,33z"/>
<radialGradient id="SVGID_3_" cx="80.8852" cy="-170.0727" r="6.4759" fx="80.8608" fy="-165.436" gradientTransform="matrix(0.9007 -0.2703 -0.3216 -0.6551 -75.5569 -55.3389)" gradientUnits="userSpaceOnUse">
	<stop  offset="0" style="stop-color:#FFA200"/>
	<stop  offset="0.2627" style="stop-color:#FF9E00"/>
	<stop  offset="0.5349" style="stop-color:#FF9100"/>
	<stop  offset="0.8104" style="stop-color:#FF7D00"/>
	<stop  offset="1" style="stop-color:#FF6A00"/>
</radialGradient>
<path class="st5" d="M58.13,32.49c0.61-2.17-2.02-2.9-4.73-3.08c-3.25-0.23-3.23,1.19-5.55,1.69c-1.74,0.38-1.81,2.45-1.84,4.34
	C45.99,37,47.28,37,47.54,38.46c0.22,1.22,1.7,1.09,2.94,1.67c3.24,1.49,3.87-1.18,5.5-1.68c1.96-0.6,0.54-2.12,1.67-3
	C58.75,34.6,57.82,33.61,58.13,32.49z"/>
<path class="st3" d="M46.97,41.74c-2.25-1.52-11.64,1.57-11.23,5.72c0.34,3.46,3.36,3.16,6.19,3.13c2.68-0.04,3.8-2.6,5.66-2.76
	C49.33,47.67,49.68,43.58,46.97,41.74z"/>
<radialGradient id="SVGID_4_" cx="90.6137" cy="-98.0792" r="6.5746" fx="90.589" fy="-93.3718" gradientTransform="matrix(0.9231 -0.2777 -0.2355 -0.6626 -64.547 4.2439)" gradientUnits="userSpaceOnUse">
	<stop  offset="0" style="stop-color:#F20FEA"/>
	<stop  offset="0.2473" style="stop-color:#EE0FE6"/>
	<stop  offset="0.5034" style="stop-color:#E10EDA"/>
	<stop  offset="0.7627" style="stop-color:#CD0DC6"/>
	<stop  offset="1" style="stop-color:#B30BAD"/>
</radialGradient>
<path class="st6" d="M46.97,41.24c-2.69-1.92-2.38-1.13-4.25-1.5c-2.71-0.54-2.54,1.06-5.21,1.96c-1.77,0.59-2.12,3-1.77,5.26
	c0.53,3.43,3.36,3.16,6.19,3.13c2.68-0.04,3.8-2.6,5.66-2.76C49.33,47.17,49.64,43.15,46.97,41.24z"/>
<path class="st3" d="M26.31,55.1c0.9,1.89,2.5,0.46,3.72,0.76c2.08,0.52,3.46-0.73,3.43-2.11c-0.04-1.93,1.74-3.81,0.48-4.91
	c-1.25-1.08-0.73-2.5-2.62-3.9c-2.35-1.74-5.74-2.78-8.08-0.31c-1.97,2.08,0.13,3.94-0.17,6.31C22.82,52.93,25.78,53.99,26.31,55.1z
	"/>
<radialGradient id="SVGID_5_" cx="787.5911" cy="-481.0127" r="7.0353" fx="787.5646" fy="-475.9754" gradientTransform="matrix(-0.7555 -0.6097 0.4598 -0.525 844.5877 276.2148)" gradientUnits="userSpaceOnUse">
	<stop  offset="0" style="stop-color:#A7FF19"/>
	<stop  offset="0.2094" style="stop-color:#A3FC18"/>
	<stop  offset="0.4265" style="stop-color:#96F414"/>
	<stop  offset="0.6469" style="stop-color:#82E70E"/>
	<stop  offset="0.8684" style="stop-color:#65D406"/>
	<stop  offset="1" style="stop-color:#50C700"/>
</radialGradient>
<path class="st7" d="M26.31,54.67c0.9,1.89,2.5,0.46,3.72,0.76c2.08,0.52,3.46-0.73,3.43-2.11c-0.04-1.93,1.74-3.81,0.48-4.91
	c-1.25-1.08-0.73-2.5-2.62-3.9c-2.35-1.74-5.74-2.78-8.08-0.31c-1.97,2.08,0.13,3.94-0.17,6.31C22.82,52.51,25.78,53.56,26.31,54.67
	z"/>
<path class="st3" d="M18.98,30.61c1.24-2.03-1.29-3.6-3.09-5.11c-1.98-1.65-7.99-1.03-9.48,2.1c-0.89,1.87-1.28,6.03,3.1,6.18
	c1.99,0.07,2.5,1.57,5.8,0.76C19.48,33.51,17.69,32.73,18.98,30.61z"/>
<radialGradient id="SVGID_6_" cx="42.1275" cy="-347.6559" r="7.0281" fx="42.101" fy="-342.6238" gradientTransform="matrix(0.9173 0.297 0.1658 -0.6844 31.911 -221.4554)" gradientUnits="userSpaceOnUse">
	<stop  offset="0" style="stop-color:#00A2FF"/>
	<stop  offset="0.2012" style="stop-color:#009EFB"/>
	<stop  offset="0.4098" style="stop-color:#0294EE"/>
	<stop  offset="0.6217" style="stop-color:#0481DA"/>
	<stop  offset="0.8345" style="stop-color:#0768BD"/>
	<stop  offset="1" style="stop-color:#0A50A1"/>
</radialGradient>
<path class="st8" d="M18.98,30.23c1.24-2.03-1.29-3.6-3.09-5.11c-1.98-1.65-7.99-1.03-9.48,2.1c-0.89,1.87-1.28,6.03,3.1,6.18
	c1.99,0.07,2.5,1.57,5.8,0.76C19.48,33.13,17.69,32.35,18.98,30.23z"/>
<path class="st3" d="M10.75,38.73c-4.1,2.23-2.26,5.03-2.29,6.97c-0.02,1.42,1.86,3.1,5.22,2.27c2.24-0.55,2.72,0.91,5.11-1.15
	c1.86-1.61,3.67-4.81,1.25-7.38C17.57,36.81,14.65,36.61,10.75,38.73z"/>
<radialGradient id="SVGID_7_" cx="139.1223" cy="-60.3035" r="6.123" fx="139.0992" fy="-55.9194" gradientTransform="matrix(0.9043 -0.4066 -0.4852 -0.7268 -140.7093 54.5174)" gradientUnits="userSpaceOnUse">
	<stop  offset="0" style="stop-color:#FFEB7D"/>
	<stop  offset="0.1738" style="stop-color:#FFEA79"/>
	<stop  offset="0.354" style="stop-color:#FFE56C"/>
	<stop  offset="0.537" style="stop-color:#FFDE58"/>
	<stop  offset="0.7221" style="stop-color:#FFD43B"/>
	<stop  offset="0.907" style="stop-color:#FFC716"/>
	<stop  offset="1" style="stop-color:#FFBF00"/>
</radialGradient>
<path class="st9" d="M20.09,38.98c-2.48-2.64-5.4-2.84-9.29-0.72c-4.1,2.23-2.26,5.03-2.29,6.97c-0.02,1.42,1.86,3.1,5.22,2.27
	c2.24-0.55,2.72,0.91,5.11-1.15C20.7,44.75,22.51,41.55,20.09,38.98z"/>
</svg>
