<?xml version="1.0" encoding="utf-8"?>
<!-- Generator: Adobe Illustrator 15.0.0, SVG Export Plug-In . SVG Version: 6.00 Build 0)  -->
<!DOCTYPE svg PUBLIC "-//W3C//DTD SVG 1.1//EN" "http://www.w3.org/Graphics/SVG/1.1/DTD/svg11.dtd" [
	<!ENTITY ns_flows "http://ns.adobe.com/Flows/1.0/">
	<!ENTITY ns_extend "http://ns.adobe.com/Extensibility/1.0/">
	<!ENTITY ns_ai "http://ns.adobe.com/AdobeIllustrator/10.0/">
	<!ENTITY ns_graphs "http://ns.adobe.com/Graphs/1.0/">
]>
<svg version="1.1" id="Layer_1" xmlns:x="&ns_extend;" xmlns:i="&ns_ai;" xmlns:graph="&ns_graphs;"
	 xmlns="http://www.w3.org/2000/svg" xmlns:xlink="http://www.w3.org/1999/xlink" xmlns:a="http://ns.adobe.com/AdobeSVGViewerExtensions/3.0/"
	 x="0px" y="0px" width="64px" height="64px" viewBox="0 0 64 64" enable-background="new 0 0 64 64" xml:space="preserve">
<rect x="12.727" y="55.213" transform="matrix(0.7071 -0.7071 0.7071 0.7071 -37.5425 26.7404)" fill="#B00505" width="1.561" height="6.951"/>
<rect x="27.842" y="38.107" transform="matrix(0.7068 -0.7074 0.7074 0.7068 -28.1909 35.4113)" fill="#B00505" width="1.561" height="27.213"/>
<rect x="43.031" y="21.986" transform="matrix(0.7071 -0.7071 0.7071 0.7071 -18.8548 44.1054)" fill="#B00505" width="1.563" height="45.653"/>
<rect x="49.329" y="14.593" transform="matrix(0.7071 -0.7071 0.7071 0.7071 -5.8426 43.9328)" fill="#B00505" width="1.563" height="28.853"/>
<rect x="36.508" y="9.498" transform="matrix(0.7071 0.7071 -0.7071 0.7071 39.0012 -14.7373)" fill="#B00505" width="1.563" height="60.424"/>
<rect x="48.227" y="34.41" transform="matrix(0.7077 0.7065 -0.7065 0.7077 49.706 -19.9859)" fill="#B00505" width="1.563" height="31.345"/>
<linearGradient id="SVGID_1_" gradientUnits="userSpaceOnUse" x1="-505.499" y1="257" x2="-502.5" y2="257" gradientTransform="matrix(1 0 0 -1 564 300)">
	<stop  offset="0.2121" style="stop-color:#FF3B3B"/>
	<stop  offset="0.4183" style="stop-color:#F63131"/>
	<stop  offset="0.7712" style="stop-color:#DE1615"/>
	<stop  offset="1" style="stop-color:#CC0100"/>
	<a:midPointStop  offset="0.2121" style="stop-color:#FF3B3B"/>
	<a:midPointStop  offset="0.5" style="stop-color:#FF3B3B"/>
	<a:midPointStop  offset="0.4183" style="stop-color:#F63131"/>
	<a:midPointStop  offset="0.5" style="stop-color:#F63131"/>
	<a:midPointStop  offset="0.7712" style="stop-color:#DE1615"/>
	<a:midPointStop  offset="0.5" style="stop-color:#DE1615"/>
	<a:midPointStop  offset="1" style="stop-color:#CC0100"/>
</linearGradient>
<polygon fill="url(#SVGID_1_)" points="58.501,24 58.501,62 61.5,62 61.5,24 "/>
<polygon fill="#B00505" points="58.001,22 58.501,24 61.5,24 62,22 "/>
<polygon fill="#E81C27" points="58.001,18.041 62,20.979 62,22 58.001,22 "/>
<linearGradient id="SVGID_2_" gradientUnits="userSpaceOnUse" x1="-527.6172" y1="256" x2="-524.6182" y2="256" gradientTransform="matrix(1 0 0 -1 564 300)">
	<stop  offset="0.2121" style="stop-color:#FF3B3B"/>
	<stop  offset="0.4183" style="stop-color:#F63131"/>
	<stop  offset="0.7712" style="stop-color:#DE1615"/>
	<stop  offset="1" style="stop-color:#CC0100"/>
	<a:midPointStop  offset="0.2121" style="stop-color:#FF3B3B"/>
	<a:midPointStop  offset="0.5" style="stop-color:#FF3B3B"/>
	<a:midPointStop  offset="0.4183" style="stop-color:#F63131"/>
	<a:midPointStop  offset="0.5" style="stop-color:#F63131"/>
	<a:midPointStop  offset="0.7712" style="stop-color:#DE1615"/>
	<a:midPointStop  offset="0.5" style="stop-color:#DE1615"/>
	<a:midPointStop  offset="1" style="stop-color:#CC0100"/>
</linearGradient>
<polygon fill="url(#SVGID_2_)" points="36.383,26 36.383,62 39.382,62 39.382,26 "/>
<polygon fill="#B00505" points="35.883,24 36.383,26 39.382,26 39.881,24 "/>
<polygon fill="#E81C27" points="35.883,21 39.881,19 39.881,24 35.883,24 "/>
<linearGradient id="SVGID_3_" gradientUnits="userSpaceOnUse" x1="-549.7363" y1="242.0332" x2="-546.7373" y2="242.0332" gradientTransform="matrix(1 0 0 -1 564 300)">
	<stop  offset="0.2121" style="stop-color:#FF3B3B"/>
	<stop  offset="0.4183" style="stop-color:#F63131"/>
	<stop  offset="0.7712" style="stop-color:#DE1615"/>
	<stop  offset="1" style="stop-color:#CC0100"/>
	<a:midPointStop  offset="0.2121" style="stop-color:#FF3B3B"/>
	<a:midPointStop  offset="0.5" style="stop-color:#FF3B3B"/>
	<a:midPointStop  offset="0.4183" style="stop-color:#F63131"/>
	<a:midPointStop  offset="0.5" style="stop-color:#F63131"/>
	<a:midPointStop  offset="0.7712" style="stop-color:#DE1615"/>
	<a:midPointStop  offset="0.5" style="stop-color:#DE1615"/>
	<a:midPointStop  offset="1" style="stop-color:#CC0100"/>
</linearGradient>
<polygon fill="url(#SVGID_3_)" points="14.264,53.934 14.264,62 17.263,62 17.263,53.934 "/>
<polygon fill="#B00505" points="13.764,51.934 14.264,53.934 17.263,53.934 17.763,51.934 "/>
<polygon fill="#E81C27" points="17.763,44.934 17.763,51.934 13.764,51.934 "/>
<path fill="#B3C2C6" d="M32.93,13.128"/>
<path fill="#B3C2C6" d="M16.854,30.897"/>
<path fill="#6E8189" d="M62,19.05l-2.024-1.203l0.964-1.462c-0.506-0.286-1.009-0.547-1.509-0.79l-0.747,1.53l-2.133-0.942
	l0.734-1.506c-0.435-0.158-0.869-0.297-1.306-0.422l-0.437,1.559l-2.266-0.551l0.422-1.509c-0.426-0.065-0.856-0.113-1.291-0.148
	l-0.102,1.521l-2.331-0.084l0.099-1.479c-0.503,0.021-1.017,0.064-1.539,0.123l0.178,1.448l-2.305,0.347l-0.176-1.43
	c-0.662,0.136-1.348,0.302-2.05,0.492l0.379,1.387L42.327,16.6l-0.378-1.382c-0.518,0.174-1.026,0.362-1.528,0.563l0.55,1.317
	l-2.133,0.941l-0.549-1.313c-0.406,0.201-0.807,0.412-1.202,0.631l0.712,1.243l-2.004,1.192l-0.703-1.228
	c-0.378,0.248-0.752,0.503-1.121,0.767l0.847,1.154l-1.862,1.403l-0.838-1.142c-0.359,0.295-0.715,0.597-1.066,0.906l0.962,1.068
	l-1.719,1.576l-0.945-1.051c-0.348,0.343-0.689,0.692-1.028,1.049l1.051,0.984l-1.586,1.71l-1.029-0.965
	c-0.336,0.389-0.669,0.784-0.997,1.187l1.119,0.908l-1.467,1.814l-1.096-0.89c-0.328,0.434-0.652,0.872-0.973,1.316l1.175,0.845
	L23.154,33.1l-1.144-0.821c-0.319,0.473-0.634,0.95-0.947,1.433l1.213,0.787l-1.28,1.949l-1.18-0.766
	c-0.312,0.506-0.619,1.017-0.926,1.53l1.245,0.744l-1.217,1.99l-1.203-0.72c-0.305,0.531-0.606,1.064-0.906,1.602l1.266,0.711
	l-1.169,2.02l-1.221-0.686c-0.297,0.548-0.593,1.099-0.887,1.65l1.278,0.688l-1.139,2.035l-1.23-0.662
	c-0.292,0.557-0.583,1.114-0.874,1.672l1.289,0.677l-1.128,2.043l-1.233-0.648c-0.118,0.229-0.237,0.458-0.355,0.687
	c-0.225,0.435-0.453,0.841-0.681,1.253l1.285,0.737L10.8,54.999l-1.249-0.718c-0.364,0.587-0.73,1.149-1.099,1.684l1.268,0.891
	l-1.393,1.871l-1.263-0.888c-0.304,0.382-0.606,0.755-0.911,1.103l1.227,1.113l-1.621,1.678l-1.225-1.111
	C4.007,61.123,3.482,61.593,2.959,62h4.705c2.488-2.314,4.815-5.6,7.234-10.211c7.116-13.567,14.507-28.317,27.713-33.357
	c7.772-2.966,13.173-1.448,19.389,2.548v-1.971V19.05z"/>
<path fill="#B3C2C6" d="M62,15.443c-6.229-3.614-11.873-4.37-19.962-1.919c-15.033,4.558-23.491,20.811-31.674,36.528
	C7.602,55.36,4.891,58.729,2,60.862V62h1.334c2.957-2.272,5.714-5.775,8.522-11.172c8.021-15.407,16.315-31.341,30.671-35.692
	C50.431,12.74,55.74,13.537,62,17.405V15.443z"/>
<path fill="#302C3B" d="M42.275,9.561c-6.983,6.641-3.265,1.58-2.942-2.224C39.658,3.478,42.6,8.699,42.275,9.561z"/>
<path fill="#FFCC66" d="M34.924,4.231c-0.243-0.266-0.142-1.153,0.677-0.426c0.569-0.617,0.514,0.513,0.514,0.513l-0.717,0.463
	C35.397,4.781,35.046,4.365,34.924,4.231z"/>
<path fill="#8E3ED6" d="M38.655,7.666c0,0-1.97,0.115-3.32-2.953c-0.104-0.247,0.681-0.719,0.789-0.476
	c1.019,2.265,3.235,2.616,3.235,2.616L38.655,7.666z"/>
<path fill="#FFCC66" d="M37.649,6.762c-0.053-0.117-0.486,0.065-0.175-0.221c0.349-0.313-0.161-0.668-0.224-0.542
	c-0.092,0.171-0.312,0.393-0.312,0.393c-0.053-0.056-0.026-0.14-0.093-0.148c-0.634-0.082,0.089-0.407-0.177-0.992
	c-0.164-0.357,0.058-0.671,0.305-0.993C41.397,4.428,38.251,8.094,37.649,6.762z"/>
<path fill="#594640" d="M36.646,4.815c0.325-0.093,1.045-0.226,1.229,0.353c0.513-0.891,0.831,0.485,0.447,0.582
	c0.306,0.338,0.914,0.748,1.167-0.515C39.447,2.354,36.141,3.611,36.646,4.815z"/>
<path fill="#8E3ED6" d="M39.185,3.522c0.493,1.465,0.162,2.403-0.829,3.208c-0.766,0.782-0.42,4.224-0.42,4.224l2.53-1.06
	c0,0-0.229-1.821-0.4-2.313c0.352-1.365,0.977-1.797,0.112-4.458C40.108,2.91,39.115,3.311,39.185,3.522z"/>
<path fill="#FFCC66" d="M39.917,2.42c-0.069-0.367-0.87-0.846-0.782,0.294c-0.874,0.084,0.103,0.751,0.103,0.751l0.838-0.306
	C40.075,3.159,39.95,2.606,39.917,2.42z"/>
<rect x="33.626" y="14.015" transform="matrix(0.9244 -0.3814 0.3814 0.9244 -2.6904 15.9328)" fill="#302C3B" width="10.455" height="1.478"/>
<linearGradient id="SVGID_4_" gradientUnits="userSpaceOnUse" x1="100.1475" y1="129.3535" x2="112.3525" y2="129.3535" gradientTransform="matrix(0.9245 -0.3812 0.3812 0.9245 -109.6064 -66.9809)">
	<stop  offset="0" style="stop-color:#9BE022"/>
	<stop  offset="0.2668" style="stop-color:#91D422"/>
	<stop  offset="0.7474" style="stop-color:#78B423"/>
	<stop  offset="1" style="stop-color:#69A123"/>
	<a:midPointStop  offset="0" style="stop-color:#9BE022"/>
	<a:midPointStop  offset="0.5758" style="stop-color:#9BE022"/>
	<a:midPointStop  offset="1" style="stop-color:#69A123"/>
</linearGradient>
<path fill="url(#SVGID_4_)" d="M37.995,10.767L37.32,9.643c-1.554,0.718-5.931,2.607-5.45,3.768c0.397,0.971,1.378,3.34,1.378,3.34
	l10.87-4.483c0.218-2.106-1.42-3.438-1.42-3.438L37.995,10.767z"/>
<path fill="#302C3B" d="M30.979,15.023c-4.188,8.679-2.495,2.633-3.536-1.041C26.387,10.261,30.979,14.104,30.979,15.023z"/>
<path fill="#FFCC66" d="M22.222,12.633c-0.319-0.162-0.536-1.03,0.486-0.638c0.316-0.78,0.66,0.3,0.66,0.3l-0.51,0.684
	C22.858,12.979,22.386,12.717,22.222,12.633z"/>
<path fill="#E81C27" d="M26.926,14.53c0,0-1.802,0.802-4.149-1.594c-0.184-0.188,0.382-0.912,0.573-0.723
	c1.751,1.758,3.948,1.307,3.948,1.307L26.926,14.53z"/>
<path fill="#FFCC66" d="M25.667,14.04c-0.093-0.092-0.435,0.228-0.244-0.144c0.214-0.42-0.384-0.571-0.4-0.432
	c-0.023,0.192-0.151,0.478-0.151,0.478c-0.069-0.034-0.072-0.122-0.135-0.107c-0.628,0.147-0.063-0.413-0.522-0.866
	c-0.275-0.273-0.178-0.646-0.063-1.036C28.35,10.533,26.699,15.073,25.667,14.04z"/>
<path fill="#594640" d="M24.04,12.572c0.272-0.204,0.9-0.584,1.274-0.102c0.168-1.02,0.954,0.154,0.625,0.384
	c0.405,0.208,1.117,0.378,0.911-0.892C25.791,9.279,23.142,11.623,24.04,12.572z"/>
<path fill="#E81C27" d="M25.959,10.469c0.98,1.194,1,2.193,0.358,3.292c-0.444,1.001,1.092,4.099,1.092,4.099l1.996-1.882
	c0,0-0.855-1.623-1.188-2.025c-0.154-1.399,0.275-2.023-1.47-4.21C26.607,9.566,25.821,10.291,25.959,10.469z"/>
<path fill="#FFCC66" d="M26.259,9.174c-0.198-0.319-1.114-0.483-0.632,0.554c-0.786,0.387,0.361,0.666,0.361,0.666l0.678-0.582
	C26.666,9.812,26.354,9.338,26.259,9.174z"/>
<rect x="24.385" y="20.305" transform="matrix(0.7131 -0.701 0.701 0.7131 -6.2573 26.7982)" fill="#302C3B" width="10.463" height="1.481"/>
<path fill="#B3C2C6" d="M23.596,21.691"/>
<linearGradient id="SVGID_5_" gradientUnits="userSpaceOnUse" x1="104.6963" y1="257.7383" x2="116.9043" y2="257.7383" gradientTransform="matrix(0.7134 -0.7008 0.7008 0.7134 -231.9015 -87.2854)">
	<stop  offset="0" style="stop-color:#FFE02E"/>
	<stop  offset="0.2489" style="stop-color:#FFDA29"/>
	<stop  offset="0.5857" style="stop-color:#FFC91A"/>
	<stop  offset="0.9714" style="stop-color:#FFAC02"/>
	<stop  offset="1" style="stop-color:#FFAA00"/>
	<a:midPointStop  offset="0" style="stop-color:#FFE02E"/>
	<a:midPointStop  offset="0.6424" style="stop-color:#FFE02E"/>
	<a:midPointStop  offset="1" style="stop-color:#FFAA00"/>
</linearGradient>
<path fill="url(#SVGID_5_)" d="M27.324,17.67l-1.049-0.784c-1.175,1.246-4.518,4.644-3.637,5.542
	c0.737,0.748,2.531,2.576,2.531,2.576l8.389-8.244c-0.591-2.035-2.609-2.657-2.609-2.657L27.324,17.67z"/>
<rect x="16.033" y="29.484" transform="matrix(0.5636 -0.826 0.826 0.5636 -15.3751 31.3456)" fill="#302C3B" width="11.893" height="1.481"/>
<path fill="#302C3B" d="M22.372,23.404c-2.238,9.373-1.876,3.103-3.679-0.264C16.869,19.726,22.175,22.505,22.372,23.404z"/>
<path fill="#FFCC66" d="M13.309,22.938c-0.348-0.091-0.746-0.891,0.336-0.727c0.142-0.829,0.71,0.151,0.71,0.151l-0.352,0.778
	C14.003,23.141,13.483,22.983,13.309,22.938z"/>
<path fill="#7AB51D" d="M18.307,23.787c0,0-1.588,1.17-4.393-0.672c-0.22-0.146,0.178-0.971,0.404-0.826
	c2.087,1.346,4.137,0.435,4.137,0.435L18.307,23.787z"/>
<path fill="#FFCC66" d="M16.972,23.573c-0.108-0.068-0.379,0.321-0.267-0.089c0.118-0.451-0.5-0.472-0.486-0.335
	c0.02,0.197-0.046,0.501-0.046,0.501c-0.072-0.018-0.096-0.104-0.155-0.073c-0.581,0.276-0.147-0.392-0.693-0.734
	c-0.328-0.21-0.312-0.594-0.282-1C18.842,19.578,18.201,24.366,16.972,23.573z"/>
<path fill="#594640" d="M15.068,22.488c0.228-0.255,0.755-0.761,1.226-0.373c-0.056-1.027,0.963-0.048,0.694,0.243
	c0.437,0.118,1.171,0.132,0.696-1.065C16.077,18.897,13.99,21.755,15.068,22.488z"/>
<path fill="#7AB51D" d="M16.495,20.023c1.213,0.959,1.443,1.928,1.052,3.141c-0.218,1.072,1.946,3.774,1.946,3.774l1.546-2.27
	c0,0-1.184-1.402-1.596-1.726c-0.447-1.332-0.161-2.034-2.334-3.794C16.936,19.008,16.321,19.883,16.495,20.023z"/>
<path fill="#FFCC66" d="M16.511,18.697c-0.26-0.271-1.188-0.233-0.496,0.674c-0.687,0.548,0.493,0.574,0.493,0.574l0.539-0.714
	C17.047,19.231,16.64,18.837,16.511,18.697z"/>
<linearGradient id="SVGID_6_" gradientUnits="userSpaceOnUse" x1="95.9443" y1="303.708" x2="109.5889" y2="303.708" gradientTransform="matrix(0.564 -0.8258 0.8258 0.564 -289.1315 -57.9968)">
	<stop  offset="0.2121" style="stop-color:#FF3B3B"/>
	<stop  offset="0.4183" style="stop-color:#F63131"/>
	<stop  offset="0.7712" style="stop-color:#DE1615"/>
	<stop  offset="1" style="stop-color:#CC0100"/>
	<a:midPointStop  offset="0.2121" style="stop-color:#FF3B3B"/>
	<a:midPointStop  offset="0.5879" style="stop-color:#FF3B3B"/>
	<a:midPointStop  offset="1" style="stop-color:#CC0100"/>
</linearGradient>
<path fill="url(#SVGID_6_)" d="M19.483,26.771l-1.446-0.728c-2.847,4.549-1.503,8.391-0.056,9.522l7.438-10.901
	c-0.97-1.881-3.07-2.097-3.07-2.097L19.483,26.771z"/>
</svg>
