<?xml version="1.0" encoding="utf-8"?>
<!-- Generator: Adobe Illustrator 24.1.2, SVG Export Plug-In . SVG Version: 6.00 Build 0)  -->
<svg version="1.1" id="Layer_1" xmlns="http://www.w3.org/2000/svg" xmlns:xlink="http://www.w3.org/1999/xlink" x="0px" y="0px"
	 width="64px" height="64px" viewBox="0 0 64 64" style="enable-background:new 0 0 64 64;" xml:space="preserve">
<style type="text/css">
	.st0{fill:#302C3B;}
	.st1{fill:url(#SVGID_1_);}
	.st2{fill:#FF3B3B;}
	.st3{fill:url(#SVGID_2_);}
	.st4{fill:url(#SVGID_3_);}
	.st5{fill:url(#SVGID_4_);}
	.st6{fill:#0059BD;}
	.st7{fill:url(#SVGID_5_);}
	.st8{fill:url(#SVGID_6_);}
	.st9{fill:url(#SVGID_7_);}
	.st10{fill:url(#SVGID_8_);}
	.st11{fill:url(#SVGID_9_);}
	.st12{fill:url(#SVGID_10_);}
</style>
<polygon class="st0" points="44.92,45.88 45.47,47.38 45.98,48 45.97,47.2 45.43,45.7 "/>
<linearGradient id="SVGID_1_" gradientUnits="userSpaceOnUse" x1="91.1472" y1="-139.8378" x2="98.3111" y2="-139.8378" gradientTransform="matrix(0.9397 -0.342 0.342 0.9397 3.702 208.8247)">
	<stop  offset="0" style="stop-color:#FF3B3B"/>
	<stop  offset="0.4392" style="stop-color:#EA2424"/>
	<stop  offset="1" style="stop-color:#C90100"/>
</linearGradient>
<path class="st1" d="M41.53,46.25c0.52,1.43,7.25-1.02,6.73-2.45C47.74,42.36,41.01,44.82,41.53,46.25z"/>
<path class="st2" d="M42.6,45.37c0.31,0.85,4.58-0.71,4.27-1.56C46.56,42.96,42.29,44.51,42.6,45.37z"/>
<linearGradient id="SVGID_2_" gradientUnits="userSpaceOnUse" x1="145.4344" y1="-215.3247" x2="145.4344" y2="-251.5578" gradientTransform="matrix(0.866 -0.5 0.5 0.866 29.3886 302.5807)">
	<stop  offset="0.0424" style="stop-color:#BD0DB9"/>
	<stop  offset="0.2788" style="stop-color:#0066FF"/>
	<stop  offset="0.3081" style="stop-color:#066FE8"/>
	<stop  offset="0.3697" style="stop-color:#1485AD"/>
	<stop  offset="0.4576" style="stop-color:#2BA94F"/>
	<stop  offset="0.5273" style="stop-color:#3EC700"/>
	<stop  offset="0.55" style="stop-color:#5BCB07"/>
	<stop  offset="0.6005" style="stop-color:#95D314"/>
	<stop  offset="0.6471" style="stop-color:#C3D91E"/>
	<stop  offset="0.6882" style="stop-color:#E4DD26"/>
	<stop  offset="0.7224" style="stop-color:#F8E02A"/>
	<stop  offset="0.7455" style="stop-color:#FFE12C"/>
	<stop  offset="0.7718" style="stop-color:#FEDA2C"/>
	<stop  offset="0.8115" style="stop-color:#FCC52B"/>
	<stop  offset="0.8595" style="stop-color:#F8A32A"/>
	<stop  offset="0.914" style="stop-color:#F27429"/>
	<stop  offset="0.9732" style="stop-color:#EB3928"/>
	<stop  offset="1" style="stop-color:#E81C27"/>
</linearGradient>
<path class="st3" d="M45.39,44.39c0.18,0.49-1.13,0.92-1.31,0.43c-2.95-8.14-12.37-34.05-12.37-34.05l1.31-0.43
	C33.02,10.34,42.42,36.23,45.39,44.39z"/>
<linearGradient id="SVGID_3_" gradientUnits="userSpaceOnUse" x1="146.024" y1="-233.2947" x2="144.7386" y2="-233.5091" gradientTransform="matrix(0.866 -0.5 0.5 0.866 29.3886 302.5807)">
	<stop  offset="0" style="stop-color:#302C3B;stop-opacity:0.6"/>
	<stop  offset="0.1301" style="stop-color:#302C3B;stop-opacity:0.522"/>
	<stop  offset="1" style="stop-color:#302C3B;stop-opacity:0"/>
</linearGradient>
<path class="st4" d="M45.39,44.39c0.18,0.49-1.13,0.92-1.31,0.43c-2.95-8.14-12.37-34.05-12.37-34.05l1.31-0.43
	C33.02,10.34,42.42,36.23,45.39,44.39z"/>
<linearGradient id="SVGID_4_" gradientUnits="userSpaceOnUse" x1="32.0593" y1="6.9601" x2="29.9343" y2="7.6789">
	<stop  offset="0" style="stop-color:#C90100"/>
	<stop  offset="0.5608" style="stop-color:#EA2424"/>
	<stop  offset="1" style="stop-color:#FF3B3B"/>
</linearGradient>
<path class="st5" d="M30.46,2.38c-0.15-0.91-4.53-0.08-2.11,1.55C29.02,4.38,28.12,5,29.2,5.7c0.95,0.62,0.28,1.8,0.85,2.19
	c1.04,0.71,0.01,1.46,1.12,2.39c0.85,0.71-0.33,1.87,0.46,2.18c0.8,0.3,2.5,0.06,2.52-0.5c0.01-0.28-1.17-1.17-1.62-3.84
	C32.17,6,30.83,4.62,30.46,2.38z"/>
<path class="st0" d="M29.45,2.25c-0.66,0.33,0.54,0.36,1.24,1.09c2.31,2.41,5.03,10.63,5.98,12.65c0.47,1.01,2,0.94,1.55-0.67
	C37.15,11.49,32.25,0.84,29.45,2.25z M37.59,16.05c-0.77-0.43-2.37-6.03-4.19-9.64C35.2,8.6,38.34,16.47,37.59,16.05z"/>
<path class="st6" d="M2.35,19.22c4.09,5.83,16.62,17.57,31.85,38.57c5.86,8.08,15.98,2.62,14.34-0.58C36.52,69.9,9,16.88,2.35,19.22
	z"/>
<radialGradient id="SVGID_5_" cx="23.3609" cy="36.5525" r="32.9971" fx="22.2923" fy="36.8716" gradientTransform="matrix(0.6721 0.7427 -0.4649 0.4177 23.8538 3.7467)" gradientUnits="userSpaceOnUse">
	<stop  offset="0" style="stop-color:#479EFF"/>
	<stop  offset="0.2542" style="stop-color:#439AFC"/>
	<stop  offset="0.521" style="stop-color:#3690F4"/>
	<stop  offset="0.7515" style="stop-color:#2581E8"/>
	<stop  offset="0.8346" style="stop-color:#2B86EC"/>
	<stop  offset="0.9465" style="stop-color:#3C95F8"/>
	<stop  offset="1" style="stop-color:#479EFF"/>
</radialGradient>
<path class="st7" d="M2.35,19.22c1.55,3.17,15.67,15.4,32.29,38.08c5.4,7.38,14.9,3.19,13.99,0.1c-0.49-1.68-3.89,0.06-7.86-4.45
	C23.32,33.14,8.31,18.67,7.57,17.31C5.78,14.05,0.62,15.68,2.35,19.22z"/>
<path class="st6" d="M13.04,17.19c4.78,4.43,18.25,12.53,35.91,28.4c6.79,6.1,14.79-0.71,12.71-3.26
	C53.36,55.98,18.54,13.82,13.04,17.19z"/>
<radialGradient id="SVGID_6_" cx="-10.9435" cy="7.46" r="30.1785" fx="-11.9208" fy="7.7518" gradientTransform="matrix(0.8136 0.5856 -0.3666 0.5055 46.0569 31.2934)" gradientUnits="userSpaceOnUse">
	<stop  offset="0" style="stop-color:#479EFF"/>
	<stop  offset="0.2542" style="stop-color:#439AFC"/>
	<stop  offset="0.521" style="stop-color:#3690F4"/>
	<stop  offset="0.7515" style="stop-color:#2581E8"/>
	<stop  offset="0.8346" style="stop-color:#2B86EC"/>
	<stop  offset="0.9465" style="stop-color:#3C95F8"/>
	<stop  offset="1" style="stop-color:#479EFF"/>
</radialGradient>
<path class="st8" d="M13.04,17.19c2,2.54,16.98,10.78,36.21,27.88c6.25,5.56,13.94,0.01,12.53-2.59c-0.77-1.41-3.46,0.8-7.89-2.47
	C34.48,25.63,18.27,15.56,17.34,14.48C15.12,11.91,10.82,14.36,13.04,17.19z"/>
<polygon class="st0" points="11.89,59.16 11.56,61.05 11.72,62 12.2,61.16 12.53,59.27 "/>
<linearGradient id="SVGID_7_" gradientUnits="userSpaceOnUse" x1="9.4132" y1="150.1996" x2="18.0307" y2="150.1996" gradientTransform="matrix(0.9848 0.1736 -0.1736 0.9848 24.9435 -92.0533)">
	<stop  offset="0" style="stop-color:#FF3B3B"/>
	<stop  offset="0.4392" style="stop-color:#EA2424"/>
	<stop  offset="1" style="stop-color:#C90100"/>
</linearGradient>
<path class="st9" d="M8.14,57.5c-0.32,1.8,8.17,3.29,8.49,1.49C16.95,57.19,8.46,55.7,8.14,57.5z"/>
<path class="st2" d="M9.79,57.22c-0.19,1.07,5.19,2.02,5.38,0.95C15.36,57.1,9.98,56.15,9.79,57.22z"/>
<linearGradient id="SVGID_8_" gradientUnits="userSpaceOnUse" x1="16.4016" y1="55.3518" x2="16.4016" y2="11.7677" gradientTransform="matrix(1 0 0 1 -0.1456 2.867)">
	<stop  offset="0.0424" style="stop-color:#BD0DB9"/>
	<stop  offset="0.2788" style="stop-color:#0066FF"/>
	<stop  offset="0.3081" style="stop-color:#066FE8"/>
	<stop  offset="0.3697" style="stop-color:#1485AD"/>
	<stop  offset="0.4576" style="stop-color:#2BA94F"/>
	<stop  offset="0.5273" style="stop-color:#3EC700"/>
	<stop  offset="0.55" style="stop-color:#5BCB07"/>
	<stop  offset="0.6005" style="stop-color:#95D314"/>
	<stop  offset="0.6471" style="stop-color:#C3D91E"/>
	<stop  offset="0.6882" style="stop-color:#E4DD26"/>
	<stop  offset="0.7224" style="stop-color:#F8E02A"/>
	<stop  offset="0.7455" style="stop-color:#FFE12C"/>
	<stop  offset="0.7718" style="stop-color:#FEDA2C"/>
	<stop  offset="0.8115" style="stop-color:#FCC52B"/>
	<stop  offset="0.8595" style="stop-color:#F8A32A"/>
	<stop  offset="0.914" style="stop-color:#F27429"/>
	<stop  offset="0.9732" style="stop-color:#EB3928"/>
	<stop  offset="1" style="stop-color:#E81C27"/>
</linearGradient>
<path class="st10" d="M13.28,57.89c-0.11,0.62-1.74,0.28-1.63-0.34c1.82-10.26,7.6-42.91,7.6-42.91l1.63,0.34
	C20.87,14.97,15.1,47.6,13.28,57.89z"/>
<linearGradient id="SVGID_9_" gradientUnits="userSpaceOnUse" x1="17.1106" y1="33.736" x2="15.5648" y2="33.4782" gradientTransform="matrix(1 0 0 1 -0.1456 2.867)">
	<stop  offset="0" style="stop-color:#302C3B;stop-opacity:0.6"/>
	<stop  offset="0.1301" style="stop-color:#302C3B;stop-opacity:0.522"/>
	<stop  offset="1" style="stop-color:#302C3B;stop-opacity:0"/>
</linearGradient>
<path class="st11" d="M13.28,57.89c-0.11,0.62-1.74,0.28-1.63-0.34c1.82-10.26,7.6-42.91,7.6-42.91l1.63,0.34
	C20.87,14.97,15.1,47.6,13.28,57.89z"/>
<linearGradient id="SVGID_10_" gradientUnits="userSpaceOnUse" x1="22.0948" y1="10.8534" x2="19.501" y2="10.4471">
	<stop  offset="0" style="stop-color:#C90100"/>
	<stop  offset="0.5608" style="stop-color:#EA2424"/>
	<stop  offset="1" style="stop-color:#FF3B3B"/>
</linearGradient>
<path class="st12" d="M20.47,4.69c-0.01-1.11,5.35-1.04,2.82,1.4c-0.71,0.68,0.49,1.22-0.64,2.28c-0.99,0.93,0.04,2.19-0.55,2.77
	c-1.09,1.06,0.29,1.73-0.82,3.06c-0.86,1.02,0.79,2.15-0.09,2.68c-0.88,0.53-2.95,0.59-3.09-0.06c-0.07-0.34,1.14-1.64,1.12-4.89
	C19.19,9.34,20.5,7.43,20.47,4.69z"/>
<path class="st0" d="M13.96,21.65c-0.2,2.01,1.63,1.77,1.98,0.47c0.7-2.59,2.22-12.89,4.45-16.23c0.68-1.02,2.09-1.3,1.24-1.55
	C18.02,3.24,14.44,16.88,13.96,21.65z M17.83,10.08c-1.4,4.66-2.12,11.63-2.95,12.3C14.08,23.03,16.15,13.05,17.83,10.08z"/>
</svg>
