<?xml version="1.0" encoding="utf-8"?>
<!-- Generator: Adobe Illustrator 24.1.2, SVG Export Plug-In . SVG Version: 6.00 Build 0)  -->
<svg version="1.1" id="Layer_1" xmlns="http://www.w3.org/2000/svg" xmlns:xlink="http://www.w3.org/1999/xlink" x="0px" y="0px"
	 width="64px" height="64px" viewBox="0 0 64 64" style="enable-background:new 0 0 64 64;" xml:space="preserve">
<style type="text/css">
	.st0{fill:url(#SVGID_1_);}
	.st1{fill:url(#SVGID_2_);}
	.st2{fill:url(#SVGID_3_);}
</style>
<linearGradient id="SVGID_1_" gradientUnits="userSpaceOnUse" x1="39.254" y1="4" x2="39.254" y2="51.8268">
	<stop  offset="0" style="stop-color:#696F80"/>
	<stop  offset="0.1824" style="stop-color:#4C4F5F"/>
	<stop  offset="0.369" style="stop-color:#363646"/>
	<stop  offset="0.5632" style="stop-color:#262434"/>
	<stop  offset="0.7678" style="stop-color:#1D1929"/>
	<stop  offset="1" style="stop-color:#1A1626"/>
</linearGradient>
<path class="st0" d="M58.94,4.04c-0.46-0.46-38.48,3.42-39.06,4c-0.38,0.38-0.64,17.05,0.07,39.03c0.06,1.86,4.14,6.16,4.06,4.3
	c-0.73-17.08-0.43-30.58-0.06-31.81c0.25-0.84,30.83-4.02,30.83-3.47c0,0.59-0.42,10.5-0.33,27.18c0.01,1.86,3.73,5.91,3.71,4.05
	C57.91,22.54,59.29,4.37,58.94,4.04z"/>
<radialGradient id="SVGID_2_" cx="138.323" cy="48.5329" r="8.19" fx="134.312" fy="43.2118" gradientTransform="matrix(1.0775 0 0 0.8476 -100.3094 7.3986)" gradientUnits="userSpaceOnUse">
	<stop  offset="0" style="stop-color:#696F80"/>
	<stop  offset="0.2376" style="stop-color:#666C7D"/>
	<stop  offset="0.441" style="stop-color:#5D6172"/>
	<stop  offset="0.6318" style="stop-color:#4D5060"/>
	<stop  offset="0.8148" style="stop-color:#373748"/>
	<stop  offset="0.9909" style="stop-color:#1C1828"/>
	<stop  offset="1" style="stop-color:#1A1626"/>
</radialGradient>
<ellipse class="st1" cx="48.73" cy="48.53" rx="9.58" ry="7.43"/>
<radialGradient id="SVGID_3_" cx="106.627" cy="52.5748" r="8.19" fx="102.616" fy="47.2537" gradientTransform="matrix(1.0775 0 0 0.8476 -100.3094 8.0148)" gradientUnits="userSpaceOnUse">
	<stop  offset="0" style="stop-color:#696F80"/>
	<stop  offset="0.2376" style="stop-color:#666C7D"/>
	<stop  offset="0.441" style="stop-color:#5D6172"/>
	<stop  offset="0.6318" style="stop-color:#4D5060"/>
	<stop  offset="0.8148" style="stop-color:#373748"/>
	<stop  offset="0.9909" style="stop-color:#1C1828"/>
	<stop  offset="1" style="stop-color:#1A1626"/>
</radialGradient>
<ellipse class="st2" cx="14.58" cy="52.57" rx="9.58" ry="7.43"/>
</svg>
