<?xml version="1.0" encoding="utf-8"?>
<!-- Generator: Adobe Illustrator 15.0.0, SVG Export Plug-In . SVG Version: 6.00 Build 0)  -->
<!DOCTYPE svg PUBLIC "-//W3C//DTD SVG 1.1//EN" "http://www.w3.org/Graphics/SVG/1.1/DTD/svg11.dtd" [
	<!ENTITY ns_flows "http://ns.adobe.com/Flows/1.0/">
	<!ENTITY ns_extend "http://ns.adobe.com/Extensibility/1.0/">
	<!ENTITY ns_ai "http://ns.adobe.com/AdobeIllustrator/10.0/">
	<!ENTITY ns_graphs "http://ns.adobe.com/Graphs/1.0/">
]>
<svg version="1.1" id="Layer_1" xmlns:x="&ns_extend;" xmlns:i="&ns_ai;" xmlns:graph="&ns_graphs;"
	 xmlns="http://www.w3.org/2000/svg" xmlns:xlink="http://www.w3.org/1999/xlink" xmlns:a="http://ns.adobe.com/AdobeSVGViewerExtensions/3.0/"
	 x="0px" y="0px" width="64px" height="64px" viewBox="0 0 64 64" enable-background="new 0 0 64 64" xml:space="preserve">
<path fill="#EB9D00" d="M7.33,51.889c13.427,8.743,48.878-38.274,38.355-49.887C35.895,1.672,8.913,47.074,7.33,51.889z"/>
<linearGradient id="SVGID_1_" gradientUnits="userSpaceOnUse" x1="32.5669" y1="61.5088" x2="32.5669" y2="2.9644">
	<stop  offset="0" style="stop-color:#00A2FF"/>
	<stop  offset="1" style="stop-color:#00D0FF"/>
	<a:midPointStop  offset="0" style="stop-color:#00A2FF"/>
	<a:midPointStop  offset="0.5091" style="stop-color:#00A2FF"/>
	<a:midPointStop  offset="1" style="stop-color:#00D0FF"/>
</linearGradient>
<path fill="url(#SVGID_1_)" d="M55.93,25.104c0.199-1.167-8.33-2.64-6.111-21.164l-5.272-0.977c0,0-7.68,9.32-11.979,9.32
	c-4.302,0-11.982-9.32-11.982-9.32L15.313,3.94c2.219,18.524-6.31,19.998-6.11,21.164c2.766,16.283-1.407,34.053-0.825,34.452
	c0.95,0.653,10.735,1.952,24.189,1.952c13.451,0,23.236-1.299,24.188-1.952C57.336,59.157,53.163,41.388,55.93,25.104z"/>
<path fill="#007CC4" d="M9.203,25.596c-0.211,0-0.411-0.878-0.15-0.96c0.076-0.025,7.904-2.813,5.77-20.637
	c-0.032-0.27,0.949-0.386,0.982-0.116c2.242,18.713-6.097,21.578-6.451,21.69C9.303,25.589,9.252,25.596,9.203,25.596z"/>
<path fill="#007CC4" d="M55.93,25.596c-0.05,0-0.101-0.007-0.149-0.023c-0.356-0.113-8.693-2.978-6.453-21.69
	c0.032-0.269,1.015-0.154,0.982,0.116c-2.146,17.914,5.691,20.612,5.771,20.637C56.341,24.718,56.14,25.596,55.93,25.596z"/>
<path fill="#007CC4" d="M32.567,62C19.71,62,9.408,60.772,8.235,59.961c-0.223-0.153-0.049-1.94,0.18-1.792
	c0.829,0.541,10.536,1.865,24.152,1.865c13.613,0,23.32-1.324,24.15-1.865c0.228-0.148,0.401,1.639,0.179,1.792
	C55.723,60.772,45.42,62,32.567,62z"/>
<path fill="#00A2FF" d="M32.567,6.353c-4.896,0-9.063-1.884-11.982-3.389c1.108,8.226,6.125,12.27,11.982,12.27
	c5.854,0,10.872-4.043,11.979-12.27C41.628,4.469,37.463,6.353,32.567,6.353z"/>
<path fill="#007CC4" d="M32.567,15.725c-6.64,0-11.417-4.865-12.473-12.696C20.06,2.76,21.039,2.63,21.076,2.898
	c0.983,7.305,5.387,11.844,11.491,11.844c6.102,0,10.505-4.539,11.488-11.844c0.036-0.269,1.017-0.138,0.98,0.131
	C43.981,10.86,39.203,15.725,32.567,15.725z"/>
<path opacity="0.1" fill="#302C3B" d="M9.102,59.995c13.336,4.071,36.251-21.183,41.25-42.884
	C50.352,17.111,30.431,47.566,9.102,59.995z"/>
<radialGradient id="SVGID_2_" cx="29.4224" cy="33.4893" r="26.1392" gradientTransform="matrix(1 0 0 0.9881 0 -2.0495)" gradientUnits="userSpaceOnUse">
	<stop  offset="0" style="stop-color:#FFE657"/>
	<stop  offset="0.2394" style="stop-color:#FFE047"/>
	<stop  offset="0.7046" style="stop-color:#FFD21E"/>
	<stop  offset="1" style="stop-color:#FFC800"/>
	<a:midPointStop  offset="0" style="stop-color:#FFE657"/>
	<a:midPointStop  offset="0.5576" style="stop-color:#FFE657"/>
	<a:midPointStop  offset="1" style="stop-color:#FFC800"/>
</radialGradient>
<path fill="url(#SVGID_2_)" d="M7.33,51.889c-0.665,1.092-0.294,7.663,0.831,7.956C22.485,63.573,57.52,22.496,51.058,4.43
	c-0.432-1.206-4.134-2.429-5.372-2.429C51.894,9.099,19.269,60.109,7.33,51.889z"/>
</svg>
