<?xml version="1.0" encoding="utf-8"?>
<!-- Generator: Adobe Illustrator 15.0.0, SVG Export Plug-In . SVG Version: 6.00 Build 0)  -->
<!DOCTYPE svg PUBLIC "-//W3C//DTD SVG 1.1//EN" "http://www.w3.org/Graphics/SVG/1.1/DTD/svg11.dtd" [
	<!ENTITY ns_flows "http://ns.adobe.com/Flows/1.0/">
	<!ENTITY ns_extend "http://ns.adobe.com/Extensibility/1.0/">
	<!ENTITY ns_ai "http://ns.adobe.com/AdobeIllustrator/10.0/">
	<!ENTITY ns_graphs "http://ns.adobe.com/Graphs/1.0/">
]>
<svg version="1.1" id="Layer_1" xmlns:x="&ns_extend;" xmlns:i="&ns_ai;" xmlns:graph="&ns_graphs;"
	 xmlns="http://www.w3.org/2000/svg" xmlns:xlink="http://www.w3.org/1999/xlink" xmlns:a="http://ns.adobe.com/AdobeSVGViewerExtensions/3.0/"
	 x="0px" y="0px" width="64px" height="64px" viewBox="0 0 64 64" enable-background="new 0 0 64 64" xml:space="preserve">
<linearGradient id="SVGID_1_" gradientUnits="userSpaceOnUse" x1="69.5215" y1="-137.3105" x2="105.1248" y2="-133.5959" gradientTransform="matrix(1 0 0 -1 -56 -80)">
	<stop  offset="0" style="stop-color:#00D6B3"/>
	<stop  offset="1" style="stop-color:#27C89C"/>
	<a:midPointStop  offset="0" style="stop-color:#00D6B3"/>
	<a:midPointStop  offset="0.5" style="stop-color:#00D6B3"/>
	<a:midPointStop  offset="1" style="stop-color:#27C89C"/>
</linearGradient>
<path fill="url(#SVGID_1_)" d="M59.484,52.283c-0.125-0.59,1.908-1.492,0.736-2.367c-12.521-4.449-43.479-0.775-57.967,7.496
	c-0.412,0.236-0.256,0.953,0.004,1.053c6.645,2.596,15.418,3.621,24.252,3.529c14.731-0.15,29.641-3.404,35.176-7.666
	C62.945,53.361,60.055,53.113,59.484,52.283z"/>
<radialGradient id="SVGID_2_" cx="60.9434" cy="-1581.1797" r="30.2138" gradientTransform="matrix(0.9996 -0.0698 -0.0147 -0.2105 -52.2683 -274.2069)" gradientUnits="userSpaceOnUse">
	<stop  offset="0.6319" style="stop-color:#FFFFFF;stop-opacity:0.3"/>
	<stop  offset="0.7129" style="stop-color:#E5E5E6;stop-opacity:0.328"/>
	<stop  offset="0.8593" style="stop-color:#A3A1A7;stop-opacity:0.3882"/>
	<stop  offset="1" style="stop-color:#393644;stop-opacity:0.4752"/>
	<a:midPointStop  offset="0.6319" style="stop-color:#FFFFFF;stop-opacity:0.3"/>
	<a:midPointStop  offset="0.5" style="stop-color:#FFFFFF;stop-opacity:0.3"/>
	<a:midPointStop  offset="0.7129" style="stop-color:#E5E5E6;stop-opacity:0.328"/>
	<a:midPointStop  offset="0.5" style="stop-color:#E5E5E6;stop-opacity:0.328"/>
	<a:midPointStop  offset="0.8593" style="stop-color:#A3A1A7;stop-opacity:0.3882"/>
	<a:midPointStop  offset="0.5" style="stop-color:#A3A1A7;stop-opacity:0.3882"/>
	<a:midPointStop  offset="1" style="stop-color:#393644;stop-opacity:0.4752"/>
</radialGradient>
<path opacity="0.25" fill="url(#SVGID_2_)" enable-background="new    " d="M59.484,52.283c-0.125-0.59,1.908-1.492,0.736-2.367
	c-12.521-4.449-43.479-0.775-57.967,7.496c-0.412,0.236-0.256,0.953,0.004,1.053c6.645,2.596,15.418,3.621,24.252,3.529
	c14.731-0.15,29.641-3.404,35.176-7.666C62.945,53.361,60.055,53.113,59.484,52.283z"/>
<path id="Shape_5_" fill="#FFFFFF" d="M13.333,56.467c-0.375-0.777,0.449-1.576,1.861-1.787c1.396-0.205,2.846,0.254,3.221,1.031
	c0.377,0.779-0.463,1.578-1.859,1.787C15.144,57.707,13.712,57.244,13.333,56.467z M12.49,56.592
	c0.498,1.037,2.416,1.654,4.291,1.375c1.863-0.275,2.982-1.344,2.482-2.381c-0.502-1.037-2.434-1.65-4.295-1.375
	C13.089,54.488,11.986,55.557,12.49,56.592z"/>
<path id="Combined-Shape_7_" fill="#FFFFFF" d="M16.033,55.664c0.029,0.061-0.012,0.102-0.127,0.119l-0.336,0.051
	c-0.113,0.016-0.186-0.008-0.217-0.068l-0.297-0.609c-0.027-0.063,0.014-0.104,0.129-0.121l0.166-0.025
	c1.074-0.158,2.186,0.195,2.473,0.791c0.143,0.291,0.059,0.596-0.215,0.85c-0.047,0.055-0.129,0.066-0.236,0.035l-0.447-0.146
	c-0.107-0.033-0.129-0.076-0.064-0.133c0.141-0.143,0.193-0.314,0.113-0.48c-0.131-0.27-0.564-0.453-1.041-0.467L16.033,55.664z"/>
<path fill="#473834" d="M27.365,15.82c-0.926,1.256-1.988,1.648-3.627,1.143c1.5-0.355,2.258-2.883,2.258-2.883L27.365,15.82z"/>
<path fill="#473834" d="M29.732,17.236c0,0-3.061,3.26-6.68,0.816c2.5,0.215,2.943-3.973,2.943-3.973L29.732,17.236z"/>
<path fill="#F5BB51" d="M55.184,23.803c-0.225-0.719-2.496-0.525-5.012,0c-2.371,0.492-4.209-0.693-6.326-0.656l-5.383-2.01
	c-0.344,1.203-0.371,2.287-0.734,3.484c2.035,0.652,3.902,0.992,5.096,1.23c2.707,0.631,7.541-0.205,7.541-0.205
	c4.07,0.729,4.391,0.625,2.73-0.217c-0.033-0.344,1.191-0.352,2.568-0.438C58.395,24.821,55.184,23.803,55.184,23.803z"/>
<path fill="#F5BB51" d="M6.291,30.858c-0.107-0.744,2.021-1.551,4.516-2.164c2.354-0.582,3.492-2.443,5.418-3.324l3.879-3.914
	c0.832,0.936,0.65,2.352,1.5,3.271c-1.549,1.469-2.311,1.91-3.281,2.641c-2.166,1.736-6.885,3.07-6.885,3.07
	c-3.352,2.415-3.686,2.459-2.555,0.985c-0.121-0.322-1.227,0.197-2.506,0.715C3.841,33.161,6.291,30.858,6.291,30.858z"/>
<path fill-rule="evenodd" clip-rule="evenodd" fill="#8E3ED6" d="M40.508,35.758c-0.422-0.299-4.537-2.53-7.772-3.073
	c-0.352-0.955,0.276-4.233,1.219-4.721c1.664-0.861,1.625-2.787,1.857-3.893c0,0,1.201,0.248,1.916,0.551
	c0,0,1.195-1.602,0.762-3.484c-0.998-0.703-2.541-2.07-4.895-2.561c-0.981-0.203-4.295-0.76-5.372-0.748
	c-2.977,0.027-5.672,0.486-8.121,3.627c0.32,2.129,1.5,3.271,1.5,3.271s1.783-1.246,2.754-1.549
	c1.59,7.975-6.188,10.467,0.805,18.146c4.959-1.355,5.824-0.83,4.959-3.25c2.049,0.512,2.08,1.213,7.27,2.148
	C38.816,40.48,41.473,36.438,40.508,35.758z"/>
<path fill-rule="evenodd" clip-rule="evenodd" fill="#C28FEF" d="M24.357,23.178c1.313,7.713-5.668,9.92,1.506,17.492
	c0.23-0.064,0.316-0.625,0.529-0.682C20.001,32.638,26.683,29.797,24.357,23.178z"/>
<path fill-rule="evenodd" clip-rule="evenodd" fill="#F5BB51" d="M43.061,39.439c0.121-1.551-0.012-2.576-2.553-3.682
	c-2.229-0.256-3.664,3.215-3.117,4.465c0.486,0.227,1.74,0.404,1.74,0.404c-0.352,2.914,2.084,4.895,2.541,8.305
	c0.24,1.793-0.715,2.92,1.666,3.34c1.633,0.287,2.658,2.324,5.283,0.475c1.273-0.896-3.875-1.242-4.846-3.596
	C43.391,48.213,42.951,40.834,43.061,39.439z"/>
<path fill-rule="evenodd" clip-rule="evenodd" fill="#F5BB51" d="M29.998,43.645c0.977-1.25,1.176-2.994,0.393-4.629
	c-2.223-0.707-4.932,0.336-5.229,2.309c0.324,0.482,0.766,0.697,0.766,0.697c-1.939,2.273-0.793,5.41-2.264,8.588
	c-0.773,1.672-2.283,2.063-0.316,3.838c1.346,1.217,1.16,3.564,4.607,3.553c1.672-0.006-2.885-3.365-2.475-5.949
	C25.644,51.021,29.125,44.768,29.998,43.645z"/>
<path fill="#C28FEF" d="M38.576,21.745c-0.996-0.701-2.092-2.857-5.455-3.624c-0.975-0.221-3.813-0.563-4.889-0.553
	c-2.979,0.029-5.621,1.053-8.07,4.196c0,0,0,0.359,0.188,0.748c1.502-1.865,3.053-3.014,4.715-3.625
	c0.986,0.398,4.297,1.994,5.809,6.016c1.963-3.727,4.094-4.514,4.956-4.688c1.146,0.869,2.078,1.947,2.707,2.391
	C38.535,22.606,38.678,22.19,38.576,21.745z"/>
<path fill="#792CBF" d="M25.705,24.903c-0.398,1.818,2.109,3.49,3.486,2.432C27.894,27.448,26.255,25.959,25.705,24.903z"/>
<path fill="#F5BB51" d="M28.08,18.369c0,2.174,5.131,2.174,5.131,0c0-0.74,0-2.406,0-2.406H28.08
	C28.08,15.963,28.08,17.629,28.08,18.369z"/>
<path id="Path_361_" fill="#FFC940" d="M36.27,10.385c-0.871,0.105-1.5,3.02-0.953,3.789c0.076,0.107,0.525,0.279,0.857-0.4
	c0.186-0.375,0.717-0.689,0.881-1.465C37.266,11.314,37.135,10.279,36.27,10.385z"/>
<path id="Path_360_" fill="#FFC940" d="M25.021,10.385c0.871,0.105,1.5,3.02,0.951,3.789c-0.076,0.107-0.525,0.279-0.857-0.4
	c-0.184-0.375-0.717-0.689-0.881-1.465C24.023,11.314,24.156,10.279,25.021,10.385z"/>
<path id="Path_359_" fill="#F0A429" d="M36.244,10.943c-0.227,0.07-0.475,0.418-0.609,0.992c0.795-0.17,0.596,1.152-0.094,1.178
	c0.006,0.133,0.016,0.27,0.031,0.412c0.332-0.482,0.67-0.287,1.006-1.006C36.879,11.871,36.807,10.768,36.244,10.943z"/>
<path id="Path_358_" fill="#F0A429" d="M25.654,11.934c-0.135-0.572-0.381-0.92-0.609-0.99c-0.563-0.178-0.635,0.928-0.332,1.576
	c0.334,0.719,0.672,0.523,1.004,1.006c0.018-0.143,0.025-0.281,0.031-0.414C25.066,13.08,24.871,11.773,25.654,11.934z"/>
<path fill="#FFC940" d="M30.644,4.779c-3.771,0-5.588,3.072-5.361,7.021c0.047,0.795,0.268,1.939,0.539,2.922
	c0.566,2.039,3.551,4.094,4.822,4.094s4.256-2.055,4.823-4.094c0.273-0.982,0.494-2.127,0.541-2.922
	C36.234,7.852,34.418,4.779,30.644,4.779z"/>
<path fill="#D47706" d="M30.644,15.609c-0.885-0.389-0.891-0.016-2.256,0.076c0.512,0.58,0.889,1.328,2.256,1.328
	c1.566,0,1.832-0.848,2.256-1.328C31.535,15.594,31.529,15.221,30.644,15.609z"/>
<path fill="#FFFFFF" d="M28.798,15.83c0.891,0.928,2.813,0.914,3.691,0C31.119,15.979,30.169,15.979,28.798,15.83z"/>
<path fill="#966F42" d="M34.652,10.486c-0.818-0.488-2.29-0.547-2.872-0.215c-0.123,0.066-0.09,0.42,0.018,0.375
	c0.828-0.344,2.094-0.361,2.872,0.037C34.775,10.736,34.777,10.559,34.652,10.486z"/>
<path fill="#966F42" d="M26.636,10.486c0.818-0.488,2.289-0.547,2.871-0.215c0.123,0.066,0.09,0.42-0.016,0.375
	c-0.83-0.344-2.094-0.361-2.873,0.037C26.513,10.736,26.511,10.559,26.636,10.486z"/>
<path fill="#F0A429" d="M31.492,14.355c-0.09-0.063-0.301,0.033-0.848,0.033s-0.758-0.096-0.848-0.033
	c-0.107,0.076,0.063,0.418,0.848,0.418S31.601,14.432,31.492,14.355z"/>
<path id="Path_357_" fill="#FFFFFF" d="M29.804,11.969c0.033,0.25-0.137,0.545-0.605,0.768c-0.299,0.141-0.918,0.307-1.732-0.037
	c-0.365-0.154-0.721-0.633-0.689-0.898C27.218,10.969,29.392,10.846,29.804,11.969z"/>
<linearGradient id="Oval_1_" gradientUnits="userSpaceOnUse" x1="-424.1108" y1="480.3154" x2="-424.1108" y2="480.5752" gradientTransform="matrix(6.5701 0 0 -6.5701 2814.7805 3168.5281)">
	<stop  offset="0" style="stop-color:#A6694A"/>
	<stop  offset="1" style="stop-color:#4F2A1E"/>
	<a:midPointStop  offset="0" style="stop-color:#A6694A"/>
	<a:midPointStop  offset="0.5" style="stop-color:#A6694A"/>
	<a:midPointStop  offset="1" style="stop-color:#4F2A1E"/>
</linearGradient>
<circle id="Oval_32_" fill="url(#Oval_1_)" cx="28.33" cy="11.952" r="0.854"/>
<path id="Path_356_" fill="#1A1626" d="M27.904,11.936c0,0.592,0.854,0.592,0.854,0C28.757,11.389,27.904,11.389,27.904,11.936z"/>
<path id="Path_355_" fill="#AB968C" d="M27.773,11.697c0,0.248,0.359,0.248,0.359,0C28.132,11.467,27.773,11.467,27.773,11.697z"/>
<path id="Path_349_" fill="#45332C" d="M29.81,12.002c-0.348-1.115-2.711-0.951-3.033-0.201
	C26.896,10.842,29.513,10.588,29.81,12.002z"/>
<path id="Path_348_" fill="#FFFFFF" d="M31.484,11.969c-0.033,0.25,0.137,0.545,0.605,0.768c0.299,0.141,0.918,0.307,1.735-0.037
	c0.365-0.154,0.721-0.633,0.688-0.898C34.07,10.969,31.896,10.846,31.484,11.969z"/>
<linearGradient id="Oval_2_" gradientUnits="userSpaceOnUse" x1="-426.1079" y1="480.3154" x2="-426.1079" y2="480.5752" gradientTransform="matrix(6.5701 0 0 -6.5701 2832.511 3168.5281)">
	<stop  offset="0" style="stop-color:#A6694A"/>
	<stop  offset="1" style="stop-color:#4F2A1E"/>
	<a:midPointStop  offset="0" style="stop-color:#A6694A"/>
	<a:midPointStop  offset="0.5" style="stop-color:#A6694A"/>
	<a:midPointStop  offset="1" style="stop-color:#4F2A1E"/>
</linearGradient>
<circle id="Oval_31_" fill="url(#Oval_2_)" cx="32.939" cy="11.952" r="0.854"/>
<path id="Path_347_" fill="#1A1626" d="M32.513,11.936c0,0.592,0.854,0.592,0.854,0C33.367,11.389,32.513,11.389,32.513,11.936z"/>
<path id="Path_346_" fill="#AB968C" d="M32.382,11.697c0,0.248,0.357,0.248,0.357,0C32.74,11.467,32.382,11.467,32.382,11.697z"/>
<path id="Path_345_" fill="#45332C" d="M31.48,12.002c0.346-1.113,2.709-0.955,3.032-0.201
	C34.393,10.842,31.775,10.588,31.48,12.002z"/>
<linearGradient id="SVGID_3_" gradientUnits="userSpaceOnUse" x1="30.5718" y1="12.3262" x2="30.5718" y2="4">
	<stop  offset="0" style="stop-color:#473834"/>
	<stop  offset="0.2717" style="stop-color:#594640"/>
	<stop  offset="0.7226" style="stop-color:#715950"/>
	<stop  offset="1" style="stop-color:#7A6056"/>
	<a:midPointStop  offset="0" style="stop-color:#473834"/>
	<a:midPointStop  offset="0.4" style="stop-color:#473834"/>
	<a:midPointStop  offset="1" style="stop-color:#7A6056"/>
</linearGradient>
<path fill="url(#SVGID_3_)" d="M30.632,4c-2.275,0-3.414,1.039-3.645,1.532c-1.857,0.651-3.023,3.612-1.67,6.794
	c0.305-2.486,0.705-3.223,2.801-5.202c2.74,2.19,6.944,1.759,7.827,5.202C37.482,8.057,35.1,4,30.632,4z"/>
<path fill="#473834" d="M28.119,7.124c-1.848,1.304-2.955,3.112-2.801,5.202C25.679,9.992,26.431,8.955,28.119,7.124z"/>
<path fill="#473834" d="M26.988,5.532c1.949,3.903,8.221,2.528,8.958,6.794C34.699,8.406,28.449,9.787,26.988,5.532z"/>
</svg>
