<?xml version="1.0" encoding="utf-8"?>
<!-- Generator: Adobe Illustrator 15.0.0, SVG Export Plug-In . SVG Version: 6.00 Build 0)  -->
<!DOCTYPE svg PUBLIC "-//W3C//DTD SVG 1.1//EN" "http://www.w3.org/Graphics/SVG/1.1/DTD/svg11.dtd" [
	<!ENTITY ns_flows "http://ns.adobe.com/Flows/1.0/">
	<!ENTITY ns_extend "http://ns.adobe.com/Extensibility/1.0/">
	<!ENTITY ns_ai "http://ns.adobe.com/AdobeIllustrator/10.0/">
	<!ENTITY ns_graphs "http://ns.adobe.com/Graphs/1.0/">
]>
<svg version="1.1" id="Layer_1" xmlns:x="&ns_extend;" xmlns:i="&ns_ai;" xmlns:graph="&ns_graphs;"
	 xmlns="http://www.w3.org/2000/svg" xmlns:xlink="http://www.w3.org/1999/xlink" xmlns:a="http://ns.adobe.com/AdobeSVGViewerExtensions/3.0/"
	 x="0px" y="0px" width="64px" height="64px" viewBox="0 0 64 64" enable-background="new 0 0 64 64" xml:space="preserve">
<rect x="14.4" y="16.251" fill="#F9C802" width="1.6" height="41.6"/>
<rect x="19.2" y="16.251" fill="#F9C802" width="1.6" height="41.6"/>
<polygon fill="#F9C802" points="14.934,35.451 14.934,36.518 20.267,33.317 20.267,32.251 "/>
<polygon fill="#F9C802" points="14.934,36.518 20.267,39.718 20.267,38.651 14.934,35.451 "/>
<polygon fill="#F9C802" points="14.934,29.051 14.934,30.118 20.267,26.918 20.267,25.851 "/>
<polygon fill="#F9C802" points="14.934,30.118 20.267,33.317 20.267,32.251 14.934,29.051 "/>
<polygon fill="#F9C802" points="14.934,48.251 14.934,49.317 20.267,46.118 20.267,45.051 "/>
<polygon fill="#F9C802" points="14.934,49.317 20.267,52.518 20.267,51.451 14.934,48.251 "/>
<polygon fill="#F9C802" points="14.934,41.851 14.934,42.918 20.267,39.718 20.267,38.651 "/>
<polygon fill="#F9C802" points="14.934,42.918 20.267,46.118 20.267,45.051 14.934,41.851 "/>
<polygon fill="#F9C802" points="14.934,54.651 14.934,55.718 20.267,52.518 20.267,51.451 "/>
<rect x="2.134" y="14.934" fill="#B3C2C6" width="7.466" height="5.333"/>
<polygon fill="#302C3B" points="16.568,0.053 0,13.879 1.092,13.618 17.106,0.251 "/>
<polygon fill="#302C3B" points="18.14,0.053 53.619,11.745 51.782,11.745 17.51,0.449 "/>
<path fill="#F9C802" d="M20.113,15.798L18.206,0h-1.688l-1.897,15.806v0.847h5.492V15.798z M15.822,13.562l2.896-1.683l0.439,3.84
	l-3.36-1.951L15.822,13.562z M17.85,4.301l0.157,1.369l-1.376,0.799l0.307-2.698L17.85,4.301z M17.007,3.162l0.264-2.312h0.185
	l0.315,2.756L17.007,3.162z M18.077,6.277l0.427,3.727l-2.135-1.239l0.182-1.603L18.077,6.277z M18.583,10.699l0.066,0.571
	l-2.748,1.596L16.3,9.373L18.583,10.699z M15.729,14.376l2.453,1.424l-2.616,0.004L15.729,14.376z"/>
<polygon fill="#F9C802" points="0,12.8 0,17.066 1.066,17.066 1.059,12.8 "/>
<polygon fill="#F9C802" points="5.333,12.8 5.333,17.066 6.4,17.066 6.392,12.8 "/>
<polygon fill="#F9C802" points="10.667,12.8 10.667,17.066 11.733,17.066 11.725,12.8 "/>
<polygon fill="#F9C802" points="15.469,12.8 0,12.8 0,13.866 15.469,13.858 "/>
<rect x="13.866" y="18.134" fill="#CFD8DD" width="7.467" height="4.266"/>
<rect x="14.4" y="18.475" fill="#302C3B" width="6.399" height="2.134"/>
<rect x="12.8" y="22.399" fill="#F9B700" width="9.601" height="1.067"/>
<rect x="12.8" y="24.533" fill="#F9B700" width="9.601" height="1.066"/>
<rect x="12.8" y="22.399" fill="#F9B700" width="1.066" height="3.2"/>
<rect x="21.333" y="22.399" fill="#F9B700" width="1.067" height="3.2"/>
<rect x="17.066" y="22.399" fill="#F9B700" width="1.067" height="3.2"/>
<rect x="10.667" y="56.533" fill="#B3C2C6" width="13.866" height="7.467"/>
<rect x="9.6" y="62.934" fill="#302C3B" width="16" height="1.066"/>
<rect x="10.134" y="61.866" fill="#4E5E67" width="1.066" height="1.067"/>
<rect x="24" y="61.866" fill="#4E5E67" width="1.066" height="1.067"/>
<rect x="12.8" y="56.533" fill="#302C3B" width="1.066" height="6.4"/>
<rect x="21.333" y="56.533" fill="#302C3B" width="1.067" height="6.4"/>
<rect x="49.763" y="15.354" fill="#F9B700" width="3.2" height="2.133"/>
<rect x="46.65" y="21.748" fill="#302C3B" width="0.533" height="2.091"/>
<rect x="51.078" y="21.748" fill="#302C3B" width="0.533" height="2.091"/>
<rect x="44.73" y="25.6" fill="#302C3B" width="0.533" height="19.2"/>
<rect x="52.998" y="25.6" fill="#302C3B" width="0.533" height="19.2"/>
<polygon fill="#302C3B" points="51.006,23.839 49.131,25.246 47.255,23.839 46.65,23.839 49.131,25.779 51.611,23.839 "/>
<rect x="46.65" y="23.306" fill="#302C3B" width="4.961" height="0.533"/>
<rect x="44.73" y="25.246" fill="#302C3B" width="8.801" height="0.533"/>
<polygon fill="#302C3B" points="50.971,20.293 50.594,20.293 49.76,17.171 50.138,17.171 "/>
<polygon fill="#302C3B" points="51.754,20.293 52.144,20.293 52.979,17.171 52.588,17.171 "/>
<polygon fill="#F9C802" points="51.996,21.944 50.73,21.944 50.536,20.137 52.189,20.137 "/>
<path fill="#D46A06" d="M50.451,17.285c0,0.608-0.911,0.608-0.911,0S50.451,16.677,50.451,17.285z"/>
<path fill="#D46A06" d="M53.187,17.285c0,0.608-0.911,0.608-0.911,0S53.187,16.677,53.187,17.285z"/>
<rect x="45.299" y="15.354" fill="#F9B700" width="3.2" height="2.133"/>
<polygon fill="#302C3B" points="46.507,20.293 46.134,20.293 45.3,17.171 45.674,17.171 "/>
<polygon fill="#302C3B" points="47.292,20.293 47.678,20.293 48.512,17.171 48.125,17.171 "/>
<polygon fill="#F9C802" points="47.531,21.944 46.266,21.944 46.073,20.137 47.725,20.137 "/>
<path fill="#D46A06" d="M45.987,17.285c0,0.608-0.912,0.608-0.912,0S45.987,16.677,45.987,17.285z"/>
<path fill="#D46A06" d="M48.723,17.285c0,0.608-0.912,0.608-0.912,0S48.723,16.677,48.723,17.285z"/>
<polygon fill="#E81C27" points="34.134,42.667 34.134,44.256 64,44.256 64,42.667 "/>
<polygon fill="#E81C27" points="34.134,37.333 34.134,38.923 64,38.923 64,37.333 "/>
<polygon fill="#B00505" points="35.2,38.923 35.2,42.667 62.934,42.667 62.934,38.923 "/>
<rect x="44.616" y="36.576" fill="#302C3B" width="0.534" height="7.989"/>
<rect x="53.112" y="36.576" fill="#302C3B" width="0.533" height="7.989"/>
<rect x="21.487" y="11.733" fill="#F9C802" width="39.313" height="1.066"/>
<polygon fill="#F9C802" points="0,17.066 64,17.066 62.934,16 0,16 "/>
<polygon fill="#F9C802" points="54.4,11.733 53.333,11.733 56.533,17.066 57.6,17.066 "/>
<polygon fill="#F9C802" points="53.333,11.733 50.134,17.066 51.2,17.066 54.4,11.733 "/>
<polygon fill="#F9C802" points="60.8,11.733 59.733,11.733 62.934,17.066 64,17.066 "/>
<polygon fill="#F9C802" points="59.733,11.733 56.533,17.066 57.6,17.066 60.8,11.733 "/>
<polygon fill="#F9C802" points="41.6,11.733 40.533,11.733 43.733,17.066 44.8,17.066 "/>
<polygon fill="#F9C802" points="40.533,11.733 37.333,17.066 38.4,17.066 41.6,11.733 "/>
<polygon fill="#F9C802" points="48,11.733 46.934,11.733 50.134,17.066 51.2,17.066 "/>
<polygon fill="#F9C802" points="46.934,11.733 43.733,17.066 44.8,17.066 48,11.733 "/>
<polygon fill="#F9C802" points="28.8,11.733 27.733,11.733 30.934,17.066 32,17.066 "/>
<polygon fill="#F9C802" points="27.733,11.733 24.533,17.066 25.6,17.066 28.8,11.733 "/>
<polygon fill="#F9C802" points="35.2,11.733 34.134,11.733 37.333,17.066 38.4,17.066 "/>
<polygon fill="#F9C802" points="34.134,11.733 30.934,17.066 32,17.066 35.2,11.733 "/>
<polygon fill="#F9C802" points="22.4,11.733 21.333,11.733 24.533,17.066 25.6,17.066 "/>
<polygon fill="#F9C802" points="21.333,11.733 18.134,17.066 19.2,17.066 22.4,11.733 "/>
</svg>
