<?xml version="1.0" encoding="utf-8"?>
<!-- Generator: Adobe Illustrator 24.1.2, SVG Export Plug-In . SVG Version: 6.00 Build 0)  -->
<svg version="1.1" id="Layer_1" xmlns="http://www.w3.org/2000/svg" xmlns:xlink="http://www.w3.org/1999/xlink" x="0px" y="0px"
	 width="64px" height="64px" viewBox="0 0 64 64" style="enable-background:new 0 0 64 64;" xml:space="preserve">
<style type="text/css">
	.st0{fill:url(#SVGID_1_);}
	.st1{fill:url(#SVGID_2_);}
	.st2{fill:url(#SVGID_3_);}
	.st3{fill:url(#SVGID_4_);}
	.st4{fill:#5DADCF;}
	.st5{fill:#3B7F9C;}
	.st6{opacity:0.15;fill:#4E5E67;}
	.st7{fill:url(#SVGID_5_);}
	.st8{fill:url(#SVGID_6_);}
	.st9{fill:url(#SVGID_7_);}
	.st10{fill:#2A6482;}
	.st11{fill:#265471;}
	.st12{opacity:0.15;fill:#1A1626;}
	.st13{fill:#234F6A;}
	.st14{opacity:0.5;fill:#FFFFFF;}
</style>
<linearGradient id="SVGID_1_" gradientUnits="userSpaceOnUse" x1="32" y1="62" x2="32" y2="2">
	<stop  offset="0" style="stop-color:#DAF0FD"/>
	<stop  offset="0.3313" style="stop-color:#D7EFFD"/>
	<stop  offset="0.6218" style="stop-color:#CCECFD"/>
	<stop  offset="0.8962" style="stop-color:#BAE7FD"/>
	<stop  offset="1" style="stop-color:#B1E5FD"/>
</linearGradient>
<rect x="2" y="2" class="st0" width="60" height="60"/>
<linearGradient id="SVGID_2_" gradientUnits="userSpaceOnUse" x1="52.7617" y1="45.7651" x2="62" y2="45.7651">
	<stop  offset="0" style="stop-color:#A5D3E8"/>
	<stop  offset="1" style="stop-color:#6EBADB"/>
</linearGradient>
<rect x="52.76" y="29.53" class="st1" width="9.24" height="32.47"/>
<linearGradient id="SVGID_3_" gradientUnits="userSpaceOnUse" x1="31.7293" y1="36.7077" x2="40.2428" y2="36.7077">
	<stop  offset="0" style="stop-color:#A5D3E8"/>
	<stop  offset="1" style="stop-color:#6EBADB"/>
</linearGradient>
<polygon class="st2" points="38.76,27.02 38.76,20.33 37.49,20.33 37.49,18.44 36.66,18.44 36.66,11.42 35.31,11.42 35.31,18.44 
	34.48,18.44 34.48,20.33 33.22,20.33 33.22,27.02 31.73,27.02 31.73,62 40.24,62 40.24,27.02 "/>
<linearGradient id="SVGID_4_" gradientUnits="userSpaceOnUse" x1="2" y1="42.8531" x2="12.4054" y2="42.8531">
	<stop  offset="0" style="stop-color:#A5D3E8"/>
	<stop  offset="1" style="stop-color:#6EBADB"/>
</linearGradient>
<path class="st3" d="M12.41,62H2V36.55c0-0.15,0.07-0.29,0.19-0.39l4.25-3.25c0.12-0.09,0.19-0.24,0.19-0.39v-8.33
	c0-0.4,0.45-0.63,0.77-0.39l4.8,3.48c0.13,0.09,0.2,0.24,0.2,0.39V62z"/>
<rect x="42.16" y="21.35" class="st4" width="7.33" height="22.81"/>
<rect x="48.82" y="21.35" class="st5" width="5.33" height="22.81"/>
<rect x="52.71" y="22.35" class="st6" width="0.7" height="23.64"/>
<rect x="51.31" y="22.35" class="st6" width="0.7" height="23.64"/>
<rect x="49.91" y="22.35" class="st6" width="0.7" height="23.64"/>
<rect x="47.11" y="22.35" class="st6" width="0.7" height="23.64"/>
<rect x="45.71" y="22.35" class="st6" width="0.7" height="23.64"/>
<rect x="44.31" y="22.35" class="st6" width="0.7" height="23.64"/>
<rect x="42.91" y="22.35" class="st6" width="0.7" height="23.64"/>
<rect x="36.21" y="32.86" class="st4" width="6.5" height="1.4"/>
<rect x="40.93" y="32.86" class="st5" width="3.54" height="1.4"/>
<rect x="34.43" y="33.98" class="st4" width="8.27" height="26.6"/>
<rect x="42.11" y="33.98" class="st5" width="4.13" height="26.6"/>
<rect x="34.43" y="34.68" class="st6" width="11.81" height="0.7"/>
<rect x="34.43" y="36.08" class="st6" width="11.81" height="0.7"/>
<rect x="34.43" y="37.48" class="st6" width="11.81" height="0.7"/>
<rect x="34.43" y="38.88" class="st6" width="11.81" height="0.7"/>
<rect x="34.43" y="40.28" class="st6" width="11.81" height="0.7"/>
<rect x="34.43" y="41.68" class="st6" width="11.81" height="0.7"/>
<rect x="34.43" y="43.08" class="st6" width="11.81" height="0.7"/>
<rect x="34.43" y="44.48" class="st6" width="11.81" height="0.7"/>
<rect x="34.43" y="45.88" class="st6" width="11.81" height="0.7"/>
<rect x="34.43" y="47.28" class="st6" width="11.81" height="0.7"/>
<rect x="34.43" y="48.69" class="st6" width="11.81" height="0.7"/>
<rect x="34.43" y="50.09" class="st6" width="11.81" height="0.7"/>
<rect x="34.43" y="51.48" class="st6" width="11.81" height="0.7"/>
<rect x="34.43" y="52.88" class="st6" width="11.81" height="0.7"/>
<rect x="34.43" y="54.28" class="st6" width="11.81" height="0.7"/>
<rect x="34.43" y="55.69" class="st6" width="11.81" height="0.7"/>
<rect x="34.43" y="57.09" class="st6" width="11.81" height="0.7"/>
<rect x="34.43" y="58.49" class="st6" width="11.81" height="0.7"/>
<rect x="12.23" y="16" class="st5" width="10" height="2"/>
<linearGradient id="SVGID_5_" gradientUnits="userSpaceOnUse" x1="10.2344" y1="26.5" x2="24.2344" y2="26.5">
	<stop  offset="0" style="stop-color:#88BACF"/>
	<stop  offset="0.1977" style="stop-color:#81B5CA"/>
	<stop  offset="0.4878" style="stop-color:#6DA5BD"/>
	<stop  offset="0.833" style="stop-color:#4D8DA8"/>
	<stop  offset="1" style="stop-color:#3B7F9C"/>
</linearGradient>
<rect x="10.23" y="17" class="st7" width="14" height="19"/>
<linearGradient id="SVGID_6_" gradientUnits="userSpaceOnUse" x1="9.2344" y1="42" x2="25.2344" y2="42">
	<stop  offset="0" style="stop-color:#88BACF"/>
	<stop  offset="0.2386" style="stop-color:#73AAC1"/>
	<stop  offset="0.7401" style="stop-color:#4A8BA6"/>
	<stop  offset="1" style="stop-color:#3B7F9C"/>
</linearGradient>
<rect x="9.23" y="32" class="st8" width="16" height="20"/>
<linearGradient id="SVGID_7_" gradientUnits="userSpaceOnUse" x1="8.2344" y1="53" x2="26.2344" y2="53">
	<stop  offset="0" style="stop-color:#88BACF"/>
	<stop  offset="0.1977" style="stop-color:#81B5CA"/>
	<stop  offset="0.4878" style="stop-color:#6DA5BD"/>
	<stop  offset="0.833" style="stop-color:#4D8DA8"/>
	<stop  offset="1" style="stop-color:#3B7F9C"/>
</linearGradient>
<rect x="8.23" y="45" class="st9" width="18" height="16"/>
<rect x="10.23" y="18" class="st6" width="14" height="0.78"/>
<rect x="10.23" y="19.56" class="st6" width="14" height="0.78"/>
<rect x="10.23" y="21.13" class="st6" width="14" height="0.78"/>
<rect x="10.23" y="22.69" class="st6" width="14" height="0.78"/>
<rect x="10.23" y="24.26" class="st6" width="14" height="0.78"/>
<rect x="10.23" y="25.82" class="st6" width="14" height="0.78"/>
<rect x="10.23" y="27.38" class="st6" width="14" height="0.78"/>
<rect x="10.23" y="28.95" class="st6" width="14" height="0.78"/>
<rect x="10.23" y="30.51" class="st6" width="14" height="0.78"/>
<rect x="9.23" y="33" class="st6" width="16" height="0.86"/>
<rect x="9.23" y="34.71" class="st6" width="16" height="0.86"/>
<rect x="9.23" y="36.43" class="st6" width="16" height="0.86"/>
<rect x="9.23" y="38.15" class="st6" width="16" height="0.86"/>
<rect x="9.23" y="39.86" class="st6" width="16" height="0.86"/>
<rect x="9.23" y="41.58" class="st6" width="16" height="0.86"/>
<rect x="9.23" y="43.3" class="st6" width="16" height="0.86"/>
<rect x="8.23" y="46" class="st6" width="18" height="1.01"/>
<rect x="8.23" y="48.02" class="st6" width="18" height="1.01"/>
<rect x="8.23" y="50.03" class="st6" width="18" height="1.01"/>
<rect x="8.23" y="52.05" class="st6" width="18" height="1.01"/>
<rect x="8.23" y="54.07" class="st6" width="18" height="1.01"/>
<rect x="8.23" y="56.09" class="st6" width="18" height="1.01"/>
<rect x="8.23" y="58.11" class="st6" width="18" height="1.01"/>
<rect x="46.79" y="41.4" class="st10" width="10.64" height="2"/>
<rect x="55.16" y="41.4" class="st11" width="3.56" height="2"/>
<polygon class="st10" points="44.52,43 55.68,43 57.44,62 44.52,62 "/>
<rect x="55.68" y="43" class="st11" width="4.32" height="19"/>
<rect x="45.65" y="44" class="st11" width="8.88" height="1"/>
<rect x="45.65" y="46" class="st11" width="8.88" height="1"/>
<rect x="45.65" y="48" class="st11" width="8.88" height="1"/>
<rect x="45.65" y="50" class="st11" width="8.88" height="1"/>
<rect x="45.65" y="52" class="st11" width="8.88" height="1"/>
<rect x="45.65" y="54" class="st11" width="8.88" height="1"/>
<rect x="45.65" y="56" class="st11" width="8.88" height="1"/>
<rect x="45.65" y="58" class="st11" width="8.88" height="1"/>
<rect x="22.26" y="41.04" class="st10" width="8.81" height="1.37"/>
<rect x="30.33" y="41.04" class="st11" width="4.4" height="1.37"/>
<rect x="20.79" y="42.14" class="st10" width="10.28" height="19.2"/>
<rect x="31.07" y="42.14" class="st11" width="5.14" height="19.2"/>
<rect x="28.5" y="42.14" class="st11" width="0.73" height="19.2"/>
<rect x="25.56" y="42.14" class="st11" width="0.73" height="19.2"/>
<rect x="22.63" y="42.14" class="st11" width="0.73" height="19.2"/>
<rect x="4" y="47.5" class="st10" width="5.48" height="13.5"/>
<rect x="8.8" y="47.5" class="st11" width="4.76" height="13.5"/>
<rect x="12.56" y="48.25" class="st12" width="0.5" height="12"/>
<rect x="11.47" y="48.25" class="st12" width="0.5" height="12"/>
<rect x="10.38" y="48.25" class="st12" width="0.5" height="12"/>
<rect x="9.3" y="48.25" class="st12" width="0.5" height="12"/>
<rect x="7.8" y="48.25" class="st11" width="0.5" height="12"/>
<rect x="6.7" y="48.25" class="st11" width="0.5" height="12"/>
<rect x="5.6" y="48.25" class="st11" width="0.5" height="12"/>
<rect x="4.49" y="48.25" class="st11" width="0.5" height="12"/>
<path class="st13" d="M49,59c-6,2.5-13,0-14,0c-3.18,0-6.18,2.16-8,2c-1.9-0.17-5.1-2-7-2c-0.83,0-2.97,1.35-5,1
	c-0.89-0.15-5.1-2-6-2c-1.38,0-7,2-7,2v2h60v-3c0,0-4.67-2-6-2C54.88,57,50.85,58.23,49,59z"/>
<rect x="7.8" y="48.25" class="st14" width="0.5" height="0.86"/>
<rect x="5.6" y="52.4" class="st14" width="0.5" height="0.86"/>
<rect x="10.38" y="50.39" class="st14" width="0.5" height="0.86"/>
<rect x="12.56" y="52.4" class="st14" width="0.5" height="0.86"/>
<rect x="25.56" y="50.36" class="st14" width="0.73" height="0.86"/>
<rect x="25.56" y="56.8" class="st14" width="0.73" height="0.86"/>
<rect x="22.63" y="52.92" class="st14" width="0.73" height="0.86"/>
<rect x="28.5" y="52.05" class="st14" width="0.73" height="0.86"/>
<rect x="47.37" y="48" class="st14" width="1.14" height="1"/>
<rect x="52.58" y="46" class="st14" width="1.14" height="1"/>
<rect x="50.31" y="50" class="st14" width="1.14" height="1"/>
<rect x="52.19" y="54" class="st14" width="1.14" height="1"/>
<rect x="47.02" y="56" class="st14" width="1.14" height="1"/>
<rect x="28.5" y="58.25" class="st14" width="0.73" height="0.86"/>
<rect x="22.63" y="47.38" class="st14" width="0.73" height="0.86"/>
<rect x="25.56" y="43.3" class="st14" width="0.73" height="0.86"/>
<rect x="28.5" y="44.81" class="st14" width="0.73" height="0.86"/>
<rect x="9.3" y="55.23" class="st14" width="0.5" height="0.86"/>
<rect x="11.47" y="56.8" class="st14" width="0.5" height="0.86"/>
<rect x="6.7" y="55.73" class="st14" width="0.5" height="0.86"/>
<rect x="4.49" y="56.57" class="st14" width="0.5" height="0.86"/>
</svg>
