<?xml version="1.0" encoding="utf-8"?>
<!-- Generator: Adobe Illustrator 15.0.0, SVG Export Plug-In . SVG Version: 6.00 Build 0)  -->
<!DOCTYPE svg PUBLIC "-//W3C//DTD SVG 1.1//EN" "http://www.w3.org/Graphics/SVG/1.1/DTD/svg11.dtd" [
	<!ENTITY ns_flows "http://ns.adobe.com/Flows/1.0/">
	<!ENTITY ns_extend "http://ns.adobe.com/Extensibility/1.0/">
	<!ENTITY ns_ai "http://ns.adobe.com/AdobeIllustrator/10.0/">
	<!ENTITY ns_graphs "http://ns.adobe.com/Graphs/1.0/">
]>
<svg version="1.1" id="Layer_1" xmlns:x="&ns_extend;" xmlns:i="&ns_ai;" xmlns:graph="&ns_graphs;"
	 xmlns="http://www.w3.org/2000/svg" xmlns:xlink="http://www.w3.org/1999/xlink" xmlns:a="http://ns.adobe.com/AdobeSVGViewerExtensions/3.0/"
	 x="0px" y="0px" width="64px" height="64px" viewBox="0 0 64 64" enable-background="new 0 0 64 64" xml:space="preserve">
<rect x="7" y="33" fill="#E6EBEF" width="50" height="24"/>
<linearGradient id="SVGID_1_" gradientUnits="userSpaceOnUse" x1="53.1885" y1="44.8398" x2="57.8125" y2="44.8398">
	<stop  offset="0" style="stop-color:#F3F8FC"/>
	<stop  offset="1" style="stop-color:#C6CFD4"/>
	<a:midPointStop  offset="0" style="stop-color:#F3F8FC"/>
	<a:midPointStop  offset="0.5" style="stop-color:#F3F8FC"/>
	<a:midPointStop  offset="1" style="stop-color:#C6CFD4"/>
</linearGradient>
<rect x="53.188" y="35.267" fill="url(#SVGID_1_)" width="4.624" height="19.146"/>
<linearGradient id="SVGID_2_" gradientUnits="userSpaceOnUse" x1="52.8203" y1="37.457" x2="58.1797" y2="37.457">
	<stop  offset="0" style="stop-color:#ECF1F5"/>
	<stop  offset="0.1376" style="stop-color:#E2E8ED"/>
	<stop  offset="0.6973" style="stop-color:#C0CACF"/>
	<stop  offset="1" style="stop-color:#B3BEC4"/>
	<a:midPointStop  offset="0" style="stop-color:#ECF1F5"/>
	<a:midPointStop  offset="0.4303" style="stop-color:#ECF1F5"/>
	<a:midPointStop  offset="1" style="stop-color:#B3BEC4"/>
</linearGradient>
<rect x="52.82" y="37.139" fill="url(#SVGID_2_)" width="5.359" height="0.636"/>
<linearGradient id="SVGID_3_" gradientUnits="userSpaceOnUse" x1="51" y1="33.3184" x2="60" y2="33.3184">
	<stop  offset="0" style="stop-color:#ECF1F5"/>
	<stop  offset="0.1376" style="stop-color:#E2E8ED"/>
	<stop  offset="0.6973" style="stop-color:#C0CACF"/>
	<stop  offset="1" style="stop-color:#B3BEC4"/>
	<a:midPointStop  offset="0" style="stop-color:#ECF1F5"/>
	<a:midPointStop  offset="0.4303" style="stop-color:#ECF1F5"/>
	<a:midPointStop  offset="1" style="stop-color:#B3BEC4"/>
</linearGradient>
<rect x="51" y="32.5" fill="url(#SVGID_3_)" width="9" height="1.636"/>
<linearGradient id="SVGID_4_" gradientUnits="userSpaceOnUse" x1="52.375" y1="35.5723" x2="58.625" y2="35.5723">
	<stop  offset="0" style="stop-color:#ECF1F5"/>
	<stop  offset="0.1376" style="stop-color:#E2E8ED"/>
	<stop  offset="0.6973" style="stop-color:#C0CACF"/>
	<stop  offset="1" style="stop-color:#B3BEC4"/>
	<a:midPointStop  offset="0" style="stop-color:#ECF1F5"/>
	<a:midPointStop  offset="0.4303" style="stop-color:#ECF1F5"/>
	<a:midPointStop  offset="1" style="stop-color:#B3BEC4"/>
</linearGradient>
<path fill="url(#SVGID_4_)" d="M58.18,36.267H52.82c0,0-0.648-0.648-0.38-1.06c0.286-0.438,5.833-0.438,6.119,0
	C58.828,35.618,58.18,36.267,58.18,36.267z"/>
<linearGradient id="SVGID_5_" gradientUnits="userSpaceOnUse" x1="51" y1="34.6719" x2="60" y2="34.6719">
	<stop  offset="0" style="stop-color:#F3F8FC"/>
	<stop  offset="1" style="stop-color:#C6CFD4"/>
	<a:midPointStop  offset="0" style="stop-color:#F3F8FC"/>
	<a:midPointStop  offset="0.5" style="stop-color:#F3F8FC"/>
	<a:midPointStop  offset="1" style="stop-color:#C6CFD4"/>
</linearGradient>
<polygon fill="url(#SVGID_5_)" points="59.173,35.207 51.827,35.207 51,34.136 60,34.136 "/>
<linearGradient id="SVGID_6_" gradientUnits="userSpaceOnUse" x1="52.8203" y1="53.7305" x2="58.1797" y2="53.7305">
	<stop  offset="0" style="stop-color:#ECF1F5"/>
	<stop  offset="0.1376" style="stop-color:#E2E8ED"/>
	<stop  offset="0.6973" style="stop-color:#C0CACF"/>
	<stop  offset="1" style="stop-color:#B3BEC4"/>
	<a:midPointStop  offset="0" style="stop-color:#ECF1F5"/>
	<a:midPointStop  offset="0.4303" style="stop-color:#ECF1F5"/>
	<a:midPointStop  offset="1" style="stop-color:#B3BEC4"/>
</linearGradient>
<rect x="52.82" y="53.413" fill="url(#SVGID_6_)" width="5.359" height="0.636"/>
<linearGradient id="SVGID_7_" gradientUnits="userSpaceOnUse" x1="52.5127" y1="54.0488" x2="58.4873" y2="54.0488">
	<stop  offset="0" style="stop-color:#F3F8FC"/>
	<stop  offset="1" style="stop-color:#C6CFD4"/>
	<a:midPointStop  offset="0" style="stop-color:#F3F8FC"/>
	<a:midPointStop  offset="0.5" style="stop-color:#F3F8FC"/>
	<a:midPointStop  offset="1" style="stop-color:#C6CFD4"/>
</linearGradient>
<rect x="52.513" y="53.731" fill="url(#SVGID_7_)" width="5.975" height="0.636"/>
<linearGradient id="SVGID_8_" gradientUnits="userSpaceOnUse" x1="52.0928" y1="55.373" x2="58.9072" y2="55.373">
	<stop  offset="0" style="stop-color:#ECF1F5"/>
	<stop  offset="0.1376" style="stop-color:#E2E8ED"/>
	<stop  offset="0.6973" style="stop-color:#C0CACF"/>
	<stop  offset="1" style="stop-color:#B3BEC4"/>
	<a:midPointStop  offset="0" style="stop-color:#ECF1F5"/>
	<a:midPointStop  offset="0.4303" style="stop-color:#ECF1F5"/>
	<a:midPointStop  offset="1" style="stop-color:#B3BEC4"/>
</linearGradient>
<path fill="url(#SVGID_8_)" d="M58.867,56.002c-3.769,0.849-6.734,0-6.734,0c-0.232-0.367,0.633-1.635,0.633-1.635h5.469
	C58.234,54.367,59.1,55.635,58.867,56.002z"/>
<linearGradient id="SVGID_9_" gradientUnits="userSpaceOnUse" x1="51.7842" y1="56.751" x2="59.2158" y2="56.751">
	<stop  offset="0" style="stop-color:#F3F8FC"/>
	<stop  offset="1" style="stop-color:#C6CFD4"/>
	<a:midPointStop  offset="0" style="stop-color:#F3F8FC"/>
	<a:midPointStop  offset="0.5" style="stop-color:#F3F8FC"/>
	<a:midPointStop  offset="1" style="stop-color:#C6CFD4"/>
</linearGradient>
<rect x="51.784" y="56.002" fill="url(#SVGID_9_)" width="7.432" height="1.498"/>
<rect x="55.287" y="38.058" opacity="0.2" fill="#99A8AE" width="0.426" height="14.786"/>
<rect x="56.03" y="38.058" opacity="0.2" fill="#99A8AE" width="0.428" height="14.786"/>
<rect x="54.542" y="38.058" opacity="0.2" fill="#99A8AE" width="0.428" height="14.786"/>
<rect x="56.748" y="38.058" opacity="0.2" fill="#99A8AE" width="0.338" height="14.786"/>
<rect x="53.914" y="38.058" opacity="0.2" fill="#99A8AE" width="0.338" height="14.786"/>
<rect x="57.245" y="38.058" opacity="0.2" fill="#99A8AE" width="0.231" height="14.786"/>
<rect x="53.523" y="38.058" opacity="0.2" fill="#99A8AE" width="0.231" height="14.786"/>
<linearGradient id="SVGID_10_" gradientUnits="userSpaceOnUse" x1="6.1885" y1="44.8398" x2="10.8125" y2="44.8398">
	<stop  offset="0" style="stop-color:#F3F8FC"/>
	<stop  offset="1" style="stop-color:#C6CFD4"/>
	<a:midPointStop  offset="0" style="stop-color:#F3F8FC"/>
	<a:midPointStop  offset="0.5" style="stop-color:#F3F8FC"/>
	<a:midPointStop  offset="1" style="stop-color:#C6CFD4"/>
</linearGradient>
<rect x="6.188" y="35.267" fill="url(#SVGID_10_)" width="4.624" height="19.146"/>
<linearGradient id="SVGID_11_" gradientUnits="userSpaceOnUse" x1="5.8203" y1="37.457" x2="11.1797" y2="37.457">
	<stop  offset="0" style="stop-color:#ECF1F5"/>
	<stop  offset="0.1376" style="stop-color:#E2E8ED"/>
	<stop  offset="0.6973" style="stop-color:#C0CACF"/>
	<stop  offset="1" style="stop-color:#B3BEC4"/>
	<a:midPointStop  offset="0" style="stop-color:#ECF1F5"/>
	<a:midPointStop  offset="0.4303" style="stop-color:#ECF1F5"/>
	<a:midPointStop  offset="1" style="stop-color:#B3BEC4"/>
</linearGradient>
<rect x="5.82" y="37.139" fill="url(#SVGID_11_)" width="5.359" height="0.636"/>
<linearGradient id="SVGID_12_" gradientUnits="userSpaceOnUse" x1="4" y1="33.3184" x2="13" y2="33.3184">
	<stop  offset="0" style="stop-color:#ECF1F5"/>
	<stop  offset="0.1376" style="stop-color:#E2E8ED"/>
	<stop  offset="0.6973" style="stop-color:#C0CACF"/>
	<stop  offset="1" style="stop-color:#B3BEC4"/>
	<a:midPointStop  offset="0" style="stop-color:#ECF1F5"/>
	<a:midPointStop  offset="0.4303" style="stop-color:#ECF1F5"/>
	<a:midPointStop  offset="1" style="stop-color:#B3BEC4"/>
</linearGradient>
<rect x="4" y="32.5" fill="url(#SVGID_12_)" width="9" height="1.636"/>
<linearGradient id="SVGID_13_" gradientUnits="userSpaceOnUse" x1="5.3755" y1="35.5723" x2="11.6245" y2="35.5723">
	<stop  offset="0" style="stop-color:#ECF1F5"/>
	<stop  offset="0.1376" style="stop-color:#E2E8ED"/>
	<stop  offset="0.6973" style="stop-color:#C0CACF"/>
	<stop  offset="1" style="stop-color:#B3BEC4"/>
	<a:midPointStop  offset="0" style="stop-color:#ECF1F5"/>
	<a:midPointStop  offset="0.4303" style="stop-color:#ECF1F5"/>
	<a:midPointStop  offset="1" style="stop-color:#B3BEC4"/>
</linearGradient>
<path fill="url(#SVGID_13_)" d="M11.18,36.267H5.82c0,0-0.648-0.648-0.38-1.06c0.286-0.438,5.833-0.438,6.119,0
	C11.828,35.618,11.18,36.267,11.18,36.267z"/>
<linearGradient id="SVGID_14_" gradientUnits="userSpaceOnUse" x1="4" y1="34.6719" x2="13" y2="34.6719">
	<stop  offset="0" style="stop-color:#F3F8FC"/>
	<stop  offset="1" style="stop-color:#C6CFD4"/>
	<a:midPointStop  offset="0" style="stop-color:#F3F8FC"/>
	<a:midPointStop  offset="0.5" style="stop-color:#F3F8FC"/>
	<a:midPointStop  offset="1" style="stop-color:#C6CFD4"/>
</linearGradient>
<polygon fill="url(#SVGID_14_)" points="12.173,35.207 4.827,35.207 4,34.136 13,34.136 "/>
<linearGradient id="SVGID_15_" gradientUnits="userSpaceOnUse" x1="5.8203" y1="53.7305" x2="11.1797" y2="53.7305">
	<stop  offset="0" style="stop-color:#ECF1F5"/>
	<stop  offset="0.1376" style="stop-color:#E2E8ED"/>
	<stop  offset="0.6973" style="stop-color:#C0CACF"/>
	<stop  offset="1" style="stop-color:#B3BEC4"/>
	<a:midPointStop  offset="0" style="stop-color:#ECF1F5"/>
	<a:midPointStop  offset="0.4303" style="stop-color:#ECF1F5"/>
	<a:midPointStop  offset="1" style="stop-color:#B3BEC4"/>
</linearGradient>
<rect x="5.82" y="53.413" fill="url(#SVGID_15_)" width="5.359" height="0.636"/>
<linearGradient id="SVGID_16_" gradientUnits="userSpaceOnUse" x1="5.5127" y1="54.0488" x2="11.4873" y2="54.0488">
	<stop  offset="0" style="stop-color:#F3F8FC"/>
	<stop  offset="1" style="stop-color:#C6CFD4"/>
	<a:midPointStop  offset="0" style="stop-color:#F3F8FC"/>
	<a:midPointStop  offset="0.5" style="stop-color:#F3F8FC"/>
	<a:midPointStop  offset="1" style="stop-color:#C6CFD4"/>
</linearGradient>
<rect x="5.513" y="53.731" fill="url(#SVGID_16_)" width="5.975" height="0.636"/>
<linearGradient id="SVGID_17_" gradientUnits="userSpaceOnUse" x1="5.0933" y1="55.373" x2="11.9067" y2="55.373">
	<stop  offset="0" style="stop-color:#ECF1F5"/>
	<stop  offset="0.1376" style="stop-color:#E2E8ED"/>
	<stop  offset="0.6973" style="stop-color:#C0CACF"/>
	<stop  offset="1" style="stop-color:#B3BEC4"/>
	<a:midPointStop  offset="0" style="stop-color:#ECF1F5"/>
	<a:midPointStop  offset="0.4303" style="stop-color:#ECF1F5"/>
	<a:midPointStop  offset="1" style="stop-color:#B3BEC4"/>
</linearGradient>
<path fill="url(#SVGID_17_)" d="M11.867,56.002c-3.769,0.849-6.734,0-6.734,0c-0.232-0.367,0.633-1.635,0.633-1.635h5.469
	C11.234,54.367,12.1,55.635,11.867,56.002z"/>
<linearGradient id="SVGID_18_" gradientUnits="userSpaceOnUse" x1="4.7842" y1="56.751" x2="12.2158" y2="56.751">
	<stop  offset="0" style="stop-color:#F3F8FC"/>
	<stop  offset="1" style="stop-color:#C6CFD4"/>
	<a:midPointStop  offset="0" style="stop-color:#F3F8FC"/>
	<a:midPointStop  offset="0.5" style="stop-color:#F3F8FC"/>
	<a:midPointStop  offset="1" style="stop-color:#C6CFD4"/>
</linearGradient>
<rect x="4.784" y="56.002" fill="url(#SVGID_18_)" width="7.432" height="1.498"/>
<rect x="8.287" y="38.058" opacity="0.2" fill="#99A8AE" width="0.426" height="14.786"/>
<rect x="9.03" y="38.058" opacity="0.2" fill="#99A8AE" width="0.428" height="14.786"/>
<rect x="7.542" y="38.058" opacity="0.2" fill="#99A8AE" width="0.428" height="14.786"/>
<rect x="9.748" y="38.058" opacity="0.2" fill="#99A8AE" width="0.338" height="14.786"/>
<rect x="6.914" y="38.058" opacity="0.2" fill="#99A8AE" width="0.338" height="14.786"/>
<rect x="10.245" y="38.058" opacity="0.2" fill="#99A8AE" width="0.231" height="14.786"/>
<rect x="6.523" y="38.058" opacity="0.2" fill="#99A8AE" width="0.231" height="14.786"/>
<rect x="4" y="57" fill="#CCD3D9" width="56" height="5"/>
<path fill="#99A8AE" d="M32,36c-3.867,0-7,3.135-7,7v14h14V43C39,39.135,35.867,36,32,36z"/>
<path fill="#9E6C49" d="M32,37c-3.314,0-6,2.686-6,6v14h12V43C38,39.686,35.314,37,32,37z"/>
<path fill="#785647" d="M37,44.5V50h-3.75v-5.5H37 M37.5,44h-4.75v6.5h4.75V44L37.5,44z"/>
<path fill="#785647" d="M37,51.5V56h-3.75v-4.5H37 M37.5,51h-4.75v5.5h4.75V51L37.5,51z"/>
<path fill="#785647" d="M30.75,44.5V50H27v-5.5H30.75 M31.25,44H26.5v6.5h4.75V44L31.25,44z"/>
<path fill="#785647" d="M30.75,51.5V56H27v-4.5H30.75 M31.25,51H26.5v5.5h4.75V51L31.25,51z"/>
<rect x="31.75" y="43" fill="#785647" width="0.5" height="14"/>
<rect x="26" y="43" fill="#785647" width="12" height="0.5"/>
<path fill="#302C3B" d="M31.625,42.094V37.52c-1.236,0.082-2.357,0.572-3.236,1.338L31.625,42.094z"/>
<path fill="#302C3B" d="M33.03,42.5h4.444c-0.107-1.188-0.592-2.262-1.333-3.111L33.03,42.5z"/>
<path fill="#302C3B" d="M32.375,37.52v4.574l3.236-3.236C34.733,38.092,33.611,37.602,32.375,37.52z"/>
<path fill="#302C3B" d="M30.97,42.5l-3.111-3.111c-0.741,0.848-1.226,1.924-1.333,3.111H30.97z"/>
<path id="Rectangle_1_" fill="#B3C2C6" d="M32.375,52.117v-2.734c0-0.178,0.25-0.178,0.25,0v2.734
	C32.625,52.293,32.375,52.293,32.375,52.117z"/>
<path id="Rectangle_2_" fill="#CFDBDE" d="M32.383,49.449h0.234c0.177,0,0.177,0.25,0,0.25h-0.234
	C32.206,49.699,32.206,49.449,32.383,49.449z"/>
<path id="Rectangle_5_" fill="#CFDBDE" d="M32.383,51.799h0.234c0.177,0,0.177,0.25,0,0.25h-0.234
	C32.206,52.049,32.206,51.799,32.383,51.799z"/>
<path id="Rectangle_10_" fill="#B3C2C6" d="M31.375,52.117v-2.734c0-0.178,0.25-0.178,0.25,0v2.734
	C31.625,52.293,31.375,52.293,31.375,52.117z"/>
<path id="Rectangle_9_" fill="#CFDBDE" d="M31.383,49.449h0.234c0.177,0,0.177,0.25,0,0.25h-0.234
	C31.206,49.699,31.206,49.449,31.383,49.449z"/>
<path id="Rectangle_8_" fill="#CFDBDE" d="M31.383,51.799h0.234c0.177,0,0.177,0.25,0,0.25h-0.234
	C31.206,52.049,31.206,51.799,31.383,51.799z"/>
<path fill="#7AB51D" d="M17.19,56.338c1.468-0.546,2.255,0.626,2.255,0.626c0.487-0.278,2.006-0.105,2.103,1.482
	c0.417,0.272,1.005,1.203,0.597,1.899C23.507,60.653,22.833,62,22.833,62h-10.83c0,0-1.058-1.173,0.266-1.991
	c-0.294-0.595,0.317-2.119,1.473-2.133c-0.321-0.347,0.514-0.895,1.146-0.967C15.233,56.064,16.284,55.669,17.19,56.338z"/>
<path fill="#7AB51D" d="M5.586,57.36c1.47-0.446,2.257,0.515,2.257,0.515c0.485-0.23,2.004-0.087,2.103,1.213
	c0.416,0.225,1.004,0.984,0.597,1.557C11.904,60.897,11.23,62,11.23,62H0.4c0,0-1.058-0.962,0.265-1.631
	c-0.294-0.489,0.318-1.738,1.472-1.749c-0.321-0.286,0.516-0.733,1.148-0.792C3.631,57.135,4.681,56.813,5.586,57.36z"/>
<path fill="#92C932" d="M10.888,56.813c1.47-0.5,2.257,0.572,2.257,0.572c0.486-0.254,2.005-0.095,2.102,1.359
	c0.417,0.249,1.005,1.103,0.598,1.74C17.205,60.765,16.532,62,16.532,62H5.702c0,0-1.058-1.073,0.265-1.825
	c-0.294-0.544,0.318-1.939,1.472-1.953c-0.32-0.318,0.515-0.82,1.147-0.886C8.933,56.561,9.981,56.198,10.888,56.813z"/>
<path fill="#7AB51D" d="M46.81,56.338c-1.468-0.546-2.256,0.625-2.256,0.625c-0.486-0.277-2.005-0.104-2.102,1.483
	c-0.417,0.271-1.005,1.203-0.597,1.899C40.493,60.652,41.166,62,41.166,62h10.83c0,0,1.059-1.173-0.264-1.991
	c0.294-0.596-0.318-2.12-1.474-2.134c0.322-0.346-0.514-0.893-1.146-0.966C48.767,56.064,47.716,55.668,46.81,56.338z"/>
<path fill="#7AB51D" d="M58.413,57.36c-1.469-0.446-2.256,0.514-2.256,0.514c-0.486-0.229-2.004-0.086-2.103,1.213
	c-0.416,0.226-1.004,0.985-0.598,1.557C52.096,60.897,52.77,62,52.77,62H63.6c0,0,1.058-0.961-0.265-1.631
	c0.293-0.489-0.318-1.738-1.472-1.749c0.321-0.286-0.515-0.734-1.147-0.792C60.369,57.136,59.32,56.813,58.413,57.36z"/>
<path fill="#92C932" d="M53.111,56.813c-1.469-0.5-2.256,0.574-2.256,0.574c-0.487-0.256-2.005-0.097-2.102,1.355
	c-0.417,0.25-1.005,1.104-0.597,1.742C46.795,60.765,47.468,62,47.468,62h10.83c0,0,1.058-1.074-0.265-1.826
	c0.293-0.542-0.318-1.938-1.472-1.953c0.32-0.317-0.515-0.819-1.147-0.887C55.067,56.561,54.019,56.198,53.111,56.813z"/>
<path fill="#CFD8DD" d="M44.656,61c-12.445,0-12.867,0-25.313,0c-0.436,0-0.844,0.313-0.844,0.654c0,0.086,0,0.346,0,0.346h27
	c0,0,0-0.26,0-0.346C45.5,61.313,45.092,61,44.656,61z"/>
<path fill="#E6EBEF" d="M43.156,60H20.844C20.408,60,20,60.313,20,60.654C20,60.74,20,61,20,61h24c0,0,0-0.26,0-0.346
	C44,60.313,43.592,60,43.156,60z"/>
<path fill="#CFD8DD" d="M41.656,59H22.344c-0.436,0-0.844,0.313-0.844,0.654c0,0.086,0,0.346,0,0.346h21c0,0,0-0.26,0-0.346
	C42.5,59.313,42.092,59,41.656,59z"/>
<path fill="#E6EBEF" d="M40.156,58H23.844C23.408,58,23,58.313,23,58.654C23,58.74,23,59,23,59h18c0,0,0-0.26,0-0.346
	C41,58.313,40.592,58,40.156,58z"/>
<path fill="#CFD8DD" d="M38.656,57H25.344c-0.436,0-0.844,0.313-0.844,0.654c0,0.086,0,0.346,0,0.346h15c0,0,0-0.26,0-0.346
	C39.5,57.313,39.092,57,38.656,57z"/>
<rect x="42.5" y="40" fill="#99A8AE" width="8" height="10"/>
<rect x="43" y="40.5" fill="#302C3B" width="7" height="9"/>
<rect x="42.75" y="44.75" fill="#99A8AE" width="7.5" height="0.5"/>
<rect x="46.25" y="40.25" fill="#99A8AE" width="0.5" height="9.5"/>
<rect x="13.5" y="40" fill="#99A8AE" width="8" height="10"/>
<rect x="14" y="40.5" fill="#302C3B" width="7" height="9"/>
<rect x="13.75" y="44.75" fill="#99A8AE" width="7.5" height="0.5"/>
<rect x="17.25" y="40.25" fill="#99A8AE" width="0.5" height="9.5"/>
<rect x="3.2" y="28.473" fill="#E6EBEF" width="57.6" height="2.893"/>
<path fill="#CFD8DD" d="M60.934,33H3.066c-1.653,0-1.653-2.17,0-2.17h57.867C62.587,30.83,62.587,33,60.934,33z"/>
<polygon fill="#E6EBEF" points="31.988,7.774 2.512,25.514 2.512,28.17 61.488,28.17 61.488,25.514 "/>
<polygon fill="#B9C7CF" points="31.988,6 0,25.786 2,27.263 31.988,8.714 62,27.263 64,25.785 "/>
<polygon fill="#CFD8DD" points="31.988,9.56 2,28.109 2,28.955 62,28.955 62,28.109 "/>
<linearGradient id="SVGID_19_" gradientUnits="userSpaceOnUse" x1="32.0005" y1="27.1445" x2="32.0005" y2="11.2871">
	<stop  offset="0" style="stop-color:#E7ECF0"/>
	<stop  offset="1" style="stop-color:#99A8AE"/>
	<a:midPointStop  offset="0" style="stop-color:#E7ECF0"/>
	<a:midPointStop  offset="0.5" style="stop-color:#E7ECF0"/>
	<a:midPointStop  offset="1" style="stop-color:#99A8AE"/>
</linearGradient>
<polygon fill="url(#SVGID_19_)" points="31.988,11.287 7.082,27.145 56.918,27.145 "/>
<path fill="#6E8189" d="M25.11,22.732c0.239-0.081,0.438-0.208,0.577-0.394c0.155-0.205,0.232-0.442,0.232-0.72
	c0-0.402-0.152-0.72-0.457-0.952c-0.304-0.23-0.713-0.348-1.229-0.348h-2.303v5h2.374c0.543,0,0.97-0.124,1.281-0.37
	c0.311-0.246,0.468-0.579,0.468-0.999c0-0.323-0.089-0.592-0.265-0.809C25.629,22.944,25.396,22.813,25.11,22.732z M23.007,21.163
	h1.045c0.282,0,0.489,0.048,0.625,0.143c0.136,0.096,0.203,0.248,0.203,0.454c0,0.201-0.065,0.351-0.199,0.448
	c-0.133,0.1-0.344,0.148-0.629,0.148h-1.045V21.163z M24.821,24.328c-0.134,0.099-0.348,0.147-0.643,0.147h-1.172v-1.277h1.172
	c0.295,0,0.509,0.053,0.643,0.159c0.134,0.104,0.2,0.267,0.2,0.487C25.021,24.069,24.955,24.23,24.821,24.328z"/>
<path fill="#6E8189" d="M28.531,20.319l-2.296,5h1.104l0.479-1.11h2.331l0.476,1.11h1.087l-2.295-5H28.531z M28.178,23.374
	l0.81-1.873l0.803,1.873H28.178z"/>
<polygon fill="#6E8189" points="35.44,23.501 32.948,20.319 32.141,20.319 32.141,25.319 33.165,25.319 33.165,22.134 
	35.658,25.319 36.472,25.319 36.472,20.319 35.44,20.319 "/>
<polygon fill="#6E8189" points="42.068,25.319 39.653,22.711 41.977,20.319 40.67,20.319 38.571,22.521 38.571,20.319 
	37.477,20.319 37.477,25.319 38.571,25.319 38.571,23.008 40.748,25.319 "/>
</svg>
