<?xml version="1.0" encoding="utf-8"?>
<!-- Generator: Adobe Illustrator 15.0.0, SVG Export Plug-In . SVG Version: 6.00 Build 0)  -->
<!DOCTYPE svg PUBLIC "-//W3C//DTD SVG 1.1//EN" "http://www.w3.org/Graphics/SVG/1.1/DTD/svg11.dtd" [
	<!ENTITY ns_flows "http://ns.adobe.com/Flows/1.0/">
	<!ENTITY ns_extend "http://ns.adobe.com/Extensibility/1.0/">
	<!ENTITY ns_ai "http://ns.adobe.com/AdobeIllustrator/10.0/">
	<!ENTITY ns_graphs "http://ns.adobe.com/Graphs/1.0/">
]>
<svg version="1.1" id="Layer_1" xmlns:x="&ns_extend;" xmlns:i="&ns_ai;" xmlns:graph="&ns_graphs;"
	 xmlns="http://www.w3.org/2000/svg" xmlns:xlink="http://www.w3.org/1999/xlink" xmlns:a="http://ns.adobe.com/AdobeSVGViewerExtensions/3.0/"
	 x="0px" y="0px" width="64px" height="64px" viewBox="0 0 64 64" enable-background="new 0 0 64 64" xml:space="preserve">
<path fill="#404D54" d="M17.176,19.959h-1.941c0,0-0.463-1.032,0-1.655C15.547,19.4,17.176,19.959,17.176,19.959z"/>
<path fill="#404D54" d="M46.822,19.959h1.939c0,0,0.465-1.032,0-1.655C48.449,19.4,46.822,19.959,46.822,19.959z"/>
<rect x="10.901" y="25.709" fill="#D6D1CD" width="42.197" height="23.406"/>
<path fill="#F2ECE8" d="M53.1,37.7H10.903c0,0-2.406,2.131-6.902,0.776c0,3.639,6.9,4.234,6.9,4.234h42.184
	c0,0,6.915-0.596,6.915-4.234C55.504,39.831,53.1,37.7,53.1,37.7z"/>
<path fill="#4E5E67" d="M53.1,36.7H10.903c0,0-2.406,3.131-6.902,1.776c0,3.639,6.9,3.639,6.9,3.639h42.184c0,0,6.915,0,6.915-3.639
	C55.504,39.831,53.1,36.7,53.1,36.7z"/>
<path fill="#F2ECE8" d="M52.711,25.823c-1.455-1.854-3.885-4.99-3.885-4.99H15.174c0,0-2.43,3.137-3.885,4.99
	c-1.004,1.28-3.773,2.206-7.289,1.01c0,3.639,6.9,4.234,6.9,4.234s6.295,0,11.535,0c1.57,0,2.283-5.005,4.021-5.005
	c3.453,0,7.634,0,11.085,0c1.738,0,2.451,5.005,4.023,5.005c3.675,0,11.519,0,11.519,0S60,30.563,60,26.833
	C56.484,28.029,53.717,27.104,52.711,25.823z"/>
<path fill="#4E5E67" d="M52.71,24.823c-1.455-1.854-3.885-4.99-3.885-4.99H15.173c0,0-2.43,3.137-3.885,4.99
	c-1.004,1.28-3.773,3.206-7.289,2.01c0,3.639,6.9,3.639,6.9,3.639s6.295,0,11.535,0c1.57,0,2.283-4.409,4.021-4.409
	c3.453,0,7.634,0,11.085,0c1.738,0,2.451,4.409,4.023,4.409c3.675,0,11.519,0,11.519,0s6.915,0.091,6.915-3.639
	C56.483,28.029,53.716,26.104,52.71,24.823z"/>
<path fill="#404D54" d="M26.36,3.655H24.42c0,0-0.465-1.032,0-1.655C24.733,3.097,26.36,3.655,26.36,3.655z"/>
<path fill="#404D54" d="M37.637,3.655h1.941c0,0,0.463-1.032,0-1.655C39.266,3.097,37.637,3.655,37.637,3.655z"/>
<rect x="19" y="17.368" fill="#D6D1CD" width="26" height="5.787"/>
<path fill="#F2ECE8" d="M15.182,15.974c0,1.785,3.818,2.182,3.818,2.182h26c0,0,3.816-0.396,3.816-2.182
	C45.667,18.155,16.959,17.759,15.182,15.974z"/>
<path fill="#4E5E67" d="M41.777,12.898H22.221c0,0-2.875,4.448-7.039,3.075c0,1.785,3.818,1.785,3.818,1.785h26
	c0,0,3.816,0,3.816-1.785C44.654,17.347,41.777,12.898,41.777,12.898z"/>
<rect x="22.221" y="6.565" fill="#D6D1CD" width="19.556" height="6.333"/>
<path fill="#F2ECE8" d="M44.32,6.717c-2.748,1.079-4.631-1.421-4.631-1.421h-15.38c0,0-1.883,2.5-4.631,1.421
	c0,1.508,2.55,1.768,2.55,1.768s2.816,0,4.733,0c0.715,0,1.264-1.847,2.059-1.847c1.576,0,4.382,0,5.958,0
	c0.795,0,1.344,1.847,2.061,1.847c1.919,0,4.738,0,4.738,0S44.32,8.225,44.32,6.717z"/>
<path fill="#4E5E67" d="M44.32,6.717c-2.748,1-4.631-3.298-4.631-3.298h-15.38c0,0-1.883,4.298-4.631,3.298
	c0,1.396,2.55,1.396,2.55,1.396s2.816,0,4.733,0c0.715,0,1.264-1.476,2.059-1.476c1.576,0,4.382,0,5.958,0
	c0.795,0,1.344,1.476,2.061,1.476c1.919,0,4.738,0,4.738,0S44.32,8.113,44.32,6.717z"/>
<polygon fill="#404D54" points="37.307,17.758 32,12.963 26.694,17.758 "/>
<polygon fill="#D6D1CD" points="27.834,19.123 36.166,19.123 32,15.36 "/>
<polygon fill="#8A6859" points="53.098,49.115 10.901,49.115 8.903,62 55.096,62 "/>
<path fill="#C49E8F" d="M14.319,53.161c-0.5,0.589-2.318,0.589-2.816,0c-0.471-0.557-0.471-2.598,0-3.153
	c0.498-0.589,2.316-0.589,2.816,0C14.79,50.565,14.79,52.604,14.319,53.161z"/>
<path fill="#D6A57C" d="M21.581,52.4c0.113,0.758-0.967,1.563-1.672,1.245c-0.666-0.3-2.084-2.162-2.191-2.878
	c-0.115-0.758,0.967-1.561,1.67-1.245C20.055,49.824,21.473,51.685,21.581,52.4z"/>
<path fill="#C49E8F" d="M17.481,51.296c-0.092,0.491-1.064,0.939-1.506,0.69c-0.412-0.231-1.016-1.511-0.928-1.977
	c0.092-0.49,1.064-0.938,1.504-0.692C16.969,49.553,17.569,50.832,17.481,51.296z"/>
<path fill="#B47D56" d="M18.872,56.344c-0.445,0.76-2.49,1.118-3.166,0.553c-0.639-0.536-1.041-2.839-0.623-3.561
	c0.445-0.761,2.49-1.119,3.168-0.554C18.889,53.32,19.292,55.623,18.872,56.344z"/>
<path fill="#D6A57C" d="M29.567,53.701c0.545-0.514,2.539-0.514,3.086,0c0.515,0.485,0.515,2.266,0,2.751
	c-0.547,0.514-2.541,0.514-3.086,0C29.049,55.966,29.049,54.187,29.567,53.701z"/>
<path fill="#D6A57C" d="M25.559,51.584c-0.502-0.35-0.477-1.589,0.039-1.918c0.486-0.311,2.246-0.276,2.717,0.055
	c0.5,0.348,0.475,1.588-0.039,1.919C27.79,51.951,26.03,51.915,25.559,51.584z"/>
<path fill="#C49E8F" d="M22.006,51.222c-0.443-0.263-0.424-1.191,0.029-1.437c0.428-0.231,1.977-0.201,2.393,0.048
	c0.441,0.262,0.422,1.19-0.029,1.438C23.971,51.503,22.422,51.471,22.006,51.222z"/>
<path fill="#C49E8F" d="M30.885,49.634c0.633-0.091,1.568,0.874,1.449,1.494c-0.113,0.586-1.412,1.817-2.01,1.903
	c-0.631,0.091-1.566-0.874-1.447-1.494C28.991,50.951,30.29,49.72,30.885,49.634z"/>
<path fill="#705041" d="M26.512,52.594c0.371-0.674,1.723-0.674,2.094,0c0.35,0.638,0.35,2.976,0,3.613
	c-0.371,0.674-1.723,0.674-2.094,0C26.163,55.567,26.163,53.231,26.512,52.594z"/>
<path fill="#B47D56" d="M23.918,51.72c0.654-0.129,1.607,0.819,1.477,1.466c-0.127,0.612-1.492,1.957-2.111,2.078
	c-0.654,0.129-1.607-0.82-1.477-1.467C21.934,53.185,23.297,51.841,23.918,51.72z"/>
<path fill="#B47D56" d="M37.438,52.588c-0.74,0.514-3.443,0.514-4.184,0c-0.701-0.485-0.701-2.266,0-2.751
	c0.74-0.514,3.443-0.514,4.184,0C38.137,50.323,38.137,52.103,37.438,52.588z"/>
<path fill="#705041" d="M42.75,52.4c0.113,0.758-0.967,1.563-1.672,1.245c-0.666-0.3-2.084-2.162-2.191-2.878
	c-0.113-0.758,0.967-1.561,1.67-1.245C41.225,49.824,42.643,51.685,42.75,52.4z"/>
<path fill="#C49E8F" d="M40.096,54.564c-0.092,0.491-1.064,0.939-1.506,0.69c-0.414-0.231-1.016-1.511-0.93-1.977
	c0.094-0.49,1.066-0.938,1.506-0.692C39.584,52.821,40.184,54.101,40.096,54.564z"/>
<path fill="#D6A57C" d="M37.486,57.521c-0.369,0.674-1.721,0.674-2.092,0c-0.35-0.638-0.35-2.976,0-3.613
	c0.371-0.674,1.723-0.674,2.092,0C37.838,54.548,37.838,56.884,37.486,57.521z"/>
<path fill="#C49E8F" d="M50.467,52.901c0.486-0.514,2.258-0.514,2.744,0c0.457,0.485,0.457,2.266,0,2.751
	c-0.486,0.514-2.258,0.514-2.744,0C50.01,55.166,50.01,53.387,50.467,52.901z"/>
<path fill="#C49E8F" d="M43.369,51.046c-0.443-0.263-0.422-1.191,0.029-1.437c0.428-0.231,1.979-0.201,2.393,0.048
	c0.443,0.262,0.424,1.19-0.027,1.438C45.336,51.327,43.785,51.295,43.369,51.046z"/>
<path fill="#705041" d="M52.637,49.658c0.537,0.345,0.611,1.687,0.113,2.077c-0.469,0.369-2.258,0.447-2.764,0.121
	c-0.537-0.346-0.611-1.687-0.115-2.078C50.342,49.41,52.131,49.332,52.637,49.658z"/>
<path fill="#B47D56" d="M46.789,50.61c0.25-0.728,1.582-0.956,2.061-0.355c0.453,0.569,0.852,2.873,0.615,3.561
	c-0.252,0.728-1.584,0.957-2.063,0.355C46.947,53.6,46.551,51.298,46.789,50.61z"/>
<path fill="#B47D56" d="M45.117,51.999c0.762-0.127,1.6,0.927,1.297,1.626c-0.287,0.664-2.131,2.1-2.85,2.218
	c-0.76,0.126-1.598-0.928-1.297-1.629C42.555,53.551,44.398,52.117,45.117,51.999z"/>
<rect x="27.18" y="32.7" fill="#C4BFBD" width="3" height="3"/>
<rect x="27.68" y="33.2" fill="#302C3B" width="2" height="2"/>
<rect x="33.818" y="32.7" fill="#C4BFBD" width="3" height="3"/>
<rect x="34.318" y="33.2" fill="#302C3B" width="2" height="2"/>
<rect x="40.459" y="32.7" fill="#C4BFBD" width="3" height="3"/>
<rect x="40.959" y="33.2" fill="#302C3B" width="2" height="2"/>
<rect x="47.098" y="32.7" fill="#C4BFBD" width="3" height="3"/>
<rect x="47.598" y="33.2" fill="#302C3B" width="2" height="2"/>
<rect x="20.542" y="32.7" fill="#C4BFBD" width="3" height="3"/>
<rect x="21.042" y="33.2" fill="#302C3B" width="2" height="2"/>
<rect x="13.901" y="32.7" fill="#C4BFBD" width="3" height="3"/>
<rect x="14.401" y="33.2" fill="#302C3B" width="2" height="2"/>
<rect x="27.18" y="44.115" fill="#C4BFBD" width="3" height="3"/>
<rect x="27.68" y="44.615" fill="#302C3B" width="2" height="2"/>
<rect x="33.818" y="44.115" fill="#C4BFBD" width="3" height="3"/>
<rect x="34.318" y="44.615" fill="#302C3B" width="2" height="2"/>
<rect x="40.459" y="44.115" fill="#C4BFBD" width="3" height="3"/>
<rect x="40.959" y="44.615" fill="#302C3B" width="2" height="2"/>
<rect x="47.098" y="44.115" fill="#C4BFBD" width="3" height="3"/>
<rect x="47.598" y="44.615" fill="#302C3B" width="2" height="2"/>
<rect x="20.542" y="44.115" fill="#C4BFBD" width="3" height="3"/>
<rect x="21.042" y="44.615" fill="#302C3B" width="2" height="2"/>
<rect x="13.901" y="44.115" fill="#C4BFBD" width="3" height="3"/>
<rect x="14.401" y="44.615" fill="#302C3B" width="2" height="2"/>
<rect x="33.818" y="27.152" fill="#C4BFBD" width="3" height="3"/>
<rect x="34.318" y="27.652" fill="#302C3B" width="2" height="2"/>
<rect x="27.18" y="27.152" fill="#C4BFBD" width="3" height="3"/>
<rect x="27.68" y="27.652" fill="#302C3B" width="2" height="2"/>
<rect x="33.82" y="19.155" fill="#C4BFBD" width="3" height="3"/>
<rect x="34.32" y="19.655" fill="#302C3B" width="2" height="2"/>
<rect x="40.459" y="19.155" fill="#C4BFBD" width="3" height="3"/>
<rect x="40.959" y="19.655" fill="#302C3B" width="2" height="2"/>
<rect x="27.18" y="19.155" fill="#C4BFBD" width="3" height="3"/>
<rect x="27.68" y="19.655" fill="#302C3B" width="2" height="2"/>
<rect x="20.542" y="19.155" fill="#C4BFBD" width="3" height="3"/>
<rect x="21.042" y="19.655" fill="#302C3B" width="2" height="2"/>
<rect x="37.139" y="9.289" fill="#C4BFBD" width="3" height="3"/>
<rect x="37.639" y="9.789" fill="#302C3B" width="2" height="2"/>
<rect x="30.5" y="9.289" fill="#C4BFBD" width="3" height="3"/>
<rect x="31" y="9.789" fill="#302C3B" width="2" height="2"/>
<rect x="23.86" y="9.289" fill="#C4BFBD" width="3" height="3"/>
<rect x="24.36" y="9.789" fill="#302C3B" width="2" height="2"/>
<path fill="#785647" d="M6.272,59.116l-0.391,0.039c0,0.381-0.018,2.844-0.018,2.844h0.529C6.393,61.999,6.27,59.503,6.272,59.116z"
	/>
<path fill="#FF8FA8" d="M5.936,54.016c-1.064,0.114-1.059,0.607-1.264,0.72c-0.209,0.113-1.594,0.359-1.697,0.758
	c-0.104,0.396,0.309,1.133-0.027,1.136c-1.322,0.009,0.1,0.718-0.439,0.927c-1.707,0.663,1.443,1.022,1.297,1.505
	c-0.365,1.198,2.184,0.168,2.477,0.594c0.488,0.709,1.775-1.221,2.371-1.031c0.953,0.303,1.947-1.39,0.762-1.54
	c-0.596-0.077,1.514-0.868-1.107-1.837C7.719,55.028,7.538,53.846,5.936,54.016z"/>
<path fill="#785647" d="M11.778,58.801l-0.479-0.045c0,0.435-0.15,3.243-0.15,3.243h0.65C11.799,61.999,11.778,59.228,11.778,58.801
	z"/>
<path fill="#FFA8C3" d="M11.713,53.018c1.309,0.127,1.299,0.683,1.555,0.81c0.256,0.128,1.959,0.405,2.086,0.853
	c0.129,0.447-0.379,1.274,0.033,1.277c1.629,0.01-0.123,0.808,0.539,1.043c2.102,0.746-1.775,1.15-1.594,1.693
	c0.447,1.348-2.686,0.188-3.047,0.669c-0.6,0.797-2.184-1.375-2.918-1.161c-1.17,0.342-2.395-1.563-0.936-1.733
	c0.732-0.085-1.861-0.975,1.361-2.066C9.52,54.157,9.741,52.826,11.713,53.018z"/>
<path fill="#785647" d="M17.633,59.116l-0.389,0.039c0,0.381-0.018,2.844-0.018,2.844h0.527
	C17.754,61.999,17.631,59.503,17.633,59.116z"/>
<path fill="#FF8FA8" d="M17.297,54.016c-1.064,0.114-1.057,0.607-1.264,0.72c-0.209,0.113-1.592,0.359-1.697,0.758
	c-0.104,0.396,0.309,1.133-0.025,1.136c-1.324,0.009,0.098,0.718-0.441,0.927c-1.705,0.663,1.445,1.022,1.299,1.505
	c-0.365,1.198,2.182,0.168,2.475,0.594c0.49,0.709,1.777-1.221,2.373-1.031c0.951,0.303,1.947-1.39,0.762-1.54
	c-0.596-0.077,1.512-0.868-1.109-1.837C19.081,55.028,18.901,53.846,17.297,54.016z"/>
<path fill="#785647" d="M23.139,58.801l-0.479-0.045c0,0.435-0.15,3.243-0.15,3.243h0.65C23.161,61.999,23.139,59.228,23.139,58.801
	z"/>
<path fill="#FFA8C3" d="M23.075,53.018c1.309,0.127,1.299,0.683,1.555,0.81c0.256,0.128,1.959,0.405,2.086,0.853
	c0.129,0.447-0.379,1.274,0.033,1.277c1.629,0.01-0.123,0.808,0.539,1.043c2.102,0.746-1.775,1.15-1.594,1.693
	c0.447,1.348-2.686,0.188-3.047,0.669c-0.6,0.797-2.184-1.375-2.918-1.161c-1.17,0.342-2.395-1.563-0.936-1.733
	c0.732-0.085-1.861-0.975,1.361-2.066C20.881,54.157,21.102,52.826,23.075,53.018z"/>
<path fill="#785647" d="M28.995,59.116l-0.389,0.039c0,0.381-0.018,2.844-0.018,2.844h0.527
	C29.116,61.999,28.993,59.503,28.995,59.116z"/>
<path fill="#FF8FA8" d="M28.659,54.016c-1.064,0.114-1.057,0.607-1.264,0.72c-0.209,0.113-1.592,0.359-1.697,0.758
	c-0.104,0.396,0.309,1.133-0.025,1.136c-1.324,0.009,0.098,0.718-0.441,0.927c-1.705,0.663,1.445,1.022,1.299,1.505
	c-0.365,1.198,2.182,0.168,2.475,0.594c0.49,0.709,1.777-1.221,2.373-1.031c0.951,0.303,1.947-1.39,0.762-1.54
	c-0.596-0.077,1.511-0.868-1.109-1.837C30.442,55.028,30.262,53.846,28.659,54.016z"/>
<path fill="#785647" d="M34.5,58.801l-0.477-0.045c0,0.435-0.15,3.243-0.15,3.243h0.648C34.521,61.999,34.5,59.228,34.5,58.801z"/>
<path fill="#FFA8C3" d="M34.436,53.018c1.311,0.127,1.301,0.683,1.555,0.81c0.256,0.128,1.959,0.405,2.088,0.853
	c0.127,0.447-0.381,1.274,0.031,1.277c1.629,0.01-0.121,0.808,0.541,1.043c2.1,0.746-1.775,1.15-1.596,1.693
	c0.449,1.348-2.686,0.188-3.047,0.669c-0.6,0.797-2.181-1.375-2.916-1.161c-1.172,0.342-2.396-1.563-0.938-1.733
	c0.734-0.085-1.859-0.975,1.363-2.066C32.243,54.157,32.463,52.826,34.436,53.018z"/>
<path fill="#785647" d="M40.357,59.116l-0.391,0.039c0,0.381-0.018,2.844-0.018,2.844h0.529
	C40.479,61.999,40.355,59.503,40.357,59.116z"/>
<path fill="#FF8FA8" d="M40.021,54.016c-1.064,0.114-1.059,0.607-1.264,0.72c-0.209,0.113-1.594,0.359-1.697,0.758
	c-0.104,0.396,0.309,1.133-0.027,1.136c-1.322,0.009,0.1,0.718-0.439,0.927c-1.707,0.663,1.443,1.022,1.297,1.505
	c-0.365,1.198,2.184,0.168,2.477,0.594c0.488,0.709,1.775-1.221,2.371-1.031c0.953,0.303,1.947-1.39,0.762-1.54
	c-0.596-0.077,1.514-0.868-1.107-1.837C41.805,55.028,41.623,53.846,40.021,54.016z"/>
<path fill="#785647" d="M45.863,58.801l-0.479-0.045c0,0.435-0.15,3.243-0.15,3.243h0.65C45.885,61.999,45.863,59.228,45.863,58.801
	z"/>
<path fill="#FFA8C3" d="M45.799,53.018c1.309,0.127,1.299,0.683,1.555,0.81c0.256,0.128,1.959,0.405,2.086,0.853
	c0.129,0.447-0.379,1.274,0.033,1.277c1.629,0.01-0.123,0.808,0.539,1.043c2.102,0.746-1.775,1.15-1.594,1.693
	c0.447,1.348-2.686,0.188-3.047,0.669c-0.6,0.797-2.184-1.375-2.918-1.161c-1.17,0.342-2.395-1.563-0.936-1.733
	c0.732-0.085-1.861-0.975,1.361-2.066C43.605,54.157,43.826,52.826,45.799,53.018z"/>
<path fill="#785647" d="M51.719,59.116l-0.391,0.039c0,0.381-0.018,2.844-0.018,2.844h0.529
	C51.84,61.999,51.717,59.503,51.719,59.116z"/>
<path fill="#FF8FA8" d="M51.383,54.016c-1.064,0.114-1.059,0.607-1.264,0.72c-0.209,0.113-1.594,0.359-1.697,0.758
	c-0.104,0.396,0.309,1.133-0.027,1.136c-1.322,0.009,0.1,0.718-0.439,0.927c-1.707,0.663,1.443,1.022,1.297,1.505
	c-0.365,1.198,2.184,0.168,2.477,0.594c0.488,0.709,1.775-1.221,2.371-1.031c0.953,0.303,1.947-1.39,0.762-1.54
	c-0.596-0.077,1.514-0.868-1.107-1.837C53.166,55.028,52.984,53.846,51.383,54.016z"/>
<path fill="#785647" d="M57.225,58.801l-0.479-0.045c0,0.435-0.15,3.243-0.15,3.243h0.65C57.246,61.999,57.225,59.228,57.225,58.801
	z"/>
<path fill="#FFA8C3" d="M57.16,53.018c1.309,0.127,1.299,0.683,1.555,0.81c0.256,0.128,1.959,0.405,2.086,0.853
	c0.129,0.447-0.379,1.274,0.033,1.277c1.629,0.01-0.123,0.808,0.539,1.043c2.102,0.746-1.775,1.15-1.594,1.693
	c0.447,1.348-2.686,0.188-3.047,0.669c-0.6,0.797-2.184-1.375-2.918-1.161c-1.17,0.342-2.395-1.563-0.936-1.733
	c0.732-0.085-1.861-0.975,1.361-2.066C54.967,54.157,55.188,52.826,57.16,53.018z"/>
<path fill="#7AB51D" d="M60.098,61.081c0.229-0.411-1.818-0.802-2.666-0.277c-0.508-0.329-2.605-0.244-2.672,0.191
	c-0.248-0.396-1.854-0.476-2.26-0.074c-0.643-0.396-3.111-0.165-3.313,0.251c-0.941-0.325-1.984-0.191-2.502,0.17
	c-0.277-0.139-0.732-0.248-1.482-0.261c0.23-0.411-1.818-0.802-2.666-0.277c-0.506-0.329-2.605-0.244-2.672,0.191
	c-0.248-0.396-1.854-0.476-2.26-0.074c-0.641-0.396-3.111-0.165-3.313,0.251c-0.867-0.302-1.824-0.208-2.371,0.09
	c-0.285-0.099-0.693-0.169-1.291-0.181c0.23-0.411-1.818-0.802-2.666-0.277c-0.506-0.329-2.605-0.244-2.672,0.191
	c-0.248-0.396-1.854-0.476-2.26-0.074c-0.641-0.396-3.111-0.165-3.313,0.251c-0.941-0.325-1.984-0.191-2.5,0.17
	c-0.279-0.139-0.732-0.248-1.482-0.261c0.229-0.411-1.82-0.802-2.668-0.277c-0.506-0.329-2.605-0.244-2.67,0.191
	c-0.248-0.396-1.855-0.476-2.26-0.074c-0.643-0.396-3.113-0.165-3.313,0.251c-1.402-0.485-3.037,0.051-2.807,0.827H61.98
	C61.98,61.999,62.328,61.121,60.098,61.081z"/>
<path fill="#F2ECE8" d="M10.901,42.656c0-0.179,1-0.179,1,0C11.901,43.368,10.901,43.368,10.901,42.656z"/>
<path fill="#F2ECE8" d="M12.229,42.656c0-0.179,1-0.179,1,0C13.229,43.368,12.229,43.368,12.229,42.656z"/>
<path fill="#F2ECE8" d="M13.558,42.656c0-0.179,1-0.179,1,0C14.558,43.368,13.558,43.368,13.558,42.656z"/>
<path fill="#F2ECE8" d="M14.886,42.656c0-0.179,1-0.179,1,0C15.886,43.368,14.886,43.368,14.886,42.656z"/>
<path fill="#F2ECE8" d="M16.214,42.656c0-0.179,1.001-0.179,1.001,0C17.215,43.368,16.214,43.368,16.214,42.656z"/>
<path fill="#F2ECE8" d="M17.543,42.656c0-0.179,1.001-0.179,1.001,0C18.544,43.368,17.543,43.368,17.543,42.656z"/>
<path fill="#F2ECE8" d="M18.872,42.656c0-0.179,1-0.179,1,0C19.872,43.368,18.872,43.368,18.872,42.656z"/>
<path fill="#F2ECE8" d="M20.201,42.656c0-0.179,1-0.179,1,0C21.201,43.368,20.201,43.368,20.201,42.656z"/>
<path fill="#F2ECE8" d="M21.529,42.656c0-0.179,1-0.179,1,0C22.529,43.368,21.529,43.368,21.529,42.656z"/>
<path fill="#F2ECE8" d="M22.857,42.656c0-0.179,1.001-0.179,1.001,0C23.858,43.368,22.857,43.368,22.857,42.656z"/>
<path fill="#F2ECE8" d="M24.186,42.656c0-0.179,1-0.179,1,0C25.186,43.368,24.186,43.368,24.186,42.656z"/>
<path fill="#F2ECE8" d="M25.514,42.656c0-0.179,1.001-0.179,1.001,0C26.515,43.368,25.514,43.368,25.514,42.656z"/>
<path fill="#F2ECE8" d="M26.842,42.656c0-0.179,1.002-0.179,1.002,0C27.844,43.368,26.842,43.368,26.842,42.656z"/>
<path fill="#F2ECE8" d="M28.172,42.656c0-0.179,1-0.179,1,0C29.172,43.368,28.172,43.368,28.172,42.656z"/>
<path fill="#F2ECE8" d="M29.5,42.656c0-0.179,1-0.179,1,0C30.5,43.368,29.5,43.368,29.5,42.656z"/>
<path fill="#F2ECE8" d="M30.829,42.656c0-0.179,1-0.179,1,0C31.829,43.368,30.829,43.368,30.829,42.656z"/>
<path fill="#F2ECE8" d="M32.157,42.656c0-0.179,1-0.179,1,0C33.157,43.368,32.157,43.368,32.157,42.656z"/>
<path fill="#F2ECE8" d="M33.485,42.656c0-0.179,1.001-0.179,1.001,0C34.486,43.368,33.485,43.368,33.485,42.656z"/>
<path fill="#F2ECE8" d="M34.813,42.656c0-0.179,1.001-0.179,1.001,0C35.814,43.368,34.813,43.368,34.813,42.656z"/>
<path fill="#F2ECE8" d="M36.143,42.656c0-0.179,1-0.179,1,0C37.143,43.368,36.143,43.368,36.143,42.656z"/>
<path fill="#F2ECE8" d="M37.471,42.656c0-0.179,1-0.179,1,0C38.471,43.368,37.471,43.368,37.471,42.656z"/>
<path fill="#F2ECE8" d="M38.8,42.656c0-0.179,1-0.179,1,0C39.8,43.368,38.8,43.368,38.8,42.656z"/>
<path fill="#F2ECE8" d="M40.128,42.656c0-0.179,1.001-0.179,1.001,0C41.129,43.368,40.128,43.368,40.128,42.656z"/>
<path fill="#F2ECE8" d="M41.456,42.656c0-0.179,1.001-0.179,1.001,0C42.457,43.368,41.456,43.368,41.456,42.656z"/>
<path fill="#F2ECE8" d="M42.785,42.656c0-0.179,1.001-0.179,1.001,0C43.786,43.368,42.785,43.368,42.785,42.656z"/>
<path fill="#F2ECE8" d="M44.113,42.656c0-0.179,1.001-0.179,1.001,0C45.114,43.368,44.113,43.368,44.113,42.656z"/>
<path fill="#F2ECE8" d="M45.442,42.656c0-0.179,0.999-0.179,0.999,0C46.441,43.368,45.442,43.368,45.442,42.656z"/>
<path fill="#F2ECE8" d="M46.771,42.656c0-0.179,1-0.179,1,0C47.771,43.368,46.771,43.368,46.771,42.656z"/>
<path fill="#F2ECE8" d="M48.1,42.656c0-0.179,1-0.179,1,0C49.1,43.368,48.1,43.368,48.1,42.656z"/>
<path fill="#F2ECE8" d="M49.427,42.656c0-0.179,1.002-0.179,1.002,0C50.429,43.368,49.427,43.368,49.427,42.656z"/>
<path fill="#F2ECE8" d="M50.757,42.656c0-0.179,1-0.179,1,0C51.757,43.368,50.757,43.368,50.757,42.656z"/>
<path fill="#F2ECE8" d="M52.085,42.656c0-0.179,1-0.179,1,0C53.085,43.368,52.085,43.368,52.085,42.656z"/>
<path fill="#F2ECE8" d="M19.013,18.104c0-0.179,0.953-0.179,0.953,0C19.966,18.815,19.013,18.815,19.013,18.104z"/>
<path fill="#F2ECE8" d="M20.279,18.104c0-0.179,0.952-0.179,0.952,0C21.231,18.815,20.279,18.815,20.279,18.104z"/>
<path fill="#F2ECE8" d="M21.545,18.104c0-0.179,0.952-0.179,0.952,0C22.498,18.815,21.545,18.815,21.545,18.104z"/>
<path fill="#F2ECE8" d="M22.81,18.104c0-0.179,0.953-0.179,0.953,0C23.763,18.815,22.81,18.815,22.81,18.104z"/>
<path fill="#F2ECE8" d="M24.076,18.104c0-0.179,0.953-0.179,0.953,0C25.029,18.815,24.076,18.815,24.076,18.104z"/>
<path fill="#F2ECE8" d="M25.341,18.104c0-0.179,0.952-0.179,0.952,0C26.293,18.815,25.341,18.815,25.341,18.104z"/>
<path fill="#F2ECE8" d="M26.607,18.104c0-0.179,0.953-0.179,0.953,0C27.56,18.815,26.607,18.815,26.607,18.104z"/>
<path fill="#F2ECE8" d="M27.873,18.104c0-0.179,0.954-0.179,0.954,0C28.827,18.815,27.873,18.815,27.873,18.104z"/>
<path fill="#F2ECE8" d="M35.188,18.104c0-0.179,0.951-0.179,0.951,0C36.14,18.815,35.188,18.815,35.188,18.104z"/>
<path fill="#F2ECE8" d="M36.451,18.104c0-0.179,0.953-0.179,0.953,0C37.404,18.815,36.451,18.815,36.451,18.104z"/>
<path fill="#F2ECE8" d="M37.717,18.104c0-0.179,0.951-0.179,0.951,0C38.668,18.815,37.717,18.815,37.717,18.104z"/>
<path fill="#F2ECE8" d="M38.98,18.104c0-0.179,0.952-0.179,0.952,0C39.933,18.815,38.98,18.815,38.98,18.104z"/>
<path fill="#F2ECE8" d="M40.243,18.104c0-0.179,0.953-0.179,0.953,0C41.196,18.815,40.243,18.815,40.243,18.104z"/>
<path fill="#F2ECE8" d="M41.509,18.104c0-0.179,0.952-0.179,0.952,0C42.461,18.815,41.509,18.815,41.509,18.104z"/>
<path fill="#F2ECE8" d="M42.771,18.104c0-0.179,0.953-0.179,0.953,0C43.725,18.815,42.771,18.815,42.771,18.104z"/>
<path fill="#F2ECE8" d="M44.036,18.104c0-0.179,0.951-0.179,0.951,0C44.987,18.815,44.036,18.815,44.036,18.104z"/>
<path fill="#F2ECE8" d="M22.286,8.297c0-0.168,0.933-0.168,0.933,0C23.218,8.965,22.286,8.965,22.286,8.297z"/>
<path fill="#F2ECE8" d="M23.524,8.297c0-0.168,0.933-0.168,0.933,0C24.457,8.965,23.524,8.965,23.524,8.297z"/>
<path fill="#F2ECE8" d="M24.763,8.297c0-0.168,0.933-0.168,0.933,0C25.696,8.965,24.763,8.965,24.763,8.297z"/>
<path fill="#F2ECE8" d="M26.002,8.297c0-0.168,0.934-0.168,0.934,0C26.936,8.965,26.002,8.965,26.002,8.297z"/>
<path fill="#F2ECE8" d="M37.079,8.297c0-0.168,0.931-0.168,0.931,0C38.01,8.965,37.079,8.965,37.079,8.297z"/>
<path fill="#F2ECE8" d="M38.314,8.297c0-0.168,0.934-0.168,0.934,0C39.248,8.965,38.314,8.965,38.314,8.297z"/>
<path fill="#F2ECE8" d="M39.554,8.297c0-0.168,0.931-0.168,0.931,0C40.484,8.965,39.554,8.965,39.554,8.297z"/>
<path fill="#F2ECE8" d="M40.791,8.297c0-0.168,0.932-0.168,0.932,0C41.723,8.965,40.791,8.965,40.791,8.297z"/>
<path fill="#F2ECE8" d="M10.901,30.998c0-0.179,1-0.179,1,0C11.901,31.71,10.901,31.71,10.901,30.998z"/>
<path fill="#F2ECE8" d="M12.229,30.998c0-0.179,1-0.179,1,0C13.229,31.71,12.229,31.71,12.229,30.998z"/>
<path fill="#F2ECE8" d="M13.558,30.998c0-0.179,1-0.179,1,0C14.558,31.71,13.558,31.71,13.558,30.998z"/>
<path fill="#F2ECE8" d="M14.886,30.998c0-0.179,1-0.179,1,0C15.886,31.71,14.886,31.71,14.886,30.998z"/>
<path fill="#F2ECE8" d="M16.214,30.998c0-0.179,1.001-0.179,1.001,0C17.215,31.71,16.214,31.71,16.214,30.998z"/>
<path fill="#F2ECE8" d="M17.543,30.998c0-0.179,1.001-0.179,1.001,0C18.544,31.71,17.543,31.71,17.543,30.998z"/>
<path fill="#F2ECE8" d="M18.872,30.998c0-0.179,1-0.179,1,0C19.872,31.71,18.872,31.71,18.872,30.998z"/>
<path fill="#F2ECE8" d="M20.201,30.998c0-0.179,1-0.179,1,0C21.201,31.71,20.201,31.71,20.201,30.998z"/>
<path fill="#F2ECE8" d="M21.529,30.998c0-0.179,1-0.179,1,0C22.529,31.71,21.529,31.71,21.529,30.998z"/>
<path fill="#F2ECE8" d="M41.456,30.998c0-0.179,1.001-0.179,1.001,0C42.457,31.71,41.456,31.71,41.456,30.998z"/>
<path fill="#F2ECE8" d="M42.785,30.998c0-0.179,1.001-0.179,1.001,0C43.786,31.71,42.785,31.71,42.785,30.998z"/>
<path fill="#F2ECE8" d="M44.113,30.998c0-0.179,1.001-0.179,1.001,0C45.114,31.71,44.113,31.71,44.113,30.998z"/>
<path fill="#F2ECE8" d="M45.442,30.998c0-0.179,0.999-0.179,0.999,0C46.441,31.71,45.442,31.71,45.442,30.998z"/>
<path fill="#F2ECE8" d="M46.771,30.998c0-0.179,1-0.179,1,0C47.771,31.71,46.771,31.71,46.771,30.998z"/>
<path fill="#F2ECE8" d="M48.1,30.998c0-0.179,1-0.179,1,0C49.1,31.71,48.1,31.71,48.1,30.998z"/>
<path fill="#F2ECE8" d="M49.427,30.998c0-0.179,1.002-0.179,1.002,0C50.429,31.71,49.427,31.71,49.427,30.998z"/>
<path fill="#F2ECE8" d="M50.757,30.998c0-0.179,1-0.179,1,0C51.757,31.71,50.757,31.71,50.757,30.998z"/>
<path fill="#F2ECE8" d="M52.085,30.998c0-0.179,1-0.179,1,0C53.085,31.71,52.085,31.71,52.085,30.998z"/>
</svg>
