<?xml version="1.0" encoding="utf-8"?>
<!-- Generator: Adobe Illustrator 24.1.2, SVG Export Plug-In . SVG Version: 6.00 Build 0)  -->
<svg version="1.1" id="Layer_1" xmlns="http://www.w3.org/2000/svg" xmlns:xlink="http://www.w3.org/1999/xlink" x="0px" y="0px"
	 width="64px" height="64px" viewBox="0 0 64 64" style="enable-background:new 0 0 64 64;" xml:space="preserve">
<style type="text/css">
	.st0{fill:#C1BCAF;}
	.st1{fill:#98907D;}
	.st2{fill:#E6EBEF;}
	.st3{fill:#302C3B;}
	.st4{fill:#7F7358;}
	.st5{fill:#DBD6C7;}
	.st6{fill:#B3C2C6;}
	.st7{fill:#99A8AE;}
	.st8{fill:#CFD8DD;}
	.st9{fill:#E81C27;}
	.st10{fill:url(#SVGID_1_);}
	.st11{fill:#57602E;}
	.st12{fill:url(#SVGID_2_);}
	.st13{fill:url(#SVGID_3_);}
	.st14{fill:url(#SVGID_4_);}
	.st15{fill:#FFFFFF;}
</style>
<rect x="13" y="2" class="st0" width="38" height="7"/>
<polygon class="st1" points="60,3 51,2 51,9 60,9 "/>
<polygon class="st1" points="13,2 4,3 4,9 13,9 "/>
<polygon class="st0" points="62,5 52,4 52,62 62,61 "/>
<polygon class="st0" points="12,4 2,5 2,61 12,62 "/>
<polygon class="st2" points="18,23 18,60 32,60 46,60 46,23 "/>
<rect x="23.02" y="52.13" class="st3" width="4.24" height="7.88"/>
<rect x="41.31" y="52.13" class="st3" width="4.24" height="7.88"/>
<rect x="18.45" y="52.13" class="st3" width="4.24" height="7.88"/>
<rect x="27.59" y="52.13" class="st3" width="4.24" height="7.88"/>
<rect x="36.74" y="52.13" class="st3" width="4.24" height="7.88"/>
<rect x="32.17" y="52.13" class="st3" width="4.24" height="7.88"/>
<rect x="18.45" y="39.66" class="st3" width="4.24" height="11.81"/>
<rect x="23.02" y="39.66" class="st3" width="8.81" height="11.81"/>
<rect x="32.17" y="39.66" class="st3" width="8.81" height="11.81"/>
<rect x="41.31" y="39.66" class="st3" width="4.24" height="11.81"/>
<rect x="23.02" y="31.45" class="st3" width="8.81" height="7.87"/>
<rect x="18.45" y="31.45" class="st3" width="4.24" height="7.87"/>
<rect x="41.31" y="31.45" class="st3" width="4.24" height="7.87"/>
<rect x="32.17" y="31.45" class="st3" width="8.81" height="7.87"/>
<rect x="18.45" y="23.25" class="st3" width="4.24" height="7.87"/>
<rect x="32.17" y="23.25" class="st3" width="8.81" height="7.87"/>
<rect x="41.31" y="23.25" class="st3" width="4.24" height="7.87"/>
<rect x="23.02" y="23.25" class="st3" width="8.81" height="7.87"/>
<rect x="26.38" y="55.41" class="st2" width="0.16" height="1.31"/>
<rect x="28.31" y="55.41" class="st2" width="0.17" height="1.31"/>
<rect x="35.52" y="55.41" class="st2" width="0.16" height="1.31"/>
<rect x="37.46" y="55.41" class="st2" width="0.16" height="1.31"/>
<polygon class="st1" points="18,60 12,62 12,20 18,23 "/>
<polygon class="st4" points="32,20 12,20 18,23 32,23 46,23 52,20 "/>
<polygon class="st1" points="46,60 52,62 52,20 46,23 "/>
<polygon class="st5" points="46,60 32,60 18,60 12,62 32,62 52,62 "/>
<polygon class="st6" points="32,44.5 18,44.5 18,47.5 32,47.5 46,47.5 46,44.5 "/>
<polygon class="st7" points="16.25,47.5 18,47.5 18,44.5 16.25,44.75 "/>
<polygon class="st7" points="46,44.5 46,47.5 47.75,47.5 47.75,44.75 "/>
<polygon class="st2" points="32,44.95 17.75,44.95 17.75,47.05 32,47.05 46.25,47.05 46.25,44.95 "/>
<polygon class="st8" points="16,47.05 17.75,47.05 17.75,44.95 16,45.2 "/>
<polygon class="st8" points="46.25,44.95 46.25,47.05 48,47.05 48,45.2 "/>
<rect x="12" y="4" class="st5" width="40" height="16"/>
<path class="st9" d="M47,8c0-0.55-0.45-1-1-1H18c-0.55,0-1,0.45-1,1v8c0,0.55,0.45,1,1,1h28c0.55,0,1-0.45,1-1V8z"/>
<linearGradient id="SVGID_1_" gradientUnits="userSpaceOnUse" x1="4.6533" y1="57.9092" x2="9.4482" y2="57.9092">
	<stop  offset="0" style="stop-color:#8A653C"/>
	<stop  offset="0.2032" style="stop-color:#835F38"/>
	<stop  offset="0.5012" style="stop-color:#6F502D"/>
	<stop  offset="0.856" style="stop-color:#4F361B"/>
	<stop  offset="1" style="stop-color:#402A12"/>
</linearGradient>
<path class="st10" d="M4.65,57.83c0-0.28,4.79-0.28,4.79,0C9.45,58.32,4.65,58.32,4.65,57.83z"/>
<path id="Shape_6_" class="st8" d="M4.55,57.76c0.16,1.34,0.31,2.67,0.47,4c1.34,0.31,2.73,0.31,4.07,0c0.16-1.33,0.31-2.66,0.46-4
	C7.92,58.24,6.18,58.24,4.55,57.76z"/>
<path class="st11" d="M7.34,54.81c-0.23,0.69-0.1,2.36,0.21,2.97c0.09,0.18-0.7,0.17-0.72-0.03c-0.15-1.45,0.05-2.43-0.27-2.8
	C6.42,54.8,7.49,54.35,7.34,54.81z"/>
<linearGradient id="SVGID_2_" gradientUnits="userSpaceOnUse" x1="7.0509" y1="56.6735" x2="7.0509" y2="49.6836">
	<stop  offset="0" style="stop-color:#4A8500"/>
	<stop  offset="1" style="stop-color:#80C900"/>
</linearGradient>
<path class="st12" d="M10.95,53c0.19-0.18-0.94-0.29-0.32-0.55c0.12-0.05,0.45-0.64,0.07-0.71c-0.64-0.12-0.1-0.32-0.39-0.73
	c-0.18-0.25-1.2,0.06-0.81-0.56c0.06-0.1-0.35-0.5-0.61-0.37c-0.68,0.33-0.33-0.31-0.74-0.31c-0.13,0-0.51,0.67-0.63,0.12
	c-0.03-0.11-0.39-0.2-0.53-0.2s-0.44,0.12-0.53,0.2c-0.5,0.48-0.5-0.12-0.63-0.12c-0.41,0.01-0.27,0.37-0.74,0.31
	c-0.3-0.04-0.6,0.25-0.61,0.37c-0.07,0.83-0.49,0.03-0.85,0.54c-0.29,0.41,0.52,0.63-0.29,0.77c-0.38,0.06,0.09,0.5,0.01,0.69
	c-0.1,0.24-0.54,0.45-0.19,0.66c1.04,0.65-0.35,0.39,0.08,0.82c0.22,0.21-0.29,0.58,0.11,0.74c0.83,0.34-0.69,0.52,0.68,0.63
	c0.14,0.01,0.24,0.43,0.27,0.54c0.19,0.57,0.27-0.19,1.07,0.18c0.12,0.06,0.27,1.02,0.77,0.47c0.2-0.21,0.43-0.19,0.71-0.19
	c0.27,0,0.66,0.43,0.91,0.07c0.27-0.38,0.87-0.22,0.82-0.36c-0.1-0.3,0.67,0.06,0.97-0.31c0.08-0.09-0.14-0.62,0.37-0.42
	c0.52,0.2,0.19-0.44,0.69-0.72c0.32-0.18-0.37-0.64,0.24-0.75C11.36,53.75,10.63,53.3,10.95,53z"/>
<linearGradient id="SVGID_3_" gradientUnits="userSpaceOnUse" x1="-642.0791" y1="57.9092" x2="-637.2841" y2="57.9092" gradientTransform="matrix(-1 0 0 1 -582.7324 0)">
	<stop  offset="0" style="stop-color:#8A653C"/>
	<stop  offset="0.2032" style="stop-color:#835F38"/>
	<stop  offset="0.5012" style="stop-color:#6F502D"/>
	<stop  offset="0.856" style="stop-color:#4F361B"/>
	<stop  offset="1" style="stop-color:#402A12"/>
</linearGradient>
<path class="st13" d="M59.35,57.83c0-0.28-4.8-0.28-4.8,0C54.55,58.32,59.35,58.32,59.35,57.83z"/>
<path id="Shape_1_" class="st8" d="M59.45,57.76c-0.16,1.34-0.31,2.67-0.47,4c-1.34,0.31-2.73,0.31-4.07,0
	c-0.16-1.33-0.31-2.66-0.46-4C56.08,58.24,57.82,58.24,59.45,57.76z"/>
<path class="st11" d="M56.66,54.81c0.23,0.69,0.1,2.36-0.21,2.97c-0.09,0.18,0.7,0.17,0.72-0.03c0.15-1.45-0.05-2.43,0.27-2.8
	C57.58,54.8,56.51,54.35,56.66,54.81z"/>
<linearGradient id="SVGID_4_" gradientUnits="userSpaceOnUse" x1="-639.6815" y1="56.6735" x2="-639.6815" y2="49.6836" gradientTransform="matrix(-1 0 0 1 -582.7324 0)">
	<stop  offset="0" style="stop-color:#4A8500"/>
	<stop  offset="1" style="stop-color:#80C900"/>
</linearGradient>
<path class="st14" d="M53.05,53c-0.19-0.18,0.94-0.29,0.32-0.55c-0.12-0.05-0.45-0.64-0.07-0.71c0.64-0.12,0.1-0.32,0.39-0.73
	c0.18-0.25,1.2,0.06,0.81-0.56c-0.06-0.1,0.35-0.5,0.61-0.37c0.68,0.33,0.33-0.31,0.74-0.31c0.13,0,0.51,0.67,0.63,0.12
	c0.03-0.11,0.39-0.2,0.53-0.2s0.44,0.12,0.53,0.2c0.5,0.48,0.5-0.12,0.63-0.12c0.41,0.01,0.27,0.37,0.74,0.31
	c0.3-0.04,0.6,0.25,0.61,0.37c0.07,0.83,0.49,0.03,0.85,0.54c0.29,0.41-0.52,0.63,0.29,0.77c0.38,0.06-0.09,0.5-0.01,0.69
	c0.1,0.24,0.54,0.45,0.19,0.66c-1.04,0.65,0.35,0.39-0.08,0.82c-0.22,0.21,0.29,0.58-0.11,0.74c-0.83,0.34,0.69,0.52-0.68,0.63
	c-0.14,0.01-0.24,0.43-0.27,0.54c-0.19,0.57-0.27-0.19-1.07,0.18c-0.12,0.06-0.27,1.02-0.77,0.47c-0.2-0.21-0.43-0.19-0.71-0.19
	c-0.27,0-0.66,0.43-0.91,0.07c-0.27-0.38-0.87-0.22-0.82-0.36c0.1-0.3-0.67,0.06-0.97-0.31c-0.08-0.09,0.14-0.62-0.37-0.42
	c-0.52,0.2-0.19-0.44-0.69-0.72c-0.32-0.18,0.37-0.64-0.24-0.75C52.64,53.75,53.37,53.3,53.05,53z"/>
<path class="st15" d="M25.45,12.15c-0.19-0.14-0.43-0.27-0.72-0.39c-0.29-0.11-0.64-0.21-1.03-0.29c-0.34-0.08-0.6-0.15-0.8-0.23
	c-0.19-0.07-0.33-0.16-0.41-0.25c-0.08-0.09-0.12-0.21-0.12-0.35c0-0.25,0.11-0.45,0.32-0.59c0.21-0.14,0.5-0.22,0.86-0.22
	c0.32,0,0.64,0.05,0.94,0.16c0.31,0.11,0.61,0.27,0.89,0.49l0.45-1c-0.17-0.15-0.37-0.28-0.61-0.39c-0.24-0.11-0.51-0.19-0.8-0.25
	c-0.29-0.06-0.58-0.09-0.89-0.09c-0.5,0-0.95,0.09-1.32,0.26c-0.38,0.17-0.67,0.41-0.88,0.71c-0.21,0.3-0.32,0.64-0.32,1.01
	c0,0.26,0.04,0.49,0.12,0.69c0.08,0.2,0.21,0.37,0.4,0.52c0.18,0.15,0.42,0.28,0.71,0.39c0.29,0.11,0.64,0.21,1.05,0.29
	c0.33,0.07,0.59,0.14,0.78,0.21c0.2,0.07,0.34,0.15,0.43,0.25c0.09,0.09,0.13,0.21,0.13,0.35c0,0.23-0.11,0.41-0.32,0.54
	c-0.22,0.13-0.53,0.2-0.93,0.2c-0.37,0-0.73-0.05-1.07-0.16c-0.34-0.11-0.66-0.27-0.98-0.49l-0.45,1c0.2,0.15,0.43,0.29,0.69,0.4
	c0.27,0.11,0.55,0.19,0.86,0.25c0.31,0.06,0.62,0.08,0.94,0.08c0.55,0,1.02-0.08,1.42-0.24c0.39-0.16,0.69-0.38,0.9-0.67
	c0.21-0.29,0.31-0.63,0.31-1.03c0-0.25-0.04-0.47-0.13-0.66C25.78,12.46,25.64,12.29,25.45,12.15z"/>
<path class="st15" d="M29.11,8.83l-2.91,6.34h1.4l0.61-1.41h2.96l0.6,1.41h1.38l-2.91-6.34H29.11z M28.66,12.7l1.03-2.38l1.02,2.38
	H28.66z"/>
<polygon class="st15" points="35.07,8.83 33.68,8.83 33.68,15.17 37.9,15.17 37.9,14.04 35.07,14.04 "/>
<polygon class="st15" points="43.12,9.91 43.12,8.83 38.75,8.83 38.75,15.17 43.12,15.17 43.12,14.09 40.11,14.09 40.11,12.49 
	42.93,12.49 42.93,11.4 40.11,11.4 40.11,9.91 "/>
</svg>
