<?xml version="1.0" encoding="utf-8"?>
<!-- Generator: Adobe Illustrator 24.1.2, SVG Export Plug-In . SVG Version: 6.00 Build 0)  -->
<svg version="1.1" id="Layer_1" xmlns="http://www.w3.org/2000/svg" xmlns:xlink="http://www.w3.org/1999/xlink" x="0px" y="0px"
	 width="64px" height="64px" viewBox="0 0 64 64" style="enable-background:new 0 0 64 64;" xml:space="preserve">
<style type="text/css">
	.st0{fill:#E84D88;}
	.st1{fill:#6E8189;}
	.st2{fill:#F6BEC1;}
	.st3{fill:#FF8FA8;}
	.st4{fill:#302C3B;}
	.st5{fill:#A81D51;}
	.st6{fill:#D93070;}
	.st7{fill:#FFFFFF;}
	.st8{fill:#FFDEDF;}
	.st9{fill:#FB367D;}
	.st10{fill:url(#SVGID_1_);}
	.st11{fill:url(#SVGID_2_);}
</style>
<path class="st0" d="M60,45.5c0,0.28-0.22,0.5-0.5,0.5h-5c-0.28,0-0.5-0.22-0.5-0.5v-22c0-0.28,0.22-0.5,0.5-0.5h5
	c0.28,0,0.5,0.22,0.5,0.5V45.5z"/>
<rect x="52" y="44" class="st1" width="2" height="1"/>
<rect x="52" y="24" class="st1" width="2" height="1"/>
<rect x="7" y="20" class="st2" width="46" height="42"/>
<rect x="42.75" y="38.5" class="st3" width="6" height="8"/>
<rect x="32.25" y="38.5" class="st3" width="6" height="8"/>
<rect x="21.75" y="38.5" class="st3" width="6" height="8"/>
<rect x="11.25" y="38.5" class="st3" width="6" height="8"/>
<rect x="43.96" y="39" class="st4" width="3.57" height="7"/>
<rect x="33.46" y="39" class="st4" width="3.57" height="7"/>
<rect x="22.96" y="39" class="st4" width="3.57" height="7"/>
<rect x="12.46" y="39" class="st4" width="3.57" height="7"/>
<path class="st5" d="M43.25,46h1.65c0-1.32-0.48-4.17-0.48-4.17s0.83-2.17,0.83-2.83h-2V46z"/>
<path class="st5" d="M48.25,46H46.6c0-1.32,0.48-4.17,0.48-4.17s-0.83-2.17-0.83-2.83h2V46z"/>
<path class="st5" d="M32.75,46h1.65c0-1.32-0.48-4.17-0.48-4.17s0.83-2.17,0.83-2.83h-2V46z"/>
<path class="st5" d="M37.75,46H36.1c0-1.32,0.48-4.17,0.48-4.17s-0.83-2.17-0.83-2.83h2V46z"/>
<path class="st5" d="M22.25,46h1.65c0-1.32-0.48-4.17-0.48-4.17s0.83-2.17,0.83-2.83h-2V46z"/>
<path class="st5" d="M27.25,46H25.6c0-1.32,0.48-4.17,0.48-4.17s-0.83-2.17-0.83-2.83h2V46z"/>
<path class="st5" d="M11.75,46h1.65c0-1.32-0.48-4.17-0.48-4.17s0.83-2.17,0.83-2.83h-2V46z"/>
<path class="st5" d="M16.75,46H15.1c0-1.32,0.48-4.17,0.48-4.17s-0.83-2.17-0.83-2.83h2V46z"/>
<polygon class="st3" points="42.94,41.28 45.5,41.28 45.5,46.29 46,46.29 46,41.28 48.56,41.28 48.56,40.78 42.94,40.78 "/>
<polygon class="st3" points="32.44,41.28 35,41.28 35,46.29 35.5,46.29 35.5,41.28 38.06,41.28 38.06,40.78 32.44,40.78 "/>
<polygon class="st3" points="21.94,41.28 24.5,41.28 24.5,46.29 25,46.29 25,41.28 27.56,41.28 27.56,40.78 21.94,40.78 "/>
<polygon class="st3" points="11.44,41.28 14,41.28 14,46.29 14.5,46.29 14.5,41.28 17.06,41.28 17.06,40.78 11.44,40.78 "/>
<path class="st3" d="M5,19v1c0,0.55,0.45,1,1,1h48c0.55,0,1-0.45,1-1v-1H5z"/>
<path class="st6" d="M54,62V51c0-0.55-0.45-1-1-1H7c-0.55,0-1,0.45-1,1v11H54z"/>
<path class="st0" d="M4,18.5C4,18.22,4.22,18,4.5,18h51c0.28,0,0.5,0.22,0.5,0.5l0,0c0,0.28-0.22,0.5-0.5,0.5h-51
	C4.22,19,4,18.78,4,18.5L4,18.5z"/>
<rect x="24" y="52" class="st3" width="12" height="10"/>
<rect x="25" y="53" class="st4" width="4.75" height="9"/>
<rect x="30.25" y="53" class="st4" width="4.75" height="9"/>
<rect x="31.32" y="56.1" class="st7" width="0.18" height="2.79"/>
<rect x="28.5" y="56.1" class="st7" width="0.18" height="2.79"/>
<path class="st6" d="M38.46,15.01c0,0.72-0.58,1.3-1.3,1.3H22.85c-0.72,0-1.3-0.58-1.3-1.3V3.3c0-0.72,0.58-1.3,1.3-1.3h14.31
	c0.72,0,1.3,0.58,1.3,1.3V15.01z"/>
<path class="st8" d="M37.15,14.36c0,0.36-0.29,0.65-0.65,0.65H23.5c-0.36,0-0.65-0.29-0.65-0.65V3.95c0-0.36,0.29-0.65,0.65-0.65
	H36.5c0.36,0,0.65,0.29,0.65,0.65V14.36z"/>
<rect x="24.38" y="15.4" class="st6" width="0.85" height="2.6"/>
<rect x="34.78" y="15.4" class="st6" width="0.85" height="2.6"/>
<path class="st9" d="M30,6.61c-1.21-2.02-4.55-1.23-4.55,1.31c0,1.7,1.54,2.84,4.55,5.35c3.01-2.51,4.55-3.65,4.55-5.35
	C34.55,5.38,31.21,4.59,30,6.61z"/>
<rect x="11.25" y="25.5" class="st3" width="6" height="8"/>
<rect x="21.75" y="25.5" class="st3" width="6" height="8"/>
<rect x="32.25" y="25.5" class="st3" width="6" height="8"/>
<rect x="42.75" y="25.5" class="st3" width="6" height="8"/>
<rect x="12.46" y="26" class="st4" width="3.57" height="7"/>
<rect x="22.96" y="26" class="st4" width="3.57" height="7"/>
<rect x="33.46" y="26" class="st4" width="3.57" height="7"/>
<rect x="43.96" y="26" class="st4" width="3.57" height="7"/>
<path class="st5" d="M16.75,33H15.1c0-1.32,0.48-4.17,0.48-4.17s-0.83-2.16-0.83-2.83h2V33z"/>
<path class="st5" d="M11.75,33h1.65c0-1.32-0.48-4.17-0.48-4.17s0.83-2.16,0.83-2.83h-2V33z"/>
<path class="st5" d="M27.25,33H25.6c0-1.32,0.48-4.17,0.48-4.17s-0.83-2.16-0.83-2.83h2V33z"/>
<path class="st5" d="M22.25,33h1.65c0-1.32-0.48-4.17-0.48-4.17s0.83-2.16,0.83-2.83h-2V33z"/>
<path class="st5" d="M37.75,33H36.1c0-1.32,0.48-4.17,0.48-4.17s-0.83-2.16-0.83-2.83h2V33z"/>
<path class="st5" d="M32.75,33h1.65c0-1.32-0.48-4.17-0.48-4.17s0.83-2.16,0.83-2.83h-2V33z"/>
<path class="st5" d="M48.25,33H46.6c0-1.32,0.48-4.17,0.48-4.17s-0.83-2.16-0.83-2.83h2V33z"/>
<path class="st5" d="M43.25,33h1.65c0-1.32-0.48-4.17-0.48-4.17s0.83-2.16,0.83-2.83h-2V33z"/>
<polygon class="st3" points="17.06,28.28 14.5,28.28 14.5,33.29 14,33.29 14,28.28 11.44,28.28 11.44,27.78 17.06,27.78 "/>
<polygon class="st3" points="27.56,28.28 25,28.28 25,33.29 24.5,33.29 24.5,28.28 21.94,28.28 21.94,27.78 27.56,27.78 "/>
<polygon class="st3" points="38.06,28.28 35.5,28.28 35.5,33.29 35,33.29 35,28.28 32.44,28.28 32.44,27.78 38.06,27.78 "/>
<polygon class="st3" points="48.56,28.28 46,28.28 46,33.29 45.5,33.29 45.5,28.28 42.94,28.28 42.94,27.78 48.56,27.78 "/>
<rect x="6" y="53.5" class="st9" width="3" height="1"/>
<rect x="13" y="52.4" class="st9" width="3" height="1"/>
<rect x="15" y="57.05" class="st9" width="3" height="1"/>
<rect x="18.17" y="50" class="st9" width="3" height="1"/>
<rect x="36" y="54.31" class="st9" width="3" height="1"/>
<rect x="42.94" y="52.4" class="st9" width="3" height="1"/>
<rect x="45.75" y="55.9" class="st9" width="3" height="1"/>
<rect x="40" y="59" class="st9" width="3" height="1"/>
<rect x="51" y="60" class="st9" width="3" height="1"/>
<rect x="50.5" y="52.4" class="st9" width="3" height="1"/>
<rect x="8.75" y="59.37" class="st9" width="3" height="1"/>
<linearGradient id="SVGID_1_" gradientUnits="userSpaceOnUse" x1="30" y1="56" x2="30" y2="52">
	<stop  offset="0" style="stop-color:#302C3B;stop-opacity:0"/>
	<stop  offset="0.9" style="stop-color:#302C3B;stop-opacity:0.54"/>
	<stop  offset="1" style="stop-color:#302C3B;stop-opacity:0.6"/>
</linearGradient>
<rect x="23" y="52" class="st10" width="14" height="4"/>
<linearGradient id="SVGID_2_" gradientUnits="userSpaceOnUse" x1="30.0006" y1="52.8662" x2="30.0006" y2="49">
	<stop  offset="0" style="stop-color:#E6256A"/>
	<stop  offset="0.0683" style="stop-color:#E93173"/>
	<stop  offset="0.3482" style="stop-color:#F65B93"/>
	<stop  offset="0.4909" style="stop-color:#FB6CA0"/>
</linearGradient>
<path class="st11" d="M36.54,49H23.46c0,0-1.51,2.79-0.56,3.57c0.17,0.14,0.36,0.29,0.73,0.29c0.37,0,0.56-0.16,0.73-0.29
	c0.16-0.13,0.28-0.23,0.54-0.23c0.26,0,0.39,0.1,0.54,0.23c0.17,0.14,0.36,0.29,0.73,0.29c0.37,0,0.56-0.16,0.73-0.29
	c0.16-0.13,0.28-0.23,0.54-0.23c0.26,0,0.39,0.1,0.54,0.23c0.17,0.14,0.36,0.29,0.73,0.29c0.37,0,0.56-0.16,0.73-0.29
	c0.16-0.13,0.28-0.23,0.54-0.23c0.26,0,0.39,0.1,0.54,0.23c0.17,0.14,0.36,0.29,0.73,0.29c0.37,0,0.56-0.16,0.73-0.29
	c0.16-0.13,0.28-0.23,0.54-0.23c0.26,0,0.39,0.1,0.54,0.23c0.17,0.14,0.36,0.29,0.73,0.29c0.37,0,0.56-0.16,0.73-0.29
	c0.16-0.13,0.28-0.23,0.54-0.23c0.27,0,0.4,0.11,0.55,0.23c0.17,0.14,0.36,0.29,0.73,0.29c0.37,0,0.57-0.16,0.73-0.29
	C38.06,51.79,36.54,49,36.54,49z"/>
<path class="st2" d="M23.46,49c-0.39,0.82-0.73,1.68-0.79,2.56c-0.03,0.43,0.06,0.89,0.51,1.11c0.19,0.11,0.44,0.13,0.66,0.08
	c0.22-0.05,0.37-0.21,0.58-0.37c0.25-0.17,0.6-0.19,0.88-0.04c0.26,0.16,0.38,0.33,0.6,0.38c0.2,0.06,0.46,0.04,0.64-0.05
	c0.2-0.08,0.32-0.31,0.65-0.41c0.3-0.1,0.68,0.02,0.86,0.2c0.19,0.16,0.35,0.27,0.58,0.28c0.24,0.02,0.42-0.03,0.6-0.17
	c0.15-0.13,0.42-0.38,0.78-0.35c0.12,0,0.34,0.05,0.45,0.13c0.12,0.08,0.21,0.17,0.3,0.23c0.17,0.13,0.37,0.18,0.61,0.16
	c0.21-0.02,0.38-0.13,0.57-0.29c0.19-0.19,0.58-0.28,0.87-0.18c0.32,0.11,0.44,0.33,0.64,0.41c0.17,0.09,0.46,0.1,0.64,0.04
	c0.21-0.06,0.34-0.23,0.6-0.38c0.28-0.14,0.64-0.11,0.88,0.06c0.22,0.16,0.36,0.32,0.59,0.36c0.23,0.04,0.48,0.03,0.66-0.08
	c0.45-0.23,0.54-0.67,0.51-1.1c-0.06-0.88-0.4-1.74-0.79-2.56c0.44,0.81,0.83,1.65,0.95,2.55c0.02,0.23,0.02,0.46-0.06,0.69
	c-0.07,0.24-0.28,0.43-0.5,0.57c-0.24,0.15-0.56,0.18-0.84,0.13c-0.3-0.06-0.51-0.26-0.68-0.39c-0.16-0.12-0.42-0.12-0.58-0.03
	c-0.17,0.09-0.35,0.32-0.64,0.41c-0.31,0.09-0.59,0.08-0.88-0.05c-0.27-0.13-0.42-0.34-0.6-0.39c-0.21-0.05-0.4-0.02-0.56,0.13
	c-0.17,0.15-0.43,0.34-0.76,0.37c-0.27,0.03-0.63-0.05-0.84-0.22c-0.23-0.17-0.34-0.3-0.56-0.29c-0.2-0.01-0.33,0.1-0.55,0.28
	c-0.2,0.17-0.56,0.27-0.84,0.23c-0.31-0.01-0.59-0.2-0.76-0.35c-0.17-0.16-0.35-0.2-0.56-0.15c-0.18,0.04-0.33,0.25-0.59,0.38
	c-0.27,0.13-0.59,0.15-0.88,0.06c-0.3-0.08-0.48-0.31-0.65-0.41c-0.16-0.09-0.42-0.09-0.58,0.02c-0.17,0.12-0.38,0.33-0.68,0.39
	c-0.28,0.06-0.6,0.03-0.84-0.12c-0.23-0.14-0.42-0.33-0.5-0.57c-0.08-0.23-0.08-0.46-0.06-0.69C22.63,50.65,23.02,49.81,23.46,49z"
	/>
<polygon class="st7" points="57.65,25.68 56.35,25.68 56.35,24.55 55.75,24.55 55.75,27.35 56.35,27.35 56.35,26.17 57.65,26.17 
	57.65,27.35 58.25,27.35 58.25,24.55 57.65,24.55 "/>
<path class="st7" d="M57.71,29c-0.2-0.11-0.43-0.17-0.71-0.17s-0.51,0.06-0.71,0.17c-0.2,0.11-0.35,0.28-0.46,0.49
	c-0.11,0.21-0.16,0.46-0.16,0.74c0,0.29,0.05,0.53,0.16,0.74c0.11,0.21,0.26,0.37,0.46,0.49c0.2,0.11,0.44,0.17,0.71,0.17
	s0.51-0.06,0.71-0.17c0.2-0.12,0.35-0.28,0.46-0.49c0.11-0.21,0.16-0.46,0.16-0.74c0-0.28-0.05-0.53-0.16-0.74
	C58.06,29.27,57.91,29.11,57.71,29z M57.54,30.92c-0.13,0.16-0.31,0.24-0.54,0.24c-0.23,0-0.41-0.08-0.54-0.24
	c-0.13-0.16-0.2-0.39-0.2-0.7c0-0.31,0.07-0.54,0.2-0.7c0.13-0.16,0.31-0.24,0.54-0.24c0.23,0,0.4,0.08,0.54,0.24
	c0.13,0.16,0.2,0.39,0.2,0.7C57.74,30.53,57.67,30.76,57.54,30.92z"/>
<polygon class="st7" points="55.81,33.6 56.69,33.6 56.69,35.9 57.31,35.9 57.31,33.6 58.19,33.6 58.19,33.1 55.81,33.1 "/>
<polygon class="st7" points="56.03,40.18 57.97,40.18 57.97,39.7 56.64,39.7 56.64,38.99 57.88,38.99 57.88,38.51 56.64,38.51 
	56.64,37.85 57.97,37.85 57.97,37.38 56.03,37.38 "/>
<polygon class="st7" points="56.71,43.95 56.71,41.65 56.1,41.65 56.1,44.45 57.97,44.45 57.97,43.95 "/>
</svg>
