<?xml version="1.0" encoding="utf-8"?>
<!-- Generator: Adobe Illustrator 24.1.2, SVG Export Plug-In . SVG Version: 6.00 Build 0)  -->
<svg version="1.1" id="Layer_1" xmlns="http://www.w3.org/2000/svg" xmlns:xlink="http://www.w3.org/1999/xlink" x="0px" y="0px"
	 width="64px" height="64px" viewBox="0 0 64 64" style="enable-background:new 0 0 64 64;" xml:space="preserve">
<style type="text/css">
	.st0{fill:#66CCFF;}
	.st1{fill:#FF9FB1;}
	.st2{fill:#FCFCFC;}
	.st3{opacity:0.1;fill:url(#SVGID_1_);}
</style>
<path class="st0" d="M8,14h48C50.53,6.71,41.81,2,32,2S13.47,6.71,8,14z"/>
<path class="st1" d="M2.6,26h58.8c-0.9-4.43-2.78-8.51-5.4-12H8C5.38,17.49,3.5,21.57,2.6,26z"/>
<path class="st2" d="M2,32c0,2.05,0.21,4.06,0.6,6h58.8c0.39-1.94,0.6-3.95,0.6-6s-0.21-4.06-0.6-6H2.6C2.21,27.94,2,29.95,2,32z"/>
<path class="st1" d="M8,50h48c2.62-3.49,4.5-7.57,5.4-12H2.6C3.5,42.43,5.38,46.51,8,50z"/>
<path class="st0" d="M56,50H8c5.47,7.29,14.19,12,24,12S50.53,57.29,56,50z"/>
<linearGradient id="SVGID_1_" gradientUnits="userSpaceOnUse" x1="32" y1="62" x2="32" y2="2">
	<stop  offset="0" style="stop-color:#1A1A1A"/>
	<stop  offset="0.102" style="stop-color:#393939;stop-opacity:0.949"/>
	<stop  offset="0.3475" style="stop-color:#7F7F7F;stop-opacity:0.8262"/>
	<stop  offset="0.5688" style="stop-color:#B6B6B6;stop-opacity:0.7156"/>
	<stop  offset="0.7582" style="stop-color:#DEDEDE;stop-opacity:0.6209"/>
	<stop  offset="0.9081" style="stop-color:#F6F6F6;stop-opacity:0.5459"/>
	<stop  offset="1" style="stop-color:#FFFFFF;stop-opacity:0.5"/>
</linearGradient>
<circle class="st3" cx="32" cy="32" r="30"/>
</svg>
