<?xml version="1.0" encoding="utf-8"?>
<!-- Generator: Adobe Illustrator 15.0.0, SVG Export Plug-In . SVG Version: 6.00 Build 0)  -->
<!DOCTYPE svg PUBLIC "-//W3C//DTD SVG 1.1//EN" "http://www.w3.org/Graphics/SVG/1.1/DTD/svg11.dtd" [
	<!ENTITY ns_flows "http://ns.adobe.com/Flows/1.0/">
	<!ENTITY ns_extend "http://ns.adobe.com/Extensibility/1.0/">
	<!ENTITY ns_ai "http://ns.adobe.com/AdobeIllustrator/10.0/">
	<!ENTITY ns_graphs "http://ns.adobe.com/Graphs/1.0/">
]>
<svg version="1.1" id="Layer_1" xmlns:x="&ns_extend;" xmlns:i="&ns_ai;" xmlns:graph="&ns_graphs;"
	 xmlns="http://www.w3.org/2000/svg" xmlns:xlink="http://www.w3.org/1999/xlink" xmlns:a="http://ns.adobe.com/AdobeSVGViewerExtensions/3.0/"
	 x="0px" y="0px" width="64px" height="64px" viewBox="0 0 64 64" enable-background="new 0 0 64 64" xml:space="preserve">
<path fill="#323C43" d="M42.114,37.184c6.336,5.441,6.856,10.043,8.873,13.662c0.375,0.67-0.046,6.797-1.553,7.951
	c0,0,1.109,2.27,2.219,1.264c0.286-0.262,1.33-1.73,1.583-2.574c0.531-1.754-0.041-2.838,0.629-4.436
	c0.35-0.84,1.33-3.352,1.006-4.191c-2.981-7.691-1.105-8.803,0.131-11.578C55.541,36.076,29.505,26.304,42.114,37.184z"/>
<path fill="#302C3B" d="M49.435,58.797c-0.565,1.086-2.844,2.172-2.021,2.172c0.691,0,3.848,0,3.848,0s0.788-0.064,0.554-1.086
	C50.627,59.48,49.435,58.797,49.435,58.797z"/>
<path fill="#323C43" d="M25.488,51.105c1.338-1.967-2.124-5.688,1.971-14.471c6.167-13.264-8.469-15.826-9.192-2.588
	C18,38.906,22.496,44.859,21.955,50.104c-0.265,2.564,0.521,5.529-0.938,8.611c0.051,0.063,1.244,1.863,2.469,1.168
	C24.776,56.574,24.009,53.273,25.488,51.105z"/>
<path fill="#302C3B" d="M21.016,58.715c-0.565,1.086-2.755,2.254-1.934,2.254c0.692,0,3.847,0,3.847,0s0.789-0.064,0.556-1.086
	C22.296,59.48,21.016,58.715,21.016,58.715z"/>
<path fill="#4E5E67" d="M56.541,20.91c3.365,1.348,5.536,6.621,5.961,8.453c1.042,4.493,0.362,13.127,0.975,18.262
	c0.043,0.381-1.396-0.199-1.449-0.574c-0.671-4.561,0.6-11.033-0.836-16.453C59.439,23.988,52.932,19.468,56.541,20.91z"/>
<path fill="#283036" d="M62.813,53.6c-0.111-5.262-1.138-5.656-0.399-10.031C62.799,47.152,63.503,48.037,62.813,53.6z"/>
<path fill="#283036" d="M62.116,51.422c0-6.311-1.027-5.965-0.287-10.1C61.83,45.814,62.86,44.689,62.116,51.422z"/>
<path fill="#283036" d="M62.824,40.76c-1.033,3.9,0.793,7.18,0.349,11.588C64.258,47.473,62.596,44.545,62.824,40.76z"/>
<path fill="#283036" d="M62.627,42.143c2.347,5.729,0.975,10.205,0.975,10.205S63.76,48.166,62.627,42.143z"/>
<linearGradient id="SVGID_1_" gradientUnits="userSpaceOnUse" x1="37.2168" y1="47.5791" x2="37.2168" y2="25.4686">
	<stop  offset="0" style="stop-color:#283036"/>
	<stop  offset="0.1274" style="stop-color:#39444C"/>
	<stop  offset="0.267" style="stop-color:#45535B"/>
	<stop  offset="0.4285" style="stop-color:#4C5B64"/>
	<stop  offset="0.6606" style="stop-color:#4E5E67"/>
	<a:midPointStop  offset="0" style="stop-color:#283036"/>
	<a:midPointStop  offset="0.2242" style="stop-color:#283036"/>
	<a:midPointStop  offset="0.6606" style="stop-color:#4E5E67"/>
</linearGradient>
<path fill="url(#SVGID_1_)" d="M13.925,31.313c0.452,3.75,4.331,6.113,5.028,8.175c4.051,11.955,12.209,7.045,14.507,6.918
	c3.328-0.205,3.085,4.221,16.211-2.898c3.543-1.92,5.845,1.713,8.595-1.494c4.292-4.998,4.565-15.786,0.901-19.28
	c-7.914-7.547-7.846-3.716-20.007-2.222c-8.395,1.028-6.561-1.553-12.333-0.686c-2.432,0.365-6.468,2.7-12.902,1.601
	C11.381,20.995,13.594,28.532,13.925,31.313z"/>
<path fill="#4E5E67" d="M47.624,38.213c6.335,5.443,6.856,10.043,8.873,13.66c0.374,0.672-0.047,6.799-1.555,7.951
	c0,0,1.109,2.271,2.219,1.264c0.288-0.262,1.331-1.73,1.584-2.572c0.531-1.754-0.04-2.838,0.629-4.436
	c0.349-0.838,1.33-3.352,1.005-4.191c-2.981-7.691-0.373-8.604,0.133-11.578C65.721,7.598,35.015,27.332,47.624,38.213z"/>
<path fill="#302C3B" d="M54.942,59.824C54.378,60.912,52.1,62,52.922,62c0.69,0,3.847,0,3.847,0s0.789-0.066,0.555-1.088
	C56.136,60.51,54.942,59.824,54.942,59.824z"/>
<path fill="#4E5E67" d="M31.12,51.66c0.833-2.201-3.429-5.084-1.539-14.518c2.836-14.239-12.033-13.607-9.574-0.555
	c0.903,4.787,6.706,9.629,7.433,14.854c0.354,2.551,2.965,5.223,1.504,8.303c0.052,0.064,1.244,1.863,2.469,1.168
	C32.703,57.604,30.198,54.086,31.12,51.66z"/>
<path fill="#302C3B" d="M28.943,59.744C28.377,60.826,26.188,62,27.011,62c0.69,0,3.846,0,3.846,0s0.788-0.066,0.555-1.088
	C30.223,60.51,28.943,59.744,28.943,59.744z"/>
<linearGradient id="SVGID_2_" gradientUnits="userSpaceOnUse" x1="9.9248" y1="36.1641" x2="12.6109" y2="19.1878">
	<stop  offset="0" style="stop-color:#283036"/>
	<stop  offset="0.1274" style="stop-color:#39444C"/>
	<stop  offset="0.267" style="stop-color:#45535B"/>
	<stop  offset="0.4285" style="stop-color:#4C5B64"/>
	<stop  offset="0.6606" style="stop-color:#4E5E67"/>
	<a:midPointStop  offset="0" style="stop-color:#283036"/>
	<a:midPointStop  offset="0.2242" style="stop-color:#283036"/>
	<a:midPointStop  offset="0.6606" style="stop-color:#4E5E67"/>
</linearGradient>
<path fill="url(#SVGID_2_)" d="M8.238,32.58c0.997,1.5,2.866,1.891,3.832,1.992c0.438,0.049,0.529-0.008,0.311-0.273
	c-0.318-0.389-0.607-0.947-0.723-1.695C11.511,31.673,7.81,31.937,8.238,32.58z"/>
<linearGradient id="SVGID_3_" gradientUnits="userSpaceOnUse" x1="12.0098" y1="36.5088" x2="14.6934" y2="19.5485">
	<stop  offset="0" style="stop-color:#283036"/>
	<stop  offset="0.1274" style="stop-color:#39444C"/>
	<stop  offset="0.267" style="stop-color:#45535B"/>
	<stop  offset="0.4285" style="stop-color:#4C5B64"/>
	<stop  offset="0.6606" style="stop-color:#4E5E67"/>
	<a:midPointStop  offset="0" style="stop-color:#283036"/>
	<a:midPointStop  offset="0.2242" style="stop-color:#283036"/>
	<a:midPointStop  offset="0.6606" style="stop-color:#4E5E67"/>
</linearGradient>
<path fill="url(#SVGID_3_)" d="M10.307,32.67c1.128,1.434,3.027,1.707,4.001,1.746c0.44,0.021,0.527-0.041,0.287-0.291
	c-0.352-0.365-0.689-0.908-0.872-1.645C13.497,31.565,9.826,32.055,10.307,32.67z"/>
<linearGradient id="SVGID_4_" gradientUnits="userSpaceOnUse" x1="13.6602" y1="36.7832" x2="16.3425" y2="19.831">
	<stop  offset="0" style="stop-color:#283036"/>
	<stop  offset="0.1274" style="stop-color:#39444C"/>
	<stop  offset="0.267" style="stop-color:#45535B"/>
	<stop  offset="0.4285" style="stop-color:#4C5B64"/>
	<stop  offset="0.6606" style="stop-color:#4E5E67"/>
	<a:midPointStop  offset="0" style="stop-color:#283036"/>
	<a:midPointStop  offset="0.2242" style="stop-color:#283036"/>
	<a:midPointStop  offset="0.6606" style="stop-color:#4E5E67"/>
</linearGradient>
<path fill="url(#SVGID_4_)" d="M12.076,32.195c1.127,1.436,3.027,1.709,4.001,1.746c0.44,0.023,0.528-0.039,0.286-0.289
	c-0.352-0.367-0.688-0.908-0.872-1.646C15.264,31.093,11.594,31.582,12.076,32.195z"/>
<linearGradient id="SVGID_5_" gradientUnits="userSpaceOnUse" x1="14.1572" y1="36.8662" x2="16.8384" y2="19.921">
	<stop  offset="0" style="stop-color:#283036"/>
	<stop  offset="0.1274" style="stop-color:#39444C"/>
	<stop  offset="0.267" style="stop-color:#45535B"/>
	<stop  offset="0.4285" style="stop-color:#4C5B64"/>
	<stop  offset="0.6606" style="stop-color:#4E5E67"/>
	<a:midPointStop  offset="0" style="stop-color:#283036"/>
	<a:midPointStop  offset="0.2242" style="stop-color:#283036"/>
	<a:midPointStop  offset="0.6606" style="stop-color:#4E5E67"/>
</linearGradient>
<path fill="url(#SVGID_5_)" d="M12.73,31.288c1.128,1.431,3.027,1.705,4.001,1.744c0.44,0.023,0.528-0.041,0.286-0.289
	c-0.351-0.367-0.688-0.909-0.871-1.644C15.919,30.182,12.249,30.671,12.73,31.288z"/>
<linearGradient id="SVGID_6_" gradientUnits="userSpaceOnUse" x1="13.9883" y1="36.8457" x2="16.6713" y2="19.8892">
	<stop  offset="0" style="stop-color:#283036"/>
	<stop  offset="0.1274" style="stop-color:#39444C"/>
	<stop  offset="0.267" style="stop-color:#45535B"/>
	<stop  offset="0.4285" style="stop-color:#4C5B64"/>
	<stop  offset="0.6606" style="stop-color:#4E5E67"/>
	<a:midPointStop  offset="0" style="stop-color:#283036"/>
	<a:midPointStop  offset="0.2242" style="stop-color:#283036"/>
	<a:midPointStop  offset="0.6606" style="stop-color:#4E5E67"/>
</linearGradient>
<path fill="url(#SVGID_6_)" d="M12.761,30.006c1.127,1.434,3.026,1.707,4.001,1.745c0.44,0.023,0.526-0.04,0.286-0.291
	c-0.352-0.365-0.688-0.907-0.872-1.644C15.95,28.902,12.28,29.391,12.761,30.006z"/>
<linearGradient id="SVGID_7_" gradientUnits="userSpaceOnUse" x1="14.3984" y1="36.9141" x2="17.0802" y2="19.9656">
	<stop  offset="0" style="stop-color:#283036"/>
	<stop  offset="0.1274" style="stop-color:#39444C"/>
	<stop  offset="0.267" style="stop-color:#45535B"/>
	<stop  offset="0.4285" style="stop-color:#4C5B64"/>
	<stop  offset="0.6606" style="stop-color:#4E5E67"/>
	<a:midPointStop  offset="0" style="stop-color:#283036"/>
	<a:midPointStop  offset="0.2242" style="stop-color:#283036"/>
	<a:midPointStop  offset="0.6606" style="stop-color:#4E5E67"/>
</linearGradient>
<path fill="url(#SVGID_7_)" d="M13.322,29.124c1.128,1.43,3.027,1.705,4.001,1.745c0.441,0.021,0.527-0.042,0.287-0.29
	c-0.353-0.368-0.688-0.909-0.872-1.645C16.511,28.017,12.84,28.506,13.322,29.124z"/>
<linearGradient id="SVGID_8_" gradientUnits="userSpaceOnUse" x1="7.6597" y1="35.7949" x2="10.3534" y2="18.7708">
	<stop  offset="0" style="stop-color:#283036"/>
	<stop  offset="0.1274" style="stop-color:#39444C"/>
	<stop  offset="0.267" style="stop-color:#45535B"/>
	<stop  offset="0.4285" style="stop-color:#4C5B64"/>
	<stop  offset="0.6606" style="stop-color:#4E5E67"/>
	<a:midPointStop  offset="0" style="stop-color:#283036"/>
	<a:midPointStop  offset="0.2242" style="stop-color:#283036"/>
	<a:midPointStop  offset="0.6606" style="stop-color:#4E5E67"/>
</linearGradient>
<path fill="url(#SVGID_8_)" d="M6.011,32.188c0.892,1.605,2.724,2.201,3.679,2.404c0.432,0.096,0.527,0.047,0.327-0.238
	c-0.291-0.422-0.538-1.012-0.606-1.771C9.329,31.64,5.63,31.499,6.011,32.188z"/>
<path fill="#ABB9C2" d="M17.534,15.262c-0.367-1.319-1.294-1.841-0.988-0.396c0.598,2.818-2.121,5.327-4.268,5.427l0.769,3.795
	C16.205,23.389,19.013,20.552,17.534,15.262z"/>
<linearGradient id="SVGID_9_" gradientUnits="userSpaceOnUse" x1="7.6138" y1="35.7217" x2="10.2782" y2="18.8827">
	<stop  offset="0" style="stop-color:#283036"/>
	<stop  offset="0.1274" style="stop-color:#39444C"/>
	<stop  offset="0.267" style="stop-color:#45535B"/>
	<stop  offset="0.4285" style="stop-color:#4C5B64"/>
	<stop  offset="0.6606" style="stop-color:#4E5E67"/>
	<a:midPointStop  offset="0" style="stop-color:#283036"/>
	<a:midPointStop  offset="0.2242" style="stop-color:#283036"/>
	<a:midPointStop  offset="0.6606" style="stop-color:#4E5E67"/>
</linearGradient>
<path fill="url(#SVGID_9_)" d="M13.034,19.248c-2.268-0.196-4.78,1.253-5.574,2.169c-0.457,0.529-1.37,2.522-1.549,2.693
	c-1.718,1.63-5.001,5.456-5.347,6.036c-0.423,0.71,0.003,0.709-0.238,1.766c-0.159,0.717,0.468,1.362,0.983,1.383
	c0.013,1.379,3.366,1.602,4.005,0.66c2.145,0.395,4.984-0.699,7.958-0.506c5.199,0.332,2.191-6.823,4.031-10.031
	C17.958,22.277,15.299,19.441,13.034,19.248z"/>
<path fill="#2C353B" d="M1.375,31.165c-0.077,0.222-0.23,2.148-0.421,2.025c-1.84-1.145-0.492-3.152-0.279-3.208
	C1.029,29.89,1.646,30.395,1.375,31.165z"/>
<path fill="#1A1626" d="M4.09,31.813c0.312,1.537-2.781,1.482-2.781,1.482S3.565,32.848,4.09,31.813z"/>
<path fill="#1A1626" d="M0.939,30.874c0.22-0.046-0.44,1.406-0.597,1.246C0.083,31.851,0.17,31.032,0.939,30.874z"/>
<linearGradient id="SVGID_10_" gradientUnits="userSpaceOnUse" x1="82.5098" y1="8.7271" x2="82.5098" y2="4.1567" gradientTransform="matrix(0.9781 -0.2082 0.2082 0.9781 -66.6848 35.4709)">
	<stop  offset="0" style="stop-color:#283036"/>
	<stop  offset="0.1929" style="stop-color:#39444C"/>
	<stop  offset="0.4041" style="stop-color:#45535B"/>
	<stop  offset="0.6486" style="stop-color:#4C5B64"/>
	<stop  offset="1" style="stop-color:#4E5E67"/>
	<a:midPointStop  offset="0" style="stop-color:#283036"/>
	<a:midPointStop  offset="0.2242" style="stop-color:#283036"/>
	<a:midPointStop  offset="1" style="stop-color:#4E5E67"/>
</linearGradient>
<path fill="url(#SVGID_10_)" d="M11.75,24.257c3.339,4.493,7.778,1.421,7.3,1.068c-0.748-0.557-2.63-2.231-4.898-2.806
	C13.902,22.466,11.371,23.845,11.75,24.257z"/>
<path fill="#283036" d="M13.781,25.453c2.126,2.202,5.031,0.235,4.595-0.075C15.439,23.281,13.39,25.057,13.781,25.453z"/>
<radialGradient id="SVGID_11_" cx="79.6865" cy="16.0083" r="5.9767" gradientTransform="matrix(0.9781 -0.2186 0.2082 1.0269 -66.6848 19.7792)" gradientUnits="userSpaceOnUse">
	<stop  offset="0.5394" style="stop-color:#D9E2E8"/>
	<stop  offset="0.8788" style="stop-color:#ABB9C2"/>
	<a:midPointStop  offset="0.5394" style="stop-color:#D9E2E8"/>
	<a:midPointStop  offset="0.5" style="stop-color:#D9E2E8"/>
	<a:midPointStop  offset="0.8788" style="stop-color:#ABB9C2"/>
</radialGradient>
<path fill="url(#SVGID_11_)" d="M12.897,20.169c1.498,3.042,7.16-0.32,6.324-4.266c-0.306-1.445,0.621-0.924,0.988,0.396
	c2.729,9.766-9.146,11.185-10.87,6.187C8.498,20.051,12.345,19.047,12.897,20.169z"/>
<path fill="#ABB9C2" d="M9.822,22.228c-0.309-0.423,0.569-2.014,2.417-1.683C10.085,20.812,10.241,22.81,9.822,22.228z"/>
<path fill="#ABB9C2" d="M10.714,23.192c-0.39-0.34,0.129-2.097,2.001-2.205C10.671,21.75,11.246,23.661,10.714,23.192z"/>
<path fill="#ABB9C2" d="M11.926,23.725c-0.41-0.255-0.172-1.957,1.541-2.347C11.686,22.399,12.485,24.078,11.926,23.725z"/>
<path fill="#ABB9C2" d="M13.436,24.052c-0.409-0.135-0.559-1.661,0.843-2.369C12.949,22.955,13.99,24.235,13.436,24.052z"/>
<path fill="#ABB9C2" d="M15.029,23.913c-0.394-0.018-0.875-1.345,0.217-2.326C14.346,23.052,15.567,23.937,15.029,23.913z"/>
<path fill="#ABB9C2" d="M16.474,23.57c-0.37,0.062-1.042-1.104-0.186-2.246C15.691,22.889,16.984,23.49,16.474,23.57z"/>
<path fill="#ABB9C2" d="M17.792,22.864c-0.35,0.108-1.201-0.802-0.574-1.919C16.913,22.391,18.266,22.718,17.792,22.864z"/>
<path fill="#ABB9C2" d="M18.553,21.916c-0.278,0.088-0.965-0.647-0.461-1.545C17.848,21.536,18.937,21.796,18.553,21.916z"/>
<path fill="#1A1626" d="M8.204,24.85c-0.764,0-1.062,0.649-0.996,1.158c0.05,0.375,1.943,0.375,1.992,0
	C9.269,25.458,8.901,24.85,8.204,24.85z"/>
<path fill="#FFFFFF" d="M8.204,25.031c-0.55,0-0.996,0.411-0.996,0.92c0,0.438,0.446,0.922,0.996,0.922S9.2,26.312,9.2,25.951
	C9.2,25.442,8.753,25.031,8.204,25.031z"/>
<ellipse fill="#1A1626" cx="8.108" cy="25.942" rx="0.743" ry="0.731"/>
<path fill="#FFFFFF" d="M8.049,25.576c0,0.266-0.405,0.266-0.405,0C7.644,25.309,8.049,25.309,8.049,25.576z"/>
<path fill="#302C3B" d="M8.928,24.547c0.462-0.063-1.218-0.558-1.554-0.01C7.179,24.857,7.926,24.685,8.928,24.547z"/>
</svg>
