<?xml version="1.0" encoding="utf-8"?>
<!-- Generator: Adobe Illustrator 15.0.0, SVG Export Plug-In . SVG Version: 6.00 Build 0)  -->
<!DOCTYPE svg PUBLIC "-//W3C//DTD SVG 1.1//EN" "http://www.w3.org/Graphics/SVG/1.1/DTD/svg11.dtd" [
	<!ENTITY ns_flows "http://ns.adobe.com/Flows/1.0/">
	<!ENTITY ns_extend "http://ns.adobe.com/Extensibility/1.0/">
	<!ENTITY ns_ai "http://ns.adobe.com/AdobeIllustrator/10.0/">
	<!ENTITY ns_graphs "http://ns.adobe.com/Graphs/1.0/">
]>
<svg version="1.1" id="Layer_1" xmlns:x="&ns_extend;" xmlns:i="&ns_ai;" xmlns:graph="&ns_graphs;"
	 xmlns="http://www.w3.org/2000/svg" xmlns:xlink="http://www.w3.org/1999/xlink" xmlns:a="http://ns.adobe.com/AdobeSVGViewerExtensions/3.0/"
	 x="0px" y="0px" width="64px" height="64px" viewBox="0 0 64 64" enable-background="new 0 0 64 64" xml:space="preserve">
<path fill="#B5BDC2" d="M28.246,50.98c1.49-1.859-2.359-5.379,2.195-13.686c6.863-12.548-9.423-14.969-10.229-2.451
	c-0.297,4.596,4.706,10.229,4.104,15.189c-0.293,2.426,0.58,5.23-1.044,8.145c0.057,0.059,1.383,1.762,2.747,1.104
	C27.455,56.154,26.604,53.031,28.246,50.98z"/>
<path fill="#302C3B" d="M23.272,58.178c-0.63,1.025-1.718,2.131-0.804,2.131c0.771,0,2.932,0,2.932,0s0.881-0.061,0.619-1.027
	C24.697,58.902,23.272,58.178,23.272,58.178z"/>
<linearGradient id="SVGID_1_" gradientUnits="userSpaceOnUse" x1="59.8604" y1="39.8633" x2="59.8604" y2="25.2305">
	<stop  offset="0" style="stop-color:#B5BDC2"/>
	<stop  offset="0.2134" style="stop-color:#BEC7CC"/>
	<stop  offset="0.6196" style="stop-color:#CBD4D9"/>
	<stop  offset="1" style="stop-color:#CFD8DD"/>
	<a:midPointStop  offset="0" style="stop-color:#B5BDC2"/>
	<a:midPointStop  offset="0.3066" style="stop-color:#B5BDC2"/>
	<a:midPointStop  offset="1" style="stop-color:#CFD8DD"/>
</linearGradient>
<path fill="url(#SVGID_1_)" d="M61.281,39.273c1.279-2.887,1.189-11.634-3.098-14.043C56.49,32.262,59.887,42.422,61.281,39.273z"/>
<path fill="#CFD8DD" d="M50.001,21.713c1.632-1.405,3.668-1.165,4.675-0.917c0.462,0.11,0.528,0.213,0.197,0.44
	c-0.477,0.339-1.002,0.9-1.432,1.738C52.903,24.022,49.305,22.317,50.001,21.713z"/>
<path fill="#CFD8DD" d="M46.219,21.497c1.437-0.217,3.604-1.031,4.641-0.991c0.475,0.016,0.561,0.104,0.282,0.393
	c-0.399,0.428-0.801,1.083-1.054,1.99C49.771,24.022,45.309,21.634,46.219,21.497z"/>
<path fill="#CFD8DD" d="M53.025,22.133c1.793-1.143,3.758-0.6,4.718-0.207c0.436,0.175,0.489,0.289,0.133,0.463
	c-0.517,0.263-1.106,0.736-1.644,1.5C55.563,24.844,52.257,22.625,53.025,22.133z"/>
<path fill="#CFD8DD" d="M56.063,23.01c1.957-0.539,3.418,0.507,4.08,1.136c0.301,0.283,0.305,0.401-0.064,0.464
	c-0.539,0.092-1.218,0.358-1.969,0.905C57.182,26.196,55.225,23.244,56.063,23.01z"/>
<path fill="#BFC7CC" d="M26.573,42.219c0.161,2.363,1.833,3.758,2.758,4.346c0.419,0.271,0.544,0.244,0.47-0.191
	c-0.102-0.633-0.073-1.479,0.229-2.465C30.405,42.674,26.504,41.207,26.573,42.219z"/>
<path fill="#BFC7CC" d="M23.662,41.201c0.16,2.363,1.833,3.758,2.757,4.348c0.42,0.271,0.544,0.242,0.471-0.191
	c-0.103-0.635-0.074-1.479,0.228-2.467C27.494,41.658,23.593,40.191,23.662,41.201z"/>
<path fill="#BFC7CC" d="M28.662,43.865c0.762,2.191,2.73,3.018,3.773,3.311c0.471,0.137,0.588,0.068,0.402-0.318
	c-0.262-0.574-0.451-1.381-0.412-2.408C32.472,43.17,28.335,42.922,28.662,43.865z"/>
<path fill="#BCC4C9" d="M31.919,44.691c0.73,2.088,2.504,2.721,3.438,2.904c0.422,0.088,0.523,0.014,0.352-0.354
	c-0.246-0.541-0.434-1.314-0.426-2.338C35.295,43.639,31.609,43.795,31.919,44.691z"/>
<path fill="#BCC4C9" d="M34.377,44.691c0.732,2.088,2.504,2.721,3.438,2.904c0.424,0.088,0.523,0.014,0.354-0.354
	c-0.248-0.541-0.436-1.314-0.428-2.338C37.754,43.639,34.066,43.795,34.377,44.691z"/>
<path fill="#CFD8DD" d="M58.156,24.556c1.811,0.138,2.727,1.461,3.092,2.191c0.168,0.331,0.135,0.431-0.195,0.371
	c-0.482-0.085-1.135-0.066-1.934,0.168C58.129,27.58,57.379,24.499,58.156,24.556z"/>
<path fill="#CFD8DD" d="M58.156,26.119c1.811,0.138,2.727,1.461,3.092,2.191c0.168,0.331,0.135,0.431-0.195,0.371
	c-0.482-0.085-1.135-0.066-1.934,0.168C58.129,29.142,57.379,26.061,58.156,26.119z"/>
<path fill="#B5BDC2" d="M41.531,39.24c7.667,4.818,7.327,7.17,9.769,10.373c0.453,0.594,0.161,6.885-0.911,8.768
	c0,0,1.342,2.012,2.684,1.121c0.352-0.23,0.734-2.334,1.494-2.975c0.612-0.516-0.168-4.682,0.643-6.098
	c0.422-0.742,0.896-1.193,0.504-1.936c-3.611-6.813-2.559-6.807-1.947-9.443c1.175-5.08-0.102-11.094-1.303-13.33
	C49.486,20.179,29.121,31.402,41.531,39.24z"/>
<path fill="#302C3B" d="M50.389,58.381c-0.682,0.965-1.611,1.928-0.615,1.928c0.834,0,2.827,0,2.827,0s0.954-0.059,0.669-0.963
	C51.834,58.99,50.389,58.381,50.389,58.381z"/>
<linearGradient id="SVGID_2_" gradientUnits="userSpaceOnUse" x1="35.5801" y1="46.9951" x2="35.5801" y2="16.9072">
	<stop  offset="0" style="stop-color:#B5BDC2"/>
	<stop  offset="0.0944" style="stop-color:#BEC7CC"/>
	<stop  offset="0.2741" style="stop-color:#CBD4D9"/>
	<stop  offset="0.4424" style="stop-color:#CFD8DD"/>
	<a:midPointStop  offset="0" style="stop-color:#B5BDC2"/>
	<a:midPointStop  offset="0.3066" style="stop-color:#B5BDC2"/>
	<a:midPointStop  offset="0.4424" style="stop-color:#CFD8DD"/>
</linearGradient>
<path fill="url(#SVGID_2_)" d="M48.018,21.227c-17.391,2.566-14.402-1.242-21.733-0.932c-1.639,0.067-5.318-0.954-7.131-2.879
	c-2.67-2.829-11.227,6.933-8.176,9.177c7.707,5.674,2.377,18.432,12.707,16.411c6.023-1.18,18.245,10.545,32.192-1.477
	c6.84-5.896,5.322-10.802,2.973-15.596C56.918,21.986,51.322,20.74,48.018,21.227z"/>
<path fill="#CFD8DD" d="M25.456,52.672c1.558-1.859-2.467-5.379,2.292-13.686c7.17-12.547-9.844-14.969-10.686-2.451
	c-0.311,4.598,4.916,10.229,4.287,15.189c-0.307,2.426,0.605,5.23-1.091,8.145c0.06,0.061,1.444,1.762,2.87,1.104
	C24.627,57.846,23.74,54.723,25.456,52.672z"/>
<path fill="#302C3B" d="M20.258,59.869C19.601,60.895,18.464,62,19.417,62c0.807,0,3.064,0,3.064,0s0.92-0.059,0.646-1.027
	C21.747,60.594,20.258,59.869,20.258,59.869z"/>
<path fill="#CFD8DD" d="M47.475,40.932c7.563,4.818,7.257,6.854,9.665,10.057c0.446,0.594,0.129,7.201-0.928,9.084
	c0,0,1.323,2.012,2.647,1.123c0.346-0.232,0.723-2.336,1.473-2.975c0.604-0.518-0.165-4.684,0.634-6.1
	c0.417-0.742,0.884-1.191,0.495-1.936c-3.561-6.813-2.523-6.807-1.918-9.443c1.158-5.08-0.101-11.094-1.285-13.33
	C55.32,21.871,35.234,33.094,47.475,40.932z"/>
<path fill="#302C3B" d="M56.212,60.072C55.539,61.037,54.623,62,55.604,62c0.824,0,2.789,0,2.789,0s0.941-0.057,0.66-0.963
	C57.637,60.682,56.212,60.072,56.212,60.072z"/>
<path fill="#8F6F51" d="M8.871,15.272c0.639-6.203,5.078-8.042,8.238-2.092c3.545,6.675-0.523,6.462-2.158,3.956
	c-1.193-1.832-2.309,0.521-2.285,2.165C12.695,21.106,8.693,16.995,8.871,15.272z"/>
<linearGradient id="SVGID_3_" gradientUnits="userSpaceOnUse" x1="52.7383" y1="7.4609" x2="56.338" y2="-1.845" gradientTransform="matrix(0.9896 -0.1441 0.1441 0.9896 -43.4347 28.4473)">
	<stop  offset="0" style="stop-color:#B5BDC2"/>
	<stop  offset="0.0944" style="stop-color:#BEC7CC"/>
	<stop  offset="0.2741" style="stop-color:#CBD4D9"/>
	<stop  offset="0.4424" style="stop-color:#CFD8DD"/>
	<a:midPointStop  offset="0" style="stop-color:#B5BDC2"/>
	<a:midPointStop  offset="0.3066" style="stop-color:#B5BDC2"/>
	<a:midPointStop  offset="0.4424" style="stop-color:#CFD8DD"/>
</linearGradient>
<path fill="url(#SVGID_3_)" d="M7.076,18.775c1.137-1.27,1.152-4.278,3.934-4.94c9.15-2.181,10.676,14.582,3.635,16.253
	c-1.621,0.383-4.443-1.361-7.328-1.178c-0.684,0.043-2.246,0.902-3.086-0.737c-1.633,0.556-0.807-0.768-1.947-2.086
	C1.527,25.213,5.457,20.584,7.076,18.775z"/>
<path fill="#302C3B" d="M4.49,28.615c-0.172-0.243-0.26-0.442-0.26-0.442s3.553-0.421,4.604-2.342
	C8.316,28.06,4.49,28.615,4.49,28.615z"/>
<path fill="#606366" d="M9.41,18.46c-1.086,0.158-1.377,1.132-1.182,1.83c0.148,0.517,2.844,0.126,2.836-0.411
	C11.048,19.095,10.4,18.318,9.41,18.46z"/>
<path fill="#FFFFFF" d="M9.447,18.718c-0.783,0.113-1.334,0.779-1.23,1.491c0.09,0.618,0.824,1.2,1.607,1.088
	c0.781-0.114,1.301-0.992,1.229-1.499C10.949,19.087,10.228,18.605,9.447,18.718z"/>
<path fill="#1A1626" d="M9.347,18.989c0.584-0.086,1.127,0.304,1.209,0.868c0.082,0.567-0.326,1.094-0.91,1.18
	c-0.58,0.084-1.121-0.305-1.205-0.872C8.359,19.6,8.765,19.072,9.347,18.989z"/>
<path fill="#FFFFFF" d="M9.337,19.512c0.057,0.372-0.521,0.455-0.574,0.083C8.707,19.222,9.285,19.138,9.337,19.512z"/>
<path fill="#606366" d="M10.38,17.891c0.643-0.183-1.85-0.529-2.213,0.309C7.953,18.687,8.98,18.29,10.38,17.891z"/>
<path fill="#B5BDC2" d="M3.503,25.218c-0.473,0.56-0.25,2.407-0.475,2.271c-1.955-1.21-0.633-3.417-0.031-3.553
	C3.406,23.843,4.068,24.545,3.503,25.218z"/>
<path fill="#302C3B" d="M3.06,25.208c0.242-0.096-0.162,1.495-0.377,1.367C2.32,26.365,2.222,25.532,3.06,25.208z"/>
<path fill="#AD8762" d="M10.435,14.35c1.992-6.4,10.561-8.837,15.73-3.179c5.799,6.349-1.58,16.476-7.375,12.565
	c4.961-0.743,5.564-5.917,2.82-8.263c-2.012-1.712-4.406,0.826-4.572,2.496C16.863,19.808,9.88,16.127,10.435,14.35z"/>
<path fill="#83664A" d="M12.017,16.604c2.041-6.551,14.301-8.248,16.189,0.309c0.619,2.809-4.094,10.225-9.416,6.824
	c6.529-0.151,6.832-6.03,3.135-8.313c-2.273-1.398-4.557,0.805-4.723,2.475C17.025,19.737,13.103,17.686,12.017,16.604z"/>
<path fill="#83664A" d="M11.337,13.248c0.496,1.775,2.475,2.991,3.262,2.985C13.474,14.034,12.449,13.43,11.337,13.248z"/>
<path fill="#83664A" d="M13.019,11.117c0.494,1.776,2.473,2.99,3.26,2.986C15.154,11.903,14.13,11.299,13.019,11.117z"/>
<path fill="#83664A" d="M15.599,9.273c0.166,1.833,1.893,3.35,2.664,3.471C17.558,10.39,16.66,9.631,15.599,9.273z"/>
<path fill="#83664A" d="M19.027,8.378c-0.449,1.799,0.682,3.755,1.369,4.094C20.507,10.016,19.912,9.029,19.027,8.378z"/>
<path fill="#83664A" d="M22.162,8.912c-0.91,1.646-0.338,3.813,0.238,4.303C23.158,10.851,22.841,9.752,22.162,8.912z"/>
<path fill="#83664A" d="M24.691,10.202c-1.18,1.491-0.984,3.721-0.504,4.297C25.337,12.273,25.214,11.135,24.691,10.202z"/>
<path fill="#83664A" d="M26.509,12.171c-1.178,1.494-0.982,3.724-0.502,4.297C27.16,14.242,27.037,13.107,26.509,12.171z"/>
<path fill="#CFD8DD" d="M14.968,20.387c5.209-0.745,5.383-5.807,4.666-5.756c-1.082,0.076-3.986,1.031-6.732,3.298
	C12.662,18.129,14.316,20.48,14.968,20.387z"/>
<path fill="#8C9296" d="M15.474,19.759c3.57-0.577,4.217-4.709,3.605-4.495C14.955,16.701,14.824,19.864,15.474,19.759z"/>
</svg>
