<?xml version="1.0" encoding="utf-8"?>
<!-- Generator: Adobe Illustrator 15.0.0, SVG Export Plug-In . SVG Version: 6.00 Build 0)  -->
<!DOCTYPE svg PUBLIC "-//W3C//DTD SVG 1.1//EN" "http://www.w3.org/Graphics/SVG/1.1/DTD/svg11.dtd" [
	<!ENTITY ns_flows "http://ns.adobe.com/Flows/1.0/">
	<!ENTITY ns_extend "http://ns.adobe.com/Extensibility/1.0/">
	<!ENTITY ns_ai "http://ns.adobe.com/AdobeIllustrator/10.0/">
	<!ENTITY ns_graphs "http://ns.adobe.com/Graphs/1.0/">
]>
<svg version="1.1" id="Layer_1" xmlns:x="&ns_extend;" xmlns:i="&ns_ai;" xmlns:graph="&ns_graphs;"
	 xmlns="http://www.w3.org/2000/svg" xmlns:xlink="http://www.w3.org/1999/xlink" xmlns:a="http://ns.adobe.com/AdobeSVGViewerExtensions/3.0/"
	 x="0px" y="0px" width="64px" height="64px" viewBox="0 0 64 64" enable-background="new 0 0 64 64" xml:space="preserve">
<path fill="#F9C802" d="M50.223,22.976c5.382-0.377,7.653-5.574,7.777-9.029c0.146-4.097-1.219-6.288-4.619-7.921
	c-4.429-2.126-10.03-0.16-15.771,5.55c-1.693,1.681-3.766-0.646-2.074-2.329c9.029-8.976,15.844-7.696,19.099-6.13
	c4.488,2.153,7.55,6.737,7.357,12.097c-0.169,4.745-4.308,9.289-4.37,14.019L50.223,22.976z"/>
<path fill-rule="evenodd" clip-rule="evenodd" fill="#F9B302" d="M11.983,35.685c0.294,3.761-0.405,7.685-0.472,10.081
	c-0.026,0.951-2.729,5.532-5.794,9.906c-1.298-0.275-4.047,0.367-2.883,2.57c0.368,0.697,3.791,0.598,4.178-0.027
	c0.918-1.487,7.992-7.406,8.484-8.512c0.922-2.065,2.363-5.636,5.764-5.355C26.27,44.761,11.504,29.578,11.983,35.685z"/>
<path fill-rule="evenodd" clip-rule="evenodd" fill="#F59E01" d="M3.95,56.26c-1.46,0.619-0.618,2.285-0.618,2.285l0.436,0.102
	C3.767,58.646,2.94,56.926,3.95,56.26z"/>
<path fill-rule="evenodd" clip-rule="evenodd" fill="#F9B302" d="M37.454,31.788c-0.063,4.59,2.512,10.877,8.1,16.714
	c1.383,1.441-0.141,5.58-1.177,6.961c-1.343-0.277-3.922,0.519-2.757,2.722c0.367,0.696,4.512,0.719,4.939,0.076
	c1.829-2.747,5.18-9.221,4.426-10.3c-5.213-7.459,7.063-8.244,6.75-19.153C57.59,23.771,37.538,25.656,37.454,31.788z"/>
<path fill-rule="evenodd" clip-rule="evenodd" fill="#F59E01" d="M42.805,56.113c-1.765,0.634-0.68,2.376-0.68,2.376l0.498,0.116
	C42.623,58.605,41.605,57.238,42.805,56.113z"/>
<linearGradient id="SVGID_1_" gradientUnits="userSpaceOnUse" x1="29.9995" y1="41.7705" x2="29.9995" y2="31.7532">
	<stop  offset="0" style="stop-color:#F9B302"/>
	<stop  offset="0.1008" style="stop-color:#F9B702"/>
	<stop  offset="0.4964" style="stop-color:#F9C402"/>
	<stop  offset="0.8788" style="stop-color:#F9C802"/>
	<a:midPointStop  offset="0" style="stop-color:#F9B302"/>
	<a:midPointStop  offset="0.3" style="stop-color:#F9B302"/>
	<a:midPointStop  offset="0.8788" style="stop-color:#F9C802"/>
</linearGradient>
<path fill="url(#SVGID_1_)" d="M2.903,25.111c0.21,0.853,1.299,1.312,1.299,1.312c0.56,1.696,2.387,0.932,2.93,0.803
	c0.544-0.126,2.109-0.482,3.015,0.021c1.298,0.722,1.972,8.147,2.98,10.97c2.879,8.054,13.056,5.72,14.476,5.163
	c8.518-3.339,24.99,6.555,30.053-11.204c0.99-3.474-0.501-10.276-15.571-10.276c-10.673,0-13.669,3.056-17.523,2.404
	c-5.854-0.989-4.479-9.477-13.536-9.855c-5.305,1.466-8.122,4.323-7.828,6.816C3.302,22.161,0.9,24.633,2.903,25.111z"/>
<path fill-rule="evenodd" clip-rule="evenodd" fill="#F46C60" d="M2.2,23.717c0,0,0.547,0.696,0.977,0.425
	c0.094,0.712-0.273,0.97-0.273,0.97C2.297,25.234,1.669,24.419,2.2,23.717z"/>
<path fill="#734003" d="M4.314,26.697c-0.33-0.203-0.396-0.422-0.396-0.422s2.073,0.347,3.167-0.724
	C6.319,26.836,4.314,26.697,4.314,26.697z"/>
<path fill="#D47706" d="M5.261,24.285c4.805-0.781,5.834,0.143,5.806,0.339C11.058,24.688,8.958,24.029,5.261,24.285z"/>
<path fill="#D47706" d="M5.091,24.954c5.891-0.028,6.958,1.29,6.888,1.521C11.958,26.55,9.564,25.353,5.091,24.954z"/>
<path fill-rule="evenodd" clip-rule="evenodd" fill="#F9C802" d="M5.515,12.004c0.401-0.566,4.332,0.103,6.389,2.513
	c0,0-1.382,6.281-5.117,2.996C5.947,16.724,5.19,12.463,5.515,12.004z"/>
<linearGradient id="SVGID_2_" gradientUnits="userSpaceOnUse" x1="7.1992" y1="17.9531" x2="7.1992" y2="12.1064">
	<stop  offset="0" style="stop-color:#D47706"/>
	<stop  offset="0.2342" style="stop-color:#C26D05"/>
	<stop  offset="0.701" style="stop-color:#945304"/>
	<stop  offset="1" style="stop-color:#734003"/>
	<a:midPointStop  offset="0" style="stop-color:#D47706"/>
	<a:midPointStop  offset="0.5515" style="stop-color:#D47706"/>
	<a:midPointStop  offset="1" style="stop-color:#734003"/>
</linearGradient>
<path fill-rule="evenodd" clip-rule="evenodd" fill="url(#SVGID_2_)" d="M5.515,12.106c0,0,3.086,1.993,3.368,5.846
	c0,0-1.49,0.047-1.893-0.456C5.657,15.832,5.515,12.106,5.515,12.106z"/>
<linearGradient id="SVGID_3_" gradientUnits="userSpaceOnUse" x1="28.6802" y1="44.4697" x2="28.6802" y2="29.4897">
	<stop  offset="0" style="stop-color:#CCC6C0"/>
	<stop  offset="0.0459" style="stop-color:#D1CECA"/>
	<stop  offset="0.1537" style="stop-color:#DBDBDB"/>
	<stop  offset="0.2881" style="stop-color:#E1E4E6"/>
	<stop  offset="0.4766" style="stop-color:#E5EAED"/>
	<stop  offset="1" style="stop-color:#E6EBEF"/>
	<a:midPointStop  offset="0" style="stop-color:#CCC6C0"/>
	<a:midPointStop  offset="0.13" style="stop-color:#CCC6C0"/>
	<a:midPointStop  offset="1" style="stop-color:#E6EBEF"/>
</linearGradient>
<path fill="url(#SVGID_3_)" d="M45.002,41.614c-5.188,2.377-9.602-2.154-17.539-0.077c-15.83,4.144-13.748-5.91-16.268-12.048
	c0.996,7.773-0.642,18.129,16.813,14.067c8.194-1.907,12.376,1.663,18.156-0.201L45.002,41.614z"/>
<path fill-rule="evenodd" clip-rule="evenodd" fill="#F9C802" d="M40.604,39.472c1.898,4.169,8.441,9.375,11.562,11.333
	c1.195,0.75,0.258,5.958-0.162,7.689c-1.649-0.345-3.963,0.815-2.799,3.017c0.368,0.696,4.657,0.573,5.156-0.127
	c1.979-2.778,2.698-11.261,1.959-12.35c-7.085-10.435,3.311-11.03,1.364-20.728C56.691,23.364,33.7,24.307,40.604,39.472z"/>
<path fill-rule="evenodd" clip-rule="evenodd" fill="#F9A702" d="M50.423,59.127c-1.764,0.636-0.764,2.66-0.764,2.66l0.544,0.121
	C50.203,61.908,49.225,60.254,50.423,59.127z"/>
<path fill-rule="evenodd" clip-rule="evenodd" fill="#F9C802" d="M12.897,36.185c0.43,2.867,3.271,6.436,7.478,9.524
	c0.694,0.51,3.567,8.262,3.86,8.924c0.286,0.646,0.191,3.003,0.248,4.093c-0.983,0.02-3.281,0.71-2.281,2.631
	c0.362,0.696,5.439,1.077,5.422-0.186c-0.021-1.478,0.945-5.16,0.713-6.247c-0.405-1.905,0.64-10.175-0.328-11.367
	c-2.081-2.564-2.197-6.727-3.002-9.322C22.034,24.663,10.797,22.155,12.897,36.185z"/>
<path fill-rule="evenodd" clip-rule="evenodd" fill="#F9A702" d="M23.473,59.36c-1.837,0.524-0.743,2.31-0.743,2.31l0.5,0.132
	C23.23,61.802,22.098,60.155,23.473,59.36z"/>
<path fill="#F59E01" d="M30.382,27.55c0,0,0.335,5.804-2.686,9.107c1.36-4.25,0.133-8.417,0.133-8.417s-0.178,2.317-1.092,3.388
	c0,0,0.521-4.303-0.771-7.241c0,0,1.375-0.051,4.582-0.984c1.587,2.056,1.046,6.989,1.046,6.989
	C31.244,29.246,30.382,27.55,30.382,27.55z"/>
<path fill="#F59E01" d="M48.453,24.285c0,0,0.389,4.919-2.632,8.223c1.36-4.25,0.776-6.623,0.776-6.623s-0.434,1.357-1.256,2.65
	c0,0-0.091-4.445-0.586-6.558c0,0,2.481,0,4.592,0.604c0.535,1.998-0.173,4.081-0.173,4.081
	C48.99,24.916,48.453,24.285,48.453,24.285z"/>
<path fill="#F59E01" d="M21.627,24.469c0,0,0.318,4.542-2.994,7.854c1.36-4.25,1.139-6.254,1.139-6.254s-0.806,0.795-2.076,1.414
	c0,0,2.769-3.501,2.309-6.77c1.399,2.107,2.675,2.903,2.675,2.903c0.535,1.998-0.581,3.888-0.581,3.888
	C22.238,25.552,21.627,24.469,21.627,24.469z"/>
<path fill="#F59E01" d="M57.896,22.623c-1.154-0.932-2.622-0.646-2.622-0.646s0.565,1.88,0.362,3.221c0,0-1.789-2.767-2.89-2.818
	c0,0,2.184-0.973,3.744-3.391C57.523,20.587,57.896,22.623,57.896,22.623z"/>
<path fill="#F59E01" d="M60.258,11.515c-1.406,1.262-1.516,2.066-1.516,2.066s1.065,0.825,1.859,1.547c0,0-2.38,0.225-2.918,0.958
	c0,0,0.402-1.793,0.251-4.126C58.773,11.341,60.258,11.515,60.258,11.515z"/>
<path fill="#F59E01" d="M55.883,4.65c0,0-0.422,1.862,0.553,3.59c0,0-1.127-1.195-2.739-2.059
	C53.696,6.182,54.008,4.888,55.883,4.65z"/>
<path fill="#F59E01" d="M48.195,2.899c0,0,0.891,1.315,1.781,2.296c0,0-1.523-0.018-2.903,0.337
	C47.073,5.532,47.852,4.367,48.195,2.899z"/>
<path fill="#F59E01" d="M39.924,6.37c0,0,1.756-0.126,2.832,1.06c0,0-1.416,1.008-2.661,1.899
	C40.095,9.329,40.852,8.027,39.924,6.37z"/>
<path fill="#F59E01" d="M39.904,30.678c0,0-0.318,2.948-2.489,5.885c1.36-4.25,0.983-8.19,0.983-8.19s-0.094,2.02-1.203,3.36
	c0,0,0.208-5.227-2.289-9.291c0,0,2.576-0.563,4.764-0.487c2.233,5.066,0.807,9.983,0.807,9.983
	C40.196,31.159,39.904,30.678,39.904,30.678z"/>
<path fill="#F59E01" d="M16.966,19.696c0,0-1.369,0.831-3.84,0.387c2.513-0.58,3.864-2.236,3.864-2.236s-0.865,0.652-2.063,0.371
	c0,0,1.396-0.818,1.534-1.97c0,0,1.333,0.877,2.431,2.746c-0.722,1.304-2.09,1.543-2.09,1.543
	C16.949,20.067,16.966,19.696,16.966,19.696z"/>
<path fill="#734003" d="M5.343,20.197c-0.855,0-1.189,0.737-1.114,1.311c0.056,0.43,2.17,0.43,2.226,0
	C6.533,20.887,6.12,20.197,5.343,20.197z"/>
<path fill="#FFFFFF" d="M5.343,20.4c-0.616,0-1.114,0.467-1.114,1.043c0,0.497,0.498,1.042,1.114,1.042
	c0.613,0,1.111-0.634,1.111-1.042C6.455,20.867,5.957,20.4,5.343,20.4z"/>
<path fill="#1A1626" d="M5.235,20.603c0.459,0,0.831,0.372,0.831,0.833c0,0.455-0.372,0.828-0.831,0.828s-0.831-0.373-0.831-0.828
	C4.404,20.975,4.776,20.603,5.235,20.603z"/>
<path fill="#FFFFFF" d="M5.167,21.018c0,0.303-0.451,0.303-0.451,0C4.716,20.717,5.167,20.717,5.167,21.018z"/>
</svg>
