<?xml version="1.0" encoding="utf-8"?>
<!-- Generator: Adobe Illustrator 15.0.0, SVG Export Plug-In . SVG Version: 6.00 Build 0)  -->
<!DOCTYPE svg PUBLIC "-//W3C//DTD SVG 1.1//EN" "http://www.w3.org/Graphics/SVG/1.1/DTD/svg11.dtd" [
	<!ENTITY ns_flows "http://ns.adobe.com/Flows/1.0/">
	<!ENTITY ns_extend "http://ns.adobe.com/Extensibility/1.0/">
	<!ENTITY ns_ai "http://ns.adobe.com/AdobeIllustrator/10.0/">
	<!ENTITY ns_graphs "http://ns.adobe.com/Graphs/1.0/">
]>
<svg version="1.1" id="Layer_1" xmlns:x="&ns_extend;" xmlns:i="&ns_ai;" xmlns:graph="&ns_graphs;"
	 xmlns="http://www.w3.org/2000/svg" xmlns:xlink="http://www.w3.org/1999/xlink" xmlns:a="http://ns.adobe.com/AdobeSVGViewerExtensions/3.0/"
	 x="0px" y="0px" width="64px" height="64px" viewBox="0 0 64 64" enable-background="new 0 0 64 64" xml:space="preserve">
<path fill="#72BD00" d="M15.414,41.141c-0.445-4.381-2.383-2.229-6.91-0.837C5.313,41.28,15.751,44.454,15.414,41.141z"/>
<path fill="#1A1626" d="M15.799,43.419c4.526-1.388,2.802-7.524-1.726-6.134C10.883,38.263,12.608,44.399,15.799,43.419z"/>
<path fill="#72BD00" d="M19.022,52.059c-0.873-4.453-2.546-2.167-6.819-0.536C9.192,52.665,19.684,55.429,19.022,52.059z"/>
<path fill="#1A1626" d="M20.123,53.918c4.024-2.162,1.042-8.06-2.98-5.894C14.304,49.549,17.287,55.444,20.123,53.918z"/>
<path fill="#72BD00" d="M37.011,57.73c-4.274-0.584-2.916,0.945-3.168,3.817C33.664,63.57,40.243,58.173,37.011,57.73z"/>
<path fill="#1A1626" d="M38.521,58.118c0.31-4.717-6.049-5.293-6.358-0.574C31.943,60.867,38.303,61.441,38.521,58.118z"/>
<path fill="#72BD00" d="M25.325,56.225c-4.171-1.146-3.004,0.553-3.594,3.369C21.315,61.577,28.48,57.092,25.325,56.225z"/>
<path fill="#1A1626" d="M27.455,56.354c0.862-4.639-5.378-6.054-6.24-1.413C20.603,58.208,26.845,59.622,27.455,56.354z"/>
<path fill="#72BD00" d="M48.079,57.73c-4.273-0.584-2.916,0.945-3.168,3.817C44.731,63.57,51.312,58.173,48.079,57.73z"/>
<path fill="#1A1626" d="M49.59,58.118c0.309-4.717-6.049-5.293-6.358-0.574C43.011,60.867,49.371,61.441,49.59,58.118z"/>
<path fill="#72BD00" d="M58.677,57.73c-4.273-0.584-2.915,0.945-3.167,3.817C55.33,63.57,61.91,58.173,58.677,57.73z"/>
<path fill="#1A1626" d="M60.188,58.118c0.309-4.717-6.05-5.293-6.358-0.574C53.609,60.867,59.97,61.441,60.188,58.118z"/>
<path fill="#1A1626" d="M4.822,8.715c-2.68,0.792,2.854,0.983,4.954,2.53C11.476,12.498,9.304,7.39,4.822,8.715z"/>
<path fill="#1A1626" d="M16.069,8.222c-4.482-1.325-6.654,3.783-4.955,2.53C13.214,9.208,18.75,9.015,16.069,8.222z"/>
<radialGradient id="SVGID_1_" cx="45.0791" cy="44.459" r="24.9478" gradientTransform="matrix(0.7071 -0.7493 0.705 0.7471 -18.1399 32.3954)" gradientUnits="userSpaceOnUse">
	<stop  offset="0" style="stop-color:#98F000"/>
	<stop  offset="0.431" style="stop-color:#96EE00"/>
	<stop  offset="0.6429" style="stop-color:#91E600"/>
	<stop  offset="0.807" style="stop-color:#87D900"/>
	<stop  offset="0.9457" style="stop-color:#79C700"/>
	<stop  offset="1" style="stop-color:#72BD00"/>
	<a:midPointStop  offset="0" style="stop-color:#98F000"/>
	<a:midPointStop  offset="0.8303" style="stop-color:#98F000"/>
	<a:midPointStop  offset="1" style="stop-color:#72BD00"/>
</radialGradient>
<path fill="url(#SVGID_1_)" d="M41.67,43.652c-0.713,0.181-1.16,0.359-1.885,0.399c-0.755-0.769-2.862-0.596-3.688,0.128
	c-2.033,0.448-2.178-0.323-2.178-0.323c0.112-0.834-1.296-1.9-2.21-1.838c0,0-0.994-0.444-0.141-1.259
	c2.254-1.671,0.148-7.249-1.141-8.702c0,0-1.222,0.255,0-2.712c2.063-2.534,1.394-10.34-1.513-10.42c0,0-0.912,0.1-1.233-1.508
	c0.228-1.858-4.147-6.903-6.924-5.686c0,0,0.801,7.369-11.203,13.494c9.216,0.047,4.111,4.718,7.226,7.13
	c-4.126,3.482-3.991,10.527,1.064,13.261c-2.866,6.849,3.868,13,11.256,11.701c0,0,5.723,3.418,12.115,0.325
	c0,0,4.383,2.784,10.894,0.162c16.64,4.717,15.325-19.272-0.875-14.668C48.893,42.739,45.203,41.368,41.67,43.652z"/>
<radialGradient id="SVGID_2_" cx="7.8643" cy="25.521" r="13.6661" gradientTransform="matrix(1 0 0 1.0597 0 -15.2807)" gradientUnits="userSpaceOnUse">
	<stop  offset="0" style="stop-color:#98F000"/>
	<stop  offset="0.431" style="stop-color:#96EE00"/>
	<stop  offset="0.6429" style="stop-color:#91E600"/>
	<stop  offset="0.807" style="stop-color:#87D900"/>
	<stop  offset="0.9457" style="stop-color:#79C700"/>
	<stop  offset="1" style="stop-color:#72BD00"/>
	<a:midPointStop  offset="0" style="stop-color:#98F000"/>
	<a:midPointStop  offset="0.8303" style="stop-color:#98F000"/>
	<a:midPointStop  offset="1" style="stop-color:#72BD00"/>
</radialGradient>
<path fill="url(#SVGID_2_)" d="M20.758,11.732C19.163,9.733,12.541,9.74,8.53,10.361c-10.545,1.63-8.701,11-7.827,12.641
	c-0.556,2.895,7.176,2.004,8.505,0.207c-0.397,2.462-5.533,2.323-5.679,2.819c-0.479,1.641,2.798,1.286,4.574,1.066
	C20.5,25.563,21.402,15.538,20.758,11.732z"/>
<path fill="#1A1626" d="M30.428,29.345c0,0-3.149,3.275-11.651,3.618c4.951,1.558,11.651-0.905,11.651-0.905
	C30.09,30.893,30.428,29.345,30.428,29.345z"/>
<path fill="#1A1626" d="M27.682,17.417c0,0-1.586,4.106-8.245,7.379c7.004-1.933,9.479-5.871,9.479-5.871
	S28.333,18.892,27.682,17.417z"/>
<path fill="#1A1626" d="M19.527,10.871c0,0,1.917,4.339-1.858,11.012c4.471-5.506,4.164-10.334,4.164-10.334
	S20.977,11.191,19.527,10.871z"/>
<path fill="#1A1626" d="M31.569,40.76c0,0-5.473-0.019-10.396,3.52c4.924-1.873,10.537-2.261,10.537-2.261
	S31.234,41.392,31.569,40.76z"/>
<path fill="#1A1626" d="M33.92,43.856c0,0-0.485,2.758-4.663,8.836c4.942-4.395,6.84-8.513,6.84-8.513S35.113,44.29,33.92,43.856z"
	/>
<path fill="#1A1626" d="M41.67,43.652c0,0,5.224,3.897,1.762,11.124c1.544-8.458-3.646-10.725-3.646-10.725
	S40.301,43.959,41.67,43.652z"/>
<path fill="#1A1626" d="M52.735,42.782c0,0,4.836,3.26,1.374,10.487c1.544-8.458-3.356-10.199-3.356-10.199
	S51.346,43.028,52.735,42.782z"/>
<path fill="#1A1626" d="M24.084,12.408c-1.308,1.251-0.581,4.418-1.758,5.281c-5.814,4.269,0.402,7.188,1.588,1.227
	c0.472-2.377,2.137-1.766,2.828-3.876C25.718,13.346,24.084,12.408,24.084,12.408z"/>
<path fill="#1A1626" d="M31.664,34.251c-2.509-0.953-3.774,2.448-5.162,2.074c-6.856-1.843-5.07,6.048-0.05,3.08
	c2.001-1.183,4.999,0.051,6.106-1.408C32.558,36.049,31.664,34.251,31.664,34.251z"/>
<path fill="#1A1626" d="M36.567,43.884c-1.318,2.455,0.645,2.821,0.059,4.206c-2.31,5.455,4.484,5.535,2.854,0.583
	c-0.755-2.292,0.924-3.548-0.242-4.957C37.611,43.186,36.567,43.884,36.567,43.884z"/>
<path fill="#1A1626" d="M45.477,42.391c-1.249,2.495,1.795,3.216,1.248,4.617c-2.157,5.526,5.972,4.58,2.869,0.493
	c-1.819-2.395,0.29-3.511-0.915-4.882C47.094,42.205,45.477,42.391,45.477,42.391z"/>
<path fill="#1A1626" d="M32.374,42.131c-2.306,0.161-3.73,2.997-4.954,3.208c-6.051,1.047-1.715,6.361,1.309,2.164
	c1.204-1.673,4.694-2.586,5.098-4.151C33.435,42.376,32.374,42.131,32.374,42.131z"/>
<path fill="#1A1626" d="M21.68,29.561c1.482,2.882-4.718,2.55-3.475-0.457C18.792,27.679,20.439,27.144,21.68,29.561z"/>
<path fill="#1A1626" d="M21.143,38.749c1.481,2.886-4.72,2.552-3.477-0.456C18.254,36.871,19.901,36.333,21.143,38.749z"/>
<path fill="#1A1626" d="M24.713,49.937c1.221,2.378-3.887,2.103-2.863-0.375C22.334,48.389,23.691,47.946,24.713,49.937z"/>
<path fill="#1A1626" d="M39.546,54.644c1.221,2.377-3.889,2.103-2.864-0.376C37.166,53.096,38.522,52.653,39.546,54.644z"/>
<path fill="#1A1626" d="M51.262,53.134c1.221,2.376-3.888,2.103-2.864-0.377C48.881,51.585,50.238,51.143,51.262,53.134z"/>
<path fill="#1A1626" d="M30.982,20.903c-2.666-0.037-3.262,3.612-4.688,3.738c-7.051,0.619-2.941,7.464,0.896,2.929
	c1.53-1.807,3.831-1.064,4.431-2.825C31.817,22.739,30.982,20.903,30.982,20.903z"/>
<path fill="#FFA400" d="M26.501,24.367c-1.102,2.882,3.112,3.936,1.881,1.345C27.564,23.994,26.842,23.479,26.501,24.367z"/>
<path fill="#FFA400" d="M26.732,36.223c-2.039,2.237,1.5,4.884,1.27,1.993C27.849,36.299,27.361,35.534,26.732,36.223z"/>
<path fill="#FFA400" d="M19.214,39.09c-2.746,1.558,1.57,2.942,1.479,1.149C20.63,39.052,20.061,38.61,19.214,39.09z"/>
<path fill="#FFA400" d="M19.692,29.914c-2.745,1.555,1.571,2.94,1.479,1.148C21.109,29.873,20.54,29.432,19.692,29.914z"/>
<path fill="#FFA400" d="M23.148,50.073c-2.544,1.441,1.455,2.724,1.37,1.064C24.46,50.036,23.932,49.628,23.148,50.073z"/>
<path fill="#FFA400" d="M38.721,54.011c-2.121,1.394,1.271,2.747,1.173,1.088C39.827,53.998,39.375,53.582,38.721,54.011z"/>
<path fill="#FFA400" d="M50.409,52.426c-2.228,1.406,1.318,2.74,1.223,1.082C51.567,52.408,51.097,51.993,50.409,52.426z"/>
<path fill="#FFA400" d="M27.762,44.766c-0.758,3.005,3.547,3.497,2.023,1.089C28.773,44.257,27.997,43.84,27.762,44.766z"/>
<path fill="#FFA400" d="M36.459,48.101c1.947,2.327,4.71-1.206,1.973-1.188C36.615,46.925,35.858,47.38,36.459,48.101z"/>
<path fill="#FFA400" d="M46.587,46.811c1.788,2.465,4.778-0.854,2.046-1.039C46.82,45.649,46.035,46.049,46.587,46.811z"/>
<path fill="#1A1626" d="M55.622,42.525c-0.604,2.751,2.402,2.744,1.945,4.181c-1.801,5.668,5.713,3.963,2.357,0.108
	c-1.969-2.26-0.565-2.625-1.389-3.779C57.154,42.454,55.622,42.525,55.622,42.525z"/>
<path fill="#1A1626" d="M60.826,53.137c1.221,2.376-3.889,2.101-2.864-0.376C58.445,51.588,59.802,51.145,60.826,53.137z"/>
<path fill="#FFA400" d="M59.973,52.429c-2.227,1.406,1.319,2.74,1.223,1.082C61.131,52.411,60.661,51.997,59.973,52.429z"/>
<path fill="#FFA400" d="M57.2,46.582c1.798,2.123,4.314-1.135,1.802-1.102C57.338,45.502,56.646,45.926,57.2,46.582z"/>
<path fill="#FFA400" d="M22.577,17.2c0.015,2.74,3.27,0.719,1.691-0.29C23.221,16.242,22.571,16.353,22.577,17.2z"/>
<path fill="#1A1626" d="M7.229,15.324c-2.281,0-3.173,1.931-2.974,3.438c0.149,1.119,5.802,1.119,5.947,0
	C10.416,17.13,9.311,15.324,7.229,15.324z"/>
<path fill="#FFFFFF" d="M7.229,15.86c-1.644,0-2.974,1.224-2.974,2.731c0,1.303,1.33,2.731,2.974,2.731s2.974-1.665,2.974-2.731
	C10.203,17.083,8.873,15.86,7.229,15.86z"/>
<ellipse fill="#1A1626" cx="6.944" cy="18.563" rx="2.22" ry="2.175"/>
<path fill="#FFFFFF" d="M6.767,17.477c0,0.79-1.212,0.79-1.212,0C5.555,16.685,6.767,16.685,6.767,17.477z"/>
</svg>
