<?xml version="1.0" encoding="utf-8"?>
<!-- Generator: Adobe Illustrator 15.0.0, SVG Export Plug-In . SVG Version: 6.00 Build 0)  -->
<!DOCTYPE svg PUBLIC "-//W3C//DTD SVG 1.1//EN" "http://www.w3.org/Graphics/SVG/1.1/DTD/svg11.dtd" [
	<!ENTITY ns_flows "http://ns.adobe.com/Flows/1.0/">
	<!ENTITY ns_extend "http://ns.adobe.com/Extensibility/1.0/">
	<!ENTITY ns_ai "http://ns.adobe.com/AdobeIllustrator/10.0/">
	<!ENTITY ns_graphs "http://ns.adobe.com/Graphs/1.0/">
]>
<svg version="1.1" id="Layer_1" xmlns:x="&ns_extend;" xmlns:i="&ns_ai;" xmlns:graph="&ns_graphs;"
	 xmlns="http://www.w3.org/2000/svg" xmlns:xlink="http://www.w3.org/1999/xlink" xmlns:a="http://ns.adobe.com/AdobeSVGViewerExtensions/3.0/"
	 x="0px" y="0px" width="64px" height="64px" viewBox="0 0 64 64" enable-background="new 0 0 64 64" xml:space="preserve">
<path fill="#C21413" d="M25.563,36.886C13.888,48.96,20.879,57.47,24.792,54.986C32.719,45.431,31.914,30.316,25.563,36.886z"/>
<radialGradient id="SVGID_1_" cx="58.2021" cy="47.2568" r="18.9025" gradientTransform="matrix(1.0848 0 0 1.5934 -28.532 -32.9222)" gradientUnits="userSpaceOnUse">
	<stop  offset="0" style="stop-color:#ECF1F5"/>
	<stop  offset="0.5015" style="stop-color:#EAEFF3"/>
	<stop  offset="0.748" style="stop-color:#E2E9ED"/>
	<stop  offset="0.9384" style="stop-color:#D5DDE2"/>
	<stop  offset="1" style="stop-color:#CFD8DD"/>
	<a:midPointStop  offset="0" style="stop-color:#ECF1F5"/>
	<a:midPointStop  offset="0.8303" style="stop-color:#ECF1F5"/>
	<a:midPointStop  offset="1" style="stop-color:#CFD8DD"/>
</radialGradient>
<path fill="url(#SVGID_1_)" d="M46.215,19.108c10.509,6.941,12.292,24.626,9.768,39.614c-0.264,1.567-1.05,1.753-2.153,1.091
	c-1.858-1.111-3.015-2.516-3.015-2.516s-0.961,1.889-1.281,2.52c-0.618,1.207-1.199,1.125-1.999,0.34
	c-0.61-0.598-2.443-2.391-2.443-2.391s-1.16,2.111-1.547,2.816c-0.747,1.365-1.39,1.104-2.093,0.359
	c-0.592-0.623-2.362-2.496-2.362-2.496s-1.272,2.07-1.698,2.76c-0.623,1.014-1.387,1.047-2.107,0.156
	c-0.562-0.694-2.243-2.779-2.243-2.779s-2.308,1.998-3.076,2.664c-0.909,0.786-1.76,0.816-2.189-0.254
	c-0.24-0.599-0.963-2.395-0.963-2.395s-1.292,0.686-3.313,1.017c-1.191,0.198-1.764-0.489-1.268-1.819
	c1.647-4.42,4.009-12.675-1.771-14.356c-2.526-0.734,2.714-6.417,1.622-9.18C17.325,15.002,42.553,10.427,46.215,19.108z"/>
<linearGradient id="SVGID_2_" gradientUnits="userSpaceOnUse" x1="-118.2803" y1="36.8047" x2="-112.2462" y2="15.4392" gradientTransform="matrix(0.9938 -0.1117 0.1117 0.9938 141.7294 6.8839)">
	<stop  offset="0" style="stop-color:#F5000D"/>
	<stop  offset="0.4471" style="stop-color:#E1080F"/>
	<stop  offset="1" style="stop-color:#C21413"/>
	<a:midPointStop  offset="0" style="stop-color:#F5000D"/>
	<a:midPointStop  offset="0.5455" style="stop-color:#F5000D"/>
	<a:midPointStop  offset="1" style="stop-color:#C21413"/>
</linearGradient>
<path fill="url(#SVGID_2_)" d="M23.556,51.6c2.151,9.396,17.431,6.147,11.958-10.428c-1.639-4.964-3.032-6.312-3.032-6.312
	l-9.117,8.54C25.388,44.915,22.433,46.68,23.556,51.6z"/>
<path fill="#D47706" d="M8.027,44.338c8.976-2.03,22.3,3.478,24.868-8.195C22.25,28.383,8.504,40.454,8.027,44.338z"/>
<linearGradient id="SVGID_3_" gradientUnits="userSpaceOnUse" x1="7" y1="36.7139" x2="32.895" y2="36.7139">
	<stop  offset="0" style="stop-color:#FFC800"/>
	<stop  offset="0.3537" style="stop-color:#FAB201"/>
	<stop  offset="0.7076" style="stop-color:#F6A301"/>
	<stop  offset="1" style="stop-color:#F59E01"/>
	<a:midPointStop  offset="0" style="stop-color:#FFC800"/>
	<a:midPointStop  offset="0.3333" style="stop-color:#FFC800"/>
	<a:midPointStop  offset="1" style="stop-color:#F59E01"/>
</linearGradient>
<path fill="url(#SVGID_3_)" d="M8.027,44.338c-2.288,1.71-1.531-12.582,10.452-15.083c8.774-1.832,14.416,5.058,14.416,6.779
	C32.895,42.777,15.655,38.642,8.027,44.338z"/>
<linearGradient id="SVGID_4_" gradientUnits="userSpaceOnUse" x1="14.9912" y1="18.4302" x2="47.3809" y2="18.4302">
	<stop  offset="0.097" style="stop-color:#C21413"/>
	<stop  offset="0.3582" style="stop-color:#D50D11"/>
	<stop  offset="0.7529" style="stop-color:#EC030E"/>
	<stop  offset="1" style="stop-color:#F5000D"/>
	<a:midPointStop  offset="0.097" style="stop-color:#C21413"/>
	<a:midPointStop  offset="0.396" style="stop-color:#C21413"/>
	<a:midPointStop  offset="1" style="stop-color:#F5000D"/>
</linearGradient>
<path fill="url(#SVGID_4_)" d="M46.215,19.108c2.049-2.724,1.392-7.77-1.92-11.648c-0.999-1.171-1.709-0.82-1.522,0.367
	c0.367,2.324-0.677,3.835-1.728,2.882c-0.941-0.857-0.813-4.384-2.114-7.024c-0.63-1.273-1.637-1.125-1.637-0.01
	c0,2.05-0.749,4.794-1.806,5.72c-1.421,1.245-2.819-3.575-2.78-6.414c0.018-1.326-1.075-1.313-1.76,0.063
	c-1.183,2.375-1.563,5.064-1.713,6.765c-0.14,1.607-2.535-0.553-2.598-4.809c-0.021-1.471-1.281-1.528-1.909,0.545
	c-0.84,2.765-0.954,4.34-0.778,6.708c0.135,1.761-1.75,0.031-2.469-2.744c-0.344-1.33-1.523-0.541-1.716,1.135
	c-0.185,1.577-0.063,2.888,0.489,5.347c0.148,0.656-1.117,0.015-1.648-1.44c-0.467-1.276-1.125-0.564-1.184,0.972
	c-0.027,0.744,0.021,2.206,0.313,3.491c0.183,0.801-0.674,0.554-1.133-0.578c-0.951-2.353-2.96,6.159-0.25,11.434
	c2.133-0.814,2.137,0.582,2.972,1.502c0,0,1.923-0.701,1.63,0.869c5.398-0.938,8.783,0.02,11.526,2.619
	c-3.897-6.1-8.932-4.238-8.087-9.054C25.711,18.328,39.263,15.126,46.215,19.108z"/>
<path fill="#6B0B0B" d="M19.326,31.372c1.438-0.087,1.63,0.869,1.63,0.869c0.626-0.995,1.339-0.087,2.355-1.066
	C24.635,29.896,20.217,30.434,19.326,31.372z"/>
<path fill="#302C3B" d="M33.362,20.441c-4.452,0-6.193,3.77-5.801,6.712c0.288,2.183,11.32,2.183,11.605,0
	C39.577,23.971,37.422,20.441,33.362,20.441z"/>
<path fill="#FFFFFF" d="M33.362,21.492c-3.21,0-5.801,2.383-5.801,5.329c0,2.543,2.591,5.333,5.801,5.333
	c3.204,0,5.804-3.251,5.804-5.333C39.165,23.875,36.564,21.492,33.362,21.492z"/>
<path fill="#1A1626" d="M32.803,22.527c2.392,0,4.332,1.899,4.332,4.243c0,2.343-1.939,4.242-4.332,4.242
	c-2.396,0-4.334-1.899-4.334-4.242C28.469,24.426,30.408,22.527,32.803,22.527z"/>
<path fill="#FFFFFF" d="M32.458,24.647c0,1.541-2.365,1.541-2.365,0C30.093,23.103,32.458,23.103,32.458,24.647z"/>
</svg>
