<?xml version="1.0" encoding="utf-8"?>
<!-- Generator: Adobe Illustrator 15.0.0, SVG Export Plug-In . SVG Version: 6.00 Build 0)  -->
<!DOCTYPE svg PUBLIC "-//W3C//DTD SVG 1.1//EN" "http://www.w3.org/Graphics/SVG/1.1/DTD/svg11.dtd" [
	<!ENTITY ns_flows "http://ns.adobe.com/Flows/1.0/">
	<!ENTITY ns_extend "http://ns.adobe.com/Extensibility/1.0/">
	<!ENTITY ns_ai "http://ns.adobe.com/AdobeIllustrator/10.0/">
	<!ENTITY ns_graphs "http://ns.adobe.com/Graphs/1.0/">
]>
<svg version="1.1" id="Layer_1" xmlns:x="&ns_extend;" xmlns:i="&ns_ai;" xmlns:graph="&ns_graphs;"
	 xmlns="http://www.w3.org/2000/svg" xmlns:xlink="http://www.w3.org/1999/xlink" xmlns:a="http://ns.adobe.com/AdobeSVGViewerExtensions/3.0/"
	 x="0px" y="0px" width="64px" height="64px" viewBox="0 0 64 64" enable-background="new 0 0 64 64" xml:space="preserve">
<path fill="#3E484F" d="M26.696,40.358c0-3.196-5.433-3.448-5.947-0.188c-0.357,2.249,1.423,6.9,1.468,7.999
	c0.044,1.108,0.558,1.846,0.646,2.984c0.289,3.787-0.891,5.299-0.891,6.006l3.23,1.588c0.224-1.588,0.434-1.371,0.262-2.67
	c-0.41-3.129,0.859-4.571,0.402-6.779C25.292,46.519,26.696,44.736,26.696,40.358z"/>
<path fill="#1A1626" d="M20.91,59.993h3.941c0.263-0.244,0.414-0.915,0.351-1.246c-0.154-0.804-3.23-1.588-3.23-1.588
	C21.441,58.272,20.91,58.599,20.91,59.993z"/>
<path fill="#3E484F" d="M50.019,40.359c0-3.092-5.529-3.546-6.065-0.084c-0.349,2.249,1.168,5.378,1.529,8.019
	c0.122,0.888,0.545,1.842,0.61,2.86c0.268,4.155-1.101,5.298-1.101,6.005l3.155,1.588c0.218-1.588,0.775-1.777,0.723-3.084
	c-0.174-4.209,1.56-3.229,0.577-6.271C48.576,46.701,50.019,44.736,50.019,40.359z"/>
<path fill="#1A1626" d="M43.953,59.993h3.852c0.256-0.244,0.405-0.915,0.343-1.246c-0.15-0.803-3.155-1.588-3.155-1.588
	C44.473,58.272,43.953,58.597,43.953,59.993z"/>
<linearGradient id="SVGID_1_" gradientUnits="userSpaceOnUse" x1="49.6201" y1="50.3086" x2="55.7354" y2="50.3086">
	<stop  offset="0" style="stop-color:#737E82"/>
	<stop  offset="1" style="stop-color:#3E484F"/>
	<a:midPointStop  offset="0" style="stop-color:#737E82"/>
	<a:midPointStop  offset="0.503" style="stop-color:#737E82"/>
	<a:midPointStop  offset="1" style="stop-color:#3E484F"/>
</linearGradient>
<path fill="url(#SVGID_1_)" d="M55.735,42.366c0-3.092-5.529-3.546-6.063-0.083c-0.349,2.249,1.168,5.378,1.529,8.019
	c0.12,0.887,0.543,1.84,0.61,2.858c0.268,4.157-1.103,5.3-1.103,6.006l3.157,1.589c0.218-1.589,0.775-1.777,0.721-3.085
	c-0.172-4.21,1.562-3.229,0.577-6.271C54.293,48.708,55.735,46.743,55.735,42.366z"/>
<path fill="#1A1626" d="M49.672,62h3.852c0.257-0.243,0.405-0.915,0.343-1.245c-0.15-0.804-3.157-1.589-3.157-1.589
	C50.19,60.28,49.672,60.605,49.672,62z"/>
<path fill="#E1D3C8" d="M49.389,44.804c1.05-0.568,0.841-3.17-0.146-3.644c-0.107-1.582-2.556-1.893-3.269-1.104
	c-1.1-0.313-2.907,0.872-2.616,2.23c-1.666,0.366-1.535,3.321-0.359,3.833c0.396,1.445,3.115,2.088,3.865,0.956
	C48.014,47.449,49.942,46.069,49.389,44.804z"/>
<linearGradient id="SVGID_2_" gradientUnits="userSpaceOnUse" x1="22.1807" y1="50.3008" x2="28.1753" y2="50.3008">
	<stop  offset="0" style="stop-color:#737E82"/>
	<stop  offset="1" style="stop-color:#3E484F"/>
	<a:midPointStop  offset="0" style="stop-color:#737E82"/>
	<a:midPointStop  offset="0.503" style="stop-color:#737E82"/>
	<a:midPointStop  offset="1" style="stop-color:#3E484F"/>
</linearGradient>
<path fill="url(#SVGID_2_)" d="M28.175,42.366c0-3.196-5.432-3.448-5.947-0.188c-0.357,2.249,1.423,6.9,1.468,7.999
	c0.044,1.108,0.558,1.846,0.646,2.983c0.289,3.787-0.89,5.3-0.89,6.006l3.229,1.589c0.224-1.589,0.435-1.371,0.263-2.67
	c-0.411-3.129,0.858-4.571,0.401-6.779C26.772,48.526,28.175,46.743,28.175,42.366z"/>
<path fill="#1A1626" d="M22.389,62h3.942c0.262-0.243,0.414-0.915,0.35-1.245c-0.153-0.804-3.229-1.589-3.229-1.589
	C22.92,60.28,22.389,60.605,22.389,62z"/>
<linearGradient id="SVGID_3_" gradientUnits="userSpaceOnUse" x1="60.9883" y1="36.3096" x2="52.6222" y2="11.6005">
	<stop  offset="0" style="stop-color:#E1D3C8"/>
	<stop  offset="0.6147" style="stop-color:#F4EAE0"/>
	<stop  offset="1" style="stop-color:#FCF3EA"/>
	<a:midPointStop  offset="0" style="stop-color:#E1D3C8"/>
	<a:midPointStop  offset="0.4061" style="stop-color:#E1D3C8"/>
	<a:midPointStop  offset="1" style="stop-color:#FCF3EA"/>
</linearGradient>
<path fill="url(#SVGID_3_)" d="M55.271,20.42c-0.329-0.234,2.098,15.375,4.39,13.625c-0.114,0.639,0.473,0.828,0.688,0.242
	c0.076,0.846,0.595,1.469,0.641,0.242C61.19,29.169,58.451,22.693,55.271,20.42z"/>
<linearGradient id="SVGID_4_" gradientUnits="userSpaceOnUse" x1="36.1455" y1="45.874" x2="36.1455" y2="15.166">
	<stop  offset="0" style="stop-color:#E1D3C8"/>
	<stop  offset="0.6147" style="stop-color:#F4EAE0"/>
	<stop  offset="1" style="stop-color:#FCF3EA"/>
	<a:midPointStop  offset="0" style="stop-color:#E1D3C8"/>
	<a:midPointStop  offset="0.4061" style="stop-color:#E1D3C8"/>
	<a:midPointStop  offset="1" style="stop-color:#FCF3EA"/>
</linearGradient>
<path fill="url(#SVGID_4_)" d="M20.093,15.402c-2.484,0.71-9.529,7.144-6.092,12.914c-0.928,3.926,1.595,6.672,1.595,6.672
	c-0.54,4.121,2.398,6.116,2.398,6.116c1.715,4.521,12.013,5.807,16.626,3.947c2.349,1.133,4.771-0.281,4.771-0.281
	c2.351,0.95,4.987-0.385,4.987-0.385c5.509,1.488,13.129-3.896,13.718-7.399c1.135-1.193,1.422-4.078,0.799-6.287
	c0.527-2.497-0.108-4.699-1.209-6.092c-0.331-3.185-3.986-6.086-6.875-6.122c0,0-4.614-2.494-10.18-1.004
	c-1.624-1.373-6.122-1.745-8.612-0.443c-3.065-1.459-6.294-0.243-6.294-0.243C23.65,14.853,21.4,15.029,20.093,15.402z"/>
<linearGradient id="SVGID_5_" gradientUnits="userSpaceOnUse" x1="13.0903" y1="23.2197" x2="8.2336" y2="13.8143">
	<stop  offset="0" style="stop-color:#3E484F"/>
	<stop  offset="1" style="stop-color:#737E82"/>
	<a:midPointStop  offset="0" style="stop-color:#3E484F"/>
	<a:midPointStop  offset="0.497" style="stop-color:#3E484F"/>
	<a:midPointStop  offset="1" style="stop-color:#737E82"/>
</linearGradient>
<path fill="url(#SVGID_5_)" d="M8.624,13.944c1.243-1.244-0.896-2.75,6.428-3.091c3.38-0.159,3.062,7.25-0.381,12.376
	c-1.605,2.391-3.59,0.122-5.586,2.021c-1.83,1.74-4.367,1.044-4.18-0.351c0,0,0.359-0.445-0.188-0.513
	c-1.076,0.245-0.896-1.227-1.184-1.403c-0.648-0.397-0.536-1.166-0.368-1.509C3.461,20.862,0.955,21.626,8.624,13.944z"/>
<path fill-rule="evenodd" clip-rule="evenodd" fill="#1A1626" d="M4.884,21.531c0,0-0.88,1.037-1.174,0.465
	C3.301,21.204,4.829,21.086,4.884,21.531z"/>
<linearGradient id="SVGID_6_" gradientUnits="userSpaceOnUse" x1="15.8296" y1="24.6006" x2="15.8296" y2="8">
	<stop  offset="0" style="stop-color:#E1D3C8"/>
	<stop  offset="0.6147" style="stop-color:#F4EAE0"/>
	<stop  offset="1" style="stop-color:#FCF3EA"/>
	<a:midPointStop  offset="0" style="stop-color:#E1D3C8"/>
	<a:midPointStop  offset="0.4061" style="stop-color:#E1D3C8"/>
	<a:midPointStop  offset="1" style="stop-color:#FCF3EA"/>
</linearGradient>
<path fill="url(#SVGID_6_)" d="M19.256,23.365c-1.098,1.668-5.385,1.886-5.442-0.845c-2.836-1.542-1.605-4.933,0.262-5.218
	c-1.117-0.486-1.386-2.965-1.032-3.677c-0.931,0.348-3.031,0.172-3.172-0.888c-1.623-0.294-1.785-2.331-0.527-2.414
	c-0.229-0.976,1.538-2.353,2.601-1.854c0.904-0.852,3.597-0.499,4.211,0.698c1.538-0.372,4.824,0.825,5.46,3.313
	c1.671,0.768,1.902,3.772,1.041,4.957C23.6,19.863,22.062,23.521,19.256,23.365z"/>
<path fill="#1A1626" d="M4.905,24.898c-0.131-0.287-0.188-0.513-0.188-0.513s1.779-0.275,3.749-1.217
	C7.181,24.381,4.905,24.898,4.905,24.898z"/>
<linearGradient id="SVGID_7_" gradientUnits="userSpaceOnUse" x1="18.1919" y1="15.1396" x2="18.1919" y2="8.6406">
	<stop  offset="0" style="stop-color:#3E484F"/>
	<stop  offset="1" style="stop-color:#737E82"/>
	<a:midPointStop  offset="0" style="stop-color:#3E484F"/>
	<a:midPointStop  offset="0.497" style="stop-color:#3E484F"/>
	<a:midPointStop  offset="1" style="stop-color:#737E82"/>
</linearGradient>
<path fill="url(#SVGID_7_)" d="M15.552,15.14c6.225,0.015,7.278-6.657,6.44-6.496c-1.312,0.254-4.854,0.597-7.852,2.488
	c0,0,0.845,1.142,0.455,2.745C15.459,14.432,15.552,15.14,15.552,15.14z"/>
<linearGradient id="SVGID_8_" gradientUnits="userSpaceOnUse" x1="15.9814" y1="11.8896" x2="21.4272" y2="11.8896">
	<stop  offset="0" style="stop-color:#1A1626"/>
	<stop  offset="0.9697" style="stop-color:#1A1626;stop-opacity:0"/>
	<a:midPointStop  offset="0" style="stop-color:#1A1626"/>
	<a:midPointStop  offset="0.497" style="stop-color:#1A1626"/>
	<a:midPointStop  offset="0.9697" style="stop-color:#1A1626;stop-opacity:0"/>
</linearGradient>
<path fill="url(#SVGID_8_)" d="M16.25,14.432c4.276-0.076,5.74-5.24,4.988-5.082C16.165,10.424,15.472,14.445,16.25,14.432z"/>
<path fill="#302C3B" d="M10.899,14.649c-0.982,0.149-1.245,1.07-1.069,1.732c0.135,0.489,2.571,0.119,2.563-0.39
	C12.38,15.25,11.792,14.514,10.899,14.649z"/>
<path fill="#FFFFFF" d="M10.93,14.894c-0.706,0.105-1.205,0.736-1.111,1.412c0.081,0.585,0.747,1.138,1.453,1.031
	c0.706-0.109,1.175-0.942,1.111-1.419C12.29,15.243,11.638,14.785,10.93,14.894z"/>
<path fill="#1A1626" d="M10.842,15.149c0.527-0.082,1.018,0.287,1.092,0.821c0.074,0.538-0.294,1.037-0.821,1.118
	c-0.526,0.08-1.015-0.29-1.091-0.828C9.948,15.729,10.314,15.227,10.842,15.149z"/>
<path fill="#FFFFFF" d="M10.833,15.645c0.052,0.353-0.471,0.431-0.519,0.08C10.261,15.37,10.784,15.289,10.833,15.645z"/>
<linearGradient id="SVGID_9_" gradientUnits="userSpaceOnUse" x1="25.6978" y1="49.6846" x2="25.6978" y2="26.8102">
	<stop  offset="0" style="stop-color:#E1D3C8"/>
	<stop  offset="1" style="stop-color:#FCF3EA"/>
	<a:midPointStop  offset="0" style="stop-color:#E1D3C8"/>
	<a:midPointStop  offset="0.503" style="stop-color:#E1D3C8"/>
	<a:midPointStop  offset="1" style="stop-color:#FCF3EA"/>
</linearGradient>
<path fill="url(#SVGID_9_)" d="M28.206,36.008c-1.656-1.817-5.771-0.504-5.884,1.801c-1.817,0.406-3.305,4.063-1.578,5.481
	c-0.949,1.721,1.359,5.413,3.04,5.293c1.377,2.261,4.873,0.678,5.206-1.086c1.704-0.452,3.179-3.719,1.732-5.496
	C32.648,40.065,30.165,35.787,28.206,36.008z"/>
<linearGradient id="SVGID_10_" gradientUnits="userSpaceOnUse" x1="53.7979" y1="49.4844" x2="47.1482" y2="28.0643">
	<stop  offset="0" style="stop-color:#E1D3C8"/>
	<stop  offset="1" style="stop-color:#FCF3EA"/>
	<a:midPointStop  offset="0" style="stop-color:#E1D3C8"/>
	<a:midPointStop  offset="0.503" style="stop-color:#E1D3C8"/>
	<a:midPointStop  offset="1" style="stop-color:#FCF3EA"/>
</linearGradient>
<path fill="url(#SVGID_10_)" d="M56.95,42.708c1.212-1.491-0.354-5.487-1.989-5.677c-0.925-2.438-4.557-1.542-5.187,0.105
	c-1.715,0.129-3.705,3.025-2.63,5.009c-2.188,1.523-0.558,6.119,1.362,6.26c1.271,2.061,5.452,1.537,5.965-0.676
	C56.288,47.667,58.357,44.396,56.95,42.708z"/>
</svg>
