<?xml version="1.0" encoding="utf-8"?>
<!-- Generator: Adobe Illustrator 15.0.0, SVG Export Plug-In . SVG Version: 6.00 Build 0)  -->
<!DOCTYPE svg PUBLIC "-//W3C//DTD SVG 1.1//EN" "http://www.w3.org/Graphics/SVG/1.1/DTD/svg11.dtd" [
	<!ENTITY ns_flows "http://ns.adobe.com/Flows/1.0/">
	<!ENTITY ns_extend "http://ns.adobe.com/Extensibility/1.0/">
	<!ENTITY ns_ai "http://ns.adobe.com/AdobeIllustrator/10.0/">
	<!ENTITY ns_graphs "http://ns.adobe.com/Graphs/1.0/">
]>
<svg version="1.1" id="Layer_1" xmlns:x="&ns_extend;" xmlns:i="&ns_ai;" xmlns:graph="&ns_graphs;"
	 xmlns="http://www.w3.org/2000/svg" xmlns:xlink="http://www.w3.org/1999/xlink" xmlns:a="http://ns.adobe.com/AdobeSVGViewerExtensions/3.0/"
	 x="0px" y="0px" width="64px" height="64px" viewBox="0 0 64 64" enable-background="new 0 0 64 64" xml:space="preserve">
<path fill="#B47D56" d="M49.508,33.574c-1.541,2.288-1.119,5.157-0.758,6.582c0.156,0.648,0.283,0.746,0.529,0.282
	c0.369-0.676,0.986-1.408,1.949-2.01C52.422,37.685,50.168,32.597,49.508,33.574z"/>
<path fill="#B47D56" d="M50.629,35.685c-1.504,2.313-1.037,5.175-0.654,6.594c0.168,0.646,0.297,0.74,0.535,0.274
	c0.355-0.681,0.963-1.423,1.914-2.041C53.607,39.746,51.273,34.698,50.629,35.685z"/>
<path fill="#B47D56" d="M51.102,37.823c-1.197,2.492-0.367,5.27,0.195,6.624c0.248,0.618,0.389,0.695,0.566,0.2
	c0.266-0.723,0.771-1.538,1.637-2.278C54.576,41.456,51.613,36.76,51.102,37.823z"/>
<path fill="#B47D56" d="M23.263,33.311c-1.633,2.223-1.326,5.106-1.022,6.546c0.131,0.653,0.254,0.757,0.519,0.303
	c0.396-0.659,1.041-1.365,2.027-1.927C26.01,37.54,23.962,32.363,23.263,33.311z"/>
<path fill="#B47D56" d="M24.384,35.259c-1.596,2.248-1.245,5.129-0.919,6.562c0.142,0.653,0.268,0.751,0.524,0.297
	c0.383-0.666,1.02-1.383,1.994-1.96C27.198,39.441,25.067,34.3,24.384,35.259z"/>
<path fill="#B47D56" d="M24.921,36.963c-1.296,2.44-0.578,5.25-0.071,6.627c0.224,0.628,0.361,0.711,0.558,0.224
	c0.295-0.712,0.833-1.506,1.727-2.21C28.246,40.736,25.474,35.922,24.921,36.963z"/>
<path fill="#B47D56" d="M23.126,33.947c3.233,6.21,2.356,11.74,2.706,14.032c-0.705,1.711,0.086,2.48,0,3.356
	c-0.435,4.497-1.21,6.182-1.897,8.257c-0.224,0.675-2.785,0.923-2.715,2.407h4.831c1.154,0-0.25-4.389,2.24-11.254
	c1.057-1.627,0.223-2.565,0.326-3.541c0.35-3.268-0.076-9.598,0.918-14.197C30.031,30.71,21.404,30.643,23.126,33.947z"/>
<linearGradient id="SVGID_1_" gradientUnits="userSpaceOnUse" x1="9.9976" y1="42.1885" x2="9.9976" y2="25.8079">
	<stop  offset="0.0788" style="stop-color:#CC8E61"/>
	<stop  offset="0.2309" style="stop-color:#D0986C"/>
	<stop  offset="0.4808" style="stop-color:#D5A278"/>
	<stop  offset="0.7333" style="stop-color:#D6A57C"/>
	<a:midPointStop  offset="0.0788" style="stop-color:#CC8E61"/>
	<a:midPointStop  offset="0.2909" style="stop-color:#CC8E61"/>
	<a:midPointStop  offset="0.7333" style="stop-color:#D6A57C"/>
</linearGradient>
<path fill="url(#SVGID_1_)" d="M9.616,26.014c-1.598,2.244-1.249,5.126-0.925,6.561c0.142,0.651,0.266,0.751,0.523,0.295
	c0.385-0.664,1.021-1.38,1.998-1.958C12.426,30.199,10.301,25.054,9.616,26.014z"/>
<linearGradient id="SVGID_2_" gradientUnits="userSpaceOnUse" x1="9.2476" y1="42.1885" x2="9.2476" y2="25.8079">
	<stop  offset="0.0788" style="stop-color:#CC8E61"/>
	<stop  offset="0.2309" style="stop-color:#D0986C"/>
	<stop  offset="0.4808" style="stop-color:#D5A278"/>
	<stop  offset="0.7333" style="stop-color:#D6A57C"/>
	<a:midPointStop  offset="0.0788" style="stop-color:#CC8E61"/>
	<a:midPointStop  offset="0.2909" style="stop-color:#CC8E61"/>
	<a:midPointStop  offset="0.7333" style="stop-color:#D6A57C"/>
</linearGradient>
<path fill="url(#SVGID_2_)" d="M8.866,21.096c-1.598,2.244-1.249,5.126-0.925,6.561c0.142,0.651,0.266,0.751,0.523,0.295
	c0.385-0.664,1.021-1.379,1.998-1.957C11.676,25.281,9.551,20.136,8.866,21.096z"/>
<linearGradient id="SVGID_3_" gradientUnits="userSpaceOnUse" x1="8.2944" y1="42.1855" x2="8.2944" y2="25.8082">
	<stop  offset="0.0788" style="stop-color:#CC8E61"/>
	<stop  offset="0.2309" style="stop-color:#D0986C"/>
	<stop  offset="0.4808" style="stop-color:#D5A278"/>
	<stop  offset="0.7333" style="stop-color:#D6A57C"/>
	<a:midPointStop  offset="0.0788" style="stop-color:#CC8E61"/>
	<a:midPointStop  offset="0.2909" style="stop-color:#CC8E61"/>
	<a:midPointStop  offset="0.7333" style="stop-color:#D6A57C"/>
</linearGradient>
<path fill="url(#SVGID_3_)" d="M7.913,17.611c-1.598,2.243-1.249,5.125-0.925,6.559c0.142,0.652,0.266,0.753,0.523,0.296
	c0.385-0.665,1.021-1.379,1.998-1.957C10.723,21.797,8.598,16.65,7.913,17.611z"/>
<linearGradient id="SVGID_4_" gradientUnits="userSpaceOnUse" x1="7.2759" y1="42.1895" x2="7.2759" y2="25.8089">
	<stop  offset="0.0788" style="stop-color:#CC8E61"/>
	<stop  offset="0.2309" style="stop-color:#D0986C"/>
	<stop  offset="0.4808" style="stop-color:#D5A278"/>
	<stop  offset="0.7333" style="stop-color:#D6A57C"/>
	<a:midPointStop  offset="0.0788" style="stop-color:#CC8E61"/>
	<a:midPointStop  offset="0.2909" style="stop-color:#CC8E61"/>
	<a:midPointStop  offset="0.7333" style="stop-color:#D6A57C"/>
</linearGradient>
<path fill="url(#SVGID_4_)" d="M6.895,16.235c-1.598,2.244-1.249,5.125-0.925,6.56c0.142,0.652,0.266,0.752,0.523,0.296
	c0.385-0.665,1.021-1.38,1.998-1.958C9.704,20.421,7.579,15.275,6.895,16.235z"/>
<linearGradient id="SVGID_5_" gradientUnits="userSpaceOnUse" x1="11.1968" y1="42.1855" x2="11.1968" y2="25.8079">
	<stop  offset="0.0788" style="stop-color:#CC8E61"/>
	<stop  offset="0.2309" style="stop-color:#D0986C"/>
	<stop  offset="0.4808" style="stop-color:#D5A278"/>
	<stop  offset="0.7333" style="stop-color:#D6A57C"/>
	<a:midPointStop  offset="0.0788" style="stop-color:#CC8E61"/>
	<a:midPointStop  offset="0.2909" style="stop-color:#CC8E61"/>
	<a:midPointStop  offset="0.7333" style="stop-color:#D6A57C"/>
</linearGradient>
<path fill="url(#SVGID_5_)" d="M10.059,29.409c-1.098,2.535-0.16,5.278,0.453,6.609c0.273,0.606,0.416,0.679,0.573,0.178
	c0.238-0.733,0.713-1.568,1.548-2.343C13.671,32.897,10.529,28.323,10.059,29.409z"/>
<linearGradient id="SVGID_6_" gradientUnits="userSpaceOnUse" x1="12.9165" y1="42.1855" x2="12.9165" y2="25.8084">
	<stop  offset="0.0788" style="stop-color:#CC8E61"/>
	<stop  offset="0.2309" style="stop-color:#D0986C"/>
	<stop  offset="0.4808" style="stop-color:#D5A278"/>
	<stop  offset="0.7333" style="stop-color:#D6A57C"/>
	<a:midPointStop  offset="0.0788" style="stop-color:#CC8E61"/>
	<a:midPointStop  offset="0.2909" style="stop-color:#CC8E61"/>
	<a:midPointStop  offset="0.7333" style="stop-color:#D6A57C"/>
</linearGradient>
<path fill="url(#SVGID_6_)" d="M11.101,32.097c-0.422,2.74,1.176,5.145,2.104,6.272c0.418,0.514,0.573,0.545,0.599,0.02
	c0.046-0.771,0.294-1.702,0.906-2.668C15.471,34.523,11.282,30.926,11.101,32.097z"/>
<linearGradient id="SVGID_7_" gradientUnits="userSpaceOnUse" x1="14.9419" y1="42.1865" x2="14.9419" y2="25.8078">
	<stop  offset="0.0788" style="stop-color:#CC8E61"/>
	<stop  offset="0.2309" style="stop-color:#D0986C"/>
	<stop  offset="0.4808" style="stop-color:#D5A278"/>
	<stop  offset="0.7333" style="stop-color:#D6A57C"/>
	<a:midPointStop  offset="0.0788" style="stop-color:#CC8E61"/>
	<a:midPointStop  offset="0.2909" style="stop-color:#CC8E61"/>
	<a:midPointStop  offset="0.7333" style="stop-color:#D6A57C"/>
</linearGradient>
<path fill="url(#SVGID_7_)" d="M12.689,34.268c0.379,2.746,2.595,4.573,3.805,5.376c0.547,0.368,0.704,0.353,0.578-0.157
	c-0.176-0.751-0.205-1.716,0.104-2.822C17.563,35.294,12.528,33.093,12.689,34.268z"/>
<linearGradient id="SVGID_8_" gradientUnits="userSpaceOnUse" x1="17.8721" y1="42.1865" x2="17.8721" y2="25.8071">
	<stop  offset="0.0788" style="stop-color:#CC8E61"/>
	<stop  offset="0.2309" style="stop-color:#D0986C"/>
	<stop  offset="0.4808" style="stop-color:#D5A278"/>
	<stop  offset="0.7333" style="stop-color:#D6A57C"/>
	<a:midPointStop  offset="0.0788" style="stop-color:#CC8E61"/>
	<a:midPointStop  offset="0.2909" style="stop-color:#CC8E61"/>
	<a:midPointStop  offset="0.7333" style="stop-color:#D6A57C"/>
</linearGradient>
<path fill="url(#SVGID_8_)" d="M14.684,36.189c1.579,2.26,4.372,2.841,5.81,2.983c0.652,0.071,0.784-0.017,0.441-0.411
	c-0.496-0.583-0.959-1.426-1.185-2.552C19.473,34.812,14.009,35.223,14.684,36.189z"/>
<linearGradient id="SVGID_9_" gradientUnits="userSpaceOnUse" x1="20.9717" y1="42.1865" x2="20.9717" y2="25.8071">
	<stop  offset="0.0788" style="stop-color:#CC8E61"/>
	<stop  offset="0.2309" style="stop-color:#D0986C"/>
	<stop  offset="0.4808" style="stop-color:#D5A278"/>
	<stop  offset="0.7333" style="stop-color:#D6A57C"/>
	<a:midPointStop  offset="0.0788" style="stop-color:#CC8E61"/>
	<a:midPointStop  offset="0.2909" style="stop-color:#CC8E61"/>
	<a:midPointStop  offset="0.7333" style="stop-color:#D6A57C"/>
</linearGradient>
<path fill="url(#SVGID_9_)" d="M17.783,35.616c1.579,2.26,4.372,2.841,5.81,2.983c0.652,0.071,0.784-0.017,0.441-0.41
	c-0.496-0.584-0.959-1.426-1.185-2.553C22.572,34.238,17.108,34.65,17.783,35.616z"/>
<path fill="#D6A57C" d="M25.643,15.727c0.716-3.449,4.462-5.134,5.831-5.604c0.619-0.218,0.768-0.163,0.521,0.3
	c-0.355,0.682-0.621,1.61-0.594,2.759C31.439,14.607,25.402,16.887,25.643,15.727z"/>
<path fill="#D6A57C" d="M29.927,11.935c1.531-1.044,3.436-0.732,4.379-0.474c0.43,0.114,0.492,0.202,0.184,0.368
	c-0.451,0.248-0.943,0.67-1.35,1.328C32.636,13.974,29.273,12.383,29.927,11.935z"/>
<path fill="#D6A57C" d="M12.296,14.103c2.72,0.121,4.718,2.191,5.619,3.342c0.414,0.519,0.413,0.68-0.098,0.603
	c-0.751-0.108-1.697-0.044-2.748,0.375C13.767,18.946,11.132,14.053,12.296,14.103z"/>
<path fill="#D6A57C" d="M31.9,11.995c1.829-0.229,3.391,0.925,4.118,1.59c0.332,0.298,0.35,0.407,0,0.413
	c-0.512,0.013-1.137,0.163-1.791,0.564C33.414,15.059,31.117,12.095,31.9,11.995z"/>
<path fill="#D6A57C" d="M42.434,15.105c0.863-3,3.623-4.698,4.639-5.028c0.461-0.156,0.58-0.09,0.43,0.336
	c-0.217,0.625-0.342,1.498-0.221,2.61C47.434,14.405,42.144,16.114,42.434,15.105z"/>
<path fill="#D6A57C" d="M45.277,12.43c1.323-1.297,3.253-1.324,4.227-1.236c0.443,0.037,0.521,0.112,0.246,0.33
	c-0.4,0.324-0.812,0.825-1.095,1.544C48.303,13.96,44.712,12.986,45.277,12.43z"/>
<path fill="#D6A57C" d="M47.163,12.335c1.769-0.52,3.495,0.37,4.318,0.912c0.375,0.242,0.41,0.346,0.065,0.407
	c-0.503,0.096-1.096,0.342-1.678,0.844C49.146,15.117,46.406,12.557,47.163,12.335z"/>
<path fill="#633D22" d="M22.298,60.979c-0.381,0.087-0.601,0.242-0.721,0.407c0.049-0.22,0.128-0.407,0.128-0.407
	c-0.915,0.21-0.931,0.804-0.758,1.021h1.27C21.983,61.723,22.298,60.979,22.298,60.979z"/>
<path fill="#B47D56" d="M48.469,35.052c3.52,6.211,5.32,11.98,4.885,16.383c-0.443,4.495-2.426,6.048-3.111,8.125
	C50.02,60.231,46.93,60.514,47,62h4.828c2.063,0,0.779-4.389,4.48-11.002c2.115-2.888-1.553-2.888-0.527-16.415
	C55.959,32.231,46.635,31.82,48.469,35.052z"/>
<linearGradient id="SVGID_10_" gradientUnits="userSpaceOnUse" x1="32.936" y1="42.2637" x2="32.936" y2="24.8447">
	<stop  offset="0.0788" style="stop-color:#CC8E61"/>
	<stop  offset="0.2309" style="stop-color:#D0986C"/>
	<stop  offset="0.4808" style="stop-color:#D5A278"/>
	<stop  offset="0.7333" style="stop-color:#D6A57C"/>
	<a:midPointStop  offset="0.0788" style="stop-color:#CC8E61"/>
	<a:midPointStop  offset="0.2909" style="stop-color:#CC8E61"/>
	<a:midPointStop  offset="0.7333" style="stop-color:#D6A57C"/>
</linearGradient>
<path fill="url(#SVGID_10_)" d="M7.6,20.177c2.673,3.493-0.146,12.929,6.735,16.844c3.174,1.807,7.269-0.363,10.495-0.367
	c4.57-0.006,11.65,5.184,18.381,4.176c5.531-0.827,17.136-10.532,14.824-14.666c-2.409-4.308-6.223-4.923-6.223-8.549
	c0-7.614-9.781-7.614-9.781,0c0,5.979-5.669,5.254-5.669,0c0-7.614-10.975-7.614-10.975,0c0,9.68-8.854,2.429-9.053-2.441
	C16.273,13.677,6.663,18.953,7.6,20.177z"/>
<path fill="#633D22" d="M48.168,60.979c-0.381,0.087-0.602,0.242-0.721,0.407c0.049-0.22,0.127-0.407,0.127-0.407
	c-0.914,0.21-0.93,0.804-0.758,1.021h1.27C47.854,61.723,48.168,60.979,48.168,60.979z"/>
<path fill="#D6A57C" d="M25.443,33.577c4.914,6.406,7.164,12.059,7.513,14.351c-0.186,2.213,0.934,2.315,1.26,3.121
	c0.818,2.018,0.688,6.735,0,8.811c-0.223,0.674-2.194,0.654-2.124,2.141h4.61c1.854,0,0.049-2.482-0.527-11.254
	c0.445-2.92-0.645-3.996-1.26-5.588c-1.057-2.748-2.006-7.604-1.539-11.782C35.309,16.035,16.952,22.51,25.443,33.577z"/>
<path fill="#D6A57C" d="M48.016,28.913c3.418,8.246,7.629,10.896,9.381,13.099c1.342,1.688,3.551,7.979,3.875,8.784
	c0.818,2.02,0.082,6.988-0.605,9.063c-0.225,0.674-2.193,0.654-2.123,2.141h4.611c1.633,0,0.471-2.292,0.078-11.507
	c1.055-4.063,0.004-4.091-0.793-5.588c-4.748-8.928-1.992-17.32-8.059-22.557C52.672,20.875,44.182,19.673,48.016,28.913z"/>
<path fill="#633D22" d="M33.1,60.979c-0.381,0.087-0.602,0.242-0.721,0.407c0.049-0.22,0.127-0.407,0.127-0.407
	c-0.914,0.21-0.93,0.804-0.758,1.021h1.272C32.785,61.723,33.1,60.979,33.1,60.979z"/>
<path fill="#633D22" d="M59.564,60.979c-0.381,0.087-0.6,0.242-0.721,0.407c0.051-0.22,0.129-0.407,0.129-0.407
	c-0.914,0.21-0.93,0.804-0.758,1.021h1.27C59.25,61.723,59.564,60.979,59.564,60.979z"/>
<linearGradient id="SVGID_11_" gradientUnits="userSpaceOnUse" x1="6.6094" y1="21.7734" x2="9.1312" y2="15.5745">
	<stop  offset="0.0788" style="stop-color:#CC8E61"/>
	<stop  offset="0.2309" style="stop-color:#D0986C"/>
	<stop  offset="0.4808" style="stop-color:#D5A278"/>
	<stop  offset="0.7333" style="stop-color:#D6A57C"/>
	<a:midPointStop  offset="0.0788" style="stop-color:#CC8E61"/>
	<a:midPointStop  offset="0.2909" style="stop-color:#CC8E61"/>
	<a:midPointStop  offset="0.7333" style="stop-color:#D6A57C"/>
</linearGradient>
<path fill="url(#SVGID_11_)" d="M4.286,20.281c5.672,2.714,12.871,1.508,12.145-3.599c-0.732-5.159-8.227-2.736-12.156-2.536
	c-2.637,0.131-2.629,1.923-3.855,2.715C-0.313,17.335,0.042,17.883,0.515,18l0.037,0.341c-0.875,0.487-0.301,2.06,0.625,1.74
	C2.774,19.531,3.651,19.979,4.286,20.281z"/>
<path fill="#D6A57C" d="M16.533,15.14c-0.978-2.172-4.525-5.033-7.189-4.843c0,0,0.956,0.476,0.978,1.238
	c0,0-1.211-0.02-1.559,0.402c0.956,0.285,1.075,0.776,1.075,0.776s-0.728-0.223-1.375,0.395c0.97,0.014,0.97,0.245,2.187,1.042
	C11.858,14.947,16.533,15.14,16.533,15.14z"/>
<path fill="#633D22" d="M2.106,15.873c0.217,0.287,1.344-0.552,1.127-0.838C3.026,14.767,1.901,15.606,2.106,15.873z"/>
<path fill="#B47D56" d="M11.519,16.289c0,1.652-3.381,1.298-3.381-0.359C8.138,13.47,11.519,13.824,11.519,16.289z"/>
<path fill="#633D22" d="M0.521,18.002c2.027,0,4.459,1.264,6.24-0.12c-1.297,1.894-4.174,0.459-6.209,0.459L0.521,18.002z"/>
<path fill="#D6A57C" d="M14.774,17.365c4.076,0.008,4.766-4.543,4.217-4.431c-0.855,0.171-3.176,0.405-5.139,1.696
	C13.64,14.77,14.265,17.363,14.774,17.365z"/>
<path fill="#B47D56" d="M15.233,16.881c2.801-0.051,3.756-3.572,3.264-3.465C15.177,14.148,14.724,16.892,15.233,16.881z"/>
<path fill="#FFFFFF" d="M9.669,15.173c-0.555,0-1.004,0.425-1.004,0.953c0,0.455,0.449,0.956,1.004,0.956
	c0.557,0,1.006-0.584,1.006-0.956C10.675,15.598,10.226,15.173,9.669,15.173z"/>
<path fill="#1A1626" d="M9.573,15.357c0.414,0,0.75,0.341,0.75,0.759c0,0.421-0.336,0.76-0.75,0.76c-0.416,0-0.752-0.339-0.752-0.76
	C8.821,15.698,9.157,15.357,9.573,15.357z"/>
<path fill="#FFFFFF" d="M9.437,15.933c0,0.275-0.41,0.275-0.41,0C9.026,15.655,9.437,15.655,9.437,15.933z"/>
<path fill="#633D22" d="M10.696,16.004c-0.018-0.553-0.389-1.099-1.025-1.099c-0.695,0-1.014,0.576-1.027,1.1
	C8.919,15.613,10.417,15.612,10.696,16.004z"/>
<path fill="#D6A57C" d="M27.83,34.31c-1.949,2.708-1.545,6.196-1.162,7.934c0.168,0.789,0.316,0.912,0.633,0.361
	c0.469-0.803,1.244-1.664,2.43-2.355C31.203,39.395,28.666,33.153,27.83,34.31z"/>
<path fill="#D6A57C" d="M25.67,32.107c-1.95,2.708-1.546,6.196-1.163,7.934c0.168,0.789,0.316,0.914,0.632,0.362
	c0.47-0.804,1.246-1.665,2.431-2.356C29.042,37.192,26.505,30.952,25.67,32.107z"/>
<path fill="#D6A57C" d="M29.769,37.521c-1.908,2.739-1.447,6.221-1.037,7.951c0.18,0.789,0.332,0.908,0.637,0.352
	c0.457-0.81,1.219-1.683,2.393-2.396C33.223,42.551,30.585,36.353,29.769,37.521z"/>
<path fill="#D6A57C" d="M30.57,39.309c-1.541,2.968-0.639,6.359-0.01,8.021c0.279,0.757,0.445,0.854,0.678,0.264
	c0.348-0.864,0.99-1.833,2.065-2.693C34.637,43.835,31.228,38.04,30.57,39.309z"/>
<path fill="#D6A57C" d="M52.328,33.32c-1.463,3.251-0.307,6.801,0.461,8.527c0.34,0.786,0.521,0.883,0.734,0.238
	c0.32-0.939,0.945-2.008,2.039-2.987C56.916,37.887,52.955,31.933,52.328,33.32z"/>
<path fill="#D6A57C" d="M49.898,30.297c-1.463,3.252-0.307,6.802,0.459,8.528c0.342,0.785,0.521,0.883,0.736,0.238
	c0.318-0.94,0.945-2.007,2.037-2.987C54.486,34.861,50.525,28.909,49.898,30.297z"/>
<path fill="#D6A57C" d="M54.703,36.378c-1.41,3.273-0.199,6.803,0.594,8.518c0.354,0.783,0.539,0.872,0.74,0.228
	c0.305-0.945,0.914-2.021,1.99-3.021C59.363,40.866,55.307,34.981,54.703,36.378z"/>
<path fill="#D6A57C" d="M55.916,38.065c-0.98,3.435,0.674,6.772,1.68,8.367c0.449,0.729,0.645,0.794,0.762,0.126
	c0.182-0.978,0.648-2.127,1.586-3.26C61.111,41.896,56.334,36.601,55.916,38.065z"/>
<path fill="#D6A57C" d="M55.139,26.478c3.328,1.316,4.988,4.661,5.65,6.431c0.309,0.799,0.246,0.994-0.357,0.681
	c-0.891-0.451-2.088-0.783-3.557-0.727C55.055,32.933,53.717,25.919,55.139,26.478z"/>
<path fill="#D6A57C" d="M53.557,22.153c3.33,1.314,4.99,4.661,5.652,6.429c0.307,0.802,0.244,0.996-0.361,0.682
	c-0.887-0.452-2.084-0.781-3.555-0.729C53.471,28.606,52.135,21.594,53.557,22.153z"/>
<path fill="#D6A57C" d="M56.457,30.764c3.307,1.367,4.914,4.737,5.549,6.517c0.295,0.806,0.227,0.997-0.371,0.676
	c-0.881-0.466-2.074-0.815-3.545-0.785C56.266,37.212,55.045,30.181,56.457,30.764z"/>
<path fill="#D6A57C" d="M57.938,34.807c3.111,1.781,4.268,5.32,4.664,7.16c0.189,0.835,0.096,1.018-0.457,0.619
	c-0.814-0.574-1.955-1.074-3.422-1.236C56.902,41.155,56.609,34.047,57.938,34.807z"/>
<path fill="#D6A57C" d="M31.941,33.487c3.086,1.186,4.614,4.336,5.225,6.004c0.281,0.755,0.223,0.941-0.338,0.653
	c-0.822-0.411-1.934-0.703-3.297-0.623C31.837,39.622,30.623,32.982,31.941,33.487z"/>
<path fill="#D6A57C" d="M32.574,30.441c3.086,1.186,4.614,4.336,5.223,6.003c0.281,0.756,0.223,0.942-0.336,0.655
	c-0.824-0.412-1.934-0.703-3.299-0.624C32.47,36.577,31.255,29.938,32.574,30.441z"/>
<path fill="#D6A57C" d="M32.037,37.257c3.067,1.235,4.545,4.41,5.129,6.088c0.271,0.761,0.207,0.944-0.348,0.649
	c-0.816-0.426-1.922-0.735-3.289-0.68C31.835,43.39,30.728,36.729,32.037,37.257z"/>
<path fill="#D6A57C" d="M32.322,39.198c2.881,1.632,3.942,4.977,4.305,6.718c0.17,0.79,0.084,0.965-0.428,0.597
	c-0.754-0.528-1.813-0.983-3.172-1.109C31.337,45.252,31.091,38.501,32.322,39.198z"/>
</svg>
