<?xml version="1.0" encoding="utf-8"?>
<!-- Generator: Adobe Illustrator 15.0.0, SVG Export Plug-In . SVG Version: 6.00 Build 0)  -->
<!DOCTYPE svg PUBLIC "-//W3C//DTD SVG 1.1//EN" "http://www.w3.org/Graphics/SVG/1.1/DTD/svg11.dtd" [
	<!ENTITY ns_flows "http://ns.adobe.com/Flows/1.0/">
	<!ENTITY ns_extend "http://ns.adobe.com/Extensibility/1.0/">
	<!ENTITY ns_ai "http://ns.adobe.com/AdobeIllustrator/10.0/">
	<!ENTITY ns_graphs "http://ns.adobe.com/Graphs/1.0/">
]>
<svg version="1.1" id="Layer_1" xmlns:x="&ns_extend;" xmlns:i="&ns_ai;" xmlns:graph="&ns_graphs;"
	 xmlns="http://www.w3.org/2000/svg" xmlns:xlink="http://www.w3.org/1999/xlink" xmlns:a="http://ns.adobe.com/AdobeSVGViewerExtensions/3.0/"
	 x="0px" y="0px" width="64px" height="64px" viewBox="0 0 64 64" enable-background="new 0 0 64 64" xml:space="preserve">
<path fill="#BCCBD1" d="M28,16c0,7.18-5.822,13-12.998,13C7.821,29,2,23.18,2,16S7.821,3,15.002,3C22.178,3,28,8.821,28,16z"/>
<linearGradient id="SVGID_1_" gradientUnits="userSpaceOnUse" x1="4.0005" y1="15.9868" x2="26.0005" y2="15.9868">
	<stop  offset="0" style="stop-color:#FDE0DA"/>
	<stop  offset="0.1961" style="stop-color:#F7D5D2"/>
	<stop  offset="0.5419" style="stop-color:#E5B7BB"/>
	<stop  offset="0.9939" style="stop-color:#C98897"/>
	<stop  offset="1" style="stop-color:#C98796"/>
	<a:midPointStop  offset="0" style="stop-color:#FDE0DA"/>
	<a:midPointStop  offset="0.5818" style="stop-color:#FDE0DA"/>
	<a:midPointStop  offset="1" style="stop-color:#C98796"/>
</linearGradient>
<circle fill="url(#SVGID_1_)" cx="15" cy="15.989" r="11"/>
<path fill="#BCCBD1" d="M62,16c0,7.18-5.822,13-12.998,13C41.818,29,36,23.18,36,16S41.818,3,49.002,3C56.178,3,62,8.821,62,16z"/>
<linearGradient id="SVGID_2_" gradientUnits="userSpaceOnUse" x1="38" y1="15.9868" x2="60" y2="15.9868">
	<stop  offset="0" style="stop-color:#C98796"/>
	<stop  offset="0.0061" style="stop-color:#C98897"/>
	<stop  offset="0.4581" style="stop-color:#E5B7BB"/>
	<stop  offset="0.8039" style="stop-color:#F7D5D2"/>
	<stop  offset="1" style="stop-color:#FDE0DA"/>
	<a:midPointStop  offset="0" style="stop-color:#C98796"/>
	<a:midPointStop  offset="0.4182" style="stop-color:#C98796"/>
	<a:midPointStop  offset="1" style="stop-color:#FDE0DA"/>
</linearGradient>
<circle fill="url(#SVGID_2_)" cx="49" cy="15.989" r="11"/>
<linearGradient id="SVGID_3_" gradientUnits="userSpaceOnUse" x1="32.0005" y1="61" x2="32.0005" y2="12.2334">
	<stop  offset="0" style="stop-color:#8D9EA8"/>
	<stop  offset="0.1623" style="stop-color:#9DADB6"/>
	<stop  offset="0.4135" style="stop-color:#AEBEC5"/>
	<stop  offset="0.6829" style="stop-color:#B9C8CE"/>
	<stop  offset="1" style="stop-color:#BCCBD1"/>
	<a:midPointStop  offset="0" style="stop-color:#8D9EA8"/>
	<a:midPointStop  offset="0.2606" style="stop-color:#8D9EA8"/>
	<a:midPointStop  offset="1" style="stop-color:#BCCBD1"/>
</linearGradient>
<path fill="url(#SVGID_3_)" d="M57.939,39.691c-0.543-7.054-4.344-10.935-7.305-14.862c-3.412-4.525-5.07-12.597-18.633-12.597
	c-13.561,0-15.224,8.072-18.634,12.595c-2.959,3.923-6.763,7.812-7.307,14.864C4.869,55.289,26.877,61,32.002,61
	C37.117,61,59.139,55.289,57.939,39.691z"/>
<path fill="#525F66" d="M44.924,30.444c-5.318,0-7.402,4.505-6.938,8.021c0.346,2.611,13.537,2.611,13.877,0
	C52.357,34.66,49.783,30.444,44.924,30.444z"/>
<path fill="#FFFFFF" d="M44.926,31.696c-3.834,0-6.939,2.855-6.939,6.375c0,3.041,3.105,6.373,6.939,6.373s6.938-3.887,6.938-6.373
	C51.863,34.551,48.76,31.696,44.926,31.696z"/>
<ellipse fill="#1A1626" cx="44.258" cy="38.007" rx="5.182" ry="5.073"/>
<path fill="#FFFFFF" d="M43.846,35.471c0,1.842-2.826,1.842-2.826,0C41.02,33.623,43.846,33.623,43.846,35.471z"/>
<path fill="#525F66" d="M19.077,30.444c5.319,0,7.402,4.505,6.938,8.021c-0.346,2.611-13.537,2.611-13.877,0
	C11.643,34.66,14.218,30.444,19.077,30.444z"/>
<path fill="#FFFFFF" d="M19.076,31.696c3.834,0,6.938,2.855,6.938,6.375c0,3.041-3.104,6.373-6.938,6.373s-6.938-3.887-6.938-6.373
	C12.137,34.551,15.242,31.696,19.076,31.696z"/>
<ellipse fill="#1A1626" cx="19.743" cy="38.007" rx="5.181" ry="5.073"/>
<path fill="#FFFFFF" d="M20.155,35.471c0,1.842,2.826,1.842,2.826,0C22.981,33.623,20.155,33.623,20.155,35.471z"/>
<g>
	<path fill="#525F66" d="M32.001,56.528c-3.404,0-6.587-1.582-8.964-4.454c-0.44-0.532-0.366-1.319,0.166-1.76
		c0.531-0.44,1.32-0.366,1.76,0.166c1.893,2.287,4.393,3.548,7.038,3.548c0.001,0,0.001,0,0.002,0
		c2.645-0.001,5.142-1.261,7.034-3.548c0.439-0.531,1.227-0.607,1.76-0.166c0.531,0.439,0.606,1.228,0.166,1.76
		c-2.374,2.871-5.556,4.453-8.959,4.454C32.003,56.528,32.002,56.528,32.001,56.528z"/>
</g>
<path fill="#525F66" d="M19.765,24.557c-8.298,2.328-3.978,4.479,3.271,3.373C27.125,27.305,25.227,23.024,19.765,24.557z"/>
<path fill="#525F66" d="M44.234,24.557c-5.461-1.533-7.359,2.748-3.27,3.373C48.213,29.036,52.533,26.885,44.234,24.557z"/>
<path fill="#F6BEC1" d="M27.292,46.088c0-2.311,2.109-2.756,4.709-2.756c2.601,0,4.708,0.445,4.708,2.756
	c0,1.836-3.746,3.465-4.708,3.465C31.04,49.553,27.292,47.924,27.292,46.088z"/>
</svg>
