<?xml version="1.0" encoding="utf-8"?>
<!-- Generator: Adobe Illustrator 15.0.0, SVG Export Plug-In . SVG Version: 6.00 Build 0)  -->
<!DOCTYPE svg PUBLIC "-//W3C//DTD SVG 1.1//EN" "http://www.w3.org/Graphics/SVG/1.1/DTD/svg11.dtd" [
	<!ENTITY ns_flows "http://ns.adobe.com/Flows/1.0/">
	<!ENTITY ns_extend "http://ns.adobe.com/Extensibility/1.0/">
	<!ENTITY ns_ai "http://ns.adobe.com/AdobeIllustrator/10.0/">
	<!ENTITY ns_graphs "http://ns.adobe.com/Graphs/1.0/">
]>
<svg version="1.1" id="Layer_1" xmlns:x="&ns_extend;" xmlns:i="&ns_ai;" xmlns:graph="&ns_graphs;"
	 xmlns="http://www.w3.org/2000/svg" xmlns:xlink="http://www.w3.org/1999/xlink" xmlns:a="http://ns.adobe.com/AdobeSVGViewerExtensions/3.0/"
	 x="0px" y="0px" width="64px" height="64px" viewBox="0 0 64 64" enable-background="new 0 0 64 64" xml:space="preserve">
<linearGradient id="SVGID_1_" gradientUnits="userSpaceOnUse" x1="32.0005" y1="57.0029" x2="32.0005" y2="4">
	<stop  offset="0" style="stop-color:#E09C67"/>
	<stop  offset="0.3188" style="stop-color:#E5A97B"/>
	<stop  offset="0.7235" style="stop-color:#E9B68F"/>
	<stop  offset="1" style="stop-color:#EBBB96"/>
	<a:midPointStop  offset="0" style="stop-color:#E09C67"/>
	<a:midPointStop  offset="0.3758" style="stop-color:#E09C67"/>
	<a:midPointStop  offset="1" style="stop-color:#EBBB96"/>
</linearGradient>
<path fill="url(#SVGID_1_)" d="M40.875,6.04c-5.162-2.721-12.59-2.721-17.75,0C15.424,10.098,6,27.977,6,38.334
	c0,16.54,18.761,18.669,26,18.669s26-2.129,26-18.669C58,27.977,48.576,10.098,40.875,6.04z"/>
<path id="Shape_19_" fill="#724726" d="M24.098,5.657c-9.26,4.305-10.66,22.741-16.313,27.441
	C4.867,18.641,20.225,1.741,24.098,5.657L24.098,5.657z"/>
<linearGradient id="Shape_1_" gradientUnits="userSpaceOnUse" x1="13.0493" y1="35.7822" x2="13.0493" y2="4.3608">
	<stop  offset="0.2667" style="stop-color:#734727"/>
	<stop  offset="0.4082" style="stop-color:#835534"/>
	<stop  offset="0.6313" style="stop-color:#956644"/>
	<stop  offset="0.7879" style="stop-color:#9C6C4A"/>
	<a:midPointStop  offset="0.2667" style="stop-color:#734727"/>
	<a:midPointStop  offset="0.3697" style="stop-color:#734727"/>
	<a:midPointStop  offset="0.7879" style="stop-color:#9C6C4A"/>
</linearGradient>
<path id="Shape_17_" fill="url(#Shape_1_)" d="M14.963,5.876C8.146,9.833-1.613,10.42,3.361,20.396
	c3.428,6.876-4.104,17.251,0.895,15.097c12.451-5.375,3.055-24.689,19.842-29.836C23.307,4.243,18.967,3.554,14.963,5.876
	L14.963,5.876z"/>
<path id="Shape_16_" fill="#724726" d="M39.902,5.657c9.26,4.305,10.662,22.741,16.316,27.441
	C59.135,18.641,43.775,1.741,39.902,5.657L39.902,5.657z"/>
<linearGradient id="Shape_2_" gradientUnits="userSpaceOnUse" x1="50.9512" y1="35.7822" x2="50.9512" y2="4.3613">
	<stop  offset="0.2667" style="stop-color:#734727"/>
	<stop  offset="0.4082" style="stop-color:#835534"/>
	<stop  offset="0.6313" style="stop-color:#956644"/>
	<stop  offset="0.7879" style="stop-color:#9C6C4A"/>
	<a:midPointStop  offset="0.2667" style="stop-color:#734727"/>
	<a:midPointStop  offset="0.3697" style="stop-color:#734727"/>
	<a:midPointStop  offset="0.7879" style="stop-color:#9C6C4A"/>
</linearGradient>
<path id="Shape_15_" fill="url(#Shape_2_)" d="M49.035,5.876c6.818,3.957,16.578,4.543,11.604,14.52
	c-3.428,6.876,4.105,17.251-0.895,15.097c-12.453-5.375-3.057-24.689-19.842-29.836C40.693,4.245,45.033,3.554,49.035,5.876
	L49.035,5.876z"/>
<linearGradient id="SVGID_2_" gradientUnits="userSpaceOnUse" x1="32.0005" y1="60.001" x2="32.0005" y2="9.7349">
	<stop  offset="0" style="stop-color:#E1EAF0"/>
	<stop  offset="0.0404" style="stop-color:#E4ECF2"/>
	<stop  offset="0.2856" style="stop-color:#F3F7F9"/>
	<stop  offset="0.5724" style="stop-color:#FCFDFE"/>
	<stop  offset="1" style="stop-color:#FFFFFF"/>
	<a:midPointStop  offset="0" style="stop-color:#E1EAF0"/>
	<a:midPointStop  offset="0.2182" style="stop-color:#E1EAF0"/>
	<a:midPointStop  offset="1" style="stop-color:#FFFFFF"/>
</linearGradient>
<path fill="url(#SVGID_2_)" d="M34.66,14.159c0-5.9-5.318-5.9-5.318,0c0,31.907-13.613,24.748-10.221,36.615
	c3.514,12.301,22.242,12.303,25.758,0C48.271,38.907,34.66,46.066,34.66,14.159z"/>
<g>
	<path fill="#724726" d="M32,55.226c0,0-0.001,0-0.001,0c-3.404-0.001-6.586-1.582-8.961-4.453c-0.44-0.532-0.365-1.32,0.167-1.76
		c0.532-0.441,1.319-0.366,1.76,0.166c1.891,2.287,4.39,3.546,7.035,3.547c0,0,0,0,0.001,0c2.646,0,5.145-1.26,7.038-3.547
		c0.439-0.531,1.227-0.608,1.76-0.166c0.532,0.44,0.606,1.228,0.166,1.76C38.587,53.644,35.403,55.226,32,55.226z"/>
</g>
<path fill="#724726" d="M18.766,21.254c-8.299,2.328-3.979,4.479,3.27,3.373C26.125,24.002,24.227,19.721,18.766,21.254z"/>
<path fill="#724726" d="M45.234,21.254c-5.461-1.533-7.359,2.748-3.27,3.373C49.213,25.733,53.533,23.583,45.234,21.254z"/>
<path id="Shape_6_" fill="#1A1626" d="M25,43.047c0-2.968,3.133-3.54,7-3.54c3.865,0,7,0.572,7,3.54c0,2.364-5.574,4.46-7,4.46
	C30.573,47.507,25,45.411,25,43.047L25,43.047z"/>
<path fill="#724726" d="M45.924,27.141c-5.318,0-7.402,4.506-6.938,8.022c0.346,2.611,13.537,2.613,13.877,0
	C53.357,31.358,50.783,27.141,45.924,27.141z"/>
<path fill="#FFFFFF" d="M45.926,28.395c-3.834,0-6.939,2.854-6.939,6.374c0,3.041,3.105,6.373,6.939,6.373s6.938-3.887,6.938-6.373
	C52.863,31.249,49.76,28.395,45.926,28.395z"/>
<ellipse fill="#1A1626" cx="45.258" cy="34.705" rx="5.182" ry="5.073"/>
<path fill="#FFFFFF" d="M44.846,32.168c0,1.842-2.826,1.842-2.826,0C42.02,30.321,44.846,30.321,44.846,32.168z"/>
<path fill="#724726" d="M18.076,27.141c5.32,0,7.402,4.506,6.938,8.022c-0.346,2.611-13.537,2.613-13.877,0
	C10.643,31.358,13.219,27.141,18.076,27.141z"/>
<path fill="#FFFFFF" d="M18.076,28.395c3.834,0,6.938,2.854,6.938,6.374c0,3.041-3.104,6.373-6.938,6.373s-6.939-3.887-6.939-6.373
	C11.137,31.249,14.242,28.395,18.076,28.395z"/>
<ellipse fill="#1A1626" cx="18.742" cy="34.705" rx="5.18" ry="5.073"/>
<path fill="#FFFFFF" d="M19.154,32.168c0,1.842,2.826,1.842,2.826,0C21.98,30.321,19.154,30.321,19.154,32.168z"/>
</svg>
