<?xml version="1.0" encoding="utf-8"?>
<!-- Generator: Adobe Illustrator 24.1.2, SVG Export Plug-In . SVG Version: 6.00 Build 0)  -->
<svg version="1.1" id="Layer_1" xmlns="http://www.w3.org/2000/svg" xmlns:xlink="http://www.w3.org/1999/xlink" x="0px" y="0px"
	 width="64px" height="64px" viewBox="0 0 64 64" style="enable-background:new 0 0 64 64;" xml:space="preserve">
<style type="text/css">
	.st0{fill:#6BA81E;}
	.st1{fill:#529320;}
	.st2{fill:url(#SVGID_1_);}
	.st3{fill:url(#SVGID_2_);}
	.st4{fill:url(#SVGID_3_);}
	.st5{fill:url(#SVGID_4_);}
	.st6{fill:url(#SVGID_5_);}
	.st7{fill:url(#SVGID_6_);}
	.st8{fill:url(#SVGID_7_);}
	.st9{fill:url(#SVGID_8_);}
	.st10{fill:url(#SVGID_9_);}
	.st11{fill:url(#SVGID_10_);}
	.st12{fill:url(#SVGID_11_);}
	.st13{fill:#BF7F55;}
	.st14{fill:url(#SVGID_12_);}
	.st15{fill:url(#SVGID_13_);}
	.st16{fill:url(#SVGID_14_);}
	.st17{fill:url(#SVGID_15_);}
	.st18{fill:#FFDEB8;}
	.st19{fill:#5C9C0B;}
	.st20{fill:url(#SVGID_16_);}
	.st21{fill:url(#SVGID_17_);}
	.st22{fill:url(#SVGID_18_);}
	.st23{fill:url(#SVGID_19_);}
	.st24{fill:url(#SVGID_20_);}
	.st25{fill:url(#SVGID_21_);}
	.st26{fill:url(#SVGID_22_);}
	.st27{fill:url(#SVGID_23_);}
	.st28{fill:url(#SVGID_24_);}
	.st29{fill:#297124;}
	.st30{fill:url(#SVGID_25_);}
	.st31{fill:url(#SVGID_26_);}
	.st32{fill:url(#SVGID_27_);}
	.st33{fill:url(#SVGID_28_);}
	.st34{fill:url(#SVGID_29_);}
	.st35{fill:url(#SVGID_30_);}
	.st36{fill:url(#SVGID_31_);}
	.st37{fill:#FFFFFF;}
	.st38{fill:#302C3B;}
	.st39{fill:#6E8189;}
	.st40{fill:url(#SVGID_32_);}
	.st41{fill:url(#SVGID_33_);}
	.st42{fill:url(#SVGID_34_);}
	.st43{fill:url(#SVGID_35_);}
</style>
<path class="st0" d="M62.61,7.59c-4.01,4.52-12.74,0.9-22.76,13.14c-0.39,0.47,2.87,3.72,4.17,2.77c7.5-12.65,16.44-9.34,19.5-15.17
	C63.8,7.82,62.91,7.26,62.61,7.59z"/>
<path class="st1" d="M60.19,34.16C62.32,34.21,64,34.5,64,34.5s-2.39-2.4-5.72-3.6c2.74-0.27,5.23,0.02,5.23,0.02
	s-3.74-3.31-8.24-3.68c3.34-0.82,6.64-0.99,6.64-0.99s-4.83-2.33-9.99-2.24c3.54-1.57,7.68-2.31,7.68-2.31s-7.1-2.4-12.94-0.32
	c-2.39,0.85,12.14,17.72,14.23,18.81c1.81,0.95,3.11,1.9,3.11,1.9s-0.8-2.36-2.57-4.64c1.52,0.47,2.57,0.94,2.57,0.94
	S62.6,36.06,60.19,34.16z"/>
<linearGradient id="SVGID_1_" gradientUnits="userSpaceOnUse" x1="84.2498" y1="72.1035" x2="65.4137" y2="92.4865" gradientTransform="matrix(0.9923 0.1237 -0.1237 0.9923 -16.3801 -50.0758)">
	<stop  offset="0" style="stop-color:#92C932"/>
	<stop  offset="1" style="stop-color:#529320"/>
</linearGradient>
<path class="st2" d="M34.78,49.16c2.81-0.15,6.29,3.9,6.89,7.16c1.19,6.45,22.54-5.65,22.33-9.05c-0.88-14.35-9.87-22.04-14.7-23.91
	C33.43,20.18,33.23,49.24,34.78,49.16z"/>
<linearGradient id="SVGID_2_" gradientUnits="userSpaceOnUse" x1="137.3241" y1="-435.5207" x2="145.2273" y2="-435.5207" gradientTransform="matrix(0.227 -0.9739 0.9739 0.227 438.5136 291.3148)">
	<stop  offset="0" style="stop-color:#C4B400"/>
	<stop  offset="1" style="stop-color:#F5EA1B"/>
</linearGradient>
<path class="st3" d="M41.81,57.59c0.1,0.23,3.17,2.13,10.55-1.64c-0.08-0.82-1.08-4.42-1.82-4.15c-7.27,2.65-10.21,1.44-9.98,1.85
	C41.67,55.6,41.31,56.43,41.81,57.59z"/>
<linearGradient id="SVGID_3_" gradientUnits="userSpaceOnUse" x1="140.8245" y1="-437.8494" x2="148.5725" y2="-437.8494" gradientTransform="matrix(0.227 -0.9739 0.9739 0.227 438.5136 291.3148)">
	<stop  offset="0" style="stop-color:#C4B400"/>
	<stop  offset="1" style="stop-color:#F5EA1B"/>
</linearGradient>
<path class="st4" d="M40.68,53.94c0.2,0.15,3.83,1.28,10.48-1.66c-0.08-0.82-2.12-4.7-2.86-4.43c-7.27,2.65-10.19,2.92-9.84,3.23
	C39.58,52.09,39.91,53.36,40.68,53.94z"/>
<linearGradient id="SVGID_4_" gradientUnits="userSpaceOnUse" x1="143.0434" y1="-441.252" x2="152.3462" y2="-441.252" gradientTransform="matrix(0.227 -0.9739 0.9739 0.227 438.5136 291.3148)">
	<stop  offset="0" style="stop-color:#C4B400"/>
	<stop  offset="1" style="stop-color:#F5EA1B"/>
</linearGradient>
<path class="st5" d="M38.56,51.21c0.24,0.08,3.76-0.04,10.41-2.98c-0.08-0.82-3.23-5.3-3.97-5.03c-7.27,2.65-10.35,5.67-9.9,5.79
	C36.94,49.49,38.09,51.07,38.56,51.21z"/>
<path class="st1" d="M51.83,56.22c0,0,1.7-0.71,3.34-1.66c-2.62-8.71-9.86-13.63-9.86-13.63l-2.55,2.52
	C42.76,43.45,49.09,48.24,51.83,56.22z"/>
<linearGradient id="SVGID_5_" gradientUnits="userSpaceOnUse" x1="791.1091" y1="-108.7333" x2="796.5284" y2="-108.7333" gradientTransform="matrix(-0.9573 0.2959 0.3639 1.0648 809.3708 -85.4227)">
	<stop  offset="0" style="stop-color:#92C932"/>
	<stop  offset="1" style="stop-color:#529320"/>
</linearGradient>
<path class="st6" d="M6.38,31.67c0.35,0.32,3.27,2.17,4.8,5.23c3.84-0.8,0.81-4.61-0.25-5.92C10.38,30.29,5.4,30.77,6.38,31.67z"/>
<linearGradient id="SVGID_6_" gradientUnits="userSpaceOnUse" x1="788.9509" y1="-108.8034" x2="793.8909" y2="-108.8034" gradientTransform="matrix(-0.9573 0.2959 0.3639 1.0648 809.3708 -85.4227)">
	<stop  offset="0" style="stop-color:#92C932"/>
	<stop  offset="1" style="stop-color:#529320"/>
</linearGradient>
<path class="st7" d="M8.96,31.06c0.32,0.29,2.98,1.97,4.38,4.77c3.5-0.73,0.74-4.2-0.23-5.4C12.61,29.81,8.06,30.25,8.96,31.06z"/>
<linearGradient id="SVGID_7_" gradientUnits="userSpaceOnUse" x1="786.8981" y1="-108.9565" x2="791.2802" y2="-108.9565" gradientTransform="matrix(-0.9573 0.2959 0.3639 1.0648 809.3708 -85.4227)">
	<stop  offset="0" style="stop-color:#92C932"/>
	<stop  offset="1" style="stop-color:#529320"/>
</linearGradient>
<path class="st8" d="M11.5,30.42c0.28,0.26,2.65,1.75,3.88,4.23c3.11-0.65,0.66-3.73-0.2-4.79C14.73,29.31,10.7,29.69,11.5,30.42z"
	/>
<linearGradient id="SVGID_8_" gradientUnits="userSpaceOnUse" x1="784.867" y1="-109.0923" x2="788.8449" y2="-109.0923" gradientTransform="matrix(-0.9573 0.2959 0.3639 1.0648 809.3708 -85.4227)">
	<stop  offset="0" style="stop-color:#92C932"/>
	<stop  offset="1" style="stop-color:#529320"/>
</linearGradient>
<path class="st9" d="M13.85,29.76c0.25,0.23,2.4,1.59,3.52,3.84c2.82-0.59,0.59-3.38-0.18-4.35C16.78,28.75,13.12,29.11,13.85,29.76
	z"/>
<linearGradient id="SVGID_9_" gradientUnits="userSpaceOnUse" x1="782.8722" y1="-109.1437" x2="786.5219" y2="-109.1437" gradientTransform="matrix(-0.9573 0.2959 0.3639 1.0648 809.3708 -85.4227)">
	<stop  offset="0" style="stop-color:#92C932"/>
	<stop  offset="1" style="stop-color:#529320"/>
</linearGradient>
<path class="st10" d="M16.11,29.19c0.23,0.21,2.2,1.46,3.23,3.52c2.59-0.54,0.55-3.1-0.17-3.99C18.8,28.27,15.44,28.59,16.11,29.19z
	"/>
<linearGradient id="SVGID_10_" gradientUnits="userSpaceOnUse" x1="780.6401" y1="-109.3172" x2="784.5297" y2="-109.3172" gradientTransform="matrix(-0.9573 0.2959 0.3639 1.0648 809.3708 -85.4227)">
	<stop  offset="0" style="stop-color:#92C932"/>
	<stop  offset="1" style="stop-color:#529320"/>
</linearGradient>
<path class="st11" d="M17.96,28.48c0.23,0.25,2.23,1.46,3.34,3.68c2.79-0.58,0.83-3.85-1.03-4.81
	C19.7,27.05,17.43,27.92,17.96,28.48z"/>
<linearGradient id="SVGID_11_" gradientUnits="userSpaceOnUse" x1="778.5284" y1="-109.7271" x2="782.418" y2="-109.7271" gradientTransform="matrix(-0.9573 0.2959 0.3639 1.0648 809.3708 -85.4227)">
	<stop  offset="0" style="stop-color:#92C932"/>
	<stop  offset="1" style="stop-color:#529320"/>
</linearGradient>
<path class="st12" d="M19.83,27.42c0.23,0.25,2.23,1.46,3.34,3.68c2.79-0.58,0.83-3.85-1.03-4.81
	C21.57,25.99,19.31,26.86,19.83,27.42z"/>
<path class="st13" d="M36.35,23.29c3.4-3.43,5.88-8.46,4.41-15.58c-0.13-0.62-1.92,0.23-2.02,0.67c-1.09,5.07-3.31,8.05-6.37,10.31
	C32.96,19.39,35.49,22.38,36.35,23.29z"/>
<linearGradient id="SVGID_12_" gradientUnits="userSpaceOnUse" x1="781.0027" y1="-142.9938" x2="779.3954" y2="-131.9478" gradientTransform="matrix(-0.9357 0.3585 0.4333 1.0385 813.2079 -112.6314)">
	<stop  offset="0" style="stop-color:#92C932"/>
	<stop  offset="0.2307" style="stop-color:#8DC531"/>
	<stop  offset="0.5032" style="stop-color:#7FB92D"/>
	<stop  offset="0.7957" style="stop-color:#67A526"/>
	<stop  offset="1" style="stop-color:#529320"/>
</linearGradient>
<path class="st14" d="M24.93,23.32c-1.11,0.85-2.17,1.79-3.16,2.91c-0.23,0.26,1.66,1.35,3.04,3.34c0.07,0.1,1.81-0.28,4.12-1.29
	C27.63,26.59,26.34,24.91,24.93,23.32z"/>
<path class="st1" d="M21.08,61.6c2.92,1.35,5.56,0.26,6.69-1.03c1.17-1.33-2.58,0.59-5.27-1.89C21.74,57.97,20.09,61.14,21.08,61.6z
	"/>
<path class="st1" d="M22.82,60.36c3.2,0.34,5.34-1.55,5.98-3.13c0.66-1.63-2.24,1.39-5.6-0.09C22.25,56.72,21.73,60.25,22.82,60.36z
	"/>
<path class="st1" d="M17.72,62.55c2.52,2.04,5.31,1.62,6.69,0.63c1.42-1.02-2.62-0.05-4.68-3.15
	C19.16,59.15,16.87,61.85,17.72,62.55z"/>
<linearGradient id="SVGID_13_" gradientUnits="userSpaceOnUse" x1="46.5024" y1="93.3605" x2="64.1769" y2="93.3605" gradientTransform="matrix(0.9923 0.1237 -0.1237 0.9923 -16.3801 -50.0758)">
	<stop  offset="5.347590e-03" style="stop-color:#529320"/>
	<stop  offset="0.2847" style="stop-color:#457B18"/>
	<stop  offset="0.8735" style="stop-color:#243C05"/>
	<stop  offset="1" style="stop-color:#1D2E00"/>
</linearGradient>
<path class="st15" d="M20.87,36.33c1.76-0.99,10.7,0.23,16.13,4.24c-11.95,9.49-9.55,19.74-18.66,20.73c-1.19,0.13-2-0.88-1.27-2.49
	C19.03,54.48,31.01,43.72,20.87,36.33z"/>
<linearGradient id="SVGID_14_" gradientUnits="userSpaceOnUse" x1="-56.0266" y1="69.3866" x2="-53.8759" y2="43.858" gradientTransform="matrix(0.9183 -0.1779 0.1435 0.7114 67.8067 -1.4738)">
	<stop  offset="0" style="stop-color:#FF5500"/>
	<stop  offset="0.2116" style="stop-color:#FB5200"/>
	<stop  offset="0.4034" style="stop-color:#F04900"/>
	<stop  offset="0.5875" style="stop-color:#DE3A00"/>
	<stop  offset="0.767" style="stop-color:#C42500"/>
	<stop  offset="0.9414" style="stop-color:#A30A00"/>
	<stop  offset="1" style="stop-color:#960000"/>
</linearGradient>
<path class="st16" d="M39.24,44.65l4.66-7.66c-8.45,0.38-16.17,3.73-20.9,10c-4.74,6.29-11.07,11.85-16.56,6.49
	c2.02,9.36,13.45,6.58,18.5-0.82C29.04,46.64,34.68,44.62,39.24,44.65z"/>
<linearGradient id="SVGID_15_" gradientUnits="userSpaceOnUse" x1="-55.6622" y1="65.0608" x2="-53.8026" y2="42.9878" gradientTransform="matrix(0.9183 -0.1779 0.1435 0.7114 67.8067 -1.4738)">
	<stop  offset="0" style="stop-color:#FF5500"/>
	<stop  offset="0.1373" style="stop-color:#ED4600"/>
	<stop  offset="0.5284" style="stop-color:#BE2000"/>
	<stop  offset="0.8286" style="stop-color:#A10900"/>
	<stop  offset="1" style="stop-color:#960000"/>
</linearGradient>
<path class="st17" d="M41.68,40.22l2.21-3.24c-8.82-1.05-17.05,2.65-21.78,8.92c-4.74,6.29-8.99,12.07-15.68,7.57
	c4.76,6.55,12.24,1.4,17.29-6C27.83,41.46,37.13,40.19,41.68,40.22z"/>
<path class="st18" d="M23.23,36.97c-0.13,2.45,1.33,4.15,2.05,4.84c0.16,0.16,0.39-0.06,0.4-0.38c0.03-1.1,0.19-3.26,0.86-5.11
	C26.99,35.1,23.3,35.61,23.23,36.97z"/>
<path class="st18" d="M25.75,36.59c-0.13,2.45,1.33,4.15,2.05,4.84c0.16,0.16,0.39-0.06,0.4-0.38c0.03-1.1,0.19-3.26,0.86-5.11
	C29.51,34.72,25.82,35.24,25.75,36.59z"/>
<path class="st18" d="M28.06,36.25c-0.13,2.45,1.33,4.15,2.05,4.84c0.16,0.16,0.39-0.06,0.4-0.38c0.03-1.1,0.19-3.26,0.86-5.11
	C31.82,34.38,28.13,34.9,28.06,36.25z"/>
<path class="st18" d="M30.08,36.07c-0.13,2.45,1.33,4.15,2.05,4.84c0.16,0.16,0.39-0.06,0.4-0.38c0.03-1.1,0.19-3.26,0.86-5.11
	C33.84,34.2,30.15,34.71,30.08,36.07z"/>
<path class="st18" d="M20.59,36.84c-0.14,2.62,1.42,4.45,2.2,5.19c0.18,0.17,0.42-0.06,0.43-0.4c0.04-1.18,0.2-3.5,0.93-5.48
	C24.62,34.83,20.66,35.39,20.59,36.84z"/>
<path class="st18" d="M17.54,37.39c-0.15,2.8,1.52,4.76,2.35,5.55c0.19,0.18,0.45-0.07,0.46-0.43c0.04-1.26,0.21-3.74,0.99-5.86
	C21.85,35.25,17.62,35.84,17.54,37.39z"/>
<path class="st18" d="M14.25,37.92c-0.15,2.94,1.59,4.99,2.46,5.82c0.2,0.19,0.47-0.07,0.48-0.45c0.04-1.32,0.23-3.92,1.04-6.14
	C18.77,35.68,14.34,36.29,14.25,37.92z"/>
<path class="st18" d="M10.55,39.31c-0.16,3.1,1.68,5.27,2.6,6.14c0.21,0.2,0.5-0.07,0.51-0.48c0.04-1.39,0.24-4.14,1.1-6.48
	C15.32,36.94,10.64,37.6,10.55,39.31z"/>
<path class="st18" d="M6.04,40.39c0.11,3.56,2.43,5.85,3.57,6.76c0.26,0.21,0.56-0.13,0.54-0.6c-0.08-1.6-0.12-4.75,0.64-7.52
	C11.3,37.21,5.99,38.42,6.04,40.39z"/>
<path class="st18" d="M31.36,49.35c-1.98-1.54-2.32-3.79-2.37-4.81c-0.01-0.23,0.31-0.26,0.56-0.05c0.87,0.71,2.65,2.04,4.53,2.76
	C35.32,47.73,32.45,50.21,31.36,49.35z"/>
<path class="st18" d="M33.27,48.08c-1.98-1.54-2.32-3.79-2.37-4.81c-0.01-0.23,0.31-0.26,0.56-0.05c0.87,0.71,2.65,2.04,4.53,2.76
	C37.23,46.45,34.36,48.93,33.27,48.08z"/>
<path class="st18" d="M35,46.92c-1.98-1.54-2.32-3.79-2.37-4.81c-0.01-0.23,0.31-0.26,0.56-0.05c0.87,0.71,2.65,2.04,4.53,2.76
	C38.97,45.3,36.1,47.77,35,46.92z"/>
<path class="st18" d="M29.54,51.42c-2.12-1.65-2.49-4.07-2.54-5.16c-0.01-0.25,0.33-0.28,0.6-0.06c0.93,0.76,2.84,2.19,4.86,2.96
	C33.79,49.68,30.72,52.33,29.54,51.42z"/>
<path class="st18" d="M27.55,53.63c-2.27-1.76-2.66-4.35-2.72-5.51c-0.01-0.26,0.35-0.3,0.64-0.06c1,0.81,3.03,2.34,5.19,3.17
	C32.09,51.77,28.8,54.6,27.55,53.63z"/>
<path class="st18" d="M25.35,56.15c-2.37-1.85-2.79-4.56-2.85-5.78c-0.01-0.28,0.37-0.31,0.67-0.06c1.05,0.85,3.18,2.45,5.44,3.32
	C30.11,54.2,26.66,57.17,25.35,56.15z"/>
<path class="st18" d="M22.86,58.67c-2.51-1.95-2.94-4.81-3.01-6.1c-0.01-0.29,0.39-0.33,0.71-0.07c1.1,0.9,3.36,2.59,5.75,3.5
	C27.89,56.61,24.25,59.75,22.86,58.67z"/>
<path class="st18" d="M18.96,61.3c-2.68-2.47-2.89-5.78-2.84-7.26c0.01-0.34,0.48-0.34,0.82-0.01c1.18,1.13,3.59,3.27,6.24,4.54
	C24.94,59.41,20.45,62.66,18.96,61.3z"/>
<path class="st19" d="M62.59,0.23c-3.6,7.02-15.81,5.28-24.51,24.02c-0.34,0.73,4.84,3.77,6.17,2.15C49.61,7.96,62,9.24,63.98,0.88
	C64.16,0.13,62.86-0.29,62.59,0.23z"/>
<path class="st0" d="M56.34,0.23c-3.6,7.02-15.81,5.28-24.51,24.02c-0.34,0.73,4.83,3.77,6.17,2.15
	C43.37,7.96,55.75,9.24,57.74,0.88C57.92,0.13,56.61-0.29,56.34,0.23z"/>
<path class="st0" d="M46.47,37.81c6.24-1.99,12.32-8.61,13.5-11.51c1.47-3.62-7.01,5.95-13.97,6.33
	C44.03,32.74,44.35,38.48,46.47,37.81z"/>
<path class="st0" d="M48.93,32.4c5.68-2.91,9.56-9.07,10.55-11.94c1.19-3.46-5,5.27-11.52,6.83C46.12,27.73,47,33.39,48.93,32.4z"/>
<path class="st0" d="M47.81,41.58c5.19-1.99,10.07-6.26,11.69-9.02c2.15-3.65-4.34,3.7-11.56,4.09
	C45.9,36.75,45.57,42.44,47.81,41.58z"/>
<path class="st0" d="M47.51,45.72c5.42-1.33,10.68-5.24,12.52-8.04c2.44-3.7-4.67,3.37-12.04,2.58
	C45.91,40.03,45.17,46.3,47.51,45.72z"/>
<path class="st0" d="M48.09,29.09c6.28-4.66,10.07-12.2,10.83-15.78c0.92-4.33-5.15,7.28-12.62,10.54
	C44.18,24.78,45.95,30.68,48.09,29.09z"/>
<path class="st19" d="M45.37,34.3c3.99,0,8.28-3.54,9.25-5.44c1.21-2.37-4.8,2.81-9.09,1.43C44.32,29.9,44.02,34.31,45.37,34.3z"/>
<path class="st19" d="M44.31,31.27c3.98-0.18,7.19-3.22,8.19-5.1c1.21-2.28-3.86,2.28-8.2,1.09C43.07,26.92,42.95,31.33,44.31,31.27
	z"/>
<path class="st19" d="M46.84,37.63c3.6-0.07,7.3-2.36,8.7-4.37c1.85-2.67-3.27,1.95-7.98-0.18C46.23,32.48,45.29,37.66,46.84,37.63z
	"/>
<path class="st19" d="M46.61,40.92c3.58,0.42,7.55-1.34,9.22-3.14c2.21-2.39-3.51,1.48-7.88-1.27
	C46.71,35.73,45.06,40.74,46.61,40.92z"/>
<path class="st19" d="M42.09,28.64c4.19-0.4,7.75-3.3,8.92-5.04c1.41-2.11-4.2,2.27-8.68,1.47C41.07,24.84,40.66,28.77,42.09,28.64z
	"/>
<path class="st13" d="M43.99,24.17c2.48-2.18,5.76-6.63,4.62-16.91c-0.06-0.58-2.12-0.3-2.21,0.23c-1.78,11.2-8.12,9.61-13.85,13.11
	C32.67,20.63,43.6,23.88,43.99,24.17z"/>
<linearGradient id="SVGID_16_" gradientUnits="userSpaceOnUse" x1="25.8797" y1="33.0287" x2="33.1285" y2="51.2851">
	<stop  offset="0" style="stop-color:#92C932"/>
	<stop  offset="1" style="stop-color:#529320"/>
</linearGradient>
<path class="st20" d="M48.13,37.16c0-0.02,0.01-0.03,0.01-0.05c1.8-0.28,2.55-2.73-0.05-3.49c1.6-1.22,1.06-3.43-1.27-2.88
	c1.22-1.24,0.46-2.49-1.55-1.78c0.8-1.57-0.14-2.74-1.93-1.45c-0.92-4.12-28.76,6.1-38.09,13.09c9.1-0.62,17.97-3.54,27.15-1.24
	c1.73,0.43,2.32,2.59,1.03,3.82c-8.83,8.39-8.04,15.29-15.59,17.31c-1.15,0.31-0.77-1.68-0.77-1.68s-2.85,4.03,2.15,4
	c7.77-0.06,8.17-12.83,19.86-14.03c1.53-0.16,5.85-3.8,7.99-8.34C49.5,40.23,50.62,37.63,48.13,37.16z"/>
<path class="st0" d="M38.79,27.6c0.24-1.82-1.57-7.89,13.71-11.68C48.55,20.48,48.36,27.51,38.79,27.6z"/>
<linearGradient id="SVGID_17_" gradientUnits="userSpaceOnUse" x1="36.6339" y1="46.9456" x2="32.7298" y2="45.9399">
	<stop  offset="0" style="stop-color:#92C932"/>
	<stop  offset="1" style="stop-color:#92C932;stop-opacity:0"/>
</linearGradient>
<path class="st21" d="M31.99,46.95c1.76,0.47,3.91-0.03,4.9-0.73c1.31-0.92-1.89,0.41-3.85-1.18
	C32.49,44.59,31.23,46.75,31.99,46.95z"/>
<linearGradient id="SVGID_18_" gradientUnits="userSpaceOnUse" x1="17.8257" y1="-2.8928" x2="13.1013" y2="-4.1097" gradientTransform="matrix(0.9917 -0.1288 0.1288 0.9917 22.0163 49.958)">
	<stop  offset="0" style="stop-color:#92C932"/>
	<stop  offset="1" style="stop-color:#92C932;stop-opacity:0"/>
</linearGradient>
<path class="st22" d="M33.76,45.48c2.19,0.31,4.68-0.59,5.75-1.56c1.42-1.29-2.2,0.75-4.82-0.88
	C33.95,42.58,32.82,45.34,33.76,45.48z"/>
<linearGradient id="SVGID_19_" gradientUnits="userSpaceOnUse" x1="2.5027" y1="-70.5856" x2="-2.8209" y2="-71.9568" gradientTransform="matrix(0.9562 -0.2927 0.2927 0.9562 59.5248 109.895)">
	<stop  offset="0" style="stop-color:#92C932"/>
	<stop  offset="1" style="stop-color:#92C932;stop-opacity:0"/>
</linearGradient>
<path class="st23" d="M35.23,43.43c2.51-0.02,5.1-1.45,6.09-2.72c1.31-1.68-2.29,1.22-5.56-0.16
	C34.83,40.16,34.14,43.44,35.23,43.43z"/>
<linearGradient id="SVGID_20_" gradientUnits="userSpaceOnUse" x1="54.7637" y1="-119.5573" x2="49.398" y2="-120.9393" gradientTransform="matrix(1.0715 -0.4691 0.4389 0.9019 35.6349 171.6268)">
	<stop  offset="0" style="stop-color:#92C932"/>
	<stop  offset="1" style="stop-color:#92C932;stop-opacity:0"/>
</linearGradient>
<path class="st24" d="M35.35,40.81c2.89-0.44,5.65-2.33,6.7-3.73c0.64-0.85-3.18,0.81-7.26,1.04
	C33.65,38.18,34.11,40.99,35.35,40.81z"/>
<linearGradient id="SVGID_21_" gradientUnits="userSpaceOnUse" x1="55.3116" y1="-185.6548" x2="50.5273" y2="-186.8871" gradientTransform="matrix(1.0797 -0.4499 -0.3482 -0.9407 -86.4003 -115.1902)">
	<stop  offset="0" style="stop-color:#92C932"/>
	<stop  offset="1" style="stop-color:#92C932;stop-opacity:0"/>
</linearGradient>
<path class="st25" d="M32.01,36.96c2.14-1.44,5.26-1.88,6.95-1.62c1.02,0.16-2.6,1.38-5.33,3.65
	C32.86,39.62,31.09,37.58,32.01,36.96z"/>
<linearGradient id="SVGID_22_" gradientUnits="userSpaceOnUse" x1="48.8543" y1="-138.562" x2="44.6496" y2="-139.6451" gradientTransform="matrix(1.0236 -0.5661 -0.4497 -0.8966 -78.8901 -62.4886)">
	<stop  offset="0" style="stop-color:#92C932"/>
	<stop  offset="1" style="stop-color:#92C932;stop-opacity:0"/>
</linearGradient>
<path class="st26" d="M28.43,36.73c1.74-1.46,4.44-2.12,5.96-2.04c0.92,0.05-2.14,1.44-4.31,3.69
	C29.47,39.01,27.68,37.36,28.43,36.73z"/>
<linearGradient id="SVGID_23_" gradientUnits="userSpaceOnUse" x1="45.5722" y1="-136.9893" x2="42.1171" y2="-137.8792" gradientTransform="matrix(1.0236 -0.5661 -0.4497 -0.8966 -78.8901 -62.4886)">
	<stop  offset="0" style="stop-color:#92C932"/>
	<stop  offset="1" style="stop-color:#92C932;stop-opacity:0"/>
</linearGradient>
<path class="st27" d="M25.26,36.71c1.43-1.2,3.65-1.74,4.9-1.68c0.76,0.04-1.76,1.19-3.54,3.03C26.11,38.58,24.64,37.23,25.26,36.71
	z"/>
<linearGradient id="SVGID_24_" gradientUnits="userSpaceOnUse" x1="77.8157" y1="108.1191" x2="84.0409" y2="116.9695" gradientTransform="matrix(0.9706 0.2407 -0.2407 0.9706 -24.4463 -99.8941)">
	<stop  offset="0" style="stop-color:#92C932"/>
	<stop  offset="0.2464" style="stop-color:#7FB92D"/>
	<stop  offset="0.7326" style="stop-color:#5E9D23"/>
	<stop  offset="1" style="stop-color:#529320"/>
</linearGradient>
<path class="st28" d="M52.5,15.93c-12.82,1.64-14.79,7-15.51,7.03c-11.34,0.42-20.21,12.93-29.82,8.31C6.16,30.78,0,29.37,0,36.45
	c0,3.6,2.71,7.1,6.64,4.32c12.26-8.69,24.17-4.24,30.15-8.62c3.75-2.75,4.73-5.27,4.55-6.95C41.23,24.12,40.89,19.92,52.5,15.93z"/>
<path class="st29" d="M7.16,34.58c0.5,0.46-3.37,3.87-3.89,3.36C1.82,36.51,5.2,32.76,7.16,34.58z"/>
<path class="st1" d="M27.14,23.85c-2.55-1.07,0.89-10.71-0.76-7.98C20.77,25.17,24.88,29.01,27.14,23.85z"/>
<path class="st1" d="M25.23,23.59c-2.47,0.04-0.39-8.35-1.4-5.86C20.39,26.15,23.99,28.06,25.23,23.59z"/>
<path class="st1" d="M30.49,22.87c-2.93-2.62,6.04-13.39,2.92-10.63C22.7,21.73,25.5,28.52,30.49,22.87z"/>
<path class="st1" d="M34.42,20.6c-2.16-2.62,6.95-10.7,3.91-8.74C28.01,18.54,29.44,24.76,34.42,20.6z"/>
<path class="st1" d="M38.62,21.39c1.46-4.06,6.32-3.4,6.09-7.96c-1.21,3.37-8.49,3.14-10.15,8.56L38.62,21.39z"/>
<path class="st1" d="M35.59,21.51c1.11-4.17,6.38-5.05,5.77-9.56c-0.93,3.46-8.03,4.8-9.23,10.34L35.59,21.51z"/>
<linearGradient id="SVGID_25_" gradientUnits="userSpaceOnUse" x1="39.9039" y1="25.5209" x2="41.6331" y2="27.1637" gradientTransform="matrix(0.9999 0.0125 -0.0125 0.9999 -2.0424 -4.9336)">
	<stop  offset="0" style="stop-color:#92C932"/>
	<stop  offset="1" style="stop-color:#529320"/>
</linearGradient>
<path class="st30" d="M38.69,22.86c2.97-2.03,3.65-5.29,3.15-6.11C39.93,21.39,24.05,28.15,38.69,22.86z"/>
<linearGradient id="SVGID_26_" gradientUnits="userSpaceOnUse" x1="73.0294" y1="79.5882" x2="76.0876" y2="81.0005" gradientTransform="matrix(0.9845 0.1752 -0.1752 0.9845 -23.213 -71.7252)">
	<stop  offset="0" style="stop-color:#92C932"/>
	<stop  offset="0.2487" style="stop-color:#8EC631"/>
	<stop  offset="0.5" style="stop-color:#82BB2D"/>
	<stop  offset="0.7515" style="stop-color:#6EAA28"/>
	<stop  offset="1" style="stop-color:#529320"/>
</linearGradient>
<path class="st31" d="M36.04,22.81c2.56-1.88,3.91-7.43,3.14-7.12C36.44,21.24,25.39,26.7,36.04,22.81z"/>
<linearGradient id="SVGID_27_" gradientUnits="userSpaceOnUse" x1="77.442" y1="89.2773" x2="79.9187" y2="90.039" gradientTransform="matrix(0.9792 0.2031 -0.2031 0.9792 -25.7307 -83.1565)">
	<stop  offset="0" style="stop-color:#92C932"/>
	<stop  offset="0.2235" style="stop-color:#8CC430"/>
	<stop  offset="0.5228" style="stop-color:#7BB62C"/>
	<stop  offset="0.8636" style="stop-color:#5F9E24"/>
	<stop  offset="1" style="stop-color:#529320"/>
</linearGradient>
<path class="st32" d="M32.9,23.02c2.89-2.87,3.28-8.4,2.67-7.85C32.47,19.84,24.76,30.19,32.9,23.02z"/>
<linearGradient id="SVGID_28_" gradientUnits="userSpaceOnUse" x1="55.3115" y1="69.6497" x2="58.99" y2="69.6497" gradientTransform="matrix(0.99 0.141 -0.141 0.99 -19.586 -56.2859)">
	<stop  offset="0" style="stop-color:#92C932"/>
	<stop  offset="1" style="stop-color:#529320"/>
</linearGradient>
<path class="st33" d="M28.51,24.34c-3.09-1.42,1.83-11.04-0.06-8.58C22.04,24.13,25.83,29.12,28.51,24.34z"/>
<linearGradient id="SVGID_29_" gradientUnits="userSpaceOnUse" x1="56.6052" y1="77.7349" x2="61.1721" y2="77.7349" gradientTransform="matrix(0.9877 0.1566 -0.1566 0.9877 -20.8943 -62.4109)">
	<stop  offset="0" style="stop-color:#92C932"/>
	<stop  offset="1" style="stop-color:#529320"/>
</linearGradient>
<path class="st34" d="M27.06,25.8c-2.87,1.1-2.83-8.11-3.46-6.16C21.42,26.25,25.14,30.01,27.06,25.8z"/>
<linearGradient id="SVGID_30_" gradientUnits="userSpaceOnUse" x1="78.21" y1="109.076" x2="83.2376" y2="109.076" gradientTransform="matrix(0.9693 0.2459 -0.2459 0.9693 -27.6392 -99.2919)">
	<stop  offset="0" style="stop-color:#92C932"/>
	<stop  offset="1" style="stop-color:#529320"/>
</linearGradient>
<path class="st35" d="M25.91,26.92c-2.57,1.06-3.91-5.72-3.92-3.55C21.93,30.74,26.49,30.59,25.91,26.92z"/>
<linearGradient id="SVGID_31_" gradientUnits="userSpaceOnUse" x1="68.2951" y1="80.8262" x2="70.728" y2="81.4196" gradientTransform="matrix(0.984 0.1783 -0.1783 0.984 -23.5592 -72.2888)">
	<stop  offset="0" style="stop-color:#92C932"/>
	<stop  offset="1" style="stop-color:#529320"/>
</linearGradient>
<path class="st36" d="M31.08,24.04c-0.9-2.43,3.69-11.35,1.42-9C25.14,22.63,27.4,28.53,31.08,24.04z"/>
<path class="st37" d="M32.04,26.45c1.24,2.78-2.7,5.15-5.8,2.87C27.34,25.01,31.38,24.97,32.04,26.45z"/>
<path class="st38" d="M30.43,28.1c0.11,2.4-3.41,2.69-3.51,0.27C26.82,25.97,30.35,25.68,30.43,28.1z"/>
<path class="st39" d="M29.38,26.8c0.77-0.07,0.81,0.95,0.04,1.03C28.64,27.88,28.6,26.86,29.38,26.8z"/>
<path class="st29" d="M24.25,29.65c0.81,1.12,8.86,3.41,9.37-4.42c0,0,1.64-1.43,6.21-2.3C35.1,21.56,25.21,23.51,24.25,29.65z
	 M26.48,29.23c0.7-3.19,4.16-3.5,4.98-2.39C33.08,29.02,28.39,30.54,26.48,29.23z"/>
<linearGradient id="SVGID_32_" gradientUnits="userSpaceOnUse" x1="52.4215" y1="39.7135" x2="43.1093" y2="41.5682">
	<stop  offset="0" style="stop-color:#92C932"/>
	<stop  offset="1" style="stop-color:#529320"/>
</linearGradient>
<path class="st40" d="M46.36,39.35c-0.94-0.43-1.61,3.23-0.51,3.21c2.54-0.04,5.16-1.65,6.15-3.07
	C53.31,37.61,49.68,40.86,46.36,39.35z"/>
<linearGradient id="SVGID_33_" gradientUnits="userSpaceOnUse" x1="52.7887" y1="41.4182" x2="40.6353" y2="43.8388">
	<stop  offset="0" style="stop-color:#92C932"/>
	<stop  offset="1" style="stop-color:#529320"/>
</linearGradient>
<path class="st41" d="M43.01,45.19c3.56,0.52,7.59-1.13,9.31-2.88c2.27-2.32-3.55,1.38-7.84-1.49C43.26,40,41.47,44.96,43.01,45.19z
	"/>
<linearGradient id="SVGID_34_" gradientUnits="userSpaceOnUse" x1="50.8912" y1="44.6811" x2="38.612" y2="45.6257">
	<stop  offset="0" style="stop-color:#92C932"/>
	<stop  offset="1" style="stop-color:#529320"/>
</linearGradient>
<path class="st42" d="M40.58,47.25c3.47,0.97,7.67-0.17,9.6-1.69c2.55-2.02-3.7,0.93-7.59-2.46C41.49,42.14,39.08,46.83,40.58,47.25
	z"/>
<linearGradient id="SVGID_35_" gradientUnits="userSpaceOnUse" x1="45.4434" y1="47.5377" x2="38.2217" y2="47.6529">
	<stop  offset="0" style="stop-color:#92C932"/>
	<stop  offset="0.9764" style="stop-color:#529320"/>
</linearGradient>
<path class="st43" d="M40.62,46.18c-0.6-0.7-2.53,2.03-1.63,2.43c2.09,0.91,4.82,0.57,6.17-0.22
	C46.93,47.34,42.75,48.64,40.62,46.18z"/>
</svg>
