<?xml version="1.0" encoding="utf-8"?>
<!-- Generator: Adobe Illustrator 24.1.2, SVG Export Plug-In . SVG Version: 6.00 Build 0)  -->
<svg version="1.1" id="Layer_1" xmlns="http://www.w3.org/2000/svg" xmlns:xlink="http://www.w3.org/1999/xlink" x="0px" y="0px"
	 width="64px" height="64px" viewBox="0 0 64 64" style="enable-background:new 0 0 64 64;" xml:space="preserve">
<style type="text/css">
	.st0{fill:#4A3728;}
	.st1{fill:#241B13;}
	.st2{fill:url(#SVGID_1_);}
	.st3{opacity:0.2;fill:#FFFFFF;}
</style>
<path class="st0" d="M26.73,59.54c0,0,1.91,0.98,1.96,2.91c0.08,2.87,19.79,1.4,19.47-1.45c-0.46-4.09,1.28-9.62,1.28-9.62
	L26.73,59.54z"/>
<path class="st1" d="M27.82,59.54h-1.61c0,0,2.08,0.94,2.48,2.91C28.64,60.47,27.82,59.54,27.82,59.54z"/>
<radialGradient id="SVGID_1_" cx="34.5611" cy="26.1066" r="26.6799" gradientTransform="matrix(0.9988 -0.1364 0.1871 1.3748 -11.1351 -7.2048)" gradientUnits="userSpaceOnUse">
	<stop  offset="0.4909" style="stop-color:#735C48"/>
	<stop  offset="0.6901" style="stop-color:#705A46"/>
	<stop  offset="0.8188" style="stop-color:#68523F"/>
	<stop  offset="0.9272" style="stop-color:#594434"/>
	<stop  offset="1" style="stop-color:#4A3728"/>
</radialGradient>
<path class="st2" d="M53.75,34.66c-0.02-1.27-1.57-11.44-2.39-13.61c-0.52-1.38-5.24-10.51-5.86-11.43c-0.68-1-4.94-6.13-6.54-7.68
	c-2.95-2.86-7.54-0.2-5.61,4.59c-1.87-1.12-5.57-1.68-7.22-2.44c-4.43-2.03-7.05,5.75,3.06,9.4c2.54,1.91,7,6.41,8.48,8.33
	c0.21,0.62,0.42,1.2,0.63,1.76c-0.35-0.18-0.67-0.32-0.94-0.4c-1.76-0.54-5.5-0.16-13.84-1.24c-3.6-0.47-3.83,2.09-10.37,7.89
	c-1.24,1.1-0.23,2.53,1.35,3.19c2.38,0.56,6.54-0.03,9.85-3.84c0,0,4.78,3.54,9.36,2.93c0,0,1.54,5.91,4.08,7.44
	c-2.24,3.78-6.32,2.8-7.71,5.01c-5.59,0.49-7.39-3.07-9.6-3.2c-0.49-4.75-3.54-7.4-5.98-8.34c-1.55-0.4-3.31-0.28-3.8,0.42
	c-1.32,1.87,0.71,3.75,0.79,10.37c0.06,5.11,3.27,7.12,12.76,13.96c5.69,4.1,21.8,2.02,25.22-6.37
	C50.58,48.68,53.79,36.93,53.75,34.66z"/>
<path class="st3" d="M13.78,41.12c0.21-0.73-0.47-5.22-1.01-5.69c-1.36-1.18-2.15-0.59-2.07,0.12c0.12,1.08,0.79,4.36,1.04,6.11
	C11.85,42.4,13.64,41.61,13.78,41.12z"/>
<path class="st1" d="M45.21,15.78C43.45,12.37,36.46,8,33.95,5.97c-0.24-0.2-1.19,0.98-0.95,1.18c1.98,1.6,9.4,6.48,10.87,9.33
	c1.7,3.31,6.46,11.18,6.46,11.18S47.34,19.9,45.21,15.78z"/>
<path class="st1" d="M48.77,51.12c0,0-1.93,4.28-0.61,9.87c0.04-3.06,0.73-6.34,1.61-8.38C49.91,52.3,48.77,51.12,48.77,51.12z"/>
<path class="st3" d="M17.51,28.47c-0.27,0.55-2.96,2.28-3.49,2.08c-1.32-0.51-1.16-1.24-0.74-1.54c0.63-0.45,2.4-1.81,3.44-2.5
	C18.01,25.66,17.94,27.61,17.51,28.47z"/>
<path class="st3" d="M28.05,7.2c-0.59,0.16-3.68-0.66-3.88-1.18c-0.51-1.32,0.56-1.92,1.06-1.81c0.76,0.16,2.54,0.8,3.75,1.1
	C29.66,5.48,29.44,6.81,28.05,7.2z"/>
<path class="st3" d="M39.5,5.32c-0.6-0.11-3.43-2.11-3.39-2.67c0.12-1.41,1.01-1.78,1.41-1.47c0.61,0.48,2.26,2.13,3.22,2.94
	C41.27,4.56,40.38,5.48,39.5,5.32z"/>
<path class="st1" d="M52.06,20.78c-0.56-1.48-5.32-10.66-5.94-11.59C45.41,8.15,41.13,3,39.47,1.4c-1.62-1.57-3.84-1.84-5.53-0.69
	c-1.1,0.75-2.06,2.3-1.75,4.47c-0.96-0.35-2.04-0.65-3.03-0.92c-1.08-0.29-2.1-0.57-2.73-0.86c-1.33-0.61-2.65-0.52-3.65,0.24
	c-1.03,0.79-1.51,2.15-1.28,3.64c0.2,1.34,1.33,4.68,7.32,6.88c2.43,1.85,6.63,6.07,8.17,8.03c0.02,0.05,0.03,0.09,0.05,0.14
	c-0.83-0.16-1.93-0.22-3.46-0.29c-2.28-0.11-5.41-0.26-9.97-0.85c-2.73-0.35-3.85,0.85-6.08,3.25c-1.18,1.26-2.64,2.84-4.88,4.83
	c-0.62,0.55-0.9,1.26-0.78,1.99c0.04,0.27,0.15,0.55,0.3,0.81c-0.89,0.08-1.68,0.37-2.09,0.94c-0.89,1.26-0.6,2.5-0.2,4.23
	c0.34,1.48,0.81,3.51,0.85,6.59c0.06,5.2,3.18,7.45,11.51,13.44l1.56,1.12c1.98,1.42,5.52,2.82,10.31,1.42
	c-4.53,0.29-6.92-0.84-9.44-2.65l-1.56-1.13c-8.1-5.83-10.83-7.79-10.88-12.22c-0.04-3.24-0.53-5.36-0.89-6.91
	c-0.38-1.65-0.51-2.34-0.04-3.01c0.12-0.17,0.69-0.34,1.47-0.34c0.43,0,0.93,0.05,1.46,0.18l0.05,0.02
	c2.36,0.93,5.02,3.43,5.46,7.69l0.07,0.64l0.63,0.04c0.6,0.04,1.24,0.47,2.06,1.01c1.61,1.07,3.81,2.53,7.65,2.19l0.37-0.03
	l0.2-0.32c0.46-0.72,1.37-1.02,2.53-1.4c1.68-0.55,3.77-1.23,5.19-3.63l0.39-0.65l-0.65-0.39c-1.87-1.12-3.34-5.42-3.74-6.98
	l-0.17-0.65l-0.66,0.09c-4.23,0.56-8.77-2.75-8.82-2.79l-0.55-0.41l-0.45,0.52c-3.24,3.73-7.19,4.03-9.06,3.61
	c-0.74-0.32-1.3-0.85-1.38-1.29c-0.01-0.08-0.05-0.31,0.29-0.61c2.3-2.04,3.85-3.71,4.98-4.93c2.11-2.27,2.82-3.04,4.79-2.78
	c4.62,0.6,7.78,0.75,10.09,0.86c1.76,0.08,2.92,0.14,3.62,0.35c0.23,0.07,0.5,0.19,0.82,0.36l1.74,0.9l-0.7-1.84
	c-0.21-0.56-0.42-1.13-0.62-1.73l-0.12-0.22c-1.54-2.01-6.09-6.57-8.62-8.48l-0.2-0.11c-3.69-1.33-6.1-3.47-6.45-5.72
	c-0.14-0.94,0.12-1.76,0.7-2.21c0.55-0.42,1.3-0.44,2.12-0.07c0.74,0.34,1.82,0.63,2.96,0.94c1.49,0.41,3.19,0.86,4.19,1.46
	l1.92,1.15l-0.84-2.08c-0.88-2.18-0.19-3.65,0.75-4.29c0.9-0.62,2.38-0.7,3.65,0.53C40,4,44.21,9.07,44.88,10.05
	c0.58,0.86,5.26,9.89,5.78,11.27c0.78,2.07,2.33,12.21,2.35,13.36c0.04,2.08-3.12,13.74-4.23,16.45c-0.6,1.47-0.38,3.41-0.3,4.91
	c0.5-1.82,0.92-2.45,1.68-4.34c1.06-2.61,4.38-14.57,4.34-17.05v0C54.48,33.3,52.91,23.04,52.06,20.78z M24.46,30.18
	c1.36,0.89,4.98,2.97,8.69,2.75c0.45,1.5,1.67,5.11,3.61,6.81c-1.1,1.45-2.56,1.93-3.98,2.4c-1.2,0.39-2.35,0.77-3.11,1.71
	c-3.1,0.18-4.9-1.01-6.36-1.98c-0.75-0.5-1.43-0.95-2.17-1.15c-0.46-3.1-1.97-5.35-3.75-6.82C19.64,33.62,22.21,32.55,24.46,30.18z"
	/>
</svg>
