<?xml version="1.0" encoding="utf-8"?>
<!-- Generator: Adobe Illustrator 15.0.0, SVG Export Plug-In . SVG Version: 6.00 Build 0)  -->
<!DOCTYPE svg PUBLIC "-//W3C//DTD SVG 1.1//EN" "http://www.w3.org/Graphics/SVG/1.1/DTD/svg11.dtd" [
	<!ENTITY ns_flows "http://ns.adobe.com/Flows/1.0/">
	<!ENTITY ns_extend "http://ns.adobe.com/Extensibility/1.0/">
	<!ENTITY ns_ai "http://ns.adobe.com/AdobeIllustrator/10.0/">
	<!ENTITY ns_graphs "http://ns.adobe.com/Graphs/1.0/">
]>
<svg version="1.1" id="Layer_1" xmlns:x="&ns_extend;" xmlns:i="&ns_ai;" xmlns:graph="&ns_graphs;"
	 xmlns="http://www.w3.org/2000/svg" xmlns:xlink="http://www.w3.org/1999/xlink" xmlns:a="http://ns.adobe.com/AdobeSVGViewerExtensions/3.0/"
	 x="0px" y="0px" width="64px" height="64px" viewBox="0 0 64 64" enable-background="new 0 0 64 64" xml:space="preserve">
<radialGradient id="SVGID_1_" cx="19.686" cy="45.3262" r="32.7964" gradientTransform="matrix(1.0667 0 0 0.7245 20.6246 2.0842)" gradientUnits="userSpaceOnUse">
	<stop  offset="0" style="stop-color:#FCC223"/>
	<stop  offset="0.2748" style="stop-color:#F9BE20"/>
	<stop  offset="0.5553" style="stop-color:#EEB218"/>
	<stop  offset="0.8375" style="stop-color:#DE9D0A"/>
	<stop  offset="1" style="stop-color:#D18E00"/>
	<a:midPointStop  offset="0" style="stop-color:#FCC223"/>
	<a:midPointStop  offset="0.703" style="stop-color:#FCC223"/>
	<a:midPointStop  offset="1" style="stop-color:#D18E00"/>
</radialGradient>
<path fill="url(#SVGID_1_)" d="M58.015,25.491c9.993,2.138,9.34,19.833-16.475,25.781C13.996,57.62,3.828,48.295,0.75,43.15
	C-5.354,32.944,26.86,18.826,58.015,25.491z"/>
<path fill="#014D87" d="M0.538,43.508c12.264,1.822,15.329-6.742,20.531-9.695c-7.402-3.404-6.581,5.115-17.246,6.266
	C1.703,40.307,0.538,43.508,0.538,43.508z"/>
<path fill="#006DAE" d="M7.506,47.088c-1.337,1.234,1.844,7.626,2.473,6.847c7.979-9.876,10.66-17.738,10.712-19.536
	C15.094,33.449,17.85,37.545,7.506,47.088z"/>
<radialGradient id="SVGID_2_" cx="68.9141" cy="-30.6416" r="9.1479" gradientTransform="matrix(1.8857 -0.3743 0.3356 2.117 -94.3901 104.618)" gradientUnits="userSpaceOnUse">
	<stop  offset="0" style="stop-color:#FCC223"/>
	<stop  offset="0.2748" style="stop-color:#F9BE20"/>
	<stop  offset="0.5553" style="stop-color:#EEB218"/>
	<stop  offset="0.8375" style="stop-color:#DE9D0A"/>
	<stop  offset="1" style="stop-color:#D18E00"/>
	<a:midPointStop  offset="0" style="stop-color:#FCC223"/>
	<a:midPointStop  offset="0.703" style="stop-color:#FCC223"/>
	<a:midPointStop  offset="1" style="stop-color:#D18E00"/>
</radialGradient>
<path fill="url(#SVGID_2_)" d="M45.425,26.513c1.439,9.075-27.835,14.887-29.274,5.81c-1.973-12.444,0.543-19.665,11.633-21.866
	C38.87,8.255,43.452,14.065,45.425,26.513z"/>
<radialGradient id="SVGID_3_" cx="4.3926" cy="36.207" r="13.151" gradientTransform="matrix(1.0667 0 0 0.9014 20.6246 -2.8727)" gradientUnits="userSpaceOnUse">
	<stop  offset="0" style="stop-color:#019BE0"/>
	<stop  offset="1" style="stop-color:#0174A8"/>
	<a:midPointStop  offset="0" style="stop-color:#019BE0"/>
	<a:midPointStop  offset="0.5" style="stop-color:#019BE0"/>
	<a:midPointStop  offset="1" style="stop-color:#0174A8"/>
</radialGradient>
<path fill="url(#SVGID_3_)" d="M45.425,26.513c-0.115-0.72-0.24-1.413-0.373-2.088c-5.637,7.712-21.527,10.866-29.195,5.797
	c0.083,0.683,0.179,1.382,0.294,2.102C17.819,42.854,47.094,37.043,45.425,26.513z"/>
</svg>
