<?xml version="1.0" encoding="utf-8"?>
<!-- Generator: Adobe Illustrator 15.0.0, SVG Export Plug-In . SVG Version: 6.00 Build 0)  -->
<!DOCTYPE svg PUBLIC "-//W3C//DTD SVG 1.1//EN" "http://www.w3.org/Graphics/SVG/1.1/DTD/svg11.dtd" [
	<!ENTITY ns_flows "http://ns.adobe.com/Flows/1.0/">
	<!ENTITY ns_extend "http://ns.adobe.com/Extensibility/1.0/">
	<!ENTITY ns_ai "http://ns.adobe.com/AdobeIllustrator/10.0/">
	<!ENTITY ns_graphs "http://ns.adobe.com/Graphs/1.0/">
]>
<svg version="1.1" id="Layer_1" xmlns:x="&ns_extend;" xmlns:i="&ns_ai;" xmlns:graph="&ns_graphs;"
	 xmlns="http://www.w3.org/2000/svg" xmlns:xlink="http://www.w3.org/1999/xlink" xmlns:a="http://ns.adobe.com/AdobeSVGViewerExtensions/3.0/"
	 x="0px" y="0px" width="64px" height="64px" viewBox="0 0 64 64" enable-background="new 0 0 64 64" xml:space="preserve">
<path fill="#1E110E" d="M38.334,58.186c-9.471-5.871-6.744-15.371-6.744-15.371l28.525,5.029c0,0-0.688,9.859-11.594,12.137
	c0,0-2.127,0.15-5.184-0.389C40.281,59.055,38.334,58.186,38.334,58.186z"/>
<path fill="#FFD8B4" d="M48.457,30.558c7.391,1.303,9.891,7.952,8.082,15.614c-0.367,1.539-1.195,3.707-2.068,5.537
	c-1.814,3.801-8.445,6.479-11.947,6.123c-2.518-0.256-6.547-5.264-6.951-9.457c-0.197-2.018-0.234-4.338-0.049-5.908
	C36.443,34.646,41.063,29.255,48.457,30.558z"/>
<path fill="#A88868" d="M38.676,40.092c1.775-0.674,4.678-0.283,5.701,0.57c0.219,0.174,0.031,0.854-0.16,0.73
	c-1.506-0.963-3.979-1.434-5.643-0.92C38.352,40.539,38.41,40.188,38.676,40.092z"/>
<path fill="#A88868" d="M54.387,42.861c-1.438-1.24-4.295-1.865-5.553-1.414c-0.266,0.088-0.322,0.791-0.098,0.742
	c1.746-0.391,4.227,0.012,5.617,1.064C54.539,43.395,54.605,43.043,54.387,42.861z"/>
<path fill="#DEB38A" d="M43.383,48.922c0.203-0.082,0.566,0.201,1.627,0.449c1.063,0.248,1.516,0.154,1.66,0.316
	c0.176,0.195-0.311,0.781-1.832,0.426C43.318,49.76,43.139,49.021,43.383,48.922z"/>
<linearGradient id="SVGID_1_" gradientUnits="userSpaceOnUse" x1="338.0234" y1="87.1445" x2="338.0234" y2="56.627" gradientTransform="matrix(-0.9848 -0.1736 -0.1736 0.9848 391.4428 31.945)">
	<stop  offset="0.05" style="stop-color:#1E110E"/>
	<stop  offset="0.2334" style="stop-color:#31211E"/>
	<stop  offset="0.5223" style="stop-color:#493632"/>
	<stop  offset="0.7" style="stop-color:#523E3A"/>
	<a:midPointStop  offset="0.05" style="stop-color:#1E110E"/>
	<a:midPointStop  offset="0.4" style="stop-color:#1E110E"/>
	<a:midPointStop  offset="0.7" style="stop-color:#523E3A"/>
</linearGradient>
<path fill="url(#SVGID_1_)" d="M39.947,30.171c-0.633-1.354,6.967-2.637,13.414,0.271c6.471,2.733,8.49,13.508,7.326,20.114
	c-0.781,4.43-5.365,9.574-12.166,9.424c8.195-3.82,7.912-9.094,6.949-15.58c-4.549-3.824-10.156-5.525-13.516-9.736
	c0.24,1.619-2.795,3.07-4.822,6.504c-3.078,5.211-5.15,10.668,1.201,17.018c-5.934-2.098-8.992-8.588-8.211-13.018
	C31.109,39.58,37.381,28.916,39.947,30.171z"/>
<path fill="#1E110E" d="M59.648,49.338c-3.568-7.033-18.752-9.275-19.701-19.167C43.625,38.98,59.428,43.143,59.648,49.338z"/>
<path fill="#EBAD81" d="M40.4,52.135c-2.17,2.301,3.072,3.246,4.762,0.996L40.4,52.135z"/>
<path fill="#DE935D" d="M41.67,51.756c1.152-0.34,1.938,0.699,3.492,1.375c-1.508,0.393-3.486,0.133-3.664-0.512
	c0,0-0.646,0.322-1.152-0.254C39.779,51.721,40.564,50.941,41.67,51.756z"/>
<path fill="#EBC4A0" d="M53.475,46.439c-0.313,1.777-6.053,0.766-5.689-1.291C48.639,42.23,53.965,43.256,53.475,46.439z"/>
<path fill="#613F34" d="M53.475,46.439c-0.313,1.777-6.055,0.766-5.691-1.293C48.078,46.178,52.873,47.148,53.475,46.439z"/>
<path fill="#EBC4A0" d="M38.309,43.766c-0.314,1.777,5.426,2.789,5.789,0.732C44.293,41.465,38.938,40.604,38.309,43.766z"/>
<path fill="#613F34" d="M38.309,43.766c-0.314,1.777,5.426,2.789,5.789,0.732C43.469,45.365,38.633,44.637,38.309,43.766z"/>
<linearGradient id="SVGID_2_" gradientUnits="userSpaceOnUse" x1="-22.2388" y1="-518.7349" x2="-22.2388" y2="-527.5005" gradientTransform="matrix(-2.7664 0.8895 0.8472 2.6347 410.4337 1416.0867)">
	<stop  offset="0" style="stop-color:#DB0100"/>
	<stop  offset="0.5836" style="stop-color:#F31317"/>
	<stop  offset="1" style="stop-color:#FF1C23"/>
	<a:midPointStop  offset="0" style="stop-color:#DB0100"/>
	<a:midPointStop  offset="0.4242" style="stop-color:#DB0100"/>
	<a:midPointStop  offset="1" style="stop-color:#FF1C23"/>
</linearGradient>
<path fill="url(#SVGID_2_)" d="M26.182,9.989c1.811-7.38,13.074-8.346,15.561-0.609c1.67,5.19-0.961,11.332-9.023,20.138
	c-3.408-6.134-16.494-1.49-19.537-10.953C10.693,10.829,20.41,5.049,26.182,9.989z"/>
<path fill="#BA9757" d="M25.666,58.186c9.471-5.871,6.744-15.371,6.744-15.371L3.885,47.844c0,0,0.688,9.859,11.594,12.137
	c0,0,2.127,0.15,5.184-0.389C23.719,59.055,25.666,58.186,25.666,58.186z"/>
<path fill="#EBC199" d="M15.543,30.558c-7.391,1.303-9.891,7.952-8.082,15.614c0.367,1.539,1.195,3.707,2.068,5.537
	c1.814,3.801,8.445,6.479,11.947,6.123c2.518-0.256,6.547-5.264,6.951-9.457c0.197-2.018,0.234-4.338,0.049-5.908
	C27.557,34.646,22.938,29.255,15.543,30.558z"/>
<path fill="#A17C5B" d="M25.324,40.092c-1.775-0.674-4.678-0.283-5.701,0.57c-0.219,0.174-0.031,0.854,0.16,0.73
	c1.506-0.963,3.979-1.434,5.643-0.92C25.648,40.539,25.59,40.188,25.324,40.092z"/>
<path fill="#A17C5B" d="M9.613,42.861c1.438-1.24,4.295-1.865,5.553-1.414c0.266,0.088,0.322,0.791,0.098,0.742
	c-1.746-0.391-4.227,0.012-5.617,1.064C9.461,43.395,9.395,43.043,9.613,42.861z"/>
<path fill="#C99B71" d="M20.617,48.922c-0.203-0.082-0.566,0.201-1.627,0.449c-1.063,0.248-1.516,0.154-1.66,0.316
	c-0.176,0.195,0.311,0.781,1.832,0.426C20.682,49.76,20.861,49.021,20.617,48.922z"/>
<linearGradient id="SVGID_3_" gradientUnits="userSpaceOnUse" x1="-258.4038" y1="-17.9941" x2="-258.4038" y2="-48.5117" gradientTransform="matrix(0.9848 -0.1736 0.1736 0.9848 278.1725 31.945)">
	<stop  offset="0.05" style="stop-color:#BA9757"/>
	<stop  offset="0.1973" style="stop-color:#C6A265"/>
	<stop  offset="0.5085" style="stop-color:#DBB77D"/>
	<stop  offset="0.7" style="stop-color:#E3BE86"/>
	<a:midPointStop  offset="0.05" style="stop-color:#BA9757"/>
	<a:midPointStop  offset="0.4" style="stop-color:#BA9757"/>
	<a:midPointStop  offset="0.7" style="stop-color:#E3BE86"/>
</linearGradient>
<path fill="url(#SVGID_3_)" d="M24.053,30.171c0.633-1.354-6.967-2.637-13.414,0.271c-6.471,2.733-8.49,13.508-7.326,20.114
	c0.781,4.43,5.365,9.574,12.166,9.424c-8.195-3.82-7.912-9.094-6.949-15.58c4.549-3.824,10.156-5.525,13.516-9.736
	c-0.24,1.619,2.795,3.07,4.822,6.504c3.078,5.211,5.15,10.668-1.201,17.018c5.934-2.098,8.992-8.588,8.211-13.018
	C32.891,39.58,26.619,28.916,24.053,30.171z"/>
<path fill="#BA9757" d="M4.352,49.338c3.568-7.033,18.752-9.275,19.701-19.167C20.375,38.98,4.572,43.143,4.352,49.338z"/>
<path fill="#E0A172" d="M23.6,52.135c2.17,2.301-3.072,3.246-4.762,0.996L23.6,52.135z"/>
<path fill="#C98655" d="M22.33,51.756c-1.152-0.34-1.938,0.699-3.492,1.375c1.508,0.393,3.486,0.133,3.664-0.512
	c0,0,0.646,0.322,1.152-0.254C24.221,51.721,23.436,50.941,22.33,51.756z"/>
<path fill="#DEAE83" d="M10.525,46.439c0.313,1.777,6.053,0.766,5.689-1.291C15.361,42.23,10.035,43.256,10.525,46.439z"/>
<path fill="#613F34" d="M10.525,46.439c0.313,1.777,6.055,0.766,5.691-1.293C15.922,46.178,11.127,47.148,10.525,46.439z"/>
<path fill="#DEAE83" d="M25.691,43.766c0.314,1.777-5.426,2.789-5.789,0.732C19.707,41.465,25.063,40.604,25.691,43.766z"/>
<path fill="#613F34" d="M25.691,43.766c0.314,1.777-5.426,2.789-5.789,0.732C20.531,45.365,25.367,44.637,25.691,43.766z"/>
</svg>
