<?xml version="1.0" encoding="utf-8"?>
<!-- Generator: Adobe Illustrator 15.0.0, SVG Export Plug-In . SVG Version: 6.00 Build 0)  -->
<!DOCTYPE svg PUBLIC "-//W3C//DTD SVG 1.1//EN" "http://www.w3.org/Graphics/SVG/1.1/DTD/svg11.dtd" [
	<!ENTITY ns_flows "http://ns.adobe.com/Flows/1.0/">
	<!ENTITY ns_extend "http://ns.adobe.com/Extensibility/1.0/">
	<!ENTITY ns_ai "http://ns.adobe.com/AdobeIllustrator/10.0/">
	<!ENTITY ns_graphs "http://ns.adobe.com/Graphs/1.0/">
]>
<svg version="1.1" id="Layer_1" xmlns:x="&ns_extend;" xmlns:i="&ns_ai;" xmlns:graph="&ns_graphs;"
	 xmlns="http://www.w3.org/2000/svg" xmlns:xlink="http://www.w3.org/1999/xlink" xmlns:a="http://ns.adobe.com/AdobeSVGViewerExtensions/3.0/"
	 x="0px" y="0px" width="64px" height="64px" viewBox="0 0 64 64" enable-background="new 0 0 64 64" xml:space="preserve">
<path id="Path_565_" fill="#FFC940" d="M53.635,26.562c-3.35,0.406-5.768,11.622-3.662,14.581c0.295,0.414,2.021,1.074,3.301-1.539
	c0.709-1.445,2.754-2.652,3.387-5.637C57.473,30.145,56.967,26.159,53.635,26.562z"/>
<path id="Path_564_" fill="#FFC940" d="M10.367,26.562c3.35,0.406,5.768,11.622,3.66,14.581c-0.295,0.414-2.021,1.074-3.301-1.539
	c-0.709-1.445-2.754-2.652-3.387-5.637C6.527,30.145,7.035,26.158,10.367,26.562z"/>
<path id="Path_563_" fill="#F0A429" d="M53.543,28.713c-0.873,0.275-1.826,1.607-2.344,3.818c3.055-0.656,2.291,4.432-0.363,4.527
	c0.023,0.512,0.059,1.039,0.121,1.592c1.279-1.857,2.578-1.111,3.865-3.875C55.982,32.283,55.707,28.033,53.543,28.713z"/>
<path id="Path_562_" fill="#F0A429" d="M12.801,32.525c-0.518-2.207-1.469-3.539-2.342-3.813c-2.164-0.68-2.441,3.57-1.281,6.063
	c1.287,2.764,2.586,2.018,3.867,3.875c0.063-0.555,0.098-1.082,0.119-1.594C10.537,36.932,9.785,31.906,12.801,32.525z"/>
<path id="Path_561_" fill="#FFC940" d="M32,5C17.49,5,10.498,15.978,11.373,31.244c0.176,3.07,2.08,13.088,3.877,16.682
	c1.842,3.678,7.992,9.346,11.762,10.52c2.383,0.74,7.596,0.74,9.977,0c3.77-1.174,9.924-6.842,11.762-10.52
	c1.801-3.594,3.703-13.609,3.877-16.682C53.504,15.978,46.514,5,32,5z"/>
<path id="Path_560_" fill="#966F42" d="M47.766,25.443c-3.318-1.758-9.67-1.843-12.035-0.619c-0.508,0.237-0.172,1.902,0.254,1.744
	c3.297-1.304,8.615-1.334,11.701,0.111C48.098,26.867,48.27,25.687,47.766,25.443z"/>
<path id="Path_559_" fill="#966F42" d="M16.234,25.443c3.318-1.758,9.666-1.843,12.035-0.619c0.506,0.237,0.172,1.902-0.254,1.744
	c-3.303-1.304-8.613-1.334-11.703,0.111C15.902,26.867,15.732,25.687,16.234,25.443z"/>
<path id="Path_558_" fill="#F0A429" d="M35.916,40.688c-0.414-0.289-1.387,0.156-3.916,0.156c-2.527,0-3.5-0.445-3.916-0.156
	c-0.496,0.35,0.295,1.928,3.916,1.928C35.623,42.615,36.414,41.037,35.916,40.688z"/>
<path id="Path_557_" fill="#F0A429" d="M32,46.668c-3.264-0.959-8.1,0.455-8.1,0.455c1.842,2.008,3.191,4.609,8.1,4.609
	c5.623,0,6.58-2.955,8.102-4.609C40.102,47.123,35.262,45.703,32,46.668z"/>
<path id="Path_556_" fill="#FFFFFF" d="M25.115,47.463c3.422,2.871,10.33,2.891,13.771,0C35.24,47.619,28.787,47.621,25.115,47.463z
	"/>
<path id="Path_555_" fill="#FFFFFF" d="M28.771,31.432c0.123,0.961-0.529,2.1-2.334,2.953c-1.146,0.543-3.531,1.182-6.666-0.141
	c-1.404-0.592-2.773-2.438-2.65-3.457C18.82,27.584,27.182,27.115,28.771,31.432z"/>
<linearGradient id="Oval_1_" gradientUnits="userSpaceOnUse" x1="-424.9072" y1="476.9902" x2="-424.9072" y2="477.9902" gradientTransform="matrix(6.5701 0 0 -6.5701 2814.7805 3168.5281)">
	<stop  offset="0" style="stop-color:#A6694A"/>
	<stop  offset="1" style="stop-color:#4F2A1E"/>
	<a:midPointStop  offset="0" style="stop-color:#A6694A"/>
	<a:midPointStop  offset="0.5" style="stop-color:#A6694A"/>
	<a:midPointStop  offset="1" style="stop-color:#4F2A1E"/>
</linearGradient>
<circle id="Oval_78_" fill="url(#Oval_1_)" cx="23.098" cy="31.367" r="3.285"/>
<path id="Path_554_" fill="#1A1626" d="M21.457,31.307c0,2.273,3.285,2.273,3.285,0C24.742,29.197,21.457,29.197,21.457,31.307z"/>
<path id="Path_553_" fill="#AB968C" d="M20.957,30.387c0,0.953,1.377,0.953,1.377,0C22.334,29.504,20.957,29.504,20.957,30.387z"/>
<path id="Path_552_" fill="#F0A429" d="M28.787,31.559c-1.334-4.288-10.428-3.655-11.666-0.771
	C17.58,27.096,27.65,26.122,28.787,31.559z"/>
<path id="Path_551_" fill="#FFFFFF" d="M35.229,31.432c-0.123,0.961,0.529,2.1,2.334,2.953c1.146,0.543,3.531,1.182,6.666-0.141
	c1.406-0.592,2.773-2.438,2.65-3.457C45.182,27.584,36.818,27.115,35.229,31.432z"/>
<linearGradient id="Oval_2_" gradientUnits="userSpaceOnUse" x1="-424.9072" y1="476.9902" x2="-424.9072" y2="477.9902" gradientTransform="matrix(6.5701 0 0 -6.5701 2832.511 3168.5281)">
	<stop  offset="0" style="stop-color:#A6694A"/>
	<stop  offset="1" style="stop-color:#4F2A1E"/>
	<a:midPointStop  offset="0" style="stop-color:#A6694A"/>
	<a:midPointStop  offset="0.5" style="stop-color:#A6694A"/>
	<a:midPointStop  offset="1" style="stop-color:#4F2A1E"/>
</linearGradient>
<circle id="Oval_77_" fill="url(#Oval_2_)" cx="40.828" cy="31.367" r="3.285"/>
<path id="Path_550_" fill="#1A1626" d="M39.188,31.307c0,2.273,3.285,2.273,3.285,0C42.473,29.197,39.188,29.197,39.188,31.307z"/>
<path id="Path_549_" fill="#AB968C" d="M38.688,30.387c0,0.953,1.377,0.953,1.377,0C40.064,29.504,38.688,29.504,38.688,30.387z"/>
<path id="Path_548_" fill="#F0A429" d="M35.215,31.559c1.332-4.286,10.42-3.671,11.664-0.771
	C46.418,27.096,36.35,26.122,35.215,31.559z"/>
</svg>
