<?xml version="1.0" encoding="utf-8"?>
<!-- Generator: Adobe Illustrator 24.1.2, SVG Export Plug-In . SVG Version: 6.00 Build 0)  -->
<svg version="1.1" id="Layer_1" xmlns="http://www.w3.org/2000/svg" xmlns:xlink="http://www.w3.org/1999/xlink" x="0px" y="0px"
	 width="64px" height="64px" viewBox="0 0 64 64" style="enable-background:new 0 0 64 64;" xml:space="preserve">
<style type="text/css">
	.st0{fill:#473834;}
	.st1{fill:url(#SVGID_1_);}
	.st2{fill:url(#SVGID_2_);}
	.st3{fill:#8E3ED6;}
	.st4{fill:#F5BB51;}
	.st5{fill:#FFC940;}
	.st6{fill:#D47706;}
	.st7{fill:#FFFFFF;}
	.st8{fill:#966F42;}
	.st9{fill:#F0A429;}
	.st10{fill:url(#Oval_1_);}
	.st11{fill:#1A1626;}
	.st12{fill:#AB968C;}
	.st13{fill:#45332C;}
	.st14{fill:url(#Oval_2_);}
	.st15{fill:url(#SVGID_3_);}
	.st16{fill:#FF9ED2;}
	.st17{fill:#FF82C5;}
	.st18{fill:#D170E4;}
	.st19{fill:#9C5FD3;}
	.st20{fill:url(#SVGID_4_);}
	.st21{fill:url(#Oval_3_);}
	.st22{fill:url(#Oval_4_);}
	.st23{fill:url(#SVGID_5_);}
	.st24{fill:#CFD8DD;}
	.st25{fill:url(#SVGID_6_);}
	.st26{fill:url(#Oval_5_);}
	.st27{fill:url(#Oval_6_);}
	.st28{fill:url(#SVGID_7_);}
</style>
<path class="st0" d="M36.68,29.69c9.39-3.75,8.45-12.67,8.45-12.67H18.85c0,0-0.94,8.92,8.45,12.67c0,0,1.88,0.47,4.69,0.47
	C34.81,30.16,36.68,29.69,36.68,29.69z"/>
<linearGradient id="SVGID_1_" gradientUnits="userSpaceOnUse" x1="41.1384" y1="30.1588" x2="41.1384" y2="2.0698">
	<stop  offset="0.05" style="stop-color:#473834"/>
	<stop  offset="0.2266" style="stop-color:#594640"/>
	<stop  offset="0.5197" style="stop-color:#715950"/>
	<stop  offset="0.7" style="stop-color:#7A6056"/>
</linearGradient>
<path class="st1" d="M41.48,17.97c0.96,4.04,0.45,8.05-4.8,11.72c5.63-0.94,8.91-6.26,8.91-10.34L41.48,17.97z"/>
<linearGradient id="SVGID_2_" gradientUnits="userSpaceOnUse" x1="1757.974" y1="30.1588" x2="1757.974" y2="2.0698" gradientTransform="matrix(-1 0 0 1 1780.8145 0)">
	<stop  offset="0.05" style="stop-color:#473834"/>
	<stop  offset="0.2266" style="stop-color:#594640"/>
	<stop  offset="0.5197" style="stop-color:#715950"/>
	<stop  offset="0.7" style="stop-color:#7A6056"/>
</linearGradient>
<path class="st2" d="M22.5,17.97c-0.96,4.04-0.45,8.05,4.8,11.72c-5.63-0.94-8.91-6.26-8.91-10.34L22.5,17.97z"/>
<path class="st3" d="M40.87,51c0.05-3.23,0.71-6.71,1.28-10.92c0.35-2.59-0.51-10.45-0.51-10.45l-3.59-1.32H25.95l-3.59,1.32
	c0,0-0.85,7.86-0.51,10.45c0.56,4.21,1.23,7.69,1.28,10.92c0.04,2.38,8.65,11,8.65,11l0.44,0C32.22,62,40.83,53.39,40.87,51z"/>
<path class="st4" d="M36.46,27.77c0-1.31,0-4.22,0-4.22h-8.92c0,0,0,2.89,0,4.2l-1.59,0.56c0,3.95,5.17,6.32,6.04,6.32
	c0.87,0,6.03-2.37,6.03-6.3L36.46,27.77z"/>
<path class="st5" d="M31.99,3.41c-6.81,0-10.09,5.55-9.68,12.68c0.09,1.43,0.48,3.5,0.98,5.27c1.02,3.68,6.41,7.39,8.71,7.39
	c2.29,0,7.68-3.71,8.71-7.39c0.49-1.77,0.89-3.84,0.97-5.27C42.08,8.95,38.8,3.41,31.99,3.41z"/>
<path class="st6" d="M31.99,22.96c-1.6-0.7-1.61-0.03-4.07,0.14c0.92,1.05,1.61,2.4,4.07,2.4c2.83,0,3.31-1.53,4.08-2.4
	C33.6,22.93,33.59,22.26,31.99,22.96z"/>
<path class="st7" d="M28.66,23.36c1.61,1.67,5.08,1.65,6.67,0C32.85,23.63,31.13,23.63,28.66,23.36z"/>
<path class="st8" d="M39.23,13.71c-1.48-0.88-4.13-0.99-5.18-0.39c-0.22,0.12-0.16,0.76,0.03,0.68c1.5-0.62,3.78-0.65,5.19,0.07
	C39.45,14.17,39.45,13.84,39.23,13.71z"/>
<path class="st8" d="M24.75,13.71c1.48-0.88,4.13-0.99,5.19-0.39c0.22,0.12,0.16,0.76-0.03,0.68c-1.5-0.62-3.78-0.66-5.19,0.07
	C24.53,14.17,24.53,13.84,24.75,13.71z"/>
<path class="st9" d="M33.52,20.7c-0.16-0.11-0.54,0.06-1.53,0.06c-0.99,0-1.37-0.17-1.53-0.06c-0.19,0.14,0.12,0.75,1.53,0.75
	C33.4,21.45,33.72,20.84,33.52,20.7z"/>
<path id="Path_1675_" class="st7" d="M30.47,16.39c0.06,0.45-0.25,0.99-1.1,1.39c-0.54,0.25-1.66,0.55-3.13-0.07
	c-0.66-0.28-1.3-1.14-1.24-1.62C25.8,14.58,29.73,14.36,30.47,16.39z"/>
<linearGradient id="Oval_1_" gradientUnits="userSpaceOnUse" x1="-424.19" y1="479.5402" x2="-424.19" y2="480.0094" gradientTransform="matrix(6.5701 0 0 -6.5701 2814.7817 3168.5269)">
	<stop  offset="0" style="stop-color:#A6694A"/>
	<stop  offset="1" style="stop-color:#4F2A1E"/>
</linearGradient>
<path id="Oval_222_" class="st10" d="M27.81,14.82c0.85,0,1.54,0.69,1.54,1.54c0,0.85-0.69,1.54-1.54,1.54
	c-0.85,0-1.54-0.69-1.54-1.54C26.27,15.51,26.96,14.82,27.81,14.82z"/>
<path id="Path_1674_" class="st11" d="M27.04,16.33c0,1.07,1.54,1.07,1.54,0C28.58,15.34,27.04,15.34,27.04,16.33z"/>
<path id="Path_1673_" class="st12" d="M26.81,15.9c0,0.45,0.65,0.45,0.65,0C27.45,15.49,26.81,15.49,26.81,15.9z"/>
<path id="Path_1672_" class="st13" d="M30.48,16.45c-0.63-2.01-4.89-1.71-5.48-0.36C25.22,14.35,29.95,13.9,30.48,16.45z"/>
<path id="Path_1671_" class="st7" d="M33.51,16.39c-0.06,0.45,0.25,0.99,1.09,1.39c0.54,0.25,1.66,0.55,3.13-0.07
	c0.66-0.28,1.3-1.14,1.24-1.62C38.18,14.58,34.25,14.36,33.51,16.39z"/>
<linearGradient id="Oval_2_" gradientUnits="userSpaceOnUse" x1="-425.6219" y1="479.5402" x2="-425.6219" y2="480.0094" gradientTransform="matrix(6.5701 0 0 -6.5701 2832.5122 3168.5269)">
	<stop  offset="0" style="stop-color:#A6694A"/>
	<stop  offset="1" style="stop-color:#4F2A1E"/>
</linearGradient>
<path id="Oval_221_" class="st14" d="M36.13,14.82c0.85,0,1.54,0.69,1.54,1.54c0,0.85-0.69,1.54-1.54,1.54
	c-0.85,0-1.54-0.69-1.54-1.54C34.59,15.51,35.28,14.82,36.13,14.82z"/>
<path id="Path_1670_" class="st11" d="M35.36,16.33c0,1.07,1.54,1.07,1.54,0C36.9,15.34,35.36,15.34,35.36,16.33z"/>
<path id="Path_1669_" class="st12" d="M35.13,15.9c0,0.45,0.65,0.45,0.65,0C35.78,15.49,35.13,15.49,35.13,15.9z"/>
<path id="Path_1668_" class="st13" d="M33.5,16.45c0.63-2.01,4.89-1.72,5.47-0.36C38.76,14.35,34.03,13.9,33.5,16.45z"/>
<linearGradient id="SVGID_3_" gradientUnits="userSpaceOnUse" x1="31.9899" y1="30.1584" x2="31.9899" y2="2.0698">
	<stop  offset="0.05" style="stop-color:#473834"/>
	<stop  offset="0.2266" style="stop-color:#594640"/>
	<stop  offset="0.5197" style="stop-color:#715950"/>
	<stop  offset="0.7" style="stop-color:#7A6056"/>
</linearGradient>
<path class="st15" d="M39.66,4.4c0.78-1.11-5.81-3.46-12.03-1.87c-6.21,1.42-9.24,10.73-9.24,16.82c0.54,0.44,3.48-0.66,4.12-1.38
	c0.26-1.07,0.66-2.16,1.04-3.3c4.67-2.7,9.95-3.34,13.61-6.57c-0.47,1.41,2.02,3.18,3.29,6.57c0.41,1.1,0.78,2.2,1.04,3.3
	c1.04,0.95,2.68,1.4,4.12,1.38C45.6,14.2,42.15,3.69,39.66,4.4z"/>
<path class="st0" d="M19.03,18.43c4.3-5.72,18.22-5.34,20.63-14.02C34.98,11.7,20.2,12.93,19.03,18.43z"/>
<path class="st4" d="M21.93,40.07l0.43-10.43c0,0-1.39,0.41-2.63,2.04c-1.35,1.77-1.65,8.33-1.65,11.93
	C18.08,46.45,21.93,40.07,21.93,40.07z"/>
<path class="st4" d="M42.07,40.07l-0.43-10.43c0,0,1.39,0.41,2.63,2.04c1.35,1.77,1.65,8.33,1.65,11.93
	C45.92,46.45,42.07,40.07,42.07,40.07z"/>
<path class="st16" d="M24.94,52.72l-7.79,0.01c0,0-4.09,1.33-4.94,2.42c-0.9,1.15-1.43,3.82-1.69,5.46
	c4.33,1.02,12.78,1.38,21.26,1.39c0,0-0.49-5.07-1.88-6.85C29.05,54.06,24.94,52.72,24.94,52.72z"/>
<path class="st17" d="M17.15,52.73c0,3.24,7.79,3.23,7.79-0.01l-0.78-0.27h-6.2L17.15,52.73z"/>
<path class="st4" d="M17.71,52.54c0,2.54,6.68,2.54,6.68,0c0-0.86,0-2.81,0-2.81h-6.68C17.71,49.73,17.71,51.67,17.71,52.54z"/>
<path class="st17" d="M14.17,61.23l-0.28-0.04C13.89,58.88,14.17,58.65,14.17,61.23z"/>
<path class="st17" d="M28.21,61.97h-0.3C27.91,58.28,28.21,58.28,28.21,61.97z"/>
<path class="st18" d="M46.85,52.72l-7.79,0.01c0,0-4.09,1.33-4.94,2.42c-1.39,1.78-1.9,6.85-1.9,6.85
	c8.52-0.01,16.99-0.35,21.26-1.38c-0.26-1.64-0.78-4.33-1.67-5.47C50.97,54.06,46.85,52.72,46.85,52.72z"/>
<path class="st19" d="M39.06,52.73c0,3.24,7.79,3.23,7.79-0.01l-0.78-0.27h-6.2L39.06,52.73z"/>
<path class="st4" d="M39.62,52.54c0,2.54,6.68,2.54,6.68,0c0-0.86,0-2.81,0-2.81h-6.68C39.62,49.73,39.62,51.67,39.62,52.54z"/>
<path class="st19" d="M36.09,61.96l-0.3,0.01C35.79,58.28,36.09,58.28,36.09,61.96z"/>
<path class="st19" d="M50.12,61.18l-0.28,0.03C49.83,58.94,50.12,58.77,50.12,61.18z"/>
<path class="st0" d="M28.69,42.63c6.46,4.27,0.78,8.15,2.62,9.99C27.74,55.1,19,50.82,28.69,42.63z"/>
<path class="st0" d="M13.39,42.63c-6.46,4.27-0.78,8.15-2.62,9.99C14.35,55.1,23.09,50.82,13.39,42.63z"/>
<path class="st0" d="M50.61,42.63c6.46,4.27,0.78,8.15,2.62,9.99C49.65,55.1,40.91,50.82,50.61,42.63z"/>
<path class="st0" d="M35.31,42.63c-6.46,4.27-0.78,8.15-2.62,9.99C36.26,55.1,45,50.82,35.31,42.63z"/>
<path class="st4" d="M15.99,53.23c0,0-1.08,2,0.14,1.78c0.61-1.4,1.32-1.01,1.59-2.47c0.27-1.81-0.87-2.92-0.87-2.92
	c-0.99,0.74-3.14,2.38-3.41,2.83c-0.42,0.72-2.01,2.83-1.32,3.5C12.76,57.29,13.23,53.93,15.99,53.23z"/>
<path class="st9" d="M13.4,53.32c0,0-1.08,1.65-1.28,2.63C12.08,54.83,13.4,53.32,13.4,53.32z"/>
<path class="st4" d="M48.01,53.23c0,0,1.08,2-0.14,1.78c-0.61-1.4-1.32-1.01-1.59-2.47c-0.27-1.81,0.87-2.92,0.87-2.92
	c0.99,0.74,3.14,2.38,3.41,2.83c0.42,0.72,2.01,2.83,1.32,3.5C51.24,57.29,50.77,53.93,48.01,53.23z"/>
<path class="st9" d="M50.6,53.32c0,0,1.08,1.65,1.28,2.63C51.92,54.83,50.6,53.32,50.6,53.32z"/>
<linearGradient id="SVGID_4_" gradientUnits="userSpaceOnUse" x1="42.9558" y1="45.2946" x2="42.9558" y2="31.6544">
	<stop  offset="0" style="stop-color:#473834"/>
	<stop  offset="0.2717" style="stop-color:#594640"/>
	<stop  offset="0.7226" style="stop-color:#715950"/>
	<stop  offset="1" style="stop-color:#7A6056"/>
</linearGradient>
<path class="st20" d="M42.96,31.65c-6.79,0-11.08,5.97-8.44,13.64h16.88C54.04,37.63,49.74,31.66,42.96,31.65z"/>
<path id="Path_1156_" class="st5" d="M34.4,42.11c1.07,0.13,1.83,3.73,1.17,4.68c-0.1,0.13-0.64,0.35-1.05-0.49
	c-0.23-0.46-0.88-0.85-1.08-1.81C33.18,43.26,33.34,41.98,34.4,42.11z"/>
<path id="Path_1083_" class="st9" d="M34.43,42.8c0.28,0.09,0.58,0.52,0.75,1.23c-0.97-0.21-0.73,1.42,0.12,1.45
	c-0.01,0.16-0.02,0.33-0.04,0.51c-0.41-0.6-0.82-0.36-1.23-1.24C33.65,43.94,33.74,42.58,34.43,42.8z"/>
<path id="Path_869_" class="st5" d="M51.51,42.11c-1.06,0.13-1.83,3.73-1.16,4.68c0.09,0.13,0.64,0.35,1.05-0.49
	c0.22-0.46,0.88-0.85,1.08-1.81C52.74,43.26,52.57,41.98,51.51,42.11z"/>
<path id="Path_868_" class="st9" d="M50.74,44.02c0.16-0.71,0.47-1.14,0.74-1.22c0.69-0.22,0.78,1.15,0.41,1.95
	c-0.41,0.89-0.82,0.65-1.23,1.24c-0.02-0.18-0.03-0.35-0.04-0.51C51.46,45.44,51.7,43.82,50.74,44.02z"/>
<path class="st5" d="M42.96,32.86c-5.82,0-8.63,4.4-8.28,10.53c0.07,1.23,0.83,4.05,1.56,5.49c1.27,2.54,4.6,4.44,6.72,4.44
	c2.12,0,5.45-1.9,6.72-4.44c0.72-1.44,1.49-4.26,1.56-5.49C51.58,37.26,48.78,32.86,42.96,32.86z"/>
<path id="Path_867_" class="st9" d="M44.31,46.83c-0.14-0.1-0.48,0.05-1.36,0.05c-0.88,0-1.21-0.15-1.36-0.05
	c-0.17,0.12,0.1,0.67,1.36,0.67C44.21,47.5,44.49,46.95,44.31,46.83z"/>
<path id="Path_866_" class="st9" d="M42.96,48.78c-1.31-0.39-3.26,0.18-3.26,0.18c0.74,0.81,1.28,1.85,3.26,1.85
	c2.26,0,2.65-1.19,3.26-1.85C46.21,48.96,44.27,48.39,42.96,48.78z"/>
<path id="Path_865_" class="st7" d="M40.19,49.1c1.38,1.15,4.15,1.16,5.54,0C44.26,49.16,41.66,49.16,40.19,49.1z"/>
<path id="Path_864_" class="st7" d="M41.7,43.83c0.05,0.37-0.21,0.82-0.91,1.15c-0.45,0.21-1.37,0.46-2.59-0.05
	c-0.54-0.23-1.08-0.95-1.03-1.34C37.83,42.34,41.08,42.15,41.7,43.83z"/>
<linearGradient id="Oval_3_" gradientUnits="userSpaceOnUse" x1="-422.4115" y1="475.4026" x2="-422.4115" y2="475.7914" gradientTransform="matrix(6.5701 0 0 -6.5701 2814.7817 3168.5269)">
	<stop  offset="0" style="stop-color:#A6694A"/>
	<stop  offset="1" style="stop-color:#4F2A1E"/>
</linearGradient>
<path id="Oval_100_" class="st21" d="M39.5,42.53c0.71,0,1.28,0.57,1.28,1.28c0,0.71-0.57,1.28-1.28,1.28
	c-0.71,0-1.28-0.57-1.28-1.28C38.22,43.1,38.79,42.53,39.5,42.53z"/>
<path id="Path_863_" class="st11" d="M38.86,43.78c0,0.88,1.28,0.88,1.28,0C40.13,42.96,38.86,42.96,38.86,43.78z"/>
<path id="Path_862_" class="st12" d="M38.66,43.43c0,0.37,0.54,0.37,0.54,0C39.2,43.08,38.66,43.08,38.66,43.43z"/>
<path id="Path_861_" class="st9" d="M41.71,43.88c-0.52-1.67-4.05-1.42-4.54-0.3C37.35,42.15,41.27,41.77,41.71,43.88z"/>
<path id="Path_860_" class="st7" d="M44.21,43.83c-0.05,0.37,0.2,0.82,0.91,1.15c0.45,0.21,1.37,0.46,2.59-0.05
	c0.54-0.23,1.08-0.95,1.03-1.34C48.08,42.34,44.83,42.15,44.21,43.83z"/>
<linearGradient id="Oval_4_" gradientUnits="userSpaceOnUse" x1="-424.061" y1="475.4026" x2="-424.061" y2="475.7914" gradientTransform="matrix(6.5701 0 0 -6.5701 2832.5122 3168.5269)">
	<stop  offset="0" style="stop-color:#A6694A"/>
	<stop  offset="1" style="stop-color:#4F2A1E"/>
</linearGradient>
<path id="Oval_99_" class="st22" d="M46.39,42.53c0.71,0,1.28,0.57,1.28,1.28c0,0.71-0.57,1.28-1.28,1.28
	c-0.71,0-1.28-0.57-1.28-1.28C45.11,43.1,45.68,42.53,46.39,42.53z"/>
<path id="Path_859_" class="st11" d="M45.75,43.78c0,0.88,1.28,0.88,1.28,0C47.03,42.96,45.75,42.96,45.75,43.78z"/>
<path id="Path_858_" class="st12" d="M45.56,43.43c0,0.37,0.54,0.37,0.54,0C46.09,43.08,45.56,43.08,45.56,43.43z"/>
<path id="Path_857_" class="st9" d="M44.21,43.88c0.52-1.67,4.05-1.43,4.54-0.3C48.56,42.15,44.65,41.77,44.21,43.88z"/>
<path id="Path_856_" class="st9" d="M48.82,41.84c-1.1-0.69-3.31-0.89-4.18-0.54c-0.19,0.07-0.13,0.65,0.03,0.61
	c1.2-0.36,3.05-0.22,4.08,0.36C48.89,42.34,48.99,41.94,48.82,41.84z"/>
<path id="Path_855_" class="st9" d="M37.09,41.84c1.1-0.69,3.31-0.89,4.18-0.54c0.19,0.07,0.13,0.65-0.03,0.61
	c-1.2-0.36-3.05-0.22-4.08,0.36C37.02,42.34,36.92,41.94,37.09,41.84z"/>
<linearGradient id="SVGID_5_" gradientUnits="userSpaceOnUse" x1="42.9563" y1="44.8331" x2="42.9563" y2="31.8551">
	<stop  offset="0" style="stop-color:#473834"/>
	<stop  offset="0.2717" style="stop-color:#594640"/>
	<stop  offset="0.7226" style="stop-color:#715950"/>
	<stop  offset="1" style="stop-color:#7A6056"/>
</linearGradient>
<path class="st23" d="M42.95,31.86c-3.41,0-6.47,1.89-7.13,4.45c-1.72,1.68-1.98,5.51-0.9,8.53c0.14-2.9,1.75-4.35,1.65-7.54
	c9.59,0,13.89,3.13,14.41,7.54C53.16,38.75,49.73,31.86,42.95,31.86z"/>
<path class="st0" d="M50.98,44.83c-1.79-7.71-15.17-7.5-15.17-7.5C35.89,37.33,50.15,35.03,50.98,44.83z"/>
<path class="st0" d="M34.93,44.83c-0.12-3.42,1.69-4.97,1.49-8.5C37.17,39.69,35.56,41.36,34.93,44.83z"/>
<path class="st24" d="M51.13,42.22c0.77-11.57-17.12-11.57-16.35,0C35.45,32.5,50.46,32.5,51.13,42.22z"/>
<path class="st7" d="M51.13,41.84c0.77-11.57-17.12-11.57-16.35,0C35.45,32.12,50.46,32.12,51.13,41.84z"/>
<linearGradient id="SVGID_6_" gradientUnits="userSpaceOnUse" x1="21.0436" y1="45.2946" x2="21.0436" y2="31.6544">
	<stop  offset="0" style="stop-color:#473834"/>
	<stop  offset="0.2717" style="stop-color:#594640"/>
	<stop  offset="0.7226" style="stop-color:#715950"/>
	<stop  offset="1" style="stop-color:#7A6056"/>
</linearGradient>
<path class="st25" d="M21.04,31.65c-6.79,0-11.08,5.97-8.44,13.64h16.88C32.12,37.63,27.83,31.66,21.04,31.65z"/>
<path id="Path_1173_" class="st5" d="M12.49,42.11c1.07,0.13,1.83,3.73,1.17,4.68c-0.1,0.13-0.64,0.35-1.05-0.49
	c-0.23-0.46-0.88-0.85-1.08-1.81C11.27,43.26,11.43,41.98,12.49,42.11z"/>
<path id="Path_1172_" class="st9" d="M12.52,42.8c0.28,0.09,0.58,0.52,0.75,1.23c-0.97-0.21-0.73,1.42,0.12,1.45
	c-0.01,0.16-0.02,0.33-0.04,0.51c-0.41-0.6-0.82-0.36-1.23-1.24C11.74,43.94,11.83,42.58,12.52,42.8z"/>
<path id="Path_1171_" class="st5" d="M29.6,42.11c-1.06,0.13-1.83,3.73-1.16,4.68c0.09,0.13,0.64,0.35,1.05-0.49
	c0.22-0.46,0.88-0.85,1.08-1.81C30.82,43.26,30.66,41.98,29.6,42.11z"/>
<path id="Path_1170_" class="st9" d="M28.83,44.02c0.16-0.71,0.47-1.14,0.74-1.22c0.69-0.22,0.78,1.15,0.41,1.95
	c-0.41,0.89-0.82,0.65-1.23,1.24c-0.02-0.18-0.03-0.35-0.04-0.51C29.55,45.44,29.79,43.82,28.83,44.02z"/>
<path class="st5" d="M21.04,32.86c-5.82,0-8.63,4.4-8.28,10.53c0.07,1.23,0.83,4.05,1.56,5.49c1.27,2.54,4.6,4.44,6.72,4.44
	c2.12,0,5.45-1.9,6.72-4.44c0.72-1.44,1.49-4.26,1.56-5.49C29.67,37.26,26.87,32.86,21.04,32.86z"/>
<path id="Path_1169_" class="st9" d="M22.4,46.83c-0.14-0.1-0.48,0.05-1.36,0.05c-0.88,0-1.21-0.15-1.36-0.05
	c-0.17,0.12,0.1,0.67,1.36,0.67C22.3,47.5,22.57,46.95,22.4,46.83z"/>
<path id="Path_1168_" class="st9" d="M21.04,48.78c-1.31-0.39-3.26,0.18-3.26,0.18c0.74,0.81,1.28,1.85,3.26,1.85
	c2.26,0,2.65-1.19,3.26-1.85C24.3,48.96,22.36,48.39,21.04,48.78z"/>
<path id="Path_1167_" class="st7" d="M18.28,49.1c1.38,1.15,4.15,1.16,5.54,0C22.35,49.16,19.75,49.16,18.28,49.1z"/>
<path id="Path_1166_" class="st7" d="M19.79,43.83c0.05,0.37-0.2,0.82-0.91,1.15c-0.45,0.21-1.37,0.46-2.59-0.05
	c-0.54-0.23-1.08-0.95-1.03-1.34C15.92,42.34,19.17,42.15,19.79,43.83z"/>
<linearGradient id="Oval_5_" gradientUnits="userSpaceOnUse" x1="-425.7467" y1="475.4026" x2="-425.7467" y2="475.7914" gradientTransform="matrix(6.5701 0 0 -6.5701 2814.7817 3168.5269)">
	<stop  offset="0" style="stop-color:#A6694A"/>
	<stop  offset="1" style="stop-color:#4F2A1E"/>
</linearGradient>
<path id="Oval_110_" class="st26" d="M17.58,42.53c0.7,0,1.28,0.57,1.28,1.28c0,0.71-0.57,1.28-1.28,1.28
	c-0.71,0-1.28-0.57-1.28-1.28C16.31,43.1,16.88,42.53,17.58,42.53z"/>
<path id="Path_1165_" class="st11" d="M16.95,43.78c0,0.88,1.28,0.88,1.28,0C18.22,42.96,16.95,42.96,16.95,43.78z"/>
<path id="Path_1164_" class="st12" d="M16.75,43.43c0,0.37,0.54,0.37,0.54,0C17.29,43.08,16.75,43.08,16.75,43.43z"/>
<path id="Path_1163_" class="st9" d="M19.79,43.88c-0.52-1.67-4.05-1.42-4.54-0.3C15.44,42.15,19.35,41.77,19.79,43.88z"/>
<path id="Path_1162_" class="st7" d="M22.3,43.83c-0.05,0.37,0.2,0.82,0.91,1.15c0.45,0.21,1.37,0.46,2.59-0.05
	c0.54-0.23,1.08-0.95,1.03-1.34C26.17,42.34,22.92,42.15,22.3,43.83z"/>
<linearGradient id="Oval_6_" gradientUnits="userSpaceOnUse" x1="-427.3961" y1="475.4026" x2="-427.3961" y2="475.7914" gradientTransform="matrix(6.5701 0 0 -6.5701 2832.5122 3168.5269)">
	<stop  offset="0" style="stop-color:#A6694A"/>
	<stop  offset="1" style="stop-color:#4F2A1E"/>
</linearGradient>
<path id="Oval_109_" class="st27" d="M24.48,42.53c0.71,0,1.28,0.57,1.28,1.28c0,0.71-0.57,1.28-1.28,1.28
	c-0.7,0-1.28-0.57-1.28-1.28C23.2,43.1,23.77,42.53,24.48,42.53z"/>
<path id="Path_1161_" class="st11" d="M23.84,43.78c0,0.88,1.28,0.88,1.28,0C25.12,42.96,23.84,42.96,23.84,43.78z"/>
<path id="Path_1160_" class="st12" d="M23.64,43.43c0,0.37,0.54,0.37,0.54,0C24.18,43.08,23.64,43.08,23.64,43.43z"/>
<path id="Path_1159_" class="st9" d="M22.29,43.88c0.52-1.67,4.05-1.43,4.54-0.3C26.65,42.15,22.74,41.77,22.29,43.88z"/>
<path id="Path_1158_" class="st9" d="M26.91,41.84c-1.1-0.69-3.31-0.89-4.18-0.54c-0.19,0.07-0.13,0.65,0.03,0.61
	c1.2-0.36,3.05-0.22,4.08,0.36C26.98,42.34,27.08,41.94,26.91,41.84z"/>
<path id="Path_1157_" class="st9" d="M15.18,41.84c1.1-0.69,3.31-0.89,4.18-0.54c0.19,0.07,0.13,0.65-0.03,0.61
	c-1.2-0.36-3.05-0.22-4.08,0.36C15.11,42.34,15.01,41.94,15.18,41.84z"/>
<linearGradient id="SVGID_7_" gradientUnits="userSpaceOnUse" x1="21.0442" y1="44.8331" x2="21.0442" y2="31.8551">
	<stop  offset="0" style="stop-color:#473834"/>
	<stop  offset="0.2717" style="stop-color:#594640"/>
	<stop  offset="0.7226" style="stop-color:#715950"/>
	<stop  offset="1" style="stop-color:#7A6056"/>
</linearGradient>
<path class="st28" d="M21.04,31.86c-3.41,0-6.47,1.89-7.13,4.45c-1.72,1.68-1.98,5.51-0.9,8.53c0.14-2.9,1.75-4.35,1.65-7.54
	c9.59,0,13.89,3.13,14.41,7.54C31.25,38.75,27.82,31.86,21.04,31.86z"/>
<path class="st0" d="M29.07,44.83c-1.79-7.71-15.17-7.5-15.17-7.5C13.97,37.33,28.24,35.03,29.07,44.83z"/>
<path class="st0" d="M13.02,44.83c-0.12-3.42,1.69-4.97,1.49-8.5C15.26,39.69,13.64,41.36,13.02,44.83z"/>
<path class="st24" d="M29.22,42.22c0.77-11.57-17.12-11.57-16.35,0C13.53,32.5,28.55,32.5,29.22,42.22z"/>
<path class="st7" d="M29.22,41.84c0.77-11.57-17.12-11.57-16.35,0C13.53,32.12,28.55,32.12,29.22,41.84z"/>
</svg>
