<?xml version="1.0" encoding="utf-8"?>
<!-- Generator: Adobe Illustrator 15.0.0, SVG Export Plug-In . SVG Version: 6.00 Build 0)  -->
<!DOCTYPE svg PUBLIC "-//W3C//DTD SVG 1.1//EN" "http://www.w3.org/Graphics/SVG/1.1/DTD/svg11.dtd" [
	<!ENTITY ns_flows "http://ns.adobe.com/Flows/1.0/">
	<!ENTITY ns_extend "http://ns.adobe.com/Extensibility/1.0/">
	<!ENTITY ns_ai "http://ns.adobe.com/AdobeIllustrator/10.0/">
	<!ENTITY ns_graphs "http://ns.adobe.com/Graphs/1.0/">
]>
<svg version="1.1" id="Layer_1" xmlns:x="&ns_extend;" xmlns:i="&ns_ai;" xmlns:graph="&ns_graphs;"
	 xmlns="http://www.w3.org/2000/svg" xmlns:xlink="http://www.w3.org/1999/xlink" xmlns:a="http://ns.adobe.com/AdobeSVGViewerExtensions/3.0/"
	 x="0px" y="0px" width="64px" height="64px" viewBox="0 0 64 64" enable-background="new 0 0 64 64" xml:space="preserve">
<path id="Path_3569_" fill="#916B50" d="M10.254,45.221c1.742-0.094,3.982,5.402,3.176,7.1c-0.113,0.236-0.934,0.729-1.82-0.488
	c-0.49-0.674-1.641-1.104-2.23-2.566C8.621,47.391,8.521,45.314,10.254,45.221z"/>
<path id="Path_3567_" fill="#69452D" d="M10.494,46.309c0.471,0.061,1.074,0.654,1.537,1.734c-1.615-0.059-0.77,2.463,0.592,2.273
	c0.033,0.262,0.064,0.535,0.08,0.822c-0.818-0.832-1.412-0.336-2.314-1.627C9.572,48.348,9.33,46.158,10.494,46.309z"/>
<path id="Path_3565_" fill="#916B50" d="M19.34,32.295c7.389-1.305,11.938,3.66,12.861,11.516c0.188,1.58,0.117,6.854-0.477,8.846
	c-0.605,2.039-3.23,5.479-5.045,6.414c-1.146,0.592-3.803,1.061-5.082,0.896c-2.025-0.26-5.67-2.594-6.936-4.303
	c-1.24-1.668-3.109-6.6-3.475-8.148C9.371,39.818,11.945,33.598,19.34,32.295z"/>
<path fill="#614036" d="M10.223,35.813c1.234-2.475,3.895-4.697,8.758-5.555c4.859-0.857,8.119,0.32,10.123,2.225
	C31.941,35.18,8.48,39.316,10.223,35.813z"/>
<linearGradient id="SVGID_1_" gradientUnits="userSpaceOnUse" x1="696.5918" y1="-28.4956" x2="696.5918" y2="-43.0737" gradientTransform="matrix(-0.9848 0.1736 0.1736 0.9848 712.9818 -45.2904)">
	<stop  offset="0.5" style="stop-color:#3B2118"/>
	<stop  offset="0.6722" style="stop-color:#44281F"/>
	<stop  offset="0.9523" style="stop-color:#5C3C32"/>
	<stop  offset="1" style="stop-color:#614036"/>
	<a:midPointStop  offset="0.5" style="stop-color:#3B2118"/>
	<a:midPointStop  offset="0.6" style="stop-color:#3B2118"/>
	<a:midPointStop  offset="1" style="stop-color:#614036"/>
</linearGradient>
<path fill="url(#SVGID_1_)" d="M10.223,35.813c1.234-2.475,4.613-0.623,9.477-1.48c4.859-0.857,7.4-3.754,9.404-1.85
	c2.838,2.697,3.881,13.162,2.863,13.342c-0.164,0.027-0.822-3.582-1.572-6.025c-0.609-1.99-1.441-3.879-2.053-4.104
	c-1.871-0.684-4.896,1.301-8.074,1.861c-3.182,0.561-6.705-0.27-8.227,1.014c-0.5,0.42-0.635,2.479-0.527,4.557
	c0.133,2.555,0.746,6.172,0.586,6.199C11.08,49.506,8.48,39.316,10.223,35.813z"/>
<path id="Path_3564_" fill="#5E4431" d="M13.053,43.611c1.533-1.193,4.76-1.807,6.076-1.396c0.279,0.076,0.258,0.953,0.025,0.912
	c-1.797-0.369-4.508,0.094-5.949,1.107C13.012,44.367,12.818,43.781,13.053,43.611z"/>
<path id="Path_3563_" fill="#5E4431" d="M29.115,40.779c-1.85-0.598-5.09-0.07-6.186,0.766c-0.236,0.166,0.082,0.984,0.285,0.865
	c1.564-0.961,4.268-1.453,5.971-0.994C29.412,41.475,29.393,40.857,29.115,40.779z"/>
<path id="Path_3562_" fill="#69452D" d="M20.65,50.9c0.174-0.191,0.715-0.076,1.992-0.359c1.277-0.285,1.717-0.619,1.961-0.52
	c0.289,0.121,0.068,1.006-1.76,1.414C21.012,51.842,20.438,51.133,20.65,50.9z"/>
<path fill="#7D573F" d="M27.305,53.361c2.17,2.303-3.072,3.248-4.762,0.998L27.305,53.361z"/>
<path fill="#69452D" d="M26.035,52.984c-1.152-0.342-1.938,0.699-3.492,1.375c1.508,0.393,3.486,0.133,3.664-0.512
	c0,0,0.646,0.322,1.152-0.256C27.926,52.949,27.141,52.17,26.035,52.984z"/>
<path fill="#855C40" d="M14.23,47.668c0.313,1.775,6.053,0.764,5.689-1.293C19.066,43.459,13.74,44.482,14.23,47.668z"/>
<path fill="#613F34" d="M14.23,47.668c0.313,1.775,6.055,0.764,5.691-1.293C19.627,47.404,14.832,48.375,14.23,47.668z"/>
<path fill="#855C40" d="M29.396,44.994c0.314,1.777-5.426,2.789-5.789,0.732C23.412,42.693,28.768,41.832,29.396,44.994z"/>
<path fill="#613F34" d="M29.396,44.994c0.314,1.777-5.426,2.789-5.789,0.732C24.236,46.594,29.072,45.865,29.396,44.994z"/>
<path id="Path_3624_" fill="#EBC199" d="M53.746,45.221c-1.742-0.094-3.982,5.402-3.174,7.1c0.111,0.236,0.932,0.729,1.818-0.488
	c0.492-0.674,1.643-1.104,2.232-2.566C55.379,47.391,55.479,45.314,53.746,45.221z"/>
<path id="Path_3622_" fill="#C99B71" d="M53.508,46.309c-0.471,0.061-1.076,0.654-1.537,1.734c1.613-0.059,0.77,2.463-0.592,2.273
	c-0.035,0.262-0.064,0.535-0.082,0.822c0.818-0.832,1.414-0.336,2.316-1.627C54.43,48.348,54.67,46.158,53.508,46.309z"/>
<path id="Path_3616_" fill="#EBC199" d="M44.662,32.295c-7.391-1.305-11.938,3.66-12.863,11.516
	c-0.188,1.58-0.115,6.854,0.477,8.846c0.607,2.039,3.23,5.479,5.045,6.414c1.148,0.592,3.805,1.061,5.082,0.896
	c2.027-0.26,5.672-2.594,6.938-4.303c1.24-1.668,3.107-6.6,3.473-8.148C54.631,39.818,52.057,33.598,44.662,32.295z"/>
<path fill="#E3BE86" d="M53.777,35.813c-1.232-2.475-3.895-4.697-8.756-5.555s-8.121,0.32-10.125,2.225
	C32.059,35.18,55.52,39.316,53.777,35.813z"/>
<linearGradient id="SVGID_2_" gradientUnits="userSpaceOnUse" x1="100.1631" y1="76.6426" x2="100.1631" y2="62.0654" gradientTransform="matrix(0.9848 0.1736 -0.1736 0.9848 -43.3665 -45.2904)">
	<stop  offset="0.5" style="stop-color:#BA9757"/>
	<stop  offset="0.6473" style="stop-color:#C29E60"/>
	<stop  offset="0.8867" style="stop-color:#D7B378"/>
	<stop  offset="1" style="stop-color:#E3BE86"/>
	<a:midPointStop  offset="0.5" style="stop-color:#BA9757"/>
	<a:midPointStop  offset="0.6" style="stop-color:#BA9757"/>
	<a:midPointStop  offset="1" style="stop-color:#E3BE86"/>
</linearGradient>
<path fill="url(#SVGID_2_)" d="M53.777,35.813c-1.232-2.475-4.611-0.623-9.475-1.48c-4.861-0.857-7.402-3.754-9.406-1.85
	c-2.838,2.697-3.879,13.162-2.861,13.342c0.164,0.027,0.822-3.582,1.572-6.025c0.607-1.99,1.441-3.879,2.051-4.104
	c1.873-0.684,4.896,1.301,8.076,1.861c3.182,0.561,6.703-0.27,8.227,1.014c0.498,0.42,0.633,2.479,0.527,4.557
	c-0.133,2.555-0.748,6.172-0.586,6.199C52.922,49.506,55.52,39.316,53.777,35.813z"/>
<path id="Path_3614_" fill="#A17C5B" d="M50.949,43.611c-1.533-1.193-4.762-1.807-6.076-1.396c-0.279,0.076-0.258,0.953-0.027,0.912
	c1.797-0.369,4.508,0.094,5.949,1.107C50.99,44.367,51.182,43.781,50.949,43.611z"/>
<path id="Path_3608_" fill="#A17C5B" d="M34.887,40.779c1.848-0.598,5.088-0.07,6.186,0.766c0.236,0.166-0.084,0.984-0.287,0.865
	c-1.563-0.961-4.268-1.453-5.971-0.994C34.588,41.475,34.607,40.857,34.887,40.779z"/>
<path id="Path_3606_" fill="#C99B71" d="M43.352,50.9c-0.174-0.191-0.717-0.076-1.994-0.359c-1.275-0.285-1.715-0.619-1.961-0.52
	c-0.287,0.121-0.066,1.006,1.762,1.414C42.988,51.842,43.564,51.133,43.352,50.9z"/>
<path fill="#D1A57B" d="M36.695,53.361c-2.168,2.303,3.072,3.248,4.764,0.998L36.695,53.361z"/>
<path fill="#BD926A" d="M37.965,52.984c1.154-0.342,1.939,0.699,3.494,1.375c-1.51,0.393-3.486,0.133-3.666-0.512
	c0,0-0.645,0.322-1.15-0.256C36.076,52.949,36.861,52.17,37.965,52.984z"/>
<path fill="#DEAE83" d="M49.771,47.668c-0.313,1.775-6.055,0.764-5.689-1.293C44.934,43.459,50.262,44.482,49.771,47.668z"/>
<path fill="#613F34" d="M49.77,47.668c-0.313,1.775-6.053,0.764-5.689-1.293C44.375,47.404,49.17,48.375,49.77,47.668z"/>
<path fill="#DEAE83" d="M34.605,44.994c-0.314,1.777,5.424,2.789,5.787,0.732C40.588,42.693,35.234,41.832,34.605,44.994z"/>
<path fill="#613F34" d="M34.605,44.994c-0.314,1.777,5.424,2.789,5.787,0.732C39.766,46.594,34.928,45.865,34.605,44.994z"/>
<linearGradient id="SVGID_3_" gradientUnits="userSpaceOnUse" x1="-22.8638" y1="-518.5239" x2="-22.8638" y2="-527.2896" gradientTransform="matrix(-2.7664 0.8895 0.8472 2.6347 410.4337 1416.0867)">
	<stop  offset="0" style="stop-color:#DB0100"/>
	<stop  offset="0.5836" style="stop-color:#F31317"/>
	<stop  offset="1" style="stop-color:#FF1C23"/>
	<a:midPointStop  offset="0" style="stop-color:#DB0100"/>
	<a:midPointStop  offset="0.4242" style="stop-color:#DB0100"/>
	<a:midPointStop  offset="1" style="stop-color:#FF1C23"/>
</linearGradient>
<path fill="url(#SVGID_3_)" d="M28.089,9.989c1.811-7.38,13.074-8.346,15.561-0.609c1.67,5.19-0.961,11.332-9.023,20.137
	c-3.408-6.134-16.494-1.49-19.537-10.952C12.601,10.829,22.317,5.049,28.089,9.989z"/>
</svg>
