<?xml version="1.0" encoding="utf-8"?>
<!-- Generator: Adobe Illustrator 15.0.0, SVG Export Plug-In . SVG Version: 6.00 Build 0)  -->
<!DOCTYPE svg PUBLIC "-//W3C//DTD SVG 1.1//EN" "http://www.w3.org/Graphics/SVG/1.1/DTD/svg11.dtd" [
	<!ENTITY ns_flows "http://ns.adobe.com/Flows/1.0/">
	<!ENTITY ns_extend "http://ns.adobe.com/Extensibility/1.0/">
	<!ENTITY ns_ai "http://ns.adobe.com/AdobeIllustrator/10.0/">
	<!ENTITY ns_graphs "http://ns.adobe.com/Graphs/1.0/">
]>
<svg version="1.1" id="Layer_1" xmlns:x="&ns_extend;" xmlns:i="&ns_ai;" xmlns:graph="&ns_graphs;"
	 xmlns="http://www.w3.org/2000/svg" xmlns:xlink="http://www.w3.org/1999/xlink" xmlns:a="http://ns.adobe.com/AdobeSVGViewerExtensions/3.0/"
	 x="0px" y="0px" width="64px" height="64px" viewBox="0 0 64 64" enable-background="new 0 0 64 64" xml:space="preserve">
<path fill="#302C3B" d="M39.933,61.947c-1.502-0.574,0.246-2.203-0.303-4.359c-1.074-4.203,2.672-3.936,3.113-1.938
	C43.688,59.934,41.685,62.613,39.933,61.947z"/>
<path fill="#F5BB51" d="M41.956,55.877c-0.256-5.205,0.904-5.939-1.043-9.412c1.031-3.061,0.717-4.805,0.717-4.805l-4.859-4.377
	c0,0,0.273,8.047,1.203,11.029c1.141,3.67,1.838,7.959,1.838,7.959C39.901,58.426,42.075,58.219,41.956,55.877z"/>
<path fill="#F5BB51" d="M33.214,29.975c0.621-1.074,1.326-2.334,1.326-2.334l-2.158-1.996c-2.791,4.658-2.363,4.447-1.391,5.619
	c1.955,2.357,5.471,3.729,5.471,3.729s0.547-1.754,0.055-1.986C35.157,32.359,34.04,30.506,33.214,29.975z"/>
<path fill="#F5BB51" d="M47.083,28.982c-0.516-0.387-1.492-1.402-1.492-1.402l2.125-2.369c2.855,3.941,3.244,3.414,1.592,5.152
	c-1.303,1.371-5.055,3.773-5.055,3.773s-1.537-1.332-1.063-1.586C45.251,31.467,45.81,29.799,47.083,28.982z"/>
<path fill="#302C3B" d="M55.462,52.852c-3.738-2.383-1.133-5.229,0.477-4.223C63.118,53.109,59.251,55.268,55.462,52.852z"/>
<path fill="#F5BB51" d="M56.063,49.857c-3.547-3.451-3.338-4.943-7.08-5.73c-1.094-6-4.631-9.414-4.631-9.414
	c-2.695,3.514-1.809,6.592-1.809,6.592s3.023,5.094,5.662,6.416c3.25,1.613,6.551,4.049,6.551,4.049
	C56.214,53.213,57.663,51.416,56.063,49.857z"/>
<path fill="#302C3B" d="M46.376,36.619c-0.494-1.092-1.291-2.082-2.65-3.775c-1.203-1.498-0.01-4.021,0.201-6.105l1.754,1.176
	l2.609-2.008c0,0-1.898-2.818-4.318-3.242c-1.576-0.957-5.98-1.723-9.002,0.299c-1.469,0.346-3.17,3.648-3.17,3.648l2.689,1.352
	l0.389-0.502c0.199,3.17,1.596,3.691,1.635,9.66c0.014,2.258,0.576,6.863,0.576,6.863l4.57,0.014l0.258-1.91
	c0.121,0.012,0.236,0.033,0.361,0.033c0.176,0.002,0.377-0.037,0.59-0.105l0.893,1.473l4.289-2.998
	C47.153,38.084,46.808,37.57,46.376,36.619z"/>
<path fill="#F5BB51" d="M37.46,22.152c0,0,0.703,0.91,2.199,0.914c1.494,0.006,2.203-0.9,2.203-0.9l0.008-2.576l-4.402-0.014
	L37.46,22.152z"/>
<path fill="#473834" d="M44.542,18.596c0.346,0.23,0.744,0.404,1.211,0.492c-0.824-1.891,0.438-5.848-2.111-8.766
	c-3.609,0.098-4.143,11.764,0.891,10.227c-0.32-0.141-0.52-0.424-0.637-0.781c0.387,0.113,0.84,0.119,1.367-0.043
	C44.845,19.543,44.632,19.113,44.542,18.596z"/>
<path fill="#473834" d="M35.511,10.299c-2.568,2.9-1.088,6.865-1.922,8.752c0.467-0.086,0.867-0.256,1.215-0.484
	c-0.094,0.516-0.309,0.945-0.729,1.123c0.525,0.166,0.979,0.164,1.367,0.053c-0.119,0.355-0.32,0.639-0.641,0.777
	C39.825,22.088,39.118,10.416,35.511,10.299z"/>
<path id="Path_2288_" fill="#FFC940" d="M44.948,14.303c-0.814,0.096-1.41,2.822-0.9,3.545c0.07,0.1,0.49,0.262,0.803-0.373
	c0.174-0.352,0.672-0.645,0.828-1.369C45.88,15.176,45.759,14.207,44.948,14.303z"/>
<path id="Path_2287_" fill="#FFC940" d="M34.423,14.27c0.814,0.102,1.395,2.832,0.879,3.551c-0.072,0.1-0.492,0.26-0.801-0.377
	c-0.172-0.354-0.668-0.648-0.82-1.375C33.485,15.139,33.612,14.17,34.423,14.27z"/>
<path id="Path_2286_" fill="#F0A429" d="M44.925,14.824c-0.213,0.068-0.445,0.391-0.572,0.928c0.742-0.158,0.553,1.078-0.094,1.1
	c0.006,0.125,0.014,0.256,0.029,0.391c0.313-0.451,0.627-0.27,0.943-0.941C45.515,15.693,45.45,14.662,44.925,14.824z"/>
<path id="Path_2285_" fill="#F0A429" d="M35.011,15.721c-0.125-0.535-0.355-0.861-0.566-0.928c-0.525-0.166-0.598,0.865-0.316,1.475
	c0.311,0.674,0.627,0.492,0.938,0.945c0.016-0.135,0.025-0.264,0.031-0.389C34.456,16.793,34.278,15.568,35.011,15.721z"/>
<path fill="#FFC940" d="M39.702,9.039c-3.531-0.01-5.24,2.861-5.039,6.557c0.041,0.744,0.246,1.816,0.498,2.736
	c0.523,1.91,3.311,3.84,4.5,3.844s3.988-1.908,4.523-3.816c0.26-0.918,0.469-1.988,0.516-2.732
	C44.923,11.932,43.233,9.051,39.702,9.039z"/>
<path id="Path_2284_" fill="#966F42" d="M43.521,14.025c-0.805-0.43-2.35-0.455-2.926-0.16c-0.123,0.059-0.043,0.463,0.061,0.426
	c0.803-0.316,2.096-0.318,2.846,0.035C43.601,14.371,43.644,14.086,43.521,14.025z"/>
<path id="Path_2283_" fill="#966F42" d="M35.851,14.002c0.809-0.426,2.354-0.441,2.93-0.143c0.123,0.059,0.039,0.463-0.064,0.426
	c-0.803-0.322-2.094-0.332-2.848,0.018C35.769,14.348,35.729,14.061,35.851,14.002z"/>
<path id="Path_2282_" fill="#F0A429" d="M40.628,17.725c-0.102-0.07-0.338,0.039-0.953,0.037s-0.852-0.113-0.953-0.043
	c-0.121,0.086,0.07,0.469,0.951,0.473C40.556,18.193,40.749,17.811,40.628,17.725z"/>
<path id="Path_2281_" fill="#F0A429" d="M39.671,19.178c-0.793-0.236-1.971,0.104-1.971,0.104c0.445,0.49,0.771,1.123,1.967,1.127
	c1.367,0.004,1.604-0.713,1.975-1.115C41.642,19.293,40.464,18.945,39.671,19.178z"/>
<path id="Path_2280_" fill="#FFFFFF" d="M37.995,19.365c0.83,0.699,2.512,0.711,3.35,0.01
	C40.458,19.412,38.888,19.408,37.995,19.365z"/>
<path id="Path_2279_" fill="#FFFFFF" d="M38.897,15.469c0.029,0.232-0.131,0.508-0.57,0.715c-0.279,0.133-0.859,0.285-1.621-0.037
	c-0.342-0.146-0.674-0.596-0.643-0.844C36.479,14.523,38.513,14.416,38.897,15.469z"/>
<linearGradient id="Oval_1_" gradientUnits="userSpaceOnUse" x1="-422.8452" y1="480.1934" x2="-422.8452" y2="480.4365" gradientTransform="matrix(6.5701 0.0202 0.0202 -6.5701 2805.9517 3179.7031)">
	<stop  offset="0" style="stop-color:#A6694A"/>
	<stop  offset="1" style="stop-color:#4F2A1E"/>
	<a:midPointStop  offset="0" style="stop-color:#A6694A"/>
	<a:midPointStop  offset="0.5" style="stop-color:#A6694A"/>
	<a:midPointStop  offset="1" style="stop-color:#4F2A1E"/>
</linearGradient>
<circle id="Oval_274_" fill="url(#Oval_1_)" cx="37.517" cy="15.447" r="0.799"/>
<path id="Path_2278_" fill="#1A1626" d="M37.116,15.432c0,0.553,0.799,0.555,0.801,0.004C37.919,14.922,37.118,14.92,37.116,15.432z
	"/>
<path id="Path_2277_" fill="#AB968C" d="M36.997,15.207c-0.002,0.234,0.334,0.234,0.334,0.002
	C37.331,14.994,36.997,14.992,36.997,15.207z"/>
<path id="Path_2276_" fill="#F0A429" d="M38.899,15.498c-0.32-1.043-2.533-0.896-2.836-0.195
	C36.177,14.404,38.628,14.176,38.899,15.498z"/>
<path id="Path_2275_" fill="#FFFFFF" d="M40.468,15.473c-0.031,0.232,0.127,0.51,0.564,0.719c0.279,0.135,0.859,0.291,1.621-0.027
	c0.344-0.145,0.678-0.592,0.648-0.84C42.892,14.543,40.858,14.424,40.468,15.473z"/>
<linearGradient id="Oval_2_" gradientUnits="userSpaceOnUse" x1="-424.8872" y1="480.1924" x2="-424.8872" y2="480.4355" gradientTransform="matrix(6.5701 0.0202 0.0202 -6.5701 2823.6821 3179.7539)">
	<stop  offset="0" style="stop-color:#A6694A"/>
	<stop  offset="1" style="stop-color:#4F2A1E"/>
	<a:midPointStop  offset="0" style="stop-color:#A6694A"/>
	<a:midPointStop  offset="0.5" style="stop-color:#A6694A"/>
	<a:midPointStop  offset="1" style="stop-color:#4F2A1E"/>
</linearGradient>
<circle id="Oval_273_" fill="url(#Oval_2_)" cx="41.829" cy="15.461" r="0.799"/>
<path id="Path_2274_" fill="#1A1626" d="M41.431,15.445c-0.002,0.553,0.797,0.555,0.799,0.002
	C42.231,14.936,41.433,14.934,41.431,15.445z"/>
<path id="Path_2273_" fill="#AB968C" d="M41.31,15.221c-0.002,0.232,0.334,0.234,0.334,0C41.646,15.006,41.31,15.006,41.31,15.221z"
	/>
<path id="Path_2272_" fill="#F0A429" d="M40.464,15.504c0.326-1.041,2.539-0.885,2.838-0.18
	C43.192,14.426,40.745,14.182,40.464,15.504z"/>
<linearGradient id="SVGID_1_" gradientUnits="userSpaceOnUse" x1="39.2275" y1="13.6753" x2="39.2275" y2="5.3945" gradientTransform="matrix(1 0.0031 -0.0031 1 0.4405 2.5497)">
	<stop  offset="0" style="stop-color:#473834"/>
	<stop  offset="0.2717" style="stop-color:#594640"/>
	<stop  offset="0.7226" style="stop-color:#715950"/>
	<stop  offset="1" style="stop-color:#7A6056"/>
	<a:midPointStop  offset="0" style="stop-color:#473834"/>
	<a:midPointStop  offset="0.4" style="stop-color:#473834"/>
	<a:midPointStop  offset="1" style="stop-color:#7A6056"/>
</linearGradient>
<path fill="url(#SVGID_1_)" d="M39.706,8.066c-2.148-0.006-3.225,0.963-3.445,1.424c-2.598,0.588-3.447,4.965-1.508,6.842
	c0.246-1.992,0.482-3.271,1.813-4.613c0.768,1.037,2.371,1.623,3.807,1.627c-0.678-0.496-1.141-0.98-1.504-1.436
	c2.396,1.109,5.08,1.822,5.738,4.451C46.925,12.693,45.022,8.084,39.706,8.066z"/>
<path fill="#302C3B" d="M13.716,61.867c-1.502-0.574,0.248-2.203-0.303-4.359c-1.072-4.205,2.672-3.936,3.113-1.938
	C17.472,59.852,15.468,62.531,13.716,61.867z"/>
<path fill="#F5BB51" d="M15.741,55.797c-0.258-5.207,0.902-5.939-1.045-9.412c1.031-3.061,0.717-4.805,0.717-4.805l-4.859-4.377
	c0,0,0.273,8.047,1.205,11.027c1.139,3.672,1.836,7.959,1.836,7.959C13.687,58.346,15.858,58.139,15.741,55.797z"/>
<path fill="#F5BB51" d="M6.997,29.895c0.621-1.076,1.326-2.334,1.326-2.334l-2.158-1.996c-2.791,4.658-2.363,4.445-1.391,5.619
	c1.957,2.357,5.473,3.729,5.473,3.729s0.545-1.756,0.055-1.986C8.942,32.277,7.825,30.426,6.997,29.895z"/>
<path fill="#F5BB51" d="M20.868,28.902c-0.516-0.389-1.494-1.404-1.494-1.404l2.125-2.367c2.857,3.941,3.244,3.412,1.592,5.152
	c-1.301,1.371-5.055,3.771-5.055,3.771s-1.537-1.332-1.063-1.584C19.034,31.385,19.593,29.719,20.868,28.902z"/>
<path fill="#302C3B" d="M29.245,52.771c-3.738-2.383-1.131-5.229,0.477-4.223C36.901,53.029,33.036,55.188,29.245,52.771z"/>
<path fill="#F5BB51" d="M29.847,49.777c-3.545-3.453-3.338-4.943-7.08-5.73c-1.092-6-4.631-9.416-4.631-9.416
	c-2.695,3.516-1.807,6.594-1.807,6.594s3.023,5.092,5.662,6.416c3.248,1.613,6.549,4.049,6.549,4.049
	C29.997,53.133,31.448,51.334,29.847,49.777z"/>
<path fill="#302C3B" d="M20.159,36.539c-0.492-1.092-1.289-2.082-2.65-3.777c-1.203-1.496-0.01-4.02,0.203-6.104l1.754,1.176
	l2.607-2.008c0,0-1.898-2.818-4.318-3.244c-1.576-0.957-5.98-1.721-9.002,0.301c-1.469,0.346-3.168,3.648-3.168,3.648l2.689,1.352
	l0.387-0.502c0.199,3.17,1.598,3.691,1.635,9.66c0.016,2.258,0.576,6.863,0.576,6.863l4.57,0.014l0.258-1.91
	c0.121,0.012,0.236,0.033,0.361,0.033c0.176,0,0.377-0.037,0.59-0.105l0.893,1.473l4.289-2.998
	C20.938,38.004,20.591,37.488,20.159,36.539z"/>
<path fill="#F5BB51" d="M11.245,22.072c0,0,0.703,0.91,2.197,0.914c1.496,0.004,2.205-0.9,2.205-0.9l0.008-2.576l-4.402-0.014
	L11.245,22.072z"/>
<path fill="#473834" d="M18.325,18.516c0.346,0.23,0.744,0.402,1.211,0.492c-0.822-1.893,0.439-5.848-2.111-8.766
	c-3.607,0.098-4.143,11.764,0.891,10.227c-0.32-0.141-0.52-0.424-0.637-0.781c0.389,0.113,0.84,0.119,1.369-0.043
	C18.628,19.463,18.415,19.031,18.325,18.516z"/>
<path fill="#473834" d="M9.296,10.217c-2.568,2.902-1.088,6.867-1.924,8.752c0.467-0.084,0.867-0.254,1.215-0.484
	c-0.094,0.518-0.309,0.945-0.729,1.125c0.527,0.166,0.979,0.162,1.367,0.051c-0.119,0.357-0.32,0.641-0.641,0.779
	C13.608,22.006,12.903,10.336,9.296,10.217z"/>
<path id="Path_2271_" fill="#FFC940" d="M18.733,14.221c-0.816,0.098-1.412,2.824-0.902,3.545c0.072,0.102,0.49,0.264,0.803-0.371
	c0.174-0.352,0.672-0.645,0.828-1.371C19.663,15.096,19.542,14.127,18.733,14.221z"/>
<path id="Path_2270_" fill="#FFC940" d="M8.206,14.189c0.816,0.102,1.395,2.83,0.881,3.551c-0.072,0.1-0.494,0.258-0.803-0.377
	c-0.172-0.354-0.668-0.648-0.818-1.375C7.271,15.057,7.397,14.09,8.206,14.189z"/>
<path id="Path_2269_" fill="#F0A429" d="M18.71,14.744c-0.215,0.066-0.447,0.391-0.574,0.926c0.744-0.156,0.555,1.08-0.092,1.102
	c0.006,0.125,0.014,0.254,0.027,0.389c0.313-0.451,0.629-0.268,0.943-0.939C19.3,15.613,19.235,14.582,18.71,14.744z"/>
<path id="Path_2268_" fill="#F0A429" d="M8.794,15.641c-0.123-0.535-0.354-0.861-0.566-0.93c-0.525-0.164-0.596,0.867-0.316,1.475
	c0.313,0.674,0.627,0.494,0.938,0.947c0.016-0.135,0.025-0.266,0.031-0.389C8.241,16.711,8.062,15.488,8.794,15.641z"/>
<path fill="#FFC940" d="M13.485,8.959c-3.531-0.01-5.238,2.859-5.037,6.557c0.041,0.744,0.244,1.816,0.496,2.736
	c0.523,1.91,3.311,3.84,4.5,3.844s3.99-1.91,4.525-3.816c0.258-0.918,0.469-1.99,0.514-2.732
	C18.706,11.852,17.017,8.971,13.485,8.959z"/>
<path id="Path_2267_" fill="#966F42" d="M17.306,13.945c-0.807-0.432-2.352-0.457-2.928-0.16c-0.123,0.057-0.043,0.461,0.061,0.426
	c0.803-0.316,2.098-0.318,2.848,0.035C17.386,14.291,17.429,14.004,17.306,13.945z"/>
<path id="Path_2266_" fill="#966F42" d="M9.636,13.922c0.809-0.426,2.352-0.441,2.928-0.143c0.123,0.059,0.039,0.463-0.063,0.426
	c-0.803-0.322-2.096-0.332-2.848,0.018C9.554,14.268,9.513,13.98,9.636,13.922z"/>
<path id="Path_2265_" fill="#F0A429" d="M14.411,17.645c-0.1-0.07-0.338,0.039-0.953,0.037c-0.613-0.002-0.852-0.113-0.953-0.043
	c-0.119,0.084,0.07,0.469,0.953,0.473C14.339,18.113,14.532,17.73,14.411,17.645z"/>
<path id="Path_2264_" fill="#F0A429" d="M13.454,19.098c-0.793-0.238-1.971,0.104-1.971,0.104c0.447,0.49,0.773,1.123,1.967,1.127
	c1.367,0.004,1.604-0.713,1.975-1.115C15.425,19.213,14.249,18.863,13.454,19.098z"/>
<path id="Path_2263_" fill="#FFFFFF" d="M11.778,19.285c0.83,0.699,2.512,0.711,3.352,0.01
	C14.243,19.332,12.673,19.326,11.778,19.285z"/>
<path id="Path_2262_" fill="#FFFFFF" d="M12.681,15.387c0.029,0.234-0.131,0.51-0.57,0.717c-0.279,0.133-0.859,0.285-1.621-0.039
	c-0.342-0.145-0.674-0.596-0.643-0.842C10.263,14.443,12.296,14.336,12.681,15.387z"/>
<linearGradient id="Oval_3_" gradientUnits="userSpaceOnUse" x1="-426.8354" y1="480.1934" x2="-426.8354" y2="480.4365" gradientTransform="matrix(6.5701 0.0202 0.0202 -6.5701 2805.9517 3179.7031)">
	<stop  offset="0" style="stop-color:#A6694A"/>
	<stop  offset="1" style="stop-color:#4F2A1E"/>
	<a:midPointStop  offset="0" style="stop-color:#A6694A"/>
	<a:midPointStop  offset="0.5" style="stop-color:#A6694A"/>
	<a:midPointStop  offset="1" style="stop-color:#4F2A1E"/>
</linearGradient>
<circle id="Oval_272_" fill="url(#Oval_3_)" cx="11.301" cy="15.367" r="0.799"/>
<path id="Path_2261_" fill="#1A1626" d="M10.901,15.352c-0.002,0.553,0.797,0.555,0.799,0.002
	C11.702,14.842,10.903,14.84,10.901,15.352z"/>
<path id="Path_2260_" fill="#AB968C" d="M10.78,15.127c0,0.232,0.334,0.234,0.334,0C11.116,14.912,10.78,14.912,10.78,15.127z"/>
<path id="Path_2259_" fill="#F0A429" d="M12.685,15.418c-0.322-1.043-2.535-0.896-2.838-0.195
	C9.962,14.324,12.411,14.096,12.685,15.418z"/>
<path id="Path_2258_" fill="#FFFFFF" d="M14.251,15.393c-0.031,0.232,0.127,0.51,0.566,0.719c0.277,0.135,0.857,0.291,1.621-0.027
	c0.344-0.145,0.676-0.592,0.646-0.84C16.675,14.463,14.642,14.342,14.251,15.393z"/>
<linearGradient id="Oval_4_" gradientUnits="userSpaceOnUse" x1="-428.8774" y1="480.1924" x2="-428.8774" y2="480.4355" gradientTransform="matrix(6.5701 0.0202 0.0202 -6.5701 2823.6821 3179.7539)">
	<stop  offset="0" style="stop-color:#A6694A"/>
	<stop  offset="1" style="stop-color:#4F2A1E"/>
	<a:midPointStop  offset="0" style="stop-color:#A6694A"/>
	<a:midPointStop  offset="0.5" style="stop-color:#A6694A"/>
	<a:midPointStop  offset="1" style="stop-color:#4F2A1E"/>
</linearGradient>
<circle id="Oval_271_" fill="url(#Oval_4_)" cx="15.613" cy="15.381" r="0.799"/>
<path id="Path_2257_" fill="#1A1626" d="M15.214,15.365c-0.002,0.551,0.799,0.555,0.801,0.002
	C16.015,14.855,15.216,14.852,15.214,15.365z"/>
<path id="Path_2256_" fill="#AB968C" d="M15.093,15.141c0,0.232,0.334,0.234,0.336,0C15.429,14.926,15.093,14.926,15.093,15.141z"/>
<path id="Path_2255_" fill="#F0A429" d="M14.247,15.422c0.328-1.041,2.539-0.883,2.838-0.178
	C16.976,14.346,14.528,14.102,14.247,15.422z"/>
<linearGradient id="SVGID_2_" gradientUnits="userSpaceOnUse" x1="13.0122" y1="13.6753" x2="13.0122" y2="5.3955" gradientTransform="matrix(1 0.0031 -0.0031 1 0.4405 2.5497)">
	<stop  offset="0" style="stop-color:#473834"/>
	<stop  offset="0.2717" style="stop-color:#594640"/>
	<stop  offset="0.7226" style="stop-color:#715950"/>
	<stop  offset="1" style="stop-color:#7A6056"/>
	<a:midPointStop  offset="0" style="stop-color:#473834"/>
	<a:midPointStop  offset="0.4" style="stop-color:#473834"/>
	<a:midPointStop  offset="1" style="stop-color:#7A6056"/>
</linearGradient>
<path fill="url(#SVGID_2_)" d="M13.489,7.986c-2.148-0.006-3.225,0.963-3.443,1.424c-2.6,0.588-3.447,4.965-1.51,6.84
	c0.248-1.99,0.484-3.27,1.813-4.611c0.768,1.035,2.371,1.623,3.807,1.627c-0.678-0.496-1.141-0.982-1.502-1.436
	c2.395,1.109,5.078,1.822,5.736,4.451C20.71,12.613,18.806,8.002,13.489,7.986z"/>
<path fill="#473834" d="M36.278,9.504c-0.033,1.838,0.709,3.213,4.137,3.85C37.958,13.52,35.437,12.033,36.278,9.504z"/>
<path fill="#473834" d="M36.493,11.615c-0.895,0.883-1.9,2.412-1.709,4.746c0.178-1.93,1.064-3.518,1.867-4.547
	C36.595,11.752,36.542,11.686,36.493,11.615z"/>
<path fill="#473834" d="M38.028,11.033c1.797,1.717,6.215,1.605,6.646,5.328C43.522,12.74,39.616,13.553,38.028,11.033z"/>
<path fill="#473834" d="M10.062,9.424c-0.033,1.838,0.709,3.213,4.139,3.85C11.741,13.439,9.22,11.953,10.062,9.424z"/>
<path fill="#473834" d="M10.276,11.535c-0.895,0.883-1.898,2.412-1.709,4.746c0.178-1.93,1.064-3.518,1.867-4.547
	C10.378,11.672,10.325,11.605,10.276,11.535z"/>
<path fill="#473834" d="M11.812,10.953c1.797,1.717,6.215,1.605,6.646,5.328C17.306,12.66,13.399,13.473,11.812,10.953z"/>
<path fill="#302C3B" d="M44.464,2.064c-0.291-0.104-2.766,1.783-2.846,3.359c-0.09,1.787-0.201,3.074-0.277,3.85
	c-0.752-0.105-2.529-0.107-3.277,0.004c-0.072-0.773-0.174-2.068-0.254-3.865c-0.072-1.576-2.535-3.479-2.828-3.377
	c-0.475,0.162-1.342,2.992-0.537,4.227c1.16,1.775,1.654,2.881,1.867,3.525c-0.668,0.309-1.232,0.729-1.602,1.275
	c3.416-1.201,6.678-1.191,10.086,0.031c-0.383-0.576-0.982-1.018-1.691-1.332c0.227-0.648,0.729-1.74,1.869-3.467
	C45.786,5.064,44.94,2.23,44.464,2.064z"/>
<path fill="#302C3B" d="M18.247,1.984c-0.291-0.104-2.766,1.783-2.846,3.359c-0.09,1.787-0.201,3.074-0.277,3.85
	c-0.752-0.107-2.529-0.107-3.277,0.004c-0.072-0.775-0.174-2.068-0.254-3.865c-0.07-1.576-2.535-3.479-2.828-3.377
	C8.29,2.117,7.425,4.947,8.229,6.182c1.158,1.775,1.652,2.879,1.865,3.525c-0.666,0.309-1.232,0.729-1.602,1.275
	c3.416-1.201,6.678-1.191,10.086,0.031c-0.383-0.578-0.98-1.018-1.691-1.334c0.227-0.646,0.729-1.738,1.871-3.467
	C19.571,4.984,18.724,2.148,18.247,1.984z"/>
</svg>
