<?xml version="1.0" encoding="utf-8"?>
<!-- Generator: Adobe Illustrator 15.0.0, SVG Export Plug-In . SVG Version: 6.00 Build 0)  -->
<!DOCTYPE svg PUBLIC "-//W3C//DTD SVG 1.1//EN" "http://www.w3.org/Graphics/SVG/1.1/DTD/svg11.dtd" [
	<!ENTITY ns_flows "http://ns.adobe.com/Flows/1.0/">
	<!ENTITY ns_extend "http://ns.adobe.com/Extensibility/1.0/">
	<!ENTITY ns_ai "http://ns.adobe.com/AdobeIllustrator/10.0/">
	<!ENTITY ns_graphs "http://ns.adobe.com/Graphs/1.0/">
]>
<svg version="1.1" id="Layer_1" xmlns:x="&ns_extend;" xmlns:i="&ns_ai;" xmlns:graph="&ns_graphs;"
	 xmlns="http://www.w3.org/2000/svg" xmlns:xlink="http://www.w3.org/1999/xlink" xmlns:a="http://ns.adobe.com/AdobeSVGViewerExtensions/3.0/"
	 x="0px" y="0px" width="64px" height="64px" viewBox="0 0 64 64" enable-background="new 0 0 64 64" xml:space="preserve">
<path fill="#302C3B" d="M30.197,58l-8.905,3.74c0,0-12.36-0.521-12.36-2.293c0-1,0-1.447,0-1.447H30.197z"/>
<path fill="#3AB0A2" d="M5.812,31.723c1.271-1.646,7.427-3.657,7.427-3.657l11.658,0.02c0,0,6.119,2.006,7.387,3.641
	c2.084,2.688,2.849,5.357,2.849,5.357l-4.934,3V58H8.933V45.083l-4.931-4.929C4.002,40.154,3.731,34.413,5.812,31.723z"/>
<path fill="#2B998D" d="M24.896,28.085c0,4.888-11.658,4.868-11.658-0.02l1.169-0.413h9.27L24.896,28.085z"/>
<path fill="#F5BB51" d="M24.063,27.789c0,3.826-9.993,3.826-9.993,0c0-1.302,0-4.233,0-4.233h9.993
	C24.063,23.556,24.063,26.487,24.063,27.789z"/>
<path fill="#302C3B" d="M33.803,58l8.905,3.74c0,0,12.36-0.521,12.36-2.293c0-1,0-1.447,0-1.447H33.803z"/>
<path fill="#3A8FB0" d="M58.188,31.723c-1.271-1.646-7.427-3.657-7.427-3.657l-11.658,0.02c0,0-6.119,2.006-7.387,3.641
	c-2.084,2.688-2.849,5.357-2.849,5.357l4.934,3V58h21.266V45.083l4.931-4.929C59.998,40.154,60.269,34.413,58.188,31.723z"/>
<path fill="#007EB0" d="M39.104,28.085c0,4.888,11.658,4.868,11.658-0.02l-1.169-0.413h-9.27L39.104,28.085z"/>
<path fill="#F5BB51" d="M39.938,27.789c0,3.826,9.993,3.826,9.993,0c0-1.302,0-4.233,0-4.233h-9.993
	C39.938,23.556,39.938,26.487,39.938,27.789z"/>
<path id="Path_890_" fill="#FFC940" d="M55.094,13.998c-1.573,0.191-2.708,5.455-1.721,6.844c0.14,0.194,0.95,0.504,1.55-0.723
	c0.333-0.678,1.293-1.244,1.59-2.646C56.894,15.68,56.657,13.809,55.094,13.998z"/>
<path id="Path_889_" fill="#FFC940" d="M34.784,13.998c1.573,0.191,2.708,5.455,1.718,6.844c-0.138,0.194-0.948,0.504-1.55-0.723
	c-0.331-0.678-1.292-1.244-1.59-2.646C32.981,15.68,33.22,13.809,34.784,13.998z"/>
<path id="Path_888_" fill="#F0A429" d="M55.049,15.008c-0.408,0.129-0.855,0.754-1.1,1.792c1.434-0.308,1.076,2.08-0.171,2.125
	c0.012,0.24,0.027,0.487,0.058,0.747c0.601-0.872,1.21-0.521,1.814-1.818C56.195,16.684,56.065,14.688,55.049,15.008z"/>
<path id="Path_887_" fill="#F0A429" d="M35.927,16.797c-0.242-1.036-0.689-1.661-1.1-1.789c-1.016-0.319-1.146,1.676-0.601,2.846
	c0.603,1.297,1.214,0.946,1.815,1.818c0.029-0.26,0.045-0.508,0.055-0.748C34.864,18.865,34.511,16.507,35.927,16.797z"/>
<path id="Path_870_" fill="#FFC940" d="M44.938,3.878c-6.81,0-10.091,5.152-9.681,12.317c0.083,1.441,0.976,6.144,1.818,7.83
	c0.866,1.727,3.752,4.387,5.521,4.938c1.118,0.348,3.566,0.348,4.682,0c1.77-0.551,4.66-3.211,5.521-4.938
	c0.846-1.687,1.738-6.388,1.82-7.83C55.031,9.03,51.751,3.878,44.938,3.878z"/>
<path id="Path_852_" fill="#966F42" d="M52.338,13.473c-1.557-0.824-4.538-0.865-5.649-0.29c-0.238,0.11-0.08,0.893,0.119,0.818
	c1.548-0.612,4.045-0.626,5.493,0.052C52.493,14.142,52.573,13.588,52.338,13.473z"/>
<path id="Path_851_" fill="#966F42" d="M37.537,13.473c1.56-0.824,4.538-0.865,5.65-0.29c0.237,0.11,0.08,0.893-0.12,0.818
	c-1.55-0.612-4.043-0.626-5.493,0.052C37.382,14.142,37.303,13.588,37.537,13.473z"/>
<path id="Path_850_" fill="#F0A429" d="M46.777,20.628c-0.194-0.136-0.651,0.073-1.84,0.073c-1.186,0-1.643-0.209-1.837-0.073
	c-0.233,0.164,0.138,0.905,1.837,0.905C46.64,21.533,47.01,20.792,46.777,20.628z"/>
<path id="Path_849_" fill="#F0A429" d="M44.938,23.436c-1.53-0.45-3.801,0.213-3.801,0.213c0.863,0.942,1.498,2.164,3.801,2.164
	c2.641,0,3.09-1.388,3.803-2.164C48.74,23.648,46.468,22.982,44.938,23.436z"/>
<path id="Path_848_" fill="#FFFFFF" d="M41.707,23.809c1.605,1.348,4.848,1.356,6.463,0C46.46,23.882,43.431,23.883,41.707,23.809z"
	/>
<path id="Path_847_" fill="#FFFFFF" d="M43.423,16.283c0.058,0.451-0.248,0.986-1.096,1.387c-0.537,0.255-1.657,0.555-3.128-0.066
	c-0.66-0.277-1.302-1.144-1.245-1.622C38.752,14.478,42.677,14.258,43.423,16.283z"/>
<linearGradient id="Oval_1_" gradientUnits="userSpaceOnUse" x1="-437.8179" y1="479.5557" x2="-437.8179" y2="480.0254" gradientTransform="matrix(6.5701 0 0 -6.5701 2917.2688 3168.5281)">
	<stop  offset="0" style="stop-color:#A6694A"/>
	<stop  offset="1" style="stop-color:#4F2A1E"/>
	<a:midPointStop  offset="0" style="stop-color:#A6694A"/>
	<a:midPointStop  offset="0.5" style="stop-color:#A6694A"/>
	<a:midPointStop  offset="1" style="stop-color:#4F2A1E"/>
</linearGradient>
<circle id="Oval_116_" fill="url(#Oval_1_)" cx="40.76" cy="16.254" r="1.542"/>
<path id="Path_846_" fill="#1A1626" d="M39.989,16.226c0,1.066,1.541,1.066,1.541,0C41.53,15.235,39.989,15.235,39.989,16.226z"/>
<path id="Path_845_" fill="#AB968C" d="M39.755,15.793c0,0.447,0.647,0.447,0.647,0C40.402,15.379,39.755,15.379,39.755,15.793z"/>
<path id="Path_844_" fill="#F0A429" d="M43.431,16.344c-0.628-2.013-4.896-1.716-5.477-0.362
	C38.17,14.248,42.897,13.791,43.431,16.344z"/>
<path id="Path_843_" fill="#FFFFFF" d="M46.453,16.283c-0.058,0.451,0.248,0.986,1.095,1.387c0.54,0.255,1.658,0.555,3.131-0.066
	c0.659-0.277,1.302-1.144,1.242-1.622C51.126,14.478,47.2,14.258,46.453,16.283z"/>
<linearGradient id="Oval_2_" gradientUnits="userSpaceOnUse" x1="-439.2505" y1="479.5557" x2="-439.2505" y2="480.0254" gradientTransform="matrix(6.5701 0 0 -6.5701 2934.9993 3168.5281)">
	<stop  offset="0" style="stop-color:#A6694A"/>
	<stop  offset="1" style="stop-color:#4F2A1E"/>
	<a:midPointStop  offset="0" style="stop-color:#A6694A"/>
	<a:midPointStop  offset="0.5" style="stop-color:#A6694A"/>
	<a:midPointStop  offset="1" style="stop-color:#4F2A1E"/>
</linearGradient>
<circle id="Oval_115_" fill="url(#Oval_2_)" cx="49.081" cy="16.254" r="1.542"/>
<path id="Path_842_" fill="#1A1626" d="M48.311,16.226c0,1.066,1.543,1.066,1.543,0C49.854,15.235,48.311,15.235,48.311,16.226z"/>
<path id="Path_841_" fill="#AB968C" d="M48.076,15.793c0,0.447,0.647,0.447,0.647,0C48.724,15.379,48.076,15.379,48.076,15.793z"/>
<path id="Path_840_" fill="#F0A429" d="M46.447,16.344c0.625-2.012,4.891-1.724,5.474-0.362
	C51.705,14.248,46.98,13.791,46.447,16.344z"/>
<path fill="#7A6056" d="M53.638,5.585C52.146,3.567,49.418,2,44.938,2c-4.479,0-7.207,1.567-8.698,3.585
	C34.13,8.441,55.748,8.441,53.638,5.585z"/>
<linearGradient id="SVGID_1_" gradientUnits="userSpaceOnUse" x1="-57.5532" y1="17.958" x2="-57.5532" y2="4.7305" gradientTransform="matrix(1 0 0 1 102.4922 0)">
	<stop  offset="0.5" style="stop-color:#473834"/>
	<stop  offset="0.6387" style="stop-color:#503F3A"/>
	<stop  offset="0.8641" style="stop-color:#68524A"/>
	<stop  offset="1" style="stop-color:#7A6056"/>
	<a:midPointStop  offset="0.5" style="stop-color:#473834"/>
	<a:midPointStop  offset="0.6" style="stop-color:#473834"/>
	<a:midPointStop  offset="1" style="stop-color:#7A6056"/>
</linearGradient>
<path fill="url(#SVGID_1_)" d="M53.638,5.585c-1.491-2.018-4.22,0.17-8.7,0.17c-4.479,0-7.207-2.188-8.698-0.17
	c-2.109,2.856-1.393,12.373-0.454,12.373c0.149,0,0.17-3.33,0.454-5.633c0.23-1.875,0.678-3.692,1.188-3.99
	c1.564-0.907,4.58,0.391,7.51,0.391c2.933,0,5.948-1.298,7.512-0.391c0.512,0.298,0.956,2.115,1.188,3.99
	c0.283,2.303,0.304,5.633,0.455,5.633C55.031,17.958,55.748,8.441,53.638,5.585z"/>
<path id="Path_839_" fill="#FFC940" d="M29.223,13.998c-1.573,0.191-2.708,5.455-1.721,6.844c0.14,0.194,0.95,0.504,1.55-0.723
	c0.333-0.678,1.293-1.244,1.59-2.646C31.022,15.68,30.786,13.809,29.223,13.998z"/>
<path id="Path_838_" fill="#FFC940" d="M8.913,13.998c1.573,0.191,2.708,5.455,1.718,6.844c-0.138,0.194-0.948,0.504-1.55-0.723
	c-0.331-0.678-1.292-1.244-1.59-2.646C7.11,15.68,7.349,13.809,8.913,13.998z"/>
<path id="Path_837_" fill="#F0A429" d="M29.178,15.008c-0.408,0.129-0.855,0.754-1.1,1.792c1.434-0.308,1.076,2.08-0.171,2.125
	c0.012,0.24,0.027,0.487,0.058,0.747c0.601-0.872,1.21-0.521,1.814-1.818C30.324,16.684,30.194,14.688,29.178,15.008z"/>
<path id="Path_836_" fill="#F0A429" d="M10.056,16.797c-0.242-1.036-0.689-1.661-1.1-1.789c-1.016-0.319-1.146,1.676-0.601,2.846
	c0.603,1.297,1.214,0.946,1.815,1.818c0.029-0.26,0.045-0.508,0.055-0.748C8.993,18.865,8.64,16.507,10.056,16.797z"/>
<path id="Path_835_" fill="#FFC940" d="M19.066,3.878c-6.81,0-10.091,5.152-9.681,12.317c0.083,1.441,0.976,6.144,1.818,7.83
	c0.866,1.727,3.752,4.387,5.521,4.938c1.118,0.348,3.566,0.348,4.682,0c1.77-0.551,4.66-3.211,5.521-4.938
	c0.846-1.687,1.738-6.388,1.82-7.83C29.16,9.03,25.88,3.878,19.066,3.878z"/>
<path id="Path_834_" fill="#966F42" d="M26.467,13.473c-1.557-0.824-4.538-0.865-5.649-0.29c-0.238,0.11-0.08,0.893,0.119,0.818
	c1.548-0.612,4.045-0.626,5.493,0.052C26.622,14.142,26.702,13.588,26.467,13.473z"/>
<path id="Path_833_" fill="#966F42" d="M11.666,13.473c1.56-0.824,4.538-0.865,5.65-0.29c0.237,0.11,0.08,0.893-0.12,0.818
	c-1.55-0.612-4.043-0.626-5.493,0.052C11.511,14.142,11.432,13.588,11.666,13.473z"/>
<path id="Path_832_" fill="#F0A429" d="M20.906,20.628c-0.194-0.136-0.651,0.073-1.84,0.073c-1.186,0-1.643-0.209-1.837-0.073
	c-0.233,0.164,0.138,0.905,1.837,0.905C20.769,21.533,21.139,20.792,20.906,20.628z"/>
<path id="Path_831_" fill="#F0A429" d="M19.066,23.436c-1.53-0.45-3.801,0.213-3.801,0.213c0.863,0.942,1.498,2.164,3.801,2.164
	c2.641,0,3.09-1.388,3.803-2.164C22.869,23.648,20.597,22.982,19.066,23.436z"/>
<path id="Path_163_" fill="#FFFFFF" d="M15.836,23.809c1.605,1.348,4.848,1.356,6.463,0C20.589,23.882,17.56,23.883,15.836,23.809z"
	/>
<path id="Path_162_" fill="#FFFFFF" d="M17.552,16.283c0.058,0.451-0.248,0.986-1.096,1.387c-0.537,0.255-1.657,0.555-3.128-0.066
	c-0.66-0.277-1.302-1.144-1.245-1.622C12.881,14.478,16.806,14.258,17.552,16.283z"/>
<linearGradient id="Oval_3_" gradientUnits="userSpaceOnUse" x1="-441.7559" y1="479.5557" x2="-441.7559" y2="480.0254" gradientTransform="matrix(6.5701 0 0 -6.5701 2917.2688 3168.5281)">
	<stop  offset="0" style="stop-color:#A6694A"/>
	<stop  offset="1" style="stop-color:#4F2A1E"/>
	<a:midPointStop  offset="0" style="stop-color:#A6694A"/>
	<a:midPointStop  offset="0.5" style="stop-color:#A6694A"/>
	<a:midPointStop  offset="1" style="stop-color:#4F2A1E"/>
</linearGradient>
<circle id="Oval_24_" fill="url(#Oval_3_)" cx="14.889" cy="16.254" r="1.542"/>
<path id="Path_161_" fill="#1A1626" d="M14.118,16.226c0,1.066,1.541,1.066,1.541,0C15.659,15.235,14.118,15.235,14.118,16.226z"/>
<path id="Path_160_" fill="#AB968C" d="M13.884,15.793c0,0.447,0.647,0.447,0.647,0C14.531,15.379,13.884,15.379,13.884,15.793z"/>
<path id="Path_159_" fill="#F0A429" d="M17.56,16.344c-0.628-2.013-4.896-1.716-5.477-0.362
	C12.299,14.248,17.026,13.791,17.56,16.344z"/>
<path id="Path_158_" fill="#FFFFFF" d="M20.582,16.283c-0.058,0.451,0.248,0.986,1.095,1.387c0.54,0.255,1.658,0.555,3.131-0.066
	c0.659-0.277,1.302-1.144,1.242-1.622C25.255,14.478,21.329,14.258,20.582,16.283z"/>
<linearGradient id="Oval_4_" gradientUnits="userSpaceOnUse" x1="-443.188" y1="479.5557" x2="-443.188" y2="480.0254" gradientTransform="matrix(6.5701 0 0 -6.5701 2934.9993 3168.5281)">
	<stop  offset="0" style="stop-color:#A6694A"/>
	<stop  offset="1" style="stop-color:#4F2A1E"/>
	<a:midPointStop  offset="0" style="stop-color:#A6694A"/>
	<a:midPointStop  offset="0.5" style="stop-color:#A6694A"/>
	<a:midPointStop  offset="1" style="stop-color:#4F2A1E"/>
</linearGradient>
<circle id="Oval_23_" fill="url(#Oval_4_)" cx="23.21" cy="16.254" r="1.542"/>
<path id="Path_157_" fill="#1A1626" d="M22.439,16.226c0,1.066,1.543,1.066,1.543,0C23.982,15.235,22.439,15.235,22.439,16.226z"/>
<path id="Path_156_" fill="#AB968C" d="M22.205,15.793c0,0.447,0.647,0.447,0.647,0C22.853,15.379,22.205,15.379,22.205,15.793z"/>
<path id="Path_155_" fill="#F0A429" d="M20.576,16.344c0.625-2.012,4.891-1.724,5.474-0.362
	C25.834,14.248,21.109,13.791,20.576,16.344z"/>
<path fill="#7A6056" d="M27.767,5.585C26.275,3.567,23.547,2,19.066,2c-4.479,0-7.207,1.567-8.698,3.585
	C8.259,8.441,29.877,8.441,27.767,5.585z"/>
<linearGradient id="SVGID_2_" gradientUnits="userSpaceOnUse" x1="-83.4243" y1="17.958" x2="-83.4243" y2="4.7305" gradientTransform="matrix(1 0 0 1 102.4922 0)">
	<stop  offset="0.5" style="stop-color:#473834"/>
	<stop  offset="0.6387" style="stop-color:#503F3A"/>
	<stop  offset="0.8641" style="stop-color:#68524A"/>
	<stop  offset="1" style="stop-color:#7A6056"/>
	<a:midPointStop  offset="0.5" style="stop-color:#473834"/>
	<a:midPointStop  offset="0.6" style="stop-color:#473834"/>
	<a:midPointStop  offset="1" style="stop-color:#7A6056"/>
</linearGradient>
<path fill="url(#SVGID_2_)" d="M27.767,5.585c-1.491-2.018-4.22,0.17-8.7,0.17c-4.479,0-7.207-2.188-8.698-0.17
	C8.259,8.441,8.976,17.958,9.914,17.958c0.149,0,0.17-3.33,0.454-5.633c0.23-1.875,0.678-3.692,1.188-3.99
	c1.564-0.907,4.58,0.391,7.51,0.391c2.933,0,5.948-1.298,7.512-0.391c0.512,0.298,0.956,2.115,1.188,3.99
	c0.283,2.303,0.304,5.633,0.455,5.633C29.16,17.958,29.877,8.441,27.767,5.585z"/>
<path opacity="0.5" fill="#1A1626" d="M32.598,62h-0.184C32.476,62,32.536,62,32.598,62z"/>
<path fill="#FF9ED2" d="M35.896,52.721l-7.792,0.012c0,0-4.089,1.331-4.937,2.416c-1.187,1.519-1.731,5.412-1.867,6.535
	c3.45,0.209,7.279,0.314,11.113,0.316h0.184c3.467-0.002,6.93-0.088,10.111-0.26c-0.119-1.047-0.646-5.049-1.85-6.594
	C40.01,54.055,35.896,52.721,35.896,52.721z"/>
<path fill="#FF82C5" d="M28.104,52.732c0,3.242,7.792,3.23,7.792-0.012l-0.781-0.274H28.92L28.104,52.732z"/>
<path fill="#F5BB51" d="M28.662,52.537c0,2.538,6.679,2.538,6.679,0c0-0.863,0-2.807,0-2.807h-6.679
	C28.662,49.73,28.662,51.674,28.662,52.537z"/>
<path fill="#FF82C5" d="M25.133,61.868l-0.299-0.011C24.834,58.176,25.133,58.188,25.133,61.868z"/>
<path fill="#FF82C5" d="M39.168,61.893l-0.3,0.013C38.868,58.225,39.168,58.212,39.168,61.893z"/>
<path fill="#473834" d="M39.649,42.626c6.455,4.266,0.781,8.151,2.619,9.989C38.698,55.098,29.958,50.82,39.649,42.626z"/>
<path fill="#473834" d="M24.351,42.626c-6.455,4.266-0.779,8.151-2.617,9.989C25.304,55.098,34.044,50.82,24.351,42.626z"/>
<linearGradient id="SVGID_3_" gradientUnits="userSpaceOnUse" x1="32.0005" y1="45.2939" x2="32.0005" y2="31.6548">
	<stop  offset="0" style="stop-color:#473834"/>
	<stop  offset="0.2717" style="stop-color:#594640"/>
	<stop  offset="0.7226" style="stop-color:#715950"/>
	<stop  offset="1" style="stop-color:#7A6056"/>
	<a:midPointStop  offset="0" style="stop-color:#473834"/>
	<a:midPointStop  offset="0.4" style="stop-color:#473834"/>
	<a:midPointStop  offset="1" style="stop-color:#7A6056"/>
</linearGradient>
<path fill="url(#SVGID_3_)" d="M32.001,31.654c-6.787,0.004-11.082,5.973-8.439,13.64h16.877
	C43.081,37.627,38.786,31.658,32.001,31.654z"/>
<path id="Path_120_" fill="#FFC940" d="M23.442,42.107c1.066,0.13,1.834,3.729,1.166,4.68c-0.096,0.133-0.645,0.345-1.051-0.494
	c-0.227-0.464-0.877-0.852-1.078-1.809C22.222,43.257,22.384,41.979,23.442,42.107z"/>
<path id="Path_119_" fill="#F0A429" d="M23.472,42.798c0.277,0.087,0.582,0.516,0.746,1.226c-0.973-0.211-0.729,1.422,0.115,1.453
	c-0.008,0.164-0.018,0.333-0.039,0.51c-0.406-0.596-0.82-0.355-1.229-1.243C22.696,43.943,22.784,42.58,23.472,42.798z"/>
<path id="Path_118_" fill="#FFC940" d="M40.558,42.107c-1.064,0.13-1.834,3.729-1.164,4.68c0.094,0.133,0.643,0.345,1.051-0.494
	c0.225-0.464,0.875-0.852,1.076-1.809C41.78,43.257,41.618,41.978,40.558,42.107z"/>
<path id="Path_117_" fill="#F0A429" d="M39.784,44.021c0.164-0.709,0.467-1.137,0.744-1.224c0.689-0.219,0.777,1.146,0.408,1.945
	c-0.41,0.888-0.822,0.647-1.23,1.243c-0.02-0.178-0.031-0.347-0.037-0.512C40.503,45.436,40.743,43.822,39.784,44.021z"/>
<path fill="#FFC940" d="M32.001,32.857c-5.822,0-8.627,4.404-8.275,10.529c0.07,1.231,0.834,4.047,1.557,5.488
	c1.273,2.545,4.6,4.443,6.719,4.443c2.117,0,5.447-1.898,6.719-4.443c0.723-1.441,1.486-4.257,1.557-5.488
	C40.628,37.262,37.823,32.857,32.001,32.857z"/>
<path id="Path_116_" fill="#F0A429" d="M33.358,46.828c-0.145-0.102-0.482,0.054-1.357,0.054c-0.877,0-1.215-0.155-1.359-0.054
	c-0.17,0.121,0.104,0.668,1.359,0.668C33.255,47.496,33.53,46.949,33.358,46.828z"/>
<path id="Path_115_" fill="#F0A429" d="M32.001,48.779c-1.313-0.387-3.258,0.184-3.258,0.184c0.74,0.807,1.283,1.854,3.258,1.854
	c2.262,0,2.646-1.189,3.258-1.854C35.259,48.963,33.312,48.392,32.001,48.779z"/>
<path id="Path_114_" fill="#FFFFFF" d="M29.231,49.1c1.375,1.154,4.154,1.162,5.539,0C33.304,49.162,30.708,49.162,29.231,49.1z"/>
<path id="Path_113_" fill="#FFFFFF" d="M30.745,43.831c0.047,0.374-0.205,0.816-0.908,1.147c-0.445,0.213-1.373,0.461-2.592-0.053
	c-0.545-0.23-1.078-0.949-1.029-1.346C26.876,42.336,30.126,42.152,30.745,43.831z"/>
<linearGradient id="Oval_5_" gradientUnits="userSpaceOnUse" x1="-424.0786" y1="475.4023" x2="-424.0786" y2="475.791" gradientTransform="matrix(6.5701 0 0 -6.5701 2814.7805 3168.5281)">
	<stop  offset="0" style="stop-color:#A6694A"/>
	<stop  offset="1" style="stop-color:#4F2A1E"/>
	<a:midPointStop  offset="0" style="stop-color:#A6694A"/>
	<a:midPointStop  offset="0.5" style="stop-color:#A6694A"/>
	<a:midPointStop  offset="1" style="stop-color:#4F2A1E"/>
</linearGradient>
<circle id="Oval_16_" fill="url(#Oval_5_)" cx="28.54" cy="43.807" r="1.277"/>
<path id="Path_112_" fill="#1A1626" d="M27.901,43.783c0,0.883,1.277,0.883,1.277,0C29.179,42.963,27.901,42.963,27.901,43.783z"/>
<path id="Path_111_" fill="#AB968C" d="M27.708,43.426c0,0.369,0.535,0.369,0.535,0C28.243,43.082,27.708,43.082,27.708,43.426z"/>
<path id="Path_110_" fill="#F0A429" d="M30.751,43.881c-0.518-1.668-4.055-1.422-4.535-0.301
	C26.394,42.146,30.31,41.767,30.751,43.881z"/>
<path id="Path_109_" fill="#FFFFFF" d="M33.257,43.831c-0.049,0.374,0.205,0.816,0.906,1.147c0.445,0.213,1.373,0.461,2.594-0.053
	c0.545-0.23,1.078-0.949,1.029-1.346C37.126,42.336,33.874,42.152,33.257,43.831z"/>
<linearGradient id="Oval_6_" gradientUnits="userSpaceOnUse" x1="-425.728" y1="475.4023" x2="-425.728" y2="475.791" gradientTransform="matrix(6.5701 0 0 -6.5701 2832.511 3168.5281)">
	<stop  offset="0" style="stop-color:#A6694A"/>
	<stop  offset="1" style="stop-color:#4F2A1E"/>
	<a:midPointStop  offset="0" style="stop-color:#A6694A"/>
	<a:midPointStop  offset="0.5" style="stop-color:#A6694A"/>
	<a:midPointStop  offset="1" style="stop-color:#4F2A1E"/>
</linearGradient>
<circle id="Oval_15_" fill="url(#Oval_6_)" cx="35.433" cy="43.807" r="1.277"/>
<path id="Path_108_" fill="#1A1626" d="M34.796,43.783c0,0.883,1.277,0.883,1.277,0C36.073,42.963,34.796,42.963,34.796,43.783z"/>
<path id="Path_107_" fill="#AB968C" d="M34.601,43.426c0,0.369,0.535,0.369,0.535,0C35.136,43.082,34.601,43.082,34.601,43.426z"/>
<path id="Path_106_" fill="#F0A429" d="M33.251,43.881c0.518-1.667,4.051-1.428,4.535-0.301
	C37.606,42.146,33.692,41.767,33.251,43.881z"/>
<path id="Path_105_" fill="#F0A429" d="M37.868,41.841c-1.098-0.693-3.311-0.895-4.178-0.54c-0.186,0.068-0.125,0.648,0.029,0.605
	c1.195-0.357,3.051-0.223,4.078,0.356C37.937,42.338,38.036,41.938,37.868,41.841z"/>
<path id="Path_104_" fill="#F0A429" d="M26.132,41.841c1.1-0.693,3.311-0.895,4.178-0.54c0.186,0.068,0.125,0.648-0.029,0.605
	c-1.195-0.357-3.049-0.223-4.08,0.356C26.063,42.338,25.964,41.938,26.132,41.841z"/>
<linearGradient id="SVGID_4_" gradientUnits="userSpaceOnUse" x1="32.001" y1="44.832" x2="32.001" y2="31.855">
	<stop  offset="0" style="stop-color:#473834"/>
	<stop  offset="0.2717" style="stop-color:#594640"/>
	<stop  offset="0.7226" style="stop-color:#715950"/>
	<stop  offset="1" style="stop-color:#7A6056"/>
	<a:midPointStop  offset="0" style="stop-color:#473834"/>
	<a:midPointStop  offset="0.4" style="stop-color:#473834"/>
	<a:midPointStop  offset="1" style="stop-color:#7A6056"/>
</linearGradient>
<path fill="url(#SVGID_4_)" d="M31.999,31.854c-3.414-0.001-6.467,1.895-7.131,4.451c-1.719,1.685-1.979,5.509-0.896,8.526
	c0.141-2.896,1.746-4.354,1.646-7.541c9.592,0,13.893,3.129,14.406,7.541C42.202,38.753,38.772,31.854,31.999,31.854z"/>
<path fill="#473834" d="M40.024,44.832c-1.795-7.715-15.166-7.5-15.166-7.5C24.931,37.325,39.192,35.026,40.024,44.832z"/>
<path fill="#473834" d="M23.972,44.832c-0.123-3.424,1.689-4.967,1.494-8.502C26.216,39.689,24.601,41.357,23.972,44.832z"/>
<path fill="#CFD8DD" d="M40.175,42.215c0.766-11.572-17.117-11.572-16.352,0C24.491,32.496,39.507,32.496,40.175,42.215z"/>
<path fill="#FFFFFF" d="M40.175,41.841c0.766-11.573-17.117-11.573-16.352,0C24.491,32.121,39.507,32.121,40.175,41.841z"/>
<path fill="#F5BB51" d="M59.998,45.084c-0.045-1.625-0.136-4.795-0.136-4.795s-2.856,1.678-6.189,1.809
	c0.118,1.821,0.395,2.985,0.395,2.985c-3.16,1.11-9.138,6.839-11.638,7.638c-1.764,0.563-3.588-0.201-4.588,0.768
	c0.781,0.359,1.094,0.481,1.094,0.481c0.968,1.183-3.68,2.917-2.191,4.03c0.573,0.568,2.51,2.371,5.439-0.941
	c0.232-0.263,1.408-1.541,2.2-1.708c2.064-0.435,11.573-3.856,14.948-6.478C59.835,48.482,60.035,46.439,59.998,45.084z"/>
<path fill="#F0A429" d="M39.473,56.059c0,0-1.768,1.021-2.729,1.941C38.066,57.121,39.473,56.059,39.473,56.059z"/>
<path fill="#F0A429" d="M40.379,56.465c0,0-2.003,1.318-2.886,2.137C38.866,57.809,40.379,56.465,40.379,56.465z"/>
<path fill="#F0A429" d="M41.035,57.137c0,0-1.734,1.188-2.723,1.801C39.238,58.73,41.035,57.137,41.035,57.137z"/>
<path fill="#F5BB51" d="M4.002,45.084c0.045-1.625,0.136-4.795,0.136-4.795s2.856,1.678,6.189,1.809
	c-0.118,1.821-0.395,2.985-0.395,2.985c3.16,1.11,9.138,6.839,11.638,7.638c1.764,0.563,3.588-0.201,4.588,0.768
	c-0.781,0.359-1.094,0.481-1.094,0.481c-0.968,1.183,3.68,2.917,2.191,4.03c-0.573,0.568-2.51,2.371-5.439-0.941
	c-0.232-0.263-1.408-1.541-2.2-1.708c-2.064-0.435-11.573-3.856-14.948-6.478C4.165,48.482,3.965,46.439,4.002,45.084z"/>
<path fill="#F0A429" d="M24.527,56.059c0,0,1.768,1.021,2.729,1.941C25.934,57.121,24.527,56.059,24.527,56.059z"/>
<path fill="#F0A429" d="M23.621,56.465c0,0,2.003,1.318,2.886,2.137C25.134,57.809,23.621,56.465,23.621,56.465z"/>
<path fill="#F0A429" d="M22.965,57.137c0,0,1.734,1.188,2.723,1.801C24.762,58.73,22.965,57.137,22.965,57.137z"/>
</svg>
