<?xml version="1.0" encoding="utf-8"?>
<!-- Generator: Adobe Illustrator 15.0.0, SVG Export Plug-In . SVG Version: 6.00 Build 0)  -->
<!DOCTYPE svg PUBLIC "-//W3C//DTD SVG 1.1//EN" "http://www.w3.org/Graphics/SVG/1.1/DTD/svg11.dtd" [
	<!ENTITY ns_flows "http://ns.adobe.com/Flows/1.0/">
	<!ENTITY ns_extend "http://ns.adobe.com/Extensibility/1.0/">
	<!ENTITY ns_ai "http://ns.adobe.com/AdobeIllustrator/10.0/">
	<!ENTITY ns_graphs "http://ns.adobe.com/Graphs/1.0/">
]>
<svg version="1.1" id="Layer_1" xmlns:x="&ns_extend;" xmlns:i="&ns_ai;" xmlns:graph="&ns_graphs;"
	 xmlns="http://www.w3.org/2000/svg" xmlns:xlink="http://www.w3.org/1999/xlink" xmlns:a="http://ns.adobe.com/AdobeSVGViewerExtensions/3.0/"
	 x="0px" y="0px" width="64px" height="64px" viewBox="0 0 64 64" enable-background="new 0 0 64 64" xml:space="preserve">
<path fill="#D43D3D" d="M56.515,57.399c-1.6-2.238-1.386-6.703-2.313-7.854C51.588,46.404,43.015,60.757,56.515,57.399z"/>
<path fill="#594640" d="M15.73,61.272c0,0,0.789-0.707,1.173-1.309c0.572-8.934,1.806-13.326,5.594-18.134
	C13.778,26.228,15.73,61.272,15.73,61.272z"/>
<path fill="#785647" d="M0.153,26.032c7.644,15.966,7.339,33.6,7.431,34.803c0.09,1.203,8.146,0.711,8.146,0.438
	s-0.888-17.415,2.899-22.223C19.14,38.402,0.707,25.158,0.153,26.032z"/>
<path fill="#C4926E" d="M30.813,57.748c4.781,6.454,28.773,4.155,32.464,2.187c0.902-0.479,0.825-1.504,0.489-2.316
	c-42.231,3.449-23.706-5.957-63.049-33.41C-3.852,27.15,14.265,35.415,30.813,57.748z"/>
<path fill="#FED0AC" d="M31.219,56.108c5.619,7.238,28.427,4.047,32.119,2.078c4.552-2.43-24.075,0.756-28.646-4.43
	C25.536,43.364,6.725,22.748,1.177,24.06C-4.426,25.386,13.988,33.903,31.219,56.108z"/>
<linearGradient id="SVGID_1_" gradientUnits="userSpaceOnUse" x1="45.1484" y1="60.7568" x2="45.1484" y2="44.6475">
	<stop  offset="0" style="stop-color:#FF4A4A"/>
	<stop  offset="1" style="stop-color:#FFB3B3"/>
	<a:midPointStop  offset="0" style="stop-color:#FF4A4A"/>
	<a:midPointStop  offset="0.5" style="stop-color:#FF4A4A"/>
	<a:midPointStop  offset="1" style="stop-color:#FFB3B3"/>
</linearGradient>
<path fill="url(#SVGID_1_)" d="M35.946,59.152c-3.735-9.634,4.921-15.999,7.769-14.201c5.412,3.419,9.427,2.954,10.487,4.595
	c-1.5-1.388-0.833,7.605,1.069,10.504C54.542,61.062,36.973,61.17,35.946,59.152z"/>
</svg>
