<?xml version="1.0" encoding="utf-8"?>
<!-- Generator: Adobe Illustrator 24.1.2, SVG Export Plug-In . SVG Version: 6.00 Build 0)  -->
<svg version="1.1" id="Layer_1" xmlns="http://www.w3.org/2000/svg" xmlns:xlink="http://www.w3.org/1999/xlink" x="0px" y="0px"
	 width="64px" height="64px" viewBox="0 0 64 64" style="enable-background:new 0 0 64 64;" xml:space="preserve">
<style type="text/css">
	.st0{fill:#FFC940;}
	.st1{fill:#F0A429;}
	.st2{fill:#966F42;}
	.st3{fill:#FFFFFF;}
	.st4{fill:url(#Oval_1_);}
	.st5{fill:#1A1626;}
	.st6{fill:#AB968C;}
	.st7{fill:url(#Oval_2_);}
	.st8{fill:#7A6056;}
	.st9{fill:url(#SVGID_1_);}
	.st10{fill:#473834;}
	.st11{fill:#D47706;}
	.st12{fill:url(#Oval_3_);}
	.st13{fill:#45332C;}
	.st14{fill:url(#Oval_4_);}
	.st15{fill:url(#SVGID_2_);}
	.st16{fill:url(#SVGID_3_);}
</style>
<path id="Path_86_" class="st0" d="M60.54,42c-1.85,0.22-3.18,6.41-2.02,8.04c0.16,0.23,1.12,0.59,1.82-0.85
	c0.39-0.8,1.52-1.46,1.87-3.11C62.66,43.98,62.38,41.78,60.54,42z"/>
<path id="Path_85_" class="st0" d="M36.67,42c1.85,0.22,3.18,6.41,2.02,8.04c-0.16,0.23-1.12,0.59-1.82-0.85
	c-0.39-0.8-1.52-1.46-1.87-3.11C34.55,43.98,34.83,41.78,36.67,42z"/>
<path id="Path_84_" class="st1" d="M60.49,43.19c-0.48,0.15-1.01,0.89-1.29,2.11c1.69-0.36,1.26,2.44-0.2,2.5
	c0.01,0.28,0.03,0.57,0.07,0.88c0.71-1.03,1.42-0.61,2.13-2.14C61.84,45.16,61.69,42.81,60.49,43.19z"/>
<path id="Path_83_" class="st1" d="M38.01,45.29c-0.29-1.22-0.81-1.95-1.29-2.1c-1.19-0.38-1.35,1.97-0.71,3.34
	c0.71,1.52,1.43,1.11,2.14,2.14c0.03-0.31,0.05-0.6,0.06-0.88C36.76,47.72,36.35,44.95,38.01,45.29z"/>
<path id="Path_82_" class="st0" d="M48.61,30.1c-8,0-11.86,6.06-11.38,14.48c0.1,1.69,1.15,7.22,2.14,9.2
	c1.01,2.03,4.41,5.16,6.49,5.8c1.31,0.41,4.19,0.41,5.5,0c2.08-0.65,5.48-3.77,6.49-5.8c0.99-1.98,2.04-7.51,2.14-9.2
	C60.47,36.16,56.61,30.1,48.61,30.1z"/>
<path id="Path_81_" class="st2" d="M57.31,41.38c-1.83-0.97-5.34-1.02-6.64-0.34c-0.28,0.13-0.09,1.05,0.14,0.96
	c1.82-0.72,4.75-0.74,6.45,0.06C57.49,42.17,57.58,41.52,57.31,41.38z"/>
<path id="Path_80_" class="st2" d="M39.91,41.38c1.83-0.97,5.33-1.02,6.64-0.34c0.28,0.13,0.1,1.05-0.14,0.96
	c-1.82-0.72-4.75-0.74-6.46,0.06C39.72,42.17,39.63,41.52,39.91,41.38z"/>
<path id="Path_79_" class="st1" d="M50.77,49.79c-0.23-0.16-0.76,0.09-2.16,0.09c-1.39,0-1.93-0.25-2.16-0.09
	c-0.27,0.19,0.16,1.06,2.16,1.06C50.61,50.86,51.04,49.99,50.77,49.79z"/>
<path id="Path_78_" class="st1" d="M48.61,53.09c-1.8-0.53-4.47,0.25-4.47,0.25c1.02,1.11,1.76,2.54,4.47,2.54
	c3.1,0,3.63-1.63,4.47-2.54C53.08,53.34,50.41,52.56,48.61,53.09z"/>
<path id="Path_77_" class="st3" d="M44.81,53.53c1.89,1.58,5.7,1.59,7.6,0C50.4,53.62,46.84,53.62,44.81,53.53z"/>
<path id="Path_76_" class="st3" d="M46.83,44.69c0.07,0.53-0.29,1.16-1.29,1.63c-0.63,0.3-1.95,0.65-3.68-0.08
	c-0.78-0.33-1.53-1.34-1.46-1.91C41.34,42.56,45.95,42.3,46.83,44.69z"/>
<linearGradient id="Oval_1_" gradientUnits="userSpaceOnUse" x1="-421.7722" y1="475.1928" x2="-421.7722" y2="475.7446" gradientTransform="matrix(6.5701 0 0 -6.5701 2814.7817 3168.5269)">
	<stop  offset="0" style="stop-color:#A6694A"/>
	<stop  offset="1" style="stop-color:#4F2A1E"/>
</linearGradient>
<circle id="Oval_12_" class="st4" cx="43.7" cy="44.65" r="1.81"/>
<path id="Path_75_" class="st5" d="M42.79,44.62c0,1.25,1.81,1.25,1.81,0C44.6,43.45,42.79,43.45,42.79,44.62z"/>
<path id="Path_74_" class="st6" d="M42.51,44.11c0,0.52,0.76,0.52,0.76,0C43.28,43.62,42.51,43.62,42.51,44.11z"/>
<path id="Path_73_" class="st1" d="M46.84,44.76c-0.74-2.37-5.75-2.02-6.44-0.43C40.65,42.29,46.21,41.76,46.84,44.76z"/>
<path id="Path_72_" class="st3" d="M50.39,44.69c-0.07,0.53,0.29,1.16,1.29,1.63c0.63,0.3,1.95,0.65,3.68-0.08
	c0.77-0.33,1.53-1.34,1.46-1.91C55.88,42.56,51.26,42.3,50.39,44.69z"/>
<linearGradient id="Oval_2_" gradientUnits="userSpaceOnUse" x1="-422.9821" y1="475.1928" x2="-422.9821" y2="475.7446" gradientTransform="matrix(6.5701 0 0 -6.5701 2832.5122 3168.5269)">
	<stop  offset="0" style="stop-color:#A6694A"/>
	<stop  offset="1" style="stop-color:#4F2A1E"/>
</linearGradient>
<circle id="Oval_11_" class="st7" cx="53.48" cy="44.65" r="1.81"/>
<path id="Path_71_" class="st5" d="M52.57,44.62c0,1.25,1.81,1.25,1.81,0C54.39,43.45,52.57,43.45,52.57,44.62z"/>
<path id="Path_70_" class="st6" d="M52.3,44.11c0,0.52,0.76,0.52,0.76,0C53.06,43.62,52.3,43.62,52.3,44.11z"/>
<path id="Path_69_" class="st1" d="M50.38,44.76c0.74-2.36,5.75-2.02,6.44-0.43C56.56,42.29,51.01,41.76,50.38,44.76z"/>
<path class="st8" d="M58.83,32.11c-1.75-2.37-4.96-4.21-10.23-4.21c-5.26,0-8.47,1.84-10.22,4.21
	C35.9,35.47,61.31,35.47,58.83,32.11z"/>
<linearGradient id="SVGID_1_" gradientUnits="userSpaceOnUse" x1="48.608" y1="46.6543" x2="48.608" y2="31.1052">
	<stop  offset="0.5" style="stop-color:#473834"/>
	<stop  offset="0.6387" style="stop-color:#503F3A"/>
	<stop  offset="0.8641" style="stop-color:#68524A"/>
	<stop  offset="1" style="stop-color:#7A6056"/>
</linearGradient>
<path class="st9" d="M58.83,32.11c-1.75-2.37-4.96,0.2-10.23,0.2c-5.26,0-8.47-2.57-10.22-0.2c-2.48,3.36-1.64,14.54-0.54,14.54
	c0.18,0,0.2-3.91,0.54-6.62c0.27-2.2,0.79-4.34,1.4-4.69c1.84-1.07,5.38,0.46,8.83,0.46c3.45,0,6.99-1.53,8.83-0.46
	c0.6,0.35,1.13,2.49,1.4,4.69c0.33,2.71,0.36,6.62,0.53,6.62C60.47,46.65,61.31,35.47,58.83,32.11z"/>
<path class="st10" d="M23.67,60.45c11.04-4.41,9.93-14.9,9.93-14.9H2.7c0,0-1.1,10.48,9.93,14.9c0,0,2.21,0.55,5.52,0.55
	C21.46,61,23.67,60.45,23.67,60.45z"/>
<path class="st0" d="M18.15,29.55c-8.01,0-11.86,6.52-11.38,14.9c0.1,1.68,0.57,4.11,1.15,6.2c1.2,4.33,7.54,8.69,10.24,8.69
	c2.7,0,9.03-4.36,10.24-8.69c0.58-2.08,1.05-4.51,1.15-6.2C30.01,36.07,26.16,29.55,18.15,29.55z"/>
<path class="st11" d="M18.15,52.54c-1.88-0.83-1.89-0.03-4.79,0.16c1.09,1.23,1.89,2.82,4.79,2.82c3.33,0,3.89-1.8,4.79-2.82
	C20.04,52.5,20.03,51.71,18.15,52.54z"/>
<path class="st3" d="M14.23,53.01c1.89,1.97,5.97,1.94,7.84,0C19.16,53.32,17.15,53.32,14.23,53.01z"/>
<path class="st2" d="M26.66,41.67c-1.74-1.04-4.86-1.16-6.09-0.46c-0.26,0.14-0.19,0.89,0.03,0.8c1.76-0.73,4.44-0.77,6.1,0.08
	C26.92,42.2,26.92,41.82,26.66,41.67z"/>
<path class="st2" d="M9.64,41.67c1.74-1.04,4.86-1.16,6.1-0.46c0.26,0.14,0.19,0.89-0.04,0.8c-1.76-0.73-4.44-0.77-6.1,0.08
	C9.39,42.2,9.38,41.82,9.64,41.67z"/>
<path class="st1" d="M19.95,49.88c-0.19-0.13-0.64,0.07-1.8,0.07c-1.16,0-1.61-0.21-1.8-0.07c-0.23,0.16,0.13,0.89,1.8,0.89
	C19.82,50.76,20.18,50.04,19.95,49.88z"/>
<path id="Path_68_" class="st3" d="M16.37,44.81c0.07,0.53-0.29,1.16-1.29,1.63c-0.63,0.3-1.95,0.65-3.68-0.08
	c-0.78-0.33-1.53-1.34-1.46-1.91C10.88,42.69,15.49,42.43,16.37,44.81z"/>
<linearGradient id="Oval_3_" gradientUnits="userSpaceOnUse" x1="-426.4079" y1="475.1738" x2="-426.4079" y2="475.7253" gradientTransform="matrix(6.5701 0 0 -6.5701 2814.7817 3168.5269)">
	<stop  offset="0" style="stop-color:#A6694A"/>
	<stop  offset="1" style="stop-color:#4F2A1E"/>
</linearGradient>
<path id="Oval_10_" class="st12" d="M13.24,42.96c1,0,1.81,0.81,1.81,1.81c0,1-0.81,1.81-1.81,1.81c-1,0-1.81-0.81-1.81-1.81
	C11.43,43.77,12.24,42.96,13.24,42.96z"/>
<path id="Path_67_" class="st5" d="M12.34,44.74c0,1.25,1.81,1.25,1.81,0C14.15,43.58,12.34,43.58,12.34,44.74z"/>
<path id="Path_66_" class="st6" d="M12.06,44.24c0,0.53,0.76,0.53,0.76,0C12.82,43.75,12.06,43.75,12.06,44.24z"/>
<path id="Path_65_" class="st13" d="M16.38,44.88c-0.74-2.36-5.75-2.02-6.44-0.43C10.2,42.42,15.75,41.88,16.38,44.88z"/>
<path id="Path_64_" class="st3" d="M19.93,44.81c-0.07,0.53,0.29,1.16,1.29,1.63c0.63,0.3,1.95,0.65,3.68-0.08
	c0.77-0.33,1.53-1.34,1.46-1.91C25.43,42.69,20.81,42.43,19.93,44.81z"/>
<linearGradient id="Oval_4_" gradientUnits="userSpaceOnUse" x1="-427.6175" y1="475.1738" x2="-427.6175" y2="475.7253" gradientTransform="matrix(6.5701 0 0 -6.5701 2832.5122 3168.5269)">
	<stop  offset="0" style="stop-color:#A6694A"/>
	<stop  offset="1" style="stop-color:#4F2A1E"/>
</linearGradient>
<path id="Oval_9_" class="st14" d="M23.02,42.96c1,0,1.81,0.81,1.81,1.81c0,1-0.81,1.81-1.81,1.81c-1,0-1.81-0.81-1.81-1.81
	C21.21,43.77,22.02,42.96,23.02,42.96z"/>
<path id="Path_63_" class="st5" d="M22.12,44.74c0,1.25,1.81,1.25,1.81,0C23.93,43.58,22.12,43.58,22.12,44.74z"/>
<path id="Path_62_" class="st6" d="M21.84,44.24c0,0.53,0.76,0.53,0.76,0C22.6,43.75,21.84,43.75,21.84,44.24z"/>
<path id="Path_61_" class="st13" d="M19.93,44.88c0.74-2.36,5.75-2.02,6.44-0.43C26.11,42.42,20.55,41.88,19.93,44.88z"/>
<linearGradient id="SVGID_2_" gradientUnits="userSpaceOnUse" x1="18.1521" y1="60.4478" x2="18.1521" y2="27.8962">
	<stop  offset="0.05" style="stop-color:#473834"/>
	<stop  offset="0.2266" style="stop-color:#594640"/>
	<stop  offset="0.5197" style="stop-color:#715950"/>
	<stop  offset="0.7" style="stop-color:#7A6056"/>
</linearGradient>
<path class="st15" d="M27.16,30.72c0.92-1.31-6.83-4.06-14.14-2.2C5.72,30.2,1.6,41.14,1.6,48.29c0,4.8,3.86,11.05,11.03,12.15
	c-7.9-5.53-6.63-11.02-4.41-17.65c5.49-3.18,11.69-3.92,16-7.73c-0.55,1.66,2.37,3.74,3.86,7.73c2.27,6.05,3.43,12.16-4.41,17.65
	c6.62-1.1,11.04-7.36,11.04-12.15C34.7,42.24,30.09,29.88,27.16,30.72z"/>
<path class="st10" d="M2.92,47.21c5.05-6.73,21.42-6.27,24.25-16.48C21.67,39.29,4.3,40.74,2.92,47.21z"/>
<linearGradient id="SVGID_3_" gradientUnits="userSpaceOnUse" x1="34.133" y1="28.6" x2="34.133" y2="3">
	<stop  offset="0" style="stop-color:#DB0100"/>
	<stop  offset="0.5836" style="stop-color:#F31317"/>
	<stop  offset="1" style="stop-color:#FF1C23"/>
</linearGradient>
<path class="st16" d="M34.13,6.86c-4.2-6.82-15.8-4.16-15.81,4.41c0,5.15,4.32,8.78,12.75,15.59c2.86,2.31,3.27,2.31,6.13,0
	c8.42-6.81,12.74-10.44,12.74-15.6C49.94,2.71,38.33,0.05,34.13,6.86z"/>
</svg>
