<?xml version="1.0" encoding="utf-8"?>
<!-- Generator: Adobe Illustrator 15.0.0, SVG Export Plug-In . SVG Version: 6.00 Build 0)  -->
<!DOCTYPE svg PUBLIC "-//W3C//DTD SVG 1.1//EN" "http://www.w3.org/Graphics/SVG/1.1/DTD/svg11.dtd" [
	<!ENTITY ns_flows "http://ns.adobe.com/Flows/1.0/">
	<!ENTITY ns_extend "http://ns.adobe.com/Extensibility/1.0/">
	<!ENTITY ns_ai "http://ns.adobe.com/AdobeIllustrator/10.0/">
	<!ENTITY ns_graphs "http://ns.adobe.com/Graphs/1.0/">
]>
<svg version="1.1" id="Layer_1" xmlns:x="&ns_extend;" xmlns:i="&ns_ai;" xmlns:graph="&ns_graphs;"
	 xmlns="http://www.w3.org/2000/svg" xmlns:xlink="http://www.w3.org/1999/xlink" xmlns:a="http://ns.adobe.com/AdobeSVGViewerExtensions/3.0/"
	 x="0px" y="0px" width="64px" height="64px" viewBox="0 0 64 64" enable-background="new 0 0 64 64" xml:space="preserve">
<path fill="#CFD8DD" d="M54.993,29.757c-1.543-6.49-3.653-11.008-6.526-13.224c-6.104-4.709-26.827-4.709-32.933,0
	c-2.874,2.216-4.984,6.733-6.527,13.224C5.702,43.649,8.213,59.002,8.213,59.002h47.574C55.787,59.002,58.298,43.649,54.993,29.757z
	"/>
<path fill="#855E45" d="M56,59.525c0-2.452-0.729-5.047-4.199-6.947c-2.388-1.313-12.407-4.807-12.407-4.807H24.606
	c0,0-9.95,3.502-12.353,4.809C8.774,54.474,8,57.069,8,59.525c0,0.867,3.313,1.507,8.193,1.918h31.614
	C52.688,61.031,56,60.393,56,59.525z"/>
<path fill="#855E45" d="M24.5,49.95c0,0,2.361,2.832,7.5,2.832c5.141,0,7.5-2.832,7.5-2.832v-8.035h-15V49.95z"/>
<path fill="#FFFFFF" d="M12.892,51.97c-0.073-0.887,1.264-1.996,1.875-1.354c0.479-1.197,2.096-0.533,2.138,0.127
	c0.459,7.293,1.68,9.249-0.711,10.7C11.389,60.324,9.609,52.147,12.892,51.97z"/>
<path fill="#E6EBEF" d="M14.92,51.239c-0.118,2.191,1.441,6.143,3.092,10.08C12.8,51.505,15,49.79,14.92,51.239z"/>
<path fill="#E6EBEF" d="M12.855,52.28c-0.241,0.645,0.314,4.836,4.303,9.117C13.263,56.271,13.138,51.53,12.855,52.28z"/>
<path fill="#FFFFFF" d="M51.108,51.97c0.075-0.887-1.262-1.996-1.873-1.354c-0.481-1.197-2.096-0.533-2.136,0.127
	c-0.461,7.293-1.684,9.249,0.708,10.7C52.614,60.324,54.391,52.147,51.108,51.97z"/>
<path fill="#E6EBEF" d="M49.08,51.239c0.12,2.191-1.439,6.143-3.092,10.08C51.202,51.505,49.002,49.79,49.08,51.239z"/>
<path fill="#E6EBEF" d="M51.146,52.28c0.24,0.645-0.316,4.836-4.304,9.117C50.738,56.271,50.864,51.53,51.146,52.28z"/>
<path fill="#F2F5F7" d="M17.114,57.856c-0.748,0.734-0.771,2.665-0.921,3.587c8.827,0.745,22.788,0.745,31.614,0
	c-0.149-0.922-0.173-2.853-0.922-3.588C45.862,56.852,18.125,56.864,17.114,57.856z"/>
<path fill="#3B2118" d="M47.184,38.786c1.08,0.713,2.326,1.247,3.781,1.52c-2.582-5.889,1.313-18.237-6.668-27.312
	c-11.25,0.338-12.807,36.723,2.875,31.884c-0.998-0.433-1.623-1.315-1.99-2.43c1.209,0.347,2.621,0.358,4.266-0.148
	C48.139,41.733,47.471,40.399,47.184,38.786z"/>
<path fill="#3B2118" d="M18.945,12.994c-7.98,9.074-3.328,21.423-5.91,27.312c1.453-0.272,2.701-0.807,3.781-1.52
	c-0.287,1.613-0.955,2.947-2.264,3.514c1.645,0.507,3.057,0.495,4.266,0.148c-0.367,1.114-0.992,1.997-1.99,2.43
	C32.508,49.717,30.195,13.332,18.945,12.994z"/>
<path id="Path_341_" fill="#916B50" d="M48.412,25.392c-2.541,0.308-4.375,8.816-2.777,11.063c0.223,0.313,1.533,0.813,2.504-1.168
	c0.537-1.098,2.088-2.014,2.568-4.278C51.324,28.108,50.939,25.085,48.412,25.392z"/>
<path id="Path_340_" fill="#916B50" d="M15.59,25.392c2.541,0.308,4.375,8.816,2.777,11.063c-0.225,0.313-1.535,0.813-2.504-1.168
	c-0.539-1.098-2.09-2.014-2.57-4.278C12.678,28.108,13.063,25.085,15.59,25.392z"/>
<path id="Path_339_" fill="#69452D" d="M48.344,27.022c-0.664,0.209-1.387,1.22-1.779,2.896c2.318-0.498,1.738,3.362-0.275,3.436
	c0.018,0.388,0.045,0.787,0.092,1.209c0.971-1.411,1.955-0.846,2.932-2.941C50.193,29.731,49.984,26.507,48.344,27.022z"/>
<path id="Path_335_" fill="#69452D" d="M17.436,29.915c-0.393-1.675-1.113-2.685-1.775-2.893c-1.643-0.516-1.854,2.709-0.973,4.6
	c0.977,2.096,1.961,1.53,2.934,2.941c0.047-0.423,0.074-0.822,0.09-1.211C15.719,33.257,15.148,29.445,17.436,29.915z"/>
<path fill="#916B50" d="M32,9.034c-11.008,0-16.311,8.965-15.648,20.492c0.137,2.317,0.781,5.662,1.576,8.525
	C19.578,44.005,28.291,50,32,50s12.422-5.995,14.072-11.948c0.797-2.863,1.441-6.208,1.576-8.525
	C48.311,17.999,43.01,9.034,32,9.034z"/>
<path id="Path_334_" fill="#5E4431" d="M43.961,24.542c-2.518-1.333-7.336-1.398-9.131-0.47c-0.385,0.18-0.131,1.443,0.193,1.323
	c2.5-0.989,6.535-1.012,8.875,0.085C44.213,25.622,44.342,24.728,43.961,24.542z"/>
<path id="Path_333_" fill="#5E4431" d="M20.041,24.542c2.518-1.333,7.332-1.398,9.129-0.47c0.385,0.18,0.131,1.443-0.191,1.323
	c-2.506-0.989-6.535-1.012-8.879,0.085C19.789,25.622,19.66,24.728,20.041,24.542z"/>
<path id="Path_332_" fill="#69452D" d="M34.971,36.108C34.656,35.89,33.92,36.227,32,36.227c-1.916,0-2.654-0.337-2.971-0.118
	c-0.375,0.266,0.225,1.463,2.971,1.463C34.748,37.571,35.35,36.374,34.971,36.108z"/>
<path id="Path_331_" fill="#69452D" d="M32,40.646c-2.475-0.729-6.145,0.345-6.145,0.345c1.398,1.522,2.422,3.497,6.145,3.497
	c4.266,0,4.992-2.242,6.146-3.497C38.146,40.99,34.475,39.913,32,40.646z"/>
<path id="Path_330_" fill="#FFFFFF" d="M26.777,41.248c2.596,2.178,7.836,2.192,10.447,0C34.459,41.366,29.563,41.368,26.777,41.248
	z"/>
<path id="Path_311_" fill="#FFFFFF" d="M29.551,29.085c0.094,0.729-0.4,1.593-1.77,2.24c-0.871,0.412-2.68,0.896-5.057-0.106
	c-1.066-0.449-2.105-1.85-2.012-2.623C22.002,26.166,28.346,25.811,29.551,29.085z"/>
<linearGradient id="Oval_1_" gradientUnits="userSpaceOnUse" x1="-424.5796" y1="477.4658" x2="-424.5796" y2="478.2246" gradientTransform="matrix(6.5701 0 0 -6.5701 2814.7805 3168.5281)">
	<stop  offset="0" style="stop-color:#A6694A"/>
	<stop  offset="1" style="stop-color:#4F2A1E"/>
	<a:midPointStop  offset="0" style="stop-color:#A6694A"/>
	<a:midPointStop  offset="0.5" style="stop-color:#A6694A"/>
	<a:midPointStop  offset="1" style="stop-color:#4F2A1E"/>
</linearGradient>
<circle id="Oval_32_" fill="url(#Oval_1_)" cx="25.248" cy="29.036" r="2.492"/>
<path id="Path_310_" fill="#1A1626" d="M24.002,28.99c0,1.725,2.492,1.725,2.492,0C26.494,27.39,24.002,27.39,24.002,28.99z"/>
<path id="Path_301_" fill="#AB968C" d="M23.623,28.292c0,0.724,1.045,0.724,1.045,0C24.668,27.623,23.623,27.623,23.623,28.292z"/>
<path id="Path_300_" fill="#69452D" d="M29.563,29.182c-1.012-3.253-7.91-2.772-8.85-0.586
	C21.061,25.796,28.701,25.057,29.563,29.182z"/>
<path id="Path_299_" fill="#FFFFFF" d="M34.449,29.085c-0.094,0.729,0.402,1.593,1.771,2.24c0.869,0.412,2.678,0.896,5.057-0.106
	c1.066-0.449,2.104-1.85,2.01-2.623C42,26.166,35.656,25.811,34.449,29.085z"/>
<linearGradient id="Oval_2_" gradientUnits="userSpaceOnUse" x1="-425.2314" y1="477.4658" x2="-425.2314" y2="478.2246" gradientTransform="matrix(6.5701 0 0 -6.5701 2832.511 3168.5281)">
	<stop  offset="0" style="stop-color:#A6694A"/>
	<stop  offset="1" style="stop-color:#4F2A1E"/>
	<a:midPointStop  offset="0" style="stop-color:#A6694A"/>
	<a:midPointStop  offset="0.5" style="stop-color:#A6694A"/>
	<a:midPointStop  offset="1" style="stop-color:#4F2A1E"/>
</linearGradient>
<circle id="Oval_31_" fill="url(#Oval_2_)" cx="38.697" cy="29.036" r="2.492"/>
<path id="Path_298_" fill="#1A1626" d="M37.453,28.99c0,1.725,2.492,1.725,2.492,0C39.945,27.39,37.453,27.39,37.453,28.99z"/>
<path id="Path_297_" fill="#AB968C" d="M37.074,28.292c0,0.724,1.043,0.724,1.043,0C38.117,27.623,37.074,27.623,37.074,28.292z"/>
<path id="Path_296_" fill="#69452D" d="M34.439,29.182c1.01-3.251,7.904-2.786,8.848-0.586
	C42.938,25.796,35.301,25.057,34.439,29.182z"/>
<linearGradient id="SVGID_1_" gradientUnits="userSpaceOnUse" x1="31.8364" y1="31.8174" x2="31.8364" y2="6">
	<stop  offset="0" style="stop-color:#3B2118"/>
	<stop  offset="0.0953" style="stop-color:#40251C"/>
	<stop  offset="0.6555" style="stop-color:#58392F"/>
	<stop  offset="1" style="stop-color:#614036"/>
	<a:midPointStop  offset="0" style="stop-color:#3B2118"/>
	<a:midPointStop  offset="0.4" style="stop-color:#3B2118"/>
	<a:midPointStop  offset="1" style="stop-color:#614036"/>
</linearGradient>
<path fill="url(#SVGID_1_)" d="M32.002,6c-6.699,0-10.045,3.034-10.725,4.473c-8.098,1.853-10.703,15.516-4.641,21.345
	c0.754-6.211,1.479-10.201,5.607-14.404c2.408,3.227,7.41,5.042,11.889,5.042c-2.121-1.541-3.566-3.051-4.701-4.459
	c7.479,3.434,15.855,5.631,17.934,13.821C54.561,20.358,48.584,6,32.002,6z"/>
<path fill="#3B2118" d="M21.258,10.472c-0.078,4.427,2.186,9.995,12.879,11.981C26.486,22.971,18.637,18.348,21.258,10.472z"/>
<path fill="#3B2118" d="M21.752,16.612c-2.787,2.746-5.736,7.938-5.143,15.205c0.553-6.005,3.311-10.949,5.811-14.152
	C22.242,17.472,21.902,16.83,21.752,16.612z"/>
<path fill="#3B2118" d="M26.705,15.234c5.764,5.504,19.174,3.535,20.688,16.583C43.807,20.545,31.648,23.074,26.705,15.234z"/>
<path opacity="0.8" fill="#CFD8DD" d="M32.002,6.002c-17.864,0-20.114,11.898-22.594,24.623c0,0,5.542-10.113,22.594-10.113
	c17.047,0,22.59,10.113,22.59,10.113C52.019,16.898,49.866,6.002,32.002,6.002z"/>
<path fill="#CFD8DD" d="M54.731,33.662c2.13-30.115-47.591-30.115-45.463,0C11.124,8.369,52.878,8.369,54.731,33.662z"/>
<path fill="#FFFFFF" d="M54.731,32.688c2.13-30.115-47.591-30.115-45.463,0C11.124,7.395,52.878,7.395,54.731,32.688z"/>
</svg>
