<?xml version="1.0" encoding="utf-8"?>
<!-- Generator: Adobe Illustrator 15.0.0, SVG Export Plug-In . SVG Version: 6.00 Build 0)  -->
<!DOCTYPE svg PUBLIC "-//W3C//DTD SVG 1.1//EN" "http://www.w3.org/Graphics/SVG/1.1/DTD/svg11.dtd" [
	<!ENTITY ns_flows "http://ns.adobe.com/Flows/1.0/">
	<!ENTITY ns_extend "http://ns.adobe.com/Extensibility/1.0/">
	<!ENTITY ns_ai "http://ns.adobe.com/AdobeIllustrator/10.0/">
	<!ENTITY ns_graphs "http://ns.adobe.com/Graphs/1.0/">
]>
<svg version="1.1" id="Layer_1" xmlns:x="&ns_extend;" xmlns:i="&ns_ai;" xmlns:graph="&ns_graphs;"
	 xmlns="http://www.w3.org/2000/svg" xmlns:xlink="http://www.w3.org/1999/xlink" xmlns:a="http://ns.adobe.com/AdobeSVGViewerExtensions/3.0/"
	 x="0px" y="0px" width="64px" height="64px" viewBox="0 0 64 64" enable-background="new 0 0 64 64" xml:space="preserve">
<path fill="#E81C27" d="M13.899,54.252c2.202-1.074,10.994-3.791,10.994-3.791l14.195-0.03c0,0,8.873,2.741,11.062,3.819
	c3.182,1.564,3.85,3.696,3.85,5.713c0,2.717-44,2.717-44,0C10,57.944,10.71,55.811,13.899,54.252z"/>
<path fill="#302C3B" d="M41.497,50.963l0.826,2.299c0,0,7.037,2.549,8.693,3.217c1.645,0.662,0.98-1.477-0.314-2.25
	C50.22,53.936,44.36,51.684,41.497,50.963z"/>
<path fill="#FFE12C" d="M44.489,52.627c0.541,0.92-1.014,0.873-1.598-0.029C42.241,51.596,43.919,51.672,44.489,52.627z"/>
<path fill="#302C3B" d="M22.505,50.963l-0.826,2.299c0,0-7.037,2.549-8.695,3.217c-1.643,0.662-0.979-1.477,0.314-2.25
	C13.78,53.936,19.642,51.684,22.505,50.963z"/>
<path fill="#FFE12C" d="M19.513,52.627c-0.543,0.92,1.01,0.873,1.598-0.029C21.761,51.596,20.083,51.672,19.513,52.627z"/>
<path fill="#FFE12C" d="M35.425,59.623c0,1.096-1.643,1.096-1.643,0S35.425,58.527,35.425,59.623z"/>
<path fill="#302C3B" d="M23.933,48.672c0-0.73,0-2.109,0-3.029h1.02c-0.633,7.094,6.166,6.947,6.166,6.947v3.146
	C31.118,55.736,23.933,55.711,23.933,48.672z"/>
<path fill="#E6EBEF" d="M23.933,45.643h1.02c0,6.764,6.166,6.947,6.166,6.947v0.752C28.536,53.342,23.933,51.395,23.933,45.643z"/>
<path fill="#FFE12C" d="M29.282,54.463c-0.516,0.664-1.85-0.066-1.33-0.734C28.466,53.066,29.798,53.801,29.282,54.463z"/>
<path fill="#302C3B" d="M40.073,48.672c0-0.73,0-2.109,0-3.029H39.05c0.615,7.014-6.168,6.947-6.168,6.947v3.146
	C32.882,55.736,40.073,55.711,40.073,48.672z"/>
<path fill="#E6EBEF" d="M40.073,45.643H39.05c0,6.764-6.168,6.947-6.168,6.947v0.752C35.468,53.342,40.073,51.395,40.073,45.643z"/>
<path fill="#FFE12C" d="M34.722,54.463c0.514,0.664,1.846-0.066,1.33-0.734C35.536,53.066,34.206,53.801,34.722,54.463z"/>
<rect x="31.118" y="52.342" fill="#E6EBEF" width="0.885" height="9.658"/>
<rect x="31.999" y="52.342" fill="#CFD8DD" width="0.883" height="9.658"/>
<path id="Path_628_" fill="#FFC940" d="M45.505,32.93c-2.092,0.252-3.602,7.242-2.285,9.086c0.184,0.256,1.262,0.67,2.059-0.959
	c0.443-0.9,1.719-1.654,2.115-3.514C47.901,35.16,47.585,32.678,45.505,32.93z"/>
<path id="Path_627_" fill="#FFC940" d="M18.493,32.93c2.092,0.252,3.602,7.242,2.285,9.086c-0.184,0.256-1.262,0.67-2.061-0.959
	c-0.441-0.9-1.719-1.654-2.113-3.514C16.097,35.16,16.413,32.678,18.493,32.93z"/>
<path id="Path_626_" fill="#F0A429" d="M45.448,34.27c-0.547,0.172-1.143,1.002-1.465,2.381c1.906-0.41,1.43,2.76-0.227,2.82
	c0.016,0.318,0.037,0.646,0.078,0.99c0.795-1.156,1.607-0.691,2.412-2.414C46.97,36.496,46.798,33.846,45.448,34.27z"/>
<path id="Path_625_" fill="#F0A429" d="M20.015,36.646c-0.324-1.375-0.918-2.205-1.465-2.377c-1.35-0.424-1.523,2.227-0.799,3.777
	c0.805,1.723,1.617,1.258,2.414,2.414c0.039-0.344,0.063-0.672,0.074-0.992C18.601,39.393,18.13,36.26,20.015,36.646z"/>
<path id="Path_624_" fill="#FFC940" d="M31.999,19.492c-9.059,0-13.424,6.842-12.877,16.354c0.109,1.914,1.299,8.158,2.42,10.396
	c1.148,2.291,4.99,5.824,7.342,6.557c1.488,0.459,4.742,0.459,6.229,0c2.354-0.732,6.195-4.266,7.344-6.557
	c1.125-2.238,2.311-8.48,2.418-10.396C45.423,26.334,41.06,19.492,31.999,19.492z"/>
<path id="Path_621_" fill="#F0A429" d="M34.442,41.729c-0.258-0.178-0.865,0.1-2.443,0.1s-2.186-0.277-2.443-0.1
	c-0.311,0.219,0.182,1.201,2.443,1.201S34.755,41.947,34.442,41.729z"/>
<path id="Path_618_" fill="#FFFFFF" d="M29.983,36.096c0.076,0.6-0.332,1.309-1.457,1.84c-0.715,0.34-2.205,0.738-4.162-0.088
	c-0.875-0.367-1.73-1.518-1.652-2.152C23.771,33.697,28.989,33.406,29.983,36.096z"/>
<linearGradient id="Oval_1_" gradientUnits="userSpaceOnUse" x1="-424.3979" y1="476.4648" x2="-424.3979" y2="477.0879" gradientTransform="matrix(6.5701 0 0 -6.5701 2814.7805 3168.5281)">
	<stop  offset="0" style="stop-color:#A6694A"/>
	<stop  offset="1" style="stop-color:#4F2A1E"/>
	<a:midPointStop  offset="0" style="stop-color:#A6694A"/>
	<a:midPointStop  offset="0.5" style="stop-color:#A6694A"/>
	<a:midPointStop  offset="1" style="stop-color:#4F2A1E"/>
</linearGradient>
<circle id="Oval_96_" fill="url(#Oval_1_)" cx="26.442" cy="36.057" r="2.047"/>
<path id="Path_617_" fill="#1A1626" d="M25.417,36.02c0,1.416,2.051,1.416,2.051,0C27.468,34.705,25.417,34.705,25.417,36.02z"/>
<path id="Path_616_" fill="#AB968C" d="M25.106,35.443c0,0.594,0.857,0.594,0.857,0C25.964,34.896,25.106,34.896,25.106,35.443z"/>
<path id="Path_615_" fill="#F0A429" d="M29.993,36.174c-0.834-2.67-6.512-2.275-7.281-0.479
	C22.997,33.395,29.284,32.787,29.993,36.174z"/>
<path id="Path_614_" fill="#FFFFFF" d="M34.015,36.096c-0.076,0.6,0.33,1.309,1.457,1.84c0.717,0.34,2.203,0.738,4.16-0.088
	c0.879-0.367,1.732-1.518,1.656-2.152C40.228,33.697,35.007,33.406,34.015,36.096z"/>
<linearGradient id="Oval_2_" gradientUnits="userSpaceOnUse" x1="-425.4126" y1="476.4648" x2="-425.4126" y2="477.0879" gradientTransform="matrix(6.5701 0 0 -6.5701 2832.511 3168.5281)">
	<stop  offset="0" style="stop-color:#A6694A"/>
	<stop  offset="1" style="stop-color:#4F2A1E"/>
	<a:midPointStop  offset="0" style="stop-color:#A6694A"/>
	<a:midPointStop  offset="0.5" style="stop-color:#A6694A"/>
	<a:midPointStop  offset="1" style="stop-color:#4F2A1E"/>
</linearGradient>
<circle id="Oval_95_" fill="url(#Oval_2_)" cx="37.509" cy="36.057" r="2.047"/>
<path id="Path_613_" fill="#1A1626" d="M36.485,36.02c0,1.416,2.051,1.416,2.051,0C38.536,34.705,36.485,34.705,36.485,36.02z"/>
<path id="Path_612_" fill="#AB968C" d="M36.173,35.443c0,0.594,0.859,0.594,0.859,0C37.032,34.896,36.173,34.896,36.173,35.443z"/>
<path id="Path_611_" fill="#F0A429" d="M34.005,36.174c0.832-2.668,6.506-2.287,7.283-0.479
	C40.999,33.395,34.714,32.787,34.005,36.174z"/>
<path fill="#E6A400" d="M36.748,46.334c-3.286,2.27-6.355,2.092-9.5,0C30.516,45.787,33.48,45.787,36.748,46.334z"/>
<path fill="#D99025" d="M31.998,45.592c-1.386-0.443-2.59,0.449-4.75,0.742c1.165,0.244,3.082,0.107,4.75,0.186
	c1.668-0.078,3.585,0.059,4.75-0.186C34.59,46.041,33.384,45.148,31.998,45.592z"/>
<path fill="#1A1626" d="M43.471,30.817v8.671c0,5.801-4.16,10.188-11.473,10.188c-7.307,0-11.473-4.388-11.473-10.188v-8.671h-1.912
	v8.671c0,6.657,4.971,12.065,13.385,12.065c8.412,0,13.387-5.408,13.387-12.065v-8.671H43.471z"/>
<path fill="#EBC16C" d="M19.551,34.714c0.389,0,0.705,0.317,0.705,0.707s-0.316,0.707-0.705,0.707c-0.391,0-0.709-0.317-0.709-0.707
	S19.16,34.714,19.551,34.714 M19.551,34.464c-0.529,0-0.959,0.429-0.959,0.957s0.43,0.957,0.959,0.957
	c0.527,0,0.955-0.429,0.955-0.957S20.078,34.464,19.551,34.464L19.551,34.464z"/>
<path fill="#EBAB2A" d="M19.549,35.915c0.391,0,0.707,0.317,0.707,0.707s-0.316,0.707-0.707,0.707c-0.389,0-0.707-0.317-0.707-0.707
	S19.16,35.915,19.549,35.915 M19.549,35.665c-0.529,0-0.957,0.429-0.957,0.957s0.428,0.957,0.957,0.957
	c0.527,0,0.957-0.429,0.957-0.957S20.076,35.665,19.549,35.665L19.549,35.665z"/>
<path fill="#EBC16C" d="M19.551,37.116c0.389,0,0.705,0.317,0.705,0.707s-0.316,0.707-0.705,0.707c-0.391,0-0.709-0.317-0.709-0.707
	S19.16,37.116,19.551,37.116 M19.551,36.866c-0.529,0-0.959,0.429-0.959,0.957s0.43,0.957,0.959,0.957
	c0.527,0,0.955-0.429,0.955-0.957S20.078,36.866,19.551,36.866L19.551,36.866z"/>
<path fill="#EBAB2A" d="M19.549,38.316c0.391,0,0.707,0.318,0.707,0.707c0,0.391-0.316,0.707-0.707,0.707
	c-0.389,0-0.707-0.316-0.707-0.707C18.842,38.635,19.16,38.316,19.549,38.316 M19.549,38.066c-0.529,0-0.957,0.43-0.957,0.957
	c0,0.529,0.428,0.957,0.957,0.957c0.527,0,0.957-0.428,0.957-0.957C20.506,38.496,20.076,38.066,19.549,38.066L19.549,38.066z"/>
<path fill="#EBC16C" d="M19.553,39.515c0.389,0,0.705,0.317,0.705,0.707s-0.316,0.707-0.705,0.707c-0.391,0-0.709-0.317-0.709-0.707
	S19.162,39.515,19.553,39.515 M19.553,39.265c-0.529,0-0.959,0.429-0.959,0.957s0.43,0.957,0.959,0.957
	c0.527,0,0.955-0.429,0.955-0.957S20.08,39.265,19.553,39.265L19.553,39.265z"/>
<path fill="#EBAB2A" d="M19.646,40.672c0.389,0,0.705,0.317,0.705,0.707s-0.316,0.707-0.705,0.707c-0.391,0-0.707-0.317-0.707-0.707
	S19.256,40.672,19.646,40.672 M19.646,40.422c-0.529,0-0.957,0.429-0.957,0.957s0.428,0.957,0.957,0.957
	c0.527,0,0.955-0.429,0.955-0.957S20.174,40.422,19.646,40.422L19.646,40.422z"/>
<path fill="#EBC16C" d="M19.875,41.789c0.389,0,0.705,0.317,0.705,0.707s-0.316,0.707-0.705,0.707c-0.391,0-0.709-0.317-0.709-0.707
	S19.484,41.789,19.875,41.789 M19.875,41.539c-0.529,0-0.959,0.429-0.959,0.957s0.43,0.957,0.959,0.957
	c0.527,0,0.955-0.429,0.955-0.957S20.402,41.539,19.875,41.539L19.875,41.539z"/>
<path fill="#EBAB2A" d="M20.23,42.859c0.389,0,0.705,0.317,0.705,0.707s-0.316,0.707-0.705,0.707c-0.391,0-0.707-0.317-0.707-0.707
	S19.84,42.859,20.23,42.859 M20.23,42.609c-0.529,0-0.957,0.429-0.957,0.957s0.428,0.957,0.957,0.957
	c0.527,0,0.955-0.429,0.955-0.957S20.758,42.609,20.23,42.609L20.23,42.609z"/>
<path fill="#EBC16C" d="M20.707,43.878c0.391,0,0.707,0.317,0.707,0.707s-0.316,0.707-0.707,0.707c-0.389,0-0.707-0.317-0.707-0.707
	S20.318,43.878,20.707,43.878 M20.707,43.628c-0.529,0-0.957,0.429-0.957,0.957s0.428,0.957,0.957,0.957
	c0.527,0,0.957-0.429,0.957-0.957S21.234,43.628,20.707,43.628L20.707,43.628z"/>
<path fill="#EBAB2A" d="M21.299,44.838c0.391,0,0.707,0.318,0.707,0.707c0,0.391-0.316,0.707-0.707,0.707
	c-0.389,0-0.707-0.316-0.707-0.707C20.592,45.156,20.91,44.838,21.299,44.838 M21.299,44.588c-0.529,0-0.957,0.43-0.957,0.957
	c0,0.529,0.428,0.957,0.957,0.957c0.527,0,0.957-0.428,0.957-0.957C22.256,45.018,21.826,44.588,21.299,44.588L21.299,44.588z"/>
<path fill="#EBC16C" d="M21.998,45.734c0.391,0,0.707,0.318,0.707,0.707c0,0.391-0.316,0.707-0.707,0.707
	c-0.389,0-0.707-0.316-0.707-0.707C21.291,46.053,21.609,45.734,21.998,45.734 M21.998,45.484c-0.529,0-0.957,0.43-0.957,0.957
	c0,0.529,0.428,0.957,0.957,0.957c0.527,0,0.957-0.428,0.957-0.957C22.955,45.914,22.525,45.484,21.998,45.484L21.998,45.484z"/>
<path fill="#EBAB2A" d="M22.797,46.562c0.391,0,0.707,0.317,0.707,0.707s-0.316,0.707-0.707,0.707c-0.389,0-0.707-0.317-0.707-0.707
	S22.408,46.562,22.797,46.562 M22.797,46.312c-0.529,0-0.957,0.429-0.957,0.957s0.428,0.957,0.957,0.957
	c0.527,0,0.957-0.429,0.957-0.957S23.324,46.312,22.797,46.312L22.797,46.312z"/>
<path fill="#EBC16C" d="M23.691,47.313c0.389,0,0.705,0.318,0.705,0.707c0,0.391-0.316,0.707-0.705,0.707
	c-0.391,0-0.709-0.316-0.709-0.707C22.982,47.631,23.301,47.313,23.691,47.313 M23.691,47.063c-0.529,0-0.959,0.43-0.959,0.957
	c0,0.529,0.43,0.957,0.959,0.957c0.527,0,0.955-0.428,0.955-0.957C24.646,47.492,24.219,47.063,23.691,47.063L23.691,47.063z"/>
<path fill="#EBAB2A" d="M24.672,47.982c0.389,0,0.705,0.318,0.705,0.707c0,0.391-0.316,0.707-0.705,0.707
	c-0.391,0-0.707-0.316-0.707-0.707C23.965,48.301,24.281,47.982,24.672,47.982 M24.672,47.732c-0.529,0-0.957,0.43-0.957,0.957
	c0,0.529,0.428,0.957,0.957,0.957c0.527,0,0.955-0.428,0.955-0.957C25.627,48.162,25.199,47.732,24.672,47.732L24.672,47.732z"/>
<path fill="#EBC16C" d="M25.732,48.565c0.389,0,0.705,0.317,0.705,0.707s-0.316,0.707-0.705,0.707c-0.391,0-0.709-0.317-0.709-0.707
	S25.342,48.565,25.732,48.565 M25.732,48.315c-0.529,0-0.959,0.429-0.959,0.957s0.43,0.957,0.959,0.957
	c0.527,0,0.955-0.429,0.955-0.957S26.26,48.315,25.732,48.315L25.732,48.315z"/>
<path fill="#EBAB2A" d="M26.865,49.056c0.391,0,0.707,0.317,0.707,0.707s-0.316,0.707-0.707,0.707c-0.389,0-0.707-0.317-0.707-0.707
	S26.477,49.056,26.865,49.056 M26.865,48.806c-0.529,0-0.957,0.429-0.957,0.957s0.428,0.957,0.957,0.957
	c0.527,0,0.957-0.429,0.957-0.957S27.393,48.806,26.865,48.806L26.865,48.806z"/>
<path fill="#EBC16C" d="M28.066,49.447c0.391,0,0.707,0.317,0.707,0.707s-0.316,0.707-0.707,0.707c-0.389,0-0.707-0.317-0.707-0.707
	S27.678,49.447,28.066,49.447 M28.066,49.197c-0.529,0-0.957,0.429-0.957,0.957s0.428,0.957,0.957,0.957
	c0.527,0,0.957-0.429,0.957-0.957S28.594,49.197,28.066,49.197L28.066,49.197z"/>
<path fill="#EBAB2A" d="M29.328,49.733c0.389,0,0.705,0.317,0.705,0.707s-0.316,0.707-0.705,0.707c-0.391,0-0.707-0.317-0.707-0.707
	S28.938,49.733,29.328,49.733 M29.328,49.483c-0.529,0-0.957,0.429-0.957,0.957s0.428,0.957,0.957,0.957
	c0.527,0,0.955-0.429,0.955-0.957S29.855,49.483,29.328,49.483L29.328,49.483z"/>
<path fill="#EBC16C" d="M30.643,49.91c0.389,0,0.705,0.317,0.705,0.707s-0.316,0.707-0.705,0.707c-0.391,0-0.709-0.317-0.709-0.707
	S30.252,49.91,30.643,49.91 M30.643,49.66c-0.529,0-0.959,0.429-0.959,0.957s0.43,0.957,0.959,0.957
	c0.527,0,0.955-0.429,0.955-0.957S31.17,49.66,30.643,49.66L30.643,49.66z"/>
<path fill="#EBAB2A" d="M32.002,49.97c0.389,0,0.705,0.317,0.705,0.707s-0.316,0.707-0.705,0.707c-0.391,0-0.709-0.317-0.709-0.707
	S31.611,49.97,32.002,49.97 M32.002,49.72c-0.531,0-0.959,0.429-0.959,0.957s0.428,0.957,0.959,0.957
	c0.525,0,0.955-0.429,0.955-0.957S32.527,49.72,32.002,49.72L32.002,49.72z"/>
<path fill="#EBC16C" d="M33.361,49.91c0.391,0,0.707,0.316,0.707,0.707c0,0.389-0.316,0.707-0.707,0.707
	c-0.389,0-0.707-0.318-0.707-0.707C32.654,50.227,32.973,49.91,33.361,49.91 M33.361,49.66c-0.529,0-0.957,0.428-0.957,0.957
	c0,0.527,0.428,0.957,0.957,0.957c0.527,0,0.957-0.43,0.957-0.957C34.318,50.088,33.889,49.66,33.361,49.66L33.361,49.66z"/>
<path fill="#EBAB2A" d="M34.676,49.733c0.389,0,0.705,0.317,0.705,0.707s-0.316,0.707-0.705,0.707c-0.391,0-0.709-0.317-0.709-0.707
	S34.285,49.733,34.676,49.733 M34.676,49.483c-0.529,0-0.959,0.429-0.959,0.957s0.43,0.957,0.959,0.957
	c0.527,0,0.955-0.429,0.955-0.957S35.203,49.483,34.676,49.483L34.676,49.483z"/>
<path fill="#EBC16C" d="M35.936,49.447c0.391,0,0.707,0.317,0.707,0.707s-0.316,0.707-0.707,0.707c-0.389,0-0.707-0.317-0.707-0.707
	S35.547,49.447,35.936,49.447 M35.936,49.197c-0.529,0-0.957,0.429-0.957,0.957s0.428,0.957,0.957,0.957
	c0.527,0,0.957-0.429,0.957-0.957S36.463,49.197,35.936,49.197L35.936,49.197z"/>
<path fill="#EBAB2A" d="M37.139,49.056c0.389,0,0.705,0.317,0.705,0.707s-0.316,0.707-0.705,0.707c-0.391,0-0.709-0.317-0.709-0.707
	S36.748,49.056,37.139,49.056 M37.139,48.806c-0.531,0-0.959,0.429-0.959,0.957s0.428,0.957,0.959,0.957
	c0.525,0,0.955-0.429,0.955-0.957S37.664,48.806,37.139,48.806L37.139,48.806z"/>
<path fill="#EBC16C" d="M38.271,48.565c0.389,0,0.705,0.317,0.705,0.707s-0.316,0.707-0.705,0.707c-0.391,0-0.709-0.317-0.709-0.707
	S37.881,48.565,38.271,48.565 M38.271,48.315c-0.529,0-0.959,0.429-0.959,0.957s0.43,0.957,0.959,0.957
	c0.527,0,0.955-0.429,0.955-0.957S38.799,48.315,38.271,48.315L38.271,48.315z"/>
<path fill="#EBAB2A" d="M39.332,47.982c0.389,0,0.705,0.318,0.705,0.707c0,0.391-0.316,0.707-0.705,0.707
	c-0.391,0-0.709-0.316-0.709-0.707C38.623,48.301,38.941,47.982,39.332,47.982 M39.332,47.732c-0.529,0-0.959,0.43-0.959,0.957
	c0,0.529,0.43,0.957,0.959,0.957c0.527,0,0.955-0.428,0.955-0.957C40.287,48.162,39.859,47.732,39.332,47.732L39.332,47.732z"/>
<path fill="#EBC16C" d="M40.313,47.313c0.389,0,0.705,0.317,0.705,0.707s-0.316,0.707-0.705,0.707c-0.391,0-0.709-0.317-0.709-0.707
	S39.922,47.313,40.313,47.313 M40.313,47.063c-0.529,0-0.959,0.429-0.959,0.957s0.43,0.957,0.959,0.957
	c0.527,0,0.955-0.429,0.955-0.957S40.84,47.063,40.313,47.063L40.313,47.063z"/>
<path fill="#EBAB2A" d="M41.205,46.562c0.389,0,0.705,0.317,0.705,0.707s-0.316,0.707-0.705,0.707c-0.391,0-0.709-0.317-0.709-0.707
	S40.814,46.562,41.205,46.562 M41.205,46.312c-0.529,0-0.959,0.429-0.959,0.957s0.43,0.957,0.959,0.957
	c0.527,0,0.955-0.429,0.955-0.957S41.732,46.312,41.205,46.312L41.205,46.312z"/>
<path fill="#EBC16C" d="M42.004,45.734c0.391,0,0.707,0.318,0.707,0.707c0,0.391-0.316,0.707-0.707,0.707
	c-0.389,0-0.707-0.316-0.707-0.707C41.297,46.053,41.615,45.734,42.004,45.734 M42.004,45.484c-0.529,0-0.957,0.43-0.957,0.957
	c0,0.529,0.428,0.957,0.957,0.957c0.527,0,0.957-0.428,0.957-0.957C42.961,45.914,42.531,45.484,42.004,45.484L42.004,45.484z"/>
<path fill="#EBAB2A" d="M42.703,44.838c0.389,0,0.705,0.317,0.705,0.707s-0.316,0.707-0.705,0.707c-0.391,0-0.709-0.317-0.709-0.707
	S42.313,44.838,42.703,44.838 M42.703,44.588c-0.529,0-0.959,0.429-0.959,0.957s0.43,0.957,0.959,0.957
	c0.527,0,0.955-0.429,0.955-0.957S43.23,44.588,42.703,44.588L42.703,44.588z"/>
<path fill="#EBC16C" d="M43.295,43.878c0.389,0,0.705,0.317,0.705,0.707s-0.316,0.707-0.705,0.707c-0.391,0-0.709-0.317-0.709-0.707
	S42.904,43.878,43.295,43.878 M43.295,43.628c-0.529,0-0.959,0.429-0.959,0.957s0.43,0.957,0.959,0.957
	c0.527,0,0.955-0.429,0.955-0.957S43.822,43.628,43.295,43.628L43.295,43.628z"/>
<path fill="#EBAB2A" d="M43.771,42.859c0.389,0,0.705,0.317,0.705,0.707s-0.316,0.707-0.705,0.707c-0.391,0-0.709-0.317-0.709-0.707
	S43.381,42.859,43.771,42.859 M43.771,42.609c-0.529,0-0.959,0.429-0.959,0.957s0.43,0.957,0.959,0.957
	c0.527,0,0.955-0.429,0.955-0.957S44.299,42.609,43.771,42.609L43.771,42.609z"/>
<path fill="#EBC16C" d="M44.127,41.789c0.391,0,0.707,0.317,0.707,0.707s-0.316,0.707-0.707,0.707c-0.389,0-0.707-0.317-0.707-0.707
	S43.738,41.789,44.127,41.789 M44.127,41.539c-0.529,0-0.957,0.429-0.957,0.957s0.428,0.957,0.957,0.957
	c0.527,0,0.957-0.429,0.957-0.957S44.654,41.539,44.127,41.539L44.127,41.539z"/>
<path fill="#EBAB2A" d="M44.357,40.672c0.389,0,0.705,0.317,0.705,0.707s-0.316,0.707-0.705,0.707c-0.391,0-0.709-0.317-0.709-0.707
	S43.967,40.672,44.357,40.672 M44.357,40.422c-0.531,0-0.959,0.429-0.959,0.957s0.428,0.957,0.959,0.957
	c0.525,0,0.955-0.429,0.955-0.957S44.883,40.422,44.357,40.422L44.357,40.422z"/>
<path fill="#EBC16C" d="M44.449,39.514c0.391,0,0.707,0.318,0.707,0.707c0,0.391-0.316,0.707-0.707,0.707
	c-0.389,0-0.707-0.316-0.707-0.707C43.742,39.832,44.061,39.514,44.449,39.514 M44.449,39.264c-0.529,0-0.957,0.43-0.957,0.957
	c0,0.529,0.428,0.957,0.957,0.957c0.527,0,0.957-0.428,0.957-0.957C45.406,39.693,44.977,39.264,44.449,39.264L44.449,39.264z"/>
<path fill="#EBAB2A" d="M44.453,38.316c0.389,0,0.705,0.318,0.705,0.707c0,0.391-0.316,0.707-0.705,0.707
	c-0.391,0-0.709-0.316-0.709-0.707C43.744,38.635,44.063,38.316,44.453,38.316 M44.453,38.066c-0.531,0-0.959,0.43-0.959,0.957
	c0,0.529,0.428,0.957,0.959,0.957c0.525,0,0.955-0.428,0.955-0.957C45.408,38.496,44.979,38.066,44.453,38.066L44.453,38.066z"/>
<path fill="#EBC16C" d="M44.451,37.116c0.391,0,0.707,0.317,0.707,0.707s-0.316,0.707-0.707,0.707c-0.389,0-0.707-0.317-0.707-0.707
	S44.063,37.116,44.451,37.116 M44.451,36.866c-0.529,0-0.957,0.429-0.957,0.957s0.428,0.957,0.957,0.957
	c0.527,0,0.957-0.429,0.957-0.957S44.979,36.866,44.451,36.866L44.451,36.866z"/>
<path fill="#EBAB2A" d="M44.453,35.915c0.389,0,0.705,0.317,0.705,0.707s-0.316,0.707-0.705,0.707c-0.391,0-0.709-0.317-0.709-0.707
	S44.063,35.915,44.453,35.915 M44.453,35.665c-0.531,0-0.959,0.429-0.959,0.957s0.428,0.957,0.959,0.957
	c0.525,0,0.955-0.429,0.955-0.957S44.979,35.665,44.453,35.665L44.453,35.665z"/>
<path fill="#EBC16C" d="M44.451,34.714c0.391,0,0.707,0.317,0.707,0.707s-0.316,0.707-0.707,0.707c-0.389,0-0.707-0.317-0.707-0.707
	S44.063,34.714,44.451,34.714 M44.451,34.464c-0.529,0-0.957,0.429-0.957,0.957s0.428,0.957,0.957,0.957
	c0.527,0,0.957-0.429,0.957-0.957S44.979,34.464,44.451,34.464L44.451,34.464z"/>
<linearGradient id="SVGID_1_" gradientUnits="userSpaceOnUse" x1="15.001" y1="18" x2="49.001" y2="18">
	<stop  offset="0" style="stop-color:#383345"/>
	<stop  offset="1" style="stop-color:#1A1626"/>
	<a:midPointStop  offset="0" style="stop-color:#383345"/>
	<a:midPointStop  offset="0.5" style="stop-color:#383345"/>
	<a:midPointStop  offset="1" style="stop-color:#1A1626"/>
</linearGradient>
<path fill="url(#SVGID_1_)" d="M49.001,16.992c-0.022-0.221-0.343-1.047-1.17-2.563c0.694-0.021,1.124,0.224,1.11,0.071
	c-0.02-0.221-0.283-1.135-1.11-2.65c0.694-0.02,1.183,0.063,1.17-0.089c-0.023-0.239-0.281-0.823-1.272-2.521
	c0.631-0.277,1.162-0.342,1.091-0.477c-0.107-0.201-0.704-0.932-2.117-2.045c0.523-0.576,1.094-0.832,0.991-0.926
	c-0.153-0.142-1.034-0.751-2.863-1.179c0.36-0.654,0.73-1.151,0.607-1.213c-0.168-0.088-1.147-0.166-2.725-0.139
	c0.175-0.721,0.382-1.161,0.252-1.198c-0.199-0.06-1.082-0.211-2.865,0.18c0.035-0.855,0.332-1.315,0.187-1.335
	c-0.212-0.032-1.174,0.02-2.944,0.709c-0.057-0.838,0.123-1.358-0.021-1.361c-0.205-0.004-1.222,0.306-2.815,1.133
	C34.438,0.561,34.593-0.006,34.472,0c-0.185,0.009-1.007,0.198-2.471,1.339C30.537,0.198,29.715,0.009,29.53,0
	c-0.121-0.006,0.033,0.561-0.033,1.391c-1.594-0.827-2.61-1.137-2.815-1.133c-0.145,0.003,0.035,0.523-0.021,1.361
	C24.89,0.93,23.928,0.878,23.716,0.91c-0.146,0.02,0.151,0.479,0.187,1.335c-1.783-0.391-2.666-0.239-2.865-0.18
	c-0.13,0.037,0.077,0.478,0.252,1.198c-1.578-0.027-2.557,0.051-2.725,0.139c-0.123,0.062,0.247,0.559,0.607,1.213
	c-1.829,0.428-2.71,1.037-2.863,1.179c-0.103,0.094,0.468,0.35,0.991,0.926c-1.414,1.113-2.01,1.844-2.117,2.045
	c-0.071,0.135,0.46,0.199,1.091,0.477c-0.991,1.697-1.249,2.281-1.272,2.521c-0.013,0.152,0.476,0.069,1.17,0.089
	c-0.827,1.516-1.091,2.43-1.11,2.65c-0.014,0.152,0.416-0.092,1.11-0.071c-0.827,1.516-1.147,2.342-1.17,2.563
	c-0.013,0.152,0.476-0.004,1.17,0.017c-0.827,1.516-1.09,2.419-1.108,2.641c-0.016,0.151,0.414-0.082,1.108-0.063
	c-0.827,1.517-1.058,2.3-1.075,2.521c-0.015,0.152,0.381,0.039,1.075,0.059c-0.827,1.517-1.047,2.269-1.067,2.489
	c-0.013,0.152,0.373,0.07,1.067,0.09c-0.827,1.516-1.029,2.206-1.048,2.427c-0.017,0.152,0.354,0.133,1.048,0.152
	c-0.827,1.516-1.04,2.242-1.058,2.463c-0.016,0.152,0.363,0.096,1.058,0.116c-0.827,1.516-0.993,2.313-1.014,2.533
	c-0.016,0.161,0.375-0.039,1.136,0.054c-0.533,1.063-0.694,2.008-0.666,2.178c0.018,0.122,1.351-0.275,1.351-0.275
	s-0.313,1.548-0.176,1.551c0.163,0.002,1.241-0.37,2.184-1.024c0.226,0.618,0.271,1.08,0.389,1.081
	c0.271,0.003,0.699-0.543,1.64-1.811c0.358,0.718,0.776,1.15,0.91,1.093c0.196-0.082,0.434-0.537,1.577-1.933
	c0.15,0.701,0.43,1.298,0.563,1.264c0.209-0.051,0.935-0.493,2.266-1.694c0.221,0.715,0.479,1.236,0.631,1.213
	c0.216-0.032,0.787-0.396,2.246-1.333c0.128,0.739,0.095,1.232,0.234,1.217c0.234-0.022,1.454-0.435,2.561-1.572
	c1.106,1.138,2.326,1.55,2.561,1.572c0.14,0.016,0.106-0.478,0.234-1.217c1.459,0.937,2.03,1.301,2.246,1.333
	c0.151,0.023,0.41-0.498,0.631-1.213c1.331,1.201,2.057,1.644,2.266,1.694c0.133,0.034,0.412-0.563,0.563-1.264
	c1.144,1.396,1.381,1.851,1.577,1.933c0.134,0.058,0.552-0.375,0.91-1.093c0.94,1.268,1.369,1.813,1.64,1.811
	c0.118-0.001,0.163-0.463,0.389-1.081c0.942,0.654,2.021,1.026,2.184,1.024c0.138-0.003-0.176-1.551-0.176-1.551
	s1.333,0.397,1.351,0.275c0.028-0.17-0.133-1.115-0.666-2.178c0.761-0.093,1.151,0.107,1.136-0.054
	c-0.021-0.221-0.187-1.018-1.014-2.533c0.694-0.021,1.073,0.036,1.058-0.116c-0.018-0.221-0.23-0.947-1.058-2.463
	c0.694-0.02,1.064,0,1.048-0.152c-0.019-0.221-0.221-0.911-1.048-2.427c0.694-0.02,1.08,0.063,1.067-0.09
	c-0.021-0.221-0.24-0.973-1.067-2.489c0.694-0.02,1.091,0.094,1.075-0.059c-0.018-0.221-0.248-1.004-1.075-2.521
	c0.694-0.02,1.124,0.214,1.108,0.063c-0.018-0.222-0.281-1.125-1.108-2.641C48.525,16.988,49.014,17.145,49.001,16.992z"/>
</svg>
