<?xml version="1.0" encoding="utf-8"?>
<!-- Generator: Adobe Illustrator 15.0.0, SVG Export Plug-In . SVG Version: 6.00 Build 0)  -->
<!DOCTYPE svg PUBLIC "-//W3C//DTD SVG 1.1//EN" "http://www.w3.org/Graphics/SVG/1.1/DTD/svg11.dtd" [
	<!ENTITY ns_flows "http://ns.adobe.com/Flows/1.0/">
	<!ENTITY ns_extend "http://ns.adobe.com/Extensibility/1.0/">
	<!ENTITY ns_ai "http://ns.adobe.com/AdobeIllustrator/10.0/">
	<!ENTITY ns_graphs "http://ns.adobe.com/Graphs/1.0/">
]>
<svg version="1.1" id="Layer_1" xmlns:x="&ns_extend;" xmlns:i="&ns_ai;" xmlns:graph="&ns_graphs;"
	 xmlns="http://www.w3.org/2000/svg" xmlns:xlink="http://www.w3.org/1999/xlink" xmlns:a="http://ns.adobe.com/AdobeSVGViewerExtensions/3.0/"
	 x="0px" y="0px" width="64px" height="64px" viewBox="0 0 64 64" enable-background="new 0 0 64 64" xml:space="preserve">
<path fill="#449C00" d="M35.433,32.246C42.965,22.12,52.94,33.62,52.94,33.62C41.507,41.529,35.433,32.246,35.433,32.246z"/>
<path fill="#56AB15" d="M52.94,33.62L52.94,33.62c-11.515,9.006-17.508-1.374-17.508-1.374S43.646,30.097,52.94,33.62z"/>
<path fill="#449C00" d="M58.826,60.103c0.166,0.956-1.312,1.581-2.444,1.772c-4.154-5.517-14.464-18.336-37.497-18.591
	c-8.031-0.089,23.961-29.918,23.412-21.932c-1.397,20.268,12.064,30.8,18.904,34.939C61.524,57.728,59.647,58.429,58.826,60.103z"/>
<path fill="#449C00" d="M34.498,43.501c-12.646-9.046-25.583,6.158-25.583,6.158C26.966,55.248,34.498,43.501,34.498,43.501z"/>
<path fill="#56AB15" d="M8.915,49.659L8.915,49.659c18.338,6.763,25.583-6.158,25.583-6.158S22.067,43.343,8.915,49.659z"/>
<path fill="#449C00" d="M32.966,35.759C25.853,18.636,2,26.672,2,26.672C17.12,43.46,32.966,35.759,32.966,35.759z"/>
<path fill="#56AB15" d="M2,26.672L2,26.672c14.624,18.194,30.966,9.087,30.966,9.087S20.05,28.046,2,26.672z"/>
<path fill="#449C00" d="M33.422,30.642c-14.557-5.871-7.125-24.121-7.125-24.121C40.39,18.569,33.422,30.642,33.422,30.642z"/>
<path fill="#56AB15" d="M26.297,6.521L26.297,6.521c15.316,11.698,7.125,24.121,7.125,24.121S27.08,20.498,26.297,6.521z"/>
<path fill="#D47706" d="M18.405,13.405c-1.343-0.151-2.773-0.318-4.396-0.991c-0.242,0.929-1.184,2.881-1.522,5.253
	c-3.053,0.253-4.946,1.596-5.785,2.18c10.703,4.124,17.372,0.651,15.904-11.002C21.796,9.407,19.744,10.795,18.405,13.405z"/>
<path fill="#EA8800" d="M15.092,26.079c3.952,5.134,15.296-2.715,11.349-7.845c-3.957-5.133-10.452-5.701-12.432-5.82
	C17.57,17.176,11.14,20.948,15.092,26.079z"/>
<linearGradient id="SVGID_1_" gradientUnits="userSpaceOnUse" x1="-269.7632" y1="104.9766" x2="-269.7632" y2="85.1689" gradientTransform="matrix(-0.8078 0.5895 0.5895 0.8078 -256.4778 106.4643)">
	<stop  offset="0" style="stop-color:#FFE600"/>
	<stop  offset="0.3258" style="stop-color:#FFDA00"/>
	<stop  offset="0.9131" style="stop-color:#FFBA00"/>
	<stop  offset="1" style="stop-color:#FFB500"/>
	<a:midPointStop  offset="0" style="stop-color:#FFE600"/>
	<a:midPointStop  offset="0.5758" style="stop-color:#FFE600"/>
	<a:midPointStop  offset="1" style="stop-color:#FFB500"/>
</linearGradient>
<path fill="url(#SVGID_1_)" d="M23.348,22.819c4.133,3.11,4.206,6.376,3.036,7.184c-3.243,2.246-8.49,2.426-11.749-2.214
	c-3.872-5.519-6.189-5.792-7.942-7.938C8.161,18.833,14.184,15.919,23.348,22.819z"/>
<linearGradient id="SVGID_2_" gradientUnits="userSpaceOnUse" x1="406.6113" y1="104.3447" x2="406.6113" y2="85.0215" gradientTransform="matrix(0.8078 -0.5895 0.5895 0.8078 -360.8443 183.4128)">
	<stop  offset="0" style="stop-color:#FFB500"/>
	<stop  offset="0.0869" style="stop-color:#FFBA00"/>
	<stop  offset="0.6742" style="stop-color:#FFDA00"/>
	<stop  offset="1" style="stop-color:#FFE600"/>
	<a:midPointStop  offset="0" style="stop-color:#FFB500"/>
	<a:midPointStop  offset="0.4242" style="stop-color:#FFB500"/>
	<a:midPointStop  offset="1" style="stop-color:#FFE600"/>
</linearGradient>
<path fill="url(#SVGID_2_)" d="M20.031,25.116c1.867,4.677,5.12,5.742,6.292,4.933c3.243-2.243,5.027-6.926,1.357-11.283
	c-4.364-5.176-3.438-7.694-5.065-9.928C21.146,9.856,15.888,14.742,20.031,25.116z"/>
<path fill="#449C00" d="M40.7,33.981c-7.448-11.083,7.501-20.771,7.501-20.771C52.071,28.542,40.7,33.981,40.7,33.981z"/>
<path fill="#56AB15" d="M48.201,13.211L48.201,13.211C53.132,28.863,40.7,33.981,40.7,33.981S41.44,23.672,48.201,13.211z"/>
<path fill="#449C00" d="M38.247,23.954C27.292,15.915,37.898,2,37.898,2C47.008,15.184,38.247,23.954,38.247,23.954z"/>
<path fill="#56AB15" d="M37.898,2L37.898,2c10.223,13.145,0.349,21.954,0.349,21.954S35.262,14.013,37.898,2z"/>
<path fill="#449C00" d="M39.323,36.223c-1.578-13.053-19.622-11.655-19.622-11.655C26.879,38.79,39.323,36.223,39.323,36.223z"/>
<path fill="#56AB15" d="M19.701,24.567L19.701,24.567c6.56,15.108,19.622,11.655,19.622,11.655S31.903,28.656,19.701,24.567z"/>
<path fill="#56AB15" d="M13.489,33.996c0,0,13.64,3.229,38.069,21.912c2.201,1.682,4.656,3.616,6.713,6.092l1.773-1.485
	c-2.354-2.196-4.651-4.212-6.884-6.061C29.77,35.085,13.489,33.996,13.489,33.996z"/>
<path fill="#56AB15" d="M30.896,20.129c0,0,7.762,14.924,24.01,31.768c2.042,2.118,4.546,3.684,7.095,5.547l-0.714,1.907
	c-2.645-1.678-5.39-3.593-7.494-5.684C37.75,37.724,30.896,20.129,30.896,20.129z"/>
<path fill="#56AB15" d="M33.81,33.554c-0.454,0.455-0.912,0.906-1.376,1.349c5.053,6.284,12.221,12.706,20.625,18.649l0.199-0.887
	C45.309,46.212,38.901,39.225,33.81,33.554z"/>
<path fill="#7A107A" d="M8.392,33.595c-1.125,0.71-2.325,1.461-4.025,1.943c0.46,0.857,1.088,2.916,2.464,4.929
	c-2.148,2.065-2.659,4.245-2.895,5.206c10.974-3.437,13.646-10.168,4.504-18.124C8.209,28.478,7.609,30.791,8.392,33.595z"/>
<path fill="#AB11A7" d="M14.604,45.256c6.544,1.476,9.751-11.452,3.217-12.926c-6.536-1.473-11.868,2.086-13.454,3.208
	C10.354,36.972,8.065,43.784,14.604,45.256z"/>
<linearGradient id="SVGID_3_" gradientUnits="userSpaceOnUse" x1="-583.9277" y1="338.0244" x2="-583.9277" y2="317.6689" gradientTransform="matrix(-0.2303 0.9731 0.9731 0.2303 -438.3266 535.0825)">
	<stop  offset="0" style="stop-color:#AB11A7"/>
	<stop  offset="0.0906" style="stop-color:#B512B1"/>
	<stop  offset="0.2944" style="stop-color:#C613C2"/>
	<stop  offset="0.5152" style="stop-color:#D114CC"/>
	<stop  offset="0.7818" style="stop-color:#D414CF"/>
	<a:midPointStop  offset="0" style="stop-color:#AB11A7"/>
	<a:midPointStop  offset="0.2558" style="stop-color:#AB11A7"/>
	<a:midPointStop  offset="0.7818" style="stop-color:#D414CF"/>
</linearGradient>
<path fill="url(#SVGID_3_)" d="M18.635,37.712c5.279-0.172,7.584,2.264,7.254,3.594c-0.917,3.699-4.781,7.055-10.452,5.531
	c-6.741-1.817-8.692-0.6-11.501-1.156C4.35,44.007,6.915,38.097,18.635,37.712z"/>
<linearGradient id="SVGID_4_" gradientUnits="userSpaceOnUse" x1="721.2656" y1="337.9736" x2="721.2656" y2="317.8242" gradientTransform="matrix(0.2303 -0.9731 0.9731 0.2303 -468.3042 661.9848)">
	<stop  offset="0.2182" style="stop-color:#D414CF"/>
	<stop  offset="0.4848" style="stop-color:#D114CC"/>
	<stop  offset="0.7056" style="stop-color:#C613C2"/>
	<stop  offset="0.9094" style="stop-color:#B512B1"/>
	<stop  offset="1" style="stop-color:#AB11A7"/>
	<a:midPointStop  offset="0.2182" style="stop-color:#D414CF"/>
	<a:midPointStop  offset="0.7442" style="stop-color:#D414CF"/>
	<a:midPointStop  offset="1" style="stop-color:#AB11A7"/>
</linearGradient>
<path fill="url(#SVGID_4_)" d="M17.694,41.495c4.641,2.406,7.844,1.219,8.181-0.117c0.913-3.694-0.956-8.346-6.745-9.403
	c-6.877-1.253-7.912-3.736-10.686-4.434C8.027,29.217,7.402,36.154,17.694,41.495z"/>
<path fill="#B81D4B" d="M39.586,12.669c-1.146-0.594-2.36-1.224-3.559-2.37c-0.567,0.747-2.136,2.172-3.328,4.171
	c-2.823-0.804-5.021-0.242-5.994-0.01c8.031,7.294,15.301,6.443,18.353-4.444C44.114,10.244,41.762,10.788,39.586,12.669z"/>
<linearGradient id="SVGID_5_" gradientUnits="userSpaceOnUse" x1="-63.4194" y1="-30.3052" x2="-63.4194" y2="-46.1206" gradientTransform="matrix(-0.9685 0.2491 0.2491 0.9685 -14.3073 70.8684)">
	<stop  offset="0" style="stop-color:#7A0032"/>
	<stop  offset="0.1403" style="stop-color:#8B0539"/>
	<stop  offset="1" style="stop-color:#F22462"/>
	<a:midPointStop  offset="0" style="stop-color:#7A0032"/>
	<a:midPointStop  offset="0.4909" style="stop-color:#7A0032"/>
	<a:midPointStop  offset="1" style="stop-color:#F22462"/>
</linearGradient>
<path fill="url(#SVGID_5_)" d="M31.879,22.852c1.616,5.914,14.697,2.742,13.084-3.17c-1.616-5.909-7.209-8.607-8.936-9.382
	C37.431,15.748,30.265,16.943,31.879,22.852z"/>
<linearGradient id="SVGID_6_" gradientUnits="userSpaceOnUse" x1="-72.4868" y1="-25.7612" x2="-72.4868" y2="-44.4111" gradientTransform="matrix(-0.9685 0.2491 0.2491 0.9685 -26.7272 74.0618)">
	<stop  offset="0" style="stop-color:#FF70AB"/>
	<stop  offset="1" style="stop-color:#FF3672"/>
	<a:midPointStop  offset="0" style="stop-color:#FF70AB"/>
	<a:midPointStop  offset="0.4909" style="stop-color:#FF70AB"/>
	<a:midPointStop  offset="1" style="stop-color:#FF3672"/>
</linearGradient>
<path fill="url(#SVGID_6_)" d="M40.489,22.731c2.527,4.169,1.371,7.106,0.025,7.435c-3.742,0.905-8.502-0.707-9.681-5.944
	c-1.396-6.226-3.374-7.254-4.133-9.76C28.398,14.056,34.871,13.488,40.489,22.731z"/>
<linearGradient id="SVGID_7_" gradientUnits="userSpaceOnUse" x1="209.2285" y1="-26.3584" x2="209.2285" y2="-44.7383" gradientTransform="matrix(0.9685 -0.2491 0.2491 0.9685 -152.2224 106.9479)">
	<stop  offset="0" style="stop-color:#FF99C3"/>
	<stop  offset="1" style="stop-color:#FF3672"/>
	<a:midPointStop  offset="0" style="stop-color:#FF99C3"/>
	<a:midPointStop  offset="0.4909" style="stop-color:#FF99C3"/>
	<a:midPointStop  offset="1" style="stop-color:#FF3672"/>
</linearGradient>
<path fill="url(#SVGID_7_)" d="M36.66,23.66c-0.087,4.8,2.431,6.848,3.775,6.518c3.745-0.902,7.093-4.48,5.437-9.599
	c-1.959-6.091-0.195-8.026-0.811-10.568C43.368,10.427,36.835,13.014,36.66,23.66z"/>
<linearGradient id="SVGID_8_" gradientUnits="userSpaceOnUse" x1="44.749" y1="-463.1045" x2="52.2363" y2="-463.1045" gradientTransform="matrix(0.7071 -0.7071 0.7071 0.7071 345.2894 414.6523)">
	<stop  offset="0.2182" style="stop-color:#D414CF"/>
	<stop  offset="0.4848" style="stop-color:#D114CC"/>
	<stop  offset="0.7056" style="stop-color:#C613C2"/>
	<stop  offset="0.9094" style="stop-color:#B512B1"/>
	<stop  offset="1" style="stop-color:#AB11A7"/>
	<a:midPointStop  offset="0.2182" style="stop-color:#D414CF"/>
	<a:midPointStop  offset="0.7442" style="stop-color:#D414CF"/>
	<a:midPointStop  offset="1" style="stop-color:#AB11A7"/>
</linearGradient>
<path fill="url(#SVGID_8_)" d="M52.869,49.062c-1.954,0.143-2.173,3.607-4.751,4.617c-0.762,0.299,2.398,2.693,3.244,2.721
	c2.268,0.092,3.437-4.038,4.091-4.637C56.046,51.222,53.707,49.004,52.869,49.062z"/>
<path fill="#AB11A7" d="M53.759,49.858c-1.956,0.143-2.174,3.607-4.751,4.617C51.225,54.429,52.133,50.771,53.759,49.858z"/>
<path fill="#AB11A7" d="M55.084,51.011c-1.957,0.144-2.175,3.608-4.752,4.618C52.549,55.582,53.457,51.925,55.084,51.011z"/>
<path fill="#449C00" d="M37.865,36.486c8.187-5.564,12.601,5.503,12.601,5.503C39.965,44.912,37.865,36.486,37.865,36.486z"/>
<path fill="#56AB15" d="M50.466,41.989L50.466,41.989c-10.844,3.715-12.601-5.503-12.601-5.503S44.498,37.001,50.466,41.989z"/>
<path fill="#449C00" d="M31.869,38.683c-10.312,7.304,1.026,17.475,1.026,17.475C41.062,44.923,31.869,38.683,31.869,38.683z"/>
<path fill="#56AB15" d="M32.896,56.157L32.896,56.157c9.269-11.295-1.026-17.475-1.026-17.475S29.548,46.825,32.896,56.157z"/>
<path fill="#D47706" d="M24.974,30.52c-1.169,0.407-2.42,0.837-4.028,0.924c0.17,0.868,0.172,2.854,0.841,4.95
	c-2.423,1.42-3.453,3.283-3.913,4.099c10.495-0.84,14.624-6.358,8.752-15.412C26.181,25.868,25.039,27.831,24.974,30.52z"/>
<path fill="#EA8800" d="M27.303,42.313c5.32,2.674,11.559-8.317,6.245-10.992c-5.322-2.674-10.92-0.563-12.603,0.123
	C25.794,33.969,21.983,39.642,27.303,42.313z"/>
<linearGradient id="SVGID_9_" gradientUnits="userSpaceOnUse" x1="-405.4507" y1="-151.6006" x2="-405.4507" y2="-169.8047" gradientTransform="matrix(-0.4718 0.8817 0.8817 0.4718 -21.0575 473.147)">
	<stop  offset="0" style="stop-color:#FFE600"/>
	<stop  offset="0.3258" style="stop-color:#FFDA00"/>
	<stop  offset="0.9131" style="stop-color:#FFBA00"/>
	<stop  offset="1" style="stop-color:#FFB500"/>
	<a:midPointStop  offset="0" style="stop-color:#FFE600"/>
	<a:midPointStop  offset="0.5758" style="stop-color:#FFE600"/>
	<a:midPointStop  offset="1" style="stop-color:#FFB500"/>
</linearGradient>
<path fill="url(#SVGID_9_)" d="M32.825,36.341c4.661,0.93,6.023,3.602,5.381,4.734c-1.78,3.143-6.05,5.374-10.599,2.834
	c-5.404-3.026-7.433-2.331-9.74-3.408C18.676,39.074,22.491,34.274,32.825,36.341z"/>
<linearGradient id="SVGID_10_" gradientUnits="userSpaceOnUse" x1="542.1973" y1="-152.5332" x2="542.1973" y2="-170.2959" gradientTransform="matrix(0.4718 -0.8817 0.8817 0.4718 -81.6421 588.3528)">
	<stop  offset="0" style="stop-color:#FFB500"/>
	<stop  offset="0.0869" style="stop-color:#FFBA00"/>
	<stop  offset="0.6742" style="stop-color:#FFDA00"/>
	<stop  offset="1" style="stop-color:#FFE600"/>
	<a:midPointStop  offset="0" style="stop-color:#FFB500"/>
	<a:midPointStop  offset="0.4242" style="stop-color:#FFB500"/>
	<a:midPointStop  offset="1" style="stop-color:#FFE600"/>
</linearGradient>
<path fill="url(#SVGID_10_)" d="M31.001,39.556c3.413,3.127,6.526,2.714,7.174,1.58c1.785-3.142,1.386-7.722-3.39-9.866
	c-5.677-2.545-5.917-4.996-8.156-6.197C25.818,26.499,23.43,32.624,31.001,39.556z"/>
<path fill="#449C00" d="M37.859,38.063c10.574,3.662,3.466,15.104,3.466,15.104C31.598,45.632,37.859,38.063,37.859,38.063z"/>
<path fill="#56AB15" d="M41.325,53.167L41.325,53.167c-10.682-7.313-3.466-15.104-3.466-15.104S41.854,44.409,41.325,53.167z"/>
</svg>
