<?xml version="1.0" encoding="utf-8"?>
<!-- Generator: Adobe Illustrator 24.1.2, SVG Export Plug-In . SVG Version: 6.00 Build 0)  -->
<svg version="1.1" id="Layer_1" xmlns="http://www.w3.org/2000/svg" xmlns:xlink="http://www.w3.org/1999/xlink" x="0px" y="0px"
	 width="64px" height="64px" viewBox="0 0 64 64" style="enable-background:new 0 0 64 64;" xml:space="preserve">
<style type="text/css">
	.st0{fill:url(#SVGID_1_);}
	.st1{fill:url(#SVGID_2_);}
	.st2{fill:url(#SVGID_3_);}
	.st3{fill:url(#SVGID_4_);}
	.st4{fill:url(#SVGID_5_);}
	.st5{fill:url(#SVGID_6_);}
</style>
<linearGradient id="SVGID_1_" gradientUnits="userSpaceOnUse" x1="47.2171" y1="14.0108" x2="7.418" y2="17.4381">
	<stop  offset="0" style="stop-color:#007ED6"/>
	<stop  offset="0.1513" style="stop-color:#1897E1"/>
	<stop  offset="0.3655" style="stop-color:#33B3EE"/>
	<stop  offset="0.5797" style="stop-color:#47C8F8"/>
	<stop  offset="0.792" style="stop-color:#53D4FD"/>
	<stop  offset="1" style="stop-color:#57D8FF"/>
</linearGradient>
<path class="st0" d="M2.47,29C-1.69,8.57,22.58-2.76,47.32,10.63l-3.67,7.19C27.91,7.89,4.55,8.32,2.47,29z"/>
<linearGradient id="SVGID_2_" gradientUnits="userSpaceOnUse" x1="207.5547" y1="7.6508" x2="210.5242" y2="-18.1801" gradientTransform="matrix(-0.9934 -0.1142 -0.1142 0.9934 256.0584 44.102)">
	<stop  offset="0" style="stop-color:#FF8800"/>
	<stop  offset="0.2113" style="stop-color:#FFA113"/>
	<stop  offset="0.5427" style="stop-color:#FFC32B"/>
	<stop  offset="0.8176" style="stop-color:#FFD83A"/>
	<stop  offset="1" style="stop-color:#FFDF40"/>
</linearGradient>
<path class="st1" d="M50.58,2.77c-0.19-0.97-0.69-1.03-1.1-0.13l-3.73,8.24l-8.81-1.01c-1.02-0.12-1.25,0.35-0.51,1.04L42.99,17
	l-3.73,8.23c-0.41,0.91-0.02,1.24,0.86,0.73l7.75-4.43l6.55,6.07c0.74,0.69,1.19,0.46,1-0.52l-1.76-8.86l7.76-4.44
	c0.88-0.51,0.76-1.02-0.26-1.13l-8.81-1.01L50.58,2.77z"/>
<linearGradient id="SVGID_3_" gradientUnits="userSpaceOnUse" x1="48.9348" y1="26.0241" x2="48.9348" y2="4.2452">
	<stop  offset="0" style="stop-color:#FFAA00"/>
	<stop  offset="0.0326" style="stop-color:#FFAD00"/>
	<stop  offset="0.456" style="stop-color:#FFD500"/>
	<stop  offset="0.7932" style="stop-color:#FFED00"/>
	<stop  offset="1" style="stop-color:#FFF600"/>
</linearGradient>
<path class="st2" d="M49.86,4.25l1.65,8.31l8.36,0.96l-7.34,4.2l1.65,8.31l-6.17-5.73l-7.32,4.18l3.5-7.73L38,11l8.36,0.96
	L49.86,4.25"/>
<linearGradient id="SVGID_4_" gradientUnits="userSpaceOnUse" x1="21.7142" y1="43.6758" x2="61.5466" y2="38.009">
	<stop  offset="0" style="stop-color:#007ED6"/>
	<stop  offset="0.1513" style="stop-color:#1897E1"/>
	<stop  offset="0.3655" style="stop-color:#33B3EE"/>
	<stop  offset="0.5797" style="stop-color:#47C8F8"/>
	<stop  offset="0.792" style="stop-color:#53D4FD"/>
	<stop  offset="1" style="stop-color:#57D8FF"/>
</linearGradient>
<path class="st3" d="M59.65,24c1.84,15.07-8.49,30.96-34.33,17.49l-4.79,10.68C46.49,62,69.57,48.37,59.65,24z"/>
<linearGradient id="SVGID_5_" gradientUnits="userSpaceOnUse" x1="65.7243" y1="324.312" x2="82.5355" y2="294.7565" gradientTransform="matrix(0.8692 -0.4944 0.4944 0.8692 -198.4672 -187.3979)">
	<stop  offset="0" style="stop-color:#FF8800"/>
	<stop  offset="0.2113" style="stop-color:#FFA113"/>
	<stop  offset="0.5427" style="stop-color:#FFC32B"/>
	<stop  offset="0.8176" style="stop-color:#FFD83A"/>
	<stop  offset="1" style="stop-color:#FFDF40"/>
</linearGradient>
<path class="st4" d="M10.41,29.21c-0.27-1.28,0.3-1.6,1.25-0.72l8.68,8.03l10.02-5.74c1.17-0.66,1.68-0.22,1.14,1l-4.73,10.69
	l8.67,8.01c0.96,0.88,0.66,1.48-0.65,1.33l-11.55-1.37L18.5,61.12c-0.54,1.21-1.2,1.16-1.46-0.11l-2.41-11.59L3.07,48.04
	c-1.31-0.15-1.43-0.83-0.27-1.5l10.03-5.73L10.41,29.21z"/>
<linearGradient id="SVGID_6_" gradientUnits="userSpaceOnUse" x1="19.0243" y1="60.0837" x2="19.0243" y2="29.7504">
	<stop  offset="0" style="stop-color:#FFAA00"/>
	<stop  offset="0.0326" style="stop-color:#FFAD00"/>
	<stop  offset="0.456" style="stop-color:#FFD500"/>
	<stop  offset="0.7932" style="stop-color:#FFED00"/>
	<stop  offset="1" style="stop-color:#FFF600"/>
</linearGradient>
<path class="st5" d="M11.54,29.75l8.65,8l10.13-5.8l-4.76,10.77l8.68,8.02l-11.62-1.38l-4.76,10.72l-2.41-11.57L3.81,47.12
	l10.15-5.8L11.54,29.75"/>
</svg>
