<?xml version="1.0" encoding="utf-8"?>
<!-- Generator: Adobe Illustrator 15.0.0, SVG Export Plug-In . SVG Version: 6.00 Build 0)  -->
<!DOCTYPE svg PUBLIC "-//W3C//DTD SVG 1.1//EN" "http://www.w3.org/Graphics/SVG/1.1/DTD/svg11.dtd" [
	<!ENTITY ns_flows "http://ns.adobe.com/Flows/1.0/">
	<!ENTITY ns_extend "http://ns.adobe.com/Extensibility/1.0/">
	<!ENTITY ns_ai "http://ns.adobe.com/AdobeIllustrator/10.0/">
	<!ENTITY ns_graphs "http://ns.adobe.com/Graphs/1.0/">
]>
<svg version="1.1" id="Layer_1" xmlns:x="&ns_extend;" xmlns:i="&ns_ai;" xmlns:graph="&ns_graphs;"
	 xmlns="http://www.w3.org/2000/svg" xmlns:xlink="http://www.w3.org/1999/xlink" xmlns:a="http://ns.adobe.com/AdobeSVGViewerExtensions/3.0/"
	 x="0px" y="0px" width="64px" height="64px" viewBox="0 0 64 64" enable-background="new 0 0 64 64" xml:space="preserve">
<linearGradient id="SVGID_1_" gradientUnits="userSpaceOnUse" x1="-234" y1="309.2832" x2="-213.6098" y2="309.2832" gradientTransform="matrix(1 0 0 -1 234 345)">
	<stop  offset="0" style="stop-color:#BAE4FF"/>
	<stop  offset="1" style="stop-color:#98BFD6"/>
	<a:midPointStop  offset="0" style="stop-color:#BAE4FF"/>
	<a:midPointStop  offset="0.5" style="stop-color:#BAE4FF"/>
	<a:midPointStop  offset="1" style="stop-color:#98BFD6"/>
</linearGradient>
<path fill="url(#SVGID_1_)" d="M22.769,23.849c0,0,0.783,3.55-16.471,3.578c6.383,1.769,3.851,4.066-6.286,4.798
	C10.115,34.945,3.731,36.72,0,37.727c11.856,0.856,11.011,3.473,6.286,4.795c16.031-0.459,17.977,5.064,17.977,5.064
	S35.385,27.574,22.769,23.849z"/>
<path opacity="0.75" fill="#FFFFFF" d="M35.022,27.117c-0.488-1.973-9.527,1.082-23.023,3.209
	C24.234,30.668,33.593,29.574,35.022,27.117z"/>
<path opacity="0.75" fill="#FFFFFF" d="M34.209,32.998c-0.386-1.99-10.65,0.723-25.783,2.34
	C21.969,36.139,32.435,35.4,34.209,32.998z"/>
<path opacity="0.75" fill="#FFFFFF" d="M33.573,40.091c0.098-2.009-8.86-0.701-21.573-1.117
	C22.909,41.561,31.621,42.223,33.573,40.091z"/>
<radialGradient id="SVGID_2_" cx="43.1982" cy="32" r="20.1094" gradientTransform="matrix(1 0 0 1.4475 0 -14.3196)" gradientUnits="userSpaceOnUse">
	<stop  offset="0" style="stop-color:#B1D5ED"/>
	<stop  offset="1" style="stop-color:#98BFD6"/>
	<a:midPointStop  offset="0" style="stop-color:#B1D5ED"/>
	<a:midPointStop  offset="0.5" style="stop-color:#B1D5ED"/>
	<a:midPointStop  offset="1" style="stop-color:#98BFD6"/>
</radialGradient>
<path fill="url(#SVGID_2_)" d="M64,34.629c0-3.165-1.117-6.033-2.934-8.147c-1.711-1.994-0.635-1.573-0.635-5.695
	c0-4.031-2.375-7.438-5.645-8.568c-1.221-0.424-1.885-1.144-2.441-2.322C50.689,6.39,47.402,4,43.617,4
	c-3.074,0-5.816,1.578-7.627,4.048c-0.799,1.091-1.699,1.236-3.322,1.236c-5.672,0-10.271,5.147-10.271,11.502
	c0,3.212,1.178,6.112,3.076,8.196c1.732,1.906,1.52,4.317,0.393,5.531c-1.855,1.997-3.012,4.803-3.012,7.913
	c0,6.072,4.396,10.994,9.814,10.994c1.91,0,2.836-0.393,3.611,0.897C38.342,57.743,41.834,60,45.801,60
	c6.348,0,11.494-5.762,11.494-12.869c0-1.418,0.652-1.739,1.832-2.58C62.057,42.463,64,38.804,64,34.629z"/>
<path opacity="0.75" fill="#FFFFFF" d="M58.291,27.866c2.336,3.77,2.297,9.044-0.629,13.878
	C62.633,38.817,63.666,30.513,58.291,27.866z"/>
<path opacity="0.75" fill="#FFFFFF" d="M43.199,55.043c5.482,2.426,12-1.647,10.133-7.731C52.313,51.513,48.6,54.62,43.199,55.043z"
	/>
<path opacity="0.75" fill="#FFFFFF" d="M39.852,47.96c3.316-5.931-0.592-13.715-7.652-12.254
	C36.832,37.302,39.943,41.818,39.852,47.96z"/>
<path opacity="0.75" fill="#FFFFFF" d="M57.23,22.054c1.424-4.964-2.82-10.044-7.791-7.737
	C53.145,14.691,56.232,17.494,57.23,22.054z"/>
<path opacity="0.75" fill="#FFFFFF" d="M40.078,15.436c-2.504-5.674-10.326-7.096-13.135-1.145
	C30.65,11.787,35.652,11.997,40.078,15.436z"/>
<path opacity="0.75" fill="#FFFFFF" d="M45.824,28.051c0.48-7.365-6.994-13.172-13.234-8.438
	C37.881,19.011,43.045,21.986,45.824,28.051z"/>
<path opacity="0.75" fill="#FFFFFF" d="M49.439,10.451c0-4.288-5.914-7.127-9.361-3.787C43.361,6.453,47.533,7.798,49.439,10.451z"
	/>
<path opacity="0.75" fill="#FFFFFF" d="M47.18,37.02c3.012-3.679,0.258-10.003-4.857-9.405C45.107,29.594,47.512,33.489,47.18,37.02
	z"/>
</svg>
