<?xml version="1.0" encoding="utf-8"?>
<!-- Generator: Adobe Illustrator 24.1.2, SVG Export Plug-In . SVG Version: 6.00 Build 0)  -->
<svg version="1.1" id="Layer_1" xmlns="http://www.w3.org/2000/svg" xmlns:xlink="http://www.w3.org/1999/xlink" x="0px" y="0px"
	 width="64px" height="64px" viewBox="0 0 64 64" style="enable-background:new 0 0 64 64;" xml:space="preserve">
<style type="text/css">
	.st0{fill:#BDCCD6;}
	.st1{fill:#D3D9E0;}
	.st2{fill:url(#SVGID_1_);}
	.st3{fill:url(#SVGID_2_);}
	.st4{fill:url(#SVGID_3_);}
	.st5{fill:url(#SVGID_4_);}
	.st6{fill:url(#SVGID_5_);}
	.st7{fill:url(#SVGID_6_);}
	.st8{opacity:0.5;fill:#FFFFFF;}
	.st9{fill:url(#SVGID_7_);}
</style>
<path class="st0" d="M32,2C15.43,2,2,15.43,2,32c0,16.57,13.43,30,30,30s30-13.43,30-30C62,15.43,48.57,2,32,2z M32,35.5
	c-1.93,0-3.5-1.57-3.5-3.5c0-1.93,1.57-3.5,3.5-3.5c1.93,0,3.5,1.57,3.5,3.5C35.5,33.93,33.93,35.5,32,35.5z"/>
<path class="st1" d="M32,2.5C15.71,2.5,2.5,15.71,2.5,32c0,16.29,13.21,29.5,29.5,29.5c16.29,0,29.5-13.21,29.5-29.5
	C61.5,15.71,48.29,2.5,32,2.5z M32,35.93c-2.17,0-3.93-1.76-3.93-3.93c0-2.17,1.76-3.93,3.93-3.93s3.93,1.76,3.93,3.93
	C35.93,34.17,34.17,35.93,32,35.93z"/>
<linearGradient id="SVGID_1_" gradientUnits="userSpaceOnUse" x1="1930.5573" y1="-562.7687" x2="1990.5573" y2="-562.7687" gradientTransform="matrix(0.8761 0.4085 -0.4085 0.8761 -1915.5352 -275.8456)">
	<stop  offset="0.3" style="stop-color:#FFFFFF;stop-opacity:0"/>
	<stop  offset="0.5" style="stop-color:#FFFFFF"/>
	<stop  offset="0.7" style="stop-color:#FFFFFF;stop-opacity:0"/>
</linearGradient>
<path class="st2" d="M44.26,5.72C29.74-1.05,12.49,5.23,5.72,19.74c-6.77,14.52-0.49,31.77,14.03,38.54
	c14.52,6.77,31.77,0.49,38.54-14.03C65.05,29.74,58.77,12.49,44.26,5.72z M30.37,35.51c-1.94-0.9-2.77-3.2-1.87-5.14
	c0.9-1.93,3.2-2.77,5.14-1.87c1.93,0.9,2.77,3.21,1.87,5.14C34.6,35.57,32.3,36.41,30.37,35.51z"/>
<linearGradient id="SVGID_2_" gradientUnits="userSpaceOnUse" x1="626.2513" y1="-165.6312" x2="686.2549" y2="-165.6312" gradientTransform="matrix(-0.8371 0.4833 -0.4833 -0.8371 501.3015 -423.8176)">
	<stop  offset="0.4" style="stop-color:#D44FEF;stop-opacity:0"/>
	<stop  offset="0.5" style="stop-color:#D44FEF;stop-opacity:0.3"/>
	<stop  offset="0.6" style="stop-color:#D44FEF;stop-opacity:0"/>
</linearGradient>
<path class="st3" d="M46.5,57.12c13.87-8.01,18.62-25.74,10.62-39.61C49.11,3.63,31.37-1.12,17.5,6.89
	C3.63,14.89-1.12,32.63,6.89,46.5C14.89,60.37,32.63,65.12,46.5,57.12z M30.07,28.65c1.85-1.07,4.21-0.43,5.28,1.42
	c1.07,1.85,0.43,4.21-1.42,5.28c-1.85,1.07-4.22,0.43-5.28-1.42C27.58,32.08,28.22,29.72,30.07,28.65z"/>
<linearGradient id="SVGID_3_" gradientUnits="userSpaceOnUse" x1="1124.8224" y1="-749.437" x2="1184.8258" y2="-749.437" gradientTransform="matrix(0 0.9666 -0.9666 0 -692.4053 -1084.2535)">
	<stop  offset="0.4" style="stop-color:#EF7630;stop-opacity:0"/>
	<stop  offset="0.5" style="stop-color:#EF7630;stop-opacity:0.3"/>
	<stop  offset="0.6" style="stop-color:#EF7630;stop-opacity:0"/>
</linearGradient>
<path class="st4" d="M61,32C61,15.98,48.02,3,32,3C15.99,3,3,15.98,3,32c0,16.02,12.98,29,29,29C48.02,61,61,48.02,61,32z M28.13,32
	c0-2.14,1.73-3.87,3.87-3.87c2.13,0,3.87,1.73,3.87,3.87c0,2.14-1.73,3.87-3.87,3.87C29.87,35.87,28.13,34.14,28.13,32z"/>
<linearGradient id="SVGID_4_" gradientUnits="userSpaceOnUse" x1="688.3976" y1="-356.9875" x2="748.4001" y2="-356.9875" gradientTransform="matrix(-0.6835 0.6835 -0.6835 -0.6835 279.0259 -703.0273)">
	<stop  offset="0.4" style="stop-color:#4F94EF;stop-opacity:0"/>
	<stop  offset="0.5" style="stop-color:#4F94EF;stop-opacity:0.3"/>
	<stop  offset="0.6" style="stop-color:#4F94EF;stop-opacity:0"/>
</linearGradient>
<path class="st5" d="M52.51,52.51c11.33-11.33,11.33-29.69,0-41.01c-11.33-11.32-29.69-11.32-41.01,0
	c-11.32,11.33-11.32,29.69,0,41.01C22.82,63.83,41.18,63.83,52.51,52.51z M29.27,29.27c1.51-1.51,3.96-1.51,5.47,0
	c1.51,1.51,1.51,3.96,0,5.47c-1.51,1.51-3.96,1.51-5.47,0C27.76,33.22,27.76,30.78,29.27,29.27z"/>
<linearGradient id="SVGID_5_" gradientUnits="userSpaceOnUse" x1="796.004" y1="-523.7842" x2="856.0074" y2="-523.7842" gradientTransform="matrix(-0.4833 0.8371 -0.8371 -0.4833 -7.2501 -912.5949)">
	<stop  offset="0.4" style="stop-color:#1FFF40;stop-opacity:0"/>
	<stop  offset="0.5" style="stop-color:#1FFF40;stop-opacity:0.3"/>
	<stop  offset="0.6" style="stop-color:#1FFF40;stop-opacity:0"/>
</linearGradient>
<path class="st6" d="M57.11,46.5c8.01-13.87,3.26-31.61-10.61-39.62C32.63-1.12,14.9,3.63,6.89,17.5
	C-1.12,31.37,3.63,49.11,17.5,57.11C31.37,65.12,49.11,60.37,57.11,46.5z M28.65,30.07c1.07-1.85,3.43-2.48,5.28-1.42
	c1.85,1.07,2.48,3.43,1.42,5.28c-1.07,1.85-3.44,2.48-5.28,1.41C28.22,34.28,27.58,31.92,28.65,30.07z"/>
<linearGradient id="SVGID_6_" gradientUnits="userSpaceOnUse" x1="945.2864" y1="-658.7221" x2="1005.2874" y2="-658.7221" gradientTransform="matrix(-0.2502 0.9337 -0.9337 -0.2502 -339.0313 -1043.4384)">
	<stop  offset="0.4" style="stop-color:#FFFA7D;stop-opacity:0"/>
	<stop  offset="0.5" style="stop-color:#FFFA7D;stop-opacity:0.5"/>
	<stop  offset="0.6" style="stop-color:#FFFA7D;stop-opacity:0"/>
</linearGradient>
<path class="st7" d="M60.01,39.51c4.15-15.47-5.03-31.37-20.5-35.52C24.04-0.16,8.14,9.02,3.99,24.49
	C-0.16,39.96,9.03,55.87,24.5,60.01C39.96,64.16,55.87,54.98,60.01,39.51z M28.27,31c0.55-2.06,2.67-3.29,4.74-2.74
	c2.06,0.55,3.29,2.67,2.73,4.74c-0.55,2.06-2.68,3.29-4.74,2.73C28.94,35.18,27.71,33.06,28.27,31z"/>
<path class="st8" d="M32,25c-3.87,0-7,3.13-7,7s3.13,7,7,7c3.87,0,7-3.13,7-7S35.87,25,32,25z M32,36.75
	c-2.62,0-4.75-2.13-4.75-4.75c0-2.62,2.13-4.75,4.75-4.75c2.62,0,4.75,2.13,4.75,4.75C36.75,34.62,34.62,36.75,32,36.75z"/>
<linearGradient id="SVGID_7_" gradientUnits="userSpaceOnUse" x1="21.5" y1="32" x2="42.5" y2="32">
	<stop  offset="0" style="stop-color:#B2BFC4;stop-opacity:0.6"/>
	<stop  offset="1" style="stop-color:#586875;stop-opacity:0.6"/>
</linearGradient>
<path class="st9" d="M32,21.5c-5.8,0-10.5,4.7-10.5,10.5c0,5.8,4.7,10.5,10.5,10.5c5.8,0,10.5-4.7,10.5-10.5
	C42.5,26.2,37.8,21.5,32,21.5z M32,40c-4.42,0-8-3.58-8-8c0-4.42,3.58-8,8-8s8,3.58,8,8C40,36.42,36.42,40,32,40z"/>
</svg>
