<?xml version="1.0" encoding="utf-8"?>
<!-- Generator: Adobe Illustrator 24.1.2, SVG Export Plug-In . SVG Version: 6.00 Build 0)  -->
<svg version="1.1" id="Layer_1" xmlns="http://www.w3.org/2000/svg" xmlns:xlink="http://www.w3.org/1999/xlink" x="0px" y="0px"
	 width="64px" height="64px" viewBox="0 0 64 64" style="enable-background:new 0 0 64 64;" xml:space="preserve">
<style type="text/css">
	.st0{fill:url(#SVGID_1_);}
	.st1{fill:url(#SVGID_2_);}
	.st2{fill:url(#SVGID_3_);}
	.st3{fill:url(#SVGID_4_);}
	.st4{fill:url(#SVGID_5_);}
	.st5{fill:url(#SVGID_6_);}
	.st6{fill:url(#SVGID_7_);}
	.st7{fill:#99A8AE;}
	.st8{fill:#CFD8DD;}
	.st9{fill:#004C78;}
	.st10{fill:url(#SVGID_8_);}
	.st11{fill:url(#SVGID_9_);}
	.st12{fill:url(#SVGID_10_);}
	.st13{fill:url(#SVGID_11_);}
	.st14{fill:url(#SVGID_12_);}
	.st15{fill:url(#SVGID_13_);}
</style>
<linearGradient id="SVGID_1_" gradientUnits="userSpaceOnUse" x1="44.15" y1="56.2504" x2="44.15" y2="46.3816">
	<stop  offset="0.4973" style="stop-color:#CFD8DD"/>
	<stop  offset="0.6431" style="stop-color:#CBD5DA"/>
	<stop  offset="0.7731" style="stop-color:#C1CBD0"/>
	<stop  offset="0.8967" style="stop-color:#AEBBC1"/>
	<stop  offset="1" style="stop-color:#99A8AE"/>
</linearGradient>
<polygon class="st0" points="44.26,58.54 47.59,57.16 44.81,52.78 44.81,45.51 41.44,46.34 40.71,53.76 "/>
<linearGradient id="SVGID_2_" gradientUnits="userSpaceOnUse" x1="38.1061" y1="55.0795" x2="40.0158" y2="46.4883">
	<stop  offset="0" style="stop-color:#99A8AE"/>
	<stop  offset="0.3004" style="stop-color:#95A3A9"/>
	<stop  offset="0.6399" style="stop-color:#89969C"/>
	<stop  offset="0.9972" style="stop-color:#758085"/>
	<stop  offset="1" style="stop-color:#758085"/>
</linearGradient>
<polygon class="st1" points="31.72,52.65 44.26,58.54 41.7,53.85 41.44,46.34 34.42,44.45 34.48,51.33 "/>
<linearGradient id="SVGID_3_" gradientUnits="userSpaceOnUse" x1="30.3074" y1="61.7108" x2="30.3074" y2="51.842">
	<stop  offset="0.4973" style="stop-color:#CFD8DD"/>
	<stop  offset="0.6431" style="stop-color:#CBD5DA"/>
	<stop  offset="0.7731" style="stop-color:#C1CBD0"/>
	<stop  offset="0.8967" style="stop-color:#AEBBC1"/>
	<stop  offset="1" style="stop-color:#99A8AE"/>
</linearGradient>
<polygon class="st2" points="30.42,64 33.75,62.62 30.97,58.24 30.97,50.97 27.59,51.8 26.87,59.22 "/>
<linearGradient id="SVGID_4_" gradientUnits="userSpaceOnUse" x1="24.2971" y1="60.3889" x2="26.3515" y2="51.1469">
	<stop  offset="0" style="stop-color:#99A8AE"/>
	<stop  offset="0.3004" style="stop-color:#95A3A9"/>
	<stop  offset="0.6399" style="stop-color:#89969C"/>
	<stop  offset="0.9972" style="stop-color:#758085"/>
	<stop  offset="1" style="stop-color:#758085"/>
</linearGradient>
<polygon class="st3" points="17.88,58.11 30.42,64 27.86,59.31 27.59,51.8 20.58,49 20.64,56.79 "/>
<linearGradient id="SVGID_5_" gradientUnits="userSpaceOnUse" x1="39.3948" y1="37.9549" x2="39.3948" y2="30.1744">
	<stop  offset="0.4973" style="stop-color:#CFD8DD"/>
	<stop  offset="0.6431" style="stop-color:#CBD5DA"/>
	<stop  offset="0.7731" style="stop-color:#C1CBD0"/>
	<stop  offset="0.8967" style="stop-color:#AEBBC1"/>
	<stop  offset="1" style="stop-color:#99A8AE"/>
</linearGradient>
<path class="st4" d="M41.35,37.95c-0.15-0.52-0.18-7.74-0.18-7.74s-3.81-0.26-3.73,0.62c0.18,2.1,0.44,5.56,1.05,7.12H41.35z"/>
<linearGradient id="SVGID_6_" gradientUnits="userSpaceOnUse" x1="37.6746" y1="37.9549" x2="37.6746" y2="28.7104">
	<stop  offset="0" style="stop-color:#99A8AE"/>
	<stop  offset="0.4406" style="stop-color:#97A6AC"/>
	<stop  offset="0.6718" style="stop-color:#909EA4"/>
	<stop  offset="0.8539" style="stop-color:#849196"/>
	<stop  offset="1" style="stop-color:#758085"/>
</linearGradient>
<path class="st5" d="M35.54,37.95h4.66c-0.17-0.53-0.25-7.74-0.25-7.74l-4.8-1.5c0,0,0.23,7.27,0.37,9.15
	C35.53,37.89,35.54,37.92,35.54,37.95z"/>
<linearGradient id="SVGID_7_" gradientUnits="userSpaceOnUse" x1="43.9713" y1="33.0496" x2="43.9713" y2="25.3034">
	<stop  offset="0" style="stop-color:#99A8AE"/>
	<stop  offset="0.1604" style="stop-color:#AEBBC1"/>
	<stop  offset="0.3524" style="stop-color:#C1CBD0"/>
	<stop  offset="0.5543" style="stop-color:#CBD5DA"/>
	<stop  offset="0.7807" style="stop-color:#CFD8DD"/>
</linearGradient>
<path class="st6" d="M52.25,32.32l-0.34-2.16c-0.2-0.97-0.99-1.74-2.02-1.96L35.95,25.3l-0.26,1.71l13.25,6.04L52.25,32.32z"/>
<path class="st7" d="M29.96,25.59l-0.05,3.14c0,0.24,0.17,0.45,0.42,0.5l18.62,3.82l-0.31-2.01c-0.2-0.98-1-1.76-2.04-1.98
	L29.96,25.59z"/>
<path class="st8" d="M46.45,31.73c-0.88,0.11-1.14-1.69-0.26-1.8C47.08,29.82,47.34,31.62,46.45,31.73z"/>
<path class="st9" d="M36.13,9.62c0.44-4.67-2.38-9.37-11.92-9.37c-7.96,0-13.09,6.63-13.09,13.07c0,14.89-0.82,28.04,2.22,28.04
	C23.53,41.36,34.62,25.73,36.13,9.62z"/>
<linearGradient id="SVGID_8_" gradientUnits="userSpaceOnUse" x1="25.9769" y1="40.4593" x2="25.9769" y2="1.0559">
	<stop  offset="0" style="stop-color:#005687"/>
	<stop  offset="0.6231" style="stop-color:#1475AE"/>
	<stop  offset="1" style="stop-color:#2289C7"/>
</linearGradient>
<path class="st10" d="M36.85,11.35c0.44-4.67-2.5-10.3-10.41-10.3c-7.96,0-12.43,6.74-12.43,12.59c0,14.89,2.97,17.23,1.77,26.8
	c0,0,15.71,0.49,21.64-4.05C39.3,28.19,35.34,27.46,36.85,11.35z"/>
<linearGradient id="SVGID_9_" gradientUnits="userSpaceOnUse" x1="38.9857" y1="53.9993" x2="34.1944" y2="36.0645">
	<stop  offset="0.3971" style="stop-color:#005687"/>
	<stop  offset="0.4419" style="stop-color:#065F92"/>
	<stop  offset="0.5594" style="stop-color:#1271A9"/>
	<stop  offset="0.6851" style="stop-color:#1B7FBA"/>
	<stop  offset="0.8237" style="stop-color:#2087C4"/>
	<stop  offset="1" style="stop-color:#2289C7"/>
</linearGradient>
<path class="st11" d="M37.43,36.39l-21.64,4.05c-1.16,0,0.54,5.84,1.57,6.85c2.68,2.64,16.49,7.36,16.49,7.36s14.47-3.78,20.6-5.61
	c1.14-0.34,1.56-5.42,1.56-7.76C56,39.76,49.34,39.66,37.43,36.39z"/>
<path class="st9" d="M15.54,40.57c-0.95-0.64-0.63,5.6,0.4,6.61c2.68,2.64,14.45,7.1,17.9,7.47c0.09-1.83,0.29-5.95-0.16-7.37
	C33.32,46.12,26.49,46.45,15.54,40.57z"/>
<linearGradient id="SVGID_10_" gradientUnits="userSpaceOnUse" x1="25.5337" y1="9.6949" x2="25.5337" y2="-9.094947e-13">
	<stop  offset="0" style="stop-color:#FFFFFF"/>
	<stop  offset="0.2718" style="stop-color:#F8FAFB"/>
	<stop  offset="0.6524" style="stop-color:#E6EBEF"/>
</linearGradient>
<path class="st12" d="M32.03,8.89c0,0,1.76-5.1-0.27-7.25c-1.4-1.49-10.2-2.78-13.42-0.03c4.84,0.43,2.22,8.09,2.22,8.09L32.03,8.89
	z"/>
<linearGradient id="SVGID_11_" gradientUnits="userSpaceOnUse" x1="18.3281" y1="49.0049" x2="18.3281" y2="34.5137">
	<stop  offset="0.4973" style="stop-color:#CFD8DD"/>
	<stop  offset="0.6431" style="stop-color:#CBD5DA"/>
	<stop  offset="0.7731" style="stop-color:#C1CBD0"/>
	<stop  offset="0.8967" style="stop-color:#AEBBC1"/>
	<stop  offset="1" style="stop-color:#99A8AE"/>
</linearGradient>
<path class="st13" d="M15.63,38.91c-0.04-1.09-0.09-4.36-0.09-4.36s-3.81-0.26-3.73,0.62C12.66,45.32,19.59,48.91,23.39,49
	c1.37,0.04,1.82-2.1,1.19-2.36C19.71,44.66,15.8,43.67,15.63,38.91z"/>
<linearGradient id="SVGID_12_" gradientUnits="userSpaceOnUse" x1="16.905" y1="49.0347" x2="16.905" y2="33.0496">
	<stop  offset="0" style="stop-color:#99A8AE"/>
	<stop  offset="0.4406" style="stop-color:#97A6AC"/>
	<stop  offset="0.6718" style="stop-color:#909EA4"/>
	<stop  offset="0.8539" style="stop-color:#849196"/>
	<stop  offset="1" style="stop-color:#758085"/>
</linearGradient>
<path class="st14" d="M14.4,38.91c-0.11-1.09-0.09-4.36-0.09-4.36l-4.8-1.5c0,0,0.42,5.63,0.56,7.5c0.27,3.63,3.01,6.6,6.74,7.63
	c1.52,0.42,2.46,0.76,6.25,0.85c1.37,0.04,1.51-1.92,0.85-2.13C16.99,44.71,14.78,42.81,14.4,38.91z"/>
<linearGradient id="SVGID_13_" gradientUnits="userSpaceOnUse" x1="17.4581" y1="37.2227" x2="17.4581" y2="29.3354">
	<stop  offset="0" style="stop-color:#99A8AE"/>
	<stop  offset="0.1604" style="stop-color:#AEBBC1"/>
	<stop  offset="0.3524" style="stop-color:#C1CBD0"/>
	<stop  offset="0.5543" style="stop-color:#CBD5DA"/>
	<stop  offset="0.7807" style="stop-color:#CFD8DD"/>
</linearGradient>
<path class="st15" d="M26.92,36.6l-0.26-2.17c-0.17-0.98-0.93-1.77-1.94-2.03l-11.37-2.87c-0.9-0.23-1.84-0.26-2.76-0.09L8,29.88
	l15.59,7.34L26.92,36.6z"/>
<path class="st7" d="M8,29.88l0,3.14c-0.01,0.24,0.15,0.45,0.4,0.51l15.19,3.69l-0.23-2.02c-0.16-0.99-0.93-1.79-1.96-2.04L8,29.88z
	"/>
</svg>
