<?xml version="1.0" encoding="utf-8"?>
<!-- Generator: Adobe Illustrator 24.1.2, SVG Export Plug-In . SVG Version: 6.00 Build 0)  -->
<svg version="1.1" id="Layer_1" xmlns="http://www.w3.org/2000/svg" xmlns:xlink="http://www.w3.org/1999/xlink" x="0px" y="0px"
	 width="64px" height="64px" viewBox="0 0 64 64" style="enable-background:new 0 0 64 64;" xml:space="preserve">
<style type="text/css">
	.st0{fill:url(#SVGID_1_);}
	.st1{fill:url(#SVGID_2_);}
	.st2{fill:#1A1626;}
	.st3{fill:url(#SVGID_3_);}
	.st4{fill:url(#SVGID_4_);}
	.st5{fill:#E81C27;}
	.st6{fill:#E6EBEF;}
	.st7{fill:url(#SVGID_5_);}
	.st8{fill:#A6E639;}
	.st9{fill:#014F27;}
</style>
<linearGradient id="SVGID_1_" gradientUnits="userSpaceOnUse" x1="32" y1="52" x2="32" y2="12">
	<stop  offset="0" style="stop-color:#5B666E"/>
	<stop  offset="7.841244e-03" style="stop-color:#58626A"/>
	<stop  offset="0.0596" style="stop-color:#464A55"/>
	<stop  offset="0.1147" style="stop-color:#3A3947"/>
	<stop  offset="0.175" style="stop-color:#322F3E"/>
	<stop  offset="0.25" style="stop-color:#302C3B"/>
	<stop  offset="0.75" style="stop-color:#302C3B"/>
	<stop  offset="0.825" style="stop-color:#322F3E"/>
	<stop  offset="0.8853" style="stop-color:#3A3947"/>
	<stop  offset="0.9404" style="stop-color:#464A55"/>
	<stop  offset="0.9922" style="stop-color:#58626A"/>
	<stop  offset="1" style="stop-color:#5B666E"/>
</linearGradient>
<path class="st0" d="M60.9,17.16c-0.76-1.88-2.2-3.17-3.87-3.79c-4.88-1.83-45.18-1.83-50.05,0c-1.67,0.63-3.11,1.91-3.87,3.79
	c-1.47,3.62-1.47,26.06,0,29.68c0.76,1.88,2.2,3.17,3.87,3.79c4.88,1.83,45.18,1.83,50.05,0c1.67-0.63,3.11-1.91,3.87-3.79
	C62.37,43.22,62.37,20.78,60.9,17.16z"/>
<linearGradient id="SVGID_2_" gradientUnits="userSpaceOnUse" x1="32.0039" y1="33.4561" x2="32.0039" y2="21.4561">
	<stop  offset="0" style="stop-color:#9BE022"/>
	<stop  offset="0.4073" style="stop-color:#99DE22"/>
	<stop  offset="0.6075" style="stop-color:#93D622"/>
	<stop  offset="0.7625" style="stop-color:#89C922"/>
	<stop  offset="0.8936" style="stop-color:#7AB723"/>
	<stop  offset="1" style="stop-color:#69A123"/>
</linearGradient>
<path class="st1" d="M57,31.46c0,1.1-0.9,2-2,2H9c-1.1,0-2-0.9-2-2v-8c0-1.1,0.9-2,2-2h46c1.1,0,2,0.9,2,2V31.46z"/>
<path class="st2" d="M18.12,46.5h-2.44c-1.29,0-3.01-0.71-3.93-1.62l-5.4-5.36c-0.74-0.73-0.66-1.31-0.54-1.59
	c0.11-0.28,0.46-0.74,1.5-0.74h8.71c1.39,0,2.75,1.06,3.08,2.41l1.07,4.25c0.17,0.68,0.05,1.36-0.34,1.86
	C19.45,46.21,18.82,46.5,18.12,46.5z"/>
<path class="st2" d="M35.2,46.5h-8.71c-1.39,0-2.75-1.06-3.09-2.41l-1.07-4.25c-0.17-0.68-0.05-1.36,0.34-1.86
	c0.39-0.5,1.02-0.79,1.72-0.79h8.71c1.37,0,2.75,1.08,3.09,2.41l1.07,4.25c0.17,0.68,0.04,1.36-0.35,1.86
	C36.52,46.21,35.9,46.5,35.2,46.5z"/>
<path class="st2" d="M47.24,46.5H44.8c-1.37,0-2.75-1.08-3.09-2.41l-1.07-4.25c-0.17-0.68-0.04-1.36,0.35-1.86
	c0.39-0.5,1.02-0.79,1.72-0.79H56.4c0.86,0,1.55,0.43,1.79,1.12c0.22,0.62,0.01,1.29-0.53,1.72l-6.37,5.06
	C50.29,45.88,48.51,46.5,47.24,46.5z"/>
<linearGradient id="SVGID_3_" gradientUnits="userSpaceOnUse" x1="12.9949" y1="46" x2="12.9949" y2="37.6913">
	<stop  offset="0" style="stop-color:#616D75"/>
	<stop  offset="7.359385e-04" style="stop-color:#616D75"/>
	<stop  offset="0.0541" style="stop-color:#515562"/>
	<stop  offset="0.1106" style="stop-color:#454455"/>
	<stop  offset="0.1727" style="stop-color:#3E3A4D"/>
	<stop  offset="0.25" style="stop-color:#3C374A"/>
	<stop  offset="0.75" style="stop-color:#3C374A"/>
	<stop  offset="0.8273" style="stop-color:#3E3A4D"/>
	<stop  offset="0.8894" style="stop-color:#454455"/>
	<stop  offset="0.9459" style="stop-color:#515562"/>
	<stop  offset="0.9993" style="stop-color:#616D75"/>
	<stop  offset="1" style="stop-color:#616D75"/>
</linearGradient>
<path class="st3" d="M19.7,43.97c0.28,1.12-0.43,2.03-1.58,2.03h-2.44c-1.15,0-2.76-0.66-3.58-1.47L6.7,39.17
	c-0.82-0.81-0.54-1.47,0.61-1.47h8.71c1.15,0,2.32,0.91,2.6,2.03L19.7,43.97z"/>
<linearGradient id="SVGID_4_" gradientUnits="userSpaceOnUse" x1="29.7912" y1="46" x2="29.7912" y2="37.6913">
	<stop  offset="0" style="stop-color:#616D75"/>
	<stop  offset="7.359385e-04" style="stop-color:#616D75"/>
	<stop  offset="0.0541" style="stop-color:#515562"/>
	<stop  offset="0.1106" style="stop-color:#454455"/>
	<stop  offset="0.1727" style="stop-color:#3E3A4D"/>
	<stop  offset="0.25" style="stop-color:#3C374A"/>
	<stop  offset="0.75" style="stop-color:#3C374A"/>
	<stop  offset="0.8273" style="stop-color:#3E3A4D"/>
	<stop  offset="0.8894" style="stop-color:#454455"/>
	<stop  offset="0.9459" style="stop-color:#515562"/>
	<stop  offset="0.9993" style="stop-color:#616D75"/>
	<stop  offset="1" style="stop-color:#616D75"/>
</linearGradient>
<path class="st4" d="M36.77,43.97C37.05,45.09,36.34,46,35.2,46h-8.71c-1.15,0-2.32-0.91-2.6-2.03l-1.07-4.25
	c-0.28-1.11,0.43-2.03,1.58-2.03h8.71c1.15,0,2.32,0.91,2.6,2.03L36.77,43.97z"/>
<path class="st5" d="M16.37,41.85c0,2.09-3.14,2.09-3.14,0C13.24,39.75,16.37,39.75,16.37,41.85z"/>
<polygon class="st6" points="32.98,41.85 27.48,40.47 27.48,43.22 "/>
<linearGradient id="SVGID_5_" gradientUnits="userSpaceOnUse" x1="49.4197" y1="46" x2="49.4197" y2="37.6913">
	<stop  offset="0" style="stop-color:#616D75"/>
	<stop  offset="7.359385e-04" style="stop-color:#616D75"/>
	<stop  offset="0.0541" style="stop-color:#515562"/>
	<stop  offset="0.1106" style="stop-color:#454455"/>
	<stop  offset="0.1727" style="stop-color:#3E3A4D"/>
	<stop  offset="0.25" style="stop-color:#3C374A"/>
	<stop  offset="0.75" style="stop-color:#3C374A"/>
	<stop  offset="0.8273" style="stop-color:#3E3A4D"/>
	<stop  offset="0.8894" style="stop-color:#454455"/>
	<stop  offset="0.9459" style="stop-color:#515562"/>
	<stop  offset="0.9993" style="stop-color:#616D75"/>
	<stop  offset="1" style="stop-color:#616D75"/>
</linearGradient>
<path class="st7" d="M50.97,44.7c-0.9,0.72-2.58,1.3-3.73,1.3H44.8c-1.15,0-2.32-0.91-2.6-2.03l-1.07-4.25
	c-0.28-1.11,0.43-2.03,1.58-2.03c0,0,9.14,0,13.68,0c1.37,0,1.77,1.29,0.95,1.95C55.11,41.41,50.97,44.7,50.97,44.7z"/>
<path class="st8" d="M50.14,42.65h-5.08c-1.1,0-1.1-1.61,0-1.61h5.08C51.25,41.04,51.25,42.65,50.14,42.65z"/>
<path class="st9" d="M13.99,26.73c-0.32-0.19-0.7-0.28-1.13-0.28c-0.33,0-0.62,0.05-0.87,0.16c-0.08,0.03-0.15,0.08-0.23,0.12v-1.54
	h2.92v-1.15h-4.38v4.04h0.85c0.18-0.15,0.38-0.27,0.61-0.35c0.23-0.08,0.45-0.12,0.67-0.12c0.24,0,0.45,0.04,0.63,0.13
	c0.18,0.09,0.31,0.21,0.4,0.37c0.09,0.16,0.14,0.36,0.14,0.59c0,0.34-0.1,0.61-0.3,0.79c-0.2,0.18-0.5,0.27-0.9,0.27
	c-0.31,0-0.63-0.06-0.94-0.17c-0.31-0.11-0.62-0.28-0.92-0.49l-0.48,1.07c0.26,0.24,0.61,0.42,1.03,0.56
	c0.42,0.14,0.85,0.21,1.29,0.21c0.54,0,1-0.1,1.4-0.29c0.39-0.19,0.7-0.46,0.92-0.81c0.22-0.34,0.33-0.75,0.33-1.21
	c0-0.44-0.09-0.82-0.28-1.15C14.57,27.17,14.31,26.91,13.99,26.73z"/>
<path class="st9" d="M19.74,26.73c-0.32-0.19-0.7-0.28-1.13-0.28c-0.33,0-0.62,0.05-0.87,0.16c-0.08,0.03-0.15,0.08-0.23,0.12v-1.54
	h2.92v-1.15h-4.38v4.04h0.85c0.18-0.15,0.38-0.27,0.61-0.35c0.23-0.08,0.45-0.12,0.67-0.12c0.24,0,0.45,0.04,0.63,0.13
	c0.18,0.09,0.31,0.21,0.4,0.37c0.09,0.16,0.14,0.36,0.14,0.59c0,0.34-0.1,0.61-0.3,0.79c-0.2,0.18-0.5,0.27-0.9,0.27
	c-0.31,0-0.63-0.06-0.94-0.17c-0.31-0.11-0.62-0.28-0.92-0.49l-0.48,1.07c0.26,0.24,0.61,0.42,1.03,0.56
	c0.42,0.14,0.85,0.21,1.29,0.21c0.54,0,1-0.1,1.4-0.29c0.39-0.19,0.7-0.46,0.92-0.81c0.22-0.34,0.33-0.75,0.33-1.21
	c0-0.44-0.09-0.82-0.28-1.15C20.32,27.17,20.07,26.91,19.74,26.73z"/>
<path class="st9" d="M25.05,27.36c0.33-0.11,0.6-0.29,0.79-0.54c0.21-0.28,0.31-0.62,0.31-1.02c0-0.37-0.09-0.7-0.28-0.97
	c-0.19-0.28-0.46-0.49-0.8-0.64c-0.35-0.15-0.75-0.23-1.22-0.23c-0.45,0-0.89,0.07-1.32,0.21c-0.43,0.14-0.78,0.32-1.06,0.56
	l0.48,1.07c0.29-0.22,0.59-0.38,0.9-0.49c0.31-0.11,0.61-0.17,0.91-0.17c0.31,0,0.55,0.07,0.72,0.22c0.17,0.15,0.26,0.36,0.26,0.64
	c0,0.29-0.1,0.5-0.29,0.63c-0.19,0.13-0.49,0.2-0.89,0.2h-0.81v1.16h0.98c0.42,0,0.72,0.07,0.91,0.21c0.19,0.14,0.28,0.36,0.28,0.66
	c0,0.32-0.09,0.55-0.28,0.69c-0.19,0.14-0.49,0.21-0.91,0.21c-0.32,0-0.64-0.05-0.95-0.16c-0.31-0.11-0.62-0.27-0.92-0.5l-0.48,1.07
	c0.27,0.24,0.63,0.42,1.06,0.56c0.43,0.14,0.89,0.21,1.35,0.21c0.78,0,1.4-0.17,1.85-0.52c0.45-0.35,0.68-0.82,0.68-1.42
	c0-0.44-0.12-0.81-0.35-1.1C25.76,27.64,25.44,27.46,25.05,27.36z"/>
<rect x="27.48" y="27.71" class="st9" width="2.98" height="1.13"/>
<path class="st9" d="M34.36,25.14c0.24,0,0.51,0.05,0.8,0.15c0.29,0.1,0.58,0.27,0.89,0.51l0.49-1.07
	c-0.28-0.25-0.62-0.44-1.02-0.57c-0.4-0.13-0.81-0.2-1.23-0.2c-0.59,0-1.11,0.14-1.54,0.43c-0.43,0.29-0.76,0.7-0.99,1.24
	c-0.23,0.54-0.34,1.18-0.34,1.93c0,1.09,0.24,1.93,0.73,2.52s1.17,0.88,2.05,0.88c0.45,0,0.86-0.1,1.21-0.3s0.63-0.47,0.82-0.82
	c0.2-0.35,0.3-0.75,0.3-1.19c0-0.43-0.09-0.81-0.26-1.14c-0.18-0.33-0.42-0.59-0.73-0.78c-0.31-0.19-0.67-0.28-1.07-0.28
	c-0.28,0-0.53,0.05-0.77,0.15c-0.24,0.1-0.44,0.24-0.6,0.42c-0.07,0.08-0.13,0.16-0.18,0.25c0.03-0.65,0.14-1.15,0.36-1.51
	C33.53,25.34,33.89,25.14,34.36,25.14z M33.22,28.13c0.09-0.17,0.21-0.29,0.36-0.38c0.16-0.09,0.33-0.13,0.53-0.13
	c0.31,0,0.56,0.1,0.74,0.3c0.18,0.2,0.27,0.46,0.27,0.8c0,0.33-0.09,0.59-0.28,0.79c-0.19,0.2-0.43,0.3-0.74,0.3
	c-0.2,0-0.38-0.05-0.53-0.14c-0.16-0.09-0.28-0.22-0.36-0.38c-0.09-0.16-0.13-0.35-0.13-0.57C33.09,28.49,33.13,28.29,33.22,28.13z"
	/>
<path class="st9" d="M40.11,25.14c0.24,0,0.51,0.05,0.8,0.15c0.29,0.1,0.58,0.27,0.89,0.51l0.49-1.07
	c-0.28-0.25-0.62-0.44-1.02-0.57c-0.4-0.13-0.81-0.2-1.23-0.2c-0.59,0-1.11,0.14-1.54,0.43c-0.43,0.29-0.76,0.7-0.99,1.24
	c-0.23,0.54-0.34,1.18-0.34,1.93c0,1.09,0.24,1.93,0.73,2.52c0.49,0.59,1.17,0.88,2.05,0.88c0.45,0,0.86-0.1,1.21-0.3
	c0.35-0.2,0.63-0.47,0.82-0.82c0.2-0.35,0.3-0.75,0.3-1.19c0-0.43-0.09-0.81-0.26-1.14c-0.18-0.33-0.42-0.59-0.73-0.78
	c-0.31-0.19-0.67-0.28-1.07-0.28c-0.28,0-0.53,0.05-0.77,0.15c-0.24,0.1-0.44,0.24-0.6,0.42c-0.07,0.08-0.13,0.16-0.18,0.25
	c0.03-0.65,0.14-1.15,0.36-1.51C39.28,25.34,39.64,25.14,40.11,25.14z M38.97,28.13c0.09-0.17,0.21-0.29,0.36-0.38
	c0.16-0.09,0.33-0.13,0.53-0.13c0.31,0,0.56,0.1,0.74,0.3c0.18,0.2,0.27,0.46,0.27,0.8c0,0.33-0.09,0.59-0.28,0.79
	c-0.19,0.2-0.43,0.3-0.74,0.3c-0.2,0-0.38-0.05-0.53-0.14c-0.16-0.09-0.28-0.22-0.36-0.38c-0.09-0.16-0.13-0.35-0.13-0.57
	C38.84,28.49,38.88,28.29,38.97,28.13z"/>
<path class="st9" d="M47.01,26.73c-0.32-0.19-0.7-0.28-1.13-0.28c-0.33,0-0.62,0.05-0.87,0.16c-0.08,0.03-0.15,0.08-0.23,0.12v-1.54
	h2.92v-1.15h-4.38v4.04h0.85c0.18-0.15,0.38-0.27,0.61-0.35c0.23-0.08,0.45-0.12,0.67-0.12c0.24,0,0.45,0.04,0.63,0.13
	c0.18,0.09,0.31,0.21,0.4,0.37c0.09,0.16,0.14,0.36,0.14,0.59c0,0.34-0.1,0.61-0.3,0.79c-0.2,0.18-0.5,0.27-0.9,0.27
	c-0.31,0-0.63-0.06-0.94-0.17c-0.31-0.11-0.62-0.28-0.92-0.49l-0.48,1.07c0.26,0.24,0.61,0.42,1.03,0.56
	c0.42,0.14,0.85,0.21,1.29,0.21c0.54,0,1-0.1,1.4-0.29c0.39-0.19,0.7-0.46,0.92-0.81c0.22-0.34,0.33-0.75,0.33-1.21
	c0-0.44-0.09-0.82-0.28-1.15C47.59,27.17,47.34,26.91,47.01,26.73z"/>
<path class="st9" d="M53.93,28.46H53v-4.42h-1.2l-3.13,4.47v1.11h2.85v1.25H53v-1.25h0.93V28.46z M50.04,28.46l1.48-2.13v2.13H50.04
	z"/>
</svg>
