<?xml version="1.0" encoding="utf-8"?>
<!-- Generator: Adobe Illustrator 24.1.2, SVG Export Plug-In . SVG Version: 6.00 Build 0)  -->
<svg version="1.1" id="Layer_1" xmlns="http://www.w3.org/2000/svg" xmlns:xlink="http://www.w3.org/1999/xlink" x="0px" y="0px"
	 width="64px" height="64px" viewBox="0 0 64 64" style="enable-background:new 0 0 64 64;" xml:space="preserve">
<style type="text/css">
	.st0{fill:url(#SVGID_1_);}
	.st1{opacity:0.2;fill:#1A1626;}
	.st2{fill:#CFD8DD;}
	.st3{fill:url(#SVGID_2_);}
	.st4{fill:url(#SVGID_3_);}
	.st5{fill:url(#SVGID_4_);}
	.st6{fill:url(#SVGID_5_);}
	.st7{fill:#99A8AE;}
	.st8{fill:#302C3B;}
	.st9{fill:url(#SVGID_6_);}
	.st10{fill:#1A1626;}
	.st11{fill:#25222E;}
	.st12{fill:url(#SVGID_7_);}
	.st13{opacity:0.2;fill:#302C3B;}
	.st14{fill:#35313D;}
	.st15{fill:#272430;}
	.st16{fill:#2D2A36;}
	.st17{fill:url(#SVGID_8_);}
	.st18{fill:#4E5E67;}
	.st19{fill:url(#SVGID_9_);}
	.st20{fill:#6E8189;}
	.st21{fill:url(#SVGID_10_);}
	.st22{opacity:0.3;fill:#6E8189;}
</style>
<linearGradient id="SVGID_1_" gradientUnits="userSpaceOnUse" x1="13.2303" y1="14.1333" x2="23.0365" y2="14.1333">
	<stop  offset="0" style="stop-color:#D6E5ED"/>
	<stop  offset="0.0475" style="stop-color:#D1E0E7"/>
	<stop  offset="0.4807" style="stop-color:#A8B2B8"/>
	<stop  offset="0.812" style="stop-color:#8F969A"/>
	<stop  offset="1" style="stop-color:#858C8F"/>
</linearGradient>
<path class="st0" d="M22.55,13.07h-8.83c-0.27,0-0.49,0.19-0.49,0.43v1.71h9.81v-1.71C23.04,13.26,22.82,13.07,22.55,13.07z"/>
<rect x="13.48" y="13.49" class="st1" width="0.49" height="1.71"/>
<rect x="14.46" y="13.49" class="st1" width="0.49" height="1.71"/>
<rect x="15.44" y="13.49" class="st1" width="0.49" height="1.71"/>
<rect x="16.42" y="13.49" class="st1" width="0.49" height="1.71"/>
<rect x="17.4" y="13.49" class="st1" width="0.49" height="1.71"/>
<rect x="18.38" y="13.49" class="st1" width="0.49" height="1.71"/>
<rect x="19.36" y="13.49" class="st1" width="0.49" height="1.71"/>
<rect x="20.34" y="13.49" class="st1" width="0.49" height="1.71"/>
<rect x="21.32" y="13.49" class="st1" width="0.49" height="1.71"/>
<rect x="22.3" y="13.49" class="st1" width="0.49" height="1.71"/>
<rect y="21.33" class="st2" width="2.13" height="1.07"/>
<rect x="61.87" y="21.33" class="st2" width="2.13" height="1.07"/>
<linearGradient id="SVGID_2_" gradientUnits="userSpaceOnUse" x1="4.6219" y1="14.0931" x2="12.1011" y2="14.0931">
	<stop  offset="0" style="stop-color:#D6E5ED"/>
	<stop  offset="0.0475" style="stop-color:#D1E0E7"/>
	<stop  offset="0.4807" style="stop-color:#A8B2B8"/>
	<stop  offset="0.812" style="stop-color:#8F969A"/>
	<stop  offset="1" style="stop-color:#858C8F"/>
</linearGradient>
<path class="st3" d="M12.09,15.07H4.62c0,0,0.43-1.38,0.97-1.6c1.28-0.52,4.26-0.52,5.54,0C11.71,13.71,12.19,15.37,12.09,15.07z"/>
<rect x="7.26" y="12.93" class="st2" width="2.19" height="2.13"/>
<linearGradient id="SVGID_3_" gradientUnits="userSpaceOnUse" x1="1.0667" y1="35.2" x2="62.9333" y2="35.2">
	<stop  offset="0.9" style="stop-color:#323844"/>
	<stop  offset="1" style="stop-color:#1A1626"/>
</linearGradient>
<rect x="1.07" y="21.33" class="st4" width="61.87" height="27.73"/>
<linearGradient id="SVGID_4_" gradientUnits="userSpaceOnUse" x1="1.0667" y1="50.1333" x2="62.9333" y2="50.1333">
	<stop  offset="0" style="stop-color:#7B8589"/>
	<stop  offset="0.0116" style="stop-color:#8D979B"/>
	<stop  offset="0.0341" style="stop-color:#AAB3B8"/>
	<stop  offset="0.0566" style="stop-color:#BEC8CC"/>
	<stop  offset="0.0787" style="stop-color:#CBD4D9"/>
	<stop  offset="0.1" style="stop-color:#CFD8DD"/>
	<stop  offset="0.9" style="stop-color:#CFD8DD"/>
	<stop  offset="0.9213" style="stop-color:#CBD4D9"/>
	<stop  offset="0.9434" style="stop-color:#BEC8CC"/>
	<stop  offset="0.9659" style="stop-color:#AAB3B8"/>
	<stop  offset="0.9884" style="stop-color:#8D979B"/>
	<stop  offset="1" style="stop-color:#7B8589"/>
</linearGradient>
<path class="st5" d="M60.83,51.2H3.17c-2.1,0-2.1-2.13-2.1-2.13h61.87C62.93,49.07,62.93,51.2,60.83,51.2z"/>
<linearGradient id="SVGID_5_" gradientUnits="userSpaceOnUse" x1="1.0667" y1="17.0667" x2="62.9333" y2="17.0667">
	<stop  offset="0" style="stop-color:#7B8589"/>
	<stop  offset="0.0116" style="stop-color:#8D979B"/>
	<stop  offset="0.0341" style="stop-color:#AAB3B8"/>
	<stop  offset="0.0566" style="stop-color:#BEC8CC"/>
	<stop  offset="0.0787" style="stop-color:#CBD4D9"/>
	<stop  offset="0.1" style="stop-color:#CFD8DD"/>
	<stop  offset="0.9" style="stop-color:#CFD8DD"/>
	<stop  offset="0.9213" style="stop-color:#CBD4D9"/>
	<stop  offset="0.9434" style="stop-color:#BEC8CC"/>
	<stop  offset="0.9659" style="stop-color:#AAB3B8"/>
	<stop  offset="0.9884" style="stop-color:#8D979B"/>
	<stop  offset="1" style="stop-color:#7B8589"/>
</linearGradient>
<path class="st6" d="M62.93,13.81l-1.57-1.01c0,0-21.81,0-30.5,0c-5.42,0-6.11,2.25-11.31,2.25c-1.71,0-14.69,0-17.41,0
	c-1.07,0-1.07,0.91-1.07,0.91v5.37h61.87V13.81z"/>
<path class="st7" d="M31.66,45.67c0,1.58-1.28,2.87-2.87,2.87c-1.58,0-2.87-1.28-2.87-2.87c0-1.58,1.28-2.87,2.87-2.87
	C30.37,42.8,31.66,44.09,31.66,45.67z"/>
<path class="st8" d="M30.89,45.67c0,1.16-0.94,2.11-2.11,2.11c-1.16,0-2.11-0.94-2.11-2.11c0-1.16,0.94-2.11,2.11-2.11
	C29.95,43.56,30.89,44.51,30.89,45.67z"/>
<radialGradient id="SVGID_6_" cx="41.6" cy="33.5563" r="16.5333" gradientTransform="matrix(0.7071 -0.7071 4.2426 4.2426 -130.1828 -79.3953)" gradientUnits="userSpaceOnUse">
	<stop  offset="0.2303" style="stop-color:#EFFAFF"/>
	<stop  offset="0.3695" style="stop-color:#E7F2F7"/>
	<stop  offset="0.5869" style="stop-color:#D1DCE1"/>
	<stop  offset="0.8538" style="stop-color:#ADB9BD"/>
	<stop  offset="1" style="stop-color:#96A2A6"/>
</radialGradient>
<circle class="st9" cx="41.6" cy="33.56" r="16.53"/>
<circle class="st10" cx="41.6" cy="33.56" r="14.53"/>
<circle class="st11" cx="41.6" cy="33.56" r="13.03"/>
<linearGradient id="SVGID_7_" gradientUnits="userSpaceOnUse" x1="33.4519" y1="25.4084" x2="49.7485" y2="41.705">
	<stop  offset="0" style="stop-color:#302C3B"/>
	<stop  offset="0.4746" style="stop-color:#312E3D"/>
	<stop  offset="0.7489" style="stop-color:#363742"/>
	<stop  offset="0.972" style="stop-color:#3F454B"/>
	<stop  offset="1" style="stop-color:#40474D"/>
</linearGradient>
<path class="st12" d="M53.12,33.56c0,6.37-5.16,11.52-11.52,11.52c-6.36,0-11.52-5.16-11.52-11.52c0-6.36,5.16-11.52,11.52-11.52
	C47.96,22.03,53.12,27.19,53.12,33.56z"/>
<path class="st13" d="M48.79,33.56c0,3.97-3.22,7.19-7.19,7.19c-3.97,0-7.19-3.22-7.19-7.19c0-3.97,3.22-7.19,7.19-7.19
	C45.57,26.37,48.79,29.59,48.79,33.56z"/>
<path class="st14" d="M49.12,33.56c0,4.15-3.36,7.51-7.52,7.51c-4.15,0-7.51-3.36-7.51-7.51c0-4.15,3.36-7.51,7.51-7.51
	C45.75,26.04,49.12,29.41,49.12,33.56z"/>
<path class="st15" d="M47.61,33.56c0,3.32-2.69,6.01-6.01,6.01c-3.32,0-6.01-2.69-6.01-6.01c0-3.32,2.69-6.01,6.01-6.01
	C44.92,27.54,47.61,30.24,47.61,33.56z"/>
<path class="st16" d="M46.11,33.56c0,2.49-2.02,4.51-4.51,4.51c-2.49,0-4.51-2.02-4.51-4.51c0-2.49,2.02-4.51,4.51-4.51
	C44.09,29.05,46.11,31.07,46.11,33.56z"/>
<path class="st14" d="M44.61,33.56c0,1.66-1.35,3.01-3.01,3.01c-1.66,0-3.01-1.35-3.01-3.01c0-1.66,1.35-3.01,3.01-3.01
	C43.26,30.55,44.61,31.9,44.61,33.56z"/>
<path class="st10" d="M42.6,33.56c0,0.55-0.45,1-1,1c-0.55,0-1-0.45-1-1c0-0.55,0.45-1,1-1C42.15,32.55,42.6,33,42.6,33.56z"/>
<radialGradient id="SVGID_8_" cx="583.8224" cy="38.3744" r="27.0067" gradientTransform="matrix(0.3583 0.4654 -0.5242 0.4036 -154.4502 -262.5234)" gradientUnits="userSpaceOnUse">
	<stop  offset="0" style="stop-color:#FFFFFF;stop-opacity:0.2"/>
	<stop  offset="1" style="stop-color:#FFFFFF;stop-opacity:0"/>
</radialGradient>
<path class="st17" d="M45.14,38.59c-4.04,3.11-9.55,2.73-12.31-0.86c-2.76-3.59-1.73-9.02,2.31-12.13
	c4.04-3.12,9.56-2.73,12.32,0.86C50.22,30.05,49.18,35.48,45.14,38.59z"/>
<circle class="st18" cx="23.79" cy="18.19" r="1.6"/>
<circle class="st7" cx="23.79" cy="18.19" r="1.07"/>
<path class="st10" d="M24.48,18.19c0,0.38-0.31,0.69-0.69,0.69c-0.38,0-0.69-0.31-0.69-0.69c0-0.38,0.31-0.69,0.69-0.69
	C24.17,17.5,24.48,17.81,24.48,18.19z"/>
<linearGradient id="SVGID_9_" gradientUnits="userSpaceOnUse" x1="1.0667" y1="35.2" x2="19.5479" y2="35.2">
	<stop  offset="0" style="stop-color:#302C3B"/>
	<stop  offset="0.0155" style="stop-color:#33313F"/>
	<stop  offset="0.0989" style="stop-color:#3F4551"/>
	<stop  offset="0.1937" style="stop-color:#47535D"/>
	<stop  offset="0.3087" style="stop-color:#4C5B65"/>
	<stop  offset="0.5" style="stop-color:#4E5E67"/>
	<stop  offset="0.6307" style="stop-color:#4A5862"/>
	<stop  offset="0.8028" style="stop-color:#414853"/>
	<stop  offset="0.9973" style="stop-color:#302C3B"/>
	<stop  offset="1" style="stop-color:#302C3B"/>
</linearGradient>
<rect x="1.07" y="21.33" class="st19" width="18.48" height="27.73"/>
<path class="st20" d="M18.25,17.13c0-0.44-0.36-0.8-0.8-0.8h-9.6c-0.44,0-0.8,0.36-0.8,0.8v2.13c0,0.44,0.36,0.8,0.8,0.8h9.6
	c0.44,0,0.8-0.36,0.8-0.8V17.13z"/>
<linearGradient id="SVGID_10_" gradientUnits="userSpaceOnUse" x1="7.3209" y1="18.1938" x2="17.9875" y2="18.1938">
	<stop  offset="6.060610e-03" style="stop-color:#ACB4B8"/>
	<stop  offset="0.0293" style="stop-color:#B8BEC2"/>
	<stop  offset="0.093" style="stop-color:#D2D6D8"/>
	<stop  offset="0.1634" style="stop-color:#E6E8E9"/>
	<stop  offset="0.243" style="stop-color:#F4F5F6"/>
	<stop  offset="0.3395" style="stop-color:#FCFDFD"/>
	<stop  offset="0.5" style="stop-color:#FFFFFF"/>
	<stop  offset="0.6625" style="stop-color:#FCFDFD"/>
	<stop  offset="0.7601" style="stop-color:#F4F5F6"/>
	<stop  offset="0.8407" style="stop-color:#E6E8E9"/>
	<stop  offset="0.912" style="stop-color:#D2D6D8"/>
	<stop  offset="0.9765" style="stop-color:#B8BEC2"/>
	<stop  offset="1" style="stop-color:#ACB4B8"/>
</linearGradient>
<path class="st21" d="M17.99,17.13c0-0.29-0.24-0.53-0.53-0.53h-9.6c-0.29,0-0.53,0.24-0.53,0.53v2.13c0,0.29,0.24,0.53,0.53,0.53
	h9.6c0.29,0,0.53-0.24,0.53-0.53V17.13z"/>
<rect x="7.32" y="18.78" class="st22" width="10.67" height="0.11"/>
<rect x="7.32" y="19.42" class="st22" width="10.67" height="0.11"/>
<rect x="7.32" y="18.14" class="st22" width="10.67" height="0.11"/>
<rect x="7.32" y="17.5" class="st22" width="10.67" height="0.11"/>
<rect x="16.55" y="16.33" class="st22" width="0.11" height="3.73"/>
<rect x="8.65" y="16.33" class="st22" width="0.11" height="3.73"/>
<rect x="7.32" y="16.86" class="st22" width="10.67" height="0.11"/>
</svg>
