<?xml version="1.0" encoding="utf-8"?>
<!-- Generator: Adobe Illustrator 24.1.2, SVG Export Plug-In . SVG Version: 6.00 Build 0)  -->
<svg version="1.1" id="Layer_1" xmlns="http://www.w3.org/2000/svg" xmlns:xlink="http://www.w3.org/1999/xlink" x="0px" y="0px"
	 width="64px" height="64px" viewBox="0 0 64 64" style="enable-background:new 0 0 64 64;" xml:space="preserve">
<style type="text/css">
	.st0{fill:url(#SVGID_1_);}
	.st1{fill:url(#SVGID_2_);}
	.st2{fill:url(#SVGID_3_);}
	.st3{fill:url(#SVGID_4_);}
	.st4{fill:#1A1626;}
	.st5{fill:#5A6367;}
	.st6{fill:url(#SVGID_5_);}
	.st7{fill:url(#SVGID_6_);}
	.st8{fill:#B3C2C6;}
	.st9{fill:#6E8189;}
	.st10{fill:url(#SVGID_7_);}
	.st11{fill:#99A8AE;}
	.st12{fill:#7F8E94;}
	.st13{fill:url(#SVGID_8_);}
</style>
<linearGradient id="SVGID_1_" gradientUnits="userSpaceOnUse" x1="1.5076" y1="-168.6828" x2="9.6717" y2="-168.6828" gradientTransform="matrix(0.342 0.9397 -0.9397 0.342 -122.2677 73.6761)">
	<stop  offset="0" style="stop-color:#8E9DA3"/>
	<stop  offset="0.4214" style="stop-color:#87969C"/>
	<stop  offset="1" style="stop-color:#768489"/>
</linearGradient>
<polygon class="st0" points="48.03,21.99 31.06,28.16 28.64,21.51 36.75,17.4 45.24,14.32 "/>
<linearGradient id="SVGID_2_" gradientUnits="userSpaceOnUse" x1="0.5769" y1="-183.0471" x2="10.6021" y2="-183.0471" gradientTransform="matrix(0.342 0.9397 -0.9397 0.342 -122.2677 73.6761)">
	<stop  offset="0" style="stop-color:#5B666E"/>
	<stop  offset="0.0868" style="stop-color:#4C525D"/>
	<stop  offset="0.1974" style="stop-color:#40414D"/>
	<stop  offset="0.3334" style="stop-color:#373543"/>
	<stop  offset="0.5205" style="stop-color:#312E3D"/>
	<stop  offset="1" style="stop-color:#302C3B"/>
</linearGradient>
<path class="st1" d="M55.59,20.23l-4.35,1.58c0,0-3.2-2.92-3.43-9.42l4.35-1.58C56,16.16,55.59,20.23,55.59,20.23z"/>
<linearGradient id="SVGID_3_" gradientUnits="userSpaceOnUse" x1="0.5769" y1="-185.4276" x2="10.6021" y2="-185.4276" gradientTransform="matrix(0.342 0.9397 -0.9397 0.342 -122.2677 73.6761)">
	<stop  offset="0.1576" style="stop-color:#858C8F"/>
	<stop  offset="0.6364" style="stop-color:#D6E5ED"/>
	<stop  offset="0.707" style="stop-color:#D0DFE6"/>
	<stop  offset="0.8081" style="stop-color:#C0CDD3"/>
	<stop  offset="0.9271" style="stop-color:#A5AFB4"/>
	<stop  offset="1" style="stop-color:#919A9E"/>
</linearGradient>
<path class="st2" d="M56,20.08l-1.53,0.56l-3.43-9.42l1.53-0.56C56.41,16.01,56,20.08,56,20.08z"/>
<linearGradient id="SVGID_4_" gradientUnits="userSpaceOnUse" x1="-1.3938" y1="-188.7941" x2="12.5761" y2="-188.7941" gradientTransform="matrix(0.342 0.9397 -0.9397 0.342 -122.2677 73.6761)">
	<stop  offset="0" style="stop-color:#5B666E"/>
	<stop  offset="0.0868" style="stop-color:#4C525D"/>
	<stop  offset="0.1974" style="stop-color:#40414D"/>
	<stop  offset="0.3334" style="stop-color:#373543"/>
	<stop  offset="0.5205" style="stop-color:#312E3D"/>
	<stop  offset="1" style="stop-color:#302C3B"/>
</linearGradient>
<path class="st3" d="M61.63,20.13l-5.03-0.27c-0.49,0.18-3.92-9.24-3.43-9.42L56.86,7C60.02,13.37,61.63,20.13,61.63,20.13z"/>
<polygon class="st4" points="47.81,12.39 45.58,13.78 45.24,14.32 48.03,21.99 48.64,22.17 51.24,21.81 "/>
<polygon class="st4" points="62,19.55 57.51,7.21 56.86,7 61.63,20.13 "/>
<polygon class="st4" points="56.61,19.86 53.18,10.44 52.81,11.02 55.95,19.65 "/>
<path class="st5" d="M7.77,38.1v13.95c0,0.61,0.48,1.1,1.08,1.1l3.23,0V38.1H7.77z"/>
<linearGradient id="SVGID_5_" gradientUnits="userSpaceOnUse" x1="7.1714" y1="38.3829" x2="7.1714" y2="19.1385" gradientTransform="matrix(1 0 0 1 -2.6917 0.9858)">
	<stop  offset="0.5394" style="stop-color:#747A7D"/>
	<stop  offset="1" style="stop-color:#C1CFD6"/>
</linearGradient>
<path class="st6" d="M3.66,39.37c-0.49,0-1.66-1.1-1.66-1.1V21.23c0,0,1.17-1.1,1.66-1.1C8.44,20.12,7.66,39.37,3.66,39.37z"/>
<linearGradient id="SVGID_6_" gradientUnits="userSpaceOnUse" x1="12.2093" y1="38.3829" x2="12.2093" y2="19.1385" gradientTransform="matrix(1 0 0 1 -2.6917 0.9858)">
	<stop  offset="0.1576" style="stop-color:#858C8F"/>
	<stop  offset="0.6364" style="stop-color:#D6E5ED"/>
	<stop  offset="0.707" style="stop-color:#D0DFE6"/>
	<stop  offset="0.8081" style="stop-color:#C0CDD3"/>
	<stop  offset="0.9271" style="stop-color:#A5AFB4"/>
	<stop  offset="1" style="stop-color:#919A9E"/>
</linearGradient>
<rect x="3.66" y="20.12" class="st7" width="11.71" height="19.24"/>
<rect x="23.09" y="19" class="st8" width="6.46" height="1.75"/>
<rect x="23.09" y="19.67" class="st9" width="6.46" height="1.75"/>
<linearGradient id="SVGID_7_" gradientUnits="userSpaceOnUse" x1="35.9593" y1="55.3606" x2="35.9593" y2="20.1243">
	<stop  offset="0" style="stop-color:#768489"/>
	<stop  offset="0.5786" style="stop-color:#87969C"/>
	<stop  offset="1" style="stop-color:#8E9DA3"/>
</linearGradient>
<path class="st10" d="M61.47,55.36H9.92l0-15.99l0,0c1.24,0,2.29-0.95,2.43-2.22l1.93-17.02h16.27c0,0,0.25,1.83,2.68,1.83
	c4.87,0,28.77,0,28.77,0v5.29l-1.09,1.12l0,25.23l0.56,0.55V55.36z"/>
<path class="st5" d="M59.33,57c-13.2,0-35.7,0-46.73,0c-2.67,0-2.68-1.64-2.68-1.64h51.55C61.47,55.36,61.51,57,59.33,57z"/>
<path class="st5" d="M26.83,28.36c-0.58,0-1.17,0.45-1.3,1l-0.89,2.98c-0.13,0.62-0.72,1.12-1.3,1.12l-1.4,0
	c-0.58,0-1.78,0.07-1.78,1.36l0,12.42c0,0.97,0.99,1.25,1.57,1.24h1.6c0.58,0,1.17,0.5,1.3,1.12l0.89,2.98c0.13,0.55,0.72,1,1.3,1
	h34.07l0-25.23H26.83z"/>
<path class="st11" d="M25.54,33.7h-4.06c-0.59,0-1.08,0.5-1.08,1.1v12.34c0,0.61,0.49,1.1,1.08,1.1h4.06V33.7z"/>
<path class="st12" d="M59.56,29.78c0-0.61-0.5-1.1-1.1-1.1H27.18c-0.61,0-1.24,0.48-1.41,1.06l-0.83,2.91
	c-0.17,0.59-0.3,1.56-0.3,2.16v12.32c0,0.61,0.14,1.58,0.3,2.16l0.83,2.91c0.17,0.58,0.8,1.06,1.41,1.06h31.27
	c0.61,0,1.1-0.5,1.1-1.1L59.56,29.78z"/>
<linearGradient id="SVGID_8_" gradientUnits="userSpaceOnUse" x1="45.1299" y1="50.044" x2="45.1299" y2="29.9263" gradientTransform="matrix(1 0 0 1 -2.6917 0.9858)">
	<stop  offset="0" style="stop-color:#302C3B"/>
	<stop  offset="0.5128" style="stop-color:#454853"/>
	<stop  offset="1" style="stop-color:#5B666E"/>
</linearGradient>
<path class="st13" d="M56.62,32.01c0-0.6-0.48-1.1-1.07-1.1l-26.21,0c-0.59,0-1.08,0.49-1.08,1.1v17.92c0,0.6,0.49,1.1,1.08,1.1
	h26.21c0.59,0,1.07-0.49,1.07-1.1V32.01z"/>
</svg>
