<?xml version="1.0" encoding="utf-8"?>
<!-- Generator: Adobe Illustrator 24.1.2, SVG Export Plug-In . SVG Version: 6.00 Build 0)  -->
<svg version="1.1" id="Layer_1" xmlns="http://www.w3.org/2000/svg" xmlns:xlink="http://www.w3.org/1999/xlink" x="0px" y="0px"
	 width="64px" height="64px" viewBox="0 0 64 64" style="enable-background:new 0 0 64 64;" xml:space="preserve">
<style type="text/css">
	.st0{fill:url(#SVGID_1_);}
	.st1{fill:#302C3B;}
</style>
<linearGradient id="SVGID_1_" gradientUnits="userSpaceOnUse" x1="3" y1="20" x2="61" y2="20">
	<stop  offset="0" style="stop-color:#4E585E"/>
	<stop  offset="0.3201" style="stop-color:#41444E"/>
	<stop  offset="0.7152" style="stop-color:#343240"/>
	<stop  offset="1" style="stop-color:#302C3B"/>
</linearGradient>
<polygon class="st0" points="3,20 19,4 19,14 61,14 61,26 19,26 19,36 "/>
<polygon class="st1" points="11.07,60 22.48,60 22.48,56.76 15.18,56.76 15.18,53.48 22.01,53.48 22.01,50.25 15.18,50.25 
	15.18,47.24 22.48,47.24 22.48,44 11.07,44 "/>
<polygon class="st1" points="34.98,53.04 27.72,44 24.64,44 24.64,60 28.57,60 28.57,50.92 35.83,60 38.96,60 38.96,44 34.98,44 "/>
<path class="st1" d="M52.98,44.95C51.7,44.32,50.18,44,48.39,44h-6.54v16h6.54c1.8,0,3.33-0.32,4.61-0.95
	c1.27-0.64,2.25-1.55,2.92-2.75c0.67-1.2,1.01-2.64,1.01-4.32c0-1.66-0.34-3.09-1.02-4.28C55.23,46.51,54.25,45.59,52.98,44.95z
	 M51.59,55.47c-0.77,0.77-1.94,1.16-3.49,1.16h-2.02v-9.26h2.02c3.1,0,4.65,1.54,4.65,4.61C52.75,53.54,52.37,54.7,51.59,55.47z"/>
</svg>
