<?xml version="1.0" encoding="utf-8"?>
<!-- Generator: Adobe Illustrator 24.1.2, SVG Export Plug-In . SVG Version: 6.00 Build 0)  -->
<svg version="1.1" id="Layer_1" xmlns="http://www.w3.org/2000/svg" xmlns:xlink="http://www.w3.org/1999/xlink" x="0px" y="0px"
	 width="64px" height="64px" viewBox="0 0 64 64" style="enable-background:new 0 0 64 64;" xml:space="preserve">
<style type="text/css">
	.st0{fill:url(#SVGID_1_);}
	.st1{fill:#302C3B;}
</style>
<linearGradient id="SVGID_1_" gradientUnits="userSpaceOnUse" x1="2" y1="20" x2="62" y2="20">
	<stop  offset="0" style="stop-color:#4E585E"/>
	<stop  offset="0.3201" style="stop-color:#41444E"/>
	<stop  offset="0.7152" style="stop-color:#343240"/>
	<stop  offset="1" style="stop-color:#302C3B"/>
</linearGradient>
<polygon class="st0" points="62,20 46,4 46,14 18,14 18,4 2,20 18,36 18,26 46,26 46,36 "/>
<polygon class="st1" points="47.03,54.8 50.49,54.8 51,44 46.52,44 "/>
<rect x="47.03" y="56.55" class="st1" width="3.46" height="3.45"/>
<path class="st1" d="M25,44.97C23.84,44.33,22.45,44,20.85,44c-1.61,0-2.99,0.33-4.16,0.97c-1.17,0.65-2.07,1.58-2.72,2.77
	c-0.64,1.2-0.97,2.61-0.97,4.23c0,1.64,0.32,3.05,0.95,4.25c0.64,1.2,1.54,2.13,2.72,2.78c1.18,0.66,2.57,0.99,4.18,0.99
	c1.61,0,2.99-0.33,4.15-0.99c1.16-0.66,2.06-1.58,2.7-2.78c0.64-1.2,0.95-2.61,0.95-4.25c0-1.62-0.32-3.03-0.95-4.23
	C27.06,46.55,26.16,45.63,25,44.97z M23.57,55.64c-0.68,0.82-1.59,1.23-2.73,1.23c-1.14,0-2.05-0.41-2.72-1.22
	c-0.67-0.81-1.01-2.03-1.01-3.67c0-1.62,0.34-2.83,1.01-3.64c0.67-0.8,1.58-1.21,2.72-1.21c1.14,0,2.05,0.41,2.73,1.22
	c0.68,0.81,1.02,2.02,1.02,3.63C24.59,53.6,24.25,54.82,23.57,55.64z"/>
<polygon class="st1" points="40.77,53.04 33.51,44 30.43,44 30.43,60 34.36,60 34.36,50.92 41.62,60 44.74,60 44.74,44 40.77,44 "/>
</svg>
