<?xml version="1.0" encoding="utf-8"?>
<!-- Generator: Adobe Illustrator 24.1.2, SVG Export Plug-In . SVG Version: 6.00 Build 0)  -->
<svg version="1.1" id="Layer_1" xmlns="http://www.w3.org/2000/svg" xmlns:xlink="http://www.w3.org/1999/xlink" x="0px" y="0px"
	 width="64px" height="64px" viewBox="0 0 64 64" style="enable-background:new 0 0 64 64;" xml:space="preserve">
<style type="text/css">
	.st0{fill:url(#SVGID_1_);}
	.st1{fill:#FFFFFF;}
	.st2{fill:url(#SVGID_2_);}
</style>
<radialGradient id="SVGID_1_" cx="-62.0009" cy="38.0004" r="26.2002" gradientTransform="matrix(1 0 0 -1 94 70)" gradientUnits="userSpaceOnUse">
	<stop  offset="0" style="stop-color:#545061"/>
	<stop  offset="0.2793" style="stop-color:#464253"/>
	<stop  offset="0.6105" style="stop-color:#312D3D"/>
	<stop  offset="0.7961" style="stop-color:#211D2D"/>
	<stop  offset="0.9556" style="stop-color:#1A1626"/>
</radialGradient>
<path class="st0" d="M7.37,23.68c-11.1,32.84,38.16,49.49,49.26,16.65C67.73,7.48,18.47-9.17,7.37,23.68z"/>
<polygon class="st1" points="25.07,19.32 22.27,19.32 15.84,23.67 15.84,28.56 20.27,25.52 20.27,40.26 15.53,40.26 15.53,44.71 
	29.85,44.71 29.85,40.26 25.07,40.26 "/>
<path class="st1" d="M46.98,33.5c-0.82-0.93-1.94-1.5-3.25-1.85c1.12-0.35,2.1-0.89,2.85-1.77c0.91-1.07,1.37-2.4,1.37-3.99
	c0-1.43-0.34-2.65-1.03-3.67c-0.69-1.02-1.63-1.81-2.82-2.37C42.91,19.28,41.56,19,40.07,19c-1.5,0-2.84,0.28-4.03,0.84
	c-1.19,0.56-2.13,1.35-2.82,2.37c-0.69,1.02-1.03,2.25-1.03,3.67c0,1.55,0.46,2.86,1.37,3.94c0.74,0.87,1.72,1.43,2.85,1.82
	c-1.29,0.34-2.41,0.89-3.23,1.8c-1.01,1.12-1.51,2.57-1.51,4.35c0,1.5,0.36,2.78,1.08,3.85c0.72,1.07,1.71,1.9,2.97,2.48
	c1.26,0.58,2.71,0.88,4.35,0.88c1.64,0,3.09-0.29,4.36-0.88c1.26-0.58,2.25-1.41,2.97-2.48c0.72-1.07,1.08-2.35,1.08-3.85
	C48.47,36.06,47.97,34.63,46.98,33.5z M37.65,24.05c0.63-0.53,1.43-0.8,2.42-0.8c0.99,0,1.79,0.27,2.42,0.8
	c0.63,0.54,0.94,1.35,0.94,2.44c0,1.05-0.32,1.87-0.95,2.46c-0.64,0.59-1.44,0.99-2.4,1.18c-0.96-0.19-1.76-0.58-2.4-1.18
	c-0.64-0.59-0.95-1.41-0.95-2.46C36.71,25.4,37.02,24.58,37.65,24.05z M42.91,39.9c-0.73,0.57-1.68,0.86-2.85,0.86
	c-1.17,0-2.12-0.29-2.85-0.86c-0.73-0.57-1.09-1.41-1.09-2.53c0-1.07,0.37-1.91,1.11-2.53c0.74-0.62,1.68-1.03,2.83-1.25
	c1.15,0.21,2.09,0.63,2.83,1.25c0.74,0.62,1.11,1.46,1.11,2.53C44.01,38.49,43.64,39.33,42.91,39.9z"/>
<linearGradient id="SVGID_2_" gradientUnits="userSpaceOnUse" x1="-77.0025" y1="63.9851" x2="-46.9975" y2="12.015" gradientTransform="matrix(1 0 0 -1 94 70)">
	<stop  offset="0" style="stop-color:#FF3B3B"/>
	<stop  offset="0.2558" style="stop-color:#FB3737"/>
	<stop  offset="0.5207" style="stop-color:#F02B2A"/>
	<stop  offset="0.7889" style="stop-color:#DD1616"/>
	<stop  offset="1" style="stop-color:#C90100"/>
</linearGradient>
<path class="st2" d="M32,2C15.43,2,2,15.43,2,32s13.43,30,30,30s30-13.43,30-30S48.57,2,32,2z M56,32c0,5.55-1.89,10.65-5.04,14.71
	L17.29,13.04C21.35,9.89,26.45,8,32,8C45.25,8,56,18.75,56,32z M8,32c0-5.55,1.89-10.65,5.04-14.71l33.67,33.67
	C42.65,54.11,37.54,56,32,56C18.74,56,8,45.26,8,32z"/>
</svg>
