<?xml version="1.0" encoding="utf-8"?>
<!-- Generator: Adobe Illustrator 24.1.2, SVG Export Plug-In . SVG Version: 6.00 Build 0)  -->
<svg version="1.1" id="Layer_1" xmlns="http://www.w3.org/2000/svg" xmlns:xlink="http://www.w3.org/1999/xlink" x="0px" y="0px"
	 width="64px" height="64px" viewBox="0 0 64 64" style="enable-background:new 0 0 64 64;" xml:space="preserve">
<style type="text/css">
	.st0{fill:url(#SVGID_1_);}
	.st1{fill:#FFFFFF;}
</style>
<linearGradient id="SVGID_1_" gradientUnits="userSpaceOnUse" x1="-62" y1="68" x2="-62" y2="8" gradientTransform="matrix(1 0 0 -1 94 70)">
	<stop  offset="0" style="stop-color:#00ABF1"/>
	<stop  offset="0.2292" style="stop-color:#00A7EF"/>
	<stop  offset="0.4667" style="stop-color:#009AE9"/>
	<stop  offset="0.7079" style="stop-color:#0086E0"/>
	<stop  offset="0.9504" style="stop-color:#0069D3"/>
	<stop  offset="1" style="stop-color:#0062D0"/>
</linearGradient>
<path class="st0" d="M62,54c0,4.4-3.6,8-8,8H10c-4.4,0-8-3.6-8-8V10c0-4.4,3.6-8,8-8h44c4.4,0,8,3.6,8,8V54z"/>
<rect x="14" y="14" class="st1" width="16" height="4"/>
<polygon class="st1" points="14,22 14,26 20,26 20,30 24,30 24,26 30,26 30,22 "/>
<path class="st1" d="M49.52,18.99c-0.32-0.49-0.74-0.88-1.2-1.23c-0.13-0.1-0.2-0.15-0.33-0.24l-0.27-0.21
	c-0.17-0.14-0.33-0.29-0.48-0.44c-0.6-0.59-0.97-1.21-1.15-1.75c-0.15-0.46-0.17-0.84-0.15-1.12h-3.23l-2.07,10.81
	c-0.61-0.17-1.28-0.27-2-0.27c-2.57,0-4.65,1.22-4.65,2.73c0,1.51,2.08,2.73,4.65,2.73c2.43,0,4.41-1.09,4.63-2.48l1.92-10.02
	c0.26,0.21,0.54,0.42,0.84,0.6c0.23,0.14,0.47,0.28,0.71,0.4c0.12,0.06,0.25,0.12,0.37,0.18c0.08,0.04,0.24,0.12,0.31,0.16
	c0.38,0.21,0.75,0.47,1.03,0.77c0.27,0.3,0.45,0.64,0.5,1.02c0.05,0.38-0.02,0.78-0.18,1.16c-0.32,0.77-0.88,1.43-1.4,1.95
	c-0.52,0.52-1.02,0.92-1.38,1.19c-0.36,0.27-0.57,0.41-0.57,0.41s0.24-0.11,0.64-0.33c0.4-0.22,0.96-0.55,1.59-1.01
	c0.62-0.47,1.33-1.06,1.86-1.9c0.26-0.42,0.46-0.93,0.48-1.48C50.03,20.05,49.84,19.47,49.52,18.99z"/>
<path class="st1" d="M26.44,46.05c0.38-0.6,0.72-1.24,0.99-1.96c0.45-1.19,0.7-2.47,0.76-3.86h-2.74c-0.07,1.38-0.36,2.61-0.87,3.7
	c-0.04,0.08-0.09,0.13-0.12,0.21l-2.69-2.65c0.35-0.2,0.68-0.41,0.96-0.63c0.63-0.48,1.1-1,1.4-1.55c0.31-0.55,0.46-1.14,0.46-1.79
	c0-1.07-0.37-1.92-1.12-2.57C22.73,34.32,21.73,34,20.49,34c-0.89,0-1.68,0.16-2.36,0.48c-0.68,0.32-1.21,0.77-1.59,1.34
	s-0.57,1.24-0.57,2.02c0,0.39,0.06,0.79,0.19,1.17c0.13,0.39,0.32,0.78,0.59,1.17c0.21,0.31,0.47,0.62,0.77,0.93
	c-0.87,0.49-1.56,1.02-2.05,1.57c-0.72,0.82-1.08,1.79-1.08,2.9c0,0.88,0.23,1.64,0.7,2.29c0.47,0.65,1.12,1.16,1.95,1.53
	c0.83,0.37,1.81,0.55,2.92,0.55c1.11,0,2.15-0.24,3.12-0.72c0.56-0.28,1.07-0.64,1.55-1.05c0.41,0.35,0.82,0.67,1.27,0.93
	c0.62,0.36,1.33,0.66,2.12,0.89l1.6-2.28c-0.72-0.19-1.38-0.45-1.98-0.79C27.22,46.69,26.82,46.39,26.44,46.05z M19.37,36.64
	c0.29-0.28,0.68-0.43,1.16-0.43c0.42,0,0.77,0.13,1.03,0.38c0.26,0.26,0.4,0.61,0.4,1.06c0,0.32-0.1,0.63-0.3,0.92
	c-0.2,0.29-0.52,0.59-0.98,0.88c-0.17,0.11-0.39,0.23-0.6,0.35c-0.2-0.21-0.37-0.4-0.51-0.56c-0.24-0.29-0.41-0.54-0.5-0.77
	c-0.1-0.23-0.14-0.46-0.14-0.69C18.93,37.31,19.07,36.93,19.37,36.64z M20.05,47.43c-0.73,0-1.32-0.18-1.77-0.55
	c-0.45-0.37-0.67-0.87-0.67-1.51c0-0.44,0.09-0.84,0.28-1.22c0.19-0.37,0.49-0.72,0.89-1.03c0.12-0.1,0.28-0.19,0.42-0.28l3.56,3.54
	c-0.04,0.04-0.07,0.09-0.12,0.12C21.86,47.12,21,47.43,20.05,47.43z"/>
<polygon class="st1" points="44.99,34.09 35.81,49.91 39.05,49.91 48.23,34.09 "/>
<path class="st1" d="M39.03,42.44c0.68-0.81,1.02-2.02,1.02-3.62c0-1.59-0.34-2.79-1.02-3.6c-0.68-0.81-1.62-1.22-2.8-1.22
	c-1.19,0-2.12,0.4-2.81,1.21c-0.69,0.81-1.03,2-1.03,3.59c0,1.62,0.34,2.83,1.03,3.64c0.69,0.82,1.63,1.22,2.81,1.22
	C37.42,43.67,38.35,43.26,39.03,42.44z M35.43,40.93c-0.18-0.41-0.27-1.12-0.27-2.11c0-0.98,0.09-1.67,0.27-2.09
	c0.18-0.41,0.44-0.62,0.8-0.62c0.34,0,0.6,0.21,0.78,0.62c0.18,0.42,0.27,1.11,0.27,2.09c0,0.99-0.08,1.7-0.26,2.11
	c-0.17,0.42-0.43,0.62-0.79,0.62C35.88,41.56,35.61,41.35,35.43,40.93z"/>
<path class="st1" d="M50.59,41.56c-0.68-0.81-1.62-1.22-2.8-1.22c-1.18,0-2.12,0.4-2.81,1.21c-0.69,0.81-1.03,2-1.03,3.59
	c0,1.62,0.34,2.83,1.03,3.65C45.67,49.59,46.6,50,47.79,50c1.19,0,2.12-0.41,2.8-1.22c0.68-0.81,1.02-2.02,1.02-3.62
	C51.61,43.57,51.27,42.37,50.59,41.56z M48.58,47.27c-0.17,0.42-0.43,0.62-0.79,0.62c-0.35,0-0.62-0.21-0.8-0.62
	c-0.18-0.41-0.27-1.12-0.27-2.11c0-0.98,0.09-1.67,0.27-2.09c0.18-0.42,0.44-0.62,0.8-0.62c0.34,0,0.6,0.21,0.78,0.62
	c0.18,0.41,0.27,1.11,0.27,2.09C48.83,46.15,48.75,46.85,48.58,47.27z"/>
</svg>
