<?xml version="1.0" encoding="utf-8"?>
<!-- Generator: Adobe Illustrator 15.0.0, SVG Export Plug-In . SVG Version: 6.00 Build 0)  -->
<!DOCTYPE svg PUBLIC "-//W3C//DTD SVG 1.1//EN" "http://www.w3.org/Graphics/SVG/1.1/DTD/svg11.dtd" [
	<!ENTITY ns_flows "http://ns.adobe.com/Flows/1.0/">
	<!ENTITY ns_extend "http://ns.adobe.com/Extensibility/1.0/">
	<!ENTITY ns_ai "http://ns.adobe.com/AdobeIllustrator/10.0/">
	<!ENTITY ns_graphs "http://ns.adobe.com/Graphs/1.0/">
]>
<svg version="1.1" id="Layer_1" xmlns:x="&ns_extend;" xmlns:i="&ns_ai;" xmlns:graph="&ns_graphs;"
	 xmlns="http://www.w3.org/2000/svg" xmlns:xlink="http://www.w3.org/1999/xlink" xmlns:a="http://ns.adobe.com/AdobeSVGViewerExtensions/3.0/"
	 x="0px" y="0px" width="64px" height="64px" viewBox="0 0 64 64" enable-background="new 0 0 64 64" xml:space="preserve">
<ellipse fill="#CFD8DD" cx="32" cy="32" rx="32" ry="17"/>
<linearGradient id="SVGID_1_" gradientUnits="userSpaceOnUse" x1="32.0005" y1="46.873" x2="32.0005" y2="20.585">
	<stop  offset="0" style="stop-color:#1A1626"/>
	<stop  offset="0.5368" style="stop-color:#292534"/>
	<stop  offset="1" style="stop-color:#302C3B"/>
	<a:midPointStop  offset="0" style="stop-color:#1A1626"/>
	<a:midPointStop  offset="0.3758" style="stop-color:#1A1626"/>
	<a:midPointStop  offset="1" style="stop-color:#302C3B"/>
</linearGradient>
<path fill="url(#SVGID_1_)" d="M62.934,31.289c0,8.606-13.849,15.584-30.934,15.584c-17.083,0-30.933-6.978-30.933-15.584
	C1.067,17.017,62.934,17.017,62.934,31.289z"/>
<linearGradient id="SVGID_2_" gradientUnits="userSpaceOnUse" x1="0.9961" y1="25.5522" x2="63.002" y2="25.5522">
	<stop  offset="0" style="stop-color:#717B80"/>
	<stop  offset="0.229" style="stop-color:#889499"/>
	<stop  offset="0.5213" style="stop-color:#A0ADB2"/>
	<stop  offset="0.7869" style="stop-color:#AEBDC1"/>
	<stop  offset="1" style="stop-color:#B3C2C6"/>
	<a:midPointStop  offset="0" style="stop-color:#717B80"/>
	<a:midPointStop  offset="0.3394" style="stop-color:#717B80"/>
	<a:midPointStop  offset="1" style="stop-color:#B3C2C6"/>
</linearGradient>
<path fill="url(#SVGID_2_)" d="M32,15.472c-17.083,0-31.004,7.263-31.004,15.929c0,1.468,0.475,2.884,1.219,4.232
	C5.856,29.021,17.807,24.171,32,24.171c14.191,0,26.144,4.85,29.785,11.462c0.742-1.349,1.217-2.765,1.217-4.232
	C63.002,22.734,49.085,15.472,32,15.472z"/>
</svg>
