<?xml version="1.0" encoding="utf-8"?>
<!-- Generator: Adobe Illustrator 15.0.0, SVG Export Plug-In . SVG Version: 6.00 Build 0)  -->
<!DOCTYPE svg PUBLIC "-//W3C//DTD SVG 1.1//EN" "http://www.w3.org/Graphics/SVG/1.1/DTD/svg11.dtd" [
	<!ENTITY ns_flows "http://ns.adobe.com/Flows/1.0/">
	<!ENTITY ns_extend "http://ns.adobe.com/Extensibility/1.0/">
	<!ENTITY ns_ai "http://ns.adobe.com/AdobeIllustrator/10.0/">
	<!ENTITY ns_graphs "http://ns.adobe.com/Graphs/1.0/">
]>
<svg version="1.1" id="Layer_1" xmlns:x="&ns_extend;" xmlns:i="&ns_ai;" xmlns:graph="&ns_graphs;"
	 xmlns="http://www.w3.org/2000/svg" xmlns:xlink="http://www.w3.org/1999/xlink" xmlns:a="http://ns.adobe.com/AdobeSVGViewerExtensions/3.0/"
	 x="0px" y="0px" width="64px" height="64px" viewBox="0 0 64 64" enable-background="new 0 0 64 64" xml:space="preserve">
<radialGradient id="SVGID_1_" cx="32" cy="32" r="32" gradientUnits="userSpaceOnUse">
	<stop  offset="0" style="stop-color:#CFD8DD"/>
	<stop  offset="0.4253" style="stop-color:#BBC6CB"/>
	<stop  offset="1" style="stop-color:#99A8AE"/>
	<a:midPointStop  offset="0" style="stop-color:#CFD8DD"/>
	<a:midPointStop  offset="0.5455" style="stop-color:#CFD8DD"/>
	<a:midPointStop  offset="1" style="stop-color:#99A8AE"/>
</radialGradient>
<path fill="url(#SVGID_1_)" d="M64,32.667v-1.333h-4.957c-1.058-1.329-6.596-8.706-7.448-17.985l3.504-3.504L54.155,8.9
	l-3.508,3.508c-1.757-0.202-10.846-1.513-17.98-7.447V0h-1.334v4.957c-1.332,1.059-8.707,6.595-17.984,7.448L9.845,8.9L8.901,9.845
	l3.507,3.507c-0.202,1.758-1.513,10.846-7.448,17.982H0v1.333h4.958c1.061,1.335,6.596,8.71,7.447,17.982l-3.504,3.505l0.943,0.944
	l3.508-3.507c1.76,0.204,10.856,1.521,17.98,7.446V64h1.334v-4.958c1.332-1.059,8.708-6.596,17.984-7.448l3.504,3.505l0.943-0.944
	l-3.507-3.507c0.203-1.76,1.521-10.857,7.445-17.98H64z M57.359,31.334h-7.021c-0.885-1.146-4.676-6.364-4.913-11.815l4.967-4.967
	C51.426,22.546,55.546,28.881,57.359,31.334z M32.667,30.39v-6.442c1.562,1.104,3.385,1.604,4.615,1.826L32.667,30.39z
	 M38.163,26.78c0.324,1.883,1.262,3.526,1.975,4.554H33.61L38.163,26.78z M31.333,30.39l-4.552-4.553
	c1.884-0.324,3.525-1.266,4.552-1.978V30.39z M30.39,31.334h-6.44c1.104-1.563,1.603-3.387,1.825-4.616L30.39,31.334z M30.39,32.667
	l-4.555,4.554c-0.322-1.886-1.26-3.526-1.973-4.554H30.39z M31.333,33.61v6.439c-1.562-1.102-3.385-1.602-4.615-1.824L31.333,33.61z
	 M32.667,33.61l4.551,4.551c-1.885,0.324-3.524,1.264-4.551,1.977V33.61z M33.61,32.667h6.439c-1.104,1.561-1.602,3.385-1.824,4.614
	L33.61,32.667z M41.807,31.334c-0.584-0.717-2.382-3.142-2.42-5.777l4.803-4.803c0.567,4.565,3.138,8.688,4.486,10.58H41.807z
	 M38.462,24.595c-0.919-0.094-3.903-0.539-5.795-2.377v-6.79c3.629,2.826,8.361,3.923,10.654,4.308L38.462,24.595z M31.333,22.193
	c-0.713,0.586-3.134,2.392-5.774,2.421l-4.805-4.804c4.565-0.568,8.688-3.139,10.579-4.489V22.193z M24.596,25.539
	c-0.093,0.917-0.531,3.895-2.376,5.795h-6.793c2.828-3.63,3.926-8.362,4.309-10.655L24.596,25.539z M22.194,32.667
	c0.584,0.717,2.379,3.137,2.418,5.777l-4.802,4.802c-0.566-4.567-3.137-8.688-4.487-10.579H22.194z M25.54,39.404
	c0.916,0.092,3.895,0.531,5.793,2.375v6.792c-3.629-2.828-8.36-3.924-10.654-4.307L25.54,39.404z M32.667,41.804
	c0.715-0.58,3.137-2.381,5.771-2.422l4.808,4.808c-4.564,0.567-8.687,3.138-10.579,4.487V41.804z M39.405,38.46
	c0.094-0.918,0.536-3.901,2.375-5.793h6.789c-2.825,3.627-3.923,8.357-4.307,10.652L39.405,38.46z M49.459,13.597l-4.963,4.964
	c-1.438-0.184-7.81-1.193-11.829-4.88V6.655C39.05,11.577,46.442,13.146,49.459,13.597z M31.333,6.641v7.02
	c-1.146,0.885-6.373,4.679-11.814,4.915l-4.967-4.967C22.546,12.572,28.881,8.454,31.333,6.641z M13.597,14.54l4.964,4.964
	c-0.184,1.438-1.191,7.81-4.88,11.83H6.654C11.577,24.95,13.145,17.557,13.597,14.54z M6.641,32.667h7.02
	c0.886,1.144,4.68,6.362,4.915,11.814l-4.967,4.967C12.574,41.456,8.455,35.121,6.641,32.667z M14.542,50.402l4.962-4.963
	c1.436,0.184,7.809,1.19,11.829,4.878v7.026C24.951,52.423,17.56,50.854,14.542,50.402z M32.667,57.358v-7.021
	c1.145-0.883,6.365-4.676,11.814-4.912l4.967,4.967C41.456,51.425,35.12,55.544,32.667,57.358z M50.402,49.458l-4.965-4.965
	c0.185-1.441,1.193-7.81,4.879-11.826h7.026C52.422,39.048,50.854,46.439,50.402,49.458z"/>
</svg>
