<?xml version="1.0" encoding="utf-8"?>
<!-- Generator: Adobe Illustrator 15.0.0, SVG Export Plug-In . SVG Version: 6.00 Build 0)  -->
<!DOCTYPE svg PUBLIC "-//W3C//DTD SVG 1.1//EN" "http://www.w3.org/Graphics/SVG/1.1/DTD/svg11.dtd" [
	<!ENTITY ns_flows "http://ns.adobe.com/Flows/1.0/">
	<!ENTITY ns_extend "http://ns.adobe.com/Extensibility/1.0/">
	<!ENTITY ns_ai "http://ns.adobe.com/AdobeIllustrator/10.0/">
	<!ENTITY ns_graphs "http://ns.adobe.com/Graphs/1.0/">
]>
<svg version="1.1" id="Layer_1" xmlns:x="&ns_extend;" xmlns:i="&ns_ai;" xmlns:graph="&ns_graphs;"
	 xmlns="http://www.w3.org/2000/svg" xmlns:xlink="http://www.w3.org/1999/xlink" xmlns:a="http://ns.adobe.com/AdobeSVGViewerExtensions/3.0/"
	 x="0px" y="0px" width="64px" height="64px" viewBox="0 0 64 64" enable-background="new 0 0 64 64" xml:space="preserve">
<linearGradient id="SVGID_1_" gradientUnits="userSpaceOnUse" x1="25.2007" y1="61.7383" x2="25.2007" y2="2.5567">
	<stop  offset="0" style="stop-color:#008FE3"/>
	<stop  offset="1" style="stop-color:#2BB0FF"/>
	<a:midPointStop  offset="0" style="stop-color:#008FE3"/>
	<a:midPointStop  offset="0.5" style="stop-color:#008FE3"/>
	<a:midPointStop  offset="1" style="stop-color:#2BB0FF"/>
</linearGradient>
<path fill="url(#SVGID_1_)" d="M42.913,20.455c-0.666-0.65,1.344-2.447-0.072-4.033c-1.938-2.152-2.24-5.906-3.41-8.002
	c0,0,0.896-1.344,0.217-2.096c-5.897-6.541-27.88-5.932-33.501,3.682C-0.17,20.795-0.256,35.719,12.867,43.76
	C18.704,47.344,7.896,57,11.232,57c15.912,0,23.125,5,23.125,5c0-2.166-2.573-11.926,1.937-11.57
	c3.931,0.297,8.729,0.127,8.295-4.205c-0.115-1.316-0.274-2.492,0.665-3.582c0.925-1.076,2.284-3.016-1.72-4.248
	c-5.289-1.643-3.786-2.932,1.258-4.799c2.413-0.879,0.953-2.762,1.011-4.262c0.029-0.695,2.79-0.553,2.587-3.215
	C48.26,24.25,44.054,21.588,42.913,20.455z"/>
<linearGradient id="SVGID_2_" gradientUnits="userSpaceOnUse" x1="57.2813" y1="61.7383" x2="57.2812" y2="2.5563">
	<stop  offset="0" style="stop-color:#008FE3"/>
	<stop  offset="1" style="stop-color:#2BB0FF"/>
	<a:midPointStop  offset="0" style="stop-color:#008FE3"/>
	<a:midPointStop  offset="0.5" style="stop-color:#008FE3"/>
	<a:midPointStop  offset="1" style="stop-color:#2BB0FF"/>
</linearGradient>
<polygon fill="url(#SVGID_2_)" points="52.563,36.346 61.999,39.648 62,33.045 "/>
<linearGradient id="SVGID_3_" gradientUnits="userSpaceOnUse" x1="56.3838" y1="61.7383" x2="56.3838" y2="2.5563">
	<stop  offset="0" style="stop-color:#008FE3"/>
	<stop  offset="1" style="stop-color:#2BB0FF"/>
	<a:midPointStop  offset="0" style="stop-color:#008FE3"/>
	<a:midPointStop  offset="0.5" style="stop-color:#008FE3"/>
	<a:midPointStop  offset="1" style="stop-color:#2BB0FF"/>
</linearGradient>
<polygon fill="url(#SVGID_3_)" points="56.218,20.963 51.88,29.971 60.888,25.635 "/>
<linearGradient id="SVGID_4_" gradientUnits="userSpaceOnUse" x1="56.3838" y1="61.7383" x2="56.3838" y2="2.5563">
	<stop  offset="0" style="stop-color:#008FE3"/>
	<stop  offset="1" style="stop-color:#2BB0FF"/>
	<a:midPointStop  offset="0" style="stop-color:#008FE3"/>
	<a:midPointStop  offset="0.5" style="stop-color:#008FE3"/>
	<a:midPointStop  offset="1" style="stop-color:#2BB0FF"/>
</linearGradient>
<polygon fill="url(#SVGID_4_)" points="56.217,51.691 60.888,47.021 51.88,42.684 "/>
</svg>
