<?xml version="1.0" encoding="utf-8"?>
<!-- Generator: Adobe Illustrator 15.0.0, SVG Export Plug-In . SVG Version: 6.00 Build 0)  -->
<!DOCTYPE svg PUBLIC "-//W3C//DTD SVG 1.1//EN" "http://www.w3.org/Graphics/SVG/1.1/DTD/svg11.dtd" [
	<!ENTITY ns_flows "http://ns.adobe.com/Flows/1.0/">
	<!ENTITY ns_extend "http://ns.adobe.com/Extensibility/1.0/">
	<!ENTITY ns_ai "http://ns.adobe.com/AdobeIllustrator/10.0/">
	<!ENTITY ns_graphs "http://ns.adobe.com/Graphs/1.0/">
]>
<svg version="1.1" id="Layer_1" xmlns:x="&ns_extend;" xmlns:i="&ns_ai;" xmlns:graph="&ns_graphs;"
	 xmlns="http://www.w3.org/2000/svg" xmlns:xlink="http://www.w3.org/1999/xlink" xmlns:a="http://ns.adobe.com/AdobeSVGViewerExtensions/3.0/"
	 x="0px" y="0px" width="64px" height="64px" viewBox="0 0 64 64" enable-background="new 0 0 64 64" xml:space="preserve">
<path fill="#7AB51D" d="M12.242,48.941c-1.51,4.883-0.662,8.396,0.424,8.396C15.186,57.338,12.146,53.14,12.242,48.941z"/>
<path fill="#7AB51D" d="M13.937,48.393c-1.51,4.883-0.662,8.396,0.424,8.396C16.881,56.789,13.841,52.591,13.937,48.393z"/>
<path fill="#7AB51D" d="M15.793,47.747c-1.51,4.882-0.662,8.396,0.424,8.396C18.738,56.143,15.699,51.945,15.793,47.747z"/>
<path fill="#7AB51D" d="M17.65,48.49c-1.51,4.882-0.662,8.396,0.424,8.396C20.594,56.886,17.555,52.688,17.65,48.49z"/>
<path fill="#7AB51D" d="M1.591,53.666c-1.092,3.53-0.479,6.069,0.307,6.069C3.718,59.735,1.523,56.702,1.591,53.666z"/>
<path fill="#7AB51D" d="M2.746,52.591c-1.092,3.529-0.479,6.07,0.307,6.07C4.873,58.661,2.677,55.626,2.746,52.591z"/>
<path fill="#7AB51D" d="M4.208,51.386c-1.31,4.23-0.575,7.275,0.368,7.275C6.76,58.661,4.126,55.022,4.208,51.386z"/>
<path fill="#7AB51D" d="M5.629,50.653c-1.31,4.232-0.575,7.275,0.367,7.275C8.181,57.929,5.547,54.292,5.629,50.653z"/>
<path fill="#7AB51D" d="M7.05,50.266c-1.31,4.232-0.575,7.275,0.367,7.275C9.601,57.541,6.968,53.904,7.05,50.266z"/>
<path fill="#7AB51D" d="M8.669,49.147c-1.512,4.882-0.664,8.394,0.424,8.394C11.612,57.541,8.572,53.344,8.669,49.147z"/>
<path fill="#7AB51D" d="M10.643,49.813c-1.51,4.882-0.662,8.396,0.424,8.396C13.587,58.209,10.548,54.012,10.643,49.813z"/>
<path fill="#7AB51D" d="M51.758,48.941c1.512,4.883,0.664,8.396-0.424,8.396C48.815,57.338,51.855,53.14,51.758,48.941z"/>
<path fill="#7AB51D" d="M50.063,48.393c1.512,4.883,0.664,8.396-0.424,8.396C47.12,56.789,50.16,52.591,50.063,48.393z"/>
<path fill="#7AB51D" d="M48.206,47.747c1.512,4.882,0.664,8.396-0.424,8.396C45.264,56.143,48.303,51.945,48.206,47.747z"/>
<path fill="#7AB51D" d="M46.35,48.49c1.512,4.882,0.664,8.396-0.424,8.396C43.407,56.886,46.446,52.688,46.35,48.49z"/>
<path fill="#7AB51D" d="M62.41,53.666c1.092,3.53,0.479,6.069-0.307,6.069C60.281,59.735,62.479,56.702,62.41,53.666z"/>
<path fill="#7AB51D" d="M61.256,52.591c1.092,3.529,0.479,6.07-0.307,6.07C59.127,58.661,61.324,55.626,61.256,52.591z"/>
<path fill="#7AB51D" d="M59.793,51.386c1.308,4.23,0.572,7.275-0.368,7.275C57.241,58.661,59.875,55.022,59.793,51.386z"/>
<path fill="#7AB51D" d="M58.372,50.653c1.308,4.232,0.573,7.275-0.367,7.275C55.82,57.929,58.454,54.292,58.372,50.653z"/>
<path fill="#7AB51D" d="M56.951,50.266c1.308,4.232,0.573,7.275-0.367,7.275C54.4,57.541,57.033,53.904,56.951,50.266z"/>
<path fill="#7AB51D" d="M55.332,49.147c1.51,4.882,0.662,8.394-0.424,8.394C52.388,57.541,55.427,53.344,55.332,49.147z"/>
<path fill="#7AB51D" d="M53.356,49.813c1.512,4.882,0.664,8.396-0.424,8.396C50.414,58.209,53.453,54.012,53.356,49.813z"/>
<ellipse fill="#7AB51D" cx="31.999" cy="58.833" rx="31" ry="5.167"/>
<linearGradient id="SVGID_1_" gradientUnits="userSpaceOnUse" x1="15.4663" y1="49.6797" x2="48.5332" y2="49.6797">
	<stop  offset="0.2848" style="stop-color:#947558"/>
	<stop  offset="0.5019" style="stop-color:#917255"/>
	<stop  offset="0.6863" style="stop-color:#896A4A"/>
	<stop  offset="0.8581" style="stop-color:#7B5C39"/>
	<stop  offset="1" style="stop-color:#6B4C24"/>
	<a:midPointStop  offset="0.2848" style="stop-color:#947558"/>
	<a:midPointStop  offset="0.7394" style="stop-color:#947558"/>
	<a:midPointStop  offset="1" style="stop-color:#6B4C24"/>
</linearGradient>
<path fill="url(#SVGID_1_)" d="M39.5,37.438c3.792,8.704,9.033,7.614,9.033,18.004c0,4.363-30.817,9.566-33.067,4.218
	C21.731,47.77,34.399,37.03,39.5,37.438z"/>
<linearGradient id="SVGID_2_" gradientUnits="userSpaceOnUse" x1="15.998" y1="23.5264" x2="44.5957" y2="23.5264">
	<stop  offset="0.2848" style="stop-color:#947558"/>
	<stop  offset="0.5019" style="stop-color:#917255"/>
	<stop  offset="0.6863" style="stop-color:#896A4A"/>
	<stop  offset="0.8581" style="stop-color:#7B5C39"/>
	<stop  offset="1" style="stop-color:#6B4C24"/>
	<a:midPointStop  offset="0.2848" style="stop-color:#947558"/>
	<a:midPointStop  offset="0.7394" style="stop-color:#947558"/>
	<a:midPointStop  offset="1" style="stop-color:#6B4C24"/>
</linearGradient>
<path fill="url(#SVGID_2_)" d="M16.165,42.373c-0.351,0.93-0.133,2.184,0.511,2.356c4.609,1.247,20.744-1.079,23.886-7.639
	C42.66,25.949,47.79,6.185,41.75,2.447c-2.511-1.552-11.599,1.314-13.904,2.858c-1.861,1.247-3.703,4.189-5.169,6.396
	c0.522,1.096,1.173,3.12,0.652,5.362c-6.253,7.601-2.7,10.004-5.353,14.45C17.428,33.686,18.687,35.646,16.165,42.373z"/>
<path fill="#45332C" d="M16.675,44.729c6.339,1.097,20.818-3.056,23.886-7.639c-3.74,6.234-13.664,8.346-25.095,22.569
	c1.088-5.705,4.688-11.283,4.688-11.283s-0.412-2.813-0.896-3.231C19.258,45.146,17.688,45.14,16.675,44.729z"/>
<path fill="#45332C" d="M23.33,17.063c0,0-1.459-2.342-0.652-5.362c1.582-2.475,9.778-3.988,11.841-3.423
	c3.71,1.015,5.54,4.301,5.54,4.301S29.854,14.125,23.33,17.063z"/>
<path fill="#6E5335" d="M39.78,30.066c0.091,1.173,2.396,1.544,3.792-0.25c1.393-1.792,2.341-18.937,1.025-25.258
	c-0.333-1.591-2.698-1.818-2.687-1.421C42.442,18.278,39.667,28.622,39.78,30.066z"/>
<linearGradient id="SVGID_3_" gradientUnits="userSpaceOnUse" x1="17.5845" y1="18.6299" x2="33.2227" y2="18.6299">
	<stop  offset="0.2848" style="stop-color:#947558"/>
	<stop  offset="0.5019" style="stop-color:#917255"/>
	<stop  offset="0.6863" style="stop-color:#896A4A"/>
	<stop  offset="0.8581" style="stop-color:#7B5C39"/>
	<stop  offset="1" style="stop-color:#6B4C24"/>
	<a:midPointStop  offset="0.2848" style="stop-color:#947558"/>
	<a:midPointStop  offset="0.7394" style="stop-color:#947558"/>
	<a:midPointStop  offset="1" style="stop-color:#6B4C24"/>
</linearGradient>
<path fill="url(#SVGID_3_)" d="M17.585,24.734c0.113-1.294,8.055-7.302,9.114-13.854c0.242-1.5,6.445-0.567,6.523,3.049
	c-4.289,6.547-4.763,7.494-3.342,11.555C31.035,28.774,17.466,26.137,17.585,24.734z"/>
<path fill="#6E5335" d="M17.585,24.734c0.113-1.294,6.079-2.293,12.295,0.749c1.154,3.291-7.023,3.088-9.445,3.597
	C18.919,29.4,17.466,26.137,17.585,24.734z"/>
<path fill="#45332C" d="M21.674,24.934c0.67,1.312,3.217,3.239,3.217,3.239s3.401-0.271,3.364-1.165
	C28.189,25.42,20.936,23.487,21.674,24.934z"/>
<path fill="#45332C" d="M27.755,32.043c0,0-5.146-1.507-9.778-0.53c-1.19,1.815-0.436,3.152-0.42,3.626
	c0.061,1.841-0.678,4.708-1.393,7.233c2.276-2.709,1.716-5.07,2.846-6.624c1.106-1.52,5.978-1.564,4.547-2.55
	c-0.85-0.588-4.884-0.742-5.748-0.07C17.875,31.295,27.755,32.043,27.755,32.043z"/>
<path fill="#45332C" d="M20.306,28.758c-0.129-1.021-1.673-3.098-2.592-3.854C18.772,26.718,18.11,28.448,20.306,28.758z"/>
<path fill="#7AB51D" d="M45.145,53.971c1.092,3.53,0.479,6.069-0.307,6.069C43.018,60.04,45.213,57.007,45.145,53.971z"/>
<path fill="#7AB51D" d="M43.794,54.302c1.092,3.53,0.479,6.071-0.307,6.071C41.665,60.373,43.863,57.338,43.794,54.302z"/>
<path fill="#7AB51D" d="M32.588,56.466c1.092,3.529,0.479,6.07-0.307,6.07C30.459,62.536,32.658,59.501,32.588,56.466z"/>
<path fill="#7AB51D" d="M24.484,57.005c1.092,3.529,0.479,6.07-0.307,6.07C22.355,63.075,24.552,60.04,24.484,57.005z"/>
<path fill="#7AB51D" d="M18.546,56.625c-1.092,3.53-0.479,6.07,0.307,6.07C20.673,62.695,18.478,59.66,18.546,56.625z"/>
<path fill="#7AB51D" d="M29.655,57.338c-1.093,3.529-0.479,6.07,0.307,6.07C31.782,63.408,29.585,60.373,29.655,57.338z"/>
<path fill="#7AB51D" d="M47.37,52.591c-1.092,3.529-0.478,6.07,0.308,6.07C49.5,58.661,47.302,55.626,47.37,52.591z"/>
<path fill="#7AB51D" d="M40.505,54.012c1.308,4.23,0.573,7.275-0.367,7.275C37.953,61.287,40.588,57.648,40.505,54.012z"/>
<path fill="#7AB51D" d="M34.232,54.778c1.512,4.882,0.664,8.396-0.424,8.396C31.289,63.174,34.329,58.977,34.232,54.778z"/>
</svg>
