<?xml version="1.0" encoding="utf-8"?>
<!-- Generator: Adobe Illustrator 24.1.2, SVG Export Plug-In . SVG Version: 6.00 Build 0)  -->
<svg version="1.1" id="Layer_1" xmlns="http://www.w3.org/2000/svg" xmlns:xlink="http://www.w3.org/1999/xlink" x="0px" y="0px"
	 width="64px" height="64px" viewBox="0 0 64 64" style="enable-background:new 0 0 64 64;" xml:space="preserve">
<style type="text/css">
	.st0{fill:url(#SVGID_1_);}
	.st1{fill:url(#SVGID_2_);}
	.st2{fill:#4E5E67;}
	.st3{fill:url(#SVGID_3_);}
	.st4{fill:url(#SVGID_4_);}
	.st5{opacity:0.1;fill:#1A1626;}
	.st6{fill:#302C3B;}
</style>
<linearGradient id="SVGID_1_" gradientUnits="userSpaceOnUse" x1="45.3426" y1="64" x2="45.3426" y2="23.1563">
	<stop  offset="0" style="stop-color:#ABBDC5"/>
	<stop  offset="0.542" style="stop-color:#ADBFC7"/>
	<stop  offset="0.7858" style="stop-color:#B3C6CE"/>
	<stop  offset="0.9695" style="stop-color:#BED2DB"/>
	<stop  offset="1" style="stop-color:#C1D5DE"/>
</linearGradient>
<path class="st0" d="M31.9,36.86c-2.73,3.98,0,27.14,0,27.14c2.08,0,25.53-13.73,26.28-14.48c0.91-0.9,2.55-25.28,1.45-26.37
	C59.63,23.16,35.88,31.07,31.9,36.86z"/>
<linearGradient id="SVGID_2_" gradientUnits="userSpaceOnUse" x1="31.8995" y1="36.8645" x2="31.8995" y2="9.4459">
	<stop  offset="0" style="stop-color:#ABBDC5"/>
	<stop  offset="0.2333" style="stop-color:#A4B6BE"/>
	<stop  offset="0.5847" style="stop-color:#8FA1A9"/>
	<stop  offset="1" style="stop-color:#6E8189"/>
</linearGradient>
<path class="st1" d="M31.9,9.45c0,0-26.34,12.32-27.74,13.7c0,0,8.89,12.5,27.74,13.72l27.73-13.71C57.86,21.4,31.9,9.45,31.9,9.45z
	"/>
<polygon class="st2" points="42.14,28.23 20.23,17.37 19.03,18 40.65,28.94 "/>
<linearGradient id="SVGID_3_" gradientUnits="userSpaceOnUse" x1="28.9496" y1="22.9069" x2="40.1141" y2="3.5693">
	<stop  offset="0" style="stop-color:#F7B91D"/>
	<stop  offset="8.690787e-03" style="stop-color:#F7BB1D"/>
	<stop  offset="0.0957" style="stop-color:#F7CF1D"/>
	<stop  offset="0.1959" style="stop-color:#F8DD1C"/>
	<stop  offset="0.3208" style="stop-color:#F8E51C"/>
	<stop  offset="0.5455" style="stop-color:#F8E71C"/>
</linearGradient>
<path class="st3" d="M31.43,0C19.39,9.02,21.11,18.38,21.11,18.38l18.64,9.34c0,0-0.42-9.66,10.65-18.22L31.43,0z"/>
<linearGradient id="SVGID_4_" gradientUnits="userSpaceOnUse" x1="8.6442" y1="52.9607" x2="28.3204" y2="33.2844">
	<stop  offset="0" style="stop-color:#6E8189"/>
	<stop  offset="0.4153" style="stop-color:#8FA1A9"/>
	<stop  offset="0.7667" style="stop-color:#A4B6BE"/>
	<stop  offset="1" style="stop-color:#ABBDC5"/>
</linearGradient>
<path class="st4" d="M4.17,23.14c-0.7,0.69,1.01,26.35,1.65,26.99C6.27,50.58,29.35,64,31.9,64V36.86L4.17,23.14z"/>
<polygon class="st5" points="31.9,42.2 4.08,28.47 4.08,28.94 31.9,42.66 59.99,28.41 59.99,27.94 "/>
<path class="st6" d="M27.68,14c1.43,3.16,3.22,6.07,3.67,5.37c2.67-4.2,5.37-7.57,9.82-12.49c0.56-0.62-4.17,1.8-9.99,9.27
	c-0.43-0.84-0.89-2.41-0.9-2.73C30.24,12.92,27.47,13.55,27.68,14z"/>
</svg>
