<?xml version="1.0" encoding="utf-8"?>
<!-- Generator: Adobe Illustrator 15.0.0, SVG Export Plug-In . SVG Version: 6.00 Build 0)  -->
<!DOCTYPE svg PUBLIC "-//W3C//DTD SVG 1.1//EN" "http://www.w3.org/Graphics/SVG/1.1/DTD/svg11.dtd" [
	<!ENTITY ns_flows "http://ns.adobe.com/Flows/1.0/">
	<!ENTITY ns_extend "http://ns.adobe.com/Extensibility/1.0/">
	<!ENTITY ns_ai "http://ns.adobe.com/AdobeIllustrator/10.0/">
	<!ENTITY ns_graphs "http://ns.adobe.com/Graphs/1.0/">
]>
<svg version="1.1" id="Layer_1" xmlns:x="&ns_extend;" xmlns:i="&ns_ai;" xmlns:graph="&ns_graphs;"
	 xmlns="http://www.w3.org/2000/svg" xmlns:xlink="http://www.w3.org/1999/xlink" xmlns:a="http://ns.adobe.com/AdobeSVGViewerExtensions/3.0/"
	 x="0px" y="0px" width="64px" height="64px" viewBox="0 0 64 64" enable-background="new 0 0 64 64" xml:space="preserve">
<path fill="#428210" d="M57.877,4.725c-1.578,0-2.869,2.641-2.869,3.131c0,0.214,0.071,0.525,0.393,0.525
	c0.646,0,0.737-1.265,1.418-2.231c0.51-0.724,1.472-0.457,1.472-1.129C58.29,4.899,58.148,4.722,57.877,4.725z"/>
<path fill="#428210" d="M59.602,3.672c0,0.331,0.222,0.587,0.464,0.587c0.53,0,0.94-1.839,2.287-2.704
	C63.471,0.835,64,0.636,64,0.139C64-0.707,59.602,2.529,59.602,3.672z"/>
<path fill="#428210" d="M7.397,54.373c1.271-0.522,0.983-1.661-0.001-1.265c-1.107,0.446-1.906,0.078-1.841-1.146
	c0.069-1.293-2.709,1.151-4.232,1.311c-2.244,0.235-0.927,1.086-1.047,1.538c-0.926,3.539,2.739,1.006,2.84,2.433
	c0.129,1.863-1.254,1.719-1.254,3.032c0,0.549,0.504,1.045,0.504,1.354c0,0.304-1.371,1.238-0.363,1.333
	c1.1,0.107,1.67,0.905,1.402-0.063c-0.211-0.415-0.42-0.761,0-0.847c1.052-0.22,0.12,1.932,0.36,1.944
	c1.633,0.086,0.979-1.888,1.633-1.608c0.949,0.406,1.398,0.339,1.398-0.513c0-1.129,0.506-2.862,1.39-4.132
	c0.598-0.86,1.085-1.982,0.376-2.813C8.272,54.476,7.062,54.833,7.397,54.373z"/>
<path fill="#428210" d="M16.548,50.418c-1.098,0-1.264,1.553-2.362,1.553c-0.334,0-1.308,0.135-1.572-0.121
	c-1.099-1.067-3.539,2.04-2.066,2.699c0.633,0.284,0.367,1.43,0.367,1.934c0,1.065,1.688,0.993,2.133-0.095
	c0.417-1.019,1.061-2.508,2.182-2.508c1.123,0,1.521,1.159,2.11,1.062c0.344-0.058,0.31-1.175,1.075-1.739
	c0.396-0.29,0.873-0.725,0.744-1.408C19.009,50.993,18.034,50.418,16.548,50.418z"/>
<path fill="#428210" d="M32.693,35.233c0.827,0,0.78-2.131,0.393-2.131C32.337,33.103,31.86,35.233,32.693,35.233z"/>
<path fill="#428210" d="M43.422,21.382c0.533-2.633-2.597-2.991-2.083-0.967c0.5,1.967-1.629-0.641-2.138-0.25
	c-0.215,0.168-0.134,0.538-0.144,1.196c-0.011,0.854-1.166,0.661-1.369,1.599c-0.087,0.406,0.725,0.896,0.725,1.356
	c0,0.456-1.186,0.847-1.186,1.329c0,0.666,1.567,0.488,1.101,2.132c-2.013,7.066-4.32,9.465-6.585,10.354
	c-1.173,0.461-5.703-1.333-4.898,1.206c0.304,0.957-2.76,2.6-2.76,3.666c0,0.416,0.237,0.847,0.237,1.285
	c0,0.876-2.307,1.265-2.68,1.063c-0.665-0.354,0.425-1.879-1.113-1.016c-0.966,0.544-3.62,1.016-5.817,1.016
	c-1.097,0-1.615-1.384-3.813,1.273c-0.947,1.146-3.946,2.784-5.039,2.904c-1.52,0.167-0.777,2.257,0.323,2.257
	c1.099,0,1.429-0.921,2.545-0.185c1.318,0.871,0.998,0.168,1.414-0.776c0.772-1.75,0.619,0.495,1.616-0.056
	c2.544-1.409,4.268-0.21,4.972-1.264c0.894-1.338,3.01-1.344,2.549-0.44c-0.866,1.699,0.857,1.244,1.316,0.435
	c0.688-1.213,1.805-0.028,1.372,0.277c-1.734,1.224-0.755,1.156-1.016,1.672c-0.702,1.385,0.214,0.888,0.625,1.854
	c0.711,1.678,1.851,1.048,2.355,0.345c1.198-1.652,3.149-2.476,3.245-3.231c0.115-0.936-0.981-0.695-0.998-1.561
	c-0.009-0.492,0.472-1.352,0.743-1.353c1.755-0.006-0.329,2.478,5.221,1.633c0.646-0.098,1.395-2.109,1.903-2.109
	c0.979,0,0.269,1.099,0.269,1.661c0,0.503,1.852,0.949,2.076-2.524c0.133-2.065,2.982-1.565,2.266-0.483
	c-0.945,1.43-1.049,2.008,0.002,2.008c0.319,0,1.698-0.698,1.732-1.587c0.049-1.255,0.995-1.847,1.182-2.403
	c0.321-0.958-1.184-1.905-0.312-3.433c0.617-1.077,1.244-1.838,1.244-2.901c0-1.066-0.703-1.892-0.703-3.351
	c0-1.159,2.201-0.298,2.201-2.891c0-1.23,1.333-2.684,1.333-3.989C45.336,24.013,43.071,23.114,43.422,21.382z"/>
<path fill="#428210" d="M56.099,9.562c-0.342,0-0.557,0.415-1.183,0.415c-0.89,0-0.97-0.956-0.969-1.678
	c0-0.245,0.659-2.578,0.319-2.578c-0.504,0-1.038,1.952-1.684,1.952c-0.641,0-5.223-1.837-6.4-4.205
	c-0.502-1.013-2.229-1.791-2.915-1.791c-1.647,0-0.557,2.664-0.557,4.793c0,2.178-1.109,0.801-1.109,4.795v0.003
	c0,1.264-1.056-0.536-2.188-0.536c-1.369,0-0.679,1.105-0.679,1.599c0,0.724-1.516,1.361-1.516,2.662
	c0,0.822,1.084,1.35,1.084,2.132c0,1.376-1.1,2.131,0,2.131c1.099,0,1.438-1.571,2.06-1.571c0.286,0,1.886,1.051,1.886,0.1
	c0-0.743-3.63-1.475-3.63-2.605c0-0.483,0.336-0.715,0.693-0.826c1.062-0.329,0.982,0.476,1.664,0.79
	c0.462,0.212,2.475-1.964,2.968-1.01c0.5,0.967,2.691,0.838,3.827,1.83c1.145,1.001,1.165,0.319,1.165-1.386
	c0-0.396,1.797-2.871,2.864-2.871C54.766,11.706,57.058,9.562,56.099,9.562z"/>
</svg>
