<?xml version="1.0" encoding="utf-8"?>
<!-- Generator: Adobe Illustrator 24.1.2, SVG Export Plug-In . SVG Version: 6.00 Build 0)  -->
<svg version="1.1" id="Layer_1" xmlns="http://www.w3.org/2000/svg" xmlns:xlink="http://www.w3.org/1999/xlink" x="0px" y="0px"
	 width="64px" height="64px" viewBox="0 0 64 64" style="enable-background:new 0 0 64 64;" xml:space="preserve">
<style type="text/css">
	.st0{fill:url(#SVGID_1_);}
	.st1{fill:#1A1626;}
	.st2{fill:#FD7383;}
	.st3{fill:url(#SVGID_2_);}
	.st4{fill:url(#SVGID_3_);}
	.st5{fill:url(#SVGID_4_);}
</style>
<linearGradient id="SVGID_1_" gradientUnits="userSpaceOnUse" x1="32" y1="62" x2="32" y2="2">
	<stop  offset="0" style="stop-color:#FF9500"/>
	<stop  offset="0.1919" style="stop-color:#FFAD00"/>
	<stop  offset="0.5455" style="stop-color:#FFD500"/>
	<stop  offset="0.8272" style="stop-color:#FFED00"/>
	<stop  offset="1" style="stop-color:#FFF600"/>
</linearGradient>
<circle class="st0" cx="32" cy="32" r="30"/>
<path class="st1" d="M47.24,36.33C43.6,35.65,38.47,35,32,35c-6.47,0-11.61,0.65-15.25,1.33c-1.84,0.34-2.84,1.87-2.75,3.41
	C14.45,47.49,20.4,54,32,54s17.55-6.51,17.99-14.27C50.08,38.19,49.08,36.67,47.24,36.33z"/>
<path class="st2" d="M23.47,50c0,0,3.79,2,8.53,2s8.53-2,8.53-2s-2.84-3-8.53-2C26.32,47,23.47,50,23.47,50z"/>
<linearGradient id="SVGID_2_" gradientUnits="userSpaceOnUse" x1="16.012" y1="39.4976" x2="47.9888" y2="39.4976">
	<stop  offset="0" style="stop-color:#CFD7E6"/>
	<stop  offset="0.0368" style="stop-color:#DAE0EC"/>
	<stop  offset="0.1263" style="stop-color:#EEF1F6"/>
	<stop  offset="0.2147" style="stop-color:#FBFCFD"/>
	<stop  offset="0.3" style="stop-color:#FFFFFF"/>
	<stop  offset="0.7" style="stop-color:#FFFFFF"/>
	<stop  offset="0.7853" style="stop-color:#FBFCFD"/>
	<stop  offset="0.8737" style="stop-color:#EEF1F6"/>
	<stop  offset="0.9632" style="stop-color:#DAE0EC"/>
	<stop  offset="1" style="stop-color:#CFD7E6"/>
</linearGradient>
<path class="st3" d="M46.51,38.24C44,37.79,38.69,37,32,37c-6.69,0-11.99,0.79-14.51,1.24c-1.57,0.28-1.6,0.97-1.39,2.28
	c0.18,1.15,0.3,1.45,1.52,1.47c1.12,0.02,14.38,0,14.38,0s13.26,0.02,14.38,0c1.21-0.02,1.34-0.32,1.52-1.47
	C48.11,39.21,48.07,38.53,46.51,38.24z"/>
<path class="st1" d="M15.74,29.1c4.27-5.52,7.26-5.52,11.53,0c0.65,0.83,1.97,0.21,1.7-0.6c-3.63-10.68-11.3-10.68-14.93,0
	C13.76,29.32,15.09,29.94,15.74,29.1z"/>
<path class="st1" d="M36.74,29.1c4.27-5.52,7.26-5.52,11.53,0c0.65,0.83,1.97,0.21,1.7-0.6c-3.63-10.68-11.3-10.68-14.93,0
	C34.76,29.32,36.09,29.94,36.74,29.1z"/>
<radialGradient id="SVGID_3_" cx="931.0059" cy="-138.6393" r="2.5777" fx="931.0063" fy="-136.7714" gradientTransform="matrix(3.154 0 0 4.4839 -2880.2834 635.3104)" gradientUnits="userSpaceOnUse">
	<stop  offset="0" style="stop-color:#73EFFF"/>
	<stop  offset="0.1871" style="stop-color:#6FECFF"/>
	<stop  offset="0.3641" style="stop-color:#64E3FF"/>
	<stop  offset="0.537" style="stop-color:#51D3FF"/>
	<stop  offset="0.7074" style="stop-color:#36BDFF"/>
	<stop  offset="0.8744" style="stop-color:#14A1FF"/>
	<stop  offset="0.9564" style="stop-color:#0091FF"/>
</radialGradient>
<path class="st4" d="M56.78,6.61c-0.44-1.27-1.12-1.28-1.56,0C53.92,10.36,50,15.44,50,19.84c0,3.21,2.69,5.81,6,5.81
	c3.31,0,6-2.6,6-5.81C62,15.45,58.06,10.31,56.78,6.61z"/>
<linearGradient id="SVGID_4_" gradientUnits="userSpaceOnUse" x1="849.9842" y1="-140.1114" x2="852.9407" y2="-142.7236" gradientTransform="matrix(2.7319 0 0 3.0921 -2270.2993 451.8473)">
	<stop  offset="0.0528" style="stop-color:#C4EEFF;stop-opacity:0"/>
	<stop  offset="0.4504" style="stop-color:#CDF0FF;stop-opacity:0.4197"/>
	<stop  offset="1" style="stop-color:#D4F2FF"/>
</linearGradient>
<path class="st5" d="M56.48,6.31c-0.15-0.58-0.81-0.58-0.96,0c-0.8,3-3.59,7.99-3.59,11.51c0,4.23,8.14,4.23,8.14,0
	C60.07,14.3,57.27,9.27,56.48,6.31z"/>
</svg>
