<?xml version="1.0" encoding="utf-8"?>
<!-- Generator: Adobe Illustrator 24.1.2, SVG Export Plug-In . SVG Version: 6.00 Build 0)  -->
<svg version="1.1" id="Layer_1" xmlns="http://www.w3.org/2000/svg" xmlns:xlink="http://www.w3.org/1999/xlink" x="0px" y="0px"
	 width="64px" height="64px" viewBox="0 0 64 64" style="enable-background:new 0 0 64 64;" xml:space="preserve">
<style type="text/css">
	.st0{fill:url(#Oval_1_);}
	.st1{fill:#1A1626;}
	.st2{fill:#D69600;}
</style>
<linearGradient id="Oval_1_" gradientUnits="userSpaceOnUse" x1="-211.915" y1="275.9178" x2="-211.915" y2="276.9178" gradientTransform="matrix(60 0 0 -60 12746.9004 16617.0703)">
	<stop  offset="0" style="stop-color:#FF9500"/>
	<stop  offset="0.1919" style="stop-color:#FFAD00"/>
	<stop  offset="0.5455" style="stop-color:#FFD500"/>
	<stop  offset="0.8272" style="stop-color:#FFED00"/>
	<stop  offset="1" style="stop-color:#FFF600"/>
</linearGradient>
<circle id="Oval_14_" class="st0" cx="32" cy="32" r="30"/>
<path class="st1" d="M42.64,43.28c-5.38,4.14-15.89,4.16-21.29,0c-0.92-0.7-1.58,0.56-1.28,1.16c5.02,10.18,18.84,10.18,23.86,0
	C44.22,43.84,43.56,42.57,42.64,43.28z"/>
<path class="st1" d="M26.74,27.38c-2.54,2.67-7.79,3.75-11.35,2c-0.83-0.4-1.97,0.18-1.59,0.75c3.88,5.84,13.06,4.21,14.7-2.59
	C28.66,26.87,27.37,26.71,26.74,27.38z"/>
<path class="st1" d="M37.26,27.38c2.54,2.67,7.79,3.75,11.36,2c0.82-0.4,1.97,0.18,1.59,0.75c-3.88,5.84-13.05,4.21-14.7-2.59
	C35.34,26.87,36.63,26.71,37.26,27.38z"/>
<path class="st2" d="M13.86,16.81c-9.25,6.62-2.92,7.32,5.57,2.69C24.23,16.88,19.95,12.45,13.86,16.81z"/>
<path class="st2" d="M50.13,16.83c-6.09-4.36-10.37,0.07-5.57,2.69C53.06,24.15,59.38,23.45,50.13,16.83z"/>
</svg>
