<?xml version="1.0" encoding="utf-8"?>
<!-- Generator: Adobe Illustrator 24.1.2, SVG Export Plug-In . SVG Version: 6.00 Build 0)  -->
<svg version="1.1" id="Layer_1" xmlns="http://www.w3.org/2000/svg" xmlns:xlink="http://www.w3.org/1999/xlink" x="0px" y="0px"
	 width="64px" height="64px" viewBox="0 0 64 64" style="enable-background:new 0 0 64 64;" xml:space="preserve">
<style type="text/css">
	.st0{fill:url(#Oval_1_);}
	.st1{fill:#1A1626;}
	.st2{fill:#D69600;}
</style>
<linearGradient id="Oval_1_" gradientUnits="userSpaceOnUse" x1="-211.915" y1="275.9178" x2="-211.915" y2="276.9178" gradientTransform="matrix(60 0 0 -60 12746.9004 16617.0703)">
	<stop  offset="0" style="stop-color:#FF9500"/>
	<stop  offset="0.1919" style="stop-color:#FFAD00"/>
	<stop  offset="0.5455" style="stop-color:#FFD500"/>
	<stop  offset="0.8272" style="stop-color:#FFED00"/>
	<stop  offset="1" style="stop-color:#FFF600"/>
</linearGradient>
<circle id="Oval_16_" class="st0" cx="32" cy="32" r="30"/>
<path id="Shape_14_" class="st1" d="M25.66,50c7.75,2.01,17.27-1.02,21.29-7.3c0.33-0.52-0.18-1.06-0.7-0.65
	c-4.2,3.32-13.12,5.79-19.65,3.88C24.1,45.19,23.02,49.32,25.66,50z"/>
<path class="st1" d="M27.5,29.92c-3.35-3.89-13.57-2.73-17.04,3.11c-0.23,0.39,0.08,0.87,0.61,0.54c3.35-2.06,7.57-1.96,7.57-1.96
	c0.01,2.81,2.23,5.08,4.97,5.08C27.58,36.69,29.47,32.2,27.5,29.92z"/>
<path class="st1" d="M52.84,29.92c-3.35-3.89-13.57-2.73-17.04,3.11c-0.23,0.39,0.08,0.87,0.61,0.54c3.35-2.06,7.57-1.96,7.57-1.96
	c0.01,2.81,2.23,5.08,4.97,5.08C52.91,36.69,54.8,32.2,52.84,29.92z"/>
<path class="st2" d="M15.03,18.86c-9.79,5.79-3.55,7.04,5.32,3.16C25.35,19.83,21.47,15.04,15.03,18.86z"/>
<path class="st2" d="M48.97,15.87c-6.44-3.81-10.32,0.97-5.32,3.16C52.52,22.92,58.76,21.66,48.97,15.87z"/>
</svg>
