<?xml version="1.0" encoding="utf-8"?>
<!-- Generator: Adobe Illustrator 24.1.2, SVG Export Plug-In . SVG Version: 6.00 Build 0)  -->
<svg version="1.1" id="Layer_1" xmlns="http://www.w3.org/2000/svg" xmlns:xlink="http://www.w3.org/1999/xlink" x="0px" y="0px"
	 width="64px" height="64px" viewBox="0 0 64 64" style="enable-background:new 0 0 64 64;" xml:space="preserve">
<style type="text/css">
	.st0{fill:url(#SVGID_1_);}
	.st1{fill:#1A1626;}
	.st2{fill:url(#SVGID_2_);}
	.st3{fill:url(#SVGID_3_);}
</style>
<linearGradient id="SVGID_1_" gradientUnits="userSpaceOnUse" x1="32" y1="62" x2="32" y2="2">
	<stop  offset="0" style="stop-color:#FF9500"/>
	<stop  offset="0.1919" style="stop-color:#FFAD00"/>
	<stop  offset="0.5455" style="stop-color:#FFD500"/>
	<stop  offset="0.8272" style="stop-color:#FFED00"/>
	<stop  offset="1" style="stop-color:#FFF600"/>
</linearGradient>
<circle class="st0" cx="32" cy="32" r="30"/>
<path class="st1" d="M46.65,37.29C44.35,37.85,39.01,39,32,39c-7.01,0-12.35-1.15-14.65-1.71c-1.49-0.36-2.42,0.74-2.29,2.04
	C15.75,46.19,21.63,53,32,53c10.37,0,16.25-6.81,16.94-13.67C49.06,38.03,48.14,36.93,46.65,37.29z"/>
<linearGradient id="SVGID_2_" gradientUnits="userSpaceOnUse" x1="32" y1="41.4599" x2="32" y2="64">
	<stop  offset="0" style="stop-color:#690900"/>
	<stop  offset="0.0186" style="stop-color:#76120B"/>
	<stop  offset="0.0782" style="stop-color:#9A2C2B"/>
	<stop  offset="0.1433" style="stop-color:#B94247"/>
	<stop  offset="0.2141" style="stop-color:#D2545D"/>
	<stop  offset="0.2928" style="stop-color:#E5626E"/>
	<stop  offset="0.3837" style="stop-color:#F36C7A"/>
	<stop  offset="0.4978" style="stop-color:#FB7181"/>
	<stop  offset="0.7091" style="stop-color:#FD7383"/>
</linearGradient>
<path class="st2" d="M22,44.85c0,0.89,0,4.39,0,5.99C22,59.6,26.48,64,32,64c5.52,0,10-4.4,10-13.16c0-1.61,0-5.1,0-5.99
	C42,39.62,32,42,32,42S22,39.62,22,44.85z"/>
<linearGradient id="SVGID_3_" gradientUnits="userSpaceOnUse" x1="31.998" y1="56.7891" x2="31.998" y2="41.7344">
	<stop  offset="0" style="stop-color:#C21000;stop-opacity:0.06"/>
	<stop  offset="0.1783" style="stop-color:#BE1000;stop-opacity:0.0814"/>
	<stop  offset="0.3552" style="stop-color:#B20F00;stop-opacity:0.1026"/>
	<stop  offset="0.5314" style="stop-color:#9E0D00;stop-opacity:0.1238"/>
	<stop  offset="0.7074" style="stop-color:#820B00;stop-opacity:0.1449"/>
	<stop  offset="0.8815" style="stop-color:#5F0800;stop-opacity:0.1658"/>
	<stop  offset="1" style="stop-color:#420600;stop-opacity:0.18"/>
</linearGradient>
<path class="st3" d="M30.58,41.73L32,56.79l1.42-15.05C32.56,41.87,32,42,32,42S31.43,41.87,30.58,41.73z"/>
<path class="st1" d="M48.56,32.41c-3.2-1.64-9.6-4.28-13.06-5.32c-0.64-0.19-0.67-0.86-0.05-1.15c4.16-1.92,8-3.89,12.54-6.35
	c0.84-0.45,1.67,0.81,0.98,1.51c-1.86,1.88-4.5,3.64-6.44,4.94c2.21,1.15,5.25,3.18,7.21,4.99C50.52,31.76,49.35,32.82,48.56,32.41z
	"/>
<path class="st1" d="M14.26,31.04c1.97-1.81,5.01-3.84,7.21-4.99c-1.93-1.3-4.58-3.06-6.44-4.94c-0.7-0.7,0.14-1.97,0.98-1.51
	c4.54,2.46,8.39,4.42,12.54,6.35c0.62,0.29,0.59,0.95-0.05,1.15c-3.46,1.04-9.86,3.68-13.06,5.32
	C14.65,32.82,13.48,31.76,14.26,31.04z"/>
</svg>
