<?xml version="1.0" encoding="utf-8"?>
<!-- Generator: Adobe Illustrator 24.1.2, SVG Export Plug-In . SVG Version: 6.00 Build 0)  -->
<svg version="1.1" id="Layer_1" xmlns="http://www.w3.org/2000/svg" xmlns:xlink="http://www.w3.org/1999/xlink" x="0px" y="0px"
	 width="64px" height="64px" viewBox="0 0 64 64" style="enable-background:new 0 0 64 64;" xml:space="preserve">
<style type="text/css">
	.st0{fill:url(#SVGID_1_);}
	.st1{fill:#1A1626;}
</style>
<linearGradient id="SVGID_1_" gradientUnits="userSpaceOnUse" x1="31.9816" y1="62.1852" x2="31.9816" y2="2.1867" gradientTransform="matrix(1 0 0 1 0.0184 -0.186)">
	<stop  offset="0" style="stop-color:#FF9500"/>
	<stop  offset="0.1919" style="stop-color:#FFAD00"/>
	<stop  offset="0.5455" style="stop-color:#FFD500"/>
	<stop  offset="0.8272" style="stop-color:#FFED00"/>
	<stop  offset="1" style="stop-color:#FFF600"/>
</linearGradient>
<path class="st0" d="M32,2c16.57,0,30,13.43,30,30c0,16.57-13.43,30-30,30C15.43,62,2,48.57,2,32C2,15.43,15.43,2,32,2z"/>
<ellipse class="st1" cx="22" cy="25" rx="4" ry="5"/>
<path class="st1" d="M42,20c2.21,0,4,2.24,4,5s-1.79,5-4,5c-2.21,0-4-2.24-4-5S39.79,20,42,20z"/>
<path class="st1" d="M34.89,52.36h-1.52c-0.79,0-1.43-0.64-1.43-1.43c0-0.79,0.64-1.43,1.43-1.43l1.52,0c1.06,0,1.89-0.2,2.34-0.57
	c0.27-0.22,0.4-0.5,0.4-0.85c0-1.88-2.35-2.86-2.35-2.86s2.34-0.94,2.34-2.87c0-0.35-0.13-0.63-0.4-0.85
	c-0.45-0.37-1.28-0.57-2.34-0.57l-1.52,0c-0.79,0-1.43-0.64-1.43-1.43c0-0.79,0.64-1.43,1.43-1.43l1.52,0
	c1.76,0,3.16,0.41,4.14,1.21c0.94,0.76,1.46,1.85,1.46,3.07c0,1.08-0.39,2.09-1.01,2.86c0.63,0.77,1.02,1.79,1.02,2.87
	c0,1.22-0.52,2.31-1.46,3.07C38.05,51.95,36.66,52.36,34.89,52.36z"/>
</svg>
