<?xml version="1.0" encoding="utf-8"?>
<!-- Generator: Adobe Illustrator 24.1.2, SVG Export Plug-In . SVG Version: 6.00 Build 0)  -->
<svg version="1.1" id="Layer_1" xmlns="http://www.w3.org/2000/svg" xmlns:xlink="http://www.w3.org/1999/xlink" x="0px" y="0px"
	 width="64px" height="64px" viewBox="0 0 64 64" style="enable-background:new 0 0 64 64;" xml:space="preserve">
<style type="text/css">
	.st0{fill:url(#SVGID_1_);}
	.st1{fill:#1A1626;}
</style>
<linearGradient id="SVGID_1_" gradientUnits="userSpaceOnUse" x1="88" y1="-142" x2="88" y2="-82" gradientTransform="matrix(1 0 0 -1 -56 -80)">
	<stop  offset="0" style="stop-color:#FF9500"/>
	<stop  offset="0.1919" style="stop-color:#FFAD00"/>
	<stop  offset="0.5455" style="stop-color:#FFD500"/>
	<stop  offset="0.8272" style="stop-color:#FFED00"/>
	<stop  offset="1" style="stop-color:#FFF600"/>
</linearGradient>
<circle class="st0" cx="32" cy="32" r="30"/>
<path class="st1" d="M42.59,52.64c-1.81,0-2.94-1.42-3.84-2.57c-0.45-0.57-1.13-1.43-1.49-1.43c-0.35,0-1.01,0.85-1.44,1.42
	c-0.89,1.15-2,2.58-3.82,2.58c-1.82,0-2.93-1.43-3.82-2.58c-0.44-0.56-1.1-1.42-1.44-1.42c-0.36,0-1.04,0.86-1.49,1.43
	c-0.91,1.14-2.03,2.57-3.84,2.57c-3.12,0-4.65-3.9-4.81-4.34c-0.29-0.78,0.11-1.64,0.89-1.93c0.77-0.29,1.64,0.11,1.92,0.88
	c0.37,0.97,1.29,2.38,2,2.38c0.36,0,1.04-0.86,1.49-1.43c0.91-1.14,2.03-2.57,3.84-2.57c1.82,0,2.93,1.43,3.82,2.58
	c0.44,0.56,1.1,1.42,1.44,1.42c0.35,0,1.01-0.85,1.45-1.42c0.89-1.15,2-2.58,3.82-2.58c1.81,0,2.94,1.43,3.84,2.57
	c0.45,0.57,1.13,1.43,1.49,1.43c0.71,0,1.64-1.41,2-2.38c0.29-0.77,1.15-1.17,1.93-0.88c0.78,0.29,1.17,1.15,0.88,1.92
	C47.24,48.75,45.71,52.64,42.59,52.64z"/>
<path class="st1" d="M48.56,41.16c-3.2-1.64-9.6-4.28-13.06-5.32c-0.64-0.19-0.67-0.86-0.05-1.15c4.16-1.92,8-3.89,12.54-6.35
	c0.84-0.45,1.67,0.81,0.98,1.52c-1.86,1.88-4.5,3.64-6.44,4.94c2.21,1.15,5.25,3.18,7.21,4.99C50.52,40.51,49.35,41.57,48.56,41.16z
	"/>
<path class="st1" d="M14.26,39.8c1.97-1.81,5.01-3.84,7.21-4.99c-1.93-1.3-4.58-3.06-6.44-4.94c-0.7-0.7,0.14-1.97,0.98-1.52
	c4.54,2.46,8.39,4.42,12.54,6.35c0.62,0.29,0.59,0.96-0.05,1.15c-3.46,1.04-9.86,3.68-13.06,5.32
	C14.65,41.57,13.48,40.51,14.26,39.8z"/>
</svg>
