<?xml version="1.0" encoding="utf-8"?>
<!-- Generator: Adobe Illustrator 24.1.2, SVG Export Plug-In . SVG Version: 6.00 Build 0)  -->
<svg version="1.1" id="Layer_1" xmlns="http://www.w3.org/2000/svg" xmlns:xlink="http://www.w3.org/1999/xlink" x="0px" y="0px"
	 width="64px" height="64px" viewBox="0 0 64 64" style="enable-background:new 0 0 64 64;" xml:space="preserve">
<style type="text/css">
	.st0{fill:url(#SVGID_1_);}
	.st1{fill:#1A1626;}
	.st2{fill:#FD7383;}
	.st3{fill:url(#SVGID_2_);}
</style>
<linearGradient id="SVGID_1_" gradientUnits="userSpaceOnUse" x1="32" y1="62" x2="32" y2="2">
	<stop  offset="0" style="stop-color:#FF9500"/>
	<stop  offset="0.1919" style="stop-color:#FFAD00"/>
	<stop  offset="0.5455" style="stop-color:#FFD500"/>
	<stop  offset="0.8272" style="stop-color:#FFED00"/>
	<stop  offset="1" style="stop-color:#FFF600"/>
</linearGradient>
<path class="st0" d="M32,2c16.57,0,30,13.43,30,30c0,16.57-13.43,30-30,30C15.43,62,2,48.57,2,32C2,15.43,15.43,2,32,2z"/>
<path class="st1" d="M32,32c-8.84-0.06-15.95,4.95-16,11.17c-0.03,3.45,1.33,6.6,5.57,6.63c3.08,0.02,6.48-1.46,10.43-1.44
	c3.95-0.03,7.35,1.46,10.43,1.44c4.24-0.03,5.6-3.19,5.57-6.63C47.94,36.95,40.84,31.94,32,32z"/>
<path class="st2" d="M32,44.1c-4.66-2.35-9.32,3.63-9.32,3.63s5.8-1.57,9.32-1.57c3.52,0,9.32,1.57,9.32,1.57S36.66,41.75,32,44.1z"
	/>
<linearGradient id="SVGID_2_" gradientUnits="userSpaceOnUse" x1="20.9998" y1="36" x2="42.9985" y2="36">
	<stop  offset="0" style="stop-color:#CFD7E6"/>
	<stop  offset="0.0368" style="stop-color:#DAE0EC"/>
	<stop  offset="0.1263" style="stop-color:#EEF1F6"/>
	<stop  offset="0.2147" style="stop-color:#FBFCFD"/>
	<stop  offset="0.3" style="stop-color:#FFFFFF"/>
	<stop  offset="0.7" style="stop-color:#FFFFFF"/>
	<stop  offset="0.7853" style="stop-color:#FBFCFD"/>
	<stop  offset="0.8737" style="stop-color:#EEF1F6"/>
	<stop  offset="0.9632" style="stop-color:#DAE0EC"/>
	<stop  offset="1" style="stop-color:#CFD7E6"/>
</linearGradient>
<path class="st3" d="M42.72,37.04C40.01,35.16,36.51,34,32,34c-4.51,0-8.01,1.15-10.72,3.04c-0.44,0.3-0.39,0.96,0.38,0.96
	C24.24,38,32,38,32,38s7.75,0,10.34,0C43.11,38,43.16,37.34,42.72,37.04z"/>
<path class="st1" d="M48.56,29.41c-3.2-1.64-9.6-4.28-13.06-5.32c-0.64-0.19-0.67-0.86-0.05-1.15c4.16-1.92,8-3.89,12.54-6.35
	c0.84-0.45,1.67,0.81,0.98,1.52c-1.86,1.88-4.5,3.64-6.44,4.94c2.21,1.15,5.25,3.18,7.21,4.99C50.52,28.76,49.35,29.82,48.56,29.41z
	"/>
<path class="st1" d="M14.26,28.04c1.97-1.81,5.01-3.84,7.21-4.99c-1.93-1.3-4.58-3.06-6.44-4.94c-0.7-0.7,0.14-1.97,0.98-1.52
	c4.54,2.46,8.39,4.42,12.54,6.35c0.62,0.29,0.59,0.95-0.05,1.15c-3.46,1.04-9.86,3.68-13.06,5.32
	C14.65,29.82,13.48,28.76,14.26,28.04z"/>
</svg>
