<?xml version="1.0" encoding="utf-8"?>
<!-- Generator: Adobe Illustrator 15.0.0, SVG Export Plug-In . SVG Version: 6.00 Build 0)  -->
<!DOCTYPE svg PUBLIC "-//W3C//DTD SVG 1.1//EN" "http://www.w3.org/Graphics/SVG/1.1/DTD/svg11.dtd" [
	<!ENTITY ns_flows "http://ns.adobe.com/Flows/1.0/">
	<!ENTITY ns_extend "http://ns.adobe.com/Extensibility/1.0/">
	<!ENTITY ns_ai "http://ns.adobe.com/AdobeIllustrator/10.0/">
	<!ENTITY ns_graphs "http://ns.adobe.com/Graphs/1.0/">
]>
<svg version="1.1" id="Layer_1" xmlns:x="&ns_extend;" xmlns:i="&ns_ai;" xmlns:graph="&ns_graphs;"
	 xmlns="http://www.w3.org/2000/svg" xmlns:xlink="http://www.w3.org/1999/xlink" xmlns:a="http://ns.adobe.com/AdobeSVGViewerExtensions/3.0/"
	 x="0px" y="0px" width="64px" height="64px" viewBox="0 0 64 64" enable-background="new 0 0 64 64" xml:space="preserve">
<path fill="#FFE600" d="M7.983,3.212c6.331,1.782,16.591,8.37,16.591,8.37L7.769,26.773c0,0-4.875-9.437-3.53-21.812
	C4.427,3.241,5.932,2.635,7.983,3.212z"/>
<linearGradient id="SVGID_1_" gradientUnits="userSpaceOnUse" x1="608.5107" y1="15.5425" x2="627.4115" y2="15.5425" gradientTransform="matrix(-1 0 0 1 631.2734 0.123)">
	<stop  offset="0" style="stop-color:#BA0085;stop-opacity:0.7"/>
	<stop  offset="1" style="stop-color:#FF87F3;stop-opacity:0.5"/>
	<a:midPointStop  offset="0" style="stop-color:#BA0085;stop-opacity:0.7"/>
	<a:midPointStop  offset="0.5" style="stop-color:#BA0085;stop-opacity:0.7"/>
	<a:midPointStop  offset="1" style="stop-color:#FF87F3;stop-opacity:0.5"/>
</linearGradient>
<path fill="url(#SVGID_1_)" d="M8.232,5.169c4.521,2.68,8.464,7.59,11.098,11.463L8.328,26.824c0,0-4.183-8.129-3.515-20.193
	C4.921,4.65,5.954,3.817,8.232,5.169z"/>
<path fill="#FFE600" d="M55.968,3.212c-6.333,1.782-16.594,8.37-16.594,8.37l16.807,15.191c0,0,4.877-9.437,3.53-21.812
	C59.524,3.241,58.018,2.635,55.968,3.212z"/>
<linearGradient id="SVGID_2_" gradientUnits="userSpaceOnUse" x1="-35.2979" y1="15.5425" x2="-16.3971" y2="15.5425" gradientTransform="matrix(1 0 0 1 76.4844 0.123)">
	<stop  offset="0" style="stop-color:#BA0085;stop-opacity:0.7"/>
	<stop  offset="1" style="stop-color:#FF87F3;stop-opacity:0.5"/>
	<a:midPointStop  offset="0" style="stop-color:#BA0085;stop-opacity:0.7"/>
	<a:midPointStop  offset="0.5" style="stop-color:#BA0085;stop-opacity:0.7"/>
	<a:midPointStop  offset="1" style="stop-color:#FF87F3;stop-opacity:0.5"/>
</linearGradient>
<path fill="url(#SVGID_2_)" d="M55.717,5.169c-4.521,2.68-8.464,7.59-11.098,11.463L55.62,26.824c0,0,4.184-8.129,3.516-20.193
	C59.028,4.65,57.995,3.817,55.717,5.169z"/>
<path fill="#FFE600" d="M27.48,18.891c-5.631-4.563-12.623-3.769-16.093-2.964c-1.569,0.362-1.805,0.699-0.668,1.45
	c1.673,1.106,3.479,2.917,4.979,5.66C17.565,26.444,29.889,20.848,27.48,18.891z"/>
<path fill="#FFE600" d="M25.536,18.987c-6.57-3.068-13.159-0.599-16.331,1.018c-1.429,0.732-1.58,1.114-0.29,1.569
	c1.888,0.668,4.079,1.986,6.2,4.286C17.756,28.716,28.347,20.299,25.536,18.987z"/>
<path fill="#FFE600" d="M36.52,18.891c5.631-4.563,12.623-3.769,16.093-2.964c1.569,0.362,1.805,0.699,0.668,1.45
	c-1.673,1.106-3.479,2.917-4.979,5.66C46.435,26.444,34.111,20.848,36.52,18.891z"/>
<path fill="#FFE600" d="M38.464,18.987c6.57-3.068,13.159-0.599,16.331,1.018c1.429,0.732,1.58,1.114,0.29,1.569
	c-1.888,0.668-4.079,1.986-6.2,4.286C46.244,28.716,35.653,20.299,38.464,18.987z"/>
<linearGradient id="SVGID_3_" gradientUnits="userSpaceOnUse" x1="32.0005" y1="61" x2="32.0005" y2="9.2622">
	<stop  offset="0" style="stop-color:#FF9900"/>
	<stop  offset="0.7212" style="stop-color:#FFE600"/>
	<a:midPointStop  offset="0" style="stop-color:#FF9900"/>
	<a:midPointStop  offset="0.5" style="stop-color:#FF9900"/>
	<a:midPointStop  offset="0.7212" style="stop-color:#FFE600"/>
</linearGradient>
<path fill="url(#SVGID_3_)" d="M32.001,9.262c-22.47,0-30.951,27.395-27.108,37.971C7.81,55.261,26.134,61,32.001,61
	c5.865,0,24.191-5.739,27.106-13.768C62.95,36.656,54.469,9.262,32.001,9.262z"/>
<linearGradient id="SVGID_4_" gradientUnits="userSpaceOnUse" x1="32.0005" y1="21.1113" x2="32.0005" y2="9.2373">
	<stop  offset="0" style="stop-color:#DE9400;stop-opacity:0.5"/>
	<stop  offset="1" style="stop-color:#DE9400"/>
	<a:midPointStop  offset="0" style="stop-color:#DE9400;stop-opacity:0.5"/>
	<a:midPointStop  offset="0.5" style="stop-color:#DE9400;stop-opacity:0.5"/>
	<a:midPointStop  offset="1" style="stop-color:#DE9400"/>
</linearGradient>
<path fill="url(#SVGID_4_)" d="M30.17,9.343c0,0,1.831-0.237,3.66,0C33.83,25.034,30.17,25.034,30.17,9.343z"/>
<linearGradient id="SVGID_5_" gradientUnits="userSpaceOnUse" x1="26.3608" y1="17.1152" x2="26.3608" y2="9.5723">
	<stop  offset="0" style="stop-color:#DE9400;stop-opacity:0.5"/>
	<stop  offset="1" style="stop-color:#DE9400"/>
	<a:midPointStop  offset="0" style="stop-color:#DE9400;stop-opacity:0.5"/>
	<a:midPointStop  offset="0.5" style="stop-color:#DE9400;stop-opacity:0.5"/>
	<a:midPointStop  offset="1" style="stop-color:#DE9400"/>
</linearGradient>
<path fill="url(#SVGID_5_)" d="M27.956,9.572c0,0-1.632,0.207-3,0.665C24.092,19.71,26.35,19.313,27.956,9.572z"/>
<linearGradient id="SVGID_6_" gradientUnits="userSpaceOnUse" x1="654.959" y1="17.1152" x2="654.959" y2="9.5723" gradientTransform="matrix(-1 0 0 1 692.5996 0)">
	<stop  offset="0" style="stop-color:#DE9400;stop-opacity:0.5"/>
	<stop  offset="1" style="stop-color:#DE9400"/>
	<a:midPointStop  offset="0" style="stop-color:#DE9400;stop-opacity:0.5"/>
	<a:midPointStop  offset="0.5" style="stop-color:#DE9400;stop-opacity:0.5"/>
	<a:midPointStop  offset="1" style="stop-color:#DE9400"/>
</linearGradient>
<path fill="url(#SVGID_6_)" d="M36.046,9.572c0,0,1.631,0.207,3,0.665C39.908,19.71,37.652,19.313,36.046,9.572z"/>
<linearGradient id="SVGID_7_" gradientUnits="userSpaceOnUse" x1="53.21" y1="45.5234" x2="59.8467" y2="45.5234">
	<stop  offset="0" style="stop-color:#DE9400;stop-opacity:0.5"/>
	<stop  offset="1" style="stop-color:#DE9400"/>
	<a:midPointStop  offset="0" style="stop-color:#DE9400;stop-opacity:0.5"/>
	<a:midPointStop  offset="0.5" style="stop-color:#DE9400;stop-opacity:0.5"/>
	<a:midPointStop  offset="1" style="stop-color:#DE9400"/>
</linearGradient>
<path fill="url(#SVGID_7_)" d="M59.847,43.977c0,0-0.16,1.826-0.683,3.094C50.769,46.28,51.483,44.241,59.847,43.977z"/>
<linearGradient id="SVGID_8_" gradientUnits="userSpaceOnUse" x1="53.3838" y1="49.8486" x2="58.6006" y2="49.8486">
	<stop  offset="0" style="stop-color:#DE9400;stop-opacity:0.5"/>
	<stop  offset="1" style="stop-color:#DE9400"/>
	<a:midPointStop  offset="0" style="stop-color:#DE9400;stop-opacity:0.5"/>
	<a:midPointStop  offset="0.5" style="stop-color:#DE9400;stop-opacity:0.5"/>
	<a:midPointStop  offset="1" style="stop-color:#DE9400"/>
</linearGradient>
<path fill="url(#SVGID_8_)" d="M58.601,48.343c0,0-1.089,1.95-2.46,3.035C51.589,49.104,52.856,48.152,58.601,48.343z"/>
<linearGradient id="SVGID_9_" gradientUnits="userSpaceOnUse" x1="56.1582" y1="41.2021" x2="59.9785" y2="41.2021">
	<stop  offset="0" style="stop-color:#DE9400;stop-opacity:0.5"/>
	<stop  offset="1" style="stop-color:#DE9400"/>
	<a:midPointStop  offset="0" style="stop-color:#DE9400;stop-opacity:0.5"/>
	<a:midPointStop  offset="0.5" style="stop-color:#DE9400;stop-opacity:0.5"/>
	<a:midPointStop  offset="1" style="stop-color:#DE9400"/>
</linearGradient>
<path fill="url(#SVGID_9_)" d="M59.966,42.592c0,0,0.033-2.087-0.006-2.779C54.516,40.994,55.279,42.34,59.966,42.592z"/>
<linearGradient id="SVGID_10_" gradientUnits="userSpaceOnUse" x1="682.3926" y1="45.5234" x2="689.0303" y2="45.5234" gradientTransform="matrix(-1 0 0 1 693.1836 0)">
	<stop  offset="0" style="stop-color:#DE9400;stop-opacity:0.5"/>
	<stop  offset="1" style="stop-color:#DE9400"/>
	<a:midPointStop  offset="0" style="stop-color:#DE9400;stop-opacity:0.5"/>
	<a:midPointStop  offset="0.5" style="stop-color:#DE9400;stop-opacity:0.5"/>
	<a:midPointStop  offset="1" style="stop-color:#DE9400"/>
</linearGradient>
<path fill="url(#SVGID_10_)" d="M4.153,43.977c0,0,0.16,1.826,0.683,3.094C13.233,46.28,12.517,44.241,4.153,43.977z"/>
<linearGradient id="SVGID_11_" gradientUnits="userSpaceOnUse" x1="682.5674" y1="49.8486" x2="687.7842" y2="49.8486" gradientTransform="matrix(-1 0 0 1 693.1836 0)">
	<stop  offset="0" style="stop-color:#DE9400;stop-opacity:0.5"/>
	<stop  offset="1" style="stop-color:#DE9400"/>
	<a:midPointStop  offset="0" style="stop-color:#DE9400;stop-opacity:0.5"/>
	<a:midPointStop  offset="0.5" style="stop-color:#DE9400;stop-opacity:0.5"/>
	<a:midPointStop  offset="1" style="stop-color:#DE9400"/>
</linearGradient>
<path fill="url(#SVGID_11_)" d="M5.399,48.343c0,0,1.091,1.95,2.461,3.035C12.411,49.104,11.144,48.152,5.399,48.343z"/>
<linearGradient id="SVGID_12_" gradientUnits="userSpaceOnUse" x1="685.3408" y1="41.2021" x2="689.1621" y2="41.2021" gradientTransform="matrix(-1 0 0 1 693.1836 0)">
	<stop  offset="0" style="stop-color:#DE9400;stop-opacity:0.5"/>
	<stop  offset="1" style="stop-color:#DE9400"/>
	<a:midPointStop  offset="0" style="stop-color:#DE9400;stop-opacity:0.5"/>
	<a:midPointStop  offset="0.5" style="stop-color:#DE9400;stop-opacity:0.5"/>
	<a:midPointStop  offset="1" style="stop-color:#DE9400"/>
</linearGradient>
<path fill="url(#SVGID_12_)" d="M4.034,42.592c0,0-0.033-2.087,0.008-2.779C9.484,40.994,8.723,42.34,4.034,42.592z"/>
<radialGradient id="SVGID_13_" cx="15.3281" cy="48.1426" r="10.0005" gradientTransform="matrix(0.9655 0 0 0.9667 2.3807 -4.7659)" gradientUnits="userSpaceOnUse">
	<stop  offset="0.1515" style="stop-color:#FF6442"/>
	<stop  offset="0.2955" style="stop-color:#FE6C3D;stop-opacity:0.8253"/>
	<stop  offset="0.5168" style="stop-color:#FD812E;stop-opacity:0.5569"/>
	<stop  offset="0.7862" style="stop-color:#FBA415;stop-opacity:0.23"/>
	<stop  offset="0.9758" style="stop-color:#F9C101;stop-opacity:0"/>
	<a:midPointStop  offset="0.1515" style="stop-color:#FF6442"/>
	<a:midPointStop  offset="0.6136" style="stop-color:#FF6442"/>
	<a:midPointStop  offset="0.9758" style="stop-color:#F9C101;stop-opacity:0"/>
</radialGradient>
<ellipse opacity="0.6" fill="url(#SVGID_13_)" cx="17.181" cy="41.772" rx="9.655" ry="9.667"/>
<radialGradient id="SVGID_14_" cx="46.0273" cy="47.9238" r="10.0005" gradientTransform="matrix(0.9655 0 0 0.9667 2.3807 -4.7659)" gradientUnits="userSpaceOnUse">
	<stop  offset="0.1515" style="stop-color:#FF6442"/>
	<stop  offset="0.2955" style="stop-color:#FE6C3D;stop-opacity:0.8253"/>
	<stop  offset="0.5168" style="stop-color:#FD812E;stop-opacity:0.5569"/>
	<stop  offset="0.7862" style="stop-color:#FBA415;stop-opacity:0.23"/>
	<stop  offset="0.9758" style="stop-color:#F9C101;stop-opacity:0"/>
	<a:midPointStop  offset="0.1515" style="stop-color:#FF6442"/>
	<a:midPointStop  offset="0.6136" style="stop-color:#FF6442"/>
	<a:midPointStop  offset="0.9758" style="stop-color:#F9C101;stop-opacity:0"/>
</radialGradient>
<ellipse opacity="0.6" fill="url(#SVGID_14_)" cx="46.821" cy="41.561" rx="9.655" ry="9.667"/>
<path fill="#C4810A" d="M36.546,37.216c-0.911-0.966-8.183-0.966-9.094,0c-1.392,1.468,2.746,4.087,4.549,4.087
	C33.802,41.303,37.939,38.684,36.546,37.216z"/>
<path fill="#C4810A" d="M17.298,22.64c-8.012,2.24-3.84,4.309,3.16,3.245C24.407,25.284,22.574,21.165,17.298,22.64z"/>
<path fill="#C4810A" d="M46.702,22.639c-5.272-1.476-7.107,2.645-3.156,3.246C50.544,26.948,54.716,24.88,46.702,22.639z"/>
<path fill="#674D21" d="M39.878,33.641c2.868-2.119,8.033-2.26,11.134,0c0.717,0.521,1.904,0.159,1.639-0.448
	c-2.708-6.208-11.709-6.196-14.411,0C37.974,33.8,39.165,34.167,39.878,33.641z"/>
<path fill="#674D21" d="M12.99,33.641c2.868-2.119,8.035-2.26,11.134,0c0.717,0.521,1.904,0.159,1.639-0.448
	c-2.708-6.208-11.711-6.196-14.413,0C11.084,33.8,12.277,34.167,12.99,33.641z"/>
<path fill="#8F5D08" d="M34.308,55.761h-1.281c-0.667,0-1.206-0.541-1.206-1.208c0-0.668,0.539-1.209,1.206-1.209h1.281
	c0.894,0,1.597-0.17,1.979-0.482c0.229-0.187,0.34-0.422,0.34-0.722c0-1.591-1.984-2.419-1.984-2.419s1.977-0.793,1.977-2.426
	c0-0.299-0.111-0.535-0.338-0.721c-0.381-0.309-1.082-0.48-1.974-0.48h-1.281c-0.667,0-1.206-0.541-1.206-1.208
	s0.539-1.208,1.206-1.208h1.281c1.487,0,2.664,0.344,3.498,1.023c0.792,0.645,1.228,1.566,1.228,2.594
	c0,0.91-0.328,1.768-0.854,2.42c0.53,0.654,0.862,1.513,0.862,2.425c0,1.028-0.438,1.95-1.229,2.597
	C36.976,55.416,35.797,55.761,34.308,55.761z"/>
</svg>
