<?xml version="1.0" encoding="utf-8"?>
<!-- Generator: Adobe Illustrator 24.1.2, SVG Export Plug-In . SVG Version: 6.00 Build 0)  -->
<svg version="1.1" id="Layer_1" xmlns="http://www.w3.org/2000/svg" xmlns:xlink="http://www.w3.org/1999/xlink" x="0px" y="0px"
	 width="64px" height="64px" viewBox="0 0 64 64" style="enable-background:new 0 0 64 64;" xml:space="preserve">
<style type="text/css">
	.st0{fill:url(#SVGID_1_);}
	.st1{fill:#FFFFFF;}
	.st2{fill:#1A1626;}
	.st3{fill:url(#SVGID_2_);}
	.st4{fill:#FD7383;}
	.st5{fill:#D69600;}
</style>
<linearGradient id="SVGID_1_" gradientUnits="userSpaceOnUse" x1="32" y1="61.9993" x2="32" y2="2.0007">
	<stop  offset="0" style="stop-color:#FF9500"/>
	<stop  offset="0.1919" style="stop-color:#FFAD00"/>
	<stop  offset="0.5455" style="stop-color:#FFD500"/>
	<stop  offset="0.8272" style="stop-color:#FFED00"/>
	<stop  offset="1" style="stop-color:#FFF600"/>
</linearGradient>
<path class="st0" d="M32,2c16.57,0,30,13.43,30,30c0,16.57-13.43,30-30,30C15.43,62,2,48.57,2,32C2,15.43,15.43,2,32,2z"/>
<circle class="st1" cx="20" cy="29" r="9.5"/>
<circle class="st1" cx="44" cy="29" r="9.5"/>
<circle class="st2" cx="20" cy="29" r="4.5"/>
<circle class="st2" cx="44" cy="29" r="4.5"/>
<path class="st2" d="M39,50.12c0,9.67-14,9.67-14,0v-1.24c0-9.67,14-9.67,14,0V50.12z"/>
<linearGradient id="SVGID_2_" gradientUnits="userSpaceOnUse" x1="27.3321" y1="44.4836" x2="36.668" y2="44.4836">
	<stop  offset="0" style="stop-color:#CFD7E6"/>
	<stop  offset="0.0368" style="stop-color:#DAE0EC"/>
	<stop  offset="0.1263" style="stop-color:#EEF1F6"/>
	<stop  offset="0.2147" style="stop-color:#FBFCFD"/>
	<stop  offset="0.3" style="stop-color:#FFFFFF"/>
	<stop  offset="0.7" style="stop-color:#FFFFFF"/>
	<stop  offset="0.7853" style="stop-color:#FBFCFD"/>
	<stop  offset="0.8737" style="stop-color:#EEF1F6"/>
	<stop  offset="0.9632" style="stop-color:#DAE0EC"/>
	<stop  offset="1" style="stop-color:#CFD7E6"/>
</linearGradient>
<path class="st3" d="M27.33,46c0.93-1.81,2.67-3.04,4.67-3.04c2,0,3.74,1.22,4.67,3.04H27.33z"/>
<path class="st4" d="M32,53.77c-2.56-0.75-3.67,0.82-3.67,0.82c1.06,0.8,2.28,1.27,3.67,1.27c1.38,0,2.61-0.47,3.67-1.27
	C35.67,54.59,34.56,53.02,32,53.77z"/>
<path class="st5" d="M15.05,11.19c-9.79,5.79-3.55,7.04,5.32,3.16C25.37,12.16,21.49,7.37,15.05,11.19z"/>
<path class="st5" d="M48.95,11.2c-6.44-3.81-10.32,0.97-5.32,3.16C52.5,18.25,58.74,16.99,48.95,11.2z"/>
</svg>
