<?xml version="1.0" encoding="utf-8"?>
<!-- Generator: Adobe Illustrator 24.1.2, SVG Export Plug-In . SVG Version: 6.00 Build 0)  -->
<svg version="1.1" id="Layer_1" xmlns="http://www.w3.org/2000/svg" xmlns:xlink="http://www.w3.org/1999/xlink" x="0px" y="0px"
	 width="64px" height="64px" viewBox="0 0 64 64" style="enable-background:new 0 0 64 64;" xml:space="preserve">
<style type="text/css">
	.st0{fill:url(#SVGID_1_);}
	.st1{fill:#1A1626;}
	.st2{fill:#016ABD;}
	.st3{fill:url(#SVGID_2_);}
	.st4{fill:url(#SVGID_3_);}
</style>
<linearGradient id="SVGID_1_" gradientUnits="userSpaceOnUse" x1="32" y1="62" x2="32" y2="2">
	<stop  offset="0.3" style="stop-color:#FFAA00"/>
	<stop  offset="0.85" style="stop-color:#26B0FF"/>
</linearGradient>
<circle class="st0" cx="32" cy="32" r="30"/>
<ellipse class="st1" cx="22" cy="33" rx="4" ry="5"/>
<ellipse class="st1" cx="42" cy="33" rx="4" ry="5"/>
<path class="st1" d="M42.93,51.77C43.61,47.62,38.83,43,32,43c-6.82,0-11.7,4.65-10.93,8.77c0.73,3.91,5.73,1.46,10.93,1.46
	C37.38,53.24,42.28,55.7,42.93,51.77z"/>
<path class="st2" d="M18.05,19.89c-9.79,5.79-3.55,7.04,5.32,3.16C28.37,20.86,24.49,16.08,18.05,19.89z"/>
<path class="st2" d="M45.95,19.91c-6.44-3.81-10.32,0.97-5.32,3.16C49.5,26.95,55.74,25.69,45.95,19.91z"/>
<radialGradient id="SVGID_2_" cx="916.4218" cy="-128.7892" r="2.5777" fx="916.4221" fy="-126.9213" gradientTransform="matrix(3.154 0 0 4.4839 -2880.2834 620.932)" gradientUnits="userSpaceOnUse">
	<stop  offset="0" style="stop-color:#73EFFF"/>
	<stop  offset="0.1871" style="stop-color:#6FECFF"/>
	<stop  offset="0.3641" style="stop-color:#64E3FF"/>
	<stop  offset="0.537" style="stop-color:#51D3FF"/>
	<stop  offset="0.7074" style="stop-color:#36BDFF"/>
	<stop  offset="0.8744" style="stop-color:#14A1FF"/>
	<stop  offset="0.9564" style="stop-color:#0091FF"/>
</radialGradient>
<path class="st3" d="M10.78,36.39c-0.44-1.27-1.12-1.28-1.56,0C7.93,40.15,4,45.23,4,49.63c0,3.21,2.69,5.81,6,5.81
	c3.31,0,6-2.6,6-5.81C16,45.24,12.06,40.1,10.78,36.39z"/>
<linearGradient id="SVGID_3_" gradientUnits="userSpaceOnUse" x1="833.1466" y1="-130.4776" x2="836.1031" y2="-133.0898" gradientTransform="matrix(2.7319 0 0 3.0921 -2270.2993 451.8473)">
	<stop  offset="0.0528" style="stop-color:#C4EEFF;stop-opacity:0"/>
	<stop  offset="0.4504" style="stop-color:#CDF0FF;stop-opacity:0.4197"/>
	<stop  offset="1" style="stop-color:#D4F2FF"/>
</linearGradient>
<path class="st4" d="M10.48,36.1c-0.15-0.58-0.81-0.58-0.96,0c-0.8,3-3.59,7.99-3.59,11.51c0,4.23,8.14,4.23,8.14,0
	C14.07,44.09,11.27,39.06,10.48,36.1z"/>
</svg>
