<?xml version="1.0" encoding="utf-8"?>
<!-- Generator: Adobe Illustrator 24.1.2, SVG Export Plug-In . SVG Version: 6.00 Build 0)  -->
<svg version="1.1" id="Layer_1" xmlns="http://www.w3.org/2000/svg" xmlns:xlink="http://www.w3.org/1999/xlink" x="0px" y="0px"
	 width="64px" height="64px" viewBox="0 0 64 64" style="enable-background:new 0 0 64 64;" xml:space="preserve">
<style type="text/css">
	.st0{fill:url(#SVGID_1_);}
	.st1{fill:url(#SVGID_2_);}
	.st2{fill:url(#SVGID_3_);}
	.st3{fill:#1A1626;}
	.st4{fill:url(#SVGID_4_);}
	.st5{fill:url(#SVGID_5_);}
	.st6{fill:url(#SVGID_6_);}
	.st7{opacity:0.5;fill:#93C7EC;}
	.st8{fill:#FFFFFF;}
</style>
<linearGradient id="SVGID_1_" gradientUnits="userSpaceOnUse" x1="32" y1="62" x2="32" y2="2">
	<stop  offset="0" style="stop-color:#FF9500"/>
	<stop  offset="0.1919" style="stop-color:#FFAD00"/>
	<stop  offset="0.5455" style="stop-color:#FFD500"/>
	<stop  offset="0.8272" style="stop-color:#FFED00"/>
	<stop  offset="1" style="stop-color:#FFF600"/>
</linearGradient>
<path class="st0" d="M32,2c16.57,0,30,13.43,30,30c0,16.57-13.43,30-30,30C15.43,62,2,48.57,2,32C2,15.43,15.43,2,32,2z"/>
<linearGradient id="SVGID_2_" gradientUnits="userSpaceOnUse" x1="-152.5453" y1="2.6007" x2="-139.6095" y2="2.6007" gradientTransform="matrix(-0.9324 -0.3614 -0.3614 0.9324 -123.3212 -6.481)">
	<stop  offset="0" style="stop-color:#D8E0F0"/>
	<stop  offset="7.125271e-03" style="stop-color:#DAE1F1"/>
	<stop  offset="0.1067" style="stop-color:#EEF2F9"/>
	<stop  offset="0.2051" style="stop-color:#FBFCFD"/>
	<stop  offset="0.3" style="stop-color:#FFFFFF"/>
	<stop  offset="0.7" style="stop-color:#FFFFFF"/>
	<stop  offset="0.7949" style="stop-color:#FBFCFD"/>
	<stop  offset="0.8933" style="stop-color:#EEF2F9"/>
	<stop  offset="0.9929" style="stop-color:#DAE1F1"/>
	<stop  offset="1" style="stop-color:#D8E0F0"/>
</linearGradient>
<path class="st1" d="M5.81,46.65l11.65,2.46l0.48,2.02L7,48.59C7,48.59,6.33,47.75,5.81,46.65z"/>
<linearGradient id="SVGID_3_" gradientUnits="userSpaceOnUse" x1="-240.0199" y1="36.4549" x2="-221.9679" y2="36.4549" gradientTransform="matrix(-0.9525 -0.3045 -0.3045 0.9525 -199.0935 -70.1638)">
	<stop  offset="0" style="stop-color:#D8E0F0"/>
	<stop  offset="7.125271e-03" style="stop-color:#DAE1F1"/>
	<stop  offset="0.1067" style="stop-color:#EEF2F9"/>
	<stop  offset="0.2051" style="stop-color:#FBFCFD"/>
	<stop  offset="0.3" style="stop-color:#FFFFFF"/>
	<stop  offset="0.7" style="stop-color:#FFFFFF"/>
	<stop  offset="0.7949" style="stop-color:#FBFCFD"/>
	<stop  offset="0.8933" style="stop-color:#EEF2F9"/>
	<stop  offset="0.9929" style="stop-color:#DAE1F1"/>
	<stop  offset="1" style="stop-color:#D8E0F0"/>
</linearGradient>
<path class="st2" d="M16.92,40.2c-10.11-4.04-14.91-9-14.91-9c0-1,0.1-1.82,0.1-1.82s5.15,4.61,15.42,8.9
	C18.34,38.63,17.73,40.53,16.92,40.2z"/>
<path class="st3" d="M36.39,26.41c3.31-1.64,8.6-0.86,11.35,2c0.64,0.66,1.91,0.51,1.75-0.16c-1.65-6.81-10.83-8.42-14.7-2.59
	C34.42,26.23,35.57,26.81,36.39,26.41z"/>
<path class="st3" d="M27.61,26.41c-3.31-1.64-8.6-0.86-11.36,2c-0.64,0.66-1.91,0.51-1.75-0.16c1.65-6.81,10.83-8.42,14.7-2.59
	C29.59,26.23,28.43,26.81,27.61,26.41z"/>
<linearGradient id="SVGID_4_" gradientUnits="userSpaceOnUse" x1="740.417" y1="348.7146" x2="753.3528" y2="348.7146" gradientTransform="matrix(0.9324 -0.3614 0.3614 0.9324 -770.3624 -6.481)">
	<stop  offset="0" style="stop-color:#D8E0F0"/>
	<stop  offset="7.125271e-03" style="stop-color:#DAE1F1"/>
	<stop  offset="0.1067" style="stop-color:#EEF2F9"/>
	<stop  offset="0.2051" style="stop-color:#FBFCFD"/>
	<stop  offset="0.3" style="stop-color:#FFFFFF"/>
	<stop  offset="0.7" style="stop-color:#FFFFFF"/>
	<stop  offset="0.7949" style="stop-color:#FBFCFD"/>
	<stop  offset="0.8933" style="stop-color:#EEF2F9"/>
	<stop  offset="0.9929" style="stop-color:#DAE1F1"/>
	<stop  offset="1" style="stop-color:#D8E0F0"/>
</linearGradient>
<path class="st4" d="M58.19,46.65l-11.65,2.46l-0.48,2.02L57,48.59C57,48.59,57.67,47.75,58.19,46.65z"/>
<linearGradient id="SVGID_5_" gradientUnits="userSpaceOnUse" x1="672.1951" y1="328.0764" x2="690.2472" y2="328.0764" gradientTransform="matrix(0.9525 -0.3045 0.3045 0.9525 -694.5901 -70.1638)">
	<stop  offset="0" style="stop-color:#D8E0F0"/>
	<stop  offset="7.125271e-03" style="stop-color:#DAE1F1"/>
	<stop  offset="0.1067" style="stop-color:#EEF2F9"/>
	<stop  offset="0.2051" style="stop-color:#FBFCFD"/>
	<stop  offset="0.3" style="stop-color:#FFFFFF"/>
	<stop  offset="0.7" style="stop-color:#FFFFFF"/>
	<stop  offset="0.7949" style="stop-color:#FBFCFD"/>
	<stop  offset="0.8933" style="stop-color:#EEF2F9"/>
	<stop  offset="0.9929" style="stop-color:#DAE1F1"/>
	<stop  offset="1" style="stop-color:#D8E0F0"/>
</linearGradient>
<path class="st5" d="M47.08,40.2c10.11-4.04,14.91-9,14.91-9c0-1-0.1-1.82-0.1-1.82s-5.15,4.61-15.42,8.9
	C45.66,38.63,46.27,40.53,47.08,40.2z"/>
<linearGradient id="SVGID_6_" gradientUnits="userSpaceOnUse" x1="32" y1="59.1465" x2="32" y2="32.0029">
	<stop  offset="0" style="stop-color:#AEDCFB"/>
	<stop  offset="1" style="stop-color:#D6EFFF"/>
</linearGradient>
<path class="st6" d="M50.16,38.5C47.49,35.25,36.67,32,32,32s-15.49,3.25-18.16,6.5c-1.05,1.28-0.73,9.52-0.16,11.6
	c1.5,5.5,11.95,9.04,18.32,9.04c6.37,0,16.81-3.54,18.32-9.04C50.89,48.02,51.21,39.78,50.16,38.5z"/>
<path class="st7" d="M32,50.25c-5.29,0-12.77-1.48-17.92-4.02c3.5,4.13,12.24,6.67,17.92,6.67c5.68,0,14.42-2.54,17.92-6.67
	C44.77,48.76,37.29,50.25,32,50.25z"/>
<path class="st7" d="M49.92,44.06C46.42,42,37.68,40.73,32,40.73c-5.68,0-14.42,1.27-17.92,3.34
	C19.23,42.79,44.77,42.79,49.92,44.06z"/>
<path class="st7" d="M49.29,40.46c0,0-2.38-1.5-8.09-1.84c5.04,1.35,7.97,2.84,7.97,2.84L49.29,40.46z"/>
<path class="st7" d="M14.71,40.46c0,0,2.37-1.5,8.09-1.84c-5.04,1.35-7.97,2.84-7.97,2.84L14.71,40.46z"/>
<path class="st7" d="M49.9,45.65c0,0-1.73,1.16-5.91,0.76c3.68-0.67,5.81-1.76,5.81-1.76L49.9,45.65z"/>
<path class="st7" d="M14.1,45.65c0,0,1.73,1.16,5.91,0.76c-3.68-0.67-5.81-1.76-5.81-1.76L14.1,45.65z"/>
<path class="st7" d="M32,54.68c-5.55,0-13.56-3-18.55-5.9c0.07,0.55,0.15,1.01,0.23,1.32c1.5,5.5,11.95,9.04,18.32,9.04
	c6.37,0,16.81-3.54,18.32-9.04c0.09-0.31,0.16-0.78,0.23-1.32C45.56,51.68,37.55,54.68,32,54.68z"/>
<path class="st8" d="M32,34c4.45,0,14.26,3.14,16.53,5.67c0.52,1.43,0.36,8.1-0.14,9.91c-1.1,4.01-10.08,7.57-16.39,7.57
	c-6.31,0-15.29-3.57-16.39-7.57c-0.49-1.8-0.66-8.47-0.14-9.91C17.74,37.14,27.55,34,32,34 M32,32c-4.67,0-15.49,3.25-18.16,6.5
	c-1.05,1.28-0.73,9.52-0.16,11.6c1.5,5.5,11.95,9.04,18.32,9.04c6.37,0,16.81-3.54,18.32-9.04c0.57-2.08,0.89-10.32-0.16-11.6
	C47.49,35.25,36.67,32,32,32L32,32z"/>
</svg>
