<?xml version="1.0" encoding="utf-8"?>
<!-- Generator: Adobe Illustrator 24.1.2, SVG Export Plug-In . SVG Version: 6.00 Build 0)  -->
<svg version="1.1" id="Layer_1" xmlns="http://www.w3.org/2000/svg" xmlns:xlink="http://www.w3.org/1999/xlink" x="0px" y="0px"
	 width="64px" height="64px" viewBox="0 0 64 64" style="enable-background:new 0 0 64 64;" xml:space="preserve">
<style type="text/css">
	.st0{fill:url(#SVGID_1_);}
	.st1{fill:#FFFFFF;}
	.st2{fill:url(#SVGID_2_);}
	.st3{fill:#99A8AE;}
</style>
<linearGradient id="SVGID_1_" gradientUnits="userSpaceOnUse" x1="32" y1="59.8224" x2="32" y2="2">
	<stop  offset="0.4485" style="stop-color:#FFB800"/>
	<stop  offset="0.85" style="stop-color:#0066FF"/>
</linearGradient>
<path class="st0" d="M32,2C16.54,2,4,14.76,4,30.5c0,3.75,1.93,4.83,1.93,4.83s15.82,14.91,19.32,21.4c2.22,4.12,11.27,4.12,13.49,0
	c3.5-6.49,19.33-21.4,19.33-21.4S60,34.25,60,30.5C60,14.76,47.47,2,32,2z"/>
<path class="st1" d="M50.04,20.23c2.61,4.51,1.79,9.86-1.82,11.94c-3.61,2.08-8.65,0.12-11.25-4.4c-2.61-4.51-1.79-9.86,1.82-11.94
	C42.39,13.75,47.43,15.72,50.04,20.23z"/>
<path class="st1" d="M27.04,27.77c-2.6,4.51-7.64,6.48-11.25,4.39c-3.61-2.08-4.42-7.43-1.82-11.94c2.6-4.51,7.64-6.48,11.25-4.4
	C28.82,17.92,29.64,23.26,27.04,27.77z"/>
<linearGradient id="SVGID_2_" gradientUnits="userSpaceOnUse" x1="32" y1="55.8825" x2="32" y2="33.8826">
	<stop  offset="0.1273" style="stop-color:#AB5C10"/>
	<stop  offset="0.2379" style="stop-color:#8C4D15"/>
	<stop  offset="0.4034" style="stop-color:#63391B"/>
	<stop  offset="0.566" style="stop-color:#432A20"/>
	<stop  offset="0.7224" style="stop-color:#2C1F23"/>
	<stop  offset="0.8701" style="stop-color:#1F1825"/>
	<stop  offset="1" style="stop-color:#1A1626"/>
</linearGradient>
<path class="st2" d="M32,33.88c-3.42-0.07-8.6,17.07-4.48,20.92c1.55,1.45,7.41,1.45,8.96,0C40.6,50.95,35.42,33.82,32,33.88z"/>
<path class="st1" d="M5,34.1c0-3.66,4.56-3.62,5.08,0c1.63,11.39,6.11,9.56,10.47,13.35c2.78,2.42,3.59,5.78,3.59,10.48
	c0,4.12-10.46,4.12-10.46,0c0-2.35,0-3.36,0-3.36C11.38,53.38,5,50.67,5,34.1z"/>
<path class="st3" d="M18.91,62c-3.66,0-6.21-1.67-6.21-4.07v-2.76C9.86,53.7,4.02,50.14,4.02,34.1c0-2.44,1.67-3.71,3.32-3.71
	c1.54,0,3.36,1.12,3.71,3.57c1.1,7.7,3.41,8.87,6.32,10.34c1.18,0.59,2.51,1.27,3.82,2.41c3.46,3.01,3.93,7.37,3.93,11.23
	C25.12,60.33,22.57,62,18.91,62z M7.33,32.35c-0.65,0-1.35,0.46-1.35,1.75c0,15.46,5.54,18.27,7.91,19.48l0.76,0.39v3.96
	c0,1.37,2.19,2.11,4.25,2.11c2.06,0,4.25-0.74,4.25-2.11c0-4.91-0.94-7.73-3.26-9.74c-1.13-0.98-2.29-1.57-3.42-2.14
	c-3.15-1.59-6.13-3.1-7.38-11.81C8.92,32.93,8.08,32.35,7.33,32.35z"/>
<path class="st1" d="M59,34.1c0-3.66-4.56-3.62-5.08,0c-1.63,11.39-6.11,9.56-10.47,13.35c-2.78,2.42-3.59,5.78-3.59,10.48
	c0,4.12,10.46,4.12,10.46,0c0-2.35,0-3.37,0-3.37C52.62,53.38,59,50.67,59,34.1z"/>
<path class="st3" d="M45.09,62c-3.66,0-6.21-1.67-6.21-4.07c0-3.86,0.47-8.21,3.93-11.23c1.31-1.14,2.64-1.81,3.82-2.41
	c2.92-1.47,5.22-2.64,6.32-10.34c0.35-2.45,2.17-3.57,3.71-3.57c1.65,0,3.32,1.28,3.32,3.71c0,16.05-5.84,19.61-8.67,21.07v2.76
	C51.31,60.33,48.75,62,45.09,62z M56.67,32.35c-0.75,0-1.58,0.58-1.77,1.89c-1.25,8.72-4.23,10.22-7.38,11.81
	c-1.13,0.57-2.29,1.16-3.42,2.14c-2.31,2.01-3.26,4.83-3.26,9.74c0,1.37,2.19,2.11,4.25,2.11c2.06,0,4.25-0.74,4.25-2.11v-3.96
	l0.76-0.39c2.37-1.2,7.91-4.02,7.91-19.48C58.02,32.81,57.32,32.35,56.67,32.35z"/>
</svg>
