<?xml version="1.0" encoding="utf-8"?>
<!-- Generator: Adobe Illustrator 24.1.2, SVG Export Plug-In . SVG Version: 6.00 Build 0)  -->
<svg version="1.1" id="Layer_1" xmlns="http://www.w3.org/2000/svg" xmlns:xlink="http://www.w3.org/1999/xlink" x="0px" y="0px"
	 width="64px" height="64px" viewBox="0 0 64 64" style="enable-background:new 0 0 64 64;" xml:space="preserve">
<style type="text/css">
	.st0{fill:url(#SVGID_1_);}
	.st1{fill:#1A1626;}
</style>
<linearGradient id="SVGID_1_" gradientUnits="userSpaceOnUse" x1="32" y1="62" x2="32" y2="2">
	<stop  offset="0" style="stop-color:#FF9500"/>
	<stop  offset="0.1919" style="stop-color:#FFAD00"/>
	<stop  offset="0.5455" style="stop-color:#FFD500"/>
	<stop  offset="0.8272" style="stop-color:#FFED00"/>
	<stop  offset="1" style="stop-color:#FFF600"/>
</linearGradient>
<circle class="st0" cx="32" cy="32" r="30"/>
<path class="st1" d="M45.08,34.07c-1.85,0-3.79-0.72-5.56-2.49c-3.13-3.13-2.46-7.17-0.25-9.38c1.92-1.92,5.27-2.72,8.06,0.08
	c2.01,2.01,1.63,4.56,0.25,5.94c-1.23,1.23-3.36,1.58-5.07-0.12c-0.51-0.51-0.51-1.34,0-1.85c0.51-0.51,1.34-0.51,1.86,0
	c0.61,0.61,1.08,0.4,1.36,0.12c0.48-0.48,0.6-1.38-0.25-2.23c-1.63-1.63-3.32-1.11-4.35-0.08c-1.31,1.31-1.78,3.64,0.25,5.67
	c2.8,2.8,5.87,1.73,7.64-0.04c2.37-2.37,3.07-6.48-0.19-9.74c-3.78-3.78-8.66-2.28-11.81,0.87c-0.51,0.51-1.34,0.51-1.86,0
	c-0.51-0.51-0.51-1.34,0-1.85c4.83-4.83,11.21-5.19,15.53-0.87c4.43,4.43,3.4,10.23,0.19,13.45C49.38,33.04,47.3,34.07,45.08,34.07z
	"/>
<path class="st1" d="M22.25,34.96c-6.83,0-11.59-4.26-11.6-10.36c0-6.26,4.83-9.64,9.38-9.64c0,0,0,0,0,0c3.88,0,8.05,2.5,8.05,8
	c0,4.42-3.33,6.81-6.46,6.81h0c-2.72,0-5.64-1.8-5.64-5.76c0-2.84,2.08-4.37,4.02-4.37c0,0,0,0,0,0c1.74,0,3.5,1.26,3.5,3.67
	c0,0.72-0.59,1.31-1.31,1.31c-0.72,0-1.31-0.59-1.31-1.31c0-0.87-0.47-1.05-0.87-1.05l0,0c-0.67,0-1.4,0.55-1.4,1.75
	c0,2.31,1.56,3.13,3.02,3.13h0c1.85,0,3.83-1.31,3.83-4.18c0-3.97-2.93-5.37-5.43-5.37c-3.36,0-6.76,2.41-6.76,7.02
	c0,5.34,4.51,7.73,8.97,7.73l0,0c0.73,0,1.31,0.59,1.31,1.31C23.57,34.38,22.98,34.96,22.25,34.96z"/>
<path class="st1" d="M42.59,49.64c-1.81,0-2.94-1.42-3.84-2.57c-0.45-0.57-1.13-1.43-1.49-1.43c-0.35,0-1.01,0.85-1.44,1.42
	c-0.89,1.15-2,2.58-3.82,2.58c-1.82,0-2.93-1.43-3.82-2.58c-0.44-0.56-1.1-1.42-1.44-1.42c-0.36,0-1.04,0.86-1.49,1.43
	c-0.91,1.14-2.03,2.57-3.84,2.57c-3.12,0-4.65-3.9-4.81-4.34c-0.29-0.78,0.11-1.64,0.89-1.93c0.77-0.29,1.64,0.11,1.92,0.88
	c0.37,0.97,1.29,2.38,2,2.38c0.36,0,1.04-0.86,1.49-1.43c0.91-1.14,2.03-2.57,3.84-2.57c1.82,0,2.93,1.43,3.82,2.58
	c0.44,0.56,1.1,1.42,1.44,1.42c0.35,0,1.01-0.85,1.45-1.42c0.89-1.15,2-2.58,3.82-2.58c1.81,0,2.94,1.43,3.84,2.57
	c0.45,0.57,1.13,1.43,1.49,1.43c0.71,0,1.64-1.41,2-2.38c0.29-0.77,1.15-1.17,1.93-0.88c0.78,0.29,1.17,1.15,0.88,1.92
	C47.24,45.75,45.71,49.64,42.59,49.64z"/>
</svg>
