<?xml version="1.0" encoding="utf-8"?>
<!-- Generator: Adobe Illustrator 24.1.2, SVG Export Plug-In . SVG Version: 6.00 Build 0)  -->
<svg version="1.1" id="Layer_1" xmlns="http://www.w3.org/2000/svg" xmlns:xlink="http://www.w3.org/1999/xlink" x="0px" y="0px"
	 width="64px" height="64px" viewBox="0 0 64 64" style="enable-background:new 0 0 64 64;" xml:space="preserve">
<style type="text/css">
	.st0{fill:#3AB0A2;}
	.st1{fill:url(#SVGID_1_);}
	.st2{fill:#CFA47C;}
	.st3{fill:url(#SVGID_2_);}
</style>
<path class="st0" d="M1.11,47.91c1.54-0.86,6.6-3.87,8.62-5.09c2.93-1.77,17.32,9.05,15.65,12.37c-0.44,0.88-6.41,6.13-9.8,8.32
	C10.27,66.96-4.07,50.81,1.11,47.91z"/>
<radialGradient id="SVGID_1_" cx="652.3107" cy="16.1627" r="21.4358" gradientTransform="matrix(-1.2524 0 0 1.6162 836.5477 -9.9953)" gradientUnits="userSpaceOnUse">
	<stop  offset="0.4364" style="stop-color:#FFD8B4"/>
	<stop  offset="0.6378" style="stop-color:#FDD5B1"/>
	<stop  offset="0.788" style="stop-color:#F5CDA7"/>
	<stop  offset="0.9213" style="stop-color:#E9BF97"/>
	<stop  offset="1" style="stop-color:#DEB38A"/>
</radialGradient>
<path class="st1" d="M8.95,45.46c0,0,10.51-4.78,11.66-11.14c1.6-8.85,5.87-24.89,5.87-31.43c0-2.79,5.52-3.34,5.52,1.29
	c0,0,0,31.3,0,40.11c0,7.48-11.52,11.17-11.52,11.17S9.13,48.42,8.95,45.46z"/>
<path class="st2" d="M20.36,56.29l-0.31-0.19C18.1,54.89,8.37,48.68,8.17,45.51L8.14,45l0.48-0.22c0.1-0.05,10.16-4.69,11.23-10.59
	c0.53-2.95,1.36-6.67,2.23-10.61c1.7-7.69,3.63-16.4,3.63-20.69c0-1.81,1.69-2.9,3.32-2.9c1.86,0,3.75,1.3,3.75,4.19V44.3
	c0,7.94-11.56,11.72-12.06,11.88L20.36,56.29z M9.85,45.87c0.93,1.99,6.52,6.12,10.72,8.76c1.86-0.67,10.65-4.18,10.65-10.33V4.19
	c0-0.91-0.25-1.64-0.72-2.1c-0.38-0.37-0.9-0.58-1.48-0.58c-0.86,0-1.78,0.49-1.78,1.39c0,4.44-1.86,12.86-3.66,21
	c-0.87,3.92-1.69,7.63-2.22,10.55C20.31,40.31,12.13,44.74,9.85,45.87z"/>
<path class="st0" d="M10.43,42.68c0.42,4.67,10.02,12,14.98,11.47C25.82,61.71-1.44,48.96,10.43,42.68z"/>
<path class="st2" d="M24.4,31c-0.45-6.24,2.03-8.27,2.03-20.03c0-2.59,1.63-3.95,3.23-3.95c1.54,0,3.11,1.27,3.11,3.7h-1.55
	c0-2.31-1.79-2.65-2.65-1.66c-0.39,0.44-0.59,1.1-0.59,1.91C27.98,22.07,25.07,24.46,24.4,31z"/>
<path class="st2" d="M29.97,32.84c0.81-2.35,1.45-4.32,1.45-6.6c0-0.85,1.35-0.27,1.35,0C32.77,28.58,31.56,30.85,29.97,32.84z"/>
<path class="st0" d="M62.89,47.91c-1.54-0.86-6.6-3.87-8.62-5.09c-2.93-1.77-17.32,9.05-15.65,12.37c0.44,0.88,6.41,6.13,9.8,8.32
	C53.73,66.96,68.07,50.81,62.89,47.91z"/>
<radialGradient id="SVGID_2_" cx="311.9527" cy="16.1627" r="21.4358" gradientTransform="matrix(1.2524 0 0 1.6162 -346.2833 -9.9953)" gradientUnits="userSpaceOnUse">
	<stop  offset="0.4364" style="stop-color:#FFD8B4"/>
	<stop  offset="0.6378" style="stop-color:#FDD5B1"/>
	<stop  offset="0.788" style="stop-color:#F5CDA7"/>
	<stop  offset="0.9213" style="stop-color:#E9BF97"/>
	<stop  offset="1" style="stop-color:#DEB38A"/>
</radialGradient>
<path class="st3" d="M55.05,45.46c0,0-10.51-4.78-11.66-11.14c-1.6-8.85-5.87-24.89-5.87-31.43c0-2.79-5.52-3.34-5.52,1.29
	c0,0,0,31.3,0,40.11c0,7.48,11.52,11.17,11.52,11.17S54.87,48.42,55.05,45.46z"/>
<path class="st2" d="M43.29,56.18c-0.49-0.16-12.06-3.95-12.06-11.88V4.19c0-2.9,1.88-4.19,3.75-4.19c1.63,0,3.32,1.08,3.32,2.9
	c0,4.28,1.93,13,3.63,20.69c0.87,3.94,1.69,7.66,2.23,10.61c1.07,5.9,11.12,10.54,11.23,10.59L55.86,45l-0.03,0.51
	c-0.2,3.18-9.93,9.38-11.88,10.59l-0.31,0.19L43.29,56.18z M42.63,34.45c-0.53-2.92-1.35-6.63-2.22-10.55
	c-1.8-8.14-3.66-16.56-3.66-21c0-0.9-0.92-1.39-1.78-1.39c-0.57,0-1.1,0.21-1.48,0.58c-0.47,0.47-0.72,1.19-0.72,2.1V44.3
	c0,6.15,8.8,9.66,10.65,10.33c4.19-2.64,9.79-6.78,10.72-8.76C51.87,44.74,43.69,40.31,42.63,34.45z"/>
<path class="st0" d="M53.57,42.68c-0.42,4.67-10.02,12-14.98,11.47C38.18,61.71,65.44,48.96,53.57,42.68z"/>
<path class="st2" d="M39.6,31c0.45-6.24-2.03-8.27-2.03-20.03c0-2.59-1.63-3.95-3.23-3.95c-1.54,0-3.11,1.27-3.11,3.7h1.55
	c0-2.31,1.79-2.65,2.65-1.66c0.38,0.44,0.59,1.1,0.59,1.91C36.02,22.07,38.93,24.46,39.6,31z"/>
<path class="st2" d="M34.03,32.84c-0.81-2.35-1.45-4.32-1.45-6.6c0-0.85-1.35-0.27-1.35,0C31.23,28.58,32.44,30.85,34.03,32.84z"/>
</svg>
