<?xml version="1.0" encoding="utf-8"?>
<!-- Generator: Adobe Illustrator 15.0.0, SVG Export Plug-In . SVG Version: 6.00 Build 0)  -->
<!DOCTYPE svg PUBLIC "-//W3C//DTD SVG 1.1//EN" "http://www.w3.org/Graphics/SVG/1.1/DTD/svg11.dtd" [
	<!ENTITY ns_flows "http://ns.adobe.com/Flows/1.0/">
	<!ENTITY ns_extend "http://ns.adobe.com/Extensibility/1.0/">
	<!ENTITY ns_ai "http://ns.adobe.com/AdobeIllustrator/10.0/">
	<!ENTITY ns_graphs "http://ns.adobe.com/Graphs/1.0/">
]>
<svg version="1.1" id="Layer_1" xmlns:x="&ns_extend;" xmlns:i="&ns_ai;" xmlns:graph="&ns_graphs;"
	 xmlns="http://www.w3.org/2000/svg" xmlns:xlink="http://www.w3.org/1999/xlink" xmlns:a="http://ns.adobe.com/AdobeSVGViewerExtensions/3.0/"
	 x="0px" y="0px" width="64px" height="64px" viewBox="0 0 64 64" enable-background="new 0 0 64 64" xml:space="preserve">
<path fill="#FFE600" d="M6.173,2.005c6.371-0.135,17.514,2.646,17.514,2.646L11.159,21.164c0,0-6.682-6.436-8.139-16.807
	C2.819,2.916,4.106,2.049,6.173,2.005z"/>
<linearGradient id="SVGID_1_" gradientUnits="userSpaceOnUse" x1="617.9697" y1="-80.9346" x2="636.4618" y2="-80.9346" gradientTransform="matrix(-0.9659 0.2588 0.2588 0.9659 640.7125 -73.3934)">
	<stop  offset="0" style="stop-color:#BA0085;stop-opacity:0.7"/>
	<stop  offset="1" style="stop-color:#FF87F3;stop-opacity:0.5"/>
	<a:midPointStop  offset="0" style="stop-color:#BA0085;stop-opacity:0.7"/>
	<a:midPointStop  offset="0.5" style="stop-color:#BA0085;stop-opacity:0.7"/>
	<a:midPointStop  offset="1" style="stop-color:#FF87F3;stop-opacity:0.5"/>
</linearGradient>
<path fill="url(#SVGID_1_)" d="M6.839,3.53c4.857,1.045,9.664,4.042,13.008,6.525L11.7,21.065c0,0-5.74-5.548-7.768-15.498
	C3.597,3.935,4.388,3.002,6.839,3.53z"/>
<path fill="#FFE600" d="M57.829,2.006C51.454,1.87,40.312,4.651,40.312,4.651l12.527,16.513c0,0,6.686-6.435,8.141-16.806
	C61.183,2.916,59.892,2.049,57.829,2.006z"/>
<linearGradient id="SVGID_2_" gradientUnits="userSpaceOnUse" x1="-2.4199" y1="96.7178" x2="16.0728" y2="96.7178" gradientTransform="matrix(0.9659 0.2588 -0.2588 0.9659 68.4985 -84.4315)">
	<stop  offset="0" style="stop-color:#BA0085;stop-opacity:0.7"/>
	<stop  offset="1" style="stop-color:#FF87F3;stop-opacity:0.5"/>
	<a:midPointStop  offset="0" style="stop-color:#BA0085;stop-opacity:0.7"/>
	<a:midPointStop  offset="0.5" style="stop-color:#BA0085;stop-opacity:0.7"/>
	<a:midPointStop  offset="1" style="stop-color:#FF87F3;stop-opacity:0.5"/>
</linearGradient>
<path fill="url(#SVGID_2_)" d="M57.161,3.53c-4.859,1.045-9.666,4.042-13.008,6.525l8.146,11.01c0,0,5.74-5.548,7.768-15.497
	C60.403,3.936,59.61,3.002,57.161,3.53z"/>
<path fill="#FFE600" d="M27.665,11.986c-5.43-4.721-12.172-3.898-15.52-3.066c-1.512,0.375-1.74,0.723-0.643,1.5
	c1.613,1.145,3.355,3.018,4.801,5.855C18.104,19.801,29.987,14.012,27.665,11.986z"/>
<path fill="#FFE600" d="M25.79,12.086c-6.336-3.174-12.689-0.619-15.748,1.053c-1.379,0.758-1.523,1.152-0.279,1.623
	c1.82,0.691,3.934,2.055,5.979,4.434C18.288,22.15,28.501,13.443,25.79,12.086z"/>
<path fill="#FFE600" d="M36.382,11.986c5.43-4.721,12.174-3.898,15.52-3.066c1.512,0.375,1.74,0.723,0.643,1.5
	c-1.613,1.145-3.355,3.018-4.801,5.855C45.944,19.801,34.06,14.012,36.382,11.986z"/>
<path fill="#FFE600" d="M38.257,12.086c6.336-3.174,12.689-0.619,15.748,1.053c1.379,0.758,1.523,1.152,0.279,1.623
	c-1.82,0.691-3.934,2.055-5.979,4.434C45.759,22.15,35.548,13.443,38.257,12.086z"/>
<linearGradient id="SVGID_3_" gradientUnits="userSpaceOnUse" x1="32.0249" y1="55.5479" x2="32.0249" y2="2.0259">
	<stop  offset="0" style="stop-color:#FF9900"/>
	<stop  offset="0.7212" style="stop-color:#FFE600"/>
	<a:midPointStop  offset="0" style="stop-color:#FF9900"/>
	<a:midPointStop  offset="0.5" style="stop-color:#FF9900"/>
	<a:midPointStop  offset="0.7212" style="stop-color:#FFE600"/>
</linearGradient>
<path fill="url(#SVGID_3_)" d="M32.024,2.025c-21.668,0-29.846,28.34-26.139,39.28c2.811,8.305,20.48,14.242,26.139,14.242
	c5.656,0,23.328-5.938,26.139-14.242C61.87,30.365,53.69,2.025,32.024,2.025z"/>
<linearGradient id="SVGID_4_" gradientUnits="userSpaceOnUse" x1="32.0239" y1="14.2837" x2="32.0239" y2="2.0005">
	<stop  offset="0" style="stop-color:#DE9400;stop-opacity:0.5"/>
	<stop  offset="1" style="stop-color:#DE9400"/>
	<a:midPointStop  offset="0" style="stop-color:#DE9400;stop-opacity:0.5"/>
	<a:midPointStop  offset="0.5" style="stop-color:#DE9400;stop-opacity:0.5"/>
	<a:midPointStop  offset="1" style="stop-color:#DE9400"/>
</linearGradient>
<path fill="url(#SVGID_4_)" d="M30.259,2.109c0,0,1.766-0.245,3.529,0C33.788,18.342,30.259,18.342,30.259,2.109z"/>
<linearGradient id="SVGID_5_" gradientUnits="userSpaceOnUse" x1="26.5854" y1="10.1499" x2="26.5854" y2="2.3467">
	<stop  offset="0" style="stop-color:#DE9400;stop-opacity:0.5"/>
	<stop  offset="1" style="stop-color:#DE9400"/>
	<a:midPointStop  offset="0" style="stop-color:#DE9400;stop-opacity:0.5"/>
	<a:midPointStop  offset="0.5" style="stop-color:#DE9400;stop-opacity:0.5"/>
	<a:midPointStop  offset="1" style="stop-color:#DE9400"/>
</linearGradient>
<path fill="url(#SVGID_5_)" d="M28.124,2.347c0,0-1.574,0.214-2.893,0.688C24.397,12.834,26.575,12.424,28.124,2.347z"/>
<linearGradient id="SVGID_6_" gradientUnits="userSpaceOnUse" x1="655.1367" y1="10.1499" x2="655.1367" y2="2.3467" gradientTransform="matrix(-1 0 0 1 692.5996 0)">
	<stop  offset="0" style="stop-color:#DE9400;stop-opacity:0.5"/>
	<stop  offset="1" style="stop-color:#DE9400"/>
	<a:midPointStop  offset="0" style="stop-color:#DE9400;stop-opacity:0.5"/>
	<a:midPointStop  offset="0.5" style="stop-color:#DE9400;stop-opacity:0.5"/>
	<a:midPointStop  offset="1" style="stop-color:#DE9400"/>
</linearGradient>
<path fill="url(#SVGID_6_)" d="M35.925,2.347c0,0,1.574,0.214,2.895,0.688C39.649,12.834,37.474,12.424,35.925,2.347z"/>
<linearGradient id="SVGID_7_" gradientUnits="userSpaceOnUse" x1="52.4766" y1="39.5371" x2="58.876" y2="39.5371">
	<stop  offset="0" style="stop-color:#DE9400;stop-opacity:0.5"/>
	<stop  offset="1" style="stop-color:#DE9400"/>
	<a:midPointStop  offset="0" style="stop-color:#DE9400;stop-opacity:0.5"/>
	<a:midPointStop  offset="0.5" style="stop-color:#DE9400;stop-opacity:0.5"/>
	<a:midPointStop  offset="1" style="stop-color:#DE9400"/>
</linearGradient>
<path fill="url(#SVGID_7_)" d="M58.876,37.938c0,0-0.154,1.889-0.658,3.2C50.122,40.32,50.812,38.211,58.876,37.938z"/>
<linearGradient id="SVGID_8_" gradientUnits="userSpaceOnUse" x1="52.6445" y1="44.0117" x2="57.6748" y2="44.0117">
	<stop  offset="0" style="stop-color:#DE9400;stop-opacity:0.5"/>
	<stop  offset="1" style="stop-color:#DE9400"/>
	<a:midPointStop  offset="0" style="stop-color:#DE9400;stop-opacity:0.5"/>
	<a:midPointStop  offset="0.5" style="stop-color:#DE9400;stop-opacity:0.5"/>
	<a:midPointStop  offset="1" style="stop-color:#DE9400"/>
</linearGradient>
<path fill="url(#SVGID_8_)" d="M57.675,42.454c0,0-1.049,2.018-2.371,3.139C50.913,43.242,52.136,42.258,57.675,42.454z"/>
<linearGradient id="SVGID_9_" gradientUnits="userSpaceOnUse" x1="55.3193" y1="35.0674" x2="59.0039" y2="35.0674">
	<stop  offset="0" style="stop-color:#DE9400;stop-opacity:0.5"/>
	<stop  offset="1" style="stop-color:#DE9400"/>
	<a:midPointStop  offset="0" style="stop-color:#DE9400;stop-opacity:0.5"/>
	<a:midPointStop  offset="0.5" style="stop-color:#DE9400;stop-opacity:0.5"/>
	<a:midPointStop  offset="1" style="stop-color:#DE9400"/>
</linearGradient>
<path fill="url(#SVGID_9_)" d="M58.991,36.505c0,0,0.033-2.159-0.006-2.875C53.735,34.852,54.472,36.244,58.991,36.505z"/>
<linearGradient id="SVGID_10_" gradientUnits="userSpaceOnUse" x1="681.6113" y1="39.5371" x2="688.0107" y2="39.5371" gradientTransform="matrix(-1 0 0 1 693.1836 0)">
	<stop  offset="0" style="stop-color:#DE9400;stop-opacity:0.5"/>
	<stop  offset="1" style="stop-color:#DE9400"/>
	<a:midPointStop  offset="0" style="stop-color:#DE9400;stop-opacity:0.5"/>
	<a:midPointStop  offset="0.5" style="stop-color:#DE9400;stop-opacity:0.5"/>
	<a:midPointStop  offset="1" style="stop-color:#DE9400"/>
</linearGradient>
<path fill="url(#SVGID_10_)" d="M5.173,37.938c0,0,0.154,1.889,0.658,3.2C13.927,40.32,13.235,38.211,5.173,37.938z"/>
<linearGradient id="SVGID_11_" gradientUnits="userSpaceOnUse" x1="681.7813" y1="44.0117" x2="686.8115" y2="44.0117" gradientTransform="matrix(-1 0 0 1 693.1836 0)">
	<stop  offset="0" style="stop-color:#DE9400;stop-opacity:0.5"/>
	<stop  offset="1" style="stop-color:#DE9400"/>
	<a:midPointStop  offset="0" style="stop-color:#DE9400;stop-opacity:0.5"/>
	<a:midPointStop  offset="0.5" style="stop-color:#DE9400;stop-opacity:0.5"/>
	<a:midPointStop  offset="1" style="stop-color:#DE9400"/>
</linearGradient>
<path fill="url(#SVGID_11_)" d="M6.372,42.454c0,0,1.051,2.018,2.373,3.139C13.134,43.242,11.911,42.258,6.372,42.454z"/>
<linearGradient id="SVGID_12_" gradientUnits="userSpaceOnUse" x1="684.4551" y1="35.0674" x2="688.1387" y2="35.0674" gradientTransform="matrix(-1 0 0 1 693.1836 0)">
	<stop  offset="0" style="stop-color:#DE9400;stop-opacity:0.5"/>
	<stop  offset="1" style="stop-color:#DE9400"/>
	<a:midPointStop  offset="0" style="stop-color:#DE9400;stop-opacity:0.5"/>
	<a:midPointStop  offset="0.5" style="stop-color:#DE9400;stop-opacity:0.5"/>
	<a:midPointStop  offset="1" style="stop-color:#DE9400"/>
</linearGradient>
<path fill="url(#SVGID_12_)" d="M5.058,36.505c0,0-0.033-2.159,0.006-2.875C10.312,34.852,9.577,36.244,5.058,36.505z"/>
<path fill="#C4810A" d="M36.733,29.314c-0.943-1-8.475-1-9.418,0c-1.441,1.518,2.844,4.229,4.711,4.229
	C33.892,33.543,38.177,30.832,36.733,29.314z"/>
<path fill="#DE9400" d="M19.101,14.801c5.318,0,7.402,4.719,6.938,8.734c-0.346,2.987-13.539,2.987-13.877,0
	C11.667,19.189,14.241,14.801,19.101,14.801z"/>
<path fill="#FFFFFF" d="M19.099,15.801c3.834,0,6.939,3.264,6.939,7.284c0,3.476-3.105,7.285-6.939,7.285s-6.938-4.441-6.938-7.285
	C12.161,19.064,15.265,15.801,19.099,15.801z"/>
<path fill="#DE9400" d="M44.948,14.801c5.318,0,7.402,4.719,6.938,8.734c-0.346,2.987-13.539,2.987-13.877,0
	C37.515,19.189,40.089,14.801,44.948,14.801z"/>
<path fill="#FFFFFF" d="M44.946,15.801c3.834,0,6.939,3.264,6.939,7.284c0,3.476-3.105,7.285-6.939,7.285s-6.938-4.441-6.938-7.285
	C38.009,19.064,41.112,15.801,44.946,15.801z"/>
<path fill="#C4810A" d="M18.374,9.704c-7.414,4.386-2.688,5.334,4.029,2.396C26.192,10.441,23.257,6.815,18.374,9.704z"/>
<path fill="#C4810A" d="M45.673,9.704c-4.879-2.888-7.818,0.736-4.025,2.396C48.362,15.039,53.089,14.09,45.673,9.704z"/>
<path fill="#1A1626" d="M39.024,46.719c0,6.674-14,6.674-14,0V39.48c0-4.674,14-4.674,14,0V46.719z"/>
<path fill="#FFFFFF" d="M28.198,38.276c2.527-0.601,5.125-0.601,7.654,0c0.492,0.119,1.277-1.624,0.682-1.771
	c-2.977-0.708-6.041-0.708-9.02,0C26.921,36.653,27.704,38.396,28.198,38.276z"/>
<path fill="#ED7196" d="M37.13,50.406c-2.113-2.041-8.092-2.041-10.211,0c1.344,0.977,3.135,1.265,5.107,1.265
	C33.997,51.671,35.786,51.383,37.13,50.406z"/>
<linearGradient id="SVGID_13_" gradientUnits="userSpaceOnUse" x1="49.6172" y1="62" x2="49.6172" y2="34">
	<stop  offset="0" style="stop-color:#CC8700"/>
	<stop  offset="1" style="stop-color:#F7AD00"/>
	<a:midPointStop  offset="0" style="stop-color:#CC8700"/>
	<a:midPointStop  offset="0.5" style="stop-color:#CC8700"/>
	<a:midPointStop  offset="1" style="stop-color:#F7AD00"/>
</linearGradient>
<path fill="url(#SVGID_13_)" d="M55.308,46.349c-0.807,1.159-1.156,7.333,0.027,10.299c1.033,2.599-5.158,5.921-7.135,5.27
	c-4.873-1.606-7.467-11.12-6.311-17.36c1.229-6.624,4.477-10.48,8.08-10.212c1.102-0.766,3.369-0.2,3.65,1.15
	c1.375-0.782,2.752,0.224,2.865,1.589C58.444,38.688,57.737,42.867,55.308,46.349z"/>
<linearGradient id="SVGID_14_" gradientUnits="userSpaceOnUse" x1="47.3555" y1="48.9678" x2="55.2393" y2="48.9678">
	<stop  offset="0" style="stop-color:#A16909;stop-opacity:0.2"/>
	<stop  offset="1" style="stop-color:#A16909"/>
	<a:midPointStop  offset="0" style="stop-color:#A16909;stop-opacity:0.2"/>
	<a:midPointStop  offset="0.703" style="stop-color:#A16909;stop-opacity:0.2"/>
	<a:midPointStop  offset="1" style="stop-color:#A16909"/>
</linearGradient>
<path fill="url(#SVGID_14_)" d="M55.239,46.467c0,0-0.416,1.041-0.613,3.164C43.7,54.07,46.069,49.446,55.239,46.467z"/>
<path fill="#A16909" d="M56.485,37.084c0,0,0.6,2.514-1.449,5.3C57.864,40.158,56.485,37.084,56.485,37.084z"/>
<path fill="#A16909" d="M53.62,35.495c0,0,0.822,2.591-1.365,5.479C55.239,38.408,53.62,35.495,53.62,35.495z"/>
<path fill="#A16909" d="M49.97,34.345c0,0,0.758,1.756-0.594,5.702C51.821,36.588,49.97,34.345,49.97,34.345z"/>
<linearGradient id="SVGID_15_" gradientUnits="userSpaceOnUse" x1="47.5449" y1="54.5791" x2="54.8389" y2="54.5791">
	<stop  offset="0" style="stop-color:#A16909;stop-opacity:0.2"/>
	<stop  offset="1" style="stop-color:#A16909"/>
	<a:midPointStop  offset="0" style="stop-color:#A16909;stop-opacity:0.2"/>
	<a:midPointStop  offset="0.703" style="stop-color:#A16909;stop-opacity:0.2"/>
	<a:midPointStop  offset="1" style="stop-color:#A16909"/>
</linearGradient>
<path fill="url(#SVGID_15_)" d="M54.573,51.656c0,0,0.068,1.518,0.266,3.125C43.983,60.99,46.392,55.102,54.573,51.656z"/>
<linearGradient id="SVGID_16_" gradientUnits="userSpaceOnUse" x1="661.6582" y1="62" x2="661.6582" y2="34" gradientTransform="matrix(-1 0 0 1 676.0918 0)">
	<stop  offset="0" style="stop-color:#CC8700"/>
	<stop  offset="1" style="stop-color:#F7AD00"/>
	<a:midPointStop  offset="0" style="stop-color:#CC8700"/>
	<a:midPointStop  offset="0.5" style="stop-color:#CC8700"/>
	<a:midPointStop  offset="1" style="stop-color:#F7AD00"/>
</linearGradient>
<path fill="url(#SVGID_16_)" d="M8.741,46.349c0.809,1.159,1.158,7.333-0.025,10.299c-1.035,2.599,5.156,5.921,7.135,5.27
	c4.873-1.606,7.465-11.12,6.309-17.36c-1.229-6.624-4.475-10.48-8.08-10.212c-1.1-0.766-3.369-0.2-3.65,1.15
	c-1.375-0.782-2.75,0.224-2.865,1.589C5.606,38.688,6.313,42.867,8.741,46.349z"/>
<linearGradient id="SVGID_17_" gradientUnits="userSpaceOnUse" x1="659.3984" y1="48.9678" x2="667.2803" y2="48.9678" gradientTransform="matrix(-1 0 0 1 676.0918 0)">
	<stop  offset="0" style="stop-color:#A16909;stop-opacity:0.2"/>
	<stop  offset="1" style="stop-color:#A16909"/>
	<a:midPointStop  offset="0" style="stop-color:#A16909;stop-opacity:0.2"/>
	<a:midPointStop  offset="0.703" style="stop-color:#A16909;stop-opacity:0.2"/>
	<a:midPointStop  offset="1" style="stop-color:#A16909"/>
</linearGradient>
<path fill="url(#SVGID_17_)" d="M8.812,46.467c0,0,0.416,1.041,0.611,3.164C20.349,54.07,17.979,49.446,8.812,46.467z"/>
<path fill="#A16909" d="M7.563,37.084c0,0-0.6,2.514,1.449,5.3C6.185,40.158,7.563,37.084,7.563,37.084z"/>
<path fill="#A16909" d="M10.429,35.495c0,0-0.822,2.591,1.365,5.479C8.812,38.408,10.429,35.495,10.429,35.495z"/>
<path fill="#A16909" d="M14.079,34.345c0,0-0.756,1.756,0.596,5.702C12.228,36.588,14.079,34.345,14.079,34.345z"/>
<linearGradient id="SVGID_18_" gradientUnits="userSpaceOnUse" x1="659.5859" y1="54.5791" x2="666.8799" y2="54.5791" gradientTransform="matrix(-1 0 0 1 676.0918 0)">
	<stop  offset="0" style="stop-color:#A16909;stop-opacity:0.2"/>
	<stop  offset="1" style="stop-color:#A16909"/>
	<a:midPointStop  offset="0" style="stop-color:#A16909;stop-opacity:0.2"/>
	<a:midPointStop  offset="0.703" style="stop-color:#A16909;stop-opacity:0.2"/>
	<a:midPointStop  offset="1" style="stop-color:#A16909"/>
</linearGradient>
<path fill="url(#SVGID_18_)" d="M9.478,51.656c0,0-0.068,1.518-0.266,3.125C20.067,60.99,17.659,55.102,9.478,51.656z"/>
<path fill="#FFFFFF" d="M26.513,37.988c0.227,1.61,1.049,1.61,1.275,0c0.055-0.398,0.002-0.995,0.002-0.995h-1.28
	C26.51,36.993,26.456,37.59,26.513,37.988z"/>
<path fill="#FFFFFF" d="M36.212,37.988c0.227,1.61,1.049,1.61,1.275,0c0.056-0.398,0.002-0.995,0.002-0.995H36.21
	C36.21,36.993,36.155,37.59,36.212,37.988z"/>
<path fill="#8F5D08" d="M32.024,52.435c-3.713,0-7.711-1.788-7.711-5.716V39.48c0-2.913,3.873-4.217,7.711-4.217
	s7.711,1.304,7.711,4.217v7.238C39.735,50.646,35.739,52.435,32.024,52.435z M32.024,36.686c-3.049,0-6.289,0.979-6.289,2.795v7.238
	c0,2.95,3.26,4.294,6.289,4.294s6.289-1.344,6.289-4.294V39.48C38.313,37.665,35.073,36.686,32.024,36.686z"/>
</svg>
