<?xml version="1.0" encoding="utf-8"?>
<!-- Generator: Adobe Illustrator 15.0.0, SVG Export Plug-In . SVG Version: 6.00 Build 0)  -->
<!DOCTYPE svg PUBLIC "-//W3C//DTD SVG 1.1//EN" "http://www.w3.org/Graphics/SVG/1.1/DTD/svg11.dtd" [
	<!ENTITY ns_flows "http://ns.adobe.com/Flows/1.0/">
	<!ENTITY ns_extend "http://ns.adobe.com/Extensibility/1.0/">
	<!ENTITY ns_ai "http://ns.adobe.com/AdobeIllustrator/10.0/">
	<!ENTITY ns_graphs "http://ns.adobe.com/Graphs/1.0/">
]>
<svg version="1.1" id="Layer_1" xmlns:x="&ns_extend;" xmlns:i="&ns_ai;" xmlns:graph="&ns_graphs;"
	 xmlns="http://www.w3.org/2000/svg" xmlns:xlink="http://www.w3.org/1999/xlink" xmlns:a="http://ns.adobe.com/AdobeSVGViewerExtensions/3.0/"
	 x="0px" y="0px" width="64px" height="64px" viewBox="0 0 64 64" enable-background="new 0 0 64 64" xml:space="preserve">
<path fill="#A87863" d="M24.864,8.923c4.18-5.778,11.021-6.799,14.52-6.916c1.582-0.054,1.891,0.204,1.002,1.21
	c-1.305,1.481-2.557,3.663-3.279,6.66C36.202,13.597,23.078,11.399,24.864,8.923z"/>
<path fill="#A87863" d="M27.387,7.976c5.453-4.594,12.337-3.917,15.759-3.184c1.545,0.333,1.785,0.657,0.678,1.419
	c-1.623,1.118-3.367,2.932-4.795,5.659C37.253,15.261,25.053,9.94,27.387,7.976z"/>
<path fill="#A87863" d="M18.11,8.113c2.759-2.097,8.284-4.856,12.331-5.874c1.533-0.386,1.881-0.296,1.293,0.906
	c-0.863,1.77-1.484,4.202-1.383,7.277C30.476,14.244,15.686,9.956,18.11,8.113z"/>
<path fill="#A87863" d="M56.999,34.573c0-27.998-18.047-30.221-25-30.221c-6.952,0-25,2.223-25,30.221
	C7,45.747,56.999,45.748,56.999,34.573z"/>
<path fill="#916856" d="M59.423,35.561C52.864,2.787,40.954,14.845,32,14.845S11.135,2.787,4.576,35.561
	C1.379,51.535,13.377,51.334,17.055,54.27C21.623,57.916,25.914,62,32,62s10.376-4.084,14.945-7.73
	C50.622,51.334,62.62,51.535,59.423,35.561z"/>
<radialGradient id="SVGID_1_" cx="31.9995" cy="41.8604" r="13.2815" gradientTransform="matrix(1 0 0 1.0495 0 2.4759)" gradientUnits="userSpaceOnUse">
	<stop  offset="0" style="stop-color:#EBBB96"/>
	<stop  offset="1" style="stop-color:#EBBB96"/>
	<a:midPointStop  offset="0" style="stop-color:#EBBB96"/>
	<a:midPointStop  offset="0.5" style="stop-color:#EBBB96"/>
	<a:midPointStop  offset="1" style="stop-color:#EBBB96"/>
</radialGradient>
<ellipse fill="url(#SVGID_1_)" cx="32" cy="46.408" rx="13.281" ry="13.939"/>
<radialGradient id="SVGID_2_" cx="41" cy="29.7651" r="14.9998" gradientTransform="matrix(1 0 0 1.0495 0 2.4759)" gradientUnits="userSpaceOnUse">
	<stop  offset="0" style="stop-color:#EBBB96"/>
	<stop  offset="1" style="stop-color:#EBBB96"/>
	<a:midPointStop  offset="0" style="stop-color:#EBBB96"/>
	<a:midPointStop  offset="0.5" style="stop-color:#EBBB96"/>
	<a:midPointStop  offset="1" style="stop-color:#EBBB96"/>
</radialGradient>
<ellipse fill="url(#SVGID_2_)" cx="41" cy="33.715" rx="15" ry="15.742"/>
<radialGradient id="SVGID_3_" cx="22.9995" cy="29.7651" r="15" gradientTransform="matrix(1 0 0 1.0495 0 2.4759)" gradientUnits="userSpaceOnUse">
	<stop  offset="0" style="stop-color:#EBBB96"/>
	<stop  offset="1" style="stop-color:#EBBB96"/>
	<a:midPointStop  offset="0" style="stop-color:#EBBB96"/>
	<a:midPointStop  offset="0.5" style="stop-color:#EBBB96"/>
	<a:midPointStop  offset="1" style="stop-color:#EBBB96"/>
</radialGradient>
<ellipse fill="url(#SVGID_3_)" cx="23" cy="33.715" rx="15" ry="15.742"/>
<path fill="#A87863" d="M36.653,43.064c0.572-2.239-4.857,2.011-3.346,2.326C35.511,45.851,36.397,44.071,36.653,43.064z"/>
<path fill="#A87863" d="M27.344,43.064c-0.568-2.239,4.859,2.011,3.345,2.326C28.488,45.849,27.599,44.071,27.344,43.064z"/>
<path fill="#785647" d="M44.923,28.838c-5.318,0-7.4,4.506-6.938,8.021c0.346,2.612,13.539,2.612,13.877,0
	C52.358,33.056,49.782,28.838,44.923,28.838z"/>
<path fill="#FFFFFF" d="M44.925,30.09c-3.834,0-6.939,2.855-6.939,6.374c0,3.041,3.105,6.374,6.939,6.374s6.938-3.886,6.938-6.374
	C51.862,32.945,48.759,30.09,44.925,30.09z"/>
<ellipse fill="#1A1626" cx="44.257" cy="36.401" rx="5.182" ry="5.073"/>
<path fill="#FFFFFF" d="M43.845,33.864c0,1.844-2.826,1.844-2.826,0C41.019,32.018,43.845,32.018,43.845,33.864z"/>
<path fill="#785647" d="M19.076,28.838c5.32,0,7.403,4.506,6.938,8.021c-0.346,2.612-13.536,2.612-13.877,0
	C11.644,33.056,14.218,28.838,19.076,28.838z"/>
<path fill="#FFFFFF" d="M19.076,30.09c3.834,0,6.938,2.855,6.938,6.374c0,3.041-3.104,6.374-6.938,6.374s-6.939-3.886-6.939-6.374
	C12.137,32.945,15.242,30.09,19.076,30.09z"/>
<ellipse fill="#1A1626" cx="19.742" cy="36.401" rx="5.181" ry="5.073"/>
<path fill="#FFFFFF" d="M20.154,33.864c0,1.844,2.826,1.844,2.826,0C22.98,32.018,20.154,32.018,20.154,33.864z"/>
<path fill="#785647" d="M19.765,22.952c-8.298,2.328-3.978,4.478,3.271,3.372C27.125,25.7,25.227,21.419,19.765,22.952z"/>
<path fill="#785647" d="M44.233,22.952c-5.461-1.533-7.359,2.748-3.27,3.372C48.212,27.43,52.532,25.28,44.233,22.952z"/>
<path fill="#FFDAAD" d="M57.683,21.495c-2.375-3.001-5.377-1.057-3.978,1.534c-3.192,2.146,1.474,5.822,1.692,8.608
	c0.27,3.422-2.081,5.391-1.79,10.119c1.476,5.893,9.317,2.653,9.663-4.668C64.142,33.927,62.101,27.075,57.683,21.495z"/>
<path fill="#E3B182" d="M59.354,30.624c-0.887-4.319-3.902-6.568-5.649-7.595c-1.264-2.532,0.949-2.998,0.949-2.998
	C52,22.096,59.354,24.525,59.354,30.624z"/>
<path fill="#E3B182" d="M53.705,23.029c-2.349,2.56,1.765,4.614,2.39,8.608c0.738,4.737-1.748,8.836,0.603,12.431
	c0.306,0.466-1.817,0.405-2.487,0.155c-2.309-4.265,1.077-8.804,1.01-12.316C55.181,29.854,50.178,25.057,53.705,23.029z"/>
<linearGradient id="SVGID_4_" gradientUnits="userSpaceOnUse" x1="52" y1="49.7549" x2="64" y2="49.7549">
	<stop  offset="0" style="stop-color:#7D594A"/>
	<stop  offset="0.0716" style="stop-color:#835D4D"/>
	<stop  offset="0.3873" style="stop-color:#976C59"/>
	<stop  offset="0.6991" style="stop-color:#A47561"/>
	<stop  offset="1" style="stop-color:#A87863"/>
	<a:midPointStop  offset="0" style="stop-color:#7D594A"/>
	<a:midPointStop  offset="0.3" style="stop-color:#7D594A"/>
	<a:midPointStop  offset="1" style="stop-color:#A87863"/>
</linearGradient>
<path fill="url(#SVGID_4_)" d="M53.444,41.724c-0.86,6.1,4.007,5.67-1.444,20.253h11.525c0,0,1.64-29.044-1.179-23.813
	c-2.157,4.004-5.074-0.505-4.979,3.107C57.509,46.49,53.54,41.047,53.444,41.724z"/>
<path fill="#FFDAAD" d="M6.318,21.495c2.374-3.001,5.376-1.057,3.977,1.534c3.192,2.146-1.474,5.822-1.692,8.608
	c-0.27,3.42,2.083,5.391,1.79,10.119c-1.476,5.891-9.317,2.653-9.664-4.67C-0.142,33.925,1.899,27.075,6.318,21.495z"/>
<path fill="#E3B182" d="M4.647,30.624c0.885-4.319,3.9-6.568,5.648-7.595c1.266-2.532-0.949-2.998-0.949-2.998
	C12,22.096,4.647,24.523,4.647,30.624z"/>
<path fill="#E3B182" d="M10.295,23.029c2.349,2.56-1.764,4.614-2.387,8.607c-0.741,4.737,1.746,8.835-0.605,12.43
	c-0.306,0.468,1.818,0.407,2.486,0.157c2.308-4.265-1.076-8.804-1.008-12.316C8.819,29.854,13.822,25.057,10.295,23.029z"/>
<linearGradient id="SVGID_5_" gradientUnits="userSpaceOnUse" x1="0" y1="49.7549" x2="12" y2="49.7549">
	<stop  offset="0" style="stop-color:#A87863"/>
	<stop  offset="0.3009" style="stop-color:#A47561"/>
	<stop  offset="0.6127" style="stop-color:#976C59"/>
	<stop  offset="0.9284" style="stop-color:#835D4D"/>
	<stop  offset="1" style="stop-color:#7D594A"/>
	<a:midPointStop  offset="0" style="stop-color:#A87863"/>
	<a:midPointStop  offset="0.7" style="stop-color:#A87863"/>
	<a:midPointStop  offset="1" style="stop-color:#7D594A"/>
</linearGradient>
<path fill="url(#SVGID_5_)" d="M10.556,41.724c0.86,6.1-4.007,5.668,1.444,20.253H0.474c0,0-1.639-29.044,1.179-23.813
	c2.157,4.002,5.075-0.507,4.979,3.105C6.492,46.489,10.461,41.045,10.556,41.724z"/>
<path fill="#1A1626" d="M39.999,47.944c0,5.917-3.582,8.205-8,8.205c-4.417,0-8-2.288-8-8.205c0,0,5.98,1.143,8,1.143
	C34.02,49.087,39.999,47.944,39.999,47.944z"/>
<path fill="#FFFFFF" d="M27.9,50.02c1.457,1.443,6.745,1.443,8.201,0c0.361-0.357,0.018-0.893,0.018-0.893h-8.234
	C27.884,49.127,27.538,49.662,27.9,50.02z"/>
<path fill="#ED7196" d="M37.421,54.982c-2.247-1.884-8.595-1.884-10.841,0c1.426,0.9,3.326,1.166,5.419,1.166
	C34.093,56.148,35.995,55.883,37.421,54.982z"/>
<path fill="#785647" d="M32,56.774c-5.481,0-8.625-3.219-8.625-8.83c0-0.211,0.107-0.408,0.285-0.523
	c0.176-0.114,0.4-0.132,0.594-0.048c0.024,0.011,2.531,1.089,7.746,1.089c5.215,0,7.722-1.078,7.746-1.089
	c0.193-0.084,0.418-0.066,0.595,0.048c0.177,0.115,0.284,0.313,0.284,0.523C40.624,53.556,37.481,56.774,32,56.774z M24.654,48.831
	c0.398,5.798,4.72,6.693,7.345,6.693c2.625,0,6.948-0.896,7.345-6.693c-1.203,0.355-3.613,0.881-7.345,0.881
	C28.267,49.712,25.857,49.187,24.654,48.831z"/>
</svg>
