<?xml version="1.0" encoding="utf-8"?>
<!-- Generator: Adobe Illustrator 15.0.0, SVG Export Plug-In . SVG Version: 6.00 Build 0)  -->
<!DOCTYPE svg PUBLIC "-//W3C//DTD SVG 1.1//EN" "http://www.w3.org/Graphics/SVG/1.1/DTD/svg11.dtd" [
	<!ENTITY ns_flows "http://ns.adobe.com/Flows/1.0/">
	<!ENTITY ns_extend "http://ns.adobe.com/Extensibility/1.0/">
	<!ENTITY ns_ai "http://ns.adobe.com/AdobeIllustrator/10.0/">
	<!ENTITY ns_graphs "http://ns.adobe.com/Graphs/1.0/">
]>
<svg version="1.1" id="Layer_1" xmlns:x="&ns_extend;" xmlns:i="&ns_ai;" xmlns:graph="&ns_graphs;"
	 xmlns="http://www.w3.org/2000/svg" xmlns:xlink="http://www.w3.org/1999/xlink" xmlns:a="http://ns.adobe.com/AdobeSVGViewerExtensions/3.0/"
	 x="0px" y="0px" width="64px" height="64px" viewBox="0 0 64 64" enable-background="new 0 0 64 64" xml:space="preserve">
<path fill="#FF7A00" d="M57.275,52.715c-2.686-1.293-12.798-4.332-12.798-4.332L25.499,48.42l-6.614,13.004
	C34.214,62.598,62,61.977,62,59.559C62,57.143,61.18,54.586,57.275,52.715z"/>
<path fill="#ED6A00" d="M52.998,61.416l-0.748,0.066C52.25,56.447,52.998,56.381,52.998,61.416z"/>
<path fill="#ED6A00" d="M25.499,48.42c0,8.123,18.979,8.086,18.979-0.037l-1.709-0.6H27.31L25.499,48.42z"/>
<path fill="#A3765A" d="M26.999,48.01c0,6.359,16,6.359,16,0c0-2.164,0-7.035,0-7.035h-16C26.999,40.975,26.999,45.846,26.999,48.01
	z"/>
<path fill="#6B4435" d="M50.212,38.785c1.082,0.714,2.33,1.247,3.787,1.52c-2.586-5.887,1.314-18.237-6.682-27.31
	c-11.27,0.337-12.828,36.722,2.883,31.882c-1-0.432-1.629-1.315-1.996-2.43c1.211,0.348,2.627,0.359,4.275-0.148
	C51.167,41.733,50.499,40.398,50.212,38.785z"/>
<path fill="#6B4435" d="M21.921,12.995c-7.996,9.073-3.334,21.423-5.922,27.31c1.457-0.272,2.707-0.806,3.789-1.52
	c-0.289,1.613-0.957,2.948-2.27,3.514c1.648,0.508,3.063,0.496,4.273,0.148c-0.367,1.114-0.992,1.998-1.992,2.43
	C35.509,49.717,33.192,13.332,21.921,12.995z"/>
<path id="Path_1381_" fill="#B88A6F" d="M51.442,25.392c-2.547,0.308-4.383,8.815-2.783,11.062c0.225,0.314,1.535,0.813,2.508-1.168
	c0.539-1.098,2.094-2.013,2.574-4.277C54.358,28.109,53.976,25.085,51.442,25.392z"/>
<path id="Path_1380_" fill="#B88A6F" d="M18.558,25.392c2.547,0.308,4.385,8.815,2.783,11.062c-0.225,0.314-1.537,0.813-2.508-1.168
	c-0.539-1.098-2.094-2.013-2.574-4.277C15.642,28.109,16.026,25.085,18.558,25.392z"/>
<path id="Path_1379_" fill="#8C5F44" d="M51.372,27.023c-0.664,0.208-1.389,1.219-1.781,2.896c2.322-0.498,1.742,3.362-0.275,3.434
	c0.018,0.389,0.045,0.789,0.092,1.209c0.973-1.41,1.959-0.844,2.938-2.941C53.226,29.731,53.017,26.507,51.372,27.023z"/>
<path id="Path_1378_" fill="#8C5F44" d="M20.409,29.915c-0.395-1.674-1.117-2.685-1.781-2.892c-1.645-0.516-1.855,2.708-0.975,4.598
	c0.979,2.098,1.967,1.531,2.939,2.941c0.049-0.422,0.074-0.822,0.092-1.21C18.687,33.258,18.116,29.445,20.409,29.915z"/>
<path fill="#B88A6F" d="M34.999,9.034C23.97,9.034,18.657,18,19.321,29.527c0.137,2.317,0.783,5.661,1.58,8.524
	C22.556,44.005,31.282,50,34.999,50s12.443-5.995,14.1-11.949c0.797-2.863,1.441-6.207,1.578-8.524
	C51.341,18,46.03,9.034,34.999,9.034z"/>
<path id="Path_1377_" fill="#78513A" d="M46.981,24.542c-2.521-1.333-7.35-1.399-9.146-0.47c-0.387,0.179-0.131,1.443,0.193,1.323
	c2.504-0.99,6.547-1.012,8.893,0.084C47.233,25.623,47.364,24.728,46.981,24.542z"/>
<path id="Path_1376_" fill="#78513A" d="M23.019,24.542c2.521-1.333,7.346-1.399,9.146-0.47c0.383,0.179,0.131,1.443-0.193,1.323
	c-2.51-0.99-6.547-1.012-8.895,0.084C22.765,25.623,22.636,24.728,23.019,24.542z"/>
<path id="Path_1375_" fill="#8C5F44" d="M37.976,36.107c-0.314-0.219-1.053,0.119-2.977,0.119c-1.92,0-2.66-0.338-2.977-0.119
	c-0.375,0.266,0.225,1.463,2.977,1.463C37.753,37.57,38.354,36.373,37.976,36.107z"/>
<path id="Path_1374_" fill="#8C5F44" d="M34.999,40.645c-2.48-0.728-6.156,0.346-6.156,0.346c1.4,1.522,2.426,3.496,6.156,3.496
	c4.273,0,5.002-2.242,6.158-3.496C41.157,40.99,37.479,39.912,34.999,40.645z"/>
<path id="Path_1373_" fill="#FFFFFF" d="M29.767,41.248c2.602,2.178,7.852,2.192,10.467,0
	C37.462,41.365,32.558,41.367,29.767,41.248z"/>
<path id="Path_1372_" fill="#FFFFFF" d="M32.546,29.085c0.094,0.729-0.402,1.593-1.773,2.241c-0.873,0.412-2.684,0.896-5.066-0.107
	c-1.066-0.449-2.107-1.849-2.014-2.623C24.983,26.167,31.337,25.811,32.546,29.085z"/>
<linearGradient id="Oval_1_" gradientUnits="userSpaceOnUse" x1="-424.1255" y1="477.4658" x2="-424.1255" y2="478.2246" gradientTransform="matrix(6.5701 0 0 -6.5701 2814.7805 3168.5281)">
	<stop  offset="0" style="stop-color:#A6694A"/>
	<stop  offset="1" style="stop-color:#4F2A1E"/>
	<a:midPointStop  offset="0" style="stop-color:#A6694A"/>
	<a:midPointStop  offset="0.5" style="stop-color:#A6694A"/>
	<a:midPointStop  offset="1" style="stop-color:#4F2A1E"/>
</linearGradient>
<ellipse id="Oval_186_" fill="url(#Oval_1_)" cx="28.233" cy="29.036" rx="2.498" ry="2.492"/>
<path id="Path_1371_" fill="#1A1626" d="M26.987,28.99c0,1.725,2.496,1.725,2.496,0C29.483,27.39,26.987,27.39,26.987,28.99z"/>
<path id="Path_1370_" fill="#AB968C" d="M26.606,28.292c0,0.723,1.047,0.723,1.047,0C27.653,27.623,26.606,27.623,26.606,28.292z"/>
<path id="Path_1369_" fill="#8C5F44" d="M32.558,29.182c-1.014-3.252-7.924-2.772-8.865-0.585
	C24.04,25.796,31.694,25.057,32.558,29.182z"/>
<path id="Path_1368_" fill="#FFFFFF" d="M37.454,29.085c-0.096,0.729,0.4,1.593,1.773,2.241c0.871,0.412,2.684,0.896,5.064-0.107
	c1.07-0.449,2.109-1.849,2.016-2.623C45.019,26.167,38.661,25.811,37.454,29.085z"/>
<linearGradient id="Oval_2_" gradientUnits="userSpaceOnUse" x1="-424.7729" y1="477.4658" x2="-424.7729" y2="478.2246" gradientTransform="matrix(6.5701 0 0 -6.5701 2832.511 3168.5281)">
	<stop  offset="0" style="stop-color:#A6694A"/>
	<stop  offset="1" style="stop-color:#4F2A1E"/>
	<a:midPointStop  offset="0" style="stop-color:#A6694A"/>
	<a:midPointStop  offset="0.5" style="stop-color:#A6694A"/>
	<a:midPointStop  offset="1" style="stop-color:#4F2A1E"/>
</linearGradient>
<circle id="Oval_185_" fill="url(#Oval_2_)" cx="41.71" cy="29.036" r="2.492"/>
<path id="Path_1367_" fill="#1A1626" d="M40.462,28.99c0,1.725,2.496,1.725,2.496,0C42.958,27.39,40.462,27.39,40.462,28.99z"/>
<path id="Path_1366_" fill="#AB968C" d="M40.083,28.292c0,0.723,1.045,0.723,1.045,0C41.128,27.623,40.083,27.623,40.083,28.292z"/>
<path id="Path_1365_" fill="#8C5F44" d="M37.442,29.182c1.012-3.251,7.92-2.786,8.865-0.585
	C45.958,25.796,38.306,25.057,37.442,29.182z"/>
<linearGradient id="SVGID_1_" gradientUnits="userSpaceOnUse" x1="34.8359" y1="31.8174" x2="34.8359" y2="5.9995">
	<stop  offset="0" style="stop-color:#6B4435"/>
	<stop  offset="0.0585" style="stop-color:#6E4637"/>
	<stop  offset="0.6415" style="stop-color:#865947"/>
	<stop  offset="1" style="stop-color:#8F604D"/>
	<a:midPointStop  offset="0" style="stop-color:#6B4435"/>
	<a:midPointStop  offset="0.4" style="stop-color:#6B4435"/>
	<a:midPointStop  offset="1" style="stop-color:#8F604D"/>
</linearGradient>
<path fill="url(#SVGID_1_)" d="M35.001,6c-6.711,0-10.064,3.035-10.744,4.473c-8.113,1.852-10.723,15.515-4.648,21.345
	c0.754-6.211,1.48-10.201,5.617-14.405c2.412,3.227,7.424,5.042,11.91,5.042c-2.125-1.541-3.574-3.051-4.711-4.458
	c7.494,3.433,15.885,5.63,17.969,13.821C57.603,20.358,51.614,6,35.001,6z"/>
<path fill="#6B4435" d="M24.257,10.471c-0.102,5.72,2.209,10,12.879,11.982C29.485,22.97,21.636,18.348,24.257,10.471z"/>
<path fill="#6B4435" d="M24.927,17.048c-2.785,2.746-5.912,7.504-5.318,14.769c0.553-6.004,3.313-10.949,5.811-14.152
	C25.241,17.472,25.077,17.266,24.927,17.048z"/>
<path fill="#6B4435" d="M29.704,15.235c5.596,5.341,19.346,4.994,20.689,16.582C46.806,20.545,34.647,23.074,29.704,15.235z"/>
<path fill="#FF7A00" d="M19.858,44.797c-1.621-0.738-4.076-7.18-4.467-8.764c-0.223-0.896-1.375-6.809-0.564-13.232
	c0.242-1.896-8.92-1.884-9.277-0.36c-1.594,6.76-1.018,16.278-0.482,19.227c0.286,1.588,4.438,10.146,6.824,14.613
	c1.603,2.998,4.632,4.961,6.993,5.143c0,0,6.883-3.52,6.614-13.004C25.499,48.42,22.188,45.857,19.858,44.797z"/>
<path fill="#A3765A" d="M14.292,22.447c0,1.176-8.326,1.176-8.326,0C5.966,14.711,14.292,14.984,14.292,22.447z"/>
<path fill="#A3765A" d="M20.456,11.167c-3,0.064-3.258,3.041-4.129,2.325c-0.182-0.146-0.248-0.872-0.154-1.196
	c0.684-2.334,1.729-6.646,2.041-7.859c0.57-2.2-2.426-3.028-2.994-0.829c-0.029,0.108-1.859,8.194-1.99,8.162
	c-0.121-0.031-0.211-9.199-0.268-10.076c-0.146-2.425-3.301-2.162-3.098,0.26c0.008,0.098,0.355,9.816,0.146,9.816
	c-0.18,0-1.857-8.119-2.037-8.968c-0.5-2.377-3.58-1.657-3.027,0.707c0.023,0.091,2.096,8.261,1.902,8.261
	c-0.162,0-2.299-5.128-2.299-5.128C3.886,4.739,1.448,5.567,2.114,7.472c1.414,4.049,2.156,4.635,1.947,8.802
	c-0.184,3.628,1.936,6.22,6.074,6.226c9.045,0.014,6.482-6.492,11.793-9.774C22.587,12.318,21.954,11.137,20.456,11.167z"/>
</svg>
