<?xml version="1.0" encoding="utf-8"?>
<!-- Generator: Adobe Illustrator 15.0.0, SVG Export Plug-In . SVG Version: 6.00 Build 0)  -->
<!DOCTYPE svg PUBLIC "-//W3C//DTD SVG 1.1//EN" "http://www.w3.org/Graphics/SVG/1.1/DTD/svg11.dtd" [
	<!ENTITY ns_flows "http://ns.adobe.com/Flows/1.0/">
	<!ENTITY ns_extend "http://ns.adobe.com/Extensibility/1.0/">
	<!ENTITY ns_ai "http://ns.adobe.com/AdobeIllustrator/10.0/">
	<!ENTITY ns_graphs "http://ns.adobe.com/Graphs/1.0/">
]>
<svg version="1.1" id="Layer_1" xmlns:x="&ns_extend;" xmlns:i="&ns_ai;" xmlns:graph="&ns_graphs;"
	 xmlns="http://www.w3.org/2000/svg" xmlns:xlink="http://www.w3.org/1999/xlink" xmlns:a="http://ns.adobe.com/AdobeSVGViewerExtensions/3.0/"
	 x="0px" y="0px" width="64px" height="64px" viewBox="0 0 64 64" enable-background="new 0 0 64 64" xml:space="preserve">
<rect x="13.867" y="52.268" fill="#302C3B" width="36.266" height="4.266"/>
<rect x="8.533" y="59.734" fill="#302C3B" width="46.934" height="4.266"/>
<polygon fill="#B3C2C6" points="9.6,64 32,17.539 0,64 "/>
<polygon fill="#4E5E67" points="10.667,64 32,17.539 6.4,64 "/>
<polygon fill="#B3C2C6" points="32,17.539 54.402,64 64,64 "/>
<polygon fill="#4E5E67" points="32,17.539 53.336,64 57.6,64 "/>
<linearGradient id="SVGID_1_" gradientUnits="userSpaceOnUse" x1="14.3081" y1="50.8525" x2="49.6904" y2="50.8525">
	<stop  offset="0" style="stop-color:#2289C7"/>
	<stop  offset="0.2515" style="stop-color:#2086C3"/>
	<stop  offset="0.5007" style="stop-color:#1A7CB7"/>
	<stop  offset="0.7491" style="stop-color:#0F6DA3"/>
	<stop  offset="0.9957" style="stop-color:#005688"/>
	<stop  offset="1" style="stop-color:#005687"/>
	<a:midPointStop  offset="0" style="stop-color:#2289C7"/>
	<a:midPointStop  offset="0.7091" style="stop-color:#2289C7"/>
	<a:midPointStop  offset="1" style="stop-color:#005687"/>
</linearGradient>
<path fill="url(#SVGID_1_)" d="M14.308,44.104c0,4.499,6.142,13.496,17.692,13.496c11.548,0,17.69-8.997,17.69-13.496H14.308z"/>
<path fill="#CFD8DD" d="M32,0C16,0,10.667,10.934,10.667,16v19.201C10.667,41.601,18.073,54.4,32,54.4
	c13.928,0,21.334-12.8,21.334-19.199V16C53.334,10.934,48,0,32,0"/>
<radialGradient id="SVGID_2_" cx="32" cy="27.2002" r="17.3297" gradientTransform="matrix(1 0 0 2.1857 0 -32.251)" gradientUnits="userSpaceOnUse">
	<stop  offset="0.3818" style="stop-color:#E6EBEF"/>
	<stop  offset="0.6381" style="stop-color:#E1E7EB"/>
	<stop  offset="0.9401" style="stop-color:#D3DBE0"/>
	<stop  offset="1" style="stop-color:#CFD8DD"/>
	<a:midPointStop  offset="0.3818" style="stop-color:#E6EBEF"/>
	<a:midPointStop  offset="0.6724" style="stop-color:#E6EBEF"/>
	<a:midPointStop  offset="1" style="stop-color:#CFD8DD"/>
</radialGradient>
<path fill="url(#SVGID_2_)" d="M32,0C16,0,10.667,10.934,10.667,16v19.201C10.667,41.601,18.073,54.4,32,54.4
	c13.928,0,21.334-12.8,21.334-19.199V16C53.334,10.934,48,0,32,0"/>
<linearGradient id="SVGID_3_" gradientUnits="userSpaceOnUse" x1="32.0005" y1="30.0391" x2="32.0005" y2="5.0386">
	<stop  offset="0" style="stop-color:#302C3B"/>
	<stop  offset="0.2926" style="stop-color:#454754"/>
	<stop  offset="0.7557" style="stop-color:#636D78"/>
	<stop  offset="1" style="stop-color:#6E7B85"/>
	<a:midPointStop  offset="0" style="stop-color:#302C3B"/>
	<a:midPointStop  offset="0.4364" style="stop-color:#302C3B"/>
	<a:midPointStop  offset="1" style="stop-color:#6E7B85"/>
</linearGradient>
<path fill="url(#SVGID_3_)" d="M18.721,8.896c5.077-5.144,21.481-5.144,26.559,0c2.873,2.908,0.992,15.344,0.237,17.501
	c-0.832,2.383-3.946,3.642-8.813,3.642h-9.408c-4.868,0-7.98-1.259-8.813-3.642C17.728,24.24,15.848,11.805,18.721,8.896z"/>
<linearGradient id="SVGID_4_" gradientUnits="userSpaceOnUse" x1="47.5918" y1="28.7373" x2="53.334" y2="28.7373">
	<stop  offset="0" style="stop-color:#2289C7"/>
	<stop  offset="0.2515" style="stop-color:#2086C3"/>
	<stop  offset="0.5007" style="stop-color:#1A7CB7"/>
	<stop  offset="0.7491" style="stop-color:#0F6DA3"/>
	<stop  offset="0.9957" style="stop-color:#005688"/>
	<stop  offset="1" style="stop-color:#005687"/>
	<a:midPointStop  offset="0" style="stop-color:#2289C7"/>
	<a:midPointStop  offset="0.7091" style="stop-color:#2289C7"/>
	<a:midPointStop  offset="1" style="stop-color:#005687"/>
</linearGradient>
<path fill="url(#SVGID_4_)" d="M53.334,19.2c-1.609,10.337-5.742,17.646-5.742,18.903c0,0.767,4-1.066,5.742-5.036V19.2z"/>
<linearGradient id="SVGID_5_" gradientUnits="userSpaceOnUse" x1="-859.7852" y1="28.7368" x2="-865.5259" y2="28.7368" gradientTransform="matrix(-1 0 0 1 -849.1191 0)">
	<stop  offset="0" style="stop-color:#005687"/>
	<stop  offset="0.0043" style="stop-color:#005688"/>
	<stop  offset="0.2509" style="stop-color:#0F6DA3"/>
	<stop  offset="0.4993" style="stop-color:#1A7CB7"/>
	<stop  offset="0.7485" style="stop-color:#2086C3"/>
	<stop  offset="1" style="stop-color:#2289C7"/>
	<a:midPointStop  offset="0" style="stop-color:#005687"/>
	<a:midPointStop  offset="0.2909" style="stop-color:#005687"/>
	<a:midPointStop  offset="1" style="stop-color:#2289C7"/>
</linearGradient>
<path fill="url(#SVGID_5_)" d="M10.667,19.2c1.606,10.337,5.741,17.646,5.741,18.903c0,0.767-4.001-1.066-5.741-5.036V19.2z"/>
<path fill="#B3C2C6" d="M44.244,44.875c0.547,0.537,1.724,0.248,2.631-0.646c0.908-0.895,1.202-2.056,0.658-2.591
	c-0.546-0.538-1.749-0.404-2.63,0.645C44.084,43.259,43.701,44.338,44.244,44.875"/>
<radialGradient id="SVGID_6_" cx="44.3301" cy="42.8652" r="1.4264" gradientTransform="matrix(0.7071 0.7071 -0.9884 0.9884 56.6043 -31.4312)" gradientUnits="userSpaceOnUse">
	<stop  offset="0" style="stop-color:#FFE600"/>
	<stop  offset="0.1978" style="stop-color:#FDE100"/>
	<stop  offset="0.4376" style="stop-color:#F7D200"/>
	<stop  offset="0.6992" style="stop-color:#EDBA00"/>
	<stop  offset="0.9746" style="stop-color:#DF9800"/>
	<stop  offset="1" style="stop-color:#DE9400"/>
	<a:midPointStop  offset="0" style="stop-color:#FFE600"/>
	<a:midPointStop  offset="0.6667" style="stop-color:#FFE600"/>
	<a:midPointStop  offset="1" style="stop-color:#DE9400"/>
</radialGradient>
<path fill="url(#SVGID_6_)" d="M47.127,41.537c-0.406-0.412-1.285-0.189-1.963,0.498c-0.677,0.686-0.897,1.58-0.489,1.991
	c0.349,0.354,1.355,0.114,1.963-0.497C47.316,42.844,47.533,41.949,47.127,41.537"/>
<path fill="#B3C2C6" d="M19.754,44.875c-0.546,0.537-1.723,0.248-2.63-0.646c-0.91-0.895-1.203-2.056-0.658-2.591
	c0.544-0.538,1.749-0.404,2.63,0.645C19.915,43.259,20.298,44.338,19.754,44.875"/>
<radialGradient id="SVGID_7_" cx="-861.9673" cy="42.8652" r="1.4259" gradientTransform="matrix(-0.7071 0.7071 0.9884 0.9884 -633.4547 609.4178)" gradientUnits="userSpaceOnUse">
	<stop  offset="0" style="stop-color:#FFE600"/>
	<stop  offset="0.1978" style="stop-color:#FDE100"/>
	<stop  offset="0.4376" style="stop-color:#F7D200"/>
	<stop  offset="0.6992" style="stop-color:#EDBA00"/>
	<stop  offset="0.9746" style="stop-color:#DF9800"/>
	<stop  offset="1" style="stop-color:#DE9400"/>
	<a:midPointStop  offset="0" style="stop-color:#FFE600"/>
	<a:midPointStop  offset="0.6667" style="stop-color:#FFE600"/>
	<a:midPointStop  offset="1" style="stop-color:#DE9400"/>
</radialGradient>
<path fill="url(#SVGID_7_)" d="M16.873,41.537c0.405-0.412,1.284-0.189,1.96,0.498c0.678,0.686,0.899,1.58,0.492,1.991
	c-0.35,0.354-1.356,0.114-1.963-0.497C16.683,42.844,16.466,41.949,16.873,41.537"/>
</svg>
