<?xml version="1.0" encoding="utf-8"?>
<!-- Generator: Adobe Illustrator 15.0.0, SVG Export Plug-In . SVG Version: 6.00 Build 0)  -->
<!DOCTYPE svg PUBLIC "-//W3C//DTD SVG 1.1//EN" "http://www.w3.org/Graphics/SVG/1.1/DTD/svg11.dtd" [
	<!ENTITY ns_flows "http://ns.adobe.com/Flows/1.0/">
	<!ENTITY ns_extend "http://ns.adobe.com/Extensibility/1.0/">
	<!ENTITY ns_ai "http://ns.adobe.com/AdobeIllustrator/10.0/">
	<!ENTITY ns_graphs "http://ns.adobe.com/Graphs/1.0/">
]>
<svg version="1.1" id="Layer_1" xmlns:x="&ns_extend;" xmlns:i="&ns_ai;" xmlns:graph="&ns_graphs;"
	 xmlns="http://www.w3.org/2000/svg" xmlns:xlink="http://www.w3.org/1999/xlink" xmlns:a="http://ns.adobe.com/AdobeSVGViewerExtensions/3.0/"
	 x="0px" y="0px" width="64px" height="64px" viewBox="0 0 64 64" enable-background="new 0 0 64 64" xml:space="preserve">
<polygon fill="#4E5E67" points="31.671,32.562 31.671,38.279 49.066,64 50.133,55.467 "/>
<polygon fill="#47565E" points="64,64 49.066,64 49.066,55.467 64,54.4 "/>
<polygon fill="#6E8189" points="32.419,34.133 49.066,55.467 64,55.467 64,34.133 "/>
<path fill="#F9B700" d="M33.896,32.984h-0.949l18.307,22.483h2.296L33.896,32.984z"/>
<path fill="#99A8AE" d="M57.6,51.783c-0.022-4.65,0-51.218,0-51.218c0-0.754-2.133-0.754-2.133,0c0,0,0.025,46.567,0,51.218
	C55.465,52.428,57.604,52.428,57.6,51.783z"/>
<path fill="#018BC9" d="M45.867,1.6h9.6v9.6h-9.6V1.6z"/>
<path fill="#FFFFFF" d="M53.227,3.2h-5.12c-0.351,0-0.64,0.297-0.64,0.66v5.079c0,0.363,0.289,0.661,0.64,0.661h5.122
	c0.351,0,0.641-0.296,0.641-0.661V3.86C53.867,3.498,53.579,3.2,53.227,3.2z M48.748,9.161c-0.294,0-0.533-0.247-0.533-0.552
	c0-0.305,0.239-0.551,0.533-0.551c0.293,0,0.533,0.247,0.533,0.551C49.281,8.914,49.041,9.161,48.748,9.161z M52.588,9.161
	c-0.294,0-0.533-0.247-0.533-0.552c0-0.305,0.239-0.551,0.533-0.551c0.293,0,0.533,0.247,0.533,0.551
	C53.121,8.914,52.881,9.161,52.588,9.161z M53.068,6.958c0,0.181-0.146,0.331-0.32,0.331h-4.16c-0.176,0-0.319-0.148-0.319-0.331
	V4.315c0-0.181,0.144-0.331,0.319-0.331h4.16c0.175,0,0.32,0.148,0.32,0.331V6.958z"/>
<path fill="#99A8AE" d="M30.928,6.4H11.74C10.229,6.4,9,7.626,9,9.141c0,0.377,0.308,0.685,0.688,0.685s0.686-0.308,0.686-0.685
	c0-0.757,0.614-1.37,1.369-1.37h3.729c1.596,0,1.752,0.76,2.021,2.018c0.079,0.379,0.175,1.89,0.352,2.311h1.669
	c-0.361-0.219-0.504-1.747-0.679-2.592c-0.113-0.53-0.248-1.172-0.582-1.736h6.167c-0.333,0.564-0.467,1.207-0.58,1.736
	c-0.179,0.845-0.321,2.373-0.681,2.592h1.665c0.177-0.421,0.275-1.933,0.354-2.311c0.267-1.257,0.429-2.018,2.02-2.018h3.732
	c0.754,0,1.368,0.613,1.368,1.37c0,0.377,0.309,0.685,0.688,0.685c0.377,0,0.684-0.308,0.684-0.685
	C33.666,7.626,32.439,6.4,30.928,6.4z"/>
<polygon fill="#4E5E67" points="28.146,39.768 14.521,39.768 3.756,64 38.91,64 "/>
<polygon fill="#302C3B" points="35.604,64 37.277,64 22.171,28.178 "/>
<polygon fill="#B3C2C6" points="38.91,64 42.666,64 22.171,28.178 "/>
<polygon fill="#302C3B" points="5.39,64 7.063,64 20.498,28.178 "/>
<polygon fill="#B3C2C6" points="3.756,64 0,64 20.498,28.178 "/>
<path fill="#014D87" d="M4.267,45.867C4.267,48,6.4,54.4,7.467,54.4H35.2c1.066,0,3.2-6.4,3.2-8.533v-5.334H4.267V45.867z"/>
<path fill="#018BC9" d="M4.267,35.201V41.6c0,2.135,2.133,8.533,5.333,8.533h23.466c3.2,0,5.334-6.398,5.334-8.533v-6.398H4.267z"/>
<linearGradient id="SVGID_1_" gradientUnits="userSpaceOnUse" x1="-172.6665" y1="122" x2="-172.6665" y2="158.2666" gradientTransform="matrix(1 0 0 -1 194 170)">
	<stop  offset="0" style="stop-color:#C6CFD4"/>
	<stop  offset="0.5131" style="stop-color:#DCE3E7"/>
	<stop  offset="0.8606" style="stop-color:#E6EBEF"/>
	<a:midPointStop  offset="0" style="stop-color:#C6CFD4"/>
	<a:midPointStop  offset="0.5" style="stop-color:#C6CFD4"/>
	<a:midPointStop  offset="0.5131" style="stop-color:#DCE3E7"/>
	<a:midPointStop  offset="0.5" style="stop-color:#DCE3E7"/>
	<a:midPointStop  offset="0.8606" style="stop-color:#E6EBEF"/>
</linearGradient>
<path fill="url(#SVGID_1_)" d="M32,11.733H10.667c-4.927,0-6.4,3.25-6.4,5.333v18.134l6.4,4.266C15.842,42.916,14.933,48,19.2,48
	h4.267c4.267,0,4.552-5.879,8.533-8.533l6.4-4.266V17.067C38.4,14.983,36.93,11.733,32,11.733z"/>
<circle fill="#FFFFFF" cx="9.6" cy="44.8" r="2.134"/>
<circle fill="#FFFFFF" cx="33.066" cy="44.8" r="2.134"/>
<path fill="#013366" d="M23.467,52.268H19.2L18.133,54.4h6.4L23.467,52.268z"/>
<path fill="#99A8AE" d="M33.066,16H9.6c-3.2,0-2.133,7.467-2.133,7.467H35.2C35.2,23.467,36.267,16,33.066,16z"/>
<linearGradient id="SVGID_2_" gradientUnits="userSpaceOnUse" x1="-172.6665" y1="129.4668" x2="-172.6665" y2="152.9326" gradientTransform="matrix(1 0 0 -1 194 170)">
	<stop  offset="0" style="stop-color:#302C3B"/>
	<stop  offset="0.2358" style="stop-color:#41424F"/>
	<stop  offset="0.7404" style="stop-color:#616B76"/>
	<stop  offset="1" style="stop-color:#6E7B85"/>
	<a:midPointStop  offset="0" style="stop-color:#302C3B"/>
	<a:midPointStop  offset="0.4424" style="stop-color:#302C3B"/>
	<a:midPointStop  offset="1" style="stop-color:#6E7B85"/>
</linearGradient>
<path fill="url(#SVGID_2_)" d="M33.066,17.067H9.6c-2.133,0-2.133,6.4-2.133,6.4s0.633,11.301,3.2,13.867
	c4.267,4.266,17.067,4.266,21.333,0c2.564-2.564,3.2-13.867,3.2-13.867S35.2,17.067,33.066,17.067z"/>
<path fill="#302C3B" d="M31.51,22.604H11.161c-2.835,0-2.835-4.674,0-4.674H31.51C34.344,17.93,34.344,22.604,31.51,22.604z"/>
<path fill="#F9B700" d="M17.277,20.928c-0.004-0.071,0.034-0.109,0.1-0.109h0.4c0.063,0,0.098,0.038,0.108,0.104
	c0.029,0.254,0.184,0.353,0.423,0.353c0.271,0,0.429-0.127,0.429-0.38V18.83c0-0.067,0.036-0.104,0.104-0.104h0.396
	c0.067,0,0.104,0.038,0.104,0.104v2.066c0,0.666-0.5,0.971-1.034,0.971C17.8,21.867,17.323,21.591,17.277,20.928z"/>
<path fill="#F9B700" d="M19.731,20.266c0-0.9,0.71-1.6,1.6-1.6c0.888,0,1.6,0.7,1.6,1.6c0,0.9-0.712,1.601-1.6,1.601
	C20.442,21.867,19.731,21.167,19.731,20.266z M22.325,20.266c0-0.592-0.436-1.01-0.994-1.01c-0.56,0-0.996,0.418-0.996,1.01
	c0,0.592,0.436,1.01,0.996,1.01C21.89,21.276,22.325,20.858,22.325,20.266z"/>
<path fill="#F9B700" d="M25.373,18.851l-0.936,1.588v1.263c0,0.066-0.038,0.104-0.106,0.104h-0.396
	c-0.067,0-0.104-0.038-0.104-0.104v-1.265l-0.935-1.587c-0.042-0.073-0.011-0.125,0.071-0.125h0.46c0.056,0,0.096,0.024,0.121,0.074
	l0.587,1.056l0.585-1.056c0.027-0.049,0.065-0.074,0.123-0.074h0.458C25.383,18.726,25.417,18.778,25.373,18.851z"/>
</svg>
