<?xml version="1.0" encoding="utf-8"?>
<!-- Generator: Adobe Illustrator 24.1.2, SVG Export Plug-In . SVG Version: 6.00 Build 0)  -->
<svg version="1.1" id="Layer_1" xmlns="http://www.w3.org/2000/svg" xmlns:xlink="http://www.w3.org/1999/xlink" x="0px" y="0px"
	 width="64px" height="64px" viewBox="0 0 64 64" style="enable-background:new 0 0 64 64;" xml:space="preserve">
<style type="text/css">
	.st0{fill:#99A8AE;}
	.st1{fill:#CFD8DD;}
	.st2{fill:url(#SVGID_1_);}
	.st3{opacity:0.1;fill:#1A1626;}
	.st4{fill:#F59E01;}
	.st5{fill:url(#SVGID_2_);}
	.st6{fill:#E81C27;}
	.st7{fill:#4E5E67;}
	.st8{fill:url(#SVGID_3_);}
	.st9{fill:url(#SVGID_4_);}
	.st10{fill:#E6EBEF;}
	.st11{fill:#1A1626;}
	.st12{fill:url(#SVGID_5_);}
	.st13{fill:url(#SVGID_6_);}
</style>
<rect x="21.51" y="18.54" class="st0" width="1.38" height="5.64"/>
<path class="st1" d="M7.34,23.6c0,0,4.56-3.4,14.17-5.06v5.06H7.34z"/>
<linearGradient id="SVGID_1_" gradientUnits="userSpaceOnUse" x1="11.7334" y1="55.5009" x2="11.7334" y2="23.0014">
	<stop  offset="0" style="stop-color:#C6CFD4"/>
	<stop  offset="0.2285" style="stop-color:#D4DBE0"/>
	<stop  offset="0.5643" style="stop-color:#E1E7EB"/>
	<stop  offset="0.8606" style="stop-color:#E6EBEF"/>
</linearGradient>
<path class="st2" d="M22.4,55.5V24.08c0-0.6-0.48-1.08-1.07-1.08H6.4c-0.59,0-1.2,0.47-1.36,1.04c0,0-0.12,0.42-0.31,1.13l0.07,5.42
	l-3.18,7.58c0,0-0.55,2.35-0.55,4.33v13H22.4z"/>
<path class="st3" d="M9.08,52.75H5.65c-0.51,0-0.93-0.43-0.93-0.95V38.98c0-0.46,0.08-1.19,0.17-1.63l2.63-12.26
	c0.11-0.5,0.6-0.9,1.1-0.9h11.96c0.51,0,0.93,0.42,0.93,0.95v18.18c0,0.49-0.31,1.11-0.7,1.4l-10.2,7.54
	C10.23,52.53,9.55,52.75,9.08,52.75z M8.62,24.45c-0.38,0-0.76,0.31-0.84,0.69L5.15,37.4c-0.09,0.43-0.17,1.14-0.17,1.58v12.83
	c0,0.37,0.3,0.68,0.67,0.68h3.44c0.41,0,1.04-0.21,1.37-0.45l10.2-7.54c0.32-0.24,0.59-0.78,0.59-1.18V25.13
	c0-0.37-0.3-0.68-0.67-0.68H8.62z"/>
<path class="st4" d="M63.47,10H22.93c-0.29,0-0.53,0.24-0.53,0.54v35.21l41.6,0V10.54C64,10.24,63.76,10,63.47,10z"/>
<linearGradient id="SVGID_2_" gradientUnits="userSpaceOnUse" x1="43.2002" y1="44.1259" x2="43.2002" y2="11.6259">
	<stop  offset="0" style="stop-color:#FFC800"/>
	<stop  offset="1" style="stop-color:#FFE600"/>
</linearGradient>
<rect x="24" y="11.63" class="st5" width="38.4" height="32.5"/>
<rect x="27" y="42.66" class="st6" width="1.07" height="0.54"/>
<rect x="58.33" y="42.66" class="st6" width="1.07" height="0.54"/>
<path class="st7" d="M12.8,51.17H1.07C0.48,51.17,0,51.66,0,52.25v2.17c0,0.6,0.48,1.08,1.07,1.08H12.8V51.17z"/>
<linearGradient id="SVGID_3_" gradientUnits="userSpaceOnUse" x1="3.9104" y1="38.1674" x2="3.9104" y2="25.1679">
	<stop  offset="0" style="stop-color:#302C3B"/>
	<stop  offset="0.2926" style="stop-color:#454754"/>
	<stop  offset="0.7557" style="stop-color:#636D78"/>
	<stop  offset="1" style="stop-color:#6E7B85"/>
</linearGradient>
<path class="st8" d="M5.33,25.17h-0.6l-3.11,13h1.05c0.59,0,1.16-0.48,1.28-1.06l2.23-10.88C6.3,25.64,5.92,25.17,5.33,25.17z"/>
<linearGradient id="SVGID_4_" gradientUnits="userSpaceOnUse" x1="13.164" y1="38.1674" x2="13.164" y2="25.1679">
	<stop  offset="0" style="stop-color:#302C3B"/>
	<stop  offset="0.2926" style="stop-color:#454754"/>
	<stop  offset="0.7557" style="stop-color:#636D78"/>
	<stop  offset="1" style="stop-color:#6E7B85"/>
</linearGradient>
<path class="st9" d="M19.2,25.17H9.6c-0.59,0-1.16,0.48-1.29,1.06L6.08,37.11c-0.12,0.58,0.26,1.06,0.85,1.06H19.2
	c0.59,0,1.07-0.49,1.07-1.08V26.25C20.27,25.66,19.79,25.17,19.2,25.17z"/>
<path class="st10" d="M1.33,44.67H3.2V49H1.33V44.67z"/>
<path class="st4" d="M3.2,44.67V49l1.07-1.08v-3.25H3.2z"/>
<path class="st0" d="M19.7,40.37c0-0.4,0-0.72-1.26-0.72h-1.32c-1.26,0-1.26,0.32-1.26,0.72C15.86,40.6,19.7,40.6,19.7,40.37z"/>
<path class="st7" d="M17.07,45.75c-5.23,0-9.47,4.44-9.47,9.75h55.34c0.59,0,1.07-0.49,1.07-1.08v-8.67H17.07z"/>
<path class="st11" d="M24.45,55.43c0-4.11-3.3-7.43-7.39-7.43c-4.07,0-7.38,3.33-7.38,7.43H24.45z"/>
<radialGradient id="SVGID_5_" cx="-24.617" cy="95.0577" r="5.6062" gradientTransform="matrix(1.1526 0 0 1.1596 45.4399 -54.7299)" gradientUnits="userSpaceOnUse">
	<stop  offset="0.4909" style="stop-color:#5B666E"/>
	<stop  offset="0.6437" style="stop-color:#525A64"/>
	<stop  offset="0.9181" style="stop-color:#3C3B49"/>
	<stop  offset="1" style="stop-color:#343040"/>
</radialGradient>
<path class="st12" d="M23.53,55.5c0,3.59-2.89,6.5-6.46,6.5c-3.57,0-6.46-2.91-6.46-6.5c0-3.59,2.89-6.5,6.46-6.5
	C20.64,49,23.53,51.91,23.53,55.5z"/>
<path class="st10" d="M21.54,55.5c0,2.48-2,4.5-4.47,4.5c-2.47,0-4.47-2.01-4.47-4.5c0-2.48,2-4.5,4.47-4.5
	C19.53,51,21.54,53.02,21.54,55.5z"/>
<path class="st7" d="M20.32,56.61c0.12-0.35,0.19-0.72,0.19-1.11c0-0.39-0.07-0.76-0.19-1.11l-1.92,1.11L20.32,56.61z"/>
<path class="st7" d="M17.74,54.33l1.91-1.11c-0.49-0.56-1.16-0.96-1.91-1.12V54.33z"/>
<path class="st7" d="M13.81,54.39c-0.12,0.35-0.19,0.72-0.19,1.11c0,0.39,0.07,0.76,0.19,1.11l1.92-1.11L13.81,54.39z"/>
<path class="st7" d="M17.74,56.67v2.23c0.76-0.15,1.42-0.55,1.92-1.12L17.74,56.67z"/>
<path class="st7" d="M16.4,54.33V52.1c-0.76,0.15-1.42,0.55-1.91,1.12L16.4,54.33z"/>
<path class="st7" d="M16.4,56.67l-1.91,1.11c0.49,0.56,1.16,0.96,1.91,1.12V56.67z"/>
<path class="st1" d="M18.82,55.5c0,0.98-0.78,1.77-1.76,1.77c-0.97,0-1.76-0.79-1.76-1.77c0-0.98,0.79-1.77,1.76-1.77
	C18.04,53.73,18.82,54.52,18.82,55.5z"/>
<path class="st10" d="M17.65,55.5c0,0.32-0.26,0.59-0.58,0.59c-0.32,0-0.58-0.26-0.58-0.59c0-0.32,0.26-0.59,0.58-0.59
	C17.39,54.91,17.65,55.17,17.65,55.5z"/>
<path class="st7" d="M17.32,54.44c0,0.33-0.5,0.33-0.5,0C16.82,54.1,17.32,54.1,17.32,54.44z"/>
<path class="st7" d="M17.32,56.56c0,0.34-0.5,0.34-0.5,0C16.82,56.22,17.32,56.22,17.32,56.56z"/>
<path class="st7" d="M18.1,55.19c-0.29,0.17-0.54-0.27-0.25-0.44C18.14,54.58,18.39,55.02,18.1,55.19z"/>
<path class="st7" d="M16.28,56.25c-0.29,0.17-0.54-0.27-0.25-0.44C16.32,55.64,16.57,56.08,16.28,56.25z"/>
<path class="st7" d="M17.85,56.25c-0.29-0.17-0.04-0.61,0.25-0.44C18.39,55.98,18.14,56.41,17.85,56.25z"/>
<path class="st7" d="M16.03,55.19c-0.29-0.17-0.04-0.6,0.25-0.44C16.57,54.92,16.32,55.36,16.03,55.19z"/>
<path class="st11" d="M61.79,55.43c0-4.11-3.3-7.43-7.39-7.43c-4.07,0-7.38,3.33-7.38,7.43H61.79z"/>
<radialGradient id="SVGID_6_" cx="7.7742" cy="95.0577" r="5.6062" gradientTransform="matrix(1.1526 0 0 1.1596 45.4399 -54.7299)" gradientUnits="userSpaceOnUse">
	<stop  offset="0.4909" style="stop-color:#5B666E"/>
	<stop  offset="0.6437" style="stop-color:#525A64"/>
	<stop  offset="0.9181" style="stop-color:#3C3B49"/>
	<stop  offset="1" style="stop-color:#343040"/>
</radialGradient>
<path class="st13" d="M60.86,55.5c0,3.59-2.89,6.5-6.46,6.5c-3.57,0-6.46-2.91-6.46-6.5c0-3.59,2.89-6.5,6.46-6.5
	C57.97,49,60.86,51.91,60.86,55.5z"/>
<path class="st10" d="M58.87,55.5c0,2.48-2,4.5-4.47,4.5c-2.47,0-4.47-2.01-4.47-4.5c0-2.48,2-4.5,4.47-4.5
	C56.87,51,58.87,53.02,58.87,55.5z"/>
<path class="st7" d="M57.66,56.61c0.12-0.35,0.19-0.72,0.19-1.11c0-0.39-0.07-0.76-0.19-1.11l-1.92,1.11L57.66,56.61z"/>
<path class="st7" d="M55.07,54.33l1.91-1.11c-0.49-0.56-1.16-0.96-1.91-1.12V54.33z"/>
<path class="st7" d="M51.14,54.39c-0.12,0.35-0.19,0.72-0.19,1.11c0,0.39,0.07,0.76,0.19,1.11l1.92-1.11L51.14,54.39z"/>
<path class="st7" d="M55.07,56.67v2.23c0.76-0.15,1.42-0.55,1.92-1.12L55.07,56.67z"/>
<path class="st7" d="M53.73,54.33V52.1c-0.76,0.15-1.42,0.55-1.91,1.12L53.73,54.33z"/>
<path class="st7" d="M53.73,56.67l-1.91,1.11c0.49,0.56,1.16,0.96,1.91,1.12V56.67z"/>
<path class="st1" d="M56.16,55.5c0,0.98-0.78,1.77-1.76,1.77c-0.97,0-1.76-0.79-1.76-1.77c0-0.98,0.79-1.77,1.76-1.77
	C55.37,53.73,56.16,54.52,56.16,55.5z"/>
<path class="st10" d="M54.98,55.5c0,0.32-0.26,0.59-0.58,0.59c-0.32,0-0.58-0.26-0.58-0.59c0-0.32,0.26-0.59,0.58-0.59
	C54.72,54.91,54.98,55.17,54.98,55.5z"/>
<path class="st7" d="M54.65,54.44c0,0.33-0.5,0.33-0.5,0C54.15,54.1,54.65,54.1,54.65,54.44z"/>
<path class="st7" d="M54.65,56.56c0,0.34-0.5,0.34-0.5,0C54.15,56.22,54.65,56.22,54.65,56.56z"/>
<path class="st7" d="M55.44,55.19c-0.29,0.17-0.54-0.27-0.25-0.44C55.48,54.58,55.73,55.02,55.44,55.19z"/>
<path class="st7" d="M53.62,56.25c-0.29,0.17-0.54-0.27-0.25-0.44C53.66,55.64,53.91,56.08,53.62,56.25z"/>
<path class="st7" d="M55.18,56.25c-0.29-0.17-0.04-0.61,0.25-0.44C55.73,55.98,55.48,56.41,55.18,56.25z"/>
<path class="st7" d="M53.37,55.19c-0.29-0.17-0.04-0.6,0.25-0.44C53.91,54.92,53.66,55.36,53.37,55.19z"/>
</svg>
