<?xml version="1.0" encoding="utf-8"?>
<!-- Generator: Adobe Illustrator 15.0.0, SVG Export Plug-In . SVG Version: 6.00 Build 0)  -->
<!DOCTYPE svg PUBLIC "-//W3C//DTD SVG 1.1//EN" "http://www.w3.org/Graphics/SVG/1.1/DTD/svg11.dtd" [
	<!ENTITY ns_flows "http://ns.adobe.com/Flows/1.0/">
	<!ENTITY ns_extend "http://ns.adobe.com/Extensibility/1.0/">
	<!ENTITY ns_ai "http://ns.adobe.com/AdobeIllustrator/10.0/">
	<!ENTITY ns_graphs "http://ns.adobe.com/Graphs/1.0/">
]>
<svg version="1.1" id="Layer_1" xmlns:x="&ns_extend;" xmlns:i="&ns_ai;" xmlns:graph="&ns_graphs;"
	 xmlns="http://www.w3.org/2000/svg" xmlns:xlink="http://www.w3.org/1999/xlink" xmlns:a="http://ns.adobe.com/AdobeSVGViewerExtensions/3.0/"
	 x="0px" y="0px" width="64px" height="64px" viewBox="0 0 64 64" enable-background="new 0 0 64 64" xml:space="preserve">
<path fill="#F59E01" d="M22.151,20.989h1.733C23.885,20.484,22.151,20.062,22.151,20.989z"/>
<linearGradient id="SVGID_1_" gradientUnits="userSpaceOnUse" x1="45.333" y1="54.5332" x2="45.333" y2="14.0005">
	<stop  offset="0" style="stop-color:#C6CFD4"/>
	<stop  offset="0.2285" style="stop-color:#D4DBE0"/>
	<stop  offset="0.5643" style="stop-color:#E1E7EB"/>
	<stop  offset="0.8606" style="stop-color:#E6EBEF"/>
	<a:midPointStop  offset="0" style="stop-color:#C6CFD4"/>
	<a:midPointStop  offset="0.3191" style="stop-color:#C6CFD4"/>
	<a:midPointStop  offset="0.8606" style="stop-color:#E6EBEF"/>
</linearGradient>
<path fill="url(#SVGID_1_)" d="M62.934,15.067c0-0.587-0.479-1.067-1.067-1.067H28.8c-0.585,0-1.066,0.48-1.066,1.067v39.466h35.2
	V15.067z"/>
<linearGradient id="SVGID_2_" gradientUnits="userSpaceOnUse" x1="14.3999" y1="51.334" x2="14.3999" y2="20.8027">
	<stop  offset="0" style="stop-color:#C6CFD4"/>
	<stop  offset="0.2285" style="stop-color:#D4DBE0"/>
	<stop  offset="0.5643" style="stop-color:#E1E7EB"/>
	<stop  offset="0.8606" style="stop-color:#E6EBEF"/>
	<a:midPointStop  offset="0" style="stop-color:#C6CFD4"/>
	<a:midPointStop  offset="0.3191" style="stop-color:#C6CFD4"/>
	<a:midPointStop  offset="0.8606" style="stop-color:#E6EBEF"/>
</linearGradient>
<path fill="url(#SVGID_2_)" d="M22.23,20.802c-3.478,0-7.886,8.677-10.867,11.29C9.299,33.9,1.066,35.313,1.066,37.467v13.867
	h26.667V20.802C27.733,20.802,24.66,20.802,22.23,20.802z"/>
<linearGradient id="SVGID_3_" gradientUnits="userSpaceOnUse" x1="38.5146" y1="54.5332" x2="38.5146" y2="50.2656">
	<stop  offset="0" style="stop-color:#C6CFD4"/>
	<stop  offset="0.2285" style="stop-color:#D4DBE0"/>
	<stop  offset="0.5643" style="stop-color:#E1E7EB"/>
	<stop  offset="0.8606" style="stop-color:#E6EBEF"/>
	<a:midPointStop  offset="0" style="stop-color:#C6CFD4"/>
	<a:midPointStop  offset="0.3191" style="stop-color:#C6CFD4"/>
	<a:midPointStop  offset="0.8606" style="stop-color:#E6EBEF"/>
</linearGradient>
<path fill="url(#SVGID_3_)" d="M62.934,50.266H13.03v4.268h49.903c0.586,0,1.066-0.48,1.066-1.066v-2.133
	C64,50.746,63.52,50.266,62.934,50.266z"/>
<linearGradient id="SVGID_4_" gradientUnits="userSpaceOnUse" x1="4.8267" y1="54.5332" x2="4.8267" y2="48.1328">
	<stop  offset="0" style="stop-color:#302C3B"/>
	<stop  offset="0.2143" style="stop-color:#33303F"/>
	<stop  offset="0.4462" style="stop-color:#3E3D4B"/>
	<stop  offset="0.6865" style="stop-color:#4F5360"/>
	<stop  offset="0.931" style="stop-color:#66717C"/>
	<stop  offset="1" style="stop-color:#6E7B85"/>
	<a:midPointStop  offset="0" style="stop-color:#302C3B"/>
	<a:midPointStop  offset="0.6909" style="stop-color:#302C3B"/>
	<a:midPointStop  offset="1" style="stop-color:#6E7B85"/>
</linearGradient>
<path fill="url(#SVGID_4_)" d="M9.653,48.133H1.066C1.066,49.014,0,49.234,0,50.266c0,1.914,0,3.201,0,3.201
	c0,0.586,0.481,1.066,1.066,1.066h8.587V48.133z"/>
<linearGradient id="SVGID_5_" gradientUnits="userSpaceOnUse" x1="1.0664" y1="39.5996" x2="62.9336" y2="39.5996">
	<stop  offset="0" style="stop-color:#E66000"/>
	<stop  offset="0.5" style="stop-color:#F17200"/>
	<stop  offset="1" style="stop-color:#FF8800"/>
	<a:midPointStop  offset="0" style="stop-color:#E66000"/>
	<a:midPointStop  offset="0.5515" style="stop-color:#E66000"/>
	<a:midPointStop  offset="1" style="stop-color:#FF8800"/>
</linearGradient>
<path fill="url(#SVGID_5_)" d="M1.066,37.467h61.867v4.266H1.066V37.467z"/>
<path opacity="0.1" fill="#1A1626" d="M27.467,20.802h0.267v33.731h-0.267V20.802z"/>
<path fill="#006DAE" d="M43.535,21.615h3.601v12.799h-3.601V21.615z"/>
<path fill="#006DAE" d="M49.543,22.868l2.065,2.949l-10.484,7.341l-2.063-2.947L49.543,22.868z"/>
<path fill="#006DAE" d="M39.059,25.818l2.064-2.95l10.485,7.341l-2.064,2.95L39.059,25.818z"/>
<path fill="#1A1626" d="M11.731,46c-4.71-0.002-8.529,3.814-8.531,8.523c0,0.004,0,0.006,0,0.01h17.066
	C20.267,49.816,16.448,46,11.731,46z"/>
<path opacity="0.1" fill="#1A1626" d="M26.8,52.533h-5.818l-0.024-0.104c-0.982-4.332-4.774-7.359-9.221-7.361h-0.04l-0.093-0.061
	L11.6,44.934V33.139l0.046-0.039c1.089-0.954,2.35-2.795,3.685-4.746c2.363-3.452,4.807-7.021,7.07-7.021H26.8V52.533z
	 M21.193,52.266h5.34V21.6H22.4c-2.123,0-4.635,3.667-6.851,6.904c-1.326,1.938-2.58,3.77-3.684,4.755v11.543
	C16.346,44.863,20.156,47.91,21.193,52.266z"/>
<linearGradient id="SVGID_6_" gradientUnits="userSpaceOnUse" x1="19.4502" y1="33.4023" x2="19.4502" y2="22.085">
	<stop  offset="0" style="stop-color:#302C3B"/>
	<stop  offset="0.2926" style="stop-color:#454754"/>
	<stop  offset="0.7557" style="stop-color:#636D78"/>
	<stop  offset="1" style="stop-color:#6E7B85"/>
	<a:midPointStop  offset="0" style="stop-color:#302C3B"/>
	<a:midPointStop  offset="0.4364" style="stop-color:#302C3B"/>
	<a:midPointStop  offset="1" style="stop-color:#6E7B85"/>
</linearGradient>
<path fill="url(#SVGID_6_)" d="M25.985,33.402V22.084h-2.833c-2.375,0-5.184,4.102-7.662,7.723
	c-0.896,1.309-1.758,2.557-2.575,3.595H25.985z"/>
<radialGradient id="SVGID_7_" cx="-29.2432" cy="96.2207" r="6.4785" gradientTransform="matrix(1.1526 0 0 1.1526 45.4398 -56.3708)" gradientUnits="userSpaceOnUse">
	<stop  offset="0.4909" style="stop-color:#5B666E"/>
	<stop  offset="0.6437" style="stop-color:#525A64"/>
	<stop  offset="0.9181" style="stop-color:#3C3B49"/>
	<stop  offset="1" style="stop-color:#343040"/>
	<a:midPointStop  offset="0.4909" style="stop-color:#5B666E"/>
	<a:midPointStop  offset="0.5765" style="stop-color:#5B666E"/>
	<a:midPointStop  offset="1" style="stop-color:#343040"/>
</radialGradient>
<circle fill="url(#SVGID_7_)" cx="11.733" cy="54.533" r="7.467"/>
<circle fill="#E6EBEF" cx="11.734" cy="54.533" r="4.667"/>
<path fill="#99A8AE" d="M12.201,51.24c0,0.615-0.934,0.615-0.934,0C11.268,50.617,12.201,50.617,12.201,51.24z"/>
<path fill="#99A8AE" d="M12.201,57.826c0,0.623-0.934,0.623-0.934,0C11.268,57.211,12.201,57.211,12.201,57.826z"/>
<path fill="#99A8AE" d="M14.819,53.283c-0.535,0.313-0.994-0.49-0.459-0.799C14.89,52.178,15.351,52.979,14.819,53.283z"/>
<path fill="#99A8AE" d="M9.112,56.58c-0.53,0.307-0.991-0.492-0.46-0.799C9.185,55.471,9.646,56.271,9.112,56.58z"/>
<path fill="#99A8AE" d="M14.354,56.58c-0.528-0.309-0.07-1.109,0.463-0.799C15.349,56.088,14.888,56.887,14.354,56.58z"/>
<path fill="#99A8AE" d="M8.652,53.283c-0.533-0.305-0.07-1.102,0.459-0.797C9.645,52.793,9.185,53.592,8.652,53.283z"/>
<path fill="#CFD8DD" d="M15,54.533c0,1.805-1.459,3.266-3.267,3.266c-1.806,0-3.267-1.461-3.267-3.266s1.461-3.268,3.267-3.268
	C13.541,51.266,15,52.729,15,54.533z"/>
<path fill="#E6EBEF" d="M14.068,54.533c0,1.289-1.053,2.334-2.339,2.334c-1.287,0-2.327-1.045-2.327-2.334s1.04-2.334,2.327-2.334
	C13.016,52.199,14.068,53.244,14.068,54.533z"/>
<path fill="#1A1626" d="M52.265,46c-4.709-0.002-8.529,3.814-8.531,8.523c0,0.004,0,0.006,0,0.01H60.8
	C60.8,49.816,56.981,46,52.265,46z"/>
<radialGradient id="SVGID_8_" cx="5.9238" cy="96.2207" r="6.4783" gradientTransform="matrix(1.1526 0 0 1.1526 45.4398 -56.3708)" gradientUnits="userSpaceOnUse">
	<stop  offset="0.4909" style="stop-color:#5B666E"/>
	<stop  offset="0.6437" style="stop-color:#525A64"/>
	<stop  offset="0.9181" style="stop-color:#3C3B49"/>
	<stop  offset="1" style="stop-color:#343040"/>
	<a:midPointStop  offset="0.4909" style="stop-color:#5B666E"/>
	<a:midPointStop  offset="0.5765" style="stop-color:#5B666E"/>
	<a:midPointStop  offset="1" style="stop-color:#343040"/>
</radialGradient>
<circle fill="url(#SVGID_8_)" cx="52.267" cy="54.533" r="7.467"/>
<circle fill="#E6EBEF" cx="52.268" cy="54.533" r="4.667"/>
<path fill="#99A8AE" d="M52.734,51.24c0,0.615-0.934,0.615-0.934,0C51.801,50.617,52.734,50.617,52.734,51.24z"/>
<path fill="#99A8AE" d="M52.734,57.826c0,0.623-0.934,0.623-0.934,0C51.801,57.211,52.734,57.211,52.734,57.826z"/>
<path fill="#99A8AE" d="M55.354,53.283c-0.536,0.313-0.995-0.49-0.46-0.799C55.423,52.178,55.885,52.979,55.354,53.283z"/>
<path fill="#99A8AE" d="M49.646,56.58c-0.53,0.307-0.991-0.492-0.46-0.799C49.718,55.471,50.181,56.271,49.646,56.58z"/>
<path fill="#99A8AE" d="M54.888,56.58c-0.528-0.309-0.07-1.109,0.463-0.799C55.882,56.088,55.421,56.887,54.888,56.58z"/>
<path fill="#99A8AE" d="M49.186,53.283c-0.533-0.305-0.07-1.102,0.459-0.797C50.178,52.793,49.718,53.592,49.186,53.283z"/>
<path fill="#CFD8DD" d="M55.533,54.533c0,1.805-1.459,3.266-3.267,3.266c-1.805,0-3.267-1.461-3.267-3.266s1.462-3.268,3.267-3.268
	C54.074,51.266,55.533,52.729,55.533,54.533z"/>
<path fill="#E6EBEF" d="M54.603,54.533c0,1.289-1.054,2.334-2.34,2.334c-1.287,0-2.327-1.045-2.327-2.334s1.04-2.334,2.327-2.334
	C53.549,52.199,54.603,53.244,54.603,54.533z"/>
<path fill="#E6EBEF" d="M1.332,40.666h4.001l-1.066,3.201H1.332V40.666z"/>
<path fill="#F59E01" d="M5.333,40.666c0.588,0-0.479,3.201-1.066,3.201H3.2v-3.201H5.333z"/>
<path fill="#E81C27" d="M61.866,40.666c-0.585,0-1.066,0.48-1.066,1.066v1.066c0,0.588,0.481,1.068,1.066,1.068h1.067v-3.201H61.866
	z"/>
<path fill="#CFD8DD" d="M25.832,38.672c0-0.322,0-0.586-1.048-0.586h-1.101c-1.052,0-1.052,0.264-1.052,0.586
	C22.632,38.867,25.832,38.867,25.832,38.672z"/>
<path fill="#990000" d="M33.6,17.733c0,0.293-0.239,0.533-0.533,0.533h-3.2c-0.293,0-0.533-0.24-0.533-0.533V15.6
	c0-0.294,0.24-0.533,0.533-0.533h3.2c0.294,0,0.533,0.239,0.533,0.533V17.733z"/>
<polygon fill="#E81C27" points="30.472,17.959 29.475,16.667 30.472,15.374 32.462,15.374 33.458,16.667 32.462,17.959 "/>
<path fill="#6E8189" d="M38.934,17.733c0,0.293-0.24,0.533-0.533,0.533h-3.2c-0.294,0-0.533-0.24-0.533-0.533V15.6
	c0-0.294,0.239-0.533,0.533-0.533h3.2c0.293,0,0.533,0.239,0.533,0.533V17.733z"/>
<polygon fill="#E6EBEF" points="35.806,17.959 34.809,16.667 35.806,15.374 37.795,15.374 38.792,16.667 37.795,17.959 "/>
<path fill="#6E8189" d="M56,17.733c0,0.293-0.239,0.533-0.533,0.533h-3.2c-0.294,0-0.533-0.24-0.533-0.533V15.6
	c0-0.294,0.239-0.533,0.533-0.533h3.2c0.294,0,0.533,0.239,0.533,0.533V17.733z"/>
<polygon fill="#E6EBEF" points="52.872,17.959 51.875,16.667 52.872,15.374 54.861,15.374 55.858,16.667 54.861,17.959 "/>
<path fill="#990000" d="M61.333,17.733c0,0.293-0.239,0.533-0.533,0.533h-3.2c-0.293,0-0.533-0.24-0.533-0.533V15.6
	c0-0.294,0.24-0.533,0.533-0.533h3.2c0.294,0,0.533,0.239,0.533,0.533V17.733z"/>
<polygon fill="#E81C27" points="58.205,17.959 57.208,16.667 58.205,15.374 60.194,15.374 61.191,16.667 60.194,17.959 "/>
<path fill="#F66257" d="M32.159,16.667c0,0.925-1.387,0.925-1.387,0C30.772,15.743,32.159,15.743,32.159,16.667z"/>
<path fill="#FFFFFF" d="M37.494,16.667c0,0.925-1.388,0.925-1.388,0C36.106,15.742,37.494,15.742,37.494,16.667z"/>
<path fill="#FFFFFF" d="M54.561,16.667c0,0.924-1.388,0.924-1.388,0C53.173,15.743,54.561,15.743,54.561,16.667z"/>
<path fill="#F66257" d="M59.894,16.667c0,0.924-1.388,0.924-1.388,0C58.506,15.743,59.894,15.743,59.894,16.667z"/>
<path fill="#990000" d="M26.973,15.067c-0.217,0-0.393,0.239-0.393,0.533v2.133c0,0.293,0.176,0.533,0.393,0.533h0.761v-3.2H26.973z
	"/>
<polygon fill="#E81C27" points="27.314,15.374 26.685,16.667 27.314,17.959 27.733,17.959 27.733,15.374 "/>
<path fill="#F66257" d="M27.733,17.36v-1.386C27.052,15.974,27.052,17.36,27.733,17.36z"/>
<path fill="#B3C2C6" d="M15.677,33.979l-0.002-2.605c0.001-1.099-3.021-0.205-3.021,0.725l0.002,1.857
	C12.655,34.346,15.677,34.883,15.677,33.979z"/>
</svg>
