<?xml version="1.0" encoding="utf-8"?>
<!-- Generator: Adobe Illustrator 15.0.0, SVG Export Plug-In . SVG Version: 6.00 Build 0)  -->
<!DOCTYPE svg PUBLIC "-//W3C//DTD SVG 1.1//EN" "http://www.w3.org/Graphics/SVG/1.1/DTD/svg11.dtd" [
	<!ENTITY ns_flows "http://ns.adobe.com/Flows/1.0/">
	<!ENTITY ns_extend "http://ns.adobe.com/Extensibility/1.0/">
	<!ENTITY ns_ai "http://ns.adobe.com/AdobeIllustrator/10.0/">
	<!ENTITY ns_graphs "http://ns.adobe.com/Graphs/1.0/">
]>
<svg version="1.1" id="Layer_1" xmlns:x="&ns_extend;" xmlns:i="&ns_ai;" xmlns:graph="&ns_graphs;"
	 xmlns="http://www.w3.org/2000/svg" xmlns:xlink="http://www.w3.org/1999/xlink" xmlns:a="http://ns.adobe.com/AdobeSVGViewerExtensions/3.0/"
	 x="0px" y="0px" width="64px" height="64px" viewBox="0 0 64 64" enable-background="new 0 0 64 64" xml:space="preserve">
<polygon fill="#99A8AE" points="24.825,21.79 23.336,20.871 26.433,16.307 27.922,17.227 "/>
<rect x="30.4" y="9.6" fill="#302C3B" width="3.199" height="3.766"/>
<rect x="25.066" y="21.834" fill="#4E5E67" width="13.867" height="0.566"/>
<rect x="28" y="17.383" fill="#4E5E67" width="7.467" height="0.565"/>
<polygon fill="#302C3B" points="23.467,26.667 21.333,26.667 30.934,11.733 33.066,11.733 "/>
<polygon fill="#302C3B" points="42.667,26.667 40.533,26.667 30.934,11.733 33.066,11.733 "/>
<linearGradient id="SVGID_1_" gradientUnits="userSpaceOnUse" x1="32.0005" y1="62.9336" x2="32.0005" y2="26.6675">
	<stop  offset="0" style="stop-color:#F9B700"/>
	<stop  offset="0.0523" style="stop-color:#FABE00"/>
	<stop  offset="0.2457" style="stop-color:#FDD400"/>
	<stop  offset="0.4316" style="stop-color:#FEE100"/>
	<stop  offset="0.6" style="stop-color:#FFE600"/>
	<a:midPointStop  offset="0" style="stop-color:#F9B700"/>
	<a:midPointStop  offset="0.3131" style="stop-color:#F9B700"/>
	<a:midPointStop  offset="0.6" style="stop-color:#FFE600"/>
</linearGradient>
<path fill="url(#SVGID_1_)" d="M43.089,26.667H20.911c-0.001,0.001-7.044,6.219-7.044,18.133c0,11.915,7.043,18.133,7.044,18.134
	h22.178c0.001-0.001,7.045-6.219,7.045-18.134C50.134,32.886,43.09,26.668,43.089,26.667z"/>
<path fill="#1A1626" d="M48,44.8c0-7.883-3.326-13.255-5.581-16H21.581C19.326,31.545,16,36.917,16,44.8
	c0,2.813,0.434,5.296,1.081,7.467h29.838C47.566,50.096,48,47.612,48,44.8z"/>
<linearGradient id="SVGID_2_" gradientUnits="userSpaceOnUse" x1="32.0005" y1="52.2666" x2="32.0005" y2="28.8008">
	<stop  offset="0" style="stop-color:#302C3B"/>
	<stop  offset="0.2926" style="stop-color:#454754"/>
	<stop  offset="0.7557" style="stop-color:#636D78"/>
	<stop  offset="1" style="stop-color:#6E7B85"/>
	<a:midPointStop  offset="0" style="stop-color:#302C3B"/>
	<a:midPointStop  offset="0.4364" style="stop-color:#302C3B"/>
	<a:midPointStop  offset="1" style="stop-color:#6E7B85"/>
</linearGradient>
<path fill="url(#SVGID_2_)" d="M45.867,44.8c0-6.968-2.598-11.969-4.759-14.933H22.892c-2.161,2.964-4.758,7.965-4.758,14.933
	c0,2.368,0.317,4.489,0.802,6.4h26.129C45.549,49.289,45.867,47.168,45.867,44.8z"/>
<rect x="23.2" y="26.667" fill="#F9B700" width="0.533" height="36.267"/>
<rect x="22.4" y="28.8" fill="#1A1626" width="2.133" height="23.467"/>
<rect x="40.267" y="26.667" fill="#F9B700" width="0.533" height="36.267"/>
<rect x="39.467" y="28.8" fill="#1A1626" width="2.133" height="23.467"/>
<path fill="#302C3B" d="M42.021,61.867H21.979v1.066c0,0.586,0.479,1.066,1.066,1.066h17.91c0.587,0,1.066-0.48,1.066-1.066V61.867z
	"/>
<polygon fill="#302C3B" points="47.527,57.6 45.86,57.6 47.354,53.6 49.021,53.6 "/>
<polygon fill="#302C3B" points="16.473,57.6 18.14,57.6 16.646,53.6 14.979,53.6 "/>
<rect x="21.066" y="26.102" fill="#4E5E67" width="3.2" height="0.565"/>
<rect x="39.733" y="26.102" fill="#4E5E67" width="3.2" height="0.565"/>
<polygon fill="#1A1626" points="64,15.617 0,4.332 0,3.249 64,14.533 "/>
<polygon fill="#1A1626" points="64,12.368 0,1.082 0,0 64,11.284 "/>
<path fill="#6E8189" d="M25.172,6.604c-0.494,2.802-4.695,2.061-4.202-0.741C21.465,3.062,25.666,3.803,25.172,6.604z"/>
<path fill="#4E5E67" d="M24.122,6.419c-0.247,1.401-2.348,1.03-2.102-0.37C22.268,4.648,24.369,5.019,24.122,6.419z"/>
<path fill="#6E8189" d="M29.374,7.345c-0.494,2.802-4.696,2.062-4.202-0.74S29.868,4.544,29.374,7.345z"/>
<path fill="#4E5E67" d="M28.323,7.16c-0.247,1.4-2.347,1.029-2.101-0.37C26.47,5.39,28.57,5.76,28.323,7.16z"/>
<path fill="#B3C2C6" d="M27.729,7.462c-0.026,0.145-0.165,0.241-0.31,0.216l-6.828-1.204c-0.145-0.025-0.242-0.164-0.217-0.309
	l0.14-0.788c0.025-0.145,0.165-0.241,0.309-0.217l6.828,1.204c0.145,0.025,0.241,0.165,0.217,0.31L27.729,7.462z"/>
<rect x="24.105" y="3.404" transform="matrix(0.9849 0.173 -0.173 0.9849 1.5221 -4.2552)" fill="#99A8AE" width="2.134" height="6.401"/>
<path fill="#6E8189" d="M38.828,9.013c-0.494,2.801,3.707,3.543,4.202,0.74C43.524,6.951,39.322,6.211,38.828,9.013z"/>
<path fill="#4E5E67" d="M39.878,9.198c-0.247,1.399,1.854,1.77,2.102,0.369C42.227,8.168,40.125,7.797,39.878,9.198z"/>
<path fill="#6E8189" d="M34.626,8.271c-0.493,2.803,3.708,3.543,4.202,0.742C39.322,6.211,35.12,5.47,34.626,8.271z"/>
<path fill="#4E5E67" d="M35.677,8.456c-0.246,1.401,1.854,1.771,2.101,0.371S35.924,7.057,35.677,8.456z"/>
<path fill="#B3C2C6" d="M36.133,8.942c-0.025,0.146,0.071,0.284,0.216,0.31l6.828,1.204c0.145,0.025,0.284-0.071,0.309-0.217
	l0.14-0.787c0.025-0.145-0.072-0.283-0.217-0.31L36.58,7.938c-0.145-0.024-0.283,0.072-0.31,0.217L36.133,8.942z"/>
<rect x="37.761" y="5.812" transform="matrix(-0.9848 -0.1734 0.1734 -0.9848 75.5046 24.6224)" fill="#99A8AE" width="2.134" height="6.4"/>
<rect x="24.555" y="4.124" transform="matrix(0.9848 0.1736 -0.1736 0.9848 1.3032 -5.5821)" fill="#6E8189" width="16.001" height="1.066"/>
<rect x="23.444" y="10.426" transform="matrix(0.9848 0.1736 -0.1736 0.9848 2.3806 -5.2934)" fill="#6E8189" width="16.001" height="1.067"/>
<rect x="32.509" y="4.353" transform="matrix(-0.9848 -0.1739 0.1739 -0.9848 65.2338 21.8871)" fill="#302C3B" width="2.134" height="7.467"/>
<path fill="#B3C2C6" d="M32.988,5.275c-0.246,1.399,1.854,1.771,2.102,0.369C35.337,4.244,33.235,3.873,32.988,5.275z"/>
<path fill="#6E8189" d="M33.514,5.368c-0.123,0.698,0.927,0.884,1.05,0.184C34.688,4.853,33.638,4.667,33.514,5.368z"/>
<path fill="#B3C2C6" d="M32.063,10.528c-0.248,1.399,1.854,1.771,2.1,0.371C34.41,9.497,32.31,9.127,32.063,10.528z"/>
<path fill="#6E8189" d="M32.588,10.621c-0.124,0.699,0.927,0.884,1.05,0.186C33.762,10.105,32.711,9.92,32.588,10.621z"/>
<rect x="29.358" y="3.798" transform="matrix(0.9847 0.174 -0.174 0.9847 1.7751 -5.1802)" fill="#302C3B" width="2.132" height="7.466"/>
<path fill="#B3C2C6" d="M31.938,5.09c-0.247,1.399-2.348,1.03-2.101-0.371S32.186,3.688,31.938,5.09z"/>
<path fill="#6E8189" d="M31.412,4.997c-0.122,0.7-1.174,0.515-1.05-0.186C30.485,4.111,31.536,4.296,31.412,4.997z"/>
<path fill="#B3C2C6" d="M31.012,10.343c-0.247,1.4-2.348,1.03-2.102-0.371C29.157,8.571,31.259,8.941,31.012,10.343z"/>
<path fill="#6E8189" d="M30.486,10.25c-0.124,0.7-1.174,0.515-1.051-0.186C29.56,9.364,30.609,9.55,30.486,10.25z"/>
</svg>
