<?xml version="1.0" encoding="utf-8"?>
<!-- Generator: Adobe Illustrator 15.0.0, SVG Export Plug-In . SVG Version: 6.00 Build 0)  -->
<!DOCTYPE svg PUBLIC "-//W3C//DTD SVG 1.1//EN" "http://www.w3.org/Graphics/SVG/1.1/DTD/svg11.dtd" [
	<!ENTITY ns_flows "http://ns.adobe.com/Flows/1.0/">
	<!ENTITY ns_extend "http://ns.adobe.com/Extensibility/1.0/">
	<!ENTITY ns_ai "http://ns.adobe.com/AdobeIllustrator/10.0/">
	<!ENTITY ns_graphs "http://ns.adobe.com/Graphs/1.0/">
]>
<svg version="1.1" id="Layer_1" xmlns:x="&ns_extend;" xmlns:i="&ns_ai;" xmlns:graph="&ns_graphs;"
	 xmlns="http://www.w3.org/2000/svg" xmlns:xlink="http://www.w3.org/1999/xlink" xmlns:a="http://ns.adobe.com/AdobeSVGViewerExtensions/3.0/"
	 x="0px" y="0px" width="64px" height="64px" viewBox="0 0 64 64" enable-background="new 0 0 64 64" xml:space="preserve">
<linearGradient id="SVGID_1_" gradientUnits="userSpaceOnUse" x1="-62" y1="68" x2="-62" y2="8.0005" gradientTransform="matrix(1 0 0 -1 94 70)">
	<stop  offset="0" style="stop-color:#00ABF1"/>
	<stop  offset="0.2292" style="stop-color:#00A7EF"/>
	<stop  offset="0.4667" style="stop-color:#009AE9"/>
	<stop  offset="0.7079" style="stop-color:#0086E0"/>
	<stop  offset="0.9504" style="stop-color:#0069D3"/>
	<stop  offset="1" style="stop-color:#0062D0"/>
	<a:midPointStop  offset="0" style="stop-color:#00ABF1"/>
	<a:midPointStop  offset="0.5" style="stop-color:#00ABF1"/>
	<a:midPointStop  offset="0.2292" style="stop-color:#00A7EF"/>
	<a:midPointStop  offset="0.5" style="stop-color:#00A7EF"/>
	<a:midPointStop  offset="0.4667" style="stop-color:#009AE9"/>
	<a:midPointStop  offset="0.5" style="stop-color:#009AE9"/>
	<a:midPointStop  offset="0.7079" style="stop-color:#0086E0"/>
	<a:midPointStop  offset="0.5" style="stop-color:#0086E0"/>
	<a:midPointStop  offset="0.9504" style="stop-color:#0069D3"/>
	<a:midPointStop  offset="0.5" style="stop-color:#0069D3"/>
	<a:midPointStop  offset="1" style="stop-color:#0062D0"/>
</linearGradient>
<path fill="url(#SVGID_1_)" d="M62,54c0,4.4-3.6,8-8,8H10c-4.399,0-8-3.6-8-8V10c0-4.4,3.601-8,8-8h44c4.4,0,8,3.6,8,8V54z"/>
<path fill="#FFFFFF" d="M31.457,23.144c0,5.528,10.823,5.528,10.823,0c0-3.001,0-5.512,0-5.512H31.457l-4.306,3.308h4.306
	C31.457,21.718,31.457,22.507,31.457,23.144z"/>
<polygon fill="#FFFFFF" points="42.279,16.527 42.279,12.117 30.381,12.117 31.457,16.527 "/>
<path fill="#FFFFFF" d="M28.559,40.271l12.287-11.563H30.829c0,0-0.018,0.008-0.021,0.009c-0.624-0.005-1.278,0.232-1.864,0.833
	l-5.841,5.985l-2.421-2.481c-2.487-2.548-6.198,1.254-3.711,3.801l4.253,4.357c0.533,0.545,1.119,0.786,1.691,0.824
	c0.063,0.006,0.125,0.01,0.189,0.01c0.063,0,0.128-0.004,0.19-0.01c0.571-0.038,1.158-0.279,1.69-0.824l3.576-3.664V40.271z"/>
<path fill="#FFFFFF" d="M45.23,28.708L28.584,44.654h13.923v-7.521h0.744v12.047c0,3.604,4.248,3.604,4.248,0V31.033
	C47.5,29.754,46.479,28.708,45.23,28.708z"/>
<rect x="28.559" y="46.491" fill="#FFFFFF" width="13.949" height="5.393"/>
<path fill="#FFFFFF" d="M22.074,20.436v8.677l0.424-0.01c0.623-0.017,1.133-0.552,1.133-1.19v-9.94c0-0.638-0.51-1.147-1.133-1.131
	l-6.407,0.167c0,0,3.12,0.679,4.159,0.908C21.561,18.204,22.074,18.966,22.074,20.436z"/>
<path fill="#FFFFFF" d="M21.365,30.282v-9.94c0-0.638-0.489-1.309-1.086-1.491l-4.692-1.424c-0.597-0.181-1.086,0.193-1.086,0.831
	v9.939c0,0.638,0.489,1.309,1.086,1.49l4.692,1.425C20.876,31.293,21.365,30.92,21.365,30.282z"/>
</svg>
