<?xml version="1.0" encoding="utf-8"?>
<!-- Generator: Adobe Illustrator 15.0.0, SVG Export Plug-In . SVG Version: 6.00 Build 0)  -->
<!DOCTYPE svg PUBLIC "-//W3C//DTD SVG 1.1//EN" "http://www.w3.org/Graphics/SVG/1.1/DTD/svg11.dtd" [
	<!ENTITY ns_flows "http://ns.adobe.com/Flows/1.0/">
	<!ENTITY ns_extend "http://ns.adobe.com/Extensibility/1.0/">
	<!ENTITY ns_ai "http://ns.adobe.com/AdobeIllustrator/10.0/">
	<!ENTITY ns_graphs "http://ns.adobe.com/Graphs/1.0/">
]>
<svg version="1.1" id="Layer_1" xmlns:x="&ns_extend;" xmlns:i="&ns_ai;" xmlns:graph="&ns_graphs;"
	 xmlns="http://www.w3.org/2000/svg" xmlns:xlink="http://www.w3.org/1999/xlink" xmlns:a="http://ns.adobe.com/AdobeSVGViewerExtensions/3.0/"
	 x="0px" y="0px" width="64px" height="64px" viewBox="0 0 64 64" enable-background="new 0 0 64 64" xml:space="preserve">
<linearGradient id="SVGID_1_" gradientUnits="userSpaceOnUse" x1="-62" y1="68" x2="-62" y2="8.0005" gradientTransform="matrix(1 0 0 -1 94 70)">
	<stop  offset="0" style="stop-color:#00ABF1"/>
	<stop  offset="0.2292" style="stop-color:#00A7EF"/>
	<stop  offset="0.4667" style="stop-color:#009AE9"/>
	<stop  offset="0.7079" style="stop-color:#0086E0"/>
	<stop  offset="0.9504" style="stop-color:#0069D3"/>
	<stop  offset="1" style="stop-color:#0062D0"/>
	<a:midPointStop  offset="0" style="stop-color:#00ABF1"/>
	<a:midPointStop  offset="0.5" style="stop-color:#00ABF1"/>
	<a:midPointStop  offset="0.2292" style="stop-color:#00A7EF"/>
	<a:midPointStop  offset="0.5" style="stop-color:#00A7EF"/>
	<a:midPointStop  offset="0.4667" style="stop-color:#009AE9"/>
	<a:midPointStop  offset="0.5" style="stop-color:#009AE9"/>
	<a:midPointStop  offset="0.7079" style="stop-color:#0086E0"/>
	<a:midPointStop  offset="0.5" style="stop-color:#0086E0"/>
	<a:midPointStop  offset="0.9504" style="stop-color:#0069D3"/>
	<a:midPointStop  offset="0.5" style="stop-color:#0069D3"/>
	<a:midPointStop  offset="1" style="stop-color:#0062D0"/>
</linearGradient>
<path fill="url(#SVGID_1_)" d="M62,54c0,4.4-3.6,8-8,8H10c-4.4,0-8-3.6-8-8V10c0-4.4,3.6-8,8-8h44c4.4,0,8,3.6,8,8V54z"/>
<polygon fill="#FFFFFF" points="31,12.152 24.568,6 18.138,12.152 22.502,12.152 22.502,18.667 26.636,18.667 26.636,12.152 "/>
<polygon fill="#FFFFFF" points="33,12.515 39.432,18.667 45.863,12.515 41.498,12.515 41.498,6 37.363,6 37.363,12.515 "/>
<path fill="#FFFFFF" d="M45.564,25.667c2.334,0,4.232,1.899,4.232,4.234v18.084c0,2.335-1.898,4.234-4.232,4.234H18.437
	c-2.335,0-4.234-1.899-4.234-4.234V29.901c0-2.334,1.899-4.234,4.234-4.234H45.564 M45.564,22.667H18.437
	c-3.979,0-7.234,3.255-7.234,7.234v18.084c0,3.979,3.255,7.234,7.234,7.234h27.128c3.979,0,7.232-3.255,7.232-7.234V29.901
	C52.797,25.922,49.543,22.667,45.564,22.667L45.564,22.667z"/>
<path fill="#FFFFFF" d="M23.434,32.682c-1.416,0-2.49,0-3.473,0c-0.869,0-2.171,0.595-2.171,1.736v5.831
	c0,0.908,1.302,0.908,1.302,0v-4.528h0.435v13.036c0,1.142,1.953,1.142,1.953,0v-8.26h0.435v8.26c0,1.142,1.954,1.142,1.954,0
	V35.721h0.434v4.528c0,0.908,1.303,0.908,1.303,0v-5.831C25.604,33.276,24.302,32.682,23.434,32.682z"/>
<circle fill="#FFFFFF" cx="21.697" cy="29.953" r="2.233"/>
<circle fill="#FFFFFF" cx="42.303" cy="29.953" r="2.233"/>
<path fill="#FFFFFF" d="M46.236,39.524c0.311,0.853,1.535,0.406,1.225-0.445c0,0,0,0-1.76-4.836
	c-0.443-1.219-1.334-1.562-2.158-1.562c-1.416,0-1.498,0-2.48,0c-0.826,0-1.715,0.343-2.158,1.562
	c-1.76,4.836-1.76,4.836-1.76,4.836c-0.311,0.853,0.912,1.299,1.223,0.445l1.385-3.805h0.379l-2.48,7.753h2.48v5.284
	c0,1.142,1.955,1.142,1.955,0v-5.284h0.434v5.284c0,1.142,1.953,1.142,1.953,0v-5.284h2.482l-2.482-7.753h0.381L46.236,39.524z"/>
<circle fill="#FFFFFF" cx="32" cy="29.953" r="2.233"/>
<path fill="#FFFFFF" d="M28.065,39.524c-0.311,0.853-1.535,0.406-1.224-0.445c0,0,0,0,1.76-4.836
	c0.444-1.219,1.333-1.562,2.158-1.562c1.417,0,2.977,0,2.977,0c0.869,0,2.17,0.595,2.17,1.736v5.831c0,0.908-1.301,0.908-1.301,0
	v-4.528H34.17v13.036c0,1.142-1.953,1.142-1.953,0v-5.291l-0.001,0.007h-0.435v5.284c0,1.142-1.953,1.142-1.953,0v-5.284h-2.48
	l2.48-7.753H29.45L28.065,39.524z"/>
</svg>
