<?xml version="1.0" encoding="utf-8"?>
<!-- Generator: Adobe Illustrator 24.1.2, SVG Export Plug-In . SVG Version: 6.00 Build 0)  -->
<svg version="1.1" id="Layer_1" xmlns="http://www.w3.org/2000/svg" xmlns:xlink="http://www.w3.org/1999/xlink" x="0px" y="0px"
	 width="64px" height="64px" viewBox="0 0 64 64" style="enable-background:new 0 0 64 64;" xml:space="preserve">
<style type="text/css">
	.st0{fill:#6F767A;}
	.st1{fill:url(#SVGID_1_);}
	.st2{fill:url(#SVGID_2_);}
	.st3{fill:url(#SVGID_3_);}
	.st4{fill:#302C3B;}
	.st5{fill:url(#SVGID_4_);}
	.st6{fill:url(#SVGID_5_);}
	.st7{fill:url(#SVGID_6_);}
	.st8{fill:#C4926E;}
	.st9{fill:url(#SVGID_7_);}
	.st10{opacity:0.1;fill:#FFFFFF;}
</style>
<polygon class="st0" points="26.32,46.55 24.68,43.34 20.12,44.72 24.14,49 "/>
<linearGradient id="SVGID_1_" gradientUnits="userSpaceOnUse" x1="-53.2832" y1="85.6676" x2="-46.2238" y2="85.6676" gradientTransform="matrix(0.9921 0.1257 -0.1257 0.9921 85.9451 -29.7978)">
	<stop  offset="0" style="stop-color:#3AB0A2"/>
	<stop  offset="1" style="stop-color:#28EDD5"/>
</linearGradient>
<path class="st1" d="M29.45,48.37c-0.2-0.75-1.52-2.92-3.08-3.27c-1.54-0.34-3.76,1.03-4.04,3.23c-0.24,1.92,1.29,3.73,2.48,4.41
	C25.78,52.77,28.62,50.54,29.45,48.37z"/>
<linearGradient id="SVGID_2_" gradientUnits="userSpaceOnUse" x1="-172.1077" y1="89.5956" x2="-174.3827" y2="83.9332" gradientTransform="matrix(0.9921 0.1257 -0.3986 0.9575 233.1585 -11.2672)">
	<stop  offset="0" style="stop-color:#3AB0A2"/>
	<stop  offset="1" style="stop-color:#28EDD5"/>
</linearGradient>
<path class="st2" d="M29.35,50.39c-0.63,1.63-2.33,2.78-3.8,2.58c-1.47-0.2-2.14-1.68-1.51-3.31c0.63-1.63,2.33-2.78,3.8-2.58
	C29.31,47.29,29.98,48.77,29.35,50.39z"/>
<linearGradient id="SVGID_3_" gradientUnits="userSpaceOnUse" x1="26.8423" y1="51.6504" x2="26.8423" y2="48.6504">
	<stop  offset="0" style="stop-color:#21BFAC"/>
	<stop  offset="1" style="stop-color:#10665B"/>
</linearGradient>
<path class="st3" d="M28.18,50.29c-0.34,0.82-1.22,1.43-1.96,1.36c-0.74-0.08-1.06-0.8-0.71-1.63c0.34-0.82,1.22-1.43,1.96-1.36
	C28.2,48.73,28.52,49.46,28.18,50.29z"/>
<path class="st4" d="M27.71,49.41c-0.63-1.31-2.76,0.51-1.68,1.38C26.74,51.36,28.15,50.33,27.71,49.41z"/>
<polygon class="st0" points="53.62,31.08 52.21,28.99 48.71,30.7 51.87,33.3 "/>
<linearGradient id="SVGID_4_" gradientUnits="userSpaceOnUse" x1="50.2223" y1="33.5403" x2="57.3896" y2="33.5403">
	<stop  offset="0" style="stop-color:#3AB0A2"/>
	<stop  offset="1" style="stop-color:#28EDD5"/>
</linearGradient>
<path class="st5" d="M57.39,32.64c-0.5-1.03-2.17-2.83-3.69-2.97c-1.76-0.16-3.62,1.73-3.47,3.72c0.13,1.74,2.04,3.46,3.35,4.04
	C54.5,37.33,56.84,34.81,57.39,32.64z"/>
<linearGradient id="SVGID_5_" gradientUnits="userSpaceOnUse" x1="-83.8303" y1="37.3987" x2="-85.3907" y2="31.7253" gradientTransform="matrix(1 0 -0.275 1 149.0657 0)">
	<stop  offset="0" style="stop-color:#3AB0A2"/>
	<stop  offset="1" style="stop-color:#28EDD5"/>
</linearGradient>
<path class="st6" d="M57.52,34.56c-0.42,1.63-1.91,2.95-3.33,2.95s-2.23-1.32-1.81-2.95c0.42-1.63,1.91-2.95,3.33-2.95
	C57.13,31.61,57.94,32.93,57.52,34.56z"/>
<linearGradient id="SVGID_6_" gradientUnits="userSpaceOnUse" x1="55.0836" y1="36.1456" x2="55.0836" y2="33.1456">
	<stop  offset="0" style="stop-color:#21BFAC"/>
	<stop  offset="1" style="stop-color:#10665B"/>
</linearGradient>
<path class="st7" d="M56.37,34.6c-0.23,0.83-1,1.52-1.71,1.54c-0.71,0.02-1.1-0.63-0.86-1.46c0.23-0.83,1-1.52,1.71-1.54
	C56.22,33.12,56.6,33.77,56.37,34.6z"/>
<path class="st4" d="M55.73,33.77c-0.82-1.1-2.49,1.02-1.32,1.62C55.18,35.77,56.31,34.54,55.73,33.77z"/>
<path class="st8" d="M52.44,14.8c-4.46,4.94-39.82,20.73-45.09,21.41c-13.58,1.76-6.91,15.08,8.33,13.11
	c4.72-0.61,7.42-2.79,10.61-4.74c6.84-4.18,18.87-10.62,26.41-14.36c3.37-1.68,4.8-2.22,7.24-4.59
	C69.08,16.74,61.14,5.16,52.44,14.8z"/>
<radialGradient id="SVGID_7_" cx="-2795.8875" cy="-2087.4771" r="353.7621" gradientTransform="matrix(0.097 -0.0694 0.0337 0.0541 370.35 -52.8086)" gradientUnits="userSpaceOnUse">
	<stop  offset="0" style="stop-color:#4E585E"/>
	<stop  offset="0.3757" style="stop-color:#454B53"/>
	<stop  offset="1" style="stop-color:#302C3B"/>
</radialGradient>
<path class="st9" d="M51.35,13.63c-5.25,3.95-5.74,3.98-7.92,4.88c-6.51,2.68-14.27,6.48-27.95,13.74
	c-3.56,1.89-3.94,2.77-9.16,3.82c-11.22,2.25-6.16,13.08,7.8,12.6c4.76-0.16,7.96-2.63,11.16-4.6c6.53-4.01,21.24-11.89,27.6-14.93
	c2.77-1.32,4.67-2.26,6.83-4.57C68.86,14.77,60.68,6.62,51.35,13.63z"/>
<path class="st10" d="M48.96,24.01c-0.59-0.21-1.17,0.41-0.54,0.63C49.03,24.86,49.56,24.23,48.96,24.01z"/>
<path class="st10" d="M46.43,22.12c-0.53-0.19-1.05,0.36-0.48,0.56C46.49,22.88,46.97,22.32,46.43,22.12z"/>
<path class="st10" d="M42.41,23.95c-0.53-0.19-1.05,0.36-0.48,0.56C42.47,24.71,42.95,24.15,42.41,23.95z"/>
<path class="st10" d="M44.57,26.19c-0.59-0.21-1.17,0.41-0.54,0.63C44.64,27.04,45.18,26.41,44.57,26.19z"/>
<path class="st10" d="M22.89,37.55c-0.59-0.21-1.17,0.41-0.54,0.63C22.96,38.4,23.5,37.76,22.89,37.55z"/>
<path class="st10" d="M20.36,35.66c-0.53-0.19-1.05,0.36-0.48,0.56C20.43,36.42,20.91,35.85,20.36,35.66z"/>
<path class="st10" d="M16.34,37.49c-0.53-0.19-1.05,0.36-0.48,0.56C16.41,38.25,16.89,37.68,16.34,37.49z"/>
<path class="st10" d="M18.5,39.73c-0.59-0.21-1.17,0.41-0.54,0.63C18.58,40.57,19.11,39.94,18.5,39.73z"/>
</svg>
