<?xml version="1.0" encoding="utf-8"?>
<!-- Generator: Adobe Illustrator 24.1.2, SVG Export Plug-In . SVG Version: 6.00 Build 0)  -->
<svg version="1.1" id="Layer_1" xmlns="http://www.w3.org/2000/svg" xmlns:xlink="http://www.w3.org/1999/xlink" x="0px" y="0px"
	 width="64px" height="64px" viewBox="0 0 64 64" style="enable-background:new 0 0 64 64;" xml:space="preserve">
<style type="text/css">
	.st0{fill:#FFAE2C;}
	.st1{fill:#DB942D;}
	.st2{fill:url(#SVGID_1_);}
	.st3{fill:url(#SVGID_2_);}
	.st4{fill:#FFC940;}
	.st5{opacity:0.3;fill:#DB942D;}
	.st6{opacity:0.3;fill:#FFFFFF;}
</style>
<path class="st0" d="M20.69,54.8c1.76,3.44,1.9,4.9,1.95,6.93c0.08,3.02,21.66,3.02,21.66,0c0-1.88,0.61-4.1,2.7-6.93H20.69z"/>
<path class="st1" d="M46.11,54.8c-1.54,2.42-1.81,4.65-1.81,6.93c0.5-2.31,1.48-4.44,3.43-6.93H46.11z"/>
<path class="st1" d="M21.46,54.8h-1.3c1.95,3.66,2.08,4.86,2.47,6.93C22.58,59.66,22.92,58.11,21.46,54.8z"/>
<radialGradient id="SVGID_1_" cx="32.6878" cy="22.5709" r="28.7493" gradientTransform="matrix(1.011 0 0 1.2687 2.8777 -6.3311)" gradientUnits="userSpaceOnUse">
	<stop  offset="0.5333" style="stop-color:#FFC940"/>
	<stop  offset="0.7828" style="stop-color:#FFC73E"/>
	<stop  offset="0.8937" style="stop-color:#FFC039"/>
	<stop  offset="0.977" style="stop-color:#FFB330"/>
	<stop  offset="1" style="stop-color:#FFAE2C"/>
</radialGradient>
<path class="st2" d="M23.99,31.07c0,0-3.87-10.46-5.97-17.78c-1.37-4.79-8.39-2.8-7.12,2.02c1.1,4.15,4.2,16.37,3.76,19.58
	c-0.59,4.34-0.33,10.9,3.67,17.26c5.94,9.48,34.92,13.26,34.92-13.12C53.25,36.72,23.99,31.07,23.99,31.07z"/>
<path class="st1" d="M38.79,33.46C32.53,32,26.2,30.74,24.55,30.42c-0.72-1.97-3.97-10.92-5.8-17.33c-0.81-2.81-3.34-3.7-5.44-3.12
	c-2.12,0.58-3.88,2.67-3.13,5.54c2.03,7.7,4.08,16.81,3.74,19.29c-0.49,3.6-0.65,10.7,3.78,17.76c1.49,2.37,4.03,4.32,8.21,5.12
	c-3.6-1.24-5.62-3.82-6.94-5.92C14.79,45.1,14.94,38.4,15.41,35c0.45-3.31-2.49-15-3.78-19.88c-0.53-2.02,0.66-3.32,2.07-3.71
	c1.39-0.38,3.04,0.12,3.6,2.09c2.08,7.27,5.94,17.73,5.98,17.84l0.15,0.4l0.41,0.08c13.1,2.53,27.26,5.95,28.65,7.38
	C52.45,50.86,45.83,55.77,42.12,58C49.75,55.53,54,48.9,54,39.04C54,38.72,54,37,38.79,33.46z"/>
<radialGradient id="SVGID_2_" cx="-255.933" cy="269.7702" r="6.904" gradientTransform="matrix(0 -1.4179 1.8626 0 -469.9609 -320.1386)" gradientUnits="userSpaceOnUse">
	<stop  offset="0.2788" style="stop-color:#FAA00F"/>
	<stop  offset="0.4805" style="stop-color:#FBAA1B;stop-opacity:0.6705"/>
	<stop  offset="0.8465" style="stop-color:#FFC53C;stop-opacity:0.0726"/>
	<stop  offset="0.8909" style="stop-color:#FFC940;stop-opacity:0"/>
</radialGradient>
<path class="st3" d="M19.44,41.58c-0.6,15.22,25.5,15.51,26.11,0.66C45.84,35.03,19.72,34.4,19.44,41.58z"/>
<path class="st4" d="M50.8,35.67c-1.11-9.54-0.21-19.06-0.45-30.62c-0.12-5.87-8.4-5.65-8.4,0.22c0,4.84-0.14,23.54-1.19,25.46
	C44.07,31.86,47.59,34.23,50.8,35.67z"/>
<path class="st1" d="M51.7,36.89l-1.2-0.54c-1.32-0.59-2.72-1.35-4.06-2.08c-1.97-1.07-4-2.18-5.91-2.83l-0.84-0.29l0.43-0.78
	c0.77-1.4,1.11-15.81,1.1-25.1c0-3.42,2.49-5.24,4.96-5.27c2.32-0.03,4.86,1.54,4.94,5.03c0.09,4.27,0.02,8.24-0.04,12.08
	c-0.11,6.43-0.21,12.49,0.49,18.47L51.7,36.89z M41.68,30.27c1.82,0.7,3.67,1.71,5.47,2.68c0.95,0.52,1.87,1.02,2.77,1.46
	c-0.55-5.64-0.45-11.33-0.35-17.33c0.06-3.82,0.13-7.78,0.04-12.02c-0.05-2.49-1.78-3.58-3.42-3.56C44.5,1.52,42.7,2.7,42.7,5.27
	C42.7,6.15,42.71,25.56,41.68,30.27z"/>
<path class="st5" d="M43.67,38.08C32.2,41.89,31.95,51.91,32.62,55.95c0.14,0.87,0.43,0.55,0.48-0.02
	c0.39-4.26,1.69-12.83,10.78-17.44C44.75,38.04,44.61,37.77,43.67,38.08z"/>
<path class="st1" d="M22.92,30.69c-0.63-6.95,9.53-7.6,10.08-0.67l0.55,10.8c0.63,6.89-9.52,7.5-10.08,0.63L22.92,30.69z"/>
<path class="st4" d="M24.4,30.54c-0.44-5,6.67-5.47,7.13-0.47l0.52,10.87c0.45,4.98-6.68,5.43-7.13,0.45L24.4,30.54z"/>
<path class="st1" d="M31.93,29.35c-0.02-6.98,10.17-6.81,10.1,0.15l0.03,13.82c0.02,6.91-10.15,6.71-10.1-0.18L31.93,29.35z"/>
<path class="st4" d="M33.42,29.33c0-5.02,7.14-4.92,7.14,0.1l0,13.89c0.01,4.99-7.14,4.87-7.14-0.13L33.42,29.33z"/>
<path class="st6" d="M39.72,42.26c0.11,0.66,0.21,2.01,0.14,2.49c-0.3,2.13-5.2,2.11-5.49,0c-0.07-0.53,0.01-1.96,0.16-2.63
	C34.97,40.1,39.37,40.19,39.72,42.26z"/>
<path class="st6" d="M31.13,39.96c0.13,0.66,0.28,2,0.23,2.49c-0.23,2.14-5.12,2.29-5.48,0.19c-0.09-0.53-0.06-1.96,0.07-2.63
	C26.31,37.97,30.71,37.9,31.13,39.96z"/>
<path class="st4" d="M42.34,29.67c-1.44-0.31-7.27,1.84-11.91,2.59c-2.56,0.41-3.96,5.07,1.38,6.84c4.6,1.52,9.18-0.15,9.18-0.15
	s0.88,2.77,2.45,4.64c1.02,1.21,9.81-2.89,9.81-4.56C53.25,35.42,43.95,30.01,42.34,29.67z"/>
<path class="st6" d="M35.45,33.85c-0.55,0.42-4.39,1.11-4.91,0.72c-1.32-0.96-1.05-1.91-0.44-2.04c0.92-0.21,3.77-0.54,5.26-0.82
	C35.99,31.59,35.81,33.58,35.45,33.85z"/>
<path class="st1" d="M42.5,28.93c-0.91-0.19-2.65,0.25-5.66,1.06c-2.08,0.56-4.43,1.19-6.52,1.53c-1.54,0.25-2.75,1.66-2.89,3.35
	c-0.07,0.82,0.04,3.58,4.15,4.95c3.75,1.24,7.44,0.49,8.96,0.07c0.38,0.98,1.14,2.49,2.91,3.71c-1.23-1.96-1.97-5.61-1.97-5.61
	l-0.73,0.26c-0.04,0.02-4.41,1.56-8.69,0.14c-2.08-0.69-3.25-1.96-3.13-3.41c0.08-1,0.78-1.85,1.63-1.99
	c2.17-0.35,4.56-0.99,6.67-1.56c2.04-0.55,4.36-1.17,4.96-1.04c1.48,0.32,10.3,4.91,10.3,9.74l1.52-1.1
	C54,34.85,44.22,29.3,42.5,28.93z"/>
</svg>
