<?xml version="1.0" encoding="utf-8"?>
<!-- Generator: Adobe Illustrator 24.1.2, SVG Export Plug-In . SVG Version: 6.00 Build 0)  -->
<svg version="1.1" id="Layer_1" xmlns="http://www.w3.org/2000/svg" xmlns:xlink="http://www.w3.org/1999/xlink" x="0px" y="0px"
	 width="64px" height="64px" viewBox="0 0 64 64" style="enable-background:new 0 0 64 64;" xml:space="preserve">
<style type="text/css">
	.st0{fill:url(#SVGID_1_);}
	.st1{fill:#1A1626;}
	.st2{fill:#96A3A8;}
	.st3{fill:#6E8189;}
	.st4{fill:#A4B2B8;}
</style>
<linearGradient id="SVGID_1_" gradientUnits="userSpaceOnUse" x1="32" y1="62" x2="32" y2="2">
	<stop  offset="0" style="stop-color:#FF9500"/>
	<stop  offset="0.1919" style="stop-color:#FFAD00"/>
	<stop  offset="0.5455" style="stop-color:#FFD500"/>
	<stop  offset="0.8272" style="stop-color:#FFED00"/>
	<stop  offset="1" style="stop-color:#FFF600"/>
</linearGradient>
<circle class="st0" cx="32" cy="32" r="30"/>
<ellipse class="st1" cx="22" cy="25" rx="4" ry="5"/>
<ellipse class="st1" cx="42" cy="25" rx="4" ry="5"/>
<path class="st2" d="M29.88,43h-1.6c-0.11,0-0.2,0.08-0.2,0.18v3.64c0,0.1,0.09,0.18,0.2,0.18h1.6c0.11,0,0.2-0.08,0.2-0.18v-3.64
	C30.08,43.08,29.99,43,29.88,43z"/>
<path class="st3" d="M19.88,41h-1.6c-0.11,0-0.2,0.08-0.2,0.18v3.64c0,0.1,0.09,0.18,0.2,0.18h1.6c0.11,0,0.2-0.08,0.2-0.18v-3.64
	C20.08,41.08,19.99,41,19.88,41z"/>
<path class="st3" d="M31.88,41h-1.6c-0.11,0-0.2,0.08-0.2,0.18v3.64c0,0.1,0.09,0.18,0.2,0.18h1.6c0.11,0,0.2-0.08,0.2-0.18v-3.64
	C32.08,41.08,31.99,41,31.88,41z"/>
<path class="st2" d="M21.88,43h-1.6c-0.11,0-0.2,0.08-0.2,0.18v3.64c0,0.1,0.09,0.18,0.2,0.18h1.6c0.11,0,0.2-0.08,0.2-0.18v-3.64
	C22.08,43.08,21.99,43,21.88,43z"/>
<path class="st3" d="M23.88,41h-1.6c-0.11,0-0.2,0.08-0.2,0.18v3.64c0,0.1,0.09,0.18,0.2,0.18h1.6c0.11,0,0.2-0.08,0.2-0.18v-3.64
	C24.08,41.08,23.99,41,23.88,41z"/>
<path class="st2" d="M25.88,43h-1.6c-0.11,0-0.2,0.08-0.2,0.18v3.64c0,0.1,0.09,0.18,0.2,0.18h1.6c0.11,0,0.2-0.08,0.2-0.18v-3.64
	C26.08,43.08,25.99,43,25.88,43z"/>
<path class="st3" d="M27.88,41h-1.6c-0.11,0-0.2,0.08-0.2,0.18v3.64c0,0.1,0.09,0.18,0.2,0.18h1.6c0.11,0,0.2-0.08,0.2-0.18v-3.64
	C28.08,41.08,27.99,41,27.88,41z"/>
<path class="st2" d="M41.88,43h-1.6c-0.11,0-0.2,0.08-0.2,0.18v3.64c0,0.1,0.09,0.18,0.2,0.18h1.6c0.11,0,0.2-0.08,0.2-0.18v-3.64
	C42.08,43.08,41.99,43,41.88,43z"/>
<path class="st3" d="M43.88,41h-1.6c-0.11,0-0.2,0.08-0.2,0.18v3.64c0,0.1,0.09,0.18,0.2,0.18h1.6c0.11,0,0.2-0.08,0.2-0.18v-3.64
	C44.08,41.08,43.99,41,43.88,41z"/>
<path class="st2" d="M33.88,43h-1.6c-0.11,0-0.2,0.08-0.2,0.18v3.64c0,0.1,0.09,0.18,0.2,0.18h1.6c0.11,0,0.2-0.08,0.2-0.18v-3.64
	C34.08,43.08,33.99,43,33.88,43z"/>
<path class="st3" d="M35.88,41h-1.6c-0.11,0-0.2,0.08-0.2,0.18v3.64c0,0.1,0.09,0.18,0.2,0.18h1.6c0.11,0,0.2-0.08,0.2-0.18v-3.64
	C36.08,41.08,35.99,41,35.88,41z"/>
<path class="st2" d="M37.88,43h-1.6c-0.11,0-0.2,0.08-0.2,0.18v3.64c0,0.1,0.09,0.18,0.2,0.18h1.6c0.11,0,0.2-0.08,0.2-0.18v-3.64
	C38.08,43.08,37.99,43,37.88,43z"/>
<path class="st3" d="M39.88,41h-1.6c-0.11,0-0.2,0.08-0.2,0.18v3.64c0,0.1,0.09,0.18,0.2,0.18h1.6c0.11,0,0.2-0.08,0.2-0.18v-3.64
	C40.08,41.08,39.99,41,39.88,41z"/>
<path class="st4" d="M17.88,41h-2.6c-0.11,0-0.2,0.08-0.2,0.18v5.64c0,0.1,0.09,0.18,0.2,0.18h2.6c0.11,0,0.2-0.08,0.2-0.18v-5.64
	C18.08,41.08,17.99,41,17.88,41z"/>
<path class="st4" d="M48.41,45.95c0.68,0,0.69-3.9,0-3.9c-0.44,0-1.3,0.05-1.4,0C46.55,41.79,46.18,41,45.44,41c-3.35,0-3.35,6,0,6
	c0.74,0,1.11-0.79,1.57-1.05C47.11,45.89,47.83,45.95,48.41,45.95z"/>
<path class="st3" d="M48.42,44.3v-0.6c0-0.11-0.08-0.2-0.18-0.2H44.6c-0.1,0-0.18,0.09-0.18,0.2v0.6c0,0.11,0.08,0.2,0.18,0.2h3.64
	C48.34,44.5,48.42,44.41,48.42,44.3z"/>
<path class="st2" d="M49.4,45.74c-1.51-2.35-4.54-1.81-5.16,0.91c-0.6,2.64-1.44,6.43-0.91,9.45c0.8,4.55,3.27,5.24,6.07,4.74
	c2.8-0.49,4.88-1.98,4.08-6.53C52.95,51.29,50.86,48.02,49.4,45.74z M48.95,47.42c0.54,3.09-3.16,3.74-3.7,0.65
	C44.7,44.98,48.4,44.33,48.95,47.42z M45,56.41c-0.83-4.69,6.21-5.93,7.03-1.24C52.86,59.86,45.82,61.1,45,56.41z"/>
<path class="st3" d="M46.65,42.91l-1.14,0.2c-0.21,0.04-0.35,0.22-0.32,0.41l0.55,3.12c0.03,0.19,0.23,0.31,0.44,0.27l1.14-0.2
	c0.21-0.04,0.35-0.22,0.32-0.41l-0.55-3.12C47.06,42.99,46.86,42.87,46.65,42.91z"/>
</svg>
