<?xml version="1.0" encoding="utf-8"?>
<!-- Generator: Adobe Illustrator 24.1.2, SVG Export Plug-In . SVG Version: 6.00 Build 0)  -->
<svg version="1.1" id="Layer_1" xmlns="http://www.w3.org/2000/svg" xmlns:xlink="http://www.w3.org/1999/xlink" x="0px" y="0px"
	 width="64px" height="64px" viewBox="0 0 64 64" style="enable-background:new 0 0 64 64;" xml:space="preserve">
<style type="text/css">
	.st0{fill:url(#SVGID_1_);}
	.st1{fill:#1A1626;}
	.st2{fill:#FFFFFF;}
	.st3{fill:#99A8AE;}
	.st4{fill:#D69600;}
</style>
<linearGradient id="SVGID_1_" gradientUnits="userSpaceOnUse" x1="32" y1="62" x2="32" y2="2">
	<stop  offset="0" style="stop-color:#FF9500"/>
	<stop  offset="0.1919" style="stop-color:#FFAD00"/>
	<stop  offset="0.5455" style="stop-color:#FFD500"/>
	<stop  offset="0.8272" style="stop-color:#FFED00"/>
	<stop  offset="1" style="stop-color:#FFF600"/>
</linearGradient>
<circle class="st0" cx="32" cy="32" r="30"/>
<path class="st1" d="M36.14,42.29c-2.38-5.87-9.77-8.37-16.45-6.1c-2.28,0.77-1.99,4.7,0.17,3.88c5.66-2.12,12.63-0.13,15.6,2.88
	C35.83,43.31,36.34,42.77,36.14,42.29z"/>
<path class="st2" d="M17.2,60.44C7.18,62.52,2.78,54.18,5.73,46.76c1.06-2.65-1.72-6.6,1.19-8.14c3-1.58,5.8,0.79,5.9,5.96
	c2.66-0.54,6.28-2.58,8.57-2.43c1.25,0.08,5.63,1.86,7.07,1.96c4.95,0.33,4.78,6.05-1.59,5.44c0.1,0.87-0.3,2.43-1.22,3.33
	c0.4,1.01,0.46,2.51-0.94,3.86C25.27,60.25,20.48,62.32,17.2,60.44z"/>
<path class="st3" d="M16.98,61.19C6.26,63.48,2.06,54.05,4.88,47.04c1.16-2.9-1.92-7.42,1.2-9.11c3.2-1.74,7.19,0.14,7.29,5.83
	c2.85-0.6,5.97-2.64,8.42-2.48c1.34,0.09,6.03,2.15,7.57,2.26c5.29,0.36,4.88,7.1-1.93,6.43c0.11,0.96-0.09,2.1-1.08,3.1
	c0.43,1.11,0.49,2.76-1,4.24C25.92,61.15,20.48,63.26,16.98,61.19z M18.96,58.52l-1.19,1.22c4.9,2.19,8.33-2.95,3.15-4.83
	c1.46,0.06,2.52,0.61,3.03,1.01c1.52-2.11,1.35-3.48-1.66-5.31c2.05,0.42,2.81,1.34,2.81,1.34c1.49-2.66,0.62-3.78-2.11-5.17
	c2.03,0.13,3.3,1.19,4.53,1.48c3.08,0.72,4.41-3.01,1.84-3.18c-3.16-0.21-6.19-2.14-8.05-1.99c-2.66,0.21-4.21,1.73-10.02,3.31
	c0.27-5.15-1.19-7.78-3.74-7c-2.21,0.67,0.53,3.74-0.84,7.79C3.65,56.25,10.73,62.29,18.96,58.52z"/>
<path class="st1" d="M22.79,16.45c2.13,0.57,3.28,3.2,2.57,5.87c-0.71,2.67-3.02,4.37-5.16,3.79c-2.14-0.57-3.28-3.2-2.57-5.86
	C18.35,17.58,20.66,15.88,22.79,16.45z"/>
<path class="st1" d="M41.67,19.64c2.13,0.57,3.28,3.2,2.57,5.87c-0.71,2.67-3.02,4.37-5.16,3.79c-2.14-0.57-3.28-3.2-2.57-5.86
	C37.23,20.77,39.53,19.07,41.67,19.64z"/>
<path class="st4" d="M42.75,12.92c-7.48-0.29-8.62,5.76-3.17,5.31C49.22,17.43,54.12,13.36,42.75,12.92z"/>
<path class="st4" d="M21.74,7.16C10.4,8,15.43,11.9,25.1,12.36C30.55,12.62,29.2,6.61,21.74,7.16z"/>
</svg>
