<?xml version="1.0" encoding="utf-8"?>
<!-- Generator: Adobe Illustrator 24.1.2, SVG Export Plug-In . SVG Version: 6.00 Build 0)  -->
<svg version="1.1" id="Layer_1" xmlns="http://www.w3.org/2000/svg" xmlns:xlink="http://www.w3.org/1999/xlink" x="0px" y="0px"
	 width="64px" height="64px" viewBox="0 0 64 64" style="enable-background:new 0 0 64 64;" xml:space="preserve">
<style type="text/css">
	.st0{fill:url(#SVGID_1_);}
	.st1{fill:#1A1626;}
	.st2{fill:#FD7383;}
	.st3{fill:url(#SVGID_2_);}
	.st4{fill:url(#SVGID_3_);}
	.st5{fill:url(#SVGID_4_);}
</style>
<linearGradient id="SVGID_1_" gradientUnits="userSpaceOnUse" x1="32" y1="62" x2="32" y2="2">
	<stop  offset="0" style="stop-color:#FF9500"/>
	<stop  offset="0.1919" style="stop-color:#FFAD00"/>
	<stop  offset="0.5455" style="stop-color:#FFD500"/>
	<stop  offset="0.8272" style="stop-color:#FFED00"/>
	<stop  offset="1" style="stop-color:#FFF600"/>
</linearGradient>
<circle class="st0" cx="32" cy="32" r="30"/>
<path class="st1" d="M47.24,36.33C43.6,35.65,38.47,35,32,35s-11.61,0.65-15.25,1.33c-1.84,0.34-2.84,1.87-2.75,3.41
	C14.45,47.49,20.4,54,32,54C43.6,54,49.55,47.49,50,39.73C50.08,38.19,49.08,36.67,47.24,36.33z"/>
<path class="st2" d="M23.47,50c0,0,3.79,2,8.53,2c4.74,0,8.53-2,8.53-2s-2.84-3-8.53-2C26.32,47,23.47,50,23.47,50z"/>
<linearGradient id="SVGID_2_" gradientUnits="userSpaceOnUse" x1="16.0116" y1="39.4976" x2="47.9883" y2="39.4976">
	<stop  offset="0" style="stop-color:#CFD7E6"/>
	<stop  offset="0.0368" style="stop-color:#DAE0EC"/>
	<stop  offset="0.1263" style="stop-color:#EEF1F6"/>
	<stop  offset="0.2147" style="stop-color:#FBFCFD"/>
	<stop  offset="0.3" style="stop-color:#FFFFFF"/>
	<stop  offset="0.7" style="stop-color:#FFFFFF"/>
	<stop  offset="0.7853" style="stop-color:#FBFCFD"/>
	<stop  offset="0.8737" style="stop-color:#EEF1F6"/>
	<stop  offset="0.9632" style="stop-color:#DAE0EC"/>
	<stop  offset="1" style="stop-color:#CFD7E6"/>
</linearGradient>
<path class="st3" d="M46.51,38.24C44,37.79,38.69,37,32,37c-6.69,0-12,0.79-14.51,1.24c-1.57,0.28-1.6,0.97-1.39,2.28
	c0.18,1.15,0.31,1.45,1.52,1.47c1.12,0.02,14.38,0,14.38,0s13.26,0.02,14.38,0c1.22-0.02,1.34-0.32,1.52-1.47
	C48.11,39.21,48.07,38.53,46.51,38.24z"/>
<linearGradient id="SVGID_3_" gradientUnits="userSpaceOnUse" x1="100.9535" y1="-34.87" x2="100.9535" y2="-59.9924" gradientTransform="matrix(0.9659 0.2588 -0.2588 0.9659 -63.1185 38.0379)">
	<stop  offset="0" style="stop-color:#B023AA"/>
	<stop  offset="1" style="stop-color:#FF3BF6"/>
</linearGradient>
<path class="st4" d="M59.69,18.36l-7.72-3.32l-1.64-8.25c-0.13-0.65-0.59-0.78-1.03-0.28l-5.55,6.32l-8.35-0.99
	c-0.66-0.08-0.92,0.33-0.58,0.9l4.3,7.23l-3.52,7.64c-0.28,0.6,0.02,0.98,0.67,0.83l8.2-1.85l6.18,5.71c0.49,0.45,0.94,0.28,1-0.38
	l0.77-8.37l7.33-4.11C60.32,19.1,60.3,18.62,59.69,18.36z"/>
<linearGradient id="SVGID_4_" gradientUnits="userSpaceOnUse" x1="-44.1837" y1="96.2161" x2="-44.1837" y2="71.0939" gradientTransform="matrix(0.9659 -0.2588 0.2588 0.9659 38.7585 -73.8866)">
	<stop  offset="0" style="stop-color:#B023AA"/>
	<stop  offset="1" style="stop-color:#FF3BF6"/>
</linearGradient>
<path class="st5" d="M29.01,11.85l-8.35,0.99l-5.55-6.32c-0.44-0.5-0.9-0.38-1.03,0.28l-1.64,8.25l-7.72,3.32
	c-0.61,0.26-0.64,0.74-0.06,1.07l7.33,4.11l0.77,8.37c0.06,0.66,0.51,0.83,1,0.38l6.18-5.7l8.2,1.85c0.65,0.15,0.95-0.23,0.67-0.83
	l-3.52-7.64l4.3-7.23C29.93,12.17,29.67,11.77,29.01,11.85z"/>
</svg>
