<?xml version="1.0" encoding="utf-8"?>
<!-- Generator: Adobe Illustrator 24.1.2, SVG Export Plug-In . SVG Version: 6.00 Build 0)  -->
<svg version="1.1" id="Layer_1" xmlns="http://www.w3.org/2000/svg" xmlns:xlink="http://www.w3.org/1999/xlink" x="0px" y="0px"
	 width="64px" height="64px" viewBox="0 0 64 64" style="enable-background:new 0 0 64 64;" xml:space="preserve">
<style type="text/css">
	.st0{fill:url(#SVGID_1_);}
	.st1{fill:url(#SVGID_2_);}
	.st2{fill:url(#SVGID_3_);}
	.st3{fill:url(#SVGID_4_);}
	.st4{fill:#1A1626;}
	.st5{fill:url(#SVGID_5_);}
	.st6{fill:url(#SVGID_6_);}
	.st7{fill:url(#SVGID_7_);}
	.st8{fill:url(#SVGID_8_);}
</style>
<linearGradient id="SVGID_1_" gradientUnits="userSpaceOnUse" x1="641.0724" y1="45.9292" x2="661.3947" y2="45.9292" gradientTransform="matrix(0.9874 0 0 0.9797 -589.0612 -28.7496)">
	<stop  offset="0" style="stop-color:#000000"/>
	<stop  offset="0.0436" style="stop-color:#0A0603"/>
	<stop  offset="0.2809" style="stop-color:#3F2513"/>
	<stop  offset="0.5031" style="stop-color:#683D20"/>
	<stop  offset="0.7039" style="stop-color:#864F29"/>
	<stop  offset="0.8762" style="stop-color:#98592E"/>
	<stop  offset="1" style="stop-color:#9E5D30"/>
</linearGradient>
<path class="st0" d="M55.95,8.94c3.41-2.94,9.48-0.93,7.75,6.11c-2.72,11-20.72,12.4-19.72,5.94C43.97,20.99,52.12,12.25,55.95,8.94
	z"/>
<linearGradient id="SVGID_2_" gradientUnits="userSpaceOnUse" x1="-30.6798" y1="45.9292" x2="-10.3575" y2="45.9292" gradientTransform="matrix(-0.9874 0 0 0.9797 -10.2269 -28.7496)">
	<stop  offset="0" style="stop-color:#000000"/>
	<stop  offset="0.0436" style="stop-color:#0A0603"/>
	<stop  offset="0.2809" style="stop-color:#3F2513"/>
	<stop  offset="0.5031" style="stop-color:#683D20"/>
	<stop  offset="0.7039" style="stop-color:#864F29"/>
	<stop  offset="0.8762" style="stop-color:#98592E"/>
	<stop  offset="1" style="stop-color:#9E5D30"/>
</linearGradient>
<path class="st1" d="M8.05,8.94C4.64,6-1.43,8.02,0.31,15.05c2.72,11,20.72,12.4,19.72,5.94C20.03,20.99,11.88,12.25,8.05,8.94z"/>
<linearGradient id="SVGID_3_" gradientUnits="userSpaceOnUse" x1="32" y1="64.0002" x2="32" y2="8.0002">
	<stop  offset="0" style="stop-color:#FF9500"/>
	<stop  offset="0.1919" style="stop-color:#FFAD00"/>
	<stop  offset="0.5455" style="stop-color:#FFD500"/>
	<stop  offset="0.8272" style="stop-color:#FFED00"/>
	<stop  offset="1" style="stop-color:#FFF600"/>
</linearGradient>
<circle class="st2" cx="32" cy="36" r="28"/>
<linearGradient id="SVGID_4_" gradientUnits="userSpaceOnUse" x1="32" y1="28.7531" x2="32" y2="8.0703">
	<stop  offset="0" style="stop-color:#FFCD1A;stop-opacity:0"/>
	<stop  offset="0.1831" style="stop-color:#EDAD12;stop-opacity:0.1831"/>
	<stop  offset="0.3915" style="stop-color:#DE900A;stop-opacity:0.3915"/>
	<stop  offset="0.5989" style="stop-color:#D27C04;stop-opacity:0.5989"/>
	<stop  offset="0.803" style="stop-color:#CB6F01;stop-opacity:0.803"/>
	<stop  offset="1" style="stop-color:#C96B00"/>
</linearGradient>
<path class="st3" d="M59.07,28.84C55.91,16.84,44.99,8,32,8C19.01,8,8.09,16.84,4.93,28.84H59.07z"/>
<path class="st4" d="M22.67,27.7c2.06,0,3.73,2.09,3.73,4.67c0,2.58-1.67,4.67-3.73,4.67c-2.06,0-3.73-2.09-3.73-4.67
	C18.93,29.79,20.6,27.7,22.67,27.7z"/>
<path class="st4" d="M41.33,27.7c2.06,0,3.73,2.09,3.73,4.67c0,2.58-1.67,4.67-3.73,4.67c-2.06,0-3.73-2.09-3.73-4.67
	C37.6,29.79,39.27,27.7,41.33,27.7z"/>
<path class="st4" d="M25.15,51.84c7.23,1.87,16.12-0.95,19.87-6.82c0.31-0.48-0.17-0.99-0.65-0.61c-3.92,3.1-12.24,5.4-18.34,3.62
	C23.7,47.34,22.68,51.2,25.15,51.84z"/>
<radialGradient id="SVGID_5_" cx="291.0022" cy="157.0283" r="11.0814" gradientTransform="matrix(0.6013 0 0 4.6017 -135.9928 -711.9711)" gradientUnits="userSpaceOnUse">
	<stop  offset="0" style="stop-color:#996540"/>
	<stop  offset="0.5894" style="stop-color:#AD7650"/>
	<stop  offset="1" style="stop-color:#B47D56"/>
</radialGradient>
<path class="st5" d="M42.95,0.69C40.1-1.94,36.66,3.8,32,3.74c-0.26,5.84-0.65,11.68-1.17,17.5c-0.31-0.38,6.32-0.13,16.33-10.11
	C44.31,5.42,44.87,2.46,42.95,0.69z"/>
<radialGradient id="SVGID_6_" cx="-1069.1527" cy="157.0283" r="11.0807" gradientTransform="matrix(-0.6013 0 0 4.6017 -617.868 -711.9711)" gradientUnits="userSpaceOnUse">
	<stop  offset="0" style="stop-color:#996540"/>
	<stop  offset="0.5894" style="stop-color:#AD7650"/>
	<stop  offset="1" style="stop-color:#B47D56"/>
</radialGradient>
<path class="st6" d="M21.04,0.69C23.9-1.94,27.34,3.8,32,3.74c0.26,5.84,0.65,11.68,1.17,17.5c0.31-0.38-6.32-0.12-16.33-10.11
	C19.69,5.42,19.13,2.46,21.04,0.69z"/>
<radialGradient id="SVGID_7_" cx="50.198" cy="50.2281" r="12.4142" gradientTransform="matrix(0.9449 0 0 1.2144 -15.4328 -46.8579)" gradientUnits="userSpaceOnUse">
	<stop  offset="0" style="stop-color:#4D4B54"/>
	<stop  offset="0.2891" style="stop-color:#47454E"/>
	<stop  offset="0.6902" style="stop-color:#35333D"/>
	<stop  offset="1" style="stop-color:#23202B"/>
</radialGradient>
<path class="st7" d="M47.16,11.14c0,0-6.92,1.64-15.16,1.64c-8.24,0-15.16-1.64-15.16-1.64l-1.27,2.06
	c-0.19,5.26,33.04,5.26,32.85,0L47.16,11.14z"/>
<radialGradient id="SVGID_8_" cx="32.9648" cy="31.6525" r="17.5022" gradientTransform="matrix(0.9978 0 0 1.0784 -0.8923 -18.6662)" gradientUnits="userSpaceOnUse">
	<stop  offset="0.2606" style="stop-color:#B47D56"/>
	<stop  offset="0.8105" style="stop-color:#A8683B"/>
	<stop  offset="1" style="stop-color:#A36031"/>
</radialGradient>
<path class="st8" d="M32,14.97c-14.97,0-19.94-2.69-23.95-6.02C12.22,13.36,17.78,22,32,21.99C46.22,22,51.78,13.36,55.95,8.94
	C51.94,12.28,46.97,14.97,32,14.97z"/>
</svg>
