<?xml version="1.0" encoding="utf-8"?>
<!-- Generator: Adobe Illustrator 24.1.2, SVG Export Plug-In . SVG Version: 6.00 Build 0)  -->
<svg version="1.1" id="Layer_1" xmlns="http://www.w3.org/2000/svg" xmlns:xlink="http://www.w3.org/1999/xlink" x="0px" y="0px"
	 width="64px" height="64px" viewBox="0 0 64 64" style="enable-background:new 0 0 64 64;" xml:space="preserve">
<style type="text/css">
	.st0{fill:url(#SVGID_1_);}
	.st1{fill:#1A1626;}
	.st2{fill:#99A8AE;}
	.st3{fill:#FFFFFF;}
	.st4{fill:#D69600;}
</style>
<linearGradient id="SVGID_1_" gradientUnits="userSpaceOnUse" x1="32" y1="60.0011" x2="32" y2="1.9992">
	<stop  offset="0" style="stop-color:#FF9500"/>
	<stop  offset="0.1919" style="stop-color:#FFAD00"/>
	<stop  offset="0.5455" style="stop-color:#FFD500"/>
	<stop  offset="0.8272" style="stop-color:#FFED00"/>
	<stop  offset="1" style="stop-color:#FFF600"/>
</linearGradient>
<path class="st0" d="M32,2c16.02,0,29,12.98,29,29S48.02,60,32,60S3,47.02,3,31S15.98,2,32,2z"/>
<path class="st1" d="M36.5,39.11c0,3.53-9,3.53-9,0c0-1.85,2.02-3.35,4.5-3.35C34.49,35.75,36.5,37.25,36.5,39.11z"/>
<path class="st1" d="M22.33,18.2c2.14,0,3.87,2.16,3.87,4.83c0,2.67-1.73,4.83-3.87,4.83c-2.14,0-3.87-2.16-3.87-4.83
	C18.47,20.36,20.2,18.2,22.33,18.2z"/>
<path class="st1" d="M41.67,18.2c2.14,0,3.87,2.16,3.87,4.83c0,2.67-1.73,4.83-3.87,4.83c-2.14,0-3.87-2.16-3.87-4.83
	C37.8,20.36,39.53,18.2,41.67,18.2z"/>
<path class="st2" d="M33.47,34.46c0,4.11-2.64,11.56-2.64,11.56l8.71-0.46c0,0,1.5-5.85,1.76-10.98
	C41.62,28.5,33.47,28.26,33.47,34.46z"/>
<path class="st3" d="M38.11,43.78l-4.59,0.24c0,0,1.81-5.07,1.81-9.56c0-3.64,4.23-3.62,4.12,0.07
	C39.3,39.5,38.11,43.78,38.11,43.78z"/>
<path class="st2" d="M38.65,41.47c-4.19,0-9.66,2.35-11.29,8.95c-3.62,13.87,14.26,18,17.81,8.22c1.3-3.68,2.96-5.42,4.16-6.68
	c4.36-3.97-0.29-7.83-2.97-6.9C45.05,42.89,42.14,41.47,38.65,41.47L38.65,41.47z"/>
<g>
	<path class="st3" d="M49.19,48.8c-0.01,1.51-3.51,2.71-5.82,9.23c-2.63,7.44-17.15,4.59-14.25-7.15c2.47-10,15-8.71,15.99-3.84
		c0.29,1.43-1.4,2.15-1.41,2.13c-2.03-3.23-5.26-3.49-6.7-3.3c3.79,0.05,9.34,5.61,4.65,6.68c-2.73-3.14-6.11-3.11-7.83-2.89
		c4.06,0.2,6.24,1.8,7.11,3.73c0.83,1.86-0.63,4.76-2.5,2.77c-1.25-1.33-2.71-2.06-5.02-2c2.37,0.63,3.67,1.41,4.77,2.94
		c1.95,2.72,4.99-0.92,3.9-3.56c2-0.62,2.51-2.09,2.03-3.41c1.67-0.84,1.89-1.97,1.81-2.71C47.29,45.93,49.2,47.4,49.19,48.8z"/>
</g>
<path class="st4" d="M18.22,9.03c-10.25,4.91-4.15,6.71,5.02,3.61C28.41,10.9,24.97,5.79,18.22,9.03z"/>
<path class="st4" d="M45.78,9.05c-6.75-3.24-10.2,1.87-5.02,3.61C49.93,15.75,56.04,13.96,45.78,9.05z"/>
</svg>
