<?xml version="1.0" encoding="utf-8"?>
<!-- Generator: Adobe Illustrator 15.0.0, SVG Export Plug-In . SVG Version: 6.00 Build 0)  -->
<!DOCTYPE svg PUBLIC "-//W3C//DTD SVG 1.1//EN" "http://www.w3.org/Graphics/SVG/1.1/DTD/svg11.dtd" [
	<!ENTITY ns_flows "http://ns.adobe.com/Flows/1.0/">
	<!ENTITY ns_extend "http://ns.adobe.com/Extensibility/1.0/">
	<!ENTITY ns_ai "http://ns.adobe.com/AdobeIllustrator/10.0/">
	<!ENTITY ns_graphs "http://ns.adobe.com/Graphs/1.0/">
]>
<svg version="1.1" id="Layer_1" xmlns:x="&ns_extend;" xmlns:i="&ns_ai;" xmlns:graph="&ns_graphs;"
	 xmlns="http://www.w3.org/2000/svg" xmlns:xlink="http://www.w3.org/1999/xlink" xmlns:a="http://ns.adobe.com/AdobeSVGViewerExtensions/3.0/"
	 x="0px" y="0px" width="64px" height="64px" viewBox="0 0 64 64" enable-background="new 0 0 64 64" xml:space="preserve">
<path fill="#6B4435" d="M31.021,34.424c11.794-2.508,12.537-13.366,12.537-13.366l-30.842-5.54c0,0-2.948,10.462,7.288,16.927
	c0,0,2.108,0.959,5.412,1.553C28.721,34.592,31.021,34.424,31.021,34.424z"/>
<linearGradient id="SVGID_1_" gradientUnits="userSpaceOnUse" x1="87.6035" y1="-37.9023" x2="87.6035" y2="-71.9242" gradientTransform="matrix(0.9848 0.1736 -0.1736 0.9848 -56.4368 58.068)">
	<stop  offset="0.05" style="stop-color:#6B4435"/>
	<stop  offset="0.088" style="stop-color:#6E4637"/>
	<stop  offset="0.467" style="stop-color:#865947"/>
	<stop  offset="0.7" style="stop-color:#8F604D"/>
	<a:midPointStop  offset="0.05" style="stop-color:#6B4435"/>
	<a:midPointStop  offset="0.4" style="stop-color:#6B4435"/>
	<a:midPointStop  offset="0.7" style="stop-color:#8F604D"/>
</linearGradient>
<path fill="url(#SVGID_1_)" d="M39.076,21.429c0.289,5.033-1.132,9.708-8.055,12.995c6.804,0.065,12.311-5.5,13.156-10.376
	L39.076,21.429z"/>
<linearGradient id="SVGID_2_" gradientUnits="userSpaceOnUse" x1="1715.8809" y1="-38.7705" x2="1715.8809" y2="-72.8836" gradientTransform="matrix(-0.9848 -0.1736 -0.1736 0.9848 1697.4486 368.0895)">
	<stop  offset="0.05" style="stop-color:#6B4435"/>
	<stop  offset="0.088" style="stop-color:#6E4637"/>
	<stop  offset="0.467" style="stop-color:#865947"/>
	<stop  offset="0.7" style="stop-color:#8F604D"/>
	<a:midPointStop  offset="0.05" style="stop-color:#6B4435"/>
	<a:midPointStop  offset="0.4" style="stop-color:#6B4435"/>
	<a:midPointStop  offset="0.7" style="stop-color:#8F604D"/>
</linearGradient>
<path fill="url(#SVGID_2_)" d="M16.802,17.428c-1.963,4.629-2.198,9.519,3.206,15.019c-6.417-2.311-9.724-9.458-8.878-14.335
	L16.802,17.428z"/>
<path fill="#732EB0" d="M30.219,61.502c15.953-2.721,20.795-5.294,21.685-8.162C52.596,51.123,47.046,39.977,30.219,61.502z"/>
<path fill="#A3765A" d="M21.098,27.743c0.197,1-0.155,2.594-0.155,2.594c-2.926,1.075,6.456,19.296,20.201,21.519
	c11.283-6.654-2.434-17.204-3.476-18.121c-1.733-1.521-3.831-1.376-7.156-2.075v-1.323L21.098,27.743z"/>
<linearGradient id="SVGID_3_" gradientUnits="userSpaceOnUse" x1="41.5752" y1="44.7998" x2="38.144" y2="38.7954" gradientTransform="matrix(1 0 0 1 -1.4385 0)">
	<stop  offset="0" style="stop-color:#8C5F44"/>
	<stop  offset="0.0977" style="stop-color:#906348"/>
	<stop  offset="0.5855" style="stop-color:#9E7155"/>
	<stop  offset="1" style="stop-color:#A3765A"/>
	<a:midPointStop  offset="0" style="stop-color:#8C5F44"/>
	<a:midPointStop  offset="0.3273" style="stop-color:#8C5F44"/>
	<a:midPointStop  offset="1" style="stop-color:#A3765A"/>
</linearGradient>
<path fill="url(#SVGID_3_)" d="M30.834,39.221c4.378,2.285,6.06,5.408,5.76,7.951c3.579,0.503,6.672-0.031,7.837-5.366
	c-0.727-2.37-3.918-4.024-6.076-5.283C34.756,34.868,30.225,34.844,30.834,39.221z"/>
<linearGradient id="SVGID_4_" gradientUnits="userSpaceOnUse" x1="32.9727" y1="53.9688" x2="31.5062" y2="38.4153" gradientTransform="matrix(1 0 0 1 -1.4385 0)">
	<stop  offset="0" style="stop-color:#5D1E96"/>
	<stop  offset="0.1931" style="stop-color:#6C28AA"/>
	<stop  offset="0.4943" style="stop-color:#7F34C2"/>
	<stop  offset="0.7714" style="stop-color:#8A3BD1"/>
	<stop  offset="1" style="stop-color:#8E3ED6"/>
	<a:midPointStop  offset="0" style="stop-color:#5D1E96"/>
	<a:midPointStop  offset="0.3333" style="stop-color:#5D1E96"/>
	<a:midPointStop  offset="1" style="stop-color:#8E3ED6"/>
</linearGradient>
<path fill="url(#SVGID_4_)" d="M20.943,30.337c-12.328,3.489-5.418,14.597,2.307,29.731c11.568-1.318,20.89-3.725,22.863-8.242
	c3-6.857-4.454-14.537-5.334-15.625c-3.943-4.887-8.538-4.524-10.266-4.542c3.519,1.092,6.477,4.148,8.249,5.106
	c10.167,5.503,5.104,8.174-2.654,12.163C25.83,45.616,21.698,35.147,20.943,30.337z"/>
<linearGradient id="SVGID_5_" gradientUnits="userSpaceOnUse" x1="41.6104" y1="46.5605" x2="53.5273" y2="46.5605" gradientTransform="matrix(1 0 0 1 -1.4385 0)">
	<stop  offset="0" style="stop-color:#E635DE"/>
	<stop  offset="0.1777" style="stop-color:#DA30D3"/>
	<stop  offset="0.4992" style="stop-color:#BA24B4"/>
	<stop  offset="0.925" style="stop-color:#871083"/>
	<stop  offset="1" style="stop-color:#7D0C7A"/>
	<a:midPointStop  offset="0" style="stop-color:#E635DE"/>
	<a:midPointStop  offset="0.5758" style="stop-color:#E635DE"/>
	<a:midPointStop  offset="1" style="stop-color:#7D0C7A"/>
</linearGradient>
<path fill="url(#SVGID_5_)" d="M52.087,48.304c0.163-9.658-12.262-8.094-11.907-0.788C44.495,56.168,52.087,48.304,52.087,48.304z"
	/>
<linearGradient id="SVGID_6_" gradientUnits="userSpaceOnUse" x1="37.4395" y1="56.2061" x2="35.87" y2="47.5907" gradientTransform="matrix(1 0 0 1 -1.4385 0)">
	<stop  offset="0" style="stop-color:#018BC9"/>
	<stop  offset="0.3755" style="stop-color:#0597CC"/>
	<stop  offset="1" style="stop-color:#0FB4D4"/>
	<a:midPointStop  offset="0" style="stop-color:#018BC9"/>
	<a:midPointStop  offset="0.5758" style="stop-color:#018BC9"/>
	<a:midPointStop  offset="1" style="stop-color:#0FB4D4"/>
</linearGradient>
<path fill="url(#SVGID_6_)" d="M48.682,51.779c0.171-9.661-24.285-4.136-26.186,4.906C26.81,65.336,48.682,51.779,48.682,51.779z"/>
<path fill="#A3765A" d="M52.719,46.246c-0.05-1.168-0.987-2.117-1.536-1.959c-0.755,2.515-4.459,5.625-5.537,4.742
	c-1.258-1.023-0.177-4.404-1.4-3.393c-1.215,1-0.161,6.601-1.129,6.911c-1.189,1.11,2.177,3.796,2.82,3.71
	C52.458,51.777,53.657,49.693,52.719,46.246z"/>
<path fill="#8E3ED6" d="M43.006,52.269c-8.083,2.577-10.964,2.274-18.607,4.75c-5.666-21.055-6.606-25.386-7.772-24.606
	c-10.159,6.787,1.891,29.58,4.314,30.941c3.136,1.768,13.749,0.059,25.188-6.951C46.523,54.824,43.974,51.96,43.006,52.269z"/>
<path fill="#B88A6F" d="M30.951,2.022c-7.992-1.436-12.989,4.502-13.983,13.115c-0.197,1.729-0.156,4.286,0.053,6.506
	c0.438,4.619,7.144,10.2,9.836,10.684c2.692,0.486,7.356-2.909,9.996-6.692c1.311-1.875,2.444-4.723,2.84-6.417
	C41.646,10.778,38.947,3.458,30.951,2.022z"/>
<path fill="#78513A" d="M38.875,16.333c-1.555-1.367-4.646-2.054-6.002-1.558c-0.288,0.098-0.35,0.873-0.106,0.816
	c1.887-0.429,4.571,0.015,6.073,1.173C39.039,16.918,39.113,16.533,38.875,16.333z"/>
<path fill="#78513A" d="M21.889,13.283c1.919-0.744,5.055-0.313,6.164,0.625c0.237,0.194,0.035,0.941-0.175,0.806
	c-1.63-1.061-4.3-1.579-6.101-1.013C21.536,13.774,21.599,13.387,21.889,13.283z"/>
<path fill="#8C5F44" d="M30.471,23.566c-0.168-0.168-0.652-0.04-1.813-0.248c-1.158-0.208-1.568-0.498-1.782-0.396
	c-0.258,0.123-0.021,0.925,1.642,1.223C30.178,24.443,30.67,23.772,30.471,23.566z"/>
<path fill="#45332C" d="M27.585,17.306c-1.629,0.688-3.9,0.279-5.2-0.936c-0.197-0.186-0.359-0.052-0.31,0.083
	c0.996,2.71,3.925,3.237,5.772,1.035C27.942,17.38,27.833,17.199,27.585,17.306z"/>
<path fill="#45332C" d="M37.373,19.062c-1.629,0.688-3.901,0.279-5.203-0.934c-0.198-0.186-0.356-0.052-0.31,0.083
	c0.997,2.71,3.926,3.235,5.774,1.035C37.728,19.139,37.62,18.956,37.373,19.062z"/>
<path fill="#A35A3B" d="M28.115,25.862c-1.728-1.175-1.883-0.373-4.81-0.696c0.87,1.45,1.389,3.208,4.285,3.727
	c3.322,0.598,4.199-1.135,5.278-2.01C30.007,26.166,30.134,25.358,28.115,25.862z"/>
<path fill="#FFFFFF" d="M24.122,25.635c1.54,2.342,5.617,3.044,7.822,1.406C28.982,26.837,26.972,26.477,24.122,25.635z"/>
<linearGradient id="SVGID_7_" gradientUnits="userSpaceOnUse" x1="76.3936" y1="-38.0029" x2="76.3936" y2="-71.9904" gradientTransform="matrix(0.9848 0.1736 -0.1736 0.9848 -56.4368 58.068)">
	<stop  offset="0.05" style="stop-color:#6B4435"/>
	<stop  offset="0.088" style="stop-color:#6E4637"/>
	<stop  offset="0.467" style="stop-color:#865947"/>
	<stop  offset="0.7" style="stop-color:#8F604D"/>
	<a:midPointStop  offset="0.05" style="stop-color:#6B4435"/>
	<a:midPointStop  offset="0.4" style="stop-color:#6B4435"/>
	<a:midPointStop  offset="0.7" style="stop-color:#8F604D"/>
</linearGradient>
<path fill="url(#SVGID_7_)" d="M39.743,4.828c1.142-1.165-6.105-5.354-13.731-4.773C18.427,0.447,12.389,10.834,11.13,18.112
	c0.563,0.644,4.782,0.046,5.672-0.684c0.523-1.221,1.225-2.446,1.905-3.723c6.033-2.246,12.362-1.894,17.332-4.985
	c-0.843,1.583,1.706,4.229,2.498,8.546c0.254,1.4,0.459,2.793,0.539,4.163c1.018,1.356,3.351,2.331,5.101,2.619
	C45.243,17.893,42.813,4.493,39.743,4.828z"/>
<path fill="#6B4435" d="M12.633,17.241c6.229-5.935,22.485-2.537,27.11-12.413C32.748,12.558,15.152,10.914,12.633,17.241z"/>
</svg>
