<?xml version="1.0" encoding="utf-8"?>
<!-- Generator: Adobe Illustrator 15.0.0, SVG Export Plug-In . SVG Version: 6.00 Build 0)  -->
<!DOCTYPE svg PUBLIC "-//W3C//DTD SVG 1.1//EN" "http://www.w3.org/Graphics/SVG/1.1/DTD/svg11.dtd" [
	<!ENTITY ns_flows "http://ns.adobe.com/Flows/1.0/">
	<!ENTITY ns_extend "http://ns.adobe.com/Extensibility/1.0/">
	<!ENTITY ns_ai "http://ns.adobe.com/AdobeIllustrator/10.0/">
	<!ENTITY ns_graphs "http://ns.adobe.com/Graphs/1.0/">
]>
<svg version="1.1" id="Layer_1" xmlns:x="&ns_extend;" xmlns:i="&ns_ai;" xmlns:graph="&ns_graphs;"
	 xmlns="http://www.w3.org/2000/svg" xmlns:xlink="http://www.w3.org/1999/xlink" xmlns:a="http://ns.adobe.com/AdobeSVGViewerExtensions/3.0/"
	 x="0px" y="0px" width="64px" height="64px" viewBox="0 0 64 64" enable-background="new 0 0 64 64" xml:space="preserve">
<path fill="#F5BB51" d="M41.661,23.277c1.289-0.543,2.479,1.127,2.725,1.452c0.818,1.079,4.674-2.657,3.475-3.762
	c-1.039-0.96-0.46-2.685-0.46-2.685C46.611,17.948,43.667,13.886,41.661,23.277z"/>
<path fill="#7A6056" d="M37.727,16.535c0.134-2.68,3.04-3.727,1.746-6.102C36.379,11.556,36.393,14.152,37.727,16.535z"/>
<path fill="#FFC940" d="M41.426,9.192c-3.402,0.966-4.384,3.593-3.48,6.446c0.205,0.645-0.087,1.822-0.84,2.648
	c-0.275,0.299-0.264,0.65-0.087,0.867c0.348,0.426,0.991,0.354,1.279,0.492c0.647,0.313,0.095,0.807,0.599,1.205
	c0.23,0.181,0.788-0.162,0.296,1.001c0.749,0.425-0.262,1.779,1.54,1.759c0.949-0.014,4.117-2.416,4.606-3.523
	c0.569-1.289,0.559-2.359,0.559-2.359c2.572-1.078,3.238-3.514,2.378-5.88C47.073,8.54,43.633,8.572,41.426,9.192z"/>
<path fill="#F0A429" d="M38.896,20.851c0.352,0.162,0.244,0.492,0.244,0.492c-0.155,0.019-0.134,0.538,0.101,0.511
	c0.81-0.095,1.474-0.878,1.669-1.329C39.629,20.613,38.166,20.203,38.896,20.851z"/>
<path fill="#FFFFFF" d="M38.896,20.851c0,0,0.177,0.429,0.244,0.492c0.256-0.029,1.064-0.312,1.533-0.705L38.896,20.851z"/>
<path fill="#F0A429" d="M37.029,19.158c0.313,0.611,1.865,0.568,2.268-0.268C38.555,19.572,36.844,18.802,37.029,19.158z"/>
<path id="Path_10_" fill="#966F42" d="M41.027,14.667c-0.789-0.342-2.205-0.194-2.694,0.166c-0.105,0.07,0.017,0.463,0.105,0.416
	c0.695-0.404,1.878-0.551,2.606-0.281C41.14,15.003,41.146,14.713,41.027,14.667z"/>
<linearGradient id="SVGID_1_" gradientUnits="userSpaceOnUse" x1="498.7744" y1="-30.5532" x2="490.235" y2="-39.7541" gradientTransform="matrix(0.9931 -0.117 0.117 0.9931 -442.3412 106.5197)">
	<stop  offset="0" style="stop-color:#473834"/>
	<stop  offset="0.1952" style="stop-color:#5B4842"/>
	<stop  offset="0.4314" style="stop-color:#6D554D"/>
	<stop  offset="0.6881" style="stop-color:#775D54"/>
	<stop  offset="1" style="stop-color:#7A6056"/>
	<a:midPointStop  offset="0" style="stop-color:#473834"/>
	<a:midPointStop  offset="0.2545" style="stop-color:#473834"/>
	<a:midPointStop  offset="1" style="stop-color:#7A6056"/>
</linearGradient>
<path fill="url(#SVGID_1_)" d="M42.43,11.596c3.121,2.396,3.832,5.65,4.5,8.189C50.602,17.916,50.359,9.726,42.43,11.596z"/>
<linearGradient id="SVGID_2_" gradientUnits="userSpaceOnUse" x1="499.4951" y1="-30.4487" x2="489.9995" y2="-40.6799" gradientTransform="matrix(0.9931 -0.117 0.117 0.9931 -442.3412 106.5197)">
	<stop  offset="0" style="stop-color:#473834"/>
	<stop  offset="0.1952" style="stop-color:#5B4842"/>
	<stop  offset="0.4314" style="stop-color:#6D554D"/>
	<stop  offset="0.6881" style="stop-color:#775D54"/>
	<stop  offset="1" style="stop-color:#7A6056"/>
	<a:midPointStop  offset="0" style="stop-color:#473834"/>
	<a:midPointStop  offset="0.2545" style="stop-color:#473834"/>
	<a:midPointStop  offset="1" style="stop-color:#7A6056"/>
</linearGradient>
<path fill="url(#SVGID_2_)" d="M48.414,20.003c1.749-1.938,1.995-6.584,0.106-9.367c-1.393-2.063-3.271-2.963-6.507-2.574
	c-2.623,0.316-4.625,2.07-4.863,3.85c-0.331,2.482,3.469,1.939,4.944,3.768c0,0,0.406-1.376-0.758-3.086
	C46.143,18.265,47.471,12.282,48.414,20.003z"/>
<path fill="#FFC940" d="M45.529,14.497c-1.263,0.421-1.322,3.391-0.277,3.912c0.146,0.073,0.864,0.069,1.155-0.69
	c0.161-0.424,0.856-0.914,0.868-1.703C47.291,15.005,46.786,14.082,45.529,14.497z"/>
<path id="Path_9_" fill="#F0A429" d="M45.66,15.029c-0.316,0.151-0.582,0.57-0.606,1.16c1.13-0.455,1.229,0.863,0.213,1.141
	c0.048,0.122,0.104,0.248,0.171,0.377c0.35-0.576,0.909-0.518,1.19-1.318C46.882,15.667,46.444,14.658,45.66,15.029z"/>
<path fill="#FFFFFF" d="M40.896,16.208c0.038,0.186-0.473,0.926-1.219,1.077c-0.423,0.091-0.617-0.226-0.755-0.572
	C38.659,15.304,40.395,15.611,40.896,16.208z"/>
<linearGradient id="Path_1_" gradientUnits="userSpaceOnUse" x1="489.0537" y1="-32.2759" x2="489.0537" y2="-33.7842" gradientTransform="matrix(0.9931 -0.117 0.117 0.9931 -442.3412 106.5197)">
	<stop  offset="0" style="stop-color:#A6694A"/>
	<stop  offset="1" style="stop-color:#4F2A1E"/>
	<a:midPointStop  offset="0" style="stop-color:#A6694A"/>
	<a:midPointStop  offset="0.5" style="stop-color:#A6694A"/>
	<a:midPointStop  offset="1" style="stop-color:#4F2A1E"/>
</linearGradient>
<path id="Path_8_" fill="url(#Path_1_)" d="M38.871,16.539c0.121,1.033,1.321,0.893,1.201-0.143
	C39.959,15.433,38.756,15.576,38.871,16.539z"/>
<path id="Path_7_" fill="#1A1626" d="M38.99,16.478c0.061,0.516,0.662,0.445,0.6-0.072C39.532,15.925,38.934,15.994,38.99,16.478z"
	/>
<path id="Path_6_" fill="#AB968C" d="M39.336,16.221c0.024,0.217,0.374,0.177,0.348-0.04C39.661,15.978,39.313,16.021,39.336,16.221
	z"/>
<path fill="#F0A429" d="M40.896,16.208c-0.4-0.607-2.064-0.89-2.003-0.012C39.048,15.583,40.279,15.763,40.896,16.208z"/>
<path fill="#E81C27" d="M45.609,13.622c-0.571-0.438-2.377-0.103-2.799,0.511c-0.777,1.146-0.342,4.844,0.796,5.523
	c0.61,0.366,2.294-0.088,2.594-0.777C46.952,17.164,46.667,14.429,45.609,13.622z M43.052,14.974
	c-0.333-0.521,0.656-1.247,0.99-0.73C44.371,14.763,43.383,15.492,43.052,14.974z M44.471,19.191
	c-0.43,0.574-1.492-0.314-1.063-0.896C43.836,17.718,44.902,18.613,44.471,19.191z M45.701,14.585
	c-0.26,0.605-1.389,0.075-1.134-0.531C44.829,13.449,45.959,13.974,45.701,14.585z"/>
<path fill="#F2F5F7" d="M40.033,23.937c-0.285,0.195-0.646-0.308-0.554-0.516c0.407-0.932,3.015-4.074,3.884-4.744
	c0.365-0.277,0.684,0.266,0.556,0.52C43.414,20.207,40.843,23.38,40.033,23.937z"/>
<path fill="#E3E6E8" d="M39.779,8.984c-0.194-0.362,0.315-0.674,0.525-0.523c0.928,0.646,4.061,4.246,4.722,5.371
	c0.21,0.348-0.229,0.747-0.523,0.526C43.491,13.58,40.328,10.016,39.779,8.984z"/>
<path fill="#F2F5F7" d="M39.147,9.223c-0.136-0.357,0.395-0.616,0.577-0.46c0.799,0.679,3.313,4.307,3.792,5.414
	c0.204,0.467-0.358,0.668-0.573,0.463C42.079,13.833,39.534,10.238,39.147,9.223z"/>
<path fill="#F5BB51" d="M24.304,21.042c-0.852-0.917-2.945,0.678-3.269,0.93c-1.071,0.83-3.819-3.767-2.373-4.524
	c1.255-0.663,1.146-2.476,1.146-2.476C20.658,14.85,24.821,11.457,24.304,21.042z"/>
<path fill="#7A6056" d="M30.042,15.906c0.515-2.633-2.055-4.348-0.228-6.342C32.547,11.397,31.91,13.915,30.042,15.906z"/>
<path fill="#FFC940" d="M28.216,7.891c3.07,1.753,3.392,4.54,1.829,7.092c-0.354,0.577-0.354,1.792,0.178,2.774
	c0.195,0.355,0.1,0.694-0.124,0.863c-0.439,0.328-1.047,0.103-1.36,0.169c-0.703,0.148-0.286,0.761-0.87,1.026
	c-0.268,0.12-0.727-0.348-0.528,0.9c-0.829,0.232-0.174,1.79-1.918,1.336c-0.918-0.24-3.415-3.334-3.624-4.528
	c-0.242-1.388,0.025-2.423,0.025-2.423c-2.237-1.666-2.299-4.189-0.895-6.278C22.891,5.9,26.223,6.757,28.216,7.891z"/>
<path fill="#F0A429" d="M27.869,19.816c-0.381,0.073-0.355,0.418-0.355,0.418c0.146,0.058,0,0.557-0.221,0.474
	c-0.763-0.289-1.22-1.208-1.301-1.693C27.214,19.408,28.733,19.362,27.869,19.816z"/>
<path fill="#FFFFFF" d="M27.869,19.816c0,0-0.275,0.375-0.355,0.418c-0.241-0.09-0.959-0.558-1.318-1.053L27.869,19.816z"/>
<path fill="#F0A429" d="M30.088,18.621c-0.451,0.517-1.948,0.103-2.137-0.805C28.507,18.656,30.353,18.32,30.088,18.621z"/>
<path id="Path_20_" fill="#966F42" d="M27.287,13.3c0.849-0.142,2.188,0.342,2.575,0.809c0.086,0.095-0.127,0.446-0.202,0.378
	c-0.578-0.558-1.69-0.985-2.462-0.898C27.097,13.601,27.161,13.318,27.287,13.3z"/>
<linearGradient id="SVGID_3_" gradientUnits="userSpaceOnUse" x1="2395.4277" y1="431.7871" x2="2386.6895" y2="422.3719" gradientTransform="matrix(-0.9358 -0.3524 -0.3524 0.9358 2412.2405 454.8293)">
	<stop  offset="0" style="stop-color:#473834"/>
	<stop  offset="0.1952" style="stop-color:#5B4842"/>
	<stop  offset="0.4314" style="stop-color:#6D554D"/>
	<stop  offset="0.6881" style="stop-color:#775D54"/>
	<stop  offset="1" style="stop-color:#7A6056"/>
	<a:midPointStop  offset="0" style="stop-color:#473834"/>
	<a:midPointStop  offset="0.2545" style="stop-color:#473834"/>
	<a:midPointStop  offset="1" style="stop-color:#7A6056"/>
</linearGradient>
<path fill="url(#SVGID_3_)" d="M26.664,9.984c-3.605,1.573-5.574,4.831-6.222,7.59C17.328,14.874,19.417,6.259,26.664,9.984z"/>
<linearGradient id="SVGID_4_" gradientUnits="userSpaceOnUse" x1="2396.3154" y1="431.4385" x2="2386.8206" y2="421.2079" gradientTransform="matrix(-0.9358 -0.3524 -0.3524 0.9358 2412.2405 454.8293)">
	<stop  offset="0" style="stop-color:#473834"/>
	<stop  offset="0.1952" style="stop-color:#5B4842"/>
	<stop  offset="0.4314" style="stop-color:#6D554D"/>
	<stop  offset="0.6881" style="stop-color:#775D54"/>
	<stop  offset="1" style="stop-color:#7A6056"/>
	<a:midPointStop  offset="0" style="stop-color:#473834"/>
	<a:midPointStop  offset="0.2545" style="stop-color:#473834"/>
	<a:midPointStop  offset="1" style="stop-color:#7A6056"/>
</linearGradient>
<path fill="url(#SVGID_4_)" d="M18.833,16.703c-1.231-2.3-0.354-6.869,2.149-9.117c1.848-1.666,3.887-2.09,6.935-0.933
	c2.47,0.938,3.991,3.121,3.795,4.905c-0.275,2.488-3.833,1.049-5.705,2.467c0,0-0.063-1.431,1.478-2.812
	C21.457,15.564,21.606,9.437,18.833,16.703z"/>
<path fill="#FFC940" d="M22.958,12.053c1.125,0.71,0.469,3.609-0.671,3.864c-0.159,0.036-0.855-0.141-0.955-0.949
	c-0.055-0.45-0.612-1.093-0.434-1.861C21.125,12.123,21.838,11.346,22.958,12.053z"/>
<path id="Path_19_" fill="#F0A429" d="M22.703,12.539c0.271,0.222,0.429,0.691,0.311,1.27c-0.988-0.712-1.401,0.543-0.481,1.057
	c-0.076,0.109-0.16,0.218-0.257,0.325c-0.2-0.645-0.758-0.721-0.838-1.565C21.364,12.865,22.031,11.99,22.703,12.539z"/>
<path fill="#FFFFFF" d="M27.043,14.829c-0.082,0.17,0.236,1.013,0.924,1.34c0.389,0.188,0.653-0.072,0.87-0.375
	C29.432,14.487,27.674,14.369,27.043,14.829z"/>
<linearGradient id="Path_2_" gradientUnits="userSpaceOnUse" x1="2385.874" y1="429.6123" x2="2385.874" y2="428.1035" gradientTransform="matrix(-0.9358 -0.3524 -0.3524 0.9358 2412.2405 454.8293)">
	<stop  offset="0" style="stop-color:#A6694A"/>
	<stop  offset="1" style="stop-color:#4F2A1E"/>
	<a:midPointStop  offset="0" style="stop-color:#A6694A"/>
	<a:midPointStop  offset="0.5" style="stop-color:#A6694A"/>
	<a:midPointStop  offset="1" style="stop-color:#4F2A1E"/>
</linearGradient>
<path id="Path_18_" fill="url(#Path_2_)" d="M28.93,15.634c-0.366,0.975-1.498,0.55-1.132-0.425
	C28.14,14.3,29.274,14.728,28.93,15.634z"/>
<path id="Path_17_" fill="#1A1626" d="M28.829,15.548c-0.183,0.486-0.749,0.272-0.564-0.215C28.436,14.881,29,15.091,28.829,15.548z
	"/>
<path id="Path_16_" fill="#AB968C" d="M28.554,15.217c-0.075,0.204-0.405,0.081-0.327-0.124
	C28.297,14.901,28.625,15.027,28.554,15.217z"/>
<path fill="#F0A429" d="M27.043,14.829c0.534-0.494,2.218-0.368,1.947,0.47C28.988,14.666,27.75,14.543,27.043,14.829z"/>
<path fill="#FF7A00" d="M21.261,16.179c0.126,0.741,1.65,1.589,2.331,1.38c1.268-0.388,2.579-3.87,2.101-5.171
	c-0.262-0.695-1.935-1.456-2.594-1.168C21.878,11.75,20.944,14.334,21.261,16.179z M24.471,12.201
	c0.448-0.422,1.233,0.521,0.785,0.945C24.81,13.571,24.026,12.625,24.471,12.201z M24.113,16.285
	c0.276,0.668-0.969,1.276-1.248,0.615C22.585,16.234,23.835,15.624,24.113,16.285z M24.006,11.889
	c0.102,0.651-1.121,0.894-1.229,0.243C22.675,11.476,23.898,11.238,24.006,11.889z"/>
<path fill="#F2F5F7" d="M26.023,22.538c0.229,0.258,0.701-0.142,0.661-0.368c-0.171-1.001-1.946-4.678-2.629-5.537
	c-0.288-0.358-0.728,0.092-0.664,0.369C23.638,18.103,25.371,21.802,26.023,22.538z"/>
<path fill="#E3E6E8" d="M29.865,8.083c0.275-0.304-0.144-0.73-0.384-0.634c-1.057,0.405-4.963,3.146-5.875,4.079
	c-0.287,0.287,0.043,0.781,0.382,0.636C25.157,11.653,29.083,8.955,29.865,8.083z"/>
<path fill="#F2F5F7" d="M30.42,8.469c0.218-0.313-0.234-0.693-0.449-0.587c-0.939,0.469-4.251,3.383-4.982,4.344
	c-0.311,0.403,0.188,0.733,0.444,0.588C26.466,12.239,29.801,9.361,30.42,8.469z"/>
<path fill="#F5BB51" d="M9.613,38.501c2.271-0.409,4.211-2.337,6.752,0.796c-0.006,2.91-0.908,4.15-1.72,4.912
	c-1.55,1.45-3.914,0.509-7.74,4.538l-3.052-2.003c2.633-2.628,3.193-4.559,5.779-5.524C10.017,40.475,9.975,39.685,9.613,38.501z"/>
<path fill="#E6EBEF" d="M3.264,47.509l3.18,1.78l0.641-0.9l-2.966-2.058C4.119,46.331,3.347,46.898,3.264,47.509z"/>
<path fill="#FF7A00" d="M2.75,54.014l-2.619-1.7c-0.385-0.249,0.197-0.682,0.197-0.682s2.777-0.083,10.092,5.704
	C10.42,57.336,7.574,58.993,2.75,54.014z"/>
<path fill="#302C3B" d="M1.945,49.048c0.234-0.779,1.537-2.544,1.712-2.259c0.34,0.553,2.209,1.652,2.773,1.663
	c0.416-1.761,1.755-0.7,1.49-0.246c-3.7,6.351,4.608,6.426,2.5,9.13c0,0-3.965-0.104-7.235-3.817l-2.856-1.887
	C0.951,49.854,1.895,49.208,1.945,49.048z"/>
<path fill="#FF7A00" d="M7.843,53.404c-1.575-0.323-1.744-0.738-1.206-1.233c-0.913-0.32-0.848-0.918-0.495-1.176
	c-0.803-0.477-0.432-1.117,0.814-0.776C7.644,50.438,8.266,53.488,7.843,53.404z"/>
<path fill="#F0A429" d="M26.948,30.3c-0.241-0.068-0.831,0.851-0.512,0.791c0.194-0.035,1.452,0.385,2.271,0.717
	c0.502,0.204,0.86-0.278,0.697-0.358C27.979,30.748,28.308,30.692,26.948,30.3z"/>
<path fill="#F0A429" d="M26.084,30.148c-0.241-0.058-0.795,0.983-0.479,0.997c0.192,0.01,1.348,0.653,2.095,1.124
	c0.456,0.293,0.852-0.063,0.713-0.18C27.452,31.274,26.409,30.221,26.084,30.148z"/>
<path fill="#F5BB51" d="M29.236,30.763c-0.558-0.148-1.324-0.666-1.633-0.66c-0.261,0.007-1.185-0.201-1.825-0.188
	c-0.592,0.014-3.069-0.662-6.807-3.091c-1.316,1-2.629,2.009-3.955,2.995c3.266,1.142,7.284,0.789,8.543,2.119
	c0.675,0.71,1.721,0.625,2.715,1.81c0.458,0.552,1.02-0.12-0.381-1.741c-0.349-0.402,0.367-0.626,0.585-0.67
	c0.427-0.085,1.512-0.165,2.172,0C28.912,31.406,30.108,30.999,29.236,30.763z"/>
<path fill="#F5BB51" d="M18.496,15.721c-2.104,8.596-0.79,11.657,2.606,9.824c1.076-0.585,2.464-1.875,1.794-3.969
	C22.624,20.042,21.842,17.183,18.496,15.721z"/>
<path fill="#F5BB51" d="M11.623,44.098c1.852-1.437,2.811-4.369,6.43-2.773c1.252,2.602,0.809,3.669,0.412,4.733
	c-0.76,2.027-3.056,3.621-4.842,8.462l-3.587-0.346c1.217-3.589,0.887-5.577,2.776-7.66C12.835,45.667,12.458,44.983,11.623,44.098z
	"/>
<path fill="#FF7A00" d="M4.594,29.259c3.858-2.589,4.368-11.48,10.444-14.19c2.23-0.996,4.495,1.105,4.533,2.591
	c0.052,2.201,1.517,5.346,3.188,3.255c0.182,0.196,0.137,0.662,0.137,0.662c-3.739,10.299-12.217,9.194-10.207,11.446
	c2.057,2.306,4.04,5.269,5.363,8.302c-2.167,0.561-4.629,1.359-6.43,2.773c-2.661-1.946-3.134-3.853-5.661-4.945
	C2.078,37.476,1.461,31.359,4.594,29.259z"/>
<path fill="#F5BB51" d="M12.521,17.117c-3.504,3.697-0.118,7.727,3.504,4.18C20.519,16.904,16.59,12.833,12.521,17.117z"/>
<path fill="#E6EBEF" d="M9.841,55.135l3.605,0.089l0.184-1.107l-3.535-0.437C10.095,53.68,9.653,54.551,9.841,55.135z"/>
<path fill="#FF7A00" d="M12.187,61.182L9.115,60.9c-0.449-0.041-0.117-0.7-0.117-0.7s2.443-1.387,11.466,0.325
	C20.463,60.525,18.636,63.35,12.187,61.182z"/>
<path fill="#302C3B" d="M9.324,57.132c-0.122-0.808,0.277-2.997,0.56-2.824c0.541,0.331,2.682,0.429,3.188,0.171
	c-0.386-1.766,1.266-1.449,1.224-0.92c-0.56,7.415,6.884,3.561,6.169,6.967c0,0-3.583,1.778-8.103,0.006L8.998,60.2
	C8.789,58.321,9.35,57.296,9.324,57.132z"/>
<path fill="#FF7A00" d="M16.469,58.233c-1.546,0.457-1.874,0.164-1.606-0.533c-0.955,0.147-1.156-0.419-0.952-0.813
	c-0.92-0.046-0.867-0.795,0.395-1.075C15.011,55.682,16.882,58.108,16.469,58.233z"/>
<path fill="#F0A429" d="M19.895,36.122c0.1,0.333-0.58,1.673-1.011,2.858c-0.062,0.168-0.733-0.093-0.645-0.622
	c0.14-0.867,0.251-2.182,0.146-2.367C18.217,35.686,19.822,35.873,19.895,36.122z"/>
<path fill="#F5BB51" d="M8.774,28.851c-0.317-0.365,0.356-3.769,5.074-12.365c1.772-3.227,5.866-0.307,4.261,3.024
	c-2.337,4.845-4.346,7.678-4.346,7.678c1.545,1.214,4.638,4.814,6.519,7.318c0.424,0.568,0.969,3.647,1.043,3.897
	c0.102,0.331-0.58,1.672-1.013,2.858c-0.06,0.164-0.731-0.093-0.644-0.624c0.142-0.864,0.251-2.183,0.149-2.365
	c-0.17-0.307-1.755-1.47-1.555-2.823C15.559,34.257,11.336,31.802,8.774,28.851z"/>
<path fill="#F5BB51" d="M57.641,39.311l-5.519,3.424c0.582,1.042,2.895,3.453,5.075,8.434l3.547-0.729
	c-1.964-3.806-0.67-5.704-3.018-8.397C57.137,41.364,57.641,39.311,57.641,39.311z"/>
<path fill="#E6EBEF" d="M61.028,51.336l-3.588,0.485l-0.286-1.038l3.482-0.811C60.637,49.973,61.163,50.757,61.028,51.336z"/>
<path fill="#E81C27" d="M59.257,57.381l3.036-0.608c0.445-0.091,0.052-0.685,0.052-0.685s-2.565-1.055-11.406,1.582
	C50.938,57.67,53.023,60.168,59.257,57.381z"/>
<path fill="#302C3B" d="M61.729,53.188c0.05-0.783-0.557-2.831-0.821-2.637c-0.508,0.378-2.634,0.709-3.165,0.518
	c0.222-1.732-1.397-1.246-1.308-0.746c1.257,7.031-6.531,4.167-5.497,7.348c0,0,3.739,1.304,8.083-0.891l3.323-0.691
	C62.377,54.266,61.718,53.352,61.729,53.188z"/>
<path fill="#E81C27" d="M54.707,55.034c1.583,0.265,1.886-0.05,1.554-0.688c0.964,0.037,1.111-0.527,0.871-0.882
	c0.916-0.147,0.791-0.854-0.494-0.985C55.921,52.432,54.281,54.962,54.707,55.034z"/>
<path fill="#F0A429" d="M44.379,37.062c0.201-0.149,1.264,0.623,0.969,0.758c-0.178,0.083-0.955,1.152-1.427,1.893
	c-0.287,0.456-0.851,0.276-0.777,0.11C43.646,38.671,44.105,37.261,44.379,37.062z"/>
<path fill="#F0A429" d="M45.272,36.889c0.163-0.185,1.225,0.342,0.975,0.536c-0.151,0.118-0.712,1.309-1.044,2.121
	c-0.199,0.502-0.73,0.439-0.687,0.263C44.822,38.594,45.052,37.136,45.272,36.889z"/>
<path fill="#F5BB51" d="M42.244,39.157c0.372-0.438,0.71-1.283,0.967-1.452c0.217-0.146,0.854-0.833,1.389-1.189
	c0.492-0.323,2.141-2.269,3.841-6.315c1.637,0.043,3.277,0.09,4.911,0.113c-2.033,2.762-5.743,4.433-5.425,6.172
	c0.168,0.933-0.517,1.716-0.157,3.165c0.17,0.673-0.699,0.743-1.169-1.272c-0.114-0.501-1.497-0.386-1.716-0.358
	c-0.349,0.044-1.317,0.799-1.764,1.309C42.943,39.53,41.661,39.836,42.244,39.157z"/>
<path fill="#F5BB51" d="M48.153,18.664c2.104,8.287,0.791,11.24-2.606,9.473c-1.077-0.562-2.706-1.564-2.035-3.584
	C43.782,23.074,44.808,20.072,48.153,18.664z"/>
<path fill="#F5BB51" d="M53.337,44.932c-1.851-1.385-1.874-4.837-5.492-3.299c-1.625,2.109-1.182,3.284-0.658,4.251
	c0.416,0.768,0.829,3.694,2.511,8.901l3.584-0.336c-1.214-3.461,0.548-5.573-0.594-8.209C52.515,45.837,52.459,45.545,53.337,44.932
	z"/>
<path fill="#E81C27" d="M62.056,31.719c-3.859-2.497-4.369-11.072-10.444-13.686c-2.23-0.96-4.497,1.066-4.534,2.498
	c-0.052,2.124-1.74,5.366-3.411,3.351c-0.162,0.213-0.154,0.671-0.154,0.671c3.738,9.934,12.85,8.933,10.243,10.355
	c-3.116,1.7-4.763,5.154-5.91,6.726c2.166,0.541,3.69,1.936,5.492,3.299c2.661-1.878,4.683-3.388,7.209-4.441
	C64.431,38.873,65.188,33.742,62.056,31.719z"/>
<path fill="#F5BB51" d="M53.924,20.825c1.736,4.279-1.392,6.321-4.163,3.703C45.266,20.291,51.75,15.468,53.924,20.825z"/>
<path fill="#E6EBEF" d="M53.479,55.378l-3.606,0.084l-0.184-1.067l3.534-0.422C53.223,53.973,53.667,54.813,53.479,55.378z"/>
<path fill="#E81C27" d="M51.134,61.211l3.071-0.273c0.449-0.038,0.117-0.674,0.117-0.674s-2.444-1.339-11.466,0.313
	C42.856,60.576,44.681,63.303,51.134,61.211z"/>
<path fill="#302C3B" d="M53.994,57.302c0.123-0.776-0.276-2.889-0.558-2.722c-0.54,0.319-2.683,0.415-3.189,0.167
	c0.387-1.704-1.265-1.399-1.223-0.891c0.56,7.152-6.885,3.435-6.168,6.72c0,0,3.582,1.717,8.102,0.007l3.364-0.319
	C54.53,58.45,53.969,57.463,53.994,57.302z"/>
<path fill="#E81C27" d="M46.851,58.366c1.544,0.441,1.872,0.159,1.606-0.514c0.953,0.142,1.155-0.403,0.95-0.785
	c0.92-0.045,0.868-0.765-0.393-1.036C48.308,55.905,46.438,58.246,46.851,58.366z"/>
<path fill="#F0A429" d="M35.434,26.405c-0.317-0.124-1.671,0.442-2.857,0.777c-0.168,0.048,0.032,0.732,0.556,0.685
	c0.851-0.069,2.133-0.079,2.305,0.037C35.721,28.097,35.671,26.499,35.434,26.405z"/>
<path fill="#F0A429" d="M34.496,24.467c-0.149-0.266-1.423-0.632-2.446-1.064c-0.144-0.063-0.396,0.529-0.003,0.791
	c0.635,0.43,1.539,1.146,1.593,1.324C33.728,25.815,34.61,24.666,34.496,24.467z"/>
<path fill="#F5BB51" d="M46.156,32.151c0.473,0.061,2.813-1.744,7.033-10.294c1.582-3.211-3.08-4.954-4.84-1.824
	c-2.563,4.557-3.693,7.743-3.693,7.743c-1.85-0.6-7.05-0.606-7.313-0.786c-0.569-0.398-2.7-2.475-2.882-2.651
	c-0.241-0.235-1.713-0.233-2.936-0.381c-0.172-0.02-0.258,0.684,0.239,0.846c0.814,0.257,2.002,0.747,2.117,0.919
	c0.184,0.287,0.459,2.198,1.721,2.621C37.463,28.581,42.339,31.674,46.156,32.151z"/>
</svg>
