<?xml version="1.0" encoding="utf-8"?>
<!-- Generator: Adobe Illustrator 15.0.0, SVG Export Plug-In . SVG Version: 6.00 Build 0)  -->
<!DOCTYPE svg PUBLIC "-//W3C//DTD SVG 1.1//EN" "http://www.w3.org/Graphics/SVG/1.1/DTD/svg11.dtd" [
	<!ENTITY ns_flows "http://ns.adobe.com/Flows/1.0/">
	<!ENTITY ns_extend "http://ns.adobe.com/Extensibility/1.0/">
	<!ENTITY ns_ai "http://ns.adobe.com/AdobeIllustrator/10.0/">
	<!ENTITY ns_graphs "http://ns.adobe.com/Graphs/1.0/">
]>
<svg version="1.1" id="Layer_1" xmlns:x="&ns_extend;" xmlns:i="&ns_ai;" xmlns:graph="&ns_graphs;"
	 xmlns="http://www.w3.org/2000/svg" xmlns:xlink="http://www.w3.org/1999/xlink" xmlns:a="http://ns.adobe.com/AdobeSVGViewerExtensions/3.0/"
	 x="0px" y="0px" width="64px" height="64px" viewBox="0 0 64 64" enable-background="new 0 0 64 64" xml:space="preserve">
<rect x="7.612" y="28.373" fill="#F5BB51" width="4.891" height="2.133"/>
<path fill="#F5BB51" d="M58.736,23.275c0.938-1.533-0.471-2.51-2.693,0.176c-1.717,2.072-7.514,5.795-3.326,6.732
	c2.982,0.668,10.254-4.387,11.162-9.473C64.705,16.09,61.1,22.279,58.736,23.275z"/>
<path fill="#F5BB51" d="M5.262,23.275c-0.938-1.533,0.471-2.51,2.691,0.176c1.717,2.072,7.516,5.795,3.328,6.732
	c-2.982,0.668-10.254-4.387-11.16-9.473C-0.707,16.09,2.897,22.279,5.262,23.275z"/>
<rect x="51.881" y="28.373" fill="#F5BB51" width="4.889" height="2.133"/>
<path fill="#3AB0A2" d="M57.348,30.094h-6.09l0.219,13.143c0,0-2.051-3.754-5.363-6.299c-5.061-3.885-8.887,0.936-13.921,0.936
	c-5.035,0-8.863-4.82-13.924-0.936c-3.314,2.545-5.363,6.299-5.363,6.299l0.221-13.143H7.034c0,0-0.783,15.768-0.488,21.016
	c0.275,4.848,4.178,6.688,12.223-3.385c0.889,7.063,1.021,7.709,1.021,11.291c0,3.979,24.802,3.979,24.802,0
	c0-3.582,0.133-4.229,1.021-11.291c8.045,10.072,11.947,8.232,12.225,3.385C58.133,45.861,57.348,30.094,57.348,30.094z"/>
<polygon fill="#2B998D" points="14.833,40.4 12.917,42.475 12.809,47.232 "/>
<polygon fill="#2B998D" points="49.549,40.4 51.467,42.475 51.574,47.232 "/>
<path fill="#2B998D" d="M24.331,36.143c0,5.936,15.339,5.912,15.339-0.02C39.67,34.781,24.331,34.803,24.331,36.143z"/>
<path fill="#F5BB51" d="M25.426,35.785c0,4.645,13.148,4.645,13.148,0c0-1.58,0-5.139,0-5.139H25.425
	C25.425,30.646,25.426,34.203,25.426,35.785z"/>
<path id="Path_35_" fill="#FFC940" d="M41.637,18.172c-1.792,0.543-2.035,6.896-0.599,8.31c0.202,0.196,1.209,0.392,1.656-1.158
	c0.25-0.858,1.25-1.714,1.31-3.403C44.081,19.755,43.421,17.63,41.637,18.172z"/>
<path id="Path_34_" fill="#FFC940" d="M17.983,22.343c1.87-0.103,4.271,5.785,3.403,7.604c-0.122,0.254-1.001,0.781-1.953-0.521
	c-0.526-0.723-1.761-1.184-2.394-2.752C16.227,24.666,16.122,22.443,17.983,22.343z"/>
<path id="Path_33_" fill="#F0A429" d="M41.795,19.353c-0.452,0.235-0.845,1.054-0.915,2.312c1.606-0.653,1.679,2.197,0.236,2.505
	c0.063,0.277,0.133,0.561,0.221,0.856c0.52-1.137,1.302-0.855,1.74-2.487C43.472,21.068,42.912,18.774,41.795,19.353z"/>
<path id="Path_32_" fill="#F0A429" d="M19.886,25.362c-0.496-1.155-1.144-1.79-1.647-1.856c-1.247-0.16-0.991,2.186-0.117,3.433
	c0.97,1.384,1.61,0.853,2.488,1.741c-0.02-0.307-0.051-0.6-0.09-0.881C19.073,27.984,18.177,25.314,19.886,25.362z"/>
<path id="Path_31_" fill="#FFC940" d="M27.734,8.488c-7.934,1.398-10.699,8.064-8.752,16.311c0.391,1.66,2.398,6.943,3.727,8.732
	c1.359,1.828,5.269,4.33,7.441,4.607c1.374,0.172,4.224-0.33,5.454-0.963c1.948-1.004,4.768-4.691,5.419-6.875
	c0.64-2.135,0.715-7.785,0.514-9.479C40.548,12.406,35.67,7.089,27.734,8.488z"/>
<path id="Path_30_" fill="#966F42" d="M38.32,18.127c-1.982-0.643-5.462-0.076-6.637,0.822c-0.257,0.178,0.088,1.054,0.306,0.927
	c1.675-1.03,4.582-1.559,6.408-1.067C38.64,18.871,38.62,18.211,38.32,18.127z"/>
<path id="Path_29_" fill="#966F42" d="M21.083,21.166c1.645-1.281,5.106-1.939,6.521-1.497c0.3,0.079,0.277,1.021,0.029,0.976
	c-1.932-0.395-4.839,0.103-6.389,1.189C21.039,21.975,20.832,21.348,21.083,21.166z"/>
<path id="Path_28_" fill="#F0A429" d="M33.31,27.588c-0.254-0.117-0.743,0.219-2.126,0.463c-1.381,0.244-1.956,0.096-2.154,0.293
	c-0.238,0.238,0.346,1.021,2.325,0.674C33.334,28.668,33.615,27.731,33.31,27.588z"/>
<path id="Path_25_" fill="#FFFFFF" d="M28.512,23.225c0.16,0.514-0.087,1.197-0.991,1.838c-0.574,0.406-1.817,0.985-3.658,0.564
	c-0.824-0.188-1.751-1.061-1.781-1.631C22.702,22.084,27.228,21.022,28.512,23.225z"/>
<linearGradient id="Oval_1_" gradientUnits="userSpaceOnUse" x1="-435.9565" y1="501.3008" x2="-435.9565" y2="501.8545" gradientTransform="matrix(6.4703 -1.1409 -1.1409 -6.4703 3418.4238 2771.7136)">
	<stop  offset="0" style="stop-color:#A6694A"/>
	<stop  offset="1" style="stop-color:#4F2A1E"/>
	<a:midPointStop  offset="0" style="stop-color:#A6694A"/>
	<a:midPointStop  offset="0.5" style="stop-color:#A6694A"/>
	<a:midPointStop  offset="1" style="stop-color:#4F2A1E"/>
</linearGradient>
<circle id="Oval_4_" fill="url(#Oval_1_)" cx="25.406" cy="23.737" r="1.821"/>
<path id="Path_24_" fill="#1A1626" d="M24.501,23.861c0.219,1.242,2.015,0.925,1.796-0.316
	C26.094,22.395,24.299,22.711,24.501,23.861z"/>
<path id="Path_23_" fill="#AB968C" d="M24.141,23.406c0.092,0.521,0.843,0.388,0.751-0.132
	C24.807,22.794,24.056,22.926,24.141,23.406z"/>
<path id="Path_22_" fill="#F0A429" d="M28.534,23.291c-1.142-2.209-6.054-0.986-6.452,0.705
	C21.976,21.938,27.389,20.436,28.534,23.291z"/>
<path id="Path_21_" fill="#FFFFFF" d="M32.044,22.602c0.024,0.537,0.489,1.096,1.559,1.389c0.679,0.186,2.045,0.304,3.63-0.721
	c0.713-0.459,1.283-1.596,1.117-2.143C37.114,19.543,32.498,20.094,32.044,22.602z"/>
<linearGradient id="Oval_2_" gradientUnits="userSpaceOnUse" x1="-437.1577" y1="501.3008" x2="-437.1577" y2="501.8545" gradientTransform="matrix(6.4703 -1.1409 -1.1409 -6.4703 3435.8848 2768.6355)">
	<stop  offset="0" style="stop-color:#A6694A"/>
	<stop  offset="1" style="stop-color:#4F2A1E"/>
	<a:midPointStop  offset="0" style="stop-color:#A6694A"/>
	<a:midPointStop  offset="0.5" style="stop-color:#A6694A"/>
	<a:midPointStop  offset="1" style="stop-color:#4F2A1E"/>
</linearGradient>
<circle id="Oval_3_" fill="url(#Oval_2_)" cx="35.098" cy="22.028" r="1.821"/>
<path id="Path_20_" fill="#1A1626" d="M34.195,22.152c0.219,1.241,2.015,0.925,1.796-0.316
	C35.788,20.686,33.992,21.002,34.195,22.152z"/>
<path id="Path_19_" fill="#AB968C" d="M33.833,21.697c0.092,0.521,0.845,0.388,0.753-0.133
	C34.501,21.084,33.748,21.217,33.833,21.697z"/>
<path id="Path_18_" fill="#F0A429" d="M32.047,22.672c0.316-2.465,5.344-3.007,6.303-1.545
	C37.742,19.158,32.146,19.596,32.047,22.672z"/>
<path fill="#7A6056" d="M38.217,8.687c-2.15-2.04-5.65-3.301-10.868-2.381s-8.073,3.302-9.396,5.954
	C16.081,16.014,41.26,11.574,38.217,8.687z"/>
<linearGradient id="SVGID_1_" gradientUnits="userSpaceOnUse" x1="-44.0229" y1="-125.3555" x2="-44.0229" y2="-140.9751" gradientTransform="matrix(0.9848 -0.1736 0.1736 0.9848 95.7369 140.6686)">
	<stop  offset="0.5" style="stop-color:#473834"/>
	<stop  offset="0.6387" style="stop-color:#503F3A"/>
	<stop  offset="0.8641" style="stop-color:#68524A"/>
	<stop  offset="1" style="stop-color:#7A6056"/>
	<a:midPointStop  offset="0.5" style="stop-color:#473834"/>
	<a:midPointStop  offset="0.6" style="stop-color:#473834"/>
	<a:midPointStop  offset="1" style="stop-color:#7A6056"/>
</linearGradient>
<path fill="url(#SVGID_1_)" d="M38.217,8.687c-2.15-2.04-4.88,1.065-10.098,1.985c-5.217,0.92-8.843-1.064-10.166,1.588
	c-1.872,3.754,0.913,14.674,2.009,14.48c0.172-0.03-0.485-3.906-0.626-6.643c-0.116-2.227,0.029-4.433,0.565-4.883
	c1.636-1.377,5.413-0.487,8.827-1.09c3.414-0.602,6.661-2.73,8.669-1.996c0.656,0.24,1.546,2.264,2.202,4.396
	c0.802,2.62,1.51,6.487,1.683,6.456C42.376,22.788,41.26,11.574,38.217,8.687z"/>
<path fill="#C1873C" d="M34.437,31.486c-1.662,0.266-4.029,0.416-5.949,0.258c-0.725-0.059-0.912,0.938-0.152,1.038
	c2.133,0.275,4.594,0.059,6.326-0.73C35.081,31.859,34.839,31.421,34.437,31.486z"/>
</svg>
