<?xml version="1.0" encoding="utf-8"?>
<!-- Generator: Adobe Illustrator 24.1.2, SVG Export Plug-In . SVG Version: 6.00 Build 0)  -->
<svg version="1.1" id="Layer_1" xmlns="http://www.w3.org/2000/svg" xmlns:xlink="http://www.w3.org/1999/xlink" x="0px" y="0px"
	 width="64px" height="64px" viewBox="0 0 64 64" style="enable-background:new 0 0 64 64;" xml:space="preserve">
<style type="text/css">
	.st0{fill:url(#SVGID_1_);}
	.st1{fill:url(#SVGID_2_);}
	.st2{fill:url(#SVGID_3_);}
	.st3{fill:#F9B700;}
	.st4{fill:url(#SVGID_4_);}
	.st5{fill:url(#SVGID_5_);}
	.st6{fill:url(#SVGID_6_);}
	.st7{fill:#D47706;}
	.st8{fill:url(#SVGID_7_);}
	.st9{fill:url(#SVGID_8_);}
	.st10{fill:#FFEB85;}
</style>
<linearGradient id="SVGID_1_" gradientUnits="userSpaceOnUse" x1="24.001" y1="16" x2="42.001" y2="16">
	<stop  offset="0" style="stop-color:#FF000E"/>
	<stop  offset="0.7283" style="stop-color:#DD0004"/>
	<stop  offset="1" style="stop-color:#CF0000"/>
</linearGradient>
<polygon class="st0" points="36,2 24,30 29,30 42,2 "/>
<linearGradient id="SVGID_2_" gradientUnits="userSpaceOnUse" x1="34.001" y1="16" x2="54" y2="16">
	<stop  offset="0" style="stop-color:#005687"/>
	<stop  offset="0.2619" style="stop-color:#0B669B"/>
	<stop  offset="0.7365" style="stop-color:#1C7FBB"/>
	<stop  offset="1" style="stop-color:#2289C7"/>
</linearGradient>
<polygon class="st1" points="48,2 34,30 40,30 54,2 "/>
<linearGradient id="SVGID_3_" gradientUnits="userSpaceOnUse" x1="29.001" y1="16" x2="48.001" y2="16">
	<stop  offset="0.3333" style="stop-color:#EEF2F5"/>
	<stop  offset="0.647" style="stop-color:#E4E8EA"/>
	<stop  offset="1" style="stop-color:#D4D7D9"/>
</linearGradient>
<polygon class="st2" points="42,2 29,30 34,30 48,2 "/>
<path class="st3" d="M40,28H24c0,0-4,0-4,4v4h2v-4c0-2,2-2,2-2h16c0,0,2,0,2,2v4h2v-4C44,28,40,28,40,28z"/>
<linearGradient id="SVGID_4_" gradientUnits="userSpaceOnUse" x1="22.001" y1="16" x2="40.001" y2="16">
	<stop  offset="0" style="stop-color:#005687"/>
	<stop  offset="0.2619" style="stop-color:#0B669B"/>
	<stop  offset="0.7365" style="stop-color:#1C7FBB"/>
	<stop  offset="1" style="stop-color:#2289C7"/>
</linearGradient>
<polygon class="st4" points="28,2 22,2 34,30 40,30 "/>
<linearGradient id="SVGID_5_" gradientUnits="userSpaceOnUse" x1="10" y1="16" x2="29.001" y2="16">
	<stop  offset="0" style="stop-color:#CF0000"/>
	<stop  offset="0.2717" style="stop-color:#DD0004"/>
	<stop  offset="1" style="stop-color:#FF000E"/>
</linearGradient>
<polygon class="st5" points="16,2 10,2 24,30 29,30 "/>
<radialGradient id="SVGID_6_" cx="25.001" cy="16" r="11.7686" gradientUnits="userSpaceOnUse">
	<stop  offset="0.3333" style="stop-color:#EEF2F5"/>
	<stop  offset="0.647" style="stop-color:#E4E8EA"/>
	<stop  offset="1" style="stop-color:#D4D7D9"/>
</radialGradient>
<polygon class="st6" points="29,30 34,30 22,2 16,2 "/>
<ellipse class="st7" cx="32" cy="46.14" rx="16" ry="15.86"/>
<linearGradient id="SVGID_7_" gradientUnits="userSpaceOnUse" x1="44.0474" y1="57.2155" x2="44.0474" y2="29.4694" gradientTransform="matrix(1.1429 0 0 1.1429 -18.3418 -3.6806)">
	<stop  offset="0" style="stop-color:#FFE600"/>
	<stop  offset="0.1215" style="stop-color:#FFE71E"/>
	<stop  offset="0.3005" style="stop-color:#FFE943"/>
	<stop  offset="0.4798" style="stop-color:#FFEA60"/>
	<stop  offset="0.6571" style="stop-color:#FFEA74"/>
	<stop  offset="0.8316" style="stop-color:#FFEB81"/>
	<stop  offset="1" style="stop-color:#FFEB85"/>
</linearGradient>
<ellipse class="st8" cx="32" cy="45.86" rx="16" ry="15.86"/>
<path class="st7" d="M32,31.19c8.01,0,14.5,6.44,14.5,14.37c0,7.93-6.49,14.37-14.5,14.37c-8.01,0-14.5-6.44-14.5-14.37
	C17.5,37.63,23.99,31.19,32,31.19z"/>
<radialGradient id="SVGID_8_" cx="44.0474" cy="45.5046" r="12.6871" gradientTransform="matrix(0.8082 0.8009 -1.6163 1.6017 69.9523 -62.2996)" gradientUnits="userSpaceOnUse">
	<stop  offset="0.1636" style="stop-color:#FAD103"/>
	<stop  offset="0.3546" style="stop-color:#F9CD09"/>
	<stop  offset="0.6082" style="stop-color:#F7C31A"/>
	<stop  offset="0.896" style="stop-color:#F4B235"/>
	<stop  offset="1" style="stop-color:#F2AB41"/>
</radialGradient>
<path class="st9" d="M32,31.49c8.01,0,14.5,6.44,14.5,14.37S40.01,60.23,32,60.23c-8.01,0-14.5-6.44-14.5-14.37
	S23.99,31.49,32,31.49z"/>
<polygon class="st7" points="33.95,37.25 33.74,37 27,42.82 27.13,42.99 30.33,41.06 30.33,50.34 26.78,53 27.02,53.25 37.39,53.25 
	37.39,50.44 37.22,50.19 33.95,50.44 "/>
<polygon class="st10" points="33.74,37 31.7,37 27,39.74 27,42.82 30.24,40.91 30.24,50.19 26.78,50.19 26.78,53 37.22,53 
	37.22,50.19 33.74,50.19 "/>
</svg>
