<?xml version="1.0" encoding="utf-8"?>
<!-- Generator: Adobe Illustrator 24.1.2, SVG Export Plug-In . SVG Version: 6.00 Build 0)  -->
<svg version="1.1" id="Layer_1" xmlns="http://www.w3.org/2000/svg" xmlns:xlink="http://www.w3.org/1999/xlink" x="0px" y="0px"
	 width="64px" height="64px" viewBox="0 0 64 64" style="enable-background:new 0 0 64 64;" xml:space="preserve">
<style type="text/css">
	.st0{fill:#C5D7E8;}
	.st1{fill:#E6EBEF;}
	.st2{fill:url(#SVGID_1_);}
	.st3{fill:#FFFFFF;}
	.st4{fill:#F5F5F5;}
	.st5{fill:#B2C1D1;}
	.st6{opacity:0.7;fill:url(#SVGID_2_);enable-background:new    ;}
</style>
<path class="st0" d="M32,4.54H13c0,0,0,32.95,6.65,54c1.37,4.61,23.33,4.62,24.7,0C51,37.49,51,4.54,51,4.54H32z"/>
<path class="st1" d="M32,5.06H13.77L14,13.65h36l0.23-8.59H32z"/>
<linearGradient id="SVGID_1_" gradientUnits="userSpaceOnUse" x1="14.0003" y1="35.5423" x2="49.9997" y2="35.5423">
	<stop  offset="0" style="stop-color:#F5F5F5"/>
	<stop  offset="1" style="stop-color:#E8E8E8"/>
</linearGradient>
<path class="st2" d="M14,13.65c0,13.65,3.75,35.19,6.39,41.37c1.46,3.42,21.63,3.02,23.23,0C46.74,49.11,50,27.3,50,13.65H14z"/>
<path class="st3" d="M32,11.62c9.94,0,18,0.91,18,2.03s-8.06,2.03-18,2.03c-9.94,0-18-0.91-18-2.03S22.06,11.62,32,11.62z"/>
<path class="st0" d="M32,2C21.51,2,13,3.14,13,4.54c0,1.41,8.51,2.55,19,2.55c10.49,0,19-1.14,19-2.55C51,3.14,42.49,2,32,2z"/>
<path class="st4" d="M32,2.38c9.94,0,18,0.91,18,2.03c0,1.12-8.06,2.03-18,2.03c-9.94,0-18-0.91-18-2.03C14,3.29,22.06,2.38,32,2.38
	z"/>
<path class="st5" d="M21,57.92c9.05,2.61,10.82,3.13,21.18-0.14C34.35,58.51,28.29,58.89,21,57.92z"/>
<path class="st5" d="M24.31,59.64c5.9,1.72,12.53,1.28,18.69-0.74C36.71,59.12,30.63,59.95,24.31,59.64z"/>
<linearGradient id="SVGID_2_" gradientUnits="userSpaceOnUse" x1="22.3007" y1="52.1805" x2="22.3007" y2="1.8341">
	<stop  offset="0" style="stop-color:#FFFFFF;stop-opacity:0"/>
	<stop  offset="0.1142" style="stop-color:#FFFFFF;stop-opacity:0.1142"/>
	<stop  offset="1" style="stop-color:#FFFFFF"/>
</linearGradient>
<path class="st6" d="M14.96,7.96c0,0-0.54,19.82,6.04,41.06c0.44,1.41,8.92,4.65,8.64,2.37C27.08,29.95,27.2,9.35,27.2,9.35
	S18.35,8.76,14.96,7.96z"/>
</svg>
