<?xml version="1.0" encoding="utf-8"?>
<!-- Generator: Adobe Illustrator 15.0.0, SVG Export Plug-In . SVG Version: 6.00 Build 0)  -->
<!DOCTYPE svg PUBLIC "-//W3C//DTD SVG 1.1//EN" "http://www.w3.org/Graphics/SVG/1.1/DTD/svg11.dtd" [
	<!ENTITY ns_flows "http://ns.adobe.com/Flows/1.0/">
	<!ENTITY ns_extend "http://ns.adobe.com/Extensibility/1.0/">
	<!ENTITY ns_ai "http://ns.adobe.com/AdobeIllustrator/10.0/">
	<!ENTITY ns_graphs "http://ns.adobe.com/Graphs/1.0/">
]>
<svg version="1.1" id="Layer_1" xmlns:x="&ns_extend;" xmlns:i="&ns_ai;" xmlns:graph="&ns_graphs;"
	 xmlns="http://www.w3.org/2000/svg" xmlns:xlink="http://www.w3.org/1999/xlink" xmlns:a="http://ns.adobe.com/AdobeSVGViewerExtensions/3.0/"
	 x="0px" y="0px" width="64px" height="64px" viewBox="0 0 64 64" enable-background="new 0 0 64 64" xml:space="preserve">
<radialGradient id="SVGID_1_" cx="21.0605" cy="-29.1499" r="26.3539" gradientTransform="matrix(0.7065 0.7071 -0.7065 0.7071 7.0918 35.8451)" gradientUnits="userSpaceOnUse">
	<stop  offset="0.4424" style="stop-color:#356628"/>
	<stop  offset="0.6257" style="stop-color:#305E24"/>
	<stop  offset="0.9075" style="stop-color:#224918"/>
	<stop  offset="1" style="stop-color:#1D4013"/>
	<a:midPointStop  offset="0.4424" style="stop-color:#356628"/>
	<a:midPointStop  offset="0.6129" style="stop-color:#356628"/>
	<a:midPointStop  offset="1" style="stop-color:#1D4013"/>
</radialGradient>
<path fill="url(#SVGID_1_)" d="M55.044,5.54C49.59,1.951,1.022,45.625,7.112,51.721c22.853,22.875,40.75,2.641,46.788-13.047
	C58.608,26.447,64.305,11.638,55.044,5.54z"/>
<path fill="#BCE042" d="M54.021,22.939c8.575-14.358,1.18-25.184-15.129-14.845c-8.809,5.584-18.047,7.778-26.844,17.594
	c-21.055,23.489,3.362,42.182,25.554,22.549C46.17,40.658,50.479,28.875,54.021,22.939z"/>
<radialGradient id="SVGID_2_" cx="99.7051" cy="-46.7788" r="26.5149" gradientTransform="matrix(0.6667 0.6679 -1.6098 1.6129 -109.7454 38.5487)" gradientUnits="userSpaceOnUse">
	<stop  offset="0.1576" style="stop-color:#FDF286"/>
	<stop  offset="0.3958" style="stop-color:#EDEE75"/>
	<stop  offset="0.8648" style="stop-color:#C3E24A"/>
	<stop  offset="0.9394" style="stop-color:#BCE042"/>
	<a:midPointStop  offset="0.1576" style="stop-color:#FDF286"/>
	<a:midPointStop  offset="0.5547" style="stop-color:#FDF286"/>
	<a:midPointStop  offset="0.9394" style="stop-color:#BCE042"/>
</radialGradient>
<path fill="url(#SVGID_2_)" d="M52.252,22.843c8.296-13.4,1.895-23.052-13.335-13.072c-8.224,5.39-16.732,7.696-25.087,16.953
	c-19.991,22.153,1.697,38.438,22.604,19.774C44.504,39.291,48.822,28.382,52.252,22.843z"/>
<radialGradient id="SVGID_3_" cx="-35.6377" cy="51.7383" r="12.3015" fx="-36.318" fy="60.9427" gradientTransform="matrix(0.8775 -0.8786 0.5953 0.596 24.9933 -28.2224)" gradientUnits="userSpaceOnUse">
	<stop  offset="0.2061" style="stop-color:#3D4A11;stop-opacity:0.4"/>
	<stop  offset="0.3087" style="stop-color:#424E14;stop-opacity:0.3476"/>
	<stop  offset="0.4219" style="stop-color:#4F5A1C;stop-opacity:0.2897"/>
	<stop  offset="0.5401" style="stop-color:#656D29;stop-opacity:0.2293"/>
	<stop  offset="0.6619" style="stop-color:#84883C;stop-opacity:0.167"/>
	<stop  offset="0.7863" style="stop-color:#ACAB54;stop-opacity:0.1034"/>
	<stop  offset="0.9112" style="stop-color:#DBD572;stop-opacity:0.0396"/>
	<stop  offset="0.9886" style="stop-color:#FDF286;stop-opacity:0"/>
	<a:midPointStop  offset="0.2061" style="stop-color:#3D4A11;stop-opacity:0.4"/>
	<a:midPointStop  offset="0.6871" style="stop-color:#3D4A11;stop-opacity:0.4"/>
	<a:midPointStop  offset="0.9886" style="stop-color:#FDF286;stop-opacity:0"/>
</radialGradient>
<path fill="url(#SVGID_3_)" d="M37.745,22.38C50.9,35.551,26.383,60.096,13.23,46.926C0.076,33.756,24.592,9.21,37.745,22.38z"/>
<radialGradient id="SVGID_4_" cx="5.4731" cy="-18.0659" r="11.6026" gradientTransform="matrix(0.7065 0.7071 -1.0851 1.0861 0.2509 42.6937)" gradientUnits="userSpaceOnUse">
	<stop  offset="0" style="stop-color:#E6A157"/>
	<stop  offset="0.129" style="stop-color:#DB974F"/>
	<stop  offset="0.3564" style="stop-color:#BD7B3A"/>
	<stop  offset="0.6535" style="stop-color:#8E4E18"/>
	<stop  offset="0.7758" style="stop-color:#783A09"/>
	<stop  offset="1" style="stop-color:#542906"/>
	<a:midPointStop  offset="0" style="stop-color:#E6A157"/>
	<a:midPointStop  offset="0.5818" style="stop-color:#E6A157"/>
	<a:midPointStop  offset="0.7758" style="stop-color:#783A09"/>
	<a:midPointStop  offset="0.5" style="stop-color:#783A09"/>
	<a:midPointStop  offset="1" style="stop-color:#542906"/>
</radialGradient>
<path fill="url(#SVGID_4_)" d="M35.554,27.35C34.941,37.793,27.66,44.18,21.53,44.969c-5.744,0.74-9.008-5.434-8.414-11.037
	c0.735-6.918,7.529-12.494,17.792-11.512C34.339,22.748,35.703,24.804,35.554,27.35z"/>
<path opacity="0.1" fill="#16002B" d="M25.488,22.999c-6.376,2.095-10.625,7.931-11.521,14.47
	C15.888,31.32,19.929,26.244,25.488,22.999z"/>
<path opacity="0.1" fill="#16002B" d="M23.715,42.807c6.159-2.666,9.863-8.863,10.162-15.457
	C32.521,33.648,28.957,39.07,23.715,42.807z"/>
<path opacity="0.1" fill="#16002B" d="M16.138,40.016c3.398-3.412,4.907-12.256,6.982-13.956
	C18.616,29.344,18.658,35.502,16.138,40.016z"/>
<path opacity="0.1" fill="#16002B" d="M32.405,25.051c-1.698,3.698-12.216,10.226-13.35,16.314
	C21.703,34.729,30.617,32.096,32.405,25.051z"/>
<path opacity="0.1" fill="#16002B" d="M31.365,30.496c-4.822,2.938-6.2,9.07-10.986,12.063
	C26.01,40.832,28.764,32.271,31.365,30.496z"/>
<path opacity="0.1" fill="#16002B" d="M28.797,23.169c-5.295,1.217-6.5,11.485-7.87,12.794
	C25.027,32.605,23.976,25.874,28.797,23.169z"/>
<radialGradient id="SVGID_5_" cx="557.1699" cy="55.1035" r="22.0196" gradientTransform="matrix(0.3579 0.4654 -0.5992 0.4619 -147.4389 -260.0267)" gradientUnits="userSpaceOnUse">
	<stop  offset="0" style="stop-color:#FFFFFF;stop-opacity:0.2"/>
	<stop  offset="0.7636" style="stop-color:#FFFFFF;stop-opacity:0"/>
	<a:midPointStop  offset="0" style="stop-color:#FFFFFF;stop-opacity:0.2"/>
	<a:midPointStop  offset="0.5515" style="stop-color:#FFFFFF;stop-opacity:0.2"/>
	<a:midPointStop  offset="0.7636" style="stop-color:#FFFFFF;stop-opacity:0"/>
</radialGradient>
<path fill="url(#SVGID_5_)" d="M27.492,36.09c-3.766,2.904-8.641,2.885-10.887-0.039c-2.251-2.928-1.023-7.65,2.743-10.552
	c3.766-2.905,8.641-2.886,10.893,0.039C32.492,28.464,31.258,33.189,27.492,36.09z"/>
</svg>
