<?xml version="1.0" encoding="utf-8"?>
<!-- Generator: Adobe Illustrator 24.1.2, SVG Export Plug-In . SVG Version: 6.00 Build 0)  -->
<svg version="1.1" id="Layer_1" xmlns="http://www.w3.org/2000/svg" xmlns:xlink="http://www.w3.org/1999/xlink" x="0px" y="0px"
	 width="64px" height="64px" viewBox="0 0 64 64" style="enable-background:new 0 0 64 64;" xml:space="preserve">
<style type="text/css">
	.st0{fill:#CFD8DD;}
	.st1{fill:#E6EBEF;}
	.st2{opacity:0.5;fill:#B3C2C6;}
	.st3{fill:#B3C2C6;}
	.st4{fill:#F2F5F7;}
	.st5{fill-rule:evenodd;clip-rule:evenodd;fill:#E81C27;}
	.st6{fill:#7E898C;}
	.st7{fill:#A1AFB3;}
</style>
<path class="st0" d="M7,21.8c4.39,3.65,21.84,6.45,21.84,6.45l28.16-8l-8.55-4.56l-10.24-1.7C38.21,13.99,10.72,17.68,7,21.8z"/>
<path class="st1" d="M29.42,64c10.38-2.39,20.95-7.78,20.95-7.78L57,20.25c0,0-15.84,1.89-28.16,8L29.42,64z"/>
<path class="st2" d="M41.5,14.53L28.84,28.25c-1.66-2.92-6.81-5.63-7.51-6.02c-0.31-0.17,0.54-1.5,0.54-1.5
	C18.77,20.67,11.3,20.73,7,21.8C10.38,18.15,41.5,14.53,41.5,14.53z"/>
<path class="st1" d="M42.33,14.32l-19.57,5.44c0,0-12.47,0.05-15.76,2.03c0.47-4.26,31.21-8.39,31.21-8.39L42.33,14.32z"/>
<polygon class="st3" points="28.84,17.52 26.68,17.42 28.75,17.1 35.17,15.51 35.62,15.22 35.37,15.69 "/>
<path class="st4" d="M28.84,28.25c11.46-4.71,28.16-8,28.16-8s-7.1-4.33-7.75-4.45c-0.71-0.14-8.42-0.83-8.42-0.83l-2.38,0.1
	l-2.79,0.64l-0.39-0.11l-6.36,1.64l-0.33,0.37l-5.59,1.73c0,0-1.75,2.19-1.31,2.47C28.32,25.99,28.84,28.25,28.84,28.25z"/>
<polygon class="st3" points="57,20.25 46.8,31.89 41.5,41.48 50.37,56.22 "/>
<path class="st4" d="M7,21.8l6.41,35.88C22.04,60.49,29.42,64,29.42,64s2.65-24.52-0.58-35.75C28.84,28.25,20.23,22.69,7,21.8z"/>
<path class="st5" d="M24.08,53.85c-0.36-1.65,1.59-0.81,1.61-2.33c-1.68-0.49-2.02-2.13-2.75-3.42c0.38-0.48,1.08-0.54,1.37-1.15
	c-1.69-0.81-2.13-2.36-2.56-3.58c0.61-0.25,0.96-0.85,1.59-1.07c-1.33-0.7-1.97-1.98-2.53-3.34c0.09-0.72,0.51-1.02,0.92-1.33
	c-1.58-1.12-3.32-4.58-3.32-4.58s-1.06,2.41-2.51,2.4c0.52,0.65,1.05,1.31,1.32,2.17c-0.28,1.04-0.67,1.94-1.95,1.65
	c0.75,0.74,1.27,1.66,2,2.42c-0.17,1-0.28,2.34-1.93,1.9c0.46,0.89,1.23,1.51,1.77,2.33c-0.5,0.83-0.46,2.35-2.18,1.57
	c0.39,1.67,2.31,2.28,2.31,3.8l-3.49-1.31l0.22,1.88l13.83,5.2l-0.22-1.89L24.08,53.85z M21.33,41.58
	c-0.45,0.83-3.35-0.26-4.04-1.52C17.54,39.32,20.88,40.57,21.33,41.58z M22.06,46.09c-0.49,0.78-3.77-0.47-4.48-1.68
	C17.8,43.54,21.61,44.97,22.06,46.09z M22.64,49.9c-0.71,0.74-3.88-0.52-4.77-1.79C18.17,46.97,22.03,48.42,22.64,49.9z
	 M18.27,50.41c0.62-0.02,3.8,1.17,4.48,1.68c0.05,0.44,0.1,0.88,0.15,1.32l-4.48-1.68C18.37,51.28,18.32,50.85,18.27,50.41z"/>
<polygon class="st1" points="57,20.25 47.04,32.09 42.11,41.66 50.37,56.22 "/>
<polygon class="st3" points="29.42,64 48.45,37.28 41.13,32.97 28.84,28.25 "/>
<polygon class="st1" points="29.42,64 47.57,37.41 41.17,33.32 28.84,28.25 "/>
<path class="st6" d="M45.56,31.33c0,0.38-0.3,0.68-0.67,0.68c-0.37,0-0.67-0.3-0.67-0.68c0-0.38,0.3-0.68,0.67-0.68
	C45.26,30.65,45.56,30.95,45.56,31.33z"/>
<path class="st7" d="M45.37,31.34c-0.04,0.57-1.06,0.47-1.02-0.11c0.02-0.24,2.41-22.64,2.41-22.64c0.14-1.32-0.73-2.53-2.02-2.81
	L22.97,1.05C22.74,1,22.5,1.05,22.3,1.18c-0.2,0.14-0.33,0.34-0.38,0.58l-2.66,14.99l-1.13,0.26l2.78-15.43
	c0.09-0.52,0.38-0.96,0.81-1.26c0.43-0.29,0.95-0.39,1.46-0.28l21.77,4.72c1.81,0.39,3.02,2.08,2.82,3.93
	C47.78,8.69,45.38,31.14,45.37,31.34z"/>
</svg>
