<?xml version="1.0" encoding="utf-8"?>
<!-- Generator: Adobe Illustrator 15.0.0, SVG Export Plug-In . SVG Version: 6.00 Build 0)  -->
<!DOCTYPE svg PUBLIC "-//W3C//DTD SVG 1.1//EN" "http://www.w3.org/Graphics/SVG/1.1/DTD/svg11.dtd" [
	<!ENTITY ns_flows "http://ns.adobe.com/Flows/1.0/">
	<!ENTITY ns_extend "http://ns.adobe.com/Extensibility/1.0/">
	<!ENTITY ns_ai "http://ns.adobe.com/AdobeIllustrator/10.0/">
	<!ENTITY ns_graphs "http://ns.adobe.com/Graphs/1.0/">
]>
<svg version="1.1" id="Layer_1" xmlns:x="&ns_extend;" xmlns:i="&ns_ai;" xmlns:graph="&ns_graphs;"
	 xmlns="http://www.w3.org/2000/svg" xmlns:xlink="http://www.w3.org/1999/xlink" xmlns:a="http://ns.adobe.com/AdobeSVGViewerExtensions/3.0/"
	 x="0px" y="0px" width="64px" height="64px" viewBox="0 0 64 64" enable-background="new 0 0 64 64" xml:space="preserve">
<path fill="#302C3B" d="M43.181,11.536c-7.52,0.973-14.285-2.148-20.608,0.686c-7.114,3.191-10.458,19.25-18.498,19.25v5.722
	c10.985,0,12.568-15.883,19.813-19.62c6.166-3.187,11.213,0.729,19.527-0.89c6.168-1.202,7.427,20.679,16.719,20.679v-5.725
	C54.3,31.638,52.95,10.268,43.181,11.536z"/>
<path opacity="0.5" fill="#E6EBEF" d="M60.675,38.404c0-5.771-3.189-11.402-11.947-11.402H15.277
	c-8.758,0-11.948,5.631-11.948,11.402c0,5.095,2.125,12.847,10.752,13.471c9.557,0.692,11.215-3.021,13.14-6.131
	c1.64-2.638,7.925-2.638,9.561,0c1.925,3.11,3.583,6.823,13.14,6.131C58.548,51.251,60.675,43.499,60.675,38.404z"/>
<path opacity="0.5" fill="#E6EBEF" d="M48.728,27.002H15.277c-8.758,0-11.948,5.631-11.948,11.402
	c0,5.095,2.125,12.847,10.752,13.471c7.646,0.553,10.233-1.308,11.95-4.117c-1.296,1.048-6.835,0.638-10.158,0.396
	c-6.04-0.436-7.527-5.861-7.527-9.43c0-4.039,2.233-7.982,8.365-7.982h30.583c6.131,0,8.36,3.943,8.36,7.982
	c0,3.568-1.487,8.994-7.524,9.43c-3.324,0.242-8.865,0.652-10.159-0.396c1.715,2.81,4.302,4.67,11.95,4.117
	c8.627-0.624,10.754-8.376,10.754-13.471C60.675,32.633,57.485,27.002,48.728,27.002z"/>
<path fill="#BEC3CF" d="M48.149,52.98c-0.002,0-0.002,0-0.002,0c-7.864,0-10.162-2.858-11.844-5.769
	c-1.793-3.131-6.979-2.803-8.605,0c-1.807,3.126-4.282,6.38-13.717,5.696c-8.736-0.63-11.848-7.907-11.848-14.504
	c0-6.015,3.454-12.44,13.144-12.44h33.451c9.689,0,13.139,6.425,13.139,12.44c0,6.597-3.111,13.874-11.846,14.504
	C49.362,52.956,48.739,52.98,48.149,52.98z M38.439,46.279c1.632,2.825,3.319,4.622,9.708,4.622c0,0,0,0,0.002,0
	c0.527,0,1.084-0.02,1.674-0.061c9.191-0.668,9.656-10.477,9.656-12.437c0-3.115-1.049-10.361-10.752-10.361H15.277
	c-9.704,0-10.752,7.246-10.752,10.361c0,1.96,0.465,11.769,9.656,12.437c7.731,0.561,9.615-1.502,11.381-4.562
	C28.306,41.516,35.677,41.5,38.439,46.279z"/>
<path fill="#BEC3CF" d="M3.775,44.723c0,0-1.688-1.008-2.05-1.443c-1.444-1.741-1.444-8.106,0-9.848
	c0.362-0.435,2.05-1.444,2.05-1.444V44.723z"/>
<rect y="34.536" fill="#302C3B" width="1.388" height="7.639"/>
<rect x="2.75" y="34.536" fill="#302C3B" width="0.846" height="7.639"/>
<path fill="#BEC3CF" d="M60.228,44.723c0,0,1.686-1.008,2.05-1.443c1.443-1.741,1.443-8.106,0-9.848
	c-0.364-0.435-2.05-1.444-2.05-1.444V44.723z"/>
<rect x="62.614" y="34.536" fill="#302C3B" width="1.386" height="7.639"/>
<rect x="60.406" y="34.536" fill="#302C3B" width="0.846" height="7.639"/>
</svg>
