<?xml version="1.0" encoding="utf-8"?>
<!-- Generator: Adobe Illustrator 24.1.2, SVG Export Plug-In . SVG Version: 6.00 Build 0)  -->
<svg version="1.1" id="Layer_1" xmlns="http://www.w3.org/2000/svg" xmlns:xlink="http://www.w3.org/1999/xlink" x="0px" y="0px"
	 width="64px" height="64px" viewBox="0 0 64 64" style="enable-background:new 0 0 64 64;" xml:space="preserve">
<style type="text/css">
	.st0{fill:url(#SVGID_1_);}
	.st1{fill:#1A1626;}
	.st2{fill:#DE8762;}
	.st3{fill:url(#SVGID_2_);}
	.st4{fill:url(#SVGID_3_);}
	.st5{fill:url(#SVGID_4_);}
	.st6{fill:url(#SVGID_5_);}
	.st7{fill:url(#SVGID_6_);}
	.st8{fill:url(#SVGID_7_);}
	.st9{opacity:0.5;fill:url(#SVGID_8_);enable-background:new    ;}
	.st10{opacity:0.5;fill:url(#SVGID_9_);enable-background:new    ;}
</style>
<linearGradient id="SVGID_1_" gradientUnits="userSpaceOnUse" x1="-161.9998" y1="1108" x2="-161.9998" y2="1168" gradientTransform="matrix(1 0 0 -1 194 1170)">
	<stop  offset="0" style="stop-color:#FF9500"/>
	<stop  offset="0.1919" style="stop-color:#FFAD00"/>
	<stop  offset="0.5455" style="stop-color:#FFD500"/>
	<stop  offset="0.8272" style="stop-color:#FFED00"/>
	<stop  offset="1" style="stop-color:#FFF600"/>
</linearGradient>
<circle class="st0" cx="32" cy="32" r="30"/>
<path id="Oval_48_" class="st1" d="M20,21c2.21,0,4,2.24,4,5c0,2.76-1.79,5-4,5c-2.21,0-4-2.24-4-5C16,23.24,17.79,21,20,21z"/>
<path id="Oval_47_" class="st1" d="M44,21c2.21,0,4,2.24,4,5c0,2.76-1.79,5-4,5c-2.21,0-4-2.24-4-5C40,23.24,41.79,21,44,21z"/>
<path class="st1" d="M42.69,49.51c-2.27-1.72-3.29-7.73-10.69-7.73c-7.39,0-8.42,6.02-10.69,7.73c0.08,0.42,1.42,0.61,1.42,0.61
	s-0.08,0.3-0.02,0.63c0,0,1.48,0.27,2.66-0.09c-0.11,0.49-0.06,0.59-0.06,0.59c1.02,0.13,2.72-0.56,2.72-0.56s-0.08,0.34-0.03,0.67
	c0.93-0.08,1.85-0.73,2.58-1.48c0,0,0.5,0.33,0.58,0.25C31.73,49.49,32,48.5,32,48.5s0.27,0.99,0.83,1.62
	c0.08,0.08,0.58-0.25,0.58-0.25c0.73,0.75,1.65,1.4,2.58,1.48c0.05-0.32-0.03-0.67-0.03-0.67s1.71,0.69,2.73,0.56
	c0,0,0.05-0.11-0.06-0.59c1.18,0.36,2.66,0.09,2.66,0.09c0.06-0.33-0.02-0.63-0.02-0.63S42.61,49.93,42.69,49.51z"/>
<path class="st1" d="M22.63,7.44c-0.64,3.58-5.97,4.88-3.37,9.15C24.99,14.7,24.57,9.48,22.63,7.44z"/>
<path class="st1" d="M6.2,12.68c2.32,1.67,5.92,0.13,6.88,3.54c-2.85-0.03-6.49-0.18-6.49-0.18S6.01,14.66,6.2,12.68z"/>
<path class="st1" d="M8.39,10.59c2.23,2.41,6.82,1.36,7,5.52C10.21,16.87,7.96,12.84,8.39,10.59z"/>
<path class="st1" d="M11.86,8.67c1.26,2.9,5.99,3.12,4.67,7.13C11.34,15.15,10.65,10.7,11.86,8.67z"/>
<path class="st1" d="M15.04,7.42c0.72,3.4,5.85,4.44,3.5,8.62C13,14.45,13.25,9.45,15.04,7.42z"/>
<path class="st1" d="M19.04,6.87c-0.27,3.53,4.5,5.67,0.96,9.31C14.99,13.41,16.68,8.5,19.04,6.87z"/>
<path class="st1" d="M26.92,10.77c-2.24,2.45-6.83,1.45-7.01,5.61C25.08,17.08,27.34,13.01,26.92,10.77z"/>
<path class="st1" d="M28.74,13.43c-3.11,1.59-6.95-0.77-8.87,3.06c3.24,0.79,8.42,0.79,8.42,0.79S28.92,15.8,28.74,13.43z"/>
<path class="st1" d="M44.7,16.59c2.6-4.28-2.73-5.57-3.37-9.15C39.39,9.48,38.97,14.7,44.7,16.59z"/>
<path class="st1" d="M57.37,16.04c0,0-3.64,0.14-6.49,0.18c0.96-3.41,4.56-1.87,6.88-3.54C57.95,14.66,57.37,16.04,57.37,16.04z"/>
<path class="st1" d="M48.57,16.1c0.18-4.16,4.76-3.1,7-5.52C56,12.84,53.75,16.87,48.57,16.1z"/>
<path class="st1" d="M47.43,15.8c-1.32-4.01,3.41-4.23,4.67-7.13C53.32,10.7,52.62,15.15,47.43,15.8z"/>
<path class="st1" d="M45.42,16.04c-2.35-4.19,2.78-5.22,3.5-8.62C50.71,9.45,50.96,14.45,45.42,16.04z"/>
<path class="st1" d="M43.97,16.19c-3.54-3.64,1.23-5.79,0.96-9.31C47.28,8.5,48.98,13.41,43.97,16.19z"/>
<path class="st1" d="M44.06,16.38c-0.19-4.16-4.77-3.17-7.02-5.61C36.62,13.01,38.88,17.08,44.06,16.38z"/>
<path class="st1" d="M35.67,17.28c0,0,5.19,0,8.42-0.79c-1.91-3.83-5.76-1.47-8.87-3.06C35.04,15.8,35.67,17.28,35.67,17.28z"/>
<path class="st2" d="M37.18,43.98c-2.33,1.22-2.32,2.29-5.18,2.29c-2.86,0-2.85-1.08-5.19-2.29C22.44,41.7,41.56,41.7,37.18,43.98z"
	/>
<radialGradient id="SVGID_2_" cx="-59.617" cy="1182.3969" r="7.7446" gradientTransform="matrix(0.8697 0 0 -1.0808 93.0248 1312.9227)" gradientUnits="userSpaceOnUse">
	<stop  offset="0" style="stop-color:#FFA680"/>
	<stop  offset="0.3723" style="stop-color:#F79E78"/>
	<stop  offset="0.9622" style="stop-color:#E08964"/>
	<stop  offset="1" style="stop-color:#DE8762"/>
</radialGradient>
<path class="st3" d="M42.79,40.85c0.15,2.36-1.95,4.29-4.35,4.29c-1.51,0-1.5-0.99-3.14-0.17c-2.15,1.06,1.15-14.74,1.15-14.74
	C37.98,36.9,42.47,36,42.79,40.85z"/>
<radialGradient id="SVGID_3_" cx="-200.5216" cy="1182.3969" r="7.7446" gradientTransform="matrix(-0.8697 0 0 -1.0808 -151.5522 1312.9227)" gradientUnits="userSpaceOnUse">
	<stop  offset="0" style="stop-color:#FFA680"/>
	<stop  offset="0.3723" style="stop-color:#F79E78"/>
	<stop  offset="0.9622" style="stop-color:#E08964"/>
	<stop  offset="1" style="stop-color:#DE8762"/>
</radialGradient>
<path class="st4" d="M21.21,40.85c-0.15,2.36,1.95,4.29,4.35,4.29c1.51,0,1.5-0.99,3.14-0.17c2.15,1.06-1.15-14.74-1.15-14.74
	C26.02,36.9,21.53,36,21.21,40.85z"/>
<linearGradient id="SVGID_4_" gradientUnits="userSpaceOnUse" x1="-147.7546" y1="1004.2439" x2="-148.1461" y2="1002.9132" gradientTransform="matrix(0.9956 0.0936 0.0777 -0.8265 96.1423 887.2621)">
	<stop  offset="0" style="stop-color:#874A37"/>
	<stop  offset="0.0305" style="stop-color:#8E4F3A"/>
	<stop  offset="0.1858" style="stop-color:#AB6349"/>
	<stop  offset="0.3514" style="stop-color:#C17354"/>
	<stop  offset="0.5299" style="stop-color:#D17E5C"/>
	<stop  offset="0.7306" style="stop-color:#DB8561"/>
	<stop  offset="1" style="stop-color:#DE8762"/>
</linearGradient>
<path class="st5" d="M24.96,43.27c-0.77,0.26,0.22,1.85,1.97,1.12c1.03-0.43,2.04,0.77,1.81,0.29
	C28.21,43.58,26.69,42.68,24.96,43.27z"/>
<linearGradient id="SVGID_5_" gradientUnits="userSpaceOnUse" x1="1445.4271" y1="1184.6683" x2="1445.0356" y2="1183.3378" gradientTransform="matrix(-0.9956 0.0936 -0.0777 -0.8265 1568.0488 887.2621)">
	<stop  offset="0" style="stop-color:#874A37"/>
	<stop  offset="0.0305" style="stop-color:#8E4F3A"/>
	<stop  offset="0.1858" style="stop-color:#AB6349"/>
	<stop  offset="0.3514" style="stop-color:#C17354"/>
	<stop  offset="0.5299" style="stop-color:#D17E5C"/>
	<stop  offset="0.7306" style="stop-color:#DB8561"/>
	<stop  offset="1" style="stop-color:#DE8762"/>
</linearGradient>
<path class="st6" d="M39.04,43.27c0.77,0.26-0.22,1.85-1.97,1.12c-1.03-0.43-2.04,0.77-1.81,0.29
	C35.79,43.58,37.31,42.68,39.04,43.27z"/>
<radialGradient id="SVGID_6_" cx="-179.2405" cy="1380.7214" r="5.6214" gradientTransform="matrix(0.8357 0 0 -2.7466 181.8293 3821.385)" gradientUnits="userSpaceOnUse">
	<stop  offset="0" style="stop-color:#FFA680"/>
	<stop  offset="0.3367" style="stop-color:#FAA17B"/>
	<stop  offset="0.7442" style="stop-color:#EB936E"/>
	<stop  offset="1" style="stop-color:#DE8762"/>
</radialGradient>
<path class="st7" d="M35.02,23.3c-1.19-1.27-4.84-1.27-6.04,0c-2.69,2.86-4.53,14.3-2.32,18.59c2.01,3.9,8.67,3.9,10.68,0
	C39.54,37.61,37.71,26.16,35.02,23.3z"/>
<radialGradient id="SVGID_7_" cx="-192.248" cy="1097.7207" r="7.1026" gradientTransform="matrix(0.8222 0 0 -0.8632 190.0654 986.5575)" gradientUnits="userSpaceOnUse">
	<stop  offset="0" style="stop-color:#FFA680"/>
	<stop  offset="0.9" style="stop-color:#FFA680;stop-opacity:0"/>
</radialGradient>
<path class="st8" d="M32,32.87c3.22,0,5.84,2.75,5.84,6.13c0,3.39-2.61,6.13-5.84,6.13s-5.84-2.75-5.84-6.13
	C26.16,35.62,28.78,32.87,32,32.87z"/>
<linearGradient id="SVGID_8_" gradientUnits="userSpaceOnUse" x1="-724.6836" y1="1656.7421" x2="-724.6836" y2="1638.339" gradientTransform="matrix(1 0 0 1 772.4707 -1621.7856)">
	<stop  offset="0" style="stop-color:#FFFFFF;stop-opacity:0"/>
	<stop  offset="1" style="stop-color:#FFFFFF"/>
</linearGradient>
<path class="st9" d="M36.87,19.73c-2.23,2.19,0.66,11.11,5.75,13.91c2.6,1.43,11.03,2.53,13.73-1.33c2.68-3.81,4.37-11.6,1.98-13.76
	C55.06,15.58,40.78,15.89,36.87,19.73z"/>
<linearGradient id="SVGID_9_" gradientUnits="userSpaceOnUse" x1="-558.8344" y1="1657.4412" x2="-558.8344" y2="1639.0374" gradientTransform="matrix(-1 0 0 1 -542.6221 -1622.4146)">
	<stop  offset="0" style="stop-color:#FFFFFF;stop-opacity:0"/>
	<stop  offset="1" style="stop-color:#FFFFFF"/>
</linearGradient>
<path class="st10" d="M27.13,19.73c2.23,2.19-0.66,11.11-5.75,13.92c-2.6,1.43-11.03,2.52-13.73-1.34
	c-2.68-3.81-4.37-11.6-1.99-13.76C8.94,15.58,23.21,15.89,27.13,19.73z"/>
<path class="st1" d="M63.8,17.1c-2.15-0.08-4.98-1.65-11.01-2c-8.31-0.5-11.06,0.87-16.24,1.74c-1.6,0.27-3.1,0.41-4.55,0.4
	c-1.45,0.01-2.94-0.13-4.55-0.4c-5.17-0.87-7.94-2.23-16.24-1.74c-6.03,0.35-8.87,1.92-11.02,2c-0.13,1.09-0.38,2.72,0,3.83
	c0.29,0.87,1.1,1.08,1.62,1.68C4.48,25.67,2.98,36.1,12.88,36.9c9.28,0.75,13.4-3.08,15.68-9.36c0.64-1.77,1.71-4.84,3.44-4.84
	c1.73,0,2.79,3.07,3.43,4.84c2.28,6.27,6.4,10.11,15.68,9.36c9.9-0.81,8.4-11.24,11.05-14.29c0.53-0.6,1.34-0.81,1.63-1.68
	C64.17,19.82,63.93,18.19,63.8,17.1z M21.38,33.64c-2.6,1.43-11.03,2.52-13.73-1.33c-2.68-3.81-4.37-11.6-1.99-13.76
	c3.27-2.96,17.55-2.65,21.47,1.18C29.37,21.92,26.47,30.83,21.38,33.64z M56.35,32.3c-2.7,3.86-11.13,2.76-13.73,1.33
	c-5.09-2.8-7.99-11.72-5.75-13.91c3.92-3.84,18.2-4.15,21.47-1.19C60.72,20.71,59.02,28.49,56.35,32.3z"/>
</svg>
