<?xml version="1.0" encoding="utf-8"?>
<!-- Generator: Adobe Illustrator 15.0.0, SVG Export Plug-In . SVG Version: 6.00 Build 0)  -->
<!DOCTYPE svg PUBLIC "-//W3C//DTD SVG 1.1//EN" "http://www.w3.org/Graphics/SVG/1.1/DTD/svg11.dtd" [
	<!ENTITY ns_flows "http://ns.adobe.com/Flows/1.0/">
	<!ENTITY ns_extend "http://ns.adobe.com/Extensibility/1.0/">
	<!ENTITY ns_ai "http://ns.adobe.com/AdobeIllustrator/10.0/">
	<!ENTITY ns_graphs "http://ns.adobe.com/Graphs/1.0/">
]>
<svg version="1.1" id="Layer_1" xmlns:x="&ns_extend;" xmlns:i="&ns_ai;" xmlns:graph="&ns_graphs;"
	 xmlns="http://www.w3.org/2000/svg" xmlns:xlink="http://www.w3.org/1999/xlink" xmlns:a="http://ns.adobe.com/AdobeSVGViewerExtensions/3.0/"
	 x="0px" y="0px" width="64px" height="64px" viewBox="0 0 64 64" enable-background="new 0 0 64 64" xml:space="preserve">
<linearGradient id="SVGID_1_" gradientUnits="userSpaceOnUse" x1="-785.2905" y1="1433.1328" x2="-779.4404" y2="1433.1328" gradientTransform="matrix(0.866 -0.5 0.3558 0.6163 180.5368 -1231.6509)">
	<stop  offset="0" style="stop-color:#1A1626"/>
	<stop  offset="0.7273" style="stop-color:#4E5E67"/>
	<a:midPointStop  offset="0" style="stop-color:#1A1626"/>
	<a:midPointStop  offset="0.5" style="stop-color:#1A1626"/>
	<a:midPointStop  offset="0.7273" style="stop-color:#4E5E67"/>
</linearGradient>
<path fill="url(#SVGID_1_)" d="M21.25,51.356L10.118,32.077c-0.627-1.085-5.689,1.838-5.064,2.924L16.186,54.28L21.25,51.356z"/>
<path opacity="0.2" fill="#FFFFFF" d="M10.118,32.077c-0.129-0.226-0.455-0.277-0.883-0.208l-3.041,5.104l0.932,1.613l3.428-5.753
	L10.118,32.077z"/>
<polygon opacity="0.2" fill="#FFFFFF" points="8.487,40.941 9.415,42.556 12.848,36.803 11.915,35.19 "/>
<path opacity="0.3" fill="#FFFFFF" d="M11.256,34.051l-5.941,0.082c-0.271,0.335-0.391,0.641-0.262,0.868l0.439,0.756l6.695-0.093
	L11.256,34.051z"/>
<polygon opacity="0.3" fill="#FFFFFF" points="6.852,38.113 7.784,39.726 14.481,39.632 13.547,38.02 "/>
<polygon opacity="0.2" fill="#FFFFFF" points="10.639,44.669 11.569,46.282 14.999,40.529 14.067,38.915 "/>
<polygon opacity="0.3" fill="#FFFFFF" points="9.004,41.84 9.936,43.452 16.631,43.358 15.7,41.745 "/>
<polygon opacity="0.2" fill="#FFFFFF" points="12.79,48.396 13.721,50.009 17.149,44.257 16.219,42.645 "/>
<polygon opacity="0.3" fill="#FFFFFF" points="11.157,45.566 12.088,47.181 18.786,47.084 17.852,45.473 "/>
<polygon opacity="0.2" fill="#FFFFFF" points="14.942,52.124 15.872,53.737 19.301,47.984 18.372,46.371 "/>
<polygon opacity="0.3" fill="#FFFFFF" points="13.309,49.295 14.239,50.907 20.936,50.813 20.004,49.199 "/>
<path fill="#5F727D" d="M54.275,52.715C51.59,51.422,41,47.98,41,47.98v-6.068H23v6.098c0,0-10.512,3.42-13.215,4.708
	C5.872,54.583,5,57.14,5,59.56c0,3.254,54,3.254,54,0C59,57.144,58.18,54.587,54.275,52.715z"/>
<linearGradient id="SVGID_2_" gradientUnits="userSpaceOnUse" x1="32.0005" y1="59.5596" x2="32.0005" y2="46.9121">
	<stop  offset="0" style="stop-color:#E81C27"/>
	<stop  offset="0.1221" style="stop-color:#DC1923"/>
	<stop  offset="0.3426" style="stop-color:#BC1118"/>
	<stop  offset="0.6342" style="stop-color:#890405"/>
	<stop  offset="0.7152" style="stop-color:#7A0000"/>
	<a:midPointStop  offset="0" style="stop-color:#E81C27"/>
	<a:midPointStop  offset="0.5763" style="stop-color:#E81C27"/>
	<a:midPointStop  offset="0.7152" style="stop-color:#7A0000"/>
</linearGradient>
<path fill="url(#SVGID_2_)" d="M41,47.98v-1.068H23v1.098c0,0,5.338,11.552,9,11.55C35.666,59.558,41,47.98,41,47.98z"/>
<path fill="#1A1626" d="M23,48.01c0,0-9.998,2.207-16.521,5.274c0,0,2.078,3.426,3.561,7.77c5.732,0.702,15.508,1.014,24.824,0.934
	C32.11,59.502,26.131,52.808,23,48.01z"/>
<linearGradient id="SVGID_3_" gradientUnits="userSpaceOnUse" x1="3399.916" y1="63.0117" x2="3399.916" y2="47.9804" gradientTransform="matrix(-1 0 0 1 3443.2441 0)">
	<stop  offset="0" style="stop-color:#404D54"/>
	<stop  offset="0.1685" style="stop-color:#353D47"/>
	<stop  offset="0.4588" style="stop-color:#262735"/>
	<stop  offset="0.7401" style="stop-color:#1D1A2A"/>
	<stop  offset="1" style="stop-color:#1A1626"/>
	<a:midPointStop  offset="0" style="stop-color:#404D54"/>
	<a:midPointStop  offset="0.3091" style="stop-color:#404D54"/>
	<a:midPointStop  offset="1" style="stop-color:#1A1626"/>
</linearGradient>
<path fill="url(#SVGID_3_)" d="M41,47.98c0,0,9.996,2.236,16.52,5.304c0,0-2.078,3.426-3.561,7.77
	c-5.732,0.702-15.506,1.014-24.822,0.934C31.891,59.502,37.867,52.778,41,47.98z"/>
<path id="Path_3303_" fill="#916B50" d="M32,9.034c-11.027,0-16.34,8.328-15.676,19.908c0.133,2.33,1.582,9.93,2.947,12.656
	c1.398,2.789,6.074,7.09,8.938,7.98c1.811,0.561,5.773,0.561,7.582,0c2.865-0.891,7.543-5.191,8.939-7.98
	c1.369-2.727,2.814-10.324,2.945-12.656C48.344,17.362,43.031,9.034,32,9.034z"/>
<path id="Path_3302_" fill="#5E4431" d="M43.982,24.544c-2.521-1.336-7.348-1.4-9.146-0.469c-0.387,0.178-0.131,1.441,0.193,1.322
	c2.504-0.99,6.547-1.012,8.893,0.084C44.234,25.624,44.365,24.729,43.982,24.544z"/>
<path id="Path_3301_" fill="#5E4431" d="M20.02,24.544c2.521-1.336,7.346-1.4,9.146-0.469c0.385,0.178,0.131,1.441-0.193,1.322
	c-2.51-0.99-6.547-1.012-8.895,0.084C19.768,25.624,19.639,24.729,20.02,24.544z"/>
<path id="Path_3300_" fill="#FFFFFF" d="M29.547,29.085c0.094,0.73-0.402,1.594-1.773,2.242c-0.871,0.412-2.686,0.896-5.066-0.107
	c-1.066-0.449-2.107-1.848-2.014-2.623C21.985,26.167,28.338,25.812,29.547,29.085z"/>
<linearGradient id="Oval_1_" gradientUnits="userSpaceOnUse" x1="-424.5815" y1="477.4658" x2="-424.5815" y2="478.2236" gradientTransform="matrix(6.5701 0 0 -6.5701 2814.7805 3168.5281)">
	<stop  offset="0" style="stop-color:#A6694A"/>
	<stop  offset="1" style="stop-color:#4F2A1E"/>
	<a:midPointStop  offset="0" style="stop-color:#A6694A"/>
	<a:midPointStop  offset="0.5" style="stop-color:#A6694A"/>
	<a:midPointStop  offset="1" style="stop-color:#4F2A1E"/>
</linearGradient>
<circle id="Oval_508_" fill="url(#Oval_1_)" cx="25.237" cy="29.038" r="2.492"/>
<path id="Path_3299_" fill="#1A1626" d="M23.989,28.991c0,1.725,2.496,1.725,2.496,0C26.485,27.392,23.989,27.392,23.989,28.991z"/>
<path id="Path_3298_" fill="#AB968C" d="M23.61,28.292c0,0.723,1.045,0.723,1.045,0C24.655,27.624,23.61,27.624,23.61,28.292z"/>
<path id="Path_3297_" fill="#69452D" d="M29.559,29.181c-1.014-3.25-7.926-2.77-8.865-0.584
	C21.042,25.798,28.696,25.058,29.559,29.181z"/>
<path id="Path_3296_" fill="#FFFFFF" d="M34.455,29.085c-0.094,0.73,0.4,1.594,1.773,2.242c0.871,0.412,2.684,0.896,5.064-0.107
	c1.07-0.449,2.109-1.848,2.016-2.623C42.018,26.167,35.662,25.812,34.455,29.085z"/>
<linearGradient id="Oval_2_" gradientUnits="userSpaceOnUse" x1="-425.23" y1="477.4658" x2="-425.23" y2="478.2236" gradientTransform="matrix(6.5701 0 0 -6.5701 2832.511 3168.5281)">
	<stop  offset="0" style="stop-color:#A6694A"/>
	<stop  offset="1" style="stop-color:#4F2A1E"/>
	<a:midPointStop  offset="0" style="stop-color:#A6694A"/>
	<a:midPointStop  offset="0.5" style="stop-color:#A6694A"/>
	<a:midPointStop  offset="1" style="stop-color:#4F2A1E"/>
</linearGradient>
<circle id="Oval_507_" fill="url(#Oval_2_)" cx="38.709" cy="29.038" r="2.492"/>
<path id="Path_3295_" fill="#1A1626" d="M37.463,28.991c0,1.725,2.496,1.725,2.496,0C39.959,27.392,37.463,27.392,37.463,28.991z"/>
<path id="Path_3294_" fill="#AB968C" d="M37.082,28.292c0,0.723,1.047,0.723,1.047,0C38.129,27.624,37.082,27.624,37.082,28.292z"/>
<path id="Path_3293_" fill="#69452D" d="M34.443,29.181c1.012-3.248,7.92-2.783,8.865-0.584
	C42.957,25.798,35.307,25.058,34.443,29.181z"/>
<path fill="#1A1626" d="M15.301,32.438c0,0,0.225,1.989,2.369,8.365c0.615,1.831,6.9,10.469,14.33,10.469
	c7.429,0,13.714-8.638,14.33-10.469c2.143-6.376,2.367-8.365,2.367-8.365C48.697,32.438,50.176,9,32,9
	C13.825,9,15.303,32.438,15.301,32.438z M32.002,20.579c11.919-0.012,15.248,6.171,14.019,10.347
	c-1.336,4.992-10.684,1.377-14.019,1.377c-3.34,0-12.688,3.615-14.025-1.377C16.75,26.746,20.079,20.567,32.002,20.579z"/>
<linearGradient id="SVGID_4_" gradientUnits="userSpaceOnUse" x1="16.3013" y1="40.584" x2="33.6328" y2="40.584">
	<stop  offset="0" style="stop-color:#1A1626"/>
	<stop  offset="0.7273" style="stop-color:#4E5E67"/>
	<a:midPointStop  offset="0" style="stop-color:#1A1626"/>
	<a:midPointStop  offset="0.5" style="stop-color:#1A1626"/>
	<a:midPointStop  offset="0.7273" style="stop-color:#4E5E67"/>
</linearGradient>
<path fill="url(#SVGID_4_)" d="M17.977,30.926c0.656,5.53,15.156,2.874,15.156,2.874l-4.781,2.781l5.281,1.844l-3.218,2.159
	l1.781,1.972l-0.813,1.4l1.031,1.094l-1.25,2.281L32,50.272c-7.43,0-12.715-7.638-13.33-9.469c-2.145-6.376-2.369-8.365-2.369-8.365
	S17.944,30.646,17.977,30.926z"/>
<linearGradient id="SVGID_5_" gradientUnits="userSpaceOnUse" x1="32.0005" y1="27.2373" x2="32.0005" y2="9">
	<stop  offset="0" style="stop-color:#E81C27"/>
	<stop  offset="0.1221" style="stop-color:#DC1923"/>
	<stop  offset="0.3426" style="stop-color:#BC1118"/>
	<stop  offset="0.6342" style="stop-color:#890405"/>
	<stop  offset="0.7152" style="stop-color:#7A0000"/>
	<a:midPointStop  offset="0" style="stop-color:#E81C27"/>
	<a:midPointStop  offset="0.5763" style="stop-color:#E81C27"/>
	<a:midPointStop  offset="0.7152" style="stop-color:#7A0000"/>
</linearGradient>
<path fill="url(#SVGID_5_)" d="M31.999,20.579c8.679-0.009,16.511,6.658,16.511,6.658C47.773,20.333,44.641,9,32,9
	c-12.643,0-15.773,11.333-16.51,18.237C15.491,27.237,23.321,20.57,31.999,20.579z"/>
<path fill="#5F727D" d="M32,11.272c-10.254,0-18.887,12.208-16.699,21.166C16.573,23.104,27.413,15.945,32,13.987
	c4.585,1.958,15.425,9.117,16.697,18.451C50.885,23.48,42.252,11.272,32,11.272z"/>
<path fill="#1A1626" d="M45.957,12.272C44.217,8.737,35.711,4,32,4c-3.711,0-12.219,4.737-13.959,8.272
	c-0.977,1.983-5.152,13.955-2.74,20.166C15.004,23.382,26.643,14.675,32,12.272c5.357,2.402,16.994,11.109,16.697,20.166
	C51.109,26.228,46.934,14.256,45.957,12.272z"/>
<linearGradient id="SVGID_6_" gradientUnits="userSpaceOnUse" x1="14.5928" y1="18.4004" x2="32.2583" y2="18.4004">
	<stop  offset="0" style="stop-color:#1A1626"/>
	<stop  offset="0.7273" style="stop-color:#4E5E67"/>
	<a:midPointStop  offset="0" style="stop-color:#1A1626"/>
	<a:midPointStop  offset="0.5" style="stop-color:#1A1626"/>
	<a:midPointStop  offset="0.7273" style="stop-color:#4E5E67"/>
</linearGradient>
<path fill="url(#SVGID_6_)" d="M30.68,7.737l1.578-1.469l-1.047-0.813L32,4.362c-3.711,0-11.955,4.777-13.695,8.313
	c-0.977,1.983-5.416,13.553-3.004,19.764C15.004,23.382,26.643,13.675,32,11.272l-2.305-0.738l2.391-1.453L30.68,7.737z"/>
</svg>
