<?xml version="1.0" encoding="utf-8"?>
<!-- Generator: Adobe Illustrator 24.1.2, SVG Export Plug-In . SVG Version: 6.00 Build 0)  -->
<svg version="1.1" id="Layer_1" xmlns="http://www.w3.org/2000/svg" xmlns:xlink="http://www.w3.org/1999/xlink" x="0px" y="0px"
	 width="64px" height="64px" viewBox="0 0 64 64" style="enable-background:new 0 0 64 64;" xml:space="preserve">
<style type="text/css">
	.st0{fill:url(#SVGID_1_);}
	.st1{fill:url(#SVGID_2_);}
	.st2{fill:url(#SVGID_3_);}
	.st3{fill:#1A1626;}
	.st4{fill:url(#SVGID_4_);}
	.st5{fill:url(#SVGID_5_);}
	.st6{fill:url(#SVGID_6_);}
</style>
<linearGradient id="SVGID_1_" gradientUnits="userSpaceOnUse" x1="31.9749" y1="62" x2="31.9749" y2="2">
	<stop  offset="0" style="stop-color:#FF9500"/>
	<stop  offset="0.1919" style="stop-color:#FFAD00"/>
	<stop  offset="0.5455" style="stop-color:#FFD500"/>
	<stop  offset="0.8272" style="stop-color:#FFED00"/>
	<stop  offset="1" style="stop-color:#FFF600"/>
</linearGradient>
<path class="st0" d="M31.98,2c16.57,0,30,13.43,30,30c0,16.57-13.43,30-30,30c-16.57,0-30-13.43-30-30C1.98,15.43,15.41,2,31.98,2z"
	/>
<radialGradient id="SVGID_2_" cx="14.1646" cy="35.6777" r="11" gradientUnits="userSpaceOnUse">
	<stop  offset="0" style="stop-color:#FF6399;stop-opacity:0.55"/>
	<stop  offset="0.2023" style="stop-color:#FF6596;stop-opacity:0.4387"/>
	<stop  offset="0.3648" style="stop-color:#FF6C8C;stop-opacity:0.3493"/>
	<stop  offset="0.5135" style="stop-color:#FF767B;stop-opacity:0.2676"/>
	<stop  offset="0.654" style="stop-color:#FF8663;stop-opacity:0.1903"/>
	<stop  offset="0.7887" style="stop-color:#FF9A44;stop-opacity:0.1162"/>
	<stop  offset="0.9173" style="stop-color:#FFB21F;stop-opacity:0.0455"/>
	<stop  offset="1" style="stop-color:#FFC403;stop-opacity:0"/>
</radialGradient>
<circle class="st1" cx="14.16" cy="35.68" r="11"/>
<radialGradient id="SVGID_3_" cx="49.7852" cy="35.6777" r="11" gradientUnits="userSpaceOnUse">
	<stop  offset="0" style="stop-color:#FF6399;stop-opacity:0.55"/>
	<stop  offset="0.2023" style="stop-color:#FF6596;stop-opacity:0.4387"/>
	<stop  offset="0.3648" style="stop-color:#FF6C8C;stop-opacity:0.3493"/>
	<stop  offset="0.5135" style="stop-color:#FF767B;stop-opacity:0.2676"/>
	<stop  offset="0.654" style="stop-color:#FF8663;stop-opacity:0.1903"/>
	<stop  offset="0.7887" style="stop-color:#FF9A44;stop-opacity:0.1162"/>
	<stop  offset="0.9173" style="stop-color:#FFB21F;stop-opacity:0.0455"/>
	<stop  offset="1" style="stop-color:#FFC403;stop-opacity:0"/>
</radialGradient>
<circle class="st2" cx="49.79" cy="35.68" r="11"/>
<path class="st3" d="M40.92,40.27c-5.45,4.66-12.45,4.66-17.89,0c-0.77-0.66-1.23,0.05-0.99,0.61c4.18,9.5,15.69,9.5,19.87,0
	C42.15,40.32,41.7,39.61,40.92,40.27z"/>
<path class="st3" d="M15.71,29.1c4.27-5.52,7.26-5.52,11.53,0c0.65,0.83,1.97,0.21,1.7-0.6c-3.63-10.68-11.3-10.68-14.93,0
	C13.74,29.32,15.06,29.94,15.71,29.1z"/>
<path class="st3" d="M36.71,29.1c4.27-5.52,7.26-5.52,11.53,0c0.65,0.83,1.97,0.21,1.7-0.6c-3.63-10.68-11.3-10.68-14.93,0
	C34.74,29.32,36.06,29.94,36.71,29.1z"/>
<linearGradient id="SVGID_4_" gradientUnits="userSpaceOnUse" x1="37.4265" y1="55.1272" x2="33.9265" y2="73.7996" gradientTransform="matrix(0.9848 0.1736 -0.1736 0.9848 28.9645 -25.2639)">
	<stop  offset="0" style="stop-color:#FF1C23"/>
	<stop  offset="0.4164" style="stop-color:#F31317"/>
	<stop  offset="1" style="stop-color:#DB0100"/>
</linearGradient>
<path class="st4" d="M54.07,39.8c-1.96-4.95-9.87-4.55-10.86,1.06c-0.59,3.37,1.81,6.25,6.55,11.68c1.6,1.84,1.87,1.89,4.01,0.71
	c6.3-3.49,9.55-5.37,10.15-8.74C64.9,38.9,57.6,35.82,54.07,39.8z"/>
<linearGradient id="SVGID_5_" gradientUnits="userSpaceOnUse" x1="-148.805" y1="113.2493" x2="-151.7674" y2="129.054" gradientTransform="matrix(0.9215 -0.3883 0.3883 0.9215 104.5981 -119.9608)">
	<stop  offset="0" style="stop-color:#FF1C23"/>
	<stop  offset="0.4164" style="stop-color:#F31317"/>
	<stop  offset="1" style="stop-color:#DB0100"/>
</linearGradient>
<path class="st5" d="M11.86,46.22c-3.67-2.62-9.1,1.3-7.23,5.74c1.13,2.67,4.16,3.61,10.02,5.3c1.99,0.57,2.2,0.48,3.18-1.34
	c2.88-5.37,4.33-8.2,3.2-10.87C19.15,40.61,12.55,41.77,11.86,46.22z"/>
<linearGradient id="SVGID_6_" gradientUnits="userSpaceOnUse" x1="-61.7874" y1="69.622" x2="-65.6436" y2="90.195" gradientTransform="matrix(0.9856 -0.1687 0.1687 0.9856 72.7986 -79.5225)">
	<stop  offset="0" style="stop-color:#FF1C23"/>
	<stop  offset="0.4164" style="stop-color:#F31317"/>
	<stop  offset="1" style="stop-color:#DB0100"/>
</linearGradient>
<path class="st6" d="M22.97,4.77C19.1,0.36,11.05,3.72,12.1,9.91c0.64,3.72,4.2,5.81,11.13,9.68c2.35,1.31,2.64,1.26,4.42-0.76
	c5.24-5.96,7.91-9.12,7.27-12.84C33.87-0.19,25.16-0.67,22.97,4.77z"/>
</svg>
