<?xml version="1.0" encoding="utf-8"?>
<!-- Generator: Adobe Illustrator 15.0.0, SVG Export Plug-In . SVG Version: 6.00 Build 0)  -->
<!DOCTYPE svg PUBLIC "-//W3C//DTD SVG 1.1//EN" "http://www.w3.org/Graphics/SVG/1.1/DTD/svg11.dtd" [
	<!ENTITY ns_flows "http://ns.adobe.com/Flows/1.0/">
	<!ENTITY ns_extend "http://ns.adobe.com/Extensibility/1.0/">
	<!ENTITY ns_ai "http://ns.adobe.com/AdobeIllustrator/10.0/">
	<!ENTITY ns_graphs "http://ns.adobe.com/Graphs/1.0/">
]>
<svg version="1.1" id="Layer_1" xmlns:x="&ns_extend;" xmlns:i="&ns_ai;" xmlns:graph="&ns_graphs;"
	 xmlns="http://www.w3.org/2000/svg" xmlns:xlink="http://www.w3.org/1999/xlink" xmlns:a="http://ns.adobe.com/AdobeSVGViewerExtensions/3.0/"
	 x="0px" y="0px" width="64px" height="64px" viewBox="0 0 64 64" enable-background="new 0 0 64 64" xml:space="preserve">
<linearGradient id="SVGID_1_" gradientUnits="userSpaceOnUse" x1="-37.0073" y1="113.2852" x2="-34.7907" y2="105.2995" gradientTransform="matrix(0.99 -0.1412 0.1412 0.99 56.2367 -68.3277)">
	<stop  offset="0" style="stop-color:#CFD8DD"/>
	<stop  offset="0.7908" style="stop-color:#EBF1F5"/>
	<stop  offset="1" style="stop-color:#F3F8FC"/>
	<a:midPointStop  offset="0" style="stop-color:#CFD8DD"/>
	<a:midPointStop  offset="0.5333" style="stop-color:#CFD8DD"/>
	<a:midPointStop  offset="1" style="stop-color:#F3F8FC"/>
</linearGradient>
<path fill="url(#SVGID_1_)" d="M48.894,46.005c0,0-19.014-1.689-24.923-6.82C29.589,51.424,48.442,51.905,48.894,46.005z"/>
<linearGradient id="SVGID_2_" gradientUnits="userSpaceOnUse" x1="-252.4565" y1="258.1348" x2="-258.5825" y2="240.9416" gradientTransform="matrix(0.891 0.4541 -0.4541 0.891 378.9234 -53.4501)">
	<stop  offset="0" style="stop-color:#CFD8DD"/>
	<stop  offset="0.0146" style="stop-color:#D0D9DE"/>
	<stop  offset="0.6308" style="stop-color:#E9EFF4"/>
	<stop  offset="1" style="stop-color:#F3F8FC"/>
	<a:midPointStop  offset="0" style="stop-color:#CFD8DD"/>
	<a:midPointStop  offset="0.4061" style="stop-color:#CFD8DD"/>
	<a:midPointStop  offset="1" style="stop-color:#F3F8FC"/>
</linearGradient>
<path fill="url(#SVGID_2_)" d="M46.224,61.667c0,0-14.598-11.68-16.32-19.055C27.04,55.612,42.248,66.221,46.224,61.667z"/>
<linearGradient id="SVGID_3_" gradientUnits="userSpaceOnUse" x1="-185.4565" y1="190.8779" x2="-187.4918" y2="175.9309" gradientTransform="matrix(0.9653 0.2613 -0.2613 0.9653 269.341 -75.082)">
	<stop  offset="0" style="stop-color:#CFD8DD"/>
	<stop  offset="0.7908" style="stop-color:#EBF1F5"/>
	<stop  offset="1" style="stop-color:#F3F8FC"/>
	<a:midPointStop  offset="0" style="stop-color:#CFD8DD"/>
	<a:midPointStop  offset="0.5333" style="stop-color:#CFD8DD"/>
	<a:midPointStop  offset="1" style="stop-color:#F3F8FC"/>
</linearGradient>
<path fill="url(#SVGID_3_)" d="M51.617,59.947c0,0-16.812-8.688-20.124-15.607C31.58,57.661,48.747,65.183,51.617,59.947z"/>
<linearGradient id="SVGID_4_" gradientUnits="userSpaceOnUse" x1="-132.5884" y1="150.6768" x2="-132.4581" y2="137.9938" gradientTransform="matrix(0.993 0.1185 -0.1185 0.993 190.3231 -75.868)">
	<stop  offset="0" style="stop-color:#CFD8DD"/>
	<stop  offset="0.7908" style="stop-color:#EBF1F5"/>
	<stop  offset="1" style="stop-color:#F3F8FC"/>
	<a:midPointStop  offset="0" style="stop-color:#CFD8DD"/>
	<a:midPointStop  offset="0.5333" style="stop-color:#CFD8DD"/>
	<a:midPointStop  offset="1" style="stop-color:#F3F8FC"/>
</linearGradient>
<path fill="url(#SVGID_4_)" d="M52.955,56.712c0,0-17.941-6.356-22.29-12.776C32.83,57.143,50.94,62.292,52.955,56.712z"/>
<linearGradient id="SVGID_5_" gradientUnits="userSpaceOnUse" x1="-82.7603" y1="118.8193" x2="-81.3192" y2="108.3329" gradientTransform="matrix(1 -0.0075 0.0075 1 122.2154 -67.2482)">
	<stop  offset="0" style="stop-color:#CFD8DD"/>
	<stop  offset="0.7908" style="stop-color:#EBF1F5"/>
	<stop  offset="1" style="stop-color:#F3F8FC"/>
	<a:midPointStop  offset="0" style="stop-color:#CFD8DD"/>
	<a:midPointStop  offset="0.5333" style="stop-color:#CFD8DD"/>
	<a:midPointStop  offset="1" style="stop-color:#F3F8FC"/>
</linearGradient>
<path fill="url(#SVGID_5_)" d="M53.156,50.188c0,0-18.617-4.22-23.789-10.096C33.301,52.974,51.921,55.975,53.156,50.188z"/>
<linearGradient id="SVGID_6_" gradientUnits="userSpaceOnUse" x1="-81.9902" y1="122.1084" x2="-80.5494" y2="111.6239" gradientTransform="matrix(1 -0.0075 0.0075 1 122.2154 -67.2482)">
	<stop  offset="0" style="stop-color:#CFD8DD"/>
	<stop  offset="0.7908" style="stop-color:#EBF1F5"/>
	<stop  offset="1" style="stop-color:#F3F8FC"/>
	<a:midPointStop  offset="0" style="stop-color:#CFD8DD"/>
	<a:midPointStop  offset="0.5333" style="stop-color:#CFD8DD"/>
	<a:midPointStop  offset="1" style="stop-color:#F3F8FC"/>
</linearGradient>
<path fill="url(#SVGID_6_)" d="M53.952,53.472c0,0-18.617-4.221-23.791-10.095C34.097,56.257,52.715,59.257,53.952,53.472z"/>
<linearGradient id="SVGID_7_" gradientUnits="userSpaceOnUse" x1="-43.1274" y1="119.8584" x2="-43.1274" y2="106.7979" gradientTransform="matrix(0.9684 0.2495 -0.2495 0.9684 77.1756 -73.7711)">
	<stop  offset="0" style="stop-color:#82756F"/>
	<stop  offset="0.2683" style="stop-color:#635853"/>
	<stop  offset="0.5369" style="stop-color:#4B433E"/>
	<stop  offset="0.7875" style="stop-color:#3D3631"/>
	<stop  offset="1" style="stop-color:#38312D"/>
	<a:midPointStop  offset="0" style="stop-color:#82756F"/>
	<a:midPointStop  offset="0.3273" style="stop-color:#82756F"/>
	<a:midPointStop  offset="1" style="stop-color:#38312D"/>
</linearGradient>
<path fill="url(#SVGID_7_)" d="M0,17.773c0.946,1.291,1.877,0.841,4.395,1.985c-1.456,0.392-2.839,1.027-3.92,2.135
	c1.864,1.095,2.722-0.012,6.114-0.206c-1.739,1.068-3.351,2.444-4.133,4.407c1.619,0.236,2.22-0.497,3.757-1.509
	c-0.963,1.494-1.624,3.219-1.602,5.263c1.878-0.034,2.375-0.936,3.435-2.347c-0.539,1.291-0.824,2.771-0.667,4.504
	c3.805,0.39,2.141-3.186,8.754-6.578C16.133,25.428,6.705,15.547,0,17.773z"/>
<linearGradient id="SVGID_8_" gradientUnits="userSpaceOnUse" x1="117.7031" y1="509.4648" x2="143.0342" y2="509.4648" gradientTransform="matrix(-0.403 -0.9152 -0.9152 0.403 533.6127 -63.4946)">
	<stop  offset="0" style="stop-color:#82756F"/>
	<stop  offset="0.2215" style="stop-color:#6A5F59"/>
	<stop  offset="0.5259" style="stop-color:#4E4641"/>
	<stop  offset="0.7954" style="stop-color:#3E3632"/>
	<stop  offset="1" style="stop-color:#38312D"/>
	<a:midPointStop  offset="0" style="stop-color:#82756F"/>
	<a:midPointStop  offset="0.3515" style="stop-color:#82756F"/>
	<a:midPointStop  offset="1" style="stop-color:#38312D"/>
</linearGradient>
<path fill="url(#SVGID_8_)" d="M13.385,19.835c7.938,1.231,9.329,8.331,14.482,9.707L14.77,36.365
	C21.496,18.296,1.611,24.25,2.154,14.896C2.307,12.259,1.463,17.987,13.385,19.835z"/>
<linearGradient id="SVGID_9_" gradientUnits="userSpaceOnUse" x1="68.3516" y1="-0.4419" x2="46.6991" y2="-6.9558" gradientTransform="matrix(0.9975 -0.0712 0.0712 0.9975 -17.1876 26.3272)">
	<stop  offset="0.303" style="stop-color:#38312D"/>
	<stop  offset="0.4577" style="stop-color:#3C3531"/>
	<stop  offset="0.6251" style="stop-color:#49413D"/>
	<stop  offset="0.7985" style="stop-color:#5F5550"/>
	<stop  offset="0.9749" style="stop-color:#7D706B"/>
	<stop  offset="1" style="stop-color:#82756F"/>
	<a:midPointStop  offset="0.303" style="stop-color:#38312D"/>
	<a:midPointStop  offset="0.6909" style="stop-color:#38312D"/>
	<a:midPointStop  offset="1" style="stop-color:#82756F"/>
</linearGradient>
<path fill="url(#SVGID_9_)" d="M54.156,8.42c6.366-1.04,8.814-0.196,9.143-1.209c-1.723-1.02-5.191-1.126-8.61-0.933
	c4.872-1.48,6.891-1.382,7.06-2.332c-2-0.634-6.22,0.132-10.014,1.056c5.051-2.832,7.203-3.188,7.205-4.213
	C55.446,1.262,51.271,3,47.983,4.573C51.396,1.652,52.91,0.918,52.719,0C50.29,0.88,41.457,7.283,39.631,8.584
	c-0.134-0.421,0.011-1.555-0.342-1.274c-2.566,2.051-5.712,4.544-6.292,6.188c-2.984,8.455-5.92,16.967-11.425,17.354
	c0,0,12.638,10.222,15.113,8.574c-0.346-0.558-0.737-1.036-1.159-1.458c0.941,0.332,1.648,0.448,2.695-0.203
	c-0.228-0.345-0.475-0.654-0.737-0.942c0.894,0.314,1.587,0.404,2.602-0.264c-0.304-0.487-0.646-0.91-1.011-1.291
	c1.158,0.443,1.906,0.705,3.104-0.073c-0.266-0.419-0.558-0.794-0.869-1.135c0.973,0.364,1.683,0.504,2.759-0.212
	c-0.258-0.412-0.54-0.786-0.84-1.123c0.777,0.248,1.431,0.261,2.354-0.371c-0.34-0.563-0.721-1.045-1.136-1.472
	c0.737,0.209,1.376,0.206,2.257-0.355c-0.353-0.544-0.75-1.009-1.178-1.42c1.203,0.228,1.979,0.349,3.029-0.643
	c-0.34-0.386-0.702-0.712-1.077-0.999c0.841,0.006,1.486-0.158,2.237-1.025c-0.438-0.387-0.897-0.694-1.365-0.949
	c1.134,0.041,1.892,0.009,2.804-0.988c-0.434-0.353-0.886-0.63-1.354-0.86c1.169-0.016,1.933-0.073,2.807-1.151
	c-0.407-0.302-0.831-0.545-1.262-0.744c0.836-0.071,1.471-0.277,2.18-1.127c-0.433-0.296-0.886-0.524-1.348-0.707
	c1.409-0.055,2.242-0.018,3.217-1.18c-0.521-0.354-1.064-0.618-1.62-0.814c1.104-0.045,1.847-0.146,2.694-1.158
	c-0.326-0.222-0.663-0.403-1.002-0.561c1.243,0.061,2.03,0.09,3.018-0.911c-0.468-0.377-0.961-0.672-1.473-0.909
	c1.189,0.192,1.961,0.287,3.016-0.58c-0.521-0.518-1.09-0.922-1.69-1.244c3.035,0.383,4.446,1.229,4.696,0.527
	c-2.388-1.764-5.62-2.427-8.697-2.608c6.516-0.781,9.337,1.317,9.664,0.298C61.279,8.887,57.542,8.396,54.156,8.42z"/>
<linearGradient id="SVGID_10_" gradientUnits="userSpaceOnUse" x1="72.2305" y1="-4.9619" x2="61.1629" y2="-15.3378" gradientTransform="matrix(0.9975 -0.0712 0.0712 0.9975 -17.1876 26.3272)">
	<stop  offset="0" style="stop-color:#544C48"/>
	<stop  offset="1" style="stop-color:#544C48;stop-opacity:0"/>
	<a:midPointStop  offset="0" style="stop-color:#544C48"/>
	<a:midPointStop  offset="0.4485" style="stop-color:#544C48"/>
	<a:midPointStop  offset="1" style="stop-color:#544C48;stop-opacity:0"/>
</linearGradient>
<path fill="url(#SVGID_10_)" d="M54.167,6.308c-12.47,1.999-15.096,7.045-15.096,7.045C40.481,11.928,54.167,6.308,54.167,6.308z"/>
<linearGradient id="SVGID_11_" gradientUnits="userSpaceOnUse" x1="69.6553" y1="-1.3188" x2="58.2362" y2="-12.0243" gradientTransform="matrix(0.9975 -0.0712 0.0712 0.9975 -17.1876 26.3272)">
	<stop  offset="0" style="stop-color:#544C48"/>
	<stop  offset="1" style="stop-color:#544C48;stop-opacity:0"/>
	<a:midPointStop  offset="0" style="stop-color:#544C48"/>
	<a:midPointStop  offset="0.4485" style="stop-color:#544C48"/>
	<a:midPointStop  offset="1" style="stop-color:#544C48;stop-opacity:0"/>
</linearGradient>
<path fill="url(#SVGID_11_)" d="M56.479,14.352c-14.944-1.706-19.674,2.38-19.674,2.38C38.908,15.774,56.479,14.352,56.479,14.352z"
	/>
<linearGradient id="SVGID_12_" gradientUnits="userSpaceOnUse" x1="66.9883" y1="1.7725" x2="55.5719" y2="-8.9304" gradientTransform="matrix(0.9975 -0.0712 0.0712 0.9975 -17.1876 26.3272)">
	<stop  offset="0" style="stop-color:#544C48"/>
	<stop  offset="1" style="stop-color:#544C48;stop-opacity:0"/>
	<a:midPointStop  offset="0" style="stop-color:#544C48"/>
	<a:midPointStop  offset="0.4485" style="stop-color:#544C48"/>
	<a:midPointStop  offset="1" style="stop-color:#544C48;stop-opacity:0"/>
</linearGradient>
<path fill="url(#SVGID_12_)" d="M53.88,18.135c-13.905-1.813-18.274,2.237-18.274,2.237C37.554,19.431,53.88,18.135,53.88,18.135z"
	/>
<linearGradient id="SVGID_13_" gradientUnits="userSpaceOnUse" x1="63.8379" y1="5.4917" x2="52.3259" y2="-5.3008" gradientTransform="matrix(0.9975 -0.0712 0.0712 0.9975 -17.1876 26.3272)">
	<stop  offset="0" style="stop-color:#544C48"/>
	<stop  offset="1" style="stop-color:#544C48;stop-opacity:0"/>
	<a:midPointStop  offset="0" style="stop-color:#544C48"/>
	<a:midPointStop  offset="0.4485" style="stop-color:#544C48"/>
	<a:midPointStop  offset="1" style="stop-color:#544C48;stop-opacity:0"/>
</linearGradient>
<path fill="url(#SVGID_13_)" d="M49.107,23.618c-10.01-3.581-13.58-0.126-13.58-0.126C37.037,22.807,49.107,23.618,49.107,23.618z"
	/>
<linearGradient id="SVGID_14_" gradientUnits="userSpaceOnUse" x1="61.0166" y1="8.7515" x2="49.4645" y2="-2.0786" gradientTransform="matrix(0.9975 -0.0712 0.0712 0.9975 -17.1876 26.3272)">
	<stop  offset="0" style="stop-color:#544C48"/>
	<stop  offset="1" style="stop-color:#544C48;stop-opacity:0"/>
	<a:midPointStop  offset="0" style="stop-color:#544C48"/>
	<a:midPointStop  offset="0.4485" style="stop-color:#544C48"/>
	<a:midPointStop  offset="1" style="stop-color:#544C48;stop-opacity:0"/>
</linearGradient>
<path fill="url(#SVGID_14_)" d="M46.486,27.519c-9.782-4.263-13.555-1.065-13.555-1.065C34.482,25.877,46.486,27.519,46.486,27.519z
	"/>
<linearGradient id="SVGID_15_" gradientUnits="userSpaceOnUse" x1="58.6201" y1="11.5283" x2="47.0244" y2="0.6573" gradientTransform="matrix(0.9975 -0.0712 0.0712 0.9975 -17.1876 26.3272)">
	<stop  offset="0" style="stop-color:#544C48"/>
	<stop  offset="1" style="stop-color:#544C48;stop-opacity:0"/>
	<a:midPointStop  offset="0" style="stop-color:#544C48"/>
	<a:midPointStop  offset="0.4485" style="stop-color:#544C48"/>
	<a:midPointStop  offset="1" style="stop-color:#544C48;stop-opacity:0"/>
</linearGradient>
<path fill="url(#SVGID_15_)" d="M43.953,30.85c-9.194-4.797-13.035-1.977-13.035-1.977C32.452,28.424,43.953,30.85,43.953,30.85z"/>
<linearGradient id="SVGID_16_" gradientUnits="userSpaceOnUse" x1="56.1416" y1="14.3765" x2="44.5095" y2="3.4714" gradientTransform="matrix(0.9975 -0.0712 0.0712 0.9975 -17.1876 26.3272)">
	<stop  offset="0" style="stop-color:#544C48"/>
	<stop  offset="1" style="stop-color:#544C48;stop-opacity:0"/>
	<a:midPointStop  offset="0" style="stop-color:#544C48"/>
	<a:midPointStop  offset="0.4485" style="stop-color:#544C48"/>
	<a:midPointStop  offset="1" style="stop-color:#544C48;stop-opacity:0"/>
</linearGradient>
<path fill="url(#SVGID_16_)" d="M41.023,33.844c-8.886-5.431-12.895-2.888-12.895-2.888C29.689,30.616,41.023,33.844,41.023,33.844z
	"/>
<linearGradient id="SVGID_17_" gradientUnits="userSpaceOnUse" x1="54.2402" y1="16.6196" x2="42.5406" y2="5.6512" gradientTransform="matrix(0.9975 -0.0712 0.0712 0.9975 -17.1876 26.3272)">
	<stop  offset="0" style="stop-color:#544C48"/>
	<stop  offset="1" style="stop-color:#544C48;stop-opacity:0"/>
	<a:midPointStop  offset="0" style="stop-color:#544C48"/>
	<a:midPointStop  offset="0.4485" style="stop-color:#544C48"/>
	<a:midPointStop  offset="1" style="stop-color:#544C48;stop-opacity:0"/>
</linearGradient>
<path fill="url(#SVGID_17_)" d="M37.254,36.555c-5.492-4.518-8.4-3.216-8.4-3.216C29.929,33.267,37.254,36.555,37.254,36.555z"/>
<linearGradient id="SVGID_18_" gradientUnits="userSpaceOnUse" x1="72.1621" y1="-4.3203" x2="60.8232" y2="-14.9506" gradientTransform="matrix(0.9975 -0.0712 0.0712 0.9975 -17.1876 26.3272)">
	<stop  offset="0" style="stop-color:#544C48"/>
	<stop  offset="1" style="stop-color:#544C48;stop-opacity:0"/>
	<a:midPointStop  offset="0" style="stop-color:#544C48"/>
	<a:midPointStop  offset="0.4485" style="stop-color:#544C48"/>
	<a:midPointStop  offset="1" style="stop-color:#544C48;stop-opacity:0"/>
</linearGradient>
<path fill="url(#SVGID_18_)" d="M54.016,10.681c-6.833-0.94-11.35,2.42-11.35,2.42C43.553,12.454,54.016,10.681,54.016,10.681z"/>
<path fill="#F59E01" d="M19.462,53.883c-1.182,1.222-3.46,1.755-3.46,1.755l-0.271,2.02c3.272-0.349,5.378-1.894,5.378-1.894
	C21.803,53.483,19.462,53.883,19.462,53.883z"/>
<path fill="#F59E01" d="M23.653,56.021c-1.21,1.494-3.746,2.312-3.746,2.312l-0.083,2.324c3.684-0.7,5.912-2.647,5.912-2.647
	C26.275,55.348,23.653,56.02,23.653,56.021z"/>
<path fill="#524A47" d="M22.794,55.787c-2.91,0.784-6.027-1.417-3.045-2.83c3.603-1.101,5.435-3.944,5.435-3.944
	S28.434,53.77,22.794,55.787z"/>
<linearGradient id="SVGID_19_" gradientUnits="userSpaceOnUse" x1="-111.1299" y1="198.707" x2="-86.1123" y2="198.707" gradientTransform="matrix(0.9828 0.1848 -0.1848 0.9828 160.6062 -132.0794)">
	<stop  offset="0" style="stop-color:#82756F"/>
	<stop  offset="0.2029" style="stop-color:#7C6F69"/>
	<stop  offset="0.4852" style="stop-color:#6A5F59"/>
	<stop  offset="0.8124" style="stop-color:#4C443F"/>
	<stop  offset="1" style="stop-color:#38312D"/>
	<a:midPointStop  offset="0" style="stop-color:#82756F"/>
	<a:midPointStop  offset="0.6364" style="stop-color:#82756F"/>
	<a:midPointStop  offset="1" style="stop-color:#38312D"/>
</linearGradient>
<path fill="url(#SVGID_19_)" d="M22.246,55.798c1.415,3.558,2.912,1.708,2.912,1.708c-0.28,1.373,0.421,2.502,0.421,2.502
	c1.609-1.001,1.988-2.364,2.074-3.037c0.062,1.031,2.508,2.386,2.508,2.386c1.332-1.699,1.907-2.48,1.804-2.889
	c1.065,1.437,3.563,1.701,3.563,1.701c0.297-1.127-0.188-3.341-0.188-3.341s1.076,0.326,2.545-0.253
	c-0.201-2.211-1.623-4.039-1.623-4.039c1.141,0.039,2.244-1.117,2.244-1.117c-0.775-1.804-2.074-2.625-2.074-2.625
	c1.158-0.243,2.074-1.344,2.074-1.344c-10.135-6.266-5.452-12.285-19.085-17.167l-4.3,11.972
	C16.598,48.477,31.58,47.273,22.246,55.798z"/>
<path fill="#F9C802" d="M10.273,53.151c3.166,3.557,0.892,5.834,2.758,7.194c7.221-4.031,5.1-9.589,3.644-7.9
	c0.579,2.28-1.792,3.68-1.563,2.544c0.389-1.902-0.347-5.192-1.733-3.516c0.522,0.853,0.361,5.414-0.529,3.41
	C11.257,51.305,10.213,52.503,10.273,53.151z"/>
<path fill="#302C3B" d="M11.229,60.646c0.865-0.64,0.83-2.763,2.171-1.12C14.27,60.591,10.154,61.438,11.229,60.646z"/>
<path fill="#302C3B" d="M11.092,52.881c1.224,1.524-0.65,1.125-1.363,1.816C8.843,55.552,10.303,51.896,11.092,52.881z"/>
<path fill="#302C3B" d="M14.057,51.476c1.226,1.523-0.651,1.126-1.363,1.817C11.808,54.148,13.268,50.489,14.057,51.476z"/>
<path fill="#302C3B" d="M17.308,52.483c1.224,1.524-0.652,1.126-1.363,1.816C15.059,55.156,16.521,51.497,17.308,52.483z"/>
<path fill="#F9C802" d="M15.492,56.194c3.166,3.555,0.892,5.835,2.758,7.196c7.222-4.032,5.1-9.589,3.644-7.904
	c0.581,2.284-1.791,3.682-1.563,2.546c0.389-1.9-0.347-5.193-1.734-3.514c0.526,0.854,0.363,5.411-0.526,3.409
	C16.48,54.347,15.432,55.545,15.492,56.194z"/>
<path fill="#302C3B" d="M16.448,63.689c0.867-0.638,0.83-2.763,2.173-1.12C19.49,63.633,15.375,64.48,16.448,63.689z"/>
<path fill="#302C3B" d="M16.314,55.924c1.223,1.525-0.652,1.125-1.367,1.818C14.064,58.597,15.525,54.938,16.314,55.924z"/>
<path fill="#302C3B" d="M19.276,54.518c1.226,1.523-0.65,1.125-1.363,1.82C17.027,57.188,18.489,53.533,19.276,54.518z"/>
<path fill="#302C3B" d="M22.529,55.528c1.223,1.523-0.65,1.123-1.366,1.813C20.279,58.198,21.74,54.542,22.529,55.528z"/>
<radialGradient id="SVGID_20_" cx="7.1113" cy="75.4746" r="8.4372" gradientTransform="matrix(0.9608 -0.2856 0.2773 0.9898 -13.8383 -40.0692)" gradientUnits="userSpaceOnUse">
	<stop  offset="0" style="stop-color:#F4F8FC"/>
	<stop  offset="0.3201" style="stop-color:#F1F5F9"/>
	<stop  offset="0.5921" style="stop-color:#E6ECF0"/>
	<stop  offset="0.8456" style="stop-color:#D5DCE1"/>
	<stop  offset="1" style="stop-color:#C6CFD4"/>
	<a:midPointStop  offset="0" style="stop-color:#F4F8FC"/>
	<a:midPointStop  offset="0.7394" style="stop-color:#F4F8FC"/>
	<a:midPointStop  offset="1" style="stop-color:#C6CFD4"/>
</radialGradient>
<path fill="url(#SVGID_20_)" d="M9.969,36.325c-3.261-3.097,0.223-10.297,5.563-11.244c-1.198,0.736-1.142,1.498-1.142,1.498
	s2.39-1.964,5.211-0.87c-1.364,0.751-1.768,1.789-1.768,1.789s3.252-1.499,5.375,1.902c-1.417-0.345-2.7,0.085-2.7,0.085
	s3.768,1.108,3.982,5.103c-1.299-0.472-2.753-0.667-2.753-0.667s2.133,1.661,1.737,4.621c-1.415,0.94-3.215-0.713-3.215-0.713
	s1.128,2.819,0.544,4.596c-2.085,0.069-3.355-1.384-3.355-1.384s0.059,1.906-0.977,3.496c-2.75-1.775-1.891-5.742-4.854-7.716
	C11.617,36.821,10.288,36.627,9.969,36.325z"/>
<path fill="#F9C802" d="M11.72,40.448c0,0-0.151-2.364,0.368-3.201c1.603-2.577,2.62-2.299,2.572-3.477
	C11.88,34.457,9.289,38.162,11.72,40.448z"/>
<path fill="#DE8F01" d="M11.72,40.448c0,0-0.658-1.917-0.053-3.435c0.552-1.374,1.93-1.782,2.993-3.243
	C11.298,35.053,8.264,37.327,11.72,40.448z"/>
<radialGradient id="SVGID_21_" cx="0.748" cy="77.0645" r="7.1626" gradientTransform="matrix(0.49 -0.898 0.2891 0.1674 -14.3966 23.7629)" gradientUnits="userSpaceOnUse">
	<stop  offset="0" style="stop-color:#FFC800"/>
	<stop  offset="0.3537" style="stop-color:#FAB201"/>
	<stop  offset="0.7076" style="stop-color:#F6A301"/>
	<stop  offset="1" style="stop-color:#F59E01"/>
	<a:midPointStop  offset="0" style="stop-color:#FFC800"/>
	<a:midPointStop  offset="0.3333" style="stop-color:#FFC800"/>
	<a:midPointStop  offset="1" style="stop-color:#F59E01"/>
</radialGradient>
<path fill="url(#SVGID_21_)" d="M9.645,33.76c-1.154,0.287-2.101,2.918-1.78,4.653c0.335,1.819,2.265,2.521,2.265,2.521
	S6.88,37.91,14.66,33.771c-2.502,0.715-3.801,1.823-3.801,1.823S10.156,33.631,9.645,33.76z"/>
<path fill="#CFD8DD" d="M13.599,29.861c-1.158,0-1.611,0.967-1.511,1.723c0.076,0.561,2.947,0.561,3.021,0
	C15.216,30.767,14.655,29.861,13.599,29.861z"/>
<path fill="#FFFFFF" d="M13.599,30.129c-0.834,0-1.511,0.613-1.511,1.369c0,0.653,0.677,1.369,1.511,1.369s1.51-0.834,1.51-1.369
	C15.108,30.742,14.433,30.129,13.599,30.129z"/>
<ellipse fill="#1A1626" cx="13.454" cy="31.484" rx="1.127" ry="1.09"/>
<path fill="#FFFFFF" d="M13.363,30.94c0,0.396-0.615,0.396-0.615,0C12.748,30.543,13.363,30.543,13.363,30.94z"/>
<path fill="#CFD8DD" d="M11.932,32.368c0,0,0.789-2.091,2.886-2.429C13.221,28.682,11.124,30.663,11.932,32.368z"/>
</svg>
