<?xml version="1.0" encoding="utf-8"?>
<!-- Generator: Adobe Illustrator 15.0.0, SVG Export Plug-In . SVG Version: 6.00 Build 0)  -->
<!DOCTYPE svg PUBLIC "-//W3C//DTD SVG 1.1//EN" "http://www.w3.org/Graphics/SVG/1.1/DTD/svg11.dtd" [
	<!ENTITY ns_flows "http://ns.adobe.com/Flows/1.0/">
	<!ENTITY ns_extend "http://ns.adobe.com/Extensibility/1.0/">
	<!ENTITY ns_ai "http://ns.adobe.com/AdobeIllustrator/10.0/">
	<!ENTITY ns_graphs "http://ns.adobe.com/Graphs/1.0/">
]>
<svg version="1.1" id="Layer_1" xmlns:x="&ns_extend;" xmlns:i="&ns_ai;" xmlns:graph="&ns_graphs;"
	 xmlns="http://www.w3.org/2000/svg" xmlns:xlink="http://www.w3.org/1999/xlink" xmlns:a="http://ns.adobe.com/AdobeSVGViewerExtensions/3.0/"
	 x="0px" y="0px" width="64px" height="64px" viewBox="0 0 64 64" enable-background="new 0 0 64 64" xml:space="preserve">
<path fill="#45332C" d="M0,54.215c9.187-3.585,10.643-8.319,10.884-7.572c0.404,1.25,2.509-11.1,2.534-11.325
	c0.045-0.379,2.061,4.876,2.468,5.873c0.409,0.997-1.515-6.963-2.468-7.104c-0.592-0.091-2.791,11.169-3.082,12.027
	C10.082,46.864,8.231,49.977,0,54.215z"/>
<path fill="#45332C" d="M49.123,21.763l-6.627,4.663c0,0-7.76,2.935-8.15,2.935c-0.883,0-9.805-3.345-10.668-3.345
	c-1.158,0-3.24,13.169-2.652,12.451c0.77-0.943,2.373-11.322,2.652-11.229c0.703,0.226,11.717,4.268,11.075,3.063
	c-0.287-0.539,7.98-3.284,7.98-3.284l6.678-4.865c0,0,3.357-4.218,3.904-6.377C52.58,17.791,49.123,21.763,49.123,21.763z"/>
<path fill="#45332C" d="M17.122,42.827c1.33,3.713,5.271,5.952,2.758,1.147c4.278,2.565,4.03,0.501,1.692-1.03
	c3.567,1.128,2.836-1.101,0.072-2.288C18.882,39.471,17.122,42.827,17.122,42.827z"/>
<linearGradient id="SVGID_1_" gradientUnits="userSpaceOnUse" x1="41.3789" y1="41.5049" x2="46.6582" y2="41.5049">
	<stop  offset="0" style="stop-color:#E3C496"/>
	<stop  offset="0.1977" style="stop-color:#B99C75"/>
	<stop  offset="0.4601" style="stop-color:#886D4F"/>
	<stop  offset="0.6908" style="stop-color:#654B32"/>
	<stop  offset="0.8787" style="stop-color:#4F3721"/>
	<stop  offset="1" style="stop-color:#472F1B"/>
	<a:midPointStop  offset="0" style="stop-color:#E3C496"/>
	<a:midPointStop  offset="0.3879" style="stop-color:#E3C496"/>
	<a:midPointStop  offset="1" style="stop-color:#472F1B"/>
</linearGradient>
<path fill="url(#SVGID_1_)" d="M46.658,42.064c-1.928-0.457-2.83-1.133-5.279-1.79c0.094,0.772,0.189,1.665,0.219,2.461
	C44.904,42.693,46.082,42.454,46.658,42.064z"/>
<linearGradient id="SVGID_2_" gradientUnits="userSpaceOnUse" x1="36.7617" y1="40.916" x2="41.707" y2="40.916">
	<stop  offset="0" style="stop-color:#E3C496"/>
	<stop  offset="0.1977" style="stop-color:#B99C75"/>
	<stop  offset="0.4601" style="stop-color:#886D4F"/>
	<stop  offset="0.6908" style="stop-color:#654B32"/>
	<stop  offset="0.8787" style="stop-color:#4F3721"/>
	<stop  offset="1" style="stop-color:#472F1B"/>
	<a:midPointStop  offset="0" style="stop-color:#E3C496"/>
	<a:midPointStop  offset="0.3879" style="stop-color:#E3C496"/>
	<a:midPointStop  offset="1" style="stop-color:#472F1B"/>
</linearGradient>
<path fill="url(#SVGID_2_)" d="M41.475,40.225c-1.393-0.369-3.236-0.886-4.713-1.228c0.254,1.202,0.373,2.481,0.371,3.712
	c1.463,0.029,3.234,0.134,4.574,0.126C41.672,41.948,41.586,41.061,41.475,40.225z"/>
<linearGradient id="SVGID_3_" gradientUnits="userSpaceOnUse" x1="31.7163" y1="40.4277" x2="37.2988" y2="40.4277">
	<stop  offset="0" style="stop-color:#E3C496"/>
	<stop  offset="0.1977" style="stop-color:#B99C75"/>
	<stop  offset="0.4601" style="stop-color:#886D4F"/>
	<stop  offset="0.6908" style="stop-color:#654B32"/>
	<stop  offset="0.8787" style="stop-color:#4F3721"/>
	<stop  offset="1" style="stop-color:#472F1B"/>
	<a:midPointStop  offset="0" style="stop-color:#E3C496"/>
	<a:midPointStop  offset="0.3879" style="stop-color:#E3C496"/>
	<a:midPointStop  offset="1" style="stop-color:#472F1B"/>
</linearGradient>
<path fill="url(#SVGID_3_)" d="M36.844,38.929c-1.23-0.272-3.586-0.662-4.838-0.876c-0.12,1.488-0.105,2.487-0.289,3.965
	c1.456,0.063,4.067,0.748,5.583,0.785C37.299,41.505,37.162,40.188,36.844,38.929z"/>
<linearGradient id="SVGID_4_" gradientUnits="userSpaceOnUse" x1="26.7456" y1="39.7598" x2="32.4678" y2="39.7598">
	<stop  offset="0" style="stop-color:#E3C496"/>
	<stop  offset="0.1977" style="stop-color:#B99C75"/>
	<stop  offset="0.4601" style="stop-color:#886D4F"/>
	<stop  offset="0.6908" style="stop-color:#654B32"/>
	<stop  offset="0.8787" style="stop-color:#4F3721"/>
	<stop  offset="1" style="stop-color:#472F1B"/>
	<a:midPointStop  offset="0" style="stop-color:#E3C496"/>
	<a:midPointStop  offset="0.3879" style="stop-color:#E3C496"/>
	<a:midPointStop  offset="1" style="stop-color:#472F1B"/>
</linearGradient>
<path fill="url(#SVGID_4_)" d="M32.377,42.116c0.194-1.513,0.046-3.005-0.168-4.161c-1.339-0.207-4.065-0.456-5.392-0.553
	c0.067,1.602,0.055,2.398-0.072,3.997C27.843,41.476,31.068,42.054,32.377,42.116z"/>
<linearGradient id="SVGID_5_" gradientUnits="userSpaceOnUse" x1="21.6831" y1="39.4023" x2="27.2217" y2="39.4023">
	<stop  offset="0" style="stop-color:#E3C496"/>
	<stop  offset="0.1977" style="stop-color:#B99C75"/>
	<stop  offset="0.4601" style="stop-color:#886D4F"/>
	<stop  offset="0.6908" style="stop-color:#654B32"/>
	<stop  offset="0.8787" style="stop-color:#4F3721"/>
	<stop  offset="1" style="stop-color:#472F1B"/>
	<a:midPointStop  offset="0" style="stop-color:#E3C496"/>
	<a:midPointStop  offset="0.3879" style="stop-color:#E3C496"/>
	<a:midPointStop  offset="1" style="stop-color:#472F1B"/>
</linearGradient>
<path fill="url(#SVGID_5_)" d="M27.044,37.279c-1.139-0.057-3.041-0.09-4.143-0.029c-1.909,0.104-1.186,3.608-0.443,4.293
	c0.176,0.162,2.564-0.202,4.703-0.038C27.285,39.905,27.205,38.572,27.044,37.279z"/>
<linearGradient id="SVGID_6_" gradientUnits="userSpaceOnUse" x1="33.9902" y1="45.8262" x2="33.9902" y2="40.8154">
	<stop  offset="0" style="stop-color:#DEBC78"/>
	<stop  offset="0.206" style="stop-color:#D9B573"/>
	<stop  offset="0.5163" style="stop-color:#CBA066"/>
	<stop  offset="0.8907" style="stop-color:#B57E51"/>
	<stop  offset="1" style="stop-color:#AD734A"/>
	<a:midPointStop  offset="0" style="stop-color:#DEBC78"/>
	<a:midPointStop  offset="0.6182" style="stop-color:#DEBC78"/>
	<a:midPointStop  offset="1" style="stop-color:#AD734A"/>
</linearGradient>
<path fill="url(#SVGID_6_)" d="M21.322,42.086c5.949-0.704,11.899,8.757,25.336,0C34.451,43.775,28.234,38.518,21.322,42.086z"/>
<linearGradient id="SVGID_7_" gradientUnits="userSpaceOnUse" x1="19.7788" y1="24.752" x2="30.6196" y2="24.752">
	<stop  offset="0" style="stop-color:#ADE1FF"/>
	<stop  offset="0.1186" style="stop-color:#A4D7F5;stop-opacity:0.9407"/>
	<stop  offset="0.3224" style="stop-color:#8DBDD9;stop-opacity:0.8388"/>
	<stop  offset="0.5869" style="stop-color:#6893AC;stop-opacity:0.7066"/>
	<stop  offset="0.8986" style="stop-color:#34596F;stop-opacity:0.5507"/>
	<stop  offset="1" style="stop-color:#224559;stop-opacity:0.5"/>
	<a:midPointStop  offset="0" style="stop-color:#ADE1FF"/>
	<a:midPointStop  offset="0.5879" style="stop-color:#ADE1FF"/>
	<a:midPointStop  offset="1" style="stop-color:#224559;stop-opacity:0.5"/>
</linearGradient>
<path opacity="0.5" fill="url(#SVGID_7_)" d="M29.753,13.625c-6.607-9.059-5.893,17.261-9.975,24.13
	C28.363,37.214,32.561,17.479,29.753,13.625z"/>
<linearGradient id="SVGID_8_" gradientUnits="userSpaceOnUse" x1="20.5562" y1="23.874" x2="35.9688" y2="23.874">
	<stop  offset="0" style="stop-color:#ADE1FF"/>
	<stop  offset="0.1186" style="stop-color:#A4D7F5;stop-opacity:0.9407"/>
	<stop  offset="0.3224" style="stop-color:#8DBDD9;stop-opacity:0.8388"/>
	<stop  offset="0.5869" style="stop-color:#6893AC;stop-opacity:0.7066"/>
	<stop  offset="0.8986" style="stop-color:#34596F;stop-opacity:0.5507"/>
	<stop  offset="1" style="stop-color:#224559;stop-opacity:0.5"/>
	<a:midPointStop  offset="0" style="stop-color:#ADE1FF"/>
	<a:midPointStop  offset="0.5879" style="stop-color:#ADE1FF"/>
	<a:midPointStop  offset="1" style="stop-color:#224559;stop-opacity:0.5"/>
</linearGradient>
<path opacity="0.5" fill="url(#SVGID_8_)" d="M34.939,12.064c-5.903-9.76-8.336,17.826-14.383,25.684
	C29.138,37.208,39.256,19.204,34.939,12.064z"/>
<path fill="#45332C" d="M15.604,40.222c0,0-1.354,4.402-11.799,4.646c8.523,1.351,12.554-4.312,12.554-4.312L15.604,40.222z"/>
<path fill="#45332C" d="M64,62c-5.287-0.53-13.852-3.011-14.27-3.24c-0.408-0.225-11.496-7.308-11.715-6.982
	c-1.064,1.583-6.352-16.982-6.585-17.355c-0.224-0.357-6.812,9.345-8.632,10.766c-0.955,0.747,7.01-12.199,8.632-12.199
	c1.265,0,7.105,18.066,7.357,18.322c0.277,0.282,10.611,6.574,11.09,6.97C50.336,58.66,58.879,60.976,64,62z"/>
<linearGradient id="SVGID_9_" gradientUnits="userSpaceOnUse" x1="-3.8975" y1="23.0195" x2="-4.7558" y2="15.6701" gradientTransform="matrix(0.9932 0.116 -0.116 0.9932 26.1136 21.2431)">
	<stop  offset="0" style="stop-color:#5C3C25"/>
	<stop  offset="0.1648" style="stop-color:#64442A"/>
	<stop  offset="0.4267" style="stop-color:#7B5839"/>
	<stop  offset="0.751" style="stop-color:#A17A51"/>
	<stop  offset="1" style="stop-color:#C29867"/>
	<a:midPointStop  offset="0" style="stop-color:#5C3C25"/>
	<a:midPointStop  offset="0.6061" style="stop-color:#5C3C25"/>
	<a:midPointStop  offset="1" style="stop-color:#C29867"/>
</linearGradient>
<path fill="url(#SVGID_9_)" d="M23.754,39.829c-0.205,1.76-3.79,4.02-5.55,3.813c-1.76-0.204-3.02-1.798-2.815-3.559
	c0.206-1.761,3.79-4.021,5.55-3.813C22.7,36.475,23.96,38.067,23.754,39.829z"/>
<path fill="#45332C" d="M6.238,62c9.187-4.053,10.643-10.993,10.884-10.148c0.403,1.413,2.508-12.551,2.534-12.805
	c0.045-0.43,0.091,6.116,0.498,7.243c0.41,1.126,0.455-8.477-0.498-8.636c-0.592-0.102-2.791,12.629-3.082,13.599
	C16.319,52.101,13.888,57.463,6.238,62z"/>
<path fill="#45332C" d="M55.508,23.229l-7.469,5.487c0,0-8.742,3.452-9.184,3.452c-0.994,0-11.046-3.936-12.019-3.936
	c-1.305,0-3.649,15.498-2.988,14.653c0.866-1.109,2.675-13.323,2.988-13.216c0.793,0.267,13.203,5.023,12.48,3.606
	c-0.324-0.634,8.99-3.864,8.99-3.864l7.523-5.728c0,0,3.781-4.963,4.398-7.504C59.4,18.555,55.508,23.229,55.508,23.229z"/>
<path fill="#1F1714" d="M12.519,46.769c-3.445,5.254-9.042,10.609-9.633,11.403c-1.11,1.494,8.09-6.382,12.577-13.822
	c0.257-0.427-3.604-0.047-3.024,2.129C11.203,47.104,11.495,47.088,12.519,46.769z"/>
<linearGradient id="SVGID_10_" gradientUnits="userSpaceOnUse" x1="15.8223" y1="45.7227" x2="12.2183" y2="41.6182">
	<stop  offset="0" style="stop-color:#5C3C25"/>
	<stop  offset="0.1648" style="stop-color:#64442A"/>
	<stop  offset="0.4267" style="stop-color:#7B5839"/>
	<stop  offset="0.751" style="stop-color:#A17A51"/>
	<stop  offset="1" style="stop-color:#C29867"/>
	<a:midPointStop  offset="0" style="stop-color:#5C3C25"/>
	<a:midPointStop  offset="0.6061" style="stop-color:#5C3C25"/>
	<a:midPointStop  offset="1" style="stop-color:#C29867"/>
</linearGradient>
<path fill="url(#SVGID_10_)" d="M11.689,43.138c-0.904,2.77,1.15,4.421,3.645,2.991c1.139-0.652,1.605-1.688,1.293-3.234
	c0.451-0.356-0.219-1.625-0.906-1.09C15.333,41.199,12.72,39.979,11.689,43.138z"/>
<path fill="#1A1626" d="M12.39,43.013c-1.035,1.052-0.572,2.344,0.193,2.937c0.569,0.443,3.137-2.165,2.701-2.741
	C14.648,42.365,13.335,42.053,12.39,43.013z"/>
<path fill="#FFFFFF" d="M12.631,43.257c-0.745,0.758-0.802,1.929-0.124,2.615c0.585,0.595,1.83,0.633,2.576-0.126
	c0.747-0.757,0.604-2.13,0.125-2.617C14.532,42.442,13.378,42.498,12.631,43.257z"/>
<path fill="#1A1626" d="M12.739,43.629c0.557-0.566,1.446-0.579,1.985-0.032c0.539,0.548,0.523,1.449-0.033,2.015
	c-0.557,0.567-1.445,0.583-1.984,0.034C12.167,45.099,12.182,44.194,12.739,43.629z"/>
<path fill="#FFFFFF" d="M13.148,44.206c0.354,0.36-0.197,0.919-0.551,0.559C12.242,44.404,12.792,43.845,13.148,44.206z"/>
</svg>
