<?xml version="1.0" encoding="utf-8"?>
<!-- Generator: Adobe Illustrator 15.0.0, SVG Export Plug-In . SVG Version: 6.00 Build 0)  -->
<!DOCTYPE svg PUBLIC "-//W3C//DTD SVG 1.1//EN" "http://www.w3.org/Graphics/SVG/1.1/DTD/svg11.dtd" [
	<!ENTITY ns_flows "http://ns.adobe.com/Flows/1.0/">
	<!ENTITY ns_extend "http://ns.adobe.com/Extensibility/1.0/">
	<!ENTITY ns_ai "http://ns.adobe.com/AdobeIllustrator/10.0/">
	<!ENTITY ns_graphs "http://ns.adobe.com/Graphs/1.0/">
]>
<svg version="1.1" id="Layer_1" xmlns:x="&ns_extend;" xmlns:i="&ns_ai;" xmlns:graph="&ns_graphs;"
	 xmlns="http://www.w3.org/2000/svg" xmlns:xlink="http://www.w3.org/1999/xlink" xmlns:a="http://ns.adobe.com/AdobeSVGViewerExtensions/3.0/"
	 x="0px" y="0px" width="64px" height="64px" viewBox="0 0 64 64" enable-background="new 0 0 64 64" xml:space="preserve">
<linearGradient id="SVGID_1_" gradientUnits="userSpaceOnUse" x1="60.5098" y1="-71.0361" x2="79.5908" y2="-71.0361" gradientTransform="matrix(0.9956 0.0935 -0.0935 0.9956 -67.231 98.3525)">
	<stop  offset="0" style="stop-color:#593A21"/>
	<stop  offset="0.4337" style="stop-color:#3C2817"/>
	<stop  offset="1" style="stop-color:#1A120C"/>
	<a:midPointStop  offset="0" style="stop-color:#593A21"/>
	<a:midPointStop  offset="0.4727" style="stop-color:#593A21"/>
	<a:midPointStop  offset="1" style="stop-color:#1A120C"/>
</linearGradient>
<path fill="url(#SVGID_1_)" d="M11.721,20.662c-0.175-0.013-0.357,0.768-0.357,0.768s-1.207-0.938-2.306-0.768
	c-0.135,0.02,0.198,0.512,0.198,0.512s-1.55-0.564-2.912-0.323c-0.15,0.025,0.286,0.545,0.286,0.545s-1.801,0.222-2.827,0.955
	c-0.12,0.086,0.434,0.408,0.434,0.408s-1.303,0.205-1.938,0.921c-0.093,0.105,0.479,0.291,0.479,0.291s-1.279,0.528-1.768,1.346
	c-0.087,0.147,0.64,0.223,0.64,0.223s-1.128,0.767-1.347,1.688c-0.038,0.162,0.656-0.034,0.656-0.034s-0.813,1.378-0.958,2.398
	c-0.033,0.229,0.908-0.149,0.908-0.149s-0.561,1.865-0.095,2.095c0.157,0.078,0.532-0.457,0.532-0.457
	c1.15,2.93-1.536,4.021,0.222,7.797c0,0,1.317-0.035,2.289,2.608c0.534,1.101,0.282,1.801,0.204,2.432
	c-0.075,0.611,1.069-0.619,1.069-0.619s-0.119,1.771,0.236,2.494c0.219,0.442,0.725-0.802,0.725-0.802s-0.076,2.093,0.467,2.404
	c0.393,0.226,0.82-1.475,0.82-1.475s0.38,2.109,0.731,1.9c0.572-0.341,0.757-2.403,0.757-2.403s0.53,0.94,0.824,1.159
	c0.32,0.239,0.942-2.762,0.942-2.762s0.467,1.464,0.824,1.329c0.452-0.17,1.537-2.455,1.537-2.455s0.063,2.167,0.631,1.937
	c0.777-0.315,1.735-2.141,1.735-2.141s0.136,2.037,0.751,1.872c1.521-0.411,2.885-12.963,2.885-12.963S15.728,20.935,11.721,20.662z
	"/>
<path fill="#8A6249" d="M4.061,40.235c0.62,1.231-0.506,1.801-1.175,1.855C2.272,42.128,2.066,40.791,4.061,40.235z"/>
<path fill="#A67658" d="M1.509,38.652c0.065-0.703,2.623,0.649,2.552,1.583c-0.05,0.695-0.911,1.322-1.584,1.374
	c-0.608,0.038-0.691-0.595-1.083-1.295C1.244,40.05,1.465,39.174,1.509,38.652z"/>
<path fill="#1A1626" d="M2.707,40.144c-0.344,0.347-1.195,0.645-0.629,0.888C2.709,41.296,3.257,39.594,2.707,40.144z"/>
<path fill="#A67658" d="M9.313,31.392c2.511-0.484,2.599-3.736,2.272-3.6c-0.509,0.221-1.912,0.659-2.976,1.763
	C8.495,29.681,8.999,31.452,9.313,31.392z"/>
<path fill="#805B43" d="M9.711,30.912c1.722-0.373,1.915-2.863,1.623-2.731C9.371,29.071,9.399,30.984,9.711,30.912z"/>
<path fill="#F6C799" d="M4.953,27.205c-1.117,0.457,0.493,3.97,1.644,3.458c6.576-2.918-1.324-11.115-3.65-9.939
	C2.602,20.897,8.864,25.615,4.953,27.205z"/>
<path fill="#755039" d="M26.98,52.623c0,0,0.675,2.16,0.604,3.972c-0.022,0.615,1.691,1.188,2.064,0.809
	c1.201-1.22,0.825-4.959,0.825-4.959L26.98,52.623z"/>
<path fill="#1A1626" d="M27.585,56.595c-1.959,0.681-2.599,3.328-2.599,3.328h2.75c0,0,1.744-0.498,1.913-2.52
	C27.872,57.675,27.585,56.595,27.585,56.595z"/>
<path fill="#3A2717" d="M31.832,51.928c0,0,0.68-0.004,0.795-0.173c0.417-0.607-0.423-2.928-0.423-2.928s0.59-0.158,0.659-0.332
	c0.381-0.955-1.364-3.883-1.364-3.883l-8.797-1.278l2.284,10.844l1.665-0.715c0,0-0.271,1.518,0.101,1.737
	c0.378,0.227,1.581-0.771,1.581-0.771s0.391,1.293,0.764,1.3c0.345,0.007,0.751-1.176,0.751-1.176s0.743,0.998,1.06,0.868
	c0.322-0.132,0.169-1.396,0.169-1.396s0.686,0.26,0.842,0.114C32.322,53.769,31.832,51.928,31.832,51.928z"/>
<path fill="#755039" d="M62.227,36.324h1.099c0,0,0.16-5.168-0.177-6.752c-0.612-2.882-4.355-4.284-6.218-4.364
	c-0.508,4.844,4.112,1.444,5.092,5.764C62.32,32.28,62.227,36.324,62.227,36.324z"/>
<path fill="#523828" d="M47.463,38.63c2.255,8.149,9.047,10.832,10.085,12.287c0.425,0.588,0.306,5.249-0.959,6.398
	c-0.361,0.341,1.302,1.152,1.702,0.882c2.64-1.808,0.739-5.565,1.57-7.915c0.295-0.845,1.733-2.573,1.266-3.297
	c-3.448-5.333,0.42-6.364-0.003-14.628C60.901,28.082,46.378,34.709,47.463,38.63z"/>
<path fill="#302C3B" d="M56.724,57.163c-1.916,0.565-2.538,2.76-2.538,2.76h2.684c0,0,1.703-0.422,1.867-2.089
	C57.001,58.057,56.724,57.163,56.724,57.163z"/>
<linearGradient id="SVGID_2_" gradientUnits="userSpaceOnUse" x1="42.4922" y1="47.3027" x2="42.4922" y2="17.8013">
	<stop  offset="0.097" style="stop-color:#523828"/>
	<stop  offset="0.1827" style="stop-color:#5B3E2C"/>
	<stop  offset="0.3862" style="stop-color:#6A4833"/>
	<stop  offset="0.6274" style="stop-color:#724E38"/>
	<stop  offset="1" style="stop-color:#755039"/>
	<a:midPointStop  offset="0.097" style="stop-color:#523828"/>
	<a:midPointStop  offset="0.2121" style="stop-color:#523828"/>
	<a:midPointStop  offset="1" style="stop-color:#755039"/>
</linearGradient>
<path fill="url(#SVGID_2_)" d="M25.225,42.332c12.954,10.419,30.967,1.682,33.485-1.244c3.926-4.551,3.896-13.406-0.213-15.226
	c-5.485-2.428-9.296-2.666-13.954-5.814C29.475,9.871,18.924,37.267,25.225,42.332z"/>
<linearGradient id="SVGID_3_" gradientUnits="userSpaceOnUse" x1="54.9912" y1="40.8516" x2="49.1467" y2="29.0743">
	<stop  offset="0.097" style="stop-color:#755039"/>
	<stop  offset="0.8242" style="stop-color:#755039;stop-opacity:0"/>
	<a:midPointStop  offset="0.097" style="stop-color:#755039"/>
	<a:midPointStop  offset="0.456" style="stop-color:#755039"/>
	<a:midPointStop  offset="0.8242" style="stop-color:#755039;stop-opacity:0"/>
</linearGradient>
<path fill="url(#SVGID_3_)" d="M42.247,37.438c3.331,8.318,6.65,8.899,10.24,12.359c0.598,0.578-0.208,1.946,0.83,3.394
	c0.424,0.597,1.219,5.066-0.044,6.216c-0.363,0.34,1.303,1.149,1.703,0.881c2.64-1.807,1.19-5.275,2.021-7.634
	c0.295-0.837,1.907-3.238,1.364-3.918c-4.606-5.775,3.256-8.366,1.187-21.108C58.862,23.405,40.732,33.654,42.247,37.438z"/>
<path fill="#302C3B" d="M53.409,59.254C51.494,59.816,50.873,62,50.873,62h2.684c0,0,1.702-0.411,1.865-2.077
	C53.685,60.146,53.409,59.254,53.409,59.254z"/>
<path fill="#755039" d="M20.795,54.43c0,0-0.57,1.896-1.367,4.334c-0.379,1.159,1.803,1.618,2.29,0.939
	c1.869-2.593,1.715-4.42,1.715-4.42L20.795,54.43z"/>
<path fill="#1A1626" d="M19.428,58.764C17.065,59.446,16.38,62,16.38,62h3.311c0,0,1.826-0.276,2.027-2.297
	C19.578,59.972,19.428,58.764,19.428,58.764z"/>
<linearGradient id="SVGID_4_" gradientUnits="userSpaceOnUse" x1="29.6196" y1="58.5313" x2="29.6196" y2="14.0005">
	<stop  offset="0" style="stop-color:#1A120C"/>
	<stop  offset="0.6782" style="stop-color:#5A3920"/>
	<stop  offset="1" style="stop-color:#734928"/>
	<a:midPointStop  offset="0" style="stop-color:#1A120C"/>
	<a:midPointStop  offset="0.4631" style="stop-color:#1A120C"/>
	<a:midPointStop  offset="1" style="stop-color:#734928"/>
</linearGradient>
<path fill="url(#SVGID_4_)" d="M19.383,49.848c0,0-1.134,2.481-0.602,3.038c0.105,0.108,0.596-0.102,0.596-0.102
	s-0.974,1.657-0.632,2.076c0.098,0.119,0.609-0.068,0.609-0.068s-1.006,1.594-0.656,1.975c0.173,0.188,0.984-0.254,0.984-0.254
	s-0.123,1.225,0.188,1.364c0.292,0.131,1.06-0.732,1.06-0.732s0.199,1.286,0.555,1.38c0.403,0.107,1.31-1.048,1.31-1.048
	s0.517,0.659,0.742,0.594c0.386-0.113,0.537-1.533,0.537-1.533s0.919-0.033,1.079-0.262c0.251-0.356-0.167-1.739-0.167-1.739
	s0.795-0.144,0.909-0.362c0.249-0.479-0.473-2.109-0.473-2.109s1.003-0.425,1.137-0.738c0.179-0.418-0.329-1.795-0.329-1.795
	s1.383-0.199,1.599-0.569c0.246-0.42-0.319-1.927-0.319-1.927s1.292,0.091,1.479-0.238c0.283-0.498-0.807-2.148-0.807-2.148
	s1.26-0.456,1.362-0.849c0.16-0.616-1.211-2.235-1.211-2.235s1.184-0.449,1.295-0.82c0.174-0.581-0.976-2.216-0.976-2.216
	s1.184-0.504,1.275-0.884c0.148-0.599-1.125-2.185-1.125-2.185s1.124-0.795,1.195-1.218c0.102-0.62-1.077-2.261-1.077-2.261
	s1.146-0.559,1.246-0.937c0.166-0.634-1.027-2.404-1.027-2.404s1.082-0.08,1.263-0.357c0.367-0.569-0.371-2.693-0.371-2.693
	s1.373,0.221,1.683-0.068c0.345-0.319,0.236-1.875,0.236-1.875s1.587,1.207,2.153,1.023c0.55-0.181,1.127-2.047,1.127-2.047
	s1.118,1.237,1.595,1.134c0.536-0.119,1.114-1.918,1.114-1.918s1.678,2.123,2.422,1.927c0.57-0.149,0.91-2.199,0.91-2.199
	s1.368,1.717,1.95,1.517c0.397-0.135,0.438-1.637,0.438-1.637s1.074,1.314,1.515,1.143c0.349-0.137,0.54-1.244,0.54-1.244
	s1.427,0.388,1.597-0.052c0.184-0.476-1.082-1.222-1.082-1.222s0.024-0.715-0.096-0.942c-0.246-0.463-2.053-0.295-2.053-0.295
	s0.183-0.732,0.033-0.898c-0.373-0.418-2.221-0.135-2.221-0.135s-0.229-0.758-0.438-0.889c-0.485-0.305-2.287,0-2.287,0
	s-0.416-0.969-0.707-1.124c-0.614-0.33-2.776,0.085-2.776,0.085s-0.372-0.587-0.572-0.683c-0.616-0.295-2.725-0.051-2.725-0.051
	s-0.502-0.516-0.724-0.579c-0.513-0.149-2.12,0.238-2.12,0.238s-0.696-0.538-0.977-0.579c-0.424-0.063-1.665,0.408-1.665,0.408
	S26.006,14.007,25.658,14c-0.286-0.005-1.043,0.476-1.043,0.476s-1.05-0.469-1.416-0.424c-0.205,0.025-0.717,0.417-0.717,0.417
	s-1.079-0.237-1.425-0.141c-0.234,0.065-0.781,0.584-0.781,0.584s-1.609-0.076-1.814,0.343c-0.045,0.095,0.192,0.375,0.192,0.375
	s-1.729,0.597-1.771,1.124c-0.007,0.095,0.284,0.249,0.284,0.249s-1.925,0.69-1.919,1.271c0.001,0.105,0.348,0.222,0.348,0.222
	s-2.303,1.385-2.092,2.099c0.051,0.168,0.681,0.136,0.681,0.136s-2.61,2.233-2.239,3.122c0.108,0.258,1.094,0.153,1.094,0.153
	s-1.506,2.749-0.925,3.408c0.183,0.206,1.077-0.17,1.077-0.17s-0.703,3.168-0.034,3.853c0.255,0.26,1.447,0,1.447,0
	s-1,3.024-0.546,3.893c0.171,0.325,1.303,0.643,1.303,0.643s-1.16,2.604-0.694,3.304c0.212,0.322,1.502,0.276,1.502,0.276
	s-0.609,2.361-0.118,2.881c0.187,0.197,1.077,0,1.077,0s-0.516,2.092-0.05,2.506c0.165,0.148,0.873-0.13,0.873-0.13
	s-0.431,2.493,0.135,2.965c0.116,0.097,0.594-0.091,0.594-0.091s-0.466,2.524,0.159,2.851
	C18.981,50.268,19.383,49.848,19.383,49.848z"/>
<path fill="#1A1626" d="M4.667,33.437c-1.067,0-1.486,0.902-1.393,1.605c0.07,0.521,2.715,0.521,2.783,0
	C6.156,34.279,5.641,33.437,4.667,33.437z"/>
<path fill="#FFFFFF" d="M4.667,33.688c-0.77,0-1.393,0.57-1.393,1.274c0,0.608,0.623,1.274,1.393,1.274
	c0.768,0,1.391-0.777,1.391-1.274C6.058,34.258,5.435,33.688,4.667,33.688z"/>
<ellipse fill="#1A1626" cx="4.533" cy="34.95" rx="1.038" ry="1.013"/>
<path fill="#FFFFFF" d="M4.45,34.441c0,0.368-0.567,0.368-0.567,0S4.45,34.073,4.45,34.441z"/>
<path fill="#1A1626" d="M5.584,32.718c0.647-0.088-1.702-0.773-2.171-0.018C3.14,33.143,4.184,32.907,5.584,32.718z"/>
<path fill="#523828" d="M63.756,38.156c0.283-0.957,0.209-1.662-0.06-2.211c0.134,0.199,0.24,0.406,0.288,0.615
	c0.142-1.088-0.717-1.976-1.634-2.155c-0.816-0.159,0.104,2.24-0.833,3.896c-1.056,1.861-0.124,3.467-0.029,3.073
	c0.178-0.732,0.91-0.74,1.521-1.764c-0.042,0.123-0.085,0.246-0.134,0.356c0.397-0.481,0.851-1.563,0.848-2.454
	C63.753,37.738,63.769,37.954,63.756,38.156z"/>
</svg>
