<?xml version="1.0" encoding="utf-8"?>
<!-- Generator: Adobe Illustrator 24.1.2, SVG Export Plug-In . SVG Version: 6.00 Build 0)  -->
<svg version="1.1" id="Layer_1" xmlns="http://www.w3.org/2000/svg" xmlns:xlink="http://www.w3.org/1999/xlink" x="0px" y="0px"
	 width="64px" height="64px" viewBox="0 0 64 64" style="enable-background:new 0 0 64 64;" xml:space="preserve">
<style type="text/css">
	.st0{fill:url(#SVGID_1_);}
	.st1{fill:#302C3B;}
	.st2{fill:url(#SVGID_2_);}
	.st3{fill:url(#SVGID_3_);}
	.st4{fill:url(#SVGID_4_);}
</style>
<linearGradient id="SVGID_1_" gradientUnits="userSpaceOnUse" x1="-590.2379" y1="-263.2639" x2="-584.6621" y2="-263.2639" gradientTransform="matrix(0.7071 0.7071 -0.7071 0.7071 232.02 662.7514)">
	<stop  offset="0" style="stop-color:#ECF1F5"/>
	<stop  offset="0.2719" style="stop-color:#E1E7EB"/>
	<stop  offset="0.7419" style="stop-color:#C5CCD0"/>
	<stop  offset="1" style="stop-color:#B3BABF"/>
</linearGradient>
<path class="st0" d="M4.76,63.18c-1.09,1.09-2.85,1.09-3.94,0c-1.09-1.09-1.09-2.85,0-3.94c1.09-1.09,2.85-1.09,3.94,0
	C5.85,60.33,5.85,62.09,4.76,63.18z"/>
<path class="st1" d="M61.8,2.05c-8.09-4.07-19.06,7.39-13.78,7.59C51.48,9.76,50.68,0.35,61.8,2.05z M62.57,2.38
	c-11.68-0.04-7.14,7.91-14.62,7.79C36.1,10.1,56.24-5.23,62.57,2.38z"/>
<linearGradient id="SVGID_2_" gradientUnits="userSpaceOnUse" x1="-131.5458" y1="104.3438" x2="-129.5472" y2="104.3438" gradientTransform="matrix(0.7071 0.7071 -0.7071 0.7071 197.7212 50.9502)">
	<stop  offset="0.0848" style="stop-color:#CFD8DD"/>
	<stop  offset="0.891" style="stop-color:#A0AEB4"/>
	<stop  offset="1" style="stop-color:#99A8AE"/>
</linearGradient>
<path class="st2" d="M52.55,13.32l-1.88-1.88c0,0-28.88,28.92-39.54,39.54c-0.64,0.65,1.24,2.53,1.88,1.88
	C23.7,42.2,52.55,13.32,52.55,13.32z"/>
<linearGradient id="SVGID_3_" gradientUnits="userSpaceOnUse" x1="-131.9113" y1="129.4865" x2="-129.2479" y2="129.4865" gradientTransform="matrix(0.7071 0.7071 -0.7071 0.7071 197.7212 50.9502)">
	<stop  offset="0" style="stop-color:#FF000E"/>
	<stop  offset="0.2335" style="stop-color:#FA000D"/>
	<stop  offset="0.5011" style="stop-color:#EC000A"/>
	<stop  offset="0.7844" style="stop-color:#D60005"/>
	<stop  offset="1" style="stop-color:#BF0000"/>
</linearGradient>
<path class="st3" d="M24.64,41.24c-0.44,0.44-2.24-1.51-1.89-1.86c0,0-16.97,16.96-19.4,19.39c-0.44,0.44,1.44,2.32,1.88,1.88
	C7.83,58.06,24.64,41.24,24.64,41.24z"/>
<linearGradient id="SVGID_4_" gradientUnits="userSpaceOnUse" x1="-99.0256" y1="40.2722" x2="-92.3794" y2="40.2722" gradientTransform="matrix(0.8192 0.5736 -0.5736 0.8192 158.5261 28.6894)">
	<stop  offset="0" style="stop-color:#5B666E"/>
	<stop  offset="0.3" style="stop-color:#525A64"/>
	<stop  offset="0.8392" style="stop-color:#3C3B49"/>
	<stop  offset="1" style="stop-color:#343040"/>
</linearGradient>
<path class="st4" d="M52.76,14.12c-0.53,0.63-3.53-2.36-2.89-2.89c3.7-3.1,7.17-6.38,10.16-10.16C62.5-1.7,65.7,1.5,62.93,3.96
	C59.14,6.95,55.86,10.42,52.76,14.12z"/>
</svg>
