<?xml version="1.0" encoding="utf-8"?>
<!-- Generator: Adobe Illustrator 15.0.0, SVG Export Plug-In . SVG Version: 6.00 Build 0)  -->
<!DOCTYPE svg PUBLIC "-//W3C//DTD SVG 1.1//EN" "http://www.w3.org/Graphics/SVG/1.1/DTD/svg11.dtd" [
	<!ENTITY ns_flows "http://ns.adobe.com/Flows/1.0/">
	<!ENTITY ns_extend "http://ns.adobe.com/Extensibility/1.0/">
	<!ENTITY ns_ai "http://ns.adobe.com/AdobeIllustrator/10.0/">
	<!ENTITY ns_graphs "http://ns.adobe.com/Graphs/1.0/">
]>
<svg version="1.1" id="Layer_1" xmlns:x="&ns_extend;" xmlns:i="&ns_ai;" xmlns:graph="&ns_graphs;"
	 xmlns="http://www.w3.org/2000/svg" xmlns:xlink="http://www.w3.org/1999/xlink" xmlns:a="http://ns.adobe.com/AdobeSVGViewerExtensions/3.0/"
	 x="0px" y="0px" width="64px" height="64px" viewBox="0 0 64 64" enable-background="new 0 0 64 64" xml:space="preserve">
<path fill="#B37A58" d="M61.448,36.08c1.673,4.083,0.077,7.885,0.447,11.466c0.152,1.476,0.969,1.601,1.115-0.053
	c0.352-3.98,2.138-9.075-0.177-15.082C61.604,29.229,60.754,29.568,61.448,36.08z"/>
<path fill="#DB9B6E" d="M27.919,14.271c-0.976-3.242-3.657-4.633-5.085-5.151c-0.646-0.238-0.805-0.159-0.568,0.423
	c0.343,0.848,0.576,2.035,0.489,3.51C22.653,14.896,28.335,15.657,27.919,14.271z"/>
<path fill="#DB9B6E" d="M30.418,16.729c-0.124-3.391-2.363-5.458-3.608-6.339c-0.563-0.408-0.734-0.372-0.65,0.253
	c0.112,0.911,0.039,2.118-0.417,3.52C25.175,15.916,30.47,18.176,30.418,16.729z"/>
<path fill="#DB9B6E" d="M24.636,15.999c1.226-3.148,4.01-4.315,5.471-4.712c0.662-0.187,0.812-0.091,0.529,0.466
	c-0.405,0.82-0.73,1.981-0.76,3.458C29.837,17.06,24.114,17.343,24.636,15.999z"/>
<path fill="#C4855E" d="M58.979,26.808c3.143,1.2,4.33,3.99,4.74,5.454c0.192,0.666,0.099,0.818-0.457,0.539
	c-0.819-0.4-1.978-0.715-3.445-0.729C57.979,32.052,57.64,26.297,58.979,26.808z"/>
<path fill="#C48964" d="M56.568,25.989c3.345-0.321,5.639,1.65,6.648,2.782c0.466,0.511,0.45,0.689-0.172,0.686
	c-0.911,0.007-2.088,0.238-3.411,0.88C57.978,31.138,55.143,26.128,56.568,25.989z"/>
<path fill="#C98E65" d="M54.756,24.11c3.217-0.979,5.852,0.498,7.064,1.406c0.556,0.408,0.575,0.586-0.034,0.707
	c-0.893,0.188-2,0.649-3.171,1.541C57.148,28.877,53.386,24.531,54.756,24.11z"/>
<path fill="#DB9B6E" d="M34.69,15.863c2.78-1.898,5.733-1.275,7.159-0.771c0.653,0.223,0.725,0.387,0.177,0.684
	c-0.795,0.447-1.717,1.219-2.571,2.422C38.384,19.698,33.506,16.677,34.69,15.863z"/>
<path fill="#DB9B6E" d="M36.818,15.869c3.194-1.053,5.86,0.367,7.093,1.248c0.565,0.396,0.589,0.572-0.017,0.706
	c-0.889,0.209-1.986,0.694-3.138,1.612C39.315,20.581,35.457,16.32,36.818,15.869z"/>
<path fill="#CF9268" d="M56.613,29.446c1.629-2.957,0.745-5.86,0.119-7.243c-0.28-0.635-0.449-0.69-0.693-0.116
	c-0.371,0.838-1.052,1.831-2.165,2.796C52.485,26.092,55.917,30.706,56.613,29.446z"/>
<path fill="#DB9B6E" d="M40.581,20.206c0.423-3.354-1.466-5.721-2.558-6.772c-0.493-0.484-0.67-0.474-0.686,0.15
	c-0.037,0.917-0.303,2.094-0.981,3.404C35.51,18.628,40.398,21.637,40.581,20.206z"/>
<path fill="#CF9268" d="M57.225,27.489c-0.049-3.38-2.25-5.456-3.479-6.343c-0.557-0.41-0.73-0.374-0.659,0.246
	c0.093,0.914-0.006,2.116-0.494,3.509C51.983,26.646,57.242,28.933,57.225,27.489z"/>
<path fill="#DB9B6E" d="M23.302,11.681c-1.595-2.881-4.466-3.526-5.95-3.664c-0.669-0.066-0.809,0.058-0.461,0.553
	c0.501,0.742,0.966,1.825,1.177,3.283C18.335,13.663,23.986,12.924,23.302,11.681z"/>
<path fill="#DB9B6E" d="M18.63,11.088c-2.388-1.99-4.919-1.429-6.143-0.953c-0.558,0.211-0.617,0.376-0.153,0.695
	c0.689,0.476,1.478,1.274,2.218,2.521C15.465,14.901,19.651,11.946,18.63,11.088z"/>
<path fill="#DB9B6E" d="M16.789,11.68c-3.012-0.619-5,1.09-5.867,2.1c-0.399,0.452-0.38,0.626,0.176,0.688
	c0.822,0.09,1.882,0.42,3.099,1.171C15.702,16.57,18.079,11.947,16.789,11.68z"/>
<path fill="#DB9B6E" d="M16.454,12.598c-3.055,0.311-4.478,2.541-5.023,3.769c-0.256,0.553-0.188,0.713,0.36,0.605
	c0.814-0.16,1.92-0.162,3.297,0.191C16.791,17.604,17.764,12.469,16.454,12.598z"/>
<path fill="#804F33" d="M29.759,36.135c3.937,9.166,4.288,17.221,4.661,20.415c0.159,1.373-1.103,2.294-0.692,4.019h6.514
	c1.758,0,1.416-3.218,1.159-5.631c-0.872-8.146,0.514-7.938,1.008-11.004C43.271,38.588,28.317,32.774,29.759,36.135z"/>
<path fill="#E0B284" d="M35.142,60.568h-1.445C33.696,59.195,35.142,59.195,35.142,60.568z"/>
<path fill="#E0B284" d="M36.59,60.568h-1.448C35.142,59.195,36.59,59.195,36.59,60.568z"/>
<path fill="#804F33" d="M54.784,55.505c0.64,2.428,0.096,2.624,0.352,5.087c0,0,4.318,0,5.902,0c1.431,0,1.757-2.027,1.027-3.647
	c-3.611-8.042,0.47-16.354-2.596-24.679C57.667,27.372,50.517,39.313,54.784,55.505z"/>
<path fill="#E0B284" d="M56.584,60.592h-1.448C55.136,59.215,56.584,59.215,56.584,60.592z"/>
<path fill="#E0B284" d="M58.031,60.592h-1.447C56.584,59.215,58.031,59.215,58.031,60.592z"/>
<linearGradient id="SVGID_1_" gradientUnits="userSpaceOnUse" x1="40.3779" y1="62" x2="40.3779" y2="11.9322">
	<stop  offset="0" style="stop-color:#9C644C"/>
	<stop  offset="0.2032" style="stop-color:#A36B50"/>
	<stop  offset="0.5094" style="stop-color:#B87D5B"/>
	<stop  offset="0.879" style="stop-color:#DA9A6D"/>
	<stop  offset="0.8909" style="stop-color:#DB9B6E"/>
	<a:midPointStop  offset="0" style="stop-color:#9C644C"/>
	<a:midPointStop  offset="0.6182" style="stop-color:#9C644C"/>
	<a:midPointStop  offset="0.8909" style="stop-color:#DB9B6E"/>
</linearGradient>
<path fill="url(#SVGID_1_)" d="M22.029,22.272c-2.593,9.491,2.378,9.555,2.139,13.309c-0.712,11.108-2.582,12.344-4.54,19.914
	c-0.883,3.418-0.951,2.438-1.865,4.575C17.399,60.914,18.466,62,19.627,62h3.606c1.525,0,4.544-7.146,5.016-8.007
	c2.566-4.671,5.233-7.321,6.088-8.616c6.69,0.793,3.503,3.061,15.397,2.525c0.011,3.133-0.571,6.363-1.34,9.896
	c-0.221,1.014-1.4,1.94-1.146,4.201h7.745c1.911,0,1.235-3.52,1.269-4.323c0.559-13.329,6.8-11.558,6.803-22.399
	c0.002-13.724-12.593-12.778-17.935-16.379C34.797,11.932,26.166,7.127,22.029,22.272z"/>
<linearGradient id="SVGID_2_" gradientUnits="userSpaceOnUse" x1="42.042" y1="46.5869" x2="43.1518" y2="37.4312">
	<stop  offset="0" style="stop-color:#9C644C"/>
	<stop  offset="0.0896" style="stop-color:#9C644C;stop-opacity:0.9104"/>
	<stop  offset="1" style="stop-color:#9C644C;stop-opacity:0"/>
	<a:midPointStop  offset="0" style="stop-color:#9C644C"/>
	<a:midPointStop  offset="0.25" style="stop-color:#9C644C"/>
	<a:midPointStop  offset="1" style="stop-color:#9C644C;stop-opacity:0"/>
</linearGradient>
<path fill="url(#SVGID_2_)" d="M49.049,36.273l-11.745-1.718c0,0,0.656,6.923-2.966,10.821c0,0,0.792,1.264,2.075,2.313
	c0.581,0.483,0.769,0.458,0.724-0.221c-0.024-0.43,0.002-0.924,0.082-1.458c0.746,1.439,1.771,2.478,2.495,3.07
	c0.579,0.481,0.768,0.461,0.727-0.222c-0.018-0.295-0.007-0.623,0.021-0.969c1.156,1.412,2.629,2.196,3.584,2.583
	c0.678,0.285,0.857,0.198,0.642-0.425c-0.159-0.491-0.274-1.084-0.321-1.761c0.888,0.761,1.841,1.175,2.509,1.385
	c0.615,0.201,0.773,0.102,0.578-0.491c-0.093-0.284-0.165-0.619-0.226-0.976c0.489,0.269,0.953,0.457,1.324,0.572
	c0.616,0.201,0.774,0.102,0.578-0.49c-0.03-0.094-0.053-0.208-0.08-0.311c0.232-0.027,0.443-0.043,0.687-0.075
	C49.848,43.024,49.049,36.273,49.049,36.273z"/>
<path fill="#E0B284" d="M21.076,62h-1.448C19.627,60.625,21.076,60.625,21.076,62z"/>
<path fill="#E0B284" d="M48.746,62h-1.449C47.297,60.626,48.746,60.626,48.746,62z"/>
<path fill="#E0B284" d="M50.192,62h-1.446C48.746,60.626,50.192,60.626,50.192,62z"/>
<path fill="#E0B284" d="M19.141,61.938c0,0-1.09,0-1.416-1.265C18.147,59.094,19.141,60.208,19.141,61.938z"/>
<path fill="#E0B284" d="M12.611,34.758c-0.128-1.021,3.783-2.549,3.803-1.45c0.26,14.319-9.911,17.533-15.45,13.595
	c-1.265-0.899-0.479-1.201,0.301-0.824C6.279,48.526,13.73,43.668,12.611,34.758z"/>
<linearGradient id="SVGID_3_" gradientUnits="userSpaceOnUse" x1="-7.312" y1="109.6045" x2="-7.312" y2="54.7041" gradientTransform="matrix(0.9951 0.0986 -0.0986 0.9951 33.593 -43.6817)">
	<stop  offset="0" style="stop-color:#9C644C"/>
	<stop  offset="0.2032" style="stop-color:#A36B50"/>
	<stop  offset="0.5094" style="stop-color:#B87D5B"/>
	<stop  offset="0.879" style="stop-color:#DA9A6D"/>
	<stop  offset="0.8909" style="stop-color:#DB9B6E"/>
	<a:midPointStop  offset="0" style="stop-color:#9C644C"/>
	<a:midPointStop  offset="0.6182" style="stop-color:#9C644C"/>
	<a:midPointStop  offset="0.8909" style="stop-color:#DB9B6E"/>
</linearGradient>
<path fill="url(#SVGID_3_)" d="M18.948,11.775c-2.072,0.844-6.171-1.473-6.796,6.188c-0.141,1.708-4.191,8.619-3.237,14.246
	c0.778,4.6,0.444,8.45-0.074,13.099c-1.6,14.321,5.98,15.394,9.494,7.618c0.429-0.953-0.562-0.42-1.372-0.577
	c-0.818-0.161-0.773-1.351-1.167-0.595c-1.862,3.583-3.313,2.434-2.09-6.855c0.724-5.472,1.991-10.31,4.112-13.579
	c0,0,0.66,0.607,4.086-0.762c0,0,12.062-7.236,7.256-17.448C28.471,11.644,23.12,10.078,18.948,11.775z"/>
<path fill="#946144" d="M15.683,36.638c0.678,0.834,2.611-3.657,2.425-5.178c1.01,0.46,3.311,0.118,3.872-0.805
	c0,0-0.551-1.212-0.488-5.417c-1.01,4.738-2.858,5.587-4.12,4.774c-0.352-0.227,1.311-1.214,1.479-2.78
	c-0.83,1.237-1.79,1.505-2.321,1.507c0.564,7.467-4.137,3.937-4.545,7.01C11.913,36.296,15.076,35.893,15.683,36.638z"/>
<path fill="#946144" d="M15.508,26.172c2.089-1.313,1.708-1.431,2.571-2.623c0.821-1.135,1.745-1.379,1.215-0.041
	C18.781,24.815,18.635,25.317,15.508,26.172z"/>
<path fill="#F0C59C" d="M12.312,35.731c-0.131-1.037,4.382-1.719,4.404-0.59C16.981,49.789,6.431,53.016,0.693,49.33
	c-1.314-0.844-0.498-1.204,0.31-0.863C6.199,50.667,13.47,44.789,12.312,35.731z"/>
<path fill="#946144" d="M14.435,21.236c-1.297,0.065-1.736,1.151-1.57,1.973c0.125,0.609,3.337,0.446,3.38-0.173
	C16.309,22.132,15.618,21.174,14.435,21.236z"/>
<path fill="#FFFFFF" d="M14.455,21.532c-0.935,0.045-1.649,0.754-1.596,1.585c0.045,0.713,0.852,1.458,1.787,1.41
	c0.935-0.049,1.631-1,1.594-1.585C16.186,22.115,15.387,21.482,14.455,21.532z"/>
<path fill="#1A1626" d="M14.309,21.829c0.7-0.034,1.297,0.468,1.341,1.132c0.042,0.655-0.489,1.217-1.188,1.253
	c-0.695,0.038-1.295-0.468-1.337-1.126C13.083,22.428,13.614,21.863,14.309,21.829z"/>
<path fill="#FFFFFF" d="M14.249,22.43c0.028,0.437-0.661,0.469-0.69,0.037C13.532,22.032,14.22,21.995,14.249,22.43z"/>
<path fill="#946144" d="M16.064,20.604c0.84,0.018-2.024-1.273-2.766-0.451C12.867,20.642,14.241,20.559,16.064,20.604z"/>
<linearGradient id="SVGID_4_" gradientUnits="userSpaceOnUse" x1="-5.2886" y1="65.8574" x2="1.1285" y2="63.3167" gradientTransform="matrix(0.9951 0.0986 -0.0986 0.9951 33.593 -43.6817)">
	<stop  offset="0" style="stop-color:#DB9B6E;stop-opacity:0"/>
	<stop  offset="0.0361" style="stop-color:#DB9B6E;stop-opacity:0.0361"/>
	<stop  offset="1" style="stop-color:#DB9B6E"/>
	<a:midPointStop  offset="0" style="stop-color:#DB9B6E;stop-opacity:0"/>
	<a:midPointStop  offset="0.2788" style="stop-color:#DB9B6E;stop-opacity:0"/>
	<a:midPointStop  offset="1" style="stop-color:#DB9B6E"/>
</linearGradient>
<path fill="url(#SVGID_4_)" d="M28.066,16.244c-1.833-2.296-5.581-1.061-6.623,0.769c-1.12,1.973,1.537,9.486,2.352,9.277
	C30.339,24.657,28.666,16.991,28.066,16.244z"/>
<linearGradient id="SVGID_5_" gradientUnits="userSpaceOnUse" x1="72.8164" y1="107.7051" x2="77.7356" y2="111.5849" gradientTransform="matrix(0.9984 -0.0578 0.0578 0.9984 -56.5299 -84.8284)">
	<stop  offset="0" style="stop-color:#804F33"/>
	<stop  offset="0.2305" style="stop-color:#905C3D;stop-opacity:0.7695"/>
	<stop  offset="0.6784" style="stop-color:#B97F58;stop-opacity:0.3216"/>
	<stop  offset="1" style="stop-color:#DB9B6E;stop-opacity:0"/>
	<a:midPointStop  offset="0" style="stop-color:#804F33"/>
	<a:midPointStop  offset="0.5576" style="stop-color:#804F33"/>
	<a:midPointStop  offset="1" style="stop-color:#DB9B6E;stop-opacity:0"/>
</linearGradient>
<path fill="url(#SVGID_5_)" d="M27.472,17.313c-1.847-2.053-3.952-0.657-4.182,0.387c-0.416,1.892,0.867,7.437,1.477,7.257
	C29.238,23.731,28.05,17.962,27.472,17.313z"/>
</svg>
