<?xml version="1.0" encoding="utf-8"?>
<!-- Generator: Adobe Illustrator 15.0.0, SVG Export Plug-In . SVG Version: 6.00 Build 0)  -->
<!DOCTYPE svg PUBLIC "-//W3C//DTD SVG 1.1//EN" "http://www.w3.org/Graphics/SVG/1.1/DTD/svg11.dtd" [
	<!ENTITY ns_flows "http://ns.adobe.com/Flows/1.0/">
	<!ENTITY ns_extend "http://ns.adobe.com/Extensibility/1.0/">
	<!ENTITY ns_ai "http://ns.adobe.com/AdobeIllustrator/10.0/">
	<!ENTITY ns_graphs "http://ns.adobe.com/Graphs/1.0/">
]>
<svg version="1.1" id="Layer_1" xmlns:x="&ns_extend;" xmlns:i="&ns_ai;" xmlns:graph="&ns_graphs;"
	 xmlns="http://www.w3.org/2000/svg" xmlns:xlink="http://www.w3.org/1999/xlink" xmlns:a="http://ns.adobe.com/AdobeSVGViewerExtensions/3.0/"
	 x="0px" y="0px" width="64px" height="64px" viewBox="0 0 64 64" enable-background="new 0 0 64 64" xml:space="preserve">
<linearGradient id="SVGID_1_" gradientUnits="userSpaceOnUse" x1="13.7505" y1="55.2969" x2="59.4791" y2="55.2969">
	<stop  offset="0" style="stop-color:#2B998D"/>
	<stop  offset="0.0547" style="stop-color:#30A194"/>
	<stop  offset="0.1734" style="stop-color:#38AC9F"/>
	<stop  offset="0.3" style="stop-color:#3AB0A2"/>
	<a:midPointStop  offset="0" style="stop-color:#2B998D"/>
	<a:midPointStop  offset="0.28" style="stop-color:#2B998D"/>
	<a:midPointStop  offset="0.3" style="stop-color:#3AB0A2"/>
</linearGradient>
<path fill="url(#SVGID_1_)" d="M55.275,52.715c-2.686-1.293-12.041-4.121-12.041-4.121l-20.494,0.035c0,0-5.191,1.572-8.932,2.902
	v9.805C28.767,62.627,60,62.035,60,59.559C60,57.143,59.18,54.586,55.275,52.715z"/>
<path fill="#2B998D" d="M51,61.416l-0.75,0.066C50.25,56.447,51,56.381,51,61.416z"/>
<path fill="#2B998D" d="M22.741,48.629c0,7.668,20.494,7.633,20.494-0.035l-1.844-0.566H24.696L22.741,48.629z"/>
<path fill="#855E45" d="M24.362,48.242c0,6.002,17.279,6.002,17.279,0c0-2.043,0-6.641,0-6.641H24.362
	C24.362,41.602,24.362,46.199,24.362,48.242z"/>
<path id="Path_2132_" fill="#916B50" d="M16.56,25.394c2.545,0.307,4.383,8.813,2.781,11.06c-0.225,0.313-1.535,0.814-2.508-1.168
	c-0.539-1.098-2.092-2.014-2.574-4.277C13.642,28.108,14.027,25.087,16.56,25.394z"/>
<path id="Path_2131_" fill="#916B50" d="M49.44,25.394c-2.545,0.307-4.383,8.813-2.781,11.06c0.225,0.313,1.535,0.814,2.51-1.168
	c0.537-1.098,2.092-2.014,2.572-4.277C52.36,28.108,51.974,25.087,49.44,25.394z"/>
<path id="Path_2130_" fill="#69452D" d="M16.628,27.022c0.664,0.209,1.389,1.221,1.781,2.898c-2.32-0.498-1.74,3.36,0.277,3.433
	c-0.02,0.389-0.045,0.787-0.094,1.207c-0.971-1.408-1.959-0.844-2.938-2.939C14.775,29.733,14.984,26.509,16.628,27.022z"/>
<path id="Path_2129_" fill="#69452D" d="M47.591,29.917c0.395-1.676,1.117-2.686,1.781-2.895c1.643-0.514,1.855,2.711,0.973,4.599
	c-0.979,2.095-1.967,1.531-2.939,2.939c-0.047-0.42-0.074-0.82-0.09-1.209C49.312,33.258,49.884,29.446,47.591,29.917z"/>
<path id="Path_2128_" fill="#916B50" d="M33.001,9.034c-11.027,0-16.339,8.328-15.675,19.908c0.133,2.33,1.582,9.929,2.947,12.655
	c1.398,2.789,6.074,7.09,8.938,7.98c1.811,0.561,5.773,0.561,7.582,0c2.865-0.891,7.543-5.191,8.939-7.98
	c1.369-2.727,2.814-10.324,2.945-12.655C49.345,17.362,44.032,9.034,33.001,9.034z"/>
<path id="Path_2127_" fill="#5E4431" d="M21.019,24.544c2.521-1.336,7.348-1.4,9.146-0.469c0.387,0.178,0.131,1.441-0.193,1.322
	c-2.504-0.99-6.547-1.012-8.893,0.084C20.767,25.624,20.636,24.729,21.019,24.544z"/>
<path id="Path_2126_" fill="#5E4431" d="M44.981,24.544c-2.521-1.336-7.346-1.4-9.146-0.469c-0.385,0.178-0.131,1.441,0.193,1.322
	c2.51-0.99,6.547-1.012,8.895,0.084C45.233,25.624,45.362,24.729,44.981,24.544z"/>
<path id="Path_2125_" fill="#69452D" d="M30.025,36.107c0.314-0.219,1.053,0.119,2.976,0.119c1.92,0,2.66-0.338,2.975-0.119
	c0.377,0.266-0.223,1.461-2.975,1.461C30.248,37.568,29.646,36.373,30.025,36.107z"/>
<path id="Path_2124_" fill="#69452D" d="M33.001,40.645c2.479-0.729,6.154,0.346,6.154,0.346c-1.398,1.521-2.424,3.494-6.154,3.494
	c-4.275,0-5.001-2.24-6.156-3.494C26.845,40.99,30.521,39.91,33.001,40.645z"/>
<path id="Path_2123_" fill="#FFFFFF" d="M38.233,41.248c-2.602,2.176-7.851,2.191-10.466,0
	C30.539,41.365,35.442,41.367,38.233,41.248z"/>
<path id="Path_2122_" fill="#FFFFFF" d="M30.548,29.085c0.094,0.73-0.402,1.594-1.773,2.242c-0.871,0.412-2.686,0.896-5.066-0.107
	c-1.066-0.449-2.107-1.847-2.014-2.623C22.986,26.167,29.339,25.812,30.548,29.085z"/>
<linearGradient id="Oval_1_" gradientUnits="userSpaceOnUse" x1="-425.0386" y1="477.4658" x2="-425.0386" y2="478.2236" gradientTransform="matrix(6.5701 0 0 -6.5701 2818.7844 3168.5281)">
	<stop  offset="0" style="stop-color:#A6694A"/>
	<stop  offset="1" style="stop-color:#4F2A1E"/>
	<a:midPointStop  offset="0" style="stop-color:#A6694A"/>
	<a:midPointStop  offset="0.5" style="stop-color:#A6694A"/>
	<a:midPointStop  offset="1" style="stop-color:#4F2A1E"/>
</linearGradient>
<circle id="Oval_290_" fill="url(#Oval_1_)" cx="26.238" cy="29.038" r="2.492"/>
<path id="Path_2121_" fill="#1A1626" d="M24.99,28.991c0,1.725,2.496,1.725,2.496,0C27.486,27.392,24.99,27.392,24.99,28.991z"/>
<path id="Path_2120_" fill="#AB968C" d="M24.611,28.292c0,0.723,1.045,0.723,1.045,0C25.656,27.624,24.611,27.624,24.611,28.292z"/>
<path id="Path_2119_" fill="#69452D" d="M30.56,29.181c-1.014-3.25-7.926-2.77-8.865-0.584
	C22.042,25.798,29.697,25.058,30.56,29.181z"/>
<path id="Path_2118_" fill="#FFFFFF" d="M35.456,29.085c-0.094,0.73,0.4,1.594,1.773,2.242c0.871,0.412,2.684,0.896,5.064-0.107
	c1.07-0.449,2.109-1.847,2.016-2.623C43.019,26.167,36.663,25.812,35.456,29.085z"/>
<linearGradient id="Oval_2_" gradientUnits="userSpaceOnUse" x1="-425.687" y1="477.4658" x2="-425.687" y2="478.2236" gradientTransform="matrix(6.5701 0 0 -6.5701 2836.5149 3168.5281)">
	<stop  offset="0" style="stop-color:#A6694A"/>
	<stop  offset="1" style="stop-color:#4F2A1E"/>
	<a:midPointStop  offset="0" style="stop-color:#A6694A"/>
	<a:midPointStop  offset="0.5" style="stop-color:#A6694A"/>
	<a:midPointStop  offset="1" style="stop-color:#4F2A1E"/>
</linearGradient>
<circle id="Oval_289_" fill="url(#Oval_2_)" cx="39.71" cy="29.038" r="2.492"/>
<path id="Path_2117_" fill="#1A1626" d="M38.464,28.991c0,1.725,2.496,1.725,2.496,0C40.96,27.392,38.464,27.392,38.464,28.991z"/>
<path id="Path_2116_" fill="#AB968C" d="M38.083,28.292c0,0.723,1.047,0.723,1.047,0C39.13,27.624,38.083,27.624,38.083,28.292z"/>
<path id="Path_2115_" fill="#69452D" d="M35.444,29.181c1.012-3.248,7.92-2.783,8.865-0.584
	C43.958,25.798,36.308,25.058,35.444,29.181z"/>
<path fill="#614036" d="M18.916,11.793C21.33,8.532,25.748,6,33.001,6c7.252,0,11.668,2.532,14.082,5.793
	C50.501,16.409,15.5,16.409,18.916,11.793z"/>
<linearGradient id="SVGID_2_" gradientUnits="userSpaceOnUse" x1="1809.1797" y1="31.7915" x2="1809.1797" y2="10.4116" gradientTransform="matrix(-1 0 0 1 1842.1797 0)">
	<stop  offset="0.5" style="stop-color:#3B2118"/>
	<stop  offset="0.6722" style="stop-color:#44281F"/>
	<stop  offset="0.9523" style="stop-color:#5C3C32"/>
	<stop  offset="1" style="stop-color:#614036"/>
	<a:midPointStop  offset="0.5" style="stop-color:#3B2118"/>
	<a:midPointStop  offset="0.6" style="stop-color:#3B2118"/>
	<a:midPointStop  offset="1" style="stop-color:#614036"/>
</linearGradient>
<path fill="url(#SVGID_2_)" d="M18.916,11.793c2.414-3.261,6.832,0.275,14.085,0.275c7.252,0,11.668-3.536,14.082-0.275
	c3.418,4.616,2.258,19.999,0.736,19.999c-0.24,0-0.275-5.38-0.736-9.103c-0.373-3.029-1.094-5.969-1.924-6.449
	c-2.531-1.467-7.412,0.631-12.158,0.631c-4.746,0-9.628-2.098-12.162-0.631c-0.828,0.48-1.547,3.42-1.924,6.449
	c-0.459,3.723-0.494,9.103-0.734,9.103C16.66,31.792,15.5,16.409,18.916,11.793z"/>
<path fill="#3AB0A2" d="M7,59.234c0-3.014,2.467-7.264,3.031-7.857c1.053-1.104,5.824-0.666,6.635,0.021s0.353,10.172,0.353,10.172
	S7,61.742,7,59.234z"/>
<path fill="#855E45" d="M18.194,42.221c-1.18,0.689-5.258,1.887-7.215,1.109c-0.703-0.279-2.121,0.73-1.479,4.266v0.002
	c0.061,1.221,0.695,3.324,0.865,4.313c0.162,0.93,5.635,1.336,6.076,0c0.201-0.613,0.086-1.33,0.666-1.674
	c1.449-0.855,3.16-4.129,3.266-6.115C20.417,43.297,19.454,43.33,18.194,42.221z"/>
<path fill="#855E45" d="M12.405,41.791c0.924-3.057,2.07-5.686,2.865-7.355c0.572-1.203,2.389-0.35,1.979,1.01
	c-1.043,3.459-1.85,5.715-1.947,6.346C15.202,42.42,12.405,41.791,12.405,41.791z"/>
<path fill="#69452D" d="M17.313,44.549l0.457,0.102c-1.227,0.518-2.885,3.195-2.457,5.17C14.569,47.756,16.057,45.148,17.313,44.549
	z"/>
<path fill="#855E45" d="M11.073,42.723c-0.648-0.602,0.502-1.314,1.279-1.572c1.838-0.613,3.631-0.611,3.809-0.1
	s1.498,3.111,1.309,3.443C16.18,46.746,12.62,44.15,11.073,42.723z"/>
<path fill="#69452D" d="M16.161,41.008c-0.178-0.512-1.975-0.553-3.656,0.092c1.893-0.387,3.16-0.414,3.338,0.098
	s1.439,2.725,1.408,3.264c-0.051,0.932-1.668,0.68-1.566,0.992c1.379,0.029,1.754-0.6,1.861-1.037
	C17.635,44.047,16.338,41.52,16.161,41.008z"/>
<path fill="#855E45" d="M18.016,44.764c-3.129-1.102-2.627-3.656-1.537-4.018c0.266-0.09,0.857,0.865,2.334,1.971
	C19.057,42.898,18.11,44.717,18.016,44.764z"/>
<path fill="#69452D" d="M15.868,41.283c-0.639,0.945-0.389,2.84,2.148,3.48C16.493,43.998,15.292,42.652,15.868,41.283z"/>
<path fill="#855E45" d="M10.229,44.529c-0.65-0.6,0.303-2.352,1.119-2.262c2.178,0.238,3.791,0.078,3.969,0.592
	c0.176,0.512,1.498,3.111,1.309,3.441C15.336,48.555,11.776,45.959,10.229,44.529z"/>
<path fill="#69452D" d="M15.317,42.816c-0.178-0.512-2.775-0.518-3.066-0.467c-0.201,0.033,2.572,0.143,2.748,0.654
	c0.178,0.514,1.438,2.725,1.408,3.266c-0.051,0.93-1.393,0.676-1.293,0.988c1.379,0.029,1.482-0.598,1.588-1.035
	C16.792,45.855,15.493,43.328,15.317,42.816z"/>
<path fill="#69452D" d="M15.495,44.822c-0.324-0.641-3.854-1.25-3.854-1.25s3.369,1.055,3.498,1.373
	c0.273,0.688-0.23,2.746-0.252,2.99s-0.123,0.33-0.393,0.33c-0.279,0-2.131-0.504-2.637-0.504c-0.604,0,0.008-1.262,0.834-1.322
	c0.711-0.049,0.939,0.285,0.939,0.285s-0.303-0.775-0.949-0.719c-1.121,0.098-2.066,1.41-2.063,1.506
	c0.439-0.379,0.783-0.506,0.783-0.506c-0.447,0.834,0.125,1.133,0.455,1.133c0.455,0,2.307,0.504,2.637,0.504
	c0.586,0,0.742-0.367,0.768-0.676C15.286,47.73,15.766,45.357,15.495,44.822z"/>
<path fill="#0FB4D4" d="M9.418,25.443c-3.131,5.473,0.174,10.904,0.314,11.133c0.619,0.992,1.604,0.275,0.99-0.721
	c-0.123-0.199-3.006-4.968-0.291-9.718C11.002,25.145,9.92,24.559,9.418,25.443z"/>
<path fill="#0FB4D4" d="M5.613,24.376C2.227,30.61,5.202,36.539,5.331,36.787c0.544,1.059,1.586,0.436,1.044-0.619
	c-0.027-0.057-2.761-5.542,0.271-11.125C7.19,24.041,6.098,23.487,5.613,24.376z"/>
</svg>
