<?xml version="1.0" encoding="utf-8"?>
<!-- Generator: Adobe Illustrator 15.0.0, SVG Export Plug-In . SVG Version: 6.00 Build 0)  -->
<!DOCTYPE svg PUBLIC "-//W3C//DTD SVG 1.1//EN" "http://www.w3.org/Graphics/SVG/1.1/DTD/svg11.dtd" [
	<!ENTITY ns_flows "http://ns.adobe.com/Flows/1.0/">
	<!ENTITY ns_extend "http://ns.adobe.com/Extensibility/1.0/">
	<!ENTITY ns_ai "http://ns.adobe.com/AdobeIllustrator/10.0/">
	<!ENTITY ns_graphs "http://ns.adobe.com/Graphs/1.0/">
]>
<svg version="1.1" id="Layer_1" xmlns:x="&ns_extend;" xmlns:i="&ns_ai;" xmlns:graph="&ns_graphs;"
	 xmlns="http://www.w3.org/2000/svg" xmlns:xlink="http://www.w3.org/1999/xlink" xmlns:a="http://ns.adobe.com/AdobeSVGViewerExtensions/3.0/"
	 x="0px" y="0px" width="64px" height="64px" viewBox="0 0 64 64" enable-background="new 0 0 64 64" xml:space="preserve">
<path fill="#C5D7E8" d="M46.551,19.025l-3.126-2.938H20.574l-3.127,2.938L15.406,51.99C18.602,60.041,32,60.041,32,60.041
	s13.396,0,16.592-8.051L46.551,19.025z"/>
<path fill="#F2F5F7" d="M45.018,26.018H18.979L17.379,50.5c2.814,7.094,26.425,7.094,29.24,0L45.018,26.018z"/>
<path fill="#FFFFFF" d="M45.018,26.018c0,5.689-26.039,5.689-26.039,0S45.018,20.328,45.018,26.018z"/>
<radialGradient id="SVGID_1_" cx="31.6558" cy="14.999" r="11.9942" gradientTransform="matrix(1.0074 0 0 0.6406 0.1091 5.3907)" gradientUnits="userSpaceOnUse">
	<stop  offset="0" style="stop-color:#CAD3DE"/>
	<stop  offset="0.1408" style="stop-color:#C1CAD4"/>
	<stop  offset="0.3766" style="stop-color:#AAB1BB"/>
	<stop  offset="0.6782" style="stop-color:#838A90"/>
	<stop  offset="1" style="stop-color:#53585C"/>
	<a:midPointStop  offset="0" style="stop-color:#CAD3DE"/>
	<a:midPointStop  offset="0.5939" style="stop-color:#CAD3DE"/>
	<a:midPointStop  offset="1" style="stop-color:#53585C"/>
</radialGradient>
<path fill="url(#SVGID_1_)" d="M44.717,15c0,6.602-25.436,6.602-25.436,0C19.281,8.396,44.717,8.396,44.717,15z"/>
<linearGradient id="SVGID_2_" gradientUnits="userSpaceOnUse" x1="20.3755" y1="12.5557" x2="43.623" y2="12.5557">
	<stop  offset="0" style="stop-color:#7E838A"/>
	<stop  offset="0.083" style="stop-color:#949AA2"/>
	<stop  offset="0.2448" style="stop-color:#BBC3CD"/>
	<stop  offset="0.3273" style="stop-color:#CAD3DE"/>
	<stop  offset="0.4233" style="stop-color:#C1C9D4"/>
	<stop  offset="0.588" style="stop-color:#A8B0B8"/>
	<stop  offset="0.8" style="stop-color:#7F868C"/>
	<a:midPointStop  offset="0" style="stop-color:#7E838A"/>
	<a:midPointStop  offset="0.4444" style="stop-color:#7E838A"/>
	<a:midPointStop  offset="0.3273" style="stop-color:#CAD3DE"/>
	<a:midPointStop  offset="0.5882" style="stop-color:#CAD3DE"/>
	<a:midPointStop  offset="0.8" style="stop-color:#7F868C"/>
</linearGradient>
<path fill="url(#SVGID_2_)" d="M20.375,6.57v7.402c0,6.092,23.248,6.092,23.248,0V6.57H20.375z"/>
<linearGradient id="SVGID_3_" gradientUnits="userSpaceOnUse" x1="20.3755" y1="6.5703" x2="43.623" y2="6.5703">
	<stop  offset="0" style="stop-color:#CAD3DE"/>
	<stop  offset="0.2031" style="stop-color:#C1C9D4"/>
	<stop  offset="0.5515" style="stop-color:#A8B0B8"/>
	<stop  offset="1" style="stop-color:#7F868C"/>
	<a:midPointStop  offset="0" style="stop-color:#CAD3DE"/>
	<a:midPointStop  offset="0.5882" style="stop-color:#CAD3DE"/>
	<a:midPointStop  offset="1" style="stop-color:#7F868C"/>
</linearGradient>
<path fill="url(#SVGID_3_)" d="M43.623,6.57c0,6.094-23.248,6.094-23.248,0S43.623,0.477,43.623,6.57z"/>
<path fill="#302C3B" d="M33.284,3.154c0,0.674-2.571,0.674-2.571,0C30.713,2.479,33.284,2.479,33.284,3.154z"/>
<path fill="#302C3B" d="M33.284,5.777c0,0.674-2.571,0.674-2.571,0C30.713,5.102,33.284,5.102,33.284,5.777z"/>
<path fill="#302C3B" d="M33.284,8.4c0,0.674-2.571,0.674-2.571,0S33.284,7.727,33.284,8.4z"/>
<path fill="#302C3B" d="M39.496,4.465c0,0.674-2.572,0.674-2.572,0S39.496,3.791,39.496,4.465z"/>
<path fill="#302C3B" d="M39.496,7.09c0,0.674-2.572,0.674-2.572,0C36.924,6.414,39.496,6.414,39.496,7.09z"/>
<path fill="#302C3B" d="M27.074,4.465c0,0.674-2.573,0.674-2.573,0S27.074,3.791,27.074,4.465z"/>
<path fill="#302C3B" d="M27.074,7.09c0,0.674-2.573,0.674-2.573,0C24.501,6.414,27.074,6.414,27.074,7.09z"/>
<path fill="#DAE4F0" d="M20.703,7.75c2.713,4.732,19.889,4.715,22.592,0C38.971,10.965,25.027,10.965,20.703,7.75z"/>
<path opacity="0.5" fill="#53585C" d="M43.623,8.906v1.922c0,0-1.968,2.238-10.66,1.523C42.045,11.707,43.623,8.906,43.623,8.906z"
	/>
<path opacity="0.5" fill="#53585C" d="M20.375,12.279v1.854c0,0,5.107,3.492,13.8,2.779C25.094,16.268,20.375,12.279,20.375,12.279z
	"/>
<path opacity="0.5" fill="#53585C" d="M43.623,12.246v1.693c-7.27,2.963-20.051,0.609-23.248-3.457V8.787
	C24.318,13.234,37.477,15,43.623,12.246z"/>
<path opacity="0.05" fill="#6E8189" d="M20.674,54.539c0.76,1.217,8.069,2.189,8.868,1.871c0.798-0.318,1.937-32.609,1.503-32.598
	c-3.008,0.08-7.182-0.555-8.865-1.17C21.707,22.471,20.267,53.887,20.674,54.539z"/>
<path opacity="0.1" fill="#6E8189" d="M17.542,52.836c0.196,0.33,3.481-30.602,3.096-30.764c-1.316-0.564-2.703-2.914-2.727-2.521
	C16.238,47.752,15.867,49.992,17.542,52.836z"/>
<linearGradient id="SVGID_4_" gradientUnits="userSpaceOnUse" x1="15" y1="40.5127" x2="49" y2="40.5127">
	<stop  offset="0" style="stop-color:#DCE7F2"/>
	<stop  offset="0.2357" style="stop-color:#DAE5F0"/>
	<stop  offset="0.3704" style="stop-color:#D1DEEB"/>
	<stop  offset="0.4792" style="stop-color:#C3D3E1"/>
	<stop  offset="0.5394" style="stop-color:#B8CAD9"/>
	<a:midPointStop  offset="0" style="stop-color:#DCE7F2"/>
	<a:midPointStop  offset="0.8081" style="stop-color:#DCE7F2"/>
	<a:midPointStop  offset="0.5394" style="stop-color:#B8CAD9"/>
</linearGradient>
<path fill="url(#SVGID_4_)" d="M46.551,19.025c1.078,29.311,2.671,31.686-0.305,35.25c-0.283,0.34-3.467-32.191-3.467-32.191
	s1.994,32.752,1.377,33.334c-0.328,0.307-10.098,2.939-10.573,2.492C33.096,57.451,32,23.838,32,23.838s-1.096,33.613-1.584,34.072
	c-0.475,0.447-10.246-2.186-10.574-2.492c-0.617-0.582,1.377-33.334,1.377-33.334s-3.184,32.531-3.467,32.191
	c-2.977-3.564-1.383-5.939-0.305-35.25c0,0-2.449,32.689-2.447,32.967c0.002,0.51,2.145,6.34,2.717,6.744
	C18.373,59.199,31.439,62,32,62c0.558,0,13.624-2.801,14.281-3.264c0.572-0.404,2.717-6.234,2.719-6.744
	C49,51.715,46.551,19.025,46.551,19.025z"/>
<path opacity="0.2" fill="#6E8189" d="M43.324,54.539c-0.761,1.217-8.07,2.189-8.867,1.871c-0.8-0.318-1.937-32.609-1.504-32.598
	c3.008,0.08,7.182-0.555,8.864-1.17C42.293,22.471,43.731,53.887,43.324,54.539z"/>
<path opacity="0.3" fill="#6E8189" d="M46.456,52.836c-0.194,0.33-3.479-30.602-3.097-30.764c1.316-0.564,2.703-2.914,2.727-2.521
	C47.76,47.752,48.131,49.992,46.456,52.836z"/>
</svg>
