<?xml version="1.0" encoding="utf-8"?>
<!-- Generator: Adobe Illustrator 15.0.0, SVG Export Plug-In . SVG Version: 6.00 Build 0)  -->
<!DOCTYPE svg PUBLIC "-//W3C//DTD SVG 1.1//EN" "http://www.w3.org/Graphics/SVG/1.1/DTD/svg11.dtd" [
	<!ENTITY ns_flows "http://ns.adobe.com/Flows/1.0/">
	<!ENTITY ns_extend "http://ns.adobe.com/Extensibility/1.0/">
	<!ENTITY ns_ai "http://ns.adobe.com/AdobeIllustrator/10.0/">
	<!ENTITY ns_graphs "http://ns.adobe.com/Graphs/1.0/">
]>
<svg version="1.1" id="Layer_1" xmlns:x="&ns_extend;" xmlns:i="&ns_ai;" xmlns:graph="&ns_graphs;"
	 xmlns="http://www.w3.org/2000/svg" xmlns:xlink="http://www.w3.org/1999/xlink" xmlns:a="http://ns.adobe.com/AdobeSVGViewerExtensions/3.0/"
	 x="0px" y="0px" width="64px" height="64px" viewBox="0 0 64 64" enable-background="new 0 0 64 64" xml:space="preserve">
<rect y="16.002" fill="#774212" width="64" height="40"/>
<rect x="2" y="18.002" fill="#006351" width="60" height="36"/>
<linearGradient id="SVGID_1_" gradientUnits="userSpaceOnUse" x1="32.0005" y1="53.502" x2="32.0005" y2="18.5024">
	<stop  offset="0" style="stop-color:#006956"/>
	<stop  offset="0.0779" style="stop-color:#006D59"/>
	<stop  offset="0.6432" style="stop-color:#00846E"/>
	<stop  offset="1" style="stop-color:#008C76"/>
	<a:midPointStop  offset="0" style="stop-color:#006956"/>
	<a:midPointStop  offset="0.3939" style="stop-color:#006956"/>
	<a:midPointStop  offset="1" style="stop-color:#008C76"/>
</linearGradient>
<rect x="2.5" y="18.502" fill="url(#SVGID_1_)" width="59" height="35"/>
<path fill="#E6EBEF" d="M8.432,52.72c2.502-1.288,11.068-4.123,11.068-4.123h18.977c0,0,8.662,2.827,11.148,4.12
	c3.615,1.872,3.343,4.429,3.343,6.845c0,3.254-48.968,3.254-48.968,0C4,57.142,4.807,54.585,8.432,52.72z"/>
<polygon fill="#855E45" points="20.667,49.949 29,54.781 37.333,49.949 37.333,41.914 20.667,41.914 "/>
<path fill="#D61924" d="M30.781,57.844c-0.479-1.391-3.081-1.391-3.561,0c-0.382,1.107-0.702,2.559-0.97,4.158h5.498
	C31.481,60.402,31.161,58.951,30.781,57.844z"/>
<path fill="#E81C27" d="M30.644,57.844c-0.37,0.506-2.958,0.561-3.285,0c-0.778-1.322-2.055-3.945-2.055-3.945
	s3.225-1.779,3.696-1.779c0.476,0,3.698,1.779,3.698,1.779S31.537,56.633,30.644,57.844z"/>
<path fill="#FAFAFA" d="M37.333,46.91l1.382,1.57c0,0-0.933,2.51-2.32,9.754L29,52.119C29,52.119,34.959,52.23,37.333,46.91z"/>
<path fill="#FAFAFA" d="M20.667,46.91l-1.38,1.57c0,0,0.931,2.51,2.318,9.754L29,52.119C29,52.119,23.041,52.23,20.667,46.91z"/>
<path fill="#3B2118" d="M44.148,38.786c1.08,0.713,2.326,1.247,3.781,1.52c-2.582-5.889,1.313-18.237-6.668-27.311
	c-11.25,0.338-12.807,36.722,2.875,31.883c-0.998-0.433-1.623-1.315-1.99-2.43c1.209,0.347,2.621,0.358,4.266-0.148
	C45.104,41.733,44.436,40.399,44.148,38.786z"/>
<path fill="#3B2118" d="M15.91,12.995C7.93,22.068,12.582,34.417,10,40.306c1.453-0.272,2.701-0.807,3.781-1.52
	c-0.287,1.613-0.955,2.947-2.264,3.514c1.645,0.507,3.057,0.495,4.266,0.148c-0.367,1.114-0.992,1.997-1.99,2.43
	C29.473,49.717,27.16,13.333,15.91,12.995z"/>
<path id="Path_3070_" fill="#916B50" d="M45.377,25.392c-2.541,0.309-4.375,8.816-2.777,11.063c0.223,0.313,1.533,0.813,2.504-1.168
	c0.537-1.098,2.088-2.014,2.568-4.277C48.289,28.108,47.904,25.085,45.377,25.392z"/>
<path id="Path_3069_" fill="#916B50" d="M12.555,25.392c2.541,0.309,4.375,8.816,2.777,11.063c-0.225,0.313-1.535,0.813-2.504-1.168
	c-0.539-1.098-2.09-2.014-2.57-4.277C9.643,28.108,10.027,25.085,12.555,25.392z"/>
<path id="Path_3068_" fill="#69452D" d="M45.309,27.022c-0.664,0.209-1.387,1.22-1.779,2.896c2.318-0.498,1.738,3.362-0.275,3.436
	c0.018,0.388,0.045,0.787,0.092,1.209c0.971-1.411,1.955-0.846,2.932-2.941C47.158,29.731,46.949,26.507,45.309,27.022z"/>
<path id="Path_3067_" fill="#69452D" d="M14.4,29.915c-0.393-1.674-1.113-2.685-1.775-2.893c-1.643-0.516-1.854,2.709-0.973,4.6
	c0.977,2.096,1.961,1.53,2.934,2.941c0.047-0.423,0.074-0.822,0.09-1.211C12.684,33.257,12.113,29.445,14.4,29.915z"/>
<path fill="#916B50" d="M28.965,9.034c-11.008,0-16.311,8.965-15.648,20.492c0.137,2.318,0.781,5.662,1.576,8.525
	C16.543,44.005,25.256,50,28.965,50s12.422-5.995,14.072-11.948c0.797-2.863,1.441-6.207,1.576-8.525
	C45.275,17.999,39.975,9.034,28.965,9.034z"/>
<path id="Path_3066_" fill="#5E4431" d="M40.926,24.542c-2.518-1.333-7.336-1.398-9.131-0.469c-0.385,0.18-0.131,1.443,0.193,1.322
	c2.5-0.989,6.535-1.012,8.875,0.085C41.178,25.622,41.307,24.728,40.926,24.542z"/>
<path id="Path_3065_" fill="#5E4431" d="M17.006,24.542c2.518-1.333,7.332-1.398,9.129-0.469c0.385,0.18,0.131,1.443-0.191,1.322
	c-2.506-0.989-6.535-1.012-8.879,0.085C16.754,25.622,16.625,24.728,17.006,24.542z"/>
<path id="Path_3064_" fill="#69452D" d="M31.936,36.108c-0.314-0.219-1.051,0.118-2.971,0.118c-1.916,0-2.654-0.337-2.971-0.118
	c-0.375,0.266,0.225,1.463,2.971,1.463C31.713,37.571,32.314,36.374,31.936,36.108z"/>
<path id="Path_3063_" fill="#69452D" d="M28.965,40.646c-2.475-0.729-6.145,0.345-6.145,0.345c1.398,1.522,2.422,3.497,6.145,3.497
	c4.266,0,4.992-2.242,6.146-3.497C35.111,40.99,31.439,39.913,28.965,40.646z"/>
<path id="Path_3062_" fill="#FFFFFF" d="M23.742,41.248c2.596,2.178,7.836,2.192,10.447,0
	C31.424,41.366,26.527,41.368,23.742,41.248z"/>
<path id="Path_3061_" fill="#FFFFFF" d="M26.516,29.085c0.094,0.729-0.4,1.594-1.77,2.24c-0.871,0.412-2.68,0.896-5.057-0.106
	c-1.066-0.448-2.105-1.849-2.012-2.622C18.967,26.167,25.311,25.812,26.516,29.085z"/>
<linearGradient id="Oval_1_" gradientUnits="userSpaceOnUse" x1="-425.0415" y1="477.4658" x2="-425.0415" y2="478.2246" gradientTransform="matrix(6.5701 0 0 -6.5701 2814.7805 3168.5281)">
	<stop  offset="0" style="stop-color:#A6694A"/>
	<stop  offset="1" style="stop-color:#4F2A1E"/>
	<a:midPointStop  offset="0" style="stop-color:#A6694A"/>
	<a:midPointStop  offset="0.5" style="stop-color:#A6694A"/>
	<a:midPointStop  offset="1" style="stop-color:#4F2A1E"/>
</linearGradient>
<circle id="Oval_352_" fill="url(#Oval_1_)" cx="22.213" cy="29.036" r="2.492"/>
<path id="Path_3060_" fill="#1A1626" d="M20.967,28.99c0,1.726,2.492,1.726,2.492,0C23.459,27.39,20.967,27.39,20.967,28.99z"/>
<path id="Path_3059_" fill="#AB968C" d="M20.588,28.292c0,0.724,1.045,0.724,1.045,0C21.633,27.623,20.588,27.623,20.588,28.292z"/>
<path id="Path_3058_" fill="#69452D" d="M26.527,29.182c-1.012-3.253-7.91-2.772-8.85-0.585
	C18.025,25.796,25.666,25.057,26.527,29.182z"/>
<path id="Path_3057_" fill="#FFFFFF" d="M31.414,29.085c-0.094,0.729,0.402,1.594,1.771,2.24c0.869,0.412,2.678,0.896,5.057-0.106
	c1.066-0.448,2.104-1.849,2.01-2.622C38.965,26.167,32.621,25.812,31.414,29.085z"/>
<linearGradient id="Oval_2_" gradientUnits="userSpaceOnUse" x1="-425.6934" y1="477.4658" x2="-425.6934" y2="478.2246" gradientTransform="matrix(6.5701 0 0 -6.5701 2832.511 3168.5281)">
	<stop  offset="0" style="stop-color:#A6694A"/>
	<stop  offset="1" style="stop-color:#4F2A1E"/>
	<a:midPointStop  offset="0" style="stop-color:#A6694A"/>
	<a:midPointStop  offset="0.5" style="stop-color:#A6694A"/>
	<a:midPointStop  offset="1" style="stop-color:#4F2A1E"/>
</linearGradient>
<circle id="Oval_351_" fill="url(#Oval_2_)" cx="35.662" cy="29.036" r="2.492"/>
<path id="Path_3056_" fill="#1A1626" d="M34.418,28.99c0,1.726,2.492,1.726,2.492,0C36.91,27.39,34.418,27.39,34.418,28.99z"/>
<path id="Path_3055_" fill="#AB968C" d="M34.039,28.292c0,0.724,1.043,0.724,1.043,0C35.082,27.623,34.039,27.623,34.039,28.292z"/>
<path id="Path_3054_" fill="#69452D" d="M31.404,29.182c1.01-3.251,7.904-2.786,8.848-0.585
	C39.902,25.796,32.266,25.057,31.404,29.182z"/>
<linearGradient id="SVGID_2_" gradientUnits="userSpaceOnUse" x1="28.8013" y1="31.8174" x2="28.8013" y2="6">
	<stop  offset="0" style="stop-color:#3B2118"/>
	<stop  offset="0.0953" style="stop-color:#40251C"/>
	<stop  offset="0.6555" style="stop-color:#58392F"/>
	<stop  offset="1" style="stop-color:#614036"/>
	<a:midPointStop  offset="0" style="stop-color:#3B2118"/>
	<a:midPointStop  offset="0.4" style="stop-color:#3B2118"/>
	<a:midPointStop  offset="1" style="stop-color:#614036"/>
</linearGradient>
<path fill="url(#SVGID_2_)" d="M28.967,6c-6.699,0-10.045,3.034-10.725,4.474c-8.098,1.852-10.703,15.516-4.641,21.344
	c0.754-6.211,1.479-10.201,5.607-14.404c2.408,3.227,7.41,5.042,11.889,5.042c-2.121-1.541-3.566-3.051-4.701-4.458
	c7.479,3.433,15.855,5.63,17.934,13.82C51.525,20.358,45.549,6,28.967,6z"/>
<path fill="#3B2118" d="M18.223,10.472c-0.078,4.428,2.186,9.995,12.879,11.982C23.451,22.971,15.602,18.349,18.223,10.472z"/>
<path fill="#3B2118" d="M18.717,16.612c-2.787,2.746-5.736,7.939-5.143,15.205c0.553-6.005,3.311-10.949,5.811-14.152
	C19.207,17.472,18.867,16.831,18.717,16.612z"/>
<path fill="#3B2118" d="M23.67,15.235c5.764,5.504,19.174,3.534,20.688,16.582C40.771,20.546,28.613,23.074,23.67,15.235z"/>
<linearGradient id="SVGID_3_" gradientUnits="userSpaceOnUse" x1="-525.9683" y1="221.0645" x2="-525.9683" y2="229.1514" gradientTransform="matrix(1 0 0 -1 562.8965 255.043)">
	<stop  offset="0" style="stop-color:#FFFFFF;stop-opacity:0"/>
	<stop  offset="1" style="stop-color:#FFFFFF"/>
	<a:midPointStop  offset="0" style="stop-color:#FFFFFF;stop-opacity:0"/>
	<a:midPointStop  offset="0.5" style="stop-color:#FFFFFF;stop-opacity:0"/>
	<a:midPointStop  offset="1" style="stop-color:#FFFFFF"/>
</linearGradient>
<path opacity="0.5" fill="url(#SVGID_3_)" enable-background="new    " d="M31.444,27.285c-1.123,0.965,0.333,4.881,2.889,6.115
	c1.306,0.627,5.538,1.109,6.895-0.586c1.344-1.676,2.195-5.098,0.998-6.049C40.583,25.463,33.411,25.6,31.444,27.285z"/>
<linearGradient id="SVGID_4_" gradientUnits="userSpaceOnUse" x1="160.8809" y1="220.4063" x2="160.8809" y2="228.4932" gradientTransform="matrix(-1 0 0 -1 181.9531 254.4141)">
	<stop  offset="0" style="stop-color:#FFFFFF;stop-opacity:0"/>
	<stop  offset="1" style="stop-color:#FFFFFF"/>
	<a:midPointStop  offset="0" style="stop-color:#FFFFFF;stop-opacity:0"/>
	<a:midPointStop  offset="0.5" style="stop-color:#FFFFFF;stop-opacity:0"/>
	<a:midPointStop  offset="1" style="stop-color:#FFFFFF"/>
</linearGradient>
<path opacity="0.5" fill="url(#SVGID_4_)" enable-background="new    " d="M26.556,27.285c1.122,0.965-0.331,4.883-2.888,6.115
	c-1.306,0.627-5.539,1.109-6.895-0.586c-1.346-1.676-2.194-5.098-0.997-6.049C17.417,25.463,24.589,25.6,26.556,27.285z"/>
<path fill="#302C3B" d="M44.969,26.135c-1.081-0.035-2.501-0.725-5.53-0.879c-4.171-0.217-5.558,0.383-8.155,0.764
	c-0.805,0.119-1.556,0.18-2.283,0.176c-0.729,0.004-1.478-0.059-2.283-0.176c-2.597-0.381-3.985-0.98-8.154-0.764
	c-3.03,0.154-4.452,0.844-5.533,0.877c-0.065,0.479-0.189,1.195,0,1.686c0.147,0.383,0.555,0.473,0.817,0.738
	c1.332,1.342,0.581,5.924,5.553,6.279c4.661,0.33,6.731-1.355,7.875-4.113c0.323-0.777,0.858-2.127,1.726-2.127
	c0.867-0.002,1.4,1.348,1.724,2.129c1.146,2.756,3.216,4.441,7.877,4.111c4.972-0.355,4.217-4.938,5.551-6.279
	c0.264-0.266,0.672-0.355,0.818-0.738C45.157,27.328,45.036,26.611,44.969,26.135z M23.668,33.4
	c-1.306,0.627-5.539,1.109-6.895-0.586c-1.346-1.676-2.194-5.098-0.997-6.049c1.641-1.303,8.813-1.166,10.779,0.52
	C27.68,28.25,26.225,32.166,23.668,33.4z M41.228,32.813c-1.356,1.697-5.59,1.215-6.895,0.588c-2.556-1.234-4.012-5.15-2.889-6.115
	c1.967-1.686,9.139-1.822,10.781-0.52C43.423,27.717,42.571,31.139,41.228,32.813z"/>
<path fill="#F5F5F5" d="M53.098,60.276c0,1.119-9.225,1.233-9.225,1.233s2.043-5.219,3.576-5.16
	C55.352,56.648,53.098,59.058,53.098,60.276z"/>
<path fill="#855E45" d="M51.131,44.943c0.275-1.021,2.531,0.359,1.584,2.049c-0.383,0.682,4.74,6.135,4.424,7.381
	c-0.566,2.24-4.002,3.311-4.289,4.164c-0.287,0.855-6.27-0.744-5.646-1.568c1.611-2.137,0.281-4.418,1.75-6.447
	C51.408,47.133,50.678,46.615,51.131,44.943z"/>
<path fill="#1A1626" d="M59.986,22.641c0.102-0.424-0.449-0.6-0.564-0.176c-3.199,11.793-8.326,30.553-9.988,36.186
	c-0.359,1.221,1.645,1.945,1.943,0.709C53.525,50.453,56.242,38.248,59.986,22.641z"/>
<path fill="#855E45" d="M56.291,48.111c1.22,1.137,0.544,2.369,0.544,2.369c0.95,1.189,0.318,2.627,0.318,2.627
	c1.012,3.098-6.264,4.363-4.76,1.496c-1.946,0.205-2.452-1.779-0.461-2.295c-2.237,0.34-1.885-2.172-0.552-2.43
	c0.5-0.096,1.013-0.318,1.591-0.424c-2.278,0.313-1.898-1.98-0.758-2.465c1.265-0.533,2.633-0.797,3.109-0.703
	C56.267,46.471,56.416,47.682,56.291,48.111z"/>
<path fill="#69452D" d="M51.31,48.355c-0.142,2.199,3.421,0.746,3.946,0.291C52.925,49.641,51.347,49.201,51.31,48.355z"/>
<path fill="#69452D" d="M52.19,55.264c-0.142,2.199,3.39,0.742,3.915,0.285C53.774,56.545,52.228,56.111,52.19,55.264z"/>
<path fill="#69452D" d="M50.32,51.199c-0.142,2.199,3.566,0.988,5.299-0.162C52.147,52.727,50.356,52.045,50.32,51.199z"/>
<path fill="#69452D" d="M50.667,53.57c-0.142,2.199,3.661,1.049,5.394-0.102C52.589,55.16,50.705,54.418,50.667,53.57z"/>
</svg>
