<?xml version="1.0" encoding="utf-8"?>
<!-- Generator: Adobe Illustrator 15.0.0, SVG Export Plug-In . SVG Version: 6.00 Build 0)  -->
<!DOCTYPE svg PUBLIC "-//W3C//DTD SVG 1.1//EN" "http://www.w3.org/Graphics/SVG/1.1/DTD/svg11.dtd" [
	<!ENTITY ns_flows "http://ns.adobe.com/Flows/1.0/">
	<!ENTITY ns_extend "http://ns.adobe.com/Extensibility/1.0/">
	<!ENTITY ns_ai "http://ns.adobe.com/AdobeIllustrator/10.0/">
	<!ENTITY ns_graphs "http://ns.adobe.com/Graphs/1.0/">
]>
<svg version="1.1" id="Layer_1" xmlns:x="&ns_extend;" xmlns:i="&ns_ai;" xmlns:graph="&ns_graphs;"
	 xmlns="http://www.w3.org/2000/svg" xmlns:xlink="http://www.w3.org/1999/xlink" xmlns:a="http://ns.adobe.com/AdobeSVGViewerExtensions/3.0/"
	 x="0px" y="0px" width="64px" height="64px" viewBox="0 0 64 64" enable-background="new 0 0 64 64" xml:space="preserve">
<path fill="#855E45" d="M36.914,28.086c-0.551-1.518-2.598-1.773-2.598-1.773c-1.352,2.869-2.572,8.149-2.674,8.88
	c-0.1,0.711-1.018,2.623-0.869,3.139c0.629,2.189,0.387,1.314,1.373,2.23c0.309,0.289,0.424-0.016,0.393-0.418
	c0,0,0.273-0.885,0.484-0.895c-0.051,0.395,0.824,0.178,0.609-0.375c-0.133-0.344,0.094-1.109-0.387-1.793
	c-0.246-0.352,0.006-2.416,1.611-5.025C35.834,30.469,36.416,29.41,36.914,28.086z"/>
<path fill="#855E45" d="M50.641,28.035c0.734-1.438,2.797-1.438,2.797-1.438c0.984,3.016,1.541,8.405,1.551,9.144
	c0.008,0.719,0.682,2.729,0.471,3.223c-0.896,2.094-0.811,2.357-1.91,3.135c-0.832,0.59-0.57-0.166-0.193-0.564
	c0.584-0.617,0.955-2.037,0.189-2.168c-0.098,1.582-1.145,1.881-1.066,1.295c0.201-1.514-0.002-2.432,0.682-3.246
	c0.275-0.328,0.295-2.396-0.975-5.187C51.414,30.531,50.969,29.41,50.641,28.035z"/>
<path fill="#302C3B" d="M38.391,33.956h11.217c0.979,5.166,0.256,12.303,1.488,24.896c0.156,1.586-5.654,1.596-5.604,0
	c0.242-7.346-0.445-12.938-0.938-17.416c-0.037-0.334-1.072-0.334-1.109,0c-0.492,4.479-1.182,10.07-0.939,17.416
	c0.053,1.596-5.76,1.586-5.604,0C38.135,46.259,37.412,39.122,38.391,33.956z"/>
<path fill="#FFA600" d="M36.963,19.848c0.906-1.135,4.635-2.271,4.635-2.271H46.4c0,0,3.73,1.137,4.635,2.271
	c0.793,0.992,2.32,5.816,2.658,6.982c-0.045,0.055-1.227,0.111-3.287,1.701c0,0-0.641-1.934-0.891-2.447
	c-0.588,3.814,0.297,7.448,0.092,7.872c-0.584,1.213-10.625,1.227-11.217,0c-0.205-0.424,0.68-4.058,0.094-7.872
	c-0.252,0.514-1.4,2.525-1.4,2.525c-1.848-1.834-3.012-2.039-3.049-2.098C34.514,25.396,36.17,20.84,36.963,19.848z"/>
<path fill="#6E8189" d="M51.354,61.601c-0.184,0.453-5.762,0.637-5.971-0.084C44.574,58.724,52.264,59.372,51.354,61.601z"/>
<path fill="#99A8AE" d="M51.273,61.052c-0.041,0.393-5.834,0.598-5.896,0C44.881,56.3,51.727,56.696,51.273,61.052z"/>
<path fill="#1A1626" d="M46.117,58.226c0.645-1.102,3.703-1.096,4.344,0c0.117,0.191,0.316,0.715-0.457,0.285
	c0.768,0.602,0.768,1.127,0,0.678c0.773,0.578,0.574,0.943,0.457,0.896c-1.176-0.582-3.166-0.582-4.344,0
	c-0.119,0.047-0.316-0.318,0.457-0.896c-0.768,0.449-0.768-0.076,0-0.678C45.801,58.94,45.998,58.417,46.117,58.226z"/>
<path fill="#6E8189" d="M36.645,61.601c0.184,0.453,5.762,0.637,5.971-0.084C43.424,58.724,35.734,59.372,36.645,61.601z"/>
<path fill="#99A8AE" d="M36.725,61.052c0.041,0.393,5.834,0.598,5.896,0C43.117,56.3,36.273,56.696,36.725,61.052z"/>
<path fill="#1A1626" d="M41.881,58.226c-0.645-1.102-3.701-1.096-4.344,0c-0.117,0.191-0.316,0.715,0.457,0.285
	c-0.768,0.602-0.768,1.127,0,0.678c-0.773,0.578-0.574,0.943-0.457,0.896c1.178-0.582,3.166-0.582,4.344,0
	c0.119,0.047,0.316-0.318-0.457-0.896c0.768,0.449,0.768-0.076,0-0.678C42.197,58.94,42,58.417,41.881,58.226z"/>
<path fill="#F79400" d="M47.281,17.875c0,2.926-6.563,2.92-6.563-0.006l0.59-0.211h5.346L47.281,17.875z"/>
<path fill="#855E45" d="M46.75,17.906c0,2.176-5.5,2.176-5.5,0c0-0.74,0-2.406,0-2.406h5.5C46.75,15.5,46.75,17.166,46.75,17.906z"
	/>
<path fill="#3B2118" d="M49.668,14.246c0.402,0.268,0.869,0.467,1.412,0.568c-0.965-2.199,0.49-6.813-2.492-10.201
	c-4.201,0.125-4.781,13.717,1.076,11.908c-0.373-0.162-0.607-0.492-0.744-0.908c0.451,0.131,0.979,0.135,1.594-0.055
	C50.023,15.348,49.775,14.848,49.668,14.246z"/>
<path fill="#3B2118" d="M39.119,4.613c-2.98,3.389-1.242,8.002-2.207,10.201c0.543-0.102,1.01-0.301,1.414-0.568
	c-0.107,0.602-0.357,1.102-0.846,1.313c0.613,0.189,1.141,0.186,1.592,0.055c-0.137,0.416-0.369,0.746-0.742,0.908
	C44.186,18.33,43.322,4.738,39.119,4.613z"/>
<path id="Path_2358_" fill="#916B50" d="M50.127,9.244c-0.949,0.113-1.635,3.293-1.037,4.131c0.082,0.117,0.572,0.305,0.934-0.436
	c0.201-0.41,0.781-0.752,0.961-1.598C51.215,10.258,51.07,9.129,50.127,9.244z"/>
<path id="Path_2357_" fill="#916B50" d="M37.867,9.244c0.949,0.113,1.633,3.293,1.037,4.131c-0.084,0.117-0.574,0.305-0.936-0.436
	c-0.201-0.41-0.779-0.752-0.959-1.598C36.779,10.258,36.924,9.129,37.867,9.244z"/>
<path id="Path_2356_" fill="#69452D" d="M50.102,9.852c-0.248,0.08-0.52,0.457-0.664,1.082c0.865-0.186,0.648,1.256-0.104,1.283
	c0.006,0.145,0.016,0.295,0.033,0.453c0.363-0.527,0.73-0.316,1.096-1.1C50.791,10.863,50.713,9.66,50.102,9.852z"/>
<path id="Path_2355_" fill="#69452D" d="M38.557,10.932c-0.146-0.623-0.416-1.002-0.664-1.08c-0.613-0.191-0.691,1.012-0.363,1.719
	c0.365,0.783,0.732,0.572,1.096,1.1c0.018-0.158,0.027-0.309,0.035-0.453C37.914,12.182,37.703,10.758,38.557,10.932z"/>
<path fill="#916B50" d="M43.996,3.133c-4.111,0-6.092,3.35-5.844,7.656c0.051,0.865,0.291,2.113,0.588,3.184
	c0.617,2.223,3.871,4.461,5.256,4.461s4.639-2.238,5.256-4.461c0.297-1.07,0.539-2.318,0.59-3.184
	C50.088,6.482,48.109,3.133,43.996,3.133z"/>
<path id="Path_2354_" fill="#5E4431" d="M48.463,8.926c-0.939-0.498-2.74-0.521-3.41-0.174c-0.143,0.066-0.047,0.537,0.072,0.494
	c0.936-0.371,2.441-0.379,3.316,0.031C48.559,9.33,48.607,8.996,48.463,8.926z"/>
<path id="Path_2353_" fill="#5E4431" d="M39.529,8.926c0.939-0.498,2.738-0.521,3.41-0.174c0.143,0.066,0.049,0.537-0.072,0.494
	c-0.936-0.371-2.439-0.379-3.316,0.031C39.436,9.33,39.387,8.996,39.529,8.926z"/>
<path id="Path_2352_" fill="#69452D" d="M45.105,13.246c-0.117-0.082-0.393,0.045-1.109,0.045c-0.715,0-0.992-0.127-1.109-0.045
	c-0.141,0.1,0.084,0.547,1.109,0.547C45.023,13.793,45.248,13.346,45.105,13.246z"/>
<path id="Path_2351_" fill="#69452D" d="M43.996,14.941c-0.924-0.273-2.295,0.129-2.295,0.129c0.521,0.568,0.904,1.305,2.295,1.305
	c1.594,0,1.865-0.836,2.297-1.305C46.293,15.07,44.92,14.666,43.996,14.941z"/>
<path id="Path_2350_" fill="#FFFFFF" d="M42.045,15.166c0.971,0.813,2.928,0.818,3.902,0C44.914,15.211,43.086,15.211,42.045,15.166
	z"/>
<path id="Path_2349_" fill="#FFFFFF" d="M43.082,10.623c0.035,0.271-0.15,0.594-0.662,0.836c-0.324,0.154-1,0.336-1.889-0.039
	c-0.398-0.168-0.785-0.691-0.75-0.979C40.262,9.533,42.631,9.4,43.082,10.623z"/>
<linearGradient id="Oval_1_" gradientUnits="userSpaceOnUse" x1="-404.9541" y1="480.5088" x2="-404.9541" y2="480.792" gradientTransform="matrix(6.5701 0 0 -6.5701 2702.0618 3168.5281)">
	<stop  offset="0" style="stop-color:#A6694A"/>
	<stop  offset="1" style="stop-color:#4F2A1E"/>
	<a:midPointStop  offset="0" style="stop-color:#A6694A"/>
	<a:midPointStop  offset="0.5" style="stop-color:#A6694A"/>
	<a:midPointStop  offset="1" style="stop-color:#4F2A1E"/>
</linearGradient>
<circle id="Oval_332_" fill="url(#Oval_1_)" cx="41.475" cy="10.604" r="0.931"/>
<path id="Path_2348_" fill="#1A1626" d="M41.01,10.588c0,0.643,0.93,0.643,0.93,0C41.939,9.99,41.01,9.99,41.01,10.588z"/>
<path id="Path_2347_" fill="#AB968C" d="M40.867,10.326c0,0.271,0.391,0.271,0.391,0C41.258,10.076,40.867,10.076,40.867,10.326z"/>
<path id="Path_2346_" fill="#69452D" d="M43.086,10.658c-0.377-1.213-2.955-1.035-3.305-0.217
	C39.91,9.395,42.764,9.119,43.086,10.658z"/>
<path id="Path_2345_" fill="#FFFFFF" d="M44.91,10.623c-0.033,0.271,0.15,0.594,0.662,0.836c0.324,0.154,1,0.336,1.889-0.039
	c0.398-0.168,0.785-0.691,0.752-0.979C47.73,9.533,45.361,9.4,44.91,10.623z"/>
<linearGradient id="Oval_2_" gradientUnits="userSpaceOnUse" x1="-406.8882" y1="480.5088" x2="-406.8882" y2="480.792" gradientTransform="matrix(6.5701 0 0 -6.5701 2719.7922 3168.5281)">
	<stop  offset="0" style="stop-color:#A6694A"/>
	<stop  offset="1" style="stop-color:#4F2A1E"/>
	<a:midPointStop  offset="0" style="stop-color:#A6694A"/>
	<a:midPointStop  offset="0.5" style="stop-color:#A6694A"/>
	<a:midPointStop  offset="1" style="stop-color:#4F2A1E"/>
</linearGradient>
<circle id="Oval_331_" fill="url(#Oval_2_)" cx="46.498" cy="10.604" r="0.931"/>
<path id="Path_2344_" fill="#1A1626" d="M46.033,10.588c0,0.643,0.932,0.643,0.932,0C46.965,9.99,46.033,9.99,46.033,10.588z"/>
<path id="Path_2343_" fill="#AB968C" d="M45.891,10.326c0,0.271,0.391,0.271,0.391,0C46.281,10.076,45.891,10.076,45.891,10.326z"/>
<path id="Path_2342_" fill="#69452D" d="M44.908,10.658c0.377-1.213,2.951-1.039,3.305-0.217
	C48.082,9.395,45.229,9.119,44.908,10.658z"/>
<linearGradient id="SVGID_1_" gradientUnits="userSpaceOnUse" x1="156.6543" y1="11.6426" x2="156.6543" y2="2" gradientTransform="matrix(1 0 0 1 -112.7188 0)">
	<stop  offset="0" style="stop-color:#3B2118"/>
	<stop  offset="0.0953" style="stop-color:#40251C"/>
	<stop  offset="0.6555" style="stop-color:#58392F"/>
	<stop  offset="1" style="stop-color:#614036"/>
	<a:midPointStop  offset="0" style="stop-color:#3B2118"/>
	<a:midPointStop  offset="0.4" style="stop-color:#3B2118"/>
	<a:midPointStop  offset="1" style="stop-color:#614036"/>
</linearGradient>
<path fill="url(#SVGID_1_)" d="M43.996,2c-2.5,0-3.752,1.133-4.006,1.672c-3.023,0.691-3.996,5.795-1.732,7.971
	c0.281-2.318,0.553-3.809,2.094-5.379c0.9,1.205,2.768,1.883,4.441,1.883c-0.791-0.576-1.332-1.139-1.756-1.666
	c2.793,1.283,5.922,2.104,6.699,5.162C52.424,7.363,50.189,2,43.996,2z"/>
<path fill="#3B2118" d="M39.984,3.672c-0.039,2.135,0.824,3.734,4.811,4.475C41.938,8.34,39.006,6.613,39.984,3.672z"/>
<path fill="#3B2118" d="M40.234,6.127c-1.041,1.027-2.207,2.803-1.986,5.516c0.207-2.242,1.236-4.088,2.17-5.285
	C40.354,6.285,40.291,6.209,40.234,6.127z"/>
<path fill="#3B2118" d="M42.02,5.451c2.09,1.994,7.225,1.865,7.727,6.191C48.406,7.434,43.865,8.379,42.02,5.451z"/>
<path fill="#F3CCA8" d="M27.086,28.086c0.55-1.518,2.597-1.773,2.597-1.773c1.352,2.869,2.573,8.149,2.675,8.88
	c0.1,0.711,1.22,2.607,1.14,3.139c-0.154,1.027-0.723,1.814-0.957,1.813c-0.523-0.887-1.406-1.629-1.187-0.193
	c-0.173,0.596-0.907-0.436-1.048-1.404c-0.038-0.266,0.344-0.938,0.447-1.465c0.083-0.422-0.006-2.416-1.611-5.025
	C28.165,30.469,27.583,29.41,27.086,28.086z"/>
<path fill="#F3CCA8" d="M13.359,28.035c-0.734-1.438-2.797-1.438-2.797-1.438c-0.984,3.016-1.541,8.405-1.551,9.144
	C9.003,36.46,8.33,38.47,8.541,38.964c0.896,2.094,0.811,2.357,1.909,3.135c0.832,0.59,0.571-0.166,0.194-0.564
	c-0.584-0.617-0.955-2.037-0.189-2.168c0.098,1.582,1.144,1.881,1.066,1.295c-0.201-1.514,0.001-2.432-0.682-3.246
	c-0.275-0.328-0.295-2.396,0.975-5.187C12.585,30.531,13.031,29.41,13.359,28.035z"/>
<path fill="#302C3B" d="M25.609,33.956H14.393c-0.979,5.166-0.256,12.303-1.488,24.896c-0.156,1.586,5.654,1.596,5.604,0
	c-0.242-7.346,0.445-12.938,0.938-17.416c0.037-0.334,1.072-0.334,1.109,0c0.492,4.479,1.182,10.07,0.939,17.416
	c-0.053,1.596,5.76,1.586,5.604,0C25.865,46.259,26.588,39.122,25.609,33.956z"/>
<path fill="#FF7A00" d="M27.037,19.848c-0.906-1.135-4.635-2.271-4.635-2.271H17.6c0,0-3.73,1.137-4.635,2.271
	c-0.793,0.992-2.32,5.816-2.658,6.982c0.045,0.055,1.227,0.111,3.287,1.701c0,0,0.641-1.934,0.891-2.447
	c0.588,3.814-0.297,7.448-0.092,7.872c0.584,1.213,10.625,1.227,11.217,0c0.205-0.424-0.68-4.058-0.094-7.872
	c0.252,0.514,1.4,2.525,1.4,2.525c1.847-1.834,3.012-2.039,3.049-2.098C29.485,25.396,27.83,20.84,27.037,19.848z"/>
<path fill="#6E8189" d="M12.646,61.601c0.184,0.453,5.762,0.637,5.971-0.084C19.426,58.724,11.736,59.372,12.646,61.601z"/>
<path fill="#99A8AE" d="M12.727,61.052c0.041,0.393,5.834,0.598,5.896,0C19.119,56.3,12.273,56.696,12.727,61.052z"/>
<path fill="#1A1626" d="M17.883,58.226c-0.645-1.102-3.703-1.096-4.344,0c-0.117,0.191-0.316,0.715,0.457,0.285
	c-0.768,0.602-0.768,1.127,0,0.678c-0.773,0.578-0.574,0.943-0.457,0.896c1.176-0.582,3.166-0.582,4.344,0
	c0.119,0.047,0.316-0.318-0.457-0.896c0.768,0.449,0.768-0.076,0-0.678C18.199,58.94,18.002,58.417,17.883,58.226z"/>
<path fill="#6E8189" d="M27.355,61.601c-0.184,0.453-5.762,0.637-5.971-0.084C20.576,58.724,28.266,59.372,27.355,61.601z"/>
<path fill="#99A8AE" d="M27.275,61.052c-0.041,0.393-5.834,0.598-5.896,0C20.883,56.3,27.727,56.696,27.275,61.052z"/>
<path fill="#1A1626" d="M22.119,58.226c0.645-1.102,3.701-1.096,4.344,0c0.117,0.191,0.316,0.715-0.457,0.285
	c0.768,0.602,0.768,1.127,0,0.678c0.773,0.578,0.574,0.943,0.457,0.896c-1.178-0.582-3.166-0.582-4.344,0
	c-0.119,0.047-0.316-0.318,0.457-0.896c-0.768,0.449-0.768-0.076,0-0.678C21.803,58.94,22,58.417,22.119,58.226z"/>
<path fill="#ED6A00" d="M16.719,17.875c0,2.926,6.563,2.92,6.563-0.006l-0.59-0.211h-5.346L16.719,17.875z"/>
<path fill="#F3CCA8" d="M17.25,17.906c0,2.176,5.5,2.176,5.5,0c0-0.74,0-2.406,0-2.406h-5.5C17.25,15.5,17.25,17.166,17.25,17.906z"
	/>
<path fill="#1E110E" d="M25.673,14.246c0.403,0.268,0.869,0.467,1.412,0.568c-0.965-2.199,0.49-6.813-2.491-10.201
	c-4.202,0.125-4.782,13.717,1.075,11.908c-0.373-0.162-0.607-0.492-0.744-0.908c0.451,0.131,0.979,0.135,1.594-0.055
	C26.028,15.348,25.78,14.848,25.673,14.246z"/>
<path fill="#1E110E" d="M15.125,4.613c-2.98,3.389-1.242,8.002-2.208,10.201c0.544-0.102,1.01-0.301,1.414-0.568
	c-0.107,0.602-0.357,1.102-0.846,1.313c0.613,0.189,1.141,0.186,1.593,0.055c-0.138,0.416-0.37,0.746-0.743,0.908
	C20.191,18.33,19.327,4.738,15.125,4.613z"/>
<path id="Path_2341_" fill="#FFD8B4" d="M26.132,9.244c-0.949,0.113-1.635,3.293-1.037,4.131c0.083,0.117,0.572,0.305,0.934-0.436
	c0.202-0.41,0.781-0.752,0.961-1.598C27.22,10.258,27.075,9.129,26.132,9.244z"/>
<path id="Path_2340_" fill="#FFD8B4" d="M13.872,9.244c0.949,0.113,1.634,3.293,1.037,4.131c-0.084,0.117-0.573,0.305-0.936-0.436
	c-0.201-0.41-0.779-0.752-0.959-1.598C12.784,10.258,12.929,9.129,13.872,9.244z"/>
<path id="Path_2339_" fill="#DEB38A" d="M26.106,9.852c-0.248,0.08-0.519,0.457-0.664,1.082c0.865-0.186,0.648,1.256-0.104,1.283
	c0.006,0.145,0.016,0.295,0.033,0.453c0.363-0.527,0.73-0.316,1.096-1.1C26.797,10.863,26.718,9.66,26.106,9.852z"/>
<path id="Path_2338_" fill="#DEB38A" d="M14.562,10.932c-0.146-0.623-0.416-1.002-0.663-1.08c-0.613-0.191-0.692,1.012-0.363,1.719
	c0.364,0.783,0.732,0.572,1.096,1.1c0.018-0.158,0.027-0.309,0.034-0.453C13.92,12.182,13.708,10.758,14.562,10.932z"/>
<path fill="#FFD8B4" d="M20.001,3.133c-4.111,0-6.092,3.35-5.844,7.656c0.051,0.865,0.291,2.113,0.588,3.184
	c0.617,2.223,3.871,4.461,5.256,4.461c1.386,0,4.64-2.238,5.256-4.461c0.298-1.07,0.539-2.318,0.59-3.184
	C26.093,6.482,24.114,3.133,20.001,3.133z"/>
<path id="Path_2337_" fill="#A88868" d="M24.468,8.926c-0.939-0.498-2.739-0.521-3.41-0.174c-0.143,0.066-0.047,0.537,0.072,0.494
	c0.936-0.371,2.441-0.379,3.316,0.031C24.563,9.33,24.612,8.996,24.468,8.926z"/>
<path id="Path_2336_" fill="#A88868" d="M15.534,8.926c0.94-0.498,2.739-0.521,3.41-0.174c0.144,0.066,0.049,0.537-0.072,0.494
	c-0.936-0.371-2.439-0.379-3.316,0.031C15.44,9.33,15.393,8.996,15.534,8.926z"/>
<path id="Path_2335_" fill="#DEB38A" d="M21.111,13.246c-0.117-0.082-0.394,0.045-1.11,0.045c-0.715,0-0.992-0.127-1.109-0.045
	c-0.141,0.1,0.084,0.547,1.109,0.547C21.028,13.793,21.253,13.346,21.111,13.246z"/>
<path id="Path_2334_" fill="#DEB38A" d="M20.001,14.941c-0.924-0.273-2.295,0.129-2.295,0.129c0.521,0.568,0.904,1.305,2.295,1.305
	c1.594,0,1.865-0.836,2.297-1.305C22.298,15.07,20.925,14.666,20.001,14.941z"/>
<path id="Path_2333_" fill="#FFFFFF" d="M18.051,15.166c0.97,0.813,2.927,0.818,3.901,0C20.92,15.211,19.091,15.211,18.051,15.166z"
	/>
<path id="Path_2332_" fill="#FFFFFF" d="M19.087,10.623c0.035,0.271-0.15,0.594-0.662,0.836c-0.324,0.154-1,0.336-1.888-0.039
	c-0.399-0.168-0.786-0.691-0.751-0.979C16.267,9.533,18.636,9.4,19.087,10.623z"/>
<linearGradient id="Oval_3_" gradientUnits="userSpaceOnUse" x1="-401.3013" y1="480.5088" x2="-401.3013" y2="480.792" gradientTransform="matrix(6.5701 0 0 -6.5701 2654.0696 3168.5281)">
	<stop  offset="0" style="stop-color:#A6694A"/>
	<stop  offset="1" style="stop-color:#4F2A1E"/>
	<a:midPointStop  offset="0" style="stop-color:#A6694A"/>
	<a:midPointStop  offset="0.5" style="stop-color:#A6694A"/>
	<a:midPointStop  offset="1" style="stop-color:#4F2A1E"/>
</linearGradient>
<circle id="Oval_330_" fill="url(#Oval_3_)" cx="17.479" cy="10.604" r="0.931"/>
<path id="Path_2331_" fill="#1A1626" d="M17.015,10.588c0,0.643,0.93,0.643,0.93,0C17.944,9.99,17.015,9.99,17.015,10.588z"/>
<path id="Path_2330_" fill="#AB968C" d="M16.872,10.326c0,0.271,0.391,0.271,0.391,0C17.263,10.076,16.872,10.076,16.872,10.326z"/>
<path id="Path_2329_" fill="#DEB38A" d="M19.091,10.658c-0.377-1.213-2.955-1.035-3.305-0.217
	C15.916,9.395,18.769,9.119,19.091,10.658z"/>
<path id="Path_2328_" fill="#FFFFFF" d="M20.916,10.623c-0.034,0.271,0.149,0.594,0.661,0.836c0.325,0.154,1,0.336,1.889-0.039
	c0.399-0.168,0.786-0.691,0.752-0.979C23.736,9.533,21.367,9.4,20.916,10.623z"/>
<linearGradient id="Oval_4_" gradientUnits="userSpaceOnUse" x1="-403.2358" y1="480.5088" x2="-403.2358" y2="480.792" gradientTransform="matrix(6.5701 0 0 -6.5701 2671.8 3168.5281)">
	<stop  offset="0" style="stop-color:#A6694A"/>
	<stop  offset="1" style="stop-color:#4F2A1E"/>
	<a:midPointStop  offset="0" style="stop-color:#A6694A"/>
	<a:midPointStop  offset="0.5" style="stop-color:#A6694A"/>
	<a:midPointStop  offset="1" style="stop-color:#4F2A1E"/>
</linearGradient>
<circle id="Oval_329_" fill="url(#Oval_4_)" cx="22.503" cy="10.604" r="0.931"/>
<path id="Path_2327_" fill="#1A1626" d="M22.038,10.588c0,0.643,0.932,0.643,0.932,0C22.97,9.99,22.038,9.99,22.038,10.588z"/>
<path id="Path_2326_" fill="#AB968C" d="M21.896,10.326c0,0.271,0.391,0.271,0.391,0C22.286,10.076,21.896,10.076,21.896,10.326z"/>
<path id="Path_2325_" fill="#DEB38A" d="M20.913,10.658c0.377-1.213,2.952-1.039,3.305-0.217
	C24.087,9.395,21.234,9.119,20.913,10.658z"/>
<linearGradient id="SVGID_2_" gradientUnits="userSpaceOnUse" x1="180.6523" y1="11.6426" x2="180.6523" y2="2" gradientTransform="matrix(1 0 0 1 -160.7109 0)">
	<stop  offset="0" style="stop-color:#1E110E"/>
	<stop  offset="0.2821" style="stop-color:#31211E"/>
	<stop  offset="0.7266" style="stop-color:#493632"/>
	<stop  offset="1" style="stop-color:#523E3A"/>
	<a:midPointStop  offset="0" style="stop-color:#1E110E"/>
	<a:midPointStop  offset="0.4" style="stop-color:#1E110E"/>
	<a:midPointStop  offset="1" style="stop-color:#523E3A"/>
</linearGradient>
<path fill="url(#SVGID_2_)" d="M20.002,2c-2.501,0-3.752,1.133-4.006,1.672c-3.024,0.691-3.997,5.795-1.732,7.971
	c0.28-2.318,0.552-3.809,2.094-5.379c0.899,1.205,2.767,1.883,4.44,1.883c-0.791-0.576-1.332-1.139-1.756-1.666
	c2.793,1.283,5.922,2.104,6.699,5.162C28.429,7.363,26.195,2,20.002,2z"/>
<path fill="#1E110E" d="M15.989,3.672c-0.038,2.135,0.825,3.734,4.811,4.475C17.943,8.34,15.011,6.613,15.989,3.672z"/>
<path fill="#1E110E" d="M16.239,6.127c-1.04,1.027-2.207,2.803-1.985,5.516c0.206-2.242,1.236-4.088,2.17-5.285
	C16.358,6.285,16.297,6.209,16.239,6.127z"/>
<path fill="#1E110E" d="M18.024,5.451c2.09,1.994,7.225,1.865,7.728,6.191C24.412,7.434,19.87,8.379,18.024,5.451z"/>
</svg>
