<?xml version="1.0" encoding="utf-8"?>
<!-- Generator: Adobe Illustrator 15.0.0, SVG Export Plug-In . SVG Version: 6.00 Build 0)  -->
<!DOCTYPE svg PUBLIC "-//W3C//DTD SVG 1.1//EN" "http://www.w3.org/Graphics/SVG/1.1/DTD/svg11.dtd" [
	<!ENTITY ns_flows "http://ns.adobe.com/Flows/1.0/">
	<!ENTITY ns_extend "http://ns.adobe.com/Extensibility/1.0/">
	<!ENTITY ns_ai "http://ns.adobe.com/AdobeIllustrator/10.0/">
	<!ENTITY ns_graphs "http://ns.adobe.com/Graphs/1.0/">
]>
<svg version="1.1" id="Layer_1" xmlns:x="&ns_extend;" xmlns:i="&ns_ai;" xmlns:graph="&ns_graphs;"
	 xmlns="http://www.w3.org/2000/svg" xmlns:xlink="http://www.w3.org/1999/xlink" xmlns:a="http://ns.adobe.com/AdobeSVGViewerExtensions/3.0/"
	 x="0px" y="0px" width="64px" height="64px" viewBox="0 0 64 64" enable-background="new 0 0 64 64" xml:space="preserve">
<path fill="#F9B700" d="M48.612,55.007c0,0.62,3.285,0.62,3.285,0C51.897,52.494,48.612,52.494,48.612,55.007z"/>
<path fill="#F59E01" d="M45.607,56.908c0,0.77,9.295,0.77,9.295,0C54.902,53.796,45.607,53.796,45.607,56.908z"/>
<path fill="#F59E01" d="M45.607,63.423c0,0.77,9.295,0.77,9.295,0C54.902,60.314,45.607,60.314,45.607,63.423z"/>
<path fill="#F59E01" d="M57.714,60.507c8.063,4.05,3.293-8.542-2.403-3.092C50.477,59.723,56.219,64.801,57.714,60.507z
	 M55.869,58.117c3.298-3.15,7.021,2.642,2.92,2.07c1.327-1.991-2.384-2.544-1.909-0.739c-1.027-0.627-2.268,0.708-1.094,1.554
	C54.403,60.781,54.053,58.987,55.869,58.117z"/>
<path fill="#F9B700" d="M56.584,57.211c-5.758-2.952-8.629,0.495-18.058-2.636c-0.827,0.465-2.398,0.544-1.271,1.879
	C46.087,55.303,48.229,68.365,56.584,57.211z"/>
<path fill="#AB5C10" d="M38.683,54.886c-0.104-0.204-1.632,0.573-1.528,0.779C37.58,56.498,39.109,55.723,38.683,54.886z"/>
<linearGradient id="SVGID_1_" gradientUnits="userSpaceOnUse" x1="5.8481" y1="41.4883" x2="56.8545" y2="41.4883">
	<stop  offset="0" style="stop-color:#00A7C7"/>
	<stop  offset="0.2046" style="stop-color:#00A0C5"/>
	<stop  offset="0.4921" style="stop-color:#008EC1"/>
	<stop  offset="0.827" style="stop-color:#0070BA"/>
	<stop  offset="1" style="stop-color:#005EB5"/>
	<a:midPointStop  offset="0" style="stop-color:#00A7C7"/>
	<a:midPointStop  offset="0.6341" style="stop-color:#00A7C7"/>
	<a:midPointStop  offset="1" style="stop-color:#005EB5"/>
</linearGradient>
<path fill="url(#SVGID_1_)" d="M33.589,35.614c-2.313,9.521-10.04,12.452-12.305,6.235c-2.766-0.881-11.771-0.883-14.544,0
	c-5.567,14.707,16.327,25.184,26.714,0.54c8.682-20.594,24.659-8.804,6.348,2.263c-10.709,6.471-6.024,9.719-1.435,11.171
	c-4.401-3.744-1.915-5.823,3.545-8.263C77.664,31.577,38.693,14.604,33.589,35.614z"/>
<path fill="#FF7A00" d="M20.703,39.557c0,2.866-13.383,2.866-13.383,0c0,0-0.113-5.645-1.936-8.959h17.251
	C20.813,33.912,20.703,39.557,20.703,39.557z"/>
<path fill="#00A7C7" d="M12.711,32.939c0.274,3.314,1.3,6.838,1.3,6.838s1.025-3.523,1.299-6.838H12.711z"/>
<polygon fill="#00859E" points="13.561,34.421 15.086,34.821 15.274,33.721 12.654,33.136 12.912,34.654 "/>
<path fill="#F9B700" d="M21.284,41.85c0,2.867-7.271,4.738-7.271,4.738S6.74,44.717,6.74,41.85c0.711-2.316,0.58-2.293,0.58-2.293
	c3.899,2,9.484,2,13.383,0C20.703,39.557,20.598,40.138,21.284,41.85z"/>
<path fill="#00A7C7" d="M17.37,16.775c-0.907-0.654-5.816-0.654-6.716,0c-0.128,3.872,0.037,3.572-5.479,4.903
	c0,2.829,5.355,11.809,8.835,11.809c3.478,0,8.833-8.979,8.833-11.809C17.327,20.348,17.495,20.647,17.37,16.775z"/>
<path fill="#D47706" d="M20.703,39.557c-0.545,0.276-1.124,0.508-1.723,0.708c0.051,1.342,0.208,2.693,0.483,4.04
	c1.043-0.694,1.82-1.521,1.82-2.455C20.598,40.138,20.703,39.557,20.703,39.557z"/>
<path fill="#D47706" d="M9.047,40.267c-0.601-0.202-1.185-0.434-1.727-0.71c0,0,0.131-0.023-0.58,2.293
	c0,0.934,0.777,1.761,1.821,2.455C8.836,42.958,8.993,41.606,9.047,40.267z"/>
<path fill="#013863" d="M20.782,14.602c0.483,0.319,1.038,0.557,1.688,0.678c-1.152-2.623,0.585-8.123-2.975-12.165
	c-5.021,0.15-5.715,16.356,1.283,14.2c-0.446-0.191-0.724-0.585-0.89-1.081c0.54,0.154,1.17,0.158,1.905-0.066
	C21.207,15.914,20.91,15.318,20.782,14.602z"/>
<path fill="#013863" d="M8.185,3.114c-3.562,4.042-1.485,9.542-2.637,12.165c0.649-0.121,1.205-0.358,1.688-0.678
	c-0.128,0.717-0.427,1.313-1.009,1.565c0.731,0.225,1.361,0.221,1.902,0.066c-0.166,0.496-0.443,0.89-0.89,1.081
	C14.236,19.471,13.203,3.265,8.185,3.114z"/>
<path id="Path_814_" fill="#0FB4D4" d="M21.331,8.635c-1.135,0.138-1.952,3.928-1.239,4.928c0.101,0.14,0.685,0.362,1.115-0.519
	c0.243-0.49,0.934-0.898,1.146-1.906C22.63,9.846,22.459,8.5,21.331,8.635z"/>
<path id="Path_813_" fill="#0FB4D4" d="M6.687,8.635c1.134,0.138,1.952,3.928,1.239,4.928c-0.102,0.14-0.685,0.362-1.115-0.519
	c-0.243-0.49-0.935-0.898-1.147-1.906C5.387,9.846,5.561,8.5,6.687,8.635z"/>
<path id="Path_812_" fill="#00859E" d="M21.299,9.362c-0.295,0.094-0.616,0.544-0.792,1.29c1.033-0.222,0.775,1.497-0.124,1.528
	c0.008,0.174,0.021,0.353,0.041,0.54c0.434-0.629,0.873-0.375,1.309-1.311C22.126,10.568,22.032,9.133,21.299,9.362z"/>
<path id="Path_811_" fill="#00859E" d="M7.511,10.649C7.335,9.906,7.014,9.454,6.72,9.362c-0.734-0.229-0.829,1.206-0.436,2.048
	c0.436,0.936,0.875,0.682,1.309,1.311c0.021-0.188,0.033-0.366,0.041-0.54C6.745,12.14,6.489,10.441,7.511,10.649z"/>
<path fill="#0FB4D4" d="M14.009,1.35c-4.911,0-7.276,3.994-6.98,9.129C7.089,11.51,7.375,13,7.73,14.275
	c0.736,2.651,4.623,5.32,6.278,5.32s5.541-2.669,6.278-5.32c0.354-1.275,0.642-2.766,0.702-3.797
	C21.284,5.344,18.923,1.35,14.009,1.35z"/>
<path id="Path_810_" fill="#014D87" d="M19.346,8.258c-1.125-0.594-3.273-0.623-4.075-0.208c-0.172,0.079-0.057,0.642,0.088,0.59
	c1.115-0.442,2.915-0.452,3.959,0.035C19.458,8.739,19.516,8.34,19.346,8.258z"/>
<path id="Path_809_" fill="#014D87" d="M8.672,8.258c1.124-0.594,3.273-0.623,4.075-0.208c0.169,0.079,0.057,0.642-0.086,0.59
	c-1.12-0.442-2.915-0.452-3.962,0.035C8.56,8.739,8.505,8.34,8.672,8.258z"/>
<path id="Path_808_" fill="#00859E" d="M15.333,13.41c-0.138-0.1-0.469,0.053-1.324,0.053c-0.856,0-1.185-0.152-1.325-0.053
	c-0.169,0.117,0.099,0.65,1.325,0.65S15.503,13.527,15.333,13.41z"/>
<path id="Path_807_" fill="#00859E" d="M14.009,15.429c-1.104-0.322-2.741,0.154-2.741,0.154c0.624,0.68,1.08,1.557,2.741,1.557
	c1.904,0,2.226-0.998,2.743-1.557C16.752,15.583,15.111,15.102,14.009,15.429z"/>
<path id="Path_806_" fill="#FFFFFF" d="M11.68,15.698c1.157,0.971,3.495,0.977,4.66,0C15.104,15.752,12.92,15.752,11.68,15.698z"/>
<path id="Path_805_" fill="#FFFFFF" d="M12.916,10.281c0.043,0.325-0.18,0.708-0.79,0.998c-0.388,0.183-1.193,0.399-2.254-0.048
	c-0.478-0.2-0.94-0.823-0.898-1.167C9.547,8.981,12.379,8.822,12.916,10.281z"/>
<linearGradient id="Oval_1_" gradientUnits="userSpaceOnUse" x1="-426.749" y1="480.5342" x2="-426.749" y2="480.8721" gradientTransform="matrix(6.5701 0 0 -6.5701 2814.7805 3168.5281)">
	<stop  offset="0" style="stop-color:#74717D"/>
	<stop  offset="1" style="stop-color:#28272E"/>
	<a:midPointStop  offset="0" style="stop-color:#74717D"/>
	<a:midPointStop  offset="0.5" style="stop-color:#74717D"/>
	<a:midPointStop  offset="1" style="stop-color:#28272E"/>
</linearGradient>
<circle id="Oval_74_" fill="url(#Oval_1_)" cx="10.996" cy="10.259" r="1.109"/>
<path id="Path_804_" fill="#1A1626" d="M10.44,10.239c0,0.767,1.111,0.767,1.111,0C11.552,9.527,10.44,9.527,10.44,10.239z"/>
<path id="Path_803_" fill="#9F9AAB" d="M10.271,9.927c0,0.323,0.467,0.323,0.467,0C10.737,9.629,10.271,9.629,10.271,9.927z"/>
<path id="Path_802_" fill="#00859E" d="M12.92,10.322c-0.449-1.447-3.528-1.232-3.946-0.258C9.129,8.816,12.538,8.487,12.92,10.322z
	"/>
<path id="Path_801_" fill="#FFFFFF" d="M15.101,10.281c-0.042,0.325,0.181,0.708,0.792,0.998c0.387,0.183,1.192,0.399,2.255-0.048
	c0.476-0.2,0.938-0.823,0.896-1.167C18.471,8.981,15.639,8.822,15.101,10.281z"/>
<linearGradient id="Oval_2_" gradientUnits="userSpaceOnUse" x1="-428.5347" y1="480.5342" x2="-428.5347" y2="480.8721" gradientTransform="matrix(6.5701 0 0 -6.5701 2832.511 3168.5281)">
	<stop  offset="0" style="stop-color:#74717D"/>
	<stop  offset="1" style="stop-color:#28272E"/>
	<a:midPointStop  offset="0" style="stop-color:#74717D"/>
	<a:midPointStop  offset="0.5" style="stop-color:#74717D"/>
	<a:midPointStop  offset="1" style="stop-color:#28272E"/>
</linearGradient>
<circle id="Oval_73_" fill="url(#Oval_2_)" cx="16.997" cy="10.259" r="1.109"/>
<path id="Path_800_" fill="#1A1626" d="M16.439,10.239c0,0.767,1.113,0.767,1.113,0C17.553,9.527,16.439,9.527,16.439,10.239z"/>
<path id="Path_799_" fill="#9F9AAB" d="M16.273,9.927c0,0.323,0.464,0.323,0.464,0C16.737,9.629,16.273,9.629,16.273,9.927z"/>
<path id="Path_798_" fill="#00859E" d="M15.097,10.322c0.45-1.447,3.526-1.239,3.946-0.258C18.888,8.816,15.481,8.487,15.097,10.322
	z"/>
<linearGradient id="SVGID_2_" gradientUnits="userSpaceOnUse" x1="13.9355" y1="11.498" x2="13.9355" y2="0">
	<stop  offset="0" style="stop-color:#012A4A"/>
	<stop  offset="0.3617" style="stop-color:#013A66"/>
	<stop  offset="0.7568" style="stop-color:#01487E"/>
	<stop  offset="1" style="stop-color:#014D87"/>
	<a:midPointStop  offset="0" style="stop-color:#012A4A"/>
	<a:midPointStop  offset="0.4" style="stop-color:#012A4A"/>
	<a:midPointStop  offset="1" style="stop-color:#014D87"/>
</linearGradient>
<path fill="url(#SVGID_2_)" d="M14.009,0c-2.986,0-4.48,1.35-4.783,1.991c-3.615,0.825-4.776,6.911-2.07,9.507
	C7.49,8.733,7.814,6.954,9.656,5.083c1.073,1.438,3.307,2.244,5.305,2.244c-0.946-0.686-1.593-1.358-2.1-1.983
	c3.338,1.527,7.075,2.506,8.002,6.154C24.074,6.394,21.408,0,14.009,0z"/>
<path fill="#FF7A00" d="M9.221,20.612c1.438,1.473,3.365,10.817,3.365,10.817S0.745,34.307,2.2,22.948
	C2.435,21.121,8.325,20.129,9.221,20.612z"/>
<path fill="#00A7C7" d="M2.2,23.487c0.592-2.45,3.218-1.138,3.666-0.34c1.113,1.99,1.946,6.507,1.946,8.924
	c6.679-0.942,11.363-2.765,12.394,0c-4.603-0.707-8.462,4.533-15.881,4.824C2.931,36.952,1.455,26.57,2.2,23.487z"/>
<path fill="#00859E" d="M7.813,32.071c3.961-1.053,8.376-1.382,7.414,1.14c0,0-0.978,0.568-1.959,0.993
	C11.391,32.888,9.107,32.127,7.813,32.071z"/>
<path fill="#FF7A00" d="M18.797,20.612c-1.436,1.473-3.365,10.817-3.365,10.817s11.841,2.877,10.386-8.481
	C25.583,21.121,19.694,20.129,18.797,20.612z"/>
<path fill="#00A7C7" d="M25.817,23.487c-0.591-2.448-3.237-1.147-3.664-0.34c-0.978,1.844-2.105,6.338-2.256,8.099
	c-6.68-0.944-11.01-1.761-12.085,0.825c4.602-0.707,8.167,4.287,15.879,4.824C25.087,36.994,26.563,26.57,25.817,23.487z"/>
<path fill="#D47706" d="M9.949,30.471c-0.543,0.154-0.777,1.237-0.286,1.561c0.489,0.321,4.411,1.998,4.756,1.886
	c-0.511-0.625-0.021-3.161,1.23-3.267C15.398,30.256,11.775,29.948,9.949,30.471z"/>
<path fill="#F9B700" d="M15.057,30.912c-1.857-0.375-4.725-0.188-5.47-0.142c-0.121,0.19-0.195,0.434-0.192,0.669
	c1.284,0.031,3.653,0.463,4.955,0.735C14.648,31.43,15.057,30.912,15.057,30.912z"/>
</svg>
