<?xml version="1.0" encoding="utf-8"?>
<!-- Generator: Adobe Illustrator 15.0.0, SVG Export Plug-In . SVG Version: 6.00 Build 0)  -->
<!DOCTYPE svg PUBLIC "-//W3C//DTD SVG 1.1//EN" "http://www.w3.org/Graphics/SVG/1.1/DTD/svg11.dtd" [
	<!ENTITY ns_flows "http://ns.adobe.com/Flows/1.0/">
	<!ENTITY ns_extend "http://ns.adobe.com/Extensibility/1.0/">
	<!ENTITY ns_ai "http://ns.adobe.com/AdobeIllustrator/10.0/">
	<!ENTITY ns_graphs "http://ns.adobe.com/Graphs/1.0/">
]>
<svg version="1.1" id="Layer_1" xmlns:x="&ns_extend;" xmlns:i="&ns_ai;" xmlns:graph="&ns_graphs;"
	 xmlns="http://www.w3.org/2000/svg" xmlns:xlink="http://www.w3.org/1999/xlink" xmlns:a="http://ns.adobe.com/AdobeSVGViewerExtensions/3.0/"
	 x="0px" y="0px" width="64px" height="64px" viewBox="0 0 64 64" enable-background="new 0 0 64 64" xml:space="preserve">
<path fill="#1A1626" d="M62,19.242c-8.074,10.42-20.783,10.482-30,10.475c-9.217,0.008-21.924-0.055-30-10.475
	C2,38.408,17.279,43.773,10.486,55.4c-2.146,3.676,45.176,3.676,43.029,0C46.725,43.773,62,38.408,62,19.242z"/>
<path fill="#E81C27" d="M32,29.717c-9.217,0.008-19.984-0.6-28-8.193c0,11.357,20.279,24.602,13.486,36.23
	c-2.146,3.676,31.176,3.676,29.027,0c-6.793-11.629,13.488-24.873,13.488-36.23C51.986,29.117,41.217,29.725,32,29.717z"/>
<path fill="#1A1626" d="M12.254,52.727c2.402-1.288,12.431-4.544,12.431-4.544l14.612-0.035c0,0,10.116,3.283,12.503,4.576
	c3.471,1.873,4.2,4.429,4.2,6.845c0,3.254-48,3.254-48,0C8,57.149,8.774,54.593,12.254,52.727z"/>
<rect x="15.811" y="21.139" fill="#1A1626" width="32.379" height="30.584"/>
<path fill="#A3765A" d="M32,47.486c-5.879,0-15.438,1.564-15.438,1.564l2.217,6.436c0,0,3.109,4.959,13.219,6.508v0.002
	c0,0,0.002,0,0.002-0.002c0,0.002,0,0.002,0,0.002l0.002-0.002c10.109-1.549,13.219-6.508,13.219-6.508l2.219-6.436
	C47.439,49.051,37.879,47.486,32,47.486z"/>
<path fill="#E81C27" d="M32.002,61.994c4.057-0.621,6.986-1.793,9.041-2.971H32l0,0h-9.043c2.055,1.178,4.984,2.35,9.041,2.971
	v0.002c0,0,0.002,0,0.002-0.002c0,0.002,0,0.002,0,0.002L32.002,61.994z"/>
<path fill="#302C3B" d="M43.162,61.757c0,0,5.465-7.577,7.795-16.284l-9.004,1.246c0,0,0.494,5.864-2.713,15.188L43.162,61.757z"/>
<path fill="#302C3B" d="M20.837,61.757c0,0-5.464-7.577-7.792-16.284l9,1.246c0,0-0.494,5.864,2.715,15.188L20.837,61.757z"/>
<path fill="#A3765A" d="M24.5,49.947c0,0,2.361,2.832,7.5,2.832c5.141,0,7.5-2.832,7.5-2.832v-8.035h-15V49.947z"/>
<path fill="#B88A6F" d="M32,8.275c-11.002,0-16.305,8.963-15.643,20.484c0.135,2.316,0.779,5.658,1.574,8.52
	C19.582,43.23,28.291,49.225,32,49.225c3.707,0,12.416-5.994,14.068-11.945c0.795-2.861,1.439-6.203,1.576-8.52
	C48.305,17.238,43.008,8.275,32,8.275z"/>
<path fill="#1A1626" d="M43.693,24.926c-2.391-1.424-6.68-1.6-8.375-0.629c-0.359,0.197-0.264,1.227,0.047,1.098
	c2.42-1.008,6.109-1.059,8.381,0.107C44.049,25.656,44.057,25.133,43.693,24.926z"/>
<path fill="#1A1626" d="M20.305,24.926c2.391-1.424,6.68-1.6,8.379-0.629c0.361,0.197,0.264,1.227-0.049,1.098
	c-2.422-1.008-6.105-1.061-8.379,0.107C19.949,25.656,19.943,25.133,20.305,24.926z"/>
<path fill="#8C5F44" d="M34.475,36.213c-0.264-0.184-0.877,0.098-2.477,0.098c-1.596,0-2.211-0.281-2.473-0.098
	c-0.314,0.221,0.186,1.217,2.473,1.217C34.287,37.43,34.789,36.434,34.475,36.213z"/>
<path id="Path_1573_" fill="#FFFFFF" d="M29.553,29.25c0.092,0.727-0.402,1.59-1.771,2.238c-0.869,0.41-2.678,0.895-5.055-0.107
	c-1.064-0.449-2.104-1.848-2.01-2.621C22.006,26.332,28.346,25.977,29.553,29.25z"/>
<linearGradient id="Oval_1_" gradientUnits="userSpaceOnUse" x1="-424.5796" y1="477.4414" x2="-424.5796" y2="478.1992" gradientTransform="matrix(6.5701 0 0 -6.5701 2814.7805 3168.5281)">
	<stop  offset="0" style="stop-color:#C20606"/>
	<stop  offset="1" style="stop-color:#5E0000"/>
	<a:midPointStop  offset="0" style="stop-color:#C20606"/>
	<a:midPointStop  offset="0.5" style="stop-color:#C20606"/>
	<a:midPointStop  offset="1" style="stop-color:#5E0000"/>
</linearGradient>
<circle id="Oval_204_" fill="url(#Oval_1_)" cx="25.25" cy="29.199" r="2.49"/>
<path id="Path_1572_" fill="#1A1626" d="M24.006,29.154c0,1.723,2.49,1.723,2.49,0C26.496,27.555,24.006,27.555,24.006,29.154z"/>
<path id="Path_1571_" fill="#AB968C" d="M23.627,28.457c0,0.723,1.043,0.723,1.043,0C24.67,27.787,23.627,27.787,23.627,28.457z"/>
<path id="Path_1570_" fill="#1A1626" d="M29.564,29.346c-1.012-3.252-7.908-2.771-8.848-0.586
	C21.064,25.961,28.701,25.223,29.564,29.346z"/>
<path id="Path_1569_" fill="#FFFFFF" d="M34.449,29.25c-0.094,0.727,0.4,1.59,1.77,2.238c0.869,0.41,2.678,0.895,5.055-0.107
	c1.066-0.449,2.104-1.848,2.01-2.621C41.996,26.332,35.654,25.977,34.449,29.25z"/>
<linearGradient id="Oval_2_" gradientUnits="userSpaceOnUse" x1="-425.2319" y1="477.4414" x2="-425.2319" y2="478.1992" gradientTransform="matrix(6.5701 0 0 -6.5701 2832.511 3168.5281)">
	<stop  offset="0" style="stop-color:#C20606"/>
	<stop  offset="1" style="stop-color:#5E0000"/>
	<a:midPointStop  offset="0" style="stop-color:#C20606"/>
	<a:midPointStop  offset="0.5" style="stop-color:#C20606"/>
	<a:midPointStop  offset="1" style="stop-color:#5E0000"/>
</linearGradient>
<circle id="Oval_203_" fill="url(#Oval_2_)" cx="38.695" cy="29.199" r="2.49"/>
<path id="Path_1568_" fill="#1A1626" d="M37.451,29.154c0,1.723,2.492,1.723,2.492,0C39.943,27.555,37.451,27.555,37.451,29.154z"/>
<path id="Path_1567_" fill="#AB968C" d="M37.072,28.457c0,0.723,1.043,0.723,1.043,0C38.115,27.787,37.072,27.787,37.072,28.457z"/>
<path id="Path_1566_" fill="#1A1626" d="M34.438,29.346c1.012-3.25,7.902-2.785,8.846-0.586
	C42.934,25.961,35.299,25.223,34.438,29.346z"/>
<path fill="#AB1C27" d="M32.002,40.916c-2.162-0.285-4.389-0.33-6.627-0.096c4.84,3.803,8.412,3.803,13.254,0
	C36.389,40.586,34.176,40.631,32.002,40.916z"/>
<polygon fill="#FFFFFF" points="27.52,40.836 28.35,44.15 29.232,40.92 "/>
<polygon fill="#FFFFFF" points="36.479,40.836 35.648,44.15 34.764,40.92 "/>
<path fill="#820505" d="M34.643,39.971c-1.957-0.791-2.654,0.264-2.641,0.25c0.012,0.014-0.688-1.041-2.641-0.25
	c-1.502,0.594-3.986,0.82-3.986,0.85c2.717-0.043,3.117,0.77,6.627,0.66c3.506,0.109,3.908-0.703,6.627-0.66
	C38.629,40.791,36.143,40.564,34.643,39.971z"/>
<path fill="#302C3B" d="M42.619,50.139c0,0,9.297-10.563,9.316-12.496c0,0-2-6.713-2-16.055C49.936,13.596,42.502,6,32.002,6
	s-17.936,7.596-17.936,15.588c0,9.342-2,16.055-2,16.055c0.02,1.934,9.316,12.496,9.316,12.496
	C15.92,32.596,18.9,19.533,18.9,19.533c-0.002,0,0.428,2.609,0.428,2.609s1.957,0.326,4.678,0.628
	c0.125,0.014,0.381-1.098,0.381-1.098s0.279,1.169,0.424,1.184c2.193,0.226,4.773,0.419,7.191,0.419c1.09,0,2.209-0.039,3.313-0.104
	c0.16-0.009,0.48-1.168,0.48-1.168s0.273,1.121,0.41,1.111c4.494-0.311,8.471-0.973,8.471-0.973l0.428-2.609
	C45.104,19.533,48.082,32.596,42.619,50.139z"/>
</svg>
