<?xml version="1.0" encoding="utf-8"?>
<!-- Generator: Adobe Illustrator 15.0.0, SVG Export Plug-In . SVG Version: 6.00 Build 0)  -->
<!DOCTYPE svg PUBLIC "-//W3C//DTD SVG 1.1//EN" "http://www.w3.org/Graphics/SVG/1.1/DTD/svg11.dtd" [
	<!ENTITY ns_flows "http://ns.adobe.com/Flows/1.0/">
	<!ENTITY ns_extend "http://ns.adobe.com/Extensibility/1.0/">
	<!ENTITY ns_ai "http://ns.adobe.com/AdobeIllustrator/10.0/">
	<!ENTITY ns_graphs "http://ns.adobe.com/Graphs/1.0/">
]>
<svg version="1.1" id="Layer_1" xmlns:x="&ns_extend;" xmlns:i="&ns_ai;" xmlns:graph="&ns_graphs;"
	 xmlns="http://www.w3.org/2000/svg" xmlns:xlink="http://www.w3.org/1999/xlink" xmlns:a="http://ns.adobe.com/AdobeSVGViewerExtensions/3.0/"
	 x="0px" y="0px" width="64px" height="64px" viewBox="0 0 64 64" enable-background="new 0 0 64 64" xml:space="preserve">
<path fill="#E6EBEF" d="M6.432,52.718c2.502-1.288,11.499-4.374,11.499-4.374l18.114-0.035c0,0,9.094,3.113,11.581,4.406
	C51.24,54.587,52,57.144,52,59.56c0,3.254-50,3.254-50,0C2,57.14,2.807,54.583,6.432,52.718z"/>
<polygon fill="#F3CCA8" points="18.666,49.947 27,54.148 35.333,49.947 35.333,41.912 18.666,41.912 "/>
<path fill="#068AC7" d="M35.326,46.52c-1.512,3.406-7.116,4.367-7.116,4.367C27.984,50.938,27,54.148,27,54.148
	s9.243-0.342,9.243-5.598C36.243,47.254,35.326,46.52,35.326,46.52z"/>
<path fill="#068AC7" d="M18.673,46.52c1.511,3.406,7.116,4.367,7.116,4.367c0.225,0.051,1.21,3.262,1.21,3.262
	s-9.243-0.342-9.243-5.598C17.756,47.254,18.673,46.52,18.673,46.52z"/>
<path fill="#CFD8DD" d="M36.778,55.455C35.647,55.018,27,54.148,27,54.148s7.626,1.23,8.63,1.715
	c1.005,0.486,1.143,5.963,1.143,5.963l1.152-0.047C37.925,61.779,37.908,55.893,36.778,55.455z"/>
<path fill="#068AC7" d="M20.938,57.844c0.767,0,1.39,0.672,1.39,1.5c0,0.83-0.623,1.5-1.39,1.5c-0.768,0-1.388-0.67-1.388-1.5
	C19.55,58.516,20.17,57.844,20.938,57.844"/>
<path fill="#068AC7" d="M33.06,57.844c0.768,0,1.39,0.672,1.39,1.5c0,0.83-0.622,1.5-1.39,1.5c-0.769,0-1.389-0.67-1.389-1.5
	C31.671,58.516,32.291,57.844,33.06,57.844"/>
<path fill="#1E110E" d="M42.218,38.784c1.08,0.714,2.326,1.247,3.781,1.521c-2.582-5.889,1.313-18.238-6.668-27.312
	c-11.25,0.338-12.807,36.722,2.875,31.884c-0.998-0.434-1.623-1.316-1.99-2.43c1.209,0.346,2.621,0.357,4.268-0.148
	C43.173,41.732,42.507,40.397,42.218,38.784z"/>
<path fill="#1E110E" d="M13.979,12.993c-7.979,9.074-3.326,21.423-5.91,27.312c1.455-0.273,2.701-0.807,3.781-1.521
	c-0.287,1.613-0.955,2.948-2.264,3.515c1.645,0.506,3.057,0.494,4.266,0.148c-0.367,1.113-0.99,1.996-1.99,2.43
	C27.544,49.715,25.229,13.331,13.979,12.993z"/>
<path id="Path_1376_" fill="#FFD8B4" d="M43.446,25.39c-2.541,0.308-4.375,8.816-2.777,11.062c0.223,0.313,1.533,0.813,2.504-1.167
	c0.537-1.099,2.09-2.014,2.568-4.278C46.358,28.107,45.974,25.083,43.446,25.39z"/>
<path id="Path_1375_" fill="#FFD8B4" d="M10.624,25.39c2.541,0.308,4.375,8.816,2.777,11.062c-0.225,0.313-1.533,0.813-2.504-1.167
	c-0.539-1.099-2.09-2.014-2.57-4.278C7.712,28.107,8.097,25.083,10.624,25.39z"/>
<path id="Path_1374_" fill="#DEB38A" d="M43.378,27.021c-0.662,0.209-1.387,1.219-1.779,2.896c2.318-0.498,1.738,3.361-0.275,3.435
	c0.018,0.388,0.045,0.788,0.092,1.209c0.971-1.411,1.957-0.845,2.934-2.941C45.228,29.73,45.019,26.506,43.378,27.021z"/>
<path id="Path_1373_" fill="#DEB38A" d="M12.47,29.914c-0.393-1.674-1.113-2.685-1.775-2.892c-1.643-0.516-1.852,2.708-0.973,4.599
	c0.977,2.096,1.963,1.53,2.934,2.941c0.047-0.423,0.074-0.822,0.09-1.21C10.753,33.256,10.183,29.444,12.47,29.914z"/>
<path fill="#FFD8B4" d="M27.034,9.033c-11.008,0-16.311,8.965-15.648,20.493c0.137,2.317,0.781,5.661,1.576,8.525
	c1.65,5.953,10.363,11.947,14.072,11.947s12.422-5.994,14.072-11.947c0.797-2.864,1.441-6.208,1.578-8.525
	C43.345,17.998,38.044,9.033,27.034,9.033z"/>
<path id="Path_1372_" fill="#A88868" d="M38.995,24.541c-2.518-1.333-7.336-1.398-9.131-0.47c-0.385,0.18-0.129,1.443,0.193,1.323
	c2.5-0.99,6.535-1.012,8.877,0.084C39.247,25.621,39.376,24.727,38.995,24.541z"/>
<path id="Path_1371_" fill="#A88868" d="M15.075,24.541c2.518-1.333,7.332-1.398,9.129-0.47c0.385,0.18,0.131,1.443-0.191,1.323
	c-2.506-0.99-6.535-1.012-8.879,0.084C14.823,25.621,14.694,24.727,15.075,24.541z"/>
<path id="Path_1353_" fill="#DEB38A" d="M30.005,36.107c-0.313-0.22-1.051,0.117-2.971,0.117c-1.916,0-2.654-0.337-2.971-0.117
	c-0.375,0.265,0.225,1.462,2.971,1.462C29.784,37.569,30.384,36.372,30.005,36.107z"/>
<path id="Path_1352_" fill="#DEB38A" d="M27.034,40.644c-2.475-0.728-6.145,0.345-6.145,0.345c1.398,1.523,2.422,3.497,6.145,3.497
	c4.266,0,4.992-2.241,6.146-3.497C33.181,40.988,29.509,39.912,27.034,40.644z"/>
<path id="Path_1351_" fill="#FFFFFF" d="M21.812,41.246c2.596,2.178,7.838,2.193,10.447,0
	C29.493,41.365,24.597,41.367,21.812,41.246z"/>
<path id="Path_1350_" fill="#FFFFFF" d="M24.585,29.084c0.094,0.729-0.4,1.593-1.77,2.24c-0.869,0.412-2.68,0.896-5.057-0.107
	c-1.066-0.449-2.104-1.849-2.012-2.623C17.036,26.165,23.38,25.81,24.585,29.084z"/>
<linearGradient id="Oval_1_" gradientUnits="userSpaceOnUse" x1="-425.3354" y1="477.4658" x2="-425.3354" y2="478.2246" gradientTransform="matrix(6.5701 0 0 -6.5701 2814.7805 3168.5281)">
	<stop  offset="0" style="stop-color:#A6694A"/>
	<stop  offset="1" style="stop-color:#4F2A1E"/>
	<a:midPointStop  offset="0" style="stop-color:#A6694A"/>
	<a:midPointStop  offset="0.5" style="stop-color:#A6694A"/>
	<a:midPointStop  offset="1" style="stop-color:#4F2A1E"/>
</linearGradient>
<circle id="Oval_154_" fill="url(#Oval_1_)" cx="20.282" cy="29.035" r="2.492"/>
<path id="Path_1349_" fill="#1A1626" d="M19.036,28.989c0,1.725,2.492,1.725,2.492,0C21.528,27.389,19.036,27.389,19.036,28.989z"/>
<path id="Path_1348_" fill="#AB968C" d="M18.657,28.291c0,0.723,1.045,0.723,1.045,0C19.702,27.622,18.657,27.622,18.657,28.291z"/>
<path id="Path_1347_" fill="#DEB38A" d="M24.597,29.18c-1.012-3.252-7.91-2.772-8.85-0.585
	C16.097,25.794,23.735,25.055,24.597,29.18z"/>
<path id="Path_1346_" fill="#FFFFFF" d="M29.483,29.084c-0.092,0.729,0.402,1.593,1.771,2.24c0.869,0.412,2.678,0.896,5.057-0.107
	c1.066-0.449,2.104-1.849,2.01-2.623C37.034,26.165,30.69,25.81,29.483,29.084z"/>
<linearGradient id="Oval_2_" gradientUnits="userSpaceOnUse" x1="-425.9873" y1="477.4658" x2="-425.9873" y2="478.2246" gradientTransform="matrix(6.5701 0 0 -6.5701 2832.511 3168.5281)">
	<stop  offset="0" style="stop-color:#A6694A"/>
	<stop  offset="1" style="stop-color:#4F2A1E"/>
	<a:midPointStop  offset="0" style="stop-color:#A6694A"/>
	<a:midPointStop  offset="0.5" style="stop-color:#A6694A"/>
	<a:midPointStop  offset="1" style="stop-color:#4F2A1E"/>
</linearGradient>
<circle id="Oval_153_" fill="url(#Oval_2_)" cx="33.731" cy="29.035" r="2.492"/>
<path id="Path_1345_" fill="#1A1626" d="M32.487,28.989c0,1.725,2.492,1.725,2.492,0C34.979,27.389,32.487,27.389,32.487,28.989z"/>
<path id="Path_1344_" fill="#AB968C" d="M32.108,28.291c0,0.723,1.045,0.723,1.045,0C33.153,27.622,32.108,27.622,32.108,28.291z"/>
<path id="Path_1343_" fill="#DEB38A" d="M29.474,29.18c1.01-3.251,7.904-2.786,8.848-0.585
	C37.972,25.794,30.335,25.055,29.474,29.18z"/>
<linearGradient id="SVGID_1_" gradientUnits="userSpaceOnUse" x1="26.8706" y1="31.8159" x2="26.8706" y2="5.9985">
	<stop  offset="0" style="stop-color:#1E110E"/>
	<stop  offset="0.2821" style="stop-color:#31211E"/>
	<stop  offset="0.7266" style="stop-color:#493632"/>
	<stop  offset="1" style="stop-color:#523E3A"/>
	<a:midPointStop  offset="0" style="stop-color:#1E110E"/>
	<a:midPointStop  offset="0.4" style="stop-color:#1E110E"/>
	<a:midPointStop  offset="1" style="stop-color:#523E3A"/>
</linearGradient>
<path fill="url(#SVGID_1_)" d="M27.036,5.999c-6.699,0-10.045,3.034-10.725,4.473c-8.098,1.852-10.703,15.516-4.641,21.344
	c0.754-6.211,1.479-10.201,5.607-14.404c2.408,3.227,7.41,5.042,11.889,5.042c-2.121-1.541-3.566-3.051-4.701-4.458
	c7.479,3.433,15.855,5.63,17.934,13.821C49.595,20.357,43.618,5.999,27.036,5.999z"/>
<path fill="#1E110E" d="M16.294,10.47c-0.08,4.427,2.184,9.995,12.877,11.982C21.522,22.969,13.673,18.347,16.294,10.47z"/>
<path fill="#1E110E" d="M16.786,16.611c-2.785,2.746-5.736,7.938-5.143,15.205c0.553-6.005,3.313-10.949,5.811-14.152
	C17.276,17.471,16.937,16.829,16.786,16.611z"/>
<path fill="#1E110E" d="M21.739,15.233c5.764,5.504,19.174,3.535,20.688,16.583C38.841,20.544,26.683,23.073,21.739,15.233z"/>
<linearGradient id="SVGID_2_" gradientUnits="userSpaceOnUse" x1="8.0752" y1="17.1924" x2="45.5156" y2="17.1924">
	<stop  offset="0" style="stop-color:#CFD8DD"/>
	<stop  offset="0.1251" style="stop-color:#DBE3E7"/>
	<stop  offset="0.3157" style="stop-color:#E8EDF2"/>
	<stop  offset="0.5" style="stop-color:#ECF1F5"/>
	<stop  offset="0.6843" style="stop-color:#E8EDF2"/>
	<stop  offset="0.8749" style="stop-color:#DBE3E7"/>
	<stop  offset="1" style="stop-color:#CFD8DD"/>
	<a:midPointStop  offset="0" style="stop-color:#CFD8DD"/>
	<a:midPointStop  offset="0.3" style="stop-color:#CFD8DD"/>
	<a:midPointStop  offset="0.5" style="stop-color:#ECF1F5"/>
	<a:midPointStop  offset="0.7" style="stop-color:#ECF1F5"/>
	<a:midPointStop  offset="1" style="stop-color:#CFD8DD"/>
</linearGradient>
<path fill="url(#SVGID_2_)" d="M26.999,10.547c-12.737,0-18.924,6.645-18.924,6.645l0.177,6.567c0,0,5.656-2.768,18.747-2.768
	c13.088,0,18.403,2.848,18.403,2.848l0.113-6.646C45.516,17.192,39.736,10.547,26.999,10.547"/>
<linearGradient id="SVGID_3_" gradientUnits="userSpaceOnUse" x1="27.0005" y1="17.9717" x2="27.0005" y2="2">
	<stop  offset="0" style="stop-color:#C5CFD6"/>
	<stop  offset="0.7152" style="stop-color:#ECF1F5"/>
	<a:midPointStop  offset="0" style="stop-color:#C5CFD6"/>
	<a:midPointStop  offset="0.5" style="stop-color:#C5CFD6"/>
	<a:midPointStop  offset="0.7152" style="stop-color:#ECF1F5"/>
</linearGradient>
<path fill="url(#SVGID_3_)" d="M45.542,4.662C41.357,2.887,38.862,2,35.725,2c-1.446,0-5.117,1.381-8.729,1.33
	C23.387,3.381,19.719,2,18.273,2c-3.139,0-5.637,0.887-9.819,2.662C4.273,6.438,3,7.893,3,11.318c0,4.854,5.075,6.652,5.075,6.652
	s18.646-7.983,37.438,0.001c0,0,5.486-1.8,5.486-6.653C51,7.893,49.725,6.438,45.542,4.662"/>
<linearGradient id="SVGID_4_" gradientUnits="userSpaceOnUse" x1="26.9634" y1="17.9717" x2="26.9634" y2="5.3013">
	<stop  offset="0" style="stop-color:#B0BCC4"/>
	<stop  offset="0.1693" style="stop-color:#BEC8CF"/>
	<stop  offset="0.5016" style="stop-color:#D4DCE1"/>
	<stop  offset="0.7152" style="stop-color:#DCE3E8"/>
	<a:midPointStop  offset="0" style="stop-color:#B0BCC4"/>
	<a:midPointStop  offset="0.3898" style="stop-color:#B0BCC4"/>
	<a:midPointStop  offset="0.7152" style="stop-color:#DCE3E8"/>
</linearGradient>
<path fill="url(#SVGID_4_)" d="M41.486,13.232c-3.945,3.883-2.738-7.396-5.485-7.357c-2.821,0.041-3.908,7.279-9.059,7.174
	c-5.343-0.109-4.849-8.143-8.485-7.732c-3.523,0.396-3.191,12.805-8.414,6.018c-8.061-10.482,0.45,12.504-7.021,0.529
	c0.337,5.328,5.054,6.107,5.054,6.107c3.739-1.779,21.326-7.06,37.438,0.001c0,0,4.663-0.612,5.391-5.597
	C42.222,21.74,54.917,0.02,41.486,13.232z"/>
<linearGradient id="SVGID_5_" gradientUnits="userSpaceOnUse" x1="26.9985" y1="17.9717" x2="26.9985" y2="6">
	<stop  offset="0.1576" style="stop-color:#869399"/>
	<stop  offset="0.2973" style="stop-color:#919DA3;stop-opacity:0.8621"/>
	<stop  offset="0.5428" style="stop-color:#AEB8BE;stop-opacity:0.62"/>
	<stop  offset="0.7152" style="stop-color:#C7CED4;stop-opacity:0.45"/>
	<a:midPointStop  offset="0.1576" style="stop-color:#869399"/>
	<a:midPointStop  offset="0.5818" style="stop-color:#869399"/>
	<a:midPointStop  offset="0.7152" style="stop-color:#C7CED4;stop-opacity:0.45"/>
</linearGradient>
<path fill="url(#SVGID_5_)" d="M8.075,17.971c6.516-2.48,12.764-3.393,18.924-3.393c6.159,0,12.002,0.913,18.517,3.394
	c-0.692-0.58-1.197-1.169-1.354-1.394c-0.401-0.572,1.825-1.324,2.47-6.01c-0.871,2.916-2.859,5.885-4.284,5.582
	c-1.024-0.219-2.617-0.881-6.588-1.4c-0.691-0.09,0.76-3.766-0.189-8.75c0.063,2.66-0.554,7.895-1.565,8.453
	c-0.697,0.387-2.91-0.125-7.004-0.125s-6.312,0.512-7.009,0.125C18.979,13.895,18.364,8.66,18.427,6
	c-0.949,4.984,0.502,8.66-0.189,8.75c-3.971,0.52-5.563,1.182-6.587,1.4c-1.426,0.303-3.414-2.666-4.286-5.582
	c0.646,4.686,2.872,5.438,2.471,6.01C9.678,16.803,8.769,17.391,8.075,17.971z"/>
<path fill="#F3CCA8" d="M46.836,49.881c0.275-1.02,2.531,0.361,1.584,2.051c-0.383,0.682,0.996,8.58,0.709,9.434l-6.158,0.119
	c1.611-2.137,0.219-3.994,1.688-6.023C47.113,52.072,46.383,51.555,46.836,49.881z"/>
<linearGradient id="SVGID_6_" gradientUnits="userSpaceOnUse" x1="50.9619" y1="40.2168" x2="58.5364" y2="42.9737">
	<stop  offset="0" style="stop-color:#B47D56"/>
	<stop  offset="1" style="stop-color:#F5CFA0"/>
	<a:midPointStop  offset="0" style="stop-color:#B47D56"/>
	<a:midPointStop  offset="0.5" style="stop-color:#B47D56"/>
	<a:midPointStop  offset="1" style="stop-color:#F5CFA0"/>
</linearGradient>
<path fill="url(#SVGID_6_)" d="M60.361,20.155l-0.74-0.269l-6.359,14.012c0,0,1.117,1.293,0.877,2.211
	c-0.336,1.285-9.381,25.334-9.381,25.334h2.932c0,0,6.359-17.496,8.035-22.102c1.463-4.025,5.746-4.438,7.676-9.733
	C64.883,25.538,63.521,21.306,60.361,20.155z"/>
<linearGradient id="SVGID_7_" gradientUnits="userSpaceOnUse" x1="-30.4888" y1="568.5908" x2="-21.7621" y2="565.4148" gradientTransform="matrix(0.9397 0.342 -0.342 0.9397 275.4092 -496.6237)">
	<stop  offset="0" style="stop-color:#F5CFA0"/>
	<stop  offset="1" style="stop-color:#B47D56"/>
	<a:midPointStop  offset="0" style="stop-color:#F5CFA0"/>
	<a:midPointStop  offset="0.5" style="stop-color:#F5CFA0"/>
	<a:midPointStop  offset="1" style="stop-color:#B47D56"/>
</linearGradient>
<path fill="url(#SVGID_7_)" d="M60.729,28.636c-1.482,4.071-4.379,6.752-6.473,5.991s-2.588-4.678-1.105-8.75
	c1.48-4.07,4.377-6.754,6.471-5.991C61.715,20.648,62.209,24.565,60.729,28.636z"/>
<path fill="#F3CCA8" d="M53.455,55.143c0.6,1.555-0.549,2.367-0.549,2.367c0.336,1.486-0.861,2.5-0.861,2.5
	c-0.445,3.232-7.541,1.186-4.936-0.736c-1.84-0.664-1.426-2.668,0.59-2.262c-2.16-0.674-0.744-2.777,0.566-2.426
	c0.492,0.133,1.051,0.154,1.615,0.314c-2.184-0.717-0.84-2.615,0.396-2.549c1.371,0.074,2.717,0.436,3.105,0.729
	C54.15,53.656,53.754,54.813,53.455,55.143z"/>
<path fill="#DEB38A" d="M48.869,53.182c-1.09,1.918,2.748,2.17,3.42,1.99C49.758,55.047,48.531,53.961,48.869,53.182z"/>
<path fill="#DEB38A" d="M46.639,59.781c-1.09,1.914,2.682,2.08,3.354,1.898C47.461,61.557,46.301,60.557,46.639,59.781z"/>
<path fill="#DEB38A" d="M46.734,55.309c-1.09,1.916,2.775,2.447,4.836,2.172C47.709,57.479,46.396,56.086,46.734,55.309z"/>
<path fill="#DEB38A" d="M46.01,57.592c-1.09,1.916,2.832,2.545,4.895,2.268C47.043,59.861,45.672,58.371,46.01,57.592z"/>
</svg>
