<?xml version="1.0" encoding="utf-8"?>
<!-- Generator: Adobe Illustrator 15.0.0, SVG Export Plug-In . SVG Version: 6.00 Build 0)  -->
<!DOCTYPE svg PUBLIC "-//W3C//DTD SVG 1.1//EN" "http://www.w3.org/Graphics/SVG/1.1/DTD/svg11.dtd" [
	<!ENTITY ns_flows "http://ns.adobe.com/Flows/1.0/">
	<!ENTITY ns_extend "http://ns.adobe.com/Extensibility/1.0/">
	<!ENTITY ns_ai "http://ns.adobe.com/AdobeIllustrator/10.0/">
	<!ENTITY ns_graphs "http://ns.adobe.com/Graphs/1.0/">
]>
<svg version="1.1" id="Layer_1" xmlns:x="&ns_extend;" xmlns:i="&ns_ai;" xmlns:graph="&ns_graphs;"
	 xmlns="http://www.w3.org/2000/svg" xmlns:xlink="http://www.w3.org/1999/xlink" xmlns:a="http://ns.adobe.com/AdobeSVGViewerExtensions/3.0/"
	 x="0px" y="0px" width="64px" height="64px" viewBox="0 0 64 64" enable-background="new 0 0 64 64" xml:space="preserve">
<linearGradient id="SVGID_1_" gradientUnits="userSpaceOnUse" x1="-22.4023" y1="-518.6802" x2="-22.4023" y2="-527.4453" gradientTransform="matrix(-2.7664 0.8895 0.8472 2.6347 410.4337 1416.0867)">
	<stop  offset="0" style="stop-color:#DB0100"/>
	<stop  offset="0.5836" style="stop-color:#F31317"/>
	<stop  offset="1" style="stop-color:#FF1C23"/>
	<a:midPointStop  offset="0" style="stop-color:#DB0100"/>
	<a:midPointStop  offset="0.4242" style="stop-color:#DB0100"/>
	<a:midPointStop  offset="1" style="stop-color:#FF1C23"/>
</linearGradient>
<path fill="url(#SVGID_1_)" d="M26.681,9.989c1.811-7.38,13.073-8.346,15.56-0.609c1.669,5.19-0.961,11.332-9.024,20.137
	c-3.407-6.134-16.494-1.49-19.536-10.952C11.192,10.829,20.91,5.049,26.681,9.989z"/>
<path fill="#3B2118" d="M12.312,54.227c-0.643,0.607-1.414,1.111-2.359,1.467c1.036-4.258-3.04-12.09,1.244-19.127
	c7.594-1.105,12.946,23.143,1.844,21.748c0.618-0.408,0.936-1.074,1.05-1.867c-0.771,0.377-1.718,0.551-2.884,0.406
	C12.018,56.318,12.308,55.344,12.312,54.227z"/>
<path fill="#3B2118" d="M28.219,33.564c6.431,5.148,4.771,13.99,7.202,17.639c-1.008-0.012-1.909-0.221-2.718-0.572
	c0.382,1.049,0.991,1.865,1.935,2.092c-1.044,0.533-1.994,0.693-2.846,0.604c0.38,0.705,0.902,1.225,1.624,1.396
	C23.459,59.828,20.704,35.123,28.219,33.564z"/>
<path id="Path_4107_" fill="#916B50" d="M9.901,45.377c1.742-0.094,3.98,5.402,3.176,7.1c-0.113,0.236-0.936,0.727-1.821-0.488
	c-0.49-0.672-1.641-1.104-2.232-2.566C8.268,47.547,8.166,45.471,9.901,45.377z"/>
<path id="Path_4106_" fill="#69452D" d="M10.14,46.465c0.469,0.063,1.075,0.654,1.537,1.734c-1.614-0.061-0.77,2.463,0.592,2.273
	c0.034,0.264,0.063,0.535,0.081,0.822c-0.818-0.832-1.413-0.334-2.317-1.627C9.218,48.502,8.977,46.313,10.14,46.465z"/>
<path fill="#916B50" d="M18.984,32.451c7.392-1.303,12.014,4.088,12.934,11.906c0.183,1.574,0.147,3.895-0.049,5.912
	c-0.402,4.191-5.544,9.25-8.035,9.688c-2.49,0.439-9.05-2.555-10.862-6.355c-0.874-1.83-1.702-3.998-2.069-5.537
	C9.093,40.402,11.591,33.754,18.984,32.451z"/>
<path id="Path_4105_" fill="#5E4431" d="M12.698,43.768c1.533-1.193,4.761-1.807,6.076-1.396c0.279,0.076,0.258,0.953,0.026,0.912
	c-1.798-0.369-4.509,0.094-5.949,1.107C12.657,44.523,12.464,43.938,12.698,43.768z"/>
<path id="Path_4104_" fill="#5E4431" d="M28.76,40.936c-1.849-0.598-5.089-0.07-6.186,0.766c-0.236,0.166,0.083,0.984,0.286,0.865
	c1.563-0.961,4.268-1.453,5.971-0.994C29.058,41.631,29.039,41.014,28.76,40.936z"/>
<path id="Path_4103_" fill="#69452D" d="M20.295,51.057c0.174-0.191,0.716-0.076,1.992-0.359c1.277-0.285,1.717-0.619,1.962-0.52
	c0.288,0.121,0.067,1.006-1.761,1.414C20.657,51.998,20.083,51.289,20.295,51.057z"/>
<path fill="#7D573F" d="M26.951,53.518c2.169,2.303-3.072,3.248-4.763,0.998L26.951,53.518z"/>
<path fill="#69452D" d="M25.681,53.141c-1.153-0.342-1.938,0.699-3.493,1.375c1.509,0.393,3.486,0.133,3.665-0.512
	c0,0,0.646,0.322,1.151-0.256C27.571,53.105,26.786,52.326,25.681,53.141z"/>
<path fill="#855C40" d="M13.875,47.824c0.312,1.775,6.054,0.764,5.689-1.293C18.712,43.615,13.385,44.639,13.875,47.824z"/>
<path fill="#613F34" d="M13.876,47.824c0.312,1.775,6.054,0.764,5.69-1.293C19.272,47.561,14.477,48.531,13.876,47.824z"/>
<path fill="#855C40" d="M29.042,45.15c0.314,1.777-5.425,2.789-5.789,0.732C23.058,42.85,28.413,41.988,29.042,45.15z"/>
<path fill="#613F34" d="M29.042,45.15c0.314,1.777-5.425,2.789-5.789,0.732C23.881,46.75,28.718,46.021,29.042,45.15z"/>
<linearGradient id="SVGID_2_" gradientUnits="userSpaceOnUse" x1="970.8848" y1="-59.252" x2="970.8848" y2="-76.855" gradientTransform="matrix(-0.9848 0.1736 0.1736 0.9848 988.2044 -62.4643)">
	<stop  offset="0" style="stop-color:#3B2118"/>
	<stop  offset="0.0953" style="stop-color:#40251C"/>
	<stop  offset="0.6555" style="stop-color:#58392F"/>
	<stop  offset="1" style="stop-color:#614036"/>
	<a:midPointStop  offset="0" style="stop-color:#3B2118"/>
	<a:midPointStop  offset="0.4" style="stop-color:#3B2118"/>
	<a:midPointStop  offset="1" style="stop-color:#614036"/>
</linearGradient>
<path fill="url(#SVGID_2_)" d="M18.625,30.415c4.497-0.793,7.104,0.847,7.73,1.732c5.657,0.285,9.021,9.152,5.644,13.783
	c-1.241-4.08-2.2-6.674-5.47-9.008c-1.235,2.451-4.379,4.262-7.388,4.793c1.241-1.285,2.034-2.471,2.629-3.551
	c-4.615,3.191-9.979,5.658-10.406,11.404C5.175,42.727,7.488,32.377,18.625,30.415z"/>
<path fill="#3B2118" d="M26.368,32.146c0.745,3.829-0.299,6.977-7.23,9.571C24.335,41.157,29.059,37.124,26.368,32.146z"/>
<path fill="#3B2118" d="M26.696,36.641c2.195,1.515,4.857,4.339,5.319,9.287c-1.083-3.967-3.52-6.959-5.576-8.814
	C26.534,36.963,26.62,36.807,26.696,36.641z"/>
<path fill="#3B2118" d="M23.273,35.99c-3.125,4.248-12.397,5.643-11.928,13.582C12.418,41.581,20.883,41.838,23.273,35.99z"/>
<path fill="#1A1714" d="M51.688,54.227c0.643,0.607,1.414,1.111,2.359,1.467c-1.036-4.258,3.04-12.09-1.244-19.127
	c-7.594-1.105-12.946,23.143-1.844,21.748c-0.618-0.408-0.936-1.074-1.05-1.867c0.771,0.377,1.718,0.551,2.884,0.406
	C51.982,56.318,51.692,55.344,51.688,54.227z"/>
<path id="Path_4012_" fill="#735C48" d="M54.1,45.377c-1.742-0.094-3.98,5.402-3.176,7.1c0.113,0.236,0.936,0.727,1.821-0.488
	c0.49-0.672,1.641-1.104,2.232-2.566C55.732,47.547,55.835,45.471,54.1,45.377z"/>
<path id="Path_4011_" fill="#4A3728" d="M53.86,46.465c-0.469,0.063-1.075,0.654-1.537,1.734c1.614-0.061,0.77,2.463-0.592,2.273
	c-0.034,0.264-0.063,0.535-0.081,0.822c0.818-0.832,1.413-0.334,2.317-1.627C54.782,48.502,55.023,46.313,53.86,46.465z"/>
<path fill="#735C48" d="M45.017,32.451c-7.392-1.303-12.014,4.088-12.933,11.906c-0.183,1.574-0.147,3.895,0.049,5.912
	c0.402,4.191,5.543,9.25,8.035,9.688c2.49,0.439,9.05-2.555,10.862-6.355c0.874-1.83,1.702-3.998,2.069-5.537
	C54.907,40.402,52.409,33.754,45.017,32.451z"/>
<path id="Path_4010_" fill="#403229" d="M51.303,43.768c-1.533-1.193-4.761-1.807-6.076-1.396c-0.279,0.076-0.258,0.953-0.026,0.912
	c1.798-0.369,4.509,0.094,5.949,1.107C51.344,44.523,51.536,43.938,51.303,43.768z"/>
<path id="Path_4009_" fill="#403229" d="M35.24,40.936c1.849-0.598,5.089-0.07,6.186,0.766c0.236,0.166-0.083,0.984-0.286,0.865
	c-1.563-0.961-4.268-1.453-5.971-0.994C34.942,41.631,34.962,41.014,35.24,40.936z"/>
<path id="Path_4008_" fill="#4A3728" d="M43.705,51.057c-0.174-0.191-0.716-0.076-1.992-0.359c-1.277-0.285-1.717-0.619-1.962-0.52
	c-0.288,0.121-0.067,1.006,1.761,1.414C43.344,51.998,43.918,51.289,43.705,51.057z"/>
<path fill="#61462F" d="M37.05,53.518c-2.169,2.303,3.072,3.248,4.763,0.998L37.05,53.518z"/>
<path fill="#4A3728" d="M38.319,53.141c1.153-0.342,1.938,0.699,3.493,1.375c-1.509,0.393-3.486,0.133-3.665-0.512
	c0,0-0.646,0.322-1.151-0.256C36.43,53.105,37.215,52.326,38.319,53.141z"/>
<path fill="#614B38" d="M50.125,47.824c-0.312,1.775-6.054,0.764-5.689-1.293C45.288,43.615,50.615,44.639,50.125,47.824z"/>
<path fill="#403229" d="M50.124,47.824c-0.312,1.775-6.054,0.764-5.69-1.293C44.729,47.561,49.523,48.531,50.124,47.824z"/>
<path fill="#614B38" d="M34.959,45.15c-0.314,1.777,5.425,2.789,5.789,0.732C40.942,42.85,35.588,41.988,34.959,45.15z"/>
<path fill="#403229" d="M34.959,45.15c-0.314,1.777,5.425,2.789,5.789,0.732C40.119,46.75,35.282,46.021,34.959,45.15z"/>
<linearGradient id="SVGID_3_" gradientUnits="userSpaceOnUse" x1="105.4063" y1="93.3145" x2="105.4063" y2="75.7119" gradientTransform="matrix(0.9848 0.1736 -0.1736 0.9848 -45.3958 -62.4643)">
	<stop  offset="0" style="stop-color:#1A1714"/>
	<stop  offset="0.0953" style="stop-color:#1F1B18"/>
	<stop  offset="0.6555" style="stop-color:#37322C"/>
	<stop  offset="1" style="stop-color:#403A33"/>
	<a:midPointStop  offset="0" style="stop-color:#1A1714"/>
	<a:midPointStop  offset="0.4" style="stop-color:#1A1714"/>
	<a:midPointStop  offset="1" style="stop-color:#403A33"/>
</linearGradient>
<path fill="url(#SVGID_3_)" d="M45.376,30.415c-4.497-0.793-7.104,0.847-7.73,1.732c-5.657,0.285-9.021,9.152-5.643,13.783
	c1.241-4.08,2.2-6.674,5.469-9.008c1.235,2.451,4.379,4.262,7.388,4.793c-1.241-1.285-2.034-2.471-2.629-3.551
	c4.615,3.191,9.979,5.658,10.406,11.404C58.824,42.727,56.512,32.377,45.376,30.415z"/>
<path fill="#1A1714" d="M37.633,32.146c-0.745,3.829,0.299,6.977,7.23,9.571C39.665,41.157,34.941,37.124,37.633,32.146z"/>
<path fill="#1A1714" d="M37.305,36.641c-2.195,1.515-4.857,4.339-5.319,9.287c1.083-3.967,3.519-6.959,5.576-8.814
	C37.467,36.963,37.381,36.807,37.305,36.641z"/>
<path fill="#1A1714" d="M40.728,35.99c3.125,4.248,12.397,5.643,11.928,13.582C51.582,41.581,43.117,41.838,40.728,35.99z"/>
</svg>
