<?xml version="1.0" encoding="utf-8"?>
<!-- Generator: Adobe Illustrator 15.0.0, SVG Export Plug-In . SVG Version: 6.00 Build 0)  -->
<!DOCTYPE svg PUBLIC "-//W3C//DTD SVG 1.1//EN" "http://www.w3.org/Graphics/SVG/1.1/DTD/svg11.dtd" [
	<!ENTITY ns_flows "http://ns.adobe.com/Flows/1.0/">
	<!ENTITY ns_extend "http://ns.adobe.com/Extensibility/1.0/">
	<!ENTITY ns_ai "http://ns.adobe.com/AdobeIllustrator/10.0/">
	<!ENTITY ns_graphs "http://ns.adobe.com/Graphs/1.0/">
]>
<svg version="1.1" id="Layer_1" xmlns:x="&ns_extend;" xmlns:i="&ns_ai;" xmlns:graph="&ns_graphs;"
	 xmlns="http://www.w3.org/2000/svg" xmlns:xlink="http://www.w3.org/1999/xlink" xmlns:a="http://ns.adobe.com/AdobeSVGViewerExtensions/3.0/"
	 x="0px" y="0px" width="64px" height="64px" viewBox="0 0 64 64" enable-background="new 0 0 64 64" xml:space="preserve">
<path fill="#302C3B" d="M11.432,52.718c2.502-1.288,12.756-4.708,12.756-4.708l15.625-0.029c0,0,10.326,3.441,12.813,4.734
	C56.24,54.587,57,57.144,57,59.56c0,3.254-50,3.254-50,0C7,57.14,7.807,54.583,11.432,52.718z"/>
<path fill="#855E45" d="M24.188,48.01c-0.016-0.008,0.757,5.779,7.813,5.77c7.088-0.008,7.802-5.793,7.813-5.799v-6.068H24.188
	V48.01z"/>
<path fill="#1A1626" d="M23.5,55.291l-3.306-2.088l3.272-4.789l-4.602,5.209l3.604,1.836c0,0-2.458,2.418-2.851,2.883
	c0,0,2.415,2.527,2.773,3.49l1.031,0.035c0,0-1.21-2.121-2.45-3.525C20.974,58.342,22.551,56.086,23.5,55.291z"/>
<path fill="#1A1626" d="M41.532,55.459l3.604-1.836l-4.603-5.209l3.275,4.789l-3.31,2.088c0.949,0.795,2.53,3.051,2.53,3.051
	c-1.243,1.404-2.454,3.525-2.454,3.525l1.032-0.035c0.361-0.963,2.772-3.49,2.772-3.49C43.99,57.877,41.532,55.459,41.532,55.459z"
	/>
<path fill="#E6EBEF" d="M32,53.715l-7.974,1.119c0,0,0.224,3.675,1.56,7.093c0,0,1.442,0.073,4.222,0.073c0,0,2.193-0.73,4.381,0
	c2.533,0,4.226-0.073,4.226-0.073c1.338-3.418,1.562-7.093,1.562-7.093L32,53.715z"/>
<path fill="#1A1626" d="M33.418,58.543c-0.382-1.158-2.455-1.158-2.838,0c-0.304,0.92-0.559,2.127-0.772,3.457h4.381
	C33.977,60.67,33.72,59.463,33.418,58.543z"/>
<path fill="#302C3B" d="M33.31,58.543c-0.296,0.42-2.358,0.465-2.619,0c-0.62-1.102-1.637-3.283-1.637-3.283s2.567-1.48,2.944-1.48
	c0.381,0,2.948,1.48,2.948,1.48S34.021,57.533,33.31,58.543z"/>
<path fill="#FFFFFF" d="M32,53.715c-7.167-2.365-7.813-5.705-7.813-5.705s-0.505,3.34-0.161,6.824
	c0.971,1.311,2.594,3.244,3.362,3.244c1.072,0,4.611-3.969,4.611-3.969s3.539,3.969,4.611,3.969c0.771,0,2.392-1.934,3.364-3.244
	c0.342-3.484-0.163-6.854-0.163-6.854S39.169,51.35,32,53.715z"/>
<polygon fill="#FFE12C" points="47.816,59.508 49.313,59.508 49.313,59.264 47.424,59.264 "/>
<polygon fill="#FFE12C" points="48.243,58.969 48.03,58.777 46.378,58.777 46.9,59.105 48.104,59.105 48.233,59.164 49.732,59.164 
	49.45,58.969 "/>
<polygon fill="#FFE12C" points="47.647,58.727 48.138,58.727 48.284,58.879 49.324,58.879 49.11,58.602 47.745,58.588 
	47.469,58.342 45.619,58.342 46.144,58.67 47.544,58.67 "/>
<polygon fill="#FFE12C" points="46.958,58.283 47.55,58.307 47.826,58.529 49.082,58.557 49.021,58.26 47.364,58.26 47.011,57.898 
	44.932,57.898 45.454,58.227 46.854,58.227 "/>
<polygon fill="#FFE12C" points="50.602,59.508 52.099,59.508 52.489,59.264 50.602,59.264 "/>
<polygon fill="#FFE12C" points="51.67,58.969 50.463,58.969 50.183,59.164 51.682,59.164 51.81,59.105 53.015,59.105 53.537,58.777 
	51.885,58.777 "/>
<polygon fill="#FFE12C" points="52.168,58.588 50.805,58.602 50.591,58.879 51.631,58.879 51.777,58.727 52.268,58.727 
	52.371,58.67 53.771,58.67 54.294,58.342 52.444,58.342 "/>
<polygon fill="#FFE12C" points="52.904,57.898 52.551,58.26 50.893,58.26 50.833,58.557 52.089,58.529 52.363,58.307 52.955,58.283 
	53.06,58.227 54.459,58.227 54.981,57.898 "/>
<path fill="#FFE12C" d="M50.831,58.191h1.6l0.396-0.416l-2.289,0.141c0.026,0.068,0.041,0.141,0.041,0.217
	c0,0.33-0.276,0.598-0.623,0.598c-0.344,0-0.622-0.268-0.622-0.598c0-0.076,0.015-0.148,0.043-0.217l-2.289-0.141l0.396,0.416h1.598
	c0.032,0.439,0.408,0.787,0.874,0.787C50.423,58.979,50.801,58.631,50.831,58.191z"/>
<ellipse fill="#FFE12C" cx="49.956" cy="59.746" rx="1.074" ry="1.029"/>
<ellipse fill="#302C3B" cx="49.958" cy="59.746" rx="0.76" ry="0.729"/>
<polygon fill="#FFFFFF" points="49.956,58.959 50.142,59.502 50.735,59.502 50.256,59.838 50.438,60.381 49.956,60.045 
	49.477,60.381 49.659,59.838 49.18,59.502 49.773,59.502 "/>
<path fill="#3B2118" d="M47.148,38.786c1.08,0.714,2.326,1.248,3.781,1.52c-2.582-5.888,1.313-18.237-6.668-27.311
	c-11.25,0.338-12.807,36.723,2.875,31.883c-0.998-0.432-1.623-1.314-1.99-2.43c1.209,0.348,2.621,0.359,4.266-0.148
	C48.104,41.734,47.436,40.399,47.148,38.786z"/>
<path fill="#3B2118" d="M18.91,12.995c-7.98,9.074-3.328,21.423-5.91,27.311c1.453-0.271,2.701-0.806,3.781-1.52
	c-0.287,1.613-0.955,2.948-2.264,3.514c1.645,0.508,3.057,0.496,4.266,0.148c-0.367,1.115-0.992,1.998-1.99,2.43
	C32.473,49.718,30.16,13.333,18.91,12.995z"/>
<path id="Path_2662_" fill="#916B50" d="M48.377,25.392c-2.541,0.308-4.375,8.816-2.777,11.062c0.223,0.314,1.533,0.813,2.504-1.168
	c0.537-1.098,2.088-2.014,2.568-4.277C51.289,28.109,50.904,25.085,48.377,25.392z"/>
<path id="Path_2661_" fill="#916B50" d="M15.555,25.392c2.541,0.308,4.375,8.816,2.777,11.062c-0.225,0.314-1.535,0.813-2.504-1.168
	c-0.539-1.098-2.09-2.014-2.57-4.277C12.643,28.109,13.027,25.085,15.555,25.392z"/>
<path id="Path_2660_" fill="#69452D" d="M48.309,27.023c-0.664,0.209-1.387,1.219-1.779,2.896c2.318-0.498,1.738,3.362-0.275,3.435
	c0.018,0.389,0.045,0.788,0.092,1.209c0.971-1.41,1.955-0.845,2.932-2.941C50.158,29.732,49.949,26.508,48.309,27.023z"/>
<path id="Path_2659_" fill="#69452D" d="M17.4,29.916c-0.393-1.674-1.113-2.685-1.775-2.892c-1.643-0.516-1.854,2.708-0.973,4.599
	c0.977,2.097,1.961,1.531,2.934,2.941c0.047-0.422,0.074-0.822,0.09-1.211C15.684,33.258,15.113,29.446,17.4,29.916z"/>
<path fill="#916B50" d="M31.965,9.035c-11.008,0-16.311,8.965-15.648,20.493c0.137,2.317,0.781,5.661,1.576,8.525
	c1.65,5.953,10.363,11.948,14.072,11.948s12.422-5.995,14.072-11.948c0.797-2.864,1.441-6.208,1.576-8.525
	C48.275,18,42.975,9.035,31.965,9.035z"/>
<path id="Path_2658_" fill="#5E4431" d="M43.926,24.543c-2.518-1.333-7.336-1.398-9.131-0.47c-0.385,0.18-0.131,1.443,0.193,1.323
	c2.5-0.99,6.535-1.012,8.875,0.084C44.178,25.623,44.307,24.729,43.926,24.543z"/>
<path id="Path_2657_" fill="#5E4431" d="M20.006,24.543c2.518-1.333,7.332-1.398,9.129-0.47c0.385,0.18,0.131,1.443-0.191,1.323
	c-2.506-0.99-6.535-1.012-8.879,0.084C19.754,25.623,19.625,24.729,20.006,24.543z"/>
<path id="Path_2656_" fill="#69452D" d="M34.936,36.108c-0.314-0.219-1.051,0.119-2.971,0.119c-1.916,0-2.654-0.338-2.971-0.119
	c-0.375,0.266,0.225,1.463,2.971,1.463C34.713,37.571,35.314,36.374,34.936,36.108z"/>
<path id="Path_2655_" fill="#69452D" d="M31.965,40.646c-2.475-0.728-6.145,0.346-6.145,0.346c1.398,1.522,2.422,3.496,6.145,3.496
	c4.266,0,4.992-2.242,6.146-3.496C38.111,40.991,34.439,39.913,31.965,40.646z"/>
<path id="Path_2654_" fill="#FFFFFF" d="M26.742,41.249c2.596,2.178,7.836,2.192,10.447,0
	C34.424,41.367,29.527,41.368,26.742,41.249z"/>
<path id="Path_2653_" fill="#FFFFFF" d="M29.516,29.086c0.094,0.729-0.4,1.593-1.77,2.24c-0.871,0.411-2.68,0.896-5.057-0.106
	c-1.066-0.449-2.105-1.85-2.012-2.623C21.967,26.167,28.311,25.812,29.516,29.086z"/>
<linearGradient id="Oval_1_" gradientUnits="userSpaceOnUse" x1="-424.5854" y1="477.4658" x2="-424.5854" y2="478.2246" gradientTransform="matrix(6.5701 0 0 -6.5701 2814.7805 3168.5281)">
	<stop  offset="0" style="stop-color:#A6694A"/>
	<stop  offset="1" style="stop-color:#4F2A1E"/>
	<a:midPointStop  offset="0" style="stop-color:#A6694A"/>
	<a:midPointStop  offset="0.5" style="stop-color:#A6694A"/>
	<a:midPointStop  offset="1" style="stop-color:#4F2A1E"/>
</linearGradient>
<circle id="Oval_304_" fill="url(#Oval_1_)" cx="25.213" cy="29.037" r="2.492"/>
<path id="Path_2652_" fill="#1A1626" d="M23.967,28.991c0,1.725,2.492,1.725,2.492,0C26.459,27.391,23.967,27.391,23.967,28.991z"/>
<path id="Path_2651_" fill="#AB968C" d="M23.588,28.293c0,0.723,1.045,0.723,1.045,0C24.633,27.624,23.588,27.624,23.588,28.293z"/>
<path id="Path_2650_" fill="#69452D" d="M29.527,29.182c-1.012-3.252-7.91-2.772-8.85-0.585
	C21.025,25.796,28.666,25.057,29.527,29.182z"/>
<path id="Path_2649_" fill="#FFFFFF" d="M34.414,29.086c-0.094,0.729,0.402,1.593,1.771,2.24c0.869,0.411,2.678,0.896,5.057-0.106
	c1.066-0.449,2.104-1.85,2.01-2.623C41.965,26.167,35.621,25.812,34.414,29.086z"/>
<linearGradient id="Oval_2_" gradientUnits="userSpaceOnUse" x1="-425.2368" y1="477.4658" x2="-425.2368" y2="478.2246" gradientTransform="matrix(6.5701 0 0 -6.5701 2832.511 3168.5281)">
	<stop  offset="0" style="stop-color:#A6694A"/>
	<stop  offset="1" style="stop-color:#4F2A1E"/>
	<a:midPointStop  offset="0" style="stop-color:#A6694A"/>
	<a:midPointStop  offset="0.5" style="stop-color:#A6694A"/>
	<a:midPointStop  offset="1" style="stop-color:#4F2A1E"/>
</linearGradient>
<circle id="Oval_303_" fill="url(#Oval_2_)" cx="38.662" cy="29.037" r="2.492"/>
<path id="Path_2648_" fill="#1A1626" d="M37.418,28.991c0,1.725,2.492,1.725,2.492,0C39.91,27.391,37.418,27.391,37.418,28.991z"/>
<path id="Path_2647_" fill="#AB968C" d="M37.039,28.293c0,0.723,1.043,0.723,1.043,0C38.082,27.624,37.039,27.624,37.039,28.293z"/>
<path id="Path_2646_" fill="#69452D" d="M34.404,29.182c1.01-3.251,7.904-2.786,8.848-0.585
	C42.902,25.796,35.266,25.057,34.404,29.182z"/>
<linearGradient id="SVGID_1_" gradientUnits="userSpaceOnUse" x1="31.8013" y1="31.8174" x2="31.8013" y2="6.0005">
	<stop  offset="0" style="stop-color:#3B2118"/>
	<stop  offset="0.0953" style="stop-color:#40251C"/>
	<stop  offset="0.6555" style="stop-color:#58392F"/>
	<stop  offset="1" style="stop-color:#614036"/>
	<a:midPointStop  offset="0" style="stop-color:#3B2118"/>
	<a:midPointStop  offset="0.4" style="stop-color:#3B2118"/>
	<a:midPointStop  offset="1" style="stop-color:#614036"/>
</linearGradient>
<path fill="url(#SVGID_1_)" d="M31.967,6c-6.699,0-10.045,3.034-10.725,4.473c-8.098,1.852-10.703,15.516-4.641,21.344
	c0.754-6.21,1.479-10.201,5.607-14.404c2.408,3.227,7.41,5.042,11.889,5.042c-2.121-1.541-3.566-3.051-4.701-4.458
	c7.479,3.433,15.855,5.63,17.934,13.82C54.525,20.359,48.549,6,31.967,6z"/>
<path fill="#3B2118" d="M21.223,10.472c-0.078,4.427,2.186,9.995,12.879,11.982C26.451,22.971,18.602,18.349,21.223,10.472z"/>
<path fill="#3B2118" d="M21.717,16.613c-2.787,2.746-5.736,7.938-5.143,15.204c0.553-6.004,3.311-10.949,5.811-14.152
	C22.207,17.473,21.867,16.831,21.717,16.613z"/>
<path fill="#3B2118" d="M26.67,15.235c5.764,5.504,19.174,3.535,20.688,16.582C43.771,20.546,31.613,23.075,26.67,15.235z"/>
<path fill="#302C3B" d="M52.986,13.789C52.342,8.002,45.959,2,32.002,2C18.047,2,11.658,8,11.016,13.789
	c-0.215,1.922,1.98,3.217,3.826,6.266c1.002,1.645,33.322,1.645,34.316,0C51.008,17.006,53.201,15.711,52.986,13.789z"/>
<path fill="#FFE12C" d="M13.24,17.111v1.324h37.525v-1.324C46.535,13.346,17.471,13.346,13.24,17.111z"/>
<path fill="#302C3B" d="M13.24,18.436v1.898c0,0,0,4.658,18.764,4.658c18.762,0,18.762-4.658,18.762-4.658v-1.898
	C46.535,14.668,17.471,14.668,13.24,18.436z"/>
<polygon fill="#FFE12C" points="27.523,9.803 30.652,9.803 30.652,9.273 26.705,9.273 "/>
<polygon fill="#FFE12C" points="28.418,8.629 27.971,8.215 24.52,8.215 25.611,8.928 28.127,8.928 28.396,9.055 31.529,9.055 
	30.941,8.629 "/>
<polygon fill="#FFE12C" points="27.172,8.104 28.195,8.104 28.502,8.434 30.674,8.434 30.227,7.832 27.377,7.799 26.801,7.266 
	22.936,7.266 24.029,7.979 26.955,7.979 "/>
<polygon fill="#FFE12C" points="25.732,7.139 26.971,7.189 27.545,7.674 30.168,7.732 30.043,7.086 26.582,7.086 25.842,6.299 
	21.498,6.299 22.59,7.012 25.516,7.012 "/>
<polygon fill="#FFE12C" points="33.346,9.803 36.477,9.803 37.293,9.273 33.346,9.273 "/>
<polygon fill="#FFE12C" points="35.58,8.629 33.059,8.629 32.473,9.055 35.604,9.055 35.873,8.928 38.387,8.928 39.48,8.215 
	36.029,8.215 "/>
<polygon fill="#FFE12C" points="36.621,7.799 33.773,7.832 33.324,8.434 35.498,8.434 35.805,8.104 36.828,8.104 37.045,7.979 
	39.969,7.979 41.063,7.266 37.199,7.266 "/>
<polygon fill="#FFE12C" points="38.158,6.299 37.418,7.086 33.955,7.086 33.83,7.732 36.453,7.674 37.029,7.189 38.266,7.139 
	38.482,7.012 41.41,7.012 42.502,6.299 "/>
<path fill="#FFE12C" d="M33.828,6.938h3.338l0.83-0.904L33.213,6.34c0.059,0.146,0.088,0.305,0.088,0.471
	c0,0.719-0.582,1.301-1.301,1.301s-1.303-0.582-1.303-1.301c0-0.166,0.031-0.324,0.088-0.471l-4.781-0.307l0.828,0.904h3.338
	c0.066,0.957,0.855,1.715,1.83,1.715C32.973,8.652,33.762,7.895,33.828,6.938z"/>
<circle fill="#FFE12C" cx="32" cy="10.32" r="2.244"/>
<circle fill="#302C3B" cx="32.001" cy="10.32" r="1.587"/>
<polygon fill="#FFFFFF" points="32,8.609 32.383,9.791 33.627,9.791 32.621,10.521 33.006,11.705 32,10.975 30.994,11.705 
	31.377,10.521 30.373,9.791 31.615,9.791 "/>
<path fill="#FFE12C" d="M15.994,19.264c0.031-0.021-0.961,1.303,1.209,2.748C17.203,21.99,17.797,20.033,15.994,19.264z"/>
<path fill="#FFE12C" d="M18.912,18.369c-2.121-0.324-2.922,0.859-2.916,0.891C17.773,20.266,18.932,18.352,18.912,18.369z"/>
<path fill="#FFE12C" d="M17.912,20.133c0.027-0.021-0.742,1.293,1.404,2.445C19.313,22.559,19.666,20.682,17.912,20.133z"/>
<path fill="#FFE12C" d="M20.531,19.041c-2.018-0.121-2.623,1.063-2.617,1.088C19.662,20.898,20.545,19.025,20.531,19.041z"/>
<path fill="#FFE12C" d="M19.893,20.801c0.02-0.021-0.559,1.289,1.586,2.188C21.477,22.971,21.609,21.158,19.893,20.801z"/>
<path fill="#FFE12C" d="M22.252,19.531c-1.932,0.061-2.369,1.242-2.359,1.266C21.627,21.363,22.266,19.516,22.252,19.531z"/>
<path fill="#FFE12C" d="M21.939,21.275c0.016-0.021-0.377,1.256,1.721,1.91C23.658,23.17,23.59,21.455,21.939,21.275z"/>
<path fill="#FFE12C" d="M24.021,19.875c-1.816,0.225-2.092,1.375-2.082,1.396C23.625,21.646,24.033,19.859,24.021,19.875z"/>
<path fill="#FFE12C" d="M24.023,21.553c0.016-0.02-0.213,1.217,1.834,1.648C25.854,23.188,25.609,21.572,24.023,21.553z"/>
<path fill="#FFE12C" d="M25.848,20.045c-1.707,0.375-1.832,1.488-1.826,1.504C25.658,21.75,25.855,20.033,25.848,20.045z"/>
<path fill="#FFE12C" d="M25.471,21.6c-0.035-0.008,1.076,0.908,2.721-0.039C28.15,21.574,26.5,20.67,25.471,21.6z"/>
<path fill="#FFE12C" d="M15.129,18.779c0.002-0.064,2.666,1.484,5.588,2.113c2.881,0.783,6.021,0.643,5.99,0.703
	c0.055,0.076-3.139,0.283-6.047-0.508C17.707,20.453,15.039,18.822,15.129,18.779z"/>
<path fill="#FFE12C" d="M48.01,19.264c-0.031-0.021,0.959,1.303-1.209,2.748C46.801,21.99,46.207,20.033,48.01,19.264z"/>
<path fill="#FFE12C" d="M45.09,18.369c2.121-0.324,2.924,0.859,2.918,0.891C46.23,20.266,45.07,18.352,45.09,18.369z"/>
<path fill="#FFE12C" d="M46.092,20.133c-0.027-0.021,0.74,1.293-1.406,2.445C44.689,22.559,44.338,20.682,46.092,20.133z"/>
<path fill="#FFE12C" d="M43.473,19.041c2.016-0.121,2.623,1.063,2.617,1.088C44.34,20.898,43.459,19.025,43.473,19.041z"/>
<path fill="#FFE12C" d="M44.111,20.801c-0.021-0.021,0.557,1.289-1.588,2.188C42.527,22.971,42.395,21.158,44.111,20.801z"/>
<path fill="#FFE12C" d="M41.75,19.531c1.934,0.061,2.369,1.242,2.361,1.266C42.377,21.363,41.738,19.516,41.75,19.531z"/>
<path fill="#FFE12C" d="M42.064,21.275c-0.018-0.021,0.375,1.256-1.723,1.91C40.346,23.17,40.412,21.455,42.064,21.275z"/>
<path fill="#FFE12C" d="M39.98,19.875c1.82,0.225,2.094,1.375,2.084,1.396C40.377,21.646,39.969,19.859,39.98,19.875z"/>
<path fill="#FFE12C" d="M39.979,21.553c-0.014-0.02,0.213,1.217-1.834,1.648C38.148,23.188,38.395,21.572,39.979,21.553z"/>
<path fill="#FFE12C" d="M38.154,20.045c1.709,0.375,1.834,1.488,1.826,1.504C38.344,21.75,38.146,20.033,38.154,20.045z"/>
<path fill="#FFE12C" d="M38.533,21.6c0.033-0.008-1.078,0.908-2.723-0.039C35.854,21.574,37.502,20.67,38.533,21.6z"/>
<path fill="#FFE12C" d="M48.875,18.779c-0.004-0.064-2.666,1.484-5.588,2.113c-2.881,0.783-6.023,0.643-5.99,0.703
	c-0.057,0.076,3.137,0.283,6.045-0.508C46.295,20.453,48.965,18.822,48.875,18.779z"/>
</svg>
