<?xml version="1.0" encoding="utf-8"?>
<!-- Generator: Adobe Illustrator 15.0.0, SVG Export Plug-In . SVG Version: 6.00 Build 0)  -->
<!DOCTYPE svg PUBLIC "-//W3C//DTD SVG 1.1//EN" "http://www.w3.org/Graphics/SVG/1.1/DTD/svg11.dtd" [
	<!ENTITY ns_flows "http://ns.adobe.com/Flows/1.0/">
	<!ENTITY ns_extend "http://ns.adobe.com/Extensibility/1.0/">
	<!ENTITY ns_ai "http://ns.adobe.com/AdobeIllustrator/10.0/">
	<!ENTITY ns_graphs "http://ns.adobe.com/Graphs/1.0/">
]>
<svg version="1.1" id="Layer_1" xmlns:x="&ns_extend;" xmlns:i="&ns_ai;" xmlns:graph="&ns_graphs;"
	 xmlns="http://www.w3.org/2000/svg" xmlns:xlink="http://www.w3.org/1999/xlink" xmlns:a="http://ns.adobe.com/AdobeSVGViewerExtensions/3.0/"
	 x="0px" y="0px" width="64px" height="64px" viewBox="0 0 64 64" enable-background="new 0 0 64 64" xml:space="preserve">
<linearGradient id="SVGID_1_" gradientUnits="userSpaceOnUse" x1="32.0005" y1="58.1074" x2="32.0005" y2="28.1138">
	<stop  offset="0" style="stop-color:#FFD059"/>
	<stop  offset="1" style="stop-color:#FFE98C"/>
	<a:midPointStop  offset="0" style="stop-color:#FFD059"/>
	<a:midPointStop  offset="0.5" style="stop-color:#FFD059"/>
	<a:midPointStop  offset="1" style="stop-color:#FFE98C"/>
</linearGradient>
<path fill="url(#SVGID_1_)" d="M46.708,28.113H17.292c0,7.028-5.987,22.519-1.813,27.831c2.266,2.885,30.775,2.885,33.041,0
	C52.695,50.632,46.708,35.142,46.708,28.113z"/>
<rect x="23" y="42.911" fill="#5E4C3B" width="18" height="16.035"/>
<path fill="#3AAB1F" d="M54.277,52.935c-0.087-0.041-0.104-0.336,0-0.424c-3.513-1.289-6.008-2.193-9.168-2.848
	c-0.94-4.15,1.973-6.018,1.973-6.018C39.486,43.646,32,60.233,32,60.233s-7.486-16.588-15.082-16.588c0,0,2.913,1.867,1.973,6.018
	c-3.16,0.654-5.655,1.559-9.168,2.848c0.104,0.088,0.087,0.383,0,0.424C5.82,54.878,5,56.478,5,58.991c0,4.012,54,4.012,54,0
	C59,56.478,58.18,54.878,54.277,52.935z"/>
<path fill="#299900" d="M54.277,52.511c-4.569,4.873-2.846,8.48-2.846,8.48s-0.316-4.258,3.019-7.963
	C54.56,52.751,54.443,52.524,54.277,52.511z"/>
<path fill="#299900" d="M34.854,59.431c0,0,7.597-5.154,10.248-9.775C42.987,55.251,34.854,59.431,34.854,59.431z"/>
<path fill="#299900" d="M9.725,52.511c4.565,4.873,2.844,8.48,2.844,8.48s0.316-4.258-3.022-7.963
	C9.438,52.751,9.554,52.524,9.725,52.511z"/>
<path fill="#299900" d="M29.146,59.431c0,0-7.599-5.154-10.248-9.775C21.01,55.251,29.146,59.431,29.146,59.431z"/>
<path fill="#C9CDD1" d="M33.688,59.341c0,3.283-3.375,3.283-3.375,0C30.313,56.296,33.688,56.296,33.688,59.341z"/>
<path fill="#E6EBEF" d="M33.131,59.364c0,2.463-2.251,2.463-2.251,0C30.88,57.081,33.131,57.081,33.131,59.364z"/>
<path fill="#FFE98C" d="M47.263,35.866h-3.391c-1.553,17.256,0.196,25.849,0.196,25.849l3.33-0.201
	C47.348,46.471,47.864,56.526,47.263,35.866z"/>
<path fill="#FFE98C" d="M20.128,35.866h-3.39c-0.602,20.66-0.087,10.604-0.138,25.647l3.332,0.201
	C19.933,61.715,21.681,53.122,20.128,35.866z"/>
<path id="Path_328_" fill="#735C48" d="M51.963,21.207c-5.262,2.316-8.247,12.137-6.029,15.245c0.225,0.313,1.535,0.814,2.508-1.168
	c0.539-1.097,2.005-2.032,2.574-4.276C51.784,27.977,53.778,20.406,51.963,21.207z"/>
<path id="Path_327_" fill="#4A3728" d="M51.479,22.586c-1.815,0.773-3.183,3.768-3.946,5.875c1.669,0.365,1.207,3.512-0.858,3.76
	c-0.026,0.389-0.041,1.92,0.008,2.339c0.971-1.407,1.959-0.843,2.938-2.938C50.5,29.732,52.477,22.16,51.479,22.586z"/>
<path id="Path_326_" fill="#735C48" d="M12.037,21.207c5.262,2.316,8.247,12.137,6.029,15.245c-0.225,0.313-1.535,0.814-2.508-1.168
	c-0.539-1.097-2.005-2.032-2.574-4.276C12.216,27.977,10.222,20.406,12.037,21.207z"/>
<path id="Path_325_" fill="#4A3728" d="M12.521,22.586c1.815,0.773,3.183,3.768,3.946,5.875c-1.669,0.365-1.207,3.512,0.858,3.76
	c0.026,0.389,0.041,1.92-0.008,2.339c-0.971-1.407-1.959-0.843-2.938-2.938C13.5,29.732,11.523,22.16,12.521,22.586z"/>
<path id="Path_324_" fill="#735C48" d="M32,9.033c-11.027,0-16.34,8.328-15.676,19.908c0.133,2.33,1.582,9.929,2.947,12.655
	c1.398,2.789,6.074,7.09,8.938,7.98c1.811,0.561,5.773,0.561,7.582,0c2.865-0.891,7.543-5.191,8.939-7.98
	c1.369-2.727,2.814-10.323,2.945-12.655C48.344,17.361,43.031,9.033,32,9.033z"/>
<path id="Path_323_" fill="#403229" d="M43.982,24.543c-2.521-1.336-7.348-1.4-9.146-0.469c-0.387,0.178-0.131,1.441,0.193,1.322
	c2.504-0.99,6.547-1.012,8.893,0.084C44.234,25.623,44.365,24.729,43.982,24.543z"/>
<path id="Path_322_" fill="#403229" d="M20.02,24.543c2.521-1.336,7.346-1.4,9.146-0.469c0.385,0.178,0.131,1.441-0.193,1.322
	c-2.51-0.99-6.547-1.012-8.895,0.084C19.768,25.623,19.639,24.729,20.02,24.543z"/>
<path id="Path_321_" fill="#4A3728" d="M34.977,36.106c-0.314-0.219-1.053,0.119-2.977,0.119c-1.92,0-2.66-0.338-2.975-0.119
	c-0.377,0.266,0.223,1.461,2.975,1.461C34.754,37.567,35.355,36.372,34.977,36.106z"/>
<path id="Path_320_" fill="#4A3728" d="M32,40.644c-2.479-0.729-6.154,0.346-6.154,0.346c1.398,1.521,2.424,3.494,6.154,3.494
	c4.275,0,5.002-2.24,6.156-3.494C38.156,40.989,34.48,39.909,32,40.644z"/>
<path id="Path_311_" fill="#FFFFFF" d="M26.768,41.247c2.602,2.176,7.852,2.191,10.467,0C34.463,41.364,29.559,41.366,26.768,41.247
	z"/>
<path id="Path_310_" fill="#FFFFFF" d="M29.547,29.084c0.094,0.73-0.402,1.594-1.773,2.242c-0.871,0.412-2.686,0.896-5.066-0.107
	c-1.066-0.449-2.107-1.848-2.014-2.623C21.984,26.166,28.338,25.811,29.547,29.084z"/>
<linearGradient id="Oval_1_" gradientUnits="userSpaceOnUse" x1="-424.5815" y1="477.4658" x2="-424.5815" y2="478.2246" gradientTransform="matrix(6.5701 0 0 -6.5701 2814.7805 3168.5281)">
	<stop  offset="0" style="stop-color:#A6694A"/>
	<stop  offset="1" style="stop-color:#4F2A1E"/>
	<a:midPointStop  offset="0" style="stop-color:#A6694A"/>
	<a:midPointStop  offset="0.5" style="stop-color:#A6694A"/>
	<a:midPointStop  offset="1" style="stop-color:#4F2A1E"/>
</linearGradient>
<circle id="Oval_45_" fill="url(#Oval_1_)" cx="25.236" cy="29.037" r="2.492"/>
<path id="Path_309_" fill="#1A1626" d="M23.988,28.99c0,1.725,2.496,1.725,2.496,0C26.484,27.391,23.988,27.391,23.988,28.99z"/>
<path id="Path_308_" fill="#AB968C" d="M23.609,28.291c0,0.723,1.045,0.723,1.045,0C24.654,27.623,23.609,27.623,23.609,28.291z"/>
<path id="Path_307_" fill="#4A3728" d="M29.559,29.18c-1.014-3.25-7.926-2.77-8.865-0.584C21.041,25.797,28.695,25.057,29.559,29.18
	z"/>
<path id="Path_306_" fill="#FFFFFF" d="M34.455,29.084c-0.094,0.73,0.4,1.594,1.773,2.242c0.871,0.412,2.684,0.896,5.064-0.107
	c1.07-0.449,2.109-1.848,2.016-2.623C42.018,26.166,35.662,25.811,34.455,29.084z"/>
<linearGradient id="Oval_2_" gradientUnits="userSpaceOnUse" x1="-425.23" y1="477.4658" x2="-425.23" y2="478.2246" gradientTransform="matrix(6.5701 0 0 -6.5701 2832.511 3168.5281)">
	<stop  offset="0" style="stop-color:#A6694A"/>
	<stop  offset="1" style="stop-color:#4F2A1E"/>
	<a:midPointStop  offset="0" style="stop-color:#A6694A"/>
	<a:midPointStop  offset="0.5" style="stop-color:#A6694A"/>
	<a:midPointStop  offset="1" style="stop-color:#4F2A1E"/>
</linearGradient>
<circle id="Oval_42_" fill="url(#Oval_2_)" cx="38.709" cy="29.037" r="2.492"/>
<path id="Path_305_" fill="#1A1626" d="M37.463,28.99c0,1.725,2.496,1.725,2.496,0C39.959,27.391,37.463,27.391,37.463,28.99z"/>
<path id="Path_304_" fill="#AB968C" d="M37.082,28.291c0,0.723,1.047,0.723,1.047,0C38.129,27.623,37.082,27.623,37.082,28.291z"/>
<path id="Path_303_" fill="#4A3728" d="M34.443,29.18c1.012-3.248,7.92-2.783,8.865-0.584C42.957,25.797,35.307,25.057,34.443,29.18
	z"/>
<linearGradient id="SVGID_2_" gradientUnits="userSpaceOnUse" x1="32.0024" y1="15.2544" x2="32.0024" y2="6">
	<stop  offset="0" style="stop-color:#FFE98C"/>
	<stop  offset="0.5586" style="stop-color:#FFE284"/>
	<stop  offset="1" style="stop-color:#FFD97A"/>
	<a:midPointStop  offset="0" style="stop-color:#FFE98C"/>
	<a:midPointStop  offset="0.6121" style="stop-color:#FFE98C"/>
	<a:midPointStop  offset="1" style="stop-color:#FFD97A"/>
</linearGradient>
<path fill="url(#SVGID_2_)" d="M46.086,11.793C43.672,8.531,39.254,6,32,6c-7.252,0-11.668,2.531-14.082,5.793
	C14.5,16.408,49.502,16.408,46.086,11.793z"/>
<path fill="#FFE98C" d="M46.086,11.793C43.672,8.531,32,12.068,32,12.068s-11.668-3.537-14.082-0.275
	c-3.418,4.615-2.258,15.998-0.736,15.998c0.24,0,0.275-1.381,0.736-5.104c0.373-3.029,1.094-5.969,1.924-6.449
	C22.373,14.771,32,16.869,32,16.869s9.629-2.098,12.162-0.631c0.828,0.48,1.547,3.42,1.924,6.449
	c0.459,3.723,0.494,5.104,0.734,5.104C48.342,27.791,49.502,16.408,46.086,11.793z"/>
</svg>
