<?xml version="1.0" encoding="utf-8"?>
<!-- Generator: Adobe Illustrator 15.0.0, SVG Export Plug-In . SVG Version: 6.00 Build 0)  -->
<!DOCTYPE svg PUBLIC "-//W3C//DTD SVG 1.1//EN" "http://www.w3.org/Graphics/SVG/1.1/DTD/svg11.dtd" [
	<!ENTITY ns_flows "http://ns.adobe.com/Flows/1.0/">
	<!ENTITY ns_extend "http://ns.adobe.com/Extensibility/1.0/">
	<!ENTITY ns_ai "http://ns.adobe.com/AdobeIllustrator/10.0/">
	<!ENTITY ns_graphs "http://ns.adobe.com/Graphs/1.0/">
]>
<svg version="1.1" id="Layer_1" xmlns:x="&ns_extend;" xmlns:i="&ns_ai;" xmlns:graph="&ns_graphs;"
	 xmlns="http://www.w3.org/2000/svg" xmlns:xlink="http://www.w3.org/1999/xlink" xmlns:a="http://ns.adobe.com/AdobeSVGViewerExtensions/3.0/"
	 x="0px" y="0px" width="64px" height="64px" viewBox="0 0 64 64" enable-background="new 0 0 64 64" xml:space="preserve">
<path fill="#CFD8DD" d="M57.537,52.488l-1.092-0.822c-0.744-4.123-13.074-6.561-13.074-6.561H20.629c0,0-12.33,2.438-13.074,6.561
	l-1.092,0.822C4.768,52.434,2,56.891,2,59.289C2,61.098,17,62,32,62s30-0.902,30-2.711C62,56.891,59.232,52.434,57.537,52.488z"/>
<path fill="#99A8AE" d="M53.765,61.225c0.334-4.994,3.772-8.736,3.772-8.736l-1.092-0.822c0,0-3.942,3.941-4.224,9.689
	C53.027,61.289,53.765,61.225,53.765,61.225z"/>
<path fill="#99A8AE" d="M10.235,61.225c-0.334-4.994-3.772-8.736-3.772-8.736l1.092-0.822c0,0,3.942,3.941,4.224,9.689
	C10.973,61.289,10.235,61.225,10.235,61.225z"/>
<path fill="#018BC9" d="M4.882,53.348c0,0-1.478,1.258-2.342,3.652c0.599,1.418,1.849,2.762,1.849,2.762s0.922-1.563,2.578-2.938
	C6.074,54.838,4.882,53.348,4.882,53.348z"/>
<path fill="#99A8AE" d="M47.67,42.609c-2.129,0-29.217,0-31.344,0c-2.984,0-2.607,2.113-2.607,4.227
	c0,4.756,10.385,7.047,18.281,7.047s18.281-2.291,18.281-7.047C50.281,44.723,50.658,42.609,47.67,42.609"/>
<path fill="#E6EBEF" d="M36.082,57c0,0-1.154-0.854-1.396-1c-0.836-0.508-6.439-0.49-7.273,0c-0.248,0.145-1.475,1-1.475,1H20v4.797
	C23.796,61.932,27.896,62,32,62s8.204-0.068,12-0.203V57H36.082z"/>
<rect x="28.068" y="58.625" fill="#99A8AE" width="6.156" height="3.375"/>
<polygon fill="#99A8AE" points="24.873,61.932 22.172,61.867 22.172,60.313 24.873,60.313 "/>
<rect x="21.568" y="56.48" fill="#99A8AE" width="2.701" height="0.52"/>
<rect x="38.707" y="56.48" fill="#99A8AE" width="1.5" height="0.52"/>
<path fill="#99A8AE" d="M39.457,59.334c-1.473,0-2.666,1.193-2.666,2.666l5.328-0.143C42.119,60.385,40.93,59.334,39.457,59.334z"/>
<rect x="4.674" y="29.016" fill="#99A8AE" width="6.156" height="7.375"/>
<rect x="5.982" y="27.793" fill="#4E5E67" width="3.539" height="7.375"/>
<rect x="53.172" y="29.016" fill="#99A8AE" width="6.156" height="7.375"/>
<rect x="54.48" y="27.793" fill="#4E5E67" width="3.539" height="7.375"/>
<path fill="#99A8AE" d="M62,25.342c0,2.148-1.74,3.887-3.887,3.887H5.887C3.74,29.229,2,27.49,2,25.342v-6.684
	c0-2.146,1.74-3.887,3.887-3.887h52.227c2.146,0,3.887,1.74,3.887,3.887V25.342z"/>
<circle fill="#302C3B" cx="32" cy="26" r="22"/>
<path fill="#7D8D96" d="M61.002,18.852c0,3.334-5.002,3.334-5.002,0S61.002,15.518,61.002,18.852z"/>
<path fill="#7D8D96" d="M61.002,25.156c0,3-4.502,3-4.502,0S61.002,22.156,61.002,25.156z"/>
<path fill="#CFD8DD" d="M60.502,18.852c0,2.666-4.002,2.666-4.002,0S60.502,16.186,60.502,18.852z"/>
<path fill="#CFD8DD" d="M60.502,25.156c0,2.334-3.502,2.334-3.502,0C57,22.824,60.502,22.824,60.502,25.156z"/>
<path fill="#7D8D96" d="M8.002,18.854c0,3.332-5.002,3.332-5.002,0C3,15.518,8.002,15.518,8.002,18.854z"/>
<path fill="#7D8D96" d="M7.502,25.156c0,3-4.502,3-4.502,0S7.502,22.156,7.502,25.156z"/>
<path fill="#CFD8DD" d="M7.502,18.854c0,2.666-4.002,2.666-4.002,0C3.5,16.186,7.502,16.186,7.502,18.854z"/>
<path fill="#CFD8DD" d="M7.002,25.156c0,2.334-3.502,2.334-3.502,0C3.5,22.824,7.002,22.824,7.002,25.156z"/>
<path fill="#1E110E" d="M47.148,38.787c1.08,0.713,2.326,1.247,3.781,1.52c-2.582-5.889,1.313-18.237-6.668-27.311
	c-11.25,0.338-12.807,36.722,2.875,31.883c-0.998-0.433-1.623-1.315-1.99-2.43c1.209,0.347,2.621,0.358,4.268-0.148
	C48.104,41.734,47.438,40.4,47.148,38.787z"/>
<path fill="#1E110E" d="M18.91,12.996c-7.979,9.073-3.326,21.422-5.91,27.311c1.455-0.272,2.701-0.807,3.781-1.52
	c-0.287,1.613-0.955,2.947-2.264,3.514c1.645,0.507,3.057,0.495,4.266,0.148c-0.367,1.114-0.99,1.997-1.99,2.43
	C32.475,49.718,30.16,13.334,18.91,12.996z"/>
<path id="Path_2273_" fill="#FFD8B4" d="M48.377,25.393c-2.541,0.309-4.375,8.816-2.777,11.063c0.223,0.313,1.533,0.813,2.504-1.168
	c0.537-1.098,2.09-2.014,2.568-4.277C51.289,28.109,50.904,25.086,48.377,25.393z"/>
<path id="Path_2272_" fill="#FFD8B4" d="M15.555,25.393c2.541,0.309,4.375,8.816,2.777,11.063c-0.225,0.313-1.533,0.813-2.504-1.168
	c-0.539-1.098-2.09-2.014-2.57-4.277C12.643,28.109,13.027,25.086,15.555,25.393z"/>
<path id="Path_2271_" fill="#DEB38A" d="M48.309,27.023c-0.662,0.209-1.387,1.22-1.779,2.896c2.318-0.498,1.738,3.362-0.275,3.436
	c0.018,0.388,0.045,0.787,0.092,1.209c0.971-1.411,1.957-0.846,2.934-2.941C50.158,29.732,49.949,26.508,48.309,27.023z"/>
<path id="Path_2270_" fill="#DEB38A" d="M17.4,29.916c-0.393-1.674-1.113-2.685-1.775-2.893c-1.643-0.516-1.852,2.709-0.973,4.6
	c0.977,2.096,1.963,1.53,2.934,2.941c0.047-0.423,0.074-0.822,0.09-1.211C15.684,33.258,15.113,29.446,17.4,29.916z"/>
<path fill="#FFD8B4" d="M31.965,9.035c-11.008,0-16.311,8.965-15.648,20.492c0.137,2.318,0.781,5.662,1.576,8.525
	c1.65,5.953,10.363,11.948,14.072,11.948s12.422-5.995,14.072-11.948c0.797-2.863,1.441-6.207,1.578-8.525
	C48.275,18,42.975,9.035,31.965,9.035z"/>
<path id="Path_2269_" fill="#A88868" d="M43.926,24.543c-2.518-1.333-7.336-1.398-9.131-0.469c-0.385,0.18-0.129,1.443,0.193,1.322
	c2.5-0.989,6.535-1.012,8.877,0.085C44.178,25.623,44.307,24.729,43.926,24.543z"/>
<path id="Path_2268_" fill="#A88868" d="M20.006,24.543c2.518-1.333,7.332-1.398,9.129-0.469c0.385,0.18,0.131,1.443-0.191,1.322
	c-2.506-0.989-6.535-1.012-8.879,0.085C19.754,25.623,19.625,24.729,20.006,24.543z"/>
<path id="Path_2267_" fill="#DEB38A" d="M34.936,36.109c-0.313-0.219-1.051,0.118-2.971,0.118c-1.916,0-2.654-0.337-2.971-0.118
	c-0.375,0.266,0.225,1.463,2.971,1.463C34.715,37.572,35.314,36.375,34.936,36.109z"/>
<path id="Path_2266_" fill="#DEB38A" d="M31.965,40.646c-2.475-0.729-6.145,0.345-6.145,0.345c1.398,1.522,2.422,3.497,6.145,3.497
	c4.266,0,4.992-2.242,6.146-3.497C38.111,40.991,34.439,39.914,31.965,40.646z"/>
<path id="Path_2265_" fill="#FFFFFF" d="M26.742,41.249c2.596,2.178,7.838,2.192,10.447,0
	C34.424,41.367,29.527,41.369,26.742,41.249z"/>
<path id="Path_2264_" fill="#FFFFFF" d="M29.516,29.086c0.094,0.729-0.4,1.594-1.77,2.24c-0.869,0.412-2.68,0.896-5.057-0.106
	c-1.066-0.448-2.104-1.849-2.012-2.622C21.967,26.168,28.311,25.813,29.516,29.086z"/>
<linearGradient id="Oval_1_" gradientUnits="userSpaceOnUse" x1="-424.5854" y1="477.4658" x2="-424.5854" y2="478.2246" gradientTransform="matrix(6.5701 0 0 -6.5701 2814.7805 3168.5281)">
	<stop  offset="0" style="stop-color:#A6694A"/>
	<stop  offset="1" style="stop-color:#4F2A1E"/>
	<a:midPointStop  offset="0" style="stop-color:#A6694A"/>
	<a:midPointStop  offset="0.5" style="stop-color:#A6694A"/>
	<a:midPointStop  offset="1" style="stop-color:#4F2A1E"/>
</linearGradient>
<circle id="Oval_254_" fill="url(#Oval_1_)" cx="25.213" cy="29.037" r="2.492"/>
<path id="Path_2263_" fill="#1A1626" d="M23.967,28.991c0,1.726,2.492,1.726,2.492,0C26.459,27.391,23.967,27.391,23.967,28.991z"/>
<path id="Path_2262_" fill="#AB968C" d="M23.588,28.293c0,0.724,1.045,0.724,1.045,0C24.633,27.624,23.588,27.624,23.588,28.293z"/>
<path id="Path_2227_" fill="#DEB38A" d="M29.527,29.183c-1.012-3.253-7.91-2.772-8.85-0.585
	C21.027,25.797,28.666,25.058,29.527,29.183z"/>
<path id="Path_2226_" fill="#FFFFFF" d="M34.414,29.086c-0.092,0.729,0.402,1.594,1.771,2.24c0.869,0.412,2.678,0.896,5.057-0.106
	c1.066-0.448,2.104-1.849,2.01-2.622C41.965,26.168,35.621,25.813,34.414,29.086z"/>
<linearGradient id="Oval_2_" gradientUnits="userSpaceOnUse" x1="-425.2368" y1="477.4658" x2="-425.2368" y2="478.2246" gradientTransform="matrix(6.5701 0 0 -6.5701 2832.511 3168.5281)">
	<stop  offset="0" style="stop-color:#A6694A"/>
	<stop  offset="1" style="stop-color:#4F2A1E"/>
	<a:midPointStop  offset="0" style="stop-color:#A6694A"/>
	<a:midPointStop  offset="0.5" style="stop-color:#A6694A"/>
	<a:midPointStop  offset="1" style="stop-color:#4F2A1E"/>
</linearGradient>
<circle id="Oval_253_" fill="url(#Oval_2_)" cx="38.662" cy="29.037" r="2.492"/>
<path id="Path_2225_" fill="#1A1626" d="M37.418,28.991c0,1.726,2.492,1.726,2.492,0C39.91,27.391,37.418,27.391,37.418,28.991z"/>
<path id="Path_2224_" fill="#AB968C" d="M37.039,28.293c0,0.724,1.045,0.724,1.045,0C38.084,27.624,37.039,27.624,37.039,28.293z"/>
<path id="Path_2223_" fill="#DEB38A" d="M34.404,29.183c1.01-3.251,7.904-2.786,8.848-0.585
	C42.902,25.797,35.266,25.058,34.404,29.183z"/>
<linearGradient id="SVGID_1_" gradientUnits="userSpaceOnUse" x1="31.8013" y1="31.8184" x2="31.8013" y2="6.001">
	<stop  offset="0" style="stop-color:#1E110E"/>
	<stop  offset="0.2821" style="stop-color:#31211E"/>
	<stop  offset="0.7266" style="stop-color:#493632"/>
	<stop  offset="1" style="stop-color:#523E3A"/>
	<a:midPointStop  offset="0" style="stop-color:#1E110E"/>
	<a:midPointStop  offset="0.4" style="stop-color:#1E110E"/>
	<a:midPointStop  offset="1" style="stop-color:#523E3A"/>
</linearGradient>
<path fill="url(#SVGID_1_)" d="M31.967,6.001c-6.699,0-10.045,3.034-10.725,4.474c-8.098,1.852-10.703,15.516-4.641,21.344
	c0.754-6.211,1.479-10.201,5.607-14.404c2.408,3.227,7.41,5.042,11.889,5.042c-2.121-1.541-3.566-3.051-4.701-4.458
	c7.479,3.433,15.855,5.63,17.934,13.82C54.525,20.359,48.549,6.001,31.967,6.001z"/>
<path fill="#1E110E" d="M21.225,10.473c-0.08,4.428,2.184,9.995,12.877,11.982C26.453,22.972,18.604,18.35,21.225,10.473z"/>
<path fill="#1E110E" d="M21.717,16.613c-2.785,2.746-5.736,7.939-5.143,15.205c0.553-6.005,3.313-10.949,5.811-14.152
	C22.207,17.473,21.867,16.832,21.717,16.613z"/>
<path fill="#1E110E" d="M26.67,15.236c5.764,5.504,19.174,3.534,20.688,16.582C43.771,20.547,31.613,23.075,26.67,15.236z"/>
<radialGradient id="SVGID_2_" cx="28.001" cy="19.1675" r="17.316" gradientTransform="matrix(1 0 0 1.5 0 -9.5837)" gradientUnits="userSpaceOnUse">
	<stop  offset="0" style="stop-color:#E6EBEF"/>
	<stop  offset="0.1926" style="stop-color:#D7DEE2"/>
	<stop  offset="1" style="stop-color:#99A8AE"/>
	<a:midPointStop  offset="0" style="stop-color:#E6EBEF"/>
	<a:midPointStop  offset="0.4848" style="stop-color:#E6EBEF"/>
	<a:midPointStop  offset="1" style="stop-color:#99A8AE"/>
</radialGradient>
<path fill="url(#SVGID_2_)" d="M53.73,25.09c0.176-0.949,0.27-1.92,0.27-2.91c0-10.273-9.85-18.602-22-18.602S10,11.906,10,22.18
	c0,0.99,0.094,1.961,0.27,2.91C13.76,11.268,50.242,11.268,53.73,25.09z"/>
<path fill="#CFD8DD" d="M32,2C18.746,2,8,12.746,8,26s10.746,24,24,24s24-10.746,24-24S45.254,2,32,2z M32,47.5
	c-11.873,0-21.5-9.627-21.5-21.5c0-11.875,9.627-21.5,21.5-21.5c11.875,0,21.5,9.625,21.5,21.5C53.5,37.873,43.875,47.5,32,47.5z"/>
<polygon fill="#CFD8DD" points="45.518,43.906 44.809,40.83 46.871,38.811 50.715,38.811 "/>
<path fill="#302C3B" d="M38.387,43.781c-0.797,0-0.797-0.969,0-0.969c5.953,0,7.391-2.5,9.953-3.313
	c0.666-0.211,1.234,1.469,0.125,2.201C48.09,41.947,44.262,43.781,38.387,43.781z"/>
<radialGradient id="SVGID_3_" cx="24.25" cy="18.2202" r="31.0858" gradientUnits="userSpaceOnUse">
	<stop  offset="0" style="stop-color:#FFFFFF;stop-opacity:0.73"/>
	<stop  offset="0.7879" style="stop-color:#FFFFFF;stop-opacity:0"/>
	<a:midPointStop  offset="0" style="stop-color:#FFFFFF;stop-opacity:0.73"/>
	<a:midPointStop  offset="0.4848" style="stop-color:#FFFFFF;stop-opacity:0.73"/>
	<a:midPointStop  offset="0.7879" style="stop-color:#FFFFFF;stop-opacity:0"/>
</radialGradient>
<path opacity="0.8" fill="url(#SVGID_3_)" d="M10.521,25.463c-0.016,0.34-0.025,0.68-0.025,1.023C10.496,38.395,20.123,47.5,32,47.5
	c11.875,0,21.504-9.105,21.504-21.014c0-0.344-0.01-0.684-0.025-1.023C49.828,12.1,14.172,12.1,10.521,25.463z"/>
</svg>
