<?xml version="1.0" encoding="utf-8"?>
<!-- Generator: Adobe Illustrator 15.0.0, SVG Export Plug-In . SVG Version: 6.00 Build 0)  -->
<!DOCTYPE svg PUBLIC "-//W3C//DTD SVG 1.1//EN" "http://www.w3.org/Graphics/SVG/1.1/DTD/svg11.dtd" [
	<!ENTITY ns_flows "http://ns.adobe.com/Flows/1.0/">
	<!ENTITY ns_extend "http://ns.adobe.com/Extensibility/1.0/">
	<!ENTITY ns_ai "http://ns.adobe.com/AdobeIllustrator/10.0/">
	<!ENTITY ns_graphs "http://ns.adobe.com/Graphs/1.0/">
]>
<svg version="1.1" id="Layer_1" xmlns:x="&ns_extend;" xmlns:i="&ns_ai;" xmlns:graph="&ns_graphs;"
	 xmlns="http://www.w3.org/2000/svg" xmlns:xlink="http://www.w3.org/1999/xlink" xmlns:a="http://ns.adobe.com/AdobeSVGViewerExtensions/3.0/"
	 x="0px" y="0px" width="64px" height="64px" viewBox="0 0 64 64" enable-background="new 0 0 64 64" xml:space="preserve">
<path fill="#F9B700" d="M48.68,55.076c0,0.617,3.269,0.617,3.269,0C51.948,52.585,48.68,52.585,48.68,55.076z"/>
<path fill="#F59E01" d="M45.689,56.964c0,0.763,9.249,0.763,9.249,0C54.938,53.876,45.689,53.876,45.689,56.964z"/>
<path fill="#F59E01" d="M45.689,63.429c0,0.762,9.249,0.762,9.249,0C54.938,60.343,45.689,60.343,45.689,63.429z"/>
<path fill="#F59E01" d="M57.734,60.534c8.024,4.02,3.276-8.477-2.39-3.068C50.536,59.758,56.248,64.795,57.734,60.534z
	 M55.901,58.164c3.28-3.127,6.984,2.62,2.904,2.054c1.318-1.977-2.373-2.524-1.9-0.733c-1.021-0.623-2.256,0.702-1.088,1.542
	C54.44,60.808,54.093,59.026,55.901,58.164z"/>
<path fill="#F9B700" d="M56.61,57.264c-5.728-2.929-8.584,0.492-17.967-2.614c-0.822,0.46-2.385,0.539-1.264,1.864
	C46.166,55.372,48.299,68.331,56.61,57.264z"/>
<path fill="#AB5C10" d="M38.801,54.958c-0.104-0.205-1.624,0.566-1.52,0.772C37.704,56.558,39.226,55.787,38.801,54.958z"/>
<linearGradient id="SVGID_1_" gradientUnits="userSpaceOnUse" x1="6.1318" y1="41.6641" x2="56.8799" y2="41.6641">
	<stop  offset="0" style="stop-color:#00A7C7"/>
	<stop  offset="0.2046" style="stop-color:#00A0C5"/>
	<stop  offset="0.4921" style="stop-color:#008EC1"/>
	<stop  offset="0.827" style="stop-color:#0070BA"/>
	<stop  offset="1" style="stop-color:#005EB5"/>
	<a:midPointStop  offset="0" style="stop-color:#00A7C7"/>
	<a:midPointStop  offset="0.6341" style="stop-color:#00A7C7"/>
	<a:midPointStop  offset="1" style="stop-color:#005EB5"/>
</linearGradient>
<path fill="url(#SVGID_1_)" d="M33.732,35.834c-2.302,9.448-9.989,12.356-12.241,6.188c-2.752-0.876-11.712-0.878-14.472,0
	C1.48,56.614,23.266,67.01,33.599,42.558c8.638-20.434,24.533-8.735,6.315,2.246c-10.655,6.42-5.993,9.644-1.427,11.083
	c-4.38-3.713-1.906-5.777,3.525-8.198C77.584,31.828,38.812,14.988,33.732,35.834z"/>
<path fill="#B30BAD" d="M20.912,39.747c0,2.844-13.315,2.844-13.315,0c0,0-0.112-5.601-1.925-8.89h17.165
	C21.022,34.146,20.912,39.747,20.912,39.747z"/>
<path fill="#F9B700" d="M21.491,42.022c0,2.844-7.235,4.701-7.235,4.701S7.02,44.866,7.02,42.022
	c0.707-2.299,0.577-2.275,0.577-2.275c3.88,1.983,9.438,1.983,13.315,0C20.912,39.747,20.81,40.324,21.491,42.022z"/>
<linearGradient id="SVGID_2_" gradientUnits="userSpaceOnUse" x1="13.3823" y1="10.355" x2="39.6963" y2="10.355">
	<stop  offset="0.0848" style="stop-color:#012A4A"/>
	<stop  offset="0.7455" style="stop-color:#015799"/>
	<a:midPointStop  offset="0.0848" style="stop-color:#012A4A"/>
	<a:midPointStop  offset="0.5" style="stop-color:#012A4A"/>
	<a:midPointStop  offset="0.7455" style="stop-color:#015799"/>
</linearGradient>
<path fill="url(#SVGID_2_)" d="M39.696,19.93C24.029,17.503,31.161,4.013,21.229,0.38c-6.356-2.325-10.059,6.665-6.402,9.814
	C24.844,3.371,21.234,25.007,39.696,19.93z"/>
<linearGradient id="SVGID_3_" gradientUnits="userSpaceOnUse" x1="14.5156" y1="11.5581" x2="34.666" y2="11.5581">
	<stop  offset="0" style="stop-color:#012A4A"/>
	<stop  offset="0.3617" style="stop-color:#013A66"/>
	<stop  offset="0.7568" style="stop-color:#01487E"/>
	<stop  offset="1" style="stop-color:#014D87"/>
	<a:midPointStop  offset="0" style="stop-color:#012A4A"/>
	<a:midPointStop  offset="0.4" style="stop-color:#012A4A"/>
	<a:midPointStop  offset="1" style="stop-color:#014D87"/>
</linearGradient>
<path fill="url(#SVGID_3_)" d="M34.666,21.54C21.828,18.139,27.468,4.067,20.445,1.768c-5.233-1.715-7.604,5.796-4.627,8.564
	C25.525,4.959,16.584,22.757,34.666,21.54z"/>
<path fill="#F59E01" d="M13.864,2.474c1.143-3.215,7.707-0.9,6.564,2.316C20.182,5.484,13.575,3.282,13.864,2.474z"/>
<path fill="#00A7C7" d="M17.141,17.143c-0.778-0.65-4.999-0.65-5.772,0c-0.109,3.842-0.417,3.544-5.905,4.866
	c0,2.807,8.79,6.382,8.79,6.382s8.789-3.575,8.789-6.382C17.554,20.687,17.25,20.984,17.141,17.143z"/>
<path fill="#00859E" d="M15.075,24.734c-0.46,0.479-0.822,1.57-0.822,1.57s-0.357-1.091-0.822-1.57
	c0.822,2.454,0.624,3.559,0.624,3.559h0.399C14.454,28.293,14.253,27.034,15.075,24.734z"/>
<path fill="#B30BAD" d="M7.013,33.146h14.479c0.456-3.341,1.604-6.39,4.499-6.727c1.049-1.29,0.718-4.771-3.111-4.55
	c-4.761,1.721-2.875,5.433-8.626,5.433c-5.754,0-3.864-3.712-8.629-5.433c-3.827-0.222-4.16,3.26-3.107,4.55
	C5.412,26.757,6.56,29.806,7.013,33.146z"/>
<path fill="#00A7C7" d="M2.596,25.901c0.91-1.27,3.25-0.115,3.775,0.756c0.943,2.15,1.134,5.152,1.619,5.662
	c3.942-1.043,12.442-0.372,11.484,2.13c-9.384,1.414-12.151,1.66-14.012,1.592C4.828,36.02,3.5,31.959,2.596,25.901z"/>
<path fill="#00859E" d="M7.99,32.319c3.942-1.043,12.442-0.372,11.484,2.13c0,0-2.281,0.464-4.332,0.638
	C12.903,33.299,9.281,32.374,7.99,32.319z"/>
<path fill="#00A7C7" d="M25.906,25.901c-0.91-1.27-3.247-0.115-3.772,0.756c-0.946,2.15-0.749,4.461-1.234,4.969
	c-6.646-0.936-11.882-2.05-12.909,0.693c4.581-0.701,8.379,3.226,15.052,3.722C23.676,36.089,25.005,31.959,25.906,25.901z"/>
<path fill="#D47706" d="M10.213,30.732c-0.538,0.152-0.772,1.227-0.285,1.548c0.488,0.318,4.317,1.506,4.66,1.394
	c-0.508-0.621,0.053-2.658,1.296-2.765C15.635,30.518,12.031,30.214,10.213,30.732z"/>
<path fill="#F9B700" d="M15.19,31.22c-1.848-0.371-4.597-0.235-5.338-0.191c-0.121,0.189-0.192,0.431-0.19,0.664
	c1.276,0.031,3.591,0.24,4.886,0.511C14.676,31.822,14.896,31.468,15.19,31.22z"/>
<path fill="#D47706" d="M20.912,39.747c-0.54,0.274-1.118,0.504-1.714,0.704c0.05,1.329,0.207,2.671,0.481,4.006
	c1.037-0.688,1.812-1.508,1.812-2.435C20.81,40.324,20.912,39.747,20.912,39.747z"/>
<path fill="#D47706" d="M9.315,40.451c-0.599-0.2-1.179-0.43-1.719-0.704c0,0,0.13-0.023-0.577,2.275
	c0,0.927,0.774,1.747,1.813,2.438C9.105,43.122,9.263,41.78,9.315,40.451z"/>
<path id="Path_486_" fill="#0FB4D4" d="M6.84,8.876c1.148,0.138,1.975,3.962,1.255,4.973c-0.103,0.142-0.692,0.367-1.132-0.525
	C6.72,12.83,6.02,12.42,5.804,11.4C5.523,10.097,5.697,8.736,6.84,8.876z"/>
<path id="Path_485_" fill="#0FB4D4" d="M21.663,8.876c-1.146,0.138-1.976,3.962-1.254,4.973c0.101,0.142,0.693,0.367,1.13-0.525
	c0.245-0.493,0.944-0.903,1.162-1.923C22.979,10.097,22.806,8.736,21.663,8.876z"/>
<path id="Path_484_" fill="#00859E" d="M6.871,9.609c0.299,0.092,0.625,0.548,0.804,1.302c-1.047-0.223-0.785,1.511,0.123,1.546
	c-0.009,0.173-0.021,0.353-0.04,0.542c-0.439-0.634-0.885-0.38-1.324-1.323C6.036,10.828,6.13,9.378,6.871,9.609z"/>
<path id="Path_483_" fill="#00859E" d="M20.83,10.909c0.178-0.752,0.502-1.208,0.802-1.3c0.742-0.233,0.837,1.219,0.439,2.066
	c-0.441,0.943-0.886,0.689-1.325,1.323c-0.021-0.189-0.033-0.369-0.039-0.544C21.604,12.413,21.864,10.698,20.83,10.909z"/>
<path fill="#0FB4D4" d="M14.251,1.52c4.972,0,7.368,4.031,7.068,9.215c-0.063,1.044-0.354,2.546-0.713,3.833
	c-0.745,2.677-4.679,5.373-6.355,5.373c-1.674,0-5.609-2.696-6.354-5.373c-0.36-1.287-0.651-2.789-0.712-3.833
	C6.886,5.551,9.279,1.52,14.251,1.52z"/>
<path fill="#006DAE" d="M14.253,15.732c1.164-0.511,1.174-0.021,2.972,0.1c-0.674,0.763-1.172,1.744-2.972,1.744
	c-2.067,0-2.414-1.113-2.976-1.744C13.079,15.711,13.086,15.222,14.253,15.732z"/>
<path fill="#FFFFFF" d="M16.685,16.021c-1.174,1.217-3.706,1.2-4.867,0C13.628,16.216,14.877,16.216,16.685,16.021z"/>
<path fill="#014D87" d="M8.97,9.011c1.077-0.642,3.018-0.721,3.783-0.283c0.163,0.088,0.119,0.553-0.021,0.492
	c-1.095-0.452-2.761-0.476-3.788,0.05C8.809,9.338,8.805,9.104,8.97,9.011z"/>
<path fill="#014D87" d="M19.535,9.011c-1.08-0.642-3.018-0.721-3.786-0.283c-0.161,0.088-0.117,0.553,0.023,0.492
	c1.095-0.452,2.758-0.476,3.785,0.05C19.696,9.338,19.698,9.104,19.535,9.011z"/>
<path fill="#00859E" d="M13.134,14.086c0.119-0.081,0.397,0.046,1.119,0.046c0.721,0,0.998-0.127,1.118-0.046
	c0.14,0.101-0.086,0.548-1.118,0.548C13.22,14.634,12.991,14.187,13.134,14.086z"/>
<path id="Path_482_" fill="#FFFFFF" d="M13.146,10.953c0.042,0.329-0.183,0.719-0.802,1.008c-0.391,0.188-1.207,0.404-2.283-0.048
	c-0.48-0.202-0.949-0.831-0.908-1.179C9.735,9.641,12.601,9.482,13.146,10.953z"/>
<linearGradient id="Oval_1_" gradientUnits="userSpaceOnUse" x1="-426.7178" y1="480.4297" x2="-426.7178" y2="480.7715" gradientTransform="matrix(6.5701 0 0 -6.5701 2814.7805 3168.5281)">
	<stop  offset="0" style="stop-color:#74717D"/>
	<stop  offset="1" style="stop-color:#28272E"/>
	<a:midPointStop  offset="0" style="stop-color:#74717D"/>
	<a:midPointStop  offset="0.5" style="stop-color:#74717D"/>
	<a:midPointStop  offset="1" style="stop-color:#28272E"/>
</linearGradient>
<circle id="Oval_40_" fill="url(#Oval_1_)" cx="11.202" cy="10.932" r="1.121"/>
<path id="Path_481_" fill="#1A1626" d="M10.64,10.911c0,0.777,1.126,0.777,1.126,0C11.766,10.192,10.64,10.192,10.64,10.911z"/>
<path id="Path_480_" fill="#9F9AAB" d="M10.468,10.597c0,0.327,0.473,0.327,0.473,0C10.94,10.297,10.468,10.297,10.468,10.597z"/>
<path id="Path_479_" fill="#012A4A" d="M13.15,10.997c-0.456-1.461-3.571-1.246-3.997-0.263C9.311,9.476,12.762,9.143,13.15,10.997z
	"/>
<path id="Path_478_" fill="#FFFFFF" d="M15.358,10.953c-0.044,0.329,0.182,0.719,0.797,1.008c0.396,0.188,1.212,0.404,2.285-0.048
	c0.483-0.202,0.952-0.831,0.908-1.179C18.767,9.641,15.902,9.482,15.358,10.953z"/>
<linearGradient id="Oval_2_" gradientUnits="userSpaceOnUse" x1="-428.4917" y1="480.4297" x2="-428.4917" y2="480.7715" gradientTransform="matrix(6.5701 0 0 -6.5701 2832.511 3168.5281)">
	<stop  offset="0" style="stop-color:#74717D"/>
	<stop  offset="1" style="stop-color:#28272E"/>
	<a:midPointStop  offset="0" style="stop-color:#74717D"/>
	<a:midPointStop  offset="0.5" style="stop-color:#74717D"/>
	<a:midPointStop  offset="1" style="stop-color:#28272E"/>
</linearGradient>
<circle id="Oval_39_" fill="url(#Oval_2_)" cx="17.277" cy="10.932" r="1.121"/>
<path id="Path_477_" fill="#1A1626" d="M16.714,10.911c0,0.777,1.126,0.777,1.126,0C17.84,10.192,16.714,10.192,16.714,10.911z"/>
<path id="Path_476_" fill="#9F9AAB" d="M16.543,10.597c0,0.327,0.473,0.327,0.473,0C17.016,10.297,16.543,10.297,16.543,10.597z"/>
<path id="Path_475_" fill="#012A4A" d="M15.354,10.997c0.457-1.461,3.57-1.253,3.995-0.263C19.191,9.476,15.741,9.143,15.354,10.997
	z"/>
<linearGradient id="SVGID_4_" gradientUnits="userSpaceOnUse" x1="-1132.7886" y1="11.4238" x2="-1132.7886" y2="0.4961" gradientTransform="matrix(-1 0 0 1 -1118.4395 0)">
	<stop  offset="0" style="stop-color:#012A4A"/>
	<stop  offset="0.3617" style="stop-color:#013A66"/>
	<stop  offset="0.7568" style="stop-color:#01487E"/>
	<stop  offset="1" style="stop-color:#014D87"/>
	<a:midPointStop  offset="0" style="stop-color:#012A4A"/>
	<a:midPointStop  offset="0.4" style="stop-color:#012A4A"/>
	<a:midPointStop  offset="1" style="stop-color:#014D87"/>
</linearGradient>
<path fill="url(#SVGID_4_)" d="M14.268,0.496c3.001,0,4.499,1.365,4.803,2.011c2.45,0.854,3.986,4.742,2.201,8.917
	c-0.401-3.263-0.929-4.229-3.691-6.827c-3.609,2.875-9.152,2.309-10.313,6.827C5.241,5.821,8.38,0.496,14.268,0.496z"/>
<path fill="#012A4A" d="M17.58,4.597c2.437,1.71,3.895,4.083,3.691,6.827C20.797,8.361,19.807,7.001,17.58,4.597z"/>
<path fill="#012A4A" d="M19.07,2.507C16.503,7.63,8.235,5.826,7.267,11.424C8.907,6.28,17.146,8.093,19.07,2.507z"/>
</svg>
