<?xml version="1.0" encoding="utf-8"?>
<!-- Generator: Adobe Illustrator 15.0.0, SVG Export Plug-In . SVG Version: 6.00 Build 0)  -->
<!DOCTYPE svg PUBLIC "-//W3C//DTD SVG 1.1//EN" "http://www.w3.org/Graphics/SVG/1.1/DTD/svg11.dtd" [
	<!ENTITY ns_flows "http://ns.adobe.com/Flows/1.0/">
	<!ENTITY ns_extend "http://ns.adobe.com/Extensibility/1.0/">
	<!ENTITY ns_ai "http://ns.adobe.com/AdobeIllustrator/10.0/">
	<!ENTITY ns_graphs "http://ns.adobe.com/Graphs/1.0/">
]>
<svg version="1.1" id="Layer_1" xmlns:x="&ns_extend;" xmlns:i="&ns_ai;" xmlns:graph="&ns_graphs;"
	 xmlns="http://www.w3.org/2000/svg" xmlns:xlink="http://www.w3.org/1999/xlink" xmlns:a="http://ns.adobe.com/AdobeSVGViewerExtensions/3.0/"
	 x="0px" y="0px" width="64px" height="64px" viewBox="0 0 64 64" enable-background="new 0 0 64 64" xml:space="preserve">
<path fill="#E6EBEF" d="M11.432,52.717c2.502-1.287,12.756-4.707,12.756-4.707l15.625-0.029c0,0,10.326,3.441,12.813,4.734
	C56.24,54.586,57,57.143,57,59.559c0,3.254-50,3.254-50,0C7,57.139,7.807,54.582,11.432,52.717z"/>
<path fill="#018BC9" d="M34.543,62l6.832-13.398c0,0-2.856,5.369-9.375,5.369s-9.373-5.369-9.375-5.369L29.459,62H34.543z"/>
<path fill="#0175A8" d="M22.625,49.422c0,8.123,18.75,8.123,18.75,0l-1.607-0.535h-15.58L22.625,49.422z"/>
<path fill="#855E45" d="M24.188,49.07c0,6.359,15.625,6.359,15.625,0c0-2.164,0-7.158,0-7.158H24.188
	C24.188,41.912,24.188,46.906,24.188,49.07z"/>
<path fill="#F5F5F5" d="M39.215,61.906c0,0,2.671-3.617,4.705-8.156l-2.588-2.518l4.118-0.729c0,0-2.407-3.342-5.638-4.502
	c0,0-1.561,8.889-5.27,15.998L39.215,61.906z"/>
<path fill="#F5F5F5" d="M24.788,61.906c0,0-2.672-3.617-4.706-8.156l2.588-2.518l-4.118-0.729c0,0,2.407-3.342,5.636-4.502
	c0,0,1.563,8.889,5.271,15.998L24.788,61.906z"/>
<path fill="#302C3B" d="M48.408,54.318c0-5.016-6.576-9.494-16.232-9.494S17.35,47.59,16.662,50.068l-1.182-0.135
	c1.354-3.377,7.039-6.121,16.695-6.121s17.023,4.939,17.234,10.514L48.408,54.318z"/>
<path fill="#302C3B" d="M48.912,54c1.93,0,3.5,1.568,3.5,3.5c0,1.934-1.57,3.5-3.5,3.5c-1.934,0-3.5-1.566-3.5-3.5
	C45.412,55.568,46.979,54,48.912,54"/>
<path fill="#CFD8DD" d="M48.912,54.438c1.693,0,3.061,1.369,3.061,3.064c0,1.689-1.367,3.061-3.061,3.061s-3.064-1.371-3.064-3.061
	C45.848,55.807,47.219,54.438,48.912,54.438"/>
<path fill="#99A8AE" d="M48.912,55.75c0.967,0,1.748,0.783,1.748,1.752c0,0.967-0.781,1.748-1.748,1.748
	c-0.969,0-1.752-0.781-1.752-1.748C47.16,56.533,47.943,55.75,48.912,55.75"/>
<rect x="48.611" y="53.895" fill="#B3C2C6" width="0.6" height="2.441"/>
<path fill="#E6EBEF" d="M48.912,56.188c0.727,0,1.313,0.588,1.313,1.313c0,0.727-0.586,1.313-1.313,1.313
	c-0.725,0-1.313-0.586-1.313-1.313C47.6,56.775,48.188,56.188,48.912,56.188"/>
<path fill="#302C3B" d="M20.523,53.957h-1.025c-0.002-1.924-1.613-3.488-3.598-3.488c-1.982-0.002-3.594,1.564-3.596,3.488h-1.025
	c0-2.473,2.072-4.484,4.621-4.484C18.451,49.471,20.523,51.484,20.523,53.957"/>
<path fill="#99A8AE" d="M11.279,53.957l-0.002,5.287c0.002,0.955,0.498,1.656,1.541,1.729c0.662,0.049,0.656-0.951-0.002-0.996
	c-0.686-0.049-0.51-0.852-0.51-1.318l-0.002-4.701C12.307,53.314,11.277,53.314,11.279,53.957"/>
<path fill="#99A8AE" d="M19.498,53.957v4.557c-0.002,0.479,0.205,1.412-0.514,1.463c-0.658,0.045-0.662,1.045,0,0.996
	c0.982-0.068,1.539-0.717,1.539-1.65v-5.365C20.523,53.314,19.498,53.314,19.498,53.957"/>
<path fill="#302C3B" d="M13.512,60.975h-0.75c-0.658,0-0.658-1.098,0-1.098l0.75,0.002C14.172,59.877,14.172,60.975,13.512,60.975z"
	/>
<path fill="#302C3B" d="M19.041,60.975h-0.748c-0.662,0-0.662-1.098-0.002-1.098l0.75,0.002
	C19.699,59.877,19.699,60.975,19.041,60.975z"/>
<path fill="#3B2118" d="M47.146,38.785c1.08,0.715,2.326,1.248,3.781,1.521c-2.582-5.889,1.313-18.238-6.668-27.312
	c-11.25,0.338-12.807,36.722,2.875,31.884c-0.998-0.434-1.623-1.316-1.99-2.43c1.209,0.346,2.621,0.357,4.266-0.148
	C48.102,41.734,47.434,40.398,47.146,38.785z"/>
<path fill="#3B2118" d="M18.908,12.995c-7.98,9.074-3.328,21.423-5.91,27.312c1.453-0.273,2.701-0.807,3.781-1.521
	c-0.287,1.613-0.955,2.949-2.264,3.516c1.645,0.506,3.057,0.494,4.266,0.148c-0.367,1.113-0.992,1.996-1.99,2.43
	C32.471,49.717,30.158,13.333,18.908,12.995z"/>
<path id="Path_2458_" fill="#916B50" d="M48.375,25.392C45.834,25.7,44,34.208,45.598,36.453c0.223,0.314,1.533,0.814,2.504-1.166
	c0.537-1.099,2.088-2.014,2.568-4.278C51.287,28.109,50.902,25.085,48.375,25.392z"/>
<path id="Path_2457_" fill="#916B50" d="M15.553,25.392c2.541,0.308,4.375,8.816,2.777,11.061c-0.225,0.314-1.535,0.814-2.504-1.166
	c-0.539-1.099-2.09-2.014-2.57-4.278C12.641,28.109,13.025,25.085,15.553,25.392z"/>
<path id="Path_2456_" fill="#69452D" d="M48.307,27.023c-0.664,0.209-1.387,1.219-1.779,2.896c2.318-0.498,1.738,3.361-0.275,3.435
	c0.018,0.388,0.045,0.788,0.092,1.209c0.971-1.411,1.955-0.845,2.932-2.941C50.156,29.732,49.947,26.508,48.307,27.023z"/>
<path id="Path_2455_" fill="#69452D" d="M17.398,29.916c-0.393-1.674-1.113-2.685-1.775-2.892c-1.643-0.516-1.854,2.708-0.973,4.599
	c0.977,2.096,1.961,1.53,2.934,2.941c0.047-0.423,0.074-0.822,0.09-1.21C15.682,33.258,15.111,29.446,17.398,29.916z"/>
<path fill="#916B50" d="M31.963,9.035c-11.008,0-16.311,8.965-15.648,20.493c0.137,2.317,0.781,5.66,1.576,8.525
	C19.541,44.006,28.254,50,31.963,50s12.422-5.994,14.072-11.947c0.797-2.865,1.441-6.208,1.576-8.525
	C48.273,18,42.973,9.035,31.963,9.035z"/>
<path id="Path_2454_" fill="#5E4431" d="M43.924,24.543c-2.518-1.333-7.336-1.398-9.131-0.47c-0.385,0.18-0.131,1.443,0.193,1.323
	c2.5-0.99,6.535-1.012,8.875,0.084C44.176,25.623,44.305,24.729,43.924,24.543z"/>
<path id="Path_2453_" fill="#5E4431" d="M20.004,24.543c2.518-1.333,7.332-1.398,9.129-0.47c0.385,0.18,0.131,1.443-0.191,1.323
	c-2.506-0.99-6.535-1.012-8.879,0.084C19.752,25.623,19.623,24.729,20.004,24.543z"/>
<path id="Path_2452_" fill="#69452D" d="M34.934,36.109c-0.314-0.221-1.051,0.117-2.971,0.117c-1.916,0-2.654-0.338-2.971-0.117
	c-0.375,0.264,0.225,1.461,2.971,1.461C34.711,37.57,35.313,36.373,34.934,36.109z"/>
<path id="Path_2451_" fill="#69452D" d="M31.963,40.645c-2.475-0.727-6.145,0.346-6.145,0.346c1.398,1.523,2.422,3.496,6.145,3.496
	c4.266,0,4.992-2.24,6.146-3.496C38.109,40.99,34.438,39.914,31.963,40.645z"/>
<path id="Path_2450_" fill="#FFFFFF" d="M26.74,41.248c2.596,2.178,7.836,2.193,10.447,0C34.422,41.367,29.525,41.369,26.74,41.248z
	"/>
<path id="Path_2449_" fill="#FFFFFF" d="M29.514,29.086c0.094,0.729-0.4,1.593-1.77,2.24c-0.871,0.412-2.68,0.896-5.057-0.107
	c-1.066-0.449-2.105-1.849-2.012-2.623C21.965,26.167,28.309,25.812,29.514,29.086z"/>
<linearGradient id="Oval_1_" gradientUnits="userSpaceOnUse" x1="-424.5854" y1="477.4658" x2="-424.5854" y2="478.2246" gradientTransform="matrix(6.5701 0 0 -6.5701 2814.7805 3168.5281)">
	<stop  offset="0" style="stop-color:#A6694A"/>
	<stop  offset="1" style="stop-color:#4F2A1E"/>
	<a:midPointStop  offset="0" style="stop-color:#A6694A"/>
	<a:midPointStop  offset="0.5" style="stop-color:#A6694A"/>
	<a:midPointStop  offset="1" style="stop-color:#4F2A1E"/>
</linearGradient>
<circle id="Oval_280_" fill="url(#Oval_1_)" cx="25.211" cy="29.037" r="2.492"/>
<path id="Path_2448_" fill="#1A1626" d="M23.965,28.991c0,1.725,2.492,1.725,2.492,0C26.457,27.391,23.965,27.391,23.965,28.991z"/>
<path id="Path_2447_" fill="#AB968C" d="M23.586,28.293c0,0.723,1.045,0.723,1.045,0C24.631,27.624,23.586,27.624,23.586,28.293z"/>
<path id="Path_2446_" fill="#69452D" d="M29.525,29.182c-1.012-3.252-7.91-2.772-8.85-0.585
	C21.023,25.796,28.664,25.057,29.525,29.182z"/>
<path id="Path_2445_" fill="#FFFFFF" d="M34.412,29.086c-0.094,0.729,0.402,1.593,1.771,2.24c0.869,0.412,2.678,0.896,5.057-0.107
	c1.066-0.449,2.104-1.849,2.01-2.623C41.963,26.167,35.619,25.812,34.412,29.086z"/>
<linearGradient id="Oval_2_" gradientUnits="userSpaceOnUse" x1="-425.2373" y1="477.4658" x2="-425.2373" y2="478.2246" gradientTransform="matrix(6.5701 0 0 -6.5701 2832.511 3168.5281)">
	<stop  offset="0" style="stop-color:#A6694A"/>
	<stop  offset="1" style="stop-color:#4F2A1E"/>
	<a:midPointStop  offset="0" style="stop-color:#A6694A"/>
	<a:midPointStop  offset="0.5" style="stop-color:#A6694A"/>
	<a:midPointStop  offset="1" style="stop-color:#4F2A1E"/>
</linearGradient>
<circle id="Oval_279_" fill="url(#Oval_2_)" cx="38.66" cy="29.037" r="2.492"/>
<path id="Path_2444_" fill="#1A1626" d="M37.416,28.991c0,1.725,2.492,1.725,2.492,0C39.908,27.391,37.416,27.391,37.416,28.991z"/>
<path id="Path_2443_" fill="#AB968C" d="M37.037,28.293c0,0.723,1.043,0.723,1.043,0C38.08,27.624,37.037,27.624,37.037,28.293z"/>
<path id="Path_2442_" fill="#69452D" d="M34.402,29.182c1.01-3.251,7.904-2.786,8.848-0.585
	C42.9,25.796,35.264,25.057,34.402,29.182z"/>
<linearGradient id="SVGID_1_" gradientUnits="userSpaceOnUse" x1="31.7993" y1="31.8179" x2="31.7993" y2="6.0005">
	<stop  offset="0" style="stop-color:#3B2118"/>
	<stop  offset="0.0953" style="stop-color:#40251C"/>
	<stop  offset="0.6555" style="stop-color:#58392F"/>
	<stop  offset="1" style="stop-color:#614036"/>
	<a:midPointStop  offset="0" style="stop-color:#3B2118"/>
	<a:midPointStop  offset="0.4" style="stop-color:#3B2118"/>
	<a:midPointStop  offset="1" style="stop-color:#614036"/>
</linearGradient>
<path fill="url(#SVGID_1_)" d="M31.965,6C25.266,6,21.92,9.035,21.24,10.474c-8.098,1.852-10.703,15.516-4.641,21.344
	c0.754-6.211,1.479-10.201,5.607-14.404c2.408,3.227,7.41,5.042,11.889,5.042c-2.121-1.541-3.566-3.051-4.701-4.458
	c7.479,3.433,15.855,5.63,17.934,13.821C54.523,20.359,48.547,6,31.965,6z"/>
<path fill="#3B2118" d="M21.221,10.472c-0.078,4.427,2.186,9.995,12.879,11.982C26.449,22.971,18.6,18.349,21.221,10.472z"/>
<path fill="#3B2118" d="M21.715,16.613c-2.787,2.746-5.736,7.938-5.143,15.205c0.553-6.005,3.311-10.949,5.811-14.152
	C22.205,17.473,21.865,16.831,21.715,16.613z"/>
<path fill="#3B2118" d="M26.668,15.235c5.764,5.504,19.174,3.535,20.688,16.583C43.77,20.546,31.611,23.075,26.668,15.235z"/>
</svg>
