<?xml version="1.0" encoding="utf-8"?>
<!-- Generator: Adobe Illustrator 15.0.0, SVG Export Plug-In . SVG Version: 6.00 Build 0)  -->
<!DOCTYPE svg PUBLIC "-//W3C//DTD SVG 1.1//EN" "http://www.w3.org/Graphics/SVG/1.1/DTD/svg11.dtd" [
	<!ENTITY ns_flows "http://ns.adobe.com/Flows/1.0/">
	<!ENTITY ns_extend "http://ns.adobe.com/Extensibility/1.0/">
	<!ENTITY ns_ai "http://ns.adobe.com/AdobeIllustrator/10.0/">
	<!ENTITY ns_graphs "http://ns.adobe.com/Graphs/1.0/">
]>
<svg version="1.1" id="Layer_1" xmlns:x="&ns_extend;" xmlns:i="&ns_ai;" xmlns:graph="&ns_graphs;"
	 xmlns="http://www.w3.org/2000/svg" xmlns:xlink="http://www.w3.org/1999/xlink" xmlns:a="http://ns.adobe.com/AdobeSVGViewerExtensions/3.0/"
	 x="0px" y="0px" width="64px" height="64px" viewBox="0 0 64 64" enable-background="new 0 0 64 64" xml:space="preserve">
<path fill="#E6EBEF" d="M10.253,52.717c2.402-1.289,10.626-4.088,10.626-4.088l18.218-0.035c0,0,8.315,2.826,10.702,4.119
	c3.471,1.873,4.2,4.43,4.2,6.846c0,3.254-48,3.254-48,0C5.999,57.139,6.773,54.582,10.253,52.717z"/>
<path opacity="0.4" fill="#E81C27" d="M16.435,50.201v11.41c0.965,0.063,1.973,0.117,3.015,0.164V49.123
	C18.644,49.406,17.577,49.783,16.435,50.201z"/>
<path opacity="0.4" fill="#E81C27" d="M28.493,48.613v13.381c1.004,0.006,2.01,0.006,3.014,0V48.607L28.493,48.613z"/>
<path opacity="0.4" fill="#E81C27" d="M5.999,59.559c0,0.33,0.502,0.625,1.391,0.889v-5.398C6.305,56.469,5.999,58.041,5.999,59.559
	z"/>
<path opacity="0.4" fill="#E81C27" d="M10.404,52.641v8.4c0.898,0.125,1.911,0.238,3.015,0.34V51.34
	C12.192,51.822,11.103,52.281,10.404,52.641z"/>
<path opacity="0.4" fill="#E81C27" d="M22.464,48.625v13.264c0.988,0.029,1.994,0.053,3.013,0.07v-13.34L22.464,48.625z"/>
<path opacity="0.4" fill="#E81C27" d="M53.999,59.559c0-1.529-0.295-3.113-1.388-4.545v5.434
	C53.499,60.184,53.999,59.889,53.999,59.559z"/>
<path opacity="0.4" fill="#E81C27" d="M46.581,51.311v10.07c1.104-0.102,2.117-0.215,3.016-0.34v-8.432
	C48.891,52.248,47.804,51.791,46.581,51.311z"/>
<path opacity="0.4" fill="#E81C27" d="M34.521,48.602v13.357c1.019-0.018,2.026-0.041,3.015-0.07V48.596L34.521,48.602z"/>
<path opacity="0.4" fill="#E81C27" d="M40.552,49.096v12.68c1.041-0.047,2.05-0.102,3.015-0.164V50.174
	C42.426,49.756,41.36,49.379,40.552,49.096z"/>
<path opacity="0.4" fill="#E81C27" d="M53.42,56.396H6.596c-0.429,0.986-0.58,2.012-0.594,3.016h47.994
	C53.983,58.408,53.84,57.385,53.42,56.396z"/>
<path opacity="0.4" fill="#E81C27" d="M49.799,52.713c-1.104-0.6-3.475-1.523-5.706-2.346H15.984
	c-2.228,0.82-4.611,1.748-5.731,2.35c-0.397,0.213-0.755,0.436-1.084,0.664h41.712C50.553,53.15,50.195,52.926,49.799,52.713z"/>
<path fill="#EF7E8C" d="M20.879,48.629c0,7.668,18.218,7.633,18.218-0.035l-1.639-0.566H22.617L20.879,48.629z"/>
<path fill="#F5BB51" d="M22.319,48.242c0,6.002,15.359,6.002,15.359,0c0-2.043,0-6.641,0-6.641H22.319
	C22.319,41.602,22.319,46.199,22.319,48.242z"/>
<path fill="#006099" d="M45.78,60.615c0.08-2.381,1.238-7.184,1.268-9.125c0.008-0.518-4.176-2.018-4.219-1.572
	c-0.23,2.322,0.184,8.021-0.084,10.697H45.78z"/>
<path fill="#006099" d="M17.253,60.615c-0.27-2.676,0.146-8.375-0.084-10.697c-0.045-0.445-4.227,1.055-4.219,1.572
	c0.029,1.941,1.188,6.744,1.268,9.125H17.253z"/>
<path fill="#006DAE" d="M13.649,58.857c-0.352,0.391-0.559,1.684-0.656,2.484C17.544,61.779,23.77,62,29.999,62
	s12.455-0.221,17.006-0.658c-0.098-0.801-0.305-2.096-0.656-2.486C45.604,58.031,14.394,58.033,13.649,58.857z"/>
<linearGradient id="SVGID_1_" gradientUnits="userSpaceOnUse" x1="29.9028" y1="39.7578" x2="29.9028" y2="13.0479">
	<stop  offset="0" style="stop-color:#6E4900"/>
	<stop  offset="0.2089" style="stop-color:#825805"/>
	<stop  offset="0.6353" style="stop-color:#B77F11"/>
	<stop  offset="1" style="stop-color:#E8A31C"/>
	<a:midPointStop  offset="0" style="stop-color:#6E4900"/>
	<a:midPointStop  offset="0.5455" style="stop-color:#6E4900"/>
	<a:midPointStop  offset="1" style="stop-color:#E8A31C"/>
</linearGradient>
<path fill="url(#SVGID_1_)" d="M59.2,25.303c-1.08,2.176-2.23,4.033-3.648,5.598l-1.756-0.387l0.531,1.604
	c-4.338,3.863-11.109,7.557-24.416,7.557c-20.322,0-26.559-7.813-29.291-14.371C-1.853,19.373,61.392,20.891,59.2,25.303z"/>
<path fill="#473834" d="M45.021,38.787c1.08,0.713,2.326,1.247,3.781,1.52c-2.582-5.889,1.312-18.237-6.669-27.311
	c-11.25,0.338-12.806,36.722,2.876,31.883c-0.998-0.433-1.624-1.315-1.991-2.43c1.209,0.347,2.621,0.358,4.268-0.148
	C45.976,41.734,45.309,40.4,45.021,38.787z"/>
<path fill="#473834" d="M16.782,12.996c-7.979,9.073-3.327,21.422-5.91,27.311c1.454-0.272,2.701-0.807,3.781-1.52
	c-0.287,1.613-0.955,2.947-2.264,3.514c1.645,0.507,3.057,0.495,4.266,0.148c-0.367,1.114-0.991,1.997-1.99,2.43
	C30.346,49.718,28.032,13.334,16.782,12.996z"/>
<path id="Path_3354_" fill="#FFC940" d="M46.249,25.393c-2.541,0.309-4.375,8.816-2.778,11.063c0.225,0.313,1.534,0.813,2.505-1.168
	c0.537-1.098,2.089-2.014,2.568-4.277C49.16,28.109,48.777,25.086,46.249,25.393z"/>
<path id="Path_3353_" fill="#FFC940" d="M13.427,25.393c2.541,0.309,4.375,8.816,2.776,11.063c-0.224,0.313-1.533,0.813-2.504-1.168
	c-0.538-1.098-2.089-2.014-2.569-4.277C10.514,28.109,10.899,25.086,13.427,25.393z"/>
<path id="Path_3352_" fill="#F0A429" d="M46.18,27.023c-0.662,0.209-1.386,1.22-1.778,2.896c2.317-0.498,1.738,3.362-0.275,3.436
	c0.018,0.388,0.045,0.787,0.092,1.209c0.971-1.411,1.956-0.846,2.933-2.941C48.03,29.732,47.821,26.508,46.18,27.023z"/>
<path id="Path_3351_" fill="#F0A429" d="M15.272,29.916c-0.393-1.674-1.114-2.685-1.776-2.893c-1.642-0.516-1.852,2.709-0.972,4.6
	c0.977,2.096,1.962,1.53,2.934,2.941c0.048-0.423,0.074-0.822,0.091-1.211C13.556,33.258,12.985,29.446,15.272,29.916z"/>
<path fill="#FFC940" d="M29.837,9.035c-11.008,0-16.311,8.965-15.648,20.492c0.136,2.318,0.78,5.662,1.576,8.525
	c1.65,5.953,10.362,11.948,14.072,11.948c3.709,0,12.421-5.995,14.073-11.948c0.795-2.863,1.439-6.207,1.576-8.525
	C46.147,18,40.848,9.035,29.837,9.035z"/>
<path id="Path_3350_" fill="#966F42" d="M41.797,24.543c-2.518-1.333-7.336-1.398-9.13-0.469c-0.385,0.18-0.13,1.443,0.192,1.322
	c2.501-0.989,6.536-1.012,8.877,0.085C42.049,25.623,42.179,24.729,41.797,24.543z"/>
<path id="Path_3349_" fill="#966F42" d="M17.878,24.543c2.517-1.333,7.332-1.398,9.129-0.469c0.384,0.18,0.131,1.443-0.192,1.322
	c-2.505-0.989-6.534-1.012-8.878,0.085C17.626,25.623,17.497,24.729,17.878,24.543z"/>
<path id="Path_3348_" fill="#F0A429" d="M32.808,36.109c-0.313-0.219-1.052,0.118-2.971,0.118c-1.917,0-2.655-0.337-2.971-0.118
	c-0.376,0.266,0.224,1.463,2.971,1.463C32.586,37.572,33.186,36.375,32.808,36.109z"/>
<path id="Path_3347_" fill="#F0A429" d="M29.837,40.646c-2.476-0.729-6.144,0.345-6.144,0.345c1.396,1.522,2.421,3.497,6.144,3.497
	c4.266,0,4.992-2.242,6.146-3.497C35.983,40.991,32.312,39.914,29.837,40.646z"/>
<path id="Path_3346_" fill="#FFFFFF" d="M24.614,41.249c2.596,2.178,7.837,2.192,10.447,0C32.295,41.367,27.4,41.369,24.614,41.249z
	"/>
<path id="Path_3345_" fill="#FFFFFF" d="M27.388,29.086c0.094,0.729-0.401,1.594-1.771,2.24c-0.869,0.412-2.679,0.896-5.057-0.106
	c-1.065-0.448-2.104-1.849-2.011-2.622C19.839,26.168,26.182,25.813,27.388,29.086z"/>
<linearGradient id="Oval_1_" gradientUnits="userSpaceOnUse" x1="-424.9092" y1="477.4658" x2="-424.9092" y2="478.2246" gradientTransform="matrix(6.5701 0 0 -6.5701 2814.7805 3168.5281)">
	<stop  offset="0" style="stop-color:#A6694A"/>
	<stop  offset="1" style="stop-color:#4F2A1E"/>
	<a:midPointStop  offset="0" style="stop-color:#A6694A"/>
	<a:midPointStop  offset="0.5" style="stop-color:#A6694A"/>
	<a:midPointStop  offset="1" style="stop-color:#4F2A1E"/>
</linearGradient>
<circle id="Oval_384_" fill="url(#Oval_1_)" cx="23.084" cy="29.037" r="2.492"/>
<path id="Path_3344_" fill="#1A1626" d="M21.839,28.991c0,1.726,2.492,1.726,2.492,0C24.331,27.391,21.839,27.391,21.839,28.991z"/>
<path id="Path_3343_" fill="#AB968C" d="M21.46,28.293c0,0.724,1.045,0.724,1.045,0C22.505,27.624,21.46,27.624,21.46,28.293z"/>
<path id="Path_3342_" fill="#F0A429" d="M27.4,29.183c-1.013-3.253-7.911-2.772-8.851-0.585
	C18.898,25.797,26.537,25.058,27.4,29.183z"/>
<path id="Path_3341_" fill="#FFFFFF" d="M32.286,29.086c-0.093,0.729,0.401,1.594,1.771,2.24c0.87,0.412,2.679,0.896,5.057-0.106
	c1.067-0.448,2.104-1.849,2.011-2.622C39.837,26.168,33.492,25.813,32.286,29.086z"/>
<linearGradient id="Oval_2_" gradientUnits="userSpaceOnUse" x1="-425.561" y1="477.4658" x2="-425.561" y2="478.2246" gradientTransform="matrix(6.5701 0 0 -6.5701 2832.511 3168.5281)">
	<stop  offset="0" style="stop-color:#A6694A"/>
	<stop  offset="1" style="stop-color:#4F2A1E"/>
	<a:midPointStop  offset="0" style="stop-color:#A6694A"/>
	<a:midPointStop  offset="0.5" style="stop-color:#A6694A"/>
	<a:midPointStop  offset="1" style="stop-color:#4F2A1E"/>
</linearGradient>
<circle id="Oval_383_" fill="url(#Oval_2_)" cx="36.534" cy="29.037" r="2.492"/>
<path id="Path_3340_" fill="#1A1626" d="M35.29,28.991c0,1.726,2.491,1.726,2.491,0C37.781,27.391,35.29,27.391,35.29,28.991z"/>
<path id="Path_3339_" fill="#AB968C" d="M34.91,28.293c0,0.724,1.045,0.724,1.045,0C35.955,27.624,34.91,27.624,34.91,28.293z"/>
<path id="Path_3338_" fill="#F0A429" d="M32.276,29.183c1.01-3.251,7.904-2.786,8.848-0.585
	C40.774,25.797,33.137,25.058,32.276,29.183z"/>
<linearGradient id="SVGID_2_" gradientUnits="userSpaceOnUse" x1="29.6743" y1="31.8184" x2="29.6743" y2="6.001">
	<stop  offset="0" style="stop-color:#473834"/>
	<stop  offset="0.2717" style="stop-color:#594640"/>
	<stop  offset="0.7226" style="stop-color:#715950"/>
	<stop  offset="1" style="stop-color:#7A6056"/>
	<a:midPointStop  offset="0" style="stop-color:#473834"/>
	<a:midPointStop  offset="0.4" style="stop-color:#473834"/>
	<a:midPointStop  offset="1" style="stop-color:#7A6056"/>
</linearGradient>
<path fill="url(#SVGID_2_)" d="M29.839,6.001c-6.698,0-10.046,3.034-10.725,4.474c-8.099,1.852-10.701,15.516-4.64,21.344
	c0.752-6.211,1.477-10.201,5.606-14.404c2.407,3.227,7.409,5.042,11.889,5.042c-2.121-1.541-3.566-3.051-4.702-4.458
	c7.479,3.433,15.855,5.63,17.935,13.82C52.399,20.359,46.421,6.001,29.839,6.001z"/>
<path fill="#473834" d="M19.096,10.473c-0.08,4.428,2.185,9.995,12.88,11.982C24.324,22.972,16.475,18.35,19.096,10.473z"/>
<path fill="#473834" d="M19.59,16.613c-2.787,2.746-5.736,7.939-5.144,15.205c0.554-6.005,3.313-10.949,5.811-14.152
	C20.081,17.473,19.739,16.832,19.59,16.613z"/>
<path fill="#473834" d="M24.543,15.236c5.765,5.504,19.175,3.534,20.688,16.582C41.643,20.547,29.484,23.075,24.543,15.236z"/>
<radialGradient id="SVGID_3_" cx="-74.75" cy="10.2578" r="13.364" gradientTransform="matrix(1.0588 0 0 1 109.3229 0)" gradientUnits="userSpaceOnUse">
	<stop  offset="0" style="stop-color:#FABD49"/>
	<stop  offset="0.3036" style="stop-color:#F9BB45"/>
	<stop  offset="0.5955" style="stop-color:#F5B53A"/>
	<stop  offset="0.8818" style="stop-color:#EEAA26"/>
	<stop  offset="1" style="stop-color:#EBA51C"/>
	<a:midPointStop  offset="0" style="stop-color:#FABD49"/>
	<a:midPointStop  offset="0.7152" style="stop-color:#FABD49"/>
	<a:midPointStop  offset="1" style="stop-color:#EBA51C"/>
</radialGradient>
<path fill="url(#SVGID_3_)" d="M38.723,5.291C36.984,3.859,35.293,2,30.175,2c-5.116,0-6.812,1.859-8.548,3.291
	c-3.188,2.623-9.452,3.99-9.452,13.225h36C48.175,9.281,41.91,7.914,38.723,5.291z"/>
<linearGradient id="SVGID_4_" gradientUnits="userSpaceOnUse" x1="30" y1="39.7588" x2="30" y2="13.0481">
	<stop  offset="0" style="stop-color:#6E4900"/>
	<stop  offset="0.2089" style="stop-color:#825805"/>
	<stop  offset="0.6353" style="stop-color:#B77F11"/>
	<stop  offset="1" style="stop-color:#E8A31C"/>
	<a:midPointStop  offset="0" style="stop-color:#6E4900"/>
	<a:midPointStop  offset="0.5455" style="stop-color:#6E4900"/>
	<a:midPointStop  offset="1" style="stop-color:#E8A31C"/>
</linearGradient>
<path fill="url(#SVGID_4_)" d="M59.2,25.303c-4.34,8.742-9.814-4.773-29.289-4.773c-16.605,0-26.559,11.332-29.291,4.773
	c-1.826-4.379,0.594-6.256,4.455-7.289l2.066,1.42l0.268-1.93c0.246-0.045,0.494-0.088,0.744-0.127l1.029,1.02l0.406-1.238
	c11.639-1.662,12.424-4.225,20.322-4.225c8.34,0,10.371,3.223,21.201,3.836l0.715,1.828l2.338-1.455
	C59.728,18.268,61.085,21.508,59.2,25.303z"/>
<linearGradient id="SVGID_5_" gradientUnits="userSpaceOnUse" x1="44.9922" y1="190.6846" x2="44.9922" y2="213.1867" gradientTransform="matrix(0.9962 0.0871 -0.0871 0.9962 27.1538 -159.9161)">
	<stop  offset="0" style="stop-color:#9EABB0"/>
	<stop  offset="0.4714" style="stop-color:#8A999F"/>
	<stop  offset="1" style="stop-color:#6E8189"/>
	<a:midPointStop  offset="0" style="stop-color:#9EABB0"/>
	<a:midPointStop  offset="0.5455" style="stop-color:#9EABB0"/>
	<a:midPointStop  offset="1" style="stop-color:#6E8189"/>
</linearGradient>
<path fill="url(#SVGID_5_)" d="M53.542,54.814c-4.439-0.389-8.67-3.799-8.166-9.566l0.754-8.598
	c0.078-0.898,1.943-3.479,1.943-3.479s1.391,2.865,1.313,3.764l-0.752,8.6c-0.334,3.816,2.369,5.775,5.191,6.021
	c2.826,0.246,5.824-1.213,6.16-5.029l0.752-8.598c0.078-0.9,1.945-3.479,1.945-3.479s1.393,2.863,1.314,3.764l-0.754,8.598
	C62.739,52.58,57.979,55.201,53.542,54.814z"/>
<path fill="#774212" d="M54.667,59.809c-1.309,0.584-3.205,0.922-3.205,0.922l0.695-7.949l3.1,0.271L54.667,59.809z"/>
<linearGradient id="SVGID_6_" gradientUnits="userSpaceOnUse" x1="44.9922" y1="190.6787" x2="44.9922" y2="211.9737" gradientTransform="matrix(0.9962 0.0871 -0.0871 0.9962 27.1538 -159.9161)">
	<stop  offset="0" style="stop-color:#9EABB0"/>
	<stop  offset="0.4714" style="stop-color:#8A999F"/>
	<stop  offset="1" style="stop-color:#6E8189"/>
	<a:midPointStop  offset="0" style="stop-color:#9EABB0"/>
	<a:midPointStop  offset="0.5455" style="stop-color:#9EABB0"/>
	<a:midPointStop  offset="1" style="stop-color:#6E8189"/>
</linearGradient>
<path fill="url(#SVGID_6_)" d="M56.692,37.574c0.078-0.898-1.314-3.762-1.314-3.762s-1.867,2.578-1.945,3.477l-1.566,17.924
	l3.256,0.283L56.692,37.574z"/>
</svg>
