<?xml version="1.0" encoding="utf-8"?>
<!-- Generator: Adobe Illustrator 15.0.0, SVG Export Plug-In . SVG Version: 6.00 Build 0)  -->
<!DOCTYPE svg PUBLIC "-//W3C//DTD SVG 1.1//EN" "http://www.w3.org/Graphics/SVG/1.1/DTD/svg11.dtd" [
	<!ENTITY ns_flows "http://ns.adobe.com/Flows/1.0/">
	<!ENTITY ns_extend "http://ns.adobe.com/Extensibility/1.0/">
	<!ENTITY ns_ai "http://ns.adobe.com/AdobeIllustrator/10.0/">
	<!ENTITY ns_graphs "http://ns.adobe.com/Graphs/1.0/">
]>
<svg version="1.1" id="Layer_1" xmlns:x="&ns_extend;" xmlns:i="&ns_ai;" xmlns:graph="&ns_graphs;"
	 xmlns="http://www.w3.org/2000/svg" xmlns:xlink="http://www.w3.org/1999/xlink" xmlns:a="http://ns.adobe.com/AdobeSVGViewerExtensions/3.0/"
	 x="0px" y="0px" width="64px" height="64px" viewBox="0 0 64 64" enable-background="new 0 0 64 64" xml:space="preserve">
<path fill="#302C3B" d="M7.432,52.717c2.502-1.287,12.235-4.707,12.235-4.707l16.666-0.029c0,0,9.806,3.441,12.292,4.734
	C52.24,54.586,53,57.143,53,59.559c0,3.254-50,3.254-50,0C3,57.139,3.807,54.582,7.432,52.717z"/>
<polygon fill="#855E45" points="19.667,49.947 28,54.779 36.333,49.947 36.333,41.912 19.667,41.912 "/>
<path fill="#1A1626" d="M40.147,57.369c-0.203-0.01-0.456,1.586-0.705,4.387l0.962-0.046C40.44,58.929,40.352,57.381,40.147,57.369"
	/>
<path fill="#1A1626" d="M12.456,55.703c-0.289,0.018-0.42,2.075-0.355,5.79l1.315,0.091C13.103,57.84,12.753,55.688,12.456,55.703"
	/>
<path fill="#1A1626" d="M36.832,61.859c-0.037-1.811-0.168-2.826-0.383-2.84c-0.217-0.014-0.46,1.04-0.685,2.872L36.832,61.859z"/>
<path fill="#1A1626" d="M43.542,55.703c-0.295-0.016-0.646,2.138-0.96,5.882l1.317-0.092C43.964,57.778,43.833,55.721,43.542,55.703
	"/>
<path fill="#1A1626" d="M15.851,57.369c-0.202,0.012-0.293,1.56-0.255,4.341l0.962,0.046C16.309,58.955,16.057,57.359,15.851,57.369
	"/>
<path fill="#1A1626" d="M19.551,59.02c-0.215,0.014-0.346,1.029-0.383,2.84l1.067,0.032C20.01,60.06,19.768,59.006,19.551,59.02"/>
<path fill="#1A1626" d="M28,62c-7.12,0-8.466-11.402-8.518-11.889l1.126-0.152C20.621,50.066,21.886,60.74,28,60.74
	c6.116,0,7.379-10.674,7.39-10.781l1.128,0.152C36.464,50.598,35.118,62,28,62"/>
<path fill="#E6EBEF" d="M28,51.664h-5.683c0,0,1.031,7.557,5.683,7.557s5.681-7.557,5.681-7.557H28z"/>
<path fill="#B3C2C6" d="M23.869,56.35c0,0,1.624-4.686,4.156-4.686c2.53,0,4.105,4.686,4.105,4.686s1.55-2.797,1.55-4.686H22.317
	C22.317,51.664,22.472,53.766,23.869,56.35"/>
<path fill="#D61924" d="M26.204,56.391c-0.206,0.594-0.395,1.295-0.566,2.059c1.564,1.115,3.138,1.131,4.723,0.002
	c-0.172-0.764-0.36-1.465-0.566-2.061C29.312,55,26.688,55,26.204,56.391z"/>
<path fill="#E81C27" d="M29.642,56.391c-0.37,0.506-2.958,0.559-3.285,0c-0.778-1.322-2.055-3.945-2.055-3.945
	s0.756-0.781,3.696-0.781c2.944,0,3.698,0.781,3.698,0.781S30.535,55.18,29.642,56.391z"/>
<path fill="#FFFFFF" d="M36.333,46.41C35.601,50.635,28,51.664,28,51.664c2.653,0.861,6.617,6.518,6.617,6.518
	C38.277,52.213,36.333,46.41,36.333,46.41z"/>
<path fill="#FFFFFF" d="M19.667,46.41C20.401,50.635,28,51.664,28,51.664c-2.651,0.861-6.615,6.518-6.615,6.518
	C17.725,52.213,19.667,46.41,19.667,46.41z"/>
<path fill="#3B2118" d="M43.148,38.785c1.08,0.714,2.326,1.248,3.781,1.52c-2.582-5.888,1.313-18.236-6.668-27.311
	c-11.25,0.338-12.807,36.723,2.875,31.883c-0.998-0.432-1.623-1.314-1.99-2.43c1.209,0.348,2.621,0.359,4.266-0.148
	C44.104,41.733,43.436,40.398,43.148,38.785z"/>
<path fill="#3B2118" d="M14.91,12.994C6.93,22.068,11.582,34.417,9,40.305c1.453-0.271,2.701-0.806,3.781-1.52
	c-0.287,1.613-0.955,2.948-2.264,3.514c1.645,0.508,3.057,0.496,4.266,0.148c-0.367,1.115-0.992,1.998-1.99,2.43
	C28.473,49.717,26.16,13.332,14.91,12.994z"/>
<path id="Path_808_" fill="#916B50" d="M44.377,25.392c-2.541,0.308-4.375,8.815-2.777,11.062c0.223,0.314,1.533,0.813,2.504-1.168
	c0.537-1.098,2.088-2.013,2.568-4.277C47.289,28.108,46.904,25.085,44.377,25.392z"/>
<path id="Path_807_" fill="#916B50" d="M11.555,25.392c2.541,0.308,4.375,8.815,2.777,11.062c-0.225,0.314-1.535,0.813-2.504-1.168
	c-0.539-1.098-2.09-2.013-2.57-4.277C8.643,28.108,9.027,25.085,11.555,25.392z"/>
<path id="Path_806_" fill="#69452D" d="M44.309,27.022c-0.664,0.209-1.387,1.22-1.779,2.896c2.318-0.498,1.738,3.362-0.275,3.435
	c0.018,0.389,0.045,0.788,0.092,1.209c0.971-1.41,1.955-0.845,2.932-2.94C46.158,29.731,45.949,26.507,44.309,27.022z"/>
<path id="Path_805_" fill="#69452D" d="M13.4,29.915c-0.393-1.675-1.113-2.685-1.775-2.893c-1.643-0.516-1.854,2.709-0.973,4.6
	c0.977,2.096,1.961,1.53,2.934,2.94c0.047-0.422,0.074-0.822,0.09-1.21C11.684,33.257,11.113,29.445,13.4,29.915z"/>
<path fill="#916B50" d="M27.965,9.034c-11.008,0-16.311,8.965-15.648,20.492c0.137,2.317,0.781,5.661,1.576,8.525
	C15.543,44.005,24.256,50,27.965,50s12.422-5.995,14.072-11.948c0.797-2.864,1.441-6.208,1.576-8.525
	C44.275,17.999,38.975,9.034,27.965,9.034z"/>
<path id="Path_804_" fill="#5E4431" d="M39.926,24.542c-2.518-1.333-7.336-1.398-9.131-0.47c-0.385,0.18-0.131,1.443,0.193,1.323
	c2.5-0.989,6.535-1.012,8.875,0.085C40.178,25.622,40.307,24.728,39.926,24.542z"/>
<path id="Path_803_" fill="#5E4431" d="M16.006,24.542c2.518-1.333,7.332-1.398,9.129-0.47c0.385,0.18,0.131,1.443-0.191,1.323
	c-2.506-0.989-6.535-1.012-8.879,0.085C15.754,25.622,15.625,24.728,16.006,24.542z"/>
<path id="Path_802_" fill="#69452D" d="M30.936,36.107c-0.314-0.219-1.051,0.119-2.971,0.119c-1.916,0-2.654-0.338-2.971-0.119
	c-0.375,0.266,0.225,1.463,2.971,1.463C30.713,37.57,31.314,36.373,30.936,36.107z"/>
<path id="Path_801_" fill="#69452D" d="M27.965,40.645c-2.475-0.728-6.145,0.346-6.145,0.346c1.398,1.522,2.422,3.496,6.145,3.496
	c4.266,0,4.992-2.242,6.146-3.496C34.111,40.99,30.439,39.912,27.965,40.645z"/>
<path id="Path_800_" fill="#FFFFFF" d="M22.742,41.248c2.596,2.178,7.836,2.192,10.447,0C30.424,41.366,25.527,41.367,22.742,41.248
	z"/>
<path id="Path_799_" fill="#FFFFFF" d="M25.516,29.085c0.094,0.729-0.4,1.593-1.77,2.24c-0.871,0.412-2.68,0.896-5.057-0.106
	c-1.066-0.449-2.105-1.85-2.012-2.623C17.967,26.166,24.311,25.811,25.516,29.085z"/>
<linearGradient id="Oval_1_" gradientUnits="userSpaceOnUse" x1="-425.1938" y1="477.4658" x2="-425.1938" y2="478.2246" gradientTransform="matrix(6.5701 0 0 -6.5701 2814.7805 3168.5281)">
	<stop  offset="0" style="stop-color:#A6694A"/>
	<stop  offset="1" style="stop-color:#4F2A1E"/>
	<a:midPointStop  offset="0" style="stop-color:#A6694A"/>
	<a:midPointStop  offset="0.5" style="stop-color:#A6694A"/>
	<a:midPointStop  offset="1" style="stop-color:#4F2A1E"/>
</linearGradient>
<circle id="Oval_92_" fill="url(#Oval_1_)" cx="21.213" cy="29.036" r="2.492"/>
<path id="Path_798_" fill="#1A1626" d="M19.967,28.99c0,1.725,2.492,1.725,2.492,0C22.459,27.39,19.967,27.39,19.967,28.99z"/>
<path id="Path_797_" fill="#AB968C" d="M19.588,28.292c0,0.724,1.045,0.724,1.045,0C20.633,27.623,19.588,27.623,19.588,28.292z"/>
<path id="Path_796_" fill="#69452D" d="M25.527,29.182c-1.012-3.253-7.91-2.772-8.85-0.586
	C17.025,25.796,24.666,25.057,25.527,29.182z"/>
<path id="Path_795_" fill="#FFFFFF" d="M30.414,29.085c-0.094,0.729,0.402,1.593,1.771,2.24c0.869,0.412,2.678,0.896,5.057-0.106
	c1.066-0.449,2.104-1.85,2.01-2.623C37.965,26.166,31.621,25.811,30.414,29.085z"/>
<linearGradient id="Oval_2_" gradientUnits="userSpaceOnUse" x1="-425.8457" y1="477.4658" x2="-425.8457" y2="478.2246" gradientTransform="matrix(6.5701 0 0 -6.5701 2832.511 3168.5281)">
	<stop  offset="0" style="stop-color:#A6694A"/>
	<stop  offset="1" style="stop-color:#4F2A1E"/>
	<a:midPointStop  offset="0" style="stop-color:#A6694A"/>
	<a:midPointStop  offset="0.5" style="stop-color:#A6694A"/>
	<a:midPointStop  offset="1" style="stop-color:#4F2A1E"/>
</linearGradient>
<circle id="Oval_91_" fill="url(#Oval_2_)" cx="34.662" cy="29.036" r="2.492"/>
<path id="Path_794_" fill="#1A1626" d="M33.418,28.99c0,1.725,2.492,1.725,2.492,0C35.91,27.39,33.418,27.39,33.418,28.99z"/>
<path id="Path_793_" fill="#AB968C" d="M33.039,28.292c0,0.724,1.043,0.724,1.043,0C34.082,27.623,33.039,27.623,33.039,28.292z"/>
<path id="Path_792_" fill="#69452D" d="M30.404,29.182c1.01-3.251,7.904-2.786,8.848-0.586
	C38.902,25.796,31.266,25.057,30.404,29.182z"/>
<linearGradient id="SVGID_1_" gradientUnits="userSpaceOnUse" x1="27.8013" y1="31.8174" x2="27.8013" y2="6">
	<stop  offset="0" style="stop-color:#3B2118"/>
	<stop  offset="0.0953" style="stop-color:#40251C"/>
	<stop  offset="0.6555" style="stop-color:#58392F"/>
	<stop  offset="1" style="stop-color:#614036"/>
	<a:midPointStop  offset="0" style="stop-color:#3B2118"/>
	<a:midPointStop  offset="0.4" style="stop-color:#3B2118"/>
	<a:midPointStop  offset="1" style="stop-color:#614036"/>
</linearGradient>
<path fill="url(#SVGID_1_)" d="M27.967,6c-6.699,0-10.045,3.034-10.725,4.473c-8.098,1.853-10.703,15.516-4.641,21.345
	c0.754-6.211,1.479-10.201,5.607-14.404c2.408,3.227,7.41,5.042,11.889,5.042c-2.121-1.541-3.566-3.051-4.701-4.459
	c7.479,3.434,15.855,5.631,17.934,13.821C50.525,20.358,44.549,6,27.967,6z"/>
<path fill="#3B2118" d="M17.223,10.472c-0.078,4.427,2.186,9.995,12.879,11.981C22.451,22.971,14.602,18.348,17.223,10.472z"/>
<path fill="#3B2118" d="M17.717,16.612c-2.787,2.746-5.736,7.938-5.143,15.205c0.553-6.005,3.311-10.949,5.811-14.152
	C18.207,17.472,17.867,16.83,17.717,16.612z"/>
<path fill="#3B2118" d="M22.67,15.234c5.764,5.504,19.174,3.535,20.688,16.583C39.771,20.545,27.613,23.074,22.67,15.234z"/>
<polygon fill="#9E6C49" points="48.734,60.994 51.111,52.65 49.641,52.268 46.16,61.299 "/>
<path fill="#9E6C49" d="M59.238,43.285l-1.473-0.381l-0.215,0.772c-1.152,0.764-2.254,2.457-2.836,4.576
	c-0.586,2.127-0.5,4.131,0.104,5.352l-0.213,0.773l1.475,0.385c1.627,0.424,3.648-1.799,4.521-4.969
	C61.477,46.627,60.863,43.711,59.238,43.285"/>
<path fill="#B47D56" d="M59.131,49.41c-0.871,3.17-2.896,5.395-4.523,4.969c-1.625-0.424-2.236-3.336-1.363-6.506
	c0.869-3.168,2.895-5.394,4.521-4.969C59.391,43.328,60.004,46.238,59.131,49.41"/>
<polygon fill="#9E6C49" points="54.805,53.662 44.498,50.973 47.26,40.932 57.568,43.623 "/>
<path fill="#785647" d="M47.244,40.986l-2.732,9.931c0.014,0.021,0.023,0.047,0.033,0.067l2.85,0.744
	c1.176-0.742,2.309-2.463,2.902-4.623c0.594-2.162,0.498-4.203-0.141-5.418l-2.85-0.748C47.285,40.957,47.266,40.975,47.244,40.986"
	/>
<path fill="#9E6C49" d="M48.193,40.402l-1.475-0.379l-0.211,0.773c-1.152,0.762-2.254,2.457-2.84,4.576
	c-0.582,2.125-0.498,4.129,0.107,5.35l-0.213,0.773l1.475,0.385c1.627,0.424,3.648-1.799,4.521-4.969
	C50.432,43.744,49.82,40.828,48.193,40.402"/>
<path fill="#B47D56" d="M48.088,46.527c-0.873,3.17-2.896,5.396-4.523,4.969c-1.627-0.424-2.238-3.336-1.367-6.504
	c0.871-3.17,2.896-5.396,4.523-4.969C48.348,40.447,48.957,43.357,48.088,46.527"/>
<path fill="#9E6C49" d="M58.395,49.219c-0.762,2.773-2.369,4.762-3.59,4.443c-1.219-0.318-1.59-2.824-0.828-5.597
	c0.766-2.772,2.371-4.764,3.592-4.442C58.787,43.939,59.158,46.445,58.395,49.219"/>
<path fill="#785647" d="M51.861,52.895L51.861,52.895c-0.109,0.393-0.529,0.629-0.936,0.523l-1.471-0.383
	c-0.406-0.105-0.648-0.517-0.539-0.91L51.861,52.895z"/>
</svg>
