<?xml version="1.0" encoding="utf-8"?>
<!-- Generator: Adobe Illustrator 24.1.2, SVG Export Plug-In . SVG Version: 6.00 Build 0)  -->
<svg version="1.1" id="Layer_1" xmlns="http://www.w3.org/2000/svg" xmlns:xlink="http://www.w3.org/1999/xlink" x="0px" y="0px"
	 width="64px" height="64px" viewBox="0 0 64 64" style="enable-background:new 0 0 64 64;" xml:space="preserve">
<style type="text/css">
	.st0{fill:url(#SVGID_1_);}
	.st1{fill:url(#SVGID_2_);}
	.st2{fill:url(#SVGID_3_);}
	.st3{fill:url(#SVGID_4_);}
	.st4{fill:#C4B5AB;}
	.st5{fill:url(#SVGID_5_);}
	.st6{fill:url(#SVGID_6_);}
	.st7{fill:url(#SVGID_7_);}
	.st8{opacity:0.2;fill:#1A1626;}
</style>
<linearGradient id="SVGID_1_" gradientUnits="userSpaceOnUse" x1="778.2374" y1="-130.6142" x2="799.7512" y2="-130.6142" gradientTransform="matrix(-0.866 -0.5 -0.5 0.866 639.9992 541.2288)">
	<stop  offset="0.2182" style="stop-color:#CF0000"/>
	<stop  offset="0.5143" style="stop-color:#E90007"/>
	<stop  offset="0.7904" style="stop-color:#F9000C"/>
	<stop  offset="1" style="stop-color:#FF000E"/>
</linearGradient>
<path class="st0" d="M43.84,17.36L20.71,56.75C17.87,61.59-0.55,51.13,2.3,46.3L25.42,6.91L43.84,17.36z"/>
<linearGradient id="SVGID_2_" gradientUnits="userSpaceOnUse" x1="-288.1984" y1="-40.3986" x2="-267.0187" y2="-40.3986" gradientTransform="matrix(0.866 0.5 -0.5 0.866 254.8435 185.9263)">
	<stop  offset="0.2182" style="stop-color:#CF0000"/>
	<stop  offset="0.5143" style="stop-color:#E90007"/>
	<stop  offset="0.7904" style="stop-color:#F9000C"/>
	<stop  offset="1" style="stop-color:#FF000E"/>
</linearGradient>
<path class="st1" d="M25.42,6.91c-2.37,4.03,16.05,14.49,18.42,10.45C46.21,13.33,27.79,2.88,25.42,6.91z"/>
<linearGradient id="SVGID_3_" gradientUnits="userSpaceOnUse" x1="-284.123" y1="-41.4243" x2="-271.0978" y2="-41.4243" gradientTransform="matrix(0.866 0.5 -0.5 0.866 254.8435 185.9263)">
	<stop  offset="0" style="stop-color:#7D000E"/>
	<stop  offset="0.15" style="stop-color:#83000D"/>
	<stop  offset="0.3476" style="stop-color:#93000A"/>
	<stop  offset="0.5708" style="stop-color:#AF0006"/>
	<stop  offset="0.7818" style="stop-color:#CF0000"/>
</linearGradient>
<path class="st2" d="M29.13,8.66C29.05,8.75,29.04,8.88,29.03,9l10.96,6.44c0.2-0.07,0.37-0.18,0.45-0.35
	c0.23-0.48-0.25-0.66-0.32-1.04c-0.05-0.26-0.19-0.52-0.33-0.8c-0.25-0.48-0.91-0.87-1.31-1.34c-0.18-0.21-0.54-0.22-0.74-0.43
	c-0.89-0.9-2.84-1.38-3.17-1.67c-0.06-0.05-0.39-0.39-0.47-0.45c-0.58-0.46-1.13-0.25-1.67-0.5c-0.1-0.04-0.51-0.45-0.61-0.51
	c-0.56-0.29-1.22,0.13-1.6,0.06C29.69,8.32,29.38,8.38,29.13,8.66z"/>
<linearGradient id="SVGID_4_" gradientUnits="userSpaceOnUse" x1="28.9926" y1="12.2031" x2="39.9992" y2="12.2031">
	<stop  offset="0" style="stop-color:#96460A"/>
	<stop  offset="0.1479" style="stop-color:#AF5F23"/>
	<stop  offset="0.3926" style="stop-color:#D18245"/>
	<stop  offset="0.6233" style="stop-color:#EB9B5F"/>
	<stop  offset="0.8322" style="stop-color:#FAAB6E"/>
	<stop  offset="1" style="stop-color:#FFB073"/>
</linearGradient>
<path class="st3" d="M29.03,9c-0.02,0.29-0.14,0.75,0.15,1.06c0.12,0.13,0.41,0.22,0.55,0.38c0.35,0.41,1.06,0.5,1.67,0.86
	c0.16,0.1-0.05,0.67,0.14,0.77c0.99,0.48,2.14,1.6,3.72,2.23c0.18,0.07,0.31,0.49,0.57,0.54c1.03,0.22,1.47,0.06,2.52,0.19
	c0.32,0.04,0.66,0.58,0.96,0.52c0.25-0.05,0.43-0.01,0.67-0.1c0.07-0.41-0.44-0.43-0.53-0.78c-0.08-0.3-0.2-0.61-0.4-0.93
	c-0.11-0.18-0.78-0.03-0.9-0.23c-0.22-0.36-0.68-0.53-1.01-0.82c-1.64-1.47-2.08-1.42-2.76-1.99c-0.37-0.31-1.18-0.05-1.52-0.31
	c-0.26-0.2-0.58-0.77-0.83-0.95c-0.29-0.2-0.82,0.34-1.06,0.22c-0.36-0.19-0.73-0.64-0.98-0.72C29.63,8.8,29.28,8.91,29.03,9z"/>
<path class="st4" d="M34.6,13.98c12.47-12.96,19.24,1.74,15.12,10.01c-0.47,0.94,1.39,0.86,1.65,0.41
	c5.93-10.18-4.81-27.13-18.63-11.6C32.75,12.81,33.67,13.56,34.6,13.98z"/>
<linearGradient id="SVGID_5_" gradientUnits="userSpaceOnUse" x1="334.2585" y1="822.5705" x2="334.2585" y2="801.9814" gradientTransform="matrix(0 -1 1 0 -760.5705 358.8836)">
	<stop  offset="0" style="stop-color:#D90100"/>
	<stop  offset="0.1165" style="stop-color:#E01313"/>
	<stop  offset="0.3661" style="stop-color:#EE3535"/>
	<stop  offset="0.6033" style="stop-color:#F74D4D"/>
	<stop  offset="0.8207" style="stop-color:#FD5C5C"/>
	<stop  offset="1" style="stop-color:#FF6161"/>
</linearGradient>
<polygon class="st5" points="52.8,20.57 49.36,14.42 49.66,21.33 45.39,19.28 48.07,23.02 42.18,22.55 47.04,25.28 41.41,29.37 
	48.42,27.61 46.36,33.76 50.88,28.86 52.05,34.83 53.36,29.11 59.14,32.32 55.94,27.06 62,26.85 56.47,24.69 60.85,21.8 
	55.59,21.96 57.51,16.97 "/>
<linearGradient id="SVGID_6_" gradientUnits="userSpaceOnUse" x1="334.1935" y1="817.6565" x2="334.1935" y2="806.5529" gradientTransform="matrix(0 -1 1 0 -760.5705 358.8836)">
	<stop  offset="0" style="stop-color:#FF8800"/>
	<stop  offset="0.2113" style="stop-color:#FFA113"/>
	<stop  offset="0.5427" style="stop-color:#FFC32B"/>
	<stop  offset="0.8176" style="stop-color:#FFD83A"/>
	<stop  offset="1" style="stop-color:#FFDF40"/>
</linearGradient>
<polygon class="st6" points="52.28,22.36 50.59,18.76 50.47,22.76 48.08,21.68 49.3,23.8 46.04,23.72 48.76,25.14 45.98,27.28 
	49.48,26.35 48.57,29.92 51.11,27 51.97,30.62 52.74,27.31 56.35,29.64 53.9,26.06 57.09,25.96 54.18,24.68 56.35,23.22 
	53.72,23.25 54.88,20.63 "/>
<linearGradient id="SVGID_7_" gradientUnits="userSpaceOnUse" x1="334.1927" y1="814.4556" x2="334.1927" y2="809.7538" gradientTransform="matrix(0 -1 1 0 -760.5705 358.8836)">
	<stop  offset="0" style="stop-color:#FFF1A3"/>
	<stop  offset="0.1596" style="stop-color:#FFF4B6"/>
	<stop  offset="0.5273" style="stop-color:#FFFADE"/>
	<stop  offset="0.8203" style="stop-color:#FFFEF6"/>
	<stop  offset="1" style="stop-color:#FFFFFF"/>
</linearGradient>
<polygon class="st7" points="51.85,23.71 51.14,22.18 51.09,23.87 50.07,23.42 50.59,24.31 49.21,24.28 50.36,24.88 49.18,25.79 
	50.67,25.39 50.28,26.9 51.35,25.67 51.72,27.2 52.04,25.8 53.57,26.79 52.54,25.27 53.89,25.23 52.65,24.69 53.57,24.07 
	52.46,24.08 52.95,22.97 "/>
<path class="st8" d="M35.19,13.39c0,0-0.5-2.35,0.93-3.8C35.2,10.99,35.19,13.39,35.19,13.39z"/>
<path class="st8" d="M38.5,10.67c0,0-0.28-2,1.63-3.43C38.76,8.68,38.5,10.67,38.5,10.67z"/>
<path class="st8" d="M41.87,9.1c0,0,0.58-2,2.76-2.51C42.84,7.29,41.87,9.1,41.87,9.1z"/>
<path class="st8" d="M45.29,9.05c0,0,1.72-1.01,3.83-0.42C47.2,8.45,45.29,9.05,45.29,9.05z"/>
<path class="st8" d="M48.13,10.75c0,0,1.49,0.8,3.59,1.39C49.81,11.95,48.13,10.75,48.13,10.75z"/>
<path class="st8" d="M50.01,13.7c0,0,1.12,1.81,2.92,2.53C51.02,16.05,50.01,13.7,50.01,13.7z"/>
</svg>
