<?xml version="1.0" encoding="utf-8"?>
<!-- Generator: Adobe Illustrator 24.1.2, SVG Export Plug-In . SVG Version: 6.00 Build 0)  -->
<svg version="1.1" id="Layer_1" xmlns="http://www.w3.org/2000/svg" xmlns:xlink="http://www.w3.org/1999/xlink" x="0px" y="0px"
	 width="64px" height="64px" viewBox="0 0 64 64" style="enable-background:new 0 0 64 64;" xml:space="preserve">
<style type="text/css">
	.st0{fill:url(#SVGID_1_);}
	.st1{fill:url(#SVGID_2_);}
	.st2{fill:url(#SVGID_3_);}
	.st3{fill:url(#SVGID_4_);}
	.st4{fill:url(#SVGID_5_);enable-background:new    ;}
	.st5{fill:url(#SVGID_6_);}
	.st6{fill:url(#SVGID_7_);}
	.st7{opacity:0.4;fill:#529320;}
	.st8{opacity:0.4;fill:#71FB00;}
</style>
<linearGradient id="SVGID_1_" gradientUnits="userSpaceOnUse" x1="5.8243" y1="6.4836" x2="28.251" y2="6.4836" gradientTransform="matrix(0.7071 0.7071 -0.7071 0.7071 21.6245 18.2796)">
	<stop  offset="0" style="stop-color:#E6EBEF"/>
	<stop  offset="1" style="stop-color:#C5D7E8"/>
</linearGradient>
<path class="st0" d="M45.4,2.74c0,0,0.77,3.19-1.82,5.78C32.95,19.16,15.83,36.27,4.1,48c-6.94,6.94,4.96,18.83,11.89,11.89
	c10.93-10.93,30.13-30.13,39.48-39.49c2.58-2.58,5.78-1.82,5.78-1.82L45.4,2.74z"/>
<linearGradient id="SVGID_2_" gradientUnits="userSpaceOnUse" x1="6.3643" y1="-16.9952" x2="27.7089" y2="-16.9952" gradientTransform="matrix(0.7071 0.7071 -0.7071 0.7071 21.6245 18.2796)">
	<stop  offset="0" style="stop-color:#C5D7E8"/>
	<stop  offset="1" style="stop-color:#E6EBEF"/>
</linearGradient>
<path class="st1" d="M44.28,9.21c-3.37,3.37-7.59,7.56-11.5,11.47l10.96,10.07c5.38-5.38,8.97-8.97,11.04-11.04
	c2.58-2.58,6.09-1.5,6.09-1.5L45.78,3.12C45.78,3.12,46.87,6.63,44.28,9.21z"/>
<linearGradient id="SVGID_3_" gradientUnits="userSpaceOnUse" x1="9.5902" y1="9.237" x2="24.481" y2="9.237" gradientTransform="matrix(0.7071 0.7071 -0.7071 0.7071 21.6245 18.2796)">
	<stop  offset="0" style="stop-color:#A3F01F"/>
	<stop  offset="1" style="stop-color:#62AD00"/>
</linearGradient>
<path class="st2" d="M32.85,20.62c0,0-16.19,16.22-27.8,27.83c-6.22,6.22,4.29,16.72,10.51,10.51c9.83-9.83,38.35-38.33,38.35-38.33
	H32.85z"/>
<linearGradient id="SVGID_4_" gradientUnits="userSpaceOnUse" x1="32.7468" y1="20.6454" x2="54.0377" y2="20.6454">
	<stop  offset="0" style="stop-color:#5A9E00"/>
	<stop  offset="0.2459" style="stop-color:#62A800"/>
	<stop  offset="0.6668" style="stop-color:#78C400"/>
	<stop  offset="1" style="stop-color:#8DDE00"/>
</linearGradient>
<path class="st3" d="M53.91,20.62c-2.41,1.88-22.76,1.33-21.06,0C34.83,19.08,55.89,19.08,53.91,20.62z"/>
<linearGradient id="SVGID_5_" gradientUnits="userSpaceOnUse" x1="14.032" y1="38.1215" x2="14.032" y2="-28.6474" gradientTransform="matrix(0.7071 0.7071 -0.7071 0.7071 21.6245 18.2796)">
	<stop  offset="0" style="stop-color:#FFFFFF;stop-opacity:0"/>
	<stop  offset="0.1142" style="stop-color:#FFFFFF;stop-opacity:0.0571"/>
	<stop  offset="1" style="stop-color:#FFFFFF;stop-opacity:0.5"/>
</linearGradient>
<path class="st4" d="M49.27,13.01c0.89-0.89,1.34-1.88,1.57-2.8L47.63,7c-0.22,0.92-0.68,1.91-1.57,2.8
	c-7.89,7.89-24.85,24.85-38.78,38.78c-2.86,2.86-2.24,6.56-0.13,9.14c-0.02-1.56,0.55-3.14,1.93-4.52
	C23.01,39.27,41.39,20.9,49.27,13.01z"/>
<linearGradient id="SVGID_6_" gradientUnits="userSpaceOnUse" x1="17.0376" y1="-25.4646" x2="17.0376" y2="-31.073" gradientTransform="matrix(0.7071 0.7071 -0.7071 0.7071 21.6245 18.2796)">
	<stop  offset="0" style="stop-color:#F6FBFF"/>
	<stop  offset="1" style="stop-color:#C5D7E8"/>
</linearGradient>
<path class="st5" d="M61.71,18.38c-2.64,2.64-18.74-13.45-16.1-16.09C48.26-0.35,64.35,15.74,61.71,18.38z"/>
<linearGradient id="SVGID_7_" gradientUnits="userSpaceOnUse" x1="7.1066" y1="-28.836" x2="26.9679" y2="-28.836" gradientTransform="matrix(0.7071 0.7071 -0.7071 0.7071 21.6245 18.2796)">
	<stop  offset="0" style="stop-color:#BACBDB"/>
	<stop  offset="1" style="stop-color:#F1F6FA"/>
</linearGradient>
<path class="st6" d="M61.08,16.96C59.34,18.7,45.29,4.66,47.04,2.91C48.78,1.17,62.83,15.21,61.08,16.96z"/>
<path class="st7" d="M34.73,28.38c-1.41-1.41-3.54,0.71-2.12,2.12C34.02,31.91,36.14,29.79,34.73,28.38z"/>
<path class="st8" d="M34.56,28.46c-1.32-0.91-2.78,0.55-1.87,1.86C32.45,29.26,33.5,28.22,34.56,28.46z"/>
<path class="st7" d="M44.85,25.32c-1.41-1.41-3.54,0.71-2.12,2.12C44.15,28.86,46.27,26.74,44.85,25.32z"/>
<path class="st8" d="M44.68,25.4c-1.32-0.91-2.78,0.55-1.87,1.86C42.57,26.21,43.62,25.16,44.68,25.4z"/>
<path class="st7" d="M39.11,26.4c-0.63-0.63-1.57,0.31-0.94,0.94C38.79,27.97,39.74,27.03,39.11,26.4z"/>
<path class="st8" d="M39.03,26.44c-0.59-0.41-1.23,0.24-0.83,0.83C38.1,26.79,38.56,26.33,39.03,26.44z"/>
<path class="st7" d="M35.67,34.49c-0.63-0.63-1.57,0.31-0.94,0.94C35.35,36.06,36.29,35.12,35.67,34.49z"/>
<path class="st8" d="M35.59,34.53c-0.59-0.41-1.23,0.24-0.83,0.83C34.65,34.89,35.12,34.42,35.59,34.53z"/>
<path class="st7" d="M27.89,33.82c-0.63-0.63-1.57,0.31-0.94,0.94C27.57,35.39,28.52,34.44,27.89,33.82z"/>
<path class="st8" d="M27.81,33.85c-0.59-0.41-1.23,0.24-0.83,0.83C26.88,34.21,27.34,33.75,27.81,33.85z"/>
<path class="st7" d="M24.8,44.6c-0.63-0.63-1.57,0.31-0.94,0.94C24.48,46.17,25.42,45.23,24.8,44.6z"/>
<path class="st8" d="M24.72,44.63c-0.59-0.41-1.23,0.24-0.83,0.83C23.78,44.99,24.25,44.53,24.72,44.63z"/>
<path class="st7" d="M11.26,49.69c-0.63-0.63-1.57,0.31-0.94,0.94C10.95,51.26,11.89,50.32,11.26,49.69z"/>
<path class="st8" d="M11.19,49.73c-0.59-0.41-1.23,0.24-0.83,0.83C10.25,50.09,10.72,49.62,11.19,49.73z"/>
<path class="st7" d="M11.38,56.19c-0.63-0.63-1.57,0.31-0.94,0.94C11.07,57.76,12.01,56.82,11.38,56.19z"/>
<path class="st8" d="M11.3,56.23c-0.59-0.41-1.23,0.24-0.83,0.83C10.37,56.59,10.83,56.12,11.3,56.23z"/>
<path class="st7" d="M20.82,48.45c-0.63-0.63-1.57,0.31-0.94,0.94C20.5,50.02,21.45,49.08,20.82,48.45z"/>
<path class="st8" d="M20.74,48.49c-0.59-0.41-1.23,0.24-0.83,0.83C19.81,48.85,20.27,48.38,20.74,48.49z"/>
<path class="st7" d="M16.29,45.67c-0.63-0.63-1.57,0.31-0.94,0.94C15.97,47.24,16.91,46.3,16.29,45.67z"/>
<path class="st8" d="M16.21,45.71c-0.59-0.41-1.23,0.24-0.83,0.83C15.27,46.06,15.74,45.6,16.21,45.71z"/>
<path class="st7" d="M14.67,49.81c-0.36-0.36-0.91,0.18-0.55,0.55C14.49,50.72,15.04,50.17,14.67,49.81z"/>
<path class="st8" d="M14.63,49.83c-0.34-0.24-0.72,0.14-0.48,0.48C14.08,50.03,14.35,49.76,14.63,49.83z"/>
<path class="st7" d="M7.45,52.67c-0.36-0.36-0.91,0.18-0.55,0.55C7.27,53.58,7.82,53.03,7.45,52.67z"/>
<path class="st8" d="M7.41,52.69c-0.34-0.24-0.72,0.14-0.48,0.48C6.86,52.9,7.13,52.63,7.41,52.69z"/>
<path class="st7" d="M11.93,43.56c-0.36-0.36-0.91,0.18-0.55,0.55C11.75,44.47,12.29,43.93,11.93,43.56z"/>
<path class="st8" d="M11.88,43.58c-0.34-0.24-0.72,0.14-0.48,0.48C11.34,43.79,11.61,43.52,11.88,43.58z"/>
<path class="st7" d="M24.99,41.35c-0.36-0.36-0.91,0.18-0.55,0.55C24.81,42.26,25.36,41.71,24.99,41.35z"/>
<path class="st8" d="M24.95,41.37c-0.34-0.24-0.72,0.14-0.48,0.48C24.4,41.58,24.67,41.31,24.95,41.37z"/>
<path class="st7" d="M23.53,35.76c-0.36-0.36-0.91,0.18-0.55,0.55C23.34,36.68,23.89,36.13,23.53,35.76z"/>
<path class="st8" d="M23.48,35.78c-0.34-0.24-0.72,0.14-0.48,0.48C22.94,35.99,23.21,35.72,23.48,35.78z"/>
<path class="st7" d="M32.15,36.16c-0.36-0.36-0.91,0.18-0.55,0.55C31.97,37.07,32.51,36.52,32.15,36.16z"/>
<path class="st8" d="M32.11,36.18c-0.34-0.24-0.72,0.14-0.48,0.48C31.56,36.39,31.83,36.12,32.11,36.18z"/>
<path class="st7" d="M30.2,29.87c-0.36-0.36-0.91,0.18-0.55,0.55C30.02,30.79,30.57,30.24,30.2,29.87z"/>
<path class="st8" d="M30.16,29.89c-0.34-0.24-0.72,0.14-0.48,0.48C29.61,30.1,29.88,29.83,30.16,29.89z"/>
<path class="st7" d="M40.61,30.27c-0.36-0.36-0.91,0.18-0.55,0.55C40.43,31.18,40.98,30.63,40.61,30.27z"/>
<path class="st8" d="M40.57,30.29c-0.34-0.24-0.72,0.14-0.48,0.48C40.02,30.5,40.29,30.23,40.57,30.29z"/>
<path class="st7" d="M19.08,41.18c-1.41-1.41-3.54,0.71-2.12,2.12C18.37,44.71,20.5,42.59,19.08,41.18z"/>
<path class="st8" d="M18.91,41.26c-1.32-0.91-2.78,0.55-1.87,1.86C16.8,42.07,17.85,41.02,18.91,41.26z"/>
<path class="st7" d="M16.2,52.75c-1.41-1.41-3.54,0.71-2.12,2.12C15.49,56.29,17.61,54.16,16.2,52.75z"/>
<path class="st8" d="M16.02,52.83c-1.32-0.91-2.78,0.55-1.87,1.86C13.92,53.64,14.96,52.59,16.02,52.83z"/>
<path class="st7" d="M30.5,39.03c-1.41-1.41-3.54,0.71-2.12,2.12C29.79,42.57,31.91,40.45,30.5,39.03z"/>
<path class="st8" d="M30.32,39.12c-1.32-0.91-2.78,0.55-1.87,1.86C28.22,39.92,29.26,38.88,30.32,39.12z"/>
</svg>
