<?xml version="1.0" encoding="utf-8"?>
<!-- Generator: Adobe Illustrator 24.1.2, SVG Export Plug-In . SVG Version: 6.00 Build 0)  -->
<svg version="1.1" id="Layer_1" xmlns="http://www.w3.org/2000/svg" xmlns:xlink="http://www.w3.org/1999/xlink" x="0px" y="0px"
	 width="64px" height="64px" viewBox="0 0 64 64" style="enable-background:new 0 0 64 64;" xml:space="preserve">
<style type="text/css">
	.st0{fill:#E6EBEF;}
	.st1{fill:#4E5E67;}
	.st2{fill:#99A8AE;}
</style>
<polygon class="st0" points="50.26,3.66 48.62,2.95 45.5,3.66 42.85,2.31 36.75,3.66 32.84,2.49 31.5,3.54 24.17,2.38 20.14,3.1 
	15.86,2 11,2.95 11,61.05 13.74,60.34 15.38,61.05 18.5,60.34 21.15,61.69 27.25,60.34 31.16,61.51 32.5,60.46 39.83,61.62 
	43.86,60.9 48.14,62 53,61.05 53,2.95 "/>
<rect x="14" y="16.52" class="st1" width="36" height="1"/>
<rect x="14" y="40.77" class="st1" width="36" height="0.5"/>
<path id="Shape_18_" class="st1" d="M16.8,9.39c1.16,0,2.1,0.94,2.1,2.1c0,1.16-0.94,2.1-2.1,2.1c-1.16,0-2.1-0.94-2.1-2.1
	C14.7,10.33,15.64,9.39,16.8,9.39z M16.8,8.69c-1.54,0-2.8,1.25-2.8,2.8c0,1.54,1.25,2.8,2.8,2.8c1.55,0,2.8-1.25,2.8-2.8
	c0-0.75-0.3-1.46-0.82-1.98C18.25,8.98,17.54,8.69,16.8,8.69z"/>
<path id="Combined-Shape_11_" class="st1" d="M17.36,11.77c-0.04,0.01-0.07,0-0.1-0.03c-0.03-0.03-0.04-0.06-0.04-0.11v-0.28
	c0-0.04,0.01-0.07,0.04-0.1c0.03-0.03,0.07-0.04,0.1-0.04h0.91c0.03-0.01,0.08,0.01,0.1,0.04c0.03,0.03,0.04,0.07,0.04,0.1v0.14
	c0,0.65-0.39,1.24-1,1.48c-0.6,0.25-1.29,0.11-1.75-0.35c-0.03-0.02-0.05-0.06-0.05-0.1c0-0.04,0.02-0.07,0.05-0.1l0.3-0.3
	c0.02-0.03,0.06-0.05,0.1-0.05c0.04,0,0.08,0.02,0.1,0.05c0.22,0.22,0.55,0.31,0.86,0.24c0.31-0.07,0.56-0.3,0.65-0.6H17.36z"/>
<path class="st1" d="M24.45,11.97c-0.1-0.07-0.21-0.11-0.33-0.13c0.22-0.07,0.42-0.17,0.58-0.31c0.31-0.27,0.47-0.63,0.47-1.07
	c0-0.47-0.15-0.83-0.45-1.09c-0.3-0.26-0.74-0.38-1.33-0.38h-2.23V14h1.08v-2.02h0.71c0.15,0,0.27,0.02,0.39,0.07
	c0.11,0.05,0.19,0.14,0.25,0.28L24.22,14h1.16l-0.61-1.56C24.7,12.23,24.59,12.07,24.45,11.97z M23.22,11.14h-0.99V9.83h0.99
	c0.32,0,0.55,0.05,0.69,0.16c0.14,0.11,0.21,0.27,0.21,0.5c0,0.22-0.07,0.39-0.22,0.49C23.76,11.08,23.53,11.14,23.22,11.14z"/>
<polygon class="st1" points="26.14,14 29.6,14 29.6,13.14 27.21,13.14 27.21,11.88 29.45,11.88 29.45,11.02 27.21,11.02 27.21,9.83 
	29.6,9.83 29.6,8.98 26.14,8.98 "/>
<path class="st1" d="M32.73,9.8c0.24,0,0.46,0.04,0.67,0.12c0.21,0.08,0.43,0.2,0.66,0.37l0.35-0.79c-0.2-0.18-0.45-0.33-0.75-0.43
	c-0.3-0.1-0.62-0.15-0.95-0.15c-0.51,0-0.96,0.11-1.33,0.32c-0.38,0.21-0.66,0.51-0.87,0.89c-0.2,0.39-0.3,0.84-0.3,1.35
	c0,0.52,0.1,0.98,0.3,1.36c0.2,0.39,0.49,0.69,0.87,0.9c0.38,0.21,0.82,0.32,1.33,0.32c0.33,0,0.65-0.05,0.95-0.15
	c0.3-0.1,0.55-0.24,0.75-0.43l-0.35-0.79c-0.23,0.17-0.44,0.29-0.66,0.37c-0.21,0.08-0.44,0.12-0.67,0.12
	c-0.45,0-0.79-0.14-1.04-0.43c-0.24-0.29-0.37-0.71-0.37-1.26s0.12-0.97,0.37-1.26C31.94,9.94,32.28,9.8,32.73,9.8z"/>
<polygon class="st1" points="35.18,14 38.64,14 38.64,13.14 36.26,13.14 36.26,11.88 38.49,11.88 38.49,11.02 36.26,11.02 
	36.26,9.83 38.64,9.83 38.64,8.98 35.18,8.98 "/>
<rect x="39.4" y="8.98" class="st1" width="1.1" height="5.02"/>
<path class="st1" d="M43.79,8.98h-2.28V14h1.1v-2.03h1.18c0.55,0,0.99-0.14,1.29-0.41c0.31-0.27,0.46-0.63,0.46-1.09
	c0-0.46-0.15-0.82-0.45-1.09C44.78,9.11,44.35,8.98,43.79,8.98z M44.29,10.96c-0.14,0.11-0.36,0.17-0.65,0.17h-1.04v-1.3h1.04
	c0.3,0,0.51,0.06,0.65,0.17c0.14,0.11,0.21,0.27,0.21,0.49C44.5,10.69,44.43,10.85,44.29,10.96z"/>
<polygon class="st1" points="45.74,8.98 45.74,9.87 47.32,9.87 47.32,14 48.43,14 48.43,9.87 50,9.87 50,8.98 "/>
<path class="st2" d="M14.81,25.77c0.18-0.05,0.31-0.15,0.38-0.29s0.11-0.34,0.11-0.59v-2.68h-0.62v2.69c0,0.13-0.02,0.22-0.05,0.28
	s-0.09,0.1-0.18,0.11c-0.09,0.01-0.21,0-0.38-0.02v0.51C14.38,25.82,14.63,25.82,14.81,25.77z"/>
<path class="st2" d="M16.24,24.96c0.16,0.09,0.35,0.13,0.57,0.13c0.21,0,0.4-0.04,0.56-0.13c0.16-0.08,0.28-0.21,0.37-0.37
	c0.09-0.16,0.13-0.35,0.13-0.56c0-0.22-0.04-0.4-0.13-0.56c-0.09-0.16-0.21-0.28-0.37-0.37c-0.16-0.09-0.35-0.13-0.56-0.13
	c-0.22,0-0.41,0.04-0.57,0.13c-0.16,0.09-0.28,0.21-0.37,0.37c-0.09,0.16-0.13,0.34-0.13,0.56c0,0.22,0.04,0.4,0.13,0.56
	C15.96,24.76,16.08,24.88,16.24,24.96z M16.46,23.59c0.08-0.1,0.2-0.15,0.35-0.15c0.15,0,0.26,0.05,0.34,0.15
	c0.08,0.1,0.12,0.25,0.12,0.45c0,0.2-0.04,0.35-0.12,0.45c-0.08,0.1-0.19,0.15-0.34,0.15c-0.15,0-0.27-0.05-0.35-0.15
	c-0.08-0.1-0.12-0.25-0.12-0.45C16.34,23.84,16.38,23.69,16.46,23.59z"/>
<path class="st2" d="M18.71,25.09c-0.03,0.08-0.08,0.14-0.13,0.2c-0.05,0.05-0.12,0.1-0.2,0.13c-0.08,0.04-0.18,0.07-0.31,0.09
	l0.14,0.46c0.16-0.02,0.3-0.06,0.44-0.12c0.13-0.06,0.25-0.14,0.36-0.25c0.11-0.11,0.2-0.26,0.28-0.44l0.93-2.13h-0.6l-0.54,1.32
	l-0.52-1.32h-0.63l0.84,1.92L18.71,25.09z"/>
<path class="st2" d="M15.3,29.9c0.39,0,0.7-0.1,0.91-0.31c0.21-0.21,0.32-0.51,0.32-0.9v-1.67H15.9v1.7c0,0.23-0.05,0.4-0.16,0.52
	s-0.25,0.18-0.45,0.18c-0.2,0-0.36-0.06-0.46-0.18s-0.16-0.29-0.16-0.52v-1.7h-0.61v1.67c0,0.4,0.1,0.7,0.31,0.9
	S14.89,29.9,15.3,29.9z"/>
<path class="st2" d="M17.63,29.86v-1.14c0-0.14,0.04-0.26,0.12-0.34c0.08-0.09,0.19-0.13,0.32-0.13c0.11,0,0.19,0.03,0.25,0.1
	c0.05,0.06,0.08,0.17,0.08,0.31v1.2H19v-1.23c0-0.57-0.24-0.85-0.72-0.85c-0.16,0-0.31,0.04-0.43,0.11
	c-0.11,0.07-0.18,0.17-0.25,0.29l-0.04-0.35H17c0.01,0.1,0.02,0.19,0.03,0.29c0,0.1,0.01,0.19,0.01,0.29v1.45H17.63z"/>
<rect x="19.48" y="27.83" class="st2" width="0.6" height="2.03"/>
<rect x="19.45" y="26.88" class="st2" width="0.65" height="0.57"/>
<path class="st2" d="M22.16,29.22c-0.08,0.07-0.17,0.12-0.26,0.15c-0.1,0.03-0.19,0.05-0.28,0.05c-0.17,0-0.29-0.05-0.39-0.15
	c-0.09-0.1-0.14-0.25-0.14-0.44c0-0.19,0.05-0.34,0.14-0.44s0.22-0.15,0.38-0.15c0.09,0,0.18,0.02,0.28,0.05
	c0.1,0.04,0.18,0.09,0.26,0.15l0.16-0.42c-0.09-0.08-0.2-0.14-0.34-0.18c-0.14-0.04-0.28-0.07-0.42-0.07
	c-0.22,0-0.41,0.04-0.57,0.13c-0.16,0.09-0.29,0.21-0.38,0.37c-0.09,0.16-0.14,0.35-0.14,0.56c0,0.21,0.04,0.4,0.13,0.55
	c0.08,0.16,0.21,0.28,0.37,0.36c0.16,0.09,0.35,0.13,0.57,0.13c0.15,0,0.3-0.02,0.44-0.07c0.14-0.04,0.26-0.1,0.34-0.18L22.16,29.22
	z"/>
<path class="st2" d="M23.01,29.76c0.16,0.09,0.35,0.13,0.57,0.13c0.21,0,0.4-0.04,0.56-0.13c0.16-0.08,0.28-0.21,0.37-0.37
	c0.09-0.16,0.13-0.35,0.13-0.56c0-0.22-0.04-0.4-0.13-0.56c-0.09-0.16-0.21-0.28-0.37-0.37c-0.16-0.09-0.35-0.13-0.56-0.13
	c-0.22,0-0.41,0.04-0.57,0.13c-0.16,0.09-0.28,0.21-0.37,0.37c-0.09,0.16-0.13,0.34-0.13,0.56c0,0.22,0.04,0.4,0.13,0.56
	C22.72,29.56,22.85,29.68,23.01,29.76z M23.23,28.39c0.08-0.1,0.2-0.15,0.35-0.15c0.15,0,0.26,0.05,0.34,0.15
	c0.08,0.1,0.12,0.25,0.12,0.45c0,0.2-0.04,0.35-0.12,0.45c-0.08,0.1-0.19,0.15-0.34,0.15c-0.15,0-0.27-0.05-0.35-0.15
	c-0.08-0.1-0.12-0.25-0.12-0.45C23.11,28.64,23.15,28.49,23.23,28.39z"/>
<path class="st2" d="M25.02,28.41v1.45h0.6V28.8c0-0.1,0.02-0.19,0.06-0.26c0.04-0.07,0.09-0.13,0.16-0.17
	c0.07-0.04,0.16-0.06,0.27-0.06c0.1,0,0.2,0.02,0.3,0.07l0-0.55c-0.03-0.01-0.06-0.02-0.09-0.03s-0.08-0.01-0.12-0.01
	c-0.15,0-0.29,0.05-0.41,0.14c-0.09,0.07-0.14,0.17-0.19,0.28l-0.04-0.37h-0.57c0.01,0.1,0.02,0.19,0.03,0.29
	C25.02,28.22,25.02,28.32,25.02,28.41z"/>
<path class="st2" d="M28.63,29.86v-1.23c0-0.57-0.24-0.85-0.72-0.85c-0.16,0-0.31,0.04-0.43,0.11c-0.11,0.07-0.18,0.17-0.25,0.29
	l-0.04-0.35h-0.57c0.01,0.1,0.02,0.19,0.03,0.29c0,0.1,0.01,0.19,0.01,0.29v1.45h0.6v-1.14c0-0.14,0.04-0.26,0.12-0.34
	c0.08-0.09,0.19-0.13,0.32-0.13c0.11,0,0.19,0.03,0.25,0.1c0.05,0.06,0.08,0.17,0.08,0.31v1.2H28.63z"/>
<polygon class="st2" points="32.17,29.35 30.9,29.35 30.9,27.01 30.28,27.01 30.28,29.86 32.17,29.86 "/>
<rect x="32.51" y="27.83" class="st2" width="0.6" height="2.03"/>
<rect x="32.49" y="26.88" class="st2" width="0.65" height="0.57"/>
<path class="st2" d="M33.76,29.86h0.6v-1.58h0.42v-0.45h-0.42v-0.11c0-0.08,0.01-0.14,0.04-0.19c0.03-0.05,0.06-0.08,0.11-0.1
	c0.05-0.02,0.1-0.03,0.16-0.03c0.05,0,0.12,0.01,0.2,0.03v-0.47c-0.05-0.02-0.11-0.03-0.17-0.04c-0.06-0.01-0.12-0.01-0.18-0.01
	c-0.25,0-0.44,0.07-0.57,0.21s-0.19,0.34-0.19,0.59v0.13h-0.38v0.45h0.38V29.86z"/>
<path class="st2" d="M36.95,28.81c0-0.21-0.04-0.39-0.11-0.55s-0.18-0.27-0.32-0.36s-0.3-0.13-0.49-0.13c-0.2,0-0.37,0.04-0.52,0.13
	s-0.26,0.21-0.35,0.37c-0.09,0.16-0.13,0.34-0.13,0.55c0,0.22,0.04,0.4,0.13,0.56s0.21,0.28,0.38,0.36
	c0.16,0.09,0.36,0.13,0.59,0.13c0.14,0,0.29-0.02,0.43-0.07s0.26-0.1,0.36-0.18l-0.16-0.41c-0.09,0.06-0.18,0.11-0.29,0.15
	s-0.21,0.05-0.32,0.05c-0.18,0-0.32-0.05-0.41-0.15c-0.07-0.08-0.11-0.22-0.12-0.39h1.33V28.81z M36.04,28.2
	c0.13,0,0.23,0.04,0.29,0.13c0.05,0.06,0.07,0.16,0.09,0.26h-0.79c0.02-0.1,0.05-0.18,0.09-0.24C35.79,28.25,35.9,28.2,36.04,28.2z"
	/>
<polygon class="st2" points="16,32.97 14.68,32.97 14.68,31.81 14.07,31.81 14.07,34.66 14.68,34.66 14.68,33.46 16,33.46 16,34.66 
	16.62,34.66 16.62,31.81 16,31.81 "/>
<path class="st2" d="M18.58,32.94c-0.05-0.09-0.11-0.17-0.21-0.23c-0.13-0.08-0.27-0.12-0.43-0.12c-0.18,0-0.33,0.04-0.47,0.13
	c-0.13,0.09-0.24,0.21-0.32,0.38c-0.08,0.16-0.11,0.35-0.11,0.56c0,0.21,0.04,0.4,0.11,0.55s0.18,0.28,0.32,0.36
	c0.14,0.09,0.29,0.13,0.47,0.13c0.16,0,0.31-0.04,0.43-0.12c0.09-0.06,0.16-0.14,0.21-0.23v0.32h0.6v-2.03h-0.6V32.94z M18.46,34.08
	c-0.08,0.1-0.2,0.15-0.34,0.15c-0.15,0-0.27-0.05-0.35-0.15c-0.08-0.1-0.12-0.24-0.12-0.43c0-0.19,0.04-0.34,0.13-0.44
	c0.08-0.11,0.2-0.16,0.35-0.16c0.15,0,0.26,0.05,0.34,0.15c0.08,0.1,0.12,0.25,0.12,0.44S18.54,33.98,18.46,34.08z"/>
<path class="st2" d="M21.37,32.71c-0.13-0.09-0.29-0.13-0.47-0.13c-0.17,0-0.31,0.04-0.43,0.12c-0.11,0.07-0.18,0.17-0.23,0.29
	l-0.04-0.35h-0.57c0.01,0.1,0.02,0.19,0.03,0.29c0,0.1,0.01,0.19,0.01,0.29v2.31h0.6v-1.18c0.05,0.09,0.11,0.17,0.2,0.23
	c0.12,0.08,0.27,0.12,0.43,0.12c0.18,0,0.33-0.04,0.47-0.13c0.13-0.08,0.24-0.21,0.32-0.36c0.08-0.16,0.12-0.34,0.12-0.55
	c0-0.21-0.04-0.4-0.12-0.56C21.61,32.93,21.51,32.8,21.37,32.71z M21.08,34.08c-0.08,0.1-0.19,0.15-0.34,0.15
	c-0.15,0-0.27-0.05-0.35-0.15c-0.08-0.1-0.12-0.25-0.12-0.44s0.04-0.34,0.12-0.44s0.2-0.15,0.35-0.15c0.15,0,0.26,0.05,0.34,0.16
	c0.08,0.11,0.12,0.25,0.12,0.44C21.2,33.84,21.16,33.98,21.08,34.08z"/>
<path class="st2" d="M23.9,32.71c-0.13-0.09-0.29-0.13-0.47-0.13c-0.17,0-0.31,0.04-0.43,0.12c-0.11,0.07-0.18,0.17-0.23,0.29
	l-0.04-0.35h-0.57c0.01,0.1,0.02,0.19,0.03,0.29c0,0.1,0.01,0.19,0.01,0.29v2.31h0.6v-1.18c0.05,0.09,0.11,0.17,0.2,0.23
	c0.12,0.08,0.27,0.12,0.43,0.12c0.18,0,0.33-0.04,0.47-0.13c0.13-0.08,0.24-0.21,0.32-0.36c0.08-0.16,0.12-0.34,0.12-0.55
	c0-0.21-0.04-0.4-0.12-0.56C24.14,32.93,24.04,32.8,23.9,32.71z M23.61,34.08c-0.08,0.1-0.19,0.15-0.34,0.15
	c-0.15,0-0.27-0.05-0.35-0.15c-0.08-0.1-0.12-0.25-0.12-0.44s0.04-0.34,0.12-0.44s0.2-0.15,0.35-0.15c0.15,0,0.26,0.05,0.34,0.16
	c0.08,0.11,0.12,0.25,0.12,0.44C23.73,33.84,23.69,33.98,23.61,34.08z"/>
<path class="st2" d="M25.55,33.95l-0.52-1.32H24.4l0.84,1.92l-0.06,0.13c-0.03,0.08-0.08,0.14-0.13,0.2
	c-0.05,0.05-0.12,0.1-0.2,0.13c-0.08,0.04-0.18,0.07-0.31,0.09l0.14,0.46c0.16-0.02,0.3-0.06,0.44-0.12
	c0.13-0.06,0.25-0.14,0.36-0.25c0.11-0.11,0.2-0.26,0.28-0.44l0.93-2.13h-0.6L25.55,33.95z"/>
<path class="st2" d="M29.34,31.81h-1.29v2.85h0.62v-1.15h0.67c0.31,0,0.56-0.08,0.73-0.23s0.26-0.36,0.26-0.62
	c0-0.26-0.09-0.47-0.26-0.62C29.91,31.89,29.66,31.81,29.34,31.81z M29.63,32.94c-0.08,0.06-0.2,0.1-0.37,0.1h-0.59v-0.74h0.59
	c0.17,0,0.29,0.03,0.37,0.1c0.08,0.06,0.12,0.16,0.12,0.28C29.75,32.78,29.71,32.87,29.63,32.94z"/>
<path class="st2" d="M32.16,32.71c-0.16-0.09-0.35-0.13-0.56-0.13c-0.22,0-0.41,0.04-0.57,0.13c-0.16,0.09-0.28,0.21-0.37,0.37
	c-0.09,0.16-0.13,0.34-0.13,0.56c0,0.22,0.04,0.4,0.13,0.56c0.09,0.16,0.21,0.28,0.37,0.37c0.16,0.09,0.35,0.13,0.57,0.13
	c0.21,0,0.4-0.04,0.56-0.13c0.16-0.08,0.28-0.21,0.37-0.37c0.09-0.16,0.13-0.35,0.13-0.56c0-0.22-0.04-0.4-0.13-0.56
	C32.44,32.92,32.32,32.8,32.16,32.71z M31.94,34.09c-0.08,0.1-0.19,0.15-0.34,0.15c-0.15,0-0.27-0.05-0.35-0.15
	c-0.08-0.1-0.12-0.25-0.12-0.45c0-0.2,0.04-0.35,0.12-0.45c0.08-0.1,0.2-0.15,0.35-0.15c0.15,0,0.26,0.05,0.34,0.15
	c0.08,0.1,0.12,0.25,0.12,0.45C32.06,33.84,32.02,33.99,31.94,34.09z"/>
<path class="st2" d="M34.57,32.71c-0.16-0.09-0.35-0.13-0.56-0.13c-0.22,0-0.41,0.04-0.57,0.13c-0.16,0.09-0.28,0.21-0.37,0.37
	c-0.09,0.16-0.13,0.34-0.13,0.56c0,0.22,0.04,0.4,0.13,0.56c0.09,0.16,0.21,0.28,0.37,0.37c0.16,0.09,0.35,0.13,0.57,0.13
	c0.21,0,0.4-0.04,0.56-0.13c0.16-0.08,0.28-0.21,0.37-0.37c0.09-0.16,0.13-0.35,0.13-0.56c0-0.22-0.04-0.4-0.13-0.56
	C34.86,32.92,34.73,32.8,34.57,32.71z M34.35,34.09c-0.08,0.1-0.19,0.15-0.34,0.15c-0.15,0-0.27-0.05-0.35-0.15
	c-0.08-0.1-0.12-0.25-0.12-0.45c0-0.2,0.04-0.35,0.12-0.45c0.08-0.1,0.2-0.15,0.35-0.15c0.15,0,0.26,0.05,0.34,0.15
	c0.08,0.1,0.12,0.25,0.12,0.45C34.47,33.84,34.43,33.99,34.35,34.09z"/>
<path class="st2" d="M43.01,25.12c0.34,0,0.61-0.13,0.79-0.38c0.18-0.25,0.27-0.61,0.27-1.09c0-0.47-0.09-0.83-0.27-1.08
	c-0.18-0.25-0.45-0.37-0.79-0.37c-0.34,0-0.61,0.12-0.79,0.37s-0.27,0.61-0.27,1.08c0,0.48,0.09,0.84,0.27,1.09
	C42.41,25,42.67,25.12,43.01,25.12z M42.67,22.92c0.07-0.15,0.19-0.23,0.34-0.23c0.16,0,0.27,0.08,0.34,0.23
	c0.07,0.15,0.11,0.4,0.11,0.74c0,0.35-0.04,0.6-0.11,0.75c-0.07,0.15-0.19,0.23-0.34,0.23c-0.16,0-0.27-0.08-0.34-0.23
	c-0.07-0.15-0.11-0.41-0.11-0.75C42.56,23.32,42.6,23.08,42.67,22.92z"/>
<rect x="44.41" y="24.44" class="st2" width="0.66" height="0.64"/>
<path class="st2" d="M46.46,22.21c-0.34,0-0.61,0.12-0.79,0.37s-0.27,0.61-0.27,1.08c0,0.48,0.09,0.84,0.27,1.09
	c0.18,0.25,0.45,0.37,0.79,0.37c0.34,0,0.61-0.13,0.79-0.38c0.18-0.25,0.27-0.61,0.27-1.09c0-0.47-0.09-0.83-0.27-1.08
	C47.07,22.34,46.81,22.21,46.46,22.21z M46.81,24.41c-0.07,0.15-0.19,0.23-0.34,0.23c-0.16,0-0.27-0.08-0.34-0.23
	c-0.07-0.15-0.11-0.41-0.11-0.75c0-0.34,0.04-0.58,0.11-0.74c0.07-0.15,0.19-0.23,0.34-0.23c0.16,0,0.27,0.08,0.34,0.23
	c0.07,0.15,0.11,0.4,0.11,0.74C46.92,24.01,46.88,24.26,46.81,24.41z"/>
<path class="st2" d="M48.86,25.12c0.34,0,0.61-0.13,0.79-0.38c0.18-0.25,0.27-0.61,0.27-1.09c0-0.47-0.09-0.83-0.27-1.08
	c-0.18-0.25-0.45-0.37-0.79-0.37c-0.34,0-0.61,0.12-0.79,0.37s-0.27,0.61-0.27,1.08c0,0.48,0.09,0.84,0.27,1.09
	C48.26,25,48.52,25.12,48.86,25.12z M48.52,22.92c0.07-0.15,0.19-0.23,0.34-0.23c0.16,0,0.27,0.08,0.34,0.23
	c0.07,0.15,0.11,0.4,0.11,0.74c0,0.35-0.04,0.6-0.11,0.75c-0.07,0.15-0.19,0.23-0.34,0.23c-0.16,0-0.27-0.08-0.34-0.23
	c-0.07-0.15-0.11-0.41-0.11-0.75C48.41,23.32,48.45,23.08,48.52,22.92z"/>
<path class="st2" d="M42.56,27.44c0.13-0.05,0.25-0.07,0.37-0.07c0.13,0,0.22,0.03,0.29,0.08c0.07,0.06,0.1,0.14,0.1,0.25
	c0,0.09-0.02,0.19-0.07,0.28s-0.12,0.2-0.22,0.31l-0.95,1.01v0.46h1.96v-0.5h-1.18l0.64-0.67c0.16-0.17,0.27-0.33,0.34-0.46
	c0.07-0.14,0.1-0.29,0.1-0.46c0-0.16-0.04-0.3-0.12-0.42s-0.19-0.21-0.34-0.27c-0.15-0.06-0.32-0.1-0.51-0.1
	c-0.18,0-0.37,0.03-0.54,0.09c-0.18,0.06-0.33,0.14-0.44,0.23l0.2,0.45C42.3,27.56,42.43,27.49,42.56,27.44z"/>
<rect x="44.41" y="29.12" class="st2" width="0.66" height="0.64"/>
<path class="st2" d="M46.37,26.88c-0.19,0-0.36,0.04-0.5,0.12c-0.15,0.08-0.26,0.2-0.35,0.34s-0.13,0.31-0.13,0.5
	c0,0.18,0.04,0.34,0.11,0.48c0.07,0.14,0.18,0.25,0.31,0.33s0.28,0.12,0.45,0.12c0.11,0,0.22-0.02,0.32-0.06s0.18-0.1,0.25-0.17
	c0.03-0.04,0.05-0.09,0.07-0.13c-0.01,0.28-0.05,0.51-0.15,0.66c-0.1,0.17-0.25,0.25-0.45,0.25c-0.1,0-0.21-0.02-0.33-0.06
	s-0.24-0.11-0.38-0.21l-0.2,0.45c0.12,0.1,0.26,0.18,0.42,0.24c0.17,0.05,0.34,0.08,0.51,0.08c0.25,0,0.46-0.06,0.64-0.18
	s0.32-0.29,0.41-0.52c0.1-0.22,0.14-0.49,0.14-0.8c0-0.46-0.1-0.81-0.3-1.05C47.03,27,46.74,26.88,46.37,26.88z M46.78,28.06
	c-0.04,0.07-0.09,0.12-0.15,0.16c-0.07,0.04-0.14,0.06-0.22,0.06c-0.13,0-0.23-0.04-0.31-0.12c-0.07-0.08-0.11-0.19-0.11-0.33
	c0-0.14,0.04-0.25,0.11-0.33s0.18-0.12,0.31-0.12c0.08,0,0.16,0.02,0.22,0.06s0.12,0.09,0.15,0.16c0.04,0.07,0.05,0.15,0.05,0.24
	C46.84,27.91,46.82,27.99,46.78,28.06z"/>
<path class="st2" d="M48.77,26.88c-0.19,0-0.36,0.04-0.5,0.12c-0.15,0.08-0.26,0.2-0.35,0.34s-0.13,0.31-0.13,0.5
	c0,0.18,0.04,0.34,0.11,0.48c0.07,0.14,0.18,0.25,0.31,0.33s0.28,0.12,0.45,0.12c0.11,0,0.22-0.02,0.32-0.06s0.18-0.1,0.25-0.17
	c0.03-0.04,0.05-0.09,0.07-0.13c-0.01,0.28-0.05,0.51-0.15,0.66c-0.1,0.17-0.25,0.25-0.45,0.25c-0.1,0-0.21-0.02-0.33-0.06
	s-0.24-0.11-0.38-0.21l-0.2,0.45c0.12,0.1,0.26,0.18,0.42,0.24c0.17,0.05,0.34,0.08,0.51,0.08c0.25,0,0.46-0.06,0.64-0.18
	s0.32-0.29,0.41-0.52c0.1-0.22,0.14-0.49,0.14-0.8c0-0.46-0.1-0.81-0.3-1.05C49.43,27,49.14,26.88,48.77,26.88z M49.18,28.06
	c-0.04,0.07-0.09,0.12-0.15,0.16c-0.07,0.04-0.14,0.06-0.22,0.06c-0.13,0-0.23-0.04-0.31-0.12c-0.07-0.08-0.11-0.19-0.11-0.33
	c0-0.14,0.04-0.25,0.11-0.33s0.18-0.12,0.31-0.12c0.08,0,0.16,0.02,0.22,0.06s0.12,0.09,0.15,0.16c0.04,0.07,0.05,0.15,0.05,0.24
	C49.24,27.91,49.22,27.99,49.18,28.06z"/>
<path class="st2" d="M43.65,32.97c-0.13-0.08-0.29-0.12-0.47-0.12c-0.14,0-0.26,0.02-0.36,0.07c-0.03,0.01-0.06,0.05-0.09,0.06
	v-0.65h1.22v-0.48h-1.83v1.68h0.36c0.07-0.06,0.16-0.11,0.25-0.15s0.19-0.05,0.28-0.05c0.1,0,0.19,0.02,0.26,0.05
	c0.07,0.04,0.13,0.09,0.17,0.16s0.06,0.15,0.06,0.25c0,0.14-0.04,0.25-0.13,0.33c-0.08,0.08-0.21,0.11-0.37,0.11
	c-0.13,0-0.26-0.02-0.39-0.07c-0.13-0.05-0.26-0.12-0.38-0.21l-0.2,0.45c0.11,0.1,0.25,0.18,0.43,0.23
	c0.18,0.06,0.36,0.09,0.54,0.09c0.22,0,0.42-0.04,0.58-0.12c0.16-0.08,0.29-0.19,0.38-0.34c0.09-0.14,0.14-0.31,0.14-0.5
	c0-0.18-0.04-0.34-0.12-0.48C43.9,33.15,43.79,33.05,43.65,32.97z"/>
<rect x="44.41" y="34.05" class="st2" width="0.66" height="0.64"/>
<path class="st2" d="M46.37,31.81c-0.19,0-0.36,0.04-0.5,0.12c-0.15,0.08-0.26,0.2-0.35,0.34s-0.13,0.31-0.13,0.5
	c0,0.18,0.04,0.34,0.11,0.48c0.07,0.14,0.18,0.25,0.31,0.33s0.28,0.12,0.45,0.12c0.11,0,0.22-0.02,0.32-0.06s0.18-0.1,0.25-0.17
	c0.03-0.04,0.05-0.09,0.07-0.13c-0.01,0.28-0.05,0.51-0.15,0.66c-0.1,0.17-0.25,0.25-0.45,0.25c-0.1,0-0.21-0.02-0.33-0.06
	s-0.24-0.11-0.38-0.21l-0.2,0.45c0.12,0.1,0.26,0.18,0.42,0.24c0.17,0.05,0.34,0.08,0.51,0.08c0.25,0,0.46-0.06,0.64-0.18
	s0.32-0.29,0.41-0.52c0.1-0.22,0.14-0.49,0.14-0.8c0-0.46-0.1-0.81-0.3-1.05C47.02,31.94,46.74,31.81,46.37,31.81z M46.78,32.99
	c-0.04,0.07-0.09,0.12-0.15,0.16c-0.07,0.04-0.14,0.06-0.22,0.06c-0.13,0-0.23-0.04-0.31-0.12c-0.07-0.08-0.11-0.19-0.11-0.33
	c0-0.14,0.04-0.25,0.11-0.33s0.18-0.12,0.31-0.12c0.08,0,0.16,0.02,0.22,0.06s0.12,0.09,0.15,0.16c0.04,0.07,0.05,0.15,0.05,0.24
	C46.83,32.84,46.81,32.92,46.78,32.99z"/>
<path class="st2" d="M48.77,31.81c-0.19,0-0.36,0.04-0.5,0.12c-0.15,0.08-0.26,0.2-0.35,0.34s-0.13,0.31-0.13,0.5
	c0,0.18,0.04,0.34,0.11,0.48c0.07,0.14,0.18,0.25,0.31,0.33s0.28,0.12,0.45,0.12c0.11,0,0.22-0.02,0.32-0.06s0.18-0.1,0.25-0.17
	c0.03-0.04,0.05-0.09,0.07-0.13c-0.01,0.28-0.05,0.51-0.15,0.66c-0.1,0.17-0.25,0.25-0.45,0.25c-0.1,0-0.21-0.02-0.33-0.06
	s-0.24-0.11-0.38-0.21l-0.2,0.45c0.12,0.1,0.26,0.18,0.42,0.24c0.17,0.05,0.34,0.08,0.51,0.08c0.25,0,0.46-0.06,0.64-0.18
	s0.32-0.29,0.41-0.52c0.1-0.22,0.14-0.49,0.14-0.8c0-0.46-0.1-0.81-0.3-1.05C49.42,31.94,49.14,31.81,48.77,31.81z M49.18,32.99
	c-0.04,0.07-0.09,0.12-0.15,0.16c-0.07,0.04-0.14,0.06-0.22,0.06c-0.13,0-0.23-0.04-0.31-0.12c-0.07-0.08-0.11-0.19-0.11-0.33
	c0-0.14,0.04-0.25,0.11-0.33s0.18-0.12,0.31-0.12c0.08,0,0.16,0.02,0.22,0.06s0.12,0.09,0.15,0.16c0.04,0.07,0.05,0.15,0.05,0.24
	C49.23,32.84,49.21,32.92,49.18,32.99z"/>
<polygon class="st2" points="26.68,43.91 27.57,43.91 27.57,46.25 28.2,46.25 28.2,43.91 29.09,43.91 29.09,43.4 26.68,43.4 "/>
<path class="st2" d="M31.31,43.55c-0.21-0.12-0.45-0.18-0.74-0.18c-0.29,0-0.53,0.06-0.74,0.18s-0.37,0.29-0.48,0.51
	c-0.11,0.22-0.17,0.48-0.17,0.77c0,0.3,0.06,0.56,0.17,0.78s0.27,0.39,0.48,0.51s0.45,0.18,0.74,0.18c0.29,0,0.53-0.06,0.74-0.18
	s0.37-0.29,0.48-0.51c0.11-0.22,0.17-0.48,0.17-0.78c0-0.3-0.06-0.55-0.17-0.77C31.68,43.83,31.52,43.67,31.31,43.55z M31.13,45.55
	c-0.14,0.17-0.32,0.25-0.56,0.25c-0.24,0-0.42-0.08-0.56-0.25c-0.14-0.17-0.2-0.41-0.2-0.73c0-0.32,0.07-0.56,0.2-0.73
	c0.14-0.16,0.32-0.25,0.56-0.25c0.23,0,0.42,0.08,0.56,0.25c0.14,0.16,0.21,0.41,0.21,0.73C31.34,45.14,31.27,45.39,31.13,45.55z"/>
<polygon class="st2" points="34.46,43.4 32.05,43.4 32.05,43.91 32.94,43.91 32.94,46.25 33.57,46.25 33.57,43.91 34.46,43.91 "/>
<path class="st2" d="M35.42,43.4l-1.31,2.85h0.63l0.27-0.63h1.33l0.27,0.63h0.62l-1.31-2.85H35.42z M35.22,45.14l0.46-1.07
	l0.46,1.07H35.22z"/>
<polygon class="st2" points="38.1,43.4 37.47,43.4 37.47,46.25 39.37,46.25 39.37,45.75 38.1,45.75 "/>
<path class="st2" d="M43.39,44.79c0.15-0.04,0.27-0.1,0.37-0.2c0.12-0.12,0.18-0.27,0.18-0.45c0-0.16-0.04-0.3-0.13-0.41
	s-0.21-0.2-0.37-0.27c-0.15-0.06-0.33-0.09-0.52-0.09c-0.19,0-0.37,0.03-0.52,0.09c-0.15,0.06-0.28,0.15-0.37,0.27
	s-0.13,0.25-0.13,0.41c0,0.17,0.06,0.32,0.18,0.44c0.1,0.1,0.22,0.16,0.37,0.2c-0.17,0.04-0.31,0.1-0.42,0.2
	c-0.13,0.13-0.2,0.29-0.2,0.49c0,0.17,0.05,0.31,0.14,0.43c0.09,0.12,0.22,0.21,0.39,0.28c0.16,0.07,0.35,0.1,0.57,0.1
	c0.21,0,0.4-0.03,0.57-0.1s0.29-0.16,0.39-0.28c0.09-0.12,0.14-0.26,0.14-0.43c0-0.19-0.06-0.36-0.19-0.48
	C43.7,44.89,43.56,44.83,43.39,44.79z M42.6,43.94c0.08-0.06,0.19-0.09,0.31-0.09c0.13,0,0.23,0.03,0.31,0.09
	c0.08,0.06,0.12,0.15,0.12,0.27c0,0.12-0.04,0.21-0.12,0.28c-0.08,0.07-0.19,0.11-0.31,0.13c-0.13-0.02-0.23-0.06-0.31-0.13
	c-0.08-0.07-0.12-0.16-0.12-0.28C42.48,44.09,42.52,44,42.6,43.94z M43.28,45.71c-0.09,0.06-0.22,0.1-0.37,0.1
	c-0.15,0-0.28-0.03-0.37-0.1s-0.14-0.16-0.14-0.28c0-0.12,0.05-0.21,0.14-0.28s0.22-0.12,0.37-0.14c0.15,0.02,0.27,0.07,0.37,0.14
	c0.1,0.07,0.14,0.16,0.14,0.28C43.42,45.55,43.38,45.65,43.28,45.71z"/>
<rect x="44.31" y="45.61" class="st2" width="0.66" height="0.64"/>
<path class="st2" d="M46.27,43.37c-0.19,0-0.36,0.04-0.5,0.12c-0.15,0.08-0.26,0.2-0.35,0.34s-0.13,0.31-0.13,0.5
	c0,0.18,0.04,0.34,0.11,0.48c0.07,0.14,0.18,0.25,0.31,0.33s0.28,0.12,0.45,0.12c0.11,0,0.22-0.02,0.32-0.06s0.18-0.1,0.25-0.17
	c0.03-0.04,0.05-0.09,0.07-0.13c-0.01,0.28-0.05,0.51-0.15,0.66c-0.1,0.17-0.25,0.25-0.45,0.25c-0.1,0-0.21-0.02-0.33-0.06
	s-0.24-0.11-0.38-0.21l-0.2,0.45c0.12,0.1,0.26,0.18,0.42,0.24c0.17,0.05,0.34,0.08,0.51,0.08c0.25,0,0.46-0.06,0.64-0.18
	s0.32-0.29,0.41-0.52c0.1-0.22,0.14-0.49,0.14-0.8c0-0.46-0.1-0.81-0.3-1.05C46.92,43.49,46.64,43.37,46.27,43.37z M46.68,44.55
	c-0.04,0.07-0.09,0.12-0.15,0.16c-0.07,0.04-0.14,0.06-0.22,0.06c-0.13,0-0.23-0.04-0.31-0.12c-0.07-0.08-0.11-0.19-0.11-0.33
	c0-0.14,0.04-0.25,0.11-0.33s0.18-0.12,0.31-0.12c0.08,0,0.16,0.02,0.22,0.06s0.12,0.09,0.15,0.16c0.04,0.07,0.05,0.15,0.05,0.24
	C46.73,44.4,46.71,44.48,46.68,44.55z"/>
<path class="st2" d="M49.66,45c-0.11-0.1-0.25-0.17-0.42-0.21c0.15-0.04,0.27-0.1,0.37-0.2c0.12-0.12,0.18-0.27,0.18-0.45
	c0-0.16-0.04-0.3-0.13-0.41s-0.21-0.2-0.37-0.27c-0.15-0.06-0.33-0.09-0.52-0.09c-0.19,0-0.37,0.03-0.52,0.09
	c-0.15,0.06-0.28,0.15-0.37,0.27s-0.13,0.25-0.13,0.41c0,0.17,0.06,0.32,0.18,0.44c0.1,0.1,0.22,0.16,0.37,0.2
	c-0.17,0.04-0.31,0.1-0.42,0.2c-0.13,0.13-0.2,0.29-0.2,0.49c0,0.17,0.05,0.31,0.14,0.43c0.09,0.12,0.22,0.21,0.39,0.28
	c0.16,0.07,0.35,0.1,0.57,0.1c0.21,0,0.4-0.03,0.57-0.1s0.29-0.16,0.39-0.28c0.09-0.12,0.14-0.26,0.14-0.43
	C49.86,45.28,49.79,45.12,49.66,45z M48.45,43.94c0.08-0.06,0.19-0.09,0.31-0.09c0.13,0,0.23,0.03,0.31,0.09
	c0.08,0.06,0.12,0.15,0.12,0.27c0,0.12-0.04,0.21-0.12,0.28c-0.08,0.07-0.19,0.11-0.31,0.13c-0.13-0.02-0.23-0.06-0.31-0.13
	c-0.08-0.07-0.12-0.16-0.12-0.28C48.33,44.09,48.37,44,48.45,43.94z M49.13,45.71c-0.09,0.06-0.22,0.1-0.37,0.1
	c-0.15,0-0.28-0.03-0.37-0.1s-0.14-0.16-0.14-0.28c0-0.12,0.05-0.21,0.14-0.28s0.22-0.12,0.37-0.14c0.15,0.02,0.27,0.07,0.37,0.14
	c0.1,0.07,0.14,0.16,0.14,0.28C49.28,45.55,49.23,45.65,49.13,45.71z"/>
<path class="st2" d="M22.06,53.51c-0.08-0.07-0.19-0.12-0.32-0.17c-0.13-0.05-0.29-0.09-0.46-0.13c-0.15-0.03-0.27-0.07-0.36-0.1
	c-0.09-0.03-0.15-0.07-0.19-0.11c-0.04-0.04-0.06-0.09-0.06-0.16c0-0.11,0.05-0.2,0.14-0.27c0.1-0.07,0.23-0.1,0.39-0.1
	c0.14,0,0.29,0.02,0.42,0.07c0.14,0.05,0.27,0.12,0.4,0.22l0.2-0.45c-0.07-0.07-0.17-0.13-0.28-0.18s-0.23-0.09-0.36-0.11
	c-0.13-0.03-0.26-0.04-0.4-0.04c-0.23,0-0.42,0.04-0.59,0.12c-0.17,0.08-0.3,0.18-0.4,0.32c-0.09,0.13-0.14,0.29-0.14,0.45
	c0,0.12,0.02,0.22,0.06,0.31c0.04,0.09,0.1,0.17,0.18,0.23c0.08,0.07,0.19,0.13,0.32,0.18s0.29,0.09,0.47,0.13
	c0.15,0.03,0.26,0.06,0.35,0.1c0.09,0.03,0.15,0.07,0.19,0.11s0.06,0.09,0.06,0.16c0,0.1-0.05,0.19-0.15,0.24
	c-0.1,0.06-0.24,0.09-0.42,0.09c-0.17,0-0.33-0.02-0.48-0.07c-0.15-0.05-0.3-0.12-0.44-0.22L20,54.57c0.09,0.07,0.19,0.13,0.31,0.18
	c0.12,0.05,0.25,0.09,0.39,0.11s0.28,0.04,0.42,0.04c0.25,0,0.46-0.04,0.64-0.11c0.18-0.07,0.31-0.17,0.4-0.3s0.14-0.28,0.14-0.46
	c0-0.11-0.02-0.21-0.06-0.3C22.2,53.65,22.14,53.57,22.06,53.51z"/>
<path class="st2" d="M24.1,52.91c-0.14-0.08-0.3-0.13-0.49-0.13c-0.2,0-0.37,0.04-0.52,0.13s-0.26,0.21-0.35,0.37
	c-0.09,0.16-0.13,0.34-0.13,0.55c0,0.22,0.04,0.4,0.13,0.56s0.21,0.28,0.38,0.36c0.16,0.09,0.36,0.13,0.59,0.13
	c0.14,0,0.29-0.02,0.43-0.07s0.26-0.1,0.36-0.18l-0.16-0.41c-0.09,0.06-0.18,0.11-0.29,0.15s-0.21,0.05-0.32,0.05
	c-0.18,0-0.32-0.05-0.41-0.15c-0.07-0.08-0.11-0.22-0.12-0.39h1.33v-0.09c0-0.21-0.04-0.39-0.11-0.55S24.24,53,24.1,52.91z
	 M23.63,53.21c0.13,0,0.23,0.04,0.29,0.13c0.05,0.06,0.07,0.16,0.09,0.26h-0.79c0.02-0.1,0.05-0.18,0.09-0.24
	C23.38,53.26,23.49,53.21,23.63,53.21z"/>
<path class="st2" d="M26.62,52.92c-0.13-0.09-0.29-0.13-0.47-0.13c-0.17,0-0.31,0.04-0.43,0.12c-0.11,0.07-0.18,0.17-0.23,0.29
	l-0.04-0.35h-0.57c0.01,0.1,0.02,0.19,0.03,0.29c0,0.1,0.01,0.19,0.01,0.29v2.31h0.6v-1.18c0.05,0.09,0.11,0.17,0.2,0.23
	c0.12,0.08,0.27,0.12,0.43,0.12c0.18,0,0.33-0.04,0.47-0.13c0.13-0.08,0.24-0.21,0.32-0.36c0.08-0.16,0.12-0.34,0.12-0.55
	c0-0.21-0.04-0.4-0.12-0.56C26.86,53.13,26.76,53.01,26.62,52.92z M26.33,54.29c-0.08,0.1-0.19,0.15-0.34,0.15
	c-0.15,0-0.27-0.05-0.35-0.15c-0.08-0.1-0.12-0.25-0.12-0.44s0.04-0.34,0.12-0.44s0.2-0.15,0.35-0.15c0.15,0,0.26,0.05,0.34,0.16
	c0.08,0.11,0.12,0.25,0.12,0.44C26.45,54.04,26.41,54.19,26.33,54.29z"/>
<path class="st2" d="M28.18,52.17l-0.6,0.2v0.48H27.2v0.45h0.38v0.8c0,0.25,0.07,0.45,0.2,0.59c0.13,0.14,0.32,0.21,0.57,0.21
	c0.06,0,0.12,0,0.18-0.01s0.11-0.02,0.17-0.04v-0.46c-0.04,0.01-0.08,0.01-0.11,0.02c-0.03,0-0.06,0.01-0.09,0.01
	c-0.06,0-0.11-0.01-0.16-0.03s-0.09-0.05-0.12-0.1c-0.03-0.05-0.04-0.11-0.04-0.19v-0.79h0.52v-0.45h-0.52V52.17z"/>
<polygon class="st2" points="31.54,52.02 31.18,52.02 30.34,52.51 30.34,53.05 30.92,52.71 30.92,54.37 30.3,54.37 30.3,54.87 
	32.16,54.87 32.16,54.37 31.54,54.37 "/>
<rect x="32.48" y="54.22" class="st2" width="0.66" height="0.64"/>
<path class="st2" d="M36.14,53.69c0.16-0.17,0.27-0.33,0.34-0.46c0.07-0.14,0.1-0.29,0.1-0.46c0-0.16-0.04-0.3-0.12-0.42
	s-0.19-0.21-0.34-0.27c-0.15-0.06-0.32-0.1-0.51-0.1c-0.18,0-0.37,0.03-0.54,0.09c-0.18,0.06-0.33,0.14-0.44,0.23l0.2,0.45
	c0.13-0.09,0.26-0.16,0.38-0.21c0.13-0.05,0.25-0.07,0.37-0.07c0.13,0,0.22,0.03,0.29,0.08c0.07,0.06,0.1,0.14,0.1,0.25
	c0,0.09-0.02,0.19-0.07,0.28s-0.12,0.2-0.22,0.31l-0.95,1.01v0.46h1.96v-0.5H35.5L36.14,53.69z"/>
<path class="st2" d="M38.07,51.99c-0.34,0-0.61,0.12-0.79,0.37S37,52.97,37,53.44c0,0.48,0.09,0.84,0.27,1.09
	c0.18,0.25,0.45,0.37,0.79,0.37c0.34,0,0.61-0.13,0.79-0.38c0.18-0.25,0.27-0.61,0.27-1.09c0-0.47-0.09-0.83-0.27-1.08
	C38.68,52.11,38.41,51.99,38.07,51.99z M38.41,54.19c-0.07,0.15-0.19,0.23-0.34,0.23c-0.16,0-0.27-0.08-0.34-0.23
	c-0.07-0.15-0.11-0.41-0.11-0.75c0-0.34,0.04-0.58,0.11-0.74c0.07-0.15,0.19-0.23,0.34-0.23c0.16,0,0.27,0.08,0.34,0.23
	c0.07,0.15,0.11,0.4,0.11,0.74C38.52,53.78,38.48,54.04,38.41,54.19z"/>
<polygon class="st2" points="40.92,52.02 40.56,52.02 39.72,52.51 39.72,53.05 40.3,52.71 40.3,54.37 39.68,54.37 39.68,54.87 
	41.54,54.87 41.54,54.37 40.92,54.37 "/>
<path class="st2" d="M44,53.86h-0.39v-1.84h-0.5l-1.3,1.86v0.46h1.19v0.52h0.62v-0.52H44V53.86z M42.37,53.86l0.62-0.89v0.89H42.37z
	"/>
</svg>
