<?xml version="1.0" encoding="utf-8"?>
<!-- Generator: Adobe Illustrator 15.0.0, SVG Export Plug-In . SVG Version: 6.00 Build 0)  -->
<!DOCTYPE svg PUBLIC "-//W3C//DTD SVG 1.1//EN" "http://www.w3.org/Graphics/SVG/1.1/DTD/svg11.dtd" [
	<!ENTITY ns_flows "http://ns.adobe.com/Flows/1.0/">
	<!ENTITY ns_extend "http://ns.adobe.com/Extensibility/1.0/">
	<!ENTITY ns_ai "http://ns.adobe.com/AdobeIllustrator/10.0/">
	<!ENTITY ns_graphs "http://ns.adobe.com/Graphs/1.0/">
]>
<svg version="1.1" id="Layer_1" xmlns:x="&ns_extend;" xmlns:i="&ns_ai;" xmlns:graph="&ns_graphs;"
	 xmlns="http://www.w3.org/2000/svg" xmlns:xlink="http://www.w3.org/1999/xlink" xmlns:a="http://ns.adobe.com/AdobeSVGViewerExtensions/3.0/"
	 x="0px" y="0px" width="64px" height="64px" viewBox="0 0 64 64" enable-background="new 0 0 64 64" xml:space="preserve">
<linearGradient id="SVGID_1_" gradientUnits="userSpaceOnUse" x1="46.8086" y1="57.0078" x2="46.8086" y2="12.2896" gradientTransform="matrix(0.9072 0 0 0.9002 -10.4654 12.6816)">
	<stop  offset="0.0051" style="stop-color:#8400A6"/>
	<stop  offset="0.0292" style="stop-color:#8D07B4"/>
	<stop  offset="0.0831" style="stop-color:#9E14CC"/>
	<stop  offset="0.1437" style="stop-color:#AC1EDF"/>
	<stop  offset="0.2142" style="stop-color:#B525ED"/>
	<stop  offset="0.3033" style="stop-color:#BA29F5"/>
	<stop  offset="0.4727" style="stop-color:#BC2AF7"/>
	<stop  offset="0.5806" style="stop-color:#B222E8"/>
	<stop  offset="0.7867" style="stop-color:#970EC1"/>
	<stop  offset="0.9152" style="stop-color:#8400A6"/>
	<a:midPointStop  offset="0.0051" style="stop-color:#8400A6"/>
	<a:midPointStop  offset="0.1795" style="stop-color:#8400A6"/>
	<a:midPointStop  offset="0.4727" style="stop-color:#BC2AF7"/>
	<a:midPointStop  offset="0.5616" style="stop-color:#BC2AF7"/>
	<a:midPointStop  offset="0.9152" style="stop-color:#8400A6"/>
</linearGradient>
<path fill="url(#SVGID_1_)" d="M43.797,33.991c0-3.902,2.886-10.247,2.886-10.247H17.318c0,0,2.886,6.344,2.886,10.247
	c0,7.135-3.137,11.93-3.137,13.824c0,0,10.262,7.137,12.248,15.052c1.549,1.458,3.714,1.562,5.371,0
	c1.986-7.915,12.248-15.052,12.248-15.052C46.934,45.921,43.797,41.126,43.797,33.991z"/>
<linearGradient id="SVGID_2_" gradientUnits="userSpaceOnUse" x1="32.0005" y1="28.1035" x2="32.0005" y2="0">
	<stop  offset="0.0051" style="stop-color:#8400A6"/>
	<stop  offset="0.0817" style="stop-color:#8A04AE"/>
	<stop  offset="0.4836" style="stop-color:#A519D6"/>
	<stop  offset="0.8037" style="stop-color:#B625EE"/>
	<stop  offset="1" style="stop-color:#BC2AF7"/>
	<a:midPointStop  offset="0.0051" style="stop-color:#8400A6"/>
	<a:midPointStop  offset="0.4" style="stop-color:#8400A6"/>
	<a:midPointStop  offset="1" style="stop-color:#BC2AF7"/>
</linearGradient>
<path fill="url(#SVGID_2_)" d="M45.046,9.74C44.064,7.771,43.627,0,43.627,0h-3.226c0,0,0.207,7.824-0.353,10.328
	c-0.746,3.343-2.136,6.637-8.039,6.637c-5.842,0-7.228-3.235-7.976-6.55C23.464,7.892,23.684,0,23.684,0H20.46
	c0,0-0.402,7.708-1.415,9.63c-5.486,10.41-3.196,18.474,3.959,18.474c4.263,0,9.001-1.376,9.001-1.376s4.741,1.376,9.004,1.376
	C48.413,28.104,50.228,20.142,45.046,9.74z"/>
</svg>
