<?xml version="1.0" encoding="utf-8"?>
<!-- Generator: Adobe Illustrator 15.0.0, SVG Export Plug-In . SVG Version: 6.00 Build 0)  -->
<!DOCTYPE svg PUBLIC "-//W3C//DTD SVG 1.1//EN" "http://www.w3.org/Graphics/SVG/1.1/DTD/svg11.dtd" [
	<!ENTITY ns_flows "http://ns.adobe.com/Flows/1.0/">
	<!ENTITY ns_extend "http://ns.adobe.com/Extensibility/1.0/">
	<!ENTITY ns_ai "http://ns.adobe.com/AdobeIllustrator/10.0/">
	<!ENTITY ns_graphs "http://ns.adobe.com/Graphs/1.0/">
]>
<svg version="1.1" id="Layer_1" xmlns:x="&ns_extend;" xmlns:i="&ns_ai;" xmlns:graph="&ns_graphs;"
	 xmlns="http://www.w3.org/2000/svg" xmlns:xlink="http://www.w3.org/1999/xlink" xmlns:a="http://ns.adobe.com/AdobeSVGViewerExtensions/3.0/"
	 x="0px" y="0px" width="64px" height="64px" viewBox="0 0 64 64" enable-background="new 0 0 64 64" xml:space="preserve">
<path fill="#364F00" d="M40.019,11.557c-0.059,0.419-1.468,0.257-3.58-0.631c-0.225-0.098-0.553,0.582-0.391,0.644
	c0.378,0.148,3.302,0.998,4.274,0.51C43.019,10.73,40.484,8.321,40.019,11.557z"/>
<path fill="#364F00" d="M27.562,10.926c-2.112,0.888-3.521,1.05-3.582,0.631c-0.464-3.236-3-0.827-0.302,0.523
	c0.975,0.487,3.895-0.362,4.276-0.51C28.114,11.508,27.786,10.828,27.562,10.926z"/>
<radialGradient id="SVGID_1_" cx="296.8408" cy="85.3691" r="11.0311" gradientTransform="matrix(0.5573 0 0 0.7208 -133.8145 -50.636)" gradientUnits="userSpaceOnUse">
	<stop  offset="0" style="stop-color:#72C900"/>
	<stop  offset="0.2012" style="stop-color:#6FC501"/>
	<stop  offset="0.4067" style="stop-color:#67B903"/>
	<stop  offset="0.6141" style="stop-color:#59A407"/>
	<stop  offset="0.8216" style="stop-color:#47880C"/>
	<stop  offset="1" style="stop-color:#326911"/>
	<a:midPointStop  offset="0" style="stop-color:#72C900"/>
	<a:midPointStop  offset="0.703" style="stop-color:#72C900"/>
	<a:midPointStop  offset="1" style="stop-color:#326911"/>
</radialGradient>
<path fill="url(#SVGID_1_)" d="M35.236,9.456c-0.882-0.285-2.396,0.584-3.234,0.584s-2.356-0.871-3.24-0.584
	c-1.639,0.531-2.626,4.937-1.623,6.052c1.72,1.917,8.003,1.917,9.723,0C37.862,14.392,36.875,9.985,35.236,9.456z"/>
<path fill="#364F00" d="M46.849,23.951c0.536,0.383-0.518,3.769,4.018,9.587c0.443,0.569,1.161-0.216,0.946-0.58
	C49.274,28.664,48.087,22.984,46.849,23.951z"/>
<path fill="#364F00" d="M51.489,33.363c-0.232,0.495,1.576,2.68,5.226,6.348c0.574,0.582,1.347-0.701,0.997-1.045
	C53.496,34.416,51.734,32.845,51.489,33.363z"/>
<path fill="#364F00" d="M60.999,41.044c0.041-0.319-1.199-0.985-3.23-2.175c-0.378-0.22-0.744,0.573-0.516,0.701
	C59.3,40.734,60.952,41.381,60.999,41.044z"/>
<path fill="#364F00" d="M47.547,23.746c0.146,0.043-0.217,1.667-0.458,1.702c-2.069,0.301-5.142,2.673-6.364,2.313
	c-0.742-0.219-0.168-1.704,0.144-1.742C43.537,25.687,45.471,23.131,47.547,23.746z"/>
<path fill="#364F00" d="M49.638,40.338c0.187,0.631-2.727,2.654-2.73,10.03c0,0.72,1.048,0.543,1.103,0.124
	C48.651,45.546,51.208,40.338,49.638,40.338z"/>
<path fill="#364F00" d="M47.506,50.613c-0.321,0.441,1.046,2.926,3.942,7.214c0.454,0.678,1.453-0.438,1.176-0.841
	C49.28,52.021,47.844,50.148,47.506,50.613z"/>
<path fill="#364F00" d="M55.405,59.938c0.102-0.307-0.991-1.191-2.765-2.741c-0.33-0.286-0.838,0.423-0.64,0.591
	C53.795,59.314,55.296,60.26,55.405,59.938z"/>
<path fill="#364F00" d="M50.366,40.65c0.061,0.14-1.416,0.908-1.6,0.747c-1.563-1.386-5.359-2.2-5.871-3.368
	c-0.312-0.707,1.195-1.227,1.424-1.014C46.296,38.84,49.496,38.668,50.366,40.65z"/>
<path fill="#364F00" d="M45.312,16.088c0.11-0.469-0.881,0.392-1.374-5.487c-0.042-0.507,0.776-0.485,0.842-0.194
	C45.556,13.84,45.754,16,45.312,16.088z"/>
<path fill="#364F00" d="M44.383,10.37c-0.296-0.065-0.694-1.512-1.168-4.188c-0.076-0.423,0.753-0.322,0.796-0.068
	C44.563,9.21,44.698,10.44,44.383,10.37z"/>
<path fill="#364F00" d="M44.004,4.006c0.158,0.084,0.057,0.804-0.066,2.02c-0.024,0.225-0.5,0.119-0.485-0.016
	C43.592,4.798,43.839,3.915,44.004,4.006z"/>
<path fill="#364F00" d="M45.813,15.844c0.036-0.117-1.175-0.643-1.299-0.5c-1.086,1.217-3.937,2.118-4.229,3.091
	c-0.172,0.592,1.035,0.913,1.195,0.727C42.837,17.564,45.321,17.497,45.813,15.844z"/>
<path fill="#364F00" d="M17.151,23.951c-0.536,0.383,0.518,3.769-4.018,9.587c-0.443,0.569-1.161-0.216-0.946-0.58
	C14.726,28.664,15.913,22.984,17.151,23.951z"/>
<path fill="#364F00" d="M12.511,33.363c0.232,0.495-1.576,2.68-5.226,6.348c-0.574,0.582-1.347-0.701-0.997-1.045
	C10.504,34.416,12.266,32.845,12.511,33.363z"/>
<path fill="#364F00" d="M3.001,41.044c-0.042-0.319,1.199-0.985,3.23-2.175c0.377-0.22,0.744,0.573,0.516,0.701
	C4.7,40.734,3.048,41.381,3.001,41.044z"/>
<path fill="#364F00" d="M16.452,23.746c-0.145,0.043,0.218,1.667,0.459,1.702c2.069,0.301,5.142,2.673,6.364,2.313
	c0.742-0.219,0.168-1.704-0.144-1.742C20.463,25.687,18.529,23.131,16.452,23.746z"/>
<path fill="#364F00" d="M14.362,40.338c-0.187,0.631,2.727,2.654,2.73,10.03c0,0.72-1.048,0.543-1.103,0.124
	C15.349,45.546,12.792,40.338,14.362,40.338z"/>
<path fill="#364F00" d="M16.494,50.613c0.321,0.441-1.046,2.926-3.942,7.214c-0.455,0.678-1.453-0.438-1.176-0.841
	C14.72,52.021,16.156,50.148,16.494,50.613z"/>
<path fill="#364F00" d="M8.595,59.938c-0.102-0.307,0.991-1.191,2.765-2.741c0.33-0.286,0.838,0.423,0.64,0.591
	C10.205,59.314,8.704,60.26,8.595,59.938z"/>
<path fill="#364F00" d="M13.634,40.65c-0.061,0.14,1.416,0.908,1.6,0.747c1.563-1.386,5.359-2.2,5.871-3.368
	c0.312-0.707-1.195-1.227-1.424-1.014C17.704,38.84,14.504,38.668,13.634,40.65z"/>
<path fill="#364F00" d="M18.688,16.088c-0.11-0.469,0.881,0.392,1.374-5.487c0.041-0.507-0.776-0.485-0.842-0.194
	C18.444,13.84,18.246,16,18.688,16.088z"/>
<path fill="#364F00" d="M19.617,10.37c0.296-0.065,0.694-1.512,1.168-4.188c0.076-0.423-0.753-0.322-0.796-0.068
	C19.438,9.21,19.302,10.44,19.617,10.37z"/>
<path fill="#364F00" d="M19.996,4.006c-0.158,0.084-0.059,0.804,0.066,2.02c0.024,0.225,0.5,0.119,0.485-0.016
	C20.408,4.798,20.16,3.915,19.996,4.006z"/>
<path fill="#364F00" d="M18.188,15.844c-0.036-0.117,1.175-0.643,1.299-0.5c1.086,1.217,3.935,2.118,4.229,3.091
	c0.172,0.592-1.035,0.913-1.195,0.727C21.163,17.564,18.679,17.497,18.188,15.844z"/>
<radialGradient id="SVGID_2_" cx="-245.1611" cy="-128.1035" r="11.8263" gradientTransform="matrix(1.2794 0 0 1.7271 345.6693 254.5499)" gradientUnits="userSpaceOnUse">
	<stop  offset="0" style="stop-color:#D6A904"/>
	<stop  offset="0.1552" style="stop-color:#D2A704"/>
	<stop  offset="0.3138" style="stop-color:#C6A004"/>
	<stop  offset="0.4739" style="stop-color:#B19403"/>
	<stop  offset="0.6352" style="stop-color:#948402"/>
	<stop  offset="0.7972" style="stop-color:#706F01"/>
	<stop  offset="0.9579" style="stop-color:#435600"/>
	<stop  offset="1" style="stop-color:#364F00"/>
	<a:midPointStop  offset="0" style="stop-color:#D6A904"/>
	<a:midPointStop  offset="0.703" style="stop-color:#D6A904"/>
	<a:midPointStop  offset="1" style="stop-color:#364F00"/>
</radialGradient>
<path fill="url(#SVGID_2_)" d="M25.203,25.856c-2.274-0.038-6.938-0.226-6.938,5.946c0,17.254,6.02,20.987,13.735,20.987
	c7.718,0,13.736-3.731,13.736-20.988c0-6.173-4.663-5.983-6.938-5.945C35.4,25.912,28.602,25.912,25.203,25.856z"/>
<path fill="#364F00" d="M32.372,34.576c0,23.703-0.744,23.703-0.744,0C31.628,23.57,32.372,23.57,32.372,34.576z"/>
<path opacity="0.2" fill="#261800" d="M27.193,51.675c0,0-3.051-16.956-0.362-28.815C25.381,33.739,27.193,51.675,27.193,51.675z"/>
<path opacity="0.2" fill="#261800" d="M29.64,51.946c0,0-2.446-17.198,0-27.548C28.764,35.412,29.64,51.946,29.64,51.946z"/>
<path opacity="0.2" fill="#261800" d="M24.776,50.137c0,0-3.111-14.906-1.026-25.286C22.753,35.001,24.776,50.137,24.776,50.137z"/>
<path opacity="0.2" fill="#261800" d="M22.179,48.175c0,0-3.979-13.603-0.544-25.526C19.49,34.084,22.179,48.175,22.179,48.175z"/>
<path opacity="0.2" fill="#261800" d="M36.807,51.675c0,0,3.051-16.956,0.362-28.815C38.619,33.739,36.807,51.675,36.807,51.675z"/>
<path opacity="0.2" fill="#261800" d="M34.36,51.946c0,0,2.446-17.198,0-27.548C35.236,35.412,34.36,51.946,34.36,51.946z"/>
<path opacity="0.2" fill="#261800" d="M39.224,50.137c0,0,3.111-14.906,1.026-25.286C41.247,35.001,39.224,50.137,39.224,50.137z"/>
<path opacity="0.2" fill="#261800" d="M41.821,48.175c0,0,3.979-13.603,0.544-25.526C44.51,34.084,41.821,48.175,41.821,48.175z"/>
<radialGradient id="SVGID_3_" cx="-158.8267" cy="-160.999" r="13.6431" gradientTransform="matrix(1.1602 0 0 1.0273 215.0548 183.2792)" gradientUnits="userSpaceOnUse">
	<stop  offset="0" style="stop-color:#72C900"/>
	<stop  offset="0.2012" style="stop-color:#6FC501"/>
	<stop  offset="0.4067" style="stop-color:#67B903"/>
	<stop  offset="0.6141" style="stop-color:#59A407"/>
	<stop  offset="0.8216" style="stop-color:#47880C"/>
	<stop  offset="1" style="stop-color:#326911"/>
	<a:midPointStop  offset="0" style="stop-color:#72C900"/>
	<a:midPointStop  offset="0.703" style="stop-color:#72C900"/>
	<a:midPointStop  offset="1" style="stop-color:#326911"/>
</radialGradient>
<path fill="url(#SVGID_3_)" d="M36.061,14.131c-3.356-0.908-4.757-0.908-8.122,0c-3.624,0.979-9.707,5.441-9.707,10.779
	c0,6.047,10.166,2.312,13.769,2.312c3.601,0,13.769,3.735,13.769-2.312C45.769,19.573,39.684,15.111,36.061,14.131z"/>
<radialGradient id="SVGID_4_" cx="28.1548" cy="32.1206" r="6.7782" gradientTransform="matrix(0.9666 0 0 0.9655 4.9058 -2.7654)" gradientUnits="userSpaceOnUse">
	<stop  offset="0" style="stop-color:#72C900"/>
	<stop  offset="0.2012" style="stop-color:#6FC501"/>
	<stop  offset="0.4067" style="stop-color:#67B903"/>
	<stop  offset="0.6141" style="stop-color:#59A407"/>
	<stop  offset="0.8216" style="stop-color:#47880C"/>
	<stop  offset="1" style="stop-color:#326911"/>
	<a:midPointStop  offset="0" style="stop-color:#72C900"/>
	<a:midPointStop  offset="0.703" style="stop-color:#72C900"/>
	<a:midPointStop  offset="1" style="stop-color:#326911"/>
</radialGradient>
<path fill="url(#SVGID_4_)" d="M27.896,27.956c0-2.177,8.211-2.177,8.211,0c0,2.766-4.104,7.045-4.104,7.045
	S27.896,30.722,27.896,27.956z"/>
</svg>
