<?xml version="1.0" encoding="utf-8"?>
<!-- Generator: Adobe Illustrator 15.0.0, SVG Export Plug-In . SVG Version: 6.00 Build 0)  -->
<!DOCTYPE svg PUBLIC "-//W3C//DTD SVG 1.1//EN" "http://www.w3.org/Graphics/SVG/1.1/DTD/svg11.dtd" [
	<!ENTITY ns_flows "http://ns.adobe.com/Flows/1.0/">
	<!ENTITY ns_extend "http://ns.adobe.com/Extensibility/1.0/">
	<!ENTITY ns_ai "http://ns.adobe.com/AdobeIllustrator/10.0/">
	<!ENTITY ns_graphs "http://ns.adobe.com/Graphs/1.0/">
]>
<svg version="1.1" id="Layer_1" xmlns:x="&ns_extend;" xmlns:i="&ns_ai;" xmlns:graph="&ns_graphs;"
	 xmlns="http://www.w3.org/2000/svg" xmlns:xlink="http://www.w3.org/1999/xlink" xmlns:a="http://ns.adobe.com/AdobeSVGViewerExtensions/3.0/"
	 x="0px" y="0px" width="64px" height="64px" viewBox="0 0 64 64" enable-background="new 0 0 64 64" xml:space="preserve">
<rect x="22.072" y="46.444" fill="#1A1626" width="4.223" height="8.353"/>
<polygon fill="#1A1626" points="11.916,41.999 4.983,59.346 7.418,62 23.117,57.666 23.117,55.126 9.082,58.113 14.615,43.138 "/>
<polygon fill="#373345" points="7.418,59.944 13.698,42.752 11.916,41.999 4.983,57.788 4.983,59.346 7.418,62 "/>
<polygon fill="#373345" points="23.117,56.228 23.117,55.144 9.082,58.113 8.546,59.904 "/>
<polygon fill="#373345" points="34.317,41.999 41.25,59.346 38.814,62 23.117,57.666 23.117,55.126 37.151,58.113 31.619,43.138 "/>
<polygon fill="#1A1626" points="38.814,59.944 32.536,42.752 34.317,41.999 41.25,57.788 41.25,59.346 38.814,62 "/>
<polygon fill="#1A1626" points="23.117,56.228 23.117,55.144 37.151,58.113 37.688,59.904 "/>
<linearGradient id="SVGID_1_" gradientUnits="userSpaceOnUse" x1="17.5" y1="57.291" x2="28.7329" y2="57.291">
	<stop  offset="0.1394" style="stop-color:#373345"/>
	<stop  offset="0.543" style="stop-color:#2C2839"/>
	<stop  offset="1" style="stop-color:#1A1626"/>
	<a:midPointStop  offset="0.1394" style="stop-color:#373345"/>
	<a:midPointStop  offset="0.5758" style="stop-color:#373345"/>
	<a:midPointStop  offset="1" style="stop-color:#1A1626"/>
</linearGradient>
<path fill="url(#SVGID_1_)" d="M28.733,54.346H17.5c0,0,0.121,3.173,0.837,4.525c0.963,1.82,8.596,1.82,9.559,0
	C28.614,57.52,28.733,54.346,28.733,54.346z"/>
<path fill="#1A1626" d="M23.117,53.535c3.103,0,5.616,0.362,5.616,0.811s-1.904,0.889-5.616,0.889s-5.617-0.44-5.617-0.889
	S20.015,53.535,23.117,53.535z"/>
<linearGradient id="SVGID_2_" gradientUnits="userSpaceOnUse" x1="17.7251" y1="54.3262" x2="28.5083" y2="54.3262">
	<stop  offset="0" style="stop-color:#1A1626"/>
	<stop  offset="0.457" style="stop-color:#2C2839"/>
	<stop  offset="0.8606" style="stop-color:#373345"/>
	<a:midPointStop  offset="0" style="stop-color:#1A1626"/>
	<a:midPointStop  offset="0.4242" style="stop-color:#1A1626"/>
	<a:midPointStop  offset="0.8606" style="stop-color:#373345"/>
</linearGradient>
<path fill="url(#SVGID_2_)" d="M28.508,54.324c0,0.421-2.415,0.763-5.392,0.763c-2.978,0-5.392-0.342-5.392-0.763
	c0-0.418,2.414-0.759,5.392-0.759C26.094,53.565,28.508,53.906,28.508,54.324z"/>
<linearGradient id="SVGID_3_" gradientUnits="userSpaceOnUse" x1="17.7251" y1="54.707" x2="28.508" y2="54.707">
	<stop  offset="0" style="stop-color:#E8C087"/>
	<stop  offset="0.2899" style="stop-color:#F1CD99"/>
	<stop  offset="0.7163" style="stop-color:#FBDCAE"/>
	<stop  offset="1" style="stop-color:#FFE1B5"/>
	<a:midPointStop  offset="0" style="stop-color:#E8C087"/>
	<a:midPointStop  offset="0.3818" style="stop-color:#E8C087"/>
	<a:midPointStop  offset="1" style="stop-color:#FFE1B5"/>
</linearGradient>
<path fill="url(#SVGID_3_)" d="M27.76,54.706c-0.933-0.227-2.653-0.38-4.644-0.38s-3.71,0.153-4.644,0.38
	c0.933,0.228,2.653,0.381,4.644,0.381S26.827,54.934,27.76,54.706z"/>
<linearGradient id="SVGID_4_" gradientUnits="userSpaceOnUse" x1="23.1172" y1="54.8916" x2="23.1172" y2="48.3105">
	<stop  offset="0" style="stop-color:#FF7B00"/>
	<stop  offset="0.2417" style="stop-color:#FB6B00"/>
	<stop  offset="0.7114" style="stop-color:#F04200"/>
	<stop  offset="1" style="stop-color:#E82500"/>
	<a:midPointStop  offset="0" style="stop-color:#FF7B00"/>
	<a:midPointStop  offset="0.5576" style="stop-color:#FF7B00"/>
	<a:midPointStop  offset="1" style="stop-color:#E82500"/>
</linearGradient>
<path fill="url(#SVGID_4_)" d="M22.987,48.311c-0.521,2.354-5.276,6.581-0.043,6.581C27.622,54.892,25.526,49.837,22.987,48.311z"/>
<linearGradient id="SVGID_5_" gradientUnits="userSpaceOnUse" x1="23.0938" y1="54.8916" x2="23.0938" y2="49.21">
	<stop  offset="0" style="stop-color:#FFAA00"/>
	<stop  offset="0.1749" style="stop-color:#FFA400"/>
	<stop  offset="0.4181" style="stop-color:#FF9200"/>
	<stop  offset="0.7014" style="stop-color:#FF7400"/>
	<stop  offset="1" style="stop-color:#FF4D00"/>
	<a:midPointStop  offset="0" style="stop-color:#FFAA00"/>
	<a:midPointStop  offset="0.6364" style="stop-color:#FFAA00"/>
	<a:midPointStop  offset="1" style="stop-color:#FF4D00"/>
</linearGradient>
<path fill="url(#SVGID_5_)" d="M23.306,49.21c-0.352,1.211-4.613,5.682-0.362,5.682C26.871,54.892,24.515,50.28,23.306,49.21z"/>
<linearGradient id="SVGID_6_" gradientUnits="userSpaceOnUse" x1="-309.2065" y1="54.8916" x2="-309.2065" y2="50.0781" gradientTransform="matrix(-1 0 0 1 -286.2363 0)">
	<stop  offset="0" style="stop-color:#FFB500"/>
	<stop  offset="0.0869" style="stop-color:#FFBA00"/>
	<stop  offset="0.6742" style="stop-color:#FFDA00"/>
	<stop  offset="1" style="stop-color:#FFE600"/>
	<a:midPointStop  offset="0" style="stop-color:#FFB500"/>
	<a:midPointStop  offset="0.4242" style="stop-color:#FFB500"/>
	<a:midPointStop  offset="1" style="stop-color:#FFE600"/>
</linearGradient>
<path fill="url(#SVGID_6_)" d="M22.944,54.892c-2.929,0-0.446-3.626,0.635-4.813C23.693,52.327,25.665,54.892,22.944,54.892z"/>
<linearGradient id="SVGID_7_" gradientUnits="userSpaceOnUse" x1="-309.2241" y1="54.6729" x2="-309.2241" y2="50.916" gradientTransform="matrix(-1 0 0 1 -286.2363 0)">
	<stop  offset="0.2424" style="stop-color:#FFF2AB"/>
	<stop  offset="0.3596" style="stop-color:#FFF1A5"/>
	<stop  offset="0.5236" style="stop-color:#FFEF92"/>
	<stop  offset="0.7153" style="stop-color:#FFEC74"/>
	<stop  offset="0.9263" style="stop-color:#FFE74B"/>
	<stop  offset="1" style="stop-color:#FFE53B"/>
	<a:midPointStop  offset="0.2424" style="stop-color:#FFF2AB"/>
	<a:midPointStop  offset="0.6349" style="stop-color:#FFF2AB"/>
	<a:midPointStop  offset="1" style="stop-color:#FFE53B"/>
</linearGradient>
<path fill="url(#SVGID_7_)" d="M22.99,54.673c-1.292,0-0.846-2.218,0.421-3.757C23.26,52.739,24.533,54.673,22.99,54.673z"/>
<linearGradient id="SVGID_8_" gradientUnits="userSpaceOnUse" x1="3.917" y1="44.4902" x2="42.3164" y2="44.4902">
	<stop  offset="0.1394" style="stop-color:#373345"/>
	<stop  offset="0.543" style="stop-color:#2C2839"/>
	<stop  offset="1" style="stop-color:#1A1626"/>
	<a:midPointStop  offset="0.1394" style="stop-color:#373345"/>
	<a:midPointStop  offset="0.5758" style="stop-color:#373345"/>
	<a:midPointStop  offset="1" style="stop-color:#1A1626"/>
</linearGradient>
<path fill="url(#SVGID_8_)" d="M42.316,42.65c0,3.473-8.596,6.284-19.2,6.284s-19.2-2.812-19.2-6.284S42.316,39.178,42.316,42.65z"
	/>
<linearGradient id="SVGID_9_" gradientUnits="userSpaceOnUse" x1="0" y1="36.7666" x2="46.2324" y2="36.7666">
	<stop  offset="0" style="stop-color:#FF0000"/>
	<stop  offset="0.1552" style="stop-color:#FA0000"/>
	<stop  offset="0.3332" style="stop-color:#EC0000"/>
	<stop  offset="0.5226" style="stop-color:#D50000"/>
	<stop  offset="0.7185" style="stop-color:#B50000"/>
	<stop  offset="0.8485" style="stop-color:#9C0000"/>
	<a:midPointStop  offset="0" style="stop-color:#FF0000"/>
	<a:midPointStop  offset="0.6786" style="stop-color:#FF0000"/>
	<a:midPointStop  offset="0.8485" style="stop-color:#9C0000"/>
</linearGradient>
<path fill="url(#SVGID_9_)" d="M46.232,27.088H0c0,0,0.5,10.424,3.454,14.876c3.958,5.975,35.366,5.975,39.325,0
	C45.734,37.516,46.232,27.088,46.232,27.088z"/>
<linearGradient id="SVGID_10_" gradientUnits="userSpaceOnUse" x1="42.2725" y1="34.6719" x2="64" y2="34.6719">
	<stop  offset="0.1212" style="stop-color:#9C0000"/>
	<stop  offset="1" style="stop-color:#FF0000"/>
	<a:midPointStop  offset="0.1212" style="stop-color:#9C0000"/>
	<a:midPointStop  offset="0.503" style="stop-color:#9C0000"/>
	<a:midPointStop  offset="1" style="stop-color:#FF0000"/>
</linearGradient>
<path fill="url(#SVGID_10_)" d="M61.822,28.615c-7.115-0.184-11.001,4.096-16.982,2.344c0,0-0.654,4.979-2.567,9.775
	c6.935-5.222,13.094-0.381,20.985-4.072C64.648,36.011,64.037,28.674,61.822,28.615z"/>
<path fill="#FF0000" d="M23.117,24.428c12.768,0,23.116,1.19,23.116,2.66c0,1.473-7.837,2.923-23.116,2.923
	C7.837,30.011,0,28.561,0,27.088C0,25.618,10.349,24.428,23.117,24.428z"/>
<linearGradient id="SVGID_11_" gradientUnits="userSpaceOnUse" x1="0.9316" y1="27.0229" x2="45.3037" y2="27.0229">
	<stop  offset="0" style="stop-color:#E8C087"/>
	<stop  offset="0.2899" style="stop-color:#F1CD99"/>
	<stop  offset="0.7163" style="stop-color:#FBDCAE"/>
	<stop  offset="1" style="stop-color:#FFE1B5"/>
	<a:midPointStop  offset="0" style="stop-color:#E8C087"/>
	<a:midPointStop  offset="0.3818" style="stop-color:#E8C087"/>
	<a:midPointStop  offset="1" style="stop-color:#FFE1B5"/>
</linearGradient>
<ellipse fill="url(#SVGID_11_)" cx="23.118" cy="27.022" rx="22.186" ry="2.5"/>
<linearGradient id="SVGID_12_" gradientUnits="userSpaceOnUse" x1="199.6152" y1="-1029.9971" x2="203.0713" y2="-1029.9971" gradientTransform="matrix(0.7127 0.7014 -0.7014 0.7127 -808.8754 601.804)">
	<stop  offset="0" style="stop-color:#B06538"/>
	<stop  offset="0.1813" style="stop-color:#90522D"/>
	<stop  offset="0.3757" style="stop-color:#764323"/>
	<stop  offset="0.5751" style="stop-color:#63381C"/>
	<stop  offset="0.7802" style="stop-color:#583118"/>
	<stop  offset="1" style="stop-color:#542F17"/>
	<a:midPointStop  offset="0" style="stop-color:#B06538"/>
	<a:midPointStop  offset="0.2788" style="stop-color:#B06538"/>
	<a:midPointStop  offset="1" style="stop-color:#542F17"/>
</linearGradient>
<path fill="url(#SVGID_12_)" d="M57.574,10.891c1.871-1.938-0.548-4.403-2.421-2.466L57.574,10.891z"/>
<linearGradient id="SVGID_13_" gradientUnits="userSpaceOnUse" x1="199.3994" y1="-1020.3496" x2="203.3096" y2="-1020.3496" gradientTransform="matrix(0.7127 0.7014 -0.7014 0.7127 -808.8754 601.804)">
	<stop  offset="0" style="stop-color:#B06538"/>
	<stop  offset="0.1761" style="stop-color:#AA6136"/>
	<stop  offset="0.421" style="stop-color:#98572F"/>
	<stop  offset="0.7063" style="stop-color:#7A4525"/>
	<stop  offset="1" style="stop-color:#542F17"/>
	<a:midPointStop  offset="0" style="stop-color:#B06538"/>
	<a:midPointStop  offset="0.6364" style="stop-color:#B06538"/>
	<a:midPointStop  offset="1" style="stop-color:#542F17"/>
</linearGradient>
<path fill="url(#SVGID_13_)" d="M57.875,10.895c0.387-0.401-2.357-3.154-2.746-2.754L42.473,21.033l2.725,2.774L57.875,10.895z"/>
<path fill="#4A3324" d="M45.197,23.808c-0.162,0.165-0.902-0.322-1.656-1.088c-0.752-0.767-1.229-1.522-1.068-1.687
	c0.163-0.165,0.904,0.321,1.656,1.088C44.881,22.889,45.359,23.644,45.197,23.808z"/>
<linearGradient id="SVGID_14_" gradientUnits="userSpaceOnUse" x1="200.8701" y1="-1006.2949" x2="201.873" y2="-1006.2949" gradientTransform="matrix(0.7127 0.7014 -0.7014 0.7127 -808.8754 601.804)">
	<stop  offset="0" style="stop-color:#DFE5E8"/>
	<stop  offset="0.1554" style="stop-color:#D9DFE2"/>
	<stop  offset="0.3601" style="stop-color:#C9CFD2"/>
	<stop  offset="0.5924" style="stop-color:#AEB4B6"/>
	<stop  offset="0.8431" style="stop-color:#888F90"/>
	<stop  offset="1" style="stop-color:#6D7475"/>
	<a:midPointStop  offset="0" style="stop-color:#DFE5E8"/>
	<a:midPointStop  offset="0.6485" style="stop-color:#DFE5E8"/>
	<a:midPointStop  offset="1" style="stop-color:#6D7475"/>
</linearGradient>
<path fill="url(#SVGID_14_)" d="M44.21,22.748c0.094-0.098-0.623-0.783-0.717-0.687l-6.853,6.979L38.17,28.9L44.21,22.748z"/>
<linearGradient id="SVGID_15_" gradientUnits="userSpaceOnUse" x1="289.751" y1="-760.8657" x2="293.1895" y2="-760.8657" gradientTransform="matrix(0.8802 0.4746 -0.4746 0.8802 -570.2039 534.5004)">
	<stop  offset="0" style="stop-color:#B06538"/>
	<stop  offset="0.1813" style="stop-color:#90522D"/>
	<stop  offset="0.3757" style="stop-color:#764323"/>
	<stop  offset="0.5751" style="stop-color:#63381C"/>
	<stop  offset="0.7802" style="stop-color:#583118"/>
	<stop  offset="1" style="stop-color:#542F17"/>
	<a:midPointStop  offset="0" style="stop-color:#B06538"/>
	<a:midPointStop  offset="0.2788" style="stop-color:#B06538"/>
	<a:midPointStop  offset="1" style="stop-color:#542F17"/>
</linearGradient>
<path fill="url(#SVGID_15_)" d="M48.479,4.84c1.266-2.395-1.732-4.071-3-1.68L48.479,4.84z"/>
<linearGradient id="SVGID_16_" gradientUnits="userSpaceOnUse" x1="289.5342" y1="-751.1704" x2="293.4053" y2="-751.1704" gradientTransform="matrix(0.8802 0.4746 -0.4746 0.8802 -570.2039 534.5004)">
	<stop  offset="0" style="stop-color:#B06538"/>
	<stop  offset="0.1761" style="stop-color:#AA6136"/>
	<stop  offset="0.421" style="stop-color:#98572F"/>
	<stop  offset="0.7063" style="stop-color:#7A4525"/>
	<stop  offset="1" style="stop-color:#542F17"/>
	<a:midPointStop  offset="0" style="stop-color:#B06538"/>
	<a:midPointStop  offset="0.6364" style="stop-color:#B06538"/>
	<a:midPointStop  offset="1" style="stop-color:#542F17"/>
</linearGradient>
<path fill="url(#SVGID_16_)" d="M48.77,4.758c0.262-0.494-3.129-2.356-3.391-1.862L36.76,18.874l3.375,1.89L48.77,4.758z"/>
<path fill="#4A3324" d="M40.135,20.764c-0.109,0.205-0.955-0.053-1.887-0.575c-0.934-0.521-1.599-1.11-1.488-1.314
	s0.954,0.053,1.887,0.575C39.578,19.971,40.245,20.561,40.135,20.764z"/>
<linearGradient id="SVGID_17_" gradientUnits="userSpaceOnUse" x1="290.9727" y1="-736.4321" x2="291.9609" y2="-736.4321" gradientTransform="matrix(0.8802 0.4746 -0.4746 0.8802 -570.2039 534.5004)">
	<stop  offset="0" style="stop-color:#DFE5E8"/>
	<stop  offset="0.1554" style="stop-color:#D9DFE2"/>
	<stop  offset="0.3601" style="stop-color:#C9CFD2"/>
	<stop  offset="0.5924" style="stop-color:#AEB4B6"/>
	<stop  offset="0.8431" style="stop-color:#888F90"/>
	<stop  offset="1" style="stop-color:#6D7475"/>
	<a:midPointStop  offset="0" style="stop-color:#DFE5E8"/>
	<a:midPointStop  offset="0.6485" style="stop-color:#DFE5E8"/>
	<a:midPointStop  offset="1" style="stop-color:#6D7475"/>
</linearGradient>
<path fill="url(#SVGID_17_)" d="M38.896,20.025c0.063-0.119-0.813-0.574-0.876-0.452l-5.25,9.73l1.156-0.066L38.896,20.025z"/>
</svg>
