<?xml version="1.0" encoding="utf-8"?>
<!-- Generator: Adobe Illustrator 24.1.2, SVG Export Plug-In . SVG Version: 6.00 Build 0)  -->
<svg version="1.1" id="Layer_1" xmlns="http://www.w3.org/2000/svg" xmlns:xlink="http://www.w3.org/1999/xlink" x="0px" y="0px"
	 width="64px" height="64px" viewBox="0 0 64 64" style="enable-background:new 0 0 64 64;" xml:space="preserve">
<style type="text/css">
	.st0{fill:url(#SVGID_1_);}
	.st1{fill:url(#SVGID_2_);}
	.st2{fill:url(#SVGID_3_);}
	.st3{fill:url(#SVGID_4_);}
</style>
<linearGradient id="SVGID_1_" gradientUnits="userSpaceOnUse" x1="22.25" y1="56.8622" x2="22.25" y2="1.5482">
	<stop  offset="0" style="stop-color:#C90100"/>
	<stop  offset="0.2111" style="stop-color:#DD1616"/>
	<stop  offset="0.4793" style="stop-color:#F02B2A"/>
	<stop  offset="0.7442" style="stop-color:#FB3737"/>
	<stop  offset="1" style="stop-color:#FF3B3B"/>
</linearGradient>
<path class="st0" d="M22.25,2C17.67,2,16,3,16,7.02c0,4.02,0.85,25.12,1.75,34.16c0.51,5.09,8.49,5.09,9,0
	c0.9-9.04,1.75-30.14,1.75-34.16C28.5,3,26.83,2,22.25,2z"/>
<linearGradient id="SVGID_2_" gradientUnits="userSpaceOnUse" x1="22.25" y1="62.0147" x2="22.25" y2="-1.6291">
	<stop  offset="0" style="stop-color:#C90100"/>
	<stop  offset="0.2111" style="stop-color:#DD1616"/>
	<stop  offset="0.4793" style="stop-color:#F02B2A"/>
	<stop  offset="0.7442" style="stop-color:#FB3737"/>
	<stop  offset="1" style="stop-color:#FF3B3B"/>
</linearGradient>
<path class="st1" d="M22.25,51c-3.04,0-5.5,2.46-5.5,5.5c0,3.04,2.46,5.5,5.5,5.5c3.04,0,5.5-2.46,5.5-5.5
	C27.75,53.46,25.29,51,22.25,51z"/>
<linearGradient id="SVGID_3_" gradientUnits="userSpaceOnUse" x1="41.75" y1="56.8622" x2="41.75" y2="1.5482">
	<stop  offset="0" style="stop-color:#C90100"/>
	<stop  offset="0.2111" style="stop-color:#DD1616"/>
	<stop  offset="0.4793" style="stop-color:#F02B2A"/>
	<stop  offset="0.7442" style="stop-color:#FB3737"/>
	<stop  offset="1" style="stop-color:#FF3B3B"/>
</linearGradient>
<path class="st2" d="M41.75,2c-4.58,0-6.25,1-6.25,5.02c0,4.02,0.85,25.12,1.75,34.16c0.51,5.09,8.49,5.09,9,0
	C47.15,32.14,48,11.04,48,7.02C48,3,46.33,2,41.75,2z"/>
<linearGradient id="SVGID_4_" gradientUnits="userSpaceOnUse" x1="41.75" y1="62.0147" x2="41.75" y2="-1.6291">
	<stop  offset="0" style="stop-color:#C90100"/>
	<stop  offset="0.2111" style="stop-color:#DD1616"/>
	<stop  offset="0.4793" style="stop-color:#F02B2A"/>
	<stop  offset="0.7442" style="stop-color:#FB3737"/>
	<stop  offset="1" style="stop-color:#FF3B3B"/>
</linearGradient>
<path class="st3" d="M41.75,51c-3.04,0-5.5,2.46-5.5,5.5c0,3.04,2.46,5.5,5.5,5.5c3.04,0,5.5-2.46,5.5-5.5
	C47.25,53.46,44.79,51,41.75,51z"/>
</svg>
