<?xml version="1.0" encoding="utf-8"?>
<!-- Generator: Adobe Illustrator 15.0.0, SVG Export Plug-In . SVG Version: 6.00 Build 0)  -->
<!DOCTYPE svg PUBLIC "-//W3C//DTD SVG 1.1//EN" "http://www.w3.org/Graphics/SVG/1.1/DTD/svg11.dtd" [
	<!ENTITY ns_flows "http://ns.adobe.com/Flows/1.0/">
	<!ENTITY ns_extend "http://ns.adobe.com/Extensibility/1.0/">
	<!ENTITY ns_ai "http://ns.adobe.com/AdobeIllustrator/10.0/">
	<!ENTITY ns_graphs "http://ns.adobe.com/Graphs/1.0/">
]>
<svg version="1.1" id="Layer_1" xmlns:x="&ns_extend;" xmlns:i="&ns_ai;" xmlns:graph="&ns_graphs;"
	 xmlns="http://www.w3.org/2000/svg" xmlns:xlink="http://www.w3.org/1999/xlink" xmlns:a="http://ns.adobe.com/AdobeSVGViewerExtensions/3.0/"
	 x="0px" y="0px" width="64px" height="64px" viewBox="0 0 64 64" enable-background="new 0 0 64 64" xml:space="preserve">
<radialGradient id="SVGID_1_" cx="92.7285" cy="1.4761" r="30" gradientTransform="matrix(1.0667 0 0 1.0667 -66.9109 30.425)" gradientUnits="userSpaceOnUse">
	<stop  offset="0.3697" style="stop-color:#FF9900"/>
	<stop  offset="0.3793" style="stop-color:#FF9C03"/>
	<stop  offset="0.4794" style="stop-color:#FFB620"/>
	<stop  offset="0.586" style="stop-color:#FFCA37"/>
	<stop  offset="0.7007" style="stop-color:#FFD847"/>
	<stop  offset="0.8292" style="stop-color:#FFE051"/>
	<stop  offset="1" style="stop-color:#FFE354"/>
	<a:midPointStop  offset="0.3697" style="stop-color:#FF9900"/>
	<a:midPointStop  offset="0.2381" style="stop-color:#FF9900"/>
	<a:midPointStop  offset="1" style="stop-color:#FFE354"/>
</radialGradient>
<path fill="url(#SVGID_1_)" d="M51.396,37.196L64,31.998L51.396,26.8l8.317-10.802l-13.515,1.8l1.8-13.512l-10.802,8.316L31.998,0
	l-5.196,12.603L15.998,4.288L17.8,17.8L4.285,16l8.317,10.803L0,32l12.603,5.196L4.287,48L17.8,46.198L16,59.713l10.802-8.316L32,64
	l5.198-12.604L48,59.713l-1.8-13.515l13.513,1.8L51.396,37.196z"/>
<radialGradient id="SVGID_2_" cx="90.3594" cy="-0.9717" r="18.0002" gradientTransform="matrix(1.0667 0 0 1.0667 -66.9109 30.425)" gradientUnits="userSpaceOnUse">
	<stop  offset="0" style="stop-color:#FFD500"/>
	<stop  offset="0.381" style="stop-color:#FFD200"/>
	<stop  offset="0.7146" style="stop-color:#FFC700"/>
	<stop  offset="1" style="stop-color:#FFB700"/>
	<a:midPointStop  offset="0" style="stop-color:#FFD500"/>
	<a:midPointStop  offset="0.7333" style="stop-color:#FFD500"/>
	<a:midPointStop  offset="1" style="stop-color:#FFB700"/>
</radialGradient>
<path fill="url(#SVGID_2_)" d="M51.2,32c0,10.604-8.596,19.201-19.2,19.201S12.8,42.604,12.8,32c0-10.602,8.596-19.2,19.2-19.2
	S51.2,21.398,51.2,32z"/>
</svg>
