<?xml version="1.0" encoding="utf-8"?>
<!-- Generator: Adobe Illustrator 24.1.2, SVG Export Plug-In . SVG Version: 6.00 Build 0)  -->
<svg version="1.1" id="Layer_1" xmlns="http://www.w3.org/2000/svg" xmlns:xlink="http://www.w3.org/1999/xlink" x="0px" y="0px"
	 width="64px" height="64px" viewBox="0 0 64 64" style="enable-background:new 0 0 64 64;" xml:space="preserve">
<style type="text/css">
	.st0{fill:url(#SVGID_1_);}
	.st1{fill:#543B28;}
	.st2{fill:#69452D;}
	.st3{fill:url(#SVGID_2_);}
	.st4{opacity:0.3;fill:#543B28;}
	.st5{fill:url(#SVGID_3_);}
	.st6{fill:url(#SVGID_4_);}
	.st7{fill:url(#SVGID_5_);}
	.st8{fill:url(#SVGID_6_);}
	.st9{fill:#916B50;}
	.st10{opacity:0.2;fill:#FFFFFF;}
</style>
<linearGradient id="SVGID_1_" gradientUnits="userSpaceOnUse" x1="43.4628" y1="33.2985" x2="43.4628" y2="0.7374">
	<stop  offset="0" style="stop-color:#69452D"/>
	<stop  offset="0.2558" style="stop-color:#916B50"/>
</linearGradient>
<path class="st0" d="M48.42,33.3c-1.09-9.29-0.21-17.13-0.44-28.38c-0.12-5.72-8.29-5.51-8.29,0.21c0.01,4.71-0.14,22.91-1.18,24.78
	C41.77,31.02,45.25,31.9,48.42,33.3z"/>
<path class="st1" d="M47.23,4.94c0.08,3.87-0.2,20.65,0.45,28.15c0.55,0.37,1.08,0.76,1.61,1.16C48.48,27.5,48.8,9.02,48.71,4.9
	c-0.14-6.73-9.77-6.42-9.77,0.23c0.01,8.63-0.3,21.76-0.98,24.14h1.42c0.53-2.34,1.05-8.38,1.04-24.15
	C40.42,0.34,47.13,0.22,47.23,4.94z"/>
<path class="st2" d="M20.94,61.81c-0.06-2.34-0.2-3.84-3.01-8.78c-3.11-5.46,31.5-4.04,27.12,1.46c-2.42,3.04-3.07,5.37-3.07,7.32
	C41.98,64.73,21.02,64.73,20.94,61.81z"/>
<path class="st1" d="M45.57,52.13c-3.24-3.61-23.71-4.62-27.72-1.37c-0.88,0.71-0.85,1.66-0.3,2.61c2.82,4.95,3.1,5.77,3.4,8.44
	c-0.06-2.47,0.48-4.13-2.4-9.18c-0.11-0.2-0.2-0.35,0.18-0.65c3.34-2.7,23.11-1.78,25.8,1.21c0.2,0.23,0.3,0.39-0.03,0.81
	c-2.21,2.78-2.52,5.27-2.52,7.82c0.43-2.9,1.36-4.43,3.34-6.92C46.06,53.95,46.34,52.98,45.57,52.13z"/>
<radialGradient id="SVGID_2_" cx="31.3391" cy="29.5022" r="22.919" gradientTransform="matrix(1.0084 0 0 1.0762 2.1055 2.342)" gradientUnits="userSpaceOnUse">
	<stop  offset="0.5333" style="stop-color:#916B50"/>
	<stop  offset="0.7449" style="stop-color:#8F694E"/>
	<stop  offset="0.8517" style="stop-color:#876247"/>
	<stop  offset="0.9348" style="stop-color:#7A553C"/>
	<stop  offset="1" style="stop-color:#69452D"/>
</radialGradient>
<path class="st3" d="M13.5,34.11c0,4.5-0.33,11.74,3.66,18.28c5.93,9.74,34.1,13.07,34.1-14.02C51.26,35.99,13.5,27.42,13.5,34.11z"
	/>
<path class="st1" d="M40.02,33.61c-7.45-1.72-14.82-2.75-19.72-2.75c-1.87,0-7.55,0-7.55,3.25l0,0.95
	c-0.02,4.56-0.05,11.44,3.77,17.72c1.39,2.29,3.94,4.01,7.53,4.97c-2.67-1.59-5.03-3.73-6.26-5.76c-3.6-5.91-3.57-12.54-3.55-16.93
	l0-0.95c0-0.18,0-0.73,1.29-1.19c7.01-2.48,32.89,3.61,34.99,5.62c-0.06,13.9-8.61,18.5-12.03,20.18C43.41,57.56,52,53.39,52,38.37
	C52,37.83,52,36.38,40.02,33.61z"/>
<path class="st4" d="M42.3,37.72C31,41.55,30.75,51.6,31.41,55.66c0.14,0.87,0.42,0.55,0.48-0.02c0.38-4.27,1.67-12.88,10.63-17.51
	C43.37,37.68,43.23,37.41,42.3,37.72z"/>
<radialGradient id="SVGID_3_" cx="-251.1015" cy="219.6688" r="6.9044" gradientTransform="matrix(0 -1.4559 2.1787 0 -446.9215 -324.5068)" gradientUnits="userSpaceOnUse">
	<stop  offset="0.2788" style="stop-color:#69452D"/>
	<stop  offset="0.516" style="stop-color:#755138;stop-opacity:0.6124"/>
	<stop  offset="0.8909" style="stop-color:#916B50;stop-opacity:0"/>
</radialGradient>
<path class="st5" d="M16.36,39.88C15.66,55.5,46.2,55.8,46.91,40.55C47.26,33.14,16.7,32.49,16.36,39.88z"/>
<path class="st1" d="M12.15,33.23c-1.45-5.6,7.82-7.87,9.2-2.27l1.66,5.49c1.65,6.38-7.62,8.62-9.21,2.24L12.15,33.23z"/>
<radialGradient id="SVGID_4_" cx="-309.3741" cy="186.8147" r="8.1473" gradientTransform="matrix(0.7948 -0.1933 0.245 1.0056 216.7111 -215.3792)" gradientUnits="userSpaceOnUse">
	<stop  offset="0.6175" style="stop-color:#916B50"/>
	<stop  offset="0.6469" style="stop-color:#855F45"/>
	<stop  offset="0.7009" style="stop-color:#755138"/>
	<stop  offset="0.7627" style="stop-color:#6C4830"/>
	<stop  offset="0.8485" style="stop-color:#69452D"/>
</radialGradient>
<path class="st6" d="M13.5,32.85c-0.97-3.79,5.53-5.4,6.5-1.61l1.66,5.56c1.19,4.61-5.32,6.2-6.51,1.58L13.5,32.85z"/>
<path class="st1" d="M19.52,29.46c-0.7-6.62,8.81-7.49,9.44-0.88l0.9,8.61c0.69,6.56-8.81,7.39-9.44,0.84L19.52,29.46z"/>
<radialGradient id="SVGID_5_" cx="-249.6413" cy="135.2112" r="10.1177" gradientTransform="matrix(0.8146 -0.0726 0.0939 1.031 214.7317 -128.0737)" gradientUnits="userSpaceOnUse">
	<stop  offset="0.6175" style="stop-color:#916B50"/>
	<stop  offset="0.6469" style="stop-color:#855F45"/>
	<stop  offset="0.7009" style="stop-color:#755138"/>
	<stop  offset="0.7627" style="stop-color:#6C4830"/>
	<stop  offset="0.8485" style="stop-color:#69452D"/>
</radialGradient>
<path class="st7" d="M20.91,29.28c-0.5-4.76,6.17-5.39,6.67-0.62l0.88,8.68c0.5,4.74-6.17,5.34-6.67,0.6L20.91,29.28z"/>
<path class="st1" d="M28.71,28.15c-0.37-6.65,9.18-7.03,9.47-0.39l0.56,9.13c0.36,6.59-9.17,6.93-9.47,0.36L28.71,28.15z"/>
<radialGradient id="SVGID_6_" cx="-221.6965" cy="116.4516" r="10.4031" gradientTransform="matrix(0.8172 -0.0309 0.0416 1.0344 209.6281 -98.7945)" gradientUnits="userSpaceOnUse">
	<stop  offset="0.6175" style="stop-color:#916B50"/>
	<stop  offset="0.6469" style="stop-color:#855F45"/>
	<stop  offset="0.7009" style="stop-color:#755138"/>
	<stop  offset="0.7627" style="stop-color:#6C4830"/>
	<stop  offset="0.8485" style="stop-color:#69452D"/>
</radialGradient>
<path class="st8" d="M30.11,28.05c-0.25-4.78,6.43-5.07,6.69-0.28l0.54,9.19c0.26,4.76-6.44,5.02-6.7,0.25L30.11,28.05z"/>
<path class="st9" d="M40.37,28.75c-1.43-0.31-7.25,1.89-11.88,2.66c-2.55,0.42-3.95,5.21,1.38,7.03c4.59,1.57,9.16-0.15,9.16-0.15
	s0.88,2.85,2.44,4.76c1.01,1.25,9.78-2.97,9.78-4.68C51.26,34.65,41.98,29.1,40.37,28.75z"/>
<path class="st10" d="M33.48,32.83c-0.48,0.4-3.89,1.06-4.35,0.69c-1.17-0.91-0.92-1.81-0.39-1.94c0.81-0.2,3.33-0.52,4.66-0.79
	C33.96,30.67,33.8,32.56,33.48,32.83z"/>
<path class="st1" d="M40.53,28.01c-0.91-0.2-2.65,0.26-5.65,1.09c-2.07,0.57-4.42,1.22-6.51,1.57c-1.53,0.25-2.74,1.69-2.87,3.41
	c-0.07,0.84,0.03,3.67,4.13,5.07c3.74,1.28,7.42,0.5,8.94,0.07c0.38,1.01,1.22,2.58,2.91,3.83c-1.45-1.78-1.97-5.74-1.97-5.74
	l-0.73,0.27c-0.04,0.02-4.39,1.6-8.66,0.14c-2.08-0.71-3.25-2.03-3.13-3.53c0.08-1.03,0.79-1.91,1.64-2.05
	c2.16-0.36,4.55-1.02,6.66-1.6c2.04-0.56,4.35-1.2,4.94-1.07C41.7,29.8,50.5,35.03,50.5,39.5l1.5-1.12
	C52,34.08,42.26,28.39,40.53,28.01z"/>
</svg>
