<?xml version="1.0" encoding="utf-8"?>
<!-- Generator: Adobe Illustrator 24.1.2, SVG Export Plug-In . SVG Version: 6.00 Build 0)  -->
<svg version="1.1" id="Layer_1" xmlns="http://www.w3.org/2000/svg" xmlns:xlink="http://www.w3.org/1999/xlink" x="0px" y="0px"
	 width="64px" height="64px" viewBox="0 0 64 64" style="enable-background:new 0 0 64 64;" xml:space="preserve">
<style type="text/css">
	.st0{fill:url(#SVGID_1_);}
	.st1{fill:#FFFFFF;}
</style>
<linearGradient id="SVGID_1_" gradientUnits="userSpaceOnUse" x1="-62" y1="68" x2="-62" y2="8" gradientTransform="matrix(1 0 0 -1 94 70)">
	<stop  offset="0" style="stop-color:#BC2AF7"/>
	<stop  offset="0.2161" style="stop-color:#B928F3"/>
	<stop  offset="0.4401" style="stop-color:#B121E6"/>
	<stop  offset="0.6677" style="stop-color:#A217D2"/>
	<stop  offset="0.8964" style="stop-color:#8E08B5"/>
	<stop  offset="0.9949" style="stop-color:#8400A6"/>
</linearGradient>
<path class="st0" d="M62,54c0,4.4-3.6,8-8,8H10c-4.4,0-8-3.6-8-8V10c0-4.4,3.6-8,8-8h44c4.4,0,8,3.6,8,8V54z"/>
<path class="st1" d="M43.74,52.5h-3.62c-0.14,0-0.27-0.06-0.37-0.16c-0.06-0.06-1.36-1.49-2.42-4.03c-2.89,1.59-6.6,2.01-6.76,2.03
	c-0.14,0.01-0.28-0.03-0.39-0.13c-0.11-0.09-0.17-0.23-0.17-0.37v-2.49c0-0.24,0.18-0.45,0.42-0.49c0.04-0.01,3.79-0.64,6.08-2.49
	c-0.22-1.63-0.25-4.11-0.25-4.22V21.01c0-2.3-0.63-4.37-1.02-5.44c-1.82,2.6-3.96,8.54-4.23,9.29v18.73c0,0.28-0.22,0.5-0.5,0.5
	h-3.17c-0.28,0-0.5-0.22-0.5-0.5V21.58c0-2.68-0.63-4.77-1.04-5.85c-1.88,2.96-3.94,8.4-4.21,9.13v18.72c0,0.28-0.22,0.5-0.5,0.5
	h-3.15c-0.28,0-0.5-0.22-0.5-0.5V20.73c0-4.27-2.35-8.07-2.38-8.11c-0.1-0.15-0.1-0.35-0.01-0.51c0.09-0.16,0.26-0.26,0.44-0.26h3.3
	c0.17,0,0.33,0.09,0.42,0.23c0.06,0.1,1.31,2.05,2.05,4.83c1.08-2.2,2.08-3.72,2.78-4.66c0.08-0.11,0.2-0.18,0.33-0.2l3.63-0.55
	c0.19-0.03,0.39,0.06,0.5,0.22c1.14,1.77,1.84,4.02,2.2,5.48c0.69-1.37,1.85-3.51,3.11-4.98c0.08-0.09,0.18-0.15,0.3-0.17l3.34-0.55
	c0.19-0.03,0.38,0.05,0.49,0.21c1.47,2.08,2.27,4.27,2.4,6.51c0.08,1.52,0.08,3.06,0.09,4.55c0,0.01,0,0.01,0,0.02
	c1.05-2.26,1.85-3.06,1.89-3.11c0.04-0.04,0.1-0.08,0.16-0.1c0.09-0.04,2.18-0.93,2.57-1.07c0.22-0.08,0.46,0,0.59,0.2
	c1.28,1.96,2.15,3.85,2.66,5.76c1.78,6.7,0.43,12.83-4.03,18.21c-0.7,0.85-1.71,1.83-2.6,2.69c-0.22,0.21-0.44,0.42-0.64,0.62
	c0.31,0.81,1.31,3.19,3.14,5.72c0.11,0.15,0.13,0.35,0.04,0.52C44.09,52.39,43.92,52.5,43.74,52.5z M43.61,23.73
	c-1.36,1.88-2.22,3.95-2.88,5.76c-0.23,0.61-0.33,1.25-0.33,1.99c0.01,2.64,0.01,5.28,0.01,7.92l0,2.12
	C45.53,35.82,45.72,28.58,43.61,23.73z"/>
</svg>
