<?xml version="1.0" encoding="utf-8"?>
<!-- Generator: Adobe Illustrator 24.1.2, SVG Export Plug-In . SVG Version: 6.00 Build 0)  -->
<svg version="1.1" id="Layer_1" xmlns="http://www.w3.org/2000/svg" xmlns:xlink="http://www.w3.org/1999/xlink" x="0px" y="0px"
	 width="64px" height="64px" viewBox="0 0 64 64" style="enable-background:new 0 0 64 64;" xml:space="preserve">
<style type="text/css">
	.st0{fill:url(#SVGID_1_);}
	.st1{fill:#FFFFFF;}
</style>
<linearGradient id="SVGID_1_" gradientUnits="userSpaceOnUse" x1="-62" y1="68" x2="-62" y2="8" gradientTransform="matrix(1 0 0 -1 94 70)">
	<stop  offset="0" style="stop-color:#BC2AF7"/>
	<stop  offset="0.2161" style="stop-color:#B928F3"/>
	<stop  offset="0.4401" style="stop-color:#B121E6"/>
	<stop  offset="0.6677" style="stop-color:#A217D2"/>
	<stop  offset="0.8964" style="stop-color:#8E08B5"/>
	<stop  offset="0.9949" style="stop-color:#8400A6"/>
</linearGradient>
<path class="st0" d="M62,54c0,4.4-3.6,8-8,8H10c-4.4,0-8-3.6-8-8V10c0-4.4,3.6-8,8-8h44c4.4,0,8,3.6,8,8V54z"/>
<path class="st1" d="M49.02,54.5c-0.28,0-0.5-0.22-0.5-0.5s0.22-0.5,0.49-0.5h0.01c0.28,0,0.5,0.22,0.5,0.5S49.3,54.5,49.02,54.5z"
	/>
<path class="st1" d="M49,54.5c-0.07,0-0.14-0.01-0.21-0.05C48.61,54.37,48.5,54.2,48.5,54v-2.6h-1.57c-0.99,0-2.01,0-3.03-0.16
	c-1.58-0.26-2.78-0.78-3.77-1.63c-0.53-0.46-0.98-1.02-1.36-1.7c-0.51-0.92-0.85-1.97-1.08-3.3c-0.15-0.93-0.22-1.92-0.22-3.21
	l0-19.21c0-1.65-0.28-4.5-1.02-6.34c-2.14,2.98-4.35,8.67-4.39,9.36v19.75c0,0.28-0.22,0.5-0.5,0.5h-3.27
	c-0.28,0-0.52-0.22-0.52-0.5V22.32c0-2.25-0.47-5.08-1.06-6.58c-2.52,2.53-4.39,7.22-4.39,8.81v20.4c0,0.28-0.22,0.5-0.5,0.5h-3.24
	c-0.13,0-0.26-0.05-0.35-0.15s-0.15-0.22-0.15-0.35c0,0,0.01-15.65,0-23.35c0-1.44-0.16-2.84-0.48-4.16
	c-0.41-1.7-1.16-3.33-2.11-4.59c-0.11-0.15-0.13-0.35-0.05-0.52s0.26-0.28,0.45-0.28h1.02c0.8,0,1.67,0,2.39,0
	c0.21,0.01,0.33,0.08,0.42,0.22c1.15,1.73,1.86,3.78,2.25,5.17c0.62-1.42,1.72-3.55,3.31-5.19c0.07-0.07,0.16-0.12,0.26-0.14
	l3.08-0.6c0.18-0.04,0.38,0.04,0.49,0.19c1.33,1.73,2.15,4.27,2.56,5.86c0.7-1.43,1.93-3.69,3.4-5.29c0.07-0.08,0.17-0.13,0.27-0.15
	l3.13-0.6c0.19-0.04,0.39,0.04,0.5,0.2c1.26,1.75,2.72,5.06,2.72,8.64L41.7,41.2c0,1.15,0.05,2.18,0.16,3.18
	c0.15,1.38,0.84,2.3,2.11,2.83c0.71,0.29,1.51,0.45,2.44,0.49c0.54,0.02,1.5,0.01,2.08,0.01v-2.75c0-0.2,0.12-0.38,0.3-0.46
	c0.18-0.08,0.39-0.05,0.54,0.09l5.11,4.64c0.11,0.1,0.17,0.23,0.16,0.38c0,0.14-0.06,0.28-0.17,0.37l-5.11,4.42
	C49.23,54.46,49.12,54.5,49,54.5z M49,48.19L49,48.19L49,48.19z"/>
</svg>
