<?xml version="1.0" encoding="utf-8"?>
<!-- Generator: Adobe Illustrator 24.1.2, SVG Export Plug-In . SVG Version: 6.00 Build 0)  -->
<svg version="1.1" id="Layer_1" xmlns="http://www.w3.org/2000/svg" xmlns:xlink="http://www.w3.org/1999/xlink" x="0px" y="0px"
	 width="64px" height="64px" viewBox="0 0 64 64" style="enable-background:new 0 0 64 64;" xml:space="preserve">
<style type="text/css">
	.st0{fill:url(#SVGID_1_);}
	.st1{fill:#FFFFFF;}
</style>
<linearGradient id="SVGID_1_" gradientUnits="userSpaceOnUse" x1="-62" y1="68" x2="-62" y2="8" gradientTransform="matrix(1 0 0 -1 94 70)">
	<stop  offset="0" style="stop-color:#BC2AF7"/>
	<stop  offset="0.2161" style="stop-color:#B928F3"/>
	<stop  offset="0.4401" style="stop-color:#B121E6"/>
	<stop  offset="0.6677" style="stop-color:#A217D2"/>
	<stop  offset="0.8963" style="stop-color:#8E08B5"/>
	<stop  offset="0.9949" style="stop-color:#8400A6"/>
</linearGradient>
<path class="st0" d="M62,54c0,4.4-3.6,8-8,8H10c-4.4,0-8-3.6-8-8V10c0-4.4,3.6-8,8-8h44c4.4,0,8,3.6,8,8V54z"/>
<path class="st1" d="M49.42,15.02c-0.03-0.23-0.21-0.41-0.44-0.44L31.05,12.5c-0.13-0.01-0.26,0.02-0.37,0.11
	c-0.1,0.08-0.17,0.2-0.19,0.34l-0.4,3.64c-0.03,0.27,0.17,0.52,0.44,0.55l11.63,1.3L26.18,34.43l-6.56-6.56
	c-0.19-0.19-0.52-0.19-0.71,0l-2.59,2.59c-0.2,0.2-0.2,0.51,0,0.71l6.56,6.56L12.65,47.96c-0.2,0.2-0.2,0.51,0,0.71l2.69,2.69
	c0.1,0.1,0.23,0.15,0.35,0.15s0.26-0.05,0.35-0.15l10.23-10.23l6.56,6.56c0.19,0.19,0.52,0.19,0.71,0l2.59-2.59
	c0.2-0.2,0.2-0.51,0-0.71l-6.56-6.56l15.98-15.98l1.3,11.63c0.03,0.27,0.27,0.47,0.55,0.44l3.64-0.4c0.13-0.01,0.25-0.08,0.34-0.19
	s0.12-0.24,0.11-0.37L49.42,15.02z"/>
</svg>
