<?xml version="1.0" encoding="utf-8"?>
<!-- Generator: Adobe Illustrator 24.1.2, SVG Export Plug-In . SVG Version: 6.00 Build 0)  -->
<svg version="1.1" id="Layer_1" xmlns="http://www.w3.org/2000/svg" xmlns:xlink="http://www.w3.org/1999/xlink" x="0px" y="0px"
	 width="64px" height="64px" viewBox="0 0 64 64" style="enable-background:new 0 0 64 64;" xml:space="preserve">
<style type="text/css">
	.st0{fill:url(#SVGID_1_);}
	.st1{fill:#FFFFFF;}
</style>
<linearGradient id="SVGID_1_" gradientUnits="userSpaceOnUse" x1="-62" y1="68" x2="-62" y2="8" gradientTransform="matrix(1 0 0 -1 94 70)">
	<stop  offset="0" style="stop-color:#BC2AF7"/>
	<stop  offset="0.2161" style="stop-color:#B928F3"/>
	<stop  offset="0.4401" style="stop-color:#B121E6"/>
	<stop  offset="0.6677" style="stop-color:#A217D2"/>
	<stop  offset="0.8964" style="stop-color:#8E08B5"/>
	<stop  offset="0.9949" style="stop-color:#8400A6"/>
</linearGradient>
<path class="st0" d="M62,54c0,4.4-3.6,8-8,8H10c-4.4,0-8-3.6-8-8V10c0-4.4,3.6-8,8-8h44c4.4,0,8,3.6,8,8V54z"/>
<path d="M32,32L32,32L32,32z"/>
<path class="st1" d="M48.5,52.5h-3.88c-0.12,0-0.24-0.05-0.33-0.13c-7.1-6.36-8.66-15.84-8.94-18.05h-6.71
	c-0.27,2.21-1.84,11.69-8.94,18.05c-0.09,0.08-0.21,0.13-0.33,0.13H15.5c-0.2,0-0.38-0.12-0.46-0.3c-0.08-0.18-0.05-0.39,0.08-0.54
	c7.05-7.84,8.32-15.34,8.54-17.34h-7.86c-0.28,0-0.5-0.22-0.5-0.5v-3.65c0-0.28,0.22-0.5,0.5-0.5h7.86c-0.22-2-1.49-9.5-8.54-17.34
	c-0.13-0.15-0.17-0.36-0.08-0.54c0.08-0.18,0.26-0.3,0.46-0.3h3.88c0.12,0,0.24,0.05,0.33,0.13c7.1,6.36,8.66,15.84,8.94,18.05h6.71
	c0.27-2.21,1.84-11.69,8.94-18.05c0.09-0.08,0.21-0.13,0.33-0.13h3.88c0.2,0,0.38,0.12,0.46,0.3c0.08,0.18,0.05,0.39-0.08,0.54
	c-7.05,7.84-8.32,15.34-8.54,17.34h7.86c0.28,0,0.5,0.22,0.5,0.5v3.65c0,0.28-0.22,0.5-0.5,0.5h-7.86c0.22,2,1.49,9.5,8.54,17.34
	c0.13,0.15,0.17,0.36,0.08,0.54C48.88,52.38,48.7,52.5,48.5,52.5z"/>
</svg>
