<?xml version="1.0" encoding="utf-8"?>
<!-- Generator: Adobe Illustrator 24.1.2, SVG Export Plug-In . SVG Version: 6.00 Build 0)  -->
<svg version="1.1" id="Layer_1" xmlns="http://www.w3.org/2000/svg" xmlns:xlink="http://www.w3.org/1999/xlink" x="0px" y="0px"
	 width="64px" height="64px" viewBox="0 0 64 64" style="enable-background:new 0 0 64 64;" xml:space="preserve">
<style type="text/css">
	.st0{fill:url(#SVGID_1_);}
	.st1{fill:#FFFFFF;}
</style>
<linearGradient id="SVGID_1_" gradientUnits="userSpaceOnUse" x1="-62" y1="68" x2="-62" y2="8" gradientTransform="matrix(1 0 0 -1 94 70)">
	<stop  offset="0" style="stop-color:#00ABF1"/>
	<stop  offset="1" style="stop-color:#0062D0"/>
</linearGradient>
<path class="st0" d="M62,54c0,4.4-3.6,8-8,8H10c-4.4,0-8-3.6-8-8V10c0-4.4,3.6-8,8-8h44c4.4,0,8,3.6,8,8V54z"/>
<path class="st1" d="M49.21,32.28c-0.13-1.25-1.11-2.13-2.37-2.17c-0.72-0.02-9.35,0.48-9.35,0.48s4.32-4.93,4.99-5.73
	c1.25-1.5,0.68-3.88-0.89-4.65c-0.74-0.37-11.36-6.53-11.83-6.76c-0.98-0.49-1.92-0.35-2.78,0.29c-0.5,0.38-4.45,3.94-5.95,5.3
	c-2.78,2.53,1.01,6.3,3.81,3.63c1.26-1.2,3.99-3.72,3.99-3.72l3.68,2.14l-7.16,8.17l13.24,6.53l5.14-0.29c0,0-0.74,9.49-0.79,10.62
	c-0.07,1.53,1.19,2.53,2.36,2.65c1.07,0.11,2.57-0.58,2.8-2.14C48.23,45.94,49.27,32.91,49.21,32.28z"/>
<path class="st1" d="M23.08,34.62c1.44-1.07,3.22-1.71,5.15-1.71c4.78,0,8.65,3.87,8.65,8.65c0,1.93-0.64,3.71-1.71,5.15l3.42,3.42
	c1.93-2.33,3.09-5.31,3.09-8.57c0-7.43-6.02-13.44-13.44-13.44c-3.26,0-6.25,1.16-8.57,3.09L23.08,34.62z"/>
<path class="st1" d="M33.39,48.49c-1.44,1.07-3.22,1.71-5.15,1.71c-4.78,0-8.65-3.87-8.65-8.65c0-1.93,0.64-3.71,1.71-5.15
	l-3.42-3.42c-1.93,2.33-3.09,5.31-3.09,8.57c0,7.43,6.02,13.44,13.44,13.44c3.26,0,6.25-1.16,8.57-3.09L33.39,48.49z"/>
<circle class="st1" cx="43.63" cy="15.39" r="4.39"/>
</svg>
