<?xml version="1.0" encoding="utf-8"?>
<!-- Generator: Adobe Illustrator 15.0.0, SVG Export Plug-In . SVG Version: 6.00 Build 0)  -->
<!DOCTYPE svg PUBLIC "-//W3C//DTD SVG 1.1//EN" "http://www.w3.org/Graphics/SVG/1.1/DTD/svg11.dtd" [
	<!ENTITY ns_flows "http://ns.adobe.com/Flows/1.0/">
	<!ENTITY ns_extend "http://ns.adobe.com/Extensibility/1.0/">
	<!ENTITY ns_ai "http://ns.adobe.com/AdobeIllustrator/10.0/">
	<!ENTITY ns_graphs "http://ns.adobe.com/Graphs/1.0/">
]>
<svg version="1.1" id="Layer_1" xmlns:x="&ns_extend;" xmlns:i="&ns_ai;" xmlns:graph="&ns_graphs;"
	 xmlns="http://www.w3.org/2000/svg" xmlns:xlink="http://www.w3.org/1999/xlink" xmlns:a="http://ns.adobe.com/AdobeSVGViewerExtensions/3.0/"
	 x="0px" y="0px" width="64px" height="64px" viewBox="0 0 64 64" enable-background="new 0 0 64 64" xml:space="preserve">
<radialGradient id="SVGID_1_" cx="-440.1479" cy="646.7012" r="12.1857" gradientTransform="matrix(0.8617 0.766 1.5905 -1.6601 -602.0329 1451.7806)" gradientUnits="userSpaceOnUse">
	<stop  offset="0" style="stop-color:#F59E01"/>
	<stop  offset="0.1639" style="stop-color:#F7AA01"/>
	<stop  offset="0.4029" style="stop-color:#F9B700"/>
	<stop  offset="0.5494" style="stop-color:#FBC50F"/>
	<stop  offset="0.816" style="stop-color:#FEDA24"/>
	<stop  offset="0.9898" style="stop-color:#FFE12C"/>
	<a:midPointStop  offset="0" style="stop-color:#F59E01"/>
	<a:midPointStop  offset="0.5" style="stop-color:#F59E01"/>
	<a:midPointStop  offset="0.1639" style="stop-color:#F7AA01"/>
	<a:midPointStop  offset="0.5" style="stop-color:#F7AA01"/>
	<a:midPointStop  offset="0.4029" style="stop-color:#F9B700"/>
	<a:midPointStop  offset="0.5" style="stop-color:#F9B700"/>
	<a:midPointStop  offset="0.5494" style="stop-color:#FBC50F"/>
	<a:midPointStop  offset="0.5" style="stop-color:#FBC50F"/>
	<a:midPointStop  offset="0.816" style="stop-color:#FEDA24"/>
	<a:midPointStop  offset="0.5" style="stop-color:#FEDA24"/>
	<a:midPointStop  offset="0.9898" style="stop-color:#FFE12C"/>
</radialGradient>
<path fill="url(#SVGID_1_)" d="M43.321,28.704c-11.279,6.051-8.966,22.845-1.42,25.642c10.808,4.01,10.43-12.934,3.413-11.117
	c4.455,7.462-8.058,8.801-5.879-2.423c1.856-9.565,16.876-8.471,13.361,4.798C65.033,43.328,57.742,20.972,43.321,28.704z"/>
<linearGradient id="SVGID_2_" gradientUnits="userSpaceOnUse" x1="-521.0674" y1="256.7227" x2="-521.0674" y2="244.915" gradientTransform="matrix(1 0 0 -1 564 300)">
	<stop  offset="0" style="stop-color:#F9B700"/>
	<stop  offset="0.4306" style="stop-color:#F7AA01"/>
	<stop  offset="0.726" style="stop-color:#F59E01"/>
	<stop  offset="0.7929" style="stop-color:#EF9903"/>
	<stop  offset="0.8783" style="stop-color:#E08B0A"/>
	<stop  offset="0.9734" style="stop-color:#C67415"/>
	<stop  offset="0.9877" style="stop-color:#C17017"/>
	<a:midPointStop  offset="0" style="stop-color:#F9B700"/>
	<a:midPointStop  offset="0.5" style="stop-color:#F9B700"/>
	<a:midPointStop  offset="0.4306" style="stop-color:#F7AA01"/>
	<a:midPointStop  offset="0.5" style="stop-color:#F7AA01"/>
	<a:midPointStop  offset="0.726" style="stop-color:#F59E01"/>
	<a:midPointStop  offset="0.5" style="stop-color:#F59E01"/>
	<a:midPointStop  offset="0.7929" style="stop-color:#EF9903"/>
	<a:midPointStop  offset="0.5" style="stop-color:#EF9903"/>
	<a:midPointStop  offset="0.8783" style="stop-color:#E08B0A"/>
	<a:midPointStop  offset="0.5" style="stop-color:#E08B0A"/>
	<a:midPointStop  offset="0.9734" style="stop-color:#C67415"/>
	<a:midPointStop  offset="0.5" style="stop-color:#C67415"/>
	<a:midPointStop  offset="0.9877" style="stop-color:#C17017"/>
</linearGradient>
<path fill="url(#SVGID_2_)" d="M35.548,43.277c0.259,5.096,2.689,9.848,6.336,11.199c7.827,2.903,9.781-5.316,7.601-9.307
	C51.154,54.101,38.919,57.701,35.548,43.277z"/>
<linearGradient id="SVGID_3_" gradientUnits="userSpaceOnUse" x1="-516.7495" y1="268.8623" x2="-516.7495" y2="254.3965" gradientTransform="matrix(1 0 0 -1 564 300)">
	<stop  offset="0.229" style="stop-color:#F9B700"/>
	<stop  offset="0.394" style="stop-color:#F7AA01"/>
	<stop  offset="0.5072" style="stop-color:#F59E01"/>
	<stop  offset="0.6301" style="stop-color:#EF9903"/>
	<stop  offset="0.7869" style="stop-color:#E08B0A"/>
	<stop  offset="0.9614" style="stop-color:#C67415"/>
	<stop  offset="0.9877" style="stop-color:#C17017"/>
	<a:midPointStop  offset="0.229" style="stop-color:#F9B700"/>
	<a:midPointStop  offset="0.5" style="stop-color:#F9B700"/>
	<a:midPointStop  offset="0.394" style="stop-color:#F7AA01"/>
	<a:midPointStop  offset="0.5" style="stop-color:#F7AA01"/>
	<a:midPointStop  offset="0.5072" style="stop-color:#F59E01"/>
	<a:midPointStop  offset="0.5" style="stop-color:#F59E01"/>
	<a:midPointStop  offset="0.6301" style="stop-color:#EF9903"/>
	<a:midPointStop  offset="0.5" style="stop-color:#EF9903"/>
	<a:midPointStop  offset="0.7869" style="stop-color:#E08B0A"/>
	<a:midPointStop  offset="0.5" style="stop-color:#E08B0A"/>
	<a:midPointStop  offset="0.9614" style="stop-color:#C67415"/>
	<a:midPointStop  offset="0.5" style="stop-color:#C67415"/>
	<a:midPointStop  offset="0.9877" style="stop-color:#C17017"/>
</linearGradient>
<path fill="url(#SVGID_3_)" d="M43.485,32.393c-3.633,1.924-4.49,6.465-4.051,8.413c1.808-9.308,16.81-8.223,13.361,4.798
	C58.436,39.98,53.517,27.085,43.485,32.393z"/>
<path fill="#FFE463" d="M46.562,46.873c-0.096-0.57,0.054,2.066-2.692,2.52C43.088,49.52,47.09,50.164,46.562,46.873z"/>
<radialGradient id="SVGID_4_" cx="-643.9897" cy="321.0713" r="11.2369" gradientTransform="matrix(0.8617 -0.766 -1.5905 -1.6602 1082.3658 80.7863)" gradientUnits="userSpaceOnUse">
	<stop  offset="0" style="stop-color:#F59E01"/>
	<stop  offset="0.1639" style="stop-color:#F7AA01"/>
	<stop  offset="0.4029" style="stop-color:#F9B700"/>
	<stop  offset="0.5494" style="stop-color:#FBC50F"/>
	<stop  offset="0.816" style="stop-color:#FEDA24"/>
	<stop  offset="0.9898" style="stop-color:#FFE12C"/>
	<a:midPointStop  offset="0" style="stop-color:#F59E01"/>
	<a:midPointStop  offset="0.5" style="stop-color:#F59E01"/>
	<a:midPointStop  offset="0.1639" style="stop-color:#F7AA01"/>
	<a:midPointStop  offset="0.5" style="stop-color:#F7AA01"/>
	<a:midPointStop  offset="0.4029" style="stop-color:#F9B700"/>
	<a:midPointStop  offset="0.5" style="stop-color:#F9B700"/>
	<a:midPointStop  offset="0.5494" style="stop-color:#FBC50F"/>
	<a:midPointStop  offset="0.5" style="stop-color:#FBC50F"/>
	<a:midPointStop  offset="0.816" style="stop-color:#FEDA24"/>
	<a:midPointStop  offset="0.5" style="stop-color:#FEDA24"/>
	<a:midPointStop  offset="0.9898" style="stop-color:#FFE12C"/>
</radialGradient>
<path fill="url(#SVGID_4_)" d="M20.68,28.704c11.279,6.05,8.964,22.845,1.418,25.643c-10.807,4.008-10.428-12.935-3.413-11.118
	c-4.455,7.463,8.059,8.803,5.88-2.423c-1.856-9.564-16.875-8.47-13.364,4.798C-1.033,43.328,6.26,20.972,20.68,28.704z"/>
<linearGradient id="SVGID_5_" gradientUnits="userSpaceOnUse" x1="-542.9316" y1="256.7227" x2="-542.9316" y2="244.915" gradientTransform="matrix(1 0 0 -1 564 300)">
	<stop  offset="0" style="stop-color:#F9B700"/>
	<stop  offset="0.4306" style="stop-color:#F7AA01"/>
	<stop  offset="0.726" style="stop-color:#F59E01"/>
	<stop  offset="0.7929" style="stop-color:#EF9903"/>
	<stop  offset="0.8783" style="stop-color:#E08B0A"/>
	<stop  offset="0.9734" style="stop-color:#C67415"/>
	<stop  offset="0.9877" style="stop-color:#C17017"/>
	<a:midPointStop  offset="0" style="stop-color:#F9B700"/>
	<a:midPointStop  offset="0.5" style="stop-color:#F9B700"/>
	<a:midPointStop  offset="0.4306" style="stop-color:#F7AA01"/>
	<a:midPointStop  offset="0.5" style="stop-color:#F7AA01"/>
	<a:midPointStop  offset="0.726" style="stop-color:#F59E01"/>
	<a:midPointStop  offset="0.5" style="stop-color:#F59E01"/>
	<a:midPointStop  offset="0.7929" style="stop-color:#EF9903"/>
	<a:midPointStop  offset="0.5" style="stop-color:#EF9903"/>
	<a:midPointStop  offset="0.8783" style="stop-color:#E08B0A"/>
	<a:midPointStop  offset="0.5" style="stop-color:#E08B0A"/>
	<a:midPointStop  offset="0.9734" style="stop-color:#C67415"/>
	<a:midPointStop  offset="0.5" style="stop-color:#C67415"/>
	<a:midPointStop  offset="0.9877" style="stop-color:#C17017"/>
</linearGradient>
<path fill="url(#SVGID_5_)" d="M28.454,43.277c-0.261,5.097-2.691,9.847-6.338,11.199c-7.827,2.904-9.779-5.316-7.601-9.307
	C12.845,54.101,25.082,57.701,28.454,43.277z"/>
<linearGradient id="SVGID_6_" gradientUnits="userSpaceOnUse" x1="-547.2515" y1="268.8623" x2="-547.2515" y2="254.3965" gradientTransform="matrix(1 0 0 -1 564 300)">
	<stop  offset="0.229" style="stop-color:#F9B700"/>
	<stop  offset="0.4619" style="stop-color:#F7AA01"/>
	<stop  offset="0.6217" style="stop-color:#F59E01"/>
	<stop  offset="0.7153" style="stop-color:#EF9903"/>
	<stop  offset="0.8347" style="stop-color:#E08B0A"/>
	<stop  offset="0.9676" style="stop-color:#C67415"/>
	<stop  offset="0.9877" style="stop-color:#C17017"/>
	<a:midPointStop  offset="0.229" style="stop-color:#F9B700"/>
	<a:midPointStop  offset="0.5" style="stop-color:#F9B700"/>
	<a:midPointStop  offset="0.4619" style="stop-color:#F7AA01"/>
	<a:midPointStop  offset="0.5" style="stop-color:#F7AA01"/>
	<a:midPointStop  offset="0.6217" style="stop-color:#F59E01"/>
	<a:midPointStop  offset="0.5" style="stop-color:#F59E01"/>
	<a:midPointStop  offset="0.7153" style="stop-color:#EF9903"/>
	<a:midPointStop  offset="0.5" style="stop-color:#EF9903"/>
	<a:midPointStop  offset="0.8347" style="stop-color:#E08B0A"/>
	<a:midPointStop  offset="0.5" style="stop-color:#E08B0A"/>
	<a:midPointStop  offset="0.9676" style="stop-color:#C67415"/>
	<a:midPointStop  offset="0.5" style="stop-color:#C67415"/>
	<a:midPointStop  offset="0.9877" style="stop-color:#C17017"/>
</linearGradient>
<path fill="url(#SVGID_6_)" d="M20.514,32.393c3.633,1.924,4.489,6.465,4.051,8.413c-1.809-9.307-16.81-8.222-13.364,4.798
	C5.564,39.98,10.484,27.085,20.514,32.393z"/>
<path fill="#FFE463" d="M24.301,47.146c0.124-0.62-0.763,2.198-4.011,2.286C19.368,49.459,23.58,50.713,24.301,47.146z"/>
<radialGradient id="SVGID_7_" cx="28.46" cy="24.6719" r="29.9933" gradientUnits="userSpaceOnUse">
	<stop  offset="0.0102" style="stop-color:#FFE12C"/>
	<stop  offset="0.2239" style="stop-color:#FEDA24"/>
	<stop  offset="0.5519" style="stop-color:#FBC50F"/>
	<stop  offset="0.7321" style="stop-color:#F9B700"/>
	<stop  offset="0.891" style="stop-color:#F7AA01"/>
	<stop  offset="1" style="stop-color:#F59E01"/>
	<a:midPointStop  offset="0.0102" style="stop-color:#FFE12C"/>
	<a:midPointStop  offset="0.5" style="stop-color:#FFE12C"/>
	<a:midPointStop  offset="0.2239" style="stop-color:#FEDA24"/>
	<a:midPointStop  offset="0.5" style="stop-color:#FEDA24"/>
	<a:midPointStop  offset="0.5519" style="stop-color:#FBC50F"/>
	<a:midPointStop  offset="0.5" style="stop-color:#FBC50F"/>
	<a:midPointStop  offset="0.7321" style="stop-color:#F9B700"/>
	<a:midPointStop  offset="0.5" style="stop-color:#F9B700"/>
	<a:midPointStop  offset="0.891" style="stop-color:#F7AA01"/>
	<a:midPointStop  offset="0.5" style="stop-color:#F7AA01"/>
	<a:midPointStop  offset="1" style="stop-color:#F59E01"/>
</radialGradient>
<path fill="url(#SVGID_7_)" d="M32.001,0c0,0-9.546,10.726-8.554,21.292c0.63,6.715,4.788,12.028,5.558,16.821
	c0.354,2.201,0,9.92,0,9.92s2.451-0.293,2.997,1.311C35.474,27.772,32.001,0,32.001,0z"/>
<linearGradient id="SVGID_8_" gradientUnits="userSpaceOnUse" x1="36.3125" y1="49.3438" x2="36.3125" y2="4.882813e-004">
	<stop  offset="0.0123" style="stop-color:#C17017"/>
	<stop  offset="0.6789" style="stop-color:#F9B700"/>
	<a:midPointStop  offset="0.0123" style="stop-color:#C17017"/>
	<a:midPointStop  offset="0.5" style="stop-color:#C17017"/>
	<a:midPointStop  offset="0.6789" style="stop-color:#F9B700"/>
</linearGradient>
<path fill="url(#SVGID_8_)" d="M32.001,0L32,43.305c0-0.001,0.001-0.002,0.001-0.002v6.041c0.545-1.604,2.997-1.311,2.997-1.311
	s-0.354-7.721,0-9.924c0.77-4.791,4.927-10.104,5.556-16.817C41.547,10.723,32.001,0,32.001,0z"/>
<radialGradient id="SVGID_9_" cx="-535.0938" cy="243.4385" r="5.8765" gradientTransform="matrix(1 0 0 -1 564 300)" gradientUnits="userSpaceOnUse">
	<stop  offset="0.0102" style="stop-color:#FFE12C"/>
	<stop  offset="0.2239" style="stop-color:#FEDA24"/>
	<stop  offset="0.5519" style="stop-color:#FBC50F"/>
	<stop  offset="0.7321" style="stop-color:#F9B700"/>
	<stop  offset="0.891" style="stop-color:#F7AA01"/>
	<stop  offset="1" style="stop-color:#F59E01"/>
	<a:midPointStop  offset="0.0102" style="stop-color:#FFE12C"/>
	<a:midPointStop  offset="0.5" style="stop-color:#FFE12C"/>
	<a:midPointStop  offset="0.2239" style="stop-color:#FEDA24"/>
	<a:midPointStop  offset="0.5" style="stop-color:#FEDA24"/>
	<a:midPointStop  offset="0.5519" style="stop-color:#FBC50F"/>
	<a:midPointStop  offset="0.5" style="stop-color:#FBC50F"/>
	<a:midPointStop  offset="0.7321" style="stop-color:#F9B700"/>
	<a:midPointStop  offset="0.5" style="stop-color:#F9B700"/>
	<a:midPointStop  offset="0.891" style="stop-color:#F7AA01"/>
	<a:midPointStop  offset="0.5" style="stop-color:#F7AA01"/>
	<a:midPointStop  offset="1" style="stop-color:#F59E01"/>
</radialGradient>
<path fill="url(#SVGID_9_)" d="M32.001,50.61c0,0-0.91-1.908-2.75-1.401c-2.318,0.637-1.133,3.266-1.362,4.304
	c-0.579,2.634-2.689,2.634-2.689,2.634s1.015,1.727,2.678,1.727c1.205,0,1.535-0.742,1.535-0.742C29.154,60.006,32.001,64,32.001,64
	C33.376,56.562,32.001,50.61,32.001,50.61z"/>
<linearGradient id="SVGID_10_" gradientUnits="userSpaceOnUse" x1="-528.5962" y1="250.877" x2="-528.5962" y2="236" gradientTransform="matrix(1 0 0 -1 564 300)">
	<stop  offset="0.229" style="stop-color:#F9B700"/>
	<stop  offset="0.5238" style="stop-color:#F7AA01"/>
	<stop  offset="0.726" style="stop-color:#F59E01"/>
	<stop  offset="0.7929" style="stop-color:#EF9903"/>
	<stop  offset="0.8783" style="stop-color:#E08B0A"/>
	<stop  offset="0.9734" style="stop-color:#C67415"/>
	<stop  offset="0.9877" style="stop-color:#C17017"/>
	<a:midPointStop  offset="0.229" style="stop-color:#F9B700"/>
	<a:midPointStop  offset="0.5" style="stop-color:#F9B700"/>
	<a:midPointStop  offset="0.5238" style="stop-color:#F7AA01"/>
	<a:midPointStop  offset="0.5" style="stop-color:#F7AA01"/>
	<a:midPointStop  offset="0.726" style="stop-color:#F59E01"/>
	<a:midPointStop  offset="0.5" style="stop-color:#F59E01"/>
	<a:midPointStop  offset="0.7929" style="stop-color:#EF9903"/>
	<a:midPointStop  offset="0.5" style="stop-color:#EF9903"/>
	<a:midPointStop  offset="0.8783" style="stop-color:#E08B0A"/>
	<a:midPointStop  offset="0.5" style="stop-color:#E08B0A"/>
	<a:midPointStop  offset="0.9734" style="stop-color:#C67415"/>
	<a:midPointStop  offset="0.5" style="stop-color:#C67415"/>
	<a:midPointStop  offset="0.9877" style="stop-color:#C17017"/>
</linearGradient>
<path fill="url(#SVGID_10_)" d="M36.114,53.513c-0.227-1.038,0.955-3.667-1.363-4.304c-1.836-0.507-2.75,1.401-2.75,1.401V64
	c0,0,2.847-3.994,2.59-6.869c0,0,0.331,0.742,1.536,0.742c1.663,0,2.679-1.727,2.679-1.727S36.693,56.146,36.114,53.513z"/>
<path fill="#FFE463" d="M28.156,51.202c0.058,0.535,0.813-0.513,1.58-1.413C30.231,49.211,27.981,49.592,28.156,51.202z"/>
<radialGradient id="SVGID_11_" cx="-760.8335" cy="-228.936" r="21.2662" gradientTransform="matrix(0.8269 -0.0265 -0.0675 -0.9329 645.7484 -197.6065)" gradientUnits="userSpaceOnUse">
	<stop  offset="0.0102" style="stop-color:#FFE12C"/>
	<stop  offset="0.184" style="stop-color:#FEDA24"/>
	<stop  offset="0.4506" style="stop-color:#FBC50F"/>
	<stop  offset="0.5971" style="stop-color:#F9B700"/>
	<stop  offset="0.8361" style="stop-color:#F7AA01"/>
	<stop  offset="1" style="stop-color:#F59E01"/>
	<a:midPointStop  offset="0.0102" style="stop-color:#FFE12C"/>
	<a:midPointStop  offset="0.5" style="stop-color:#FFE12C"/>
	<a:midPointStop  offset="0.184" style="stop-color:#FEDA24"/>
	<a:midPointStop  offset="0.5" style="stop-color:#FEDA24"/>
	<a:midPointStop  offset="0.4506" style="stop-color:#FBC50F"/>
	<a:midPointStop  offset="0.5" style="stop-color:#FBC50F"/>
	<a:midPointStop  offset="0.5971" style="stop-color:#F9B700"/>
	<a:midPointStop  offset="0.5" style="stop-color:#F9B700"/>
	<a:midPointStop  offset="0.8361" style="stop-color:#F7AA01"/>
	<a:midPointStop  offset="0.5" style="stop-color:#F7AA01"/>
	<a:midPointStop  offset="1" style="stop-color:#F59E01"/>
</radialGradient>
<path fill="url(#SVGID_11_)" d="M40.486,43.182L40.486,43.182h-0.533c1.394,0,1.394-2,0-2c0.002,0,0.002,0,0.002,0h0.531
	c0.687,0,0.687-1,0-1h-0.001H23.514c-0.686,0-0.686,1,0,1h0.531l0,0c-1.383,0.002-1.391,1.971-0.026,1.998
	c0.01,0,0.017,0.002,0.026,0.002h-0.531c-0.686,0-0.686,0.999,0,0.999h16.972C41.173,44.182,41.173,43.182,40.486,43.182z"/>
<linearGradient id="SVGID_12_" gradientUnits="userSpaceOnUse" x1="-528.478" y1="258.8184" x2="-528.478" y2="256.8184" gradientTransform="matrix(1 0 0 -1 564 300)">
	<stop  offset="0.229" style="stop-color:#F9B700"/>
	<stop  offset="0.6475" style="stop-color:#F7AA01"/>
	<stop  offset="0.9346" style="stop-color:#F59E01"/>
	<a:midPointStop  offset="0.229" style="stop-color:#F9B700"/>
	<a:midPointStop  offset="0.5" style="stop-color:#F9B700"/>
	<a:midPointStop  offset="0.6475" style="stop-color:#F7AA01"/>
	<a:midPointStop  offset="0.5" style="stop-color:#F7AA01"/>
	<a:midPointStop  offset="0.9346" style="stop-color:#F59E01"/>
</linearGradient>
<path fill="url(#SVGID_12_)" d="M39.953,43.182h-9.908c10.955,0,9.908-2,9.908-2C41.347,41.182,41.347,43.182,39.953,43.182z"/>
<linearGradient id="SVGID_13_" gradientUnits="userSpaceOnUse" x1="-529.4917" y1="256.8184" x2="-529.4917" y2="255.8184" gradientTransform="matrix(1 0 0 -1 564 300)">
	<stop  offset="0.229" style="stop-color:#F9B700"/>
	<stop  offset="0.6475" style="stop-color:#F7AA01"/>
	<stop  offset="0.9346" style="stop-color:#F59E01"/>
	<a:midPointStop  offset="0.229" style="stop-color:#F9B700"/>
	<a:midPointStop  offset="0.5" style="stop-color:#F9B700"/>
	<a:midPointStop  offset="0.6475" style="stop-color:#F7AA01"/>
	<a:midPointStop  offset="0.5" style="stop-color:#F7AA01"/>
	<a:midPointStop  offset="0.9346" style="stop-color:#F59E01"/>
</linearGradient>
<path fill="url(#SVGID_13_)" d="M40.486,44.182H28.015c14.324,0,12.471-1,12.471-1C41.173,43.182,41.173,44.182,40.486,44.182z"/>
<linearGradient id="SVGID_14_" gradientUnits="userSpaceOnUse" x1="-529.4917" y1="259.8184" x2="-529.4917" y2="258.8184" gradientTransform="matrix(1 0 0 -1 564 300)">
	<stop  offset="0.229" style="stop-color:#F9B700"/>
	<stop  offset="0.6475" style="stop-color:#F7AA01"/>
	<stop  offset="0.9346" style="stop-color:#F59E01"/>
	<a:midPointStop  offset="0.229" style="stop-color:#F9B700"/>
	<a:midPointStop  offset="0.5" style="stop-color:#F9B700"/>
	<a:midPointStop  offset="0.6475" style="stop-color:#F7AA01"/>
	<a:midPointStop  offset="0.5" style="stop-color:#F7AA01"/>
	<a:midPointStop  offset="0.9346" style="stop-color:#F59E01"/>
</linearGradient>
<path fill="url(#SVGID_14_)" d="M40.486,41.182H28.015c14.324,0,12.471-1,12.471-1C41.173,40.182,41.173,41.182,40.486,41.182z"/>
</svg>
