<?xml version="1.0" encoding="utf-8"?>
<!-- Generator: Adobe Illustrator 24.1.2, SVG Export Plug-In . SVG Version: 6.00 Build 0)  -->
<svg version="1.1" id="Layer_1" xmlns="http://www.w3.org/2000/svg" xmlns:xlink="http://www.w3.org/1999/xlink" x="0px" y="0px"
	 width="64px" height="64px" viewBox="0 0 64 64" style="enable-background:new 0 0 64 64;" xml:space="preserve">
<style type="text/css">
	.st0{fill:url(#SVGID_1_);}
	.st1{opacity:0.2;fill:#302C3B;}
	.st2{fill:#FFFFFF;}
</style>
<linearGradient id="SVGID_1_" gradientUnits="userSpaceOnUse" x1="-62" y1="68" x2="-62" y2="8" gradientTransform="matrix(1 0 0 -1 94 70)">
	<stop  offset="0" style="stop-color:#FF3B3B"/>
	<stop  offset="0.2558" style="stop-color:#FB3737"/>
	<stop  offset="0.5207" style="stop-color:#F02B2A"/>
	<stop  offset="0.7889" style="stop-color:#DD1616"/>
	<stop  offset="1" style="stop-color:#C90100"/>
</linearGradient>
<path class="st0" d="M2,32C2,15.44,15.44,2,32,2c16.57,0,30,13.44,30,30c0,16.57-13.43,30-30,30C15.44,62,2,48.57,2,32z"/>
<path class="st1" d="M9,26.06L8.61,39.94c0,0.83,0.69,1.5,1.53,1.5h43.71c0.84,0,1.53-0.67,1.53-1.5L55,26.06H9z"/>
<path class="st2" d="M9,26.06c0-0.83,0.67-1.5,1.5-1.5h43c0.83,0,1.5,0.67,1.5,1.5v13c0,0.83-0.67,1.5-1.5,1.5h-43
	c-0.83,0-1.5-0.67-1.5-1.5V26.06z"/>
</svg>
