<?xml version="1.0" encoding="utf-8"?>
<!-- Generator: Adobe Illustrator 24.1.2, SVG Export Plug-In . SVG Version: 6.00 Build 0)  -->
<svg version="1.1" id="Layer_1" xmlns="http://www.w3.org/2000/svg" xmlns:xlink="http://www.w3.org/1999/xlink" x="0px" y="0px"
	 width="64px" height="64px" viewBox="0 0 64 64" style="enable-background:new 0 0 64 64;" xml:space="preserve">
<style type="text/css">
	.st0{fill:#FFD500;}
	.st1{fill:url(#SVGID_1_);}
	.st2{fill:url(#SVGID_2_);}
	.st3{fill:url(#SVGID_3_);}
	.st4{fill:#990095;}
	.st5{fill:#CF0000;}
	.st6{fill:url(#SVGID_4_);}
	.st7{fill:url(#SVGID_5_);}
	.st8{fill:#006DAE;}
	.st9{fill:#FFAA00;}
	.st10{fill:#529320;}
	.st11{fill:url(#SVGID_6_);}
	.st12{fill:#302C3B;}
	.st13{fill:url(#SVGID_7_);}
</style>
<path class="st0" d="M62,60.9c0,1.47-60,1.47-60,0c0-2.6,13.43-6.65,30-6.65C48.57,54.25,62,58.3,62,60.9z"/>
<linearGradient id="SVGID_1_" gradientUnits="userSpaceOnUse" x1="-444.0327" y1="58.2367" x2="-441.7197" y2="58.2367" gradientTransform="matrix(0.7632 0.6461 -0.6461 0.7632 398.9187 286.2612)">
	<stop  offset="0" style="stop-color:#C49C7D"/>
	<stop  offset="1" style="stop-color:#694739"/>
</linearGradient>
<polygon class="st1" points="13.42,58 10.45,57.94 34.37,29.7 36.13,31.19 "/>
<linearGradient id="SVGID_2_" gradientUnits="userSpaceOnUse" x1="-521.8127" y1="54.6689" x2="-521.8127" y2="14.9312" gradientTransform="matrix(0.7071 0.7071 -0.7071 0.7071 432.6828 346.7927)">
	<stop  offset="0" style="stop-color:#B300AF"/>
	<stop  offset="1" style="stop-color:#F02BEB"/>
</linearGradient>
<path class="st2" d="M50.34,13.66C37.93,1.25,19.38-0.32,14.47,4.59c0,0,4.31,7.24,7.36,7.36C21.83,11.95,42.89,6.22,50.34,13.66z"
	/>
<linearGradient id="SVGID_3_" gradientUnits="userSpaceOnUse" x1="-490.0345" y1="74.5405" x2="-490.0345" y2="34.8" gradientTransform="matrix(0.7071 0.7071 -0.7071 0.7071 432.6828 346.7927)">
	<stop  offset="0" style="stop-color:#CF0000"/>
	<stop  offset="1" style="stop-color:#FF000E"/>
</linearGradient>
<path class="st3" d="M50.34,13.66c7.45,7.45,1.71,28.51,1.71,28.51c0.12,3.06,7.36,7.36,7.36,7.36
	C64.32,44.62,62.75,26.08,50.34,13.66z"/>
<path class="st4" d="M14.47,4.59c0,0-2.17,2.69-1.76,3.94c0.71,2.18,3.01,4.47,5.19,5.18c1.25,0.41,3.94-1.76,3.94-1.76L14.47,4.59z
	"/>
<path class="st5" d="M52.05,42.17c0,0-2.17,2.69-1.76,3.94c0.71,2.18,3.01,4.48,5.18,5.19c1.25,0.41,3.94-1.76,3.94-1.76
	L52.05,42.17z"/>
<linearGradient id="SVGID_4_" gradientUnits="userSpaceOnUse" x1="-516.6087" y1="54.5486" x2="-516.6087" y2="15.0515" gradientTransform="matrix(0.7071 0.7071 -0.7071 0.7071 432.6828 346.7927)">
	<stop  offset="0" style="stop-color:#1774FF"/>
	<stop  offset="1" style="stop-color:#55DAF2"/>
</linearGradient>
<path class="st6" d="M50.34,13.66c-7.45-7.44-23.6-6.63-28.51-1.71c0,0,6.28,8.83,9.45,9.45L50.34,13.66z"/>
<linearGradient id="SVGID_5_" gradientUnits="userSpaceOnUse" x1="-495.2389" y1="74.5398" x2="-495.2389" y2="34.8" gradientTransform="matrix(0.7071 0.7071 -0.7071 0.7071 432.6828 346.7927)">
	<stop  offset="0" style="stop-color:#FFAA00"/>
	<stop  offset="1" style="stop-color:#FFEA00"/>
</linearGradient>
<path class="st7" d="M50.34,13.66L42.6,32.72c0.23,3.16,9.45,9.45,9.45,9.45C56.96,37.26,57.79,21.11,50.34,13.66z"/>
<path class="st8" d="M21.83,11.95c0,0-2.17,2.69-1.76,3.94c0.71,2.18,4.92,6.39,7.2,7.2c1.3,0.46,4.01-1.69,4.01-1.69L21.83,11.95z"
	/>
<path class="st9" d="M42.6,32.72c0,0-2.15,2.71-1.69,4.01c0.81,2.27,5.02,6.49,7.2,7.2c1.25,0.41,3.94-1.76,3.94-1.76L42.6,32.72z"
	/>
<path class="st10" d="M31.28,21.4c0,0-2.15,2.71-1.69,4.01c0.81,2.28,6.73,8.2,9,9c1.3,0.46,4.01-1.69,4.01-1.69
	C39.21,26.79,31.28,21.4,31.28,21.4z"/>
<linearGradient id="SVGID_6_" gradientUnits="userSpaceOnUse" x1="-505.9237" y1="53.7488" x2="-505.9237" y2="34.8" gradientTransform="matrix(0.7071 0.7071 -0.7071 0.7071 432.6828 346.7927)">
	<stop  offset="0" style="stop-color:#52A100"/>
	<stop  offset="1" style="stop-color:#9BE323"/>
</linearGradient>
<path class="st11" d="M50.34,13.66c0,0-9.72-1.6-19.06,7.73L42.6,32.72C51.94,23.39,50.34,13.66,50.34,13.66z"/>
<path class="st12" d="M52.94,16.57c-0.92-2.93-2.61-4.61-5.52-5.51C49.08,12.37,51.63,14.92,52.94,16.57z"/>
<radialGradient id="SVGID_7_" cx="33.6289" cy="57.0839" r="20.7666" gradientTransform="matrix(1 0 0 0.2011 0 45.607)" gradientUnits="userSpaceOnUse">
	<stop  offset="0" style="stop-color:#571700;stop-opacity:0.2"/>
	<stop  offset="0.2312" style="stop-color:#591A00;stop-opacity:0.1538"/>
	<stop  offset="0.3806" style="stop-color:#612200;stop-opacity:0.1239"/>
	<stop  offset="0.5069" style="stop-color:#6E3100;stop-opacity:0.0986"/>
	<stop  offset="0.6203" style="stop-color:#814600;stop-opacity:0.0759"/>
	<stop  offset="0.725" style="stop-color:#996100;stop-opacity:0.055"/>
	<stop  offset="0.8235" style="stop-color:#B68300;stop-opacity:0.0353"/>
	<stop  offset="0.9152" style="stop-color:#D9AA00;stop-opacity:0.017"/>
	<stop  offset="1" style="stop-color:#FFD500;stop-opacity:0"/>
</radialGradient>
<path class="st13" d="M32,54.25c-8.44,0-16.07,1.05-21.52,2.43c0.56,2.95,10.61,5.3,22.96,5.32c0.2,0,0.39,0,0.59,0
	c11.1-0.05,20.29-1.97,22.34-4.51C50.92,55.74,42.04,54.25,32,54.25z"/>
</svg>
