<?xml version="1.0" encoding="utf-8"?>
<!-- Generator: Adobe Illustrator 24.1.2, SVG Export Plug-In . SVG Version: 6.00 Build 0)  -->
<svg version="1.1" id="Layer_1" xmlns="http://www.w3.org/2000/svg" xmlns:xlink="http://www.w3.org/1999/xlink" x="0px" y="0px"
	 width="64px" height="64px" viewBox="0 0 64 64" style="enable-background:new 0 0 64 64;" xml:space="preserve">
<style type="text/css">
	.st0{fill:#3AB0A2;}
	.st1{fill:#99A8AE;}
	.st2{fill:url(#SVGID_1_);}
	.st3{fill:url(#SVGID_2_);}
	.st4{fill:url(#SVGID_3_);}
	.st5{fill:url(#SVGID_4_);}
	.st6{fill:#2B998D;}
	.st7{fill:url(#SVGID_5_);}
	.st8{fill:url(#SVGID_6_);}
	.st9{fill:url(#SVGID_7_);}
	.st10{fill:url(#SVGID_8_);}
	.st11{fill:url(#SVGID_9_);}
	.st12{fill:url(#SVGID_10_);}
	.st13{fill:#302C3B;}
</style>
<path class="st0" d="M18.77,43.08l-12.8-6.95c-1.49-0.75,1.64-3.26,2.68-3.2c4.56,0.27,18.15,2.15,18.15,2.15L18.77,43.08z"/>
<path class="st0" d="M20.82,45.13l6.95,12.8c0.74,1.5,3.26-1.64,3.19-2.68c-0.27-4.56-2.14-18.15-2.14-18.15L20.82,45.13z"/>
<path class="st1" d="M23.04,19.78l-1.63,2.71c-0.17,0.29,0.04,0.5,0.33,0.33l2.71-1.63L23.04,19.78z"/>
<path class="st1" d="M28.54,22.16l-1.63,2.71c-0.17,0.29,0.04,0.5,0.33,0.33l2.71-1.62L28.54,22.16z"/>
<path class="st1" d="M17.51,17.44l-1.63,2.71c-0.17,0.29,0.04,0.5,0.33,0.33l2.71-1.63L17.51,17.44z"/>
<path class="st1" d="M44.11,40.85l-2.71,1.63c-0.29,0.17-0.5-0.04-0.33-0.33l1.63-2.71L44.11,40.85z"/>
<path class="st1" d="M41.73,35.36l-2.71,1.63c-0.29,0.17-0.5-0.04-0.33-0.33l1.62-2.71L41.73,35.36z"/>
<path class="st1" d="M46.46,46.38l-2.71,1.63c-0.29,0.17-0.5-0.04-0.33-0.33l1.63-2.71L46.46,46.38z"/>
<linearGradient id="SVGID_1_" gradientUnits="userSpaceOnUse" x1="234.0618" y1="8.1527" x2="238.115" y2="8.1527" gradientTransform="matrix(0.7071 0.7071 -0.7071 0.7071 -128.3359 -160.9821)">
	<stop  offset="0.3939" style="stop-color:#D8DDE0"/>
	<stop  offset="0.5351" style="stop-color:#D3D9DC"/>
	<stop  offset="0.7017" style="stop-color:#C5CDD1"/>
	<stop  offset="0.8805" style="stop-color:#ADB9BE"/>
	<stop  offset="1" style="stop-color:#99A8AE"/>
</linearGradient>
<path class="st2" d="M37.42,9.6l-2.46-2.45c0,0-6.21,4.3-5.48,7.91C33.11,15.79,37.42,9.6,37.42,9.6z"/>
<polygon class="st1" points="37.64,9.38 35.18,6.93 34.96,7.15 37.42,9.6 "/>
<linearGradient id="SVGID_2_" gradientUnits="userSpaceOnUse" x1="235.4125" y1="8.0364" x2="236.7601" y2="8.0364" gradientTransform="matrix(0.7071 0.7071 -0.7071 0.7071 -128.3359 -160.9821)">
	<stop  offset="0" style="stop-color:#D8DDE0"/>
	<stop  offset="0.233" style="stop-color:#D3D9DC"/>
	<stop  offset="0.5076" style="stop-color:#C5CDD1"/>
	<stop  offset="0.8022" style="stop-color:#ADB9BE"/>
	<stop  offset="1" style="stop-color:#99A8AE"/>
</linearGradient>
<path class="st3" d="M30.02,13.72l0.82,0.81c0,0,4.22-3.58,4.58-5.38C33.61,9.51,30.02,13.72,30.02,13.72z"/>
<linearGradient id="SVGID_3_" gradientUnits="userSpaceOnUse" x1="225.3779" y1="15.2896" x2="229.4325" y2="15.2896" gradientTransform="matrix(0.7071 0.7071 -0.7071 0.7071 -128.3359 -160.9821)">
	<stop  offset="0.3939" style="stop-color:#D8DDE0"/>
	<stop  offset="0.5351" style="stop-color:#D3D9DC"/>
	<stop  offset="0.7017" style="stop-color:#C5CDD1"/>
	<stop  offset="0.8805" style="stop-color:#ADB9BE"/>
	<stop  offset="1" style="stop-color:#99A8AE"/>
</linearGradient>
<path class="st4" d="M26.24,8.51l-2.46-2.45c0,0-6.2,4.3-5.48,7.91C21.92,14.69,26.24,8.51,26.24,8.51z"/>
<polygon class="st1" points="26.46,8.29 24,5.84 23.77,6.06 26.24,8.51 "/>
<linearGradient id="SVGID_4_" gradientUnits="userSpaceOnUse" x1="226.7284" y1="15.1729" x2="228.0768" y2="15.1729" gradientTransform="matrix(0.7071 0.7071 -0.7071 0.7071 -128.3359 -160.9821)">
	<stop  offset="0" style="stop-color:#D8DDE0"/>
	<stop  offset="0.233" style="stop-color:#D3D9DC"/>
	<stop  offset="0.5076" style="stop-color:#C5CDD1"/>
	<stop  offset="0.8022" style="stop-color:#ADB9BE"/>
	<stop  offset="1" style="stop-color:#99A8AE"/>
</linearGradient>
<path class="st5" d="M18.83,12.62l0.82,0.82c0,0,4.23-3.58,4.58-5.38C22.42,8.41,18.83,12.62,18.83,12.62z"/>
<path class="st0" d="M6.68,7.53c-2.07-0.19-2.76,1.04-4,2.29c-2.02,2.02,0.71,2.86,5.08,4.74L34,25.84l12.87-12.83
	C46.87,13.01,21.09,8.85,6.68,7.53z"/>
<path class="st6" d="M8.98,13.27l3.94-3.95c12.82,1.17,29.41,4.08,32.92,4.71l0.12-0.12c0,0-18.79-3.42-33.2-4.74l-4.13,4.12
	l26.69,11.45l0.16-0.17L8.98,13.27z"/>
<linearGradient id="SVGID_5_" gradientUnits="userSpaceOnUse" x1="49.5892" y1="8.105" x2="53.642" y2="8.105" gradientTransform="matrix(-0.7071 -0.7071 -0.7071 0.7071 94.6907 62.0447)">
	<stop  offset="0.3939" style="stop-color:#D8DDE0"/>
	<stop  offset="0.5351" style="stop-color:#D3D9DC"/>
	<stop  offset="0.7017" style="stop-color:#C5CDD1"/>
	<stop  offset="0.8805" style="stop-color:#ADB9BE"/>
	<stop  offset="1" style="stop-color:#99A8AE"/>
</linearGradient>
<path class="st7" d="M54.59,26.71l2.46,2.45c0,0-4.31,6.18-7.94,5.46C48.38,31,54.59,26.71,54.59,26.71z"/>
<polygon class="st1" points="54.81,26.49 57.27,28.94 57.05,29.16 54.59,26.71 "/>
<linearGradient id="SVGID_6_" gradientUnits="userSpaceOnUse" x1="50.9447" y1="7.989" x2="52.2933" y2="7.989" gradientTransform="matrix(-0.7071 -0.7071 -0.7071 0.7071 94.6907 62.0447)">
	<stop  offset="0" style="stop-color:#D8DDE0"/>
	<stop  offset="0.233" style="stop-color:#D3D9DC"/>
	<stop  offset="0.5076" style="stop-color:#C5CDD1"/>
	<stop  offset="0.8022" style="stop-color:#ADB9BE"/>
	<stop  offset="1" style="stop-color:#99A8AE"/>
</linearGradient>
<path class="st8" d="M50.46,34.09l-0.82-0.82c0,0,3.59-4.21,5.4-4.56C54.68,30.5,50.46,34.09,50.46,34.09z"/>
<linearGradient id="SVGID_7_" gradientUnits="userSpaceOnUse" x1="40.924" y1="15.2115" x2="44.9785" y2="15.2115" gradientTransform="matrix(-0.7071 -0.7071 -0.7071 0.7071 94.6907 62.0447)">
	<stop  offset="0.3939" style="stop-color:#D8DDE0"/>
	<stop  offset="0.5351" style="stop-color:#D3D9DC"/>
	<stop  offset="0.7017" style="stop-color:#C5CDD1"/>
	<stop  offset="0.8805" style="stop-color:#ADB9BE"/>
	<stop  offset="1" style="stop-color:#99A8AE"/>
</linearGradient>
<path class="st9" d="M55.69,37.86l2.46,2.45c0,0-4.31,6.18-7.94,5.46C49.48,42.16,55.69,37.86,55.69,37.86z"/>
<polygon class="st1" points="55.91,37.64 58.37,40.09 58.15,40.31 55.69,37.86 "/>
<linearGradient id="SVGID_8_" gradientUnits="userSpaceOnUse" x1="42.2804" y1="15.0963" x2="43.6285" y2="15.0963" gradientTransform="matrix(-0.7071 -0.7071 -0.7071 0.7071 94.6907 62.0447)">
	<stop  offset="0" style="stop-color:#D8DDE0"/>
	<stop  offset="0.233" style="stop-color:#D3D9DC"/>
	<stop  offset="0.5076" style="stop-color:#C5CDD1"/>
	<stop  offset="0.8022" style="stop-color:#ADB9BE"/>
	<stop  offset="1" style="stop-color:#99A8AE"/>
</linearGradient>
<path class="st10" d="M51.56,45.24l-0.82-0.82c0,0,3.59-4.21,5.4-4.56C55.78,41.66,51.56,45.24,51.56,45.24z"/>
<path class="st0" d="M56.66,57.33c0.19,2.06-1.07,2.76-2.3,3.99c-2.01,2.01-2.86-0.71-4.75-5.06L38.3,30.12l12.87-12.83
	C51.16,17.29,55.34,42.97,56.66,57.33z"/>
<path class="st6" d="M50.9,55.05l3.96-3.93c-1.18-12.78-4.09-29.31-4.72-32.81l0.12-0.12c0,0,3.43,18.72,4.76,33.09L50.9,55.4
	L39.4,28.8l0.16-0.16L50.9,55.05z"/>
<linearGradient id="SVGID_9_" gradientUnits="userSpaceOnUse" x1="36.6594" y1="-252.3661" x2="47.9846" y2="-252.3661" gradientTransform="matrix(0.7071 0.7071 -0.7071 0.7071 -169.5569 173.5991)">
	<stop  offset="0.297" style="stop-color:#E6EBEF"/>
	<stop  offset="0.5884" style="stop-color:#E1E7EB"/>
	<stop  offset="0.9319" style="stop-color:#D3DBE0"/>
	<stop  offset="1" style="stop-color:#CFD8DD"/>
</linearGradient>
<path class="st11" d="M61.66,2.34c-0.86-0.85-7.45-0.51-13.56,5.57C37.32,18.65,27.51,28.39,23.59,32.3
	c-3.28,3.27-8.52,14.61-7.61,15.51c0.9,0.9,12.28-4.31,15.57-7.57c4.05-4.04,13.67-13.58,24.52-24.39
	C62.16,9.77,62.5,3.19,61.66,2.34z"/>
<linearGradient id="SVGID_10_" gradientUnits="userSpaceOnUse" x1="248.6888" y1="38.6293" x2="250.7162" y2="38.6293" gradientTransform="matrix(0.7071 0.7071 -0.7071 0.7071 -128.3359 -160.9821)">
	<stop  offset="0" style="stop-color:#E6EBEF"/>
	<stop  offset="0.2077" style="stop-color:#E1E7EB"/>
	<stop  offset="0.4527" style="stop-color:#D3DADF"/>
	<stop  offset="0.7164" style="stop-color:#BBC6CB"/>
	<stop  offset="0.9917" style="stop-color:#9AA9AF"/>
	<stop  offset="1" style="stop-color:#99A8AE"/>
</linearGradient>
<path class="st12" d="M27.9,35.95c-0.6-0.6-6.13,4.68-9.12,7.66c-2.99,2.98-5.23,5.86-4.83,6.25c0.4,0.39,3.27-1.83,6.27-4.82
	C23.2,42.05,28.5,36.55,27.9,35.95"/>
<path class="st13" d="M57.97,9.6c-0.07-0.36-0.2-0.75-0.39-1.14l1.42-0.9c0.21,0.62,0.24,1.21,0.18,1.71L57.97,9.6z"/>
<path class="st13" d="M58.93,7.34l-1.46,0.92c-0.18-0.34-0.41-0.67-0.71-0.96l1.27-1.27C58.47,6.45,58.75,6.9,58.93,7.34z"/>
<path class="st13" d="M59.15,9.52c-0.06,0.33-0.15,0.61-0.24,0.81c-0.09,0.21-0.86,0.3-0.85,0.08c0-0.17-0.01-0.37-0.05-0.59
	L59.15,9.52z"/>
<path class="st13" d="M54.3,5.92c0.36,0.07,0.75,0.2,1.14,0.39l0.9-1.42c-0.62-0.21-1.21-0.24-1.71-0.18L54.3,5.92z"/>
<path class="st13" d="M56.55,4.96l-0.92,1.46c0.34,0.18,0.67,0.41,0.96,0.71l1.27-1.27C57.44,5.42,57,5.14,56.55,4.96z"/>
<path class="st13" d="M54.38,4.74c-0.33,0.06-0.61,0.15-0.81,0.24c-0.21,0.09-0.3,0.86-0.08,0.85c0.17,0,0.37,0.01,0.59,0.05
	L54.38,4.74z"/>
</svg>
