<?xml version="1.0" encoding="utf-8"?>
<!-- Generator: Adobe Illustrator 24.1.2, SVG Export Plug-In . SVG Version: 6.00 Build 0)  -->
<svg version="1.1" id="Layer_1" xmlns="http://www.w3.org/2000/svg" xmlns:xlink="http://www.w3.org/1999/xlink" x="0px" y="0px"
	 width="64px" height="64px" viewBox="0 0 64 64" style="enable-background:new 0 0 64 64;" xml:space="preserve">
<style type="text/css">
	.st0{fill:url(#SVGID_1_);}
	.st1{fill:url(#SVGID_2_);}
	.st2{opacity:0.3;fill:#302C3B;}
	.st3{fill:url(#SVGID_3_);}
	.st4{fill:url(#SVGID_4_);}
</style>
<linearGradient id="SVGID_1_" gradientUnits="userSpaceOnUse" x1="-486.673" y1="-403.5934" x2="-486.673" y2="-421.6107" gradientTransform="matrix(2.9058 0 0 2.7675 1446.1859 1173.9446)">
	<stop  offset="0" style="stop-color:#DB0100"/>
	<stop  offset="0.5836" style="stop-color:#F31317"/>
	<stop  offset="1" style="stop-color:#FF1C23"/>
</linearGradient>
<path class="st0" d="M32.01,14.45C24.23,1.83,3.02,6.37,2.09,21.74c3,2.05,18.29,17.83,15.26,23.32c4.08,3.45,8.97,7.34,14.65,11.95
	c19.22-15.58,29.34-22.89,29.93-33.25c-5.15-3.19-18.71-12.53-20.47-16.14C37.73,8.52,34.29,10.75,32.01,14.45z"/>
<radialGradient id="SVGID_2_" cx="31.9371" cy="22.5722" r="21.0387" gradientUnits="userSpaceOnUse">
	<stop  offset="0" style="stop-color:#D5DEF2"/>
	<stop  offset="1" style="stop-color:#C0C9DB"/>
</radialGradient>
<path class="st1" d="M5.23,32.64c0.67,1.01,1.44,2.02,2.31,3.04c7.98-0.53,48.62-18.51,51.1-22.56c-1.21-1.49-2.7-2.72-4.35-3.67
	C43.4,10.27,18.21,20.89,5.23,32.64z"/>
<path class="st2" d="M2.09,21.76c25.33,5.03,56.57-8.62,56.57-8.62c-4.36,7.12,3.28,10.58,3.28,10.58s-31.03,19.83-56.72,8.9
	C5.22,32.63,8.19,28.99,2.09,21.76z"/>
<linearGradient id="SVGID_3_" gradientUnits="userSpaceOnUse" x1="696.3426" y1="391.1362" x2="750.9435" y2="391.1362" gradientTransform="matrix(0.8979 0.4402 -0.4402 0.8979 -445.6399 -646.862)">
	<stop  offset="0" style="stop-color:#CFD7EB"/>
	<stop  offset="0.1111" style="stop-color:#D9E0F0"/>
	<stop  offset="0.3088" style="stop-color:#E6EAF5"/>
	<stop  offset="0.5" style="stop-color:#EAEEF7"/>
	<stop  offset="0.6912" style="stop-color:#E6EAF5"/>
	<stop  offset="0.8889" style="stop-color:#D9E0F0"/>
	<stop  offset="1" style="stop-color:#CFD7EB"/>
</linearGradient>
<path class="st3" d="M2.09,21.76c25.21,6.4,56.57-8.62,56.57-8.62c4.09,4.67,3.28,10.58,3.28,10.58s-33.08,18.46-56.72,8.9
	C5.22,32.63,1.38,27.95,2.09,21.76z"/>
<path class="st2" d="M7.52,35.66C32.01,25.73,41.49,7.61,41.49,7.61c1.39,5.91,8.51,6.81,12.8,1.85c0,0-6.03,24.94-36.96,35.57
	C17.33,45.03,19.69,36.86,7.52,35.66z"/>
<linearGradient id="SVGID_4_" gradientUnits="userSpaceOnUse" x1="7.4337" y1="26.0161" x2="54.2048" y2="26.0161" gradientTransform="matrix(1 0 0 1 0.0857 0)">
	<stop  offset="0" style="stop-color:#E2E7F0"/>
	<stop  offset="0.5" style="stop-color:#FFFFFF"/>
	<stop  offset="0.8255" style="stop-color:#EDF0F6"/>
	<stop  offset="1" style="stop-color:#E2E7F0"/>
</linearGradient>
<path class="st4" d="M7.52,35.66c26.81-9.6,33.98-28.05,33.98-28.05c2.71-1.35,10.37-0.35,12.8,1.85c0,0-6.81,24.01-36.96,35.57
	C17.33,45.03,11.3,40.4,7.52,35.66z"/>
</svg>
