<?xml version="1.0" encoding="utf-8"?>
<!-- Generator: Adobe Illustrator 24.1.2, SVG Export Plug-In . SVG Version: 6.00 Build 0)  -->
<svg version="1.1" id="Layer_1" xmlns="http://www.w3.org/2000/svg" xmlns:xlink="http://www.w3.org/1999/xlink" x="0px" y="0px"
	 width="64px" height="64px" viewBox="0 0 64 64" style="enable-background:new 0 0 64 64;" xml:space="preserve">
<style type="text/css">
	.st0{fill:url(#SVGID_1_);}
	.st1{fill:#CCD8E6;}
</style>
<linearGradient id="SVGID_1_" gradientUnits="userSpaceOnUse" x1="-62" y1="8" x2="-62" y2="68" gradientTransform="matrix(1 0 0 -1 94 70)">
	<stop  offset="0" style="stop-color:#E6F2FF"/>
	<stop  offset="0.23" style="stop-color:#F1F8FF"/>
	<stop  offset="0.58" style="stop-color:#FCFDFF"/>
	<stop  offset="1" style="stop-color:#FFFFFF"/>
</linearGradient>
<path class="st0" d="M5,2H59c1.66,0,3,1.34,3,3V59c0,1.66-1.34,3-3,3H5c-1.66,0-3-1.34-3-3V5C2,3.34,3.34,2,5,2z"/>
<path class="st1" d="M59,4c0.55,0,1,0.45,1,1V59c0,0.55-0.45,1-1,1H5c-0.55,0-1-0.45-1-1V5c0-0.55,0.45-1,1-1H59 M59,2H5
	C3.34,2,2,3.34,2,5V59c0,1.66,1.34,3,3,3H59c1.66,0,3-1.34,3-3V5C62,3.34,60.66,2,59,2L59,2z"/>
</svg>
