<?xml version="1.0" encoding="utf-8"?>
<!-- Generator: Adobe Illustrator 24.1.2, SVG Export Plug-In . SVG Version: 6.00 Build 0)  -->
<svg version="1.1" id="Layer_1" xmlns="http://www.w3.org/2000/svg" xmlns:xlink="http://www.w3.org/1999/xlink" x="0px" y="0px"
	 width="64px" height="64px" viewBox="0 0 64 64" style="enable-background:new 0 0 64 64;" xml:space="preserve">
<style type="text/css">
	.st0{fill:url(#SVGID_1_);}
	.st1{fill:#FFFFFF;}
</style>
<linearGradient id="SVGID_1_" gradientUnits="userSpaceOnUse" x1="32" y1="2" x2="32" y2="62">
	<stop  offset="0" style="stop-color:#00ABF1"/>
	<stop  offset="0.2292" style="stop-color:#00A7EF"/>
	<stop  offset="0.4667" style="stop-color:#009AE9"/>
	<stop  offset="0.7079" style="stop-color:#0086E0"/>
	<stop  offset="0.9504" style="stop-color:#0069D3"/>
	<stop  offset="1" style="stop-color:#0062D0"/>
</linearGradient>
<path class="st0" d="M62,54c0,4.4-3.6,8-8,8H10c-4.4,0-8-3.6-8-8V10c0-4.4,3.6-8,8-8h44c4.4,0,8,3.6,8,8V54z"/>
<path class="st1" d="M41.85,33.84c-1.16-1.14-2.77-1.84-4.63-2.28c1.6-0.43,3-1.1,4.06-2.17c1.3-1.32,1.95-2.95,1.95-4.92
	c0-1.76-0.49-3.26-1.47-4.52c-0.98-1.26-2.32-2.23-4.02-2.92C36.05,16.34,34.13,16,32,16c-2.14,0-4.05,0.34-5.75,1.03
	c-1.7,0.69-3.04,1.66-4.02,2.92c-0.98,1.26-1.47,2.76-1.47,4.52c0,1.9,0.65,3.52,1.95,4.85c1.05,1.07,2.45,1.76,4.06,2.24
	c-1.85,0.42-3.44,1.1-4.61,2.22c-1.44,1.38-2.15,3.16-2.15,5.35c0,1.84,0.51,3.42,1.54,4.74c1.03,1.32,2.44,2.33,4.24,3.05
	C27.59,47.64,29.66,48,32,48c2.34,0,4.41-0.36,6.21-1.08c1.8-0.72,3.21-1.73,4.24-3.05c1.03-1.32,1.54-2.9,1.54-4.74
	C43.98,37,43.27,35.23,41.85,33.84z M28.55,22.21c0.89-0.66,2.04-0.99,3.44-0.99c1.41,0,2.55,0.33,3.45,0.99
	c0.89,0.66,1.34,1.66,1.34,3.01c0,1.29-0.45,2.3-1.36,3.03c-0.91,0.73-2.05,1.21-3.43,1.45c-1.38-0.23-2.51-0.72-3.42-1.45
	c-0.91-0.73-1.36-1.74-1.36-3.03C27.22,23.87,27.66,22.87,28.55,22.21z M36.06,41.72c-1.04,0.7-2.39,1.05-4.06,1.05
	c-1.67,0-3.02-0.35-4.06-1.05c-1.04-0.7-1.56-1.74-1.56-3.12c0-1.32,0.53-2.35,1.58-3.12c1.05-0.76,2.4-1.27,4.04-1.54
	c1.64,0.26,2.99,0.78,4.04,1.54c1.05,0.76,1.58,1.8,1.58,3.12C37.62,39.98,37.1,41.02,36.06,41.72z"/>
</svg>
