<?xml version="1.0" encoding="utf-8"?>
<!-- Generator: Adobe Illustrator 24.1.2, SVG Export Plug-In . SVG Version: 6.00 Build 0)  -->
<svg version="1.1" id="Layer_1" xmlns="http://www.w3.org/2000/svg" xmlns:xlink="http://www.w3.org/1999/xlink" x="0px" y="0px"
	 width="64px" height="64px" viewBox="0 0 64 64" style="enable-background:new 0 0 64 64;" xml:space="preserve">
<style type="text/css">
	.st0{fill:url(#SVGID_1_);}
	.st1{fill:url(#SVGID_2_);}
	.st2{fill:url(#SVGID_3_);}
	.st3{fill:url(#SVGID_4_);}
</style>
<linearGradient id="SVGID_1_" gradientUnits="userSpaceOnUse" x1="-62" y1="8" x2="-62" y2="68" gradientTransform="matrix(1 0 0 -1 94 70)">
	<stop  offset="0" style="stop-color:#DBC7B6"/>
	<stop  offset="0.3267" style="stop-color:#EADCCC"/>
	<stop  offset="0.7336" style="stop-color:#F9F1E2"/>
	<stop  offset="0.9969" style="stop-color:#FFF8EA"/>
</linearGradient>
<path class="st0" d="M53,56.35c0,3.11-2.54,5.65-5.65,5.65H16.65C13.54,62,11,59.46,11,56.35V7.65C11,4.54,13.54,2,16.65,2h30.71
	C50.46,2,53,4.54,53,7.65V56.35z"/>
<linearGradient id="SVGID_2_" gradientUnits="userSpaceOnUse" x1="-62.0834" y1="47.8993" x2="-62.0834" y2="66.279" gradientTransform="matrix(1 0 0 -1 94 70)">
	<stop  offset="0.6" style="stop-color:#FFFFFF;stop-opacity:0"/>
	<stop  offset="1" style="stop-color:#FFFFFF;stop-opacity:0.5"/>
</linearGradient>
<path class="st1" d="M51.16,20.13V8.25c0-2.49-2.04-4.53-4.53-4.53H17.21c-2.49,0-4.53,2.04-4.53,4.53v11.88H51.16z"/>
<linearGradient id="SVGID_3_" gradientUnits="userSpaceOnUse" x1="32.0834" y1="60.279" x2="32.0834" y2="43.8681">
	<stop  offset="0" style="stop-color:#E8D8CA"/>
	<stop  offset="0" style="stop-color:#E8D8CA"/>
	<stop  offset="0.5" style="stop-color:#E8D8CA;stop-opacity:0"/>
</linearGradient>
<path class="st2" d="M12.84,43.87v11.88c0,2.49,2.04,4.53,4.53,4.53h29.42c2.49,0,4.53-2.04,4.53-4.53V43.87H12.84z"/>
<linearGradient id="SVGID_4_" gradientUnits="userSpaceOnUse" x1="-62.0019" y1="60.0014" x2="-62.0019" y2="16" gradientTransform="matrix(1 0 0 -1 94 70)">
	<stop  offset="0" style="stop-color:#FF3B3B"/>
	<stop  offset="0.2558" style="stop-color:#FB3737"/>
	<stop  offset="0.5207" style="stop-color:#F02B2A"/>
	<stop  offset="0.7889" style="stop-color:#DD1616"/>
	<stop  offset="1" style="stop-color:#C90100"/>
</linearGradient>
<path class="st3" d="M27.85,10.07c1.8-0.35,2.41,0.72,3.98,1.15c1.51,0.41,3.37,0.07,3.54,1.38c0.14,1.1-1.19,1.3-1.44,2.19
	c-0.49,1.73,0.28,3.49,0.11,5.4c3.08,0.13,5.83-0.91,8.18,0c1.32,0.51,3.97,2.72,3.76,4.83c-0.1,1.05-1.34,1.5-1.66,2.3
	c-0.66,1.64-0.48,4.08-0.89,6.21c-0.34,1.79-0.9,4.62-2.21,4.83c-1.38,0.22-2-1.49-2.76-1.96c-1.47-0.9-2.76-0.67-4.86-0.57
	C32.85,40.21,33.38,51.4,30.62,54c0.36-6.21-0.29-12.24-0.55-18.17c-1.36,0.13-5.61-0.28-6.86,1.03c-0.88,0.94-0.31,2.63-1.99,2.3
	c-0.58-1.03-0.29-1.78-0.44-2.99c-0.36-2.81-1.37-6.63-2.1-9.66c-0.27-1.14-0.77-2.58-0.66-3.22c0.2-1.17,1.74-1.78,2.87-1.84
	c0.44,0,0.31,0.6,0.33,1.04c2.33-0.8,4.91-1.34,7.96-1.38c0.14-2.42,0.6-5.11-0.11-7.36C28.64,12.39,26.25,11.45,27.85,10.07z
	 M33.94,23.64c-0.27,3.02,0.04,6.63-0.33,9.55c1.39-0.1,5,0.26,6.47,1.06c0.47-3.12,2.36-7.24,1.27-10.49
	C39.02,23.36,36.16,23.92,33.94,23.64z M21.88,25.36c0.4,2.88,0.66,5.9,0.77,9.08c1.67-1.36,4.23-1.81,7.3-1.72
	c0.05-3.08-0.21-5.84-0.33-8.74C26.5,23.88,24.25,24.68,21.88,25.36z"/>
</svg>
