<?xml version="1.0" encoding="utf-8"?>
<!-- Generator: Adobe Illustrator 24.1.2, SVG Export Plug-In . SVG Version: 6.00 Build 0)  -->
<svg version="1.1" id="Layer_1" xmlns="http://www.w3.org/2000/svg" xmlns:xlink="http://www.w3.org/1999/xlink" x="0px" y="0px"
	 width="64px" height="64px" viewBox="0 0 64 64" style="enable-background:new 0 0 64 64;" xml:space="preserve">
<style type="text/css">
	.st0{fill:url(#SVGID_1_);}
	.st1{fill:#FFFFFF;}
</style>
<linearGradient id="SVGID_1_" gradientUnits="userSpaceOnUse" x1="32" y1="2" x2="32" y2="62">
	<stop  offset="0" style="stop-color:#FF3B3B"/>
	<stop  offset="0.2558" style="stop-color:#FB3737"/>
	<stop  offset="0.5207" style="stop-color:#F02B2A"/>
	<stop  offset="0.7889" style="stop-color:#DD1616"/>
	<stop  offset="1" style="stop-color:#C90100"/>
</linearGradient>
<path class="st0" d="M62,54c0,4.4-3.6,8-8,8H10c-4.4,0-8-3.6-8-8V10c0-4.4,3.6-8,8-8h44c4.4,0,8,3.6,8,8V54z"/>
<path class="st1" d="M40.13,17.95c-2.27-1.3-4.96-1.95-8.09-1.95c-3.13,0-5.83,0.65-8.11,1.95c-2.28,1.3-4.04,3.15-5.28,5.55
	c-1.25,2.4-1.87,5.22-1.87,8.46c0,3.27,0.62,6.11,1.87,8.5c1.24,2.4,3,4.25,5.28,5.57c2.28,1.32,4.98,1.97,8.11,1.97
	c3.13,0,5.82-0.66,8.09-1.97c2.27-1.31,4.01-3.17,5.24-5.57c1.23-2.4,1.84-5.23,1.84-8.5c0-3.24-0.61-6.06-1.84-8.46
	C44.14,21.1,42.4,19.25,40.13,17.95z M38.16,39.96c-1.51,1.83-3.55,2.74-6.11,2.74c-2.6,0-4.65-0.9-6.14-2.72
	c-1.49-1.81-2.23-4.49-2.23-8.02c0-3.51,0.75-6.16,2.23-7.96c1.49-1.8,3.54-2.7,6.14-2.7c2.57,0,4.61,0.9,6.11,2.7
	c1.51,1.8,2.26,4.45,2.26,7.96S39.67,38.13,38.16,39.96z"/>
</svg>
