<?xml version="1.0" encoding="utf-8"?>
<!-- Generator: Adobe Illustrator 24.1.2, SVG Export Plug-In . SVG Version: 6.00 Build 0)  -->
<svg version="1.1" id="Layer_1" xmlns="http://www.w3.org/2000/svg" xmlns:xlink="http://www.w3.org/1999/xlink" x="0px" y="0px"
	 width="64px" height="64px" viewBox="0 0 64 64" style="enable-background:new 0 0 64 64;" xml:space="preserve">
<style type="text/css">
	.st0{fill:url(#SVGID_1_);}
	.st1{fill:#FFFFFF;}
	.st2{fill:url(#SVGID_2_);}
</style>
<linearGradient id="SVGID_1_" gradientUnits="userSpaceOnUse" x1="32" y1="64" x2="32" y2="-9.094947e-13">
	<stop  offset="0" style="stop-color:#35AD00"/>
	<stop  offset="0.1319" style="stop-color:#39B900"/>
	<stop  offset="0.4271" style="stop-color:#41CD00"/>
	<stop  offset="0.7186" style="stop-color:#45DA00"/>
	<stop  offset="1" style="stop-color:#47DE00"/>
</linearGradient>
<path class="st0" d="M32,0C14.33,0,0,14.33,0,32s14.33,32,32,32s32-14.33,32-32S49.67,0,32,0L32,0z"/>
<circle class="st1" cx="32" cy="32" r="28"/>
<linearGradient id="SVGID_2_" gradientUnits="userSpaceOnUse" x1="32" y1="57" x2="32" y2="7">
	<stop  offset="0" style="stop-color:#35AD00"/>
	<stop  offset="0.1319" style="stop-color:#39B900"/>
	<stop  offset="0.4271" style="stop-color:#41CD00"/>
	<stop  offset="0.7186" style="stop-color:#45DA00"/>
	<stop  offset="1" style="stop-color:#47DE00"/>
</linearGradient>
<circle class="st2" cx="32" cy="32" r="25"/>
<path class="st1" d="M27.25,24.83c-1.19-0.66-2.6-0.99-4.24-0.99s-3.06,0.33-4.25,0.99c-1.19,0.66-2.12,1.61-2.77,2.83
	C15.33,28.88,15,30.32,15,31.98c0,1.67,0.32,3.12,0.97,4.34c0.65,1.22,1.57,2.17,2.77,2.84c1.2,0.67,2.62,1.01,4.26,1.01
	s3.05-0.33,4.24-1.01c1.19-0.67,2.1-1.62,2.75-2.84c0.65-1.22,0.97-2.67,0.97-4.34c0-1.65-0.33-3.09-0.97-4.32
	C29.35,26.44,28.43,25.5,27.25,24.83z M25.79,35.71c-0.69,0.83-1.62,1.25-2.79,1.25s-2.09-0.41-2.77-1.24
	c-0.69-0.83-1.03-2.08-1.03-3.75c0-1.65,0.34-2.89,1.03-3.71c0.69-0.82,1.61-1.23,2.77-1.23s2.09,0.41,2.79,1.24
	c0.69,0.83,1.04,2.06,1.04,3.7C26.83,33.63,26.49,34.88,25.79,35.71z"/>
<polygon class="st1" points="49,39.96 41.72,31.59 48.75,24.04 43.83,24.04 37.64,30.88 37.64,24.04 33.43,24.04 33.43,39.96 
	37.64,39.96 37.64,32.74 44.01,39.96 "/>
</svg>
