<?xml version="1.0" encoding="utf-8"?>
<!-- Generator: Adobe Illustrator 24.1.2, SVG Export Plug-In . SVG Version: 6.00 Build 0)  -->
<svg version="1.1" id="Layer_1" xmlns="http://www.w3.org/2000/svg" xmlns:xlink="http://www.w3.org/1999/xlink" x="0px" y="0px"
	 width="64px" height="64px" viewBox="0 0 64 64" style="enable-background:new 0 0 64 64;" xml:space="preserve">
<style type="text/css">
	.st0{fill:url(#SVGID_1_);}
	.st1{fill:#FFFFFF;}
</style>
<linearGradient id="SVGID_1_" gradientUnits="userSpaceOnUse" x1="32" y1="64" x2="32" y2="-9.094947e-13">
	<stop  offset="0" style="stop-color:#FF6A00"/>
	<stop  offset="0.1132" style="stop-color:#FF7400"/>
	<stop  offset="0.4147" style="stop-color:#FF8800"/>
	<stop  offset="0.7125" style="stop-color:#FF9500"/>
	<stop  offset="1" style="stop-color:#FF9900"/>
</linearGradient>
<polygon class="st0" points="54.66,34.99 64,32 54.66,29.01 62.92,23.72 53.12,23.25 59.72,15.99 50.14,18.09 58.49,5.51 
	45.91,13.86 48.01,4.29 40.75,10.88 40.28,1.08 34.99,9.34 32,0 29.01,9.34 23.72,1.08 23.25,10.88 15.99,4.28 18.09,13.86 
	5.51,5.51 13.86,18.09 4.29,15.99 10.88,23.25 1.08,23.72 9.34,29.01 0,32 9.34,34.99 1.08,40.28 10.88,40.75 4.28,48.01 
	13.86,45.91 5.51,58.49 18.09,50.14 15.99,59.71 23.25,53.12 23.72,62.92 29.01,54.66 32,64 34.99,54.66 40.28,62.92 40.75,53.12 
	48.01,59.71 45.91,50.14 58.49,58.49 50.14,45.91 59.71,48.01 53.12,40.75 62.92,40.28 "/>
<polygon class="st1" points="29.88,23.29 24.8,34.98 19.77,23.29 15,23.29 22.93,40.71 26.58,40.71 34.51,23.29 "/>
<path class="st1" d="M48.71,33.73c-0.2-0.53-0.53-1.01-0.99-1.44c-0.47-0.43-1.1-0.82-1.91-1.16c-0.81-0.34-1.81-0.64-3.02-0.88
	c-1-0.21-1.74-0.41-2.23-0.6c-0.49-0.19-0.82-0.39-0.99-0.6c-0.17-0.21-0.26-0.45-0.26-0.71c0-0.54,0.25-0.97,0.76-1.29
	c0.5-0.32,1.17-0.48,2.01-0.48c0.83,0,1.67,0.14,2.52,0.42c0.85,0.28,1.66,0.69,2.45,1.25l1.42-3.25c-0.44-0.39-1.01-0.73-1.7-1.02
	c-0.69-0.29-1.45-0.51-2.26-0.66c-0.82-0.15-1.64-0.23-2.47-0.23c-1.44,0-2.69,0.24-3.77,0.73c-1.08,0.49-1.92,1.16-2.52,2.01
	c-0.61,0.85-0.91,1.8-0.91,2.86c0,0.67,0.09,1.27,0.28,1.81c0.19,0.54,0.51,1.02,0.98,1.46c0.46,0.43,1.11,0.82,1.93,1.15
	c0.82,0.33,1.86,0.62,3.12,0.87c0.91,0.2,1.62,0.39,2.11,0.58c0.49,0.19,0.82,0.39,1,0.61c0.18,0.22,0.27,0.47,0.27,0.75
	c0,0.47-0.26,0.85-0.77,1.13c-0.51,0.28-1.27,0.42-2.26,0.42c-0.96,0-1.92-0.14-2.88-0.42c-0.95-0.28-1.85-0.69-2.7-1.25l-1.44,3.25
	c0.54,0.39,1.19,0.73,1.95,1.02c0.76,0.29,1.57,0.51,2.43,0.66c0.86,0.15,1.73,0.23,2.6,0.23c1.62,0,2.99-0.22,4.11-0.66
	c1.13-0.44,1.98-1.07,2.57-1.89C48.71,37.57,49,36.6,49,35.48C49,34.84,48.9,34.26,48.71,33.73z"/>
</svg>
