<?xml version="1.0" encoding="utf-8"?>
<!-- Generator: Adobe Illustrator 24.1.2, SVG Export Plug-In . SVG Version: 6.00 Build 0)  -->
<svg version="1.1" id="Layer_1" xmlns="http://www.w3.org/2000/svg" xmlns:xlink="http://www.w3.org/1999/xlink" x="0px" y="0px"
	 width="64px" height="64px" viewBox="0 0 64 64" style="enable-background:new 0 0 64 64;" xml:space="preserve">
<style type="text/css">
	.st0{fill:url(#SVGID_1_);}
	.st1{fill:url(#SVGID_2_);}
	.st2{fill:url(#SVGID_3_);}
	.st3{fill:url(#SVGID_4_);}
	.st4{fill:url(#SVGID_5_);}
	.st5{fill:url(#SVGID_6_);}
</style>
<linearGradient id="SVGID_1_" gradientUnits="userSpaceOnUse" x1="32" y1="61.9754" x2="32" y2="2.0999">
	<stop  offset="0" style="stop-color:#0062D0"/>
	<stop  offset="1" style="stop-color:#00ABF1"/>
</linearGradient>
<path class="st0" d="M5.18,21.69L60.13,6.96c1.1-0.3,1.87-1.3,1.87-2.44C62,3.13,60.87,2,59.48,2H4.52C3.13,2,2,3.13,2,4.52v14.72
	C2,20.91,3.57,22.12,5.18,21.69z"/>
<linearGradient id="SVGID_2_" gradientUnits="userSpaceOnUse" x1="32" y1="61.9754" x2="32" y2="2.0999">
	<stop  offset="0" style="stop-color:#0062D0"/>
	<stop  offset="1" style="stop-color:#00ABF1"/>
</linearGradient>
<path class="st1" d="M58.82,42.31L3.87,57.04C2.77,57.33,2,58.33,2,59.48C2,60.87,3.13,62,4.52,62h54.95c1.39,0,2.52-1.13,2.52-2.52
	V44.75C62,43.09,60.43,41.88,58.82,42.31z"/>
<linearGradient id="SVGID_3_" gradientUnits="userSpaceOnUse" x1="12.9493" y1="61.9754" x2="12.9493" y2="2.0999">
	<stop  offset="0" style="stop-color:#0062D0"/>
	<stop  offset="1" style="stop-color:#00ABF1"/>
</linearGradient>
<polygon class="st2" points="17.9,30.4 17.9,26.62 8,29.27 8,47.59 11.69,46.6 11.69,39.17 17.5,37.61 17.5,33.85 11.69,35.41 
	11.69,32.07 "/>
<linearGradient id="SVGID_4_" gradientUnits="userSpaceOnUse" x1="25.7959" y1="61.9754" x2="25.7959" y2="2.0999">
	<stop  offset="0" style="stop-color:#0062D0"/>
	<stop  offset="1" style="stop-color:#00ABF1"/>
</linearGradient>
<path class="st3" d="M30.04,32.87c0.9-1.26,1.34-2.72,1.34-4.36c0-1.75-0.43-2.99-1.29-3.72c-0.86-0.73-2.15-0.87-3.87-0.4
	l-6.59,1.77v18.32l3.68-0.99v-7.13L24.67,36c0.32-0.09,0.62-0.09,0.9-0.01c0.28,0.08,0.48,0.29,0.6,0.64L28,42.23l3.96-1.06
	l-1.67-5.01c-0.23-0.7-0.54-1.18-0.95-1.46c-0.28-0.19-0.57-0.28-0.88-0.28C29.07,34.01,29.6,33.49,30.04,32.87z M27.37,31.19
	c-0.35,0.41-0.93,0.73-1.74,0.94l-2.35,0.63v-3.94l2.35-0.63c0.81-0.22,1.39-0.22,1.74,0c0.35,0.22,0.53,0.67,0.53,1.38
	C27.9,30.24,27.72,30.78,27.37,31.19z"/>
<linearGradient id="SVGID_5_" gradientUnits="userSpaceOnUse" x1="38.9113" y1="61.9754" x2="38.9113" y2="2.0999">
	<stop  offset="0" style="stop-color:#0062D0"/>
	<stop  offset="1" style="stop-color:#00ABF1"/>
</linearGradient>
<polygon class="st4" points="43.97,23.34 43.97,19.63 33.85,22.34 33.85,40.66 43.97,37.95 43.97,34.25 37.5,35.98 37.5,32.23 
	43.55,30.6 43.55,26.9 37.5,28.52 37.5,25.07 "/>
<linearGradient id="SVGID_6_" gradientUnits="userSpaceOnUse" x1="50.9413" y1="61.9754" x2="50.9413" y2="2.0999">
	<stop  offset="0" style="stop-color:#0062D0"/>
	<stop  offset="1" style="stop-color:#00ABF1"/>
</linearGradient>
<polygon class="st5" points="56,20.11 56,16.41 45.88,19.12 45.88,37.44 56,34.73 56,31.02 49.53,32.76 49.53,29 55.58,27.38 
	55.58,23.67 49.53,25.3 49.53,21.85 "/>
</svg>
