<?xml version="1.0" encoding="utf-8"?>
<!-- Generator: Adobe Illustrator 24.1.2, SVG Export Plug-In . SVG Version: 6.00 Build 0)  -->
<svg version="1.1" id="Layer_1" xmlns="http://www.w3.org/2000/svg" xmlns:xlink="http://www.w3.org/1999/xlink" x="0px" y="0px"
	 width="64px" height="64px" viewBox="0 0 64 64" style="enable-background:new 0 0 64 64;" xml:space="preserve">
<style type="text/css">
	.st0{fill:url(#SVGID_1_);}
	.st1{fill:#FFFFFF;}
</style>
<linearGradient id="SVGID_1_" gradientUnits="userSpaceOnUse" x1="32" y1="2" x2="32" y2="62">
	<stop  offset="0" style="stop-color:#FF9900"/>
	<stop  offset="0.2875" style="stop-color:#FF9500"/>
	<stop  offset="0.5853" style="stop-color:#FF8800"/>
	<stop  offset="0.8868" style="stop-color:#FF7400"/>
	<stop  offset="1" style="stop-color:#FF6A00"/>
</linearGradient>
<circle class="st0" cx="32" cy="32" r="30"/>
<path class="st1" d="M40.83,17.89c-2.5-1.26-5.51-1.89-9.01-1.89H19.42v32h12.41c3.53,0,6.55-0.64,9.06-1.91
	c2.5-1.27,4.41-3.1,5.73-5.48c1.32-2.38,1.98-5.26,1.98-8.65c0-3.36-0.67-6.22-2-8.61C45.25,20.97,43.33,19.15,40.83,17.89z
	 M39.01,39.75c-1.71,1.72-4.27,2.58-7.69,2.58h-4.9V21.66h4.9c6.83,0,10.25,3.43,10.25,10.29C41.57,35.43,40.72,38.03,39.01,39.75z"
	/>
</svg>
