<?xml version="1.0" encoding="utf-8"?>
<!-- Generator: Adobe Illustrator 24.1.2, SVG Export Plug-In . SVG Version: 6.00 Build 0)  -->
<svg version="1.1" id="Layer_1" xmlns="http://www.w3.org/2000/svg" xmlns:xlink="http://www.w3.org/1999/xlink" x="0px" y="0px"
	 width="64px" height="64px" viewBox="0 0 64 64" style="enable-background:new 0 0 64 64;" xml:space="preserve">
<style type="text/css">
	.st0{fill:url(#SVGID_1_);}
	.st1{fill:#FFFFFF;}
</style>
<linearGradient id="SVGID_1_" gradientUnits="userSpaceOnUse" x1="32" y1="2" x2="32" y2="62">
	<stop  offset="0" style="stop-color:#FF9900"/>
	<stop  offset="0.2875" style="stop-color:#FF9500"/>
	<stop  offset="0.5853" style="stop-color:#FF8800"/>
	<stop  offset="0.8868" style="stop-color:#FF7400"/>
	<stop  offset="1" style="stop-color:#FF6A00"/>
</linearGradient>
<circle class="st0" cx="32" cy="32" r="30"/>
<path class="st1" d="M32.56,35.16h6.14v6.91c-0.58,0.16-1.17,0.29-1.78,0.39c-1.13,0.19-2.24,0.28-3.35,0.28
	c-3.19,0-5.56-0.9-7.12-2.7c-1.56-1.8-2.35-4.49-2.35-8.09c0-3.51,0.75-6.14,2.26-7.89c1.5-1.75,3.76-2.63,6.77-2.63
	c1.61,0,3.09,0.23,4.45,0.7s2.78,1.23,4.27,2.28l2.19-4.91c-1.26-1.11-2.86-1.97-4.82-2.59C37.26,16.31,35.17,16,32.95,16
	c-3.22,0-6.01,0.64-8.37,1.93c-2.37,1.29-4.2,3.13-5.5,5.52c-1.3,2.4-1.95,5.23-1.95,8.5c0,3.33,0.65,6.2,1.95,8.59
	c1.3,2.4,3.16,4.24,5.57,5.52c2.41,1.29,5.28,1.93,8.61,1.93c1.4,0,2.8-0.09,4.19-0.26c1.39-0.18,2.72-0.44,3.99-0.79
	c1.27-0.35,2.42-0.77,3.44-1.27v-15.3H32.56V35.16z"/>
</svg>
