<?xml version="1.0" encoding="utf-8"?>
<!-- Generator: Adobe Illustrator 15.0.0, SVG Export Plug-In . SVG Version: 6.00 Build 0)  -->
<!DOCTYPE svg PUBLIC "-//W3C//DTD SVG 1.1//EN" "http://www.w3.org/Graphics/SVG/1.1/DTD/svg11.dtd" [
	<!ENTITY ns_flows "http://ns.adobe.com/Flows/1.0/">
	<!ENTITY ns_extend "http://ns.adobe.com/Extensibility/1.0/">
	<!ENTITY ns_ai "http://ns.adobe.com/AdobeIllustrator/10.0/">
	<!ENTITY ns_graphs "http://ns.adobe.com/Graphs/1.0/">
]>
<svg version="1.1" id="Layer_1" xmlns:x="&ns_extend;" xmlns:i="&ns_ai;" xmlns:graph="&ns_graphs;"
	 xmlns="http://www.w3.org/2000/svg" xmlns:xlink="http://www.w3.org/1999/xlink" xmlns:a="http://ns.adobe.com/AdobeSVGViewerExtensions/3.0/"
	 x="0px" y="0px" width="64px" height="64px" viewBox="0 0 64 64" enable-background="new 0 0 64 64" xml:space="preserve">
<path fill="#E81C27" d="M2.423,37C4.058,46.742,10.381,54.895,19,59.045V37H2.423z"/>
<path fill="#E81C27" d="M61.578,27C59.195,12.813,46.865,2,32,2c-1.012,0-2.013,0.052-3,0.15V27H61.578z"/>
<path fill="#E81C27" d="M19,4.956C10.381,9.106,4.058,17.258,2.423,27H19V4.956z"/>
<path fill="#E81C27" d="M29,61.85c0.987,0.098,1.988,0.15,3,0.15c14.866,0,27.196-10.813,29.579-25H29V61.85z"/>
<path fill="#FCFCFC" d="M61.578,27H29V2.15c-3.551,0.353-6.921,1.323-10,2.806V27H2.423C2.149,28.627,2,30.295,2,32
	c0,1.705,0.149,3.373,0.423,5H19v22.045c3.078,1.482,6.448,2.453,10,2.805V37h32.579C61.852,35.373,62,33.705,62,32
	C62,30.295,61.852,28.627,61.578,27z"/>
<linearGradient id="SVGID_1_" gradientUnits="userSpaceOnUse" x1="32.0005" y1="62" x2="32.0005" y2="2.0005">
	<stop  offset="0" style="stop-color:#1A1A1A"/>
	<stop  offset="0.102" style="stop-color:#393939;stop-opacity:0.949"/>
	<stop  offset="0.3475" style="stop-color:#7F7F7F;stop-opacity:0.8262"/>
	<stop  offset="0.5688" style="stop-color:#B6B6B6;stop-opacity:0.7156"/>
	<stop  offset="0.7582" style="stop-color:#DEDEDE;stop-opacity:0.6209"/>
	<stop  offset="0.9081" style="stop-color:#F6F6F6;stop-opacity:0.5459"/>
	<stop  offset="1" style="stop-color:#FFFFFF;stop-opacity:0.5"/>
	<a:midPointStop  offset="0" style="stop-color:#1A1A1A"/>
	<a:midPointStop  offset="0.4" style="stop-color:#1A1A1A"/>
	<a:midPointStop  offset="1" style="stop-color:#FFFFFF;stop-opacity:0.5"/>
</linearGradient>
<circle opacity="0.1" fill="url(#SVGID_1_)" cx="32" cy="32" r="30"/>
</svg>
