<?xml version="1.0" encoding="utf-8"?>
<!-- Generator: Adobe Illustrator 24.1.2, SVG Export Plug-In . SVG Version: 6.00 Build 0)  -->
<svg version="1.1" id="Layer_1" xmlns="http://www.w3.org/2000/svg" xmlns:xlink="http://www.w3.org/1999/xlink" x="0px" y="0px"
	 width="64px" height="64px" viewBox="0 0 64 64" style="enable-background:new 0 0 64 64;" xml:space="preserve">
<style type="text/css">
	.st0{fill:#E81C27;}
	.st1{fill:#22CB41;}
	.st2{fill:#FCFCFC;}
	.st3{opacity:0.1;fill:url(#SVGID_1_);}
</style>
<path class="st0" d="M13.01,55.23L13.01,55.23c11.02,9.03,26.95,9.03,37.97,0L32,36.24L13.01,55.23z"/>
<path class="st1" d="M8.77,13.02c-9.03,11.02-9.03,26.96,0,37.97L27.76,32L8.77,13.02z"/>
<path class="st0" d="M50.99,8.77c-11.02-9.03-26.96-9.03-37.97,0h0L32,27.76L50.99,8.77z"/>
<path class="st1" d="M55.23,13.01L36.24,32l18.99,18.99C64.26,39.97,64.26,24.03,55.23,13.01z"/>
<path class="st2" d="M55.23,13.01L55.23,13.01c-0.63-0.77-1.3-1.51-2.02-2.23c-0.72-0.71-1.46-1.39-2.23-2.01L32,27.76L13.01,8.77
	c-0.77,0.63-1.51,1.3-2.23,2.01c-0.72,0.72-1.39,1.46-2.02,2.23l0,0L27.76,32L8.77,50.99c0.63,0.77,1.3,1.51,2.02,2.23
	c0.72,0.72,1.46,1.39,2.23,2.02L32,36.24l18.99,18.99l0,0c0.77-0.63,1.51-1.3,2.23-2.02c0.72-0.72,1.39-1.46,2.02-2.23L36.24,32
	L55.23,13.01z"/>
<circle class="st2" cx="32" cy="32" r="15"/>
<path class="st0" d="M35,24.78h-2L32,23l-1,1.78h-2l0,0l0,0l1,1.78l-1,1.78h2l1,1.78l1-1.78h2l-1-1.78L35,24.78L35,24.78z"/>
<path class="st1" d="M32,30.37l-1.07-1.91h-2.14l1.07-1.9l-1.07-1.9h2.14L32,22.75l1.08,1.91h2.14l-1.07,1.9l1.07,1.9h-2.14
	L32,30.37z M29.21,28.21h1.86L32,29.86l0.93-1.65h1.86l-0.93-1.65l0.93-1.65h-1.86L32,23.25l-0.93,1.65h-1.86l0.93,1.65L29.21,28.21
	z"/>
<path class="st0" d="M29,33.67h-2l-1-1.78l-1,1.78h-2l0,0l0,0l1,1.78l-1,1.78h2L26,39l1-1.78h2l-1-1.78L29,33.67L29,33.67z"/>
<path class="st1" d="M26,39.25l-1.07-1.91h-2.14l1.07-1.9l-1.07-1.9h2.14L26,31.63l1.08,1.91h2.14l-1.07,1.9l1.07,1.9h-2.14
	L26,39.25z M23.21,37.1h1.86L26,38.75l0.93-1.65h1.86l-0.93-1.65l0.93-1.65h-1.86L26,32.14l-0.93,1.65h-1.86l0.93,1.65L23.21,37.1z"
	/>
<path class="st0" d="M41,33.67h-2l-1-1.78l-1,1.78h-2l0,0l0,0l1,1.78l-1,1.78h2L38,39l1-1.78h2l-1-1.78L41,33.67L41,33.67z"/>
<path class="st1" d="M38,39.25l-1.07-1.91h-2.14l1.07-1.9l-1.07-1.9h2.14L38,31.63l1.08,1.91h2.14l-1.07,1.9l1.07,1.9h-2.14
	L38,39.25z M35.21,37.1h1.86L38,38.75l0.93-1.65h1.86l-0.93-1.65l0.93-1.65h-1.86L38,32.14l-0.93,1.65h-1.86l0.93,1.65L35.21,37.1z"
	/>
<linearGradient id="SVGID_1_" gradientUnits="userSpaceOnUse" x1="32" y1="62" x2="32" y2="2">
	<stop  offset="0" style="stop-color:#1A1A1A"/>
	<stop  offset="0.102" style="stop-color:#393939;stop-opacity:0.949"/>
	<stop  offset="0.3475" style="stop-color:#7F7F7F;stop-opacity:0.8262"/>
	<stop  offset="0.5688" style="stop-color:#B6B6B6;stop-opacity:0.7156"/>
	<stop  offset="0.7582" style="stop-color:#DEDEDE;stop-opacity:0.6209"/>
	<stop  offset="0.9081" style="stop-color:#F6F6F6;stop-opacity:0.5459"/>
	<stop  offset="1" style="stop-color:#FFFFFF;stop-opacity:0.5"/>
</linearGradient>
<circle class="st3" cx="32" cy="32" r="30"/>
</svg>
