<?xml version="1.0" encoding="utf-8"?>
<!-- Generator: Adobe Illustrator 24.1.2, SVG Export Plug-In . SVG Version: 6.00 Build 0)  -->
<svg version="1.1" id="Layer_1" xmlns="http://www.w3.org/2000/svg" xmlns:xlink="http://www.w3.org/1999/xlink" x="0px" y="0px"
	 width="64px" height="64px" viewBox="0 0 64 64" style="enable-background:new 0 0 64 64;" xml:space="preserve">
<style type="text/css">
	.st0{fill:#69B4E9;}
	.st1{fill:#FCFCFC;}
	.st2{fill:#007934;}
	.st3{fill:#6C301E;}
	.st4{fill:#B2B6BA;}
	.st5{fill:#8C959D;}
	.st6{fill:#FAB81C;}
	.st7{fill:#DBCC55;}
	.st8{fill:#C7B842;}
	.st9{fill:#E0D36B;}
	.st10{fill:#E8DC7D;}
	.st11{fill:#F9F0AA;}
	.st12{fill:#EDE391;}
	.st13{fill:url(#SVGID_1_);}
	.st14{fill:#EAC102;}
	.st15{opacity:0.1;fill:url(#SVGID_2_);}
</style>
<path class="st0" d="M62,32c0-13.06-8.35-24.17-20-28.29v56.57C53.65,56.17,62,45.06,62,32z"/>
<path class="st0" d="M2,32c0,13.06,8.35,24.17,20,28.29V3.71C10.35,7.83,2,18.94,2,32z"/>
<path class="st1" d="M42,3.71C38.87,2.61,35.51,2,32,2c-3.51,0-6.87,0.61-10,1.71v56.57C25.13,61.39,28.49,62,32,62
	c3.51,0,6.87-0.61,10-1.71V3.71z"/>
<polygon class="st2" points="32.52,39.55 32.52,39.55 32.52,39.55 "/>
<path class="st2" d="M26.81,34.86C26.81,34.85,26.8,34.85,26.81,34.86C26.8,34.85,26.8,34.85,26.81,34.86z"/>
<path class="st2" d="M29.62,38.85C29.62,38.85,29.62,38.85,29.62,38.85c-0.61,0.03-1.77,0.82-1.88,1.01
	C28.13,39.86,30,39.6,29.62,38.85C29.62,38.85,29.62,38.85,29.62,38.85z"/>
<path class="st2" d="M25.81,28.73C25.44,29.01,26.14,28.49,25.81,28.73L25.81,28.73z"/>
<path class="st2" d="M26.78,27.44c-0.11,0.01-0.45,0.2-0.82,0.46c0.23-0.31,0.44-0.75,0.57-1.32c0,0,0,0.01-0.01,0.01
	c0,0,0-0.01,0-0.01c-0.21,0.07-1.3,1.14-1.49,1.78c0.09,0.06,0.2,0.08,0.3,0.05c-0.16,0.15-0.29,0.31-0.36,0.45c0,0,0,0,0,0
	c0,0,0,0,0,0c0.13,0.18,0.46,0.14,0.83-0.14C26.14,28.49,26.5,28.06,26.78,27.44z"/>
<path class="st2" d="M28.64,36.55C28.96,36.75,28.58,36.51,28.64,36.55L28.64,36.55z"/>
<path class="st2" d="M23.01,33.39C23.01,33.39,23.1,33.48,23.01,33.39L23.01,33.39z"/>
<path class="st2" d="M24.48,28.42c0.08,0.06,0.16,0.08,0.24,0.05c0.08-0.67-0.47-2.09-0.63-2.24c0,0.01,0,0.01,0,0.02
	c0,0,0-0.01,0-0.01C23.88,27.37,24.16,28.2,24.48,28.42z"/>
<path class="st2" d="M24.48,28.42C24.16,28.2,24.56,28.47,24.48,28.42L24.48,28.42z"/>
<path class="st2" d="M23.75,32.52C23.5,32.31,24.07,32.8,23.75,32.52L23.75,32.52z"/>
<path class="st2" d="M23.75,32.52c0.32,0.28,0.62,0.34,0.73,0.17c-0.25-0.51-1.27-1.2-1.45-1.22c0,0,0,0,0,0
	C23.24,31.96,23.5,32.31,23.75,32.52z"/>
<path class="st2" d="M25,27.11c0.03,0.02,0.07,0.02,0.1,0.02c0.23-0.58,0.07-2-0.04-2.17c0,0,0,0.01,0,0.01c0,0,0,0,0,0
	C24.55,26.06,24.69,26.97,25,27.11z"/>
<path class="st2" d="M25,27.11C24.69,26.97,25.03,27.13,25,27.11L25,27.11z"/>
<path class="st2" d="M25.17,35.06C24.9,35.21,25.23,35.02,25.17,35.06L25.17,35.06z"/>
<path class="st2" d="M25.17,35.06c0.06-0.04,0.1-0.09,0.12-0.15c-0.43-0.33-1.62-0.48-1.79-0.42c0,0,0,0,0,0c0,0,0,0,0,0
	C24.2,35.09,24.9,35.21,25.17,35.06z"/>
<path class="st2" d="M37.49,27.79c0.28,0.94,0.83,1.38,1.65,1.3c0,0,0,0,0,0c0,0,0,0,0,0C38.86,28.55,37.69,27.81,37.49,27.79z"/>
<path class="st2" d="M37.77,26.9C37.8,26.91,37.92,26.94,37.77,26.9C37.76,26.9,37.77,26.9,37.77,26.9
	C37.76,26.9,37.76,26.9,37.77,26.9c0.22,1.02,0.79,1.57,1.11,1.53c0.05,0,0.09-0.02,0.12-0.05C38.85,27.84,37.96,26.97,37.77,26.9z"
	/>
<path class="st2" d="M38.36,30.1c0-0.02-0.02-0.04-0.08-0.08c-0.02,0.42,0.19,2.5,0.9,2.12c0,0-0.01,0-0.01-0.01
	c0,0,0.01,0,0.01-0.01C39.19,31.51,38.62,30.42,38.36,30.1z"/>
<path class="st2" d="M24.67,31.97c0,0.02,0,0.04,0,0.06C24.71,31.81,24.67,31.83,24.67,31.97z"/>
<polygon class="st2" points="40.59,30.15 40.59,30.15 40.59,30.15 "/>
<path class="st2" d="M24.7,30.5C24.78,30.25,24.69,30.43,24.7,30.5L24.7,30.5z"/>
<path class="st2" d="M39,33.33C38.98,33.45,39.01,33.34,39,33.33L39,33.33z"/>
<path class="st2" d="M39.84,29.54C39.7,29.64,39.71,29.81,39.84,29.54L39.84,29.54z"/>
<path class="st2" d="M35.9,37.71C36.04,37.57,35.92,37.69,35.9,37.71L35.9,37.71z"/>
<path class="st2" d="M29.89,38.41c0.05-0.07,0.07-0.18,0.06-0.3c0.1,0.14,0.21,0.27,0.31,0.35c0.35-0.98-0.05-1.77-1.2-2.36h0
	c-0.01,0.13,0.15,0.59,0.37,1.08c-0.2-0.22-0.46-0.44-0.79-0.64c-0.06-0.04-0.12-0.07-0.18-0.11c0.01,0.21,0.63,1.39,1.19,1.89
	c-0.32-0.11-0.62-0.2-0.84-0.26c-0.16-0.06-0.32-0.12-0.47-0.19c-0.01-0.01-0.04-0.02-0.07-0.04c0.07,0.05,0.15,0.06,0.22,0.03
	c0.08-0.7-0.49-2.16-0.65-2.31c0,0,0,0.01,0,0.01c0,0,0-0.01,0-0.01c-0.18,1.05,0.03,1.85,0.31,2.17c-0.53-0.3-1-0.7-1.39-1.17
	c0.15-0.1,0.23-0.22,0.25-0.37c0.08,0.29,0.18,0.58,0.29,0.8c-0.06-0.06-0.08-0.05,0.13,0.22c0.9-0.22-0.54-2.22-0.62-2.34
	c0,0,0,0,0,0c0,0-0.01-0.01-0.01-0.01c-0.03,0.1,0.01,0.46,0.09,0.89c-0.09-0.17-0.23-0.35-0.42-0.55c0.03-0.34-0.03-0.82-0.27-1.35
	c0,0,0,0,0,0.01c0,0,0-0.01,0-0.01c-0.09,0.15-0.24,1.37-0.04,1.87c0.07,0,0.12-0.03,0.16-0.08c0.1,0.33,0.24,0.68,0.39,0.88
	c-0.61-0.64-1.07-1.37-1.36-2.19c0.1-0.03,0.17-0.14,0.21-0.3c0.01,0.31,0.05,0.6,0.13,0.79c0.64,0.03,0.11-1.59-0.03-2.06
	c-0.04,0.12-0.08,0.42-0.1,0.76c-0.04-0.22-0.11-0.48-0.24-0.75c0.16-0.26,0.3-0.65,0.35-1.14c0,0,0,0,0,0.01c0,0,0-0.01,0-0.01
	c-0.09,0.04-0.35,0.38-0.57,0.74c-0.02-0.02-0.03-0.04-0.04-0.07c0,0,0,0,0,0c0,0,0-0.01-0.01-0.01c0,0,0,0.01,0,0.01
	c-0.01,0.04-0.02,0.1-0.03,0.19c-0.08,0.14-0.14,0.28-0.19,0.41c-0.05-0.19-0.09-0.38-0.12-0.58c0.76,0.19,0.87-1.68,0.84-2.14
	c-0.07,0.05-0.21,0.25-0.36,0.53c0.09-0.28,0.14-0.64,0.13-1.05c0.27-0.15,0.58-0.4,0.85-0.77c-0.15-0.02-1,0.26-1.47,0.6
	c0.14-1.21,0.66-2.58,1.33-3.57c0.38-0.32,0.78-1.38,0.77-1.55c-0.39,0.29-0.75,0.81-1.06,1.43c0.09-0.46,0.11-0.96,0.08-1.06
	c0,0,0,0,0,0.01c0,0,0,0,0,0c-0.57,0.8-0.6,1.55-0.36,1.7c0,0,0,0,0,0c-0.2-0.11-0.04-0.02,0,0c-0.45,1.09-0.76,2.32-0.86,3.09
	c-0.09-0.3-0.31-0.83-0.8-1.39v0v0c0.02,0.7,0.17,1.17,0.35,1.43c-0.09,0.48-0.09,0.92-0.03,1.25c-0.31-0.53-0.7-1.02-0.82-1.08
	c0,0,0,0.01,0,0.01c0,0,0,0,0,0c0-0.03,0.41,2.59,1.24,2.14c0.02,0.56,0.14,1.18,0.34,1.79c-0.12-0.13-0.33-0.24-0.62-0.3
	c-0.28-0.24-0.54-0.42-0.63-0.43c0,0.01,0.01,0.02,0.01,0.02c-0.01-0.01-0.01-0.01-0.02-0.02c0.05,0.14,0.1,0.26,0.15,0.38
	c-0.23,0-0.5,0.02-0.78,0.08c0,0,0,0,0,0c0,0,0,0-0.01,0c0,0,0.01,0,0.01,0c0.09,0.1,0.59,0.32,1.1,0.46
	c0.29,0.39,0.6,0.58,0.8,0.57c0.08,0,0.14-0.03,0.19-0.08c-0.05-0.12-0.13-0.24-0.23-0.37c0.04,0,0.07,0,0.11-0.01
	c0-0.01,0-0.01,0-0.02c0.32,0.88,0.79,1.72,1.31,2.32c-0.53-0.37-1.33-0.68-1.49-0.67c0,0,0,0.01,0.01,0.01c0,0-0.01,0-0.01-0.01
	c-0.03-0.05,1.35,1.66,1.83,1.03c0.23,0.24,0.48,0.47,0.72,0.71c-0.59-0.36-1.91-0.53-2.1-0.46c0,0,0.01,0.01,0.01,0.01
	c0,0-0.01,0-0.01,0c-0.02-0.02,0.9,0.66,1.56,0.81c-0.59,0.03-1.15,0.14-1.26,0.22c0.01,0,0.01,0.01,0.02,0.01
	c-0.01,0-0.01,0-0.02,0c1.1,0.56,2.03,0.49,2.36,0.2c0.09-0.08,0.14-0.17,0.14-0.27c0.12,0.11,0.25,0.19,0.41,0.24
	c-0.33,0.05-0.76,0.23-1.2,0.61c0,0,0,0,0,0c0,0,0,0-0.01,0.01c0.12,0.04,0.76-0.03,1.27-0.2c-0.7,0.3-1.49,0.86-1.58,1.03
	c0,0,0.01,0,0.02,0c0,0-0.01,0-0.01,0.01c1.31,0.01,2.16-0.55,2.25-0.99c0.02-0.08,0.01-0.15-0.02-0.22
	c0.78,0.28,2.12,0.68,2.7,0.95c-0.14,0.06-0.26,0.16-0.36,0.28l0,0l0.12,0.07c0.11-0.13,0.23-0.22,0.38-0.29
	c0.15,0.06,0.28,0.16,0.39,0.29l0.12-0.07c-0.11-0.13-0.23-0.22-0.38-0.29c0.83-0.4,1.62-0.64,2.37-0.92
	c-0.84,0.27-1.7,0.46-2.5,0.85C31.62,39.01,30.7,38.68,29.89,38.41z M24.54,31.73c-0.02-0.1-0.06-0.21-0.11-0.32
	c0.04,0.02,0.08,0.03,0.12,0.03C24.55,31.54,24.54,31.64,24.54,31.73z M24.69,29.81c0.08,0.02,0.17,0.01,0.28-0.01
	c-0.09,0.21-0.19,0.46-0.27,0.7c0-0.07-0.01-0.14-0.02-0.21C24.68,30.13,24.68,29.97,24.69,29.81z M24.67,31.44
	c0.11-0.04,0.2-0.11,0.27-0.2c-0.12,0.27-0.21,0.55-0.26,0.79c0-0.02,0-0.04,0-0.06C24.66,31.79,24.66,31.61,24.67,31.44z
	 M24.89,33.12c0.04,0,0.08-0.02,0.13-0.04c0.01,0.2,0.04,0.42,0.08,0.63C25.03,33.51,24.96,33.31,24.89,33.12z M27.23,37.67
	c0.1-0.04,0.18-0.12,0.22-0.26c0.18,0.15,0.43,0.22,0.59,0.39C27.82,37.71,27.53,37.68,27.23,37.67z M28.76,38.39
	c0.09-0.04,0.17-0.09,0.24-0.14c0.05,0.02,0.1,0.03,0.15,0.05C29.04,38.31,28.91,38.34,28.76,38.39z"/>
<path class="st2" d="M39.1,29.84C39.19,30.06,39.21,29.85,39.1,29.84L39.1,29.84z"/>
<path class="st2" d="M24.55,31.44C24.51,31.44,24.55,31.47,24.55,31.44L24.55,31.44z"/>
<path class="st2" d="M25.68,32.71L25.68,32.71c-0.07-0.13-0.06-0.1-0.02,0.04C25.66,32.73,25.67,32.72,25.68,32.71L25.68,32.71z"/>
<path class="st2" d="M28.76,38.39C28.91,38.34,28.86,38.35,28.76,38.39L28.76,38.39z"/>
<path class="st2" d="M25.02,33.07C24.98,33.1,25.04,33.28,25.02,33.07L25.02,33.07z"/>
<path class="st2" d="M39.25,35.58L39.25,35.58C39.25,35.57,39.25,35.57,39.25,35.58z"/>
<path class="st2" d="M35.7,37.87c0.01-0.01,0.04-0.02,0.07-0.04c-0.03,0.02-0.06,0.03-0.09,0.04c-0.38,0.19-0.76,0.34-1.16,0.48
	C34.92,38.22,35.32,38.07,35.7,37.87z"/>
<path class="st2" d="M38.18,32.67L38.18,32.67c0,0.01-0.82,2.51,0.13,2.4C38.54,34.41,38.31,32.86,38.18,32.67L38.18,32.67
	C38.18,32.67,38.18,32.67,38.18,32.67z"/>
<path class="st2" d="M34.1,38.25c0,0.01-0.01,0.02-0.01,0.03c0.96,0.11,1.5-0.54,1.61-1.95c0,0,0,0,0,0l0,0
	c-0.09,0.03-0.35,0.25-0.63,0.54c0.06-0.19,0.12-0.39,0.16-0.61c0,0,0,0,0,0s0,0,0,0c-0.21,0.08-1.32,1.26-1.5,1.97l0,0
	C33.82,38.32,33.95,38.32,34.1,38.25z"/>
<path class="st2" d="M34.1,38.25C33.95,38.32,34.09,38.26,34.1,38.25L34.1,38.25z"/>
<path class="st2" d="M33.74,38.94c0.08,0.01,0.54,0.03-0.01,0c0,0,0,0,0,0.01c0.45,0.75,1.08,1.08,1.87,1.01
	C35.5,39.77,34.35,38.99,33.74,38.94z"/>
<polygon class="st2" points="33.73,38.95 33.73,38.95 33.73,38.95 "/>
<path class="st2" d="M39.38,28.98C39.38,28.99,39.38,28.99,39.38,28.98L39.38,28.98z"/>
<path class="st2" d="M39.35,28.97c0.82,0.39,0.85-2.03,0.86-2.15c0,0,0,0,0,0.01c0,0,0-0.01,0-0.01
	C40.03,26.95,39.34,28.29,39.35,28.97L39.35,28.97z"/>
<path class="st2" d="M39.35,28.97c0.01,0,0.02,0.01,0.02,0.01C39.38,28.98,39.37,28.98,39.35,28.97z"/>
<path class="st2" d="M39.35,28.97C39.35,28.97,39.35,28.97,39.35,28.97C39.35,28.97,39.35,28.97,39.35,28.97z"/>
<path class="st2" d="M40.21,26.82C40.21,26.82,40.21,26.82,40.21,26.82C40.21,26.81,40.21,26.82,40.21,26.82z"/>
<path class="st2" d="M38.86,26.63c0.07-0.05,0.13-0.15,0.16-0.29c-0.05,0.43-0.06,0.95,0.04,1.24c0.73,0.07,0.14-1.79,0.1-1.94
	c-0.04,0.06-0.08,0.24-0.12,0.49c0.02-0.32-0.06-0.77-0.3-1.25c0,0,0,0,0,0c0,0,0-0.01,0-0.01c-0.09,0.15-0.19,1.32,0.01,1.79
	C38.79,26.66,38.83,26.65,38.86,26.63z"/>
<path class="st2" d="M38.86,26.63C38.83,26.65,38.93,26.58,38.86,26.63L38.86,26.63z"/>
<path class="st2" d="M39.17,25.65C39.17,25.65,39.17,25.64,39.17,25.65C39.17,25.63,39.17,25.63,39.17,25.65
	C39.17,25.64,39.17,25.64,39.17,25.65C39.17,25.64,39.17,25.64,39.17,25.65z"/>
<path class="st2" d="M39.61,32.82c-0.02,0-0.06,0.06-0.13,0.21c0.02,0.03,0.05,0.03,0.07,0c0.74,0.02,1.22-0.41,1.45-1.29
	c0,0,0,0,0,0l0,0C40.83,31.76,39.99,32.32,39.61,32.82z"/>
<polygon class="st2" points="40.68,34.72 40.68,34.72 40.68,34.72 "/>
<path class="st2" d="M38.79,35.09c0.06-0.05,0.05-0.07-0.19,0.12c0.17,0.88,2.05-0.47,2.09-0.49c0,0,0,0,0,0
	C40.51,34.66,39.39,34.79,38.79,35.09z"/>
<path class="st2" d="M40.91,33.34c-0.26-0.06-0.51-0.08-0.72-0.07c0.01-0.03,0.02-0.06,0.04-0.1c-0.01,0.01-0.01,0.01-0.02,0.02
	c0-0.01,0.01-0.02,0.01-0.02c-0.04,0.01-0.11,0.05-0.21,0.11c-0.58,0.06-0.91,0.33-0.84,0.56c0.04,0.01,0.09,0.01,0.14,0.01
	c-0.14,0.14-0.27,0.28-0.38,0.42c0.38-0.92,0.6-1.93,0.56-2.8c0.09,0.02,0.17-0.01,0.25-0.08c-0.07,0.16-0.12,0.31-0.14,0.43
	c0.63,0.43,0.97-1.58,0.99-1.67c0,0,0,0,0-0.01c-0.09,0.05-0.38,0.41-0.62,0.81c0.12-0.52,0.14-1.05,0.06-1.57
	c0.27-0.36,0.47-0.77,0.58-1.2c-0.72,0.51-1.06,1.06-1.17,1.27c-0.18-1.05-0.52-2.05-1.02-3c0.02-0.01,0.03-0.02,0.05-0.03
	c0.25-0.24-0.01-1.15-0.95-1.92c0,0,0,0,0,0c0,0,0,0-0.01-0.01c-0.01,0.14,0.18,0.77,0.45,1.31l-0.02-0.01
	c0.12,0.18,0.23,0.36,0.34,0.54c0.58,1.04,0.94,2.15,1.08,3.32c-0.13-0.12-0.32-0.23-0.52-0.33c-0.03-0.05-0.06-0.08-0.07-0.1
	c0,0,0,0.01,0,0.01c0,0,0,0,0-0.01c0,0.02,0,0.04-0.01,0.05c-0.35-0.16-0.7-0.26-0.79-0.25c0.25,0.34,0.52,0.56,0.77,0.69
	c-0.13,0.87,0.09,1.44,0.66,1.72c0.03,0.58-0.05,1.15-0.24,1.72c-0.02-0.11-0.06-0.23-0.1-0.36c0-0.24-0.01-0.44-0.04-0.51
	c0,0,0-0.01,0-0.01c0,0,0,0,0,0.01c0,0,0,0,0,0c-0.04,0.06-0.07,0.11-0.11,0.17c-0.16-0.35-0.34-0.65-0.41-0.7c0,0,0,0.01,0,0.01
	c0,0,0,0,0,0c-0.02,0.48,0.06,0.88,0.18,1.16c-0.3,0.73-0.22,1.31,0.04,1.4c-0.33,0.91-0.84,1.7-1.54,2.37
	c0.17-0.42,0.24-1.12,0.23-1.44c0,0.25,0.1,0.4,0.31,0.46c0.2-0.5,0.05-1.72-0.04-1.87c0,0,0,0.01,0,0.01c0,0,0,0,0,0
	c-0.22,0.49-0.3,0.93-0.28,1.27c0-0.01,0-0.01,0-0.02c0,0,0,0.01-0.01,0.01c0,0,0-0.01,0-0.01c-0.08,0.12-0.87,1.43-0.37,1.76
	c-0.17,0.18-0.35,0.35-0.54,0.51c0.35-0.62,0.45-2.15,0.37-2.36c0,0,0,0.01-0.01,0.01c0,0,0,0,0-0.01
	c-0.27,0.39-0.46,0.78-0.56,1.12c-0.01-0.18-0.03-0.36-0.06-0.56c0,0,0,0.01,0,0.01c0,0,0-0.01,0-0.01
	c-0.16,0.15-0.73,1.62-0.65,2.31c0.04,0.01,0.08,0.02,0.12,0.01c0.6-0.3,1.18-0.68,1.74-1.26c0.46,0.61,1.78-0.97,1.83-1.03
	c0,0,0,0-0.01,0.01c0,0,0-0.01,0.01-0.01c-0.13-0.01-0.04,0-0.01,0c-0.17,0-0.96,0.3-1.48,0.67c0.39-0.44,0.75-1.01,1.03-1.63
	c0.04,0.03,0.09,0.05,0.15,0.05c0.26,0.02,0.68-0.29,1.02-0.92C40.41,33.61,40.83,33.42,40.91,33.34
	C40.91,33.34,40.91,33.34,40.91,33.34C40.91,33.34,40.91,33.34,40.91,33.34L40.91,33.34z M39.52,31.34c0-0.01,0-0.02,0-0.04
	c0,0,0.01,0,0.01,0C39.53,31.32,39.52,31.33,39.52,31.34z M39.84,29.54c-0.14,0.27-0.29,0.69-0.36,1.1c0-0.35,0-0.71-0.03-1.05
	C39.56,29.65,39.7,29.64,39.84,29.54z M39.37,30.55c-0.08-0.25-0.17-0.49-0.27-0.71c0.11,0.01,0.2-0.01,0.26-0.05
	C39.37,30.04,39.37,30.29,39.37,30.55z M35.9,37.71c0.14-0.18,0.24-0.39,0.28-0.62c0.03,0.14,0.11,0.24,0.23,0.29
	C36.25,37.49,36.04,37.57,35.9,37.71z M39,33.33c0.02,0.01,0.05,0.02,0.07,0.02c-0.04,0.11-0.08,0.23-0.12,0.34
	C38.97,33.57,38.98,33.45,39,33.33z"/>
<path class="st2" d="M38.97,36.96C38.97,36.96,38.97,36.96,38.97,36.96C38.97,36.95,38.97,36.95,38.97,36.96z"/>
<path class="st2" d="M38.97,36.95c-0.21-0.07-1.55,0.09-2.27,0.46c0.07-0.07,0.06-0.08-0.23,0.14
	C36.66,38.59,38.83,37.04,38.97,36.95c-0.01,0.01-0.01,0.01-0.01,0.01C38.96,36.96,38.97,36.95,38.97,36.95z"/>
<path class="st2" d="M38.18,38.19c0,0-0.01,0-0.01,0C38.17,38.19,38.17,38.19,38.18,38.19c-0.17-0.13-0.06-0.04-0.01-0.01
	c-0.25-0.14-1.83-0.36-2.49-0.07c-0.01,0.21,0.07,0.34,0.2,0.42c-0.34-0.13-0.62-0.13-0.78-0.02c-0.06,0.04-0.1,0.09-0.12,0.15
	c0,0,0.01,0.01,0.01,0.01c-0.09,0-0.16,0.02-0.22,0.05c-0.05,0.03-0.09,0.06-0.11,0.11c0.38,0.49,1.68,0.99,1.89,0.97
	c0,0-0.01-0.01-0.01-0.01c0,0,0.01,0,0.01,0.01c-0.19-0.27-0.39-0.49-0.58-0.66c0.46,0.14,0.91,0.21,1.02,0.18
	c0,0-0.01-0.01-0.01-0.01c0,0,0.01,0,0.01,0c-0.74-0.79-0.05-0.06,0,0c-0.32-0.34-0.66-0.57-0.96-0.71
	C36.72,38.78,38.17,38.2,38.18,38.19z"/>
<path class="st2" d="M27.61,25.05c-0.89,0.13-1.43,0.63-1.64,1.47c-0.05,0.03-0.08,0.07-0.03,0.12c0.14-0.05,0.21-0.09,0.23-0.11
	C26.78,26.18,27.55,25.25,27.61,25.05z"/>
<path class="st2" d="M38.31,27.03c0.02,0.05,0.06,0.08,0.11,0.04c-0.03-0.15-0.06-0.21-0.08-0.24c-0.28-0.63-1.08-1.47-1.25-1.54
	C37.14,26.18,37.55,26.76,38.31,27.03z"/>
<path class="st3" d="M36.88,25.45l-9.21,9.52l-0.62,0.71l-0.15,0.07l-1.48,1.59c-0.07,0.08,0.75,1.12,0.8,1.03
	c0.27-0.48,1.12-1.6,1.12-1.6l0.55-1.34l9.07-9.88L36.88,25.45z"/>
<path class="st3" d="M26.43,25.54l9.07,9.88l0.55,1.34c0,0,0.85,1.12,1.12,1.6c0.05,0.09,0.87-0.95,0.8-1.03l-1.48-1.59l-0.15-0.07
	l-0.62-0.71l-9.21-9.52L26.43,25.54z"/>
<path class="st4" d="M34.44,37.33c-1.78-2.68-4.45-4.86-6.52-6.05c0.3-0.01,0.98,0.35,1.26,0.53c2.05,1.37,3.79,3.19,5.62,5.33
	c-0.11,0.11-0.18,0.18-0.29,0.27L34.44,37.33L34.44,37.33z"/>
<path class="st5" d="M34.62,37.31l-0.12,0.12c-1.97-2.64-4.72-5.16-6.57-6.16C30.5,32.51,32.67,35,34.62,37.31L34.62,37.31
	L34.62,37.31z"/>
<path class="st6" d="M35.21,36.89c-0.17,0.05-0.32,0.11-0.45,0.2c-0.02,0.12-0.17,0.26-0.31,0.29c-0.03-0.03-0.03-0.04-0.05-0.07
	c0,0-0.01-0.01-0.01,0c-0.01,0.01-0.03,0.02-0.05,0.03c-0.05-0.01-0.12,0.02-0.14,0.09c-0.03,0.09,0.03,0.2,0.1,0.27
	c0.08,0.06,0.12,0.1,0.21,0.08c0.09-0.02,0.14-0.11,0.16-0.14c0.32,0.4,0.56,0.62,0.96,0.95c0.18,0,0.28-0.12,0.22-0.25
	c-0.02-0.04-0.07-0.07-0.11-0.06c0-0.01,0-0.03,0-0.04c0.21-0.2,0.3-0.45,0.08-0.88C35.63,37.01,35.42,36.89,35.21,36.89
	L35.21,36.89L35.21,36.89z M35.75,37.3c0.04,0.07,0.06,0.12,0.09,0.18c0.13,0.27,0.02,0.59-0.2,0.69c-0.01,0-0.01,0-0.02,0
	c0.04-0.06-0.07-0.19-0.13-0.15c0.03-0.07-0.06-0.18-0.13-0.15c0.04-0.06-0.05-0.17-0.12-0.13c0.04-0.07-0.03-0.17-0.11-0.15
	c0.02-0.07-0.04-0.16-0.12-0.14c0.01-0.06-0.01-0.1-0.04-0.13c0.1-0.08,0.2-0.19,0.29-0.24C35.51,36.97,35.65,37.17,35.75,37.3
	L35.75,37.3L35.75,37.3z"/>
<path class="st4" d="M29.44,37.1c1.93-2.57,4.72-4.58,6.85-5.64c-0.3-0.03-1,0.28-1.28,0.45c-2.13,1.24-3.97,2.95-5.92,4.97
	c0.1,0.12,0.17,0.19,0.28,0.29L29.44,37.1L29.44,37.1z"/>
<path class="st5" d="M29.27,37.07l0.12,0.13c2.12-2.51,5.01-4.86,6.91-5.74C33.65,32.54,31.34,34.88,29.27,37.07L29.27,37.07
	L29.27,37.07z"/>
<path class="st6" d="M28.7,36.62c0.17,0.06,0.31,0.13,0.44,0.23c0.01,0.13,0.15,0.27,0.29,0.31c0.03-0.03,0.03-0.04,0.05-0.06
	c0,0,0.01-0.01,0.02,0c0.01,0.01,0.03,0.02,0.05,0.03c0.05-0.01,0.11,0.02,0.14,0.1c0.03,0.09-0.04,0.2-0.12,0.27
	c-0.08,0.06-0.12,0.09-0.21,0.07c-0.09-0.03-0.14-0.12-0.16-0.15c-0.34,0.38-0.59,0.58-1.01,0.89c-0.18-0.01-0.27-0.13-0.2-0.26
	c0.02-0.04,0.08-0.07,0.12-0.05c0-0.01,0-0.03,0-0.04c-0.2-0.21-0.27-0.47-0.03-0.88C28.28,36.71,28.5,36.6,28.7,36.62L28.7,36.62
	L28.7,36.62z M28.14,36.99c-0.04,0.06-0.07,0.12-0.1,0.18c-0.14,0.26-0.05,0.59,0.16,0.7c0.01,0,0.01,0,0.02,0
	c-0.03-0.06,0.08-0.19,0.13-0.14c-0.02-0.07,0.07-0.18,0.13-0.14c-0.03-0.06,0.06-0.17,0.13-0.13c-0.04-0.07,0.04-0.16,0.11-0.14
	c-0.02-0.07,0.04-0.15,0.12-0.14c0-0.06,0.02-0.1,0.05-0.13c-0.09-0.08-0.19-0.2-0.28-0.26C28.4,36.67,28.25,36.86,28.14,36.99
	L28.14,36.99L28.14,36.99z"/>
<path class="st7" d="M29.62,33.6c0,0-0.53,0.06-0.68-0.7c-0.16-0.81,0.45-0.9,0.45-0.9s0.69-0.07,1.13-0.08l0.19,1.6L29.62,33.6z"/>
<path class="st8" d="M29.69,33.36c0,0-0.34,0.07-0.41-0.49c-0.05-0.4,0.19-0.45,0.19-0.45l0.79,0.14l0,0.73L29.69,33.36L29.69,33.36
	z"/>
<path class="st9" d="M29.46,32.41c0,0,0.51-0.04,0.77-0.07l0.11,0.51l-0.61,0.04C29.74,32.88,29.7,32.42,29.46,32.41L29.46,32.41z"
	/>
<path class="st10" d="M29.36,32.02c0,0,0.65-0.16,0.73,0.58c0.02,0.19-0.08,0.64-0.4,0.76l1.19-0.13l-0.11-1.34l-0.4,0.03
	C30.37,31.93,29.52,31.96,29.36,32.02L29.36,32.02z"/>
<path class="st11" d="M34.38,29.62c0,0-0.96-1.72-1-1.78c0.13-0.37-2.92-1.2-4.15-1.13c-0.66,0.04-0.73,0.96-0.46,1.51
	c0.08,0.17,0.37,0.72,0.67,1.4l0,0c0.66,1.5,1.41,3.65,0.28,3.97l-0.1,0.02c0.01,0,4.44-0.31,4.9-0.29
	C35.46,32.77,35.08,31.13,34.38,29.62z"/>
<path class="st7" d="M29.23,26.96c-0.32,0-0.42,0.32-0.42,0.52c0.01,0.53,0.4,0.55,0.4,0.55L29.72,28l0.25-1.08L29.23,26.96z"/>
<path class="st10" d="M29.96,26.92l0.08,0.81l-0.66,0.03c0,0,0.23-0.65-0.15-0.8L29.96,26.92z"/>
<path class="st12" d="M33.38,27.83c0.57-0.1,0.57-0.9,0.17-1.22c-1.33-0.05-3.06-0.01-4.33,0.09c0.14,0,0.53,0.03,0.58,0.58
	c0.02,0.25-0.1,0.49-0.26,0.62c-0.16,0.13-0.33,0.13-0.33,0.13c0.02,0.01,0.18,0,0.31-0.01c0.06,0,0.22-0.02,0.26-0.03
	C31.58,27.75,33.38,27.83,33.38,27.83L33.38,27.83L33.38,27.83L33.38,27.83z"/>
<radialGradient id="SVGID_1_" cx="-13167.4453" cy="-4282.6621" r="0.3103" gradientTransform="matrix(0.0952 0 0 -0.0989 1285.3579 -399.1106)" gradientUnits="userSpaceOnUse">
	<stop  offset="0.259" style="stop-color:#A50A0A"/>
	<stop  offset="1" style="stop-color:#4C0505"/>
</radialGradient>
<path class="st13" d="M31.64,24.81l-0.32,0.4c-0.1,0.47,0.15,0.82,0.65,1.12c0.41,0.26,1.16,0.33,1.4,0.12l-1.17-1.16L31.64,24.81z"
	/>
<path class="st2" d="M34.02,36.82c-0.06-0.07-0.12-0.14-0.17-0.22c-0.73,1.01-1.65,1.91-2.79,2.54
	C32.34,38.77,33.19,37.79,34.02,36.82z M32.7,40c0.46-0.96,1-1.92,1.56-2.88c-0.06-0.08-0.12-0.16-0.18-0.23
	C33.44,37.97,32.7,39.26,32.7,40L32.7,40z M36.27,29.81c-0.08-0.38-0.2-0.79-0.37-1.16c-0.23-0.48-0.57-0.96-1.01-1.5
	c-0.8-0.91-1.61-1.78-2.73-2.43c0.43-0.52-0.44-1.06-0.7-0.45c-0.03,0.07-0.04,0.2-0.03,0.31c0,0.02,0.08,0.11,0.08,0.11
	c-0.14,0.23-0.26,0.41-0.27,0.67c0.11-0.14,0.22-0.32,0.38-0.32c-0.08,0.14-0.12,0.55-0.03,0.61l0.07-0.12
	c0,0.1,0.02,0.16,0.03,0.21c0.03-0.06,0.05-0.11,0.08-0.15c0.01,0.13,0.02,0.24,0.06,0.29c0.04-0.07,0.09-0.11,0.14-0.14
	c-0.02,0.08-0.04,0.15-0.03,0.24c0.06-0.1,0.11-0.16,0.17-0.22c-0.03,0.14,0,0.25,0.04,0.4c0.03-0.18,0.05-0.2,0.13-0.28
	c0.01,0.17-0.02,0.32,0.01,0.42c0.08-0.15,0.13-0.13,0.17-0.22c-0.01,0.14-0.04,0.29,0,0.42c0.03-0.13,0.11-0.19,0.17-0.24
	c0,0.2,0.05,0.16-0.07,0.33c0.05,0.02,0.22-0.03,0.31-0.07c-0.04,0.11-0.03,0.19-0.08,0.26c0.09-0.05,0.17-0.13,0.25-0.21
	c-0.04,0.12-0.13,0.24-0.08,0.36c0.02-0.11,0.11-0.2,0.19-0.22c-0.01,0.06-0.02,0.19-0.11,0.26c0.21,0.02,0.29-0.12,0.4-0.24
	c-0.01,0.12-0.01,0.22,0.13,0.39c-0.03-0.22,0.02-0.17,0.12-0.3c0.04,0.19,0.1,0.39,0.29,0.54c-0.08-0.2-0.09-0.31-0.05-0.43
	c0.03,0.13,0.15,0.29,0.17,0.41c0.02-0.14,0.04-0.27,0.08-0.36c0.06,0.16,0.1,0.32,0.12,0.5c0.04-0.09,0.08-0.18,0.1-0.27
	c1.69,1.84,2.07,4.17,0.21,6.64c0.66-0.47,0.84-1.21,1.21-1.84c-0.36,0.83-0.52,1.76-1.16,2.44c0.62-0.55,0.75-1.06,1.12-1.59
	c-0.4,1.11-0.94,2.33-1.7,3.45c0.13,0.15,0.27,0.31,0.4,0.46c0.12-0.2,0.23-0.41,0.35-0.61C35.63,34.77,36.93,32.8,36.27,29.81
	L36.27,29.81z"/>
<path class="st14" d="M31.42,24.45c-0.09,0.02-0.12,0.06-0.18,0.13c0.08,0.02,0.15,0.02,0.22,0.02c0.02,0,0.03-0.03,0.02-0.05
	l-0.01-0.08c0-0.02-0.05-0.02-0.07-0.01L31.42,24.45z"/>
<path d="M31.8,24.39c0.04,0,0.07,0.03,0.07,0.07c0,0.04-0.03,0.07-0.07,0.07c-0.04,0-0.07-0.03-0.07-0.07
	C31.74,24.42,31.77,24.39,31.8,24.39z"/>
<linearGradient id="SVGID_2_" gradientUnits="userSpaceOnUse" x1="32" y1="62" x2="32" y2="2">
	<stop  offset="0" style="stop-color:#1A1A1A"/>
	<stop  offset="0.102" style="stop-color:#393939;stop-opacity:0.949"/>
	<stop  offset="0.3475" style="stop-color:#7F7F7F;stop-opacity:0.8262"/>
	<stop  offset="0.5688" style="stop-color:#B6B6B6;stop-opacity:0.7156"/>
	<stop  offset="0.7582" style="stop-color:#DEDEDE;stop-opacity:0.6209"/>
	<stop  offset="0.9081" style="stop-color:#F6F6F6;stop-opacity:0.5459"/>
	<stop  offset="1" style="stop-color:#FFFFFF;stop-opacity:0.5"/>
</linearGradient>
<circle class="st15" cx="32" cy="32" r="30"/>
</svg>
