<?xml version="1.0" encoding="utf-8"?>
<!-- Generator: Adobe Illustrator 24.1.2, SVG Export Plug-In . SVG Version: 6.00 Build 0)  -->
<svg version="1.1" id="Layer_1" xmlns="http://www.w3.org/2000/svg" xmlns:xlink="http://www.w3.org/1999/xlink" x="0px" y="0px"
	 width="64px" height="64px" viewBox="0 0 64 64" style="enable-background:new 0 0 64 64;" xml:space="preserve">
<style type="text/css">
	.st0{fill:#FFE000;}
	.st1{fill:#FF4E12;}
	.st2{fill:#FFFFFF;}
	.st3{fill:#F0F0F0;}
	.st4{opacity:0.1;fill:url(#SVGID_1_);}
</style>
<path class="st0" d="M17,6.02C2.66,14.31-2.26,32.65,6.02,47L57.98,17C49.69,2.66,31.35-2.26,17,6.02z"/>
<path class="st1" d="M47,57.98C61.34,49.69,66.26,31.35,57.98,17L6.02,47C14.31,61.34,32.65,66.26,47,57.98z"/>
<path class="st2" d="M51.75,24.11c-0.96,0-1.74,0.78-1.74,1.74c0,0.96,0.78,1.74,1.74,1.74c0.96,0,1.74-0.78,1.74-1.74
	C53.5,24.89,52.72,24.11,51.75,24.11z"/>
<path class="st2" d="M30.33,37.45c-0.93,0-1.69,0.75-1.69,1.69s0.75,1.69,1.69,1.69c0.93,0,1.68-0.75,1.68-1.69
	S31.26,37.45,30.33,37.45z"/>
<path class="st2" d="M26.41,45.89c-1.08,0-1.96,0.88-1.96,1.96s0.88,1.96,1.96,1.96c1.08,0,1.96-0.88,1.96-1.96
	S27.5,45.89,26.41,45.89z"/>
<path class="st3" d="M54.53,26.82c-0.38-0.08-0.09-1.35-1.46-1.09c0.58,0.35,0.14,1.06,0.62,1.38c-0.3,0-0.67,0.12-0.81,0.51
	c0.05-0.27-0.07-0.45-0.14-0.52c0.01-0.29-0.63-1-1.23-0.74c0.43,0.09,0.19,0.79,0.5,1.06c-0.23,0.01-0.46,0.13-0.6,0.33
	c-0.16-0.29-0.74-0.59-1.09-0.62c0-0.1-0.02-0.3-0.06-0.4c-0.16-0.3-0.29-0.66-0.23-1.12c-0.3,0.33-0.55,0.78-0.7,1.11
	c-0.48-0.33-1.66,0.15-2.21,0.28c-0.55,0.13-2.41-0.18-2.84-0.63c-0.43-0.45-1.26-0.73-2.04-0.96c-1.03-0.3-1.08-1.39-2.12-2.18
	c-0.02-0.25-0.01-0.5,0.04-0.76c0.71,0.47,0.85,1.53,1.87,1.91c1.16,0.43,1.27,1.46,2.21,1.21c-0.88-0.24-0.82-1.26-1.74-1.51
	c-1-0.27-1.43-1.72-2.17-2.12c0.12-0.21,0.32-0.49,0.44-0.6l0,0c0.75-0.65-2.9-1.33-4.91-1.1c-0.26-0.23-0.55-0.15-0.76,0.26
	c-0.11,0.22-0.14,0.42-0.1,0.58c-0.17,0.02-0.31,0.18-0.4,0.46c-0.08,0.25-0.07,0.47,0.02,0.62c-0.14,0.08-0.22,0.27-0.21,0.56
	c0.01,0.32,0.12,0.56,0.3,0.63c-0.32,0.12-0.58,0.58-0.63,1c-0.09,0.69-1.07,0.92-0.53,1.96c0.11-0.67,0.55-1.03,0.91-1.06
	c0.22-0.02,0.51-0.05,0.75-0.18c-0.11,0.27-0.06,0.63,0.13,0.89c0.2,0.26,0.5,0.38,0.77,0.31c-0.19,0.28-0.16,0.74,0.11,1.1
	c0.1,0.13,0.26,0.21,0.44,0.25c-0.05,0.07-0.1,0.14-0.15,0.22c-0.29,0.49-1.18-0.14-1.48,0.52c0.41-0.18,0.83,0.2,1.02,0.33
	c0.3,0.2,0.77,0.26,1.14,0.12c-0.05,0.13-0.07,0.25-0.06,0.35c0.01,0.15,0.11,0.39,0.27,0.59c-0.18-0.04-0.37-0.05-0.51-0.02
	c-0.35,0.09-1.03-0.01-1.18-0.39c-0.13,0.3,0.06,0.63,0.57,0.79c0.3,0.1,0.36,0.29,0.32,0.43c-0.01,0-0.02,0-0.04,0
	c-0.02-0.16-0.24-0.3-0.4-0.35c-0.17-0.06-0.4,0-0.45,0.14l-0.01,0c0-0.29-0.17-0.64-0.73-0.78c-0.5-0.13-0.83,0.03-0.9,0.15l0,0
	c0.14-0.19,0.05-0.55-0.4-0.74c-0.3-0.13-0.55-0.04-0.69,0.11c0.03-0.21-0.08-0.44-0.27-0.53c-0.51-0.25-0.33-0.91-0.65-1.03
	c-0.33-0.13-0.64-0.35-0.65-0.58c-0.16,0.31-0.06,0.6,0.16,0.8c0.11,0.1,0.07,0.33,0.04,0.57c-0.08-0.1-0.21-0.19-0.38-0.23
	c-0.23-0.06-0.43,0.02-0.55,0.16c-0.06-0.17-0.24-0.3-0.48-0.36c-0.25-0.05-0.45,0.05-0.56,0.21c-0.08-0.18-0.27-0.31-0.54-0.33
	c-0.22-0.02-0.39,0.08-0.49,0.23c-0.1-0.35-0.43-0.69-0.78-0.75c-0.44-0.08-0.96-0.08-1.13-0.52c-0.11,0.38,0.18,0.62,0.5,0.83
	c0.21,0.13,0.13,0.4,0.17,0.66c-0.25-0.21-0.67-0.22-0.93-0.12c-0.33,0.13-0.57,0.6-0.42,0.99c-0.01,0-0.02,0.01-0.02,0.01
	c-0.29-0.31-0.84-0.23-1.09,0.04c-0.17,0.19-0.22,0.44-0.15,0.64c-0.5-0.42-1.02-0.37-1.33-0.13c-0.67,0.53-1.31,0.23-1.33,0.75
	c0.4-0.31,0.75,0.06,1.08-0.05c0.14-0.05,0.26,0.04,0.42,0.13c-0.13,0.09-0.2,0.23-0.17,0.44c-0.17,0.08-0.25,0.51-0.01,0.8
	c-0.34-0.04-0.75,0.28-0.83,0.69c-0.06,0.28-0.02,0.62,0.1,0.87c-0.92,0.21-1.58,1.54-2.64,1.24c0.46,0.73,1.57,0,1.99,0.08
	c0.04,0.01,0.08,0.01,0.13,0.02c-0.22,0.15-0.31,0.43-0.38,0.91c-0.04,0.28,0.03,0.5,0.16,0.63c-0.41,0.2-0.73,0.75-0.67,1.06
	c-0.66,0.1-0.89,0.79-1.48,0.6c0.1,0.25,0.51,0.43,0.94,0.51c-0.31,0.19-0.53,0.56-0.96,0.42c0.02,0.21,0.14,0.46,0.38,0.62
	c-0.47-0.04-1,0.21-1.4,0.06c0,0.2,0.06,0.45,0.21,0.67c-0.83-0.28-1.97-0.25-2.19,0.19c0.42-0.03,0.78,0.12,0.86,0.36
	c-0.63-0.39-1.62,0.2-2.2-0.16c-1.4-0.88-1.68-0.18-2.39-0.55c-0.7-0.38-1.39-0.06-1.41,0.33c0.65-0.53,1.18,0.51,1.84,0.38
	c1.36-0.27,1.84,0.54,2.72,0.71c-0.7-0.07-1.43-0.13-2.3,0.37c-0.88,0.51-2.29,0.09-2.36,0.83c0.6-0.33,1.28,0.14,1.81-0.14
	c0.53-0.28,1.09-0.36,1.36-0.24c-0.94,1.13-1.79,0.38-2.77,1.28c-0.63,0.58-1.42,0.21-1.96,0.78c-0.53,0.55-0.86,0.77-1.36,0.83
	c0.87,0.55,1.72-0.69,2.49-0.68c0.62,0.01,1.24-0.16,1.79-0.53c-0.45,1.07-1.79,0.53-2.97,1.73c-0.74,0.75-1.23,1.43-2.46,1.61
	c0.57,0.64,2.14-0.84,3.41-0.85c1.66-0.02,1.75-1.41,2.58-1.33c0.83,0.08,1.16-1.01,1.84-1.01c0.68,0,0.96-1.19,1.48-1.01
	c-0.73,0.33-0.73,1.38-1.66,1.56c0.99,0.39,1.41-1.01,2.57-1.08c0.14-0.01,0.28-0.04,0.41-0.08c-0.84,1.18-1.62,0.69-1.82,1.61
	c1.06-0.85,1.89-0.29,2.51-1.13c0.96-1.28,1.74-1.1,2.11-1.96c0.34-0.79,1.42-1.07,2.18-1.68c0.23,0.07,0.42,0.05,0.56-0.02
	c0.11,0.12,0.47,0.17,0.73,0.04c0.03,0.36-0.01,0.75-0.14,1.09c-0.29-0.12-0.76-0.15-0.96-0.03c-0.25,0.15-0.16,0.19,0.14,0.21
	c0.3,0.02,0.69,0.51,0.04,0.54c-0.3,0.01-0.2,0.74-0.83,0.79c0.26,0.31,0.99,0.11,1.26-0.24c-0.05,0.28,0.33,0.54,0.18,0.88
	c0.45,0.05,0.21-0.89,0.87-0.89l0.01,0.02c-0.23,0.1-0.1,0.66,0.37,0.54l0,0.01c-0.27,0.16-0.11,0.5,0.23,0.41
	c-0.21,0.07-0.29,0.33-0.03,0.5c-0.09,0.21-0.23,0.42-0.14,0.62c-1.23,0.18-1.66,1.04-1.36,1.97c-0.06,0.34,0.45,0.74,0.5,1.14
	c0-1.08,0.88-1.96,1.96-1.96c0.13,0.16,0.8,0.58,1.3,0.5c0.01,0.18,0.1,0.47,0.28,0.62c0.01,0.26-0.09,0.58-0.36,0.75
	c0.49,0.21,0.87,0.04,0.97-0.45c0.21-0.24,0.25-0.79,0.08-1.09c0.1-0.4-0.16-1.01-0.5-1.16c0.21,0.08,0.46,0.03,0.64-0.13
	c0.1,0.23,0.39,0.39,0.69,0.36c-0.06,0.34,0.52,0.43,0.54,0.84c0.01,0.23,0.05,0.6,0.01,0.87c0.38-0.49,0.5-1.26,0.15-1.89
	c0.03-0.65-0.3-1.18-0.96-1.13c-0.3-0.38-0.88-0.3-1.06,0.02c-0.2-0.2-0.51-0.27-0.75-0.23c0.1-0.5-0.1-0.77-0.38-0.78
	c0.02-0.43-0.23-0.83-0.7-0.93c-0.22-0.99,0.02-1.63,0.17-2.35c0.33,0.23,0.75,0.2,0.94,0.17c0.2,0.53,0.84,0.52,1.12,0.8
	c0.28,0.29,1.22,0.26,1.5,0.1c-0.25-0.02-0.58-0.18-0.89-0.44c-0.38-0.32-0.2-0.96-0.5-1.18c0.23-0.25,0.26-0.67,0.21-0.83
	c0.24-0.14,0.42-0.37,0.44-0.48c0.42-0.03,0.78-0.24,0.93-0.4c0.21,0.2,0.75-0.06,1.04,0.28c0.06-0.83-0.73-1.27-1.26-0.99
	c-0.21-0.11-0.78-0.04-0.88,0.11c-0.16-0.07-0.6,0.14-0.84,0.3c0.2-0.16,0.23-0.53,0.13-0.67c0.21-0.09,0.45-0.38,0.48-0.59
	c0.3,0.05,0.75-0.15,0.96-0.1c-0.33-0.43-0.87-0.58-1.42-0.54c-0.57,0.03-0.82,0.43-0.89,0.87c-0.34,0.2-0.45,0.88-0.33,1.12
	c-0.19-0.01-0.38,0.18-0.45,0.29c-0.13-0.06-0.3-0.11-0.46-0.14c-0.08-0.21-0.17-0.44-0.3-0.69c-0.02-0.04-0.04-0.09-0.06-0.13
	c-0.07-0.3,0.07-0.56,0.14-0.8c0.1-0.34,0.12-0.55,0.03-0.66c0.08-0.06,0.15-0.15,0.17-0.3c0.03-0.22,0-0.39-0.06-0.5
	c0.11-0.04,0.22-0.12,0.31-0.29c0.05-0.1,0.07-0.2,0.07-0.29c0.13,0.02,0.26-0.01,0.37-0.13c0.16-0.16,0.26-0.35,0.26-0.53
	c0.17,0.1,0.39,0.13,0.67,0.03c0.21-0.08,0.32-0.22,0.37-0.38c0.14,0.1,0.33,0.17,0.6,0.16c0.26,0,0.43-0.1,0.52-0.23
	c0.18,0.28,0.56,0.47,1.35,0.3c0.22,0.19,0.53,0.32,0.91,0.26c0.25,0.23,0.63,0.39,1.18,0.39c0.24,0.18,0.58,0.31,1.1,0.34
	c0.16,0.01,0.29-0.01,0.4-0.05c0.21,0.22,0.63,0.39,1.39,0.42c0.14,0.01,0.25-0.01,0.34-0.04c0.11,0.09,0.25,0.16,0.41,0.19
	c0.26,0.05,0.45,0.02,0.58-0.07c0.18,0.1,0.41,0.17,0.73,0.19c-0.16,0.31-0.24,0.65-0.03,0.89l0,0.01
	c-0.52-0.33-0.76,0.23-1.04,0.01c-0.28-0.22-0.66-0.25-0.8-0.03c0.53,0.02,0.27,0.43,1.29,0.53c-1.02,0.07-0.84,1.21-1.52,1.16
	c0.73,0.69,1.11-0.62,1.7-0.4c-0.18,0.05,0.28,0.47-0.04,1.02c0.41-0.01,0.63-0.48,0.73-0.85c0.05,0.03,0.11,0.05,0.18,0.06
	c-0.03,0.4,0.5,0.72,0.89,0.54c-0.01,0.42,0.69,0.69,0.99,0.53c0.13,0.43,1.04,0.53,1.2,0.28c-0.01,0.34,0.95,0.62,1.31,0.45
	c0.73-0.33,1.01,0.48,1.51,0.33c-0.59,0.4-0.53,0.98-0.1,1.38c-0.03,0.58,0.35,1.13,0.91,1.16c0.15,0.68,1.23,0.86,1.79,0.68
	c-1.13-0.38-0.58-0.96-1.23-1.06c0.1-0.3,0.23-0.8-0.2-1.03c0.28-0.3,0.63-0.91,0.5-1.26c0.45,0,0.84-0.38,0.96-0.83
	c0.3,0.3,0.98,0.13,1.18-0.08c0.1,0.23,0.45,0.23,0.8,0.1c0.15,0.23,0.53,0.2,0.63,0.75c0.33-0.53,0.03-1.23-0.43-1.51
	c-0.15-0.4-0.47-0.48-0.8-0.38c-0.13-0.11-0.63-0.2-0.88,0.02c-0.06-0.11-0.2-0.09-0.37-0.03c0.31-0.17,0.52-0.43,0.39-0.8
	c0.68,0.08,0.65-0.78,1.46-0.55c-0.45-0.53-1.36-0.5-1.81-0.15c-0.53-0.18-1.08,0.28-0.96,0.88c-0.4-0.18-0.85,0.15-0.83,0.6
	c-0.25-0.08-0.6,0.05-0.78,0.4c-0.33-0.35-0.68-0.4-1.01-0.35c-0.38-0.4-0.73-0.5-1.16-0.3c-0.13-0.15-0.48-0.2-0.73-0.08
	c-0.1-0.28-0.6-0.6-0.96-0.48c-0.08-0.81,0.17-1.09,0.38-1.31c0.55-0.58,0.42-0.74,0.86-1.31c0.84-1.11,1.17-2.66,1.04-4.06
	c0.51-0.38,1.18-0.55,1.67-0.24c0.1,0.41,0.01,0.97-0.54,1.14c0.34,0.21,0.84,0.01,1.12-0.45c-0.41,0.92-0.14,1.75,0.52,1.91
	c-0.31-0.64,0.39-0.94,0.16-1.36c0.42,0.18,0.78,0.74,0.77,1.09c0.49-0.55-0.24-1.26-0.25-1.81c0.57,0.04,1.15-0.02,1.54-0.3
	c0.91-0.63,1.33-0.96,1.74-0.88c0.3,0.45,0.67,0.67,1.12,0.7c0.14,0.15,0.63,0.28,0.91,0.24c0.4,0.1,0.89-0.02,1.28-0.45
	c0.6,0.09,1.17-0.36,1.38-1.04C54.9,28.02,54.94,27.3,54.53,26.82z"/>
<path class="st2" d="M47.77,38.25c-1.19,0-2.15,0.96-2.15,2.15c0,1.19,0.96,2.15,2.15,2.15c1.19,0,2.15-0.96,2.15-2.15
	C49.92,39.21,48.96,38.25,47.77,38.25z"/>
<path class="st3" d="M54.15,22.89c0.03-0.65-0.67-1.25-1.18-0.86c0.47-0.06,0.87,0.81-0.05,1.16c0.18-0.65-0.47-1.25-1.15-0.96
	c0.43,0.13,0.87,0.85-0.1,1.13c-0.61,0.18-1.5-0.05-2.17-0.45c-0.66-0.4-4.39-1.86-3.57-0.75c1.61,0.4,2.88,0.75,3.67,1.21
	c0.79,0.45,2.01,0.58,3.09,0.28c1.07-0.3,3.14-0.58,3.04,0.75C56.29,23.73,55.58,23.01,54.15,22.89z"/>
<path class="st2" d="M53.92,18.74c-0.35,0.21-0.71,0.15-1.12,0.19c0.29-0.13,0.54-0.37,0.81-0.69c0.55-0.65,1.82-0.29,1.99-1.31
	c-0.94,0.72-2.06-0.23-2.59,0.58c-0.13,0.2-0.33,0.3-0.56,0.47c0.27-1.3,0.82-1.28,0.76-2.15c-0.1-1.46,1.4-1.58,1.03-2.49
	c-0.05,0.4-0.65,0.8-0.93,1.01c-0.86,0.62-0.13,1.16-1.03,1.96c-1,0.89-0.29,1.24-0.82,2.01c-0.22-0.02-0.46,0.06-0.66,0.16
	c-0.12-0.25-0.45-0.24-0.93,0c-0.35-0.31-0.87-0.54-1.33-0.46c-0.16-0.65-0.64-1.16-1.23-0.99c-0.13,0.04-0.23,0.12-0.3,0.24
	c-0.61-0.57-1.45-0.72-2.18-0.29c-0.66-0.92-1.74-0.69-2.25-1.22c-0.83-0.85-2.93-1.65-3.8-1.06c0.9-0.05,1.56,0.24,2.11,0.61
	c-0.05,0.04-0.09,0.08-0.13,0.12c-0.52-0.29-1-0.4-1.32-0.21c0.52,0.03,0.84,0.23,1.14,0.49c-0.07,0.16-0.13,0.35-0.16,0.58
	c-1.25-0.92-2.6-1.14-3.04-0.52c-0.71-0.19-1.49-0.12-1.68,0.41c0.89-0.43,1.72-0.02,2.35,0.24c-0.15,0.05-0.28,0.13-0.39,0.25
	c-0.56-0.11-1.05-0.08-1.29,0.23c0.23-0.09,0.64-0.11,1.14,0c-0.11,0.22-0.16,0.51-0.13,0.88c-2.11-0.85-3.63-0.57-3.95,0.28
	c-0.35,0.93,0.96,1.45,1.18,0.86c-0.24,0.1-1.06-0.18-0.63-0.7c0.41-0.51,2.46-0.16,4.47,0.84c-0.09,0.03-0.18,0.05-0.26,0.08
	c-0.82-0.43-2.18,0.14-2.5-0.84c-0.14,0.44-0.03,0.71,0.22,0.87c-0.79,0.03-1.58,0.25-2.1,0.82c-1.44-0.06-2.42,0.15-2.57,0.92
	c1.11-0.99,2.97-0.18,3.72-0.38c0.5-0.13,1.9-0.1,3.05,0.05c0.13,0.06,0.27,0.11,0.44,0.16c-0.16,0.04-0.3,0.14-0.39,0.32
	c-0.28,0.5-0.68,0.91-1.21,1.43c-0.89,0.89-2.74-0.65-4.1,2.16c0.78-0.78,1.61-0.96,2.92-0.88c2.69,0.16,2.24-1.63,3.27-2.26
	c0.66-0.4,1.31,0.55,2.77,0.58c-0.55,0.53-1.66,0.03-2.36,0.93c1.61-0.5,1.53,0.23,3.5-0.28c-0.5,0.1-0.3,0.83-1.08,0.88
	c-0.85,0.06-0.48,0.3-1.46,0.45c0.78-0.06,1.43,0.48,1.86-0.1c0.43-0.58,1.11-0.78,1.63-0.63c0.63,0.18,1.08,0.14,1.43-0.06
	c0.75,0.09,1.41,0.54,1.89,1.22c0.07,0.1,0.16,0.18,0.28,0.25c-0.38,0.18-0.5,0.78-0.96,0.81c0.52,0.28,0.93,0.07,1.26-0.25
	c-0.13,0.39-0.04,0.82,0.42,0.98c-0.29-0.4,0.17-0.64,0.37-0.93c0.15,0.3,0.55,0.46,0.38,0.84c0.53-0.12,0.63-1.08,0.2-1.41
	c0.21-0.21,0.24-0.55,0.08-0.78c-0.13-0.27-0.38-0.52-0.7-0.61c0.46-0.41,0.97-0.49,1.22-0.78c-0.06,0.17-0.07,0.42,0.02,0.83
	c0.09,0.4,0.25,1.06-0.03,1.71c0.81-0.59,0.29-1.83,0.65-2.3c0.18-0.23,0.4-0.58,0.49-0.88c-0.19,0.53-0.18,1.51,0.34,1.76
	c-0.4-0.93,0.97-1.71,0.2-2.75c0.22-0.02,0.3-0.21-0.06-0.39l0,0c0.35,0.11,0.6-0.14,0.11-0.37c0.28,0.11,0.51-0.03,0.37-0.2
	c0.66-0.01,1.91-0.38,2.42-0.76c0.88-0.65,2.91,0.1,3.27-0.78C56.07,18.92,55.45,17.81,53.92,18.74z M38.97,18.07
	c-0.43-0.29-0.85-0.66-0.8-0.97c0.42,0.16,0.86,0.4,1.28,0.73C39.24,17.85,39.07,17.95,38.97,18.07z M39.89,17.5
	c-0.43-0.21-0.99-0.46-1.55-0.65c0.1-0.08,0.26-0.15,0.47-0.21c0.53,0.16,0.9,0.51,1.15,0.8C39.94,17.46,39.91,17.48,39.89,17.5z
	 M37.97,16.01c-0.14-0.08-0.3-0.15-0.46-0.2c0.62-0.29,1.47,0.06,2.46,1.06C39.2,16.27,38.63,16.38,37.97,16.01z M41.05,17.02
	c-0.1-0.34-0.15-0.69-0.09-0.97c0.12,0.11,0.25,0.21,0.4,0.31c0.39,0.25,0.46,0.56,0.64,0.74C41.67,17.06,41.36,17.01,41.05,17.02z
	 M42.71,17.12c-0.46-0.55-1.01-1.07-1.55-1.44c0.03-0.03,0.07-0.07,0.11-0.09c0.44,0.35,0.83,0.71,1.26,0.92
	c0.28,0.14,0.57,0.33,0.88,0.5C43.15,17.07,42.92,17.11,42.71,17.12z M49.04,22.56c-0.42,0.16-0.77,0.44-0.98,0.75
	c-0.37-0.16-0.58-0.55-0.92-0.58c-0.33-0.02-0.56-0.56-0.94-0.75c0.04-0.08,0.08-0.17,0.12-0.26c0.31-0.65,0.77-0.93,1.31-0.95
	c0.1,0.23,0.17,0.59,0.08,0.81c0.22-0.13,0.52-0.44,0.67-0.69c0.17,0.06,0.35,0.13,0.53,0.23c0.09,0.22,0.04,0.49-0.24,0.65
	c0.26,0,0.68,0,0.97-0.22c0.06,0.03,0.12,0.05,0.18,0.06C49.56,21.88,49.7,22.3,49.04,22.56z M52.09,19.13
	c0.01-0.03,0.01-0.05,0.01-0.08c0.06,0,0.11,0,0.16,0C52.21,19.07,52.15,19.1,52.09,19.13z"/>
<path d="M47.02,18.8c-0.14-0.1-0.56,0.46-0.18,0.81c0.19-0.14,0.39-0.25,0.55-0.3C47.3,19.09,47.17,18.92,47.02,18.8z"/>
<path d="M47.84,18.54c0.13-0.28,0.42-0.51,0.71-0.53C48.27,17.71,47.67,17.94,47.84,18.54z"/>
<linearGradient id="SVGID_1_" gradientUnits="userSpaceOnUse" x1="32" y1="62" x2="32" y2="2">
	<stop  offset="0" style="stop-color:#1A1A1A"/>
	<stop  offset="0.102" style="stop-color:#393939;stop-opacity:0.949"/>
	<stop  offset="0.3475" style="stop-color:#7F7F7F;stop-opacity:0.8262"/>
	<stop  offset="0.5688" style="stop-color:#B6B6B6;stop-opacity:0.7156"/>
	<stop  offset="0.7582" style="stop-color:#DEDEDE;stop-opacity:0.6209"/>
	<stop  offset="0.9081" style="stop-color:#F6F6F6;stop-opacity:0.5459"/>
	<stop  offset="1" style="stop-color:#FFFFFF;stop-opacity:0.5"/>
</linearGradient>
<circle class="st4" cx="32" cy="32" r="30"/>
</svg>
