<?xml version="1.0" encoding="utf-8"?>
<!-- Generator: Adobe Illustrator 24.1.2, SVG Export Plug-In . SVG Version: 6.00 Build 0)  -->
<svg version="1.1" id="Layer_1" xmlns="http://www.w3.org/2000/svg" xmlns:xlink="http://www.w3.org/1999/xlink" x="0px" y="0px"
	 width="64px" height="64px" viewBox="0 0 64 64" style="enable-background:new 0 0 64 64;" xml:space="preserve">
<style type="text/css">
	.st0{fill:#002395;}
	.st1{fill:#E81C27;}
	.st2{fill:#92DBFC;}
	.st3{fill:#008DE8;}
	.st4{fill:#9C8431;}
	.st5{fill:#FFDF52;}
	.st6{fill:#8C4200;}
	.st7{fill:#08951C;}
	.st8{fill:#FDF9FF;}
	.st9{opacity:0.1;fill:url(#SVGID_1_);}
</style>
<path class="st0" d="M2,32c0,9.81,4.71,18.53,12,24h36c7.29-5.47,12-14.19,12-24S57.29,13.47,50,8H14C6.71,13.47,2,22.19,2,32z"/>
<path class="st1" d="M14,8h36c-5.02-3.77-11.25-6-18-6S19.01,4.23,14,8z"/>
<path class="st1" d="M32,62c6.75,0,12.99-2.23,18-6H14C19.01,59.77,25.25,62,32,62z"/>
<path class="st2" d="M32.03,14.52c0,0-10.71,8.52-10.71,17.37c0,8.85,10.71,17.59,10.71,17.59s10.64-8.11,10.64-17.59
	C42.67,22.4,32.03,14.52,32.03,14.52z"/>
<path class="st3" d="M22.51,37.29c2.79,6.69,9.52,12.19,9.52,12.19s6.85-5.22,9.56-12.19"/>
<path class="st4" d="M41.63,35.36c-1.65,1.18-10.94,0.61-10.94,0.61l-0.52,1.32l11.06,0.03c0.05-0.18,0.16-0.4,0.19-0.58
	L41.63,35.36z"/>
<path class="st5" d="M31.89,43.12c1.31,0,0.6-0.84-1.09-0.89c-0.92-0.03-1.58-0.65-2.43-0.66c-0.81-0.01-1.25-0.01-2-0.4
	c-0.42-0.23-0.89-0.33-1.36-0.34c0.64,0.98,1.33,1.88,2.02,2.71c0.72-0.57,1.29-0.65,2.26-0.75C29.94,42.7,31.27,43.12,31.89,43.12z
	"/>
<path class="st5" d="M39.88,39.14c-0.47-0.02-0.88,0.51-1.26,0.77c-0.33,0.24-0.7,0.38-1.18,0.4c-0.67,0.01-0.61,0.41-1.99,0.62
	c-0.67,0.1-1.62,0.17-2.38,0.11c-0.42-0.07-0.79-0.18-1.13-0.12c-0.34,0.08-0.86,0.47-0.23,0.72c0.83,0.3,2.17,0.01,2.88,0.32
	c0.88,0.37,1.58,1.39,0.12,1.73c-0.82,0.18-2.23,0.5-3.27,0.31c-0.91,0-1.18,0.49-1.97,0.51c-0.41,0.01-0.69,0.24-1.11,0.52
	c1.99,2.13,3.68,3.42,3.68,3.42s5.21-3.69,8.12-9.31L39.88,39.14z"/>
<path class="st6" d="M37.28,40.83c-0.65-0.63-1.34-0.8-1.92-1.37c-0.91-0.9-2.15-2.75-2.74-4.51c-0.65-1.92-0.53-7.32-0.5-10.06
	c0-0.03,0.08-0.05,0.09-0.06c0.04-0.06,0.08,0.02,0.02-0.38c-0.02-0.1-0.1-0.21-0.1-0.31c0-0.19-0.64,0.2-0.81,0.53
	c-0.04,0.08,0.12,0.29,0.12,0.33c0.02,2.63-0.26,7.81,0.44,10.15c0.43,1.45,1.22,2.57,1.93,3.61c0.43,0.67,1.04,1.38,1.23,2.15
	c0.18,0.7,0.37,0.93,1.1,1.11C36.86,42.22,37.96,41.51,37.28,40.83z"/>
<path class="st1" d="M27.03,33.13c-0.32-0.04-0.61-0.18-0.78-0.38c-0.15-0.17-0.24-0.4-0.27-0.66c-0.01-0.08-0.01-0.29,0-0.37
	c0.04-0.28,0.15-0.54,0.31-0.72c0.27-0.31,0.83-0.43,1.29-0.28c0.29,0.09,0.46,0.27,0.56,0.57c0.01,0.04,0.02,0.08,0.02,0.08
	c0,0-0.25,0.07-0.27,0.07c-0.01,0-0.02-0.01-0.03-0.06c-0.05-0.13-0.11-0.25-0.19-0.31c-0.17-0.13-0.4-0.18-0.68-0.14
	c-0.18,0.03-0.35,0.12-0.45,0.24c-0.15,0.18-0.23,0.39-0.24,0.67c-0.01,0.28,0.04,0.5,0.16,0.67c0.19,0.29,0.63,0.42,1.03,0.3
	c0.13-0.04,0.26-0.1,0.36-0.17l0.04-0.03l0-0.23v-0.23l-0.36,0h-0.36v-0.14v-0.14l0.51,0h0.51l0,0.44v0.44l-0.06,0.04
	c-0.23,0.17-0.46,0.27-0.71,0.32C27.34,33.13,27.12,33.14,27.03,33.13z M29.85,33.15c-0.23-0.03-0.41-0.1-0.54-0.22
	c-0.12-0.11-0.18-0.25-0.22-0.46c-0.03-0.15-0.03-0.22-0.03-1l0-0.76h0.16h0.16l0,0.82c0,0.87,0,0.85,0.03,0.98
	c0.04,0.17,0.17,0.29,0.34,0.34c0.14,0.04,0.33,0.04,0.49,0c0.19-0.05,0.29-0.15,0.35-0.34c0.04-0.15,0.04-0.14,0.04-1l0-0.79h0.16
	h0.16l0,0.74c0,0.42,0,0.78-0.01,0.84c-0.03,0.37-0.12,0.57-0.35,0.73c-0.09,0.06-0.21,0.11-0.34,0.13
	C30.2,33.15,29.92,33.16,29.85,33.15L29.85,33.15z M32.5,33.08c0.01-0.02,0.22-0.56,0.46-1.2l0.45-1.17l0.17,0l0.17,0l0.49,1.19
	c0.27,0.66,0.49,1.2,0.49,1.21c0,0.01-0.01,0.01-0.17,0.01h-0.18l-0.03-0.08c-0.02-0.04-0.08-0.21-0.14-0.36L34.1,32.4l-0.51,0
	l-0.51,0l-0.13,0.36l-0.13,0.36l-0.17,0h-0.17L32.5,33.08z M33.99,32.12c0-0.01-0.07-0.19-0.15-0.41c-0.08-0.22-0.18-0.48-0.21-0.57
	c-0.03-0.09-0.06-0.17-0.06-0.17c0,0-0.01,0.04-0.03,0.09c-0.04,0.17-0.08,0.29-0.22,0.67c-0.08,0.21-0.15,0.39-0.15,0.39
	c0,0.01,0.02,0.01,0.41,0.01C33.97,32.14,34,32.13,33.99,32.12z M35.83,31.92l0-1.21l0.24,0l0.24,0l0.32,0.96
	c0.17,0.53,0.33,0.99,0.34,1.03c0.01,0.04,0.02,0.07,0.03,0.07c0,0,0.04-0.12,0.09-0.25c0.05-0.14,0.21-0.6,0.36-1.03l0.27-0.78
	l0.21,0l0.21,0l0,1.2l0,1.2l-0.15,0h-0.15l0-1.01c0-0.56,0-1.01,0-1c0,0-0.15,0.42-0.33,0.93c-0.18,0.51-0.33,0.96-0.35,1
	l-0.03,0.08h-0.28l-0.34-1.02c-0.19-0.56-0.35-1.02-0.35-1.03c0,0-0.01,0.45-0.01,1.02l0,1.03h-0.15l-0.15,0L35.83,31.92z"/>
<path class="st7" d="M25.38,24.12c0.05,0.06,0.04,0.33,0.04,0.33c0.04,0.02,0.64-0.51,0.64-0.49c0,0.11,0.01,0.35,0.01,0.35
	s0.63-0.59,0.65-0.53c0.03,0.07,0,0.41,0,0.41s0.42-0.46,0.49-0.54c0.05-0.06,0.05,0.07,0.05,0.29c0,0.04,0.68-0.5,0.72-0.51
	c0.09-0.02,0.12,0.28,0.11,0.36c0,0.05,0.63-0.36,0.6-0.31l0.05,0.32c0.18-0.02,0.6-0.18,0.85-0.14c0.08,0.01,0.08,0.05,0,0.08
	c-1.22,0.49-2.15,1.23-2.7,2.27c-0.19,0.35-0.24,0.66-0.19,0.74c0,0,0.22-0.47,0.46-0.54c0.03-0.01,0.06,0.3,0.09,0.28
	c0,0,0.19-0.47,0.32-0.65c0.04-0.05,0.1,0.25,0.13,0.2c0,0,0.1-0.32,0.29-0.54c0.03-0.03,0.08,0.3,0.11,0.27
	c0.2-0.18,0.38-0.64,0.46-0.67c0.05-0.04,0.06,0.38,0.11,0.34c0,0,0.28-0.56,0.45-0.67c0.11-0.07,0.1,0.31,0.1,0.31
	c0.21-0.21,0.45-0.56,0.56-0.71c0.05-0.07,0.02,0.46,0.08,0.48c0.07,0.03,0.53-0.41,0.58-0.42c0.03-0.01,0.07,0.12-0.02,0.23
	l-0.57,0.66c0.11,0.02,0.15-0.01,0.23,0.01c0.23,0.06-0.44,0.45-0.43,0.52c0,0,0.32-0.01,0.21,0.06c-0.08,0.04-0.5,0.6-0.5,0.58
	c0-0.01,0.21,0,0.21,0.07c0,0.11-0.35,0.7-0.36,0.7c-0.02-0.02,0.19-0.03,0.22,0.03c0.05,0.11-0.36,0.58-0.28,0.66
	c0.01,0.01,0.24,0,0.34,0.03c0.05,0.01,0.18,0.86,0.15,0.83c-0.01-0.01,0.15-0.8,0.24-1.04c0.06-0.15,0.24,0.22,0.25,0.19
	c-0.01,0-0.04-0.52-0.01-0.76c0.01-0.07,0.14,0.07,0.14,0.01c0-0.14-0.02-0.3,0.01-0.44c0.02-0.11,0.13,0.19,0.18,0.11
	c0,0-0.13-0.52-0.08-0.66c0.04-0.1,0.13,0.23,0.19,0.24c0,0-0.03-0.4,0.03-0.5l0.19,0.2c0.04-0.06,0.03-0.69,0.07-0.75
	c0.03-0.05,0.23,0.23,0.25,0.19c0.03-0.04-0.08-0.5-0.06-0.54c0.03-0.05,0.25,0.13,0.25,0.13c0.09-0.09,0.08-0.31,0.12-0.39
	c0.1-0.22,0.66-0.25,0.73-0.09c0.03,0.08,0.01,0.17,0,0.29c0,0,0.28,0.02,0.28,0c0,0-0.03,0.26-0.01,0.54
	c0,0.04,0.28-0.01,0.28,0.03c0.03,0.27-0.04,0.29-0.04,0.29c0,0.02,0.19-0.03,0.19-0.01c0.02,0.13-0.02,0.29-0.1,0.44
	c-0.01,0.02,0.26-0.02,0.27,0c0.03,0.2,0.04,0.36,0,0.64c0,0.02,0.27-0.2,0.28-0.18c0.04,0.24-0.01,0.5,0.02,0.74
	c0.01,0.06,0.18-0.17,0.2-0.11c0.02,0.07-0.04,0.54-0.01,0.56c0,0,0.29-0.01,0.32,0.01c0.23,0.22,0.19,0.6,0.19,0.6
	c0.06-0.05,0.04-0.51-0.02-0.93c-0.01-0.04,0.23-0.03,0.22-0.07c0,0-0.26-0.15-0.34-0.58c-0.02-0.09,0.25-0.07,0.25-0.07
	c-0.07-0.17-0.2-0.2-0.31-0.36c-0.04-0.05,0.27-0.08,0.27-0.09c0-0.16-0.26-0.24-0.4-0.41C33.63,26.01,33.97,26,33.97,26
	c-0.1-0.14-0.43-0.2-0.6-0.38c-0.09-0.1,0.33-0.2,0.33-0.21c-0.05-0.15-0.45-0.19-0.64-0.36c-0.04-0.03,0.25-0.15,0.25-0.15
	c-0.03-0.06-0.67-0.48-0.34-0.44c0.14,0.02,0.42,0.21,0.44,0.18c0,0-0.01-0.25,0.02-0.27c0.11-0.11,0.48,0.47,0.6,0.45
	c0,0,0.05-0.42,0.1-0.43c0.13-0.03,0.3,0.61,0.43,0.61c0.02,0,0.03-0.37,0.1-0.39c0.08-0.02,0.16,0.41,0.26,0.51
	c0.09,0.09,0.09-0.34,0.15-0.26c0.09,0.13,0.11,0.4,0.24,0.52c0.08,0.08,0.09-0.38,0.18-0.31c0.1,0.07,0.08,0.31,0.2,0.42
	c0.06,0.05,0.09-0.3,0.16-0.25c0.06,0.04,0.09,0.48,0.15,0.55c0.08,0.09,0.16-0.23,0.25-0.18c0.06,0.04,0.04,0.41,0.1,0.49
	c0.11,0.17,0.17-0.2,0.24-0.14c0.05,0.04,0.16,0.47,0.21,0.5c0.1,0.08,0.16-0.2,0.23-0.16c0.05,0.03,0.17,0.58,0.21,0.57
	c0.03-0.01,0.1-1.27-0.38-1.8c-0.79-0.86-2.2-1.36-3.35-1.37c0,0,0.58-0.12,0.59-0.21c0.03-0.19,0.32-0.17,0.52-0.13
	c0.04,0.01,0.02-0.34,0.02-0.34c0.18,0,0.34,0.1,0.51,0.21c0.05,0.03-0.11-0.35-0.05-0.31c0.22,0.13,0.46,0.16,0.61,0.32
	c0.04,0.04-0.04-0.29-0.04-0.29c0.11-0.03,0.33,0.13,0.41,0.28c0.04,0.07,0-0.39,0.03-0.31c0,0,0.38,0.13,0.42,0.29
	c0,0,0.03-0.29,0.08-0.28c0.15,0.04,0.29,0.3,0.41,0.34c0,0-0.05-0.26-0.01-0.25c0.29,0.07,0.6,0.25,0.6,0.25
	c-0.16-0.41-0.78-0.83-1.86-0.95c-0.2-0.02-1.01-0.05-1.69,0.1c-0.56,0.13-1,0.2-0.91,0.12c0.37-0.36,0.97-0.41,1.14-0.49
	c0.12-0.06-0.4-0.26-0.29-0.29c0.1-0.02,0.56-0.06,0.56-0.06c0.1-0.08-0.33-0.23-0.27-0.34c0.13-0.23,0.9-0.02,0.96-0.11
	c0.02-0.03-0.33-0.24-0.32-0.27c0.06-0.12,0.74,0.09,0.76-0.01c0,0-0.21-0.16-0.35-0.28c-0.02-0.02,0.61-0.18,0.61-0.18
	c-0.01-0.01-0.11-0.08-0.25-0.13c-0.13-0.05,0.55-0.23,0.55-0.23c-0.87-0.4-3.11,0.73-3.56,1.9c-0.12,0.28-0.12-0.02-0.1-0.26
	c0.02-0.25,0.05-0.48,0.03-0.71c-0.01-0.07-0.18,0.18-0.2,0.12c-0.04-0.25,0.09-0.52,0.03-0.8c-0.02-0.09-0.25,0.27-0.28,0.18
	c-0.08-0.25,0.06-0.61,0-0.96c-0.02-0.14-0.24,0.29-0.32,0.17c-0.09-0.14-0.05-0.67-0.09-0.75c-0.03-0.06-0.23,0.25-0.25,0.19
	c-0.27-0.97,0.09-1.09-0.42-0.54c-0.02,0.02-0.13-0.57-0.15-0.55c-0.21,0.45-0.55-0.32-0.67-0.25c-0.09,0.05,0.24,0.35,0.24,0.48
	c0,0.06-0.3,0.07-0.3,0.07c0.01,0.11,0.57,0.42,0.59,0.54c0.02,0.1-0.4,0.08-0.4,0.08c0.01,0.13,0.49,0.26,0.51,0.41
	c0.01,0.08-0.22,0.1-0.21,0.18c0.01,0.12,0.46,0.37,0.47,0.49c0.01,0.09-0.28,0.12-0.29,0.2c-0.01,0.1,0.59,0.43,0.59,0.52
	c0,0.13-0.24,0.06-0.35,0.13c-0.15,0.09,0.49,0.47,0.52,0.58c0.02,0.09-0.26,0.01-0.27,0.1c-0.01,0.11,0.32,0.28,0.39,0.47
	c0.08,0.19,0,0.24-0.11,0.16c-0.22-0.15-1.09-1.08-1.32-1.32c-0.34-0.36-1.02-0.76-1.71-0.78c-0.07,0.02,0.37,0.33,0.37,0.45
	c0,0.03-0.2,0.07-0.19,0.08c0.12,0.12,0.5,0.27,0.5,0.27l-0.11,0.2c0.03,0.06,0.21,0.07,0.49,0.17c0,0-0.22,0.13-0.2,0.15
	c0.15,0.12,0.45,0.21,0.45,0.21l-0.29,0.1c-0.02,0.06,0.65,0.32,0.65,0.32l-0.2,0.19c0.05,0.05,0.54,0.17,0.54,0.17l-0.35,0.12
	c0.13,0.13,0.49,0.17,0.57,0.38c0,0,0.05,0.12-0.09,0.1c-0.56-0.2-1.42-0.62-3.08-0.46c-1.71,0.22-3,1.7-2.98,1.85
	C24.71,24.47,25.32,24.03,25.38,24.12z"/>
<rect x="28.29" y="38.79" width="0.54" height="0.41"/>
<path class="st6" d="M31.33,38.86c-2.19,0.47-5.75,0.2-5.75,0.2l-0.15-0.03c0,0.05,0.06,0.18,0.18,0.31
	c0.48,0.45,1.41,0.41,1.43,0.45c0.03,0.04,0.08,0.32,0.01,0.34c-0.07,0.02-0.34,0-0.34,0c0.31,0.43,1.77,0.4,2.21,0.39
	c1.35-0.05,1.4-0.44,1.4-0.44l-0.11,0.02c-0.11,0.02-0.33,0.03-0.34-0.07c-0.01-0.1,0.08-0.3,0.08-0.3c0.37-0.07,1.04-0.13,1.3-0.44
	C31.51,38.98,31.33,38.86,31.33,38.86z"/>
<path class="st8" d="M26.07,38.88c0,0,1.32-1.41,0.92-4.34c0,0,1.38,0.35,2.78,2.38c0,0,0.41,0.41,0.89,1.88L26.07,38.88z"/>
<path class="st1" d="M32.04,13.5c0,0-11.33,8.43-11.33,18.38c0,9.95,11.33,18.62,11.33,18.62s11.26-7.96,11.26-18.62
	C43.29,21.22,32.04,13.5,32.04,13.5z M32.03,48.46c0,0-10.08-7.72-10.08-16.57c0-8.85,10.08-16.35,10.08-16.35
	s10.02,6.87,10.02,16.35C42.05,41.38,32.03,48.46,32.03,48.46z"/>
<linearGradient id="SVGID_1_" gradientUnits="userSpaceOnUse" x1="32" y1="62" x2="32" y2="2">
	<stop  offset="0" style="stop-color:#1A1A1A"/>
	<stop  offset="0.102" style="stop-color:#393939;stop-opacity:0.949"/>
	<stop  offset="0.3475" style="stop-color:#7F7F7F;stop-opacity:0.8262"/>
	<stop  offset="0.5688" style="stop-color:#B6B6B6;stop-opacity:0.7156"/>
	<stop  offset="0.7582" style="stop-color:#DEDEDE;stop-opacity:0.6209"/>
	<stop  offset="0.9081" style="stop-color:#F6F6F6;stop-opacity:0.5459"/>
	<stop  offset="1" style="stop-color:#FFFFFF;stop-opacity:0.5"/>
</linearGradient>
<circle class="st9" cx="32" cy="32" r="30"/>
</svg>
