<?xml version="1.0" encoding="utf-8"?>
<!-- Generator: Adobe Illustrator 24.1.2, SVG Export Plug-In . SVG Version: 6.00 Build 0)  -->
<svg version="1.1" id="Layer_1" xmlns="http://www.w3.org/2000/svg" xmlns:xlink="http://www.w3.org/1999/xlink" x="0px" y="0px"
	 width="64px" height="64px" viewBox="0 0 64 64" style="enable-background:new 0 0 64 64;" xml:space="preserve">
<style type="text/css">
	.st0{fill:#CE1126;}
	.st1{fill:#1A1626;}
	.st2{fill:#FCFCFC;}
	.st3{fill:#C09300;}
	.st4{opacity:0.1;fill:url(#SVGID_1_);}
</style>
<path class="st0" d="M32,2C18.94,2,7.83,10.35,3.71,22h56.57C56.17,10.35,45.06,2,32,2z"/>
<path class="st1" d="M32,62c13.06,0,24.17-8.35,28.29-20H3.71C7.83,53.65,18.94,62,32,62z"/>
<path class="st2" d="M3.71,22C2.61,25.13,2,28.49,2,32c0,3.51,0.61,6.87,1.71,10h56.57C61.39,38.87,62,35.51,62,32
	c0-3.51-0.61-6.87-1.71-10H3.71z"/>
<path class="st3" d="M38.58,27.01c-0.05-1.09-0.64-1.32-1.14-1.32c-0.61,0-1.31,0.35-1.68,0.55c-0.59,0.38-1.26,0.57-1.98,0.57
	l-0.01,0c-0.28-0.47-0.52-1.43-0.48-2.28c0.04-1.09-0.15-1.53-0.33-1.7c-0.21-0.21-0.87-0.4-1.32-0.42l-0.22,0.07l-0.04,0.09
	c-0.5-0.12-0.89-0.12-1.08,0c-0.17,0.11-0.22,0.53-0.18,0.68l0.09,0.08l0.06-0.02c0.25-0.2,0.51-0.11,0.76,0.26
	c0.15,0.22,0.17,0.91-0.1,1.8c-0.16,0.55-0.51,1.1-0.75,1.44c-0.72,0-1.38-0.2-1.97-0.57c-0.36-0.21-1.06-0.55-1.67-0.55
	c-0.49,0-1.09,0.23-1.14,1.32l-0.49,11.71l0.03,0.05l0.05-0.01l3.68-3.34l-0.77,2.73c-0.18-0.05-0.33-0.09-0.44-0.13l-0.08-0.01
	c-0.19,0-0.38,0.15-0.42,0.33c-0.01,0.06-0.02,0.17,0.09,0.29c-0.27,0.06-0.43,0.25-0.45,0.52c-0.21-0.02-0.33,0.14-0.44,0.28
	l-0.26,0.21l-0.07-0.01l-0.05,0.04l0.04,0.06l0.07,0.01c0.07,0.02,0.09,0.1,0.12,0.22c0.04,0.16,0.09,0.38,0.34,0.48
	c0,0.31,0.02,0.58,0.53,0.67c1.07,0.31,2.93,0.48,5.09,0.48c2.16,0,4.02-0.18,5.1-0.48c0.5-0.09,0.52-0.36,0.52-0.67
	c0.26-0.1,0.31-0.32,0.35-0.48c0.03-0.12,0.05-0.2,0.12-0.22l0.07-0.01l0.04-0.06l-0.05-0.04l-0.07,0.01l-0.26-0.21
	c-0.11-0.14-0.24-0.3-0.44-0.28c-0.02-0.28-0.18-0.46-0.45-0.52c0.11-0.11,0.1-0.23,0.09-0.29c-0.04-0.18-0.23-0.33-0.42-0.33
	l-0.08,0.01c-0.11,0.04-0.26,0.08-0.43,0.13l-0.78-2.76l0.46,0.37l3.23,3l0.04,0.01l0.02,0l0.03-0.05L38.58,27.01z M31.88,22.85
	L32,22.97l-0.12,0.12l-0.12-0.12L31.88,22.85z M31.05,25.4c0.2-0.66,0.26-1.28,0.18-1.65l0.05-0.05l0.35,0
	c-0.38-0.65-0.82-0.81-1-0.8c-0.17,0.01-0.27,0.18-0.33,0.28l-0.06,0.04c-0.01-0.03-0.02-0.11,0-0.23l0.07-0.24
	c0.06-0.04,0.15-0.09,0.3-0.1c0.3-0.02,0.38,0.02,0.61,0.2c0.22,0.18,0.41,0.27,0.52,0.25l0.09,0.1l0.13,0.06l0.15-0.17l0.23-0.08
	c0.14-0.04,0.21-0.03,0.32-0.04c0.05-0.01,0.25-0.01,0.37,0.06c0.11,0.21,0.23,0.64,0.2,1.49c-0.04,0.97,0.27,2.15,0.64,2.54
	c-0.22-0.03-0.54-0.09-0.64-0.19c-0.37-0.55-0.46-2.06-0.46-2.08l-0.1,0.01c0,0.06,0.1,1.57,0.48,2.13l0.1,0.28
	c-0.43-0.06-0.73-0.33-0.78-0.38c-0.1-0.33-0.1-2.11-0.1-2.13h-0.1c0,0.07,0,1.75,0.11,2.14c-0.06,0.06-0.23,0.22-0.35,0.36
	l-0.34-0.36c0.28-0.57,0.37-2.15,0.37-2.21l-0.1-0.01c0,0.02-0.09,1.66-0.37,2.2c-0.04,0.04-0.31,0.27-0.65,0.45L31,26.85
	c0.43-0.49,0.65-2.09,0.66-2.16l-0.1-0.01c0,0.02-0.23,1.64-0.63,2.11c-0.05,0.03-0.47,0.29-0.82,0.34
	C30.29,26.87,30.82,26.13,31.05,25.4z M29.17,34.08l0.19,0.46l0.04,0.03l0.01,0l0.04-0.01l0.7-0.67L30.26,35l0.04,0.04l0.05-0.02
	l0.42-0.55l0.34,1.18l-0.58,0.88l-0.22-1.24l-0.04-0.04l-0.05,0.02l-0.53,0.72l-0.23-0.83l-0.04-0.04l-0.05,0.01l-0.7,0.72
	L29.17,34.08z M34.7,38.43l-0.14,0.02l-0.33-0.57l-0.05-0.02l-0.04,0.03l-0.2,0.62c-0.17,0.01-0.33,0.02-0.5,0.03l-0.15-0.67
	l0.23-1.09l0.54,0.83l0.05,0.02l0.04-0.03l0.29-0.87l0.52,0.86L34.7,38.43z M35.03,37.67l0.44,0.62c-0.21,0.04-0.43,0.09-0.67,0.12
	L35.03,37.67z M34.45,38.46c-0.13,0.02-0.27,0.03-0.41,0.04l0.15-0.47L34.45,38.46z M32.49,39.06c-0.16,0-0.32,0-0.49,0
	c-0.16-0.01-0.32-0.01-0.48-0.02l0.05-0.19c-0.01-0.19-0.18-0.35-0.37-0.35c-0.15,0.02-0.33,0.03-0.52,0.03h0l0.1-0.47l0.25,0.25
	l0.33-0.25l0.47-3.35l0.05,0.04l-0.19,3.31L32,38.47l0.32-0.41l-0.19-3.31l0.05-0.04l0.47,3.35l0.33,0.25l0.25-0.25l0.11,0.47
	c-0.19,0-0.36-0.01-0.51-0.03c-0.19,0-0.37,0.16-0.38,0.35L32.49,39.06z M29.86,37.89l-0.04-0.03l-0.05,0.02l-0.33,0.57l-0.14-0.02
	l-0.25-0.84l0.52-0.86l0.29,0.87l0.04,0.03l0.05-0.02l0.54-0.83l0.23,1.09l-0.15,0.67c-0.17,0-0.34-0.01-0.5-0.03L29.86,37.89z
	 M29.96,38.5c-0.14-0.01-0.28-0.03-0.41-0.04l0.25-0.43L29.96,38.5z M29.19,38.41c-0.24-0.03-0.46-0.07-0.67-0.12l0.44-0.62
	L29.19,38.41z M30.58,33.47c0.14,0.17,0.28,0.34,0.44,0.51l-0.68,0.89l-0.11-1.07L30.58,33.47z M30.22,33.67l-0.09-0.85
	c0.12,0.19,0.25,0.37,0.39,0.56L30.22,33.67z M31.1,34.05c0.12,0.12,0.25,0.24,0.38,0.36l-0.23,1.04l-0.06,0.09l-0.34-1.17
	L31.1,34.05z M31.16,35.83l-0.4,1.81l-0.2-0.96l0.59-0.89L31.16,35.83z M33.23,37.63l-0.4-1.81l0.01-0.04l0.59,0.89L33.23,37.63z
	 M32.81,35.54l-0.06-0.09l-0.23-1.04c0.13-0.12,0.26-0.24,0.37-0.36l0.25,0.32L32.81,35.54z M32.97,33.98
	c0.16-0.17,0.3-0.34,0.44-0.51l0.35,0.34l-0.11,1.07L32.97,33.98z M33.48,33.38c0.14-0.19,0.27-0.38,0.39-0.56l-0.09,0.85
	L33.48,33.38z M33.99,32.61c0.1-0.17,0.19-0.34,0.28-0.51l0.52,1.83l-0.01,0l-0.21,0.5l-0.7-0.67L33.99,32.61z M34.75,30.86
	c0.1-0.34,0.17-0.67,0.22-0.96l0.25,5.2l-0.35-1.23L34.75,30.86z M32,34.73c-3-2.33-2.99-5.68-2.97-6.15l0.21,0.02
	c0.71,0,2.32-0.43,2.79-0.88c0.46,0.5,2.07,0.88,2.74,0.88l0.21-0.02C34.99,29.05,35,32.4,32,34.73z M30.13,33.76l-0.7,0.67
	l-0.2-0.5l-0.01,0l0.52-1.83c0.08,0.17,0.18,0.34,0.28,0.52L30.13,33.76z M29.03,29.91c0.05,0.3,0.12,0.63,0.23,0.98l-0.12,2.95
	l-0.36,1.26L29.03,29.91z M29.38,35.27l0.24,0.84l0.04,0.04l0.05-0.02l0.52-0.71l0.22,1.22l-0.54,0.83l-0.29-0.87l-0.04-0.03
	l-0.01,0l-0.04,0.02l-0.52,0.86l-0.38-1.41L29.38,35.27z M28.58,36.2l0.37,1.34l-0.52,0.73c-0.14-0.03-0.28-0.06-0.4-0.1L28.58,36.2
	z M27.41,38.11l0.05,0c0.33,0.11,1.01,0.3,1.78,0.41c0.41,0.05,0.94,0.12,1.43,0.12c0.19,0,0.37-0.01,0.52-0.03
	c0.13,0,0.26,0.12,0.27,0.25c0.01,0.15-0.12,0.25-0.36,0.28c-0.15,0.02-0.34,0.03-0.54,0.03c-0.51,0-1.06-0.06-1.37-0.12
	c-0.35-0.06-1.28-0.23-1.85-0.39c-0.19-0.08-0.27-0.19-0.25-0.32C27.11,38.22,27.26,38.11,27.41,38.11z M37.27,39.2l0.02,0.04
	l0.04,0.01c0.18-0.04,0.29,0.09,0.4,0.24l0.23,0.22l-0.09,0.23c-0.04,0.17-0.08,0.34-0.31,0.42l-0.04,0.05c0,0.32,0,0.53-0.44,0.61
	c-1.08,0.3-2.93,0.48-5.08,0.48c-2.15,0-4-0.17-5.07-0.48c-0.45-0.08-0.45-0.29-0.45-0.6l-0.03-0.05c-0.23-0.08-0.27-0.25-0.31-0.42
	l-0.09-0.23l0.22-0.22c0.11-0.14,0.22-0.28,0.4-0.24l0.04-0.01l0.02-0.04c0-0.37,0.25-0.47,0.45-0.5l0.12,0.07
	c0.58,0.16,1.52,0.33,1.87,0.39c0.32,0.06,0.88,0.12,1.39,0.12c0.21,0,0.4-0.01,0.56-0.03c0.14-0.02,0.24-0.06,0.31-0.11
	c0.19,0.01,0.38,0.01,0.57,0.02c0.21,0,0.41,0,0.6,0c0.07,0.04,0.15,0.07,0.28,0.09c0.16,0.02,0.34,0.03,0.56,0.03
	c0.52,0,1.07-0.06,1.39-0.12c0.35-0.06,1.28-0.23,1.87-0.4l0.12-0.06C37.03,38.73,37.27,38.83,37.27,39.2z M36.53,38.12
	c0.15-0.03,0.35,0.09,0.38,0.24c0.03,0.12-0.06,0.24-0.24,0.32c-0.58,0.16-1.51,0.33-1.86,0.39c-0.32,0.06-0.87,0.12-1.37,0.12
	c-0.21,0-0.39-0.01-0.54-0.03c-0.24-0.03-0.37-0.14-0.36-0.28c0.01-0.12,0.13-0.26,0.27-0.26c0.15,0.02,0.33,0.03,0.52,0.03
	c0.48,0,1.02-0.06,1.43-0.12C35.53,38.42,36.21,38.22,36.53,38.12z M35.98,38.17c-0.12,0.03-0.26,0.07-0.4,0.1l-0.52-0.73l0.37-1.34
	L35.98,38.17z M34.98,37.44l-0.52-0.86l-0.05-0.02l-0.04,0.03l-0.29,0.87l-0.54-0.83l0.22-1.22l0.52,0.71l0.05,0.02l0.04-0.04
	l0.24-0.84l0.75,0.77L34.98,37.44z M35.33,35.86l-0.7-0.72l-0.05-0.01l-0.04,0.04l-0.23,0.83l-0.53-0.72l-0.05-0.02l-0.04,0.04
	l-0.22,1.24l-0.58-0.88l0.34-1.18l0.42,0.55l0.05,0.02L33.74,35l0.12-1.11l0.7,0.67l0.04,0.01l0.01,0l0.04-0.03l0.19-0.46
	L35.33,35.86z M38.21,37.89l-0.23-0.22l-0.49-10.9c-0.16,0.16-0.64,0.55-0.73,0.64v0l0.41,9.5l-0.32-0.3l-0.4-8.95
	c-0.16,0.16-0.48,0.39-0.57,0.48l0.32,7.87l-0.32-0.3l-0.31-7.41c-0.11,0.05-0.31,0.16-0.47,0.21l0-0.01l0-0.06l-0.06,0.01
	l-0.25,0.03c-0.68,0-2.33-0.4-2.7-0.88l-0.04-0.05l-0.04,0.05c-0.4,0.44-2.06,0.89-2.76,0.89l-0.25-0.03l-0.06-0.01l0,0.06v0.01
	c-0.16-0.05-0.36-0.16-0.48-0.21l-0.32,7.48l-0.32,0.29l0.32-7.93c-0.09-0.09-0.41-0.32-0.57-0.48l-0.4,9l-0.47,0.42l0.15-0.15
	l0.41-9.53v0c-0.09-0.09-0.57-0.48-0.73-0.64L26.02,37.7l-0.23,0.21l0.48-11.31c-0.15,0-0.51,0.21-0.74,0.37
	c0.04-0.79,0.39-1.19,1.03-1.19c0.44,0,1.01,0.19,1.62,0.54c0.59,0.38,1.24,0.57,1.95,0.59c-0.11,0.15-0.18,0.23-0.18,0.24
	l-0.07,0.08h0.11c0.31,0,0.7-0.2,0.89-0.3l-0.13,0.55l0.1-0.05c0.35-0.17,0.64-0.4,0.74-0.49l0.41,0.43l0.04-0.05
	c0.1-0.14,0.29-0.31,0.36-0.39c0.1,0.09,0.41,0.35,0.86,0.39l0.05-0.03c0.01-0.02,0.04-0.05-0.04-0.26
	c0.26,0.12,0.69,0.15,0.74,0.15l0.02-0.1l-0.19-0.18c0.72-0.01,1.39-0.21,1.98-0.59c0.61-0.35,1.19-0.54,1.62-0.54
	c0.64,0,0.99,0.4,1.03,1.19c-0.24-0.16-0.6-0.37-0.75-0.37L38.21,37.89z"/>
<path class="st3" d="M34.67,28.74c-0.58,0-2.06-0.31-2.62-0.8l-0.03-0.03l-0.03,0.02c-0.57,0.43-2.04,0.8-2.67,0.8l-0.08-0.01
	l-0.06-0.01v0.06c0,0.15,0.01,0.31,0.01,0.42c0.03,0.49,0.12,0.99,0.26,1.49c0.41,1.51,1.28,2.82,2.51,3.79L32,34.51l0.03-0.03
	c1.23-0.98,2.1-2.29,2.51-3.8c0.14-0.49,0.22-0.99,0.25-1.49c0.01-0.13,0.02-0.31,0.02-0.41v-0.05l-0.05,0L34.67,28.74z M32.93,28.5
	v4.99v0.03c-0.28,0.32-0.59,0.61-0.93,0.88c-0.34-0.27-0.65-0.56-0.93-0.88V33.5v-5.01v-0.03c0.38-0.13,0.73-0.28,0.95-0.45
	c0.21,0.18,0.54,0.33,0.91,0.46V28.5z"/>
<linearGradient id="SVGID_1_" gradientUnits="userSpaceOnUse" x1="32" y1="62" x2="32" y2="2">
	<stop  offset="0" style="stop-color:#1A1A1A"/>
	<stop  offset="0.102" style="stop-color:#393939;stop-opacity:0.949"/>
	<stop  offset="0.3475" style="stop-color:#7F7F7F;stop-opacity:0.8262"/>
	<stop  offset="0.5688" style="stop-color:#B6B6B6;stop-opacity:0.7156"/>
	<stop  offset="0.7582" style="stop-color:#DEDEDE;stop-opacity:0.6209"/>
	<stop  offset="0.9081" style="stop-color:#F6F6F6;stop-opacity:0.5459"/>
	<stop  offset="1" style="stop-color:#FFFFFF;stop-opacity:0.5"/>
</linearGradient>
<circle class="st4" cx="32" cy="32" r="30"/>
</svg>
