<?xml version="1.0" encoding="utf-8"?>
<!-- Generator: Adobe Illustrator 24.1.2, SVG Export Plug-In . SVG Version: 6.00 Build 0)  -->
<svg version="1.1" id="Layer_1" xmlns="http://www.w3.org/2000/svg" xmlns:xlink="http://www.w3.org/1999/xlink" x="0px" y="0px"
	 width="64px" height="64px" viewBox="0 0 64 64" style="enable-background:new 0 0 64 64;" xml:space="preserve">
<style type="text/css">
	.st0{fill:#FFFFFF;}
	.st1{fill:#003893;}
	.st2{fill:#A24300;}
	.st3{fill:#00B500;}
	.st4{fill:#9D9D9D;}
	.st5{fill:#FF0000;}
	.st6{fill:#F7D917;}
	.st7{fill:#FCFCFC;}
	.st8{opacity:0.1;fill:url(#SVGID_1_);}
</style>
<path class="st0" d="M31.43,3.14c5.36,0,7.14,3.98,14.29,3.98c0.82,0,1.54-0.22,2.22-0.54C43.32,3.68,37.86,2,32,2
	C26.48,2,27.86,3.14,31.43,3.14z"/>
<path class="st0" d="M45.72,52.05c-7.14,0-8.93-3.98-14.29-3.98c-3.57,0-5.36,3.98-8.93,3.98c-7.14,0-8.93-3.98-14.29-3.98
	c-0.5,0-0.96,0.08-1.4,0.22c1.16,1.79,2.5,3.45,4,4.95c3.57,0.96,5.83,3.64,11.68,3.64c3.57,0,5.36-3.98,8.93-3.98
	c5.36,0,7.14,3.98,14.29,3.98c3.11,0,4.87-3.02,7.63-3.8c1.41-1.43,2.68-3,3.78-4.69c-0.75-0.19-1.56-0.32-2.48-0.32
	C51.07,48.07,49.29,52.05,45.72,52.05z"/>
<path class="st0" d="M45.72,32.15c-7.14,0-8.93-3.98-14.29-3.98c-3.57,0-6.06,1.96-9.63,1.96c-7.14,0-8.23-1.96-13.58-1.96
	c-2.54,0-4.18,2.01-6.2,3.17C2.01,31.56,2,31.78,2,32c0,1.36,0.1,2.7,0.28,4.02c1.9-1.18,3.51-3.02,5.94-3.02
	c5.36,0,7.14,3.98,14.29,3.98c3.57,0,5.36-3.98,8.93-3.98c5.36,0,7.14,3.98,14.29,3.98c3.57,0,5.36-3.98,8.93-3.98
	c2.98,0,4.86,1.23,7.17,2.33C61.93,34.23,62,33.12,62,32c0-0.48-0.01-0.96-0.04-1.43c-2.38-1.11-4.27-2.4-7.32-2.4
	C51.07,28.17,49.29,32.15,45.72,32.15z"/>
<path class="st0" d="M45.72,22.2c-7.14,0-8.93-3.98-14.29-3.98c-3.57,0-5.36,3.98-8.93,3.98c-7.14,0-8.93-3.98-14.29-3.98
	c-1.35,0-2.45,0.57-3.48,1.28c-0.92,2-1.63,4.12-2.09,6.33c1.75-1.17,3.3-2.79,5.58-2.79c5.36,0,7.14,3.98,14.29,3.98
	c3.57,0,5.36-3.98,8.93-3.98c5.36,0,7.14,3.98,14.29,3.98c3.57,0,5.36-3.98,8.93-3.98c2.71,0,4.51,1.02,6.54,2.02
	c-0.48-2.02-1.16-3.96-2.02-5.8c-1.33-0.6-2.72-1.05-4.52-1.05C51.07,18.22,49.29,22.2,45.72,22.2z"/>
<path class="st0" d="M25.19,61.21C27.38,61.72,29.66,62,32,62c2.75,0,5.41-0.38,7.94-1.07c-2.99-1.18-4.98-2.91-8.51-2.91
	C28.87,58.02,27.23,60.06,25.19,61.21z"/>
<path class="st0" d="M31.43,8.27c-3.57,0-3.57,4.83,0,4.83c5.36,0,7.14,3.98,14.29,3.98c3.57,0,5.36-3.98,8.93-3.98
	c0.23,0,0.45,0.02,0.67,0.03c-1.13-1.39-2.38-2.68-3.74-3.85c-1.87,1.18-3.46,2.97-5.86,2.97C38.57,12.25,36.79,8.27,31.43,8.27z"/>
<path class="st0" d="M45.72,42.1c-7.14,0-8.93-3.98-14.29-3.98c-3.57,0-5.36,3.98-8.93,3.98c-7.14,0-8.93-3.98-14.29-3.98
	c-2.02,0-3.47,1.27-4.99,2.38c0.38,1.31,0.86,2.57,1.41,3.8c1.06-0.74,2.18-1.35,3.58-1.35c5.36,0,7.14,3.98,14.29,3.98
	c3.57,0,5.36-3.98,8.93-3.98c5.36,0,7.14,3.98,14.29,3.98c3.57,0,5.36-3.98,8.93-3.98c1.92,0,3.38,0.52,4.8,1.17
	c0.58-1.32,1.08-2.7,1.47-4.11c-1.93-0.96-3.68-1.89-6.27-1.89C51.07,38.12,49.29,42.1,45.72,42.1z"/>
<path class="st1" d="M31.43,52.9c-3.57,0-5.36,3.98-8.93,3.98c-5.85,0-8.11-2.67-11.68-3.64c3.89,3.88,8.84,6.69,14.38,7.97
	c2.04-1.16,3.68-3.19,6.24-3.19c3.54,0,5.52,1.73,8.51,2.91c5.15-1.41,9.75-4.16,13.4-7.85c-2.76,0.78-4.52,3.8-7.63,3.8
	C38.57,56.88,36.79,52.9,31.43,52.9z"/>
<path class="st1" d="M45.72,46.92c-7.14,0-8.93-3.98-14.29-3.98c-3.57,0-5.36,3.98-8.93,3.98c-7.14,0-8.93-3.98-14.29-3.98
	c-1.39,0-2.52,0.61-3.58,1.35c0.63,1.39,1.35,2.73,2.18,3.99c0.44-0.13,0.9-0.22,1.4-0.22c5.36,0,7.14,3.98,14.29,3.98
	c3.57,0,5.36-3.98,8.93-3.98c5.36,0,7.14,3.98,14.29,3.98c3.57,0,5.36-3.98,8.93-3.98c0.92,0,1.73,0.12,2.48,0.32
	c0.88-1.35,1.66-2.78,2.32-4.27c-1.42-0.66-2.88-1.17-4.8-1.17C51.07,42.94,49.29,46.92,45.72,46.92z"/>
<path class="st1" d="M45.72,36.97c-7.14,0-8.93-3.98-14.29-3.98c-3.57,0-5.36,3.98-8.93,3.98c-7.14,0-8.93-3.98-14.29-3.98
	c-2.43,0-4.04,1.84-5.94,3.02c0.21,1.53,0.52,3.03,0.95,4.48c1.52-1.11,2.97-2.38,4.99-2.38c5.36,0,7.14,3.98,14.29,3.98
	c3.57,0,5.36-3.98,8.93-3.98c5.36,0,7.14,3.98,14.29,3.98c3.57,0,5.36-3.98,8.93-3.98c2.59,0,4.34,0.93,6.27,1.89
	c0.42-1.52,0.73-3.08,0.9-4.68c-2.31-1.09-4.19-2.33-7.17-2.33C51.07,32.99,49.29,36.97,45.72,36.97z"/>
<path class="st1" d="M45.72,27.02c-7.14,0-8.93-3.98-14.29-3.98c-3.57,0-3.57,5.12,0,5.12c5.36,0,7.14,3.98,14.29,3.98
	c3.57,0,5.36-3.98,8.93-3.98c3.05,0,4.94,1.29,7.32,2.4c-0.09-1.88-0.36-3.72-0.78-5.5c-2.04-1.01-3.83-2.02-6.54-2.02
	C51.07,23.04,49.29,27.02,45.72,27.02z"/>
<path class="st1" d="M45.72,17.07c-7.14,0-8.93-3.98-14.29-3.98c-3.57,0-3.57,5.12,0,5.12c5.36,0,7.14,3.98,14.29,3.98
	c3.57,0,5.36-3.98,8.93-3.98c1.8,0,3.19,0.45,4.52,1.05c-1.04-2.21-2.33-4.27-3.85-6.14c-0.22-0.01-0.44-0.03-0.67-0.03
	C51.07,13.09,49.29,17.07,45.72,17.07z"/>
<path class="st1" d="M45.72,7.12c-7.14,0-8.93-3.98-14.29-3.98c-3.57,0-3.57,5.12,0,5.12c5.36,0,7.14,3.98,14.29,3.98
	c2.4,0,3.99-1.79,5.86-2.97c-1.14-0.99-2.36-1.89-3.64-2.69C47.26,6.91,46.53,7.12,45.72,7.12z"/>
<path class="st2" d="M45.98,25.37l-0.29,27.54c0,1.45,1.31,1.45,1.45,0l-0.29-27.54H45.98z"/>
<path class="st3" d="M53.86,31.99l1.1-0.19l-2.09-0.35l1.1-0.19l-2.09-0.35l1.1-0.19l-2.43-0.53l1.1-0.19l-2.43-0.53l1.1-0.19
	l-2.43-0.54l-0.31-0.07l2.35-0.29l-1.02-0.3l2.42-0.3l-1.02-0.3l2.42-0.3l-1.02-0.3l2.07-0.15l-1.02-0.3l2.07-0.15l-1.02-0.3
	l1.91-0.45l-1.37-0.15l1.24-0.91l-1.56,0.3l0.73-1.06l-1.59,1.06l0.38-0.91l-1.43,1.36l0.38-0.91l-1.43,1.36l0.38-0.91l-1.78,1.51
	l0.38-0.91l-1.78,1.51l0.16-0.38l1.71-1.27l-1.2,0.39l2.08-1.54l-1.2,0.39l2.09-1.54l-1.2,0.39l2.08-1.2l-1.42,0.34l2.25-1.17
	l-1.37,0.36l1.65-1.31l-1.42,0.68l0.88-1.15l-1.5,1l-0.25-1.08l-0.88,1.49l-0.16-0.72l-0.72,1.53l-0.1-0.7l-0.56,1.56l-0.32-0.75
	l-0.56,1.9l-0.32-0.75l-0.46,1.56l-0.19,0.13l-0.12-0.29l0.5-1.38l-0.73,0.5L47.66,22l-0.73,0.5l0.47-1.58l-0.51,0.55l0.31-1.62
	l-0.57,0.54l0.15-1.66l-0.86,0.81L45.25,18l0.06,1.37l-0.8-1.22l0.61,1.85l-0.95-0.91l1.21,2l-1.01-0.93l1.05,1.96l-0.79-0.88
	l0.84,2.25l-0.79-0.88l0.84,2.25L44.74,24l0.75,2.01l-0.62-0.8l0.12,0.92l-1.36-1.74l0.12,0.92l-1.36-1.74l0.12,0.92l-1.05-1.54
	l0.12,0.92l-1.05-1.54l0.12,0.92l-1.3-1.28l0.43,1.13l-1.49-0.57l0.99,1.08l-1.43-0.11l1.8,0.77l-1.12,0.1l2.05,0.52l-1.12,0.1
	l2.05,0.52l-1.12,0.1l2.36,0.72l-1.12,0.1l0.34,0.1l0.56,0.73l-2.01-0.68l0.59,0.78l-1.67-0.62l0.59,0.78l-1.67-0.62l0.59,0.78
	l-1.71-0.29l0.98,0.5l-1.96,1.35l1.86-0.7l-0.88,1.2l1.56-1.08l-0.83,0.87l1.91-1.03l-0.83,0.87l1.86-0.7l-0.78,0.54l2.2-0.64
	l-0.78,0.54l2.15-0.31l-0.16,0.31l-0.64,0.27l0.49,0.02l-0.01,0.02l0.05-0.02l0.41,0.02l-1.93,0.81l0.93,0.04l-1.93,0.81l0.93,0.04
	l-1.68,0.59l0.93,0.04l-1.68,0.6l0.93,0.04l-1.46,0.83l1.18-0.17l-0.78,1.08l1.21-0.62l-0.31,1.1l1.02-1.3l-0.06,0.89l0.8-1.53
	l-0.06,0.89l0.8-1.53l-0.06,0.89l1.05-1.74l-0.06,0.89l1.05-1.74l-0.06,0.89L45,30.7l0.04,0.35l0.37-0.74l0.21,1.83l0.37-0.74
	l0.21,1.83l0.37-0.74l0.07,1.56l0.37-0.74l0.07,1.56l0.37-0.74l0.4,1.46l0.22-1.01l0.91,1l-0.25-1.19l1.1,0.63l-1.06-1.27l0.95,0.36
	l-1.39-1.18l0.95,0.36l-1.39-1.18l0.95,0.36l-1.53-1.45l0.95,0.36l-1.53-1.45l0.59,0.22l1.24,1.31l-0.22-0.91l1.54,1.63l-0.22-0.91
	l1.54,1.63L50.99,32l1.21,1.45l-0.22-0.91l1.21,1.45l-0.22-0.91l1.43,1.17l-0.55-1.09l1.54,0.45l-1.1-0.99l1.43-0.01L53.86,31.99z
	 M42.1,26.57l1.43,0.44l0.13,0.17l-0.32,0.03L42.1,26.57z"/>
<polygon class="st4" points="43.12,44.71 46.5,44.1 50.02,44.71 48.39,45.39 45.38,45.44 "/>
<path class="st5" d="M46.53,39.25c-0.59,0.2-1.24-0.29-2.31,0.52c0,0-1.86-0.79-2,1.04c0,0.07,0.62,3.08,0.73,3.11
	c0.11,0.03,1.5,0.06,3.47,0.02c1.96-0.03,2.62,0.28,3.43-0.02c0.78-0.28,0.91-2.64,0.79-3.11c-0.06-0.23-0.28-1.25-1.68-1.05
	C48.96,39.77,47.1,39.05,46.53,39.25z"/>
<path class="st6" d="M51.1,39.93c0.03-0.3-0.08-0.76-0.31-1c-0.22-0.23-0.53-0.51-0.78-0.67c-0.25-0.16-2.55,0.11-2.87,0.12v-0.17
	h-0.38c0.22-0.1,0.38-0.32,0.38-0.58v0c0-0.29-0.19-0.53-0.46-0.61c-0.01-0.04-0.12-0.43-0.12-0.43l0.58,0.43v-0.98l-0.58,0.43
	l0.42-0.58h-0.98l0.42,0.58l-0.58-0.43v0.98l0.58-0.43c0,0-0.12,0.39-0.14,0.43c-0.25,0.08-0.44,0.32-0.44,0.6v0
	c0,0.26,0.16,0.48,0.38,0.58h-0.38v0.17c-0.35-0.01-2.7-0.29-2.95-0.12c-0.25,0.16-0.55,0.44-0.78,0.67c-0.22,0.23-0.33,0.69-0.3,1
	c0.03,0.3,0.37,1.49,0.37,1.49l0.39,3.21c0,0,1.96-0.67,3.92-0.67c1.96,0,3.92,0.67,3.92,0.67l0.38-3.21
	C50.81,41.42,51.08,40.23,51.1,39.93z M42.51,42.56l1.08,0.53l-0.29-1.61l-0.83,0.87c0,0,0.07-0.31,0.2-0.58
	c0.13-0.27-0.63-1.94-0.55-2.21c0.08-0.28,0.25-0.58,0.69-0.95c0.44-0.37,2.72,0.03,3.04,0.05v2.1h-0.17l0.71,0.97l-0.97-0.71v1.63
	l0.97-0.71c0,0-0.52,0.79-0.6,0.87c-0.33,0.02-0.65,0.06-0.96,0.11c-0.05-0.03-0.55-0.92-0.05-0.97c0.25-0.02,0.39,0.3,0.41,0.32h0
	v0v0c0-0.05-0.13-0.86-0.39-0.84c-0.2,0.02-0.32,0.28-0.37,0.41c0.02-0.08,0.05-0.24,0.06-0.39c0.01-0.27-0.27-1.04-0.36-1.03l0,0
	c-0.09,0.03-0.18,0.82-0.1,1.07c0.05,0.18,0.12,0.29,0.16,0.37c-0.08-0.12-0.26-0.35-0.46-0.33c-0.25,0.02-0.19,0.84-0.17,0.89v0
	l0,0l0,0c0.01-0.02,0.07-0.36,0.32-0.39c0.54-0.05,0.15,1,0.06,1.05c-0.29,0.06-0.55,0.13-0.76,0.19
	C43.1,43.21,42.51,42.56,42.51,42.56z M50.33,41.77c0.13,0.27,0.2,0.58,0.2,0.58l-0.83-0.87l-0.28,1.61l1.08-0.53
	c0,0-0.59,0.65-0.68,0.71c-0.24-0.07-0.55-0.14-0.89-0.21c-0.04-0.04-0.39-1.02,0.15-0.96c0.25,0.03,0.32,0.38,0.33,0.4h0v0l0,0
	c0.01-0.05,0.05-0.87-0.2-0.9c-0.2-0.02-0.37,0.2-0.44,0.32c0.04-0.07,0.1-0.22,0.14-0.36c0.07-0.26-0.04-1.07-0.14-1.08h0
	c-0.1,0.01-0.35,0.76-0.32,1.02c0.02,0.18,0.06,0.31,0.08,0.39c-0.05-0.13-0.18-0.4-0.38-0.42c-0.25-0.03-0.36,0.78-0.35,0.83v0l0,0
	l0,0c0.01-0.02,0.14-0.34,0.39-0.31c0.5,0.06,0.05,0.91,0.03,0.93c-0.32-0.05-0.65-0.09-1-0.12c-0.08-0.08-0.6-0.87-0.6-0.87
	l0.97,0.71v-1.63l-0.97,0.71l0.71-0.97h-0.17v-2.11c0.31-0.02,2.51-0.41,2.96-0.04c0.44,0.37,0.61,0.67,0.69,0.95
	C50.88,39.83,50.2,41.5,50.33,41.77z"/>
<path class="st0" d="M46.89,41.77c0,0.21-0.17,0.39-0.38,0.39c-0.21,0-0.39-0.17-0.39-0.39c0-0.21,0.17-0.38,0.39-0.38
	C46.71,41.38,46.89,41.56,46.89,41.77z"/>
<path class="st0" d="M42.86,42.47c0,0.21-0.17,0.38-0.39,0.38c-0.21,0-0.39-0.17-0.39-0.38c0-0.21,0.17-0.39,0.39-0.39
	C42.69,42.08,42.86,42.25,42.86,42.47z"/>
<path class="st0" d="M50.9,42.47c0,0.21-0.17,0.38-0.39,0.38c-0.21,0-0.39-0.17-0.39-0.38c0-0.21,0.17-0.39,0.39-0.39
	C50.72,42.08,50.9,42.25,50.9,42.47z"/>
<rect x="45.94" y="43.08" class="st1" width="1.19" height="0.52"/>
<path class="st3" d="M47.84,43.46c0,0.16,0.25,0.3,0.54,0.34c0.29,0.03,0.53-0.07,0.53-0.23c0-0.16-0.25-0.31-0.54-0.34
	C48.07,43.21,47.84,43.31,47.84,43.46z"/>
<polygon class="st5" points="42.59,43.73 42.29,44.03 42.64,44.23 43.44,44.02 43.3,43.56 "/>
<polygon class="st5" points="50.49,43.73 50.79,44.03 50.44,44.23 49.64,44.02 49.78,43.56 "/>
<path class="st3" d="M45.24,43.46c0,0.16-0.25,0.3-0.54,0.34c-0.3,0.03-0.53-0.07-0.53-0.23c0-0.16,0.25-0.31,0.54-0.34
	C45.01,43.21,45.24,43.31,45.24,43.46z"/>
<path class="st0" d="M49.5,45.49c0.11-0.02,0.79-0.18,0.93-0.27c-0.09-0.17-0.26-0.29-0.13-0.24c0.07,0.03,0.12-0.2-0.08-0.37
	c-0.58,0.19-1.98,0.54-3.73,0.54c-1.79,0-3.21-0.37-3.79-0.56c-0.2,0.17-0.14,0.37-0.15,0.45c0,0,0,0.09,0.04,0.17
	c0.2,0.21,0.84,0.32,0.95,0.34c0.53,0.09,1.05,0.23,2.95,0.23C48.25,45.78,48.97,45.59,49.5,45.49z"/>
<path class="st0" d="M43.48,44.29c-0.11,0.02-0.82,0.27-0.97,0.36v0c0.01,0.07-0.12,0.42,0.08,0.59c0.58-0.19,2.22-0.76,3.97-0.76
	c1.79,0,3.28,0.57,3.86,0.76c0.2-0.17,0.06-0.52,0.08-0.59v0c-0.14-0.09-0.85-0.34-0.97-0.36c-0.53-0.09-1.07-0.43-2.97-0.43
	C44.8,43.86,44.01,44.2,43.48,44.29z"/>
<polygon class="st1" points="32,14 11,11 14,32 26,32 32,24.5 "/>
<polygon class="st7" points="18.91,8.14 11.6,14 26,32 32,32 32,24.5 "/>
<path class="st7" d="M5.01,18.91C3.09,22.87,2,27.3,2,32h12V13.91h-3L5.01,18.91z"/>
<polygon class="st5" points="32,27.06 19,11 13,11 30,32 32,32 "/>
<path class="st7" d="M18.91,5.01L11,11v3h21V2C27.31,2,22.87,3.09,18.91,5.01z"/>
<path class="st5" d="M32,5H18.91C12.86,7.94,7.94,12.86,5,18.91V32h6V11h21V5z"/>
<linearGradient id="SVGID_1_" gradientUnits="userSpaceOnUse" x1="32.0009" y1="62" x2="32.0009" y2="2">
	<stop  offset="0" style="stop-color:#1A1A1A"/>
	<stop  offset="0.102" style="stop-color:#393939;stop-opacity:0.949"/>
	<stop  offset="0.3475" style="stop-color:#7F7F7F;stop-opacity:0.8262"/>
	<stop  offset="0.5688" style="stop-color:#B6B6B6;stop-opacity:0.7156"/>
	<stop  offset="0.7582" style="stop-color:#DEDEDE;stop-opacity:0.6209"/>
	<stop  offset="0.9081" style="stop-color:#F6F6F6;stop-opacity:0.5459"/>
	<stop  offset="1" style="stop-color:#FFFFFF;stop-opacity:0.5"/>
</linearGradient>
<circle class="st8" cx="32" cy="32" r="30"/>
</svg>
