<?xml version="1.0" encoding="utf-8"?>
<!-- Generator: Adobe Illustrator 24.1.2, SVG Export Plug-In . SVG Version: 6.00 Build 0)  -->
<svg version="1.1" id="Layer_1" xmlns="http://www.w3.org/2000/svg" xmlns:xlink="http://www.w3.org/1999/xlink" x="0px" y="0px"
	 width="64px" height="64px" viewBox="0 0 64 64" style="enable-background:new 0 0 64 64;" xml:space="preserve">
<style type="text/css">
	.st0{fill:#003893;}
	.st1{fill:#FCFCFC;}
	.st2{fill:#FF0000;}
	.st3{opacity:0.1;fill:url(#SVGID_1_);}
</style>
<path class="st0" d="M32,2C32,2,6.53,8,2,32c0,17.2,14.48,31.02,31.91,29.94c14.94-0.93,27.1-13.09,28.03-28.03
	C63.02,16.48,49.2,2,32,2z"/>
<path class="st1" d="M32,2c-4.69,0-9.13,1.09-13.09,3.01L11,11l-5.99,7.91C3.09,22.87,2,27.3,2,32h12V17l12,15h6v-7.5L23.6,14H32V2z
	"/>
<polygon class="st2" points="15.43,14 30,32 32,32 32,27.06 21.43,14 "/>
<path class="st2" d="M18.91,5C12.86,7.94,7.94,12.86,5,18.91V32h6V11h21V5H18.91z"/>
<polygon class="st1" points="8,40.29 5.77,43 6.46,39.52 3,39.43 6.08,37.81 3.99,34.98 7.15,36.44 8,33 8.85,36.44 12.01,34.98 
	9.92,37.81 13,39.43 9.54,39.52 10.23,43 "/>
<polygon class="st1" points="52,23.83 50.22,26 50.77,23.22 48,23.14 50.46,21.85 48.79,19.58 51.32,20.75 52,18 52.68,20.75 
	55.21,19.58 53.54,21.85 56,23.14 53.23,23.22 53.78,26 "/>
<polygon class="st1" points="52,43.83 50.22,46 50.77,43.22 48,43.14 50.46,41.85 48.79,39.58 51.32,40.75 52,38 52.68,40.75 
	55.21,39.58 53.54,41.85 56,43.14 53.23,43.22 53.78,46 "/>
<polygon class="st1" points="42,29.83 40.22,32 40.77,29.22 38,29.14 40.46,27.85 38.79,25.58 41.32,26.75 42,24 42.68,26.75 
	45.21,25.58 43.54,27.85 46,29.14 43.23,29.22 43.78,32 "/>
<linearGradient id="SVGID_1_" gradientUnits="userSpaceOnUse" x1="32" y1="62" x2="32" y2="2">
	<stop  offset="0" style="stop-color:#1A1A1A"/>
	<stop  offset="0.102" style="stop-color:#393939;stop-opacity:0.949"/>
	<stop  offset="0.3475" style="stop-color:#7F7F7F;stop-opacity:0.8262"/>
	<stop  offset="0.5688" style="stop-color:#B6B6B6;stop-opacity:0.7156"/>
	<stop  offset="0.7582" style="stop-color:#DEDEDE;stop-opacity:0.6209"/>
	<stop  offset="0.9081" style="stop-color:#F6F6F6;stop-opacity:0.5459"/>
	<stop  offset="1" style="stop-color:#FFFFFF;stop-opacity:0.5"/>
</linearGradient>
<circle class="st3" cx="32" cy="32" r="30"/>
</svg>
