<?xml version="1.0" encoding="utf-8"?>
<!-- Generator: Adobe Illustrator 24.1.2, SVG Export Plug-In . SVG Version: 6.00 Build 0)  -->
<svg version="1.1" id="Layer_1" xmlns="http://www.w3.org/2000/svg" xmlns:xlink="http://www.w3.org/1999/xlink" x="0px" y="0px"
	 width="64px" height="64px" viewBox="0 0 64 64" style="enable-background:new 0 0 64 64;" xml:space="preserve">
<style type="text/css">
	.st0{fill:#000080;}
	.st1{fill:#FCFCFC;}
	.st2{fill:#E81C27;}
	.st3{fill:#FFE000;}
	.st4{opacity:0.1;fill:url(#SVGID_1_);}
</style>
<path class="st0" d="M32,62c9.81,0,18.53-4.71,24-12H8C13.47,57.29,22.19,62,32,62z"/>
<path class="st0" d="M32,2C15.43,2,2,15.43,2,32h60C62,15.43,48.57,2,32,2z"/>
<path class="st1" d="M61.4,38c0.39-1.94,0.6-3.94,0.6-6H2c0,2.06,0.21,4.06,0.6,6H61.4z"/>
<path class="st2" d="M4.5,44H59.5c0.83-1.91,1.48-3.91,1.9-6H2.6C3.03,40.09,3.67,42.09,4.5,44z"/>
<path class="st1" d="M4.5,44c0.94,2.14,2.11,4.15,3.5,6h48c1.39-1.85,2.56-3.86,3.5-6H4.5z"/>
<polygon class="st3" points="25,26.06 26.24,27 25.77,25.47 27,24.53 25.47,24.52 25,23 24.53,24.52 23,24.53 24.23,25.47 23.76,27 
	"/>
<polygon class="st3" points="25,56.06 26.24,57 25.77,55.47 27,54.53 25.47,54.52 25,53 24.53,54.52 23,54.53 24.23,55.47 23.76,57 
	"/>
<polygon class="st3" points="38,36.06 39.24,37 38.77,35.47 40,34.53 38.47,34.52 38,33 37.53,34.52 36,34.53 37.23,35.47 36.76,37 
	"/>
<polygon class="st3" points="17,29.06 18.24,30 17.77,28.47 19,27.53 17.47,27.52 17,26 16.53,27.52 15,27.53 16.23,28.47 15.76,30 
	"/>
<polygon class="st3" points="33,29.06 34.24,30 33.77,28.47 35,27.53 33.47,27.52 33,26 32.53,27.52 31,27.53 32.23,28.47 31.76,30 
	"/>
<polygon class="st3" points="11,36.06 12.24,37 11.77,35.47 13,34.53 11.47,34.52 11,33 10.53,34.52 9,34.53 10.23,35.47 9.76,37 
	"/>
<polygon class="st3" points="38,48.06 39.24,49 38.77,47.47 40,46.53 38.47,46.52 38,45 37.53,46.52 36,46.53 37.23,47.47 36.76,49 
	"/>
<polygon class="st3" points="11,48.06 12.24,49 11.77,47.47 13,46.53 11.47,46.52 11,45 10.53,46.52 9,46.53 10.23,47.47 9.76,49 
	"/>
<polygon class="st3" points="32,54.06 33.24,55 32.77,53.47 34,52.53 32.47,52.52 32,51 31.53,52.52 30,52.53 31.23,53.47 30.76,55 
	"/>
<polygon class="st3" points="17,54.06 18.24,55 17.77,53.47 19,52.53 17.47,52.52 17,51 16.53,52.52 15,52.53 16.23,53.47 15.76,55 
	"/>
<linearGradient id="SVGID_1_" gradientUnits="userSpaceOnUse" x1="32" y1="62" x2="32" y2="2">
	<stop  offset="0" style="stop-color:#1A1A1A"/>
	<stop  offset="0.102" style="stop-color:#393939;stop-opacity:0.949"/>
	<stop  offset="0.3475" style="stop-color:#7F7F7F;stop-opacity:0.8262"/>
	<stop  offset="0.5688" style="stop-color:#B6B6B6;stop-opacity:0.7156"/>
	<stop  offset="0.7582" style="stop-color:#DEDEDE;stop-opacity:0.6209"/>
	<stop  offset="0.9081" style="stop-color:#F6F6F6;stop-opacity:0.5459"/>
	<stop  offset="1" style="stop-color:#FFFFFF;stop-opacity:0.5"/>
</linearGradient>
<circle class="st4" cx="32" cy="32" r="30"/>
</svg>
