<?xml version="1.0" encoding="utf-8"?>
<!-- Generator: Adobe Illustrator 24.1.2, SVG Export Plug-In . SVG Version: 6.00 Build 0)  -->
<svg version="1.1" id="Layer_1" xmlns="http://www.w3.org/2000/svg" xmlns:xlink="http://www.w3.org/1999/xlink" x="0px" y="0px"
	 width="64px" height="64px" viewBox="0 0 64 64" style="enable-background:new 0 0 64 64;" xml:space="preserve">
<style type="text/css">
	.st0{fill:#003893;}
	.st1{fill:#FCFCFC;}
	.st2{fill:#FF0000;}
	.st3{fill:#CCCC33;}
	.st4{fill:#FFFFFF;}
	.st5{fill:#00B9FF;}
	.st6{fill:#FF9900;}
	.st7{opacity:0.1;fill:url(#SVGID_1_);}
</style>
<path class="st0" d="M32,2C32,2,6.53,8,2,32c0,17.2,14.48,31.02,31.91,29.94c14.94-0.93,27.1-13.09,28.03-28.03
	C63.02,16.48,49.2,2,32,2z"/>
<path class="st1" d="M32,2c-4.69,0-9.13,1.09-13.09,3.01L11,11l-5.99,7.91C3.09,22.87,2,27.3,2,32h12V17l12,15h6v-7.5L23.6,14H32V2z
	"/>
<polygon class="st2" points="15.43,14 30,32 32,32 32,27.06 21.43,14 "/>
<path class="st2" d="M18.91,5C12.86,7.94,7.94,12.86,5,18.91V32h6V11h21V5H18.91z"/>
<path class="st3" d="M39,31.27c0,9.92,0.79,13.44,3.51,16.17c2.72,2.72,3.74,3.15,4.5,3.57c0.87-0.48,1.88-1.01,4.34-3.47
	c2.43-2.43,3.61-5.94,3.61-16.43c-1.77,0.76-2.65,1.01-4.2,1c-1.15,0.11-2.92-0.62-3.97-1.1c-0.69,0.44-1.69,0.97-3.5,1.02
	C41.21,32.11,40.55,31.78,39,31.27L39,31.27z"/>
<path class="st4" d="M39.48,31.9c0,3.07-0.18,7.25,0.47,9.67c0.65,2.43,0.8,2.79,1.29,3.64l11.41-0.08
	c0.71-1.22,0.74-1.98,1.26-3.93c0.52-1.94,0.65-6.28,0.67-9.51c-1.15,0.58-2.65,0.99-4.11,0.81c-1.17-0.08-2.25-0.34-3.51-1.02
	c-1.09,0.62-1.47,0.91-3.27,0.98C42.29,32.53,41.15,32.63,39.48,31.9L39.48,31.9z"/>
<path class="st5" d="M41.27,45.14c0.81,1.63,4.64,4.75,5.76,5.4c1.28-0.74,4.66-3.82,5.6-5.4H41.27z"/>
<path class="st6" d="M47.25,36.44c0.36,0.81,1.52,1.7,1.84,2.14c-0.4,0.44-0.49,0.39-0.43,1.2c0.7-0.7,0.72-0.78,1.17-0.67
	c0.99,0.94,0.18,2.97-0.64,3.41c-0.82,0.47-0.67-0.02-1.9,0.57c0.56,0.46,1.22-0.07,1.75,0.07c0.29,0.33-0.14,0.93,0.09,1.49
	c0.47-0.04,0.42-0.95,0.52-1.28c0.34-1.21,2.41-2.05,2.52-3.15c0.44-0.2,0.87-0.06,1.4,0.22c-0.26-1.04-1.14-1.02-1.37-1.35
	c-0.56-0.81-1.05-1.74-2.24-1.98c-0.9-0.18-0.84,0.05-1.42-0.32C48.17,36.54,47.07,36.03,47.25,36.44z"/>
<path class="st6" d="M44.35,39.87c0.58-0.68,0.87-2.08,1.13-2.55c0.59,0.14,0.59,0.23,1.32-0.2c-0.98-0.27-1.05-0.24-1.17-0.67
	c0.41-1.28,2.67-1.54,3.46-1.05c0.82,0.47,0.3,0.57,1.42,1.33c0.16-0.69-0.63-0.99-0.75-1.51c0.17-0.4,0.92-0.32,1.34-0.77
	c-0.26-0.38-1.08,0.09-1.43,0.16c-1.28,0.27-3.03-1.08-4.1-0.65c-0.38-0.28-0.46-0.71-0.45-1.29c-0.84,0.71-0.42,1.44-0.61,1.79
	c-0.49,0.85-1.12,1.7-0.79,2.82c0.25,0.85,0.44,0.68,0.36,1.34C44.01,39.05,44.05,40.21,44.35,39.87z"/>
<path class="st6" d="M49.08,40.35c-0.91-0.12-2.31,0.36-2.87,0.4c-0.19-0.56-0.1-0.6-0.86-0.97c0.27,0.94,0.33,0.98,0,1.3
	c-1.36,0.32-2.76-1.38-2.74-2.28c0-0.91,0.36-0.54,0.46-1.85c-0.7,0.22-0.57,1.03-0.97,1.39c-0.44,0.07-0.76-0.59-1.38-0.69
	c-0.2,0.41,0.64,0.83,0.88,1.09c0.91,0.9,0.6,3.03,1.54,3.68c-0.05,0.46-0.39,0.74-0.92,1.03c1.07,0.32,1.51-0.4,1.92-0.43
	c1.02-0.04,2.11,0.04,2.94-0.81c0.63-0.65,0.38-0.71,1.02-0.99C48.52,41.06,49.54,40.42,49.08,40.35L49.08,40.35z"/>
<path class="st4" d="M49.66,37.18c0.1,0,0.19,0.08,0.19,0.18c0,0.1-0.08,0.18-0.19,0.18c-0.1,0-0.19-0.08-0.19-0.18
	C49.47,37.26,49.56,37.18,49.66,37.18z"/>
<path class="st4" d="M43.91,37.49c-0.05-0.09-0.01-0.2,0.08-0.24c0.09-0.05,0.21-0.01,0.25,0.08c0.05,0.09,0.01,0.2-0.08,0.24
	C44.08,37.62,43.96,37.58,43.91,37.49z"/>
<path class="st4" d="M47.17,41.94c-0.05,0.08-0.17,0.11-0.26,0.06c-0.09-0.05-0.12-0.16-0.06-0.25c0.05-0.09,0.17-0.11,0.26-0.06
	C47.2,41.75,47.23,41.86,47.17,41.94z"/>
<linearGradient id="SVGID_1_" gradientUnits="userSpaceOnUse" x1="32" y1="62" x2="32" y2="2">
	<stop  offset="0" style="stop-color:#1A1A1A"/>
	<stop  offset="0.102" style="stop-color:#393939;stop-opacity:0.949"/>
	<stop  offset="0.3475" style="stop-color:#7F7F7F;stop-opacity:0.8262"/>
	<stop  offset="0.5688" style="stop-color:#B6B6B6;stop-opacity:0.7156"/>
	<stop  offset="0.7582" style="stop-color:#DEDEDE;stop-opacity:0.6209"/>
	<stop  offset="0.9081" style="stop-color:#F6F6F6;stop-opacity:0.5459"/>
	<stop  offset="1" style="stop-color:#FFFFFF;stop-opacity:0.5"/>
</linearGradient>
<circle class="st7" cx="32" cy="32" r="30"/>
</svg>
