<?xml version="1.0" encoding="utf-8"?>
<!-- Generator: Adobe Illustrator 15.0.0, SVG Export Plug-In . SVG Version: 6.00 Build 0)  -->
<!DOCTYPE svg PUBLIC "-//W3C//DTD SVG 1.1//EN" "http://www.w3.org/Graphics/SVG/1.1/DTD/svg11.dtd" [
	<!ENTITY ns_flows "http://ns.adobe.com/Flows/1.0/">
	<!ENTITY ns_extend "http://ns.adobe.com/Extensibility/1.0/">
	<!ENTITY ns_ai "http://ns.adobe.com/AdobeIllustrator/10.0/">
	<!ENTITY ns_graphs "http://ns.adobe.com/Graphs/1.0/">
]>
<svg version="1.1" id="Layer_1" xmlns:x="&ns_extend;" xmlns:i="&ns_ai;" xmlns:graph="&ns_graphs;"
	 xmlns="http://www.w3.org/2000/svg" xmlns:xlink="http://www.w3.org/1999/xlink" xmlns:a="http://ns.adobe.com/AdobeSVGViewerExtensions/3.0/"
	 x="0px" y="0px" width="64px" height="64px" viewBox="0 0 64 64" enable-background="new 0 0 64 64" xml:space="preserve">
<circle fill="#E81C27" cx="32" cy="32" r="30"/>
<path fill="#F9DD16" d="M17.193,27.269c0.045,0.045,0.572,0.364,0.581,0.346s1.381-0.334,1.372-0.316
	c-0.01,0.018-0.77,0.92-0.733,0.938c0.035,0.019,0.794,0.926,0.812,0.936c0.018,0.009-1.437-0.12-1.437-0.12l-0.962,0.775
	l-0.215-1.006c0,0-1.209-0.427-1.227-0.436c-0.018-0.009,1.035-0.357,1.035-0.357l0.313-0.82
	C16.733,27.209,17.141,27.286,17.193,27.269L17.193,27.269z"/>
<path fill="#1A1626" d="M16.731,30.098l-0.249-1.162c-1.142-0.403-1.155-0.41-1.168-0.417l-0.087-0.046l0.007-0.098
	c0.008-0.112,0.008-0.114,1.07-0.466l0.333-0.871l0.124,0.023c0.128,0.024,0.333,0.058,0.401,0.06l0.073-0.024l0.064,0.066
	c0.046,0.037,0.361,0.229,0.48,0.292c0.099-0.03,0.279-0.072,0.624-0.152c0.675-0.156,0.721-0.156,0.738-0.156h0.085l0.09,0.146
	l-0.04,0.075c-0.009,0.018-0.009,0.018-0.134,0.169c-0.125,0.152-0.423,0.514-0.545,0.679c0.074,0.083,0.202,0.233,0.439,0.512
	c0.111,0.131,0.235,0.276,0.276,0.323l0.081,0.042l-0.054,0.229h-0.122c-0.07,0-1.011-0.082-1.386-0.115L16.731,30.098z
	 M15.827,28.386c0.251,0.089,0.579,0.205,0.834,0.295l0.079,0.028l0.182,0.85l0.819-0.66l0.06,0.005
	c0.32,0.028,0.765,0.067,1.072,0.092c-0.02-0.022-0.04-0.047-0.063-0.073c-0.175-0.205-0.436-0.513-0.489-0.566
	c-0.028-0.021-0.049-0.053-0.056-0.09c-0.018-0.084-0.021-0.103,0.497-0.736c-0.355,0.08-0.832,0.192-0.922,0.22
	c-0.021,0.01-0.044,0.016-0.068,0.016c-0.097,0-0.463-0.241-0.617-0.345c-0.078-0.002-0.221-0.024-0.326-0.042l-0.295,0.771
	l-0.067,0.022C16.248,28.244,16.015,28.322,15.827,28.386z"/>
<path fill="#F9DD16" d="M43.584,21.594c-0.061,0.016-0.6,0.316-0.588,0.333c0.01,0.017-0.396,1.365-0.406,1.348
	c-0.01-0.017-0.418-1.124-0.451-1.102c-0.033,0.021-1.197,0.229-1.215,0.24c-0.016,0.011,0.816-1.188,0.816-1.188l-0.196-1.219
	l0.98,0.312c0,0,0.97-0.839,0.987-0.85c0.016-0.011-0.203,1.076-0.203,1.076l0.556,0.679C43.864,21.224,43.596,21.54,43.584,21.594
	L43.584,21.594z"/>
<path fill="#1A1626" d="M42.591,23.425h-0.083l-0.044-0.069c-0.011-0.018-0.011-0.018-0.08-0.2c-0.07-0.185-0.237-0.623-0.319-0.811
	c-0.109,0.023-0.303,0.06-0.662,0.127c-0.169,0.032-0.357,0.067-0.418,0.08l-0.116,0.074l-0.076-0.143
	c-0.046-0.085-0.046-0.085,0.415-0.752c0.154-0.223,0.309-0.445,0.375-0.542l-0.225-1.4l1.133,0.36
	c0.915-0.792,0.929-0.8,0.941-0.808l0.036-0.023h0.115l0.045,0.055c0.055,0.067,0.056,0.068-0.159,1.131l0.592,0.721l-0.082,0.095
	c-0.102,0.119-0.222,0.27-0.251,0.319l-0.016,0.076l-0.09,0.023c-0.055,0.021-0.378,0.2-0.491,0.272
	c-0.023,0.101-0.076,0.278-0.178,0.616c-0.197,0.66-0.222,0.704-0.229,0.718l-0.043,0.078L42.591,23.425z M42.14,22.022
	c0.119,0,0.133,0,0.439,0.805c0.107-0.35,0.247-0.823,0.267-0.911c0.001-0.015,0.004-0.03,0.01-0.044
	c0.038-0.1,0.447-0.307,0.617-0.389c0.03-0.049,0.087-0.127,0.197-0.261l-0.523-0.638l0.015-0.07
	c0.046-0.226,0.094-0.467,0.131-0.662c-0.202,0.174-0.466,0.401-0.67,0.578l-0.063,0.055l-0.828-0.263l0.167,1.038l-0.034,0.05
	c-0.183,0.263-0.438,0.631-0.611,0.885c0.029-0.005,0.062-0.012,0.096-0.018c0.258-0.048,0.641-0.121,0.728-0.142l0.02-0.013
	L42.14,22.022z M43.146,21.913c0,0.014-0.002,0.032-0.006,0.055C43.145,21.95,43.146,21.932,43.146,21.913z"/>
<path fill="#F9DD16" d="M35.275,47.238c0.02-0.061,0.054-0.676,0.034-0.676s-0.941-1.063-0.921-1.063
	c0.02,0,1.173,0.249,1.172,0.208c0-0.039,0.447-1.135,0.447-1.154c-0.001-0.02,0.566,1.325,0.566,1.325l1.135,0.487l-0.788,0.66
	c0,0,0.188,1.27,0.188,1.289c0.001,0.02-0.8-0.748-0.8-0.748l-0.872,0.107C35.438,47.674,35.315,47.277,35.275,47.238L35.275,47.238
	z"/>
<path fill="#1A1626" d="M37.105,48.465c-0.074,0-0.092-0.016-0.849-0.74l-0.925,0.113l-0.037-0.12
	c-0.047-0.149-0.109-0.333-0.135-0.383l-0.056-0.054l0.028-0.088c0.012-0.059,0.033-0.427,0.033-0.561
	c-0.074-0.075-0.198-0.219-0.438-0.495c-0.49-0.565-0.49-0.567-0.49-0.638l-0.001-0.15h0.15l0,0c0.021,0,0.021,0,0.212,0.039
	c0.193,0.039,0.652,0.133,0.855,0.164c0.039-0.104,0.111-0.289,0.246-0.629c0.063-0.158,0.135-0.336,0.156-0.395v-0.037l0.087-0.09
	h0.063c0.104,0,0.104,0,0.424,0.754c0.106,0.25,0.212,0.5,0.257,0.607l1.304,0.56l-0.911,0.764c0.179,1.196,0.179,1.214,0.179,1.227
	v0.062l-0.087,0.09H37.11C37.108,48.465,37.106,48.465,37.105,48.465z M36.362,47.409l0.051,0.05
	c0.167,0.159,0.345,0.328,0.489,0.465c-0.039-0.266-0.09-0.608-0.13-0.875l-0.013-0.084l0.666-0.559l-0.967-0.414l-0.023-0.056
	c-0.124-0.296-0.299-0.707-0.42-0.991c-0.011,0.028-0.022,0.059-0.035,0.09c-0.101,0.252-0.25,0.627-0.272,0.698
	c-0.005,0.03-0.02,0.059-0.041,0.081c-0.047,0.047-0.105,0.047-0.125,0.047c-0.087,0-0.357-0.049-0.77-0.132
	c0.238,0.278,0.563,0.65,0.627,0.714c0.013,0.008,0.023,0.02,0.032,0.031c0.063,0.087,0.019,0.542-0.003,0.729
	c0.025,0.052,0.061,0.142,0.114,0.307L36.362,47.409z"/>
<path fill="#FFFFFF" d="M34.894,29.241c0.003-0.848-1.667-4.685-1.942-5.275c-0.512-0.64-1.053-1.654-1.285-2.529
	c-0.15-0.884-0.623-1.577-1.289-1.812c-0.77-0.408-1.521-0.248-2.244-0.185c-0.354,0.075-0.657,0.267-0.828,0.549
	c-0.391,0.558-0.604,0.516-0.873,0.756c-2.223,0.346-4.324,1.493-5.924,2.275c-0.847,0.588-1.565,0.929-1.898,1.001
	c-0.902,0.003-1.559-0.424-1.873-0.652c-1.022-0.93-2.045-1.859-3.066-2.789c-0.887-0.662-1.105,0.293-0.936,0.439
	c0.295,0.636-0.346,1.023,2.088,3.314c0.307,0.631,0.613,1.262,0.92,1.893c0,0-0.051,0.518-0.008,0.54
	c0.444,1.058,1.15,0.794,1.482,0.498c0.241-0.219,0.482-0.438,0.723-0.658c0,0,1.432-0.453,1.455-0.496
	c1.535,0.229,5.492-0.525,6.145-0.835c0.588-0.329,0.626-0.05,1.135-0.465c0.427-0.282,0.192-0.058,0.979-0.776
	c0.242-0.208,0.435,0.129,0.479,0.365c0.044,2.234,0.317,3.661,0.521,5.889L32,32L34.894,29.241z"/>
<path fill="#1A1626" d="M32.026,32.182l-3.515-1.801l-0.008-0.082c-0.068-0.743-0.144-1.393-0.217-2.021
	c-0.142-1.222-0.275-2.376-0.305-3.865c-0.035-0.165-0.132-0.296-0.179-0.296c-0.012,0-0.032,0.011-0.053,0.029
	c-0.58,0.529-0.611,0.554-0.776,0.652c-0.048,0.028-0.11,0.065-0.211,0.132c-0.305,0.247-0.469,0.271-0.643,0.298
	c-0.129,0.02-0.264,0.04-0.508,0.177l-0.01,0.005c-0.591,0.28-3.703,0.892-5.512,0.892c-0.26,0-0.486-0.013-0.675-0.038
	c-0.143,0.066-0.491,0.187-1.4,0.474c-0.233,0.212-0.466,0.424-0.699,0.636c-0.103,0.092-0.376,0.302-0.727,0.302
	c-0.285,0-0.684-0.142-0.978-0.813c-0.047-0.051-0.065-0.172-0.024-0.609l-0.89-1.83c-1.865-1.761-1.947-2.441-2.007-2.939
	c-0.018-0.143-0.031-0.257-0.085-0.381c-0.104-0.123-0.091-0.341-0.03-0.504c0.093-0.251,0.296-0.401,0.544-0.401
	c0.191,0,0.406,0.087,0.638,0.261l0.012,0.009l3.061,2.783c0.219,0.159,0.86,0.617,1.762,0.619c0.313-0.073,1.011-0.406,1.83-0.974
	l0.02-0.012c0.188-0.092,0.384-0.189,0.586-0.29c1.503-0.747,3.37-1.676,5.338-1.992c0.088-0.073,0.171-0.121,0.25-0.167
	c0.167-0.097,0.324-0.189,0.565-0.533c0.184-0.304,0.513-0.523,0.921-0.609l0.018-0.003c0.102-0.009,0.204-0.02,0.307-0.03
	c0.253-0.027,0.515-0.055,0.78-0.055c0.473,0,0.864,0.09,1.229,0.282c0.699,0.251,1.213,0.967,1.376,1.917
	c0.215,0.805,0.719,1.796,1.256,2.468l0.019,0.03c0.02,0.042,1.96,4.359,1.957,5.339l-0.001,0.064L32.026,32.182z M28.795,30.189
	l3.178,1.628l2.769-2.639c-0.069-0.897-1.571-4.385-1.919-5.133c-0.557-0.703-1.079-1.733-1.301-2.57l-0.003-0.013
	c-0.146-0.85-0.591-1.484-1.192-1.696l-0.02-0.009c-0.324-0.172-0.674-0.251-1.1-0.251c-0.25,0-0.503,0.026-0.749,0.052
	c-0.101,0.011-0.202,0.021-0.303,0.03c-0.321,0.07-0.578,0.24-0.723,0.479c-0.284,0.406-0.486,0.524-0.665,0.628
	c-0.084,0.049-0.157,0.091-0.236,0.162l-0.033,0.03l-0.043,0.006c-1.938,0.302-3.798,1.228-5.293,1.971
	c-0.199,0.099-0.392,0.195-0.578,0.286c-0.867,0.601-1.6,0.944-1.943,1.018l-0.042,0.003c-0.681,0-1.318-0.223-1.95-0.68
	l-0.013-0.011l-3.062-2.784c-0.315-0.233-0.563-0.263-0.685-0.059c-0.066,0.112-0.065,0.238-0.051,0.274l0.018,0.015l0.014,0.029
	c0.081,0.175,0.1,0.33,0.12,0.493c0.055,0.454,0.129,1.075,1.935,2.775l0.02,0.019l0.952,1.956l-0.005,0.042
	c-0.017,0.173-0.029,0.387-0.022,0.458l0.004,0.009c0.186,0.444,0.428,0.669,0.718,0.669c0.172,0,0.368-0.084,0.526-0.225
	c0.24-0.218,0.48-0.438,0.721-0.657l0.024-0.022l0.032-0.01c0.498-0.158,1.219-0.393,1.388-0.464l0.028-0.053l0.105,0.016
	c0.182,0.027,0.409,0.041,0.676,0.041c1.733,0,4.811-0.596,5.379-0.861c0.29-0.162,0.465-0.188,0.605-0.209
	c0.15-0.023,0.259-0.04,0.503-0.239l0.013-0.009c0.11-0.073,0.178-0.113,0.229-0.144c0.139-0.083,0.153-0.091,0.73-0.618
	c0.081-0.07,0.165-0.104,0.252-0.104c0.271,0,0.434,0.33,0.476,0.552l0.003,0.025c0.028,1.48,0.162,2.631,0.304,3.849
	C28.656,28.85,28.729,29.477,28.795,30.189z"/>
<path fill="#F9DD16" d="M15.568,22.457c0.029,0.027-0.553,1.926-0.553,1.926s-0.539-0.537-0.533-0.545l0.376-1.995L15.568,22.457z"
	/>
<path fill="#1A1626" d="M15.086,24.665l-0.177-0.176c-0.573-0.572-0.615-0.614-0.57-0.703l0.421-2.229l0.906,0.785
	c0.094,0.083,0.104,0.092-0.508,2.083L15.086,24.665z M14.643,23.793c0.061,0.063,0.176,0.18,0.302,0.307
	c0.206-0.676,0.409-1.365,0.462-1.585l-0.449-0.389L14.643,23.793z"/>
<path fill="#F9DD16" d="M29.979,20.347c-0.17,0.387-0.605,0.951-0.611,0.963l-0.414,0.828c-0.183,0.454-0.066,0.635,0.014,0.766
	c0.164,0.291,0.193,0.448,0.315,0.67c0.046,0.277-0.444,0.37-0.451,0.382c-1.022,0.354-1.54-0.626-1.546-0.676
	c-0.139-0.515-0.121-0.6,0.193-0.706c0.358-0.083,0.503-0.086,0.68-0.216c0.337-0.252,0.574-1.014,0.581-1.026
	C28.746,21.32,28.79,20.9,28.79,20.9c0.026-0.203-0.067-0.388,0.036-0.709c0.134-0.31,0.215-0.394,0.533-0.418
	C29.773,19.735,30.096,20.029,29.979,20.347L29.979,20.347z"/>
<path fill="#1A1626" d="M28.398,24.184c-0.775,0-1.205-0.691-1.258-0.865v0c-0.142-0.525-0.153-0.738,0.289-0.887l0.015-0.004
	c0.081-0.019,0.15-0.033,0.213-0.046c0.207-0.043,0.301-0.063,0.413-0.145c0.168-0.126,0.363-0.476,0.521-0.935
	c0.001-0.004,0.002-0.007,0.004-0.01c0.007-0.046,0.028-0.238,0.046-0.408c0.008-0.062,0.002-0.123-0.004-0.194
	c-0.013-0.139-0.028-0.313,0.046-0.545l0.006-0.014c0.151-0.35,0.273-0.479,0.659-0.508c0.027-0.002,0.056-0.004,0.083-0.004
	c0.263,0,0.497,0.11,0.626,0.295c0.102,0.146,0.123,0.318,0.063,0.484c-0.104,0.239-0.308,0.561-0.605,0.965l-0.018,0.023
	L29.09,22.2c-0.149,0.374-0.069,0.506,0.002,0.622l0.005,0.009c0.095,0.167,0.147,0.294,0.194,0.407
	c0.037,0.088,0.071,0.171,0.123,0.265l0.012,0.022l0.004,0.025c0.041,0.239-0.132,0.419-0.513,0.536l-0.037,0.013
	C28.717,24.155,28.555,24.184,28.398,24.184z M27.43,23.24c0.021,0.044,0.335,0.645,0.969,0.645c0.12,0,0.247-0.022,0.376-0.066
	c0.017-0.007,0.033-0.012,0.05-0.017c0.252-0.076,0.304-0.146,0.31-0.185c-0.05-0.094-0.084-0.177-0.12-0.263
	c-0.045-0.109-0.092-0.223-0.178-0.375c-0.087-0.142-0.23-0.378-0.021-0.896l0.005-0.011l0.414-0.828
	c0.001-0.003,0.014-0.024,0.039-0.058c0.285-0.386,0.476-0.688,0.568-0.899c0.023-0.065,0.015-0.136-0.03-0.2
	c-0.08-0.115-0.251-0.181-0.438-0.165c-0.246,0.019-0.289,0.052-0.406,0.322c-0.054,0.17-0.043,0.292-0.031,0.419
	c0.007,0.081,0.015,0.166,0.003,0.256c-0.042,0.396-0.049,0.444-0.061,0.471l-0.003,0.01c-0.105,0.307-0.326,0.854-0.626,1.079
	c-0.166,0.121-0.311,0.151-0.53,0.197c-0.059,0.013-0.124,0.026-0.2,0.043C27.313,22.789,27.31,22.795,27.43,23.24z"/>
<path fill="#FFFFFF" d="M32.943,35.885c0.732,0.427,4.891,0.899,5.539,0.956c0.81-0.123,1.958-0.085,2.833,0.151
	c0.841,0.312,1.677,0.249,2.214-0.211c0.738-0.462,0.975-1.192,1.282-1.85c0.111-0.345,0.098-0.703-0.062-0.992
	c-0.288-0.617-0.145-0.779-0.219-1.134c0.812-2.098,0.869-4.492,0.992-6.268c-0.086-1.027-0.022-1.82,0.082-2.145
	c0.448-0.783,1.147-1.138,1.501-1.296c1.316-0.42,2.633-0.841,3.949-1.262c1.017-0.437,0.299-1.104,0.088-1.03
	c-0.699-0.062-0.714-0.81-3.914,0.151c-0.7-0.049-1.4-0.099-2.1-0.148c0,0-0.423-0.303-0.464-0.277
	c-1.138-0.145-1.263,0.598-1.172,1.035c0.069,0.318,0.139,0.637,0.209,0.955c0,0-0.324,1.467-0.298,1.508
	c-0.966,1.215-2.292,5.02-2.35,5.739c-0.009,0.674-0.27,0.567-0.165,1.216c0.031,0.51-0.046,0.195,0.184,1.236
	c0.06,0.313-0.328,0.312-0.556,0.232c-1.956-1.079-3.329-1.556-5.359-2.493L32,32L32.943,35.885z"/>
<path fill="#1A1626" d="M42.33,37.335c-0.344,0-0.7-0.067-1.061-0.2c-0.511-0.137-1.147-0.213-1.791-0.213
	c-0.35,0-0.686,0.023-0.974,0.067l-0.018,0.003L38.47,36.99c-0.549-0.048-4.827-0.524-5.602-0.977l-0.056-0.031l-0.982-4.051
	l3.317-2.144l0.074,0.035c0.68,0.313,1.281,0.574,1.863,0.826c1.128,0.487,2.192,0.948,3.494,1.666
	c0.063,0.021,0.136,0.032,0.201,0.032c0.09,0,0.132-0.022,0.143-0.035c0.012-0.015,0.007-0.05,0.004-0.063
	c-0.169-0.767-0.174-0.807-0.177-0.999c0-0.056-0.001-0.128-0.009-0.249c-0.062-0.387-0.001-0.542,0.063-0.705
	c0.048-0.122,0.098-0.248,0.101-0.529l0.001-0.01c0.059-0.737,1.383-4.522,2.354-5.784c0.014-0.157,0.084-0.52,0.29-1.451
	c-0.068-0.308-0.135-0.615-0.202-0.923c-0.07-0.335-0.004-0.667,0.177-0.89c0.228-0.279,0.612-0.391,1.14-0.328h0.009
	c0.04,0,0.112,0,0.51,0.282l2.03,0.144c1.091-0.326,1.915-0.485,2.517-0.485c0.524,0,0.805,0.12,1.031,0.216
	c0.132,0.056,0.238,0.102,0.373,0.117c0.206-0.035,0.527,0.197,0.592,0.509c0.038,0.188,0.011,0.543-0.61,0.811l-0.014,0.005
	l-3.941,1.259c-0.646,0.29-1.11,0.688-1.416,1.216c-0.094,0.307-0.154,1.078-0.071,2.072l0.001,0.012l-0.001,0.011
	c-0.015,0.21-0.028,0.429-0.042,0.656c-0.104,1.674-0.234,3.755-0.944,5.616c0.02,0.113,0.021,0.209,0.021,0.301
	c0.001,0.193,0.001,0.375,0.179,0.755c0.171,0.31,0.197,0.704,0.068,1.102l-0.007,0.018c-0.044,0.093-0.086,0.188-0.128,0.284
	c-0.264,0.592-0.536,1.203-1.201,1.623C43.283,37.186,42.838,37.335,42.33,37.335z M39.479,36.622c0.672,0,1.339,0.08,1.876,0.226
	l0.013,0.004c0.329,0.121,0.653,0.184,0.963,0.184c0.439,0,0.82-0.127,1.102-0.367l0.019-0.014c0.593-0.371,0.849-0.944,1.095-1.498
	c0.042-0.094,0.084-0.188,0.127-0.279c0.1-0.315,0.08-0.622-0.054-0.865c-0.21-0.449-0.21-0.683-0.211-0.889
	c-0.001-0.098-0.001-0.183-0.022-0.287l-0.01-0.043l0.017-0.041c0.707-1.828,0.836-3.901,0.939-5.567
	c0.015-0.223,0.027-0.438,0.042-0.646c-0.087-1.051-0.018-1.858,0.09-2.192l0.013-0.029c0.34-0.594,0.854-1.039,1.569-1.358
	l0.016-0.006l3.942-1.259c0.183-0.079,0.473-0.243,0.429-0.469c-0.03-0.157-0.192-0.269-0.247-0.275l-0.021,0.008l-0.032-0.003
	c-0.193-0.017-0.337-0.078-0.488-0.143c-0.211-0.09-0.45-0.192-0.913-0.192c-0.577,0-1.381,0.157-2.457,0.48l-0.026,0.008
	l-2.169-0.153l-0.034-0.024c-0.142-0.101-0.32-0.219-0.385-0.249l-0.011-0.001c-0.426-0.054-0.729,0.02-0.89,0.217
	c-0.185,0.226-0.136,0.545-0.117,0.638c0.069,0.317,0.139,0.635,0.209,0.954l0.007,0.032l-0.007,0.032
	c-0.133,0.6-0.271,1.265-0.293,1.434l0.033,0.051l-0.067,0.084c-0.944,1.189-2.254,4.919-2.317,5.653
	c-0.005,0.333-0.069,0.497-0.121,0.63c-0.056,0.141-0.096,0.244-0.045,0.555l0.001,0.015c0.009,0.132,0.01,0.211,0.01,0.271
	c0.003,0.159,0.003,0.179,0.171,0.942c0.03,0.158-0.02,0.258-0.066,0.314c-0.078,0.095-0.208,0.145-0.374,0.145
	c-0.103,0-0.213-0.019-0.311-0.053l-0.023-0.01c-1.294-0.714-2.356-1.174-3.479-1.66c-0.563-0.243-1.144-0.495-1.796-0.794
	l-2.999,1.938l0.901,3.715c0.812,0.389,4.582,0.833,5.404,0.906C38.776,36.646,39.122,36.622,39.479,36.622z"/>
<path fill="#F9DD16" d="M48.481,22.541c-0.039,0.013-1.392-1.442-1.392-1.442s0.732-0.197,0.738-0.189l1.54,1.324L48.481,22.541z"/>
<path fill="#1A1626" d="M48.48,22.691c-0.082,0-0.115,0-1.5-1.49l-0.17-0.182l0.24-0.065c0.722-0.194,0.753-0.194,0.776-0.194h0.077
	l0.035,0.048l1.725,1.482l-1.157,0.401H48.48z M47.37,21.18c0.481,0.516,0.978,1.037,1.141,1.192l0.562-0.194l-1.286-1.106
	C47.702,21.092,47.543,21.134,47.37,21.18z"/>
<path fill="#F9DD16" d="M43.103,36.075c-0.25-0.34-0.521-0.999-0.528-1.011c-0.001,0-0.511-0.772-0.511-0.772
	c-0.302-0.385-0.517-0.375-0.67-0.371c-0.335-0.003-0.485-0.057-0.738-0.062c-0.263-0.099-0.098-0.57-0.105-0.582
	c0.204-1.063,1.313-1.021,1.358-1.001c0.516,0.138,0.58,0.196,0.516,0.521c-0.108,0.352-0.177,0.479-0.154,0.697
	c0.051,0.417,0.592,1.004,0.6,1.016c0.007,0.012,0.349,0.26,0.349,0.26c0.162,0.124,0.37,0.136,0.596,0.386
	c0.201,0.271,0.233,0.384,0.096,0.671C43.734,36.204,43.319,36.337,43.103,36.075L43.103,36.075z"/>
<path fill="#1A1626" d="M43.39,36.361c-0.158,0-0.301-0.067-0.402-0.19c-0.111-0.15-0.289-0.442-0.538-1.019l-0.011-0.023
	l0.003-0.002c-0.048-0.063-0.121-0.174-0.248-0.366l-0.252-0.381c-0.244-0.31-0.406-0.31-0.493-0.31c-0.016,0-0.031,0-0.046,0h-0.01
	c-0.192-0.001-0.329-0.02-0.449-0.035c-0.099-0.013-0.185-0.023-0.291-0.025l-0.025-0.001L40.603,34
	c-0.227-0.086-0.297-0.325-0.207-0.713l0.007-0.038c0.16-0.833,0.863-1.13,1.416-1.13c0.081,0,0.116,0.008,0.136,0.014
	c0.52,0.139,0.707,0.236,0.617,0.693l-0.004,0.016c-0.024,0.077-0.046,0.145-0.066,0.204c-0.066,0.202-0.097,0.294-0.082,0.433
	c0.025,0.209,0.231,0.553,0.552,0.919c0.002,0.003,0.004,0.005,0.006,0.007c0.036,0.029,0.191,0.144,0.329,0.244
	c0.05,0.037,0.105,0.063,0.171,0.094c0.127,0.059,0.285,0.132,0.448,0.313l0.009,0.012c0.228,0.306,0.278,0.477,0.111,0.824
	C43.912,36.176,43.655,36.361,43.39,36.361z M42.654,34.914h0.006l0.044,0.074c0.001,0.003,0.009,0.018,0.021,0.045
	c0.238,0.551,0.402,0.822,0.499,0.953c0.039,0.047,0.097,0.075,0.166,0.075c0.122,0,0.288-0.093,0.384-0.298
	c0.106-0.223,0.099-0.276-0.076-0.514c-0.12-0.131-0.23-0.182-0.347-0.236c-0.074-0.033-0.151-0.069-0.224-0.125
	c-0.309-0.224-0.358-0.262-0.378-0.289l-0.005-0.005c-0.213-0.244-0.578-0.709-0.623-1.083c-0.021-0.205,0.025-0.346,0.096-0.56
	c0.019-0.056,0.039-0.119,0.062-0.192c0.042-0.214,0.038-0.22-0.407-0.338c-0.012-0.002-0.029-0.002-0.053-0.002
	c-0.158,0-0.954,0.042-1.12,0.878c-0.002,0.018-0.006,0.034-0.01,0.052c-0.06,0.256-0.024,0.336,0.005,0.361
	c0.107,0.004,0.195,0.016,0.289,0.027c0.117,0.016,0.238,0.031,0.412,0.033c0.018-0.001,0.035-0.002,0.054-0.002
	c0.196,0,0.437,0.051,0.733,0.43l0.007,0.01C42.344,34.444,42.563,34.775,42.654,34.914z"/>
<path fill="#FFFFFF" d="M28.164,30.874c-0.736,0.421-3.225,3.786-3.598,4.319c-0.299,0.763-0.906,1.738-1.547,2.378
	c-0.691,0.572-1.055,1.328-0.926,2.022c0.031,0.87,0.546,1.44,0.961,2.035c0.243,0.27,0.561,0.437,0.891,0.443
	c0.679,0.059,0.748,0.264,1.092,0.378c1.41,1.751,3.455,2.998,4.932,3.992c0.932,0.439,1.588,0.892,1.816,1.144
	c0.454,0.78,0.412,1.563,0.371,1.948c-0.293,1.351-0.588,2.7-0.881,4.051c-0.131,1.099,0.807,0.811,0.848,0.591
	c0.402-0.574,1.059-0.213,1.826-3.465c0.393-0.582,0.786-1.163,1.179-1.744c0,0,0.474-0.215,0.472-0.264
	c0.694-0.913,0.113-1.393-0.311-1.532c-0.311-0.099-0.621-0.197-0.932-0.297c0,0-1.108-1.014-1.156-1.011
	c-0.57-1.444-3.201-4.495-3.797-4.905c-0.578-0.345-0.355-0.517-0.97-0.75c-0.457-0.228-0.146-0.138-1.162-0.459
	c-0.302-0.105-0.104-0.44,0.077-0.598c1.912-1.154,3.012-2.105,4.839-3.396L32,32L28.164,30.874z"/>
<path fill="#1A1626" d="M31.718,54.531c-0.171,0-0.323-0.064-0.43-0.184c-0.148-0.168-0.203-0.431-0.162-0.78l0.002-0.015
	l0.881-4.043c0.027-0.269,0.104-1.053-0.346-1.834c-0.22-0.234-0.856-0.673-1.759-1.098l-0.02-0.012
	c-0.174-0.117-0.356-0.238-0.544-0.362c-1.398-0.928-3.137-2.081-4.395-3.626c-0.107-0.041-0.189-0.088-0.27-0.134
	c-0.167-0.096-0.325-0.187-0.744-0.223c-0.354-0.007-0.71-0.183-0.989-0.492l-0.011-0.015c-0.059-0.084-0.12-0.168-0.181-0.252
	c-0.381-0.523-0.775-1.066-0.808-1.853c-0.131-0.731,0.232-1.533,0.974-2.149c0.59-0.591,1.196-1.522,1.51-2.322l0.017-0.031
	c0.315-0.451,2.865-3.917,3.646-4.364l0.055-0.032l4,1.175l0.198,3.943l-0.067,0.049c-0.61,0.43-1.137,0.821-1.646,1.199
	c-0.986,0.732-1.919,1.426-3.191,2.195c-0.111,0.1-0.182,0.236-0.171,0.293c0.001,0.006,0.004,0.023,0.055,0.041
	c0.747,0.236,0.784,0.252,0.952,0.346c0.049,0.027,0.111,0.063,0.221,0.117c0.365,0.141,0.469,0.27,0.579,0.407
	c0.081,0.103,0.166,0.208,0.407,0.352l0.009,0.005c0.608,0.42,3.229,3.463,3.834,4.935c0.131,0.091,0.409,0.332,1.11,0.973
	c0.3,0.097,0.6,0.191,0.899,0.286c0.132,0.044,0.566,0.217,0.7,0.648c0.101,0.322,0.003,0.688-0.29,1.085
	c-0.023,0.065-0.12,0.144-0.516,0.325l-0.417,0.616c-0.24,0.356-0.481,0.713-0.723,1.069c-0.592,2.495-1.141,2.906-1.541,3.207
	c-0.115,0.087-0.208,0.156-0.288,0.265C32.195,54.417,31.938,54.531,31.718,54.531z M31.423,53.609
	c-0.028,0.254,0.002,0.439,0.09,0.539c0.05,0.055,0.118,0.083,0.205,0.083c0.129,0,0.236-0.063,0.26-0.093l0.004-0.022L32,54.09
	c0.111-0.158,0.235-0.252,0.367-0.352c0.366-0.273,0.866-0.649,1.436-3.063l0.007-0.025l0.016-0.023
	c0.246-0.365,0.492-0.729,0.738-1.093l0.464-0.687l0.039-0.018c0.158-0.072,0.349-0.168,0.407-0.209l0.007-0.009
	c0.25-0.329,0.34-0.614,0.268-0.848c-0.092-0.294-0.41-0.42-0.506-0.451c-0.31-0.099-0.62-0.196-0.931-0.296l-0.031-0.011
	l-0.024-0.022c-0.455-0.416-0.966-0.871-1.097-0.971H33.1l-0.038-0.096c-0.558-1.412-3.134-4.412-3.738-4.834
	c-0.284-0.17-0.396-0.309-0.483-0.42c-0.096-0.118-0.164-0.203-0.459-0.316l-0.013-0.006c-0.12-0.059-0.189-0.098-0.241-0.127
	c-0.139-0.078-0.156-0.088-0.899-0.322c-0.19-0.066-0.241-0.197-0.255-0.27c-0.044-0.233,0.154-0.478,0.278-0.585l0.021-0.015
	c1.267-0.765,2.195-1.455,3.18-2.186c0.491-0.365,0.999-0.742,1.583-1.156l-0.179-3.567l-3.669-1.077
	c-0.735,0.506-3.028,3.576-3.486,4.229c-0.33,0.832-0.961,1.8-1.575,2.412l-0.01,0.01c-0.664,0.549-0.99,1.252-0.873,1.879
	l0.002,0.021c0.025,0.701,0.394,1.209,0.751,1.699c0.06,0.083,0.119,0.165,0.178,0.248c0.222,0.244,0.497,0.381,0.775,0.387
	c0.495,0.043,0.698,0.16,0.878,0.262c0.084,0.049,0.157,0.091,0.258,0.124l0.042,0.015l0.027,0.033
	c1.229,1.527,2.962,2.676,4.354,3.599c0.185,0.123,0.364,0.241,0.536,0.357c0.953,0.45,1.617,0.913,1.853,1.174l0.019,0.024
	c0.345,0.592,0.473,1.26,0.392,2.04l-0.002,0.017L31.423,53.609z"/>
<path fill="#F9DD16" d="M31.951,51.003c0.008-0.04,1.944-0.484,1.944-0.484s-0.195,0.733-0.205,0.733l-1.917,0.672L31.951,51.003z"
	/>
<path fill="#1A1626" d="M31.577,52.152l0.227-1.178c0.025-0.123,0.028-0.137,2.059-0.602l0.242-0.057l-0.064,0.24
	c-0.207,0.781-0.224,0.84-0.323,0.845L31.577,52.152z M32.083,51.113l-0.112,0.582l1.601-0.561c0.024-0.083,0.067-0.24,0.114-0.414
	C32.998,50.881,32.3,51.049,32.083,51.113z"/>
<path fill="#F9DD16" d="M22.92,39.577c0.418-0.047,1.125,0.048,1.139,0.048l0.925-0.056c0.483-0.068,0.583-0.26,0.657-0.395
	c0.169-0.288,0.291-0.393,0.422-0.608c0.217-0.179,0.543,0.2,0.557,0.199c0.818,0.708,0.229,1.647,0.188,1.677
	c-0.377,0.378-0.46,0.405-0.708,0.187c-0.251-0.27-0.327-0.393-0.527-0.482c-0.387-0.165-1.165,0.011-1.179,0.011
	c-0.015,0.001-0.4,0.173-0.4,0.173c-0.188,0.078-0.303,0.252-0.631,0.323c-0.336,0.038-0.449,0.011-0.63-0.253
	C22.492,40.061,22.585,39.635,22.92,39.577L22.92,39.577z"/>
<path fill="#1A1626" d="M26.352,40.916c-0.142,0-0.256-0.09-0.353-0.175l-0.01-0.011c-0.057-0.061-0.104-0.113-0.147-0.16
	c-0.141-0.158-0.205-0.23-0.332-0.287c-0.087-0.037-0.224-0.058-0.392-0.058c-0.191,0-0.418,0.025-0.673,0.075
	c-0.006,0-0.011,0.001-0.016,0.002c-0.043,0.018-0.22,0.095-0.377,0.164c-0.058,0.024-0.107,0.061-0.167,0.102
	c-0.113,0.08-0.256,0.18-0.493,0.231l-0.015,0.003c-0.09,0.01-0.156,0.015-0.213,0.015c-0.276,0-0.414-0.122-0.558-0.333
	c-0.161-0.229-0.205-0.511-0.112-0.734c0.071-0.172,0.217-0.289,0.398-0.32c0.092-0.011,0.19-0.016,0.302-0.016
	c0.23,0,0.517,0.02,0.85,0.059l0.02,0.002l0.904-0.055c0.397-0.058,0.472-0.193,0.537-0.313l0.005-0.009
	c0.098-0.165,0.182-0.274,0.255-0.372c0.061-0.078,0.113-0.146,0.168-0.238l0.014-0.021l0.02-0.016
	c0.065-0.055,0.145-0.082,0.229-0.082c0.213,0,0.405,0.176,0.492,0.258l0.029,0.025c0.335,0.289,0.501,0.66,0.481,1.074
	c-0.018,0.387-0.196,0.729-0.286,0.821v0.001C26.691,40.771,26.532,40.916,26.352,40.916L26.352,40.916z M26.203,40.521
	c0.033,0.028,0.11,0.096,0.148,0.096c0.069,0,0.25-0.182,0.348-0.279c0.031-0.049,0.525-0.842-0.172-1.453
	c-0.014-0.011-0.027-0.022-0.04-0.035c-0.129-0.12-0.228-0.182-0.292-0.182c-0.009,0-0.016,0.002-0.022,0.004
	c-0.057,0.092-0.111,0.162-0.169,0.237c-0.072,0.095-0.146,0.192-0.234,0.342c-0.08,0.146-0.213,0.389-0.766,0.467l-0.012,0.001
	l-0.924,0.057c-0.012,0-0.029-0.002-0.058-0.005c-0.469-0.054-0.846-0.069-1.074-0.044c-0.094,0.016-0.142,0.084-0.164,0.138
	c-0.053,0.128-0.021,0.305,0.081,0.45c0.128,0.186,0.187,0.203,0.312,0.203c0.044,0,0.097-0.004,0.171-0.012
	c0.174-0.039,0.272-0.109,0.377-0.184c0.067-0.047,0.137-0.096,0.222-0.131c0.371-0.165,0.41-0.18,0.439-0.184l0.014-0.002
	c0.549-0.105,0.985-0.107,1.242,0.002c0.188,0.084,0.286,0.195,0.436,0.361C26.105,40.414,26.15,40.465,26.203,40.521z"/>
<path fill="#F9DD16" d="M32.924,35.874c-0.355-0.181-0.626-0.217-0.755-0.129c-0.206-1.149-0.386-2.3-0.65-3.446
	c-2.179-0.907-2.64-1.114-3.354-1.425c0.334-0.217,0.5-0.434,0.489-0.589c1.098,0.396,2.185,0.815,3.309,1.159
	c1.876-1.434,2.285-1.729,2.912-2.192c0.021,0.397,0.125,0.65,0.266,0.718c-0.893,0.752-1.799,1.484-2.659,2.286
	C32.784,34.597,32.835,35.1,32.924,35.874L32.924,35.874z"/>
<path fill="#1A1626" d="M33.104,36.135l-0.249-0.127c-0.201-0.102-0.38-0.158-0.505-0.158c-0.062,0-0.089,0.014-0.097,0.02
	L32.063,36l-0.041-0.229c-0.047-0.264-0.094-0.527-0.139-0.791c-0.147-0.845-0.299-1.717-0.493-2.572
	c-1.826-0.76-2.423-1.021-3.001-1.273l-0.54-0.235l0.233-0.152c0.343-0.223,0.426-0.394,0.422-0.453l-0.016-0.229l0.216,0.078
	c0.251,0.09,0.5,0.182,0.75,0.273c0.806,0.295,1.639,0.601,2.479,0.861c1.589-1.214,2.112-1.601,2.619-1.975l0.458-0.338
	l0.014,0.279c0.021,0.408,0.128,0.565,0.182,0.591l0.208,0.101l-0.177,0.149c-0.204,0.172-0.409,0.343-0.614,0.515
	c-0.658,0.55-1.339,1.118-1.983,1.713c0.254,1.953,0.327,2.601,0.398,3.228L33.104,36.135z M32.351,35.549
	c0.113,0,0.247,0.029,0.395,0.083l-0.007-0.058c-0.071-0.635-0.146-1.289-0.406-3.299l-0.01-0.076l0.056-0.053
	c0.667-0.621,1.371-1.209,2.052-1.777c0.161-0.135,0.323-0.27,0.484-0.405c-0.074-0.104-0.129-0.251-0.161-0.436l-0.023,0.017
	c-0.512,0.378-1.041,0.769-2.677,2.019l-0.061,0.047l-0.074-0.022c-0.872-0.267-1.733-0.583-2.567-0.889
	c-0.196-0.072-0.394-0.144-0.59-0.216c-0.053,0.116-0.153,0.237-0.298,0.357l0.046,0.02c0.584,0.255,1.188,0.518,3.067,1.3
	l0.071,0.03l0.018,0.075c0.204,0.887,0.361,1.79,0.513,2.663c0.036,0.208,0.072,0.415,0.109,0.624
	C32.308,35.551,32.328,35.549,32.351,35.549z"/>
<linearGradient id="SVGID_1_" gradientUnits="userSpaceOnUse" x1="32.0005" y1="62" x2="32.0005" y2="2.0005">
	<stop  offset="0" style="stop-color:#1A1A1A"/>
	<stop  offset="0.102" style="stop-color:#393939;stop-opacity:0.949"/>
	<stop  offset="0.3475" style="stop-color:#7F7F7F;stop-opacity:0.8262"/>
	<stop  offset="0.5688" style="stop-color:#B6B6B6;stop-opacity:0.7156"/>
	<stop  offset="0.7582" style="stop-color:#DEDEDE;stop-opacity:0.6209"/>
	<stop  offset="0.9081" style="stop-color:#F6F6F6;stop-opacity:0.5459"/>
	<stop  offset="1" style="stop-color:#FFFFFF;stop-opacity:0.5"/>
	<a:midPointStop  offset="0" style="stop-color:#1A1A1A"/>
	<a:midPointStop  offset="0.4" style="stop-color:#1A1A1A"/>
	<a:midPointStop  offset="1" style="stop-color:#FFFFFF;stop-opacity:0.5"/>
</linearGradient>
<circle opacity="0.1" fill="url(#SVGID_1_)" cx="32" cy="32" r="30"/>
</svg>
