<?xml version="1.0" encoding="utf-8"?>
<!-- Generator: Adobe Illustrator 24.1.2, SVG Export Plug-In . SVG Version: 6.00 Build 0)  -->
<svg version="1.1" id="Layer_1" xmlns="http://www.w3.org/2000/svg" xmlns:xlink="http://www.w3.org/1999/xlink" x="0px" y="0px"
	 width="64px" height="64px" viewBox="0 0 64 64" style="enable-background:new 0 0 64 64;" xml:space="preserve">
<style type="text/css">
	.st0{fill:url(#SVGID_1_);}
	.st1{fill:#FFFFFF;}
</style>
<linearGradient id="SVGID_1_" gradientUnits="userSpaceOnUse" x1="32" y1="2" x2="32" y2="62">
	<stop  offset="0" style="stop-color:#FF9900"/>
	<stop  offset="0.2875" style="stop-color:#FF9500"/>
	<stop  offset="0.5853" style="stop-color:#FF8800"/>
	<stop  offset="0.8868" style="stop-color:#FF7400"/>
	<stop  offset="1" style="stop-color:#FF6A00"/>
</linearGradient>
<circle class="st0" cx="32" cy="32" r="30"/>
<path class="st1" d="M40.26,31.44c1.5-0.53,2.71-1.36,3.6-2.52c0.99-1.3,1.48-2.84,1.48-4.61c0-2.58-0.97-4.61-2.92-6.09
	C40.47,16.74,37.85,16,34.55,16H19.81v32H35c3.48,0,6.21-0.79,8.2-2.36c1.99-1.57,2.99-3.71,2.99-6.4c0-2.07-0.56-3.79-1.68-5.17
	C43.49,32.82,42.06,31.96,40.26,31.44z M26.69,21.39h6.7c1.8,0,3.13,0.31,4,0.92c0.87,0.61,1.3,1.58,1.3,2.9
	c0,1.29-0.43,2.25-1.28,2.88c-0.85,0.63-2.2,0.94-4.02,0.94h-6.7V21.39z M38.3,41.66c-0.85,0.63-2.22,0.94-4.11,0.94h-7.51v-8.18
	h7.51c1.89,0,3.26,0.34,4.11,1.01c0.85,0.67,1.28,1.72,1.28,3.12C39.58,40,39.16,41.03,38.3,41.66z"/>
</svg>
