<?xml version="1.0" encoding="utf-8"?>
<!-- Generator: Adobe Illustrator 24.1.2, SVG Export Plug-In . SVG Version: 6.00 Build 0)  -->
<svg version="1.1" id="Layer_1" xmlns="http://www.w3.org/2000/svg" xmlns:xlink="http://www.w3.org/1999/xlink" x="0px" y="0px"
	 width="64px" height="64px" viewBox="0 0 64 64" style="enable-background:new 0 0 64 64;" xml:space="preserve">
<style type="text/css">
	.st0{fill:#003893;}
	.st1{fill:#FCFCFC;}
	.st2{fill:#FF0000;}
	.st3{fill:#1A1626;}
	.st4{fill:#1B81B6;}
	.st5{fill:#7ED16D;}
	.st6{fill:#6BAAA7;}
	.st7{fill:#D9D9D9;}
	.st8{fill:#FFFFFF;}
	.st9{fill:#94664B;}
	.st10{fill:#815A41;}
	.st11{fill:#288549;}
	.st12{fill:#DECFC3;}
	.st13{fill:#74938E;}
	.st14{fill:#E5C6AB;}
	.st15{fill:#F4E4D7;}
	.st16{fill:#8D4400;}
	.st17{opacity:0.1;fill:url(#SVGID_1_);}
</style>
<path class="st0" d="M32,2C32,2,6.53,8,2,32c0,17.2,14.48,31.02,31.91,29.94c14.94-0.93,27.1-13.09,28.03-28.03
	C63.02,16.48,49.2,2,32,2z"/>
<path class="st1" d="M32,2c-4.69,0-9.13,1.09-13.09,3.01L11,11l-5.99,7.91C3.09,22.87,2,27.3,2,32h12V17l12,15h6v-7.5L23.6,14H32V2z
	"/>
<polygon class="st2" points="15.43,14 30,32 32,32 32,27.06 21.43,14 "/>
<path class="st2" d="M18.91,5C12.86,7.94,7.94,12.86,5,18.91V32h6V11h21V5H18.91z"/>
<path class="st1" d="M49.35,28.14c0.55-1.45,1.83-2.31,2.88-1.92c0.29,0.11,0.53,0.3,0.71,0.55c-0.05-0.88-0.46-1.61-1.15-1.87
	c-1.05-0.39-2.34,0.47-2.88,1.92c-0.4,1.05-0.29,2.13,0.2,2.79C49.09,29.15,49.16,28.64,49.35,28.14z"/>
<path class="st1" d="M41.89,24.89c-1.05-0.39-2.34,0.47-2.88,1.92c-0.24,0.64-0.28,1.27-0.17,1.83c-0.48,0.37-1.13,0.62-1.87,0.67
	c-0.53,0.03-1.04-0.04-1.48-0.2c0.49,0.66,1.49,1.07,2.61,1c1.55-0.1,2.74-1.08,2.67-2.2c-0.03-0.4-0.22-0.76-0.52-1.06
	c0.61-0.62,1.39-0.89,2.07-0.64c0.29,0.11,0.53,0.3,0.71,0.55C42.99,25.87,42.58,25.14,41.89,24.89z"/>
<path class="st1" d="M58.57,27.78c-0.91-1.08-2.16-1.3-2.79-0.5c-0.17,0.22-0.28,0.5-0.33,0.8c-0.27-0.82-0.22-1.65,0.19-2.18
	c0.64-0.8,1.88-0.58,2.79,0.5c0.66,0.78,0.96,1.8,0.83,2.61C59.12,28.58,58.88,28.16,58.57,27.78z"/>
<path class="st1" d="M36.31,27.4c0.5-1.04,0.23-2.06-0.6-2.26c-0.23-0.06-0.47-0.04-0.72,0.02c0.52-0.48,1.16-0.73,1.71-0.6
	c0.83,0.2,1.09,1.21,0.6,2.26c-0.36,0.76-1.02,1.33-1.67,1.5C35.9,28.08,36.14,27.76,36.31,27.4z"/>
<path class="st3" d="M42.41,31.84c0,0,0.05,4.82,0.13,5.26c0.07,0.45,0.34,3.21,4.33,4.87c0,0,3.08-1.31,3.86-3.12
	c0.78-1.81,0.63-5.22,0.63-5.22v-1.86L42.41,31.84"/>
<path class="st1" d="M42.74,32.2c0,0,0.05,4.48,0.12,4.89c0.07,0.41,0.32,2.98,4.02,4.53c0,0,2.86-1.21,3.59-2.9
	c0.73-1.68,0.58-4.85,0.58-4.85v-1.73L42.74,32.2"/>
<polyline class="st4" points="51.09,33.65 49.87,33.28 48.37,33.96 46.85,33.43 45.5,33.96 43.93,33.28 42.74,33.72 42.75,35.27 
	43.94,34.82 45.51,35.51 46.86,34.97 48.38,35.51 49.87,34.82 51.09,35.2 51.09,33.65 "/>
<path class="st4" d="M43.56,39.1c0.14-0.04,1.99,0.61,1.99,0.61l1.35-0.54l1.51,0.54c0,0,1.76-0.67,1.89-0.64
	c0.45,0.1-2.61,2.54-3.39,2.54C46.13,41.61,43.16,39.23,43.56,39.1"/>
<path class="st4" d="M50.72,37.77c-0.23-0.11-0.95-0.25-0.95-0.25l-1.47,0.69l-1.49-0.54l-1.32,0.54l-1.54-0.69
	c0,0-0.77,0.21-1,0.34c-0.1,0.06-0.18-1.18-0.18-1.18l1.17-0.44l1.54,0.69l1.33-0.53l1.49,0.53l1.47-0.69l1.2,0.38
	C50.96,36.61,50.87,37.84,50.72,37.77"/>
<polygon class="st3" points="44.23,28.46 44.84,29.88 48.83,29.88 49.44,28.46 46.84,22.42 "/>
<polygon class="st5" points="44.5,28.34 45.05,29.61 48.63,29.61 49.17,28.34 46.84,22.92 "/>
<path class="st6" d="M46.65,29.25l-3.06,0.9l1.45,1.73l-0.01,1.57l1.52-0.24c0,0,0.72-1.4,0.82-1.42c0.1-0.03,1.44,0.45,1.44,0.45
	l0.31-0.78l1.72-0.6l-2.96-0.71l0.11-0.73L46.65,29.25z"/>
<path class="st7" d="M44.78,34.45c0,0,0.34,0.06,0.34-0.25h0l0.06-0.03l-0.23-0.22c-0.08-0.03,0.02-0.07,0.02-0.17
	c0-0.1,0.04-0.13,0.11-0.05h0.28l0.3-0.13c0.08,0.06,0.37,0.09,0.64,0.08c0.27,0,0.29-0.08,0.21-0.11c-0.08-0.03-0.79-0.27-0.9-0.31
	c-0.11-0.04-0.33,0.01-0.41,0.07c-0.09,0.07-0.28,0.07-0.26,0.02l0.13-0.16l0.32-0.16l-0.26,0.06c-0.11,0.03-0.11-0.04-0.22-0.03
	c-0.12,0.01-0.26,0.17-0.31,0.24l-0.24,0.03c-0.07-0.07-0.3-0.1-0.41-0.07c-0.11,0.04-0.82,0.28-0.9,0.31
	c-0.08,0.03-0.06,0.11,0.21,0.11c0.27,0,0.56-0.02,0.64-0.08l0.3,0.13h0.28c0.07-0.07,0.11-0.04,0.11,0.05c0,0.1,0.1,0.14,0.02,0.17
	l-0.23,0.22l0.06,0.03C44.44,34.51,44.78,34.45,44.78,34.45z"/>
<path class="st7" d="M50.84,33.57c-0.08-0.03-0.79-0.27-0.9-0.31c-0.11-0.04-0.33,0.01-0.41,0.07c-0.09,0.07-0.28,0.07-0.26,0.02
	l0.12-0.16l0.32-0.16l-0.26,0.06c-0.11,0.03-0.11-0.04-0.22-0.03c-0.12,0.01-0.26,0.17-0.31,0.24l-0.24,0.03
	c-0.07-0.07-0.3-0.1-0.41-0.07c-0.11,0.04-0.82,0.28-0.9,0.31c-0.08,0.03-0.05,0.11,0.22,0.11c0.27,0,0.56-0.02,0.64-0.08l0.3,0.13
	h0.28c0.07-0.07,0.11-0.04,0.11,0.05c0,0.1,0.1,0.14,0.02,0.17l-0.23,0.22l0.06,0.03h0c0,0.3,0.34,0.25,0.34,0.25
	s0.34,0.06,0.34-0.25l0.06-0.03l-0.23-0.22c-0.08-0.03,0.02-0.07,0.02-0.17c0-0.1,0.04-0.13,0.11-0.05h0.28l0.3-0.13
	c0.08,0.06,0.37,0.09,0.64,0.08C50.9,33.68,50.92,33.61,50.84,33.57z"/>
<path class="st7" d="M49.23,39.43c-0.1-0.04-1.03-0.36-1.18-0.41c-0.15-0.05-0.43,0.01-0.54,0.08c-0.12,0.09-0.36,0.09-0.34,0.03
	l0.16-0.22l0.42-0.21l-0.35,0.07c-0.15,0.04-0.14-0.05-0.29-0.04c-0.15,0.01-0.35,0.22-0.41,0.32c-0.06,0.1-0.22,0.12-0.31,0.03
	c-0.09-0.09-0.39-0.14-0.54-0.08c-0.15,0.05-1.08,0.37-1.18,0.41c-0.1,0.04-0.07,0.14,0.28,0.15c0.35,0.01,0.73-0.03,0.84-0.11
	c0.11-0.08,0.28,0.08,0.39,0.17c0.11,0.09,0.27,0.1,0.36,0c0.09-0.1,0.14-0.06,0.15,0.07c0.01,0.13,0.13,0.18,0.03,0.22
	c-0.1,0.04-0.35,0.24-0.3,0.29l0.08,0.04v0c0,0.4,0.44,0.33,0.44,0.33s0.44,0.07,0.44-0.33v0l0.08-0.04c0.05-0.05-0.2-0.25-0.3-0.29
	c-0.1-0.04,0.02-0.09,0.03-0.22c0-0.13,0.05-0.17,0.15-0.07c0.09,0.1,0.26,0.09,0.36,0c0.11-0.09,0.28-0.25,0.39-0.17
	c0.11,0.08,0.49,0.11,0.84,0.11C49.3,39.57,49.33,39.47,49.23,39.43z"/>
<path class="st8" d="M48.36,26.96c-0.11,0.04-0.15-0.06-0.15-0.06l-0.07,0.61l0.19-0.03l0.19,0.03l0.1-0.52
	C48.63,27,48.47,26.92,48.36,26.96z"/>
<polygon class="st9" points="45.66,25.78 45.55,25.78 45.66,28.53 45.77,28.52 "/>
<polygon class="st9" points="47.47,25.68 47.37,25.68 47.42,27.85 47.53,27.84 "/>
<polygon class="st9" points="48.18,26.79 47.96,28.08 48.07,28.1 48.28,26.81 "/>
<polygon class="st9" points="46.66,25.44 46.56,25.44 46.66,28.52 46.77,28.52 "/>
<path class="st10" d="M48.39,27.86c-0.83-0.25-1.41,0.08-1.41,0.08s-0.02,0.93,0.89,1.49h0.28c0,0-0.04-0.56,0.34-0.97
	C48.62,28.32,48.36,28.2,48.39,27.86z"/>
<path class="st9" d="M47.37,28.46c0-0.16,0.25-0.57,0.25-0.57c-0.33,0-0.63,0.05-0.63,0.05s-0.11,0.25-0.17,0.4
	c-0.06,0.16-1.23,0.06-1.32,0.03c-0.4-0.14-1.04-0.7-1.04-0.7s0.62,0.72,0.87,0.94c0.33,0.29,0.26,0.63,0.65,0.83h1.9
	C47.46,29.07,47.37,28.62,47.37,28.46z"/>
<path class="st8" d="M47.13,27.02l0.03-0.06l-0.87,0.05c-0.07,0,0.03,0.21,0.14,0.21c0.11,0.01,0.04-0.1,0.11-0.03l0.27-0.02
	c0.07-0.07-0.01-0.04,0.13-0.04l0.1-0.03l0.09,0.07c0.1,0.07,0.05-0.02,0.12,0.04l0.29-0.02c0.07-0.07-0.02-0.04,0.14-0.04
	c0.16,0,0.22-0.17,0.22-0.17L47.13,27.02z"/>
<path class="st8" d="M45.44,26.84c0.11,0.01,0.04-0.09,0.11-0.03l0.26-0.02c0.06-0.07-0.01-0.04,0.13-0.04c0.14,0,0.2-0.17,0.2-0.17
	l-0.84,0.05C45.23,26.64,45.33,26.83,45.44,26.84z"/>
<path class="st8" d="M46.43,26.55c0.12,0.01,0.04-0.1,0.12-0.03l0.29-0.02c0.07-0.08-0.02-0.04,0.14-0.04l0.05-0.01l0.1,0.07
	c0.11,0.01,0.04-0.08,0.11-0.01l0.27-0.02c0.07-0.07-0.01-0.04,0.13-0.04c0.15,0,0.2-0.17,0.2-0.17l-0.66,0.04l0.02-0.04l-0.92,0.05
	C46.21,26.32,46.32,26.54,46.43,26.55z"/>
<path class="st8" d="M45.41,27.54c0.13,0.01,0.05-0.11,0.13-0.04l0.32-0.03c0.08-0.09-0.02-0.05,0.16-0.05c0.18,0,0.24-0.2,0.24-0.2
	l-1.02,0.06C45.16,27.29,45.28,27.53,45.41,27.54z"/>
<path class="st11" d="M43.11,38.29c0.15,0.41,0.37,0.81,0.68,1.2l3.26-3.33l3.05,3.23c0.32-0.42,0.54-0.86,0.68-1.32l-3.75-3.96
	L43.11,38.29z"/>
<path class="st11" d="M43.54,26.94c-0.37-1.06-1.15-1.82-1.95-2.01c0.32,0.34,0.59,0.77,0.76,1.28c0.52,1.46,0.08,2.95-0.98,3.32
	c-0.29,0.1-0.59,0.11-0.9,0.04c0.6,0.64,1.39,0.94,2.08,0.69C43.62,29.88,44.05,28.4,43.54,26.94z"/>
<path class="st11" d="M36.66,29.18c-0.55-0.19-0.78-0.97-0.51-1.74c0.09-0.26,0.23-0.49,0.4-0.67c-0.1,0.03-0.21,0.07-0.31,0.13l0,0
	c-0.3,0.18-0.56,0.51-0.71,0.92c-0.27,0.77-0.04,1.55,0.51,1.74c0.36,0.13,0.77-0.03,1.09-0.36C36.97,29.23,36.81,29.23,36.66,29.18
	z"/>
<path class="st11" d="M55.85,27.34c-0.24,0.15-0.5,0.28-0.79,0.35c-1.24,0.31-2.39-0.33-2.57-1.43c-0.05-0.3-0.02-0.6,0.07-0.89
	c-0.59,0.51-0.92,1.24-0.8,1.96c0.18,1.1,1.33,1.74,2.57,1.43c0.9-0.22,1.6-0.88,1.84-1.64c-0.07,0.06-0.16,0.11-0.24,0.17
	c-0.2-0.77,0.83-1.66,1.92-1.49C56.03,24.36,54.51,26.43,55.85,27.34z"/>
<path class="st11" d="M51.26,29.9c-0.53,0.33-1.13,0.43-1.7,0.35c0.7-0.14,1.3-0.64,1.51-1.38c0.22-0.76-0.03-1.55-0.59-2.04
	c0.09,0.34,0.1,0.71-0.01,1.07c-0.3,1.05-1.47,1.82-2.45,1.34c-0.47-0.23-0.55-0.82-0.6-1.17c-0.32,0.65-0.34,1.42-0.05,2.11
	c-0.06,0.1-0.12,0.19-0.16,0.29c-0.36,0.92,0.1,1.96,1.02,2.32c0.67,0.26,1.4,0.09,1.89-0.38c-0.31,0.06-0.65,0.03-0.96-0.09
	c-0.54-0.21-0.92-0.66-1.07-1.18c0.81,0.66,1.98,0.77,2.92,0.19c0.86-0.54,1.28-1.5,1.16-2.44C51.98,29.29,51.67,29.64,51.26,29.9z"
	/>
<path class="st12" d="M40.49,31.76c0,0,0.91-1.01,1.61-1.15c0.69-0.14,1.13-0.02,1.34,0.15c0.21,0.17,0.89,0.71,0.97,1.13
	l-0.91,0.04c0,0-0.19-0.4-0.79-0.38c-0.6,0.03-0.69,0.24-0.66,0.29c0.04,0.05,0.06,0.22-0.18,0.33c-0.24,0.11-0.35,0.37-0.35,0.37
	L40.49,31.76z"/>
<path class="st13" d="M44.42,42.2c-0.05-0.17-0.12-0.37-0.39-0.45c-0.27-0.08-0.22,0.04-0.37-0.23c-0.15-0.27-0.58-0.91-1.03-1.07
	c-0.45-0.16-0.41-0.82-0.99-1.01c-0.58-0.19-1.67-0.18-2.12,0.21c-0.45,0.38-1.2,0.23-1.44,0.43c-0.23,0.2-0.55,1.25-1.05,1.33
	c-0.5,0.08-1.32,0.25-1.28,0.53c0.03,0.27,0.53,0.52,0.87,0.5c0.33-0.03,1.05,0.13,1.64,0.38c0.58,0.25,0.95-0.08,1.33,0
	c0.38,0.08,0.82,0.22,1.22,0.09c0.4-0.13,0.57-0.26,1.1-0.23c0.53,0.03,1.01,0.07,1.31,0C43.5,42.62,44.48,42.4,44.42,42.2z"/>
<path class="st12" d="M38.99,37.76c-1.7,2.66-1.24,3.78-0.63,3.15C40.17,39.03,38.99,37.76,38.99,37.76"/>
<path class="st14" d="M38.64,37.64c0.02,0.28,0.06,0.63,0.07,1.01c0.13-0.11,0.25-0.21,0.36-0.32c2.38-2.19,2.35-4.18,2.32-4.68
	C41.27,33.74,38.02,33.42,38.64,37.64"/>
<path class="st15" d="M38.68,37.26c-0.28,0.37-1.12,1.37-1.47,1.71c-0.47,1.24-0.12,1.68-0.71,2.39c-0.58,0.69,1.03,0.16,1.16,0.01
	C39.3,39.44,38.69,37.38,38.68,37.26z"/>
<path class="st15" d="M41.09,28.53c-0.52,0-1.28,0.64-1.44,1.12c-0.1,0.28-0.04,0.61-0.11,0.91l-0.48,0.76
	c0.85,0.89,0.95,1.71,0.96,2.67c0.01,0.55,0.93,0.13,1.36-0.16c0.5-0.35,0.56,1.39,0.58,1.65c0.02,0.32-0.16,1.1,0.41,1.1
	c0.25,0,0.59-0.81,0.69-1c0.17-0.32,0.15-2.19-0.23-2.39c-0.42-0.23-0.58-0.8-1.05-1.02c-0.28-0.13-0.69-0.19-0.75-0.49v0
	c0.06-0.97,0.44-1.02,0.5-1.73C41.58,29.29,42.11,28.53,41.09,28.53"/>
<path class="st16" d="M37.41,32.3c-1.24,1.67-2.28,3.03-2.07,5.16c0.14,1.48-0.05,3.75,0.93,2.76c0.73-0.73,1.45-1.41,2.09-2.22
	c1.24-1.57,1.79-3.02,1.85-5C40.29,30.55,38.69,30.58,37.41,32.3z"/>
<path class="st12" d="M53.4,31.76c0,0-0.91-1.01-1.61-1.15c-0.69-0.14-1.13-0.02-1.34,0.15c-0.21,0.17-0.89,0.71-0.97,1.13
	l0.91,0.04c0,0,0.19-0.4,0.79-0.38c0.6,0.03,0.69,0.24,0.66,0.29c-0.04,0.05-0.06,0.22,0.18,0.33c0.24,0.11,0.35,0.37,0.35,0.37
	L53.4,31.76z"/>
<path class="st13" d="M49.47,42.2c0.05-0.17,0.12-0.37,0.39-0.45c0.27-0.08,0.22,0.04,0.37-0.23c0.15-0.27,0.58-0.91,1.03-1.07
	c0.45-0.16,0.41-0.82,0.99-1.01c0.58-0.19,1.67-0.18,2.12,0.21c0.45,0.38,1.2,0.23,1.44,0.43c0.23,0.2,0.55,1.25,1.05,1.33
	c0.5,0.08,1.32,0.25,1.28,0.53c-0.03,0.27-0.53,0.52-0.87,0.5c-0.33-0.03-1.05,0.13-1.64,0.38c-0.58,0.25-0.95-0.08-1.33,0
	c-0.38,0.08-0.82,0.22-1.22,0.09c-0.4-0.13-0.57-0.26-1.1-0.23c-0.53,0.03-1.01,0.07-1.31,0C50.38,42.62,49.41,42.4,49.47,42.2z"/>
<path class="st12" d="M54.9,37.76c1.7,2.66,1.24,3.78,0.63,3.15C53.72,39.03,54.9,37.76,54.9,37.76"/>
<path class="st14" d="M55.25,37.64c-0.02,0.28-0.06,0.63-0.07,1.01c-0.13-0.11-0.25-0.21-0.36-0.32c-2.38-2.19-2.35-4.18-2.32-4.68
	C52.61,33.74,55.87,33.42,55.25,37.64"/>
<path class="st15" d="M55.21,37.26c0.28,0.37,1.12,1.37,1.47,1.71c0.47,1.24,0.12,1.68,0.71,2.39c0.58,0.69-1.03,0.16-1.16,0.01
	C54.59,39.44,55.2,37.38,55.21,37.26z"/>
<path class="st15" d="M52.8,28.53c0.52,0,1.28,0.64,1.44,1.12c0.1,0.28,0.04,0.61,0.11,0.91l0.48,0.76
	c-0.85,0.89-0.95,1.71-0.96,2.67c-0.01,0.55-0.93,0.13-1.36-0.16c-0.5-0.35-0.56,1.39-0.58,1.65c-0.02,0.32,0.16,1.1-0.41,1.1
	c-0.25,0-0.59-0.81-0.69-1c-0.17-0.32-0.15-2.19,0.23-2.39c0.42-0.23,0.58-0.8,1.05-1.02c0.28-0.13,0.69-0.19,0.75-0.49v0
	c-0.06-0.97-0.44-1.02-0.5-1.73C52.3,29.29,51.78,28.53,52.8,28.53"/>
<path class="st16" d="M56.48,32.3c1.24,1.67,2.28,3.03,2.07,5.16c-0.14,1.48,0.05,3.75-0.94,2.76c-0.73-0.73-1.45-1.41-2.09-2.22
	c-1.24-1.57-1.79-3.02-1.85-5C53.6,30.55,55.2,30.58,56.48,32.3z"/>
<linearGradient id="SVGID_1_" gradientUnits="userSpaceOnUse" x1="32" y1="62" x2="32" y2="2">
	<stop  offset="0" style="stop-color:#1A1A1A"/>
	<stop  offset="0.102" style="stop-color:#393939;stop-opacity:0.949"/>
	<stop  offset="0.3475" style="stop-color:#7F7F7F;stop-opacity:0.8262"/>
	<stop  offset="0.5688" style="stop-color:#B6B6B6;stop-opacity:0.7156"/>
	<stop  offset="0.7582" style="stop-color:#DEDEDE;stop-opacity:0.6209"/>
	<stop  offset="0.9081" style="stop-color:#F6F6F6;stop-opacity:0.5459"/>
	<stop  offset="1" style="stop-color:#FFFFFF;stop-opacity:0.5"/>
</linearGradient>
<circle class="st17" cx="32" cy="32" r="30"/>
</svg>
