<?xml version="1.0" encoding="utf-8"?>
<!-- Generator: Adobe Illustrator 24.1.2, SVG Export Plug-In . SVG Version: 6.00 Build 0)  -->
<svg version="1.1" id="Layer_1" xmlns="http://www.w3.org/2000/svg" xmlns:xlink="http://www.w3.org/1999/xlink" x="0px" y="0px"
	 width="64px" height="64px" viewBox="0 0 64 64" style="enable-background:new 0 0 64 64;" xml:space="preserve">
<style type="text/css">
	.st0{fill:#E81C27;}
	.st1{fill:#12AD2B;}
	.st2{fill:#FCFCFC;}
	.st3{fill:#0072CE;}
	.st4{fill:#E0E0E0;}
	.st5{fill:#73452B;}
	.st6{fill:#A36629;}
	.st7{fill:#FFE000;}
	.st8{fill:#C2C2C2;}
	.st9{fill:#E3E3E3;}
	.st10{opacity:0.1;fill:url(#SVGID_1_);}
</style>
<path class="st0" d="M60,42c-5.52,0-10-4.48-10-10H10.79v21.21l0,0C16.21,58.64,23.71,62,32,62c13.07,0,24.18-8.36,28.29-20.02
	C60.19,41.99,60.1,42,60,42z"/>
<path class="st1" d="M60,22c0.1,0,0.19,0.01,0.29,0.01C56.18,10.36,45.07,2,32,2c-8.29,0-15.79,3.36-21.21,8.79h0V32H50
	C50,26.48,54.48,22,60,22z"/>
<path class="st2" d="M60.29,22h-49.5v20h49.5C61.39,38.87,62,35.51,62,32S61.39,25.13,60.29,22z"/>
<path class="st3" d="M10.79,10.79C5.36,16.21,2,23.71,2,32c0,8.28,3.36,15.78,8.79,21.21L21,32L10.79,10.79z"/>
<path class="st4" d="M27.04,25.79v0.08c0,0.06,0.03,6.47,0.03,9.99c0,1.99,1.22,2.15,2.36,2.15c0.15,0,0.3,0,0.45-0.01
	c0.14,0,0.29-0.01,0.43-0.01c0.84,0,1.41,0.12,1.61,0.7l0.09,0.26l0.06-0.27c0.12-0.56,0.65-0.67,1.42-0.67
	c0.17,0,0.34,0.01,0.53,0.01c0.19,0.01,0.38,0.01,0.57,0.01c1.21,0,2.33-0.24,2.33-1.98V25.79H27.04z"/>
<path class="st5" d="M32.35,32.93c-0.1-1.45-0.2-2.29,0.94-2.87l-0.3-0.25c0,0-0.3,0.13-0.7,0.51c0.02-0.22,0.04-0.44,0.06-0.67
	h-0.46l-0.1,7.39c0,0,0.22,0.51,0.65,0.06c0.15,0.02,0.24-0.06,0.24-0.06s0.41,0.18,0.38-0.15c-0.03-0.53-0.38-1.25-0.56-2.08
	C32.38,34.15,32.38,33.47,32.35,32.93z"/>
<path class="st6" d="M31.89,30.37c0,0-0.31-0.43-0.64-0.53l-0.05,0.41c0.87,0.46,0.46,4.65-0.48,6.56
	c-0.03,0.05,0.03,0.46,0.46,0.25l-0.03-0.1c0.03,0.05,0.2,0.61,0.66,0.13C31.89,37,32.02,35.07,31.89,30.37z"/>
<path class="st1" d="M35.76,28.92c0.13-0.56-0.3-0.69-0.79-0.56c0.2-0.3,0.1-0.61-0.41-0.51c-0.05-0.48-0.69-0.48-0.74-0.1
	c-0.28,0-0.28,0-0.43,0.18c-0.1-0.3-0.23-0.38-0.61-0.43c0.1-0.86-1.25-1.16-1.32-0.53c-0.46-0.07-0.66,0.03-0.51,0.46
	c-0.25,0-0.33,0.13-0.28,0.28c-0.46,0.05-0.58,0.13-0.56,0.56c-0.23,0.03-0.53,0-0.36,0.41c-0.33,0.15-0.53,0.3-0.2,0.74
	c-0.23,0.05-0.28,0.15-0.2,0.33c-0.13-0.05-0.28-0.1-0.31,0.15c-0.23-0.05-0.58-0.13-0.63,0.28c-0.58,0.03-0.66,0.41,0.05,0.51
	c0.1,0.28,0.66,0.36,0.81-0.15c0.18,0.13,0.2,0.23,0.56,0.2c0.38,0.53,1.17,0.25,0.86-0.38c0.41,0.15,0.58-0.05,0.56-0.51
	c0.23,0.03,0.36,0.13,0.38-0.23c0.46,0.28,0.56,0.28,1.09,0.05c0.3,0.38,0.36,0.53,1.04,0.43c0.28,0.43,0.64,0.58,1.25,0.15
	c0.48,0.15,0.84,0.03,0.89-0.36C36.29,29.76,36.62,29.15,35.76,28.92z"/>
<polygon class="st7" points="31.66,24.44 31.11,24.46 30.83,24.96 30.52,24.48 29.96,24.51 30.22,24 29.91,23.53 30.5,23.5 
	30.75,23 31.05,23.48 31.61,23.46 31.36,23.96 "/>
<polygon class="st7" points="29.28,24.62 28.72,24.76 28.56,25.3 28.16,24.89 27.63,25.03 27.78,24.48 27.4,24.07 27.93,23.94 
	28.08,23.39 28.49,23.8 29.05,23.67 28.87,24.21 "/>
<polygon class="st7" points="26.96,25.1 26.46,25.35 26.43,25.91 25.95,25.6 25.44,25.85 25.49,25.29 25.01,24.97 25.52,24.72 
	25.57,24.16 26.02,24.47 26.53,24.22 26.51,24.78 "/>
<polygon class="st7" points="32.4,24.44 32.96,24.46 33.21,24.96 33.52,24.48 34.08,24.51 33.82,24 34.13,23.53 33.57,23.5 
	33.29,23 32.99,23.48 32.43,23.46 32.68,23.96 "/>
<polygon class="st7" points="34.79,24.62 35.32,24.76 35.48,25.3 35.88,24.89 36.42,25.03 36.26,24.48 36.67,24.07 36.11,23.94 
	35.96,23.39 35.55,23.8 35.02,23.67 35.17,24.21 "/>
<polygon class="st7" points="37.08,25.1 37.59,25.35 37.61,25.91 38.09,25.6 38.6,25.85 38.58,25.29 39.03,24.97 38.53,24.72 
	38.5,24.16 38.02,24.47 37.51,24.22 37.56,24.78 "/>
<polygon class="st8" points="37.76,35.86 38.4,36.77 38.98,35.91 38.58,35.17 "/>
<path class="st8" d="M33.72,38.52l0.05,0.91c0,0,0.25,0,0.48-0.08c0.21-0.08,0.38-0.23,0.38-0.23l-0.03-0.48L33.72,38.52z"/>
<path class="st8" d="M30.32,38.52l-0.05,0.89c0,0-0.23,0-0.46-0.05c-0.2-0.05-0.38-0.18-0.38-0.18l-0.25-0.61L30.32,38.52z"/>
<polygon class="st8" points="26.23,35.86 25.57,36.77 24.86,35.6 25.39,35.04 "/>
<path class="st9" d="M29.4,40.35c0,0.86,5.23,0.86,5.23,0v-1.22c0,0.63-5.23,0.51-5.23,0V40.35z"/>
<path class="st9" d="M24.73,37.53c0.46,2.34,4.68,2.39,4.68,2.39v-0.79c-0.1-0.3,0.08-0.41,0.76-0.51c0.28-0.03,0.15-0.43,0.15-0.43
	s-1.83,0.33-3.13-0.18c-1.75-0.71-2.01-2.08-2.01-2.08S25.06,37,24.73,37.53z"/>
<path class="st9" d="M39.29,37.53c-0.43,2.34-4.65,2.39-4.65,2.39v-0.79c0.08-0.3-0.1-0.41-0.79-0.51
	c-0.28-0.03-0.13-0.43-0.13-0.43s1.83,0.33,3.13-0.18c1.73-0.71,1.93-2.08,1.93-2.08S38.96,37,39.29,37.53z"/>
<path class="st4" d="M25.06,36.64c-1.17-0.63-0.25-1.3-0.15-3.18c0.18,1.14,1.47,1.63,1.32,2.36c-0.53,0.03-0.79-0.79-1.04,0.1
	L25.06,36.64z"/>
<path class="st4" d="M38.96,36.64c1.17-0.66,0.2-1.3,0.1-3.18c-0.18,1.14-1.45,1.63-1.29,2.36c0.51,0.03,0.76-0.79,1.02,0.1
	l0.18,0.69V36.64z"/>
<path d="M25.77,37.51l0.13,0.1l-0.28,0.3c-0.11,0.12-0.14,0.2-0.06,0.28c0.1,0.09,0.16,0.06,0.26-0.05l0.3-0.33l0.1,0.1l-0.3,0.36
	c-0.16,0.19-0.32,0.15-0.45,0.03c-0.11-0.1-0.18-0.26-0.01-0.44L25.77,37.51L25.77,37.51z"/>
<polygon points="26.28,37.94 26.4,38.01 26.38,38.63 26.66,38.19 26.79,38.27 26.38,38.93 26.23,38.85 26.25,38.24 25.97,38.68 
	25.85,38.6 "/>
<polygon points="26.51,39.01 26.86,38.29 26.99,38.37 26.66,39.06 "/>
<path d="M27.07,38.4l-0.28,0.74l0.28,0.1c0.26,0.1,0.38-0.02,0.47-0.24c0.08-0.22,0.05-0.39-0.21-0.5L27.07,38.4z M27.17,38.57
	c0.26,0.09,0.28,0.19,0.21,0.37c-0.07,0.17-0.13,0.24-0.38,0.11L27.17,38.57z"/>
<path d="M27.9,38.68l-0.46,0.69l0.18,0.05l0.1-0.18l0.3,0.08l0.03,0.18l0.18,0.02l-0.18-0.81L27.9,38.68z M27.96,38.85l0.05,0.3
	l-0.2-0.03L27.96,38.85z"/>
<path d="M28.34,38.74l-0.03,0.79l0.3,0.01c0.28,0,0.36-0.14,0.36-0.38c0.01-0.24-0.08-0.39-0.36-0.4L28.34,38.74z M28.49,38.88
	c0.28,0,0.33,0.09,0.32,0.28c-0.01,0.19-0.05,0.27-0.33,0.23L28.49,38.88z"/>
<path d="M31,39.84v0.81h0.18v-0.31c0,0,0.15,0.01,0.28-0.02c0.1-0.03,0.17-0.09,0.17-0.25c0-0.16-0.09-0.24-0.24-0.24H31L31,39.84z
	 M31.18,39.97l0.18,0c0.15,0,0.12,0.23,0.01,0.23h-0.18V39.97z"/>
<path d="M31.92,39.84l-0.33,0.81h0.18l0.08-0.2h0.33l0.08,0.2h0.18l-0.33-0.81H31.92L31.92,39.84z M32,40.02l0.13,0.3h-0.23
	L32,40.02z"/>
<polygon points="32.43,40.5 32.86,39.97 32.48,39.97 32.48,39.84 33.09,39.84 33.09,39.97 32.63,40.5 33.09,40.5 33.09,40.66 
	32.43,40.66 "/>
<path d="M34.99,38.93l0.15-0.03l0.08,0.46c0.03,0.16-0.05,0.27-0.16,0.32c-0.13,0.05-0.3,0-0.32-0.21l0.13-0.03
	c0.03,0.13,0.08,0.14,0.14,0.12l0.06-0.17L34.99,38.93z"/>
<path d="M35.25,38.88l0.15-0.03l0.07,0.38c0.03,0.16,0.08,0.23,0.19,0.21c0.13-0.02,0.15-0.1,0.12-0.24l-0.09-0.41l0.15-0.02
	l0.1,0.42c0.06,0.25-0.07,0.34-0.24,0.38c-0.15,0.03-0.31-0.01-0.36-0.25L35.25,38.88z"/>
<path d="M36.04,39.23l0.13-0.05c0.06,0.11,0.16,0.11,0.24,0.07c0.1-0.05,0.12-0.14,0.06-0.17c-0.07-0.04-0.25,0.02-0.35-0.02
	c-0.12-0.04-0.16-0.11-0.16-0.2c0.01-0.12,0.11-0.18,0.22-0.22c0.13-0.04,0.25-0.03,0.33,0.13l-0.15,0.05l-0.17-0.05l-0.08,0.13
	c0.03,0.06,0.22,0.02,0.32,0.02c0.1,0,0.18,0.07,0.2,0.17c0.02,0.14-0.03,0.21-0.19,0.27C36.24,39.45,36.07,39.36,36.04,39.23z"/>
<polygon points="36.72,38.6 36.52,38.7 36.47,38.57 37.03,38.34 37.08,38.45 36.87,38.55 37.1,39.11 36.97,39.18 "/>
<polygon points="37.05,38.32 37.18,38.24 37.54,38.9 37.41,38.98 "/>
<path d="M37.92,38.37l0.15-0.05c0.07,0.15-0.04,0.42-0.3,0.42c-0.39-0.01-0.43-0.43-0.37-0.57c0.1-0.24,0.39-0.23,0.51-0.1
	l-0.13,0.1c-0.08-0.1-0.26-0.04-0.27,0.06c-0.02,0.16,0.05,0.3,0.19,0.37C37.82,38.65,38,38.5,37.92,38.37z"/>
<polygon points="37.84,37.84 37.97,37.74 38.42,38.34 38.3,38.45 "/>
<path d="M38.32,37.46l-0.13,0.1l0.28,0.76l0.13-0.13l-0.08-0.15l0.23-0.2l0.15,0.08l0.13-0.1L38.32,37.46z M38.37,37.63l0.25,0.13
	l-0.15,0.15L38.37,37.63z"/>
<linearGradient id="SVGID_1_" gradientUnits="userSpaceOnUse" x1="32" y1="62" x2="32" y2="2">
	<stop  offset="0" style="stop-color:#1A1A1A"/>
	<stop  offset="0.102" style="stop-color:#393939;stop-opacity:0.949"/>
	<stop  offset="0.3475" style="stop-color:#7F7F7F;stop-opacity:0.8262"/>
	<stop  offset="0.5688" style="stop-color:#B6B6B6;stop-opacity:0.7156"/>
	<stop  offset="0.7582" style="stop-color:#DEDEDE;stop-opacity:0.6209"/>
	<stop  offset="0.9081" style="stop-color:#F6F6F6;stop-opacity:0.5459"/>
	<stop  offset="1" style="stop-color:#FFFFFF;stop-opacity:0.5"/>
</linearGradient>
<circle class="st10" cx="32" cy="32" r="30"/>
</svg>
