<?xml version="1.0" encoding="utf-8"?>
<!-- Generator: Adobe Illustrator 24.1.2, SVG Export Plug-In . SVG Version: 6.00 Build 0)  -->
<svg version="1.1" id="Layer_1" xmlns="http://www.w3.org/2000/svg" xmlns:xlink="http://www.w3.org/1999/xlink" x="0px" y="0px"
	 width="64px" height="64px" viewBox="0 0 64 64" style="enable-background:new 0 0 64 64;" xml:space="preserve">
<style type="text/css">
	.st0{fill:#CE1126;}
	.st1{fill:#004EF1;}
	.st2{fill:#1A1626;}
	.st3{fill:#FCFCFC;}
	.st4{fill:#FFE000;}
	.st5{opacity:0.1;fill:url(#SVGID_1_);}
</style>
<path class="st0" d="M56,14L56,14H8c-3.77,5.01-6,11.25-6,18c0,16.57,13.43,30,30,30c16.57,0,30-13.43,30-30
	C62,25.25,59.77,19.01,56,14z"/>
<polygon class="st1" points="20.5,39 43.5,39 50.5,25 13.5,25 "/>
<polygon class="st1" points="20.5,39 43.5,39 50.5,25 13.5,25 "/>
<path class="st2" d="M50.5,25L56,14C50.53,6.71,41.81,2,32,2C22.19,2,13.47,6.71,8,14l5.5,11H50.5z"/>
<polygon class="st3" points="20.5,39 32,62 43.5,39 "/>
<polygon class="st4" points="37.32,21.52 43.71,13.47 35.59,19.78 38.41,9.89 33.32,18.83 32.13,8.62 30.86,18.81 25.85,9.84 
	28.58,19.74 20.51,13.36 26.83,21.48 16.93,18.66 25.88,23.74 15.65,24.93 16.22,25 47.89,25 38.26,23.8 47.25,18.8 "/>
<linearGradient id="SVGID_1_" gradientUnits="userSpaceOnUse" x1="32" y1="62" x2="32" y2="2">
	<stop  offset="0" style="stop-color:#1A1A1A"/>
	<stop  offset="0.102" style="stop-color:#393939;stop-opacity:0.949"/>
	<stop  offset="0.3475" style="stop-color:#7F7F7F;stop-opacity:0.8262"/>
	<stop  offset="0.5688" style="stop-color:#B6B6B6;stop-opacity:0.7156"/>
	<stop  offset="0.7582" style="stop-color:#DEDEDE;stop-opacity:0.6209"/>
	<stop  offset="0.9081" style="stop-color:#F6F6F6;stop-opacity:0.5459"/>
	<stop  offset="1" style="stop-color:#FFFFFF;stop-opacity:0.5"/>
</linearGradient>
<circle class="st5" cx="32" cy="32" r="30"/>
</svg>
