<?xml version="1.0" encoding="utf-8"?>
<!-- Generator: Adobe Illustrator 24.1.2, SVG Export Plug-In . SVG Version: 6.00 Build 0)  -->
<svg version="1.1" id="Layer_1" xmlns="http://www.w3.org/2000/svg" xmlns:xlink="http://www.w3.org/1999/xlink" x="0px" y="0px"
	 width="64px" height="64px" viewBox="0 0 64 64" style="enable-background:new 0 0 64 64;" xml:space="preserve">
<style type="text/css">
	.st0{fill:#003893;}
	.st1{fill:#FCFCFC;}
	.st2{fill:#FF0000;}
	.st3{fill:#1A1626;}
	.st4{fill:#FFFFFF;}
	.st5{fill:#CE1126;}
	.st6{fill:#008000;}
	.st7{fill:#42ADE2;}
	.st8{fill:#8D4400;}
	.st9{fill:#FFD000;}
	.st10{opacity:0.1;fill:url(#SVGID_1_);}
</style>
<rect x="12" y="12" class="st0" width="20" height="20"/>
<polygon class="st1" points="18.92,8.14 18.92,14 11.6,14 26,32 32,32 32,24.5 "/>
<path class="st2" d="M32,2v30H2c0,16.57,13.43,30,30,30s30-13.43,30-30S48.57,2,32,2z"/>
<path class="st1" d="M11,18.91H5.01C3.09,22.87,2,27.31,2,32h12V13.91h-3V18.91z"/>
<polygon class="st2" points="33,28.06 19,11 13,11 31,33 33,33 "/>
<path class="st1" d="M18.92,5.01V11H11v3h21V2C27.31,2,22.87,3.09,18.92,5.01z"/>
<path class="st2" d="M33,5H18.92C12.86,7.94,7.94,12.86,5,18.91V33h6V11h22V5z"/>
<path class="st3" d="M47,45.52l-0.08-0.01c-0.37-0.06-9.12-1.54-9.12-6.26V22.45h18.4v16.79c0,4.72-8.75,6.2-9.12,6.26L47,45.52z"/>
<path class="st4" d="M55.7,22.96v16.29c0,4.35-8.7,5.77-8.7,5.77s-8.7-1.41-8.7-5.77V22.96H55.7z"/>
<path class="st5" d="M52.79,29.51c-0.18-0.19-0.49-0.06-0.49-0.06c-0.08-0.25-0.31-0.25-0.31-0.25c-0.26-0.01-0.37,0.23-0.37,0.23
	c-0.27-0.12-0.42,0.04-0.42,0.04c-0.12,0.13-0.15,0.26-0.13,0.37c-0.13,0-0.31-0.01-0.53-0.08c-0.39-0.12-0.54-0.07-0.67,0
	c0,0,0.16-0.31-0.23-0.56c0,0,0.12,0.31-0.05,0.46c0,0-0.08,0.07-0.17-0.04c0,0-0.13-0.14-0.28-0.24c0,0,0.33-0.11,0.27-0.44
	c-0.06-0.33-0.24-0.38-0.33-0.42c0,0,0.03,0.15,0,0.25c0,0-0.35-0.2,0.13-0.48c0.48-0.28,0.39-0.44,0.31-0.59
	c-0.09-0.14-0.27-0.3-0.36-0.36c0,0,0.1,0.15,0.08,0.28c-0.02,0.13-0.23,0.21-0.19-0.01c0.04-0.23,0-0.19-0.01-0.43
	c0,0,0.43,0.15,0.6-0.27c0,0,0.17-0.43-0.38-0.65c0,0,0.13,0.18,0.07,0.31c0,0-0.12,0.22-0.25,0.04c-0.14-0.18-0.22-0.21-0.21-0.42
	c0,0,0.49,0.07,0.36-0.47c0,0-0.08,0.36-0.72-0.12c0,0,0.42-0.43,0.25-0.77c0,0-0.05-0.16-0.5-0.06c0,0,0.39-0.25,0.23-0.46
	c0,0-0.08-0.14-0.45,0.04c0,0,0.14-0.24-0.22-0.51c0,0-0.24,0.13-0.37,0.24c0,0-0.24-0.31-0.4-0.43c0,0-0.28,0.11-0.36,0.43
	c0,0-0.13-0.16-0.43-0.23c0,0-0.14,0.27,0.04,0.5c0,0-0.14,0-0.39-0.12c0,0-0.29-0.14-0.25,0.11c0.04,0.25,0.06,0.3,0.12,0.42
	c0,0-0.65-0.15-0.62,0.2c0.02,0.24,0.11,0.45,0.31,0.63c0,0-0.36,0.48-0.68,0.12c0,0-0.11,0.12,0.13,0.42c0,0,0.23,0.26,0.04,0.42
	c0,0-0.26,0.21-0.38-0.19c0,0-0.42,0.41,0.07,0.73c0,0,0.31,0.18,0.64-0.1c0,0-0.1,0.79-0.4,0.64c0,0-0.19-0.14,0.15-0.3
	c0,0-0.48-0.06-0.55,0.4c0,0-0.06,0.37,0.36,0.5c0,0,0.32,0.12-0.01,0.37c0,0-0.23,0.18-0.08,0.44c0,0,0.19,0.29-0.28,0.32
	c0,0-0.25,0-0.35-0.04c0,0-0.1,0.19-0.03,0.41c0,0-0.23-0.17-0.76,0.02c-0.28,0.1-0.4,0.11-0.46,0.11c0.03-0.12,0.02-0.27-0.12-0.42
	c0,0-0.15-0.16-0.42-0.04c0,0-0.11-0.23-0.37-0.23c0,0-0.23,0-0.31,0.25c0,0-0.32-0.13-0.49,0.06c0,0-0.14,0.67,0.27,0.93
	c0,0,1.02,0.61,1.46,0.42l0,0.01l8.24,0.03c0.52,0.25,1.44-0.41,1.44-0.41C52.96,30.23,52.79,29.51,52.79,29.51z"/>
<path class="st6" d="M55.7,39.25c0,4.35-8.7,5.77-8.7,5.77s-8.7-1.41-8.7-5.77c0,0,0-0.35,0.18-0.55c0,0-0.1,0.72,0.46,1.27
	c0,0-0.44-0.77-0.01-1.53c0,0-0.16,0.98,0.45,1.54c0,0-0.34-0.8,0.04-1.69c0,0-0.19,1.45,0.47,1.75c0,0,0.18-0.84-0.08-1.37
	c0,0,0.46,0.18,0.43,1.4c0,0,0.14-0.18,0.18-1.05c0,0,0.02,1,0.37,1.23c0,0,0.11-0.1-0.04-0.56c-0.14-0.45,0.06-0.61,0.1-0.6
	c0,0-0.08,0.5,0.35,0.88c0,0-0.18-0.79,0.07-0.89c0,0-0.05,0.67,0.48,0.82c0,0,0.04-0.19-0.08-0.41c0,0-0.1-0.26-0.02-0.46
	c0,0,0.17,0.6,0.4,0.71c0,0-0.14-0.35-0.01-0.71c0,0,0.03,0.5,0.48,0.71c0,0-0.3-0.39-0.18-0.82l2.9,0.14l1.5,0.07l4.5-0.32
	l0.78-0.67c0,0,0.31,0.43-0.18,1.1c0,0,0.48-0.09,0.63-0.84c0,0,0.2,0.42-0.07,0.88c0,0,0.53-0.53,0.61-1.14c0,0,0.21,0.58-0.3,1.21
	c0,0,0.45-0.15,0.64-0.82c0,0,0.15,0.4-0.28,0.97c0,0,0.81-0.43,0.79-1.33c0,0,0.34,0.49-0.05,1.17c0,0,0.42-0.37,0.46-0.93
	c0,0,0.23,0.25-0.02,0.94c0,0,0.51-0.48,0.59-1c0,0,0.11,0.48-0.33,1.08c0,0,0.3-0.07,0.58-0.66c0,0,0.08,0.23-0.18,0.66
	c0,0,0.28-0.05,0.47-0.58c0,0,0.03,0.32-0.05,0.6c0,0,0.22-0.14,0.26-0.74c0,0,0.12,0.2,0.12,0.44
	C55.71,39.41,55.7,39.25,55.7,39.25z"/>
<path class="st7" d="M52.29,31.64c0,0,0-0.18-0.05-0.32c0,0,0.57-0.33,0.3-0.96c0,0-0.18-0.43-0.69-0.38l0.14,0.42
	c-0.24,0.87-1.5,0.4-1.5,0.4s-1.29-0.73-1.65-0.95c-0.36-0.22-1.48,0.3-1.48,0.3l-0.78,0.01c-1.06-0.54-1.01-0.38-2.88,0.48
	c-1.87,0.86-1.74-0.42-1.74-0.42l0.12-0.23c-0.51-0.05-0.69,0.38-0.69,0.38c-0.27,0.63,0.3,0.96,0.3,0.96
	c-0.04,0.14-0.05,0.32-0.05,0.32c-0.8,0.1-0.66,0.99-0.66,0.99s0.3-0.38,0.75-0.23c0.45,0.15,0.82,0.88,0.88,1.04
	c0.06,0.14,3.86,0.4,3.86,0.4s0.18-0.25,0.41-0.28c0,0,0.23-0.01,0.25-0.05c0.02-0.05,0.27-0.45,0.86,0c0,0,0.19-0.3,0.47-0.35
	c0,0,0.31-0.09,0.46,0.14c0,0,0.35-0.26,0.65,0.16c0,0,0.41-0.23,0.72,0.23c0,0,0.41-0.2,0.66,0.23c0.25,0.43,0.16-0.08,0.44-0.64
	c0.34-0.66,0.82-1.05,1.28-0.87l0.26,0.22C52.95,32.63,53.09,31.73,52.29,31.64z"/>
<path class="st5" d="M44.16,39.58c0,0-0.37,0.02-0.55,0.12c-0.19,0.09-0.33,0.2-0.55,0.33c0,0-0.1,0.13-0.52,0.05
	c0,0-0.73-0.18-0.73,0.4c0,0-0.88,0.07-0.52,0.84c0,0,0.24,0.6,0.75,0.17c0,0-0.32,0.46,0.3,0.65c0,0,0.45,0.11,0.58-0.35
	c0,0,0.07-0.18-0.1-0.41c0,0,0.22-0.04,0.37-0.28c0,0-0.46,0.58,0.04,0.79c0,0,0.63,0.16,0.67-0.5c0,0-0.05-0.31,0.19-0.41
	c0,0,0.5-0.12,0.73-0.68C44.82,40.31,44.09,39.92,44.16,39.58z"/>
<path class="st5" d="M41.85,33.8c0,0-0.37-0.23-0.77,0c0,0-0.37,0.24-0.63,0.51c0,0-0.18,0.16-0.12,0.65c0,0,0.1,0.35,0.04,0.52
	c0,0-0.12-0.02-0.37,0.27c0,0-0.32,0.37-0.59,0.04c0,0,0.09,0.45,0.61,0.38c0,0-0.25,0.2-0.03,0.71c0,0,0.16,0.36-0.1,0.82
	c0,0,0.46-0.18,0.44-0.72c0,0-0.04-0.35,0.09-0.61c-0.02,0.05-0.09,0.28,0.18,0.72c0,0,0.24,0.36,0.04,0.73c0,0,0.45-0.16,0.41-0.71
	c-0.04-0.55-0.32-0.32-0.14-0.82c0,0,0.04,0.26,0.18,0.39c0.13,0.13,0.31,0.35,0.23,0.71c0,0,0.27-0.33,0.21-0.68
	c-0.06-0.34-0.13-0.45-0.13-0.45l0.85-0.48l0.42-0.76l0.02-1.22C42.68,33.8,42.12,33.54,41.85,33.8z"/>
<polygon class="st8" points="47.63,35.85 46.23,31.01 46.17,31.02 47.41,35.92 "/>
<path class="st7" d="M41.58,42.05c0,0-0.52-0.33-0.24-0.88c0,0,0.08-0.16,0.24-0.13c0,0,0.33,0.1,0.07,0.55
	C41.65,41.59,41.52,41.88,41.58,42.05z"/>
<path class="st7" d="M42.64,42.57c0,0-0.75-0.34-0.52-0.92c0,0,0.07-0.2,0.24-0.18c0,0,0.29,0.01,0.23,0.4
	C42.59,41.87,42.51,42.24,42.64,42.57z"/>
<path class="st7" d="M43.15,42.42c0,0,0.59-0.15,0.48-0.75c0,0-0.06-0.26-0.31-0.23c0,0-0.3,0.08-0.1,0.46
	C43.22,41.9,43.33,42.18,43.15,42.42z"/>
<path class="st9" d="M42.42,32.9c0,0,0-0.75,0-0.91c0-0.07,0-0.13,0.11-0.22c0.11-0.09,0.22-0.23,0.39,0.17c0,0,0.32-0.34,0.43-0.39
	c0,0,0.19-0.16,0.32,0.07c0,0,0.17-0.26,0.31-0.33c0,0,0.32-0.21,0.34,0.42l0.25-0.23c0,0,0.2-0.16,0.41,0.06
	c0,0,0.37,0.36,0.42,0.46c0,0,0.08,0.11,0.09,0.28c0,0,0,0.2,0.1,0.3c0,0,0.12,0.1,0.23,0.12c0,0,0.26,0.01,0.36,0.25
	c0,0,0.04-0.04,0.17,1.14v2.15l-1.45,1.73l-2.33-0.67l-0.93-0.38l-0.21-0.68l0.9-0.58l0.49-1.32l-0.16-0.93L42.42,32.9z"/>
<path class="st5" d="M52.15,40.48c0-0.57-0.73-0.4-0.73-0.4c-0.42,0.08-0.52-0.05-0.52-0.05c-0.22-0.14-0.36-0.24-0.55-0.33
	c-0.19-0.09-0.55-0.12-0.55-0.12c0.07,0.34-0.65,0.73-0.65,0.73c0.23,0.56,0.73,0.68,0.73,0.68c0.25,0.11,0.19,0.41,0.19,0.41
	c0.04,0.66,0.67,0.5,0.67,0.5c0.42-0.17,0.17-0.6,0.08-0.74c0.15,0.19,0.33,0.23,0.33,0.23c-0.17,0.23-0.1,0.41-0.1,0.41
	c0.13,0.46,0.58,0.35,0.58,0.35c0.63-0.18,0.3-0.65,0.3-0.65c0.5,0.43,0.75-0.17,0.75-0.17C53.02,40.55,52.15,40.48,52.15,40.48z"/>
<polygon class="st8" points="45.72,36.7 44.32,31.85 44.27,31.87 45.51,36.77 "/>
<path class="st8" d="M49.63,35.29v-0.33c-0.02-0.23-0.42-1.29-0.42-1.29l-0.26,0.2l-2.69,0.85l-0.15,1.2
	c-0.64,0.92-1.93,1.09-1.93,1.09l1.01,1.07l1.94,0.41l1.02-0.78l0.92-0.85v0v0l0.78,0.44l0.5-0.92
	C50.24,35.44,49.63,35.29,49.63,35.29z"/>
<path class="st5" d="M54.56,35.79c-0.28,0.32-0.59-0.04-0.59-0.04c-0.25-0.3-0.37-0.27-0.37-0.27c-0.06-0.17,0.04-0.52,0.04-0.52
	c0.07-0.49-0.12-0.65-0.12-0.65c-0.26-0.27-0.63-0.51-0.63-0.51c-0.39-0.23-0.77,0-0.77,0c-0.27-0.26-0.83,0-0.83,0l0.02,1.22
	l0.42,0.76l0.85,0.48c0,0-0.07,0.1-0.13,0.45c-0.06,0.34,0.21,0.68,0.21,0.68c-0.07-0.36,0.1-0.58,0.23-0.71
	c0.13-0.13,0.18-0.39,0.18-0.39c0.18,0.5-0.1,0.28-0.14,0.82c-0.04,0.55,0.41,0.71,0.41,0.71c-0.2-0.37,0.04-0.73,0.04-0.73
	c0.28-0.44,0.2-0.67,0.18-0.72c0.13,0.26,0.09,0.61,0.09,0.61c-0.02,0.54,0.44,0.72,0.44,0.72c-0.26-0.45-0.1-0.82-0.1-0.82
	c0.22-0.51-0.03-0.71-0.03-0.71C54.47,36.24,54.56,35.79,54.56,35.79z"/>
<path class="st4" d="M52.33,36.18l-0.63-0.31c-1.56-0.23-1.99,1.22-1.99,1.22c-0.03-0.15-0.2-0.28-0.41-0.32
	c-0.21-0.04-1.03,0.06-1.38,0.68c-0.35,0.62-0.67,0.73-1.02,0.78c-0.36,0.05-0.77-0.49-0.77-0.49c0.55-0.82-0.29-1.08-0.29-1.08
	c-0.87-0.26-1.29,0.73-1.29,0.73l-0.1-0.11c0.21-0.89-0.35-0.86-0.35-0.86c-0.32-0.03-0.51,0.25-0.51,0.25
	c0-0.04-0.04-0.7-0.69-0.68c-0.65,0.02-0.78,0.64-0.78,0.64c-0.36-0.15-0.44,0.23-0.44,0.23L42.41,39l0.7,0.47l0.47-0.05l0.32-0.37
	l0.29,0.13l0.28,0.91l1.56,0.74l0.4,0.38l0.14,0.35c0.43-0.16,0.81,0,0.81,0l0.16-0.42l0.69-0.47l0.63-0.26l0.9-0.65l0.02-0.58
	l0.24-0.13l0.68,0.39l0.66-0.2l0.86-1.95l0.35-1L52.33,36.18z"/>
<path class="st9" d="M52.36,32.83c0,0,0.17,0.2,0.45,0.05c0,0,0.17-0.09,0.13-0.33c0,0-0.05-0.34-0.45-0.33c0,0-0.8,0-1.28,1.11
	c0,0-0.34,0.73-0.13,1.57c0,0,0.28,1.12,1.32,1.44l-0.06,0.12c-0.15,0.3-0.33,0.89-0.33,0.89c-0.21,0.68-0.49,1.3-0.52,1.36
	c-0.03,0.06-0.14,0.29-0.31,0.42c-0.15,0.12-0.41,0.21-0.71,0.12c-0.17-0.05-0.27-0.2-0.3-0.27c0.22-0.02,0.22-0.25,0.22-0.25
	c0-0.29-0.33-0.26-0.33-0.26c-0.34,0.03-0.3,0.41-0.3,0.41c0,0.41,0.57,0.66,0.57,0.66c0.96,0.36,1.39-0.51,1.39-0.51
	c0.32-0.61,0.66-1.74,0.66-1.74c0.3-0.88,0.47-1.12,0.47-1.12c-1.56-0.39-1.5-1.89-1.5-1.89c0-0.8,0.48-1.41,0.48-1.41
	c0.21-0.26,0.4-0.35,0.53-0.38c-0.01,0.01-0.02,0.02-0.03,0.03C52.32,32.52,52.25,32.68,52.36,32.83z"/>
<path class="st9" d="M49.91,39.3c-0.12-0.38-0.4-0.39-0.4-0.39c-0.29-0.03-0.36,0.21-0.36,0.21c-0.11,0.34,0.2,0.41,0.2,0.41
	c0.15,0.03,0.23-0.02,0.29-0.07c-0.04,0.24-0.13,0.39-0.13,0.39c-0.15,0.18-0.39,0.3-0.65,0.4c-0.37,0.14-0.72,0.3-0.91,0.37
	c-0.32,0.13-0.48,0.35-0.48,0.35c-0.17,0.2-0.16,0.6,0.03,0.8c0.12,0.13,0.32,0.14,0.32,0.14c0.26,0,0.33-0.21,0.33-0.21
	c0.09-0.23-0.13-0.33-0.13-0.33c-0.24-0.1-0.35,0.07-0.35,0.07c-0.03,0.05-0.03,0.09-0.03,0.13c-0.13-0.27,0.21-0.52,0.21-0.52
	C48.13,40.84,49,40.5,49,40.5c0.22-0.09,0.67-0.29,0.85-0.6C50.01,39.62,49.91,39.3,49.91,39.3z"/>
<path class="st9" d="M52.05,30.06c0,0-0.09-0.1-0.23-0.08c-0.06,0.01-0.13,0.03-0.19,0.11c0,0-0.1,0.15,0.02,0.26
	c0,0,0.16,0.1,0.21-0.11c0,0,0-0.01,0.01,0c0,0.01,0.04,0.17-0.04,0.3c0,0-0.4,0.6-1.5-0.02l-1.45-0.81c0,0-0.36-0.18-0.72-0.09l0,0
	c-0.01,0-0.01,0-0.02,0.01c-0.02,0.01-0.05,0.02-0.07,0.03c-0.16,0.06-0.44,0.17-0.44,0.17c-0.69,0.25-1.24,0-1.24,0
	c-0.15-0.06-0.39-0.14-0.51-0.18c-0.02-0.01-0.04-0.01-0.07-0.02l-0.01,0l0,0c-0.37-0.09-0.73,0.09-0.73,0.09l-1.45,0.81
	c-1.1,0.63-1.5,0.02-1.5,0.02c-0.08-0.13-0.05-0.28-0.04-0.3c0-0.02,0.01,0,0.01,0c0.05,0.2,0.21,0.11,0.21,0.11
	c0.12-0.11,0.02-0.26,0.02-0.26c-0.06-0.07-0.13-0.1-0.19-0.11c-0.14-0.02-0.23,0.08-0.23,0.08c-0.21,0.23,0,0.58,0,0.58
	c0.28,0.46,0.94,0.42,0.94,0.42c0.48-0.02,0.8-0.18,0.8-0.18c0.09-0.03,0.8-0.42,0.8-0.42c0.28-0.16,0.68-0.36,0.68-0.36
	c0.51-0.26,0.77-0.05,0.77-0.05c0.04,0.03,0.06,0.06,0.08,0.08c-0.12-0.07-0.3,0.01-0.3,0.01c-0.28,0.14-0.1,0.45-0.1,0.45
	c0.11,0.16,0.25,0.19,0.36,0.18l0,0c0.24,0.01,0.54-0.19,0.54-0.19c0.53-0.34,0.98,0,0.98,0c0.4,0.25,0.54,0.19,0.54,0.19l0,0
	c0.11,0.01,0.25-0.01,0.36-0.18c0,0,0.17-0.31-0.1-0.45c0,0-0.18-0.09-0.3,0c0.02-0.03,0.05-0.06,0.08-0.09c0,0,0.27-0.22,0.77,0.05
	c0,0,0.4,0.19,0.68,0.36c0,0,0.72,0.39,0.8,0.42c0,0,0.32,0.16,0.8,0.18c0,0,0.66,0.05,0.94-0.42
	C52.05,30.64,52.26,30.28,52.05,30.06z"/>
<path class="st9" d="M43.89,38.47c0,0-0.33-0.03-0.33,0.26c0,0-0.01,0.22,0.21,0.25c-0.03,0.06-0.11,0.22-0.29,0.27
	c-0.3,0.09-0.56,0-0.71-0.12c-0.17-0.13-0.27-0.37-0.31-0.42c-0.03-0.06-0.31-0.69-0.52-1.36c0,0-0.19-0.58-0.33-0.89l-0.06-0.12
	c1.04-0.32,1.32-1.44,1.32-1.44c0.21-0.84-0.13-1.57-0.13-1.57c-0.47-1.11-1.28-1.11-1.28-1.11c-0.4-0.01-0.45,0.33-0.45,0.33
	c-0.04,0.24,0.13,0.33,0.13,0.33c0.28,0.15,0.45-0.05,0.45-0.05c0.11-0.15,0.07-0.28,0.06-0.33c0.12,0.04,0.29,0.14,0.48,0.37
	c0,0,0.48,0.62,0.48,1.41c0,0,0.06,1.5-1.5,1.89c0,0,0.17,0.24,0.47,1.12c0,0,0.34,1.13,0.66,1.74c0,0,0.43,0.87,1.39,0.51
	c0,0,0.57-0.25,0.57-0.66C44.19,38.88,44.23,38.5,43.89,38.47z"/>
<path class="st9" d="M46.48,40.97c0,0-0.16-0.22-0.48-0.35c-0.19-0.08-0.54-0.23-0.91-0.37c-0.53-0.21-0.69-0.35-0.77-0.81
	c0.04,0.06,0.12,0.11,0.28,0.08c0,0,0.3-0.07,0.2-0.41c0,0-0.07-0.24-0.36-0.21c0,0-0.28,0.01-0.4,0.39c0,0-0.09,0.32,0.07,0.6
	c0.18,0.31,0.63,0.51,0.85,0.6c0,0,0.87,0.34,1.13,0.54c0,0,0.32,0.26,0.21,0.52c0-0.03-0.01-0.07-0.03-0.12c0,0-0.1-0.17-0.35-0.07
	c0,0-0.21,0.11-0.13,0.33c0,0,0.08,0.21,0.33,0.21c0,0,0.19-0.01,0.32-0.14C46.64,41.57,46.65,41.17,46.48,40.97z"/>
<path class="st7" d="M51.3,42.57c0,0,0.75-0.34,0.52-0.92c0,0-0.07-0.2-0.24-0.18c0,0-0.29,0.01-0.23,0.4
	C51.35,41.87,51.44,42.24,51.3,42.57z"/>
<path class="st7" d="M52.37,42.05c0,0,0.53-0.33,0.24-0.88c0,0-0.08-0.16-0.24-0.13c0,0-0.33,0.1-0.07,0.55
	C52.3,41.59,52.43,41.88,52.37,42.05z"/>
<path class="st7" d="M50.8,42.42c0,0-0.59-0.15-0.48-0.75c0,0,0.06-0.26,0.31-0.23c0,0,0.3,0.08,0.1,0.46
	C50.73,41.9,50.61,42.18,50.8,42.42z"/>
<path class="st4" d="M47.29,25.28c0,0,0.15-0.26,0.6-0.21C47.89,25.07,47.77,25.43,47.29,25.28z"/>
<path class="st8" d="M47.6,25.09c0.05,0,0.09,0.05,0.09,0.11c0,0.06-0.04,0.11-0.09,0.11c-0.05,0-0.09-0.05-0.09-0.11
	C47.51,25.14,47.55,25.09,47.6,25.09z"/>
<path class="st4" d="M46.73,25.28c0,0-0.15-0.26-0.6-0.21C46.13,25.07,46.25,25.43,46.73,25.28z"/>
<path class="st8" d="M46.42,25.09c0.05,0,0.09,0.05,0.09,0.11c0,0.06-0.04,0.11-0.09,0.11c-0.05,0-0.09-0.05-0.09-0.11
	C46.33,25.14,46.37,25.09,46.42,25.09z"/>
<linearGradient id="SVGID_1_" gradientUnits="userSpaceOnUse" x1="31.9973" y1="62" x2="31.9973" y2="2">
	<stop  offset="0" style="stop-color:#1A1A1A"/>
	<stop  offset="0.102" style="stop-color:#393939;stop-opacity:0.949"/>
	<stop  offset="0.3475" style="stop-color:#7F7F7F;stop-opacity:0.8262"/>
	<stop  offset="0.5688" style="stop-color:#B6B6B6;stop-opacity:0.7156"/>
	<stop  offset="0.7582" style="stop-color:#DEDEDE;stop-opacity:0.6209"/>
	<stop  offset="0.9081" style="stop-color:#F6F6F6;stop-opacity:0.5459"/>
	<stop  offset="1" style="stop-color:#FFFFFF;stop-opacity:0.5"/>
</linearGradient>
<path class="st10" d="M62,32c0,16.57-13.43,30-30,30C15.43,62,2,48.57,2,32S15.43,2,32,2C48.57,2,62,15.43,62,32z"/>
</svg>
