<?xml version="1.0" encoding="utf-8"?>
<!-- Generator: Adobe Illustrator 24.1.2, SVG Export Plug-In . SVG Version: 6.00 Build 0)  -->
<svg version="1.1" id="Layer_1" xmlns="http://www.w3.org/2000/svg" xmlns:xlink="http://www.w3.org/1999/xlink" x="0px" y="0px"
	 width="64px" height="64px" viewBox="0 0 64 64" style="enable-background:new 0 0 64 64;" xml:space="preserve">
<style type="text/css">
	.st0{fill:#007934;}
	.st1{fill:#FFE000;}
	.st2{fill:#1A1626;}
	.st3{fill:#FCFCFC;}
	.st4{fill:#CE1126;}
	.st5{fill:#9461C9;}
	.st6{fill:#9C4A00;}
	.st7{opacity:0.1;fill:url(#SVGID_1_);}
</style>
<path class="st0" d="M26,2.6C14.25,4.99,4.99,14.25,2.6,26H26V2.6z"/>
<path class="st0" d="M38,61.4C49.75,59.01,59.01,49.75,61.4,38H38V61.4z"/>
<path class="st0" d="M2.6,38C4.99,49.75,14.25,59.01,26,61.4V38H2.6z"/>
<path class="st0" d="M61.4,26C59.01,14.25,49.75,4.99,38,2.6V26H61.4z"/>
<path class="st1" d="M30,26V2.07c-1.36,0.09-2.7,0.26-4,0.53V26H30z"/>
<path class="st1" d="M30,38h-4v23.4c1.3,0.27,2.64,0.44,4,0.53V38z"/>
<path class="st2" d="M30,61.93c0.66,0.04,1.33,0.07,2,0.07c0.67,0,1.34-0.03,2-0.07V38h-4V61.93z"/>
<path class="st2" d="M34,2.07C33.34,2.03,32.67,2,32,2c-0.67,0-1.34,0.03-2,0.07V26h4V2.07z"/>
<path class="st3" d="M34,38v23.93c1.36-0.09,2.7-0.26,4-0.53V38H34z"/>
<path class="st3" d="M34,26h4V2.6c-1.3-0.27-2.64-0.44-4-0.53V26z"/>
<path class="st1" d="M26,30v-4H2.6c-0.27,1.3-0.44,2.64-0.53,4H26z"/>
<path class="st1" d="M38,30h23.93c-0.09-1.36-0.26-2.7-0.53-4H38V30z"/>
<path class="st2" d="M38,34h23.93c0.04-0.66,0.07-1.33,0.07-2c0-0.67-0.03-1.34-0.07-2H38V34z"/>
<path class="st2" d="M2.07,30C2.03,30.66,2,31.33,2,32c0,0.67,0.03,1.34,0.07,2H26v-4H2.07z"/>
<path class="st3" d="M38,34v4h23.4c0.27-1.3,0.44-2.64,0.53-4H38z"/>
<path class="st3" d="M26,34H2.07c0.09,1.36,0.26,2.7,0.53,4H26V34z"/>
<circle class="st4" cx="32" cy="32" r="15"/>
<path id="b" class="st0" d="M31.52,20.16L32,18.79l0.44,1.35l1.46,0.02l-1.16,0.88l0.52,1.5L32,21.62l-1.25,0.88l0.48-1.46
	l-1.14-0.86L31.52,20.16z"/>
<path id="b_1_" class="st0" d="M32.48,43.84L32,45.21l-0.44-1.35l-1.46-0.02l1.16-0.88l-0.52-1.5L32,42.38l1.25-0.88l-0.48,1.46
	l1.14,0.86L32.48,43.84z"/>
<path id="b_2_" class="st0" d="M38.57,22.14l1.2-0.83l-0.44,1.35l1.17,0.88l-1.46,0.03l-0.46,1.53l-0.48-1.5l-1.53-0.02l1.25-0.9
	l-0.41-1.37L38.57,22.14z"/>
<path id="b_3_" class="st0" d="M25.43,41.86l-1.2,0.83l0.44-1.35l-1.17-0.88l1.46-0.03l0.46-1.53l0.48,1.5l1.53,0.02l-1.25,0.9
	l0.41,1.37L25.43,41.86z"/>
<path id="b_4_" class="st0" d="M43.11,27.88l1.45,0.03l-1.15,0.83l0.43,1.4l-1.2-0.83l-1.27,0.96l0.49-1.49l-1.23-0.91l1.54,0.01
	l0.47-1.35L43.11,27.88z"/>
<path id="b_5_" class="st0" d="M20.89,36.12l-1.45-0.03l1.15-0.83l-0.43-1.4l1.2,0.83l1.27-0.96l-0.49,1.49l1.23,0.91l-1.54-0.01
	l-0.47,1.35L20.89,36.12z"/>
<path id="b_6_" class="st0" d="M43.41,35.2l1.16,0.88l-1.42,0l-0.47,1.39l-0.48-1.38l-1.59,0.03l1.28-0.92l-0.46-1.46l1.24,0.91
	l1.17-0.81L43.41,35.2z"/>
<path id="b_7_" class="st0" d="M20.59,28.8l-1.16-0.88l1.42,0l0.47-1.39l0.48,1.38l1.59-0.03l-1.28,0.92l0.46,1.46l-1.24-0.91
	l-1.17,0.81L20.59,28.8z"/>
<path id="b_8_" class="st0" d="M39.35,41.3l0.42,1.39l-1.15-0.84l-1.2,0.84l0.42-1.4l-1.31-0.91l1.57,0.01l0.49-1.45l0.47,1.46
	l1.43,0.03L39.35,41.3z"/>
<path id="b_9_" class="st0" d="M24.65,22.7l-0.42-1.39l1.15,0.84l1.2-0.84l-0.42,1.4l1.31,0.91L25.9,23.6l-0.49,1.45l-0.47-1.46
	l-1.43-0.03L24.65,22.7z"/>
<path class="st0" d="M32.58,35.98c-0.04-0.34-0.13-0.63-0.25-0.8c0-0.01,0-0.01,0-0.02c-0.06-0.55-0.29-0.96-0.52-0.92
	c-0.09,0.01-0.17,0.1-0.22,0.22c-0.1-0.33-0.27-0.55-0.44-0.52c-0.23,0.04-0.37,0.51-0.31,1.05c0.03,0.24,0.09,0.46,0.16,0.62
	c-0.03,0.16-0.04,0.35-0.02,0.54c0.05,0.52,0.29,0.91,0.52,0.89c0,0.02,0,0.03,0,0.05c0.06,0.53,0.3,0.92,0.53,0.89
	c0.23-0.03,0.37-0.45,0.34-0.94C32.55,36.88,32.64,36.46,32.58,35.98z"/>
<path class="st5" d="M30.53,26.73c0,0-1.47,1.27-1.3,4.71c0.18,3.46,3.24,5.09,3.24,5.09s0.78-0.98,0.69-3.76
	c-0.22-4.07-1.66-5.86-1.66-5.86L30.53,26.73z"/>
<path class="st0" d="M35.88,35.86c-0.17-2.43-0.74-4.36-1.26-4.31c-0.05,0.01-0.1,0.03-0.15,0.07c-0.1-0.2-0.2-0.31-0.3-0.3
	c-0.09,0.01-0.17,0.12-0.24,0.32c-0.07-0.06-0.13-0.09-0.2-0.08c-0.34,0.04-0.58,1.04-0.62,2.47c-0.06-0.13-0.14-0.21-0.24-0.21
	c-0.23-0.01-0.45,0.43-0.49,0.98c-0.02,0.24,0,0.46,0.05,0.64c-0.06,0.15-0.1,0.33-0.11,0.53c-0.01,0.14-0.01,0.28,0.01,0.4
	c-0.08,0.19-0.12,0.47-0.08,0.77c0.06,0.53,0.3,0.92,0.53,0.89c0.06-0.01,0.11-0.04,0.16-0.1c0.03,0.02,0.06,0.03,0.09,0.03
	c0.11,0,0.22-0.09,0.31-0.23c0.25,1.59,0.65,2.69,1.02,2.65c0.01,0,0.02,0,0.04-0.01c0.15,0.46,0.31,0.72,0.45,0.7
	c0.14-0.01,0.25-0.27,0.33-0.7c0.02,0,0.04,0.01,0.06,0C35.77,40.31,36.05,38.29,35.88,35.86z"/>
<path class="st4" d="M32.14,29.16c0.64-0.25,1.82,1.12,2.65,3.04c0.83,1.93,0.98,3.69,0.34,3.93c-0.64,0.25-1.82-1.12-2.65-3.04
	C31.66,31.16,31.5,29.4,32.14,29.16z"/>
<path class="st0" d="M36.32,36.84c0.03-0.34,0.01-0.71-0.11-1.14c0.27-0.81,0.01-2.43-0.74-4.16c-0.55-1.29-1.26-2.37-1.92-3.02
	c0.01-0.03,0.01-0.07,0.01-0.1c0-0.26-0.21-0.48-0.47-0.48c0,0-0.01,0-0.01,0c0-0.01,0-0.01,0-0.02c0-0.12-0.05-0.24-0.14-0.32
	c0.05-0.07,0.09-0.15,0.09-0.24c0-0.24-0.2-0.43-0.47-0.45c0.06-0.07,0.09-0.16,0.1-0.25c0-0.25-0.22-0.45-0.5-0.46
	c-0.16,0-0.3,0.06-0.39,0.16c-0.08-0.06-0.18-0.09-0.28-0.09c-0.12,0-0.24,0.04-0.32,0.12c-0.08-0.08-0.2-0.13-0.33-0.13
	c-0.27,0-0.49,0.2-0.49,0.46c0,0.01,0,0.01,0,0.02c-0.12,0.08-0.2,0.22-0.21,0.37c0,0,0,0,0,0c-0.1,0.09-0.17,0.21-0.17,0.35
	c0,0.26,0.21,0.48,0.47,0.48c0.14,0,0.27-0.06,0.36-0.15c0.09,0.07,0.22,0.12,0.35,0.12c0.07,0,0.14-0.01,0.2-0.03
	c-0.02,0.04-0.03,0.09-0.03,0.14c0,0.25,0.18,0.45,0.43,0.48c-0.23,0.83,0.03,2.41,0.76,4.09c0.71,1.65,1.66,2.95,2.45,3.45
	c0.82,1.05,1.04,1.6,1.39,2.4C36.42,37.96,36.49,37.45,36.32,36.84z"/>
<path class="st5" d="M34.98,28.43c0.19-0.07,0.38-0.21,0.56-0.43c-0.2,0-0.45-0.13-0.72-0.3c0.17-0.08,0.34-0.21,0.5-0.41
	c-0.25,0-0.58-0.2-0.92-0.44c0.15-0.08,0.29-0.2,0.43-0.37c-0.26,0-0.6-0.21-0.95-0.46c0.23,0.06,0.5,0.08,0.85,0.02
	c-0.76-0.29-1.77-1.5-2.37-1.79c-0.73-0.37-1.66-0.26-2.17,0.12c-0.45,0.35-0.57,1.1-0.29,1.57c0.28,0.5,1.07,0.75,2.03,0.61
	c0.17-0.02,0.32-0.05,0.45-0.08c0.05,0.11,0.12,0.22,0.2,0.3c-0.09,0.22,0.04,0.51,0.2,0.69c-0.17,0.26,0.06,0.67,0.27,0.82
	c0.25,0.23,1.67,1.73,2.68,0.47C35.5,28.73,35.25,28.61,34.98,28.43z"/>
<path class="st4" d="M31.25,24.86c0.24,0,0.44,0.12,0.43,0.26c0,0.14-0.2,0.25-0.44,0.25c-0.24,0-0.44-0.12-0.43-0.26
	C30.82,24.96,31.01,24.85,31.25,24.86z"/>
<path d="M31.23,24.96c0.09,0,0.16,0.06,0.16,0.14c0,0.08-0.07,0.13-0.16,0.13c-0.09,0-0.16-0.06-0.16-0.14
	C31.07,25.01,31.14,24.95,31.23,24.96z"/>
<path class="st1" d="M30.49,25.92c-0.04-0.1-0.13-0.16-0.26-0.18c0.06-0.1,0.08-0.2,0.06-0.29c-0.07-0.36-0.34-0.37-0.78-0.23
	c-0.52,0.11-0.82,0.59-0.34,1.71c0.06-0.2,0.13-0.37,0.22-0.5c0.11,0.13,0.39,0.17,0.66,0.06C30.36,26.37,30.56,26.12,30.49,25.92z"
	/>
<path class="st6" d="M27.58,38.26c0.77-0.03,0.43-0.44,0.82-0.66c0.39-0.22,0.94-0.07,1.1,0.2c0.17,0.27,0.03,0.54,0.25,0.54
	c0.21,0,5.99-0.24,6.2-0.01c0.21,0.23,0.24,0.68,0.03,0.85c-0.22,0.18-7.52,0.26-7.77,0.07C27.95,39.07,27.58,38.3,27.58,38.26z"/>
<path class="st1" d="M33.21,38.81c0.01-0.58,0.87-0.43,0.86-0.87c-0.01-0.23-0.28-0.28-0.58-0.17c-0.11-0.09-0.33-0.08-0.55,0.01
	c-0.1-0.07-0.29-0.07-0.49,0c-0.29-0.23-1.32,0.22-1.37,1.03c0.01,0.81,1.06,1.27,1.36,1.06c0.23,0.08,0.44,0.08,0.54-0.02
	c0.21,0.07,0.4,0.08,0.51,0.01c0.3,0.11,0.58,0.07,0.59-0.15C34.05,39.23,33.2,39.39,33.21,38.81z"/>
<linearGradient id="SVGID_1_" gradientUnits="userSpaceOnUse" x1="32" y1="62" x2="32" y2="2">
	<stop  offset="0" style="stop-color:#1A1A1A"/>
	<stop  offset="0.102" style="stop-color:#393939;stop-opacity:0.949"/>
	<stop  offset="0.3475" style="stop-color:#7F7F7F;stop-opacity:0.8262"/>
	<stop  offset="0.5688" style="stop-color:#B6B6B6;stop-opacity:0.7156"/>
	<stop  offset="0.7582" style="stop-color:#DEDEDE;stop-opacity:0.6209"/>
	<stop  offset="0.9081" style="stop-color:#F6F6F6;stop-opacity:0.5459"/>
	<stop  offset="1" style="stop-color:#FFFFFF;stop-opacity:0.5"/>
</linearGradient>
<circle class="st7" cx="32" cy="32" r="30"/>
</svg>
