<?xml version="1.0" encoding="utf-8"?>
<!-- Generator: Adobe Illustrator 24.1.2, SVG Export Plug-In . SVG Version: 6.00 Build 0)  -->
<svg version="1.1" id="Layer_1" xmlns="http://www.w3.org/2000/svg" xmlns:xlink="http://www.w3.org/1999/xlink" x="0px" y="0px"
	 width="64px" height="64px" viewBox="0 0 64 64" style="enable-background:new 0 0 64 64;" xml:space="preserve">
<style type="text/css">
	.st0{fill:#E81C27;}
	.st1{fill:#1A1626;}
	.st2{opacity:0.1;fill:url(#SVGID_1_);}
</style>
<circle class="st0" cx="32" cy="32" r="30"/>
<path class="st1" d="M48.92,41.89c-0.9-1.61-3.42-0.41-4.72-0.36c0.65-0.55,2.54-1.88,3.49-1.92c-0.66-0.55-2.03-0.12-2.52,0.47
	c-1.79,2.14-2.95,0.98-5.54,0.23c2.11-2.18-6.01-3.76-3.43-5.55c0.54-0.38,1.44,3.08,2.84,2.52c0.6-0.24-2.33-2.46-0.78-3
	c0.54-0.19,2.54,5.71,3.93,3.31c0.52-0.9-3.09-1.68-2.07-3.49c-0.74,1.31,8.81,6.19,7.58,3.02c-0.57-1.48-6.36-0.41-5.86-4.32
	c-0.13,1.05,6.74,4.21,5.97,1.25c-0.17-0.65-6.89-0.19-5.71-3.37c0.18-0.49,5.89,3.87,5.69,0.65c-0.08-1.17-6.08-0.26-5.48-2.92
	c0.01-0.05,6.21,2.58,5.48-0.18c-0.1-0.38-6.87,0.38-5.63-1.96c-0.57,1.08,8.12,0.55,5.53-1.57c-0.9-0.74-4.73,2.7-5.46-0.32
	c0.1,0.4,7.5-0.59,5.41-2.72c-0.54-0.56-5.17,3.09-5.34,0.7c-0.04-0.46,6.2-3.36,5.26-4.88c-1.14-1.84-7.19,3.18-7.9,3.51
	c-4.67,2.17,0.05,0.9-2.33,3.69c-1.38,1.63-2.46-0.92-2.07-2c0.84-2.31,5.58-2.05,5.8-3.52c-0.71,0.45-1.38,0.44-1.98-0.05
	c0.1-0.01,5.05-0.74,3.41-1.41c-0.19-0.08-0.75,0.25-1.38,0.57c0.1-2.44-6.43-0.58-7.08-0.54c2.72,2.29-2.17,0.97,0.61,2.15
	c-0.72,0.13-1.35,0.45-1.88,0.94c1.29,0.23-0.75,1.66-0.75,1.66s-2.05-1.42-0.75-1.66c-0.53-0.49-1.16-0.81-1.88-0.94
	c2.78-1.19-2.11,0.13,0.61-2.15c-0.65-0.04-7.18-1.9-7.08,0.54c-0.63-0.31-1.19-0.65-1.38-0.57c-1.64,0.67,3.32,1.41,3.41,1.41
	c-0.61,0.48-1.27,0.5-1.98,0.05c0.22,1.47,4.96,1.21,5.8,3.52c0.39,1.07-0.69,3.62-2.07,2c-2.37-2.79,2.34-1.52-2.33-3.69
	c-0.71-0.33-6.76-5.35-7.9-3.51c-0.95,1.52,5.29,4.41,5.26,4.88c-0.17,2.39-4.8-1.26-5.34-0.7c-2.08,2.13,5.31,3.13,5.41,2.72
	c-0.73,3.02-4.56-0.42-5.46,0.32c-2.59,2.13,6.1,2.66,5.53,1.57c1.24,2.34-5.53,1.58-5.63,1.96c-0.73,2.76,5.47,0.13,5.48,0.18
	c0.6,2.66-5.41,1.75-5.48,2.92c-0.21,3.21,5.51-1.14,5.69-0.65c1.18,3.18-5.54,2.72-5.71,3.37c-0.77,2.96,6.11-0.21,5.97-1.25
	c0.5,3.91-5.28,2.84-5.86,4.32c-1.23,3.17,8.32-1.71,7.58-3.02c1.02,1.81-2.59,2.59-2.07,3.49c1.39,2.4,3.4-3.5,3.94-3.31
	c1.54,0.54-1.38,2.76-0.78,3c1.4,0.56,2.3-2.89,2.84-2.52c2.58,1.8-5.53,3.38-3.43,5.55c-2.59,0.75-3.75,1.91-5.54-0.23
	c-0.49-0.59-1.86-1.02-2.52-0.47c0.96,0.04,2.85,1.37,3.5,1.92c-1.3-0.04-3.81-1.24-4.72,0.36c1.13-0.46,3.6,0.02,4.7,0.1
	c-1.2,1.02-3.39,0.29-2.98,2.76c0.6-1.99,6.59-3.53,7.3-0.65c0.72-1.28-2.12-2-2.74-2.18c0.42-0.13,5.08-0.13,5.08-0.13
	s2.6-5.14,3.76-3.87c2.79,3.04-4.65,4.65-4.9,5.27c-0.78,1.92,3.76,0.18,3.63,0.06c1.25,1.15-3.03,2.06-3.02,2.43
	c0.05,2.08,3.49-0.81,3.65-0.78c1.63,0.38-2.29,2.84-2.25,2.54c-0.33,2.24,3.4-0.69,3.34-1.19c0.39,0.55,0.37,1.14-0.06,1.77
	c-1.34,2.33-0.1,2.58,1.39,4.96c1.49-2.38,2.73-2.63,1.39-4.96c-0.43-0.63-0.44-1.21-0.06-1.77c-0.06,0.5,3.67,3.42,3.34,1.19
	c0.04,0.3-3.88-2.17-2.25-2.54c0.16-0.04,3.6,2.85,3.65,0.78c0.01-0.37-4.27-1.29-3.02-2.43c-0.13,0.12,4.4,1.86,3.62-0.06
	c-0.25-0.62-7.69-2.23-4.9-5.27c1.16-1.27,3.76,3.87,3.76,3.87s4.67-0.01,5.09,0.13c-0.61,0.17-3.46,0.9-2.74,2.18
	c0.71-2.88,6.71-1.34,7.3,0.65c0.41-2.47-1.78-1.73-2.98-2.76C45.32,41.91,47.79,41.42,48.92,41.89z M41,18.31
	c-0.58,0.28-1.2,0.53-1.64,0.42C39.74,18.25,40.5,17.75,41,18.31z M37.82,17.87c1.02,0.22,1.02,0.46,0,0.71
	C36.81,18.34,36.81,18.1,37.82,17.87z M23,18.31c0.5-0.56,1.26-0.06,1.64,0.42C24.2,18.84,23.58,18.59,23,18.31z M26.18,18.58
	c-1.02-0.26-1.02-0.49,0-0.71C27.19,18.1,27.19,18.34,26.18,18.58z"/>
<linearGradient id="SVGID_1_" gradientUnits="userSpaceOnUse" x1="32" y1="62" x2="32" y2="2">
	<stop  offset="0" style="stop-color:#1A1A1A"/>
	<stop  offset="0.102" style="stop-color:#393939;stop-opacity:0.949"/>
	<stop  offset="0.3475" style="stop-color:#7F7F7F;stop-opacity:0.8262"/>
	<stop  offset="0.5688" style="stop-color:#B6B6B6;stop-opacity:0.7156"/>
	<stop  offset="0.7582" style="stop-color:#DEDEDE;stop-opacity:0.6209"/>
	<stop  offset="0.9081" style="stop-color:#F6F6F6;stop-opacity:0.5459"/>
	<stop  offset="1" style="stop-color:#FFFFFF;stop-opacity:0.5"/>
</linearGradient>
<circle class="st2" cx="32" cy="32" r="30"/>
</svg>
