<?xml version="1.0" encoding="utf-8"?>
<!-- Generator: Adobe Illustrator 24.1.2, SVG Export Plug-In . SVG Version: 6.00 Build 0)  -->
<svg version="1.1" id="Layer_1" xmlns="http://www.w3.org/2000/svg" xmlns:xlink="http://www.w3.org/1999/xlink" x="0px" y="0px"
	 width="64px" height="64px" viewBox="0 0 64 64" style="enable-background:new 0 0 64 64;" xml:space="preserve">
<style type="text/css">
	.st0{fill:#FFF300;}
	.st1{fill:#FCFCFC;}
	.st2{fill:#1A1626;}
	.st3{fill:#CE1126;}
	.st4{opacity:0.1;fill:url(#SVGID_1_);}
</style>
<path class="st0" d="M32,2C21.18,2,11.7,7.73,6.42,16.32v19.06H2.19C3.87,50.36,16.57,62,32,62c10.82,0,20.3-5.73,25.57-14.32V28.62
	h4.23C60.13,13.65,47.43,2,32,2z"/>
<path class="st1" d="M2.71,25.49l58.57,13.02C61.75,36.41,62,34.24,62,32c0-1.14-0.07-2.27-0.2-3.38L6.42,16.32
	C4.71,19.11,3.44,22.2,2.71,25.49z"/>
<path class="st2" d="M61.28,38.51L2.71,25.49C2.25,27.59,2,29.76,2,32c0,1.14,0.07,2.27,0.19,3.38l55.38,12.31
	C59.29,44.89,60.55,41.8,61.28,38.51z"/>
<path class="st3" d="M43.87,44.92c-0.34-0.06-0.41-0.08-0.41-0.12c0-0.02,0.08-0.17,0.17-0.33c0.26-0.43,0.22-0.74-0.11-1.05
	c-0.38-0.36-1.07-0.46-1.64-0.24c-0.42,0.16-0.45,0.13-0.24-0.21c0.14-0.23,0.18-0.35,0.2-0.59c0.02-0.38-0.05-0.61-0.28-0.86
	c-0.24-0.27-0.48-0.38-0.82-0.38c-0.39,0-0.62,0.12-1.1,0.57c-1.73,1.63-3.94,2.73-6.13,3.06c-0.73,0.11-1.96,0.15-2.58,0.08
	c-2.44-0.27-4.53-1.28-6.45-3.12c-0.64-0.61-0.92-0.76-1.35-0.73c-0.53,0.04-0.97,0.48-1.01,1.01c-0.03,0.42,0.02,0.6,0.26,0.95
	c0.21,0.31,0.26,0.41,0.18,0.41c-0.02,0-0.16-0.05-0.3-0.1c-0.58-0.22-1.24-0.17-1.63,0.13c-0.38,0.29-0.47,0.66-0.25,1.04
	c0.07,0.12,0.12,0.24,0.12,0.27c0,0.03-0.13,0.11-0.29,0.17c-0.32,0.12-0.6,0.33-0.71,0.54c-0.08,0.16-0.1,0.68-0.01,0.68
	c0.03,0,0.13-0.04,0.21-0.09c0.08-0.05,0.33-0.15,0.54-0.22c0.46-0.15,1.09-0.17,1.56-0.05c0.58,0.15,1.26,0.53,1.85,1.02
	c0.57,0.47,1.28,0.72,1.74,0.6c0.48-0.13,0.67-0.37,0.67-0.84c0-0.17,0.02-0.31,0.05-0.31c0.03,0,0.19,0.1,0.37,0.22
	c0.92,0.63,2.25,1.09,3.71,1.29c1.92,0.25,4.43-0.04,6.16-0.73c0.57-0.23,0.89-0.4,1.38-0.74c0.19-0.13,0.36-0.24,0.38-0.24
	c0.01,0,0.02,0.16,0,0.35c-0.02,0.3-0.01,0.38,0.08,0.51c0.16,0.25,0.45,0.37,0.88,0.38c0.46,0,0.76-0.13,1.24-0.56
	c0.43-0.39,0.96-0.7,1.46-0.86c0.32-0.11,0.49-0.13,0.95-0.13c0.61,0,0.91,0.05,1.43,0.27c0.18,0.08,0.35,0.14,0.38,0.14
	c0.02,0,0.04-0.12,0.04-0.28C44.57,45.32,44.32,44.99,43.87,44.92z"/>
<path class="st3" d="M30.98,44.38L30.98,44.38c1.52,0.08,3.06-0.06,4.5-0.54c3.19-1,5.6-3.77,6.56-6.92
	c0.71-2.48,0.65-5.26-0.55-7.59c-0.35-0.65-0.93-1.61-1.39-1.85c0.81,1.63,1.09,3.51,0.84,5.32c-0.29,3.34-2.69,6.32-5.83,7.43
	c-1.42,0.46-2.97,0.92-4.46,0.49c-3.77-0.55-6.92-3.7-7.59-7.43c-0.43-1.87-0.16-3.84,0.65-5.57c-1.02,0.98-1.62,2.35-1.91,3.71
	c-0.56,3.01,0.02,6.3,1.84,8.79C25.32,42.6,28.08,44.1,30.98,44.38z"/>
<path class="st3" d="M20.29,40.62c0.09-0.16-0.08-0.33-0.24-0.29c-0.23,0.05-0.44,0.16-0.67,0.21c-0.49,0.14-1.01,0.19-1.52,0.15
	c-0.37-0.05-0.74-0.16-1.08-0.31c-0.12-0.05-0.23-0.13-0.37-0.15c-0.19-0.03-0.4,0.16-0.33,0.35c0.14,0.2,0.37,0.29,0.59,0.39
	c0.49,0.2,1.02,0.28,1.54,0.27c0.02,0,0.15,0,0.2,0c0.43,0,0.86-0.08,1.27-0.22C19.91,40.94,20.2,40.87,20.29,40.62z"/>
<path class="st3" d="M17.89,39.92c-0.33-0.04-0.64-0.16-0.93-0.3c-0.11-0.05-0.21-0.14-0.34-0.16l0,0
	c-0.19-0.03-0.36,0.19-0.28,0.37c0.15,0.21,0.4,0.33,0.63,0.43c0.39,0.15,0.81,0.22,1.22,0.22c0.03,0,0.13,0,0.17,0
	c0.37,0,0.73-0.07,1.07-0.21c0.21-0.08,0.46-0.16,0.55-0.39c0.07-0.13,0.02-0.31-0.14-0.32c-0.14-0.01-0.27,0.08-0.4,0.13
	C18.95,39.88,18.42,39.96,17.89,39.92z"/>
<path class="st3" d="M19.35,38.9c-0.36,0.18-0.76,0.28-1.16,0.28c-0.35,0.01-0.68-0.14-0.98-0.29c-0.11-0.06-0.2-0.15-0.32-0.18l0,0
	c-0.17-0.02-0.28,0.17-0.25,0.31c0.03,0.13,0.14,0.22,0.24,0.3c0.4,0.29,0.91,0.42,1.4,0.4c-0.19,0,0.25,0,0.12,0
	c0.31,0,0.62-0.08,0.9-0.21c0.19-0.08,0.41-0.18,0.47-0.39c0.03-0.1,0.05-0.24-0.06-0.3C19.57,38.76,19.45,38.86,19.35,38.9z"/>
<path class="st3" d="M16.7,33.83c0.21,0.39,0.13,0.85,0.18,1.27c0.04,1.15,0.03,2.3,0,3.46c0.52,0.26,1.09,0.52,1.68,0.42
	c0.35-0.08,1.01-0.14,1.09-0.49c-0.03-1.99-0.05-3.97-0.07-5.96c-0.2-0.61-0.82-0.92-1.28-1.31c-0.38-0.38-0.74-0.78-1.06-1.21
	c-0.2-0.33-0.96-0.45-0.69,0.13c0.16,0.5,0.58,0.87,0.68,1.39c0.02,0.29,0.37,0.82,0.07,0.98c-0.19-0.32-0.46-0.59-0.8-0.75
	c-0.33-0.25-0.88-0.35-1-0.79c-0.09-0.62-0.41-1.18-0.82-1.65c0.11-0.56,0-1.25-0.48-1.61l-0.07-0.02c-0.24,0.24-0.06,0.7-0.07,1.02
	c0.13,0.99,0.29,1.98,0.65,2.91C15.16,32.54,16.12,33.03,16.7,33.83z"/>
<path class="st3" d="M14.13,27.71L14.13,27.71L14.13,27.71z"/>
<path class="st3" d="M14.84,29.29c0.4,0.46,0.7,1.01,0.79,1.62c0,0.23,0.24,0.3,0.4,0.42c0.37,0.23,0.78,0.4,1.1,0.69
	c0.07,0.07,0.12,0.15,0.07,0c-0.05-0.19-0.08-0.4-0.23-0.55c-0.2-0.22-0.46-0.42-0.76-0.48c-0.03-0.31-0.17-0.59-0.31-0.86
	c-0.15-0.26-0.31-0.54-0.56-0.71c0.01-0.46,0-0.94-0.19-1.36c-0.06-0.11-0.14-0.24-0.28-0.24l0,0c-0.22,0.04-0.21,0.32-0.11,0.47
	C14.87,28.61,14.9,28.96,14.84,29.29z"/>
<path class="st3" d="M15.49,29.34c0.28,0.23,0.46,0.55,0.62,0.87c0.1,0.21,0.2,0.43,0.24,0.66c0.23,0.08,0.43,0.22,0.61,0.38
	c-0.07-0.22-0.23-0.38-0.34-0.58c-0.12-0.21-0.23-0.42-0.27-0.65c-0.22-0.24-0.35-0.57-0.3-0.9c0.01-0.36-0.11-0.73-0.35-1
	C15.65,28.07,15.58,28,15.49,28c-0.15,0.05-0.13,0.24-0.08,0.35C15.49,28.68,15.5,29.01,15.49,29.34z"/>
<path class="st3" d="M16.2,29.25c-0.01,0.19,0.06,0.37,0.16,0.53c0.03-0.12,0.14-0.2,0.25-0.21c0.04-0.01,0.11,0.01,0.08-0.05
	c-0.03-0.36-0.09-0.72-0.21-1.06c-0.05-0.12-0.1-0.25-0.21-0.33c-0.02-0.02-0.05-0.03-0.07-0.02l0,0c-0.08,0.01-0.13,0.09-0.18,0.16
	c-0.02,0.07,0.06,0.14,0.08,0.21C16.19,28.71,16.23,28.98,16.2,29.25z"/>
<path class="st3" d="M47.59,40.24c-0.13,0.02-0.25,0.09-0.37,0.15c-0.34,0.15-0.71,0.26-1.08,0.31c-0.51,0.04-1.03-0.01-1.52-0.15
	c-0.23-0.06-0.44-0.16-0.67-0.21c-0.17-0.03-0.33,0.13-0.24,0.29c0.09,0.25,0.38,0.32,0.61,0.4c0.41,0.15,0.84,0.23,1.27,0.22
	c0.05,0,0.19,0,0.2,0c0.52,0.01,1.05-0.08,1.54-0.27c0.21-0.09,0.45-0.19,0.59-0.39C47.99,40.39,47.78,40.21,47.59,40.24z"/>
<path class="st3" d="M44.57,40.26c0.34,0.14,0.71,0.21,1.07,0.21c0.04,0,0.14,0,0.17,0c0.41,0.01,0.83-0.06,1.22-0.22
	c0.23-0.1,0.48-0.21,0.63-0.43c0.08-0.18-0.08-0.4-0.28-0.37l0,0c-0.13,0.02-0.23,0.1-0.34,0.16c-0.3,0.14-0.61,0.26-0.93,0.3
	c-0.52,0.04-1.06-0.04-1.54-0.24c-0.13-0.04-0.26-0.13-0.4-0.13c-0.16,0.01-0.21,0.19-0.14,0.32C44.1,40.1,44.36,40.18,44.57,40.26z
	"/>
<path class="st3" d="M44.72,39.51c0.28,0.13,0.59,0.21,0.9,0.21c-0.13,0,0.31,0,0.12,0c0.49,0.02,1-0.11,1.4-0.4
	c0.1-0.08,0.21-0.17,0.24-0.3c0.03-0.15-0.08-0.33-0.25-0.31l0,0c-0.12,0.03-0.21,0.12-0.32,0.18c-0.3,0.16-0.63,0.3-0.98,0.29
	c-0.4,0-0.8-0.1-1.16-0.28c-0.11-0.04-0.22-0.14-0.34-0.08c-0.11,0.06-0.09,0.2-0.06,0.3C44.31,39.34,44.53,39.43,44.72,39.51z"/>
<polygon class="st3" points="49.87,27.71 49.87,27.71 49.87,27.71 "/>
<path class="st3" d="M49.87,27.71l-0.07,0.02c-0.48,0.36-0.59,1.05-0.48,1.61c-0.41,0.46-0.73,1.03-0.82,1.65
	c-0.12,0.44-0.67,0.54-1,0.79c-0.34,0.16-0.62,0.43-0.8,0.75c-0.29-0.17,0.05-0.7,0.07-0.98c0.1-0.52,0.52-0.9,0.68-1.39
	c0.28-0.58-0.49-0.46-0.69-0.13c-0.33,0.42-0.68,0.83-1.06,1.21c-0.46,0.39-1.08,0.7-1.28,1.31c-0.03,1.99-0.04,3.97-0.07,5.96
	c0.07,0.35,0.73,0.41,1.09,0.49c0.6,0.1,1.16-0.16,1.68-0.42c-0.02-1.15-0.03-2.3,0-3.46c0.04-0.42-0.03-0.89,0.18-1.27
	c0.58-0.8,1.54-1.29,1.99-2.19c0.37-0.93,0.53-1.93,0.65-2.91C49.93,28.4,50.12,27.95,49.87,27.71z"/>
<path class="st3" d="M48.09,30.13c-0.14,0.27-0.28,0.56-0.31,0.86c-0.3,0.07-0.55,0.26-0.76,0.48c-0.15,0.14-0.18,0.36-0.23,0.55
	c-0.05,0.15,0,0.07,0.07,0c0.33-0.29,0.74-0.46,1.1-0.69c0.16-0.11,0.39-0.19,0.4-0.42c0.09-0.61,0.4-1.16,0.79-1.62
	c-0.06-0.34-0.03-0.68,0.08-1.01c0.1-0.15,0.11-0.43-0.11-0.47l0,0c-0.14,0.01-0.22,0.14-0.28,0.24c-0.2,0.42-0.2,0.9-0.19,1.36
	C48.4,29.59,48.24,29.87,48.09,30.13z"/>
<path class="st3" d="M47.65,30.02c-0.05,0.23-0.16,0.45-0.27,0.65c-0.11,0.2-0.27,0.36-0.34,0.58c0.18-0.16,0.38-0.3,0.61-0.38
	c0.04-0.23,0.14-0.45,0.24-0.66c0.16-0.32,0.34-0.64,0.62-0.87c-0.01-0.33,0.01-0.66,0.08-0.99c0.05-0.12,0.08-0.31-0.08-0.35
	c-0.09,0-0.16,0.07-0.22,0.13c-0.24,0.27-0.35,0.64-0.35,1C47.99,29.45,47.87,29.79,47.65,30.02z"/>
<path class="st3" d="M47.39,29.57c0.12,0.01,0.23,0.1,0.25,0.21c0.1-0.16,0.16-0.34,0.16-0.53c-0.03-0.26,0.01-0.54,0.11-0.78
	c0.01-0.07,0.09-0.14,0.08-0.21c-0.05-0.07-0.1-0.15-0.18-0.16l0,0c-0.03,0-0.05,0.01-0.07,0.02c-0.1,0.08-0.16,0.21-0.21,0.33
	c-0.13,0.34-0.18,0.7-0.21,1.06C47.29,29.58,47.35,29.56,47.39,29.57z"/>
<path class="st3" d="M29.76,39c-0.1-0.02-0.3-0.28-0.32-0.11c0.31,0.96,1.22,1.7,2.24,1.8c0.33,0.03,0.66,0.01,0.99-0.05
	c0.55-0.09,1.04-0.4,1.41-0.82c0.22-0.28,0.44-0.58,0.56-0.92c-0.05-0.12-0.27,0.09-0.37,0.12c-0.23,0.13-0.51,0.14-0.73,0.3
	c-0.25,0.21-0.5,0.43-0.8,0.56c-0.24,0.11-0.18-0.23-0.09-0.34c0.09-0.31-0.1-0.61-0.26-0.85c-0.12-0.11-0.22-0.43-0.38-0.37
	c-0.22,0.26-0.44,0.53-0.58,0.84c-0.08,0.18-0.02,0.37,0.08,0.52c0.08,0.29-0.34,0.11-0.46,0.02c-0.25-0.14-0.42-0.4-0.69-0.51
	C30.14,39.19,29.94,39.11,29.76,39z"/>
<path class="st3" d="M30.43,38.3c-0.02,0.33,0.12,0.64,0.3,0.9c0.1,0.11,0.32,0.45,0.44,0.26c0.01-0.4,0.28-0.73,0.5-1.05
	c0.14-0.11,0.25-0.51,0.46-0.39c0.22,0.28,0.44,0.57,0.6,0.9c0.1,0.18,0.15,0.39,0.13,0.6c0.01,0.05,0.07,0.05,0.11,0.03
	c0.29-0.2,0.52-0.5,0.6-0.85c0.17-0.78-0.09-1.58-0.42-2.28c-0.17-0.36-0.27-0.76-0.2-1.16c0.04-0.32,0.24-0.58,0.46-0.8
	c0.17-0.14-0.05-0.2-0.17-0.13c-0.31,0.06-0.48,0.34-0.72,0.51c-0.2-0.01-0.07-0.36-0.19-0.5c-0.06-0.16-0.24-0.5-0.42-0.26
	c-0.18,0.16-0.2,0.4-0.28,0.61c-0.22,0.1-0.35-0.29-0.58-0.31c-0.14-0.11-0.58-0.06-0.31,0.14c0.28,0.23,0.35,0.61,0.33,0.96
	c0.02,0.46-0.21,0.86-0.36,1.28C30.51,37.24,30.41,37.77,30.43,38.3z"/>
<path class="st3" d="M33.38,29.71c-0.18-0.09-0.42-0.08-0.58,0.04c-0.17,0.09-0.26,0.29-0.44,0.35c-0.19-0.1-0.04-0.42-0.18-0.59
	c-0.1-0.26-0.34-0.02-0.34,0.16c-0.06,0.13-0.01,0.4-0.14,0.44c-0.19-0.16-0.34-0.38-0.59-0.44c-0.11-0.02-0.42-0.08-0.43,0.03
	c0.24,0.3,0.54,0.56,0.64,0.94c0.08,0.33,0.11,0.7-0.02,1.02c-0.2,0.52-0.43,1.05-0.41,1.62c0,0.35,0.06,0.78,0.39,0.97
	c0.21,0.21,0.31-0.06,0.4-0.22c0.12-0.12,0.23-0.34,0.41-0.34c0.18,0.13,0.31,0.33,0.42,0.52l0,0c0.04,0.07,0.07,0.14,0.12,0.19
	c0.23-0.11,0.45-0.28,0.51-0.53c0.11-0.42,0.11-0.86,0.04-1.29c-0.06-0.38-0.25-0.72-0.35-1.08c-0.13-0.47-0.02-0.98,0.28-1.36
	C33.18,30.02,33.44,29.88,33.38,29.71z"/>
<path class="st3" d="M24.22,26.56c0.49,0.03,0.74-0.05,1.66-0.5c0.72-0.35,1.12-0.48,1.39-0.45c0.21,0.02,0.2,0.13-0.02,0.16
	c-0.47,0.08-0.67,0.15-1.35,0.49c-0.43,0.22-0.89,0.4-1.12,0.46c-0.21,0.05-0.4,0.11-0.41,0.12c-0.01,0.01,0.01,0.1,0.07,0.2
	c0.3,0.56,1.25,0.61,1.87,0.1c0.53-0.44,1.42-0.86,1.87-0.88c0.23-0.01,0.31,0.09,0.1,0.14c-0.65,0.14-1.48,0.53-1.91,0.91
	c-0.1,0.09-0.25,0.2-0.34,0.24c-0.08,0.05-0.16,0.11-0.16,0.13c0,0.1,0.3,0.39,0.47,0.45c0.24,0.08,0.77,0.03,1.04-0.09
	c0.12-0.05,0.35-0.22,0.51-0.37c0.54-0.5,1.26-0.97,1.48-0.97c0.17,0,0.11,0.09-0.16,0.23c-0.33,0.17-0.98,0.64-1.21,0.87
	c-0.09,0.1-0.24,0.22-0.33,0.28c-0.19,0.12-0.2,0.23-0.04,0.42c0.32,0.38,1.03,0.31,1.76-0.19c0.13-0.09,0.51-0.44,0.86-0.79
	c0.43-0.44,0.64-0.62,0.67-0.58c0.04,0.04-0.03,0.15-0.21,0.36c-0.22,0.27-0.25,0.33-0.25,0.5c0.01,0.34,0.2,0.44,0.6,0.33
	c0.25-0.07,0.28,0,0.1,0.25c-0.12,0.16-0.15,0.26-0.15,0.44c0,0.35,0.08,0.52,0.34,0.71c0.12,0.09,0.23,0.17,0.23,0.17
	c0,0,0.07-0.1,0.15-0.22c0.22-0.35,0.42-0.35,0.65-0.01c0.07,0.1,0.14,0.18,0.17,0.18c0.03,0,0.15-0.08,0.26-0.17
	c0.36-0.3,0.4-0.75,0.11-1.11c-0.19-0.24-0.15-0.31,0.15-0.23c0.29,0.08,0.43,0.03,0.51-0.17c0.1-0.23,0.05-0.39-0.2-0.67
	c-0.21-0.23-0.27-0.37-0.16-0.37c0.03,0,0.3,0.26,0.62,0.58c0.79,0.82,1.3,1.14,1.95,1.2c0.32,0.03,0.57-0.05,0.73-0.25
	c0.15-0.19,0.15-0.3,0.02-0.37c-0.06-0.03-0.23-0.17-0.38-0.31c-0.32-0.3-0.76-0.6-1.19-0.83c-0.32-0.17-0.41-0.27-0.22-0.27
	c0.22,0,0.93,0.45,1.67,1.07c0.35,0.3,0.69,0.41,1.09,0.37c0.3-0.03,0.58-0.19,0.69-0.4c0.07-0.13,0.07-0.14-0.02-0.19
	c-0.05-0.03-0.25-0.17-0.44-0.31c-0.62-0.46-1.22-0.75-1.73-0.83c-0.15-0.02-0.22-0.06-0.23-0.12c-0.06-0.29,1.42,0.26,2.01,0.75
	c0.36,0.3,0.58,0.38,0.97,0.38c0.41,0,0.71-0.13,0.88-0.38c0.16-0.24,0.16-0.35-0.02-0.35c-0.24,0-0.65-0.15-1.37-0.49
	c-0.67-0.32-1.15-0.49-1.4-0.49c-0.07,0-0.11-0.03-0.11-0.07c0-0.21,0.86,0,1.57,0.39c1.15,0.62,1.97,0.62,2.59,0.01
	c0.34-0.33,0.63-0.91,0.46-0.91c-0.03,0-0.21,0.04-0.4,0.08c-0.47,0.11-1.37,0.07-1.89-0.08c-0.51-0.14-1.37-0.58-1.79-0.9
	c-0.42-0.32-0.86-0.57-1.26-0.71c-0.94-0.33-2.12-0.32-2.79,0.03c-0.31,0.16-0.61,0.42-0.69,0.61c-0.01,0.03-0.03,0.06-0.05,0.08
	v-1.73l-0.38,0.3l-0.34-0.26v1.69c-0.06-0.05-0.13-0.11-0.21-0.19c-0.52-0.53-1.11-0.74-2.04-0.74c-1,0-1.79,0.29-2.76,1.02
	c-0.5,0.38-1.24,0.75-1.8,0.91c-0.33,0.1-0.5,0.11-1.12,0.11c-0.45,0-0.81-0.03-0.94-0.06c-0.12-0.03-0.22-0.05-0.24-0.03
	c-0.07,0.07,0.27,0.63,0.5,0.85C23.53,26.42,23.77,26.53,24.22,26.56z"/>
<path class="st3" d="M30.86,22.67l0.63-0.7l0.64,0.59l0.61-0.61l0.64,0.75l0.55-0.61l0.94,0.67c-0.34-0.76-0.8-1.4-0.74-2.46
	c-0.91,0.68-3.08,0.8-4.01,0.04c-0.08,0.98-0.33,1.67-0.67,2.42l0.83-0.77L30.86,22.67z"/>
<path class="st3" d="M34.07,20.14c-0.17-0.13-0.38-0.2-0.61-0.24c-0.3-0.06-0.64-0.07-0.96-0.07c0,0.18,0,0.35,0,0.53l-0.73,0v-0.53
	c-0.33,0.01-0.69,0.01-1,0.07c-0.22,0.04-0.42,0.11-0.59,0.23C30.21,20.77,33.25,21.04,34.07,20.14z"/>
<path class="st3" d="M31.89,16.61v3.66l0.48,0l0-1.75l1.64,0.8l-0.92-1.23l1.26-0.41l-1.98-1.02v-0.03
	c0.17-0.04,0.28-0.12,0.28-0.21c0-0.12-0.2-0.23-0.48-0.23c-0.28,0-0.48,0.1-0.48,0.23C31.68,16.5,31.76,16.57,31.89,16.61z"/>
<linearGradient id="SVGID_1_" gradientUnits="userSpaceOnUse" x1="32" y1="62" x2="32" y2="2">
	<stop  offset="0" style="stop-color:#1A1A1A"/>
	<stop  offset="0.102" style="stop-color:#393939;stop-opacity:0.949"/>
	<stop  offset="0.3475" style="stop-color:#7F7F7F;stop-opacity:0.8262"/>
	<stop  offset="0.5688" style="stop-color:#B6B6B6;stop-opacity:0.7156"/>
	<stop  offset="0.7582" style="stop-color:#DEDEDE;stop-opacity:0.6209"/>
	<stop  offset="0.9081" style="stop-color:#F6F6F6;stop-opacity:0.5459"/>
	<stop  offset="1" style="stop-color:#FFFFFF;stop-opacity:0.5"/>
</linearGradient>
<circle class="st4" cx="32" cy="32" r="30"/>
</svg>
