<?xml version="1.0" encoding="utf-8"?>
<!-- Generator: Adobe Illustrator 24.1.2, SVG Export Plug-In . SVG Version: 6.00 Build 0)  -->
<svg version="1.1" id="Layer_1" xmlns="http://www.w3.org/2000/svg" xmlns:xlink="http://www.w3.org/1999/xlink" x="0px" y="0px"
	 width="64px" height="64px" viewBox="0 0 64 64" style="enable-background:new 0 0 64 64;" xml:space="preserve">
<style type="text/css">
	.st0{fill:#42ADE2;}
	.st1{fill:#007934;}
	.st2{fill:#FFE000;}
	.st3{opacity:0.1;fill:url(#SVGID_1_);}
</style>
<path class="st0" d="M32,2C15.43,2,2,15.43,2,32h60C62,15.43,48.57,2,32,2z"/>
<path class="st1" d="M58,47H6c5.19,8.96,14.89,15,26,15C43.11,62,52.81,55.96,58,47z"/>
<path class="st2" d="M57.98,47C60.53,42.59,62,37.47,62,32H2c0,5.47,1.47,10.59,4.02,15H57.98z"/>
<path class="st2" d="M41.81,14.94l-2.67-8.06l1.71,8.31C41.15,15.06,41.48,14.98,41.81,14.94z"/>
<path class="st2" d="M42.38,14.88c0.17,0,0.33,0.03,0.5,0.05l-0.5-8.48l-0.5,8.48C42.04,14.91,42.21,14.88,42.38,14.88z"/>
<path class="st2" d="M43.9,15.18l1.71-8.31l-2.67,8.06C43.27,14.98,43.6,15.06,43.9,15.18z"/>
<path class="st2" d="M39.88,15.76l-6.35-5.65l5.65,6.35C39.38,16.2,39.62,15.96,39.88,15.76z"/>
<path class="st2" d="M44.82,15.71l3.81-7.59l-4.66,7.08C44.28,15.34,44.56,15.51,44.82,15.71z"/>
<path class="st2" d="M40.78,15.21l-4.66-7.08l3.81,7.59C40.19,15.52,40.47,15.34,40.78,15.21z"/>
<path class="st2" d="M42.38,15.64c-1.83,0-3.31,1.49-3.31,3.31c0,1.83,1.49,3.32,3.31,3.32c1.83,0,3.31-1.49,3.31-3.32
	C45.69,17.13,44.2,15.64,42.38,15.64z"/>
<path class="st2" d="M54.89,18.96l-8.48-0.5c0.02,0.16,0.05,0.33,0.05,0.5c0,0.17-0.03,0.33-0.05,0.5L54.89,18.96z"/>
<path class="st2" d="M45.58,16.46l5.65-6.35l-6.35,5.65C45.14,15.96,45.37,16.2,45.58,16.46z"/>
<path class="st2" d="M46.4,18.39l8.06-2.67l-8.31,1.71C46.27,17.74,46.35,18.06,46.4,18.39z"/>
<path class="st2" d="M46.13,17.36l7.08-4.66l-7.59,3.81C45.82,16.78,46,17.06,46.13,17.36z"/>
<path class="st2" d="M39.13,16.51l-7.59-3.81l7.08,4.66C38.75,17.06,38.93,16.78,39.13,16.51z"/>
<path class="st2" d="M38.36,19.52l-8.06,2.67l8.31-1.71C38.48,20.18,38.4,19.86,38.36,19.52z"/>
<path class="st2" d="M43.97,22.71l4.66,7.08l-3.81-7.59C44.56,22.4,44.28,22.58,43.97,22.71z"/>
<path class="st2" d="M42.94,22.98l2.67,8.06l-1.71-8.31C43.6,22.86,43.27,22.93,42.94,22.98z"/>
<path class="st2" d="M40.85,22.74l-1.71,8.31l2.67-8.06C41.48,22.93,41.15,22.86,40.85,22.74z"/>
<path class="st2" d="M42.38,23.04c-0.17,0-0.33-0.03-0.5-0.05l0.5,8.48l0.5-8.48C42.71,23.01,42.54,23.04,42.38,23.04z"/>
<path class="st2" d="M45.62,21.4l7.59,3.81l-7.08-4.66C46,20.86,45.82,21.14,45.62,21.4z"/>
<path class="st2" d="M44.87,22.16l6.35,5.65l-5.65-6.35C45.37,21.72,45.14,21.95,44.87,22.16z"/>
<path class="st2" d="M39.93,22.2l-3.81,7.59l4.66-7.08C40.47,22.58,40.19,22.4,39.93,22.2z"/>
<path class="st2" d="M38.3,18.96c0-0.17,0.03-0.33,0.05-0.5l-8.48,0.5l8.48,0.5C38.33,19.29,38.3,19.13,38.3,18.96z"/>
<path class="st2" d="M46.15,20.48l8.31,1.71l-8.06-2.67C46.35,19.86,46.27,20.18,46.15,20.48z"/>
<path class="st2" d="M38.6,17.43l-8.31-1.71l8.06,2.67C38.4,18.06,38.48,17.74,38.6,17.43z"/>
<path class="st2" d="M39.18,21.46l-5.65,6.35l6.35-5.65C39.62,21.95,39.38,21.72,39.18,21.46z"/>
<path class="st2" d="M38.63,20.55l-7.08,4.66l7.59-3.81C38.93,21.14,38.76,20.86,38.63,20.55z"/>
<linearGradient id="SVGID_1_" gradientUnits="userSpaceOnUse" x1="32" y1="62" x2="32" y2="2">
	<stop  offset="0" style="stop-color:#1A1A1A"/>
	<stop  offset="0.102" style="stop-color:#393939;stop-opacity:0.949"/>
	<stop  offset="0.3475" style="stop-color:#7F7F7F;stop-opacity:0.8262"/>
	<stop  offset="0.5688" style="stop-color:#B6B6B6;stop-opacity:0.7156"/>
	<stop  offset="0.7582" style="stop-color:#DEDEDE;stop-opacity:0.6209"/>
	<stop  offset="0.9081" style="stop-color:#F6F6F6;stop-opacity:0.5459"/>
	<stop  offset="1" style="stop-color:#FFFFFF;stop-opacity:0.5"/>
</linearGradient>
<circle class="st3" cx="32" cy="32" r="30"/>
</svg>
