<?xml version="1.0" encoding="utf-8"?>
<!-- Generator: Adobe Illustrator 24.1.2, SVG Export Plug-In . SVG Version: 6.00 Build 0)  -->
<svg version="1.1" id="Layer_1" xmlns="http://www.w3.org/2000/svg" xmlns:xlink="http://www.w3.org/1999/xlink" x="0px" y="0px"
	 width="64px" height="64px" viewBox="0 0 64 64" style="enable-background:new 0 0 64 64;" xml:space="preserve">
<style type="text/css">
	.st0{fill:#007934;}
	.st1{fill:#FCFCFC;}
	.st2{opacity:0.1;fill:url(#SVGID_1_);}
</style>
<path class="st0" d="M2,32c0,13.06,8.35,24.17,20,28.29V3.71C10.35,7.83,2,18.94,2,32z"/>
<path class="st0" d="M62,32c0-13.06-8.35-24.17-20-28.29v56.57C53.65,56.17,62,45.06,62,32z"/>
<path class="st1" d="M22,60.29C25.13,61.39,28.49,62,32,62c3.51,0,6.87-0.61,10-1.71V3.71C38.87,2.61,35.51,2,32,2
	c-3.51,0-6.87,0.61-10,1.71V60.29z"/>
<path class="st0" d="M32.25,17.22c-0.06,0.64-0.12,1.29-0.18,1.94c-0.22,0.03-0.44,0.07-0.66,0.1c0,0,0.46,0.26,0.54,0.51l-0.01,0.1
	l-0.02,0.02c-0.13,0.1-0.52,0.05-0.52,0.05s0.52,0.44,0.56,0.59l0,0.01v0.01l0,0.01l-0.02,0.02c-0.12,0.11-0.69,0.14-0.69,0.14
	s0.64,0.45,0.67,0.71c0.04,0.23,0.01,0.37,0,0.39c-0.04-0.04-1.07-0.9-1.73-0.65l-0.06,0.05l0,0.03c0.04,0.14,0.98,0.29,1.63,0.85
	c-0.02,0.14-1.86-0.45-1.93-0.08c0.06,0.1,1.98,0.38,2.12,0.63c-0.71,0.03-2.17-0.16-2.12,0.08c-0.15,0.27,1.38,0.12,2.02,0.34
	c0.19,0.21,0.17,0.39-0.16,0.41c-0.62-0.29-2.01-0.51-2.01-0.14v0v0l0,0l0.01,0.01c0.16,0.08,1.45,0.04,1.93,0.36
	c-0.69,0.16-3.02-0.32-3.04-0.09c0.07,0.11,0.43,0.58,1.07,0.56c0.63-0.02,2.1,0.26,2.2,0.46l0,0.02c-0.04,0.14-1.94-0.42-2.66-0.08
	c-0.76,0.35,2.16,0.14,2.64,0.57c0.48,0.43-0.95-0.04-0.95-0.04s-1.99-0.27-2.29-0.14c-0.3,0.14-0.63,0.45-0.63,0.45
	s0.2,0.39,0.4,0.31l0.06-0.01h0v0l0,0l0,0l0,0l0,0.01l-0.13,0.23c0,0,2.78,0.67,3.4,1.26c0.62,0.59-3.53-0.93-3.53-0.93
	s-1.67,0.61,0.1,0.65c-0.2,0.29,0.08,0.46,0.1,0.47c0,0,2.94,0.61,3.24,1.09c0.3,0.47-2.01-0.46-2.52-0.71
	c-0.5-0.25-1.89,0.13-1.97,0.25v0v0v0v0v0v0v0l0.01,0.01l0,0c0.09,0.1,0.71,0.23,0.73,0.4v0l-0.01,0.03
	c-0.08,0.15-0.82,0.21-0.85,0.36v0.01c0,0.16,3.71,0.93,4.71,1.76c1,0.83-2.92-0.99-2.92-0.99s0.22,0.3,0,0.38
	c-0.22,0.08-1-1.11-2.27-0.38c-0.23,0.3,1.11,0.54,1.45,0.57c-0.12,0.3-0.22,0.4,0.26,0.69l0.09,0.06l0,0l0,0v0v0h0h0
	c-0.07-0.01-0.93-0.45-1.02-0.47h0h0l0.1,0.51c-0.44-0.36-0.97-0.46-1.47-0.1c0,0.02,0,0.36,0.5,0.57c-0.28,0.57,0.32,0.4,1.27,0.93
	c-1.42-0.37-1.53,0.32-0.52,0.47c1.01,0.16,3.79,0.26,4.45,1.11c0.14,0.18,0.18,0.27,0.15,0.3c-0.11,0.1-1.12-0.63-1.26-0.65h0v0
	L30.5,33.7c-0.03,0.08-0.07,0.42-0.07,0.42c-0.42-0.24-0.81-0.46-1.32-0.57c-0.04,0.08-0.03,0.19-0.07,0.27
	c-0.46-0.33-0.86-0.56-1.53-0.59c-0.03,0.11-0.05,0.21-0.08,0.32c0,0-0.56-0.69-1.65,0c-0.61,0.43,2.3,0.16,2.78,0.67
	c0.48,0.51,0.1,0.59,0.1,0.59c-0.4-0.15-0.79-0.29-1.19-0.43c0,0-1.41-0.26-1.81,0.06c-0.4,0.32,5.8,1.09,5.98,1.94
	c0.12,0.46-1.45-0.48-2.82-0.89c-0.05,0.15-0.11,0.3-0.16,0.45c-0.03-0.03-0.56-0.54-1.15-0.63l0,0v0l0.12,0.53
	c0,0-1.53-0.71-2.3-0.34c-0.78,0.38,2.7,0.57,3.02,0.93l0.05,0.08l-0.01,0.01c-0.08,0.11-1.11-0.3-1.22-0.1
	c-0.12,0.24-1.81-0.43-1.79-0.12c0.02,0.32,0.24,0.49,0.24,0.49s3.51,0.34,3.63,0.75c0.12,0.41-1.95-0.24-1.95-0.24
	s-0.2,0.3-0.04,0.43l0.01,0.01v0h0c-0.07-0.02-1.19-0.75-1.08-0.19c-0.44-0.17-1.57-0.71-1.41-0.3c0.16,0.41,3.11,0.99,3.19,1.01
	c-0.08,0.01-1.33,0.11-1.27,0.44c-1.67-1.01-1.67-0.41-1.63-0.36v0c-0.09-0.02-2.15-0.52-0.51,0.36c0.88,0.47,1.09,0.66,1.09,0.73
	v0.01l0,0.01v0l0,0l0,0l0,0v0l0,0l-0.14,0.01h-0.01v0v0l0.15,0.44l0,0v0h0v0h0h0c-0.07-0.02-1.16-0.59-1.53-0.63
	c-0.38-0.04-2.16,0.49-0.26,1.32c1.91,0.83,3.08-0.2,4.13-0.08c1.05,0.12,1.55,0.3,1.45,0.63c-0.1,0.34-1.08-1.1-2.1,0.14
	c-1.17-0.23-1.96-0.36-1.36,0.49c-1.91-0.71-3.07,0.22-0.67,0.59c2.36,0.07,3.81-0.57,3.81-0.57s0.4,0.73,0.97,0.22
	c0.55-0.49,0.59,0.13,0.61,0.19l0,0v0h0l0.55-0.24h0.14v4.74c0.64,0.01,1.28,0.01,1.92,0.02c0,0-0.61-4.13-0.28-4.68
	c0.33-0.54,0.64-0.48,0.66-0.47c0,0,1.25,0.37,1.39,0.32l0.01,0l0.01,0l0.01-0.01v0c0.1-0.09,0-0.46,0.63-0.4
	c0.2-0.07,0.12-0.38,0.25-0.46l0.01,0l0.02-0.01l0.03,0c0.2-0.02,4.03,1.07,4.87,0.04c-0.22-0.57-0.97-0.04-1.17-0.02
	c-0.18,0-0.93-0.36-1.37,0c-0.4-0.3-2.2-0.49-2.2-0.49c-0.24-0.24,4.31,0.12,4.57-0.06c0.54-0.53-0.99-0.47-1.23-0.3
	c-0.42-0.26-0.96-0.24-1.28-0.06c-0.16-0.37-1.63-0.21-2.45-0.32c-0.26-0.15-0.22-0.24-0.04-0.34c1.72,0.07,3.42,0.3,5.15,0.22
	c0.46-0.6-0.59-0.83-1.23-0.32c-0.38-0.62-1.15-0.02-1.67-0.08c-0.52-0.06-0.28-0.69,0.38-0.59c0.66,0.1,1.83-0.04,2.05-0.34
	c0.22-0.3-0.13-0.6-1.21-0.32c-0.37-0.36-1.17,0-1.55,0.12c-0.5-0.28-1.67-0.04-2.07,0.06c-0.39-0.24,2.05-0.63,2.05-0.63
	c0.94-0.02,1.47-0.18,1.77-0.26c1.42-0.76-0.02-0.84-0.76-0.29c-0.46-0.36-0.9,0.03-1.32,0.17c-0.39,0.13-1.11,0.22-1.2,0.19l0,0
	l0,0l0,0v0v0l0,0c0.06-0.09,1.13-0.74,1.13-0.74s1.39-0.1,1.67-0.14c0.17-0.02,0.76-0.3,0.76-0.41c-0.01-0.06-0.25-0.06-1,0.13
	c-0.67,0.06-1.07,0.02-1.33,0.04c-0.42-0.04-0.59-0.09-0.63-0.12l0-0.01l0-0.02l0.01-0.01c0.1-0.08,0.76-0.14,0.76-0.14
	s2.01-0.18,2.14-0.29l0,0l0,0l0,0c0.04-0.82-1.7-0.44-1.75-0.43c0-0.57-1.57-0.01-1.65,0h0l-0.1-0.12l0.01-0.05
	c0.04-0.12,0.28-0.21,0.28-0.21c0.44-0.1,1.09-0.14,1.26-0.28c0,0,1.23-0.01,1.38-0.34c-0.3-0.83-2.61,0.15-2.92,0.3L36,34.56
	c-0.1-0.15,0.4-0.63,0.42-0.65l0,0c0.08-0.02,1.92-0.12,2.8-1.3c0.06-0.73-1.05,0.41-1.05,0.41c-0.08-0.95-1.21,0.06-1.87,0.14
	c-0.66,0.08-0.68-0.3-0.22-0.36c0.46-0.06,0.97-0.02,1.23-0.71c0.26-0.69,1.03,0.04,1.17-0.22c0.14-0.25-0.25-0.46-0.28-0.47
	c0,0,0.57-0.59-0.36-0.57c-0.92,0.02-2.12-0.12-2.14-0.12c0.06-0.02,1-0.37,1.88-0.35c0.91,0.02,0.42-0.65-0.46-0.65
	c-0.87,0-1.33-0.3-1.33-0.3c0.5-0.18,0.99-0.37,1.49-0.55c-0.03-0.14-0.06-0.28-0.1-0.41c0,0,0.87-0.69-0.36-0.53
	c-1.23,0.16-1.37,0.18-1.37,0.18l-2.48,0.38h0c-0.02,0-0.26-0.08-0.31-0.17l0-0.01l0-0.01v-0.02c0.01-0.05,0.08-0.1,0.28-0.15
	c0.64-0.16,2.88-0.61,3.22-0.49l0.1,0c0.13-0.11-0.3-0.84-1.33-0.94c-1.19-0.12-1.93,0.3-1.93,0.3s-0.78-0.28-0.06-0.51
	c0.71-0.24,1.85,0.08,1.85,0.08s1.27-0.38,0.22-0.54c-1.05-0.16-1.38,0.14-1.87,0.16c-0.19-0.24,1.65-0.3,1.77-0.49
	c-0.2-0.35-1.34,0-2.01,0c-0.29-0.12-0.3-0.32,0.02-0.43c0.68-0.03,1.32,0.01,2.01-0.01c-0.02-0.36,0-0.79-0.02-1.15
	c-0.87-0.16-1.88,0.11-2.37,0.09c0.13-0.39,2-0.5,2.21-0.6c0.43-0.53-1.79-0.01-1.84,0c-0.39-0.06-0.37-0.31-0.12-0.46
	c0.58-0.07,1.87,0.08,1.77-0.3c-0.07-0.36-0.9-0.17-1.23-0.09c-0.34,0.08-0.83,0.02-0.83,0.02c-0.22-0.29,1.95-0.17,1.93-0.39
	c-0.03-0.26-1.37-0.08-1.83-0.06c-0.35-0.24,1.65-0.4,1.75-0.43v0c0.08-0.66-1.39,0-1.67,0l-0.11-0.03l-0.02-0.02
	c-0.09-0.11-0.01-0.36-0.01-0.36l0.56-0.29l0,0v0v0l0,0l-0.01-0.01l-0.47-0.17h0l0,0l0,0l0,0l0.01-0.45c0,0,0.41-0.31,0.44-0.43v0v0
	v0v0v0l0,0v0l0,0l0,0l0,0l0,0l-0.01,0l0,0c-0.1-0.05-0.54,0.1-0.54,0.1c0-0.13,0-0.26,0-0.39c0,0,0.38-0.04,0.42-0.22v-0.03l0-0.01
	l-0.01-0.02l0,0c-0.09-0.11-0.44-0.13-0.44-0.13C32.38,18.6,32.31,17.91,32.25,17.22z M31.89,23.99v0.27c0,0-0.44-0.02-0.53-0.09
	l0,0l0,0l0,0l0,0l0,0v0v0v0v0v0v0v-0.01l0,0l0-0.01l0,0l0,0l0.01-0.01C31.53,24,31.83,24.01,31.89,23.99L31.89,23.99L31.89,23.99
	L31.89,23.99L31.89,23.99z M32.52,24.35c0.01,0,0.89,0.01,0.96,0.12l0,0l0,0.01v0v0.01l0,0.01c-0.07,0.14-0.95,0.23-0.95,0.23
	L32.52,24.35L32.52,24.35z M32.48,24.89L32.48,24.89L32.48,24.89l0.46,0.09v0v0l0,0v0v0v0v0v0l0,0v0v0l0,0v0
	c-0.08,0.09-0.41,0.12-0.43,0.12h0v0l0,0L32.48,24.89z M29.82,25.6c0.28-0.02,0.85,0.05,1.91,0.34l0.01,0.34l0,0v0l0,0
	c-0.01-0.01-1.93-0.56-2.1-0.55h-0.02l-0.01,0l-0.01-0.01l-0.01,0l0,0l-0.02-0.02v0l0,0v0l0,0v0v0v0l0-0.01l0.01-0.02
	C29.6,25.64,29.67,25.61,29.82,25.6z M30.81,26.41c0.3-0.01,1.04,0.16,1.08,0.16l0,0.39l0,0l0,0l0,0l0,0h0h0h0
	c-0.06-0.02-1.14-0.36-1.18-0.5v-0.01l0.01-0.01l0,0l0,0L30.81,26.41z M33.81,27.16c0.29-0.01,0.5,0.02,0.42,0.11
	c-0.21,0.24-1.64,0.44-1.64,0.44l-0.03-0.44C32.59,27.27,33.32,27.17,33.81,27.16z M29.7,28.53c0.24-0.01,0.81,0.12,2.08,0.65
	l0.01,0.31c0,0-2.14-0.65-2.22-0.75C29.53,28.69,29.46,28.54,29.7,28.53z M33.9,29l0.13,0.02l0,0l0,0.01l0,0.01l-0.02,0.03
	c-0.2,0.22-1.27,0.45-1.27,0.45v-0.29h0C32.79,29.22,33.58,29.01,33.9,29z M29.2,29.03c0.32-0.02,1.04,0.15,2.66,0.92l0.01,0.3h0
	c-0.1-0.03-2.92-1.02-2.92-1.02C28.95,29.22,28.9,29.05,29.2,29.03z M34.56,30.27c0.08,0,0.14,0,0.15,0.02l0,0.01l-0.02,0.03
	c-0.25,0.23-1.89,0.51-1.95,0.51h0h0l0,0l0,0v0l0,0l0.02-0.26v0h0l0,0h0C32.88,30.56,34.13,30.29,34.56,30.27z M29.77,30.98
	c0.48-0.02,1.96,0.64,2.03,0.67h0l-0.02,0.31v0l0,0c-0.04-0.02-2.06-0.85-2.14-0.79C29.58,31.05,29.64,30.99,29.77,30.98z
	 M34.11,31.16c0.1,0,0.17,0,0.2,0.01l0,0.01v0v0v0v0L34.3,31.2c-0.15,0.13-1.54,0.41-1.54,0.41l-0.01-0.28
	C32.8,31.31,33.7,31.18,34.11,31.16z M34,32.05c0.1,0,0.17,0,0.18,0.02l0,0v0l0,0l0,0v0l0,0l-0.01,0.01l0,0.01
	c-0.15,0.13-1.33,0.38-1.33,0.38l-0.03-0.29C32.84,32.18,33.63,32.06,34,32.05z M29.03,32.12c0.28-0.02,0.99,0.1,2.73,0.73
	l0.06,0.34c0,0-2.9-0.93-2.98-0.96v0v-0.01l0.01-0.03C28.87,32.15,28.92,32.12,29.03,32.12z M32.84,32.85
	c0.03,0.01,0.52,0.02,0.61,0.1l0,0l0,0l0,0l0,0l0,0l0,0.01v0v0v0v0l0,0v0l0,0c-0.08,0.12-0.58,0.16-0.58,0.16
	S32.85,32.92,32.84,32.85z M34.01,33.51c0.12,0,0.19,0.01,0.21,0.04l-0.06,0.1c-0.42,0.34-1.32,0.4-1.32,0.4v-0.37l0,0
	C32.89,33.68,33.64,33.52,34.01,33.51z M35.17,33.86c0.14-0.01,0.21,0.02,0.22,0.05l0,0.01l0,0.02l-0.08,0.13
	c-0.14,0.13-2.39,0.84-2.39,0.84l-0.01-0.51C34.23,34,34.87,33.87,35.17,33.86z M33.71,35.19c0.14,0,0.25,0,0.29,0.04l0.01,0.01
	l0,0.01v0.01v0.01L34,35.28c-0.19,0.19-1.13,0.22-1.13,0.22v-0.23C33.04,35.26,33.43,35.2,33.71,35.19L33.71,35.19z M34.65,35.58
	l0.08,0.02v0l-0.04,0.05c-0.37,0.27-1.78,0.54-1.78,0.54l0.03-0.23C32.96,35.95,34.31,35.58,34.65,35.58z M35.44,35.87
	c0.16,0,0.29,0.02,0.36,0.07h0v0v0v0c-0.01,0.05-0.11,0.29-0.48,0.4c-0.46-0.04-2.42,0.53-2.46,0.54h0v0l0.03-0.24
	C33.56,36.25,34.79,35.88,35.44,35.87z M30.42,37h0.01c0.85,0.09,1.17,0.41,1.26,0.53c-0.17,0.29-1.51-0.37-1.37-0.51L30.42,37z
	 M35.28,37.06l0.09,0.02l0.02,0.02l0.02,0.05c-0.09,0.14-0.55,0.08-0.58,0.07C34.85,37.22,35.11,37.06,35.28,37.06z M33.46,37.98
	L33.6,38l0.01,0.01l0,0l0,0.01l0,0.01l-0.01,0.07c-0.13,0.25-0.72,0.16-0.72,0.16v-0.17h0C32.93,38.07,33.26,37.98,33.46,37.98z
	 M30.03,38.63c0.18-0.01,0.34,0.11,0.5,0.2c0.37-0.07,1.12,0.06,1.12,0.06v0.33l0,0h0c-0.07,0.01-0.95-0.03-1.14-0.15
	c-0.16,0-0.61-0.24-0.65-0.36l0,0V38.7v0v0v0l0,0v0L30.03,38.63z M33.88,38.79c0.14-0.01,0.2,0.04,0.09,0.19
	c-0.3,0.42-1.07,0.25-1.07,0.25l-0.03-0.26C33.13,38.98,33.63,38.8,33.88,38.79z M30.98,39.65c0.31-0.01,0.65,0.11,0.65,0.11
	c0.01,0.02,0.17,0.33,0.03,0.44l-0.02,0.01c-0.17,0.09-1.01-0.07-1.06-0.41C30.68,39.69,30.83,39.65,30.98,39.65z M27.75,39.81
	c0.29-0.02,0.61,0.16,0.64,0.18h0l-0.01,0.32c0,0-0.57-0.16-0.75-0.47L27.75,39.81z M33.21,39.85c0.32,0,0.71,0.07,0.76,0.18
	l-0.01,0.07c-0.16,0.19-1.06,0.02-1.06,0.02v-0.23C32.98,39.87,33.09,39.85,33.21,39.85z"/>
<linearGradient id="SVGID_1_" gradientUnits="userSpaceOnUse" x1="32" y1="62" x2="32" y2="2">
	<stop  offset="0" style="stop-color:#1A1A1A"/>
	<stop  offset="0.102" style="stop-color:#393939;stop-opacity:0.949"/>
	<stop  offset="0.3475" style="stop-color:#7F7F7F;stop-opacity:0.8262"/>
	<stop  offset="0.5688" style="stop-color:#B6B6B6;stop-opacity:0.7156"/>
	<stop  offset="0.7582" style="stop-color:#DEDEDE;stop-opacity:0.6209"/>
	<stop  offset="0.9081" style="stop-color:#F6F6F6;stop-opacity:0.5459"/>
	<stop  offset="1" style="stop-color:#FFFFFF;stop-opacity:0.5"/>
</linearGradient>
<circle class="st2" cx="32" cy="32" r="30"/>
</svg>
