<?xml version="1.0" encoding="utf-8"?>
<!-- Generator: Adobe Illustrator 15.0.0, SVG Export Plug-In . SVG Version: 6.00 Build 0)  -->
<!DOCTYPE svg PUBLIC "-//W3C//DTD SVG 1.1//EN" "http://www.w3.org/Graphics/SVG/1.1/DTD/svg11.dtd" [
	<!ENTITY ns_flows "http://ns.adobe.com/Flows/1.0/">
	<!ENTITY ns_extend "http://ns.adobe.com/Extensibility/1.0/">
	<!ENTITY ns_ai "http://ns.adobe.com/AdobeIllustrator/10.0/">
	<!ENTITY ns_graphs "http://ns.adobe.com/Graphs/1.0/">
]>
<svg version="1.1" id="Layer_1" xmlns:x="&ns_extend;" xmlns:i="&ns_ai;" xmlns:graph="&ns_graphs;"
	 xmlns="http://www.w3.org/2000/svg" xmlns:xlink="http://www.w3.org/1999/xlink" xmlns:a="http://ns.adobe.com/AdobeSVGViewerExtensions/3.0/"
	 x="0px" y="0px" width="64px" height="64px" viewBox="0 0 64 64" enable-background="new 0 0 64 64" xml:space="preserve">
<path fill="#FCFCFC" d="M61.645,27.425L36.574,2.355c-3.123-0.48-6.307-0.463-9.426,0.047L2.354,27.424
	c-0.479,3.124-0.461,6.308,0.045,9.428l24.75,24.749c3.119,0.507,6.303,0.524,9.428,0.045l25.021-24.794
	C62.107,33.731,62.125,30.548,61.645,27.425z"/>
<path fill="#0038B8" d="M2.354,27.424l24.795,0.001V2.402c-5.99,0.976-11.744,3.766-16.361,8.385
	C6.096,15.477,3.289,21.334,2.354,27.424z"/>
<path fill="#0038B8" d="M61.645,27.425c-0.936-6.09-3.742-11.948-8.432-16.638c-4.689-4.69-10.549-7.497-16.639-8.432l0.002,25.068
	L61.645,27.425z"/>
<path fill="#0038B8" d="M10.787,53.213c4.619,4.62,10.371,7.41,16.361,8.388v-24.75l-24.75,0.001
	C3.377,42.842,6.166,48.594,10.787,53.213z"/>
<path fill="#0038B8" d="M36.576,61.646c6.09-0.935,11.947-3.742,16.637-8.433c4.619-4.618,7.408-10.371,8.385-16.361H36.574
	L36.576,61.646z"/>
<path fill="#FCFCFC" d="M16.145,10.444c-0.385,0.205-0.691,0.501-0.691,0.649c0,0.168,0.226,0.168-0.063,0.278
	c-0.272,0.112-1.01,0.259-1.523,0.242c-0.178,0-0.594-0.13-0.707-0.13c-0.127,0.019,0.547,0.335,0.289,0.259
	c-0.352-0.112-0.562-0.148-0.289,0.057c0.21,0.147,0.676,0.147,1.332,0.055c0.258-0.036,0.931-0.205,1.171-0.241
	c0.159-0.019,0.159,0.148,0.256,0.148c0.866,0.057,2.407,0.019,3.081-0.093c0.56-0.093,0.768-0.055,0.929,0.167
	c0.321,0.427-0.015,0.796-0.929,1.02c-1.124,0.278-1.588,0.519-2.021,1.056c-1.043,1.298,0.176,2.763,2.453,2.967
	c1.332,0.128,2.196,0.426,1.988,0.666c-0.079,0.093-0.961,0.24-1.972,0.333c-2.197,0.205-3.176,0.556-4.01,1.484
	c-0.466,0.518-0.626,0.834-0.626,1.26c0,0.595,0,0.595-0.851,0.595c-0.448,0-1.074-0.076-1.362-0.186
	c-0.448-0.131-0.513-0.131-0.354,0.093c0.321,0.444,1.235,0.834,1.988,0.834c0.578,0,0.899,0.128,1.412,0.556
	c1.027,0.869,2.197,1.204,4.139,1.185c2.549-0.019,4.008-0.797,4.008-2.114c0-0.982-0.961-1.555-2.965-1.76
	c-1.011-0.112-3,0.074-3.866,0.371c-0.161,0.055,0.017-0.073,0.401-0.297c0.465-0.259,1.233-0.445,2.277-0.556
	c2.31-0.222,3.352-0.816,3.352-1.928c0-1.075-1.027-1.687-3.225-1.927c-2.164-0.223-2.325-0.668-0.495-1.317
	c1.298-0.445,1.954-1.111,1.954-2.019c0-1.391-0.656-1.854-2.854-1.983C17.043,10.094,16.722,10.13,16.145,10.444z M17.299,10.834
	c-0.048,0.093-0.177,0.186-0.256,0.186c-0.097,0-0.113-0.093-0.064-0.186c0.048-0.111,0.176-0.185,0.256-0.185
	C17.331,10.649,17.348,10.723,17.299,10.834z M21.933,21.216c0.305,0.128,0.418,0.259,0.322,0.369
	c-0.272,0.316-2.038,0.594-3.111,0.501c-1.187-0.128-2.47-0.575-2.085-0.761C18.133,20.845,20.954,20.788,21.933,21.216z"/>
<path fill="#FCFCFC" d="M44.181,10.444c-0.384,0.205-0.688,0.501-0.688,0.649c0,0.168,0.225,0.168-0.064,0.278
	c-0.272,0.112-1.011,0.259-1.523,0.242c-0.178,0-0.594-0.13-0.706-0.13c-0.128,0.019,0.545,0.335,0.29,0.259
	c-0.354-0.112-0.563-0.148-0.29,0.057c0.208,0.147,0.674,0.147,1.331,0.055c0.257-0.036,0.931-0.205,1.171-0.241
	c0.161-0.019,0.161,0.148,0.257,0.148c0.865,0.057,2.405,0.019,3.079-0.093c0.561-0.093,0.771-0.055,0.93,0.167
	c0.321,0.427-0.016,0.796-0.93,1.02c-1.122,0.278-1.587,0.519-2.021,1.056c-1.043,1.298,0.176,2.763,2.454,2.967
	c1.33,0.128,2.197,0.426,1.987,0.666c-0.08,0.093-0.962,0.24-1.973,0.333c-2.196,0.205-3.175,0.556-4.01,1.484
	c-0.463,0.518-0.624,0.834-0.624,1.26c0,0.595,0,0.595-0.85,0.595c-0.45,0-1.075-0.076-1.364-0.186
	c-0.449-0.131-0.513-0.131-0.353,0.093c0.322,0.444,1.236,0.834,1.989,0.834c0.577,0,0.896,0.128,1.412,0.556
	c1.025,0.869,2.196,1.204,4.136,1.185c2.55-0.019,4.011-0.797,4.011-2.114c0-0.982-0.964-1.555-2.968-1.76
	c-1.011-0.112-2.999,0.074-3.864,0.371c-0.16,0.055,0.016-0.073,0.399-0.297c0.466-0.259,1.235-0.445,2.278-0.556
	c2.309-0.222,3.352-0.816,3.352-1.928c0-1.075-1.025-1.687-3.223-1.927c-2.165-0.223-2.326-0.668-0.498-1.317
	c1.299-0.445,1.957-1.111,1.957-2.019c0-1.391-0.658-1.854-2.855-1.983C45.08,10.094,44.758,10.13,44.181,10.444z M45.337,10.834
	c-0.049,0.093-0.178,0.186-0.257,0.186c-0.097,0-0.112-0.093-0.064-0.186c0.049-0.111,0.176-0.185,0.257-0.185
	C45.369,10.649,45.385,10.723,45.337,10.834z M49.972,21.216c0.305,0.128,0.416,0.259,0.319,0.369
	c-0.272,0.316-2.036,0.594-3.111,0.501c-1.186-0.128-2.469-0.575-2.085-0.761C46.17,20.845,48.993,20.788,49.972,21.216z"/>
<path fill="#FCFCFC" d="M16.145,39.995c-0.385,0.204-0.691,0.501-0.691,0.649c0,0.168,0.226,0.168-0.063,0.277
	c-0.272,0.111-1.01,0.26-1.523,0.242c-0.178,0-0.594-0.131-0.707-0.131c-0.127,0.02,0.547,0.336,0.289,0.26
	c-0.352-0.111-0.562-0.147-0.289,0.057c0.21,0.148,0.676,0.148,1.332,0.055c0.258-0.035,0.931-0.204,1.171-0.24
	c0.159-0.019,0.159,0.148,0.256,0.148c0.866,0.057,2.407,0.019,3.081-0.094c0.56-0.092,0.768-0.055,0.929,0.167
	c0.321,0.428-0.015,0.797-0.929,1.021c-1.124,0.277-1.588,0.518-2.021,1.056c-1.043,1.298,0.176,2.763,2.453,2.967
	c1.332,0.129,2.196,0.426,1.988,0.666c-0.079,0.093-0.961,0.241-1.972,0.333c-2.197,0.205-3.176,0.557-4.01,1.484
	c-0.466,0.518-0.626,0.834-0.626,1.26c0,0.594,0,0.594-0.851,0.594c-0.448,0-1.074-0.075-1.362-0.186
	c-0.448-0.13-0.513-0.13-0.354,0.094c0.321,0.444,1.235,0.834,1.988,0.834c0.578,0,0.899,0.129,1.412,0.557
	c1.027,0.868,2.197,1.203,4.139,1.185c2.549-0.019,4.008-0.797,4.008-2.114c0-0.982-0.961-1.555-2.965-1.76
	c-1.011-0.111-3,0.074-3.866,0.371c-0.161,0.055,0.017-0.074,0.401-0.297c0.465-0.26,1.233-0.445,2.277-0.557
	c2.31-0.221,3.352-0.815,3.352-1.928c0-1.075-1.027-1.687-3.225-1.927c-2.164-0.224-2.325-0.668-0.495-1.317
	c1.298-0.444,1.954-1.11,1.954-2.019c0-1.392-0.656-1.854-2.854-1.983C17.043,39.645,16.722,39.681,16.145,39.995z M17.299,40.385
	c-0.048,0.093-0.177,0.186-0.256,0.186c-0.097,0-0.113-0.093-0.064-0.186c0.048-0.111,0.176-0.186,0.256-0.186
	C17.331,40.199,17.348,40.273,17.299,40.385z M21.933,50.766c0.305,0.129,0.418,0.26,0.322,0.369
	c-0.272,0.316-2.038,0.595-3.111,0.502c-1.187-0.129-2.47-0.575-2.085-0.761C18.133,50.395,20.954,50.338,21.933,50.766z"/>
<path fill="#FCFCFC" d="M44.181,39.995c-0.384,0.204-0.688,0.501-0.688,0.649c0,0.168,0.225,0.168-0.064,0.277
	c-0.272,0.111-1.011,0.26-1.523,0.242c-0.178,0-0.594-0.131-0.706-0.131c-0.128,0.02,0.545,0.336,0.29,0.26
	c-0.354-0.111-0.563-0.147-0.29,0.057c0.208,0.148,0.674,0.148,1.331,0.055c0.257-0.035,0.931-0.204,1.171-0.24
	c0.161-0.019,0.161,0.148,0.257,0.148c0.865,0.057,2.405,0.019,3.079-0.094c0.561-0.092,0.771-0.055,0.93,0.167
	c0.321,0.428-0.016,0.797-0.93,1.021c-1.122,0.277-1.587,0.518-2.021,1.056c-1.043,1.298,0.176,2.763,2.454,2.967
	c1.33,0.129,2.197,0.426,1.987,0.666c-0.08,0.093-0.962,0.241-1.973,0.333c-2.196,0.205-3.175,0.557-4.01,1.484
	c-0.463,0.518-0.624,0.834-0.624,1.26c0,0.594,0,0.594-0.85,0.594c-0.45,0-1.075-0.075-1.364-0.186
	c-0.449-0.13-0.513-0.13-0.353,0.094c0.322,0.444,1.236,0.834,1.989,0.834c0.577,0,0.896,0.129,1.412,0.557
	c1.025,0.868,2.196,1.203,4.136,1.185c2.55-0.019,4.011-0.797,4.011-2.114c0-0.982-0.964-1.555-2.968-1.76
	c-1.011-0.111-2.999,0.074-3.864,0.371c-0.16,0.055,0.016-0.074,0.399-0.297c0.466-0.26,1.235-0.445,2.278-0.557
	c2.309-0.221,3.352-0.815,3.352-1.928c0-1.075-1.025-1.687-3.223-1.927c-2.165-0.224-2.326-0.668-0.498-1.317
	c1.299-0.444,1.957-1.11,1.957-2.019c0-1.392-0.658-1.854-2.855-1.983C45.08,39.645,44.758,39.681,44.181,39.995z M45.337,40.385
	c-0.049,0.093-0.178,0.186-0.257,0.186c-0.097,0-0.112-0.093-0.064-0.186c0.049-0.111,0.176-0.186,0.257-0.186
	C45.369,40.199,45.385,40.273,45.337,40.385z M49.972,50.766c0.305,0.129,0.416,0.26,0.319,0.369
	c-0.272,0.316-2.036,0.595-3.111,0.502c-1.186-0.129-2.469-0.575-2.085-0.761C46.17,50.395,48.993,50.338,49.972,50.766z"/>
<linearGradient id="SVGID_1_" gradientUnits="userSpaceOnUse" x1="32.0005" y1="62" x2="32.0005" y2="2.0005">
	<stop  offset="0" style="stop-color:#1A1A1A"/>
	<stop  offset="0.102" style="stop-color:#393939;stop-opacity:0.949"/>
	<stop  offset="0.3475" style="stop-color:#7F7F7F;stop-opacity:0.8262"/>
	<stop  offset="0.5688" style="stop-color:#B6B6B6;stop-opacity:0.7156"/>
	<stop  offset="0.7582" style="stop-color:#DEDEDE;stop-opacity:0.6209"/>
	<stop  offset="0.9081" style="stop-color:#F6F6F6;stop-opacity:0.5459"/>
	<stop  offset="1" style="stop-color:#FFFFFF;stop-opacity:0.5"/>
	<a:midPointStop  offset="0" style="stop-color:#1A1A1A"/>
	<a:midPointStop  offset="0.4" style="stop-color:#1A1A1A"/>
	<a:midPointStop  offset="1" style="stop-color:#FFFFFF;stop-opacity:0.5"/>
</linearGradient>
<circle opacity="0.1" fill="url(#SVGID_1_)" cx="32" cy="32" r="30"/>
</svg>
