<?xml version="1.0" encoding="utf-8"?>
<!-- Generator: Adobe Illustrator 24.1.2, SVG Export Plug-In . SVG Version: 6.00 Build 0)  -->
<svg version="1.1" id="Layer_1" xmlns="http://www.w3.org/2000/svg" xmlns:xlink="http://www.w3.org/1999/xlink" x="0px" y="0px"
	 width="64px" height="64px" viewBox="0 0 64 64" style="enable-background:new 0 0 64 64;" xml:space="preserve">
<style type="text/css">
	.st0{fill:#FF0000;}
	.st1{fill:#FCFCFC;}
	.st2{fill:#0000B3;}
	.st3{opacity:0.1;fill:url(#SVGID_1_);}
</style>
<path class="st0" d="M47.97,6.61C43.35,3.69,37.87,2,32,2v4.61H47.97z"/>
<path class="st1" d="M32,11.22h21.63c-1.69-1.76-3.58-3.31-5.65-4.61H32V11.22z"/>
<path class="st0" d="M32,15.83h25.26c-1.06-1.66-2.28-3.2-3.64-4.61H32V15.83z"/>
<path class="st1" d="M32,20.44h27.69c-0.67-1.61-1.49-3.15-2.43-4.61H32V20.44z"/>
<path class="st0" d="M32,25.05h29.18c-0.38-1.59-0.88-3.13-1.49-4.61H32V25.05z"/>
<path class="st1" d="M32,29.66h29.9c-0.12-1.57-0.36-3.11-0.72-4.61H32V29.66z"/>
<path class="st0" d="M61.9,29.66H32v4.61h29.91C61.96,33.52,62,32.76,62,32C62,31.21,61.96,30.43,61.9,29.66z"/>
<path class="st1" d="M2.8,38.88h58.4c0.35-1.5,0.59-3.04,0.71-4.61H2.09C2.21,35.84,2.45,37.38,2.8,38.88z"/>
<path class="st0" d="M4.28,43.49h55.43c0.61-1.48,1.11-3.02,1.48-4.61H2.8C3.17,40.47,3.67,42.01,4.28,43.49z"/>
<path class="st1" d="M6.69,48.1h50.62c0.93-1.46,1.74-3,2.41-4.61H4.28C4.95,45.1,5.76,46.64,6.69,48.1z"/>
<path class="st0" d="M10.3,52.71h43.39c1.35-1.41,2.56-2.96,3.62-4.61H6.69C7.75,49.75,8.96,51.3,10.3,52.71z"/>
<path class="st1" d="M15.92,57.32h32.17c2.05-1.31,3.94-2.86,5.61-4.61H10.3C11.98,54.46,13.86,56.01,15.92,57.32z"/>
<path class="st0" d="M32,62c5.92,0,11.43-1.72,16.08-4.68H15.92C20.56,60.28,26.08,62,32,62z"/>
<path class="st2" d="M2,32c0,0.76,0.04,1.52,0.09,2.27H32V2C15.43,2,2,15.43,2,32z"/>
<polygon class="st1" points="25.33,4 25.81,5.48 27.33,5.48 26.1,6.46 26.57,7.98 25.33,7.08 24.1,8 24.57,6.46 23.33,5.48 
	24.86,5.48 "/>
<polygon class="st1" points="29.33,10 29.81,11.48 31.33,11.48 30.1,12.46 30.57,13.98 29.33,13.08 28.1,14 28.57,12.46 
	27.33,11.48 28.86,11.48 "/>
<polygon class="st1" points="21.33,10 21.81,11.48 23.33,11.48 22.1,12.46 22.57,13.98 21.33,13.08 20.1,14 20.57,12.46 
	19.33,11.48 20.86,11.48 "/>
<polygon class="st1" points="25.33,16 25.81,17.48 27.33,17.48 26.1,18.46 26.57,19.98 25.33,19.08 24.1,20 24.57,18.46 
	23.33,17.48 24.86,17.48 "/>
<polygon class="st1" points="17.33,16 17.81,17.48 19.33,17.48 18.1,18.46 18.57,19.98 17.33,19.08 16.1,20 16.57,18.46 
	15.33,17.48 16.86,17.48 "/>
<polygon class="st1" points="9.33,16 9.81,17.48 11.33,17.48 10.1,18.46 10.57,19.98 9.33,19.08 8.1,20 8.57,18.46 7.33,17.48 
	8.86,17.48 "/>
<polygon class="st1" points="29.33,22 29.81,23.48 31.33,23.48 30.1,24.46 30.57,25.98 29.33,25.08 28.1,26 28.57,24.46 
	27.33,23.48 28.86,23.48 "/>
<polygon class="st1" points="21.33,22 21.81,23.48 23.33,23.48 22.1,24.46 22.57,25.98 21.33,25.08 20.1,26 20.57,24.46 
	19.33,23.48 20.86,23.48 "/>
<polygon class="st1" points="13.33,22 13.81,23.48 15.33,23.48 14.1,24.46 14.57,25.98 13.33,25.08 12.1,26 12.57,24.46 
	11.33,23.48 12.86,23.48 "/>
<polygon class="st1" points="5.33,22 5.81,23.48 7.33,23.48 6.1,24.46 6.57,25.98 5.33,25.08 4.1,26 4.57,24.46 3.33,23.48 
	4.86,23.48 "/>
<polygon class="st1" points="25.33,28 25.81,29.48 27.33,29.48 26.1,30.46 26.57,31.98 25.33,31.08 24.1,32 24.57,30.46 
	23.33,29.48 24.86,29.48 "/>
<polygon class="st1" points="17.33,28 17.81,29.48 19.33,29.48 18.1,30.46 18.57,31.98 17.33,31.08 16.1,32 16.57,30.46 
	15.33,29.48 16.86,29.48 "/>
<polygon class="st1" points="9.33,28 9.81,29.48 11.33,29.48 10.1,30.46 10.57,31.98 9.33,31.08 8.1,32 8.57,30.46 7.33,29.48 
	8.86,29.48 "/>
<path class="st1" d="M12.1,14l1.24-0.92l1.24,0.9l-0.47-1.51l1.24-0.98h-1.53L13.33,10l-0.47,1.48h-1.42
	c-0.02,0.02-0.03,0.03-0.05,0.04l1.18,0.93L12.1,14z"/>
<linearGradient id="SVGID_1_" gradientUnits="userSpaceOnUse" x1="32" y1="62" x2="32" y2="2">
	<stop  offset="0" style="stop-color:#1A1A1A"/>
	<stop  offset="0.102" style="stop-color:#393939;stop-opacity:0.949"/>
	<stop  offset="0.3475" style="stop-color:#7F7F7F;stop-opacity:0.8262"/>
	<stop  offset="0.5688" style="stop-color:#B6B6B6;stop-opacity:0.7156"/>
	<stop  offset="0.7582" style="stop-color:#DEDEDE;stop-opacity:0.6209"/>
	<stop  offset="0.9081" style="stop-color:#F6F6F6;stop-opacity:0.5459"/>
	<stop  offset="1" style="stop-color:#FFFFFF;stop-opacity:0.5"/>
</linearGradient>
<circle class="st3" cx="32" cy="32" r="30"/>
</svg>
