<?xml version="1.0" encoding="utf-8"?>
<!-- Generator: Adobe Illustrator 24.1.2, SVG Export Plug-In . SVG Version: 6.00 Build 0)  -->
<svg version="1.1" id="Layer_1" xmlns="http://www.w3.org/2000/svg" xmlns:xlink="http://www.w3.org/1999/xlink" x="0px" y="0px"
	 width="64px" height="64px" viewBox="0 0 64 64" style="enable-background:new 0 0 64 64;" xml:space="preserve">
<style type="text/css">
	.st0{fill:#FCFCFC;}
	.st1{fill:#0000B3;}
	.st2{fill:#7B3F00;}
	.st3{fill:#FFE000;}
	.st4{opacity:0.1;fill:url(#SVGID_1_);}
</style>
<path class="st0" d="M61.71,28h-1.42v-5.98c-1.03-2.9-2.47-5.6-4.29-8.02h-6V8c-5.01-3.77-11.25-6-18-6C15.43,2,2,15.43,2,32
	c0,1.36,0.11,2.69,0.29,4h1.43v5.98C4.74,44.88,6.18,47.59,8,50h6v6c5.01,3.77,11.25,6,18,6c6.76,0,12.99-2.25,18-6.02V50h5.99
	c1.81-2.41,3.27-5.1,4.29-8v-6h1.44C61.9,34.69,62,33.36,62,32C62,30.64,61.89,29.31,61.71,28z"/>
<path class="st1" d="M3.71,42h56.57c0.68-1.92,1.16-3.93,1.44-6H2.27C2.55,38.07,3.04,40.08,3.71,42z"/>
<path class="st1" d="M8,50c1.71,2.27,3.73,4.29,6,6h36c2.27-1.71,4.29-3.73,6-6H8z"/>
<path class="st1" d="M32,14h24c-1.71-2.27-3.73-4.29-6-6H32V14z"/>
<path class="st1" d="M32,28h29.73c-0.28-2.07-0.76-4.08-1.44-6H32V28z"/>
<path class="st2" d="M18,32.5l-0.96-5.26c-0.79,0.87-0.98,1.58-1.15,2.21c-0.21,0.78-0.37,1.4-1.67,1.82l-0.42,0.14l0.31-0.31
	c0.79-0.77,0.74-1.18,0.65-1.87c-0.08-0.63-0.19-1.49,0.37-2.98l-4.58,3.17l3.04-4.39c-1.17,0.05-1.81,0.42-2.37,0.75
	c-0.42,0.24-0.78,0.46-1.26,0.46c-0.35,0-0.73-0.11-1.2-0.35l-0.39-0.2l0.5,0c1.06,0,1.32-0.33,1.75-0.88
	c0.4-0.5,0.93-1.18,2.35-1.83L7.5,22l5.25-0.96c-0.87-0.79-1.58-0.98-2.21-1.15c-0.78-0.21-1.4-0.37-1.82-1.67l-0.14-0.42l0.3,0.31
	c0.56,0.58,0.94,0.7,1.34,0.7c0.17,0,0.34-0.02,0.54-0.05c0.24-0.03,0.51-0.06,0.84-0.06c0.65,0,1.35,0.14,2.13,0.43l-3.16-4.57
	l4.39,3.04c-0.05-1.17-0.42-1.81-0.75-2.37c-0.41-0.7-0.73-1.25-0.11-2.46l0.2-0.39l-0.01,0.44c-0.01,1.12,0.34,1.42,0.93,1.91
	c0.52,0.43,1.15,0.97,1.77,2.25l1-5.49l0.96,5.25c0.79-0.87,0.98-1.58,1.15-2.21c0.21-0.78,0.37-1.4,1.67-1.82l0.42-0.13l-0.31,0.3
	c-0.79,0.77-0.74,1.19-0.65,1.88c0.08,0.63,0.18,1.49-0.37,2.97l4.58-3.17l-3.04,4.39c1.17-0.05,1.81-0.42,2.37-0.75
	c0.42-0.25,0.78-0.46,1.26-0.46c0.35,0,0.73,0.11,1.2,0.35l0.39,0.2l-0.5,0c-1.06,0-1.33,0.33-1.79,0.89
	c-0.41,0.5-0.95,1.16-2.34,1.81l5.51,1l-5.25,0.96c0.87,0.79,1.58,0.98,2.21,1.15c0.78,0.21,1.4,0.37,1.82,1.67l0.14,0.42
	l-0.31-0.31c-0.57-0.58-0.95-0.7-1.36-0.7c-0.17,0-0.34,0.02-0.54,0.04c-0.24,0.03-0.5,0.06-0.83,0.06c-0.65,0-1.35-0.14-2.12-0.42
	l3.17,4.58l-4.39-3.04c0.05,1.17,0.42,1.81,0.75,2.37c0.41,0.7,0.73,1.25,0.11,2.46l-0.2,0.39l0.01-0.44
	c0.01-1.11-0.32-1.38-0.88-1.82c-0.5-0.4-1.17-0.94-1.82-2.35L18,32.5z"/>
<path class="st3" d="M15.36,25.99c-1.38,3.34,0.47,3.58-1.16,5.18c2.64-0.86,0.36-2.45,4.09-5.15l-0.91-1.35L15.36,25.99z"/>
<path class="st3" d="M15.67,23.45l-2.3-0.51c-3.34,1.38-2.25,2.89-4.54,2.86c2.47,1.26,1.99-1.48,6.53-0.75L15.67,23.45z"/>
<path class="st3" d="M13.97,22.29l1.35-0.91l-1.3-2.01c-3.34-1.38-3.6,0.47-5.2-1.17C9.69,20.83,11.28,18.56,13.97,22.29z"/>
<path class="st3" d="M14.95,19.35l1.6,0.32l0.59-2.12c-1.38-3.34-2.97-2.43-2.94-4.72C12.94,15.3,15.68,14.82,14.95,19.35z"/>
<path class="st3" d="M21.8,12.82c-2.64,0.86-0.36,2.45-4.09,5.15l0.91,1.35l2.01-1.3C22.01,14.69,20.16,14.42,21.8,12.82z"/>
<path class="st3" d="M20.33,20.54l2.24,0.52c3.34-1.38,2.31-2.9,4.61-2.87c-2.47-1.25-1.99,1.48-6.53,0.75L20.33,20.54z"/>
<path class="st3" d="M22.03,21.71l-1.35,0.91l1.26,1.99c3.34,1.38,3.64-0.45,5.24,1.19C26.31,23.16,24.72,25.43,22.03,21.71z"/>
<path class="st3" d="M21.05,24.64l-1.6-0.32l-0.52,2.28c1.38,3.34,2.89,2.28,2.86,4.57C23.06,28.7,20.32,29.18,21.05,24.64z"/>
<path class="st2" d="M15.67,23.48l-0.71-0.13l0.01,0.03c-1.91,0.47-2.94,1.26-3.75,1.86c-0.41,0.3-0.75,0.55-1.13,0.69
	c-0.25,0.09-0.52,0.13-0.79,0.09c1.97,0.7,1.84-1.63,6.07-0.95L15.67,23.48z"/>
<path class="st2" d="M13.92,22.31l1.35-0.91l-0.41-0.6l-0.02,0.03c-1.68-1.02-2.97-1.19-3.97-1.34c-0.5-0.08-0.93-0.14-1.29-0.31
	c-0.24-0.11-0.46-0.28-0.62-0.49C9.85,20.57,11.41,18.84,13.92,22.31z"/>
<path class="st2" d="M14.91,19.35l1.6,0.32l0.13-0.71l-0.03,0.01c-0.47-1.91-1.26-2.94-1.86-3.75c-0.3-0.41-0.56-0.76-0.69-1.14
	c-0.09-0.25-0.13-0.52-0.09-0.79C13.26,15.25,15.59,15.13,14.91,19.35z"/>
<path class="st2" d="M20.5,14.9c0.07-0.5,0.14-0.93,0.31-1.29c0.11-0.24,0.28-0.46,0.49-0.62c-1.89,0.9-0.15,2.45-3.62,4.96
	l0.91,1.35l0.6-0.41l-0.03-0.02C20.18,17.19,20.35,15.9,20.5,14.9z"/>
<path class="st2" d="M20.33,20.51l0.71,0.13l-0.01-0.03c1.91-0.47,2.94-1.26,3.75-1.86c0.41-0.3,0.75-0.56,1.13-0.69
	c0.25-0.09,0.52-0.13,0.79-0.09c-1.97-0.7-1.84,1.63-6.07,0.95L20.33,20.51z"/>
<path class="st2" d="M22.04,21.67l-1.35,0.91l0.41,0.6l0.02-0.03c1.68,1.02,2.97,1.19,3.97,1.34c0.5,0.08,0.93,0.14,1.29,0.31
	c0.24,0.11,0.46,0.28,0.62,0.49C26.11,23.4,24.55,25.14,22.04,21.67z"/>
<path class="st2" d="M21.11,24.64l-1.6-0.32l-0.13,0.71l0.03-0.01c0.47,1.91,1.26,2.94,1.86,3.75c0.3,0.41,0.55,0.76,0.69,1.14
	c0.09,0.25,0.13,0.52,0.09,0.79C22.76,28.74,20.43,28.87,21.11,24.64z"/>
<path class="st2" d="M16.81,25.11l0.03,0.02c-1.02,1.68-1.19,2.97-1.34,3.97c-0.08,0.5-0.14,0.93-0.31,1.29
	c-0.11,0.24-0.28,0.46-0.49,0.62c1.89-0.9,0.15-2.45,3.62-4.96l-0.91-1.35L16.81,25.11z"/>
<polygon class="st3" points="21.03,23.25 27.93,22 21.03,20.74 25.02,14.98 19.25,18.97 18,12.07 16.74,18.97 10.98,14.98 
	14.97,20.74 8.07,22 14.97,23.25 10.98,29.02 16.74,25.03 18,31.93 19.25,25.03 25.02,29.02 "/>
<polygon class="st2" points="20.33,22.09 27.93,22 19.78,20.41 25.02,14.98 18.15,19.61 18,12.07 16.4,20.32 10.98,14.98 
	15.59,21.82 8.07,22 16.2,23.58 10.98,29.02 17.93,24.47 18,31.93 19.56,23.84 25.02,29.02 "/>
<path class="st2" d="M18,25.49c-1.92,0-3.49-1.56-3.49-3.49c0-1.92,1.57-3.49,3.49-3.49c1.92,0,3.49,1.57,3.49,3.49
	C21.49,23.92,19.92,25.49,18,25.49z"/>
<path class="st3" d="M18,18.69c1.83,0,3.31,1.48,3.31,3.31c0,1.83-1.48,3.31-3.31,3.31s-3.31-1.48-3.31-3.31
	C14.69,20.17,16.17,18.69,18,18.69z"/>
<path class="st2" d="M19.23,20.19c-0.24,0.03-0.99,0.57-0.87,0.66c0.12,0.09,0.24-0.36,0.99-0.36c0.75,0,0.87,0.42,1.08,0.18
	C20.17,20.4,19.47,20.16,19.23,20.19z"/>
<path class="st2" d="M19.38,20.79c-0.48,0-0.78,0.06-0.81,0.42v0.03c0.17-0.15,0.25-0.23,0.36-0.27c-0.06,0.19,0.15,0.43,0.33,0.51
	c-0.33,0-0.48-0.36-0.6-0.18c-0.09,0.12,0.36,0.3,0.69,0.3c0.33,0,0.84-0.51,0.63-0.36c-0.04,0.03-0.08,0.06-0.12,0.08
	c0.05-0.1,0.03-0.19-0.02-0.27c0.17,0.09,0.29,0.19,0.41,0.19C20.08,21.16,19.86,20.79,19.38,20.79z M19.8,21.36
	c-0.09,0.05-0.18,0.08-0.28,0.1c0.13-0.11,0.2-0.36,0.07-0.5c0.07,0.01,0.13,0.03,0.18,0.05C19.82,21.11,19.87,21.24,19.8,21.36z"/>
<path class="st2" d="M17.4,22.48c0.03-0.18,0.12-0.15,0.12-0.27c-0.27,0.06-0.18,0.45-0.42,0.48c-0.24,0.03-0.36,0.3-0.33,0.27
	c0.15-0.12,0.48-0.21,0.72-0.21c0.24,0,0.3,0.15,0.51,0.15c0.21,0,0.27-0.15,0.51-0.15s0.57,0.09,0.72,0.21
	c0.03,0.03-0.09-0.24-0.33-0.27c-0.24-0.03-0.15-0.42-0.42-0.48c0,0.12,0.09,0.09,0.12,0.27c0,0.15-0.27,0.15-0.33,0
	c0.06,0.24-0.12,0.24-0.27,0.24s-0.33,0-0.27-0.24C17.67,22.63,17.4,22.63,17.4,22.48z"/>
<path class="st2" d="M19.41,23.23c0.04,0.06,0.1,0.14,0.16,0.22c-0.34-0.03-0.9-0.22-1.09-0.22c-0.24,0-0.3,0.06-0.48,0.06
	c-0.18,0-0.24-0.06-0.48-0.06c-0.19,0-0.75,0.21-1.09,0.22c0.06-0.08,0.12-0.17,0.16-0.22c-0.24,0.18-0.3,0.27-0.33,0.48
	c0.04-0.06,0.1-0.15,0.16-0.25c0.02,0,0.04,0.01,0.06,0.02c0.88,0.39,0.8,0.53,1.53,0.53c0.73,0,0.64-0.14,1.53-0.53
	c0.02-0.01,0.04-0.01,0.05-0.02c0.06,0.09,0.12,0.18,0.16,0.25C19.71,23.5,19.65,23.41,19.41,23.23z M18.99,23.59
	c-0.29,0.09-0.52,0.19-0.99,0.19c-0.47,0-0.7-0.09-0.99-0.19c0,0,0,0,0,0c0,0,0,0,0,0c0.17-0.01,0.4-0.06,0.99-0.06
	C18.59,23.53,18.82,23.58,18.99,23.59L18.99,23.59L18.99,23.59z"/>
<path class="st2" d="M17.64,20.86c0.12-0.09-0.63-0.63-0.87-0.66c-0.24-0.03-0.93,0.21-1.2,0.48c0.21,0.24,0.33-0.18,1.08-0.18
	C17.4,20.49,17.52,20.95,17.64,20.86z"/>
<path class="st2" d="M17.34,21.31c-0.12-0.18-0.27,0.18-0.6,0.18c0.19-0.08,0.4-0.32,0.33-0.51c0.11,0.04,0.19,0.11,0.36,0.27v-0.03
	c-0.03-0.36-0.33-0.42-0.81-0.42c-0.48,0-0.69,0.36-0.87,0.45c0.12,0,0.24-0.1,0.41-0.19c-0.05,0.08-0.07,0.17-0.02,0.27
	c-0.04-0.02-0.08-0.05-0.12-0.08c-0.21-0.15,0.3,0.36,0.63,0.36C16.98,21.61,17.43,21.43,17.34,21.31z M16.24,21.02
	c0.05-0.02,0.11-0.04,0.18-0.05c-0.14,0.14-0.07,0.39,0.07,0.5c-0.11-0.02-0.2-0.05-0.28-0.1C16.13,21.24,16.18,21.11,16.24,21.02z"
	/>
<path class="st2" d="M18,24.29c-0.15,0-0.54,0.09,0,0.09S18.15,24.29,18,24.29z"/>
<linearGradient id="SVGID_1_" gradientUnits="userSpaceOnUse" x1="32" y1="62" x2="32" y2="2">
	<stop  offset="0" style="stop-color:#1A1A1A"/>
	<stop  offset="0.102" style="stop-color:#393939;stop-opacity:0.949"/>
	<stop  offset="0.3475" style="stop-color:#7F7F7F;stop-opacity:0.8262"/>
	<stop  offset="0.5688" style="stop-color:#B6B6B6;stop-opacity:0.7156"/>
	<stop  offset="0.7582" style="stop-color:#DEDEDE;stop-opacity:0.6209"/>
	<stop  offset="0.9081" style="stop-color:#F6F6F6;stop-opacity:0.5459"/>
	<stop  offset="1" style="stop-color:#FFFFFF;stop-opacity:0.5"/>
</linearGradient>
<path class="st4" d="M62,32c0,16.57-13.43,30-30,30C15.43,62,2,48.57,2,32S15.43,2,32,2C48.57,2,62,15.43,62,32z"/>
</svg>
