<?xml version="1.0" encoding="utf-8"?>
<!-- Generator: Adobe Illustrator 24.1.2, SVG Export Plug-In . SVG Version: 6.00 Build 0)  -->
<svg version="1.1" id="Layer_1" xmlns="http://www.w3.org/2000/svg" xmlns:xlink="http://www.w3.org/1999/xlink" x="0px" y="0px"
	 width="64px" height="64px" viewBox="0 0 64 64" style="enable-background:new 0 0 64 64;" xml:space="preserve">
<style type="text/css">
	.st0{fill:#1A1626;}
	.st1{fill:#007934;}
	.st2{fill:#FCFCFC;}
	.st3{fill:#CE1126;}
	.st4{opacity:0.1;fill:url(#SVGID_1_);}
</style>
<path class="st0" d="M32,2C19.7,1.99,9.14,9.4,4.51,20h54.99C54.86,9.4,44.3,2,32,2z"/>
<path class="st1" d="M4.5,44C9.13,54.6,19.7,62,32,62c12.3,0,22.87-7.41,27.49-18L4.5,44z"/>
<path class="st2" d="M60.29,42c0.23-0.65,0.43-1.33,0.61-2L3.1,40c0.18,0.67,0.38,1.35,0.62,2c0.24,0.68,0.51,1.34,0.79,2l54.99,0
	C59.78,43.34,60.05,42.68,60.29,42z"/>
<path class="st2" d="M60.29,22c-0.24-0.68-0.51-1.35-0.8-2H4.51c-0.29,0.66-0.55,1.32-0.8,2c-0.23,0.66-0.43,1.33-0.61,2l57.81,0
	C60.72,23.32,60.52,22.65,60.29,22z"/>
<path class="st3" d="M60.34,22.17l-56.69,0C2.59,25.25,2,28.55,2,32c0,3.45,0.59,6.75,1.66,9.83l56.69,0C61.41,38.75,62,35.45,62,32
	C62,28.55,61.41,25.25,60.34,22.17z"/>
<path class="st2" d="M20.21,52.28l0.71,0.41L40.2,19.31c1.13-0.3,1.75-1.38,2.37-2.45c0.41-0.71,2.06-3.57,2.78-7.29
	c-2.86,2.48-4.51,5.34-4.92,6.05c-0.62,1.07-1.24,2.14-0.94,3.27L20.21,52.28z"/>
<path class="st2" d="M43.79,52.28l-0.71,0.41L23.8,19.31c-1.13-0.3-1.75-1.38-2.37-2.45c-0.41-0.71-2.06-3.57-2.78-7.29
	c2.86,2.48,4.51,5.34,4.92,6.05c0.62,1.07,1.24,2.14,0.94,3.27L43.79,52.28z"/>
<path class="st3" d="M40,32c0,11.04-8,20-8,20s-8-8.96-8-20c0-11.05,8-20,8-20S40,20.95,40,32z"/>
<path class="st0" d="M26.13,40c1.72-1.65,2.87-4.61,2.87-8c0-3.39-1.15-6.35-2.87-8C25.42,26.34,25,29.07,25,32
	C25,34.93,25.42,37.66,26.13,40z"/>
<path class="st0" d="M37.87,24C36.15,25.65,35,28.61,35,32c0,3.39,1.15,6.35,2.87,8c0.71-2.34,1.13-5.07,1.13-8
	C39,29.07,38.58,26.34,37.87,24z"/>
<path class="st2" d="M32,29.59c0.89,0,1.61,1.08,1.61,2.41c0,1.33-0.72,2.41-1.61,2.41c-0.89,0-1.61-1.08-1.61-2.41
	C30.39,30.67,31.11,29.59,32,29.59z"/>
<path class="st2" d="M31.43,12.75c-0.58,1.74-0.96,4.86-0.96,8.43c0,3.57,0.38,6.69,0.96,8.43c0.24-2.47,0.38-5.35,0.38-8.43
	C31.81,18.09,31.67,15.21,31.43,12.75z"/>
<path class="st2" d="M32.57,12.75c0.57,1.74,0.96,4.86,0.96,8.43c0,3.57-0.38,6.69-0.96,8.43c-0.24-2.47-0.38-5.35-0.38-8.43
	C32.19,18.09,32.33,15.21,32.57,12.75z"/>
<path class="st2" d="M31.43,34.41c-0.58,1.74-0.96,4.86-0.96,8.43c0,3.57,0.38,6.69,0.96,8.43c0.24-2.47,0.38-5.35,0.38-8.43
	C31.81,39.76,31.67,36.88,31.43,34.41z"/>
<path class="st2" d="M32.57,34.41c0.57,1.74,0.96,4.86,0.96,8.43c0,3.57-0.38,6.69-0.96,8.43c-0.24-2.47-0.38-5.35-0.38-8.43
	C32.19,39.76,32.33,36.88,32.57,34.41z"/>
<linearGradient id="SVGID_1_" gradientUnits="userSpaceOnUse" x1="32" y1="62" x2="32" y2="2">
	<stop  offset="0" style="stop-color:#1A1A1A"/>
	<stop  offset="0.102" style="stop-color:#393939;stop-opacity:0.949"/>
	<stop  offset="0.3475" style="stop-color:#7F7F7F;stop-opacity:0.8262"/>
	<stop  offset="0.5688" style="stop-color:#B6B6B6;stop-opacity:0.7156"/>
	<stop  offset="0.7582" style="stop-color:#DEDEDE;stop-opacity:0.6209"/>
	<stop  offset="0.9081" style="stop-color:#F6F6F6;stop-opacity:0.5459"/>
	<stop  offset="1" style="stop-color:#FFFFFF;stop-opacity:0.5"/>
</linearGradient>
<circle class="st4" cx="32" cy="32" r="30"/>
</svg>
