<?xml version="1.0" encoding="utf-8"?>
<!-- Generator: Adobe Illustrator 24.1.2, SVG Export Plug-In . SVG Version: 6.00 Build 0)  -->
<svg version="1.1" id="Layer_1" xmlns="http://www.w3.org/2000/svg" xmlns:xlink="http://www.w3.org/1999/xlink" x="0px" y="0px"
	 width="64px" height="64px" viewBox="0 0 64 64" style="enable-background:new 0 0 64 64;" xml:space="preserve">
<style type="text/css">
	.st0{fill:#E81C27;}
	.st1{fill:#FFE000;}
	.st2{fill:#1A1626;}
	.st3{fill:#FCFCFC;}
	.st4{fill:#000080;}
	.st5{opacity:0.1;fill:url(#SVGID_1_);}
</style>
<path class="st0" d="M10.23,37.46c4.92-1.56,10.14-1.57,15.5-0.02c4.21,1.21,8.31,1.21,12.53,0c5.36-1.54,10.58-1.54,15.51,0.02
	c2.55,0.81,5.06,1.04,7.59,0.74c0.42-2,0.65-4.07,0.65-6.2C62,15.43,48.57,2,32,2C15.43,2,2,15.43,2,32c0,2.13,0.22,4.2,0.65,6.2
	C5.17,38.5,7.68,38.27,10.23,37.46z"/>
<path class="st1" d="M31.69,11.06c-2.98-1.23-4.8-1.46-6.84-1.48c-2.95,0.02-4.36,1.29-7.17,1.41c1.12,1.2,5.15,1.49,6.86-0.08
	c2.53,0.26,3.11,0.95,3.79,1.8c-1.06-0.17-2.27-0.47-3.28,0.65c-0.85,0.17-1.25,0-2.71,0c-0.68,0-0.92,0.33-0.91,0.94
	c0.44-0.61,3.48-0.25,4.23,0c0.57,0.19,1.18,0.99,1.91,1.12c1.9,0.34,4.63-0.66,7.15-1.33l5.44-0.72h-3.74l4.67-0.94
	c-2.17,0-3.61,0-5.08,0c-0.11-0.12-0.36-0.28-0.57-0.42c1.31-0.84,2.46-2.37,2.76-3.11c2.35-0.02,3.88-0.24,5.7-0.67
	C31.85,6.88,34.6,8.32,31.69,11.06z"/>
<path class="st2" d="M28.4,15.51L28.4,15.51c-0.3,0-0.59-0.02-0.84-0.07c-0.42-0.08-0.79-0.36-1.15-0.64
	c-0.27-0.21-0.52-0.4-0.76-0.48c-0.42-0.14-1.65-0.33-2.72-0.33c-0.81,0-1.32,0.11-1.47,0.32l-0.06,0.09l0-0.11
	c0-0.34,0.07-0.58,0.22-0.74c0.16-0.16,0.39-0.23,0.72-0.23c0.57,0,0.99,0.03,1.32,0.05c0.23,0.02,0.44,0.03,0.63,0.03
	c0.25,0,0.48-0.02,0.74-0.07c0.51-0.56,1.11-0.82,1.89-0.82c0.4,0,0.8,0.07,1.18,0.13l0.14,0.02c-0.63-0.78-1.23-1.45-3.69-1.71
	c-0.75,0.69-2.03,1.08-3.51,1.08c-1.49,0-2.82-0.4-3.39-1.01l-0.05-0.06l0.08,0c1.34-0.05,2.38-0.38,3.39-0.7
	c1.1-0.34,2.24-0.7,3.78-0.71c2.12,0.02,3.92,0.27,6.83,1.47c0.63-0.6,0.99-1.13,1.31-1.6c0.73-1.09,1.17-1.74,4.19-1.74
	c1.48,0,3.62,0.16,6.73,0.5l0.21,0.02l-0.2,0.05c-1.69,0.39-3.23,0.64-5.69,0.67c-0.31,0.74-1.43,2.23-2.72,3.07l0.04,0.03
	c0.19,0.12,0.38,0.25,0.48,0.35h5.43l-4.67,0.94h3.92l-5.99,0.79c-0.47,0.13-0.96,0.27-1.44,0.41C31.58,15,29.82,15.51,28.4,15.51z
	 M22.92,13.91c1.08,0,2.32,0.2,2.74,0.34c0.25,0.08,0.51,0.28,0.78,0.49c0.35,0.27,0.72,0.55,1.12,0.63
	c0.25,0.04,0.53,0.07,0.83,0.07c1.41,0,3.16-0.5,4.86-0.99c0.48-0.14,0.97-0.28,1.45-0.41l4.91-0.65h-3.55l4.67-0.94H36l-0.01-0.01
	c-0.09-0.1-0.29-0.24-0.47-0.35l-0.14-0.09l0.05-0.03c1.31-0.84,2.45-2.36,2.74-3.09l0.01-0.02h0.02c2.37-0.02,3.88-0.25,5.49-0.62
	c-2.99-0.33-5.06-0.48-6.51-0.48c-2.98,0-3.41,0.64-4.13,1.71c-0.32,0.48-0.68,1.01-1.34,1.63L31.7,11.1l-0.02-0.01
	c-2.92-1.21-4.71-1.45-6.83-1.47c-1.53,0.01-2.67,0.36-3.76,0.71c-0.99,0.31-2.01,0.63-3.33,0.69c0.58,0.56,1.88,0.93,3.28,0.93
	c1.47,0,2.73-0.39,3.47-1.07l0.01-0.01l0.02,0c2.58,0.27,3.15,0.98,3.81,1.81l0.06,0.07l-0.09-0.01l-0.24-0.04
	c-0.38-0.06-0.78-0.13-1.17-0.13c-0.76,0-1.35,0.25-1.85,0.8l-0.01,0.01l-0.01,0c-0.26,0.05-0.5,0.08-0.76,0.08
	c-0.2,0-0.4-0.01-0.64-0.03c-0.33-0.02-0.74-0.05-1.31-0.05c-0.31,0-0.53,0.07-0.67,0.21c-0.13,0.13-0.19,0.33-0.2,0.6
	C21.68,14.01,22.17,13.91,22.92,13.91z"/>
<path class="st2" d="M26.12,13.02c0.13,0,0.23,0.11,0.23,0.23c0,0.13-0.1,0.23-0.23,0.23c-0.13,0-0.23-0.1-0.23-0.23
	C25.88,13.13,25.99,13.02,26.12,13.02z"/>
<path class="st2" d="M26.12,13.5c-0.14,0-0.25-0.11-0.25-0.25s0.11-0.25,0.25-0.25c0.13,0,0.25,0.11,0.25,0.25
	S26.25,13.5,26.12,13.5z M26.12,13.03c-0.12,0-0.22,0.1-0.22,0.22c0,0.12,0.1,0.22,0.22,0.22c0.12,0,0.22-0.1,0.22-0.22
	C26.34,13.13,26.24,13.03,26.12,13.03z"/>
<path class="st2" d="M27.62,13.38v-0.07c0.63,0,1.6-0.57,1.61-0.57l0.04,0.06C29.23,12.82,28.27,13.38,27.62,13.38z"/>
<path class="st2" d="M34.73,14.1l-0.04-0.06c0.04-0.03,0.91-0.73,1.73-0.73v0.07C35.63,13.38,34.74,14.09,34.73,14.1z"/>
<path class="st2" d="M38.19,8.92c-0.9-0.13-1.87-0.73-1.88-0.74l0.04-0.06c0.01,0.01,0.97,0.6,1.86,0.73L38.19,8.92z"/>
<path class="st2" d="M24.53,10.94c-2.82-0.36-4.03-0.11-4.04-0.11l-0.02-0.07c0.01,0,1.24-0.26,4.07,0.11L24.53,10.94z"/>
<path class="st2" d="M29.07,12.81c-0.23,0-0.47-0.03-0.76-0.07l0.01-0.07c0.35,0.05,0.65,0.09,0.91,0.07c1-0.54,1.79-1.1,2.42-1.7
	l0.05,0.05c-0.64,0.6-1.44,1.16-2.45,1.71l-0.01,0L29.07,12.81z"/>
<path class="st1" d="M21.9,34.76c-2.83-0.38-5.36-1.96-6.95-4.33c2.48,1.41,5.45,1.7,8.15,0.78"/>
<path class="st2" d="M21.9,34.81c-2.84-0.39-5.39-1.97-6.98-4.35l-0.11-0.16l0.17,0.1c2.47,1.4,5.43,1.69,8.12,0.78l0.03,0.09
	c-2.65,0.9-5.56,0.65-8.02-0.69c1.59,2.27,4.06,3.78,6.81,4.15L21.9,34.81z"/>
<polyline class="st1" points="21.84,37.14 13.48,34.48 22.19,33.41 "/>
<polygon class="st2" points="21.83,37.18 13.27,34.46 22.18,33.36 22.2,33.46 13.69,34.5 21.86,37.1 "/>
<path class="st1" d="M23.1,31.21c-2.5-1.38-4.29-3.77-4.92-6.55c1.8,2.21,4.47,3.55,7.32,3.67"/>
<path class="st2" d="M23.08,31.25c-2.51-1.39-4.31-3.78-4.94-6.58l-0.04-0.19l0.12,0.15c1.79,2.2,4.45,3.54,7.29,3.66l0,0.09
	c-2.8-0.12-5.42-1.41-7.23-3.54c0.66,2.69,2.42,4.99,4.85,6.33L23.08,31.25z"/>
<polyline class="st1" points="22.19,33.41 15.35,27.91 23.86,30.05 "/>
<polygon class="st2" points="22.16,33.44 15.16,27.81 23.87,30.01 23.85,30.1 15.54,28 22.22,33.37 "/>
<path class="st1" d="M25.51,28.33c-1.83-2.19-2.64-5.06-2.22-7.88c0.88,2.72,2.88,4.92,5.5,6.07"/>
<path class="st2" d="M25.47,28.36c-1.84-2.2-2.65-5.09-2.23-7.92l0.03-0.19l0.06,0.19c0.88,2.7,2.87,4.9,5.47,6.04l-0.04,0.08
	c-2.57-1.12-4.55-3.27-5.46-5.91c-0.35,2.75,0.46,5.53,2.24,7.65L25.47,28.36z"/>
<polyline class="st1" points="23.86,30.05 19.47,22.46 26.63,27.53 "/>
<polygon class="st2" points="23.82,30.08 19.32,22.3 26.66,27.49 26.6,27.57 19.61,22.61 23.9,30.03 "/>
<path class="st1" d="M28.79,26.52c-0.92-2.7-0.63-5.67,0.78-8.15c-0.16,2.85,0.91,5.63,2.94,7.65"/>
<path class="st2" d="M28.74,26.54c-0.92-2.71-0.64-5.7,0.78-8.19l0.1-0.17l-0.01,0.2c-0.16,2.83,0.91,5.61,2.92,7.61l-0.07,0.06
	c-1.99-1.97-3.06-4.69-2.96-7.49c-1.32,2.43-1.57,5.32-0.68,7.95L28.74,26.54z"/>
<polyline class="st1" points="26.63,27.53 25.28,18.86 30.13,26.17 "/>
<polygon class="st2" points="26.59,27.54 25.2,18.66 30.16,26.15 30.09,26.2 25.36,19.06 26.68,27.52 "/>
<path class="st1" d="M32.5,26.01c0.12-2.85,1.46-5.52,3.67-7.32c-1.18,2.6-1.19,5.58-0.03,8.19"/>
<path class="st2" d="M36.11,26.9c-1.14-2.56-1.16-5.48-0.05-8.05c-2.11,1.79-3.39,4.39-3.5,7.16l-0.09,0
	c0.12-2.86,1.47-5.54,3.69-7.36l0.15-0.12l-0.08,0.18c-1.17,2.59-1.18,5.56-0.03,8.15L36.11,26.9z"/>
<polyline class="st1" points="30.13,26.17 32,17.6 33.88,26.17 "/>
<polygon class="st2" points="33.83,26.18 32,17.82 30.17,26.18 30.08,26.16 32,17.38 33.92,26.16 "/>
<path class="st1" d="M36.15,26.88c1.14-2.62,3.35-4.62,6.07-5.5c-2.04,2-3.12,4.78-2.98,7.63"/>
<path class="st2" d="M39.19,29.01c-0.14-2.8,0.9-5.53,2.86-7.53c-2.62,0.91-4.74,2.87-5.86,5.42l-0.08-0.04
	c1.15-2.63,3.37-4.64,6.1-5.53l0.19-0.06l-0.14,0.14c-2.03,1.99-3.11,4.76-2.97,7.59L39.19,29.01z"/>
<polyline class="st1" points="33.87,26.17 38.72,18.86 37.37,27.53 "/>
<polygon class="st2" points="37.42,27.54 37.32,27.52 38.64,19.06 33.91,26.2 33.84,26.15 38.8,18.65 "/>
<path class="st1" d="M39.23,29.01c2.01-2.03,4.79-3.1,7.65-2.94c-2.62,1.13-4.64,3.33-5.54,6.04"/>
<path class="st2" d="M41.39,32.12l-0.09-0.03c0.88-2.66,2.84-4.83,5.38-5.99c-2.76-0.1-5.46,0.96-7.42,2.93l-0.06-0.06
	c2.02-2.03,4.82-3.11,7.68-2.95l0.2,0.01l-0.18,0.08C44.29,27.24,42.28,29.43,41.39,32.12z"/>
<polyline class="st1" points="37.37,27.53 44.53,22.46 40.14,30.05 "/>
<polygon class="st2" points="40.18,30.08 40.1,30.03 44.39,22.61 37.4,27.57 37.34,27.49 44.68,22.29 "/>
<path class="st1" d="M41.34,32.11c2.61-1.16,5.59-1.15,8.19,0.02c-2.85,0.11-5.53,1.43-7.34,3.63"/>
<path class="st2" d="M42.23,35.79l-0.07-0.06c1.78-2.16,4.39-3.48,7.18-3.64c-2.54-1.09-5.44-1.07-7.98,0.06l-0.04-0.08
	c2.62-1.17,5.62-1.16,8.23,0.02l0.18,0.08l-0.2,0.01C46.7,32.28,44.03,33.6,42.23,35.79z"/>
<polyline class="st1" points="40.14,30.05 48.65,27.91 41.81,33.41 "/>
<polygon class="st2" points="41.84,33.45 41.78,33.37 48.46,28.01 40.15,30.1 40.13,30.01 48.84,27.81 "/>
<polyline class="st1" points="41.81,33.41 50.52,34.48 42.16,37.14 "/>
<polygon class="st2" points="42.17,37.18 42.14,37.1 50.31,34.5 41.8,33.45 41.82,33.36 50.74,34.46 "/>
<path class="st1" d="M32,26c5.63,0,10.2,4.57,10.2,10.2c0,5.63-4.57,10.2-10.2,10.2c-5.63,0-10.2-4.57-10.2-10.2
	C21.8,30.57,26.37,26,32,26z"/>
<path class="st2" d="M32,46.45c-5.65,0-10.25-4.6-10.25-10.25S26.35,25.95,32,25.95s10.25,4.6,10.25,10.25S37.65,46.45,32,46.45z
	 M32,26.05c-5.6,0-10.15,4.56-10.15,10.15S26.4,46.35,32,46.35c5.6,0,10.15-4.55,10.15-10.15S37.6,26.05,32,26.05z"/>
<path class="st3" d="M4.15,42.43c0.21,0,0.41,0.02,0.62,0.02c0.23,0,0.46-0.01,0.69-0.02c0.27-0.01,0.53-0.01,0.8-0.03
	c0.11-0.01,0.22-0.02,0.33-0.03c1.87-0.14,3.73-0.5,5.58-1.09c3.75-1.19,7.61-1.18,11.8,0.02c5.33,1.54,10.74,1.54,16.08,0
	c4.18-1.2,8.04-1.21,11.8-0.02c1.85,0.59,3.71,0.94,5.58,1.09c0.11,0.01,0.22,0.02,0.33,0.03c0.27,0.02,0.53,0.02,0.8,0.03
	c0.23,0.01,0.46,0.02,0.69,0.02c0.21,0,0.42-0.01,0.62-0.02c0.09,0,0.19-0.01,0.29-0.01c0.5-1.36,0.91-2.77,1.21-4.22
	c-2.52,0.3-5.03,0.07-7.59-0.74c-4.93-1.56-10.14-1.57-15.51-0.02c-4.21,1.21-8.31,1.21-12.53,0c-5.36-1.54-10.58-1.54-15.5,0.02
	c-2.55,0.81-5.06,1.04-7.59,0.74c0.3,1.45,0.71,2.85,1.21,4.22C3.96,42.42,4.05,42.42,4.15,42.43z"/>
<path class="st3" d="M57.85,46.51c-0.33-0.03-0.67-0.07-1-0.11c0,0-0.01,0-0.01,0c-1.02-0.14-2.04-0.38-3.06-0.7
	c-4.93-1.56-10.14-1.57-15.51-0.02c-4.21,1.21-8.31,1.21-12.53,0c-5.36-1.54-10.58-1.54-15.5,0.02c-1.37,0.43-2.73,0.71-4.08,0.82
	c0,0-0.01,0-0.02,0c-0.13,0.01-0.26,0.01-0.38,0.02c0.75,1.36,1.61,2.65,2.56,3.87c1.29-0.19,2.57-0.48,3.85-0.89
	c3.75-1.19,7.61-1.18,11.8,0.02c5.33,1.53,10.74,1.53,16.08,0c4.18-1.2,8.04-1.21,11.8-0.02c1.28,0.41,2.57,0.69,3.85,0.89
	c0.95-1.22,1.8-2.51,2.56-3.87c-0.11-0.01-0.22-0.01-0.34-0.02C57.89,46.51,57.87,46.51,57.85,46.51z"/>
<path class="st3" d="M38.26,53.89c-4.21,1.21-8.31,1.21-12.53,0c-5-1.44-9.87-1.51-14.5-0.25c1.3,1.25,2.71,2.38,4.22,3.38
	c0.6-0.08,1.2-0.14,1.81-0.16c2.16-0.07,4.38,0.23,6.7,0.9c5.33,1.53,10.74,1.53,16.08,0c2.32-0.67,4.54-0.96,6.7-0.9
	c0.61,0.02,1.21,0.08,1.81,0.16c1.51-1,2.92-2.13,4.22-3.38C48.13,52.38,43.26,52.46,38.26,53.89z"/>
<path class="st4" d="M40.04,49.53c-5.33,1.53-10.74,1.53-16.08,0c-4.18-1.2-8.04-1.21-11.8-0.02c-1.28,0.41-2.57,0.69-3.85,0.89
	c0.9,1.15,1.87,2.24,2.92,3.25c4.63-1.26,9.5-1.19,14.5,0.25c4.21,1.21,8.31,1.21,12.53,0c5-1.44,9.87-1.51,14.5-0.25
	c1.05-1.01,2.03-2.09,2.92-3.25c-1.29-0.19-2.57-0.48-3.85-0.89C48.08,48.32,44.22,48.33,40.04,49.53z"/>
<path class="st4" d="M59.23,42.44c-0.23,0-0.46-0.01-0.69-0.02c-0.27-0.01-0.53-0.01-0.8-0.03c-0.11-0.01-0.22-0.02-0.33-0.03
	c-1.87-0.14-3.73-0.5-5.58-1.09c-3.75-1.19-7.61-1.18-11.8,0.02c-5.33,1.54-10.74,1.54-16.08,0c-4.18-1.2-8.04-1.21-11.8-0.02
	c-1.85,0.59-3.71,0.94-5.58,1.09c-0.11,0.01-0.22,0.02-0.33,0.03c-0.27,0.02-0.53,0.02-0.8,0.03C5.23,42.43,5,42.44,4.77,42.44
	c-0.21,0-0.41-0.01-0.62-0.02c-0.1,0-0.19-0.01-0.29-0.01c0.53,1.43,1.16,2.8,1.89,4.11c0.13-0.01,0.26-0.01,0.38-0.02
	c0.01,0,0.01,0,0.02,0c1.35-0.11,2.71-0.38,4.08-0.82c4.92-1.56,10.14-1.57,15.5-0.02c4.21,1.21,8.31,1.21,12.53,0
	c5.36-1.54,10.58-1.54,15.51,0.02c1.03,0.33,2.05,0.56,3.06,0.7c0,0,0.01,0,0.01,0c0.34,0.05,0.67,0.09,1,0.11c0.02,0,0.04,0,0.06,0
	c0.11,0.01,0.22,0.01,0.34,0.02c0.73-1.31,1.36-2.69,1.89-4.11c-0.1,0-0.19,0.01-0.29,0.01C59.65,42.43,59.44,42.44,59.23,42.44z"/>
<path class="st4" d="M40.04,57.76c-5.33,1.53-10.74,1.53-16.08,0c-2.32-0.67-4.54-0.96-6.7-0.9c-0.61,0.02-1.21,0.08-1.81,0.16
	c4.29,2.84,9.36,4.61,14.81,4.92C30.84,61.97,31.42,62,32,62s1.16-0.03,1.73-0.05c5.46-0.31,10.52-2.08,14.81-4.92
	c-0.6-0.08-1.2-0.14-1.81-0.16C44.58,56.8,42.36,57.09,40.04,57.76z"/>
<linearGradient id="SVGID_1_" gradientUnits="userSpaceOnUse" x1="32" y1="62" x2="32" y2="2">
	<stop  offset="0" style="stop-color:#1A1A1A"/>
	<stop  offset="0.102" style="stop-color:#393939;stop-opacity:0.949"/>
	<stop  offset="0.3475" style="stop-color:#7F7F7F;stop-opacity:0.8262"/>
	<stop  offset="0.5688" style="stop-color:#B6B6B6;stop-opacity:0.7156"/>
	<stop  offset="0.7582" style="stop-color:#DEDEDE;stop-opacity:0.6209"/>
	<stop  offset="0.9081" style="stop-color:#F6F6F6;stop-opacity:0.5459"/>
	<stop  offset="1" style="stop-color:#FFFFFF;stop-opacity:0.5"/>
</linearGradient>
<circle class="st5" cx="32" cy="32" r="30"/>
</svg>
