<?xml version="1.0" encoding="utf-8"?>
<!-- Generator: Adobe Illustrator 24.1.2, SVG Export Plug-In . SVG Version: 6.00 Build 0)  -->
<svg version="1.1" id="Layer_1" xmlns="http://www.w3.org/2000/svg" xmlns:xlink="http://www.w3.org/1999/xlink" x="0px" y="0px"
	 width="64px" height="64px" viewBox="0 0 64 64" style="enable-background:new 0 0 64 64;" xml:space="preserve">
<style type="text/css">
	.st0{fill:#E81C27;}
	.st1{fill:#007934;}
	.st2{fill:#FCFCFC;}
	.st3{fill:#FFD000;}
	.st4{opacity:0.1;fill:url(#SVGID_1_);}
</style>
<path class="st0" d="M32,2C19.32,2,8.5,9.88,4.11,21h55.78C55.5,9.88,44.68,2,32,2z"/>
<path class="st1" d="M32,62c12.68,0,23.5-7.88,27.89-19H4.11C8.5,54.12,19.32,62,32,62z"/>
<path class="st2" d="M62,32c0-3.14-0.49-6.16-1.38-9H3.38C2.49,25.84,2,28.86,2,32s0.49,6.16,1.38,9h57.23
	C61.51,38.16,62,35.14,62,32z"/>
<path class="st2" d="M60.29,22c-0.12-0.34-0.27-0.67-0.4-1H4.11c-0.13,0.33-0.28,0.66-0.4,1c-0.12,0.33-0.22,0.66-0.33,1h57.23
	C60.51,22.66,60.4,22.33,60.29,22z"/>
<path class="st2" d="M3.71,42c0.12,0.34,0.27,0.67,0.4,1h55.78c0.13-0.33,0.28-0.66,0.4-1c0.12-0.33,0.22-0.66,0.33-1H3.38
	C3.49,41.34,3.6,41.67,3.71,42z"/>
<path class="st3" d="M37.59,35.92c-0.5,0.46-1.15,0.74-1.84,0.8c-1.7,0.15-3.21-1.07-3.36-2.71v-2.36c0.02-0.54,0.49-0.97,1.05-0.95
	c0.35,0.01,0.67,0.19,0.85,0.49c0.42-1.21-0.27-2.53-1.53-2.93c-1.26-0.4-2.62,0.25-3.04,1.47c-0.16,0.47-0.16,0.99,0,1.46
	c0.28-0.47,0.91-0.63,1.39-0.35c0.3,0.17,0.5,0.48,0.51,0.82v2.36c-0.15,1.64-1.66,2.85-3.36,2.71c-0.69-0.06-1.34-0.34-1.84-0.8
	c-0.66,1.59-2.53,2.37-4.18,1.74c-0.24-0.09-0.47-0.22-0.69-0.36c0.3,2.86,4.75,2.28,5.08-0.51c1.4,2.37,4.47,1.69,5.37-1.21H32
	c0.9,2.89,3.98,3.57,5.37,1.21c0.33,2.78,4.78,3.37,5.08,0.51c-0.21,0.15-0.44,0.27-0.69,0.36C40.12,38.29,38.25,37.52,37.59,35.92z
	 M30.26,30.17c0.11-0.75,0.72-1.34,1.5-1.44c0.96-0.13,1.84,0.52,1.97,1.44c-0.69-0.13-1.38,0.17-1.74,0.75
	C31.65,30.33,30.95,30.03,30.26,30.17z"/>
<path class="st3" d="M28.64,39.09c0,0-0.31-0.18-0.97-0.1c-0.09-0.41-0.46-0.76-0.73-0.93c-0.25,0.27-0.43,0.77-0.34,1.13
	c-0.47,0.08-0.9,0.38-0.9,0.38C26.78,40.61,28.02,40.39,28.64,39.09z"/>
<polygon class="st3" points="28.64,39.09 28.64,39.09 28.64,39.09 "/>
<path class="st3" d="M33.5,38.95c0,0-0.28-0.23-0.94-0.25c-0.02-0.42-0.33-0.82-0.56-1.03c-0.3,0.22-0.56,0.69-0.53,1.06
	c-0.47,0.01-0.96,0.23-0.96,0.23C31.41,40.15,32.67,40.12,33.5,38.95z"/>
<path class="st3" d="M37.06,38.06c-0.33,0.18-0.67,0.59-0.7,0.96c-0.47-0.07-0.98,0.08-0.98,0.08c0.68,1.32,1.93,1.5,2.95,0.47
	c0,0-0.24-0.27-0.88-0.39C37.48,38.76,37.25,38.31,37.06,38.06z"/>
<path class="st3" d="M23.88,41.27l0.44,1.41c5.03-1.44,10.35-1.44,15.38,0l0.43-1.41C34.81,39.75,29.19,39.75,23.88,41.27z"/>
<polygon class="st3" points="31.26,23.52 30.8,24.87 32,24.03 33.2,24.87 32.74,23.52 33.94,22.68 32.46,22.68 32,21.32 
	31.54,22.68 30.06,22.68 "/>
<polygon class="st3" points="25.55,24.99 25.1,26.35 26.29,25.51 27.49,26.35 27.03,24.99 28.23,24.15 26.75,24.15 26.29,22.79 
	25.84,24.15 24.36,24.15 "/>
<polygon class="st3" points="21.38,29.01 20.92,30.37 22.12,29.53 23.31,30.37 22.86,29.01 24.05,28.17 22.57,28.17 22.12,26.82 
	21.66,28.17 20.18,28.17 "/>
<polygon class="st3" points="20.59,35.03 21.79,35.87 21.33,34.51 22.53,33.67 21.05,33.67 20.59,32.31 20.13,33.67 18.65,33.67 
	19.85,34.51 19.39,35.87 "/>
<polygon class="st3" points="36.96,24.99 36.51,26.35 37.71,25.51 38.9,26.35 38.45,24.99 39.64,24.15 38.16,24.15 37.71,22.79 
	37.25,24.15 35.77,24.15 "/>
<polygon class="st3" points="41.14,29.01 40.68,30.37 41.88,29.53 43.08,30.37 42.62,29.01 43.82,28.17 42.34,28.17 41.88,26.82 
	41.42,28.17 39.94,28.17 "/>
<polygon class="st3" points="44.15,34.51 45.35,33.67 43.87,33.67 43.41,32.31 42.95,33.67 41.47,33.67 42.67,34.51 42.21,35.87 
	43.41,35.03 44.61,35.87 "/>
<linearGradient id="SVGID_1_" gradientUnits="userSpaceOnUse" x1="32" y1="62" x2="32" y2="2">
	<stop  offset="0" style="stop-color:#1A1A1A"/>
	<stop  offset="0.102" style="stop-color:#393939;stop-opacity:0.949"/>
	<stop  offset="0.3475" style="stop-color:#7F7F7F;stop-opacity:0.8262"/>
	<stop  offset="0.5688" style="stop-color:#B6B6B6;stop-opacity:0.7156"/>
	<stop  offset="0.7582" style="stop-color:#DEDEDE;stop-opacity:0.6209"/>
	<stop  offset="0.9081" style="stop-color:#F6F6F6;stop-opacity:0.5459"/>
	<stop  offset="1" style="stop-color:#FFFFFF;stop-opacity:0.5"/>
</linearGradient>
<circle class="st4" cx="32" cy="32" r="30"/>
</svg>
