<?xml version="1.0" encoding="utf-8"?>
<!-- Generator: Adobe Illustrator 24.1.2, SVG Export Plug-In . SVG Version: 6.00 Build 0)  -->
<svg version="1.1" id="Layer_1" xmlns="http://www.w3.org/2000/svg" xmlns:xlink="http://www.w3.org/1999/xlink" x="0px" y="0px"
	 width="64px" height="64px" viewBox="0 0 64 64" style="enable-background:new 0 0 64 64;" xml:space="preserve">
<style type="text/css">
	.st0{fill:#FCFCFC;}
	.st1{fill:#E81C27;}
	.st2{fill:#96877D;}
	.st3{fill:#CCCCCC;}
	.st4{fill:none;stroke:#96877D;stroke-width:0.0617;}
	.st5{fill:#96877D;stroke:#000000;stroke-width:0.0244;}
	.st6{opacity:0.1;fill:url(#SVGID_1_);}
</style>
<path class="st0" d="M2,32c0,16.57,13.43,30,30,30V2C15.43,2,2,15.43,2,32z"/>
<path class="st1" d="M62,32C62,15.43,48.57,2,32,2v60C48.57,62,62,48.57,62,32z"/>
<path class="st1" d="M9,17.14v5.45h5.45c0,0.91,0.91,1.82,1.82,1.82v5.45h5.45v-5.45c0.91,0,1.82-0.91,1.82-1.82H29v-5.45h-5.45
	c0-0.91-0.91-1.82-1.82-1.82V9.87h-5.45v5.45c-0.91,0-1.82,0.91-1.82,1.82H9L9,17.14z"/>
<path class="st2" d="M9.36,17.51v4.73h5.45c0,0.91,0.91,1.82,1.82,1.82v5.45h4.73v-5.45c0.91,0,1.82-0.91,1.82-1.82h5.45v-4.73
	h-5.45c0-0.91-0.91-1.82-1.82-1.82v-5.46h-4.73v5.46c-0.91,0-1.82,0.91-1.82,1.82H9.36z"/>
<path class="st3" d="M9.54,17.69v4.36H15c0,0.91,0.91,1.82,1.82,1.82v5.45h4.36v-5.45c0.91,0,1.82-0.91,1.82-1.82h5.45v-4.36H23
	c0-0.91-0.91-1.82-1.82-1.82v-5.46h-4.36v5.46c-0.91,0-1.82,0.91-1.82,1.82H9.54z"/>
<path class="st2" d="M16.48,15.81c-0.32-0.32-0.92-0.23-1.35,0.19c-0.43,0.43-0.51,1.03-0.19,1.35c0.32,0.32,0.92,0.23,1.35-0.19
	C16.71,16.73,16.8,16.13,16.48,15.81z"/>
<polygon class="st3" points="15.25,16.38 15.51,16.9 15,16.64 14.87,16.77 15.9,17.28 15.38,16.26 "/>
<polygon class="st3" points="15.77,15.87 15.64,16 16.41,16.77 16.54,16.64 "/>
<path class="st2" d="M22.87,16c-0.43-0.43-1.03-0.51-1.35-0.19c-0.32,0.32-0.23,0.92,0.19,1.35c0.43,0.43,1.03,0.51,1.35,0.19
	C23.38,17.03,23.3,16.42,22.87,16z"/>
<polygon class="st3" points="22.48,16.13 21.97,16.38 22.23,15.87 22.1,15.74 21.58,16.77 22.61,16.26 "/>
<polygon class="st3" points="22.87,16.51 22.1,17.28 22.23,17.41 23,16.64 "/>
<path class="st2" d="M23.06,22.39c-0.32-0.32-0.92-0.23-1.35,0.19c-0.43,0.43-0.51,1.03-0.19,1.35c0.32,0.32,0.92,0.23,1.35-0.19
	C23.3,23.32,23.38,22.71,23.06,22.39z"/>
<polygon class="st3" points="22.61,23.49 22.74,23.36 22.48,22.84 23,23.1 23.13,22.97 22.1,22.46 "/>
<polygon class="st3" points="23.13,22.97 23.13,22.97 23.13,22.97 "/>
<polygon class="st3" points="21.46,23.1 22.23,23.87 22.36,23.74 21.58,22.97 "/>
<path class="st2" d="M16.28,22.59c-0.43-0.43-1.03-0.51-1.35-0.19c-0.32,0.32-0.23,0.92,0.19,1.35c0.43,0.43,1.03,0.51,1.35,0.19
	C16.8,23.62,16.71,23.01,16.28,22.59z"/>
<polygon class="st3" points="15.38,23.49 15.51,23.62 16.03,23.36 15.77,23.87 15.9,24 16.41,22.97 "/>
<polygon class="st3" points="15.77,22.33 15,23.1 15.13,23.23 15.9,22.46 "/>
<path class="st4" d="M19,16.05c2.11,0,3.82,1.71,3.82,3.82s-1.71,3.82-3.82,3.82s-3.82-1.71-3.82-3.82S16.89,16.05,19,16.05z"/>
<path class="st4" d="M19,16.96c1.61,0,2.91,1.3,2.91,2.91c0,1.61-1.3,2.91-2.91,2.91c-1.61,0-2.91-1.3-2.91-2.91
	C16.09,18.26,17.39,16.96,19,16.96z"/>
<path d="M17.54,22.78c0.1,0,0.18,0.08,0.18,0.18c0,0.1-0.08,0.18-0.18,0.18s-0.18-0.08-0.18-0.18
	C17.36,22.86,17.44,22.78,17.54,22.78z"/>
<path d="M20.45,22.78c0.1,0,0.18,0.08,0.18,0.18c0,0.1-0.08,0.18-0.18,0.18c-0.1,0-0.18-0.08-0.18-0.18
	C20.27,22.86,20.35,22.78,20.45,22.78z"/>
<path d="M18.88,22.96v0.19h-0.24c-0.24,0-0.24,0.19,0,0.19h0.24v0.19c0,0.2,0.21,0.22,0.23,0.02l0.02-0.21h0.24
	c0.24,0,0.24-0.19,0-0.19h-0.24v-0.19C19.12,22.77,18.88,22.77,18.88,22.96L18.88,22.96z"/>
<path d="M15.45,20.81l0.25-0.06l-0.03-0.12c-0.01-0.03-0.02-0.04-0.03-0.05c-0.01-0.01-0.04-0.01-0.08-0.01l0-0.02l0.22-0.05l0,0.02
	c-0.02,0.01-0.04,0.01-0.05,0.02c-0.01,0.01-0.02,0.02-0.02,0.03c0,0.01,0,0.03,0,0.05l0.03,0.12l0.2-0.05
	c0.03-0.01,0.05-0.01,0.06-0.02c0.01,0,0.01-0.01,0.02-0.02c0-0.02,0-0.03,0-0.05l-0.01-0.02l0.02,0l0.07,0.27l-0.02,0l-0.01-0.02
	c-0.01-0.03-0.02-0.04-0.04-0.05c-0.01-0.01-0.04,0-0.08,0.01l-0.41,0.1c-0.03,0.01-0.05,0.01-0.06,0.02
	c-0.01,0-0.01,0.01-0.02,0.02c0,0.02,0,0.03,0,0.05L15.47,21l-0.02,0l-0.11-0.47l0.14-0.04l0,0.02c-0.03,0.02-0.05,0.03-0.06,0.04
	c-0.01,0.01-0.02,0.03-0.02,0.05c0,0.02,0,0.04,0.01,0.08L15.45,20.81L15.45,20.81z M15.28,19.68c0-0.08,0.04-0.16,0.11-0.21
	c0.07-0.06,0.15-0.08,0.25-0.08c0.1,0.01,0.18,0.04,0.24,0.11c0.06,0.07,0.09,0.14,0.09,0.23c-0.01,0.09-0.04,0.16-0.11,0.22
	c-0.07,0.06-0.15,0.08-0.25,0.08c-0.1-0.01-0.19-0.05-0.25-0.12C15.3,19.84,15.28,19.77,15.28,19.68L15.28,19.68z M15.32,19.7
	c0,0.06,0.02,0.11,0.06,0.14c0.05,0.05,0.13,0.07,0.23,0.08c0.11,0.01,0.19-0.01,0.25-0.05c0.05-0.03,0.07-0.08,0.07-0.13
	c0-0.06-0.02-0.11-0.06-0.16c-0.05-0.04-0.12-0.07-0.22-0.07c-0.11-0.01-0.2,0.01-0.25,0.05C15.35,19.58,15.32,19.63,15.32,19.7
	L15.32,19.7z M16.27,18.5l-0.06,0.16l-0.36,0.1c-0.01,0.02-0.01,0.03-0.01,0.04c0,0,0,0.01,0,0.01c0,0,0,0.01-0.01,0.01l0.18,0.07
	c0.04,0.01,0.06,0.02,0.08,0.01c0.02-0.01,0.03-0.02,0.04-0.04l0.01-0.02l0.02,0.01l-0.1,0.26l-0.02-0.01l0.01-0.02
	c0.01-0.03,0.01-0.05,0-0.07C16.02,19,16,18.99,15.96,18.98l-0.39-0.15c-0.04-0.02-0.06-0.02-0.08-0.02
	c-0.02,0.01-0.03,0.02-0.04,0.04l-0.01,0.02l-0.02-0.01l0.08-0.22c0.02-0.06,0.05-0.11,0.07-0.14c0.02-0.03,0.05-0.05,0.08-0.06
	c0.03-0.01,0.07-0.01,0.1,0c0.04,0.01,0.07,0.04,0.08,0.07c0.02,0.04,0.02,0.08,0.02,0.14l0.22-0.06c0.05-0.01,0.09-0.03,0.11-0.04
	s0.04-0.04,0.06-0.07L16.27,18.5L16.27,18.5z M15.79,18.82c0-0.01,0-0.01,0.01-0.01c0,0,0-0.01,0-0.01
	c0.02-0.06,0.03-0.11,0.01-0.15c-0.01-0.04-0.04-0.07-0.08-0.08c-0.04-0.01-0.07-0.01-0.11,0c-0.03,0.01-0.06,0.04-0.07,0.08
	c-0.01,0.02-0.01,0.04-0.02,0.07L15.79,18.82L15.79,18.82z M17.18,16.65l0.13,0.16l-0.01,0.01c-0.04-0.03-0.08-0.05-0.12-0.06
	c-0.05-0.01-0.1,0-0.16,0.03c-0.07,0.04-0.11,0.11-0.11,0.19c0,0.07,0.02,0.13,0.06,0.2c0.03,0.05,0.07,0.09,0.12,0.12
	c0.05,0.03,0.1,0.04,0.14,0.04c0.05,0,0.09-0.01,0.12-0.04c0.02-0.01,0.04-0.03,0.05-0.05c0.02-0.02,0.03-0.04,0.04-0.06l-0.1-0.16
	C17.33,17.02,17.32,17,17.31,17c-0.01-0.01-0.02-0.01-0.03-0.01c-0.01,0-0.03,0.01-0.05,0.02L17.21,17l0.21-0.14l0.01,0.02
	l-0.01,0.01c-0.02,0.01-0.03,0.03-0.03,0.05c0,0.01,0.01,0.04,0.03,0.06l0.11,0.17c-0.02,0.04-0.04,0.07-0.07,0.1
	c-0.03,0.03-0.06,0.05-0.09,0.08c-0.11,0.07-0.21,0.09-0.31,0.05c-0.07-0.02-0.13-0.07-0.18-0.14c-0.03-0.05-0.05-0.1-0.06-0.16
	c-0.01-0.07,0-0.14,0.03-0.19c0.02-0.05,0.06-0.09,0.12-0.13c0.02-0.01,0.04-0.02,0.06-0.03c0.02-0.01,0.05-0.02,0.08-0.02
	c0.02,0,0.03-0.01,0.04-0.01c0.01,0,0.01-0.01,0.01-0.02c0-0.01,0-0.02-0.01-0.03L17.18,16.65L17.18,16.65z M18.24,16.72L18,16.79
	l-0.02,0.11c0,0.03,0,0.05,0,0.06c0,0.01,0.01,0.02,0.02,0.02c0.01,0,0.03,0,0.06,0l0,0.02l-0.2,0.05l0-0.02
	c0.02-0.01,0.04-0.02,0.05-0.03c0.01-0.02,0.02-0.05,0.03-0.11l0.08-0.58l0.02,0l0.36,0.47c0.03,0.04,0.05,0.06,0.07,0.07
	c0.02,0.01,0.04,0.01,0.07,0l0,0.02l-0.25,0.07l0-0.02c0.02-0.01,0.04-0.02,0.05-0.03c0.01-0.01,0.01-0.02,0.01-0.03
	c0-0.01-0.02-0.03-0.04-0.06L18.24,16.72L18.24,16.72z M18.22,16.69l-0.18-0.23L18,16.75L18.22,16.69L18.22,16.69z M19.38,16.69
	l0.02,0l-0.06,0.17l-0.51-0.02l0-0.02l0.02,0c0.03,0,0.05-0.01,0.06-0.02c0.01-0.01,0.01-0.03,0.01-0.07l0.02-0.42
	c0-0.04,0-0.07-0.01-0.08c-0.01-0.01-0.03-0.02-0.05-0.02l-0.02,0l0-0.02l0.3,0.01l0,0.02c-0.03,0-0.06,0-0.07,0.01
	c-0.01,0.01-0.02,0.01-0.03,0.02c-0.01,0.01-0.01,0.03-0.01,0.07l-0.02,0.41c0,0.03,0,0.04,0.01,0.05c0,0.01,0.01,0.01,0.02,0.02
	c0.01,0,0.03,0.01,0.07,0.01l0.05,0c0.05,0,0.09,0,0.11-0.01s0.04-0.02,0.06-0.04C19.34,16.76,19.36,16.73,19.38,16.69L19.38,16.69z
	 M20.25,16.92l0.01,0.01l-0.11,0.15l-0.48-0.16l0.01-0.02l0.02,0.01c0.03,0.01,0.05,0.01,0.07-0.01c0.01-0.01,0.02-0.03,0.03-0.06
	l0.13-0.4c0.01-0.04,0.02-0.06,0.01-0.08c-0.01-0.02-0.02-0.03-0.05-0.04l-0.02-0.01l0.01-0.02l0.28,0.09l-0.01,0.02
	c-0.03-0.01-0.06-0.02-0.07-0.01c-0.02,0-0.03,0.01-0.04,0.02c-0.01,0.01-0.02,0.03-0.03,0.07l-0.13,0.39
	c-0.01,0.03-0.01,0.04-0.01,0.05c0,0.01,0.01,0.01,0.01,0.02c0.01,0.01,0.03,0.01,0.07,0.03L20,16.99c0.05,0.02,0.08,0.02,0.1,0.02
	c0.02,0,0.04-0.01,0.06-0.02C20.19,16.98,20.22,16.96,20.25,16.92L20.25,16.92z M20.95,17.29l-0.21-0.15l-0.1,0.06
	c-0.02,0.01-0.04,0.03-0.05,0.04c-0.01,0.01-0.01,0.02,0,0.03c0,0.01,0.02,0.03,0.04,0.05l-0.01,0.01l-0.17-0.12l0.01-0.01
	c0.02,0.01,0.04,0.02,0.05,0.02c0.02,0,0.06-0.02,0.1-0.04l0.5-0.31l0.01,0.01l-0.13,0.58C21,17.5,20.99,17.53,21,17.55
	c0,0.02,0.02,0.04,0.04,0.05l-0.01,0.01l-0.21-0.15l0.01-0.01c0.02,0.01,0.04,0.02,0.05,0.02c0.01,0,0.02-0.01,0.03-0.01
	c0.01-0.01,0.02-0.03,0.02-0.07L20.95,17.29L20.95,17.29z M20.96,17.26l0.06-0.28l-0.25,0.15L20.96,17.26L20.96,17.26z M21.73,17.4
	l0.11,0.14l-0.16,0.61l0.3-0.22c0.03-0.02,0.05-0.04,0.05-0.06c0-0.02,0-0.04-0.02-0.06l-0.01-0.02l0.01-0.01l0.14,0.18l-0.01,0.01
	l-0.01-0.02c-0.02-0.02-0.03-0.03-0.06-0.03c-0.01,0-0.03,0.01-0.06,0.03l-0.44,0.33l-0.01-0.01l0.17-0.66l-0.32,0.24
	c-0.03,0.02-0.05,0.04-0.05,0.06c0,0.02,0,0.04,0.02,0.06l0.01,0.02L21.37,18l-0.14-0.18l0.01-0.01l0.01,0.02
	c0.02,0.02,0.04,0.03,0.06,0.03c0.01,0,0.03-0.01,0.06-0.03l0.37-0.27c0.01-0.03,0.01-0.05,0.01-0.06c0-0.01,0-0.03-0.01-0.05
	c0-0.01-0.01-0.02-0.02-0.04L21.73,17.4L21.73,17.4z M22.56,18.92l-0.14,0.06l-0.01-0.02c0.02-0.01,0.04-0.02,0.05-0.03
	c0.01-0.01,0.02-0.03,0.03-0.05c0-0.02,0-0.04-0.01-0.07l-0.03-0.09l-0.47,0.17c-0.04,0.01-0.06,0.03-0.07,0.04
	c-0.01,0.02-0.01,0.04,0,0.06l0.01,0.02l-0.02,0.01l-0.09-0.26l0.02-0.01l0.01,0.02c0.01,0.03,0.02,0.04,0.04,0.05
	c0.01,0,0.04,0,0.07-0.01l0.47-0.17l-0.03-0.07c-0.01-0.03-0.02-0.05-0.03-0.06c-0.01-0.01-0.03-0.02-0.05-0.03
	c-0.02,0-0.04,0-0.07,0l-0.01-0.02l0.15-0.04L22.56,18.92L22.56,18.92z M22.04,20.08l-0.01-0.17l0.29-0.24c0-0.02,0-0.03,0-0.04
	c0,0,0-0.01,0-0.01c0,0,0-0.01,0-0.01l-0.19,0.01c-0.04,0-0.07,0.01-0.08,0.02c-0.01,0.01-0.02,0.03-0.02,0.06l0,0.03l-0.02,0
	l-0.01-0.28l0.02,0l0,0.02c0,0.03,0.01,0.05,0.03,0.06c0.01,0.01,0.03,0.01,0.07,0.01l0.42-0.02c0.04,0,0.07-0.01,0.08-0.02
	c0.01-0.01,0.02-0.03,0.02-0.06l0-0.02l0.02,0l0.01,0.24c0,0.07,0,0.12-0.01,0.15c-0.01,0.03-0.03,0.06-0.05,0.09
	c-0.03,0.02-0.06,0.04-0.1,0.04c-0.04,0-0.08-0.01-0.11-0.03c-0.03-0.02-0.05-0.06-0.07-0.12l-0.18,0.14
	c-0.04,0.03-0.07,0.06-0.08,0.08c-0.01,0.02-0.02,0.05-0.02,0.09L22.04,20.08L22.04,20.08z M22.35,19.6c0,0.01,0,0.01,0,0.02
	s0,0.01,0,0.01c0,0.06,0.02,0.11,0.05,0.14c0.03,0.03,0.06,0.04,0.11,0.04c0.04,0,0.07-0.02,0.1-0.04c0.02-0.03,0.04-0.06,0.03-0.1
	c0-0.02-0.01-0.04-0.01-0.08L22.35,19.6L22.35,19.6z M22.53,20.94l-0.06,0.22l-0.02,0l0-0.01c0-0.01,0-0.02,0-0.04
	c0-0.02-0.01-0.03-0.02-0.05c-0.01-0.02-0.03-0.04-0.05-0.06l-0.2-0.21l-0.16-0.04c-0.04-0.01-0.06-0.01-0.08-0.01
	c-0.02,0.01-0.03,0.03-0.03,0.05l-0.01,0.02l-0.02,0l0.07-0.27l0.02,0l-0.01,0.02c-0.01,0.03,0,0.05,0.01,0.06
	c0.01,0.01,0.03,0.02,0.07,0.03l0.15,0.04l0.31-0.1c0.04-0.01,0.06-0.02,0.07-0.03c0.01-0.01,0.02-0.02,0.04-0.04
	c0-0.01,0.01-0.01,0.01-0.03l0.02,0l-0.07,0.27l-0.02,0l0-0.01c0-0.01,0-0.03,0-0.04c0-0.01-0.01-0.02-0.03-0.03
	c-0.01,0-0.03,0-0.07,0.01l-0.24,0.08l0.16,0.17c0.02,0.03,0.04,0.04,0.06,0.05c0.01,0,0.02,0,0.02,0c0.01,0,0.02-0.01,0.02-0.01
	c0.01-0.01,0.01-0.02,0.02-0.04L22.53,20.94L22.53,20.94z"/>
<path class="st5" d="M21.07,20.43c0.06-0.02,0.17,0,0.17,0s0.01,0.04-0.02,0.06c0.03,0.02,0.14,0.01,0.14,0.01s-0.04,0.03-0.07,0.05
	c0.04,0,0.09,0.06,0.09,0.06s-0.09,0.01-0.13-0.01c0.02,0.05,0.02,0.09,0.02,0.09s-0.15-0.04-0.2-0.14"/>
<path class="st5" d="M20.82,20.34c-0.04,0.09-0.3-0.08-0.3-0.08s0.12,0.18,0.29,0.21"/>
<path class="st5" d="M17.51,22.04h3.11l0.24-0.19l-0.4-0.21l-0.61-0.21l-0.25-0.14l-0.46,0.03l-0.38,0.2l-0.52,0.06l-0.12,0.14
	l-0.39,0.03l-0.61-0.01l1.01,0.16l-0.84-0.04L17.51,22.04L17.51,22.04z"/>
<path class="st5" d="M19.19,21.15c-0.39-0.21-0.5,0.31-0.67,0.43c0.23,0.04,0.4-0.17,0.59-0.28c0.15,0.4,0.38,0.14,0.38,0.14
	s0.24,0.38,0.56,0.21c0.09,0.07,0.18,0.01,0.18,0.01s0.12,0.02,0.14-0.03c0.06,0.02,0.13-0.05,0.13-0.05s0.13,0,0.16-0.07
	c0.2,0.04,0.46-0.41,0.46-0.41l0.08-0.15l0.12-0.03c0,0,0.01-0.08-0.06-0.07c0-0.05-0.04-0.07-0.1-0.06
	c0.01-0.03-0.03-0.05-0.03-0.05c-0.11,0.03-0.12,0.31-0.12,0.31s-0.19,0.15-0.26,0.18c0-0.16-0.27-0.38-0.22-0.48
	c0.06-0.1,0.23,0.16,0.38,0.11c0.15-0.05,0.23-0.25,0.23-0.4c-0.04-0.1-0.15-0.28-0.15-0.28l-0.1-0.01l-0.09-0.21
	c0,0-0.18,0.12-0.18,0.22c0,0.1,0.19,0.19,0.19,0.19s-0.11,0.07-0.21,0.04c-0.01,0.1,0.12,0.08,0.17,0.09
	c0.02,0.08,0.1,0.12,0.1,0.12s0.05,0.12-0.07,0.1c-0.12-0.01-0.26-0.29-0.43-0.16c-0.18,0.14,0.08,0.38,0.08,0.38
	s-0.16,0.08-0.25,0.29C19.84,20.92,19.61,21.07,19.19,21.15L19.19,21.15z"/>
<path class="st5" d="M18.63,20.6c0.16,0.15,0.05,0.4,0.11,0.45c0.07,0.05,0.16-0.02,0.16-0.02c0.17,0.04,0.47-0.05,0.47-0.05
	c0.13,0.07,0.08-0.04,0.16-0.03c0.07,0.18,0.31,0.15,0.31,0.15s-0.22-0.22-0.35-0.28c-0.1,0.06-0.4,0.07-0.46,0.06
	c-0.06-0.01-0.02-0.08-0.05-0.12c0.11-0.11,0.02-0.37-0.04-0.47C18.7,20.12,18.4,20.39,18.63,20.6L18.63,20.6z"/>
<path class="st5" d="M17.56,20.15c-0.2,0.05-0.55-0.26-0.71-0.14c-0.16,0.12-0.09,0.42,0.02,0.57c0.11,0.14-0.16,0.2-0.23,0.28
	c-0.07,0.08,0.02,0.17,0.02,0.17l0.07,0.05l-0.01,0.11l0.04,0.13c0,0,0.04,0.03,0.05-0.01c0.03,0.03,0,0.13,0.09,0.14
	c-0.03-0.06,0.02-0.23,0.02-0.23s0.15,0.01,0.18-0.05c0.04-0.06-0.04-0.2-0.04-0.2h0.04c-0.05-0.03-0.07-0.13-0.07-0.13
	s0.2-0.06,0.2-0.22c0-0.15-0.33-0.32-0.21-0.4c0.13-0.09,0.36,0.23,0.56,0.08c0.2-0.14,0.07,0,0.07,0S17.76,20.1,17.56,20.15
	L17.56,20.15z"/>
<path class="st5" d="M18.6,18c-0.27-0.11-0.82-0.12-1.13-0.27c-0.13,0.01-0.19,0.11-0.2,0.16c-0.14-0.01-0.24,0.21-0.22,0.26
	c-0.26-0.1-0.38,0.3-0.29,0.38c-0.22,0.01-0.19,0.29-0.21,0.37c-0.07,0.17,0.02,0.23,0.15,0.17c0.02,0.07-0.01,0.12-0.07,0.13
	c0.38,0.43,0.59-0.27,0.93-0.26c0.42-0.12,0.58-0.33,0.58-0.33l0.16,0.02L18.6,18L18.6,18z"/>
<circle class="st5" cx="18.95" cy="17.69" r="0.4"/>
<path class="st5" d="M18.25,20.81c-0.25-0.04-0.65-0.3-0.69-0.63c0.23-0.9,1.41-0.43,1.51-1.11c-0.03-0.45,0.05-0.89,0.3-1.26
	c0.12-0.15,0.26-0.18,0.26-0.18s0.03,0.1-0.01,0.16c0.2-0.02,0.46,0.09,0.65,0.1c0.05,0.11,0.05,0.15,0.04,0.21
	c-0.01,0.07-0.09,0.05-0.09,0.05c-0.05,0.04-0.1,0.09-0.23,0.07c-0.1,0.07-0.3,0.09-0.3,0.09s0.43,0.45,0.36,0.59
	c0.09,0.04,0.22,0.24,0.22,0.24s0.29-0.15,0.39-0.29c0.17,0,0.45,0.18,0.58,0.2c0.17,0.14,0.34,0.28,0.34,0.28s-0.2,0.13-0.29-0.04
	c-0.11,0.01-0.33-0.25-0.65-0.17c-0.01,0.28-0.32,0.48-0.32,0.48s0.29-0.04,0.45,0.06c0.16,0.14,0.41,0.33,0.41,0.33l0.22,0.37
	c0,0-0.2,0.03-0.27-0.22c-0.07,0.21-0.08-0.13-0.37-0.28c-0.09,0.01-0.13,0.02-0.21-0.04c-0.21,0.06-0.46,0.18-0.76,0.15
	c-0.21,0.07-0.36,0.24-0.58,0.34c-0.21,0.1-0.28,0.05-0.28,0.05l-0.17,0.01c-0.02,0.1-0.01,0.26-0.1,0.29
	c0.06,0.06-0.04,0.34-0.15,0.39c0.05,0.18,0.19,0.23,0.34,0.32c0,0,0.13-0.06,0.22,0.02c0.09,0.08,0.18,0.31,0.18,0.31
	s-0.18,0.01-0.24-0.01c-0.06-0.02-0.06-0.09-0.13-0.07c-0.42-0.37-0.64-0.22-0.68-0.31C18.15,21.18,18.29,20.96,18.25,20.81
	L18.25,20.81z"/>
<path class="st5" d="M17.25,19.16c0.02-0.03,0.17,0.03,0.17,0.03l0.28,0.17l0.56,0.37l0.2,0.29l-0.36-0.12l-0.5-0.43l-0.27-0.17
	C17.34,19.3,17.23,19.19,17.25,19.16L17.25,19.16z"/>
<path class="st5" d="M20.59,20.09c-0.19-0.05-0.68,0.54-0.68,0.54l0.36,0.39C20.28,21.02,20.29,20.35,20.59,20.09z"/>
<path class="st5" d="M18.21,18.46c-0.11,0.14-0.12,0.41,0.02,0.52c0.01,0.17,0.15,0.5,0.27,0.54c0.12,0.03,0.61,0.15,0.8,0.12
	c-0.04,0.31,0.21,0.56,0.43,0.72c0,0.03,0,0.06,0.02,0.1c0.03,0.03,0.14,0.04,0.15,0.02c0.05,0.07,0.31,0.11,0.32,0.07
	c0.02-0.03-0.37-0.3-0.46-0.39c-0.07-0.14-0.21-0.44-0.25-0.69C19.33,19.24,19,19.24,19,19.24l0.01-0.45l0.02-0.5l-0.18-0.09
	c0,0,0.04-0.02,0.06-0.04c0.04,0.02,0.12-0.07,0.14-0.09c0.04,0.01,0.08,0.01,0.09-0.01c0.01-0.02,0.01-0.11,0.03-0.15
	c0.13-0.12-0.02-0.37-0.23-0.37c-0.2,0-0.25,0.24-0.25,0.26c0.02,0.08,0.02,0.12,0,0.14C18.67,17.96,18.6,18,18.6,18
	s-0.11-0.05-0.25,0c-0.14,0.05-0.29,0.13-0.3,0.21c-0.06,0.01-0.17,0.09-0.18,0.16c-0.06-0.01-0.13,0.04-0.25,0.23
	c-0.21,0.09-0.22,0.55-0.22,0.55s-0.06,0.08-0.06,0.13c0,0.04,0.02,0.08,0.05,0.08c0,0.03,0.04,0.05,0.06,0.05
	c0.01,0.03,0.05,0.05,0.07,0.04c0,0.02,0.08,0.02,0.09,0c0.01-0.02-0.01-0.12,0-0.13c0.01-0.01,0.08,0.04,0.1,0.03
	c0.02-0.01,0-0.06-0.01-0.08c-0.01-0.02-0.07-0.03-0.08-0.1c-0.01-0.07,0.04-0.17,0.04-0.17s0.23-0.18,0.26-0.34
	C18.07,18.67,18.16,18.52,18.21,18.46L18.21,18.46z"/>
<path class="st5" d="M17.81,17.81c0.05-0.13,0.24-0.12,0.24-0.12s0.07-0.18,0.32-0.07c0.1-0.07,0.35,0.03,0.35,0.03
	s0.1-0.13,0.22-0.11c0.23,0.03,0.27,0.24,0.25,0.27c-0.13,0.03-0.35-0.1-0.51-0.06c-0.1,0.06-0.25,0.11-0.31,0.19
	C18.23,17.96,18.06,17.8,17.81,17.81L17.81,17.81z"/>
<path class="st5" d="M18.29,18.02c0.06-0.04,0.2-0.1,0.3-0.02c0.1,0.11,0.25,0.21,0.25,0.21l0.18,0.07l0.08,0.05l-0.05,0.8
	c-0.16-0.17-0.31-0.2-0.43-0.39c-0.06-0.08-0.01-0.29-0.12-0.42C18.39,18.19,18.27,18.1,18.29,18.02z"/>
<path class="st5" d="M18.72,18.25c0,0,0.09-0.02,0.12,0c0.03,0.01,0.06,0.02,0.07,0.05c0.03,0.01,0.06,0.03,0.06,0.05
	c0.03,0.01,0.05,0.07,0.05,0.07l-0.03,0.05c0,0-0.03-0.03-0.04-0.07c-0.02-0.01-0.07-0.02-0.08-0.05c-0.04,0-0.06-0.02-0.07-0.06
	C18.75,18.3,18.72,18.25,18.72,18.25L18.72,18.25z"/>
<path class="st5" d="M19.49,17.73c-0.05-0.06-0.14-0.02-0.14-0.02l-0.25,0.42L19,18.23l-0.01,0.33l0.09,0.31l-0.03,0.24
	c0,0,0.12-0.12,0.14-0.18c0.01-0.06-0.05-0.26-0.05-0.26s-0.07-0.13,0.02-0.36C19.24,18.07,19.44,17.88,19.49,17.73L19.49,17.73z"/>
<path class="st5" d="M20.1,18.11c0,0-0.38,0.55-1.01,0.74c-0.17,0.04-0.11-0.41-0.11-0.41l-0.04,0.01c0,0-0.1,0.44,0.14,0.44
	c0.63-0.12,1.11-0.79,1.11-0.79L20.1,18.11L20.1,18.11z"/>
<path class="st5" d="M20.36,21.26c0,0-0.06,0.04-0.14,0c-0.04-0.09-0.15-0.1-0.15-0.1s-0.07-0.2-0.18-0.14
	c-0.02-0.1-0.14-0.05-0.14-0.05s0-0.15-0.14-0.13c0.05-0.17-0.19-0.16-0.19-0.16s-0.01-0.19-0.36-0.15
	c0.75-0.34,1.35,0.53,1.35,0.53"/>
<path class="st5" d="M20.72,21.34c0,0,0.17,0.2,0.26,0.2c0.09,0,0.1-0.19,0.1-0.19s0.03,0.08,0.07,0.06c0,0.06,0.06,0.07,0.06,0.07
	s-0.16,0.36-0.6,0.02"/>
<path class="st5" d="M19.36,21.41l-0.06,0.25c0,0-0.08,0.07-0.06,0.09c0.02,0.02,0.15-0.02,0.15-0.02s0.19-0.02,0.25-0.08
	c0.04,0.09,0.13,0.1,0.13,0.1s0.01-0.04-0.01-0.06c0.04,0.01,0.08-0.01,0.08-0.01s0.02-0.07-0.03-0.1c0.01-0.05,0.03-0.1-0.06-0.09
	c-0.07,0.07-0.24,0.16-0.28,0.13c-0.04-0.03,0.17-0.12,0.11-0.25"/>
<linearGradient id="SVGID_1_" gradientUnits="userSpaceOnUse" x1="32" y1="62" x2="32" y2="2">
	<stop  offset="0" style="stop-color:#1A1A1A"/>
	<stop  offset="0.102" style="stop-color:#393939;stop-opacity:0.949"/>
	<stop  offset="0.3475" style="stop-color:#7F7F7F;stop-opacity:0.8262"/>
	<stop  offset="0.5688" style="stop-color:#B6B6B6;stop-opacity:0.7156"/>
	<stop  offset="0.7582" style="stop-color:#DEDEDE;stop-opacity:0.6209"/>
	<stop  offset="0.9081" style="stop-color:#F6F6F6;stop-opacity:0.5459"/>
	<stop  offset="1" style="stop-color:#FFFFFF;stop-opacity:0.5"/>
</linearGradient>
<circle class="st6" cx="32" cy="32" r="30"/>
</svg>
