<?xml version="1.0" encoding="utf-8"?>
<!-- Generator: Adobe Illustrator 24.1.2, SVG Export Plug-In . SVG Version: 6.00 Build 0)  -->
<svg version="1.1" id="Layer_1" xmlns="http://www.w3.org/2000/svg" xmlns:xlink="http://www.w3.org/1999/xlink" x="0px" y="0px"
	 width="64px" height="64px" viewBox="0 0 64 64" style="enable-background:new 0 0 64 64;" xml:space="preserve">
<style type="text/css">
	.st0{fill:#003893;}
	.st1{fill:#FCFCFC;}
	.st2{fill:#FF0000;}
	.st3{fill:#0FB4D4;}
	.st4{fill:#A53D08;}
	.st5{fill:#1A1626;}
	.st6{fill:#FF9A08;}
	.st7{fill:#008021;}
	.st8{fill:#FFE1CF;}
	.st9{opacity:0.1;fill:url(#SVGID_1_);}
</style>
<path class="st0" d="M32,2C32,2,6.53,8,2,32c0,17.2,14.48,31.02,31.91,29.94c14.94-0.93,27.1-13.09,28.03-28.03
	C63.02,16.48,49.2,2,32,2z"/>
<path class="st1" d="M32,2c-4.69,0-9.13,1.09-13.09,3.01L11,11l-5.99,7.91C3.09,22.87,2,27.3,2,32h12V17l12,15h6v-7.5L23.6,14H32V2z
	"/>
<polygon class="st2" points="15.43,14 30,32 32,32 32,27.06 21.43,14 "/>
<path class="st2" d="M18.91,5C12.86,7.94,7.94,12.86,5,18.91V32h6V11h21V5H18.91z"/>
<path class="st3" d="M36.86,21.81h19.43l-0.02,14.17c0.16,5.7-3.3,9.23-9.68,10.83c-4.53-1.15-9.74-3.54-9.75-10.67L36.86,21.81z"/>
<path class="st4" d="M56.14,37.66c-0.71,5.44-4.8,7.81-9.55,9.08c-4.2-1.15-8.72-2.99-9.6-9.05L56.14,37.66z"/>
<polygon class="st5" points="42.03,24.44 45.82,24.45 45.79,22.67 47.18,22.68 47.19,24.45 50.97,24.45 50.98,25.84 47.19,25.85 
	47.16,42.18 45.81,42.19 45.79,25.84 42.03,25.85 "/>
<path class="st6" d="M42.76,38.34l3.46,3.67c1.2-1.34,0.37-6.37-1.21-7.29c-0.19,0.6-0.51,1.31-0.85,1.54
	c-0.75,0.52-2.59,1.13-1.97,1.52c0.14-0.2,0.51-0.39,0.68,0.06c0.2,0.69-0.77,0.74-0.77,0.74s-0.61-0.08-0.72-0.72
	c-0.11-0.64,0.91-1.22,1-1.27c0.09-0.03,1.42-0.4,1.65-1.61c0.28-1.19,0.57-1.01,0.63-1.04c1.75,0.18,2.89,3.37,2.95,5.62
	c0.06,2.25-0.89,3.73-1.07,3.83c-0.17,0.1-4.16-4.84-4.16-4.84L42.76,38.34z"/>
<path class="st5" d="M46.54,43.43c-0.05,0-0.17,0-2.19-2.43c-1-1.2-1.98-2.41-1.98-2.42l-0.01-0.01c-0.13,0.03-0.24,0.04-0.24,0.04
	h0l0,0c-0.01,0-0.64-0.09-0.75-0.74c-0.12-0.68,1.01-1.29,1.02-1.3l0,0l0.03-0.01c0.52-0.17,1.42-0.6,1.6-1.58
	c0.25-1.06,0.52-1.06,0.61-1.06l0.02,0l0.02,0l0.01,0l0.01,0c0.8,0.08,1.55,0.81,2.13,2.05c0.5,1.07,0.81,2.42,0.85,3.6
	c0.03,1.2-0.22,2.15-0.45,2.73c-0.26,0.68-0.55,1.07-0.63,1.13L46.54,43.43z M42.43,38.57c1.54,1.91,3.88,4.73,4.11,4.8
	c0.18-0.12,1.11-1.58,1.05-3.8c-0.03-1.17-0.35-2.51-0.84-3.57c-0.57-1.22-1.3-1.93-2.08-2.02l-0.03,0l-0.02,0
	c-0.21,0-0.39,0.34-0.55,1.01c-0.19,1-1.11,1.45-1.64,1.62l-0.03,0.01c-0.04,0.02-1.09,0.6-0.99,1.24c0.1,0.6,0.65,0.69,0.69,0.69
	c0.02,0,0.22-0.02,0.4-0.09l0.22-0.13c0.14-0.12,0.18-0.28,0.12-0.49c-0.06-0.16-0.16-0.25-0.29-0.25c-0.14,0-0.27,0.1-0.34,0.2
	l-0.02,0.02l-0.02-0.01c-0.09-0.06-0.14-0.13-0.14-0.21c0.01-0.26,0.59-0.55,1.2-0.86c0.33-0.17,0.67-0.34,0.91-0.5
	c0.33-0.23,0.65-0.93,0.84-1.52L45,34.67l0.03,0.02c0.74,0.43,1.39,1.84,1.67,3.59c0.21,1.33,0.2,3.01-0.46,3.75l-0.02,0.02
	l-3.46-3.67l-0.22,0.13L42.43,38.57z M42.8,38.34l3.42,3.63c0.51-0.61,0.68-2.04,0.42-3.67c-0.27-1.71-0.9-3.08-1.61-3.53
	c-0.19,0.59-0.51,1.29-0.85,1.52c-0.23,0.16-0.58,0.34-0.91,0.51c-0.57,0.29-1.16,0.59-1.17,0.81l0.09,0.14
	c0.08-0.1,0.22-0.2,0.37-0.2c0.1,0,0.25,0.05,0.34,0.29C42.96,38.03,42.93,38.2,42.8,38.34z"/>
<polygon class="st5" points="45.28,41.54 45.25,34.92 45.31,34.92 45.33,41.54 "/>
<path class="st5" d="M44.89,41.06c0-0.25-0.02-6-0.02-6.02h0.06l0.02,6.02L44.89,41.06z"/>
<polygon class="st5" points="44.47,40.7 44.45,35.92 44.5,35.91 44.53,40.7 "/>
<polygon class="st5" points="44.12,40.21 44.1,36.26 44.16,36.26 44.18,40.21 "/>
<rect x="43.74" y="36.43" class="st5" width="0.06" height="3.34"/>
<rect x="43.34" y="36.7" class="st5" width="0.06" height="2.64"/>
<rect x="42.99" y="36.91" class="st5" width="0.06" height="2.03"/>
<path class="st7" d="M47.2,27.88c0.24-0.21,0.36-0.34,0.51-0.31c0.15,0.02,0.35,0.01,0.5-0.04c0.15-0.05,0.88-0.14,1.19-0.04
	c0.1,0.01,0.24,0.07,0.45,0.25c0.21,0.18,0.52,0.5,0.42,1.37c-0.1,0.88-0.07,1.25-0.11,1.74c-0.08,0.86-0.27,1.57-0.6,1.52
	c0.46,0.82,0.5,1.52,0.8,2.08c0.3,0.56,0.48,1.7,0.37,2.94c-0.11,1.24-0.43,4.01,0.52,5.88c-0.16,0.12-0.55,0-0.89-0.37
	c-0.34-0.37-0.49-0.36-0.78-0.14c-0.87,0.68-1.68,1.49-2.88,0.68c-0.27-0.19-0.36-0.41-0.16-0.98c0.5-1.42,0.75-3.38,0.67-4.29
	V27.88z"/>
<path class="st5" d="M47.67,43.81c-0.33,0-0.65-0.11-1-0.35c-0.27-0.18-0.38-0.41-0.17-1.01c0.5-1.41,0.75-3.35,0.67-4.28l0-10.29
	l0.01-0.01l0.07-0.06c0.18-0.16,0.29-0.26,0.42-0.26l0.04,0l0.16,0.01c0.12,0,0.24-0.02,0.33-0.05c0.11-0.03,0.48-0.08,0.79-0.08
	c0.18,0,0.32,0.02,0.42,0.05c0.13,0.02,0.28,0.1,0.46,0.26c0.27,0.23,0.52,0.57,0.43,1.4c-0.06,0.54-0.07,0.88-0.08,1.19
	c-0.01,0.19-0.01,0.36-0.03,0.55c-0.06,0.7-0.22,1.53-0.58,1.55c0.24,0.44,0.36,0.86,0.47,1.22c0.09,0.29,0.17,0.57,0.3,0.81
	c0.33,0.62,0.48,1.8,0.37,2.96l-0.02,0.19c-0.12,1.27-0.37,3.9,0.54,5.67l0.01,0.02l-0.02,0.01l-0.17,0.05
	c-0.22,0-0.51-0.16-0.76-0.43c-0.19-0.2-0.31-0.29-0.43-0.29c-0.08,0-0.17,0.04-0.31,0.15l-0.22,0.18
	C48.84,43.37,48.3,43.81,47.67,43.81z M47.23,27.9v10.27c0.08,0.93-0.17,2.89-0.67,4.3c-0.2,0.57-0.1,0.77,0.15,0.95
	c0.33,0.23,0.65,0.34,0.96,0.34c0.61,0,1.12-0.41,1.65-0.83l0.22-0.18c0.12-0.1,0.23-0.16,0.35-0.16c0.13,0,0.27,0.09,0.47,0.3
	c0.23,0.25,0.51,0.41,0.71,0.41l0.12-0.03c-0.9-1.78-0.65-4.41-0.53-5.68l0.02-0.19c0.12-1.32-0.09-2.42-0.36-2.92
	c-0.13-0.25-0.21-0.53-0.3-0.82c-0.11-0.38-0.24-0.8-0.5-1.26l-0.03-0.05l0.06,0.01l0.03,0c0.25,0,0.45-0.54,0.54-1.49
	c0.02-0.19,0.02-0.35,0.03-0.55c0.01-0.31,0.02-0.65,0.09-1.19c0.11-0.91-0.24-1.2-0.41-1.35c-0.18-0.15-0.32-0.23-0.44-0.24
	l-0.01,0c-0.09-0.03-0.22-0.05-0.4-0.05c-0.33,0-0.68,0.05-0.77,0.08c-0.1,0.03-0.22,0.05-0.35,0.05l-0.17-0.01
	c-0.12-0.02-0.23,0.08-0.42,0.24L47.23,27.9z"/>
<path class="st8" d="M48.02,27.01c0.06,0.2,0.1,0.46-0.01,0.69c-0.1,0.23-0.13,0.51,0.05,0.85c0.27-0.4,0.66-0.32,0.89-0.55
	c0.23-0.23,0.27-0.46,0.45-0.5c-0.17-0.15-0.43-0.32-0.38-0.76c0.06-0.44,0.66-0.81,0.11-1.48c-0.35-0.44-0.87-0.31-1.09-0.15
	c-0.1,0.08-0.19,0.19-0.23,0.27c-0.03,0.08,0.01,0.25-0.07,0.35l-0.21,0.2l-0.03,0.16l0.11,0.05l-0.08,0.14l0.02,0.1
	c-0.04,0.14,0.04,0.16-0.02,0.26c-0.05,0.09-0.12,0.2,0.07,0.3C47.65,26.97,47.89,27.02,48.02,27.01z"/>
<path class="st5" d="M48.06,28.6l-0.02-0.04c-0.16-0.31-0.17-0.59-0.05-0.88c0.1-0.23,0.06-0.47,0.01-0.65l-0.03,0
	c-0.14,0-0.33-0.05-0.38-0.08c-0.2-0.12-0.13-0.25-0.08-0.33l0-0.01l0.01-0.1l0-0.14l-0.01-0.13l0.07-0.11h0l-0.09-0.04l-0.04-0.1
	l0.07-0.1l0.2-0.19l0.05-0.21l0.02-0.13c0.03-0.07,0.12-0.19,0.24-0.28c0.1-0.08,0.29-0.16,0.5-0.16c0.17,0,0.42,0.05,0.63,0.31
	c0.39,0.48,0.21,0.82,0.05,1.11c-0.07,0.13-0.14,0.26-0.16,0.39c-0.05,0.38,0.14,0.54,0.31,0.68l0.06,0.05l0.04,0.04l-0.05,0.01
	c-0.09,0.02-0.14,0.1-0.21,0.21c-0.06,0.08-0.12,0.18-0.22,0.28c-0.1,0.1-0.23,0.15-0.36,0.19c-0.18,0.06-0.37,0.13-0.53,0.35
	L48.06,28.6z M48.04,26.98L48.05,27c0.06,0.18,0.1,0.46-0.01,0.71c-0.11,0.25-0.1,0.51,0.02,0.78c0.16-0.21,0.35-0.27,0.53-0.33
	c0.13-0.04,0.25-0.09,0.34-0.18c0.09-0.1,0.16-0.19,0.21-0.27c0.07-0.1,0.12-0.18,0.2-0.22l-0.02-0.02
	c-0.17-0.14-0.38-0.32-0.33-0.74c0.02-0.14,0.09-0.27,0.16-0.41c0.16-0.29,0.32-0.6-0.04-1.05c-0.19-0.24-0.42-0.29-0.58-0.29
	c-0.2,0-0.37,0.08-0.47,0.15c-0.1,0.08-0.19,0.19-0.22,0.26l-0.01,0.11l-0.06,0.25l-0.21,0.2l-0.04,0.06l0.02,0.05l0.06,0.03
	l0.03,0.01l0.03,0.01l-0.01,0.03l-0.09,0.15l0.01,0.06l0.01,0.01l-0.01,0.02l0,0.13l-0.02,0.14l0,0.01
	c-0.05,0.09-0.09,0.17,0.06,0.25c0.04,0.02,0.23,0.07,0.36,0.07l0.05,0L48.04,26.98z"/>
<path class="st8" d="M45.8,29.33c-0.32,0.08-0.83-0.06-1.22-0.01c-0.17,0.02-0.31-0.07-0.29-0.25c0.02-0.18,0.05-0.44,0.01-0.69
	c-0.05-0.38,0.13-0.91,0.38-1.49c0.25-0.58,0.38-0.91,0.38-1.18c0-0.18,0.02-0.38,0.18-0.49c0.12-0.08,0.14-0.15,0.18-0.22
	c0.1-0.15,0.19-0.18,0.2-0.09l-0.06,0.17c0.1-0.09,0.28-0.19,0.32-0.22c0.04-0.03,0.24-0.17,0.25-0.04l0.15,0.01l-0.03,0.1
	c0.06-0.01,0.12,0.09,0.01,0.18c0.06-0.02,0.12,0.08,0.01,0.17c-0.11,0.1-0.23,0.16-0.27,0.24c-0.04,0.08-0.31,0.29-0.42,0.34
	c-0.11,0.05-0.11,0.11-0.11,0.27c0,1.8-0.21,1.65-0.21,2.08c0,0.12-0.02,0.22,0.09,0.19c0.11-0.04,0.28-0.09,0.45-0.09V29.33z"/>
<path class="st5" d="M45.55,29.38c-0.12,0-0.25-0.01-0.38-0.02c-0.13-0.01-0.27-0.02-0.4-0.02l-0.18,0.01
	c-0.11,0.01-0.21-0.02-0.27-0.08l-0.05-0.2c0.03-0.26,0.04-0.49,0.01-0.68c-0.06-0.42,0.16-1,0.38-1.51
	c0.26-0.61,0.37-0.91,0.37-1.17c0-0.2,0.02-0.4,0.19-0.51l0.15-0.16l0.03-0.04c0.06-0.1,0.13-0.15,0.18-0.15l0.07,0.07l0,0.07
	l0.16-0.1l0.06-0.04c0.09-0.07,0.16-0.1,0.22-0.1l0.07,0.05l0.16,0.03l0,0.1l0.04,0.05l-0.03,0.13l0.03,0.04l-0.06,0.17l-0.12,0.1
	l-0.15,0.13c-0.04,0.08-0.32,0.3-0.43,0.35c-0.09,0.04-0.1,0.08-0.1,0.25c0,1.21-0.1,1.54-0.16,1.76c-0.03,0.11-0.05,0.18-0.05,0.32
	l0,0.05l0.01,0.11l0.01,0l0.03-0.01l0.01,0c0.12-0.04,0.28-0.09,0.45-0.09h0.03v1.07l-0.02,0.01
	C45.74,29.38,45.65,29.38,45.55,29.38z M44.76,29.28c0.13,0,0.27,0.01,0.41,0.02c0.13,0.01,0.26,0.02,0.38,0.02l0.22-0.02v-0.96
	c-0.15,0.01-0.29,0.05-0.4,0.08l-0.01,0l-0.1-0.01l-0.03-0.15l0-0.05c0-0.15,0.02-0.23,0.05-0.34c0.06-0.22,0.16-0.54,0.16-1.75
	c0-0.17,0.01-0.25,0.13-0.3c0.1-0.04,0.37-0.26,0.41-0.32l0.16-0.15l0.12-0.09l0.04-0.11l-0.03-0.02l-0.03-0.05l0.05-0.1l-0.03-0.03
	l-0.11,0.02l0.08-0.07l0.02-0.07l-0.03-0.02l-0.08,0.03l-0.04,0.02l0-0.04l-0.03-0.03c-0.02,0-0.07,0.01-0.18,0.09l-0.07,0.04
	l-0.25,0.17l-0.04-0.04l0.05-0.15l-0.01-0.02c-0.02,0-0.07,0.03-0.13,0.13l-0.03,0.04c-0.03,0.06-0.07,0.12-0.17,0.18
	c-0.14,0.09-0.16,0.28-0.16,0.47c0,0.27-0.11,0.57-0.38,1.2c-0.22,0.5-0.43,1.07-0.37,1.48c0.03,0.19,0.02,0.43-0.01,0.7l0.04,0.15
	c0.04,0.05,0.12,0.07,0.21,0.06L44.76,29.28z"/>
<path class="st8" d="M45.87,33.2c0.52-0.26,1.11-0.36,1.42-0.44c0.31-0.08,0.8-0.33,1.04-0.45c0.24-0.13,0.43-0.3,0.57-0.35
	c0.14-0.05,0.29-0.14,0.38-0.32c0.44-0.89,0.68-1.6,0.68-2.22c0-0.41-0.1-0.86-0.49-0.54c-0.36,0.31-0.76,0.9-0.87,1.33
	c-0.16,0.65-0.3,0.79-0.33,0.92c-0.03,0.13-0.16,0.13-0.32,0.16c-0.67,0.15-0.83,0.26-1.33,0.64c-0.5,0.38-1.05,0.72-1.42,0.93
	c-0.37,0.21-0.43,0.23-0.51,0.4c-0.08,0.17-0.15,0.3-0.22,0.37c-0.07,0.08-0.09,0.16-0.07,0.26c0.01,0.08-0.02,0.43-0.03,0.54
	c-0.01,0.12,0.02,0.15,0.07,0.15c0.05,0.01,0.11-0.02,0.13-0.16c-0.02,0.14,0.17,0.09,0.18-0.01c-0.01,0.15,0.19,0.06,0.21-0.08
	c0,0.1,0.15,0.03,0.17-0.02c0.03-0.12,0.06-0.25,0.11-0.34c0.07-0.14,0.14-0.31,0.27-0.41C45.63,33.48,45.56,33.36,45.87,33.2z"/>
<path class="st5" d="M44.44,34.63l-0.02,0c-0.09-0.01-0.1-0.1-0.09-0.18l0.01-0.16c0.01-0.14,0.02-0.33,0.02-0.38
	c-0.02-0.11,0.01-0.2,0.08-0.28c0.06-0.07,0.13-0.19,0.22-0.37c0.08-0.16,0.14-0.2,0.41-0.35l0.11-0.06
	c0.29-0.17,0.87-0.52,1.41-0.93c0.5-0.39,0.66-0.49,1.35-0.65l0.08-0.02c0.13-0.02,0.2-0.04,0.22-0.13L48.3,31
	c0.06-0.12,0.16-0.33,0.27-0.79c0.1-0.42,0.5-1.02,0.88-1.35c0.09-0.08,0.18-0.12,0.25-0.12c0.26,0,0.29,0.47,0.29,0.68
	c0,0.59-0.21,1.28-0.69,2.23c-0.1,0.21-0.29,0.29-0.39,0.33c-0.07,0.02-0.16,0.08-0.26,0.15c-0.09,0.06-0.19,0.13-0.31,0.19
	c-0.11,0.06-0.68,0.36-1.04,0.46l-0.23,0.06c-0.33,0.08-0.77,0.18-1.18,0.39c-0.18,0.09-0.22,0.17-0.27,0.25l-0.12,0.14
	c-0.11,0.08-0.17,0.22-0.23,0.34l-0.03,0.06l-0.08,0.25l-0.02,0.09l-0.14,0.09l-0.04-0.01l-0.16,0.11l-0.06-0.02l0-0.01l-0.17,0.03
	L44.44,34.63z M49.7,28.8l-0.21,0.1c-0.37,0.31-0.76,0.9-0.86,1.31c-0.11,0.46-0.22,0.67-0.28,0.8l-0.05,0.13
	c-0.03,0.12-0.14,0.14-0.27,0.17l-0.08,0.02c-0.67,0.15-0.83,0.26-1.32,0.64c-0.54,0.42-1.12,0.77-1.42,0.94l-0.11,0.06
	c-0.27,0.15-0.32,0.18-0.39,0.33c-0.09,0.18-0.16,0.31-0.23,0.38c-0.06,0.06-0.08,0.14-0.07,0.23c0.01,0.05,0,0.2-0.02,0.39
	l-0.01,0.16c-0.01,0.12,0.02,0.12,0.04,0.12l0.01,0l0.09-0.13l0.06,0.01l0.01,0.04l0.03,0.01l0.09-0.07l0.06,0l0.01,0.04l0.02,0.01
	l0.12-0.13l0.06,0l0.02,0.02l0.09-0.05l0.02-0.09l0.09-0.26l0.03-0.05c0.06-0.13,0.13-0.28,0.25-0.36l0.1-0.13
	c0.04-0.08,0.09-0.17,0.29-0.27c0.41-0.21,0.86-0.31,1.19-0.39l0.23-0.06c0.27-0.07,0.73-0.29,1.03-0.45
	c0.11-0.06,0.21-0.13,0.3-0.19c0.1-0.07,0.2-0.13,0.27-0.16c0.09-0.03,0.27-0.11,0.36-0.3c0.47-0.94,0.68-1.62,0.68-2.2
	C49.93,29.28,49.91,28.8,49.7,28.8z"/>
<path class="st8" d="M49.57,42.76c0.03,0.13,0.1,0.27,0.12,0.36l-0.04,0.16c-0.12,0.26-0.25,0.67-0.27,0.89
	c-0.01,0.13-0.1,0.25-0.14,0.33c-0.04,0.08-0.03,0.15,0.07,0.23l0.22-0.09l0.21-0.05l0.19-0.07l0.15-0.08
	c0.08,0.04,0.17-0.01,0.17-0.17l0.04-0.13l0.03-0.17c0-0.06,0.04-0.19,0.09-0.28c0.05-0.09,0.15-0.25,0.11-0.4
	c-0.04-0.14-0.1-0.13-0.15-0.33c-0.13-0.13-0.3-0.32-0.47-0.33C49.73,42.59,49.63,42.72,49.57,42.76z"/>
<path class="st5" d="M49.37,44.77l-0.07-0.02c-0.11-0.09-0.13-0.17-0.08-0.26l0.03-0.05c0.04-0.07,0.1-0.17,0.11-0.27
	c0.02-0.23,0.16-0.65,0.27-0.9l0.02-0.03l0.02-0.11l-0.05-0.15l-0.07-0.21l-0.01-0.02l0.02-0.01l0.04-0.03
	c0.07-0.05,0.17-0.13,0.32-0.12c0.19,0.01,0.36,0.2,0.49,0.33l0.01,0.01l0,0.01c0.03,0.11,0.06,0.15,0.08,0.19l0.06,0.14
	c0.04,0.17-0.06,0.33-0.11,0.42c-0.05,0.09-0.09,0.21-0.09,0.27l-0.03,0.19l-0.04,0.11c0,0.16-0.08,0.21-0.14,0.21l-0.04-0.01
	l-0.13,0.08l-0.02,0l-0.15,0.09l-0.05-0.01l-0.14,0.07l-0.07-0.02L49.37,44.77z M49.6,42.77l0.06,0.19l0.05,0.16l-0.03,0.15
	l-0.02,0.03c-0.13,0.27-0.25,0.67-0.27,0.88c-0.01,0.11-0.07,0.21-0.11,0.29l-0.03,0.05c-0.03,0.06-0.03,0.11,0.07,0.19l0.03,0.01
	l0.15-0.08l0.01-0.05l0.04,0.04l0.06,0.02l0.1-0.07l0.02-0.04l0.03,0.03l0.15-0.07l0.02-0.02l0.02,0.02l0.11-0.07l0.01-0.02
	l0.02,0.01l0.04,0.01c0.05,0,0.08-0.06,0.09-0.15l0.05-0.14l0.02-0.16c0-0.07,0.04-0.21,0.1-0.3c0.05-0.08,0.14-0.24,0.1-0.38
	l-0.06-0.12c-0.03-0.04-0.06-0.09-0.09-0.2l0,0c-0.12-0.13-0.29-0.31-0.45-0.32c-0.13-0.01-0.22,0.06-0.28,0.11L49.6,42.77z"/>
<path class="st8" d="M46.32,43.76c0.16,0.16,0.52,0.17,0.77-0.1c-0.09-0.04-0.29-0.13-0.38-0.21
	C46.58,43.57,46.44,43.72,46.32,43.76z"/>
<path class="st5" d="M46.62,43.9L46.62,43.9c-0.13,0-0.25-0.04-0.32-0.12l-0.03-0.03l0.04-0.02c0.11-0.04,0.25-0.18,0.38-0.31
	l0.02-0.02l0.02,0.02c0.09,0.07,0.27,0.16,0.38,0.21l0.04,0.02l-0.03,0.03C46.98,43.82,46.8,43.9,46.62,43.9z M46.37,43.77
	c0.06,0.05,0.15,0.08,0.25,0.08c0.15,0,0.3-0.07,0.42-0.18c-0.1-0.05-0.24-0.12-0.33-0.18C46.6,43.6,46.48,43.72,46.37,43.77z"/>
<path class="st4" d="M47.94,25.21c0.06-0.41,0.35-0.4,0.53-0.36c0.07,0.02,0.26,0.04,0.43-0.01c0.34-0.09,0.59,0.03,0.56,0.36
	c0.09,0.07,0.19,0.23,0.17,0.37c-0.02,0.14,0.01,0.2,0.14,0.22c0.13,0.02,0.39,0.17,0.22,0.4c0.17,0.1,0.3,0.37,0.21,0.55
	c-0.09,0.18-0.37,0.21-0.48,0.05c-0.13,0.06-0.33,0.07-0.46-0.06c-0.09,0.1-0.3,0.09-0.34,0c-0.04-0.09-0.11-0.14-0.19-0.17
	c-0.09-0.03-0.1-0.29,0.04-0.31l0.02-0.2l-0.07-0.18c-0.08-0.06-0.15-0.31-0.07-0.44c-0.14,0.05-0.44-0.09-0.5-0.18
	C48.08,25.14,47.99,25.13,47.94,25.21z"/>
<path class="st5" d="M49.93,26.92c-0.09,0-0.17-0.04-0.23-0.1l-0.18,0.03l-0.26-0.09l-0.18,0.06l-0.19-0.09l-0.17-0.15l-0.09-0.18
	l0.1-0.18l0.03-0.2l0.01-0.03l-0.08-0.11c-0.08-0.07-0.15-0.28-0.1-0.43l-0.02,0c-0.16,0-0.4-0.12-0.46-0.2l-0.09-0.06l-0.07,0.04
	l-0.05-0.02c0.05-0.34,0.25-0.41,0.4-0.41l0.16,0.02l0.18,0.02l0.23-0.03l0.21-0.03c0.13,0,0.23,0.04,0.3,0.11
	c0.06,0.07,0.09,0.17,0.08,0.29c0.1,0.08,0.19,0.25,0.17,0.39c-0.02,0.13,0.01,0.17,0.11,0.18c0.09,0.01,0.24,0.09,0.29,0.21
	l-0.03,0.21c0.17,0.12,0.29,0.39,0.2,0.57C50.16,26.86,50.05,26.92,49.93,26.92z M49.72,26.75l0.01,0.02l0.19,0.09
	c0.1,0,0.19-0.05,0.24-0.14c0.08-0.17-0.04-0.42-0.2-0.52l-0.03-0.02l0.02-0.03L50,25.99c-0.04-0.09-0.17-0.16-0.24-0.17
	c-0.16-0.02-0.18-0.11-0.16-0.25c0.01-0.12-0.07-0.28-0.16-0.35l-0.01-0.01l0-0.02c0.01-0.11-0.01-0.2-0.07-0.26
	c-0.06-0.06-0.15-0.09-0.26-0.09l-0.2,0.03l-0.25,0.03c-0.11,0-0.18-0.01-0.19-0.02c-0.26-0.06-0.42,0.03-0.48,0.26l0.05-0.01
	l0.14,0.09c0.05,0.07,0.27,0.18,0.41,0.18l0.06-0.01l0.07-0.03l-0.04,0.07c-0.07,0.12-0.01,0.35,0.06,0.41l0.1,0.15l-0.02,0.07
	l-0.02,0.18l0.01,0.03l-0.03,0.01l-0.08,0.13l0.05,0.13c0.1,0.03,0.17,0.09,0.21,0.19l0.13,0.06l0.16-0.06l0.02-0.03l0.02,0.02
	l0.24,0.1l0.18-0.04L49.72,26.75z"/>
<path class="st5" d="M48.03,27.04l-0.01-0.06c0.1-0.01,0.17-0.05,0.24-0.09c0.07-0.04,0.14-0.08,0.23-0.07l0,0.06l-0.2,0.06
	C48.22,26.98,48.14,27.02,48.03,27.04z"/>
<polygon class="st5" points="47.74,26.47 47.72,26.47 47.59,26.44 47.53,26.4 47.57,26.35 47.62,26.38 47.73,26.41 47.75,26.41 "/>
<polygon class="st5" points="47.69,26.21 47.6,26.16 47.62,26.11 47.73,26.17 "/>
<path class="st5" d="M48.93,25.28l-0.23-0.07c-0.21-0.21-0.38-0.19-0.45-0.17l-0.12,0.09l0.02,0.06l-0.04,0.04l-0.03-0.11l0.16-0.14
	c0.08-0.02,0.28-0.04,0.51,0.19l0.27,0.05l0.02,0.06L48.93,25.28z"/>
<path class="st5" d="M49.85,26.27l-0.03,0c-0.12-0.02-0.24-0.15-0.36-0.39c-0.06-0.11-0.12-0.13-0.18-0.15
	c-0.06-0.02-0.13-0.05-0.17-0.15c-0.08-0.22-0.4-0.15-0.47-0.14l-0.01-0.06c0.21-0.05,0.46-0.03,0.54,0.18l0.13,0.12
	c0.06,0.02,0.14,0.05,0.21,0.18c0.11,0.22,0.22,0.34,0.32,0.36l0.13-0.05L50,26.21L49.85,26.27z"/>
<path class="st5" d="M49.23,26.74c-0.06-0.08-0.08-0.23-0.05-0.34c-0.07-0.1-0.03-0.28,0.01-0.35l0.05,0.03l0,0.3l0.01,0.01
	l-0.01,0.02c-0.03,0.1-0.01,0.24,0.04,0.3L49.23,26.74z"/>
<path class="st5" d="M49,26.49c-0.15-0.02-0.26-0.16-0.26-0.25l0.06,0c0,0.05,0.08,0.17,0.22,0.2L49,26.49z"/>
<path class="st5" d="M49.69,26.8c-0.09-0.12-0.07-0.22-0.06-0.35l0.06,0.01c-0.02,0.13-0.02,0.21,0.05,0.31L49.69,26.8z"/>
<path class="st5" d="M49.36,26.15c-0.2,0-0.31-0.14-0.34-0.21c-0.12-0.06-0.18-0.2-0.17-0.32l0.06,0c0,0.09,0.05,0.22,0.15,0.26
	l0.01,0l0,0.01c0.02,0.05,0.13,0.2,0.34,0.18l0.01,0.06L49.36,26.15z"/>
<path class="st5" d="M49.44,25.22c-0.14-0.11-0.3-0.22-0.51-0.25l0.01-0.06c0.22,0.03,0.39,0.14,0.53,0.26L49.44,25.22z"/>
<path class="st5" d="M47.72,31.38l-0.04-0.04c0.35-0.33,0.23-1.05,0.14-1.57l-0.01-0.05c-0.08-0.46,0-0.86,0.23-1.19l0.05,0.03
	c-0.23,0.31-0.3,0.7-0.22,1.15l0.01,0.05C47.96,30.3,48.09,31.03,47.72,31.38z"/>
<path class="st5" d="M48.27,32.62c-0.13,0-0.26-0.03-0.36-0.08l0.03-0.05c0.23,0.12,0.55,0.1,0.75-0.04
	c0.21-0.15,0.59-0.16,0.87-0.1l-0.01,0.06c-0.26-0.06-0.63-0.05-0.82,0.09C48.6,32.58,48.44,32.62,48.27,32.62z"/>
<path class="st5" d="M48.61,34.68c-0.05-0.42-0.03-0.85-0.01-1.22c0.01-0.17,0.02-0.33,0.02-0.46c0-0.43,0.1-0.62,0.36-0.66
	L49,32.39c-0.19,0.03-0.31,0.15-0.31,0.61c0,0.14-0.01,0.3-0.02,0.47c-0.02,0.37-0.05,0.79,0.01,1.21L48.61,34.68z"/>
<path class="st5" d="M50.11,41.11c-0.05-0.33-0.25-0.82-0.49-1.44c-0.17-0.42-0.36-0.91-0.55-1.45l0-0.01l0-0.01
	c0.73-2.34,0.45-3.78,0.05-4.98l0.06-0.02c0.41,1.21,0.68,2.65-0.04,5c0.19,0.54,0.38,1.02,0.55,1.44c0.25,0.62,0.44,1.11,0.5,1.45
	L50.11,41.11z"/>
<path class="st5" d="M48.73,43.44l-0.03-0.05c0.17-0.1,0.16-0.42,0.16-0.66l0-0.18c0.06-1.24-0.36-2.17-1.05-3.58l-0.11-0.21
	c-0.14-0.25-0.23-0.44-0.21-0.76c0.01-0.22-0.01-0.48-0.03-0.73c-0.02-0.2-0.04-0.4-0.04-0.57h0.06c0,0.17,0.02,0.36,0.04,0.57
	c0.02,0.25,0.05,0.52,0.03,0.74c-0.02,0.31,0.08,0.48,0.21,0.73l0.11,0.21c0.69,1.42,1.11,2.35,1.05,3.61l0,0.18
	C48.92,42.98,48.93,43.32,48.73,43.44z"/>
<path class="st5" d="M47.47,43.79l-0.02,0l0-0.06c0.05,0,0.12-0.02,0.2-0.22c0.08-0.19,0.36-1.45,0.24-2.32l0.06-0.01
	c0.12,0.88-0.17,2.15-0.25,2.35C47.64,43.71,47.57,43.79,47.47,43.79z"/>
<path class="st5" d="M50.22,42.81c-0.19-0.19-0.37-0.73-0.56-1.31c-0.17-0.53-0.35-1.07-0.55-1.39l0.05-0.03
	c0.2,0.33,0.38,0.87,0.56,1.4c0.19,0.57,0.36,1.11,0.54,1.29L50.22,42.81z"/>
<path class="st5" d="M44.97,34.36l-0.06,0l0-0.06c0-0.11,0-0.23,0.12-0.41l0.05,0.03c-0.11,0.16-0.11,0.27-0.11,0.38L44.97,34.36z"
	/>
<path class="st5" d="M44.76,34.44l-0.06,0l0-0.07c0.01-0.39,0.02-0.43,0.14-0.56l0.04,0.04c-0.11,0.11-0.11,0.14-0.13,0.52
	L44.76,34.44z"/>
<path class="st5" d="M44.59,34.45l-0.06,0l0-0.19c0-0.19-0.01-0.3,0.1-0.46l0.05,0.03c-0.09,0.15-0.09,0.24-0.09,0.43L44.59,34.45z"
	/>
<path class="st5" d="M45.7,25.19l-0.04-0.05c0.15-0.12,0.41-0.32,0.46-0.35l0.03,0.05C46.1,24.88,45.82,25.1,45.7,25.19z"/>
<path class="st5" d="M45.78,25.31l-0.04-0.05l0.12-0.1c0.23-0.19,0.33-0.26,0.38-0.27l0.01,0.06c-0.04,0.01-0.17,0.11-0.36,0.26
	L45.78,25.31z"/>
<polygon class="st5" points="45.87,25.45 45.84,25.4 46.03,25.25 46.25,25.08 46.28,25.14 46.07,25.29 "/>
<polygon class="st5" points="45.41,25.26 45.38,25.21 45.45,25.14 45.54,25.05 45.58,25.1 45.49,25.18 "/>
<path class="st5" d="M49.52,44.65c-0.04-0.04-0.03-0.16,0.01-0.27l0.05,0.02c-0.05,0.12-0.04,0.2-0.03,0.22L49.52,44.65z"/>
<path class="st5" d="M49.72,44.6l0.02-0.29l0.06,0.02c-0.04,0.12-0.05,0.22-0.04,0.23L49.72,44.6z"/>
<polygon class="st5" points="49.93,44.53 49.89,44.49 49.92,44.29 49.97,44.31 49.94,44.47 49.95,44.48 "/>
<path class="st5" d="M50.08,44.45l-0.03-0.03c-0.02-0.03-0.01-0.09,0.02-0.19l0.05,0.02c-0.04,0.12-0.03,0.14-0.03,0.14L50.08,44.45
	z"/>
<path class="st5" d="M47.85,25.58c0.08,0.11,0.17,0.1,0.18,0.17l0.04,0.1l-0.07,0.01l-0.13-0.01l-0.06-0.05l0.02-0.04l0.03-0.06
	l-0.01-0.03L47.85,25.58z"/>
<path class="st5" d="M47.9,25.48c0.09,0.01,0.25,0.06,0.34,0.16l-0.02,0.06l-0.14-0.07l-0.19-0.11L47.9,25.48z"/>
<linearGradient id="SVGID_1_" gradientUnits="userSpaceOnUse" x1="32" y1="62" x2="32" y2="2">
	<stop  offset="0" style="stop-color:#1A1A1A"/>
	<stop  offset="0.102" style="stop-color:#393939;stop-opacity:0.949"/>
	<stop  offset="0.3475" style="stop-color:#7F7F7F;stop-opacity:0.8262"/>
	<stop  offset="0.5688" style="stop-color:#B6B6B6;stop-opacity:0.7156"/>
	<stop  offset="0.7582" style="stop-color:#DEDEDE;stop-opacity:0.6209"/>
	<stop  offset="0.9081" style="stop-color:#F6F6F6;stop-opacity:0.5459"/>
	<stop  offset="1" style="stop-color:#FFFFFF;stop-opacity:0.5"/>
</linearGradient>
<circle class="st9" cx="32" cy="32" r="30"/>
</svg>
