<?xml version="1.0" encoding="utf-8"?>
<!-- Generator: Adobe Illustrator 24.1.2, SVG Export Plug-In . SVG Version: 6.00 Build 0)  -->
<svg version="1.1" id="Layer_1" xmlns="http://www.w3.org/2000/svg" xmlns:xlink="http://www.w3.org/1999/xlink" x="0px" y="0px"
	 width="64px" height="64px" viewBox="0 0 64 64" style="enable-background:new 0 0 64 64;" xml:space="preserve">
<style type="text/css">
	.st0{fill:#004EF1;}
	.st1{fill:#007934;}
	.st2{fill:#FFE000;}
	.st3{fill:#FCFCFC;}
	.st4{opacity:0.1;fill:url(#SVGID_1_);}
</style>
<path class="st0" d="M17,6.02C3.53,13.8-1.63,30.45,4.65,44.33l51.7-29.85C47.47,2.1,30.47-1.76,17,6.02z"/>
<path class="st1" d="M47,57.98c13.47-7.78,18.63-24.43,12.35-38.31L7.65,49.52C16.53,61.9,33.53,65.76,47,57.98z"/>
<path class="st2" d="M56.35,14.48L4.65,44.33c0.41,0.9,0.86,1.8,1.37,2.67c0.51,0.88,1.05,1.72,1.63,2.52l51.7-29.85
	c-0.41-0.9-0.86-1.8-1.37-2.67C57.47,16.12,56.93,15.28,56.35,14.48z"/>
<polygon class="st3" points="19,20.53 21,21.87 20.24,19.68 22.23,18.32 19.77,18.31 19,16.12 18.23,18.31 15.77,18.32 17.76,19.68 
	17,21.87 "/>
<polygon class="st3" points="13.61,14.78 15.61,16.12 14.85,13.93 16.84,12.57 14.38,12.56 13.61,10.37 12.84,12.56 10.38,12.57 
	12.37,13.93 11.61,16.12 "/>
<polygon class="st3" points="24.39,14.78 26.39,16.12 25.63,13.93 27.63,12.57 25.16,12.56 24.39,10.37 23.62,12.56 21.16,12.57 
	23.15,13.93 22.39,16.12 "/>
<polygon class="st3" points="13.61,26.28 15.61,27.62 14.85,25.43 16.84,24.07 14.38,24.06 13.61,21.87 12.84,24.06 10.38,24.07 
	12.37,25.43 11.61,27.62 "/>
<polygon class="st3" points="24.39,26.28 26.39,27.62 25.63,25.43 27.63,24.07 25.16,24.06 24.39,21.87 23.62,24.06 21.16,24.07 
	23.15,25.43 22.39,27.62 "/>
<linearGradient id="SVGID_1_" gradientUnits="userSpaceOnUse" x1="32" y1="61.9998" x2="32" y2="1.9998">
	<stop  offset="0" style="stop-color:#1A1A1A"/>
	<stop  offset="0.102" style="stop-color:#393939;stop-opacity:0.949"/>
	<stop  offset="0.3475" style="stop-color:#7F7F7F;stop-opacity:0.8262"/>
	<stop  offset="0.5688" style="stop-color:#B6B6B6;stop-opacity:0.7156"/>
	<stop  offset="0.7582" style="stop-color:#DEDEDE;stop-opacity:0.6209"/>
	<stop  offset="0.9081" style="stop-color:#F6F6F6;stop-opacity:0.5459"/>
	<stop  offset="1" style="stop-color:#FFFFFF;stop-opacity:0.5"/>
</linearGradient>
<circle class="st4" cx="32" cy="32" r="30"/>
</svg>
