<?xml version="1.0" encoding="utf-8"?>
<!-- Generator: Adobe Illustrator 24.1.2, SVG Export Plug-In . SVG Version: 6.00 Build 0)  -->
<svg version="1.1" id="Layer_1" xmlns="http://www.w3.org/2000/svg" xmlns:xlink="http://www.w3.org/1999/xlink" x="0px" y="0px"
	 width="64px" height="64px" viewBox="0 0 64 64" style="enable-background:new 0 0 64 64;" xml:space="preserve">
<style type="text/css">
	.st0{fill:url(#SVGID_1_);}
	.st1{fill:#FFFFFF;}
</style>
<linearGradient id="SVGID_1_" gradientUnits="userSpaceOnUse" x1="32" y1="2" x2="32" y2="62">
	<stop  offset="0" style="stop-color:#FF9900"/>
	<stop  offset="0.2875" style="stop-color:#FF9500"/>
	<stop  offset="0.5853" style="stop-color:#FF8800"/>
	<stop  offset="0.8868" style="stop-color:#FF7400"/>
	<stop  offset="1" style="stop-color:#FF6A00"/>
</linearGradient>
<circle class="st0" cx="32" cy="32" r="30"/>
<path class="st1" d="M39.32,16.76C37.28,15.59,34.86,15,32.04,15c-2.82,0-5.25,0.59-7.3,1.76s-3.64,2.84-4.76,4.99
	c-1.12,2.16-1.68,4.7-1.68,7.62c0,2.95,0.56,5.5,1.68,7.66c1.12,2.16,2.7,3.83,4.76,5.01c2.05,1.18,4.49,1.78,7.3,1.78
	c0.33,0,0.64-0.04,0.96-0.05c0.8,1.34,1.74,2.64,2.85,3.88c1.15,1.29,2.43,2.41,3.85,3.36l4.15-3.12c-1.03-0.87-2.05-1.82-3.06-2.86
	c-0.79-0.81-1.43-1.73-2-2.72c0.18-0.09,0.37-0.16,0.54-0.26c2.04-1.18,3.61-2.86,4.72-5.01c1.1-2.16,1.66-4.71,1.66-7.66
	c0-2.92-0.55-5.46-1.66-7.62S41.36,17.93,39.32,16.76z M37.55,36.57c-1.36,1.65-3.19,2.47-5.51,2.47c-2.34,0-4.18-0.81-5.53-2.45
	c-1.34-1.63-2.01-4.04-2.01-7.22c0-3.16,0.67-5.55,2.01-7.16c1.34-1.62,3.18-2.43,5.53-2.43c2.32,0,4.15,0.81,5.51,2.43
	c1.36,1.62,2.03,4.01,2.03,7.16S38.9,34.93,37.55,36.57z"/>
</svg>
