<?xml version="1.0" encoding="utf-8"?>
<!-- Generator: Adobe Illustrator 24.1.2, SVG Export Plug-In . SVG Version: 6.00 Build 0)  -->
<svg version="1.1" id="Layer_1" xmlns="http://www.w3.org/2000/svg" xmlns:xlink="http://www.w3.org/1999/xlink" x="0px" y="0px"
	 width="64px" height="64px" viewBox="0 0 64 64" style="enable-background:new 0 0 64 64;" xml:space="preserve">
<style type="text/css">
	.st0{fill:#0038B8;}
	.st1{fill:#DA2B26;}
	.st2{fill:#FFE000;}
	.st3{fill:#FCFCFC;}
	.st4{fill:#1A1626;}
	.st5{opacity:0.1;fill:url(#SVGID_1_);}
</style>
<path class="st0" d="M32,2C21.74,2,12.7,7.15,7.29,15h49.43C51.3,7.15,42.26,2,32,2z"/>
<path class="st0" d="M32,62c10.26,0,19.3-5.15,24.71-13H7.29C12.7,56.85,21.74,62,32,62z"/>
<path class="st1" d="M59.04,19H4.96C3.06,22.93,2,27.34,2,32c0,4.66,1.06,9.07,2.96,13h54.09C60.94,41.07,62,36.66,62,32
	C62,27.34,60.94,22.93,59.04,19z"/>
<path class="st2" d="M4.96,45c0.67,1.4,1.46,2.73,2.33,4h49.43c0.87-1.27,1.66-2.6,2.33-4H4.96z"/>
<path class="st2" d="M59.04,19c-0.67-1.4-1.46-2.73-2.33-4H7.29c-0.87,1.27-1.66,2.6-2.33,4H59.04z"/>
<polygon class="st3" points="53.54,26.82 50.79,27.79 53.54,28.76 56.29,27.79 "/>
<path class="st2" d="M11.99,27.47h39.74c0.19,0,0.35,0.15,0.35,0.32c0,0.18-0.16,0.32-0.35,0.32H11.99c-0.19,0-0.35-0.14-0.35-0.32
	C11.64,27.62,11.8,27.47,11.99,27.47z"/>
<polygon class="st3" points="50.9,28.77 48.15,29.74 50.9,30.71 53.65,29.74 "/>
<path class="st2" d="M9.36,29.41h39.74c0.19,0,0.35,0.14,0.35,0.32c0,0.18-0.16,0.32-0.35,0.32H9.36C9.16,30.06,9,29.92,9,29.74
	C9,29.56,9.16,29.41,9.36,29.41z"/>
<path class="st2" d="M4.98,31.52h54.04c0.26,0,0.48,0.22,0.48,0.49c0,0.27-0.21,0.49-0.48,0.49H4.98c-0.26,0-0.48-0.22-0.48-0.49
	C4.5,31.73,4.71,31.52,4.98,31.52z"/>
<path class="st4" d="M47.92,31.96c-1.61-1.61-3.5-4.04-6.07-6.07c-2.57-2.03-5.82-3.65-10.15-3.65c-3.79,0-7.04,1.63-9.74,3.65
	c-2.7,2.03-4.86,4.46-6.48,6.07L15.44,32l0.04,0.04c1.62,1.62,3.78,4.04,6.48,6.07c2.7,2.03,5.95,3.65,9.74,3.65
	c4.33,0,7.58-1.62,10.15-3.65c2.57-2.03,4.46-4.46,6.07-6.07L47.96,32L47.92,31.96z"/>
<path class="st3" d="M47.88,32c-3.24,3.23-7.55,9.71-16.18,9.71c-7.55,0-12.94-6.47-16.18-9.71c3.24-3.24,8.63-9.71,16.18-9.71
	C40.33,22.29,44.64,28.76,47.88,32z"/>
<path class="st4" d="M30.57,25.67c0.86,0.97,0.14,1.36,1.05,1.42c0.96,0.07,0.42,1.02,1.22,1.06c0.56,0.02-0.06,2.28,0.49,3.03
	c0.55,0.78,1.02,0.23,1.03,0.79c0.01,0.58-1.51,0.52-1.54,2.31c-0.04,1.03-1.28,1.1-1.34,1.76c-0.07,0.62,2.44,0.97,2.4,1.53
	c-0.03,0.56-2.71,0.47-2.82,1.1c-0.06,0.57,3.67,1.04,3.97,2.69c-0.56,0.18-2.14,0.35-3.34,0.35c-7.55,0.01-12.94-6.47-16.18-9.71
	c3.24-3.24,8.63-9.71,16.18-9.71C31.7,22.29,29.46,24.34,30.57,25.67L30.57,25.67z"/>
<path class="st3" d="M22.21,31.14v-2.59h-0.52v2.59H22.21z M23.26,28.55v2.59h0.52v-2.59H23.26z M24.83,28.55v2.59h0.52v-2.59H24.83
	z"/>
<path class="st3" d="M22.21,35.45v-2.59h-0.52v2.59H22.21z M23.26,32.86v2.59h0.52v-2.59H23.26z M24.83,32.86v2.59h0.52v-2.59H24.83
	z"/>
<path class="st3" d="M26.92,31.14v-2.59H26.4v2.59H26.92z M27.97,28.55v2.59h0.52v-2.59H27.97z M29.54,28.55v2.59h0.52v-2.59H29.54z
	"/>
<path class="st3" d="M26.92,35.45v-2.59H26.4v2.59H26.92z M27.97,32.86v2.59h0.52v-2.59H27.97z M29.54,32.86v2.59h0.52v-2.59H29.54z
	"/>
<path class="st4" d="M34.08,31.14v-2.59h-0.52v2.59H34.08z M35.12,28.55v2.59h0.52v-2.59H35.12z M36.69,28.55v2.59h0.52v-2.59H36.69
	z"/>
<path class="st4" d="M34.08,35.45v-2.59h-0.52v2.59H34.08z M35.12,32.86v2.59h0.52v-2.59H35.12z M36.69,32.86v2.59h0.52v-2.59H36.69
	z"/>
<path class="st4" d="M38.78,31.14v-2.59h-0.52v2.59H38.78z M39.83,28.55v2.59h0.52v-2.59H39.83z M41.4,28.55v2.59h0.52v-2.59H41.4z"
	/>
<path class="st4" d="M38.78,35.45v-2.59h-0.52v2.59H38.78z M39.83,32.86v2.59h0.52v-2.59H39.83z M41.4,32.86v2.59h0.52v-2.59H41.4z"
	/>
<path class="st0" d="M55.63,31.62c-0.49,0.85,0.38-0.28,2.49,1.14c0.39,0.26,0.73,0.96,0.73,1.44c-0.1-0.07-0.17-0.21-0.28-0.31
	c-0.15,0.15,0.15,0.86,0.19,1.19c-0.33-0.18-0.3-0.27-0.41-0.5c0.02,0.27-0.06,1.03,0.08,1.32c-0.26-0.07-0.24-0.28-0.38-0.33
	c0.09,0.33-0.08,0.69-0.04,1.06c-0.15-0.15-0.31-0.27-0.38-0.33c-0.01,0.18-0.29,0.64-0.3,0.81c-0.13-0.08-0.16-0.2-0.19-0.28
	c-0.16,0.2-0.73,0.95-0.77,1.17c-0.44-0.39-1.57-1.33-1.71-1.84c-0.13,0.29-0.32,0.38-0.69,0.59c-0.15-0.79-0.69-1.69-0.4-2.37
	c-0.21,0.12-0.38,0.25-0.59,0.4C53.19,33.63,54.19,32.28,55.63,31.62L55.63,31.62z"/>
<path class="st1" d="M53.8,35.82c0.2-0.41,0.39-0.54,0.52-0.8c0.23-0.46,0.27-0.83,0.47-0.77c0.2,0.05,0.2,0.24-0.06,0.7
	C54.47,35.4,54.35,35.49,53.8,35.82z M55.18,36.79c-0.03-0.31,0.06-0.44,0.05-0.64c-0.03-0.35-0.17-0.59,0.02-0.61
	c0.19-0.02,0.27,0.1,0.27,0.46C55.52,36.35,55.46,36.44,55.18,36.79L55.18,36.79z M56.22,37.4c-0.08-0.43-0.02-0.62-0.07-0.9
	c-0.09-0.49-0.27-0.81-0.1-0.86c0.17-0.04,0.28,0.11,0.34,0.61C56.46,36.74,56.43,36.88,56.22,37.4z M57.31,34.37
	c-0.25-0.19-0.4-0.21-0.57-0.33c-0.29-0.22-0.44-0.45-0.53-0.34c-0.09,0.12-0.03,0.24,0.28,0.44
	C56.79,34.34,56.89,34.36,57.31,34.37L57.31,34.37z M57.13,35.8c-0.13-0.28-0.28-0.35-0.36-0.53c-0.15-0.32-0.15-0.59-0.32-0.52
	c-0.17,0.07-0.18,0.21,0,0.52C56.62,35.58,56.72,35.63,57.13,35.8z"/>
<path class="st0" d="M6.88,32.43c-0.03-0.25,0.03-0.28-0.13-0.46c0.22,0.09,0.23,0.34,0.5,0.16c0.1-0.05,0.14-0.05,0.02-0.33
	c0.28,0.01,1.2,0.33,1.35,0.34c0.39,0.02,1.09-0.41,1.58,0.12c0.47,0.47,0.31,0.97,0.31,1.63c-0.19-0.09-0.1-0.14-0.3-0.37
	c0.15,0.58-0.01,1.61-0.01,2.22c-0.08-0.15-0.07-0.08-0.14-0.24c-0.2,0.56-0.44,0.67-0.44,1.33c-0.07-0.26,0-0.2-0.08-0.34
	c-0.19,0.42-1.5,0.78-1,1.21c-0.45-0.27-0.65-0.24-0.86-0.48c-0.09,0.06-0.16,0.17-0.24,0.31c-0.8-0.37-0.51-1.16-1.14-1.69
	c-0.11,0.22-0.06,0.19-0.18,0.55c-0.13-0.5-0.16-0.82-0.3-1.19c-0.12,0.2-0.11,0.13-0.34,0.44c-0.09-0.61-0.24-0.76-0.18-1.16
	c-0.24,0.17-0.08,0.1-0.32,0.31C5.21,33.22,6.18,32.06,6.88,32.43L6.88,32.43z"/>
<path class="st1" d="M5.89,34.99c0.21-0.5,0.39-0.66,0.52-0.99c0.23-0.57,0.27-1.03,0.47-0.96c0.2,0.07,0.19,0.3-0.07,0.87
	C6.55,34.47,6.43,34.59,5.89,34.99L5.89,34.99z M6.67,36.25c0.08-0.45,0.21-0.62,0.27-0.91c0.1-0.51,0.04-0.89,0.23-0.87
	c0.18,0.02,0.22,0.21,0.1,0.72C7.14,35.7,7.06,35.82,6.67,36.25L6.67,36.25z M7.6,37.13c0.02-0.44,0.13-0.61,0.14-0.89
	c0.03-0.5-0.07-0.85,0.11-0.85c0.17,0,0.24,0.18,0.18,0.67C7.98,36.56,7.92,36.68,7.6,37.13z M9.61,34.26
	c-0.38-0.38-0.61-0.45-0.86-0.7c-0.44-0.43-0.65-0.84-0.8-0.69c-0.15,0.14-0.06,0.36,0.4,0.77C8.8,34.05,8.96,34.11,9.61,34.26z
	 M9.37,35.74c-0.25-0.38-0.43-0.48-0.59-0.73C8.5,34.58,8.4,34.2,8.24,34.3C8.08,34.39,8.11,34.58,8.42,35
	C8.73,35.42,8.85,35.5,9.37,35.74L9.37,35.74z"/>
<path class="st0" d="M26.47,24.02c-0.45,0.87,0.79-0.29,2.72,1.16c0.36,0.27,0.87,1.33,0.87,1.83c-0.41-0.09-1.14-0.49-1.14-0.49
	s0.86,0.86,0.86,1.84c-0.3-0.19-0.45-0.16-0.55-0.39c0,0.32,0.27,0.52,0.27,1.02c-0.18-0.15-0.38-0.28-0.59-0.39
	c0.29,0.49-0.52,1.45-0.12,1.77c-0.7-0.1-1.42-0.55-1.71-1.05c-0.15,0.1-0.17,0.26-0.17,0.43c0.02,0.02-1.07-0.81-0.97-1.13
	c-0.15,0.21-0.17,0.32-0.2,0.55c-0.4-0.4-0.77-0.79-0.91-1.31c-0.18,0.23-0.19,0.23-0.37,0.46c-0.13-0.81-0.13-0.78,0.13-1.48
	c-0.19,0.13-0.35,0.25-0.54,0.41C24.23,26.08,25.15,24.7,26.47,24.02L26.47,24.02z"/>
<path class="st1" d="M25.36,28.25c0.07-0.6,0.23-0.82,0.28-1.21c0.08-0.68-0.02-1.17,0.22-1.16c0.24,0.01,0.31,0.26,0.19,0.94
	C25.93,27.5,25.83,27.66,25.36,28.25L25.36,28.25z M26.61,29.35c-0.05-0.5,0.04-0.72,0.01-1.04c-0.05-0.57-0.23-0.96-0.02-0.99
	c0.21-0.04,0.31,0.16,0.34,0.73C26.97,28.62,26.91,28.77,26.61,29.35L26.61,29.35z M28.57,30.24c-0.21-0.44-0.39-0.57-0.53-0.85
	c-0.24-0.49-0.29-0.9-0.48-0.82c-0.19,0.07-0.18,0.28,0.09,0.76C27.92,29.82,28.04,29.91,28.57,30.24z M29.24,26.33
	c-0.54-0.28-0.82-0.29-1.17-0.47c-0.61-0.32-0.97-0.68-1.1-0.48c-0.13,0.2,0.04,0.4,0.68,0.69C28.29,26.36,28.48,26.37,29.24,26.33
	L29.24,26.33z M29.44,27.96c-0.39-0.33-0.63-0.38-0.88-0.59c-0.45-0.37-0.67-0.73-0.82-0.59c-0.15,0.15-0.05,0.34,0.42,0.69
	C28.63,27.83,28.79,27.87,29.44,27.96z"/>
<linearGradient id="SVGID_1_" gradientUnits="userSpaceOnUse" x1="32" y1="62" x2="32" y2="2">
	<stop  offset="0" style="stop-color:#1A1A1A"/>
	<stop  offset="0.102" style="stop-color:#393939;stop-opacity:0.949"/>
	<stop  offset="0.3475" style="stop-color:#7F7F7F;stop-opacity:0.8262"/>
	<stop  offset="0.5688" style="stop-color:#B6B6B6;stop-opacity:0.7156"/>
	<stop  offset="0.7582" style="stop-color:#DEDEDE;stop-opacity:0.6209"/>
	<stop  offset="0.9081" style="stop-color:#F6F6F6;stop-opacity:0.5459"/>
	<stop  offset="1" style="stop-color:#FFFFFF;stop-opacity:0.5"/>
</linearGradient>
<circle class="st5" cx="32" cy="32" r="30"/>
</svg>
