<?xml version="1.0" encoding="utf-8"?>
<!-- Generator: Adobe Illustrator 24.1.2, SVG Export Plug-In . SVG Version: 6.00 Build 0)  -->
<svg version="1.1" id="Layer_1" xmlns="http://www.w3.org/2000/svg" xmlns:xlink="http://www.w3.org/1999/xlink" x="0px" y="0px"
	 width="64px" height="64px" viewBox="0 0 64 64" style="enable-background:new 0 0 64 64;" xml:space="preserve">
<style type="text/css">
	.st0{fill:#0FB4D4;}
	.st1{fill:#22CB41;}
	.st2{fill:#E81C27;}
	.st3{fill:#FCFCFC;}
	.st4{opacity:0.1;fill:url(#SVGID_1_);}
</style>
<path class="st0" d="M32,2C18.75,2,7.52,10.59,3.54,22.5h56.91C56.48,10.59,45.25,2,32,2z"/>
<path class="st1" d="M32,62c13.25,0,24.48-8.59,28.46-20.5H3.54C7.52,53.41,18.75,62,32,62z"/>
<path class="st2" d="M60.91,24c-0.14-0.51-0.29-1.01-0.46-1.5H3.54c-0.16,0.49-0.32,0.99-0.46,1.5H60.91z"/>
<path class="st2" d="M3.09,40c0.14,0.51,0.29,1.01,0.46,1.5h56.91c0.16-0.49,0.32-0.99,0.46-1.5H3.09z"/>
<path class="st3" d="M2,32c0,2.77,0.38,5.45,1.09,8h57.83c0.7-2.55,1.09-5.23,1.09-8s-0.38-5.45-1.09-8H3.09
	C2.38,26.55,2,29.23,2,32z"/>
<path class="st3" d="M19.78,18.29c-2.36,0-4.28-1.92-4.28-4.29c0-2.37,1.91-4.29,4.28-4.29c0.56,0,1.1,0.11,1.59,0.31
	C20.54,9.38,19.49,9,18.36,9c-2.75,0-4.98,2.24-4.98,5s2.23,5,4.98,5c1.14,0,2.18-0.38,3.02-1.02
	C20.88,18.17,20.35,18.29,19.78,18.29z"/>
<polygon class="st3" points="24.11,16.2 24.45,17.27 25.58,17.27 24.67,17.93 25.02,19 24.11,18.34 23.19,19 23.54,17.93 
	22.63,17.27 23.76,17.27 "/>
<polygon class="st3" points="28.37,16.2 28.71,17.27 29.84,17.27 28.93,17.93 29.28,19 28.37,18.34 27.45,19 27.8,17.93 
	26.89,17.27 28.02,17.27 "/>
<polygon class="st3" points="32.63,16.2 32.97,17.27 34.1,17.27 33.19,17.93 33.54,19 32.63,18.34 31.71,19 32.06,17.93 
	31.15,17.27 32.28,17.27 "/>
<polygon class="st3" points="36.89,16.2 37.24,17.27 38.37,17.27 37.45,17.93 37.8,19 36.89,18.34 35.97,19 36.32,17.93 
	35.41,17.27 36.54,17.27 "/>
<polygon class="st3" points="41.15,16.2 41.5,17.27 42.63,17.27 41.71,17.93 42.06,19 41.15,18.34 40.24,19 40.58,17.93 
	39.67,17.27 40.8,17.27 "/>
<polygon class="st3" points="28.37,12.6 28.71,13.67 29.84,13.67 28.93,14.33 29.28,15.4 28.37,14.74 27.45,15.4 27.8,14.33 
	26.89,13.67 28.02,13.67 "/>
<polygon class="st3" points="32.63,12.6 32.97,13.67 34.1,13.67 33.19,14.33 33.54,15.4 32.63,14.74 31.71,15.4 32.06,14.33 
	31.15,13.67 32.28,13.67 "/>
<polygon class="st3" points="36.89,12.6 37.24,13.67 38.37,13.67 37.45,14.33 37.8,15.4 36.89,14.74 35.97,15.4 36.32,14.33 
	35.41,13.67 36.54,13.67 "/>
<polygon class="st3" points="41.15,12.6 41.5,13.67 42.63,13.67 41.71,14.33 42.06,15.4 41.15,14.74 40.24,15.4 40.58,14.33 
	39.67,13.67 40.8,13.67 "/>
<polygon class="st3" points="32.63,9 32.97,10.07 34.1,10.07 33.19,10.73 33.54,11.79 32.63,11.14 31.71,11.79 32.06,10.73 
	31.15,10.07 32.28,10.07 "/>
<polygon class="st3" points="36.89,9 37.24,10.07 38.37,10.07 37.45,10.73 37.8,11.79 36.89,11.14 35.97,11.79 36.32,10.73 
	35.41,10.07 36.54,10.07 "/>
<polygon class="st3" points="41.15,9 41.5,10.07 42.63,10.07 41.71,10.73 42.06,11.79 41.15,11.14 40.24,11.79 40.58,10.73 
	39.67,10.07 40.8,10.07 "/>
<linearGradient id="SVGID_1_" gradientUnits="userSpaceOnUse" x1="32" y1="62" x2="32" y2="2">
	<stop  offset="0" style="stop-color:#1A1A1A"/>
	<stop  offset="0.102" style="stop-color:#393939;stop-opacity:0.949"/>
	<stop  offset="0.3475" style="stop-color:#7F7F7F;stop-opacity:0.8262"/>
	<stop  offset="0.5688" style="stop-color:#B6B6B6;stop-opacity:0.7156"/>
	<stop  offset="0.7582" style="stop-color:#DEDEDE;stop-opacity:0.6209"/>
	<stop  offset="0.9081" style="stop-color:#F6F6F6;stop-opacity:0.5459"/>
	<stop  offset="1" style="stop-color:#FFFFFF;stop-opacity:0.5"/>
</linearGradient>
<circle class="st4" cx="32" cy="32" r="30"/>
</svg>
