<?xml version="1.0" encoding="utf-8"?>
<!-- Generator: Adobe Illustrator 24.1.2, SVG Export Plug-In . SVG Version: 6.00 Build 0)  -->
<svg version="1.1" id="Layer_1" xmlns="http://www.w3.org/2000/svg" xmlns:xlink="http://www.w3.org/1999/xlink" x="0px" y="0px"
	 width="64px" height="64px" viewBox="0 0 64 64" style="enable-background:new 0 0 64 64;" xml:space="preserve">
<style type="text/css">
	.st0{fill:#FCFCFC;}
	.st1{fill:#FFF300;}
	.st2{fill:#1A1626;}
	.st3{fill:#F0F0F0;}
	.st4{fill:#FF0000;}
	.st5{fill:#CCCCCC;}
	.st6{fill:#FA0204;}
	.st7{opacity:0.1;fill:url(#SVGID_1_);}
</style>
<path class="st0" d="M62,32C62,15.43,48.57,2,32,2v60C48.57,62,62,48.57,62,32z"/>
<path class="st1" d="M2,32c0,16.57,13.43,30,30,30V2C15.43,2,2,15.43,2,32z"/>
<path class="st2" d="M57.1,40.67c0.46-0.71,0.64-1.59,0.49-2.42c-0.07-0.39-0.21-0.77-0.42-1.12c-0.26-0.45,0.36-0.55,0.12-1.11
	c-0.14-0.33-0.54-0.5-0.88-0.37c-0.16,0.06-0.28,0.17-0.36,0.32c-0.27-0.18-0.57-0.32-0.88-0.41c-0.91-0.27-1.92-0.13-2.73,0.37
	c-0.12-0.53-0.62-0.2-0.83-0.59c-0.3-0.58-0.88-1-1.34-1.45c-0.25-0.25-0.88-1.23-1.21-1.26c0,0-0.83,0.05-0.57-0.17
	c0.23-0.2,0.45-0.39,0.68-0.59c0.18-0.16,1.05,0.31,1.45,0.22c0.88-0.2,1.8-0.61,2.22-1.44c0.24,0.21,1.06,1.22,1.41,0.91
	c0.5-0.44,1.27-0.83,1.11-1.59c0.32,0.37,0.62,0.02,0.9-0.19c0.22-0.17,1.1-0.64,1.1-0.99c0.2-0.57-0.67-2.31-1.19-1.53
	c-0.01-0.58-0.12-0.72-0.52-1.14c0.31-0.33,0.83-0.12,0.98-0.7c0.03-0.13-0.15-0.97,0.19-0.97c0.83,0,0.83-1.28,0-1.28
	c-0.58,0-0.52,0.63-0.98,0.83c-0.42,0.18-0.91-0.24-1.13,0.5c-0.1,0.33-0.47,0.54-0.74,0.77c-0.46,0.4-0.93,0.8-1.39,1.19
	c-0.12-0.38-1.1-2.31-0.31-2.09c0.31,0.08,0.68,0.54,0.96,0.57c0.33,0.25,0.68-0.54,0.79-0.72c0.24-0.37,0.53-0.63,0.09-0.97
	c-0.26-0.2-0.58-0.42-0.9-0.53c-1.01-0.36-2.35-0.02-2.83,0.99c-0.45-0.46,0.23-0.93-0.14-1.31c0.2-0.05,0.45-0.15,0.36-0.42
	c-0.04-0.09-0.09-0.18-0.14-0.27c0.1-0.23,0.42-0.51,0.27-0.8c-0.17-0.31-0.45-0.02-0.66-0.27c-0.21-0.25,0.01-0.37-0.15-0.65
	c-0.11-0.19-0.06-0.38-0.17-0.54c-0.06-0.07-0.14-0.12-0.23-0.16c0.09-0.29,0.18-0.57,0.25-0.87c0.19-0.85-0.57-0.51-0.86-0.03
	c-0.24-0.38-0.55-0.68-0.94-0.88c-0.58-0.31-0.07-0.51-0.47-0.88c0.57-0.12,0.42-0.87-0.12-0.87c0.23-0.66-1.03-0.66-0.8,0
	c-0.54,0-0.69,0.75-0.12,0.87c-0.19,0.18-0.12,0.53-0.19,0.74c-0.51,0.22-0.91,0.54-1.21,1c-0.18-0.24-1-0.95-0.91-0.13
	c0.04,0.36,0.19,0.7,0.29,1.05c-0.33,0.11-0.25,0.45-0.38,0.69c-0.12,0.23,0.05,0.42-0.12,0.62c-0.21,0.25-0.55,0.02-0.71,0.31
	c-0.23,0.41,0.35,0.59,0.12,1.02c-0.14,0.27-0.03,0.62,0.32,0.54c-0.25,0.43,0.36,0.8-0.09,1.25c-0.45-0.95-1.57-1.25-2.54-1.06
	c-0.36,0.04-0.75,0.27-1.04,0.49c-0.44,0.34-0.44,0.48-0.15,0.92c0.13,0.2,0.44,0.92,0.74,0.92c0.22,0,0.61-0.37,0.82-0.48
	c1.22-0.73,0.14,1.48-0.01,1.94c-0.61-0.52-1.21-1.04-1.81-1.55c-0.34-0.29-0.39-0.84-0.89-0.94c-0.57-0.11-0.69,0.19-0.94-0.4
	c-0.39-0.91-1.75,0-1.04,0.7c0.16,0.16,0.4,0.08,0.5,0.26c0.19,0.34,0.16,0.34,0.13,0.69c-0.06,0.8,0.9,0.5,0.97,0.88
	c0.02,0.11-0.37,0.38-0.42,0.49c-0.13,0.15-0.07,0.49-0.07,0.67c-0.31-0.47-0.64,0.03-0.87,0.27c-0.37,0.39-0.32,0.68-0.32,1.21
	c0,0.47,1.6,1.68,2,1.23c-0.16,0.74,0.56,1.1,1.04,1.53c0.44,0.39,1.14-0.55,1.46-0.84c0.43,0.83,1.35,1.22,2.21,1.43
	c0.3,0.07,1.36-0.31,1.39-0.29c0.23,0.2,0.46,0.4,0.69,0.6c-0.49-0.23-1.79,1.56-2.14,1.89c-0.34,0.32-0.7,0.63-0.92,1.05
	c-0.21,0.4-0.71,0.06-0.83,0.59c-0.72-0.44-1.59-0.61-2.42-0.44c-0.42,0.08-0.83,0.25-1.19,0.49c-0.16-0.31-0.55-0.45-0.87-0.32
	c-0.33,0.14-0.5,0.53-0.37,0.87c0.06,0.15,0.16,0.27,0.29,0.35c-0.12,0.16-0.22,0.34-0.31,0.52c-0.35,0.75-0.43,1.61-0.19,2.4
	c0.13,0.44,0.5,0.71,0.2,1.02c-0.25,0.26-0.25,0.69,0.01,0.95c0.25,0.25,0.66,0.26,0.93,0.03c0.31-0.27,0.56,0.1,0.95,0.25
	c0.81,0.3,1.73,0.29,2.52-0.06c0.56-0.24,0.35,0.26,0.93,0.26c0.32,0,0.59-0.23,0.66-0.54c0.31,0.25,1.4,0.67,1.77,0.53
	c0.16,0.14,0.73,0.27,0.92,0.2c0.1,0.07,0.65,0.24,0.78,0.22c-0.23,0.33-0.03,1.32-0.08,1.72c-0.04,0.3,0.13,0.3,0.01,0.58
	c-0.1,0.26,0.01,0.44-0.09,0.72c-0.24,0.69-0.86,2.05-0.28,2.77c0.36,0.44,1.18,0.34,1.6,0.1c0.31-0.09,0.09-0.32,0.45-0.39
	c0.25-0.05,0.41-0.13,0.46-0.38c0.09-0.47,0.11-1.01-0.04-1.47c-0.11-0.34-0.16-0.65-0.27-0.99c-0.1-0.32,0.08-0.64-0.18-0.92
	c0.28-0.45-0.03-1.22,0.1-1.7c0.25,0.03,0.89-0.11,1.12-0.21c0.75-0.31,1.59-0.4,2.35-0.72c0.18,0.59,1.02,0.65,1.27,0.07
	c0.68,0.38,1.48,0.51,2.25,0.37c0.3-0.05,0.59-0.15,0.86-0.28c0.18-0.09,0.36-0.19,0.52-0.31c0.08,0.14,0.2,0.25,0.35,0.31
	C57.37,42.22,57.87,41.03,57.1,40.67z M51.27,30.05c0.17-0.17,0.2-0.1,0.42-0.17c0.03,0.47-0.47,0.73-0.9,0.66
	C51.07,30.54,51.37,30.37,51.27,30.05z M49.6,25.93c0.07-0.28,0.47-0.91,0.62-1.04c-0.04,0.74,0.26,1.86,0.67,2.5
	c0.39,0.9-0.32,0.41-0.58,1.01c-0.17,0.38-0.56,0.46-0.78,0.81c-0.35-0.6-0.39-1.53-0.38-2.2C49.78,26.7,49.48,26.41,49.6,25.93z
	 M43.05,30.55c-0.4-0.03-0.78-0.24-0.75-0.68c0.17,0.06,0.45,0.01,0.41,0.27c-0.04,0.27,0.28,0.39,0.49,0.39
	C43.15,30.54,43.1,30.54,43.05,30.55z M44.78,28c-0.07,0.4-0.11,0.85-0.32,1.21c-0.17-0.29-0.64-0.39-0.73-0.69
	c-0.19-0.61-1.02-0.27-0.67-1.06c0.1-0.22,0.19-0.45,0.27-0.68c0.12-0.3,0.26-0.64,0.3-0.96c0.06-0.25,0.03-0.74,0.13-0.95
	c0.33,0.26,0.53,0.93,0.58,1.36c0.04,0.37,0.49,0.66,0.49,0.87C44.84,27.41,44.81,27.7,44.78,28z M38.63,37.02
	c0.34,0,0.63,0.24,0.71,0.56c-0.19,0.2-0.21,0.51-0.06,0.74c-0.52-0.35-0.79,0.43-1.22-0.11C37.67,37.74,38.03,37.02,38.63,37.02z
	 M38.64,40.67c-0.5,0-0.87-0.51-0.7-0.99c0.3-0.84,0.83-0.01,1.34-0.37c-0.17,0.24-0.14,0.58,0.07,0.78
	C39.28,40.43,38.98,40.67,38.64,40.67z M39.78,39.06c-0.13,0-0.25,0.04-0.35,0.11c0.14-0.2,0.15-0.47,0.01-0.68
	c0.21,0.14,0.51,0.13,0.71-0.02C39.99,38.69,40,39,40.17,39.21C40.05,39.11,39.92,39.06,39.78,39.06z M40.95,36.99
	c0.5,0,0.87,0.51,0.7,0.99c-0.31,0.86-0.86-0.03-1.37,0.36c0.16-0.23,0.14-0.54-0.04-0.75C40.29,37.25,40.6,36.99,40.95,36.99z
	 M40.96,40.69c-1.06,0-0.35-0.94-0.71-1.4c0.49,0.41,0.84-0.34,1.28,0.18C41.93,39.95,41.58,40.69,40.96,40.69z M48.88,35.97
	C48.91,36,49.13,36.21,48.88,35.97c0.37,0.36,0.74,0.71,1.21,0.91c0.46,0.19,0.26,0.74,0.92,0.79c-0.13,0.35-0.21,0.73-0.21,1.11
	c-0.13-0.23-0.52-0.6-0.7-0.81c-0.21-0.24-0.36-0.53-0.57-0.76c-0.27-0.3-0.8-1.02-0.86-1.43C48.75,35.84,48.82,35.91,48.88,35.97z
	 M43.47,37.49C43.45,37.52,43.43,37.54,43.47,37.49C43.54,37.42,43.5,37.46,43.47,37.49c0.12-0.16,0.17-0.33,0.15-0.52
	c0.29-0.06,0.54-0.21,0.79-0.37c0.52-0.35,0.94-0.87,1.41-1.29c-0.35,0.5-0.87,1.18-1.07,1.76c-0.21,0.6-0.96,1.65-1.57,1.9
	c0.02-0.44-0.05-0.88-0.21-1.29C43.17,37.67,43.33,37.61,43.47,37.49z M46.15,40.36c0.01,0.38,0.12,0.92-0.02,1.27
	c-0.23-0.12-0.83-0.27-1.09-0.27c-0.29,0-0.8-0.26-1.07-0.14c-0.15-0.11-0.95-0.54-1.11-0.54c-0.31,0-0.03-0.41,0.09-0.41
	c0.75-0.08,1.47-1.11,1.95-1.6c0.25-0.26,0.43-0.69,0.62-1c0.15-0.25,0.43-0.93,0.66-1.07c0.03,0.36-0.12,0.73,0,1.11
	c-0.13,0.16-0.05,1.22,0.03,1.42C46.02,39.34,46.14,40.08,46.15,40.36z M47.16,31.27c-0.37,0.14-0.63-0.29-0.87-0.52
	c-0.43-0.41-0.19-0.48,0.01-1.03c0.27-0.74,0.22-1.64,0.25-2.42c0.29,0.03,0.59,0.03,0.88,0c0.02,0.66,0.02,1.33,0.14,1.99
	c0.02,0.14,0.47,1.14,0.42,1.19C47.71,30.75,47.43,31.01,47.16,31.27z M50.54,41.05c-0.19-0.03-0.61,0.1-0.79,0.18
	c-0.19,0.09-0.51,0.23-0.71,0.23c-0.24,0-1,0.07-1.2,0.21c0.05-0.23,0.07-1.11-0.06-1.32c0.11-0.21,0.13-1.34,0.01-1.53
	c0.09-0.2,0.12-1.26,0-1.44c0.14-0.27,0.1-0.85,0.07-1.16c0.34,0.73,0.79,1.7,1.32,2.31c0.38,0.44,0.77,0.84,1.15,1.3
	c0.16,0.19,0.39,0.09,0.58,0.21c0.12,0.08,0.37,0.64,0.44,0.64C51.22,40.69,50.63,40.94,50.54,41.05z M55.36,37.02
	c0.79,0,0.97,1.09,0.3,1.39c-0.01,0.02-0.04,0.04-0.12,0.06c-0.19-0.26-0.56-0.33-0.82-0.15c0.15-0.23,0.12-0.54-0.06-0.74
	C54.73,37.26,55.02,37.02,55.36,37.02z M52.34,37.5c0.13-0.39,0.57-0.6,0.96-0.46c0.6,0.22,0.31,0.54,0.31,0.96
	c0,0.13,0.04,0.25,0.11,0.35c-0.25-0.19-0.65-0.14-0.84,0.11C52.46,38.36,52.2,37.91,52.34,37.5z M53.02,40.69
	c-0.51,0-0.87-0.52-0.69-1c0.32-0.87,0.9,0.03,1.41-0.4C53.37,39.75,54.09,40.69,53.02,40.69z M53.82,39.21
	c0.17-0.21,0.18-0.51,0.02-0.73c0.2,0.15,0.5,0.16,0.71,0.02c-0.13,0.21-0.13,0.48,0.01,0.68C54.35,39.02,54.02,39.04,53.82,39.21z
	 M55.35,40.67c-0.34,0-0.64-0.25-0.71-0.57c0.21-0.21,0.24-0.54,0.07-0.78c0.49,0.35,0.8-0.36,1.22,0.16
	C56.31,39.95,55.95,40.67,55.35,40.67z"/>
<path class="st0" d="M45.09,26.86c0.31,0.08,0.75,0.07,1.02,0.2c0.07,0.03,0.29-0.02,0.29,0.07c-0.01,0.25-0.02,0.5-0.03,0.76
	c-0.04,0.99-0.2,1.9-0.78,2.73c-0.3-0.26-0.6-0.52-0.91-0.78c-0.34-0.29,0.06-0.55,0.18-0.95C45.05,28.24,45.12,27.52,45.09,26.86
	L45.09,26.86z M43.7,30.57c0.34,0.29,0.67,0.59,1.01,0.88c-0.9,0.87-3.37,0.04-2.67-1.36C42.18,30.77,43.22,31.02,43.7,30.57
	L43.7,30.57z"/>
<path class="st3" d="M42.1,24.11c0.66,1.23-0.82,2.9-0.99,4.16c-0.11,0.83-0.1,1.78,0.4,2.5c0.4,0.58,1.04,0.77,1.68,0.99
	c-1.69-0.83-1.1-2.6-0.52-4.01c0.33-0.78,0.88-1.69,0.67-2.56C43.23,24.74,42.73,23.64,42.1,24.11L42.1,24.11z"/>
<path class="st0" d="M43.39,25.77c0.18-0.68,0.26-1.56-0.17-2.17c-0.55-0.78-1.87-0.99-2.67-0.49c0.16,0.26,0.59,1.27,0.86,1.13
	C42.48,23.68,43.35,24.78,43.39,25.77L43.39,25.77z"/>
<path class="st1" d="M40.56,23.12c-0.09,0.05-0.76,0.42-0.7,0.51c0.25,0.38,0.49,0.75,0.74,1.13c0.21-0.18,0.44-0.33,0.68-0.46
	C41.04,23.9,40.8,23.51,40.56,23.12L40.56,23.12z"/>
<path class="st0" d="M48.9,26.86c-0.31,0.08-0.75,0.07-1.02,0.2c-0.07,0.03-0.29-0.02-0.29,0.07c0.01,0.25,0.02,0.5,0.03,0.76
	c0.04,0.99,0.2,1.9,0.78,2.73c0.3-0.26,0.6-0.52,0.91-0.78c0.34-0.29-0.06-0.55-0.18-0.95C48.94,28.24,48.87,27.52,48.9,26.86
	L48.9,26.86z M50.29,30.57c-0.34,0.29-0.67,0.59-1.01,0.88c0.9,0.87,3.37,0.04,2.67-1.36C51.81,30.77,50.77,31.02,50.29,30.57
	L50.29,30.57z"/>
<path class="st3" d="M51.89,24.11c-0.66,1.23,0.82,2.9,0.99,4.16c0.11,0.83,0.1,1.78-0.4,2.5c-0.4,0.58-1.04,0.77-1.68,0.99
	c1.69-0.83,1.11-2.6,0.52-4.01c-0.33-0.78-0.88-1.69-0.67-2.56C50.75,24.74,51.25,23.64,51.89,24.11L51.89,24.11z"/>
<path class="st0" d="M50.59,25.77c-0.18-0.68-0.26-1.56,0.17-2.17c0.55-0.78,1.87-0.99,2.67-0.49c-0.16,0.26-0.59,1.27-0.86,1.13
	C51.5,23.68,50.63,24.78,50.59,25.77L50.59,25.77z"/>
<path class="st1" d="M53.8,23.33c-0.52-0.54-0.85,0.57-1.09,0.96c0.24,0.12,0.47,0.28,0.68,0.46C53.65,24.35,54.5,23.6,53.8,23.33
	L53.8,23.33z"/>
<path class="st0" d="M49.75,22.94c-0.01-0.51,0.21-0.96,0.37-1.45c0.11-0.34-0.48-0.5-0.59-0.79c-0.18-0.49-0.37-0.98-0.55-1.47
	c-0.49-1.33-1.69-2.19-3.05-1.38c-0.88,0.52-1.12,1.9-1.44,2.79c-0.3,0.33-0.73,0.54-0.58,0.99c0.18,0.56,0.36,1.11,0.51,1.68
	c0.1,0.37-0.74,0.65-0.58,0.88c0.38,0.52,0.76,1.05,1.13,1.57c0.25,0.35,2.69-0.18,3.14-0.22c0.25-0.02,0.74,0.04,0.92-0.16
	c0.4-0.43,0.8-0.85,1.2-1.28C49.75,23.65,49.76,23.6,49.75,22.94z"/>
<path id="svg_167_1_" class="st4" d="M47,25.71c1.32,0,2.39,0.32,2.39,0.71c0,0.39-1.07,0.71-2.39,0.71c-1.32,0-2.39-0.32-2.39-0.71
	C44.61,26.03,45.68,25.71,47,25.71z"/>
<path class="st1" d="M50.36,23.97c-0.44-0.06-0.32,0.47-0.76,0.32c-0.28-0.22-0.26,0.58-0.33,0.62c-0.27,0.18-0.68-0.23-0.49-0.5
	c0.13-0.19-0.13-0.27-0.27-0.24c-0.3,0.06,0.08,0.28-0.15,0.44c-0.3,0.21-0.79,0.25-0.98-0.08c0.63-0.13,0.13-0.79-0.02-0.65
	c0.42-0.61-1.16-0.6-0.73,0c-0.14-0.14-0.67,0.51-0.02,0.65c-0.14,0.3-0.58,0.27-0.83,0.17c-0.4-0.16-0.01-0.46-0.3-0.53
	c-0.31-0.06-0.37,0.18-0.14,0.36c-0.06,0.23-0.53,0.58-0.69,0.29c-0.05-0.09,0.13-0.28,0.03-0.36c-0.21-0.44-0.56,0.19-0.73-0.41
	c-0.09,0-0.35-0.25-0.35,0.01c0,0.22,0.3,0.81,0.6,0.68c0,0.64,0.53,0.94,0.42,1.58c0.41-0.53,1.69-0.46,2.27-0.47
	c0.62-0.01,2.05-0.1,2.49,0.47c-0.03-0.19-0.06-0.38,0.02-0.55c0.08-0.17,0.36-0.4,0.41-0.55c0.05-0.14-0.06-0.35,0-0.49
	C50.04,24.75,50.56,24.18,50.36,23.97C50.36,23.97,50.52,24.14,50.36,23.97z"/>
<path class="st1" d="M49.96,23.2c0.02-0.4,0.32-0.58-0.12-0.92c-0.37,0.48-0.83-0.11-1-0.44c-0.33,0.28-0.8,0.46-1.2,0.21
	c0.2-0.24,0.31-0.52,0.01-0.73c-0.28-0.18-0.26-0.51-0.65-0.6c-0.18,0.04-0.53,0.23-0.4,0.47c-0.4,0.16-0.65,0.52-0.24,0.85
	c-0.46,0-0.81,0.11-1.2-0.21c-0.17,0.33-0.64,0.88-1,0.44c-0.52,0.41,0.07,1.07-0.41,1.67c0.33,0.23,0.7-0.11,0.99-0.27
	c0.83-0.47,1.6-0.3,2.49-0.29c0.81,0.01,1.42-0.02,2.2,0.3c0.28,0.12,0.59,0.5,0.82,0.26C50.07,23.67,49.95,23.52,49.96,23.2z"/>
<path class="st1" d="M44.11,21.6c-0.02-0.13-0.44-0.89-0.65-0.56c-0.09,0.14,0.26,0.51,0.3,0.65c0.04,0.17-0.32,0.39-0.22,0.53
	c-0.05-0.07,0.68,0.05,0.7,0.05C44.69,22.31,44.59,21.6,44.11,21.6z"/>
<path class="st1" d="M50.44,21.01c-0.29,0.01-1.49,1.29-0.62,1.29c0.46,0,0.62-0.15,0.42-0.51C50.15,21.65,50.71,21,50.44,21.01
	C50.11,21.02,50.78,21,50.44,21.01z"/>
<path class="st1" d="M49.72,20.36c0.1-0.32-0.26-0.8-0.45-0.95c-0.03-0.2,0.47-1.19,0.29-1.29c-0.21-0.13-0.4,0.45-0.5,0.54
	c-0.11,0.1-0.25,0.01-0.33,0.17c-0.1,0.21,0.18,0.11,0.15,0.25c-0.05,0.22-1.15,0.09-1.48,0.07c-0.03-0.19,0.73-0.65-0.02-0.65
	c-0.5,0,0.31-0.55-0.39-0.59c-0.7,0.03,0.11,0.59-0.39,0.59c-0.75,0,0.01,0.46-0.02,0.65c-0.33,0.02-1.43,0.15-1.48-0.07
	c0.04-0.07,0.08-0.14,0.13-0.21c0.1-0.19-0.19-0.14-0.28-0.23c-0.09-0.09-0.35-0.63-0.53-0.52c-0.33,0.19,0.69,1.27,0.11,1.42
	c-0.09,0.02-0.51,1.68-0.6,1.6c0.15,0.12,0.78-0.29,0.92-0.36c0.63-0.31,1.45-0.32,2.14-0.32c0.69,0,1.56-0.01,2.18,0.34
	c0.1,0.05,1.01,0.59,0.84,0.19C49.91,20.76,49.62,20.64,49.72,20.36z"/>
<path class="st1" d="M46.59,16.88c-0.03,0.1,0,0.18,0.09,0.23c0.19,0.16-0.1,0.2-0.15,0.32c-0.09,0.23,0.39,0.09,0.53,0.09
	c0.61-0.01,0.21,0.08,0.18-0.3c-0.01-0.15,0.23-0.15,0.15-0.34c-0.07-0.18-0.34-0.15-0.4-0.33C46.93,16.74,46.66,16.71,46.59,16.88
	C46.57,16.92,46.66,16.72,46.59,16.88z"/>
<path class="st1" d="M46.99,15.5c-0.27,0.14-0.11,0.23,0,0.44C47.1,15.73,47.27,15.64,46.99,15.5L46.99,15.5z"/>
<path class="st1" d="M46.38,16.33c0.09,0.1,0.61,0.22,0.61,0.22s1.12-0.24,0.49-0.51C47.33,15.97,46.1,16.02,46.38,16.33z"/>
<path class="st5" d="M41.2,27.69c0.04-0.15,0.36-0.77,0.26-0.85c-0.28-0.24-0.55-0.47-0.83-0.71c-0.34-0.29-1.16-1.31-1.6-1.37
	c-0.26,0.05-1.16,0.58-0.77,0.94c0.44,0.4,0.44,0.34,0.05,0.78c-0.41,0.47-0.04,1.58-0.8,0.81c-0.46,0.49-1.05,1.16-0.35,1.71
	c0.37,0.29,0.75,0.58,1.12,0.88c0.06,0.05,0.39-0.26,0.46-0.31c0.12-0.09,0.04-0.42,0.03-0.57c0.14,0.08,0.29,0.16,0.43,0.24
	c-0.39,0.51-0.53,1.03-0.02,1.47c0.11,0.1,0.6,0.67,0.75,0.66c0.19-0.01,0.65-0.57,0.79-0.7c0.13-0.12,0.54-0.35,0.49-0.54
	c-0.07-0.26-0.13-0.51-0.14-0.78C41.04,28.79,41.07,28.23,41.2,27.69C41.23,27.55,41.15,27.89,41.2,27.69z"/>
<path class="st5" d="M51.16,35.09c-0.64-0.8-1.51-1.38-2.12-2.22c-0.31,0.29-0.32,0.47-0.65,0.17c-0.23-0.21-0.46-0.42-0.7-0.63
	c-0.43-0.38-0.86-0.77-1.29-1.15c-1.27-1.12-2.54-2.25-3.8-3.37c-0.06,0.14-0.59,1.21-0.46,1.32c0.17,0.15,0.34,0.29,0.51,0.44
	c0.74,0.64,1.48,1.29,2.22,1.93c0.96,0.83,1.9,1.67,2.8,2.56c-0.11,0.06-0.17,0.2-0.28,0.26c0.85,0.57,1.47,1.43,2.32,1.99
	C50.79,37.1,52.06,36.22,51.16,35.09C50.82,34.67,51.5,35.51,51.16,35.09z"/>
<path class="st5" d="M54.23,35.67c-4.09,0-4.09,6.34,0,6.34C58.32,42.01,58.31,35.67,54.23,35.67z M54.81,36.37
	c-0.23,0.12-0.4,0.31-0.54,0.54c-0.12-0.24-0.31-0.39-0.54-0.54C54.07,36.22,54.46,36.26,54.81,36.37z M51.76,39.33
	c-0.11-0.34-0.15-0.74,0-1.07c0.14,0.22,0.29,0.42,0.54,0.54C52.07,38.92,51.88,39.1,51.76,39.33z M53.63,41.29
	c0.22-0.14,0.42-0.29,0.54-0.54c0.13,0.22,0.3,0.42,0.54,0.54C54.36,41.4,53.97,41.44,53.63,41.29z M55.36,40.94
	c-0.56,0-1.15-0.57-0.83-1.06c0.33-0.5-0.66-0.8-0.66-0.19c0,0.31,0.23,0.18,0.12,0.55c-0.09,0.33-0.36,0.59-0.69,0.68
	c-0.62,0.17-1.25-0.31-1.25-0.96c0-0.6,0.61-1.17,1.11-0.83c0.51,0.35,0.82-0.65,0.2-0.65c-0.38,0-0.16,0.34-0.59,0.21
	c-0.32-0.1-0.58-0.36-0.67-0.69c-0.17-0.62,0.31-1.25,0.96-1.25c0.55,0,1.16,0.57,0.86,1.08c-0.3,0.5,0.67,0.77,0.67,0.17
	c0-0.33-0.26-0.17-0.13-0.55c0.1-0.31,0.36-0.55,0.67-0.64c0.62-0.16,1.24,0.32,1.24,0.96c0,0.61-0.61,1.17-1.07,0.79
	c-0.49-0.4-0.86,0.64-0.22,0.64c0.37,0,0.17-0.31,0.58-0.19c0.32,0.1,0.57,0.36,0.66,0.68C56.48,40.31,56,40.94,55.36,40.94z
	 M56.19,38.88c0.24-0.12,0.39-0.31,0.54-0.54c0.15,0.34,0.11,0.73,0,1.07C56.61,39.18,56.41,39.01,56.19,38.88z"/>
<path class="st1" d="M39.04,24.57c-0.18-0.6-1.11-0.12-1.53-0.58c0.18-0.34-0.2-0.72-0.53-0.52c-0.41,0.24-0.1,0.86,0.34,0.7
	c0.5,0.44,0.19,0.74,0.3,1.18c0.06,0.24,0.29,0.39,0.53,0.33c0.15-0.04,0.11-0.3,0.18-0.44C38.46,24.93,39.12,24.84,39.04,24.57
	C39.01,24.47,39.05,24.63,39.04,24.57z"/>
<path class="st1" d="M51.51,35.81c0.01,0.25-0.13,0.47-0.29,0.64c-0.06,0.07-0.57,0.28-0.58,0.3c-0.23,0.46,0.31,0.84,0.73,0.66
	c0.11-0.05,0.83-0.97,0.84-1.1C52.28,35.76,51.96,35.8,51.51,35.81C51.52,36.01,51.51,35.81,51.51,35.81z"/>
<path class="st1" d="M56.67,35.85c0.56,0,0.56,0.86,0,0.86C56.11,36.71,56.11,35.85,56.67,35.85
	C56.91,35.85,56.43,35.85,56.67,35.85z"/>
<path class="st1" d="M56.82,40.85c0.56,0,0.56,0.86,0,0.86C56.26,41.71,56.26,40.85,56.82,40.85
	C57.05,40.85,56.58,40.85,56.82,40.85z"/>
<path class="st1" d="M51.96,41.13c0.56,0,0.56,0.86,0,0.86C51.41,42,51.41,41.13,51.96,41.13C52.2,41.13,51.72,41.13,51.96,41.13z"
	/>
<path class="st1" d="M57.11,27.95c-0.21-0.22-0.42-0.44-0.62-0.66c-0.39,0.39-0.55,0.42-0.57-0.18c-0.01-0.5-0.28-0.65-0.62-1.01
	c0.26-0.23,0.55-0.34,0.44-0.72c-0.05-0.17-0.53-0.83-0.78-0.62c-0.43,0.37-0.87,0.74-1.3,1.11c-0.23,0.19-1.09,0.7-1.16,1
	c-0.05,0.18,0.3,0.78,0.34,0.99c0.04,0.21,0.07,0.39,0.08,0.6c0.04,0.49-0.04,0.94-0.05,1.42c-0.01,0.29-0.18,0.28,0.06,0.48
	c0.3,0.26,0.59,0.53,0.89,0.79c0.45,0.4,0.73-0.19,1.13-0.55c0.43-0.38,0.15-0.98-0.15-1.36c0.14-0.08,0.29-0.16,0.43-0.24
	c-0.02,0.45-0.06,0.5,0.3,0.76c0.29,0.21,0.47-0.1,0.73-0.31c0.28-0.22,0.56-0.44,0.84-0.66C57.2,28.71,57.11,28.1,57.11,27.95
	L57.11,27.95z"/>
<path class="st1" d="M51.72,28.73c-0.1-0.28-0.21-0.56-0.33-0.84c-1.23,1.09-2.46,2.18-3.69,3.27c-0.42,0.37-0.84,0.75-1.26,1.12
	c-0.24,0.21-0.47,0.43-0.71,0.64c-0.42,0.38-0.37,0.33-0.77-0.05c-0.57,0.8-3.2,2.46-2.18,3.58c1.02,1.11,3.05-1.55,3.81-2.05
	c-0.11-0.05-0.17-0.2-0.28-0.26c0.82-0.81,1.66-1.57,2.53-2.32c0.72-0.62,1.43-1.24,2.15-1.86C51.51,29.51,51.95,29.41,51.72,28.73
	C51.64,28.5,51.77,28.89,51.72,28.73z"/>
<path class="st1" d="M39.77,35.67c-4.09,0-4.09,6.34,0,6.34C43.86,42.01,43.86,35.67,39.77,35.67z M40.26,36.37
	c-0.22,0.14-0.42,0.29-0.54,0.54c-0.13-0.22-0.3-0.42-0.54-0.54C39.53,36.26,39.93,36.22,40.26,36.37z M37.28,39.42
	c-0.11-0.34-0.15-0.74,0-1.07c0.14,0.22,0.29,0.42,0.54,0.54C37.59,39.01,37.39,39.18,37.28,39.42z M39.3,41.29
	c0.23-0.12,0.4-0.32,0.54-0.54c0.12,0.24,0.31,0.39,0.54,0.54C40.03,41.44,39.64,41.4,39.3,41.29z M40.96,40.96
	c-0.56,0-1.17-0.58-0.87-1.1c0.29-0.5-0.67-0.76-0.67-0.17c0,0.34,0.28,0.17,0.15,0.57c-0.1,0.32-0.36,0.57-0.68,0.65
	c-0.62,0.17-1.24-0.32-1.24-0.96c0-0.58,0.59-1.16,1.07-0.82c0.5,0.36,0.82-0.65,0.2-0.65c-0.4,0-0.15,0.37-0.59,0.23
	c-0.32-0.1-0.58-0.36-0.66-0.68c-0.17-0.62,0.32-1.25,0.96-1.25c0.54,0,1.14,0.55,0.84,1.04c-0.31,0.5,0.66,0.78,0.66,0.18
	c0-0.32-0.24-0.17-0.13-0.55c0.1-0.32,0.36-0.58,0.68-0.67c0.62-0.17,1.25,0.32,1.25,0.96c0,0.6-0.61,1.17-1.09,0.81
	c-0.5-0.38-0.84,0.64-0.21,0.64c0.36,0,0.18-0.3,0.59-0.19c0.33,0.09,0.6,0.36,0.69,0.69C42.08,40.32,41.6,40.96,40.96,40.96z
	 M41.71,38.79c0.24-0.12,0.39-0.31,0.54-0.54c0.15,0.34,0.11,0.73,0,1.07C42.12,39.1,41.93,38.92,41.71,38.79z"/>
<path class="st5" d="M56.82,23.42c-0.38,0-0.47,1.19-1.11,0.85c-0.31-0.16-0.78,0.01-0.76,0.41c0.01,0.1,0.71,0.41,0.79,0.75
	c0.09,0.37,0.53,0.35,0.64-0.08c0.08-0.3-0.17-0.34-0.03-0.6c0.14-0.25,0.2-0.56,0.46-0.56C57.33,24.2,57.33,23.42,56.82,23.42
	C56.61,23.42,57.04,23.42,56.82,23.42z"/>
<path class="st5" d="M42.49,35.81c-0.01,0.25,0.13,0.47,0.29,0.64c0.06,0.07,0.57,0.28,0.58,0.3c0.23,0.46-0.31,0.84-0.73,0.66
	c-0.11-0.05-0.83-0.97-0.84-1.1C41.72,35.76,42.04,35.8,42.49,35.81C42.48,36.01,42.49,35.81,42.49,35.81z"/>
<path class="st5" d="M37.33,35.85c-0.56,0-0.56,0.86,0,0.86C37.89,36.71,37.89,35.85,37.33,35.85z"/>
<path class="st5" d="M37.18,40.85c-0.56,0-0.56,0.86,0,0.86C37.74,41.71,37.74,40.85,37.18,40.85z"/>
<path class="st5" d="M42.04,41.13c-0.56,0-0.56,0.86,0,0.86C42.59,42,42.59,41.13,42.04,41.13C41.8,41.13,42.27,41.13,42.04,41.13z"
	/>
<path class="st1" d="M47.71,46.08c-0.49-0.13-0.89-0.04-0.71-0.62C47.39,44.19,47.91,46.1,47.71,46.08L47.71,46.08z"/>
<path class="st1" d="M47.34,44.46c0.41,0,0.41,0.63,0,0.63S46.93,44.46,47.34,44.46C47.51,44.46,47.16,44.46,47.34,44.46z"/>
<path class="st1" d="M46.61,44.84c0.41,0,0.41,0.63,0,0.63S46.21,44.84,46.61,44.84C46.79,44.84,46.44,44.84,46.61,44.84z"/>
<path class="st1" d="M47,46.17c-0.42-0.01-0.97,0.17-0.77-0.42C46.57,44.79,47.09,46.17,47,46.17C47,46.17,47.02,46.17,47,46.17z"/>
<path class="st6" d="M46.91,31.91c-0.03,0.02-0.05,0.04-0.06,0.07c-0.04,0.12,0.07,0.23,0.21,0.29c-0.11,0-0.21,0.04-0.23,0.13
	c-0.03,0.14,0.13,0.24,0.29,0.27c-0.1,0.01-0.17,0.04-0.19,0.13c-0.06,0.27,0.57,0.4,0.62,0.14c0.03-0.13-0.14-0.23-0.3-0.26
	c0.1-0.01,0.19-0.05,0.2-0.14c0.02-0.1-0.08-0.18-0.2-0.23c0.09,0,0.17-0.03,0.19-0.11c0.04-0.11-0.08-0.22-0.22-0.28
	c0.1-0.03,0.17-0.09,0.17-0.18c0-0.25-0.64-0.26-0.64-0.01C46.77,31.82,46.83,31.88,46.91,31.91z"/>
<path class="st6" d="M45.27,33.19c0.04,0,0.08-0.04,0.11-0.08c-0.07,0.14-0.07,0.31,0.06,0.34c0.23,0.05,0.44-0.48,0.19-0.54
	c-0.08-0.02-0.15,0.05-0.21,0.13c0.07-0.17,0.04-0.44-0.13-0.43C45.05,32.64,45.02,33.21,45.27,33.19z"/>
<path class="st6" d="M45.72,33.79c0.27,0.07,0.52-0.6,0.22-0.67C45.66,33.06,45.43,33.72,45.72,33.79z"/>
<path class="st6" d="M48.19,33.15c-0.19,0.16,0.17,0.56,0.35,0.4c0.09-0.08,0.05-0.22-0.04-0.32c0.07,0.04,0.15,0.06,0.21,0
	c0.19-0.16-0.17-0.56-0.35-0.4c-0.09,0.08-0.05,0.22,0.04,0.32C48.33,33.12,48.25,33.1,48.19,33.15z"/>
<path class="st6" d="M43.32,39.84c0.15-0.01,0.21-0.21,0.19-0.39c0.03,0.05,0.08,0.08,0.14,0.08c0.15,0,0.21-0.2,0.19-0.38
	c0.03,0.06,0.09,0.1,0.15,0.1c0.15-0.01,0.22-0.23,0.19-0.41c0.03,0.04,0.07,0.07,0.13,0.07c0.16-0.01,0.22-0.24,0.19-0.43
	c0.03,0.03,0.07,0.06,0.12,0.06c0.18-0.01,0.24-0.31,0.17-0.5c0.03,0.04,0.07,0.07,0.13,0.06c0.18-0.01,0.23-0.3,0.17-0.49
	c0.02,0.01,0.05,0.02,0.08,0.02c0.17-0.01,0.23-0.27,0.18-0.46c0.04,0.04,0.09,0.06,0.15,0.05c0.15-0.03,0.17-0.25,0.11-0.43
	c0.04,0.03,0.08,0.05,0.13,0.04c0.17-0.04,0.17-0.33,0.09-0.5c0.06,0.06,0.13,0.1,0.2,0.07c0.14-0.06,0.13-0.28,0.04-0.45
	c0.06,0.07,0.14,0.12,0.22,0.08c0.14-0.06,0.13-0.29,0.04-0.45c0.02,0.02,0.05,0.03,0.07,0.04c0.06,0.2,0.33,0.42,0.48,0.29
	c0.12-0.11,0-0.35-0.16-0.46c0.06,0.01,0.11,0.01,0.16-0.03c0.1-0.1,0.02-0.29-0.1-0.41c0,0,0,0,0-0.01
	c0.07,0.03,0.15,0.04,0.2-0.02c0.09-0.09,0.04-0.24-0.06-0.36c0,0,0,0.01,0.01,0.01c0.15,0.09,0.36-0.12,0.4-0.3
	c0.01,0.05,0.02,0.09,0.06,0.12c0.02,0.02,0.05,0.02,0.07,0.02c-0.19-0.01-0.47,0.27-0.37,0.44c0.04,0.07,0.12,0.07,0.2,0.05
	c-0.12,0.1-0.2,0.25-0.13,0.35c0.04,0.06,0.11,0.07,0.19,0.05c-0.15,0.09-0.28,0.27-0.2,0.39c0.05,0.07,0.13,0.07,0.21,0.04
	c-0.16,0.08-0.3,0.28-0.22,0.4c0.03,0.05,0.08,0.06,0.13,0.06c-0.12,0.1-0.2,0.25-0.14,0.35c0.05,0.08,0.15,0.08,0.25,0.03
	c-0.16,0.08-0.31,0.28-0.22,0.41c0.03,0.05,0.08,0.06,0.13,0.06c-0.13,0.1-0.23,0.26-0.16,0.37c0.04,0.05,0.09,0.07,0.15,0.06
	c-0.16,0.09-0.3,0.28-0.22,0.4c0.06,0.08,0.16,0.08,0.27,0.03c-0.18,0.1-0.34,0.36-0.21,0.49c0.2,0.19,0.64-0.3,0.44-0.49
	c-0.05-0.05-0.12-0.05-0.19-0.02c0.17-0.09,0.31-0.28,0.22-0.41c-0.04-0.06-0.11-0.07-0.19-0.06c0.15-0.09,0.29-0.27,0.2-0.39
	c-0.03-0.05-0.08-0.06-0.13-0.06c0.13-0.09,0.23-0.25,0.16-0.36c-0.05-0.08-0.15-0.08-0.25-0.03c0.16-0.08,0.31-0.28,0.23-0.41
	c-0.03-0.05-0.08-0.06-0.13-0.06c0.12-0.1,0.2-0.25,0.13-0.35c-0.05-0.07-0.13-0.07-0.21-0.04c0.16-0.08,0.3-0.27,0.22-0.4
	c-0.04-0.06-0.11-0.07-0.19-0.05c0.11-0.07,0.21-0.18,0.22-0.29c0.04,0.18,0.12,0.31,0.24,0.19c-0.1,0.19-0.07,0.52,0.12,0.53
	c0.03,0,0.06-0.01,0.08-0.02c-0.1,0.19-0.08,0.53,0.12,0.54c0.03,0,0.06-0.01,0.09-0.03c-0.06,0.19-0.02,0.46,0.15,0.47
	c0.03,0,0.06-0.01,0.09-0.02c-0.08,0.19-0.05,0.5,0.13,0.51c0.04,0,0.07-0.01,0.1-0.03c-0.05,0.19-0.01,0.44,0.16,0.45
	c0.05,0,0.08-0.02,0.12-0.05c-0.05,0.19-0.01,0.44,0.16,0.45c0.04,0,0.08-0.02,0.11-0.04c-0.07,0.19-0.03,0.47,0.15,0.48
	c0.06,0,0.11-0.03,0.15-0.08c-0.03,0.18,0.01,0.39,0.17,0.4c0.06,0,0.12-0.03,0.15-0.09c-0.06,0.19-0.02,0.46,0.15,0.47
	c0.08,0,0.13-0.05,0.17-0.12c-0.06,0.19-0.01,0.45,0.16,0.46c0.03,0,0.05-0.01,0.07-0.02c-0.02,0.12,0,0.23,0.09,0.27
	c0.11,0.04,0.22-0.05,0.29-0.18c-0.01,0.04-0.01,0.08,0,0.11c0-0.02-0.01-0.03,0,0.01c0.02,0.09,0.01,0.04,0,0
	c0.04,0.13,0.25,0.24,0.37,0.27c-0.05-0.23-0.11-0.45-0.16-0.68c-0.06,0-0.11,0.05-0.14,0.12c0.02-0.12,0-0.22-0.1-0.26
	c-0.07-0.03-0.14,0-0.2,0.06c0.02-0.17-0.03-0.35-0.17-0.36c-0.08,0-0.13,0.05-0.17,0.12c0.06-0.19,0.01-0.45-0.16-0.46
	c-0.07,0-0.12,0.03-0.16,0.09c0.06-0.19,0.02-0.46-0.15-0.47c-0.06,0-0.11,0.03-0.15,0.08c0.03-0.18-0.01-0.39-0.17-0.4
	c-0.04,0-0.08,0.02-0.11,0.04c0.07-0.19,0.03-0.47-0.14-0.48c-0.05,0-0.09,0.02-0.12,0.05c0.05-0.19,0.01-0.44-0.16-0.45
	c-0.04,0-0.07,0.01-0.1,0.03c0.05-0.19,0.01-0.44-0.16-0.45c-0.03,0-0.06,0.01-0.09,0.02c0.08-0.19,0.05-0.5-0.13-0.51
	c-0.04,0-0.07,0.01-0.09,0.03c0.06-0.19,0.02-0.46-0.15-0.47c-0.03,0-0.06,0.01-0.08,0.02c0.1-0.19,0.08-0.53-0.12-0.54
	c-0.03,0-0.06,0.01-0.09,0.02c0.18-0.27-0.13-0.37-0.38-0.55c0,0.04,0,0.21,0.03,0.37c0,0,0,0,0,0c0,0,0,0,0,0c0,0.01,0,0.01,0,0.02
	c0-0.01,0-0.02-0.01-0.02c-0.04-0.07-0.12-0.07-0.2-0.05c0.12-0.1,0.2-0.24,0.13-0.35c-0.02-0.04-0.06-0.05-0.09-0.06
	c0.14-0.01,0.29-0.24,0.28-0.41c0.14,0.07,0.33,0.07,0.37-0.07c-0.01,0.03-0.01,0.05,0,0c0.01-0.05,0.01-0.03,0,0
	c0.01-0.05-0.01-0.1-0.04-0.14c0.05,0.01,0.11,0.01,0.15-0.03c-0.02,0.02-0.04,0.03,0,0c0.04-0.03,0.02-0.02,0,0
	c0.18-0.16-0.17-0.56-0.35-0.4c-0.1,0.08-0.05,0.23,0.05,0.33c-0.13-0.04-0.29-0.03-0.33,0.1c0,0.02,0.01,0.03,0.01,0.05
	c-0.14-0.02-0.29,0.19-0.31,0.36c-0.01-0.04-0.02-0.09-0.06-0.12c-0.08-0.04-0.17-0.01-0.24,0.05c0.01-0.06,0-0.12-0.01-0.17
	c0.01,0.02,0.03,0.04,0.06,0.06c0.22,0.13,0.57-0.35,0.33-0.48C47.2,33.48,46.92,33.82,47,34c-0.03-0.09-0.09-0.16-0.19-0.15
	c-0.05,0-0.08,0.03-0.11,0.07c0.01-0.16-0.05-0.34-0.2-0.32c-0.03,0-0.06,0.02-0.08,0.04c-0.02-0.15-0.09-0.27-0.22-0.25
	c-0.28,0.04-0.27,0.74,0.03,0.7c0.04-0.01,0.08-0.03,0.11-0.07c0.03,0.1,0.09,0.17,0.19,0.16c0.05,0,0.08-0.03,0.11-0.07
	c-0.01,0.16,0.05,0.34,0.2,0.32c0.01,0,0.01-0.01,0.02-0.01c-0.01,0.05-0.01,0.09,0.01,0.13c-0.11-0.1-0.24-0.16-0.33-0.07
	c-0.07,0.06-0.06,0.16-0.01,0.25c-0.07-0.03-0.15-0.03-0.2,0.02c-0.08,0.08-0.05,0.21,0.03,0.32c-0.07-0.03-0.15-0.04-0.21,0.01
	c-0.08,0.08-0.05,0.2,0.02,0.31c-0.03-0.01-0.06-0.01-0.1,0c-0.14,0.06-0.13,0.28-0.04,0.45c-0.06-0.07-0.14-0.12-0.22-0.08
	c-0.15,0.06-0.13,0.29-0.04,0.46c-0.04-0.04-0.09-0.07-0.15-0.05c-0.15,0.03-0.17,0.25-0.12,0.43c-0.04-0.03-0.08-0.05-0.13-0.04
	c-0.15,0.03-0.17,0.25-0.12,0.42c-0.03-0.02-0.06-0.03-0.09-0.03c-0.18,0.01-0.23,0.3-0.17,0.49c-0.02-0.01-0.05-0.02-0.08-0.02
	c-0.18,0.01-0.24,0.31-0.17,0.5c-0.03-0.04-0.07-0.07-0.13-0.06c-0.16,0-0.22,0.24-0.19,0.43c-0.03-0.03-0.07-0.06-0.12-0.06
	c-0.16,0-0.22,0.23-0.19,0.41c-0.03-0.04-0.07-0.07-0.13-0.06c-0.15,0-0.21,0.2-0.19,0.38c-0.03-0.06-0.08-0.1-0.15-0.1
	c-0.15,0.01-0.21,0.21-0.19,0.38c-0.03-0.05-0.08-0.08-0.14-0.08C43.05,39.19,43.05,39.85,43.32,39.84z"/>
<path class="st6" d="M42.93,39.33C42.65,40.44,43.43,39.63,42.93,39.33L42.93,39.33z"/>
<path class="st6" d="M49.77,41.52c-0.02,0.05-0.01,0.1,0.01,0.15c-0.15-0.07-0.38-0.07-0.48-0.01c-0.02,0.05-0.01,0.11,0.02,0.16
	c-0.15-0.12-0.37-0.18-0.44-0.04c-0.03,0.05-0.02,0.11,0.01,0.16c-0.14-0.15-0.41-0.24-0.5-0.08c-0.02,0.04-0.02,0.07-0.01,0.11
	c-0.13-0.12-0.32-0.2-0.41-0.08c-0.05,0.06-0.04,0.14,0.01,0.22c-0.12-0.14-0.32-0.24-0.43-0.15c-0.04-0.04-0.1-0.04-0.15-0.03
	c0.17-0.11,0.31-0.35,0.18-0.47c-0.2-0.19-0.64,0.3-0.44,0.49c0.02,0.02,0.04,0.03,0.06,0.03c-0.05,0-0.1,0.01-0.13,0.05
	c-0.02,0.02-0.03,0.05-0.03,0.08c-0.05-0.08-0.12-0.13-0.19-0.15c-0.06-0.2-0.33-0.42-0.47-0.29c-0.06,0.05-0.06,0.13-0.03,0.21
	c-0.02,0-0.05,0-0.07,0.02c-0.05,0.03-0.07,0.09-0.08,0.15c-0.08-0.17-0.23-0.31-0.36-0.23c-0.05,0.03-0.06,0.08-0.07,0.13
	c-0.07-0.18-0.24-0.33-0.37-0.25c-0.05,0.03-0.07,0.08-0.07,0.13c-0.08-0.16-0.23-0.3-0.36-0.22c-0.06,0.04-0.08,0.1-0.08,0.17
	c-0.09-0.13-0.26-0.23-0.36-0.23c-0.23,0.14,0.1,0.71,0.33,0.57c0.06-0.04,0.08-0.08,0.09-0.13c0.08,0.15,0.23,0.27,0.35,0.19
	c0.05-0.03,0.07-0.08,0.07-0.14c0.08,0.16,0.23,0.3,0.36,0.23c0.04-0.03,0.06-0.08,0.07-0.13c0.07,0.17,0.24,0.33,0.37,0.25
	c0.05-0.03,0.07-0.09,0.07-0.15c0.02,0.05,0.05,0.1,0.09,0.14c0.04,0.21,0.33,0.46,0.48,0.32c0.05-0.05,0.06-0.11,0.04-0.18
	c0.07,0.05,0.14,0.07,0.2,0.03c0.03-0.02,0.05-0.05,0.06-0.08c0.04,0.03,0.09,0.04,0.14,0.02c-0.14,0.12-0.23,0.32-0.13,0.43
	c0.04,0.04,0.09,0.04,0.15,0.03c-0.15,0.12-0.27,0.34-0.15,0.45c0.2,0.19,0.64-0.3,0.44-0.49c-0.04-0.04-0.09-0.04-0.15-0.03
	c0.15-0.12,0.26-0.33,0.15-0.44c0,0,0,0,0,0c0.06,0.06,0.01,0.01,0,0c0.02-0.04,0.02-0.08,0.01-0.13c0.13,0.13,0.33,0.22,0.43,0.1
	c0.05-0.06,0.03-0.14-0.01-0.22c0.13,0.15,0.36,0.26,0.46,0.13c0.04-0.05,0.04-0.1,0.02-0.16c0.15,0.13,0.38,0.19,0.46,0.05
	c0.03-0.05,0.02-0.11-0.01-0.16c0.14,0.15,0.41,0.24,0.5,0.08c0.03-0.06,0.02-0.13-0.02-0.19c0.16,0.11,0.4,0.16,0.47,0.01
	c0.02-0.05,0.02-0.1,0.01-0.14c0.16,0.11,0.39,0.14,0.45,0C50.47,41.56,49.88,41.27,49.77,41.52z M47.27,41.99c0,0-0.01,0-0.02-0.01
	c0.01,0,0.02,0,0.03,0C47.29,41.98,47.28,41.99,47.27,41.99z"/>
<path class="st6" d="M50.7,41.23c-0.02,0.05,0,0.11,0.03,0.16c-0.16-0.12-0.44-0.17-0.5,0c-0.1,0.25,0.52,0.5,0.61,0.25
	c0.02-0.05,0-0.11-0.03-0.15c0.16,0.12,0.44,0.17,0.5,0C51.4,41.22,50.79,40.97,50.7,41.23z"/>
<path class="st6" d="M51.15,41.04c-0.1,0.25,0.52,0.5,0.61,0.25C51.86,41.03,51.25,40.78,51.15,41.04z"/>
<path class="st6" d="M51.64,40.84c-0.1,0.25,0.52,0.5,0.61,0.25C52.34,40.83,51.73,40.58,51.64,40.84z"/>
<path class="st6" d="M52.79,40.54c0.09-0.25-0.52-0.5-0.61-0.25c-0.04,0.11,0.05,0.22,0.18,0.28c-0.1-0.01-0.2,0.01-0.23,0.1
	c-0.09,0.25,0.52,0.5,0.61,0.25c0.04-0.11-0.05-0.22-0.18-0.28C52.67,40.65,52.76,40.63,52.79,40.54z"/>
<path class="st6" d="M52.06,39.8c0,0.12-0.02,0.27,0.02,0.38C52.57,40.3,52.42,39.88,52.06,39.8z"/>
<path class="st6" d="M44.05,41.43c-0.06,0.04-0.08,0.1-0.08,0.17c-0.07-0.17-0.23-0.32-0.36-0.24c-0.04,0.03-0.06,0.07-0.07,0.13
	c-0.05-0.2-0.24-0.41-0.39-0.31c-0.02,0.01-0.03,0.03-0.04,0.05c-0.03-0.17-0.13-0.34-0.27-0.31c-0.08,0.02-0.12,0.1-0.13,0.2
	c-0.01-0.19-0.12-0.39-0.28-0.35c-0.06,0.01-0.09,0.06-0.12,0.12c-0.01-0.09-0.04-0.16-0.12-0.18c-0.09-0.03-0.18,0.04-0.24,0.13
	c0.02-0.13-0.01-0.26-0.12-0.29c-0.03-0.01-0.05,0-0.07,0c0.04-0.11,0.05-0.22,0.02-0.3c0.14-0.15,0.22-0.42,0.07-0.5
	c-0.21-0.11-0.48,0.33-0.38,0.52c-0.13,0.16-0.18,0.45-0.01,0.51c0.04,0.01,0.07,0.01,0.1,0c-0.06,0.17-0.05,0.37,0.09,0.4
	c0.09,0.02,0.17-0.04,0.22-0.13c-0.02,0.13,0.01,0.25,0.11,0.28c0.13,0.04,0.25-0.11,0.3-0.28c0.01,0.19,0.12,0.39,0.28,0.35
	c0.08-0.02,0.12-0.1,0.13-0.2c0.01,0.19,0.13,0.4,0.28,0.36c0.06-0.01,0.09-0.06,0.11-0.12c0.06,0.19,0.24,0.39,0.39,0.3
	c0.04-0.03,0.06-0.07,0.07-0.12c0.05,0.2,0.24,0.41,0.39,0.31c0.06-0.04,0.08-0.1,0.08-0.17c0.08,0.17,0.24,0.32,0.37,0.24
	C44.61,41.86,44.29,41.29,44.05,41.43z"/>
<path class="st6" d="M46.72,36.44c0.06,0.02,0.12,0.01,0.16-0.03c0.19-0.18-0.25-0.68-0.44-0.49c-0.13,0.12,0.01,0.37,0.18,0.47
	c-0.06-0.01-0.12-0.01-0.16,0.03c-0.2,0.19,0.25,0.67,0.44,0.49C47.02,36.8,46.88,36.55,46.72,36.44z"/>
<path class="st6" d="M46.88,38.75c0.1-0.1,0.03-0.28-0.09-0.4c0.01-0.01,0.02-0.01,0.03-0.02c0.1-0.09,0.03-0.27-0.08-0.39
	c0.05,0.01,0.1,0,0.14-0.03c0.13-0.13-0.03-0.39-0.21-0.49c0.05,0.01,0.11,0.01,0.15-0.03c0.19-0.18-0.24-0.68-0.44-0.49
	c-0.13,0.13,0.03,0.39,0.21,0.49c-0.05-0.01-0.11-0.01-0.15,0.03c-0.1,0.09-0.03,0.27,0.08,0.39c-0.05-0.01-0.1,0-0.14,0.03
	c-0.1,0.1-0.03,0.28,0.09,0.4c-0.01,0.01-0.02,0.01-0.03,0.02c-0.12,0.12,0.01,0.35,0.17,0.47c-0.06-0.02-0.12-0.01-0.17,0.03
	c-0.2,0.19,0.25,0.68,0.44,0.49c0.12-0.12-0.01-0.36-0.17-0.47C46.77,38.8,46.83,38.79,46.88,38.75z"/>
<path class="st6" d="M46.87,40.71c0.12-0.12-0.01-0.35-0.17-0.47c0.06,0.01,0.11,0.01,0.15-0.03c0.11-0.1,0.01-0.31-0.13-0.43
	c0.04,0,0.09,0,0.12-0.04c0.19-0.18-0.24-0.68-0.44-0.49c-0.11,0.11-0.01,0.31,0.13,0.43c-0.04,0-0.09,0-0.12,0.04
	c-0.12,0.12,0,0.35,0.16,0.47c-0.06-0.01-0.11-0.01-0.15,0.03c-0.12,0.11,0,0.33,0.15,0.45c-0.05-0.01-0.11-0.01-0.15,0.03
	c-0.12,0.11,0,0.34,0.15,0.45c-0.06-0.02-0.12-0.01-0.17,0.03c-0.2,0.19,0.25,0.67,0.44,0.49c0.12-0.11,0-0.34-0.15-0.45
	c0.06,0.02,0.12,0.01,0.17-0.03c0.12-0.11,0-0.33-0.15-0.45C46.77,40.75,46.83,40.75,46.87,40.71z"/>
<path class="st6" d="M46.81,43.26c0.19-0.18-0.24-0.68-0.44-0.49C46.17,42.96,46.61,43.45,46.81,43.26z"/>
<path class="st6" d="M46.81,44.26c0.12-0.11,0-0.33-0.15-0.45c0.05,0.01,0.11,0.01,0.15-0.03c0.19-0.18-0.24-0.68-0.44-0.49
	c-0.12,0.11,0,0.33,0.15,0.45c-0.05-0.01-0.11-0.01-0.15,0.03C46.17,43.96,46.62,44.45,46.81,44.26z"/>
<path class="st6" d="M46.8,44.81c0.19-0.18-0.24-0.68-0.44-0.49C46.16,44.51,46.6,45,46.8,44.81z"/>
<path class="st6" d="M47.13,38.93c0.05,0.04,0.11,0.05,0.17,0.03c-0.16,0.12-0.28,0.35-0.16,0.46c0.2,0.19,0.64-0.3,0.44-0.49
	c-0.05-0.04-0.1-0.05-0.17-0.03c0.16-0.12,0.28-0.34,0.16-0.46C47.38,38.26,46.94,38.75,47.13,38.93z"/>
<path class="st6" d="M47.58,39.96c-0.05-0.05-0.11-0.05-0.18-0.03c0.16-0.12,0.28-0.35,0.16-0.46c-0.2-0.19-0.63,0.3-0.44,0.49
	C47.17,40,47.24,40,47.3,39.98c-0.16,0.12-0.28,0.35-0.16,0.46c0.04,0.04,0.1,0.04,0.15,0.03c-0.16,0.11-0.29,0.35-0.17,0.47
	c0.06,0.05,0.14,0.05,0.21,0.01c-0.18,0.1-0.33,0.36-0.2,0.49c0.2,0.19,0.64-0.3,0.44-0.49c-0.05-0.05-0.11-0.05-0.18-0.03
	c0.16-0.11,0.3-0.35,0.17-0.47c-0.04-0.04-0.1-0.05-0.15-0.03C47.58,40.31,47.71,40.07,47.58,39.96z"/>
<path class="st6" d="M47.13,43.92c0.2,0.19,0.64-0.3,0.44-0.49C47.37,43.24,46.93,43.74,47.13,43.92z"/>
<path class="st6" d="M47.13,44.44c0.2,0.19,0.64-0.3,0.44-0.49C47.37,43.76,46.93,44.25,47.13,44.44z"/>
<path class="st6" d="M47.4,45.86c-0.22-0.01-0.41,0.09-0.53,0.27c-0.18-0.09-0.35-0.11-0.54-0.03c-0.34,0.14-0.46,0.55-0.51,0.88
	c-0.07,0.51-0.16,1.24,0.39,1.44c0.26,0.1,0.99,0.14,1.08-0.22c0.12-0.5,0.62-0.06,0.71-0.52C48.1,47.16,48.19,45.9,47.4,45.86z"/>
<linearGradient id="SVGID_1_" gradientUnits="userSpaceOnUse" x1="32.0005" y1="62" x2="32.0005" y2="2">
	<stop  offset="0" style="stop-color:#1A1A1A"/>
	<stop  offset="0.102" style="stop-color:#393939;stop-opacity:0.949"/>
	<stop  offset="0.3475" style="stop-color:#7F7F7F;stop-opacity:0.8262"/>
	<stop  offset="0.5688" style="stop-color:#B6B6B6;stop-opacity:0.7156"/>
	<stop  offset="0.7582" style="stop-color:#DEDEDE;stop-opacity:0.6209"/>
	<stop  offset="0.9081" style="stop-color:#F6F6F6;stop-opacity:0.5459"/>
	<stop  offset="1" style="stop-color:#FFFFFF;stop-opacity:0.5"/>
</linearGradient>
<circle class="st7" cx="32" cy="32" r="30"/>
</svg>
