<?xml version="1.0" encoding="utf-8"?>
<!-- Generator: Adobe Illustrator 24.1.2, SVG Export Plug-In . SVG Version: 6.00 Build 0)  -->
<svg version="1.1" id="Layer_1" xmlns="http://www.w3.org/2000/svg" xmlns:xlink="http://www.w3.org/1999/xlink" x="0px" y="0px"
	 width="64px" height="64px" viewBox="0 0 64 64" style="enable-background:new 0 0 64 64;" xml:space="preserve">
<style type="text/css">
	.st0{fill:#E81C27;}
	.st1{fill:#0065B3;}
	.st2{fill:#FFFFFF;}
</style>
<polygon class="st0" points="57,33.73 7,2 7,62 57,62 23.05,33.73 "/>
<path class="st1" d="M9,5.64l41.12,26.1H23.05h-5.53l4.25,3.54L51.47,60H9V5.64 M7,2v60h50L23.05,33.73H57L7,2L7,2z"/>
<path class="st2" d="M22.87,24.21c0.28-0.54,0.45-1.15,0.45-1.8c0-2.21-1.79-4-4-4c-2.21,0-4,1.79-4,4c0,0.65,0.17,1.26,0.45,1.8
	c-1.95-0.76-3.45-1.8-3.45-1.8s1.5,6,7,6c5.62,0,7-6,7-6S24.81,23.46,22.87,24.21z"/>
<polygon class="st2" points="19.32,44.35 20.92,42.79 21.53,44.95 23.71,44.4 23.16,46.57 25.32,47.18 23.75,48.79 25.32,50.4 
	23.16,51.01 23.71,53.18 21.53,52.63 20.92,54.79 19.32,53.22 17.71,54.79 17.1,52.63 14.92,53.18 15.47,51.01 13.32,50.4 
	14.88,48.79 13.32,47.18 15.47,46.57 14.92,44.4 17.1,44.95 17.71,42.79 "/>
</svg>
