<?xml version="1.0" encoding="utf-8"?>
<!-- Generator: Adobe Illustrator 24.1.2, SVG Export Plug-In . SVG Version: 6.00 Build 0)  -->
<svg version="1.1" id="Layer_1" xmlns="http://www.w3.org/2000/svg" xmlns:xlink="http://www.w3.org/1999/xlink" x="0px" y="0px"
	 width="64px" height="64px" viewBox="0 0 64 64" style="enable-background:new 0 0 64 64;" xml:space="preserve">
<style type="text/css">
	.st0{fill:#0072CE;}
	.st1{fill:#FCFCFC;}
	.st2{fill:#C8A400;}
	.st3{fill:#17C0EB;enable-background:new    ;}
	.st4{fill:#FF0000;}
	.st5{fill:#FF6600;}
	.st6{fill:#FFFF00;}
	.st7{fill:#00FF00;}
	.st8{fill:#00CCFF;}
	.st9{fill:#0000FF;}
	.st10{fill:#800080;}
	.st11{fill:#510000;}
	.st12{fill:url(#SVGID_1_);}
	.st13{fill:#FF2A2A;}
	.st14{fill:url(#SVGID_2_);}
	.st15{fill:#910000;}
	.st16{fill:#FF3A3A;}
	.st17{fill:none;}
	.st18{fill:url(#h_1_);}
	.st19{fill:#BFDC34;}
	.st20{fill:#9ECB34;}
	.st21{opacity:0.1;fill:url(#SVGID_3_);}
</style>
<path class="st0" d="M32,2C18.94,2,7.83,10.35,3.71,22h56.57C56.17,10.35,45.06,2,32,2z"/>
<path class="st0" d="M32,62c13.06,0,24.17-8.35,28.29-20H3.71C7.83,53.65,18.94,62,32,62z"/>
<path class="st1" d="M3.71,22C2.61,25.13,2,28.49,2,32s0.61,6.87,1.71,10h56.57C61.39,38.87,62,35.51,62,32s-0.61-6.87-1.71-10H3.71
	z"/>
<path class="st2" d="M23,31.93L24,32c0-0.05,0.01-0.1,0.01-0.15l-0.39-0.03c0.01-0.16,0.02-0.32,0.03-0.48
	c0.14-0.1,0.28-0.2,0.42-0.3l0.01-0.18l-0.44,0.32c-0.01-0.1-0.07-0.21-0.18-0.25c-0.09-0.03-0.2-0.04-0.28,0.03
	c-0.1,0.07-0.12,0.21-0.13,0.32C23.03,31.5,23.02,31.72,23,31.93L23,31.93z M23.15,31.8c0.01-0.16,0.02-0.33,0.04-0.49
	c0.01-0.08,0.03-0.17,0.1-0.23c0.06-0.04,0.16-0.01,0.18,0.06c0.05,0.12,0.03,0.26,0.02,0.39l-0.02,0.28
	C23.37,31.81,23.26,31.8,23.15,31.8L23.15,31.8z M23.13,30.4l0.97,0.23l0.22-0.95l-0.14-0.03L24,30.45l-0.3-0.07l0.17-0.73
	l-0.14-0.03l-0.17,0.73l-0.26-0.06l0.18-0.78l-0.14-0.03L23.13,30.4L23.13,30.4z M23.48,29.09l0.94,0.33l0.05-0.14l-0.37-0.13
	c0.05-0.14,0.1-0.28,0.15-0.43c0.03-0.12,0.06-0.25-0.01-0.36c-0.06-0.08-0.16-0.13-0.25-0.13c-0.11,0-0.2,0.09-0.25,0.18
	c-0.07,0.13-0.11,0.28-0.16,0.42L23.48,29.09z M23.66,29c0.05-0.14,0.1-0.29,0.15-0.43c0.04-0.07,0.08-0.16,0.16-0.19
	c0.07-0.02,0.14,0.04,0.15,0.11c0.02,0.13-0.04,0.26-0.08,0.38l-0.08,0.22L23.66,29z M24,27.88c0.18,0.1,0.36,0.21,0.53,0.31
	c0.1,0.05,0.23,0.09,0.33,0.02c0.14-0.08,0.23-0.23,0.3-0.37c0.06-0.12,0.1-0.27,0.03-0.4c-0.08-0.12-0.22-0.18-0.33-0.25L24.52,27
	l-0.07,0.13c0.17,0.1,0.34,0.2,0.51,0.3c0.08,0.05,0.15,0.14,0.13,0.24c-0.02,0.12-0.08,0.22-0.15,0.32
	c-0.06,0.08-0.15,0.14-0.25,0.12c-0.1-0.02-0.19-0.09-0.28-0.14l-0.34-0.2L24,27.88z M24.72,26.71l0.79,0.61
	c0.12-0.16,0.25-0.32,0.37-0.48c0.07-0.1,0.14-0.23,0.09-0.36c-0.04-0.1-0.15-0.18-0.26-0.18c-0.05-0.01-0.12,0.03-0.14,0.05
	c0.03-0.11-0.06-0.21-0.16-0.23c-0.12-0.04-0.24,0.03-0.32,0.12c-0.09,0.1-0.17,0.21-0.25,0.32L24.72,26.71L24.72,26.71z
	 M24.92,26.68c0.09-0.12,0.18-0.24,0.28-0.36c0.04-0.05,0.12-0.11,0.19-0.07c0.06,0.03,0.08,0.11,0.05,0.17
	c-0.05,0.1-0.13,0.19-0.2,0.28l-0.11,0.14L24.92,26.68z M25.25,26.92c0.1-0.12,0.19-0.25,0.29-0.37c0.05-0.05,0.12-0.12,0.2-0.11
	c0.07,0.02,0.12,0.09,0.1,0.16c-0.04,0.13-0.14,0.23-0.22,0.34l-0.12,0.16L25.25,26.92L25.25,26.92z M25.62,25.65l0.69,0.73
	l0.59-0.56l-0.1-0.1l-0.47,0.44l-0.01,0.01l-0.01-0.01l-0.58-0.61L25.62,25.65z M26.5,24.88l0.61,0.79l0.12-0.09l-0.61-0.79
	L26.5,24.88z M27.4,24.27c-0.1,0.06-0.18,0.13-0.24,0.22c-0.06,0.08-0.09,0.17-0.1,0.26c0,0.09,0.02,0.18,0.07,0.27
	c0.05,0.08,0.12,0.14,0.2,0.18c0.08,0.04,0.17,0.06,0.27,0.05c0.1-0.01,0.2-0.05,0.33-0.13c0.12-0.07,0.2-0.16,0.25-0.25
	c0.05-0.09,0.06-0.19,0.04-0.29l-0.14,0.05c0.04,0.2-0.09,0.3-0.24,0.39c-0.23,0.14-0.45,0.13-0.58-0.08
	c-0.14-0.23,0.01-0.43,0.21-0.55c0.14-0.08,0.27-0.14,0.4-0.06l0.11-0.1c-0.08-0.05-0.16-0.08-0.26-0.07
	C27.62,24.16,27.51,24.2,27.4,24.27z M28.58,23.68l-0.1,1.12l0.16-0.06l0.03-0.35l0,0l0.5-0.2l0.26,0.23l0.16-0.06l-0.85-0.73
	L28.58,23.68L28.58,23.68z M28.72,23.79l0.33,0.29l-0.37,0.15L28.72,23.79L28.72,23.79z M30.77,23.06l0.06,1
	c0.18-0.01,0.36-0.02,0.54-0.04c0.14-0.02,0.29-0.05,0.39-0.17c0.13-0.14,0.14-0.35,0.09-0.52c-0.05-0.15-0.18-0.27-0.34-0.3
	c-0.15-0.03-0.31-0.01-0.46,0L30.77,23.06L30.77,23.06z M30.93,23.19c0.14-0.01,0.29-0.02,0.43-0.02c0.08,0,0.16,0.02,0.23,0.07
	c0.1,0.07,0.16,0.19,0.15,0.31c-0.01,0.14-0.11,0.27-0.25,0.3c-0.08,0.02-0.16,0.03-0.24,0.03l-0.28,0.02L30.93,23.19L30.93,23.19z
	 M32.17,23l-0.06,1l0.97,0.06l0.01-0.14c-0.28-0.02-0.55-0.03-0.83-0.05c0-0.1,0.01-0.2,0.02-0.3l0.75,0.04l0.01-0.14
	c-0.25-0.01-0.5-0.03-0.74-0.04l0.01-0.27c0.27,0.02,0.53,0.03,0.8,0.05l0.01-0.14L32.17,23L32.17,23z M34.78,23.42l-0.36,0.93
	l0.13,0.05l0.29-0.74l0.01-0.04l0.02,0.04l0.34,0.99l0.17,0.06l0.36-0.93l-0.13-0.05l-0.29,0.74l-0.01,0.04l-0.02-0.04l-0.35-0.99
	L34.78,23.42z M36.12,23.99l-0.45,0.89l-0.13-0.07l0.46-0.89L36.12,23.99z M36.88,24.44c-0.1-0.06-0.2-0.11-0.3-0.13
	c-0.1-0.02-0.19-0.01-0.28,0.02c-0.08,0.03-0.16,0.09-0.21,0.18c-0.05,0.08-0.08,0.17-0.08,0.26c-0.01,0.09,0.02,0.18,0.07,0.26
	c0.05,0.08,0.13,0.16,0.25,0.24c0.11,0.08,0.22,0.12,0.33,0.12c0.1,0.01,0.2-0.02,0.29-0.09l-0.11-0.1
	c-0.17,0.12-0.31,0.04-0.45-0.05c-0.22-0.15-0.3-0.35-0.17-0.56c0.15-0.22,0.39-0.17,0.58-0.04c0.13,0.09,0.24,0.19,0.22,0.34
	l0.13,0.06c0.02-0.09,0-0.18-0.04-0.26C37.06,24.59,36.99,24.51,36.88,24.44L36.88,24.44z M37.83,25.15l-1.04,0.42l0.13,0.11
	l0.32-0.13v0l0.41,0.36l-0.08,0.34l0.13,0.11l0.27-1.09L37.83,25.15L37.83,25.15z M37.79,25.33l-0.1,0.43l-0.3-0.26L37.79,25.33
	L37.79,25.33z M38.58,25.85l-0.77,0.64l0.09,0.11l0.3-0.25c0.1,0.12,0.2,0.25,0.31,0.37c-0.03,0.17-0.06,0.34-0.1,0.5l0.12,0.14
	l0.1-0.53c0.09,0.07,0.21,0.11,0.32,0.05c0.09-0.04,0.17-0.12,0.17-0.23c0.01-0.14-0.09-0.25-0.17-0.35
	C38.83,26.15,38.71,26,38.58,25.85z M38.57,26.05c0.11,0.13,0.22,0.26,0.32,0.4c0.05,0.07,0.11,0.17,0.05,0.25
	c-0.04,0.07-0.14,0.06-0.2,0.02c-0.12-0.08-0.2-0.21-0.3-0.32l-0.12-0.15L38.57,26.05L38.57,26.05z M39.75,27.44l-1.13,0.05
	l0.08,0.15l0.35-0.02v0l0.27,0.47l-0.19,0.29l0.08,0.15l0.61-0.95L39.75,27.44z M39.66,27.59l-0.24,0.37l-0.2-0.35L39.66,27.59
	L39.66,27.59z M40.39,28.76c-0.06-0.17-0.16-0.34-0.33-0.43c-0.19-0.09-0.43-0.05-0.56,0.12c-0.12,0.14-0.12,0.33-0.09,0.5
	c0.04,0.19,0.12,0.37,0.26,0.52l-0.08,0.03l0.05,0.13l0.47-0.17l-0.18-0.51l-0.11,0.04l0.13,0.37l-0.16,0.06
	c-0.14-0.12-0.22-0.3-0.26-0.47c-0.03-0.13-0.03-0.29,0.07-0.4c0.12-0.12,0.32-0.16,0.46-0.05c0.14,0.1,0.21,0.26,0.25,0.42
	c0.03,0.11,0.02,0.23-0.06,0.31c-0.02,0.02,0.01,0.04,0.02,0.06l0.04,0.06c0.08-0.07,0.13-0.17,0.13-0.28
	C40.45,28.97,40.43,28.86,40.39,28.76L40.39,28.76z M40.68,29.54l-0.56,0.11c-0.1,0.02-0.18,0.05-0.23,0.1
	c-0.05,0.04-0.08,0.11-0.1,0.19c-0.02,0.08-0.01,0.18,0.01,0.3c0,0,0,0,0,0c0.02,0.12,0.06,0.21,0.1,0.28
	c0.05,0.07,0.1,0.11,0.16,0.14c0.06,0.02,0.15,0.02,0.25,0l0.56-0.11l-0.03-0.14l-0.55,0.11c-0.25,0.05-0.33-0.08-0.37-0.3v0
	c-0.04-0.22-0.02-0.37,0.23-0.42l0.55-0.11L40.68,29.54L40.68,29.54z M40.99,31.25l-1.04-0.44l0.01,0.17l0.32,0.14v0l0.04,0.54
	l-0.3,0.18L40.04,32L41,31.41L40.99,31.25L40.99,31.25z M40.84,31.34l-0.38,0.23l-0.03-0.4L40.84,31.34L40.84,31.34z M23.78,33.83
	l-0.15,0.04l0.16,0.61l0.14-0.04L23.78,33.83z M40.23,33.83l0.14,0.04l-0.16,0.61l-0.14-0.04L40.23,33.83z M25.32,36.4l-1.12,0.13
	l0.09,0.14l0.35-0.04l0,0l0.3,0.45l-0.17,0.31l0.09,0.14l0.54-0.99L25.32,36.4z M25.24,36.56l-0.21,0.38l-0.22-0.33L25.24,36.56z
	 M25.75,37.01l-0.71,0.67l0.09,0.1l0.6-0.56l-0.32,0.87l0.11,0.12l0.86-0.26l-0.59,0.55l0.09,0.1l0.71-0.67l-0.15-0.15l-0.87,0.26
	l0.33-0.85L25.75,37.01z M26.79,38.07l-0.6,0.8l0.78,0.59l0.08-0.11l-0.66-0.5l0.18-0.24l0.6,0.45l0.08-0.11l-0.6-0.45l0.16-0.22
	l0.64,0.48l0.09-0.11L26.79,38.07z M27.77,38.78l-0.47,0.88c0.04,0.02,0.09,0.05,0.13,0.07l0.19-0.35c0.14,0.07,0.28,0.15,0.43,0.23
	c0.03,0.17,0.07,0.34,0.1,0.5l0.16,0.09l-0.11-0.53c0.11,0.03,0.24,0.02,0.31-0.07c0.06-0.07,0.11-0.17,0.08-0.26
	c-0.04-0.13-0.16-0.2-0.27-0.26C28.13,38.98,27.95,38.88,27.77,38.78z M27.83,38.98c0.15,0.08,0.31,0.16,0.45,0.25
	c0.07,0.05,0.16,0.11,0.15,0.2c-0.01,0.08-0.1,0.13-0.17,0.11c-0.15-0.02-0.27-0.11-0.4-0.18l-0.18-0.1L27.83,38.98L27.83,38.98z
	 M28.9,39.38l-0.38,0.93l0.14,0.06l0.38-0.93L28.9,39.38z M29.8,39.69c-0.11-0.04-0.22-0.05-0.32-0.05
	c-0.1,0.01-0.19,0.04-0.26,0.09c-0.07,0.06-0.13,0.13-0.16,0.23c-0.03,0.09-0.03,0.18-0.01,0.27c0.02,0.09,0.06,0.17,0.13,0.24
	c0.07,0.07,0.17,0.12,0.31,0.17c0.13,0.04,0.25,0.05,0.35,0.03c0.1-0.02,0.19-0.07,0.25-0.16l-0.13-0.07
	c-0.13,0.16-0.29,0.12-0.45,0.07c-0.25-0.09-0.38-0.26-0.31-0.5c0.09-0.26,0.34-0.26,0.55-0.19c0.15,0.05,0.28,0.12,0.3,0.27
	l0.14,0.02c-0.01-0.09-0.04-0.17-0.11-0.24C30.02,39.79,29.92,39.73,29.8,39.69L29.8,39.69z M30.8,39.91l-0.65,0.92l0.17,0.02
	l0.2-0.28h0l0.54,0.08l0.11,0.33L31.34,41l-0.37-1.06L30.8,39.91z M30.86,40.08l0.14,0.42l-0.4-0.06L30.86,40.08L30.86,40.08z
	 M33.15,39.92c-0.11,0.02-0.21,0.06-0.3,0.12c-0.09,0.06-0.15,0.13-0.19,0.21c-0.04,0.08-0.05,0.17-0.03,0.27
	c0.02,0.09,0.06,0.17,0.12,0.24c0.06,0.07,0.14,0.12,0.23,0.14c0.09,0.02,0.21,0.02,0.35,0c0.13-0.03,0.24-0.07,0.32-0.15
	c0.08-0.07,0.13-0.16,0.14-0.26l-0.15,0c-0.04,0.2-0.19,0.24-0.36,0.28c-0.26,0.05-0.46-0.04-0.51-0.28
	c-0.05-0.27,0.16-0.39,0.39-0.44c0.16-0.03,0.3-0.04,0.39,0.09l0.14-0.05c-0.05-0.07-0.12-0.13-0.21-0.16
	C33.39,39.9,33.28,39.89,33.15,39.92L33.15,39.92z M33.81,39.8l0.29,0.96l0.93-0.28l-0.04-0.14l-0.79,0.24l-0.09-0.29l0.71-0.21
	l-0.04-0.14l-0.71,0.21L34,39.9l0.76-0.23l-0.04-0.14L33.81,39.8z M34.9,39.46l0.42,0.91l0.13-0.06l-0.35-0.76
	c0.32,0.15,0.65,0.3,0.97,0.45c0.02,0.02,0.04,0.01,0.06-0.01l0.13-0.06l-0.42-0.91l-0.13,0.06l0.35,0.76
	c-0.33-0.15-0.66-0.31-0.99-0.46L34.9,39.46L34.9,39.46z M36,38.95l0.08,0.12l0.36-0.24l0.01-0.01l0.01,0.01l0.46,0.71l0.12-0.08
	l-0.46-0.71l-0.01-0.01l0.01-0.01l0.36-0.24l-0.08-0.12L36,38.95z M37,38.26l0.68,0.74l0.11-0.1l-0.27-0.29
	c0.12-0.11,0.24-0.22,0.35-0.33c0.17,0.02,0.34,0.05,0.51,0.07l0.14-0.13l-0.54-0.07c0.07-0.09,0.09-0.22,0.03-0.32
	c-0.05-0.09-0.13-0.16-0.23-0.16c-0.14,0-0.25,0.1-0.34,0.19C37.29,37.99,37.15,38.12,37,38.26L37,38.26z M37.2,38.26
	c0.13-0.12,0.25-0.24,0.38-0.35c0.07-0.05,0.16-0.12,0.25-0.07c0.07,0.04,0.07,0.14,0.03,0.2c-0.08,0.13-0.2,0.21-0.3,0.32
	l-0.14,0.13L37.2,38.26z M38.16,37.09l0.45,1.03l0.11-0.13l-0.14-0.32l0,0l0.34-0.42l0.34,0.07l0.11-0.13l-1.1-0.23L38.16,37.09
	L38.16,37.09z M38.34,37.13l0.43,0.09l-0.25,0.31L38.34,37.13L38.34,37.13z M38.6,36.53l0.84,0.54l0.44-0.68l-0.12-0.08l-0.35,0.54
	l-0.01,0.01l-0.01-0.01l-0.71-0.46L38.6,36.53z"/>
<path class="st3" d="M32,24.68l-3.15,5.45l-1.54,2.67h9.38l-1.47-2.55L32,24.68L32,24.68z"/>
<path class="st4" d="M32,28.62c-1.06,0-2.09,0.38-2.9,1.08l-1.47,2.54c-0.05,0.27-0.08,0.55-0.08,0.83h0.5
	c0-2.17,1.76-3.93,3.93-3.93c2.17,0,3.93,1.76,3.93,3.93h0.5c0-0.28-0.02-0.56-0.08-0.83L34.9,29.7C34.09,29,33.06,28.62,32,28.62z"
	/>
<path class="st5" d="M32,28.7c-1.18,0-2.24,0.47-3.03,1.22l-1.2,2.08c-0.08,0.34-0.13,0.7-0.13,1.05h0.42
	c0-2.17,1.76-3.93,3.93-3.93c2.17,0,3.93,1.76,3.93,3.93h0.42c0-0.36-0.04-0.72-0.13-1.05l-1.2-2.08C34.24,29.17,33.18,28.7,32,28.7
	z"/>
<path class="st6" d="M32,28.78c-1.27,0-2.41,0.55-3.19,1.43l-0.87,1.51c-0.14,0.43-0.21,0.88-0.21,1.34h0.34
	c0-2.17,1.76-3.93,3.93-3.93c2.17,0,3.93,1.76,3.93,3.93h0.34c0-0.47-0.07-0.92-0.21-1.34l-0.87-1.51
	C34.41,29.34,33.27,28.78,32,28.78L32,28.78z"/>
<path class="st7" d="M32,28.86c-1.46,0-2.74,0.74-3.49,1.87l-0.28,0.49c-0.28,0.57-0.43,1.21-0.43,1.85h0.27
	c0-2.17,1.76-3.93,3.93-3.93c2.17,0,3.93,1.76,3.93,3.93h0.27c0-0.64-0.15-1.27-0.43-1.84l-0.29-0.49
	C34.73,29.6,33.45,28.86,32,28.86L32,28.86z"/>
<path class="st8" d="M32,28.94c-2.27,0-4.12,1.84-4.12,4.12h0.18c0-2.17,1.76-3.93,3.93-3.93c2.17,0,3.93,1.76,3.93,3.93h0.18
	C36.12,30.79,34.27,28.94,32,28.94z"/>
<path class="st9" d="M32,29.02c-2.23,0-4.04,1.81-4.04,4.04h0.13c0-2.16,1.75-3.9,3.9-3.9c2.16,0,3.9,1.75,3.9,3.9h0.14
	C36.04,30.83,34.23,29.02,32,29.02z"/>
<path class="st10" d="M32,29.1c-2.19,0-3.96,1.77-3.96,3.96c0,0.02,0,0.05,0,0.07h0.08c0-0.03,0-0.05,0-0.07
	c0-2.14,1.74-3.88,3.88-3.88c2.14,0,3.88,1.74,3.88,3.88c0,0.02,0,0.05,0,0.07h0.08c0-0.02,0-0.05,0-0.07
	C35.96,30.88,34.19,29.1,32,29.1z"/>
<path class="st11" d="M32.04,30.85c-0.06-0.01-0.12-0.05-0.18-0.06c-0.08,0.07-0.08,0.15-0.07,0.21c0.03,0.01,0.03,0.04,0.09,0.09
	c0.06,0.05,0.05,0.08,0.05,0.2c0,0.05,0.01,0.16,0.06,0.17c0.05,0.01,0.09-0.03,0.11-0.12c0.02-0.08,0.04-0.12,0.07-0.17
	C32.19,30.98,32.14,30.91,32.04,30.85z"/>
<path class="st4" d="M31.72,30.39c-0.06,0-0.15,0.1-0.19,0.05c-0.02-0.03-0.03-0.09,0-0.14c0.06-0.12,0.11-0.17,0.22-0.23
	c0.24-0.14,0.39-0.1,0.51,0.11c0.11,0.18,0.21,0.37,0.22,0.54c0,0.05,0.03,0.14-0.02,0.19c-0.13,0.14-0.46-0.14-0.65-0.1
	c-0.06,0.01-0.14,0.06-0.2,0.02c-0.05-0.03-0.01-0.1,0.03-0.13c0.06-0.05,0.15-0.24,0.14-0.32C31.76,30.33,31.76,30.39,31.72,30.39
	L31.72,30.39z"/>
<linearGradient id="SVGID_1_" gradientUnits="userSpaceOnUse" x1="-202.054" y1="314.0334" x2="-201.8653" y2="314.5963" gradientTransform="matrix(1 0 0 -1 234 345)">
	<stop  offset="0" style="stop-color:#510000"/>
	<stop  offset="0.3" style="stop-color:#8A0000"/>
	<stop  offset="1" style="stop-color:#AA0000"/>
</linearGradient>
<path class="st12" d="M31.69,30.29c-0.11,0.04-0.1,0.11-0.15,0.16c0.01,0.01,0.08,0.03,0.14-0.03c0.03-0.02,0.06-0.03,0.07-0.04
	c-0.03,0.02-0.05,0.06-0.07,0.07c-0.04,0.03-0.1,0.11-0.13,0.18c-0.03,0.08-0.04,0.17-0.04,0.18c0.01,0.01,0.04,0.08,0.16,0.12
	c0.2,0.08,0.24,0.24,0.45,0.24c0.16,0,0.13-0.11,0.26-0.08c0.11,0.02,0.17-0.07,0.06-0.12c-0.14-0.05-0.41-0.02-0.54,0
	c-0.04-0.41-0.01-0.27-0.02-0.44c-0.01-0.17-0.06-0.19,0.01-0.33C31.83,30.3,31.77,30.29,31.69,30.29z"/>
<path class="st13" d="M32.09,30.02c0,0.02-0.01,0.05-0.01,0.06c0.01,0.03,0.02,0.07,0.03,0.1c0.01,0.03,0.02,0.06,0.02,0.09
	c0.01,0.04,0.04,0.05,0.07,0.07c0.04,0.03,0.01,0.1,0.03,0.11c0.02,0,0.05-0.11,0.05-0.13c0-0.02,0-0.04,0-0.06
	c-0.01-0.03-0.03-0.06-0.04-0.09c0,0,0,0,0,0c-0.01-0.01-0.01-0.02-0.02-0.03c-0.02-0.03-0.05-0.06-0.08-0.09l-0.01,0
	c-0.01-0.01-0.02-0.01-0.03-0.02C32.11,30.02,32.1,30.02,32.09,30.02L32.09,30.02z"/>
<linearGradient id="SVGID_2_" gradientUnits="userSpaceOnUse" x1="-202.0632" y1="313.9036" x2="-201.9149" y2="314.2961" gradientTransform="matrix(1 0 0 -1 234 345)">
	<stop  offset="0" style="stop-color:#FF2A2A"/>
	<stop  offset="1" style="stop-color:#FF0000"/>
</linearGradient>
<path class="st14" d="M32.13,30.78c-0.07-0.02-0.14-0.05-0.2-0.07c-0.12-0.04-0.25-0.11-0.34-0.08c-0.03,0.01-0.03,0.05-0.04,0.09
	c0,0.05-0.06,0.13-0.01,0.11c0.07-0.04,0.25,0.07,0.31,0.11c0.03,0.02,0.09,0.05,0.11,0.1c0.02,0.05,0.01,0.18,0,0.23
	c-0.01,0.06,0.01,0.18,0.07,0.2c0.06,0.02,0.11-0.03,0.13-0.12c0.02-0.09,0.04-0.14,0.08-0.19c0.04-0.05,0.08-0.08,0.13-0.09
	c0.06-0.01,0.14,0.05,0.14-0.02c0-0.04-0.04-0.09-0.02-0.15c0.01-0.05-0.04-0.04-0.08-0.06C32.29,30.81,32.2,30.8,32.13,30.78
	L32.13,30.78z"/>
<path class="st15" d="M31.84,30.93c-0.03-0.02-0.23-0.15-0.3-0.11c-0.02,0.01-0.03,0-0.03-0.03c0-0.02,0.01-0.06,0.02-0.09
	c0.01-0.03,0.02-0.08,0.05-0.11c0.07-0.06,0.23,0.06,0.31,0.09C31.87,30.73,31.83,30.93,31.84,30.93L31.84,30.93z"/>
<path class="st16" d="M32.18,31.17c0.09-0.16,0.15-0.14,0.26-0.14c0.04,0,0.05-0.03,0.04-0.07c-0.03,0.06-0.17-0.01-0.24,0.03
	c-0.16,0.07-0.13,0.38-0.2,0.41C32.11,31.47,32.15,31.23,32.18,31.17L32.18,31.17z"/>
<polygon class="st9" points="27.38,32.69 25.63,35.71 31.93,35.71 38.37,35.71 36.62,32.69 "/>
<polygon class="st17" points="32,24.67 25.63,35.71 38.37,35.71 "/>
<linearGradient id="h_1_" gradientUnits="userSpaceOnUse" x1="-207.5489" y1="310.7604" x2="-188.5586" y2="310.7604" gradientTransform="matrix(1 0 0 -1 234 345)">
	<stop  offset="0" style="stop-color:#002255"/>
	<stop  offset="0.5" style="stop-color:#0044AA"/>
	<stop  offset="1" style="stop-color:#002255"/>
</linearGradient>
<path id="h_17_" class="st18" d="M26.97,34.17c-0.17,0-0.32,0.02-0.47,0.04l-0.05,0.08c0.24-0.02,0.47-0.06,0.71-0.07
	c0.33,0.01,0.63,0.08,0.98,0.08c0.15,0,0.3,0,0.45,0c0.35,0,0.65-0.08,0.98-0.08c0.33,0.01,0.63,0.08,0.98,0.08
	c0.15,0,0.32,0,0.45,0c0.35,0,0.65-0.08,0.98-0.08c0.33,0.01,0.63,0.08,0.98,0.08c0.15,0,0.3,0,0.45,0c0.35,0,0.65-0.08,0.98-0.08
	c0.33,0.01,0.63,0.08,0.98,0.08c0.15,0,0.3,0,0.45,0c0.35,0,0.65-0.08,0.98-0.08c0.25,0.01,0.49,0.05,0.75,0.07l-0.05-0.09
	c-0.14-0.02-0.28-0.03-0.44-0.03c-0.15,0-0.3,0-0.46,0c-0.35,0-0.65,0.07-0.98,0.08c-0.33-0.01-0.63-0.08-0.98-0.08
	c-0.15,0-0.3,0-0.45,0c-0.35,0-0.65,0.08-0.98,0.08c-0.33-0.01-0.63-0.08-0.98-0.08c-0.15,0-0.3,0-0.46,0
	c-0.35,0-0.65,0.08-0.98,0.08c-0.33-0.01-0.63-0.08-0.98-0.08c-0.15,0-0.3,0-0.45,0c-0.35,0-0.65,0.08-0.98,0.08
	c-0.33-0.01-0.63-0.08-0.98-0.08C27.27,34.17,27.12,34.18,26.97,34.17L26.97,34.17z"/>
<path class="st19" d="M35.06,31.74c-0.17,0-0.22,0.09-0.22,0.09c-0.27,1.06-1.18,2.13-2.26,2.13h-0.81v1.08c0,0,0,0,0,0h6.15
	l-0.62-1.1c-0.97-0.14-1.76-1.14-2.02-2.11C35.29,31.83,35.23,31.74,35.06,31.74L35.06,31.74z"/>
<path class="st20" d="M34.99,31.93c-0.04,0.6-0.23,1.32-0.66,1.78c-0.16,0.13-0.37,0.25-0.56,0.23
	C34.44,33.38,34.85,32.54,34.99,31.93z"/>
<path class="st19" d="M33.53,31.74c-0.17,0-0.22,0.09-0.22,0.09c-0.27,1.06-1.18,2.13-2.26,2.13h-0.81v1.08c0,0,0,0,0,0h6.15
	l-0.62-1.1c-0.97-0.14-1.76-1.14-2.02-2.11C33.75,31.83,33.7,31.74,33.53,31.74L33.53,31.74z"/>
<path class="st20" d="M33.46,31.93c-0.04,0.6-0.23,1.32-0.66,1.78c-0.16,0.13-0.37,0.25-0.56,0.23
	C32.91,33.38,33.32,32.54,33.46,31.93z"/>
<path class="st19" d="M32.22,31.83c0.27,1.06,1.18,2.13,2.26,2.13h0.81v1.08c0,0,0,0,0,0h-6.58c0,0,0,0,0,0v-1.08h0.81
	c1.08,0,1.99-1.08,2.26-2.13c0,0,0.05-0.09,0.22-0.09C32.17,31.74,32.22,31.83,32.22,31.83L32.22,31.83z"/>
<path class="st20" d="M31.93,31.93c-0.04,0.6-0.23,1.32-0.67,1.78c-0.16,0.13-0.37,0.25-0.56,0.23
	C31.38,33.38,31.79,32.54,31.93,31.93z"/>
<path class="st20" d="M32.15,31.93c0.04,0.6,0.22,1.2,0.66,1.66c0.16,0.13,0.37,0.26,0.57,0.23C32.64,33.32,32.29,32.54,32.15,31.93
	L32.15,31.93z"/>
<path class="st19" d="M30.47,31.74c-0.17,0-0.22,0.09-0.22,0.09c-0.25,0.97-1.18,2.23-2.15,2.38l-0.48,0.83h4.9V33.9
	c-0.88-0.24-1.59-1.16-1.82-2.08C30.7,31.83,30.65,31.74,30.47,31.74L30.47,31.74z"/>
<path class="st20" d="M30.34,31.93c-0.06,0.9-0.57,2.04-1.13,2.24c-0.19,0.06-0.51,0.09-0.62,0.1
	C29.58,33.8,30.17,32.69,30.34,31.93z"/>
<path class="st20" d="M30.54,31.93c0.04,0.6,0.23,1.32,0.66,1.78c0.16,0.13,0.37,0.25,0.56,0.23C31.1,33.38,30.68,32.54,30.54,31.93
	z"/>
<path class="st20" d="M30.96,32.76c0.24,0.58,0.84,1.13,1.45,1.5c0.12,0,0.15,0,0.25-0.01C32.23,34.01,31.52,33.68,30.96,32.76z"/>
<path class="st19" d="M28.93,31.74c-0.17,0-0.22,0.09-0.22,0.09c-0.25,0.97-1.18,2.23-2.15,2.38l-0.48,0.83h4.9V33.9
	c-0.88-0.24-1.59-1.16-1.82-2.08C29.16,31.83,29.1,31.74,28.93,31.74L28.93,31.74z"/>
<path class="st20" d="M28.8,31.93c-0.06,0.9-0.57,2.04-1.13,2.24c-0.19,0.06-0.51,0.09-0.62,0.1C28.04,33.8,28.63,32.69,28.8,31.93z
	"/>
<path class="st20" d="M29,31.93c0.04,0.6,0.23,1.32,0.66,1.78c0.16,0.13,0.37,0.25,0.56,0.23C29.55,33.38,29.14,32.54,29,31.93z"/>
<path class="st20" d="M29.42,32.76c0.24,0.58,0.84,1.13,1.45,1.5c0.12,0,0.15,0,0.25-0.01C30.68,34.01,29.97,33.68,29.42,32.76z"/>
<path class="st2" d="M32,24.52l-3.21,5.57l-3.29,5.69l6.43,0l6.57,0l-3.22-5.57L32,24.52z M32,24.83l3.16,5.46l3.08,5.34h-6.31
	h-6.17l3.16-5.46L32,24.83z"/>
<linearGradient id="SVGID_3_" gradientUnits="userSpaceOnUse" x1="32" y1="62" x2="32" y2="2">
	<stop  offset="0" style="stop-color:#1A1A1A"/>
	<stop  offset="0.102" style="stop-color:#393939;stop-opacity:0.949"/>
	<stop  offset="0.3475" style="stop-color:#7F7F7F;stop-opacity:0.8262"/>
	<stop  offset="0.5688" style="stop-color:#B6B6B6;stop-opacity:0.7156"/>
	<stop  offset="0.7582" style="stop-color:#DEDEDE;stop-opacity:0.6209"/>
	<stop  offset="0.9081" style="stop-color:#F6F6F6;stop-opacity:0.5459"/>
	<stop  offset="1" style="stop-color:#FFFFFF;stop-opacity:0.5"/>
</linearGradient>
<circle class="st21" cx="32" cy="32" r="30"/>
</svg>
