<?xml version="1.0" encoding="utf-8"?>
<!-- Generator: Adobe Illustrator 24.1.2, SVG Export Plug-In . SVG Version: 6.00 Build 0)  -->
<svg version="1.1" id="Layer_1" xmlns="http://www.w3.org/2000/svg" xmlns:xlink="http://www.w3.org/1999/xlink" x="0px" y="0px"
	 width="64px" height="64px" viewBox="0 0 64 64" style="enable-background:new 0 0 64 64;" xml:space="preserve">
<style type="text/css">
	.st0{fill:#E81C27;}
	.st1{fill:#FFE000;}
	.st2{opacity:0.1;fill:url(#SVGID_1_);}
</style>
<path class="st0" d="M55.99,13.99l-6.03-6.02c-3.92-2.94-8.59-4.94-13.67-5.67l-8.59,0c-5.08,0.73-9.75,2.73-13.67,5.66l-6.07,6.07
	c-2.94,3.92-4.94,8.59-5.66,13.67v8.58c0.73,5.08,2.73,9.75,5.66,13.67l6.07,6.07c3.92,2.94,8.59,4.93,13.66,5.66l8.59,0
	c5.08-0.73,9.75-2.73,13.67-5.66l6.07-6.07c2.94-3.92,4.94-8.59,5.66-13.67v-8.58C60.96,22.61,58.95,17.92,55.99,13.99z"/>
<path class="st1" d="M21.41,30.47l-19.1-2.76C2.11,29.11,2,30.54,2,32s0.11,2.89,0.31,4.29l19.1-2.76c-0.07-0.5-0.12-1.01-0.12-1.53
	C21.29,31.48,21.34,30.97,21.41,30.47z"/>
<path class="st1" d="M42.59,33.53l19.1,2.76C61.89,34.89,62,33.46,62,32s-0.11-2.89-0.31-4.29l-19.1,2.76
	c0.07,0.5,0.12,1.01,0.12,1.53C42.71,32.52,42.66,33.03,42.59,33.53z"/>
<path class="st1" d="M30.47,42.59l-2.76,19.1C29.11,61.89,30.54,62,32,62c1.46,0,2.89-0.11,4.29-0.31l-2.76-19.1
	c-0.5,0.07-1.01,0.12-1.53,0.12S30.97,42.66,30.47,42.59z"/>
<path class="st1" d="M33.53,21.41l2.76-19.1C34.89,2.11,33.46,2,32,2c-1.46,0-2.89,0.11-4.29,0.31l2.76,19.1
	c0.5-0.07,1.01-0.12,1.53-0.12S33.03,21.34,33.53,21.41z"/>
<path class="st1" d="M23.43,38.41L7.97,49.96c0.85,1.13,1.79,2.22,2.81,3.25c1.03,1.03,2.12,1.97,3.25,2.81l11.55-15.46
	C24.77,39.96,24.04,39.23,23.43,38.41z"/>
<path class="st1" d="M40.57,25.59l15.46-11.55c-0.85-1.13-1.79-2.22-2.81-3.25c-1.03-1.03-2.12-1.97-3.25-2.81L38.41,23.43
	C39.23,24.04,39.96,24.77,40.57,25.59z"/>
<path class="st1" d="M25.59,23.43L14.04,7.97c-1.13,0.85-2.22,1.78-3.25,2.81c-1.03,1.03-1.97,2.12-2.82,3.25l15.46,11.55
	C24.04,24.77,24.77,24.04,25.59,23.43z"/>
<path class="st1" d="M38.41,40.57l11.55,15.46c1.13-0.85,2.22-1.78,3.25-2.81c1.03-1.03,1.96-2.12,2.81-3.25L40.57,38.41
	C39.96,39.23,39.23,39.96,38.41,40.57z"/>
<circle class="st1" cx="32" cy="32" r="8.57"/>
<linearGradient id="SVGID_1_" gradientUnits="userSpaceOnUse" x1="32" y1="62" x2="32" y2="2">
	<stop  offset="0" style="stop-color:#1A1A1A"/>
	<stop  offset="0.102" style="stop-color:#393939;stop-opacity:0.949"/>
	<stop  offset="0.3475" style="stop-color:#7F7F7F;stop-opacity:0.8262"/>
	<stop  offset="0.5688" style="stop-color:#B6B6B6;stop-opacity:0.7156"/>
	<stop  offset="0.7582" style="stop-color:#DEDEDE;stop-opacity:0.6209"/>
	<stop  offset="0.9081" style="stop-color:#F6F6F6;stop-opacity:0.5459"/>
	<stop  offset="1" style="stop-color:#FFFFFF;stop-opacity:0.5"/>
</linearGradient>
<circle class="st2" cx="32" cy="32" r="30"/>
</svg>
