<?xml version="1.0" encoding="utf-8"?>
<!-- Generator: Adobe Illustrator 24.1.2, SVG Export Plug-In . SVG Version: 6.00 Build 0)  -->
<svg version="1.1" id="Layer_1" xmlns="http://www.w3.org/2000/svg" xmlns:xlink="http://www.w3.org/1999/xlink" x="0px" y="0px"
	 width="64px" height="64px" viewBox="0 0 64 64" style="enable-background:new 0 0 64 64;" xml:space="preserve">
<style type="text/css">
	.st0{fill:#A21F46;}
	.st1{fill:#FCFCFC;}
	.st2{opacity:0.1;fill:url(#SVGID_1_);}
</style>
<path class="st0" d="M32,2c-5.27,0-10.21,1.36-14.52,3.75l0,0v52.51l0,0C21.79,60.64,26.73,62,32,62c16.57,0,30-13.43,30-30
	S48.57,2,32,2z"/>
<path class="st1" d="M2,32c0,11.3,6.25,21.14,15.48,26.26L28,56l-10-3l10-3l-10-3l10-3l-10-3l10-3l-10-3l10-3l-10-3l10-3l-10-3l10-3
	l-10-3l10-3l-10-3l10-3L17.48,5.75C8.25,10.86,2,20.7,2,32z"/>
<linearGradient id="SVGID_1_" gradientUnits="userSpaceOnUse" x1="32" y1="62" x2="32" y2="2">
	<stop  offset="0" style="stop-color:#1A1A1A"/>
	<stop  offset="0.102" style="stop-color:#393939;stop-opacity:0.949"/>
	<stop  offset="0.3475" style="stop-color:#7F7F7F;stop-opacity:0.8262"/>
	<stop  offset="0.5688" style="stop-color:#B6B6B6;stop-opacity:0.7156"/>
	<stop  offset="0.7582" style="stop-color:#DEDEDE;stop-opacity:0.6209"/>
	<stop  offset="0.9081" style="stop-color:#F6F6F6;stop-opacity:0.5459"/>
	<stop  offset="1" style="stop-color:#FFFFFF;stop-opacity:0.5"/>
</linearGradient>
<circle class="st2" cx="32" cy="32" r="30"/>
</svg>
