<?xml version="1.0" encoding="utf-8"?>
<!-- Generator: Adobe Illustrator 24.1.2, SVG Export Plug-In . SVG Version: 6.00 Build 0)  -->
<svg version="1.1" id="Layer_1" xmlns="http://www.w3.org/2000/svg" xmlns:xlink="http://www.w3.org/1999/xlink" x="0px" y="0px"
	 width="64px" height="64px" viewBox="0 0 64 64" style="enable-background:new 0 0 64 64;" xml:space="preserve">
<style type="text/css">
	.st0{fill:#0BBED8;}
	.st1{fill:#FFD000;}
	.st2{opacity:0.1;fill:url(#SVGID_1_);}
</style>
<circle class="st0" cx="32" cy="32" r="30"/>
<path class="st1" d="M49.31,28.01c0-4.25-3.45-7.69-7.69-7.69c-4.25,0-7.69,3.44-7.69,7.69c0,4.25,3.44,7.69,7.69,7.69
	C45.87,35.7,49.31,32.26,49.31,28.01z"/>
<path class="st1" d="M41.62,19.27c0.46-0.01,0.63-0.29,0.63-0.63c0-0.46-0.63-2.64-0.63-2.64s-0.63,2.18-0.63,2.64
	C40.99,18.98,41.16,19.27,41.62,19.27z"/>
<path class="st1" d="M50.99,27.38c-0.34,0-0.64,0.17-0.64,0.63c0.01,0.46,0.29,0.63,0.64,0.63c0.46,0,2.63-0.63,2.63-0.63
	S51.45,27.38,50.99,27.38z"/>
<path class="st1" d="M40.99,37.38c0,0.46,0.63,2.63,0.63,2.63s0.63-2.18,0.63-2.63c0-0.34-0.17-0.64-0.63-0.64
	C41.16,36.75,40.99,37.04,40.99,37.38z"/>
<path class="st1" d="M32.88,28.01c0-0.46-0.29-0.63-0.64-0.63c-0.46,0-2.63,0.63-2.63,0.63s2.18,0.63,2.63,0.63
	C32.59,28.64,32.88,28.47,32.88,28.01z"/>
<path class="st1" d="M44.96,19.93c0.43,0.17,0.69-0.03,0.82-0.35c0.17-0.42,0.43-2.67,0.43-2.67s-1.41,1.77-1.59,2.19
	C44.49,19.42,44.54,19.76,44.96,19.93z"/>
<path class="st1" d="M50.52,31.01c-0.32-0.13-0.65-0.08-0.83,0.34c-0.17,0.42,0.03,0.69,0.35,0.82c0.42,0.18,2.67,0.43,2.67,0.43
	S50.94,31.19,50.52,31.01z"/>
<path class="st1" d="M38.28,36.08c-0.42-0.17-0.69,0.03-0.82,0.35c-0.17,0.42-0.43,2.67-0.43,2.67s1.42-1.77,1.59-2.19
	C38.74,36.59,38.7,36.26,38.28,36.08z"/>
<path class="st1" d="M33.55,24.66c0.17-0.42-0.03-0.69-0.35-0.82c-0.42-0.18-2.67-0.43-2.67-0.43s1.77,1.41,2.19,1.59
	C33.04,25.13,33.37,25.09,33.55,24.66z"/>
<path class="st1" d="M47.8,21.83c0.33,0.32,0.65,0.24,0.89,0c0.32-0.32,1.42-2.31,1.42-2.31s-1.99,1.09-2.31,1.42
	C47.56,21.18,47.47,21.51,47.8,21.83z"/>
<path class="st1" d="M48.69,34.19c-0.24-0.24-0.57-0.33-0.89,0c-0.32,0.33-0.24,0.65,0,0.89c0.32,0.32,2.31,1.42,2.31,1.42
	S49.01,34.51,48.69,34.19z"/>
<path class="st1" d="M35.44,34.19c-0.33-0.32-0.65-0.24-0.89,0c-0.32,0.32-1.42,2.31-1.42,2.31s1.98-1.09,2.31-1.42
	C35.68,34.84,35.76,34.51,35.44,34.19z"/>
<path class="st1" d="M35.44,21.83c0.32-0.33,0.24-0.65-0.01-0.89c-0.32-0.32-2.31-1.42-2.31-1.42s1.1,1.98,1.42,2.31
	C34.79,22.07,35.12,22.15,35.44,21.83z"/>
<path class="st1" d="M49.69,24.66c0.18,0.42,0.51,0.47,0.83,0.34c0.42-0.17,2.19-1.59,2.19-1.59s-2.25,0.25-2.67,0.43
	C49.72,23.97,49.52,24.24,49.69,24.66z"/>
<path class="st1" d="M46.21,39.1c0,0-0.25-2.25-0.43-2.67c-0.13-0.32-0.4-0.52-0.82-0.35c-0.42,0.18-0.47,0.51-0.34,0.83
	C44.8,37.33,46.21,39.1,46.21,39.1z"/>
<path class="st1" d="M33.55,31.35c-0.18-0.42-0.51-0.47-0.83-0.34c-0.42,0.18-2.19,1.59-2.19,1.59s2.25-0.25,2.67-0.43
	C33.52,32.04,33.72,31.77,33.55,31.35z"/>
<path class="st1" d="M38.28,19.93c0.42-0.18,0.47-0.51,0.34-0.83c-0.17-0.42-1.59-2.19-1.59-2.19s0.25,2.25,0.43,2.67
	C37.58,19.91,37.85,20.11,38.28,19.93z"/>
<path class="st1" d="M43.32,19.44c0.45,0.08,0.67-0.16,0.74-0.5c0.09-0.45-0.1-2.71-0.1-2.71s-1.04,2.01-1.13,2.46
	C42.76,19.03,42.88,19.35,43.32,19.44z"/>
<path class="st1" d="M50.94,29.22c-0.34-0.07-0.66,0.04-0.75,0.49c-0.08,0.45,0.16,0.67,0.5,0.74c0.45,0.09,2.71-0.1,2.71-0.1
	S51.38,29.31,50.94,29.22z"/>
<path class="st1" d="M39.17,37.08c-0.09,0.45,0.1,2.71,0.1,2.71s1.04-2.01,1.13-2.46c0.07-0.34-0.04-0.66-0.49-0.74
	C39.46,36.5,39.24,36.74,39.17,37.08z"/>
<path class="st1" d="M33.05,26.3c0.08-0.45-0.17-0.67-0.5-0.74c-0.45-0.09-2.71,0.1-2.71,0.1s2.01,1.04,2.46,1.13
	C32.64,26.86,32.96,26.75,33.05,26.3z"/>
<path class="st1" d="M46.47,20.74c0.38,0.25,0.68,0.11,0.88-0.18c0.25-0.38,0.94-2.54,0.94-2.54s-1.73,1.46-1.99,1.84
	C46.11,20.15,46.09,20.49,46.47,20.74z"/>
<path class="st1" d="M49.76,32.69c-0.29-0.19-0.62-0.21-0.88,0.17c-0.25,0.38-0.11,0.68,0.18,0.88c0.38,0.25,2.54,0.94,2.54,0.94
	S50.14,32.95,49.76,32.69z"/>
<path class="st1" d="M36.93,36.15c0.19-0.28,0.21-0.62-0.17-0.88c-0.38-0.25-0.68-0.11-0.88,0.18c-0.25,0.38-0.94,2.54-0.94,2.54
	S36.68,36.53,36.93,36.15z"/>
<path class="st1" d="M33.48,23.32c0.29,0.19,0.62,0.21,0.88-0.17c0.25-0.38,0.11-0.68-0.18-0.88c-0.38-0.25-2.54-0.94-2.54-0.94
	S33.1,23.07,33.48,23.32z"/>
<path class="st1" d="M48.88,23.15c0.26,0.38,0.59,0.36,0.88,0.17c0.38-0.25,1.84-1.99,1.84-1.99s-2.16,0.69-2.54,0.94
	C48.78,22.47,48.63,22.77,48.88,23.15z"/>
<path class="st1" d="M48.29,37.99c0,0-0.69-2.16-0.94-2.54c-0.19-0.29-0.5-0.43-0.88-0.18c-0.38,0.26-0.36,0.59-0.17,0.88
	C46.56,36.53,48.29,37.99,48.29,37.99z"/>
<path class="st1" d="M34.35,32.86c-0.26-0.38-0.59-0.36-0.88-0.17c-0.38,0.25-1.84,1.99-1.84,1.99s2.16-0.69,2.54-0.94
	C34.46,33.55,34.61,33.24,34.35,32.86z"/>
<path class="st1" d="M36.77,20.74c0.38-0.26,0.36-0.59,0.17-0.88c-0.25-0.38-1.99-1.84-1.99-1.84s0.69,2.16,0.94,2.54
	C36.08,20.85,36.38,21,36.77,20.74z"/>
<path class="st1" d="M50.69,25.56c-0.34,0.07-0.59,0.29-0.5,0.74c0.1,0.45,0.41,0.56,0.75,0.49c0.45-0.09,2.46-1.13,2.46-1.13
	S51.14,25.47,50.69,25.56z"/>
<path class="st1" d="M43.32,36.58c-0.45,0.09-0.56,0.41-0.49,0.74c0.09,0.45,1.13,2.46,1.13,2.46s0.19-2.26,0.1-2.71
	C44,36.74,43.77,36.49,43.32,36.58z"/>
<path class="st1" d="M33.05,29.71c-0.1-0.45-0.41-0.56-0.75-0.49c-0.45,0.09-2.46,1.13-2.46,1.13s2.26,0.19,2.71,0.1
	C32.88,30.39,33.14,30.16,33.05,29.71z"/>
<path class="st1" d="M39.92,19.44c0.45-0.1,0.56-0.41,0.49-0.74c-0.09-0.45-1.13-2.46-1.13-2.46s-0.19,2.26-0.1,2.71
	C39.24,19.27,39.47,19.53,39.92,19.44z"/>
<path class="st1" d="M42.08,46.04c0.27,0.01,0.55,0.07,0.81,0.02c0.07-0.02,0.17-0.02,0.21-0.06c-0.12-0.07-0.26-0.07-0.4-0.09H41.6
	c-0.3-0.03-0.62-0.04-0.91-0.15c-0.08-0.03-0.15-0.1-0.22-0.02c-0.11,0.04-0.22,0.06-0.34,0.07c-0.2,0.01-0.4-0.03-0.59-0.1
	c0.13-0.18,0.29-0.35,0.44-0.52c-0.12-0.02-0.23-0.04-0.35-0.07c0.21-0.14,0.4-0.31,0.6-0.46c-0.21,0.01-0.41,0.04-0.6,0.1
	c-0.27,0.04-0.53,0.13-0.79,0.17l-0.11,0.02l-0.18,0.02c0.01,0.05,0.02,0.1,0.02,0.15c0,0.05-0.01,0.1-0.02,0.14
	c-0.01,0.04-0.05,0.09-0.08,0.12c-0.04,0.04-0.08,0.08-0.13,0.1c-0.05,0.02-0.1,0.03-0.15,0.04c-0.05,0-0.1,0-0.15-0.02
	c-0.05-0.02-0.1-0.05-0.14-0.09c-0.05,0.01-0.11,0.02-0.16,0.03c-0.05,0.01-0.1,0.01-0.15,0c-0.05-0.02-0.11-0.03-0.16-0.05
	c-0.05-0.02-0.1-0.05-0.15-0.08c-0.2,0.11-0.41,0.22-0.53,0.42c-0.07,0.09-0.08,0.2-0.09,0.31c-0.01,0.13,0.02,0.27,0.08,0.4
	c0.02,0.04,0.04-0.13,0.1-0.15c0.11-0.09,0.24-0.15,0.38-0.19c0.12-0.06,0.1,0,0.05,0.1c-0.01,0.05-0.08,0.23,0.01,0.14
	c0.39-0.17,0.82-0.21,1.23-0.24c0.61-0.06,1.21-0.08,1.82-0.08C40.93,46.01,41.5,46.02,42.08,46.04z"/>
<path class="st1" d="M47.14,44.75c-0.31,0.03-0.63-0.02-0.59,0.35c-0.06,0.29-0.67,0.19-0.5,0.44c0.19,0.31-0.35,0.51-0.57,0.64
	c-1.38,0.52-2.89,0.19-4.32,0.37c-0.83,0.07-1.83,0.39-2.06,1.29c0.61,0.16,1.12-0.35,1.6-0.64c0.14,0.08-0.09,0.61,0.14,0.79
	c0.47-0.04,0.77-0.55,1.05-0.9c0.23,0.26-0.11,0.66,0.1,0.9c0.54,0.05,0.77-0.59,1.16-0.84c0.26-0.04-0.11,0.57,0.1,0.74
	c0.37,0.16,0.76-0.11,0.88-0.47c0.18-0.51,0.34-0.13,0.41,0.19c0.22,0.36,0.63,0.02,0.79-0.22c0.19-0.49,0.38-0.06,0.63,0.15
	c0.53,0.08,0.7-0.55,1.03-0.83c-0.02,0.31,0.31,0.71,0.59,0.4c0.23-0.21,0.25-0.66,0.5-0.8c0.35,0.13,0.66,0.57,1.08,0.32
	c0.25-0.18,0.21-0.54,0.27-0.81c-0.08-0.52,0.35,0.19,0.64,0.15c0.6,0.21,1.35-0.27,1.25-0.94C49.91,44.98,48.54,44.69,47.14,44.75z
	"/>
<path class="st1" d="M57.82,36.53c-0.55,0.18-1.04,0.81-1.67,0.61c1.24-0.96,2.42-2.06,3.27-3.39c0.04-0.38-0.56-0.43-0.72-0.12
	c-0.8,0.77-1.52,1.68-2.54,2.16c0.98-0.94,1.79-2.06,2.49-3.22c0.15-0.34,0.56-0.76,0.34-1.14c-0.36-0.3-0.8-0.03-0.99,0.33
	c-0.62,0.81-1.09,1.76-1.89,2.42c0.7-1.33,1.42-2.75,1.44-4.29c0-0.32-0.07-0.78-0.49-0.72c-0.34,0.06-0.26,0.57-0.4,0.83
	c-0.31,1.05-0.46,2.19-1.09,3.11c0.14-0.85,0.39-1.74,0.2-2.6c-0.09-0.38-0.71-0.22-0.63,0.16c-0.74,3.76-3.27,7.06-6.57,8.96
	c-1.51,0.86-3.2,1.41-4.92,1.66c-0.46,0.1-0.96,0.04-1.4,0.2c-1.07,0.82-1.72,2.19-3.07,2.63c-0.61,0.3-1.4,0.36-1.84,0.93
	c-0.04,0.07-0.04,0.16-0.04,0.24c0.29,0.27,0.51,0,0.77-0.14c-0.02,0.02-0.04,0.06-0.04,0.09c0,0.07,0.06,0.13,0.13,0.13
	c0.08,0,0.13-0.06,0.13-0.13c0-0.08-0.06-0.14-0.13-0.14c-0.03,0-0.05,0.02-0.07,0.03c0.02-0.01,0.04-0.02,0.06-0.03
	c1.01-0.35,1.89-0.96,2.76-1.56c0.53-0.44,0.98-1,1.69-1.14c1.38-0.42,2.85-0.37,4.23-0.75c1.05-1.45,2.85-1.96,4.35-2.79
	c0.34-0.11,0.47-0.38,0.57-0.69c0.57-0.91,1.35-1.71,2.28-2.25c0.44-0.24,0.96-0.38,1.45-0.27c-0.04,0.59-0.37,1.11-0.78,1.52
	c0.33-0.01,0.62-0.22,0.96-0.21c0.12,0.6-0.54,0.92-0.88,1.3c0.19,0.04,0.93,0.1,0.53,0.29c-0.51,0.36-1.1,0.6-1.58,1.02
	c0.44,0.08,0.49,0.17,0.04,0.33c-0.24,0.16-0.7,0.22-0.75,0.54c0.33,0.2-0.15,0.41-0.34,0.47c-0.36,0.08-0.73,0.24-0.26,0.51
	c-0.18,0.27-0.56,0.33-0.88,0.3c0.09,0.31,0.23,0.65-0.17,0.79c-0.89,0.67-1.94,1.17-3.06,1.28c1.4,0.11,2.85-0.15,4.04-0.91
	c0.16-0.19,0.99-0.39,0.52-0.55c-0.22-0.09-0.69-0.19-0.72-0.36c0.65-0.4,1.47-0.26,2.17-0.5c0.02-0.23-0.53-0.16-0.74-0.21
	c-0.49-0.04-0.46-0.16,0.01-0.21c0.6-0.16,1.27-0.19,1.77-0.58c-0.41-0.19-0.92-0.02-1.36-0.18c0.74-0.32,1.61-0.35,2.27-0.84
	c0.3-0.33-0.39-0.23-0.59-0.22c-0.41,0.07-0.6-0.12-0.13-0.29c0.79-0.58,1.8-0.97,2.35-1.81C58.06,36.9,58.24,36.33,57.82,36.53z"/>
<path class="st1" d="M27.69,35c0.28,0.25,0.18-0.24,0.41-0.3c0.24,0.18,0.5,0.34,0.71,0.56c1.13,0.97,1.79,2.37,2.95,3.31
	c0.54,0.46,1.22,0.69,1.89,0.87c0.74,0.44,1.28,1.14,1.93,1.68c0.63,0.58,1.51,0.65,2.32,0.7c0.98,0.05,2.1,0.02,2.88,0.73
	c0.26-0.32,0.37-0.74,0.57-1.11v0c-0.23-0.01-0.46-0.02-0.68-0.04c-2.51-0.15-4.97-1-7.05-2.42c-2.52-1.74-4.45-4.33-5.31-7.27
	c-0.15-0.43-0.18-0.94-0.35-1.34c-0.21-0.17-0.52-0.08-0.55,0.2c-0.14,0.85,0.07,1.71,0.22,2.55c-0.67-1-0.82-2.22-1.15-3.35
	c-0.11-0.21-0.06-0.64-0.4-0.59c-0.4-0.01-0.42,0.44-0.44,0.74c0.02,1.54,0.75,2.94,1.44,4.28c-0.81-0.68-1.28-1.65-1.93-2.47
	c-0.17-0.28-0.49-0.51-0.82-0.34c-0.33,0.12-0.15,0.51-0.04,0.73c0.62,1.21,1.46,2.29,2.34,3.31c0.07,0.13,0.6,0.49,0.26,0.32
	c-0.95-0.5-1.65-1.36-2.41-2.1c-0.16-0.29-0.75-0.23-0.7,0.14c0.7,1.13,1.67,2.06,2.68,2.92c0.12,0.18,0.61,0.38,0.52,0.5
	c-0.69,0.11-1.15-0.59-1.79-0.68c-0.22,0.05,0.05,0.43,0.15,0.58c0.83,0.88,1.98,1.32,3.07,1.8c-0.38,0.16-0.81,0.03-1.21,0.03
	c-0.16,0.04-0.71-0.16-0.57,0.09c0.58,0.66,1.55,0.44,2.3,0.75c-0.18,0.15-0.43,0.18-0.66,0.22c-0.18,0.08-0.62,0.01-0.65,0.19
	c0.42,0.29,0.97,0.23,1.45,0.36c0.48,0.03,0.27,0.13-0.07,0.21c-0.18,0.08-0.5,0.09-0.59,0.24c0.56,0.35,1.25,0.39,1.89,0.52
	c-0.31,0.13-0.65,0.17-0.94,0.33c0.67,0.25,1.34,0.53,1.99,0.82c1.27,0.56,2.61,0.98,4.01,1.06c-0.48-0.09-0.95-0.23-1.41-0.39
	c-1.16-0.39-2.34-0.8-3.4-1.42c0.24-0.18,0.52-0.29,0.75-0.49c-0.46-0.02-0.92-0.16-1.32-0.38c-0.43-0.15,0.08-0.35,0.24-0.52
	c-0.03-0.16-0.44-0.19-0.63-0.28c-0.29,0.01-0.37-0.35-0.15-0.5c0.33-0.17-0.15-0.26-0.3-0.32c-0.25-0.14,0.05-0.44-0.07-0.6
	c-0.59-0.1-1.08-0.47-1.53-0.84c0.08-0.09,0.51-0.07,0.73-0.1c-0.46-0.33-0.86-0.75-1.17-1.22c0.12-0.09,0.54-0.01,0.77-0.04
	c-0.05-0.58-0.39-1.1-0.74-1.56C27.16,34.88,27.54,34.89,27.69,35z"/>
<path class="st1" d="M11.27,50.74c0.5,0.01,0.88,0.25,0.88,0.72c0,0.51-0.26,0.72-0.58,0.73c-0.32,0.01-0.46-0.21-0.46-0.36
	c0-0.18,0.11-0.22,0.24-0.22c0.28,0,0.17,0.43,0.17,0.43c0.17-0.1,0.28-0.22,0.18-0.43c0.14,0,0.26-0.05,0.34-0.15
	c-0.08-0.09-0.19-0.14-0.34-0.15c0.08-0.23-0.03-0.34-0.22-0.39c0.05,0.1,0.07,0.24,0.03,0.34c-0.07-0.05-0.19-0.08-0.27-0.08
	c-0.26,0-0.52,0.27-0.52,0.64c0,0.49,0.41,0.96,1.09,0.79c-0.23,0.16-0.32,0.33-0.34,0.48c0.15-0.03,0.22-0.06,0.31-0.01
	c-0.12,0.15-0.2,0.33-0.15,0.49c0.09-0.09,0.2-0.11,0.32-0.1c-0.21,0.55,0.16,1.25,0.91,1.32c0,0-0.43-0.66-0.43-1.17
	c0-0.93,0.34-1.27,0.34-2.1c0-0.53-0.31-0.88-0.62-1.04c0.27-0.02,0.38-0.08,0.54-0.3v0c-0.08-0.15-0.23-0.27-0.46-0.33
	c0.35-0.26,0.52-0.63,0.52-0.97c0-0.84-0.34-1.04-0.34-2.24c0-0.37,0.15-0.74,0.44-1.09c-0.8,0.16-1.12,0.86-0.86,1.37
	c-0.17,0.07-0.29-0.04-0.41-0.1c0,0.28,0.11,0.4,0.19,0.54c0,0-0.14-0.01-0.26-0.06c0.02,0.18,0.1,0.34,0.26,0.42
	c-0.69-0.11-1.06,0.33-1.06,0.87c0,0.53,0.47,0.67,0.78,0.59c0.01,0.07,0.01,0.15-0.03,0.24c0.2-0.05,0.29-0.16,0.22-0.38
	c0.12-0.02,0.21-0.08,0.28-0.15c-0.07-0.08-0.17-0.14-0.28-0.17c0.07-0.18-0.05-0.33-0.19-0.36c0,0,0.08,0.39-0.21,0.39
	c-0.12,0-0.2-0.07-0.2-0.24c0-0.24,0.13-0.38,0.47-0.38c0.27,0,0.54,0.23,0.54,0.75c0,0.42-0.42,0.8-0.81,0.79
	c-0.43-0.01-0.83-0.35-0.83-0.77c0-0.27,0.03-0.46,0.1-0.62c0.63-1.31,2.26-4.69,2.26-4.69c0.2-0.42,0.28-0.69,0.28-1.13
	c0-0.72-0.46-1.27-1.32-1.35c0.86-0.07,1.32-0.63,1.32-1.35c0-0.44-0.08-0.71-0.28-1.13c0,0-1.63-3.38-2.26-4.69
	c-0.08-0.16-0.1-0.35-0.1-0.62c0-0.42,0.41-0.76,0.83-0.77c0.39-0.01,0.81,0.36,0.81,0.79c0,0.52-0.27,0.75-0.54,0.75
	c-0.34,0-0.47-0.14-0.47-0.38c0-0.17,0.08-0.24,0.2-0.24c0.29,0,0.21,0.39,0.21,0.39c0.14-0.03,0.26-0.18,0.19-0.36
	c0.11-0.02,0.21-0.08,0.28-0.17c-0.08-0.08-0.17-0.13-0.28-0.15c0.07-0.22-0.02-0.33-0.22-0.38c0.04,0.09,0.04,0.17,0.03,0.24
	c-0.31-0.09-0.78,0.05-0.78,0.59c0,0.53,0.37,0.98,1.06,0.87c-0.16,0.08-0.25,0.24-0.26,0.42c0.13-0.05,0.26-0.06,0.26-0.06
	c-0.08,0.14-0.19,0.27-0.19,0.54c0.13-0.06,0.25-0.17,0.41-0.1c-0.26,0.51,0.06,1.2,0.86,1.37c-0.29-0.35-0.44-0.72-0.44-1.09
	c0-1.2,0.34-1.4,0.34-2.24c0-0.35-0.18-0.72-0.52-0.97c0.23-0.06,0.38-0.18,0.46-0.33c0,0,0,0,0,0c-0.08-0.15-0.23-0.27-0.46-0.33
	c0.35-0.26,0.52-0.63,0.52-0.97c0-0.84-0.34-1.04-0.34-2.24c0-0.37,0.15-0.74,0.44-1.09c-0.8,0.16-1.12,0.86-0.86,1.37
	c-0.17,0.07-0.29-0.04-0.41-0.1c0,0.28,0.11,0.4,0.19,0.54c0,0-0.14-0.01-0.26-0.06c0.02,0.18,0.1,0.34,0.26,0.42
	c-0.69-0.11-1.06,0.33-1.06,0.87c0,0.53,0.47,0.67,0.78,0.59c0.01,0.08,0.01,0.15-0.03,0.24c0.2-0.05,0.29-0.16,0.22-0.38
	c0.12-0.02,0.21-0.08,0.28-0.15c-0.07-0.08-0.17-0.14-0.28-0.17c0.07-0.18-0.05-0.33-0.19-0.36c0,0,0.08,0.39-0.21,0.39
	c-0.12,0-0.2-0.07-0.2-0.24c0-0.24,0.13-0.38,0.47-0.38c0.27,0,0.54,0.23,0.54,0.75c0,0.43-0.42,0.8-0.81,0.79
	c-0.43-0.01-0.83-0.35-0.83-0.77c0-0.27,0.03-0.46,0.1-0.62c0.63-1.31,2.26-4.69,2.26-4.69c0.2-0.42,0.28-0.69,0.28-1.13
	c0-0.72-0.46-1.27-1.32-1.35c0.86-0.07,1.32-0.63,1.32-1.35c0-0.44-0.08-0.71-0.28-1.13c0,0-1.63-3.38-2.26-4.69
	c-0.08-0.16-0.1-0.35-0.1-0.62c0-0.42,0.41-0.76,0.83-0.77c0.39-0.01,0.81,0.36,0.81,0.79c0,0.52-0.27,0.75-0.54,0.75
	c-0.34,0-0.47-0.14-0.47-0.38c0-0.17,0.08-0.24,0.2-0.24c0.29,0,0.21,0.39,0.21,0.39c0.14-0.03,0.26-0.18,0.19-0.36
	c0.11-0.02,0.21-0.08,0.28-0.17c-0.08-0.08-0.17-0.13-0.28-0.15c0.07-0.23-0.02-0.33-0.22-0.38c0.04,0.09,0.04,0.17,0.03,0.24
	c-0.31-0.09-0.78,0.05-0.78,0.59c0,0.53,0.37,0.98,1.06,0.86c-0.16,0.08-0.25,0.24-0.26,0.42c0.13-0.05,0.26-0.06,0.26-0.06
	c-0.08,0.14-0.19,0.26-0.19,0.54c0.13-0.06,0.25-0.17,0.41-0.1c-0.26,0.51,0.06,1.2,0.86,1.37c-0.29-0.35-0.44-0.72-0.44-1.09
	c0-1.2,0.34-1.4,0.34-2.24c0-0.35-0.18-0.72-0.52-0.97c0.23-0.06,0.38-0.18,0.46-0.33c-0.16-0.22-0.27-0.28-0.54-0.3
	c0.3-0.16,0.62-0.5,0.62-1.04c0-0.83-0.34-1.17-0.34-2.1c0-0.52,0.43-1.17,0.43-1.17c-0.75,0.08-1.12,0.77-0.91,1.32
	c-0.12,0.02-0.23-0.01-0.32-0.1c-0.05,0.15,0.03,0.33,0.15,0.48c-0.09,0.05-0.16,0.02-0.31-0.01c0.02,0.16,0.11,0.33,0.34,0.48
	c-0.67-0.17-1.09,0.29-1.09,0.79c0,0.37,0.26,0.64,0.52,0.64c0.08,0,0.2-0.03,0.27-0.08c0.05,0.1,0.02,0.24-0.03,0.34
	c0.19-0.05,0.3-0.16,0.22-0.39c0.14-0.01,0.26-0.06,0.34-0.15c-0.08-0.1-0.2-0.16-0.34-0.15c0.1-0.21-0.01-0.33-0.18-0.43
	c0,0,0.11,0.43-0.17,0.43c-0.12,0-0.24-0.04-0.24-0.22c0-0.16,0.14-0.38,0.46-0.36c0.32,0.01,0.58,0.22,0.58,0.73
	c0,0.47-0.38,0.71-0.88,0.72c-0.45,0.01-0.79-0.23-0.79-0.7c0-0.53,0.65-1.63,0.84-2.29c-0.34,0.32-0.66,0.65-0.98,0.98
	c-0.1,0.23-0.21,0.46-0.29,0.66c-0.03-0.08-0.07-0.16-0.1-0.25c-0.14,0.15-0.28,0.31-0.42,0.47c0.05,0.16,0.09,0.31,0.09,0.42
	c0,0.47-0.34,0.71-0.79,0.7c-0.08,0-0.14-0.02-0.21-0.03c-0.44,0.54-0.85,1.1-1.25,1.67c-0.02,0.08-0.03,0.17-0.03,0.25
	c0,0.84,0.33,1.04,0.33,2.24c0,0.37-0.14,0.74-0.44,1.09c0.8-0.16,1.12-0.86,0.86-1.37c0.16-0.07,0.28,0.04,0.41,0.1
	c0-0.28-0.11-0.4-0.19-0.54c0,0,0.14,0.01,0.27,0.06c-0.02-0.18-0.1-0.34-0.27-0.42c0.69,0.11,1.06-0.33,1.06-0.86
	c0-0.53-0.47-0.67-0.78-0.59c-0.01-0.07-0.01-0.15,0.03-0.24c-0.2,0.05-0.29,0.16-0.22,0.38c-0.12,0.02-0.2,0.08-0.28,0.15
	c0.07,0.08,0.17,0.14,0.28,0.17c-0.07,0.18,0.05,0.33,0.2,0.36c0,0-0.08-0.39,0.21-0.39c0.12,0,0.19,0.07,0.19,0.24
	c0,0.24-0.13,0.38-0.47,0.38c-0.28,0-0.54-0.23-0.54-0.75c0-0.42,0.43-0.8,0.81-0.79c0.43,0.01,0.83,0.35,0.83,0.77
	c0,0.27-0.03,0.46-0.1,0.62c-0.63,1.31-2.26,4.69-2.26,4.69c-0.2,0.42-0.28,0.69-0.28,1.13c0,0.72,0.46,1.27,1.32,1.35
	C7.44,23,6.98,23.55,6.98,24.27c0,0.44,0.08,0.71,0.28,1.13c0,0,1.63,3.38,2.26,4.69c0.08,0.16,0.1,0.35,0.1,0.62
	c0,0.42-0.41,0.76-0.83,0.77c-0.39,0.01-0.81-0.36-0.81-0.79c0-0.52,0.27-0.75,0.54-0.75c0.34,0,0.47,0.14,0.47,0.38
	c0,0.17-0.08,0.24-0.19,0.24c-0.29,0-0.21-0.39-0.21-0.39c-0.14,0.03-0.26,0.18-0.2,0.36c-0.11,0.02-0.21,0.08-0.28,0.17
	c0.08,0.08,0.17,0.13,0.28,0.15c-0.07,0.22,0.02,0.33,0.22,0.38c-0.04-0.09-0.04-0.17-0.03-0.24c0.31,0.09,0.78-0.05,0.78-0.59
	c0-0.53-0.37-0.98-1.06-0.87c0.16-0.08,0.25-0.24,0.27-0.42c-0.13,0.05-0.27,0.06-0.27,0.06c0.08-0.14,0.19-0.27,0.19-0.54
	c-0.13,0.06-0.25,0.17-0.41,0.1c0.26-0.51-0.06-1.2-0.86-1.37c0.29,0.34,0.44,0.72,0.44,1.09c0,1.2-0.33,1.4-0.33,2.24
	c0,0.35,0.18,0.72,0.52,0.97C7.62,31.73,7.47,31.84,7.39,32c0,0,0,0,0,0h0c0.09,0.16,0.23,0.27,0.46,0.33
	c-0.35,0.26-0.52,0.63-0.52,0.97c0,0.84,0.33,1.04,0.33,2.24c0,0.37-0.14,0.74-0.44,1.09c0.8-0.17,1.12-0.86,0.86-1.37
	c0.16-0.07,0.28,0.04,0.41,0.1c0-0.28-0.11-0.4-0.19-0.54c0,0,0.14,0.01,0.27,0.06c-0.02-0.18-0.1-0.34-0.27-0.42
	c0.69,0.11,1.06-0.33,1.06-0.87c0-0.53-0.47-0.67-0.78-0.59c-0.01-0.07-0.01-0.15,0.03-0.24c-0.2,0.05-0.29,0.16-0.22,0.38
	c-0.12,0.02-0.2,0.08-0.28,0.15c0.07,0.08,0.17,0.14,0.28,0.17c-0.07,0.18,0.05,0.33,0.2,0.36c0,0-0.08-0.39,0.21-0.39
	c0.12,0,0.19,0.07,0.19,0.24c0,0.24-0.13,0.38-0.47,0.38c-0.28,0-0.54-0.23-0.54-0.75c0-0.43,0.43-0.8,0.81-0.79
	c0.43,0.01,0.83,0.35,0.83,0.77c0,0.27-0.03,0.46-0.1,0.62c-0.63,1.31-2.26,4.69-2.26,4.69c-0.2,0.42-0.28,0.69-0.28,1.13
	c0,0.72,0.46,1.27,1.32,1.35c-0.86,0.07-1.32,0.63-1.32,1.35c0,0.44,0.08,0.71,0.28,1.13c0,0,1.63,3.38,2.26,4.69
	c0.08,0.16,0.1,0.35,0.1,0.62c0,0.42-0.41,0.76-0.83,0.77c-0.39,0.01-0.81-0.36-0.81-0.79c0-0.52,0.27-0.75,0.54-0.75
	c0.34,0,0.47,0.14,0.47,0.38c0,0.17-0.08,0.24-0.19,0.24c-0.29,0-0.21-0.39-0.21-0.39c-0.14,0.03-0.26,0.18-0.2,0.36
	c-0.11,0.02-0.21,0.08-0.28,0.17c0.08,0.08,0.17,0.13,0.28,0.15c-0.07,0.22,0.02,0.33,0.22,0.38c-0.04-0.09-0.04-0.17-0.03-0.24
	c0.31,0.09,0.78-0.05,0.78-0.59c0-0.53-0.37-0.98-1.06-0.87c0.16-0.08,0.25-0.24,0.27-0.42c-0.13,0.05-0.27,0.06-0.27,0.06
	c0.08-0.14,0.19-0.26,0.19-0.54c-0.13,0.06-0.25,0.17-0.41,0.1c0.26-0.51-0.06-1.2-0.86-1.37c0.29,0.35,0.44,0.72,0.44,1.09
	c0,1.2-0.33,1.4-0.33,2.24c0,0.08,0.01,0.17,0.03,0.25c0.4,0.57,0.81,1.13,1.25,1.67c0.07-0.01,0.14-0.03,0.21-0.03
	c0.45-0.01,0.79,0.23,0.79,0.7c0,0.12-0.04,0.26-0.09,0.42c0.14,0.16,0.28,0.31,0.42,0.47c0.04-0.08,0.07-0.17,0.1-0.25
	c0.08,0.21,0.19,0.44,0.29,0.66c0.32,0.33,0.65,0.66,0.98,0.98c-0.19-0.66-0.84-1.76-0.84-2.29C10.48,50.97,10.82,50.72,11.27,50.74
	z M9.13,13.86c-0.03-0.01-0.06-0.02-0.09-0.03c0.44-0.1,0.81-0.27,1.01-0.62c0.2,0.35,0.57,0.52,1.01,0.62
	c-0.03,0.01-0.06,0.02-0.09,0.03c-0.48,0.06-0.82,0.43-0.92,0.62l0,0C9.95,14.28,9.61,13.91,9.13,13.86z M7.59,21.51
	c0-0.24,0.06-0.47,0.16-0.68c0.47-1,1.98-4.2,2.3-4.87c0,0,0,0,0,0s0,0,0,0c0.32,0.67,1.83,3.87,2.3,4.87
	c0.1,0.21,0.16,0.44,0.16,0.68c0,0.62-0.56,0.83-0.89,0.83c-0.38,0-0.77-0.29-0.77-0.66c0-0.23,0.12-0.37,0.3-0.37
	c0.43,0,0.41,0.37,0.32,0.6c0.27-0.12,0.43-0.34,0.38-0.56c0.15-0.02,0.3-0.09,0.43-0.24c-0.11-0.13-0.23-0.23-0.43-0.24
	c0.09-0.35-0.15-0.5-0.38-0.59c0.07,0.26,0.12,0.56-0.32,0.56c-0.32,0-0.58,0.05-0.72,0.26c-0.01-0.28-0.04-1.38-0.04-1.38
	c-0.02-0.41,0.56-0.4,0.92-0.28c-0.13-0.48-0.42-0.74-1.07-0.67c0.16-0.07,0.33-0.22,0.33-0.5c0-0.39-0.32-0.82-0.52-0.95
	c-0.21,0.13-0.52,0.56-0.52,0.95c0,0.29,0.17,0.44,0.33,0.5c-0.65-0.06-0.93,0.19-1.07,0.67c0.36-0.12,0.94-0.14,0.92,0.28
	c0,0-0.03,1.1-0.03,1.38c-0.15-0.21-0.4-0.26-0.73-0.26c-0.44,0-0.39-0.3-0.32-0.56c-0.23,0.08-0.47,0.23-0.38,0.59
	c-0.2,0-0.33,0.1-0.43,0.24c0.14,0.15,0.28,0.22,0.43,0.24c-0.04,0.23,0.11,0.44,0.38,0.56c-0.08-0.23-0.11-0.6,0.32-0.6
	c0.18,0,0.31,0.14,0.31,0.37c0,0.36-0.39,0.66-0.78,0.66C8.15,22.34,7.59,22.12,7.59,21.51z M11.44,22.92
	c-0.55,0.06-1.16,0.4-1.39,1.02c-0.23-0.62-0.84-0.96-1.39-1.02c0.55-0.06,1.16-0.4,1.39-1.02C10.28,22.52,10.88,22.86,11.44,22.92z
	 M7.75,25.02c-0.1-0.21-0.16-0.44-0.16-0.68c0-0.62,0.56-0.83,0.88-0.83c0.38,0,0.78,0.29,0.78,0.66c0,0.23-0.13,0.37-0.31,0.37
	c-0.43,0-0.4-0.37-0.32-0.6c-0.27,0.12-0.42,0.34-0.38,0.56c-0.15,0.02-0.3,0.09-0.43,0.24c0.11,0.13,0.23,0.23,0.43,0.24
	c-0.09,0.35,0.15,0.5,0.38,0.59c-0.07-0.26-0.12-0.56,0.32-0.56c0.32,0,0.58-0.06,0.73-0.27c0.01,0.28,0.03,1.38,0.03,1.38
	c0.02,0.41-0.55,0.4-0.92,0.28c0.14,0.48,0.42,0.73,1.07,0.67c-0.16,0.07-0.33,0.22-0.33,0.5c0,0.39,0.32,0.82,0.52,0.95
	c0.21-0.13,0.52-0.56,0.52-0.95c0-0.29-0.17-0.44-0.33-0.5c0.65,0.06,0.93-0.19,1.07-0.67c-0.36,0.12-0.94,0.13-0.92-0.28
	c0,0,0.03-1.1,0.04-1.38c0.15,0.21,0.4,0.27,0.72,0.27c0.44,0,0.39,0.3,0.32,0.56c0.23-0.08,0.47-0.23,0.38-0.59
	c0.2,0,0.33-0.1,0.43-0.24c-0.13-0.15-0.28-0.22-0.43-0.24c0.04-0.23-0.11-0.44-0.38-0.56c0.09,0.23,0.11,0.6-0.32,0.6
	c-0.18,0-0.3-0.14-0.3-0.37c0-0.37,0.39-0.66,0.77-0.66c0.32,0,0.89,0.22,0.89,0.83c0,0.25-0.06,0.47-0.16,0.68
	c-0.47,1-1.98,4.2-2.3,4.87l0,0C9.72,29.22,8.22,26.03,7.75,25.02z M9.13,32.02C9.11,32.01,9.09,32,9.08,32
	c0.02-0.01,0.04-0.01,0.05-0.02c0.48-0.06,0.82-0.43,0.92-0.61l0,0c0.1,0.19,0.44,0.56,0.92,0.61c0.01,0.01,0.03,0.01,0.05,0.02
	c-0.02,0-0.04,0.01-0.05,0.02c-0.48,0.06-0.82,0.43-0.92,0.61l0,0C9.95,32.44,9.61,32.07,9.13,32.02z M7.59,39.66
	c0-0.24,0.06-0.47,0.16-0.68c0.47-1,1.98-4.2,2.3-4.87l0,0c0.32,0.67,1.83,3.87,2.3,4.87c0.1,0.21,0.16,0.44,0.16,0.68
	c0,0.62-0.56,0.83-0.89,0.83c-0.38,0-0.77-0.29-0.77-0.66c0-0.23,0.12-0.37,0.3-0.37c0.43,0,0.41,0.37,0.32,0.6
	c0.27-0.12,0.43-0.34,0.38-0.57c0.15-0.02,0.3-0.09,0.43-0.24c-0.11-0.13-0.23-0.23-0.43-0.24c0.09-0.35-0.15-0.5-0.38-0.59
	c0.07,0.26,0.12,0.56-0.32,0.56c-0.32,0-0.58,0.06-0.72,0.27c-0.01-0.28-0.04-1.38-0.04-1.38c-0.02-0.41,0.56-0.4,0.92-0.28
	c-0.13-0.48-0.42-0.74-1.07-0.67c0.16-0.07,0.33-0.21,0.33-0.5c0-0.39-0.32-0.82-0.52-0.95c-0.21,0.13-0.52,0.56-0.52,0.95
	c0,0.29,0.17,0.44,0.33,0.5c-0.65-0.07-0.93,0.19-1.07,0.67c0.36-0.12,0.94-0.14,0.92,0.28c0,0-0.03,1.1-0.03,1.38
	c-0.15-0.21-0.4-0.27-0.73-0.27c-0.44,0-0.39-0.3-0.32-0.56c-0.23,0.08-0.47,0.23-0.38,0.59c-0.2,0-0.33,0.1-0.43,0.24
	c0.14,0.15,0.28,0.22,0.43,0.24c-0.04,0.23,0.11,0.44,0.38,0.57c-0.08-0.23-0.11-0.6,0.32-0.6c0.18,0,0.31,0.14,0.31,0.37
	c0,0.37-0.39,0.66-0.78,0.66C8.15,40.49,7.59,40.28,7.59,39.66z M11.44,41.08c-0.55,0.06-1.16,0.4-1.39,1.02
	c-0.23-0.62-0.84-0.96-1.39-1.02c0.55-0.06,1.16-0.4,1.39-1.02C10.28,40.68,10.88,41.02,11.44,41.08z M7.75,43.18
	c-0.1-0.21-0.16-0.44-0.16-0.68c0-0.62,0.56-0.83,0.88-0.83c0.38,0,0.78,0.29,0.78,0.66c0,0.23-0.13,0.37-0.31,0.37
	c-0.43,0-0.4-0.37-0.32-0.6c-0.27,0.12-0.42,0.34-0.38,0.56c-0.15,0.02-0.3,0.09-0.43,0.24c0.11,0.13,0.23,0.23,0.43,0.24
	c-0.09,0.35,0.15,0.5,0.38,0.59c-0.07-0.26-0.12-0.56,0.32-0.56c0.32,0,0.58-0.06,0.73-0.27c0.01,0.28,0.03,1.38,0.03,1.38
	c0.02,0.41-0.55,0.4-0.92,0.28c0.14,0.48,0.42,0.74,1.07,0.67c-0.16,0.07-0.33,0.22-0.33,0.5c0,0.39,0.32,0.82,0.52,0.95
	c0.21-0.13,0.52-0.56,0.52-0.95c0-0.29-0.17-0.44-0.33-0.5c0.65,0.07,0.93-0.19,1.07-0.67c-0.36,0.12-0.94,0.14-0.92-0.28
	c0,0,0.03-1.1,0.04-1.38c0.15,0.21,0.4,0.27,0.72,0.27c0.44,0,0.39,0.3,0.32,0.56c0.23-0.08,0.47-0.23,0.38-0.59
	c0.2,0,0.33-0.1,0.43-0.24c-0.13-0.15-0.28-0.22-0.43-0.24c0.04-0.23-0.11-0.44-0.38-0.56c0.09,0.23,0.11,0.6-0.32,0.6
	c-0.18,0-0.3-0.14-0.3-0.37c0-0.36,0.39-0.66,0.77-0.66c0.32,0,0.89,0.21,0.89,0.83c0,0.24-0.06,0.47-0.16,0.68
	c-0.47,1.01-1.98,4.2-2.3,4.87v0v0C9.72,47.38,8.22,44.18,7.75,43.18z M10.04,50.79c-0.2-0.35-0.57-0.52-1.01-0.62
	c0.03-0.01,0.06-0.02,0.09-0.03c0.48-0.06,0.82-0.43,0.92-0.61l0,0c0.1,0.19,0.44,0.56,0.92,0.61c0.03,0.01,0.06,0.02,0.09,0.03
	C10.61,50.27,10.25,50.44,10.04,50.79z"/>
<linearGradient id="SVGID_1_" gradientUnits="userSpaceOnUse" x1="32" y1="62" x2="32" y2="2">
	<stop  offset="0" style="stop-color:#1A1A1A"/>
	<stop  offset="0.102" style="stop-color:#393939;stop-opacity:0.949"/>
	<stop  offset="0.3475" style="stop-color:#7F7F7F;stop-opacity:0.8262"/>
	<stop  offset="0.5688" style="stop-color:#B6B6B6;stop-opacity:0.7156"/>
	<stop  offset="0.7582" style="stop-color:#DEDEDE;stop-opacity:0.6209"/>
	<stop  offset="0.9081" style="stop-color:#F6F6F6;stop-opacity:0.5459"/>
	<stop  offset="1" style="stop-color:#FFFFFF;stop-opacity:0.5"/>
</linearGradient>
<circle class="st2" cx="32" cy="32" r="30"/>
</svg>
