<?xml version="1.0" encoding="utf-8"?>
<!-- Generator: Adobe Illustrator 24.1.2, SVG Export Plug-In . SVG Version: 6.00 Build 0)  -->
<svg version="1.1" id="Layer_1" xmlns="http://www.w3.org/2000/svg" xmlns:xlink="http://www.w3.org/1999/xlink" x="0px" y="0px"
	 width="64px" height="64px" viewBox="0 0 64 64" style="enable-background:new 0 0 64 64;" xml:space="preserve">
<style type="text/css">
	.st0{fill:url(#Path_1_);}
	.st1{fill:url(#Shape_1_);}
	.st2{fill:url(#SVGID_1_);}
	.st3{fill:url(#SVGID_2_);}
	.st4{fill:url(#SVGID_3_);}
	.st5{fill:url(#SVGID_4_);}
	.st6{fill:url(#SVGID_5_);}
	.st7{fill:url(#SVGID_6_);}
	.st8{fill:url(#SVGID_7_);}
	.st9{fill:url(#SVGID_8_);}
	.st10{fill:url(#SVGID_9_);}
	.st11{fill:url(#SVGID_10_);}
</style>
<linearGradient id="Path_1_" gradientUnits="userSpaceOnUse" x1="-501.5981" y1="697.0008" x2="-501.5981" y2="697.9341" gradientTransform="matrix(55.999 0 0 -36.19 28120.9902 25262.0137)">
	<stop  offset="0" style="stop-color:#DADADA"/>
	<stop  offset="0.9993" style="stop-color:#FDFDFD"/>
</linearGradient>
<path id="Path_24_" class="st0" d="M12.26,37.1c-3.83-1.2-6.4-4.6-6.4-8.44c0-2.56,1.17-5,3.2-6.7c0.53-0.44,1.1-0.81,1.71-1.13
	l-0.03,0l0.62-2.06c1.54-5.13,6.53-8.72,12.13-8.72c0.56,0,1.13,0.04,1.8,0.13c0.51,0.07,1.02,0.17,1.52,0.3l0.25-0.43
	c2.26-3.88,6.56-6.3,11.21-6.3c7.06,0,12.81,5.48,12.81,12.21c0,0.33-0.02,0.65-0.05,0.97l-0.02,0.24c0.54,0.2,1.07,0.44,1.59,0.72
	c3.41,1.87,5.54,5.37,5.54,9.11c0,4.93-3.52,9.15-8.56,10.25c-0.82,0.18-1.66,0.28-2.48,0.28h-31.9
	C14.2,37.55,13.21,37.41,12.26,37.1z"/>
<linearGradient id="Shape_1_" gradientUnits="userSpaceOnUse" x1="-501.9233" y1="698.8879" x2="-501.9233" y2="697.9546" gradientTransform="matrix(60 0 0 -40 30147.4004 27957.5156)">
	<stop  offset="0" style="stop-color:#B2B2B2"/>
	<stop  offset="1" style="stop-color:#6B6B6B"/>
</linearGradient>
<path id="Shape_3_" class="st1" d="M38.27,5.55c6.04,0,10.94,4.67,10.94,10.43c0,0.28-0.02,0.56-0.04,0.83
	c-2.53,0.19-4.83,1.15-6.63,2.64c1.34-0.74,2.9-1.16,4.56-1.16c0.61,0,1.21,0.06,1.8,0.17c0.99,0.19,1.92,0.53,2.77,1
	c2.75,1.51,4.6,4.33,4.6,7.57c0,4.15-3.04,7.63-7.11,8.52c-0.66,0.15-1.35,0.23-2.06,0.23h0h-31.9l0,0c-0.82,0-1.6-0.13-2.34-0.37
	c-2.97-0.93-5.12-3.6-5.12-6.75c0-2.14,0.99-4.05,2.56-5.36c0.71-0.59,1.54-1.05,2.44-1.36c0.77-0.25,1.59-0.4,2.45-0.4
	c2.41,0,4.54,1.09,5.91,2.77h0.07c-1.58-2.78-4.55-4.74-8.01-5.05c1.29-4.29,5.43-7.43,10.34-7.43c0.53,0,1.03,0.05,1.54,0.12
	c1,0.14,1.95,0.4,2.84,0.78c3.31,1.41,5.73,4.36,6.27,7.89c0-0.02,0-0.04,0-0.06c0-4.02-2.17-7.56-5.45-9.63
	C30.56,7.73,34.14,5.55,38.27,5.55 M38.27,2c-5.03,0-9.7,2.46-12.39,6.49c-0.1-0.02-0.21-0.03-0.31-0.05
	c-0.77-0.1-1.42-0.15-2.07-0.15c-6.43,0-12.15,4.11-13.93,10.01l-0.42,1.4c-0.46,0.28-0.9,0.59-1.31,0.94C5.4,22.66,4,25.59,4,28.67
	c0,4.61,3.09,8.68,7.69,10.12c1.13,0.36,2.31,0.54,3.51,0.54h31.9c0.96,0,1.94-0.11,2.9-0.32c5.89-1.29,10-6.22,10-11.98
	c0-4.38-2.48-8.46-6.47-10.65c-0.19-0.1-0.39-0.21-0.59-0.3c0-0.03,0-0.06,0-0.09C52.94,8.27,46.36,2,38.27,2L38.27,2z"/>
<radialGradient id="SVGID_1_" cx="926.0015" cy="-85.411" r="1.4508" fx="926.0017" fy="-84.3597" gradientTransform="matrix(3.0465 0.8163 -1.1605 4.3311 -2888.8606 -339.0196)" gradientUnits="userSpaceOnUse">
	<stop  offset="0" style="stop-color:#73EFFF"/>
	<stop  offset="0.1871" style="stop-color:#6FECFF"/>
	<stop  offset="0.3641" style="stop-color:#64E3FF"/>
	<stop  offset="0.537" style="stop-color:#51D3FF"/>
	<stop  offset="0.7074" style="stop-color:#36BDFF"/>
	<stop  offset="0.8744" style="stop-color:#14A1FF"/>
	<stop  offset="0.9564" style="stop-color:#0091FF"/>
</radialGradient>
<path class="st2" d="M32.74,43.22c-0.05-0.76-0.42-0.86-0.85-0.23c-1.25,1.85-4.12,4.04-4.76,6.43c-0.47,1.74,0.61,3.55,2.42,4.03
	c1.8,0.48,3.64-0.54,4.11-2.29C34.29,48.79,32.9,45.42,32.74,43.22z"/>
<linearGradient id="SVGID_2_" gradientUnits="userSpaceOnUse" x1="844.9006" y1="-88.7513" x2="846.5646" y2="-90.2215" gradientTransform="matrix(2.6388 0.7071 -0.8003 2.9867 -2272.2874 -283.305)">
	<stop  offset="0.0528" style="stop-color:#C4EEFF;stop-opacity:0"/>
	<stop  offset="0.4504" style="stop-color:#CDF0FF;stop-opacity:0.4197"/>
	<stop  offset="1" style="stop-color:#D4F2FF"/>
</linearGradient>
<path class="st3" d="M32.63,43.02c0-0.34-0.36-0.43-0.52-0.14c-0.87,1.52-3.11,3.82-3.63,5.73c-0.62,2.3,3.81,3.49,4.42,1.19
	C33.41,47.89,32.62,44.75,32.63,43.02z"/>
<radialGradient id="SVGID_3_" cx="930.0616" cy="-87.0941" r="1.253" fx="930.0618" fy="-86.1862" gradientTransform="matrix(3.0465 0.8163 -1.1605 4.3311 -2889.4966 -336.6465)" gradientUnits="userSpaceOnUse">
	<stop  offset="0" style="stop-color:#73EFFF"/>
	<stop  offset="0.1871" style="stop-color:#6FECFF"/>
	<stop  offset="0.3641" style="stop-color:#64E3FF"/>
	<stop  offset="0.537" style="stop-color:#51D3FF"/>
	<stop  offset="0.7074" style="stop-color:#36BDFF"/>
	<stop  offset="0.8744" style="stop-color:#14A1FF"/>
	<stop  offset="0.9564" style="stop-color:#0091FF"/>
</radialGradient>
<path class="st4" d="M46.24,42.13c-0.05-0.65-0.37-0.74-0.73-0.2c-1.08,1.6-3.56,3.49-4.12,5.56c-0.4,1.51,0.53,3.07,2.09,3.48
	c1.56,0.42,3.14-0.47,3.55-1.97C47.58,46.94,46.38,44.03,46.24,42.13z"/>
<linearGradient id="SVGID_4_" gradientUnits="userSpaceOnUse" x1="849.7098" y1="-90.5202" x2="851.1469" y2="-91.7899" gradientTransform="matrix(2.6388 0.7071 -0.8003 2.9867 -2272.2874 -283.305)">
	<stop  offset="0.0528" style="stop-color:#C4EEFF;stop-opacity:0"/>
	<stop  offset="0.4504" style="stop-color:#CDF0FF;stop-opacity:0.4197"/>
	<stop  offset="1" style="stop-color:#D4F2FF"/>
</linearGradient>
<path class="st5" d="M46.14,41.95c0-0.29-0.31-0.37-0.45-0.12c-0.75,1.31-2.69,3.3-3.13,4.95c-0.53,1.99,3.29,3.01,3.82,1.02
	C46.82,46.16,46.14,43.45,46.14,41.95z"/>
<radialGradient id="SVGID_5_" cx="921.9538" cy="-84.8334" r="1.253" fx="921.954" fy="-83.9254" gradientTransform="matrix(3.0465 0.8163 -1.1605 4.3311 -2888.6423 -339.8341)" gradientUnits="userSpaceOnUse">
	<stop  offset="0" style="stop-color:#73EFFF"/>
	<stop  offset="0.1871" style="stop-color:#6FECFF"/>
	<stop  offset="0.3641" style="stop-color:#64E3FF"/>
	<stop  offset="0.537" style="stop-color:#51D3FF"/>
	<stop  offset="0.7074" style="stop-color:#36BDFF"/>
	<stop  offset="0.8744" style="stop-color:#14A1FF"/>
	<stop  offset="0.9564" style="stop-color:#0091FF"/>
</radialGradient>
<path class="st6" d="M19.77,42.12c-0.05-0.65-0.37-0.74-0.73-0.2c-1.08,1.6-3.56,3.49-4.12,5.56c-0.4,1.51,0.53,3.07,2.09,3.48
	c1.56,0.42,3.14-0.47,3.55-1.97C21.11,46.92,19.91,44.02,19.77,42.12z"/>
<linearGradient id="SVGID_6_" gradientUnits="userSpaceOnUse" x1="840.3493" y1="-88.3091" x2="841.7864" y2="-89.5788" gradientTransform="matrix(2.6388 0.7071 -0.8003 2.9867 -2272.2874 -283.305)">
	<stop  offset="0.0528" style="stop-color:#C4EEFF;stop-opacity:0"/>
	<stop  offset="0.4504" style="stop-color:#CDF0FF;stop-opacity:0.4197"/>
	<stop  offset="1" style="stop-color:#D4F2FF"/>
</linearGradient>
<path class="st7" d="M19.67,41.94c0-0.29-0.31-0.37-0.45-0.12c-0.75,1.31-2.69,3.3-3.13,4.95c-0.53,1.99,3.29,3.01,3.82,1.02
	C20.35,46.14,19.67,43.43,19.67,41.94z"/>
<radialGradient id="SVGID_7_" cx="923.4522" cy="-81.508" r="1.253" fx="923.4524" fy="-80.6001" gradientTransform="matrix(3.0465 0.8163 -1.1605 4.3311 -2887.3862 -344.5228)" gradientUnits="userSpaceOnUse">
	<stop  offset="0" style="stop-color:#73EFFF"/>
	<stop  offset="0.1871" style="stop-color:#6FECFF"/>
	<stop  offset="0.3641" style="stop-color:#64E3FF"/>
	<stop  offset="0.537" style="stop-color:#51D3FF"/>
	<stop  offset="0.7074" style="stop-color:#36BDFF"/>
	<stop  offset="0.8744" style="stop-color:#14A1FF"/>
	<stop  offset="0.9564" style="stop-color:#0091FF"/>
</radialGradient>
<path class="st8" d="M21.73,53.05c-0.05-0.65-0.37-0.74-0.73-0.2c-1.08,1.6-3.56,3.49-4.12,5.56c-0.4,1.51,0.53,3.07,2.09,3.48
	c1.56,0.42,3.14-0.47,3.55-1.97C23.07,57.86,21.87,54.95,21.73,53.05z"/>
<linearGradient id="SVGID_8_" gradientUnits="userSpaceOnUse" x1="842.0792" y1="-85.0567" x2="843.5162" y2="-86.3265" gradientTransform="matrix(2.6388 0.7071 -0.8003 2.9867 -2272.2874 -283.305)">
	<stop  offset="0.0528" style="stop-color:#C4EEFF;stop-opacity:0"/>
	<stop  offset="0.4504" style="stop-color:#CDF0FF;stop-opacity:0.4197"/>
	<stop  offset="1" style="stop-color:#D4F2FF"/>
</linearGradient>
<path class="st9" d="M21.63,52.88c0-0.29-0.31-0.37-0.45-0.12c-0.75,1.31-2.69,3.3-3.13,4.95c-0.53,1.99,3.29,3.01,3.82,1.02
	C22.31,57.08,21.63,54.37,21.63,52.88z"/>
<radialGradient id="SVGID_9_" cx="928.675" cy="-82.9675" r="1.253" fx="928.6752" fy="-82.0596" gradientTransform="matrix(3.0465 0.8163 -1.1605 4.3311 -2887.9375 -342.4649)" gradientUnits="userSpaceOnUse">
	<stop  offset="0" style="stop-color:#73EFFF"/>
	<stop  offset="0.1871" style="stop-color:#6FECFF"/>
	<stop  offset="0.3641" style="stop-color:#64E3FF"/>
	<stop  offset="0.537" style="stop-color:#51D3FF"/>
	<stop  offset="0.7074" style="stop-color:#36BDFF"/>
	<stop  offset="0.8744" style="stop-color:#14A1FF"/>
	<stop  offset="0.9564" style="stop-color:#0091FF"/>
</radialGradient>
<path class="st10" d="M38.79,53.05c-0.05-0.65-0.37-0.74-0.73-0.2c-1.08,1.6-3.56,3.49-4.12,5.56c-0.4,1.51,0.53,3.07,2.09,3.48
	c1.56,0.42,3.14-0.47,3.55-1.97C40.13,57.86,38.92,54.95,38.79,53.05z"/>
<linearGradient id="SVGID_10_" gradientUnits="userSpaceOnUse" x1="848.109" y1="-86.4842" x2="849.5461" y2="-87.7539" gradientTransform="matrix(2.6388 0.7071 -0.8003 2.9867 -2272.2874 -283.305)">
	<stop  offset="0.0528" style="stop-color:#C4EEFF;stop-opacity:0"/>
	<stop  offset="0.4504" style="stop-color:#CDF0FF;stop-opacity:0.4197"/>
	<stop  offset="1" style="stop-color:#D4F2FF"/>
</linearGradient>
<path class="st11" d="M38.68,52.88c0-0.29-0.31-0.37-0.45-0.12c-0.75,1.31-2.69,3.3-3.13,4.95c-0.53,1.99,3.29,3.01,3.82,1.02
	C39.36,57.08,38.68,54.37,38.68,52.88z"/>
</svg>
