<?xml version="1.0" encoding="utf-8"?>
<!-- Generator: Adobe Illustrator 24.1.2, SVG Export Plug-In . SVG Version: 6.00 Build 0)  -->
<svg version="1.1" id="Layer_1" xmlns="http://www.w3.org/2000/svg" xmlns:xlink="http://www.w3.org/1999/xlink" x="0px" y="0px"
	 width="64px" height="64px" viewBox="0 0 64 64" style="enable-background:new 0 0 64 64;" xml:space="preserve">
<style type="text/css">
	.st0{fill:#FCD449;}
	.st1{fill:url(#Path_1_);}
	.st2{fill:url(#Shape_1_);}
	.st3{fill:url(#SVGID_1_);}
	.st4{fill:url(#SVGID_2_);}
	.st5{fill:url(#SVGID_3_);}
	.st6{fill:url(#SVGID_4_);}
	.st7{fill:url(#SVGID_5_);}
	.st8{fill:url(#SVGID_6_);}
	.st9{fill:url(#SVGID_7_);}
	.st10{fill:url(#SVGID_8_);}
	.st11{fill:url(#SVGID_9_);}
	.st12{fill:url(#SVGID_10_);}
</style>
<path class="st0" d="M18.87,6.86L16.05,0l-2.81,6.87c0.91-0.16,1.85-0.26,2.81-0.26S17.95,6.7,18.87,6.86z"/>
<path class="st0" d="M7.87,12.23L1,15.05l6.87,2.81c-0.16-0.91-0.26-1.85-0.26-2.81S7.71,13.15,7.87,12.23z"/>
<path class="st0" d="M23.83,11.25l2.86-6.84l-6.84,2.87c0.76,0.53,1.49,1.13,2.17,1.81C22.7,9.76,23.3,10.49,23.83,11.25z"/>
<path class="st0" d="M8.27,18.84l-2.86,6.85l6.85-2.87c-0.76-0.53-1.49-1.13-2.17-1.81C9.4,20.34,8.8,19.6,8.27,18.84z"/>
<path class="st0" d="M12.25,7.27L5.41,4.4l2.86,6.84c0.53-0.76,1.13-1.49,1.81-2.17C10.76,8.4,11.49,7.8,12.25,7.27z"/>
<path class="st0" d="M23.08,15.05c0,3.88-3.14,7.02-7.03,7.02c-3.88,0-7.02-3.14-7.02-7.02s3.14-7.02,7.02-7.02
	C19.93,8.02,23.08,11.17,23.08,15.05z"/>
<linearGradient id="Path_1_" gradientUnits="userSpaceOnUse" x1="-501.5445" y1="696.9456" x2="-501.5445" y2="697.879" gradientTransform="matrix(55.999 0 0 -36.19 28120.9902 25262.0137)">
	<stop  offset="0" style="stop-color:#DADADA"/>
	<stop  offset="0.9993" style="stop-color:#FDFDFD"/>
</linearGradient>
<path id="Path_23_" class="st1" d="M15.26,39.1c-3.83-1.2-6.4-4.6-6.4-8.44c0-2.56,1.17-5,3.2-6.7c0.53-0.44,1.1-0.81,1.71-1.13
	l-0.03,0l0.62-2.06c1.54-5.13,6.53-8.72,12.13-8.72c0.56,0,1.13,0.04,1.8,0.13c0.51,0.07,1.02,0.17,1.52,0.3l0.25-0.43
	c2.26-3.88,6.56-6.3,11.21-6.3c7.06,0,12.81,5.48,12.81,12.21c0,0.33-0.02,0.65-0.05,0.97l-0.02,0.24c0.54,0.2,1.07,0.44,1.59,0.72
	c3.41,1.87,5.54,5.37,5.54,9.11c0,4.93-3.52,9.15-8.56,10.25c-0.83,0.18-1.66,0.28-2.48,0.28h-31.9
	C17.2,39.55,16.21,39.4,15.26,39.1z"/>
<linearGradient id="Shape_1_" gradientUnits="userSpaceOnUse" x1="-501.8733" y1="698.838" x2="-501.8733" y2="697.9047" gradientTransform="matrix(60 0 0 -40 30147.4004 27957.5156)">
	<stop  offset="0" style="stop-color:#B2B2B2"/>
	<stop  offset="1" style="stop-color:#6B6B6B"/>
</linearGradient>
<path id="Shape_2_" class="st2" d="M41.27,7.55c6.04,0,10.94,4.67,10.94,10.43c0,0.28-0.02,0.56-0.04,0.83
	c-2.53,0.19-4.83,1.15-6.63,2.64c1.35-0.74,2.9-1.16,4.56-1.16c0.62,0,1.21,0.06,1.8,0.17c0.99,0.19,1.92,0.53,2.77,1
	c2.75,1.51,4.61,4.33,4.61,7.57c0,4.15-3.04,7.63-7.11,8.52c-0.66,0.15-1.35,0.23-2.06,0.23h0h-31.9l0,0
	c-0.82,0-1.61-0.13-2.34-0.37c-2.97-0.93-5.12-3.6-5.12-6.75c0-2.14,0.99-4.05,2.56-5.36c0.71-0.59,1.54-1.05,2.44-1.36
	c0.77-0.25,1.6-0.4,2.46-0.4c2.41,0,4.54,1.09,5.9,2.77h0.07c-1.58-2.78-4.55-4.74-8.01-5.05c1.29-4.29,5.43-7.43,10.34-7.43
	c0.53,0,1.03,0.05,1.54,0.12c1,0.14,1.95,0.4,2.84,0.78c3.31,1.41,5.73,4.36,6.27,7.89c0-0.02,0-0.04,0-0.06
	c0-4.02-2.17-7.57-5.45-9.63C33.56,9.73,37.14,7.55,41.27,7.55 M41.27,4c-5.03,0-9.7,2.46-12.39,6.49c-0.1-0.02-0.2-0.03-0.31-0.05
	c-0.77-0.1-1.42-0.15-2.07-0.15c-6.42,0-12.15,4.11-13.92,10.01l-0.43,1.4c-0.46,0.28-0.89,0.59-1.3,0.94C8.4,24.66,7,27.58,7,30.66
	c0,4.61,3.09,8.68,7.68,10.12c1.13,0.36,2.31,0.54,3.51,0.54h31.9c0.96,0,1.94-0.11,2.9-0.32C58.88,39.72,63,34.79,63,29.03
	c0-4.38-2.48-8.46-6.47-10.65c-0.19-0.1-0.39-0.21-0.59-0.3c0-0.03,0-0.06,0-0.09C55.94,10.27,49.36,4,41.27,4L41.27,4z"/>
<radialGradient id="SVGID_1_" cx="927.0847" cy="-85.0278" r="1.4508" fx="927.0849" fy="-83.9765" gradientTransform="matrix(3.0465 0.8163 -1.1605 4.3311 -2888.7158 -339.56)" gradientUnits="userSpaceOnUse">
	<stop  offset="0" style="stop-color:#73EFFF"/>
	<stop  offset="0.1871" style="stop-color:#6FECFF"/>
	<stop  offset="0.3641" style="stop-color:#64E3FF"/>
	<stop  offset="0.537" style="stop-color:#51D3FF"/>
	<stop  offset="0.7074" style="stop-color:#36BDFF"/>
	<stop  offset="0.8744" style="stop-color:#14A1FF"/>
	<stop  offset="0.9564" style="stop-color:#0091FF"/>
</radialGradient>
<path class="st3" d="M35.74,45.23c-0.05-0.76-0.42-0.86-0.85-0.23c-1.25,1.85-4.12,4.04-4.76,6.43c-0.47,1.74,0.61,3.55,2.42,4.03
	c1.8,0.48,3.64-0.54,4.11-2.29C37.29,50.79,35.9,47.43,35.74,45.23z"/>
<linearGradient id="SVGID_2_" gradientUnits="userSpaceOnUse" x1="846.1511" y1="-88.3765" x2="847.8151" y2="-89.8467" gradientTransform="matrix(2.6388 0.7071 -0.8003 2.9867 -2272.2874 -283.305)">
	<stop  offset="0.0528" style="stop-color:#C4EEFF;stop-opacity:0"/>
	<stop  offset="0.4504" style="stop-color:#CDF0FF;stop-opacity:0.4197"/>
	<stop  offset="1" style="stop-color:#D4F2FF"/>
</linearGradient>
<path class="st4" d="M35.63,45.02c0-0.34-0.36-0.43-0.52-0.14c-0.87,1.52-3.11,3.82-3.63,5.73c-0.62,2.3,3.81,3.49,4.42,1.19
	C36.41,49.89,35.62,46.75,35.63,45.02z"/>
<radialGradient id="SVGID_3_" cx="931.1448" cy="-86.7109" r="1.253" fx="931.145" fy="-85.8029" gradientTransform="matrix(3.0465 0.8163 -1.1605 4.3311 -2889.3518 -337.1869)" gradientUnits="userSpaceOnUse">
	<stop  offset="0" style="stop-color:#73EFFF"/>
	<stop  offset="0.1871" style="stop-color:#6FECFF"/>
	<stop  offset="0.3641" style="stop-color:#64E3FF"/>
	<stop  offset="0.537" style="stop-color:#51D3FF"/>
	<stop  offset="0.7074" style="stop-color:#36BDFF"/>
	<stop  offset="0.8744" style="stop-color:#14A1FF"/>
	<stop  offset="0.9564" style="stop-color:#0091FF"/>
</radialGradient>
<path class="st5" d="M49.24,44.13c-0.05-0.65-0.37-0.74-0.73-0.2c-1.08,1.6-3.56,3.49-4.12,5.56c-0.4,1.51,0.53,3.07,2.09,3.48
	c1.56,0.42,3.14-0.47,3.55-1.97C50.58,48.94,49.38,46.03,49.24,44.13z"/>
<linearGradient id="SVGID_4_" gradientUnits="userSpaceOnUse" x1="850.9603" y1="-90.1454" x2="852.3974" y2="-91.4151" gradientTransform="matrix(2.6388 0.7071 -0.8003 2.9867 -2272.2874 -283.305)">
	<stop  offset="0.0528" style="stop-color:#C4EEFF;stop-opacity:0"/>
	<stop  offset="0.4504" style="stop-color:#CDF0FF;stop-opacity:0.4197"/>
	<stop  offset="1" style="stop-color:#D4F2FF"/>
</linearGradient>
<path class="st6" d="M49.14,43.96c0-0.29-0.31-0.37-0.45-0.12c-0.75,1.31-2.69,3.3-3.13,4.95c-0.53,1.99,3.29,3.01,3.82,1.02
	C49.82,48.16,49.14,45.45,49.14,43.96z"/>
<radialGradient id="SVGID_5_" cx="923.037" cy="-84.4501" r="1.253" fx="923.0372" fy="-83.5422" gradientTransform="matrix(3.0465 0.8163 -1.1605 4.3311 -2888.4976 -340.3745)" gradientUnits="userSpaceOnUse">
	<stop  offset="0" style="stop-color:#73EFFF"/>
	<stop  offset="0.1871" style="stop-color:#6FECFF"/>
	<stop  offset="0.3641" style="stop-color:#64E3FF"/>
	<stop  offset="0.537" style="stop-color:#51D3FF"/>
	<stop  offset="0.7074" style="stop-color:#36BDFF"/>
	<stop  offset="0.8744" style="stop-color:#14A1FF"/>
	<stop  offset="0.9564" style="stop-color:#0091FF"/>
</radialGradient>
<path class="st7" d="M22.77,44.12c-0.05-0.65-0.37-0.74-0.73-0.2c-1.08,1.6-3.56,3.49-4.12,5.56c-0.4,1.51,0.53,3.07,2.09,3.48
	c1.56,0.42,3.14-0.47,3.55-1.97C24.11,48.93,22.91,46.02,22.77,44.12z"/>
<linearGradient id="SVGID_6_" gradientUnits="userSpaceOnUse" x1="841.5998" y1="-87.9343" x2="843.0369" y2="-89.204" gradientTransform="matrix(2.6388 0.7071 -0.8003 2.9867 -2272.2874 -283.305)">
	<stop  offset="0.0528" style="stop-color:#C4EEFF;stop-opacity:0"/>
	<stop  offset="0.4504" style="stop-color:#CDF0FF;stop-opacity:0.4197"/>
	<stop  offset="1" style="stop-color:#D4F2FF"/>
</linearGradient>
<path class="st8" d="M22.67,43.94c0-0.29-0.31-0.37-0.45-0.12c-0.75,1.31-2.69,3.3-3.13,4.95c-0.53,1.99,3.29,3.01,3.82,1.02
	C23.35,48.15,22.67,45.43,22.67,43.94z"/>
<radialGradient id="SVGID_7_" cx="924.5353" cy="-81.1248" r="1.253" fx="924.5355" fy="-80.2169" gradientTransform="matrix(3.0465 0.8163 -1.1605 4.3311 -2887.2415 -345.0632)" gradientUnits="userSpaceOnUse">
	<stop  offset="0" style="stop-color:#73EFFF"/>
	<stop  offset="0.1871" style="stop-color:#6FECFF"/>
	<stop  offset="0.3641" style="stop-color:#64E3FF"/>
	<stop  offset="0.537" style="stop-color:#51D3FF"/>
	<stop  offset="0.7074" style="stop-color:#36BDFF"/>
	<stop  offset="0.8744" style="stop-color:#14A1FF"/>
	<stop  offset="0.9564" style="stop-color:#0091FF"/>
</radialGradient>
<path class="st9" d="M24.73,55.06c-0.05-0.65-0.37-0.74-0.73-0.2c-1.08,1.6-3.56,3.49-4.12,5.56c-0.4,1.51,0.53,3.07,2.09,3.48
	c1.56,0.42,3.14-0.47,3.55-1.97C26.07,59.87,24.87,56.96,24.73,55.06z"/>
<linearGradient id="SVGID_8_" gradientUnits="userSpaceOnUse" x1="843.3297" y1="-84.6819" x2="844.7668" y2="-85.9517" gradientTransform="matrix(2.6388 0.7071 -0.8003 2.9867 -2272.2874 -283.305)">
	<stop  offset="0.0528" style="stop-color:#C4EEFF;stop-opacity:0"/>
	<stop  offset="0.4504" style="stop-color:#CDF0FF;stop-opacity:0.4197"/>
	<stop  offset="1" style="stop-color:#D4F2FF"/>
</linearGradient>
<path class="st10" d="M24.63,54.88c0-0.29-0.31-0.37-0.45-0.12c-0.75,1.31-2.69,3.3-3.13,4.95c-0.53,1.99,3.29,3.01,3.82,1.02
	C25.31,59.08,24.63,56.37,24.63,54.88z"/>
<radialGradient id="SVGID_9_" cx="929.7582" cy="-82.5843" r="1.253" fx="929.7584" fy="-81.6764" gradientTransform="matrix(3.0465 0.8163 -1.1605 4.3311 -2887.7927 -343.0052)" gradientUnits="userSpaceOnUse">
	<stop  offset="0" style="stop-color:#73EFFF"/>
	<stop  offset="0.1871" style="stop-color:#6FECFF"/>
	<stop  offset="0.3641" style="stop-color:#64E3FF"/>
	<stop  offset="0.537" style="stop-color:#51D3FF"/>
	<stop  offset="0.7074" style="stop-color:#36BDFF"/>
	<stop  offset="0.8744" style="stop-color:#14A1FF"/>
	<stop  offset="0.9564" style="stop-color:#0091FF"/>
</radialGradient>
<path class="st11" d="M41.79,55.06c-0.05-0.65-0.37-0.74-0.73-0.2c-1.08,1.6-3.56,3.49-4.12,5.56c-0.4,1.51,0.53,3.07,2.09,3.48
	c1.56,0.42,3.14-0.47,3.55-1.97C43.13,59.87,41.92,56.96,41.79,55.06z"/>
<linearGradient id="SVGID_10_" gradientUnits="userSpaceOnUse" x1="849.3596" y1="-86.1094" x2="850.7966" y2="-87.3791" gradientTransform="matrix(2.6388 0.7071 -0.8003 2.9867 -2272.2874 -283.305)">
	<stop  offset="0.0528" style="stop-color:#C4EEFF;stop-opacity:0"/>
	<stop  offset="0.4504" style="stop-color:#CDF0FF;stop-opacity:0.4197"/>
	<stop  offset="1" style="stop-color:#D4F2FF"/>
</linearGradient>
<path class="st12" d="M41.68,54.88c0-0.29-0.31-0.37-0.45-0.12c-0.75,1.31-2.69,3.3-3.13,4.95c-0.53,1.99,3.29,3.01,3.82,1.02
	C42.36,59.08,41.68,56.37,41.68,54.88z"/>
</svg>
