<?xml version="1.0" encoding="utf-8"?>
<!-- Generator: Adobe Illustrator 15.0.0, SVG Export Plug-In . SVG Version: 6.00 Build 0)  -->
<!DOCTYPE svg PUBLIC "-//W3C//DTD SVG 1.1//EN" "http://www.w3.org/Graphics/SVG/1.1/DTD/svg11.dtd" [
	<!ENTITY ns_flows "http://ns.adobe.com/Flows/1.0/">
	<!ENTITY ns_extend "http://ns.adobe.com/Extensibility/1.0/">
	<!ENTITY ns_ai "http://ns.adobe.com/AdobeIllustrator/10.0/">
	<!ENTITY ns_graphs "http://ns.adobe.com/Graphs/1.0/">
]>
<svg version="1.1" id="Layer_1" xmlns:x="&ns_extend;" xmlns:i="&ns_ai;" xmlns:graph="&ns_graphs;"
	 xmlns="http://www.w3.org/2000/svg" xmlns:xlink="http://www.w3.org/1999/xlink" xmlns:a="http://ns.adobe.com/AdobeSVGViewerExtensions/3.0/"
	 x="0px" y="0px" width="64px" height="64px" viewBox="0 0 64 64" enable-background="new 0 0 64 64" xml:space="preserve">
<radialGradient id="SVGID_1_" cx="18.0376" cy="75.707" r="39.1484" gradientTransform="matrix(0.9218 0 0 0.6741 15.567 -9.1903)" gradientUnits="userSpaceOnUse">
	<stop  offset="0.2424" style="stop-color:#4D1808"/>
	<stop  offset="0.4349" style="stop-color:#541E0D"/>
	<stop  offset="0.7138" style="stop-color:#672E1D"/>
	<stop  offset="1" style="stop-color:#824532"/>
	<a:midPointStop  offset="0.2424" style="stop-color:#4D1808"/>
	<a:midPointStop  offset="0.627" style="stop-color:#4D1808"/>
	<a:midPointStop  offset="1" style="stop-color:#824532"/>
</radialGradient>
<path fill="url(#SVGID_1_)" d="M32,4c0,0,0,3.387-8.369,6.9C16.071,14.073,6.691,21.503,4.37,32.617
	C1.669,46.551,14.039,57.847,32,57.847c17.961-0.001,30.332-11.296,27.63-25.229c-2.32-11.114-11.701-18.544-19.262-21.718
	C32,7.387,32,4,32,4z"/>
<path fill="#4D1808" d="M48.336,50.217c3.546-2.949,5.919-7.143,6.54-11.77c0.315-2.305,0.231-4.677-0.26-7.017
	c-0.464-2.317-1.251-4.624-2.325-6.778c-2.146-4.325-5.407-8.136-9.345-11.064c-0.984-0.733-2.018-1.402-3.088-2.009
	c-1.073-0.582-2.215-1.174-3.25-1.881c-1.045-0.7-2.038-1.49-2.89-2.42C32.896,6.351,32.116,5.26,32,4
	c0.195,1.244,1.028,2.259,1.887,3.115c0.888,0.857,1.907,1.566,2.97,2.188c1.066,0.634,2.176,1.121,3.325,1.655
	c1.135,0.552,2.238,1.172,3.296,1.862c4.233,2.758,7.885,6.491,10.458,10.949c2.531,4.444,4.128,9.634,3.726,14.968
	c-0.197,2.651-0.886,5.292-2.054,7.723c-1.154,2.425-2.815,4.665-4.732,6.494L48.336,50.217z"/>
<path fill="#4D1808" d="M44.038,50.397c2.866-3.119,4.558-7.243,5.115-11.579c0.57-4.336-0.026-8.863-1.417-13.127
	c-1.403-4.254-3.694-8.271-6.833-11.547c-0.784-0.819-1.626-1.582-2.521-2.279c-0.886-0.679-1.898-1.304-2.777-2.078
	c-0.884-0.762-1.7-1.612-2.358-2.577C32.604,6.249,32.063,5.161,32,4c0.143,1.151,0.745,2.177,1.435,3.073
	c0.705,0.896,1.555,1.668,2.463,2.351c0.905,0.695,1.903,1.217,2.895,1.874c0.972,0.656,1.895,1.386,2.76,2.177
	c3.473,3.164,6.152,7.184,7.937,11.571c0.893,2.196,1.56,4.488,1.998,6.83c0.443,2.366,0.601,4.776,0.455,7.202
	c-0.281,4.818-1.888,9.766-5.023,13.695L44.038,50.397z"/>
<path fill="#4D1808" d="M39.204,50.696c2.034-3.365,3.095-7.392,3.547-11.478c0.452-4.104,0.231-8.306-0.483-12.435
	c-0.729-4.115-1.979-8.187-4.04-11.851c-0.52-0.912-1.089-1.797-1.732-2.622c-0.322-0.412-0.66-0.813-1.022-1.188
	c-0.371-0.386-0.738-0.801-1.07-1.227C33.082,8.194,32.082,6.15,32,4c0.24,2.134,1.367,4.046,2.76,5.596
	c0.354,0.392,0.722,0.752,1.117,1.107c0.408,0.364,0.789,0.755,1.154,1.158c0.73,0.808,1.386,1.679,1.989,2.581
	c2.405,3.628,4.004,7.738,5.072,11.952c1.051,4.219,1.612,8.6,1.451,13.02c-0.169,4.396-0.967,8.919-3.058,13.061L39.204,50.696z"/>
<path fill="#4D1808" d="M33.714,51.19c0.97-3.724,1.449-7.665,1.737-11.612c0.28-3.957,0.32-7.942,0.171-11.93
	c-0.156-3.983-0.487-7.972-1.199-11.895c-0.184-0.979-0.391-1.954-0.644-2.915c-0.235-0.972-0.6-1.869-0.913-2.857
	C32.282,8.031,31.983,6.011,32,4c0.139,2.004,0.593,3.978,1.307,5.829c0.363,0.901,0.83,1.84,1.142,2.805
	c0.335,0.961,0.621,1.935,0.884,2.915c1.032,3.924,1.679,7.933,2.151,11.957c0.464,4.023,0.738,8.082,0.767,12.158
	c0.016,4.076-0.152,8.182-0.887,12.317L33.714,51.19z"/>
<path fill="#4D1808" d="M15.665,50.217c-3.546-2.949-5.919-7.143-6.541-11.77c-0.314-2.305-0.231-4.677,0.26-7.017
	c0.465-2.317,1.252-4.624,2.325-6.778c2.146-4.325,5.408-8.136,9.346-11.064c0.983-0.733,2.017-1.402,3.087-2.009
	c1.073-0.582,2.216-1.174,3.25-1.881c1.045-0.7,2.039-1.49,2.89-2.42C31.104,6.351,31.884,5.26,32,4
	c-0.195,1.244-1.027,2.259-1.887,3.115c-0.888,0.857-1.905,1.566-2.97,2.188c-1.066,0.634-2.175,1.121-3.324,1.655
	c-1.135,0.552-2.239,1.172-3.296,1.862c-4.233,2.758-7.886,6.491-10.458,10.949c-2.532,4.444-4.129,9.634-3.726,14.968
	c0.196,2.651,0.886,5.292,2.054,7.723c1.154,2.425,2.814,4.665,4.732,6.494L15.665,50.217z"/>
<path fill="#4D1808" d="M19.962,50.397c-2.865-3.119-4.557-7.243-5.115-11.579c-0.57-4.336,0.027-8.863,1.418-13.127
	c1.402-4.254,3.693-8.271,6.833-11.547c0.783-0.819,1.625-1.582,2.521-2.279c0.886-0.679,1.897-1.304,2.776-2.078
	c0.884-0.762,1.7-1.612,2.359-2.577C31.396,6.249,31.937,5.161,32,4c-0.143,1.151-0.745,2.177-1.435,3.073
	c-0.705,0.896-1.555,1.668-2.463,2.351c-0.904,0.695-1.903,1.217-2.895,1.874c-0.971,0.656-1.894,1.386-2.76,2.177
	c-3.473,3.164-6.152,7.184-7.936,11.571c-0.893,2.196-1.561,4.488-1.998,6.83c-0.443,2.366-0.601,4.776-0.455,7.202
	c0.28,4.818,1.887,9.766,5.023,13.695L19.962,50.397z"/>
<path fill="#4D1808" d="M24.796,50.696c-2.034-3.365-3.094-7.392-3.547-11.478c-0.452-4.104-0.23-8.306,0.484-12.435
	c0.729-4.115,1.978-8.187,4.041-11.851c0.519-0.912,1.087-1.797,1.731-2.622c0.321-0.412,0.659-0.813,1.021-1.188
	c0.372-0.386,0.738-0.801,1.07-1.227C30.919,8.194,31.918,6.15,32,4c-0.239,2.134-1.367,4.046-2.76,5.596
	c-0.354,0.392-0.722,0.752-1.117,1.107c-0.407,0.364-0.788,0.755-1.153,1.158c-0.73,0.808-1.386,1.679-1.989,2.581
	c-2.405,3.628-4.005,7.738-5.073,11.952c-1.05,4.219-1.611,8.6-1.451,13.02c0.17,4.396,0.968,8.919,3.059,13.061L24.796,50.696z"/>
<path fill="#4D1808" d="M30.286,51.19c-0.969-3.724-1.448-7.665-1.736-11.612c-0.28-3.957-0.32-7.942-0.172-11.93
	c0.157-3.983,0.488-7.972,1.2-11.895c0.184-0.979,0.39-1.954,0.643-2.915c0.235-0.972,0.601-1.869,0.913-2.857
	C31.718,8.031,32.017,6.011,32,4c-0.139,2.004-0.593,3.978-1.306,5.829c-0.364,0.901-0.83,1.84-1.143,2.805
	c-0.334,0.961-0.621,1.935-0.884,2.915c-1.032,3.924-1.679,7.933-2.151,11.957c-0.463,4.023-0.738,8.082-0.766,12.158
	c-0.016,4.076,0.151,8.182,0.887,12.317L30.286,51.19z"/>
<radialGradient id="SVGID_2_" cx="29.7192" cy="119.7891" r="19.8962" gradientTransform="matrix(1.2829 0 0 0.5758 -6.1281 -41.1963)" gradientUnits="userSpaceOnUse">
	<stop  offset="0.1939" style="stop-color:#A84D31"/>
	<stop  offset="0.8848" style="stop-color:#A84D31;stop-opacity:0"/>
	<a:midPointStop  offset="0.1939" style="stop-color:#A84D31"/>
	<a:midPointStop  offset="0.5865" style="stop-color:#A84D31"/>
	<a:midPointStop  offset="0.8848" style="stop-color:#A84D31;stop-opacity:0"/>
</radialGradient>
<path fill="url(#SVGID_2_)" d="M56.978,27.775c2.937,15.531-52.892,15.531-49.955,0C9.958,12.244,54.042,12.244,56.978,27.775z"/>
<radialGradient id="SVGID_3_" cx="17.8262" cy="62.708" r="25.7647" gradientTransform="matrix(0.9218 0 0 0.6576 15.567 0.9732)" gradientUnits="userSpaceOnUse">
	<stop  offset="0.297" style="stop-color:#784825"/>
	<stop  offset="0.4543" style="stop-color:#7B4A27"/>
	<stop  offset="0.5748" style="stop-color:#85522D"/>
	<stop  offset="0.6832" style="stop-color:#955F38"/>
	<stop  offset="0.7844" style="stop-color:#AC7147"/>
	<stop  offset="0.8806" style="stop-color:#CA895B"/>
	<stop  offset="0.9718" style="stop-color:#EEA673"/>
	<stop  offset="1" style="stop-color:#FBB07B"/>
	<a:midPointStop  offset="0.297" style="stop-color:#784825"/>
	<a:midPointStop  offset="0.7586" style="stop-color:#784825"/>
	<a:midPointStop  offset="1" style="stop-color:#FBB07B"/>
</radialGradient>
<path fill="url(#SVGID_3_)" d="M32.023,51.721c-5.359,2.467-11.084-3.656-15.978-1.867c-3.799,1.348-9.381-3.177-11.047-7.444
	C7.84,52.519,18.578,60,32,60c13.423,0,24.162-7.481,27.001-17.591c-3.187,5.307-6.863,2.546-10.099,6.784
	C46.044,52.783,37.291,49.215,32.023,51.721z"/>
</svg>
