<?xml version="1.0" encoding="utf-8"?>
<!-- Generator: Adobe Illustrator 15.0.0, SVG Export Plug-In . SVG Version: 6.00 Build 0)  -->
<!DOCTYPE svg PUBLIC "-//W3C//DTD SVG 1.1//EN" "http://www.w3.org/Graphics/SVG/1.1/DTD/svg11.dtd" [
	<!ENTITY ns_flows "http://ns.adobe.com/Flows/1.0/">
	<!ENTITY ns_extend "http://ns.adobe.com/Extensibility/1.0/">
	<!ENTITY ns_ai "http://ns.adobe.com/AdobeIllustrator/10.0/">
	<!ENTITY ns_graphs "http://ns.adobe.com/Graphs/1.0/">
]>
<svg version="1.1" id="Layer_1" xmlns:x="&ns_extend;" xmlns:i="&ns_ai;" xmlns:graph="&ns_graphs;"
	 xmlns="http://www.w3.org/2000/svg" xmlns:xlink="http://www.w3.org/1999/xlink" xmlns:a="http://ns.adobe.com/AdobeSVGViewerExtensions/3.0/"
	 x="0px" y="0px" width="64px" height="64px" viewBox="0 0 64 64" enable-background="new 0 0 64 64" xml:space="preserve">
<path fill="#F9C802" d="M29.469,35.414c2.689,3.507-18.346,23.504-18.429,14.142C1.522,46.402,26.964,32.15,29.469,35.414z"/>
<path fill="#F9C802" d="M35.084,28.776c-2.691-3.506,18.344-23.504,18.428-14.142C63.03,17.788,37.59,32.04,35.084,28.776z"/>
<path fill="#F9C802" d="M26.348,32.952c0.578,4.379-27.639,11.18-23.028,3.031C-3.348,28.493,25.812,28.871,26.348,32.952z"/>
<path fill="#F9C802" d="M36.452,29.803c-0.578-4.38,27.638-11.183,23.029-3.032C66.149,34.261,36.99,33.883,36.452,29.803z"/>
<path fill="#F9C802" d="M28.257,31.732c-1.689,4.082-29.527-4.136-21.462-8.888C4.767,13.022,29.832,27.931,28.257,31.732z"/>
<path fill="#F9C802" d="M37.032,33.411c1.689-4.082,29.526,4.134,21.459,8.887C60.521,52.12,35.456,37.212,37.032,33.411z"/>
<path fill="#F9C802" d="M28.665,29.351c-3.504,2.689-23.502-18.345-14.14-18.428C17.676,1.402,31.931,26.847,28.665,29.351z"/>
<path fill="#F9C802" d="M34.354,33.323c3.505-2.69,23.503,18.343,14.142,18.427C45.344,61.271,31.089,35.827,34.354,33.323z"/>
<path fill="#F9C802" d="M30.094,27.546c-4.38,0.577-11.184-27.639-3.032-23.029C34.552-2.152,34.174,27.01,30.094,27.546z"/>
<path fill="#F9C802" d="M33.497,35.146c4.38-0.577,11.184,27.638,3.033,23.03C29.039,64.844,29.418,35.685,33.497,35.146z"/>
<path fill="#F9C802" d="M33.41,28.274c-4.082-1.689,4.134-29.527,8.888-21.46C52.12,4.785,37.213,29.85,33.41,28.274z"/>
<path fill="#F9C802" d="M31.256,35.917c4.08,1.689-4.136,29.526-8.889,21.46C12.544,59.404,27.453,34.342,31.256,35.917z"/>
<radialGradient id="SVGID_1_" cx="93.7822" cy="1083.4355" r="9.7587" gradientTransform="matrix(-0.866 -0.5 1 -1.732 -978.8204 1970.2444)" gradientUnits="userSpaceOnUse">
	<stop  offset="0" style="stop-color:#FFE14F"/>
	<stop  offset="0.2391" style="stop-color:#FFE04B"/>
	<stop  offset="0.4622" style="stop-color:#FEDC40"/>
	<stop  offset="0.6789" style="stop-color:#FCD62D"/>
	<stop  offset="0.8904" style="stop-color:#FACD13"/>
	<stop  offset="1" style="stop-color:#F9C802"/>
	<a:midPointStop  offset="0" style="stop-color:#FFE14F"/>
	<a:midPointStop  offset="0.7212" style="stop-color:#FFE14F"/>
	<a:midPointStop  offset="1" style="stop-color:#F9C802"/>
</radialGradient>
<path fill="url(#SVGID_1_)" d="M29.977,35.768c4.109,2.373-8.541,30.855-12.471,21.602C6.768,58.152,26.151,33.559,29.977,35.768z"
	/>
<radialGradient id="SVGID_2_" cx="-214.2842" cy="114.1621" r="9.7578" gradientTransform="matrix(0.866 0.5 -1 1.732 340.3116 -73.4297)" gradientUnits="userSpaceOnUse">
	<stop  offset="0" style="stop-color:#FFE14F"/>
	<stop  offset="0.2391" style="stop-color:#FFE04B"/>
	<stop  offset="0.4622" style="stop-color:#FEDC40"/>
	<stop  offset="0.6789" style="stop-color:#FCD62D"/>
	<stop  offset="0.8904" style="stop-color:#FACD13"/>
	<stop  offset="1" style="stop-color:#F9C802"/>
	<a:midPointStop  offset="0" style="stop-color:#FFE14F"/>
	<a:midPointStop  offset="0.7212" style="stop-color:#FFE14F"/>
	<a:midPointStop  offset="1" style="stop-color:#F9C802"/>
</radialGradient>
<path fill="url(#SVGID_2_)" d="M34.024,28.23c-4.11-2.371,8.54-30.854,12.47-21.6C57.232,5.848,37.85,30.439,34.024,28.23z"/>
<radialGradient id="SVGID_3_" cx="333.2666" cy="926.2344" r="9.7587" gradientTransform="matrix(-0.5 -0.866 1.299 -0.75 -1019.4214 1023.8524)" gradientUnits="userSpaceOnUse">
	<stop  offset="0" style="stop-color:#FFE857"/>
	<stop  offset="0.3256" style="stop-color:#FEE653"/>
	<stop  offset="0.6293" style="stop-color:#FDE048"/>
	<stop  offset="0.9234" style="stop-color:#FAD535"/>
	<stop  offset="1" style="stop-color:#F9D22F"/>
	<a:midPointStop  offset="0" style="stop-color:#FFE857"/>
	<a:midPointStop  offset="0.7212" style="stop-color:#FFE857"/>
	<a:midPointStop  offset="1" style="stop-color:#F9D22F"/>
</radialGradient>
<path fill="url(#SVGID_3_)" d="M28.364,34.252C30.737,38.359,5.54,56.701,6.763,46.723C-2.928,42.031,26.155,30.426,28.364,34.252z"
	/>
<radialGradient id="SVGID_4_" cx="-454.2085" cy="271.7734" r="9.7587" gradientTransform="matrix(0.5 0.866 -1.299 0.75 626.9989 212.9445)" gradientUnits="userSpaceOnUse">
	<stop  offset="0" style="stop-color:#FFE857"/>
	<stop  offset="0.3256" style="stop-color:#FEE653"/>
	<stop  offset="0.6293" style="stop-color:#FDE048"/>
	<stop  offset="0.9234" style="stop-color:#FAD535"/>
	<stop  offset="1" style="stop-color:#F9D22F"/>
	<a:midPointStop  offset="0" style="stop-color:#FFE857"/>
	<a:midPointStop  offset="0.7212" style="stop-color:#FFE857"/>
	<a:midPointStop  offset="1" style="stop-color:#F9D22F"/>
</radialGradient>
<path fill="url(#SVGID_4_)" d="M35.637,29.748C33.264,25.639,58.46,7.297,57.237,17.275C66.929,21.967,37.847,33.574,35.637,29.748z
	"/>
<radialGradient id="SVGID_5_" cx="462.083" cy="669.7539" r="9.758" gradientTransform="matrix(0 -1 2.0001 0 -1324.6897 494.082)" gradientUnits="userSpaceOnUse">
	<stop  offset="0" style="stop-color:#FFE14F"/>
	<stop  offset="0.2391" style="stop-color:#FFE04B"/>
	<stop  offset="0.4622" style="stop-color:#FEDC40"/>
	<stop  offset="0.6789" style="stop-color:#FCD62D"/>
	<stop  offset="0.8904" style="stop-color:#FACD13"/>
	<stop  offset="1" style="stop-color:#F9C802"/>
	<a:midPointStop  offset="0" style="stop-color:#FFE14F"/>
	<a:midPointStop  offset="0.7212" style="stop-color:#FFE14F"/>
	<a:midPointStop  offset="1" style="stop-color:#F9C802"/>
</radialGradient>
<path fill="url(#SVGID_5_)" d="M27.725,32.131c0,4.744-30.99,8.031-24.942,0.002C-3.265,23.223,27.725,27.713,27.725,32.131z"/>
<radialGradient id="SVGID_6_" cx="-583.1592" cy="527.6699" r="9.758" gradientTransform="matrix(0 1 -2.0001 0 1104.5112 615.1582)" gradientUnits="userSpaceOnUse">
	<stop  offset="0" style="stop-color:#FFDB2B"/>
	<stop  offset="0.3218" style="stop-color:#FED927"/>
	<stop  offset="0.622" style="stop-color:#FDD41C"/>
	<stop  offset="0.9127" style="stop-color:#FACB09"/>
	<stop  offset="1" style="stop-color:#F9C802"/>
	<a:midPointStop  offset="0" style="stop-color:#FFDB2B"/>
	<a:midPointStop  offset="0.7212" style="stop-color:#FFDB2B"/>
	<a:midPointStop  offset="1" style="stop-color:#F9C802"/>
</radialGradient>
<path fill="url(#SVGID_6_)" d="M36.275,31.867c0-4.744,30.991-8.031,24.941,0C67.267,40.775,36.275,36.285,36.275,31.867z"/>
<radialGradient id="SVGID_7_" cx="445.9131" cy="383.5352" r="9.758" gradientTransform="matrix(0.5 -0.866 1.299 0.75 -704.033 121.9403)" gradientUnits="userSpaceOnUse">
	<stop  offset="0" style="stop-color:#FFE857"/>
	<stop  offset="0.3256" style="stop-color:#FEE653"/>
	<stop  offset="0.6293" style="stop-color:#FDE048"/>
	<stop  offset="0.9234" style="stop-color:#FAD535"/>
	<stop  offset="1" style="stop-color:#F9D22F"/>
	<a:midPointStop  offset="0" style="stop-color:#FFE857"/>
	<a:midPointStop  offset="0.7212" style="stop-color:#FFE857"/>
	<a:midPointStop  offset="1" style="stop-color:#F9D22F"/>
</radialGradient>
<path fill="url(#SVGID_7_)" d="M28.231,29.977c-2.371,4.107-30.854-8.541-21.6-12.471C5.847,6.766,30.442,26.15,28.231,29.977z"/>
<radialGradient id="SVGID_8_" cx="-566.4121" cy="814.0625" r="9.7579" gradientTransform="matrix(-0.5 0.866 -1.299 -0.75 821.1293 1141.6285)" gradientUnits="userSpaceOnUse">
	<stop  offset="0" style="stop-color:#FFE857"/>
	<stop  offset="0.3256" style="stop-color:#FEE653"/>
	<stop  offset="0.6293" style="stop-color:#FDE048"/>
	<stop  offset="0.9234" style="stop-color:#FAD535"/>
	<stop  offset="1" style="stop-color:#F9D22F"/>
	<a:midPointStop  offset="0" style="stop-color:#FFE857"/>
	<a:midPointStop  offset="0.7212" style="stop-color:#FFE857"/>
	<a:midPointStop  offset="1" style="stop-color:#F9D22F"/>
</radialGradient>
<path fill="url(#SVGID_8_)" d="M35.77,34.023c2.371-4.109,30.854,8.539,21.6,12.469C58.154,57.232,33.559,37.85,35.77,34.023z"/>
<radialGradient id="SVGID_9_" cx="288.2871" cy="144.0391" r="9.7578" gradientTransform="matrix(0.866 -0.5 1 1.732 -370.2766 -88.1742)" gradientUnits="userSpaceOnUse">
	<stop  offset="0" style="stop-color:#FFDB2B"/>
	<stop  offset="0.3218" style="stop-color:#FED927"/>
	<stop  offset="0.622" style="stop-color:#FDD41C"/>
	<stop  offset="0.9127" style="stop-color:#FACB09"/>
	<stop  offset="1" style="stop-color:#F9C802"/>
	<a:midPointStop  offset="0" style="stop-color:#FFDB2B"/>
	<a:midPointStop  offset="0.7212" style="stop-color:#FFDB2B"/>
	<a:midPointStop  offset="1" style="stop-color:#F9C802"/>
</radialGradient>
<path fill="url(#SVGID_9_)" d="M29.749,28.363c-4.107,2.371-22.451-22.824-12.471-21.6C21.968-2.93,33.574,26.154,29.749,28.363z"/>
<radialGradient id="SVGID_10_" cx="-409.2305" cy="1053.9697" r="9.758" gradientTransform="matrix(-0.866 0.5 -1 -1.732 740.1678 2076.9321)" gradientUnits="userSpaceOnUse">
	<stop  offset="0" style="stop-color:#FFDB2B"/>
	<stop  offset="0.3218" style="stop-color:#FED927"/>
	<stop  offset="0.622" style="stop-color:#FDD41C"/>
	<stop  offset="0.9127" style="stop-color:#FACB09"/>
	<stop  offset="1" style="stop-color:#F9C802"/>
	<a:midPointStop  offset="0" style="stop-color:#FFDB2B"/>
	<a:midPointStop  offset="0.7212" style="stop-color:#FFDB2B"/>
	<a:midPointStop  offset="1" style="stop-color:#F9C802"/>
</radialGradient>
<path fill="url(#SVGID_10_)" d="M34.252,35.637c4.108-2.373,22.451,22.822,12.472,21.6C42.031,66.928,30.427,37.846,34.252,35.637z"
	/>
<radialGradient id="SVGID_11_" cx="32.0322" cy="14.8623" r="9.758" gradientTransform="matrix(1 0 0 1.5 -0.0328 -7.4312)" gradientUnits="userSpaceOnUse">
	<stop  offset="0" style="stop-color:#FFE857"/>
	<stop  offset="0.3256" style="stop-color:#FEE653"/>
	<stop  offset="0.6293" style="stop-color:#FDE048"/>
	<stop  offset="0.9234" style="stop-color:#FAD535"/>
	<stop  offset="1" style="stop-color:#F9D22F"/>
	<a:midPointStop  offset="0" style="stop-color:#FFE857"/>
	<a:midPointStop  offset="0.7212" style="stop-color:#FFE857"/>
	<a:midPointStop  offset="1" style="stop-color:#F9D22F"/>
</radialGradient>
<path fill="url(#SVGID_11_)" d="M31.868,27.725c-4.743,0-8.031-30.992,0-24.941C40.777-3.266,36.287,27.725,31.868,27.725z"/>
<radialGradient id="SVGID_12_" cx="-153.1084" cy="1182.5576" r="9.7579" gradientTransform="matrix(-1 0 0 -1.5 -121.1132 1822.9741)" gradientUnits="userSpaceOnUse">
	<stop  offset="0" style="stop-color:#FFE857"/>
	<stop  offset="0.3256" style="stop-color:#FEE653"/>
	<stop  offset="0.6293" style="stop-color:#FDE048"/>
	<stop  offset="0.9234" style="stop-color:#FAD535"/>
	<stop  offset="1" style="stop-color:#F9D22F"/>
	<a:midPointStop  offset="0" style="stop-color:#FFE857"/>
	<a:midPointStop  offset="0.7212" style="stop-color:#FFE857"/>
	<a:midPointStop  offset="1" style="stop-color:#F9D22F"/>
</radialGradient>
<path fill="url(#SVGID_12_)" d="M32.134,36.275c4.741,0,8.03,30.99,0,24.941C23.223,67.264,27.713,36.275,32.134,36.275z"/>
<path opacity="0.05" fill="#6E8189" d="M29.521,36.16c1.289,0.747-2.879,8.355-10.327,17.884
	C24.203,42.984,28.126,35.358,29.521,36.16z"/>
<path opacity="0.05" fill="#6E8189" d="M34.479,27.837c-1.289-0.744,2.878-8.353,10.327-17.883
	C39.798,21.013,35.874,28.642,34.479,27.837z"/>
<path opacity="0.05" fill="#6E8189" d="M27.77,34.362c0.745,1.29-6.669,5.797-17.883,10.325
	C19.753,37.614,26.966,32.971,27.77,34.362z"/>
<path opacity="0.05" fill="#6E8189" d="M36.229,29.635c-0.744-1.29,6.668-5.796,17.884-10.324
	C44.247,26.384,37.034,31.026,36.229,29.635z"/>
<path opacity="0.05" fill="#6E8189" d="M27.156,31.933c0,1.489-8.674,1.684-20.649,0C18.586,30.737,27.156,30.324,27.156,31.933z"/>
<path opacity="0.05" fill="#6E8189" d="M36.845,32.067c0-1.489,8.674-1.686,20.649,0C45.414,33.26,36.845,33.676,36.845,32.067z"/>
<path opacity="0.05" fill="#6E8189" d="M27.837,29.518c-0.744,1.29-8.353-2.878-17.881-10.324
	C21.013,24.2,28.642,28.126,27.837,29.518z"/>
<path opacity="0.05" fill="#6E8189" d="M36.163,34.479c0.744-1.289,8.353,2.878,17.88,10.327
	C42.987,39.798,35.358,35.871,36.163,34.479z"/>
<path opacity="0.05" fill="#6E8189" d="M29.638,27.771c-1.293,0.744-5.797-6.67-10.325-17.884
	C26.386,19.753,31.03,26.966,29.638,27.771z"/>
<path opacity="0.05" fill="#6E8189" d="M34.362,36.229c1.292-0.746,5.796,6.668,10.325,17.881
	C37.614,44.247,32.971,37.031,34.362,36.229z"/>
<path opacity="0.05" fill="#6E8189" d="M32.068,27.155c-1.489,0-1.686-8.674,0-20.649C33.26,18.586,33.676,27.155,32.068,27.155z"/>
<path opacity="0.05" fill="#6E8189" d="M31.933,36.845c1.489,0,1.685,8.672,0,20.649C30.741,45.412,30.325,36.845,31.933,36.845z"/>
<circle fill="#FFCB3D" cx="32.001" cy="32" r="1.578"/>
<circle fill="#FFAA00" cx="29.069" cy="24.92" r="1.971"/>
<circle fill="#FFAA00" cx="34.933" cy="39.078" r="1.972"/>
<circle fill="#FFAA00" cx="39.08" cy="29.067" r="1.972"/>
<circle fill="#FFAA00" cx="24.922" cy="34.931" r="1.972"/>
<circle fill="#FFAA00" cx="34.932" cy="24.92" r="1.971"/>
<circle fill="#FFAA00" cx="29.069" cy="39.078" r="1.971"/>
<circle fill="#FFAA00" cx="39.078" cy="34.932" r="1.971"/>
<circle fill="#FFAA00" cx="24.922" cy="29.067" r="1.972"/>
<circle fill="#F9B700" cx="32" cy="24.337" r="2.338"/>
<circle fill="#F9B700" cx="32" cy="39.661" r="2.338"/>
<circle fill="#F9B700" cx="39.662" cy="31.999" r="2.338"/>
<circle fill="#F9B700" cx="24.338" cy="31.999" r="2.338"/>
<circle fill="#F9B700" cx="37.418" cy="26.582" r="2.338"/>
<circle fill="#F9B700" cx="26.583" cy="37.417" r="2.337"/>
<circle fill="#F9B700" cx="37.418" cy="37.417" r="2.338"/>
<circle fill="#F9B700" cx="26.583" cy="26.582" r="2.337"/>
<path fill="#FFBD0D" d="M31.745,30.182c0.094,0.232-0.015,0.502-0.248,0.6c-0.235,0.095-0.501-0.017-0.6-0.25
	c-0.098-0.233,0.015-0.5,0.248-0.597C31.378,29.837,31.646,29.948,31.745,30.182z"/>
<path fill="#FFBD0D" d="M33.104,33.466c0.099,0.236-0.013,0.503-0.246,0.6c-0.235,0.098-0.503-0.014-0.601-0.247
	c-0.095-0.233,0.016-0.502,0.249-0.6C32.741,33.123,33.007,33.233,33.104,33.466z"/>
<circle fill="#FFBD0D" cx="33.643" cy="31.32" r="0.457"/>
<path fill="#FFBD0D" d="M30.534,33.103c-0.233,0.098-0.502-0.015-0.601-0.248c-0.094-0.232,0.016-0.501,0.25-0.597
	c0.233-0.098,0.5,0.015,0.599,0.247C30.878,32.739,30.767,33.007,30.534,33.103z"/>
<circle fill="#FFBD0D" cx="32.68" cy="30.356" r="0.458"/>
<circle fill="#FFBD0D" cx="31.321" cy="33.642" r="0.459"/>
<circle fill="#FFBD0D" cx="33.643" cy="32.68" r="0.457"/>
<path fill="#FFBD0D" d="M30.183,31.742c-0.234-0.096-0.344-0.364-0.25-0.597c0.099-0.236,0.367-0.346,0.601-0.248
	c0.233,0.095,0.345,0.363,0.248,0.597C30.683,31.728,30.417,31.84,30.183,31.742z"/>
<circle fill="#F9B700" cx="32.001" cy="30.222" r="0.542"/>
<circle fill="#F9B700" cx="32.001" cy="33.777" r="0.542"/>
<circle fill="#F9B700" cx="33.779" cy="32" r="0.543"/>
<circle fill="#F9B700" cx="30.223" cy="32" r="0.543"/>
<path fill="#F9B700" d="M33.642,31.126c-0.212,0.212-0.556,0.212-0.767,0c-0.213-0.212-0.213-0.555,0-0.766
	c0.211-0.215,0.555-0.215,0.767,0C33.854,30.571,33.854,30.914,33.642,31.126z"/>
<path fill="#F9B700" d="M31.128,33.64c-0.212,0.215-0.558,0.215-0.77,0c-0.21-0.211-0.21-0.554,0-0.766
	c0.212-0.212,0.558-0.212,0.77,0S31.34,33.429,31.128,33.64z"/>
<path fill="#F9B700" d="M32.875,33.64c-0.213-0.211-0.213-0.554,0-0.766c0.211-0.212,0.555-0.212,0.767,0s0.212,0.555,0,0.766
	C33.43,33.854,33.086,33.854,32.875,33.64z"/>
<path fill="#F9B700" d="M30.359,31.126c-0.21-0.212-0.21-0.555,0-0.766c0.212-0.215,0.558-0.215,0.77,0
	c0.212,0.211,0.212,0.554,0,0.766S30.571,31.338,30.359,31.126z"/>
<circle fill="#FFCB3D" cx="27.557" cy="27.556" r="1.294"/>
<circle fill="#FFCB3D" cx="36.445" cy="36.443" r="1.294"/>
<path fill="#FFCB3D" d="M37.359,28.47c-0.506,0.507-1.325,0.506-1.831,0c-0.505-0.505-0.506-1.323,0.002-1.83
	c0.503-0.505,1.323-0.507,1.829,0C37.864,27.146,37.864,27.966,37.359,28.47z"/>
<path fill="#FFCB3D" d="M28.472,37.358c-0.506,0.506-1.325,0.505-1.83,0.001c-0.508-0.506-0.506-1.325-0.001-1.831
	c0.506-0.506,1.323-0.506,1.833,0C28.977,36.032,28.978,36.854,28.472,37.358z"/>
<circle fill="#FFCB3D" cx="32" cy="25.717" r="1.295"/>
<circle fill="#FFCB3D" cx="31.999" cy="38.284" r="1.294"/>
<circle fill="#FFCB3D" cx="38.284" cy="32" r="1.293"/>
<circle fill="#FFCB3D" cx="25.716" cy="32" r="1.294"/>
<path fill="#FFC21C" d="M31.367,25.459c0.406,0.98-0.059,2.101-1.035,2.507c-0.981,0.406-2.103-0.059-2.509-1.039
	c-0.404-0.978,0.06-2.101,1.039-2.506C29.839,24.016,30.962,24.482,31.367,25.459z"/>
<circle fill="#FFC21C" cx="34.405" cy="37.807" r="1.917"/>
<circle fill="#FFC21C" cx="37.806" cy="29.595" r="1.918"/>
<circle fill="#FFC21C" cx="26.194" cy="34.405" r="1.918"/>
<circle fill="#FFC21C" cx="34.405" cy="26.193" r="1.919"/>
<circle fill="#FFC21C" cx="29.596" cy="37.806" r="1.917"/>
<circle fill="#FFC21C" cx="37.806" cy="34.404" r="1.917"/>
<circle fill="#FFC21C" cx="26.194" cy="29.594" r="1.918"/>
<circle fill="#FFCB3D" cx="30.078" cy="30.077" r="0.819"/>
<path fill="#FFCB3D" d="M34.503,33.344c0.317,0.32,0.317,0.838,0,1.157c-0.32,0.32-0.839,0.32-1.156,0
	c-0.322-0.319-0.322-0.837,0-1.157C33.664,33.026,34.183,33.026,34.503,33.344z"/>
<path fill="#FFCB3D" d="M34.503,30.656c-0.32,0.32-0.839,0.317-1.156,0c-0.322-0.321-0.322-0.839,0-1.157
	c0.317-0.32,0.836-0.32,1.156,0C34.82,29.817,34.82,30.335,34.503,30.656z"/>
<path fill="#FFCB3D" d="M30.657,34.501c-0.319,0.319-0.837,0.319-1.157,0.002c-0.32-0.321-0.317-0.839,0-1.159
	c0.32-0.317,0.835-0.317,1.159,0C30.976,33.662,30.976,34.182,30.657,34.501z"/>
<circle fill="#FFCB3D" cx="32" cy="29.282" r="0.817"/>
<path fill="#FFCB3D" d="M32.818,34.721c0,0.452-0.366,0.818-0.816,0.818s-0.822-0.366-0.818-0.821c0-0.452,0.363-0.816,0.818-0.816
	C32.452,33.899,32.818,34.269,32.818,34.721z"/>
<path fill="#FFCB3D" d="M34.72,32.818c-0.45,0-0.817-0.366-0.817-0.817c0-0.454,0.363-0.817,0.817-0.817
	c0.452-0.003,0.818,0.363,0.818,0.817C35.538,32.448,35.172,32.818,34.72,32.818z"/>
<circle fill="#FFCB3D" cx="29.281" cy="32" r="0.818"/>
<path fill="#FFC21C" d="M31.728,29.169c0.175,0.426-0.027,0.91-0.45,1.084c-0.422,0.177-0.907-0.024-1.085-0.446
	c-0.176-0.426,0.025-0.911,0.451-1.087C31.066,28.546,31.551,28.747,31.728,29.169z"/>
<circle fill="#FFC21C" cx="33.041" cy="34.513" r="0.83"/>
<circle fill="#FFC21C" cx="34.513" cy="30.96" r="0.83"/>
<circle fill="#FFC21C" cx="29.488" cy="33.041" r="0.83"/>
<path fill="#FFC21C" d="M33.808,29.803c-0.176,0.426-0.659,0.627-1.083,0.45c-0.422-0.174-0.623-0.661-0.45-1.084
	c0.178-0.422,0.663-0.623,1.084-0.449C33.782,28.896,33.985,29.381,33.808,29.803z"/>
<path fill="#FFC21C" d="M31.728,34.83c-0.177,0.426-0.662,0.624-1.084,0.45c-0.426-0.177-0.627-0.662-0.451-1.084
	c0.178-0.426,0.663-0.626,1.085-0.451C31.701,33.923,31.903,34.407,31.728,34.83z"/>
<circle fill="#FFC21C" cx="34.513" cy="33.041" r="0.83"/>
<path fill="#FFC21C" d="M29.172,31.726c-0.426-0.175-0.626-0.659-0.452-1.084c0.176-0.424,0.662-0.624,1.087-0.45
	c0.422,0.176,0.623,0.66,0.448,1.086C30.08,31.7,29.595,31.901,29.172,31.726z"/>
<circle fill="#FFCB3D" cx="30.429" cy="28.204" r="1.056"/>
<circle fill="#FFCB3D" cx="33.573" cy="35.794" r="1.057"/>
<circle fill="#FFCB3D" cx="35.795" cy="30.427" r="1.058"/>
<circle fill="#FFCB3D" cx="28.205" cy="33.571" r="1.058"/>
<path fill="#FFCB3D" d="M34.549,28.608c-0.224,0.54-0.842,0.797-1.383,0.572c-0.539-0.223-0.793-0.842-0.57-1.382
	c0.222-0.539,0.841-0.794,1.38-0.571C34.516,27.451,34.772,28.069,34.549,28.608z"/>
<circle fill="#FFCB3D" cx="30.428" cy="35.794" r="1.057"/>
<circle fill="#FFCB3D" cx="35.795" cy="33.572" r="1.057"/>
<circle fill="#FFCB3D" cx="28.205" cy="30.427" r="1.058"/>
<circle fill="#FFD04F" cx="31.999" cy="27.892" r="1.254"/>
<circle fill="#FFD04F" cx="31.999" cy="36.106" r="1.254"/>
<circle fill="#FFD04F" cx="36.108" cy="32" r="1.253"/>
<circle fill="#FFD04F" cx="27.893" cy="32" r="1.253"/>
<circle fill="#FFD04F" cx="34.905" cy="29.096" r="1.253"/>
<circle fill="#FFD04F" cx="29.096" cy="34.904" r="1.254"/>
<circle fill="#FFD04F" cx="34.905" cy="34.904" r="1.253"/>
<circle fill="#FFD04F" cx="29.096" cy="29.096" r="1.254"/>
</svg>
