<?xml version="1.0" encoding="utf-8"?>
<!-- Generator: Adobe Illustrator 24.1.2, SVG Export Plug-In . SVG Version: 6.00 Build 0)  -->
<svg version="1.1" id="Layer_1" xmlns="http://www.w3.org/2000/svg" xmlns:xlink="http://www.w3.org/1999/xlink" x="0px" y="0px"
	 width="64px" height="64px" viewBox="0 0 64 64" style="enable-background:new 0 0 64 64;" xml:space="preserve">
<style type="text/css">
	.st0{fill:#7AC700;}
	.st1{fill:#90E300;}
	.st2{fill:url(#SVGID_1_);}
	.st3{fill:url(#SVGID_2_);}
	.st4{fill:url(#SVGID_3_);}
	.st5{fill:url(#SVGID_4_);}
	.st6{fill:url(#SVGID_5_);}
	.st7{opacity:0.2;fill:#820036;}
	.st8{fill:#FA5F7C;}
	.st9{fill:#FAE420;}
	.st10{fill:#FEF970;}
	.st11{fill:#FFB5C2;}
	.st12{fill:#FFA1B1;}
	.st13{fill:#FFC2CC;}
	.st14{fill:#FFDC82;}
</style>
<path class="st0" d="M22.57,42.43c5.06,15.21-15.72,13.6-15.72,13.6S15.1,44.2,22.57,42.43z"/>
<path class="st1" d="M22.57,42.43c-6.98,2.66-15.72,13.6-15.72,13.6S8.38,36.12,22.57,42.43z"/>
<path class="st0" d="M35.8,39.86C25.77,56.39,45.79,61,45.79,61S42.19,44.31,35.8,39.86z"/>
<path class="st1" d="M35.8,39.86C41.41,45.22,45.79,61,45.79,61S51.29,36.81,35.8,39.86z"/>
<path class="st0" d="M41.5,28.67c11.63,12.4,20.5-7.1,20.5-7.1S46.87,22.87,41.5,28.67z"/>
<path class="st1" d="M41.5,28.67c5.96-4.9,20.5-7.1,20.5-7.1S42.71,12.66,41.5,28.67z"/>
<linearGradient id="SVGID_1_" gradientUnits="userSpaceOnUse" x1="32.8026" y1="30.7566" x2="26.3129" y2="58.1573">
	<stop  offset="0.0667" style="stop-color:#820036"/>
	<stop  offset="0.0808" style="stop-color:#87033B"/>
	<stop  offset="0.2096" style="stop-color:#B21F64"/>
	<stop  offset="0.3345" style="stop-color:#D33584"/>
	<stop  offset="0.453" style="stop-color:#EB459B"/>
	<stop  offset="0.5626" style="stop-color:#FA4FA9"/>
	<stop  offset="0.6545" style="stop-color:#FF52AE"/>
</linearGradient>
<path class="st2" d="M32.58,30.84c6.05,3.02,13.21,14.44,5.34,23.23c-0.46,4.56-5.55,5.02-5.55,5.02s-2.82,2.28-6.73,0.11
	c-4.67-0.7-5.11-3.94-5.11-3.94s-3.29-2.16-2.79-5.74C14.13,40.5,25,34.48,32.58,30.84z"/>
<linearGradient id="SVGID_2_" gradientUnits="userSpaceOnUse" x1="32.806" y1="30.6409" x2="3.8596" y2="35.9106">
	<stop  offset="0.0667" style="stop-color:#820036"/>
	<stop  offset="0.0808" style="stop-color:#87033B"/>
	<stop  offset="0.2096" style="stop-color:#B21C62"/>
	<stop  offset="0.3345" style="stop-color:#D33082"/>
	<stop  offset="0.453" style="stop-color:#EB3E98"/>
	<stop  offset="0.5626" style="stop-color:#FA47A5"/>
	<stop  offset="0.6545" style="stop-color:#FF4AAA"/>
</linearGradient>
<path class="st3" d="M32.64,30.9c0.35,6.62-8.18,17.06-20.75,15.41c0,0-4.5,1.11-6.02-3.46c0,0-3.87-1.87-2.82-6.73
	c-2.88-6.08,1.09-8.7,1.09-8.7c0.97-3.67,5.14-4.21,5.14-4.21C16.11,17.55,26.28,25.32,32.64,30.9z"/>
<linearGradient id="SVGID_3_" gradientUnits="userSpaceOnUse" x1="33.2336" y1="30.3378" x2="16.9101" y2="5.8528">
	<stop  offset="0.0667" style="stop-color:#820036"/>
	<stop  offset="0.0808" style="stop-color:#87033B"/>
	<stop  offset="0.2096" style="stop-color:#B21961"/>
	<stop  offset="0.3345" style="stop-color:#D32B7F"/>
	<stop  offset="0.453" style="stop-color:#EB3894"/>
	<stop  offset="0.5626" style="stop-color:#FA3FA2"/>
	<stop  offset="0.6545" style="stop-color:#FF42A6"/>
</linearGradient>
<path class="st4" d="M32.62,30.84c3.04-7.4,5.26-20.47-2.51-25.19c-2.48-3.91-7.21-2.35-7.21-2.35c-5.25-0.58-6.6,3.08-6.6,3.08
	c-4.15,0.94-4.4,6.13-4.4,6.13c-2.02,4.11,0.33,6.51,0.33,6.51C14.8,28.97,26.44,32.16,32.62,30.84z"/>
<linearGradient id="SVGID_4_" gradientUnits="userSpaceOnUse" x1="-12.5411" y1="29.2817" x2="0.1366" y2="2.5091" gradientTransform="matrix(0.9875 0.1575 -0.1575 0.9875 49.6503 5.0727)">
	<stop  offset="0.0667" style="stop-color:#820036"/>
	<stop  offset="0.0808" style="stop-color:#87033B"/>
	<stop  offset="0.2096" style="stop-color:#B21F64"/>
	<stop  offset="0.3345" style="stop-color:#D33584"/>
	<stop  offset="0.453" style="stop-color:#EB459B"/>
	<stop  offset="0.5626" style="stop-color:#FA4FA9"/>
	<stop  offset="0.6545" style="stop-color:#FF52AE"/>
</linearGradient>
<path class="st5" d="M31.95,31.53c11.1-0.36,22.57-3.68,22.66-11.21c0,0,3.3-5.1-1.4-9.1c0,0-0.66-4.11-4.87-4.4
	c0,0-2.73-3.58-7.43-1.71c0,0-4.79-1-6.77,3.16C27.38,13.59,27.91,26.79,31.95,31.53z"/>
<linearGradient id="SVGID_5_" gradientUnits="userSpaceOnUse" x1="32.3503" y1="31.4565" x2="60.1795" y2="44.0681">
	<stop  offset="0.0667" style="stop-color:#820036"/>
	<stop  offset="0.0808" style="stop-color:#87033B"/>
	<stop  offset="0.2096" style="stop-color:#B21961"/>
	<stop  offset="0.3345" style="stop-color:#D32B7F"/>
	<stop  offset="0.453" style="stop-color:#EB3894"/>
	<stop  offset="0.5626" style="stop-color:#FA3FA2"/>
	<stop  offset="0.6545" style="stop-color:#FF42A6"/>
</linearGradient>
<path class="st6" d="M32.58,30.75c4.23-6.87,18.2-6.95,23.41-1.77c4.71,1.86,3.84,6.24,3.84,6.24s3.16,3.65,0.01,7.82
	c-0.2,5.69-4.85,6.41-4.85,6.41s-1.68,5.63-7.87,2.18c0,0-4.77-0.57-5.87-4.46C40.74,36.57,33.96,35.88,32.58,30.75z"/>
<path class="st7" d="M11.08,42.18c12.28,0.4,20.69-10.03,20.69-10.03S23.25,44.97,11.08,42.18z"/>
<path class="st7" d="M9.26,36.9c13.59,1.96,22.06-4.74,22.06-4.74S22.89,40.6,9.26,36.9z"/>
<path class="st7" d="M9.59,30.77c11.48,2.72,21.97,1.21,21.97,1.21S20.56,35.11,9.59,30.77z"/>
<path class="st7" d="M14.3,11.12c2.77,12.94,14.97,19.24,14.97,19.24S14.73,24.52,14.3,11.12z"/>
<path class="st7" d="M18.93,7.95c1.6,14.68,10.22,21.93,10.22,21.93S18.85,23.09,18.93,7.95z"/>
<path class="st7" d="M24.92,6.83c0.32,12.66,4.47,23.27,4.47,23.27S23.55,19.34,24.92,6.83z"/>
<path class="st7" d="M34.54,50.83c3.91-8.72-1.51-18.04-1.51-18.04S40.23,42.94,34.54,50.83z"/>
<path class="st7" d="M29.21,52.42c4.91-9.84,3.69-19.3,3.69-19.3S35.96,43.72,29.21,52.42z"/>
<path class="st7" d="M25.46,48.32c5.43-7.41,7.37-15.44,7.37-15.44S31.98,41.79,25.46,48.32z"/>
<path class="st7" d="M38.77,10.33c-7.84,5.41-6.46,18.14-6.46,18.14S29.49,13.67,38.77,10.33z"/>
<path class="st7" d="M44.89,12.7c-9.35,5.74-12.31,15.57-12.31,15.57S34.18,16.03,44.89,12.7z"/>
<path class="st7" d="M46.88,19.28c-8.81,3.07-14.34,9.25-14.34,9.25S37.37,20.74,46.88,19.28z"/>
<path class="st7" d="M51.99,37.94c-6.24-7.7-17.1-7.17-17.1-7.17S47.28,29.02,51.99,37.94z"/>
<path class="st7" d="M55.94,33.72c-9.4-6.96-20.82-4.48-20.82-4.48S47.75,25.2,55.94,33.72z"/>
<path class="st7" d="M51.1,43.56c-6.82-9.14-15.98-12.5-15.98-12.5S46.13,33.29,51.1,43.56z"/>
<path class="st7" d="M45.73,45.04C41.35,36.57,34.88,31,34.88,31S42.62,36,45.73,45.04z"/>
<path class="st8" d="M16.83,12.85C29.86,25.84,31.24,33.23,33.19,31.8C34.03,30.01,22.07,12.97,16.83,12.85z"/>
<path class="st9" d="M17.03,15.65c-0.57,1.61-2.97,0.76-2.4-0.86C15.2,13.18,17.6,14.03,17.03,15.65z"/>
<path class="st9" d="M19.47,12.09c-0.57,1.61-2.97,0.76-2.4-0.85C17.63,9.62,20.03,10.48,19.47,12.09z"/>
<path class="st10" d="M17.82,17.65c-0.57,1.61-2.97,0.75-2.4-0.86C15.99,15.18,18.39,16.04,17.82,17.65z"/>
<path class="st11" d="M19.06,15.32c-0.53,1.52-2.8,0.72-2.27-0.81C17.32,12.99,19.59,13.8,19.06,15.32z"/>
<path class="st12" d="M19.11,13.07c-0.54,1.54-2.84,0.73-2.29-0.82C17.35,10.71,19.65,11.52,19.11,13.07z"/>
<path class="st9" d="M21.07,19.59c-0.68,1.92-3.53,0.9-2.85-1.01C18.89,16.66,21.74,17.68,21.07,19.59z"/>
<path class="st10" d="M21.99,18.57c-0.57,1.61-2.97,0.76-2.4-0.86C20.16,16.1,22.56,16.95,21.99,18.57z"/>
<path class="st10" d="M24.65,21.73c-0.57,1.61-2.97,0.76-2.4-0.86C22.82,19.26,25.22,20.12,24.65,21.73z"/>
<path class="st10" d="M21.67,11.65c-0.57,1.62-2.97,0.76-2.4-0.86C19.84,9.18,22.24,10.04,21.67,11.65z"/>
<path class="st13" d="M20.91,14.1c-0.57,1.62-2.97,0.76-2.4-0.86C19.08,11.64,21.48,12.49,20.91,14.1z"/>
<path class="st9" d="M24.1,18.99c-0.57,1.62-2.97,0.76-2.4-0.86C22.27,16.52,24.67,17.38,24.1,18.99z"/>
<path class="st9" d="M24.68,15.94c-0.57,1.62-2.97,0.76-2.4-0.85C22.84,13.47,25.24,14.33,24.68,15.94z"/>
<path class="st13" d="M17.57,14.08c-0.57,1.62-2.97,0.76-2.4-0.85C15.74,11.61,18.14,12.47,17.57,14.08z"/>
<path class="st14" d="M23.28,16.94c-0.57,1.61-2.97,0.76-2.4-0.86C21.45,14.47,23.85,15.32,23.28,16.94z"/>
<path class="st14" d="M25.99,18.35c-0.57,1.61-2.96,0.76-2.4-0.86C24.15,15.88,26.55,16.73,25.99,18.35z"/>
<path class="st14" d="M23.05,20.75c-0.57,1.61-2.97,0.76-2.4-0.85C21.21,18.28,23.61,19.13,23.05,20.75z"/>
<path class="st9" d="M23.85,13.51c-0.66,1.88-3.44,0.88-2.79-0.99C21.72,10.64,24.51,11.63,23.85,13.51z"/>
<path class="st10" d="M24.01,14.81c-0.54,1.55-2.85,0.73-2.31-0.82S24.56,13.26,24.01,14.81z"/>
<path class="st10" d="M27.55,20.23c-0.55,1.55-2.85,0.73-2.31-0.82C25.79,17.86,28.1,18.68,27.55,20.23z"/>
<path class="st14" d="M20.37,17.59c-0.66,1.88-3.45,0.88-2.79-0.99C18.25,14.72,21.03,15.71,20.37,17.59z"/>
</svg>
