<?xml version="1.0" encoding="utf-8"?>
<!-- Generator: Adobe Illustrator 15.0.0, SVG Export Plug-In . SVG Version: 6.00 Build 0)  -->
<!DOCTYPE svg PUBLIC "-//W3C//DTD SVG 1.1//EN" "http://www.w3.org/Graphics/SVG/1.1/DTD/svg11.dtd" [
	<!ENTITY ns_flows "http://ns.adobe.com/Flows/1.0/">
	<!ENTITY ns_extend "http://ns.adobe.com/Extensibility/1.0/">
	<!ENTITY ns_ai "http://ns.adobe.com/AdobeIllustrator/10.0/">
	<!ENTITY ns_graphs "http://ns.adobe.com/Graphs/1.0/">
]>
<svg version="1.1" id="Layer_1" xmlns:x="&ns_extend;" xmlns:i="&ns_ai;" xmlns:graph="&ns_graphs;"
	 xmlns="http://www.w3.org/2000/svg" xmlns:xlink="http://www.w3.org/1999/xlink" xmlns:a="http://ns.adobe.com/AdobeSVGViewerExtensions/3.0/"
	 x="0px" y="0px" width="64px" height="64px" viewBox="0 0 64 64" enable-background="new 0 0 64 64" xml:space="preserve">
<path fill="#92C932" d="M41.3,0.109c-0.273,0.962-1.16,3.802-1.16,3.802s0.289-2.668,0.425-3.61
	c-1.308,0.325-3.232,1.609-4.777,3.215c-0.11,1.231-0.174,2.465-0.197,3.694c-0.086-1.085-0.145-2.179-0.173-3.278
	c-1.302,1.519-2.447,3.465-3.313,5.606c0.08,1.323,0.315,5.083,0.315,5.083s-0.592-2.687-0.778-3.789
	c-0.103,0.274-0.738,2.385-0.892,3.078c0.218,1.519,0.488,3.013,0.803,4.475c-0.346-1.107-0.664-2.237-0.958-3.391
	c0,1.349,0.493,3.699,0.772,6.584c1.691-9.677,6.208-16.721,12.486-19.358c0.518-0.81,0.986-1.304,0.986-1.304
	c-0.013,0.019-0.271-0.336-0.621-0.502L42.75,2.198l0.946-2.008C43.041-0.026,42.222-0.064,41.3,0.109z"/>
<path fill="#7AB51D" d="M34.569,18.458c0.175-0.367,0.357-0.741,0.541-1.118c-0.666-0.004-1.331,0.042-1.999,0.137
	c0.756-0.313,1.52-0.544,2.286-0.7c0.287-0.566,0.588-1.127,0.901-1.685c-0.464-0.077-1.979-0.133-1.979-0.133
	s1.978-0.753,2.509-0.784c0.728-1.267,1.044-1.706,1.868-2.825c-0.679-0.299-2.512-1.33-2.512-1.33s2.44,0.182,3.217,0.372
	c0.53-0.702,0.798-1.012,1.328-1.631c-0.467-0.285-2.135-1.439-2.135-1.439s2.17,0.569,2.703,0.788
	c0.547-0.633,2.653-2.965,3.49-4.167c0.142-0.205-1.837-0.916-1.837-0.916s2.288,0.012,2.314-0.09
	c0.027-0.109,0.018-1.121-0.018-1.247c-7.008,2.128-12.065,9.503-13.881,19.888C31.949,20.623,34.475,18.662,34.569,18.458z"/>
<path opacity="0.25" fill="#263D00" d="M35.6,15.8c-0.951,0.059-1.901,0.225-2.847,0.503c-0.027,0.094-0.056,0.187-0.083,0.278
	C33.639,16.196,34.616,15.938,35.6,15.8z"/>
<path opacity="0.25" fill="#263D00" d="M34.573,18.165c-0.924,0.194-1.846,0.5-2.751,0.924c-0.021,0.097-0.043,0.199-0.064,0.298
	C32.68,18.85,33.621,18.444,34.573,18.165z"/>
<path opacity="0.25" fill="#263D00" d="M36.671,13.404c-0.976-0.097-1.958-0.094-2.941,0.02c-0.033,0.086-0.067,0.169-0.102,0.254
	C34.641,13.467,35.659,13.377,36.671,13.404z"/>
<path opacity="0.25" fill="#263D00" d="M37.881,11.547c-0.987-0.244-1.992-0.391-3.001-0.437c-0.038,0.077-0.08,0.154-0.122,0.231
	C35.808,11.296,36.85,11.366,37.881,11.547z"/>
<path opacity="0.25" fill="#263D00" d="M39.608,9.483c-1-0.521-2.022-0.956-3.065-1.296c-0.053,0.059-0.104,0.119-0.154,0.18
	C37.482,8.632,38.558,9.01,39.608,9.483z"/>
<path opacity="0.25" fill="#263D00" d="M41.938,7.21c-0.991-0.602-2.01-1.119-3.05-1.546c-0.056,0.052-0.109,0.106-0.165,0.162
	C39.818,6.186,40.892,6.649,41.938,7.21z"/>
<path opacity="0.25" fill="#263D00" d="M44.107,4.567c-0.902-0.411-1.818-0.747-2.75-1.007c-0.063,0.042-0.127,0.085-0.19,0.129"/>
<path opacity="0.25" fill="#263D00" d="M31.159,12.813c0.286,1.688,0.631,3.337,1.029,4.943c-0.026,0.095-0.051,0.189-0.076,0.284
	C31.729,16.341,31.409,14.596,31.159,12.813z"/>
<path opacity="0.25" fill="#263D00" d="M32.855,8.771c0.181,1.679,0.425,3.33,0.729,4.949c-0.032,0.087-0.066,0.175-0.098,0.263
	C33.208,12.279,32.993,10.537,32.855,8.771z"/>
<path opacity="0.25" fill="#263D00" d="M34.54,5.473c0.073,1.658,0.215,3.299,0.418,4.912c-0.04,0.077-0.079,0.159-0.116,0.239
	C34.623,8.473,34.56,6.829,34.54,5.473z"/>
<path opacity="0.25" fill="#263D00" d="M37.444,2.49c-0.13,1.564-0.19,3.133-0.18,4.7c-0.051,0.061-0.1,0.124-0.151,0.186
	C37.146,5.747,37.253,4.114,37.444,2.49z"/>
<path opacity="0.25" fill="#263D00" d="M39.693,0.793c-0.251,1.487-0.428,2.995-0.531,4.504c-0.055,0.051-0.114,0.101-0.168,0.154
	C39.144,3.886,39.376,2.328,39.693,0.793z"/>
<path opacity="0.25" fill="#263D00" d="M42.194,0.285c0,0-1.094,2.411-1.371,3.729c-0.063,0.047-0.126,0.091-0.187,0.138
	C40.967,2.779,42.194,0.285,42.194,0.285z"/>
<path fill="#70A61B" d="M45.248,1.691c-8.305,1.995-12.207,10.591-13.956,19.294c-0.121,0.739,0.12,0.89,0.232,0.301
	C33.187,13.537,36.216,5.108,45.248,1.691z"/>
<path fill="#92C932" d="M6.956,10.939c0.938,0.495,3.807,1.876,3.807,1.876s-2.014-1.791-2.769-2.393
	c1.836-0.931,5.041-1.685,7.968-1.845c0.899,0.847,1.746,1.736,2.538,2.664c-0.564-0.914-1.171-1.807-1.819-2.677
	c2.571-0.01,5.211,0.452,7.622,1.317c0.717,1.091,2.756,4.195,2.756,4.195s-0.927-2.601-1.378-3.618
	c0.298,0.118,2.401,1.167,3.025,1.562c0.668,1.365,1.259,2.759,1.771,4.168c-0.257-1.164-0.559-2.321-0.904-3.475
	c0.837,1.039,1.677,3.292,3.117,5.764c-8.118-5.914-18.132-7.25-27.616-3.604c-1.15-0.154-2.044-0.111-2.044-0.111
	c0.025,0.002,0.13-0.503,0.465-0.948l2.94,0.045l-2.427-0.689C4.694,12.411,5.694,11.641,6.956,10.939z"/>
<path fill="#7AB51D" d="M26.749,18.973c-0.446-0.124-0.905-0.248-1.371-0.371c0.831-0.605,1.693-1.173,2.587-1.702
	c-1.141,0.444-2.24,0.954-3.294,1.527c-0.71-0.174-1.434-0.334-2.172-0.48c0.534-0.478,2.391-1.891,2.391-1.891
	s-2.938,1.208-3.619,1.663c-1.697-0.315-2.365-0.367-4.089-0.484c0.662-0.843,2.314-3.292,2.314-3.292s-2.938,2.346-3.792,3.193
	c-1.098-0.06-1.623-0.058-2.67-0.054c0.403-0.642,1.776-3.038,1.776-3.038s-2.361,2.401-2.892,3.049
	c-1.078,0.007-5.156,0.119-6.949-0.05c-0.303-0.029,1.729-2.365,1.729-2.365S3.847,16.756,3.75,16.7
	C3.647,16.642,3.032,15.854,3,15.725c10.082-4.698,20.977-3.595,29.689,2.752C31.37,18.268,26.992,19.044,26.749,18.973z"/>
<path opacity="0.25" fill="#263D00" d="M23.812,17.859c1.225-0.814,2.519-1.546,3.872-2.188c0.093,0.047,0.185,0.093,0.275,0.14
	C26.51,16.389,25.125,17.076,23.812,17.859z"/>
<path opacity="0.25" fill="#263D00" d="M26.563,18.749c1.277-0.687,2.617-1.283,4.012-1.776c0.088,0.056,0.177,0.114,0.266,0.171
	C29.353,17.566,27.924,18.104,26.563,18.749z"/>
<path opacity="0.25" fill="#263D00" d="M20.986,16.983c1.159-0.956,2.391-1.842,3.69-2.644c0.097,0.036,0.191,0.068,0.286,0.103
	C23.563,15.196,22.234,16.048,20.986,16.983z"/>
<path opacity="0.25" fill="#263D00" d="M18.323,16.648c1.082-1.08,2.246-2.1,3.48-3.048c0.098,0.024,0.194,0.046,0.295,0.068
	C20.76,14.58,19.5,15.577,18.323,16.648z"/>
<path opacity="0.25" fill="#263D00" d="M14.884,16.622c0.927-1.303,1.937-2.563,3.029-3.769c0.1,0,0.203-0.001,0.305,0
	C17.014,14.047,15.903,15.309,14.884,16.622z"/>
<path opacity="0.25" fill="#263D00" d="M10.561,16.979c0.868-1.359,1.819-2.677,2.854-3.947c0.102-0.008,0.204-0.016,0.307-0.025
	C12.574,14.276,11.52,15.603,10.561,16.979z"/>
<path opacity="0.25" fill="#263D00" d="M6.209,16.907c0.872-1.13,1.81-2.219,2.813-3.26c0.105-0.025,0.211-0.049,0.318-0.074"/>
<path opacity="0.25" fill="#263D00" d="M27.513,11.546c0.688,1.557,1.281,3.138,1.776,4.733c0.092,0.049,0.182,0.099,0.273,0.149
	C28.986,14.775,28.304,13.145,27.513,11.546z"/>
<path opacity="0.25" fill="#263D00" d="M22.886,9.97c0.814,1.456,1.531,2.947,2.156,4.467c0.096,0.037,0.191,0.075,0.286,0.114
	C24.621,12.988,23.805,11.454,22.886,9.97z"/>
<path opacity="0.25" fill="#263D00" d="M18.733,8.955c0.935,1.344,1.776,2.732,2.523,4.159c0.098,0.021,0.196,0.05,0.295,0.076
	C20.492,11.338,19.55,10.016,18.733,8.955z"/>
<path opacity="0.25" fill="#263D00" d="M13.25,9.286c1.137,1.086,2.182,2.239,3.141,3.454c0.099,0.001,0.202,0.004,0.305,0.006
	C15.646,11.521,14.498,10.361,13.25,9.286z"/>
<path opacity="0.25" fill="#263D00" d="M9.387,10.015c1.24,0.916,2.394,1.916,3.461,2.984c0.099-0.011,0.203-0.025,0.305-0.034
	C11.992,11.897,10.737,10.908,9.387,10.015z"/>
<path opacity="0.25" fill="#263D00" d="M5.945,11.883c0,0,2.861,0.867,4.026,1.63c0.107-0.021,0.214-0.045,0.319-0.063
	C9.027,12.693,5.945,11.883,5.945,11.883z"/>
<path fill="#70A61B" d="M3,15.725c11.618-5.971,21.83-2.885,29.413,2.228c0.611,0.459,0.402,0.794-0.104,0.443
	C25.425,13.936,16.413,10.188,3,15.725z"/>
<path fill="#92C932" d="M9.631,30.894c1.004-0.349,3.972-1.507,3.972-1.507s-2.698,0.26-3.658,0.403
	c0.542-1.964,2.138-4.807,3.992-7.046c1.241-0.084,2.478-0.101,3.704-0.052c-1.063-0.206-2.142-0.367-3.229-0.481
	c1.726-1.88,3.852-3.49,6.124-4.663c1.301,0.212,5,0.822,5,0.822s-2.572-1.079-3.637-1.436c0.288-0.138,2.492-0.961,3.208-1.15
	c1.474,0.434,2.914,0.945,4.315,1.521c-1.045-0.598-2.114-1.158-3.212-1.685c1.342,0.092,3.596,0.999,6.417,1.618
	c-9.901,1.923-17.654,8.314-21.322,17.68c-0.891,0.733-1.461,1.412-1.461,1.412c0.02-0.018-0.289-0.434-0.395-0.978l2.015-2.11
	l-2.152,1.303C9.207,33.533,9.306,32.286,9.631,30.894z"/>
<path fill="#7AB51D" d="M28.993,21.897c-0.394,0.242-0.796,0.493-1.203,0.749c0.108-1.014,0.265-2.024,0.471-3.032
	c-0.436,1.129-0.796,2.275-1.077,3.428c-0.609,0.4-1.219,0.82-1.825,1.258c0.003-0.711,0.197-3.016,0.197-3.016
	s-1.076,2.953-1.196,3.756c-1.38,1.024-1.867,1.475-3.118,2.651c-0.186-1.05-0.904-3.905-0.904-3.905s-0.227,3.722-0.168,4.915
	c-0.785,0.759-1.138,1.143-1.842,1.908c-0.206-0.727-1.074-3.343-1.074-3.343s0.205,3.34,0.333,4.163
	c-0.722,0.79-3.391,3.834-4.724,5.026c-0.228,0.201-0.605-2.853-0.605-2.853s-0.368,3.478-0.475,3.511
	c-0.113,0.035-1.117-0.049-1.237-0.111c3.284-10.51,11.456-17.701,22.083-19.764C31.581,18.056,29.211,21.768,28.993,21.897z"/>
<path opacity="0.25" fill="#263D00" d="M26.18,23.286c0.215-1.442,0.54-2.876,0.973-4.295c0.098-0.037,0.194-0.072,0.29-0.106
	C26.898,20.328,26.479,21.8,26.18,23.286z"/>
<path opacity="0.25" fill="#263D00" d="M28.7,21.881c0.347-1.392,0.804-2.77,1.375-4.119c0.102-0.026,0.206-0.051,0.308-0.078
	C29.696,19.052,29.136,20.455,28.7,21.881z"/>
<path opacity="0.25" fill="#263D00" d="M23.618,24.752c0.066-1.489,0.232-2.982,0.509-4.47c0.092-0.046,0.182-0.094,0.271-0.14
	C24.019,21.67,23.76,23.212,23.618,24.752z"/>
<path opacity="0.25" fill="#263D00" d="M21.571,26.464c-0.079-1.516-0.058-3.051,0.064-4.589c0.084-0.054,0.167-0.111,0.249-0.169
	C21.665,23.297,21.563,24.886,21.571,26.464z"/>
<path opacity="0.25" fill="#263D00" d="M19.232,28.953c-0.352-1.554-0.614-3.14-0.78-4.748c0.069-0.073,0.137-0.149,0.207-0.222
	C18.739,25.666,18.937,27.324,19.232,28.953z"/>
<path opacity="0.25" fill="#263D00" d="M16.584,32.342c-0.433-1.548-0.776-3.13-1.03-4.74c0.063-0.08,0.126-0.159,0.188-0.241
	C15.918,29.053,16.2,30.716,16.584,32.342z"/>
<path opacity="0.25" fill="#263D00" d="M13.595,35.462c-0.257-1.397-0.439-2.814-0.543-4.246c0.053-0.095,0.105-0.188,0.159-0.283"
	/>
<path opacity="0.25" fill="#263D00" d="M23.947,16.333c1.632,0.549,3.214,1.182,4.743,1.899c0.098-0.035,0.197-0.067,0.295-0.099
	C27.36,17.437,25.679,16.834,23.947,16.333z"/>
<path opacity="0.25" fill="#263D00" d="M19.648,18.64c1.638,0.389,3.239,0.871,4.799,1.441c0.091-0.045,0.185-0.088,0.277-0.132
	C23.078,19.411,21.379,18.971,19.648,18.64z"/>
<path opacity="0.25" fill="#263D00" d="M16.09,20.979c1.635,0.225,3.241,0.549,4.813,0.967c0.082-0.057,0.17-0.109,0.255-0.164
	C19.058,21.306,17.433,21.099,16.09,20.979z"/>
<path opacity="0.25" fill="#263D00" d="M12.638,25.195c1.579-0.095,3.148-0.079,4.703,0.042c0.068-0.072,0.14-0.145,0.211-0.217
	C15.926,24.958,14.285,25.011,12.638,25.195z"/>
<path opacity="0.25" fill="#263D00" d="M10.579,28.5c1.521-0.286,3.047-0.451,4.567-0.507c0.059-0.08,0.117-0.165,0.18-0.245
	C13.744,27.872,12.158,28.12,10.579,28.5z"/>
<path opacity="0.25" fill="#263D00" d="M9.657,32.267c0,0,2.578-1.499,3.935-1.833c0.058-0.091,0.111-0.185,0.168-0.275
	C12.341,30.568,9.657,32.267,9.657,32.267z"/>
<path fill="#70A61B" d="M10.545,37.002c3.365-12.487,12.563-17.844,21.504-19.917c0.757-0.135,0.866,0.243,0.263,0.374
	C24.329,19.465,15.447,23.5,10.545,37.002z"/>
<linearGradient id="SVGID_1_" gradientUnits="userSpaceOnUse" x1="39.4395" y1="41.2305" x2="34.0361" y2="42.6116">
	<stop  offset="0" style="stop-color:#735628"/>
	<stop  offset="0.3925" style="stop-color:#8F6F40"/>
	<stop  offset="0.7419" style="stop-color:#A07F4F"/>
	<stop  offset="1" style="stop-color:#A68554"/>
	<a:midPointStop  offset="0" style="stop-color:#735628"/>
	<a:midPointStop  offset="0.3576" style="stop-color:#735628"/>
	<a:midPointStop  offset="1" style="stop-color:#A68554"/>
</linearGradient>
<path fill="url(#SVGID_1_)" d="M46.126,62.435c0,2.087-7.271,2.087-7.271,0c0-8.21-8.51-30.357-8.51-41.762
	c0-1.952,5.386-1.952,5.386,0C35.731,32.077,46.126,54.225,46.126,62.435z"/>
<path fill="#CFB092" d="M45.411,57.52c1.316,3.008-6.477,3.672-6.849,1.689C39.037,60.398,45.105,60.594,45.411,57.52z"/>
<path fill="#CFB092" d="M37.352,53.314c-0.331,3.34,7.258,1.899,6.783-0.522C44.028,54.883,38.235,56.059,37.352,53.314z"/>
<path fill="#CFB092" d="M34.585,42.694c-0.329,3.339,6.638,1.925,6.163-0.497C40.643,44.288,35.472,45.438,34.585,42.694z"/>
<path fill="#CFB092" d="M32.166,33.088c-0.33,3.341,6.222,2.273,5.747-0.148C37.807,35.031,33.05,35.832,32.166,33.088z"/>
<path fill="#CFB092" d="M42.469,47.479c1.316,3.007-5.874,3.355-6.245,1.372C36.698,50.041,42.163,50.553,42.469,47.479z"/>
<path fill="#CFB092" d="M39.148,37.149c1.316,3.007-5.305,3.282-5.675,1.298C33.948,39.637,38.842,40.223,39.148,37.149z"/>
<path fill="#CFB092" d="M36.491,27.103c1.317,3.007-5.335,3.216-5.706,1.231C31.26,29.525,36.185,30.176,36.491,27.103z"/>
<path fill="#92C932" d="M52.507,32.562c-0.93-0.438-3.665-1.857-3.665-1.857s2.6,0.522,3.518,0.756
	c-0.249-1.958-1.403-4.87-2.898-7.224c-1.2-0.206-2.406-0.345-3.612-0.419c1.068-0.092,2.145-0.14,3.225-0.144
	c-1.419-1.991-3.268-3.765-5.321-5.127c-1.303,0.077-5.001,0.296-5.001,0.296s2.668-0.789,3.758-1.028
	c-0.264-0.161-2.299-1.18-2.972-1.434c-1.5,0.274-2.981,0.625-4.432,1.042c1.105-0.473,2.229-0.911,3.376-1.31
	c-1.322-0.045-3.651,0.607-6.497,0.925c9.398,2.851,16.064,9.817,18.316,19.254c0.768,0.801,1.226,1.515,1.226,1.515
	c-0.016-0.021,0.344-0.392,0.526-0.909l-1.671-2.246l1.921,1.477C52.549,35.158,52.63,33.941,52.507,32.562z"/>
<path fill="#7AB51D" d="M34.872,21.914c0.352,0.272,0.708,0.555,1.067,0.844c0.04-0.992,0.03-1.986-0.026-2.982
	c0.267,1.137,0.454,2.281,0.565,3.427c0.537,0.447,1.072,0.916,1.602,1.4c0.1-0.688,0.236-2.94,0.236-2.94s0.635,2.969,0.635,3.759
	c1.204,1.128,1.617,1.616,2.672,2.879c0.328-1,1.438-3.693,1.438-3.693s-0.31,3.627-0.536,4.778c0.66,0.813,0.949,1.221,1.527,2.032
	c0.305-0.683,1.526-3.129,1.526-3.129s-0.676,3.212-0.917,3.997c0.592,0.837,2.768,4.053,3.901,5.341
	c0.192,0.219,0.994-2.703,0.994-2.703s-0.134,3.404-0.034,3.447c0.105,0.045,1.098,0.064,1.224,0.016
	c-1.712-10.507-8.676-18.288-18.763-21.348C32.891,17.935,34.679,21.766,34.872,21.914z"/>
<path opacity="0.25" fill="#263D00" d="M37.426,23.537c-0.01-1.417-0.119-2.839-0.342-4.255c-0.091-0.043-0.18-0.089-0.268-0.133
	C37.142,20.603,37.343,22.071,37.426,23.537z"/>
<path opacity="0.25" fill="#263D00" d="M35.161,21.927c-0.142-1.382-0.392-2.764-0.759-4.127c-0.095-0.035-0.193-0.072-0.289-0.107
	C34.591,19.086,34.938,20.502,35.161,21.927z"/>
<path opacity="0.25" fill="#263D00" d="M39.719,25.213c0.146-1.447,0.195-2.91,0.136-4.378c-0.081-0.054-0.163-0.109-0.243-0.163
	C39.767,22.189,39.798,23.708,39.719,25.213z"/>
<path opacity="0.25" fill="#263D00" d="M41.473,27.078c0.294-1.461,0.491-2.95,0.589-4.451c-0.072-0.063-0.146-0.126-0.22-0.188
	C41.831,24,41.707,25.55,41.473,27.078z"/>
<path opacity="0.25" fill="#263D00" d="M43.406,29.721c0.563-1.469,1.045-2.978,1.435-4.518c-0.056-0.08-0.111-0.159-0.168-0.237
	C44.354,26.585,43.926,28.173,43.406,29.721z"/>
<path opacity="0.25" fill="#263D00" d="M45.512,33.266c0.641-1.453,1.203-2.951,1.678-4.485c-0.049-0.084-0.099-0.166-0.148-0.251
	C46.629,30.148,46.115,31.731,45.512,33.266z"/>
<path opacity="0.25" fill="#263D00" d="M47.987,36.589c0.45-1.328,0.83-2.683,1.134-4.059c-0.037-0.098-0.077-0.192-0.115-0.289"/>
<path opacity="0.25" fill="#263D00" d="M40.592,17.027c-1.671,0.369-3.307,0.825-4.901,1.364c-0.092-0.042-0.183-0.083-0.275-0.125
	C37.101,17.756,38.83,17.341,40.592,17.027z"/>
<path opacity="0.25" fill="#263D00" d="M44.466,19.692c-1.657,0.212-3.291,0.52-4.894,0.917c-0.083-0.053-0.167-0.105-0.252-0.155
	C41.006,20.096,42.726,19.84,44.466,19.692z"/>
<path opacity="0.25" fill="#263D00" d="M47.608,22.313c-1.627,0.054-3.245,0.208-4.839,0.454c-0.073-0.063-0.15-0.123-0.227-0.183
	C44.663,22.334,46.28,22.296,47.608,22.313z"/>
<path opacity="0.25" fill="#263D00" d="M50.381,26.74c-1.529-0.249-3.065-0.39-4.601-0.428c-0.057-0.076-0.115-0.153-0.175-0.23
	C47.201,26.183,48.799,26.399,50.381,26.74z"/>
<path opacity="0.25" fill="#263D00" d="M51.925,30.148c-1.447-0.427-2.916-0.741-4.39-0.948c-0.049-0.083-0.096-0.171-0.143-0.254
	C48.921,29.223,50.437,29.622,51.925,30.148z"/>
<path opacity="0.25" fill="#263D00" d="M52.287,33.887c0,0-2.304-1.709-3.582-2.168c-0.042-0.095-0.083-0.189-0.125-0.283
	C49.907,31.975,52.287,33.887,52.287,33.887z"/>
<path fill="#70A61B" d="M50.747,38.385c-1.513-12.431-9.735-18.537-18.178-21.438c-0.718-0.207-0.879,0.148-0.306,0.334
	C39.774,20.023,47.877,24.82,50.747,38.385z"/>
<path fill="#92C932" d="M57.927,13.75C56.954,14.09,54.006,15,54.006,15s2.209-1.448,3.025-1.923
	c-1.581-1.208-4.488-2.456-7.233-3.075c-0.995,0.694-1.947,1.438-2.852,2.227c0.688-0.813,1.413-1.598,2.172-2.354
	C46.686,9.46,44.109,9.5,41.68,9.973c-0.864,0.962-3.317,3.702-3.317,3.702s1.316-2.419,1.915-3.35
	c-0.303,0.069-2.472,0.773-3.128,1.063c-0.864,1.242-1.656,2.523-2.38,3.831c0.438-1.106,0.919-2.2,1.443-3.283
	c-0.968,0.892-2.143,2.981-3.925,5.191c8.684-4.552,18.392-4.292,26.759,0.798C60.163,17.954,61,18.138,61,18.138
	c-0.026-0.002-0.037-0.517-0.281-1.008l-2.791-0.419l2.414-0.298C59.82,15.556,59.003,14.64,57.927,13.75z"/>
<path fill="#7AB51D" d="M37.83,18.552c0.443-0.052,0.899-0.102,1.359-0.15c-0.683-0.727-1.404-1.423-2.16-2.085
	c1.004,0.617,1.958,1.293,2.859,2.025c0.701-0.061,1.415-0.104,2.138-0.131c-0.425-0.556-1.944-2.242-1.944-2.242
	s2.577,1.654,3.146,2.21c1.659-0.044,2.302,0.01,3.952,0.167c-0.484-0.935-1.635-3.612-1.635-3.612s2.387,2.777,3.052,3.748
	c1.051,0.112,1.547,0.198,2.537,0.367c-0.274-0.696-1.169-3.275-1.169-3.275s1.83,2.74,2.223,3.463
	c1.02,0.177,4.863,0.929,6.589,1.045c0.292,0.019-1.238-2.604-1.238-2.604s2.352,2.498,2.451,2.458
	c0.107-0.042,0.822-0.721,0.874-0.844c-8.753-6.221-19.256-6.85-28.576-1.965C33.573,17.129,37.587,18.583,37.83,18.552z"/>
<path opacity="0.25" fill="#263D00" d="M40.798,17.917c-1.022-0.996-2.123-1.92-3.296-2.767c-0.097,0.031-0.19,0.063-0.285,0.094
	C38.492,16.042,39.687,16.938,40.798,17.917z"/>
<path opacity="0.25" fill="#263D00" d="M38.044,18.36c-1.093-0.877-2.262-1.677-3.499-2.383c-0.093,0.042-0.188,0.085-0.281,0.127
	C35.602,16.754,36.862,17.51,38.044,18.36z"/>
<path opacity="0.25" fill="#263D00" d="M43.621,17.498c-0.936-1.125-1.953-2.192-3.048-3.188c-0.096,0.021-0.192,0.038-0.288,0.056
	C41.482,15.329,42.596,16.379,43.621,17.498z"/>
<path opacity="0.25" fill="#263D00" d="M46.198,17.587c-0.841-1.235-1.771-2.425-2.779-3.554c-0.097,0.008-0.194,0.015-0.291,0.021
	C44.242,15.165,45.267,16.346,46.198,17.587z"/>
<path opacity="0.25" fill="#263D00" d="M49.461,18.104c-0.657-1.431-1.399-2.833-2.231-4.193c-0.097-0.017-0.192-0.034-0.288-0.048
	C47.879,15.229,48.717,16.648,49.461,18.104z"/>
<path opacity="0.25" fill="#263D00" d="M53.494,19.138c-0.592-1.477-1.271-2.927-2.037-4.342c-0.095-0.025-0.189-0.048-0.286-0.073
	C52.044,16.154,52.817,17.629,53.494,19.138z"/>
<path opacity="0.25" fill="#263D00" d="M57.628,19.752c-0.636-1.252-1.34-2.473-2.115-3.658c-0.097-0.042-0.191-0.081-0.289-0.123"
	/>
<path opacity="0.25" fill="#263D00" d="M38.359,11.108c-0.915,1.427-1.743,2.892-2.482,4.388c-0.094,0.033-0.188,0.068-0.281,0.104
	C36.418,14.061,37.34,12.561,38.359,11.108z"/>
<path opacity="0.25" fill="#263D00" d="M43.008,10.283c-1.019,1.307-1.95,2.665-2.797,4.065c-0.098,0.021-0.192,0.043-0.29,0.066
	C40.855,12.985,41.885,11.602,43.008,10.283z"/>
<path opacity="0.25" fill="#263D00" d="M47.109,9.938c-1.111,1.177-2.143,2.415-3.091,3.702c-0.097,0.006-0.195,0.019-0.292,0.029
	C45.043,12.01,46.157,10.854,47.109,9.938z"/>
<path opacity="0.25" fill="#263D00" d="M52.245,11.127c-1.259,0.892-2.443,1.865-3.556,2.911c-0.095-0.015-0.192-0.027-0.29-0.042
	C49.6,12.954,50.882,11.992,52.245,11.127z"/>
<path opacity="0.25" fill="#263D00" d="M55.78,12.454c-1.327,0.708-2.588,1.513-3.779,2.398c-0.093-0.027-0.188-0.056-0.283-0.081
	C52.996,13.9,54.353,13.123,55.78,12.454z"/>
<path opacity="0.25" fill="#263D00" d="M58.724,14.84c0,0-2.855,0.404-4.087,0.973c-0.099-0.038-0.194-0.077-0.292-0.112
	C55.669,15.152,58.724,14.84,58.724,14.84z"/>
<path fill="#70A61B" d="M60.864,19.092c-9.994-7.719-20.184-6.286-28.226-2.438c-0.656,0.356-0.515,0.719,0.022,0.452
	C39.933,13.794,49.099,11.519,60.864,19.092z"/>
<path fill="#92C932" d="M24.229,41.73c0.531-0.908,2.018-3.694,2.018-3.694s-1.876,1.931-2.508,2.655
	c-0.887-1.839-1.552-5.021-1.623-7.91c0.887-0.861,1.814-1.667,2.777-2.419c-0.942,0.527-1.866,1.098-2.769,1.709
	c0.07-2.535,0.621-5.122,1.57-7.473c1.129-0.674,4.339-2.586,4.339-2.586s-2.665,0.833-3.709,1.246
	c0.128-0.291,1.258-2.331,1.677-2.935c1.404-0.616,2.834-1.153,4.279-1.616c-1.189,0.216-2.371,0.479-3.551,0.784
	c1.079-0.792,3.389-1.55,5.939-2.893c-6.248,7.817-7.911,17.647-4.512,27.112c-0.192,1.129-0.177,2.01-0.177,2.01
	c0.004-0.025-0.508-0.145-0.946-0.488l0.136-2.896l-0.773,2.37C25.648,44.007,24.9,42.998,24.229,41.73z"/>
<path fill="#7AB51D" d="M32.986,22.47c-0.139,0.437-0.278,0.885-0.418,1.341c-0.587-0.84-1.137-1.707-1.645-2.604
	c0.413,1.138,0.897,2.239,1.444,3.294c-0.198,0.695-0.383,1.404-0.554,2.128c-0.467-0.542-1.841-2.417-1.841-2.417
	s1.131,2.934,1.571,3.62c-0.372,1.664-0.444,2.32-0.618,4.016c-0.832-0.679-3.265-2.383-3.265-2.383s2.288,2.97,3.119,3.835
	c-0.097,1.082-0.109,1.599-0.139,2.631c-0.637-0.418-3.022-1.846-3.022-1.846s2.36,2.402,2.999,2.945
	c-0.024,1.063-0.039,5.088-0.267,6.85c-0.038,0.298-2.342-1.777-2.342-1.777s2.018,2.876,1.958,2.97
	c-0.064,0.099-0.881,0.679-1.012,0.708c-4.447-10.085-2.993-20.79,3.713-29.18C32.415,17.893,33.066,22.232,32.986,22.47z"/>
<path opacity="0.25" fill="#263D00" d="M31.766,25.33c-0.786-1.232-1.485-2.53-2.095-3.884c0.05-0.091,0.099-0.178,0.149-0.267
	C30.359,22.624,31.014,24.011,31.766,25.33z"/>
<path opacity="0.25" fill="#263D00" d="M32.754,22.646c-0.656-1.278-1.219-2.619-1.677-4.009c0.061-0.085,0.123-0.17,0.183-0.256
	C31.641,19.86,32.143,21.284,32.754,22.646z"/>
<path opacity="0.25" fill="#263D00" d="M30.791,28.088c-0.933-1.173-1.793-2.412-2.565-3.72c0.042-0.094,0.077-0.188,0.114-0.28
	C29.06,25.493,29.882,26.828,30.791,28.088z"/>
<path opacity="0.25" fill="#263D00" d="M30.367,30.702c-1.06-1.099-2.058-2.278-2.98-3.524c0.029-0.095,0.054-0.192,0.078-0.289
	C28.349,28.239,29.319,29.511,30.367,30.702z"/>
<path opacity="0.25" fill="#263D00" d="M30.235,34.094c-1.292-0.955-2.539-1.989-3.726-3.103c0.003-0.1,0.004-0.201,0.009-0.3
	C27.691,31.915,28.935,33.047,30.235,34.094z"/>
<path opacity="0.25" fill="#263D00" d="M30.462,38.365c-1.35-0.896-2.656-1.877-3.911-2.936c-0.005-0.102-0.01-0.201-0.016-0.305
	C27.785,36.297,29.098,37.377,30.462,38.365z"/>
<path opacity="0.25" fill="#263D00" d="M30.255,42.654c-1.119-0.896-2.192-1.855-3.217-2.875c-0.022-0.107-0.044-0.21-0.066-0.317"
	/>
<path opacity="0.25" fill="#263D00" d="M25.483,21.486c1.601-0.63,3.219-1.167,4.852-1.604c0.052-0.088,0.106-0.177,0.159-0.266
	C28.802,20.133,27.128,20.756,25.483,21.486z"/>
<path opacity="0.25" fill="#263D00" d="M23.743,25.998c1.5-0.756,3.033-1.418,4.593-1.987c0.039-0.094,0.083-0.185,0.124-0.279
	C26.854,24.381,25.275,25.139,23.743,25.998z"/>
<path opacity="0.25" fill="#263D00" d="M22.585,30.061c1.391-0.88,2.824-1.667,4.292-2.358c0.026-0.097,0.058-0.192,0.087-0.288
	C25.056,28.401,23.685,29.288,22.585,30.061z"/>
<path opacity="0.25" fill="#263D00" d="M22.75,35.475c1.136-1.086,2.337-2.082,3.598-2.987c0.004-0.098,0.01-0.2,0.016-0.301
	C25.09,33.184,23.879,34.277,22.75,35.475z"/>
<path opacity="0.25" fill="#263D00" d="M23.367,39.307c0.968-1.195,2.016-2.3,3.133-3.318c-0.008-0.1-0.019-0.201-0.024-0.303
	C25.356,36.797,24.317,38.004,23.367,39.307z"/>
<path opacity="0.25" fill="#263D00" d="M25.155,42.757c0,0,0.966-2.794,1.777-3.919c-0.018-0.105-0.039-0.213-0.056-0.316
	C26.07,39.743,25.155,42.757,25.155,42.757z"/>
<path fill="#70A61B" d="M28.957,45.779c-5.69-11.639-2.246-21.608,3.172-28.925c0.484-0.587,0.817-0.372,0.446,0.116
	C27.842,23.619,23.762,32.386,28.957,45.779z"/>
</svg>
