<?xml version="1.0" encoding="utf-8"?>
<!-- Generator: Adobe Illustrator 15.0.0, SVG Export Plug-In . SVG Version: 6.00 Build 0)  -->
<!DOCTYPE svg PUBLIC "-//W3C//DTD SVG 1.1//EN" "http://www.w3.org/Graphics/SVG/1.1/DTD/svg11.dtd" [
	<!ENTITY ns_flows "http://ns.adobe.com/Flows/1.0/">
	<!ENTITY ns_extend "http://ns.adobe.com/Extensibility/1.0/">
	<!ENTITY ns_ai "http://ns.adobe.com/AdobeIllustrator/10.0/">
	<!ENTITY ns_graphs "http://ns.adobe.com/Graphs/1.0/">
]>
<svg version="1.1" id="Layer_1" xmlns:x="&ns_extend;" xmlns:i="&ns_ai;" xmlns:graph="&ns_graphs;"
	 xmlns="http://www.w3.org/2000/svg" xmlns:xlink="http://www.w3.org/1999/xlink" xmlns:a="http://ns.adobe.com/AdobeSVGViewerExtensions/3.0/"
	 x="0px" y="0px" width="64px" height="64px" viewBox="0 0 64 64" enable-background="new 0 0 64 64" xml:space="preserve">
<radialGradient id="SVGID_1_" cx="-149.604" cy="145.4072" r="48.1282" gradientTransform="matrix(0.6879 0 0 0.7479 126.2746 -83.0719)" gradientUnits="userSpaceOnUse">
	<stop  offset="0" style="stop-color:#FFAB00"/>
	<stop  offset="0.3112" style="stop-color:#FFA800"/>
	<stop  offset="0.5432" style="stop-color:#FF9E00"/>
	<stop  offset="0.7494" style="stop-color:#FF8E00"/>
	<stop  offset="0.9396" style="stop-color:#FF7800"/>
	<stop  offset="1" style="stop-color:#FF6F00"/>
	<a:midPointStop  offset="0" style="stop-color:#FFAB00"/>
	<a:midPointStop  offset="0.7636" style="stop-color:#FFAB00"/>
	<a:midPointStop  offset="1" style="stop-color:#FF6F00"/>
</radialGradient>
<path fill="url(#SVGID_1_)" d="M56.884,35.771c0,34.971-52.884,34.971-52.884,0C4,0.796,56.884,0.796,56.884,35.771z"/>
<radialGradient id="SVGID_2_" cx="-43.2271" cy="69.501" r="21.4679" gradientTransform="matrix(0.809 -0.1893 0.139 0.6304 50.2674 -28.5663)" gradientUnits="userSpaceOnUse">
	<stop  offset="0" style="stop-color:#FF6F00"/>
	<stop  offset="0.6249" style="stop-color:#FF9200;stop-opacity:0.3751"/>
	<stop  offset="1" style="stop-color:#FFA200;stop-opacity:0"/>
	<a:midPointStop  offset="0" style="stop-color:#FF6F00"/>
	<a:midPointStop  offset="0.4424" style="stop-color:#FF6F00"/>
	<a:midPointStop  offset="1" style="stop-color:#FFA200;stop-opacity:0"/>
</radialGradient>
<path fill="url(#SVGID_2_)" d="M6.428,26.188c5.056-4.748,17.02-8.327,17.02-8.327s-6.396-0.689-10.895-1.207
	c4.499-0.755,11.798,0.543,11.798,0.543s-0.834-1.936-5.205-4.981c5.252,1.847,6.492,4.725,6.492,4.725s2.104-6.911,2.61-6.955
	c0.453-0.042-1.024,6.743-1.024,6.743s7.81-2.7,16.459-2.053c-9.277,1.328-16.021,3.109-16.021,3.109s9.75,1.712,14.194,4.028
	c-6.138-1.455-14.224-3.063-14.224-3.063s8.678,8.896,10.967,16.066c-4.875-9.105-11.813-14.965-11.813-14.965
	S26.604,32.5,27.719,38.588c-2.322-7.043-2.069-18.857-2.069-18.857s-7.698,12.314-9.654,20.064
	c0.764-9.91,8.287-19.753,8.287-19.753S14.188,26.52,10.219,30.955c4.201-6.729,13.913-12.356,13.913-12.356
	S11.234,23.332,6.428,26.188z"/>
<linearGradient id="SVGID_3_" gradientUnits="userSpaceOnUse" x1="23.3223" y1="18.2334" x2="28.249" y2="18.2334">
	<stop  offset="0" style="stop-color:#77B516"/>
	<stop  offset="1" style="stop-color:#297124"/>
	<a:midPointStop  offset="0" style="stop-color:#77B516"/>
	<a:midPointStop  offset="0.5" style="stop-color:#77B516"/>
	<a:midPointStop  offset="1" style="stop-color:#297124"/>
</linearGradient>
<path fill="url(#SVGID_3_)" d="M23.969,18.654c0,0-0.698-0.527-0.644-0.911c0.062-0.443,1.397-0.899,1.397-0.899
	s0.486-0.877,0.861-0.91c0.336-0.029,0.913,0.537,0.913,0.537s1.493-0.229,1.718,0.225c0.215,0.445-0.653,1.347-0.653,1.347
	s0.526,1.479,0.152,1.869c-0.396,0.412-1.807-0.187-1.807-0.187s-1.474,1.068-1.952,0.746
	C23.512,20.173,23.969,18.654,23.969,18.654z"/>
<linearGradient id="SVGID_4_" gradientUnits="userSpaceOnUse" x1="22.0806" y1="14.9131" x2="26.4741" y2="14.9131">
	<stop  offset="0" style="stop-color:#77B516"/>
	<stop  offset="1" style="stop-color:#297124"/>
	<a:midPointStop  offset="0" style="stop-color:#77B516"/>
	<a:midPointStop  offset="0.5" style="stop-color:#77B516"/>
	<a:midPointStop  offset="1" style="stop-color:#297124"/>
</linearGradient>
<path fill="url(#SVGID_4_)" d="M23.925,10.826c-0.122-0.288-1.933,0.752-1.841,1.045c1.626,2.035,2.954,6.124,2.92,6.88
	c-0.026,0.594,1.363,0.173,1.435-0.18C26.561,17.959,26.507,15.095,23.925,10.826z"/>
<path fill="#5FBD17" d="M23.925,10.826c0.416,0.625-1.474,1.369-1.841,1.045C21.563,11.412,23.518,10.214,23.925,10.826z"/>
<path fill="#449C00" d="M30.021,9.212c5.538,5.454,11.687,10.511,17.918,11.087c5.997,1.073,12.073-2.336,12.062-2.308
	c-0.258,0.544-5.657-0.702-11.459-3.794C42.565,11.469,36.191,6.893,30.021,9.212z"/>
<path fill="#56AB15" d="M30.021,9.212c6.043-1.795,12.407,2.805,18.416,5.394c5.837,2.96,11.318,3.906,11.563,3.385
	c0.027-0.057-3.151-2.649-7.69-6.734C47.531,7.675,41.389,2.602,30.021,9.212z"/>
<path fill="#5FBD17" d="M33.23,9.01c1.373-1.04,3.023-1.812,4.652-2.264c1.644-0.438,3.309-0.536,4.831-0.229
	c-1.557-0.14-3.172-0.034-4.778,0.412c-0.806,0.206-1.604,0.5-2.393,0.847C34.756,8.127,33.969,8.532,33.23,9.01z"/>
<path fill="#5FBD17" d="M37.563,9.696c1.441-1.04,3.219-1.709,4.994-1.957c0.893-0.113,1.792-0.122,2.671-0.015
	c0.876,0.11,1.729,0.332,2.538,0.638C46.09,7.898,44.338,7.69,42.591,7.94c-0.875,0.106-1.739,0.323-2.582,0.619
	C39.165,8.858,38.333,9.229,37.563,9.696z"/>
<path fill="#5FBD17" d="M41.86,11.313c1.523-0.755,3.263-1.124,5.006-1.168c0.873-0.007,1.757,0.064,2.613,0.24
	c0.859,0.172,1.688,0.454,2.46,0.794c-1.626-0.548-3.349-0.876-5.063-0.829c-0.856,0.006-1.707,0.107-2.549,0.266
	C43.491,10.781,42.657,11,41.86,11.313z"/>
<path fill="#5FBD17" d="M46.638,13.739c1.331-0.377,2.764-0.491,4.205-0.479c0.724,0.021,1.449,0.069,2.164,0.18
	c0.715,0.102,1.41,0.268,2.063,0.474c-1.393-0.271-2.819-0.44-4.237-0.453c-0.709-0.022-1.413,0.007-2.113,0.049
	C48.022,13.56,47.323,13.624,46.638,13.739z"/>
<path fill="#5FBD17" d="M51.17,15.959c1.094-0.21,2.242-0.238,3.382-0.206c0.565,0.029,1.135,0.073,1.676,0.16
	c0.547,0.08,1.061,0.204,1.524,0.362c-1.052-0.176-2.144-0.295-3.255-0.33c-0.552-0.032-1.112-0.031-1.667-0.031
	C52.277,15.921,51.722,15.928,51.17,15.959z"/>
<path fill="#56AB15" d="M33.23,9.01c-0.147,1.225,0.271,2.354,0.94,3.438c0.702,1.07,1.72,2.094,3.006,2.975
	c-1.109-0.998-2.071-2.01-2.732-3.082c-0.35-0.529-0.614-1.074-0.822-1.628C33.422,10.158,33.264,9.599,33.23,9.01z"/>
<path fill="#56AB15" d="M37.563,9.696c-0.278,1.593,0.053,3.192,0.747,4.694c0.364,0.744,0.828,1.466,1.394,2.133
	c0.563,0.664,1.22,1.27,1.947,1.799c-1.317-1.188-2.415-2.545-3.098-4.025c-0.361-0.731-0.608-1.492-0.775-2.26
	C37.615,11.266,37.517,10.487,37.563,9.696z"/>
<path fill="#56AB15" d="M41.86,11.313c-0.047,1.686,0.375,3.38,1.113,4.932c0.391,0.766,0.864,1.5,1.446,2.135
	c0.576,0.642,1.265,1.176,2.021,1.587c-1.406-0.971-2.519-2.305-3.25-3.825c-0.381-0.753-0.661-1.55-0.887-2.356
	C42.088,12.971,41.921,12.15,41.86,11.313z"/>
<path fill="#56AB15" d="M46.638,13.739c0.103,1.352,0.531,2.659,1.161,3.83c0.335,0.577,0.719,1.125,1.19,1.592
	c0.463,0.474,1.014,0.862,1.625,1.146c-1.104-0.717-1.969-1.709-2.598-2.853c-0.33-0.563-0.587-1.171-0.818-1.792
	C46.974,15.037,46.776,14.397,46.638,13.739z"/>
<path fill="#56AB15" d="M51.17,15.959c0.359,1.004,0.993,1.859,1.773,2.524c0.405,0.318,0.847,0.595,1.345,0.779
	c0.496,0.194,1.047,0.286,1.631,0.285c-1.087-0.176-2.022-0.612-2.789-1.256c-0.397-0.306-0.743-0.675-1.068-1.065
	C51.735,16.834,51.435,16.414,51.17,15.959z"/>
<path fill="#449C00" d="M25.336,14.186c2.133-3.054,5.571-4.355,5.571-4.355l-0.887-0.618c0,0-3.354,1.667-5.241,4.383
	C24.604,13.862,25.193,14.403,25.336,14.186z"/>
</svg>
