<?xml version="1.0" encoding="utf-8"?>
<!-- Generator: Adobe Illustrator 15.0.0, SVG Export Plug-In . SVG Version: 6.00 Build 0)  -->
<!DOCTYPE svg PUBLIC "-//W3C//DTD SVG 1.1//EN" "http://www.w3.org/Graphics/SVG/1.1/DTD/svg11.dtd" [
	<!ENTITY ns_flows "http://ns.adobe.com/Flows/1.0/">
	<!ENTITY ns_extend "http://ns.adobe.com/Extensibility/1.0/">
	<!ENTITY ns_ai "http://ns.adobe.com/AdobeIllustrator/10.0/">
	<!ENTITY ns_graphs "http://ns.adobe.com/Graphs/1.0/">
]>
<svg version="1.1" id="Layer_1" xmlns:x="&ns_extend;" xmlns:i="&ns_ai;" xmlns:graph="&ns_graphs;"
	 xmlns="http://www.w3.org/2000/svg" xmlns:xlink="http://www.w3.org/1999/xlink" xmlns:a="http://ns.adobe.com/AdobeSVGViewerExtensions/3.0/"
	 x="0px" y="0px" width="64px" height="64px" viewBox="0 0 64 64" enable-background="new 0 0 64 64" xml:space="preserve">
<path fill="#4B9400" d="M42.098,58.919C29.918,47.277,33.04,32.89,31.879,26.944c-0.238-1.217-1.09-0.844-1.133-0.098
	c-0.258,4.496-3.414,23.27,7.916,34.456C40.585,63.21,44.07,60.799,42.098,58.919z"/>
<linearGradient id="SVGID_1_" gradientUnits="userSpaceOnUse" x1="-628.5376" y1="1493.8828" x2="-628.5376" y2="1465.0859" gradientTransform="matrix(0.7276 0.6859 -0.6859 0.7276 1518.9103 -623.299)">
	<stop  offset="0" style="stop-color:#56A800"/>
	<stop  offset="0.3459" style="stop-color:#70C200"/>
	<stop  offset="0.7508" style="stop-color:#88DA00"/>
	<stop  offset="1" style="stop-color:#91E300"/>
	<a:midPointStop  offset="0" style="stop-color:#56A800"/>
	<a:midPointStop  offset="0.4" style="stop-color:#56A800"/>
	<a:midPointStop  offset="1" style="stop-color:#91E300"/>
</linearGradient>
<path fill="url(#SVGID_1_)" d="M31.375,27.26c6.509-1.553,17.824,2.615,25.197-4.395c5.563-5.289,0.64-13.948-5.478-13.948
	C48.521,8.965,31.375,27.26,31.375,27.26z"/>
<linearGradient id="SVGID_2_" gradientUnits="userSpaceOnUse" x1="758.0918" y1="1493.3867" x2="758.0918" y2="1465.041" gradientTransform="matrix(-0.7276 -0.6859 -0.6859 0.7276 1603.6975 -542.6874)">
	<stop  offset="0" style="stop-color:#4B9400"/>
	<stop  offset="0.4281" style="stop-color:#6EBA00"/>
	<stop  offset="0.7826" style="stop-color:#84D200"/>
	<stop  offset="1" style="stop-color:#8CDB00"/>
	<a:midPointStop  offset="0" style="stop-color:#4B9400"/>
	<a:midPointStop  offset="0.4" style="stop-color:#4B9400"/>
	<a:midPointStop  offset="1" style="stop-color:#8CDB00"/>
</linearGradient>
<path fill="url(#SVGID_2_)" d="M31.375,27.26c2.162-4.602-1.616-16.524,3.505-22.084c5.889-6.393,15.386-2.095,16.215,3.741
	C47.409,17.433,31.375,27.26,31.375,27.26z"/>
<linearGradient id="SVGID_3_" gradientUnits="userSpaceOnUse" x1="-364.0757" y1="613.1563" x2="-364.0757" y2="584.458" gradientTransform="matrix(0.6528 -0.6832 0.7554 0.6188 -189.3768 -605.7306)">
	<stop  offset="0" style="stop-color:#56A800"/>
	<stop  offset="0.3459" style="stop-color:#70C200"/>
	<stop  offset="0.7508" style="stop-color:#88DA00"/>
	<stop  offset="1" style="stop-color:#91E300"/>
	<a:midPointStop  offset="0" style="stop-color:#56A800"/>
	<a:midPointStop  offset="0.4" style="stop-color:#56A800"/>
	<a:midPointStop  offset="1" style="stop-color:#91E300"/>
</linearGradient>
<path fill="url(#SVGID_3_)" d="M31.354,27.409c-1.874-5.811,1.911-16.036-5.593-22.521c-5.66-4.894-14.324-0.318-14.061,5.168
	C11.862,12.366,31.354,27.409,31.354,27.409z"/>
<linearGradient id="SVGID_4_" gradientUnits="userSpaceOnUse" x1="493.75" y1="612.6582" x2="493.75" y2="584.1533" gradientTransform="matrix(-0.6528 0.6832 0.7554 0.6188 -112.6217 -685.359)">
	<stop  offset="0" style="stop-color:#4B9400"/>
	<stop  offset="0.4281" style="stop-color:#6EBA00"/>
	<stop  offset="0.7826" style="stop-color:#84D200"/>
	<stop  offset="1" style="stop-color:#8CDB00"/>
	<a:midPointStop  offset="0" style="stop-color:#4B9400"/>
	<a:midPointStop  offset="0.4" style="stop-color:#4B9400"/>
	<a:midPointStop  offset="1" style="stop-color:#8CDB00"/>
</linearGradient>
<path fill="url(#SVGID_4_)" d="M31.354,27.409c-4.812-1.855-16.868,1.754-22.788-2.739c-6.806-5.163-2.81-13.763,3.135-14.613
	C20.589,13.207,31.354,27.409,31.354,27.409z"/>
<linearGradient id="SVGID_5_" gradientUnits="userSpaceOnUse" x1="530.4531" y1="842.9365" x2="530.4531" y2="814.1484" gradientTransform="matrix(-0.668 -0.6684 0.636 -0.7409 -155.5576 1001.3827)">
	<stop  offset="0" style="stop-color:#56A800"/>
	<stop  offset="0.3459" style="stop-color:#70C200"/>
	<stop  offset="0.7508" style="stop-color:#88DA00"/>
	<stop  offset="1" style="stop-color:#91E300"/>
	<a:midPointStop  offset="0" style="stop-color:#56A800"/>
	<a:midPointStop  offset="0.4" style="stop-color:#56A800"/>
	<a:midPointStop  offset="1" style="stop-color:#91E300"/>
</linearGradient>
<path fill="url(#SVGID_5_)" d="M31.354,27.409c-6.014,1.688-16.43-2.23-23.264,4.921c-5.157,5.395-0.656,13.931,4.985,13.801
	C15.453,46.026,31.354,27.409,31.354,27.409z"/>
<linearGradient id="SVGID_6_" gradientUnits="userSpaceOnUse" x1="-400.8979" y1="842.4395" x2="-400.8979" y2="814.0986" gradientTransform="matrix(0.668 0.6684 0.636 -0.7409 -233.3977 922.814)">
	<stop  offset="0" style="stop-color:#4B9400"/>
	<stop  offset="0.4281" style="stop-color:#6EBA00"/>
	<stop  offset="0.7826" style="stop-color:#84D200"/>
	<stop  offset="1" style="stop-color:#8CDB00"/>
	<a:midPointStop  offset="0" style="stop-color:#4B9400"/>
	<a:midPointStop  offset="0.4" style="stop-color:#4B9400"/>
	<a:midPointStop  offset="1" style="stop-color:#8CDB00"/>
</linearGradient>
<path fill="url(#SVGID_6_)" d="M31.354,27.409c-2.017,4.637,1.413,16.451-3.338,22.107c-5.462,6.503-14.203,2.417-14.94-3.386
	C16.518,37.555,31.354,27.409,31.354,27.409z"/>
<linearGradient id="SVGID_7_" gradientUnits="userSpaceOnUse" x1="205.2227" y1="1754.7676" x2="205.2227" y2="1726.0586" gradientTransform="matrix(-0.6402 0.695 -0.7665 -0.6049 1503.1877 951.3338)">
	<stop  offset="0" style="stop-color:#56A800"/>
	<stop  offset="0.3459" style="stop-color:#70C200"/>
	<stop  offset="0.7508" style="stop-color:#88DA00"/>
	<stop  offset="1" style="stop-color:#91E300"/>
	<a:midPointStop  offset="0" style="stop-color:#56A800"/>
	<a:midPointStop  offset="0.4" style="stop-color:#56A800"/>
	<a:midPointStop  offset="1" style="stop-color:#91E300"/>
</linearGradient>
<path fill="url(#SVGID_7_)" d="M31.354,27.408c1.981,5.776-1.613,16.067,6.012,22.418c5.751,4.792,14.328,0.063,13.961-5.418
	C51.123,42.102,31.354,27.408,31.354,27.408z"/>
<linearGradient id="SVGID_8_" gradientUnits="userSpaceOnUse" x1="-75.5532" y1="1754.2705" x2="-75.5532" y2="1725.7549" gradientTransform="matrix(0.6402 -0.695 -0.7665 -0.6049 1427.8972 1032.3486)">
	<stop  offset="0" style="stop-color:#4B9400"/>
	<stop  offset="0.4281" style="stop-color:#6EBA00"/>
	<stop  offset="0.7826" style="stop-color:#84D200"/>
	<stop  offset="1" style="stop-color:#8CDB00"/>
	<a:midPointStop  offset="0" style="stop-color:#4B9400"/>
	<a:midPointStop  offset="0.4" style="stop-color:#4B9400"/>
	<a:midPointStop  offset="1" style="stop-color:#8CDB00"/>
</linearGradient>
<path fill="url(#SVGID_8_)" d="M31.354,27.408c4.843,1.769,16.831-2.055,22.832,2.333c6.902,5.043,3.069,13.711-2.859,14.667
	C42.382,41.417,31.354,27.408,31.354,27.408z"/>
</svg>
