<?xml version="1.0" encoding="utf-8"?>
<!-- Generator: Adobe Illustrator 15.0.0, SVG Export Plug-In . SVG Version: 6.00 Build 0)  -->
<!DOCTYPE svg PUBLIC "-//W3C//DTD SVG 1.1//EN" "http://www.w3.org/Graphics/SVG/1.1/DTD/svg11.dtd" [
	<!ENTITY ns_flows "http://ns.adobe.com/Flows/1.0/">
	<!ENTITY ns_extend "http://ns.adobe.com/Extensibility/1.0/">
	<!ENTITY ns_ai "http://ns.adobe.com/AdobeIllustrator/10.0/">
	<!ENTITY ns_graphs "http://ns.adobe.com/Graphs/1.0/">
]>
<svg version="1.1" id="Layer_1" xmlns:x="&ns_extend;" xmlns:i="&ns_ai;" xmlns:graph="&ns_graphs;"
	 xmlns="http://www.w3.org/2000/svg" xmlns:xlink="http://www.w3.org/1999/xlink" xmlns:a="http://ns.adobe.com/AdobeSVGViewerExtensions/3.0/"
	 x="0px" y="0px" width="64px" height="64px" viewBox="0 0 64 64" enable-background="new 0 0 64 64" xml:space="preserve">
<linearGradient id="SVGID_1_" gradientUnits="userSpaceOnUse" x1="0" y1="48.3115" x2="53.333" y2="48.3115">
	<stop  offset="0" style="stop-color:#E6EBEF"/>
	<stop  offset="0.2857" style="stop-color:#E2E8EC"/>
	<stop  offset="0.5605" style="stop-color:#D7DFE3"/>
	<stop  offset="0.83" style="stop-color:#C3CFD3"/>
	<stop  offset="1" style="stop-color:#B3C2C6"/>
	<a:midPointStop  offset="0" style="stop-color:#E6EBEF"/>
	<a:midPointStop  offset="0.7152" style="stop-color:#E6EBEF"/>
	<a:midPointStop  offset="1" style="stop-color:#B3C2C6"/>
</linearGradient>
<path fill="url(#SVGID_1_)" d="M26.667,34.623H0C0,56.982,16.223,62,26.667,62c10.443,0,26.666-5.018,26.666-27.377H26.667z"/>
<linearGradient id="SVGID_2_" gradientUnits="userSpaceOnUse" x1="0" y1="42.3809" x2="53.333" y2="42.3809">
	<stop  offset="0" style="stop-color:#F5000D"/>
	<stop  offset="0.2714" style="stop-color:#F2010D"/>
	<stop  offset="0.5093" style="stop-color:#E7060F"/>
	<stop  offset="0.7339" style="stop-color:#D50D11"/>
	<stop  offset="0.903" style="stop-color:#C21413"/>
	<a:midPointStop  offset="0" style="stop-color:#F5000D"/>
	<a:midPointStop  offset="0.7333" style="stop-color:#F5000D"/>
	<a:midPointStop  offset="0.903" style="stop-color:#C21413"/>
</linearGradient>
<path fill="url(#SVGID_2_)" d="M53.333,34.623c0,10.677-8.771,15.515-26.666,15.515C8.772,50.138,0,45.3,0,34.623H53.333z"/>
<path fill="#E6EBEF" d="M26.667,23.23c14.729,0,26.666,4.842,26.666,11.393c0,6.554-11.938,11.865-26.666,11.865
	C11.939,46.488,0,41.177,0,34.623C0,28.072,11.939,23.23,26.667,23.23z"/>
<linearGradient id="SVGID_3_" gradientUnits="userSpaceOnUse" x1="1.7773" y1="34.625" x2="51.5566" y2="34.625">
	<stop  offset="0" style="stop-color:#B3C2C6"/>
	<stop  offset="0.2515" style="stop-color:#C0CCD0"/>
	<stop  offset="0.6182" style="stop-color:#CBD5DA"/>
	<stop  offset="1" style="stop-color:#CFD8DD"/>
	<a:midPointStop  offset="0" style="stop-color:#B3C2C6"/>
	<a:midPointStop  offset="0.2848" style="stop-color:#B3C2C6"/>
	<a:midPointStop  offset="1" style="stop-color:#CFD8DD"/>
</linearGradient>
<path fill="url(#SVGID_3_)" d="M26.669,24.586c-13.746,0-24.892,4.496-24.892,10.037c0,5.544,11.146,10.04,24.892,10.04
	c13.745,0,24.888-4.496,24.888-10.04C51.557,29.082,40.414,24.586,26.669,24.586z"/>
<linearGradient id="SVGID_4_" gradientUnits="userSpaceOnUse" x1="26.6685" y1="44.6631" x2="26.6685" y2="28.2388">
	<stop  offset="0" style="stop-color:#AD6928"/>
	<stop  offset="0.3231" style="stop-color:#BC7D2E"/>
	<stop  offset="0.984" style="stop-color:#E2B23D"/>
	<stop  offset="1" style="stop-color:#E3B33D"/>
	<a:midPointStop  offset="0" style="stop-color:#AD6928"/>
	<a:midPointStop  offset="0.5455" style="stop-color:#AD6928"/>
	<a:midPointStop  offset="1" style="stop-color:#E3B33D"/>
</linearGradient>
<path fill="url(#SVGID_4_)" d="M26.669,28.238c-12.2,0-22.342,3.54-24.471,8.212c2.129,4.668,12.271,8.213,24.471,8.213
	c12.197,0,22.339-3.545,24.469-8.213C49.008,31.778,38.869,28.238,26.669,28.238z"/>
<linearGradient id="SVGID_5_" gradientUnits="userSpaceOnUse" x1="64.6748" y1="38.4346" x2="64.6748" y2="30.502" gradientTransform="matrix(0.9031 -0.3814 0.2541 1 -58.3122 19.7568)">
	<stop  offset="0" style="stop-color:#1F2420"/>
	<stop  offset="0.5402" style="stop-color:#2B342C"/>
	<stop  offset="1" style="stop-color:#374538"/>
	<a:midPointStop  offset="0" style="stop-color:#1F2420"/>
	<a:midPointStop  offset="0.5576" style="stop-color:#1F2420"/>
	<a:midPointStop  offset="1" style="stop-color:#374538"/>
</linearGradient>
<path fill="url(#SVGID_5_)" d="M12.43,24.591c-0.098-0.045-1.14,0.368-1.93,0.582c-0.425,0.114-0.932,0.197-1.452,0.354
	c-0.459,0.137-0.916,0.372-1.398,0.527s-1.003,0.194-1.459,0.352c-0.513,0.174-0.958,0.443-1.369,0.6
	c-0.739,0.281-1.615,0.484-1.699,0.604c-0.139,0.203,0.229,0.698,0.304,1.329c0.047,0.396,0.08,0.854,0.179,1.32
	c0.092,0.428,0.137,0.888,0.256,1.312c0.129,0.454,0.346,0.867,0.484,1.247c0.201,0.552,0.38,1.009,0.547,1.221
	c0.167,0.214,0.651,0.294,1.271,0.26c0.385-0.021,0.827-0.167,1.317-0.26c0.411-0.079,0.852-0.168,1.304-0.287
	c0.425-0.112,0.84-0.283,1.27-0.423c0.431-0.139,0.85-0.297,1.259-0.454c0.437-0.168,0.86-0.314,1.241-0.492
	c0.451-0.212,0.88-0.372,1.202-0.58c0.521-0.336,0.874-0.655,0.883-0.928c0.007-0.252-0.12-0.727-0.3-1.296
	c-0.12-0.383-0.271-0.812-0.441-1.25c-0.161-0.408-0.428-0.789-0.609-1.187c-0.197-0.433-0.271-0.901-0.466-1.25
	C12.512,25.337,12.641,24.688,12.43,24.591z"/>
<path opacity="0.4" fill="#1F2420" d="M9.094,30.193c0.441,0.834,1.422,0.499,1.921,0.055C11.524,29.796,8.788,29.612,9.094,30.193z
	"/>
<path opacity="0.4" fill="#1F2420" d="M9.657,29.125c0.843,0.208,0.971-0.395,0.814-0.833C10.314,27.846,9.069,28.98,9.657,29.125z"
	/>
<path opacity="0.4" fill="#1F2420" d="M6.217,28.957c0.844,0.208,0.973-0.394,0.817-0.832C6.876,27.679,5.629,28.813,6.217,28.957z"
	/>
<path opacity="0.4" fill="#1F2420" d="M6.745,29.716c-0.752,0.29-0.265,0.813,0.252,1.061C7.524,31.03,7.268,29.514,6.745,29.716z"
	/>
<path opacity="0.4" fill="#1F2420" d="M11.103,27.966c0.439,0.833,1.424,0.499,1.921,0.054
	C13.53,27.565,10.794,27.384,11.103,27.966z"/>
<path opacity="0.4" fill="#1F2420" d="M12.719,29.493c0.842,0.206,0.97-0.396,0.816-0.833C13.376,28.214,12.13,29.348,12.719,29.493
	z"/>
<path opacity="0.4" fill="#1F2420" d="M11.504,29.116c-0.748,0.29-0.263,0.812,0.254,1.062
	C12.285,30.432,12.027,28.913,11.504,29.116z"/>
<path opacity="0.4" fill="#1F2420" d="M11.192,25.355c0.284,0.542,0.921,0.324,1.245,0.035
	C12.768,25.097,10.992,24.979,11.192,25.355z"/>
<path opacity="0.4" fill="#1F2420" d="M11.021,27.18c0.545,0.134,0.628-0.258,0.525-0.542C11.444,26.349,10.639,27.086,11.021,27.18
	z"/>
<path opacity="0.4" fill="#1F2420" d="M7.848,28.171c0.546,0.135,0.627-0.257,0.526-0.54C8.273,27.341,7.466,28.078,7.848,28.171z"
	/>
<path opacity="0.4" fill="#1F2420" d="M4.046,28.951c0.544,0.134,0.627-0.257,0.527-0.541C4.469,28.12,3.663,28.857,4.046,28.951z"
	/>
<path opacity="0.4" fill="#1F2420" d="M5.347,30.726c0.548,0.134,0.629-0.256,0.528-0.542C5.771,29.895,4.966,30.632,5.347,30.726z"
	/>
<path opacity="0.4" fill="#1F2420" d="M10.361,29.666c0.546,0.134,0.628-0.256,0.527-0.541
	C10.784,28.835,9.979,29.573,10.361,29.666z"/>
<path opacity="0.4" fill="#1F2420" d="M10.265,27.939c0.548,0.134,0.629-0.257,0.528-0.541
	C10.691,27.108,9.884,27.845,10.265,27.939z"/>
<path opacity="0.4" fill="#1F2420" d="M12.188,26.226c-0.485,0.188-0.171,0.527,0.163,0.689
	C12.695,27.078,12.528,26.095,12.188,26.226z"/>
<path opacity="0.4" fill="#1F2420" d="M8.665,26.725c-0.485,0.187-0.171,0.525,0.163,0.688C9.171,27.576,9.006,26.592,8.665,26.725z
	"/>
<path opacity="0.4" fill="#1F2420" d="M8.182,30.086c-0.486,0.188-0.17,0.526,0.166,0.689C8.689,30.938,8.523,29.954,8.182,30.086z"
	/>
<path opacity="0.4" fill="#1F2420" d="M10.998,26.164c-0.439-0.834-1.425-0.5-1.92-0.055C8.568,26.562,11.307,26.745,10.998,26.164z
	"/>
<path opacity="0.4" fill="#1F2420" d="M8.412,26.183c-0.843-0.208-0.972,0.396-0.816,0.834C7.754,27.462,8.998,26.327,8.412,26.183z
	"/>
<path opacity="0.4" fill="#1F2420" d="M10.031,26.865c-0.842-0.208-0.972,0.396-0.815,0.833
	C9.373,28.145,10.619,27.01,10.031,26.865z"/>
<path opacity="0.4" fill="#1F2420" d="M6.854,27.858c0.751-0.289,0.263-0.813-0.253-1.061C6.074,26.544,6.33,28.061,6.854,27.858z"
	/>
<path opacity="0.4" fill="#1F2420" d="M6.1,29.465c-0.438-0.832-1.425-0.498-1.922-0.053C3.672,29.866,6.407,30.049,6.1,29.465z"/>
<path opacity="0.4" fill="#1F2420" d="M4.482,27.596c-0.842-0.206-0.969,0.396-0.814,0.834C3.826,28.875,5.071,27.74,4.482,27.596z"
	/>
<path opacity="0.4" fill="#1F2420" d="M5.334,28.666c0.749-0.291,0.263-0.813-0.256-1.062C4.552,27.35,4.81,28.867,5.334,28.666z"/>
<path opacity="0.4" fill="#1F2420" d="M8.541,29.452c0.784,0.081,0.669-0.609,0.378-1.069C8.62,27.914,7.993,29.396,8.541,29.452z"
	/>
<path opacity="0.4" fill="#1F2420" d="M6.088,31.568c-0.283-0.541-0.921-0.323-1.244-0.035C4.514,31.827,6.288,31.945,6.088,31.568z
	"/>
<path opacity="0.4" fill="#1F2420" d="M4.654,30.451c-0.545-0.134-0.629,0.258-0.528,0.543C4.229,31.283,5.036,30.546,4.654,30.451z
	"/>
<path opacity="0.4" fill="#1F2420" d="M7.68,29.387c0.484-0.188,0.168-0.527-0.166-0.688C7.171,28.533,7.339,29.519,7.68,29.387z"/>
<path fill="#302C3B" d="M19.313,6.95c-0.713,0.018-0.719,1.217-0.003,1.228C63.955,8.9,63.995,8.899,63.995,8.899L64,6
	C64,6,64,6,19.313,6.95z"/>
<polygon fill="#E81C27" points="62.839,6.025 62.846,8.881 57.273,8.791 57.333,6.142 "/>
<polygon opacity="0.3" fill="#FFFFFF" enable-background="new    " points="63.999,6.279 63.998,7.255 19.312,6.95 "/>
<path fill="#FFE485" d="M37.896,36.563L37.896,36.563c-0.302,0-0.6-0.012-0.884-0.037c-0.53-0.045-1.496-0.263-1.747-0.799
	c-0.074-0.16-0.114-0.416,0.12-0.734c0.731-0.991,2.731-1.323,4.174-1.486c0.148-0.018,0.359-0.029,0.602-0.043
	c0.829-0.047,2.373-0.135,2.517-0.636c0.022-0.076,0.009-0.142-0.04-0.204c-0.292-0.381-1.661-0.537-2.453-0.546
	c-0.385-0.007-0.583-0.251-0.58-0.488c0.002-0.229,0.197-0.462,0.569-0.462c0.933,0.016,2.253,0.105,3.089,0.701
	c0.356,0.256,0.58,0.583,0.617,0.901c0.026,0.23-0.048,0.451-0.212,0.639c-0.464,0.522-1.333,0.84-2.58,0.943
	c-0.19,0.016-0.384,0.03-0.584,0.045c-0.96,0.074-2.051,0.158-2.943,0.383c-0.651,0.165-1.046,0.465-1.04,0.648
	c0.003,0.114,0.202,0.222,0.521,0.28c0.264,0.05,0.561,0.073,0.886,0.073c1.739,0,3.971-0.684,5.764-1.232l0.472-0.144
	c0.355-0.108,0.68,0.072,0.727,0.374c0.03,0.198-0.081,0.441-0.398,0.536C42.695,35.82,40.237,36.563,37.896,36.563z"/>
<path fill="#FFE485" d="M16.532,41.205L16.532,41.205c-0.298,0-0.591-0.013-0.872-0.036c-0.534-0.049-1.503-0.271-1.751-0.807
	c-0.075-0.159-0.113-0.414,0.121-0.73c0.727-0.983,2.729-1.32,4.172-1.487c0.149-0.018,0.361-0.029,0.606-0.043
	c0.829-0.047,2.371-0.132,2.517-0.632c0.021-0.077,0.008-0.143-0.042-0.206c-0.292-0.38-1.627-0.535-2.454-0.548
	c-0.385-0.006-0.583-0.248-0.581-0.483c0.002-0.23,0.2-0.464,0.572-0.464c1.447,0.018,2.452,0.248,3.088,0.7
	c0.355,0.256,0.579,0.583,0.617,0.898c0.027,0.23-0.047,0.452-0.213,0.641c-0.463,0.523-1.331,0.842-2.579,0.946
	c-0.186,0.015-0.374,0.029-0.566,0.044c-0.967,0.071-2.062,0.154-2.961,0.383c-0.649,0.163-1.046,0.464-1.039,0.648
	c0.004,0.113,0.202,0.221,0.52,0.279c0.264,0.049,0.561,0.072,0.886,0.072c1.728,0,3.949-0.675,5.735-1.22l0.504-0.153
	c0.349-0.106,0.677,0.07,0.724,0.37c0.03,0.198-0.081,0.442-0.396,0.537C20.892,40.595,18.697,41.205,16.532,41.205z"/>
<path fill="#FFE485" d="M18.278,35.248c-0.812,0-2.25-0.102-2.757-0.783c-0.217-0.29-0.232-0.641-0.046-1.041
	c1.329-2.857,8.78-3.275,11.962-3.454c1.726-0.096,3.429-0.145,5.062-0.145c4.371,0,10.246,0.363,13.412,2.089
	c0.996,0.543,1.439,1.089,1.319,1.622c-0.166,0.727-1.346,1.137-2.098,1.235c-0.493,0.053-0.763-0.198-0.792-0.438
	c-0.021-0.176,0.088-0.407,0.473-0.484c0.625-0.124,0.982-0.297,0.985-0.476c0.005-0.544-2.45-1.425-3.489-1.65
	c-2.889-0.631-6.154-0.952-9.709-0.952l-0.444,0.002c-3.691,0.027-7.591,0.164-11.103,0.973c-1.132,0.261-2.682,0.614-3.659,1.258
	c-0.519,0.34-0.76,0.647-0.68,0.865c0.108,0.296,0.806,0.496,1.733,0.496c1.128,0,2.329-0.283,3.136-0.738
	c0.198-0.111,0.401-0.134,0.539-0.134c0.304,0,0.553,0.11,0.633,0.283c0.037,0.076,0.069,0.229-0.119,0.401
	C21.881,34.873,19.827,35.248,18.278,35.248z"/>
<path fill="#FFE485" d="M19.267,33.267h-0.014c-0.919-0.013-2.236-0.101-3.075-0.7c-0.354-0.253-0.579-0.581-0.616-0.897
	c-0.026-0.23,0.047-0.454,0.214-0.644c0.46-0.521,1.326-0.838,2.576-0.943c0.188-0.015,0.38-0.029,0.574-0.045
	c0.964-0.073,2.056-0.156,2.953-0.383c0.65-0.163,1.046-0.464,1.04-0.648c-0.003-0.114-0.202-0.223-0.521-0.283
	c-0.261-0.048-0.557-0.071-0.88-0.071c-1.743,0-3.983,0.687-5.784,1.237l-0.457,0.14c-0.355,0.107-0.679-0.071-0.726-0.372
	c-0.03-0.199,0.08-0.442,0.396-0.539c1.798-0.543,4.258-1.286,6.598-1.286c0.3,0,0.597,0.013,0.881,0.036
	c0.53,0.046,1.497,0.266,1.748,0.802c0.075,0.159,0.113,0.415-0.12,0.732c-0.723,0.984-2.728,1.321-4.172,1.49
	c-0.148,0.017-0.355,0.028-0.596,0.04c-0.832,0.047-2.383,0.131-2.525,0.636c-0.021,0.077-0.009,0.142,0.039,0.205
	c0.292,0.38,1.628,0.536,2.456,0.547c0.383,0.005,0.583,0.246,0.581,0.482C19.838,33.034,19.64,33.267,19.267,33.267z"/>
<path fill="#FFE485" d="M37.066,33.624c-0.89,0.641-2.313,0.996-3.353,1.258c-3.213,0.807-6.78,0.945-10.156,0.974l-0.41,0.002
	c-3.25,0-6.238-0.321-8.882-0.951c-0.949-0.227-3.196-1.108-3.191-1.65c0.002-0.18,0.33-0.354,0.902-0.479
	c0.352-0.078,0.452-0.309,0.432-0.483c-0.028-0.238-0.299-0.496-0.725-0.435c-0.688,0.098-1.767,0.506-1.92,1.232
	c-0.111,0.534,0.295,1.081,1.206,1.623c2.896,1.727,8.27,2.088,12.268,2.088c0.001,0,0.001,0,0.001,0
	c1.497,0,3.057-0.049,4.638-0.145c4.528-0.276,9.866-0.918,10.948-3.455C38.885,33.062,37.46,33.342,37.066,33.624z"/>
<path fill="#FFE485" d="M43.846,41.476c-0.529,0-0.979-0.146-1.232-0.4c-0.178-0.177-0.264-0.4-0.258-0.665
	c0.027-1.099,1.339-1.86,2.323-2.336c0.102-0.05,0.253-0.107,0.428-0.175c0.603-0.234,1.614-0.627,1.47-1.096
	c-0.078-0.252-0.384-0.379-0.913-0.379c-0.492,0-1.054,0.119-1.309,0.19c-0.051,0.015-0.101,0.021-0.15,0.021
	c-0.311,0-0.536-0.251-0.571-0.481c-0.027-0.204,0.087-0.367,0.299-0.425c1.101-0.304,1.933-0.308,2.623-0.028
	c0.573,0.232,1.121,0.725,1.052,1.299c-0.069,0.606-0.554,1.105-1.435,1.485c-0.133,0.057-0.269,0.114-0.406,0.172
	c-0.693,0.29-1.41,0.591-1.939,0.989c-0.372,0.281-0.479,0.592-0.42,0.761c0.065,0.188,0.327,0.217,0.477,0.217
	c0.028,0,0.057-0.001,0.087-0.003c1.451-0.083,3.053-1.485,4.224-2.51l0.278-0.244c0.082-0.07,0.181-0.107,0.285-0.107
	c0.215,0,0.44,0.165,0.524,0.383c0.068,0.18,0.028,0.358-0.11,0.479c-1.191,1.032-2.824,2.448-4.858,2.813
	C44.167,41.462,44.006,41.476,43.846,41.476z"/>
<path fill="#FFE485" d="M25.354,44.613L25.354,44.613c-0.034,0-0.067-0.001-0.101-0.002c-0.289-0.014-0.422-0.22-0.422-0.406
	c0.001-0.22,0.178-0.459,0.499-0.472c0.336-0.015,0.75-0.083,0.813-0.326c0.135-0.499-1.025-1.55-1.57-1.88
	c-1.662-1.014-3.693-1.786-6.037-2.296c-1.918-0.421-3.986-0.811-6.107-0.811c-0.423,0-0.841,0.016-1.245,0.048
	c-0.812,0.061-1.924,0.146-2.766,0.562c-0.542,0.266-0.819,0.551-0.763,0.786c0.074,0.303,0.713,0.617,1.653,0.617
	c0.505,0,0.998-0.095,1.43-0.271c0.309-0.129,0.671-0.014,0.749,0.227c0.049,0.154-0.024,0.315-0.196,0.432
	c-0.411,0.278-1.11,0.438-1.917,0.438c-1.092,0-2.344-0.306-2.678-0.991c-0.12-0.244-0.17-0.648,0.269-1.18
	c0.886-1.076,2.553-1.621,4.952-1.621c1.564,0,3.139,0.236,3.894,0.349c3.305,0.489,9.127,1.712,10.985,4.41
	c0.522,0.756,0.437,1.273,0.272,1.575C26.766,44.359,25.969,44.613,25.354,44.613z"/>
<path fill="#FFDA54" d="M24.512,34.554c-0.537,0-1.075-0.016-1.602-0.046c-0.065-0.004-0.162-0.007-0.281-0.012
	c-0.987-0.031-3.301-0.106-3.822-0.95c-0.148-0.241-0.147-0.521,0.005-0.827c0.373-0.753,1.405-1.104,3.249-1.104
	c0.978,0,2.054,0.095,3.095,0.187c0.935,0.081,1.816,0.159,2.536,0.159c0.466,0,2.791-0.061,2.791-1.254
	c0-0.438-1.046-0.837-2.666-1.016l-0.117-0.013c-0.58-0.064-1.376-0.153-2.138-0.153c-0.769,0-1.358,0.092-1.751,0.274
	c-0.139,0.064-0.157,0.105-0.157,0.106c0.088,0.201,1.66,0.531,3.565,0.531c0.173,0,0.32,0.05,0.428,0.142
	c0.103,0.089,0.162,0.211,0.162,0.339c0,0.232-0.203,0.469-0.59,0.469h-0.256c-1.833,0-4.008-0.118-4.562-1.051
	c-0.136-0.223-0.16-0.442-0.072-0.652c0.194-0.474,0.893-0.726,1.293-0.834c0.536-0.146,1.416-0.228,2.414-0.228
	c2.104,0,4.826,0.36,5.573,1.375c0.206,0.279,0.253,0.59,0.139,0.922c-0.454,1.328-1.891,1.973-4.389,1.973
	c-0.895,0-1.934-0.08-3.175-0.244c-0.638-0.084-1.26-0.126-1.849-0.126c-1.652,0-2.418,0.327-2.444,0.494
	c-0.006,0.042,0.085,0.182,0.584,0.335c0.632,0.192,1.779,0.299,3.232,0.299c0.708,0,1.447-0.026,2.139-0.073
	c3.143-0.217,5.985-0.797,8.453-1.725c0.374-0.144,0.82,0.065,0.878,0.379c0.03,0.151-0.036,0.353-0.314,0.457
	C31.614,33.908,28.034,34.554,24.512,34.554z"/>
<path fill="#FFDA54" d="M37.644,43.274c-1.614,0-2.653-0.537-2.926-1.513c-0.208-0.748-0.13-1.384,0.229-1.89
	c0.611-0.857,2.013-1.357,4.411-1.569c1.917-0.175,2.888-0.865,2.893-1.203c0.002-0.164-0.249-0.293-0.672-0.343
	c-1.009-0.116-2.813,0.389-4.047,0.892c-2.17,0.884-3.922,2.09-5.205,3.58c-0.083,0.097-0.198,0.149-0.331,0.149
	c-0.238,0-0.495-0.167-0.602-0.388c-0.075-0.159-0.055-0.323,0.054-0.451c1.956-2.277,4.721-3.865,7.788-4.466
	c0.053-0.01,0.128-0.027,0.222-0.049c0.396-0.093,1.135-0.266,1.845-0.266c1.407,0,1.823,0.685,1.923,1.257
	c0.065,0.377-0.009,0.711-0.219,0.996c-0.628,0.853-2.332,1.112-3.978,1.363c-0.73,0.11-1.419,0.215-1.943,0.367
	c-0.333,0.096-1.136,0.379-1.382,0.948c-0.12,0.278-0.088,0.593,0.098,0.935c0.267,0.496,1.088,0.599,1.729,0.599
	c0.333,0,0.634-0.028,0.827-0.051l0.086-0.011c0.864-0.101,2.308-0.27,2.743-0.918c0.03-0.046,0.063-0.107,0.04-0.146
	c-0.044-0.082-0.289-0.177-0.831-0.177c-0.617,0-1.425,0.122-2.104,0.319c-0.047,0.013-0.094,0.02-0.141,0.02
	c-0.321,0-0.576-0.284-0.614-0.549c-0.03-0.213,0.081-0.382,0.293-0.442l0.087-0.024c0.559-0.163,1.495-0.433,2.396-0.433
	c0.72,0,1.278,0.178,1.658,0.529c0.279,0.256,0.417,0.54,0.411,0.843c-0.009,0.448-0.332,0.789-0.523,0.952
	C41.21,42.687,39.362,43.274,37.644,43.274z"/>
<path fill="#FFDA54" d="M9.713,38.317c-0.052,0-0.104-0.006-0.16-0.017c-0.89-0.182-2.144-0.507-2.758-1.239
	c-0.245-0.295-0.359-0.635-0.315-0.934c0.036-0.251,0.181-0.47,0.421-0.632c0.611-0.422,1.54-0.575,2.8-0.449
	c0.181,0.018,0.368,0.039,0.558,0.06c1.004,0.107,2.055,0.222,3.006,0.16c0.771-0.046,1.22-0.304,1.249-0.472
	c0.017-0.099-0.138-0.227-0.402-0.33c-0.636-0.254-1.522-0.376-2.71-0.376c-1.351,0-2.81,0.157-4.098,0.297l-0.532,0.057
	c-0.385,0.038-0.584-0.191-0.598-0.406c-0.014-0.235,0.171-0.495,0.55-0.538c1.388-0.146,2.747-0.277,4.127-0.277
	c1.383,0,2.54,0.136,3.538,0.415c0.643,0.18,1.335,0.576,1.438,1.056c0.037,0.179,0.008,0.452-0.342,0.734
	c-0.62,0.495-1.665,0.734-3.194,0.734c-0.398,0-0.822-0.017-1.334-0.05c-0.15-0.012-0.361-0.038-0.604-0.068
	c-0.462-0.059-1.038-0.132-1.55-0.132c-0.606,0-0.981,0.104-1.117,0.306c-0.05,0.076-0.059,0.145-0.028,0.218
	c0.176,0.407,1.429,0.797,2.179,0.945c0.334,0.067,0.461,0.299,0.441,0.497C10.252,38.096,10.051,38.317,9.713,38.317z"/>
<path fill="#FFDA54" d="M27.295,40.015c-0.05,0-0.103-0.005-0.158-0.018c-0.891-0.18-2.145-0.505-2.76-1.238
	c-0.244-0.294-0.358-0.636-0.316-0.935c0.037-0.249,0.182-0.468,0.423-0.632c0.611-0.42,1.54-0.573,2.8-0.447
	c0.182,0.018,0.369,0.037,0.559,0.059c1.002,0.106,2.052,0.222,3.004,0.161c0.771-0.047,1.221-0.304,1.248-0.473
	c0.019-0.099-0.136-0.226-0.4-0.33c-0.636-0.253-1.522-0.377-2.711-0.377c-1.351,0-2.809,0.158-4.097,0.298l-0.531,0.058
	c-0.388,0.037-0.586-0.192-0.599-0.406c-0.015-0.235,0.17-0.497,0.551-0.538c1.387-0.147,2.745-0.278,4.127-0.278
	c1.381,0,2.538,0.136,3.537,0.415c0.642,0.181,1.336,0.577,1.437,1.055c0.038,0.181,0.01,0.454-0.342,0.735
	c-0.618,0.494-1.664,0.734-3.193,0.734c-0.398,0-0.822-0.018-1.334-0.051c-0.149-0.01-0.361-0.036-0.603-0.067
	c-0.464-0.059-1.04-0.132-1.55-0.132c-0.607,0-0.983,0.103-1.119,0.306c-0.05,0.077-0.059,0.145-0.027,0.218
	c0.177,0.407,1.43,0.796,2.18,0.945c0.333,0.067,0.46,0.299,0.439,0.496C27.835,39.792,27.633,40.015,27.295,40.015z"/>
<path fill="#FFDA54" d="M24.314,43.007c-1.886,0-3.734-0.196-5.451-0.406c-3.684-0.448-12.591-1.826-15.754-4.933
	c-0.661-0.65-0.893-1.223-0.688-1.706c0.289-0.679,1.436-0.98,2.296-0.935c0.388,0.017,0.588,0.258,0.587,0.489
	c-0.002,0.214-0.181,0.447-0.57,0.459c-0.641,0.02-1.019,0.142-1.06,0.342c-0.116,0.545,1.705,1.752,2.539,2.135
	c2.454,1.133,5.379,2.005,8.691,2.594c2.742,0.482,5.686,0.932,8.603,0.932c0.536,0,1.063-0.016,1.571-0.047
	c1.096-0.066,2.595-0.157,3.675-0.619c0.622-0.264,0.95-0.554,0.898-0.792c-0.083-0.384-1.104-0.795-2.493-0.795
	c-0.686,0-1.339,0.103-1.889,0.298c-0.407,0.145-0.913-0.016-0.996-0.297c-0.021-0.073-0.042-0.262,0.217-0.42
	c0.494-0.299,1.391-0.472,2.461-0.472c1.587,0,3.487,0.395,3.908,1.259c0.116,0.244,0.17,0.64-0.251,1.144
	C29.626,42.41,27.508,43.007,24.314,43.007z"/>
<path fill="#FFE485" d="M23.381,32.405c-0.048,0-0.096-0.007-0.145-0.02c-0.284-0.082-0.449-0.377-0.37-0.665
	c1.496-5.37,0.771-8.137-0.07-11.34c-0.846-3.226-1.805-6.882-0.741-13.839c0.045-0.293,0.316-0.495,0.608-0.449
	c0.291,0.045,0.491,0.32,0.446,0.614c-1.03,6.735-0.102,10.274,0.718,13.398c0.844,3.216,1.642,6.254,0.066,11.908
	C23.828,32.25,23.614,32.405,23.381,32.405z"/>
<path fill="#FFDA54" d="M25.004,32.405c-0.035,0-0.07-0.003-0.106-0.011c-0.289-0.06-0.475-0.344-0.416-0.635
	c1.521-7.565,0.424-11.609-0.544-15.177c-0.858-3.163-1.599-5.893-0.239-10.125c0.09-0.281,0.392-0.438,0.672-0.346
	s0.434,0.396,0.343,0.679c-1.261,3.926-0.593,6.389,0.253,9.507c0.95,3.503,2.132,7.86,0.562,15.677
	C25.475,32.23,25.252,32.405,25.004,32.405z"/>
<path fill="#FFDA54" d="M26.664,32.405c-0.048,0-0.097-0.007-0.145-0.02c-0.284-0.082-0.449-0.377-0.369-0.665
	c2.014-7.229,0.776-11.388-0.316-15.059c-0.928-3.119-1.805-6.065-0.476-10.204c0.091-0.281,0.39-0.438,0.672-0.346
	c0.28,0.092,0.435,0.396,0.343,0.679c-1.228,3.818-0.435,6.479,0.483,9.562c1.133,3.812,2.419,8.131,0.32,15.661
	C27.111,32.25,26.897,32.405,26.664,32.405z"/>
<path fill="#FFE485" d="M28.324,32.405c-0.072,0-0.147-0.015-0.217-0.046c-0.27-0.122-0.391-0.439-0.27-0.712
	c1.627-3.679,0.706-7.73-0.271-12.021c-0.974-4.283-1.979-8.711-0.549-13.169c0.091-0.282,0.393-0.438,0.672-0.346
	c0.28,0.092,0.435,0.396,0.343,0.679c-1.341,4.173-0.366,8.454,0.574,12.596c1.016,4.47,1.976,8.692,0.204,12.7
	C28.723,32.286,28.528,32.405,28.324,32.405z"/>
<linearGradient id="SVGID_6_" gradientUnits="userSpaceOnUse" x1="5.0215" y1="41.332" x2="18.355" y2="41.332" gradientTransform="matrix(0.991 0.1336 -0.1336 0.991 34.5891 -9.2778)">
	<stop  offset="0" style="stop-color:#F5EFE6"/>
	<stop  offset="1" style="stop-color:#E3D5C1"/>
	<a:midPointStop  offset="0" style="stop-color:#F5EFE6"/>
	<a:midPointStop  offset="0.5212" style="stop-color:#F5EFE6"/>
	<a:midPointStop  offset="1" style="stop-color:#E3D5C1"/>
</linearGradient>
<path fill="url(#SVGID_6_)" d="M47.468,32.569c-0.169,1.269-0.453,1.892-1.218,2.633c-3.066,0.334-7.813,0.68-10.714-0.266
	c-0.971-1.061-1.506-2.464-1.279-4.165C34.422,29.537,47.632,31.336,47.468,32.569z"/>
<path fill="#FAF4EB" d="M47.468,32.569c-0.166,1.232-3.257,1.829-6.903,1.334c-3.647-0.498-6.472-1.899-6.308-3.132
	c0.165-1.234,3.256-1.831,6.903-1.334C44.809,29.934,47.632,31.336,47.468,32.569z"/>
<linearGradient id="SVGID_7_" gradientUnits="userSpaceOnUse" x1="10.6284" y1="40.8516" x2="10.6284" y2="38.2412" gradientTransform="matrix(0.991 0.1336 -0.1336 0.991 34.5891 -9.2778)">
	<stop  offset="0" style="stop-color:#FFBF24"/>
	<stop  offset="0.2417" style="stop-color:#FCB925"/>
	<stop  offset="0.5514" style="stop-color:#F4A927"/>
	<stop  offset="0.8968" style="stop-color:#E88F2C"/>
	<stop  offset="1" style="stop-color:#E3862D"/>
	<a:midPointStop  offset="0" style="stop-color:#FFBF24"/>
	<a:midPointStop  offset="0.6545" style="stop-color:#FFBF24"/>
	<a:midPointStop  offset="1" style="stop-color:#E3862D"/>
</linearGradient>
<path fill="url(#SVGID_7_)" d="M43.503,31.831c-0.096,0.714-1.813,1.069-3.839,0.795c-2.021-0.275-3.585-1.079-3.49-1.794
	c0.095-0.713,1.814-1.069,3.837-0.794C42.035,30.314,43.598,31.116,43.503,31.831z"/>
<path fill="#FFE485" d="M29.616,43.606c-0.934,0-1.536-0.447-1.695-1.26c-0.583-2.949,4.394-4.909,6.267-5.647
	c2.224-0.875,6.514-2.347,10.267-2.347c1.175,0,2.221,0.146,3.112,0.433c1.369,0.438,1.703,1.036,1.743,1.461
	c0.055,0.578-0.409,1.102-0.864,1.343c-0.078,0.042-0.162,0.063-0.251,0.063l0,0c-0.249,0-0.493-0.17-0.565-0.396
	c-0.057-0.174,0.003-0.341,0.158-0.449c0.22-0.15,0.467-0.368,0.405-0.564c-0.179-0.554-2.354-0.904-3.224-0.904
	c-2.365,0-4.803,0.391-7.264,1.16c-2.441,0.761-4.969,1.663-6.905,3.121c-0.621,0.465-1.469,1.101-1.786,1.872
	c-0.159,0.388-0.171,0.699-0.032,0.901c0.129,0.187,0.395,0.288,0.748,0.288c0.794,0,1.931-0.531,2.385-1.39
	c0.094-0.181,0.292-0.294,0.516-0.294c0.166,0,0.32,0.064,0.412,0.171c0.08,0.095,0.11,0.218,0.086,0.347
	C32.943,42.493,31.073,43.606,29.616,43.606z"/>
<path fill="#529320" d="M24.808,34.063c0,0,0.046,2.119,2.527,1.439l0.088-0.663C25.226,35.007,25.255,33.632,24.808,34.063z"/>
<path fill="#529320" d="M38.224,38.271c0,0,0.046,2.118,2.528,1.438l0.088-0.663C38.643,39.214,38.672,37.838,38.224,38.271z"/>
<path fill="#529320" d="M33.511,40.993c-1.483,1.65-2.604,0.591-2.577,1.228c-0.001,0,1.799,1.574,3.063-0.665L33.511,40.993z"/>
<path fill="#529320" d="M23.744,41.498c-1.483,1.651-2.604,0.591-2.577,1.228c-0.001,0,1.799,1.574,3.063-0.665L23.744,41.498z"/>
<path fill="#529320" d="M40.924,36.638c0.16-2.125,1.493-1.634,1.14-2.199c0-0.002-2.068-0.674-1.769,1.894L40.924,36.638z"/>
<path fill="#529320" d="M15.772,37.258L14.8,37.143c-0.108,2.06-2.152,1.964-1.583,2.406C13.215,39.551,16.39,39.611,15.772,37.258z
	"/>
<path fill="#529320" d="M17.392,29.412l-0.973-0.115c-0.108,2.06-2.152,1.963-1.584,2.406
	C14.834,31.705,18.008,31.765,17.392,29.412z"/>
<path fill="#529320" d="M5.66,34.204l0.623,0.697c1.313-1.399,2.711-0.037,2.571-0.713C8.856,34.188,6.633,32.138,5.66,34.204z"/>
<path fill="#529320" d="M47.801,34.199l-0.59,0.457c1.988,1.161,0.895,2.199,1.608,2.132C48.822,36.788,50.433,35.133,47.801,34.199
	z"/>
<linearGradient id="SVGID_8_" gradientUnits="userSpaceOnUse" x1="15.8374" y1="27.8311" x2="15.8374" y2="10.0156">
	<stop  offset="0" style="stop-color:#A9B0B3"/>
	<stop  offset="0.3157" style="stop-color:#BDC4C7"/>
	<stop  offset="0.9614" style="stop-color:#EFF6FC"/>
	<stop  offset="1" style="stop-color:#F2F9FF"/>
	<a:midPointStop  offset="0" style="stop-color:#A9B0B3"/>
	<a:midPointStop  offset="0.5455" style="stop-color:#A9B0B3"/>
	<a:midPointStop  offset="1" style="stop-color:#F2F9FF"/>
</linearGradient>
<path opacity="0.6" fill="url(#SVGID_8_)" enable-background="new    " d="M16.583,27.831c0,0,2.027-3.139-2.366-7.728
	c-4.779-4.987,2.366-6.813,2.366-10.088c0,0,1.163,1.304-0.469,4.388C13.8,18.767,23.475,19.457,16.583,27.831z"/>
<linearGradient id="SVGID_9_" gradientUnits="userSpaceOnUse" x1="33.7715" y1="26.6094" x2="33.7715" y2="12.5586">
	<stop  offset="0" style="stop-color:#A9B0B3"/>
	<stop  offset="0.3157" style="stop-color:#BDC4C7"/>
	<stop  offset="0.9614" style="stop-color:#EFF6FC"/>
	<stop  offset="1" style="stop-color:#F2F9FF"/>
	<a:midPointStop  offset="0" style="stop-color:#A9B0B3"/>
	<a:midPointStop  offset="0.5455" style="stop-color:#A9B0B3"/>
	<a:midPointStop  offset="1" style="stop-color:#F2F9FF"/>
</linearGradient>
<path opacity="0.6" fill="url(#SVGID_9_)" enable-background="new    " d="M33.187,12.559c0,0-1.582,2.495,1.867,6.095
	c3.769,3.936-1.867,5.375-1.867,7.956c0,0-0.917-1.027,0.37-3.461C35.373,19.707,27.742,19.154,33.187,12.559z"/>
<linearGradient id="SVGID_10_" gradientUnits="userSpaceOnUse" x1="40.8398" y1="27.6074" x2="40.8398" y2="15.9346">
	<stop  offset="0" style="stop-color:#A9B0B3"/>
	<stop  offset="0.3157" style="stop-color:#BDC4C7"/>
	<stop  offset="0.9614" style="stop-color:#EFF6FC"/>
	<stop  offset="1" style="stop-color:#F2F9FF"/>
	<a:midPointStop  offset="0" style="stop-color:#A9B0B3"/>
	<a:midPointStop  offset="0.5455" style="stop-color:#A9B0B3"/>
	<a:midPointStop  offset="1" style="stop-color:#F2F9FF"/>
</linearGradient>
<path opacity="0.6" fill="url(#SVGID_10_)" enable-background="new    " d="M40.354,15.935c0,0-1.315,2.072,1.552,5.063
	c3.129,3.268-1.552,4.465-1.552,6.609c0,0-0.762-0.854,0.307-2.876C42.17,21.872,35.831,21.413,40.354,15.935z"/>
<path fill="#302C3B" d="M18.887,8.953c-0.711-0.033-0.794,1.165-0.082,1.225c44.486,3.661,44.523,3.662,44.523,3.662l0.192-2.896
	C63.521,10.944,63.521,10.944,18.887,8.953z"/>
<polygon fill="#E81C27" points="62.314,10.893 62.097,13.739 56.646,13.292 56.835,10.648 "/>
<polygon opacity="0.3" fill="#FFFFFF" enable-background="new    " points="63.502,11.223 63.437,12.199 18.887,8.951 "/>
<path fill="#FFE485" d="M25.299,32.602c-0.068,0-0.138-0.011-0.204-0.036c-0.272-0.106-0.402-0.396-0.29-0.65
	c2.207-4.963,1.013-8.027-0.25-11.27c-1.271-3.265-2.585-6.641-0.558-12.014c0.098-0.259,0.401-0.396,0.68-0.303
	c0.278,0.09,0.424,0.373,0.326,0.634c-1.901,5.037-0.708,8.101,0.555,11.343c1.276,3.28,2.598,6.671,0.233,11.989
	C25.706,32.487,25.507,32.602,25.299,32.602z"/>
<path fill="#FFDA54" d="M22.608,31.747c-0.072,0-0.147-0.014-0.217-0.04c-0.27-0.109-0.391-0.392-0.27-0.635
	c1.627-3.269,0.706-6.87-0.271-10.683c-0.974-3.806-1.979-7.741-0.549-11.702c0.091-0.251,0.393-0.389,0.672-0.308
	c0.28,0.081,0.435,0.352,0.343,0.603c-1.341,3.708-0.366,7.514,0.574,11.193c1.016,3.973,1.976,7.725,0.204,11.287
	C23.007,31.641,22.813,31.747,22.608,31.747z"/>
</svg>
