<?xml version="1.0" encoding="utf-8"?>
<!-- Generator: Adobe Illustrator 15.0.0, SVG Export Plug-In . SVG Version: 6.00 Build 0)  -->
<!DOCTYPE svg PUBLIC "-//W3C//DTD SVG 1.1//EN" "http://www.w3.org/Graphics/SVG/1.1/DTD/svg11.dtd" [
	<!ENTITY ns_flows "http://ns.adobe.com/Flows/1.0/">
	<!ENTITY ns_extend "http://ns.adobe.com/Extensibility/1.0/">
	<!ENTITY ns_ai "http://ns.adobe.com/AdobeIllustrator/10.0/">
	<!ENTITY ns_graphs "http://ns.adobe.com/Graphs/1.0/">
]>
<svg version="1.1" id="Layer_1" xmlns:x="&ns_extend;" xmlns:i="&ns_ai;" xmlns:graph="&ns_graphs;"
	 xmlns="http://www.w3.org/2000/svg" xmlns:xlink="http://www.w3.org/1999/xlink" xmlns:a="http://ns.adobe.com/AdobeSVGViewerExtensions/3.0/"
	 x="0px" y="0px" width="64px" height="64px" viewBox="0 0 64 64" enable-background="new 0 0 64 64" xml:space="preserve">
<radialGradient id="SVGID_1_" cx="-10.8013" cy="-12.5151" r="18.7327" gradientTransform="matrix(0.9084 -0.3355 0.3349 0.9337 53.0351 43.8007)" gradientUnits="userSpaceOnUse">
	<stop  offset="0.4" style="stop-color:#E60026"/>
	<stop  offset="0.6175" style="stop-color:#E30026"/>
	<stop  offset="0.7583" style="stop-color:#DB0024"/>
	<stop  offset="0.8774" style="stop-color:#CC0022"/>
	<stop  offset="0.9838" style="stop-color:#B7001F"/>
	<stop  offset="1" style="stop-color:#B3001E"/>
	<a:midPointStop  offset="0.4" style="stop-color:#E60026"/>
	<a:midPointStop  offset="0.7879" style="stop-color:#E60026"/>
	<a:midPointStop  offset="1" style="stop-color:#B3001E"/>
</radialGradient>
<path fill="url(#SVGID_1_)" d="M39.923,28.093c-1.244,0.459-15.91,0.883-12.351,14.744c6.173,24.032,42.518,9.343,31.29-11.557
	C52.023,18.551,41.169,27.633,39.923,28.093z"/>
<radialGradient id="SVGID_2_" cx="6.9277" cy="-14.4834" r="7.2608" gradientTransform="matrix(0.9905 -0.3659 0.1499 0.418 36.2761 40.1137)" gradientUnits="userSpaceOnUse">
	<stop  offset="0" style="stop-color:#B30100"/>
	<stop  offset="1" style="stop-color:#C21413;stop-opacity:0"/>
	<a:midPointStop  offset="0" style="stop-color:#B30100"/>
	<a:midPointStop  offset="0.5" style="stop-color:#B30100"/>
	<a:midPointStop  offset="1" style="stop-color:#C21413;stop-opacity:0"/>
</radialGradient>
<path fill="url(#SVGID_2_)" d="M41.189,32.101c3.867-1.428,2.985-3.179,11.765-6.646c-5.598-0.54-21.109,5.202-25.016,9.238
	C36.887,31.605,37.319,33.53,41.189,32.101z"/>
<path fill="#529320" d="M33.6,8.845c-0.472,0.469-0.998,0.809-1.532,1.202c-0.437,11.992,6.635,19.314,9.122,22.054
	c0,0,1.133-0.275,2.053-1.028C40.861,28.446,32.928,20.75,33.6,8.845z"/>
<radialGradient id="SVGID_3_" cx="175.5605" cy="-638.1563" r="4.3992" gradientTransform="matrix(0.9002 -0.481 -0.5541 -0.8872 -459.0334 -449.0777)" gradientUnits="userSpaceOnUse">
	<stop  offset="0" style="stop-color:#FF7A70;stop-opacity:0.65"/>
	<stop  offset="1" style="stop-color:#FF7A70;stop-opacity:0"/>
	<a:midPointStop  offset="0" style="stop-color:#FF7A70;stop-opacity:0.65"/>
	<a:midPointStop  offset="0.5" style="stop-color:#FF7A70;stop-opacity:0.65"/>
	<a:midPointStop  offset="1" style="stop-color:#FF7A70;stop-opacity:0"/>
</radialGradient>
<path fill="url(#SVGID_3_)" d="M56.553,30.534c-1.347-2.156-4.212-2.957-6.398-1.788c-2.188,1.169-2.87,3.864-1.523,6.019
	c1.346,2.155,4.212,2.956,6.398,1.786C57.217,35.384,57.898,32.689,56.553,30.534z"/>
<radialGradient id="SVGID_4_" cx="110.5234" cy="-809.627" r="6.8179" gradientTransform="matrix(0.9198 -0.4086 -0.4687 -0.5713 -439.7711 -379.5157)" gradientUnits="userSpaceOnUse">
	<stop  offset="0" style="stop-color:#FF7A70;stop-opacity:0.65"/>
	<stop  offset="1" style="stop-color:#FF7A70;stop-opacity:0"/>
	<a:midPointStop  offset="0" style="stop-color:#FF7A70;stop-opacity:0.65"/>
	<a:midPointStop  offset="0.5" style="stop-color:#FF7A70;stop-opacity:0.65"/>
	<a:midPointStop  offset="1" style="stop-color:#FF7A70;stop-opacity:0"/>
</radialGradient>
<path fill="url(#SVGID_4_)" d="M47.654,35.075c-1.764-2.15-6.002-2.647-9.465-1.109c-3.464,1.539-4.843,4.529-3.075,6.681
	c1.764,2.152,6.004,2.647,9.467,1.11C48.043,40.218,49.422,37.227,47.654,35.075z"/>
<radialGradient id="SVGID_5_" cx="8.9971" cy="44.2061" r="20.5474" gradientTransform="matrix(0.9667 0 0 0.9936 8.8469 -5.7308)" gradientUnits="userSpaceOnUse">
	<stop  offset="0.4" style="stop-color:#E60026"/>
	<stop  offset="0.6175" style="stop-color:#E30026"/>
	<stop  offset="0.7583" style="stop-color:#DB0024"/>
	<stop  offset="0.8774" style="stop-color:#CC0022"/>
	<stop  offset="0.9838" style="stop-color:#B7001F"/>
	<stop  offset="1" style="stop-color:#B3001E"/>
	<a:midPointStop  offset="0.4" style="stop-color:#E60026"/>
	<a:midPointStop  offset="0.7879" style="stop-color:#E60026"/>
	<a:midPointStop  offset="1" style="stop-color:#B3001E"/>
</radialGradient>
<path fill="url(#SVGID_5_)" d="M21.291,30.651c-1.453,0-16.728-5.146-18.184,10.494c-2.52,27.12,40.37,25.816,36.523,0
	C37.289,25.423,22.743,30.651,21.291,30.651z"/>
<radialGradient id="SVGID_6_" cx="25.3877" cy="42.7754" r="7.9635" gradientTransform="matrix(1.0541 0 0 0.4448 -5.6665 15.5573)" gradientUnits="userSpaceOnUse">
	<stop  offset="0" style="stop-color:#B30100"/>
	<stop  offset="1" style="stop-color:#C21413;stop-opacity:0"/>
	<a:midPointStop  offset="0" style="stop-color:#B30100"/>
	<a:midPointStop  offset="0.5" style="stop-color:#B30100"/>
	<a:midPointStop  offset="1" style="stop-color:#C21413;stop-opacity:0"/>
</radialGradient>
<path fill="url(#SVGID_6_)" d="M21.113,35.264c4.515,0,4.25-2.141,14.583-2.372c-5.569-2.687-23.68-2.674-29.199-0.001
	C16.864,33.116,16.593,35.264,21.113,35.264z"/>
<path fill="#56AB15" d="M43.354,3.787C25.938,7.491,20.117,23.542,20.117,35.225c0,0,1.064,0.142,1.997,0
	c0-13.879,7.258-26.932,21.24-30.247V3.787z"/>
<radialGradient id="SVGID_7_" cx="265.7227" cy="-537.6221" r="5.0383" gradientTransform="matrix(1.0158 -0.0994 -0.1719 -1.0318 -352.0031 -488.4293)" gradientUnits="userSpaceOnUse">
	<stop  offset="0" style="stop-color:#FF7A70;stop-opacity:0.65"/>
	<stop  offset="1" style="stop-color:#FF7A70;stop-opacity:0"/>
	<a:midPointStop  offset="0" style="stop-color:#FF7A70;stop-opacity:0.65"/>
	<a:midPointStop  offset="0.5" style="stop-color:#FF7A70;stop-opacity:0.65"/>
	<a:midPointStop  offset="1" style="stop-color:#FF7A70;stop-opacity:0"/>
</radialGradient>
<path fill="url(#SVGID_7_)" d="M15.428,39.39c-0.478-2.871-3.156-4.975-5.982-4.696c-2.827,0.275-4.731,2.827-4.254,5.697
	c0.479,2.872,3.158,4.974,5.985,4.698C14.003,44.813,15.908,42.261,15.428,39.39z"/>
<radialGradient id="SVGID_8_" cx="37.1924" cy="-608.5176" r="5.0378" gradientTransform="matrix(1.5597 -0.5482 -0.6874 -0.8828 -448.589 -476.1664)" gradientUnits="userSpaceOnUse">
	<stop  offset="0" style="stop-color:#FF5E52;stop-opacity:0.65"/>
	<stop  offset="1" style="stop-color:#FF5E52;stop-opacity:0"/>
	<a:midPointStop  offset="0" style="stop-color:#FF5E52;stop-opacity:0.65"/>
	<a:midPointStop  offset="0.5" style="stop-color:#FF5E52;stop-opacity:0.65"/>
	<a:midPointStop  offset="1" style="stop-color:#FF5E52;stop-opacity:0"/>
</radialGradient>
<path fill="url(#SVGID_8_)" d="M35.567,37.854c-1.911-2.457-6.981-3.211-11.32-1.686c-4.341,1.525-6.31,4.752-4.397,7.209
	c1.915,2.456,6.983,3.211,11.322,1.685C35.513,43.538,37.481,40.311,35.567,37.854z"/>
<radialGradient id="SVGID_9_" cx="32.7822" cy="16.4263" r="6.4306" gradientTransform="matrix(0.9667 0 0 0.9667 8.8469 -10.645)" gradientUnits="userSpaceOnUse">
	<stop  offset="0.1091" style="stop-color:#56AB15"/>
	<stop  offset="0.1122" style="stop-color:#56AA15"/>
	<stop  offset="0.3217" style="stop-color:#645D25"/>
	<stop  offset="0.4182" style="stop-color:#693F2B"/>
	<a:midPointStop  offset="0.1091" style="stop-color:#56AB15"/>
	<a:midPointStop  offset="0.4691" style="stop-color:#56AB15"/>
	<a:midPointStop  offset="0.4182" style="stop-color:#693F2B"/>
</radialGradient>
<path fill="url(#SVGID_9_)" d="M46.438,3c-2.933,0-4.413,0.787-6.241,1.63c0.424,0.349,0.488,0.874,0.646,1.06
	c0.926,0.361,3.025-0.59,5.336,0C47.383,5.998,47.56,3,46.438,3z"/>
<path fill="#AB735B" d="M44.529,5.237c-0.669,1.094-1.891,0.397-1.698-0.11C43.309,4.929,43.909,5.514,44.529,5.237z"/>
<path fill="#AB735B" d="M44.596,4.333c-0.058-1.262,1.29-1.298,1.41-0.772C45.831,3.937,44.939,3.784,44.596,4.333z"/>
<path fill="#947365" d="M42.166,4.776c0.119-1.375,1.787-1.617,1.857-1.058C43.354,3.589,42.84,4.677,42.166,4.776z"/>
<path fill="#947365" d="M46.279,5.645c-1.125,0.469-1.397-0.697-0.947-0.977C45.452,5.023,46.279,5.211,46.279,5.645z"/>
<path fill="#449C00" d="M40.773,5.444c-3.315,22.264,20.045,26.531,20.045,26.531S49.332,11.405,40.773,5.444z"/>
<path fill="#56AB15" d="M40.773,5.444c7.599,6.972,20.045,26.531,20.045,26.531S64.297,7.911,40.773,5.444z"/>
<path fill="#5FBD17" d="M42.938,7.617c1.761-0.248,3.585-0.047,5.297,0.394c1.705,0.47,3.314,1.235,4.619,2.289
	c-1.445-0.894-3.015-1.621-4.703-2.058c-0.835-0.237-1.698-0.393-2.57-0.5C44.71,7.64,43.823,7.578,42.938,7.617z"/>
<path fill="#5FBD17" d="M45.919,11.055c1.989-0.334,4.082-0.124,6.002,0.454c0.956,0.306,1.87,0.709,2.708,1.213
	c0.832,0.507,1.583,1.11,2.231,1.782c-1.452-1.215-3.142-2.202-5.033-2.768c-0.936-0.301-1.914-0.497-2.904-0.612
	C47.932,11.015,46.923,10.97,45.919,11.055z"/>
<path fill="#5FBD17" d="M48.972,14.926c2.006-0.081,4.028,0.308,5.867,1.024c0.911,0.377,1.782,0.839,2.55,1.41
	c0.772,0.565,1.432,1.241,1.97,1.974c-1.242-1.363-2.826-2.461-4.636-3.167c-0.892-0.371-1.838-0.639-2.802-0.848
	C50.956,15.119,49.971,14.97,48.972,14.926z"/>
<path fill="#5FBD17" d="M52.397,19.57c1.606,0.2,3.147,0.724,4.559,1.429c0.692,0.369,1.361,0.783,1.951,1.272
	c0.598,0.482,1.107,1.041,1.526,1.642c-1.007-1.098-2.236-2.011-3.62-2.707c-0.68-0.365-1.406-0.664-2.141-0.938
	C53.933,20,53.178,19.755,52.397,19.57z"/>
<path fill="#5FBD17" d="M55.523,24.021c1.175,0.331,2.241,0.915,3.183,1.615c0.458,0.364,0.889,0.757,1.247,1.198
	c0.364,0.437,0.651,0.921,0.854,1.425c-0.602-0.932-1.368-1.755-2.285-2.443c-0.444-0.358-0.934-0.67-1.434-0.971
	C56.586,24.551,56.067,24.267,55.523,24.021z"/>
<path fill="#56AB15" d="M42.938,7.617c-1.05,1.31-1.609,2.891-1.838,4.5c-0.196,1.618-0.007,3.306,0.648,4.888
	c-0.412-1.619-0.57-3.253-0.347-4.841c0.087-0.797,0.278-1.575,0.533-2.337C42.196,9.067,42.507,8.318,42.938,7.617z"/>
<path fill="#56AB15" d="M45.919,11.055c-1.336,1.576-2.118,3.488-2.412,5.417c-0.126,0.968-0.125,1.945,0.028,2.901
	c0.154,0.952,0.456,1.875,0.885,2.743c-0.639-1.81-0.909-3.724-0.619-5.623c0.121-0.948,0.386-1.885,0.738-2.796
	C44.899,12.785,45.339,11.889,45.919,11.055z"/>
<path fill="#56AB15" d="M48.972,14.926c-1.104,1.74-1.724,3.693-1.907,5.622c-0.064,0.965-0.019,1.929,0.191,2.845
	c0.2,0.92,0.578,1.785,1.077,2.566c-0.805-1.668-1.154-3.528-0.979-5.421c0.064-0.947,0.264-1.896,0.533-2.835
	C48.166,16.762,48.509,15.83,48.972,14.926z"/>
<path fill="#56AB15" d="M52.397,19.57c-0.723,1.445-1.088,2.992-1.193,4.513c-0.029,0.76,0.002,1.519,0.151,2.248
	c0.14,0.732,0.405,1.429,0.766,2.066c-0.518-1.371-0.725-2.839-0.628-4.334c0.027-0.746,0.146-1.498,0.294-2.248
	C51.944,21.065,52.137,20.314,52.397,19.57z"/>
<path fill="#56AB15" d="M55.523,24.021c-0.316,1.253-0.303,2.507-0.098,3.687c0.126,0.581,0.294,1.151,0.557,1.669
	c0.252,0.524,0.601,0.989,1.017,1.385c-0.641-0.944-1.075-2.007-1.28-3.158c-0.126-0.566-0.177-1.16-0.211-1.756
	C55.479,25.248,55.476,24.64,55.523,24.021z"/>
</svg>
