<?xml version="1.0" encoding="utf-8"?>
<!-- Generator: Adobe Illustrator 15.0.0, SVG Export Plug-In . SVG Version: 6.00 Build 0)  -->
<!DOCTYPE svg PUBLIC "-//W3C//DTD SVG 1.1//EN" "http://www.w3.org/Graphics/SVG/1.1/DTD/svg11.dtd" [
	<!ENTITY ns_flows "http://ns.adobe.com/Flows/1.0/">
	<!ENTITY ns_extend "http://ns.adobe.com/Extensibility/1.0/">
	<!ENTITY ns_ai "http://ns.adobe.com/AdobeIllustrator/10.0/">
	<!ENTITY ns_graphs "http://ns.adobe.com/Graphs/1.0/">
]>
<svg version="1.1" id="Layer_1" xmlns:x="&ns_extend;" xmlns:i="&ns_ai;" xmlns:graph="&ns_graphs;"
	 xmlns="http://www.w3.org/2000/svg" xmlns:xlink="http://www.w3.org/1999/xlink" xmlns:a="http://ns.adobe.com/AdobeSVGViewerExtensions/3.0/"
	 x="0px" y="0px" width="64px" height="64px" viewBox="0 0 64 64" enable-background="new 0 0 64 64" xml:space="preserve">
<path fill="#B3C2C6" d="M32,64c30.182,0,49.388-23.4,0-23.4C-17.39,40.6,1.819,64,32,64z"/>
<ellipse fill="#E6EBEF" cx="32" cy="49.267" rx="32" ry="13"/>
<linearGradient id="SVGID_1_" gradientUnits="userSpaceOnUse" x1="31.8203" y1="57.5908" x2="31.8203" y2="35.0711">
	<stop  offset="0" style="stop-color:#FFC757"/>
	<stop  offset="0.171" style="stop-color:#F8AC47"/>
	<stop  offset="0.7409" style="stop-color:#E35514"/>
	<stop  offset="1" style="stop-color:#DB3300"/>
	<a:midPointStop  offset="0" style="stop-color:#FFC757"/>
	<a:midPointStop  offset="0.4727" style="stop-color:#FFC757"/>
	<a:midPointStop  offset="1" style="stop-color:#DB3300"/>
</linearGradient>
<path fill="url(#SVGID_1_)" d="M5.992,48.175c0.625-7.015,11.609-15.044,24.179-17.752c8.561-0.443,29.989,11.171,27.235,17.311
	C50.74,62.603,8.371,58.9,5.992,48.175z"/>
<path fill="#FFD56B" d="M26.129,57.836c-8.543,0-16.835-1.132-20.733-10.202c-0.165-0.386,0.002-0.838,0.377-1.007
	c0.015-0.008,0.031-0.017,0.05-0.022c-0.206-0.438-0.316-0.877-0.298-1.317c0.031-0.743,0.365-1.066,0.64-1.21
	c0.779-0.402,1.654,0.215,3.392,1.439c2.521,1.781,6.738,4.761,12.396,5.544c6.397,0.892,16.101-0.821,21.314-1.917
	c1.269-0.267,10.487-3.833,12.581-5.491c-1.864-0.123-6.025,1.322-9.6,2.939c-3.248,1.463-14.457,4.963-21.86,3.279
	c-2.263-0.515-3.967-0.754-5.333-0.946c-3.381-0.475-5.244-0.735-9.686-4.013c-1.733-1.278-2.015-2.333-1.948-2.995
	c0.069-0.632,0.46-1.136,1.106-1.423c0.794-0.353,2.063-0.367,3.58,0.108c-0.877-0.542-1.421-1.079-1.5-1.579
	c-0.054-0.338-0.029-1.167,1.344-1.536c1.923-0.524,3.975,0.353,6.571,1.459c3.867,1.647,8.679,3.693,15.402,2.102
	c2.327-0.554,5.38-1.09,8.331-1.606c2.271-0.396,4.906-0.858,6.606-1.252c-4.04-0.677-7.915-0.008-11.987,0.696
	c-6.2,1.075-12.608,2.186-20.661-1.031c-0.533-0.213-1.948-0.775-1.668-1.86c0.66-2.555,14.606-0.731,22.862,0.585
	c0.3,0.05,0.531,0.277,0.604,0.564c4.205-0.712,8.255-1.229,12.645-0.14c0.336,0.084,1.229,0.307,1.202,1.123
	c-0.038,1.057-1.085,1.373-9.356,2.821c-2.93,0.513-5.961,1.044-8.246,1.587c-7.179,1.707-12.45-0.537-16.295-2.177
	c-2.34-0.996-4.188-1.783-5.633-1.394c-0.017,0.002-0.034,0.008-0.048,0.013c1.915,1.658,13.542,5.262,20.026,4.822
	c6.12-0.423,9.785-1.719,12.73-2.758c2.983-1.053,5.336-1.886,8.852-1.509c0.465,0.053,1.557,0.167,1.617,1.081
	c0.029,0.465,0.059,0.917-2.125,1.807c1.379-0.313,2.617-0.425,3.402-0.146c0.883,0.316,0.91,0.995,0.898,1.195
	c-0.031,0.483-0.563,1.046-1.402,1.636c0.837-0.25,1.541-0.261,1.979,0.129c0.563,0.498,0.549,1.302-0.041,2.392
	c-4.078,7.529-15.551,10.292-24.198,10.163C32.447,57.767,27.18,57.836,26.129,57.836z M7.683,48.873
	c4.344,7.392,12.731,7.285,21.583,7.173c1.59-0.021,3.188-0.04,4.767-0.019c8.856,0.16,19.371-2.648,22.89-9.146
	c0.101-0.185,0.163-0.326,0.202-0.433c-0.848,0.131-3.285,1.237-7.213,4.427c-5.431,4.415-12.344,4.057-19.031,3.706
	c-1.607-0.081-3.027,0.061-4.396,0.194c-3.237,0.322-6.585,0.658-12.464-1.988C13.788,52.684,10.123,51.019,7.683,48.873z
	 M7.031,45.648c0.398,1.701,4.527,4.366,7.579,5.739c5.527,2.487,8.542,2.186,11.733,1.868c1.419-0.142,2.892-0.285,4.612-0.199
	c6.71,0.352,13.048,0.679,18.042-3.384c0.76-0.614,1.883-1.493,3.098-2.325c-3.91,1.765-8.456,3.275-8.535,3.292
	c-5.303,1.116-15.188,2.854-21.804,1.936c-6.006-0.833-10.404-3.939-13.034-5.796C8.121,46.353,7.46,45.888,7.031,45.648z
	 M9.938,41.756c-0.346,0-0.625,0.051-0.829,0.143c-0.048,0.021-0.207,0.098-0.217,0.183c-0.019,0.194,0.233,0.775,1.335,1.588
	c4.146,3.059,5.775,3.287,9.025,3.743c1.396,0.196,3.133,0.438,5.452,0.967c6.962,1.584,17.95-1.833,20.95-3.188
	c0.521-0.235,1.364-0.605,2.369-1.01c-2.547,0.739-5.953,1.649-10.514,2.791c-0.745,0.188-1.256,0.314-1.426,0.363
	c-7.784,2.204-15.349,1.017-20.761-3.255C13.169,42.379,11.154,41.756,9.938,41.756z M14.954,41.965
	c0.415,0.265,0.84,0.566,1.267,0.904c5.042,3.977,12.142,5.068,19.473,2.993c0.178-0.05,0.703-0.181,1.469-0.373
	c9.523-2.387,13.898-3.737,15.771-4.502c-2.765-0.14-4.848,0.59-7.421,1.498c-3.027,1.071-6.796,2.402-13.112,2.838
	C28.117,45.617,19.987,43.941,14.954,41.965z M16.642,36.39c0.033,0.015,0.069,0.027,0.104,0.042
	c6.861,2.735,12.543,2.168,17.963,1.274C23.642,36.057,18.496,36.106,16.642,36.39z"/>
<path fill="#FFE485" d="M20.375,55.117c-0.052,0-0.298,0.35-0.35,0.339c-4.996-1.106-6.883-3.477-8.906-6.352
	c-1.11-1.581-2.654-3.474-4.502-5.115c1.977-2.085,3.973,1.825,5.769,4.235c1.99,2.676,3.127,5.101,7.571,6.084
	c0.4,0.087,0.892,0.263,0.807,0.675C20.689,55.342,20.714,55.117,20.375,55.117z"/>
<path fill="#FFE485" d="M24.521,56.112c-9.304,0-10.811-5.581-12.073-10.252c-0.604-2.239-1.177-4.352-2.529-5.552
	c-0.309-0.275-0.344-0.759-0.08-1.077c0.267-0.319,0.733-0.356,1.042-0.083c1.694,1.502,2.323,3.833,2.989,6.3
	c1.565,5.791,3.177,11.779,19.182,7.956c0.389-0.098,0.791,0.16,0.885,0.57c0.092,0.411-0.156,0.821-0.555,0.917
	C29.827,55.742,26.917,56.112,24.521,56.112z"/>
<path fill="#FFE485" d="M38.656,55.586c-3.428,0-6.635-0.902-9.912-1.823c-3.886-1.09-7.9-2.219-12.611-1.965
	c-0.392,0.044-0.756-0.3-0.777-0.723c-0.021-0.421,0.292-0.781,0.7-0.802c4.95-0.263,9.156,0.625,13.075,2.017
	c19.136,6.793,26.936-11.642,28.752-7.271C50.169,53.112,44.106,55.583,38.656,55.586z"/>
<path fill="#FFE485" d="M34.635,53.848c-2.551,0-5.004-0.458-7.564-0.936c-3.41-0.635-6.933-1.291-11.262-1.063
	c-0.4,0.053-0.754-0.3-0.775-0.721c-0.021-0.423,0.292-0.781,0.7-0.802c4.498-0.244,8.321,0.221,11.601,1.081
	c20.183,5.3,25.216-12.991,28.31-9.291C46.646,51.555,40.336,53.848,34.635,53.848z"/>
<path fill="#FFE485" d="M33.031,47.517c-11.748-0.181-15.337-3.604-15.337-3.604c26.003,8.246,32.994-8.485,34.856-4.469
	C45.35,45.496,38.7,47.517,33.031,47.517z"/>
<path fill="#FFE485" d="M37.721,49.631c-2.177,0-4.396-0.55-6.769-1.326c0,0,2-0.292,3.575-0.573
	c9.9,3.144,13.41-8.075,16.563-7.285C46.227,47.436,42.061,49.631,37.721,49.631z"/>
<path fill="#FFE485" d="M20.579,39.802c5.506-2.079,23.21-7.335,28.54-3.116c-10.013-0.688-20.924,2.397-26.519,3.848
	C21.375,40.229,20.579,39.802,20.579,39.802z"/>
<path fill="#FFE485" d="M39.336,38.191c-12.752,3.507-19.153,5.27-26.838,2.529c-0.383-0.14-0.807,0.075-0.94,0.473
	c-0.131,0.398,0.073,0.834,0.46,0.972c2.752,0.983,5.375,1.408,8.133,1.408c5.356,0,11.223-1.612,19.563-3.906
	c2.581-0.711,4.366-0.86,7.506-1.682C46.686,37.638,41.6,37.568,39.336,38.191z"/>
<path fill="#FFE485" d="M31.5,43.989c-2.123,0-4.24-0.271-6.123-0.943c-0.385-0.138-0.589-0.571-0.458-0.969
	c0.135-0.4,0.56-0.614,0.939-0.475c6.267,2.23,17.296-1.055,17.245-1.863c-0.051-0.824-4.568,0.794-5.887,0.613
	c4.235-3.284,9.158-2.065,7.293,0.116C43.275,41.917,37.36,43.989,31.5,43.989z"/>
<path fill="#FFE485" d="M33.644,50.777c-0.323-1.004-5.915-1.581-7.804-3.612c-6.458-6.948-9.75-12.167-12.608-9.834
	C20.579,38.811,23.438,53.146,33.644,50.777z"/>
<radialGradient id="SVGID_2_" cx="7.0645" cy="-7.4912" r="20.8924" gradientTransform="matrix(0.9408 0 0 0.4831 24.8901 34.6808)" gradientUnits="userSpaceOnUse">
	<stop  offset="0" style="stop-color:#E8591C"/>
	<stop  offset="0.2434" style="stop-color:#E25619"/>
	<stop  offset="0.5818" style="stop-color:#D04D12"/>
	<stop  offset="0.9743" style="stop-color:#B23F06"/>
	<stop  offset="1" style="stop-color:#B03E05"/>
	<a:midPointStop  offset="0" style="stop-color:#E8591C"/>
	<a:midPointStop  offset="0.6364" style="stop-color:#E8591C"/>
	<a:midPointStop  offset="1" style="stop-color:#B03E05"/>
</radialGradient>
<path fill="url(#SVGID_2_)" d="M12.625,36.908c-1.037,1.597,1.477-1.032,1.744,1.972c0.455,5.153,4.072-1.535,5.892,1.228
	c3.557,5.4,3.723-1.873,5.996,0.783c1.718,2.003,3.88-2.629,6.239,0.099c5.035,5.817,7.771-1.727,10.18-0.767
	c4.4,1.752,4.977-0.814,5.449-1.412c0.78-0.987,4.179-0.574,3.564-1.431c-1.434-2.005-3.312-1.546-3.843-2.736
	c-0.626-1.4-3.543-1.304-4.854-2.604c-1.59-1.576-3.746-0.311-4.879-1.326c-1.189-1.068-3.533-0.06-4.845-0.786
	c-1.401-0.777-3.538-0.672-4.935,0.064c-1.33,0.701-2.974-0.085-4.17,0.828c-1.474,1.129-3.754,0.2-5.194,1.669
	C17.132,34.36,14.332,34.285,12.625,36.908z"/>
<path fill="#F56520" d="M43.18,40.691c1.646-1.768-3.603-1.789-4.518-0.65c-1.214,1.511-0.15,3.273,0.684,2.084
	C40.961,39.824,41.98,41.972,43.18,40.691z"/>
<path fill="#F56520" d="M27.264,40.095c2.274,0.52-0.193-5.671-1.457-5.035c-1.258,0.636-2.372,1.773-1.042,2.173
	C26.68,37.809,25.615,39.717,27.264,40.095z"/>
<path fill="#F56520" d="M31.22,33.95c-1.51,2.125,4.824,2.621,5.071,0.783c0.246-1.831-1.256-3.026-1.952-1.493
	C33.029,36.11,32.311,32.406,31.22,33.95z"/>
<path fill="#F56520" d="M41.932,36.515c0.492,1.091-1.688,1.214-1.688,0C40.244,35.3,41.492,35.539,41.932,36.515z"/>
<path fill="#F56520" d="M34.186,40.263c0.492,1.091-1.689,1.214-1.689,0S33.746,39.287,34.186,40.263z"/>
<path fill="#F56520" d="M29.682,36.032c0.393,0.871-1.348,0.97-1.348,0C28.334,35.064,29.33,35.254,29.682,36.032z"/>
<path fill="#BA3D02" d="M26.875,32.767c0.392,0.869-1.348,0.969-1.348,0C25.527,31.796,26.524,31.988,26.875,32.767z"/>
<path fill="#F56520" d="M31.631,32.191c0.393,0.869-1.349,0.968-1.349,0C30.282,31.223,31.279,31.412,31.631,32.191z"/>
<path fill="#F56520" d="M42.65,33.952c0.393,0.871-1.348,0.971-1.348,0C41.303,32.982,42.299,33.176,42.65,33.952z"/>
<path fill="#BA3D02" d="M33.045,37.141c0.38,0.845-1.305,0.938-1.305,0C31.74,36.204,32.703,36.391,33.045,37.141z"/>
<path fill="#BA3D02" d="M37.23,37.013c0.303,0.67-1.035,0.745-1.035,0S36.961,36.415,37.23,37.013z"/>
<path fill="#BA3D02" d="M38.611,32.997c0.303,0.67-1.037,0.745-1.037,0C37.574,32.251,38.342,32.396,38.611,32.997z"/>
<path fill="#BA3D02" d="M21.086,33.513c0.303,0.67-1.038,0.746-1.038,0C20.048,32.769,20.816,32.912,21.086,33.513z"/>
<path fill="#F56520" d="M45.022,37.013c0.288,0.639-0.985,0.71-0.985,0C44.037,36.306,44.766,36.445,45.022,37.013z"/>
<path fill="#F56520" d="M24.86,38.54c0.393,0.87-1.348,0.97-1.348,0C23.512,37.573,24.511,37.766,24.86,38.54z"/>
<path fill="#F56520" d="M19.548,36.032c0.396,0.871-1.345,0.97-1.345,0C18.203,35.064,19.199,35.254,19.548,36.032z"/>
<path fill="#FFD56B" d="M14.606,13.104c0.021-2.321-0.207-6.371,1.279-9.936c0.998-0.93,1.646,1.364,1.465,1.215
	c-1.363,3.596-0.983,8.631-0.983,8.631C16.35,14.458,14.594,14.073,14.606,13.104z"/>
<path fill="#FFD56B" d="M12.283,13.009c-0.188-2.27-0.652-5.353,0.5-8.972c0.752-1.247,1.744,0.509,1.55,0.38
	c-1.027,3.635-0.6,8.35-0.6,8.35C13.85,14.177,12.36,13.954,12.283,13.009z"/>
<path fill="#FFD56B" d="M10.183,11.467c-0.133-1.619-0.295-3.9,0.294-6.519c0.719-0.729,1.831,0.438,1.663,0.35
	c-0.954,2.608-0.675,5.965-0.675,5.965C11.548,12.269,10.242,12.142,10.183,11.467z"/>
<linearGradient id="SVGID_3_" gradientUnits="userSpaceOnUse" x1="-299.3003" y1="409.5215" x2="-289.8862" y2="409.5215" gradientTransform="matrix(0.1736 0.9848 0.9848 -0.1736 -319.9008 366.9836)">
	<stop  offset="0" style="stop-color:#D3D8DB"/>
	<stop  offset="0.358" style="stop-color:#CFD5D8"/>
	<stop  offset="0.7017" style="stop-color:#C4CDD1"/>
	<stop  offset="1" style="stop-color:#B3C2C6"/>
	<a:midPointStop  offset="0" style="stop-color:#D3D8DB"/>
	<a:midPointStop  offset="0.5" style="stop-color:#D3D8DB"/>
	<a:midPointStop  offset="0.358" style="stop-color:#CFD5D8"/>
	<a:midPointStop  offset="0.5" style="stop-color:#CFD5D8"/>
	<a:midPointStop  offset="0.7017" style="stop-color:#C4CDD1"/>
	<a:midPointStop  offset="0.5" style="stop-color:#C4CDD1"/>
	<a:midPointStop  offset="1" style="stop-color:#B3C2C6"/>
</linearGradient>
<path fill="url(#SVGID_3_)" d="M9.625,12.95c-0.064-0.356,10.898-1.434,10.71-2.502C20.146,9.379,9.441,11.906,9.269,10.93
	C9.096,9.952,20.1,9.11,19.896,7.952C19.689,6.792,9.063,9.767,8.892,8.787c-0.173-0.975,10.752-2.26,10.563-3.329
	C19.267,4.388,8.598,7.125,8.535,6.769c-0.189-1.07,10.542-3.452,12.085-3.723c2.682-0.475,4.123,0.634,5.015,1.321
	c0.89,0.688,1.796,1.151,3.341,0.881C44.039,2.592,54.652-2.719,55.43,1.688c0.776,4.404-11.014,3.044-26.076,5.7
	c-1.545,0.272-2.238,1.021-2.839,1.969c-0.6,0.952-1.575,2.485-4.256,2.96C20.712,12.588,9.813,14.021,9.625,12.95z"/>
<radialGradient id="SVGID_4_" cx="577.8477" cy="491.6445" r="4.0006" gradientTransform="matrix(1.7373 -0.3426 -0.0227 -0.2059 -945.4844 301.3444)" gradientUnits="userSpaceOnUse">
	<stop  offset="0" style="stop-color:#FFFFFF"/>
	<stop  offset="1" style="stop-color:#FFFFFF;stop-opacity:0"/>
	<a:midPointStop  offset="0" style="stop-color:#FFFFFF"/>
	<a:midPointStop  offset="0.5" style="stop-color:#FFFFFF"/>
	<a:midPointStop  offset="1" style="stop-color:#FFFFFF;stop-opacity:0"/>
</radialGradient>
<path opacity="0.3" fill="url(#SVGID_4_)" d="M54.454,0.742c-0.136-1.25-14.544,1.591-14.401,2.839
	C40.188,4.829,54.596,1.989,54.454,0.742z"/>
<path fill="#FFE485" d="M10.406,5.273c-0.054,0.435,0.323,0.285,0.563,0.204c1.125,3.054,1.14,5.598,1.14,7.637
	c0,1.509,1.625,1.211,1.625,0.186c0-4.248-0.39-6.217-1.102-8.399C12.181,3.523,10.566,3.904,10.406,5.273z"/>
<path fill="#FFE485" d="M16.152,13.396c0-2.322,0.269-5.483-1.177-9.063c-0.579-1.429-1.992-1.1-2.302-0.024
	c-0.052,0.467,0.283,0.566,0.563,0.487c1.325,3.61,1.156,8.491,1.156,8.491C14.392,14.731,16.152,14.364,16.152,13.396z"/>
<linearGradient id="SVGID_5_" gradientUnits="userSpaceOnUse" x1="17.6011" y1="39.3291" x2="17.6011" y2="2.7212">
	<stop  offset="0.1939" style="stop-color:#F55E1D"/>
	<stop  offset="0.2889" style="stop-color:#F98F43"/>
	<stop  offset="0.391" style="stop-color:#FCBD67"/>
	<stop  offset="0.4699" style="stop-color:#FED97D"/>
	<stop  offset="0.5152" style="stop-color:#FFE485"/>
	<a:midPointStop  offset="0.1939" style="stop-color:#F55E1D"/>
	<a:midPointStop  offset="0.4151" style="stop-color:#F55E1D"/>
	<a:midPointStop  offset="0.5152" style="stop-color:#FFE485"/>
</linearGradient>
<path fill="url(#SVGID_5_)" d="M19.25,8.561c-0.061-4.688-1.294-5.84-2.585-5.84c-1.081,0-1.033,1.456-0.569,1.331
	c0.304-0.081,1.579,0.067,1.715,9.382c0.198,13.554-0.013,22.061,0.302,25.265c0.594,0.7,1.307,0.629,1.307,0.629
	C19.133,32.427,19.473,25.91,19.25,8.561z"/>
<path fill="#449C00" d="M48.068,53.259c0.752,5.64-4.96,7.219-10.012,4.577C38.057,57.836,43.706,51.404,48.068,53.259z"/>
<path fill="#48A600" d="M48.068,53.259c-5.998,0.274-10.012,4.577-10.012,4.577C36.756,51.807,45.186,48.406,48.068,53.259z"/>
<path fill="#449C00" d="M47.885,53.242c1.478,2.014,6.299,1.594,7.496-1.948C55.381,51.294,49.115,50.386,47.885,53.242z"/>
<path fill="#48A600" d="M47.885,53.242c2.969-2.588,7.496-1.948,7.496-1.948C52.888,47.287,47.623,49.05,47.885,53.242z"/>
<path fill="#51A113" d="M48.013,53.142c-1.413,1.517-0.271,5.369,2.794,5.794C50.807,58.936,50.525,53.702,48.013,53.142z"/>
<path fill="#56AB15" d="M48.013,53.142c2.564,2.017,2.794,5.794,2.794,5.794C53.678,56.285,51.379,52.279,48.013,53.142z"/>
<path fill="#51A113" d="M48.013,53.142c-2.333,0.91-6.38-1.671-5.601-5.042C42.412,48.1,48.408,50.305,48.013,53.142z"/>
<path fill="#56AB15" d="M48.013,53.142c-1.263-3.438-5.601-5.042-5.601-5.042C46.66,46.09,50.404,49.941,48.013,53.142z"/>
<path fill="#56AB15" d="M47.916,53.292c-0.714,1.151-2.563,0.813-3.607,0.267C44.309,53.559,46.733,51.996,47.916,53.292z"/>
<path fill="#5CB817" d="M47.916,53.292c-1.283-1.136-3.607,0.267-3.607,0.267C45.188,52.021,47.717,51.79,47.916,53.292z"/>
<path fill="#56AB15" d="M47.916,53.292c1.315,0.335,2.455-1.084,2.832-2.202C50.748,51.09,47.871,51.537,47.916,53.292z"/>
<path fill="#5CB817" d="M47.916,53.292c0.141-1.709,2.832-2.202,2.832-2.202C49.048,50.592,47.023,52.068,47.916,53.292z"/>
</svg>
