<?xml version="1.0" encoding="utf-8"?>
<!-- Generator: Adobe Illustrator 15.0.0, SVG Export Plug-In . SVG Version: 6.00 Build 0)  -->
<!DOCTYPE svg PUBLIC "-//W3C//DTD SVG 1.1//EN" "http://www.w3.org/Graphics/SVG/1.1/DTD/svg11.dtd" [
	<!ENTITY ns_flows "http://ns.adobe.com/Flows/1.0/">
	<!ENTITY ns_extend "http://ns.adobe.com/Extensibility/1.0/">
	<!ENTITY ns_ai "http://ns.adobe.com/AdobeIllustrator/10.0/">
	<!ENTITY ns_graphs "http://ns.adobe.com/Graphs/1.0/">
]>
<svg version="1.1" id="Layer_1" xmlns:x="&ns_extend;" xmlns:i="&ns_ai;" xmlns:graph="&ns_graphs;"
	 xmlns="http://www.w3.org/2000/svg" xmlns:xlink="http://www.w3.org/1999/xlink" xmlns:a="http://ns.adobe.com/AdobeSVGViewerExtensions/3.0/"
	 x="0px" y="0px" width="64px" height="64px" viewBox="0 0 64 64" enable-background="new 0 0 64 64" xml:space="preserve">
<path fill="#785647" d="M56.696,48.103c0,18.53-49.393,18.53-49.393,0C7.304,32.978,56.696,32.978,56.696,48.103z"/>
<path fill="#B47D56" d="M56.696,48.103c0,17.262-49.393,17.262-49.393,0C7.304,32.978,56.696,32.978,56.696,48.103z"/>
<path fill="#785647" d="M46.002,47.301c0,9.252-28.004,9.252-28.004,0C17.998,39.184,46.002,39.184,46.002,47.301z"/>
<linearGradient id="SVGID_1_" gradientUnits="userSpaceOnUse" x1="7" y1="38.917" x2="57" y2="38.917">
	<stop  offset="0" style="stop-color:#E6EBEF"/>
	<stop  offset="0.2857" style="stop-color:#E2E8EC"/>
	<stop  offset="0.5605" style="stop-color:#D7DFE3"/>
	<stop  offset="0.83" style="stop-color:#C3CFD3"/>
	<stop  offset="1" style="stop-color:#B3C2C6"/>
	<a:midPointStop  offset="0" style="stop-color:#E6EBEF"/>
	<a:midPointStop  offset="0.7152" style="stop-color:#E6EBEF"/>
	<a:midPointStop  offset="1" style="stop-color:#B3C2C6"/>
</linearGradient>
<path fill="url(#SVGID_1_)" d="M57,24.835H7c0,0,0.653,11.097,7.324,20.076c2.466,3.323,8.343,8.088,17.676,8.088
	c9.333,0,15.211-4.765,17.676-8.088C56.348,35.94,57,24.835,57,24.835z"/>
<path fill="#E6EBEF" d="M32,15c13.808,0,25,4.344,25,9.701c0,5.359-8.476,10.651-25,10.651c-16.524,0-25-5.292-25-10.651
	C7,19.344,18.192,15,32,15z"/>
<linearGradient id="SVGID_2_" gradientUnits="userSpaceOnUse" x1="9.5879" y1="21.1519" x2="54.4121" y2="21.1519">
	<stop  offset="0" style="stop-color:#B3C2C6"/>
	<stop  offset="0.2515" style="stop-color:#C0CCD0"/>
	<stop  offset="0.6182" style="stop-color:#CBD5DA"/>
	<stop  offset="1" style="stop-color:#CFD8DD"/>
	<a:midPointStop  offset="0" style="stop-color:#B3C2C6"/>
	<a:midPointStop  offset="0.2848" style="stop-color:#B3C2C6"/>
	<a:midPointStop  offset="1" style="stop-color:#CFD8DD"/>
</linearGradient>
<path fill="url(#SVGID_2_)" d="M32,19.318c10.81,0,19.825,3.116,21.944,7.036c0.305-0.542,0.468-1.149,0.468-1.767
	c0-4.775-10.034-8.639-22.412-8.639c-12.377,0-22.412,3.863-22.412,8.639c0,0.606,0.164,1.195,0.469,1.767
	C12.176,22.435,21.191,19.318,32,19.318z"/>
<radialGradient id="SVGID_3_" cx="31.4766" cy="10.7134" r="23.3685" gradientTransform="matrix(1.0186 0 0 0.4228 0.1077 24.4184)" gradientUnits="userSpaceOnUse">
	<stop  offset="0" style="stop-color:#84B53A"/>
	<stop  offset="0.2108" style="stop-color:#80B03C"/>
	<stop  offset="0.4456" style="stop-color:#76A340"/>
	<stop  offset="0.692" style="stop-color:#658D48"/>
	<stop  offset="0.9448" style="stop-color:#4D6E52"/>
	<stop  offset="1" style="stop-color:#476655"/>
	<a:midPointStop  offset="0" style="stop-color:#84B53A"/>
	<a:midPointStop  offset="0.6848" style="stop-color:#84B53A"/>
	<a:midPointStop  offset="1" style="stop-color:#476655"/>
</radialGradient>
<path fill="url(#SVGID_3_)" d="M32,33.038c10.81,0,19.825-2.765,21.944-6.684C51.835,22.435,42.81,19.318,32,19.318
	c-10.809,0-19.824,3.116-21.943,7.036C12.176,30.273,21.191,33.038,32,33.038z"/>
<linearGradient id="SVGID_4_" gradientUnits="userSpaceOnUse" x1="30.8892" y1="24" x2="30.8892" y2="2">
	<stop  offset="0" style="stop-color:#A9B0B3"/>
	<stop  offset="0.3157" style="stop-color:#BDC4C7"/>
	<stop  offset="0.9614" style="stop-color:#EFF6FC"/>
	<stop  offset="1" style="stop-color:#F2F9FF"/>
	<a:midPointStop  offset="0" style="stop-color:#A9B0B3"/>
	<a:midPointStop  offset="0.5455" style="stop-color:#A9B0B3"/>
	<a:midPointStop  offset="1" style="stop-color:#F2F9FF"/>
</linearGradient>
<path opacity="0.6" fill="url(#SVGID_4_)" enable-background="new    " d="M31.847,24c0,0,2.578-4.01-2.962-9.538
	C22.805,8.381,31.847,6.041,31.847,2c0,0,1.458,1.609-0.581,5.42C28.366,12.811,40.454,13.671,31.847,24z"/>
<linearGradient id="SVGID_5_" gradientUnits="userSpaceOnUse" x1="23.4355" y1="23.7109" x2="23.4355" y2="7.7109">
	<stop  offset="0" style="stop-color:#A9B0B3"/>
	<stop  offset="0.3157" style="stop-color:#BDC4C7"/>
	<stop  offset="0.9614" style="stop-color:#EFF6FC"/>
	<stop  offset="1" style="stop-color:#F2F9FF"/>
	<a:midPointStop  offset="0" style="stop-color:#A9B0B3"/>
	<a:midPointStop  offset="0.5455" style="stop-color:#A9B0B3"/>
	<a:midPointStop  offset="1" style="stop-color:#F2F9FF"/>
</linearGradient>
<path opacity="0.6" fill="url(#SVGID_5_)" enable-background="new    " d="M24.135,23.711c0,0,1.9-2.82-2.22-6.941
	c-4.479-4.478,2.22-6.118,2.22-9.059c0,0,1.09,1.17-0.439,3.94C21.525,15.571,30.597,16.19,24.135,23.711z"/>
<linearGradient id="SVGID_6_" gradientUnits="userSpaceOnUse" x1="40.5625" y1="23.7109" x2="40.5625" y2="7.7109">
	<stop  offset="0" style="stop-color:#A9B0B3"/>
	<stop  offset="0.3157" style="stop-color:#BDC4C7"/>
	<stop  offset="0.9614" style="stop-color:#EFF6FC"/>
	<stop  offset="1" style="stop-color:#F2F9FF"/>
	<a:midPointStop  offset="0" style="stop-color:#A9B0B3"/>
	<a:midPointStop  offset="0.5455" style="stop-color:#A9B0B3"/>
	<a:midPointStop  offset="1" style="stop-color:#F2F9FF"/>
</linearGradient>
<path opacity="0.6" fill="url(#SVGID_6_)" enable-background="new    " d="M39.865,7.711c0,0-1.882,2.84,2.22,6.939
	c4.479,4.48-2.22,6.118-2.22,9.061c0,0-1.09-1.17,0.439-3.94C42.466,15.85,33.395,15.222,39.865,7.711z"/>
</svg>
