<?xml version="1.0" encoding="utf-8"?>
<!-- Generator: Adobe Illustrator 15.0.0, SVG Export Plug-In . SVG Version: 6.00 Build 0)  -->
<!DOCTYPE svg PUBLIC "-//W3C//DTD SVG 1.1//EN" "http://www.w3.org/Graphics/SVG/1.1/DTD/svg11.dtd" [
	<!ENTITY ns_flows "http://ns.adobe.com/Flows/1.0/">
	<!ENTITY ns_extend "http://ns.adobe.com/Extensibility/1.0/">
	<!ENTITY ns_ai "http://ns.adobe.com/AdobeIllustrator/10.0/">
	<!ENTITY ns_graphs "http://ns.adobe.com/Graphs/1.0/">
]>
<svg version="1.1" id="Layer_1" xmlns:x="&ns_extend;" xmlns:i="&ns_ai;" xmlns:graph="&ns_graphs;"
	 xmlns="http://www.w3.org/2000/svg" xmlns:xlink="http://www.w3.org/1999/xlink" xmlns:a="http://ns.adobe.com/AdobeSVGViewerExtensions/3.0/"
	 x="0px" y="0px" width="64px" height="64px" viewBox="0 0 64 64" enable-background="new 0 0 64 64" xml:space="preserve">
<linearGradient id="SVGID_1_" gradientUnits="userSpaceOnUse" x1="2.7612" y1="50.7139" x2="61.3223" y2="50.7139">
	<stop  offset="0" style="stop-color:#FFD53D"/>
	<stop  offset="0.3024" style="stop-color:#FFCD2F"/>
	<stop  offset="0.8761" style="stop-color:#FFB809"/>
	<stop  offset="1" style="stop-color:#FFB300"/>
	<a:midPointStop  offset="0" style="stop-color:#FFD53D"/>
	<a:midPointStop  offset="0.5636" style="stop-color:#FFD53D"/>
	<a:midPointStop  offset="1" style="stop-color:#FFB300"/>
</linearGradient>
<path fill="url(#SVGID_1_)" d="M2.761,37.428v18.799c0,10.364,58.561,10.364,58.561,0V37.428H2.761z"/>
<path opacity="0.8" fill="#FFFFFF" d="M2.761,44.869v2.133c0,10.365,58.561,10.365,58.561,0v-2.133
	C61.322,55.233,2.761,55.233,2.761,44.869z"/>
<path fill="#594035" d="M3.063,35.859c-2.604,2.292-0.55,16.783,7.582,12.853c6.439-3.106,8.913,6.719,15.17,2.825
	c7.37-4.588,10.711,3.535,15.757-0.202c4.171-3.09,8.672-4.496,12.498-2.067c6.915,4.388,9.542-11.11,6.95-13.408
	C55.85,31.276,8.264,31.276,3.063,35.859z"/>
<radialGradient id="SVGID_2_" cx="-34.0835" cy="7.2734" r="24.4901" gradientTransform="matrix(1.1943 0 0 0.1936 72.8521 34.6734)" gradientUnits="userSpaceOnUse">
	<stop  offset="0" style="stop-color:#70584E"/>
	<stop  offset="0.5942" style="stop-color:#6E564C"/>
	<stop  offset="0.808" style="stop-color:#685045"/>
	<stop  offset="0.9601" style="stop-color:#5D443A"/>
	<stop  offset="1" style="stop-color:#594035"/>
	<a:midPointStop  offset="0" style="stop-color:#70584E"/>
	<a:midPointStop  offset="0.87" style="stop-color:#70584E"/>
	<a:midPointStop  offset="1" style="stop-color:#594035"/>
</radialGradient>
<path fill="url(#SVGID_2_)" d="M2.74,36.637c0,6.189,58.602,6.189,58.602,0C61.342,30.455,2.74,30.455,2.74,36.637z"/>
<linearGradient id="SVGID_3_" gradientUnits="userSpaceOnUse" x1="11.1597" y1="29.1543" x2="52.9883" y2="29.1543">
	<stop  offset="0" style="stop-color:#FFD53D"/>
	<stop  offset="0.3024" style="stop-color:#FFCD2F"/>
	<stop  offset="0.8761" style="stop-color:#FFB809"/>
	<stop  offset="1" style="stop-color:#FFB300"/>
	<a:midPointStop  offset="0" style="stop-color:#FFD53D"/>
	<a:midPointStop  offset="0.5636" style="stop-color:#FFD53D"/>
	<a:midPointStop  offset="1" style="stop-color:#FFB300"/>
</linearGradient>
<path fill="url(#SVGID_3_)" d="M11.16,20.361v13.779c0,5.075,41.829,5.075,41.829,0V20.361H11.16z"/>
<path opacity="0.8" fill="#FFFFFF" d="M11.16,26.752v1.546c0,5.075,41.829,5.075,41.829,0v-1.546
	C52.988,31.827,11.16,31.827,11.16,26.752z"/>
<path fill="#594035" d="M11.375,19.277c-1.86,1.582-0.394,11.258,5.416,8.543c4.599-2.144,6.366,4.64,10.835,1.951
	c5.265-3.167,7.651,2.442,11.255-0.138c2.979-2.135,6.195-3.105,8.928-1.43c4.939,3.031,6.815-7.339,4.964-8.927
	C49.08,16.113,15.09,16.112,11.375,19.277z"/>
<radialGradient id="SVGID_4_" cx="-56.6758" cy="-19.3179" r="16.3269" gradientTransform="matrix(1.2796 0 0 0.2005 104.6698 23.3041)" gradientUnits="userSpaceOnUse">
	<stop  offset="0" style="stop-color:#70584E"/>
	<stop  offset="0.5942" style="stop-color:#6E564C"/>
	<stop  offset="0.808" style="stop-color:#685045"/>
	<stop  offset="0.9601" style="stop-color:#5D443A"/>
	<stop  offset="1" style="stop-color:#594035"/>
	<a:midPointStop  offset="0" style="stop-color:#70584E"/>
	<a:midPointStop  offset="0.87" style="stop-color:#70584E"/>
	<a:midPointStop  offset="1" style="stop-color:#594035"/>
</radialGradient>
<path fill="url(#SVGID_4_)" d="M11.145,19.814c0,4.273,41.858,4.273,41.858,0C53.003,15.546,11.145,15.546,11.145,19.814z"/>
<linearGradient id="SVGID_5_" gradientUnits="userSpaceOnUse" x1="30.3271" y1="15.0249" x2="33.7188" y2="15.0249">
	<stop  offset="0.0848" style="stop-color:#30C1FF"/>
	<stop  offset="0.285" style="stop-color:#2EBEFB"/>
	<stop  offset="0.4883" style="stop-color:#26B5EF"/>
	<stop  offset="0.6933" style="stop-color:#1BA6DA"/>
	<stop  offset="0.8981" style="stop-color:#0A91BE"/>
	<stop  offset="1" style="stop-color:#0085AD"/>
	<a:midPointStop  offset="0.0848" style="stop-color:#30C1FF"/>
	<a:midPointStop  offset="0.7039" style="stop-color:#30C1FF"/>
	<a:midPointStop  offset="1" style="stop-color:#0085AD"/>
</linearGradient>
<path fill="url(#SVGID_5_)" d="M30.327,8.888v11.42c0,1.14,3.392,1.14,3.392,0V8.888H30.327z"/>
<path opacity="0.3" fill="#2449FF" d="M30.327,18.367l2.079,2.776c0.611-0.065,1.152-0.283,1.282-0.66l-3.361-4.485V18.367z"/>
<polygon opacity="0.3" fill="#2449FF" points="33.719,15.788 30.327,11.258 30.327,13.628 33.719,18.156 "/>
<polygon opacity="0.3" fill="#2449FF" points="33.719,11.048 32.1,8.888 30.327,8.888 30.327,8.89 33.719,13.419 "/>
<radialGradient id="SVGID_6_" cx="-1544.9082" cy="4.3638" r="5.7632" gradientTransform="matrix(-0.4204 0 0 0.1592 -617.329 7.9069)" gradientUnits="userSpaceOnUse">
	<stop  offset="0.3818" style="stop-color:#F7F1ED"/>
	<stop  offset="0.6475" style="stop-color:#B9E3F4"/>
	<stop  offset="1" style="stop-color:#61CFFF"/>
	<a:midPointStop  offset="0.3818" style="stop-color:#F7F1ED"/>
	<a:midPointStop  offset="0.5152" style="stop-color:#F7F1ED"/>
	<a:midPointStop  offset="1" style="stop-color:#61CFFF"/>
</radialGradient>
<path fill="url(#SVGID_6_)" d="M30.24,8.69c-0.124-0.794,3.448-1.066,3.529,0.061c0.042,0.594-0.068,1.11,0.027,1.889
	c0.267,2.138-0.578-1.463-0.515-0.121c0.085,1.825,0.187,3.869-0.218,3.651c-0.213-0.115-0.144-1.543-0.309-3.017
	c-0.119-1.07-0.654-0.019-0.768,0.695c-0.507,3.188-0.994-3.457-1.127-0.915c-0.077,1.495,0.041,5.494-0.444,5.049
	c-0.517-0.475,0.302-4.376-0.099-5.401C29.977,9.708,30.438,9.938,30.24,8.69z"/>
<path fill="#9DC6DD" d="M33.385,8.632c-0.221,0.351-2.33,0.477-2.648,0.036c-0.232-0.323,0.428-0.362,1.287-0.387
	C32.938,8.255,33.516,8.423,33.385,8.632z"/>
<linearGradient id="SVGID_7_" gradientUnits="userSpaceOnUse" x1="31.9302" y1="7.54" x2="31.9302" y2="1.3994">
	<stop  offset="0" style="stop-color:#FFAA00"/>
	<stop  offset="0.1749" style="stop-color:#FFA400"/>
	<stop  offset="0.4181" style="stop-color:#FF9200"/>
	<stop  offset="0.7014" style="stop-color:#FF7400"/>
	<stop  offset="1" style="stop-color:#FF4D00"/>
	<a:midPointStop  offset="0" style="stop-color:#FFAA00"/>
	<a:midPointStop  offset="0.6364" style="stop-color:#FFAA00"/>
	<a:midPointStop  offset="1" style="stop-color:#FF4D00"/>
</linearGradient>
<path fill="url(#SVGID_7_)" d="M32.087,1.399c-0.261,1.31-3.403,6.141-0.269,6.141C34.717,7.54,32.979,2.56,32.087,1.399z"/>
<linearGradient id="SVGID_8_" gradientUnits="userSpaceOnUse" x1="-318.0747" y1="7.54" x2="-318.0747" y2="2.3379" gradientTransform="matrix(-1 0 0 1 -286.2363 0)">
	<stop  offset="0" style="stop-color:#FFB500"/>
	<stop  offset="0.0869" style="stop-color:#FFBA00"/>
	<stop  offset="0.6742" style="stop-color:#FFDA00"/>
	<stop  offset="1" style="stop-color:#FFE600"/>
	<a:midPointStop  offset="0" style="stop-color:#FFB500"/>
	<a:midPointStop  offset="0.4242" style="stop-color:#FFB500"/>
	<a:midPointStop  offset="1" style="stop-color:#FFE600"/>
</linearGradient>
<path fill="url(#SVGID_8_)" d="M31.818,7.54c-2.16,0-0.328-3.919,0.471-5.202C32.371,4.769,33.826,7.54,31.818,7.54z"/>
<linearGradient id="SVGID_9_" gradientUnits="userSpaceOnUse" x1="-318.0884" y1="7.3027" x2="-318.0884" y2="3.2432" gradientTransform="matrix(-1 0 0 1 -286.2363 0)">
	<stop  offset="0.2424" style="stop-color:#FFF2AB"/>
	<stop  offset="0.3596" style="stop-color:#FFF1A5"/>
	<stop  offset="0.5236" style="stop-color:#FFEF92"/>
	<stop  offset="0.7153" style="stop-color:#FFEC74"/>
	<stop  offset="0.9263" style="stop-color:#FFE74B"/>
	<stop  offset="1" style="stop-color:#FFE53B"/>
	<a:midPointStop  offset="0.2424" style="stop-color:#FFF2AB"/>
	<a:midPointStop  offset="0.6349" style="stop-color:#FFF2AB"/>
	<a:midPointStop  offset="1" style="stop-color:#FFE53B"/>
</linearGradient>
<path fill="url(#SVGID_9_)" d="M31.854,7.303c-0.953,0-0.624-2.396,0.311-4.06C32.053,5.212,32.992,7.303,31.854,7.303z"/>
<linearGradient id="SVGID_10_" gradientUnits="userSpaceOnUse" x1="31.9292" y1="8.8569" x2="31.9292" y2="6.0703">
	<stop  offset="0.2303" style="stop-color:#F3F3F3"/>
	<stop  offset="0.246" style="stop-color:#D5D5D7"/>
	<stop  offset="0.2699" style="stop-color:#AFADB3"/>
	<stop  offset="0.2963" style="stop-color:#8C8A92"/>
	<stop  offset="0.3248" style="stop-color:#706D77"/>
	<stop  offset="0.3563" style="stop-color:#585561"/>
	<stop  offset="0.3919" style="stop-color:#464350"/>
	<stop  offset="0.4341" style="stop-color:#393644"/>
	<stop  offset="0.4892" style="stop-color:#322E3D"/>
	<stop  offset="0.6061" style="stop-color:#302C3B"/>
	<stop  offset="0.6237" style="stop-color:#4E473B"/>
	<stop  offset="0.6515" style="stop-color:#776C3B"/>
	<stop  offset="0.6819" style="stop-color:#9C8D3B"/>
	<stop  offset="0.7145" style="stop-color:#BBA83B"/>
	<stop  offset="0.7499" style="stop-color:#D4BE3B"/>
	<stop  offset="0.7893" style="stop-color:#E7D03B"/>
	<stop  offset="0.835" style="stop-color:#F5DC3B"/>
	<stop  offset="0.8925" style="stop-color:#FDE33B"/>
	<stop  offset="1" style="stop-color:#FFE53B"/>
	<a:midPointStop  offset="0.2303" style="stop-color:#F3F3F3"/>
	<a:midPointStop  offset="0.1639" style="stop-color:#F3F3F3"/>
	<a:midPointStop  offset="0.6061" style="stop-color:#302C3B"/>
	<a:midPointStop  offset="0.1818" style="stop-color:#302C3B"/>
	<a:midPointStop  offset="1" style="stop-color:#FFE53B"/>
</linearGradient>
<path fill="url(#SVGID_10_)" d="M32.189,8.748c-0.046,0.184-0.297,0.118-0.263-0.07c0.302-1.71-0.265-1.914-0.345-2.391
	c-0.023-0.141,0.388-0.259,0.391-0.202C31.99,6.412,32.471,7.638,32.189,8.748z"/>
<path fill="#594035" d="M34.537,21.002c-1.172-0.218-4.207,1.183-4.986-0.925C30.52,20.9,33.5,19.492,34.537,21.002z"/>
<linearGradient id="SVGID_11_" gradientUnits="userSpaceOnUse" x1="40.5713" y1="13.3149" x2="43.8867" y2="13.3149">
	<stop  offset="0.0848" style="stop-color:#30C1FF"/>
	<stop  offset="0.285" style="stop-color:#2EBEFB"/>
	<stop  offset="0.4883" style="stop-color:#26B5EF"/>
	<stop  offset="0.6933" style="stop-color:#1BA6DA"/>
	<stop  offset="0.8981" style="stop-color:#0A91BE"/>
	<stop  offset="1" style="stop-color:#0085AD"/>
	<a:midPointStop  offset="0.0848" style="stop-color:#30C1FF"/>
	<a:midPointStop  offset="0.7039" style="stop-color:#30C1FF"/>
	<a:midPointStop  offset="1" style="stop-color:#0085AD"/>
</linearGradient>
<path fill="url(#SVGID_11_)" d="M40.571,7.316v11.163c0,1.112,3.315,1.112,3.315,0V7.316H40.571z"/>
<path opacity="0.3" fill="#2449FF" d="M40.571,16.581l2.032,2.714c0.6-0.061,1.127-0.277,1.254-0.644l-3.286-4.384V16.581z"/>
<polygon opacity="0.3" fill="#2449FF" points="43.887,14.062 40.571,9.635 40.571,11.951 43.887,16.376 "/>
<polygon opacity="0.3" fill="#2449FF" points="43.887,9.43 42.304,7.317 40.571,7.317 40.571,7.319 43.887,11.744 "/>
<radialGradient id="SVGID_12_" cx="791.4346" cy="1.3315" r="6.4963" gradientTransform="matrix(0.4105 0 0 0.1392 -282.6792 6.8248)" gradientUnits="userSpaceOnUse">
	<stop  offset="0.3818" style="stop-color:#F7F1ED"/>
	<stop  offset="0.6475" style="stop-color:#B9E3F4"/>
	<stop  offset="1" style="stop-color:#61CFFF"/>
	<a:midPointStop  offset="0.3818" style="stop-color:#F7F1ED"/>
	<a:midPointStop  offset="0.5152" style="stop-color:#F7F1ED"/>
	<a:midPointStop  offset="1" style="stop-color:#61CFFF"/>
</radialGradient>
<path fill="url(#SVGID_12_)" d="M43.963,7.126c0.122-0.776-3.475-0.807-3.477-0.119c-0.002,0.524-0.104,0.834-0.107,1.242
	c-0.023,2.106,0.674-0.648,0.611,0.66c-0.083,1.784-0.333,4.258,0.063,4.044c0.207-0.109-0.006-1.938,0.156-3.378
	c0.116-1.046,0.664-1.017,0.775-0.32c0.494,3.12,1.398-2.503,1.527-0.019c0.075,1.461-0.246,6.799,0.229,6.36
	c0.504-0.463-0.245-5.624,0.146-6.624C44.222,8.118,43.771,8.345,43.963,7.126z"/>
<path fill="#9DC6DD" d="M43.561,7.07c-0.289,0.406-2.316,0.364-2.59,0.032c-0.226-0.277,0.576-0.496,1.26-0.332
	C43.094,6.973,43.688,6.893,43.561,7.07z"/>
<linearGradient id="SVGID_13_" gradientUnits="userSpaceOnUse" x1="42.1387" y1="6.002" x2="42.1387" y2="0">
	<stop  offset="0" style="stop-color:#FFAA00"/>
	<stop  offset="0.1749" style="stop-color:#FFA400"/>
	<stop  offset="0.4181" style="stop-color:#FF9200"/>
	<stop  offset="0.7014" style="stop-color:#FF7400"/>
	<stop  offset="1" style="stop-color:#FF4D00"/>
	<a:midPointStop  offset="0" style="stop-color:#FFAA00"/>
	<a:midPointStop  offset="0.6364" style="stop-color:#FFAA00"/>
	<a:midPointStop  offset="1" style="stop-color:#FF4D00"/>
</linearGradient>
<path fill="url(#SVGID_13_)" d="M42.293,0c-0.256,1.279-3.326,6.002-0.264,6.002C44.861,6.002,43.163,1.131,42.293,0z"/>
<linearGradient id="SVGID_14_" gradientUnits="userSpaceOnUse" x1="-328.2856" y1="6.002" x2="-328.2856" y2="0.918" gradientTransform="matrix(-1 0 0 1 -286.2363 0)">
	<stop  offset="0" style="stop-color:#FFB500"/>
	<stop  offset="0.0869" style="stop-color:#FFBA00"/>
	<stop  offset="0.6742" style="stop-color:#FFDA00"/>
	<stop  offset="1" style="stop-color:#FFE600"/>
	<a:midPointStop  offset="0" style="stop-color:#FFB500"/>
	<a:midPointStop  offset="0.4242" style="stop-color:#FFB500"/>
	<a:midPointStop  offset="1" style="stop-color:#FFE600"/>
</linearGradient>
<path fill="url(#SVGID_14_)" d="M42.029,6.002c-2.111,0-0.32-3.832,0.46-5.084C42.57,3.293,43.992,6.002,42.029,6.002z"/>
<linearGradient id="SVGID_15_" gradientUnits="userSpaceOnUse" x1="-328.2983" y1="5.7695" x2="-328.2983" y2="1.8008" gradientTransform="matrix(-1 0 0 1 -286.2363 0)">
	<stop  offset="0.2424" style="stop-color:#FFF2AB"/>
	<stop  offset="0.3596" style="stop-color:#FFF1A5"/>
	<stop  offset="0.5236" style="stop-color:#FFEF92"/>
	<stop  offset="0.7153" style="stop-color:#FFEC74"/>
	<stop  offset="0.9263" style="stop-color:#FFE74B"/>
	<stop  offset="1" style="stop-color:#FFE53B"/>
	<a:midPointStop  offset="0.2424" style="stop-color:#FFF2AB"/>
	<a:midPointStop  offset="0.6349" style="stop-color:#FFF2AB"/>
	<a:midPointStop  offset="1" style="stop-color:#FFE53B"/>
</linearGradient>
<path fill="url(#SVGID_15_)" d="M42.064,5.77c-0.932,0-0.611-2.343,0.303-3.969C42.258,3.726,43.176,5.77,42.064,5.77z"/>
<linearGradient id="SVGID_16_" gradientUnits="userSpaceOnUse" x1="42.1387" y1="7.2881" x2="42.1387" y2="4.563">
	<stop  offset="0.2303" style="stop-color:#F3F3F3"/>
	<stop  offset="0.246" style="stop-color:#D5D5D7"/>
	<stop  offset="0.2699" style="stop-color:#AFADB3"/>
	<stop  offset="0.2963" style="stop-color:#8C8A92"/>
	<stop  offset="0.3248" style="stop-color:#706D77"/>
	<stop  offset="0.3563" style="stop-color:#585561"/>
	<stop  offset="0.3919" style="stop-color:#464350"/>
	<stop  offset="0.4341" style="stop-color:#393644"/>
	<stop  offset="0.4892" style="stop-color:#322E3D"/>
	<stop  offset="0.6061" style="stop-color:#302C3B"/>
	<stop  offset="0.6237" style="stop-color:#4E473B"/>
	<stop  offset="0.6515" style="stop-color:#776C3B"/>
	<stop  offset="0.6819" style="stop-color:#9C8D3B"/>
	<stop  offset="0.7145" style="stop-color:#BBA83B"/>
	<stop  offset="0.7499" style="stop-color:#D4BE3B"/>
	<stop  offset="0.7893" style="stop-color:#E7D03B"/>
	<stop  offset="0.835" style="stop-color:#F5DC3B"/>
	<stop  offset="0.8925" style="stop-color:#FDE33B"/>
	<stop  offset="1" style="stop-color:#FFE53B"/>
	<a:midPointStop  offset="0.2303" style="stop-color:#F3F3F3"/>
	<a:midPointStop  offset="0.1639" style="stop-color:#F3F3F3"/>
	<a:midPointStop  offset="0.6061" style="stop-color:#302C3B"/>
	<a:midPointStop  offset="0.1818" style="stop-color:#302C3B"/>
	<a:midPointStop  offset="1" style="stop-color:#FFE53B"/>
</linearGradient>
<path fill="url(#SVGID_16_)" d="M42.393,7.18c-0.045,0.182-0.289,0.118-0.256-0.068c0.294-1.67-0.26-1.869-0.338-2.336
	c-0.022-0.137,0.379-0.253,0.381-0.199C42.197,4.898,42.669,6.096,42.393,7.18z"/>
<path fill="#594035" d="M44.688,19.157c-1.146-0.214-4.113,1.156-4.874-0.903C40.76,19.058,43.672,17.683,44.688,19.157z"/>
<linearGradient id="SVGID_17_" gradientUnits="userSpaceOnUse" x1="20.1597" y1="13.3149" x2="23.4761" y2="13.3149">
	<stop  offset="0.0848" style="stop-color:#30C1FF"/>
	<stop  offset="0.285" style="stop-color:#2EBEFB"/>
	<stop  offset="0.4883" style="stop-color:#26B5EF"/>
	<stop  offset="0.6933" style="stop-color:#1BA6DA"/>
	<stop  offset="0.8981" style="stop-color:#0A91BE"/>
	<stop  offset="1" style="stop-color:#0085AD"/>
	<a:midPointStop  offset="0.0848" style="stop-color:#30C1FF"/>
	<a:midPointStop  offset="0.7039" style="stop-color:#30C1FF"/>
	<a:midPointStop  offset="1" style="stop-color:#0085AD"/>
</linearGradient>
<path fill="url(#SVGID_17_)" d="M20.16,7.316v11.163c0,1.112,3.316,1.112,3.316,0V7.316H20.16z"/>
<path opacity="0.3" fill="#2449FF" d="M20.16,16.581l2.031,2.714c0.599-0.061,1.126-0.277,1.254-0.644l-3.286-4.384V16.581z"/>
<polygon opacity="0.3" fill="#2449FF" points="23.476,14.062 20.16,9.635 20.16,11.951 23.476,16.376 "/>
<polygon opacity="0.3" fill="#2449FF" points="23.476,9.43 21.892,7.317 20.16,7.317 20.16,7.319 23.476,11.744 "/>
<radialGradient id="SVGID_18_" cx="752.293" cy="1.4004" r="6.1498" gradientTransform="matrix(0.4105 0 0 0.1719 -286.9971 6.8316)" gradientUnits="userSpaceOnUse">
	<stop  offset="0.3818" style="stop-color:#F7F1ED"/>
	<stop  offset="0.6475" style="stop-color:#B9E3F4"/>
	<stop  offset="1" style="stop-color:#61CFFF"/>
	<a:midPointStop  offset="0.3818" style="stop-color:#F7F1ED"/>
	<a:midPointStop  offset="0.5152" style="stop-color:#F7F1ED"/>
	<a:midPointStop  offset="1" style="stop-color:#61CFFF"/>
</radialGradient>
<path fill="url(#SVGID_18_)" d="M23.551,7.126c0.138-0.814-3.093-0.875-3.391-0.133c-0.218,0.54,0.062,0.482-0.032,1.242
	c-0.259,2.091,0.512-0.635,0.45,0.674c-0.083,1.784-0.349,2.656,0.047,2.443c0.207-0.111,0.012-0.337,0.172-1.777
	c0.117-1.046,0.663-1.017,0.775-0.32c0.495,3.12,1.398-2.503,1.527-0.019c0.076,1.461-0.313,3.78,0.162,3.343
	c0.504-0.464-0.177-2.606,0.215-3.606C23.81,8.118,23.346,8.343,23.551,7.126z"/>
<path fill="#9DC6DD" d="M20.538,7.067c0.428,0.684,2.388,0.313,2.588,0.035c0.228-0.314-0.575-0.563-1.259-0.377
	C21.005,6.956,20.41,6.864,20.538,7.067z"/>
<linearGradient id="SVGID_19_" gradientUnits="userSpaceOnUse" x1="21.7271" y1="6.002" x2="21.7271" y2="0">
	<stop  offset="0" style="stop-color:#FFAA00"/>
	<stop  offset="0.1749" style="stop-color:#FFA400"/>
	<stop  offset="0.4181" style="stop-color:#FF9200"/>
	<stop  offset="0.7014" style="stop-color:#FF7400"/>
	<stop  offset="1" style="stop-color:#FF4D00"/>
	<a:midPointStop  offset="0" style="stop-color:#FFAA00"/>
	<a:midPointStop  offset="0.6364" style="stop-color:#FFAA00"/>
	<a:midPointStop  offset="1" style="stop-color:#FF4D00"/>
</linearGradient>
<path fill="url(#SVGID_19_)" d="M21.88,0c-0.254,1.279-3.325,6.002-0.261,6.002C24.449,6.002,22.75,1.131,21.88,0z"/>
<linearGradient id="SVGID_20_" gradientUnits="userSpaceOnUse" x1="-307.8735" y1="6.002" x2="-307.8735" y2="0.918" gradientTransform="matrix(-1 0 0 1 -286.2363 0)">
	<stop  offset="0" style="stop-color:#FFB500"/>
	<stop  offset="0.0869" style="stop-color:#FFBA00"/>
	<stop  offset="0.6742" style="stop-color:#FFDA00"/>
	<stop  offset="1" style="stop-color:#FFE600"/>
	<a:midPointStop  offset="0" style="stop-color:#FFB500"/>
	<a:midPointStop  offset="0.4242" style="stop-color:#FFB500"/>
	<a:midPointStop  offset="1" style="stop-color:#FFE600"/>
</linearGradient>
<path fill="url(#SVGID_20_)" d="M21.619,6.002c-2.112,0-0.321-3.832,0.459-5.084C22.158,3.293,23.58,6.002,21.619,6.002z"/>
<linearGradient id="SVGID_21_" gradientUnits="userSpaceOnUse" x1="-307.8867" y1="5.7695" x2="-307.8867" y2="1.8008" gradientTransform="matrix(-1 0 0 1 -286.2363 0)">
	<stop  offset="0.2424" style="stop-color:#FFF2AB"/>
	<stop  offset="0.3596" style="stop-color:#FFF1A5"/>
	<stop  offset="0.5236" style="stop-color:#FFEF92"/>
	<stop  offset="0.7153" style="stop-color:#FFEC74"/>
	<stop  offset="0.9263" style="stop-color:#FFE74B"/>
	<stop  offset="1" style="stop-color:#FFE53B"/>
	<a:midPointStop  offset="0.2424" style="stop-color:#FFF2AB"/>
	<a:midPointStop  offset="0.6349" style="stop-color:#FFF2AB"/>
	<a:midPointStop  offset="1" style="stop-color:#FFE53B"/>
</linearGradient>
<path fill="url(#SVGID_21_)" d="M21.651,5.77c-0.93,0-0.609-2.343,0.304-3.969C21.847,3.726,22.764,5.77,21.651,5.77z"/>
<linearGradient id="SVGID_22_" gradientUnits="userSpaceOnUse" x1="21.7266" y1="7.2881" x2="21.7266" y2="4.563">
	<stop  offset="0.2303" style="stop-color:#F3F3F3"/>
	<stop  offset="0.246" style="stop-color:#D5D5D7"/>
	<stop  offset="0.2699" style="stop-color:#AFADB3"/>
	<stop  offset="0.2963" style="stop-color:#8C8A92"/>
	<stop  offset="0.3248" style="stop-color:#706D77"/>
	<stop  offset="0.3563" style="stop-color:#585561"/>
	<stop  offset="0.3919" style="stop-color:#464350"/>
	<stop  offset="0.4341" style="stop-color:#393644"/>
	<stop  offset="0.4892" style="stop-color:#322E3D"/>
	<stop  offset="0.6061" style="stop-color:#302C3B"/>
	<stop  offset="0.6237" style="stop-color:#4E473B"/>
	<stop  offset="0.6515" style="stop-color:#776C3B"/>
	<stop  offset="0.6819" style="stop-color:#9C8D3B"/>
	<stop  offset="0.7145" style="stop-color:#BBA83B"/>
	<stop  offset="0.7499" style="stop-color:#D4BE3B"/>
	<stop  offset="0.7893" style="stop-color:#E7D03B"/>
	<stop  offset="0.835" style="stop-color:#F5DC3B"/>
	<stop  offset="0.8925" style="stop-color:#FDE33B"/>
	<stop  offset="1" style="stop-color:#FFE53B"/>
	<a:midPointStop  offset="0.2303" style="stop-color:#F3F3F3"/>
	<a:midPointStop  offset="0.1639" style="stop-color:#F3F3F3"/>
	<a:midPointStop  offset="0.6061" style="stop-color:#302C3B"/>
	<a:midPointStop  offset="0.1818" style="stop-color:#302C3B"/>
	<a:midPointStop  offset="1" style="stop-color:#FFE53B"/>
</linearGradient>
<path fill="url(#SVGID_22_)" d="M21.98,7.18c-0.045,0.182-0.29,0.118-0.256-0.068c0.294-1.67-0.259-1.869-0.337-2.336
	c-0.024-0.137,0.378-0.253,0.381-0.199C21.785,4.898,22.256,6.096,21.98,7.18z"/>
<path fill="#594035" d="M24.276,19.157c-1.146-0.214-4.113,1.156-4.875-0.903C20.348,19.058,23.261,17.683,24.276,19.157z"/>
<path fill="#FF8800" d="M15.58,24.56c0.18,0.588-0.554,0.811-0.733,0.223c-0.41-1.341-0.041-0.134-0.462-1.511
	c-0.18-0.59,0.553-0.813,0.733-0.223C15.588,24.586,15.17,23.22,15.58,24.56z"/>
<path fill="#48C2F9" d="M25.113,27.271c0.537,0.304,0.159,0.967-0.378,0.664c-1.225-0.69-0.122-0.069-1.38-0.778
	c-0.539-0.305-0.161-0.969,0.377-0.665C25.138,27.284,23.888,26.58,25.113,27.271z"/>
<path fill="#FFE12C" d="M20.902,23.626c-0.615,0.063-0.693-0.697-0.078-0.76c1.398-0.143,0.138-0.015,1.578-0.161
	c0.615-0.063,0.693,0.697,0.078,0.76C20.873,23.628,22.301,23.482,20.902,23.626z"/>
<path fill="#FF4638" d="M30.876,26.085c-0.499,0.365-0.952-0.251-0.454-0.615c1.133-0.828,0.112-0.081,1.278-0.935
	c0.498-0.364,0.952,0.251,0.454,0.615C30.853,26.104,32.009,25.256,30.876,26.085z"/>
<path fill="#FF8800" d="M40.207,25.815c0.18,0.589-0.555,0.811-0.732,0.223c-0.411-1.34-0.042-0.133-0.463-1.51
	c-0.18-0.591,0.554-0.813,0.733-0.224C40.216,25.843,39.798,24.476,40.207,25.815z"/>
<path fill="#89CC14" d="M45.77,24.656c0.537,0.303,0.159,0.967-0.377,0.663c-1.225-0.69-0.123-0.068-1.381-0.777
	c-0.539-0.305-0.16-0.969,0.378-0.665C45.795,24.67,44.545,23.966,45.77,24.656z"/>
<path fill="#FC8DA8" d="M35.656,28.007c-0.615,0.063-0.693-0.696-0.078-0.759c1.398-0.143,0.139-0.015,1.578-0.162
	c0.614-0.063,0.692,0.697,0.077,0.76C35.627,28.01,37.055,27.863,35.656,28.007z"/>
<path fill="#FF4638" d="M50.01,25.46c-0.497,0.365-0.951-0.251-0.453-0.615c1.134-0.828,0.112-0.081,1.279-0.935
	c0.497-0.364,0.951,0.251,0.453,0.615C49.986,25.479,51.145,24.631,50.01,25.46z"/>
<path fill="#FF8800" d="M32.302,47.03c-0.18-0.589,0.554-0.811,0.733-0.223c0.41,1.341,0.041,0.133,0.463,1.51
	c0.18,0.591-0.555,0.813-0.734,0.224C32.293,47.003,32.711,48.37,32.302,47.03z"/>
<path fill="#48C2F9" d="M20.419,42.918c-0.537-0.304-0.159-0.967,0.377-0.664c1.225,0.691,0.123,0.069,1.38,0.778
	c0.539,0.305,0.161,0.969-0.378,0.665C20.395,42.904,21.644,43.608,20.419,42.918z"/>
<path fill="#FF4638" d="M22.952,47.921c0.498-0.364,0.952,0.251,0.454,0.615c-1.134,0.829-0.113,0.082-1.279,0.935
	c-0.498,0.365-0.952-0.251-0.454-0.614C22.975,47.903,21.818,48.75,22.952,47.921z"/>
<path fill="#FF8800" d="M9.6,42.113c-0.18-0.588,0.554-0.811,0.733-0.223c0.41,1.341,0.041,0.134,0.462,1.511
	c0.18,0.591-0.554,0.813-0.734,0.223C9.592,42.087,10.009,43.453,9.6,42.113z"/>
<path fill="#89CC14" d="M6.356,45.831c-0.537-0.303-0.159-0.967,0.378-0.663c1.225,0.69,0.123,0.068,1.38,0.778
	c0.539,0.304,0.161,0.969-0.377,0.664C6.332,45.817,7.581,46.522,6.356,45.831z"/>
<path fill="#FC8DA8" d="M16.409,45.095c0.615-0.063,0.693,0.697,0.078,0.76c-1.398,0.143-0.138,0.015-1.578,0.161
	c-0.616,0.063-0.693-0.696-0.078-0.759C16.438,45.093,15.01,45.238,16.409,45.095z"/>
<path fill="#FF4638" d="M4.659,39.618c0.498-0.365,0.953,0.251,0.454,0.615C3.979,41.062,5,40.314,3.834,41.168
	c-0.498,0.364-0.952-0.251-0.454-0.615C4.682,39.6,3.526,40.447,4.659,39.618z"/>
<path fill="#48C2F9" d="M41.334,48.388c-0.596,0.163-0.799-0.572-0.205-0.735c1.357-0.374,0.136-0.038,1.529-0.421
	c0.597-0.165,0.802,0.57,0.205,0.735C41.307,48.395,42.689,48.014,41.334,48.388z"/>
<path fill="#FFE12C" d="M48.897,43.559c0.093-0.608,0.852-0.494,0.758,0.114c-0.214,1.385-0.021,0.138-0.239,1.562
	c-0.094,0.608-0.853,0.493-0.758-0.114C48.901,43.529,48.685,44.941,48.897,43.559z"/>
<path fill="#FF8800" d="M57.68,41.097c-0.547-0.289-0.186-0.963,0.359-0.674c1.242,0.659,0.123,0.065,1.399,0.743
	c0.548,0.29,0.187,0.964-0.36,0.674C57.654,41.083,58.92,41.755,57.68,41.097z"/>
<path fill="#89CC14" d="M27.632,44.955c-0.595,0.164-0.798-0.571-0.204-0.734c1.357-0.374,0.137-0.037,1.529-0.422
	c0.597-0.164,0.801,0.572,0.204,0.736C27.605,44.964,28.988,44.581,27.632,44.955z"/>
<path fill="#FC8DA8" d="M38.911,42.922c0.39-0.477,0.984,0.004,0.595,0.482c-0.889,1.085-0.088,0.107-1.002,1.225
	c-0.391,0.478-0.985-0.005-0.594-0.482C38.93,42.9,38.023,44.009,38.911,42.922z"/>
<path fill="#FF4638" d="M55.762,44.716c0.093-0.608,0.852-0.493,0.758,0.115c-0.213,1.384-0.021,0.137-0.24,1.561
	c-0.093,0.609-0.852,0.493-0.758-0.114C55.766,44.687,55.549,46.101,55.762,44.716z"/>
<path fill="#FC8DA8" d="M15.476,19.452c-0.424-0.17-0.212-0.695,0.212-0.525c0.968,0.388,0.097,0.039,1.091,0.437
	c0.425,0.171,0.214,0.696-0.212,0.525C15.457,19.444,16.443,19.84,15.476,19.452z"/>
<path fill="#89CC14" d="M26.16,18.305c-0.417,0.087-0.524-0.429-0.107-0.514c0.95-0.196,0.095-0.021,1.071-0.222
	c0.417-0.085,0.524,0.43,0.106,0.515C26.142,18.31,27.111,18.109,26.16,18.305z"/>
<path fill="#48C2F9" d="M26.91,21.003c-0.447-0.096-0.326-0.648,0.121-0.552c1.02,0.221,0.103,0.021,1.149,0.249
	c0.447,0.098,0.327,0.649-0.121,0.553C26.89,20.999,27.929,21.225,26.91,21.003z"/>
<path fill="#FF8800" d="M21.418,20.757c-0.448,0.093-0.563-0.461-0.115-0.553c1.021-0.212,0.102-0.021,1.151-0.238
	c0.449-0.092,0.565,0.461,0.115,0.554C21.398,20.762,22.44,20.547,21.418,20.757z"/>
<path fill="#FF4638" d="M35.854,18.526c-0.425-0.17-0.212-0.695,0.212-0.525c0.969,0.388,0.098,0.038,1.091,0.437
	c0.425,0.171,0.214,0.695-0.212,0.525C35.836,18.519,36.822,18.913,35.854,18.526z"/>
<path fill="#89CC14" d="M45.557,18.683c-0.416,0.086-0.523-0.43-0.107-0.515c0.951-0.196,0.096-0.021,1.072-0.221
	c0.417-0.086,0.524,0.429,0.105,0.514C45.539,18.687,46.508,18.486,45.557,18.683z"/>
<path fill="#48C2F9" d="M47.914,20.178c-0.447-0.096-0.326-0.648,0.121-0.552c1.02,0.221,0.102,0.021,1.149,0.249
	c0.447,0.098,0.327,0.65-0.121,0.553C47.895,20.174,48.934,20.4,47.914,20.178z"/>
<path fill="#FFE12C" d="M38.942,21.531c-0.448,0.093-0.563-0.462-0.116-0.553c1.021-0.212,0.103-0.022,1.152-0.239
	c0.448-0.092,0.564,0.462,0.114,0.555C38.922,21.535,39.964,21.32,38.942,21.531z"/>
<path fill="#FC8DA8" d="M27.809,38.809c-0.424-0.17-0.212-0.695,0.213-0.525c0.967,0.388,0.096,0.039,1.09,0.437
	c0.426,0.171,0.215,0.696-0.211,0.525C27.79,38.801,28.777,39.196,27.809,38.809z"/>
<path fill="#89CC14" d="M7.386,36.183c-0.417,0.086-0.524-0.43-0.107-0.515c0.95-0.196,0.095-0.02,1.071-0.221
	c0.417-0.086,0.525,0.429,0.106,0.515C7.368,36.187,8.336,35.986,7.386,36.183z"/>
<path fill="#48C2F9" d="M43.379,38.916c-0.447-0.096-0.326-0.649,0.121-0.553c1.02,0.221,0.102,0.022,1.149,0.249
	c0.447,0.099,0.327,0.65-0.121,0.554C43.359,38.911,44.398,39.138,43.379,38.916z"/>
<path fill="#FF8800" d="M13.808,38.094c-0.448,0.093-0.563-0.461-0.115-0.553c1.021-0.212,0.102-0.022,1.151-0.239
	c0.449-0.091,0.565,0.462,0.115,0.555C13.789,38.098,14.83,37.884,13.808,38.094z"/>
<path fill="#FF4638" d="M36.473,39.056c-0.424-0.17-0.213-0.695,0.211-0.525c0.969,0.388,0.098,0.038,1.092,0.437
	c0.425,0.171,0.213,0.695-0.213,0.525C36.453,39.048,37.439,39.442,36.473,39.056z"/>
<path fill="#89CC14" d="M18.794,38.478c-0.38-0.19-0.143-0.661,0.237-0.47c0.867,0.434,0.086,0.043,0.978,0.489
	c0.38,0.191,0.144,0.661-0.238,0.469C18.777,38.47,19.661,38.911,18.794,38.478z"/>
<path fill="#48C2F9" d="M51.438,37.849c-0.447-0.096-0.326-0.648,0.12-0.552c1.021,0.221,0.103,0.021,1.149,0.249
	c0.447,0.098,0.328,0.65-0.121,0.553C51.418,37.845,52.457,38.071,51.438,37.849z"/>
<path fill="#FFE12C" d="M54.301,35.186c-0.448,0.093-0.564-0.462-0.116-0.553c1.022-0.212,0.103-0.022,1.151-0.239
	c0.449-0.092,0.565,0.462,0.115,0.555C54.281,35.189,55.322,34.975,54.301,35.186z"/>
</svg>
