<?xml version="1.0" encoding="utf-8"?>
<!-- Generator: Adobe Illustrator 15.0.0, SVG Export Plug-In . SVG Version: 6.00 Build 0)  -->
<!DOCTYPE svg PUBLIC "-//W3C//DTD SVG 1.1//EN" "http://www.w3.org/Graphics/SVG/1.1/DTD/svg11.dtd" [
	<!ENTITY ns_flows "http://ns.adobe.com/Flows/1.0/">
	<!ENTITY ns_extend "http://ns.adobe.com/Extensibility/1.0/">
	<!ENTITY ns_ai "http://ns.adobe.com/AdobeIllustrator/10.0/">
	<!ENTITY ns_graphs "http://ns.adobe.com/Graphs/1.0/">
]>
<svg version="1.1" id="Layer_1" xmlns:x="&ns_extend;" xmlns:i="&ns_ai;" xmlns:graph="&ns_graphs;"
	 xmlns="http://www.w3.org/2000/svg" xmlns:xlink="http://www.w3.org/1999/xlink" xmlns:a="http://ns.adobe.com/AdobeSVGViewerExtensions/3.0/"
	 x="0px" y="0px" width="64px" height="64px" viewBox="0 0 64 64" enable-background="new 0 0 64 64" xml:space="preserve">
<radialGradient id="SVGID_1_" cx="66.4941" cy="5.999" r="7.7669" gradientTransform="matrix(1.0591 0 0 1.875 -38.4245 -3.6241)" gradientUnits="userSpaceOnUse">
	<stop  offset="0" style="stop-color:#FFB300"/>
	<stop  offset="0.3805" style="stop-color:#FDAB00"/>
	<stop  offset="0.9678" style="stop-color:#F79500"/>
	<stop  offset="1" style="stop-color:#F79400"/>
	<a:midPointStop  offset="0" style="stop-color:#FFB300"/>
	<a:midPointStop  offset="0.6121" style="stop-color:#FFB300"/>
	<a:midPointStop  offset="1" style="stop-color:#F79400"/>
</radialGradient>
<path fill="url(#SVGID_1_)" d="M32.003,2L32.003,2c-11.698,0-9.637,11.197-9.563,11.248c0.214-4.585,18.904-4.585,19.118,0
	C41.634,13.197,43.7,2,32.003,2z"/>
<linearGradient id="SVGID_2_" gradientUnits="userSpaceOnUse" x1="17.3374" y1="59.7939" x2="46.2971" y2="9.6342">
	<stop  offset="0" style="stop-color:#FFC800"/>
	<stop  offset="0.334" style="stop-color:#FFC304"/>
	<stop  offset="0.7054" style="stop-color:#FFB611"/>
	<stop  offset="1" style="stop-color:#FFA621"/>
	<a:midPointStop  offset="0" style="stop-color:#FFC800"/>
	<a:midPointStop  offset="0.6848" style="stop-color:#FFC800"/>
	<a:midPointStop  offset="1" style="stop-color:#FFA621"/>
</linearGradient>
<path fill="url(#SVGID_2_)" d="M13,52.5l8.159,9.5c9.881-15.799,20.848-26.012,23.459-37.016c1.849-7.787-0.924-11.37-3.888-18.564
	C44.309,14.374,26.896,29.668,13,52.5z"/>
<linearGradient id="SVGID_3_" gradientUnits="userSpaceOnUse" x1="20.3789" y1="14.2666" x2="45.1575" y2="57.1844">
	<stop  offset="0" style="stop-color:#FFA621"/>
	<stop  offset="0.1343" style="stop-color:#FFB814"/>
	<stop  offset="0.3083" style="stop-color:#FFC809"/>
	<stop  offset="0.5038" style="stop-color:#FFD202"/>
	<stop  offset="0.7636" style="stop-color:#FFD500"/>
	<a:midPointStop  offset="0" style="stop-color:#FFA621"/>
	<a:midPointStop  offset="0.2381" style="stop-color:#FFA621"/>
	<a:midPointStop  offset="0.7636" style="stop-color:#FFD500"/>
</linearGradient>
<path fill="url(#SVGID_3_)" d="M51,52.5L42.841,62C32.96,46.201,21.994,35.988,19.382,24.984c-1.849-7.787,0.924-11.37,3.887-18.564
	C19.692,14.374,37.104,29.668,51,52.5z"/>
</svg>
