<?xml version="1.0" encoding="utf-8"?>
<!-- Generator: Adobe Illustrator 15.0.0, SVG Export Plug-In . SVG Version: 6.00 Build 0)  -->
<!DOCTYPE svg PUBLIC "-//W3C//DTD SVG 1.1//EN" "http://www.w3.org/Graphics/SVG/1.1/DTD/svg11.dtd" [
	<!ENTITY ns_flows "http://ns.adobe.com/Flows/1.0/">
	<!ENTITY ns_extend "http://ns.adobe.com/Extensibility/1.0/">
	<!ENTITY ns_ai "http://ns.adobe.com/AdobeIllustrator/10.0/">
	<!ENTITY ns_graphs "http://ns.adobe.com/Graphs/1.0/">
]>
<svg version="1.1" id="Layer_1" xmlns:x="&ns_extend;" xmlns:i="&ns_ai;" xmlns:graph="&ns_graphs;"
	 xmlns="http://www.w3.org/2000/svg" xmlns:xlink="http://www.w3.org/1999/xlink" xmlns:a="http://ns.adobe.com/AdobeSVGViewerExtensions/3.0/"
	 x="0px" y="0px" width="64px" height="64px" viewBox="0 0 64 64" enable-background="new 0 0 64 64" xml:space="preserve">
<radialGradient id="SVGID_1_" cx="32" cy="49.1221" r="23.7887" gradientTransform="matrix(1 0 0 3 0 -98.2441)" gradientUnits="userSpaceOnUse">
	<stop  offset="0.5" style="stop-color:#E8000E"/>
	<stop  offset="1" style="stop-color:#CF0000"/>
	<a:midPointStop  offset="0.5" style="stop-color:#E8000E"/>
	<a:midPointStop  offset="0.5273" style="stop-color:#E8000E"/>
	<a:midPointStop  offset="1" style="stop-color:#CF0000"/>
</radialGradient>
<path fill="url(#SVGID_1_)" d="M57.771,36.344H6.229c0,9.963-5.35,22.771-5.35,22.771c0,1.211,3.407,2.141,8.627,2.785H54.49
	c5.223-0.645,8.631-1.573,8.631-2.785C63.121,59.115,57.771,46.307,57.771,36.344z"/>
<path fill="#DDE4E8" d="M54.494,61.9C50.719,62.617,40.711,63,40.711,63l-1.615-26.771h12.449
	C51.545,36.229,51.691,50.789,54.494,61.9z"/>
<path fill="#DDE4E8" d="M9.506,61.9c3.775,0.717,13.784,1.1,13.784,1.1l1.613-26.771H12.456C12.456,36.229,12.309,50.789,9.506,61.9
	z"/>
<path fill="#FF000E" d="M0.892,58.076C0.061,59.782,0,60.847,0,60.847c0,0.983,3.503,1.737,8.871,2.261h46.256
	C60.496,62.584,64,61.83,64,60.847c0,0-0.061-1.064-0.891-2.771c-1.676,0.559-4.727,1.01-8.621,1.351
	c-2.037,4.351-42.776,3.539-44.96,0.001C5.626,59.087,2.568,58.637,0.892,58.076z"/>
<path fill="#EFF6FA" d="M9.517,59.428c-0.31,1.264-0.646,3.68-0.646,3.68C12.753,63.689,23.044,64,23.044,64l0.174-3.873
	C18.166,60.002,13.419,59.77,9.517,59.428z"/>
<path fill="#EFF6FA" d="M40.783,60.127L40.957,64c0,0,10.291-0.311,14.172-0.893c0,0-0.336-2.415-0.645-3.68
	C50.58,59.771,45.836,60.002,40.783,60.127z"/>
<path fill="#E30000" d="M32,8.533C30.685,19.675,16.871,36.229,0,36.229h64C47.127,36.229,33.314,19.675,32,8.533z"/>
<linearGradient id="SVGID_2_" gradientUnits="userSpaceOnUse" x1="31.9995" y1="37.0674" x2="31.9995" y2="11.7339">
	<stop  offset="0" style="stop-color:#DBE3E6"/>
	<stop  offset="0.882" style="stop-color:#F2F8FC"/>
	<stop  offset="1" style="stop-color:#F6FBFF"/>
	<a:midPointStop  offset="0" style="stop-color:#DBE3E6"/>
	<a:midPointStop  offset="0.5394" style="stop-color:#DBE3E6"/>
	<a:midPointStop  offset="1" style="stop-color:#F6FBFF"/>
</linearGradient>
<path fill="url(#SVGID_2_)" d="M32,11.733c-4.697,20.304-19.545,24.495-19.545,24.495s5.904,1.887,12.45,0
	c0,0,6.172-4.562,7.096-20.447c0.926,15.885,7.096,20.447,7.096,20.447c6.547,1.887,12.449,0,12.449,0S36.697,32.038,32,11.733z"/>
<polygon fill="#1A1626" points="32,39.188 20.654,64 43.346,64 "/>
<linearGradient id="SVGID_3_" gradientUnits="userSpaceOnUse" x1="16.2832" y1="51.6211" x2="31.9995" y2="51.6211">
	<stop  offset="0" style="stop-color:#CF0000"/>
	<stop  offset="0.1359" style="stop-color:#DD0004"/>
	<stop  offset="0.5" style="stop-color:#FF000E"/>
	<a:midPointStop  offset="0" style="stop-color:#CF0000"/>
	<a:midPointStop  offset="0.4727" style="stop-color:#CF0000"/>
	<a:midPointStop  offset="0.5" style="stop-color:#FF000E"/>
</linearGradient>
<path fill="url(#SVGID_3_)" d="M20.679,64c0,0-2.612,0-4.396-5.59c0,0,4.411-0.621,15.716-19.168C32,39.245,26.406,64,20.679,64z"/>
<linearGradient id="SVGID_4_" gradientUnits="userSpaceOnUse" x1="31.9995" y1="51.6211" x2="47.7168" y2="51.6211">
	<stop  offset="0.5" style="stop-color:#FF000E"/>
	<stop  offset="0.8641" style="stop-color:#DD0004"/>
	<stop  offset="1" style="stop-color:#CF0000"/>
	<a:midPointStop  offset="0.5" style="stop-color:#FF000E"/>
	<a:midPointStop  offset="0.5273" style="stop-color:#FF000E"/>
	<a:midPointStop  offset="1" style="stop-color:#CF0000"/>
</linearGradient>
<path fill="url(#SVGID_4_)" d="M43.32,64c0,0,2.613,0,4.396-5.59c0,0-4.41-0.621-15.717-19.168C32,39.245,37.594,64,43.32,64z"/>
<linearGradient id="SVGID_5_" gradientUnits="userSpaceOnUse" x1="37.5195" y1="7.2461" x2="46.4355" y2="7.2461">
	<stop  offset="0.1091" style="stop-color:#CF0000"/>
	<stop  offset="0.1963" style="stop-color:#D70002"/>
	<stop  offset="0.48" style="stop-color:#ED0009"/>
	<stop  offset="0.7526" style="stop-color:#FA000D"/>
	<stop  offset="1" style="stop-color:#FF000E"/>
	<a:midPointStop  offset="0.1091" style="stop-color:#CF0000"/>
	<a:midPointStop  offset="0.3129" style="stop-color:#CF0000"/>
	<a:midPointStop  offset="1" style="stop-color:#FF000E"/>
</linearGradient>
<path fill="url(#SVGID_5_)" d="M37.52,4.22c0,2.018,0,4.034,0,6.052c2.855-0.038,6.063-1.047,8.916-3.025
	C43.582,7.208,40.375,6.199,37.52,4.22z"/>
<linearGradient id="SVGID_6_" gradientUnits="userSpaceOnUse" x1="32.2925" y1="6.7246" x2="39.7324" y2="6.7246">
	<stop  offset="0" style="stop-color:#CF0000"/>
	<stop  offset="0.2717" style="stop-color:#DD0004"/>
	<stop  offset="1" style="stop-color:#FF000E"/>
	<a:midPointStop  offset="0" style="stop-color:#CF0000"/>
	<a:midPointStop  offset="0.4727" style="stop-color:#CF0000"/>
	<a:midPointStop  offset="1" style="stop-color:#FF000E"/>
</linearGradient>
<path fill="url(#SVGID_6_)" d="M39.732,10.054c-2.381-0.81-5.059-0.81-7.44,0c0-2.017,0-4.035,0-6.052c2.381-0.81,5.059-0.81,7.44,0
	C39.732,6.019,39.732,8.037,39.732,10.054z"/>
<linearGradient id="SVGID_7_" gradientUnits="userSpaceOnUse" x1="31.1841" y1="8.1025" x2="32.8159" y2="8.1025">
	<stop  offset="0" style="stop-color:#9CA4A6"/>
	<stop  offset="0.0763" style="stop-color:#B6BEC0"/>
	<stop  offset="0.1689" style="stop-color:#CED6D8"/>
	<stop  offset="0.2669" style="stop-color:#DFE7E9"/>
	<stop  offset="0.3726" style="stop-color:#EAF1F4"/>
	<stop  offset="0.5" style="stop-color:#EDF4F7"/>
	<stop  offset="1" style="stop-color:#9CA4A6"/>
	<a:midPointStop  offset="0" style="stop-color:#9CA4A6"/>
	<a:midPointStop  offset="0.2561" style="stop-color:#9CA4A6"/>
	<a:midPointStop  offset="0.5" style="stop-color:#EDF4F7"/>
	<a:midPointStop  offset="0.5" style="stop-color:#EDF4F7"/>
	<a:midPointStop  offset="1" style="stop-color:#9CA4A6"/>
</linearGradient>
<path fill="url(#SVGID_7_)" d="M31.184,3.818c0,0.423,0,6.368,0,8.375c0,0.487,1.632,0.488,1.632,0.001c0-1.889,0-7.942,0-8.375
	C32.816,3.588,31.184,3.587,31.184,3.818z"/>
<radialGradient id="SVGID_8_" cx="31.5918" cy="1.0884" r="2.093" gradientUnits="userSpaceOnUse">
	<stop  offset="0" style="stop-color:#EDF4F7"/>
	<stop  offset="0.1913" style="stop-color:#E7EEF1"/>
	<stop  offset="0.4574" style="stop-color:#D5DCDF"/>
	<stop  offset="0.766" style="stop-color:#B7BFC1"/>
	<stop  offset="1" style="stop-color:#9CA4A6"/>
	<a:midPointStop  offset="0" style="stop-color:#EDF4F7"/>
	<a:midPointStop  offset="0.6364" style="stop-color:#EDF4F7"/>
	<a:midPointStop  offset="1" style="stop-color:#9CA4A6"/>
</radialGradient>
<circle fill="url(#SVGID_8_)" cx="32" cy="1.632" r="1.633"/>
<linearGradient id="SVGID_9_" gradientUnits="userSpaceOnUse" x1="31.4331" y1="3.5464" x2="32.5679" y2="3.5464">
	<stop  offset="0" style="stop-color:#9CA4A6"/>
	<stop  offset="0.0218" style="stop-color:#A2AAAC"/>
	<stop  offset="0.1264" style="stop-color:#BAC2C4"/>
	<stop  offset="0.2369" style="stop-color:#CBD3D5"/>
	<stop  offset="0.3562" style="stop-color:#D5DDE0"/>
	<stop  offset="0.5" style="stop-color:#D8E0E3"/>
	<stop  offset="1" style="stop-color:#9CA4A6"/>
	<a:midPointStop  offset="0" style="stop-color:#9CA4A6"/>
	<a:midPointStop  offset="0.2561" style="stop-color:#9CA4A6"/>
	<a:midPointStop  offset="0.5" style="stop-color:#D8E0E3"/>
	<a:midPointStop  offset="0.5" style="stop-color:#D8E0E3"/>
	<a:midPointStop  offset="1" style="stop-color:#9CA4A6"/>
</linearGradient>
<path fill="url(#SVGID_9_)" d="M31.433,3.168v0.629c0,0.169,1.135,0.17,1.135,0V3.168H31.433z"/>
<path fill="#FF000E" d="M0,36.229c0,2.457,2.79,4.449,6.229,4.449c3.44,0,6.225-1.992,6.225-4.449H0z"/>
<path fill="#FF000E" d="M64,36.229c0,2.457-2.789,4.449-6.229,4.449s-6.227-1.992-6.227-4.449H64z"/>
<path fill="#FF000E" d="M24.904,36.229c0,2.457,3.658,4.449,7.096,4.449c3.438,0,7.096-1.992,7.096-4.449H24.904z"/>
<path fill="#FFFFFF" d="M12.454,36.229c0,2.457,2.79,4.449,6.229,4.449s6.221-1.992,6.221-4.449H12.454z"/>
<path fill="#FFFFFF" d="M51.545,36.229c0,2.457-2.789,4.449-6.229,4.449s-6.221-1.992-6.221-4.449H51.545z"/>
</svg>
