<?xml version="1.0" encoding="utf-8"?>
<!-- Generator: Adobe Illustrator 24.1.2, SVG Export Plug-In . SVG Version: 6.00 Build 0)  -->
<svg version="1.1" id="Layer_1" xmlns="http://www.w3.org/2000/svg" xmlns:xlink="http://www.w3.org/1999/xlink" x="0px" y="0px"
	 width="64px" height="64px" viewBox="0 0 64 64" style="enable-background:new 0 0 64 64;" xml:space="preserve">
<style type="text/css">
	.st0{fill:#99A8AE;}
	.st1{fill:url(#SVGID_1_);}
	.st2{fill:url(#SVGID_2_);}
	.st3{fill:url(#SVGID_3_);}
	.st4{fill:url(#SVGID_4_);}
	.st5{fill:url(#SVGID_5_);}
	.st6{fill:url(#SVGID_6_);}
	.st7{fill:url(#SVGID_7_);}
	.st8{fill:url(#SVGID_8_);}
	.st9{fill:url(#SVGID_9_);}
	.st10{fill:url(#SVGID_10_);}
	.st11{fill:url(#SVGID_11_);}
	.st12{fill:url(#SVGID_12_);}
	.st13{fill:url(#SVGID_13_);}
	.st14{fill:url(#SVGID_14_);}
	.st15{fill:url(#SVGID_15_);}
	.st16{fill:url(#SVGID_16_);}
	.st17{fill:url(#SVGID_17_);}
	.st18{fill:url(#SVGID_18_);}
	.st19{fill:url(#SVGID_19_);}
	.st20{fill:url(#SVGID_20_);}
	.st21{fill:#D98416;}
	.st22{fill:url(#SVGID_21_);}
	.st23{fill:url(#SVGID_22_);}
</style>
<path class="st0" d="M32.42,34.8c-1.21,1.21-1.21,3.18,0,4.4c1.21,1.21,3.18,1.21,4.4,0c1.21-1.21,1.21-3.18,0-4.4
	S33.63,33.58,32.42,34.8z M36.44,38.83c-1.01,1.01-2.64,1.01-3.65,0c-1.01-1.01-1.01-2.64,0-3.65c1.01-1.01,2.64-1.01,3.65,0
	C37.45,36.18,37.45,37.82,36.44,38.83z"/>
<path class="st0" d="M50.04,17.49c0,0,1.74,1.74,2.04,2.04c1.01,1.01,1.3,2.36,0.29,3.37c-1.01,1.01-2.36,0.72-3.37-0.29
	c-0.3-0.3-2.04-2.04-2.04-2.04l-0.31,0.31c0,0,1.75,1.75,2.04,2.04c1.21,1.21,2.84,1.56,4.05,0.34c1.21-1.21,0.87-2.84-0.34-4.05
	c-0.29-0.29-2.04-2.04-2.04-2.04L50.04,17.49z"/>
<linearGradient id="SVGID_1_" gradientUnits="userSpaceOnUse" x1="127.751" y1="588.8253" x2="122.2474" y2="581.605" gradientTransform="matrix(-0.7071 0.7071 -0.7071 -0.7071 541.0418 367.5655)">
	<stop  offset="0" style="stop-color:#F2BE22"/>
	<stop  offset="0.6004" style="stop-color:#E2981A"/>
	<stop  offset="1" style="stop-color:#D98416"/>
</linearGradient>
<path class="st1" d="M40.67,45.98c0,0,2.33-2.34,3.4-3.41c1.25-1.25-0.63-3.13-1.88-1.88c-1.51,1.5-3.41,3.41-3.41,3.41
	c-1.54,1.55-3.18-0.1-1.64-1.65c0,0,2.14-2.15,3.4-3.41c1.25-1.25-0.62-3.13-1.88-1.88c-1.29,1.29-3.4,3.41-3.4,3.41
	C31.18,44.67,36.57,50.08,40.67,45.98z"/>
<linearGradient id="SVGID_2_" gradientUnits="userSpaceOnUse" x1="249.8148" y1="-19.3265" x2="250.8011" y2="-19.3265" gradientTransform="matrix(0.7071 -0.7071 0.7071 0.7071 -131.5749 231.4434)">
	<stop  offset="0" style="stop-color:#F2BE22"/>
	<stop  offset="0.6004" style="stop-color:#E2981A"/>
	<stop  offset="1" style="stop-color:#D98416"/>
</linearGradient>
<polygon class="st2" points="35.58,45.31 36.27,44.62 27.92,36.26 27.23,36.95 "/>
<linearGradient id="SVGID_3_" gradientUnits="userSpaceOnUse" x1="-94.1839" y1="216.358" x2="-93.1994" y2="216.358" gradientTransform="matrix(0.7071 0.7071 -0.7071 0.7071 261.7535 -57.4135)">
	<stop  offset="0" style="stop-color:#F2BE22"/>
	<stop  offset="0.6004" style="stop-color:#E2981A"/>
	<stop  offset="1" style="stop-color:#D98416"/>
</linearGradient>
<polygon class="st3" points="37.99,33.15 38.68,33.85 47.04,25.49 46.35,24.8 "/>
<linearGradient id="SVGID_4_" gradientUnits="userSpaceOnUse" x1="-84.2058" y1="216.011" x2="-83.2206" y2="216.011" gradientTransform="matrix(0.7071 0.7071 -0.7071 0.7071 261.7535 -57.4135)">
	<stop  offset="0" style="stop-color:#F2BE22"/>
	<stop  offset="0.6004" style="stop-color:#E2981A"/>
	<stop  offset="1" style="stop-color:#D98416"/>
</linearGradient>
<polygon class="st4" points="45.29,39.96 45.99,40.66 54.35,32.3 53.65,31.61 "/>
<radialGradient id="SVGID_5_" cx="266.0242" cy="-19.3262" r="20.4616" gradientTransform="matrix(0.7071 -0.7072 0.3932 0.3933 -137.6408 225.3964)" gradientUnits="userSpaceOnUse">
	<stop  offset="0.8667" style="stop-color:#F7B618"/>
	<stop  offset="0.9251" style="stop-color:#F8B214"/>
	<stop  offset="0.9819" style="stop-color:#F9A808"/>
	<stop  offset="1" style="stop-color:#FAA303"/>
</radialGradient>
<path class="st5" d="M45.98,14.86L28.06,32.79c-8.98,8.99,2.72,20.69,11.69,11.7l17.92-17.94C66.65,17.56,54.96,5.87,45.98,14.86z
	 M55.3,24.18L37.38,42.11c-5.72,5.74-12.67-1.21-6.95-6.95l17.92-17.94C54.07,11.49,61.02,18.44,55.3,24.18z"/>
<linearGradient id="SVGID_6_" gradientUnits="userSpaceOnUse" x1="7.0503" y1="86.8969" x2="10.0042" y2="86.8969" gradientTransform="matrix(0.7071 -0.7071 0.7071 0.7071 -28.0639 -38.0449)">
	<stop  offset="0" style="stop-color:#F2BE22"/>
	<stop  offset="0.6004" style="stop-color:#E2981A"/>
	<stop  offset="1" style="stop-color:#D98416"/>
</linearGradient>
<polygon class="st6" points="39.7,19.75 41.79,17.66 39.12,14.99 37.04,17.08 "/>
<linearGradient id="SVGID_7_" gradientUnits="userSpaceOnUse" x1="270.2292" y1="-17.864" x2="274.3138" y2="-17.864" gradientTransform="matrix(0.7071 -0.7071 0.7071 0.7071 -131.5749 231.4434)">
	<stop  offset="0" style="stop-color:#F7DD45"/>
	<stop  offset="0.1627" style="stop-color:#F1CD3C"/>
	<stop  offset="0.725" style="stop-color:#E09821"/>
	<stop  offset="1" style="stop-color:#D98416"/>
</linearGradient>
<polygon class="st7" points="54.99,35.85 57.87,32.98 41.64,16.73 38.77,19.6 "/>
<linearGradient id="SVGID_8_" gradientUnits="userSpaceOnUse" x1="269.4256" y1="-33.2206" x2="275.1393" y2="-33.2206" gradientTransform="matrix(0.7071 -0.7071 0.7071 0.7071 -131.5749 231.4434)">
	<stop  offset="0.4667" style="stop-color:#CFD8DD"/>
	<stop  offset="0.5761" style="stop-color:#BAC5CA"/>
	<stop  offset="0.7074" style="stop-color:#A7B5BB"/>
	<stop  offset="0.8455" style="stop-color:#9DABB1"/>
	<stop  offset="1" style="stop-color:#99A8AE"/>
</linearGradient>
<polygon class="st8" points="36.17,18.16 40.2,14.12 38.76,12.68 34.73,16.72 "/>
<linearGradient id="SVGID_9_" gradientUnits="userSpaceOnUse" x1="0.7921" y1="86.8982" x2="3.7467" y2="86.8982" gradientTransform="matrix(0.7071 -0.7071 0.7071 0.7071 -28.0639 -38.0449)">
	<stop  offset="0" style="stop-color:#F2BE22"/>
	<stop  offset="0.6004" style="stop-color:#E2981A"/>
	<stop  offset="1" style="stop-color:#D98416"/>
</linearGradient>
<polygon class="st9" points="35.28,24.18 37.36,22.09 34.7,19.42 32.61,21.5 "/>
<linearGradient id="SVGID_10_" gradientUnits="userSpaceOnUse" x1="263.9702" y1="-17.8637" x2="268.057" y2="-17.8637" gradientTransform="matrix(0.7071 -0.7071 0.7071 0.7071 -131.5749 231.4434)">
	<stop  offset="0" style="stop-color:#F7DD45"/>
	<stop  offset="0.1627" style="stop-color:#F1CD3C"/>
	<stop  offset="0.725" style="stop-color:#E09821"/>
	<stop  offset="1" style="stop-color:#D98416"/>
</linearGradient>
<polygon class="st10" points="50.57,40.28 53.44,37.4 37.22,21.15 34.34,24.03 "/>
<linearGradient id="SVGID_11_" gradientUnits="userSpaceOnUse" x1="263.1673" y1="-33.2207" x2="268.8811" y2="-33.2207" gradientTransform="matrix(0.7071 -0.7071 0.7071 0.7071 -131.5749 231.4434)">
	<stop  offset="0.4667" style="stop-color:#CFD8DD"/>
	<stop  offset="0.5761" style="stop-color:#BAC5CA"/>
	<stop  offset="0.7074" style="stop-color:#A7B5BB"/>
	<stop  offset="0.8455" style="stop-color:#9DABB1"/>
	<stop  offset="1" style="stop-color:#99A8AE"/>
</linearGradient>
<polygon class="st11" points="31.74,22.59 35.78,18.54 34.34,17.11 30.3,21.15 "/>
<linearGradient id="SVGID_12_" gradientUnits="userSpaceOnUse" x1="-5.4653" y1="86.8978" x2="-2.5108" y2="86.8978" gradientTransform="matrix(0.7071 -0.7071 0.7071 0.7071 -28.0639 -38.0449)">
	<stop  offset="0" style="stop-color:#F2BE22"/>
	<stop  offset="0.6004" style="stop-color:#E2981A"/>
	<stop  offset="1" style="stop-color:#D98416"/>
</linearGradient>
<polygon class="st12" points="30.85,28.6 32.94,26.51 30.27,23.84 28.19,25.93 "/>
<linearGradient id="SVGID_13_" gradientUnits="userSpaceOnUse" x1="257.7127" y1="-17.8631" x2="261.798" y2="-17.8631" gradientTransform="matrix(0.7071 -0.7071 0.7071 0.7071 -131.5749 231.4434)">
	<stop  offset="0" style="stop-color:#F7DD45"/>
	<stop  offset="0.1627" style="stop-color:#F1CD3C"/>
	<stop  offset="0.725" style="stop-color:#E09821"/>
	<stop  offset="1" style="stop-color:#D98416"/>
</linearGradient>
<polygon class="st13" points="46.14,44.7 49.02,41.83 32.79,25.58 29.92,28.45 "/>
<linearGradient id="SVGID_14_" gradientUnits="userSpaceOnUse" x1="270.2328" y1="-6.1045" x2="274.2999" y2="-6.1045" gradientTransform="matrix(0.7071 -0.7071 0.7071 0.7071 -131.5749 231.4434)">
	<stop  offset="0" style="stop-color:#CFD8DD"/>
	<stop  offset="0.4443" style="stop-color:#B9C5CA"/>
	<stop  offset="1" style="stop-color:#99A8AE"/>
</linearGradient>
<path class="st14" d="M55.78,35.85l2.1-2.1c0.21-0.21,0.21-0.57,0-0.78l-2.88,2.88C55.21,36.07,55.56,36.07,55.78,35.85z"/>
<linearGradient id="SVGID_15_" gradientUnits="userSpaceOnUse" x1="263.9742" y1="-6.1042" x2="268.044" y2="-6.1042" gradientTransform="matrix(0.7071 -0.7071 0.7071 0.7071 -131.5749 231.4434)">
	<stop  offset="0" style="stop-color:#CFD8DD"/>
	<stop  offset="0.4443" style="stop-color:#B9C5CA"/>
	<stop  offset="1" style="stop-color:#99A8AE"/>
</linearGradient>
<path class="st15" d="M51.35,40.28l2.1-2.1c0.21-0.21,0.21-0.57,0-0.78l-2.88,2.88C50.78,40.49,51.13,40.49,51.35,40.28z"/>
<linearGradient id="SVGID_16_" gradientUnits="userSpaceOnUse" x1="257.7163" y1="-6.104" x2="261.785" y2="-6.104" gradientTransform="matrix(0.7071 -0.7071 0.7071 0.7071 -131.5749 231.4434)">
	<stop  offset="0" style="stop-color:#CFD8DD"/>
	<stop  offset="0.4443" style="stop-color:#B9C5CA"/>
	<stop  offset="1" style="stop-color:#99A8AE"/>
</linearGradient>
<path class="st16" d="M46.93,44.7l2.1-2.1c0.21-0.21,0.21-0.57,0-0.78l-2.88,2.88C46.36,44.92,46.71,44.92,46.93,44.7z"/>
<linearGradient id="SVGID_17_" gradientUnits="userSpaceOnUse" x1="256.9103" y1="-33.2208" x2="262.6235" y2="-33.2208" gradientTransform="matrix(0.7071 -0.7071 0.7071 0.7071 -131.5749 231.4434)">
	<stop  offset="0.4667" style="stop-color:#CFD8DD"/>
	<stop  offset="0.5761" style="stop-color:#BAC5CA"/>
	<stop  offset="0.7074" style="stop-color:#A7B5BB"/>
	<stop  offset="0.8455" style="stop-color:#9DABB1"/>
	<stop  offset="1" style="stop-color:#99A8AE"/>
</linearGradient>
<polygon class="st17" points="27.32,27.01 31.35,22.97 29.92,21.53 25.88,25.57 "/>
<linearGradient id="SVGID_18_" gradientUnits="userSpaceOnUse" x1="29.453" y1="94.7192" x2="29.453" y2="89.2834" gradientTransform="matrix(0.7071 -0.7071 0.7071 0.7071 -28.0639 -38.0449)">
	<stop  offset="0" style="stop-color:#99A8AE"/>
	<stop  offset="0.1545" style="stop-color:#9DABB1"/>
	<stop  offset="0.2926" style="stop-color:#A7B5BB"/>
	<stop  offset="0.4239" style="stop-color:#BAC5CA"/>
	<stop  offset="0.5333" style="stop-color:#CFD8DD"/>
</linearGradient>
<path class="st18" d="M56.43,3.72c-0.33,0.33-0.16,1.84-0.16,1.84l-2.5,2.49l2.17,2.17l2.5-2.49c0,0,1.51,0.16,1.84-0.17
	c0.85-0.85,2.43-2.43,2.43-2.43L58.86,1.3C58.86,1.3,57.59,2.57,56.43,3.72z"/>
<linearGradient id="SVGID_19_" gradientUnits="userSpaceOnUse" x1="297.3973" y1="-21.8064" x2="297.3973" y2="-28.9193" gradientTransform="matrix(0.7071 -0.7071 0.7071 0.7071 -131.5749 231.4434)">
	<stop  offset="0" style="stop-color:#99A8AE"/>
	<stop  offset="0.1082" style="stop-color:#9EADB3"/>
	<stop  offset="0.2438" style="stop-color:#AEBBC0"/>
	<stop  offset="0.3934" style="stop-color:#C7D1D6"/>
	<stop  offset="0.4317" style="stop-color:#CFD8DD"/>
</linearGradient>
<path class="st19" d="M63.75,5.28l-0.92,0.92c-0.33,0.33-0.85,0.33-1.18,0L57.8,2.35c-0.33-0.33-0.33-0.86,0-1.19l0.93-0.92
	c0.33-0.33,0.85-0.33,1.18,0l3.84,3.85C64.08,4.42,64.08,4.95,63.75,5.28z"/>
<path class="st0" d="M57.52,8.81l-2.33-2.33c-0.2-0.2,0.28-0.67,0.48-0.48L58,8.33C58.19,8.53,57.72,9.01,57.52,8.81z"/>
<linearGradient id="SVGID_20_" gradientUnits="userSpaceOnUse" x1="261.1094" y1="-5.729" x2="261.1094" y2="-45.0141" gradientTransform="matrix(0.7071 -0.7071 0.7071 0.7071 -131.5749 231.4434)">
	<stop  offset="0.369" style="stop-color:#D98416"/>
	<stop  offset="0.4097" style="stop-color:#DE941F"/>
	<stop  offset="0.4922" style="stop-color:#E7AF2C"/>
	<stop  offset="0.5827" style="stop-color:#EEC337"/>
	<stop  offset="0.6843" style="stop-color:#F3D23F"/>
	<stop  offset="0.8058" style="stop-color:#F6DA44"/>
	<stop  offset="1" style="stop-color:#F7DD45"/>
</linearGradient>
<path class="st20" d="M0.71,35.5c0,0,15.61,5.37,22.17,1.37c3.66-2.22,31.23-30.05,31.23-30.05l3.05,3.06
	c0,0-27.82,27.58-30.04,31.24c-4,6.56,1.36,22.17,1.36,22.17L0.71,35.5z"/>
<path class="st21" d="M28.3,63.88c3.05-3.05-25.13-31.25-28.18-28.2C-2.09,37.89,26.09,66.09,28.3,63.88z"/>
<linearGradient id="SVGID_21_" gradientUnits="userSpaceOnUse" x1="229.2014" y1="-25.3712" x2="234.3969" y2="-25.3712" gradientTransform="matrix(0.7071 -0.7071 0.7071 0.7071 -131.5749 231.4434)">
	<stop  offset="0" style="stop-color:#E69800"/>
	<stop  offset="0.1454" style="stop-color:#E19500"/>
	<stop  offset="0.3075" style="stop-color:#D48C00"/>
	<stop  offset="0.4775" style="stop-color:#BE7D00"/>
	<stop  offset="0.6531" style="stop-color:#9E6800"/>
	<stop  offset="0.8312" style="stop-color:#774E00"/>
	<stop  offset="1" style="stop-color:#4A3000"/>
</linearGradient>
<path class="st22" d="M28.02,63.83c2.84-2.84-25-30.71-27.84-27.87C-1.88,38.02,25.96,65.89,28.02,63.83z"/>
<linearGradient id="SVGID_22_" gradientUnits="userSpaceOnUse" x1="280.7377" y1="-9.383" x2="275.2343" y2="-16.6031" gradientTransform="matrix(0.7071 -0.7071 0.7071 0.7071 -131.5749 231.4434)">
	<stop  offset="0" style="stop-color:#D98416"/>
	<stop  offset="0.275" style="stop-color:#E09821"/>
	<stop  offset="0.8373" style="stop-color:#F1CD3C"/>
	<stop  offset="1" style="stop-color:#F7DD45"/>
</linearGradient>
<path class="st23" d="M53.98,21.86c0,0-2.33,2.34-3.4,3.41c-1.25,1.25,0.62,3.13,1.88,1.88c1.51-1.51,3.4-3.41,3.4-3.41
	c1.54-1.55,3.18,0.1,1.64,1.65c0,0-2.14,2.15-3.4,3.41c-1.25,1.25,0.62,3.13,1.88,1.88c1.29-1.29,3.4-3.41,3.4-3.41
	C63.47,23.17,58.08,17.76,53.98,21.86z"/>
</svg>
