<?xml version="1.0" encoding="utf-8"?>
<!-- Generator: Adobe Illustrator 24.1.2, SVG Export Plug-In . SVG Version: 6.00 Build 0)  -->
<svg version="1.1" id="Layer_1" xmlns="http://www.w3.org/2000/svg" xmlns:xlink="http://www.w3.org/1999/xlink" x="0px" y="0px"
	 width="64px" height="64px" viewBox="0 0 64 64" style="enable-background:new 0 0 64 64;" xml:space="preserve">
<style type="text/css">
	.st0{fill:url(#SVGID_1_);}
	.st1{fill:url(#SVGID_2_);}
	.st2{fill:url(#SVGID_3_);}
	.st3{fill:url(#SVGID_4_);}
	.st4{fill:#1A1626;}
	.st5{fill:#302C3B;}
	.st6{fill:#E81C27;}
</style>
<radialGradient id="SVGID_1_" cx="30.7922" cy="-202.514" r="33.0064" gradientTransform="matrix(0.6999 -0.7071 0.5021 0.5073 106.2252 154.1861)" gradientUnits="userSpaceOnUse">
	<stop  offset="0" style="stop-color:#ECF1F5"/>
	<stop  offset="0.4062" style="stop-color:#E9EFF3"/>
	<stop  offset="0.6887" style="stop-color:#E0E7EB"/>
	<stop  offset="0.9329" style="stop-color:#D1D9DE"/>
	<stop  offset="1" style="stop-color:#CBD4D9"/>
</radialGradient>
<path class="st0" d="M57.23,13.59c-0.34,0.13-50.06,0.15-50.46,0C6.22,13.39,5,15.41,4.03,18.1s-1.31,5.04-0.77,5.24
	c0.26,0.1,23.61,37.35,23.61,37.6c0,0.59,2.3,1.06,5.13,1.07c2.84,0,5.13-0.48,5.14-1.07c0-0.3,23.27-37.47,23.6-37.6
	c0.55-0.2,0.2-2.55-0.77-5.24C59.01,15.41,57.77,13.39,57.23,13.59z"/>
<linearGradient id="SVGID_2_" gradientUnits="userSpaceOnUse" x1="43.807" y1="-163.1445" x2="36.8507" y2="-190.97" gradientTransform="matrix(0.7071 -0.7071 0.7071 0.7071 143.9505 194.6551)">
	<stop  offset="0" style="stop-color:#BAC3C6"/>
	<stop  offset="0.3428" style="stop-color:#BEC7CA"/>
	<stop  offset="0.6719" style="stop-color:#C9D2D5"/>
	<stop  offset="0.9953" style="stop-color:#DDE4E8"/>
	<stop  offset="1" style="stop-color:#DDE4E8"/>
</linearGradient>
<path class="st1" d="M56.4,20.75L37.74,30.86c-2.54,1.37-4.59,4.71-4.59,7.44l0,20.13c0,2.74,2.06,3.84,4.6,2.47l18.66-10.11
	c2.54-1.37,4.59-4.71,4.59-7.44l0-20.13C61,20.48,58.94,19.38,56.4,20.75z"/>
<linearGradient id="SVGID_3_" gradientUnits="userSpaceOnUse" x1="5.0073" y1="-198.5977" x2="32.9023" y2="-198.5977" gradientTransform="matrix(0.7071 -0.7071 0.7071 0.7071 143.9505 194.6551)">
	<stop  offset="0" style="stop-color:#DBE3E6"/>
	<stop  offset="0.882" style="stop-color:#F2F8FC"/>
	<stop  offset="1" style="stop-color:#F6FBFF"/>
</linearGradient>
<path class="st2" d="M3,43.34c0,2.74,2.06,6.07,4.59,7.44L26.26,60.9c2.54,1.38,4.59,0.27,4.59-2.47V38.3
	c0-2.74-2.06-6.07-4.59-7.44L7.59,20.75C5.06,19.38,3,20.48,3,23.22V43.34z"/>
<linearGradient id="SVGID_4_" gradientUnits="userSpaceOnUse" x1="37.9463" y1="-196.2709" x2="57.0668" y2="-215.3913" gradientTransform="matrix(0.7071 -0.7071 0.7071 0.7071 143.9505 194.6551)">
	<stop  offset="0" style="stop-color:#F6FBFF"/>
	<stop  offset="0.118" style="stop-color:#F2F8FC"/>
	<stop  offset="1" style="stop-color:#DBE3E6"/>
</linearGradient>
<path class="st3" d="M36.87,3.02c-2.69-1.36-7.05-1.36-9.73,0L7.36,13.05c-2.69,1.36-2.69,3.57,0,4.94l19.77,10.03
	c2.69,1.37,7.04,1.37,9.73,0l19.77-10.03c2.69-1.36,2.69-3.57,0-4.94L36.87,3.02z"/>
<path class="st4" d="M41.82,48.04c0.81-0.39,1.54-0.36,2.01,0.17c0.94,1.07,0.48,3.75-1.03,5.99c-0.76,1.12-1.63,1.92-2.43,2.31
	c-0.8,0.39-1.54,0.36-2-0.17c-0.94-1.07-0.48-3.75,1.03-6C40.15,49.22,41.02,48.42,41.82,48.04z"/>
<path class="st4" d="M48.82,36.87c0.8-0.39,1.53-0.36,2.01,0.17c0.94,1.07,0.48,3.75-1.03,5.99c-0.76,1.12-1.63,1.92-2.43,2.3
	c-0.8,0.38-1.53,0.36-2.01-0.18c-0.94-1.07-0.48-3.75,1.03-5.99C47.14,38.05,48.02,37.25,48.82,36.87z"/>
<path class="st4" d="M55.71,26.34c0.8-0.38,1.53-0.36,2.01,0.17c0.94,1.07,0.48,3.75-1.03,5.99c-0.76,1.12-1.63,1.92-2.43,2.31
	c-0.8,0.39-1.53,0.36-2-0.18c-0.94-1.07-0.48-3.75,1.03-5.99C54.03,27.52,54.91,26.72,55.71,26.34z"/>
<path class="st5" d="M18.44,47.04c0.11-0.96,0.57-1.62,1.32-1.75c1.5-0.25,3.66,1.73,4.81,4.41c0.58,1.34,0.79,2.61,0.68,3.58
	c-0.12,0.96-0.56,1.62-1.32,1.75c-1.5,0.25-3.65-1.72-4.81-4.41C18.54,49.26,18.32,48,18.44,47.04z"/>
<path class="st5" d="M6.3,27.46c0.12-0.96,0.56-1.62,1.32-1.75c1.5-0.25,3.66,1.72,4.81,4.41c0.58,1.34,0.79,2.61,0.68,3.57
	c-0.12,0.96-0.57,1.62-1.32,1.75c-1.51,0.25-3.66-1.72-4.81-4.41C6.4,29.69,6.18,28.42,6.3,27.46z"/>
<ellipse class="st6" cx="32" cy="14.61" rx="6.35" ry="3.32"/>
</svg>
