<?xml version="1.0" encoding="utf-8"?>
<!-- Generator: Adobe Illustrator 24.1.2, SVG Export Plug-In . SVG Version: 6.00 Build 0)  -->
<svg version="1.1" id="Layer_1" xmlns="http://www.w3.org/2000/svg" xmlns:xlink="http://www.w3.org/1999/xlink" x="0px" y="0px"
	 width="64px" height="64px" viewBox="0 0 64 64" style="enable-background:new 0 0 64 64;" xml:space="preserve">
<style type="text/css">
	.st0{fill:url(#SVGID_1_);}
	.st1{fill:url(#SVGID_2_);}
	.st2{fill:url(#SVGID_3_);}
	.st3{fill:url(#SVGID_4_);}
	.st4{fill:url(#SVGID_5_);}
	.st5{fill:url(#SVGID_6_);}
	.st6{fill:url(#SVGID_7_);}
	.st7{fill:url(#SVGID_8_);}
	.st8{fill:url(#SVGID_9_);}
	.st9{fill:url(#SVGID_10_);}
	.st10{fill:url(#SVGID_11_);}
	.st11{fill:url(#SVGID_12_);}
</style>
<linearGradient id="SVGID_1_" gradientUnits="userSpaceOnUse" x1="6.1699" y1="26.4307" x2="62" y2="26.4307">
	<stop  offset="0" style="stop-color:#1F1C26"/>
	<stop  offset="0.1492" style="stop-color:#2C2B36"/>
	<stop  offset="0.3276" style="stop-color:#373743"/>
	<stop  offset="0.5" style="stop-color:#3A3B47"/>
	<stop  offset="0.6724" style="stop-color:#373743"/>
	<stop  offset="0.8508" style="stop-color:#2C2B36"/>
	<stop  offset="1" style="stop-color:#1F1C26"/>
</linearGradient>
<path class="st0" d="M62,45.97c-4.65-1.47-9.3-1.83-13.96-1.65c-7.73-6.71-13.96,1.65-13.96,1.65c-4.65,0.73-9.3,1.46-13.96,1.65
	L6.17,36.2V6.9c4.65,1.46,9.3,1.83,13.96,1.65c0,0,7.85,8.12,13.96-1.65c4.65-0.73,9.3-1.65,13.96-1.65L62,16.66v9.77
	c-4.4,4.79,0,9.77,0,9.77V45.97z"/>
<linearGradient id="SVGID_2_" gradientUnits="userSpaceOnUse" x1="6.0045" y1="12.6026" x2="61.6672" y2="12.6026">
	<stop  offset="0" style="stop-color:#E7EDF2"/>
	<stop  offset="0.0574" style="stop-color:#EBF0F4"/>
	<stop  offset="0.2824" style="stop-color:#F8F9FA"/>
	<stop  offset="0.5" style="stop-color:#FCFCFC"/>
	<stop  offset="0.7176" style="stop-color:#F8F9FA"/>
	<stop  offset="0.9426" style="stop-color:#EBF0F4"/>
	<stop  offset="1" style="stop-color:#E7EDF2"/>
</linearGradient>
<path class="st1" d="M34.08,16.66c-4.65,0.73-9.3,1.46-13.96,1.65c0-3.25,0-6.51,0-9.77c4.65-0.18,9.3-0.91,13.96-1.65
	C34.08,10.15,34.08,13.41,34.08,16.66z"/>
<linearGradient id="SVGID_3_" gradientUnits="userSpaceOnUse" x1="6.0015" y1="10.9541" x2="61.6682" y2="10.9541">
	<stop  offset="0" style="stop-color:#E7EDF2"/>
	<stop  offset="0.0574" style="stop-color:#EBF0F4"/>
	<stop  offset="0.2824" style="stop-color:#F8F9FA"/>
	<stop  offset="0.5" style="stop-color:#FCFCFC"/>
	<stop  offset="0.7176" style="stop-color:#F8F9FA"/>
	<stop  offset="0.9426" style="stop-color:#EBF0F4"/>
	<stop  offset="1" style="stop-color:#E7EDF2"/>
</linearGradient>
<path class="st2" d="M62,16.66c-4.65-1.46-9.3-1.83-13.96-1.65c0-3.26,0-6.52,0-9.77c4.83,0,9.3,0.18,13.96,1.65
	C62,10.15,62,13.41,62,16.66z"/>
<linearGradient id="SVGID_4_" gradientUnits="userSpaceOnUse" x1="6.0034" y1="22.3921" x2="61.6705" y2="22.3921">
	<stop  offset="0" style="stop-color:#E7EDF2"/>
	<stop  offset="0.0574" style="stop-color:#EBF0F4"/>
	<stop  offset="0.2824" style="stop-color:#F8F9FA"/>
	<stop  offset="0.5" style="stop-color:#FCFCFC"/>
	<stop  offset="0.7176" style="stop-color:#F8F9FA"/>
	<stop  offset="0.9426" style="stop-color:#EBF0F4"/>
	<stop  offset="1" style="stop-color:#E7EDF2"/>
</linearGradient>
<path class="st3" d="M20.13,28.08c-4.65,0.18-9.3-0.18-13.96-1.65c0-3.25,0-6.51,0-9.77c4.65,1.46,9.3,1.83,13.96,1.65
	C20.13,21.57,20.13,24.82,20.13,28.08z"/>
<linearGradient id="SVGID_5_" gradientUnits="userSpaceOnUse" x1="6.0045" y1="20.7222" x2="61.6672" y2="20.7222">
	<stop  offset="0" style="stop-color:#E7EDF2"/>
	<stop  offset="0.0574" style="stop-color:#EBF0F4"/>
	<stop  offset="0.2824" style="stop-color:#F8F9FA"/>
	<stop  offset="0.5" style="stop-color:#FCFCFC"/>
	<stop  offset="0.7176" style="stop-color:#F8F9FA"/>
	<stop  offset="0.9426" style="stop-color:#EBF0F4"/>
	<stop  offset="1" style="stop-color:#E7EDF2"/>
</linearGradient>
<path class="st4" d="M48.04,24.78c-4.65,0.18-9.3,0.92-13.96,1.65c0-3.25,0-6.51,0-9.77c4.65-0.73,9.3-1.46,13.96-1.65
	C48.04,18.27,48.04,21.53,48.04,24.78z"/>
<linearGradient id="SVGID_6_" gradientUnits="userSpaceOnUse" x1="6.0045" y1="32.1387" x2="61.6672" y2="32.1387">
	<stop  offset="0" style="stop-color:#E7EDF2"/>
	<stop  offset="0.0574" style="stop-color:#EBF0F4"/>
	<stop  offset="0.2824" style="stop-color:#F8F9FA"/>
	<stop  offset="0.5" style="stop-color:#FCFCFC"/>
	<stop  offset="0.7176" style="stop-color:#F8F9FA"/>
	<stop  offset="0.9426" style="stop-color:#EBF0F4"/>
	<stop  offset="1" style="stop-color:#E7EDF2"/>
</linearGradient>
<path class="st5" d="M34.08,36.2c-4.65,0.73-9.3,1.46-13.96,1.65c0-3.26,0-6.51,0-9.77c4.65-0.18,9.3-0.92,13.96-1.65
	C34.08,29.69,34.08,32.94,34.08,36.2z"/>
<linearGradient id="SVGID_7_" gradientUnits="userSpaceOnUse" x1="6.0015" y1="30.4693" x2="61.6682" y2="30.4693">
	<stop  offset="0" style="stop-color:#E7EDF2"/>
	<stop  offset="0.0574" style="stop-color:#EBF0F4"/>
	<stop  offset="0.2824" style="stop-color:#F8F9FA"/>
	<stop  offset="0.5" style="stop-color:#FCFCFC"/>
	<stop  offset="0.7176" style="stop-color:#F8F9FA"/>
	<stop  offset="0.9426" style="stop-color:#EBF0F4"/>
	<stop  offset="1" style="stop-color:#E7EDF2"/>
</linearGradient>
<path class="st6" d="M62,36.2c-4.65-1.47-9.3-1.83-13.96-1.65c0-3.26,0-6.51,0-9.77c4.65-0.18,9.3,0.18,13.96,1.65
	C62,29.69,62,32.94,62,36.2z"/>
<linearGradient id="SVGID_8_" gradientUnits="userSpaceOnUse" x1="6.0034" y1="41.929" x2="61.6705" y2="41.929">
	<stop  offset="0" style="stop-color:#E7EDF2"/>
	<stop  offset="0.0574" style="stop-color:#EBF0F4"/>
	<stop  offset="0.2824" style="stop-color:#F8F9FA"/>
	<stop  offset="0.5" style="stop-color:#FCFCFC"/>
	<stop  offset="0.7176" style="stop-color:#F8F9FA"/>
	<stop  offset="0.9426" style="stop-color:#EBF0F4"/>
	<stop  offset="1" style="stop-color:#E7EDF2"/>
</linearGradient>
<path class="st7" d="M20.13,47.62c-4.65,0.18-9.3-0.18-13.96-1.65c0-3.25,0-6.51,0-9.77c4.65,1.46,9.3,1.83,13.96,1.65
	C20.13,41.1,20.13,44.36,20.13,47.62z"/>
<linearGradient id="SVGID_9_" gradientUnits="userSpaceOnUse" x1="6.0045" y1="40.2588" x2="61.6672" y2="40.2588">
	<stop  offset="0" style="stop-color:#E7EDF2"/>
	<stop  offset="0.0574" style="stop-color:#EBF0F4"/>
	<stop  offset="0.2824" style="stop-color:#F8F9FA"/>
	<stop  offset="0.5" style="stop-color:#FCFCFC"/>
	<stop  offset="0.7176" style="stop-color:#F8F9FA"/>
	<stop  offset="0.9426" style="stop-color:#EBF0F4"/>
	<stop  offset="1" style="stop-color:#E7EDF2"/>
</linearGradient>
<path class="st8" d="M48.04,44.32c-4.65,0.18-9.3,0.92-13.96,1.65c0-3.25,0-6.51,0-9.77c4.65-0.73,9.3-1.47,13.96-1.65
	C48.04,37.81,48.04,41.06,48.04,44.32z"/>
<linearGradient id="SVGID_10_" gradientUnits="userSpaceOnUse" x1="3.5" y1="35.3494" x2="6.5" y2="35.3494">
	<stop  offset="0" style="stop-color:#9CA4A6"/>
	<stop  offset="0.0763" style="stop-color:#B6BEC0"/>
	<stop  offset="0.1689" style="stop-color:#CED6D8"/>
	<stop  offset="0.2669" style="stop-color:#DFE7E9"/>
	<stop  offset="0.3726" style="stop-color:#EAF1F4"/>
	<stop  offset="0.5" style="stop-color:#EDF4F7"/>
	<stop  offset="1" style="stop-color:#9CA4A6"/>
</linearGradient>
<path class="st9" d="M3.5,7.05c0,0.86,0,52.13,0,56.21c0,0.99,3,0.99,3,0c0-3.84,0-55.33,0-56.21C6.5,6.58,3.5,6.58,3.5,7.05z"/>
<radialGradient id="SVGID_11_" cx="4.25" cy="2" r="3.8459" gradientUnits="userSpaceOnUse">
	<stop  offset="0" style="stop-color:#EDF4F7"/>
	<stop  offset="0.1913" style="stop-color:#E7EEF1"/>
	<stop  offset="0.4574" style="stop-color:#D5DCDF"/>
	<stop  offset="0.766" style="stop-color:#B7BFC1"/>
	<stop  offset="1" style="stop-color:#9CA4A6"/>
</radialGradient>
<circle class="st10" cx="5" cy="3" r="3"/>
<linearGradient id="SVGID_12_" gradientUnits="userSpaceOnUse" x1="3.958" y1="6.5172" x2="6.042" y2="6.5172">
	<stop  offset="0" style="stop-color:#9CA4A6"/>
	<stop  offset="0.0218" style="stop-color:#A2AAAC"/>
	<stop  offset="0.1264" style="stop-color:#BAC2C4"/>
	<stop  offset="0.2369" style="stop-color:#CBD3D5"/>
	<stop  offset="0.3562" style="stop-color:#D5DDE0"/>
	<stop  offset="0.5" style="stop-color:#D8E0E3"/>
	<stop  offset="1" style="stop-color:#9CA4A6"/>
</linearGradient>
<path class="st11" d="M3.96,5.82v1.16c0,0.31,2.08,0.31,2.08,0V5.82H3.96z"/>
</svg>
