<?xml version="1.0" encoding="utf-8"?>
<!-- Generator: Adobe Illustrator 24.1.2, SVG Export Plug-In . SVG Version: 6.00 Build 0)  -->
<svg version="1.1" id="Layer_1" xmlns="http://www.w3.org/2000/svg" xmlns:xlink="http://www.w3.org/1999/xlink" x="0px" y="0px"
	 width="64px" height="64px" viewBox="0 0 64 64" style="enable-background:new 0 0 64 64;" xml:space="preserve">
<style type="text/css">
	.st0{fill:#DBB181;}
	.st1{fill:url(#SVGID_1_);}
	.st2{opacity:0.05;fill:#3D2718;}
	.st3{fill:url(#SVGID_2_);}
	.st4{fill:url(#SVGID_3_);}
	.st5{fill:url(#SVGID_4_);}
	.st6{fill:url(#SVGID_5_);}
	.st7{fill:url(#SVGID_6_);}
	.st8{fill:#302C3B;}
	.st9{fill:url(#SVGID_7_);}
	.st10{fill:url(#SVGID_8_);}
</style>
<path class="st0" d="M7.94,47.54c-1.14-1-3.1-0.48-4.05,0.64c-2.86,3.33-2.41,8.46,0.99,11.45c3.35,2.94,7.57,3.22,10.26,0.42
	C15.14,60.05,1.47,60.31,7.94,47.54z"/>
<linearGradient id="SVGID_1_" gradientUnits="userSpaceOnUse" x1="52.2092" y1="84.3042" x2="68.2075" y2="84.3042" gradientTransform="matrix(0.7555 0.6551 -0.6551 0.7555 32.6475 -64.2015)">
	<stop  offset="0.6675" style="stop-color:#FFE1BD"/>
	<stop  offset="1" style="stop-color:#DBB181"/>
</linearGradient>
<path class="st1" d="M43.48,21.1L18.15,48.73l-5.67,6.31c-0.95,1.11-2.65,1.21-3.79,0.21c-1.14-1-1.29-2.71-0.33-3.82
	c0.95-1.11,0.8-2.82-0.34-3.81c-1.14-1-2.61-0.73-3.57,0.38c-2.86,3.33-2.63,8.29,0.77,11.28c3.35,2.94,7.57,3.22,10.26,0.42
	l9.19-10.84l20.91-24.94L43.48,21.1z"/>
<path class="st2" d="M7.66,47.33c-0.23-0.14-0.48-0.21-0.73-0.28c-0.99,1.94-2.72,4.56-4.85,7.33c0.02,0.15,0.03,0.3,0.06,0.44
	C3.01,53.3,5.03,50.59,7.66,47.33z"/>
<path class="st2" d="M7.85,52.36c-2.25,2.19-4.13,3.73-5.13,4.33c0.2,0.45,0.44,0.89,0.72,1.31c1.16-1.34,2.79-3.02,4.29-4.72
	C7.73,52.97,7.74,52.65,7.85,52.36z"/>
<path class="st2" d="M24.32,49.2l20.91-24.94l-1.18-1.57c-2.9,3.58-6.4,7.71-10.26,12.07c-11,12.44-15.67,16.31-16.53,15.55
	c-0.11-0.09-0.07-0.34,0.09-0.73l-4.88,5.46c-0.38,0.45-0.92,0.74-1.46,0.85c-1.37,1.45-3.05,3.21-4.63,4.85
	c1.1,0.66,2.24,1.07,3.37,1.2c0.47-0.55,0.94-1.09,1.44-1.65c6.73-7.61,10.06-10.68,10.48-10.31c0.42,0.37-2.22,4.04-8.95,11.64
	c0.88-0.32,1.7-0.84,2.41-1.58L24.32,49.2z"/>
<radialGradient id="SVGID_2_" cx="20.0766" cy="67.847" r="9.2568" gradientTransform="matrix(0.8889 0 0 0.8889 18.5012 -6.9625)" gradientUnits="userSpaceOnUse">
	<stop  offset="0" style="stop-color:#FAD103"/>
	<stop  offset="0.2112" style="stop-color:#FAC603"/>
	<stop  offset="0.5833" style="stop-color:#FAA803"/>
	<stop  offset="1" style="stop-color:#FA8003"/>
</radialGradient>
<path class="st3" d="M38,48c-3.87,0-7,3.13-7,7c0,3.87,3.13,7,7,7c3.87,0,7-3.13,7-7C45,51.13,41.87,48,38,48z"/>
<linearGradient id="SVGID_3_" gradientUnits="userSpaceOnUse" x1="30.8622" y1="42.3319" x2="27.1123" y2="38.8945">
	<stop  offset="0" style="stop-color:#3AB0A2"/>
	<stop  offset="0.625" style="stop-color:#14CAAE"/>
	<stop  offset="1" style="stop-color:#02D6B4"/>
</linearGradient>
<path class="st4" d="M42.16,21.56L19.95,46.6c-0.25,7.36-4.81,13.45-4.81,13.45c1.65-1.52,9.19-10.84,9.19-10.84s0.35-3.85,0.8-5.03
	c1.51-4,18.33-22.43,18.33-22.43L42.16,21.56z"/>
<linearGradient id="SVGID_4_" gradientUnits="userSpaceOnUse" x1="19.3852" y1="55.0658" x2="15.9478" y2="51.8158">
	<stop  offset="0" style="stop-color:#008273"/>
	<stop  offset="0.0835" style="stop-color:#008978"/>
	<stop  offset="0.694" style="stop-color:#01B79B"/>
	<stop  offset="1" style="stop-color:#02C9A9"/>
</linearGradient>
<path class="st5" d="M19.95,46.6c0,0-1.21,1.38-2.15,2.49c1.44,4.08-2.66,10.96-2.66,10.96S21.85,51.49,19.95,46.6z"/>
<linearGradient id="SVGID_5_" gradientUnits="userSpaceOnUse" x1="63.3708" y1="46.7853" x2="67.473" y2="46.7853" gradientTransform="matrix(0.7555 0.6551 -0.6551 0.7555 32.6475 -64.2015)">
	<stop  offset="0" style="stop-color:#5B666E"/>
	<stop  offset="0.2305" style="stop-color:#515862"/>
	<stop  offset="1" style="stop-color:#302C3B"/>
</linearGradient>
<path class="st6" d="M45.05,24.48c-2.27-0.86-2.89-2.93-2.89-2.93l16-18.12l2.54,2.21L45.05,24.48z"/>
<linearGradient id="SVGID_6_" gradientUnits="userSpaceOnUse" x1="65.2661" y1="35.0656" x2="65.2661" y2="32.6039" gradientTransform="matrix(0.7555 0.6551 -0.6551 0.7555 32.6475 -64.2015)">
	<stop  offset="0" style="stop-color:#302C3B"/>
	<stop  offset="0.7695" style="stop-color:#515862"/>
	<stop  offset="1" style="stop-color:#5B666E"/>
</linearGradient>
<path class="st7" d="M60.49,6.01c-0.39,0.17-2.76-1.98-2.65-2.31c0.15-0.44,0.62-1.61,1.14-1.7c0.29-0.05,3.05,2.37,3.02,2.63
	C61.94,5.16,60.89,5.84,60.49,6.01z"/>
<path class="st8" d="M45.89,23.4l-0.65,0.76c-2.12-1.74-1.88-3.94-1.88-3.94l0.65-0.76C44.01,19.46,44.15,22.1,45.89,23.4z"/>
<path class="st8" d="M48.16,20.73l-0.65,0.78c-2.17-1.79-1.94-3.82-1.94-3.82l0.77-0.87C46.34,16.82,46.37,19.39,48.16,20.73z"/>
<path class="st8" d="M50.36,17.96l-0.65,0.76c-2.12-1.74-1.84-3.62-1.84-3.62l0.8-0.91C48.67,14.19,48.62,16.66,50.36,17.96z"/>
<path class="st8" d="M52.66,15.3L52,16.05c-2.11-1.74-1.8-3.61-1.8-3.61L51,11.56C51,11.56,50.92,13.99,52.66,15.3z"/>
<path class="st8" d="M54.92,12.61l-0.63,0.76c-2.11-1.74-1.8-3.5-1.8-3.5l0.7-0.79C53.18,9.09,53.18,11.31,54.92,12.61z"/>
<path class="st8" d="M57.14,9.93l-0.62,0.74c-2.11-1.74-1.57-3.6-1.57-3.6l0.7-0.79C55.65,6.28,55.4,8.63,57.14,9.93z"/>
<path class="st8" d="M59.41,7.2l-0.63,0.77c-2.12-1.74-1.47-3.55-1.47-3.55l0.68-0.76C57.98,3.65,57.67,5.9,59.41,7.2z"/>
<linearGradient id="SVGID_7_" gradientUnits="userSpaceOnUse" x1="700.2816" y1="105.3275" x2="720.3279" y2="105.3275" gradientTransform="matrix(0.1484 0.5683 -0.9676 0.2527 3.0251 -376.5602)">
	<stop  offset="0" style="stop-color:#FFFFFF;stop-opacity:0.5"/>
	<stop  offset="1" style="stop-color:#FFFFFF;stop-opacity:0"/>
</linearGradient>
<path class="st9" d="M9.96,58.91c-7.73-0.8-6.88-7.58-4.97-10.15c1.95-2.63,4.13-0.12,2.69,1.87C3.91,55.83,9.12,55.34,9.96,58.91z"
	/>
<linearGradient id="SVGID_8_" gradientUnits="userSpaceOnUse" x1="-77.5656" y1="340.7901" x2="-61.1202" y2="340.7901" gradientTransform="matrix(-0.1522 -0.5673 0.9659 -0.2591 -321.7613 100.4627)">
	<stop  offset="0" style="stop-color:#FFFFFF;stop-opacity:0.3"/>
	<stop  offset="1" style="stop-color:#FFFFFF;stop-opacity:0"/>
</linearGradient>
<path class="st10" d="M23.66,44.96c-4.06,5.03-9.85,12.21-11.22,13c-0.64,0.37,0.23-2.15,0.67-2.63
	C14.85,53.43,20.28,46.37,23.66,44.96z"/>
</svg>
