<?xml version="1.0" encoding="utf-8"?>
<!-- Generator: Adobe Illustrator 15.0.0, SVG Export Plug-In . SVG Version: 6.00 Build 0)  -->
<!DOCTYPE svg PUBLIC "-//W3C//DTD SVG 1.1//EN" "http://www.w3.org/Graphics/SVG/1.1/DTD/svg11.dtd" [
	<!ENTITY ns_flows "http://ns.adobe.com/Flows/1.0/">
	<!ENTITY ns_extend "http://ns.adobe.com/Extensibility/1.0/">
	<!ENTITY ns_ai "http://ns.adobe.com/AdobeIllustrator/10.0/">
	<!ENTITY ns_graphs "http://ns.adobe.com/Graphs/1.0/">
]>
<svg version="1.1" id="Layer_1" xmlns:x="&ns_extend;" xmlns:i="&ns_ai;" xmlns:graph="&ns_graphs;"
	 xmlns="http://www.w3.org/2000/svg" xmlns:xlink="http://www.w3.org/1999/xlink" xmlns:a="http://ns.adobe.com/AdobeSVGViewerExtensions/3.0/"
	 x="0px" y="0px" width="64px" height="64px" viewBox="0 0 64 64" enable-background="new 0 0 64 64" xml:space="preserve">
<linearGradient id="SVGID_1_" gradientUnits="userSpaceOnUse" x1="32.0005" y1="56.7686" x2="32.0005" y2="39.1162">
	<stop  offset="0" style="stop-color:#009AF7"/>
	<stop  offset="0.1209" style="stop-color:#0DA3F4"/>
	<stop  offset="0.4955" style="stop-color:#30BAEC"/>
	<stop  offset="0.8019" style="stop-color:#46C9E8"/>
	<stop  offset="1" style="stop-color:#4ECEE6"/>
	<a:midPointStop  offset="0" style="stop-color:#009AF7"/>
	<a:midPointStop  offset="0.3879" style="stop-color:#009AF7"/>
	<a:midPointStop  offset="1" style="stop-color:#4ECEE6"/>
</linearGradient>
<path fill="url(#SVGID_1_)" d="M62,43.46c0-5.791-60-5.793-60,0c0,1.406,2.16,1.525,5.398,1.867
	c-2.258,0.328-3.689,0.77-3.689,1.324c0,0.904,3.758,1.506,8.781,1.814c-2.984,0.34-4.957,0.836-4.957,1.488
	c0,1.008,4.676,1.645,10.576,1.908c-2.246,0.287-3.697,0.689-3.697,1.205c0,0.928,4.664,1.484,10.262,1.67
	c-2.08,0.186-3.518,0.486-3.518,0.9c0,1.4,16.332,1.5,18.672,0.301c5.508-0.072,10.602-0.549,10.602-1.43
	c0-0.539-1.898-0.926-4.627-1.162c4.979-0.227,8.916-0.766,8.916-1.617c0-0.357-0.693-0.658-1.857-0.904
	c3.295-0.342,5.506-0.857,5.506-1.551c0-0.615-1.748-1.092-4.445-1.43c4.232-0.33,7.244-0.898,7.244-1.707
	c0-0.438-0.881-0.803-2.354-1.1C60.785,44.718,62,44.624,62,43.46z"/>
<path fill="#129FDB" d="M45.66,57.981c0,1.299-16.338,1.299-16.338,0S45.66,56.683,45.66,57.981z"/>
<path fill="#129FDB" d="M39.193,60.104c0,1.135-14.307,1.135-14.307,0C24.887,58.966,39.193,58.966,39.193,60.104z"/>
<path fill="#129FDB" d="M39.543,61.392c0,0.813-10.221,0.813-10.221,0S39.543,60.579,39.543,61.392z"/>
<radialGradient id="SVGID_2_" cx="75.5234" cy="50.7881" r="27.0813" gradientTransform="matrix(1.1461 0 0 0.319 -56.5606 20.293)" gradientUnits="userSpaceOnUse">
	<stop  offset="0" style="stop-color:#FDCA47"/>
	<stop  offset="0.3227" style="stop-color:#FBC745"/>
	<stop  offset="0.5551" style="stop-color:#F5BE40"/>
	<stop  offset="0.7592" style="stop-color:#ECAE37"/>
	<stop  offset="0.9458" style="stop-color:#DE982A"/>
	<stop  offset="1" style="stop-color:#D99025"/>
	<a:midPointStop  offset="0" style="stop-color:#FDCA47"/>
	<a:midPointStop  offset="0.7697" style="stop-color:#FDCA47"/>
	<a:midPointStop  offset="1" style="stop-color:#D99025"/>
</radialGradient>
<path fill="url(#SVGID_2_)" d="M32.133,34.208c-10.715,0-20.563,2.057-25.059,7c-1.176,1.293,6.041,2.576,11.186,2.576
	c4.537,0,7.594,2.457,13.873,2.457c6.285,0,11.316-2.457,15.855-2.457c5.91,0,9.75-1.422,8.936-2.576
	C53.436,36.265,42.539,34.208,32.133,34.208z"/>
<radialGradient id="SVGID_3_" cx="201.0791" cy="87.2949" r="2.8912" gradientTransform="matrix(0.9053 0.4248 -0.353 0.7524 -126.8484 -113.221)" gradientUnits="userSpaceOnUse">
	<stop  offset="0.1455" style="stop-color:#8C6041"/>
	<stop  offset="0.4059" style="stop-color:#885D3F"/>
	<stop  offset="0.6489" style="stop-color:#7D543A"/>
	<stop  offset="0.8842" style="stop-color:#6A4632"/>
	<stop  offset="1" style="stop-color:#5E3C2C"/>
	<a:midPointStop  offset="0.1455" style="stop-color:#8C6041"/>
	<a:midPointStop  offset="0.7212" style="stop-color:#8C6041"/>
	<a:midPointStop  offset="1" style="stop-color:#5E3C2C"/>
</radialGradient>
<path fill="url(#SVGID_3_)" d="M26.305,40.071c-1.049,2.236-5.123,0.324-4.074-1.912C23.279,35.925,27.354,37.835,26.305,40.071z"/>
<path fill="#92C932" d="M32.683,2.064c-0.16,0.571-0.684,2.258-0.684,2.258s0.17-1.584,0.25-2.145
	c-0.77,0.193-1.906,0.957-2.816,1.91c-0.064,0.731-0.104,1.464-0.115,2.193c-0.053-0.645-0.086-1.294-0.104-1.947
	c-0.768,0.902-1.443,2.059-1.953,3.329c0.049,0.785,0.186,3.018,0.186,3.018s-0.348-1.596-0.457-2.25
	c-0.063,0.164-0.436,1.417-0.527,1.829c0.129,0.901,0.289,1.788,0.475,2.656c-0.205-0.658-0.393-1.328-0.566-2.014
	c0,0.802,0.291,2.197,0.457,3.91c0.998-5.746,3.66-9.928,7.361-11.494c0.307-0.48,0.582-0.774,0.582-0.774
	c-0.008,0.012-0.16-0.2-0.365-0.298l-0.867,1.059l0.559-1.192C33.71,1.984,33.228,1.961,32.683,2.064z"/>
<path fill="#7AB51D" d="M28.716,12.959c0.102-0.218,0.209-0.44,0.318-0.665c-0.393-0.002-0.785,0.025-1.18,0.082
	c0.445-0.186,0.896-0.323,1.348-0.416c0.17-0.335,0.348-0.669,0.533-0.999c-0.275-0.046-1.168-0.079-1.168-0.079
	s1.166-0.448,1.479-0.467c0.43-0.752,0.615-1.012,1.102-1.677c-0.4-0.177-1.48-0.789-1.48-0.789s1.439,0.107,1.896,0.22
	c0.313-0.417,0.471-0.602,0.783-0.969c-0.275-0.168-1.258-0.854-1.258-0.854s1.279,0.338,1.594,0.468
	c0.322-0.376,1.564-1.762,2.059-2.476c0.082-0.121-1.084-0.543-1.084-0.543s1.35,0.008,1.365-0.053
	c0.016-0.065,0.01-0.666-0.012-0.741c-4.131,1.265-7.113,5.644-8.184,11.81C27.169,14.245,28.659,13.079,28.716,12.959z"/>
<path opacity="0.25" fill="#263D00" d="M29.323,11.38c-0.563,0.035-1.123,0.134-1.68,0.299c-0.016,0.056-0.033,0.111-0.049,0.165
	C28.165,11.616,28.743,11.462,29.323,11.38z"/>
<path opacity="0.25" fill="#263D00" d="M28.718,12.785c-0.545,0.115-1.088,0.297-1.623,0.548c-0.012,0.059-0.025,0.119-0.037,0.177
	C27.601,13.192,28.155,12.951,28.718,12.785z"/>
<path opacity="0.25" fill="#263D00" d="M29.954,9.958C29.378,9.9,28.8,9.903,28.22,9.969c-0.02,0.052-0.041,0.101-0.061,0.151
	C28.757,9.996,29.356,9.942,29.954,9.958z"/>
<path opacity="0.25" fill="#263D00" d="M30.667,8.855c-0.582-0.145-1.174-0.231-1.77-0.259c-0.021,0.046-0.047,0.092-0.07,0.138
	C29.444,8.707,30.06,8.748,30.667,8.855z"/>
<path opacity="0.25" fill="#263D00" d="M31.687,7.63c-0.59-0.31-1.193-0.568-1.809-0.77c-0.031,0.034-0.061,0.07-0.09,0.106
	C30.433,7.125,31.067,7.349,31.687,7.63z"/>
<path opacity="0.25" fill="#263D00" d="M33.06,6.281c-0.584-0.357-1.186-0.664-1.799-0.918c-0.031,0.031-0.064,0.063-0.098,0.096
	C31.81,5.672,32.442,5.947,33.06,6.281z"/>
<path opacity="0.25" fill="#263D00" d="M34.339,4.71c-0.531-0.243-1.072-0.443-1.621-0.599c-0.039,0.026-0.076,0.051-0.113,0.077"/>
<path opacity="0.25" fill="#263D00" d="M26.704,9.607c0.168,1.002,0.371,1.981,0.607,2.934c-0.016,0.058-0.031,0.113-0.045,0.17
	C27.04,11.701,26.851,10.666,26.704,9.607z"/>
<path opacity="0.25" fill="#263D00" d="M27.704,7.208c0.107,0.997,0.25,1.977,0.43,2.938c-0.02,0.052-0.039,0.104-0.059,0.156
	C27.911,9.291,27.786,8.255,27.704,7.208z"/>
<path opacity="0.25" fill="#263D00" d="M28.698,5.25c0.043,0.984,0.127,1.958,0.246,2.916c-0.023,0.046-0.047,0.095-0.068,0.142
	C28.745,7.031,28.708,6.054,28.698,5.25z"/>
<path opacity="0.25" fill="#263D00" d="M30.411,3.478c-0.078,0.929-0.113,1.86-0.107,2.79c-0.029,0.036-0.059,0.073-0.088,0.11
	C30.233,5.411,30.298,4.441,30.411,3.478z"/>
<path opacity="0.25" fill="#263D00" d="M31.737,2.469c-0.148,0.884-0.254,1.779-0.314,2.675c-0.033,0.031-0.068,0.061-0.1,0.092
	C31.413,4.306,31.55,3.381,31.737,2.469z"/>
<path opacity="0.25" fill="#263D00" d="M33.21,2.167c0,0-0.645,1.433-0.807,2.215c-0.037,0.028-0.074,0.054-0.111,0.081
	C32.487,3.65,33.21,2.167,33.21,2.167z"/>
<path fill="#70A61B" d="M35.011,3.002c-4.896,1.186-7.197,6.289-8.229,11.457c-0.07,0.438,0.07,0.528,0.137,0.178
	C27.899,10.037,29.685,5.033,35.011,3.002z"/>
<path fill="#92C932" d="M12.433,8.495c0.553,0.293,2.244,1.113,2.244,1.113s-1.188-1.063-1.631-1.42
	c1.082-0.553,2.971-1.001,4.697-1.096c0.529,0.503,1.029,1.031,1.496,1.582c-0.332-0.543-0.689-1.074-1.072-1.59
	c1.516-0.006,3.072,0.269,4.494,0.782c0.422,0.646,1.625,2.49,1.625,2.49s-0.547-1.544-0.813-2.147
	c0.176,0.069,1.416,0.692,1.783,0.926c0.395,0.812,0.742,1.64,1.045,2.476c-0.152-0.69-0.33-1.378-0.533-2.063
	c0.492,0.617,0.988,1.954,1.838,3.423c-4.787-3.512-10.691-4.305-16.285-2.14c-0.678-0.092-1.205-0.067-1.205-0.067
	c0.016,0.002,0.078-0.298,0.275-0.563l1.734,0.027l-1.432-0.409C11.099,9.369,11.688,8.911,12.433,8.495z"/>
<path fill="#7AB51D" d="M24.104,13.264c-0.264-0.074-0.535-0.146-0.809-0.22c0.488-0.36,0.998-0.696,1.525-1.011
	c-0.674,0.264-1.322,0.566-1.943,0.907c-0.418-0.104-0.846-0.199-1.281-0.286c0.316-0.283,1.41-1.122,1.41-1.122
	s-1.732,0.717-2.133,0.987c-1.002-0.188-1.395-0.218-2.412-0.288c0.391-0.5,1.365-1.955,1.365-1.955s-1.732,1.394-2.236,1.896
	c-0.646-0.035-0.957-0.034-1.574-0.032c0.238-0.381,1.047-1.803,1.047-1.803s-1.393,1.425-1.705,1.81
	c-0.635,0.005-3.041,0.07-4.098-0.03c-0.178-0.017,1.02-1.403,1.02-1.403s-1.682,1.234-1.738,1.201
	c-0.061-0.035-0.424-0.503-0.441-0.579c5.943-2.79,12.369-2.136,17.506,1.634C26.827,12.845,24.247,13.306,24.104,13.264z"/>
<path opacity="0.25" fill="#263D00" d="M22.372,12.603c0.721-0.484,1.484-0.918,2.283-1.299c0.055,0.028,0.107,0.056,0.162,0.083
	C23.962,11.73,23.146,12.138,22.372,12.603z"/>
<path opacity="0.25" fill="#263D00" d="M23.993,13.131c0.754-0.407,1.543-0.763,2.365-1.055c0.053,0.034,0.105,0.068,0.158,0.102
	C25.64,12.428,24.796,12.749,23.993,13.131z"/>
<path opacity="0.25" fill="#263D00" d="M20.706,12.083c0.684-0.568,1.408-1.094,2.176-1.57c0.057,0.021,0.111,0.041,0.168,0.061
	C22.226,11.022,21.442,11.528,20.706,12.083z"/>
<path opacity="0.25" fill="#263D00" d="M19.136,11.884c0.637-0.643,1.324-1.247,2.051-1.81c0.059,0.014,0.115,0.027,0.174,0.039
	C20.571,10.656,19.829,11.249,19.136,11.884z"/>
<path opacity="0.25" fill="#263D00" d="M17.106,11.868c0.547-0.772,1.143-1.521,1.787-2.237c0.059,0,0.119,0,0.18,0
	C18.362,10.339,17.708,11.088,17.106,11.868z"/>
<path opacity="0.25" fill="#263D00" d="M14.558,12.081c0.512-0.808,1.074-1.589,1.684-2.344c0.061-0.005,0.121-0.009,0.182-0.015
	C15.745,10.475,15.124,11.263,14.558,12.081z"/>
<path opacity="0.25" fill="#263D00" d="M11.991,12.038c0.516-0.671,1.068-1.317,1.66-1.936c0.063-0.016,0.125-0.028,0.188-0.044"/>
<path opacity="0.25" fill="#263D00" d="M24.554,8.855c0.406,0.924,0.756,1.862,1.047,2.811c0.055,0.028,0.107,0.058,0.162,0.088
	C25.423,10.772,25.021,9.803,24.554,8.855z"/>
<path opacity="0.25" fill="#263D00" d="M21.825,7.918c0.48,0.864,0.904,1.75,1.271,2.652c0.057,0.022,0.113,0.044,0.168,0.067
	C22.849,9.71,22.368,8.8,21.825,7.918z"/>
<path opacity="0.25" fill="#263D00" d="M19.378,7.316c0.551,0.798,1.047,1.623,1.486,2.469c0.059,0.014,0.117,0.03,0.174,0.046
	C20.413,8.731,19.858,7.946,19.378,7.316z"/>
<path opacity="0.25" fill="#263D00" d="M16.144,7.513c0.67,0.644,1.287,1.329,1.852,2.051c0.059,0,0.119,0.002,0.18,0.003
	C17.556,8.84,16.88,8.151,16.144,7.513z"/>
<path opacity="0.25" fill="#263D00" d="M13.866,7.946c0.73,0.543,1.41,1.137,2.039,1.771c0.061-0.007,0.121-0.015,0.182-0.021
	C15.401,9.063,14.661,8.476,13.866,7.946z"/>
<path opacity="0.25" fill="#263D00" d="M11.837,9.055c0,0,1.688,0.515,2.373,0.968c0.064-0.013,0.127-0.026,0.189-0.037
	C13.653,9.535,11.837,9.055,11.837,9.055z"/>
<path fill="#70A61B" d="M10.101,11.336c6.85-3.546,12.871-1.714,17.344,1.322c0.359,0.273,0.236,0.471-0.063,0.264
	C23.323,10.274,18.009,8.048,10.101,11.336z"/>
<path fill="#92C932" d="M14.011,20.342c0.592-0.208,2.34-0.896,2.34-0.896s-1.59,0.155-2.156,0.24
	c0.32-1.166,1.262-2.855,2.354-4.184c0.732-0.051,1.461-0.061,2.186-0.031c-0.627-0.122-1.264-0.217-1.904-0.285
	c1.018-1.117,2.271-2.072,3.611-2.769c0.768,0.126,2.947,0.487,2.947,0.487s-1.516-0.641-2.145-0.853
	c0.17-0.081,1.471-0.571,1.893-0.683c0.869,0.258,1.719,0.561,2.545,0.903c-0.617-0.355-1.248-0.688-1.895-1.001
	c0.791,0.055,2.121,0.594,3.783,0.961c-5.838,1.142-10.41,4.938-12.572,10.498c-0.525,0.436-0.861,0.839-0.861,0.839
	c0.012-0.011-0.17-0.258-0.232-0.581l1.188-1.253l-1.27,0.772C13.761,21.91,13.817,21.168,14.011,20.342z"/>
<path fill="#7AB51D" d="M25.427,15c-0.232,0.144-0.469,0.293-0.709,0.445c0.064-0.603,0.156-1.203,0.277-1.802
	c-0.258,0.671-0.469,1.352-0.635,2.036c-0.359,0.237-0.719,0.486-1.076,0.747c0.002-0.423,0.115-1.791,0.115-1.791
	s-0.635,1.754-0.705,2.23c-0.814,0.608-1.102,0.876-1.838,1.574c-0.109-0.623-0.535-2.319-0.535-2.319s-0.133,2.211-0.098,2.919
	c-0.463,0.451-0.67,0.679-1.086,1.133c-0.121-0.432-0.635-1.984-0.635-1.984s0.123,1.982,0.197,2.472
	c-0.426,0.469-1.998,2.277-2.785,2.984c-0.135,0.119-0.357-1.694-0.357-1.694s-0.217,2.065-0.279,2.084
	c-0.066,0.021-0.658-0.028-0.729-0.065c1.936-6.24,6.754-10.511,13.02-11.735C26.952,12.72,25.556,14.923,25.427,15z"/>
<path opacity="0.25" fill="#263D00" d="M23.769,15.825c0.127-0.855,0.318-1.708,0.572-2.55c0.059-0.021,0.115-0.043,0.172-0.063
	C24.192,14.069,23.944,14.943,23.769,15.825z"/>
<path opacity="0.25" fill="#263D00" d="M25.255,14.992c0.203-0.826,0.473-1.646,0.811-2.445c0.059-0.017,0.121-0.031,0.18-0.048
	C25.841,13.312,25.511,14.144,25.255,14.992z"/>
<path opacity="0.25" fill="#263D00" d="M22.257,16.696c0.039-0.884,0.139-1.771,0.301-2.654c0.055-0.027,0.107-0.056,0.16-0.083
	C22.493,14.865,22.341,15.782,22.257,16.696z"/>
<path opacity="0.25" fill="#263D00" d="M21.05,17.712c-0.047-0.9-0.033-1.812,0.039-2.725c0.049-0.032,0.098-0.066,0.146-0.101
	C21.106,15.832,21.046,16.775,21.05,17.712z"/>
<path opacity="0.25" fill="#263D00" d="M19.671,19.19c-0.207-0.923-0.361-1.864-0.459-2.819c0.041-0.043,0.08-0.088,0.121-0.131
	C19.38,17.238,19.497,18.222,19.671,19.19z"/>
<path opacity="0.25" fill="#263D00" d="M18.11,21.203c-0.256-0.92-0.459-1.859-0.609-2.814c0.039-0.048,0.074-0.096,0.111-0.144
	C17.718,19.25,17.884,20.236,18.11,21.203z"/>
<path opacity="0.25" fill="#263D00" d="M16.347,23.055c-0.15-0.83-0.258-1.671-0.32-2.522c0.031-0.056,0.063-0.111,0.094-0.167"/>
<path opacity="0.25" fill="#263D00" d="M22.452,11.696c0.961,0.327,1.895,0.703,2.795,1.128c0.059-0.021,0.117-0.039,0.176-0.059
	C24.464,12.352,23.474,11.995,22.452,11.696z"/>
<path opacity="0.25" fill="#263D00" d="M19.917,13.067c0.965,0.229,1.91,0.517,2.828,0.855c0.055-0.027,0.109-0.053,0.164-0.079
	C21.938,13.524,20.937,13.263,19.917,13.067z"/>
<path opacity="0.25" fill="#263D00" d="M17.817,14.456c0.965,0.134,1.912,0.325,2.838,0.574c0.049-0.034,0.102-0.065,0.152-0.098
	C19.567,14.65,18.61,14.526,17.817,14.456z"/>
<path opacity="0.25" fill="#263D00" d="M15.782,16.958c0.932-0.056,1.857-0.047,2.773,0.025c0.041-0.043,0.082-0.086,0.125-0.13
	C17.722,16.819,16.755,16.849,15.782,16.958z"/>
<path opacity="0.25" fill="#263D00" d="M14.569,18.921c0.896-0.17,1.797-0.269,2.693-0.302c0.033-0.047,0.068-0.098,0.105-0.145
	C16.435,18.547,15.499,18.695,14.569,18.921z"/>
<path opacity="0.25" fill="#263D00" d="M14.024,21.158c0,0,1.521-0.891,2.32-1.089c0.035-0.054,0.066-0.109,0.1-0.163
	C15.608,20.148,14.024,21.158,14.024,21.158z"/>
<path fill="#70A61B" d="M14.55,23.969c1.984-7.414,7.406-10.595,12.68-11.826c0.445-0.081,0.51,0.145,0.154,0.223
	C22.677,13.556,17.438,15.953,14.55,23.969z"/>
<linearGradient id="SVGID_4_" gradientUnits="userSpaceOnUse" x1="31.5693" y1="26.4863" x2="28.3788" y2="27.3018">
	<stop  offset="0" style="stop-color:#735628"/>
	<stop  offset="0.3925" style="stop-color:#8F6F40"/>
	<stop  offset="0.7419" style="stop-color:#A07F4F"/>
	<stop  offset="1" style="stop-color:#A68554"/>
	<a:midPointStop  offset="0" style="stop-color:#735628"/>
	<a:midPointStop  offset="0.3576" style="stop-color:#735628"/>
	<a:midPointStop  offset="1" style="stop-color:#A68554"/>
</linearGradient>
<path fill="url(#SVGID_4_)" d="M35.528,39.071c0,1.237-4.287,1.237-4.287,0c0-4.875-5.018-18.026-5.018-24.797
	c0-1.159,3.176-1.159,3.176,0C29.399,21.045,35.528,34.196,35.528,39.071z"/>
<path fill="#CFB092" d="M35.108,36.152c0.775,1.785-3.82,2.18-4.039,1.002C31.349,37.861,34.927,37.978,35.108,36.152z"/>
<path fill="#CFB092" d="M30.354,33.655c-0.193,1.983,4.281,1.128,4-0.311C34.292,34.587,30.876,35.284,30.354,33.655z"/>
<path fill="#CFB092" d="M28.724,27.349c-0.193,1.982,3.914,1.143,3.635-0.295C32.296,28.295,29.247,28.978,28.724,27.349z"/>
<path fill="#CFB092" d="M27.298,21.645c-0.195,1.984,3.668,1.351,3.389-0.088C30.624,22.799,27.819,23.274,27.298,21.645z"/>
<path fill="#CFB092" d="M33.372,30.19c0.777,1.786-3.463,1.993-3.682,0.815C29.97,31.711,33.192,32.015,33.372,30.19z"/>
<path fill="#CFB092" d="M31.415,24.057c0.775,1.785-3.129,1.948-3.346,0.771C28.349,25.535,31.233,25.881,31.415,24.057z"/>
<path fill="#CFB092" d="M29.849,18.091c0.775,1.786-3.146,1.91-3.365,0.731C26.763,19.53,29.667,19.916,29.849,18.091z"/>
<path fill="#92C932" d="M39.292,21.333c-0.549-0.26-2.162-1.103-2.162-1.103s1.533,0.31,2.074,0.449
	c-0.146-1.163-0.826-2.893-1.709-4.29c-0.707-0.122-1.418-0.204-2.129-0.249c0.629-0.054,1.264-0.082,1.9-0.085
	c-0.836-1.183-1.926-2.235-3.137-3.044c-0.77,0.046-2.949,0.176-2.949,0.176s1.572-0.469,2.215-0.611
	c-0.154-0.096-1.355-0.7-1.752-0.852c-0.885,0.162-1.758,0.371-2.613,0.619c0.652-0.281,1.314-0.541,1.99-0.778
	c-0.779-0.027-2.152,0.361-3.83,0.549c5.543,1.694,9.473,5.83,10.801,11.434c0.451,0.476,0.723,0.899,0.723,0.899
	c-0.01-0.013,0.203-0.232,0.311-0.54l-0.986-1.334l1.133,0.877C39.317,22.875,39.364,22.152,39.292,21.333z"/>
<path fill="#7AB51D" d="M28.894,15.01c0.207,0.162,0.418,0.33,0.629,0.501c0.023-0.589,0.018-1.179-0.016-1.771
	c0.156,0.674,0.268,1.354,0.334,2.035c0.316,0.265,0.633,0.543,0.943,0.831c0.059-0.409,0.141-1.747,0.141-1.747
	s0.373,1.763,0.373,2.233c0.711,0.669,0.953,0.958,1.576,1.709c0.193-0.594,0.848-2.193,0.848-2.193s-0.182,2.154-0.314,2.837
	c0.389,0.482,0.559,0.725,0.9,1.207c0.18-0.405,0.898-1.857,0.898-1.857s-0.398,1.907-0.541,2.372
	c0.35,0.497,1.633,2.407,2.301,3.172c0.113,0.13,0.586-1.605,0.586-1.605s-0.078,2.022-0.02,2.047
	c0.063,0.027,0.648,0.038,0.723,0.01c-1.01-6.239-5.117-10.859-11.064-12.677C27.726,12.647,28.78,14.922,28.894,15.01z"/>
<path opacity="0.25" fill="#263D00" d="M30.399,15.973c-0.006-0.841-0.07-1.685-0.201-2.525c-0.055-0.026-0.107-0.054-0.158-0.079
	C30.231,14.232,30.351,15.104,30.399,15.973z"/>
<path opacity="0.25" fill="#263D00" d="M29.063,15.019c-0.084-0.822-0.23-1.642-0.447-2.451c-0.057-0.021-0.113-0.043-0.17-0.064
	C28.728,13.332,28.931,14.172,29.063,15.019z"/>
<path opacity="0.25" fill="#263D00" d="M31.751,16.969c0.086-0.858,0.115-1.728,0.08-2.599c-0.047-0.032-0.096-0.065-0.145-0.097
	C31.778,15.174,31.798,16.077,31.751,16.969z"/>
<path opacity="0.25" fill="#263D00" d="M32.786,18.077c0.172-0.867,0.289-1.752,0.348-2.643c-0.045-0.037-0.086-0.075-0.131-0.111
	C32.997,16.25,32.923,17.169,32.786,18.077z"/>
<path opacity="0.25" fill="#263D00" d="M33.925,19.646c0.332-0.872,0.617-1.769,0.846-2.683c-0.031-0.047-0.064-0.095-0.098-0.142
	C34.483,17.785,34.231,18.727,33.925,19.646z"/>
<path opacity="0.25" fill="#263D00" d="M35.167,21.751c0.379-0.863,0.709-1.753,0.99-2.664c-0.029-0.05-0.059-0.098-0.088-0.148
	C35.825,19.9,35.522,20.839,35.167,21.751z"/>
<path opacity="0.25" fill="#263D00" d="M36.626,23.724c0.266-0.789,0.49-1.593,0.67-2.41c-0.023-0.059-0.045-0.114-0.068-0.171"/>
<path opacity="0.25" fill="#263D00" d="M32.267,12.109c-0.986,0.22-1.951,0.49-2.891,0.811c-0.055-0.026-0.107-0.05-0.162-0.074
	C30.208,12.542,31.228,12.294,32.267,12.109z"/>
<path opacity="0.25" fill="#263D00" d="M34.55,13.691c-0.977,0.127-1.939,0.309-2.885,0.545c-0.049-0.032-0.1-0.063-0.148-0.093
	C32.511,13.931,33.524,13.779,34.55,13.691z"/>
<path opacity="0.25" fill="#263D00" d="M36.403,15.248c-0.959,0.032-1.914,0.124-2.854,0.27c-0.043-0.037-0.088-0.073-0.133-0.108
	C34.667,15.26,35.62,15.238,36.403,15.248z"/>
<path opacity="0.25" fill="#263D00" d="M38.038,17.876c-0.902-0.148-1.807-0.231-2.713-0.255c-0.033-0.045-0.068-0.091-0.104-0.137
	C36.163,17.545,37.104,17.673,38.038,17.876z"/>
<path opacity="0.25" fill="#263D00" d="M38.948,19.9c-0.854-0.254-1.719-0.44-2.588-0.563c-0.029-0.05-0.057-0.102-0.084-0.151
	C37.177,19.35,38.071,19.586,38.948,19.9z"/>
<path opacity="0.25" fill="#263D00" d="M39.163,22.121c0,0-1.359-1.016-2.113-1.288c-0.025-0.057-0.049-0.112-0.074-0.168
	C37.759,20.985,39.163,22.121,39.163,22.121z"/>
<path fill="#70A61B" d="M38.255,24.791c-0.893-7.381-5.742-11.007-10.719-12.729c-0.424-0.122-0.52,0.088-0.182,0.199
	C31.784,13.888,36.562,16.736,38.255,24.791z"/>
<path fill="#92C932" d="M42.487,10.164c-0.572,0.201-2.313,0.742-2.313,0.742s1.303-0.859,1.785-1.142
	c-0.934-0.718-2.646-1.459-4.266-1.826c-0.588,0.412-1.148,0.854-1.682,1.322c0.406-0.482,0.832-0.948,1.281-1.397
	c-1.436-0.246-2.955-0.223-4.387,0.059c-0.51,0.571-1.955,2.197-1.955,2.197s0.775-1.436,1.129-1.988
	c-0.18,0.04-1.457,0.459-1.844,0.631c-0.51,0.736-0.979,1.498-1.404,2.274c0.258-0.657,0.541-1.307,0.85-1.949
	c-0.568,0.529-1.262,1.77-2.313,3.082c5.121-2.702,10.844-2.548,15.777,0.474c0.658,0.018,1.152,0.127,1.152,0.127
	c-0.016-0.002-0.021-0.308-0.166-0.6l-1.646-0.248l1.424-0.177C43.604,11.236,43.122,10.692,42.487,10.164z"/>
<path fill="#7AB51D" d="M30.638,13.015c0.262-0.031,0.529-0.061,0.801-0.09c-0.402-0.432-0.828-0.845-1.273-1.238
	c0.592,0.366,1.154,0.769,1.686,1.203c0.414-0.036,0.836-0.063,1.262-0.078c-0.25-0.33-1.146-1.331-1.146-1.331
	s1.52,0.982,1.855,1.313c0.979-0.026,1.355,0.006,2.33,0.099c-0.285-0.556-0.965-2.145-0.965-2.145s1.408,1.648,1.801,2.225
	c0.619,0.067,0.912,0.118,1.496,0.218c-0.162-0.413-0.689-1.944-0.689-1.944s1.078,1.627,1.311,2.056
	c0.6,0.105,2.867,0.552,3.885,0.621c0.172,0.012-0.73-1.546-0.73-1.546s1.387,1.483,1.445,1.46c0.063-0.025,0.484-0.429,0.516-0.501
	c-5.16-3.694-11.355-4.067-16.85-1.167C28.128,12.169,30.495,13.034,30.638,13.015z"/>
<path opacity="0.25" fill="#263D00" d="M32.388,12.637c-0.604-0.591-1.252-1.141-1.943-1.643c-0.057,0.019-0.113,0.037-0.168,0.056
	C31.028,11.524,31.731,12.056,32.388,12.637z"/>
<path opacity="0.25" fill="#263D00" d="M30.763,12.901c-0.645-0.521-1.332-0.996-2.063-1.415c-0.055,0.024-0.111,0.051-0.166,0.075
	C29.323,11.947,30.067,12.396,30.763,12.901z"/>
<path opacity="0.25" fill="#263D00" d="M34.052,12.389c-0.551-0.668-1.15-1.302-1.797-1.893c-0.057,0.012-0.113,0.022-0.17,0.033
	C32.79,11.101,33.448,11.724,34.052,12.389z"/>
<path opacity="0.25" fill="#263D00" d="M35.571,12.442c-0.494-0.733-1.045-1.439-1.639-2.11c-0.057,0.005-0.113,0.009-0.172,0.013
	C34.419,11.003,35.022,11.705,35.571,12.442z"/>
<path opacity="0.25" fill="#263D00" d="M37.495,12.749c-0.387-0.85-0.824-1.682-1.316-2.489c-0.057-0.011-0.113-0.021-0.17-0.029
	C36.563,11.042,37.058,11.884,37.495,12.749z"/>
<path opacity="0.25" fill="#263D00" d="M39.874,13.363c-0.35-0.878-0.75-1.738-1.201-2.578c-0.057-0.015-0.111-0.028-0.17-0.044
	C39.019,11.591,39.476,12.466,39.874,13.363z"/>
<path opacity="0.25" fill="#263D00" d="M42.312,13.727c-0.375-0.743-0.791-1.468-1.248-2.172c-0.057-0.024-0.111-0.048-0.17-0.073"
	/>
<path opacity="0.25" fill="#263D00" d="M30.95,8.595c-0.539,0.848-1.029,1.717-1.465,2.604c-0.055,0.021-0.111,0.041-0.166,0.063
	C29.806,10.348,30.349,9.458,30.95,8.595z"/>
<path opacity="0.25" fill="#263D00" d="M33.69,8.105c-0.602,0.775-1.15,1.582-1.648,2.414c-0.059,0.012-0.115,0.025-0.172,0.039
	C32.421,9.709,33.028,8.888,33.69,8.105z"/>
<path opacity="0.25" fill="#263D00" d="M36.108,7.9c-0.654,0.699-1.264,1.434-1.822,2.198c-0.057,0.004-0.115,0.011-0.172,0.018
	C34.892,9.13,35.548,8.444,36.108,7.9z"/>
<path opacity="0.25" fill="#263D00" d="M39.138,8.606c-0.742,0.529-1.441,1.107-2.098,1.729c-0.055-0.009-0.113-0.017-0.17-0.025
	C37.577,9.691,38.333,9.12,39.138,8.606z"/>
<path opacity="0.25" fill="#263D00" d="M41.222,9.394c-0.783,0.421-1.525,0.898-2.229,1.424c-0.055-0.016-0.111-0.033-0.166-0.048
	C39.581,10.252,40.38,9.792,41.222,9.394z"/>
<path opacity="0.25" fill="#263D00" d="M42.958,10.81c0,0-1.686,0.24-2.41,0.578c-0.059-0.022-0.115-0.046-0.172-0.066
	C41.157,10.996,42.958,10.81,42.958,10.81z"/>
<path fill="#70A61B" d="M44.22,13.335c-5.893-4.583-11.902-3.732-16.645-1.447c-0.387,0.211-0.303,0.427,0.014,0.268
	C31.878,10.19,37.282,8.838,44.22,13.335z"/>
<path fill="#92C932" d="M22.618,26.777c0.313-0.539,1.189-2.194,1.189-2.194s-1.105,1.147-1.479,1.577
	c-0.523-1.092-0.916-2.98-0.957-4.696c0.523-0.513,1.07-0.991,1.637-1.437c-0.555,0.313-1.1,0.652-1.631,1.015
	c0.041-1.506,0.365-3.04,0.926-4.438c0.664-0.399,2.557-1.534,2.557-1.534s-1.57,0.494-2.186,0.739
	c0.074-0.173,0.74-1.384,0.988-1.743c0.828-0.366,1.67-0.684,2.523-0.96c-0.701,0.129-1.398,0.285-2.094,0.467
	c0.637-0.47,1.998-0.921,3.502-1.719c-3.684,4.643-4.664,10.479-2.66,16.099c-0.113,0.67-0.105,1.193-0.105,1.193
	c0.004-0.015-0.299-0.085-0.557-0.289l0.08-1.72l-0.457,1.406C23.454,28.128,23.013,27.53,22.618,26.777z"/>
<path fill="#7AB51D" d="M27.78,15.34c-0.08,0.26-0.162,0.525-0.246,0.797c-0.346-0.499-0.67-1.014-0.969-1.547
	c0.244,0.676,0.529,1.329,0.852,1.956c-0.117,0.412-0.227,0.834-0.326,1.263c-0.275-0.321-1.086-1.435-1.086-1.435
	s0.666,1.741,0.926,2.149c-0.219,0.987-0.262,1.377-0.363,2.384c-0.492-0.403-1.926-1.415-1.926-1.415s1.35,1.764,1.84,2.278
	c-0.057,0.643-0.064,0.949-0.082,1.562c-0.375-0.247-1.783-1.096-1.783-1.096s1.393,1.427,1.77,1.749
	c-0.016,0.631-0.023,3.021-0.156,4.066c-0.023,0.178-1.383-1.055-1.383-1.055s1.189,1.707,1.154,1.763
	c-0.037,0.06-0.518,0.403-0.596,0.421c-2.623-5.988-1.764-12.344,2.189-17.327C27.444,12.623,27.827,15.199,27.78,15.34z"/>
<path opacity="0.25" fill="#263D00" d="M27.062,17.039c-0.463-0.731-0.877-1.502-1.236-2.306c0.031-0.055,0.061-0.106,0.09-0.158
	C26.233,15.432,26.618,16.255,27.062,17.039z"/>
<path opacity="0.25" fill="#263D00" d="M27.644,15.446c-0.387-0.76-0.719-1.556-0.988-2.382c0.035-0.051,0.072-0.1,0.107-0.152
	C26.987,13.792,27.284,14.636,27.644,15.446z"/>
<path opacity="0.25" fill="#263D00" d="M26.487,18.676c-0.551-0.696-1.059-1.433-1.514-2.208c0.025-0.056,0.047-0.111,0.068-0.167
	C25.466,17.135,25.95,17.928,26.487,18.676z"/>
<path opacity="0.25" fill="#263D00" d="M26.237,20.229c-0.625-0.653-1.213-1.354-1.758-2.093c0.018-0.056,0.031-0.114,0.047-0.171
	C25.046,18.765,25.618,19.521,26.237,20.229z"/>
<path opacity="0.25" fill="#263D00" d="M26.159,22.243c-0.762-0.566-1.498-1.182-2.197-1.843c0.002-0.06,0.004-0.119,0.006-0.179
	C24.659,20.949,25.392,21.621,26.159,22.243z"/>
<path opacity="0.25" fill="#263D00" d="M26.294,24.779c-0.797-0.532-1.566-1.115-2.307-1.743c-0.004-0.06-0.006-0.119-0.01-0.181
	C24.714,23.551,25.489,24.192,26.294,24.779z"/>
<path opacity="0.25" fill="#263D00" d="M26.171,27.326c-0.66-0.532-1.293-1.102-1.896-1.707c-0.014-0.063-0.027-0.125-0.039-0.188"
	/>
<path opacity="0.25" fill="#263D00" d="M23.356,14.756c0.945-0.374,1.898-0.692,2.861-0.952c0.031-0.053,0.063-0.105,0.094-0.157
	C25.313,13.954,24.327,14.324,23.356,14.756z"/>
<path opacity="0.25" fill="#263D00" d="M22.331,17.436c0.885-0.449,1.789-0.843,2.709-1.181c0.021-0.056,0.049-0.109,0.072-0.166
	C24.165,16.476,23.235,16.925,22.331,17.436z"/>
<path opacity="0.25" fill="#263D00" d="M21.647,19.848c0.82-0.523,1.666-0.99,2.531-1.4c0.016-0.059,0.035-0.114,0.051-0.171
	C23.104,18.862,22.296,19.389,21.647,19.848z"/>
<path opacity="0.25" fill="#263D00" d="M21.745,23.063c0.67-0.646,1.379-1.236,2.121-1.774c0.004-0.058,0.006-0.118,0.01-0.179
	C23.126,21.702,22.411,22.351,21.745,23.063z"/>
<path opacity="0.25" fill="#263D00" d="M22.11,25.337c0.57-0.709,1.188-1.365,1.846-1.971c-0.004-0.058-0.01-0.118-0.014-0.179
	C23.282,23.847,22.669,24.564,22.11,25.337z"/>
<path opacity="0.25" fill="#263D00" d="M23.163,27.386c0,0,0.57-1.659,1.049-2.327c-0.01-0.063-0.023-0.126-0.033-0.188
	C23.704,25.597,23.163,27.386,23.163,27.386z"/>
<path fill="#70A61B" d="M25.405,29.181c-3.355-6.91-1.324-12.83,1.871-17.175c0.285-0.349,0.48-0.222,0.262,0.068
	C24.747,16.023,22.343,21.228,25.405,29.181z"/>
</svg>
