<?xml version="1.0" encoding="utf-8"?>
<!-- Generator: Adobe Illustrator 24.1.2, SVG Export Plug-In . SVG Version: 6.00 Build 0)  -->
<svg version="1.1" id="Layer_1" xmlns="http://www.w3.org/2000/svg" xmlns:xlink="http://www.w3.org/1999/xlink" x="0px" y="0px"
	 width="64px" height="64px" viewBox="0 0 64 64" style="enable-background:new 0 0 64 64;" xml:space="preserve">
<style type="text/css">
	.st0{fill:#EADCB8;}
	.st1{fill:#BAAF92;}
	.st2{fill:#FF3640;}
	.st3{fill:#FFE12C;}
	.st4{fill:#F59E01;}
	.st5{fill:#302C3B;}
	.st6{fill:#E6EBEF;}
	.st7{fill:url(#SVGID_1_);}
	.st8{fill:url(#SVGID_2_);}
	.st9{fill:url(#SVGID_3_);}
</style>
<rect x="3" y="25" class="st0" width="58" height="37"/>
<rect x="3" y="59" class="st1" width="58" height="3"/>
<path class="st2" d="M64,26v-2c0-0.55-0.45-1-1-1H1c-0.55,0-1,0.45-1,1v2H64z"/>
<path class="st3" d="M0,29v2c0,0.55,0.45,1,1,1h62c0.55,0,1-0.45,1-1v-2H0z"/>
<rect y="26" class="st4" width="64" height="3"/>
<path class="st2" d="M57,18c0,1.1-0.9,2-2,2H27c-1.1,0-2-0.9-2-2V2c0-1.1,0.9-2,2-2h28c1.1,0,2,0.9,2,2V18z"/>
<path class="st3" d="M55,17c0,0.55-0.45,1-1,1H28c-0.55,0-1-0.45-1-1V3c0-0.55,0.45-1,1-1h26c0.55,0,1,0.45,1,1V17z"/>
<rect x="29" y="19" class="st2" width="2" height="5"/>
<rect x="51" y="19" class="st2" width="2" height="5"/>
<rect x="22" y="38" class="st1" width="20" height="24"/>
<rect x="7" y="40" class="st1" width="11" height="11"/>
<rect x="8" y="41" class="st5" width="9" height="9"/>
<rect x="45.93" y="40" class="st1" width="11" height="11"/>
<rect x="46.93" y="41" class="st5" width="9" height="9"/>
<rect x="23" y="39" class="st5" width="8.25" height="20"/>
<rect x="32.75" y="39" class="st5" width="8.25" height="20"/>
<rect x="22.5" y="48" class="st1" width="19" height="2"/>
<path class="st6" d="M32.6,47.5c-0.14,0-0.14,0.5,0,0.5h1c0.14,0,0.25,0.11,0.25,0.25v1.5c0,0.14-0.11,0.25-0.25,0.25h-1
	c-0.14,0-0.14,0.5,0,0.5H34c0.14,0,0.36-0.06,0.36-0.33v-2.34c0-0.26-0.22-0.33-0.36-0.33H32.6z"/>
<path class="st6" d="M31.4,50.5c0.14,0,0.14-0.5,0-0.5h-1c-0.14,0-0.25-0.11-0.25-0.25v-1.5c0-0.14,0.11-0.25,0.25-0.25h1
	c0.14,0,0.14-0.5,0-0.5H30c-0.14,0-0.36,0.06-0.36,0.33v2.34c0,0.27,0.22,0.33,0.36,0.33H31.4z"/>
<rect x="31.88" y="38" class="st5" width="0.25" height="21"/>
<linearGradient id="SVGID_1_" gradientUnits="userSpaceOnUse" x1="32" y1="42" x2="32" y2="38">
	<stop  offset="0" style="stop-color:#302C3B;stop-opacity:0"/>
	<stop  offset="0.9" style="stop-color:#302C3B;stop-opacity:0.54"/>
	<stop  offset="1" style="stop-color:#302C3B;stop-opacity:0.6"/>
</linearGradient>
<rect x="21" y="38" class="st7" width="22" height="4"/>
<linearGradient id="SVGID_2_" gradientUnits="userSpaceOnUse" x1="32" y1="36" x2="32" y2="32">
	<stop  offset="0" style="stop-color:#302C3B;stop-opacity:0"/>
	<stop  offset="0.9" style="stop-color:#302C3B;stop-opacity:0.36"/>
	<stop  offset="1" style="stop-color:#302C3B;stop-opacity:0.4"/>
</linearGradient>
<rect x="3" y="32" class="st8" width="58" height="4"/>
<linearGradient id="SVGID_3_" gradientUnits="userSpaceOnUse" x1="32" y1="39" x2="32" y2="35">
	<stop  offset="0" style="stop-color:#FF3640"/>
	<stop  offset="1" style="stop-color:#F59E01"/>
</linearGradient>
<path class="st9" d="M42,35H22c-0.55,0-1,0.45-1,1v2c0,0.55,0.45,1,1,1h20c0.55,0,1-0.45,1-1v-2C43,35.45,42.55,35,42,35z"/>
<path class="st2" d="M31.81,13.06l2-2.1c0.5-0.53,0.85-1.02,1.07-1.45s0.32-0.91,0.32-1.44c0-0.5-0.12-0.93-0.37-1.3
	c-0.25-0.37-0.6-0.66-1.05-0.86c-0.46-0.2-0.99-0.3-1.6-0.3c-0.57,0-1.14,0.09-1.7,0.27c-0.56,0.18-1.02,0.42-1.37,0.73l0.62,1.4
	c0.4-0.28,0.8-0.5,1.19-0.64c0.4-0.15,0.78-0.22,1.15-0.22c0.39,0,0.69,0.09,0.9,0.26c0.21,0.17,0.31,0.44,0.31,0.79
	c0,0.29-0.08,0.59-0.23,0.88c-0.15,0.3-0.38,0.61-0.69,0.95l-2.96,3.15v1.44h6.1v-1.56H31.81z"/>
<path class="st2" d="M43.4,11.5h-1.23V5.68h-1.58l-4.12,5.89v1.47h3.75v1.64h1.95v-1.64h1.23V11.5z M38.27,11.5l1.95-2.81v2.81
	H38.27z"/>
<polygon class="st2" points="50.52,5.68 50.52,9.33 46.35,9.33 46.35,5.68 44.42,5.68 44.42,14.68 46.35,14.68 46.35,10.88 
	50.52,10.88 50.52,14.68 52.45,14.68 52.45,5.68 "/>
</svg>
