<?xml version="1.0" encoding="utf-8"?>
<!-- Generator: Adobe Illustrator 24.1.2, SVG Export Plug-In . SVG Version: 6.00 Build 0)  -->
<svg version="1.1" id="Layer_1" xmlns="http://www.w3.org/2000/svg" xmlns:xlink="http://www.w3.org/1999/xlink" x="0px" y="0px"
	 width="64px" height="64px" viewBox="0 0 64 64" style="enable-background:new 0 0 64 64;" xml:space="preserve">
<style type="text/css">
	.st0{fill:url(#SVGID_1_);}
	.st1{fill:#013366;}
	.st2{fill:#FFFFFF;}
</style>
<linearGradient id="SVGID_1_" gradientUnits="userSpaceOnUse" x1="31.9995" y1="2" x2="31.9995" y2="62">
	<stop  offset="0" style="stop-color:#00ABF1"/>
	<stop  offset="0.2292" style="stop-color:#00A7EF"/>
	<stop  offset="0.4667" style="stop-color:#009AE9"/>
	<stop  offset="0.7079" style="stop-color:#0086E0"/>
	<stop  offset="0.9504" style="stop-color:#0069D3"/>
	<stop  offset="1" style="stop-color:#0062D0"/>
</linearGradient>
<path class="st0" d="M62,54c0,4.4-3.6,8-8,8H10c-4.4,0-8-3.6-8-8V10c0-4.4,3.6-8,8-8h44c4.4,0,8,3.6,8,8V54z"/>
<rect x="2" y="19" class="st1" width="60" height="26"/>
<path class="st2" d="M14.52,23.81L7,40.19h3.61l1.57-3.64h7.64l1.56,3.64h3.57l-7.52-16.38H14.52z M13.37,33.82l2.65-6.14l2.63,6.14
	H13.37z"/>
<polygon class="st2" points="23.92,26.73 29.06,26.73 29.06,40.19 32.69,40.19 32.69,26.73 37.82,26.73 37.82,23.81 23.92,23.81 "/>
<polygon class="st2" points="54.17,23.81 48.91,35.87 43.63,23.81 40.78,23.81 40.78,40.19 43.93,40.19 43.93,31.36 47.73,40.19 
	50.05,40.19 53.81,31.28 53.82,40.19 57,40.19 57,23.81 "/>
</svg>
