<?xml version="1.0" encoding="utf-8"?>
<!-- Generator: Adobe Illustrator 15.0.0, SVG Export Plug-In . SVG Version: 6.00 Build 0)  -->
<!DOCTYPE svg PUBLIC "-//W3C//DTD SVG 1.1//EN" "http://www.w3.org/Graphics/SVG/1.1/DTD/svg11.dtd" [
	<!ENTITY ns_flows "http://ns.adobe.com/Flows/1.0/">
	<!ENTITY ns_extend "http://ns.adobe.com/Extensibility/1.0/">
	<!ENTITY ns_ai "http://ns.adobe.com/AdobeIllustrator/10.0/">
	<!ENTITY ns_graphs "http://ns.adobe.com/Graphs/1.0/">
]>
<svg version="1.1" id="Layer_1" xmlns:x="&ns_extend;" xmlns:i="&ns_ai;" xmlns:graph="&ns_graphs;"
	 xmlns="http://www.w3.org/2000/svg" xmlns:xlink="http://www.w3.org/1999/xlink" xmlns:a="http://ns.adobe.com/AdobeSVGViewerExtensions/3.0/"
	 x="0px" y="0px" width="64px" height="64px" viewBox="0 0 64 64" enable-background="new 0 0 64 64" xml:space="preserve">
<path fill="#1A1626" d="M4,6.374c0,11.751,0,23.502,0,35.252c19.333,7.05,38.667-7.051,58,0c0-11.751,0-23.501,0-35.252
	C42.667-0.676,23.333,13.425,4,6.374z"/>
<path fill="#FFFFFF" d="M42.268,29.243c0.499-0.012,0.982,0.752,1.94-0.077c0.961-0.831,1.025-2.087,0.152-2.487
	c-0.881-0.408,0.041-1.008-0.426-1.611c-0.454-0.623-2.217-0.4-2.456,0.908c-0.226,1.096-12.976,9.164-17.743,10.377
	c-0.498,0.127-0.986-0.771-1.944,0.07c-0.958,0.837-1.022,2.104-0.149,2.518c0.878,0.389-0.043,0.985,0.426,1.6
	c0.451,0.605,2.218,0.375,2.454-0.93C24.748,38.507,42.269,29.03,42.268,29.243z"/>
<path fill="#FFFFFF" d="M23.732,32.277c-0.499,0.114-0.982,0.999-1.941,0.365c-0.962-0.646-1.023-1.892-0.151-2.458
	c0.878-0.584-0.04-0.998,0.426-1.696c0.453-0.705,2.218-0.917,2.456,0.314c0.226,1.403,12.976,4.482,17.743,4.517
	c0.499,0.002,0.985-1.02,1.943-0.373c0.961,0.652,1.023,1.91,0.15,2.486c-0.879,0.568,0.043,0.977-0.426,1.688
	c-0.451,0.687-2.219,0.893-2.454-0.337C41.252,35.429,23.733,32.49,23.732,32.277z"/>
<path fill="#FFFFFF" d="M36.366,24.413c-0.171,0.624-6.562,1.795-6.732,1.211c-0.845-0.131-1.222-0.408-1.678-0.332
	c0.148,0.572,0.53,1.506,0.525,1.932c-0.007,0.578,0.401,0.563,0.783,1.149c0.421,0.647,1.399,1.454,3.735,1.028
	c2.334-0.428,3.315-1.574,3.735-2.368c0.384-0.72,0.789-0.842,0.783-1.417c-0.007-0.424,0.38-1.488,0.525-2.109
	C37.587,23.583,37.208,23.987,36.366,24.413z"/>
<path fill="#FFFFFF" d="M30.47,28.202c-0.135,0.023-0.396-0.025-0.488-0.154c-0.04-0.056-0.043-0.121-0.014-0.185
	c0.051-0.116,0.01-0.339-0.029-0.536c-0.046-0.238-0.084-0.443,0.005-0.572c0.077-0.111,0.214-0.186,0.385-0.217
	c0.252-0.045,0.545,0.022,0.615,0.236c0.05,0.149-0.046,0.332-0.144,0.526c-0.117,0.225-0.248,0.479-0.182,0.722
	c0.004,0.012,0.008,0.024,0.012,0.037c-0.011,0.023-0.022,0.047-0.033,0.07C30.574,28.167,30.53,28.19,30.47,28.202z"/>
<path fill="#302C3B" d="M30.328,26.621c0.225-0.04,0.479,0.021,0.536,0.191c0.087,0.271-0.456,0.76-0.324,1.245
	c0.008,0.033-0.021,0.055-0.07,0.063c-0.154,0.027-0.504-0.066-0.429-0.234c0.13-0.281-0.168-0.898-0.032-1.09
	C30.073,26.704,30.194,26.646,30.328,26.621 M30.328,26.455c-0.198,0.034-0.356,0.128-0.449,0.261
	c-0.111,0.16-0.071,0.385-0.021,0.641c0.031,0.166,0.076,0.395,0.034,0.483c-0.042,0.093-0.035,0.188,0.017,0.265
	c0.107,0.151,0.4,0.208,0.561,0.181c0.105-0.02,0.165-0.073,0.194-0.118c0.017-0.023,0.033-0.048,0.05-0.072
	c-0.005-0.035-0.011-0.07-0.016-0.105c-0.06-0.213,0.063-0.439,0.173-0.661c0.106-0.21,0.212-0.411,0.149-0.593
	C30.938,26.483,30.61,26.405,30.328,26.455L30.328,26.455z"/>
<path fill="#FFFFFF" d="M30.938,28.325c-0.142,0.025-0.381,0-0.463-0.115c-0.037-0.049-0.041-0.109-0.013-0.174
	c0.054-0.117-0.023-0.34-0.081-0.52c-0.07-0.223-0.139-0.413-0.051-0.549c0.078-0.119,0.229-0.205,0.413-0.238
	c0.231-0.041,0.514,0.008,0.593,0.215c0.053,0.144-0.021,0.313-0.1,0.496c-0.091,0.209-0.198,0.447-0.121,0.688
	c0.004,0.014,0.008,0.025,0.012,0.038c-0.01,0.024-0.021,0.048-0.03,0.071C31.067,28.282,31.015,28.312,30.938,28.325L30.938,28.325
	z"/>
<path fill="#302C3B" d="M30.744,26.812c0.217-0.038,0.454,0.013,0.515,0.172c0.099,0.266-0.373,0.707-0.223,1.184
	c0.013,0.039-0.03,0.064-0.098,0.077c-0.162,0.03-0.467-0.028-0.398-0.187c0.123-0.289-0.273-0.855-0.143-1.053
	C30.463,26.903,30.598,26.839,30.744,26.812 M30.744,26.647c-0.213,0.037-0.384,0.141-0.479,0.283
	c-0.111,0.172-0.042,0.383,0.038,0.625c0.049,0.148,0.121,0.372,0.084,0.459c-0.038,0.09-0.034,0.182,0.019,0.252
	c0.102,0.144,0.378,0.17,0.532,0.143c0.104-0.019,0.18-0.063,0.226-0.135c0.017-0.024,0.033-0.049,0.05-0.074
	c-0.006-0.035-0.012-0.072-0.018-0.107c-0.068-0.213,0.024-0.426,0.115-0.631c0.081-0.189,0.17-0.385,0.103-0.561
	C31.323,26.662,31.003,26.601,30.744,26.647L30.744,26.647z"/>
<path fill="#FFFFFF" d="M31.469,28.399c-0.159,0.029-0.416,0.02-0.499-0.096c-0.008-0.01-0.016-0.021-0.023-0.032
	c0.006-0.042,0.01-0.085,0.016-0.127c0.049-0.118-0.002-0.35-0.048-0.552c-0.057-0.24-0.103-0.447-0.019-0.578
	c0.075-0.118,0.228-0.207,0.411-0.239c0.232-0.042,0.517,0.009,0.595,0.214c0.051,0.146-0.023,0.318-0.097,0.502
	c-0.091,0.213-0.188,0.455-0.116,0.695c0.004,0.013,0.009,0.025,0.013,0.037c-0.011,0.023-0.021,0.047-0.03,0.07
	C31.638,28.347,31.57,28.382,31.469,28.399z"/>
<path fill="#302C3B" d="M31.307,26.858c0.216-0.039,0.456,0.014,0.515,0.174c0.102,0.264-0.361,0.716-0.212,1.191
	c0.016,0.043-0.053,0.077-0.141,0.093c-0.19,0.036-0.501-0.001-0.433-0.149c0.125-0.29-0.202-0.918-0.074-1.115
	C31.027,26.95,31.163,26.885,31.307,26.858 M31.307,26.694c-0.213,0.037-0.383,0.141-0.479,0.283
	c-0.105,0.165-0.053,0.389,0.007,0.646c0.036,0.162,0.09,0.406,0.052,0.499c-0.037,0.085-0.035,0.173,0.014,0.237
	c0.118,0.164,0.448,0.145,0.568,0.123c0.129-0.023,0.219-0.074,0.269-0.151c0.018-0.026,0.034-0.052,0.051-0.077
	c-0.007-0.035-0.014-0.07-0.021-0.106c-0.066-0.212,0.023-0.429,0.111-0.637c0.082-0.192,0.166-0.39,0.099-0.563
	C31.89,26.706,31.567,26.647,31.307,26.694L31.307,26.694z"/>
<path fill="#FFFFFF" d="M32.117,28.461c-0.176,0.032-0.479,0.022-0.569-0.102c-0.009-0.011-0.017-0.021-0.025-0.032
	c0.004-0.041,0.008-0.082,0.012-0.123c0.052-0.123-0.003-0.347-0.051-0.546c-0.055-0.235-0.105-0.438-0.022-0.569
	c0.078-0.125,0.236-0.215,0.428-0.25c0.234-0.043,0.501,0.004,0.58,0.201c0.057,0.141,0.001,0.316-0.06,0.502
	c-0.069,0.217-0.152,0.468-0.069,0.707c0.004,0.012,0.008,0.025,0.012,0.038c-0.01,0.022-0.019,0.046-0.028,0.067
	C32.288,28.408,32.222,28.442,32.117,28.461z"/>
<path fill="#302C3B" d="M31.889,26.921c0.215-0.039,0.439,0.007,0.503,0.162c0.104,0.261-0.287,0.732-0.133,1.205
	c0.014,0.041-0.049,0.072-0.142,0.089c-0.211,0.04-0.57,0.003-0.508-0.153c0.121-0.29-0.205-0.898-0.081-1.1
	C31.597,27.019,31.737,26.948,31.889,26.921 M31.889,26.755c-0.22,0.041-0.399,0.146-0.495,0.297
	c-0.104,0.166-0.052,0.387,0.01,0.639c0.041,0.168,0.096,0.398,0.055,0.493c-0.033,0.085-0.026,0.17,0.02,0.233
	c0.128,0.174,0.514,0.147,0.64,0.125c0.084-0.016,0.206-0.047,0.271-0.149c0.017-0.025,0.033-0.051,0.05-0.077
	c-0.008-0.035-0.014-0.07-0.021-0.105c-0.07-0.217,0.001-0.441,0.069-0.654c0.063-0.202,0.125-0.393,0.062-0.559
	C32.456,26.763,32.15,26.708,31.889,26.755L31.889,26.755z"/>
<path fill="#FFFFFF" d="M32.7,28.468c-0.091,0.018-0.398,0.063-0.496-0.053c-0.009-0.01-0.017-0.02-0.025-0.031
	c0.001-0.035,0.003-0.071,0.004-0.107c0.037-0.126-0.027-0.338-0.082-0.523c-0.068-0.224-0.123-0.416-0.056-0.553
	c0.076-0.158,0.283-0.287,0.523-0.33c0.237-0.044,0.431,0.012,0.504,0.145c0.073,0.129,0.037,0.303-0.005,0.488
	c-0.048,0.217-0.097,0.464,0.008,0.688c0.006,0.012,0.012,0.025,0.018,0.037c-0.008,0.024-0.018,0.049-0.025,0.072
	C33.017,28.394,32.836,28.442,32.7,28.468L32.7,28.468z"/>
<path fill="#302C3B" d="M32.568,26.952c0.183-0.033,0.365-0.005,0.432,0.113c0.132,0.24-0.21,0.734,0,1.17
	c0.026,0.058-0.126,0.118-0.3,0.15c-0.222,0.039-0.478,0.031-0.441-0.098c0.09-0.301-0.248-0.848-0.143-1.063
	C32.187,27.09,32.377,26.987,32.568,26.952 M32.568,26.787c-0.216,0.04-0.484,0.161-0.597,0.388
	c-0.086,0.17-0.021,0.376,0.049,0.613c0.052,0.168,0.114,0.376,0.083,0.479c-0.026,0.078-0.014,0.154,0.034,0.208
	c0.111,0.134,0.402,0.104,0.563,0.075c0.344-0.063,0.413-0.178,0.436-0.217c0.017-0.027,0.032-0.057,0.049-0.084
	c-0.011-0.035-0.021-0.07-0.032-0.105c-0.101-0.201-0.052-0.422-0.005-0.638c0.043-0.2,0.083-0.39,0-0.54
	C33.058,26.804,32.841,26.737,32.568,26.787L32.568,26.787z"/>
<path fill="#FFFFFF" d="M35.489,27.294c-0.029-0.012-0.059-0.023-0.088-0.035c-0.008-0.01-0.018-0.02-0.025-0.029
	c0.002-0.023,0.005-0.047,0.007-0.07c0.064-0.265-0.066-0.474-0.183-0.657c-0.1-0.157-0.194-0.308-0.144-0.474
	c0.07-0.24,0.364-0.411,0.614-0.455c0.171-0.031,0.31-0.002,0.383,0.08c0.088,0.096,0.05,0.314,0.005,0.57
	c-0.04,0.21-0.08,0.447-0.026,0.546c0.026,0.054,0.024,0.12-0.014,0.189c-0.089,0.161-0.354,0.302-0.49,0.327
	C35.515,27.288,35.503,27.291,35.489,27.294z"/>
<path fill="#302C3B" d="M35.671,25.655c0.133-0.023,0.258-0.009,0.318,0.062c0.137,0.144-0.16,0.864-0.03,1.103
	c0.073,0.14-0.276,0.357-0.431,0.386c-0.048,0.009-0.078-0.001-0.066-0.039c0.132-0.53-0.412-0.827-0.328-1.128
	C35.19,25.847,35.448,25.694,35.671,25.655 M35.671,25.489L35.671,25.489c-0.281,0.05-0.608,0.248-0.694,0.529
	c-0.06,0.202,0.044,0.365,0.152,0.537c0.114,0.18,0.231,0.367,0.173,0.6c-0.006,0.026-0.013,0.053-0.019,0.08
	c0.018,0.029,0.034,0.057,0.052,0.086c0.032,0.033,0.086,0.067,0.193,0.049c0.158-0.029,0.453-0.189,0.561-0.381
	c0.052-0.092,0.063-0.191,0.018-0.27c-0.043-0.076,0.002-0.32,0.034-0.497c0.051-0.274,0.091-0.51-0.022-0.632
	C36.028,25.491,35.87,25.453,35.671,25.489L35.671,25.489z"/>
<path fill="#FFFFFF" d="M35.062,27.577c-0.078,0.014-0.131,0.006-0.16-0.03c-0.009-0.009-0.017-0.019-0.025-0.028
	c0.003-0.025,0.005-0.049,0.008-0.074c0.077-0.268-0.031-0.467-0.121-0.645c-0.08-0.152-0.154-0.299-0.102-0.46
	c0.08-0.235,0.361-0.386,0.595-0.427c0.185-0.033,0.335,0.001,0.412,0.09c0.085,0.105,0.021,0.318-0.049,0.566
	c-0.058,0.2-0.132,0.449-0.082,0.547c0.028,0.055,0.023,0.119-0.013,0.18C35.442,27.44,35.2,27.554,35.062,27.577z"/>
<path fill="#302C3B" d="M35.256,25.995c0.145-0.027,0.281-0.009,0.347,0.068c0.126,0.152-0.268,0.858-0.141,1.103
	c0.067,0.134-0.239,0.302-0.4,0.33c-0.068,0.013-0.111,0.001-0.098-0.042c0.146-0.53-0.324-0.805-0.225-1.103
	C34.8,26.171,35.039,26.032,35.256,25.995 M35.256,25.829L35.256,25.829c-0.26,0.047-0.581,0.224-0.67,0.496
	c-0.069,0.199,0.019,0.363,0.101,0.523c0.093,0.174,0.186,0.352,0.119,0.587c-0.008,0.028-0.016,0.056-0.024,0.083
	c0.018,0.03,0.036,0.061,0.055,0.09c0.046,0.055,0.122,0.07,0.226,0.053c0.154-0.027,0.43-0.152,0.533-0.332
	c0.049-0.088,0.059-0.184,0.017-0.26c-0.037-0.072,0.038-0.323,0.084-0.49c0.081-0.271,0.149-0.506,0.039-0.637
	C35.641,25.833,35.466,25.792,35.256,25.829L35.256,25.829z"/>
<path fill="#FFFFFF" d="M34.531,27.843c-0.101,0.02-0.168,0.008-0.202-0.032c-0.008-0.009-0.018-0.019-0.025-0.028
	c0.002-0.023,0.006-0.049,0.008-0.074c0.072-0.266-0.027-0.471-0.116-0.651c-0.077-0.155-0.147-0.302-0.095-0.468
	c0.075-0.234,0.361-0.387,0.593-0.429c0.182-0.032,0.332,0.001,0.409,0.091c0.086,0.102,0.037,0.324-0.017,0.582
	c-0.046,0.223-0.101,0.47-0.048,0.572c0.007,0.012,0.013,0.025,0.02,0.037c-0.01,0.041-0.02,0.084-0.028,0.125
	C34.948,27.712,34.69,27.815,34.531,27.843z"/>
<path fill="#302C3B" d="M34.693,26.243c0.145-0.025,0.276-0.009,0.343,0.07c0.129,0.15-0.199,0.896-0.072,1.141
	c0.064,0.125-0.242,0.271-0.433,0.306c-0.089,0.017-0.154,0.007-0.141-0.042c0.146-0.531-0.31-0.816-0.212-1.115
	C34.237,26.421,34.477,26.283,34.693,26.243 M34.693,26.079L34.693,26.079c-0.263,0.047-0.582,0.223-0.671,0.498
	c-0.064,0.195,0.018,0.365,0.099,0.527c0.085,0.178,0.177,0.359,0.111,0.597c-0.008,0.027-0.017,0.056-0.024,0.083
	c0.019,0.029,0.036,0.059,0.055,0.088c0.05,0.059,0.141,0.076,0.269,0.055c0.122-0.022,0.451-0.122,0.568-0.328
	c0.046-0.082,0.053-0.17,0.014-0.242c-0.039-0.078,0.017-0.342,0.052-0.518c0.061-0.281,0.114-0.523,0.004-0.648
	C35.075,26.081,34.905,26.04,34.693,26.079L34.693,26.079z"/>
<path fill="#FFFFFF" d="M33.883,28.14c-0.105,0.018-0.171,0.008-0.206-0.031c-0.009-0.01-0.017-0.02-0.025-0.029
	c0.003-0.023,0.006-0.047,0.009-0.07c0.082-0.27,0.001-0.49-0.069-0.682c-0.058-0.166-0.116-0.319-0.06-0.48
	c0.08-0.227,0.347-0.372,0.58-0.412c0.189-0.035,0.351-0.002,0.428,0.094c0.081,0.104,0.032,0.323-0.022,0.578
	c-0.047,0.215-0.104,0.461-0.051,0.564c0.007,0.013,0.013,0.025,0.02,0.038c-0.011,0.041-0.022,0.082-0.033,0.123
	C34.361,27.987,34.058,28.108,33.883,28.14z"/>
<path fill="#302C3B" d="M34.111,26.517c0.152-0.029,0.292-0.01,0.36,0.072c0.123,0.156-0.203,0.883-0.081,1.129
	c0.063,0.134-0.297,0.299-0.508,0.338c-0.095,0.018-0.155,0.01-0.143-0.037c0.155-0.529-0.235-0.859-0.133-1.157
	C33.669,26.685,33.899,26.555,34.111,26.517 M34.111,26.351c-0.26,0.047-0.565,0.214-0.659,0.482
	c-0.064,0.189-0.003,0.357,0.061,0.535c0.07,0.189,0.14,0.387,0.07,0.629c-0.009,0.028-0.018,0.057-0.026,0.085
	c0.019,0.029,0.036,0.059,0.054,0.088c0.067,0.077,0.187,0.065,0.272,0.051c0.125-0.022,0.511-0.138,0.64-0.356
	c0.046-0.082,0.053-0.168,0.02-0.24c-0.039-0.082,0.015-0.33,0.055-0.514c0.061-0.275,0.113-0.514,0.01-0.641
	C34.51,26.354,34.331,26.31,34.111,26.351L34.111,26.351z"/>
<path fill="#FFFFFF" d="M33.298,28.359c-0.135,0.024-0.313,0.038-0.365-0.035c-0.008-0.011-0.018-0.021-0.025-0.032
	c0.006-0.025,0.012-0.05,0.018-0.074c0.104-0.262,0.055-0.489,0.008-0.689c-0.042-0.17-0.078-0.332-0.005-0.486
	c0.073-0.16,0.267-0.285,0.504-0.33c0.24-0.043,0.445,0.012,0.523,0.141c0.066,0.113,0.01,0.324-0.058,0.572
	c-0.053,0.206-0.117,0.44-0.08,0.554c0.004,0.013,0.009,0.024,0.013,0.038c-0.012,0.035-0.023,0.072-0.035,0.109
	C33.698,28.276,33.389,28.343,33.298,28.359z"/>
<path fill="#302C3B" d="M33.432,26.795c0.188-0.034,0.385-0.001,0.45,0.11c0.104,0.174-0.233,0.846-0.142,1.113
	c0.038,0.116-0.223,0.217-0.442,0.258c-0.176,0.033-0.326,0.026-0.298-0.041c0.209-0.512-0.135-0.883,0-1.17
	C33.064,26.923,33.25,26.827,33.432,26.795 M33.432,26.63L33.432,26.63c-0.274,0.049-0.49,0.195-0.579,0.389
	c-0.083,0.182-0.044,0.357,0,0.542c0.045,0.198,0.095,0.401-0.005,0.638c-0.012,0.029-0.023,0.059-0.036,0.09
	c0.017,0.031,0.034,0.063,0.051,0.096c0.022,0.029,0.09,0.119,0.436,0.057c0.161-0.029,0.448-0.105,0.564-0.279
	c0.045-0.07,0.06-0.152,0.034-0.221c-0.031-0.094,0.033-0.322,0.082-0.508c0.072-0.265,0.133-0.494,0.048-0.635
	C33.915,26.614,33.645,26.591,33.432,26.63L33.432,26.63z"/>
<path fill="#FFFFFF" d="M30.221,27.062c-0.149,0.027-0.417,0.032-0.493-0.111c-0.072-0.145-0.037-0.336-0.007-0.521
	c0.031-0.193,0.067-0.391-0.019-0.524c-0.008-0.013-0.015-0.024-0.022-0.036c0.006-0.033,0.012-0.064,0.018-0.098
	c0.026-0.053,0.085-0.09,0.175-0.104c0.154-0.026,0.426,0.003,0.532,0.106c0.008,0.01,0.017,0.018,0.024,0.026
	c0.006,0.036,0.012,0.071,0.017,0.106c-0.043,0.237-0.011,0.424,0.018,0.588c0.03,0.154,0.053,0.287,0.01,0.42
	C30.446,26.987,30.363,27.038,30.221,27.062L30.221,27.062z"/>
<path fill="#302C3B" d="M29.872,25.75c0.178-0.03,0.517,0.026,0.49,0.154c-0.082,0.47,0.109,0.751,0.031,0.997
	c-0.012,0.033-0.082,0.063-0.173,0.078c-0.155,0.028-0.37,0.018-0.418-0.078c-0.134-0.262,0.157-0.757-0.029-1.051
	C29.742,25.798,29.79,25.765,29.872,25.75 M29.872,25.583c-0.12,0.021-0.205,0.076-0.247,0.158
	c-0.037,0.071-0.034,0.152,0.007,0.217c0.069,0.109,0.038,0.286,0.007,0.471c-0.034,0.198-0.067,0.404,0.016,0.568
	c0.112,0.223,0.519,0.157,0.566,0.147c0.184-0.032,0.293-0.104,0.328-0.216c0.052-0.158,0.025-0.306-0.003-0.463
	c-0.027-0.158-0.061-0.338-0.02-0.562c0.014-0.075-0.006-0.144-0.06-0.196C30.343,25.583,30.035,25.556,29.872,25.583L29.872,25.583
	z"/>
<path fill="#FFFFFF" d="M30.79,27.202c-0.166,0.031-0.454,0.037-0.529-0.111c-0.074-0.152-0.027-0.355,0.02-0.576
	c0.047-0.218,0.097-0.441,0.011-0.582c-0.008-0.013-0.015-0.025-0.022-0.038c0.007-0.032,0.013-0.063,0.02-0.095
	c0.023-0.047,0.071-0.078,0.141-0.089c0.148-0.026,0.465,0.03,0.571,0.153c0.049,0.055,0.047,0.111,0.036,0.148
	c-0.05,0.178-0.017,0.371,0.017,0.555c0.027,0.172,0.058,0.336,0.011,0.479C31.041,27.12,30.953,27.174,30.79,27.202z"/>
<path fill="#302C3B" d="M30.429,25.795c0.168-0.029,0.568,0.065,0.528,0.21c-0.104,0.371,0.112,0.769,0.029,1.027
	c-0.012,0.036-0.095,0.068-0.196,0.086c-0.174,0.033-0.405,0.023-0.452-0.074c-0.135-0.275,0.212-0.854,0.024-1.164
	C30.335,25.833,30.364,25.806,30.429,25.795 M30.429,25.629c-0.123,0.021-0.184,0.089-0.213,0.142
	c-0.017,0.033-0.056,0.119,0.002,0.213c0.069,0.117,0.026,0.324-0.019,0.527c-0.047,0.223-0.097,0.453-0.013,0.627
	c0.107,0.223,0.521,0.161,0.604,0.146c0.076-0.015,0.301-0.055,0.354-0.229c0.051-0.162,0.02-0.332-0.01-0.516
	c-0.033-0.176-0.063-0.357-0.018-0.518c0.012-0.049,0.021-0.135-0.05-0.221C30.94,25.657,30.597,25.599,30.429,25.629L30.429,25.629
	z"/>
<path fill="#FFFFFF" d="M31.679,27.388c-0.246,0.046-0.569,0.019-0.703-0.148c-0.107-0.129-0.08-0.365-0.057-0.613
	c0.027-0.231,0.052-0.473-0.034-0.605c-0.009-0.012-0.017-0.024-0.025-0.037c0.007-0.039,0.013-0.078,0.019-0.117
	c0.045-0.083,0.162-0.145,0.35-0.178c0.229-0.041,0.637-0.045,0.753,0.116c0.04,0.055,0.044,0.126,0.014,0.196
	c-0.09,0.215-0.045,0.44,0,0.661c0.042,0.203,0.079,0.396-0.002,0.559C31.937,27.323,31.79,27.368,31.679,27.388L31.679,27.388z"/>
<path fill="#302C3B" d="M31.228,25.771c0.322-0.058,0.788-0.015,0.692,0.21c-0.188,0.448,0.151,0.923,0,1.212
	c-0.024,0.051-0.122,0.092-0.245,0.114c-0.217,0.04-0.517,0.015-0.634-0.127c-0.183-0.222,0.112-0.913-0.084-1.214
	C30.897,25.876,31.035,25.806,31.228,25.771 M31.228,25.606c-0.222,0.039-0.36,0.115-0.42,0.234
	c-0.044,0.078-0.043,0.164,0.006,0.236c0.075,0.109,0.047,0.346,0.023,0.555c-0.029,0.266-0.055,0.516,0.071,0.668
	c0.15,0.187,0.506,0.221,0.771,0.172c0.197-0.035,0.324-0.111,0.383-0.223c0.098-0.193,0.061-0.398,0.014-0.617
	c-0.04-0.207-0.087-0.423-0.004-0.611c0.041-0.1,0.034-0.197-0.02-0.271C31.913,25.56,31.483,25.56,31.228,25.606L31.228,25.606z"/>
<path fill="#FFFFFF" d="M32.73,27.452c-0.271,0.051-0.704,0.041-0.823-0.139c-0.104-0.16-0.08-0.43-0.057-0.715
	c0.021-0.238,0.042-0.482-0.011-0.668c-0.003-0.012-0.007-0.023-0.011-0.037c0.013-0.037,0.025-0.076,0.038-0.115
	c0.05-0.076,0.158-0.131,0.323-0.16c0.268-0.051,0.71-0.029,0.851,0.137c0.055,0.064,0.052,0.137,0.038,0.184
	c-0.072,0.251-0.046,0.429-0.014,0.633c0.026,0.18,0.058,0.383,0.016,0.658C33.067,27.339,32.946,27.414,32.73,27.452L32.73,27.452z
	"/>
<path fill="#302C3B" d="M32.19,25.7c0.344-0.064,0.877,0.006,0.81,0.23c-0.144,0.502,0.083,0.738,0,1.301
	c-0.011,0.064-0.124,0.113-0.27,0.139c-0.271,0.05-0.659,0.025-0.753-0.111c-0.173-0.265,0.065-0.946-0.058-1.365
	C31.894,25.797,32.017,25.731,32.19,25.7 M32.19,25.535c-0.191,0.034-0.322,0.102-0.391,0.206c-0.049,0.07-0.06,0.152-0.039,0.227
	c0.051,0.17,0.027,0.406,0.007,0.639c-0.026,0.299-0.051,0.582,0.068,0.762c0.141,0.215,0.626,0.217,0.895,0.168
	c0.329-0.061,0.415-0.201,0.433-0.311c0.045-0.287,0.008-0.496-0.018-0.682c-0.029-0.194-0.055-0.363,0.012-0.596
	c0.027-0.094,0.012-0.187-0.049-0.256C32.942,25.503,32.464,25.485,32.19,25.535L32.19,25.535z"/>
<path fill="#FFFFFF" d="M35.779,26.058c-0.144,0.025-0.227,0.007-0.252-0.059c-0.043-0.121-0.022-0.262,0.008-0.426
	c0.028-0.174,0.062-0.371,0.02-0.595c-0.002-0.013-0.004-0.024-0.006-0.036c0.016-0.037,0.031-0.072,0.047-0.109
	c0.104-0.141,0.378-0.268,0.532-0.294c0.089-0.016,0.145-0.001,0.174,0.044c0.008,0.012,0.016,0.023,0.023,0.036
	c-0.01,0.032-0.019,0.065-0.028,0.097c-0.085,0.165-0.05,0.351-0.018,0.531c0.03,0.176,0.064,0.355-0.008,0.524
	C36.2,25.942,35.93,26.031,35.779,26.058z"/>
<path fill="#302C3B" d="M36.128,24.623c0.08-0.015,0.131,0.001,0.098,0.065c-0.186,0.359,0.105,0.754-0.028,1.061
	c-0.047,0.111-0.262,0.199-0.418,0.227c-0.091,0.017-0.163,0.012-0.173-0.016c-0.083-0.219,0.112-0.568,0.031-1.01
	C35.613,24.831,35.949,24.655,36.128,24.623 M36.128,24.456L36.128,24.456c-0.164,0.028-0.472,0.167-0.595,0.336
	c-0.052,0.071-0.071,0.146-0.061,0.217c0.038,0.209,0.008,0.398-0.021,0.566c-0.026,0.168-0.055,0.326-0.001,0.465
	c0.036,0.102,0.147,0.133,0.328,0.101c0.048-0.009,0.455-0.087,0.567-0.349c0.082-0.193,0.047-0.387,0.014-0.572
	c-0.032-0.174-0.06-0.339,0.008-0.475c0.042-0.08,0.044-0.158,0.006-0.217C36.331,24.458,36.246,24.435,36.128,24.456L36.128,24.456
	z"/>
<path fill="#FFFFFF" d="M35.21,26.401c-0.162,0.029-0.252,0.01-0.276-0.059c-0.044-0.125-0.014-0.298,0.014-0.48
	c0.032-0.197,0.063-0.4,0.017-0.563c-0.01-0.034-0.012-0.089,0.035-0.161c0.107-0.16,0.424-0.333,0.572-0.358
	c0.016-0.002,0.032-0.006,0.048-0.008c0.031,0.016,0.062,0.031,0.093,0.047c0.012,0.02,0.03,0.063-0.003,0.134
	c-0.085,0.171-0.037,0.377,0.011,0.579c0.05,0.201,0.093,0.393,0.019,0.568C35.665,26.276,35.374,26.372,35.21,26.401z"/>
<path fill="#302C3B" d="M35.571,24.864c0.062-0.012,0.095,0.006,0.066,0.062c-0.187,0.376,0.16,0.833,0.025,1.155
	c-0.047,0.115-0.28,0.205-0.455,0.236c-0.103,0.02-0.187,0.017-0.195-0.016c-0.081-0.229,0.133-0.705,0.03-1.039
	C35.005,25.133,35.4,24.895,35.571,24.864 M35.571,24.698L35.571,24.698c-0.169,0.029-0.513,0.213-0.638,0.402
	c-0.071,0.107-0.062,0.195-0.05,0.238c0.048,0.143,0.013,0.336-0.018,0.523c-0.031,0.193-0.061,0.377-0.013,0.521
	c0.056,0.153,0.284,0.112,0.354,0.1c0.084-0.016,0.498-0.101,0.606-0.36c0.085-0.205,0.034-0.418-0.014-0.623
	c-0.044-0.186-0.092-0.377-0.019-0.52c0.054-0.115,0.02-0.188,0.002-0.215C35.755,24.723,35.694,24.677,35.571,24.698L35.571,24.698
	z"/>
<path fill="#FFFFFF" d="M34.321,26.907c-0.112,0.02-0.259,0.029-0.312-0.055c-0.083-0.131-0.049-0.338-0.005-0.557
	c0.043-0.236,0.09-0.479,0.001-0.66c-0.031-0.062-0.026-0.133,0.014-0.202c0.119-0.204,0.523-0.349,0.752-0.389
	c0.188-0.034,0.304-0.017,0.35,0.052c0.009,0.014,0.017,0.025,0.024,0.037c-0.01,0.041-0.02,0.08-0.03,0.119
	c-0.089,0.166-0.063,0.396-0.036,0.619c0.027,0.237,0.054,0.465-0.055,0.633C34.89,26.72,34.565,26.864,34.321,26.907z"/>
<path fill="#302C3B" d="M34.771,25.128c0.19-0.035,0.331-0.016,0.271,0.097c-0.196,0.372,0.099,0.958-0.085,1.244
	c-0.117,0.185-0.416,0.317-0.637,0.356c-0.118,0.021-0.214,0.016-0.241-0.027c-0.151-0.232,0.19-0.83,0-1.211
	C33.982,25.399,34.452,25.187,34.771,25.128 M34.771,24.962L34.771,24.962c-0.255,0.047-0.685,0.201-0.823,0.441
	c-0.055,0.095-0.061,0.195-0.02,0.279c0.082,0.159,0.037,0.391-0.004,0.612c-0.045,0.235-0.088,0.454,0.014,0.612
	c0.057,0.092,0.188,0.119,0.383,0.084c0.266-0.049,0.619-0.21,0.771-0.449c0.125-0.199,0.102-0.439,0.069-0.693
	c-0.018-0.201-0.051-0.428,0.023-0.564c0.048-0.09,0.049-0.174,0.008-0.238C35.134,24.949,34.995,24.922,34.771,24.962
	L34.771,24.962z"/>
<path fill="#FFFFFF" d="M33.27,27.354c-0.22,0.041-0.335,0.007-0.351-0.096c-0.041-0.261-0.01-0.475,0.016-0.664
	c0.031-0.217,0.06-0.402-0.014-0.627c-0.016-0.043-0.02-0.113,0.037-0.197c0.141-0.219,0.584-0.398,0.852-0.447
	c0.161-0.03,0.271-0.015,0.323,0.043c0.008,0.01,0.016,0.02,0.024,0.029c0.001,0.037,0.002,0.075,0.003,0.113
	c-0.053,0.205-0.032,0.443-0.012,0.673c0.025,0.274,0.048,0.536-0.056,0.733C33.975,27.136,33.539,27.306,33.27,27.354z"/>
<path fill="#302C3B" d="M33.81,25.405c0.174-0.031,0.298-0.012,0.271,0.096c-0.124,0.463,0.113,1.059-0.058,1.385
	c-0.095,0.172-0.482,0.338-0.753,0.387c-0.147,0.027-0.261,0.021-0.27-0.041c-0.082-0.534,0.145-0.852,0-1.301
	C32.936,25.731,33.466,25.468,33.81,25.405 M33.81,25.24L33.81,25.24c-0.274,0.05-0.752,0.241-0.918,0.491
	c-0.061,0.092-0.079,0.189-0.05,0.275c0.065,0.207,0.041,0.385,0.013,0.592c-0.028,0.193-0.061,0.414-0.019,0.687
	c0.017,0.104,0.101,0.212,0.434,0.151c0.266-0.048,0.753-0.226,0.895-0.492c0.118-0.225,0.094-0.496,0.068-0.785
	c-0.022-0.223-0.041-0.454,0.007-0.643c0.021-0.082,0.008-0.158-0.041-0.211C34.129,25.226,34.001,25.205,33.81,25.24L33.81,25.24z"
	/>
<path fill="#FFFFFF" d="M40.677,18.555C42.864,11.409,38.591,7.687,33,8.749c-5.588,1.061-9.866,5.873-7.677,12.409
	c0.334-0.682,1.211-1.29,1.212-1.292c0,0.001-0.912,1.16-0.932,2.051c-0.073,3.602,3.026,2.436,4.002,3.994
	C29.89,26.379,33,26.038,33,26.036c-0.002-0.001,3.108-0.787,3.395-1.346c0.976-1.924,4.076-1.736,4.001-5.295
	c-0.018-0.887-0.93-1.771-0.931-1.77C39.466,17.625,40.341,17.97,40.677,18.555z M31.701,21.706
	c-1.696,1.988-6.184,2.787-4.729-1.031c0.604-1.57,3.255-2.113,4.14-1.565C32.134,19.749,31.928,21.44,31.701,21.706z M33,24.271
	c-1.638,1.748-1.038-1.609,0-1.799S34.637,25.423,33,24.271z M34.298,21.233c-0.227-0.184-0.436-1.8,0.59-2.81
	c0.886-0.879,3.535-1.245,4.14,0.147C40.484,21.911,35.995,22.564,34.298,21.233z"/>
<linearGradient id="SVGID_1_" gradientUnits="userSpaceOnUse" x1="3.5" y1="35.3486" x2="6.5" y2="35.3486">
	<stop  offset="0" style="stop-color:#9CA4A6"/>
	<stop  offset="0.0763" style="stop-color:#B6BEC0"/>
	<stop  offset="0.1689" style="stop-color:#CED6D8"/>
	<stop  offset="0.2669" style="stop-color:#DFE7E9"/>
	<stop  offset="0.3726" style="stop-color:#EAF1F4"/>
	<stop  offset="0.5" style="stop-color:#EDF4F7"/>
	<stop  offset="1" style="stop-color:#9CA4A6"/>
	<a:midPointStop  offset="0" style="stop-color:#9CA4A6"/>
	<a:midPointStop  offset="0.2561" style="stop-color:#9CA4A6"/>
	<a:midPointStop  offset="0.5" style="stop-color:#EDF4F7"/>
	<a:midPointStop  offset="0.5" style="stop-color:#EDF4F7"/>
	<a:midPointStop  offset="1" style="stop-color:#9CA4A6"/>
</linearGradient>
<path fill="url(#SVGID_1_)" d="M3.5,7.05c0,0.86,0,52.132,0,56.208c0,0.988,3,0.99,3,0.002c0-3.836,0-55.328,0-56.208
	C6.5,6.581,3.5,6.579,3.5,7.05z"/>
<radialGradient id="SVGID_2_" cx="4.25" cy="2" r="3.8459" gradientUnits="userSpaceOnUse">
	<stop  offset="0" style="stop-color:#EDF4F7"/>
	<stop  offset="0.1913" style="stop-color:#E7EEF1"/>
	<stop  offset="0.4574" style="stop-color:#D5DCDF"/>
	<stop  offset="0.766" style="stop-color:#B7BFC1"/>
	<stop  offset="1" style="stop-color:#9CA4A6"/>
	<a:midPointStop  offset="0" style="stop-color:#EDF4F7"/>
	<a:midPointStop  offset="0.6364" style="stop-color:#EDF4F7"/>
	<a:midPointStop  offset="1" style="stop-color:#9CA4A6"/>
</radialGradient>
<circle fill="url(#SVGID_2_)" cx="5" cy="3" r="3"/>
<linearGradient id="SVGID_3_" gradientUnits="userSpaceOnUse" x1="3.958" y1="6.5171" x2="6.042" y2="6.5171">
	<stop  offset="0" style="stop-color:#9CA4A6"/>
	<stop  offset="0.0218" style="stop-color:#A2AAAC"/>
	<stop  offset="0.1264" style="stop-color:#BAC2C4"/>
	<stop  offset="0.2369" style="stop-color:#CBD3D5"/>
	<stop  offset="0.3562" style="stop-color:#D5DDE0"/>
	<stop  offset="0.5" style="stop-color:#D8E0E3"/>
	<stop  offset="1" style="stop-color:#9CA4A6"/>
	<a:midPointStop  offset="0" style="stop-color:#9CA4A6"/>
	<a:midPointStop  offset="0.2561" style="stop-color:#9CA4A6"/>
	<a:midPointStop  offset="0.5" style="stop-color:#D8E0E3"/>
	<a:midPointStop  offset="0.5" style="stop-color:#D8E0E3"/>
	<a:midPointStop  offset="1" style="stop-color:#9CA4A6"/>
</linearGradient>
<path fill="url(#SVGID_3_)" d="M3.958,5.822v1.156c0,0.311,2.084,0.312,2.084,0V5.822H3.958z"/>
</svg>
