<?xml version="1.0" encoding="utf-8"?>
<!-- Generator: Adobe Illustrator 15.0.0, SVG Export Plug-In . SVG Version: 6.00 Build 0)  -->
<!DOCTYPE svg PUBLIC "-//W3C//DTD SVG 1.1//EN" "http://www.w3.org/Graphics/SVG/1.1/DTD/svg11.dtd" [
	<!ENTITY ns_flows "http://ns.adobe.com/Flows/1.0/">
	<!ENTITY ns_extend "http://ns.adobe.com/Extensibility/1.0/">
	<!ENTITY ns_ai "http://ns.adobe.com/AdobeIllustrator/10.0/">
	<!ENTITY ns_graphs "http://ns.adobe.com/Graphs/1.0/">
]>
<svg version="1.1" id="Layer_1" xmlns:x="&ns_extend;" xmlns:i="&ns_ai;" xmlns:graph="&ns_graphs;"
	 xmlns="http://www.w3.org/2000/svg" xmlns:xlink="http://www.w3.org/1999/xlink" xmlns:a="http://ns.adobe.com/AdobeSVGViewerExtensions/3.0/"
	 x="0px" y="0px" width="64px" height="64px" viewBox="0 0 64 64" enable-background="new 0 0 64 64" xml:space="preserve">
<linearGradient id="SVGID_1_" gradientUnits="userSpaceOnUse" x1="18.9287" y1="61.999" x2="18.9287" y2="35.2666">
	<stop  offset="0.1879" style="stop-color:#C29C82"/>
	<stop  offset="0.2279" style="stop-color:#B89176"/>
	<stop  offset="0.3416" style="stop-color:#A2785B"/>
	<stop  offset="0.465" style="stop-color:#906546"/>
	<stop  offset="0.6015" style="stop-color:#845737"/>
	<stop  offset="0.7611" style="stop-color:#7C4F2E"/>
	<stop  offset="1" style="stop-color:#7A4C2B"/>
	<a:midPointStop  offset="0.1879" style="stop-color:#C29C82"/>
	<a:midPointStop  offset="0.2174" style="stop-color:#C29C82"/>
	<a:midPointStop  offset="1" style="stop-color:#7A4C2B"/>
</linearGradient>
<path fill="url(#SVGID_1_)" d="M12.41,61.974c0.481,0.308,1.443-2.194,1.558-4.385c0.026-0.463-0.7-0.099-0.938-0.362
	c-0.239-0.262-0.524-1.973-0.225-2.468c0.305-0.493,0.644-1.002,0.423-1.916c-0.223-0.914,0.645-4.609,0.893-5.285
	c0.186-0.503,1.364-1.681,1.725-1.868c0.509-0.27,9.901,0.244,11.195-0.815c1.295-1.06-5.272-12.044-6.448-9.111
	c-0.656,1.635-0.809,4.625-0.679,5.853c0.082,0.783-2.645-0.063-6.47,1.475c-0.407,0.165-1.837,2.487-1.786,3.013
	c0.313,3.166-1.579,5.84-0.834,8.745c0.127,0.504-0.099,1.984,0.148,3.416C10.925,60.711,12.031,61.732,12.41,61.974z"/>
<path fill="#302C3B" d="M12.41,61.974c0.481,0.308,1.443-2.194,1.558-4.385c0.026-0.463-0.7-0.099-0.938-0.362
	c-0.239-0.262-0.98,1.244-2.058,1.037C10.925,60.711,12.031,61.732,12.41,61.974z"/>
<linearGradient id="SVGID_2_" gradientUnits="userSpaceOnUse" x1="51.1719" y1="60.7881" x2="51.1719" y2="39.5781">
	<stop  offset="0.1879" style="stop-color:#C29C82"/>
	<stop  offset="0.2279" style="stop-color:#B89176"/>
	<stop  offset="0.3416" style="stop-color:#A2785B"/>
	<stop  offset="0.465" style="stop-color:#906546"/>
	<stop  offset="0.6015" style="stop-color:#845737"/>
	<stop  offset="0.7611" style="stop-color:#7C4F2E"/>
	<stop  offset="1" style="stop-color:#7A4C2B"/>
	<a:midPointStop  offset="0.1879" style="stop-color:#C29C82"/>
	<a:midPointStop  offset="0.2174" style="stop-color:#C29C82"/>
	<a:midPointStop  offset="1" style="stop-color:#7A4C2B"/>
</linearGradient>
<path fill="url(#SVGID_2_)" d="M56.187,44.94c-1.134-0.517-2.906-3.208-3.101-4.377c-0.359-2.17-6.848-0.096-7.696,0.026
	c2.514,3.125,7.041,4.913,6.752,5.932c-0.706,2.487-5.382,5.203-6.05,6.688c-0.667,1.482-1.249,3.313-0.931,4.851
	c-0.028,2.163,0.914,2.807,1.035,2.722c0.676-0.472,1.652-2.48,1.564-2.95c-0.055-0.302-0.558-0.688-0.558-0.688
	c0.081-1.941,0.991-1.89,1.111-2.819c0.123-0.938,7.389-5.921,8.546-6.941C57.605,46.719,57.319,45.454,56.187,44.94z"/>
<path fill="#302C3B" d="M45.161,58.06c-0.028,2.163,0.996,3.486,1.116,3.401c0.676-0.472,1.915-3.073,1.828-3.543
	c-0.056-0.303-0.902-0.775-0.902-0.775C46.926,57.466,45.688,58.139,45.161,58.06z"/>
<path fill="#302C3B" d="M9.494,11.656c2.694,2.767,9.859,3.542,11.846,0.138C17.676,12.01,15.012,7.078,9.494,11.656z"/>
<path fill="#3E3A47" d="M11.806,13.525c2.798,2.935,10.42,4.251,13.297,0.855C21.442,14.092,18.761,9.112,11.806,13.525z"/>
<path fill="#302C3B" d="M15.619,16.192c2.728,3.208,10.243,4.707,13.201,0.883C23.844,16.996,21.827,12.106,15.619,16.192z"/>
<path fill="#3E3A47" d="M20.208,16.924c1.604,3.819,7.116,7.268,11.125,3.182C25.839,20.528,25.595,15.276,20.208,16.924z"/>
<path fill="#302C3B" d="M61.925,13.244c2.969,4.681,1.455,12.058-6.041,11.17l-1.106-1.042c0,0,5.913-2.574,2.398-7.57
	C51.702,8.028,64,2,64,2S58.308,7.543,61.925,13.244z"/>
<path fill="#302C3B" d="M59.59,14.589c3.43,4.281,2.253,5.945-1.752,1.421C51.603,8.966,61,3.098,61,3.098
	S55.411,9.375,59.59,14.589z"/>
<path fill="#302C3B" d="M61.678,6.834c0,0-3.62,2.63,0.688,7.614C61.608,12.703,60.516,10.714,61.678,6.834z"/>
<linearGradient id="SVGID_3_" gradientUnits="userSpaceOnUse" x1="33.5654" y1="44.7324" x2="33.5654" y2="26.5067">
	<stop  offset="0" style="stop-color:#7A4C2B"/>
	<stop  offset="0.204" style="stop-color:#895836"/>
	<stop  offset="0.4476" style="stop-color:#91603C"/>
	<stop  offset="0.8242" style="stop-color:#94623E"/>
	<a:midPointStop  offset="0" style="stop-color:#7A4C2B"/>
	<a:midPointStop  offset="0.2121" style="stop-color:#7A4C2B"/>
	<a:midPointStop  offset="0.8242" style="stop-color:#94623E"/>
</linearGradient>
<path fill="url(#SVGID_3_)" d="M58.029,29.423c-0.756-4.64-2.723-7.072-6.4-8.376c-5.521-1.956-19.059,6.453-25.98-0.245
	c-3.798-3.676-4.188-8.059-13.944-9.251c-4.49-0.55-2.813,11.94,0.411,12.057c3.922,0.141,5.467,4.961,5.813,8.02
	c0.716,6.348,3.813,9.971,7.317,12.058c11.667,4.194,17.606-5.777,26.625-2.614C56.813,38.183,58.718,33.646,58.029,29.423z"/>
<linearGradient id="SVGID_4_" gradientUnits="userSpaceOnUse" x1="22.6475" y1="58.5449" x2="22.6475" y2="32.2329">
	<stop  offset="0.1091" style="stop-color:#C29C82"/>
	<stop  offset="0.113" style="stop-color:#C09A7F"/>
	<stop  offset="0.1536" style="stop-color:#B08567"/>
	<stop  offset="0.1995" style="stop-color:#A47655"/>
	<stop  offset="0.2537" style="stop-color:#9B6A48"/>
	<stop  offset="0.3238" style="stop-color:#956440"/>
	<stop  offset="0.4667" style="stop-color:#94623E"/>
	<a:midPointStop  offset="0.1091" style="stop-color:#C29C82"/>
	<a:midPointStop  offset="0.1695" style="stop-color:#C29C82"/>
	<a:midPointStop  offset="0.4667" style="stop-color:#94623E"/>
</linearGradient>
<path fill="url(#SVGID_4_)" d="M22.287,41.159c0.972,2.925-3.174,4.073-7.251,10.994c-0.466,0.792,0.25,3.303,1.033,3.54
	c2.487,0.757,6.575,2.88,7.791,2.852c0.905-0.017,3.186-1.445,3.866-1.885c1.473-0.276,2.782-1.965,2.675-2.362
	c-0.191-0.712-3.808-0.887-4.031-0.639c-0.26,0.282-0.223,1.027-0.355,1.41c-0.109,0.32-1.452,1.881-2.405,0.575
	c-0.701-0.959-0.994,0.715-4.562-1.048c-0.367-0.18-0.96-1.231-0.741-1.63c1.814-3.282,7.375-3.807,8.902-6.119
	c0.664-1.003,1.345-3.261,1.627-4.47C32.023,28.708,18.382,29.402,22.287,41.159z"/>
<path fill="#302C3B" d="M27.726,56.66c1.473-0.276,2.782-1.965,2.675-2.362c-0.191-0.712-3.808-0.887-4.031-0.639
	c-0.26,0.282-0.223,1.027-0.355,1.41C25.905,55.39,27.505,55.143,27.726,56.66z"/>
<linearGradient id="SVGID_5_" gradientUnits="userSpaceOnUse" x1="54.1484" y1="61.4482" x2="54.1484" y2="24.7725">
	<stop  offset="0.1879" style="stop-color:#C29C82"/>
	<stop  offset="0.2358" style="stop-color:#B48B6E"/>
	<stop  offset="0.3038" style="stop-color:#A67959"/>
	<stop  offset="0.3794" style="stop-color:#9C6C4A"/>
	<stop  offset="0.4677" style="stop-color:#966441"/>
	<stop  offset="0.6" style="stop-color:#94623E"/>
	<a:midPointStop  offset="0.1879" style="stop-color:#C29C82"/>
	<a:midPointStop  offset="0.2174" style="stop-color:#C29C82"/>
	<a:midPointStop  offset="0.6" style="stop-color:#94623E"/>
</linearGradient>
<path fill="url(#SVGID_5_)" d="M45.911,38.229c3.811,7.005,12.451,6.012,12.741,7.726c0.432,2.555-2.563,6.993-2.526,8.631
	c0.035,1.635,0.96,3.63,1.903,4.861c0.9,1.953,2.021,2.098,2.093,1.966c0.403-0.732,0.42-2.979,0.141-3.36
	c-0.179-0.246-0.796-0.363-0.796-0.363c-0.758-1.776,0.338-2.287-0.209-3.035c-1.229-1.685,3.649-6.877,4.689-10.14
	c0.308-0.965-0.767-2.276-2.003-2.219c-1.237,0.057-4.159-2.709-4.833-3.668c-1.252-1.781,0.586-4.272,0.162-8.697
	C56.305,19.845,39.03,25.58,45.911,38.229z"/>
<path fill="#302C3B" d="M58.029,59.446c0.9,1.953,2.385,2.669,2.457,2.538c0.403-0.731,0.401-3.632,0.122-4.014
	c-0.179-0.246-1.142-0.282-1.142-0.282C59.398,58.03,58.673,58.973,58.029,59.446z"/>
<path fill="#94623E" d="M7.531,8.255c0.559-0.663,4.01,1.856,4.174,6.15c0.014,0.277-1.899,0.023-3.068-0.935
	C8.636,13.471,6.759,9.169,7.531,8.255z"/>
<path fill="#785647" d="M7.761,9.224c0.321-0.514,2.765,1.704,2.832,4.683c0.006,0.188-1.283-0.232-2.062-1.042
	C8.532,12.865,7.47,9.684,7.761,9.224z"/>
<path fill="#3E3A47" d="M5.969,11.493c0,0,5.132,2.594,5.735-0.984C8.333,8.933,5.969,11.493,5.969,11.493z"/>
<linearGradient id="SVGID_6_" gradientUnits="userSpaceOnUse" x1="-0.5034" y1="23.1514" x2="13.1514" y2="14.2284">
	<stop  offset="0.0848" style="stop-color:#5C3F2A"/>
	<stop  offset="0.0896" style="stop-color:#5D3F2A"/>
	<stop  offset="0.2907" style="stop-color:#754F33"/>
	<stop  offset="0.5016" style="stop-color:#865939"/>
	<stop  offset="0.729" style="stop-color:#91603D"/>
	<stop  offset="1" style="stop-color:#94623E"/>
	<a:midPointStop  offset="0.0848" style="stop-color:#5C3F2A"/>
	<a:midPointStop  offset="0.2583" style="stop-color:#5C3F2A"/>
	<a:midPointStop  offset="1" style="stop-color:#94623E"/>
</linearGradient>
<path fill="url(#SVGID_6_)" d="M14.069,12.717c-0.21-0.961-1.917-6.82-3.416-5.865c-0.885,0.563-0.486,4.863-0.486,4.863
	c-1.822,0.987-9.6,9.34-9.989,10.222c-0.47,1.06,0.156,1.623,0.021,2.438c-0.206,1.263,1.05,1.832,1.269,1.791
	c0.045,0.453,1.255,1.089,2.033,0.985c1.523-0.206,2.356-1.358,4.044-1.767c6.362-1.538,7.282-3.322,7.496-5.354
	C15.539,15.293,14.069,12.717,14.069,12.717z"/>
<path fill="#1A1626" d="M1.51,23.568c-0.223,0.16-0.761,0.278-0.925,0.063c-0.164-0.216,0.112-0.685,0.333-0.844
	c0.22-0.156,0.53-0.111,0.695,0.103C1.776,23.107,1.73,23.411,1.51,23.568z"/>
<path fill="#785647" d="M10.66,7.589c0.658-0.567,2.443,3.881,1.521,4.886c-0.393,0.428-1.587,0.091-1.747-1.097
	C10.433,11.378,10.224,7.964,10.66,7.589z"/>
<path fill="#1A1626" d="M0.99,21.947C0.764,22.086,0.804,22.174,1,22.098c0.2-0.073,1.162-0.322,1.241,0.711
	c0,0,0.054,0.463,0.176,0.003C2.539,22.352,2.25,21.162,0.99,21.947z"/>
<path fill="#47332A" d="M8.05,15.768c-0.833,0-1.161,0.719-1.086,1.28c0.054,0.416,2.121,0.416,2.174,0
	C9.214,16.441,8.811,15.768,8.05,15.768z"/>
<path fill="#FFFFFF" d="M8.05,15.967c-0.6,0-1.086,0.454-1.086,1.018c0,0.483,0.486,1.017,1.086,1.017s1.087-0.619,1.087-1.017
	C9.137,16.421,8.65,15.967,8.05,15.967z"/>
<ellipse fill="#1A1626" cx="7.946" cy="16.974" rx="0.809" ry="0.809"/>
<path fill="#FFFFFF" d="M7.881,16.571c0,0.292-0.443,0.292-0.443,0C7.438,16.275,7.881,16.275,7.881,16.571z"/>
<path fill="#302C3B" d="M5.352,15.399c0,0,1.063-1.03,3.05-1.602c2.608-0.752,1.694-1.853,1.698-3.133
	C6.121,11.496,5.352,15.399,5.352,15.399z"/>
<path fill="#302C3B" d="M8.841,15.435c0.505-0.069-1.331-0.616-1.697-0.013C6.931,15.773,7.748,15.587,8.841,15.435z"/>
<path fill="#1A1626" d="M5.02,23.608c0.284,2.302-2.589,3.302-3.553,2.556C2.677,26.191,4.494,25.27,5.02,23.608z"/>
<path fill="#302C3B" d="M27.783,19.975c-3.417-0.359-2.621-3.896-6.619-3.207C22.527,20.86,25.357,20.959,27.783,19.975z"/>
<path fill="#3E3A47" d="M23.723,18.977c-2.008-1.609-0.344-4.938-5.118-5.166C20.319,15.304,19.754,18.977,23.723,18.977z"/>
<path fill="#302C3B" d="M14.778,12.117c2.472,1.047,2.945,4.696,6.61,4.166C18.455,14.973,19.754,10.718,14.778,12.117z"/>
<path fill="#3E3A47" d="M16.932,14.51c-0.332-4.714-3.372-3.548-3.372-3.548C13.745,13.271,15.833,12.82,16.932,14.51z"/>
</svg>
