<?xml version="1.0" encoding="utf-8"?>
<!-- Generator: Adobe Illustrator 15.0.0, SVG Export Plug-In . SVG Version: 6.00 Build 0)  -->
<!DOCTYPE svg PUBLIC "-//W3C//DTD SVG 1.1//EN" "http://www.w3.org/Graphics/SVG/1.1/DTD/svg11.dtd" [
	<!ENTITY ns_flows "http://ns.adobe.com/Flows/1.0/">
	<!ENTITY ns_extend "http://ns.adobe.com/Extensibility/1.0/">
	<!ENTITY ns_ai "http://ns.adobe.com/AdobeIllustrator/10.0/">
	<!ENTITY ns_graphs "http://ns.adobe.com/Graphs/1.0/">
]>
<svg version="1.1" id="Layer_1" xmlns:x="&ns_extend;" xmlns:i="&ns_ai;" xmlns:graph="&ns_graphs;"
	 xmlns="http://www.w3.org/2000/svg" xmlns:xlink="http://www.w3.org/1999/xlink" xmlns:a="http://ns.adobe.com/AdobeSVGViewerExtensions/3.0/"
	 x="0px" y="0px" width="64px" height="64px" viewBox="0 0 64 64" enable-background="new 0 0 64 64" xml:space="preserve">
<path fill="#C4CCD1" d="M51.928,21.427c8.115-2.581,10.15,3.995,10.576,5.592c1.039,3.923,0.361,11.462,0.973,15.943
	c0.043,0.333-1.395-0.172-1.449-0.502c-0.668-3.979,0.227-9.832-1.234-14.558C58.395,20.144,48.279,22.591,51.928,21.427z"/>
<path fill="#A2A9AD" d="M62.813,48.179c-0.109-4.593-1.135-4.939-0.396-8.758C62.799,42.55,63.502,43.323,62.813,48.179z"/>
<path fill="#A2A9AD" d="M62.117,46.278c0-5.51-1.025-5.208-0.287-8.818C61.832,41.383,62.861,40.398,62.117,46.278z"/>
<path fill="#A2A9AD" d="M62.824,36.971c-1.031,3.403,0.793,6.265,0.35,10.113C64.258,42.83,62.596,40.274,62.824,36.971z"/>
<path fill="#A2A9AD" d="M62.629,38.175c2.344,5.002,0.973,8.909,0.973,8.909S63.76,43.435,62.629,38.175z"/>
<path fill="#B5BDC2" d="M44.328,36.905c7.17,5.446,8.496,8.979,10.779,12.602c0.422,0.671-0.789,7.877-2.494,9.033
	c0,0,1.254,2.271,2.512,1.267c0.324-0.263,1.506-1.734,1.791-2.578c0.602-1.755-0.047-2.842,0.713-4.441
	c0.395-0.84,2.24-4.427,1.873-5.271c-3.375-7.697-1.986-7.735-0.586-10.514C59.525,35.796,30.052,26.015,44.328,36.905z"/>
<path fill="#302C3B" d="M52.613,58.54c-0.643,1.086-3.221,2.176-2.287,2.176c0.779,0,4.354,0,4.354,0s0.893-0.066,0.625-1.09
	C53.963,59.223,52.613,58.54,52.613,58.54z"/>
<path fill="#B5BDC2" d="M31.632,50.364c0.93-2.203-2.201-3.775,1.725-14.533c5.002-13.709-13.406-13.621-10.667-0.555
	c1.007,4.791,4.036,9.639,4.844,14.871c0.395,2.552,3.303,5.226,1.676,8.309c0.057,0.067,1.387,1.865,2.75,1.169
	C33.398,56.314,30.607,52.793,31.632,50.364z"/>
<path fill="#302C3B" d="M29.21,58.456c-0.631,1.084-3.069,2.26-2.152,2.26c0.77,0,4.283,0,4.283,0s0.879-0.067,0.619-1.091
	C30.634,59.223,29.21,58.456,29.21,58.456z"/>
<path fill="#D18E8E" d="M45.568,45.479c0-0.936,1.072-0.849,1.072,0.19C46.641,48.187,45.568,48.044,45.568,45.479z"/>
<path fill="#D18E8E" d="M48.393,45.479c0-0.936,1.074-0.849,1.074,0.19C49.467,48.187,48.393,48.044,48.393,45.479z"/>
<linearGradient id="SVGID_1_" gradientUnits="userSpaceOnUse" x1="40.6738" y1="42.5234" x2="55.5264" y2="42.5234">
	<stop  offset="0" style="stop-color:#F5ACAC"/>
	<stop  offset="1" style="stop-color:#D18E8E"/>
	<a:midPointStop  offset="0" style="stop-color:#F5ACAC"/>
	<a:midPointStop  offset="0.4909" style="stop-color:#F5ACAC"/>
	<a:midPointStop  offset="1" style="stop-color:#D18E8E"/>
</linearGradient>
<path fill="url(#SVGID_1_)" d="M40.674,44.464c2.898-1.961,2.539,1.511,5.402,1.781c0.607,1.979,1.039,1.922,1.557,0.451
	c0.467-1.326,1.109-1.086,1.664-0.114c0.68,1.188,1.072,1.318,1.348-0.121c3.197-0.494,5.785-2.515,4.58-7.862
	C55.225,38.599,46.578,33.129,40.674,44.464z"/>
<linearGradient id="SVGID_2_" gradientUnits="userSpaceOnUse" x1="35.7871" y1="45.458" x2="35.7871" y2="29.8184">
	<stop  offset="0" style="stop-color:#B5BDC2"/>
	<stop  offset="0.0944" style="stop-color:#BEC7CC"/>
	<stop  offset="0.2741" style="stop-color:#CBD4D9"/>
	<stop  offset="0.4424" style="stop-color:#CFD8DD"/>
	<a:midPointStop  offset="0" style="stop-color:#B5BDC2"/>
	<a:midPointStop  offset="0.3066" style="stop-color:#B5BDC2"/>
	<a:midPointStop  offset="0.4424" style="stop-color:#CFD8DD"/>
</linearGradient>
<path fill="url(#SVGID_2_)" d="M13.047,30.25c4.037,2.339,7.134,7.627,8.441,10.508c3.002,6.623,4.202,2.037,11.826,3.706
	c3.811,0.836,5.342,2.931,13.801-3.588c3.514-2.709,7.217,1.415,10.314-1.917c2.656-2.859,1.678-9.618,2.07-13.53
	c0.379-3.795-1.43-4.949-3.801-4.729c-10.717,1.006-16.297,0.835-20.002,0.278c-4.833-0.727-12.332-2.201-15.709-2.801
	c-1.198-0.213-2.406-0.414-4.372-0.703C12.646,17.041,10.746,28.919,13.047,30.25z"/>
<path fill="#CFD8DD" d="M49.059,38.189c7.094,5.446,7.104,7.979,9.363,11.601c0.418,0.672,0.52,8.879-1.166,10.032
	c0,0,1.24,2.272,2.482,1.266c0.322-0.261,0.941-1.854,1.223-2.697c0.596-1.755,0.002-5.957,0.752-7.557
	c0.391-0.839,0.83-1.347,0.465-2.186c-3.34-7.7-2.365-7.694-1.801-10.674c1.09-5.742-0.092-12.539-1.205-15.064
	C56.418,16.647,37.578,29.331,49.059,38.189z"/>
<path fill="#302C3B" d="M57.256,59.822C56.621,60.911,54.07,62,54.99,62c0.773,0,4.309,0,4.309,0s0.885-0.064,0.619-1.089
	C58.592,60.509,57.256,59.822,57.256,59.822z"/>
<path fill="#CFD8DD" d="M29.878,52.126c1.355-1.968-2.146-5.692,1.996-14.485c6.241-13.279-8.568-15.842-9.302-2.592
	c-0.268,4.864,4.281,10.824,3.732,16.074c-0.267,2.567,0.527,5.537-0.949,8.62c0.053,0.064,1.257,1.865,2.498,1.169
	C29.16,57.603,28.384,54.297,29.878,52.126z"/>
<path fill="#302C3B" d="M25.355,59.743C24.783,60.83,22.568,62,23.399,62c0.7,0,3.891,0,3.891,0s0.799-0.064,0.563-1.088
	C26.65,60.51,25.355,59.743,25.355,59.743z"/>
<path fill="#3C484F" d="M31.173,33.521c5.95-5.099-5.691-10.406-4.674-2.109c0.494,4.025-2.708,3.626-1.76,7.205
	c1.942,7.344,4.321,7.02,4.926,1.897C30.142,36.487,29.16,35.244,31.173,33.521z"/>
<path fill="#3C484F" d="M51.381,33.289c3.977-1.866,3.807,5.514,7.135,0.579c2.398-3.555-0.404-8.825-2.729-5.583
	c-1.701,2.372-5.621-6.802-7.875-0.379C46.783,31.12,48.35,34.712,51.381,33.289z"/>
<path fill="#3C484F" d="M35.697,20.979c1.854,4.359-2.121,0.609-3.024,3.989c-1.139,4.268,6.053,3.451,3.891,8.175
	c-2.229,4.867,5.238,10.287,5.506,4.667c0.277-5.858,6.01-3.128,2.678-8.759c-2.793-4.721,1.9-6.05,0.936-7.676
	C39.482,21.464,35.697,20.979,35.697,20.979z"/>
<path fill="#E3B78D" d="M10.432,17.112c-0.871-2.89-3.214-3.795-2.81-4.005c0.753-0.376,3.417,0.932,4.446,2.837
	C12.662,17.036,10.7,18.007,10.432,17.112z"/>
<linearGradient id="SVGID_3_" gradientUnits="userSpaceOnUse" x1="-15.4229" y1="21.9023" x2="-4.1303" y2="19.5957" gradientTransform="matrix(0.9983 0.0578 -0.0578 0.9983 17.7335 2.9793)">
	<stop  offset="0" style="stop-color:#E8C6BC"/>
	<stop  offset="0.065" style="stop-color:#E1CBC5"/>
	<stop  offset="0.231" style="stop-color:#D4D5D7"/>
	<stop  offset="0.3515" style="stop-color:#CFD8DD"/>
	<a:midPointStop  offset="0" style="stop-color:#E8C6BC"/>
	<a:midPointStop  offset="0.3621" style="stop-color:#E8C6BC"/>
	<a:midPointStop  offset="0.3515" style="stop-color:#CFD8DD"/>
</linearGradient>
<path fill="url(#SVGID_3_)" d="M10.88,14.321c-3.55,3.369-4.394,2.554-6.181,5.747c-0.928,1.654-2.894,4.236-3.492,4.767
	c-0.979,0.865,0.024,3.209,0.024,3.209s0.241,0.418,0.577,0.577c-0.082,0.689,0.867,0.937,1.506,0.909
	c0.898-0.039,2.287-0.557,2.99-0.293c3.658,1.369,5.58,0.163,7.416,1.436c3.053-1.376,5.727-12.26,3.146-13.01
	C14.289,16.915,12.891,12.411,10.88,14.321z"/>
<path fill="#3C484F" d="M3.854,23.915c-0.215,1.425,1.896,3.193,3.25,2.317c4.061-2.625,3.473,0.71,5.672-0.386
	c2.266-1.129,2.846-7.016,1.344-8.84c-0.473-0.574-1.841,0.751-2.799-0.154c-1.342-1.268-6.67,1.483-5.873,4.431
	C5.7,22.217,3.977,23.106,3.854,23.915z"/>
<path opacity="0.8" fill="#1A1626" d="M5.068,27.413c-0.753,1.544-3.26,1.208-3.26,1.208S3.744,28.441,5.068,27.413z"/>
<path fill="#F6C799" d="M11.105,16.068c-0.871-2.89-3.215-3.795-2.81-4.004c0.753-0.376,3.417,0.932,4.445,2.836
	C13.335,15.992,11.374,16.964,11.105,16.068z"/>
<linearGradient id="SVGID_4_" gradientUnits="userSpaceOnUse" x1="13.8286" y1="19.8975" x2="17.9428" y2="17.2503" gradientTransform="matrix(1.1145 0.0696 0.0696 1.0424 -4.8252 -3.0201)">
	<stop  offset="0" style="stop-color:#3C484F"/>
	<stop  offset="0.8727" style="stop-color:#313436"/>
	<a:midPointStop  offset="0" style="stop-color:#3C484F"/>
	<a:midPointStop  offset="0.4909" style="stop-color:#3C484F"/>
	<a:midPointStop  offset="0.8727" style="stop-color:#313436"/>
</linearGradient>
<path fill="url(#SVGID_4_)" d="M12.268,19.894c0.406-1.185,3.336-0.061,4.282-3.436c0.133-0.471-0.077-0.505-0.406-0.551
	c-3.818-0.561-3.13,1.673-4.776,2.256C11.15,18.281,11.713,19.83,12.268,19.894z"/>
<path fill="#232526" d="M11.801,19.065c3.818,0.476,4.877-2.652,4.344-2.632c-2.635,0.1-2.521,1.212-3.75,1.79
	C11.739,18.532,11.66,19.053,11.801,19.065z"/>
<path fill="#1A1626" d="M7.031,19.481c-0.773-0.046-1.113,0.581-1.074,1.09c0.028,0.373,1.945,0.485,2.018,0.117
	C8.074,20.146,7.736,19.521,7.031,19.481z"/>
<path fill="#FFFFFF" d="M7.021,19.661c-0.556-0.031-1.031,0.348-1.062,0.852c-0.025,0.437,0.4,0.94,0.955,0.973
	c0.555,0.031,1.043-0.499,1.063-0.855C8.007,20.126,7.576,19.693,7.021,19.661z"/>
<ellipse transform="matrix(0.0586 -0.9983 0.9983 0.0586 -14.0537 26.2139)" fill="#1A1626" cx="6.872" cy="20.558" rx="0.725" ry="0.755"/>
<path fill="#FFFFFF" d="M6.832,20.19c-0.016,0.265-0.425,0.241-0.409-0.023C6.438,19.904,6.848,19.927,6.832,20.19z"/>
<path fill="#302C3B" d="M7.783,19.225c0.471-0.035-1.203-0.624-1.573-0.101C5.992,19.429,6.76,19.301,7.783,19.225z"/>
<path fill="#E8B4A5" d="M1.545,26.26c-0.076,0.255-0.064,1.909-0.313,1.784c-2.391-1.167-0.679-3.157-0.024-3.209
	C1.656,24.8,1.811,25.365,1.545,26.26z"/>
<path fill="#945744" d="M1.215,25.622c0.268-0.07-0.42,1.627-0.627,1.455C0.238,26.791,0.273,25.855,1.215,25.622z"/>
<path fill="#3C484F" d="M18.086,17.855c-0.994,1.521-3.851,6.886-1.42,7.944c2.625,1.145-2.186,3.159-1.139,6.329
	c0,0,2.836,3.135,5.184,7.055c1.011-0.56-0.578-4.846,1.93-6.383c2.391-1.464,2.327-5.986,1.029-8.301
	c-1.424-2.537-3.967-1.693-3.682-6.322C19.01,17.935,18.086,17.855,18.086,17.855z"/>
</svg>
