<?xml version="1.0" encoding="utf-8"?>
<!-- Generator: Adobe Illustrator 15.0.0, SVG Export Plug-In . SVG Version: 6.00 Build 0)  -->
<!DOCTYPE svg PUBLIC "-//W3C//DTD SVG 1.1//EN" "http://www.w3.org/Graphics/SVG/1.1/DTD/svg11.dtd" [
	<!ENTITY ns_flows "http://ns.adobe.com/Flows/1.0/">
	<!ENTITY ns_extend "http://ns.adobe.com/Extensibility/1.0/">
	<!ENTITY ns_ai "http://ns.adobe.com/AdobeIllustrator/10.0/">
	<!ENTITY ns_graphs "http://ns.adobe.com/Graphs/1.0/">
]>
<svg version="1.1" id="Layer_1" xmlns:x="&ns_extend;" xmlns:i="&ns_ai;" xmlns:graph="&ns_graphs;"
	 xmlns="http://www.w3.org/2000/svg" xmlns:xlink="http://www.w3.org/1999/xlink" xmlns:a="http://ns.adobe.com/AdobeSVGViewerExtensions/3.0/"
	 x="0px" y="0px" width="64px" height="64px" viewBox="0 0 64 64" enable-background="new 0 0 64 64" xml:space="preserve">
<path fill="#574944" d="M9.638,54.796c0.548-0.027,1.121-1.126,0.677-1.111C7.997,53.758,5.928,54.982,9.638,54.796z"/>
<path fill="#473D38" d="M15.513,55.791c0.018-0.795-1.443-1.354-5.083-2.215c-0.299-0.074-0.661,1.042-0.165,1.16
	C13.413,55.492,15.495,56.545,15.513,55.791z"/>
<path fill="#3B322E" d="M14.722,55.65c0.146,0.32,0.924,0.585,1.056,0.251c1.122-2.857-2.282-5.193,0.145-9.12
	c0.469-0.758,0.346-2.492,0.125-2.441C13.68,44.893,11.983,49.621,14.722,55.65z"/>
<path fill="#574944" d="M4.952,39.828c0.524-0.017,1.031-1.271,0.604-1.268C3.348,38.581,1.414,39.941,4.952,39.828z"/>
<path fill="#473D38" d="M10.602,41.142c-0.012-0.917-1.428-1.604-4.938-2.705c-0.286-0.09-0.592,1.188-0.115,1.337
	C8.584,40.738,10.61,42.01,10.602,41.142z"/>
<path fill="#3B322E" d="M9.34,40.045c-0.014,0.34,0.963,1.418,1.187,1.144c1.709-2.11,1.249-6.294,3.592-9.233
	c0.552-0.69,0.512-2.35,0.278-2.31C11.874,30.066,9.476,36.818,9.34,40.045z"/>
<path fill="#574944" d="M59.049,39.828c-0.524-0.017-1.031-1.271-0.605-1.268C60.652,38.581,62.586,39.941,59.049,39.828z"/>
<path fill="#473D38" d="M53.399,41.142c0.011-0.917,1.427-1.604,4.938-2.705c0.286-0.09,0.592,1.188,0.115,1.337
	C55.417,40.738,53.39,42.01,53.399,41.142z"/>
<path fill="#3B322E" d="M54.66,40.045c0.015,0.34-0.963,1.418-1.186,1.144c-1.709-2.11-1.25-6.294-3.593-9.233
	c-0.552-0.69-0.512-2.35-0.278-2.31C52.127,30.066,54.525,36.818,54.66,40.045z"/>
<path fill="#574944" d="M11.474,15.058c0.481,0.279,1.517-0.339,1.13-0.572C10.595,13.272,8.222,13.175,11.474,15.058z"/>
<path fill="#473D38" d="M15.98,19.144c0.41-0.666-0.554-1.946-3.224-4.689c-0.218-0.225-1.083,0.524-0.719,0.898
	C14.341,17.734,15.589,19.777,15.98,19.144z"/>
<path fill="#3B322E" d="M16.06,17.806c-0.33-0.083-1.587,0.645-1.362,0.921c1.726,2.108,5.925,2.53,8.336,5.431
	c0.565,0.681,2.203,0.988,2.211,0.75C25.343,22.361,19.199,18.61,16.06,17.806z"/>
<path fill="#574944" d="M54.364,54.467c-0.548-0.027-1.121-1.125-0.677-1.111C56.004,53.43,58.074,54.652,54.364,54.467z"/>
<path fill="#473D38" d="M48.49,55.463c-0.019-0.795,1.441-1.354,5.082-2.219c0.299-0.07,0.661,1.043,0.165,1.163
	C50.589,55.163,48.507,56.214,48.49,55.463z"/>
<path fill="#3B322E" d="M49.28,55.321c-0.146,0.321-0.924,0.587-1.056,0.251c-1.122-2.855,2.282-5.193-0.146-9.119
	c-0.469-0.76-0.345-2.494-0.124-2.44C50.322,44.563,52.019,49.291,49.28,55.321z"/>
<path fill="#574944" d="M52.528,14.729c-0.481,0.279-1.517-0.34-1.13-0.573C53.407,12.943,55.78,12.845,52.528,14.729z"/>
<path fill="#473D38" d="M48.021,18.816c-0.411-0.667,0.554-1.948,3.224-4.69c0.219-0.226,1.082,0.524,0.719,0.896
	C49.661,17.405,48.413,19.448,48.021,18.816z"/>
<path fill="#3B322E" d="M47.942,17.479c0.329-0.084,1.587,0.644,1.362,0.917c-1.726,2.108-5.925,2.531-8.336,5.432
	c-0.566,0.681-2.203,0.988-2.212,0.75C38.658,22.031,44.803,18.281,47.942,17.479z"/>
<linearGradient id="SVGID_1_" gradientUnits="userSpaceOnUse" x1="40.7188" y1="59" x2="40.7188" y2="23.165">
	<stop  offset="0" style="stop-color:#BA1312"/>
	<stop  offset="0.2022" style="stop-color:#CF2222"/>
	<stop  offset="0.5094" style="stop-color:#E93535"/>
	<stop  offset="0.785" style="stop-color:#F94141"/>
	<stop  offset="1" style="stop-color:#FF4545"/>
	<a:midPointStop  offset="0" style="stop-color:#BA1312"/>
	<a:midPointStop  offset="0.3455" style="stop-color:#BA1312"/>
	<a:midPointStop  offset="1" style="stop-color:#FF4545"/>
</linearGradient>
<path fill="url(#SVGID_1_)" d="M43.455,23.165C41.264,23.202,31.89,23.22,31.89,23.22c-3.968,20.395,0,35.78,0,35.78
	c6.79,0,15.437-3.6,18.672-17.338C53.491,29.218,47.151,23.106,43.455,23.165z"/>
<linearGradient id="SVGID_2_" gradientUnits="userSpaceOnUse" x1="22.1792" y1="59" x2="22.1792" y2="23.166">
	<stop  offset="0" style="stop-color:#D11615"/>
	<stop  offset="0.1649" style="stop-color:#E02625"/>
	<stop  offset="0.4205" style="stop-color:#F13737"/>
	<stop  offset="0.6912" style="stop-color:#FC4242"/>
	<stop  offset="1" style="stop-color:#FF4545"/>
	<a:midPointStop  offset="0" style="stop-color:#D11615"/>
	<a:midPointStop  offset="0.2667" style="stop-color:#D11615"/>
	<a:midPointStop  offset="1" style="stop-color:#FF4545"/>
</linearGradient>
<path fill="url(#SVGID_2_)" d="M20.326,23.166c-3.695-0.059-10.036,6.05-7.107,18.497C16.453,55.4,25.1,59,31.89,59V23.22
	C28.604,23.22,22.517,23.203,20.326,23.166z"/>
<radialGradient id="SVGID_3_" cx="36.8984" cy="67.5781" r="6.1979" gradientTransform="matrix(1.2862 0 0 1.2302 -15.5686 -59.024)" gradientUnits="userSpaceOnUse">
	<stop  offset="0" style="stop-color:#FFDAA3"/>
	<stop  offset="0.186" style="stop-color:#FFD7A1"/>
	<stop  offset="0.3492" style="stop-color:#FFCC9A"/>
	<stop  offset="0.5038" style="stop-color:#FFBA8F"/>
	<stop  offset="0.6531" style="stop-color:#FFA07F"/>
	<stop  offset="0.7986" style="stop-color:#FF806A"/>
	<stop  offset="0.9395" style="stop-color:#FF5851"/>
	<stop  offset="1" style="stop-color:#FF4545"/>
	<a:midPointStop  offset="0" style="stop-color:#FFDAA3"/>
	<a:midPointStop  offset="0.7333" style="stop-color:#FFDAA3"/>
	<a:midPointStop  offset="1" style="stop-color:#FF4545"/>
</radialGradient>
<path fill="url(#SVGID_3_)" d="M40.681,26.435c0,5.897-17.583,5.897-17.583,0c0-6.05,8.792-9.076,8.792-9.076
	S40.681,20.383,40.681,26.435z"/>
<path fill="#1A1626" d="M38.552,30.779c0,4.912-6.662,1.877-6.662,1.877s-6.662,3.035-6.662-1.877c0-5.04,6.662-7.56,6.662-7.56
	S38.552,25.739,38.552,30.779z"/>
<path fill="#1A1626" d="M21.873,38.83c0.751-2.644,7.402,0.04,6.655,2.685C27.542,44.986,20.892,42.301,21.873,38.83z"/>
<path fill="#1A1626" d="M41.904,38.83c-0.749-2.644-7.401,0.04-6.651,2.685C36.234,44.986,42.887,42.301,41.904,38.83z"/>
<path fill="#1A1626" d="M20.33,50.845c1.479-2.282,5.553,2.04,4.074,4.321C23.53,56.516,19.458,52.188,20.33,50.845z"/>
<path fill="#1A1626" d="M43.448,50.845c-1.477-2.282-5.55,2.04-4.073,4.321C40.247,56.516,44.319,52.188,43.448,50.845z"/>
<path fill="#1A1626" d="M15.042,31.399c0.521-2.641,3.344,0.045,2.817,2.687C16.799,39.445,13.975,36.763,15.042,31.399z"/>
<path fill="#1A1626" d="M48.739,31.399c-0.523-2.641-3.345,0.045-2.819,2.687C46.983,39.463,49.806,36.779,48.739,31.399z"/>
<linearGradient id="SVGID_4_" gradientUnits="userSpaceOnUse" x1="31.8882" y1="25.4683" x2="31.8882" y2="11.6733">
	<stop  offset="0" style="stop-color:#1A1626"/>
	<stop  offset="0.3894" style="stop-color:#2D323D"/>
	<stop  offset="0.7446" style="stop-color:#3A444D"/>
	<stop  offset="1" style="stop-color:#3E4A52"/>
	<a:midPointStop  offset="0" style="stop-color:#1A1626"/>
	<a:midPointStop  offset="0.3636" style="stop-color:#1A1626"/>
	<a:midPointStop  offset="1" style="stop-color:#3E4A52"/>
</linearGradient>
<path fill="url(#SVGID_4_)" d="M38.106,12.238c-3.597-0.752-8.833-0.752-12.438,0c-3.883,0.812-5.921,5.652-5.921,7.938
	c0,1.241,8.093,5.292,12.14,5.292c4.047,0.001,12.14-4.051,12.14-5.292C44.027,17.89,41.99,13.049,38.106,12.238z"/>
<path fill="#DED1B7" d="M41.03,15.961c-0.62,2.265-7.002,0.449-6.382-1.813C35.46,11.165,41.841,12.978,41.03,15.961z"/>
<path fill="#DED1B7" d="M22.754,15.961c0.619,2.265,7.001,0.449,6.383-1.813C28.328,11.165,21.944,12.978,22.754,15.961z"/>
<path fill="#1A1626" d="M33.008,6.996c-0.901-0.282-1.277-0.282-2.181,0c-0.972,0.306-2.186,2.498-2.186,3.359
	c0,2.164,6.553,2.164,6.553,0C35.194,9.494,33.981,7.301,33.008,6.996z"/>
<path fill="#3B322E" d="M29.4,9.822c-1.012-2.685-1.729-3.665-2.115-3.565c-2.461,0.647-1.77-2.764,0.248-0.428
	c0.727,0.843,2.307,3.25,2.497,3.723C30.109,9.754,29.507,10.112,29.4,9.822z"/>
<path fill="#3B322E" d="M34.969,9.822c1.013-2.685,1.73-3.665,2.116-3.565c2.461,0.647,1.77-2.764-0.247-0.428
	c-0.727,0.843-2.307,3.25-2.497,3.723C34.261,9.754,34.863,10.112,34.969,9.822z"/>
<linearGradient id="SVGID_5_" gradientUnits="userSpaceOnUse" x1="31.8892" y1="14.0981" x2="31.8892" y2="7.7754">
	<stop  offset="0" style="stop-color:#1A1626"/>
	<stop  offset="0.3894" style="stop-color:#2D323D"/>
	<stop  offset="0.7446" style="stop-color:#3A444D"/>
	<stop  offset="1" style="stop-color:#3E4A52"/>
	<a:midPointStop  offset="0" style="stop-color:#1A1626"/>
	<a:midPointStop  offset="0.3636" style="stop-color:#1A1626"/>
	<a:midPointStop  offset="1" style="stop-color:#3E4A52"/>
</linearGradient>
<path fill="url(#SVGID_5_)" d="M33.883,8.033c-1.647-0.344-2.334-0.344-3.988,0c-1.778,0.373-3.997,3.042-3.997,4.089
	c0,2.635,11.983,2.635,11.983,0C37.881,11.076,35.663,8.406,33.883,8.033z"/>
<path fill="#FFFFFF" d="M35.652,10.607c-0.285,1.039-2.354-0.244-2.07-1.281C33.955,7.96,36.023,9.242,35.652,10.607z"/>
<path fill="#FFFFFF" d="M28.132,10.607c0.283,1.039,2.352-0.244,2.069-1.281C29.83,7.96,27.76,9.242,28.132,10.607z"/>
</svg>
