<?xml version="1.0" encoding="utf-8"?>
<!-- Generator: Adobe Illustrator 15.0.0, SVG Export Plug-In . SVG Version: 6.00 Build 0)  -->
<!DOCTYPE svg PUBLIC "-//W3C//DTD SVG 1.1//EN" "http://www.w3.org/Graphics/SVG/1.1/DTD/svg11.dtd" [
	<!ENTITY ns_flows "http://ns.adobe.com/Flows/1.0/">
	<!ENTITY ns_extend "http://ns.adobe.com/Extensibility/1.0/">
	<!ENTITY ns_ai "http://ns.adobe.com/AdobeIllustrator/10.0/">
	<!ENTITY ns_graphs "http://ns.adobe.com/Graphs/1.0/">
]>
<svg version="1.1" id="Layer_1" xmlns:x="&ns_extend;" xmlns:i="&ns_ai;" xmlns:graph="&ns_graphs;"
	 xmlns="http://www.w3.org/2000/svg" xmlns:xlink="http://www.w3.org/1999/xlink" xmlns:a="http://ns.adobe.com/AdobeSVGViewerExtensions/3.0/"
	 x="0px" y="0px" width="64px" height="64px" viewBox="0 0 64 64" enable-background="new 0 0 64 64" xml:space="preserve">
<linearGradient id="SVGID_1_" gradientUnits="userSpaceOnUse" x1="172.0146" y1="193.457" x2="169.7505" y2="180.6864" gradientTransform="matrix(0.5547 -0.832 0.938 0.6253 -235.2132 45.0442)">
	<stop  offset="0" style="stop-color:#224559;stop-opacity:0.5"/>
	<stop  offset="0.1014" style="stop-color:#34596F;stop-opacity:0.5507"/>
	<stop  offset="0.4131" style="stop-color:#6893AC;stop-opacity:0.7066"/>
	<stop  offset="0.6776" style="stop-color:#8DBDD9;stop-opacity:0.8388"/>
	<stop  offset="0.8814" style="stop-color:#A4D7F5;stop-opacity:0.9407"/>
	<stop  offset="1" style="stop-color:#ADE1FF"/>
	<a:midPointStop  offset="0" style="stop-color:#224559;stop-opacity:0.5"/>
	<a:midPointStop  offset="0.4121" style="stop-color:#224559;stop-opacity:0.5"/>
	<a:midPointStop  offset="1" style="stop-color:#ADE1FF"/>
</linearGradient>
<path opacity="0.5" fill="url(#SVGID_1_)" d="M42.848,2.597c-9.73,4.581-14.181,19.385-22.266,33.254
	c2.44-0.677,5.333-4.354,10.064-8.462c0,0,4.849-3.47,12.629-9.147C45.668,14.873,51.076-1.279,42.848,2.597z"/>
<path fill="#1A1626" d="M29.762,55.348c-0.598-0.661-2.828-0.193-2.352,0.353C29.879,58.539,33.813,59.822,29.762,55.348z"/>
<path fill="#1A1626" d="M27.248,51.064c-1.676,0.476-1.47,1.8,0.165,4.771c0.133,0.247,2.812-0.195,2.589-0.602
	C28.611,52.653,28.845,50.612,27.248,51.064z"/>
<path fill="#1A1626" d="M25.979,52.051c-0.157,0.713,2.827,0.31,3.048-0.411c1.211-3.905,2.577-10.85,0.745-10.539
	C28.353,41.341,26.941,47.589,25.979,52.051z"/>
<linearGradient id="SVGID_2_" gradientUnits="userSpaceOnUse" x1="39.7021" y1="42.5098" x2="43.5034" y2="32.0658" gradientTransform="matrix(0.9995 0.0322 -0.0322 0.9995 12.903 8.1498)">
	<stop  offset="0" style="stop-color:#1A1626"/>
	<stop  offset="0.6082" style="stop-color:#564949"/>
	<stop  offset="0.9515" style="stop-color:#73615A"/>
	<a:midPointStop  offset="0" style="stop-color:#1A1626"/>
	<a:midPointStop  offset="0.4679" style="stop-color:#1A1626"/>
	<a:midPointStop  offset="0.9515" style="stop-color:#73615A"/>
</linearGradient>
<path fill="url(#SVGID_2_)" d="M53.814,40.982L49.07,51.055c2.34-0.9,4.07-1.018,4.07-1.018l2.624-3.256
	C55.765,46.781,55.68,44.369,53.814,40.982z"/>
<linearGradient id="SVGID_3_" gradientUnits="userSpaceOnUse" x1="-66.9312" y1="201.2393" x2="-62.4059" y2="188.8062" gradientTransform="matrix(0.5915 0.7373 -0.0535 0.4397 104.2712 12.1247)">
	<stop  offset="0" style="stop-color:#1A1626"/>
	<stop  offset="0.6082" style="stop-color:#564949"/>
	<stop  offset="0.9515" style="stop-color:#73615A"/>
	<a:midPointStop  offset="0" style="stop-color:#1A1626"/>
	<a:midPointStop  offset="0.4679" style="stop-color:#1A1626"/>
	<a:midPointStop  offset="0.9515" style="stop-color:#73615A"/>
</linearGradient>
<path fill="url(#SVGID_3_)" d="M55.765,46.781c0,0-1.89,0.878-2.624,3.256c1.861,0.674,3.268,2.964,3.268,2.964
	S57.165,50.978,55.765,46.781z"/>
<linearGradient id="SVGID_4_" gradientUnits="userSpaceOnUse" x1="40.5957" y1="25.9082" x2="34.4141" y2="44.2556" gradientTransform="matrix(0.9995 0.0322 -0.0322 0.9995 12.903 8.1498)">
	<stop  offset="0" style="stop-color:#FFE600"/>
	<stop  offset="0.329" style="stop-color:#FFE300"/>
	<stop  offset="0.5911" style="stop-color:#FFD900"/>
	<stop  offset="0.8293" style="stop-color:#FFC800"/>
	<stop  offset="1" style="stop-color:#FFB700"/>
	<a:midPointStop  offset="0" style="stop-color:#FFE600"/>
	<a:midPointStop  offset="0.7515" style="stop-color:#FFE600"/>
	<a:midPointStop  offset="1" style="stop-color:#FFB700"/>
</linearGradient>
<path fill="url(#SVGID_4_)" d="M49.07,51.055c1.774-2.278,4.63-7.414,4.744-10.072c0,0-0.977-2.109-4.206-5.082L43.08,51.275
	C45.42,51.468,47.404,51.348,49.07,51.055z"/>
<linearGradient id="SVGID_5_" gradientUnits="userSpaceOnUse" x1="29.2832" y1="42.5713" x2="35.7909" y2="24.6914" gradientTransform="matrix(0.9995 0.0322 -0.0322 0.9995 12.903 8.1498)">
	<stop  offset="0" style="stop-color:#1A1626"/>
	<stop  offset="0.6082" style="stop-color:#564949"/>
	<stop  offset="0.9515" style="stop-color:#73615A"/>
	<a:midPointStop  offset="0" style="stop-color:#1A1626"/>
	<a:midPointStop  offset="0.4679" style="stop-color:#1A1626"/>
	<a:midPointStop  offset="0.9515" style="stop-color:#73615A"/>
</linearGradient>
<path fill="url(#SVGID_5_)" d="M43.08,51.275c3.114-2.858,6.592-11.018,6.528-15.375c0,0-1.573-1.543-4.629-3.083L37.578,50.35
	C39.596,50.846,41.428,51.141,43.08,51.275z"/>
<linearGradient id="SVGID_6_" gradientUnits="userSpaceOnUse" x1="30.2583" y1="22.4844" x2="24.0212" y2="40.9967" gradientTransform="matrix(0.9995 0.0322 -0.0322 0.9995 12.903 8.1498)">
	<stop  offset="0" style="stop-color:#FFE600"/>
	<stop  offset="0.329" style="stop-color:#FFE300"/>
	<stop  offset="0.5911" style="stop-color:#FFD900"/>
	<stop  offset="0.8293" style="stop-color:#FFC800"/>
	<stop  offset="1" style="stop-color:#FFB700"/>
	<a:midPointStop  offset="0" style="stop-color:#FFE600"/>
	<a:midPointStop  offset="0.7515" style="stop-color:#FFE600"/>
	<a:midPointStop  offset="1" style="stop-color:#FFB700"/>
</linearGradient>
<path fill="url(#SVGID_6_)" d="M37.578,50.35c2.451-3.055,7.076-13.145,7.401-17.532c-1.458-0.771-3.101-1.526-4.947-2.25
	l-7.674,18.177C34.222,49.426,35.961,49.953,37.578,50.35z"/>
<linearGradient id="SVGID_7_" gradientUnits="userSpaceOnUse" x1="18.9263" y1="39.3115" x2="25.683" y2="20.7475" gradientTransform="matrix(0.9995 0.0322 -0.0322 0.9995 12.903 8.1498)">
	<stop  offset="0" style="stop-color:#1A1626"/>
	<stop  offset="0.6082" style="stop-color:#564949"/>
	<stop  offset="0.9515" style="stop-color:#73615A"/>
	<a:midPointStop  offset="0" style="stop-color:#1A1626"/>
	<a:midPointStop  offset="0.4679" style="stop-color:#1A1626"/>
	<a:midPointStop  offset="0.9515" style="stop-color:#73615A"/>
</linearGradient>
<path fill="url(#SVGID_7_)" d="M31.718,48.512c0.218,0.083,0.427,0.151,0.64,0.232c3.273-3.147,7.846-13.795,7.674-18.177
	c-0.208-0.085-0.413-0.17-0.631-0.253c-1.804-0.683-3.337-1.036-4.675-1.147l-7.228,17.115
	C28.547,47.078,29.916,47.825,31.718,48.512z"/>
<linearGradient id="SVGID_8_" gradientUnits="userSpaceOnUse" x1="19.9219" y1="19.1211" x2="13.6828" y2="37.6391" gradientTransform="matrix(0.9995 0.0322 -0.0322 0.9995 12.903 8.1498)">
	<stop  offset="0" style="stop-color:#FFE600"/>
	<stop  offset="0.329" style="stop-color:#FFE300"/>
	<stop  offset="0.5911" style="stop-color:#FFD900"/>
	<stop  offset="0.8293" style="stop-color:#FFC800"/>
	<stop  offset="1" style="stop-color:#FFB700"/>
	<a:midPointStop  offset="0" style="stop-color:#FFE600"/>
	<a:midPointStop  offset="0.7515" style="stop-color:#FFE600"/>
	<a:midPointStop  offset="1" style="stop-color:#FFB700"/>
</linearGradient>
<path fill="url(#SVGID_8_)" d="M27.499,46.282c3.775-4.896,6.903-12.706,7.228-17.115C26.119,28.46,21.097,41.424,27.499,46.282z"/>
<path fill="#574944" d="M35.838,58.965c-0.86-0.641-3.02,0.215-2.334,0.747C37.078,62.478,41.641,63.296,35.838,58.965z"/>
<path fill="#473D38" d="M31.708,54.605c-1.586,0.783-0.902,2.217,1.849,5.258c0.225,0.251,2.862-0.646,2.489-1.063
	C33.688,56.158,33.216,53.862,31.708,54.605z"/>
<path fill="#3B322E" d="M30.728,55.892c0.092,0.814,3.062-0.088,3.04-0.921c-0.109-4.506-1.123-12.401-2.926-11.778
	C29.442,43.675,30.165,50.808,30.728,55.892z"/>
<linearGradient id="SVGID_9_" gradientUnits="userSpaceOnUse" x1="134.71" y1="116.4043" x2="132.2786" y2="102.6904" gradientTransform="matrix(0.8718 -0.4899 0.5523 0.9828 -130.8981 -18.6715)">
	<stop  offset="0" style="stop-color:#224559;stop-opacity:0.5"/>
	<stop  offset="0.1014" style="stop-color:#34596F;stop-opacity:0.5507"/>
	<stop  offset="0.4131" style="stop-color:#6893AC;stop-opacity:0.7066"/>
	<stop  offset="0.6776" style="stop-color:#8DBDD9;stop-opacity:0.8388"/>
	<stop  offset="0.8814" style="stop-color:#A4D7F5;stop-opacity:0.9407"/>
	<stop  offset="1" style="stop-color:#ADE1FF"/>
	<a:midPointStop  offset="0" style="stop-color:#224559;stop-opacity:0.5"/>
	<a:midPointStop  offset="0.4121" style="stop-color:#224559;stop-opacity:0.5"/>
	<a:midPointStop  offset="1" style="stop-color:#ADE1FF"/>
</linearGradient>
<path opacity="0.5" fill="url(#SVGID_9_)" d="M60.595,11.235c-10.781-0.263-21.565,10.941-35.158,19.689
	c3.992,2.417,12.838-1.236,20.639-1.95C59.037,27.788,69.713,11.458,60.595,11.235z"/>
<path fill="#1A1626" d="M9.542,43.14c0.108-0.612-0.864-1.4-0.96-0.903C8.08,44.822,8.807,47.289,9.542,43.14z"/>
<path fill="#1A1626" d="M10.708,39.797c-0.791-0.529-1.344,0.241-2.19,2.511c-0.069,0.188,1.044,1.194,1.16,0.885
	C10.42,41.236,11.459,40.301,10.708,39.797z"/>
<path fill="#1A1626" d="M9.814,39.715c-0.388,0.293,0.81,1.459,1.225,1.194c2.247-1.436,5.974-4.352,5.209-5.036
	C15.655,35.342,12.239,37.881,9.814,39.715z"/>
<path fill="#1A1626" d="M17.266,46.815c-0.144-0.605-1.353-0.952-1.244-0.458C16.596,48.928,18.247,50.914,17.266,46.815z"/>
<path fill="#1A1626" d="M17.003,43.291c-0.939-0.182-1.139,0.742-1.01,3.156c0.01,0.199,1.434,0.693,1.418,0.364
	C17.315,44.724,17.895,43.463,17.003,43.291z"/>
<path fill="#1A1626" d="M16.15,43.562c-0.24,0.419,1.328,1.027,1.602,0.623c1.493-2.19,3.755-6.315,2.778-6.648
	C19.774,37.277,17.646,40.936,16.15,43.562z"/>
<linearGradient id="SVGID_10_" gradientUnits="userSpaceOnUse" x1="23.9136" y1="43.9141" x2="23.9136" y2="23.7671">
	<stop  offset="0" style="stop-color:#E37900"/>
	<stop  offset="0.2284" style="stop-color:#E88900"/>
	<stop  offset="0.6722" style="stop-color:#F4B200"/>
	<stop  offset="1" style="stop-color:#FFD500"/>
	<a:midPointStop  offset="0" style="stop-color:#E37900"/>
	<a:midPointStop  offset="0.5576" style="stop-color:#E37900"/>
	<a:midPointStop  offset="1" style="stop-color:#FFD500"/>
</linearGradient>
<path fill="url(#SVGID_10_)" d="M33.166,36.912c-0.877-0.202-1.407-0.551-1.407-0.551c0.45-0.948,1.148-1.509,1.735-1.832
	c1.2-0.661,1.154-0.479,0.512-1.465c-1.268-1.937-3.399-2.78-3.399-2.78c0.479-0.081,0.954-0.242,1.348-0.402
	c1.125-0.457,0.749-0.706,0.214-1.269c-2.104-2.212-4.31-2.074-5.522-2.199c0.165-0.276,0.283-0.896,0.356-1.358
	c0.111-0.717,0.09-0.695-1.068-0.622c-0.678,0.043-1.615,0.219-2.684,0.746c0.189-0.256,0.289-0.622,0.346-0.927
	c0.116-0.654-0.406-0.508-1.025-0.359c-7.604,1.828-11.502,11.708-7.753,16.824c0.872,1.189,0.691,1.363,1.826,0.491
	c0.24-0.185,0.471-0.397,0.605-0.61c0.554,1.546,1.45,2.372,2.141,2.803c0.968,0.602,1.043,0.498,1.274-0.244
	c0.153-0.493,0.197-0.931,0.197-0.931c1.031,0.614,2.479,1.892,4.847,1.66c1.113-0.108,1.178-0.113,0.914-0.796
	c-0.129-0.332-0.306-0.719-0.49-0.906c0,0,2.004,0.908,4.275-0.082c1.21-0.525,1.446-0.511,0.573-1.239
	c-0.285-0.236-0.623-0.468-0.895-0.515c1.756-0.303,2.828-1.177,3.457-1.95C34.533,37.176,34.456,37.209,33.166,36.912z"/>
<path fill="#574944" d="M18.733,48.131c-0.252-0.727-1.573-0.925-1.377-0.33C18.383,50.89,20.443,53.043,18.733,48.131z"/>
<path fill="#473D38" d="M17.868,43.793c-1.011-0.043-1.065,1.145-0.527,4.125c0.043,0.246,1.615,0.587,1.543,0.18
	C18.431,45.518,18.83,43.834,17.868,43.793z"/>
<path fill="#3B322E" d="M17.021,44.295c-0.18,0.569,1.559,1.023,1.779,0.467c0.521-1.322,1.139-3.138,1.573-4.778
	c-0.599-0.975-1.853-1.525-1.853-1.525S17.627,42.374,17.021,44.295z"/>
<path fill="#574944" d="M10.266,44.815c0.145-0.753-0.904-1.571-1.03-0.958C8.572,47.042,9.28,49.918,10.266,44.815z"/>
<path fill="#473D38" d="M11.698,40.626c-0.857-0.531-1.504,0.474-2.536,3.325c-0.085,0.235,1.107,1.299,1.25,0.909
	C11.319,42.398,12.511,41.131,11.698,40.626z"/>
<path fill="#3B322E" d="M10.708,40.647c-0.444,0.407,0.84,1.651,1.312,1.275c1.119-0.895,2.567-2.17,3.771-3.383
	c-0.029-1.138-0.843-2.229-0.843-2.229S12.202,39.277,10.708,40.647z"/>
<path fill="#45332C" d="M13.066,23.703c-3.428-4.482-7.275-5.321-7.428-4.965c-1.694,3.948-5.438,6.166-5.235,6.745
	c0.339,0.961,5.666-3.047,5.664-5.547c0.002-0.452,3.543,1.217,5.619,4.175C11.894,24.403,13.281,23.99,13.066,23.703z"/>
<linearGradient id="SVGID_11_" gradientUnits="userSpaceOnUse" x1="13.7612" y1="36.4268" x2="13.7612" y2="20.0986">
	<stop  offset="0" style="stop-color:#1A1626"/>
	<stop  offset="0.6082" style="stop-color:#564949"/>
	<stop  offset="0.9515" style="stop-color:#73615A"/>
	<a:midPointStop  offset="0" style="stop-color:#1A1626"/>
	<a:midPointStop  offset="0.4679" style="stop-color:#1A1626"/>
	<a:midPointStop  offset="0.9515" style="stop-color:#73615A"/>
</linearGradient>
<path fill="url(#SVGID_11_)" d="M18.179,33.652C6.347,40.107,4.155,34.359,7.755,26.019C14.227,11.029,27.385,28.631,18.179,33.652z
	"/>
<path fill="#45332C" d="M14.27,21.749c-2.087-6.021-5.935-8.273-6.225-7.947C4.815,17.452-0.014,18.515,0,19.21
	c0.02,1.149,7.188-1.281,8.076-3.97c0.161-0.484,3.389,2.556,4.568,6.462C12.761,22.089,14.406,22.134,14.27,21.749z"/>
<path fill="#1A1626" d="M11.098,25.706c-2.316,0-3.222,1.932-3.02,3.439c0.151,1.119,5.894,1.119,6.042,0
	C14.336,27.514,13.213,25.706,11.098,25.706z"/>
<path fill="#FFFFFF" d="M11.098,26.242c-1.667,0-3.02,1.225-3.02,2.732c0,1.304,1.353,2.733,3.02,2.733
	c1.671,0,3.022-1.666,3.022-2.733C14.121,27.467,12.769,26.242,11.098,26.242z"/>
<ellipse fill="#1A1626" cx="10.808" cy="28.947" rx="2.256" ry="2.176"/>
<path fill="#FFFFFF" d="M10.63,27.86c0,0.79-1.232,0.79-1.232,0C9.398,27.068,10.63,27.068,10.63,27.86z"/>
</svg>
