<?xml version="1.0" encoding="utf-8"?>
<!-- Generator: Adobe Illustrator 15.0.0, SVG Export Plug-In . SVG Version: 6.00 Build 0)  -->
<!DOCTYPE svg PUBLIC "-//W3C//DTD SVG 1.1//EN" "http://www.w3.org/Graphics/SVG/1.1/DTD/svg11.dtd" [
	<!ENTITY ns_flows "http://ns.adobe.com/Flows/1.0/">
	<!ENTITY ns_extend "http://ns.adobe.com/Extensibility/1.0/">
	<!ENTITY ns_ai "http://ns.adobe.com/AdobeIllustrator/10.0/">
	<!ENTITY ns_graphs "http://ns.adobe.com/Graphs/1.0/">
]>
<svg version="1.1" id="Layer_1" xmlns:x="&ns_extend;" xmlns:i="&ns_ai;" xmlns:graph="&ns_graphs;"
	 xmlns="http://www.w3.org/2000/svg" xmlns:xlink="http://www.w3.org/1999/xlink" xmlns:a="http://ns.adobe.com/AdobeSVGViewerExtensions/3.0/"
	 x="0px" y="0px" width="64px" height="64px" viewBox="0 0 64 64" enable-background="new 0 0 64 64" xml:space="preserve">
<linearGradient id="SVGID_1_" gradientUnits="userSpaceOnUse" x1="18.582" y1="62" x2="18.582" y2="28.7378">
	<stop  offset="0" style="stop-color:#FFCA91"/>
	<stop  offset="0.0242" style="stop-color:#FCC58C"/>
	<stop  offset="0.1684" style="stop-color:#ECAD70"/>
	<stop  offset="0.3248" style="stop-color:#DF9A5B"/>
	<stop  offset="0.4977" style="stop-color:#D68C4C"/>
	<stop  offset="0.6995" style="stop-color:#D18443"/>
	<stop  offset="1" style="stop-color:#CF8240"/>
	<a:midPointStop  offset="0" style="stop-color:#FFCA91"/>
	<a:midPointStop  offset="0.2182" style="stop-color:#FFCA91"/>
	<a:midPointStop  offset="1" style="stop-color:#CF8240"/>
</linearGradient>
<path fill-rule="evenodd" clip-rule="evenodd" fill="url(#SVGID_1_)" d="M15.82,38.622c1.021,3.004,2.646,18.924,2.742,20.38
	C15.948,60.678,16.436,62,17.541,62c0.917,0,2.106,0,3.668,0c1.669,0,1.1-22.024,1.178-24.067
	C22.838,25.977,11.232,25.139,15.82,38.622z"/>
<linearGradient id="SVGID_2_" gradientUnits="userSpaceOnUse" x1="42.3809" y1="62" x2="42.3809" y2="24.4614">
	<stop  offset="0" style="stop-color:#FFCA91"/>
	<stop  offset="0.0242" style="stop-color:#FCC58C"/>
	<stop  offset="0.1684" style="stop-color:#ECAD70"/>
	<stop  offset="0.3248" style="stop-color:#DF9A5B"/>
	<stop  offset="0.4977" style="stop-color:#D68C4C"/>
	<stop  offset="0.6995" style="stop-color:#D18443"/>
	<stop  offset="1" style="stop-color:#CF8240"/>
	<a:midPointStop  offset="0" style="stop-color:#FFCA91"/>
	<a:midPointStop  offset="0.2182" style="stop-color:#FFCA91"/>
	<a:midPointStop  offset="1" style="stop-color:#CF8240"/>
</linearGradient>
<path fill-rule="evenodd" clip-rule="evenodd" fill="url(#SVGID_2_)" d="M31.579,37.292c10.733,1.256,8.66,6.369,19.36,14.811
	c1.731,1.366,1.671,5.443,1.768,6.899C49.912,60.826,50.582,62,51.686,62c0.916,0,2.106,0,3.668,0c1.668,0,1.053-8.715,0.06-10.453
	c-6.778-11.841,0.28-19.313-7.056-24.263C33.84,17.49,22.602,36.24,31.579,37.292z"/>
<path fill-rule="evenodd" clip-rule="evenodd" fill="#DE9659" d="M41.949,24.046c-13.458,1.52-18.416-0.921-20.312-6.116
	c-1.231-3.374-2.659-6.806-8.629-6.381c-4.558,0.565-6.992,2.967-6.992,5.257c0,0.272,6.123,6.214,6.29,11.631
	c0.125,4.046-0.249,12.991,11.104,14.106c14.123,1.39,16.321-3.871,23.838-4.216c1.98-0.092,9.048,1.536,9.601-0.05
	C59.61,30.348,54.871,22.585,41.949,24.046z"/>
<path fill-rule="evenodd" clip-rule="evenodd" fill="#EFE9E6" d="M38.081,36.845c-13.092,7.073-31.767-0.748-21.922-10.554
	c1.115-1.11,3.085-2.933,3.288-4.979c0.12-1.213-1.659-4.837-4.959-3.111c-4.569,2.389-2.723-0.068-4.789-2.122
	c-0.974-0.968-2.938-1.047-3.683,0.728c0,0.427-5.045,1.229-3.341,3.895c0.111,1.325,1.395,2.476,1.989,2.542
	c0,0.835,0.218,1.615,1.283,1.313c4.805-1.369,5.77,2.577,5.597,3.851c-0.479,3.527,0.081,13.872,11.434,14.988
	c14.123,1.389,18.104-5.184,21.889-3.358C44.867,40.035,43.335,35.564,38.081,36.845z"/>
<linearGradient id="SVGID_3_" gradientUnits="userSpaceOnUse" x1="15.2349" y1="14.8291" x2="8.6973" y2="9.7228">
	<stop  offset="0.1939" style="stop-color:#DE9659"/>
	<stop  offset="0.31" style="stop-color:#DF995E"/>
	<stop  offset="0.4509" style="stop-color:#E0A26D"/>
	<stop  offset="0.6046" style="stop-color:#E3B086"/>
	<stop  offset="0.7675" style="stop-color:#E7C4A8"/>
	<stop  offset="0.9358" style="stop-color:#EDDED3"/>
	<stop  offset="1" style="stop-color:#EFE9E6"/>
	<a:midPointStop  offset="0.1939" style="stop-color:#DE9659"/>
	<a:midPointStop  offset="0.6667" style="stop-color:#DE9659"/>
	<a:midPointStop  offset="1" style="stop-color:#EFE9E6"/>
</linearGradient>
<path fill-rule="evenodd" clip-rule="evenodd" fill="url(#SVGID_3_)" d="M9.578,8.183c0.318-0.678,4.329,0.369,6.38,5.884
	c0,0-3.221,2.909-5.372,0.715C9.921,13.837,9.321,8.732,9.578,8.183z"/>
<path fill-rule="evenodd" clip-rule="evenodd" fill="#8C674A" d="M9.578,8.304c0,0,2.443,2.391,2.666,7.003
	c0,0-1.178,0.057-1.495-0.546C9.689,12.767,9.578,8.304,9.578,8.304z"/>
<path fill-rule="evenodd" clip-rule="evenodd" fill="#1A1626" d="M3.237,18.409c0,0,0.828,0.312,0.96,1.04
	C4.333,20.208,2.675,20.7,2.675,20.7C2.287,20.554,1.111,18.646,3.237,18.409z"/>
<path fill="#6E8189" d="M4.688,23.65c-0.085-0.271-0.361-0.523-0.361-0.523s2.087,0.289,4.675-1.042
	C6.998,23.65,4.688,23.65,4.688,23.65z"/>
<linearGradient id="SVGID_4_" gradientUnits="userSpaceOnUse" x1="57.5938" y1="63.0381" x2="45.0809" y2="31.5307">
	<stop  offset="0" style="stop-color:#FFDDBA"/>
	<stop  offset="0.0846" style="stop-color:#F8CDA5"/>
	<stop  offset="0.2198" style="stop-color:#EEB989"/>
	<stop  offset="0.3666" style="stop-color:#E7AA74"/>
	<stop  offset="0.5288" style="stop-color:#E29F65"/>
	<stop  offset="0.7181" style="stop-color:#DF985C"/>
	<stop  offset="1" style="stop-color:#DE9659"/>
	<a:midPointStop  offset="0" style="stop-color:#FFDDBA"/>
	<a:midPointStop  offset="0.2182" style="stop-color:#FFDDBA"/>
	<a:midPointStop  offset="1" style="stop-color:#DE9659"/>
</linearGradient>
<path fill-rule="evenodd" clip-rule="evenodd" fill="url(#SVGID_4_)" d="M61.15,51.87C55.736,39,61.285,32.233,53.949,27.284
	C39.433,17.49,28.194,36.24,37.172,37.292c10.732,1.256,8.658,6.369,19.358,14.811c1.732,1.366,1.672,5.443,1.769,6.899
	C56.479,59.857,56.174,62,57.277,62c0.917,0,2.107,0,3.668,0C62.53,62,62.101,54.129,61.15,51.87z"/>
<linearGradient id="SVGID_5_" gradientUnits="userSpaceOnUse" x1="16.6489" y1="59.791" x2="24.983" y2="29.1236">
	<stop  offset="0" style="stop-color:#FFDDBA"/>
	<stop  offset="0.0846" style="stop-color:#F8CDA5"/>
	<stop  offset="0.2198" style="stop-color:#EEB989"/>
	<stop  offset="0.3666" style="stop-color:#E7AA74"/>
	<stop  offset="0.5288" style="stop-color:#E29F65"/>
	<stop  offset="0.7181" style="stop-color:#DF985C"/>
	<stop  offset="1" style="stop-color:#DE9659"/>
	<a:midPointStop  offset="0" style="stop-color:#FFDDBA"/>
	<a:midPointStop  offset="0.2182" style="stop-color:#FFDDBA"/>
	<a:midPointStop  offset="1" style="stop-color:#DE9659"/>
</linearGradient>
<path fill-rule="evenodd" clip-rule="evenodd" fill="url(#SVGID_5_)" d="M18.604,33.792c0.229,2.168,0.884,6.112,2.106,8.13
	c-2.4,2.165-6.368,6.483-7.064,7.731c-1.028,1.841-0.243,9.454,0.861,9.454c0.917,0,2.99-0.291,2.099-6.381
	c-0.197-1.348,9.97-7.32,10.513-9.277c0.588-2.119,1.121-6.59,1.244-9.849C28.714,24.329,17.413,22.512,18.604,33.792z"/>
<linearGradient id="SVGID_6_" gradientUnits="userSpaceOnUse" x1="39.1318" y1="25.6328" x2="54.1924" y2="25.6328">
	<stop  offset="0" style="stop-color:#EFE9E6"/>
	<stop  offset="0.0617" style="stop-color:#EDDED3"/>
	<stop  offset="0.2238" style="stop-color:#E7C4A8"/>
	<stop  offset="0.3805" style="stop-color:#E3B086"/>
	<stop  offset="0.5284" style="stop-color:#E0A26D"/>
	<stop  offset="0.664" style="stop-color:#DF995E"/>
	<stop  offset="0.7758" style="stop-color:#DE9659"/>
	<a:midPointStop  offset="0" style="stop-color:#EFE9E6"/>
	<a:midPointStop  offset="0.3333" style="stop-color:#EFE9E6"/>
	<a:midPointStop  offset="0.7758" style="stop-color:#DE9659"/>
</linearGradient>
<path fill="url(#SVGID_6_)" d="M46.512,16.942c-3.06-0.089-6.477,1.557-6.857,4.244c0.311-0.476,0.808-0.91,1.389-1.312
	c-1.274,1.163-2.056,2.81-1.889,5.265c0.112-0.487,0.328-1.001,0.598-1.519c-0.695,2.134-0.083,4.981,0.809,6.362
	c-0.068-0.293-0.114-0.609-0.148-0.938c1.159,2.803,3.484,3.238,3.484,5.095c0,0.997,3.165-2.102,1.766-7.263
	c-1.04-3.843,3.037-4.773,2.602-2.757c3.624,0.81,5.672,2.436,5.672,2.436C54.946,23.602,53.078,17.133,46.512,16.942z"/>
<path fill="#6E8189" d="M7.805,16.271c-0.787,0.12-0.996,0.862-0.856,1.396c0.109,0.395,2.06,0.096,2.053-0.313
	C8.991,16.754,8.521,16.161,7.805,16.271z"/>
<path fill="#FFFFFF" d="M7.832,16.467c-0.567,0.086-0.966,0.595-0.891,1.139c0.064,0.472,0.597,0.917,1.163,0.831
	c0.565-0.089,0.942-0.76,0.89-1.145C8.918,16.749,8.398,16.379,7.832,16.467z"/>
<path fill="#1A1626" d="M7.759,16.674c0.422-0.067,0.815,0.23,0.875,0.661c0.06,0.433-0.236,0.836-0.658,0.9
	c-0.42,0.065-0.812-0.232-0.872-0.666C7.045,17.141,7.337,16.735,7.759,16.674z"/>
<path fill="#FFFFFF" d="M7.752,17.072c0.041,0.284-0.377,0.347-0.415,0.063C7.294,16.852,7.713,16.785,7.752,17.072z"/>
<path fill="#C7D0D9" d="M5.741,21.087c0.064,0.183-0.185,0.269-0.251,0.085C5.405,20.934,5.655,20.85,5.741,21.087z"/>
<path fill="#C7D0D9" d="M4.643,21.252c0.065,0.181-0.185,0.268-0.251,0.083C4.307,21.098,4.557,21.015,4.643,21.252z"/>
<path fill="#C7D0D9" d="M3.579,21.102c0.066,0.182-0.186,0.266-0.251,0.083C3.244,20.947,3.494,20.864,3.579,21.102z"/>
<path fill="#C7D0D9" d="M6.917,20.852c0.063,0.182-0.187,0.27-0.251,0.084C6.581,20.698,6.831,20.615,6.917,20.852z"/>
<path fill="#C7D0D9" d="M6.502,21.908c0.065,0.183-0.184,0.269-0.25,0.084C6.168,21.754,6.417,21.672,6.502,21.908z"/>
<path fill="#C7D0D9" d="M4.2,22.109c0.064,0.18-0.185,0.266-0.251,0.082C3.865,21.953,4.115,21.87,4.2,22.109z"/>
<path fill="#C7D0D9" d="M5.391,22.105c0.063,0.18-0.186,0.266-0.252,0.083C5.055,21.949,5.306,21.866,5.391,22.105z"/>
<path fill="#C7D0D9" d="M7.685,21.664c0.065,0.183-0.185,0.269-0.251,0.084C7.35,21.51,7.601,21.427,7.685,21.664z"/>
</svg>
