<?xml version="1.0" encoding="utf-8"?>
<!-- Generator: Adobe Illustrator 15.0.0, SVG Export Plug-In . SVG Version: 6.00 Build 0)  -->
<!DOCTYPE svg PUBLIC "-//W3C//DTD SVG 1.1//EN" "http://www.w3.org/Graphics/SVG/1.1/DTD/svg11.dtd" [
	<!ENTITY ns_flows "http://ns.adobe.com/Flows/1.0/">
	<!ENTITY ns_extend "http://ns.adobe.com/Extensibility/1.0/">
	<!ENTITY ns_ai "http://ns.adobe.com/AdobeIllustrator/10.0/">
	<!ENTITY ns_graphs "http://ns.adobe.com/Graphs/1.0/">
]>
<svg version="1.1" id="Layer_1" xmlns:x="&ns_extend;" xmlns:i="&ns_ai;" xmlns:graph="&ns_graphs;"
	 xmlns="http://www.w3.org/2000/svg" xmlns:xlink="http://www.w3.org/1999/xlink" xmlns:a="http://ns.adobe.com/AdobeSVGViewerExtensions/3.0/"
	 x="0px" y="0px" width="64px" height="64px" viewBox="0 0 64 64" enable-background="new 0 0 64 64" xml:space="preserve">
<path fill="#297124" d="M1.997,21.224c0,0,7.284-6.474,8.606-0.799C10.603,20.425,4.148,27.021,1.997,21.224z"/>
<radialGradient id="SVGID_1_" cx="15.6865" cy="44.0234" r="12.9696" gradientTransform="matrix(0.9643 0 0 1.0717 -4.2296 -21.95)" gradientUnits="userSpaceOnUse">
	<stop  offset="0" style="stop-color:#649C2B"/>
	<stop  offset="0.2432" style="stop-color:#73AA2D"/>
	<stop  offset="0.7071" style="stop-color:#8AC131"/>
	<stop  offset="1" style="stop-color:#92C932"/>
	<a:midPointStop  offset="0" style="stop-color:#649C2B"/>
	<a:midPointStop  offset="0.3939" style="stop-color:#649C2B"/>
	<a:midPointStop  offset="1" style="stop-color:#92C932"/>
</radialGradient>
<path fill="url(#SVGID_1_)" d="M17.089,12.257c-3.977-4.839-18.352-1.403-17,5.626c0.239,1.235,0.581,2.437,0.79,3.111
	c0.107,0.354,0.399,0.225,0.532,0.088c1.518-1.524,4.926-0.056,8.317-2.067c-1.952,2.733-7.731,2.209-7.731,2.209
	c-0.691,2.085,0.631,5.559,6.892,4.23c5.422-1.146-1.797,14.312,12.006,13.13c3.974,1.43,4.807-1.865,5.173-3.881
	c0.612-3.375-8.528-1.627-7.973-5.29C18.75,25.092,20.07,15.881,17.089,12.257z"/>
<path fill="#297124" d="M1.335,15.578c-0.2-0.229,0.649-1.341,0.899-1.183C2.511,14.57,1.556,15.824,1.335,15.578z"/>
<path fill="#174014" d="M8.743,12.576c-1.518,0-2.116,1.289-1.979,2.29c0.092,0.748,3.867,0.748,3.964,0
	C10.867,13.782,10.134,12.576,8.743,12.576z"/>
<path fill="#FFFFFF" d="M8.743,12.937c-1.094,0-1.979,0.813-1.979,1.817c0,0.867,0.883,1.825,1.979,1.822
	c1.097,0,1.985-1.11,1.985-1.822C10.728,13.75,9.842,12.937,8.743,12.937z"/>
<path fill="#1A1626" d="M8.551,13.289c0.822-0.002,1.483,0.65,1.483,1.454c0,0.795-0.662,1.443-1.483,1.443
	c-0.818,0-1.479-0.648-1.479-1.443C7.072,13.939,7.733,13.289,8.551,13.289z"/>
<path fill="#FFFFFF" d="M8.437,14.021c0,0.518-0.813,0.518-0.813,0C7.624,13.486,8.437,13.486,8.437,14.021z"/>
<linearGradient id="SVGID_2_" gradientUnits="userSpaceOnUse" x1="55.958" y1="43.7578" x2="64" y2="43.7578">
	<stop  offset="0" style="stop-color:#649C2B"/>
	<stop  offset="0.2993" style="stop-color:#6DA52C"/>
	<stop  offset="0.7859" style="stop-color:#85BC30"/>
	<stop  offset="1" style="stop-color:#92C932"/>
	<a:midPointStop  offset="0" style="stop-color:#649C2B"/>
	<a:midPointStop  offset="0.6" style="stop-color:#649C2B"/>
	<a:midPointStop  offset="1" style="stop-color:#92C932"/>
</linearGradient>
<path fill="url(#SVGID_2_)" d="M58.188,41.063l-2.23,2.904c3.61,4.219,7.946,1.904,8.041,1.398
	C64.066,45.008,59.357,43.801,58.188,41.063z"/>
<path fill="#528008" d="M54.635,40.641c-2.227-1.871-7.744-1.068-8.518,0c-1.271,1.77-2.945,5.5-3.935,7.121
	c-0.358,0.588-0.944,5.229-1.101,5.545c-2.097,4.186-0.463,5.768,0.838,5.957c2.03,0.295,6.477,0.08,7.365-0.242
	c2.481-0.9-1.664-3.15,0.051-9.121C53.17,47.086,55.317,41.211,54.635,40.641z"/>
<path fill="#174014" d="M41.34,59.084c0.381-1.475-0.113-5.689-0.707-4.787C37.962,58.361,40.422,58.916,41.34,59.084z"/>
<path fill="#174014" d="M44.523,59.402c0.709-5.477-3.279-6.863-2.217-0.092C42.307,59.311,43.408,59.68,44.523,59.402z"/>
<path fill="#528008" d="M30.147,41.531c-2.195-1.916-7.187-1.943-7.976-0.889c-1.303,1.74-3.209,5.137-4.228,6.74
	c-0.37,0.578-1.034,5.209-1.194,5.518c-2.17,4.146-0.564,5.76,0.733,5.977c2.025,0.336,6.473,0.211,7.367-0.09
	c2.495-0.85-1.609-3.184,0.209-9.119C28.94,46.93,30.821,42.117,30.147,41.531z"/>
<linearGradient id="SVGID_3_" gradientUnits="userSpaceOnUse" x1="36.2568" y1="51.3672" x2="36.2568" y2="34.1914">
	<stop  offset="0" style="stop-color:#FF9900"/>
	<stop  offset="0.1707" style="stop-color:#FFAA00"/>
	<stop  offset="0.4089" style="stop-color:#FFBB00"/>
	<stop  offset="0.671" style="stop-color:#FFC500"/>
	<stop  offset="1" style="stop-color:#FFC800"/>
	<a:midPointStop  offset="0" style="stop-color:#FF9900"/>
	<a:midPointStop  offset="0.2485" style="stop-color:#FF9900"/>
	<a:midPointStop  offset="1" style="stop-color:#FFC800"/>
</linearGradient>
<path fill="url(#SVGID_3_)" d="M17.014,43.639c-2.069-1.723-3.325-7.344-2.55-8.516c2.113-3.197,47.353,2.375,43.597,8.412
	C53.9,50.217,33.211,57.127,17.014,43.639z"/>
<path fill="#F59E01" d="M45.99,44.49c-0.41,2.129-0.975,5.943-0.975,5.943S47.459,46.992,45.99,44.49z"/>
<path fill="#F59E01" d="M38.206,44.66c-1.278,2.039,0.313,6.355,0.313,6.355S38.906,47.236,38.206,44.66z"/>
<path fill="#F59E01" d="M30.19,42.086c-1.121,2.135,0.865,8.115,0.865,8.115S31.008,44.596,30.19,42.086z"/>
<path fill="#32572D" d="M58.401,42.572c-27.111,11.787-26.544-4.482-43.938-7.449c-0.206-0.035-0.433,1.883-0.193,1.92
	c13.453,2.061,14.998,20.453,43.083,7.447C57.566,44.391,58.516,43.41,58.401,42.572z"/>
<radialGradient id="SVGID_4_" cx="31.9019" cy="31.2891" r="10.9191" gradientTransform="matrix(0.9049 0.367 -0.6726 2.0297 10.7193 -38.6959)" gradientUnits="userSpaceOnUse">
	<stop  offset="0.2303" style="stop-color:#92C932"/>
	<stop  offset="1" style="stop-color:#649C2B"/>
	<a:midPointStop  offset="0.2303" style="stop-color:#92C932"/>
	<a:midPointStop  offset="0.5197" style="stop-color:#92C932"/>
	<a:midPointStop  offset="1" style="stop-color:#649C2B"/>
</radialGradient>
<path fill="url(#SVGID_4_)" d="M28.534,38.143c-2.576-2.166-6.931-4.061-7.821-2.822c-1.471,2.043-6.119,11.223-7.266,13.1
	c-0.412,0.676-1.091,6.045-1.271,6.408c-2.426,4.844-0.535,6.674,0.967,6.893c2.349,0.342,7.49,0.092,8.519-0.279
	c2.869-1.043-1.925-3.641,0.057-10.549C26.152,47.635,29.322,38.801,28.534,38.143z"/>
<path fill="#3A5C06" d="M12.472,61.514c0.441-1.707-0.128-6.582-0.814-5.541C8.566,60.674,11.413,61.316,12.472,61.514z"/>
<path fill="#3A5C06" d="M16.155,61.883c0.82-6.334-3.792-7.941-2.563-0.105C13.592,61.777,14.865,62.201,16.155,61.883z"/>
<radialGradient id="SVGID_5_" cx="-115.8887" cy="240.7305" r="9.0535" gradientTransform="matrix(0.8421 -0.5141 0.9903 1.8695 -95.3048 -465.8936)" gradientUnits="userSpaceOnUse">
	<stop  offset="0.2303" style="stop-color:#92C932"/>
	<stop  offset="1" style="stop-color:#649C2B"/>
	<a:midPointStop  offset="0.2303" style="stop-color:#92C932"/>
	<a:midPointStop  offset="0.5197" style="stop-color:#92C932"/>
	<a:midPointStop  offset="1" style="stop-color:#649C2B"/>
</radialGradient>
<path fill="url(#SVGID_5_)" d="M55.137,41.367c-2.407-0.91-9.895-1.164-9.6,0.379c0.484,2.541,2.016,7.27,2.813,9.162
	c0.313,0.738,3.702,5.688,3.839,6.072c1.835,5.145,4.341,4.756,5.464,3.648c1.756-1.727,4.904-6.156,5.307-7.25
	c1.121-3.053-3.514-1.637-6.502-5.24C56.839,46.055,55.543,41.525,55.137,41.367z"/>
<path fill="#3A5C06" d="M57.074,61.055c-0.914-1.469-4.703-4.145-4.414-2.902C53.961,63.756,56.254,61.805,57.074,61.055z"/>
<path fill="#3A5C06" d="M59.71,58.236c-3.915-4.773-8.021-1.982-1.729,2.059C57.98,60.295,59.102,59.51,59.71,58.236z"/>
<linearGradient id="SVGID_6_" gradientUnits="userSpaceOnUse" x1="14.9146" y1="31.9336" x2="58.0605" y2="31.9336">
	<stop  offset="0" style="stop-color:#56A134"/>
	<stop  offset="0.2297" style="stop-color:#549D34"/>
	<stop  offset="0.4642" style="stop-color:#4E9132"/>
	<stop  offset="0.701" style="stop-color:#447C31"/>
	<stop  offset="0.9379" style="stop-color:#36602E"/>
	<stop  offset="1" style="stop-color:#32572D"/>
	<a:midPointStop  offset="0" style="stop-color:#56A134"/>
	<a:midPointStop  offset="0.703" style="stop-color:#56A134"/>
	<a:midPointStop  offset="1" style="stop-color:#32572D"/>
</linearGradient>
<path fill="url(#SVGID_6_)" d="M14.915,31.678c10.395-18.704,36.781-15.136,43.146,7.919C40.108,51.357,25.916,37.469,14.915,31.678
	z"/>
<path fill="#32572D" d="M42.465,40.049c-5.464,0-8.754-2.404-12.689-5.283c-3.188-2.331-6.78-4.959-12.389-6.786
	c0,0,0.35-0.531,0.818-0.94c5.489,1.869,9.042,4.467,12.202,6.779c6.251,4.57,10.796,7.898,26.131,1.449
	c0.315,0.486,0.438,1.063,0.438,1.063C50.643,38.996,46.078,40.049,42.465,40.049z"/>
<polygon fill="#32572D" points="29.786,40.016 28.78,39.545 33.008,29.654 28.225,24.922 22.171,29.503 19.264,34.039 
	18.348,33.393 21.446,28.628 28.321,23.427 34.334,29.377 "/>
<polygon fill="#32572D" points="42.791,44.043 41.689,43.963 42.481,32.315 39.68,27.812 33.861,30.057 33.48,28.975 40.123,26.409 
	43.608,32.011 "/>
<polygon fill="#32572D" points="54.499,41.322 49.553,30.962 43.187,32.723 42.904,31.607 50.139,29.606 55.486,40.807 "/>
<polygon fill="#32572D" points="50.33,30.562 49.359,30.01 50.982,26.873 51.789,27.738 "/>
<polygon fill="#32572D" points="28.819,24.255 27.727,24.092 28.201,20.597 29.357,20.281 "/>
<polygon fill="#32572D" points="40.435,27.262 39.371,26.958 41.011,20.692 42.061,21.047 "/>
<polygon fill="#32572D" points="25.07,36.752 24.092,36.217 26.387,31.604 27.366,32.137 "/>
<polygon fill="#32572D" points="35.809,43.41 34.75,43.078 36.148,38.178 37.206,38.51 "/>
<polygon fill="#32572D" points="47.852,43.807 47.166,38.959 48.256,38.789 48.941,43.637 "/>
<linearGradient id="SVGID_7_" gradientUnits="userSpaceOnUse" x1="36.6777" y1="23.3335" x2="36.6777" y2="47.3677">
	<stop  offset="0" style="stop-color:#56A134"/>
	<stop  offset="0.2297" style="stop-color:#549D34"/>
	<stop  offset="0.4642" style="stop-color:#4E9132"/>
	<stop  offset="0.701" style="stop-color:#447C31"/>
	<stop  offset="0.9379" style="stop-color:#36602E"/>
	<stop  offset="1" style="stop-color:#32572D"/>
	<a:midPointStop  offset="0" style="stop-color:#56A134"/>
	<a:midPointStop  offset="0.703" style="stop-color:#56A134"/>
	<a:midPointStop  offset="1" style="stop-color:#32572D"/>
</linearGradient>
<path fill="url(#SVGID_7_)" d="M57.355,39.346c-27.111,11.787-24.627-4.768-42.021-7.733c-2.791-0.477-3.174,3.702-0.328,4.139
	c13.453,2.061,15.693,20.029,43.777,7.023C61.559,41.488,60.216,38.104,57.355,39.346z"/>
</svg>
