<?xml version="1.0" encoding="utf-8"?>
<!-- Generator: Adobe Illustrator 15.0.0, SVG Export Plug-In . SVG Version: 6.00 Build 0)  -->
<!DOCTYPE svg PUBLIC "-//W3C//DTD SVG 1.1//EN" "http://www.w3.org/Graphics/SVG/1.1/DTD/svg11.dtd" [
	<!ENTITY ns_flows "http://ns.adobe.com/Flows/1.0/">
	<!ENTITY ns_extend "http://ns.adobe.com/Extensibility/1.0/">
	<!ENTITY ns_ai "http://ns.adobe.com/AdobeIllustrator/10.0/">
	<!ENTITY ns_graphs "http://ns.adobe.com/Graphs/1.0/">
]>
<svg version="1.1" id="Layer_1" xmlns:x="&ns_extend;" xmlns:i="&ns_ai;" xmlns:graph="&ns_graphs;"
	 xmlns="http://www.w3.org/2000/svg" xmlns:xlink="http://www.w3.org/1999/xlink" xmlns:a="http://ns.adobe.com/AdobeSVGViewerExtensions/3.0/"
	 x="0px" y="0px" width="64px" height="64px" viewBox="0 0 64 64" enable-background="new 0 0 64 64" xml:space="preserve">
<path fill="#D4DADD" d="M58.401,23.359c10.069-10.747-3.056-25.06-14.056-15.29L58.401,23.359z"/>
<linearGradient id="SVGID_1_" gradientUnits="userSpaceOnUse" x1="49.8701" y1="15.186" x2="58.781" y2="15.186">
	<stop  offset="0" style="stop-color:#6D767A"/>
	<stop  offset="0.1682" style="stop-color:#80898C"/>
	<stop  offset="0.7313" style="stop-color:#BCC3C6"/>
	<stop  offset="1" style="stop-color:#D4DADD"/>
	<a:midPointStop  offset="0" style="stop-color:#6D767A"/>
	<a:midPointStop  offset="0.4606" style="stop-color:#6D767A"/>
	<a:midPointStop  offset="1" style="stop-color:#D4DADD"/>
</linearGradient>
<path fill="url(#SVGID_1_)" d="M56.978,21.153c4.904-8-2.75-14.604-8.563-10.854L56.978,21.153z"/>
<path fill="#D4DADD" d="M5.599,23.359C-4.471,12.612,8.654-1.701,19.654,8.069L5.599,23.359z"/>
<linearGradient id="SVGID_2_" gradientUnits="userSpaceOnUse" x1="23.2192" y1="15.186" x2="32.1297" y2="15.186" gradientTransform="matrix(-1 0 0 1 37.3496 0)">
	<stop  offset="0" style="stop-color:#6D767A"/>
	<stop  offset="0.1682" style="stop-color:#80898C"/>
	<stop  offset="0.7313" style="stop-color:#BCC3C6"/>
	<stop  offset="1" style="stop-color:#D4DADD"/>
	<a:midPointStop  offset="0" style="stop-color:#6D767A"/>
	<a:midPointStop  offset="0.4606" style="stop-color:#6D767A"/>
	<a:midPointStop  offset="1" style="stop-color:#D4DADD"/>
</linearGradient>
<path fill="url(#SVGID_2_)" d="M7.022,21.153c-4.904-8,2.75-14.604,8.563-10.854L7.022,21.153z"/>
<path fill="#D4DADD" d="M21.759,10.329c3.859-5.839,10.394-7.027,13.742-7.233c1.517-0.097,1.817,0.151,0.989,1.174
	c-1.211,1.504-2.355,3.697-2.973,6.688C32.749,14.67,20.111,12.831,21.759,10.329z"/>
<path fill="#D4DADD" d="M25.979,11.212c3.996-5.74,10.552-6.76,13.906-6.883c1.516-0.057,1.815,0.197,0.963,1.2
	C39.602,7,38.406,9.167,37.717,12.136C36.857,15.829,24.268,13.669,25.979,11.212z"/>
<path fill="#D4DADD" d="M16.197,9.219c4.007-3.139,8.371-5.069,11.728-5.989c1.468-0.403,1.79-0.365,1.271,0.85
	c-0.762,1.786-0.938,4.459-0.728,7.506C28.725,15.368,13.856,11.054,16.197,9.219z"/>
<radialGradient id="SVGID_3_" cx="89.791" cy="-12.5215" r="29.2586" gradientTransform="matrix(0.9919 0 0 -1.0009 -57.0633 20.2045)" gradientUnits="userSpaceOnUse">
	<stop  offset="0" style="stop-color:#F7FCFF"/>
	<stop  offset="0.3328" style="stop-color:#F3F8FB"/>
	<stop  offset="0.6628" style="stop-color:#E7EDF0"/>
	<stop  offset="0.9818" style="stop-color:#D4DADD"/>
	<a:midPointStop  offset="0" style="stop-color:#F7FCFF"/>
	<a:midPointStop  offset="0.7086" style="stop-color:#F7FCFF"/>
	<a:midPointStop  offset="0.9818" style="stop-color:#D4DADD"/>
</radialGradient>
<path fill="url(#SVGID_3_)" d="M61.71,39.63c2.291-14.603-9.12-35.158-29.711-35.158c-20.592,0-31.987,20.545-29.712,35.158
	C3.976,50.502,16.976,53.65,20.789,56.716c7.104,5.714,15.333,5.714,22.425-0.01C47.006,53.646,60.012,50.486,61.71,39.63z"/>
<path fill="#4A575C" d="M17.765,22.217c-8.299,2.328-3.979,4.479,3.27,3.373C25.125,24.965,23.226,20.685,17.765,22.217z"/>
<path fill="#4A575C" d="M46.232,22.217c-5.461-1.532-7.358,2.748-3.27,3.373C50.212,26.695,54.532,24.545,46.232,22.217z"/>
<path fill="#4A575C" d="M46.923,29.103c-5.317,0-7.401,4.506-6.938,8.022c0.347,2.611,13.537,2.613,13.877,0
	C54.355,33.32,51.782,29.103,46.923,29.103z"/>
<path fill="#FFFFFF" d="M46.925,30.357c-3.834,0-6.938,2.855-6.938,6.374c0,3.041,3.104,6.373,6.938,6.373s6.938-3.887,6.938-6.373
	C53.861,33.212,50.759,30.357,46.925,30.357z"/>
<ellipse fill="#1A1626" cx="46.257" cy="36.668" rx="5.183" ry="5.073"/>
<path fill="#FFFFFF" d="M45.846,34.132c0,1.843-2.826,1.843-2.826,0C43.02,32.284,45.846,32.284,45.846,34.132z"/>
<path fill="#4A575C" d="M17.076,29.103c5.32,0,7.402,4.506,6.938,8.022c-0.346,2.611-13.537,2.613-13.877,0
	C9.642,33.32,12.218,29.103,17.076,29.103z"/>
<path fill="#FFFFFF" d="M17.076,30.357c3.834,0,6.938,2.855,6.938,6.374c0,3.041-3.104,6.373-6.938,6.373s-6.939-3.887-6.939-6.373
	C10.136,33.212,13.242,30.357,17.076,30.357z"/>
<ellipse fill="#1A1626" cx="17.742" cy="36.668" rx="5.18" ry="5.073"/>
<path fill="#FFFFFF" d="M18.154,34.132c0,1.843,2.826,1.843,2.826,0C20.98,32.284,18.154,32.284,18.154,34.132z"/>
<path fill="#D0D9DD" d="M39.952,43.885c-2.688-2.949-13.189-2.945-15.919,0.059c-5.01,5.505-2.021,16.021,7.973,16.007
	C41.988,59.936,44.986,49.414,39.952,43.885z"/>
<path fill="#4A575C" d="M32.074,57.666c-3.404,0-6.586-1.58-8.961-4.453c-0.441-0.531-0.367-1.318,0.166-1.76
	c0.531-0.439,1.318-0.365,1.76,0.166c1.893,2.287,4.391,3.547,7.035,3.547c2.646,0,5.144-1.26,7.037-3.547
	c0.438-0.531,1.227-0.607,1.76-0.166s0.607,1.229,0.166,1.76C38.661,56.086,35.479,57.666,32.074,57.666z"/>
<path id="Shape_4_" fill="#1A1626" d="M24.507,43.948c0-3.022,14.986-3.022,14.986,0c0,2.997-3.728,5.655-7.493,5.655
	C28.232,49.604,24.507,46.945,24.507,43.948L24.507,43.948z"/>
</svg>
