<?xml version="1.0" encoding="utf-8"?>
<!-- Generator: Adobe Illustrator 15.0.0, SVG Export Plug-In . SVG Version: 6.00 Build 0)  -->
<!DOCTYPE svg PUBLIC "-//W3C//DTD SVG 1.1//EN" "http://www.w3.org/Graphics/SVG/1.1/DTD/svg11.dtd" [
	<!ENTITY ns_flows "http://ns.adobe.com/Flows/1.0/">
	<!ENTITY ns_extend "http://ns.adobe.com/Extensibility/1.0/">
	<!ENTITY ns_ai "http://ns.adobe.com/AdobeIllustrator/10.0/">
	<!ENTITY ns_graphs "http://ns.adobe.com/Graphs/1.0/">
]>
<svg version="1.1" id="Layer_1" xmlns:x="&ns_extend;" xmlns:i="&ns_ai;" xmlns:graph="&ns_graphs;"
	 xmlns="http://www.w3.org/2000/svg" xmlns:xlink="http://www.w3.org/1999/xlink" xmlns:a="http://ns.adobe.com/AdobeSVGViewerExtensions/3.0/"
	 x="0px" y="0px" width="64px" height="64px" viewBox="0 0 64 64" enable-background="new 0 0 64 64" xml:space="preserve">
<path fill="#99A8AE" d="M20.889,38.195C-3.433,26.372,4.544-0.535,8.351,2.193C34.096,20.6,25.32,40.348,20.889,38.195z"/>
<linearGradient id="SVGID_1_" gradientUnits="userSpaceOnUse" x1="5.4893" y1="20.8604" x2="21.8901" y2="20.8604">
	<stop  offset="0" style="stop-color:#FDE0DA"/>
	<stop  offset="0.442" style="stop-color:#FEB5BF"/>
	<stop  offset="0.7947" style="stop-color:#FF99AE"/>
	<stop  offset="1" style="stop-color:#FF8FA8"/>
	<a:midPointStop  offset="0" style="stop-color:#FDE0DA"/>
	<a:midPointStop  offset="0.4121" style="stop-color:#FDE0DA"/>
	<a:midPointStop  offset="1" style="stop-color:#FF8FA8"/>
</linearGradient>
<path fill="url(#SVGID_1_)" d="M18.09,34.975C-0.055,25.713,5.894,4.636,8.737,6.771C27.945,21.19,21.396,36.662,18.09,34.975z"/>
<path fill="#99A8AE" d="M43.111,38.195c24.32-11.823,16.346-38.73,12.537-36.002C29.903,20.6,38.679,40.348,43.111,38.195z"/>
<linearGradient id="SVGID_2_" gradientUnits="userSpaceOnUse" x1="42.1094" y1="20.8604" x2="58.5107" y2="20.8604">
	<stop  offset="0" style="stop-color:#FF8FA8"/>
	<stop  offset="0.2053" style="stop-color:#FF99AE"/>
	<stop  offset="0.558" style="stop-color:#FEB5BF"/>
	<stop  offset="1" style="stop-color:#FDE0DA"/>
	<a:midPointStop  offset="0" style="stop-color:#FF8FA8"/>
	<a:midPointStop  offset="0.5879" style="stop-color:#FF8FA8"/>
	<a:midPointStop  offset="1" style="stop-color:#FDE0DA"/>
</linearGradient>
<path fill="url(#SVGID_2_)" d="M45.908,34.975c18.149-9.262,12.197-30.339,9.354-28.204C36.054,21.19,42.604,36.662,45.908,34.975z"
	/>
<path fill="#99A8AE" d="M28.715,26.9c-4.432-3.621-9.937-2.99-12.669-2.352c-1.234,0.288-1.418,0.553-0.523,1.15
	c1.316,0.879,2.738,2.313,3.919,4.492C20.91,32.894,30.611,28.453,28.715,26.9z"/>
<path fill="#99A8AE" d="M26.748,27.257c-5.172-2.434-10.358-0.475-12.854,0.808c-1.127,0.582-1.245,0.883-0.23,1.244
	c1.486,0.531,3.212,1.577,4.88,3.399C20.623,34.975,28.961,28.298,26.748,27.257z"/>
<path fill="#99A8AE" d="M35.286,26.9c4.432-3.621,9.935-2.99,12.667-2.352c1.234,0.288,1.42,0.553,0.525,1.149
	c-1.316,0.879-2.738,2.314-3.919,4.493C43.09,32.894,33.389,28.453,35.286,26.9z"/>
<path fill="#99A8AE" d="M37.254,27.257c5.17-2.434,10.357-0.475,12.853,0.808c1.126,0.582,1.245,0.883,0.229,1.244
	c-1.487,0.531-3.211,1.577-4.881,3.399C43.377,34.975,35.04,28.298,37.254,27.257z"/>
<linearGradient id="SVGID_3_" gradientUnits="userSpaceOnUse" x1="32.001" y1="62" x2="32.001" y2="18.8755">
	<stop  offset="0" style="stop-color:#6B7F8C"/>
	<stop  offset="0.1544" style="stop-color:#7A8C97"/>
	<stop  offset="0.4079" style="stop-color:#8B9CA4"/>
	<stop  offset="0.6799" style="stop-color:#96A5AC"/>
	<stop  offset="1" style="stop-color:#99A8AE"/>
	<a:midPointStop  offset="0" style="stop-color:#6B7F8C"/>
	<a:midPointStop  offset="0.2606" style="stop-color:#6B7F8C"/>
	<a:midPointStop  offset="1" style="stop-color:#99A8AE"/>
</linearGradient>
<path fill="url(#SVGID_3_)" d="M32.002,18.875c14.686,0,26.709,22.969,22.471,32.414C52.166,56.425,41.502,62,32.002,62
	c-9.506,0-20.167-5.575-22.473-10.711C5.29,41.844,17.316,18.875,32.002,18.875z"/>
<radialGradient id="SVGID_4_" cx="45.2949" cy="43.2598" r="17.183" gradientTransform="matrix(1.0948 0 0 1.017 -17.5896 1.7417)" gradientUnits="userSpaceOnUse">
	<stop  offset="0.3697" style="stop-color:#FFFFFF"/>
	<stop  offset="0.5626" style="stop-color:#FBFCFC"/>
	<stop  offset="0.7541" style="stop-color:#EFF1F2"/>
	<stop  offset="0.9446" style="stop-color:#DBE0E3"/>
	<stop  offset="1" style="stop-color:#D4DADD"/>
	<a:midPointStop  offset="0.3697" style="stop-color:#FFFFFF"/>
	<a:midPointStop  offset="0.7086" style="stop-color:#FFFFFF"/>
	<a:midPointStop  offset="1" style="stop-color:#D4DADD"/>
</radialGradient>
<path fill="url(#SVGID_4_)" d="M38.967,44.84c-5.374-4.192-2.288-9.003-5.132-12.667c-1.283-1.658-2.39-1.658-3.673,0
	c-2.844,3.664,0.244,8.474-5.129,12.667c-4.039,3.153-12.803-1.6-13.992,1.144c-2.35,5.415,7.678,14.562,20.96,14.562
	c13.273,0,23.304-9.146,20.953-14.562C51.768,43.241,43.002,47.991,38.967,44.84z"/>
<path fill="#FF8FA8" d="M27.313,49.904c0-2.309,2.101-2.754,4.689-2.754c2.59,0,4.686,0.445,4.686,2.754
	c0,1.835-3.728,3.467-4.686,3.467C31.045,53.371,27.313,51.739,27.313,49.904z"/>
<path fill="#5C6C73" d="M43.596,36.208c-4.965,0-6.908,4.224-6.474,7.519c0.322,2.449,12.633,2.449,12.95,0
	C50.533,40.162,48.131,36.208,43.596,36.208z"/>
<path fill="#FFFFFF" d="M43.598,37.381c-3.579,0-6.476,2.678-6.476,5.976c0,2.851,2.896,5.976,6.476,5.976
	c3.578,0,6.475-3.643,6.475-5.976C50.072,40.059,47.176,37.381,43.598,37.381z"/>
<ellipse fill="#1A1626" cx="42.974" cy="43.297" rx="4.836" ry="4.756"/>
<path fill="#FFFFFF" d="M42.589,40.92c0,1.729-2.638,1.729-2.638,0C39.951,39.188,42.589,39.188,42.589,40.92z"/>
<path fill="#5C6C73" d="M20.406,36.208c4.963,0,6.909,4.224,6.475,7.519c-0.322,2.449-12.635,2.449-12.952,0
	C13.468,40.162,15.871,36.208,20.406,36.208z"/>
<path fill="#FFFFFF" d="M20.404,37.381c3.579,0,6.477,2.678,6.477,5.976c0,2.851-2.898,5.976-6.477,5.976
	c-3.578,0-6.475-3.643-6.475-5.976C13.929,40.059,16.826,37.381,20.404,37.381z"/>
<ellipse fill="#1A1626" cx="21.027" cy="43.297" rx="4.836" ry="4.756"/>
<path fill="#FFFFFF" d="M21.412,40.92c0,1.729,2.638,1.729,2.638,0C24.05,39.188,21.412,39.188,21.412,40.92z"/>
<path fill="#5C6C73" d="M32.002,58.805c-3.178,0-6.149-1.483-8.367-4.176c-0.411-0.499-0.342-1.237,0.154-1.65
	c0.5-0.414,1.232-0.342,1.643,0.156c1.768,2.145,4.1,3.326,6.57,3.326l0,0c2.469-0.001,4.801-1.182,6.565-3.326
	c0.41-0.498,1.145-0.57,1.643-0.156c0.497,0.412,0.567,1.151,0.155,1.65c-2.215,2.691-5.187,4.175-8.361,4.176
	C32.002,58.805,32.002,58.805,32.002,58.805z"/>
<path fill="#5C6C73" d="M21.514,30.69c-7.743,2.183-3.711,4.197,3.054,3.16C28.385,33.266,26.613,29.252,21.514,30.69z"/>
<path fill="#5C6C73" d="M42.484,30.69c-5.096-1.438-6.868,2.576-3.051,3.16C46.198,34.887,50.23,32.873,42.484,30.69z"/>
</svg>
