<?xml version="1.0" encoding="utf-8"?>
<!-- Generator: Adobe Illustrator 15.0.0, SVG Export Plug-In . SVG Version: 6.00 Build 0)  -->
<!DOCTYPE svg PUBLIC "-//W3C//DTD SVG 1.1//EN" "http://www.w3.org/Graphics/SVG/1.1/DTD/svg11.dtd" [
	<!ENTITY ns_flows "http://ns.adobe.com/Flows/1.0/">
	<!ENTITY ns_extend "http://ns.adobe.com/Extensibility/1.0/">
	<!ENTITY ns_ai "http://ns.adobe.com/AdobeIllustrator/10.0/">
	<!ENTITY ns_graphs "http://ns.adobe.com/Graphs/1.0/">
]>
<svg version="1.1" id="Layer_1" xmlns:x="&ns_extend;" xmlns:i="&ns_ai;" xmlns:graph="&ns_graphs;"
	 xmlns="http://www.w3.org/2000/svg" xmlns:xlink="http://www.w3.org/1999/xlink" xmlns:a="http://ns.adobe.com/AdobeSVGViewerExtensions/3.0/"
	 x="0px" y="0px" width="64px" height="64px" viewBox="0 0 64 64" enable-background="new 0 0 64 64" xml:space="preserve">
<path fill="#A87863" d="M24.864,8.923c4.18-5.778,11.022-6.799,14.521-6.916c1.582-0.054,1.891,0.204,1.002,1.21
	c-1.305,1.481-2.557,3.663-3.279,6.66C36.203,13.597,23.078,11.399,24.864,8.923z"/>
<path fill="#A87863" d="M27.386,7.976c5.453-4.594,12.338-3.917,15.76-3.184c1.545,0.333,1.785,0.657,0.678,1.419
	c-1.623,1.118-3.367,2.932-4.795,5.659C37.254,15.261,25.052,9.94,27.386,7.976z"/>
<path fill="#A87863" d="M18.11,8.113c2.758-2.097,8.284-4.856,12.331-5.874c1.533-0.386,1.881-0.296,1.294,0.906
	c-0.864,1.77-1.485,4.202-1.384,7.277C30.476,14.244,15.686,9.956,18.11,8.113z"/>
<path fill="#785647" d="M59.422,39.529c8.541-4.907,4.486-23.824-6.834-17.024C48.043,25.235,54.824,42.171,59.422,39.529z"/>
<radialGradient id="SVGID_1_" cx="1092.335" cy="-893.4346" r="8.572" gradientTransform="matrix(0 0.9308 1.1711 0 1107.3116 -985.6353)" gradientUnits="userSpaceOnUse">
	<stop  offset="0.2606" style="stop-color:#EBBB96"/>
	<stop  offset="0.4854" style="stop-color:#E7B792"/>
	<stop  offset="0.7285" style="stop-color:#DAAA85"/>
	<stop  offset="0.9795" style="stop-color:#C69470"/>
	<stop  offset="1" style="stop-color:#C4926E"/>
	<a:midPointStop  offset="0.2606" style="stop-color:#EBBB96"/>
	<a:midPointStop  offset="0.6911" style="stop-color:#EBBB96"/>
	<a:midPointStop  offset="1" style="stop-color:#C4926E"/>
</radialGradient>
<path opacity="0.7" fill="url(#SVGID_1_)" d="M58.766,37.757c6.209-4.208,3.031-18.552-3.906-12.188
	C52.256,27.959,55.84,39.74,58.766,37.757z"/>
<path fill="#785647" d="M4.578,39.529c-8.541-4.907-4.486-23.824,6.834-17.024C15.957,25.235,9.176,42.171,4.578,39.529z"/>
<radialGradient id="SVGID_2_" cx="1092.335" cy="-1035.2354" r="8.572" gradientTransform="matrix(0 0.9308 -1.1711 0 -1209.3751 -985.6353)" gradientUnits="userSpaceOnUse">
	<stop  offset="0.2606" style="stop-color:#EBBB96"/>
	<stop  offset="0.4854" style="stop-color:#E7B792"/>
	<stop  offset="0.7285" style="stop-color:#DAAA85"/>
	<stop  offset="0.9795" style="stop-color:#C69470"/>
	<stop  offset="1" style="stop-color:#C4926E"/>
	<a:midPointStop  offset="0.2606" style="stop-color:#EBBB96"/>
	<a:midPointStop  offset="0.6911" style="stop-color:#EBBB96"/>
	<a:midPointStop  offset="1" style="stop-color:#C4926E"/>
</radialGradient>
<path opacity="0.7" fill="url(#SVGID_2_)" d="M5.234,37.757c-6.209-4.208-3.031-18.552,3.906-12.188
	C11.744,27.959,8.16,39.74,5.234,37.757z"/>
<path fill="#A87863" d="M57,34.573C57,6.575,38.953,4.353,32,4.353c-6.952,0-25,2.223-25,30.221C7,45.747,57,45.748,57,34.573z"/>
<path fill="#916856" d="M59.424,35.561C52.865,2.787,40.955,14.845,32,14.845c-8.955,0-20.864-12.058-27.423,20.716
	C1.379,51.535,13.377,51.334,17.055,54.27C21.623,57.916,25.914,62,32,62c6.086,0,10.377-4.084,14.946-7.73
	C50.623,51.334,62.621,51.535,59.424,35.561z"/>
<radialGradient id="SVGID_3_" cx="32" cy="41.8604" r="13.2817" gradientTransform="matrix(1 0 0 1.0495 0 2.4759)" gradientUnits="userSpaceOnUse">
	<stop  offset="0" style="stop-color:#EBBB96"/>
	<stop  offset="1" style="stop-color:#EBBB96"/>
	<a:midPointStop  offset="0" style="stop-color:#EBBB96"/>
	<a:midPointStop  offset="0.5" style="stop-color:#EBBB96"/>
	<a:midPointStop  offset="1" style="stop-color:#EBBB96"/>
</radialGradient>
<ellipse fill="url(#SVGID_3_)" cx="32" cy="46.408" rx="13.281" ry="13.939"/>
<radialGradient id="SVGID_4_" cx="41" cy="29.7651" r="15.0002" gradientTransform="matrix(1 0 0 1.0495 0 2.4759)" gradientUnits="userSpaceOnUse">
	<stop  offset="0" style="stop-color:#EBBB96"/>
	<stop  offset="1" style="stop-color:#EBBB96"/>
	<a:midPointStop  offset="0" style="stop-color:#EBBB96"/>
	<a:midPointStop  offset="0.5" style="stop-color:#EBBB96"/>
	<a:midPointStop  offset="1" style="stop-color:#EBBB96"/>
</radialGradient>
<ellipse fill="url(#SVGID_4_)" cx="41" cy="33.715" rx="15" ry="15.742"/>
<radialGradient id="SVGID_5_" cx="23" cy="29.7651" r="15.0002" gradientTransform="matrix(1 0 0 1.0495 0 2.4759)" gradientUnits="userSpaceOnUse">
	<stop  offset="0" style="stop-color:#EBBB96"/>
	<stop  offset="1" style="stop-color:#EBBB96"/>
	<a:midPointStop  offset="0" style="stop-color:#EBBB96"/>
	<a:midPointStop  offset="0.5" style="stop-color:#EBBB96"/>
	<a:midPointStop  offset="1" style="stop-color:#EBBB96"/>
</radialGradient>
<ellipse fill="url(#SVGID_5_)" cx="23" cy="33.715" rx="15" ry="15.742"/>
<path fill="#A87863" d="M36.654,43.064c0.572-2.239-4.858,2.011-3.346,2.326C35.512,45.851,36.398,44.071,36.654,43.064z"/>
<path fill="#A87863" d="M27.343,43.064c-0.568-2.239,4.859,2.011,3.346,2.326C28.488,45.849,27.599,44.071,27.343,43.064z"/>
<g>
	<path fill="#785647" d="M32.001,55.297c-3.405,0-6.588-1.581-8.964-4.453c-0.44-0.532-0.366-1.32,0.166-1.76
		c0.531-0.441,1.32-0.366,1.76,0.166c1.893,2.287,4.392,3.547,7.038,3.547c0,0,0,0,0.001,0c2.646,0,5.144-1.26,7.035-3.547
		c0.439-0.531,1.227-0.608,1.76-0.166c0.531,0.439,0.606,1.228,0.166,1.76c-2.374,2.871-5.557,4.453-8.96,4.453
		C32.002,55.297,32.001,55.297,32.001,55.297z"/>
</g>
<path fill="#785647" d="M44.924,28.838c-5.318,0-7.4,4.506-6.938,8.021c0.346,2.612,13.539,2.612,13.877,0
	C52.359,33.056,49.783,28.838,44.924,28.838z"/>
<path fill="#FFFFFF" d="M44.926,30.09c-3.834,0-6.939,2.855-6.939,6.374c0,3.041,3.105,6.374,6.939,6.374s6.938-3.886,6.938-6.374
	C51.863,32.945,48.76,30.09,44.926,30.09z"/>
<ellipse fill="#1A1626" cx="44.258" cy="36.401" rx="5.182" ry="5.073"/>
<path fill="#FFFFFF" d="M43.846,33.864c0,1.844-2.826,1.844-2.826,0C41.02,32.018,43.846,32.018,43.846,33.864z"/>
<path fill="#785647" d="M19.076,28.838c5.32,0,7.403,4.506,6.938,8.021c-0.346,2.612-13.536,2.612-13.877,0
	C11.644,33.056,14.218,28.838,19.076,28.838z"/>
<path fill="#FFFFFF" d="M19.076,30.09c3.834,0,6.938,2.855,6.938,6.374c0,3.041-3.104,6.374-6.938,6.374s-6.939-3.886-6.939-6.374
	C12.137,32.945,15.242,30.09,19.076,30.09z"/>
<ellipse fill="#1A1626" cx="19.742" cy="36.401" rx="5.181" ry="5.073"/>
<path fill="#FFFFFF" d="M20.154,33.864c0,1.844,2.826,1.844,2.826,0C22.98,32.018,20.154,32.018,20.154,33.864z"/>
<path fill="#785647" d="M19.765,22.952c-8.298,2.328-3.978,4.478,3.271,3.372C27.125,25.7,25.227,21.419,19.765,22.952z"/>
<path fill="#785647" d="M44.234,22.952c-5.461-1.533-7.359,2.748-3.27,3.372C48.213,27.43,52.533,25.28,44.234,22.952z"/>
</svg>
