<?xml version="1.0" encoding="utf-8"?>
<!-- Generator: Adobe Illustrator 24.1.2, SVG Export Plug-In . SVG Version: 6.00 Build 0)  -->
<svg version="1.1" id="Layer_1" xmlns="http://www.w3.org/2000/svg" xmlns:xlink="http://www.w3.org/1999/xlink" x="0px" y="0px"
	 width="64px" height="64px" viewBox="0 0 64 64" style="enable-background:new 0 0 64 64;" xml:space="preserve">
<style type="text/css">
	.st0{fill:url(#SVGID_1_);}
	.st1{fill:#543B28;}
	.st2{fill:url(#SVGID_2_);}
	.st3{fill:url(#SVGID_3_);}
	.st4{fill:url(#SVGID_4_);}
	.st5{fill:url(#SVGID_5_);}
	.st6{fill:url(#SVGID_6_);}
</style>
<radialGradient id="SVGID_1_" cx="29.8681" cy="19.2168" r="43.2577" gradientTransform="matrix(0.9766 0 0 0.8506 -6.097 7.913)" gradientUnits="userSpaceOnUse">
	<stop  offset="0.4364" style="stop-color:#916B50"/>
	<stop  offset="0.663" style="stop-color:#8F694E"/>
	<stop  offset="0.7638" style="stop-color:#886248"/>
	<stop  offset="0.8394" style="stop-color:#7B563D"/>
	<stop  offset="0.9024" style="stop-color:#69452D"/>
	<stop  offset="0.903" style="stop-color:#69452D"/>
</radialGradient>
<path class="st0" d="M45.57,29.67c-6.08-0.89,5.11-12.25-1.21-22.96c-3.75-6.36-8.95-3.85-8.66-0.94
	c2.09,21.45-15.86,28.33-23.69,27.12c-6.75-1.04-6.61,25.4,0,24.29c3.56-0.6,10.62-0.73,11.01-0.5c9.54,5.58,21.63,3.32,22.56,3.14
	V29.67z"/>
<path class="st1" d="M38.54,61.16c-4.55,0-10.53-0.74-15.81-3.81c-0.89-0.13-6.92-0.47-10.72-0.18c3.43-1.01,10.63-1.58,11.38-1.14
	c8.32,4.87,18.83,3.58,21.45,3.16V30.26c-0.65-0.2-1.14-0.55-1.46-1.05c-0.88-1.38-0.23-3.54,0.6-6.28
	c1.3-4.31,3.07-10.22-0.25-15.85c-1.94-3.29-4.22-3.95-5.71-3.46C37,3.95,36.35,4.8,36.44,5.69c1.09,11.23-3.27,17.93-7.12,21.58
	c-5.38,5.1-11.42,6.74-17.31,5.62c6.24,0.15,11.26-1.92,16.3-6.69c3.61-3.42,7.7-9.72,6.66-20.36c-0.16-1.58,0.91-3.07,2.6-3.62
	C39.6,1.55,42.61,2.29,45,6.33c3.65,6.18,1.76,12.45,0.39,17.02c-0.66,2.19-1.28,4.26-0.77,5.07c0.06,0.1,0.26,0.4,1.06,0.52
	l0.63,0.09v31.38l-0.59,0.12C45.11,60.65,42.31,61.16,38.54,61.16z"/>
<radialGradient id="SVGID_2_" cx="-46.253" cy="29.3927" r="7.4316" gradientTransform="matrix(1.4177 0 0 2.0064 103.26 -13.8982)" gradientUnits="userSpaceOnUse">
	<stop  offset="0.2788" style="stop-color:#69452D"/>
	<stop  offset="0.516" style="stop-color:#755138;stop-opacity:0.6124"/>
	<stop  offset="0.8909" style="stop-color:#916B50;stop-opacity:0"/>
</radialGradient>
<path class="st2" d="M38.94,29.91c-16.38-0.69-16.69,29.57-0.71,30.28C46,60.53,46.68,30.24,38.94,29.91z"/>
<radialGradient id="SVGID_3_" cx="48.4785" cy="52.7804" r="7.6776" gradientTransform="matrix(0.9917 0 0 0.6195 -1.4571 23.9264)" gradientUnits="userSpaceOnUse">
	<stop  offset="0.5212" style="stop-color:#916B50"/>
	<stop  offset="0.8485" style="stop-color:#69452D"/>
</radialGradient>
<path class="st3" d="M51.44,53.85c-4.27,0-6.17,0.06-10.23,0.06c-4.2,0-4.98,4.43-3.15,6.03C40,61.64,48.2,61.4,50.37,60.9
	C53.12,60.27,54.83,53.85,51.44,53.85z"/>
<radialGradient id="SVGID_4_" cx="49.4206" cy="44.9274" r="8.9924" gradientTransform="matrix(0.9917 0 0 0.6783 -1.4571 18.4879)" gradientUnits="userSpaceOnUse">
	<stop  offset="0.5212" style="stop-color:#916B50"/>
	<stop  offset="0.8485" style="stop-color:#69452D"/>
</radialGradient>
<path class="st4" d="M52.25,46.05c-5.76,0-6.77,0-12.26,0c-4.15,0-4.14,7.55,0,7.79c2.87,0.17,7.75,0.39,11.44,0
	C55.36,53.44,56.2,46.05,52.25,46.05z"/>
<radialGradient id="SVGID_5_" cx="50.1663" cy="36.6837" r="9.3444" gradientTransform="matrix(0.9917 0 0 0.6535 -1.4571 16.9465)" gradientUnits="userSpaceOnUse">
	<stop  offset="0.5212" style="stop-color:#916B50"/>
	<stop  offset="0.8485" style="stop-color:#69452D"/>
</radialGradient>
<path class="st5" d="M53.57,37.22c-6.1,0-7.91,0.49-13.72,0.49c-4.75,0-4.67,7.48,0,8.35c3.39,0.63,8.09,0.51,12.4,0
	C56.05,45.61,57.4,37.22,53.57,37.22z"/>
<radialGradient id="SVGID_6_" cx="51.0724" cy="27.5459" r="9.959" gradientTransform="matrix(0.9917 0 0 0.6422 -1.4571 14.3133)" gradientUnits="userSpaceOnUse">
	<stop  offset="0.5212" style="stop-color:#916B50"/>
	<stop  offset="0.8485" style="stop-color:#69452D"/>
</radialGradient>
<path class="st6" d="M53.38,28.63c-3.35-0.45-8.53-0.95-13.94,1.92c-2.68,1.42-1.62,6.78,0.62,7.16c2.35,0.39,7.39,0,13.52-0.49
	C57.36,36.92,56.98,29.12,53.38,28.63z"/>
<path class="st1" d="M45.38,62c-3.05,0-6.49-0.35-7.83-1.51c-1.14-1-1.5-2.83-0.88-4.45c0.69-1.79,2.38-2.87,4.53-2.87v1.47
	c-1.52,0-2.66,0.7-3.13,1.91c-0.4,1.05-0.2,2.23,0.47,2.82c1.62,1.41,9.34,1.33,11.65,0.8c1.28-0.29,2.56-2.71,2.35-4.45
	c-0.12-1.02-0.66-1.15-1.11-1.15v-1.47c1.45,0,2.42,0.92,2.6,2.45c0.27,2.31-1.29,5.55-3.5,6.06C49.72,61.81,47.66,62,45.38,62z"/>
<path class="st1" d="M46.49,54.8c-1.93,0-4.11-0.07-6.54-0.22c-2.59-0.16-3.88-2.59-3.81-4.92c0.08-2.56,1.66-4.35,3.85-4.35v1.47
	c-1.57,0-2.31,1.47-2.36,2.92c-0.05,1.61,0.76,3.3,2.4,3.4c4.79,0.29,8.6,0.29,11.32,0c1.75-0.18,2.82-2.29,2.72-4.14
	c-0.04-0.66-0.28-2.19-1.82-2.19v-1.47c1.9,0,3.2,1.41,3.32,3.58c0.13,2.51-1.38,5.4-4.05,5.68C50.11,54.73,48.43,54.8,46.49,54.8z"
	/>
<path class="st1" d="M45.39,47.22c-2.17,0-4.11-0.15-5.67-0.44c-2.98-0.56-4.34-3.4-4.12-5.78c0.23-2.41,1.94-4.02,4.26-4.02v1.47
	c-1.85,0-2.64,1.39-2.77,2.69c-0.17,1.74,0.8,3.8,2.91,4.2c2.98,0.56,7.42,0.55,12.17-0.01c1.79-0.21,3.07-3.05,2.94-5.25
	c-0.05-0.79-0.31-2.11-1.53-2.11v-1.47c1.73,0,2.89,1.34,3.02,3.49c0.18,2.96-1.52,6.49-4.25,6.81
	C49.9,47.07,47.54,47.22,45.39,47.22z"/>
<path class="st1" d="M42.69,38.6C42.69,38.6,42.69,38.6,42.69,38.6c-1.17,0-2.07-0.06-2.76-0.17c-1.34-0.22-2.41-1.64-2.74-3.6
	c-0.37-2.19,0.38-4.13,1.89-4.93c2.99-1.59,6.19-2.36,9.8-2.36c1.74,0,3.3,0.18,4.6,0.36c2.41,0.33,3.59,3.04,3.52,5.55
	c-0.07,2.58-1.39,4.35-3.36,4.51C49.43,38.29,45.46,38.6,42.69,38.6z M48.88,29.02c-3.35,0-6.32,0.71-9.09,2.18
	c-1.15,0.61-1.32,2.21-1.13,3.39c0.21,1.25,0.86,2.28,1.51,2.39c2.1,0.35,7.52-0.03,13.34-0.49c1.41-0.11,1.95-1.73,1.99-3.08
	c0.05-1.83-0.77-3.85-2.23-4.04C52.02,29.19,50.52,29.02,48.88,29.02z"/>
<path class="st1" d="M24.01,56.43c0,0-2.14-1.29-2.85-3.06c-0.11,2.44,1.37,3.76,1.37,3.76L24.01,56.43z"/>
<path class="st1" d="M36.83,44.46c-2.3,2.27-5.27,4.22-8.63,5.13c4.07,0.15,7.68-1.53,10.28-3.79
	C37.93,45.34,37.38,44.89,36.83,44.46z"/>
</svg>
