<?xml version="1.0" encoding="utf-8"?>
<!-- Generator: Adobe Illustrator 24.1.2, SVG Export Plug-In . SVG Version: 6.00 Build 0)  -->
<svg version="1.1" id="Layer_1" xmlns="http://www.w3.org/2000/svg" xmlns:xlink="http://www.w3.org/1999/xlink" x="0px" y="0px"
	 width="64px" height="64px" viewBox="0 0 64 64" style="enable-background:new 0 0 64 64;" xml:space="preserve">
<style type="text/css">
	.st0{fill:url(#SVGID_1_);}
	.st1{fill:url(#SVGID_2_);}
	.st2{fill-rule:evenodd;clip-rule:evenodd;fill:url(#SVGID_3_);}
	.st3{fill-rule:evenodd;clip-rule:evenodd;fill:url(#SVGID_4_);}
	.st4{fill-rule:evenodd;clip-rule:evenodd;fill:#1A1626;}
	.st5{opacity:0.4;fill-rule:evenodd;clip-rule:evenodd;fill:url(#SVGID_5_);}
</style>
<radialGradient id="SVGID_1_" cx="289.3991" cy="-330" r="25.8938" gradientTransform="matrix(1.0667 0 0 -1 -276.6969 -298)" gradientUnits="userSpaceOnUse">
	<stop  offset="0" style="stop-color:#EFF9FF"/>
	<stop  offset="0.1901" style="stop-color:#EBF5FB"/>
	<stop  offset="0.3871" style="stop-color:#DEE9EF"/>
	<stop  offset="0.5873" style="stop-color:#CAD5DB"/>
	<stop  offset="0.7897" style="stop-color:#ADB9BF"/>
	<stop  offset="0.992" style="stop-color:#88969B"/>
	<stop  offset="1" style="stop-color:#869499"/>
</radialGradient>
<path class="st0" d="M64,35.82C64,39.34,52.64,53,32,53C11.36,53,0,39.34,0,35.82C0,29.63,11.36,11,32,11
	C52.64,11,64,29.63,64,35.82z"/>
<radialGradient id="SVGID_2_" cx="294.8365" cy="-440.7144" r="29.0588" gradientTransform="matrix(0.9955 0 0 -0.7601 -261.52 -300.987)" gradientUnits="userSpaceOnUse">
	<stop  offset="0.7576" style="stop-color:#FFFFFF"/>
	<stop  offset="1" style="stop-color:#C9D1D6"/>
</radialGradient>
<path class="st1" d="M61.87,35.64C61.87,38.99,51.26,52,32,52C12.74,52,2.13,38.99,2.13,35.64c0-3.36,12.74-19.64,32-19.64
	C53.4,16,61.87,32.28,61.87,35.64z"/>
<radialGradient id="SVGID_3_" cx="32.0004" cy="34.0074" r="15" gradientTransform="matrix(1 0 0 1 0 0.2426)" gradientUnits="userSpaceOnUse">
	<stop  offset="0.5333" style="stop-color:#996C4D"/>
	<stop  offset="0.6402" style="stop-color:#966A4B"/>
	<stop  offset="0.723" style="stop-color:#8C6347"/>
	<stop  offset="0.7978" style="stop-color:#7C573E"/>
	<stop  offset="0.8674" style="stop-color:#654733"/>
	<stop  offset="0.9212" style="stop-color:#4D3627"/>
</radialGradient>
<circle class="st2" cx="32" cy="34.25" r="15"/>
<linearGradient id="SVGID_4_" gradientUnits="userSpaceOnUse" x1="32.0004" y1="47.9107" x2="32.0004" y2="20.5893">
	<stop  offset="0.0667" style="stop-color:#FF9900"/>
	<stop  offset="0.5939" style="stop-color:#FF9900;stop-opacity:0"/>
</linearGradient>
<circle class="st3" cx="32" cy="34.25" r="13.66"/>
<circle class="st4" cx="32" cy="34.25" r="6.96"/>
<linearGradient id="SVGID_5_" gradientUnits="userSpaceOnUse" x1="21.7905" y1="28.7861" x2="32.5048" y2="28.7861">
	<stop  offset="0.0485" style="stop-color:#FFFFFF"/>
	<stop  offset="1" style="stop-color:#FFFFFF;stop-opacity:0"/>
</linearGradient>
<path class="st5" d="M32.5,28.79c0,2.96-2.4,5.36-5.36,5.36c-2.96,0-5.36-2.4-5.36-5.36c0-2.96,2.4-5.36,5.36-5.36
	C30.11,23.43,32.5,25.83,32.5,28.79z"/>
</svg>
