<?xml version="1.0" encoding="utf-8"?>
<!-- Generator: Adobe Illustrator 15.0.0, SVG Export Plug-In . SVG Version: 6.00 Build 0)  -->
<!DOCTYPE svg PUBLIC "-//W3C//DTD SVG 1.1//EN" "http://www.w3.org/Graphics/SVG/1.1/DTD/svg11.dtd" [
	<!ENTITY ns_flows "http://ns.adobe.com/Flows/1.0/">
	<!ENTITY ns_extend "http://ns.adobe.com/Extensibility/1.0/">
	<!ENTITY ns_ai "http://ns.adobe.com/AdobeIllustrator/10.0/">
	<!ENTITY ns_graphs "http://ns.adobe.com/Graphs/1.0/">
]>
<svg version="1.1" id="Layer_1" xmlns:x="&ns_extend;" xmlns:i="&ns_ai;" xmlns:graph="&ns_graphs;"
	 xmlns="http://www.w3.org/2000/svg" xmlns:xlink="http://www.w3.org/1999/xlink" xmlns:a="http://ns.adobe.com/AdobeSVGViewerExtensions/3.0/"
	 x="0px" y="0px" width="64px" height="64px" viewBox="0 0 64 64" enable-background="new 0 0 64 64" xml:space="preserve">
<radialGradient id="SVGID_1_" cx="38.3721" cy="15.4668" r="4.054" gradientTransform="matrix(1 0 0 1.0117 0 1.3815)" gradientUnits="userSpaceOnUse">
	<stop  offset="0" style="stop-color:#E0E0E0"/>
	<stop  offset="0.3261" style="stop-color:#C6C8C9"/>
	<stop  offset="0.8667" style="stop-color:#92989C"/>
	<a:midPointStop  offset="0" style="stop-color:#E0E0E0"/>
	<a:midPointStop  offset="0.5352" style="stop-color:#E0E0E0"/>
	<a:midPointStop  offset="0.8667" style="stop-color:#92989C"/>
</radialGradient>
<path fill="url(#SVGID_1_)" d="M35.208,14.304l3,3.008h3.532c2.195,0,2.197,2.528,0,2.528h-4.028c-0.002,0-0.002,0-0.003,0
	c-0.323,0-0.643-0.12-0.888-0.366L33.44,16.08C32.953,15.591,34.718,13.814,35.208,14.304z"/>
<radialGradient id="SVGID_2_" cx="33.6396" cy="11.2393" r="3.5958" gradientTransform="matrix(1.0015 0 0 1.016 -0.6877 2.2542)" gradientUnits="userSpaceOnUse">
	<stop  offset="0" style="stop-color:#E0E0E0"/>
	<stop  offset="0.3261" style="stop-color:#C6C8C9"/>
	<stop  offset="0.8667" style="stop-color:#92989C"/>
	<a:midPointStop  offset="0" style="stop-color:#E0E0E0"/>
	<a:midPointStop  offset="0.5352" style="stop-color:#E0E0E0"/>
	<a:midPointStop  offset="0.8667" style="stop-color:#92989C"/>
</radialGradient>
<path fill="url(#SVGID_2_)" d="M36.873,14.675c0,3.563-5.27,3.563-5.27,0C31.604,11.108,36.873,11.108,36.873,14.675z"/>
<radialGradient id="SVGID_3_" cx="25.6157" cy="15.4668" r="4.0537" gradientTransform="matrix(1 0 0 1.0117 0 1.3815)" gradientUnits="userSpaceOnUse">
	<stop  offset="0" style="stop-color:#E0E0E0"/>
	<stop  offset="0.3261" style="stop-color:#C6C8C9"/>
	<stop  offset="0.8667" style="stop-color:#92989C"/>
	<a:midPointStop  offset="0" style="stop-color:#E0E0E0"/>
	<a:midPointStop  offset="0.5352" style="stop-color:#E0E0E0"/>
	<a:midPointStop  offset="0.8667" style="stop-color:#92989C"/>
</radialGradient>
<path fill="url(#SVGID_3_)" d="M28.78,14.304l-3,3.008h-3.532c-2.195,0-2.197,2.528,0,2.528h4.027c0.002,0,0.002,0,0.003,0
	c0.323,0,0.643-0.12,0.887-0.366l3.382-3.394C31.034,15.591,29.269,13.814,28.78,14.304z"/>
<radialGradient id="SVGID_4_" cx="16.7485" cy="11.2393" r="3.5963" gradientTransform="matrix(1.0015 0 0 1.016 11.7386 2.2542)" gradientUnits="userSpaceOnUse">
	<stop  offset="0" style="stop-color:#E0E0E0"/>
	<stop  offset="0.3261" style="stop-color:#C6C8C9"/>
	<stop  offset="0.8667" style="stop-color:#92989C"/>
	<a:midPointStop  offset="0" style="stop-color:#E0E0E0"/>
	<a:midPointStop  offset="0.5352" style="stop-color:#E0E0E0"/>
	<a:midPointStop  offset="0.8667" style="stop-color:#92989C"/>
</radialGradient>
<path fill="url(#SVGID_4_)" d="M32.384,14.675c0,3.563-5.27,3.563-5.27,0C27.114,11.108,32.384,11.108,32.384,14.675z"/>
<linearGradient id="SVGID_5_" gradientUnits="userSpaceOnUse" x1="32.6333" y1="33.2656" x2="32.6333" y2="17.6494" gradientTransform="matrix(1.0015 0 0 1.0043 -0.6882 1.2653)">
	<stop  offset="0.5394" style="stop-color:#92989C"/>
	<stop  offset="0.8267" style="stop-color:#C6C8C9"/>
	<stop  offset="1" style="stop-color:#E0E0E0"/>
	<a:midPointStop  offset="0.5394" style="stop-color:#92989C"/>
	<a:midPointStop  offset="0.4648" style="stop-color:#92989C"/>
	<a:midPointStop  offset="1" style="stop-color:#E0E0E0"/>
</linearGradient>
<path fill="url(#SVGID_5_)" d="M53.466,20.12c-3.068-1.509-39.886-1.503-42.944,0c-3.541,1.742-6.641,14.554,0.668,14.554h41.609
	C60.107,34.674,57.007,21.862,53.466,20.12z"/>
<radialGradient id="SVGID_6_" cx="32.5146" cy="32.5957" r="61.8057" gradientTransform="matrix(1.0015 0 0 0.379 -0.6882 22.005)" gradientUnits="userSpaceOnUse">
	<stop  offset="0" style="stop-color:#FF66A4"/>
	<stop  offset="0.2113" style="stop-color:#FE63A2"/>
	<stop  offset="0.381" style="stop-color:#FB599A"/>
	<stop  offset="0.5362" style="stop-color:#F6488E"/>
	<stop  offset="0.682" style="stop-color:#EF307D"/>
	<stop  offset="0.7091" style="stop-color:#ED2B79"/>
	<a:midPointStop  offset="0" style="stop-color:#FF66A4"/>
	<a:midPointStop  offset="0.75" style="stop-color:#FF66A4"/>
	<a:midPointStop  offset="0.7091" style="stop-color:#ED2B79"/>
</radialGradient>
<path fill="url(#SVGID_6_)" d="M52.178,22.711c-1.868-1.33-39.133-1.078-40.392,0C9.86,24.362,0.754,46.125,2.144,50.041
	c1.053,2.953,3.526,9.828,6.496,10.811c4.944,1.631,41.608,1.428,46.685,0c3.008-0.848,5.445-7.857,6.495-10.811
	C63.381,45.637,54.379,24.279,52.178,22.711z"/>
</svg>
