<?xml version="1.0" encoding="utf-8"?>
<!-- Generator: Adobe Illustrator 24.1.2, SVG Export Plug-In . SVG Version: 6.00 Build 0)  -->
<svg version="1.1" id="Layer_1" xmlns="http://www.w3.org/2000/svg" xmlns:xlink="http://www.w3.org/1999/xlink" x="0px" y="0px"
	 width="64px" height="64px" viewBox="0 0 64 64" style="enable-background:new 0 0 64 64;" xml:space="preserve">
<style type="text/css">
	.st0{fill:url(#SVGID_1_);}
	.st1{fill:#F26182;}
	.st2{fill:#C97186;}
	.st3{fill:#E0ADB0;}
	.st4{fill:#FDE0DA;}
</style>
<linearGradient id="SVGID_1_" gradientUnits="userSpaceOnUse" x1="32" y1="62" x2="32" y2="4.2848">
	<stop  offset="0" style="stop-color:#FF6688"/>
	<stop  offset="1" style="stop-color:#FF809C"/>
</linearGradient>
<path class="st0" d="M50.58,26.74c3.5-2.43,9.24-7.76,8.32-8.55c-2.02-1.76-6.72-10.73-7.39-10.9C40.54,4.94,40.74,4.96,32,4.28
	c-8.74,0.68-8.54,0.65-19.51,3c-0.67,0.17-5.37,9.15-7.39,10.9c-0.92,0.8,4.83,6.12,8.33,8.55c0.18,0.13,1.1-1.01,2.34-1.88
	c2.62,8.79,4.36,13.87-5.1,31.71C9.98,57.85,18.15,62,32,62s22.02-4.15,21.34-5.43c-9.46-17.83-7.72-22.92-5.1-31.71
	C49.48,25.73,50.39,26.87,50.58,26.74z"/>
<path class="st1" d="M18.92,28.8c-0.85-4.19-6.2-18.4-6.03-17c2.39,19.84,10.95,19.93-2.23,44.78
	C19.97,45.48,20.42,36.15,18.92,28.8z"/>
<path class="st1" d="M51.11,11.8c0.17-1.4-5.18,12.81-6.03,17c-1.49,7.35-1.03,16.71,8.26,27.77C40.16,31.73,48.72,31.64,51.11,11.8
	z"/>
<path class="st2" d="M41.15,5.24h-18.3c0,0,6.39,3.99,9.16,3.99C34.78,9.23,41.15,5.24,41.15,5.24z"/>
<path class="st3" d="M39.43,2c-4.73,2.65-10.14,2.65-14.87,0c-0.21,0.88-0.44,1.76-0.65,2.63c5.08,3.16,11.09,3.16,16.17,0
	C39.88,3.76,39.65,2.88,39.43,2z"/>
<path class="st4" d="M39.43,2c-0.93,4.5-7.42,7.23-7.42,7.23s0.25,0.24,0.63,0.68c2.37,2.69,6.49,2.81,8.88,0.14
	c1.87-2.09,2.93-4.14,2.93-4.14S42.92,3.26,39.43,2z"/>
<path class="st4" d="M24.57,2c0.93,4.5,7.42,7.23,7.42,7.23s-0.25,0.24-0.63,0.68c-2.37,2.69-6.49,2.81-8.88,0.14
	C20.6,7.96,19.54,5.9,19.54,5.9S21.08,3.26,24.57,2z"/>
</svg>
