<?xml version="1.0" encoding="utf-8"?>
<!-- Generator: Adobe Illustrator 24.1.2, SVG Export Plug-In . SVG Version: 6.00 Build 0)  -->
<svg version="1.1" id="Layer_1" xmlns="http://www.w3.org/2000/svg" xmlns:xlink="http://www.w3.org/1999/xlink" x="0px" y="0px"
	 width="64px" height="64px" viewBox="0 0 64 64" style="enable-background:new 0 0 64 64;" xml:space="preserve">
<style type="text/css">
	.st0{fill:#9C001A;}
	.st1{fill:url(#SVGID_1_);}
	.st2{fill:#E0A98A;}
	.st3{fill:#9D5A40;}
	.st4{fill:url(#SVGID_2_);}
	.st5{fill:url(#SVGID_3_);}
	.st6{fill:#77001A;}
	.st7{fill:url(#SVGID_4_);}
	.st8{fill:url(#SVGID_5_);}
</style>
<path class="st0" d="M9.7,45.48c-2.89-0.31-7.33,7.13-7.49,3.57c-0.78-17,0.82-35.31,1.71-35.78C8.36,13.84,13.19,45.86,9.7,45.48z"
	/>
<linearGradient id="SVGID_1_" gradientUnits="userSpaceOnUse" x1="90.0334" y1="37.7263" x2="96.7241" y2="37.7263" gradientTransform="matrix(0.7377 0.0105 -0.0105 -0.9996 -63.7007 68.5651)">
	<stop  offset="0.1636" style="stop-color:#CA8D6E"/>
	<stop  offset="0.2922" style="stop-color:#C6886A"/>
	<stop  offset="0.4394" style="stop-color:#BA7A5D"/>
	<stop  offset="0.5952" style="stop-color:#A56449"/>
	<stop  offset="0.6485" style="stop-color:#9D5A40"/>
</linearGradient>
<path class="st1" d="M6.97,46.95c-2.89-0.06-4.21,3.88-4.29,2.7c-0.7-10.03,0.18-33.68,1.32-35.88C6.24,13.46,8.25,46.97,6.97,46.95
	z"/>
<path class="st2" d="M7.53,43.61c1.61,8.1-2.28,4.24-4.2,3.08C4.18,43.19,6.41,43.21,7.53,43.61z"/>
<path class="st0" d="M7.25,50.27c-2.23-2.76-4.58,1.94-5.04-1.11C3.17,50.02,3.6,38.85,7.25,50.27z"/>
<path class="st3" d="M7.26,51.79c-2.09-4.34-4.74,0.68-5.05-2.62C3.13,52.96,3.72,38.44,7.26,51.79z"/>
<path class="st0" d="M61.99,44.38c0.06,0.67-0.04,1.27-0.97,1.42c-8.29,1.33-44.98,5.16-53.39,6.19c-0.76,0.08-1.33-0.2-1.35-1.17
	C5.92,27.35,4.9,14.9,3.92,13.65c5.09-0.67,53-1.11,53-1.11C60.64,13.78,61,33.52,61.99,44.38z"/>
<linearGradient id="SVGID_2_" gradientUnits="userSpaceOnUse" x1="34.4253" y1="48.6498" x2="33.5872" y2="39.0705">
	<stop  offset="0.0727" style="stop-color:#FF2647"/>
	<stop  offset="0.5098" style="stop-color:#BA0C28"/>
	<stop  offset="0.6946" style="stop-color:#9C001A"/>
</linearGradient>
<path class="st4" d="M60.91,36.68c-8.41,0.85-16.82,1.75-25.22,2.76c-9.54,1.15-22.26,2.1-28.83,3.4c0.08,2.52,0.13,4.95,0.17,7.17
	c0.01,0.66,0.41,1.02,0.95,0.95c9.15-1.13,42.3-4.32,52.56-5.74c0.82-0.12,0.93-0.44,0.87-1.11C61.2,41.92,61.05,39.36,60.91,36.68z
	"/>
<path class="st0" d="M62,39.25c0.04,0.38-0.31,0.76-1.01,0.85c-8.35,0.93-42.44,4.34-53.42,5.16c-0.67,0.05-1.26-0.36-1.31-0.96
	c-0.65-8.26-0.49-28.73-2.34-31.02c23.34,0.9,53.44-1.09,53.44-1.09C61.04,12.87,61.34,32.9,62,39.25z"/>
<linearGradient id="SVGID_3_" gradientUnits="userSpaceOnUse" x1="47.5605" y1="-292.1482" x2="43.0998" y2="-239.8438" gradientTransform="matrix(0.9993 -0.0165 0.0165 -0.5863 -7.8624 -128.0427)">
	<stop  offset="0.4303" style="stop-color:#CF0023"/>
	<stop  offset="0.5275" style="stop-color:#D10427"/>
	<stop  offset="0.6265" style="stop-color:#D71031"/>
	<stop  offset="0.7262" style="stop-color:#E02543"/>
	<stop  offset="0.8265" style="stop-color:#EE415D"/>
	<stop  offset="0.9264" style="stop-color:#FF667D"/>
	<stop  offset="0.9273" style="stop-color:#FF667D"/>
</linearGradient>
<path class="st5" d="M61.42,38.74c0.05,0.49-0.36,0.7-0.96,0.76c-14.48,1.41-41.02,3.98-52.22,4.9c-0.89,0.07-1.22-0.44-1.26-0.89
	c-0.85-9.01-1.1-28.78-3.07-30.24C5.59,12.57,57.33,12,57.33,12C61.02,12.69,60.76,32.38,61.42,38.74z"/>
<path class="st6" d="M37.69,31.97c-0.7,0-1.07,0.39-1.48,1.03l-0.04-0.6c0-0.08-0.03-0.15-0.09-0.2c-0.06-0.05-0.14-0.08-0.21-0.07
	H35.1c-0.08-0.01-0.15,0.02-0.2,0.07c-0.05,0.05-0.07,0.13-0.06,0.2l0.56,7.99c0,0.08,0.03,0.15,0.08,0.2
	c0.06,0.05,0.13,0.08,0.21,0.07h0.77c0.08,0.01,0.15-0.02,0.2-0.07c0.05-0.05,0.07-0.13,0.06-0.2l-0.21-3.04
	c0.51,0.64,0.93,1.03,1.63,1.03c1.2,0,2.1-1.4,1.98-3.21C39.99,33.37,38.9,31.98,37.69,31.97z M37.84,37.22
	c-0.76,0-1.4-0.9-1.47-2.03c-0.08-1.14,0.43-2.02,1.19-2.02c0.76,0,1.39,0.85,1.48,2.03C39.11,36.37,38.6,37.22,37.84,37.22z"/>
<path class="st6" d="M33.44,30.04h-0.77c-0.08-0.01-0.15,0.02-0.2,0.07c-0.05,0.05-0.07,0.13-0.06,0.2l0.43,6.07
	c0.05,0.75-0.22,1.07-0.83,1.09c-0.08-0.01-0.15,0.02-0.2,0.08c-0.05,0.05-0.07,0.13-0.06,0.2l0.05,0.73c0,0.08,0.03,0.15,0.09,0.2
	c0.06,0.05,0.13,0.08,0.21,0.08c1.48,0.01,2.17-0.77,2.06-2.37l-0.43-6.07c0-0.08-0.03-0.15-0.09-0.2
	C33.59,30.06,33.52,30.03,33.44,30.04z"/>
<linearGradient id="SVGID_4_" gradientUnits="userSpaceOnUse" x1="31.2571" y1="40.5753" x2="31.2571" y2="31.8693" gradientTransform="matrix(1 0 0.0701 1 4.0318 0)">
	<stop  offset="0" style="stop-color:#92989C"/>
	<stop  offset="0.1962" style="stop-color:#999FA2"/>
	<stop  offset="0.4876" style="stop-color:#ADB1B4"/>
	<stop  offset="0.8365" style="stop-color:#CED0D0"/>
	<stop  offset="1" style="stop-color:#E0E0E0"/>
</linearGradient>
<path class="st7" d="M37.86,31.87c-0.7,0-1.07,0.39-1.48,1.03l-0.04-0.6c0-0.08-0.03-0.15-0.09-0.2c-0.06-0.05-0.14-0.08-0.21-0.07
	h-0.77c-0.08-0.01-0.15,0.02-0.2,0.07c-0.05,0.05-0.07,0.13-0.06,0.2l0.56,7.99c0,0.08,0.03,0.15,0.08,0.2
	c0.06,0.05,0.13,0.08,0.21,0.07h0.77c0.08,0.01,0.15-0.02,0.2-0.07c0.05-0.05,0.07-0.13,0.06-0.2l-0.21-3.04
	c0.51,0.64,0.93,1.03,1.63,1.03c1.2,0,2.1-1.4,1.98-3.21C40.16,33.27,39.06,31.87,37.86,31.87z M38,37.11c-0.76,0-1.4-0.9-1.47-2.03
	c-0.08-1.14,0.43-2.02,1.19-2.02c0.76,0,1.39,0.85,1.48,2.03C39.28,36.26,38.76,37.11,38,37.11z"/>
<linearGradient id="SVGID_5_" gradientUnits="userSpaceOnUse" x1="26.5043" y1="38.6542" x2="26.5043" y2="29.9343" gradientTransform="matrix(1 0 0.0701 1 4.0318 0)">
	<stop  offset="0" style="stop-color:#92989C"/>
	<stop  offset="0.1962" style="stop-color:#999FA2"/>
	<stop  offset="0.4876" style="stop-color:#ADB1B4"/>
	<stop  offset="0.8365" style="stop-color:#CED0D0"/>
	<stop  offset="1" style="stop-color:#E0E0E0"/>
</linearGradient>
<path class="st8" d="M33.61,29.94h-0.77c-0.08-0.01-0.15,0.02-0.2,0.07c-0.05,0.05-0.07,0.13-0.06,0.2l0.43,6.07
	c0.05,0.75-0.22,1.07-0.83,1.09c-0.08-0.01-0.15,0.02-0.2,0.08c-0.05,0.05-0.07,0.13-0.06,0.2l0.05,0.73c0,0.08,0.03,0.15,0.09,0.2
	c0.06,0.05,0.13,0.08,0.21,0.08c1.48,0.01,2.17-0.77,2.06-2.37l-0.43-6.07c0-0.08-0.03-0.15-0.09-0.2
	C33.76,29.95,33.68,29.93,33.61,29.94z"/>
</svg>
