<?xml version="1.0" encoding="utf-8"?>
<!-- Generator: Adobe Illustrator 15.0.0, SVG Export Plug-In . SVG Version: 6.00 Build 0)  -->
<!DOCTYPE svg PUBLIC "-//W3C//DTD SVG 1.1//EN" "http://www.w3.org/Graphics/SVG/1.1/DTD/svg11.dtd" [
	<!ENTITY ns_flows "http://ns.adobe.com/Flows/1.0/">
	<!ENTITY ns_extend "http://ns.adobe.com/Extensibility/1.0/">
	<!ENTITY ns_ai "http://ns.adobe.com/AdobeIllustrator/10.0/">
	<!ENTITY ns_graphs "http://ns.adobe.com/Graphs/1.0/">
]>
<svg version="1.1" id="Layer_1" xmlns:x="&ns_extend;" xmlns:i="&ns_ai;" xmlns:graph="&ns_graphs;"
	 xmlns="http://www.w3.org/2000/svg" xmlns:xlink="http://www.w3.org/1999/xlink" xmlns:a="http://ns.adobe.com/AdobeSVGViewerExtensions/3.0/"
	 x="0px" y="0px" width="64px" height="64px" viewBox="0 0 64 64" enable-background="new 0 0 64 64" xml:space="preserve">
<path fill="#3AB0A2" d="M45.255,31.723c-1.271-1.646-7.428-3.657-7.428-3.657H26.173c0,0-6.156,2.012-7.428,3.657
	c-2.08,2.691-2.809,8.431-2.809,8.431l4.93,4.93V59h22.268V45.084l4.93-4.93C48.063,40.154,47.335,34.414,45.255,31.723z"/>
<path fill="#2B998D" d="M26.169,28.085c0,4.888,11.658,4.869,11.658-0.019l-1.168-0.413h-9.27L26.169,28.085z"/>
<path fill="#F5BB51" d="M27.003,27.79c0,3.826,9.994,3.826,9.994,0c0-1.302,0-4.233,0-4.233h-9.994
	C27.003,23.556,27.003,26.488,27.003,27.79z"/>
<polygon fill="#302C3B" points="20.868,58 31.777,62 32.219,62 43.134,58 "/>
<path id="Path_1207_" fill="#FFC940" d="M42.155,13.999c-1.572,0.191-2.707,5.455-1.721,6.844c0.141,0.194,0.951,0.504,1.551-0.723
	c0.332-0.678,1.293-1.245,1.59-2.646C43.956,15.68,43.72,13.809,42.155,13.999z"/>
<path id="Path_1206_" fill="#FFC940" d="M21.847,13.999c1.572,0.191,2.707,5.455,1.717,6.844c-0.137,0.194-0.947,0.504-1.549-0.723
	c-0.332-0.678-1.293-1.245-1.59-2.646C20.044,15.68,20.282,13.809,21.847,13.999z"/>
<path id="Path_1205_" fill="#F0A429" d="M42.11,15.008c-0.408,0.129-0.855,0.754-1.1,1.792c1.434-0.308,1.076,2.08-0.17,2.125
	c0.012,0.24,0.027,0.488,0.057,0.748c0.602-0.872,1.211-0.521,1.814-1.819C43.257,16.684,43.128,14.688,42.11,15.008z"/>
<path id="Path_1204_" fill="#F0A429" d="M22.989,16.797c-0.242-1.036-0.689-1.661-1.1-1.789c-1.016-0.32-1.146,1.675-0.602,2.845
	c0.604,1.297,1.215,0.947,1.816,1.819c0.029-0.26,0.045-0.508,0.055-0.749C21.927,18.866,21.573,16.507,22.989,16.797z"/>
<path id="Path_1203_" fill="#FFC940" d="M31.999,3.878c-6.809,0-10.09,5.153-9.68,12.318c0.082,1.441,0.975,6.143,1.818,7.83
	c0.865,1.727,3.752,4.387,5.521,4.938c1.117,0.347,3.566,0.347,4.682,0c1.77-0.551,4.66-3.211,5.521-4.938
	c0.846-1.687,1.738-6.387,1.82-7.83C42.093,9.031,38.813,3.878,31.999,3.878z"/>
<path id="Path_1202_" fill="#966F42" d="M39.399,13.473c-1.557-0.825-4.537-0.865-5.648-0.29c-0.238,0.11-0.08,0.893,0.119,0.818
	c1.547-0.612,4.045-0.625,5.492,0.052C39.556,14.142,39.636,13.588,39.399,13.473z"/>
<path id="Path_1201_" fill="#966F42" d="M24.599,13.473c1.561-0.825,4.539-0.865,5.65-0.29c0.238,0.11,0.08,0.893-0.119,0.818
	c-1.551-0.612-4.043-0.625-5.494,0.052C24.444,14.142,24.364,13.588,24.599,13.473z"/>
<path id="Path_1200_" fill="#F0A429" d="M33.839,20.628c-0.193-0.136-0.65,0.073-1.84,0.073c-1.186,0-1.643-0.209-1.836-0.073
	c-0.234,0.164,0.137,0.905,1.836,0.905C33.702,21.534,34.071,20.792,33.839,20.628z"/>
<path id="Path_1199_" fill="#F0A429" d="M31.999,23.436c-1.529-0.45-3.801,0.213-3.801,0.213c0.863,0.942,1.498,2.164,3.801,2.164
	c2.641,0,3.09-1.387,3.803-2.164C35.802,23.649,33.53,22.982,31.999,23.436z"/>
<path id="Path_1198_" fill="#FFFFFF" d="M28.769,23.809c1.605,1.348,4.848,1.357,6.463,0C33.522,23.882,30.493,23.883,28.769,23.809
	z"/>
<path id="Path_1197_" fill="#FFFFFF" d="M30.485,16.284c0.057,0.451-0.248,0.986-1.096,1.386c-0.537,0.255-1.658,0.555-3.129-0.066
	c-0.66-0.278-1.301-1.144-1.244-1.623C25.813,14.478,29.739,14.258,30.485,16.284z"/>
<linearGradient id="Oval_1_" gradientUnits="userSpaceOnUse" x1="-439.7876" y1="479.5557" x2="-439.7876" y2="480.0254" gradientTransform="matrix(6.5701 0 0 -6.5701 2917.2688 3168.5281)">
	<stop  offset="0" style="stop-color:#A6694A"/>
	<stop  offset="1" style="stop-color:#4F2A1E"/>
	<a:midPointStop  offset="0" style="stop-color:#A6694A"/>
	<a:midPointStop  offset="0.5" style="stop-color:#A6694A"/>
	<a:midPointStop  offset="1" style="stop-color:#4F2A1E"/>
</linearGradient>
<circle id="Oval_158_" fill="url(#Oval_1_)" cx="27.821" cy="16.254" r="1.542"/>
<path id="Path_1196_" fill="#1A1626" d="M27.052,16.226c0,1.067,1.541,1.067,1.541,0C28.593,15.235,27.052,15.235,27.052,16.226z"/>
<path id="Path_1195_" fill="#AB968C" d="M26.817,15.793c0,0.447,0.646,0.447,0.646,0C27.464,15.379,26.817,15.379,26.817,15.793z"/>
<path id="Path_1194_" fill="#F0A429" d="M30.493,16.344c-0.629-2.013-4.896-1.715-5.477-0.362
	C25.231,14.249,29.96,13.792,30.493,16.344z"/>
<path id="Path_1193_" fill="#FFFFFF" d="M33.515,16.284c-0.057,0.451,0.248,0.986,1.096,1.386c0.539,0.255,1.658,0.555,3.131-0.066
	c0.658-0.278,1.301-1.144,1.242-1.623C38.188,14.478,34.263,14.258,33.515,16.284z"/>
<linearGradient id="Oval_2_" gradientUnits="userSpaceOnUse" x1="-441.2192" y1="479.5557" x2="-441.2192" y2="480.0254" gradientTransform="matrix(6.5701 0 0 -6.5701 2934.9993 3168.5281)">
	<stop  offset="0" style="stop-color:#A6694A"/>
	<stop  offset="1" style="stop-color:#4F2A1E"/>
	<a:midPointStop  offset="0" style="stop-color:#A6694A"/>
	<a:midPointStop  offset="0.5" style="stop-color:#A6694A"/>
	<a:midPointStop  offset="1" style="stop-color:#4F2A1E"/>
</linearGradient>
<circle id="Oval_157_" fill="url(#Oval_2_)" cx="36.144" cy="16.254" r="1.542"/>
<path id="Path_1192_" fill="#1A1626" d="M35.372,16.226c0,1.067,1.543,1.067,1.543,0C36.915,15.235,35.372,15.235,35.372,16.226z"/>
<path id="Path_1191_" fill="#AB968C" d="M35.138,15.793c0,0.447,0.648,0.447,0.648,0C35.786,15.379,35.138,15.379,35.138,15.793z"/>
<path id="Path_1190_" fill="#F0A429" d="M33.509,16.344c0.625-2.012,4.891-1.724,5.475-0.362
	C38.767,14.249,34.042,13.792,33.509,16.344z"/>
<path fill="#7A6056" d="M40.7,5.585C39.208,3.567,36.479,2,31.999,2c-4.479,0-7.207,1.567-8.697,3.585
	C21.192,8.441,42.81,8.441,40.7,5.585z"/>
<linearGradient id="SVGID_1_" gradientUnits="userSpaceOnUse" x1="-70.4912" y1="17.958" x2="-70.4912" y2="4.7305" gradientTransform="matrix(1 0 0 1 102.4922 0)">
	<stop  offset="0.5" style="stop-color:#473834"/>
	<stop  offset="0.6387" style="stop-color:#503F3A"/>
	<stop  offset="0.8641" style="stop-color:#68524A"/>
	<stop  offset="1" style="stop-color:#7A6056"/>
	<a:midPointStop  offset="0.5" style="stop-color:#473834"/>
	<a:midPointStop  offset="0.6" style="stop-color:#473834"/>
	<a:midPointStop  offset="1" style="stop-color:#7A6056"/>
</linearGradient>
<path fill="url(#SVGID_1_)" d="M40.7,5.585c-1.492-2.018-4.221,0.17-8.701,0.17c-4.479,0-7.207-2.188-8.697-0.17
	c-2.109,2.856-1.393,12.373-0.455,12.373c0.15,0,0.17-3.33,0.455-5.632c0.23-1.875,0.678-3.693,1.188-3.99
	c1.564-0.907,4.58,0.39,7.51,0.39c2.934,0,5.949-1.297,7.512-0.39c0.512,0.297,0.957,2.115,1.189,3.99
	c0.283,2.303,0.303,5.632,0.455,5.632C42.093,17.958,42.81,8.441,40.7,5.585z"/>
<path fill="#8FEAFF" d="M24.938,52.722l-7.793,0.012c0,0-4.088,1.331-4.936,2.415c-0.898,1.151-1.43,3.822-1.693,5.465
	c4.332,1.021,12.781,1.38,21.262,1.387c0-0.002-0.486-5.07-1.877-6.854C29.051,54.056,24.938,52.722,24.938,52.722z"/>
<path fill="#67DBF5" d="M17.145,52.733c0,3.242,7.793,3.229,7.793-0.012l-0.781-0.274h-6.195L17.145,52.733z"/>
<path fill="#F5BB51" d="M17.703,52.538c0,2.538,6.678,2.538,6.678,0c0-0.863,0-2.808,0-2.808h-6.678
	C17.703,49.73,17.703,51.675,17.703,52.538z"/>
<path fill="#67DBF5" d="M14.168,61.234l-0.285-0.045C13.883,58.883,14.168,58.654,14.168,61.234z"/>
<path fill="#67DBF5" d="M28.209,61.965h-0.301C27.908,58.284,28.209,58.284,28.209,61.965z"/>
<path fill="#8FBFFF" d="M46.85,52.722l-7.791,0.012c0,0-4.09,1.331-4.938,2.415c-1.391,1.782-1.9,6.846-1.902,6.852
	c8.52-0.012,16.988-0.347,21.266-1.383c-0.26-1.643-0.779-4.325-1.672-5.471C50.963,54.056,46.85,52.722,46.85,52.722z"/>
<path fill="#73B0FF" d="M39.059,52.733c0,3.242,7.791,3.229,7.791-0.012l-0.781-0.274h-6.195L39.059,52.733z"/>
<path fill="#F5BB51" d="M39.615,52.538c0,2.538,6.68,2.538,6.68,0c0-0.863,0-2.808,0-2.808h-6.68
	C39.615,49.73,39.615,51.675,39.615,52.538z"/>
<path fill="#73B0FF" d="M36.086,61.959l-0.299,0.006C35.787,58.284,36.086,58.278,36.086,61.959z"/>
<path fill="#73B0FF" d="M50.115,61.181l-0.285,0.026C49.83,58.941,50.115,58.774,50.115,61.181z"/>
<path fill="#F5BB51" d="M15.992,53.226c0,0-1.078,2,0.141,1.781c0.609-1.401,1.316-1.011,1.592-2.47
	c0.268-1.812-0.873-2.921-0.873-2.921c-0.992,0.735-3.139,2.376-3.406,2.831c-0.424,0.721-2.011,2.825-1.324,3.502
	C12.76,57.288,13.227,53.929,15.992,53.226z"/>
<path fill="#F0A429" d="M13.398,53.318c0,0-1.078,1.647-1.277,2.631C12.079,54.828,13.398,53.318,13.398,53.318z"/>
<path fill="#F5BB51" d="M48.008,53.226c0,0,1.078,2-0.141,1.781c-0.609-1.401-1.316-1.011-1.592-2.47
	c-0.268-1.812,0.873-2.921,0.873-2.921c0.992,0.735,3.139,2.376,3.406,2.831c0.424,0.721,2.011,2.825,1.324,3.502
	C51.24,57.288,50.773,53.929,48.008,53.226z"/>
<path fill="#F0A429" d="M50.602,53.318c0,0,1.078,1.647,1.277,2.631C51.921,54.828,50.602,53.318,50.602,53.318z"/>
<path id="Path_1469_" fill="#FFC940" d="M34.395,42.107c1.066,0.131,1.834,3.73,1.166,4.68c-0.096,0.133-0.645,0.346-1.051-0.494
	c-0.227-0.463-0.877-0.852-1.078-1.809C33.174,43.258,33.336,41.979,34.395,42.107z"/>
<path id="Path_1468_" fill="#F0A429" d="M34.424,42.799c0.277,0.087,0.582,0.516,0.746,1.225c-0.973-0.211-0.729,1.422,0.115,1.453
	c-0.008,0.164-0.018,0.334-0.039,0.511c-0.406-0.596-0.82-0.356-1.229-1.243C33.648,43.944,33.736,42.58,34.424,42.799z"/>
<path id="Path_1467_" fill="#FFC940" d="M51.51,42.107c-1.064,0.131-1.834,3.73-1.164,4.68c0.094,0.133,0.643,0.346,1.051-0.494
	c0.225-0.463,0.875-0.852,1.076-1.809C52.732,43.258,52.57,41.979,51.51,42.107z"/>
<path id="Path_1466_" fill="#F0A429" d="M50.736,44.021c0.164-0.709,0.467-1.136,0.744-1.223c0.689-0.219,0.777,1.146,0.408,1.945
	c-0.41,0.887-0.822,0.647-1.23,1.243c-0.02-0.178-0.031-0.347-0.037-0.512C51.455,45.436,51.695,43.823,50.736,44.021z"/>
<path fill="#FFC940" d="M42.953,32.857c-5.822,0-8.627,4.404-8.275,10.529c0.07,1.232,0.834,4.047,1.557,5.488
	c1.273,2.545,4.6,4.443,6.719,4.443c2.117,0,5.447-1.898,6.719-4.443c0.723-1.441,1.486-4.256,1.557-5.488
	C51.58,37.262,48.775,32.857,42.953,32.857z"/>
<path id="Path_1465_" fill="#F0A429" d="M44.311,46.828c-0.145-0.101-0.482,0.055-1.357,0.055c-0.877,0-1.215-0.155-1.359-0.055
	c-0.17,0.121,0.104,0.668,1.359,0.668C44.207,47.496,44.482,46.949,44.311,46.828z"/>
<path id="Path_1464_" fill="#F0A429" d="M42.953,48.779c-1.313-0.386-3.258,0.184-3.258,0.184c0.74,0.808,1.283,1.854,3.258,1.854
	c2.262,0,2.646-1.188,3.258-1.854C46.211,48.963,44.264,48.393,42.953,48.779z"/>
<path id="Path_1463_" fill="#FFFFFF" d="M40.184,49.1c1.375,1.154,4.154,1.162,5.539,0C44.256,49.162,41.66,49.163,40.184,49.1z"/>
<path id="Path_1462_" fill="#FFFFFF" d="M41.697,43.832c0.047,0.373-0.205,0.816-0.908,1.147c-0.445,0.212-1.373,0.46-2.592-0.054
	c-0.545-0.23-1.078-0.948-1.029-1.345C37.828,42.336,41.078,42.153,41.697,43.832z"/>
<linearGradient id="Oval_3_" gradientUnits="userSpaceOnUse" x1="-422.4116" y1="475.4023" x2="-422.4116" y2="475.791" gradientTransform="matrix(6.5701 0 0 -6.5701 2814.7805 3168.5281)">
	<stop  offset="0" style="stop-color:#A6694A"/>
	<stop  offset="1" style="stop-color:#4F2A1E"/>
	<a:midPointStop  offset="0" style="stop-color:#A6694A"/>
	<a:midPointStop  offset="0.5" style="stop-color:#A6694A"/>
	<a:midPointStop  offset="1" style="stop-color:#4F2A1E"/>
</linearGradient>
<circle id="Oval_190_" fill="url(#Oval_3_)" cx="39.492" cy="43.807" r="1.277"/>
<path id="Path_1461_" fill="#1A1626" d="M38.854,43.783c0,0.884,1.277,0.884,1.277,0C40.131,42.963,38.854,42.963,38.854,43.783z"/>
<path id="Path_1460_" fill="#AB968C" d="M38.66,43.426c0,0.37,0.535,0.37,0.535,0C39.195,43.082,38.66,43.082,38.66,43.426z"/>
<path id="Path_1459_" fill="#F0A429" d="M41.703,43.881c-0.518-1.667-4.055-1.422-4.535-0.3
	C37.346,42.146,41.262,41.768,41.703,43.881z"/>
<path id="Path_1458_" fill="#FFFFFF" d="M44.209,43.832c-0.049,0.373,0.205,0.816,0.906,1.147c0.445,0.212,1.373,0.46,2.594-0.054
	c0.545-0.23,1.078-0.948,1.029-1.345C48.078,42.336,44.826,42.153,44.209,43.832z"/>
<linearGradient id="Oval_4_" gradientUnits="userSpaceOnUse" x1="-424.061" y1="475.4023" x2="-424.061" y2="475.791" gradientTransform="matrix(6.5701 0 0 -6.5701 2832.511 3168.5281)">
	<stop  offset="0" style="stop-color:#A6694A"/>
	<stop  offset="1" style="stop-color:#4F2A1E"/>
	<a:midPointStop  offset="0" style="stop-color:#A6694A"/>
	<a:midPointStop  offset="0.5" style="stop-color:#A6694A"/>
	<a:midPointStop  offset="1" style="stop-color:#4F2A1E"/>
</linearGradient>
<circle id="Oval_189_" fill="url(#Oval_4_)" cx="46.385" cy="43.807" r="1.277"/>
<path id="Path_1457_" fill="#1A1626" d="M45.748,43.783c0,0.884,1.277,0.884,1.277,0C47.025,42.963,45.748,42.963,45.748,43.783z"/>
<path id="Path_1456_" fill="#AB968C" d="M45.553,43.426c0,0.37,0.535,0.37,0.535,0C46.088,43.082,45.553,43.082,45.553,43.426z"/>
<path id="Path_1455_" fill="#F0A429" d="M44.203,43.881c0.518-1.666,4.051-1.428,4.535-0.3
	C48.559,42.146,44.645,41.768,44.203,43.881z"/>
<path id="Path_1454_" fill="#F0A429" d="M48.82,41.842c-1.098-0.693-3.311-0.895-4.178-0.54c-0.186,0.067-0.125,0.647,0.029,0.605
	c1.195-0.357,3.051-0.224,4.078,0.356C48.889,42.339,48.988,41.938,48.82,41.842z"/>
<path id="Path_1453_" fill="#F0A429" d="M37.084,41.842c1.1-0.693,3.311-0.895,4.178-0.54c0.186,0.067,0.125,0.647-0.029,0.605
	c-1.195-0.357-3.049-0.224-4.08,0.356C37.016,42.339,36.916,41.938,37.084,41.842z"/>
<linearGradient id="SVGID_2_" gradientUnits="userSpaceOnUse" x1="42.9521" y1="45.4199" x2="42.9521" y2="31.6548">
	<stop  offset="0" style="stop-color:#473834"/>
	<stop  offset="0.2717" style="stop-color:#594640"/>
	<stop  offset="0.7226" style="stop-color:#715950"/>
	<stop  offset="1" style="stop-color:#7A6056"/>
	<a:midPointStop  offset="0" style="stop-color:#473834"/>
	<a:midPointStop  offset="0.4" style="stop-color:#473834"/>
	<a:midPointStop  offset="1" style="stop-color:#7A6056"/>
</linearGradient>
<path fill="url(#SVGID_2_)" d="M42.943,32.457c-0.525,0-1.012,0.033-1.48,0.082c0.195-0.203,0.438-0.361,0.773-0.424
	c-0.689-0.187-1.467-0.101-2.072,0.348c-0.127-0.217-0.18-0.495-0.053-0.809c-0.846,0.514-1.006,1.133-1.006,1.133
	c-0.242-0.392-0.254-0.904-0.254-0.904s-0.912,0.644-0.779,1.586c-0.814-0.355-1.498,0.058-1.498,0.058s0.4,0.171,0.592,0.53
	c-4.555,3.307-2.996,10.657-2.131,11.363c0,0,0.256-5.492,2.574-7.132c-0.125,1.036-0.402,1.769-0.402,1.769
	s2.275-0.359,4.279-1.639c-0.232,1.145-0.859,1.965-0.859,1.965s4.137-0.577,5.365-2.525c0,0,0.811,1.706,2.816,2.935
	c0,0,0.125-1.278-0.15-2.184c1.967,1.935,2.197,6.804,2.197,6.804C52.006,44.381,54.258,32.457,42.943,32.457z"/>
<path fill="#473834" d="M48.521,37.75l0.203,1.131c0,0,1.676,2.195,2.131,6.531C51.066,40.725,48.521,37.75,48.521,37.75z"/>
<path fill="#473834" d="M48.295,37.327c0,0,1.229,1.53,0.514,3.465C48.9,39.277,48.295,37.327,48.295,37.327z"/>
<path fill="#473834" d="M46.266,36.788c0.273,3.928-5.686,3.597-5.639,3.595C40.627,40.383,45.746,39.402,46.266,36.788z"/>
<path fill="#473834" d="M42.678,37.139c-1.119,3.168-5.229,2.895-5.471,2.918C37.207,40.057,40.881,38.993,42.678,37.139z"/>
<path fill="#473834" d="M37.951,37.879c-2.676,3.135-2.916,7.541-2.916,7.541S34.328,40.688,37.951,37.879z"/>
<path id="Path_1452_" fill="#FFC940" d="M12.482,42.107c1.066,0.131,1.834,3.73,1.166,4.68c-0.096,0.133-0.645,0.346-1.051-0.494
	c-0.227-0.463-0.877-0.852-1.078-1.809C11.262,43.258,11.424,41.979,12.482,42.107z"/>
<path id="Path_1451_" fill="#F0A429" d="M12.512,42.799c0.277,0.087,0.582,0.516,0.746,1.225c-0.973-0.211-0.729,1.422,0.115,1.453
	c-0.008,0.164-0.018,0.334-0.039,0.511c-0.406-0.596-0.82-0.356-1.229-1.243C11.736,43.944,11.824,42.58,12.512,42.799z"/>
<path id="Path_1450_" fill="#FFC940" d="M29.598,42.107c-1.064,0.131-1.834,3.73-1.164,4.68c0.094,0.133,0.643,0.346,1.051-0.494
	c0.225-0.463,0.875-0.852,1.076-1.809C30.82,43.258,30.658,41.979,29.598,42.107z"/>
<path id="Path_1449_" fill="#F0A429" d="M28.824,44.021c0.164-0.709,0.467-1.136,0.744-1.223c0.689-0.219,0.777,1.146,0.408,1.945
	c-0.41,0.887-0.822,0.647-1.23,1.243c-0.02-0.178-0.031-0.347-0.037-0.512C29.543,45.436,29.783,43.823,28.824,44.021z"/>
<path fill="#FFC940" d="M21.041,32.857c-5.822,0-8.627,4.404-8.275,10.529c0.07,1.232,0.834,4.047,1.557,5.488
	c1.273,2.545,4.6,4.443,6.719,4.443c2.117,0,5.447-1.898,6.719-4.443c0.723-1.441,1.486-4.256,1.557-5.488
	C29.668,37.262,26.863,32.857,21.041,32.857z"/>
<path id="Path_1448_" fill="#F0A429" d="M22.398,46.828c-0.145-0.101-0.482,0.055-1.357,0.055c-0.877,0-1.215-0.155-1.359-0.055
	c-0.17,0.121,0.104,0.668,1.359,0.668C22.295,47.496,22.57,46.949,22.398,46.828z"/>
<path id="Path_1447_" fill="#F0A429" d="M21.041,48.779c-1.313-0.386-3.258,0.184-3.258,0.184c0.74,0.808,1.283,1.854,3.258,1.854
	c2.262,0,2.646-1.188,3.258-1.854C24.299,48.963,22.352,48.393,21.041,48.779z"/>
<path id="Path_1446_" fill="#FFFFFF" d="M18.271,49.1c1.375,1.154,4.154,1.162,5.539,0C22.344,49.162,19.748,49.163,18.271,49.1z"/>
<path id="Path_1445_" fill="#FFFFFF" d="M19.785,43.832c0.047,0.373-0.205,0.816-0.908,1.147c-0.445,0.212-1.373,0.46-2.592-0.054
	c-0.545-0.23-1.078-0.948-1.029-1.345C15.916,42.336,19.166,42.153,19.785,43.832z"/>
<linearGradient id="Oval_5_" gradientUnits="userSpaceOnUse" x1="-425.7471" y1="475.4023" x2="-425.7471" y2="475.791" gradientTransform="matrix(6.5701 0 0 -6.5701 2814.7805 3168.5281)">
	<stop  offset="0" style="stop-color:#A6694A"/>
	<stop  offset="1" style="stop-color:#4F2A1E"/>
	<a:midPointStop  offset="0" style="stop-color:#A6694A"/>
	<a:midPointStop  offset="0.5" style="stop-color:#A6694A"/>
	<a:midPointStop  offset="1" style="stop-color:#4F2A1E"/>
</linearGradient>
<circle id="Oval_186_" fill="url(#Oval_5_)" cx="17.58" cy="43.807" r="1.277"/>
<path id="Path_1444_" fill="#1A1626" d="M16.941,43.783c0,0.884,1.277,0.884,1.277,0C18.219,42.963,16.941,42.963,16.941,43.783z"/>
<path id="Path_1443_" fill="#AB968C" d="M16.748,43.426c0,0.37,0.535,0.37,0.535,0C17.283,43.082,16.748,43.082,16.748,43.426z"/>
<path id="Path_1442_" fill="#F0A429" d="M19.791,43.881c-0.518-1.667-4.055-1.422-4.535-0.3
	C15.434,42.146,19.35,41.768,19.791,43.881z"/>
<path id="Path_1441_" fill="#FFFFFF" d="M22.297,43.832c-0.049,0.373,0.205,0.816,0.906,1.147c0.445,0.212,1.373,0.46,2.594-0.054
	c0.545-0.23,1.078-0.948,1.029-1.345C26.166,42.336,22.914,42.153,22.297,43.832z"/>
<linearGradient id="Oval_6_" gradientUnits="userSpaceOnUse" x1="-427.396" y1="475.4023" x2="-427.396" y2="475.791" gradientTransform="matrix(6.5701 0 0 -6.5701 2832.511 3168.5281)">
	<stop  offset="0" style="stop-color:#A6694A"/>
	<stop  offset="1" style="stop-color:#4F2A1E"/>
	<a:midPointStop  offset="0" style="stop-color:#A6694A"/>
	<a:midPointStop  offset="0.5" style="stop-color:#A6694A"/>
	<a:midPointStop  offset="1" style="stop-color:#4F2A1E"/>
</linearGradient>
<circle id="Oval_185_" fill="url(#Oval_6_)" cx="24.473" cy="43.807" r="1.277"/>
<path id="Path_1440_" fill="#1A1626" d="M23.836,43.783c0,0.884,1.277,0.884,1.277,0C25.113,42.963,23.836,42.963,23.836,43.783z"/>
<path id="Path_1439_" fill="#AB968C" d="M23.641,43.426c0,0.37,0.535,0.37,0.535,0C24.176,43.082,23.641,43.082,23.641,43.426z"/>
<path id="Path_1438_" fill="#F0A429" d="M22.291,43.881c0.518-1.666,4.051-1.428,4.535-0.3
	C26.646,42.146,22.732,41.768,22.291,43.881z"/>
<path id="Path_1437_" fill="#F0A429" d="M26.908,41.842c-1.098-0.693-3.311-0.895-4.178-0.54c-0.186,0.067-0.125,0.647,0.029,0.605
	c1.195-0.357,3.051-0.224,4.078,0.356C26.977,42.339,27.076,41.938,26.908,41.842z"/>
<path id="Path_1436_" fill="#F0A429" d="M15.172,41.842c1.1-0.693,3.311-0.895,4.178-0.54c0.186,0.067,0.125,0.647-0.029,0.605
	c-1.195-0.357-3.049-0.224-4.08,0.356C15.104,42.339,15.004,41.938,15.172,41.842z"/>
<linearGradient id="SVGID_3_" gradientUnits="userSpaceOnUse" x1="21.0405" y1="45.4199" x2="21.0405" y2="31.6548">
	<stop  offset="0" style="stop-color:#473834"/>
	<stop  offset="0.2717" style="stop-color:#594640"/>
	<stop  offset="0.7226" style="stop-color:#715950"/>
	<stop  offset="1" style="stop-color:#7A6056"/>
	<a:midPointStop  offset="0" style="stop-color:#473834"/>
	<a:midPointStop  offset="0.4" style="stop-color:#473834"/>
	<a:midPointStop  offset="1" style="stop-color:#7A6056"/>
</linearGradient>
<path fill="url(#SVGID_3_)" d="M21.031,32.457c-0.525,0-1.012,0.033-1.48,0.082c0.195-0.203,0.438-0.361,0.773-0.424
	c-0.689-0.187-1.467-0.101-2.072,0.348c-0.127-0.217-0.18-0.495-0.053-0.809c-0.846,0.514-1.006,1.133-1.006,1.133
	c-0.242-0.392-0.254-0.904-0.254-0.904s-0.912,0.644-0.779,1.586c-0.814-0.355-1.498,0.058-1.498,0.058s0.4,0.171,0.592,0.53
	c-4.555,3.307-2.996,10.657-2.131,11.363c0,0,0.256-5.492,2.574-7.132c-0.125,1.036-0.402,1.769-0.402,1.769
	s2.275-0.359,4.279-1.639c-0.232,1.145-0.859,1.965-0.859,1.965s4.137-0.577,5.365-2.525c0,0,0.811,1.706,2.816,2.935
	c0,0,0.125-1.278-0.15-2.184c1.967,1.935,2.197,6.804,2.197,6.804C30.094,44.381,32.346,32.457,21.031,32.457z"/>
<path fill="#473834" d="M26.609,37.75l0.203,1.131c0,0,1.676,2.195,2.131,6.531C29.154,40.725,26.609,37.75,26.609,37.75z"/>
<path fill="#473834" d="M26.383,37.327c0,0,1.229,1.53,0.514,3.465C26.988,39.277,26.383,37.327,26.383,37.327z"/>
<path fill="#473834" d="M24.354,36.788c0.273,3.928-5.686,3.597-5.639,3.595C18.715,40.383,23.834,39.402,24.354,36.788z"/>
<path fill="#473834" d="M20.766,37.139c-1.119,3.168-5.229,2.895-5.471,2.918C15.295,40.057,18.969,38.993,20.766,37.139z"/>
<path fill="#473834" d="M16.039,37.879c-2.676,3.135-2.916,7.541-2.916,7.541S12.416,40.688,16.039,37.879z"/>
</svg>
