<?xml version="1.0" encoding="utf-8"?>
<!-- Generator: Adobe Illustrator 15.0.0, SVG Export Plug-In . SVG Version: 6.00 Build 0)  -->
<!DOCTYPE svg PUBLIC "-//W3C//DTD SVG 1.1//EN" "http://www.w3.org/Graphics/SVG/1.1/DTD/svg11.dtd" [
	<!ENTITY ns_flows "http://ns.adobe.com/Flows/1.0/">
	<!ENTITY ns_extend "http://ns.adobe.com/Extensibility/1.0/">
	<!ENTITY ns_ai "http://ns.adobe.com/AdobeIllustrator/10.0/">
	<!ENTITY ns_graphs "http://ns.adobe.com/Graphs/1.0/">
]>
<svg version="1.1" id="Layer_1" xmlns:x="&ns_extend;" xmlns:i="&ns_ai;" xmlns:graph="&ns_graphs;"
	 xmlns="http://www.w3.org/2000/svg" xmlns:xlink="http://www.w3.org/1999/xlink" xmlns:a="http://ns.adobe.com/AdobeSVGViewerExtensions/3.0/"
	 x="0px" y="0px" width="64px" height="64px" viewBox="0 0 64 64" enable-background="new 0 0 64 64" xml:space="preserve">
<path fill="#BA9757" d="M39.582,50.742c15.168-6.066,11.65-20.475,11.65-20.475H12.766c0,0-3.516,14.409,11.648,20.475
	c0,0,3.035,0.76,7.584,0.76C36.549,51.502,39.582,50.742,39.582,50.742z"/>
<linearGradient id="SVGID_1_" gradientUnits="userSpaceOnUse" x1="46.166" y1="51.498" x2="46.166" y2="6.1138">
	<stop  offset="0.05" style="stop-color:#BA9757"/>
	<stop  offset="0.1973" style="stop-color:#C6A265"/>
	<stop  offset="0.5085" style="stop-color:#DBB77D"/>
	<stop  offset="0.7" style="stop-color:#E3BE86"/>
	<a:midPointStop  offset="0.05" style="stop-color:#BA9757"/>
	<a:midPointStop  offset="0.4" style="stop-color:#BA9757"/>
	<a:midPointStop  offset="0.7" style="stop-color:#E3BE86"/>
</linearGradient>
<path fill="url(#SVGID_1_)" d="M47.332,31.804c1.172,4.932-1.553,14.6-7.75,18.938c9.102-1.516,13.168-10.109,13.168-16.703
	L47.332,31.804z"/>
<linearGradient id="SVGID_2_" gradientUnits="userSpaceOnUse" x1="1762.9805" y1="51.498" x2="1762.9805" y2="6.1138" gradientTransform="matrix(-1 0 0 1 1780.8145 0)">
	<stop  offset="0.05" style="stop-color:#BA9757"/>
	<stop  offset="0.1973" style="stop-color:#C6A265"/>
	<stop  offset="0.5085" style="stop-color:#DBB77D"/>
	<stop  offset="0.7" style="stop-color:#E3BE86"/>
	<a:midPointStop  offset="0.05" style="stop-color:#BA9757"/>
	<a:midPointStop  offset="0.4" style="stop-color:#BA9757"/>
	<a:midPointStop  offset="0.7" style="stop-color:#E3BE86"/>
</linearGradient>
<path fill="url(#SVGID_2_)" d="M16.666,31.804c-1.172,4.932,1.555,14.6,7.752,18.938C15.316,49.227,11.25,40.633,11.25,34.039
	L16.666,31.804z"/>
<path fill="#E81C27" d="M12.254,52.717C14.656,51.43,24,48.01,24,48.01l16-0.029c0,0,9.413,3.441,11.801,4.734
	C55.271,54.586,56,57.143,56,59.559c0,0.707-2.261,1.26-5.8,1.658l-36.5-0.01c-3.482-0.4-5.7-0.949-5.7-1.648
	C8,57.139,8.774,54.582,12.254,52.717z"/>
<path fill="#D9B18D" d="M24,49.947c0,0,2.567,2.832,8,2.832c5.434,0,8-2.832,8-2.832v-8.035H24V49.947z"/>
<path fill="#FFE12C" d="M14.177,58.295v2.963C18.782,61.752,25.388,62,32,62c6.568,0,13.132-0.244,17.732-0.732v-2.973H14.177z"/>
<path fill="#302C3B" d="M25.362,50.117c1.394,2.744,6.547,6.609,6.547,6.609s5.152-3.865,6.545-6.609
	C34.211,51.52,29.606,51.52,25.362,50.117z"/>
<rect x="31.91" y="54.709" fill="#302C3B" width="0.82" height="7.291"/>
<path fill="#B00505" d="M31.91,62c0,0-3.315-10.508-11.517-8.367c0,0-0.527-5.377,3.606-8.215c0,0,0.916,5.686,7.909,9.293L31.91,62
	"/>
<path fill="#B00505" d="M31.91,58.295c0,0,3.006-5.148,11.513-4.662c0,0,0.707-5.377-3.423-8.215c0,0-0.735,6.135-8.091,9.293
	L31.91,62"/>
<path fill="#B00505" d="M14.649,61.307l-0.945-0.1C13.704,55.02,14.649,55.119,14.649,61.307z"/>
<path fill="#B00505" d="M50.2,61.217l-0.936,0.1C49.265,55.129,50.2,55.029,50.2,61.217z"/>
<path fill="#EBC199" d="M32,8.277c-11.006,0-16.307,8.961-15.645,20.484c0.137,2.316,0.781,5.657,1.576,8.52
	C19.582,43.232,28.291,49.227,32,49.227c3.707,0,12.416-5.994,14.068-11.945c0.795-2.863,1.439-6.204,1.574-8.52
	C48.305,17.238,43.006,8.277,32,8.277z"/>
<path fill="#C98655" d="M31.998,39.871c-2.578-1.135-2.6-0.047-6.58,0.221c1.494,1.697,2.594,3.879,6.578,3.879
	c4.574,0,5.348-2.479,6.586-3.879C34.596,39.824,34.58,38.736,31.998,39.871z"/>
<path fill="#FFFFFF" d="M26.613,40.516c2.6,2.705,8.205,2.668,10.771,0.002C33.383,40.947,30.615,40.947,26.613,40.516z"/>
<path fill="#A17C5B" d="M43.693,24.927c-2.391-1.426-6.68-1.6-8.377-0.629c-0.359,0.197-0.262,1.227,0.049,1.098
	c2.42-1.008,6.107-1.059,8.379,0.107C44.049,25.658,44.057,25.134,43.693,24.927z"/>
<path fill="#A17C5B" d="M20.305,24.927c2.391-1.426,6.678-1.6,8.379-0.629c0.359,0.197,0.264,1.227-0.049,1.098
	c-2.422-1.008-6.105-1.061-8.381,0.107C19.949,25.658,19.943,25.134,20.305,24.927z"/>
<path fill="#C99B71" d="M34.473,36.215c-0.262-0.184-0.877,0.098-2.475,0.098c-1.596,0-2.211-0.281-2.473-0.098
	c-0.314,0.221,0.184,1.217,2.473,1.217S34.789,36.436,34.473,36.215z"/>
<path id="Path_1918_" fill="#FFFFFF" d="M29.551,29.251c0.094,0.727-0.4,1.59-1.77,2.236c-0.869,0.412-2.678,0.896-5.055-0.105
	c-1.064-0.449-2.104-1.848-2.01-2.621C22.004,26.333,28.346,25.978,29.551,29.251z"/>
<linearGradient id="Oval_1_" gradientUnits="userSpaceOnUse" x1="-424.5796" y1="477.4404" x2="-424.5796" y2="478.1992" gradientTransform="matrix(6.5701 0 0 -6.5701 2814.7805 3168.5281)">
	<stop  offset="0" style="stop-color:#A6694A"/>
	<stop  offset="1" style="stop-color:#4F2A1E"/>
	<a:midPointStop  offset="0" style="stop-color:#A6694A"/>
	<a:midPointStop  offset="0.5" style="stop-color:#A6694A"/>
	<a:midPointStop  offset="1" style="stop-color:#4F2A1E"/>
</linearGradient>
<circle id="Oval_296_" fill="url(#Oval_1_)" cx="25.248" cy="29.201" r="2.49"/>
<path id="Path_1917_" fill="#1A1626" d="M24.004,29.156c0,1.723,2.492,1.723,2.492,0C26.496,27.556,24.004,27.556,24.004,29.156z"/>
<path id="Path_1916_" fill="#AB968C" d="M23.625,28.458c0,0.723,1.045,0.723,1.045,0C24.67,27.789,23.625,27.789,23.625,28.458z"/>
<path id="Path_1915_" fill="#45332C" d="M29.563,29.347c-1.012-3.252-7.908-2.771-8.846-0.586
	C21.064,25.962,28.701,25.224,29.563,29.347z"/>
<path id="Path_1914_" fill="#FFFFFF" d="M34.447,29.251c-0.092,0.727,0.402,1.59,1.771,2.236c0.869,0.412,2.678,0.896,5.055-0.105
	c1.066-0.449,2.104-1.848,2.01-2.621C41.996,26.333,35.654,25.978,34.447,29.251z"/>
<linearGradient id="Oval_2_" gradientUnits="userSpaceOnUse" x1="-425.2319" y1="477.4404" x2="-425.2319" y2="478.1992" gradientTransform="matrix(6.5701 0 0 -6.5701 2832.511 3168.5281)">
	<stop  offset="0" style="stop-color:#A6694A"/>
	<stop  offset="1" style="stop-color:#4F2A1E"/>
	<a:midPointStop  offset="0" style="stop-color:#A6694A"/>
	<a:midPointStop  offset="0.5" style="stop-color:#A6694A"/>
	<a:midPointStop  offset="1" style="stop-color:#4F2A1E"/>
</linearGradient>
<circle id="Oval_295_" fill="url(#Oval_2_)" cx="38.695" cy="29.201" r="2.49"/>
<path id="Path_1913_" fill="#1A1626" d="M37.451,29.156c0,1.723,2.49,1.723,2.49,0C39.941,27.556,37.451,27.556,37.451,29.156z"/>
<path id="Path_1912_" fill="#AB968C" d="M37.07,28.458c0,0.723,1.045,0.723,1.045,0C38.115,27.789,37.07,27.789,37.07,28.458z"/>
<path id="Path_1911_" fill="#45332C" d="M34.438,29.347c1.01-3.25,7.902-2.785,8.846-0.586
	C42.934,25.962,35.299,25.224,34.438,29.347z"/>
<linearGradient id="SVGID_3_" gradientUnits="userSpaceOnUse" x1="32.0005" y1="51.499" x2="32.0005" y2="6.1135">
	<stop  offset="0.05" style="stop-color:#BA9757"/>
	<stop  offset="0.1973" style="stop-color:#C6A265"/>
	<stop  offset="0.5085" style="stop-color:#DBB77D"/>
	<stop  offset="0.7" style="stop-color:#E3BE86"/>
	<a:midPointStop  offset="0.05" style="stop-color:#BA9757"/>
	<a:midPointStop  offset="0.4" style="stop-color:#BA9757"/>
	<a:midPointStop  offset="0.7" style="stop-color:#E3BE86"/>
</linearGradient>
<path fill="url(#SVGID_3_)" d="M44.385,9.884c1.258-1.793-9.387-5.582-19.438-3.023C14.908,9.16,11.25,24.201,11.25,34.039
	c0.898,0.711,4.396-1.067,5.416-2.235c0.416-1.721,1.072-3.492,1.684-5.328c7.539-4.365,16.07-5.393,21.992-10.617
	c-0.758,2.275,3.256,5.145,5.309,10.617c0.664,1.775,1.26,3.553,1.682,5.328c1.674,1.542,3.014,2.268,5.418,2.235
	C52.75,25.718,48.41,8.724,44.385,9.884z"/>
<path fill="#BA9757" d="M13.059,32.542c6.943-9.248,27.438-8.621,31.326-22.658C36.834,21.666,14.955,23.654,13.059,32.542z"/>
<radialGradient id="SVGID_4_" cx="57.6455" cy="15.749" r="16.5133" gradientTransform="matrix(1 0 0 0.9959 -25.6465 0.2549)" gradientUnits="userSpaceOnUse">
	<stop  offset="0.2606" style="stop-color:#A10505"/>
	<stop  offset="0.4829" style="stop-color:#B20B0D"/>
	<stop  offset="0.9239" style="stop-color:#E01923"/>
	<stop  offset="1" style="stop-color:#E81C27"/>
	<a:midPointStop  offset="0.2606" style="stop-color:#A10505"/>
	<a:midPointStop  offset="0.5528" style="stop-color:#A10505"/>
	<a:midPointStop  offset="1" style="stop-color:#E81C27"/>
</radialGradient>
<path fill="url(#SVGID_4_)" d="M52.165,25.816c0,5.693,0.444-3.563-20.165-3.563c-20.611,0.002-20.167,9.256-20.167,3.563
	c0-14.041,9.028-21.604,20.167-21.604S52.165,11.775,52.165,25.816z"/>
<path fill="#E81C27" d="M38.057,21.339H25.943c0,0,0-13.201,0-16.133c0-4.275,12.113-4.275,12.113,0
	C38.057,8.449,38.057,21.339,38.057,21.339z"/>
<radialGradient id="SVGID_5_" cx="57.6455" cy="21.0552" r="14.9761" gradientTransform="matrix(1 0 0 0.9959 -25.6465 0.2549)" gradientUnits="userSpaceOnUse">
	<stop  offset="0" style="stop-color:#747080"/>
	<stop  offset="1" style="stop-color:#302C3B"/>
	<a:midPointStop  offset="0" style="stop-color:#747080"/>
	<a:midPointStop  offset="0.5" style="stop-color:#747080"/>
	<a:midPointStop  offset="1" style="stop-color:#302C3B"/>
</radialGradient>
<path fill="url(#SVGID_5_)" d="M52.165,25.816c0-1.455-0.118-2.824-0.304-4.141c-3.541-4.078-11.104-6.895-19.865-6.895
	c-8.755,0-16.314,2.811-19.854,6.881c-0.189,1.322-0.309,2.695-0.309,4.154c0,5.693-0.444-3.561,20.167-3.563
	C52.609,22.253,52.165,31.509,52.165,25.816z"/>
<path fill="#E81C27" d="M32,18.765c-12.97,0-23.48,5.416-23.48,12.102c0,2.141,1.09,4.147,2.987,5.891c0,0-0.181-1.398-0.181-2.715
	c0-5.665,9.256-10.254,20.674-10.254c11.42,0,20.674,4.59,20.674,10.254c0,1.314-0.135,2.67-0.135,2.67
	c1.867-1.732,2.941-3.723,2.941-5.846C55.48,24.181,44.966,18.765,32,18.765z"/>
<path fill="#FFE12C" d="M37.949,10.845c-1.49-2.883-4.695-2.275-5.951-4.688c-1.254,2.412-4.461,1.805-5.949,4.688
	c-1.496,2.895,1.309,4.135-0.438,5.803c0,0,1.865,1.314,1.332,4.301c0,0,2.037-0.963,5.055,1.139
	c3.018-2.102,5.055-1.139,5.055-1.139c-0.531-2.986,1.334-4.301,1.334-4.301C36.641,14.98,39.445,13.74,37.949,10.845z"/>
<path fill="#302C3B" d="M35.299,17.986h-1.16v0.465h1.064v0.381h-1.064v0.564h1.213v0.393h-1.66v-2.191h1.607V17.986z"/>
<path fill="#302C3B" d="M28.646,17.599h1.561v0.383H29.1v0.506h0.973v0.381H29.1v0.918h-0.453V17.599z"/>
<path fill="#302C3B" d="M31.119,19.789h-0.457v-2.191h0.457V19.789z"/>
<path fill="#302C3B" d="M32.969,17.652c0.08,0.033,0.148,0.086,0.205,0.154c0.045,0.055,0.084,0.115,0.109,0.184
	c0.027,0.068,0.043,0.145,0.043,0.23c0,0.105-0.027,0.209-0.08,0.309s-0.139,0.17-0.26,0.213c0.1,0.039,0.172,0.098,0.213,0.174
	c0.043,0.074,0.066,0.189,0.066,0.342v0.146c0,0.1,0.002,0.168,0.01,0.205c0.012,0.059,0.041,0.098,0.084,0.127v0.053h-0.506
	c-0.012-0.047-0.023-0.088-0.029-0.117c-0.012-0.061-0.018-0.125-0.02-0.188l-0.004-0.205c0-0.141-0.025-0.232-0.072-0.279
	c-0.045-0.047-0.133-0.07-0.26-0.07H32.02v0.859h-0.445v-2.191h1.049C32.771,17.599,32.889,17.617,32.969,17.652z M32.02,17.976
	v0.59h0.494c0.098,0,0.172-0.014,0.221-0.037c0.086-0.041,0.131-0.123,0.131-0.244c0-0.133-0.043-0.223-0.127-0.268
	c-0.045-0.027-0.117-0.041-0.213-0.041H32.02z"/>
<path fill="#E81C27" d="M35.461,11.298c-0.838-0.84-2.037,0.387-2.385,0.463c0.074-0.35,1.301-1.549,0.463-2.389
	c-0.242-0.242-2.838-0.242-3.08,0c-0.838,0.84,0.387,2.039,0.461,2.389c-0.348-0.076-1.547-1.303-2.385-0.463
	c-0.242,0.244-0.242,2.836,0,3.08c0.838,0.836,2.037-0.387,2.385-0.463c-0.074,0.348-1.299,1.547-0.461,2.387
	c0.242,0.24,2.838,0.24,3.08,0c0.838-0.84-0.389-2.039-0.463-2.387c0.348,0.076,1.547,1.299,2.385,0.463
	C35.703,14.134,35.703,11.542,35.461,11.298z"/>
</svg>
