<?xml version="1.0" encoding="utf-8"?>
<!-- Generator: Adobe Illustrator 15.0.0, SVG Export Plug-In . SVG Version: 6.00 Build 0)  -->
<!DOCTYPE svg PUBLIC "-//W3C//DTD SVG 1.1//EN" "http://www.w3.org/Graphics/SVG/1.1/DTD/svg11.dtd" [
	<!ENTITY ns_flows "http://ns.adobe.com/Flows/1.0/">
	<!ENTITY ns_extend "http://ns.adobe.com/Extensibility/1.0/">
	<!ENTITY ns_ai "http://ns.adobe.com/AdobeIllustrator/10.0/">
	<!ENTITY ns_graphs "http://ns.adobe.com/Graphs/1.0/">
]>
<svg version="1.1" id="Layer_1" xmlns:x="&ns_extend;" xmlns:i="&ns_ai;" xmlns:graph="&ns_graphs;"
	 xmlns="http://www.w3.org/2000/svg" xmlns:xlink="http://www.w3.org/1999/xlink" xmlns:a="http://ns.adobe.com/AdobeSVGViewerExtensions/3.0/"
	 x="0px" y="0px" width="64px" height="64px" viewBox="0 0 64 64" enable-background="new 0 0 64 64" xml:space="preserve">
<path fill="#302C3B" d="M13.996,61.9c-1.504-0.568,0.24-2.203-0.316-4.357c-1.086-4.201,2.66-3.943,3.107-1.947
	C17.746,59.875,15.75,62.561,13.996,61.9z"/>
<path fill="#F5BB51" d="M16.001,55.824c-0.273-5.205,1.084-5.941-0.873-9.408c1.021-3.064,0.502-4.807,0.502-4.807l-4.873-4.363
	c0,0,0.299,8.047,1.238,11.025c1.15,3.668,1.861,7.953,1.861,7.953C13.955,58.379,16.126,58.166,16.001,55.824z"/>
<path fill="#F5BB51" d="M7.281,29.854c0.947-1.076,1.217-2.242,1.217-2.242l-2.164-1.99c-2.777,4.668-2.633,4.125-1.82,5.414
	c1.852,2.932,5.93,3.922,5.93,3.922s0.477-2.316-0.016-2.547C9.066,31.768,8.728,30.541,7.281,29.854z"/>
<path fill="#F5BB51" d="M20.607,28.689c-0.67-0.314-1.059-1.174-1.059-1.174l2.117-2.375c2.869,3.934,3.127,3.027,1.975,5.133
	c-0.967,1.766-5.41,3.803-5.41,3.803s-1.834-1.639-1.359-1.893C18.927,31.092,19.142,29.281,20.607,28.689z"/>
<path fill="#302C3B" d="M29.498,52.758c-3.746-2.371-1.148-5.225,0.463-4.225C37.153,52.992,33.294,55.162,29.498,52.758z"/>
<path fill="#F5BB51" d="M30.089,49.762c-3.557-3.441-3.057-5.184-6.801-5.959c-1.111-5.996-4.957-9.15-4.957-9.15
	c-2.684,3.523-1.787,6.598-1.787,6.598s3.039,5.084,5.682,6.398c3.254,1.604,6.563,4.029,6.563,4.029
	C30.25,53.117,31.695,51.314,30.089,49.762z"/>
<path fill="#302C3B" d="M20.361,36.553c-0.496-1.09-1.15-2.207-2.662-3.768c-1.49-1.539,0.455-3.738,0.184-6.105l1.758,1.17
	l2.602-2.016c0,0-1.037-3.072-3.744-3.227c-1.576-1.994-7.15-2.408-10.043,0.35c-2.201,0.711-2.699,3.633-2.699,3.633l2.693,1.344
	l0.387-0.504c0.209,3.17,1.607,3.688,1.664,9.656c0.021,2.258,0.598,6.861,0.598,6.861h4.77l0.053-1.912
	c0.121,0.012,0.236,0.033,0.361,0.033c0.176,0,0.377-0.039,0.59-0.107l0.896,1.469l4.576-3.26
	C21.441,37.766,20.796,37.502,20.361,36.553z"/>
<path fill="#F5BB51" d="M11.259,22.113c0,0,0.75,0.908,2.344,0.908c1.59,0,2.344-0.908,2.344-0.908v-2.576h-4.688V22.113z"/>
<path id="Path_2344_" fill="#FFC940" d="M18.873,14.24c-0.814,0.098-1.404,2.826-0.891,3.545c0.072,0.102,0.492,0.262,0.805-0.373
	c0.172-0.352,0.67-0.646,0.824-1.371C19.81,15.109,19.685,14.141,18.873,14.24z"/>
<path id="Path_2343_" fill="#FFC940" d="M8.332,14.24c0.814,0.098,1.404,2.826,0.891,3.545c-0.072,0.102-0.492,0.262-0.805-0.373
	c-0.172-0.352-0.67-0.646-0.824-1.371C7.394,15.109,7.519,14.141,8.332,14.24z"/>
<path id="Path_2342_" fill="#F0A429" d="M18.851,14.762c-0.213,0.066-0.445,0.391-0.57,0.93c0.744-0.16,0.557,1.078-0.09,1.102
	c0.008,0.125,0.016,0.252,0.031,0.387c0.311-0.453,0.627-0.271,0.941-0.943C19.445,15.631,19.378,14.598,18.851,14.762z"/>
<path id="Path_2341_" fill="#F0A429" d="M8.923,15.689c-0.127-0.537-0.357-0.861-0.57-0.928c-0.527-0.164-0.596,0.869-0.313,1.475
	c0.314,0.672,0.631,0.49,0.943,0.943c0.014-0.135,0.023-0.264,0.027-0.389C8.373,16.762,8.189,15.539,8.923,15.689z"/>
<path id="Path_2340_" fill="#FFC940" d="M13.601,8.994c-3.535,0-5.238,2.67-5.025,6.385c0.043,0.746,0.508,3.182,0.945,4.057
	c0.447,0.895,1.947,2.273,2.865,2.561c0.58,0.178,1.85,0.178,2.432,0c0.918-0.287,2.418-1.666,2.865-2.561
	c0.439-0.875,0.902-3.311,0.945-4.057C18.841,11.664,17.138,8.994,13.601,8.994z"/>
<path id="Path_2339_" fill="#966F42" d="M17.445,13.967c-0.811-0.428-2.357-0.449-2.934-0.15c-0.125,0.057-0.041,0.463,0.061,0.424
	c0.805-0.316,2.1-0.324,2.852,0.027C17.525,14.313,17.566,14.027,17.445,13.967z"/>
<path id="Path_2338_" fill="#966F42" d="M9.759,13.967c0.809-0.428,2.355-0.449,2.934-0.15c0.123,0.057,0.041,0.463-0.063,0.424
	c-0.805-0.316-2.1-0.324-2.852,0.027C9.679,14.313,9.638,14.027,9.759,13.967z"/>
<path id="Path_2337_" fill="#F0A429" d="M14.556,17.676c-0.102-0.07-0.338,0.039-0.955,0.039c-0.615,0-0.854-0.109-0.953-0.039
	c-0.121,0.084,0.07,0.469,0.953,0.469S14.677,17.76,14.556,17.676z"/>
<path id="Path_2336_" fill="#F0A429" d="M13.601,19.131c-0.795-0.234-1.973,0.109-1.973,0.109c0.449,0.488,0.777,1.121,1.973,1.121
	c1.371,0,1.604-0.719,1.975-1.121C15.576,19.24,14.396,18.895,13.601,19.131z"/>
<path id="Path_2335_" fill="#FFFFFF" d="M11.923,19.324c0.834,0.697,2.518,0.701,3.357,0C14.39,19.361,12.818,19.361,11.923,19.324z
	"/>
<path id="Path_2334_" fill="#FFFFFF" d="M12.814,15.424c0.031,0.232-0.129,0.51-0.568,0.719c-0.279,0.133-0.861,0.287-1.623-0.035
	c-0.344-0.143-0.676-0.592-0.646-0.842C10.39,14.488,12.427,14.375,12.814,15.424z"/>
<linearGradient id="Oval_1_" gradientUnits="userSpaceOnUse" x1="-426.6826" y1="479.7979" x2="-426.6826" y2="480.041" gradientTransform="matrix(6.5701 0 0 -6.5701 2814.7805 3168.5281)">
	<stop  offset="0" style="stop-color:#A6694A"/>
	<stop  offset="1" style="stop-color:#4F2A1E"/>
	<a:midPointStop  offset="0" style="stop-color:#A6694A"/>
	<a:midPointStop  offset="0.5" style="stop-color:#A6694A"/>
	<a:midPointStop  offset="1" style="stop-color:#4F2A1E"/>
</linearGradient>
<circle id="Oval_278_" fill="url(#Oval_1_)" cx="11.433" cy="15.408" r="0.799"/>
<path id="Path_2333_" fill="#1A1626" d="M11.033,15.393c0,0.555,0.801,0.555,0.801,0C11.833,14.881,11.033,14.881,11.033,15.393z"/>
<path id="Path_2332_" fill="#AB968C" d="M10.912,15.17c0,0.23,0.334,0.23,0.334,0C11.246,14.955,10.912,14.955,10.912,15.17z"/>
<path id="Path_2331_" fill="#F0A429" d="M12.818,15.455c-0.324-1.043-2.541-0.889-2.842-0.189
	C10.087,14.369,12.542,14.133,12.818,15.455z"/>
<path id="Path_2330_" fill="#FFFFFF" d="M14.388,15.424c-0.029,0.232,0.129,0.51,0.568,0.719c0.279,0.133,0.861,0.287,1.625-0.035
	c0.344-0.143,0.676-0.592,0.646-0.842C16.814,14.488,14.777,14.375,14.388,15.424z"/>
<linearGradient id="Oval_2_" gradientUnits="userSpaceOnUse" x1="-428.7241" y1="479.7979" x2="-428.7241" y2="480.041" gradientTransform="matrix(6.5701 0 0 -6.5701 2832.511 3168.5281)">
	<stop  offset="0" style="stop-color:#A6694A"/>
	<stop  offset="1" style="stop-color:#4F2A1E"/>
	<a:midPointStop  offset="0" style="stop-color:#A6694A"/>
	<a:midPointStop  offset="0.5" style="stop-color:#A6694A"/>
	<a:midPointStop  offset="1" style="stop-color:#4F2A1E"/>
</linearGradient>
<circle id="Oval_277_" fill="url(#Oval_2_)" cx="15.751" cy="15.408" r="0.799"/>
<path id="Path_2329_" fill="#1A1626" d="M15.353,15.393c0,0.555,0.801,0.555,0.801,0C16.154,14.881,15.353,14.881,15.353,15.393z"/>
<path id="Path_2328_" fill="#AB968C" d="M15.232,15.17c0,0.23,0.334,0.23,0.334,0C15.566,14.955,15.232,14.955,15.232,15.17z"/>
<path id="Path_2327_" fill="#F0A429" d="M14.384,15.455c0.326-1.043,2.541-0.895,2.844-0.189
	C17.115,14.369,14.662,14.133,14.384,15.455z"/>
<path fill="#7A6056" d="M18.119,9.879c-0.775-1.045-2.191-1.857-4.518-1.857s-3.74,0.813-4.516,1.857
	C7.99,11.359,19.214,11.359,18.119,9.879z"/>
<linearGradient id="SVGID_1_" gradientUnits="userSpaceOnUse" x1="13.6021" y1="16.291" x2="13.6021" y2="9.436">
	<stop  offset="0.5" style="stop-color:#473834"/>
	<stop  offset="0.6387" style="stop-color:#503F3A"/>
	<stop  offset="0.8641" style="stop-color:#68524A"/>
	<stop  offset="1" style="stop-color:#7A6056"/>
	<a:midPointStop  offset="0.5" style="stop-color:#473834"/>
	<a:midPointStop  offset="0.6" style="stop-color:#473834"/>
	<a:midPointStop  offset="1" style="stop-color:#7A6056"/>
</linearGradient>
<path fill="url(#SVGID_1_)" d="M18.119,9.879c-0.775-1.045-2.191,0.088-4.518,0.088s-3.74-1.133-4.516-0.088
	c-1.096,1.48-0.723,6.412-0.234,6.412c0.076,0,0.088-1.725,0.234-2.92c0.121-0.971,0.352-1.912,0.617-2.066
	c0.813-0.471,2.377,0.201,3.898,0.201s3.088-0.672,3.9-0.201c0.266,0.154,0.496,1.096,0.617,2.066
	c0.146,1.195,0.158,2.92,0.234,2.92C18.841,16.291,19.214,11.359,18.119,9.879z"/>
<path fill="#302C3B" d="M18.343,2.004c-0.291-0.102-2.76,1.793-2.836,3.369c-0.084,1.787-0.191,3.074-0.266,3.85
	c-0.752-0.104-2.529-0.1-3.277,0.014c-0.074-0.773-0.18-2.066-0.266-3.863c-0.076-1.576-2.545-3.471-2.838-3.369
	C8.386,2.168,7.529,5,8.337,6.232C9.501,8.004,10,9.107,10.214,9.752c-0.666,0.311-1.23,0.732-1.598,1.281
	c3.412-1.213,6.674-1.213,10.086,0c-0.385-0.576-0.984-1.016-1.695-1.328c0.225-0.648,0.723-1.742,1.859-3.473
	C19.675,5,18.82,2.168,18.343,2.004z"/>
<path fill="#302C3B" d="M39.995,61.9c-1.504-0.568,0.24-2.203-0.316-4.357c-1.086-4.201,2.66-3.943,3.107-1.947
	C43.745,59.875,41.749,62.561,39.995,61.9z"/>
<path fill="#F5BB51" d="M42.001,55.824c-0.273-5.205,1.084-5.941-0.873-9.408c1.021-3.064,0.502-4.807,0.502-4.807l-4.873-4.363
	c0,0,0.299,8.047,1.238,11.025c1.15,3.668,1.861,7.953,1.861,7.953C39.954,58.379,42.126,58.166,42.001,55.824z"/>
<path fill="#F5BB51" d="M33.28,29.854c0.947-1.076,1.217-2.242,1.217-2.242l-2.164-1.99c-2.777,4.668-2.633,4.125-1.82,5.414
	c1.852,2.932,5.929,3.922,5.929,3.922s0.477-2.316-0.016-2.547C35.065,31.768,34.728,30.541,33.28,29.854z"/>
<path fill="#F5BB51" d="M46.606,28.689c-0.67-0.314-1.059-1.174-1.059-1.174l2.117-2.375c2.869,3.934,3.127,3.027,1.975,5.133
	c-0.967,1.766-5.41,3.803-5.41,3.803s-1.834-1.639-1.359-1.893C44.927,31.092,45.142,29.281,46.606,28.689z"/>
<path fill="#302C3B" d="M55.497,52.758c-3.746-2.371-1.148-5.225,0.463-4.225C63.153,52.992,59.294,55.162,55.497,52.758z"/>
<path fill="#F5BB51" d="M56.089,49.762c-3.557-3.441-3.057-5.184-6.801-5.959c-1.111-5.996-4.957-9.15-4.957-9.15
	c-2.684,3.523-1.787,6.598-1.787,6.598s3.039,5.084,5.682,6.398c3.254,1.604,6.563,4.029,6.563,4.029
	C56.249,53.117,57.694,51.314,56.089,49.762z"/>
<path fill="#302C3B" d="M46.36,36.553c-0.496-1.09-1.15-2.207-2.662-3.768c-1.49-1.539,0.455-3.738,0.184-6.105l1.758,1.17
	l2.602-2.016c0,0-1.037-3.072-3.744-3.227c-1.576-1.994-7.15-2.408-10.043,0.35c-2.201,0.711-2.699,3.633-2.699,3.633l2.693,1.344
	l0.387-0.504c0.209,3.17,1.607,3.688,1.664,9.656c0.021,2.258,0.598,6.861,0.598,6.861h4.77l0.053-1.912
	c0.121,0.012,0.236,0.033,0.361,0.033c0.176,0,0.377-0.039,0.59-0.107l0.896,1.469l4.576-3.26
	C47.44,37.766,46.796,37.502,46.36,36.553z"/>
<path fill="#F5BB51" d="M37.259,22.113c0,0,0.752,0.908,2.344,0.908s2.344-0.908,2.344-0.908v-2.576h-4.688V22.113z"/>
<path id="Path_2326_" fill="#FFC940" d="M44.874,14.24c-0.816,0.098-1.406,2.826-0.893,3.545c0.072,0.102,0.492,0.262,0.805-0.373
	c0.174-0.352,0.67-0.646,0.824-1.371C45.81,15.109,45.687,14.141,44.874,14.24z"/>
<path id="Path_2325_" fill="#FFC940" d="M34.331,14.24c0.814,0.098,1.404,2.826,0.891,3.545c-0.072,0.102-0.492,0.262-0.805-0.373
	c-0.172-0.352-0.67-0.646-0.824-1.371C33.394,15.109,33.519,14.141,34.331,14.24z"/>
<path id="Path_2324_" fill="#F0A429" d="M44.851,14.762c-0.211,0.066-0.445,0.391-0.57,0.93c0.744-0.16,0.559,1.078-0.088,1.102
	c0.006,0.125,0.014,0.252,0.029,0.387c0.311-0.453,0.629-0.271,0.941-0.943C45.446,15.631,45.378,14.598,44.851,14.762z"/>
<path id="Path_2323_" fill="#F0A429" d="M34.923,15.689c-0.127-0.537-0.357-0.861-0.57-0.928c-0.527-0.164-0.596,0.869-0.313,1.475
	c0.314,0.672,0.631,0.49,0.943,0.943c0.014-0.135,0.023-0.264,0.027-0.389C34.372,16.762,34.188,15.539,34.923,15.689z"/>
<path id="Path_2322_" fill="#FFC940" d="M39.601,8.994c-3.535,0-5.238,2.67-5.025,6.385c0.043,0.746,0.508,3.182,0.945,4.057
	c0.447,0.895,1.947,2.273,2.865,2.561c0.582,0.178,1.852,0.178,2.432,0c0.918-0.287,2.418-1.666,2.865-2.561
	c0.439-0.875,0.904-3.311,0.945-4.057C44.843,11.664,43.138,8.994,39.601,8.994z"/>
<path id="Path_2321_" fill="#966F42" d="M43.444,13.967c-0.809-0.428-2.357-0.449-2.934-0.15c-0.123,0.057-0.041,0.463,0.063,0.424
	c0.803-0.316,2.1-0.324,2.852,0.027C43.524,14.313,43.565,14.027,43.444,13.967z"/>
<path id="Path_2320_" fill="#966F42" d="M35.759,13.967c0.811-0.428,2.357-0.449,2.934-0.15c0.123,0.057,0.041,0.463-0.063,0.424
	c-0.805-0.316-2.098-0.324-2.852,0.027C35.679,14.313,35.638,14.027,35.759,13.967z"/>
<path id="Path_2319_" fill="#F0A429" d="M40.556,17.676c-0.1-0.07-0.338,0.039-0.955,0.039c-0.615,0-0.852-0.109-0.953-0.039
	c-0.119,0.084,0.072,0.469,0.953,0.469C40.485,18.145,40.677,17.76,40.556,17.676z"/>
<path id="Path_2318_" fill="#F0A429" d="M39.601,19.131c-0.793-0.234-1.973,0.109-1.973,0.109c0.449,0.488,0.777,1.121,1.973,1.121
	c1.371,0,1.605-0.719,1.975-1.121C41.575,19.24,40.397,18.895,39.601,19.131z"/>
<path id="Path_2317_" fill="#FFFFFF" d="M37.923,19.324c0.834,0.697,2.518,0.701,3.357,0C40.39,19.361,38.819,19.361,37.923,19.324z
	"/>
<path id="Path_2316_" fill="#FFFFFF" d="M38.815,15.424c0.029,0.232-0.129,0.51-0.568,0.719c-0.279,0.133-0.861,0.287-1.625-0.035
	c-0.342-0.143-0.676-0.592-0.646-0.842C36.39,14.488,38.427,14.375,38.815,15.424z"/>
<linearGradient id="Oval_3_" gradientUnits="userSpaceOnUse" x1="-422.7251" y1="479.7979" x2="-422.7251" y2="480.041" gradientTransform="matrix(6.5701 0 0 -6.5701 2814.7805 3168.5281)">
	<stop  offset="0" style="stop-color:#A6694A"/>
	<stop  offset="1" style="stop-color:#4F2A1E"/>
	<a:midPointStop  offset="0" style="stop-color:#A6694A"/>
	<a:midPointStop  offset="0.5" style="stop-color:#A6694A"/>
	<a:midPointStop  offset="1" style="stop-color:#4F2A1E"/>
</linearGradient>
<circle id="Oval_276_" fill="url(#Oval_3_)" cx="37.433" cy="15.408" r="0.799"/>
<path id="Path_2315_" fill="#1A1626" d="M37.032,15.393c0,0.555,0.801,0.555,0.801,0C37.833,14.881,37.032,14.881,37.032,15.393z"/>
<path id="Path_2314_" fill="#AB968C" d="M36.911,15.17c0,0.23,0.334,0.23,0.334,0C37.245,14.955,36.911,14.955,36.911,15.17z"/>
<path id="Path_2313_" fill="#F0A429" d="M38.819,15.455c-0.326-1.043-2.541-0.889-2.844-0.189
	C36.087,14.369,38.542,14.133,38.819,15.455z"/>
<path id="Path_2312_" fill="#FFFFFF" d="M40.39,15.424c-0.031,0.232,0.127,0.51,0.568,0.719c0.279,0.133,0.859,0.287,1.623-0.035
	c0.344-0.143,0.676-0.592,0.646-0.842C42.813,14.488,40.776,14.375,40.39,15.424z"/>
<linearGradient id="Oval_4_" gradientUnits="userSpaceOnUse" x1="-424.7661" y1="479.7979" x2="-424.7661" y2="480.041" gradientTransform="matrix(6.5701 0 0 -6.5701 2832.511 3168.5281)">
	<stop  offset="0" style="stop-color:#A6694A"/>
	<stop  offset="1" style="stop-color:#4F2A1E"/>
	<a:midPointStop  offset="0" style="stop-color:#A6694A"/>
	<a:midPointStop  offset="0.5" style="stop-color:#A6694A"/>
	<a:midPointStop  offset="1" style="stop-color:#4F2A1E"/>
</linearGradient>
<circle id="Oval_275_" fill="url(#Oval_4_)" cx="41.753" cy="15.408" r="0.799"/>
<path id="Path_2311_" fill="#1A1626" d="M41.353,15.393c0,0.555,0.801,0.555,0.801,0C42.153,14.881,41.353,14.881,41.353,15.393z"/>
<path id="Path_2310_" fill="#AB968C" d="M41.231,15.17c0,0.23,0.334,0.23,0.334,0C41.565,14.955,41.231,14.955,41.231,15.17z"/>
<path id="Path_2309_" fill="#F0A429" d="M40.386,15.455c0.324-1.043,2.539-0.895,2.842-0.189
	C43.114,14.369,40.661,14.133,40.386,15.455z"/>
<path fill="#7A6056" d="M44.118,9.879c-0.773-1.045-2.189-1.857-4.518-1.857c-2.324,0-3.74,0.813-4.516,1.857
	C33.989,11.359,45.214,11.359,44.118,9.879z"/>
<linearGradient id="SVGID_2_" gradientUnits="userSpaceOnUse" x1="39.6016" y1="16.291" x2="39.6016" y2="9.436">
	<stop  offset="0.5" style="stop-color:#473834"/>
	<stop  offset="0.6387" style="stop-color:#503F3A"/>
	<stop  offset="0.8641" style="stop-color:#68524A"/>
	<stop  offset="1" style="stop-color:#7A6056"/>
	<a:midPointStop  offset="0.5" style="stop-color:#473834"/>
	<a:midPointStop  offset="0.6" style="stop-color:#473834"/>
	<a:midPointStop  offset="1" style="stop-color:#7A6056"/>
</linearGradient>
<path fill="url(#SVGID_2_)" d="M44.118,9.879c-0.773-1.045-2.189,0.088-4.518,0.088c-2.324,0-3.74-1.133-4.516-0.088
	c-1.096,1.48-0.723,6.412-0.234,6.412c0.076,0,0.088-1.725,0.234-2.92c0.121-0.971,0.352-1.912,0.617-2.066
	c0.813-0.471,2.377,0.201,3.898,0.201s3.088-0.672,3.9-0.201c0.266,0.154,0.496,1.096,0.617,2.066
	c0.146,1.195,0.158,2.92,0.236,2.92C44.843,16.291,45.214,11.359,44.118,9.879z"/>
<path fill="#302C3B" d="M44.343,2.004c-0.291-0.102-2.76,1.793-2.836,3.369c-0.084,1.787-0.191,3.074-0.266,3.85
	c-0.752-0.104-2.529-0.1-3.277,0.014c-0.074-0.773-0.18-2.066-0.266-3.863c-0.076-1.576-2.545-3.471-2.838-3.369
	C34.386,2.168,33.528,5,34.337,6.232c1.164,1.771,1.662,2.875,1.877,3.52c-0.666,0.311-1.23,0.732-1.598,1.281
	c3.412-1.213,6.674-1.213,10.086,0c-0.385-0.576-0.984-1.016-1.695-1.328c0.225-0.648,0.723-1.742,1.859-3.473
	C45.675,5,44.819,2.168,44.343,2.004z"/>
</svg>
