<?xml version="1.0" encoding="utf-8"?>
<!-- Generator: Adobe Illustrator 24.1.2, SVG Export Plug-In . SVG Version: 6.00 Build 0)  -->
<svg version="1.1" id="Layer_1" xmlns="http://www.w3.org/2000/svg" xmlns:xlink="http://www.w3.org/1999/xlink" x="0px" y="0px"
	 width="64px" height="64px" viewBox="0 0 64 64" style="enable-background:new 0 0 64 64;" xml:space="preserve">
<style type="text/css">
	.st0{fill:url(#SVGID_1_);}
	.st1{fill:#B88A6F;}
	.st2{fill:#8C5F44;}
	.st3{fill:#78513A;}
	.st4{fill:#FFFFFF;}
	.st5{fill:url(#Oval_1_);}
	.st6{fill:#1A1626;}
	.st7{fill:#AB968C;}
	.st8{fill:url(#Oval_2_);}
	.st9{fill:#8F604D;}
	.st10{fill:url(#SVGID_2_);}
	.st11{fill:#735C48;}
	.st12{fill:#4A3728;}
	.st13{fill:#403229;}
	.st14{fill:url(#Oval_3_);}
	.st15{fill:url(#Oval_4_);}
	.st16{fill:#403A33;}
	.st17{fill:url(#SVGID_3_);}
</style>
<linearGradient id="SVGID_1_" gradientUnits="userSpaceOnUse" x1="31.9994" y1="28.5998" x2="31.9994" y2="2.9997">
	<stop  offset="0" style="stop-color:#DB0100"/>
	<stop  offset="0.5836" style="stop-color:#F31317"/>
	<stop  offset="1" style="stop-color:#FF1C23"/>
</linearGradient>
<path class="st0" d="M32,6.86c-4.2-6.82-15.8-4.16-15.81,4.41c0,5.15,4.32,8.78,12.75,15.59c2.86,2.31,3.27,2.31,6.13,0
	c8.42-6.81,12.74-10.44,12.74-15.6C47.81,2.71,36.2,0.04,32,6.86z"/>
<path id="Path_2509_" class="st1" d="M29.46,43.1c-1.85,0.22-3.18,6.41-2.02,8.04c0.16,0.23,1.12,0.59,1.82-0.85
	c0.39-0.8,1.52-1.46,1.87-3.11C31.58,45.08,31.3,42.88,29.46,43.1z"/>
<path id="Path_2508_" class="st1" d="M5.59,43.1c1.85,0.22,3.18,6.41,2.02,8.04c-0.16,0.23-1.12,0.59-1.82-0.85
	c-0.39-0.8-1.52-1.46-1.87-3.11C3.47,45.08,3.75,42.88,5.59,43.1z"/>
<path id="Path_2507_" class="st2" d="M29.41,44.29c-0.48,0.15-1.01,0.89-1.29,2.11c1.69-0.36,1.26,2.45-0.2,2.5
	c0.01,0.28,0.03,0.57,0.07,0.88c0.71-1.02,1.42-0.61,2.13-2.14C30.76,46.26,30.61,43.91,29.41,44.29z"/>
<path id="Path_2506_" class="st2" d="M6.93,46.39c-0.29-1.22-0.81-1.95-1.29-2.1c-1.19-0.38-1.35,1.97-0.71,3.35
	c0.71,1.52,1.43,1.11,2.13,2.14c0.04-0.3,0.05-0.6,0.07-0.88C5.68,48.83,5.27,46.05,6.93,46.39z"/>
<path id="Path_2505_" class="st1" d="M17.53,31.21c-8,0-11.86,6.06-11.38,14.48c0.1,1.69,1.15,7.22,2.14,9.2
	c1.02,2.03,4.41,5.16,6.49,5.8c1.31,0.41,4.19,0.41,5.5,0c2.08-0.65,5.48-3.78,6.49-5.8c0.99-1.98,2.04-7.51,2.14-9.2
	C29.39,37.26,25.53,31.21,17.53,31.21z"/>
<path id="Path_2504_" class="st3" d="M26.22,42.49c-1.83-0.97-5.34-1.02-6.64-0.34c-0.28,0.13-0.09,1.05,0.14,0.96
	c1.82-0.72,4.75-0.74,6.46,0.06C26.41,43.27,26.5,42.62,26.22,42.49z"/>
<path id="Path_2503_" class="st3" d="M8.83,42.49c1.83-0.97,5.33-1.02,6.64-0.34c0.28,0.13,0.09,1.05-0.14,0.96
	c-1.82-0.72-4.75-0.74-6.46,0.06C8.64,43.27,8.55,42.62,8.83,42.49z"/>
<path id="Path_2502_" class="st2" d="M19.69,50.9c-0.23-0.16-0.76,0.09-2.16,0.09c-1.39,0-1.93-0.25-2.16-0.09
	c-0.27,0.19,0.16,1.06,2.16,1.06C19.53,51.96,19.96,51.09,19.69,50.9z"/>
<path id="Path_2501_" class="st2" d="M17.53,54.2c-1.8-0.53-4.47,0.25-4.47,0.25c1.02,1.11,1.76,2.54,4.47,2.54
	c3.1,0,3.63-1.63,4.47-2.54C22,54.45,19.33,53.66,17.53,54.2z"/>
<path id="Path_2500_" class="st4" d="M13.73,54.64c1.89,1.58,5.7,1.59,7.6,0C19.31,54.72,15.75,54.72,13.73,54.64z"/>
<path id="Path_2499_" class="st4" d="M15.74,45.79c0.07,0.53-0.29,1.16-1.29,1.63c-0.63,0.3-1.95,0.65-3.68-0.08
	C10,47.02,9.25,46,9.32,45.43C10.25,43.67,14.87,43.41,15.74,45.79z"/>
<linearGradient id="Oval_1_" gradientUnits="userSpaceOnUse" x1="-426.5028" y1="475.0247" x2="-426.5028" y2="475.5764" gradientTransform="matrix(6.5701 0 0 -6.5701 2814.7817 3168.5269)">
	<stop  offset="0" style="stop-color:#A6694A"/>
	<stop  offset="1" style="stop-color:#4F2A1E"/>
</linearGradient>
<circle id="Oval_316_" class="st5" cx="12.62" cy="45.75" r="1.81"/>
<path id="Path_2498_" class="st6" d="M11.71,45.72c0,1.25,1.81,1.25,1.81,0C13.52,44.56,11.71,44.56,11.71,45.72z"/>
<path id="Path_2497_" class="st7" d="M11.43,45.21c0,0.53,0.76,0.53,0.76,0C12.19,44.73,11.43,44.73,11.43,45.21z"/>
<path id="Path_2496_" class="st2" d="M15.75,45.86c-0.74-2.37-5.75-2.02-6.44-0.43C9.57,43.4,15.13,42.86,15.75,45.86z"/>
<path id="Path_2495_" class="st4" d="M19.31,45.79c-0.07,0.53,0.29,1.16,1.29,1.63c0.63,0.3,1.95,0.65,3.68-0.08
	c0.78-0.33,1.53-1.35,1.46-1.91C24.8,43.67,20.18,43.41,19.31,45.79z"/>
<linearGradient id="Oval_2_" gradientUnits="userSpaceOnUse" x1="-427.7127" y1="475.0247" x2="-427.7127" y2="475.5764" gradientTransform="matrix(6.5701 0 0 -6.5701 2832.5122 3168.5269)">
	<stop  offset="0" style="stop-color:#A6694A"/>
	<stop  offset="1" style="stop-color:#4F2A1E"/>
</linearGradient>
<circle id="Oval_315_" class="st8" cx="22.4" cy="45.75" r="1.81"/>
<path id="Path_2494_" class="st6" d="M21.49,45.72c0,1.25,1.81,1.25,1.81,0C23.31,44.56,21.49,44.56,21.49,45.72z"/>
<path id="Path_2493_" class="st7" d="M21.22,45.21c0,0.53,0.76,0.53,0.76,0C21.97,44.73,21.22,44.73,21.22,45.21z"/>
<path id="Path_2492_" class="st2" d="M19.3,45.86c0.74-2.36,5.75-2.03,6.44-0.43C25.48,43.4,19.93,42.86,19.3,45.86z"/>
<path class="st9" d="M27.75,33.21C26,30.84,22.79,29,17.53,29c-5.26,0-8.47,1.84-10.22,4.21C4.82,36.57,30.23,36.57,27.75,33.21z"/>
<linearGradient id="SVGID_2_" gradientUnits="userSpaceOnUse" x1="17.5273" y1="47.7587" x2="17.5273" y2="32.209">
	<stop  offset="0.5" style="stop-color:#6B4435"/>
	<stop  offset="0.6793" style="stop-color:#744B3B"/>
	<stop  offset="0.9708" style="stop-color:#8C5E4B"/>
	<stop  offset="1" style="stop-color:#8F604D"/>
</linearGradient>
<path class="st10" d="M27.75,33.21c-1.75-2.37-4.96,0.2-10.23,0.2c-5.26,0-8.47-2.57-10.22-0.2c-2.48,3.36-1.64,14.54-0.54,14.54
	c0.18,0,0.2-3.92,0.54-6.62c0.27-2.2,0.79-4.34,1.4-4.69c1.84-1.07,5.38,0.46,8.83,0.46s6.99-1.52,8.83-0.46
	c0.6,0.35,1.12,2.49,1.4,4.69c0.33,2.71,0.36,6.62,0.53,6.62C29.39,47.76,30.23,36.57,27.75,33.21z"/>
<path id="Path_2779_" class="st11" d="M58.41,43.1c-1.85,0.22-3.18,6.41-2.02,8.04c0.16,0.23,1.12,0.59,1.82-0.85
	c0.39-0.8,1.52-1.46,1.87-3.11C60.53,45.08,60.25,42.88,58.41,43.1z"/>
<path id="Path_2778_" class="st11" d="M34.54,43.1c1.85,0.22,3.18,6.41,2.02,8.04c-0.16,0.23-1.12,0.59-1.82-0.85
	c-0.39-0.8-1.52-1.46-1.87-3.11C32.42,45.08,32.7,42.88,34.54,43.1z"/>
<path id="Path_2777_" class="st12" d="M58.36,44.29c-0.48,0.15-1.01,0.89-1.29,2.11c1.69-0.36,1.26,2.45-0.2,2.5
	c0.01,0.28,0.03,0.57,0.07,0.88c0.71-1.02,1.42-0.61,2.13-2.14C59.71,46.26,59.55,43.91,58.36,44.29z"/>
<path id="Path_2776_" class="st12" d="M35.88,46.39c-0.29-1.22-0.81-1.95-1.29-2.1c-1.19-0.38-1.35,1.97-0.71,3.35
	c0.71,1.52,1.43,1.11,2.13,2.14c0.04-0.3,0.05-0.6,0.07-0.88C34.63,48.83,34.22,46.05,35.88,46.39z"/>
<path id="Path_2775_" class="st11" d="M46.47,31.21c-8,0-11.86,6.06-11.38,14.48c0.1,1.69,1.15,7.22,2.14,9.2
	c1.02,2.03,4.41,5.16,6.49,5.8c1.31,0.41,4.19,0.41,5.5,0c2.08-0.65,5.48-3.78,6.49-5.8c0.99-1.98,2.04-7.51,2.14-9.2
	C58.34,37.26,54.48,31.21,46.47,31.21z"/>
<path id="Path_2774_" class="st13" d="M55.17,42.49c-1.83-0.97-5.34-1.02-6.64-0.34c-0.28,0.13-0.09,1.05,0.14,0.96
	c1.82-0.72,4.75-0.74,6.46,0.06C55.36,43.27,55.45,42.62,55.17,42.49z"/>
<path id="Path_2773_" class="st13" d="M37.78,42.49c1.83-0.97,5.33-1.02,6.64-0.34c0.28,0.13,0.09,1.05-0.14,0.96
	c-1.82-0.72-4.75-0.74-6.46,0.06C37.59,43.27,37.5,42.62,37.78,42.49z"/>
<path id="Path_2772_" class="st12" d="M48.64,50.9c-0.23-0.16-0.77,0.09-2.16,0.09c-1.39,0-1.93-0.25-2.16-0.09
	c-0.27,0.19,0.16,1.06,2.16,1.06C48.47,51.96,48.91,51.09,48.64,50.9z"/>
<path id="Path_2771_" class="st12" d="M46.47,54.2c-1.8-0.53-4.47,0.25-4.47,0.25c1.02,1.11,1.76,2.54,4.47,2.54
	c3.1,0,3.63-1.63,4.47-2.54C50.94,54.45,48.27,53.66,46.47,54.2z"/>
<path id="Path_2770_" class="st4" d="M42.67,54.64c1.89,1.58,5.7,1.59,7.6,0C48.26,54.72,44.7,54.72,42.67,54.64z"/>
<path id="Path_2769_" class="st4" d="M44.69,45.79c0.07,0.53-0.29,1.16-1.29,1.63c-0.63,0.3-1.95,0.65-3.68-0.08
	c-0.78-0.33-1.53-1.35-1.46-1.91C39.2,43.67,43.81,43.41,44.69,45.79z"/>
<linearGradient id="Oval_3_" gradientUnits="userSpaceOnUse" x1="-422.0969" y1="475.0247" x2="-422.0969" y2="475.5764" gradientTransform="matrix(6.5701 0 0 -6.5701 2814.7817 3168.5269)">
	<stop  offset="0" style="stop-color:#A6694A"/>
	<stop  offset="1" style="stop-color:#4F2A1E"/>
</linearGradient>
<circle id="Oval_346_" class="st14" cx="41.56" cy="45.75" r="1.81"/>
<path id="Path_2768_" class="st6" d="M40.66,45.72c0,1.25,1.81,1.25,1.81,0C42.47,44.56,40.66,44.56,40.66,45.72z"/>
<path id="Path_2767_" class="st7" d="M40.38,45.21c0,0.53,0.76,0.53,0.76,0C41.14,44.73,40.38,44.73,40.38,45.21z"/>
<path id="Path_2766_" class="st12" d="M44.7,45.86c-0.74-2.37-5.75-2.02-6.44-0.43C38.52,43.4,44.07,42.86,44.7,45.86z"/>
<path id="Path_2765_" class="st4" d="M48.25,45.79c-0.07,0.53,0.29,1.16,1.29,1.63c0.63,0.3,1.95,0.65,3.68-0.08
	c0.78-0.33,1.53-1.35,1.46-1.91C53.75,43.67,49.13,43.41,48.25,45.79z"/>
<linearGradient id="Oval_4_" gradientUnits="userSpaceOnUse" x1="-423.3068" y1="475.0247" x2="-423.3068" y2="475.5764" gradientTransform="matrix(6.5701 0 0 -6.5701 2832.5122 3168.5269)">
	<stop  offset="0" style="stop-color:#A6694A"/>
	<stop  offset="1" style="stop-color:#4F2A1E"/>
</linearGradient>
<circle id="Oval_345_" class="st15" cx="51.34" cy="45.75" r="1.81"/>
<path id="Path_2764_" class="st6" d="M50.44,45.72c0,1.25,1.81,1.25,1.81,0C52.25,44.56,50.44,44.56,50.44,45.72z"/>
<path id="Path_2763_" class="st7" d="M50.16,45.21c0,0.53,0.76,0.53,0.76,0C50.92,44.73,50.16,44.73,50.16,45.21z"/>
<path id="Path_2762_" class="st12" d="M48.25,45.86c0.74-2.36,5.75-2.03,6.44-0.43C54.43,43.4,48.87,42.86,48.25,45.86z"/>
<path class="st16" d="M56.7,33.21C54.95,30.84,51.74,29,46.47,29c-5.26,0-8.47,1.84-10.22,4.21C33.77,36.57,59.18,36.57,56.7,33.21z
	"/>
<linearGradient id="SVGID_3_" gradientUnits="userSpaceOnUse" x1="46.4745" y1="47.7587" x2="46.4745" y2="32.209">
	<stop  offset="0.5" style="stop-color:#1A1714"/>
	<stop  offset="0.6722" style="stop-color:#231F1B"/>
	<stop  offset="0.9523" style="stop-color:#3B362F"/>
	<stop  offset="1" style="stop-color:#403A33"/>
</linearGradient>
<path class="st17" d="M56.7,33.21c-1.75-2.37-4.96,0.2-10.23,0.2c-5.26,0-8.47-2.57-10.22-0.2c-2.48,3.36-1.64,14.54-0.54,14.54
	c0.18,0,0.2-3.92,0.54-6.62c0.27-2.2,0.79-4.34,1.4-4.69c1.84-1.07,5.38,0.46,8.83,0.46c3.45,0,6.99-1.52,8.83-0.46
	c0.6,0.35,1.12,2.49,1.4,4.69c0.33,2.71,0.36,6.62,0.53,6.62C58.34,47.76,59.18,36.57,56.7,33.21z"/>
</svg>
