<?xml version="1.0" encoding="utf-8"?>
<!-- Generator: Adobe Illustrator 15.0.0, SVG Export Plug-In . SVG Version: 6.00 Build 0)  -->
<!DOCTYPE svg PUBLIC "-//W3C//DTD SVG 1.1//EN" "http://www.w3.org/Graphics/SVG/1.1/DTD/svg11.dtd" [
	<!ENTITY ns_flows "http://ns.adobe.com/Flows/1.0/">
	<!ENTITY ns_extend "http://ns.adobe.com/Extensibility/1.0/">
	<!ENTITY ns_ai "http://ns.adobe.com/AdobeIllustrator/10.0/">
	<!ENTITY ns_graphs "http://ns.adobe.com/Graphs/1.0/">
]>
<svg version="1.1" id="Layer_1" xmlns:x="&ns_extend;" xmlns:i="&ns_ai;" xmlns:graph="&ns_graphs;"
	 xmlns="http://www.w3.org/2000/svg" xmlns:xlink="http://www.w3.org/1999/xlink" xmlns:a="http://ns.adobe.com/AdobeSVGViewerExtensions/3.0/"
	 x="0px" y="0px" width="64px" height="64px" viewBox="0 0 64 64" enable-background="new 0 0 64 64" xml:space="preserve">
<linearGradient id="SVGID_1_" gradientUnits="userSpaceOnUse" x1="33.6494" y1="57.1182" x2="33.6494" y2="39.7277">
	<stop  offset="0" style="stop-color:#2B998D"/>
	<stop  offset="1" style="stop-color:#3AB0A2"/>
	<a:midPointStop  offset="0" style="stop-color:#2B998D"/>
	<a:midPointStop  offset="0.5" style="stop-color:#2B998D"/>
	<a:midPointStop  offset="1" style="stop-color:#3AB0A2"/>
</linearGradient>
<path fill="url(#SVGID_1_)" d="M18.965,34.63c1.758-0.946,7.775-3.002,7.775-3.002l13.332-0.025c0,0,6.086,2.075,7.832,3.023
	c2.539,1.376,3.139,3.311,3.527,5.04c0.801,3.558,2.199,11.755,2.471,17.209c-5.225,1.099-40.506-1.764-40.506-3.743
	C13.396,51.355,16.418,35.999,18.965,34.63z"/>
<path fill="#2B998D" d="M26.74,31.628c0,5.631,13.332,5.604,13.332-0.025l-1.199-0.415H28.012L26.74,31.628z"/>
<path fill="#D9B18D" d="M27.795,31.345c0,4.406,11.24,4.406,11.24,0c0-1.5,0-4.875,0-4.875h-11.24
	C27.795,26.47,27.795,29.845,27.795,31.345z"/>
<linearGradient id="SVGID_2_" gradientUnits="userSpaceOnUse" x1="-1262.0918" y1="-702.5215" x2="-1253.5078" y2="-702.5215" gradientTransform="matrix(-0.5736 -0.8191 0.8191 -0.5736 -107.4365 -1392.369)">
	<stop  offset="0" style="stop-color:#CCD4DB"/>
	<stop  offset="0.132" style="stop-color:#D8E0E6"/>
	<stop  offset="0.333" style="stop-color:#E5EBF1"/>
	<stop  offset="0.5273" style="stop-color:#E9EFF5"/>
	<stop  offset="0.7427" style="stop-color:#E6EDF3"/>
	<stop  offset="0.8722" style="stop-color:#DEE5EB"/>
	<stop  offset="0.9787" style="stop-color:#D0D8DE"/>
	<stop  offset="1" style="stop-color:#CCD4DB"/>
	<a:midPointStop  offset="0" style="stop-color:#CCD4DB"/>
	<a:midPointStop  offset="0.3" style="stop-color:#CCD4DB"/>
	<a:midPointStop  offset="0.5273" style="stop-color:#E9EFF5"/>
	<a:midPointStop  offset="0.8" style="stop-color:#E9EFF5"/>
	<a:midPointStop  offset="1" style="stop-color:#CCD4DB"/>
</linearGradient>
<path fill="url(#SVGID_2_)" d="M31.424,42.725l-0.248,0.175l1.484,2.121l1.486,2.121l0.248-0.174c0,0,1.09,0.668,2.146,0.357
	c1.189-0.352,2.154-1.943,3.861-3.139c1.912-1.339,4.459-2.012,5.342-3.307c0.623-0.912,0.291-2.045-1.201-4.179
	c-1.494-2.134-2.447-2.831-3.516-2.56c-1.52,0.387-3.023,2.551-4.936,3.889c-1.707,1.197-3.531,1.558-4.27,2.557
	C31.252,41.358,31.424,42.725,31.424,42.725z"/>
<path fill="#FFFFFF" d="M32.225,40.884c-0.367,0.498-0.342,1.476-0.305,1.778l0.039,0.3l-0.088,0.061l1.199,1.711l1.199,1.712
	l0.107-0.075l0.279,0.171c0.006,0.003,0.613,0.366,1.289,0.366c0.16,0,0.313-0.021,0.453-0.063c0.551-0.162,1.113-0.717,1.764-1.36
	c0.551-0.545,1.176-1.162,1.955-1.708c0.803-0.563,1.688-0.999,2.543-1.421c1.141-0.563,2.219-1.095,2.672-1.758L32.225,40.884z"/>
<linearGradient id="SVGID_3_" gradientUnits="userSpaceOnUse" x1="-2663.6123" y1="-463.4331" x2="-2659.3862" y2="-463.4331" gradientTransform="matrix(-0.5736 -0.8192 0.8192 -0.5736 -1117.5321 -2398.8647)">
	<stop  offset="0" style="stop-color:#FFA400"/>
	<stop  offset="0.3804" style="stop-color:#FFB10A"/>
	<stop  offset="1" style="stop-color:#FFCF21"/>
	<a:midPointStop  offset="0" style="stop-color:#FFA400"/>
	<a:midPointStop  offset="0.5697" style="stop-color:#FFA400"/>
	<a:midPointStop  offset="1" style="stop-color:#FFCF21"/>
</linearGradient>
<path fill="url(#SVGID_3_)" d="M29.768,44.825c-0.699,0.49-0.668,1.412-0.805,1.619c-0.143,0.221-0.77,0.648-0.77,0.648
	c-0.268-0.096-1.234,0.543-0.588,1.467c0.648,0.924,1.578,0.234,1.578-0.049c0,0,0.617-0.443,0.873-0.504
	c0.244-0.055,1.098,0.288,1.797-0.201c0.17,0.241,0.672-0.111,0.672-0.111l-1.213-1.73l-1.211-1.731
	C30.102,44.232,29.6,44.584,29.768,44.825z"/>
<linearGradient id="SVGID_4_" gradientUnits="userSpaceOnUse" x1="-2664.2251" y1="-460.3711" x2="-2658.7744" y2="-460.3711" gradientTransform="matrix(-0.5736 -0.8192 0.8192 -0.5736 -1117.5321 -2398.8647)">
	<stop  offset="0" style="stop-color:#0094EB"/>
	<stop  offset="0.158" style="stop-color:#0C9BEF"/>
	<stop  offset="0.7093" style="stop-color:#32AFFB"/>
	<stop  offset="1" style="stop-color:#40B7FF"/>
	<a:midPointStop  offset="0" style="stop-color:#0094EB"/>
	<a:midPointStop  offset="0.4364" style="stop-color:#0094EB"/>
	<a:midPointStop  offset="1" style="stop-color:#40B7FF"/>
</linearGradient>
<path fill="url(#SVGID_4_)" d="M30.99,43.118c0,0-1.029,0.689-0.93,0.832c0,0-0.215,0.149-0.146,0.25
	c0.264,0.375,1.289,1.84,1.289,1.84s1.027,1.465,1.289,1.841c0.07,0.101,0.285-0.05,0.285-0.05c0.1,0.141,1.098-0.59,1.098-0.59
	s0.236,0.09,0.422-0.039l-1.564-2.232l-1.563-2.232C30.986,42.866,30.99,43.118,30.99,43.118z"/>
<rect x="31.306" y="45.378" transform="matrix(0.8196 -0.5729 0.5729 0.8196 -20.329 26.5057)" fill="#0094EB" width="1.239" height="0.313"/>
<rect x="32.261" y="46.741" transform="matrix(0.8191 -0.5737 0.5737 0.8191 -20.9551 27.3468)" fill="#0094EB" width="1.238" height="0.313"/>
<rect x="30.353" y="44.016" transform="matrix(0.8196 -0.5729 0.5729 0.8196 -19.7204 25.7139)" fill="#0094EB" width="1.239" height="0.313"/>
<path fill="#D9B18D" d="M40.639,35.75c-0.779-0.427,0.082-1.251,0.754-0.933c2.031,0.965,3.166,2.892,4.238,3.646
	c1.328,0.934-0.328,5.439,0.447,6.059c0.703,1.416-3.654,2.693-4.211,2.391c-1.074-1.688-1.533-2.818-1.518-4.587
	c-0.496-1.29-2.164-2.502-2.652-2.991c-0.385-0.386-0.184-1.272,0.123-1.32c-0.447-0.482,0.209-1.35,0.656-1.148
	c1.18,0.531,2.85,2.065,2.963,1.982c0.053-0.039-1.064-1.509-2.836-2.393c-0.469-0.232,0.256-1.312,1.066-0.883
	c2.006,1.06,3.188,2.549,3.258,2.537C43.131,38.076,41.604,36.28,40.639,35.75z"/>
<path fill="#3AB0A2" d="M46.691,44.375c1.564,2.782,5.549,8.347,6.811,11.249c1.904,4.381-2.088,6.777-4.598,6.156
	c-3.248-0.8-4.674-3.563-7.688-15.791C41.928,44.683,46.229,43.55,46.691,44.375z"/>
<linearGradient id="SVGID_5_" gradientUnits="userSpaceOnUse" x1="-1942.0518" y1="56.6318" x2="-1943.5918" y2="48.1782" gradientTransform="matrix(-1 0 0 1 -1910.1123 0)">
	<stop  offset="0" style="stop-color:#017BB0"/>
	<stop  offset="0.1896" style="stop-color:#0983B5"/>
	<stop  offset="0.4828" style="stop-color:#1F99C3"/>
	<stop  offset="0.8412" style="stop-color:#42BCDA"/>
	<stop  offset="1" style="stop-color:#54CEE6"/>
	<a:midPointStop  offset="0" style="stop-color:#017BB0"/>
	<a:midPointStop  offset="0.6121" style="stop-color:#017BB0"/>
	<a:midPointStop  offset="1" style="stop-color:#54CEE6"/>
</linearGradient>
<path fill="url(#SVGID_5_)" d="M19.68,52.568c8.148-9.753,27.814-1.89,25.119,4.38C41.109,65.526,19.68,52.568,19.68,52.568z"/>
<linearGradient id="SVGID_6_" gradientUnits="userSpaceOnUse" x1="-1944.0762" y1="57.1748" x2="-1945.7378" y2="48.0536" gradientTransform="matrix(-1 0 0 1 -1910.1123 0)">
	<stop  offset="0" style="stop-color:#017BB0"/>
	<stop  offset="0.2462" style="stop-color:#1E98C3"/>
	<stop  offset="0.5497" style="stop-color:#3CB6D6"/>
	<stop  offset="0.8117" style="stop-color:#4EC8E2"/>
	<stop  offset="1" style="stop-color:#54CEE6"/>
	<a:midPointStop  offset="0" style="stop-color:#017BB0"/>
	<a:midPointStop  offset="0.3636" style="stop-color:#017BB0"/>
	<a:midPointStop  offset="1" style="stop-color:#54CEE6"/>
</linearGradient>
<path fill="url(#SVGID_6_)" d="M27.869,55.318c0,0,2.281-4,7.402-6.824c2-1.104,6.471,1.642,6.248,2.507
	C37.338,67.287,27.869,55.318,27.869,55.318z"/>
<path fill="#D9B18D" d="M44.672,58.927c0.762-0.459,0.195-1.662-0.072-1.569c-2.963,1.032-5.896,0.493-6.068-0.679
	c-0.229-1.56,2.451-3.826,0.59-3.82c-1.523,0.004-4.531,4.501-5.424,4.071c-1.576-0.017-0.943,4.125-0.43,4.496
	C40.854,62.642,43.074,61.979,44.672,58.927z"/>
<path fill="#3AB0A2" d="M33.467,56.624c-7.99-2.119-8.211-4.287-15.787-6.26c14.855-8.176,2.352-16.105,1.076-15.619
	c-4.111,1.57-9.871,18.254-8.568,20.629c1.684,3.078,10.342,6.164,23.375,6.424C34.695,60.717,34.424,56.878,33.467,56.624z"/>
<linearGradient id="SVGID_7_" gradientUnits="userSpaceOnUse" x1="23.3823" y1="52.5479" x2="23.3823" y2="41.7344">
	<stop  offset="0" style="stop-color:#C413C0"/>
	<stop  offset="0.1774" style="stop-color:#CD34C9"/>
	<stop  offset="0.4302" style="stop-color:#D85DD4"/>
	<stop  offset="0.6604" style="stop-color:#E07BDC"/>
	<stop  offset="0.858" style="stop-color:#E48DE0"/>
	<stop  offset="1" style="stop-color:#E693E2"/>
	<a:midPointStop  offset="0" style="stop-color:#C413C0"/>
	<a:midPointStop  offset="0.3636" style="stop-color:#C413C0"/>
	<a:midPointStop  offset="1" style="stop-color:#E693E2"/>
</linearGradient>
<path fill="url(#SVGID_7_)" d="M16.891,50.386c-1.602-11.349,11.855-11.328,13.115-2.4c-0.928,1.318-4.963,2.635-6.426,4.512
	C20.895,51.288,16.891,50.386,16.891,50.386z"/>
<linearGradient id="SVGID_8_" gradientUnits="userSpaceOnUse" x1="-1940.4556" y1="45.4121" x2="-1927.7998" y2="45.4121" gradientTransform="matrix(-1 0 0 1 -1910.1123 0)">
	<stop  offset="0" style="stop-color:#E693E2"/>
	<stop  offset="0.3488" style="stop-color:#F2AAEF"/>
	<stop  offset="0.7272" style="stop-color:#FCBCF8"/>
	<stop  offset="1" style="stop-color:#FFC2FC"/>
	<a:midPointStop  offset="0" style="stop-color:#E693E2"/>
	<a:midPointStop  offset="0.3636" style="stop-color:#E693E2"/>
	<a:midPointStop  offset="1" style="stop-color:#FFC2FC"/>
</linearGradient>
<path fill="url(#SVGID_8_)" d="M17.688,44.596c1.744-4.694,10.293-4.749,12.652,3.379c0.084,0.292-1.406,1.413-2.268,1.454
	C26.973,43.985,20.223,41.173,17.688,44.596z"/>
<path fill="#C99B71" d="M40.887,59.483c0,0,2.152,0.269,3.785-0.557C43.121,59.435,40.887,59.483,40.887,59.483z"/>
<path fill="#C99B71" d="M40.621,60.843c0,0,2.016,0.044,3.379-0.837C42.746,60.544,40.621,60.843,40.621,60.843z"/>
<path fill="#C99B71" d="M40.658,40.218c0,0-1.084-1.68-2.838-2.203C39.297,38.712,40.658,40.218,40.658,40.218z"/>
<path id="Path_1281_" fill="#EBC199" d="M46.146,18.253c-1.746-0.095-3.986,5.4-3.178,7.099c0.113,0.235,0.934,0.729,1.822-0.488
	c0.492-0.672,1.643-1.104,2.234-2.567C47.783,20.422,47.883,18.348,46.146,18.253z"/>
<path id="Path_1280_" fill="#EBC199" d="M24.066,14.361c1.674,0.508,1.9,6.438,0.559,7.757c-0.188,0.183-1.127,0.364-1.547-1.083
	c-0.23-0.799-1.166-1.599-1.221-3.176C21.785,15.837,22.402,13.855,24.066,14.361z"/>
<path id="Path_1279_" fill="#C99B71" d="M45.906,19.339c-0.471,0.063-1.076,0.656-1.539,1.736c1.617-0.061,0.771,2.463-0.592,2.271
	c-0.033,0.264-0.063,0.535-0.08,0.822c0.818-0.83,1.414-0.335,2.32-1.627C46.83,21.38,47.072,19.189,45.906,19.339z"/>
<path id="Path_1278_" fill="#C99B71" d="M24.773,17.618c-0.066-1.173-0.432-1.937-0.854-2.155c-1.041-0.539-1.566,1.602-1.197,2.973
	c0.408,1.523,1.139,1.262,1.625,2.323c0.082-0.276,0.146-0.543,0.205-0.802C23.223,19.658,23.289,17.029,24.773,17.618z"/>
<path id="Path_1277_" fill="#EBC199" d="M37.043,5.322C29.639,4.017,25.086,8.98,24.16,16.835c-0.188,1.579-0.113,6.854,0.48,8.846
	c0.609,2.039,3.238,5.48,5.057,6.417c1.148,0.59,3.811,1.059,5.09,0.897c2.031-0.259,5.68-2.592,6.949-4.3
	c1.242-1.669,3.111-6.599,3.477-8.149C47.031,12.851,44.451,6.628,37.043,5.322z"/>
<path id="Path_1276_" fill="#A17C5B" d="M43.252,17.156c-1.535-1.196-4.768-1.811-6.086-1.397c-0.281,0.073-0.258,0.952-0.027,0.909
	c1.799-0.367,4.518,0.098,5.963,1.109C43.293,17.911,43.488,17.326,43.252,17.156z"/>
<path id="Path_1275_" fill="#A17C5B" d="M27.162,14.318c1.852-0.598,5.098-0.07,6.197,0.77c0.236,0.164-0.084,0.982-0.287,0.863
	c-1.568-0.962-4.275-1.453-5.98-0.996C26.865,15.013,26.885,14.398,27.162,14.318z"/>
<path id="Path_1274_" fill="#C99B71" d="M35.836,23.855c-0.186-0.185-0.721-0.045-2.014-0.273c-1.289-0.227-1.746-0.541-1.982-0.432
	c-0.285,0.134-0.023,1.007,1.824,1.333C35.514,24.809,36.059,24.078,35.836,23.855z"/>
<path id="Path_1273_" fill="#C99B71" d="M33.299,26.548c-1.576-0.782-4.172-0.496-4.172-0.496c0.758,1.188,1.215,2.633,3.719,3.074
	c2.871,0.507,3.623-0.912,4.547-1.617C37.393,27.509,35.053,26.349,33.299,26.548z"/>
<path id="Path_1227_" fill="#FFFFFF" d="M29.715,26.334c1.49,1.769,5.014,2.401,7.029,1.239
	C34.869,27.324,31.574,26.746,29.715,26.334z"/>
<path fill="#E3BE86" d="M46.174,8.843c-1.234-2.476-3.9-4.699-8.771-5.559c-4.869-0.857-8.135,0.319-10.143,2.224
	C24.418,8.203,47.922,12.347,46.174,8.843z"/>
<linearGradient id="SVGID_9_" gradientUnits="userSpaceOnUse" x1="68.4023" y1="-190.5425" x2="68.4023" y2="-205.1221" gradientTransform="matrix(0.9848 0.1736 -0.1736 0.9848 -66.0926 196.3766)">
	<stop  offset="0.5" style="stop-color:#BA9757"/>
	<stop  offset="0.6473" style="stop-color:#C29E60"/>
	<stop  offset="0.8867" style="stop-color:#D7B378"/>
	<stop  offset="1" style="stop-color:#E3BE86"/>
	<a:midPointStop  offset="0.5" style="stop-color:#BA9757"/>
	<a:midPointStop  offset="0.6" style="stop-color:#BA9757"/>
	<a:midPointStop  offset="1" style="stop-color:#E3BE86"/>
</linearGradient>
<path fill="url(#SVGID_9_)" d="M46.174,8.843c-1.234-2.476-4.619-0.625-9.49-1.484C31.814,6.5,29.268,3.604,27.26,5.508
	c-2.842,2.694-3.883,13.161-2.861,13.341c0.162,0.029,0.822-3.581,1.572-6.025c0.609-1.99,1.441-3.878,2.055-4.103
	c1.873-0.685,4.902,1.302,8.09,1.864c3.186,0.562,6.715-0.27,8.24,1.016c0.5,0.42,0.635,2.479,0.529,4.558
	c-0.133,2.554-0.746,6.171-0.586,6.2C45.322,22.539,47.922,12.347,46.174,8.843z"/>
<path fill="#45332C" d="M32.576,18.261c-1.506,0.624-3.607,0.254-4.807-0.848c-0.186-0.168-0.334-0.049-0.287,0.076
	c0.92,2.459,3.629,2.936,5.336,0.94C32.904,18.33,32.805,18.166,32.576,18.261z"/>
<path fill="#45332C" d="M41.623,19.857c-1.504,0.624-3.605,0.254-4.807-0.848c-0.184-0.169-0.33-0.048-0.285,0.075
	c0.92,2.46,3.627,2.937,5.334,0.94C41.953,19.925,41.854,19.761,41.623,19.857z"/>
</svg>
