<?xml version="1.0" encoding="utf-8"?>
<!-- Generator: Adobe Illustrator 24.1.2, SVG Export Plug-In . SVG Version: 6.00 Build 0)  -->
<svg version="1.1" id="Layer_1" xmlns="http://www.w3.org/2000/svg" xmlns:xlink="http://www.w3.org/1999/xlink" x="0px" y="0px"
	 width="64px" height="64px" viewBox="0 0 64 64" style="enable-background:new 0 0 64 64;" xml:space="preserve">
<style type="text/css">
	.st0{fill:#3AB0A2;}
	.st1{fill:#2B998D;}
	.st2{fill:#F5BB51;}
	.st3{fill:#302C3B;}
	.st4{fill:#FFC940;}
	.st5{fill:#F0A429;}
	.st6{fill:#966F42;}
	.st7{fill:#FFFFFF;}
	.st8{fill:url(#Oval_1_);}
	.st9{fill:#1A1626;}
	.st10{fill:#AB968C;}
	.st11{fill:url(#Oval_2_);}
	.st12{fill:#7A6056;}
	.st13{fill:url(#SVGID_1_);}
	.st14{fill:#FF9ED2;}
	.st15{fill:#FF82C5;}
	.st16{fill:#D170E4;}
	.st17{fill:#9C5FD3;}
	.st18{fill:#473834;}
	.st19{fill:url(#SVGID_2_);}
	.st20{fill:url(#Oval_3_);}
	.st21{fill:url(#Oval_4_);}
	.st22{fill:url(#SVGID_3_);}
	.st23{fill:#CFD8DD;}
	.st24{fill:url(#SVGID_4_);}
	.st25{fill:url(#Oval_5_);}
	.st26{fill:url(#Oval_6_);}
	.st27{fill:url(#SVGID_5_);}
</style>
<path class="st0" d="M45.25,31.72c-1.27-1.65-7.43-3.66-7.43-3.66H26.17c0,0-6.16,2.01-7.43,3.66c-2.08,2.69-2.81,8.43-2.81,8.43
	l4.93,4.93V59h22.27V45.08l4.93-4.93C48.06,40.15,47.33,34.41,45.25,31.72z"/>
<path class="st1" d="M26.17,28.08c0,4.89,11.66,4.87,11.66-0.02l-1.17-0.41h-9.27L26.17,28.08z"/>
<path class="st2" d="M27,27.79c0,3.83,9.99,3.83,9.99,0c0-1.3,0-4.23,0-4.23H27C27,23.56,27,26.49,27,27.79z"/>
<polygon class="st3" points="20.87,58 31.78,62 32.22,62 43.13,58 "/>
<path id="Path_1155_" class="st4" d="M42.15,14c-1.57,0.19-2.71,5.45-1.72,6.84c0.14,0.19,0.95,0.5,1.55-0.72
	c0.33-0.68,1.29-1.24,1.59-2.65C43.96,15.68,43.72,13.81,42.15,14z"/>
<path id="Path_1154_" class="st4" d="M21.85,14c1.57,0.19,2.71,5.45,1.72,6.84c-0.14,0.19-0.95,0.5-1.55-0.72
	c-0.33-0.68-1.29-1.24-1.59-2.65C20.04,15.68,20.28,13.81,21.85,14z"/>
<path id="Path_1104_" class="st5" d="M42.11,15.01c-0.41,0.13-0.86,0.75-1.1,1.79c1.43-0.31,1.08,2.08-0.17,2.13
	c0.01,0.24,0.03,0.49,0.06,0.75c0.6-0.87,1.21-0.52,1.81-1.82C43.26,16.68,43.13,14.69,42.11,15.01z"/>
<path id="Path_1103_" class="st5" d="M22.99,16.8c-0.24-1.04-0.69-1.66-1.1-1.79c-1.02-0.32-1.15,1.68-0.6,2.85
	c0.6,1.3,1.21,0.95,1.82,1.82c0.03-0.26,0.04-0.51,0.05-0.75C21.93,18.87,21.57,16.51,22.99,16.8z"/>
<path id="Path_1102_" class="st4" d="M32,3.88c-6.81,0-10.09,5.15-9.68,12.32c0.08,1.44,0.97,6.14,1.82,7.83
	c0.87,1.73,3.75,4.39,5.52,4.94c1.12,0.35,3.57,0.35,4.68,0c1.77-0.55,4.66-3.21,5.52-4.94c0.85-1.69,1.74-6.39,1.82-7.83
	C42.09,9.03,38.81,3.88,32,3.88z"/>
<path id="Path_1101_" class="st6" d="M39.4,13.47c-1.56-0.82-4.54-0.87-5.65-0.29c-0.24,0.11-0.08,0.89,0.12,0.82
	c1.55-0.61,4.04-0.63,5.49,0.05C39.56,14.14,39.64,13.59,39.4,13.47z"/>
<path id="Path_1100_" class="st6" d="M24.6,13.47c1.56-0.82,4.54-0.87,5.65-0.29c0.24,0.11,0.08,0.89-0.12,0.82
	c-1.55-0.61-4.04-0.63-5.49,0.05C24.44,14.14,24.36,13.59,24.6,13.47z"/>
<path id="Path_1094_" class="st5" d="M33.84,20.63c-0.19-0.14-0.65,0.07-1.84,0.07c-1.19,0-1.64-0.21-1.84-0.07
	c-0.23,0.16,0.14,0.91,1.84,0.91C33.7,21.53,34.07,20.79,33.84,20.63z"/>
<path id="Path_1093_" class="st5" d="M32,23.44c-1.53-0.45-3.8,0.21-3.8,0.21c0.86,0.94,1.5,2.16,3.8,2.16
	c2.64,0,3.09-1.39,3.8-2.16C35.8,23.65,33.53,22.98,32,23.44z"/>
<path id="Path_1092_" class="st7" d="M28.77,23.81c1.61,1.35,4.85,1.36,6.46,0C33.52,23.88,30.49,23.88,28.77,23.81z"/>
<path id="Path_1091_" class="st7" d="M30.49,16.28c0.06,0.45-0.25,0.99-1.1,1.39c-0.54,0.25-1.66,0.55-3.13-0.07
	c-0.66-0.28-1.3-1.14-1.24-1.62C25.81,14.48,29.74,14.26,30.49,16.28z"/>
<linearGradient id="Oval_1_" gradientUnits="userSpaceOnUse" x1="-439.7878" y1="479.556" x2="-439.7878" y2="480.0254" gradientTransform="matrix(6.5701 0 0 -6.5701 2917.27 3168.5269)">
	<stop  offset="0" style="stop-color:#A6694A"/>
	<stop  offset="1" style="stop-color:#4F2A1E"/>
</linearGradient>
<path id="Oval_142_" class="st8" d="M27.82,14.71c0.85,0,1.54,0.69,1.54,1.54c0,0.85-0.69,1.54-1.54,1.54
	c-0.85,0-1.54-0.69-1.54-1.54C26.28,15.4,26.97,14.71,27.82,14.71z"/>
<path id="Path_1090_" class="st9" d="M27.05,16.23c0,1.07,1.54,1.07,1.54,0C28.59,15.24,27.05,15.24,27.05,16.23z"/>
<path id="Path_1089_" class="st10" d="M26.82,15.79c0,0.45,0.65,0.45,0.65,0C27.46,15.38,26.82,15.38,26.82,15.79z"/>
<path id="Path_1088_" class="st5" d="M30.49,16.34c-0.63-2.01-4.9-1.72-5.48-0.36C25.23,14.25,29.96,13.79,30.49,16.34z"/>
<path id="Path_1087_" class="st7" d="M33.51,16.28c-0.06,0.45,0.25,0.99,1.1,1.39c0.54,0.25,1.66,0.55,3.13-0.07
	c0.66-0.28,1.3-1.14,1.24-1.62C38.19,14.48,34.26,14.26,33.51,16.28z"/>
<linearGradient id="Oval_2_" gradientUnits="userSpaceOnUse" x1="-441.2197" y1="479.556" x2="-441.2197" y2="480.0254" gradientTransform="matrix(6.5701 0 0 -6.5701 2935.0005 3168.5269)">
	<stop  offset="0" style="stop-color:#A6694A"/>
	<stop  offset="1" style="stop-color:#4F2A1E"/>
</linearGradient>
<path id="Oval_141_" class="st11" d="M36.14,14.71c0.85,0,1.54,0.69,1.54,1.54c0,0.85-0.69,1.54-1.54,1.54
	c-0.85,0-1.54-0.69-1.54-1.54C34.6,15.4,35.29,14.71,36.14,14.71z"/>
<path id="Path_1086_" class="st9" d="M35.37,16.23c0,1.07,1.54,1.07,1.54,0C36.91,15.24,35.37,15.24,35.37,16.23z"/>
<path id="Path_1085_" class="st10" d="M35.14,15.79c0,0.45,0.65,0.45,0.65,0C35.79,15.38,35.14,15.38,35.14,15.79z"/>
<path id="Path_1084_" class="st5" d="M33.51,16.34c0.63-2.01,4.89-1.72,5.47-0.36C38.77,14.25,34.04,13.79,33.51,16.34z"/>
<path class="st12" d="M40.7,5.59C39.21,3.57,36.48,2,32,2c-4.48,0-7.21,1.57-8.7,3.59C21.19,8.44,42.81,8.44,40.7,5.59z"/>
<linearGradient id="SVGID_1_" gradientUnits="userSpaceOnUse" x1="-70.4915" y1="17.958" x2="-70.4915" y2="4.7304" gradientTransform="matrix(1 0 0 1 102.4922 0)">
	<stop  offset="0.5" style="stop-color:#473834"/>
	<stop  offset="0.6387" style="stop-color:#503F3A"/>
	<stop  offset="0.8641" style="stop-color:#68524A"/>
	<stop  offset="1" style="stop-color:#7A6056"/>
</linearGradient>
<path class="st13" d="M40.7,5.59c-1.49-2.02-4.22,0.17-8.7,0.17c-4.48,0-7.21-2.19-8.7-0.17c-2.11,2.86-1.39,12.37-0.45,12.37
	c0.15,0,0.17-3.33,0.45-5.63c0.23-1.88,0.68-3.69,1.19-3.99c1.56-0.91,4.58,0.39,7.51,0.39c2.93,0,5.95-1.3,7.51-0.39
	c0.51,0.3,0.96,2.12,1.19,3.99c0.28,2.3,0.3,5.63,0.45,5.63C42.09,17.96,42.81,8.44,40.7,5.59z"/>
<path class="st14" d="M24.94,52.72l-7.79,0.01c0,0-4.09,1.33-4.94,2.42c-0.9,1.15-1.43,3.82-1.69,5.46
	c4.33,1.02,12.78,1.38,21.26,1.39c0,0-0.49-5.07-1.88-6.85C29.05,54.06,24.94,52.72,24.94,52.72z"/>
<path class="st15" d="M17.15,52.73c0,3.24,7.79,3.23,7.79-0.01l-0.78-0.27h-6.2L17.15,52.73z"/>
<path class="st2" d="M17.71,52.54c0,2.54,6.68,2.54,6.68,0c0-0.86,0-2.81,0-2.81h-6.68C17.71,49.73,17.71,51.67,17.71,52.54z"/>
<path class="st15" d="M14.17,61.23l-0.28-0.04C13.89,58.88,14.17,58.65,14.17,61.23z"/>
<path class="st15" d="M28.21,61.96h-0.3C27.91,58.28,28.21,58.28,28.21,61.96z"/>
<path class="st16" d="M46.85,52.72l-7.79,0.01c0,0-4.09,1.33-4.94,2.42c-1.39,1.78-1.9,6.85-1.9,6.85
	c8.52-0.01,16.99-0.35,21.26-1.38c-0.26-1.64-0.78-4.33-1.67-5.47C50.97,54.06,46.85,52.72,46.85,52.72z"/>
<path class="st17" d="M39.06,52.73c0,3.24,7.79,3.23,7.79-0.01l-0.78-0.27h-6.2L39.06,52.73z"/>
<path class="st2" d="M39.62,52.54c0,2.54,6.68,2.54,6.68,0c0-0.86,0-2.81,0-2.81h-6.68C39.62,49.73,39.62,51.67,39.62,52.54z"/>
<path class="st17" d="M36.09,61.96l-0.3,0.01C35.79,58.28,36.09,58.28,36.09,61.96z"/>
<path class="st17" d="M50.12,61.18l-0.28,0.03C49.83,58.94,50.12,58.77,50.12,61.18z"/>
<path class="st18" d="M28.69,42.63c6.46,4.27,0.78,8.15,2.62,9.99C27.74,55.1,19,50.82,28.69,42.63z"/>
<path class="st18" d="M13.39,42.63c-6.46,4.27-0.78,8.15-2.62,9.99C14.35,55.1,23.09,50.82,13.39,42.63z"/>
<path class="st18" d="M50.61,42.63c6.46,4.27,0.78,8.15,2.62,9.99C49.65,55.1,40.91,50.82,50.61,42.63z"/>
<path class="st18" d="M35.31,42.63c-6.46,4.27-0.78,8.15-2.62,9.99C36.26,55.1,45,50.82,35.31,42.63z"/>
<path class="st2" d="M15.99,53.23c0,0-1.08,2,0.14,1.78c0.61-1.4,1.32-1.01,1.59-2.47c0.27-1.81-0.87-2.92-0.87-2.92
	c-0.99,0.74-3.14,2.38-3.41,2.83c-0.42,0.72-2.01,2.83-1.32,3.5C12.76,57.29,13.23,53.93,15.99,53.23z"/>
<path class="st5" d="M13.4,53.32c0,0-1.08,1.65-1.28,2.63C12.08,54.83,13.4,53.32,13.4,53.32z"/>
<path class="st2" d="M48.01,53.23c0,0,1.08,2-0.14,1.78c-0.61-1.4-1.32-1.01-1.59-2.47c-0.27-1.81,0.87-2.92,0.87-2.92
	c0.99,0.74,3.14,2.38,3.41,2.83c0.42,0.72,2.01,2.83,1.32,3.5C51.24,57.29,50.77,53.93,48.01,53.23z"/>
<path class="st5" d="M50.6,53.32c0,0,1.08,1.65,1.28,2.63C51.92,54.83,50.6,53.32,50.6,53.32z"/>
<linearGradient id="SVGID_2_" gradientUnits="userSpaceOnUse" x1="42.9558" y1="45.2945" x2="42.9558" y2="31.6543">
	<stop  offset="0" style="stop-color:#473834"/>
	<stop  offset="0.2717" style="stop-color:#594640"/>
	<stop  offset="0.7226" style="stop-color:#715950"/>
	<stop  offset="1" style="stop-color:#7A6056"/>
</linearGradient>
<path class="st19" d="M42.96,31.65c-6.79,0-11.08,5.97-8.44,13.64h16.88C54.04,37.63,49.74,31.66,42.96,31.65z"/>
<path id="Path_1435_" class="st4" d="M34.4,42.11c1.07,0.13,1.83,3.73,1.17,4.68c-0.1,0.13-0.64,0.35-1.05-0.49
	c-0.23-0.46-0.88-0.85-1.08-1.81C33.18,43.26,33.34,41.98,34.4,42.11z"/>
<path id="Path_1434_" class="st5" d="M34.43,42.8c0.28,0.09,0.58,0.52,0.75,1.23c-0.97-0.21-0.73,1.42,0.12,1.45
	c-0.01,0.16-0.02,0.33-0.04,0.51c-0.41-0.6-0.82-0.36-1.23-1.24C33.65,43.94,33.74,42.58,34.43,42.8z"/>
<path id="Path_1433_" class="st4" d="M51.51,42.11c-1.06,0.13-1.83,3.73-1.16,4.68c0.09,0.13,0.64,0.35,1.05-0.49
	c0.22-0.46,0.88-0.85,1.08-1.81C52.74,43.26,52.57,41.98,51.51,42.11z"/>
<path id="Path_1432_" class="st5" d="M50.74,44.02c0.16-0.71,0.47-1.14,0.74-1.22c0.69-0.22,0.78,1.15,0.41,1.95
	c-0.41,0.89-0.82,0.65-1.23,1.24c-0.02-0.18-0.03-0.35-0.04-0.51C51.46,45.44,51.7,43.82,50.74,44.02z"/>
<path class="st4" d="M42.96,32.86c-5.82,0-8.63,4.4-8.28,10.53c0.07,1.23,0.83,4.05,1.56,5.49c1.27,2.54,4.6,4.44,6.72,4.44
	c2.12,0,5.45-1.9,6.72-4.44c0.72-1.44,1.49-4.26,1.56-5.49C51.58,37.26,48.78,32.86,42.96,32.86z"/>
<path id="Path_1431_" class="st5" d="M44.31,46.83c-0.14-0.1-0.48,0.05-1.36,0.05c-0.88,0-1.21-0.15-1.36-0.05
	c-0.17,0.12,0.1,0.67,1.36,0.67C44.21,47.5,44.49,46.95,44.31,46.83z"/>
<path id="Path_1430_" class="st5" d="M42.96,48.78c-1.31-0.39-3.26,0.18-3.26,0.18c0.74,0.81,1.28,1.85,3.26,1.85
	c2.26,0,2.65-1.19,3.26-1.85C46.21,48.96,44.27,48.39,42.96,48.78z"/>
<path id="Path_1429_" class="st7" d="M40.19,49.1c1.38,1.15,4.15,1.16,5.54,0C44.26,49.16,41.66,49.16,40.19,49.1z"/>
<path id="Path_1428_" class="st7" d="M41.7,43.83c0.05,0.37-0.21,0.82-0.91,1.15c-0.45,0.21-1.37,0.46-2.59-0.05
	c-0.54-0.23-1.08-0.95-1.03-1.34C37.83,42.34,41.08,42.15,41.7,43.83z"/>
<linearGradient id="Oval_3_" gradientUnits="userSpaceOnUse" x1="-422.4115" y1="475.4026" x2="-422.4115" y2="475.7915" gradientTransform="matrix(6.5701 0 0 -6.5701 2814.7817 3168.5269)">
	<stop  offset="0" style="stop-color:#A6694A"/>
	<stop  offset="1" style="stop-color:#4F2A1E"/>
</linearGradient>
<path id="Oval_178_" class="st20" d="M39.5,42.53c0.71,0,1.28,0.57,1.28,1.28c0,0.71-0.57,1.28-1.28,1.28
	c-0.71,0-1.28-0.57-1.28-1.28C38.22,43.1,38.79,42.53,39.5,42.53z"/>
<path id="Path_1427_" class="st9" d="M38.86,43.78c0,0.88,1.28,0.88,1.28,0C40.13,42.96,38.86,42.96,38.86,43.78z"/>
<path id="Path_1426_" class="st10" d="M38.66,43.43c0,0.37,0.54,0.37,0.54,0C39.2,43.08,38.66,43.08,38.66,43.43z"/>
<path id="Path_1425_" class="st5" d="M41.71,43.88c-0.52-1.67-4.05-1.42-4.54-0.3C37.35,42.15,41.27,41.77,41.71,43.88z"/>
<path id="Path_1424_" class="st7" d="M44.21,43.83c-0.05,0.37,0.2,0.82,0.91,1.15c0.45,0.21,1.37,0.46,2.59-0.05
	c0.54-0.23,1.08-0.95,1.03-1.34C48.08,42.34,44.83,42.15,44.21,43.83z"/>
<linearGradient id="Oval_4_" gradientUnits="userSpaceOnUse" x1="-424.061" y1="475.4026" x2="-424.061" y2="475.7915" gradientTransform="matrix(6.5701 0 0 -6.5701 2832.5122 3168.5269)">
	<stop  offset="0" style="stop-color:#A6694A"/>
	<stop  offset="1" style="stop-color:#4F2A1E"/>
</linearGradient>
<path id="Oval_177_" class="st21" d="M46.39,42.53c0.71,0,1.28,0.57,1.28,1.28c0,0.71-0.57,1.28-1.28,1.28
	c-0.71,0-1.28-0.57-1.28-1.28C45.11,43.1,45.68,42.53,46.39,42.53z"/>
<path id="Path_1423_" class="st9" d="M45.75,43.78c0,0.88,1.28,0.88,1.28,0C47.03,42.96,45.75,42.96,45.75,43.78z"/>
<path id="Path_1422_" class="st10" d="M45.56,43.43c0,0.37,0.54,0.37,0.54,0C46.09,43.08,45.56,43.08,45.56,43.43z"/>
<path id="Path_1421_" class="st5" d="M44.21,43.88c0.52-1.67,4.05-1.43,4.54-0.3C48.56,42.15,44.65,41.77,44.21,43.88z"/>
<path id="Path_1420_" class="st5" d="M48.82,41.84c-1.1-0.69-3.31-0.89-4.18-0.54c-0.19,0.07-0.13,0.65,0.03,0.61
	c1.2-0.36,3.05-0.22,4.08,0.36C48.89,42.34,48.99,41.94,48.82,41.84z"/>
<path id="Path_1419_" class="st5" d="M37.09,41.84c1.1-0.69,3.31-0.89,4.18-0.54c0.19,0.07,0.13,0.65-0.03,0.61
	c-1.2-0.36-3.05-0.22-4.08,0.36C37.02,42.34,36.92,41.94,37.09,41.84z"/>
<linearGradient id="SVGID_3_" gradientUnits="userSpaceOnUse" x1="42.9563" y1="44.833" x2="42.9563" y2="31.855">
	<stop  offset="0" style="stop-color:#473834"/>
	<stop  offset="0.2717" style="stop-color:#594640"/>
	<stop  offset="0.7226" style="stop-color:#715950"/>
	<stop  offset="1" style="stop-color:#7A6056"/>
</linearGradient>
<path class="st22" d="M42.95,31.85c-3.41,0-6.47,1.89-7.13,4.45c-1.72,1.68-1.98,5.51-0.9,8.53c0.14-2.9,1.75-4.35,1.65-7.54
	c9.59,0,13.89,3.13,14.41,7.54C53.16,38.75,49.73,31.85,42.95,31.85z"/>
<path class="st18" d="M50.98,44.83c-1.79-7.71-15.17-7.5-15.17-7.5C35.89,37.33,50.15,35.03,50.98,44.83z"/>
<path class="st18" d="M34.93,44.83c-0.12-3.42,1.69-4.97,1.49-8.5C37.17,39.69,35.56,41.36,34.93,44.83z"/>
<path class="st23" d="M51.13,42.22c0.77-11.57-17.12-11.57-16.35,0C35.45,32.5,50.46,32.5,51.13,42.22z"/>
<path class="st7" d="M51.13,41.84c0.77-11.57-17.12-11.57-16.35,0C35.45,32.12,50.46,32.12,51.13,41.84z"/>
<linearGradient id="SVGID_4_" gradientUnits="userSpaceOnUse" x1="21.0436" y1="45.2945" x2="21.0436" y2="31.6543">
	<stop  offset="0" style="stop-color:#473834"/>
	<stop  offset="0.2717" style="stop-color:#594640"/>
	<stop  offset="0.7226" style="stop-color:#715950"/>
	<stop  offset="1" style="stop-color:#7A6056"/>
</linearGradient>
<path class="st24" d="M21.04,31.65c-6.79,0-11.08,5.97-8.44,13.64h16.88C32.12,37.63,27.83,31.66,21.04,31.65z"/>
<path id="Path_1418_" class="st4" d="M12.49,42.11c1.07,0.13,1.83,3.73,1.17,4.68c-0.1,0.13-0.64,0.35-1.05-0.49
	c-0.23-0.46-0.88-0.85-1.08-1.81C11.27,43.26,11.43,41.98,12.49,42.11z"/>
<path id="Path_1417_" class="st5" d="M12.52,42.8c0.28,0.09,0.58,0.52,0.75,1.23c-0.97-0.21-0.73,1.42,0.12,1.45
	c-0.01,0.16-0.02,0.33-0.04,0.51c-0.41-0.6-0.82-0.36-1.23-1.24C11.74,43.94,11.83,42.58,12.52,42.8z"/>
<path id="Path_1416_" class="st4" d="M29.6,42.11c-1.06,0.13-1.83,3.73-1.16,4.68c0.09,0.13,0.64,0.35,1.05-0.49
	c0.22-0.46,0.88-0.85,1.08-1.81C30.82,43.26,30.66,41.98,29.6,42.11z"/>
<path id="Path_1415_" class="st5" d="M28.83,44.02c0.16-0.71,0.47-1.14,0.74-1.22c0.69-0.22,0.78,1.15,0.41,1.95
	c-0.41,0.89-0.82,0.65-1.23,1.24c-0.02-0.18-0.03-0.35-0.04-0.51C29.55,45.44,29.79,43.82,28.83,44.02z"/>
<path class="st4" d="M21.04,32.86c-5.82,0-8.63,4.4-8.28,10.53c0.07,1.23,0.83,4.05,1.56,5.49c1.27,2.54,4.6,4.44,6.72,4.44
	c2.12,0,5.45-1.9,6.72-4.44c0.72-1.44,1.49-4.26,1.56-5.49C29.67,37.26,26.87,32.86,21.04,32.86z"/>
<path id="Path_1414_" class="st5" d="M22.4,46.83c-0.14-0.1-0.48,0.05-1.36,0.05c-0.88,0-1.21-0.15-1.36-0.05
	c-0.17,0.12,0.1,0.67,1.36,0.67C22.3,47.5,22.57,46.95,22.4,46.83z"/>
<path id="Path_1413_" class="st5" d="M21.04,48.78c-1.31-0.39-3.26,0.18-3.26,0.18c0.74,0.81,1.28,1.85,3.26,1.85
	c2.26,0,2.65-1.19,3.26-1.85C24.3,48.96,22.36,48.39,21.04,48.78z"/>
<path id="Path_1412_" class="st7" d="M18.28,49.1c1.38,1.15,4.15,1.16,5.54,0C22.35,49.16,19.75,49.16,18.28,49.1z"/>
<path id="Path_1411_" class="st7" d="M19.79,43.83c0.05,0.37-0.2,0.82-0.91,1.15c-0.45,0.21-1.37,0.46-2.59-0.05
	c-0.54-0.23-1.08-0.95-1.03-1.34C15.92,42.34,19.17,42.15,19.79,43.83z"/>
<linearGradient id="Oval_5_" gradientUnits="userSpaceOnUse" x1="-425.7467" y1="475.4026" x2="-425.7467" y2="475.7915" gradientTransform="matrix(6.5701 0 0 -6.5701 2814.7817 3168.5269)">
	<stop  offset="0" style="stop-color:#A6694A"/>
	<stop  offset="1" style="stop-color:#4F2A1E"/>
</linearGradient>
<path id="Oval_176_" class="st25" d="M17.58,42.53c0.7,0,1.28,0.57,1.28,1.28c0,0.71-0.57,1.28-1.28,1.28
	c-0.71,0-1.28-0.57-1.28-1.28C16.31,43.1,16.88,42.53,17.58,42.53z"/>
<path id="Path_1410_" class="st9" d="M16.95,43.78c0,0.88,1.28,0.88,1.28,0C18.22,42.96,16.95,42.96,16.95,43.78z"/>
<path id="Path_1409_" class="st10" d="M16.75,43.43c0,0.37,0.54,0.37,0.54,0C17.29,43.08,16.75,43.08,16.75,43.43z"/>
<path id="Path_1408_" class="st5" d="M19.79,43.88c-0.52-1.67-4.05-1.42-4.54-0.3C15.44,42.15,19.35,41.77,19.79,43.88z"/>
<path id="Path_1407_" class="st7" d="M22.3,43.83c-0.05,0.37,0.2,0.82,0.91,1.15c0.45,0.21,1.37,0.46,2.59-0.05
	c0.54-0.23,1.08-0.95,1.03-1.34C26.17,42.34,22.92,42.15,22.3,43.83z"/>
<linearGradient id="Oval_6_" gradientUnits="userSpaceOnUse" x1="-427.3961" y1="475.4026" x2="-427.3961" y2="475.7915" gradientTransform="matrix(6.5701 0 0 -6.5701 2832.5122 3168.5269)">
	<stop  offset="0" style="stop-color:#A6694A"/>
	<stop  offset="1" style="stop-color:#4F2A1E"/>
</linearGradient>
<path id="Oval_175_" class="st26" d="M24.48,42.53c0.71,0,1.28,0.57,1.28,1.28c0,0.71-0.57,1.28-1.28,1.28
	c-0.7,0-1.28-0.57-1.28-1.28C23.2,43.1,23.77,42.53,24.48,42.53z"/>
<path id="Path_1406_" class="st9" d="M23.84,43.78c0,0.88,1.28,0.88,1.28,0C25.12,42.96,23.84,42.96,23.84,43.78z"/>
<path id="Path_1405_" class="st10" d="M23.64,43.43c0,0.37,0.54,0.37,0.54,0C24.18,43.08,23.64,43.08,23.64,43.43z"/>
<path id="Path_1404_" class="st5" d="M22.29,43.88c0.52-1.67,4.05-1.43,4.54-0.3C26.65,42.15,22.74,41.77,22.29,43.88z"/>
<path id="Path_1403_" class="st5" d="M26.91,41.84c-1.1-0.69-3.31-0.89-4.18-0.54c-0.19,0.07-0.13,0.65,0.03,0.61
	c1.2-0.36,3.05-0.22,4.08,0.36C26.98,42.34,27.08,41.94,26.91,41.84z"/>
<path id="Path_1402_" class="st5" d="M15.18,41.84c1.1-0.69,3.31-0.89,4.18-0.54c0.19,0.07,0.13,0.65-0.03,0.61
	c-1.2-0.36-3.05-0.22-4.08,0.36C15.11,42.34,15.01,41.94,15.18,41.84z"/>
<linearGradient id="SVGID_5_" gradientUnits="userSpaceOnUse" x1="21.0442" y1="44.833" x2="21.0442" y2="31.855">
	<stop  offset="0" style="stop-color:#473834"/>
	<stop  offset="0.2717" style="stop-color:#594640"/>
	<stop  offset="0.7226" style="stop-color:#715950"/>
	<stop  offset="1" style="stop-color:#7A6056"/>
</linearGradient>
<path class="st27" d="M21.04,31.85c-3.41,0-6.47,1.89-7.13,4.45c-1.72,1.68-1.98,5.51-0.9,8.53c0.14-2.9,1.75-4.35,1.65-7.54
	c9.59,0,13.89,3.13,14.41,7.54C31.25,38.75,27.82,31.85,21.04,31.85z"/>
<path class="st18" d="M29.07,44.83c-1.79-7.71-15.17-7.5-15.17-7.5C13.97,37.33,28.24,35.03,29.07,44.83z"/>
<path class="st18" d="M13.02,44.83c-0.12-3.42,1.69-4.97,1.49-8.5C15.26,39.69,13.64,41.36,13.02,44.83z"/>
<path class="st23" d="M29.22,42.22c0.77-11.57-17.12-11.57-16.35,0C13.53,32.5,28.55,32.5,29.22,42.22z"/>
<path class="st7" d="M29.22,41.84c0.77-11.57-17.12-11.57-16.35,0C13.53,32.12,28.55,32.12,29.22,41.84z"/>
</svg>
