<?xml version="1.0" encoding="utf-8"?>
<!-- Generator: Adobe Illustrator 15.0.0, SVG Export Plug-In . SVG Version: 6.00 Build 0)  -->
<!DOCTYPE svg PUBLIC "-//W3C//DTD SVG 1.1//EN" "http://www.w3.org/Graphics/SVG/1.1/DTD/svg11.dtd" [
	<!ENTITY ns_flows "http://ns.adobe.com/Flows/1.0/">
	<!ENTITY ns_extend "http://ns.adobe.com/Extensibility/1.0/">
	<!ENTITY ns_ai "http://ns.adobe.com/AdobeIllustrator/10.0/">
	<!ENTITY ns_graphs "http://ns.adobe.com/Graphs/1.0/">
]>
<svg version="1.1" id="Layer_1" xmlns:x="&ns_extend;" xmlns:i="&ns_ai;" xmlns:graph="&ns_graphs;"
	 xmlns="http://www.w3.org/2000/svg" xmlns:xlink="http://www.w3.org/1999/xlink" xmlns:a="http://ns.adobe.com/AdobeSVGViewerExtensions/3.0/"
	 x="0px" y="0px" width="64px" height="64px" viewBox="0 0 64 64" enable-background="new 0 0 64 64" xml:space="preserve">
<path fill="#302C3B" d="M30.197,58l-8.905,3.741c0,0-12.36-0.521-12.36-2.292c0-1,0-1.449,0-1.449H30.197z"/>
<path fill="#FF7A00" d="M5.812,31.724c1.271-1.646,7.427-3.657,7.427-3.657l11.658,0.019c0,0,6.119,2.006,7.387,3.642
	c2.084,2.688,2.849,5.357,2.849,5.357l-4.934,3V58H8.933V45.084l-4.931-4.93C4.002,40.154,3.731,34.414,5.812,31.724z"/>
<path fill="#ED6A00" d="M24.896,28.085c0,4.888-11.658,4.87-11.658-0.019l1.169-0.413h9.27L24.896,28.085z"/>
<path fill="#F5BB51" d="M24.063,27.79c0,3.826-9.993,3.826-9.993,0c0-1.302,0-4.233,0-4.233h9.993
	C24.063,23.557,24.063,26.488,24.063,27.79z"/>
<path fill="#302C3B" d="M33.803,58l8.905,3.741c0,0,12.36-0.521,12.36-2.292c0-1,0-1.449,0-1.449H33.803z"/>
<path fill="#FFA600" d="M58.188,31.724c-1.271-1.646-7.427-3.657-7.427-3.657l-11.658,0.019c0,0-6.119,2.006-7.387,3.642
	c-2.084,2.688-2.849,5.357-2.849,5.357l4.934,3V58h21.266V45.084l4.931-4.93C59.998,40.154,60.269,34.414,58.188,31.724z"/>
<path fill="#F79400" d="M39.104,28.085c0,4.888,11.658,4.87,11.658-0.019l-1.169-0.413h-9.27L39.104,28.085z"/>
<path fill="#F5BB51" d="M39.938,27.79c0,3.826,9.993,3.826,9.993,0c0-1.302,0-4.233,0-4.233h-9.993
	C39.938,23.557,39.938,26.488,39.938,27.79z"/>
<path fill="#473834" d="M28.461,22.285c0.669,0.442,1.439,0.772,2.34,0.94c-1.598-3.643,0.812-11.283-4.126-16.897
	c-6.961,0.208-7.924,22.721,1.779,19.727c-0.618-0.268-1.005-0.813-1.232-1.503c0.748,0.214,1.622,0.222,2.641-0.092
	C29.052,24.109,28.639,23.283,28.461,22.285z"/>
<path fill="#473834" d="M10.989,6.328c-4.938,5.614-2.06,13.255-3.657,16.897c0.899-0.168,1.672-0.498,2.34-0.94
	c-0.178,0.998-0.592,1.824-1.4,2.175c1.018,0.313,1.891,0.306,2.639,0.092c-0.228,0.689-0.613,1.235-1.231,1.503
	C19.381,29.049,17.95,6.536,10.989,6.328z"/>
<path id="Path_673_" fill="#FFC940" d="M29.222,13.998c-1.572,0.191-2.708,5.455-1.72,6.845c0.139,0.194,0.949,0.503,1.55-0.723
	c0.333-0.679,1.293-1.245,1.59-2.646C31.022,15.68,30.785,13.809,29.222,13.998z"/>
<path id="Path_672_" fill="#FFC940" d="M8.913,13.998c1.572,0.191,2.707,5.455,1.718,6.845c-0.139,0.194-0.949,0.503-1.55-0.723
	c-0.332-0.679-1.292-1.245-1.589-2.646C7.11,15.68,7.349,13.809,8.913,13.998z"/>
<path id="Path_671_" fill="#F0A429" d="M29.178,15.008c-0.409,0.129-0.856,0.754-1.1,1.792c1.434-0.308,1.075,2.08-0.171,2.125
	c0.012,0.24,0.028,0.488,0.058,0.748c0.6-0.873,1.21-0.522,1.813-1.819C30.323,16.684,30.194,14.688,29.178,15.008z"/>
<path id="Path_670_" fill="#F0A429" d="M10.055,16.797c-0.242-1.035-0.689-1.661-1.099-1.789c-1.016-0.319-1.146,1.676-0.602,2.846
	c0.604,1.297,1.214,0.946,1.815,1.819c0.029-0.261,0.046-0.509,0.056-0.749C8.992,18.865,8.64,16.507,10.055,16.797z"/>
<path fill="#FFC940" d="M19.066,3.878c-6.812,0-10.092,5.547-9.683,12.679c0.085,1.435,0.483,3.503,0.976,5.274
	c1.021,3.684,6.412,7.393,8.707,7.393s7.686-3.709,8.707-7.393c0.492-1.771,0.892-3.84,0.976-5.274
	C29.158,9.425,25.879,3.878,19.066,3.878z"/>
<path id="Path_669_" fill="#966F42" d="M26.467,13.473c-1.558-0.824-4.539-0.865-5.649-0.29c-0.238,0.11-0.081,0.893,0.119,0.818
	c1.548-0.612,4.044-0.626,5.492,0.053C26.622,14.142,26.703,13.588,26.467,13.473z"/>
<path id="Path_668_" fill="#966F42" d="M11.667,13.473c1.558-0.824,4.536-0.865,5.648-0.29c0.237,0.11,0.081,0.893-0.119,0.818
	c-1.55-0.612-4.043-0.626-5.493,0.053C11.511,14.142,11.431,13.588,11.667,13.473z"/>
<path id="Path_667_" fill="#F0A429" d="M20.904,20.629c-0.194-0.136-0.65,0.073-1.838,0.073c-1.187,0-1.643-0.209-1.838-0.073
	c-0.232,0.164,0.139,0.904,1.838,0.904C20.768,21.533,21.139,20.793,20.904,20.629z"/>
<path id="Path_666_" fill="#F0A429" d="M19.066,23.436c-1.531-0.45-3.802,0.214-3.802,0.214c0.864,0.942,1.498,2.163,3.802,2.163
	c2.64,0,3.089-1.387,3.803-2.163C22.869,23.649,20.598,22.982,19.066,23.436z"/>
<path id="Path_665_" fill="#FFFFFF" d="M15.835,23.809c1.606,1.348,4.849,1.357,6.464,0C20.588,23.882,17.559,23.883,15.835,23.809z
	"/>
<path id="Path_664_" fill="#FFFFFF" d="M17.551,16.284c0.059,0.45-0.248,0.985-1.095,1.386c-0.538,0.255-1.658,0.555-3.129-0.066
	c-0.659-0.277-1.302-1.144-1.244-1.622C12.881,14.478,16.805,14.258,17.551,16.284z"/>
<linearGradient id="Oval_1_" gradientUnits="userSpaceOnUse" x1="-444.3594" y1="479.5557" x2="-444.3594" y2="480.0254" gradientTransform="matrix(6.5701 0 0 -6.5701 2934.3743 3168.5281)">
	<stop  offset="0" style="stop-color:#A6694A"/>
	<stop  offset="1" style="stop-color:#4F2A1E"/>
	<a:midPointStop  offset="0" style="stop-color:#A6694A"/>
	<a:midPointStop  offset="0.5" style="stop-color:#A6694A"/>
	<a:midPointStop  offset="1" style="stop-color:#4F2A1E"/>
</linearGradient>
<circle id="Oval_90_" fill="url(#Oval_1_)" cx="14.888" cy="16.254" r="1.542"/>
<path id="Path_663_" fill="#1A1626" d="M14.118,16.226c0,1.066,1.542,1.066,1.542,0C15.66,15.235,14.118,15.235,14.118,16.226z"/>
<path id="Path_662_" fill="#AB968C" d="M13.883,15.793c0,0.448,0.646,0.448,0.646,0C14.529,15.379,13.883,15.379,13.883,15.793z"/>
<path id="Path_661_" fill="#F0A429" d="M17.559,16.344c-0.626-2.013-4.895-1.716-5.476-0.362
	C12.298,14.249,17.025,13.791,17.559,16.344z"/>
<path id="Path_660_" fill="#FFFFFF" d="M20.582,16.284c-0.058,0.45,0.248,0.985,1.096,1.386c0.538,0.255,1.657,0.555,3.129-0.066
	c0.66-0.277,1.302-1.144,1.244-1.622C25.254,14.478,21.328,14.258,20.582,16.284z"/>
<linearGradient id="Oval_2_" gradientUnits="userSpaceOnUse" x1="-445.7915" y1="479.5557" x2="-445.7915" y2="480.0254" gradientTransform="matrix(6.5701 0 0 -6.5701 2952.1047 3168.5281)">
	<stop  offset="0" style="stop-color:#A6694A"/>
	<stop  offset="1" style="stop-color:#4F2A1E"/>
	<a:midPointStop  offset="0" style="stop-color:#A6694A"/>
	<a:midPointStop  offset="0.5" style="stop-color:#A6694A"/>
	<a:midPointStop  offset="1" style="stop-color:#4F2A1E"/>
</linearGradient>
<circle id="Oval_89_" fill="url(#Oval_2_)" cx="23.21" cy="16.254" r="1.542"/>
<path id="Path_659_" fill="#1A1626" d="M22.44,16.226c0,1.066,1.542,1.066,1.542,0C23.982,15.235,22.44,15.235,22.44,16.226z"/>
<path id="Path_658_" fill="#AB968C" d="M22.205,15.793c0,0.448,0.646,0.448,0.646,0C22.852,15.379,22.205,15.379,22.205,15.793z"/>
<path id="Path_657_" fill="#F0A429" d="M20.575,16.344c0.626-2.012,4.892-1.724,5.476-0.362
	C25.834,14.249,21.108,13.791,20.575,16.344z"/>
<linearGradient id="SVGID_1_" gradientUnits="userSpaceOnUse" x1="-100.626" y1="17.9746" x2="-100.626" y2="2" gradientTransform="matrix(1 0 0 1 119.5918 0)">
	<stop  offset="0" style="stop-color:#473834"/>
	<stop  offset="0.2717" style="stop-color:#594640"/>
	<stop  offset="0.7226" style="stop-color:#715950"/>
	<stop  offset="1" style="stop-color:#7A6056"/>
	<a:midPointStop  offset="0" style="stop-color:#473834"/>
	<a:midPointStop  offset="0.4" style="stop-color:#473834"/>
	<a:midPointStop  offset="1" style="stop-color:#7A6056"/>
</linearGradient>
<path fill="url(#SVGID_1_)" d="M19.067,2c-4.145,0-6.216,1.878-6.636,2.768c-5.011,1.146-6.621,9.6-2.871,13.207
	c0.466-3.844,0.914-6.313,3.469-8.913c1.49,1.996,4.585,3.12,7.356,3.12c-1.312-0.954-2.206-1.888-2.909-2.759
	c4.628,2.124,9.811,3.483,11.097,8.552C33.026,10.884,29.328,2,19.067,2z"/>
<path fill="#473834" d="M12.42,4.767c-0.063,3.539,1.366,6.188,7.969,7.414C15.656,12.5,10.799,9.641,12.42,4.767z"/>
<path fill="#473834" d="M12.834,8.836c-1.723,1.699-3.657,4.643-3.29,9.137c0.343-3.715,2.049-6.773,3.595-8.755
	C13.03,9.099,12.929,8.972,12.834,8.836z"/>
<path fill="#473834" d="M15.791,7.715c3.462,3.305,11.968,3.089,12.8,10.258C26.372,11.001,18.848,12.564,15.791,7.715z"/>
<path fill="#473834" d="M54.332,22.285c0.669,0.442,1.439,0.772,2.34,0.94c-1.598-3.643,0.812-11.283-4.126-16.897
	c-6.961,0.208-7.924,22.721,1.779,19.727c-0.618-0.268-1.005-0.813-1.232-1.503c0.748,0.214,1.622,0.222,2.641-0.092
	C54.923,24.109,54.51,23.283,54.332,22.285z"/>
<path fill="#473834" d="M36.86,6.328c-4.938,5.614-2.06,13.255-3.657,16.897c0.899-0.168,1.672-0.498,2.34-0.94
	c-0.178,0.998-0.592,1.824-1.4,2.175c1.018,0.313,1.891,0.306,2.639,0.092c-0.228,0.689-0.613,1.235-1.231,1.503
	C45.252,29.049,43.821,6.536,36.86,6.328z"/>
<path id="Path_1241_" fill="#FFC940" d="M55.093,13.998c-1.572,0.191-2.708,5.455-1.72,6.845c0.139,0.194,0.949,0.503,1.55-0.723
	c0.333-0.679,1.293-1.245,1.59-2.646C56.894,15.68,56.656,13.809,55.093,13.998z"/>
<path id="Path_1240_" fill="#FFC940" d="M34.784,13.998c1.572,0.191,2.707,5.455,1.718,6.845c-0.139,0.194-0.949,0.503-1.55-0.723
	c-0.332-0.679-1.292-1.245-1.589-2.646C32.981,15.68,33.22,13.809,34.784,13.998z"/>
<path id="Path_1239_" fill="#F0A429" d="M55.049,15.008c-0.409,0.129-0.856,0.754-1.1,1.792c1.434-0.308,1.075,2.08-0.171,2.125
	c0.012,0.24,0.028,0.488,0.058,0.748c0.6-0.873,1.21-0.522,1.813-1.819C56.194,16.684,56.065,14.688,55.049,15.008z"/>
<path id="Path_1238_" fill="#F0A429" d="M35.926,16.797c-0.242-1.035-0.689-1.661-1.099-1.789c-1.016-0.319-1.146,1.676-0.602,2.846
	c0.604,1.297,1.214,0.946,1.815,1.819c0.029-0.261,0.046-0.509,0.056-0.749C34.863,18.865,34.511,16.507,35.926,16.797z"/>
<path fill="#FFC940" d="M44.938,3.878c-6.812,0-10.092,5.547-9.683,12.679c0.085,1.435,0.483,3.503,0.976,5.274
	c1.021,3.684,6.412,7.393,8.707,7.393s7.686-3.709,8.707-7.393c0.492-1.771,0.892-3.84,0.976-5.274
	C55.029,9.425,51.75,3.878,44.938,3.878z"/>
<path id="Path_1237_" fill="#966F42" d="M52.338,13.473c-1.558-0.824-4.539-0.865-5.649-0.29c-0.238,0.11-0.081,0.893,0.119,0.818
	c1.548-0.612,4.044-0.626,5.492,0.053C52.493,14.142,52.574,13.588,52.338,13.473z"/>
<path id="Path_1236_" fill="#966F42" d="M37.538,13.473c1.558-0.824,4.536-0.865,5.648-0.29c0.237,0.11,0.081,0.893-0.119,0.818
	c-1.55-0.612-4.043-0.626-5.493,0.053C37.382,14.142,37.302,13.588,37.538,13.473z"/>
<path id="Path_1235_" fill="#F0A429" d="M46.775,20.629c-0.194-0.136-0.65,0.073-1.838,0.073c-1.187,0-1.643-0.209-1.838-0.073
	c-0.232,0.164,0.139,0.904,1.838,0.904C46.639,21.533,47.01,20.793,46.775,20.629z"/>
<path id="Path_1234_" fill="#F0A429" d="M44.938,23.436c-1.531-0.45-3.802,0.214-3.802,0.214c0.864,0.942,1.498,2.163,3.802,2.163
	c2.64,0,3.089-1.387,3.803-2.163C48.74,23.649,46.469,22.982,44.938,23.436z"/>
<path id="Path_1233_" fill="#FFFFFF" d="M41.706,23.809c1.606,1.348,4.849,1.357,6.464,0C46.459,23.882,43.43,23.883,41.706,23.809z
	"/>
<path id="Path_1232_" fill="#FFFFFF" d="M43.422,16.284c0.059,0.45-0.248,0.985-1.095,1.386c-0.538,0.255-1.658,0.555-3.129-0.066
	c-0.659-0.277-1.302-1.144-1.244-1.622C38.752,14.478,42.676,14.258,43.422,16.284z"/>
<linearGradient id="Oval_3_" gradientUnits="userSpaceOnUse" x1="-440.4214" y1="479.5557" x2="-440.4214" y2="480.0254" gradientTransform="matrix(6.5701 0 0 -6.5701 2934.3743 3168.5281)">
	<stop  offset="0" style="stop-color:#A6694A"/>
	<stop  offset="1" style="stop-color:#4F2A1E"/>
	<a:midPointStop  offset="0" style="stop-color:#A6694A"/>
	<a:midPointStop  offset="0.5" style="stop-color:#A6694A"/>
	<a:midPointStop  offset="1" style="stop-color:#4F2A1E"/>
</linearGradient>
<circle id="Oval_166_" fill="url(#Oval_3_)" cx="40.759" cy="16.254" r="1.542"/>
<path id="Path_1231_" fill="#1A1626" d="M39.989,16.226c0,1.066,1.542,1.066,1.542,0C41.531,15.235,39.989,15.235,39.989,16.226z"/>
<path id="Path_1230_" fill="#AB968C" d="M39.754,15.793c0,0.448,0.646,0.448,0.646,0C40.4,15.379,39.754,15.379,39.754,15.793z"/>
<path id="Path_1229_" fill="#F0A429" d="M43.43,16.344c-0.626-2.013-4.895-1.716-5.476-0.362
	C38.169,14.249,42.896,13.791,43.43,16.344z"/>
<path id="Path_1228_" fill="#FFFFFF" d="M46.453,16.284c-0.058,0.45,0.248,0.985,1.096,1.386c0.538,0.255,1.657,0.555,3.129-0.066
	c0.66-0.277,1.302-1.144,1.244-1.622C51.125,14.478,47.199,14.258,46.453,16.284z"/>
<linearGradient id="Oval_4_" gradientUnits="userSpaceOnUse" x1="-441.854" y1="479.5557" x2="-441.854" y2="480.0254" gradientTransform="matrix(6.5701 0 0 -6.5701 2952.1047 3168.5281)">
	<stop  offset="0" style="stop-color:#A6694A"/>
	<stop  offset="1" style="stop-color:#4F2A1E"/>
	<a:midPointStop  offset="0" style="stop-color:#A6694A"/>
	<a:midPointStop  offset="0.5" style="stop-color:#A6694A"/>
	<a:midPointStop  offset="1" style="stop-color:#4F2A1E"/>
</linearGradient>
<circle id="Oval_165_" fill="url(#Oval_4_)" cx="49.081" cy="16.254" r="1.542"/>
<path id="Path_1227_" fill="#1A1626" d="M48.312,16.226c0,1.066,1.542,1.066,1.542,0C49.854,15.235,48.312,15.235,48.312,16.226z"/>
<path id="Path_1226_" fill="#AB968C" d="M48.076,15.793c0,0.448,0.646,0.448,0.646,0C48.723,15.379,48.076,15.379,48.076,15.793z"/>
<path id="Path_1225_" fill="#F0A429" d="M46.446,16.344c0.626-2.012,4.892-1.724,5.476-0.362
	C51.705,14.249,46.979,13.791,46.446,16.344z"/>
<linearGradient id="SVGID_2_" gradientUnits="userSpaceOnUse" x1="-74.7549" y1="17.9746" x2="-74.7549" y2="2" gradientTransform="matrix(1 0 0 1 119.5918 0)">
	<stop  offset="0" style="stop-color:#473834"/>
	<stop  offset="0.2717" style="stop-color:#594640"/>
	<stop  offset="0.7226" style="stop-color:#715950"/>
	<stop  offset="1" style="stop-color:#7A6056"/>
	<a:midPointStop  offset="0" style="stop-color:#473834"/>
	<a:midPointStop  offset="0.4" style="stop-color:#473834"/>
	<a:midPointStop  offset="1" style="stop-color:#7A6056"/>
</linearGradient>
<path fill="url(#SVGID_2_)" d="M44.938,2c-4.145,0-6.216,1.878-6.636,2.768c-5.011,1.146-6.621,9.6-2.871,13.207
	c0.466-3.844,0.914-6.313,3.469-8.913c1.49,1.996,4.585,3.12,7.356,3.12c-1.312-0.954-2.206-1.888-2.909-2.759
	c4.628,2.124,9.811,3.483,11.097,8.552C58.897,10.884,55.199,2,44.938,2z"/>
<path fill="#473834" d="M38.291,4.767c-0.063,3.539,1.366,6.188,7.969,7.414C41.527,12.5,36.67,9.641,38.291,4.767z"/>
<path fill="#473834" d="M38.705,8.836c-1.723,1.699-3.657,4.643-3.29,9.137c0.343-3.715,2.049-6.773,3.595-8.755
	C38.901,9.099,38.8,8.972,38.705,8.836z"/>
<path fill="#473834" d="M41.662,7.715c3.462,3.305,11.968,3.089,12.8,10.258C52.243,11.001,44.719,12.564,41.662,7.715z"/>
<path opacity="0.5" fill="#1A1626" d="M32.593,62h-0.184C32.471,62,32.531,62,32.593,62z"/>
<path fill="#D7F55D" d="M35.892,52.722L28.1,52.734c0,0-4.089,1.33-4.937,2.414c-1.187,1.52-1.731,5.413-1.867,6.535
	c3.45,0.21,7.279,0.315,11.113,0.316h0.184c3.467-0.001,6.93-0.088,10.111-0.259c-0.119-1.048-0.646-5.05-1.85-6.595
	C40.005,54.056,35.892,52.722,35.892,52.722z"/>
<path fill="#C3E33D" d="M28.1,52.734c0,3.241,7.792,3.229,7.792-0.013l-0.781-0.274h-6.195L28.1,52.734z"/>
<path fill="#F5BB51" d="M28.657,52.538c0,2.538,6.679,2.538,6.679,0c0-0.862,0-2.808,0-2.808h-6.679
	C28.657,49.73,28.657,51.676,28.657,52.538z"/>
<path fill="#C3E33D" d="M25.128,61.869l-0.299-0.012C24.829,58.178,25.128,58.188,25.128,61.869z"/>
<path fill="#C3E33D" d="M39.163,61.894l-0.3,0.013C38.863,58.226,39.163,58.213,39.163,61.894z"/>
<path fill="#F5BB51" d="M59.998,45.084c-0.045-1.624-0.136-4.793-0.136-4.793s-2.856,1.676-6.189,1.809
	c0.118,1.82,0.395,2.984,0.395,2.984c-3.16,1.109-9.138,6.839-11.638,7.638c-1.764,0.563-3.588-0.273-4.588,0.696
	c0.781,0.359,1.094,0.553,1.094,0.553c0.968,1.184-3.68,2.917-2.191,4.029c0.573,0.57,2.51,2.372,5.439-0.94
	c0.232-0.263,1.408-1.542,2.2-1.708c2.064-0.434,11.573-3.855,14.948-6.479C59.835,48.482,60.035,46.44,59.998,45.084z"/>
<path fill="#F0A429" d="M39.473,56.061c0,0-1.768,1.02-2.729,1.939C38.066,57.122,39.473,56.061,39.473,56.061z"/>
<path fill="#F0A429" d="M40.379,56.466c0,0-2.003,1.318-2.886,2.137C38.866,57.81,40.379,56.466,40.379,56.466z"/>
<path fill="#F0A429" d="M41.035,57.138c0,0-1.734,1.188-2.723,1.802C39.238,58.731,41.035,57.138,41.035,57.138z"/>
<path fill="#F5BB51" d="M4.002,45.084c0.045-1.624,0.136-4.793,0.136-4.793s2.856,1.676,6.189,1.809
	c-0.118,1.82-0.395,2.984-0.395,2.984c3.16,1.109,9.138,6.839,11.638,7.638c1.764,0.563,3.609-0.249,4.609,0.72
	c-0.781,0.359-1.115,0.529-1.115,0.529c-0.968,1.184,3.68,2.917,2.191,4.029c-0.573,0.57-2.51,2.372-5.439-0.94
	c-0.232-0.263-1.408-1.542-2.2-1.708c-2.064-0.434-11.573-3.855-14.948-6.479C4.165,48.482,3.965,46.44,4.002,45.084z"/>
<path fill="#F0A429" d="M24.527,56.061c0,0,1.768,1.02,2.729,1.939C25.934,57.122,24.527,56.061,24.527,56.061z"/>
<path fill="#F0A429" d="M23.621,56.466c0,0,2.003,1.318,2.886,2.137C25.134,57.81,23.621,56.466,23.621,56.466z"/>
<path fill="#F0A429" d="M22.965,57.138c0,0,1.734,1.188,2.723,1.802C24.762,58.731,22.965,57.138,22.965,57.138z"/>
<path fill="#473834" d="M41.073,47.086c0.424,0.166,0.873,0.295,1.357,0.371c-1.365-2.665-0.402-8.508-5.596-10.622
	c-4.031,0.101-2.441,13.591,3.99,11.891c-0.359-0.134-0.625-0.362-0.82-0.651c0.588,0.105,1.258,0.088,2.023-0.114
	C41.581,47.794,41.274,47.482,41.073,47.086z"/>
<path fill="#473834" d="M26.278,36.835c-4.645,4.856-3.344,7.957-4.709,10.622c0.488-0.078,0.941-0.209,1.359-0.379
	c-0.201,0.4-0.508,0.715-0.959,0.882c0.768,0.202,1.438,0.22,2.023,0.114c-0.195,0.289-0.461,0.518-0.82,0.651
	C29.604,50.426,30.296,36.936,26.278,36.835z"/>
<path id="Path_137_" fill="#FFC940" d="M23.442,42.108c1.064,0.13,1.834,3.729,1.164,4.679c-0.094,0.134-0.643,0.346-1.051-0.493
	c-0.225-0.464-0.875-0.852-1.076-1.81C22.22,43.258,22.382,41.979,23.442,42.108z"/>
<path id="Path_136_" fill="#F0A429" d="M23.47,42.799c0.279,0.088,0.582,0.516,0.746,1.226c-0.971-0.211-0.729,1.422,0.115,1.452
	c-0.006,0.165-0.018,0.334-0.037,0.512c-0.408-0.596-0.82-0.357-1.23-1.244C22.694,43.945,22.782,42.581,23.47,42.799z"/>
<path id="Path_135_" fill="#FFC940" d="M40.558,42.108c-1.066,0.13-1.836,3.729-1.164,4.679c0.094,0.134,0.643,0.346,1.049-0.493
	c0.227-0.464,0.877-0.852,1.078-1.81C41.778,43.258,41.616,41.979,40.558,42.108z"/>
<path id="Path_134_" fill="#F0A429" d="M39.784,44.021c0.164-0.708,0.467-1.135,0.744-1.223c0.688-0.219,0.775,1.146,0.406,1.945
	c-0.408,0.887-0.822,0.648-1.229,1.244c-0.021-0.178-0.031-0.348-0.039-0.512C40.503,45.436,40.743,43.824,39.784,44.021z"/>
<path fill="#FFC940" d="M32.001,32.858c-5.822,0-8.627,4.404-8.275,10.528c0.07,1.232,0.834,4.047,1.555,5.489
	c1.273,2.545,4.6,4.442,6.719,4.442s5.447-1.897,6.721-4.442c0.723-1.442,1.484-4.257,1.555-5.489
	C40.628,37.263,37.821,32.858,32.001,32.858z"/>
<path id="Path_133_" fill="#F0A429" d="M33.356,46.828c-0.143-0.1-0.48,0.055-1.357,0.055c-0.875,0-1.213-0.154-1.357-0.055
	c-0.172,0.122,0.104,0.669,1.357,0.669C33.255,47.497,33.53,46.95,33.356,46.828z"/>
<path id="Path_132_" fill="#F0A429" d="M31.999,48.78c-1.313-0.386-3.258,0.184-3.258,0.184c0.74,0.808,1.283,1.853,3.258,1.853
	c2.262,0,2.646-1.188,3.26-1.853C35.259,48.964,33.312,48.393,31.999,48.78z"/>
<path id="Path_131_" fill="#FFFFFF" d="M29.229,49.1c1.377,1.155,4.156,1.162,5.539,0C33.302,49.162,30.708,49.164,29.229,49.1z"/>
<path id="Path_130_" fill="#FFFFFF" d="M30.745,43.832c0.047,0.374-0.207,0.816-0.908,1.148c-0.445,0.211-1.373,0.459-2.592-0.055
	c-0.547-0.23-1.078-0.947-1.031-1.344C26.876,42.336,30.126,42.154,30.745,43.832z"/>
<linearGradient id="Oval_5_" gradientUnits="userSpaceOnUse" x1="-424.0791" y1="475.4023" x2="-424.0791" y2="475.791" gradientTransform="matrix(6.5701 0 0 -6.5701 2814.7805 3168.5281)">
	<stop  offset="0" style="stop-color:#A6694A"/>
	<stop  offset="1" style="stop-color:#4F2A1E"/>
	<a:midPointStop  offset="0" style="stop-color:#A6694A"/>
	<a:midPointStop  offset="0.5" style="stop-color:#A6694A"/>
	<a:midPointStop  offset="1" style="stop-color:#4F2A1E"/>
</linearGradient>
<circle id="Oval_18_" fill="url(#Oval_5_)" cx="28.538" cy="43.807" r="1.277"/>
<path id="Path_129_" fill="#1A1626" d="M27.899,43.783c0,0.885,1.277,0.885,1.277,0C29.177,42.963,27.899,42.963,27.899,43.783z"/>
<path id="Path_128_" fill="#AB968C" d="M27.706,43.426c0,0.371,0.535,0.371,0.535,0C28.241,43.082,27.706,43.082,27.706,43.426z"/>
<path id="Path_127_" fill="#F0A429" d="M30.751,43.881c-0.52-1.666-4.055-1.421-4.537-0.299
	C26.392,42.146,30.308,41.768,30.751,43.881z"/>
<path id="Path_126_" fill="#FFFFFF" d="M33.255,43.832c-0.049,0.374,0.205,0.816,0.908,1.148c0.445,0.211,1.373,0.459,2.592-0.055
	c0.547-0.23,1.078-0.947,1.031-1.344C37.126,42.336,33.872,42.154,33.255,43.832z"/>
<linearGradient id="Oval_6_" gradientUnits="userSpaceOnUse" x1="-425.7285" y1="475.4023" x2="-425.7285" y2="475.791" gradientTransform="matrix(6.5701 0 0 -6.5701 2832.511 3168.5281)">
	<stop  offset="0" style="stop-color:#A6694A"/>
	<stop  offset="1" style="stop-color:#4F2A1E"/>
	<a:midPointStop  offset="0" style="stop-color:#A6694A"/>
	<a:midPointStop  offset="0.5" style="stop-color:#A6694A"/>
	<a:midPointStop  offset="1" style="stop-color:#4F2A1E"/>
</linearGradient>
<circle id="Oval_17_" fill="url(#Oval_6_)" cx="35.433" cy="43.807" r="1.277"/>
<path id="Path_125_" fill="#1A1626" d="M34.794,43.783c0,0.885,1.277,0.885,1.277,0C36.071,42.963,34.794,42.963,34.794,43.783z"/>
<path id="Path_124_" fill="#AB968C" d="M34.601,43.426c0,0.371,0.535,0.371,0.535,0C35.136,43.082,34.601,43.082,34.601,43.426z"/>
<path id="Path_123_" fill="#F0A429" d="M33.249,43.881c0.518-1.666,4.053-1.427,4.537-0.299
	C37.606,42.146,33.69,41.768,33.249,43.881z"/>
<path id="Path_122_" fill="#F0A429" d="M37.868,41.842c-1.1-0.693-3.313-0.896-4.178-0.539c-0.186,0.066-0.125,0.647,0.029,0.604
	c1.193-0.356,3.051-0.222,4.078,0.357C37.937,42.34,38.036,41.939,37.868,41.842z"/>
<path id="Path_121_" fill="#F0A429" d="M26.13,41.842c1.1-0.693,3.313-0.896,4.18-0.539c0.186,0.066,0.125,0.647-0.029,0.604
	c-1.197-0.355-3.051-0.222-4.08,0.357C26.063,42.34,25.964,41.939,26.13,41.842z"/>
<linearGradient id="SVGID_3_" gradientUnits="userSpaceOnUse" x1="32.002" y1="45.8789" x2="32.002" y2="31.6548">
	<stop  offset="0" style="stop-color:#473834"/>
	<stop  offset="0.2717" style="stop-color:#594640"/>
	<stop  offset="0.7226" style="stop-color:#715950"/>
	<stop  offset="1" style="stop-color:#7A6056"/>
	<a:midPointStop  offset="0" style="stop-color:#473834"/>
	<a:midPointStop  offset="0.4" style="stop-color:#473834"/>
	<a:midPointStop  offset="1" style="stop-color:#7A6056"/>
</linearGradient>
<path fill="url(#SVGID_3_)" d="M38.04,34.428c-0.168-1.11-1.99-2.773-6.113-2.773c-7.703,0-11.939,7.452-7.717,14.225
	c-0.17-4.494,2.826-7.669,6.838-9.063c-1.182,0.742-2.313,1.748-3.32,3.186c1.936-1.072,4.252-1.6,6.215-2.098
	c-0.492,0.725-1.057,1.499-1.865,2.272c1.924-0.25,4.289-1.028,5.475-2.438c1.982,2.359,2.715,5.021,2.238,8.139
	C43.171,40.177,40.825,34.998,38.04,34.428z"/>
<path fill="#473834" d="M38.04,34.428c0.043,2.613-1.664,4.762-5.963,5.749C35.433,40.094,39.235,38.405,38.04,34.428z"/>
<path fill="#473834" d="M37.642,37.402c1.424,1.513,3.146,4.739,2.148,8.475c0.297-4.012-1.123-6.37-2.398-8.135
	C37.481,37.636,37.565,37.522,37.642,37.402z"/>
<path fill="#473834" d="M35.265,36.885c-1.307,1.106-4.76,0.748-7.537,3.117C30.593,38.443,34.036,38.916,35.265,36.885z"/>
<path fill="#473834" d="M31.999,36.031c-2.014,1.709-8.582,1.471-7.789,9.848C24.675,38.372,30.771,38.063,31.999,36.031z"/>
</svg>
