<?xml version="1.0" encoding="utf-8"?>
<!-- Generator: Adobe Illustrator 15.0.0, SVG Export Plug-In . SVG Version: 6.00 Build 0)  -->
<!DOCTYPE svg PUBLIC "-//W3C//DTD SVG 1.1//EN" "http://www.w3.org/Graphics/SVG/1.1/DTD/svg11.dtd" [
	<!ENTITY ns_flows "http://ns.adobe.com/Flows/1.0/">
	<!ENTITY ns_extend "http://ns.adobe.com/Extensibility/1.0/">
	<!ENTITY ns_ai "http://ns.adobe.com/AdobeIllustrator/10.0/">
	<!ENTITY ns_graphs "http://ns.adobe.com/Graphs/1.0/">
]>
<svg version="1.1" id="Layer_1" xmlns:x="&ns_extend;" xmlns:i="&ns_ai;" xmlns:graph="&ns_graphs;"
	 xmlns="http://www.w3.org/2000/svg" xmlns:xlink="http://www.w3.org/1999/xlink" xmlns:a="http://ns.adobe.com/AdobeSVGViewerExtensions/3.0/"
	 x="0px" y="0px" width="64px" height="64px" viewBox="0 0 64 64" enable-background="new 0 0 64 64" xml:space="preserve">
<path fill="#E6EBEF" d="M7.785,52.718c2.702-1.289,11.954-4.088,11.954-4.088l20.495-0.035c0,0,9.354,2.826,12.039,4.119
	c3.905,1.873,4.726,4.43,4.726,6.846c0,3.254-54,3.254-54,0C2.999,57.14,3.87,54.583,7.785,52.718z"/>
<path opacity="0.4" fill="#E81C27" d="M14.739,50.201v11.411c1.085,0.062,2.219,0.116,3.392,0.163V49.124
	C17.225,49.406,16.024,49.784,14.739,50.201z"/>
<path opacity="0.4" fill="#E81C27" d="M28.305,48.614v13.38c1.13,0.006,2.262,0.006,3.391,0V48.608L28.305,48.614z"/>
<path opacity="0.4" fill="#E81C27" d="M2.999,59.559c0,0.33,0.564,0.626,1.564,0.89v-5.399C3.343,56.47,2.999,58.041,2.999,59.559z"
	/>
<path opacity="0.4" fill="#E81C27" d="M7.955,52.641v8.401c1.011,0.125,2.15,0.238,3.392,0.34V51.341
	C9.967,51.822,8.74,52.281,7.955,52.641z"/>
<path opacity="0.4" fill="#E81C27" d="M21.521,48.626v13.263c1.112,0.029,2.244,0.054,3.39,0.071V48.62L21.521,48.626z"/>
<path opacity="0.4" fill="#E81C27" d="M56.999,59.559c0-1.528-0.332-3.112-1.562-4.545v5.434
	C56.437,60.185,56.999,59.889,56.999,59.559z"/>
<path opacity="0.4" fill="#E81C27" d="M48.654,51.312v10.069c1.241-0.101,2.381-0.214,3.393-0.339V52.61
	C51.252,52.249,50.029,51.792,48.654,51.312z"/>
<path opacity="0.4" fill="#E81C27" d="M35.087,48.603V61.96c1.146-0.018,2.279-0.042,3.392-0.071V48.597L35.087,48.603z"/>
<path opacity="0.4" fill="#E81C27" d="M41.871,49.097v12.679c1.171-0.047,2.306-0.102,3.392-0.163V50.174
	C43.979,49.757,42.78,49.38,41.871,49.097z"/>
<path opacity="0.4" fill="#E81C27" d="M56.348,56.397H3.67c-0.482,0.986-0.652,2.011-0.668,3.015h53.994
	C56.981,58.409,56.82,57.385,56.348,56.397z"/>
<path opacity="0.4" fill="#E81C27" d="M52.273,52.713c-1.241-0.599-3.908-1.522-6.419-2.346H14.232
	c-2.506,0.821-5.188,1.749-6.447,2.35c-0.447,0.213-0.85,0.436-1.22,0.665h46.926C53.122,53.151,52.72,52.927,52.273,52.713z"/>
<path fill="#EF7E8C" d="M19.739,48.63c0,7.668,20.495,7.633,20.495-0.035l-1.844-0.566H21.694L19.739,48.63z"/>
<path fill="#F3CCA8" d="M21.359,48.243c0,6.002,17.279,6.002,17.279,0c0-2.043,0-6.641,0-6.641H21.359
	C21.359,41.603,21.359,46.2,21.359,48.243z"/>
<path fill="#006099" d="M47.753,60.615c0.09-2.381,1.394-7.184,1.426-9.125c0.009-0.518-4.697-2.017-4.746-1.571
	c-0.259,2.322,0.207,8.021-0.095,10.696H47.753z"/>
<path fill="#006099" d="M15.66,60.615c-0.304-2.676,0.164-8.374-0.095-10.696c-0.051-0.445-4.755,1.054-4.746,1.571
	c0.032,1.941,1.336,6.744,1.426,9.125H15.66z"/>
<path fill="#006DAE" d="M11.605,58.857c-0.396,0.391-0.628,1.684-0.738,2.484C15.987,61.78,22.991,62,29.999,62
	s14.012-0.22,19.132-0.658c-0.11-0.801-0.343-2.096-0.738-2.486C47.555,58.031,12.443,58.033,11.605,58.857z"/>
<linearGradient id="SVGID_1_" gradientUnits="userSpaceOnUse" x1="29.9028" y1="39.7578" x2="29.9028" y2="13.0479">
	<stop  offset="0" style="stop-color:#6E4900"/>
	<stop  offset="0.2089" style="stop-color:#825805"/>
	<stop  offset="0.6353" style="stop-color:#B77F11"/>
	<stop  offset="1" style="stop-color:#E8A31C"/>
	<a:midPointStop  offset="0" style="stop-color:#6E4900"/>
	<a:midPointStop  offset="0.5455" style="stop-color:#6E4900"/>
	<a:midPointStop  offset="1" style="stop-color:#E8A31C"/>
</linearGradient>
<path fill="url(#SVGID_1_)" d="M59.2,25.303c-1.08,2.176-2.23,4.033-3.648,5.598l-1.756-0.387l0.531,1.604
	c-4.338,3.863-11.109,7.557-24.416,7.557c-20.322,0-26.559-7.813-29.291-14.371C-1.853,19.373,61.392,20.891,59.2,25.303z"/>
<path id="Path_1106_" fill="#FFD8B4" d="M46.44,25.395c-2.545,0.307-4.383,8.814-2.781,11.061c0.225,0.313,1.535,0.814,2.508-1.168
	c0.539-1.098,2.092-2.014,2.574-4.277C49.358,28.109,48.974,25.088,46.44,25.395z"/>
<path id="Path_1105_" fill="#FFD8B4" d="M13.56,25.395c2.545,0.307,4.383,8.814,2.781,11.061c-0.225,0.313-1.535,0.814-2.51-1.168
	c-0.537-1.098-2.092-2.014-2.572-4.277C10.64,28.109,11.026,25.088,13.56,25.395z"/>
<path id="Path_1104_" fill="#DEB38A" d="M46.372,27.023c-0.664,0.209-1.389,1.221-1.781,2.898c2.32-0.498,1.74,3.361-0.277,3.434
	c0.02,0.389,0.045,0.787,0.094,1.207c0.971-1.408,1.959-0.844,2.938-2.939C48.226,29.734,48.017,26.51,46.372,27.023z"/>
<path id="Path_1103_" fill="#DEB38A" d="M15.409,29.918c-0.395-1.676-1.117-2.686-1.781-2.895c-1.643-0.514-1.855,2.711-0.973,4.6
	c0.979,2.096,1.967,1.531,2.939,2.939c0.047-0.42,0.074-0.82,0.09-1.209C13.688,33.26,13.116,29.447,15.409,29.918z"/>
<path id="Path_1102_" fill="#FFD8B4" d="M29.999,9.035c-11.027,0-16.34,8.328-15.676,19.908c0.133,2.33,1.582,9.93,2.947,12.656
	c1.398,2.789,6.074,7.09,8.938,7.98c1.811,0.561,5.773,0.561,7.582,0c2.865-0.891,7.543-5.191,8.939-7.98
	c1.369-2.727,2.814-10.324,2.945-12.656C46.343,17.363,41.03,9.035,29.999,9.035z"/>
<path id="Path_1101_" fill="#A88868" d="M41.981,24.545c-2.521-1.336-7.348-1.4-9.146-0.469c-0.387,0.178-0.131,1.441,0.193,1.322
	c2.504-0.99,6.547-1.012,8.893,0.084C42.233,25.625,42.364,24.73,41.981,24.545z"/>
<path id="Path_1100_" fill="#A88868" d="M18.019,24.545c2.521-1.336,7.346-1.4,9.146-0.469c0.385,0.178,0.131,1.441-0.193,1.322
	c-2.51-0.99-6.547-1.012-8.895,0.084C17.767,25.625,17.638,24.73,18.019,24.545z"/>
<path id="Path_1099_" fill="#DEB38A" d="M32.976,36.109c-0.314-0.219-1.053,0.119-2.977,0.119c-1.92,0-2.66-0.338-2.975-0.119
	c-0.377,0.266,0.223,1.461,2.975,1.461C32.753,37.57,33.354,36.375,32.976,36.109z"/>
<path id="Path_1098_" fill="#DEB38A" d="M29.999,40.646c-2.479-0.729-6.154,0.346-6.154,0.346c1.398,1.521,2.424,3.494,6.154,3.494
	c4.275,0,5.002-2.24,6.156-3.494C36.155,40.992,32.479,39.912,29.999,40.646z"/>
<path id="Path_1097_" fill="#FFFFFF" d="M24.767,41.25c2.602,2.176,7.852,2.191,10.467,0C32.462,41.367,27.558,41.369,24.767,41.25z
	"/>
<path id="Path_1096_" fill="#FFFFFF" d="M27.546,29.086c0.094,0.73-0.402,1.594-1.773,2.242c-0.871,0.412-2.686,0.896-5.066-0.107
	c-1.066-0.449-2.107-1.848-2.014-2.623C19.983,26.168,26.337,25.813,27.546,29.086z"/>
<linearGradient id="Oval_1_" gradientUnits="userSpaceOnUse" x1="-424.8862" y1="477.4648" x2="-424.8862" y2="478.2236" gradientTransform="matrix(6.5701 0 0 -6.5701 2814.7805 3168.5281)">
	<stop  offset="0" style="stop-color:#A6694A"/>
	<stop  offset="1" style="stop-color:#4F2A1E"/>
	<a:midPointStop  offset="0" style="stop-color:#A6694A"/>
	<a:midPointStop  offset="0.5" style="stop-color:#A6694A"/>
	<a:midPointStop  offset="1" style="stop-color:#4F2A1E"/>
</linearGradient>
<circle id="Oval_170_" fill="url(#Oval_1_)" cx="23.235" cy="29.039" r="2.492"/>
<path id="Path_1095_" fill="#1A1626" d="M21.987,28.992c0,1.725,2.496,1.725,2.496,0C24.483,27.393,21.987,27.393,21.987,28.992z"/>
<path id="Path_1094_" fill="#AB968C" d="M21.608,28.293c0,0.723,1.045,0.723,1.045,0C22.653,27.625,21.608,27.625,21.608,28.293z"/>
<path id="Path_1093_" fill="#DEB38A" d="M27.558,29.182c-1.014-3.25-7.926-2.77-8.865-0.584
	C19.04,25.799,26.694,25.059,27.558,29.182z"/>
<path id="Path_1092_" fill="#FFFFFF" d="M32.454,29.086c-0.094,0.73,0.4,1.594,1.773,2.242c0.871,0.412,2.684,0.896,5.064-0.107
	c1.07-0.449,2.109-1.848,2.016-2.623C40.017,26.168,33.661,25.813,32.454,29.086z"/>
<linearGradient id="Oval_2_" gradientUnits="userSpaceOnUse" x1="-425.5342" y1="477.4648" x2="-425.5342" y2="478.2236" gradientTransform="matrix(6.5701 0 0 -6.5701 2832.511 3168.5281)">
	<stop  offset="0" style="stop-color:#A6694A"/>
	<stop  offset="1" style="stop-color:#4F2A1E"/>
	<a:midPointStop  offset="0" style="stop-color:#A6694A"/>
	<a:midPointStop  offset="0.5" style="stop-color:#A6694A"/>
	<a:midPointStop  offset="1" style="stop-color:#4F2A1E"/>
</linearGradient>
<circle id="Oval_169_" fill="url(#Oval_2_)" cx="36.708" cy="29.039" r="2.492"/>
<path id="Path_1091_" fill="#1A1626" d="M35.462,28.992c0,1.725,2.496,1.725,2.496,0C37.958,27.393,35.462,27.393,35.462,28.992z"/>
<path id="Path_1090_" fill="#AB968C" d="M35.081,28.293c0,0.723,1.047,0.723,1.047,0C36.128,27.625,35.081,27.625,35.081,28.293z"/>
<path id="Path_1089_" fill="#DEB38A" d="M32.442,29.182c1.012-3.248,7.92-2.783,8.865-0.584
	C40.956,25.799,33.306,25.059,32.442,29.182z"/>
<path fill="#523E3A" d="M44.085,11.793C41.671,8.533,37.253,6,29.999,6c-7.252,0-11.668,2.533-14.082,5.793
	C12.499,16.41,47.501,16.41,44.085,11.793z"/>
<linearGradient id="SVGID_2_" gradientUnits="userSpaceOnUse" x1="30.0005" y1="31.793" x2="30.0005" y2="10.4121">
	<stop  offset="0.5" style="stop-color:#1E110E"/>
	<stop  offset="0.6367" style="stop-color:#271916"/>
	<stop  offset="0.859" style="stop-color:#3F2E2A"/>
	<stop  offset="1" style="stop-color:#523E3A"/>
	<a:midPointStop  offset="0.5" style="stop-color:#1E110E"/>
	<a:midPointStop  offset="0.6" style="stop-color:#1E110E"/>
	<a:midPointStop  offset="1" style="stop-color:#523E3A"/>
</linearGradient>
<path fill="url(#SVGID_2_)" d="M44.085,11.793c-2.414-3.26-6.832,0.275-14.086,0.275c-7.252,0-11.668-3.535-14.082-0.275
	c-3.418,4.617-2.258,20-0.736,20c0.24,0,0.275-5.381,0.736-9.104c0.373-3.029,1.094-5.969,1.924-6.449
	c2.531-1.467,7.412,0.631,12.158,0.631s9.629-2.098,12.162-0.631c0.828,0.48,1.547,3.42,1.924,6.449
	c0.459,3.723,0.494,9.104,0.734,9.104C46.341,31.793,47.501,16.41,44.085,11.793z"/>
<radialGradient id="SVGID_3_" cx="-7.0991" cy="10.2578" r="13.364" gradientTransform="matrix(0.9706 0 0 1 37.0654 0)" gradientUnits="userSpaceOnUse">
	<stop  offset="0" style="stop-color:#FABD49"/>
	<stop  offset="0.3036" style="stop-color:#F9BB45"/>
	<stop  offset="0.5955" style="stop-color:#F5B53A"/>
	<stop  offset="0.8818" style="stop-color:#EEAA26"/>
	<stop  offset="1" style="stop-color:#EBA51C"/>
	<a:midPointStop  offset="0" style="stop-color:#FABD49"/>
	<a:midPointStop  offset="0.7152" style="stop-color:#FABD49"/>
	<a:midPointStop  offset="1" style="stop-color:#EBA51C"/>
</radialGradient>
<path fill="url(#SVGID_3_)" d="M38.011,5.291C36.417,3.859,34.866,2,30.175,2c-4.689,0-6.242,1.859-7.836,3.291
	c-2.92,2.623-8.664,3.99-8.664,13.225h33C46.675,9.281,40.933,7.914,38.011,5.291z"/>
<linearGradient id="SVGID_4_" gradientUnits="userSpaceOnUse" x1="30" y1="39.7588" x2="30" y2="13.0481">
	<stop  offset="0" style="stop-color:#6E4900"/>
	<stop  offset="0.2089" style="stop-color:#825805"/>
	<stop  offset="0.6353" style="stop-color:#B77F11"/>
	<stop  offset="1" style="stop-color:#E8A31C"/>
	<a:midPointStop  offset="0" style="stop-color:#6E4900"/>
	<a:midPointStop  offset="0.5455" style="stop-color:#6E4900"/>
	<a:midPointStop  offset="1" style="stop-color:#E8A31C"/>
</linearGradient>
<path fill="url(#SVGID_4_)" d="M59.2,25.303c-4.34,8.742-9.814-4.773-29.289-4.773c-16.605,0-26.559,11.332-29.291,4.773
	c-1.826-4.379,0.594-6.256,4.455-7.289l2.066,1.42l0.268-1.93c0.246-0.045,0.494-0.088,0.744-0.127l1.029,1.02l0.406-1.238
	c11.639-1.662,12.424-4.225,20.322-4.225c8.34,0,10.371,3.223,21.201,3.836l0.715,1.828l2.338-1.455
	C59.728,18.268,61.085,21.508,59.2,25.303z"/>
<linearGradient id="SVGID_5_" gradientUnits="userSpaceOnUse" x1="39.2402" y1="197.7754" x2="39.2402" y2="220.2754" gradientTransform="matrix(0.9962 0.0871 -0.0871 0.9962 33.5019 -166.4786)">
	<stop  offset="0" style="stop-color:#9EABB0"/>
	<stop  offset="0.4714" style="stop-color:#8A999F"/>
	<stop  offset="1" style="stop-color:#6E8189"/>
	<a:midPointStop  offset="0" style="stop-color:#9EABB0"/>
	<a:midPointStop  offset="0.5455" style="stop-color:#9EABB0"/>
	<a:midPointStop  offset="1" style="stop-color:#6E8189"/>
</linearGradient>
<path fill="url(#SVGID_5_)" d="M53.542,54.814c-4.439-0.388-8.67-3.798-8.164-9.564l0.752-8.598
	c0.078-0.899,1.943-3.479,1.943-3.479s1.393,2.864,1.313,3.763l-0.752,8.599c-0.334,3.817,2.369,5.775,5.193,6.022
	s5.824-1.212,6.158-5.029l0.752-8.599c0.078-0.898,1.945-3.479,1.945-3.479s1.393,2.865,1.314,3.764l-0.752,8.599
	C62.739,52.581,57.981,55.203,53.542,54.814z"/>
<path fill="#774212" d="M54.589,60.646c-1.381,0.341-3.191,0.475-3.191,0.475l0.76-8.338l3.102,0.271L54.589,60.646z"/>
<linearGradient id="SVGID_6_" gradientUnits="userSpaceOnUse" x1="39.2393" y1="197.7676" x2="39.2393" y2="219.0645" gradientTransform="matrix(0.9962 0.0871 -0.0871 0.9962 33.5019 -166.4786)">
	<stop  offset="0" style="stop-color:#9EABB0"/>
	<stop  offset="0.4714" style="stop-color:#8A999F"/>
	<stop  offset="1" style="stop-color:#6E8189"/>
	<a:midPointStop  offset="0" style="stop-color:#9EABB0"/>
	<a:midPointStop  offset="0.5455" style="stop-color:#9EABB0"/>
	<a:midPointStop  offset="1" style="stop-color:#6E8189"/>
</linearGradient>
<path fill="url(#SVGID_6_)" d="M56.692,37.576c0.078-0.899-1.314-3.764-1.314-3.764s-1.865,2.579-1.943,3.479l-1.568,17.922
	l3.256,0.285L56.692,37.576z"/>
</svg>
