<?xml version="1.0" encoding="utf-8"?>
<!-- Generator: Adobe Illustrator 24.1.2, SVG Export Plug-In . SVG Version: 6.00 Build 0)  -->
<svg version="1.1" id="Layer_1" xmlns="http://www.w3.org/2000/svg" xmlns:xlink="http://www.w3.org/1999/xlink" x="0px" y="0px"
	 width="64px" height="64px" viewBox="0 0 64 64" style="enable-background:new 0 0 64 64;" xml:space="preserve">
<style type="text/css">
	.st0{fill:#302C3B;}
	.st1{fill:#3AB0A2;}
	.st2{fill:#2B998D;}
	.st3{fill:#F5BB51;}
	.st4{fill:#473834;}
	.st5{fill:url(#SVGID_1_);}
	.st6{fill:url(#SVGID_2_);}
	.st7{fill:#8E3ED6;}
	.st8{fill:#FFC940;}
	.st9{fill:#D47706;}
	.st10{fill:#FFFFFF;}
	.st11{fill:#966F42;}
	.st12{fill:#F0A429;}
	.st13{fill:url(#Oval_1_);}
	.st14{fill:#1A1626;}
	.st15{fill:#AB968C;}
	.st16{fill:#45332C;}
	.st17{fill:url(#Oval_2_);}
	.st18{fill:url(#SVGID_3_);}
	.st19{fill:url(#Oval_3_);}
	.st20{fill:url(#Oval_4_);}
	.st21{fill:#7A6056;}
	.st22{fill:url(#SVGID_4_);}
	.st23{opacity:0.5;fill:#1A1626;}
	.st24{fill:#8FEAFF;}
	.st25{fill:#67DBF5;}
	.st26{fill:url(#Oval_5_);}
	.st27{fill:url(#Oval_6_);}
	.st28{fill:url(#SVGID_5_);}
</style>
<path class="st0" d="M33.3,58l8.91,3.74c0,0,12.36-0.52,12.36-2.29c0-1,0-1.45,0-1.45H33.3z"/>
<path class="st1" d="M57.68,31.72c-1.27-1.65-7.43-3.66-7.43-3.66L38.6,28.08c0,0-6.12,2.01-7.39,3.64
	c-2.08,2.69-2.85,5.36-2.85,5.36l4.93,3V58h21.27V45.08l4.93-4.93C59.49,40.15,59.76,34.41,57.68,31.72z"/>
<path class="st2" d="M38.6,28.08c0,4.89,11.66,4.87,11.66-0.02l-1.17-0.41h-9.27L38.6,28.08z"/>
<path class="st3" d="M39.43,27.79c0,3.83,9.99,3.83,9.99,0c0-1.3,0-4.23,0-4.23h-9.99C39.43,23.56,39.43,26.49,39.43,27.79z"/>
<path class="st4" d="M22.9,29.69c9.39-3.75,8.45-12.67,8.45-12.67H5.07c0,0-0.94,8.92,8.45,12.67c0,0,1.88,0.47,4.69,0.47
	C21.03,30.16,22.9,29.69,22.9,29.69z"/>
<linearGradient id="SVGID_1_" gradientUnits="userSpaceOnUse" x1="27.36" y1="30.1591" x2="27.36" y2="2.0701">
	<stop  offset="0.05" style="stop-color:#473834"/>
	<stop  offset="0.2266" style="stop-color:#594640"/>
	<stop  offset="0.5197" style="stop-color:#715950"/>
	<stop  offset="0.7" style="stop-color:#7A6056"/>
</linearGradient>
<path class="st5" d="M27.7,17.97c0.96,4.04,0.45,8.05-4.8,11.72c5.63-0.94,8.91-6.26,8.91-10.34L27.7,17.97z"/>
<linearGradient id="SVGID_2_" gradientUnits="userSpaceOnUse" x1="1771.7524" y1="30.1591" x2="1771.7524" y2="2.0701" gradientTransform="matrix(-1 0 0 1 1780.8145 0)">
	<stop  offset="0.05" style="stop-color:#473834"/>
	<stop  offset="0.2266" style="stop-color:#594640"/>
	<stop  offset="0.5197" style="stop-color:#715950"/>
	<stop  offset="0.7" style="stop-color:#7A6056"/>
</linearGradient>
<path class="st6" d="M8.72,17.97c-0.96,4.04-0.45,8.05,4.8,11.72c-5.63-0.94-8.91-6.26-8.91-10.34L8.72,17.97z"/>
<path class="st3" d="M30.45,31.73c-1.27-1.64-2.63-2.09-2.63-2.09l0.55,10.44c0,0,1.37,2.67,4.93,3.95v-6.88
	C33.3,37.16,32.53,34.41,30.45,31.73z"/>
<path class="st7" d="M8.58,29.63l3.59-1.32l12.07,0.01l3.57,1.31c0,0,0.89,7.85,0.54,10.44c-0.56,4.19,0.82,21.82,0.82,21.82
	S8.49,61.74,8.49,59c0-3.79,0.89-9.62,0.86-12c-0.05-3.23-0.71-2.71-1.28-6.92C7.73,37.49,8.58,29.63,8.58,29.63z"/>
<path class="st3" d="M22.68,27.77c0-1.31,0-4.22,0-4.22h-8.92c0,0,0,2.89,0,4.2l-1.59,0.56c0,3.95,5.17,6.31,6.05,6.31
	c0.87,0,6.03-2.36,6.03-6.3L22.68,27.77z"/>
<path class="st8" d="M18.21,3.41c-6.81,0-10.09,5.55-9.68,12.68c0.09,1.43,0.48,3.5,0.98,5.27c1.02,3.68,6.41,7.39,8.71,7.39
	c2.29,0,7.68-3.71,8.71-7.39c0.49-1.77,0.89-3.84,0.97-5.27C28.3,8.96,25.02,3.41,18.21,3.41z"/>
<path class="st9" d="M18.21,22.96c-1.6-0.7-1.61-0.03-4.07,0.14c0.92,1.05,1.61,2.4,4.07,2.4c2.83,0,3.31-1.53,4.08-2.4
	C19.82,22.93,19.81,22.26,18.21,22.96z"/>
<path class="st10" d="M14.88,23.36c1.61,1.67,5.08,1.65,6.67,0C19.07,23.63,17.35,23.63,14.88,23.36z"/>
<path class="st11" d="M25.45,13.71c-1.48-0.88-4.13-0.99-5.18-0.39c-0.22,0.12-0.16,0.76,0.03,0.68c1.5-0.62,3.78-0.65,5.19,0.07
	C25.67,14.17,25.67,13.84,25.45,13.71z"/>
<path class="st11" d="M10.97,13.71c1.48-0.88,4.13-0.99,5.19-0.39c0.22,0.12,0.16,0.76-0.03,0.68c-1.5-0.62-3.78-0.66-5.19,0.07
	C10.75,14.17,10.75,13.84,10.97,13.71z"/>
<path class="st12" d="M19.74,20.7c-0.16-0.11-0.54,0.06-1.53,0.06c-0.99,0-1.37-0.17-1.53-0.06c-0.19,0.14,0.12,0.75,1.53,0.75
	S19.94,20.84,19.74,20.7z"/>
<path id="Path_954_" class="st10" d="M16.7,16.39c0.06,0.45-0.25,0.99-1.1,1.39c-0.54,0.25-1.66,0.55-3.13-0.07
	c-0.66-0.28-1.3-1.14-1.24-1.62C12.03,14.58,15.95,14.36,16.7,16.39z"/>
<linearGradient id="Oval_1_" gradientUnits="userSpaceOnUse" x1="-426.287" y1="479.5401" x2="-426.287" y2="480.0093" gradientTransform="matrix(6.5701 0 0 -6.5701 2814.7817 3168.5269)">
	<stop  offset="0" style="stop-color:#A6694A"/>
	<stop  offset="1" style="stop-color:#4F2A1E"/>
</linearGradient>
<path id="Oval_146_" class="st13" d="M14.03,14.82c0.85,0,1.54,0.69,1.54,1.54c0,0.85-0.69,1.54-1.54,1.54
	c-0.85,0-1.54-0.69-1.54-1.54C12.49,15.51,13.18,14.82,14.03,14.82z"/>
<path id="Path_953_" class="st14" d="M13.26,16.33c0,1.07,1.54,1.07,1.54,0C14.81,15.34,13.26,15.34,13.26,16.33z"/>
<path id="Path_952_" class="st15" d="M13.03,15.9c0,0.45,0.65,0.45,0.65,0C13.67,15.49,13.03,15.49,13.03,15.9z"/>
<path id="Path_951_" class="st16" d="M16.7,16.45c-0.63-2.01-4.89-1.71-5.48-0.36C11.44,14.35,16.17,13.9,16.7,16.45z"/>
<path id="Path_950_" class="st10" d="M19.73,16.39c-0.06,0.45,0.25,0.99,1.09,1.39c0.54,0.25,1.66,0.55,3.13-0.07
	c0.66-0.28,1.3-1.14,1.24-1.62C24.4,14.58,20.47,14.36,19.73,16.39z"/>
<linearGradient id="Oval_2_" gradientUnits="userSpaceOnUse" x1="-427.719" y1="479.5401" x2="-427.719" y2="480.0093" gradientTransform="matrix(6.5701 0 0 -6.5701 2832.5122 3168.5269)">
	<stop  offset="0" style="stop-color:#A6694A"/>
	<stop  offset="1" style="stop-color:#4F2A1E"/>
</linearGradient>
<path id="Oval_145_" class="st17" d="M22.35,14.82c0.85,0,1.54,0.69,1.54,1.54c0,0.85-0.69,1.54-1.54,1.54
	c-0.85,0-1.54-0.69-1.54-1.54C20.81,15.51,21.5,14.82,22.35,14.82z"/>
<path id="Path_949_" class="st14" d="M21.59,16.33c0,1.07,1.54,1.07,1.54,0C23.13,15.34,21.59,15.34,21.59,16.33z"/>
<path id="Path_948_" class="st15" d="M21.35,15.9c0,0.45,0.65,0.45,0.65,0C22,15.49,21.35,15.49,21.35,15.9z"/>
<path id="Path_947_" class="st16" d="M19.72,16.45c0.63-2.01,4.89-1.72,5.47-0.36C24.98,14.35,20.25,13.9,19.72,16.45z"/>
<linearGradient id="SVGID_3_" gradientUnits="userSpaceOnUse" x1="18.211" y1="30.1588" x2="18.211" y2="2.0702">
	<stop  offset="0.05" style="stop-color:#473834"/>
	<stop  offset="0.2266" style="stop-color:#594640"/>
	<stop  offset="0.5197" style="stop-color:#715950"/>
	<stop  offset="0.7" style="stop-color:#7A6056"/>
</linearGradient>
<path class="st18" d="M25.88,4.4c0.78-1.11-5.81-3.46-12.03-1.87C7.63,3.96,4.61,13.26,4.61,19.35c0.54,0.44,3.49-0.66,4.12-1.38
	c0.26-1.07,0.66-2.16,1.04-3.3c4.67-2.7,9.95-3.34,13.61-6.57c-0.47,1.41,2.02,3.18,3.29,6.57c0.41,1.1,0.78,2.2,1.04,3.3
	c1.04,0.95,2.68,1.4,4.11,1.38C31.82,14.2,28.37,3.69,25.88,4.4z"/>
<path class="st4" d="M5.25,18.43c4.3-5.72,18.22-5.34,20.63-14.02C21.2,11.7,6.42,12.93,5.25,18.43z"/>
<path id="Path_946_" class="st8" d="M54.59,14c-1.57,0.19-2.71,5.45-1.72,6.84c0.14,0.19,0.95,0.5,1.55-0.72
	c0.33-0.68,1.29-1.24,1.59-2.65C56.39,15.68,56.15,13.81,54.59,14z"/>
<path id="Path_945_" class="st8" d="M34.28,14c1.57,0.19,2.71,5.45,1.72,6.84c-0.14,0.19-0.95,0.5-1.55-0.72
	c-0.33-0.68-1.29-1.24-1.59-2.65C32.48,15.68,32.71,13.81,34.28,14z"/>
<path id="Path_944_" class="st12" d="M54.54,15.01c-0.41,0.13-0.86,0.75-1.1,1.79c1.43-0.31,1.08,2.08-0.17,2.13
	c0.01,0.24,0.03,0.49,0.06,0.75c0.6-0.87,1.21-0.52,1.81-1.82C55.69,16.68,55.56,14.69,54.54,15.01z"/>
<path id="Path_943_" class="st12" d="M35.42,16.8c-0.24-1.04-0.69-1.66-1.1-1.79c-1.02-0.32-1.15,1.68-0.6,2.85
	c0.6,1.3,1.21,0.95,1.82,1.82c0.03-0.26,0.04-0.51,0.05-0.75C34.36,18.87,34.01,16.51,35.42,16.8z"/>
<path id="Path_942_" class="st8" d="M44.43,3.88c-6.81,0-10.09,5.15-9.68,12.32c0.08,1.44,0.98,6.14,1.82,7.83
	c0.87,1.73,3.75,4.39,5.52,4.94c1.12,0.35,3.57,0.35,4.68,0c1.77-0.55,4.66-3.21,5.52-4.94c0.85-1.69,1.74-6.39,1.82-7.83
	C54.53,9.03,51.25,3.88,44.43,3.88z"/>
<path id="Path_941_" class="st11" d="M51.83,13.47c-1.56-0.82-4.54-0.87-5.65-0.29c-0.24,0.11-0.08,0.89,0.12,0.82
	c1.55-0.61,4.04-0.63,5.49,0.05C51.99,14.14,52.07,13.59,51.83,13.47z"/>
<path id="Path_940_" class="st11" d="M37.03,13.47c1.56-0.82,4.54-0.87,5.65-0.29c0.24,0.11,0.08,0.89-0.12,0.82
	c-1.55-0.61-4.04-0.63-5.49,0.05C36.88,14.14,36.8,13.59,37.03,13.47z"/>
<path id="Path_939_" class="st12" d="M46.27,20.63c-0.19-0.14-0.65,0.07-1.84,0.07c-1.19,0-1.64-0.21-1.84-0.07
	c-0.23,0.16,0.14,0.91,1.84,0.91C46.13,21.53,46.51,20.79,46.27,20.63z"/>
<path id="Path_938_" class="st12" d="M44.43,23.44c-1.53-0.45-3.8,0.21-3.8,0.21c0.86,0.94,1.5,2.16,3.8,2.16
	c2.64,0,3.09-1.39,3.8-2.16C48.24,23.65,45.96,22.98,44.43,23.44z"/>
<path id="Path_937_" class="st10" d="M41.2,23.81c1.61,1.35,4.85,1.36,6.46,0C45.96,23.88,42.93,23.88,41.2,23.81z"/>
<path id="Path_936_" class="st10" d="M42.92,16.28c0.06,0.45-0.25,0.99-1.1,1.39c-0.54,0.25-1.66,0.55-3.13-0.07
	c-0.66-0.28-1.3-1.14-1.25-1.62C38.25,14.48,42.17,14.26,42.92,16.28z"/>
<linearGradient id="Oval_3_" gradientUnits="userSpaceOnUse" x1="-437.8953" y1="479.556" x2="-437.8953" y2="480.0254" gradientTransform="matrix(6.5701 0 0 -6.5701 2917.27 3168.5269)">
	<stop  offset="0" style="stop-color:#A6694A"/>
	<stop  offset="1" style="stop-color:#4F2A1E"/>
</linearGradient>
<path id="Oval_138_" class="st19" d="M40.26,14.71c0.85,0,1.54,0.69,1.54,1.54c0,0.85-0.69,1.54-1.54,1.54
	c-0.85,0-1.54-0.69-1.54-1.54C38.71,15.4,39.4,14.71,40.26,14.71z"/>
<path id="Path_886_" class="st14" d="M39.48,16.23c0,1.07,1.54,1.07,1.54,0C41.03,15.24,39.48,15.24,39.48,16.23z"/>
<path id="Path_885_" class="st15" d="M39.25,15.79c0,0.45,0.65,0.45,0.65,0C39.9,15.38,39.25,15.38,39.25,15.79z"/>
<path id="Path_884_" class="st12" d="M42.93,16.34c-0.63-2.01-4.9-1.72-5.48-0.36C37.67,14.25,42.39,13.79,42.93,16.34z"/>
<path id="Path_883_" class="st10" d="M45.95,16.28c-0.06,0.45,0.25,0.99,1.09,1.39c0.54,0.25,1.66,0.55,3.13-0.07
	c0.66-0.28,1.3-1.14,1.24-1.62C50.62,14.48,46.7,14.26,45.95,16.28z"/>
<linearGradient id="Oval_4_" gradientUnits="userSpaceOnUse" x1="-439.3272" y1="479.556" x2="-439.3272" y2="480.0254" gradientTransform="matrix(6.5701 0 0 -6.5701 2935.0005 3168.5269)">
	<stop  offset="0" style="stop-color:#A6694A"/>
	<stop  offset="1" style="stop-color:#4F2A1E"/>
</linearGradient>
<path id="Oval_137_" class="st20" d="M48.58,14.71c0.85,0,1.54,0.69,1.54,1.54c0,0.85-0.69,1.54-1.54,1.54
	c-0.85,0-1.54-0.69-1.54-1.54C47.04,15.4,47.73,14.71,48.58,14.71z"/>
<path id="Path_882_" class="st14" d="M47.81,16.23c0,1.07,1.54,1.07,1.54,0C49.35,15.24,47.81,15.24,47.81,16.23z"/>
<path id="Path_881_" class="st15" d="M47.57,15.79c0,0.45,0.65,0.45,0.65,0C48.22,15.38,47.57,15.38,47.57,15.79z"/>
<path id="Path_880_" class="st12" d="M45.94,16.34c0.63-2.01,4.89-1.72,5.47-0.36C51.2,14.25,46.48,13.79,45.94,16.34z"/>
<path class="st21" d="M53.13,5.59C51.64,3.57,48.91,2,44.43,2c-4.48,0-7.21,1.57-8.7,3.59C33.63,8.44,55.24,8.44,53.13,5.59z"/>
<linearGradient id="SVGID_4_" gradientUnits="userSpaceOnUse" x1="-58.0581" y1="17.958" x2="-58.0581" y2="4.7304" gradientTransform="matrix(1 0 0 1 102.4922 0)">
	<stop  offset="0.5" style="stop-color:#473834"/>
	<stop  offset="0.6387" style="stop-color:#503F3A"/>
	<stop  offset="0.8641" style="stop-color:#68524A"/>
	<stop  offset="1" style="stop-color:#7A6056"/>
</linearGradient>
<path class="st22" d="M53.13,5.59c-1.49-2.02-4.22,0.17-8.7,0.17c-4.48,0-7.21-2.19-8.7-0.17c-2.11,2.86-1.39,12.37-0.45,12.37
	c0.15,0,0.17-3.33,0.45-5.63c0.23-1.88,0.68-3.69,1.19-3.99c1.56-0.91,4.58,0.39,7.51,0.39c2.93,0,5.95-1.3,7.51-0.39
	c0.51,0.3,0.96,2.12,1.19,3.99c0.28,2.3,0.3,5.63,0.46,5.63C54.53,17.96,55.24,8.44,53.13,5.59z"/>
<path class="st23" d="M32.09,62h-0.18C31.97,62,32.03,62,32.09,62z"/>
<path class="st24" d="M35.39,52.72l-7.79,0.01c0,0-4.09,1.33-4.94,2.42c-1.19,1.52-1.73,5.41-1.87,6.54
	C24.25,61.89,28.07,62,31.91,62h0.18c3.47,0,6.93-0.09,10.11-0.26c-0.12-1.05-0.65-5.05-1.85-6.59
	C39.5,54.06,35.39,52.72,35.39,52.72z"/>
<path class="st25" d="M27.6,52.73c0,3.24,7.79,3.23,7.79-0.01l-0.78-0.27h-6.2L27.6,52.73z"/>
<path class="st3" d="M28.16,52.54c0,2.54,6.68,2.54,6.68,0c0-0.86,0-2.81,0-2.81h-6.68C28.16,49.73,28.16,51.67,28.16,52.54z"/>
<path class="st25" d="M24.63,61.87l-0.3-0.01C24.33,58.18,24.63,58.19,24.63,61.87z"/>
<path class="st25" d="M38.66,61.89l-0.3,0.01C38.36,58.23,38.66,58.21,38.66,61.89z"/>
<path id="Path_879_" class="st8" d="M22.94,42.11c1.07,0.13,1.83,3.73,1.17,4.68c-0.1,0.13-0.64,0.35-1.05-0.49
	c-0.23-0.46-0.88-0.85-1.08-1.81C21.72,43.26,21.88,41.98,22.94,42.11z"/>
<path id="Path_878_" class="st12" d="M22.97,42.8c0.28,0.09,0.58,0.52,0.75,1.23c-0.97-0.21-0.73,1.42,0.12,1.45
	c-0.01,0.16-0.02,0.33-0.04,0.51c-0.41-0.6-0.82-0.36-1.23-1.24C22.19,43.94,22.28,42.58,22.97,42.8z"/>
<path id="Path_877_" class="st8" d="M40.05,42.11c-1.06,0.13-1.83,3.73-1.16,4.68c0.09,0.13,0.64,0.35,1.05-0.49
	c0.22-0.46,0.88-0.85,1.08-1.81C41.27,43.26,41.11,41.98,40.05,42.11z"/>
<path id="Path_876_" class="st12" d="M39.28,44.02c0.16-0.71,0.47-1.14,0.74-1.22c0.69-0.22,0.78,1.15,0.41,1.95
	c-0.41,0.89-0.82,0.65-1.23,1.24c-0.02-0.18-0.03-0.35-0.04-0.51C40,45.44,40.24,43.82,39.28,44.02z"/>
<path class="st8" d="M31.5,32.86c-5.82,0-8.63,4.4-8.28,10.53c0.07,1.23,0.83,4.05,1.56,5.49c1.27,2.54,4.6,4.44,6.72,4.44
	c2.12,0,5.45-1.9,6.72-4.44c0.72-1.44,1.49-4.26,1.56-5.49C40.12,37.26,37.32,32.86,31.5,32.86z"/>
<path id="Path_875_" class="st12" d="M32.85,46.83c-0.14-0.1-0.48,0.05-1.36,0.05c-0.88,0-1.21-0.15-1.36-0.05
	c-0.17,0.12,0.1,0.67,1.36,0.67C32.75,47.5,33.02,46.95,32.85,46.83z"/>
<path id="Path_874_" class="st12" d="M31.5,48.78c-1.31-0.39-3.26,0.18-3.26,0.18c0.74,0.81,1.28,1.85,3.26,1.85
	c2.26,0,2.65-1.19,3.26-1.85C34.75,48.96,32.81,48.39,31.5,48.78z"/>
<path id="Path_873_" class="st10" d="M28.73,49.1c1.38,1.15,4.15,1.16,5.54,0C32.8,49.16,30.2,49.16,28.73,49.1z"/>
<path id="Path_872_" class="st10" d="M30.24,43.83c0.05,0.37-0.2,0.82-0.91,1.15c-0.45,0.21-1.37,0.46-2.59-0.05
	c-0.54-0.23-1.08-0.95-1.03-1.34C26.37,42.34,29.62,42.15,30.24,43.83z"/>
<linearGradient id="Oval_5_" gradientUnits="userSpaceOnUse" x1="-424.156" y1="475.4026" x2="-424.156" y2="475.7915" gradientTransform="matrix(6.5701 0 0 -6.5701 2814.7817 3168.5269)">
	<stop  offset="0" style="stop-color:#A6694A"/>
	<stop  offset="1" style="stop-color:#4F2A1E"/>
</linearGradient>
<path id="Oval_136_" class="st26" d="M28.03,42.53c0.7,0,1.28,0.57,1.28,1.28c0,0.7-0.57,1.28-1.28,1.28
	c-0.71,0-1.28-0.57-1.28-1.28C26.76,43.1,27.33,42.53,28.03,42.53z"/>
<path id="Path_871_" class="st14" d="M27.4,43.78c0,0.88,1.28,0.88,1.28,0C28.67,42.96,27.4,42.96,27.4,43.78z"/>
<path id="Path_793_" class="st15" d="M27.2,43.43c0,0.37,0.54,0.37,0.54,0C27.74,43.08,27.2,43.08,27.2,43.43z"/>
<path id="Path_792_" class="st12" d="M30.25,43.88c-0.52-1.67-4.05-1.42-4.54-0.3C25.89,42.15,29.8,41.77,30.25,43.88z"/>
<path id="Path_791_" class="st10" d="M32.75,43.83c-0.05,0.37,0.21,0.82,0.91,1.15c0.45,0.21,1.37,0.46,2.59-0.05
	c0.55-0.23,1.08-0.95,1.03-1.34C36.62,42.34,33.37,42.15,32.75,43.83z"/>
<linearGradient id="Oval_6_" gradientUnits="userSpaceOnUse" x1="-425.8055" y1="475.4026" x2="-425.8055" y2="475.7915" gradientTransform="matrix(6.5701 0 0 -6.5701 2832.5122 3168.5269)">
	<stop  offset="0" style="stop-color:#A6694A"/>
	<stop  offset="1" style="stop-color:#4F2A1E"/>
</linearGradient>
<path id="Oval_135_" class="st27" d="M34.93,42.53c0.71,0,1.28,0.57,1.28,1.28c0,0.7-0.57,1.28-1.28,1.28
	c-0.71,0-1.28-0.57-1.28-1.28C33.65,43.1,34.22,42.53,34.93,42.53z"/>
<path id="Path_790_" class="st14" d="M34.29,43.78c0,0.88,1.28,0.88,1.28,0C35.57,42.96,34.29,42.96,34.29,43.78z"/>
<path id="Path_789_" class="st15" d="M34.09,43.43c0,0.37,0.54,0.37,0.54,0C34.63,43.08,34.09,43.08,34.09,43.43z"/>
<path id="Path_788_" class="st12" d="M32.75,43.88c0.52-1.67,4.05-1.43,4.54-0.3C37.1,42.15,33.19,41.77,32.75,43.88z"/>
<path id="Path_787_" class="st12" d="M37.36,41.84c-1.1-0.69-3.31-0.89-4.18-0.54c-0.19,0.07-0.13,0.65,0.03,0.61
	c1.2-0.36,3.05-0.22,4.08,0.36C37.43,42.34,37.53,41.94,37.36,41.84z"/>
<path id="Path_786_" class="st12" d="M25.63,41.84c1.1-0.69,3.31-0.89,4.18-0.54c0.19,0.07,0.13,0.65-0.03,0.61
	c-1.2-0.36-3.05-0.22-4.08,0.36C25.56,42.34,25.46,41.94,25.63,41.84z"/>
<linearGradient id="SVGID_5_" gradientUnits="userSpaceOnUse" x1="31.4943" y1="45.4199" x2="31.4943" y2="31.6543">
	<stop  offset="0" style="stop-color:#473834"/>
	<stop  offset="0.2717" style="stop-color:#594640"/>
	<stop  offset="0.7226" style="stop-color:#715950"/>
	<stop  offset="1" style="stop-color:#7A6056"/>
</linearGradient>
<path class="st28" d="M31.49,32.46c-0.53,0-1.01,0.03-1.48,0.08c0.2-0.2,0.44-0.36,0.77-0.42c-0.69-0.19-1.47-0.1-2.07,0.35
	c-0.13-0.22-0.18-0.49-0.05-0.81c-0.85,0.51-1.01,1.13-1.01,1.13c-0.24-0.39-0.25-0.9-0.25-0.9s-0.91,0.64-0.78,1.58
	c-0.81-0.35-1.5,0.06-1.5,0.06s0.4,0.17,0.59,0.53c-4.55,3.31-3,10.66-2.13,11.36c0,0,0.26-5.49,2.57-7.13
	c-0.13,1.04-0.4,1.77-0.4,1.77s2.28-0.36,4.28-1.64c-0.23,1.15-0.86,1.96-0.86,1.96s4.14-0.58,5.37-2.52c0,0,0.81,1.71,2.82,2.93
	c0,0,0.13-1.28-0.15-2.18c1.97,1.93,2.2,6.8,2.2,6.8C40.55,44.38,42.8,32.46,31.49,32.46z"/>
<path class="st4" d="M37.06,37.75l0.2,1.13c0,0,1.68,2.19,2.13,6.53C39.61,40.73,37.06,37.75,37.06,37.75z"/>
<path class="st4" d="M36.84,37.33c0,0,1.23,1.53,0.51,3.46C37.44,39.28,36.84,37.33,36.84,37.33z"/>
<path class="st4" d="M34.81,36.79c0.27,3.93-5.69,3.6-5.64,3.59C29.17,40.38,34.29,39.4,34.81,36.79z"/>
<path class="st4" d="M31.22,37.14c-1.12,3.17-5.23,2.89-5.47,2.92C25.75,40.06,29.42,38.99,31.22,37.14z"/>
<path class="st4" d="M26.49,37.88c-2.68,3.13-2.92,7.54-2.92,7.54S22.87,40.69,26.49,37.88z"/>
<path class="st3" d="M59.49,45.08c-0.04-1.62-0.14-4.79-0.14-4.79s-2.86,1.68-6.19,1.81c0.12,1.82,0.39,2.98,0.39,2.98
	c-3.16,1.11-9.14,6.84-11.64,7.64c-1.76,0.56-3.59-0.2-4.59,0.77c0.78,0.36,1.09,0.48,1.09,0.48c0.97,1.18-3.68,2.92-2.19,4.03
	c0.57,0.57,2.51,2.37,5.44-0.94c0.23-0.26,1.41-1.54,2.2-1.71c2.06-0.43,11.57-3.86,14.95-6.48C59.33,48.48,59.53,46.44,59.49,45.08
	z"/>
<path class="st12" d="M38.97,56.06c0,0-1.77,1.02-2.73,1.94C37.56,57.12,38.97,56.06,38.97,56.06z"/>
<path class="st12" d="M39.87,56.47c0,0-2,1.32-2.89,2.14C38.36,57.81,39.87,56.47,39.87,56.47z"/>
<path class="st12" d="M40.53,57.14c0,0-1.73,1.19-2.72,1.8C38.73,58.73,40.53,57.14,40.53,57.14z"/>
<path class="st3" d="M5.96,31.72c1.24-1.67,2.63-2.09,2.63-2.09C7.94,41.01,9.42,45.35,9.42,45.35c3,2.08,8.94,6.64,11.44,7.44
	c1.76,0.56,3.8-0.26,4.8,0.71c-0.78,0.36-1.09,0.48-1.09,0.48c-0.97,1.18,3.68,2.92,2.19,4.03c-0.57,0.57-2.51,2.37-5.44-0.94
	c-0.23-0.26-1.49-1.32-2.2-1.71c-2.23-1.23-10.09-4.17-13.47-6.79c-0.45-0.35-1.15-1.58-1.15-2.64C4.5,42.24,4.61,33.54,5.96,31.72z
	"/>
<path class="st12" d="M24.02,56.06c0,0,1.77,1.02,2.73,1.94C25.43,57.12,24.02,56.06,24.02,56.06z"/>
<path class="st12" d="M23.12,56.47c0,0,2,1.32,2.89,2.14C24.63,57.81,23.12,56.47,23.12,56.47z"/>
<path class="st12" d="M22.46,57.14c0,0,1.73,1.19,2.72,1.8C24.26,58.73,22.46,57.14,22.46,57.14z"/>
</svg>
