<?xml version="1.0" encoding="utf-8"?>
<!-- Generator: Adobe Illustrator 15.0.0, SVG Export Plug-In . SVG Version: 6.00 Build 0)  -->
<!DOCTYPE svg PUBLIC "-//W3C//DTD SVG 1.1//EN" "http://www.w3.org/Graphics/SVG/1.1/DTD/svg11.dtd" [
	<!ENTITY ns_flows "http://ns.adobe.com/Flows/1.0/">
	<!ENTITY ns_extend "http://ns.adobe.com/Extensibility/1.0/">
	<!ENTITY ns_ai "http://ns.adobe.com/AdobeIllustrator/10.0/">
	<!ENTITY ns_graphs "http://ns.adobe.com/Graphs/1.0/">
]>
<svg version="1.1" id="Layer_1" xmlns:x="&ns_extend;" xmlns:i="&ns_ai;" xmlns:graph="&ns_graphs;"
	 xmlns="http://www.w3.org/2000/svg" xmlns:xlink="http://www.w3.org/1999/xlink" xmlns:a="http://ns.adobe.com/AdobeSVGViewerExtensions/3.0/"
	 x="0px" y="0px" width="64px" height="64px" viewBox="0 0 64 64" enable-background="new 0 0 64 64" xml:space="preserve">
<linearGradient id="SVGID_1_" gradientUnits="userSpaceOnUse" x1="32.6646" y1="62" x2="32.6646" y2="43.7754">
	<stop  offset="0" style="stop-color:#45332C"/>
	<stop  offset="1" style="stop-color:#594640"/>
	<a:midPointStop  offset="0" style="stop-color:#45332C"/>
	<a:midPointStop  offset="0.5" style="stop-color:#45332C"/>
	<a:midPointStop  offset="1" style="stop-color:#594640"/>
</linearGradient>
<path fill="url(#SVGID_1_)" d="M57.003,60.29c-5.57,0-49.102-16.515-49.102-16.515L9.426,62h6.344c0,0,0.113-8.91,0.969-11.582
	C23.864,50.418,27.376,62,34.5,62c5.136,0,17.379,0,22.503,0C57.569,62,57.569,60.29,57.003,60.29z"/>
<path fill="#45332C" d="M7.901,43.775L9.426,62h3.302c0,0-0.375-6.414,0.195-12.742C24.011,47.605,32.7,60.253,34.5,60.253
	C23.763,45.435,7.901,43.775,7.901,43.775z"/>
<radialGradient id="SVGID_2_" cx="32.6177" cy="26.3989" r="28.9491" gradientTransform="matrix(1.0141 0 0 1 2.4825 0)" gradientUnits="userSpaceOnUse">
	<stop  offset="0" style="stop-color:#BF7C60"/>
	<stop  offset="0.3715" style="stop-color:#BC7A5E"/>
	<stop  offset="0.6674" style="stop-color:#B27459"/>
	<stop  offset="0.9365" style="stop-color:#A16951"/>
	<stop  offset="1" style="stop-color:#9C664E"/>
	<a:midPointStop  offset="0" style="stop-color:#BF7C60"/>
	<a:midPointStop  offset="0.7515" style="stop-color:#BF7C60"/>
	<a:midPointStop  offset="1" style="stop-color:#9C664E"/>
</radialGradient>
<path fill="url(#SVGID_2_)" d="M55.196,50.326c-15.436-5.492-23.712-11.039-23.712-34.153C31.484,9.09,32.379,2,32.379,2
	C19.33,2,6.014,6,6.014,6C12.06,26.025,5,29.427,5,38.342c0,5.347,3.886,9.973,10.931,9.973c9.046,0,12.998,11.976,18.757,11.976
	c5.05,0,19.66,0,22.314,0C58.708,60.29,61.211,52.465,55.196,50.326z"/>
<polygon fill="#594640" points="16.154,32 14.126,32 14.126,4.036 16.154,3.642 "/>
<path fill="#E6EBEF" d="M16.175,8.145l-0.332-2.481c-0.104-0.789-1.299-0.8-1.41-0.012l-0.33,2.476
	C13.918,9.521,16.361,9.54,16.175,8.145z M14.493,8.409l0.128-1.381l1.033,0.01l0.134,1.383C15.754,8.53,14.524,8.521,14.493,8.409z
	"/>
<polygon fill="#B3C2C6" points="15.534,6.305 14.745,6.297 14.744,4.346 15.534,4.353 "/>
</svg>
