<?xml version="1.0" encoding="utf-8"?>
<!-- Generator: Adobe Illustrator 15.0.0, SVG Export Plug-In . SVG Version: 6.00 Build 0)  -->
<!DOCTYPE svg PUBLIC "-//W3C//DTD SVG 1.1//EN" "http://www.w3.org/Graphics/SVG/1.1/DTD/svg11.dtd" [
	<!ENTITY ns_flows "http://ns.adobe.com/Flows/1.0/">
	<!ENTITY ns_extend "http://ns.adobe.com/Extensibility/1.0/">
	<!ENTITY ns_ai "http://ns.adobe.com/AdobeIllustrator/10.0/">
	<!ENTITY ns_graphs "http://ns.adobe.com/Graphs/1.0/">
]>
<svg version="1.1" id="Layer_1" xmlns:x="&ns_extend;" xmlns:i="&ns_ai;" xmlns:graph="&ns_graphs;"
	 xmlns="http://www.w3.org/2000/svg" xmlns:xlink="http://www.w3.org/1999/xlink" xmlns:a="http://ns.adobe.com/AdobeSVGViewerExtensions/3.0/"
	 x="0px" y="0px" width="64px" height="64px" viewBox="0 0 64 64" enable-background="new 0 0 64 64" xml:space="preserve">
<path fill="#473834" d="M41.656,22.365c4.863-1.943,4.377-6.563,4.377-6.563H32.418c0,0-0.488,4.619,4.375,6.563
	c0,0,0.973,0.244,2.432,0.244S41.656,22.365,41.656,22.365z"/>
<linearGradient id="SVGID_1_" gradientUnits="userSpaceOnUse" x1="44.0879" y1="22.6074" x2="44.0879" y2="8.0597">
	<stop  offset="0.05" style="stop-color:#473834"/>
	<stop  offset="0.2266" style="stop-color:#594640"/>
	<stop  offset="0.5197" style="stop-color:#715950"/>
	<stop  offset="0.7" style="stop-color:#7A6056"/>
	<a:midPointStop  offset="0.05" style="stop-color:#473834"/>
	<a:midPointStop  offset="0.4" style="stop-color:#473834"/>
	<a:midPointStop  offset="0.7" style="stop-color:#7A6056"/>
</linearGradient>
<path fill="url(#SVGID_1_)" d="M44.141,16.295c0.498,2.094,0.236,4.166-2.484,6.07c2.918-0.484,4.863-3.24,4.863-5.355
	L44.141,16.295z"/>
<linearGradient id="SVGID_2_" gradientUnits="userSpaceOnUse" x1="1746.4521" y1="22.6074" x2="1746.4521" y2="8.0597" gradientTransform="matrix(-1 0 0 1 1780.8145 0)">
	<stop  offset="0.05" style="stop-color:#473834"/>
	<stop  offset="0.2266" style="stop-color:#594640"/>
	<stop  offset="0.5197" style="stop-color:#715950"/>
	<stop  offset="0.7" style="stop-color:#7A6056"/>
	<a:midPointStop  offset="0.05" style="stop-color:#473834"/>
	<a:midPointStop  offset="0.4" style="stop-color:#473834"/>
	<a:midPointStop  offset="0.7" style="stop-color:#7A6056"/>
</linearGradient>
<path fill="url(#SVGID_2_)" d="M34.309,16.295c-0.498,2.094-0.234,4.166,2.486,6.07c-2.918-0.484-4.865-3.24-4.865-5.355
	L34.309,16.295z"/>
<path fill="#302C3B" d="M55.463,52.668c-3.777-2.395-1.158-5.275,0.465-4.266C63.18,52.904,59.289,55.098,55.463,52.668z"/>
<path fill="#302C3B" d="M39.836,61.898c-1.518-0.572,0.242-2.225-0.318-4.396c-1.098-4.244,2.68-3.984,3.129-1.969
	C43.615,59.854,41.604,62.568,39.836,61.898z"/>
<path fill="#F5BB51" d="M41.857,55.764c-0.275-5.256,1.092-6.002-0.881-9.502c1.031-3.094,0.508-4.852,0.508-4.852l-4.914-4.408
	c0,0,0.303,8.127,1.25,11.135c1.158,3.705,1.875,8.033,1.875,8.033C39.795,58.346,41.984,58.129,41.857,55.764z"/>
<path fill="#F5BB51" d="M33.066,29.539l1.227-2.266l-2.182-2.012c-2.604,4.348-2.549,4.598-1.834,5.469l5.977,3.959l-0.016-2.57
	L33.066,29.539z"/>
<path fill="#F5BB51" d="M46.5,28.363l-1.066-1.186l2.133-2.4c2.678,3.238,3.23,3.82,1.992,5.186l-5.455,3.84l-1.369-1.912
	L46.5,28.363z"/>
<path fill="#302C3B" d="M43.566,32.5c-1.02-0.75-1.109-4.6,0.186-6.166l1.771,1.18l2.42-2.658c0,0-1.627-1.807-2.814-2.82
	c-2.109-1.801-8.725-1.443-10.684,0.197c-1.195,1-2.916,3.602-2.916,3.602l2.715,1.766l0.391-0.51
	c1.936,5.484,0.535,7.619,1.957,10.398c0.02-1.074,1.742,4.383,5.547,4.383C44.258,41.871,49.502,36.848,43.566,32.5z"/>
<path fill="#F5BB51" d="M56.059,49.643c-3.588-3.477-3.082-5.236-6.855-6.021c-1.121-6.053-4.996-9.236-4.996-9.236
	c-2.705,3.559-1.803,6.66-1.803,6.66s3.063,5.135,5.727,6.461c3.281,1.623,6.615,4.072,6.615,4.072
	C56.219,53.031,57.676,51.211,56.059,49.643z"/>
<path fill="#F5BB51" d="M37.115,22.113c0,0,0.664,0.908,2.109,0.908c1.447,0,2.111-0.908,2.111-0.908v-2.578h-4.221V22.113z"/>
<path fill="#FFC940" d="M39.225,8.75c-3.527,0-5.229,2.873-5.016,6.568c0.043,0.744,0.25,1.814,0.506,2.732
	c0.529,1.908,3.32,3.83,4.51,3.83s3.982-1.922,4.512-3.83c0.254-0.918,0.461-1.988,0.506-2.732
	C44.453,11.623,42.754,8.75,39.225,8.75z"/>
<path fill="#D47706" d="M39.225,18.879c-0.826-0.361-0.834-0.014-2.109,0.072c0.479,0.545,0.832,1.244,2.109,1.244
	c1.467,0,1.715-0.795,2.111-1.244C40.057,18.865,40.053,18.518,39.225,18.879z"/>
<path fill="#FFFFFF" d="M37.498,19.088c0.834,0.867,2.631,0.855,3.453,0C39.668,19.227,38.781,19.227,37.498,19.088z"/>
<path fill="#966F42" d="M42.975,14.09c-0.768-0.457-2.143-0.514-2.686-0.203c-0.115,0.064-0.084,0.393,0.016,0.352
	c0.775-0.322,1.957-0.338,2.688,0.037C43.088,14.324,43.092,14.156,42.975,14.09z"/>
<path fill="#966F42" d="M35.475,14.09c0.768-0.457,2.143-0.514,2.688-0.203c0.115,0.064,0.084,0.393-0.016,0.352
	c-0.777-0.322-1.957-0.338-2.688,0.037C35.361,14.324,35.359,14.156,35.475,14.09z"/>
<path fill="#F0A429" d="M40.02,17.707c-0.086-0.059-0.281,0.033-0.795,0.033c-0.512,0-0.709-0.092-0.793-0.033
	c-0.1,0.072,0.059,0.393,0.793,0.393S40.119,17.779,40.02,17.707z"/>
<path id="Path_2370_" fill="#FFFFFF" d="M38.439,15.477c0.031,0.232-0.127,0.51-0.566,0.717c-0.279,0.133-0.859,0.287-1.621-0.035
	c-0.342-0.143-0.674-0.59-0.645-0.84C36.021,14.541,38.053,14.426,38.439,15.477z"/>
<linearGradient id="Oval_1_" gradientUnits="userSpaceOnUse" x1="-422.7817" y1="479.79" x2="-422.7817" y2="480.0332" gradientTransform="matrix(6.5701 0 0 -6.5701 2814.7805 3168.5281)">
	<stop  offset="0" style="stop-color:#A6694A"/>
	<stop  offset="1" style="stop-color:#4F2A1E"/>
	<a:midPointStop  offset="0" style="stop-color:#A6694A"/>
	<a:midPointStop  offset="0.5" style="stop-color:#A6694A"/>
	<a:midPointStop  offset="1" style="stop-color:#4F2A1E"/>
</linearGradient>
<circle id="Oval_282_" fill="url(#Oval_1_)" cx="37.061" cy="15.459" r="0.799"/>
<path id="Path_2369_" fill="#1A1626" d="M36.662,15.445c0,0.553,0.799,0.553,0.799,0C37.461,14.932,36.662,14.932,36.662,15.445z"/>
<path id="Path_2368_" fill="#AB968C" d="M36.541,15.221c0,0.232,0.334,0.232,0.334,0C36.875,15.008,36.541,15.008,36.541,15.221z"/>
<path id="Path_2367_" fill="#45332C" d="M38.445,15.506c-0.326-1.043-2.537-0.889-2.838-0.188
	C35.719,14.422,38.168,14.184,38.445,15.506z"/>
<path id="Path_2366_" fill="#FFFFFF" d="M40.01,15.477c-0.029,0.232,0.129,0.51,0.568,0.717c0.277,0.133,0.859,0.287,1.621-0.035
	c0.342-0.143,0.674-0.59,0.645-0.84C42.43,14.541,40.396,14.426,40.01,15.477z"/>
<linearGradient id="Oval_2_" gradientUnits="userSpaceOnUse" x1="-424.8247" y1="479.79" x2="-424.8247" y2="480.0332" gradientTransform="matrix(6.5701 0 0 -6.5701 2832.511 3168.5281)">
	<stop  offset="0" style="stop-color:#A6694A"/>
	<stop  offset="1" style="stop-color:#4F2A1E"/>
	<a:midPointStop  offset="0" style="stop-color:#A6694A"/>
	<a:midPointStop  offset="0.5" style="stop-color:#A6694A"/>
	<a:midPointStop  offset="1" style="stop-color:#4F2A1E"/>
</linearGradient>
<path id="Oval_281_" fill="url(#Oval_2_)" d="M41.371,14.66c0.441,0,0.801,0.359,0.801,0.799c0,0.441-0.359,0.799-0.801,0.799
	c-0.439,0-0.799-0.357-0.799-0.799C40.572,15.02,40.932,14.66,41.371,14.66z"/>
<path id="Path_2365_" fill="#1A1626" d="M40.973,15.445c0,0.553,0.799,0.553,0.799,0C41.771,14.932,40.973,14.932,40.973,15.445z"/>
<path id="Path_2364_" fill="#AB968C" d="M40.852,15.221c0,0.232,0.334,0.232,0.334,0C41.186,15.008,40.852,15.008,40.852,15.221z"/>
<path id="Path_2363_" fill="#45332C" d="M40.006,15.506c0.324-1.041,2.535-0.893,2.838-0.188
	C42.73,14.422,40.283,14.184,40.006,15.506z"/>
<linearGradient id="SVGID_3_" gradientUnits="userSpaceOnUse" x1="39.2246" y1="22.6079" x2="39.2246" y2="8.0572">
	<stop  offset="0.05" style="stop-color:#473834"/>
	<stop  offset="0.2266" style="stop-color:#594640"/>
	<stop  offset="0.5197" style="stop-color:#715950"/>
	<stop  offset="0.7" style="stop-color:#7A6056"/>
	<a:midPointStop  offset="0.05" style="stop-color:#473834"/>
	<a:midPointStop  offset="0.4" style="stop-color:#473834"/>
	<a:midPointStop  offset="0.7" style="stop-color:#7A6056"/>
</linearGradient>
<path fill="url(#SVGID_3_)" d="M43.197,9.266c0.402-0.574-3.01-1.789-6.232-0.969c-3.219,0.736-5.035,5.559-5.035,8.713
	c0.289,0.229,2.053-0.34,2.379-0.715c0.133-0.551,0.344-1.121,0.541-1.709c2.416-1.4,5.152-1.729,7.051-3.404
	c-0.244,0.73,1.043,1.65,1.701,3.404c0.213,0.57,0.404,1.141,0.539,1.709c0.537,0.494,1.607,0.727,2.379,0.715
	C46.52,14.342,44.486,8.895,43.197,9.266z"/>
<path fill="#473834" d="M32.51,16.531c2.227-2.965,9.439-2.764,10.688-7.266C40.775,13.043,33.119,13.68,32.51,16.531z"/>
<path fill="#302C3B" d="M43.967,2.004c-0.293-0.102-2.762,1.793-2.836,3.369c-0.086,1.787-0.191,3.074-0.268,3.85
	c-0.75-0.104-2.529-0.1-3.275,0.014c-0.076-0.773-0.182-2.066-0.266-3.863c-0.078-1.576-2.545-3.471-2.84-3.369
	C34.008,2.168,33.152,5,33.959,6.232c1.164,1.771,1.662,2.875,1.877,3.52c-0.666,0.311-1.229,0.732-1.596,1.281
	c3.41-1.213,6.674-1.213,10.084,0c-0.383-0.576-0.982-1.016-1.693-1.328c0.223-0.648,0.721-1.742,1.859-3.473
	C45.299,5,44.443,2.168,43.967,2.004z"/>
<path fill="#473834" d="M15.801,22.365c4.865-1.943,4.377-6.563,4.377-6.563H6.563c0,0-0.486,4.619,4.375,6.563
	c0,0,0.975,0.244,2.432,0.244C14.83,22.609,15.801,22.365,15.801,22.365z"/>
<linearGradient id="SVGID_4_" gradientUnits="userSpaceOnUse" x1="18.2334" y1="22.6074" x2="18.2334" y2="8.0597">
	<stop  offset="0.05" style="stop-color:#473834"/>
	<stop  offset="0.2266" style="stop-color:#594640"/>
	<stop  offset="0.5197" style="stop-color:#715950"/>
	<stop  offset="0.7" style="stop-color:#7A6056"/>
	<a:midPointStop  offset="0.05" style="stop-color:#473834"/>
	<a:midPointStop  offset="0.4" style="stop-color:#473834"/>
	<a:midPointStop  offset="0.7" style="stop-color:#7A6056"/>
</linearGradient>
<path fill="url(#SVGID_4_)" d="M18.287,16.295c0.498,2.094,0.234,4.166-2.486,6.07c2.92-0.484,4.865-3.24,4.865-5.355L18.287,16.295
	z"/>
<linearGradient id="SVGID_5_" gradientUnits="userSpaceOnUse" x1="1772.3066" y1="22.6074" x2="1772.3066" y2="8.0597" gradientTransform="matrix(-1 0 0 1 1780.8145 0)">
	<stop  offset="0.05" style="stop-color:#473834"/>
	<stop  offset="0.2266" style="stop-color:#594640"/>
	<stop  offset="0.5197" style="stop-color:#715950"/>
	<stop  offset="0.7" style="stop-color:#7A6056"/>
	<a:midPointStop  offset="0.05" style="stop-color:#473834"/>
	<a:midPointStop  offset="0.4" style="stop-color:#473834"/>
	<a:midPointStop  offset="0.7" style="stop-color:#7A6056"/>
</linearGradient>
<path fill="url(#SVGID_5_)" d="M8.455,16.295c-0.498,2.094-0.236,4.166,2.484,6.07c-2.918-0.484-4.863-3.24-4.863-5.355
	L8.455,16.295z"/>
<path fill="#302C3B" d="M29.607,52.668c-3.777-2.395-1.158-5.275,0.465-4.266C37.324,52.904,33.434,55.098,29.607,52.668z"/>
<path fill="#302C3B" d="M13.98,61.898c-1.518-0.572,0.242-2.225-0.318-4.396c-1.098-4.244,2.68-3.984,3.129-1.969
	C17.76,59.854,15.748,62.568,13.98,61.898z"/>
<path fill="#F5BB51" d="M16.002,55.764c-0.275-5.256,1.092-6.002-0.881-9.502c1.031-3.094,0.508-4.852,0.508-4.852l-4.914-4.408
	c0,0,0.303,8.127,1.25,11.135c1.158,3.705,1.875,8.033,1.875,8.033C13.939,58.346,16.129,58.129,16.002,55.764z"/>
<path fill="#F5BB51" d="M7.211,29.539l1.227-2.266l-2.182-2.012c-2.604,4.348-2.549,4.598-1.834,5.469l5.977,3.959l-0.016-2.57
	L7.211,29.539z"/>
<path fill="#F5BB51" d="M20.645,28.363l-1.066-1.186l2.133-2.4c2.678,3.238,3.23,3.82,1.992,5.186l-5.455,3.84l-1.369-1.912
	L20.645,28.363z"/>
<path fill="#302C3B" d="M17.711,32.5c-1.02-0.75-1.109-4.6,0.186-6.166l1.771,1.18l2.42-2.658c0,0-1.627-1.807-2.814-2.82
	c-2.109-1.801-8.725-1.443-10.684,0.197c-1.195,1-2.916,3.602-2.916,3.602L8.389,27.6l0.391-0.51
	c1.936,5.484,0.535,7.619,1.957,10.398c0.02-1.074,1.742,4.383,5.547,4.383C18.402,41.871,23.646,36.848,17.711,32.5z"/>
<path fill="#F5BB51" d="M30.203,49.643c-3.588-3.477-3.082-5.236-6.855-6.021c-1.121-6.053-4.996-9.236-4.996-9.236
	c-2.705,3.559-1.803,6.66-1.803,6.66s3.063,5.135,5.727,6.461c3.281,1.623,6.615,4.072,6.615,4.072
	C30.363,53.031,31.82,51.211,30.203,49.643z"/>
<path fill="#F5BB51" d="M11.26,22.113c0,0,0.666,0.908,2.111,0.908s2.109-0.908,2.109-0.908v-2.578H11.26V22.113z"/>
<path fill="#FFC940" d="M13.371,8.75c-3.529,0-5.229,2.873-5.018,6.568c0.045,0.744,0.252,1.814,0.506,2.732
	c0.529,1.908,3.322,3.83,4.512,3.83c1.188,0,3.98-1.922,4.51-3.83c0.256-0.918,0.463-1.988,0.506-2.732
	C18.598,11.623,16.9,8.75,13.371,8.75z"/>
<path fill="#D47706" d="M13.369,18.879c-0.826-0.361-0.832-0.014-2.109,0.072c0.48,0.545,0.832,1.244,2.109,1.244
	c1.467,0,1.715-0.795,2.111-1.244C14.203,18.865,14.197,18.518,13.369,18.879z"/>
<path fill="#FFFFFF" d="M11.643,19.088c0.834,0.867,2.633,0.855,3.455,0C13.814,19.227,12.928,19.227,11.643,19.088z"/>
<path fill="#966F42" d="M17.119,14.09c-0.766-0.457-2.141-0.514-2.684-0.203c-0.117,0.064-0.086,0.393,0.014,0.352
	c0.775-0.322,1.959-0.338,2.688,0.037C17.234,14.324,17.236,14.156,17.119,14.09z"/>
<path fill="#966F42" d="M9.621,14.09c0.766-0.457,2.141-0.514,2.686-0.203c0.115,0.064,0.086,0.393-0.016,0.352
	c-0.775-0.322-1.957-0.338-2.688,0.037C9.506,14.324,9.504,14.156,9.621,14.09z"/>
<path fill="#F0A429" d="M14.164,17.707c-0.084-0.059-0.281,0.033-0.795,0.033c-0.512,0-0.709-0.092-0.793-0.033
	c-0.1,0.072,0.059,0.393,0.793,0.393S14.264,17.779,14.164,17.707z"/>
<path id="Path_2362_" fill="#FFFFFF" d="M12.586,15.477c0.029,0.232-0.129,0.51-0.568,0.717c-0.277,0.133-0.859,0.287-1.621-0.035
	c-0.342-0.143-0.674-0.59-0.645-0.84C10.166,14.541,12.199,14.426,12.586,15.477z"/>
<linearGradient id="Oval_3_" gradientUnits="userSpaceOnUse" x1="-426.7173" y1="479.79" x2="-426.7173" y2="480.0332" gradientTransform="matrix(6.5701 0 0 -6.5701 2814.7805 3168.5281)">
	<stop  offset="0" style="stop-color:#A6694A"/>
	<stop  offset="1" style="stop-color:#4F2A1E"/>
	<a:midPointStop  offset="0" style="stop-color:#A6694A"/>
	<a:midPointStop  offset="0.5" style="stop-color:#A6694A"/>
	<a:midPointStop  offset="1" style="stop-color:#4F2A1E"/>
</linearGradient>
<circle id="Oval_280_" fill="url(#Oval_3_)" cx="11.205" cy="15.459" r="0.799"/>
<path id="Path_2361_" fill="#1A1626" d="M10.807,15.445c0,0.553,0.799,0.553,0.799,0C11.605,14.932,10.807,14.932,10.807,15.445z"/>
<path id="Path_2360_" fill="#AB968C" d="M10.686,15.221c0,0.232,0.334,0.232,0.334,0C11.02,15.008,10.686,15.008,10.686,15.221z"/>
<path id="Path_2359_" fill="#45332C" d="M12.59,15.506c-0.324-1.043-2.537-0.889-2.838-0.188
	C9.865,14.422,12.313,14.184,12.59,15.506z"/>
<path id="Path_2358_" fill="#FFFFFF" d="M14.156,15.477c-0.031,0.232,0.127,0.51,0.566,0.717c0.279,0.133,0.859,0.287,1.621-0.035
	c0.342-0.143,0.674-0.59,0.645-0.84C16.576,14.541,14.543,14.426,14.156,15.477z"/>
<linearGradient id="Oval_4_" gradientUnits="userSpaceOnUse" x1="-428.7598" y1="479.79" x2="-428.7598" y2="480.0332" gradientTransform="matrix(6.5701 0 0 -6.5701 2832.511 3168.5281)">
	<stop  offset="0" style="stop-color:#A6694A"/>
	<stop  offset="1" style="stop-color:#4F2A1E"/>
	<a:midPointStop  offset="0" style="stop-color:#A6694A"/>
	<a:midPointStop  offset="0.5" style="stop-color:#A6694A"/>
	<a:midPointStop  offset="1" style="stop-color:#4F2A1E"/>
</linearGradient>
<circle id="Oval_279_" fill="url(#Oval_4_)" cx="15.518" cy="15.459" r="0.799"/>
<path id="Path_2357_" fill="#1A1626" d="M15.117,15.445c0,0.553,0.799,0.553,0.799,0C15.916,14.932,15.117,14.932,15.117,15.445z"/>
<path id="Path_2356_" fill="#AB968C" d="M14.996,15.221c0,0.232,0.334,0.232,0.334,0C15.33,15.008,14.996,15.008,14.996,15.221z"/>
<path id="Path_2355_" fill="#45332C" d="M14.152,15.506c0.324-1.041,2.533-0.893,2.836-0.188
	C16.875,14.422,14.428,14.184,14.152,15.506z"/>
<linearGradient id="SVGID_6_" gradientUnits="userSpaceOnUse" x1="13.3711" y1="22.6079" x2="13.3711" y2="8.0572">
	<stop  offset="0.05" style="stop-color:#473834"/>
	<stop  offset="0.2266" style="stop-color:#594640"/>
	<stop  offset="0.5197" style="stop-color:#715950"/>
	<stop  offset="0.7" style="stop-color:#7A6056"/>
	<a:midPointStop  offset="0.05" style="stop-color:#473834"/>
	<a:midPointStop  offset="0.4" style="stop-color:#473834"/>
	<a:midPointStop  offset="0.7" style="stop-color:#7A6056"/>
</linearGradient>
<path fill="url(#SVGID_6_)" d="M17.342,9.266c0.402-0.574-3.01-1.789-6.232-0.969c-3.219,0.736-5.033,5.559-5.033,8.713
	c0.287,0.229,2.051-0.34,2.379-0.715c0.133-0.551,0.342-1.121,0.539-1.709c2.416-1.4,5.152-1.729,7.051-3.404
	c-0.244,0.73,1.043,1.65,1.701,3.404c0.215,0.57,0.404,1.141,0.541,1.709c0.537,0.494,1.607,0.727,2.379,0.715
	C20.666,14.342,18.633,8.895,17.342,9.266z"/>
<path fill="#473834" d="M6.654,16.531c2.227-2.965,9.439-2.764,10.688-7.266C14.92,13.043,7.264,13.68,6.654,16.531z"/>
<path fill="#302C3B" d="M18.111,2.004c-0.293-0.102-2.762,1.793-2.836,3.369c-0.086,1.787-0.191,3.074-0.268,3.85
	c-0.75-0.104-2.529-0.1-3.275,0.014c-0.076-0.773-0.182-2.066-0.266-3.863c-0.078-1.576-2.545-3.471-2.84-3.369
	C8.152,2.168,7.297,5,8.104,6.232c1.164,1.771,1.662,2.875,1.877,3.52c-0.666,0.311-1.229,0.732-1.596,1.281
	c3.41-1.213,6.674-1.213,10.084,0c-0.383-0.576-0.982-1.016-1.693-1.328c0.223-0.648,0.721-1.742,1.859-3.473
	C19.443,5,18.588,2.168,18.111,2.004z"/>
</svg>
