<?xml version="1.0" encoding="utf-8"?>
<!-- Generator: Adobe Illustrator 15.0.0, SVG Export Plug-In . SVG Version: 6.00 Build 0)  -->
<!DOCTYPE svg PUBLIC "-//W3C//DTD SVG 1.1//EN" "http://www.w3.org/Graphics/SVG/1.1/DTD/svg11.dtd" [
	<!ENTITY ns_flows "http://ns.adobe.com/Flows/1.0/">
	<!ENTITY ns_extend "http://ns.adobe.com/Extensibility/1.0/">
	<!ENTITY ns_ai "http://ns.adobe.com/AdobeIllustrator/10.0/">
	<!ENTITY ns_graphs "http://ns.adobe.com/Graphs/1.0/">
]>
<svg version="1.1" id="Layer_1" xmlns:x="&ns_extend;" xmlns:i="&ns_ai;" xmlns:graph="&ns_graphs;"
	 xmlns="http://www.w3.org/2000/svg" xmlns:xlink="http://www.w3.org/1999/xlink" xmlns:a="http://ns.adobe.com/AdobeSVGViewerExtensions/3.0/"
	 x="0px" y="0px" width="64px" height="64px" viewBox="0 0 64 64" enable-background="new 0 0 64 64" xml:space="preserve">
<path fill="#BA9757" d="M37.644,34.733c11.422-2.386,12.144-12.709,12.144-12.709l-29.873-5.268c0,0-2.854,9.947,7.062,16.096
	c0,0,2.041,0.911,5.239,1.475C35.417,34.892,37.644,34.733,37.644,34.733z"/>
<linearGradient id="SVGID_1_" gradientUnits="userSpaceOnUse" x1="122.3398" y1="-155.8477" x2="122.3398" y2="-188.264" gradientTransform="matrix(0.9848 0.1736 -0.1736 0.9848 -104.6512 168.4459)">
	<stop  offset="0.05" style="stop-color:#BA9757"/>
	<stop  offset="0.1973" style="stop-color:#C6A265"/>
	<stop  offset="0.5085" style="stop-color:#DBB77D"/>
	<stop  offset="0.7" style="stop-color:#E3BE86"/>
	<a:midPointStop  offset="0.05" style="stop-color:#BA9757"/>
	<a:midPointStop  offset="0.4" style="stop-color:#BA9757"/>
	<a:midPointStop  offset="0.7" style="stop-color:#E3BE86"/>
</linearGradient>
<path fill="url(#SVGID_1_)" d="M45.445,22.374c0.281,4.788-1.098,9.236-7.802,12.359c6.59,0.063,11.924-5.23,12.741-9.868
	L45.445,22.374z"/>
<linearGradient id="SVGID_2_" gradientUnits="userSpaceOnUse" x1="1680.4297" y1="-156.6836" x2="1680.4297" y2="-189.0988" gradientTransform="matrix(-0.9848 -0.1736 -0.1736 0.9848 1649.2357 478.468)">
	<stop  offset="0.05" style="stop-color:#BA9757"/>
	<stop  offset="0.1973" style="stop-color:#C6A265"/>
	<stop  offset="0.5085" style="stop-color:#DBB77D"/>
	<stop  offset="0.7" style="stop-color:#E3BE86"/>
	<a:midPointStop  offset="0.05" style="stop-color:#BA9757"/>
	<a:midPointStop  offset="0.4" style="stop-color:#BA9757"/>
	<a:midPointStop  offset="0.7" style="stop-color:#E3BE86"/>
</linearGradient>
<path fill="url(#SVGID_2_)" d="M23.874,18.571c-1.902,4.402-2.129,9.053,3.104,14.281c-6.215-2.195-9.416-8.992-8.598-13.631
	L23.874,18.571z"/>
<linearGradient id="SVGID_3_" gradientUnits="userSpaceOnUse" x1="33.6494" y1="57.1182" x2="33.6494" y2="39.7277">
	<stop  offset="0" style="stop-color:#5D1E96"/>
	<stop  offset="0.1931" style="stop-color:#6C28AA"/>
	<stop  offset="0.4943" style="stop-color:#7F34C2"/>
	<stop  offset="0.7714" style="stop-color:#8A3BD1"/>
	<stop  offset="1" style="stop-color:#8E3ED6"/>
	<a:midPointStop  offset="0" style="stop-color:#5D1E96"/>
	<a:midPointStop  offset="0.3333" style="stop-color:#5D1E96"/>
	<a:midPointStop  offset="1" style="stop-color:#8E3ED6"/>
</linearGradient>
<path fill="url(#SVGID_3_)" d="M18.964,34.63c1.76-0.946,7.777-3.002,7.777-3.002l13.331-0.025c0,0,6.085,2.075,7.832,3.023
	c2.539,1.376,3.139,3.311,3.527,5.04c0.802,3.558,2.199,11.755,2.471,17.209c-5.224,1.099-40.506-1.764-40.506-3.743
	C13.396,51.355,16.418,35.999,18.964,34.63z"/>
<path fill="#732EB0" d="M26.741,31.628c0,5.631,13.331,5.604,13.331-0.025l-1.198-0.415H28.013L26.741,31.628z"/>
<path fill="#D9B18D" d="M27.795,31.345c0,4.406,11.24,4.406,11.24,0c0-1.5,0-4.875,0-4.875h-11.24
	C27.795,26.47,27.795,29.845,27.795,31.345z"/>
<path fill="#EBC199" d="M37.577,3.923c-7.74-1.365-12.58,4.281-13.544,12.469c-0.192,1.646-0.153,4.077,0.051,6.188
	c0.423,4.391,5.805,9.687,8.414,10.147c2.608,0.459,9.478-2.677,11.378-6.658c0.914-1.914,1.782-4.184,2.166-5.797
	C47.935,12.248,45.32,5.288,37.577,3.923z"/>
<path fill="#C98655" d="M33.657,26.146c-1.673-1.117-1.822-0.353-4.655-0.66c0.84,1.379,1.345,3.051,4.146,3.545
	c3.218,0.566,4.068-1.081,5.112-1.912C35.491,26.438,35.614,25.668,33.657,26.146z"/>
<path fill="#FFFFFF" d="M29.79,25.932c1.492,2.226,5.44,2.894,7.577,1.337C34.499,27.075,32.553,26.731,29.79,25.932z"/>
<path fill="#A88868" d="M43.737,17.085c-1.505-1.298-4.5-1.953-5.813-1.48c-0.276,0.094-0.337,0.83-0.103,0.777
	c1.827-0.408,4.43,0.014,5.882,1.115C43.896,17.643,43.967,17.276,43.737,17.085z"/>
<path fill="#A88868" d="M27.285,14.185c1.858-0.705,4.897-0.297,5.973,0.597c0.229,0.183,0.032,0.896-0.171,0.767
	c-1.578-1.01-4.163-1.504-5.907-0.964C26.945,14.653,27.006,14.286,27.285,14.185z"/>
<path fill="#C99B71" d="M35.853,23.881c-0.162-0.161-0.629-0.04-1.754-0.237c-1.122-0.199-1.521-0.473-1.728-0.377
	c-0.248,0.117-0.02,0.881,1.589,1.164C35.569,24.714,36.047,24.076,35.853,23.881z"/>
<linearGradient id="SVGID_4_" gradientUnits="userSpaceOnUse" x1="111.5078" y1="-155.8481" x2="111.5078" y2="-188.2648" gradientTransform="matrix(0.9848 0.1736 -0.1736 0.9848 -104.6512 168.4459)">
	<stop  offset="0.05" style="stop-color:#BA9757"/>
	<stop  offset="0.1973" style="stop-color:#C6A265"/>
	<stop  offset="0.5085" style="stop-color:#DBB77D"/>
	<stop  offset="0.7" style="stop-color:#E3BE86"/>
	<a:midPointStop  offset="0.05" style="stop-color:#BA9757"/>
	<a:midPointStop  offset="0.4" style="stop-color:#BA9757"/>
	<a:midPointStop  offset="0.7" style="stop-color:#E3BE86"/>
</linearGradient>
<path fill="url(#SVGID_4_)" d="M46.091,6.59c1.106-1.105-5.912-5.092-13.298-4.537C25.446,2.424,19.6,12.302,18.38,19.222
	c0.543,0.613,4.631,0.045,5.494-0.65c0.507-1.159,1.186-2.324,1.844-3.54c5.845-2.136,11.974-1.8,16.787-4.741
	c-0.815,1.508,1.651,4.023,2.417,8.127c0.248,1.332,0.447,2.657,0.523,3.957c0.986,1.291,3.245,2.217,4.939,2.491
	C51.417,19.013,49.064,6.272,46.091,6.59z"/>
<path fill="#BA9757" d="M19.837,18.395C25.868,12.75,41.613,15.98,46.091,6.59C39.317,13.94,22.273,12.377,19.837,18.395z"/>
<path fill="#45332C" d="M32.804,18.011c-1.577,0.653-3.778,0.266-5.036-0.889c-0.193-0.177-0.349-0.05-0.301,0.079
	c0.966,2.577,3.803,3.077,5.591,0.985C33.147,18.082,33.044,17.909,32.804,18.011z"/>
<path fill="#45332C" d="M42.282,19.682c-1.577,0.653-3.777,0.266-5.036-0.888c-0.192-0.178-0.347-0.051-0.301,0.078
	c0.965,2.577,3.803,3.077,5.591,0.986C42.627,19.753,42.522,19.581,42.282,19.682z"/>
<linearGradient id="SVGID_5_" gradientUnits="userSpaceOnUse" x1="-1262.0918" y1="-702.5225" x2="-1253.5083" y2="-702.5225" gradientTransform="matrix(-0.5736 -0.8191 0.8191 -0.5736 -107.4365 -1392.369)">
	<stop  offset="0" style="stop-color:#CCD4DB"/>
	<stop  offset="0.132" style="stop-color:#D8E0E6"/>
	<stop  offset="0.333" style="stop-color:#E5EBF1"/>
	<stop  offset="0.5273" style="stop-color:#E9EFF5"/>
	<stop  offset="0.7427" style="stop-color:#E6EDF3"/>
	<stop  offset="0.8722" style="stop-color:#DEE5EB"/>
	<stop  offset="0.9787" style="stop-color:#D0D8DE"/>
	<stop  offset="1" style="stop-color:#CCD4DB"/>
	<a:midPointStop  offset="0" style="stop-color:#CCD4DB"/>
	<a:midPointStop  offset="0.3" style="stop-color:#CCD4DB"/>
	<a:midPointStop  offset="0.5273" style="stop-color:#E9EFF5"/>
	<a:midPointStop  offset="0.8" style="stop-color:#E9EFF5"/>
	<a:midPointStop  offset="1" style="stop-color:#CCD4DB"/>
</linearGradient>
<path fill="url(#SVGID_5_)" d="M31.425,42.725l-0.249,0.175l1.484,2.121l1.486,2.121l0.249-0.174c0,0,1.089,0.668,2.145,0.357
	c1.191-0.352,2.154-1.943,3.863-3.139c1.911-1.339,4.459-2.012,5.341-3.307c0.622-0.912,0.292-2.045-1.202-4.179
	s-2.445-2.831-3.515-2.56c-1.519,0.387-3.023,2.551-4.935,3.889c-1.709,1.197-3.533,1.558-4.271,2.557
	C31.253,41.358,31.425,42.725,31.425,42.725z"/>
<path fill="#FFFFFF" d="M32.225,40.884c-0.368,0.498-0.342,1.476-0.304,1.778l0.037,0.3l-0.086,0.061l1.198,1.711l1.199,1.712
	l0.108-0.075l0.279,0.171c0.004,0.003,0.613,0.366,1.289,0.366c0.16,0,0.313-0.021,0.452-0.063c0.552-0.162,1.113-0.717,1.764-1.36
	c0.551-0.545,1.175-1.162,1.954-1.708c0.804-0.563,1.688-0.999,2.543-1.421c1.142-0.563,2.221-1.095,2.672-1.758L32.225,40.884z"/>
<linearGradient id="SVGID_6_" gradientUnits="userSpaceOnUse" x1="-2663.6128" y1="-463.4326" x2="-2659.3857" y2="-463.4326" gradientTransform="matrix(-0.5736 -0.8192 0.8192 -0.5736 -1117.5321 -2398.8647)">
	<stop  offset="0" style="stop-color:#FFA400"/>
	<stop  offset="0.3804" style="stop-color:#FFB10A"/>
	<stop  offset="1" style="stop-color:#FFCF21"/>
	<a:midPointStop  offset="0" style="stop-color:#FFA400"/>
	<a:midPointStop  offset="0.5697" style="stop-color:#FFA400"/>
	<a:midPointStop  offset="1" style="stop-color:#FFCF21"/>
</linearGradient>
<path fill="url(#SVGID_6_)" d="M29.768,44.825c-0.7,0.49-0.669,1.412-0.805,1.619c-0.143,0.221-0.77,0.648-0.77,0.648
	c-0.269-0.096-1.234,0.543-0.588,1.467c0.647,0.924,1.577,0.234,1.579-0.049c0,0,0.617-0.443,0.873-0.504
	c0.243-0.055,1.097,0.288,1.797-0.201c0.169,0.241,0.672-0.111,0.672-0.111l-1.214-1.73l-1.212-1.731
	C30.101,44.232,29.599,44.584,29.768,44.825z"/>
<linearGradient id="SVGID_7_" gradientUnits="userSpaceOnUse" x1="-2664.2246" y1="-460.3711" x2="-2658.7744" y2="-460.3711" gradientTransform="matrix(-0.5736 -0.8192 0.8192 -0.5736 -1117.5321 -2398.8647)">
	<stop  offset="0" style="stop-color:#0094EB"/>
	<stop  offset="0.158" style="stop-color:#0C9BEF"/>
	<stop  offset="0.7093" style="stop-color:#32AFFB"/>
	<stop  offset="1" style="stop-color:#40B7FF"/>
	<a:midPointStop  offset="0" style="stop-color:#0094EB"/>
	<a:midPointStop  offset="0.4364" style="stop-color:#0094EB"/>
	<a:midPointStop  offset="1" style="stop-color:#40B7FF"/>
</linearGradient>
<path fill="url(#SVGID_7_)" d="M30.99,43.118c0,0-1.029,0.689-0.931,0.832c0,0-0.215,0.149-0.145,0.25
	c0.263,0.375,1.288,1.84,1.288,1.84s1.026,1.465,1.289,1.841c0.07,0.101,0.285-0.05,0.285-0.05c0.099,0.141,1.099-0.59,1.099-0.59
	s0.236,0.09,0.42-0.039l-1.563-2.232l-1.563-2.232C30.986,42.866,30.99,43.118,30.99,43.118z"/>
<rect x="31.307" y="45.379" transform="matrix(0.8193 -0.5733 0.5733 0.8193 -20.3376 26.5293)" fill="#0094EB" width="1.238" height="0.312"/>
<rect x="32.26" y="46.741" transform="matrix(0.8193 -0.5733 0.5733 0.8193 -20.9463 27.3221)" fill="#0094EB" width="1.238" height="0.313"/>
<rect x="30.353" y="44.016" transform="matrix(0.8193 -0.5733 0.5733 0.8193 -19.7287 25.7368)" fill="#0094EB" width="1.238" height="0.312"/>
<path fill="#D9B18D" d="M40.639,35.75c-0.778-0.427,0.082-1.251,0.753-0.933c2.032,0.965,3.168,2.892,4.24,3.646
	c1.327,0.934-0.329,5.439,0.446,6.059c0.704,1.416-3.653,2.693-4.211,2.391c-1.073-1.688-1.533-2.818-1.517-4.587
	c-0.497-1.29-2.165-2.502-2.653-2.991c-0.384-0.386-0.183-1.272,0.123-1.32c-0.448-0.482,0.209-1.35,0.656-1.148
	c1.18,0.531,2.85,2.065,2.962,1.982c0.054-0.039-1.063-1.509-2.836-2.393c-0.468-0.232,0.257-1.312,1.067-0.883
	c2.006,1.06,3.188,2.549,3.258,2.537C43.13,38.076,41.604,36.28,40.639,35.75z"/>
<path fill="#8E3ED6" d="M46.692,44.375c1.564,2.782,5.549,8.347,6.81,11.249c1.904,4.381-2.087,6.777-4.598,6.156
	c-3.249-0.8-4.673-3.563-7.687-15.791C41.929,44.683,46.228,43.55,46.692,44.375z"/>
<linearGradient id="SVGID_8_" gradientUnits="userSpaceOnUse" x1="-1942.0508" y1="56.6309" x2="-1943.5908" y2="48.1772" gradientTransform="matrix(-1 0 0 1 -1910.1123 0)">
	<stop  offset="0" style="stop-color:#017BB0"/>
	<stop  offset="0.1896" style="stop-color:#0983B5"/>
	<stop  offset="0.4828" style="stop-color:#1F99C3"/>
	<stop  offset="0.8412" style="stop-color:#42BCDA"/>
	<stop  offset="1" style="stop-color:#54CEE6"/>
	<a:midPointStop  offset="0" style="stop-color:#017BB0"/>
	<a:midPointStop  offset="0.6121" style="stop-color:#017BB0"/>
	<a:midPointStop  offset="1" style="stop-color:#54CEE6"/>
</linearGradient>
<path fill="url(#SVGID_8_)" d="M19.68,52.568c8.149-9.753,27.813-1.89,25.118,4.38C41.109,65.526,19.68,52.568,19.68,52.568z"/>
<linearGradient id="SVGID_9_" gradientUnits="userSpaceOnUse" x1="-1944.0762" y1="57.1748" x2="-1945.7378" y2="48.0536" gradientTransform="matrix(-1 0 0 1 -1910.1123 0)">
	<stop  offset="0" style="stop-color:#017BB0"/>
	<stop  offset="0.2462" style="stop-color:#1E98C3"/>
	<stop  offset="0.5497" style="stop-color:#3CB6D6"/>
	<stop  offset="0.8117" style="stop-color:#4EC8E2"/>
	<stop  offset="1" style="stop-color:#54CEE6"/>
	<a:midPointStop  offset="0" style="stop-color:#017BB0"/>
	<a:midPointStop  offset="0.3636" style="stop-color:#017BB0"/>
	<a:midPointStop  offset="1" style="stop-color:#54CEE6"/>
</linearGradient>
<path fill="url(#SVGID_9_)" d="M27.869,55.318c0,0,2.281-4,7.401-6.824c2.001-1.104,6.472,1.642,6.249,2.507
	C37.338,67.287,27.869,55.318,27.869,55.318z"/>
<path fill="#D9B18D" d="M44.673,58.927c0.762-0.459,0.194-1.662-0.073-1.569c-2.962,1.032-5.896,0.493-6.067-0.679
	c-0.229-1.56,2.451-3.826,0.59-3.82c-1.523,0.004-4.531,4.501-5.425,4.071c-1.577-0.017-0.944,4.125-0.43,4.496
	C40.854,62.642,43.075,61.979,44.673,58.927z"/>
<path fill="#8E3ED6" d="M33.467,56.624c-7.991-2.119-8.211-4.287-15.787-6.26c14.855-8.176,2.352-16.105,1.076-15.619
	c-4.111,1.57-9.87,18.254-8.568,20.629c1.684,3.078,10.342,6.164,23.376,6.424C34.694,60.717,34.424,56.878,33.467,56.624z"/>
<linearGradient id="SVGID_10_" gradientUnits="userSpaceOnUse" x1="23.3813" y1="52.5479" x2="23.3813" y2="41.7344">
	<stop  offset="0" style="stop-color:#C413C0"/>
	<stop  offset="0.1774" style="stop-color:#CD34C9"/>
	<stop  offset="0.4302" style="stop-color:#D85DD4"/>
	<stop  offset="0.6604" style="stop-color:#E07BDC"/>
	<stop  offset="0.858" style="stop-color:#E48DE0"/>
	<stop  offset="1" style="stop-color:#E693E2"/>
	<a:midPointStop  offset="0" style="stop-color:#C413C0"/>
	<a:midPointStop  offset="0.3636" style="stop-color:#C413C0"/>
	<a:midPointStop  offset="1" style="stop-color:#E693E2"/>
</linearGradient>
<path fill="url(#SVGID_10_)" d="M16.891,50.386c-1.602-11.349,11.855-11.328,13.114-2.4c-0.927,1.318-4.961,2.635-6.425,4.512
	C20.896,51.288,16.891,50.386,16.891,50.386z"/>
<linearGradient id="SVGID_11_" gradientUnits="userSpaceOnUse" x1="-1940.4556" y1="45.4121" x2="-1927.7998" y2="45.4121" gradientTransform="matrix(-1 0 0 1 -1910.1123 0)">
	<stop  offset="0" style="stop-color:#E693E2"/>
	<stop  offset="0.3488" style="stop-color:#F2AAEF"/>
	<stop  offset="0.7272" style="stop-color:#FCBCF8"/>
	<stop  offset="1" style="stop-color:#FFC2FC"/>
	<a:midPointStop  offset="0" style="stop-color:#E693E2"/>
	<a:midPointStop  offset="0.3636" style="stop-color:#E693E2"/>
	<a:midPointStop  offset="1" style="stop-color:#FFC2FC"/>
</linearGradient>
<path fill="url(#SVGID_11_)" d="M17.688,44.596c1.744-4.694,10.293-4.749,12.652,3.379c0.085,0.292-1.405,1.413-2.269,1.454
	C26.974,43.985,20.223,41.173,17.688,44.596z"/>
<path fill="#C99B71" d="M40.888,59.483c0,0,2.15,0.269,3.785-0.557C43.121,59.435,40.888,59.483,40.888,59.483z"/>
<path fill="#C99B71" d="M40.622,60.843c0,0,2.016,0.044,3.379-0.837C42.746,60.544,40.622,60.843,40.622,60.843z"/>
<path fill="#C99B71" d="M40.658,40.218c0,0-1.084-1.68-2.838-2.203C39.296,38.712,40.658,40.218,40.658,40.218z"/>
</svg>
