<?xml version="1.0" encoding="utf-8"?>
<!-- Generator: Adobe Illustrator 15.0.0, SVG Export Plug-In . SVG Version: 6.00 Build 0)  -->
<!DOCTYPE svg PUBLIC "-//W3C//DTD SVG 1.1//EN" "http://www.w3.org/Graphics/SVG/1.1/DTD/svg11.dtd" [
	<!ENTITY ns_flows "http://ns.adobe.com/Flows/1.0/">
	<!ENTITY ns_extend "http://ns.adobe.com/Extensibility/1.0/">
	<!ENTITY ns_ai "http://ns.adobe.com/AdobeIllustrator/10.0/">
	<!ENTITY ns_graphs "http://ns.adobe.com/Graphs/1.0/">
]>
<svg version="1.1" id="Layer_1" xmlns:x="&ns_extend;" xmlns:i="&ns_ai;" xmlns:graph="&ns_graphs;"
	 xmlns="http://www.w3.org/2000/svg" xmlns:xlink="http://www.w3.org/1999/xlink" xmlns:a="http://ns.adobe.com/AdobeSVGViewerExtensions/3.0/"
	 x="0px" y="0px" width="64px" height="64px" viewBox="0 0 64 64" enable-background="new 0 0 64 64" xml:space="preserve">
<path fill="#3AB0A2" d="M45.254,31.723c-1.271-1.646-7.428-3.657-7.428-3.657H26.172c0,0-6.156,2.012-7.428,3.657
	c-2.08,2.691-2.809,8.431-2.809,8.431l4.93,4.93V59h22.267V45.084l4.93-4.93C48.063,40.154,47.334,34.414,45.254,31.723z"/>
<path fill="#2B998D" d="M26.168,28.085c0,4.888,11.658,4.869,11.658-0.019l-1.168-0.413h-9.269L26.168,28.085z"/>
<path fill="#F5BB51" d="M27.002,27.79c0,3.826,9.994,3.826,9.994,0c0-1.302,0-4.233,0-4.233h-9.994
	C27.002,23.556,27.002,26.488,27.002,27.79z"/>
<polygon fill="#302C3B" points="20.868,58 31.932,62 32.374,62 43.133,58 "/>
<path id="Path_803_" fill="#FFC940" d="M42.154,13.999c-1.572,0.191-2.707,5.455-1.721,6.844c0.141,0.194,0.951,0.504,1.551-0.723
	c0.332-0.678,1.293-1.245,1.59-2.646C43.955,15.68,43.719,13.809,42.154,13.999z"/>
<path id="Path_780_" fill="#FFC940" d="M21.846,13.999c1.572,0.191,2.707,5.455,1.717,6.844c-0.137,0.194-0.947,0.504-1.549-0.723
	c-0.332-0.678-1.293-1.245-1.59-2.646C20.043,15.68,20.282,13.809,21.846,13.999z"/>
<path id="Path_779_" fill="#F0A429" d="M42.109,15.008c-0.408,0.129-0.855,0.754-1.1,1.792c1.434-0.308,1.076,2.08-0.17,2.125
	c0.012,0.24,0.027,0.488,0.057,0.748c0.602-0.872,1.211-0.521,1.814-1.819C43.256,16.684,43.127,14.688,42.109,15.008z"/>
<path id="Path_778_" fill="#F0A429" d="M22.989,16.797c-0.242-1.036-0.689-1.661-1.1-1.789c-1.016-0.32-1.146,1.675-0.602,2.845
	c0.604,1.297,1.215,0.947,1.816,1.819c0.029-0.26,0.045-0.508,0.055-0.749C21.926,18.866,21.573,16.507,22.989,16.797z"/>
<path id="Path_777_" fill="#FFC940" d="M31.999,3.878c-6.809,0-10.09,5.153-9.68,12.318c0.082,1.441,0.975,6.143,1.818,7.83
	c0.865,1.727,3.752,4.387,5.521,4.938c1.117,0.347,3.566,0.347,4.681,0c1.77-0.551,4.66-3.211,5.521-4.938
	c0.846-1.687,1.738-6.387,1.82-7.83C42.092,9.031,38.813,3.878,31.999,3.878z"/>
<path id="Path_776_" fill="#966F42" d="M39.398,13.473c-1.557-0.825-4.537-0.865-5.648-0.29c-0.238,0.11-0.08,0.893,0.119,0.818
	c1.547-0.612,4.045-0.625,5.492,0.052C39.555,14.142,39.635,13.588,39.398,13.473z"/>
<path id="Path_775_" fill="#966F42" d="M24.598,13.473c1.561-0.825,4.539-0.865,5.65-0.29c0.238,0.11,0.08,0.893-0.119,0.818
	c-1.551-0.612-4.043-0.625-5.494,0.052C24.444,14.142,24.364,13.588,24.598,13.473z"/>
<path id="Path_774_" fill="#F0A429" d="M33.838,20.628c-0.193-0.136-0.65,0.073-1.839,0.073c-1.186,0-1.643-0.209-1.836-0.073
	c-0.234,0.164,0.137,0.905,1.836,0.905C33.701,21.534,34.07,20.792,33.838,20.628z"/>
<path id="Path_773_" fill="#F0A429" d="M31.999,23.436c-1.529-0.45-3.801,0.213-3.801,0.213c0.863,0.942,1.498,2.164,3.801,2.164
	c2.64,0,3.089-1.387,3.802-2.164C35.801,23.649,33.529,22.982,31.999,23.436z"/>
<path id="Path_772_" fill="#FFFFFF" d="M28.768,23.809c1.605,1.348,4.847,1.357,6.462,0C33.521,23.882,30.493,23.883,28.768,23.809z
	"/>
<path id="Path_771_" fill="#FFFFFF" d="M30.485,16.284c0.057,0.451-0.248,0.986-1.096,1.386c-0.537,0.255-1.658,0.555-3.129-0.066
	c-0.66-0.278-1.301-1.144-1.244-1.623C25.813,14.478,29.739,14.258,30.485,16.284z"/>
<linearGradient id="Oval_1_" gradientUnits="userSpaceOnUse" x1="-439.7876" y1="479.5557" x2="-439.7876" y2="480.0254" gradientTransform="matrix(6.5701 0 0 -6.5701 2917.2688 3168.5281)">
	<stop  offset="0" style="stop-color:#A6694A"/>
	<stop  offset="1" style="stop-color:#4F2A1E"/>
	<a:midPointStop  offset="0" style="stop-color:#A6694A"/>
	<a:midPointStop  offset="0.5" style="stop-color:#A6694A"/>
	<a:midPointStop  offset="1" style="stop-color:#4F2A1E"/>
</linearGradient>
<circle id="Oval_94_" fill="url(#Oval_1_)" cx="27.821" cy="16.254" r="1.542"/>
<path id="Path_770_" fill="#1A1626" d="M27.051,16.226c0,1.067,1.541,1.067,1.541,0C28.592,15.235,27.051,15.235,27.051,16.226z"/>
<path id="Path_769_" fill="#AB968C" d="M26.817,15.793c0,0.447,0.646,0.447,0.646,0C27.463,15.379,26.817,15.379,26.817,15.793z"/>
<path id="Path_768_" fill="#F0A429" d="M30.493,16.344c-0.629-2.013-4.896-1.715-5.477-0.362
	C25.231,14.249,29.959,13.792,30.493,16.344z"/>
<path id="Path_767_" fill="#FFFFFF" d="M33.514,16.284c-0.057,0.451,0.248,0.986,1.096,1.386c0.539,0.255,1.658,0.555,3.131-0.066
	c0.658-0.278,1.301-1.144,1.242-1.623C38.188,14.478,34.262,14.258,33.514,16.284z"/>
<linearGradient id="Oval_2_" gradientUnits="userSpaceOnUse" x1="-441.2192" y1="479.5557" x2="-441.2192" y2="480.0254" gradientTransform="matrix(6.5701 0 0 -6.5701 2934.9993 3168.5281)">
	<stop  offset="0" style="stop-color:#A6694A"/>
	<stop  offset="1" style="stop-color:#4F2A1E"/>
	<a:midPointStop  offset="0" style="stop-color:#A6694A"/>
	<a:midPointStop  offset="0.5" style="stop-color:#A6694A"/>
	<a:midPointStop  offset="1" style="stop-color:#4F2A1E"/>
</linearGradient>
<circle id="Oval_93_" fill="url(#Oval_2_)" cx="36.143" cy="16.254" r="1.542"/>
<path id="Path_766_" fill="#1A1626" d="M35.371,16.226c0,1.067,1.543,1.067,1.543,0C36.914,15.235,35.371,15.235,35.371,16.226z"/>
<path id="Path_765_" fill="#AB968C" d="M35.137,15.793c0,0.447,0.648,0.447,0.648,0C35.785,15.379,35.137,15.379,35.137,15.793z"/>
<path id="Path_764_" fill="#F0A429" d="M33.508,16.344c0.625-2.012,4.891-1.724,5.475-0.362
	C38.766,14.249,34.041,13.792,33.508,16.344z"/>
<path fill="#7A6056" d="M40.699,5.585C39.207,3.567,36.479,2,31.999,2c-4.479,0-7.207,1.567-8.697,3.585
	C21.192,8.441,42.809,8.441,40.699,5.585z"/>
<linearGradient id="SVGID_1_" gradientUnits="userSpaceOnUse" x1="-70.4917" y1="17.958" x2="-70.4917" y2="4.7305" gradientTransform="matrix(1 0 0 1 102.4922 0)">
	<stop  offset="0.5" style="stop-color:#473834"/>
	<stop  offset="0.6387" style="stop-color:#503F3A"/>
	<stop  offset="0.8641" style="stop-color:#68524A"/>
	<stop  offset="1" style="stop-color:#7A6056"/>
	<a:midPointStop  offset="0.5" style="stop-color:#473834"/>
	<a:midPointStop  offset="0.6" style="stop-color:#473834"/>
	<a:midPointStop  offset="1" style="stop-color:#7A6056"/>
</linearGradient>
<path fill="url(#SVGID_1_)" d="M40.699,5.585c-1.492-2.018-4.221,0.17-8.701,0.17c-4.479,0-7.207-2.188-8.697-0.17
	c-2.109,2.856-1.393,12.373-0.455,12.373c0.15,0,0.17-3.33,0.455-5.632c0.23-1.875,0.678-3.693,1.188-3.99
	c1.564-0.907,4.58,0.39,7.51,0.39c2.933,0,5.949-1.297,7.511-0.39c0.512,0.297,0.957,2.115,1.189,3.99
	c0.283,2.303,0.303,5.632,0.455,5.632C42.092,17.958,42.809,8.441,40.699,5.585z"/>
<path fill="#FF9ED2" d="M25.092,52.722l-7.793,0.012c0,0-4.088,1.331-4.936,2.415c-0.9,1.151-1.43,3.822-1.693,5.465
	c4.332,1.021,12.781,1.38,21.262,1.387c0-0.002-0.486-5.07-1.877-6.854C29.206,54.056,25.092,52.722,25.092,52.722z"/>
<path fill="#FF82C5" d="M17.299,52.733c0,3.242,7.793,3.229,7.793-0.012l-0.781-0.274h-6.195L17.299,52.733z"/>
<path fill="#F5BB51" d="M17.858,52.538c0,2.538,6.678,2.538,6.678,0c0-0.863,0-2.808,0-2.808h-6.678
	C17.858,49.73,17.858,51.675,17.858,52.538z"/>
<path fill="#FF82C5" d="M14.321,61.234l-0.283-0.045C14.038,58.883,14.321,58.654,14.321,61.234z"/>
<path fill="#FF82C5" d="M28.364,61.965h-0.301C28.063,58.284,28.364,58.284,28.364,61.965z"/>
<path fill="#8FEAFF" d="M47.004,52.722l-7.791,0.012c0,0-4.09,1.331-4.938,2.415c-1.392,1.782-1.902,6.846-1.902,6.852
	c8.519-0.012,16.988-0.347,21.263-1.383c-0.258-1.643-0.777-4.325-1.67-5.471C51.117,54.056,47.004,52.722,47.004,52.722z"/>
<path fill="#67DBF5" d="M39.213,52.733c0,3.242,7.791,3.229,7.791-0.012l-0.781-0.274h-6.195L39.213,52.733z"/>
<path fill="#F5BB51" d="M39.77,52.538c0,2.538,6.68,2.538,6.68,0c0-0.863,0-2.808,0-2.808h-6.68
	C39.77,49.73,39.77,51.675,39.77,52.538z"/>
<path fill="#67DBF5" d="M36.24,61.959l-0.299,0.006C35.941,58.284,36.24,58.278,36.24,61.959z"/>
<path fill="#67DBF5" d="M50.268,61.181l-0.283,0.026C49.984,58.941,50.268,58.774,50.268,61.181z"/>
<path fill="#473834" d="M28.844,42.627c6.455,4.266,0.781,8.15,2.619,9.988C27.893,55.098,19.153,50.821,28.844,42.627z"/>
<path fill="#473834" d="M13.545,42.627c-6.455,4.266-0.779,8.15-2.617,9.988C14.499,55.098,23.239,50.821,13.545,42.627z"/>
<path fill="#F5BB51" d="M15.993,53.226c0,0-1.078,2,0.141,1.781c0.609-1.401,1.316-1.011,1.592-2.47
	c0.268-1.812-0.873-2.921-0.873-2.921c-0.992,0.735-3.139,2.376-3.406,2.831c-0.424,0.721-2.012,2.825-1.324,3.502
	C12.76,57.288,13.227,53.929,15.993,53.226z"/>
<path fill="#F0A429" d="M13.399,53.318c0,0-1.078,1.647-1.277,2.631C12.079,54.828,13.399,53.318,13.399,53.318z"/>
<path fill="#F5BB51" d="M48.008,53.226c0,0,1.078,2-0.141,1.781c-0.609-1.401-1.316-1.011-1.592-2.47
	c-0.268-1.812,0.873-2.921,0.873-2.921c0.992,0.735,3.139,2.376,3.406,2.831c0.424,0.721,2.01,2.825,1.324,3.502
	C51.24,57.288,50.773,53.929,48.008,53.226z"/>
<path fill="#F0A429" d="M50.602,53.318c0,0,1.078,1.647,1.277,2.631C51.92,54.828,50.602,53.318,50.602,53.318z"/>
<linearGradient id="SVGID_2_" gradientUnits="userSpaceOnUse" x1="21.1948" y1="45.2949" x2="21.1948" y2="31.6548">
	<stop  offset="0" style="stop-color:#473834"/>
	<stop  offset="0.2717" style="stop-color:#594640"/>
	<stop  offset="0.7226" style="stop-color:#715950"/>
	<stop  offset="1" style="stop-color:#7A6056"/>
	<a:midPointStop  offset="0" style="stop-color:#473834"/>
	<a:midPointStop  offset="0.4" style="stop-color:#473834"/>
	<a:midPointStop  offset="1" style="stop-color:#7A6056"/>
</linearGradient>
<path fill="url(#SVGID_2_)" d="M21.196,31.654c-6.787,0.004-11.082,5.973-8.439,13.641h16.877
	C32.276,37.627,27.981,31.658,21.196,31.654z"/>
<path id="Path_1359_" fill="#FFC940" d="M12.637,42.107c1.066,0.131,1.834,3.73,1.166,4.68c-0.096,0.133-0.645,0.346-1.051-0.494
	c-0.227-0.463-0.877-0.852-1.078-1.809C11.417,43.258,11.579,41.979,12.637,42.107z"/>
<path id="Path_1358_" fill="#F0A429" d="M12.667,42.799c0.277,0.087,0.582,0.516,0.746,1.225c-0.973-0.211-0.729,1.422,0.115,1.453
	c-0.008,0.164-0.018,0.334-0.039,0.511c-0.406-0.596-0.82-0.356-1.229-1.243C11.891,43.944,11.979,42.58,12.667,42.799z"/>
<path id="Path_1357_" fill="#FFC940" d="M29.752,42.107c-1.064,0.131-1.834,3.73-1.164,4.68c0.094,0.133,0.643,0.346,1.051-0.494
	c0.225-0.463,0.875-0.852,1.076-1.809C30.975,43.258,30.813,41.979,29.752,42.107z"/>
<path id="Path_1340_" fill="#F0A429" d="M28.979,44.021c0.164-0.709,0.467-1.136,0.744-1.223c0.689-0.219,0.777,1.146,0.408,1.945
	c-0.41,0.887-0.822,0.647-1.23,1.243c-0.02-0.178-0.031-0.347-0.037-0.512C29.698,45.436,29.938,43.823,28.979,44.021z"/>
<path fill="#FFC940" d="M21.196,32.857c-5.822,0-8.627,4.404-8.275,10.529c0.07,1.232,0.834,4.047,1.557,5.488
	c1.273,2.545,4.6,4.443,6.719,4.443c2.117,0,5.447-1.898,6.719-4.443c0.723-1.441,1.486-4.256,1.557-5.488
	C29.823,37.262,27.018,32.857,21.196,32.857z"/>
<path id="Path_1339_" fill="#F0A429" d="M22.553,46.828c-0.145-0.101-0.482,0.055-1.357,0.055c-0.877,0-1.215-0.155-1.359-0.055
	c-0.17,0.121,0.104,0.668,1.359,0.668C22.45,47.496,22.725,46.949,22.553,46.828z"/>
<path id="Path_1338_" fill="#F0A429" d="M21.196,48.779c-1.313-0.386-3.258,0.184-3.258,0.184c0.74,0.808,1.283,1.854,3.258,1.854
	c2.262,0,2.646-1.188,3.258-1.854C24.454,48.963,22.506,48.393,21.196,48.779z"/>
<path id="Path_1337_" fill="#FFFFFF" d="M18.426,49.1c1.375,1.154,4.154,1.162,5.539,0C22.499,49.162,19.903,49.163,18.426,49.1z"/>
<path id="Path_1336_" fill="#FFFFFF" d="M19.94,43.832c0.047,0.373-0.205,0.816-0.908,1.147c-0.445,0.212-1.373,0.46-2.592-0.054
	c-0.545-0.23-1.078-0.948-1.029-1.345C16.071,42.336,19.321,42.153,19.94,43.832z"/>
<linearGradient id="Oval_3_" gradientUnits="userSpaceOnUse" x1="-425.7231" y1="475.4023" x2="-425.7231" y2="475.791" gradientTransform="matrix(6.5701 0 0 -6.5701 2814.7805 3168.5281)">
	<stop  offset="0" style="stop-color:#A6694A"/>
	<stop  offset="1" style="stop-color:#4F2A1E"/>
	<a:midPointStop  offset="0" style="stop-color:#A6694A"/>
	<a:midPointStop  offset="0.5" style="stop-color:#A6694A"/>
	<a:midPointStop  offset="1" style="stop-color:#4F2A1E"/>
</linearGradient>
<circle id="Oval_168_" fill="url(#Oval_3_)" cx="17.735" cy="43.807" r="1.277"/>
<path id="Path_1335_" fill="#1A1626" d="M17.096,43.783c0,0.884,1.277,0.884,1.277,0C18.374,42.963,17.096,42.963,17.096,43.783z"/>
<path id="Path_1334_" fill="#AB968C" d="M16.903,43.426c0,0.37,0.535,0.37,0.535,0C17.438,43.082,16.903,43.082,16.903,43.426z"/>
<path id="Path_1333_" fill="#F0A429" d="M19.946,43.881c-0.518-1.667-4.055-1.422-4.535-0.3
	C15.588,42.146,19.504,41.768,19.946,43.881z"/>
<path id="Path_1332_" fill="#FFFFFF" d="M22.452,43.832c-0.049,0.373,0.205,0.816,0.906,1.147c0.445,0.212,1.373,0.46,2.594-0.054
	c0.545-0.23,1.078-0.948,1.029-1.345C26.321,42.336,23.069,42.153,22.452,43.832z"/>
<linearGradient id="Oval_4_" gradientUnits="userSpaceOnUse" x1="-427.3726" y1="475.4023" x2="-427.3726" y2="475.791" gradientTransform="matrix(6.5701 0 0 -6.5701 2832.511 3168.5281)">
	<stop  offset="0" style="stop-color:#A6694A"/>
	<stop  offset="1" style="stop-color:#4F2A1E"/>
	<a:midPointStop  offset="0" style="stop-color:#A6694A"/>
	<a:midPointStop  offset="0.5" style="stop-color:#A6694A"/>
	<a:midPointStop  offset="1" style="stop-color:#4F2A1E"/>
</linearGradient>
<circle id="Oval_167_" fill="url(#Oval_4_)" cx="24.627" cy="43.807" r="1.277"/>
<path id="Path_1331_" fill="#1A1626" d="M23.991,43.783c0,0.884,1.277,0.884,1.277,0C25.268,42.963,23.991,42.963,23.991,43.783z"/>
<path id="Path_1330_" fill="#AB968C" d="M23.795,43.426c0,0.37,0.535,0.37,0.535,0C24.331,43.082,23.795,43.082,23.795,43.426z"/>
<path id="Path_1329_" fill="#F0A429" d="M22.446,43.881c0.518-1.666,4.051-1.428,4.535-0.3
	C26.801,42.146,22.887,41.768,22.446,43.881z"/>
<path id="Path_1328_" fill="#F0A429" d="M27.063,41.842c-1.098-0.693-3.311-0.895-4.178-0.54c-0.186,0.067-0.125,0.647,0.029,0.605
	c1.195-0.357,3.051-0.224,4.078,0.356C27.131,42.339,27.231,41.938,27.063,41.842z"/>
<path id="Path_1242_" fill="#F0A429" d="M15.327,41.842c1.1-0.693,3.311-0.895,4.178-0.54c0.186,0.067,0.125,0.647-0.029,0.605
	c-1.195-0.357-3.049-0.224-4.08,0.356C15.258,42.339,15.159,41.938,15.327,41.842z"/>
<linearGradient id="SVGID_3_" gradientUnits="userSpaceOnUse" x1="21.1953" y1="44.833" x2="21.1953" y2="31.856">
	<stop  offset="0" style="stop-color:#473834"/>
	<stop  offset="0.2717" style="stop-color:#594640"/>
	<stop  offset="0.7226" style="stop-color:#715950"/>
	<stop  offset="1" style="stop-color:#7A6056"/>
	<a:midPointStop  offset="0" style="stop-color:#473834"/>
	<a:midPointStop  offset="0.4" style="stop-color:#473834"/>
	<a:midPointStop  offset="1" style="stop-color:#7A6056"/>
</linearGradient>
<path fill="url(#SVGID_3_)" d="M21.194,31.855c-3.414-0.002-6.467,1.895-7.131,4.451c-1.719,1.684-1.979,5.508-0.896,8.526
	c0.141-2.896,1.746-4.354,1.646-7.541c9.592,0,13.893,3.128,14.406,7.541C31.397,38.754,27.967,31.855,21.194,31.855z"/>
<path fill="#473834" d="M29.219,44.833c-1.795-7.715-15.166-7.5-15.166-7.5C14.125,37.326,28.387,35.027,29.219,44.833z"/>
<path fill="#473834" d="M13.167,44.833c-0.123-3.425,1.689-4.967,1.494-8.503C15.411,39.69,13.795,41.357,13.167,44.833z"/>
<path fill="#CFD8DD" d="M29.37,42.216c0.766-11.573-17.117-11.573-16.352,0C13.686,32.496,28.702,32.496,29.37,42.216z"/>
<path fill="#FFFFFF" d="M29.37,41.842c0.766-11.574-17.117-11.574-16.352,0C13.686,32.121,28.702,32.121,29.37,41.842z"/>
<path id="Path_1189_" fill="#FFC940" d="M34.549,42.107c1.066,0.131,1.834,3.73,1.166,4.68c-0.096,0.133-0.645,0.346-1.051-0.494
	c-0.227-0.463-0.877-0.852-1.078-1.809C33.328,43.258,33.49,41.979,34.549,42.107z"/>
<path id="Path_1188_" fill="#F0A429" d="M34.578,42.799c0.277,0.087,0.582,0.516,0.746,1.225c-0.973-0.211-0.729,1.422,0.115,1.453
	c-0.008,0.164-0.018,0.334-0.039,0.511c-0.406-0.596-0.82-0.356-1.229-1.243C33.803,43.944,33.891,42.58,34.578,42.799z"/>
<path id="Path_1187_" fill="#FFC940" d="M51.664,42.107c-1.064,0.131-1.834,3.73-1.164,4.68c0.094,0.133,0.643,0.346,1.051-0.494
	c0.225-0.463,0.875-0.852,1.076-1.809C52.887,43.258,52.725,41.979,51.664,42.107z"/>
<path id="Path_1186_" fill="#F0A429" d="M50.891,44.021c0.164-0.709,0.467-1.136,0.744-1.223c0.689-0.219,0.777,1.146,0.408,1.945
	c-0.41,0.887-0.822,0.647-1.23,1.243c-0.02-0.178-0.031-0.347-0.037-0.512C51.609,45.436,51.85,43.823,50.891,44.021z"/>
<path fill="#FFC940" d="M43.107,32.857c-5.822,0-8.627,4.404-8.275,10.529c0.07,1.232,0.834,4.047,1.557,5.488
	c1.273,2.545,4.6,4.443,6.719,4.443c2.117,0,5.447-1.898,6.719-4.443c0.723-1.441,1.486-4.256,1.557-5.488
	C51.734,37.262,48.93,32.857,43.107,32.857z"/>
<path id="Path_1185_" fill="#F0A429" d="M44.465,46.828c-0.145-0.101-0.482,0.055-1.357,0.055c-0.877,0-1.215-0.155-1.359-0.055
	c-0.17,0.121,0.104,0.668,1.359,0.668C44.361,47.496,44.637,46.949,44.465,46.828z"/>
<path id="Path_1184_" fill="#F0A429" d="M43.107,48.779c-1.313-0.386-3.258,0.184-3.258,0.184c0.74,0.808,1.283,1.854,3.258,1.854
	c2.262,0,2.646-1.188,3.258-1.854C46.365,48.963,44.418,48.393,43.107,48.779z"/>
<path id="Path_1183_" fill="#FFFFFF" d="M40.338,49.1c1.375,1.154,4.154,1.162,5.539,0C44.41,49.162,41.814,49.163,40.338,49.1z"/>
<path id="Path_1182_" fill="#FFFFFF" d="M41.852,43.832c0.047,0.373-0.205,0.816-0.908,1.147c-0.445,0.212-1.373,0.46-2.592-0.054
	c-0.545-0.23-1.078-0.948-1.029-1.345C37.982,42.336,41.232,42.153,41.852,43.832z"/>
<linearGradient id="Oval_5_" gradientUnits="userSpaceOnUse" x1="-422.3882" y1="475.4023" x2="-422.3882" y2="475.791" gradientTransform="matrix(6.5701 0 0 -6.5701 2814.7805 3168.5281)">
	<stop  offset="0" style="stop-color:#A6694A"/>
	<stop  offset="1" style="stop-color:#4F2A1E"/>
	<a:midPointStop  offset="0" style="stop-color:#A6694A"/>
	<a:midPointStop  offset="0.5" style="stop-color:#A6694A"/>
	<a:midPointStop  offset="1" style="stop-color:#4F2A1E"/>
</linearGradient>
<circle id="Oval_118_" fill="url(#Oval_5_)" cx="39.646" cy="43.807" r="1.277"/>
<path id="Path_1181_" fill="#1A1626" d="M39.008,43.783c0,0.884,1.277,0.884,1.277,0C40.285,42.963,39.008,42.963,39.008,43.783z"/>
<path id="Path_1180_" fill="#AB968C" d="M38.814,43.426c0,0.37,0.535,0.37,0.535,0C39.35,43.082,38.814,43.082,38.814,43.426z"/>
<path id="Path_1179_" fill="#F0A429" d="M41.857,43.881c-0.518-1.667-4.055-1.422-4.535-0.3
	C37.5,42.146,41.416,41.768,41.857,43.881z"/>
<path id="Path_1178_" fill="#FFFFFF" d="M44.363,43.832c-0.049,0.373,0.205,0.816,0.906,1.147c0.445,0.212,1.373,0.46,2.594-0.054
	c0.545-0.23,1.078-0.948,1.029-1.345C48.232,42.336,44.98,42.153,44.363,43.832z"/>
<linearGradient id="Oval_6_" gradientUnits="userSpaceOnUse" x1="-424.0376" y1="475.4023" x2="-424.0376" y2="475.791" gradientTransform="matrix(6.5701 0 0 -6.5701 2832.511 3168.5281)">
	<stop  offset="0" style="stop-color:#A6694A"/>
	<stop  offset="1" style="stop-color:#4F2A1E"/>
	<a:midPointStop  offset="0" style="stop-color:#A6694A"/>
	<a:midPointStop  offset="0.5" style="stop-color:#A6694A"/>
	<a:midPointStop  offset="1" style="stop-color:#4F2A1E"/>
</linearGradient>
<circle id="Oval_117_" fill="url(#Oval_6_)" cx="46.539" cy="43.807" r="1.277"/>
<path id="Path_1177_" fill="#1A1626" d="M45.902,43.783c0,0.884,1.277,0.884,1.277,0C47.18,42.963,45.902,42.963,45.902,43.783z"/>
<path id="Path_1176_" fill="#AB968C" d="M45.707,43.426c0,0.37,0.535,0.37,0.535,0C46.242,43.082,45.707,43.082,45.707,43.426z"/>
<path id="Path_1175_" fill="#F0A429" d="M44.357,43.881c0.518-1.666,4.051-1.428,4.535-0.3
	C48.713,42.146,44.799,41.768,44.357,43.881z"/>
<path id="Path_1174_" fill="#F0A429" d="M48.975,41.842c-1.098-0.693-3.311-0.895-4.178-0.54c-0.186,0.067-0.125,0.647,0.029,0.605
	c1.195-0.357,3.051-0.224,4.078,0.356C49.043,42.339,49.143,41.938,48.975,41.842z"/>
<path id="Path_854_" fill="#F0A429" d="M37.238,41.842c1.1-0.693,3.311-0.895,4.178-0.54c0.186,0.067,0.125,0.647-0.029,0.605
	c-1.195-0.357-3.049-0.224-4.08,0.356C37.17,42.339,37.07,41.938,37.238,41.842z"/>
<linearGradient id="SVGID_4_" gradientUnits="userSpaceOnUse" x1="43.1064" y1="45.4199" x2="43.1064" y2="31.6548">
	<stop  offset="0" style="stop-color:#473834"/>
	<stop  offset="0.2717" style="stop-color:#594640"/>
	<stop  offset="0.7226" style="stop-color:#715950"/>
	<stop  offset="1" style="stop-color:#7A6056"/>
	<a:midPointStop  offset="0" style="stop-color:#473834"/>
	<a:midPointStop  offset="0.4" style="stop-color:#473834"/>
	<a:midPointStop  offset="1" style="stop-color:#7A6056"/>
</linearGradient>
<path fill="url(#SVGID_4_)" d="M43.098,32.457c-0.525,0-1.012,0.033-1.48,0.082c0.195-0.203,0.438-0.361,0.773-0.424
	c-0.689-0.187-1.467-0.101-2.072,0.348c-0.127-0.217-0.18-0.495-0.053-0.809c-0.846,0.514-1.006,1.133-1.006,1.133
	c-0.242-0.392-0.254-0.904-0.254-0.904s-0.912,0.644-0.779,1.586c-0.814-0.355-1.498,0.058-1.498,0.058s0.4,0.171,0.592,0.53
	c-4.554,3.307-2.996,10.657-2.131,11.363c0,0,0.256-5.492,2.574-7.132c-0.125,1.036-0.402,1.769-0.402,1.769
	s2.275-0.359,4.279-1.639c-0.232,1.145-0.859,1.965-0.859,1.965s4.137-0.577,5.365-2.525c0,0,0.811,1.706,2.816,2.935
	c0,0,0.125-1.278-0.15-2.184c1.967,1.935,2.197,6.804,2.197,6.804C52.16,44.381,54.412,32.457,43.098,32.457z"/>
<path fill="#473834" d="M48.676,37.75l0.203,1.131c0,0,1.676,2.195,2.131,6.531C51.221,40.725,48.676,37.75,48.676,37.75z"/>
<path fill="#473834" d="M48.449,37.327c0,0,1.229,1.53,0.514,3.465C49.055,39.277,48.449,37.327,48.449,37.327z"/>
<path fill="#473834" d="M46.42,36.788c0.273,3.928-5.686,3.597-5.639,3.595C40.781,40.383,45.9,39.402,46.42,36.788z"/>
<path fill="#473834" d="M42.832,37.139c-1.119,3.168-5.229,2.895-5.471,2.918C37.361,40.057,41.035,38.993,42.832,37.139z"/>
<path fill="#473834" d="M38.105,37.879c-2.676,3.135-2.916,7.541-2.916,7.541S34.482,40.688,38.105,37.879z"/>
</svg>
