<?xml version="1.0" encoding="utf-8"?>
<!-- Generator: Adobe Illustrator 15.0.0, SVG Export Plug-In . SVG Version: 6.00 Build 0)  -->
<!DOCTYPE svg PUBLIC "-//W3C//DTD SVG 1.1//EN" "http://www.w3.org/Graphics/SVG/1.1/DTD/svg11.dtd" [
	<!ENTITY ns_flows "http://ns.adobe.com/Flows/1.0/">
	<!ENTITY ns_extend "http://ns.adobe.com/Extensibility/1.0/">
	<!ENTITY ns_ai "http://ns.adobe.com/AdobeIllustrator/10.0/">
	<!ENTITY ns_graphs "http://ns.adobe.com/Graphs/1.0/">
]>
<svg version="1.1" id="Layer_1" xmlns:x="&ns_extend;" xmlns:i="&ns_ai;" xmlns:graph="&ns_graphs;"
	 xmlns="http://www.w3.org/2000/svg" xmlns:xlink="http://www.w3.org/1999/xlink" xmlns:a="http://ns.adobe.com/AdobeSVGViewerExtensions/3.0/"
	 x="0px" y="0px" width="64px" height="64px" viewBox="0 0 64 64" enable-background="new 0 0 64 64" xml:space="preserve">
<linearGradient id="SVGID_1_" gradientUnits="userSpaceOnUse" x1="32.0005" y1="62" x2="32.0005" y2="2.0005">
	<stop  offset="0" style="stop-color:#008FE3"/>
	<stop  offset="1" style="stop-color:#2BB0FF"/>
	<a:midPointStop  offset="0" style="stop-color:#008FE3"/>
	<a:midPointStop  offset="0.5" style="stop-color:#008FE3"/>
	<a:midPointStop  offset="1" style="stop-color:#2BB0FF"/>
</linearGradient>
<path fill="url(#SVGID_1_)" d="M51.801,49.409c-1.881-1.019-9.301-3.893-11.807-4.832c0-1.203,0-2.503,0-3.582h0.008
	c2.123-1.732,4.156-3.969,5.006-5.664c0.525-1.049,1.061-2.803,1.533-4.709c3.305-0.506,5.656-11.115,1.518-10.783
	C47.863,9.328,42.443,2,32.001,2c-10.443,0-15.86,7.328-16.056,17.839c-4.142-0.334-1.788,10.277,1.519,10.783
	c0.473,1.906,1.009,3.66,1.533,4.709c0.848,1.695,2.881,3.934,5.005,5.666h0.004c0,1.088,0,2.399,0,3.607
	c-2.55,0.959-9.877,3.803-11.751,4.808C8.774,51.277,8,57.14,8,59.56c0,3.254,48,3.254,48,0C56,57.144,55.271,51.281,51.801,49.409z
	"/>
</svg>
