<?xml version="1.0" encoding="utf-8"?>
<!-- Generator: Adobe Illustrator 15.0.0, SVG Export Plug-In . SVG Version: 6.00 Build 0)  -->
<!DOCTYPE svg PUBLIC "-//W3C//DTD SVG 1.1//EN" "http://www.w3.org/Graphics/SVG/1.1/DTD/svg11.dtd" [
	<!ENTITY ns_flows "http://ns.adobe.com/Flows/1.0/">
	<!ENTITY ns_extend "http://ns.adobe.com/Extensibility/1.0/">
	<!ENTITY ns_ai "http://ns.adobe.com/AdobeIllustrator/10.0/">
	<!ENTITY ns_graphs "http://ns.adobe.com/Graphs/1.0/">
]>
<svg version="1.1" id="Layer_1" xmlns:x="&ns_extend;" xmlns:i="&ns_ai;" xmlns:graph="&ns_graphs;"
	 xmlns="http://www.w3.org/2000/svg" xmlns:xlink="http://www.w3.org/1999/xlink" xmlns:a="http://ns.adobe.com/AdobeSVGViewerExtensions/3.0/"
	 x="0px" y="0px" width="64px" height="64px" viewBox="0 0 64 64" enable-background="new 0 0 64 64" xml:space="preserve">
<path fill="#CFD8DD" d="M46.273,13.032c-5.406-5.714-23.141-5.714-28.549,0c-6.553,6.925-12.486,45.97-12.486,45.97H58.76
	C58.76,59.002,52.828,19.957,46.273,13.032z"/>
<path fill="#F2F5F7" d="M9.785,52.72C12.488,51.432,23,48.012,23,48.012l18-0.029c0,0,10.59,3.441,13.275,4.734
	C58.18,54.589,59,57.146,59,59.562c0,1.231-7.746,1.997-17.369,2.296l-19.254,0.001C12.75,61.561,5,60.795,5,59.562
	C5,57.142,5.871,54.585,9.785,52.72z"/>
<polygon fill="#F2F5F7" points="23.652,47.785 40.348,47.785 38.957,62.002 24.957,62.002 "/>
<rect x="23" y="41.914" fill="#F5BB51" width="18" height="10.205"/>
<path fill="#FFFFFF" d="M41,46.912l1.492,1.131c0,0-1.008,2.947-2.506,10.191L32,52.119C32,52.119,38.436,52.23,41,46.912z"/>
<path fill="#FFFFFF" d="M23,46.912l-1.49,1.131c0,0,1.006,2.947,2.504,10.191L32,52.119C32,52.119,25.564,52.23,23,46.912z"/>
<path fill="#DFE4E8" d="M41.641,61.857c0,0,3.166-3.32,5.119-7.602l-2.484-2.375l3.953-0.688c0,0-2.635-2.057-5.736-3.15
	c0,0-2.191,6.414-5.734,13.959L41.641,61.857z"/>
<path fill="#DFE4E8" d="M22.361,61.858c0,0-3.164-3.321-5.117-7.603l2.484-2.375l-3.953-0.688c0,0,2.635-2.057,5.734-3.15
	c0,0,2.193,6.414,5.736,13.959L22.361,61.858z"/>
<path id="Path_258_" fill="#FFC940" d="M48.441,25.396c-2.545,0.307-4.383,8.814-2.781,11.061c0.225,0.313,1.535,0.814,2.508-1.168
	c0.539-1.098,2.092-2.014,2.574-4.277C51.359,28.111,50.975,25.09,48.441,25.396z"/>
<path id="Path_257_" fill="#FFC940" d="M15.561,25.396c2.545,0.307,4.383,8.814,2.781,11.061c-0.225,0.313-1.535,0.814-2.51-1.168
	c-0.537-1.098-2.092-2.014-2.572-4.277C12.641,28.111,13.027,25.09,15.561,25.396z"/>
<path id="Path_256_" fill="#F0A429" d="M48.373,27.025c-0.664,0.209-1.389,1.221-1.781,2.898c2.32-0.498,1.74,3.361-0.277,3.434
	c0.02,0.389,0.045,0.787,0.094,1.207c0.971-1.408,1.959-0.844,2.938-2.939C50.227,29.736,50.018,26.512,48.373,27.025z"/>
<path id="Path_255_" fill="#F0A429" d="M17.41,29.92c-0.395-1.676-1.117-2.686-1.781-2.895c-1.643-0.514-1.855,2.711-0.973,4.6
	c0.979,2.096,1.967,1.531,2.939,2.939c0.047-0.42,0.074-0.82,0.09-1.209C15.689,33.262,15.117,29.449,17.41,29.92z"/>
<path id="Path_254_" fill="#FFC940" d="M32,9.037c-11.027,0-16.34,8.328-15.676,19.908c0.133,2.33,1.582,9.93,2.947,12.656
	c1.398,2.789,6.074,7.09,8.938,7.98c1.811,0.561,5.773,0.561,7.582,0c2.865-0.891,7.543-5.191,8.939-7.98
	c1.369-2.727,2.814-10.324,2.945-12.656C48.344,17.365,43.031,9.037,32,9.037z"/>
<path id="Path_253_" fill="#966F42" d="M43.982,24.547c-2.521-1.336-7.348-1.4-9.146-0.469c-0.387,0.178-0.131,1.441,0.193,1.322
	c2.504-0.99,6.547-1.012,8.893,0.084C44.234,25.627,44.365,24.732,43.982,24.547z"/>
<path id="Path_252_" fill="#966F42" d="M20.02,24.547c2.521-1.336,7.346-1.4,9.146-0.469c0.385,0.178,0.131,1.441-0.193,1.322
	c-2.51-0.99-6.547-1.012-8.895,0.084C19.768,25.627,19.639,24.732,20.02,24.547z"/>
<path id="Path_251_" fill="#F0A429" d="M34.977,36.111C34.662,35.893,33.924,36.23,32,36.23c-1.92,0-2.66-0.338-2.975-0.119
	c-0.377,0.266,0.223,1.461,2.975,1.461C34.754,37.572,35.355,36.377,34.977,36.111z"/>
<path id="Path_250_" fill="#F0A429" d="M32,40.648c-2.479-0.729-6.154,0.346-6.154,0.346c1.398,1.521,2.424,3.494,6.154,3.494
	c4.275,0,5.002-2.24,6.156-3.494C38.156,40.994,34.48,39.914,32,40.648z"/>
<path id="Path_249_" fill="#FFFFFF" d="M26.768,41.252c2.602,2.176,7.852,2.191,10.467,0C34.463,41.369,29.559,41.371,26.768,41.252
	z"/>
<path id="Path_248_" fill="#FFFFFF" d="M29.547,29.088c0.094,0.73-0.402,1.594-1.773,2.242c-0.871,0.412-2.686,0.896-5.066-0.107
	c-1.066-0.449-2.107-1.848-2.014-2.623C21.984,26.17,28.338,25.814,29.547,29.088z"/>
<linearGradient id="Oval_1_" gradientUnits="userSpaceOnUse" x1="-424.5815" y1="477.4648" x2="-424.5815" y2="478.2236" gradientTransform="matrix(6.5701 0 0 -6.5701 2814.7805 3168.5281)">
	<stop  offset="0" style="stop-color:#A6694A"/>
	<stop  offset="1" style="stop-color:#4F2A1E"/>
	<a:midPointStop  offset="0" style="stop-color:#A6694A"/>
	<a:midPointStop  offset="0.5" style="stop-color:#A6694A"/>
	<a:midPointStop  offset="1" style="stop-color:#4F2A1E"/>
</linearGradient>
<circle id="Oval_40_" fill="url(#Oval_1_)" cx="25.236" cy="29.041" r="2.492"/>
<path id="Path_247_" fill="#1A1626" d="M23.988,28.994c0,1.725,2.496,1.725,2.496,0C26.484,27.395,23.988,27.395,23.988,28.994z"/>
<path id="Path_246_" fill="#AB968C" d="M23.609,28.295c0,0.723,1.045,0.723,1.045,0C24.654,27.627,23.609,27.627,23.609,28.295z"/>
<path id="Path_245_" fill="#F0A429" d="M29.559,29.184c-1.014-3.25-7.926-2.77-8.865-0.584
	C21.041,25.801,28.695,25.061,29.559,29.184z"/>
<path id="Path_244_" fill="#FFFFFF" d="M34.455,29.088c-0.094,0.73,0.4,1.594,1.773,2.242c0.871,0.412,2.684,0.896,5.064-0.107
	c1.07-0.449,2.109-1.848,2.016-2.623C42.018,26.17,35.662,25.814,34.455,29.088z"/>
<linearGradient id="Oval_2_" gradientUnits="userSpaceOnUse" x1="-425.23" y1="477.4648" x2="-425.23" y2="478.2236" gradientTransform="matrix(6.5701 0 0 -6.5701 2832.511 3168.5281)">
	<stop  offset="0" style="stop-color:#A6694A"/>
	<stop  offset="1" style="stop-color:#4F2A1E"/>
	<a:midPointStop  offset="0" style="stop-color:#A6694A"/>
	<a:midPointStop  offset="0.5" style="stop-color:#A6694A"/>
	<a:midPointStop  offset="1" style="stop-color:#4F2A1E"/>
</linearGradient>
<circle id="Oval_39_" fill="url(#Oval_2_)" cx="38.709" cy="29.041" r="2.492"/>
<path id="Path_243_" fill="#1A1626" d="M37.463,28.994c0,1.725,2.496,1.725,2.496,0C39.959,27.395,37.463,27.395,37.463,28.994z"/>
<path id="Path_242_" fill="#AB968C" d="M37.082,28.295c0,0.723,1.047,0.723,1.047,0C38.129,27.627,37.082,27.627,37.082,28.295z"/>
<path id="Path_241_" fill="#F0A429" d="M34.443,29.184c1.012-3.248,7.92-2.783,8.865-0.584
	C42.957,25.801,35.307,25.061,34.443,29.184z"/>
<path fill="#7A6056" d="M46.086,11.795C43.672,8.535,39.254,6.002,32,6.002c-7.252,0-11.668,2.533-14.082,5.793
	C14.5,16.412,49.502,16.412,46.086,11.795z"/>
<linearGradient id="SVGID_1_" gradientUnits="userSpaceOnUse" x1="32.0015" y1="31.7949" x2="32.0015" y2="10.4141">
	<stop  offset="0.5" style="stop-color:#473834"/>
	<stop  offset="0.6387" style="stop-color:#503F3A"/>
	<stop  offset="0.8641" style="stop-color:#68524A"/>
	<stop  offset="1" style="stop-color:#7A6056"/>
	<a:midPointStop  offset="0.5" style="stop-color:#473834"/>
	<a:midPointStop  offset="0.6" style="stop-color:#473834"/>
	<a:midPointStop  offset="1" style="stop-color:#7A6056"/>
</linearGradient>
<path fill="url(#SVGID_1_)" d="M46.086,11.795C43.672,8.535,39.254,12.07,32,12.07c-7.252,0-11.668-3.535-14.082-0.275
	c-3.418,4.617-2.258,20-0.736,20c0.24,0,0.275-5.381,0.736-9.104c0.373-3.029,1.094-5.969,1.924-6.449
	c2.531-1.467,7.412,0.631,12.158,0.631s9.629-2.098,12.162-0.631c0.828,0.48,1.547,3.42,1.924,6.449
	c0.459,3.723,0.494,9.104,0.734,9.104C48.342,31.795,49.502,16.412,46.086,11.795z"/>
<path fill="#FFFFFF" d="M33,58.799c0,1.334-2,1.334-2,0C31,57.467,33,57.467,33,58.799z"/>
<radialGradient id="SVGID_2_" cx="686.5479" cy="-132.5273" r="22.5222" fx="668.5272" fy="-124.3554" gradientTransform="matrix(-0.9613 -1.000000e-004 -5.047310e-005 -0.5047 679.4697 -6.605)" gradientUnits="userSpaceOnUse">
	<stop  offset="0.2606" style="stop-color:#DFE4E8"/>
	<stop  offset="0.3636" style="stop-color:#CED3D6"/>
	<stop  offset="0.503" style="stop-color:#DFE4E8"/>
	<a:midPointStop  offset="0.2606" style="stop-color:#DFE4E8"/>
	<a:midPointStop  offset="0.5" style="stop-color:#DFE4E8"/>
	<a:midPointStop  offset="0.3636" style="stop-color:#CED3D6"/>
	<a:midPointStop  offset="0.5" style="stop-color:#CED3D6"/>
	<a:midPointStop  offset="0.503" style="stop-color:#DFE4E8"/>
</radialGradient>
<path fill="url(#SVGID_2_)" d="M31.48,53.635c-1.083,3.06-6.669,3.889-6.999,3.438c-0.668-0.918-1.291-4.627-0.013-6.676
	C24.668,50.083,30.653,50.154,31.48,53.635z"/>
<radialGradient id="SVGID_3_" cx="14.1348" cy="-132.2227" r="22.5246" fx="-3.8878" fy="-124.0499" gradientTransform="matrix(0.9613 -3.000000e-004 1.514193e-004 -0.5047 30.9322 -6.5176)" gradientUnits="userSpaceOnUse">
	<stop  offset="0.2606" style="stop-color:#DFE4E8"/>
	<stop  offset="0.3636" style="stop-color:#CED3D6"/>
	<stop  offset="0.503" style="stop-color:#DFE4E8"/>
	<a:midPointStop  offset="0.2606" style="stop-color:#DFE4E8"/>
	<a:midPointStop  offset="0.5" style="stop-color:#DFE4E8"/>
	<a:midPointStop  offset="0.3636" style="stop-color:#CED3D6"/>
	<a:midPointStop  offset="0.5" style="stop-color:#CED3D6"/>
	<a:midPointStop  offset="0.503" style="stop-color:#DFE4E8"/>
</radialGradient>
<path fill="url(#SVGID_3_)" d="M32.52,53.635c1.083,3.06,6.669,3.889,6.999,3.437c0.668-0.918,1.29-4.627,0.013-6.676
	C39.334,50.081,33.349,50.152,32.52,53.635z"/>
<linearGradient id="SVGID_4_" gradientUnits="userSpaceOnUse" x1="70.0361" y1="55.5732" x2="70.0361" y2="51.9854" gradientTransform="matrix(1.1359 -2.000000e-004 -2.000000e-004 1 -47.5442 -0.1381)">
	<stop  offset="0.097" style="stop-color:#CED3D6"/>
	<stop  offset="0.5515" style="stop-color:#DFE4E8"/>
	<a:midPointStop  offset="0.097" style="stop-color:#CED3D6"/>
	<a:midPointStop  offset="0.5" style="stop-color:#CED3D6"/>
	<a:midPointStop  offset="0.5515" style="stop-color:#DFE4E8"/>
</linearGradient>
<path fill="url(#SVGID_4_)" d="M32.003,55.328c-1.498,0.002-1.866,0.689-1.872-1.699c-0.002-2.389,0.37-1.701,1.868-1.703
	c1.498,0,1.868-0.692,1.87,1.698C33.874,56.011,33.501,55.328,32.003,55.328z"/>
<path opacity="0.8" fill="#CFD8DD" d="M32.002,6C11.426,6,15.061,25.148,15.061,25.148s5.053-4.628,16.941-4.628
	c11.881,0,16.936,4.628,16.936,4.628S52.578,6,32.002,6z"/>
<path fill="#CFD8DD" d="M48.51,25.327c1.547-17.707-34.566-17.707-33.021,0C16.836,10.454,47.164,10.454,48.51,25.327z"/>
<path fill="#FFFFFF" d="M48.51,24.754c1.547-17.707-34.566-17.707-33.021,0C16.836,9.882,47.164,9.882,48.51,24.754z"/>
</svg>
