<?xml version="1.0" encoding="utf-8"?>
<!-- Generator: Adobe Illustrator 15.0.0, SVG Export Plug-In . SVG Version: 6.00 Build 0)  -->
<!DOCTYPE svg PUBLIC "-//W3C//DTD SVG 1.1//EN" "http://www.w3.org/Graphics/SVG/1.1/DTD/svg11.dtd" [
	<!ENTITY ns_flows "http://ns.adobe.com/Flows/1.0/">
	<!ENTITY ns_extend "http://ns.adobe.com/Extensibility/1.0/">
	<!ENTITY ns_ai "http://ns.adobe.com/AdobeIllustrator/10.0/">
	<!ENTITY ns_graphs "http://ns.adobe.com/Graphs/1.0/">
]>
<svg version="1.1" id="Layer_1" xmlns:x="&ns_extend;" xmlns:i="&ns_ai;" xmlns:graph="&ns_graphs;"
	 xmlns="http://www.w3.org/2000/svg" xmlns:xlink="http://www.w3.org/1999/xlink" xmlns:a="http://ns.adobe.com/AdobeSVGViewerExtensions/3.0/"
	 x="0px" y="0px" width="64px" height="64px" viewBox="0 0 64 64" enable-background="new 0 0 64 64" xml:space="preserve">
<linearGradient id="SVGID_1_" gradientUnits="userSpaceOnUse" x1="47" y1="12" x2="47" y2="6">
	<stop  offset="0" style="stop-color:#288677"/>
	<stop  offset="1" style="stop-color:#18A891"/>
	<a:midPointStop  offset="0" style="stop-color:#288677"/>
	<a:midPointStop  offset="0.5" style="stop-color:#288677"/>
	<a:midPointStop  offset="1" style="stop-color:#18A891"/>
</linearGradient>
<rect x="44" y="6" fill="url(#SVGID_1_)" width="6" height="6"/>
<linearGradient id="SVGID_2_" gradientUnits="userSpaceOnUse" x1="17" y1="12" x2="17" y2="6">
	<stop  offset="0" style="stop-color:#288677"/>
	<stop  offset="1" style="stop-color:#18A891"/>
	<a:midPointStop  offset="0" style="stop-color:#288677"/>
	<a:midPointStop  offset="0.5" style="stop-color:#288677"/>
	<a:midPointStop  offset="1" style="stop-color:#18A891"/>
</linearGradient>
<rect x="14" y="6" fill="url(#SVGID_2_)" width="6" height="6"/>
<linearGradient id="SVGID_3_" gradientUnits="userSpaceOnUse" x1="32.0005" y1="62" x2="32.0005" y2="12.0005">
	<stop  offset="0" style="stop-color:#288677"/>
	<stop  offset="1" style="stop-color:#18A891"/>
	<a:midPointStop  offset="0" style="stop-color:#288677"/>
	<a:midPointStop  offset="0.5" style="stop-color:#288677"/>
	<a:midPointStop  offset="1" style="stop-color:#18A891"/>
</linearGradient>
<polygon fill="url(#SVGID_3_)" points="56,24 56,31 50,31 50,24 44,24 44,12 38,12 38,18 26,18 26,12 20,12 20,24 14,24 14,31 8,31 
	8,24 2,24 2,41 8,41 8,49 19,49 19,56 13,56 13,62 25,62 25,49 39,49 39,62 51,62 51,56 45,56 45,49 56,49 56,41 62,41 62,24 "/>
<rect x="19" y="32" fill="#302C3B" width="6" height="10"/>
<rect x="39" y="32" fill="#302C3B" width="6" height="10"/>
</svg>
