<?xml version="1.0" encoding="utf-8"?>
<!-- Generator: Adobe Illustrator 24.1.2, SVG Export Plug-In . SVG Version: 6.00 Build 0)  -->
<svg version="1.1" id="Layer_1" xmlns="http://www.w3.org/2000/svg" xmlns:xlink="http://www.w3.org/1999/xlink" x="0px" y="0px"
	 width="64px" height="64px" viewBox="0 0 64 64" style="enable-background:new 0 0 64 64;" xml:space="preserve">
<style type="text/css">
	.st0{fill:url(#SVGID_1_);}
	.st1{fill:url(#SVGID_2_);}
	.st2{fill:url(#SVGID_3_);}
	.st3{fill:url(#SVGID_4_);}
	.st4{fill:url(#SVGID_5_);}
	.st5{fill:url(#SVGID_6_);}
	.st6{fill:url(#SVGID_7_);}
	.st7{fill:url(#SVGID_8_);}
	.st8{fill:url(#SVGID_9_);}
	.st9{fill:url(#SVGID_10_);}
	.st10{fill:url(#SVGID_11_);}
	.st11{fill:#E6EBED;}
	.st12{fill:url(#SVGID_12_);}
	.st13{fill:url(#SVGID_13_);}
	.st14{fill:url(#SVGID_14_);}
	.st15{fill:#1A1626;}
	.st16{fill:url(#SVGID_15_);}
</style>
<linearGradient id="SVGID_1_" gradientUnits="userSpaceOnUse" x1="458.815" y1="436.9703" x2="459.9886" y2="436.9703" gradientTransform="matrix(0.7071 0.7071 -0.7071 0.7071 40.6252 -626.9948)">
	<stop  offset="0" style="stop-color:#CFD8DD"/>
	<stop  offset="0.1801" style="stop-color:#CAD3D8"/>
	<stop  offset="0.4047" style="stop-color:#BAC3C8"/>
	<stop  offset="0.653" style="stop-color:#A1AAAF"/>
	<stop  offset="0.9165" style="stop-color:#7E888D"/>
	<stop  offset="1" style="stop-color:#717B80"/>
</linearGradient>
<polygon class="st0" points="61.71,0.78 48.97,13.65 49.73,14.42 64,0 "/>
<linearGradient id="SVGID_2_" gradientUnits="userSpaceOnUse" x1="458.3661" y1="446.4698" x2="460.603" y2="446.4698" gradientTransform="matrix(0.7071 0.7071 -0.7071 0.7071 40.6252 -626.9948)">
	<stop  offset="0" style="stop-color:#9EF2FF"/>
	<stop  offset="0.223" style="stop-color:#9AEFFC"/>
	<stop  offset="0.454" style="stop-color:#8DE6F2"/>
	<stop  offset="0.6888" style="stop-color:#79D7E2"/>
	<stop  offset="0.9247" style="stop-color:#5CC3CC"/>
	<stop  offset="1" style="stop-color:#51BBC4"/>
</linearGradient>
<polygon class="st1" points="49.29,12.56 48.8,13.06 50.36,14.65 50.86,14.15 "/>
<linearGradient id="SVGID_3_" gradientUnits="userSpaceOnUse" x1="457.6646" y1="448.0131" x2="461.3477" y2="448.0131" gradientTransform="matrix(0.7071 0.7071 -0.7071 0.7071 40.6252 -626.9948)">
	<stop  offset="0" style="stop-color:#9EF2FF"/>
	<stop  offset="0.223" style="stop-color:#9AEFFC"/>
	<stop  offset="0.454" style="stop-color:#8DE6F2"/>
	<stop  offset="0.6888" style="stop-color:#79D7E2"/>
	<stop  offset="0.9247" style="stop-color:#5CC3CC"/>
	<stop  offset="1" style="stop-color:#51BBC4"/>
</linearGradient>
<polygon class="st2" points="50.59,14.42 49.03,12.83 48.19,12.67 46.4,14.48 48.97,17.09 50.77,15.28 "/>
<linearGradient id="SVGID_4_" gradientUnits="userSpaceOnUse" x1="456.5352" y1="452.4287" x2="462.5352" y2="452.4287" gradientTransform="matrix(0.7071 0.7071 -0.7071 0.7071 40.6252 -626.9948)">
	<stop  offset="0" style="stop-color:#9EF2FF"/>
	<stop  offset="0.223" style="stop-color:#9AEFFC"/>
	<stop  offset="0.454" style="stop-color:#8DE6F2"/>
	<stop  offset="0.6888" style="stop-color:#79D7E2"/>
	<stop  offset="0.9247" style="stop-color:#5CC3CC"/>
	<stop  offset="1" style="stop-color:#51BBC4"/>
</linearGradient>
<polygon class="st3" points="49.74,16.32 47.16,13.71 45.81,13.45 40.73,18.6 44.94,22.81 49.99,17.69 "/>
<linearGradient id="SVGID_5_" gradientUnits="userSpaceOnUse" x1="440.5688" y1="460.6129" x2="451.8426" y2="460.6129" gradientTransform="matrix(0.7071 0.7071 -0.7071 0.7071 53.536 -620.9586)">
	<stop  offset="0" style="stop-color:#9EF2FF"/>
	<stop  offset="0.223" style="stop-color:#9AEFFC"/>
	<stop  offset="0.454" style="stop-color:#8DE6F2"/>
	<stop  offset="0.6888" style="stop-color:#79D7E2"/>
	<stop  offset="0.9247" style="stop-color:#5CC3CC"/>
	<stop  offset="1" style="stop-color:#51BBC4"/>
</linearGradient>
<path class="st4" d="M45.89,21.85l-4.21-4.21c0,0-1.25-0.72-1.73-1.06c-0.53-0.38-1.07,0.17-1.07,0.17l7.97,7.97
	c0,0,0.47-0.61,0.07-1.16C46.58,23.09,45.89,21.85,45.89,21.85z"/>
<linearGradient id="SVGID_6_" gradientUnits="userSpaceOnUse" x1="458.8983" y1="447.2632" x2="459.9969" y2="447.2632" gradientTransform="matrix(0.7071 0.7071 -0.7071 0.7071 40.6252 -626.9948)">
	<stop  offset="0" style="stop-color:#9EF2FF"/>
	<stop  offset="0.223" style="stop-color:#9AEFFC"/>
	<stop  offset="0.454" style="stop-color:#8DE6F2"/>
	<stop  offset="0.6888" style="stop-color:#79D7E2"/>
	<stop  offset="0.9247" style="stop-color:#5CC3CC"/>
	<stop  offset="1" style="stop-color:#51BBC4"/>
</linearGradient>
<polygon class="st5" points="49.67,12.94 48.05,14.57 48.82,15.34 50.43,13.71 "/>
<linearGradient id="SVGID_7_" gradientUnits="userSpaceOnUse" x1="458.2763" y1="452.4186" x2="460.6947" y2="452.4186" gradientTransform="matrix(0.7071 0.7071 -0.7071 0.7071 40.6252 -626.9948)">
	<stop  offset="0" style="stop-color:#9EF2FF"/>
	<stop  offset="0.223" style="stop-color:#9AEFFC"/>
	<stop  offset="0.454" style="stop-color:#8DE6F2"/>
	<stop  offset="0.6888" style="stop-color:#79D7E2"/>
	<stop  offset="0.9247" style="stop-color:#5CC3CC"/>
	<stop  offset="1" style="stop-color:#51BBC4"/>
</linearGradient>
<polygon class="st6" points="48.82,15.34 48.05,14.57 47.01,14.72 41.97,19.83 43.64,21.51 48.67,16.4 "/>
<linearGradient id="SVGID_8_" gradientUnits="userSpaceOnUse" x1="451.2728" y1="490.5866" x2="463.6627" y2="490.5866" gradientTransform="matrix(0.7071 0.7071 -0.7071 0.7071 41.6707 -624.9042)">
	<stop  offset="0" style="stop-color:#E6EBED"/>
	<stop  offset="0.5" style="stop-color:#B3BBBF"/>
	<stop  offset="1" style="stop-color:#E6EBED"/>
</linearGradient>
<polygon class="st7" points="21.81,41.98 17.41,37.55 10.41,44.63 14.79,49.05 19.1,53.38 26.09,46.29 "/>
<linearGradient id="SVGID_9_" gradientUnits="userSpaceOnUse" x1="454.2035" y1="495.9415" x2="460.9083" y2="495.9415" gradientTransform="matrix(0.7071 0.7071 -0.7071 0.7071 41.6707 -624.9042)">
	<stop  offset="0" style="stop-color:#E6EBED"/>
	<stop  offset="0.5" style="stop-color:#B3BBBF"/>
	<stop  offset="1" style="stop-color:#E6EBED"/>
</linearGradient>
<polygon class="st8" points="20.21,38.89 4.17,55.03 8.85,59.74 24.88,43.6 "/>
<linearGradient id="SVGID_10_" gradientUnits="userSpaceOnUse" x1="450.8117" y1="492.6119" x2="464.1684" y2="492.6119" gradientTransform="matrix(0.7071 0.7071 -0.7071 0.7071 41.6707 -624.9042)">
	<stop  offset="0" style="stop-color:#E6EBED"/>
	<stop  offset="0.5" style="stop-color:#B3BBBF"/>
	<stop  offset="1" style="stop-color:#E6EBED"/>
</linearGradient>
<polygon class="st9" points="18.86,44.96 14.12,40.18 10.15,44.17 14.89,48.95 19.55,53.64 23.52,49.65 "/>
<linearGradient id="SVGID_11_" gradientUnits="userSpaceOnUse" x1="453.8608" y1="492.8503" x2="461.2324" y2="492.8503" gradientTransform="matrix(0.7071 0.7071 -0.7071 0.7071 41.6707 -624.9042)">
	<stop  offset="0" style="stop-color:#E6EBED"/>
	<stop  offset="0.5" style="stop-color:#B3BBBF"/>
	<stop  offset="1" style="stop-color:#E6EBED"/>
</linearGradient>
<polygon class="st10" points="16.02,42.6 12.21,46.42 17.4,51.64 21.2,47.82 "/>
<polygon class="st11" points="6.8,57.68 6.22,57.09 22.25,40.95 22.84,41.54 "/>
<linearGradient id="SVGID_12_" gradientUnits="userSpaceOnUse" x1="244.3188" y1="-318.5096" x2="261.8496" y2="-318.5096" gradientTransform="matrix(0.7071 0.7071 -0.7071 0.7071 -397.6636 103.645)">
	<stop  offset="0.2424" style="stop-color:#E6EBED"/>
	<stop  offset="1" style="stop-color:#C6CFD4"/>
</linearGradient>
<path class="st12" d="M0.08,52.01l11.7,11.9c0.39,0.4,1.55-0.76,1.16-1.16l-11.7-11.9C0.85,50.45-0.31,51.61,0.08,52.01z"/>
<linearGradient id="SVGID_13_" gradientUnits="userSpaceOnUse" x1="440.0885" y1="474.5936" x2="452.4108" y2="474.5936" gradientTransform="matrix(0.7071 0.7071 -0.7071 0.7071 53.536 -620.9586)">
	<stop  offset="0" style="stop-color:#87B5D4"/>
	<stop  offset="0.0648" style="stop-color:#98C3E1"/>
	<stop  offset="0.1691" style="stop-color:#ACD5F2"/>
	<stop  offset="0.2722" style="stop-color:#B9DFFC"/>
	<stop  offset="0.3717" style="stop-color:#BDE3FF"/>
	<stop  offset="1" style="stop-color:#87B5D4"/>
</linearGradient>
<path class="st13" d="M38.23,16.73L19.64,35.32l8.71,8.71l18.59-18.59c0.22-0.22,0.22-0.58,0-0.81l-7.91-7.91
	C38.81,16.5,38.45,16.5,38.23,16.73z"/>
<radialGradient id="SVGID_14_" cx="444.9371" cy="488.937" r="4.8191" gradientTransform="matrix(0.7071 0.7071 -4.2426 4.2426 1782.1892 -2349.6118)" gradientUnits="userSpaceOnUse">
	<stop  offset="0" style="stop-color:#5F727D"/>
	<stop  offset="0.2522" style="stop-color:#5B6D78"/>
	<stop  offset="0.5593" style="stop-color:#506069"/>
	<stop  offset="0.8936" style="stop-color:#3D4A50"/>
	<stop  offset="1" style="stop-color:#364147"/>
</radialGradient>
<polygon class="st14" points="20.61,34.34 17.41,37.55 26.09,46.29 29.29,43.09 "/>
<polygon class="st15" points="27.27,45.11 23.08,40.79 22.65,41.23 26.84,45.54 "/>
<polygon class="st15" points="28.61,43.78 25.81,40.9 25.38,41.34 28.17,44.21 "/>
<polygon class="st15" points="29.94,42.45 27.13,39.56 26.7,39.99 29.5,42.88 "/>
<polygon class="st15" points="31.27,41.11 28.45,38.21 28.02,38.65 30.84,41.55 "/>
<polygon class="st15" points="32.6,39.78 29.77,36.86 29.34,37.3 32.17,40.21 "/>
<polygon class="st15" points="33.94,38.45 29.68,34.06 29.25,34.5 33.5,38.88 "/>
<polygon class="st15" points="35.27,37.12 32.41,34.17 31.98,34.61 34.83,37.55 "/>
<polygon class="st15" points="36.6,35.78 33.73,32.83 33.3,33.26 36.17,36.22 "/>
<polygon class="st15" points="37.93,34.45 35.04,31.48 34.62,31.92 37.5,34.88 "/>
<polygon class="st15" points="39.27,33.12 36.37,30.13 35.94,30.57 38.83,33.55 "/>
<polygon class="st15" points="40.6,31.78 36.27,27.33 35.85,27.77 40.17,32.22 "/>
<polygon class="st15" points="41.93,30.45 39,27.44 38.58,27.88 41.5,30.88 "/>
<polygon class="st15" points="43.26,29.12 40.32,26.1 39.9,26.53 42.83,29.55 "/>
<polygon class="st15" points="44.6,27.79 41.64,24.75 41.22,25.19 44.16,28.22 "/>
<polygon class="st15" points="45.93,26.45 42.96,23.4 42.53,23.84 45.5,26.89 "/>
<linearGradient id="SVGID_15_" gradientUnits="userSpaceOnUse" x1="242.6219" y1="-330.4194" x2="263.469" y2="-330.4194" gradientTransform="matrix(0.7071 0.7071 -0.7071 0.7071 -397.6636 103.645)">
	<stop  offset="0.2424" style="stop-color:#E6EBED"/>
	<stop  offset="1" style="stop-color:#C6CFD4"/>
</linearGradient>
<path class="st16" d="M7.3,42.39l14.04,14.26c0.39,0.4,1.55-0.77,1.16-1.16L8.47,41.22C8.07,40.82,6.92,41.99,7.3,42.39z"/>
</svg>
