<?xml version="1.0" encoding="utf-8"?>
<!-- Generator: Adobe Illustrator 15.0.0, SVG Export Plug-In . SVG Version: 6.00 Build 0)  -->
<!DOCTYPE svg PUBLIC "-//W3C//DTD SVG 1.1//EN" "http://www.w3.org/Graphics/SVG/1.1/DTD/svg11.dtd" [
	<!ENTITY ns_flows "http://ns.adobe.com/Flows/1.0/">
	<!ENTITY ns_extend "http://ns.adobe.com/Extensibility/1.0/">
	<!ENTITY ns_ai "http://ns.adobe.com/AdobeIllustrator/10.0/">
	<!ENTITY ns_graphs "http://ns.adobe.com/Graphs/1.0/">
]>
<svg version="1.1" id="Layer_1" xmlns:x="&ns_extend;" xmlns:i="&ns_ai;" xmlns:graph="&ns_graphs;"
	 xmlns="http://www.w3.org/2000/svg" xmlns:xlink="http://www.w3.org/1999/xlink" xmlns:a="http://ns.adobe.com/AdobeSVGViewerExtensions/3.0/"
	 x="0px" y="0px" width="64px" height="64px" viewBox="0 0 64 64" enable-background="new 0 0 64 64" xml:space="preserve">
<path fill="#6B4435" d="M38.228,53.752c12.461-4.982,7.57-16.818,7.57-16.818H18.2c0,0-4.889,11.836,7.568,16.818
	c0,0,2.494,0.623,6.23,0.623C35.737,54.375,38.228,53.752,38.228,53.752z"/>
<linearGradient id="SVGID_1_" gradientUnits="userSpaceOnUse" x1="42.8574" y1="54.373" x2="42.8574" y2="17.0958">
	<stop  offset="0.05" style="stop-color:#6B4435"/>
	<stop  offset="0.088" style="stop-color:#6E4637"/>
	<stop  offset="0.467" style="stop-color:#865947"/>
	<stop  offset="0.7" style="stop-color:#8F604D"/>
	<a:midPointStop  offset="0.05" style="stop-color:#6B4435"/>
	<a:midPointStop  offset="0.4" style="stop-color:#6B4435"/>
	<a:midPointStop  offset="0.7" style="stop-color:#8F604D"/>
</linearGradient>
<path fill="url(#SVGID_1_)" d="M43.595,38.197c0.963,4.051-0.275,11.992-5.367,15.555c7.477-1.246,9.26-8.305,9.26-13.721
	L43.595,38.197z"/>
<linearGradient id="SVGID_2_" gradientUnits="userSpaceOnUse" x1="1759.6729" y1="54.373" x2="1759.6729" y2="17.0958" gradientTransform="matrix(-1 0 0 1 1780.8145 0)">
	<stop  offset="0.05" style="stop-color:#6B4435"/>
	<stop  offset="0.088" style="stop-color:#6E4637"/>
	<stop  offset="0.467" style="stop-color:#865947"/>
	<stop  offset="0.7" style="stop-color:#8F604D"/>
	<a:midPointStop  offset="0.05" style="stop-color:#6B4435"/>
	<a:midPointStop  offset="0.4" style="stop-color:#6B4435"/>
	<a:midPointStop  offset="0.7" style="stop-color:#8F604D"/>
</linearGradient>
<path fill="url(#SVGID_2_)" d="M20.405,38.197c-0.963,4.051,0.275,11.992,5.365,15.555c-7.475-1.246-9.258-8.305-9.258-13.721
	L20.405,38.197z"/>
<path fill="#E81C27" d="M15.545,54.516c2.002-1.039,10.359-3.664,10.359-3.664l12.177-0.028c0,0,8.43,2.646,10.419,3.69
	c2.893,1.51,3.5,3.57,3.5,5.519c0,2.623-40,2.623-40,0C12,58.081,12.646,56.021,15.545,54.516z"/>
<path fill="#302C3B" d="M40.442,51.34l0.732,2.221c0,0,6.256,2.461,7.729,3.105c1.463,0.641,0.873-1.426-0.279-2.172
	C48.194,54.211,42.987,52.035,40.442,51.34z"/>
<path fill="#FFE12C" d="M43.101,52.947c0.482,0.889-0.9,0.844-1.418-0.029C41.103,51.949,42.597,52.025,43.101,52.947z"/>
<path fill="#302C3B" d="M23.56,51.34l-0.734,2.221c0,0-6.254,2.461-7.729,3.105c-1.461,0.641-0.869-1.426,0.279-2.172
	C15.806,54.211,21.015,52.035,23.56,51.34z"/>
<path fill="#FFE12C" d="M20.901,52.947c-0.484,0.889,0.896,0.844,1.418-0.029C22.899,51.949,21.407,52.025,20.901,52.947z"/>
<path fill="#FFE12C" d="M35.136,59.703c0,1.098-1.643,1.098-1.643,0C33.493,58.609,35.136,58.609,35.136,59.703z"/>
<path fill="#302C3B" d="M24.829,49.125c0-0.705,0-2.857,0-3.746h0.906c-0.563,6.85,5.48,6.709,5.48,6.709v3.041
	C31.214,55.129,24.829,55.232,24.829,49.125z"/>
<path fill="#E6EBEF" d="M24.829,45.379h0.906c0,6.533,5.48,6.709,5.48,6.709v0.729C28.923,52.816,24.829,50.934,24.829,45.379z"/>
<path fill="#FFE12C" d="M29.583,53.898c-0.457,0.641-1.643-0.064-1.182-0.709C28.858,52.549,30.044,53.258,29.583,53.898z"/>
<path fill="#302C3B" d="M39.175,49.125c0-0.705,0-2.857,0-3.746h-0.908c0.545,6.773-5.482,6.709-5.482,6.709v3.041
	C32.784,55.129,39.175,55.232,39.175,49.125z"/>
<path fill="#E6EBEF" d="M39.175,45.379h-0.908c0,6.533-5.482,6.709-5.482,6.709v0.729C35.083,52.816,39.175,50.934,39.175,45.379z"
	/>
<path fill="#FFE12C" d="M34.419,53.898c0.457,0.641,1.641-0.064,1.184-0.709C35.144,52.549,33.96,53.258,34.419,53.898z"/>
<rect x="31.216" y="51.816" fill="#E6EBEF" width="0.787" height="10.184"/>
<rect x="31.999" y="51.816" fill="#CFD8DD" width="0.787" height="10.184"/>
<path fill="#B88A6F" d="M31.999,18.868c-9.039,0-13.393,7.361-12.85,16.829c0.111,1.902,0.643,4.646,1.295,6.998
	c1.355,4.889,8.51,9.811,11.555,9.811s10.199-4.922,11.557-9.811c0.652-2.352,1.182-5.096,1.293-6.998
	C45.394,26.229,41.042,18.868,31.999,18.868z"/>
<path fill="#8C5F44" d="M34.032,41.824c-0.217-0.15-0.721,0.082-2.033,0.082c-1.311,0-1.816-0.232-2.031-0.082
	c-0.258,0.182,0.15,1,2.031,1C33.878,42.824,34.29,42.006,34.032,41.824z"/>
<path id="Path_1545_" fill="#FFFFFF" d="M29.989,36.098c0.076,0.598-0.33,1.309-1.455,1.838c-0.715,0.34-2.199,0.738-4.152-0.086
	c-0.873-0.369-1.727-1.518-1.65-2.152C23.79,33.701,28.997,33.41,29.989,36.098z"/>
<linearGradient id="Oval_1_" gradientUnits="userSpaceOnUse" x1="-424.3965" y1="476.4648" x2="-424.3965" y2="477.0879" gradientTransform="matrix(6.5701 0 0 -6.5701 2814.7805 3168.5281)">
	<stop  offset="0" style="stop-color:#A6694A"/>
	<stop  offset="1" style="stop-color:#4F2A1E"/>
	<a:midPointStop  offset="0" style="stop-color:#A6694A"/>
	<a:midPointStop  offset="0.5" style="stop-color:#A6694A"/>
	<a:midPointStop  offset="1" style="stop-color:#4F2A1E"/>
</linearGradient>
<circle id="Oval_198_" fill="url(#Oval_1_)" cx="26.454" cy="36.058" r="2.046"/>
<path id="Path_1544_" fill="#1A1626" d="M25.433,36.021c0,1.414,2.047,1.414,2.047,0C27.479,34.707,25.433,34.707,25.433,36.021z"/>
<path id="Path_1543_" fill="#AB968C" d="M25.12,35.447c0,0.594,0.857,0.594,0.857,0C25.978,34.898,25.12,34.898,25.12,35.447z"/>
<path id="Path_1542_" fill="#45332C" d="M29.999,36.178c-0.832-2.672-6.496-2.275-7.268-0.48
	C23.017,33.398,29.29,32.791,29.999,36.178z"/>
<path id="Path_1541_" fill="#FFFFFF" d="M34.011,36.098c-0.076,0.598,0.33,1.309,1.455,1.838c0.715,0.34,2.199,0.738,4.15-0.086
	c0.877-0.369,1.729-1.518,1.652-2.152C40.21,33.701,35.003,33.41,34.011,36.098z"/>
<linearGradient id="Oval_2_" gradientUnits="userSpaceOnUse" x1="-425.4141" y1="476.4648" x2="-425.4141" y2="477.0879" gradientTransform="matrix(6.5701 0 0 -6.5701 2832.511 3168.5281)">
	<stop  offset="0" style="stop-color:#A6694A"/>
	<stop  offset="1" style="stop-color:#4F2A1E"/>
	<a:midPointStop  offset="0" style="stop-color:#A6694A"/>
	<a:midPointStop  offset="0.5" style="stop-color:#A6694A"/>
	<a:midPointStop  offset="1" style="stop-color:#4F2A1E"/>
</linearGradient>
<circle id="Oval_197_" fill="url(#Oval_2_)" cx="37.499" cy="36.058" r="2.046"/>
<path id="Path_1540_" fill="#1A1626" d="M36.478,36.021c0,1.414,2.045,1.414,2.045,0C38.522,34.707,36.478,34.707,36.478,36.021z"/>
<path id="Path_1539_" fill="#AB968C" d="M36.165,35.447c0,0.594,0.857,0.594,0.857,0C37.022,34.898,36.165,34.898,36.165,35.447z"/>
<path id="Path_1538_" fill="#45332C" d="M34.001,36.178c0.832-2.67,6.492-2.287,7.268-0.48
	C40.981,33.398,34.71,32.791,34.001,36.178z"/>
<linearGradient id="SVGID_3_" gradientUnits="userSpaceOnUse" x1="32.0005" y1="54.373" x2="32.0005" y2="17.0923">
	<stop  offset="0.05" style="stop-color:#6B4435"/>
	<stop  offset="0.088" style="stop-color:#6E4637"/>
	<stop  offset="0.467" style="stop-color:#865947"/>
	<stop  offset="0.7" style="stop-color:#8F604D"/>
	<a:midPointStop  offset="0.05" style="stop-color:#6B4435"/>
	<a:midPointStop  offset="0.4" style="stop-color:#6B4435"/>
	<a:midPointStop  offset="0.7" style="stop-color:#8F604D"/>
</linearGradient>
<path fill="url(#SVGID_3_)" d="M42.175,20.19c1.031-1.475-7.711-4.586-15.967-2.484c-8.246,1.889-9.695,14.244-9.695,22.325
	c0.672,0.584,2.055-0.875,2.893-1.834c0.34-1.414,0.879-2.869,1.383-4.377c6.191-3.587,13.199-4.431,18.064-8.724
	c-0.623,1.871,2.674,4.227,4.359,8.724c0.547,1.457,1.035,2.918,1.383,4.377c1.375,1.264,1.098,1.861,2.893,1.834
	C47.487,33.197,45.479,19.235,42.175,20.19z"/>
<path fill="#8C5F44" d="M36.749,46.334c-3.286,2.27-6.355,2.092-9.5,0C30.517,45.787,33.481,45.787,36.749,46.334z"/>
<path fill="#6E4A35" d="M31.999,45.592c-1.386-0.443-2.59,0.449-4.75,0.742c1.165,0.244,3.082,0.107,4.75,0.186
	c1.668-0.078,3.585,0.059,4.75-0.186C34.591,46.041,33.385,45.148,31.999,45.592z"/>
<path fill="#1A1626" d="M43.47,30.817v8.672c0,5.801-4.16,10.188-11.473,10.188c-7.307,0-11.473-4.388-11.473-10.188v-8.672h-1.912
	v8.672c0,6.657,4.971,12.065,13.385,12.065c8.412,0,13.387-5.408,13.387-12.065v-8.672H43.47z"/>
<path fill="#EBC16C" d="M19.55,34.715c0.389,0,0.705,0.317,0.705,0.707s-0.316,0.707-0.705,0.707c-0.391,0-0.709-0.317-0.709-0.707
	S19.159,34.715,19.55,34.715 M19.55,34.465c-0.529,0-0.959,0.429-0.959,0.957s0.43,0.957,0.959,0.957
	c0.527,0,0.955-0.429,0.955-0.957S20.077,34.465,19.55,34.465L19.55,34.465z"/>
<path fill="#EBAB2A" d="M19.548,35.916c0.391,0,0.707,0.317,0.707,0.707s-0.316,0.707-0.707,0.707c-0.389,0-0.707-0.317-0.707-0.707
	S19.159,35.916,19.548,35.916 M19.548,35.666c-0.529,0-0.957,0.429-0.957,0.957s0.428,0.957,0.957,0.957
	c0.527,0,0.957-0.429,0.957-0.957S20.075,35.666,19.548,35.666L19.548,35.666z"/>
<path fill="#EBC16C" d="M19.55,37.117c0.389,0,0.705,0.317,0.705,0.707s-0.316,0.707-0.705,0.707c-0.391,0-0.709-0.317-0.709-0.707
	S19.159,37.117,19.55,37.117 M19.55,36.867c-0.529,0-0.959,0.429-0.959,0.957s0.43,0.957,0.959,0.957
	c0.527,0,0.955-0.429,0.955-0.957S20.077,36.867,19.55,36.867L19.55,36.867z"/>
<path fill="#EBAB2A" d="M19.548,38.317c0.391,0,0.707,0.318,0.707,0.707c0,0.391-0.316,0.707-0.707,0.707
	c-0.389,0-0.707-0.316-0.707-0.707C18.841,38.636,19.159,38.317,19.548,38.317 M19.548,38.067c-0.529,0-0.957,0.43-0.957,0.957
	c0,0.529,0.428,0.957,0.957,0.957c0.527,0,0.957-0.428,0.957-0.957C20.505,38.497,20.075,38.067,19.548,38.067L19.548,38.067z"/>
<path fill="#EBC16C" d="M19.552,39.516c0.389,0,0.705,0.317,0.705,0.707s-0.316,0.707-0.705,0.707c-0.391,0-0.709-0.317-0.709-0.707
	S19.161,39.516,19.552,39.516 M19.552,39.266c-0.529,0-0.959,0.429-0.959,0.957s0.43,0.957,0.959,0.957
	c0.527,0,0.955-0.429,0.955-0.957S20.079,39.266,19.552,39.266L19.552,39.266z"/>
<path fill="#EBAB2A" d="M19.646,40.673c0.389,0,0.705,0.317,0.705,0.707s-0.316,0.707-0.705,0.707c-0.391,0-0.707-0.317-0.707-0.707
	S19.255,40.673,19.646,40.673 M19.646,40.423c-0.529,0-0.957,0.429-0.957,0.957s0.428,0.957,0.957,0.957
	c0.527,0,0.955-0.429,0.955-0.957S20.173,40.423,19.646,40.423L19.646,40.423z"/>
<path fill="#EBC16C" d="M19.874,41.79c0.389,0,0.705,0.317,0.705,0.707s-0.316,0.707-0.705,0.707c-0.391,0-0.709-0.317-0.709-0.707
	S19.483,41.79,19.874,41.79 M19.874,41.54c-0.529,0-0.959,0.429-0.959,0.957s0.43,0.957,0.959,0.957
	c0.527,0,0.955-0.429,0.955-0.957S20.401,41.54,19.874,41.54L19.874,41.54z"/>
<path fill="#EBAB2A" d="M20.229,42.86c0.389,0,0.705,0.317,0.705,0.707s-0.316,0.707-0.705,0.707c-0.391,0-0.707-0.317-0.707-0.707
	S19.839,42.86,20.229,42.86 M20.229,42.61c-0.529,0-0.957,0.429-0.957,0.957s0.428,0.957,0.957,0.957
	c0.527,0,0.955-0.429,0.955-0.957S20.757,42.61,20.229,42.61L20.229,42.61z"/>
<path fill="#EBC16C" d="M20.706,43.879c0.391,0,0.707,0.317,0.707,0.707s-0.316,0.707-0.707,0.707c-0.389,0-0.707-0.317-0.707-0.707
	S20.317,43.879,20.706,43.879 M20.706,43.629c-0.529,0-0.957,0.429-0.957,0.957s0.428,0.957,0.957,0.957
	c0.527,0,0.957-0.429,0.957-0.957S21.233,43.629,20.706,43.629L20.706,43.629z"/>
<path fill="#EBAB2A" d="M21.298,44.839c0.391,0,0.707,0.318,0.707,0.707c0,0.391-0.316,0.707-0.707,0.707
	c-0.389,0-0.707-0.316-0.707-0.707C20.591,45.157,20.909,44.839,21.298,44.839 M21.298,44.589c-0.529,0-0.957,0.43-0.957,0.957
	c0,0.529,0.428,0.957,0.957,0.957c0.527,0,0.957-0.428,0.957-0.957C22.255,45.019,21.825,44.589,21.298,44.589L21.298,44.589z"/>
<path fill="#EBC16C" d="M21.997,45.735c0.391,0,0.707,0.318,0.707,0.707c0,0.391-0.316,0.707-0.707,0.707
	c-0.389,0-0.707-0.316-0.707-0.707C21.29,46.054,21.608,45.735,21.997,45.735 M21.997,45.485c-0.529,0-0.957,0.43-0.957,0.957
	c0,0.529,0.428,0.957,0.957,0.957c0.527,0,0.957-0.428,0.957-0.957C22.954,45.915,22.524,45.485,21.997,45.485L21.997,45.485z"/>
<path fill="#EBAB2A" d="M22.796,46.563c0.391,0,0.707,0.317,0.707,0.707s-0.316,0.707-0.707,0.707c-0.389,0-0.707-0.317-0.707-0.707
	S22.407,46.563,22.796,46.563 M22.796,46.313c-0.529,0-0.957,0.429-0.957,0.957s0.428,0.957,0.957,0.957
	c0.527,0,0.957-0.429,0.957-0.957S23.323,46.313,22.796,46.313L22.796,46.313z"/>
<path fill="#EBC16C" d="M23.69,47.313c0.389,0,0.705,0.318,0.705,0.707c0,0.391-0.316,0.707-0.705,0.707
	c-0.391,0-0.709-0.316-0.709-0.707C22.981,47.632,23.3,47.313,23.69,47.313 M23.69,47.063c-0.529,0-0.959,0.43-0.959,0.957
	c0,0.529,0.43,0.957,0.959,0.957c0.527,0,0.955-0.428,0.955-0.957C24.646,47.493,24.218,47.063,23.69,47.063L23.69,47.063z"/>
<path fill="#EBAB2A" d="M24.671,47.983c0.389,0,0.705,0.318,0.705,0.707c0,0.391-0.316,0.707-0.705,0.707
	c-0.391,0-0.707-0.316-0.707-0.707C23.964,48.302,24.28,47.983,24.671,47.983 M24.671,47.733c-0.529,0-0.957,0.43-0.957,0.957
	c0,0.529,0.428,0.957,0.957,0.957c0.527,0,0.955-0.428,0.955-0.957C25.626,48.163,25.198,47.733,24.671,47.733L24.671,47.733z"/>
<path fill="#EBC16C" d="M25.731,48.566c0.389,0,0.705,0.317,0.705,0.707s-0.316,0.707-0.705,0.707c-0.391,0-0.709-0.317-0.709-0.707
	S25.341,48.566,25.731,48.566 M25.731,48.316c-0.529,0-0.959,0.429-0.959,0.957s0.43,0.957,0.959,0.957
	c0.527,0,0.955-0.429,0.955-0.957S26.259,48.316,25.731,48.316L25.731,48.316z"/>
<path fill="#EBAB2A" d="M26.864,49.057c0.391,0,0.707,0.317,0.707,0.707s-0.316,0.707-0.707,0.707c-0.389,0-0.707-0.317-0.707-0.707
	S26.476,49.057,26.864,49.057 M26.864,48.807c-0.529,0-0.957,0.429-0.957,0.957s0.428,0.957,0.957,0.957
	c0.527,0,0.957-0.429,0.957-0.957S27.392,48.807,26.864,48.807L26.864,48.807z"/>
<path fill="#EBC16C" d="M28.065,49.448c0.391,0,0.707,0.317,0.707,0.707s-0.316,0.707-0.707,0.707c-0.389,0-0.707-0.317-0.707-0.707
	S27.677,49.448,28.065,49.448 M28.065,49.198c-0.529,0-0.957,0.429-0.957,0.957s0.428,0.957,0.957,0.957
	c0.527,0,0.957-0.429,0.957-0.957S28.593,49.198,28.065,49.198L28.065,49.198z"/>
<path fill="#EBAB2A" d="M29.327,49.734c0.389,0,0.705,0.317,0.705,0.707s-0.316,0.707-0.705,0.707c-0.391,0-0.707-0.317-0.707-0.707
	S28.937,49.734,29.327,49.734 M29.327,49.484c-0.529,0-0.957,0.429-0.957,0.957s0.428,0.957,0.957,0.957
	c0.527,0,0.955-0.429,0.955-0.957S29.854,49.484,29.327,49.484L29.327,49.484z"/>
<path fill="#EBC16C" d="M30.642,49.911c0.389,0,0.705,0.317,0.705,0.707s-0.316,0.707-0.705,0.707c-0.391,0-0.709-0.317-0.709-0.707
	S30.251,49.911,30.642,49.911 M30.642,49.661c-0.529,0-0.959,0.429-0.959,0.957s0.43,0.957,0.959,0.957
	c0.527,0,0.955-0.429,0.955-0.957S31.169,49.661,30.642,49.661L30.642,49.661z"/>
<path fill="#EBAB2A" d="M32.001,49.971c0.389,0,0.705,0.317,0.705,0.707s-0.316,0.707-0.705,0.707c-0.391,0-0.709-0.317-0.709-0.707
	S31.61,49.971,32.001,49.971 M32.001,49.721c-0.531,0-0.959,0.429-0.959,0.957s0.428,0.957,0.959,0.957
	c0.525,0,0.955-0.429,0.955-0.957S32.526,49.721,32.001,49.721L32.001,49.721z"/>
<path fill="#EBC16C" d="M33.36,49.911c0.391,0,0.707,0.316,0.707,0.707c0,0.389-0.316,0.707-0.707,0.707
	c-0.389,0-0.707-0.318-0.707-0.707C32.653,50.228,32.972,49.911,33.36,49.911 M33.36,49.661c-0.529,0-0.957,0.428-0.957,0.957
	c0,0.527,0.428,0.957,0.957,0.957c0.527,0,0.957-0.43,0.957-0.957C34.317,50.089,33.888,49.661,33.36,49.661L33.36,49.661z"/>
<path fill="#EBAB2A" d="M34.675,49.734c0.389,0,0.705,0.317,0.705,0.707s-0.316,0.707-0.705,0.707c-0.391,0-0.709-0.317-0.709-0.707
	S34.284,49.734,34.675,49.734 M34.675,49.484c-0.529,0-0.959,0.429-0.959,0.957s0.43,0.957,0.959,0.957
	c0.527,0,0.955-0.429,0.955-0.957S35.202,49.484,34.675,49.484L34.675,49.484z"/>
<path fill="#EBC16C" d="M35.935,49.448c0.391,0,0.707,0.317,0.707,0.707s-0.316,0.707-0.707,0.707c-0.389,0-0.707-0.317-0.707-0.707
	S35.546,49.448,35.935,49.448 M35.935,49.198c-0.529,0-0.957,0.429-0.957,0.957s0.428,0.957,0.957,0.957
	c0.527,0,0.957-0.429,0.957-0.957S36.462,49.198,35.935,49.198L35.935,49.198z"/>
<path fill="#EBAB2A" d="M37.138,49.057c0.389,0,0.705,0.317,0.705,0.707s-0.316,0.707-0.705,0.707c-0.391,0-0.709-0.317-0.709-0.707
	S36.747,49.057,37.138,49.057 M37.138,48.807c-0.531,0-0.959,0.429-0.959,0.957s0.428,0.957,0.959,0.957
	c0.525,0,0.955-0.429,0.955-0.957S37.663,48.807,37.138,48.807L37.138,48.807z"/>
<path fill="#EBC16C" d="M38.271,48.566c0.389,0,0.705,0.317,0.705,0.707s-0.316,0.707-0.705,0.707c-0.391,0-0.709-0.317-0.709-0.707
	S37.88,48.566,38.271,48.566 M38.271,48.316c-0.529,0-0.959,0.429-0.959,0.957s0.43,0.957,0.959,0.957
	c0.527,0,0.955-0.429,0.955-0.957S38.798,48.316,38.271,48.316L38.271,48.316z"/>
<path fill="#EBAB2A" d="M39.331,47.983c0.389,0,0.705,0.318,0.705,0.707c0,0.391-0.316,0.707-0.705,0.707
	c-0.391,0-0.709-0.316-0.709-0.707C38.622,48.302,38.94,47.983,39.331,47.983 M39.331,47.733c-0.529,0-0.959,0.43-0.959,0.957
	c0,0.529,0.43,0.957,0.959,0.957c0.527,0,0.955-0.428,0.955-0.957C40.286,48.163,39.858,47.733,39.331,47.733L39.331,47.733z"/>
<path fill="#EBC16C" d="M40.312,47.313c0.389,0,0.705,0.317,0.705,0.707s-0.316,0.707-0.705,0.707c-0.391,0-0.709-0.317-0.709-0.707
	S39.921,47.313,40.312,47.313 M40.312,47.063c-0.529,0-0.959,0.429-0.959,0.957s0.43,0.957,0.959,0.957
	c0.527,0,0.955-0.429,0.955-0.957S40.839,47.063,40.312,47.063L40.312,47.063z"/>
<path fill="#EBAB2A" d="M41.204,46.563c0.389,0,0.705,0.317,0.705,0.707s-0.316,0.707-0.705,0.707c-0.391,0-0.709-0.317-0.709-0.707
	S40.813,46.563,41.204,46.563 M41.204,46.313c-0.529,0-0.959,0.429-0.959,0.957s0.43,0.957,0.959,0.957
	c0.527,0,0.955-0.429,0.955-0.957S41.731,46.313,41.204,46.313L41.204,46.313z"/>
<path fill="#EBC16C" d="M42.003,45.735c0.391,0,0.707,0.318,0.707,0.707c0,0.391-0.316,0.707-0.707,0.707
	c-0.389,0-0.707-0.316-0.707-0.707C41.296,46.054,41.614,45.735,42.003,45.735 M42.003,45.485c-0.529,0-0.957,0.43-0.957,0.957
	c0,0.529,0.428,0.957,0.957,0.957c0.527,0,0.957-0.428,0.957-0.957C42.96,45.915,42.53,45.485,42.003,45.485L42.003,45.485z"/>
<path fill="#EBAB2A" d="M42.702,44.839c0.389,0,0.705,0.317,0.705,0.707s-0.316,0.707-0.705,0.707c-0.391,0-0.709-0.317-0.709-0.707
	S42.312,44.839,42.702,44.839 M42.702,44.589c-0.529,0-0.959,0.429-0.959,0.957s0.43,0.957,0.959,0.957
	c0.527,0,0.955-0.429,0.955-0.957S43.229,44.589,42.702,44.589L42.702,44.589z"/>
<path fill="#EBC16C" d="M43.294,43.879c0.389,0,0.705,0.317,0.705,0.707s-0.316,0.707-0.705,0.707c-0.391,0-0.709-0.317-0.709-0.707
	S42.903,43.879,43.294,43.879 M43.294,43.629c-0.529,0-0.959,0.429-0.959,0.957s0.43,0.957,0.959,0.957
	c0.527,0,0.955-0.429,0.955-0.957S43.821,43.629,43.294,43.629L43.294,43.629z"/>
<path fill="#EBAB2A" d="M43.771,42.86c0.389,0,0.705,0.317,0.705,0.707s-0.316,0.707-0.705,0.707c-0.391,0-0.709-0.317-0.709-0.707
	S43.38,42.86,43.771,42.86 M43.771,42.61c-0.529,0-0.959,0.429-0.959,0.957s0.43,0.957,0.959,0.957c0.527,0,0.955-0.429,0.955-0.957
	S44.298,42.61,43.771,42.61L43.771,42.61z"/>
<path fill="#EBC16C" d="M44.126,41.79c0.391,0,0.707,0.317,0.707,0.707s-0.316,0.707-0.707,0.707c-0.389,0-0.707-0.317-0.707-0.707
	S43.737,41.79,44.126,41.79 M44.126,41.54c-0.529,0-0.957,0.429-0.957,0.957s0.428,0.957,0.957,0.957
	c0.527,0,0.957-0.429,0.957-0.957S44.653,41.54,44.126,41.54L44.126,41.54z"/>
<path fill="#EBAB2A" d="M44.356,40.673c0.389,0,0.705,0.317,0.705,0.707s-0.316,0.707-0.705,0.707c-0.391,0-0.709-0.317-0.709-0.707
	S43.966,40.673,44.356,40.673 M44.356,40.423c-0.531,0-0.959,0.429-0.959,0.957s0.428,0.957,0.959,0.957
	c0.525,0,0.955-0.429,0.955-0.957S44.882,40.423,44.356,40.423L44.356,40.423z"/>
<path fill="#EBC16C" d="M44.448,39.515c0.391,0,0.707,0.318,0.707,0.707c0,0.391-0.316,0.707-0.707,0.707
	c-0.389,0-0.707-0.316-0.707-0.707C43.741,39.833,44.06,39.515,44.448,39.515 M44.448,39.265c-0.529,0-0.957,0.43-0.957,0.957
	c0,0.529,0.428,0.957,0.957,0.957c0.527,0,0.957-0.428,0.957-0.957C45.405,39.694,44.976,39.265,44.448,39.265L44.448,39.265z"/>
<path fill="#EBAB2A" d="M44.452,38.317c0.389,0,0.705,0.318,0.705,0.707c0,0.391-0.316,0.707-0.705,0.707
	c-0.391,0-0.709-0.316-0.709-0.707C43.743,38.636,44.062,38.317,44.452,38.317 M44.452,38.067c-0.531,0-0.959,0.43-0.959,0.957
	c0,0.529,0.428,0.957,0.959,0.957c0.525,0,0.955-0.428,0.955-0.957C45.407,38.497,44.978,38.067,44.452,38.067L44.452,38.067z"/>
<path fill="#EBC16C" d="M44.45,37.117c0.391,0,0.707,0.317,0.707,0.707s-0.316,0.707-0.707,0.707c-0.389,0-0.707-0.317-0.707-0.707
	S44.062,37.117,44.45,37.117 M44.45,36.867c-0.529,0-0.957,0.429-0.957,0.957s0.428,0.957,0.957,0.957
	c0.527,0,0.957-0.429,0.957-0.957S44.978,36.867,44.45,36.867L44.45,36.867z"/>
<path fill="#EBAB2A" d="M44.452,35.916c0.389,0,0.705,0.317,0.705,0.707s-0.316,0.707-0.705,0.707c-0.391,0-0.709-0.317-0.709-0.707
	S44.062,35.916,44.452,35.916 M44.452,35.666c-0.531,0-0.959,0.429-0.959,0.957s0.428,0.957,0.959,0.957
	c0.525,0,0.955-0.429,0.955-0.957S44.978,35.666,44.452,35.666L44.452,35.666z"/>
<path fill="#EBC16C" d="M44.45,34.715c0.391,0,0.707,0.317,0.707,0.707s-0.316,0.707-0.707,0.707c-0.389,0-0.707-0.317-0.707-0.707
	S44.062,34.715,44.45,34.715 M44.45,34.465c-0.529,0-0.957,0.429-0.957,0.957s0.428,0.957,0.957,0.957
	c0.527,0,0.957-0.429,0.957-0.957S44.978,34.465,44.45,34.465L44.45,34.465z"/>
<linearGradient id="SVGID_4_" gradientUnits="userSpaceOnUse" x1="15" y1="18.0005" x2="49" y2="18.0005">
	<stop  offset="0" style="stop-color:#383345"/>
	<stop  offset="1" style="stop-color:#1A1626"/>
	<a:midPointStop  offset="0" style="stop-color:#383345"/>
	<a:midPointStop  offset="0.5" style="stop-color:#383345"/>
	<a:midPointStop  offset="1" style="stop-color:#1A1626"/>
</linearGradient>
<path fill="url(#SVGID_4_)" d="M49,16.992c-0.022-0.221-0.343-1.047-1.17-2.563c0.694-0.021,1.124,0.224,1.11,0.071
	c-0.02-0.221-0.283-1.135-1.11-2.65c0.694-0.02,1.183,0.063,1.17-0.089c-0.023-0.239-0.281-0.823-1.272-2.521
	c0.631-0.277,1.162-0.342,1.091-0.477c-0.107-0.201-0.704-0.932-2.117-2.045c0.523-0.576,1.094-0.832,0.991-0.926
	c-0.153-0.142-1.034-0.751-2.863-1.179c0.36-0.654,0.73-1.151,0.607-1.213c-0.168-0.088-1.147-0.166-2.725-0.139
	c0.175-0.721,0.382-1.161,0.252-1.198c-0.199-0.06-1.082-0.211-2.865,0.18c0.035-0.855,0.332-1.315,0.187-1.335
	c-0.212-0.032-1.174,0.02-2.944,0.709c-0.057-0.838,0.123-1.358-0.021-1.361c-0.205-0.004-1.222,0.306-2.815,1.133
	C34.438,0.561,34.592-0.006,34.471,0C34.286,0.009,33.464,0.198,32,1.339C30.536,0.198,29.714,0.009,29.529,0
	c-0.121-0.006,0.033,0.561-0.033,1.391c-1.594-0.827-2.61-1.137-2.815-1.133c-0.145,0.003,0.035,0.523-0.021,1.361
	c-1.771-0.689-2.732-0.741-2.944-0.709c-0.146,0.02,0.151,0.479,0.187,1.335c-1.783-0.391-2.666-0.239-2.865-0.18
	c-0.13,0.037,0.077,0.478,0.252,1.198c-1.578-0.027-2.557,0.051-2.725,0.139c-0.123,0.062,0.247,0.559,0.607,1.213
	c-1.829,0.428-2.71,1.037-2.863,1.179c-0.103,0.094,0.468,0.35,0.991,0.926c-1.414,1.113-2.01,1.844-2.117,2.045
	c-0.071,0.135,0.46,0.199,1.091,0.477c-0.991,1.697-1.249,2.281-1.272,2.521c-0.013,0.152,0.476,0.069,1.17,0.089
	c-0.827,1.516-1.091,2.43-1.11,2.65c-0.014,0.152,0.416-0.092,1.11-0.071c-0.827,1.516-1.147,2.342-1.17,2.563
	c-0.013,0.152,0.476-0.004,1.17,0.017c-0.827,1.516-1.09,2.419-1.108,2.641c-0.016,0.151,0.414-0.082,1.108-0.063
	c-0.827,1.517-1.058,2.3-1.075,2.521c-0.015,0.152,0.381,0.039,1.075,0.059c-0.827,1.517-1.047,2.269-1.067,2.489
	c-0.013,0.152,0.373,0.07,1.067,0.09c-0.827,1.516-1.029,2.206-1.048,2.427c-0.017,0.152,0.354,0.133,1.048,0.152
	c-0.827,1.516-1.04,2.242-1.058,2.463c-0.016,0.152,0.363,0.096,1.058,0.116c-0.827,1.516-0.993,2.313-1.014,2.534
	c-0.016,0.161,0.375-0.039,1.136,0.054c-0.533,1.063-0.694,2.008-0.666,2.178c0.018,0.122,1.351-0.275,1.351-0.275
	s-0.313,1.548-0.176,1.551c0.163,0.002,1.241-0.37,2.184-1.024c0.226,0.618,0.271,1.08,0.389,1.081
	c0.271,0.003,0.699-0.543,1.64-1.811c0.358,0.718,0.776,1.15,0.91,1.093c0.196-0.082,0.434-0.537,1.577-1.933
	c0.15,0.701,0.43,1.298,0.563,1.264c0.209-0.051,0.935-0.493,2.266-1.695c0.221,0.715,0.479,1.237,0.631,1.213
	c0.216-0.032,0.787-0.396,2.246-1.333c0.128,0.74,0.095,1.233,0.234,1.217c0.234-0.022,1.454-0.435,2.561-1.573
	c1.106,1.138,2.326,1.55,2.561,1.573c0.14,0.016,0.106-0.478,0.234-1.217c1.459,0.937,2.03,1.301,2.246,1.333
	c0.151,0.023,0.41-0.498,0.631-1.213c1.331,1.202,2.057,1.644,2.266,1.695c0.133,0.034,0.412-0.563,0.563-1.264
	c1.144,1.396,1.381,1.851,1.577,1.933c0.134,0.058,0.552-0.375,0.91-1.093c0.94,1.268,1.369,1.813,1.64,1.811
	c0.118-0.001,0.163-0.463,0.389-1.081c0.942,0.654,2.021,1.026,2.184,1.024c0.138-0.003-0.176-1.551-0.176-1.551
	s1.333,0.397,1.351,0.275c0.028-0.17-0.133-1.115-0.666-2.178c0.761-0.093,1.151,0.107,1.136-0.054
	c-0.021-0.221-0.187-1.018-1.014-2.534c0.694-0.021,1.073,0.036,1.058-0.116c-0.018-0.221-0.23-0.947-1.058-2.463
	c0.694-0.02,1.064,0,1.048-0.152c-0.019-0.221-0.221-0.911-1.048-2.427c0.694-0.02,1.08,0.063,1.067-0.09
	c-0.021-0.221-0.24-0.973-1.067-2.489c0.694-0.02,1.091,0.094,1.075-0.059c-0.018-0.221-0.248-1.004-1.075-2.521
	c0.694-0.02,1.124,0.214,1.108,0.063c-0.018-0.222-0.281-1.125-1.108-2.641C48.524,16.988,49.013,17.145,49,16.992z"/>
</svg>
