<?xml version="1.0" encoding="utf-8"?>
<!-- Generator: Adobe Illustrator 15.0.0, SVG Export Plug-In . SVG Version: 6.00 Build 0)  -->
<!DOCTYPE svg PUBLIC "-//W3C//DTD SVG 1.1//EN" "http://www.w3.org/Graphics/SVG/1.1/DTD/svg11.dtd" [
	<!ENTITY ns_flows "http://ns.adobe.com/Flows/1.0/">
	<!ENTITY ns_extend "http://ns.adobe.com/Extensibility/1.0/">
	<!ENTITY ns_ai "http://ns.adobe.com/AdobeIllustrator/10.0/">
	<!ENTITY ns_graphs "http://ns.adobe.com/Graphs/1.0/">
]>
<svg version="1.1" id="Layer_1" xmlns:x="&ns_extend;" xmlns:i="&ns_ai;" xmlns:graph="&ns_graphs;"
	 xmlns="http://www.w3.org/2000/svg" xmlns:xlink="http://www.w3.org/1999/xlink" xmlns:a="http://ns.adobe.com/AdobeSVGViewerExtensions/3.0/"
	 x="0px" y="0px" width="64px" height="64px" viewBox="0 0 64 64" enable-background="new 0 0 64 64" xml:space="preserve">
<path fill="#E81C27" d="M13.899,54.146c2.202-1.09,11.313-3.845,11.313-3.845l13.559-0.028c0,0,9.191,2.776,11.38,3.87
	c3.181,1.585,3.85,3.747,3.85,5.791c0,2.753-44,2.753-44,0C10,57.888,10.71,55.726,13.899,54.146z"/>
<path fill="#302C3B" d="M41.497,50.962l0.826,2.299c0,0,7.037,2.549,8.693,3.217c1.645,0.662,0.98-1.477-0.314-2.25
	C50.22,53.935,44.36,51.683,41.497,50.962z"/>
<path fill="#FFE12C" d="M44.489,52.626c0.541,0.92-1.014,0.873-1.598-0.029C42.241,51.595,43.919,51.671,44.489,52.626z"/>
<path fill="#302C3B" d="M22.505,50.962l-0.826,2.299c0,0-7.037,2.549-8.695,3.217c-1.643,0.662-0.979-1.477,0.314-2.25
	C13.78,53.935,19.642,51.683,22.505,50.962z"/>
<path fill="#FFE12C" d="M19.513,52.626c-0.543,0.92,1.01,0.873,1.598-0.029C21.761,51.595,20.083,51.671,19.513,52.626z"/>
<path fill="#FFE12C" d="M35.425,59.622c0,1.096-1.643,1.096-1.643,0S35.425,58.526,35.425,59.622z"/>
<path fill="#302C3B" d="M23.933,48.671c0-0.73,0-2.109,0-3.029h1.02c-0.633,7.094,6.166,6.947,6.166,6.947v3.146
	C31.118,55.735,23.933,55.71,23.933,48.671z"/>
<path fill="#E6EBEF" d="M23.933,45.642h1.02c0,6.764,6.166,6.947,6.166,6.947v0.752C28.536,53.341,23.933,51.394,23.933,45.642z"/>
<path fill="#FFE12C" d="M29.282,54.462c-0.516,0.664-1.85-0.066-1.33-0.734C28.466,53.065,29.798,53.8,29.282,54.462z"/>
<path fill="#302C3B" d="M40.073,48.671c0-0.73,0-2.109,0-3.029H39.05c0.615,7.014-6.168,6.947-6.168,6.947v3.146
	C32.882,55.735,40.073,55.71,40.073,48.671z"/>
<path fill="#E6EBEF" d="M40.073,45.642H39.05c0,6.764-6.168,6.947-6.168,6.947v0.752C35.468,53.341,40.073,51.394,40.073,45.642z"/>
<path fill="#FFE12C" d="M34.722,54.462c0.514,0.664,1.846-0.066,1.33-0.734C35.536,53.065,34.206,53.8,34.722,54.462z"/>
<rect x="31.118" y="52.341" fill="#E6EBEF" width="0.885" height="9.658"/>
<rect x="31.999" y="52.341" fill="#CFD8DD" width="0.883" height="9.658"/>
<path fill="#1A1714" d="M44.495,43.931c0.889,0.588,1.914,1.025,3.111,1.25c-2.125-4.838,1.08-14.98-5.488-22.434
	c-9.258,0.277-10.537,30.162,2.367,26.189c-0.82-0.357-1.338-1.082-1.639-1.996c0.994,0.283,2.158,0.293,3.512-0.123
	C45.28,46.353,44.731,45.257,44.495,43.931z"/>
<path fill="#1A1714" d="M21.257,22.747c-6.568,7.453-2.738,17.596-4.863,22.434c1.195-0.225,2.223-0.662,3.111-1.25
	c-0.236,1.326-0.785,2.422-1.863,2.887c1.354,0.416,2.516,0.406,3.51,0.123c-0.303,0.914-0.814,1.639-1.637,1.996
	C32.419,52.909,30.515,23.024,21.257,22.747z"/>
<path id="Path_89_" fill="#735C48" d="M45.507,32.931c-2.092,0.252-3.602,7.24-2.287,9.084c0.186,0.258,1.262,0.67,2.061-0.959
	c0.443-0.9,1.719-1.652,2.113-3.512C47.901,35.161,47.587,32.679,45.507,32.931z"/>
<path id="Path_88_" fill="#735C48" d="M18.495,32.931c2.092,0.252,3.602,7.24,2.285,9.084c-0.184,0.258-1.262,0.67-2.061-0.959
	c-0.441-0.9-1.719-1.652-2.113-3.512C16.099,35.161,16.415,32.679,18.495,32.931z"/>
<path id="Path_87_" fill="#4A3728" d="M45.448,34.271c-0.545,0.17-1.141,1-1.463,2.379c1.908-0.41,1.432,2.762-0.227,2.82
	c0.016,0.318,0.037,0.646,0.076,0.992c0.799-1.158,1.609-0.693,2.412-2.414C46.972,36.495,46.8,33.847,45.448,34.271z"/>
<path id="Path_86_" fill="#4A3728" d="M20.015,36.646c-0.324-1.375-0.916-2.205-1.463-2.375c-1.35-0.424-1.523,2.225-0.801,3.777
	c0.805,1.721,1.617,1.256,2.416,2.414c0.039-0.346,0.061-0.674,0.074-0.992C18.601,39.39,18.132,36.259,20.015,36.646z"/>
<path fill="#735C48" d="M31.999,19.493c-9.059,0-13.422,7.365-12.877,16.832c0.111,1.904,0.643,4.65,1.297,7.004
	c1.359,4.891,8.527,9.813,11.58,9.813s10.221-4.922,11.582-9.813c0.654-2.354,1.184-5.1,1.297-7.004
	C45.423,26.858,41.062,19.493,31.999,19.493z"/>
<path id="Path_85_" fill="#4A3728" d="M34.444,41.728c-0.258-0.18-0.865,0.098-2.445,0.098c-1.576,0-2.184-0.277-2.445-0.098
	c-0.307,0.219,0.186,1.201,2.445,1.201C34.261,42.929,34.755,41.946,34.444,41.728z"/>
<path id="Path_82_" fill="#FFFFFF" d="M29.985,36.095c0.076,0.6-0.332,1.311-1.457,1.842c-0.717,0.338-2.205,0.736-4.162-0.088
	c-0.875-0.369-1.73-1.52-1.654-2.154C23.772,33.698,28.991,33.405,29.985,36.095z"/>
<linearGradient id="Oval_1_" gradientUnits="userSpaceOnUse" x1="-424.3979" y1="476.4648" x2="-424.3979" y2="477.0879" gradientTransform="matrix(6.5701 0 0 -6.5701 2814.7805 3168.5281)">
	<stop  offset="0" style="stop-color:#A6694A"/>
	<stop  offset="1" style="stop-color:#4F2A1E"/>
	<a:midPointStop  offset="0" style="stop-color:#A6694A"/>
	<a:midPointStop  offset="0.5" style="stop-color:#A6694A"/>
	<a:midPointStop  offset="1" style="stop-color:#4F2A1E"/>
</linearGradient>
<circle id="Oval_11_" fill="url(#Oval_1_)" cx="26.442" cy="36.056" r="2.047"/>
<path id="Path_81_" fill="#1A1626" d="M25.419,36.019c0,1.416,2.051,1.416,2.051,0C27.47,34.704,25.419,34.704,25.419,36.019z"/>
<path id="Path_80_" fill="#AB968C" d="M25.106,35.444c0,0.594,0.859,0.594,0.859,0C25.966,34.896,25.106,34.896,25.106,35.444z"/>
<path id="Path_79_" fill="#4A3728" d="M29.995,36.175c-0.834-2.672-6.51-2.277-7.283-0.48
	C22.997,33.394,29.284,32.786,29.995,36.175z"/>
<path id="Path_78_" fill="#FFFFFF" d="M34.017,36.095c-0.078,0.6,0.328,1.311,1.457,1.842c0.715,0.338,2.203,0.736,4.158-0.088
	c0.881-0.369,1.734-1.52,1.656-2.154C40.229,33.698,35.007,33.405,34.017,36.095z"/>
<linearGradient id="Oval_2_" gradientUnits="userSpaceOnUse" x1="-425.4121" y1="476.4648" x2="-425.4121" y2="477.0879" gradientTransform="matrix(6.5701 0 0 -6.5701 2832.511 3168.5281)">
	<stop  offset="0" style="stop-color:#A6694A"/>
	<stop  offset="1" style="stop-color:#4F2A1E"/>
	<a:midPointStop  offset="0" style="stop-color:#A6694A"/>
	<a:midPointStop  offset="0.5" style="stop-color:#A6694A"/>
	<a:midPointStop  offset="1" style="stop-color:#4F2A1E"/>
</linearGradient>
<path id="Oval_8_" fill="url(#Oval_2_)" d="M37.513,34.009c1.131,0,2.049,0.916,2.049,2.047s-0.918,2.047-2.049,2.047
	c-1.135,0-2.053-0.916-2.053-2.047S36.378,34.009,37.513,34.009z"/>
<path id="Path_77_" fill="#1A1626" d="M36.487,36.019c0,1.416,2.049,1.416,2.049,0C38.536,34.704,36.487,34.704,36.487,36.019z"/>
<path id="Path_76_" fill="#AB968C" d="M36.175,35.444c0,0.594,0.859,0.594,0.859,0C37.034,34.896,36.175,34.896,36.175,35.444z"/>
<path id="Path_75_" fill="#4A3728" d="M34.007,36.175c0.83-2.67,6.506-2.287,7.281-0.48C41.001,33.394,34.716,32.786,34.007,36.175z
	"/>
<path fill="#302116" d="M36.751,46.333c-3.287,2.27-6.355,2.092-9.5,0C30.519,45.786,33.483,45.786,36.751,46.333z"/>
<path fill="#17100B" d="M32.001,45.591c-1.387-0.443-2.59,0.449-4.75,0.742c1.164,0.244,3.082,0.107,4.75,0.186
	c1.668-0.078,3.584,0.059,4.75-0.186C34.593,46.04,33.386,45.147,32.001,45.591z"/>
<path fill="#1A1626" d="M43.47,30.817v8.671c0,5.801-4.16,10.188-11.473,10.188c-7.307,0-11.473-4.388-11.473-10.188v-8.671h-1.912
	v8.671c0,6.657,4.971,12.065,13.385,12.065c8.412,0,13.387-5.408,13.387-12.065v-8.671H43.47z"/>
<path fill="#EBC16C" d="M19.55,34.714c0.389,0,0.705,0.317,0.705,0.707s-0.316,0.707-0.705,0.707c-0.391,0-0.709-0.317-0.709-0.707
	S19.159,34.714,19.55,34.714 M19.55,34.464c-0.529,0-0.959,0.429-0.959,0.957s0.43,0.957,0.959,0.957
	c0.527,0,0.955-0.429,0.955-0.957S20.077,34.464,19.55,34.464L19.55,34.464z"/>
<path fill="#EBAB2A" d="M19.548,35.915c0.391,0,0.707,0.317,0.707,0.707s-0.316,0.707-0.707,0.707c-0.389,0-0.707-0.317-0.707-0.707
	S19.159,35.915,19.548,35.915 M19.548,35.665c-0.529,0-0.957,0.429-0.957,0.957s0.428,0.957,0.957,0.957
	c0.527,0,0.957-0.429,0.957-0.957S20.075,35.665,19.548,35.665L19.548,35.665z"/>
<path fill="#EBC16C" d="M19.55,37.116c0.389,0,0.705,0.317,0.705,0.707s-0.316,0.707-0.705,0.707c-0.391,0-0.709-0.317-0.709-0.707
	S19.159,37.116,19.55,37.116 M19.55,36.866c-0.529,0-0.959,0.429-0.959,0.957s0.43,0.957,0.959,0.957
	c0.527,0,0.955-0.429,0.955-0.957S20.077,36.866,19.55,36.866L19.55,36.866z"/>
<path fill="#EBAB2A" d="M19.548,38.316c0.391,0,0.707,0.318,0.707,0.707c0,0.391-0.316,0.707-0.707,0.707
	c-0.389,0-0.707-0.316-0.707-0.707C18.841,38.635,19.159,38.316,19.548,38.316 M19.548,38.066c-0.529,0-0.957,0.43-0.957,0.957
	c0,0.529,0.428,0.957,0.957,0.957c0.527,0,0.957-0.428,0.957-0.957C20.505,38.496,20.075,38.066,19.548,38.066L19.548,38.066z"/>
<path fill="#EBC16C" d="M19.552,39.515c0.389,0,0.705,0.317,0.705,0.707s-0.316,0.707-0.705,0.707c-0.391,0-0.709-0.317-0.709-0.707
	S19.161,39.515,19.552,39.515 M19.552,39.265c-0.529,0-0.959,0.429-0.959,0.957s0.43,0.957,0.959,0.957
	c0.527,0,0.955-0.429,0.955-0.957S20.079,39.265,19.552,39.265L19.552,39.265z"/>
<path fill="#EBAB2A" d="M19.646,40.672c0.389,0,0.705,0.317,0.705,0.707s-0.316,0.707-0.705,0.707c-0.391,0-0.707-0.317-0.707-0.707
	S19.255,40.672,19.646,40.672 M19.646,40.422c-0.529,0-0.957,0.429-0.957,0.957s0.428,0.957,0.957,0.957
	c0.527,0,0.955-0.429,0.955-0.957S20.173,40.422,19.646,40.422L19.646,40.422z"/>
<path fill="#EBC16C" d="M19.874,41.789c0.389,0,0.705,0.317,0.705,0.707s-0.316,0.707-0.705,0.707c-0.391,0-0.709-0.317-0.709-0.707
	S19.483,41.789,19.874,41.789 M19.874,41.539c-0.529,0-0.959,0.429-0.959,0.957s0.43,0.957,0.959,0.957
	c0.527,0,0.955-0.429,0.955-0.957S20.401,41.539,19.874,41.539L19.874,41.539z"/>
<path fill="#EBAB2A" d="M20.229,42.859c0.389,0,0.705,0.317,0.705,0.707s-0.316,0.707-0.705,0.707c-0.391,0-0.707-0.317-0.707-0.707
	S19.839,42.859,20.229,42.859 M20.229,42.609c-0.529,0-0.957,0.429-0.957,0.957s0.428,0.957,0.957,0.957
	c0.527,0,0.955-0.429,0.955-0.957S20.757,42.609,20.229,42.609L20.229,42.609z"/>
<path fill="#EBC16C" d="M20.706,43.878c0.391,0,0.707,0.317,0.707,0.707s-0.316,0.707-0.707,0.707c-0.389,0-0.707-0.317-0.707-0.707
	S20.317,43.878,20.706,43.878 M20.706,43.628c-0.529,0-0.957,0.429-0.957,0.957s0.428,0.957,0.957,0.957
	c0.527,0,0.957-0.429,0.957-0.957S21.233,43.628,20.706,43.628L20.706,43.628z"/>
<path fill="#EBAB2A" d="M21.298,44.838c0.391,0,0.707,0.318,0.707,0.707c0,0.391-0.316,0.707-0.707,0.707
	c-0.389,0-0.707-0.316-0.707-0.707C20.591,45.156,20.909,44.838,21.298,44.838 M21.298,44.588c-0.529,0-0.957,0.43-0.957,0.957
	c0,0.529,0.428,0.957,0.957,0.957c0.527,0,0.957-0.428,0.957-0.957C22.255,45.018,21.825,44.588,21.298,44.588L21.298,44.588z"/>
<path fill="#EBC16C" d="M21.997,45.734c0.391,0,0.707,0.318,0.707,0.707c0,0.391-0.316,0.707-0.707,0.707
	c-0.389,0-0.707-0.316-0.707-0.707C21.29,46.053,21.608,45.734,21.997,45.734 M21.997,45.484c-0.529,0-0.957,0.43-0.957,0.957
	c0,0.529,0.428,0.957,0.957,0.957c0.527,0,0.957-0.428,0.957-0.957C22.954,45.914,22.524,45.484,21.997,45.484L21.997,45.484z"/>
<path fill="#EBAB2A" d="M22.796,46.562c0.391,0,0.707,0.317,0.707,0.707s-0.316,0.707-0.707,0.707c-0.389,0-0.707-0.317-0.707-0.707
	S22.407,46.562,22.796,46.562 M22.796,46.312c-0.529,0-0.957,0.429-0.957,0.957s0.428,0.957,0.957,0.957
	c0.527,0,0.957-0.429,0.957-0.957S23.323,46.312,22.796,46.312L22.796,46.312z"/>
<path fill="#EBC16C" d="M23.69,47.313c0.389,0,0.705,0.318,0.705,0.707c0,0.391-0.316,0.707-0.705,0.707
	c-0.391,0-0.709-0.316-0.709-0.707C22.981,47.631,23.3,47.313,23.69,47.313 M23.69,47.063c-0.529,0-0.959,0.43-0.959,0.957
	c0,0.529,0.43,0.957,0.959,0.957c0.527,0,0.955-0.428,0.955-0.957C24.646,47.492,24.218,47.063,23.69,47.063L23.69,47.063z"/>
<path fill="#EBAB2A" d="M24.671,47.982c0.389,0,0.705,0.318,0.705,0.707c0,0.391-0.316,0.707-0.705,0.707
	c-0.391,0-0.707-0.316-0.707-0.707C23.964,48.301,24.28,47.982,24.671,47.982 M24.671,47.732c-0.529,0-0.957,0.43-0.957,0.957
	c0,0.529,0.428,0.957,0.957,0.957c0.527,0,0.955-0.428,0.955-0.957C25.626,48.162,25.198,47.732,24.671,47.732L24.671,47.732z"/>
<path fill="#EBC16C" d="M25.731,48.565c0.389,0,0.705,0.317,0.705,0.707s-0.316,0.707-0.705,0.707c-0.391,0-0.709-0.317-0.709-0.707
	S25.341,48.565,25.731,48.565 M25.731,48.315c-0.529,0-0.959,0.429-0.959,0.957s0.43,0.957,0.959,0.957
	c0.527,0,0.955-0.429,0.955-0.957S26.259,48.315,25.731,48.315L25.731,48.315z"/>
<path fill="#EBAB2A" d="M26.864,49.056c0.391,0,0.707,0.317,0.707,0.707s-0.316,0.707-0.707,0.707c-0.389,0-0.707-0.317-0.707-0.707
	S26.476,49.056,26.864,49.056 M26.864,48.806c-0.529,0-0.957,0.429-0.957,0.957s0.428,0.957,0.957,0.957
	c0.527,0,0.957-0.429,0.957-0.957S27.392,48.806,26.864,48.806L26.864,48.806z"/>
<path fill="#EBC16C" d="M28.065,49.447c0.391,0,0.707,0.317,0.707,0.707s-0.316,0.707-0.707,0.707c-0.389,0-0.707-0.317-0.707-0.707
	S27.677,49.447,28.065,49.447 M28.065,49.197c-0.529,0-0.957,0.429-0.957,0.957s0.428,0.957,0.957,0.957
	c0.527,0,0.957-0.429,0.957-0.957S28.593,49.197,28.065,49.197L28.065,49.197z"/>
<path fill="#EBAB2A" d="M29.327,49.733c0.389,0,0.705,0.317,0.705,0.707s-0.316,0.707-0.705,0.707c-0.391,0-0.707-0.317-0.707-0.707
	S28.937,49.733,29.327,49.733 M29.327,49.483c-0.529,0-0.957,0.429-0.957,0.957s0.428,0.957,0.957,0.957
	c0.527,0,0.955-0.429,0.955-0.957S29.854,49.483,29.327,49.483L29.327,49.483z"/>
<path fill="#EBC16C" d="M30.642,49.91c0.389,0,0.705,0.317,0.705,0.707s-0.316,0.707-0.705,0.707c-0.391,0-0.709-0.317-0.709-0.707
	S30.251,49.91,30.642,49.91 M30.642,49.66c-0.529,0-0.959,0.429-0.959,0.957s0.43,0.957,0.959,0.957
	c0.527,0,0.955-0.429,0.955-0.957S31.169,49.66,30.642,49.66L30.642,49.66z"/>
<path fill="#EBAB2A" d="M32.001,49.97c0.389,0,0.705,0.317,0.705,0.707s-0.316,0.707-0.705,0.707c-0.391,0-0.709-0.317-0.709-0.707
	S31.61,49.97,32.001,49.97 M32.001,49.72c-0.531,0-0.959,0.429-0.959,0.957s0.428,0.957,0.959,0.957
	c0.525,0,0.955-0.429,0.955-0.957S32.526,49.72,32.001,49.72L32.001,49.72z"/>
<path fill="#EBC16C" d="M33.36,49.91c0.391,0,0.707,0.316,0.707,0.707c0,0.389-0.316,0.707-0.707,0.707
	c-0.389,0-0.707-0.318-0.707-0.707C32.653,50.227,32.972,49.91,33.36,49.91 M33.36,49.66c-0.529,0-0.957,0.428-0.957,0.957
	c0,0.527,0.428,0.957,0.957,0.957c0.527,0,0.957-0.43,0.957-0.957C34.317,50.088,33.888,49.66,33.36,49.66L33.36,49.66z"/>
<path fill="#EBAB2A" d="M34.675,49.733c0.389,0,0.705,0.317,0.705,0.707s-0.316,0.707-0.705,0.707c-0.391,0-0.709-0.317-0.709-0.707
	S34.284,49.733,34.675,49.733 M34.675,49.483c-0.529,0-0.959,0.429-0.959,0.957s0.43,0.957,0.959,0.957
	c0.527,0,0.955-0.429,0.955-0.957S35.202,49.483,34.675,49.483L34.675,49.483z"/>
<path fill="#EBC16C" d="M35.935,49.447c0.391,0,0.707,0.317,0.707,0.707s-0.316,0.707-0.707,0.707c-0.389,0-0.707-0.317-0.707-0.707
	S35.546,49.447,35.935,49.447 M35.935,49.197c-0.529,0-0.957,0.429-0.957,0.957s0.428,0.957,0.957,0.957
	c0.527,0,0.957-0.429,0.957-0.957S36.462,49.197,35.935,49.197L35.935,49.197z"/>
<path fill="#EBAB2A" d="M37.138,49.056c0.389,0,0.705,0.317,0.705,0.707s-0.316,0.707-0.705,0.707c-0.391,0-0.709-0.317-0.709-0.707
	S36.747,49.056,37.138,49.056 M37.138,48.806c-0.531,0-0.959,0.429-0.959,0.957s0.428,0.957,0.959,0.957
	c0.525,0,0.955-0.429,0.955-0.957S37.663,48.806,37.138,48.806L37.138,48.806z"/>
<path fill="#EBC16C" d="M38.271,48.565c0.389,0,0.705,0.317,0.705,0.707s-0.316,0.707-0.705,0.707c-0.391,0-0.709-0.317-0.709-0.707
	S37.88,48.565,38.271,48.565 M38.271,48.315c-0.529,0-0.959,0.429-0.959,0.957s0.43,0.957,0.959,0.957
	c0.527,0,0.955-0.429,0.955-0.957S38.798,48.315,38.271,48.315L38.271,48.315z"/>
<path fill="#EBAB2A" d="M39.331,47.982c0.389,0,0.705,0.318,0.705,0.707c0,0.391-0.316,0.707-0.705,0.707
	c-0.391,0-0.709-0.316-0.709-0.707C38.622,48.301,38.94,47.982,39.331,47.982 M39.331,47.732c-0.529,0-0.959,0.43-0.959,0.957
	c0,0.529,0.43,0.957,0.959,0.957c0.527,0,0.955-0.428,0.955-0.957C40.286,48.162,39.858,47.732,39.331,47.732L39.331,47.732z"/>
<path fill="#EBC16C" d="M40.312,47.313c0.389,0,0.705,0.317,0.705,0.707s-0.316,0.707-0.705,0.707c-0.391,0-0.709-0.317-0.709-0.707
	S39.921,47.313,40.312,47.313 M40.312,47.063c-0.529,0-0.959,0.429-0.959,0.957s0.43,0.957,0.959,0.957
	c0.527,0,0.955-0.429,0.955-0.957S40.839,47.063,40.312,47.063L40.312,47.063z"/>
<path fill="#EBAB2A" d="M41.204,46.562c0.389,0,0.705,0.317,0.705,0.707s-0.316,0.707-0.705,0.707c-0.391,0-0.709-0.317-0.709-0.707
	S40.813,46.562,41.204,46.562 M41.204,46.312c-0.529,0-0.959,0.429-0.959,0.957s0.43,0.957,0.959,0.957
	c0.527,0,0.955-0.429,0.955-0.957S41.731,46.312,41.204,46.312L41.204,46.312z"/>
<path fill="#EBC16C" d="M42.003,45.734c0.391,0,0.707,0.318,0.707,0.707c0,0.391-0.316,0.707-0.707,0.707
	c-0.389,0-0.707-0.316-0.707-0.707C41.296,46.053,41.614,45.734,42.003,45.734 M42.003,45.484c-0.529,0-0.957,0.43-0.957,0.957
	c0,0.529,0.428,0.957,0.957,0.957c0.527,0,0.957-0.428,0.957-0.957C42.96,45.914,42.53,45.484,42.003,45.484L42.003,45.484z"/>
<path fill="#EBAB2A" d="M42.702,44.838c0.389,0,0.705,0.317,0.705,0.707s-0.316,0.707-0.705,0.707c-0.391,0-0.709-0.317-0.709-0.707
	S42.312,44.838,42.702,44.838 M42.702,44.588c-0.529,0-0.959,0.429-0.959,0.957s0.43,0.957,0.959,0.957
	c0.527,0,0.955-0.429,0.955-0.957S43.229,44.588,42.702,44.588L42.702,44.588z"/>
<path fill="#EBC16C" d="M43.294,43.878c0.389,0,0.705,0.317,0.705,0.707s-0.316,0.707-0.705,0.707c-0.391,0-0.709-0.317-0.709-0.707
	S42.903,43.878,43.294,43.878 M43.294,43.628c-0.529,0-0.959,0.429-0.959,0.957s0.43,0.957,0.959,0.957
	c0.527,0,0.955-0.429,0.955-0.957S43.821,43.628,43.294,43.628L43.294,43.628z"/>
<path fill="#EBAB2A" d="M43.771,42.859c0.389,0,0.705,0.317,0.705,0.707s-0.316,0.707-0.705,0.707c-0.391,0-0.709-0.317-0.709-0.707
	S43.38,42.859,43.771,42.859 M43.771,42.609c-0.529,0-0.959,0.429-0.959,0.957s0.43,0.957,0.959,0.957
	c0.527,0,0.955-0.429,0.955-0.957S44.298,42.609,43.771,42.609L43.771,42.609z"/>
<path fill="#EBC16C" d="M44.126,41.789c0.391,0,0.707,0.317,0.707,0.707s-0.316,0.707-0.707,0.707c-0.389,0-0.707-0.317-0.707-0.707
	S43.737,41.789,44.126,41.789 M44.126,41.539c-0.529,0-0.957,0.429-0.957,0.957s0.428,0.957,0.957,0.957
	c0.527,0,0.957-0.429,0.957-0.957S44.653,41.539,44.126,41.539L44.126,41.539z"/>
<path fill="#EBAB2A" d="M44.356,40.672c0.389,0,0.705,0.317,0.705,0.707s-0.316,0.707-0.705,0.707c-0.391,0-0.709-0.317-0.709-0.707
	S43.966,40.672,44.356,40.672 M44.356,40.422c-0.531,0-0.959,0.429-0.959,0.957s0.428,0.957,0.959,0.957
	c0.525,0,0.955-0.429,0.955-0.957S44.882,40.422,44.356,40.422L44.356,40.422z"/>
<path fill="#EBC16C" d="M44.448,39.514c0.391,0,0.707,0.318,0.707,0.707c0,0.391-0.316,0.707-0.707,0.707
	c-0.389,0-0.707-0.316-0.707-0.707C43.741,39.832,44.06,39.514,44.448,39.514 M44.448,39.264c-0.529,0-0.957,0.43-0.957,0.957
	c0,0.529,0.428,0.957,0.957,0.957c0.527,0,0.957-0.428,0.957-0.957C45.405,39.693,44.976,39.264,44.448,39.264L44.448,39.264z"/>
<path fill="#EBAB2A" d="M44.452,38.316c0.389,0,0.705,0.318,0.705,0.707c0,0.391-0.316,0.707-0.705,0.707
	c-0.391,0-0.709-0.316-0.709-0.707C43.743,38.635,44.062,38.316,44.452,38.316 M44.452,38.066c-0.531,0-0.959,0.43-0.959,0.957
	c0,0.529,0.428,0.957,0.959,0.957c0.525,0,0.955-0.428,0.955-0.957C45.407,38.496,44.978,38.066,44.452,38.066L44.452,38.066z"/>
<path fill="#EBC16C" d="M44.45,37.116c0.391,0,0.707,0.317,0.707,0.707s-0.316,0.707-0.707,0.707c-0.389,0-0.707-0.317-0.707-0.707
	S44.062,37.116,44.45,37.116 M44.45,36.866c-0.529,0-0.957,0.429-0.957,0.957s0.428,0.957,0.957,0.957
	c0.527,0,0.957-0.429,0.957-0.957S44.978,36.866,44.45,36.866L44.45,36.866z"/>
<path fill="#EBAB2A" d="M44.452,35.915c0.389,0,0.705,0.317,0.705,0.707s-0.316,0.707-0.705,0.707c-0.391,0-0.709-0.317-0.709-0.707
	S44.062,35.915,44.452,35.915 M44.452,35.665c-0.531,0-0.959,0.429-0.959,0.957s0.428,0.957,0.959,0.957
	c0.525,0,0.955-0.429,0.955-0.957S44.978,35.665,44.452,35.665L44.452,35.665z"/>
<path fill="#EBC16C" d="M44.45,34.714c0.391,0,0.707,0.317,0.707,0.707s-0.316,0.707-0.707,0.707c-0.389,0-0.707-0.317-0.707-0.707
	S44.062,34.714,44.45,34.714 M44.45,34.464c-0.529,0-0.957,0.429-0.957,0.957s0.428,0.957,0.957,0.957
	c0.527,0,0.957-0.429,0.957-0.957S44.978,34.464,44.45,34.464L44.45,34.464z"/>
<linearGradient id="SVGID_1_" gradientUnits="userSpaceOnUse" x1="15" y1="18" x2="49" y2="18">
	<stop  offset="0" style="stop-color:#383345"/>
	<stop  offset="1" style="stop-color:#1A1626"/>
	<a:midPointStop  offset="0" style="stop-color:#383345"/>
	<a:midPointStop  offset="0.5" style="stop-color:#383345"/>
	<a:midPointStop  offset="1" style="stop-color:#1A1626"/>
</linearGradient>
<path fill="url(#SVGID_1_)" d="M49,16.992c-0.022-0.221-0.343-1.047-1.17-2.563c0.694-0.021,1.124,0.224,1.11,0.071
	c-0.02-0.221-0.283-1.135-1.11-2.65c0.694-0.02,1.183,0.063,1.17-0.089c-0.023-0.239-0.281-0.823-1.272-2.521
	c0.631-0.277,1.162-0.342,1.091-0.477c-0.107-0.201-0.704-0.932-2.117-2.045c0.523-0.576,1.094-0.832,0.991-0.926
	c-0.153-0.142-1.034-0.751-2.863-1.179c0.36-0.654,0.73-1.151,0.607-1.213c-0.168-0.088-1.147-0.166-2.725-0.139
	c0.175-0.721,0.382-1.161,0.252-1.198c-0.199-0.06-1.082-0.211-2.865,0.18c0.035-0.855,0.332-1.315,0.187-1.335
	c-0.212-0.032-1.174,0.02-2.944,0.709c-0.057-0.838,0.123-1.358-0.021-1.361c-0.205-0.004-1.222,0.306-2.815,1.133
	C34.438,0.561,34.592-0.006,34.471,0C34.286,0.009,33.464,0.198,32,1.339C30.536,0.198,29.714,0.009,29.529,0
	c-0.121-0.006,0.033,0.561-0.033,1.391c-1.594-0.827-2.61-1.137-2.815-1.133c-0.145,0.003,0.035,0.523-0.021,1.361
	c-1.771-0.689-2.732-0.741-2.944-0.709c-0.146,0.02,0.151,0.479,0.187,1.335c-1.783-0.391-2.666-0.239-2.865-0.18
	c-0.13,0.037,0.077,0.478,0.252,1.198c-1.578-0.027-2.557,0.051-2.725,0.139c-0.123,0.062,0.247,0.559,0.607,1.213
	c-1.829,0.428-2.71,1.037-2.863,1.179c-0.103,0.094,0.468,0.35,0.991,0.926c-1.414,1.113-2.01,1.844-2.117,2.045
	c-0.071,0.135,0.46,0.199,1.091,0.477c-0.991,1.697-1.249,2.281-1.272,2.521c-0.013,0.152,0.476,0.069,1.17,0.089
	c-0.827,1.516-1.091,2.43-1.11,2.65c-0.014,0.152,0.416-0.092,1.11-0.071c-0.827,1.516-1.147,2.342-1.17,2.563
	c-0.013,0.152,0.476-0.004,1.17,0.017c-0.827,1.516-1.09,2.419-1.108,2.641c-0.016,0.151,0.414-0.082,1.108-0.063
	c-0.827,1.517-1.058,2.3-1.075,2.521c-0.015,0.152,0.381,0.039,1.075,0.059c-0.827,1.517-1.047,2.269-1.067,2.489
	c-0.013,0.152,0.373,0.07,1.067,0.09c-0.827,1.516-1.029,2.206-1.048,2.427c-0.017,0.152,0.354,0.133,1.048,0.152
	c-0.827,1.516-1.04,2.242-1.058,2.463c-0.016,0.152,0.363,0.096,1.058,0.116c-0.827,1.516-0.993,2.313-1.014,2.533
	c-0.016,0.161,0.375-0.039,1.136,0.054c-0.533,1.063-0.694,2.008-0.666,2.178c0.018,0.122,1.351-0.275,1.351-0.275
	s-0.313,1.548-0.176,1.551c0.163,0.002,1.241-0.37,2.184-1.024c0.226,0.618,0.271,1.08,0.389,1.081
	c0.271,0.003,0.699-0.543,1.64-1.811c0.358,0.718,0.776,1.15,0.91,1.093c0.196-0.082,0.434-0.537,1.577-1.933
	c0.15,0.701,0.43,1.298,0.563,1.264c0.209-0.051,0.935-0.493,2.266-1.694c0.221,0.715,0.479,1.236,0.631,1.213
	c0.216-0.032,0.787-0.396,2.246-1.333c0.128,0.739,0.095,1.232,0.234,1.217c0.234-0.022,1.454-0.435,2.561-1.572
	c1.106,1.138,2.326,1.55,2.561,1.572c0.14,0.016,0.106-0.478,0.234-1.217c1.459,0.937,2.03,1.301,2.246,1.333
	c0.151,0.023,0.41-0.498,0.631-1.213c1.331,1.201,2.057,1.644,2.266,1.694c0.133,0.034,0.412-0.563,0.563-1.264
	c1.144,1.396,1.381,1.851,1.577,1.933c0.134,0.058,0.552-0.375,0.91-1.093c0.94,1.268,1.369,1.813,1.64,1.811
	c0.118-0.001,0.163-0.463,0.389-1.081c0.942,0.654,2.021,1.026,2.184,1.024c0.138-0.003-0.176-1.551-0.176-1.551
	s1.333,0.397,1.351,0.275c0.028-0.17-0.133-1.115-0.666-2.178c0.761-0.093,1.151,0.107,1.136-0.054
	c-0.021-0.221-0.187-1.018-1.014-2.533c0.694-0.021,1.073,0.036,1.058-0.116c-0.018-0.221-0.23-0.947-1.058-2.463
	c0.694-0.02,1.064,0,1.048-0.152c-0.019-0.221-0.221-0.911-1.048-2.427c0.694-0.02,1.08,0.063,1.067-0.09
	c-0.021-0.221-0.24-0.973-1.067-2.489c0.694-0.02,1.091,0.094,1.075-0.059c-0.018-0.221-0.248-1.004-1.075-2.521
	c0.694-0.02,1.124,0.214,1.108,0.063c-0.018-0.222-0.281-1.125-1.108-2.641C48.524,16.988,49.013,17.145,49,16.992z"/>
</svg>
