<?xml version="1.0" encoding="utf-8"?>
<!-- Generator: Adobe Illustrator 24.1.2, SVG Export Plug-In . SVG Version: 6.00 Build 0)  -->
<svg version="1.1" id="Layer_1" xmlns="http://www.w3.org/2000/svg" xmlns:xlink="http://www.w3.org/1999/xlink" x="0px" y="0px"
	 width="64px" height="64px" viewBox="0 0 64 64" style="enable-background:new 0 0 64 64;" xml:space="preserve">
<style type="text/css">
	.st0{fill:url(#SVGID_1_);}
	.st1{fill:#1A1714;}
	.st2{fill:#735C48;}
	.st3{fill:#4A3728;}
	.st4{fill:#403229;}
	.st5{fill:#61462F;}
	.st6{fill:#614B38;}
	.st7{fill:url(#SVGID_2_);}
	.st8{fill:url(#SVGID_3_);}
</style>
<linearGradient id="SVGID_1_" gradientUnits="userSpaceOnUse" x1="-22.4038" y1="-518.6807" x2="-22.4038" y2="-527.4461" gradientTransform="matrix(-2.7664 0.8895 0.8472 2.6347 410.4327 1416.0884)">
	<stop  offset="0" style="stop-color:#DB0100"/>
	<stop  offset="0.5836" style="stop-color:#F31317"/>
	<stop  offset="1" style="stop-color:#FF1C23"/>
</linearGradient>
<path class="st0" d="M26.68,9.99c1.81-7.38,13.07-8.35,15.56-0.61c1.67,5.19-0.96,11.33-9.02,20.14
	c-3.41-6.13-16.49-1.49-19.54-10.95C11.19,10.83,20.91,5.05,26.68,9.99z"/>
<path class="st1" d="M12.31,54.22c-0.64,0.61-1.41,1.11-2.36,1.47c1.04-4.26-3.04-12.09,1.24-19.13
	c7.59-1.11,12.95,23.14,1.84,21.75c0.62-0.41,0.94-1.08,1.05-1.87c-0.77,0.38-1.72,0.55-2.88,0.41
	C12.02,56.32,12.31,55.34,12.31,54.22z"/>
<path class="st1" d="M28.22,33.56c6.43,5.15,4.77,13.99,7.2,17.64c-1.01-0.01-1.91-0.22-2.72-0.57c0.38,1.05,0.99,1.87,1.94,2.09
	c-1.04,0.54-1.99,0.7-2.85,0.61c0.38,0.7,0.9,1.22,1.62,1.4C23.46,59.83,20.7,35.12,28.22,33.56z"/>
<path id="Path_4795_" class="st2" d="M9.9,45.38c1.74-0.09,3.98,5.4,3.18,7.1c-0.11,0.24-0.94,0.73-1.82-0.49
	c-0.49-0.67-1.64-1.1-2.23-2.57C8.27,47.55,8.17,45.47,9.9,45.38z"/>
<path id="Path_4794_" class="st3" d="M10.14,46.46c0.47,0.06,1.08,0.65,1.54,1.73c-1.61-0.06-0.77,2.46,0.59,2.27
	c0.03,0.26,0.06,0.54,0.08,0.82c-0.82-0.83-1.41-0.34-2.32-1.63C9.22,48.5,8.98,46.31,10.14,46.46z"/>
<path class="st2" d="M18.98,32.45c7.39-1.3,12.01,4.09,12.93,11.91c0.18,1.57,0.15,3.89-0.05,5.91c-0.4,4.19-5.54,9.25-8.04,9.69
	c-2.49,0.44-9.05-2.55-10.86-6.36c-0.87-1.83-1.7-4-2.07-5.54C9.09,40.4,11.59,33.75,18.98,32.45z"/>
<path id="Path_4793_" class="st4" d="M12.7,43.77c1.53-1.19,4.76-1.81,6.08-1.4c0.28,0.08,0.26,0.95,0.03,0.91
	c-1.8-0.37-4.51,0.09-5.95,1.11C12.66,44.52,12.46,43.94,12.7,43.77z"/>
<path id="Path_4792_" class="st4" d="M28.76,40.93c-1.85-0.6-5.09-0.07-6.19,0.77c-0.24,0.17,0.08,0.98,0.29,0.87
	c1.56-0.96,4.27-1.45,5.97-0.99C29.06,41.63,29.04,41.01,28.76,40.93z"/>
<path id="Path_4791_" class="st3" d="M20.29,51.06c0.17-0.19,0.72-0.08,1.99-0.36c1.28-0.29,1.72-0.62,1.96-0.52
	c0.29,0.12,0.07,1.01-1.76,1.41C20.66,52,20.08,51.29,20.29,51.06z"/>
<path class="st5" d="M26.95,53.52c2.17,2.3-3.07,3.25-4.76,1L26.95,53.52z"/>
<path class="st3" d="M25.68,53.14c-1.15-0.34-1.94,0.7-3.49,1.38c1.51,0.39,3.49,0.13,3.67-0.51c0,0,0.65,0.32,1.15-0.26
	C27.57,53.1,26.79,52.32,25.68,53.14z"/>
<path class="st6" d="M13.88,47.82c0.31,1.78,6.05,0.77,5.69-1.29C18.71,43.61,13.38,44.64,13.88,47.82z"/>
<path class="st4" d="M13.88,47.82c0.31,1.78,6.05,0.77,5.69-1.29C19.27,47.56,14.48,48.53,13.88,47.82z"/>
<path class="st6" d="M29.04,45.15c0.31,1.78-5.42,2.79-5.79,0.73C23.06,42.85,28.41,41.99,29.04,45.15z"/>
<path class="st4" d="M29.04,45.15c0.31,1.78-5.42,2.79-5.79,0.73C23.88,46.75,28.72,46.02,29.04,45.15z"/>
<linearGradient id="SVGID_2_" gradientUnits="userSpaceOnUse" x1="970.8856" y1="-59.2524" x2="970.8856" y2="-76.8556" gradientTransform="matrix(-0.9848 0.1736 0.1736 0.9848 988.2044 -62.4636)">
	<stop  offset="0" style="stop-color:#1A1714"/>
	<stop  offset="0.0953" style="stop-color:#1F1B18"/>
	<stop  offset="0.6555" style="stop-color:#37322C"/>
	<stop  offset="1" style="stop-color:#403A33"/>
</linearGradient>
<path class="st7" d="M18.62,30.41c4.5-0.79,7.1,0.85,7.73,1.73c5.66,0.29,9.02,9.15,5.64,13.78c-1.24-4.08-2.2-6.67-5.47-9.01
	c-1.24,2.45-4.38,4.26-7.39,4.79c1.24-1.29,2.03-2.47,2.63-3.55c-4.62,3.19-9.98,5.66-10.41,11.4C5.17,42.73,7.49,32.38,18.62,30.41
	z"/>
<path class="st1" d="M26.37,32.14c0.75,3.83-0.3,6.98-7.23,9.57C24.33,41.16,29.06,37.12,26.37,32.14z"/>
<path class="st1" d="M26.7,36.64c2.2,1.51,4.86,4.34,5.32,9.29c-1.08-3.96-3.52-6.96-5.58-8.81C26.53,36.96,26.62,36.81,26.7,36.64z
	"/>
<path class="st1" d="M23.27,35.99c-3.13,4.25-12.4,5.64-11.93,13.58C12.42,41.58,20.88,41.84,23.27,35.99z"/>
<path class="st1" d="M51.69,54.23c0.64,0.61,1.41,1.11,2.36,1.47c-1.04-4.26,3.04-12.09-1.24-19.13
	c-7.59-1.11-12.95,23.14-1.84,21.75c-0.62-0.41-0.94-1.08-1.05-1.87c0.77,0.38,1.72,0.55,2.88,0.41
	C51.98,56.32,51.69,55.34,51.69,54.23z"/>
<path id="Path_4765_" class="st2" d="M54.1,45.38c-1.74-0.09-3.98,5.4-3.18,7.1c0.11,0.24,0.94,0.73,1.82-0.49
	c0.49-0.67,1.64-1.1,2.23-2.57C55.73,47.55,55.84,45.47,54.1,45.38z"/>
<path id="Path_4764_" class="st3" d="M53.86,46.46c-0.47,0.06-1.08,0.65-1.54,1.73c1.61-0.06,0.77,2.46-0.59,2.27
	c-0.03,0.26-0.06,0.54-0.08,0.82c0.82-0.83,1.41-0.33,2.32-1.63C54.78,48.5,55.02,46.31,53.86,46.46z"/>
<path class="st2" d="M45.02,32.45c-7.39-1.3-12.01,4.09-12.93,11.91c-0.18,1.57-0.15,3.89,0.05,5.91c0.4,4.19,5.54,9.25,8.04,9.69
	c2.49,0.44,9.05-2.55,10.86-6.36c0.87-1.83,1.7-4,2.07-5.54C54.91,40.4,52.41,33.75,45.02,32.45z"/>
<path id="Path_4763_" class="st4" d="M51.3,43.77c-1.53-1.19-4.76-1.81-6.08-1.4c-0.28,0.08-0.26,0.95-0.03,0.91
	c1.8-0.37,4.51,0.09,5.95,1.11C51.34,44.52,51.54,43.94,51.3,43.77z"/>
<path id="Path_4762_" class="st4" d="M35.24,40.93c1.85-0.6,5.09-0.07,6.19,0.77c0.24,0.17-0.08,0.98-0.29,0.87
	c-1.56-0.96-4.27-1.45-5.97-0.99C34.94,41.63,34.96,41.01,35.24,40.93z"/>
<path id="Path_4761_" class="st3" d="M43.71,51.06c-0.17-0.19-0.72-0.08-1.99-0.36c-1.28-0.29-1.72-0.62-1.96-0.52
	c-0.29,0.12-0.07,1.01,1.76,1.41C43.34,52,43.92,51.29,43.71,51.06z"/>
<path class="st5" d="M37.05,53.52c-2.17,2.3,3.07,3.25,4.76,1L37.05,53.52z"/>
<path class="st3" d="M38.32,53.14c1.15-0.34,1.94,0.7,3.49,1.38c-1.51,0.39-3.49,0.13-3.67-0.51c0,0-0.65,0.32-1.15-0.26
	C36.43,53.1,37.22,52.33,38.32,53.14z"/>
<path class="st6" d="M50.13,47.82c-0.31,1.78-6.05,0.76-5.69-1.29C45.29,43.61,50.62,44.64,50.13,47.82z"/>
<path class="st4" d="M50.12,47.82c-0.31,1.78-6.05,0.76-5.69-1.29C44.73,47.56,49.52,48.53,50.12,47.82z"/>
<path class="st6" d="M34.96,45.15c-0.31,1.78,5.42,2.79,5.79,0.73C40.94,42.85,35.59,41.99,34.96,45.15z"/>
<path class="st4" d="M34.96,45.15c-0.31,1.78,5.42,2.79,5.79,0.73C40.12,46.75,35.28,46.02,34.96,45.15z"/>
<linearGradient id="SVGID_3_" gradientUnits="userSpaceOnUse" x1="105.4072" y1="93.3136" x2="105.4072" y2="75.7104" gradientTransform="matrix(0.9848 0.1736 -0.1736 0.9848 -45.3955 -62.4636)">
	<stop  offset="0" style="stop-color:#1A1714"/>
	<stop  offset="0.0953" style="stop-color:#1F1B18"/>
	<stop  offset="0.6555" style="stop-color:#37322C"/>
	<stop  offset="1" style="stop-color:#403A33"/>
</linearGradient>
<path class="st8" d="M45.38,30.41c-4.5-0.79-7.1,0.85-7.73,1.73c-5.66,0.29-9.02,9.15-5.64,13.78c1.24-4.08,2.2-6.67,5.47-9.01
	c1.24,2.45,4.38,4.26,7.39,4.79c-1.24-1.29-2.03-2.47-2.63-3.55c4.62,3.19,9.98,5.66,10.41,11.4
	C58.82,42.73,56.51,32.38,45.38,30.41z"/>
<path class="st1" d="M37.63,32.15c-0.75,3.83,0.3,6.98,7.23,9.57C39.67,41.16,34.94,37.12,37.63,32.15z"/>
<path class="st1" d="M37.31,36.64c-2.2,1.51-4.86,4.34-5.32,9.29c1.08-3.97,3.52-6.96,5.58-8.81
	C37.47,36.96,37.38,36.81,37.31,36.64z"/>
<path class="st1" d="M40.73,35.99c3.13,4.25,12.4,5.64,11.93,13.58C51.58,41.58,43.12,41.84,40.73,35.99z"/>
</svg>
