<?xml version="1.0" encoding="utf-8"?>
<!-- Generator: Adobe Illustrator 24.1.2, SVG Export Plug-In . SVG Version: 6.00 Build 0)  -->
<svg version="1.1" id="Layer_1" xmlns="http://www.w3.org/2000/svg" xmlns:xlink="http://www.w3.org/1999/xlink" x="0px" y="0px"
	 width="64px" height="64px" viewBox="0 0 64 64" style="enable-background:new 0 0 64 64;" xml:space="preserve">
<style type="text/css">
	.st0{fill:#473834;}
	.st1{fill:#FFC940;}
	.st2{fill:#F0A429;}
	.st3{fill:#966F42;}
	.st4{fill:#FFFFFF;}
	.st5{fill:url(#Oval_1_);}
	.st6{fill:#1A1626;}
	.st7{fill:#AB968C;}
	.st8{fill:url(#Oval_2_);}
	.st9{fill:url(#SVGID_1_);}
	.st10{fill:url(#Oval_3_);}
	.st11{fill:url(#Oval_4_);}
	.st12{fill:url(#SVGID_2_);}
	.st13{fill:url(#SVGID_3_);}
</style>
<path class="st0" d="M58.25,52.84c0.79,0.52,1.69,0.91,2.75,1.1c-1.88-4.28,0.96-13.26-4.85-19.86c-8.18,0.25-9.31,26.71,2.09,23.19
	c-0.72-0.31-1.18-0.96-1.45-1.77c0.88,0.25,1.91,0.26,3.1-0.11C58.95,54.99,58.46,54.02,58.25,52.84z"/>
<path class="st0" d="M37.71,34.09c-5.8,6.6-2.42,15.58-4.3,19.86c1.05-0.2,1.96-0.59,2.75-1.1c-0.21,1.17-0.7,2.14-1.65,2.56
	c1.2,0.37,2.22,0.36,3.1,0.11c-0.27,0.81-0.72,1.45-1.45,1.77C47.58,60.79,45.89,34.33,37.71,34.09z"/>
<path id="Path_285_" class="st1" d="M59.14,43.1c-1.85,0.23-3.18,6.41-2.02,8.05c0.16,0.23,1.12,0.59,1.82-0.85
	c0.39-0.8,1.52-1.46,1.87-3.11C61.26,45.08,60.98,42.88,59.14,43.1z"/>
<path id="Path_284_" class="st1" d="M35.27,43.1c1.85,0.23,3.18,6.41,2.02,8.05c-0.16,0.23-1.12,0.59-1.82-0.85
	c-0.39-0.8-1.52-1.46-1.87-3.11C33.15,45.08,33.43,42.88,35.27,43.1z"/>
<path id="Path_283_" class="st2" d="M59.09,44.29c-0.48,0.15-1.01,0.89-1.29,2.11c1.69-0.36,1.26,2.45-0.2,2.5
	c0.01,0.28,0.04,0.57,0.07,0.88c0.71-1.03,1.42-0.61,2.13-2.14C60.44,46.26,60.29,43.91,59.09,44.29z"/>
<path id="Path_282_" class="st2" d="M36.61,46.39c-0.29-1.22-0.81-1.95-1.29-2.1c-1.2-0.38-1.35,1.97-0.71,3.34
	c0.71,1.53,1.43,1.11,2.13,2.14c0.04-0.31,0.05-0.6,0.07-0.88C35.37,48.82,34.95,46.05,36.61,46.39z"/>
<path class="st1" d="M47.21,31.21c-8.01,0-11.86,6.52-11.38,14.9c0.1,1.69,0.57,4.12,1.14,6.2c1.2,4.33,7.54,8.69,10.24,8.69
	c2.7,0,9.03-4.36,10.23-8.69c0.58-2.08,1.05-4.51,1.15-6.2C59.07,37.73,55.21,31.21,47.21,31.21z"/>
<path id="Path_281_" class="st3" d="M55.9,42.49c-1.83-0.97-5.33-1.02-6.64-0.34c-0.28,0.13-0.1,1.05,0.14,0.96
	c1.82-0.72,4.75-0.74,6.46,0.06C56.09,43.27,56.18,42.62,55.9,42.49z"/>
<path id="Path_280_" class="st3" d="M38.51,42.49c1.83-0.97,5.33-1.02,6.64-0.34c0.28,0.13,0.09,1.05-0.14,0.96
	c-1.82-0.72-4.76-0.74-6.46,0.06C38.33,43.27,38.23,42.62,38.51,42.49z"/>
<path id="Path_279_" class="st2" d="M49.37,50.9c-0.23-0.16-0.76,0.09-2.16,0.09s-1.93-0.25-2.16-0.09
	c-0.27,0.19,0.16,1.06,2.16,1.06C49.21,51.96,49.64,51.09,49.37,50.9z"/>
<path id="Path_278_" class="st2" d="M47.21,54.2c-1.8-0.53-4.47,0.25-4.47,0.25c1.01,1.11,1.76,2.54,4.47,2.54
	c3.1,0,3.63-1.63,4.47-2.54C51.68,54.45,49.01,53.66,47.21,54.2z"/>
<path id="Path_277_" class="st4" d="M43.41,54.63c1.89,1.58,5.7,1.59,7.6,0C48.99,54.72,45.43,54.72,43.41,54.63z"/>
<path id="Path_276_" class="st4" d="M45.43,45.79c0.07,0.53-0.29,1.16-1.29,1.63c-0.63,0.3-1.95,0.65-3.68-0.08
	C39.69,47.01,38.93,46,39,45.43C39.94,43.67,44.55,43.41,45.43,45.79z"/>
<linearGradient id="Oval_1_" gradientUnits="userSpaceOnUse" x1="-421.9854" y1="475.0248" x2="-421.9854" y2="475.5765" gradientTransform="matrix(6.5701 0 0 -6.5701 2814.7817 3168.5269)">
	<stop  offset="0" style="stop-color:#A6694A"/>
	<stop  offset="1" style="stop-color:#4F2A1E"/>
</linearGradient>
<circle id="Oval_38_" class="st5" cx="42.3" cy="45.75" r="1.81"/>
<path id="Path_275_" class="st6" d="M41.39,45.72c0,1.25,1.81,1.25,1.81,0C43.2,44.56,41.39,44.56,41.39,45.72z"/>
<path id="Path_274_" class="st7" d="M41.11,45.21c0,0.53,0.76,0.53,0.76,0C41.87,44.72,41.11,44.72,41.11,45.21z"/>
<path id="Path_273_" class="st2" d="M45.43,45.86c-0.73-2.37-5.75-2.02-6.44-0.43C39.25,43.4,44.81,42.86,45.43,45.86z"/>
<path id="Path_272_" class="st4" d="M48.99,45.79c-0.07,0.53,0.29,1.16,1.29,1.63c0.63,0.3,1.95,0.65,3.68-0.08
	c0.78-0.33,1.53-1.35,1.46-1.91C54.48,43.67,49.87,43.41,48.99,45.79z"/>
<linearGradient id="Oval_2_" gradientUnits="userSpaceOnUse" x1="-423.195" y1="475.0248" x2="-423.195" y2="475.5765" gradientTransform="matrix(6.5701 0 0 -6.5701 2832.5122 3168.5269)">
	<stop  offset="0" style="stop-color:#A6694A"/>
	<stop  offset="1" style="stop-color:#4F2A1E"/>
</linearGradient>
<circle id="Oval_37_" class="st8" cx="52.08" cy="45.75" r="1.81"/>
<path id="Path_271_" class="st6" d="M51.17,45.72c0,1.25,1.81,1.25,1.81,0C52.98,44.56,51.17,44.56,51.17,45.72z"/>
<path id="Path_270_" class="st7" d="M50.9,45.21c0,0.53,0.76,0.53,0.76,0C51.65,44.72,50.9,44.72,50.9,45.21z"/>
<path id="Path_269_" class="st2" d="M48.98,45.86c0.73-2.36,5.75-2.03,6.44-0.43C55.16,43.4,49.61,42.86,48.98,45.86z"/>
<linearGradient id="SVGID_1_" gradientUnits="userSpaceOnUse" x1="47.0885" y1="47.7755" x2="47.0885" y2="29.0001">
	<stop  offset="0" style="stop-color:#473834"/>
	<stop  offset="0.2717" style="stop-color:#594640"/>
	<stop  offset="0.7226" style="stop-color:#715950"/>
	<stop  offset="1" style="stop-color:#7A6056"/>
</linearGradient>
<path class="st9" d="M47.21,29c-4.87,0-7.31,2.21-7.8,3.25c-5.89,1.35-7.78,11.28-3.38,15.52c0.55-4.52,1.08-7.42,4.08-10.48
	c1.75,2.35,5.39,3.67,8.65,3.67c-1.54-1.12-2.59-2.22-3.42-3.24c5.44,2.5,11.53,4.09,13.04,10.05C63.62,39.44,59.27,29,47.21,29z"/>
<path class="st0" d="M39.39,32.25c-0.07,4.16,1.61,7.27,9.37,8.71C43.2,41.34,37.49,37.98,39.39,32.25z"/>
<path class="st0" d="M39.88,37.03c-2.03,2-4.3,5.46-3.87,10.74c0.4-4.37,2.41-7.96,4.22-10.29C40.11,37.34,39.99,37.19,39.88,37.03z
	"/>
<path class="st0" d="M43.36,35.72c4.07,3.88,14.07,3.63,15.04,12.06C55.8,39.58,46.95,41.42,43.36,35.72z"/>
<path class="st0" d="M27.83,52.84c0.79,0.52,1.7,0.91,2.75,1.1c-1.88-4.28,0.95-13.26-4.85-19.86c-8.18,0.25-9.31,26.71,2.09,23.19
	c-0.72-0.31-1.18-0.96-1.45-1.77c0.88,0.25,1.91,0.26,3.1-0.11C28.53,54.99,28.05,54.02,27.83,52.84z"/>
<path class="st0" d="M7.3,34.09C1.5,40.69,4.88,49.67,3,53.95c1.06-0.2,1.96-0.59,2.75-1.1c-0.21,1.17-0.7,2.14-1.65,2.56
	c1.2,0.37,2.22,0.36,3.1,0.11c-0.27,0.81-0.72,1.45-1.45,1.77C17.16,60.79,15.48,34.33,7.3,34.09z"/>
<path id="Path_268_" class="st1" d="M28.73,43.1c-1.85,0.23-3.18,6.41-2.02,8.05c0.17,0.23,1.12,0.59,1.82-0.85
	c0.39-0.8,1.52-1.46,1.87-3.11C30.85,45.08,30.57,42.88,28.73,43.1z"/>
<path id="Path_267_" class="st1" d="M4.86,43.1c1.85,0.23,3.18,6.41,2.02,8.05c-0.16,0.23-1.12,0.59-1.82-0.85
	c-0.39-0.8-1.52-1.46-1.87-3.11C2.74,45.08,3.02,42.88,4.86,43.1z"/>
<path id="Path_266_" class="st2" d="M28.68,44.29c-0.48,0.15-1.01,0.89-1.29,2.11c1.69-0.36,1.27,2.45-0.2,2.5
	c0.01,0.28,0.03,0.57,0.07,0.88c0.7-1.03,1.42-0.61,2.13-2.14C30.03,46.26,29.87,43.91,28.68,44.29z"/>
<path id="Path_265_" class="st2" d="M6.2,46.39c-0.28-1.22-0.81-1.95-1.29-2.1c-1.19-0.38-1.35,1.97-0.71,3.34
	c0.71,1.53,1.43,1.11,2.13,2.14c0.04-0.31,0.05-0.6,0.07-0.88C4.95,48.82,4.54,46.05,6.2,46.39z"/>
<path class="st1" d="M16.79,31.21c-8.01,0-11.86,6.52-11.38,14.9c0.1,1.69,0.57,4.12,1.15,6.2C7.76,56.64,14.1,61,16.79,61
	c2.7,0,9.03-4.36,10.23-8.69c0.58-2.08,1.05-4.51,1.15-6.2C28.66,37.73,24.8,31.21,16.79,31.21z"/>
<path id="Path_264_" class="st3" d="M25.49,42.49c-1.83-0.97-5.33-1.02-6.64-0.34c-0.28,0.13-0.1,1.05,0.14,0.96
	c1.82-0.72,4.76-0.74,6.46,0.06C25.67,43.27,25.77,42.62,25.49,42.49z"/>
<path id="Path_263_" class="st3" d="M8.1,42.49c1.83-0.97,5.33-1.02,6.64-0.34c0.28,0.13,0.1,1.05-0.14,0.96
	c-1.82-0.72-4.75-0.74-6.46,0.06C7.91,43.27,7.82,42.62,8.1,42.49z"/>
<path id="Path_262_" class="st2" d="M18.95,50.9c-0.23-0.16-0.76,0.09-2.16,0.09s-1.93-0.25-2.16-0.09
	c-0.27,0.19,0.16,1.06,2.16,1.06C18.79,51.96,19.23,51.09,18.95,50.9z"/>
<path id="Path_261_" class="st2" d="M16.79,54.2c-1.8-0.53-4.47,0.25-4.47,0.25c1.02,1.11,1.76,2.54,4.47,2.54
	c3.1,0,3.63-1.63,4.47-2.54C21.26,54.45,18.59,53.66,16.79,54.2z"/>
<path id="Path_260_" class="st4" d="M13,54.63c1.89,1.58,5.7,1.59,7.6,0C18.58,54.72,15.02,54.72,13,54.63z"/>
<path id="Path_259_" class="st4" d="M15.01,45.79c0.07,0.53-0.29,1.16-1.29,1.63c-0.63,0.3-1.95,0.65-3.68-0.08
	C9.27,47.01,8.52,46,8.58,45.43C9.52,43.67,14.14,43.41,15.01,45.79z"/>
<linearGradient id="Oval_3_" gradientUnits="userSpaceOnUse" x1="-444.8173" y1="475.0248" x2="-444.8173" y2="475.5765" gradientTransform="matrix(6.5701 0 0 -6.5701 2934.3755 3168.5269)">
	<stop  offset="0" style="stop-color:#A6694A"/>
	<stop  offset="1" style="stop-color:#4F2A1E"/>
</linearGradient>
<circle id="Oval_36_" class="st10" cx="11.88" cy="45.75" r="1.81"/>
<path id="Path_258_" class="st6" d="M10.98,45.72c0,1.25,1.81,1.25,1.81,0C12.79,44.56,10.98,44.56,10.98,45.72z"/>
<path id="Path_257_" class="st7" d="M10.7,45.21c0,0.53,0.76,0.53,0.76,0C11.46,44.72,10.7,44.72,10.7,45.21z"/>
<path id="Path_256_" class="st2" d="M15.02,45.86c-0.73-2.37-5.75-2.02-6.44-0.43C8.84,43.4,14.39,42.86,15.02,45.86z"/>
<path id="Path_255_" class="st4" d="M18.57,45.79c-0.07,0.53,0.29,1.16,1.29,1.63c0.63,0.3,1.95,0.65,3.68-0.08
	c0.78-0.33,1.53-1.35,1.46-1.91C24.07,43.67,19.45,43.41,18.57,45.79z"/>
<linearGradient id="Oval_4_" gradientUnits="userSpaceOnUse" x1="-446.0269" y1="475.0248" x2="-446.0269" y2="475.5765" gradientTransform="matrix(6.5701 0 0 -6.5701 2952.1062 3168.5269)">
	<stop  offset="0" style="stop-color:#A6694A"/>
	<stop  offset="1" style="stop-color:#4F2A1E"/>
</linearGradient>
<circle id="Oval_35_" class="st11" cx="21.66" cy="45.75" r="1.81"/>
<path id="Path_254_" class="st6" d="M20.76,45.72c0,1.25,1.81,1.25,1.81,0C22.57,44.56,20.76,44.56,20.76,45.72z"/>
<path id="Path_253_" class="st7" d="M20.48,45.21c0,0.53,0.76,0.53,0.76,0C21.24,44.72,20.48,44.72,20.48,45.21z"/>
<path id="Path_252_" class="st2" d="M18.57,45.86c0.73-2.36,5.75-2.03,6.44-0.43C24.75,43.4,19.19,42.86,18.57,45.86z"/>
<linearGradient id="SVGID_2_" gradientUnits="userSpaceOnUse" x1="-102.9166" y1="47.7755" x2="-102.9166" y2="29.0001" gradientTransform="matrix(1 0 0 1 119.5918 0)">
	<stop  offset="0" style="stop-color:#473834"/>
	<stop  offset="0.2717" style="stop-color:#594640"/>
	<stop  offset="0.7226" style="stop-color:#715950"/>
	<stop  offset="1" style="stop-color:#7A6056"/>
</linearGradient>
<path class="st12" d="M16.79,29c-4.87,0-7.31,2.21-7.8,3.25C3.1,33.6,1.21,43.54,5.62,47.78c0.55-4.52,1.07-7.42,4.08-10.48
	c1.75,2.35,5.39,3.67,8.65,3.67c-1.54-1.12-2.59-2.22-3.42-3.24c5.44,2.5,11.53,4.09,13.05,10.05C33.2,39.44,28.86,29,16.79,29z"/>
<path class="st0" d="M8.98,32.25c-0.07,4.16,1.61,7.27,9.37,8.71C12.79,41.34,7.07,37.98,8.98,32.25z"/>
<path class="st0" d="M9.47,37.03c-2.03,2-4.3,5.46-3.87,10.74c0.4-4.37,2.41-7.96,4.22-10.29C9.7,37.34,9.58,37.19,9.47,37.03z"/>
<path class="st0" d="M12.94,35.72c4.07,3.88,14.07,3.63,15.04,12.06C25.38,39.58,16.54,41.42,12.94,35.72z"/>
<linearGradient id="SVGID_3_" gradientUnits="userSpaceOnUse" x1="31.9994" y1="28.6001" x2="31.9994" y2="2.9999">
	<stop  offset="0" style="stop-color:#DB0100"/>
	<stop  offset="0.5836" style="stop-color:#F31317"/>
	<stop  offset="1" style="stop-color:#FF1C23"/>
</linearGradient>
<path class="st13" d="M32,6.86c-4.2-6.82-15.8-4.16-15.81,4.41c0,5.15,4.32,8.78,12.75,15.59c2.86,2.31,3.27,2.31,6.13,0
	c8.42-6.81,12.74-10.44,12.74-15.6C47.81,2.71,36.2,0.05,32,6.86z"/>
</svg>
