<?xml version="1.0" encoding="utf-8"?>
<!-- Generator: Adobe Illustrator 24.1.2, SVG Export Plug-In . SVG Version: 6.00 Build 0)  -->
<svg version="1.1" id="Layer_1" xmlns="http://www.w3.org/2000/svg" xmlns:xlink="http://www.w3.org/1999/xlink" x="0px" y="0px"
	 width="64px" height="64px" viewBox="0 0 64 64" style="enable-background:new 0 0 64 64;" xml:space="preserve">
<style type="text/css">
	.st0{fill:url(#SVGID_1_);}
	.st1{fill:url(#SVGID_2_);}
	.st2{fill:url(#SVGID_3_);}
	.st3{fill:url(#SVGID_4_);}
	.st4{fill:url(#SVGID_5_);}
	.st5{fill:url(#SVGID_6_);}
</style>
<radialGradient id="SVGID_1_" cx="117.0521" cy="-1082.1897" r="17.0946" fx="123.1361" fy="-1073.522" gradientTransform="matrix(0.6424 -0.7673 1.2053 1.0055 1267.6251 1188.8607)" gradientUnits="userSpaceOnUse">
	<stop  offset="0.0551" style="stop-color:#73EFFF"/>
	<stop  offset="0.2848" style="stop-color:#70EDFF"/>
	<stop  offset="0.4461" style="stop-color:#67E5FF"/>
	<stop  offset="0.5866" style="stop-color:#57D8FF"/>
	<stop  offset="0.7151" style="stop-color:#42C7FF"/>
	<stop  offset="0.8354" style="stop-color:#25AFFF"/>
	<stop  offset="0.9482" style="stop-color:#0393FF"/>
	<stop  offset="0.9564" style="stop-color:#0091FF"/>
</radialGradient>
<path class="st0" d="M50.41,4.44c-10.7-5.26-27.83-0.56-29.26,0.6C20.58,5.5,20.53,6.1,21.69,6.7c6.65,3.44,9.73,6.78,14.33,16.16
	C48.68,48.74,78.31,18.16,50.41,4.44z"/>
<linearGradient id="SVGID_2_" gradientUnits="userSpaceOnUse" x1="322.3934" y1="48.7504" x2="322.3934" y2="30.2981" gradientTransform="matrix(1.1846 0.0254 -0.0215 0.9998 -342.9279 -34.7378)">
	<stop  offset="0.0528" style="stop-color:#C4EEFF;stop-opacity:0"/>
	<stop  offset="0.4504" style="stop-color:#CDF0FF;stop-opacity:0.4197"/>
	<stop  offset="1" style="stop-color:#D4F2FF"/>
</linearGradient>
<path class="st1" d="M45.95,5.4C37.78,2.03,24.74,4.58,23.64,5.3c-0.44,0.29-0.49,0.67,0.39,1.08c5.02,2.32,8.09,4.57,11.21,10.31
	C43.37,31.67,63.84,12.78,45.95,5.4z"/>
<radialGradient id="SVGID_3_" cx="-200.4774" cy="-90.8517" r="13.2893" fx="-195.7477" fy="-84.1135" gradientTransform="matrix(0.9789 -0.2081 0.3291 1.5348 263.2373 139.1846)" gradientUnits="userSpaceOnUse">
	<stop  offset="0.0551" style="stop-color:#73EFFF"/>
	<stop  offset="0.2848" style="stop-color:#70EDFF"/>
	<stop  offset="0.4461" style="stop-color:#67E5FF"/>
	<stop  offset="0.5866" style="stop-color:#57D8FF"/>
	<stop  offset="0.7151" style="stop-color:#42C7FF"/>
	<stop  offset="0.8354" style="stop-color:#25AFFF"/>
	<stop  offset="0.9482" style="stop-color:#0393FF"/>
	<stop  offset="0.9564" style="stop-color:#0091FF"/>
</radialGradient>
<path class="st2" d="M47.46,43.26c-4.03-8.35-16.77-13.68-18.2-13.65c-0.57,0.01-0.89,0.35-0.46,1.27
	c2.42,5.29,2.71,8.81,1.02,16.76C25.18,69.55,57.97,65.03,47.46,43.26z"/>
<linearGradient id="SVGID_4_" gradientUnits="userSpaceOnUse" x1="774.2226" y1="939.5858" x2="774.2226" y2="925.2411" gradientTransform="matrix(0.9171 0.7503 -0.6333 0.7739 -83.6943 -1259.9194)">
	<stop  offset="0.0528" style="stop-color:#C4EEFF;stop-opacity:0"/>
	<stop  offset="0.4504" style="stop-color:#CDF0FF;stop-opacity:0.4197"/>
	<stop  offset="1" style="stop-color:#D4F2FF"/>
</linearGradient>
<path class="st3" d="M44.28,41.71c-3.38-5.98-12.59-10.66-13.61-10.75c-0.41-0.03-0.62,0.18-0.28,0.84
	c1.96,3.83,2.76,6.67,1.92,11.69C30.11,56.56,51.69,54.8,44.28,41.71z"/>
<radialGradient id="SVGID_5_" cx="-112.0863" cy="406.7225" r="13.2893" fx="-107.3566" fy="413.4607" gradientTransform="matrix(0.9925 0.1281 -0.1983 1.5571 205.3291 -593.6608)" gradientUnits="userSpaceOnUse">
	<stop  offset="0.0551" style="stop-color:#73EFFF"/>
	<stop  offset="0.2848" style="stop-color:#70EDFF"/>
	<stop  offset="0.4461" style="stop-color:#67E5FF"/>
	<stop  offset="0.5866" style="stop-color:#57D8FF"/>
	<stop  offset="0.7151" style="stop-color:#42C7FF"/>
	<stop  offset="0.8354" style="stop-color:#25AFFF"/>
	<stop  offset="0.9482" style="stop-color:#0393FF"/>
	<stop  offset="0.9564" style="stop-color:#0091FF"/>
</radialGradient>
<path class="st4" d="M22.63,30.39c-1.03-9.21-11.29-18.46-12.64-18.91c-0.54-0.18-0.95,0.04-0.86,1.05
	c0.53,5.79-0.36,9.21-4.59,16.15C-7.11,47.81,25.32,54.42,22.63,30.39z"/>
<linearGradient id="SVGID_6_" gradientUnits="userSpaceOnUse" x1="1139.386" y1="1201.9928" x2="1139.386" y2="1187.6482" gradientTransform="matrix(0.6165 1.0119 -0.854 0.5202 329.9009 -1748.5847)">
	<stop  offset="0.0528" style="stop-color:#C4EEFF;stop-opacity:0"/>
	<stop  offset="0.4504" style="stop-color:#CDF0FF;stop-opacity:0.4197"/>
	<stop  offset="1" style="stop-color:#D4F2FF"/>
</linearGradient>
<path class="st5" d="M20.13,27.87c-1.21-6.76-8.34-14.23-9.28-14.65c-0.37-0.17-0.64-0.04-0.54,0.7c0.58,4.26,0.4,7.21-2.06,11.66
	C1.84,37.18,22.79,42.68,20.13,27.87z"/>
</svg>
