<?xml version="1.0" encoding="utf-8"?>
<!-- Generator: Adobe Illustrator 24.1.2, SVG Export Plug-In . SVG Version: 6.00 Build 0)  -->
<svg version="1.1" id="Layer_1" xmlns="http://www.w3.org/2000/svg" xmlns:xlink="http://www.w3.org/1999/xlink" x="0px" y="0px"
	 width="64px" height="64px" viewBox="0 0 64 64" style="enable-background:new 0 0 64 64;" xml:space="preserve">
<style type="text/css">
	.st0{fill:url(#SVGID_1_);}
	.st1{fill:url(#SVGID_2_);}
	.st2{fill:url(#SVGID_3_);}
	.st3{fill:url(#SVGID_4_);}
</style>
<linearGradient id="SVGID_1_" gradientUnits="userSpaceOnUse" x1="-550.9802" y1="2412.1677" x2="-512.7984" y2="2412.1677" gradientTransform="matrix(-6.123234e-17 -1 -1 6.123234e-17 2464.4485 -499.8879)">
	<stop  offset="0" style="stop-color:#DB0100"/>
	<stop  offset="1" style="stop-color:#FF1C23"/>
</linearGradient>
<path class="st0" d="M60.26,13.78c-0.87-0.92-2.35-1.15-3.49-0.51c-4.48,2.51-14.2,8.77-14.2,18.73c0,9.96,9.73,16.22,14.2,18.73
	c1.14,0.64,2.61,0.42,3.49-0.51l1.08-1.14c0.98-1.04,0.86-2.59-0.25-3.51c-2.96-2.45-9.75-8.03-9.75-13.57
	c0-5.54,6.79-11.11,9.75-13.57c1.11-0.92,1.23-2.47,0.25-3.51L60.26,13.78z"/>
<linearGradient id="SVGID_2_" gradientUnits="userSpaceOnUse" x1="2381.0381" y1="621.8572" x2="2342.8562" y2="621.8572" gradientTransform="matrix(6.123234e-17 1 1 -6.123234e-17 -610.1379 -2329.9485)">
	<stop  offset="0" style="stop-color:#DB0100"/>
	<stop  offset="1" style="stop-color:#FF1C23"/>
</linearGradient>
<path class="st1" d="M3.74,50.22c0.87,0.92,2.35,1.15,3.49,0.51c4.48-2.51,14.2-8.77,14.2-18.73s-9.73-16.22-14.2-18.73
	c-1.14-0.64-2.61-0.42-3.49,0.51l-1.08,1.14c-0.98,1.04-0.86,2.59,0.25,3.51c2.96,2.45,9.75,8.03,9.75,13.57S5.87,43.11,2.91,45.57
	c-1.11,0.92-1.23,2.47-0.25,3.51L3.74,50.22z"/>
<linearGradient id="SVGID_3_" gradientUnits="userSpaceOnUse" x1="7.4388" y1="55.2473" x2="7.4388" y2="74.6858" gradientTransform="matrix(1 0 0 -1 24.5598 117.2473)">
	<stop  offset="0" style="stop-color:#DB0100"/>
	<stop  offset="1" style="stop-color:#FF1C23"/>
</linearGradient>
<path class="st2" d="M50.22,60.26c0.92-0.87,1.15-2.35,0.51-3.49c-2.51-4.48-8.77-14.2-18.73-14.2c-9.96,0-16.22,9.73-18.73,14.2
	c-0.64,1.14-0.42,2.61,0.51,3.49l1.14,1.08c1.04,0.98,2.59,0.86,3.51-0.25c2.45-2.96,8.03-9.75,13.57-9.75
	c5.54,0,11.11,6.79,13.57,9.75c0.92,1.11,2.47,1.23,3.51,0.25L50.22,60.26z"/>
<linearGradient id="SVGID_4_" gradientUnits="userSpaceOnUse" x1="1822.619" y1="2978.7776" x2="1822.619" y2="2959.3391" gradientTransform="matrix(-1 0 0 1 1854.6204 -2957.3391)">
	<stop  offset="0" style="stop-color:#DB0100"/>
	<stop  offset="1" style="stop-color:#FF1C23"/>
</linearGradient>
<path class="st3" d="M13.78,3.74c-0.92,0.87-1.15,2.35-0.51,3.49c2.51,4.48,8.77,14.2,18.73,14.2s16.22-9.73,18.73-14.2
	c0.64-1.14,0.42-2.61-0.51-3.49l-1.14-1.08c-1.04-0.98-2.59-0.86-3.51,0.25c-2.45,2.96-8.03,9.75-13.57,9.75S20.89,5.87,18.43,2.91
	c-0.92-1.11-2.47-1.23-3.51-0.25L13.78,3.74z"/>
</svg>
