<?xml version="1.0" encoding="utf-8"?>
<!-- Generator: Adobe Illustrator 24.1.2, SVG Export Plug-In . SVG Version: 6.00 Build 0)  -->
<svg version="1.1" id="Layer_1" xmlns="http://www.w3.org/2000/svg" xmlns:xlink="http://www.w3.org/1999/xlink" x="0px" y="0px"
	 width="64px" height="64px" viewBox="0 0 64 64" style="enable-background:new 0 0 64 64;" xml:space="preserve">
<style type="text/css">
	.st0{fill:url(#SVGID_1_);}
	.st1{fill:url(#SVGID_2_);}
	.st2{fill:url(#SVGID_3_);}
</style>
<linearGradient id="SVGID_1_" gradientUnits="userSpaceOnUse" x1="-179.1575" y1="40.9903" x2="-167.0532" y2="61.955" gradientTransform="matrix(0.866 -0.5 -0.5 -0.866 188.5431 7.9193)">
	<stop  offset="0" style="stop-color:#005EFF"/>
	<stop  offset="0.1047" style="stop-color:#006EFF"/>
	<stop  offset="0.3331" style="stop-color:#018BFF"/>
	<stop  offset="0.5604" style="stop-color:#019FFF"/>
	<stop  offset="0.7841" style="stop-color:#01ACFF"/>
	<stop  offset="1" style="stop-color:#01B0FF"/>
</linearGradient>
<path class="st0" d="M21.15,51.68c0.4-0.23,0.76-0.14,1,0.27l1.52,2.63c0.23,0.41,0.14,0.77-0.27,1l-10.9,6.29
	c-0.41,0.23-0.77,0.14-1-0.27l-1.2-2.08c-0.18-0.3-0.23-0.58-0.23-0.92l0.59-14.13l-6.03,3.48c-0.4,0.23-0.77,0.14-1-0.27
	l-1.52-2.64c-0.23-0.41-0.14-0.77,0.27-1l10.64-6.14c0.4-0.24,0.76-0.14,1,0.27l1.2,2.08c0.18,0.3,0.23,0.57,0.23,0.92l-0.59,14.13
	L21.15,51.68z"/>
<linearGradient id="SVGID_2_" gradientUnits="userSpaceOnUse" x1="-130.8643" y1="44.3078" x2="-120.3611" y2="73.1671" gradientTransform="matrix(0.9397 -0.342 -0.342 -0.9397 164.9759 42.5921)">
	<stop  offset="0" style="stop-color:#005EFF"/>
	<stop  offset="0.1047" style="stop-color:#006EFF"/>
	<stop  offset="0.3331" style="stop-color:#018BFF"/>
	<stop  offset="0.5604" style="stop-color:#019FFF"/>
	<stop  offset="0.7841" style="stop-color:#01ACFF"/>
	<stop  offset="1" style="stop-color:#01B0FF"/>
</linearGradient>
<path class="st1" d="M37,34.53c0.57-0.21,1.01,0,1.22,0.57l1.35,3.72c0.21,0.57,0,1.01-0.57,1.22l-15.37,5.59
	c-0.57,0.21-1.01,0-1.22-0.57l-1.07-2.93c-0.15-0.43-0.16-0.79-0.08-1.23l3.95-17.96l-8.51,3.1c-0.57,0.21-1.01,0.01-1.22-0.57
	l-1.35-3.72c-0.21-0.57,0-1.01,0.57-1.22l15.01-5.46c0.57-0.21,1.01,0,1.22,0.57L32,18.58c0.16,0.43,0.17,0.79,0.08,1.23
	l-3.95,17.95L37,34.53z"/>
<linearGradient id="SVGID_3_" gradientUnits="userSpaceOnUse" x1="-42.2845" y1="38.0005" x2="-42.2845" y2="68.0005" gradientTransform="matrix(1 0 0 -1 94 70)">
	<stop  offset="0" style="stop-color:#005EFF"/>
	<stop  offset="0.1047" style="stop-color:#006EFF"/>
	<stop  offset="0.3331" style="stop-color:#018BFF"/>
	<stop  offset="0.5604" style="stop-color:#019FFF"/>
	<stop  offset="0.7841" style="stop-color:#01ACFF"/>
	<stop  offset="1" style="stop-color:#01B0FF"/>
</linearGradient>
<path class="st2" d="M60.93,25.4c0.68,0,1.07,0.38,1.07,1.07v4.46c0,0.68-0.39,1.07-1.07,1.07H42.5c-0.69,0-1.07-0.39-1.07-1.07
	v-3.51c0-0.51,0.13-0.9,0.38-1.33L52.91,8.6h-10.2c-0.68,0-1.07-0.38-1.07-1.07V3.07c0-0.68,0.39-1.07,1.07-1.07h18
	c0.69,0,1.07,0.39,1.07,1.07v3.51c0,0.52-0.13,0.9-0.38,1.33L50.3,25.4H60.93z"/>
</svg>
