<?xml version="1.0" encoding="utf-8"?>
<!-- Generator: Adobe Illustrator 24.1.2, SVG Export Plug-In . SVG Version: 6.00 Build 0)  -->
<svg version="1.1" id="Layer_1" xmlns="http://www.w3.org/2000/svg" xmlns:xlink="http://www.w3.org/1999/xlink" x="0px" y="0px"
	 width="64px" height="64px" viewBox="0 0 64 64" style="enable-background:new 0 0 64 64;" xml:space="preserve">
<style type="text/css">
	.st0{fill:url(#SVGID_1_);}
</style>
<linearGradient id="SVGID_1_" gradientUnits="userSpaceOnUse" x1="32" y1="62" x2="32" y2="2">
	<stop  offset="0" style="stop-color:#00A661"/>
	<stop  offset="0.1896" style="stop-color:#00B970"/>
	<stop  offset="0.4651" style="stop-color:#00CD80"/>
	<stop  offset="0.7373" style="stop-color:#00DA8A"/>
	<stop  offset="1" style="stop-color:#00DE8D"/>
</linearGradient>
<path class="st0" d="M48.14,35.72c-0.89-1.5-2.07-2.73-3.53-3.69c-1.46-0.95-3.06-1.71-4.8-2.26c-1.36-0.43-2.71-0.8-4.07-1.14
	V16.76c3.2,0.55,6.36,1.97,9.47,4.24l3.24-7.12c-1.19-1.02-2.64-1.91-4.35-2.67c-1.72-0.76-3.57-1.36-5.56-1.78
	c-0.74-0.16-1.48-0.28-2.22-0.37V2h-7.75v7.14c-1.77,0.29-3.43,0.77-4.96,1.47c-2.63,1.21-4.7,2.86-6.23,4.96
	c-1.53,2.1-2.29,4.48-2.29,7.15c0,2.37,0.43,4.32,1.3,5.85c0.87,1.53,2.03,2.77,3.5,3.72c1.46,0.95,3.07,1.72,4.83,2.29
	c1.53,0.5,3.04,0.93,4.54,1.32V47.4c-1.76-0.15-3.43-0.48-5.02-1.01c-2.25-0.74-4.41-1.87-6.48-3.4l-3.24,7.12
	c2.12,1.61,4.66,2.86,7.63,3.75c2.02,0.61,4.16,0.99,6.42,1.18V62h7.75v-7.18c1.7-0.29,3.29-0.73,4.73-1.37
	c2.65-1.17,4.71-2.78,6.2-4.83c1.48-2.05,2.22-4.44,2.22-7.15C49.48,39.14,49.03,37.22,48.14,35.72z M26.28,25.17
	c-0.89-0.74-1.34-1.77-1.34-3.08c0-1.78,0.7-3.16,2.1-4.13c0.64-0.45,1.39-0.78,2.22-1.02v9.87C28.06,26.36,27.05,25.81,26.28,25.17
	z M37.5,46.08c-0.49,0.34-1.1,0.6-1.75,0.82v-9.17c0.99,0.38,1.81,0.83,2.48,1.36c0.89,0.7,1.34,1.64,1.34,2.83
	C39.56,43.74,38.87,45.12,37.5,46.08z"/>
</svg>
