<?xml version="1.0" encoding="utf-8"?>
<!-- Generator: Adobe Illustrator 24.1.2, SVG Export Plug-In . SVG Version: 6.00 Build 0)  -->
<svg version="1.1" id="Layer_1" xmlns="http://www.w3.org/2000/svg" xmlns:xlink="http://www.w3.org/1999/xlink" x="0px" y="0px"
	 width="64px" height="64px" viewBox="0 0 64 64" style="enable-background:new 0 0 64 64;" xml:space="preserve">
<style type="text/css">
	.st0{fill:#777D80;}
	.st1{fill:#666B6E;}
	.st2{fill:#302C3B;}
	.st3{fill:url(#SVGID_1_);}
	.st4{fill:#4E5E67;}
	.st5{fill:#1A1626;}
	.st6{fill:#B3C2C6;}
	.st7{fill:#A7AEB3;}
	.st8{fill:#BAC2C7;}
</style>
<polygon class="st0" points="57,37.5 7,37.5 2,56.43 62,56.43 "/>
<path class="st1" d="M2,56.43c0,1.42,60,1.42,60,0H2z"/>
<path class="st2" d="M7,37.5h50V7.45c0-0.52-0.43-0.95-0.95-0.95H7.95C7.42,6.5,7,6.93,7,7.45V37.5z"/>
<linearGradient id="SVGID_1_" gradientUnits="userSpaceOnUse" x1="32" y1="35.0001" x2="32" y2="9.0001">
	<stop  offset="0" style="stop-color:#4E5E67"/>
	<stop  offset="1" style="stop-color:#6E8189"/>
</linearGradient>
<rect x="7.5" y="9" class="st3" width="49" height="26"/>
<path class="st4" d="M32.4,7.75c0,0.53-0.79,0.53-0.79,0C31.61,7.22,32.4,7.22,32.4,7.75z"/>
<path class="st4" d="M23.15,7.75c0,0.53-0.79,0.53-0.79,0C22.36,7.22,23.15,7.22,23.15,7.75z"/>
<path class="st5" d="M27.63,7.75c0,0.33-0.5,0.33-0.5,0C27.13,7.42,27.63,7.42,27.63,7.75z"/>
<path class="st5" d="M36.88,7.75c0,0.33-0.5,0.33-0.5,0C36.38,7.42,36.88,7.42,36.88,7.75z"/>
<path class="st4" d="M41.65,7.75c0,0.53-0.79,0.53-0.79,0C40.86,7.22,41.65,7.22,41.65,7.75z"/>
<path id="diamond_12_" class="st6" d="M30.95,35.75l0.09,0.09c0,0,0,0,0,0.01c0,0,0,0.01,0,0.01l-0.09,0.09c0,0-0.01,0-0.01,0
	c0,0,0,0-0.01,0l-0.09-0.09c0,0,0-0.01,0-0.01l0.09-0.09C30.94,35.75,30.95,35.75,30.95,35.75z"/>
<path id="pixels_12_" class="st6" d="M32.38,36.01c0.14,0,0.25,0.12,0.25,0.27c0,0.15-0.12,0.27-0.25,0.27
	c-0.08,0-0.14-0.03-0.18-0.09v0.25c0,0.01,0,0.01-0.01,0.02c-0.01,0-0.01,0.01-0.02,0.01h-0.06c-0.01,0-0.01,0-0.02-0.01
	c0,0-0.01-0.01,0-0.02v-0.66c0-0.01,0-0.01,0-0.02c0,0,0.01-0.01,0.02-0.01h0.06c0.01,0,0.01,0,0.02,0.01c0,0,0.01,0.01,0.01,0.02
	v0.05C32.24,36.05,32.3,36.01,32.38,36.01L32.38,36.01z M32.37,36.44c0.09,0,0.16-0.07,0.16-0.16c0-0.09-0.07-0.16-0.16-0.16
	c-0.09,0-0.16,0.07-0.16,0.16C32.21,36.37,32.27,36.44,32.37,36.44z M32.72,36.53c-0.01,0-0.01,0-0.02-0.01c0,0-0.01-0.01,0-0.02
	v-0.46c0-0.01,0-0.01,0-0.02c0,0,0.01-0.01,0.02-0.01h0.06c0,0,0.01,0,0.02,0.01c0,0,0.01,0.01,0.01,0.02v0.46
	c0,0.01,0,0.01-0.01,0.02c0,0-0.01,0.01-0.02,0.01L32.72,36.53z M33.28,36.51c0.01,0.01,0,0.03-0.02,0.03H33.2
	c-0.01,0-0.02-0.01-0.03-0.02l-0.1-0.15l-0.1,0.15c-0.01,0.01-0.02,0.02-0.03,0.02h-0.07c-0.02,0-0.03-0.01-0.01-0.03l0.15-0.23
	l-0.14-0.22c-0.01-0.02,0-0.03,0.01-0.03h0.07c0.01,0,0.02,0.01,0.03,0.02l0.09,0.14l0.09-0.14c0-0.01,0.02-0.02,0.03-0.02h0.07
	c0.02,0,0.02,0.01,0.02,0.03l-0.14,0.22L33.28,36.51z M33.54,36.01c0.15,0,0.25,0.12,0.25,0.27c0,0.01,0,0.02,0,0.03
	c0,0.01,0,0.01-0.01,0.02c-0.01,0-0.01,0.01-0.02,0h-0.38c0.02,0.08,0.08,0.13,0.16,0.13c0.04,0,0.08-0.02,0.11-0.05
	c0.01-0.01,0.02-0.01,0.03-0.01h0.06c0.02,0,0.03,0.01,0.02,0.03c-0.04,0.08-0.12,0.13-0.22,0.13c-0.16,0-0.27-0.11-0.27-0.27
	C33.28,36.13,33.39,36.01,33.54,36.01L33.54,36.01z M33.39,36.24h0.29c-0.01-0.09-0.08-0.12-0.14-0.12
	C33.46,36.11,33.41,36.16,33.39,36.24L33.39,36.24z M33.87,36.53c0,0-0.01,0-0.02-0.01c0,0-0.01-0.01-0.01-0.02v-0.68
	c0-0.01,0-0.01,0.01-0.02c0,0,0.01-0.01,0.02-0.01h0.06c0.01,0,0.01,0,0.02,0.01c0,0,0.01,0.01,0.01,0.02v0.68
	c0,0.01,0,0.01-0.01,0.02c0,0-0.01,0.01-0.02,0.01H33.87z M34.14,36.17c0,0.1,0.28,0.03,0.28,0.22c0,0.1-0.09,0.16-0.2,0.16
	c-0.1,0-0.19-0.05-0.2-0.14c0-0.01,0-0.01,0.01-0.02c0,0,0.01-0.01,0.02-0.01h0.06c0.01,0,0.02,0.01,0.02,0.02
	c0.01,0.04,0.04,0.05,0.09,0.05c0.05,0,0.09-0.02,0.09-0.06c0-0.1-0.28-0.03-0.28-0.22c0-0.1,0.09-0.16,0.19-0.16
	c0.1,0,0.18,0.05,0.19,0.15c0,0.01,0,0.01,0,0.02c-0.01,0-0.01,0.01-0.02,0.01h-0.06c-0.01,0-0.02-0.01-0.02-0.02
	c-0.01-0.04-0.04-0.05-0.08-0.05C34.18,36.11,34.14,36.13,34.14,36.17z"/>
<path id="joy_12_" class="st6" d="M30.97,36.03c0.01,0,0.01,0,0.02,0.01c0.01,0,0.01,0.01,0.01,0.02v0.5c0,0.13-0.06,0.2-0.18,0.2
	c-0.01,0-0.01,0-0.02-0.01c0,0-0.01-0.01-0.01-0.02v-0.06c0-0.01,0-0.01,0.01-0.02c0,0,0.01-0.01,0.02-0.01
	c0.05,0,0.08-0.03,0.08-0.09v-0.5c0-0.01,0-0.01,0-0.02c0.01,0,0.01-0.01,0.02-0.01H30.97z M31.33,36.55
	c-0.15,0-0.27-0.12-0.26-0.27c0-0.15,0.12-0.27,0.27-0.27c0.15,0,0.27,0.12,0.27,0.27c0,0.07-0.03,0.14-0.08,0.19
	C31.46,36.52,31.4,36.55,31.33,36.55z M31.33,36.44c0.07,0,0.12-0.04,0.15-0.1c0.02-0.06,0.01-0.13-0.03-0.17
	c-0.05-0.05-0.11-0.06-0.17-0.04c-0.06,0.02-0.1,0.08-0.1,0.15c0,0.04,0.01,0.08,0.04,0.11C31.24,36.42,31.28,36.44,31.33,36.44z
	 M31.94,36.05c0-0.01,0.01-0.02,0.03-0.02h0.07c0.02,0,0.02,0.01,0.02,0.03l-0.23,0.67c0,0.01-0.01,0.02-0.03,0.02h-0.07
	c-0.02,0-0.03-0.01-0.02-0.03l0.06-0.18l-0.19-0.47c-0.01-0.02,0-0.03,0.02-0.03h0.07c0.01,0,0.02,0.01,0.03,0.02l0.13,0.33
	L31.94,36.05z"/>
<path id="Shape_25_" class="st6" d="M30.06,35.9c0.2,0,0.36,0.16,0.36,0.36s-0.16,0.36-0.36,0.36c-0.2,0-0.36-0.16-0.36-0.36
	S29.86,35.9,30.06,35.9z M30.06,35.78c-0.27,0-0.48,0.21-0.48,0.48c0,0.27,0.22,0.48,0.48,0.48c0.27,0,0.48-0.22,0.48-0.48
	c0-0.13-0.05-0.25-0.14-0.34C30.31,35.83,30.18,35.78,30.06,35.78z"/>
<path id="Combined-Shape_18_" class="st6" d="M30.15,36.31c-0.01,0-0.01,0-0.02-0.01c0,0-0.01-0.01,0-0.02v-0.05
	c0-0.01,0-0.01,0-0.02c0.01,0,0.01-0.01,0.02-0.01h0.16c0.01,0,0.01,0,0.02,0.01c0,0,0.01,0.01,0,0.02v0.02
	c0,0.11-0.07,0.21-0.17,0.26c-0.1,0.04-0.22,0.02-0.3-0.06c0,0-0.01-0.01-0.01-0.02c0-0.01,0-0.01,0.01-0.02l0.05-0.05
	c0,0,0.01-0.01,0.02-0.01c0,0,0.01,0,0.02,0.01c0.04,0.04,0.09,0.05,0.15,0.04c0.05-0.01,0.09-0.05,0.11-0.1H30.15z"/>
<path class="st1" d="M43.85,55.3c0.02,0.26-0.17,0.48-0.42,0.48H20.57c-0.25,0-0.44-0.22-0.42-0.48l0.68-5.59
	c0.02-0.26,0.24-0.48,0.48-0.48h21.39c0.24,0,0.46,0.22,0.48,0.48L43.85,55.3z"/>
<path class="st7" d="M43.73,55.16c0.02,0.26-0.17,0.47-0.41,0.47H20.68c-0.25,0-0.43-0.21-0.41-0.47l0.67-5.45
	c0.02-0.26,0.23-0.47,0.48-0.47h21.18c0.24,0,0.46,0.21,0.47,0.47L43.73,55.16z"/>
<path class="st1" d="M4.64,48.29L7.3,37.9c0.03-0.12,0.23-0.23,0.45-0.23h1.11c0.22,0,0.37,0.1,0.34,0.23L6.75,48.29
	c-0.04,0.15-0.26,0.28-0.5,0.28H5.01C4.77,48.56,4.6,48.44,4.64,48.29z"/>
<path class="st1" d="M57.25,48.29L54.79,37.9c-0.03-0.12,0.12-0.23,0.34-0.23h1.11c0.22,0,0.42,0.1,0.45,0.23l2.66,10.39
	c0.04,0.15-0.13,0.28-0.37,0.28h-1.24C57.51,48.56,57.28,48.44,57.25,48.29z"/>
<path class="st8" d="M11.73,39.57H9.54c-0.2,0-0.34-0.1-0.31-0.22l0.31-1.31c0.03-0.12,0.21-0.21,0.4-0.21h2.15
	c0.2,0,0.34,0.1,0.31,0.21l-0.27,1.31C12.11,39.47,11.93,39.57,11.73,39.57z"/>
<path class="st8" d="M14.89,39.57h-2.18c-0.2,0-0.34-0.1-0.32-0.22l0.26-1.31c0.02-0.12,0.2-0.21,0.4-0.21h2.15
	c0.2,0,0.34,0.1,0.32,0.21l-0.22,1.31C15.27,39.47,15.09,39.57,14.89,39.57z"/>
<path class="st8" d="M18.05,39.57h-2.18c-0.2,0-0.35-0.1-0.32-0.22l0.22-1.31c0.02-0.12,0.2-0.21,0.39-0.21h2.15
	c0.2,0,0.34,0.1,0.33,0.21l-0.18,1.31C18.43,39.47,18.25,39.57,18.05,39.57z"/>
<path class="st8" d="M21.21,39.57h-2.18c-0.2,0-0.35-0.1-0.33-0.22l0.18-1.31c0.02-0.12,0.19-0.21,0.38-0.21h2.15
	c0.2,0,0.35,0.1,0.33,0.21l-0.14,1.31C21.59,39.47,21.41,39.57,21.21,39.57z"/>
<path class="st8" d="M24.38,39.57h-2.18c-0.2,0-0.35-0.1-0.34-0.22l0.14-1.31c0.01-0.12,0.18-0.21,0.38-0.21h2.15
	c0.2,0,0.35,0.1,0.34,0.21l-0.1,1.31C24.75,39.47,24.58,39.57,24.38,39.57z"/>
<path class="st8" d="M27.54,39.57h-2.18c-0.2,0-0.35-0.1-0.35-0.22l0.09-1.31c0.01-0.12,0.17-0.21,0.37-0.21h2.15
	c0.2,0,0.35,0.1,0.35,0.21l-0.05,1.31C27.9,39.47,27.74,39.57,27.54,39.57z"/>
<path class="st8" d="M30.7,39.57h-2.18c-0.2,0-0.36-0.1-0.35-0.22l0.05-1.31c0-0.12,0.17-0.21,0.36-0.21h2.15
	c0.2,0,0.35,0.1,0.35,0.21l-0.01,1.31C31.07,39.47,30.9,39.57,30.7,39.57z"/>
<path class="st8" d="M33.86,39.57h-2.18c-0.2,0-0.36-0.1-0.36-0.22l0.01-1.31c0-0.12,0.16-0.21,0.36-0.21h2.15
	c0.2,0,0.36,0.1,0.36,0.21l0.03,1.31C34.22,39.47,34.06,39.57,33.86,39.57z"/>
<path class="st8" d="M37.03,39.57h-2.18c-0.2,0-0.36-0.1-0.37-0.22l-0.03-1.31c0-0.12,0.15-0.21,0.35-0.21h2.15
	c0.2,0,0.36,0.1,0.37,0.21l0.07,1.31C37.38,39.47,37.23,39.57,37.03,39.57z"/>
<path class="st8" d="M40.19,39.57H38c-0.2,0-0.37-0.1-0.37-0.22l-0.08-1.31c-0.01-0.12,0.15-0.21,0.34-0.21h2.15
	c0.2,0,0.36,0.1,0.37,0.21l0.11,1.31C40.54,39.47,40.39,39.57,40.19,39.57z"/>
<path class="st8" d="M43.36,39.57h-2.18c-0.2,0-0.37-0.1-0.38-0.22l-0.12-1.31c-0.01-0.12,0.14-0.21,0.34-0.21h2.15
	c0.2,0,0.37,0.1,0.38,0.21l0.16,1.31C43.7,39.47,43.55,39.57,43.36,39.57z"/>
<path class="st8" d="M46.51,39.57h-2.18c-0.2,0-0.37-0.1-0.39-0.22l-0.16-1.31c-0.01-0.12,0.13-0.21,0.33-0.21h2.15
	c0.2,0,0.37,0.1,0.39,0.21l0.2,1.31C46.86,39.47,46.71,39.57,46.51,39.57z"/>
<path class="st8" d="M49.68,39.57H47.5c-0.2,0-0.38-0.1-0.4-0.22l-0.2-1.31c-0.02-0.12,0.13-0.21,0.32-0.21h2.15
	c0.2,0,0.37,0.1,0.39,0.21L50,39.35C50.02,39.47,49.88,39.57,49.68,39.57z"/>
<path class="st8" d="M54.46,39.57h-3.8c-0.2,0-0.38-0.1-0.4-0.22l-0.24-1.31c-0.02-0.12,0.12-0.21,0.32-0.21h3.73
	c0.2,0,0.38,0.1,0.4,0.21l0.31,1.31C54.79,39.47,54.65,39.57,54.46,39.57z"/>
<path class="st8" d="M52.33,39.82h2.19c0.2,0,0.39,0.1,0.41,0.22l0.32,1.37c0.03,0.12-0.11,0.23-0.32,0.23h-2.23
	c-0.2,0-0.39-0.1-0.42-0.23l-0.28-1.37C51.99,39.92,52.13,39.82,52.33,39.82z"/>
<path class="st8" d="M49.16,39.82h2.19c0.2,0,0.38,0.1,0.41,0.22l0.27,1.37c0.03,0.12-0.12,0.23-0.32,0.23h-2.23
	c-0.2,0-0.39-0.1-0.41-0.23l-0.23-1.37C48.82,39.92,48.96,39.82,49.16,39.82z"/>
<path class="st8" d="M45.99,39.82h2.19c0.2,0,0.38,0.1,0.4,0.22l0.23,1.37c0.02,0.12-0.13,0.23-0.33,0.23h-2.23
	c-0.2,0-0.38-0.1-0.4-0.23l-0.19-1.37C45.64,39.92,45.79,39.82,45.99,39.82z"/>
<path class="st8" d="M42.81,39.82H45c0.2,0,0.38,0.1,0.39,0.22l0.19,1.37c0.02,0.12-0.13,0.23-0.34,0.23h-2.23
	c-0.2,0-0.38-0.1-0.39-0.23l-0.15-1.37C42.47,39.92,42.62,39.82,42.81,39.82z"/>
<path class="st8" d="M39.65,39.82h2.19c0.2,0,0.37,0.1,0.39,0.22l0.14,1.37c0.01,0.12-0.14,0.23-0.35,0.23h-2.23
	c-0.2,0-0.38-0.1-0.39-0.23l-0.1-1.37C39.29,39.92,39.45,39.82,39.65,39.82z"/>
<path class="st8" d="M36.47,39.82h2.19c0.2,0,0.37,0.1,0.38,0.22l0.1,1.37c0.01,0.12-0.15,0.23-0.35,0.23h-2.23
	c-0.2,0-0.37-0.1-0.38-0.23l-0.06-1.37C36.12,39.92,36.28,39.82,36.47,39.82z"/>
<path class="st8" d="M33.31,39.82h2.19c0.2,0,0.37,0.1,0.37,0.22l0.05,1.37c0,0.12-0.16,0.23-0.36,0.23h-2.23
	c-0.2,0-0.37-0.1-0.37-0.23l-0.01-1.37C32.94,39.92,33.11,39.82,33.31,39.82z"/>
<path class="st8" d="M30.13,39.82h2.19c0.2,0,0.36,0.1,0.36,0.22l0.01,1.37c0,0.12-0.16,0.23-0.37,0.23H30.1
	c-0.2,0-0.37-0.1-0.36-0.23l0.03-1.37C29.77,39.92,29.94,39.82,30.13,39.82z"/>
<path class="st8" d="M26.96,39.82h2.19c0.2,0,0.36,0.1,0.36,0.22l-0.03,1.37c0,0.12-0.17,0.23-0.38,0.23h-2.23
	c-0.2,0-0.36-0.1-0.36-0.23l0.07-1.37C26.6,39.92,26.76,39.82,26.96,39.82z"/>
<path class="st8" d="M23.79,39.82h2.19c0.2,0,0.36,0.1,0.35,0.22l-0.08,1.37c-0.01,0.12-0.18,0.23-0.38,0.23h-2.23
	c-0.2,0-0.36-0.1-0.35-0.23l0.12-1.37C23.43,39.92,23.6,39.82,23.79,39.82z"/>
<path class="st8" d="M20.62,39.82h2.19c0.2,0,0.35,0.1,0.34,0.22l-0.12,1.37c-0.01,0.12-0.19,0.23-0.39,0.23h-2.23
	c-0.2,0-0.36-0.1-0.34-0.23l0.16-1.37C20.25,39.92,20.42,39.82,20.62,39.82z"/>
<path class="st8" d="M17.45,39.82h2.19c0.2,0,0.35,0.1,0.34,0.22l-0.17,1.37c-0.02,0.12-0.19,0.23-0.4,0.23h-2.23
	c-0.2,0-0.35-0.1-0.33-0.23l0.21-1.37C17.08,39.92,17.26,39.82,17.45,39.82z"/>
<path class="st8" d="M14.28,39.82h2.19c0.2,0,0.35,0.1,0.33,0.22l-0.21,1.37c-0.02,0.12-0.2,0.23-0.4,0.23h-2.23
	c-0.2,0-0.35-0.1-0.33-0.23l0.25-1.37C13.9,39.92,14.08,39.82,14.28,39.82z"/>
<path class="st8" d="M9.49,39.82h3.81c0.2,0,0.34,0.1,0.32,0.22l-0.25,1.37c-0.02,0.12-0.21,0.23-0.41,0.23H9.07
	c-0.2,0-0.35-0.1-0.32-0.23l0.32-1.37C9.11,39.92,9.29,39.82,9.49,39.82z"/>
<path class="st8" d="M47.02,41.89h2.24c0.2,0,0.39,0.1,0.41,0.23l0.25,1.42c0.02,0.13-0.13,0.24-0.34,0.24H47.3
	c-0.21,0-0.39-0.11-0.41-0.24l-0.21-1.42C46.67,41.99,46.81,41.89,47.02,41.89z"/>
<path class="st8" d="M43.78,41.89h2.24c0.2,0,0.39,0.1,0.4,0.23l0.2,1.42c0.02,0.13-0.14,0.24-0.34,0.24h-2.28
	c-0.21,0-0.39-0.11-0.4-0.24l-0.16-1.42C43.42,41.99,43.58,41.89,43.78,41.89z"/>
<path class="st8" d="M40.54,41.89h2.24c0.2,0,0.38,0.1,0.4,0.23l0.16,1.42c0.01,0.13-0.14,0.24-0.35,0.24H40.7
	c-0.21,0-0.39-0.11-0.4-0.24l-0.12-1.42C40.19,41.99,40.34,41.89,40.54,41.89z"/>
<path class="st8" d="M37.31,41.89h2.24c0.2,0,0.38,0.1,0.39,0.23l0.11,1.42c0.01,0.13-0.15,0.24-0.36,0.24h-2.28
	c-0.21,0-0.38-0.11-0.39-0.24l-0.07-1.42C36.94,41.99,37.1,41.89,37.31,41.89z"/>
<path class="st8" d="M34.07,41.89h2.24c0.2,0,0.38,0.1,0.38,0.23l0.07,1.42c0.01,0.13-0.16,0.24-0.37,0.24h-2.28
	c-0.21,0-0.38-0.11-0.38-0.24l-0.02-1.42C33.71,41.99,33.86,41.89,34.07,41.89z"/>
<path class="st8" d="M30.83,41.89h2.24c0.2,0,0.37,0.1,0.37,0.23l0.02,1.42c0,0.13-0.17,0.24-0.37,0.24h-2.28
	c-0.21,0-0.38-0.11-0.37-0.24l0.02-1.42C30.46,41.99,30.63,41.89,30.83,41.89z"/>
<path class="st8" d="M27.59,41.89h2.24c0.2,0,0.37,0.1,0.37,0.23l-0.03,1.42c0,0.13-0.17,0.24-0.38,0.24h-2.28
	c-0.21,0-0.37-0.11-0.37-0.24l0.07-1.42C27.22,41.99,27.39,41.89,27.59,41.89z"/>
<path class="st8" d="M24.36,41.89h2.24c0.2,0,0.37,0.1,0.36,0.23l-0.07,1.42c-0.01,0.13-0.18,0.24-0.39,0.24h-2.28
	c-0.21,0-0.37-0.11-0.36-0.24l0.11-1.42C23.98,41.99,24.15,41.89,24.36,41.89z"/>
<path class="st8" d="M21.12,41.89h2.24c0.2,0,0.36,0.1,0.35,0.23l-0.12,1.42c-0.01,0.13-0.19,0.24-0.4,0.24h-2.28
	c-0.21,0-0.37-0.11-0.35-0.24l0.16-1.42C20.74,41.99,20.91,41.89,21.12,41.89z"/>
<path class="st8" d="M17.88,41.89h2.24c0.2,0,0.36,0.1,0.34,0.23l-0.16,1.42c-0.01,0.13-0.2,0.24-0.4,0.24h-2.28
	c-0.21,0-0.36-0.11-0.34-0.24l0.21-1.42C17.5,41.99,17.68,41.89,17.88,41.89z"/>
<path class="st8" d="M14.64,41.89h2.24c0.2,0,0.36,0.1,0.34,0.23L17,43.55c-0.02,0.13-0.2,0.24-0.41,0.24h-2.28
	c-0.21,0-0.36-0.11-0.34-0.24l0.25-1.42C14.26,41.99,14.44,41.89,14.64,41.89z"/>
<path class="st8" d="M9.01,41.89h4.62c0.2,0,0.35,0.1,0.33,0.23l-0.26,1.42c-0.02,0.13-0.21,0.24-0.42,0.24H8.58
	c-0.21,0-0.35-0.11-0.32-0.24l0.33-1.42C8.63,41.99,8.81,41.89,9.01,41.89z"/>
<path class="st8" d="M50.36,41.89h4.62c0.2,0,0.39,0.1,0.42,0.23l0.33,1.42c0.03,0.13-0.11,0.24-0.32,0.24h-4.71
	c-0.21,0-0.4-0.11-0.42-0.24l-0.26-1.42C50.02,41.99,50.16,41.89,50.36,41.89z"/>
<path class="st8" d="M18.13,46.4h3.1c0.21,0,0.38,0.11,0.36,0.25l-0.15,1.56c-0.01,0.14-0.2,0.26-0.42,0.26h-3.16
	c-0.22,0-0.38-0.12-0.36-0.26l0.21-1.56C17.73,46.51,17.92,46.4,18.13,46.4z"/>
<path class="st8" d="M39.24,46.4h3.1c0.21,0,0.4,0.11,0.41,0.25l0.16,1.56c0.01,0.14-0.15,0.26-0.37,0.26h-3.16
	c-0.22,0-0.4-0.12-0.41-0.26l-0.1-1.56C38.86,46.51,39.02,46.4,39.24,46.4z"/>
<path class="st8" d="M22.37,46.4h15.79c0.21,0,0.39,0.11,0.4,0.25l0.1,1.56c0.01,0.14-0.16,0.26-0.38,0.26h-16.1
	c-0.22,0-0.38-0.12-0.37-0.26l0.15-1.56C21.98,46.51,22.16,46.4,22.37,46.4z"/>
<path class="st8" d="M14.75,46.4h2.34c0.21,0,0.37,0.11,0.35,0.25l-0.22,1.56c-0.02,0.14-0.21,0.26-0.43,0.26h-2.38
	c-0.22,0-0.37-0.12-0.35-0.26l0.26-1.56C14.35,46.51,14.53,46.4,14.75,46.4z"/>
<path class="st8" d="M43.44,46.4h2.34c0.21,0,0.4,0.11,0.42,0.25l0.21,1.56c0.02,0.14-0.14,0.26-0.36,0.26h-2.38
	c-0.22,0-0.41-0.12-0.42-0.26l-0.16-1.56C43.07,46.51,43.23,46.4,43.44,46.4z"/>
<path class="st8" d="M46.93,47.41h2.36c0.22,0,0.41,0.12,0.43,0.26l0.09,0.54c0.02,0.14-0.13,0.26-0.35,0.26h-2.38
	c-0.22,0-0.41-0.12-0.43-0.26l-0.07-0.54C46.55,47.53,46.71,47.41,46.93,47.41z"/>
<path class="st8" d="M50.5,47.41h2.36c0.22,0,0.41,0.12,0.44,0.26l0.11,0.54c0.03,0.14-0.13,0.26-0.34,0.26h-2.38
	c-0.22,0-0.41-0.12-0.44-0.26l-0.09-0.54C50.13,47.53,50.28,47.41,50.5,47.41z"/>
<path class="st8" d="M50.29,46.22h2.33c0.21,0,0.41,0.11,0.44,0.25L53.16,47c0.03,0.14-0.12,0.25-0.34,0.25h-2.36
	c-0.22,0-0.41-0.11-0.43-0.25l-0.09-0.52C49.92,46.34,50.08,46.22,50.29,46.22z"/>
<path class="st8" d="M53.9,47.41h2.36c0.22,0,0.42,0.12,0.45,0.26l0.12,0.54c0.03,0.14-0.12,0.26-0.33,0.26h-2.38
	c-0.22,0-0.42-0.12-0.45-0.26l-0.11-0.54C53.53,47.53,53.68,47.41,53.9,47.41z"/>
<path class="st8" d="M11.37,46.4h2.34c0.21,0,0.37,0.11,0.34,0.25l-0.27,1.56c-0.02,0.14-0.22,0.26-0.44,0.26h-2.38
	c-0.22,0-0.37-0.12-0.34-0.26l0.31-1.56C10.96,46.51,11.15,46.4,11.37,46.4z"/>
<path class="st8" d="M7.98,46.4h2.34c0.21,0,0.36,0.11,0.34,0.25l-0.32,1.56c-0.03,0.14-0.23,0.26-0.45,0.26H7.51
	c-0.22,0-0.37-0.12-0.33-0.26l0.36-1.56C7.57,46.51,7.77,46.4,7.98,46.4z"/>
<path class="st8" d="M45.56,44.05h2.28c0.21,0,0.4,0.11,0.42,0.24l0.24,1.49c0.02,0.14-0.13,0.25-0.35,0.25h-2.33
	c-0.21,0-0.4-0.11-0.42-0.25l-0.19-1.49C45.19,44.16,45.35,44.05,45.56,44.05z"/>
<path class="st8" d="M42.25,44.05h2.28c0.21,0,0.39,0.11,0.41,0.24l0.19,1.49c0.02,0.14-0.14,0.25-0.35,0.25h-2.33
	c-0.21,0-0.4-0.11-0.41-0.25l-0.14-1.49C41.89,44.16,42.04,44.05,42.25,44.05z"/>
<path class="st8" d="M38.94,44.05h2.28c0.21,0,0.39,0.11,0.4,0.24l0.14,1.49c0.01,0.14-0.15,0.25-0.36,0.25h-2.33
	c-0.21,0-0.39-0.11-0.4-0.25l-0.1-1.49C38.57,44.16,38.73,44.05,38.94,44.05z"/>
<path class="st8" d="M35.63,44.05h2.28c0.21,0,0.38,0.11,0.39,0.24l0.09,1.49c0.01,0.14-0.16,0.25-0.37,0.25H35.7
	c-0.21,0-0.39-0.11-0.39-0.25l-0.05-1.49C35.26,44.16,35.42,44.05,35.63,44.05z"/>
<path class="st8" d="M32.33,44.05h2.28c0.21,0,0.38,0.11,0.39,0.24l0.04,1.49c0,0.14-0.17,0.25-0.38,0.25h-2.33
	c-0.21,0-0.39-0.11-0.39-0.25l0-1.49C31.95,44.16,32.12,44.05,32.33,44.05z"/>
<path class="st8" d="M29.02,44.05h2.28c0.21,0,0.38,0.11,0.38,0.24l0,1.49c0,0.14-0.17,0.25-0.39,0.25h-2.33
	c-0.21,0-0.38-0.11-0.38-0.25l0.05-1.49C28.64,44.16,28.81,44.05,29.02,44.05z"/>
<path class="st8" d="M25.71,44.05H28c0.21,0,0.37,0.11,0.37,0.24l-0.05,1.49c0,0.14-0.18,0.25-0.39,0.25h-2.33
	c-0.21,0-0.38-0.11-0.37-0.25l0.1-1.49C25.33,44.16,25.51,44.05,25.71,44.05z"/>
<path class="st8" d="M22.4,44.05h2.28c0.21,0,0.37,0.11,0.36,0.24l-0.1,1.49c-0.01,0.14-0.19,0.25-0.4,0.25h-2.33
	c-0.21,0-0.37-0.11-0.36-0.25L22,44.29C22.02,44.16,22.19,44.05,22.4,44.05z"/>
<path class="st8" d="M19.1,44.05h2.28c0.21,0,0.37,0.11,0.35,0.24l-0.15,1.49c-0.01,0.14-0.2,0.25-0.41,0.25h-2.33
	c-0.21,0-0.37-0.11-0.35-0.25l0.19-1.49C18.71,44.16,18.89,44.05,19.1,44.05z"/>
<path class="st8" d="M15.79,44.05h2.28c0.21,0,0.36,0.11,0.35,0.24l-0.2,1.49c-0.02,0.14-0.21,0.25-0.42,0.25h-2.33
	c-0.21,0-0.37-0.11-0.35-0.25l0.24-1.49C15.4,44.16,15.58,44.05,15.79,44.05z"/>
<path class="st8" d="M8.52,44.05h6.14c0.21,0,0.36,0.11,0.34,0.24l-0.25,1.49c-0.02,0.14-0.21,0.25-0.43,0.25H8.07
	c-0.21,0-0.36-0.11-0.33-0.25l0.35-1.49C8.12,44.16,8.31,44.05,8.52,44.05z"/>
<path class="st8" d="M49.07,44.05h6.41c0.21,0,0.4,0.11,0.43,0.24l0.35,1.49c0.03,0.14-0.12,0.25-0.33,0.25H49.4
	c-0.21,0-0.4-0.11-0.43-0.25l-0.24-1.49C48.72,44.16,48.86,44.05,49.07,44.05z"/>
</svg>
