<?xml version="1.0" encoding="utf-8"?>
<!-- Generator: Adobe Illustrator 15.0.0, SVG Export Plug-In . SVG Version: 6.00 Build 0)  -->
<!DOCTYPE svg PUBLIC "-//W3C//DTD SVG 1.1//EN" "http://www.w3.org/Graphics/SVG/1.1/DTD/svg11.dtd" [
	<!ENTITY ns_flows "http://ns.adobe.com/Flows/1.0/">
	<!ENTITY ns_extend "http://ns.adobe.com/Extensibility/1.0/">
	<!ENTITY ns_ai "http://ns.adobe.com/AdobeIllustrator/10.0/">
	<!ENTITY ns_graphs "http://ns.adobe.com/Graphs/1.0/">
]>
<svg version="1.1" id="Layer_1" xmlns:x="&ns_extend;" xmlns:i="&ns_ai;" xmlns:graph="&ns_graphs;"
	 xmlns="http://www.w3.org/2000/svg" xmlns:xlink="http://www.w3.org/1999/xlink" xmlns:a="http://ns.adobe.com/AdobeSVGViewerExtensions/3.0/"
	 x="0px" y="0px" width="64px" height="64px" viewBox="0 0 64 64" enable-background="new 0 0 64 64" xml:space="preserve">
<polygon fill="#C4C3A7" points="60.8,49 3.2,49 0,44.749 64,44.749 "/>
<polygon fill="#AFB19E" points="1.057,46.152 1.406,46.619 62.254,46.387 "/>
<polygon fill="#AFB19E" points="0.309,45.158 0.662,45.629 63.321,45.395 "/>
<polygon fill="#AFB19E" points="60.121,48.366 2.552,48.139 2.894,48.59 "/>
<polygon fill="#AFB19E" points="1.802,47.145 2.15,47.604 61.188,47.375 "/>
<polygon fill="#BEC3CF" points="38.934,49 25.066,49 24.533,44.749 39.467,44.749 "/>
<polygon fill="#F59E01" points="26.134,49 24,49 23.467,44.749 25.6,44.749 "/>
<polygon fill="#F59E01" points="40,49 37.866,49 38.4,44.749 40.533,44.749 "/>
<rect y="15" fill="#DDDDC3" width="64" height="29.749"/>
<path fill="#3D3E39" d="M13.708,19.238c0,0.078,0.007,0.156,0.017,0.232h-0.079c-0.006-0.038-0.015-0.074-0.017-0.11
	c-0.006-0.028-0.015-0.054-0.024-0.077c-0.051-0.083-0.094-0.132-0.14-0.165c-0.042-0.023-0.084-0.036-0.132-0.042
	c-0.029-0.004-0.058-0.006-0.094-0.006v1.172c0.051,0.002,0.096,0.004,0.146,0.009V20.3c-0.123-0.007-0.255-0.011-0.382-0.011
	s-0.256,0.004-0.383,0.011v-0.049c0.046-0.005,0.096-0.007,0.144-0.01V19.07h-0.006c-0.038,0-0.071,0.002-0.101,0.006
	c-0.048,0.006-0.09,0.019-0.129,0.042c-0.048,0.033-0.09,0.082-0.142,0.165c-0.009,0.023-0.019,0.049-0.025,0.077
	c-0.002,0.036-0.008,0.072-0.015,0.11h-0.081c0.011-0.076,0.017-0.154,0.017-0.232c0-0.077-0.006-0.154-0.017-0.229h0.006v-0.003
	c0.007,0,0.015,0,0.021,0.003v-0.003c0.408,0.015,0.929,0.018,1.352,0.003h0.013c0.021,0,0.038-0.003,0.059-0.003h0.002v0.003h0.006
	C13.715,19.084,13.708,19.161,13.708,19.238z"/>
<path fill="#3D3E39" d="M15.415,19.065v1.179l0.087,0.007V20.3c-0.104-0.007-0.217-0.011-0.323-0.011
	c-0.11,0-0.221,0.004-0.329,0.011v-0.049l0.09-0.009V19.68h-0.406v0.564l0.09,0.007V20.3c-0.104-0.007-0.217-0.011-0.323-0.011
	c-0.11,0-0.221,0.004-0.329,0.011v-0.049l0.088-0.009v-1.178l-0.088-0.007v-0.051c0.104,0.01,0.217,0.014,0.323,0.014
	c0.11,0,0.221-0.004,0.329-0.014v0.051l-0.09,0.008v0.557h0.406v-0.558l-0.09-0.007v-0.051c0.104,0.01,0.217,0.014,0.325,0.014
	s0.219-0.004,0.327-0.014v0.051L15.415,19.065z"/>
<path fill="#3D3E39" d="M16.346,19.072v0.555h0.106c0.063,0,0.164-0.011,0.179-0.063c0.003-0.027,0.009-0.052,0.013-0.079h0.059
	c-0.019,0.116-0.019,0.219,0,0.334h-0.059c-0.004-0.026-0.01-0.05-0.013-0.074c-0.012-0.056-0.11-0.07-0.179-0.07h-0.106v0.562
	c0.069,0,0.136,0,0.204,0.003c0.138-0.012,0.261-0.068,0.309-0.245c0.002-0.056,0.006-0.101,0.017-0.154h0.081
	c-0.01,0.077-0.017,0.155-0.017,0.232s0.007,0.155,0.017,0.228c-0.356-0.013-0.818-0.015-1.175,0v-0.049
	c0.029-0.004,0.059-0.004,0.09-0.005v-1.185c-0.031-0.002-0.061-0.002-0.09-0.004v-0.051c0.356,0.018,0.818,0.015,1.175,0
	c-0.01,0.075-0.017,0.152-0.017,0.229c0,0.078,0.007,0.156,0.017,0.232h-0.081c-0.011-0.053-0.015-0.099-0.017-0.152
	c-0.048-0.179-0.171-0.234-0.309-0.246C16.481,19.072,16.415,19.072,16.346,19.072z"/>
<path fill="#3D3E39" d="M19.314,19.056c-0.022,0.004-0.048,0.006-0.068,0.009h0.006c-0.054,0-0.079,0.037-0.09,0.088l-0.002,0.627
	c-0.002,0.377-0.16,0.532-0.587,0.532c-0.421,0-0.573-0.155-0.575-0.532l-0.002-0.714c-0.031-0.001-0.061-0.006-0.09-0.008v-0.051
	c0.103,0.01,0.213,0.014,0.325,0.014c0.11,0,0.219-0.004,0.329-0.014v0.051c-0.029,0.004-0.059,0.007-0.09,0.008l0.002,0.832
	c0,0.261,0.061,0.349,0.233,0.349c0.213,0.001,0.388-0.097,0.388-0.483l0.002-0.604c-0.006-0.043-0.024-0.083-0.063-0.094
	c-0.033-0.001-0.068-0.006-0.102-0.01v-0.05c0.133,0.016,0.252,0.016,0.383,0V19.056z"/>
<path fill="#3D3E39" d="M20.96,19.056c-0.021,0.004-0.045,0.006-0.068,0.009h0.002h-0.002c-0.002,0-0.006,0-0.011,0
	c-0.048,0.008-0.07,0.058-0.079,0.104v1.072l0.002,0.003l0.057,0.007V20.3c-0.152-0.015-0.335-0.013-0.491-0.001
	c-0.013,0-0.021,0.001-0.031,0.001h-0.003l-0.006-0.016l-0.596-1.092v0.952c0.008,0.043,0.025,0.088,0.066,0.097
	c0.031,0.001,0.061,0.005,0.092,0.01V20.3c-0.133-0.015-0.252-0.015-0.383,0v-0.049c0.028-0.005,0.056-0.009,0.085-0.01
	c0.044-0.009,0.066-0.058,0.075-0.104v-1.063l-0.002-0.005c-0.051-0.004-0.101-0.008-0.146-0.012v-0.051
	c0.189,0.018,0.423,0.015,0.615,0l0.019,0.049l0.583,1.067v-0.962c-0.006-0.043-0.024-0.085-0.064-0.096
	c-0.031-0.001-0.063-0.006-0.094-0.01v-0.05c0.131,0.016,0.25,0.016,0.381,0V19.056z"/>
<path fill="#3D3E39" d="M21.765,19.065v1.179l0.09,0.007V20.3c-0.104-0.007-0.217-0.011-0.325-0.011S21.311,20.293,21.2,20.3v-0.049
	l0.09-0.009v-1.178l-0.09-0.007v-0.051c0.106,0.01,0.219,0.014,0.325,0.014c0.11,0,0.221-0.004,0.329-0.014v0.051L21.765,19.065z"/>
<path fill="#3D3E39" d="M23.537,19.238c0,0.078,0.007,0.156,0.02,0.232h-0.082c-0.006-0.038-0.012-0.074-0.015-0.11
	c-0.008-0.028-0.017-0.054-0.024-0.077c-0.052-0.083-0.094-0.132-0.142-0.165c-0.04-0.023-0.084-0.036-0.129-0.042
	c-0.029-0.004-0.059-0.006-0.094-0.006v1.172c0.048,0.002,0.096,0.004,0.146,0.009V20.3c-0.125-0.007-0.257-0.011-0.382-0.011
	c-0.127,0-0.258,0.004-0.385,0.011v-0.049c0.048-0.005,0.096-0.007,0.146-0.01V19.07H22.59c-0.04,0-0.073,0.002-0.103,0.006
	c-0.046,0.006-0.09,0.019-0.129,0.042c-0.048,0.033-0.09,0.082-0.142,0.165c-0.009,0.023-0.017,0.049-0.025,0.077
	c-0.002,0.036-0.008,0.072-0.015,0.11h-0.081c0.013-0.076,0.019-0.154,0.019-0.232c0-0.077-0.006-0.154-0.019-0.229h0.007v-0.003
	c0.008,0,0.014,0,0.021,0.003v-0.003c0.41,0.015,0.929,0.018,1.352,0.003h0.015c0.02,0,0.038-0.003,0.057-0.003h0.004v0.003h0.007
	C23.544,19.084,23.537,19.161,23.537,19.238z"/>
<path fill="#3D3E39" d="M42.362,20.251V20.3c-0.225-0.016-0.485-0.015-0.704,0v-0.049c0.035-0.005,0.073-0.007,0.112-0.009
	l-0.14-0.435h-0.41l-0.112,0.346c-0.015,0.042-0.006,0.083,0.057,0.088H41.16c0.033,0.001,0.069,0.005,0.103,0.01V20.3
	c-0.132-0.016-0.261-0.016-0.392,0v-0.049c0.022-0.005,0.048-0.007,0.068-0.009c0.05-0.011,0.073-0.044,0.077-0.062l0.371-1.121
	c-0.015,0-0.029-0.002-0.044-0.004v-0.05c0.162,0.016,0.362,0.015,0.525,0l0.021,0.049l0.39,1.189L42.362,20.251z M40.904,20.246
	c0.006,0,0.017,0,0.022-0.002L40.904,20.246z M41.173,20.241h-0.008H41.173z M41.614,19.75l-0.188-0.584l-0.189,0.584H41.614z"/>
<path fill="#3D3E39" d="M44.443,20.251V20.3c-0.105-0.007-0.216-0.011-0.324-0.011c-0.11,0-0.219,0.006-0.329,0.011v-0.049
	l0.085-0.007v-0.98l-0.283,0.982c0.015,0,0.029,0.001,0.044,0.005V20.3c-0.161-0.015-0.358-0.013-0.523,0l-0.342-1.021v0.865
	c0.007,0.043,0.025,0.088,0.064,0.097c0.031,0.001,0.061,0.005,0.092,0.01V20.3c-0.131-0.015-0.25-0.015-0.381,0v-0.049
	c0.029-0.005,0.057-0.009,0.083-0.01c0.046-0.009,0.069-0.058,0.077-0.104v-1.053L42.7,19.069c-0.05-0.004-0.096-0.008-0.142-0.012
	v-0.051c0.188,0.018,0.425,0.015,0.616,0l0.379,1.138l0.321-1.138c0.173,0.018,0.39,0.015,0.564,0v0.051
	c-0.029,0.004-0.059,0.007-0.09,0.008v1.177C44.381,20.244,44.412,20.247,44.443,20.251z"/>
<path fill="#3D3E39" d="M45.283,19.072v0.555h0.108c0.063,0,0.162-0.011,0.18-0.063c0.002-0.027,0.006-0.052,0.01-0.079h0.059
	c-0.017,0.116-0.017,0.219,0,0.334h-0.059c-0.004-0.026-0.008-0.05-0.01-0.074c-0.015-0.056-0.113-0.07-0.18-0.07h-0.108v0.562
	c0.071,0,0.138,0,0.204,0.003c0.14-0.012,0.263-0.068,0.309-0.245c0.004-0.056,0.008-0.101,0.019-0.154h0.081
	c-0.012,0.077-0.019,0.155-0.019,0.232s0.007,0.155,0.019,0.228c-0.355-0.013-0.818-0.015-1.175,0v-0.049
	c0.029-0.004,0.059-0.004,0.09-0.005v-1.185c-0.031-0.002-0.061-0.002-0.09-0.004v-0.051c0.356,0.018,0.819,0.015,1.175,0
	c-0.012,0.075-0.019,0.152-0.019,0.229c0,0.078,0.007,0.156,0.019,0.232h-0.081c-0.011-0.053-0.015-0.099-0.019-0.152
	c-0.046-0.179-0.169-0.234-0.309-0.246C45.421,19.072,45.354,19.072,45.283,19.072z"/>
<path fill="#3D3E39" d="M47.691,20.246v0.013c-0.046,0.03-0.169,0.055-0.306,0.055c-0.233,0-0.309-0.113-0.313-0.256
	c-0.005-0.134,0.056-0.38-0.244-0.38h-0.063v0.566l0.09,0.007V20.3c-0.104-0.007-0.217-0.011-0.325-0.011s-0.219,0.004-0.329,0.011
	v-0.049l0.09-0.009v-1.178l-0.09-0.007v-0.051c0.106,0.01,0.219,0.014,0.325,0.014c0.11,0,0.217-0.004,0.327-0.014h0.002
	c0.327,0,0.649,0.051,0.649,0.342c0,0.213-0.202,0.273-0.41,0.291c0.408,0.028,0.467,0.168,0.467,0.526
	c0,0.07,0.029,0.09,0.073,0.09C47.654,20.256,47.673,20.251,47.691,20.246z M46.856,19.058l-0.09,0.008v0.565h0.079
	c0.182,0,0.221-0.037,0.221-0.251C47.066,19.123,47.027,19.058,46.856,19.058z"/>
<path fill="#3D3E39" d="M48.479,19.065v1.179l0.089,0.007V20.3c-0.104-0.007-0.216-0.011-0.322-0.011
	c-0.11,0-0.221,0.004-0.329,0.011v-0.049l0.087-0.009v-1.178l-0.087-0.007v-0.051c0.104,0.01,0.217,0.014,0.322,0.014
	c0.11,0,0.221-0.004,0.329-0.014v0.051L48.479,19.065z"/>
<path fill="#3D3E39" d="M49.917,19.23v-0.021c-0.038-0.129-0.13-0.169-0.255-0.169c-0.229,0-0.314,0.301-0.316,0.608
	c0.002,0.307,0.088,0.608,0.316,0.608c0.125,0,0.217-0.04,0.255-0.17v-0.02c0-0.075,0.006-0.152,0.021-0.228h0.081
	C50.006,19.917,50,19.995,50,20.072v0.029l0.002,0.064c0.004,0.046,0.009,0.091,0.017,0.134h-0.081l-0.006-0.041
	c-0.086,0.038-0.215,0.055-0.298,0.055c-0.54,0-0.796-0.212-0.809-0.648c0-0.006,0-0.012,0-0.017v-0.017
	c0.013-0.437,0.269-0.648,0.809-0.648c0.083,0,0.212,0.017,0.298,0.055l0.006-0.041h0.081c-0.008,0.043-0.013,0.088-0.017,0.134
	L50,19.195v0.028c0,0.078,0.006,0.156,0.019,0.232h-0.081C49.923,19.382,49.917,19.307,49.917,19.23z"/>
<path fill="#3D3E39" d="M51.733,20.251V20.3c-0.225-0.016-0.483-0.015-0.704,0v-0.049c0.037-0.005,0.073-0.007,0.112-0.009
	l-0.14-0.435h-0.41l-0.112,0.346c-0.013,0.042-0.007,0.083,0.056,0.088h-0.004c0.033,0.001,0.068,0.005,0.103,0.01V20.3
	c-0.132-0.016-0.259-0.016-0.393,0v-0.049c0.023-0.005,0.049-0.007,0.069-0.009c0.05-0.011,0.073-0.044,0.077-0.062l0.371-1.121
	c-0.015,0-0.029-0.002-0.044-0.004v-0.05c0.162,0.016,0.362,0.015,0.524,0l0.021,0.049l0.39,1.189L51.733,20.251z M50.275,20.246
	c0.006,0,0.017,0,0.022-0.002L50.275,20.246z M50.544,20.241h-0.009H50.544z M50.985,19.75L50.8,19.166l-0.191,0.584H50.985z"/>
<polygon fill="#545649" points="48.267,16.395 48.267,18.254 58.134,18.254 58.134,41.495 5.866,41.495 5.866,18.254 15.733,18.254 
	15.733,16.395 1.6,16.395 1.6,43.354 62.4,43.354 62.4,16.395 "/>
<path fill="#3D3E39" d="M47.733,16.395H16.267v1.859h31.467V16.395L47.733,16.395z"/>
<rect x="20.267" y="40.102" fill="#545649" width="23.467" height="3.253"/>
<rect x="24.533" y="15" fill="#E6EBEF" width="14.934" height="29.749"/>
<rect x="38.4" y="15" fill="#F9C802" width="2.133" height="29.749"/>
<rect x="23.467" y="15" fill="#F9C802" width="2.133" height="29.749"/>
<path fill="#3D3E39" d="M19.054,30.974l-0.458-0.403c0.025-0.135,0.031-0.277,0.042-0.415l0.563-0.28l-0.563-0.28
	c-0.011-0.14-0.017-0.281-0.042-0.415l0.458-0.404l-0.612-0.126c-0.046-0.13-0.096-0.259-0.156-0.383l0.342-0.517l-0.606,0.036
	c-0.079-0.116-0.177-0.217-0.269-0.324l0.198-0.592l-0.594,0.197c-0.106-0.092-0.211-0.189-0.327-0.268l0.037-0.604l-0.519,0.341
	c-0.125-0.062-0.254-0.111-0.386-0.156l-0.125-0.61l-0.406,0.456c-0.135-0.023-0.276-0.03-0.416-0.04l-0.281-0.561l-0.281,0.561
	c-0.14,0.01-0.281,0.017-0.417,0.04l-0.406-0.456l-0.125,0.61c-0.133,0.045-0.261,0.095-0.386,0.156L12.8,26.195l0.035,0.604
	c-0.116,0.078-0.219,0.176-0.324,0.268l-0.594-0.197l0.197,0.592c-0.092,0.107-0.189,0.208-0.269,0.324l-0.608-0.036l0.344,0.517
	c-0.061,0.124-0.11,0.253-0.158,0.383l-0.61,0.126l0.458,0.404c-0.026,0.134-0.031,0.275-0.043,0.415l-0.561,0.28l0.561,0.28
	c0.012,0.138,0.017,0.28,0.043,0.415l-0.458,0.403l0.61,0.125c0.048,0.133,0.098,0.26,0.158,0.385L11.237,32l0.608-0.036
	c0.079,0.116,0.177,0.219,0.269,0.324l-0.197,0.592l0.594-0.197c0.105,0.091,0.208,0.188,0.324,0.267L12.8,33.556l0.519-0.342
	c0.125,0.061,0.253,0.111,0.386,0.157l0.125,0.607l0.406-0.453c0.136,0.024,0.277,0.03,0.417,0.041l0.281,0.559l0.281-0.559
	c0.14-0.011,0.281-0.017,0.416-0.043l0.406,0.455l0.125-0.607c0.132-0.046,0.261-0.097,0.386-0.157l0.519,0.342l-0.037-0.606
	c0.116-0.078,0.221-0.176,0.327-0.267l0.594,0.197l-0.198-0.592c0.092-0.105,0.189-0.208,0.269-0.324L18.627,32l-0.342-0.517
	c0.061-0.125,0.11-0.252,0.156-0.385L19.054,30.974z M14.934,32.531c-3.555,0-3.559-5.313,0-5.313
	C18.485,27.219,18.491,32.531,14.934,32.531z"/>
<path fill="#349964" d="M52.654,32.833l-0.458-0.403c0.024-0.135,0.031-0.277,0.041-0.415l0.563-0.28l-0.563-0.28
	c-0.01-0.139-0.017-0.281-0.041-0.415l0.458-0.404l-0.612-0.126c-0.046-0.13-0.096-0.259-0.156-0.383l0.342-0.517l-0.606,0.036
	c-0.079-0.116-0.178-0.217-0.269-0.324l0.197-0.592l-0.594,0.197c-0.108-0.092-0.21-0.189-0.327-0.268l0.038-0.604l-0.52,0.341
	c-0.125-0.062-0.254-0.111-0.385-0.156l-0.125-0.61l-0.406,0.456c-0.136-0.023-0.277-0.03-0.417-0.04l-0.281-0.561l-0.281,0.561
	c-0.14,0.01-0.281,0.017-0.417,0.04l-0.406-0.456l-0.125,0.61c-0.133,0.045-0.26,0.095-0.385,0.156L46.4,28.055l0.035,0.604
	c-0.117,0.078-0.219,0.176-0.325,0.268l-0.594-0.197l0.198,0.592c-0.092,0.107-0.189,0.208-0.269,0.324l-0.608-0.036l0.344,0.517
	c-0.061,0.124-0.113,0.253-0.159,0.383l-0.61,0.126l0.459,0.404c-0.027,0.134-0.033,0.276-0.044,0.415l-0.561,0.28l0.561,0.28
	c0.011,0.138,0.017,0.28,0.044,0.415l-0.459,0.403l0.61,0.125c0.046,0.133,0.099,0.26,0.159,0.385l-0.344,0.517l0.608-0.036
	c0.079,0.116,0.177,0.219,0.269,0.324l-0.198,0.592l0.594-0.197c0.106,0.091,0.208,0.188,0.325,0.267L46.4,35.415l0.519-0.342
	c0.125,0.061,0.252,0.111,0.385,0.157l0.125,0.607l0.406-0.453c0.136,0.024,0.277,0.03,0.417,0.041l0.281,0.559l0.281-0.559
	c0.14-0.011,0.281-0.017,0.417-0.043l0.406,0.455l0.125-0.607c0.131-0.046,0.26-0.097,0.385-0.157l0.52,0.342l-0.038-0.606
	c0.117-0.078,0.219-0.176,0.327-0.267l0.594,0.197l-0.197-0.592c0.091-0.105,0.189-0.208,0.269-0.324l0.606,0.036l-0.342-0.517
	c0.061-0.125,0.11-0.252,0.156-0.385L52.654,32.833z"/>
<path fill="#3D3E39" d="M15.579,29.875c0.398-0.1,0.756-0.28,0.756-0.695c0-0.442-0.304-0.801-1.271-0.801h-1.535v0.085
	c0.425,0,0.443,0.102,0.443,0.473c0,0.679,0,1.197,0,1.876c0,0.372-0.019,0.474-0.443,0.474v0.086h1.535
	c0.967,0,1.271-0.36,1.271-0.802C16.335,30.155,15.978,29.975,15.579,29.875z M14.719,28.558c0.483-0.005,0.825,0.113,0.825,0.62
	c0,0.494-0.34,0.634-0.825,0.634V28.558z M14.719,31.194v-1.255c0.485,0,0.825,0.138,0.825,0.635
	C15.544,31.078,15.202,31.196,14.719,31.194z"/>
<path fill="#E7EACD" d="M48.533,34.921c-1.765,0-3.2-1.429-3.2-3.187s1.436-3.188,3.2-3.188s3.2,1.43,3.2,3.188
	S50.298,34.921,48.533,34.921z M48.533,29.078c-1.471,0-2.667,1.191-2.667,2.656c0,1.464,1.196,2.656,2.667,2.656
	c1.469,0,2.667-1.192,2.667-2.656C51.2,30.27,50.002,29.078,48.533,29.078z"/>
<path fill="#545649" d="M62.4,21.729c0-2.688-1.673-4.869-3.733-4.869c-2.063,0-3.733,2.181-3.733,4.869
	c0,2.689,1.671,5.357,3.733,5.357C60.728,27.086,62.4,24.418,62.4,21.729z"/>
<path fill="#C4C3A7" d="M54.89,16.414c0,0-1.807,1.722,0.354,3.581C55.244,19.995,55.873,17.508,54.89,16.414z"/>
<path fill="#C4C3A7" d="M53.356,18.469c0,0-0.273,2.025,2.271,2.79C55.627,21.259,55.519,19.23,53.356,18.469z"/>
<path fill="#C4C3A7" d="M56.092,17.689c0,0-1.805,1.065-0.465,3.569C55.627,21.259,57.022,18.935,56.092,17.689z"/>
<path fill="#C4C3A7" d="M56.412,22.835c0,0-0.21-1.315-2.81-1.816C53.603,21.019,53.45,22.74,56.412,22.835z"/>
<path fill="#C4C3A7" d="M56.412,22.835c0,0-1.925-0.218-1.925,2.072C54.487,24.907,56.412,24.41,56.412,22.835z"/>
<path fill="#545649" d="M6.473,17.905c-4.265,0-4.673,8.173-0.072,8.173C10.825,26.078,10.971,17.905,6.473,17.905z"/>
<ellipse fill="#545649" cx="5.333" cy="39.172" rx="2.667" ry="2.789"/>
<path fill="#DDDDC3" d="M59.379,23.808v-4.159h-1.1c-0.117,0.29-0.323,0.412-0.54,0.412v0.169c0.017,0,0.367,0.003,0.367,0.247
	v3.404c0,0.239-0.329,0.246-0.367,0.246v0.17h1.853v-0.17C59.454,24.127,59.379,24.077,59.379,23.808z"/>
<path fill="#E7EACD" d="M48.533,32.039l-1.535,0.764c0.133,0.977,1.241,0.784,1.535,1.322c0.294-0.538,1.402-0.346,1.535-1.322
	L48.533,32.039z"/>
<path fill="#E7EACD" d="M47,32.207l1.533-0.762l1.531,0.762c-0.075-1.079,0.069-1.886,0.069-1.886l-0.594-0.446
	c0,0-0.309,0.518-1.007,0c-0.7,0.518-1.006,0-1.006,0l-0.594,0.446C46.934,30.321,47.077,31.128,47,32.207z"/>
<path fill="#DDDDC3" d="M7.114,23.808v-4.159H6.013c-0.117,0.29-0.323,0.412-0.54,0.412v0.169c0.017,0,0.367,0.003,0.367,0.247
	v3.404c0,0.239-0.329,0.246-0.367,0.246v0.17h1.854v-0.17C7.188,24.127,7.114,24.077,7.114,23.808z"/>
<path opacity="0.3" fill="#3D3E39" d="M46.219,31.674c0,2.326-0.798,3.779-2.044,3.779c-1.243,0-2.041-1.453-2.041-3.779
	c0-2.249,0.798-3.658,2.041-3.658C45.421,28.016,46.219,29.425,46.219,31.674z M44.725,31.674c0-2.763-0.114-3.341-0.55-3.341
	c-0.434,0-0.548,0.578-0.548,3.341c0,2.83,0.114,3.463,0.548,3.463C44.61,35.137,44.725,34.504,44.725,31.674z"/>
<path opacity="0.3" fill="#3D3E39" d="M50.896,28.42c-0.063,0.022-0.133,0.033-0.197,0.044h0.006h-0.006c-0.007,0-0.02,0-0.031,0
	c-0.134,0.043-0.198,0.316-0.224,0.59v5.995l0.007,0.021l0.158,0.034v0.283c-0.434-0.088-0.956-0.077-1.404-0.011
	c-0.031,0-0.057,0.011-0.083,0.011h-0.007l-0.019-0.098l-1.698-6.105v5.319c0.02,0.25,0.071,0.501,0.186,0.545
	c0.09,0.01,0.171,0.033,0.261,0.056v0.283c-0.375-0.088-0.715-0.088-1.092,0v-0.283c0.083-0.022,0.16-0.046,0.244-0.056
	c0.127-0.044,0.191-0.317,0.217-0.579v-5.951l-0.007-0.033c-0.146-0.011-0.287-0.032-0.414-0.054v-0.283
	c0.535,0.087,1.206,0.073,1.748,0l0.058,0.271l1.661,5.963v-5.374c-0.021-0.24-0.071-0.479-0.186-0.534
	c-0.09-0.011-0.18-0.032-0.27-0.055v-0.285c0.378,0.087,0.717,0.087,1.092,0V28.42z"/>
<path opacity="0.3" fill="#3D3E39" d="M53.189,28.507v3.102h0.307c0.179,0,0.467-0.054,0.51-0.339
	c0.007-0.152,0.021-0.294,0.034-0.447h0.166c-0.052,0.646-0.052,1.223,0,1.868H54.04c-0.013-0.143-0.027-0.273-0.034-0.416
	c-0.037-0.306-0.318-0.393-0.51-0.393h-0.307v3.145c0.198,0,0.39,0,0.581,0.011c0.396-0.065,0.748-0.381,0.882-1.374
	c0.006-0.308,0.019-0.559,0.052-0.853h0.229c-0.033,0.425-0.053,0.863-0.053,1.299c0,0.427,0.02,0.862,0.053,1.278
	c-1.015-0.077-2.338-0.088-3.353,0v-0.283c0.084-0.013,0.167-0.013,0.254-0.022v-6.629c-0.087-0.011-0.17-0.011-0.254-0.021v-0.283
	c1.015,0.087,2.338,0.073,3.353,0C54.9,28.563,54.881,29,54.881,29.425c0,0.438,0.02,0.873,0.053,1.3h-0.229
	c-0.033-0.296-0.046-0.547-0.052-0.852c-0.134-0.995-0.485-1.311-0.882-1.376C53.579,28.507,53.388,28.507,53.189,28.507z"/>
<path fill="#C4C3A7" d="M61.741,21.295c0.061-0.64-0.594-0.463-0.594-0.463c0.83-0.689,0.719-1.34,0.709-1.398
	c-1.035,0.071-1.084-0.227-0.867-0.834h-1.904l-0.414-0.346L58.256,18.6h-1.903c0.237,0.662,0.1,0.887-0.873,0.823
	c0,0-0.163,0.688,0.704,1.409c0,0-0.654-0.177-0.594,0.463c0,0,1.46-0.677-0.011,2.965l1.009,0.557l0.191-0.16l0.008,0.006
	c-0.416,0.882,0.865,1.621,1.884,1.959c1.021-0.338,2.302-1.077,1.886-1.959l0.008-0.006l0.191,0.16l1.009-0.557
	c-0.009-0.01-0.013-0.019-0.023-0.03C60.292,20.624,61.741,21.295,61.741,21.295z M60.787,24.532l-0.223-0.187l-0.32,0.268
	c0.475,0.819-0.623,1.427-1.573,1.766c-0.948-0.339-2.048-0.946-1.573-1.766l-0.318-0.268l-0.223,0.187l-0.608-0.334
	c0.36-0.476,1.737-2.548,0.068-4.543c0.515-0.065,0.783-0.358,0.675-0.832h1.667l0.313-0.26l0.313,0.26h1.669
	c-0.108,0.474,0.158,0.767,0.675,0.832c-1.671,1.995-0.294,4.067,0.068,4.543L60.787,24.532z"/>
<path fill="#C4C3A7" d="M54.934,27.129c1.144-0.316,3.774-0.36,3.774,2.491C56.121,29.62,55.612,27.129,54.934,27.129z"/>
<path fill="#C4C3A7" d="M58.794,26.188c0,0-1.191,1.798,0.491,3.806C59.285,29.994,60.85,27.883,58.794,26.188z"/>
<path fill="#C4C3A7" d="M61.037,25.691c0,0-1.956,0.977-1.531,4.648C59.506,30.34,62.21,28.371,61.037,25.691z"/>
<path fill="#C4C3A7" d="M56,30.805c0,0,3.884,1.194,2.827,3.719c0,0,0-0.63-0.573-0.897C57.379,33.221,56,32.944,56,30.805z"/>
<path fill="#C4C3A7" d="M59.156,34.523c0,0,1.838-2.508,3.244-0.613c0,0-0.509,0.774-1.623,0.413
	C59.665,33.964,59.156,34.523,59.156,34.523z"/>
<path fill="#C4C3A7" d="M2.854,28.268c0,0-1.728,2.472,0.977,4.861C3.831,33.129,5.219,30.235,2.854,28.268z"/>
<path fill="#C4C3A7" d="M4.719,26.621c0,0-2.25,0.884-0.614,4.921C4.104,31.542,5.787,28.569,4.719,26.621z"/>
<path fill="#C4C3A7" d="M7.29,29.514c0,0-3.459-0.783-3.459,3.615C3.831,33.129,6.265,32.386,7.29,29.514z"/>
<path fill="#C4C3A7" d="M7.106,17.644c-0.36-0.125-0.694-0.482-0.226-0.501c0.156-0.358-0.969-0.54-0.653,0.483
	c-4.711,0.618-4.43,7.858-0.25,10.491c0,0,0.066-0.327-0.077-0.594c1.535,0.841,2.454-0.702,1.024-1.297
	C10.588,25.2,11.706,19.247,7.106,17.644z M6.412,25.81c-2.61,0-3.021-2.585-3.021-2.585c1.356,0.197,1.235-1.237,1.235-1.237
	c-1.481-0.656-0.908-3.094,1.601-3.804c-0.159,0.322,0.185,0.501,0.185,0.501c0.349-0.878,2.669-0.205,3.038,1.848
	c-0.36-0.286-0.834-0.269-0.834-0.269c-0.644,1.106,0.09,1.733,0.09,1.733C9.856,21.997,9.021,25.81,6.412,25.81z"/>
<path fill="#C4C3A7" d="M9.546,20.388c0,0-0.873-1.404-0.265-3.046C9.281,17.342,11.006,18.146,9.546,20.388z"/>
<path fill="#C4C3A7" d="M10.079,16.395c0,0-0.7,1.987-0.934,3.993C9.146,20.388,12.022,18.511,10.079,16.395z"/>
<path fill="#C4C3A7" d="M11.037,18.108c0,0-1.477,1.13-1.892,2.279C9.146,20.388,11.581,20.46,11.037,18.108z"/>
<path fill="#C4C3A7" d="M12.8,21.772c0,0,0-1.768-3.654-1.186C9.146,20.587,10.494,21.554,12.8,21.772z"/>
<path fill="#C4C3A7" d="M10.571,22.902c0,0-1.426-0.729-1.426-2.315C9.146,20.587,12.075,21.007,10.571,22.902z"/>
<path fill="#C4C3A7" d="M2.794,17.557c0,0-0.61,1.663,0.842,2.35C3.636,19.906,4.471,18.635,2.794,17.557z"/>
<path fill="#C4C3A7" d="M4.729,16.859c0,0-1.419,1.371-0.388,2.462C4.342,19.321,5.939,17.916,4.729,16.859z"/>
<path fill="#545649" d="M8.533,39.703c0,1.572-1.193,2.846-2.667,2.846c-1.473,0-2.666-1.273-2.666-2.846
	c0.443-1.027,1.298-2.608,2.666-2.847C7.34,36.856,8.533,38.132,8.533,39.703z"/>
<path fill="#C4C3A7" d="M5.787,36.383c-1.833,0-2.225,1.139-1.512,1.139c0.36,0.312-0.713,0.656-0.713,0
	c-1.777,1.689-0.869,5.502,2.225,5.502C10.182,43.023,10.123,36.383,5.787,36.383z M5.866,42.054c-2.846,0-2.846-4.742,0-4.742
	C8.71,37.312,8.71,42.054,5.866,42.054z"/>
<path fill="#C4C3A7" d="M60.346,18.719c0.05-0.543-0.033-1.255-0.55-2.017c0,0-0.577,1.04-0.346,2.017H60.346z"/>
<path fill="#C4C3A7" d="M60.833,18.719c0,0-0.151,0.412,0.086,0.645c0.404-0.306,0.804-0.884,0.804-1.99
	c0,0-0.881,0.256-1.364,1.346H60.833z"/>
<path fill="#C4C3A7" d="M5.875,31.242l-0.921,0.894c0,0,0.121,1.586-0.923,1.826c0-0.419-1.071-0.385-1.071,0.511
	C2.96,35.676,5.875,35.917,5.875,31.242z"/>
<ellipse fill="#545649" cx="58.667" cy="39.769" rx="2.667" ry="3.253"/>
<path fill="#C4C3A7" d="M59.981,36.607c0.033-0.15-0.066-0.39-0.066-0.39c-0.351-0.092-0.748,0-0.748,0c0-0.513-0.5-0.632-0.5-0.632
	s-0.5,0.119-0.5,0.632c0,0-0.4-0.092-0.75,0c0,0-0.101,0.239-0.067,0.39c-2.706,0.6-2.691,6.416,1.317,6.416
	C62.677,43.023,62.686,37.207,59.981,36.607z M58.667,42.012c-2.846,0-2.846-4.648,0-4.648
	C61.511,37.363,61.511,42.012,58.667,42.012z"/>
<path fill="#C4C3A7" d="M19.494,41.586c-0.746,0-0.798,1.119-1.89,1.119c0.293-0.311-0.538-0.59-0.538,0s0.711,0.869,1.215,0.42
	v0.221c0,0,0.415,0.072,0.642-0.191c0,0,0.068,0.202,0.294,0c0,0,0.173,0.2,0.814,0.2c0.644,0,1.302-0.448,1.302-1.161
	c0-0.715-1.058-1.181-0.608-2.003c0,0,0.436,0.123,0.436-0.249c0-0.373-1.302-0.543-1.302,0.326c0,0.232,0.123,0.496,0.123,0.496
	s-0.678-0.218-0.678,0.264c0,0.279,0.174,0.233,0.174,0.233S19.235,41.385,19.494,41.586z"/>
<path fill="#C4C3A7" d="M44.504,41.586c0.746,0,0.798,1.119,1.892,1.119c-0.296-0.311,0.538-0.59,0.538,0s-0.713,0.869-1.215,0.42
	v0.221c0,0-0.417,0.072-0.642-0.191c0,0-0.068,0.202-0.296,0c0,0-0.173,0.2-0.814,0.2s-1.3-0.448-1.3-1.161
	c0-0.715,1.058-1.181,0.605-2.003c0,0-0.433,0.123-0.433-0.249c0-0.373,1.3-0.543,1.3,0.326c0,0.232-0.121,0.496-0.121,0.496
	s0.678-0.218,0.678,0.264c0,0.279-0.174,0.233-0.174,0.233S44.765,41.385,44.504,41.586z"/>
<path fill="#7AB51D" d="M32.583,36.285v1.204c0,0.23-0.125,0.354-0.355,0.354h-0.445c-0.23,0-0.355-0.124-0.355-0.354v-1.224
	c-1.967-0.22-3.566-1.38-3.741-3.521c-0.019-0.274,0.133-0.417,0.391-0.417h1.253c0.239,0,0.374,0.134,0.409,0.391
	c0.13,0.856,0.743,1.38,1.688,1.545v-3.622c-1.697-0.62-3.511-1.433-3.511-3.759c0-2.072,1.646-3.228,3.511-3.409v-1.212
	c0-0.23,0.125-0.354,0.355-0.354h0.445c0.23,0,0.355,0.124,0.355,0.354v1.224c1.773,0.212,3.31,1.329,3.493,3.39
	c0.018,0.274-0.134,0.417-0.391,0.417h-1.219c-0.239,0-0.373-0.135-0.408-0.383c-0.128-0.787-0.681-1.263-1.477-1.421v3.562
	c1.759,0.643,3.734,1.408,3.734,3.766C36.316,34.933,34.592,36.13,32.583,36.285z M31.427,28.591V25.47
	c-0.885,0.14-1.467,0.645-1.467,1.412C29.96,27.714,30.571,28.199,31.427,28.591z M34.271,32.814c0-0.854-0.719-1.341-1.688-1.743
	v3.223C33.62,34.172,34.271,33.624,34.271,32.814z"/>
<path fill="#DDDDC3" d="M6.438,41.105v-3.329H5.557c-0.094,0.233-0.259,0.331-0.432,0.331v0.135c0.013,0,0.294,0.002,0.294,0.197
	v2.725c0,0.189-0.263,0.197-0.294,0.197v0.134h1.483v-0.134C6.498,41.361,6.438,41.321,6.438,41.105z"/>
<path fill="#DDDDC3" d="M59.237,41.105v-3.329h-0.881c-0.094,0.233-0.259,0.331-0.432,0.331v0.135c0.013,0,0.294,0.002,0.294,0.197
	v2.725c0,0.189-0.263,0.197-0.294,0.197v0.134h1.481v-0.134C59.298,41.361,59.237,41.321,59.237,41.105z"/>
</svg>
