<?xml version="1.0" encoding="utf-8"?>
<!-- Generator: Adobe Illustrator 24.1.2, SVG Export Plug-In . SVG Version: 6.00 Build 0)  -->
<svg version="1.1" id="Layer_1" xmlns="http://www.w3.org/2000/svg" xmlns:xlink="http://www.w3.org/1999/xlink" x="0px" y="0px"
	 width="64px" height="64px" viewBox="0 0 64 64" style="enable-background:new 0 0 64 64;" xml:space="preserve">
<style type="text/css">
	.st0{fill:#B00505;}
	.st1{fill:url(#SVGID_1_);}
	.st2{fill:url(#SVGID_2_);}
	.st3{fill:url(#SVGID_3_);}
	.st4{fill:url(#SVGID_4_);}
	.st5{fill:url(#SVGID_5_);}
	.st6{fill:#F7DD45;}
	.st7{fill:url(#SVGID_6_);}
	.st8{fill:url(#SVGID_7_);}
	.st9{fill:url(#SVGID_8_);}
	.st10{fill:url(#SVGID_9_);}
	.st11{fill:url(#SVGID_10_);}
	.st12{fill:url(#SVGID_11_);}
	.st13{fill:url(#SVGID_12_);}
	.st14{fill:url(#SVGID_13_);}
	.st15{fill:url(#SVGID_14_);}
	.st16{fill:url(#SVGID_15_);}
	.st17{fill:url(#SVGID_16_);}
	.st18{fill:url(#SVGID_17_);}
	.st19{fill:url(#SVGID_18_);}
	.st20{fill:url(#SVGID_19_);}
	.st21{opacity:0.3;fill:#D98416;}
</style>
<path class="st0" d="M31.44,37.83c0,1.23,0,5.7,0,6.71c0,0.77-1.01,0.77-1.01,0c0-1.23,0-5.7,0-6.71C30.42,37,31.44,37,31.44,37.83
	L31.44,37.83z"/>
<linearGradient id="SVGID_1_" gradientUnits="userSpaceOnUse" x1="25.5838" y1="52.6596" x2="29.8514" y2="52.6596" gradientTransform="matrix(1 0 0 1 3.2132 -0.8394)">
	<stop  offset="0" style="stop-color:#FF3641"/>
	<stop  offset="0.2731" style="stop-color:#FC343F"/>
	<stop  offset="0.4766" style="stop-color:#F22E39"/>
	<stop  offset="0.6575" style="stop-color:#E2242E"/>
	<stop  offset="0.8253" style="stop-color:#CC151F"/>
	<stop  offset="0.9828" style="stop-color:#AF020B"/>
	<stop  offset="1" style="stop-color:#AB0009"/>
</linearGradient>
<path class="st1" d="M30.93,45.86c-1.86-0.87-2.27,6.71-2.1,9.42c0.02-0.19,0.07-1.78,0.22-2.84c-0.11,2.02-0.06,4.23-0.06,4.45
	c0,0.22,0.29,0.33,0.29,0.33c-0.05-1.24,0.07-2.49,0.07-2.49s-0.09,1.6,0.03,2.6c0.37,0.27,0.69,0.33,0.69,0.33
	c-0.07-1.5,0.21-5.78,0.21-5.78s-0.2,3.93-0.04,5.87c0.26,0.08,0.71,0.09,0.71,0.09s0.45-0.01,0.7-0.09
	c0.16-1.94-0.04-5.87-0.04-5.87s0.28,4.28,0.21,5.78c0,0,0.32-0.06,0.69-0.33c0.12-1,0.02-2.6,0.02-2.6s0.12,1.25,0.07,2.49
	c0,0,0.29-0.11,0.29-0.33c0-0.22,0.05-2.44-0.06-4.45c0.15,1.06,0.2,2.66,0.22,2.84C33.2,52.58,32.79,44.99,30.93,45.86z"/>
<path class="st0" d="M31.58,45.86c0,0.34-1.31,0.34-1.31,0S31.58,45.52,31.58,45.86z"/>
<linearGradient id="SVGID_2_" gradientUnits="userSpaceOnUse" x1="26.8108" y1="45.8312" x2="28.6253" y2="45.8312" gradientTransform="matrix(1 0 0 1 3.2132 -0.8394)">
	<stop  offset="0" style="stop-color:#FF3641"/>
	<stop  offset="0.2731" style="stop-color:#FC343F"/>
	<stop  offset="0.4766" style="stop-color:#F22E39"/>
	<stop  offset="0.6575" style="stop-color:#E2242E"/>
	<stop  offset="0.8253" style="stop-color:#CC151F"/>
	<stop  offset="0.9828" style="stop-color:#AF020B"/>
	<stop  offset="1" style="stop-color:#AB0009"/>
</linearGradient>
<path class="st2" d="M31.84,44.99c0,1.24-1.81,1.24-1.81,0C30.02,43.75,31.84,43.75,31.84,44.99z"/>
<path class="st0" d="M25.5,39.98c0,1.23,0,5.71,0,6.71c0,0.77-1.01,0.77-1.01,0c0-1.23,0-5.7,0-6.71
	C24.48,39.15,25.5,39.15,25.5,39.98L25.5,39.98z"/>
<linearGradient id="SVGID_3_" gradientUnits="userSpaceOnUse" x1="19.6433" y1="54.8134" x2="23.911" y2="54.8134" gradientTransform="matrix(1 0 0 1 3.2132 -0.8394)">
	<stop  offset="0" style="stop-color:#FF3641"/>
	<stop  offset="0.2731" style="stop-color:#FC343F"/>
	<stop  offset="0.4766" style="stop-color:#F22E39"/>
	<stop  offset="0.6575" style="stop-color:#E2242E"/>
	<stop  offset="0.8253" style="stop-color:#CC151F"/>
	<stop  offset="0.9828" style="stop-color:#AF020B"/>
	<stop  offset="1" style="stop-color:#AB0009"/>
</linearGradient>
<path class="st3" d="M24.99,48.02c-1.86-0.87-2.27,6.71-2.1,9.42c0.02-0.19,0.07-1.78,0.22-2.85c-0.11,2.02-0.06,4.23-0.06,4.45
	c0,0.22,0.29,0.33,0.29,0.33c-0.05-1.24,0.07-2.49,0.07-2.49s-0.09,1.6,0.03,2.6c0.37,0.27,0.69,0.33,0.69,0.33
	c-0.07-1.5,0.21-5.78,0.21-5.78s-0.2,3.93-0.04,5.87c0.26,0.08,0.71,0.09,0.71,0.09s0.45-0.01,0.7-0.09
	c0.16-1.94-0.04-5.87-0.04-5.87s0.28,4.28,0.21,5.78c0,0,0.32-0.06,0.69-0.33c0.12-1,0.03-2.6,0.03-2.6s0.11,1.25,0.07,2.49
	c0,0,0.29-0.11,0.29-0.33c0-0.22,0.05-2.44-0.06-4.45c0.15,1.06,0.2,2.66,0.22,2.85C27.26,54.73,26.85,47.15,24.99,48.02z"/>
<path class="st0" d="M25.64,48.02c0,0.34-1.31,0.34-1.31,0C24.34,47.68,25.64,47.68,25.64,48.02z"/>
<linearGradient id="SVGID_4_" gradientUnits="userSpaceOnUse" x1="20.8694" y1="47.9852" x2="22.6848" y2="47.9852" gradientTransform="matrix(1 0 0 1 3.2132 -0.8394)">
	<stop  offset="0" style="stop-color:#FF3641"/>
	<stop  offset="0.2731" style="stop-color:#FC343F"/>
	<stop  offset="0.4766" style="stop-color:#F22E39"/>
	<stop  offset="0.6575" style="stop-color:#E2242E"/>
	<stop  offset="0.8253" style="stop-color:#CC151F"/>
	<stop  offset="0.9828" style="stop-color:#AF020B"/>
	<stop  offset="1" style="stop-color:#AB0009"/>
</linearGradient>
<path class="st4" d="M25.9,47.15c0,1.24-1.82,1.24-1.82,0C24.08,45.9,25.9,45.9,25.9,47.15z"/>
<linearGradient id="SVGID_5_" gradientUnits="userSpaceOnUse" x1="43.6657" y1="13.1015" x2="46.1309" y2="38.9043" gradientTransform="matrix(1 0 0 1 3.2132 -0.8394)">
	<stop  offset="0" style="stop-color:#F7DD45"/>
	<stop  offset="0.1799" style="stop-color:#F5D742"/>
	<stop  offset="0.4302" style="stop-color:#EFC538"/>
	<stop  offset="0.7203" style="stop-color:#E5A729"/>
	<stop  offset="1" style="stop-color:#D98416"/>
</linearGradient>
<path class="st5" d="M47.97,12.16c-0.51,1.61,0.77,7.29-0.92,10.99c-1.8,3.94-6.73,8.75-12.82,11.65v4.71
	c7.56-3.35,15.58-8.57,19.35-9.78c2.26-0.73,8.41-1.07,10.07-1.74L47.97,12.16z"/>
<path class="st6" d="M48.04,11.85c-1.52,1.54,14.38,17.61,15.9,16.06C65.05,26.79,49.15,10.73,48.04,11.85z"/>
<linearGradient id="SVGID_6_" gradientUnits="userSpaceOnUse" x1="-458.9335" y1="950.5405" x2="-456.319" y2="950.5405" gradientTransform="matrix(-0.7071 0.7071 -0.7071 -0.7071 404.4449 1015.6821)">
	<stop  offset="0" style="stop-color:#E69800"/>
	<stop  offset="0.1454" style="stop-color:#E19500"/>
	<stop  offset="0.3075" style="stop-color:#D48C00"/>
	<stop  offset="0.4775" style="stop-color:#BE7D00"/>
	<stop  offset="0.6531" style="stop-color:#9E6800"/>
	<stop  offset="0.8312" style="stop-color:#774E00"/>
	<stop  offset="1" style="stop-color:#4A3000"/>
</linearGradient>
<path class="st7" d="M48.2,11.88c-1.42,1.43,14.29,17.31,15.71,15.88C64.94,26.72,49.23,10.84,48.2,11.88z"/>
<linearGradient id="SVGID_7_" gradientUnits="userSpaceOnUse" x1="-174.8875" y1="75.4795" x2="-174.8875" y2="66.2151" gradientTransform="matrix(0.9505 0.3106 -0.3106 0.9505 203.0159 19.8903)">
	<stop  offset="0" style="stop-color:#D98416"/>
	<stop  offset="0.2797" style="stop-color:#E5A729"/>
	<stop  offset="0.5698" style="stop-color:#EFC538"/>
	<stop  offset="0.8201" style="stop-color:#F5D742"/>
	<stop  offset="1" style="stop-color:#F7DD45"/>
</linearGradient>
<path class="st8" d="M23.35,35.62c-9.15-0.87-11.77-4.4-16.04-8.66l-2.38,2.38c3.75,3.61,9.01,9.7,18.03,10.56
	C24.15,40.02,24.55,35.73,23.35,35.62z"/>
<radialGradient id="SVGID_8_" cx="24.394" cy="19.5544" r="19.2113" gradientTransform="matrix(1 0 0 1 3.2132 -0.8394)" gradientUnits="userSpaceOnUse">
	<stop  offset="0" style="stop-color:#F7DD45"/>
	<stop  offset="0.4354" style="stop-color:#F6DB44"/>
	<stop  offset="0.6062" style="stop-color:#F4D440"/>
	<stop  offset="0.7306" style="stop-color:#F0C83A"/>
	<stop  offset="0.8325" style="stop-color:#EAB731"/>
	<stop  offset="0.9196" style="stop-color:#E3A025"/>
	<stop  offset="0.9969" style="stop-color:#D98517"/>
	<stop  offset="1" style="stop-color:#D98416"/>
</radialGradient>
<path class="st9" d="M27.44,4C17.43,4,9.32,12.19,9.32,22.3c0,10.11,8.12,18.3,18.12,18.3c10.01,0,18.12-8.19,18.12-18.3
	C45.56,12.19,37.45,4,27.44,4z M27.44,35.68c-7.32,0-13.25-5.99-13.25-13.38c0-7.39,5.93-13.38,13.25-13.38
	c7.32,0,13.25,5.99,13.25,13.38C40.69,29.69,34.76,35.68,27.44,35.68z"/>
<linearGradient id="SVGID_9_" gradientUnits="userSpaceOnUse" x1="17.3206" y1="37.5985" x2="18.8059" y2="37.5985" gradientTransform="matrix(1 0 0 1 3.2132 -0.8394)">
	<stop  offset="0" style="stop-color:#FF3641"/>
	<stop  offset="0.2731" style="stop-color:#FC343F"/>
	<stop  offset="0.4766" style="stop-color:#F22E39"/>
	<stop  offset="0.6575" style="stop-color:#E2242E"/>
	<stop  offset="0.8253" style="stop-color:#CC151F"/>
	<stop  offset="0.9828" style="stop-color:#AF020B"/>
	<stop  offset="1" style="stop-color:#AB0009"/>
</linearGradient>
<path class="st10" d="M20.53,33.43c0,1.23,0,5.7,0,6.71c0,0.76,1.49,0.76,1.49,0c0-1.23,0-5.7,0-6.71
	C22.02,32.6,20.53,32.6,20.53,33.43L20.53,33.43z"/>
<linearGradient id="SVGID_10_" gradientUnits="userSpaceOnUse" x1="18.8059" y1="38.0349" x2="20.2913" y2="38.0349" gradientTransform="matrix(1 0 0 1 3.2132 -0.8394)">
	<stop  offset="0" style="stop-color:#FF3641"/>
	<stop  offset="0.2731" style="stop-color:#FC343F"/>
	<stop  offset="0.4766" style="stop-color:#F22E39"/>
	<stop  offset="0.6575" style="stop-color:#E2242E"/>
	<stop  offset="0.8253" style="stop-color:#CC151F"/>
	<stop  offset="0.9828" style="stop-color:#AF020B"/>
	<stop  offset="1" style="stop-color:#AB0009"/>
</linearGradient>
<path class="st11" d="M22.02,33.87c0,1.23,0,5.7,0,6.71c0,0.76,1.49,0.76,1.49,0c0-1.23,0-5.71,0-6.71
	C23.5,33.03,22.02,33.03,22.02,33.87L22.02,33.87z"/>
<linearGradient id="SVGID_11_" gradientUnits="userSpaceOnUse" x1="20.2913" y1="38.2251" x2="21.7766" y2="38.2251" gradientTransform="matrix(1 0 0 1 3.2132 -0.8394)">
	<stop  offset="0" style="stop-color:#FF3641"/>
	<stop  offset="0.2731" style="stop-color:#FC343F"/>
	<stop  offset="0.4766" style="stop-color:#F22E39"/>
	<stop  offset="0.6575" style="stop-color:#E2242E"/>
	<stop  offset="0.8253" style="stop-color:#CC151F"/>
	<stop  offset="0.9828" style="stop-color:#AF020B"/>
	<stop  offset="1" style="stop-color:#AB0009"/>
</linearGradient>
<path class="st12" d="M23.5,34.05c0,1.23,0,5.71,0,6.71c0,0.77,1.49,0.77,1.49,0c0-1.23,0-5.7,0-6.71
	C24.99,33.23,23.5,33.23,23.5,34.05L23.5,34.05z"/>
<linearGradient id="SVGID_12_" gradientUnits="userSpaceOnUse" x1="21.7766" y1="38.5884" x2="23.263" y2="38.5884" gradientTransform="matrix(1 0 0 1 3.2132 -0.8394)">
	<stop  offset="0" style="stop-color:#FF3641"/>
	<stop  offset="0.2731" style="stop-color:#FC343F"/>
	<stop  offset="0.4766" style="stop-color:#F22E39"/>
	<stop  offset="0.6575" style="stop-color:#E2242E"/>
	<stop  offset="0.8253" style="stop-color:#CC151F"/>
	<stop  offset="0.9828" style="stop-color:#AF020B"/>
	<stop  offset="1" style="stop-color:#AB0009"/>
</linearGradient>
<path class="st13" d="M24.99,34.42c0,1.23,0,5.7,0,6.71c0,0.76,1.49,0.76,1.49,0c0-1.23,0-5.7,0-6.71
	C26.48,33.59,24.99,33.59,24.99,34.42L24.99,34.42z"/>
<linearGradient id="SVGID_13_" gradientUnits="userSpaceOnUse" x1="23.263" y1="38.7567" x2="24.7483" y2="38.7567" gradientTransform="matrix(1 0 0 1 3.2132 -0.8394)">
	<stop  offset="0" style="stop-color:#FF3641"/>
	<stop  offset="0.2731" style="stop-color:#FC343F"/>
	<stop  offset="0.4766" style="stop-color:#F22E39"/>
	<stop  offset="0.6575" style="stop-color:#E2242E"/>
	<stop  offset="0.8253" style="stop-color:#CC151F"/>
	<stop  offset="0.9828" style="stop-color:#AF020B"/>
	<stop  offset="1" style="stop-color:#AB0009"/>
</linearGradient>
<path class="st14" d="M26.48,34.59c0,1.23,0,5.71,0,6.71c0,0.77,1.49,0.77,1.49,0c0-1.23,0-5.7,0-6.71
	C27.96,33.76,26.48,33.76,26.48,34.59L26.48,34.59z"/>
<linearGradient id="SVGID_14_" gradientUnits="userSpaceOnUse" x1="30.6887" y1="37.1614" x2="32.1741" y2="37.1614" gradientTransform="matrix(1 0 0 1 3.2132 -0.8394)">
	<stop  offset="0" style="stop-color:#FF3641"/>
	<stop  offset="0.2731" style="stop-color:#FC343F"/>
	<stop  offset="0.4766" style="stop-color:#F22E39"/>
	<stop  offset="0.6575" style="stop-color:#E2242E"/>
	<stop  offset="0.8253" style="stop-color:#CC151F"/>
	<stop  offset="0.9828" style="stop-color:#AF020B"/>
	<stop  offset="1" style="stop-color:#AB0009"/>
</linearGradient>
<path class="st15" d="M35.39,32.99c0,1.23,0,5.71,0,6.71c0,0.77-1.49,0.77-1.49,0c0-1.23,0-5.7,0-6.71
	C33.9,32.16,35.39,32.16,35.39,32.99L35.39,32.99z"/>
<linearGradient id="SVGID_15_" gradientUnits="userSpaceOnUse" x1="29.2034" y1="37.7484" x2="30.6887" y2="37.7484" gradientTransform="matrix(1 0 0 1 3.2132 -0.8394)">
	<stop  offset="0" style="stop-color:#FF3641"/>
	<stop  offset="0.2731" style="stop-color:#FC343F"/>
	<stop  offset="0.4766" style="stop-color:#F22E39"/>
	<stop  offset="0.6575" style="stop-color:#E2242E"/>
	<stop  offset="0.8253" style="stop-color:#CC151F"/>
	<stop  offset="0.9828" style="stop-color:#AF020B"/>
	<stop  offset="1" style="stop-color:#AB0009"/>
</linearGradient>
<path class="st16" d="M33.9,33.58c0,1.23,0,5.7,0,6.71c0,0.76-1.49,0.76-1.49,0c0-1.23,0-5.71,0-6.71
	C32.42,32.75,33.9,32.75,33.9,33.58L33.9,33.58z"/>
<linearGradient id="SVGID_16_" gradientUnits="userSpaceOnUse" x1="27.718" y1="38.2251" x2="29.2034" y2="38.2251" gradientTransform="matrix(1 0 0 1 3.2132 -0.8394)">
	<stop  offset="0" style="stop-color:#FF3641"/>
	<stop  offset="0.2731" style="stop-color:#FC343F"/>
	<stop  offset="0.4766" style="stop-color:#F22E39"/>
	<stop  offset="0.6575" style="stop-color:#E2242E"/>
	<stop  offset="0.8253" style="stop-color:#CC151F"/>
	<stop  offset="0.9828" style="stop-color:#AF020B"/>
	<stop  offset="1" style="stop-color:#AB0009"/>
</linearGradient>
<path class="st17" d="M32.42,34.05c0,1.23,0,5.71,0,6.71c0,0.77-1.49,0.77-1.49,0c0-1.23,0-5.7,0-6.71
	C30.93,33.23,32.42,33.23,32.42,34.05L32.42,34.05z"/>
<linearGradient id="SVGID_17_" gradientUnits="userSpaceOnUse" x1="26.2337" y1="38.5884" x2="27.718" y2="38.5884" gradientTransform="matrix(1 0 0 1 3.2132 -0.8394)">
	<stop  offset="0" style="stop-color:#FF3641"/>
	<stop  offset="0.2731" style="stop-color:#FC343F"/>
	<stop  offset="0.4766" style="stop-color:#F22E39"/>
	<stop  offset="0.6575" style="stop-color:#E2242E"/>
	<stop  offset="0.8253" style="stop-color:#CC151F"/>
	<stop  offset="0.9828" style="stop-color:#AF020B"/>
	<stop  offset="1" style="stop-color:#AB0009"/>
</linearGradient>
<path class="st18" d="M30.93,34.42c0,1.23,0,5.7,0,6.71c0,0.76-1.48,0.76-1.48,0c0-1.23,0-5.7,0-6.71
	C29.45,33.59,30.93,33.59,30.93,34.42L30.93,34.42z"/>
<linearGradient id="SVGID_18_" gradientUnits="userSpaceOnUse" x1="24.7483" y1="38.7567" x2="26.2337" y2="38.7567" gradientTransform="matrix(1 0 0 1 3.2132 -0.8394)">
	<stop  offset="0" style="stop-color:#FF3641"/>
	<stop  offset="0.2731" style="stop-color:#FC343F"/>
	<stop  offset="0.4766" style="stop-color:#F22E39"/>
	<stop  offset="0.6575" style="stop-color:#E2242E"/>
	<stop  offset="0.8253" style="stop-color:#CC151F"/>
	<stop  offset="0.9828" style="stop-color:#AF020B"/>
	<stop  offset="1" style="stop-color:#AB0009"/>
</linearGradient>
<path class="st19" d="M29.45,34.59c0,1.23,0,5.71,0,6.71c0,0.77-1.49,0.77-1.49,0c0-1.23,0-5.7,0-6.71
	C27.96,33.76,29.45,33.76,29.45,34.59L29.45,34.59z"/>
<linearGradient id="SVGID_19_" gradientUnits="userSpaceOnUse" x1="-46.9226" y1="-221.8491" x2="-40.0388" y2="-221.8491" gradientTransform="matrix(0.7071 -0.7071 0.7071 0.7071 191.9554 152.5262)">
	<stop  offset="0" style="stop-color:#D98416"/>
	<stop  offset="0.4235" style="stop-color:#E6AB2B"/>
	<stop  offset="1" style="stop-color:#F7DD45"/>
</linearGradient>
<path class="st20" d="M4.74,22.07c-0.45-0.13-1.69,0.84-2.79,1.94c-1.1,1.1-2.07,2.34-1.94,2.79c0.07,0.24,0.65,0.96,1.02,0.59
	c0.74-0.74,2.58-0.45,2.58,0.82c0,0.88,1.15,0.39,1.15,1.19c0,0.92,1.03,0.32,1.97-0.62s1.54-1.97,0.62-1.97
	c-0.81,0-0.31-1.15-1.19-1.15c-1.27,0-1.56-1.84-0.82-2.58C5.7,22.72,4.98,22.14,4.74,22.07z"/>
<path class="st21" d="M5.35,22.99c0,0-2.14,2.27-4.41,4.41C3.67,25.34,5.35,22.99,5.35,22.99z"/>
<path class="st21" d="M6.78,26.41c0,0-1.18,1.25-2.43,2.43C5.85,27.7,6.78,26.41,6.78,26.41z"/>
<path class="st21" d="M3.63,28.12c0,0,1.18-1.25,2.43-2.43C4.56,26.83,3.63,28.12,3.63,28.12z"/>
<path class="st21" d="M7.34,26.84c0,0-1.24,1.32-2.56,2.56C6.36,28.2,7.34,26.84,7.34,26.84z"/>
</svg>
