<?xml version="1.0" encoding="utf-8"?>
<!-- Generator: Adobe Illustrator 24.1.2, SVG Export Plug-In . SVG Version: 6.00 Build 0)  -->
<svg version="1.1" id="Layer_1" xmlns="http://www.w3.org/2000/svg" xmlns:xlink="http://www.w3.org/1999/xlink" x="0px" y="0px"
	 width="64px" height="64px" viewBox="0 0 64 64" style="enable-background:new 0 0 64 64;" xml:space="preserve">
<style type="text/css">
	.st0{fill:url(#SVGID_1_);}
	.st1{fill:#99A8AE;}
	.st2{fill:url(#SVGID_2_);}
	.st3{fill:url(#SVGID_3_);}
	.st4{fill:url(#SVGID_4_);}
	.st5{fill:url(#SVGID_5_);}
</style>
<linearGradient id="SVGID_1_" gradientUnits="userSpaceOnUse" x1="32" y1="50" x2="32" y2="14">
	<stop  offset="0" style="stop-color:#E6EBED"/>
	<stop  offset="0.512" style="stop-color:#DBE2E5"/>
	<stop  offset="1" style="stop-color:#CCD5D9"/>
</linearGradient>
<rect x="2" y="14" class="st0" width="60" height="36"/>
<polygon class="st1" points="32,20 2,50 62,50 "/>
<linearGradient id="SVGID_2_" gradientUnits="userSpaceOnUse" x1="32" y1="50" x2="32" y2="21.2012">
	<stop  offset="0" style="stop-color:#E6EBED"/>
	<stop  offset="0.2602" style="stop-color:#E3E9EB"/>
	<stop  offset="0.4539" style="stop-color:#DAE1E4"/>
	<stop  offset="0.5758" style="stop-color:#CFD8DD"/>
</linearGradient>
<polygon class="st2" points="32,21.2 2,50 62,50 "/>
<polygon class="st1" points="36.63,31.88 36.63,36.26 62,14 2,14 27.04,35.97 27.04,31.88 "/>
<linearGradient id="SVGID_3_" gradientUnits="userSpaceOnUse" x1="32" y1="37.7422" x2="32" y2="-51.6095">
	<stop  offset="0" style="stop-color:#B9C2C7"/>
	<stop  offset="0.0456" style="stop-color:#C2CACF"/>
	<stop  offset="0.2033" style="stop-color:#DCE2E5"/>
	<stop  offset="0.297" style="stop-color:#E6EBED"/>
</linearGradient>
<path class="st3" d="M30.71,38.12L2,14h60L33.29,38.12C32.54,38.74,31.46,38.74,30.71,38.12z"/>
<linearGradient id="SVGID_4_" gradientUnits="userSpaceOnUse" x1="32" y1="38.5878" x2="32" y2="14">
	<stop  offset="0" style="stop-color:#E6EBED"/>
	<stop  offset="0.582" style="stop-color:#E3E9EC"/>
	<stop  offset="1" style="stop-color:#DAE3E8"/>
</linearGradient>
<path class="st4" d="M30.71,38.12L2,14h60L33.29,38.12C32.54,38.74,31.46,38.74,30.71,38.12z"/>
<linearGradient id="SVGID_5_" gradientUnits="userSpaceOnUse" x1="31.9991" y1="46.1945" x2="31.9991" y2="21.8055">
	<stop  offset="0" style="stop-color:#0194D6"/>
	<stop  offset="1" style="stop-color:#0FB4D4"/>
</linearGradient>
<path class="st5" d="M43.25,28.14c-0.5-1.27-1.25-2.37-2.25-3.31c-1-0.94-2.22-1.68-3.67-2.22c-1.45-0.54-3.12-0.8-5-0.8
	c-1.76,0-3.39,0.28-4.89,0.83c-1.51,0.55-2.81,1.37-3.92,2.45c-1.11,1.08-1.97,2.39-2.59,3.94c-0.62,1.54-0.93,3.3-0.93,5.28
	c0,2.33,0.49,4.38,1.48,6.17c0.99,1.78,2.4,3.18,4.24,4.2c1.84,1.02,4.02,1.52,6.55,1.52c2.44,0,4.48-0.43,6.12-1.28
	s2.81-1.91,3.49-3.19h-3.88c-0.48,0.57-1.21,1.03-2.18,1.37c-0.97,0.34-2.16,0.51-3.56,0.51c-1.92,0-3.58-0.39-4.96-1.16
	c-1.39-0.78-2.45-1.86-3.19-3.24c-0.74-1.39-1.11-3.02-1.11-4.91c0-1.59,0.23-3,0.69-4.24c0.46-1.24,1.11-2.28,1.95-3.12
	c0.84-0.84,1.83-1.48,2.97-1.93c1.14-0.44,2.37-0.67,3.7-0.67c1.46,0,2.74,0.19,3.85,0.57c1.11,0.38,2.03,0.92,2.77,1.62
	c0.74,0.7,1.29,1.53,1.66,2.49c0.37,0.96,0.55,2.02,0.55,3.19c0,1-0.08,1.84-0.24,2.54c-0.16,0.69-0.36,1.24-0.61,1.65
	c-0.25,0.41-0.52,0.7-0.8,0.87c-0.29,0.17-0.55,0.26-0.79,0.26c-0.7,0-1.13-0.25-1.29-0.75c-0.16-0.5-0.15-1.24,0.01-2.22l1.19-6.6
	h-3.02l-0.28,1.58h-0.08c-0.24-0.59-0.66-1.04-1.25-1.36c-0.59-0.31-1.26-0.47-1.99-0.47c-0.87,0-1.66,0.18-2.38,0.55
	s-1.34,0.88-1.86,1.52c-0.52,0.65-0.92,1.41-1.21,2.29s-0.43,1.82-0.43,2.81c0,1.5,0.38,2.71,1.14,3.64c0.76,0.93,1.84,1.4,3.24,1.4
	c1.02,0,1.84-0.23,2.47-0.69c0.63-0.46,1.16-1.02,1.61-1.66h0.06c0.15,0.7,0.52,1.27,1.12,1.71c0.6,0.43,1.41,0.65,2.42,0.65
	c0.83,0,1.6-0.17,2.3-0.5c0.7-0.33,1.32-0.83,1.84-1.48c0.53-0.66,0.93-1.47,1.22-2.44c0.29-0.97,0.43-2.07,0.43-3.31
	C44,30.77,43.75,29.4,43.25,28.14z M34.35,35.03c-0.26,0.74-0.66,1.34-1.19,1.81c-0.54,0.47-1.19,0.71-1.97,0.71
	c-0.61,0-1.09-0.24-1.45-0.72c-0.36-0.48-0.54-1.12-0.54-1.91c0-0.74,0.12-1.47,0.37-2.2c0.25-0.73,0.62-1.34,1.12-1.83
	c0.5-0.49,1.12-0.73,1.86-0.73c0.66,0,1.2,0.22,1.59,0.65c0.4,0.43,0.6,1.08,0.6,1.93C34.74,33.52,34.61,34.29,34.35,35.03z"/>
</svg>
