<?xml version="1.0" encoding="utf-8"?>
<!-- Generator: Adobe Illustrator 24.1.2, SVG Export Plug-In . SVG Version: 6.00 Build 0)  -->
<svg version="1.1" id="Layer_1" xmlns="http://www.w3.org/2000/svg" xmlns:xlink="http://www.w3.org/1999/xlink" x="0px" y="0px"
	 width="64px" height="64px" viewBox="0 0 64 64" style="enable-background:new 0 0 64 64;" xml:space="preserve">
<style type="text/css">
	.st0{fill:#7A8082;}
	.st1{fill:#302C3B;}
	.st2{fill:url(#SVGID_1_);}
	.st3{fill:url(#SVGID_2_);}
	.st4{fill:url(#SVGID_3_);}
	.st5{fill:url(#SVGID_4_);}
	.st6{fill:url(#SVGID_5_);}
	.st7{fill:url(#SVGID_6_);}
	.st8{fill:url(#SVGID_7_);}
	.st9{fill:url(#SVGID_8_);}
</style>
<polygon class="st0" points="42.84,38.32 42.84,57 49.74,56 49.74,38.32 "/>
<polygon class="st1" points="52.34,60 52.92,56.91 49.74,56 42.84,57 "/>
<linearGradient id="SVGID_1_" gradientUnits="userSpaceOnUse" x1="-40.0741" y1="26.7657" x2="-40.0741" y2="49.2372" gradientTransform="matrix(1 0 0 -1 94 70)">
	<stop  offset="0.3583" style="stop-color:#8F0100"/>
	<stop  offset="0.4387" style="stop-color:#B1090B"/>
	<stop  offset="0.5258" style="stop-color:#CD1013"/>
	<stop  offset="0.6194" style="stop-color:#E3151A"/>
	<stop  offset="0.7213" style="stop-color:#F3191F"/>
	<stop  offset="0.8375" style="stop-color:#FC1B22"/>
	<stop  offset="1" style="stop-color:#FF1C23"/>
</linearGradient>
<path class="st2" d="M58,43.23c5.34,0.01,5.33-22.47,0-22.47l-12.15,0v22.47H58z"/>
<linearGradient id="SVGID_2_" gradientUnits="userSpaceOnUse" x1="-59.5854" y1="10.9316" x2="-59.5854" y2="65.0652" gradientTransform="matrix(1 0 0 -1 94 70)">
	<stop  offset="0.4465" style="stop-color:#A5ABAE"/>
	<stop  offset="0.4585" style="stop-color:#ABB1B4"/>
	<stop  offset="0.5181" style="stop-color:#C2C7CA"/>
	<stop  offset="0.5865" style="stop-color:#D5D9DC"/>
	<stop  offset="0.6675" style="stop-color:#E1E6E9"/>
	<stop  offset="0.7736" style="stop-color:#E9EDF0"/>
	<stop  offset="1" style="stop-color:#EBEFF2"/>
</linearGradient>
<path class="st3" d="M45.85,43.24c6.54-1.72,6.54-20.74,0-22.47C38.63,18.86,18.07,4.93,18.07,4.93v54.13
	C18.07,59.07,38.63,45.15,45.85,43.24z"/>
<linearGradient id="SVGID_3_" gradientUnits="userSpaceOnUse" x1="-122.7303" y1="233.7097" x2="-98.5722" y2="233.7097" gradientTransform="matrix(0.9475 0 0 -2.0375 119.0439 508.1834)">
	<stop  offset="0" style="stop-color:#EBEFF2"/>
	<stop  offset="0.3693" style="stop-color:#C0C4C7"/>
	<stop  offset="1" style="stop-color:#6E7375"/>
</linearGradient>
<path class="st4" d="M13.66,58.37c-14.53,0-14.53-52.73,0-52.73C29.64,5.63,29.64,58.37,13.66,58.37z"/>
<linearGradient id="SVGID_4_" gradientUnits="userSpaceOnUse" x1="-73.2677" y1="29.5673" x2="-73.2677" y2="46.4345" gradientTransform="matrix(1 0 0 -1 94 70)">
	<stop  offset="0.3583" style="stop-color:#8F0100"/>
	<stop  offset="0.4387" style="stop-color:#B1090B"/>
	<stop  offset="0.5258" style="stop-color:#CD1013"/>
	<stop  offset="0.6194" style="stop-color:#E3151A"/>
	<stop  offset="0.7213" style="stop-color:#F3191F"/>
	<stop  offset="0.8375" style="stop-color:#FC1B22"/>
	<stop  offset="1" style="stop-color:#FF1C23"/>
</linearGradient>
<path class="st5" d="M26.28,23.57c0,0,0.61,2.97,0.61,8.43c0,5.57-0.61,8.43-0.61,8.43L14.57,38.8V25.2L26.28,23.57z"/>
<linearGradient id="SVGID_5_" gradientUnits="userSpaceOnUse" x1="-79.4282" y1="31.2057" x2="-79.4282" y2="44.7986" gradientTransform="matrix(1 0 0 -1 94 70)">
	<stop  offset="0" style="stop-color:#B30100"/>
	<stop  offset="0.2192" style="stop-color:#CB0100"/>
	<stop  offset="0.529" style="stop-color:#E80000"/>
	<stop  offset="0.7999" style="stop-color:#F90000"/>
	<stop  offset="1" style="stop-color:#FF0000"/>
</linearGradient>
<path class="st6" d="M14.57,25.2c1.61,0,2.92,3.04,2.92,6.8c0,3.75-1.31,6.8-2.92,6.8s-2.92-3.04-2.92-6.8
	C11.66,28.24,12.96,25.2,14.57,25.2z"/>
<path class="st1" d="M14,27.49c0.99,0,1.79,2.02,1.79,4.51c0,2.49-0.8,4.51-1.79,4.51s-1.79-2.02-1.79-4.51
	C12.21,29.51,13.01,27.49,14,27.49z"/>
<linearGradient id="SVGID_6_" gradientUnits="userSpaceOnUse" x1="-37.702" y1="10" x2="-37.702" y2="40.1103" gradientTransform="matrix(1 0 0 -1 94 70)">
	<stop  offset="0" style="stop-color:#979EA1"/>
	<stop  offset="0.2317" style="stop-color:#A5ACAF"/>
	<stop  offset="0.6703" style="stop-color:#CBD0D3"/>
	<stop  offset="1" style="stop-color:#EBEFF2"/>
</linearGradient>
<path class="st7" d="M52.34,60l7.92-1V33.8c0-2.16-1.77-3.91-3.96-3.91h0c-2.19,0-3.96,1.75-3.96,3.91V60z"/>
<linearGradient id="SVGID_7_" gradientUnits="userSpaceOnUse" x1="-37.702" y1="33.1568" x2="-37.702" y2="38.7595" gradientTransform="matrix(1 0 0 -1 94 70)">
	<stop  offset="0" style="stop-color:#7A8082"/>
	<stop  offset="0.1958" style="stop-color:#888E90"/>
	<stop  offset="0.5682" style="stop-color:#AEB3B5"/>
	<stop  offset="1" style="stop-color:#E1E5E8"/>
</linearGradient>
<path class="st8" d="M59.15,34.03c-0.01,1.55-1.29,2.81-2.87,2.82c-1.57,0.01-2.84-1.24-2.83-2.79c0.01-1.55,1.29-2.81,2.87-2.82
	C57.89,31.23,59.16,32.48,59.15,34.03z"/>
<path class="st0" d="M54.27,36.03c-0.54-0.52,3.52-4.51,4.05-3.98C58.86,32.57,54.81,36.56,54.27,36.03z"/>
<linearGradient id="SVGID_8_" gradientUnits="userSpaceOnUse" x1="15.1661" y1="60" x2="15.1661" y2="4">
	<stop  offset="0" style="stop-color:#B30100"/>
	<stop  offset="0.2192" style="stop-color:#CB0100"/>
	<stop  offset="0.529" style="stop-color:#E80000"/>
	<stop  offset="0.7999" style="stop-color:#F90000"/>
	<stop  offset="1" style="stop-color:#FF0000"/>
</linearGradient>
<path class="st9" d="M14.54,4c-16.72,0-16.72,56,0,56C32.93,60,32.93,4,14.54,4z M13.68,57.2c-13.89,0-13.89-50.4,0-50.4
	C28.96,6.8,28.96,57.2,13.68,57.2z"/>
</svg>
