<?xml version="1.0" encoding="utf-8"?>
<!-- Generator: Adobe Illustrator 24.1.2, SVG Export Plug-In . SVG Version: 6.00 Build 0)  -->
<svg version="1.1" id="Layer_1" xmlns="http://www.w3.org/2000/svg" xmlns:xlink="http://www.w3.org/1999/xlink" x="0px" y="0px"
	 width="64px" height="64px" viewBox="0 0 64 64" style="enable-background:new 0 0 64 64;" xml:space="preserve">
<style type="text/css">
	.st0{fill:url(#SVGID_1_);}
	.st1{fill:#1A1626;}
	.st2{fill:#6E8189;}
	.st3{fill:url(#SVGID_2_);}
	.st4{fill:url(#SVGID_3_);}
	.st5{opacity:0.35;fill:url(#SVGID_4_);}
	.st6{opacity:0.2;fill:#FFFFFF;}
	.st7{fill:#B7FF3B;}
	.st8{fill:#FFE600;}
	.st9{fill:#FF38F6;}
	.st10{fill:#57CDFF;}
	.st11{fill:#B3C2C6;}
	.st12{fill:#CFD8DD;}
	.st13{fill:#FFFFFF;}
</style>
<linearGradient id="SVGID_1_" gradientUnits="userSpaceOnUse" x1="32" y1="61" x2="32" y2="3">
	<stop  offset="0" style="stop-color:#58636B"/>
	<stop  offset="0.0225" style="stop-color:#525964"/>
	<stop  offset="0.0737" style="stop-color:#494858"/>
	<stop  offset="0.13" style="stop-color:#433E51"/>
	<stop  offset="0.2" style="stop-color:#413B4F"/>
	<stop  offset="0.9" style="stop-color:#413B4F"/>
	<stop  offset="0.935" style="stop-color:#433E51"/>
	<stop  offset="0.9631" style="stop-color:#494858"/>
	<stop  offset="0.9888" style="stop-color:#525964"/>
	<stop  offset="1" style="stop-color:#58636B"/>
</linearGradient>
<path class="st0" d="M47,58c0,1.65-1.35,3-3,3H20c-1.65,0-3-1.35-3-3V6c0-1.65,1.35-3,3-3h24c1.65,0,3,1.35,3,3V58z"/>
<path class="st1" d="M34.57,5h-5.15c-0.57,0-0.57-1,0-1h5.15C35.14,4,35.14,5,34.57,5z"/>
<path class="st2" d="M22.3,4.5c0,1-1.5,1-1.5,0S22.3,3.5,22.3,4.5z"/>
<radialGradient id="SVGID_2_" cx="32.5005" cy="60.8889" r="106.2298" gradientTransform="matrix(1 0 0 0.6847 -5.000000e-04 19.196)" gradientUnits="userSpaceOnUse">
	<stop  offset="0.1091" style="stop-color:#FFEA80"/>
	<stop  offset="0.3818" style="stop-color:#190BB0"/>
	<stop  offset="0.4046" style="stop-color:#180AA2"/>
	<stop  offset="0.4899" style="stop-color:#150674"/>
	<stop  offset="0.5717" style="stop-color:#120450"/>
	<stop  offset="0.6477" style="stop-color:#100236"/>
	<stop  offset="0.7159" style="stop-color:#0F0026"/>
	<stop  offset="0.7697" style="stop-color:#0F0021"/>
</radialGradient>
<path class="st3" d="M44,6H20c-1.1,0-2,0.9-2,2v48c0,1.1,0.9,2,2,2h24c1.1,0,2-0.9,2-2V8C46,6.9,45.1,6,44,6z"/>
<linearGradient id="SVGID_3_" gradientUnits="userSpaceOnUse" x1="2.7538" y1="61.2469" x2="61.247" y2="2.7537" gradientTransform="matrix(1 0 0 1 -5.000000e-04 0)">
	<stop  offset="0.2" style="stop-color:#FF00B7;stop-opacity:0"/>
	<stop  offset="0.47" style="stop-color:#57DCFF;stop-opacity:0.5"/>
	<stop  offset="0.52" style="stop-color:#57DCFF;stop-opacity:0.5"/>
	<stop  offset="0.8" style="stop-color:#FF00B7;stop-opacity:0"/>
</linearGradient>
<path class="st4" d="M44,6H20c-1.1,0-2,0.9-2,2v48c0,1.1,0.9,2,2,2h24c1.1,0,2-0.9,2-2V8C46,6.9,45.1,6,44,6z"/>
<linearGradient id="SVGID_4_" gradientUnits="userSpaceOnUse" x1="234.1996" y1="56.3668" x2="257.1247" y2="56.3668" gradientTransform="matrix(0.7071 -0.7071 0.7071 0.7071 -181.541 161.3828)">
	<stop  offset="0.2485" style="stop-color:#02005E;stop-opacity:0"/>
	<stop  offset="0.5" style="stop-color:#02005E"/>
	<stop  offset="1" style="stop-color:#02005E;stop-opacity:0"/>
</linearGradient>
<path class="st5" d="M44.03,29.76c-1.03-0.99-3.39,1.24-4.04-0.39c-1.2-3.04-2.83,1.59-4.46-1.59c-0.92-1.8-2.15,1.58-4-0.15
	c-1.03-0.97,4.29-3.22-0.97-2.64c-1.75,0.19-1.18-1.44-2.18-1.94c-1.22-0.61-1.04-3.47-2.27-2.32c-1.33,1.25-2.22-4.49-3-1.81
	c-0.87,2.96-2.59-1.24-3.59-0.87c-3.03,1.13,2.42-3.86-0.29-4.15c-0.51-0.06-0.9-0.08-1.22-0.1v10.7c0.65,1.03,1.4,1.68,2.57,0.77
	c2.4-1.88-2.35,8.02,0.57,6.86c1.33-0.53,6.82-1.37,6.35,0.38c-1.75,6.45,2.39,1.05,4.76,0.93c4.14-0.21-3.24,8.1,1.08,5.74
	c1.37-0.75,3.59-4.42,4.48-3.73c3.28,2.53,3.1,5.25,2.94,6.55c-0.33,2.74,5.26-0.7,5.26-0.7V30.66
	C45.25,30.56,44.57,30.28,44.03,29.76z"/>
<path class="st1" d="M20,58h24c1.1,0,2-0.9,2-2v-3.96c-2.21-0.11-5.25-3.75-7.44-3.72c-1.69,0.02-3.97,2.7-5.63,2.98
	c-1.39,0.24-4.21-0.92-5.63-0.75c-2.07,0.25-5.41,2.82-7.5,2.99c-0.53,0.04-1.14-0.03-1.81-0.17V56C18,57.1,18.9,58,20,58z"/>
<path class="st6" d="M25,25.5c0.88,0,0.88-1.31,0-1.31C24.12,24.18,24.12,25.5,25,25.5z"/>
<path class="st6" d="M22.88,27.25c0.88,0,0.88-1.32,0-1.32C22.01,25.94,22.01,27.25,22.88,27.25z"/>
<path class="st6" d="M31.22,37.78c0.88,0,0.88-1.31,0-1.31C30.34,36.46,30.34,37.78,31.22,37.78z"/>
<path class="st6" d="M43.3,39.29c0.88,0,0.88-1.32,0-1.32C42.42,37.97,42.42,39.29,43.3,39.29z"/>
<path class="st6" d="M28.22,28.16c0.88-0.01,0.86-1.33-0.02-1.32C27.33,26.85,27.35,28.17,28.22,28.16z"/>
<path class="st6" d="M36.04,26.38c0.58,0,0.58-0.88,0-0.88C35.46,25.5,35.46,26.38,36.04,26.38z"/>
<path class="st6" d="M19.82,21.33c0.59,0,0.59-0.88,0-0.88C19.23,20.45,19.23,21.33,19.82,21.33z"/>
<path class="st6" d="M31.33,29.01c0.59,0,0.59-0.88,0-0.88C30.75,28.13,30.75,29.01,31.33,29.01z"/>
<path class="st6" d="M41.3,34.93c0.58,0,0.58-0.88,0-0.88C40.72,34.05,40.72,34.93,41.3,34.93z"/>
<path class="st6" d="M44.45,31.86c0.58,0,0.58-0.88,0-0.88C43.86,30.98,43.86,31.86,44.45,31.86z"/>
<path class="st6" d="M21.57,30.11c0.58,0,0.58-0.88,0-0.88C20.98,29.23,20.98,30.11,21.57,30.11z"/>
<path class="st6" d="M45.11,35.15c0.88,0,0.88-1.31,0-1.31C44.23,33.83,44.23,35.15,45.11,35.15z"/>
<path class="st6" d="M39.11,40.16c0.88,0,0.88-1.32,0-1.32C38.23,38.85,38.23,40.16,39.11,40.16z"/>
<path class="st6" d="M39.99,27.69c0.59,0,0.59-0.88,0-0.88C39.4,26.81,39.4,27.69,39.99,27.69z"/>
<path class="st6" d="M22.23,22.43c0.58,0,0.58-0.88,0-0.88C21.64,21.55,21.64,22.43,22.23,22.43z"/>
<path class="st6" d="M38.45,33.89c0.88,0,0.88-1.32,0-1.32C37.58,32.58,37.58,33.89,38.45,33.89z"/>
<path class="st6" d="M23.75,30.76c0.59,0,0.59-0.88,0-0.88C23.16,29.88,23.16,30.76,23.75,30.76z"/>
<path class="st6" d="M19.82,24.4c0.59,0,0.59-0.88,0-0.88C19.23,23.52,19.23,24.4,19.82,24.4z"/>
<path class="st6" d="M31.66,31.66c0.88,0,0.88-1.32,0-1.32C30.78,30.34,30.78,31.66,31.66,31.66z"/>
<path class="st6" d="M41.3,30.98c0.58,0,0.58-0.88,0-0.88C40.72,30.1,40.72,30.98,41.3,30.98z"/>
<path class="st6" d="M43.3,28.13c0.58,0,0.58-0.88,0-0.88C42.72,27.25,42.72,28.13,43.3,28.13z"/>
<path class="st6" d="M19.5,27.94c0.58,0,0.58-0.88,0-0.88C18.92,27.06,18.92,27.94,19.5,27.94z"/>
<path class="st6" d="M26.61,33.67c0.59,0,0.59-0.88,0-0.88C26.03,32.79,26.03,33.67,26.61,33.67z"/>
<path class="st6" d="M23.54,35.8c0.59,0,0.59-0.88,0-0.88C22.96,34.93,22.96,35.8,23.54,35.8z"/>
<path class="st6" d="M37.14,37.34c0.58,0,0.59-0.88,0-0.88C36.55,36.46,36.55,37.34,37.14,37.34z"/>
<path class="st7" d="M24.46,50.03c-0.76,0.63-3.15,0.63-3.91,0c-0.76-0.63-0.69-3.29,0-4c0.69-0.71,3.22-0.71,3.91,0
	C25.15,46.74,25.21,49.4,24.46,50.03z"/>
<path class="st8" d="M43.46,50.03c-0.76,0.63-3.15,0.63-3.91,0c-0.76-0.63-0.69-3.29,0-4c0.69-0.71,3.22-0.71,3.91,0
	C44.15,46.74,44.21,49.4,43.46,50.03z"/>
<path class="st9" d="M37.12,50.03c-0.76,0.63-3.15,0.63-3.91,0c-0.76-0.63-0.69-3.29,0-4c0.69-0.71,3.22-0.71,3.91,0
	C37.81,46.74,37.88,49.4,37.12,50.03z"/>
<path class="st10" d="M30.79,50.03c-0.76,0.63-3.15,0.63-3.91,0c-0.76-0.63-0.69-3.29,0-4c0.69-0.71,3.22-0.71,3.91,0
	C31.48,46.74,31.55,49.4,30.79,50.03z"/>
<path class="st10" d="M39.54,38.97c0.76-0.63,3.15-0.63,3.91,0c0.76,0.63,0.69,3.29,0,4c-0.69,0.71-3.22,0.71-3.91,0
	C38.85,42.26,38.78,39.6,39.54,38.97z"/>
<path class="st9" d="M20.54,38.97c0.76-0.63,3.15-0.63,3.91,0c0.76,0.63,0.69,3.29,0,4c-0.69,0.71-3.22,0.71-3.91,0
	C19.85,42.26,19.78,39.6,20.54,38.97z"/>
<path class="st8" d="M26.88,38.97c0.76-0.63,3.15-0.63,3.91,0c0.76,0.63,0.69,3.29,0,4c-0.69,0.71-3.22,0.71-3.91,0
	C26.19,42.26,26.12,39.6,26.88,38.97z"/>
<path class="st7" d="M33.21,38.97c0.76-0.63,3.15-0.63,3.91,0c0.76,0.63,0.69,3.29,0,4c-0.69,0.71-3.22,0.71-3.91,0
	C32.52,42.26,32.45,39.6,33.21,38.97z"/>
<path class="st11" d="M40.25,54.71c0,1-1.5,1-1.5,0S40.25,53.71,40.25,54.71z"/>
<path class="st11" d="M25.25,54.71c0,1-1.5,1-1.5,0S25.25,53.71,25.25,54.71z"/>
<path class="st11" d="M32.75,54.71c0,1-1.5,1-1.5,0S32.75,53.71,32.75,54.71z"/>
<polygon class="st12" points="41.37,7.14 41.37,7 41.1,7 41.1,7.14 40.91,7.14 40.91,7.99 41.56,7.99 41.56,7.14 "/>
<polygon class="st12" points="40.23,7.99 39.32,7.99 40.23,7 "/>
<path class="st12" d="M37.89,7.12l0.56,0.87L39,7.12C38.81,6.96,38.09,6.96,37.89,7.12z"/>
<path class="st12" d="M42.17,7.03h0.05c0.02,0,0.03,0.01,0.03,0.03v0.9c0,0.02-0.01,0.03-0.03,0.03h-0.04
	c-0.02,0-0.03-0.01-0.03-0.03V7.13l-0.21,0.11c-0.02,0.01-0.03,0-0.03-0.02V7.18c0-0.02,0.01-0.03,0.02-0.03l0.2-0.11
	C42.15,7.03,42.16,7.03,42.17,7.03z"/>
<path class="st12" d="M42.43,7.51c0-0.3,0.13-0.5,0.36-0.5c0.24,0,0.36,0.2,0.36,0.5c0,0.3-0.13,0.49-0.36,0.49
	C42.56,8,42.43,7.8,42.43,7.51z M43.06,7.51c0-0.26-0.1-0.4-0.27-0.4s-0.27,0.15-0.27,0.4c0,0.26,0.1,0.4,0.27,0.4
	S43.06,7.76,43.06,7.51z"/>
<path class="st12" d="M43.29,7.51c0-0.3,0.13-0.5,0.36-0.5c0.23,0,0.36,0.2,0.36,0.5c0,0.3-0.13,0.49-0.36,0.49
	C43.42,8,43.29,7.8,43.29,7.51z M43.92,7.51c0-0.26-0.1-0.4-0.27-0.4c-0.17,0-0.27,0.15-0.27,0.4c0,0.26,0.1,0.4,0.27,0.4
	C43.82,7.91,43.92,7.76,43.92,7.51z"/>
<path class="st12" d="M44.14,7.21c0-0.11,0.09-0.2,0.21-0.2c0.12,0,0.21,0.09,0.21,0.2c0,0.11-0.09,0.2-0.21,0.2
	C44.23,7.42,44.14,7.33,44.14,7.21z M44.2,7.95l0.63-0.91c0.01-0.01,0.02-0.02,0.04-0.02h0.04c0.02,0,0.03,0.02,0.02,0.03L44.3,7.97
	c-0.01,0.01-0.02,0.02-0.03,0.02h-0.04C44.2,7.98,44.19,7.97,44.2,7.95z M44.47,7.21c0-0.07-0.05-0.12-0.12-0.12
	c-0.07,0-0.12,0.06-0.12,0.12c0,0.07,0.05,0.12,0.12,0.12C44.42,7.34,44.47,7.28,44.47,7.21z M44.58,7.79
	c0-0.11,0.09-0.21,0.21-0.21c0.12,0,0.21,0.09,0.21,0.21C45,7.91,44.91,8,44.79,8C44.67,8,44.58,7.91,44.58,7.79z M44.91,7.79
	c0-0.07-0.05-0.12-0.12-0.12c-0.07,0-0.12,0.05-0.12,0.12c0,0.07,0.05,0.12,0.12,0.12C44.86,7.92,44.91,7.86,44.91,7.79z"/>
<polygon class="st13" points="22.2,20.01 25.57,20.01 22.47,25.78 24.11,25.78 27.22,19.92 27.22,18.78 22.2,18.78 "/>
<rect x="28.14" y="20.9" class="st13" width="1.61" height="1.58"/>
<rect x="28.14" y="24.19" class="st13" width="1.61" height="1.58"/>
<polygon class="st13" points="34.3,18.78 33.41,18.78 31.35,19.98 31.35,21.32 32.77,20.49 32.77,24.55 31.26,24.55 31.26,25.78 
	35.83,25.78 35.83,24.55 34.3,24.55 "/>
<polygon class="st13" points="36.58,18.78 36.58,20.01 39.95,20.01 36.85,25.78 38.49,25.78 41.61,19.92 41.61,18.78 "/>
<path class="st13" d="M26.62,30.59c0,0.12-0.02,0.2-0.05,0.26c-0.03,0.05-0.08,0.09-0.16,0.1c-0.08,0.01-0.19,0-0.35-0.02v0.46
	c0.28,0.04,0.51,0.04,0.67,0c0.16-0.04,0.28-0.13,0.35-0.27c0.07-0.13,0.1-0.31,0.1-0.53v-2.43h-0.57V30.59z"/>
<path class="st13" d="M28.88,29.92c0,0.13-0.04,0.23-0.11,0.31c-0.07,0.08-0.16,0.12-0.27,0.12c-0.1,0-0.17-0.03-0.22-0.08
	c-0.05-0.05-0.07-0.14-0.07-0.25V28.9h-0.55V30c0,0.26,0.06,0.45,0.17,0.58c0.11,0.13,0.29,0.19,0.52,0.19
	c0.14,0,0.26-0.03,0.36-0.1c0.08-0.05,0.14-0.12,0.19-0.21v0.28h0.53V28.9h-0.55V29.92z"/>
<rect x="29.87" y="28.07" class="st13" width="0.55" height="2.67"/>
<path class="st13" d="M31.65,30.1l-0.48-1.2h-0.57l0.76,1.74l-0.05,0.12c-0.03,0.07-0.07,0.13-0.12,0.18s-0.11,0.09-0.18,0.12
	c-0.07,0.03-0.17,0.06-0.28,0.08l0.13,0.42c0.14-0.02,0.27-0.05,0.4-0.11s0.23-0.13,0.33-0.23c0.1-0.1,0.18-0.23,0.26-0.4l0.85-1.93
	h-0.54L31.65,30.1z"/>
<polygon class="st13" points="35.16,28.15 34.83,28.15 34.08,28.6 34.08,29.09 34.6,28.79 34.6,30.29 34.04,30.29 34.04,30.74 
	35.73,30.74 35.73,30.29 35.16,30.29 "/>
<polygon class="st13" points="36.01,28.15 36.01,28.61 37.25,28.61 36.11,30.74 36.71,30.74 37.86,28.58 37.86,28.15 "/>
</svg>
