<?xml version="1.0" encoding="utf-8"?>
<!-- Generator: Adobe Illustrator 24.1.2, SVG Export Plug-In . SVG Version: 6.00 Build 0)  -->
<svg version="1.1" id="Layer_1" xmlns="http://www.w3.org/2000/svg" xmlns:xlink="http://www.w3.org/1999/xlink" x="0px" y="0px"
	 width="64px" height="64px" viewBox="0 0 64 64" style="enable-background:new 0 0 64 64;" xml:space="preserve">
<style type="text/css">
	.st0{fill:url(#SVGID_1_);}
	.st1{fill:#6E8189;}
	.st2{fill:#4E5E67;}
	.st3{fill:#CFD8DD;}
	.st4{fill:#B3C2C6;}
</style>
<linearGradient id="SVGID_1_" gradientUnits="userSpaceOnUse" x1="32" y1="59" x2="32" y2="7">
	<stop  offset="0" style="stop-color:#6E8088"/>
	<stop  offset="0.0263" style="stop-color:#88979E"/>
	<stop  offset="0.0606" style="stop-color:#A2AFB5"/>
	<stop  offset="0.0985" style="stop-color:#B6C1C7"/>
	<stop  offset="0.1414" style="stop-color:#C4CED3"/>
	<stop  offset="0.1935" style="stop-color:#CCD6DB"/>
	<stop  offset="0.28" style="stop-color:#CFD8DD"/>
	<stop  offset="0.31" style="stop-color:#D2DBDF"/>
	<stop  offset="0.4961" style="stop-color:#E1E7E9"/>
	<stop  offset="0.65" style="stop-color:#E6EBED"/>
	<stop  offset="1" style="stop-color:#B3C2C6"/>
</linearGradient>
<path class="st0" d="M2,7c0,0,1,3.85,1,17c0,8.34-1,21.57-1,27.05C2,59,3.92,59,3.92,59h56.15c0,0,1.92,0,1.92-7.95
	c0-5.47-1-18.71-1-27.05c0-13.15,1-17,1-17H2z"/>
<rect x="10.29" y="17.07" class="st1" width="45.94" height="0.5"/>
<rect x="7.77" y="18.36" class="st1" width="48.46" height="0.5"/>
<path class="st2" d="M33.52,23.3v24.01c0,0,0.34,0,0.47,0c0.03-9.17,2.81-15.11,2.8-15.11c0,0-1.11,3.2-1.71,7.72
	c0.24-1.41,0.57-2.22,0.84-2.59c0.14-0.27,0.36-0.51,0.48-0.53c0.04-0.35,0.26-0.76,0.41-0.83c-0.02-0.43,0.21-1.02,0.36-0.88
	c0.09-0.47,0.46-1.03,0.53-0.67c0.05-0.02,0.09-0.02,0.12-0.01c0.13-0.42,0.58-0.92,0.65-0.69c0.16-0.45,0.72-0.97,0.71-0.58
	c0.03,0,0.06,0,0.08,0c0.22-0.42,0.81-0.84,0.75-0.46c0.02,0,0.03,0.01,0.04,0.01c0.23-0.42,0.88-0.83,0.8-0.44
	c0.02,0,0.03,0.01,0.05,0.01c0.19-0.42,0.67-0.84,0.66-0.48c0.09-0.01,0.14,0.02,0.16,0.07c0.34-0.27,0.83-0.41,0.7-0.11
	c0.03,0,0.04,0.02,0.06,0.02c0.3-0.23,0.65-0.34,0.56-0.06c0.06,0.02,0.1,0.04,0.12,0.07c0.26-0.39,1.06-0.71,0.91-0.33
	c0.15,0.05,0.15,0.14,0.08,0.24c0.43-0.13,1.04-0.04,0.79,0.2c0.29,0.28-0.33,0.39-0.77,0.27c0,0,0,0,0,0
	c0.32,0.29-0.39,0.42-0.83,0.28c-0.17,0.2-0.85,0.35-1.1,0.14c-0.12,0.12-0.4,0.23-0.66,0.26c-0.03,0.2-0.64,0.39-1,0.29
	c0.05,0.2-0.48,0.56-0.86,0.58c0.19,0.15-0.27,0.48-0.67,0.55c0.02,0.17-0.36,0.46-0.71,0.54c0.12,0.05,0.07,0.2-0.06,0.36
	c0.14-0.13,0.26-0.15,0.26,0.03c0.06-0.01,0.09,0,0.12,0.01c0.16-0.27,0.47-0.54,0.63-0.57c0.2-0.4,0.57-0.74,0.58-0.41
	c0.05-0.01,0.08,0,0.11,0.01c0.25-0.24,0.51-0.36,0.48-0.1c0.03,0,0.05,0.01,0.08,0.01c0.28-0.36,0.77-0.64,0.71-0.3
	c0.04,0,0.07,0.01,0.09,0.03c0.25-0.25,0.69-0.43,0.82-0.35c0.31-0.35,1-0.61,0.86-0.25c0.01,0,0.02,0.01,0.03,0.01
	c0.32-0.33,1.25-0.45,1.01-0.11c0.12,0.08,0.12,0.15,0.06,0.22c0.35-0.06,0.69,0,0.51,0.2c0.35,0.28-0.44,0.46-0.88,0.31
	c-0.09,0.14-0.5,0.21-0.82,0.16c-0.01,0.01-0.01,0.01-0.03,0.02c0.33,0.35-0.62,0.39-1,0.12c0,0.02-0.01,0.04-0.03,0.07
	c0.39,0.22-0.4,0.54-0.85,0.45c0.13,0.19-0.47,0.49-0.88,0.47c-0.01,0.19-0.48,0.47-0.84,0.5c-0.1,0.2-0.41,0.46-0.67,0.54
	c0.35,0.13-0.23,0.55-0.68,0.61c0.06,0.23-0.61,0.82-0.96,0.72c-0.15,0.16-0.37,0.33-0.57,0.39c0.04,0.17-0.33,0.55-0.66,0.68
	c-0.19,1.05-0.4,2.79-0.48,5.57c0.3-1.18,0.61-1.99,0.87-2.51c-0.1-0.31,0.3-0.9,0.54-1.03c0.07-0.33,0.27-0.7,0.42-0.76
	c-0.01-0.44,0.23-1.02,0.38-0.88c0.09-0.47,0.47-1.02,0.54-0.66c0.05-0.02,0.09-0.02,0.12-0.01c0.13-0.43,0.59-0.92,0.67-0.68
	c0.17-0.45,0.75-0.97,0.72-0.57c0.04,0,0.06,0,0.09,0c0.23-0.42,0.83-0.83,0.77-0.46c0.02,0,0.03,0.01,0.04,0.01
	c0.24-0.41,0.89-0.82,0.81-0.43c0.02,0,0.03,0.01,0.05,0.01c0.21-0.42,0.69-0.83,0.68-0.47c0.09-0.01,0.14,0.02,0.16,0.07
	c0.34-0.26,0.84-0.4,0.71-0.1c0.02,0.01,0.04,0.02,0.05,0.03c0.3-0.23,0.66-0.33,0.57-0.06c0.06,0.02,0.1,0.04,0.12,0.07
	c0.27-0.39,1.09-0.7,0.92-0.32c0.15,0.05,0.15,0.15,0.08,0.24c0.43-0.12,1.05-0.03,0.79,0.2c0.29,0.28-0.34,0.39-0.78,0.26
	c0,0,0,0,0,0c0.32,0.29-0.4,0.42-0.84,0.27c-0.17,0.2-0.86,0.34-1.12,0.13c-0.12,0.12-0.4,0.23-0.66,0.25
	c-0.03,0.2-0.65,0.38-1.01,0.28c0.05,0.19-0.5,0.56-0.87,0.57c0.18,0.16-0.28,0.47-0.68,0.55c0.02,0.17-0.37,0.45-0.72,0.53
	c0.12,0.05,0.07,0.21-0.07,0.36c0.14-0.13,0.26-0.16,0.26,0.03c0.06-0.01,0.1,0,0.13,0.02c0.17-0.28,0.48-0.54,0.64-0.56
	c0.2-0.39,0.59-0.74,0.59-0.41c0.05-0.01,0.08,0,0.11,0.01c0.25-0.24,0.52-0.35,0.48-0.09c0.03,0,0.05,0.01,0.07,0.02
	c0.29-0.36,0.79-0.63,0.71-0.29c0.04,0.01,0.07,0.02,0.09,0.03c0.26-0.25,0.71-0.42,0.83-0.35c0.32-0.35,1.02-0.59,0.87-0.24
	c0.01,0,0.02,0.01,0.03,0.01c0.33-0.32,1.27-0.43,1.01-0.1c0.12,0.08,0.12,0.15,0.06,0.22c0.36-0.05,0.7,0.01,0.51,0.21
	c0.34,0.28-0.45,0.45-0.89,0.3c-0.09,0.14-0.5,0.21-0.83,0.14c-0.01,0-0.01,0.01-0.03,0.03c0.32,0.35-0.63,0.38-1.01,0.1
	c0,0.02-0.02,0.04-0.04,0.07c0.39,0.22-0.41,0.54-0.86,0.44c0.13,0.2-0.48,0.49-0.89,0.46c-0.01,0.19-0.49,0.47-0.85,0.49
	c-0.11,0.2-0.42,0.46-0.68,0.54c0.35,0.13-0.24,0.55-0.69,0.61c0.06,0.23-0.61,0.81-0.96,0.71c-0.22,0.24-0.62,0.48-0.84,0.39
	c-0.13,0.28-0.28,0.66-0.42,1.25c1.7-2.75,5.46,0.61,5.46,0.61c0,0-5.99-4.45-5.47,3.56c3.93,0,7.86,0,11.8,0
	c0.02-1.39,0.03-2.79,0.03-4.19c-0.39,0-0.79,0-1.18,0c0-0.57,0-1.15,0-1.73c0.31,0,0.63,0,0.94,0c-0.42-0.51-0.53-1.26,0.09-1.85
	c0.45-0.44,0.97-0.52,1.42-0.39c-0.46-0.51-0.6-1.29,0.03-1.91c0.45-0.44,0.96-0.53,1.41-0.4c-0.47-0.5-0.62-1.29,0-1.91
	c1.35-1.34,3.34,0.63,2.18,1.91c1.24-0.38,2.53,1.2,1.53,2.3c1.23-0.38,2.48,1.15,1.56,2.24c0.31,0,0.62,0,0.92,0
	c0,0.58,0.01,1.15,0.01,1.73c-0.4,0-0.79,0-1.19,0c0,1.4-0.02,2.79-0.05,4.19c0.91,0,1.82,0,2.74,0c0.02-7.74-1.01-16.62-1.01-24.01
	C49.36,23.3,33.52,23.3,33.52,23.3z M34.48,27.83c-0.35,0-0.36-0.53,0-0.53C34.83,27.31,34.83,27.83,34.48,27.83z M35.04,32.2
	c-0.36,0-0.36-0.53,0-0.53C35.4,31.68,35.4,32.2,35.04,32.2z M36.94,24.04c-0.23,0-0.24-0.35-0.01-0.35
	C37.16,23.69,37.17,24.04,36.94,24.04z M37.44,27.48c-0.23,0-0.24-0.35-0.01-0.35C37.67,27.13,37.68,27.48,37.44,27.48z
	 M39.49,30.55c-0.24,0-0.25-0.35-0.01-0.35C39.72,30.2,39.73,30.55,39.49,30.55z M41.29,26.3c-0.24,0-0.25-0.35-0.01-0.35
	C41.52,25.95,41.53,26.3,41.29,26.3z M41.88,28.17c-0.35,0-0.37-0.53-0.02-0.53C42.22,27.64,42.24,28.17,41.88,28.17z M43.25,42.23
	c-0.24,0-0.24-0.35,0-0.35C43.49,41.88,43.49,42.23,43.25,42.23z M44.42,45.48c-0.36,0-0.36-0.53,0-0.53
	C44.78,44.96,44.78,45.48,44.42,45.48z M45.17,26.47c-0.25,0-0.27-0.35-0.02-0.35C45.4,26.12,45.42,26.47,45.17,26.47z M46.03,29.92
	c-0.24,0-0.25-0.35-0.01-0.35C46.25,29.57,46.26,29.92,46.03,29.92z M46.75,36.2c-0.36,0-0.37-0.53-0.01-0.53
	C47.1,35.67,47.11,36.2,46.75,36.2z M47.4,24.04c0.23,0,0.25,0.35,0.02,0.35C47.19,24.39,47.17,24.04,47.4,24.04z M47.65,32.83
	c0.24,0,0.25,0.35,0.01,0.35C47.42,33.18,47.41,32.83,47.65,32.83z M48.05,37.84c-0.24,0-0.25-0.35-0.01-0.35
	C48.28,37.49,48.29,37.84,48.05,37.84z M55.9,24.39c0.35,0,0.4,0.52,0.05,0.52C55.6,24.92,55.55,24.39,55.9,24.39z M53.82,34.97
	c-0.36,0-0.38-0.53-0.02-0.53C54.16,34.44,54.18,34.97,53.82,34.97z M53.12,31.7c-2.03,0-3.73-1.61-3.84-3.6
	c-0.1-1.99,1.38-3.6,3.36-3.6c1.97,0,3.74,1.61,3.9,3.6C56.69,30.08,55.14,31.7,53.12,31.7z M57.31,36.08
	c-0.24,0-0.25-0.35-0.01-0.35C57.54,35.73,57.55,36.08,57.31,36.08z"/>
<path class="st2" d="M52.93,45.3c0-0.38-0.25-0.53-0.59-0.57c0.01-0.89-1.18-0.89-1.18,0c-0.34,0.04-0.59,0.2-0.59,0.57
	C50.54,46.8,52.91,46.8,52.93,45.3z"/>
<rect x="6.32" y="23.3" class="st1" width="16.46" height="1.77"/>
<rect x="6.31" y="27.49" class="st1" width="24.14" height="0.6"/>
<rect x="6.06" y="30.69" class="st1" width="24.39" height="0.6"/>
<rect x="5.87" y="33.89" class="st1" width="24.58" height="0.6"/>
<rect x="5.62" y="40.3" class="st1" width="24.84" height="0.6"/>
<polygon class="st1" points="30.45,47.31 5.39,47.31 5.37,46.71 30.45,46.71 "/>
<rect x="5.5" y="43.51" class="st1" width="24.95" height="0.6"/>
<rect x="5.74" y="37.1" class="st1" width="24.71" height="0.6"/>
<polygon class="st1" points="30.45,53.71 5.52,53.71 5.48,53.11 30.45,53.11 "/>
<polygon class="st1" points="30.45,56.91 6.21,56.91 6.16,56.31 30.45,56.31 "/>
<rect x="33.52" y="49.91" class="st1" width="24.69" height="0.6"/>
<rect x="33.52" y="56.31" class="st1" width="24.32" height="0.6"/>
<rect x="33.52" y="53.11" class="st1" width="24.71" height="0.6"/>
<polygon class="st1" points="30.45,50.51 5.38,50.51 5.36,49.91 30.45,49.91 "/>
<path class="st3" d="M2,7c2-1,2-2,2-2h56c0,0,0,1,2,2H2z"/>
<path class="st4" d="M3.64,5.76L59,5.5L3.92,5.31C3.87,5.43,3.78,5.59,3.64,5.76z"/>
<path class="st4" d="M2.79,6.54L60,6.5L3.33,6.1C3.19,6.24,3.01,6.38,2.79,6.54z"/>
<path class="st1" d="M8.75,16.25c0,0.21-0.03,0.37-0.08,0.47c-0.05,0.1-0.14,0.16-0.28,0.18c-0.14,0.02-0.33,0.01-0.58-0.03v0.64
	c0.43,0.07,0.76,0.07,1.01,0c0.25-0.07,0.43-0.21,0.53-0.42c0.11-0.21,0.16-0.5,0.16-0.86v-4.17H8.75V16.25z"/>
<path class="st1" d="M13.41,12.29c-0.3-0.18-0.66-0.27-1.08-0.27c-0.41,0-0.77,0.09-1.07,0.27c-0.3,0.18-0.53,0.44-0.7,0.77
	c-0.16,0.33-0.24,0.73-0.24,1.19c0,0.46,0.08,0.85,0.24,1.19c0.16,0.33,0.4,0.59,0.7,0.77c0.3,0.18,0.66,0.27,1.07,0.27
	c0.42,0,0.78-0.09,1.08-0.27c0.3-0.18,0.53-0.44,0.7-0.77c0.16-0.33,0.25-0.73,0.25-1.19c0-0.46-0.08-0.85-0.24-1.18
	C13.94,12.73,13.71,12.47,13.41,12.29z M13.25,15.44c-0.22,0.28-0.53,0.41-0.92,0.41c-0.39,0-0.69-0.14-0.91-0.41
	c-0.22-0.28-0.33-0.67-0.33-1.2c0-0.52,0.11-0.92,0.33-1.19c0.22-0.27,0.53-0.41,0.91-0.41c0.39,0,0.7,0.14,0.92,0.41
	c0.22,0.27,0.33,0.67,0.33,1.19C13.58,14.77,13.47,15.17,13.25,15.44z"/>
<polygon class="st1" points="17.53,12.07 16.3,14.04 15.07,12.07 14.19,12.07 15.92,14.7 15.92,16.43 16.69,16.43 16.69,14.71 
	18.41,12.07 "/>
<path class="st1" d="M20.48,12.07h-1.84v4.36h0.77v-1.82h1.07c0.45,0,0.81-0.11,1.06-0.34c0.26-0.23,0.38-0.54,0.38-0.92
	c0-0.39-0.13-0.7-0.38-0.93C21.3,12.19,20.94,12.07,20.48,12.07z M20.99,13.83C20.86,13.94,20.66,14,20.39,14h-0.98v-1.31h0.98
	c0.27,0,0.48,0.06,0.61,0.17c0.13,0.11,0.2,0.27,0.2,0.49C21.19,13.56,21.13,13.72,20.99,13.83z"/>
<rect x="22.61" y="12.07" class="st1" width="0.77" height="4.36"/>
<polygon class="st1" points="27.84,12.07 26.94,12.07 25.84,13.63 24.74,12.07 23.84,12.07 25.4,14.21 23.78,16.43 24.68,16.43 
	25.84,14.8 27,16.43 27.89,16.43 26.27,14.22 "/>
<polygon class="st1" points="28.3,16.43 31.13,16.43 31.13,15.81 29.05,15.81 29.05,14.53 31.01,14.53 31.01,13.9 29.05,13.9 
	29.05,12.69 31.13,12.69 31.13,12.07 28.3,12.07 "/>
<polygon class="st1" points="32.61,12.07 31.84,12.07 31.84,16.43 34.59,16.43 34.59,15.78 32.61,15.78 "/>
<path class="st1" d="M38.13,14.72c-0.07-0.13-0.17-0.25-0.31-0.34c-0.14-0.1-0.3-0.18-0.49-0.25c-0.19-0.07-0.41-0.13-0.66-0.18
	c-0.21-0.05-0.39-0.11-0.53-0.16c-0.14-0.05-0.24-0.12-0.3-0.2c-0.07-0.08-0.1-0.18-0.1-0.29c0-0.2,0.08-0.36,0.24-0.48
	c0.16-0.11,0.38-0.17,0.65-0.17c0.23,0,0.44,0.04,0.65,0.11c0.21,0.08,0.41,0.19,0.6,0.35l0.26-0.58c-0.12-0.11-0.25-0.2-0.41-0.28
	c-0.16-0.08-0.33-0.13-0.52-0.17c-0.19-0.04-0.38-0.06-0.58-0.06c-0.33,0-0.62,0.06-0.86,0.17c-0.24,0.11-0.43,0.27-0.57,0.47
	c-0.14,0.2-0.2,0.43-0.2,0.69c0,0.19,0.03,0.35,0.1,0.49c0.07,0.14,0.16,0.25,0.29,0.35c0.13,0.1,0.29,0.18,0.48,0.25
	c0.19,0.07,0.41,0.13,0.66,0.18c0.21,0.05,0.39,0.1,0.53,0.15c0.14,0.05,0.25,0.12,0.32,0.19c0.07,0.08,0.11,0.17,0.11,0.28
	c0,0.19-0.08,0.34-0.24,0.45c-0.16,0.11-0.39,0.16-0.68,0.16c-0.27,0-0.51-0.04-0.73-0.11c-0.22-0.07-0.44-0.19-0.66-0.35
	l-0.26,0.57c0.13,0.11,0.28,0.2,0.46,0.28c0.17,0.08,0.36,0.14,0.56,0.17c0.2,0.04,0.41,0.06,0.63,0.06c0.35,0,0.65-0.05,0.9-0.16
	c0.25-0.1,0.45-0.25,0.58-0.45c0.14-0.19,0.2-0.42,0.2-0.68C38.23,15.01,38.2,14.85,38.13,14.72z"/>
<path class="st1" d="M42.84,12.28c-0.32-0.17-0.7-0.25-1.16-0.25h-1.42v4.36h1.42c0.45,0,0.83-0.09,1.15-0.26
	c0.32-0.17,0.56-0.42,0.73-0.74c0.17-0.32,0.25-0.72,0.25-1.18c0-0.46-0.08-0.85-0.25-1.18S43.16,12.45,42.84,12.28z M42.89,15.51
	c-0.28,0.29-0.69,0.44-1.24,0.44h-0.91v-3.5h0.91c1.1,0,1.65,0.58,1.65,1.74C43.3,14.78,43.17,15.22,42.89,15.51z"/>
<path class="st1" d="M46.05,12.03l-1.87,4.36h0.51l0.47-1.12h2.22l0.47,1.12h0.5l-1.87-4.36H46.05z M45.33,14.85l0.94-2.24
	l0.93,2.24H45.33z"/>
<rect x="48.98" y="12.03" class="st1" width="0.49" height="4.36"/>
<polygon class="st1" points="51.01,12.03 50.52,12.03 50.52,16.38 53.14,16.38 53.14,15.95 51.01,15.95 "/>
<polygon class="st1" points="56.23,12.03 55.67,12.03 54.32,14.17 52.97,12.03 52.4,12.03 54.07,14.61 54.07,16.38 54.56,16.38 
	54.56,14.62 "/>
</svg>
