<?xml version="1.0" encoding="utf-8"?>
<!-- Generator: Adobe Illustrator 24.1.2, SVG Export Plug-In . SVG Version: 6.00 Build 0)  -->
<svg version="1.1" id="Layer_1" xmlns="http://www.w3.org/2000/svg" xmlns:xlink="http://www.w3.org/1999/xlink" x="0px" y="0px"
	 width="64px" height="64px" viewBox="0 0 64 64" style="enable-background:new 0 0 64 64;" xml:space="preserve">
<style type="text/css">
	.st0{fill:url(#SVGID_1_);}
	.st1{fill:#FFFFFF;}
</style>
<linearGradient id="SVGID_1_" gradientUnits="userSpaceOnUse" x1="32" y1="62" x2="32" y2="2">
	<stop  offset="0" style="stop-color:#FF6A00"/>
	<stop  offset="0.1132" style="stop-color:#FF7400"/>
	<stop  offset="0.4147" style="stop-color:#FF8800"/>
	<stop  offset="0.7125" style="stop-color:#FF9500"/>
	<stop  offset="1" style="stop-color:#FF9900"/>
</linearGradient>
<path class="st0" d="M62,50c0,6.6-5.4,12-12,12H14C7.4,62,2,56.6,2,50V14C2,7.4,7.4,2,14,2h36c6.6,0,12,5.4,12,12V50z"/>
<path class="st1" d="M33.47,40.89c0,2.16,0,4.09,0,4.09H15.05V16.51h18.42c0-0.03,0,2.93,0,6.6h2.24v-6.7
	c0-2.41-2.04-4.41-4.58-4.41H17.29c-2.54,0-4.58,2.01-4.58,4.41v31.18c0,2.51,2.04,4.41,4.58,4.41h13.84c2.54,0,4.58-2.01,4.58-4.41
	v-6.7H33.47z M21.97,13.6h4.48c0.31,0,0.61,0.2,0.61,0.6c0,0.3-0.3,0.6-0.61,0.6h-4.48c-0.3,0-0.61-0.2-0.61-0.6
	C21.46,13.91,21.67,13.6,21.97,13.6z M24.21,49.89c-0.81,0-1.43-0.6-1.43-1.3c0-0.7,0.61-1.3,1.43-1.3c0.81,0,1.43,0.6,1.43,1.3
	C25.64,49.29,25.03,49.89,24.21,49.89z"/>
<path class="st1" d="M26.94,26.41c-0.9-0.52-1.97-0.78-3.22-0.78c-1.25,0-2.32,0.26-3.23,0.78c-0.91,0.52-1.61,1.25-2.1,2.21
	c-0.5,0.95-0.74,2.08-0.74,3.37c0,1.3,0.25,2.43,0.74,3.38c0.49,0.95,1.19,1.69,2.1,2.22c0.91,0.52,1.98,0.79,3.23,0.79
	c1.24,0,2.32-0.26,3.22-0.79c0.9-0.52,1.6-1.26,2.08-2.22c0.49-0.95,0.73-2.08,0.73-3.38c0-1.29-0.24-2.41-0.73-3.37
	C28.54,27.66,27.85,26.93,26.94,26.41z M26.16,35.17c-0.6,0.73-1.41,1.09-2.43,1.09c-1.04,0-1.85-0.36-2.44-1.08
	c-0.59-0.72-0.89-1.79-0.89-3.19c0-1.4,0.3-2.45,0.89-3.17c0.59-0.72,1.41-1.07,2.44-1.07c1.02,0,1.83,0.36,2.43,1.07
	c0.6,0.71,0.9,1.77,0.9,3.17C27.06,33.38,26.76,34.44,26.16,35.17z"/>
<polygon class="st1" points="31.89,38.21 34.58,38.21 34.58,32.98 39.91,32.98 39.91,30.83 34.58,30.83 34.58,27.95 40.26,27.95 
	40.26,25.79 31.89,25.79 "/>
<polygon class="st1" points="50.35,27.95 50.35,25.79 41.97,25.79 41.97,38.21 44.66,38.21 44.66,32.98 50,32.98 50,30.83 
	44.66,30.83 44.66,27.95 "/>
</svg>
