<?xml version="1.0" encoding="utf-8"?>
<!-- Generator: Adobe Illustrator 24.1.2, SVG Export Plug-In . SVG Version: 6.00 Build 0)  -->
<svg version="1.1" id="Layer_1" xmlns="http://www.w3.org/2000/svg" xmlns:xlink="http://www.w3.org/1999/xlink" x="0px" y="0px"
	 width="64px" height="64px" viewBox="0 0 64 64" style="enable-background:new 0 0 64 64;" xml:space="preserve">
<style type="text/css">
	.st0{fill:#99A8AE;}
	.st1{fill:#CFD8DD;}
	.st2{fill:#95C539;}
	.st3{fill:#302C3B;}
	.st4{fill:#E6EBEF;}
	.st5{fill:url(#SVGID_1_);}
	.st6{fill:#F2F5F7;}
	.st7{fill:url(#SVGID_2_);}
	.st8{fill:url(#SVGID_3_);}
	.st9{fill:#FFFFFF;}
	.st10{fill:#E81C27;}
	.st11{fill:#4E5E67;}
	.st12{fill:#6F9529;}
	.st13{fill:#1A1626;}
</style>
<rect x="36.06" y="6" transform="matrix(0.9398 -0.3418 0.3418 0.9398 0.4725 16.2225)" class="st0" width="20.43" height="1.53"/>
<path class="st1" d="M56.31,4.48c-0.66,0.24-1.39-0.1-1.63-0.76c-0.24-0.66,0.1-1.4,0.76-1.64c0.66-0.24,1.39,0.1,1.64,0.76
	C57.31,3.5,56.97,4.24,56.31,4.48z"/>
<rect x="10.15" y="13.74" transform="matrix(0.9396 -0.3422 0.3422 0.9396 -3.5829 9.2128)" class="st1" width="28.34" height="2.04"/>
<path class="st0" d="M10.74,21.88c-1.06,0.39-2.23-0.16-2.62-1.22c-0.38-1.06,0.16-2.23,1.22-2.62c1.06-0.39,2.23,0.16,2.62,1.22
	C12.35,20.32,11.8,21.49,10.74,21.88z"/>
<path class="st1" d="M10.39,20.92c-0.53,0.19-1.12-0.08-1.31-0.61C8.89,19.78,9.16,19.19,9.69,19c0.53-0.19,1.12,0.08,1.31,0.61
	C11.2,20.14,10.92,20.72,10.39,20.92z"/>
<path class="st2" d="M62,55c0,1.99-2.01,4-4,4H6c-1.99,0-4-2.01-4-4V24c0-1.99,2.01-4,4-4h52c1.99,0,4,2.01,4,4V55z"/>
<polygon class="st3" points="17,62 11,62 10,59 18,59 "/>
<polygon class="st3" points="53,62 47,62 46,59 54,59 "/>
<circle class="st4" cx="55" cy="47" r="5"/>
<linearGradient id="SVGID_1_" gradientUnits="userSpaceOnUse" x1="55" y1="50.75" x2="55" y2="43.25">
	<stop  offset="0" style="stop-color:#302C3B"/>
	<stop  offset="0.3779" style="stop-color:#454854"/>
	<stop  offset="0.7557" style="stop-color:#555E67"/>
	<stop  offset="1" style="stop-color:#5B666E"/>
</linearGradient>
<circle class="st5" cx="55" cy="47" r="3.75"/>
<path class="st6" d="M55.48,44.82c0,0.13-0.11,0.24-0.24,0.24h-0.48c-0.13,0-0.24-0.11-0.24-0.24v-1.45c0-0.13,0.11-0.24,0.24-0.24
	h0.48c0.13,0,0.24,0.11,0.24,0.24V44.82z"/>
<circle class="st4" cx="43" cy="47" r="5"/>
<linearGradient id="SVGID_2_" gradientUnits="userSpaceOnUse" x1="43" y1="50.75" x2="43" y2="43.25">
	<stop  offset="0" style="stop-color:#302C3B"/>
	<stop  offset="0.3779" style="stop-color:#454854"/>
	<stop  offset="0.7557" style="stop-color:#555E67"/>
	<stop  offset="1" style="stop-color:#5B666E"/>
</linearGradient>
<circle class="st7" cx="43" cy="47" r="3.75"/>
<path class="st6" d="M45.18,47.48c-0.13,0-0.24-0.11-0.24-0.24v-0.48c0-0.13,0.11-0.24,0.24-0.24h1.45c0.13,0,0.24,0.11,0.24,0.24
	v0.48c0,0.13-0.11,0.24-0.24,0.24H45.18z"/>
<path class="st4" d="M34.54,43.46c1.95,1.95,1.95,5.12,0,7.07c-1.95,1.95-5.12,1.95-7.07,0c-1.95-1.95-1.95-5.12,0-7.07
	C29.42,41.51,32.58,41.51,34.54,43.46z"/>
<linearGradient id="SVGID_3_" gradientUnits="userSpaceOnUse" x1="31.0003" y1="50.7509" x2="31.0003" y2="43.2494">
	<stop  offset="0" style="stop-color:#302C3B"/>
	<stop  offset="0.3779" style="stop-color:#454854"/>
	<stop  offset="0.7557" style="stop-color:#555E67"/>
	<stop  offset="1" style="stop-color:#5B666E"/>
</linearGradient>
<circle class="st8" cx="31" cy="47" r="3.75"/>
<path class="st6" d="M29.8,45.12c0.1,0.09,0.1,0.25,0,0.34l-0.34,0.34c-0.09,0.09-0.25,0.09-0.34,0l-1.03-1.03
	c-0.1-0.09-0.1-0.25,0-0.34l0.34-0.34c0.09-0.09,0.25-0.09,0.34,0L29.8,45.12z"/>
<path class="st9" d="M57.76,35.77H28.24c-0.69,0-1.24-0.55-1.24-1.23v-6.07c0-0.68,0.56-1.23,1.24-1.23h29.51
	c0.69,0,1.24,0.55,1.24,1.23v6.07C59,35.21,58.44,35.77,57.76,35.77z"/>
<path class="st4" d="M59,29.67H27v-1.25c0-0.66,0.54-1.19,1.2-1.19H57.8c0.67,0,1.2,0.53,1.2,1.19V29.67z"/>
<polygon class="st10" points="50.38,35.77 47.92,35.77 49.15,27.23 "/>
<rect x="28.85" y="27.23" class="st11" width="0.62" height="2.44"/>
<rect x="31.15" y="27.23" class="st11" width="0.62" height="2.44"/>
<rect x="33.46" y="27.23" class="st11" width="0.62" height="2.44"/>
<rect x="35.77" y="27.23" class="st11" width="0.62" height="2.44"/>
<rect x="38.08" y="27.23" class="st11" width="0.62" height="2.44"/>
<rect x="40.38" y="27.23" class="st11" width="0.62" height="2.44"/>
<rect x="42.69" y="27.23" class="st11" width="0.62" height="2.44"/>
<rect x="45" y="27.23" class="st11" width="0.62" height="2.44"/>
<rect x="47.31" y="27.23" class="st11" width="0.62" height="2.44"/>
<rect x="49.62" y="27.23" class="st11" width="0.62" height="2.44"/>
<rect x="51.92" y="27.23" class="st11" width="0.62" height="2.44"/>
<rect x="54.23" y="27.23" class="st11" width="0.62" height="2.44"/>
<rect x="56.54" y="27.23" class="st11" width="0.62" height="2.44"/>
<path class="st12" d="M24,26v27c0,1.52-2,1.52-2,0V26C22,24.48,24,24.48,24,26z"/>
<path class="st12" d="M20,26v27c0,1.52-2,1.52-2,0V26C18,24.48,20,24.48,20,26z"/>
<path class="st12" d="M16,26v27c0,1.52-2,1.52-2,0V26C14,24.48,16,24.48,16,26z"/>
<path class="st12" d="M12,26v27c0,1.52-2,1.52-2,0V26C10,24.48,12,24.48,12,26z"/>
<path class="st12" d="M8,26v27c0,1.52-2,1.52-2,0V26C6,24.48,8,24.48,8,26z"/>
<path class="st13" d="M24,35v9c0,1.52-2,1.52-2,0v-9C22,33.48,24,33.48,24,35z"/>
<path class="st13" d="M20,31v17c0,1.52-2,1.52-2,0V31C18,29.48,20,29.48,20,31z"/>
<path class="st13" d="M16,29v21c0,1.52-2,1.52-2,0V29C14,27.48,16,27.48,16,29z"/>
<path class="st13" d="M12,31v17c0,1.52-2,1.52-2,0V31C10,29.48,12,29.48,12,31z"/>
<path class="st13" d="M8,35v9c0,1.52-2,1.52-2,0v-9C6,33.48,8,33.48,8,35z"/>
</svg>
