<?xml version="1.0" encoding="utf-8"?>
<!-- Generator: Adobe Illustrator 24.1.2, SVG Export Plug-In . SVG Version: 6.00 Build 0)  -->
<svg version="1.1" id="Layer_1" xmlns="http://www.w3.org/2000/svg" xmlns:xlink="http://www.w3.org/1999/xlink" x="0px" y="0px"
	 width="64px" height="64px" viewBox="0 0 64 64" style="enable-background:new 0 0 64 64;" xml:space="preserve">
<style type="text/css">
	.st0{fill:url(#SVGID_1_);}
	.st1{fill:url(#SVGID_2_);}
	.st2{fill:url(#SVGID_3_);}
	.st3{fill:url(#SVGID_4_);}
	.st4{fill:url(#SVGID_5_);}
	.st5{fill:url(#SVGID_6_);}
	.st6{fill:url(#SVGID_7_);}
	.st7{fill:url(#SVGID_8_);}
	.st8{fill:url(#SVGID_9_);}
</style>
<linearGradient id="SVGID_1_" gradientUnits="userSpaceOnUse" x1="32" y1="2.9713" x2="32" y2="65.1415">
	<stop  offset="0" style="stop-color:#FFD900"/>
	<stop  offset="0.3139" style="stop-color:#FFCF00"/>
	<stop  offset="0.8546" style="stop-color:#FFB300"/>
	<stop  offset="1" style="stop-color:#FFAA00"/>
</linearGradient>
<path class="st0" d="M32,17c-8.28,0-15,6.72-15,15s6.71,15,15,15c8.28,0,15-6.72,15-15S40.28,17,32,17z M32,42
	c-5.52,0-10-4.48-10-10s4.48-10,10-10c5.52,0,10,4.48,10,10S37.52,42,32,42z"/>
<linearGradient id="SVGID_2_" gradientUnits="userSpaceOnUse" x1="31.9999" y1="2.9713" x2="31.9999" y2="65.1415">
	<stop  offset="0" style="stop-color:#FFD900"/>
	<stop  offset="0.3139" style="stop-color:#FFCF00"/>
	<stop  offset="0.8546" style="stop-color:#FFB300"/>
	<stop  offset="1" style="stop-color:#FFAA00"/>
</linearGradient>
<circle class="st1" cx="32" cy="9" r="3"/>
<linearGradient id="SVGID_3_" gradientUnits="userSpaceOnUse" x1="31.9999" y1="2.9713" x2="31.9999" y2="65.1415">
	<stop  offset="0" style="stop-color:#FFD900"/>
	<stop  offset="0.3139" style="stop-color:#FFCF00"/>
	<stop  offset="0.8546" style="stop-color:#FFB300"/>
	<stop  offset="1" style="stop-color:#FFAA00"/>
</linearGradient>
<circle class="st2" cx="32" cy="55" r="3"/>
<linearGradient id="SVGID_4_" gradientUnits="userSpaceOnUse" x1="48.2636" y1="2.9713" x2="48.2636" y2="65.1415">
	<stop  offset="0" style="stop-color:#FFD900"/>
	<stop  offset="0.3139" style="stop-color:#FFCF00"/>
	<stop  offset="0.8546" style="stop-color:#FFB300"/>
	<stop  offset="1" style="stop-color:#FFAA00"/>
</linearGradient>
<path class="st3" d="M46.14,13.62c-1.17,1.17-1.17,3.07,0,4.24c1.17,1.17,3.07,1.17,4.24,0c1.17-1.17,1.17-3.07,0-4.24
	C49.21,12.44,47.31,12.44,46.14,13.62z"/>
<linearGradient id="SVGID_5_" gradientUnits="userSpaceOnUse" x1="15.7366" y1="2.9713" x2="15.7366" y2="65.1415">
	<stop  offset="0" style="stop-color:#FFD900"/>
	<stop  offset="0.3139" style="stop-color:#FFCF00"/>
	<stop  offset="0.8546" style="stop-color:#FFB300"/>
	<stop  offset="1" style="stop-color:#FFAA00"/>
</linearGradient>
<path class="st4" d="M13.62,46.14c-1.17,1.17-1.17,3.07,0,4.24c1.17,1.17,3.07,1.17,4.24,0c1.17-1.17,1.17-3.07,0-4.24
	C16.69,44.97,14.79,44.97,13.62,46.14z"/>
<linearGradient id="SVGID_6_" gradientUnits="userSpaceOnUse" x1="54.9999" y1="2.9713" x2="54.9999" y2="65.1415">
	<stop  offset="0" style="stop-color:#FFD900"/>
	<stop  offset="0.3139" style="stop-color:#FFCF00"/>
	<stop  offset="0.8546" style="stop-color:#FFB300"/>
	<stop  offset="1" style="stop-color:#FFAA00"/>
</linearGradient>
<circle class="st5" cx="55" cy="32" r="3"/>
<linearGradient id="SVGID_7_" gradientUnits="userSpaceOnUse" x1="9.0001" y1="2.9713" x2="9.0001" y2="65.1415">
	<stop  offset="0" style="stop-color:#FFD900"/>
	<stop  offset="0.3139" style="stop-color:#FFCF00"/>
	<stop  offset="0.8546" style="stop-color:#FFB300"/>
	<stop  offset="1" style="stop-color:#FFAA00"/>
</linearGradient>
<circle class="st6" cx="9" cy="32" r="3"/>
<linearGradient id="SVGID_8_" gradientUnits="userSpaceOnUse" x1="48.2635" y1="2.9713" x2="48.2635" y2="65.1415">
	<stop  offset="0" style="stop-color:#FFD900"/>
	<stop  offset="0.3139" style="stop-color:#FFCF00"/>
	<stop  offset="0.8546" style="stop-color:#FFB300"/>
	<stop  offset="1" style="stop-color:#FFAA00"/>
</linearGradient>
<path class="st7" d="M46.14,46.14c-1.17,1.17-1.17,3.07,0,4.24c1.17,1.17,3.07,1.17,4.24,0c1.17-1.17,1.17-3.07,0-4.24
	C49.21,44.97,47.31,44.97,46.14,46.14z"/>
<linearGradient id="SVGID_9_" gradientUnits="userSpaceOnUse" x1="15.7366" y1="2.9713" x2="15.7366" y2="65.1415">
	<stop  offset="0" style="stop-color:#FFD900"/>
	<stop  offset="0.3139" style="stop-color:#FFCF00"/>
	<stop  offset="0.8546" style="stop-color:#FFB300"/>
	<stop  offset="1" style="stop-color:#FFAA00"/>
</linearGradient>
<path class="st8" d="M17.86,17.86c1.17-1.17,1.17-3.07,0-4.24c-1.17-1.17-3.07-1.17-4.24,0c-1.17,1.17-1.17,3.07,0,4.24
	C14.79,19.03,16.69,19.03,17.86,17.86z"/>
</svg>
