<?xml version="1.0" encoding="utf-8"?>
<!-- Generator: Adobe Illustrator 24.1.2, SVG Export Plug-In . SVG Version: 6.00 Build 0)  -->
<svg version="1.1" id="Layer_1" xmlns="http://www.w3.org/2000/svg" xmlns:xlink="http://www.w3.org/1999/xlink" x="0px" y="0px"
	 width="64px" height="64px" viewBox="0 0 64 64" style="enable-background:new 0 0 64 64;" xml:space="preserve">
<style type="text/css">
	.st0{fill:url(#SVGID_1_);}
	.st1{fill:url(#SVGID_2_);}
	.st2{fill:url(#SVGID_3_);}
	.st3{fill:url(#SVGID_4_);}
	.st4{fill:url(#SVGID_5_);}
	.st5{fill:url(#SVGID_6_);}
	.st6{fill:url(#SVGID_7_);}
	.st7{fill:url(#SVGID_8_);}
	.st8{fill:url(#SVGID_9_);}
</style>
<linearGradient id="SVGID_1_" gradientUnits="userSpaceOnUse" x1="32" y1="64.2329" x2="32" y2="4.1807" gradientTransform="matrix(1 0 0 -1 0 66)">
	<stop  offset="0" style="stop-color:#FFD900"/>
	<stop  offset="0.2875" style="stop-color:#FFD500"/>
	<stop  offset="0.5853" style="stop-color:#FFC800"/>
	<stop  offset="0.8868" style="stop-color:#FFB400"/>
	<stop  offset="1" style="stop-color:#FFAA00"/>
</linearGradient>
<path class="st0" d="M32,50.54c-1.65,0-3,1.35-3,3V59c0,1.65,1.35,3,3,3c1.65,0,3-1.35,3-3v-5.46C35,51.89,33.65,50.54,32,50.54z"/>
<linearGradient id="SVGID_2_" gradientUnits="userSpaceOnUse" x1="32" y1="64.2334" x2="32" y2="4.1813" gradientTransform="matrix(1 0 0 -1 0 66)">
	<stop  offset="0" style="stop-color:#FFD900"/>
	<stop  offset="0.2875" style="stop-color:#FFD500"/>
	<stop  offset="0.5853" style="stop-color:#FFC800"/>
	<stop  offset="0.8868" style="stop-color:#FFB400"/>
	<stop  offset="1" style="stop-color:#FFAA00"/>
</linearGradient>
<path class="st1" d="M32,13.46c1.65,0,3-1.35,3-3V5c0-1.65-1.35-3-3-3c-1.65,0-3,1.35-3,3v5.46C29,12.11,30.35,13.46,32,13.46z"/>
<linearGradient id="SVGID_3_" gradientUnits="userSpaceOnUse" x1="56.2695" y1="64.2358" x2="56.2695" y2="4.1788" gradientTransform="matrix(1 0 0 -1 0 66)">
	<stop  offset="0" style="stop-color:#FFD900"/>
	<stop  offset="0.2875" style="stop-color:#FFD500"/>
	<stop  offset="0.5853" style="stop-color:#FFC800"/>
	<stop  offset="0.8868" style="stop-color:#FFB400"/>
	<stop  offset="1" style="stop-color:#FFAA00"/>
</linearGradient>
<path class="st2" d="M59,29h-5.46c-1.65,0-3,1.35-3,3c0,1.65,1.35,3,3,3H59c1.65,0,3-1.35,3-3C62,30.35,60.65,29,59,29z"/>
<linearGradient id="SVGID_4_" gradientUnits="userSpaceOnUse" x1="7.7305" y1="64.2358" x2="7.7305" y2="4.1788" gradientTransform="matrix(1 0 0 -1 0 66)">
	<stop  offset="0" style="stop-color:#FFD900"/>
	<stop  offset="0.2875" style="stop-color:#FFD500"/>
	<stop  offset="0.5853" style="stop-color:#FFC800"/>
	<stop  offset="0.8868" style="stop-color:#FFB400"/>
	<stop  offset="1" style="stop-color:#FFAA00"/>
</linearGradient>
<path class="st3" d="M13.46,32c0-1.65-1.35-3-3-3H5c-1.65,0-3,1.35-3,3c0,1.65,1.35,3,3,3h5.46C12.11,35,13.46,33.65,13.46,32z"/>
<linearGradient id="SVGID_5_" gradientUnits="userSpaceOnUse" x1="14.8389" y1="64.2334" x2="14.8389" y2="4.1813" gradientTransform="matrix(1 0 0 -1 0 66)">
	<stop  offset="0" style="stop-color:#FFD900"/>
	<stop  offset="0.2875" style="stop-color:#FFD500"/>
	<stop  offset="0.5853" style="stop-color:#FFC800"/>
	<stop  offset="0.8868" style="stop-color:#FFB400"/>
	<stop  offset="1" style="stop-color:#FFAA00"/>
</linearGradient>
<path class="st4" d="M14.65,45.11l-3.86,3.86c-1.17,1.17-1.17,3.08,0,4.24c1.17,1.17,3.08,1.17,4.24,0l3.86-3.86
	c1.17-1.17,1.17-3.07,0-4.24C17.73,43.94,15.81,43.94,14.65,45.11z"/>
<linearGradient id="SVGID_6_" gradientUnits="userSpaceOnUse" x1="49.162" y1="64.2334" x2="49.162" y2="4.1813" gradientTransform="matrix(1 0 0 -1 0 66)">
	<stop  offset="0" style="stop-color:#FFD900"/>
	<stop  offset="0.2875" style="stop-color:#FFD500"/>
	<stop  offset="0.5853" style="stop-color:#FFC800"/>
	<stop  offset="0.8868" style="stop-color:#FFB400"/>
	<stop  offset="1" style="stop-color:#FFAA00"/>
</linearGradient>
<path class="st5" d="M49.35,18.89l3.86-3.86c1.17-1.17,1.17-3.08,0-4.24c-1.17-1.17-3.07-1.17-4.24,0l-3.86,3.86
	c-1.17,1.17-1.17,3.08,0,4.24S48.19,20.06,49.35,18.89z"/>
<linearGradient id="SVGID_7_" gradientUnits="userSpaceOnUse" x1="49.162" y1="64.2334" x2="49.162" y2="4.1813" gradientTransform="matrix(1 0 0 -1 0 66)">
	<stop  offset="0" style="stop-color:#FFD900"/>
	<stop  offset="0.2875" style="stop-color:#FFD500"/>
	<stop  offset="0.5853" style="stop-color:#FFC800"/>
	<stop  offset="0.8868" style="stop-color:#FFB400"/>
	<stop  offset="1" style="stop-color:#FFAA00"/>
</linearGradient>
<path class="st6" d="M49.35,45.11c-1.17-1.17-3.08-1.17-4.24,0c-1.17,1.17-1.17,3.08,0,4.24l3.86,3.86c1.17,1.17,3.08,1.17,4.24,0
	c1.17-1.17,1.17-3.08,0-4.24L49.35,45.11z"/>
<linearGradient id="SVGID_8_" gradientUnits="userSpaceOnUse" x1="14.8389" y1="64.2334" x2="14.8389" y2="4.1813" gradientTransform="matrix(1 0 0 -1 0 66)">
	<stop  offset="0" style="stop-color:#FFD900"/>
	<stop  offset="0.2875" style="stop-color:#FFD500"/>
	<stop  offset="0.5853" style="stop-color:#FFC800"/>
	<stop  offset="0.8868" style="stop-color:#FFB400"/>
	<stop  offset="1" style="stop-color:#FFAA00"/>
</linearGradient>
<path class="st7" d="M14.65,18.89c1.17,1.17,3.08,1.17,4.24,0c1.17-1.17,1.17-3.08,0-4.24l-3.86-3.86c-1.17-1.17-3.08-1.17-4.24,0
	c-1.17,1.17-1.17,3.08,0,4.24L14.65,18.89z"/>
<linearGradient id="SVGID_9_" gradientUnits="userSpaceOnUse" x1="32" y1="64.2339" x2="32" y2="4.1808" gradientTransform="matrix(1 0 0 -1 0 66)">
	<stop  offset="0" style="stop-color:#FFD900"/>
	<stop  offset="0.2875" style="stop-color:#FFD500"/>
	<stop  offset="0.5853" style="stop-color:#FFC800"/>
	<stop  offset="0.8868" style="stop-color:#FFB400"/>
	<stop  offset="1" style="stop-color:#FFAA00"/>
</linearGradient>
<path class="st8" d="M32,17c-8.28,0-15,6.72-15,15s6.72,15,15,15c8.28,0,15-6.72,15-15S40.28,17,32,17z M32,42
	c-5.52,0-10-4.48-10-10c0-5.52,4.48-10,10-10c5.52,0,10,4.48,10,10C42,37.52,37.52,42,32,42z"/>
</svg>
