<?xml version="1.0" encoding="utf-8"?>
<!-- Generator: Adobe Illustrator 24.1.2, SVG Export Plug-In . SVG Version: 6.00 Build 0)  -->
<svg version="1.1" id="Layer_1" xmlns="http://www.w3.org/2000/svg" xmlns:xlink="http://www.w3.org/1999/xlink" x="0px" y="0px"
	 width="64px" height="64px" viewBox="0 0 64 64" style="enable-background:new 0 0 64 64;" xml:space="preserve">
<style type="text/css">
	.st0{fill:url(#SVGID_1_);}
	.st1{fill:#FFFFFF;}
</style>
<linearGradient id="SVGID_1_" gradientUnits="userSpaceOnUse" x1="32" y1="2" x2="32" y2="62">
	<stop  offset="0" style="stop-color:#00ABF1"/>
	<stop  offset="0.2292" style="stop-color:#00A7EF"/>
	<stop  offset="0.4667" style="stop-color:#009AE9"/>
	<stop  offset="0.7079" style="stop-color:#0086E0"/>
	<stop  offset="0.9504" style="stop-color:#0069D3"/>
	<stop  offset="1" style="stop-color:#0062D0"/>
</linearGradient>
<path class="st0" d="M62,54c0,4.4-3.6,8-8,8H10c-4.4,0-8-3.6-8-8V10c0-4.4,3.6-8,8-8h44c4.4,0,8,3.6,8,8V54z"/>
<path class="st1" d="M19.24,11.5l-8.27,18h3.97l1.73-3.99h8.39l1.71,3.99h3.92l-8.27-18H19.24z M17.97,22.5l2.91-6.75l2.89,6.75
	H17.97z"/>
<path class="st1" d="M48.06,20.19c0.87-0.3,1.58-0.75,2.09-1.42c0.56-0.73,0.83-1.6,0.83-2.59c0-1.45-0.55-2.59-1.64-3.43
	c-1.09-0.83-2.57-1.25-4.42-1.25h-8.29v18h8.55c1.95,0,3.49-0.44,4.61-1.33c1.12-0.88,1.68-2.09,1.68-3.6
	c0-1.16-0.32-2.13-0.95-2.91C49.93,20.95,49.09,20.47,48.06,20.19z M40.49,14.53h3.76c1.01,0,1.76,0.17,2.25,0.52
	c0.49,0.35,0.73,0.89,0.73,1.63c0,0.73-0.24,1.26-0.72,1.62c-0.48,0.35-1.23,0.53-2.26,0.53h-3.76V14.53z M47.02,25.94
	c-0.48,0.35-1.25,0.53-2.31,0.53h-4.22v-4.6h4.22c1.06,0,1.83,0.19,2.31,0.57c0.48,0.38,0.72,0.96,0.72,1.76
	C47.74,25,47.5,25.58,47.02,25.94z"/>
<path class="st1" d="M21.32,37.58c0.82,0,1.61,0.14,2.35,0.41c0.75,0.27,1.52,0.7,2.31,1.29l1.21-2.76
	c-0.69-0.64-1.56-1.14-2.61-1.49c-1.05-0.35-2.16-0.53-3.33-0.53c-1.79,0-3.35,0.37-4.66,1.11c-1.31,0.74-2.33,1.78-3.03,3.13
	c-0.71,1.35-1.06,2.93-1.06,4.73c0,1.83,0.35,3.42,1.06,4.77c0.71,1.36,1.72,2.4,3.03,3.14c1.32,0.74,2.87,1.11,4.66,1.11
	c1.17,0,2.28-0.18,3.33-0.53c1.05-0.35,1.92-0.85,2.61-1.49l-1.21-2.76c-0.79,0.59-1.56,1.02-2.31,1.3
	c-0.75,0.27-1.53,0.41-2.35,0.41c-1.56,0-2.77-0.51-3.63-1.52c-0.85-1.01-1.28-2.49-1.28-4.43c0-1.94,0.43-3.41,1.28-4.4
	C18.54,38.08,19.75,37.58,21.32,37.58z"/>
<path class="st1" d="M48.67,35.56c-1.41-0.71-3.1-1.06-5.07-1.06h-6.98v18h6.98c1.99,0,3.69-0.36,5.09-1.07
	c1.41-0.72,2.48-1.74,3.22-3.09c0.74-1.34,1.11-2.96,1.11-4.87c0-1.89-0.37-3.5-1.12-4.84C51.15,37.29,50.07,36.27,48.67,35.56z
	 M47.64,47.86c-0.96,0.97-2.4,1.45-4.32,1.45h-2.76V37.68h2.76c3.84,0,5.76,1.93,5.76,5.79C49.08,45.43,48.6,46.89,47.64,47.86z"/>
</svg>
