<?xml version="1.0" encoding="utf-8"?>
<!-- Generator: Adobe Illustrator 24.1.2, SVG Export Plug-In . SVG Version: 6.00 Build 0)  -->
<svg version="1.1" id="Layer_1" xmlns="http://www.w3.org/2000/svg" xmlns:xlink="http://www.w3.org/1999/xlink" x="0px" y="0px"
	 width="64px" height="64px" viewBox="0 0 64 64" style="enable-background:new 0 0 64 64;" xml:space="preserve">
<style type="text/css">
	.st0{fill:url(#SVGID_1_);}
	.st1{fill:#7A848A;}
	.st2{fill:#302C3B;}
	.st3{fill:url(#SVGID_2_);}
	.st4{fill:url(#SVGID_3_);}
</style>
<linearGradient id="SVGID_1_" gradientUnits="userSpaceOnUse" x1="32" y1="62.0002" x2="32" y2="1.9998">
	<stop  offset="0" style="stop-color:#AFB7BA"/>
	<stop  offset="0.1173" style="stop-color:#BAC1C4"/>
	<stop  offset="0.4612" style="stop-color:#D5DADD"/>
	<stop  offset="0.7666" style="stop-color:#E5EAED"/>
	<stop  offset="1" style="stop-color:#EBEFF2"/>
</linearGradient>
<path class="st0" d="M32,62c16.57,0,30-13.43,30-30C62,15.43,48.57,2,32,2C15.43,2,2,15.43,2,32C2,48.57,15.43,62,32,62z"/>
<path class="st1" d="M54.39,44c0.38,0.22,0.52,0.71,0.29,1.1c-0.22,0.39-0.71,0.52-1.1,0.29c-0.39-0.22-0.52-0.71-0.29-1.1
	C53.51,43.91,54.01,43.78,54.39,44z"/>
<path class="st1" d="M10.41,18.61c0.38,0.22,0.52,0.71,0.29,1.1c-0.22,0.38-0.71,0.52-1.1,0.29c-0.38-0.22-0.52-0.71-0.29-1.1
	C9.53,18.52,10.02,18.38,10.41,18.61z"/>
<path class="st1" d="M20,54.39c-0.22,0.38-0.71,0.52-1.1,0.29c-0.38-0.22-0.52-0.71-0.29-1.1c0.22-0.38,0.71-0.52,1.1-0.29
	C20.09,53.52,20.22,54.01,20,54.39z"/>
<path class="st1" d="M45.39,10.41c-0.22,0.38-0.71,0.52-1.1,0.29c-0.38-0.22-0.52-0.71-0.29-1.1c0.22-0.38,0.71-0.52,1.1-0.29
	C45.48,9.53,45.61,10.03,45.39,10.41z"/>
<path class="st1" d="M45.39,53.59c0.22,0.38,0.09,0.88-0.3,1.1c-0.38,0.22-0.88,0.09-1.1-0.29c-0.22-0.38-0.09-0.88,0.29-1.1
	C44.68,53.07,45.17,53.2,45.39,53.59z"/>
<path class="st1" d="M20,9.61c0.22,0.38,0.09,0.88-0.29,1.1c-0.38,0.22-0.88,0.09-1.1-0.29c-0.22-0.38-0.09-0.88,0.29-1.1
	C19.28,9.09,19.78,9.22,20,9.61z"/>
<path class="st1" d="M10.41,45.39c-0.38,0.22-0.88,0.09-1.1-0.29C9.09,44.71,9.22,44.22,9.6,44c0.39-0.22,0.88-0.09,1.1,0.29
	C10.93,44.68,10.79,45.17,10.41,45.39z"/>
<path class="st1" d="M54.39,20c-0.38,0.22-0.88,0.09-1.1-0.29c-0.22-0.38-0.09-0.88,0.29-1.1c0.38-0.22,0.88-0.09,1.1,0.29
	C54.91,19.28,54.77,19.78,54.39,20z"/>
<polygon class="st2" points="30.52,5.18 29.88,5.18 28.41,6.03 28.41,7 29.43,6.4 29.43,9.3 28.34,9.3 28.34,10.18 31.61,10.18 
	31.61,9.3 30.52,9.3 "/>
<path class="st2" d="M34.71,8.14c0.28-0.3,0.48-0.56,0.59-0.8c0.12-0.24,0.18-0.51,0.18-0.8c0-0.28-0.07-0.52-0.2-0.72
	c-0.14-0.21-0.33-0.36-0.59-0.47c-0.25-0.11-0.55-0.17-0.89-0.17c-0.32,0-0.63,0.05-0.94,0.15c-0.31,0.1-0.56,0.23-0.76,0.41
	l0.35,0.78c0.22-0.16,0.44-0.28,0.66-0.36c0.22-0.08,0.43-0.12,0.64-0.12c0.22,0,0.38,0.05,0.5,0.15c0.12,0.1,0.17,0.24,0.17,0.44
	c0,0.16-0.04,0.32-0.13,0.49c-0.09,0.16-0.21,0.34-0.38,0.53l-1.64,1.75v0.8h3.39V9.31H33.6L34.71,8.14z"/>
<path class="st2" d="M57.17,31.93c0.24-0.08,0.43-0.21,0.57-0.39c0.15-0.2,0.22-0.44,0.22-0.73c0-0.27-0.07-0.5-0.2-0.7
	c-0.14-0.2-0.33-0.35-0.57-0.46c-0.25-0.11-0.54-0.16-0.87-0.16c-0.32,0-0.63,0.05-0.94,0.15c-0.31,0.1-0.56,0.23-0.76,0.4
	l0.34,0.77c0.21-0.16,0.42-0.27,0.64-0.35c0.22-0.08,0.44-0.12,0.65-0.12c0.22,0,0.39,0.05,0.51,0.16c0.12,0.11,0.19,0.26,0.19,0.46
	c0,0.21-0.07,0.36-0.21,0.45c-0.14,0.1-0.35,0.14-0.64,0.14h-0.58v0.83h0.7c0.3,0,0.51,0.05,0.65,0.15c0.13,0.1,0.2,0.26,0.2,0.47
	c0,0.23-0.07,0.39-0.2,0.49c-0.14,0.1-0.35,0.15-0.65,0.15c-0.23,0-0.45-0.04-0.68-0.12c-0.22-0.08-0.44-0.2-0.66-0.36l-0.34,0.77
	c0.2,0.17,0.45,0.3,0.76,0.4c0.31,0.1,0.63,0.15,0.97,0.15c0.56,0,1-0.12,1.32-0.37c0.32-0.25,0.49-0.59,0.49-1.02
	c0-0.32-0.08-0.58-0.25-0.79C57.68,32.13,57.45,32,57.17,31.93z"/>
<path class="st2" d="M32.27,54.66c0.17,0,0.36,0.04,0.57,0.11s0.42,0.19,0.64,0.36l0.35-0.77c-0.2-0.18-0.44-0.31-0.73-0.41
	c-0.28-0.09-0.58-0.14-0.88-0.14c-0.42,0-0.79,0.1-1.1,0.31c-0.31,0.21-0.54,0.5-0.71,0.88c-0.16,0.38-0.25,0.84-0.25,1.38
	c0,0.78,0.17,1.38,0.52,1.8c0.35,0.42,0.84,0.63,1.47,0.63c0.32,0,0.61-0.07,0.86-0.21c0.25-0.14,0.45-0.34,0.59-0.59
	s0.21-0.53,0.21-0.85c0-0.31-0.06-0.58-0.19-0.81c-0.13-0.24-0.3-0.42-0.52-0.56c-0.22-0.13-0.48-0.2-0.76-0.2
	c-0.2,0-0.38,0.04-0.55,0.11c-0.17,0.07-0.31,0.17-0.43,0.3c-0.05,0.05-0.09,0.12-0.13,0.18c0.02-0.46,0.1-0.83,0.26-1.08
	C31.68,54.81,31.93,54.66,32.27,54.66z M31.45,56.8c0.06-0.12,0.15-0.21,0.26-0.27c0.11-0.06,0.24-0.1,0.38-0.1
	c0.22,0,0.4,0.07,0.53,0.21c0.13,0.14,0.2,0.33,0.2,0.57c0,0.23-0.07,0.42-0.2,0.56c-0.13,0.14-0.31,0.21-0.53,0.21
	c-0.14,0-0.27-0.03-0.38-0.1c-0.11-0.07-0.2-0.16-0.26-0.27c-0.06-0.11-0.09-0.25-0.09-0.4S31.39,56.92,31.45,56.8z"/>
<path class="st2" d="M8.99,30.13c-0.34-0.42-0.83-0.63-1.47-0.63c-0.32,0-0.61,0.07-0.86,0.21c-0.25,0.14-0.45,0.34-0.59,0.59
	s-0.22,0.53-0.22,0.85c0,0.31,0.06,0.58,0.19,0.81c0.13,0.24,0.3,0.42,0.52,0.56c0.22,0.13,0.48,0.2,0.76,0.2
	c0.2,0,0.38-0.04,0.55-0.11c0.17-0.07,0.31-0.17,0.43-0.3c0.05-0.05,0.09-0.12,0.13-0.18c-0.02,0.46-0.1,0.82-0.26,1.08
	c-0.18,0.29-0.43,0.43-0.78,0.43c-0.17,0-0.36-0.04-0.56-0.11c-0.2-0.07-0.42-0.19-0.64-0.36l-0.35,0.77
	c0.2,0.18,0.44,0.31,0.73,0.41c0.28,0.09,0.58,0.14,0.88,0.14c0.42,0,0.79-0.1,1.1-0.31c0.31-0.21,0.54-0.5,0.71-0.88
	c0.16-0.38,0.25-0.84,0.25-1.38C9.5,31.15,9.33,30.55,8.99,30.13z M8.22,31.52c-0.06,0.12-0.15,0.21-0.26,0.27
	c-0.11,0.06-0.24,0.1-0.38,0.1c-0.22,0-0.4-0.07-0.53-0.21c-0.13-0.14-0.19-0.33-0.19-0.57c0-0.23,0.06-0.42,0.19-0.56
	c0.13-0.14,0.3-0.21,0.53-0.21c0.14,0,0.27,0.03,0.38,0.1c0.11,0.07,0.2,0.16,0.26,0.27c0.06,0.11,0.09,0.25,0.09,0.4
	S8.29,31.4,8.22,31.52z"/>
<linearGradient id="SVGID_2_" gradientUnits="userSpaceOnUse" x1="-1422.6279" y1="-2510.8809" x2="-1422.6279" y2="-2529.0042" gradientTransform="matrix(0.5 -0.866 -0.866 -0.5 -1432.5016 -2456.241)">
	<stop  offset="0" style="stop-color:#272430"/>
	<stop  offset="0.5663" style="stop-color:#3C4049"/>
	<stop  offset="1" style="stop-color:#4E585E"/>
</linearGradient>
<path class="st3" d="M46.59,38.88c0.51,0.29-0.82,2.6-1.33,2.31L31,33.73c-0.77-0.44-0.94-1.58-0.39-2.54
	c0.55-0.96,1.62-1.37,2.39-0.93L46.59,38.88z"/>
<linearGradient id="SVGID_3_" gradientUnits="userSpaceOnUse" x1="221.9464" y1="-1381.9077" x2="221.9464" y2="-1356.9418" gradientTransform="matrix(1 0 0 -1 -189.9473 -1346.8721)">
	<stop  offset="0" style="stop-color:#4E585E"/>
	<stop  offset="0.4337" style="stop-color:#3C4049"/>
	<stop  offset="1" style="stop-color:#272430"/>
</linearGradient>
<path class="st4" d="M33.34,32c0,0.74-0.6,1.34-1.34,1.34c-0.74,0-1.34-0.6-1.34-1.34l0.28-20.49c0.08-0.55,2.04-0.55,2.11,0
	L33.34,32z"/>
</svg>
