<?xml version="1.0" encoding="utf-8"?>
<!-- Generator: Adobe Illustrator 24.1.2, SVG Export Plug-In . SVG Version: 6.00 Build 0)  -->
<svg version="1.1" id="Layer_1" xmlns="http://www.w3.org/2000/svg" xmlns:xlink="http://www.w3.org/1999/xlink" x="0px" y="0px"
	 width="64px" height="64px" viewBox="0 0 64 64" style="enable-background:new 0 0 64 64;" xml:space="preserve">
<style type="text/css">
	.st0{fill:url(#SVGID_1_);}
	.st1{fill:#B08863;}
	.st2{opacity:0.3;fill:#FFFFFF;}
</style>
<radialGradient id="SVGID_1_" cx="145.0847" cy="4.8374" r="23.7779" gradientTransform="matrix(1.1763 -0.0273 0.0484 1.4643 -136.0241 24.6263)" gradientUnits="userSpaceOnUse">
	<stop  offset="0.4485" style="stop-color:#EBC199"/>
	<stop  offset="0.7052" style="stop-color:#E9BF97"/>
	<stop  offset="0.8287" style="stop-color:#E3B88F"/>
	<stop  offset="0.9235" style="stop-color:#D8AB82"/>
	<stop  offset="1" style="stop-color:#C99B71"/>
</radialGradient>
<path class="st0" d="M52.3,33.6c-0.96-3.95-5.33-4.48-7.17-3.4c-0.24-4.13-7.09-5.01-8.49-2.85c0,0,0-15.59,0-22.4
	c0-5.7-9.19-5.47-9.19,0c0,6.81,0,21.59,0,21.59c-3.58-1.23-7.66,0.61-7.93,3.56c-0.11,1.22-0.47,4.61-0.5,5.72c0,0,0,0,0,0
	c-3.77,1.52-9.44,2.75-8.04,6.43c1.86,4.9,3.05,10.61,6.7,12.15c4.07,1.72,5.91,3.83,5.91,6.32c0,4.59,22.94,4.18,22.94-0.07
	C46.52,48.42,56.68,51.62,52.3,33.6z"/>
<path class="st1" d="M53.04,33.42c-0.45-1.84-1.63-3.25-3.33-3.97c-1.3-0.55-2.79-0.65-4-0.31c-0.49-1.62-1.94-2.86-4.03-3.42
	c-1.4-0.38-3.05-0.39-4.28,0.12V4.95c0-3.4-2.74-4.95-5.28-4.95c-2.7,0-5.43,1.7-5.43,4.95v20.6c-1.97-0.39-4.06-0.04-5.65,0.99
	c-1.34,0.87-2.15,2.11-2.27,3.49c-0.03,0.31-0.07,0.77-0.13,1.3c-0.13,1.28-0.29,2.95-0.35,3.96c-0.47,0.18-0.97,0.36-1.47,0.54
	c-2.76,1-5.61,2.03-6.53,4.02c-0.38,0.82-0.39,1.72-0.02,2.68c0.45,1.19,0.84,2.44,1.21,3.65c1.21,3.92,2.83,7.63,5.9,8.93
	c3.69,1.56,6.2,3.3,6.2,5.62c0-2.35-0.89-5.02-5.62-7.02c-2.42-1.02-3.93-4.4-5.04-7.97c-0.38-1.24-0.78-2.51-1.24-3.74
	c-0.22-0.57-0.22-1.06-0.02-1.5c0.65-1.41,3.31-2.37,5.67-3.22c0.68-0.25,1.35-0.49,1.97-0.74l0.46-0.19l0.01-0.5
	c0.02-0.79,0.22-2.86,0.37-4.37l0.13-1.29c0.08-0.91,0.65-1.74,1.59-2.35c1.47-0.95,3.56-1.17,5.34-0.56l1,0.35V4.95
	c0-2.36,2.03-3.43,3.91-3.43c1.88,0,3.77,1.06,3.77,3.43V29.9l1.39-2.14c0.44-0.68,2.16-1.07,4.01-0.57
	c0.69,0.18,2.97,0.95,3.09,3.05l0.07,1.24l1.07-0.63c0.75-0.44,2.22-0.59,3.6,0c0.88,0.37,2.03,1.19,2.45,2.93
	c2.56,10.54-0.89,13.5-2.5,16.92c-1.07,2.29-2.54,4.88-2.54,9.95c0-4.73,2.86-7.06,3.92-9.3C52.1,47.82,55.72,44.48,53.04,33.42z"/>
<path class="st1" d="M19.83,35.42c0,2.72,0.55,6.19-2.77,10.58c2.29-5.83,1.01-7.56,1.21-10.17C18.3,35.45,19.83,35.05,19.83,35.42z
	"/>
<path class="st1" d="M27.26,32.13c0.6-3.18-0.6-2.71-0.59-5.92c0-0.38,1.58,0.05,1.58,0.42C28.27,29.36,28.49,29.75,27.26,32.13z"/>
<path class="st1" d="M36.82,31.9c-0.65-2.8,0.62-2.91,0.62-5.35c0-0.38-1.58-0.31-1.62,0.07C35.7,27.71,35.26,29.1,36.82,31.9z"/>
<path class="st1" d="M45.12,35.3c-0.65-3.04,0.77-2.63,0.92-5.76c0.02-0.38-1.68-0.8-1.62-0.43C44.79,31.29,43.22,32.58,45.12,35.3z
	"/>
<path class="st2" d="M29.26,6.59c-0.12-0.7-0.23-2.12-0.15-2.62c0.32-2.24,5.53-2.22,5.84,0c0.08,0.56-0.01,2.06-0.17,2.77
	C34.31,8.86,29.63,8.77,29.26,6.59z"/>
</svg>
