<?xml version="1.0" encoding="utf-8"?>
<!-- Generator: Adobe Illustrator 24.1.2, SVG Export Plug-In . SVG Version: 6.00 Build 0)  -->
<svg version="1.1" id="Layer_1" xmlns="http://www.w3.org/2000/svg" xmlns:xlink="http://www.w3.org/1999/xlink" x="0px" y="0px"
	 width="64px" height="64px" viewBox="0 0 64 64" style="enable-background:new 0 0 64 64;" xml:space="preserve">
<style type="text/css">
	.st0{fill:#FFAE2C;}
	.st1{fill:#DB942D;}
	.st2{fill:url(#SVGID_1_);}
	.st3{opacity:0.3;fill:#DB942D;}
</style>
<path class="st0" d="M15.44,54.72c1.74,3.47,1.87,4.95,1.93,7c0.08,3.05,21.39,3.05,21.39,0c0-1.89,0.6-4.14,2.66-7H15.44z"/>
<path class="st1" d="M40.55,54.72c-1.52,2.44-1.79,4.7-1.79,7c0.49-2.33,1.46-4.48,3.38-7H40.55z"/>
<path class="st1" d="M16.2,54.72h-1.28c1.93,3.7,2.05,4.91,2.44,7C17.31,59.62,17.65,58.05,16.2,54.72z"/>
<radialGradient id="SVGID_1_" cx="30.4351" cy="14.8207" r="44.4352" gradientTransform="matrix(6.118123e-17 1.0209 -0.9052 5.663108e-17 43.4977 -16.1656)" gradientUnits="userSpaceOnUse">
	<stop  offset="0.6673" style="stop-color:#FFC940"/>
	<stop  offset="0.7944" style="stop-color:#FFC53D"/>
	<stop  offset="0.9266" style="stop-color:#FFB834"/>
	<stop  offset="1" style="stop-color:#FFAE2C"/>
</radialGradient>
<path class="st2" d="M56.18,31.04c-7.75-0.88-11.1,6.36-13.37,4.46c-0.47-0.39-0.69-1.1,0.01-3.02c2.2-6.07,6.1-16.58,7.03-19.78
	c1.43-4.92-4.81-7.4-6.65-2.47c-1,2.7-6.99,20.44-6.99,20.44l-1.88-0.41c0,0,1.36-20.87,1.32-25.37c-0.05-5.47-7.17-5.52-7.62-0.08
	c-0.39,4.71-0.76,25.26-0.76,25.26l-1.97,0.19c0,0-4.59-20.02-5.25-22.34c-1.45-5.06-7.93-3.03-6.82,2.09
	c0.81,3.72,5.37,21.73,5.37,21.73l-1.79,0.66c0,0-5.05-10.2-7.01-13.6c-2.44-4.23-7.79-1.03-5.46,3.27
	c6.62,12.2,6.37,13.2,6.89,20.13c0.73,9.62,4.73,17.22,15.49,17.24c23.52,0.03,17.8-16.99,32.69-23.78
	C61.25,34.81,60.05,31.48,56.18,31.04z"/>
<path class="st1" d="M60.97,33.9c-0.24-1.51-1.81-3.28-4.7-3.6c-4.74-0.54-8,1.83-10.16,3.39c-1.59,1.16-2.34,1.63-2.81,1.23
	c-0.36-0.3-0.07-1.36,0.23-2.19c0.46-1.26,0.98-2.7,1.54-4.23c2.12-5.81,4.76-13.03,5.5-15.6c0.87-2.99-0.72-5.24-2.74-5.9
	c-1.81-0.6-4.26,0.07-5.33,2.97c-0.9,2.42-5.69,16.59-6.78,19.82l-0.6-0.13c0.23-3.62,1.32-20.7,1.28-24.78
	c-0.03-3.24-2.23-4.8-4.27-4.87c-2.21-0.07-4.58,1.52-4.85,4.74c-0.36,4.25-0.69,21-0.75,24.63l-0.65,0.06
	c-0.8-3.5-4.51-19.63-5.12-21.74c-0.85-2.96-3.24-3.81-5.1-3.34c-2.09,0.53-3.85,2.69-3.17,5.8c0.71,3.28,4.38,17.83,5.21,21.1
	l-0.52,0.19c-1.12-2.26-5.04-10.1-6.74-13.04c-1.48-2.57-3.87-2.78-5.46-1.89c-1.72,0.96-2.71,3.3-1.3,5.9
	c6.19,11.4,6.29,12.81,6.72,18.75l0.08,1.08c0.74,9.85,4.13,15.5,11.87,16.69c-6.37-2.07-9.69-7.68-10.38-16.8l-0.08-1.07
	c-0.44-6.04-0.56-7.67-6.9-19.35C4,19.88,4.67,18.42,5.71,17.83c1-0.56,2.45-0.37,3.43,1.33c1.93,3.34,6.94,13.46,6.99,13.56
	l0.3,0.61l3.05-1.14l-0.17-0.65c-0.04-0.18-4.56-18.04-5.36-21.71c-0.5-2.28,0.73-3.69,2.07-4.03c1.13-0.29,2.67,0.15,3.29,2.3
	c0.65,2.28,5.2,22.1,5.24,22.3l0.15,0.64l3.3-0.31l0.01-0.67c0-0.21,0.37-20.58,0.76-25.21c0.2-2.39,1.84-3.42,3.3-3.36
	c1.39,0.05,2.81,1.12,2.83,3.39c0.04,4.42-1.31,25.11-1.32,25.31l-0.04,0.65l3.17,0.68l0.21-0.63c0.06-0.18,6-17.76,6.98-20.41
	c0.78-2.11,2.35-2.43,3.46-2.06c1.29,0.43,2.4,1.88,1.77,4.06c-0.73,2.52-3.36,9.72-5.47,15.5c-0.56,1.53-1.09,2.98-1.54,4.24
	c-0.5,1.39-0.87,2.94,0.22,3.85c1.41,1.18,2.99,0.04,4.66-1.17c2.09-1.51,4.95-3.59,9.11-3.12c2.25,0.26,3.26,1.55,3.39,2.35
	c0.06,0.4-0.07,0.68-0.39,0.83c-6.23,2.84-8.94,7.36-11.57,11.73c-2.99,4.98-5.7,9.74-13.63,12.08c9.18-1.21,11.89-6.27,14.92-11.3
	c2.51-4.18,5.11-8.49,10.91-11.14C60.66,35.9,61.14,34.97,60.97,33.9z"/>
<path class="st3" d="M38.52,37.11c-11.66,3.81-11.91,13.82-11.23,17.86c0.15,0.87,0.44,0.55,0.49-0.02
	c0.39-4.26,1.72-12.83,10.96-17.44C39.63,37.07,39.48,36.8,38.52,37.11z"/>
</svg>
