<?xml version="1.0" encoding="utf-8"?>
<!-- Generator: Adobe Illustrator 24.1.2, SVG Export Plug-In . SVG Version: 6.00 Build 0)  -->
<svg version="1.1" id="Layer_1" xmlns="http://www.w3.org/2000/svg" xmlns:xlink="http://www.w3.org/1999/xlink" x="0px" y="0px"
	 width="64px" height="64px" viewBox="0 0 64 64" style="enable-background:new 0 0 64 64;" xml:space="preserve">
<style type="text/css">
	.st0{fill:url(#SVGID_1_);}
	.st1{fill:url(#SVGID_2_);}
	.st2{fill:url(#SVGID_3_);}
	.st3{fill:url(#SVGID_4_);}
	.st4{fill:#FFFFFF;}
	.st5{fill:url(#SVGID_5_);}
	.st6{fill:#6E8189;}
	.st7{fill:#99A8AE;}
	.st8{fill:#4E5E67;}
	.st9{fill:#77B516;}
	.st10{fill:#92C932;}
	.st11{fill:url(#SVGID_6_);}
	.st12{fill:#014F27;}
	.st13{fill:#297124;}
	.st14{fill:#529320;}
	.st15{fill:#785647;}
	.st16{fill:#B1E5FD;}
	.st17{fill:#018BC9;}
	.st18{fill:#7ED2FC;}
	.st19{fill:#0198DB;}
	.st20{opacity:0.3;fill:#1A1626;}
</style>
<linearGradient id="SVGID_1_" gradientUnits="userSpaceOnUse" x1="4" y1="32" x2="60" y2="32">
	<stop  offset="0" style="stop-color:#AB7655"/>
	<stop  offset="1" style="stop-color:#78533C"/>
</linearGradient>
<polygon class="st0" points="4,60 4,4 60,4 "/>
<linearGradient id="SVGID_2_" gradientUnits="userSpaceOnUse" x1="4" y1="32" x2="60" y2="32">
	<stop  offset="0" style="stop-color:#78533C"/>
	<stop  offset="1" style="stop-color:#AB7655"/>
</linearGradient>
<polygon class="st1" points="60,60 4,60 60,4 "/>
<linearGradient id="SVGID_3_" gradientUnits="userSpaceOnUse" x1="8" y1="32" x2="56" y2="32">
	<stop  offset="0" style="stop-color:#78533C"/>
	<stop  offset="1" style="stop-color:#AB7655"/>
</linearGradient>
<polygon class="st2" points="8,56 8,8 56,8 "/>
<linearGradient id="SVGID_4_" gradientUnits="userSpaceOnUse" x1="8" y1="32" x2="56" y2="32">
	<stop  offset="0" style="stop-color:#AB7655"/>
	<stop  offset="1" style="stop-color:#78533C"/>
</linearGradient>
<polygon class="st3" points="56,56 8,56 56,8 "/>
<rect x="10" y="10" class="st4" width="44" height="44"/>
<linearGradient id="SVGID_5_" gradientUnits="userSpaceOnUse" x1="95.5792" y1="96.5574" x2="95.5792" y2="73.1644" gradientTransform="matrix(0.8375 0 0 0.8739 -48.0476 -48.9379)">
	<stop  offset="0" style="stop-color:#B8F4FF"/>
	<stop  offset="0.2364" style="stop-color:#B5F2FF"/>
	<stop  offset="0.4292" style="stop-color:#ABEDFF"/>
	<stop  offset="0.6065" style="stop-color:#9AE4FF"/>
	<stop  offset="0.7746" style="stop-color:#82D7FF"/>
	<stop  offset="0.9347" style="stop-color:#63C7FF"/>
	<stop  offset="1" style="stop-color:#54BFFF"/>
</linearGradient>
<rect x="15" y="15" class="st5" width="34" height="20.44"/>
<path class="st6" d="M43.56,28.3c0,0-1.56-4.3-1.9-4.64c-0.08-0.08-1.78-1.19-1.78-1.19l-0.3,11.62h4.94L43.56,28.3z"/>
<path class="st7" d="M37.32,23.23c0.27,2.36,4,2.57,4,2.57c0-0.39-0.97-2.01-0.97-2.01c-0.19-0.2-0.47-1.33-0.47-1.33L37.32,23.23z"
	/>
<path class="st7" d="M28.47,23.86c0,0-1.3,1.02-1.38,1.08c-0.33,0.26-0.96,3.68-1.33,4.44c-0.7,1.31-2.6,4.79-2.6,4.79l6.79-7.39
	L28.47,23.86z"/>
<path class="st6" d="M28.47,23.86c0,0,0.04,1.45-0.81,2.23l-1.54,5.33l4.22-4.91L28.47,23.86z"/>
<path class="st6" d="M34.11,18.4l-3.52,1.56l-1.34,5.59l-5.65,8.54h18.82C42.41,34.09,38.82,25.61,34.11,18.4z"/>
<polygon class="st8" points="27.67,26.09 26.64,28.66 26.62,29.6 23.16,34.17 27.36,29.8 27.04,29.03 "/>
<path class="st8" d="M40.77,26.31c0,0-2.47-4.93-3.78-6.25c-1.54-0.72-2.88-1.66-2.88-1.66c0.14,1.31-1.31,2.76-2.42,3.9l2.38,0.08
	l1.11,3.02l-2.71-1.61l-1.21,3.2l-4.12,5.23l5.93-5.37l-2.12,3.57l-1.22,3.68l4.28-3.56l-0.5,3.56h3.98l-0.42-4.24l3.9,3.24
	l-3.97-6.47l5.9,7.47L40.77,26.31z"/>
<path class="st9" d="M18.75,34.49c0,0,0.1-1.17,1.42-1.17c0.6-1.12,1.2-1.36,1.86-0.58c0.36-0.56,1.19-0.56,1.8,0.14
	c0.68-0.48,1.41-0.07,1.68,0.35c0.33-0.53,1.59-0.99,1.83,0.23c0.43-0.87,1.96-0.72,2.55-0.15c0.41-0.95,2.01-1.49,2.41-0.28
	c0.71-1.34,2.07-0.83,2.85-0.26c0.21-0.36,1.68-0.85,2.46,0.11c0.62-0.54,1.49-0.78,1.97,0.04c-0.21-1.53,1.96-1.07,2.14-0.19
	c0.46-0.76,1.59-0.64,1.85-0.02c0.36-0.23,1.33-0.02,1.29,0.89c0.55-0.08,1.63,1.43,1.63,1.43L18.75,34.49z"/>
<path class="st10" d="M15,34.49V49h34V34.09l-20.28-0.32C25.18,33.77,15,34.49,15,34.49z"/>
<linearGradient id="SVGID_6_" gradientUnits="userSpaceOnUse" x1="29.1542" y1="49.0005" x2="29.1542" y2="33.7669">
	<stop  offset="0" style="stop-color:#4ECEE6"/>
	<stop  offset="0.1981" style="stop-color:#46C9E8"/>
	<stop  offset="0.5045" style="stop-color:#30BAEC"/>
	<stop  offset="0.8791" style="stop-color:#0DA3F4"/>
	<stop  offset="1" style="stop-color:#009AF7"/>
</linearGradient>
<path class="st11" d="M27.51,35.92c-2.29-0.66,1.24-2.15,1.24-2.15c-3.13,0-15.01,1.46-3.43,4.87c7.87,2.14-1.9,7.59-8.89,10.37
	h24.14C45.71,42.39,34.67,37.99,27.51,35.92z"/>
<path class="st12" d="M32.62,33.12c0.08,0.03,0.14,0.07,0.14,0.07c-0.17-0.41-0.3-0.78-0.41-1.1c0.05,0.01,0.11,0.05,0.22,0.14
	c-0.15-0.39-0.26-0.72-0.35-1c0.09,0.01,0.2,0.07,0.2,0.07c-0.84-2.08-0.28-2.13-1.2-0.03c0.1-0.07,0.15-0.1,0.18-0.1
	c-0.11,0.29-0.25,0.62-0.43,1.02c0,0,0.08-0.04,0.18-0.07c-0.11,0.3-0.25,0.63-0.42,1.01c0.07-0.05,0.13-0.1,0.18-0.12
	c-0.12,0.32-0.26,0.56-0.41,0.97c0,0,0.31,0.37,0.68,0.14c0.39,0.3,0.74,0.3,0.99,0c0.21,0.11,0.58,0.15,0.74-0.19
	C32.8,33.59,32.71,33.4,32.62,33.12z"/>
<path class="st12" d="M22.98,32.99c0.07,0.03,0.12,0.06,0.12,0.06c-0.15-0.36-0.27-0.68-0.36-0.97c0.04,0.01,0.1,0.05,0.19,0.12
	c-0.13-0.34-0.23-0.63-0.31-0.88c0.08,0.01,0.18,0.06,0.18,0.06c-0.74-1.83-0.25-1.88-1.06-0.02c0.08-0.07,0.13-0.09,0.16-0.09
	c-0.1,0.25-0.22,0.55-0.38,0.9c0,0,0.07-0.04,0.16-0.06c-0.1,0.26-0.22,0.56-0.37,0.89c0.06-0.05,0.11-0.08,0.16-0.11
	c-0.11,0.28-0.23,0.49-0.36,0.85c0,0,0.27,0.32,0.59,0.13c0.34,0.26,0.65,0.26,0.87,0c0.18,0.09,0.51,0.13,0.65-0.16
	C23.13,33.41,23.05,33.24,22.98,32.99z"/>
<path class="st13" d="M21.38,33.23c0.09,0.05,0.16,0.1,0.16,0.1c-0.16-0.55-0.29-1.03-0.39-1.45c0.05,0.02,0.13,0.08,0.24,0.2
	c-0.14-0.52-0.25-0.95-0.33-1.32c0.11,0.02,0.22,0.11,0.22,0.11c-0.82-2.75-0.17-2.78-1.39-0.13c0.11-0.09,0.18-0.12,0.22-0.12
	c-0.15,0.36-0.33,0.79-0.57,1.29c0,0,0.1-0.05,0.21-0.07c-0.15,0.37-0.34,0.8-0.55,1.28c0.09-0.07,0.16-0.11,0.22-0.15
	c-0.17,0.4-0.34,0.7-0.54,1.22c0,0,0.33,0.49,0.77,0.24c0.42,0.42,0.83,0.44,1.14,0.08c0.23,0.15,0.65,0.24,0.87-0.19
	C21.55,33.85,21.45,33.6,21.38,33.23z"/>
<path class="st12" d="M35.89,33.49c0.08,0.03,0.13,0.05,0.13,0.05c-0.16-0.32-0.29-0.6-0.39-0.85c0.05,0.01,0.11,0.04,0.21,0.11
	c-0.14-0.3-0.25-0.56-0.34-0.77c0.09,0.01,0.19,0.05,0.19,0.05c-0.8-1.61-0.26-1.65-1.14-0.02c0.09-0.06,0.14-0.08,0.18-0.08
	c-0.1,0.22-0.24,0.48-0.41,0.79c0,0,0.08-0.03,0.17-0.05c-0.11,0.23-0.24,0.49-0.4,0.78c0.07-0.04,0.12-0.07,0.17-0.09
	c-0.11,0.25-0.24,0.43-0.39,0.75c0,0,0.3,0.28,0.64,0.11c0.37,0.23,0.7,0.23,0.94,0c0.19,0.08,0.55,0.12,0.7-0.15
	C36.06,33.86,35.97,33.71,35.89,33.49z"/>
<path class="st13" d="M40.89,33.06c0.11,0.04,0.2,0.08,0.2,0.08c-0.24-0.48-0.43-0.9-0.59-1.27c0.07,0.01,0.16,0.06,0.31,0.16
	c-0.21-0.45-0.37-0.84-0.5-1.16c0.13,0.01,0.29,0.08,0.29,0.08c-1.2-2.41-0.4-2.48-1.71-0.03c0.13-0.09,0.21-0.12,0.26-0.12
	c-0.16,0.33-0.35,0.72-0.61,1.18c0,0,0.12-0.05,0.25-0.08c-0.16,0.34-0.36,0.74-0.59,1.18c0.1-0.07,0.19-0.11,0.25-0.14
	c-0.17,0.37-0.36,0.64-0.58,1.12c0,0,0.44,0.42,0.96,0.17c0.55,0.35,1.05,0.35,1.41,0c0.29,0.12,0.82,0.18,1.05-0.22
	C41.14,33.61,41.01,33.39,40.89,33.06z"/>
<path class="st12" d="M48.39,35.46c0.11,0.04,0.2,0.08,0.2,0.08c-0.24-0.48-0.43-0.9-0.59-1.27c0.07,0.01,0.16,0.06,0.31,0.16
	c-0.21-0.45-0.37-0.84-0.5-1.16c0.13,0.01,0.28,0.08,0.28,0.08c-1.2-2.41-0.4-2.48-1.71-0.03c0.13-0.09,0.21-0.12,0.26-0.12
	c-0.16,0.33-0.35,0.72-0.61,1.18c0,0,0.12-0.05,0.25-0.08c-0.16,0.34-0.36,0.74-0.59,1.18c0.1-0.07,0.19-0.11,0.25-0.14
	c-0.17,0.37-0.36,0.64-0.58,1.12c0,0,0.44,0.42,0.96,0.17c0.55,0.35,1.05,0.35,1.41,0c0.29,0.12,0.82,0.18,1.05-0.22
	C48.64,36,48.51,35.78,48.39,35.46z"/>
<path class="st13" d="M44.93,32.16c0.13,0.05,0.22,0.1,0.22,0.1c-0.26-0.65-0.47-1.22-0.64-1.72c0.07,0.02,0.18,0.08,0.34,0.22
	c-0.23-0.61-0.41-1.13-0.55-1.57c0.14,0.02,0.31,0.11,0.31,0.11c-1.31-3.25-0.44-3.34-1.88-0.04c0.15-0.12,0.23-0.16,0.29-0.15
	c-0.17,0.45-0.38,0.97-0.67,1.59c0,0,0.13-0.07,0.28-0.1c-0.18,0.46-0.39,0.99-0.65,1.58c0.11-0.09,0.2-0.15,0.28-0.19
	c-0.19,0.5-0.4,0.87-0.64,1.51c0,0,0.49,0.57,1.05,0.23c0.6,0.47,1.16,0.47,1.54,0c0.32,0.17,0.9,0.24,1.16-0.29
	C45.21,32.9,45.06,32.61,44.93,32.16z"/>
<path class="st13" d="M30.45,33.57c0.08,0.03,0.14,0.05,0.14,0.05c-0.17-0.32-0.3-0.6-0.41-0.85c0.05,0.01,0.11,0.04,0.22,0.11
	c-0.15-0.3-0.26-0.56-0.35-0.77c0.09,0.01,0.2,0.05,0.2,0.05c-0.84-1.61-0.28-1.65-1.2-0.02c0.09-0.06,0.15-0.08,0.19-0.08
	c-0.11,0.22-0.25,0.48-0.43,0.79c0,0,0.08-0.03,0.18-0.05c-0.11,0.23-0.25,0.49-0.42,0.79c0.07-0.04,0.13-0.08,0.18-0.1
	c-0.12,0.25-0.26,0.43-0.41,0.75c0,0,0.31,0.28,0.68,0.11c0.39,0.23,0.74,0.23,0.99,0c0.21,0.08,0.58,0.12,0.74-0.15
	C30.63,33.94,30.53,33.79,30.45,33.57z"/>
<path class="st13" d="M34.47,34.57c0.1,0.03,0.18,0.07,0.18,0.07c-0.22-0.42-0.39-0.79-0.54-1.11c0.06,0.01,0.15,0.05,0.29,0.14
	c-0.2-0.4-0.34-0.73-0.46-1.01c0.12,0.01,0.26,0.07,0.26,0.07c-1.1-2.1-0.37-2.16-1.57-0.03c0.12-0.08,0.2-0.1,0.24-0.1
	c-0.14,0.29-0.32,0.63-0.56,1.03c0,0,0.11-0.04,0.23-0.07c-0.15,0.3-0.33,0.64-0.54,1.02c0.09-0.06,0.17-0.1,0.23-0.13
	c-0.16,0.32-0.34,0.56-0.53,0.98c0,0,0.41,0.37,0.88,0.15c0.51,0.3,0.97,0.3,1.29,0c0.27,0.11,0.75,0.15,0.97-0.19
	C34.7,35.05,34.58,34.86,34.47,34.57z"/>
<path class="st12" d="M43.36,34.32c0.15,0.05,0.27,0.1,0.27,0.1c-0.32-0.61-0.57-1.14-0.78-1.61c0.09,0.02,0.22,0.08,0.41,0.21
	c-0.29-0.57-0.5-1.06-0.67-1.47c0.17,0.02,0.38,0.1,0.38,0.1c-1.59-3.04-0.53-3.13-2.28-0.04c0.18-0.11,0.28-0.15,0.35-0.15
	c-0.21,0.42-0.47,0.91-0.81,1.49c0,0,0.16-0.06,0.34-0.1c-0.22,0.43-0.48,0.93-0.79,1.48c0.14-0.08,0.25-0.14,0.34-0.18
	c-0.23,0.47-0.49,0.81-0.77,1.42c0,0,0.59,0.53,1.28,0.21c0.73,0.44,1.4,0.44,1.87,0c0.39,0.16,1.09,0.22,1.4-0.27
	C43.7,35.01,43.52,34.74,43.36,34.32z"/>
<path class="st14" d="M37.96,35.03c0.13,0.04,0.23,0.08,0.23,0.08c-0.27-0.53-0.49-0.99-0.67-1.39c0.08,0.01,0.19,0.07,0.36,0.18
	c-0.25-0.5-0.43-0.91-0.58-1.27c0.15,0.02,0.33,0.09,0.33,0.09c-1.38-2.63-0.46-2.71-1.97-0.04c0.16-0.09,0.25-0.13,0.3-0.12
	c-0.18,0.36-0.4,0.79-0.7,1.29c0,0,0.14-0.05,0.29-0.08c-0.19,0.38-0.41,0.8-0.68,1.29c0.12-0.07,0.21-0.12,0.29-0.16
	c-0.2,0.4-0.42,0.71-0.67,1.23c0,0,0.51,0.46,1.11,0.18c0.63,0.38,1.21,0.38,1.62,0c0.34,0.13,0.94,0.19,1.21-0.24
	C38.25,35.63,38.1,35.39,37.96,35.03z"/>
<path class="st13" d="M18.69,35.63c0.1,0.03,0.19,0.06,0.19,0.06c-0.28-0.49-0.51-0.93-0.7-1.31c0.06,0.01,0.15,0.04,0.29,0.14
	c-0.25-0.47-0.45-0.86-0.61-1.2c0.11,0,0.26,0.05,0.26,0.05c-1.4-2.46-0.71-2.64-1.5,0.19c0.11-0.11,0.17-0.15,0.21-0.16
	c-0.09,0.38-0.2,0.83-0.36,1.37c0,0,0.1-0.07,0.21-0.12c-0.09,0.4-0.2,0.85-0.35,1.36c0.08-0.08,0.14-0.15,0.2-0.19
	c-0.1,0.43-0.22,0.75-0.34,1.3c0,0,0.45,0.4,0.86,0.05c0.53,0.3,0.97,0.24,1.23-0.19c0.27,0.09,0.74,0.08,0.89-0.38
	C18.99,36.2,18.84,35.97,18.69,35.63z"/>
<path class="st12" d="M17.85,38.89c0.12,0.03,0.21,0.07,0.21,0.07c-0.32-0.56-0.58-1.06-0.79-1.49c0.07,0.01,0.17,0.05,0.33,0.16
	c-0.29-0.53-0.51-0.98-0.69-1.36c0.13,0,0.3,0.06,0.3,0.06c-1.59-2.8-0.81-3-1.71,0.22c0.12-0.13,0.19-0.17,0.24-0.18
	c-0.1,0.43-0.23,0.95-0.41,1.56c0,0,0.11-0.08,0.24-0.13c-0.11,0.45-0.23,0.96-0.39,1.54c0.09-0.1,0.16-0.17,0.23-0.22
	c-0.11,0.48-0.26,0.85-0.39,1.48c0,0,0.51,0.46,0.98,0.06c0.61,0.34,1.11,0.27,1.4-0.22c0.31,0.11,0.84,0.09,1.01-0.43
	C18.19,39.52,18.02,39.27,17.85,38.89z"/>
<path class="st14" d="M41.89,36.54c0.14,0.04,0.25,0.09,0.25,0.09c-0.3-0.58-0.54-1.09-0.74-1.53c0.08,0.02,0.2,0.07,0.39,0.2
	c-0.27-0.54-0.47-1-0.64-1.39c0.16,0.02,0.36,0.1,0.36,0.1c-1.51-2.89-0.51-2.97-2.16-0.04c0.17-0.1,0.27-0.14,0.33-0.14
	c-0.2,0.4-0.44,0.86-0.77,1.42c0,0,0.15-0.06,0.32-0.09c-0.21,0.41-0.45,0.88-0.75,1.41c0.13-0.08,0.24-0.13,0.32-0.17
	c-0.22,0.45-0.46,0.77-0.74,1.35c0,0,0.56,0.51,1.22,0.2c0.7,0.42,1.33,0.42,1.78,0c0.37,0.15,1.04,0.21,1.33-0.26
	C42.21,37.2,42.05,36.94,41.89,36.54z"/>
<path class="st15" d="M45.38,38.73h-1.32c0,0-0.18,2.06-0.18,3.1c0,0.51,1.68,0.51,1.68,0C45.56,41.21,45.38,38.73,45.38,38.73z"/>
<path class="st13" d="M49,39.9c-4.3-8.3-4.04-8.58-8.91,0.23c0,0,3.55-1.3,1.94,1.09c1.96-0.28,2.43-2.68,4.62,0
	C47.53,40.45,46.5,38.48,49,39.9z"/>
<path class="st14" d="M40.85,37.87c5.48-8.32,1.96-8.05,7.55,0c0,0-3.06-1-1.68,0.84c-2.04,0.28-2.22-2.49-3.98,0
	C41.99,38.12,43.01,36.78,40.85,37.87z"/>
<path class="st13" d="M47.6,35.67c-4.31-6.55-1.55-6.33-5.95,0c0,0,2.41-0.79,1.32,0.66c1.61,0.22,1.75-1.96,3.13,0
	C46.71,35.87,45.91,34.81,47.6,35.67z"/>
<path class="st14" d="M42.49,33.53c3.23-4.91,1.16-4.75,4.46,0c0,0-1.81-0.59-0.99,0.5c-1.21,0.17-1.31-1.47-2.35,0
	C43.16,33.68,43.76,32.89,42.49,33.53z"/>
<path class="st6" d="M34.39,43.51c-0.09,0.69,2.63,1.08,2.63,1.08l0.3-0.34l-0.58-1.14C36.74,43.12,35.25,43.05,34.39,43.51z"/>
<polygon class="st7" points="33.77,44.59 37.02,44.59 36.25,43.45 34.39,43.51 "/>
<path class="st6" d="M29.21,42.23c-0.04,0.46,1.05,0.72,1.05,0.72l0.52-0.38l-0.6-0.42C30.19,42.14,29.56,41.92,29.21,42.23z"/>
<polygon class="st7" points="28.97,42.95 30.26,42.95 29.94,42.45 29.21,42.23 "/>
<path class="st6" d="M31.16,46.7c-0.06,0.78,1.78,1.21,1.78,1.21l0.66-0.61v-0.52C33.6,46.79,31.74,46.18,31.16,46.7z"/>
<polygon class="st7" points="30.37,47.92 32.94,47.92 33.11,47.07 31.16,46.7 "/>
<path class="st16" d="M28.27,43.15c1.23,0.16,3.08-0.11,2.62,0.09C30.68,43.34,29.06,43.44,28.27,43.15z"/>
<path class="st16" d="M34.99,45.6c1.24,0.04,3.05-0.41,2.61-0.16C37.42,45.55,35.81,45.81,34.99,45.6z"/>
<path class="st16" d="M30.96,48.39c1.24,0.04,3.05-0.41,2.61-0.16C33.38,48.34,31.77,48.6,30.96,48.39z"/>
<path class="st16" d="M33.23,44.92c1.97,0.3,4.96-0.41,4.21,0.08C37.11,45.21,34.49,45.52,33.23,44.92z"/>
<path class="st17" d="M29.11,37.8c0,0-12.81-2.77-1.08-3.85C28.03,33.96,18.61,34.73,29.11,37.8z"/>
<path class="st18" d="M38.65,48.31c2.05-3.04,2.2-6.1-7.41-9.81C34.23,38.89,45.84,43.25,38.65,48.31z"/>
<path class="st19" d="M25.66,48.05c12.38-6.59,9.43-8.18,1.13-9.81C32.88,40.01,37.63,40.52,25.66,48.05z"/>
<path class="st15" d="M20.26,40.78h-1.31c0,0-0.18,2.04-0.18,3.07c0,0.5,1.67,0.5,1.67,0C20.43,43.23,20.26,40.78,20.26,40.78z"/>
<path class="st13" d="M23.84,41.94c-4.26-8.23-4.01-8.5-8.83,0.22c0,0,3.51-1.28,1.93,1.08c1.94-0.27,2.41-2.66,4.57,0
	C22.38,42.49,21.37,40.53,23.84,41.94z"/>
<path class="st14" d="M15.77,39.93c5.43-8.25,1.94-7.98,7.48,0c0,0-3.03-0.99-1.66,0.83c-2.03,0.28-2.2-2.46-3.94,0
	C16.9,40.18,17.9,38.85,15.77,39.93z"/>
<path class="st13" d="M22.46,37.75c-4.27-6.49-1.53-6.28-5.89,0c0,0,2.39-0.78,1.31,0.66c1.59,0.22,1.73-1.94,3.1,0
	C21.57,37.95,20.78,36.9,22.46,37.75z"/>
<path class="st14" d="M17.39,35.63c3.2-4.87,1.15-4.71,4.42,0c0,0-1.79-0.58-0.98,0.49c-1.2,0.17-1.3-1.45-2.33,0
	C18.06,35.78,18.65,34.99,17.39,35.63z"/>
<polygon class="st20" points="15,15 15,49 15.77,49 15.77,15.83 49,15.83 49,15 "/>
</svg>
