<?xml version="1.0" encoding="utf-8"?>
<!-- Generator: Adobe Illustrator 24.1.2, SVG Export Plug-In . SVG Version: 6.00 Build 0)  -->
<svg version="1.1" id="Layer_1" xmlns="http://www.w3.org/2000/svg" xmlns:xlink="http://www.w3.org/1999/xlink" x="0px" y="0px"
	 width="64px" height="64px" viewBox="0 0 64 64" style="enable-background:new 0 0 64 64;" xml:space="preserve">
<style type="text/css">
	.st0{fill:url(#SVGID_1_);}
	.st1{fill:url(#SVGID_2_);}
	.st2{fill:#4E5E67;}
	.st3{fill:#6E8189;}
	.st4{fill:url(#SVGID_3_);}
	.st5{fill:url(#SVGID_4_);}
</style>
<radialGradient id="SVGID_1_" cx="462.5508" cy="-6.8447" r="11.9212" gradientTransform="matrix(0.7071 -0.7087 0.7071 0.7087 -272.5217 382.4414)" gradientUnits="userSpaceOnUse">
	<stop  offset="0" style="stop-color:#ABBDC5"/>
	<stop  offset="0.2599" style="stop-color:#A7B8C0"/>
	<stop  offset="0.5664" style="stop-color:#9AAAB2"/>
	<stop  offset="0.8952" style="stop-color:#86949A"/>
	<stop  offset="1" style="stop-color:#7E8B91"/>
</radialGradient>
<path class="st0" d="M38.32,58.38c4.48,8.62,17.35,0.22,22-8.43c0.15-0.29,0.01-0.91,0.14-1.19c0.04-0.09,0.37,0.16,0.41,0.07
	c0.23-0.52-0.01-1.28,0.16-1.79c0.03-0.08,0.49,0.08,0.52,0c0.21-0.68-0.07-1.5,0-2.15c0.01-0.09,0.44-0.04,0.45-0.13
	c0.05-0.68-0.54-1.45-0.67-2.07c-0.02-0.08,0.52-0.04,0.5-0.13c-0.4-1.63-1.45-3.02-3.35-3.99C49.57,35.03,34.56,49.04,38.32,58.38z
	"/>
<linearGradient id="SVGID_2_" gradientUnits="userSpaceOnUse" x1="449.2581" y1="-38.1558" x2="477.5178" y2="-38.1558" gradientTransform="matrix(0.7071 -0.7071 0.7071 0.7071 -272.6477 382.7539)">
	<stop  offset="0" style="stop-color:#6E8088"/>
	<stop  offset="0.0263" style="stop-color:#88979E"/>
	<stop  offset="0.0606" style="stop-color:#A2AFB5"/>
	<stop  offset="0.0985" style="stop-color:#B6C1C7"/>
	<stop  offset="0.1414" style="stop-color:#C4CED3"/>
	<stop  offset="0.1935" style="stop-color:#CCD6DB"/>
	<stop  offset="0.28" style="stop-color:#CFD8DD"/>
	<stop  offset="0.31" style="stop-color:#D2DBDF"/>
	<stop  offset="0.4961" style="stop-color:#E1E7E9"/>
	<stop  offset="0.65" style="stop-color:#E6EBED"/>
	<stop  offset="1" style="stop-color:#B3C2C6"/>
</linearGradient>
<path class="st1" d="M58.48,38.58c0,0-24.47-13.78-38.43-36.01C18.47,0.05,3.76,6.03,2,18c-0.14,0.91,19.03,16.52,36.32,40.38
	C37.2,49.68,51.83,36.23,58.48,38.58z"/>
<path class="st2" d="M9.65,25.63c4.09,4.1,7.84,8.26,11.93,12.36c0,0,0.42-0.19,0.45-0.29c-4.72-4.74-6.99-9.88-6.96-9.85
	c0,0,1.29,2.45,3.45,5.23c-0.66-0.9-0.98-1.56-1.09-1.95c-0.1-0.24-0.15-0.53-0.13-0.63c-0.16-0.21-0.31-0.59-0.29-0.73
	c-0.23-0.21-0.45-0.68-0.33-0.72c-0.21-0.3-0.37-0.85-0.16-0.72c0.01-0.05,0.02-0.08,0.04-0.09c-0.17-0.31-0.27-0.88-0.12-0.81
	c-0.17-0.35-0.22-1.01-0.03-0.79c0.01-0.02,0.03-0.04,0.04-0.06c-0.13-0.37-0.11-0.98,0.06-0.75c0.01-0.01,0.02-0.01,0.02-0.02
	c-0.12-0.37-0.05-1.01,0.11-0.76c0.01-0.01,0.02-0.02,0.03-0.03c-0.13-0.34-0.13-0.87,0.05-0.68c0.04-0.06,0.07-0.08,0.11-0.07
	c0.02-0.36,0.17-0.74,0.27-0.5c0.01-0.01,0.02-0.02,0.04-0.02c0.03-0.3,0.14-0.58,0.24-0.38c0.04-0.03,0.07-0.04,0.09-0.04
	c-0.07-0.36,0.17-1.01,0.29-0.72c0.1-0.06,0.15-0.02,0.16,0.08c0.15-0.32,0.53-0.63,0.51-0.36c0.3-0.03,0.02,0.39-0.27,0.59
	c0,0,0,0,0,0c0.31-0.04,0.01,0.45-0.28,0.64c0.02,0.21-0.24,0.71-0.46,0.76c0.01,0.14-0.06,0.37-0.17,0.55
	c0.09,0.12-0.09,0.62-0.29,0.8c0.13,0.06,0.08,0.61-0.06,0.87c0.15-0.05,0.13,0.43,0.02,0.74c0.1,0.07,0.1,0.49,0.01,0.77
	c0.07-0.05,0.13,0.05,0.16,0.23c-0.01-0.16,0.02-0.26,0.11-0.17c0.02-0.04,0.04-0.07,0.05-0.08c-0.08-0.25-0.1-0.6-0.05-0.73
	c-0.13-0.34-0.16-0.77,0.02-0.61c0.01-0.04,0.03-0.06,0.05-0.07c-0.02-0.29,0.03-0.53,0.15-0.37c0.01-0.02,0.03-0.03,0.04-0.05
	c-0.07-0.37,0.01-0.83,0.15-0.62c0.02-0.02,0.04-0.04,0.05-0.04c-0.02-0.29,0.09-0.67,0.19-0.71c-0.04-0.38,0.17-0.94,0.28-0.67
	c0.01,0,0.01-0.01,0.02-0.01c-0.02-0.37,0.4-0.98,0.45-0.67c0.1-0.03,0.14,0,0.14,0.08c0.15-0.24,0.36-0.41,0.37-0.2
	c0.33-0.06,0,0.49-0.3,0.68c0.03,0.12-0.14,0.41-0.33,0.58c0,0.01,0,0.02,0,0.03c0.34-0.02-0.1,0.58-0.41,0.69
	c0.01,0.01,0.02,0.03,0.02,0.06c0.29-0.14,0.09,0.53-0.15,0.78c0.15,0.01,0.05,0.56-0.13,0.82c0.09,0.1,0.04,0.56-0.08,0.82
	c0.06,0.18,0.08,0.52,0.02,0.74c0.2-0.17,0.2,0.44,0.07,0.79c0.14,0.07,0.21,0.85,0.04,1.05c0.04,0.19,0.05,0.44,0.02,0.62
	c0.1,0.06,0.18,0.52,0.15,0.84c0.48,0.68,1.31,1.73,2.71,3.22c-0.52-0.83-0.85-1.47-1.03-1.93c-0.19-0.09-0.37-0.69-0.36-0.92
	c-0.15-0.22-0.27-0.56-0.25-0.69c-0.23-0.22-0.45-0.69-0.33-0.72c-0.21-0.31-0.36-0.86-0.15-0.73c0.01-0.05,0.02-0.07,0.04-0.09
	c-0.17-0.31-0.26-0.89-0.1-0.81c-0.17-0.35-0.21-1.01-0.02-0.79c0.01-0.02,0.03-0.04,0.04-0.06c-0.13-0.37-0.09-0.99,0.08-0.75
	c0.01-0.01,0.02-0.02,0.02-0.02c-0.11-0.37-0.03-1.01,0.13-0.76c0.01-0.01,0.02-0.02,0.03-0.02c-0.12-0.35-0.11-0.87,0.06-0.68
	c0.04-0.06,0.08-0.08,0.11-0.07c0.02-0.35,0.2-0.74,0.29-0.5c0.02-0.01,0.03-0.01,0.04-0.02c0.03-0.31,0.16-0.58,0.25-0.38
	c0.04-0.03,0.07-0.04,0.1-0.04c-0.06-0.37,0.2-1,0.31-0.71c0.11-0.06,0.16-0.02,0.17,0.08c0.16-0.32,0.55-0.62,0.53-0.35
	c0.3-0.02,0.01,0.39-0.28,0.58c0,0,0,0,0,0c0.31-0.04,0,0.44-0.3,0.64c0.01,0.21-0.25,0.7-0.48,0.75c0,0.14-0.08,0.37-0.19,0.55
	c0.09,0.12-0.1,0.62-0.31,0.8c0.12,0.07,0.07,0.61-0.08,0.87c0.16-0.04,0.13,0.43,0.01,0.74c0.09,0.07,0.08,0.49,0,0.77
	c0.07-0.05,0.13,0.06,0.16,0.23c-0.01-0.17,0.02-0.26,0.12-0.17c0.02-0.05,0.04-0.07,0.06-0.08c-0.08-0.26-0.09-0.6-0.04-0.73
	c-0.12-0.34-0.14-0.77,0.04-0.61c0.02-0.04,0.03-0.06,0.05-0.07c-0.02-0.29,0.04-0.53,0.16-0.37c0.02-0.02,0.03-0.03,0.04-0.04
	c-0.06-0.37,0.03-0.84,0.17-0.62c0.02-0.02,0.04-0.03,0.06-0.04c-0.01-0.29,0.11-0.66,0.21-0.71c-0.03-0.38,0.2-0.93,0.3-0.66
	c0.01-0.01,0.02-0.01,0.02-0.01c0-0.37,0.43-0.98,0.47-0.66c0.1-0.03,0.14,0.01,0.14,0.08c0.16-0.24,0.38-0.4,0.38-0.19
	c0.33-0.05-0.01,0.49-0.32,0.68c0.03,0.12-0.15,0.4-0.34,0.57c0,0.01,0,0.01,0,0.03c0.34-0.02-0.12,0.58-0.43,0.68
	c0.01,0.01,0.02,0.03,0.02,0.06c0.3-0.13,0.08,0.53-0.17,0.78c0.16,0.02,0.03,0.56-0.15,0.82c0.09,0.1,0.03,0.57-0.1,0.82
	c0.06,0.18,0.07,0.52,0.01,0.74c0.2-0.17,0.19,0.45,0.05,0.79c0.14,0.08,0.2,0.84,0.03,1.05c0.05,0.28,0.04,0.69-0.07,0.81
	c0.1,0.24,0.25,0.55,0.51,0.95c-0.98-2.71,2.31-3.52,2.36-3.49c-0.15-0.09-4.61,1.84-0.23,5.64c1.16-2.91,3.03-5.48,5.38-7.49
	c-0.7-0.72-1.41-1.45-2.12-2.16c-0.24,0.2-0.47,0.41-0.69,0.62c-0.29-0.3-0.59-0.59-0.88-0.88c0.18-0.17,0.36-0.33,0.55-0.5
	c-0.51-0.04-0.96-0.37-0.89-1c0.04-0.46,0.32-0.76,0.66-0.9c-0.54-0.04-1.03-0.37-0.96-0.99c0.05-0.44,0.34-0.72,0.7-0.85
	c-0.56-0.05-1.06-0.38-0.97-0.98c0.18-1.3,2.6-1.01,2.44,0.08c0.67-0.67,2.42-0.27,2.25,0.63c0.69-0.61,2.41-0.16,2.28,0.66
	c0.23-0.09,0.46-0.18,0.69-0.26c0.3,0.29,0.59,0.59,0.88,0.88c-0.3,0.1-0.59,0.21-0.88,0.33c0.71,0.72,1.41,1.44,2.1,2.16
	c0.68-0.28,1.37-0.51,2.07-0.71c-3.94-3.98-8.57-8.19-12.42-12.45C15.26,14.04,9.84,22.57,9.65,25.63z M12.19,27.34
	c-0.09,0.27-0.36,0-0.27-0.26C12,26.81,12.28,27.07,12.19,27.34z M14.57,29.15c-0.1,0.27-0.36,0-0.27-0.27
	C14.39,28.61,14.66,28.88,14.57,29.15z M10.95,23.56c-0.07,0.17-0.25,0-0.18-0.17C10.84,23.22,11.02,23.39,10.95,23.56z
	 M12.87,24.96c-0.08,0.17-0.26,0-0.18-0.18C12.77,24.62,12.95,24.79,12.87,24.96z M15.19,25.09c-0.1,0.16-0.28-0.01-0.18-0.17
	C15.1,24.76,15.29,24.93,15.19,25.09z M13.77,21.71c-0.11,0.15-0.29-0.02-0.19-0.17C13.69,21.38,13.87,21.55,13.77,21.71z
	 M14.99,22.28c-0.16,0.23-0.44-0.03-0.28-0.26C14.88,21.8,15.16,22.06,14.99,22.28z M22.83,28.63c-0.12,0.15-0.3-0.03-0.18-0.18
	C22.77,28.3,22.95,28.48,22.83,28.63z M25.09,29.6c-0.19,0.21-0.45-0.06-0.27-0.27C25.01,29.11,25.28,29.38,25.09,29.6z
	 M15.77,19.41c-0.13,0.14-0.32-0.03-0.19-0.17C15.71,19.1,15.9,19.27,15.77,19.41z M18,20.7c-0.13,0.13-0.32-0.04-0.19-0.17
	C17.94,20.4,18.13,20.57,18,20.7z M21.62,23.52c-0.21,0.19-0.48-0.07-0.28-0.26C21.55,23.06,21.83,23.33,21.62,23.52z M15.78,16.95
	c0.14-0.12,0.33,0.05,0.19,0.17C15.83,17.24,15.64,17.07,15.78,16.95z M20.42,21.32c0.14-0.12,0.33,0.05,0.19,0.17
	C20.47,21.62,20.28,21.45,20.42,21.32z M23.22,23.69c-0.14,0.12-0.33-0.05-0.18-0.18C23.18,23.39,23.37,23.56,23.22,23.69z
	 M21.65,13.63c0.26-0.1,0.56,0.15,0.3,0.25C21.7,13.99,21.39,13.74,21.65,13.63z M25.55,19.72c-0.25,0.13-0.54-0.14-0.28-0.27
	C25.52,19.33,25.81,19.6,25.55,19.72z M23.38,18.3c-1.42,0.75-3.3,0.76-4.39-0.21c-1.08-0.96-0.99-2.53,0.37-3.3
	c1.36-0.77,3.52-0.42,4.65,0.56C25.16,16.33,24.8,17.54,23.38,18.3z M28.69,19.24c-0.19,0.06-0.37-0.12-0.19-0.18
	C28.68,19.01,28.87,19.18,28.69,19.24z"/>
<path class="st2" d="M30.21,25.34c-0.19-0.19-0.44-0.18-0.7-0.07c-0.46-0.46-1.25,0.02-0.8,0.49c-0.2,0.17-0.29,0.36-0.1,0.55
	C29.35,27.07,30.94,26.1,30.21,25.34z"/>
<path class="st3" d="M9.98,17.8c0.14,0.15,0.27,0.31,0.41,0.46c3.01-4.63,7.87-8.12,13.89-9.6c-0.11-0.15-0.23-0.3-0.34-0.45
	C17.88,9.67,13,13.15,9.98,17.8z"/>
<path class="st3" d="M10.88,18.86c0.13,0.16,0.26,0.32,0.39,0.49c3.01-4.62,7.87-8.1,13.87-9.57c-0.11-0.15-0.24-0.3-0.35-0.45
	C18.77,10.79,13.9,14.25,10.88,18.86z"/>
<path class="st3" d="M38.53,26.07c-6.61,2.79-11.71,8.36-13.88,15.29c0.23,0.26,0.46,0.52,0.7,0.79
	c2.17-7.01,7.34-12.65,14.04-15.43C39.11,26.51,38.82,26.3,38.53,26.07z"/>
<path class="st3" d="M41.13,28.08c-6.88,2.76-12.2,8.52-14.37,15.7c0.23,0.27,0.46,0.54,0.69,0.81c2.16-7.27,7.54-13.09,14.51-15.84
	C41.69,28.54,41.41,28.3,41.13,28.08z"/>
<path class="st3" d="M43.58,30.06c-7.09,2.8-12.57,8.71-14.81,16.09c0.23,0.27,0.46,0.55,0.69,0.83
	c2.23-7.47,7.77-13.44,14.96-16.24C44.14,30.51,43.86,30.29,43.58,30.06z"/>
<path class="st3" d="M46.02,32.05c-7.31,2.85-12.96,8.92-15.25,16.52c0.23,0.28,0.46,0.56,0.68,0.84
	c2.28-7.69,7.99-13.83,15.39-16.68C46.57,32.51,46.3,32.28,46.02,32.05z"/>
<path class="st3" d="M48.43,34.06c-7.53,2.91-13.35,9.16-15.68,16.98c0.22,0.29,0.45,0.57,0.68,0.86
	c2.32-7.93,8.21-14.25,15.84-17.17C48.99,34.51,48.71,34.29,48.43,34.06z"/>
<path class="st3" d="M50.87,35.96c-7.76,3.03-13.77,9.45-16.23,17.51c0.22,0.29,0.45,0.58,0.67,0.88
	c2.45-8.2,8.56-14.73,16.47-17.74C51.49,36.4,51.18,36.18,50.87,35.96z"/>
<radialGradient id="SVGID_3_" cx="462.3385" cy="-32.0967" r="17.2604" fx="462.306" fy="-32.0922" gradientTransform="matrix(0.7071 -0.7087 0.2226 0.2231 -288.0738 366.8541)" gradientUnits="userSpaceOnUse">
	<stop  offset="0.6121" style="stop-color:#BF8B65"/>
	<stop  offset="0.8061" style="stop-color:#EBBB96"/>
</radialGradient>
<path class="st4" d="M21.58,37.99c0,0,4.1-12.28,15.91-15.02c1.33,0.25,1.74,1.56,1.74,1.56s-12.3,2.95-15.82,15.44
	C21.78,39.48,21.58,37.99,21.58,37.99z"/>
<linearGradient id="SVGID_4_" gradientUnits="userSpaceOnUse" x1="457.2852" y1="-5.753" x2="465.1157" y2="-5.753" gradientTransform="matrix(0.7071 -0.7071 0.7071 0.7071 -272.6477 382.7539)">
	<stop  offset="0" style="stop-color:#7B9099"/>
	<stop  offset="1" style="stop-color:#302C3B"/>
</linearGradient>
<path class="st5" d="M51.91,51.17c1.66,1.66-3,6.53-5.1,4.34c-1.89-1.97,1.37-6.41,4.12-6.96C50.92,48.56,52.13,49.79,51.91,51.17z"
	/>
<path class="st3" d="M53.48,56.36c-0.22,0.22-0.45,0.44-0.69,0.66c-3.54,3.2-9.07,5.16-11.37,2.85c-1.29-1.29-1.53-3.49-0.68-6.17
	c0.81-2.53,2.52-5.23,4.7-7.41c4.21-4.22,8.5-6.47,11.78-6.18c1.73,0.15,3.38,1.38,4.11,2.6c-1.01-1.14-2.47-2.21-4.13-2.36
	c-3.2-0.28-7.43,1.95-11.59,6.11c-2.15,2.16-3.85,4.83-4.64,7.32c-0.83,2.59-0.61,4.7,0.62,5.93c1.99,2,7.15,0.66,11.04-2.86
	c2.27-2.05,3.59-4.26,3.64-6.06c0.02-0.92-0.28-1.7-0.89-2.31c-1.29-1.29-4.88-0.31-7.13,1.94c-1.76,1.76-2.34,4.05-1.29,5.1
	c0.27,0.27,0.65,0.41,1.11,0.41c0.91,0,2.03-0.55,2.92-1.44c0,0,0.01,0,0.01-0.01c0.71-0.71,1.62-2.24,0.91-3.28
	c0.99,0.74,0.02,2.69-0.74,3.45c0,0-0.01,0.01-0.01,0.01c-0.95,0.95-2.1,1.52-3.09,1.52c-0.53,0-0.97-0.17-1.28-0.48
	c-1.14-1.14-0.56-3.58,1.3-5.44c2.37-2.38,6.07-3.33,7.46-1.93c0.66,0.66,0.99,1.5,0.96,2.49C56.47,52.48,55.4,54.44,53.48,56.36z"
	/>
<path class="st3" d="M52.36,55.91c-1.52,1.52-3.29,2.64-5.01,3.15c-1.74,0.52-3.18,0.34-4.03-0.51c-1.04-1.04-1.27-2.89-0.63-5.06
	c0.64-2.15,2.07-4.45,3.93-6.31c3.37-3.37,6.98-5.12,10.17-4.91c1.97,0.13,3.75,1.1,4.76,2.61c-1.26-1.37-2.87-2.25-4.78-2.37
	c-3.13-0.2-6.68,1.52-9.99,4.84c-1.83,1.84-3.24,4.1-3.87,6.21c-0.62,2.09-0.41,3.85,0.56,4.83c0.79,0.79,2.13,0.95,3.79,0.45
	c1.65-0.5,3.44-1.62,4.91-3.09c1.5-1.51,2.81-4.09,2.29-5.91c-0.27-0.93-0.99-1.53-2.13-1.78l0.05-0.23
	c1.21,0.27,2.01,0.94,2.31,1.95C55.27,51.69,53.95,54.31,52.36,55.91z"/>
<path class="st3" d="M61.03,47.05c-1.03-1.22-2.53-2.14-4.29-2.29c-2.72-0.24-5.92,1.13-8.35,3.56c-1.5,1.51-2.6,3.25-3.08,4.9
	c-0.47,1.63-0.29,2.96,0.52,3.77c0.4,0.4,0.96,0.59,1.64,0.54c1.53-0.1,3.36-1.29,4.78-3.12c0.91-1.18,1.12-3.33,0.46-4.69
	c-0.26-0.52-0.87-1.15-1.79-1.15l0.11-0.23c0.82,0,1.49,0.45,1.89,1.28c0.7,1.43,0.48,3.69-0.48,4.94
	c-1.45,1.88-3.35,3.11-4.95,3.21c-0.75,0.05-1.38-0.17-1.83-0.62c-0.87-0.87-1.07-2.29-0.58-4.01c0.49-1.69,1.6-3.46,3.13-5
	c2.47-2.48,5.75-3.87,8.54-3.63C58.6,44.67,60.21,45.75,61.03,47.05z"/>
<path class="st3" d="M60.46,48.76c-1.34-1.32-2.51-2.14-4.21-2.24c-2.62-0.17-5.72,1.36-8.1,3.99l-0.18-0.16
	c2.46-2.72,5.56-4.24,8.3-4.07C58.05,46.39,59.22,47.18,60.46,48.76z"/>
<path class="st3" d="M55.01,56.46c0.91-0.84,1.73-1.8,2.31-2.89c0.59-1.08,0.94-2.33,0.75-3.55c-0.17-1.22-1-2.31-2.13-2.76
	c-1.13-0.47-2.42-0.36-3.55,0.07l-0.08-0.23c1.18-0.42,2.53-0.52,3.71-0.01c1.18,0.49,2.03,1.65,2.18,2.91
	c0.17,1.26-0.21,2.52-0.81,3.6C56.76,54.69,55.93,55.63,55.01,56.46z"/>
<path class="st3" d="M9.54,14.52c0.12,0.18,0.34,0.55,0.03,0.95c-0.11,0.14-0.71,0.78-0.71,0.78l0.79,0.94
	c0.54-0.69,1.03-1.23,1.26-1.59c0.45-0.74,0.11-1.58-0.16-1.97c-0.93-1.31-1.86-2.62-2.79-3.93c-0.36,0.36-0.71,0.74-1.04,1.12
	C7.85,12.14,8.61,13.21,9.54,14.52z"/>
<path class="st3" d="M12.74,6.59c-0.5,0.07-0.99,0.3-1.48,0.69c-0.49,0.39-0.83,0.84-1.04,1.33C10.01,9.11,9.94,9.62,10,10.14
	c0.06,0.53,0.26,1.03,0.58,1.5c0.33,0.48,0.7,0.81,1.12,0.99c0.42,0.18,0.86,0.21,1.34,0.09c0.47-0.11,0.95-0.37,1.44-0.76
	c0.49-0.39,0.85-0.81,1.09-1.26c0.23-0.45,0.34-0.92,0.3-1.41c-0.04-0.49-0.22-0.97-0.54-1.45c-0.33-0.48-0.71-0.82-1.16-1.04
	C13.71,6.59,13.24,6.52,12.74,6.59z M14.44,10.04c-0.05,0.4-0.25,0.73-0.59,1.01c-0.35,0.28-0.7,0.39-1.06,0.32
	c-0.36-0.07-0.7-0.34-1.03-0.82c-0.33-0.48-0.47-0.92-0.44-1.32c0.04-0.41,0.22-0.75,0.57-1.03c0.35-0.28,0.71-0.37,1.08-0.29
	c0.37,0.08,0.73,0.36,1.05,0.83C14.34,9.21,14.48,9.64,14.44,10.04z"/>
<path class="st3" d="M20.05,3.29c-0.56,0.15-1.12,0.31-1.67,0.49c-0.12,0.76-0.23,1.52-0.34,2.31c-0.81-0.42-1.61-0.83-2.41-1.23
	c-0.52,0.24-1.04,0.49-1.55,0.76c1.26,0.55,2.54,1.13,3.83,1.74c0.34,0.58,0.68,1.15,1.02,1.73c0.47-0.2,0.95-0.39,1.43-0.56
	c-0.34-0.57-0.67-1.15-1.01-1.72C19.57,5.6,19.8,4.42,20.05,3.29z"/>
</svg>
