<?xml version="1.0" encoding="utf-8"?>
<!-- Generator: Adobe Illustrator 15.0.0, SVG Export Plug-In . SVG Version: 6.00 Build 0)  -->
<!DOCTYPE svg PUBLIC "-//W3C//DTD SVG 1.1//EN" "http://www.w3.org/Graphics/SVG/1.1/DTD/svg11.dtd" [
	<!ENTITY ns_flows "http://ns.adobe.com/Flows/1.0/">
	<!ENTITY ns_extend "http://ns.adobe.com/Extensibility/1.0/">
	<!ENTITY ns_ai "http://ns.adobe.com/AdobeIllustrator/10.0/">
	<!ENTITY ns_graphs "http://ns.adobe.com/Graphs/1.0/">
]>
<svg version="1.1" id="Layer_1" xmlns:x="&ns_extend;" xmlns:i="&ns_ai;" xmlns:graph="&ns_graphs;"
	 xmlns="http://www.w3.org/2000/svg" xmlns:xlink="http://www.w3.org/1999/xlink" xmlns:a="http://ns.adobe.com/AdobeSVGViewerExtensions/3.0/"
	 x="0px" y="0px" width="64px" height="64px" viewBox="0 0 64 64" enable-background="new 0 0 64 64" xml:space="preserve">
<linearGradient id="SVGID_1_" gradientUnits="userSpaceOnUse" x1="0.8691" y1="26.0249" x2="61.9414" y2="26.0249">
	<stop  offset="0" style="stop-color:#5B666E"/>
	<stop  offset="0.2305" style="stop-color:#515862"/>
	<stop  offset="1" style="stop-color:#302C3B"/>
	<a:midPointStop  offset="0" style="stop-color:#5B666E"/>
	<a:midPointStop  offset="0.4788" style="stop-color:#5B666E"/>
	<a:midPointStop  offset="1" style="stop-color:#302C3B"/>
</linearGradient>
<path fill="url(#SVGID_1_)" d="M0.877,35.773c2.067-6.464,8.735-5.12,10.106-10.777c5.806-3.776,14.171-12.848,14.171-12.848h10.805
	l25.982,23.625c-9.041,2.681-20.406,2.783-20.406,2.783l-11.514,1.345c0,0-13.686-0.249-16.159-2.13l-6.946-0.854
	C6.917,36.917,0.621,36.574,0.877,35.773z"/>
<path fill="#1A1626" d="M30.829,12.148l0.648,6.383l-2.367,2.401l-1.3,4.241l-6.679,4.691l11.017-4.956l-4.265,3.249l1.921,5.831
	l-6.61-2.091l6.827,8.003l11.514-1.345l-3.864-9.723l13.71,6.69l-8.967-8.898l-2.35-5.483l10.596,7.854
	c0,0,3.533,6.437,11.281,6.777c-1.425-2.592-4.51-3.881-5.673-5.872c-1.443-2.476-4.665-3.983-5.608-5.955
	C46.246,19.959,30.829,12.148,30.829,12.148z"/>
<polygon fill="#1A1626" points="20.765,23.284 18.377,27.602 3.769,34.629 20.398,27.727 21.946,24.03 29.144,14.815 "/>
<path fill="#1A1626" d="M17.892,32.136c-6.717,2.196-10.975,4.781-10.975,4.781l6.946,0.854
	C13.862,37.771,15.089,34.039,17.892,32.136z"/>
<path fill="#E6EBEF" d="M38.544,16.826c0,0-2.972-10.826-3.483-10.826c-0.242,0-0.467,0.087-0.912,0.227
	c-0.99,0.311-1.088,0.104-2-0.108c-0.742-0.173-1.34,0.247-1.786,0.501c-1.829,1.042-4.67,4.873-6.231,6.236
	c-7.125,5.277-10.269,10.026-10.269,10.026l4.679-1.807l-1.208,2.512c0,0,3.498-1.247,5.767-2.432
	c1.352-0.709,3.523-3.295,3.813-2.784c0.477,0.842-1.883,3.314-1.883,3.314l1.121-0.312l-1.121,2.035l3.273-2.739l-1.725,2.917
	c0,0,2.467-2.694,3.025-3.052c3.951-2.518-1.811,3.671-1.811,3.671s6.625-3.142,8.909-3.451c2.966-0.395,6.278,2.343,6.278,2.343
	L38.544,16.826z"/>
<path fill="#B3C2C6" d="M42.656,13.982c-2.256-1.732-3.746-5.12-5.844-7.01C36.45,6.642,35.61,6,35.061,6
	c-1.148,0-1.963,3.299-3.019,3.917c0,0,0.644,0.708,0.263,2.211c0,0,1.249-1.296,1.249-0.294c0,2.002,1.645,1.883,1.953,2.799
	c1.246,3.684,3.234,6.218,4.174,6.571c1.844,0.697,3.287,1.901,3.287,1.901l-0.763-1.856c2.375-0.092,3.765,1.149,3.765,1.149
	s1.805-0.938,4.691,1.548C48.783,20.031,45.825,16.406,42.656,13.982z"/>
<path fill="#E6EBEF" d="M42.125,19.573c0,0-2.673-2.796-7.252-9.834C39.135,20.089,42.125,19.573,42.125,19.573z"/>
<path fill="#B3C2C6" d="M24.131,18.058c0,0,2.671-2.793,7.252-9.832C27.121,18.576,24.131,18.058,24.131,18.058z"/>
<path fill="#B3C2C6" d="M20.106,18.024c0,0,2.091-1.401,5.941-5.283C22.019,18.864,20.106,18.024,20.106,18.024z"/>
<path fill="#E6EBEF" d="M42.383,16.168c0,0-1.643-1.72-4.462-6.049C40.544,16.485,42.383,16.168,42.383,16.168z"/>
<path fill="#B3C2C6" d="M32.042,13.982c0,0,0.546,1.393,0.946,1.646c0.4,0.258,1.536,1.354,1.536,1.792
	c0,0.44,1.127,2.054,1.526,2.126c0.409,0.073-0.964,0.146-2.497-1.976c-1.536-2.127-1.511,1.533-1.511,1.533
	S30.862,17.21,32.042,13.982z"/>
<linearGradient id="SVGID_2_" gradientUnits="userSpaceOnUse" x1="0" y1="36.8711" x2="64" y2="36.8711">
	<stop  offset="0" style="stop-color:#9BE323"/>
	<stop  offset="1" style="stop-color:#52A100"/>
	<a:midPointStop  offset="0" style="stop-color:#9BE323"/>
	<a:midPointStop  offset="0.5" style="stop-color:#9BE323"/>
	<a:midPointStop  offset="1" style="stop-color:#52A100"/>
</linearGradient>
<path fill="url(#SVGID_2_)" d="M0,38.272c0-3.305,1.564-5.519,3.104-5.169c1.45-2.684,4.602-2.241,4.307-0.07
	c0.764-0.207,2.946,1.145,2.612,2.402c1.627-1.142,3.792-0.229,4.438,0.79c0.781-1.272,5.154-2.234,5.735,0.682
	c1.025-2.077,5.184-2.191,6.604-0.816c0.99-2.26,5.223-1.462,6.173,1.428c1.702-3.2,5.42-3.556,7.302-2.215
	c0.504-0.857,3.859-2.573,5.737-0.286c1.491-1.282,4.504-1.331,5.66,0.617c-0.515-3.652,2.323-3.862,4.085-2.975
	c-0.379-1.96,3.027-1.835,3.639-0.349c0.87-0.539,2.52,0.146,2.41,2.317C63.121,34.436,64,36.815,64,38.272
	C64,38.272,38.064,47.898,0,38.272z"/>
<linearGradient id="SVGID_3_" gradientUnits="userSpaceOnUse" x1="32.0005" y1="52.332" x2="32.0005" y2="38.2725">
	<stop  offset="0" style="stop-color:#009AF7"/>
	<stop  offset="0.1209" style="stop-color:#0DA3F4"/>
	<stop  offset="0.4955" style="stop-color:#30BAEC"/>
	<stop  offset="0.8019" style="stop-color:#46C9E8"/>
	<stop  offset="1" style="stop-color:#4ECEE6"/>
	<a:midPointStop  offset="0" style="stop-color:#009AF7"/>
	<a:midPointStop  offset="0.3879" style="stop-color:#009AF7"/>
	<a:midPointStop  offset="1" style="stop-color:#4ECEE6"/>
</linearGradient>
<path fill="url(#SVGID_3_)" d="M64,38.272c-21.869,1.638-42.129,1.638-64,0c0,0.742,2.304,1.298,5.758,1.67
	c-2.408,0.356-3.936,0.833-3.936,1.434c0,0.979,4.008,1.632,9.367,1.966c-3.183,0.368-5.288,0.905-5.288,1.611
	c0,1.093,4.988,1.782,11.281,2.066c-2.396,0.313-3.943,0.747-3.943,1.306c0,1.004,4.975,1.606,10.946,1.808
	c-2.219,0.203-3.752,0.528-3.752,0.976c0,1.516,17.42,1.623,19.917,0.325c5.875-0.078,11.309-0.594,11.309-1.549
	c0-0.582-2.025-1.001-4.936-1.258c5.311-0.245,9.511-0.828,9.511-1.751c0-0.387-0.739-0.713-1.981-0.98
	c3.515-0.37,5.873-0.929,5.873-1.678c0-0.666-1.865-1.184-4.742-1.55c4.516-0.357,7.728-0.971,7.728-1.848
	c0-0.473-0.939-0.87-2.511-1.19C62.704,39.282,64,38.831,64,38.272z"/>
<path fill="#129FDB" d="M46.57,53.647c0,1.406-17.427,1.406-17.427,0C29.144,52.239,46.57,52.239,46.57,53.647z"/>
<path fill="#129FDB" d="M39.673,55.944c0,1.23-15.26,1.23-15.26,0S39.673,54.714,39.673,55.944z"/>
<path fill="#129FDB" d="M40.046,57.339c0,0.882-10.902,0.882-10.902,0C29.144,56.46,40.046,56.46,40.046,57.339z"/>
</svg>
