<?xml version="1.0" encoding="utf-8"?>
<!-- Generator: Adobe Illustrator 24.1.2, SVG Export Plug-In . SVG Version: 6.00 Build 0)  -->
<svg version="1.1" id="Layer_1" xmlns="http://www.w3.org/2000/svg" xmlns:xlink="http://www.w3.org/1999/xlink" x="0px" y="0px"
	 width="64px" height="64px" viewBox="0 0 64 64" style="enable-background:new 0 0 64 64;" xml:space="preserve">
<style type="text/css">
	.st0{fill:url(#SVGID_1_);}
	.st1{fill:url(#SVGID_2_);}
	.st2{fill:url(#SVGID_3_);}
	.st3{fill:#1A1626;}
	.st4{fill:url(#SVGID_4_);}
	.st5{fill:url(#SVGID_5_);}
</style>
<linearGradient id="SVGID_1_" gradientUnits="userSpaceOnUse" x1="32" y1="62" x2="32" y2="2">
	<stop  offset="0" style="stop-color:#FF9500"/>
	<stop  offset="0.1919" style="stop-color:#FFAD00"/>
	<stop  offset="0.5455" style="stop-color:#FFD500"/>
	<stop  offset="0.8272" style="stop-color:#FFED00"/>
	<stop  offset="1" style="stop-color:#FFF600"/>
</linearGradient>
<circle class="st0" cx="32" cy="32" r="30"/>
<radialGradient id="SVGID_2_" cx="14.1895" cy="35.1269" r="11" gradientUnits="userSpaceOnUse">
	<stop  offset="0" style="stop-color:#FF6399;stop-opacity:0.55"/>
	<stop  offset="0.2023" style="stop-color:#FF6596;stop-opacity:0.4387"/>
	<stop  offset="0.3648" style="stop-color:#FF6C8C;stop-opacity:0.3493"/>
	<stop  offset="0.5135" style="stop-color:#FF767B;stop-opacity:0.2676"/>
	<stop  offset="0.654" style="stop-color:#FF8663;stop-opacity:0.1903"/>
	<stop  offset="0.7887" style="stop-color:#FF9A44;stop-opacity:0.1162"/>
	<stop  offset="0.9173" style="stop-color:#FFB21F;stop-opacity:0.0455"/>
	<stop  offset="1" style="stop-color:#FFC403;stop-opacity:0"/>
</radialGradient>
<circle class="st1" cx="14.19" cy="35.13" r="11"/>
<radialGradient id="SVGID_3_" cx="49.8105" cy="35.1269" r="11" gradientUnits="userSpaceOnUse">
	<stop  offset="0" style="stop-color:#FF6399;stop-opacity:0.55"/>
	<stop  offset="0.2023" style="stop-color:#FF6596;stop-opacity:0.4387"/>
	<stop  offset="0.3648" style="stop-color:#FF6C8C;stop-opacity:0.3493"/>
	<stop  offset="0.5135" style="stop-color:#FF767B;stop-opacity:0.2676"/>
	<stop  offset="0.654" style="stop-color:#FF8663;stop-opacity:0.1903"/>
	<stop  offset="0.7887" style="stop-color:#FF9A44;stop-opacity:0.1162"/>
	<stop  offset="0.9173" style="stop-color:#FFB21F;stop-opacity:0.0455"/>
	<stop  offset="1" style="stop-color:#FFC403;stop-opacity:0"/>
</radialGradient>
<circle class="st2" cx="49.81" cy="35.13" r="11"/>
<path class="st3" d="M44.52,37.12c-7.63,5.83-17.43,5.82-25.05,0c-1.08-0.82-1.73,0.07-1.38,0.77c5.85,11.87,21.96,11.87,27.81,0
	C46.25,37.19,45.61,36.3,44.52,37.12z"/>
<path class="st3" d="M15.74,27.1c4.27-5.52,7.26-5.52,11.53,0c0.65,0.83,1.97,0.21,1.7-0.6c-3.63-10.68-11.3-10.68-14.93,0
	C13.76,27.32,15.09,27.94,15.74,27.1z"/>
<path class="st3" d="M36.74,27.1c4.27-5.52,7.26-5.52,11.53,0c0.65,0.83,1.97,0.21,1.7-0.6c-3.63-10.68-11.3-10.68-14.93,0
	C34.76,27.32,36.09,27.94,36.74,27.1z"/>
<linearGradient id="SVGID_4_" gradientUnits="userSpaceOnUse" x1="-532" y1="268" x2="-532" y2="298" gradientTransform="matrix(1 0 0 -1 564 300)">
	<stop  offset="0.6424" style="stop-color:#FFE81A;stop-opacity:0"/>
	<stop  offset="0.8788" style="stop-color:#FF9500"/>
</linearGradient>
<path class="st4" d="M32,2C15.43,2,2,15.43,2,32h60C62,15.43,48.57,2,32,2z"/>
<linearGradient id="SVGID_5_" gradientUnits="userSpaceOnUse" x1="-532" y1="282.0012" x2="-532" y2="298" gradientTransform="matrix(1 0 0 -1 564 300)">
	<stop  offset="0.0121" style="stop-color:#0174C7"/>
	<stop  offset="0.8121" style="stop-color:#00D0FF"/>
</linearGradient>
<path class="st5" d="M64,10c0-4.42-14.33-8-32-8S0,5.58,0,10c0,1.92,2.72,3.69,7.25,5.07c0.58-0.84,1.2-1.66,1.86-2.44
	C7.14,11.99,6,11.27,6,10.5C6,8.02,17.64,6,32,6s26,2.02,26,4.5c0,0.77-1.14,1.49-3.11,2.13c0.66,0.78,1.28,1.6,1.86,2.44
	C61.28,13.69,64,11.92,64,10z"/>
</svg>
