<?xml version="1.0" encoding="utf-8"?>
<!-- Generator: Adobe Illustrator 24.1.2, SVG Export Plug-In . SVG Version: 6.00 Build 0)  -->
<svg version="1.1" id="Layer_1" xmlns="http://www.w3.org/2000/svg" xmlns:xlink="http://www.w3.org/1999/xlink" x="0px" y="0px"
	 width="64px" height="64px" viewBox="0 0 64 64" style="enable-background:new 0 0 64 64;" xml:space="preserve">
<style type="text/css">
	.st0{fill:url(#SVGID_1_);}
	.st1{fill:#1A1626;}
	.st2{fill:#FD7383;}
	.st3{fill:url(#SVGID_2_);}
</style>
<linearGradient id="SVGID_1_" gradientUnits="userSpaceOnUse" x1="32" y1="62" x2="32" y2="2">
	<stop  offset="0" style="stop-color:#FF9500"/>
	<stop  offset="0.1919" style="stop-color:#FFAD00"/>
	<stop  offset="0.5455" style="stop-color:#FFD500"/>
	<stop  offset="0.8272" style="stop-color:#FFED00"/>
	<stop  offset="1" style="stop-color:#FFF600"/>
</linearGradient>
<circle class="st0" cx="32" cy="32" r="30"/>
<ellipse class="st1" cx="22" cy="23" rx="4" ry="7"/>
<ellipse class="st1" cx="42" cy="23" rx="4" ry="7"/>
<path class="st1" d="M47.24,36.33C43.6,35.65,38.47,35,32,35s-11.61,0.65-15.25,1.33c-1.84,0.34-2.84,1.87-2.75,3.41
	C14.45,47.49,20.4,54,32,54c11.6,0,17.55-6.51,17.99-14.27C50.08,38.19,49.08,36.67,47.24,36.33z"/>
<path class="st2" d="M23.47,50c0,0,3.79,2,8.53,2c4.74,0,8.53-2,8.53-2s-2.84-3-8.53-2C26.32,47,23.47,50,23.47,50z"/>
<linearGradient id="SVGID_2_" gradientUnits="userSpaceOnUse" x1="16.0116" y1="39.4976" x2="47.9883" y2="39.4976">
	<stop  offset="0" style="stop-color:#CFD7E6"/>
	<stop  offset="0.0368" style="stop-color:#DAE0EC"/>
	<stop  offset="0.1263" style="stop-color:#EEF1F6"/>
	<stop  offset="0.2147" style="stop-color:#FBFCFD"/>
	<stop  offset="0.3" style="stop-color:#FFFFFF"/>
	<stop  offset="0.7" style="stop-color:#FFFFFF"/>
	<stop  offset="0.7853" style="stop-color:#FBFCFD"/>
	<stop  offset="0.8737" style="stop-color:#EEF1F6"/>
	<stop  offset="0.9632" style="stop-color:#DAE0EC"/>
	<stop  offset="1" style="stop-color:#CFD7E6"/>
</linearGradient>
<path class="st3" d="M46.51,38.24C44,37.79,38.69,37,32,37c-6.69,0-12,0.79-14.51,1.24c-1.57,0.28-1.6,0.97-1.39,2.28
	c0.18,1.15,0.31,1.45,1.52,1.47c1.12,0.02,14.38,0,14.38,0s13.26,0.02,14.38,0c1.22-0.02,1.34-0.32,1.52-1.47
	C48.11,39.21,48.07,38.53,46.51,38.24z"/>
</svg>
