<?xml version="1.0" encoding="utf-8"?>
<!-- Generator: Adobe Illustrator 24.1.2, SVG Export Plug-In . SVG Version: 6.00 Build 0)  -->
<svg version="1.1" id="Layer_1" xmlns="http://www.w3.org/2000/svg" xmlns:xlink="http://www.w3.org/1999/xlink" x="0px" y="0px"
	 width="64px" height="64px" viewBox="0 0 64 64" style="enable-background:new 0 0 64 64;" xml:space="preserve">
<style type="text/css">
	.st0{fill:url(#SVGID_1_);}
	.st1{fill:#1A1626;}
	.st2{fill:url(#SVGID_2_);}
	.st3{fill:url(#SVGID_3_);}
</style>
<linearGradient id="SVGID_1_" gradientUnits="userSpaceOnUse" x1="32.6734" y1="61.7211" x2="32.6734" y2="1.7205" gradientTransform="matrix(1 0 0 1 -0.6734 0.2792)">
	<stop  offset="0" style="stop-color:#FF9500"/>
	<stop  offset="0.1919" style="stop-color:#FFAD00"/>
	<stop  offset="0.5455" style="stop-color:#FFD500"/>
	<stop  offset="0.8272" style="stop-color:#FFED00"/>
	<stop  offset="1" style="stop-color:#FFF600"/>
</linearGradient>
<path class="st0" d="M32,2c16.57,0,30,13.43,30,30c0,16.57-13.43,30-30,30C15.43,62,2,48.57,2,32C2,15.43,15.43,2,32,2z"/>
<path class="st1" d="M16.1,39.88c4.83,14.3,26.97,14.3,31.8,0c0.31-0.91-0.14-1.97-1.02-0.67c-6.37,9.38-23.39,9.38-29.76,0
	C16.23,37.91,15.79,38.97,16.1,39.88z"/>
<linearGradient id="SVGID_2_" gradientUnits="userSpaceOnUse" x1="42.0233" y1="44.453" x2="53.5126" y2="56.7081" gradientTransform="matrix(1 0 0 1 -0.6734 0.2792)">
	<stop  offset="0" style="stop-color:#690900"/>
	<stop  offset="0.0186" style="stop-color:#76120B"/>
	<stop  offset="0.0782" style="stop-color:#9A2C2B"/>
	<stop  offset="0.1433" style="stop-color:#B94247"/>
	<stop  offset="0.2141" style="stop-color:#D2545D"/>
	<stop  offset="0.2928" style="stop-color:#E5626E"/>
	<stop  offset="0.3837" style="stop-color:#F36C7A"/>
	<stop  offset="0.4978" style="stop-color:#FB7181"/>
	<stop  offset="0.7091" style="stop-color:#FD7383"/>
</linearGradient>
<path class="st2" d="M36.63,50.03c0,0,3.75,3.89,4.64,4.78c4.82,4.82,9.46,5.02,12.2,2.29c2.73-2.74,2.53-7.38-2.29-12.2
	c-0.89-0.89-3.86-3.53-3.86-3.53s-1.87-0.73-5.25,3.57C36.46,48.06,36.63,50.03,36.63,50.03z"/>
<linearGradient id="SVGID_3_" gradientUnits="userSpaceOnUse" x1="42.9472" y1="44.7182" x2="52.0921" y2="53.5477" gradientTransform="matrix(1 0 0 1 -0.6734 0.2792)">
	<stop  offset="0" style="stop-color:#420600;stop-opacity:0.18"/>
	<stop  offset="0.1185" style="stop-color:#5F0800;stop-opacity:0.1658"/>
	<stop  offset="0.2926" style="stop-color:#820B00;stop-opacity:0.1449"/>
	<stop  offset="0.4686" style="stop-color:#9E0D00;stop-opacity:0.1238"/>
	<stop  offset="0.6448" style="stop-color:#B20F00;stop-opacity:0.1026"/>
	<stop  offset="0.8217" style="stop-color:#BE1000;stop-opacity:0.0814"/>
	<stop  offset="1" style="stop-color:#C21000;stop-opacity:0.06"/>
</linearGradient>
<path class="st3" d="M42.33,44.61c0,0,4.7,3.42,8.98,9.19c-5.75-6.15-9.69-8.61-9.69-8.61s0.19-0.16,0.45-0.27
	C42.29,44.54,42.33,44.61,42.33,44.61z"/>
<path class="st1" d="M15.74,29.1c4.27-5.52,7.26-5.52,11.53,0c0.65,0.84,1.97,0.21,1.7-0.6c-3.63-10.68-11.3-10.68-14.93,0
	C13.76,29.32,15.09,29.94,15.74,29.1z"/>
<path class="st1" d="M36.74,29.1c4.27-5.52,7.26-5.52,11.53,0c0.65,0.83,1.97,0.21,1.7-0.6c-3.63-10.68-11.3-10.68-14.93,0
	C34.76,29.32,36.09,29.94,36.74,29.1z"/>
</svg>
