<?xml version="1.0" encoding="utf-8"?>
<!-- Generator: Adobe Illustrator 24.1.2, SVG Export Plug-In . SVG Version: 6.00 Build 0)  -->
<svg version="1.1" id="Layer_1" xmlns="http://www.w3.org/2000/svg" xmlns:xlink="http://www.w3.org/1999/xlink" x="0px" y="0px"
	 width="64px" height="64px" viewBox="0 0 64 64" style="enable-background:new 0 0 64 64;" xml:space="preserve">
<style type="text/css">
	.st0{fill:url(#SVGID_1_);}
	.st1{fill:#1A1626;}
</style>
<linearGradient id="SVGID_1_" gradientUnits="userSpaceOnUse" x1="31.982" y1="62.1857" x2="31.982" y2="2.1867" gradientTransform="matrix(1 0 0 1 0.018 -0.1862)">
	<stop  offset="0" style="stop-color:#FF9500"/>
	<stop  offset="0.1919" style="stop-color:#FFAD00"/>
	<stop  offset="0.5455" style="stop-color:#FFD500"/>
	<stop  offset="0.8272" style="stop-color:#FFED00"/>
	<stop  offset="1" style="stop-color:#FFF600"/>
</linearGradient>
<path class="st0" d="M32,2c16.57,0,30,13.43,30,30c0,16.57-13.43,30-30,30C15.43,62,2,48.57,2,32C2,15.43,15.43,2,32,2z"/>
<path class="st1" d="M15.48,31.97c3.25-6.18,6.19-6.7,11.36-2c0.78,0.71,1.98-0.13,1.57-0.88c-5.43-9.88-12.98-8.55-14.7,2.59
	C13.57,32.52,14.99,32.91,15.48,31.97z"/>
<path class="st1" d="M36.16,28.32c3.25-6.18,6.19-6.7,11.36-2c0.78,0.71,1.98-0.13,1.57-0.88c-5.43-9.88-12.98-8.55-14.7,2.59
	C34.25,28.88,35.67,29.26,36.16,28.32z"/>
<path class="st1" d="M38.38,51.55l-1.49,0.26c-0.78,0.14-1.52-0.38-1.66-1.16c-0.14-0.78,0.38-1.52,1.16-1.66l1.49-0.26
	c1.04-0.18,1.83-0.53,2.21-0.97c0.23-0.26,0.31-0.56,0.25-0.91c-0.33-1.85-2.81-2.41-2.81-2.41s2.14-1.33,1.81-3.23
	c-0.06-0.35-0.24-0.6-0.54-0.77c-0.51-0.28-1.36-0.34-2.4-0.15l-1.5,0.26c-0.78,0.14-1.52-0.38-1.66-1.16
	c-0.14-0.78,0.38-1.52,1.16-1.66l1.49-0.26c1.74-0.31,3.18-0.15,4.29,0.47c1.06,0.59,1.76,1.57,1.97,2.77c0.19,1.06-0.02,2.13-0.5,3
	c0.75,0.65,1.32,1.58,1.5,2.65c0.21,1.2-0.11,2.36-0.9,3.28C41.43,50.6,40.12,51.25,38.38,51.55z"/>
</svg>
