<?xml version="1.0" encoding="utf-8"?>
<!-- Generator: Adobe Illustrator 24.1.2, SVG Export Plug-In . SVG Version: 6.00 Build 0)  -->
<svg version="1.1" id="Layer_1" xmlns="http://www.w3.org/2000/svg" xmlns:xlink="http://www.w3.org/1999/xlink" x="0px" y="0px"
	 width="64px" height="64px" viewBox="0 0 64 64" style="enable-background:new 0 0 64 64;" xml:space="preserve">
<style type="text/css">
	.st0{fill:url(#SVGID_1_);}
	.st1{fill:#1A1626;}
	.st2{fill:#D69600;}
	.st3{fill:url(#SVGID_2_);}
</style>
<linearGradient id="SVGID_1_" gradientUnits="userSpaceOnUse" x1="31.9664" y1="62.3595" x2="31.9664" y2="2.3595" gradientTransform="matrix(1 0 0 1 0.0336 -0.3595)">
	<stop  offset="0" style="stop-color:#FF9500"/>
	<stop  offset="0.1919" style="stop-color:#FFAD00"/>
	<stop  offset="0.5455" style="stop-color:#FFD500"/>
	<stop  offset="0.8272" style="stop-color:#FFED00"/>
	<stop  offset="1" style="stop-color:#FFF600"/>
</linearGradient>
<path class="st0" d="M32,2c16.57,0,30,13.43,30,30c0,16.57-13.43,30-30,30C15.43,62,2,48.57,2,32C2,15.43,15.43,2,32,2z"/>
<path class="st1" d="M38.38,51.55l-1.49,0.26c-0.78,0.14-1.52-0.38-1.66-1.16c-0.14-0.78,0.38-1.52,1.16-1.66l1.5-0.26
	c1.04-0.18,1.83-0.53,2.21-0.97c0.23-0.26,0.31-0.56,0.25-0.91c-0.33-1.85-2.81-2.41-2.81-2.41s2.14-1.33,1.81-3.23
	c-0.06-0.35-0.24-0.6-0.54-0.77c-0.51-0.28-1.36-0.34-2.4-0.15l-1.49,0.26c-0.78,0.14-1.52-0.38-1.66-1.16
	c-0.14-0.78,0.38-1.52,1.16-1.66l1.5-0.26c1.73-0.31,3.18-0.15,4.29,0.47c1.06,0.59,1.75,1.57,1.97,2.77c0.19,1.06-0.02,2.13-0.5,3
	c0.75,0.65,1.32,1.58,1.5,2.65c0.21,1.2-0.11,2.36-0.9,3.28C41.43,50.6,40.12,51.25,38.38,51.55z"/>
<path class="st1" d="M37.91,30.48c2.76-2.16,7.09-3.02,10.68-1.88c0.83,0.26,1.62-0.61,1.17-1.11c-4.07-4.63-11.1-3.38-13.33,2.35
	C36.18,30.47,37.22,31.02,37.91,30.48z"/>
<path class="st1" d="M20.79,26.03c2.17-0.38,4.33,1.51,4.81,4.23c0.48,2.72-0.9,5.24-3.07,5.62c-2.18,0.38-4.33-1.51-4.81-4.23
	C17.24,28.93,18.62,26.41,20.79,26.03z"/>
<path class="st2" d="M13.39,18.13c-8.64,7.4-2.27,7.55,5.78,2.19C23.72,17.29,19.07,13.25,13.39,18.13z"/>
<path class="st2" d="M41.18,16.48c-7.39,1.22-7.28,7.38-2.04,5.84C48.43,19.6,52.4,14.63,41.18,16.48z"/>
<linearGradient id="SVGID_2_" gradientUnits="userSpaceOnUse" x1="-8.5304" y1="53.2536" x2="-11.615" y2="69.71" gradientTransform="matrix(1 0 0 1 64.5095 -18.5367)">
	<stop  offset="0" style="stop-color:#FF1C23"/>
	<stop  offset="0.4164" style="stop-color:#F31317"/>
	<stop  offset="1" style="stop-color:#DB0100"/>
</linearGradient>
<path class="st3" d="M54.74,38.76c-2.46-4-9.26-2.44-9.26,2.58c0,3.02,2.53,5.15,7.47,9.14c1.67,1.35,1.91,1.35,3.59,0
	c4.93-3.99,7.47-6.12,7.47-9.14C64,36.33,57.2,34.77,54.74,38.76z"/>
</svg>
