<?xml version="1.0" encoding="utf-8"?>
<!-- Generator: Adobe Illustrator 24.1.2, SVG Export Plug-In . SVG Version: 6.00 Build 0)  -->
<svg version="1.1" id="Layer_1" xmlns="http://www.w3.org/2000/svg" xmlns:xlink="http://www.w3.org/1999/xlink" x="0px" y="0px"
	 width="64px" height="64px" viewBox="0 0 64 64" style="enable-background:new 0 0 64 64;" xml:space="preserve">
<style type="text/css">
	.st0{fill:url(#SVGID_1_);}
	.st1{fill:#1A1626;}
	.st2{fill:#D69600;}
</style>
<linearGradient id="SVGID_1_" gradientUnits="userSpaceOnUse" x1="32" y1="62" x2="32" y2="2">
	<stop  offset="0" style="stop-color:#FF9500"/>
	<stop  offset="0.1919" style="stop-color:#FFAD00"/>
	<stop  offset="0.5455" style="stop-color:#FFD500"/>
	<stop  offset="0.8272" style="stop-color:#FFED00"/>
	<stop  offset="1" style="stop-color:#FFF600"/>
</linearGradient>
<path class="st0" d="M32,2C15.43,2,2,15.43,2,32c0,16.57,13.43,30,30,30c16.57,0,30-13.43,30-30C62,15.43,48.57,2,32,2z"/>
<path class="st1" d="M27.27,34.95c-2.97,2.19-8.32,2.34-11.53,0c-0.74-0.54-1.97-0.17-1.7,0.46c2.8,6.42,12.13,6.41,14.93,0
	C29.24,34.79,28,34.41,27.27,34.95z"/>
<path class="st1" d="M36.74,34.95c2.97,2.19,8.32,2.34,11.53,0c0.74-0.54,1.97-0.17,1.7,0.46c-2.8,6.42-12.13,6.41-14.93,0
	C34.76,34.79,36,34.41,36.74,34.95z"/>
<path class="st1" d="M24.89,53c3.66-2.57,10.26-2.74,14.21,0c0.92,0.63,2.43,0.19,2.09-0.55c-3.46-7.54-14.95-7.52-18.4,0
	C22.46,53.19,23.98,53.63,24.89,53z"/>
<path class="st2" d="M15.05,22.44c-9.79,5.79-3.55,7.04,5.32,3.16C25.37,23.41,21.49,18.62,15.05,22.44z"/>
<path class="st2" d="M48.95,22.45c-6.44-3.81-10.32,0.97-5.32,3.16C52.5,29.49,58.74,28.24,48.95,22.45z"/>
</svg>
