<?xml version="1.0" encoding="utf-8"?>
<!-- Generator: Adobe Illustrator 24.1.2, SVG Export Plug-In . SVG Version: 6.00 Build 0)  -->
<svg version="1.1" id="Layer_1" xmlns="http://www.w3.org/2000/svg" xmlns:xlink="http://www.w3.org/1999/xlink" x="0px" y="0px"
	 width="64px" height="64px" viewBox="0 0 64 64" style="enable-background:new 0 0 64 64;" xml:space="preserve">
<style type="text/css">
	.st0{fill:url(#SVGID_1_);}
	.st1{fill:url(#SVGID_2_);}
	.st2{fill:url(#SVGID_3_);}
	.st3{fill:#1A1626;}
	.st4{fill:#D69600;}
</style>
<linearGradient id="SVGID_1_" gradientUnits="userSpaceOnUse" x1="37.79" y1="61.6763" x2="37.79" y2="1.6778" gradientTransform="matrix(1 0 0 1 -5.79 0.3229)">
	<stop  offset="0" style="stop-color:#FF9500"/>
	<stop  offset="0.1919" style="stop-color:#FFAD00"/>
	<stop  offset="0.5455" style="stop-color:#FFD500"/>
	<stop  offset="0.8272" style="stop-color:#FFED00"/>
	<stop  offset="1" style="stop-color:#FFF600"/>
</linearGradient>
<path class="st0" d="M32,2c16.57,0,30,13.43,30,30c0,16.57-13.43,30-30,30C15.43,62,2,48.57,2,32C2,15.43,15.43,2,32,2z"/>
<radialGradient id="SVGID_2_" cx="-7.2424" cy="-21.1711" r="9.9992" gradientTransform="matrix(1.0832 -0.191 0.191 1.0834 27.3331 62.2375)" gradientUnits="userSpaceOnUse">
	<stop  offset="0" style="stop-color:#FF6399;stop-opacity:0.55"/>
	<stop  offset="0.2023" style="stop-color:#FF6596;stop-opacity:0.4387"/>
	<stop  offset="0.3648" style="stop-color:#FF6C8C;stop-opacity:0.3493"/>
	<stop  offset="0.5135" style="stop-color:#FF767B;stop-opacity:0.2676"/>
	<stop  offset="0.654" style="stop-color:#FF8663;stop-opacity:0.1903"/>
	<stop  offset="0.7887" style="stop-color:#FF9A44;stop-opacity:0.1162"/>
	<stop  offset="0.9173" style="stop-color:#FFB21F;stop-opacity:0.0455"/>
	<stop  offset="1" style="stop-color:#FFC403;stop-opacity:0"/>
</radialGradient>
<path class="st1" d="M13.54,29.85c5.98-1.05,11.69,2.94,12.74,8.92c1.06,5.98-2.94,11.69-8.92,12.74
	c-5.98,1.06-11.69-2.94-12.74-8.92C3.56,36.61,7.55,30.91,13.54,29.85z"/>
<radialGradient id="SVGID_3_" cx="28.2515" cy="-20.8287" r="10.0005" gradientTransform="matrix(1.0832 -0.191 0.191 1.0833 23.9007 62.4573)" gradientUnits="userSpaceOnUse">
	<stop  offset="0" style="stop-color:#FF6399;stop-opacity:0.55"/>
	<stop  offset="0.2023" style="stop-color:#FF6596;stop-opacity:0.4387"/>
	<stop  offset="0.3648" style="stop-color:#FF6C8C;stop-opacity:0.3493"/>
	<stop  offset="0.5135" style="stop-color:#FF767B;stop-opacity:0.2676"/>
	<stop  offset="0.654" style="stop-color:#FF8663;stop-opacity:0.1903"/>
	<stop  offset="0.7887" style="stop-color:#FF9A44;stop-opacity:0.1162"/>
	<stop  offset="0.9173" style="stop-color:#FFB21F;stop-opacity:0.0455"/>
	<stop  offset="1" style="stop-color:#FFC403;stop-opacity:0"/>
</radialGradient>
<path class="st2" d="M48.61,23.66c5.98-1.05,11.69,2.94,12.74,8.92c1.05,5.99-2.94,11.69-8.92,12.74
	c-5.98,1.06-11.69-2.94-12.74-8.92C38.64,30.43,42.63,24.72,48.61,23.66z"/>
<path class="st3" d="M36.05,27.74c2.54-2.67,7.79-3.75,11.36-2c0.82,0.4,1.97-0.18,1.59-0.75c-3.88-5.84-13.05-4.21-14.7,2.59
	C34.14,28.24,35.42,28.4,36.05,27.74z"/>
<path class="st3" d="M26.73,29.38c-3.31-1.64-8.6-0.86-11.35,2c-0.64,0.66-1.91,0.51-1.75-0.16c1.65-6.81,10.83-8.42,14.7-2.59
	C28.7,29.2,27.55,29.79,26.73,29.38z"/>
<path class="st3" d="M38.38,51.55l-1.49,0.26c-0.78,0.14-1.52-0.38-1.66-1.16c-0.14-0.78,0.38-1.52,1.16-1.66l1.5-0.26
	c1.04-0.18,1.83-0.53,2.21-0.97c0.23-0.26,0.31-0.56,0.25-0.91c-0.33-1.85-2.81-2.41-2.81-2.41s2.14-1.33,1.81-3.23
	c-0.06-0.35-0.24-0.6-0.54-0.77c-0.51-0.28-1.36-0.34-2.4-0.15l-1.49,0.26c-0.78,0.14-1.52-0.38-1.66-1.16
	c-0.14-0.78,0.38-1.52,1.16-1.66l1.5-0.26c1.73-0.31,3.18-0.15,4.29,0.47c1.06,0.59,1.75,1.57,1.97,2.77c0.19,1.06-0.02,2.13-0.5,3
	c0.75,0.65,1.32,1.59,1.5,2.65c0.21,1.2-0.11,2.36-0.9,3.28C41.43,50.6,40.12,51.25,38.38,51.55z"/>
<path class="st4" d="M12.11,16.99c-8.63,7.4-2.27,7.55,5.79,2.19C22.45,16.16,17.8,12.12,12.11,16.99z"/>
<path class="st4" d="M45.54,11.11c-7.01-2.64-10,2.75-4.69,4.04C50.26,17.43,56.18,15.11,45.54,11.11z"/>
</svg>
