<?xml version="1.0" encoding="utf-8"?>
<!-- Generator: Adobe Illustrator 24.1.2, SVG Export Plug-In . SVG Version: 6.00 Build 0)  -->
<svg version="1.1" id="Layer_1" xmlns="http://www.w3.org/2000/svg" xmlns:xlink="http://www.w3.org/1999/xlink" x="0px" y="0px"
	 width="64px" height="64px" viewBox="0 0 64 64" style="enable-background:new 0 0 64 64;" xml:space="preserve">
<style type="text/css">
	.st0{fill:url(#SVGID_1_);}
	.st1{fill:#1A1626;}
	.st2{fill:#D69600;}
	.st3{fill:url(#SVGID_2_);}
	.st4{fill:url(#SVGID_3_);}
</style>
<linearGradient id="SVGID_1_" gradientUnits="userSpaceOnUse" x1="32" y1="62" x2="32" y2="2">
	<stop  offset="0" style="stop-color:#FF9500"/>
	<stop  offset="0.1919" style="stop-color:#FFAD00"/>
	<stop  offset="0.5455" style="stop-color:#FFD500"/>
	<stop  offset="0.8272" style="stop-color:#FFED00"/>
	<stop  offset="1" style="stop-color:#FFF600"/>
</linearGradient>
<circle class="st0" cx="32" cy="32" r="30"/>
<path class="st1" d="M39.67,50.47c-1.93-4.02-13.41-4.02-15.34,0c-1.54,3.21,2.49,1.56,7.67,1.56
	C37.17,52.03,41.21,53.68,39.67,50.47z"/>
<path class="st1" d="M27.26,31.49c-2.97,2.19-8.32,2.34-11.53,0c-0.74-0.54-1.97-0.17-1.7,0.46c2.8,6.42,12.13,6.41,14.93,0
	C29.24,31.33,28,30.95,27.26,31.49z"/>
<path class="st1" d="M36.74,31.49c2.97,2.19,8.32,2.34,11.53,0c0.74-0.54,1.97-0.17,1.7,0.46c-2.8,6.42-12.13,6.41-14.93,0
	C34.76,31.33,36,30.95,36.74,31.49z"/>
<path class="st2" d="M15.23,19.9c-10.26,4.91-4.15,6.71,5.02,3.61C25.42,21.77,21.98,16.66,15.23,19.9z"/>
<path class="st2" d="M48.77,19.92c-6.75-3.24-10.2,1.87-5.02,3.61C52.92,26.62,59.03,24.83,48.77,19.92z"/>
<radialGradient id="SVGID_2_" cx="93.2703" cy="-1055.2509" r="9.546" fx="96.6677" fy="-1050.4106" gradientTransform="matrix(0.6196 -0.7859 1.2343 0.9697 1289.5471 1142.2)" gradientUnits="userSpaceOnUse">
	<stop  offset="0.0551" style="stop-color:#73EFFF"/>
	<stop  offset="0.2848" style="stop-color:#70EDFF"/>
	<stop  offset="0.4461" style="stop-color:#67E5FF"/>
	<stop  offset="0.5866" style="stop-color:#57D8FF"/>
	<stop  offset="0.7151" style="stop-color:#42C7FF"/>
	<stop  offset="0.8354" style="stop-color:#25AFFF"/>
	<stop  offset="0.9482" style="stop-color:#0393FF"/>
	<stop  offset="0.9564" style="stop-color:#0091FF"/>
</radialGradient>
<path class="st3" d="M51.43,41.81c-6.06-2.76-15.54,0.15-16.32,0.81c-0.31,0.27-0.33,0.6,0.33,0.92c3.77,1.81,5.54,3.62,8.26,8.79
	C51.2,66.56,67.24,49.01,51.43,41.81z"/>
<linearGradient id="SVGID_3_" gradientUnits="userSpaceOnUse" x1="326.3154" y1="79.2454" x2="326.3154" y2="68.9415" gradientTransform="matrix(1.1848 -9.372139e-03 7.847642e-03 1 -342.491 -24.2651)">
	<stop  offset="0.0528" style="stop-color:#C4EEFF;stop-opacity:0"/>
	<stop  offset="0.4504" style="stop-color:#CDF0FF;stop-opacity:0.4197"/>
	<stop  offset="1" style="stop-color:#D4F2FF"/>
</linearGradient>
<path class="st4" d="M48.96,42.41c-4.61-1.75-11.85-0.11-12.46,0.31c-0.24,0.17-0.26,0.38,0.23,0.59c2.84,1.21,4.59,2.42,6.43,5.57
	C47.95,57.12,59.07,46.24,48.96,42.41z"/>
</svg>
