<?xml version="1.0" encoding="utf-8"?>
<!-- Generator: Adobe Illustrator 24.1.2, SVG Export Plug-In . SVG Version: 6.00 Build 0)  -->
<svg version="1.1" id="Layer_1" xmlns="http://www.w3.org/2000/svg" xmlns:xlink="http://www.w3.org/1999/xlink" x="0px" y="0px"
	 width="64px" height="64px" viewBox="0 0 64 64" style="enable-background:new 0 0 64 64;" xml:space="preserve">
<style type="text/css">
	.st0{fill:url(#SVGID_1_);}
	.st1{fill:#1A1626;}
	.st2{fill:#D69600;}
	.st3{fill:url(#SVGID_2_);}
	.st4{fill:url(#SVGID_3_);}
	.st5{fill:url(#SVGID_4_);}
	.st6{fill:url(#SVGID_5_);}
	.st7{fill:url(#SVGID_6_);}
	.st8{fill:url(#SVGID_7_);}
	.st9{fill:url(#SVGID_8_);}
	.st10{opacity:0.3;fill:#FFFFFF;}
</style>
<linearGradient id="SVGID_1_" gradientUnits="userSpaceOnUse" x1="32" y1="60" x2="32" y2="0.2011">
	<stop  offset="0" style="stop-color:#FF9500"/>
	<stop  offset="0.1919" style="stop-color:#FFAD00"/>
	<stop  offset="0.5455" style="stop-color:#FFD500"/>
	<stop  offset="0.8272" style="stop-color:#FFED00"/>
	<stop  offset="1" style="stop-color:#FFF600"/>
</linearGradient>
<path class="st0" d="M32,0c16.57,0,30,13.43,30,30c0,16.57-13.43,30-30,30S2,46.57,2,30C2,13.43,15.43,0,32,0z"/>
<path class="st1" d="M37.85,44.59c0.37-2.92-2.19-6.17-5.84-6.17c-3.65,0-6.25,3.27-5.84,6.17c0.39,2.75,3.07,1.02,5.84,1.03
	C34.88,45.62,37.5,47.35,37.85,44.59z"/>
<path class="st1" d="M26.74,23.38c-2.54,2.67-7.79,3.75-11.35,2c-0.83-0.4-1.97,0.18-1.59,0.75c3.88,5.84,13.06,4.21,14.7-2.59
	C28.66,22.87,27.37,22.71,26.74,23.38z"/>
<path class="st1" d="M37.26,23.38c2.54,2.67,7.79,3.75,11.36,2c0.82-0.4,1.97,0.18,1.59,0.75c-3.88,5.84-13.05,4.21-14.7-2.59
	C35.34,22.87,36.63,22.71,37.26,23.38z"/>
<path class="st2" d="M13.86,12.81c-9.25,6.62-2.92,7.32,5.57,2.69C24.23,12.88,19.95,8.45,13.86,12.81z"/>
<path class="st2" d="M50.14,12.83c-6.09-4.36-10.37,0.07-5.57,2.69C53.06,20.15,59.38,19.45,50.14,12.83z"/>
<linearGradient id="SVGID_2_" gradientUnits="userSpaceOnUse" x1="32.1047" y1="64" x2="32.1047" y2="40.3809">
	<stop  offset="0.2885" style="stop-color:#E0E8ED"/>
	<stop  offset="0.4309" style="stop-color:#DDE5EA;stop-opacity:0.7998"/>
	<stop  offset="0.5327" style="stop-color:#D5DCE1;stop-opacity:0.6567"/>
	<stop  offset="0.6219" style="stop-color:#C6CCD3;stop-opacity:0.5313"/>
	<stop  offset="0.7039" style="stop-color:#B1B6BE;stop-opacity:0.4161"/>
	<stop  offset="0.7809" style="stop-color:#9699A2;stop-opacity:0.3079"/>
	<stop  offset="0.8543" style="stop-color:#747681;stop-opacity:0.2048"/>
	<stop  offset="0.9247" style="stop-color:#4D4C59;stop-opacity:0.1058"/>
	<stop  offset="0.9912" style="stop-color:#201D2C;stop-opacity:0.0124"/>
	<stop  offset="1" style="stop-color:#1A1626;stop-opacity:0"/>
</linearGradient>
<path class="st3" d="M40.9,54.19c0.11-0.33,0.18-0.68,0.18-1.04c0-1.87-1.52-3.39-3.39-3.39c-0.39,0-0.76,0.08-1.11,0.2l-2.89-9.58
	h-3.38l-2.67,8.85c-0.69-0.41-1.48-0.66-2.33-0.66c-2.53,0-4.58,2.05-4.58,4.58c0,1.25,0.51,2.39,1.32,3.22
	c-0.43,0.57-0.69,1.27-0.69,2.03c0,1.87,1.52,3.39,3.39,3.39c0.65,0,1.26-0.19,1.77-0.51C27.79,62.93,29.77,64,32,64
	c2.42,0,4.54-1.25,5.77-3.14c0.58,0.36,1.25,0.58,1.98,0.58c2.06,0,3.73-1.67,3.73-3.73C43.48,56.06,42.39,54.68,40.9,54.19z"/>
<radialGradient id="SVGID_3_" cx="32" cy="57.125" r="6.875" gradientUnits="userSpaceOnUse">
	<stop  offset="0.5091" style="stop-color:#FFFFFF"/>
	<stop  offset="0.9152" style="stop-color:#FFFFFF;stop-opacity:0"/>
</radialGradient>
<circle class="st4" cx="32" cy="57.13" r="6.88"/>
<radialGradient id="SVGID_4_" cx="39.75" cy="57.7188" r="3.7268" gradientUnits="userSpaceOnUse">
	<stop  offset="0.5091" style="stop-color:#FFFFFF"/>
	<stop  offset="0.9152" style="stop-color:#FFFFFF;stop-opacity:0"/>
</radialGradient>
<path class="st5" d="M43.48,57.72c0,2.06-1.67,3.73-3.73,3.73s-3.73-1.67-3.73-3.73c0-2.06,1.67-3.73,3.73-3.73
	S43.48,55.66,43.48,57.72z"/>
<radialGradient id="SVGID_5_" cx="37.6875" cy="53.1482" r="3.3924" gradientUnits="userSpaceOnUse">
	<stop  offset="0.5091" style="stop-color:#FFFFFF"/>
	<stop  offset="0.9152" style="stop-color:#FFFFFF;stop-opacity:0"/>
</radialGradient>
<circle class="st6" cx="37.69" cy="53.15" r="3.39"/>
<radialGradient id="SVGID_6_" cx="25.3125" cy="53.1482" r="4.5798" gradientUnits="userSpaceOnUse">
	<stop  offset="0.5091" style="stop-color:#FFFFFF"/>
	<stop  offset="0.9152" style="stop-color:#FFFFFF;stop-opacity:0"/>
</radialGradient>
<path class="st7" d="M29.89,53.15c0,2.53-2.05,4.58-4.58,4.58s-4.58-2.05-4.58-4.58c0-2.53,2.05-4.58,4.58-4.58
	S29.89,50.62,29.89,53.15z"/>
<radialGradient id="SVGID_7_" cx="24.757" cy="58.3969" r="3.3924" gradientUnits="userSpaceOnUse">
	<stop  offset="0.5091" style="stop-color:#FFFFFF"/>
	<stop  offset="0.9152" style="stop-color:#FFFFFF;stop-opacity:0"/>
</radialGradient>
<path class="st8" d="M28.15,58.4c0,1.87-1.52,3.39-3.39,3.39c-1.87,0-3.39-1.52-3.39-3.39S22.88,55,24.76,55
	C26.63,55,28.15,56.52,28.15,58.4z"/>
<linearGradient id="SVGID_8_" gradientUnits="userSpaceOnUse" x1="32" y1="56.3531" x2="32" y2="40.3809">
	<stop  offset="0" style="stop-color:#FFFFFF"/>
	<stop  offset="0.2499" style="stop-color:#FDFDFD;stop-opacity:0.7501"/>
	<stop  offset="0.3906" style="stop-color:#F5F4F5;stop-opacity:0.6094"/>
	<stop  offset="0.5043" style="stop-color:#E7E7E8;stop-opacity:0.4957"/>
	<stop  offset="0.6035" style="stop-color:#D4D3D6;stop-opacity:0.3965"/>
	<stop  offset="0.6933" style="stop-color:#BBB9BE;stop-opacity:0.3067"/>
	<stop  offset="0.7763" style="stop-color:#9C9AA1;stop-opacity:0.2237"/>
	<stop  offset="0.8541" style="stop-color:#77747E;stop-opacity:0.1459"/>
	<stop  offset="0.927" style="stop-color:#4D4956;stop-opacity:0.073"/>
	<stop  offset="0.995" style="stop-color:#1E1A2A;stop-opacity:5.040824e-03"/>
	<stop  offset="1" style="stop-color:#1A1626;stop-opacity:0"/>
</linearGradient>
<polygon class="st9" points="37.69,56.35 26.31,56.35 30.31,40.38 33.69,40.38 "/>
<path class="st10" d="M28.33,56.18c-0.37,0.73-2.32-3.37,3.27-15.71C27.94,51.5,29.48,53.93,28.33,56.18z"/>
<path class="st10" d="M30.28,55.71c0.13,0.6,3.24-2.11,1.78-12.18C32.1,52.3,29.89,53.85,30.28,55.71z"/>
<path class="st10" d="M30.82,62.32c-0.73-0.05,8.56-3.75,2.02-20.27C38.65,52.95,36.57,62.68,30.82,62.32z"/>
</svg>
