<?xml version="1.0" encoding="utf-8"?>
<!-- Generator: Adobe Illustrator 24.1.2, SVG Export Plug-In . SVG Version: 6.00 Build 0)  -->
<svg version="1.1" id="Layer_1" xmlns="http://www.w3.org/2000/svg" xmlns:xlink="http://www.w3.org/1999/xlink" x="0px" y="0px"
	 width="64px" height="64px" viewBox="0 0 64 64" style="enable-background:new 0 0 64 64;" xml:space="preserve">
<style type="text/css">
	.st0{fill:#0098F2;}
	.st1{fill:url(#SVGID_1_);}
	.st2{fill:#1A1626;}
	.st3{fill:url(#SVGID_2_);}
	.st4{fill:#FD7383;}
	.st5{fill:#75D6FF;}
	.st6{fill:url(#SVGID_3_);}
	.st7{fill:url(#SVGID_4_);}
	.st8{fill:url(#SVGID_5_);}
	.st9{fill:url(#SVGID_6_);}
	.st10{fill:url(#SVGID_7_);}
	.st11{fill:url(#SVGID_8_);}
	.st12{opacity:0.3;fill:#0098F2;}
	.st13{fill:#D69600;}
</style>
<path class="st0" d="M46.3,56.83c-6.33,0-22.88,0-29.21,0c-9.14,0-19.61,1.06-16.55,2.58c4.18,2.08,21.02,0.21,14.21,2.74
	c-6.1,2.27,10.36,2.45,16.35,0.56c4.67-1.47,14.31,1.99,17.91-1.28c2.97-2.7,10.19-1,13.84-2.02C67.85,58.03,55.44,56.83,46.3,56.83
	z"/>
<linearGradient id="SVGID_1_" gradientUnits="userSpaceOnUse" x1="31.6894" y1="60.0008" x2="31.6894" y2="7.616470e-04">
	<stop  offset="0" style="stop-color:#FF9500"/>
	<stop  offset="0.1919" style="stop-color:#FFAD00"/>
	<stop  offset="0.5455" style="stop-color:#FFD500"/>
	<stop  offset="0.8272" style="stop-color:#FFED00"/>
	<stop  offset="1" style="stop-color:#FFF600"/>
</linearGradient>
<circle class="st1" cx="31.69" cy="30" r="30"/>
<path class="st2" d="M38.69,40.12c0,9.67-14,9.67-14,0v-1.24c0-9.67,14-9.67,14,0V40.12z"/>
<linearGradient id="SVGID_2_" gradientUnits="userSpaceOnUse" x1="27.0214" y1="34.4832" x2="36.3573" y2="34.4832">
	<stop  offset="0" style="stop-color:#CFD7E6"/>
	<stop  offset="0.0368" style="stop-color:#DAE0EC"/>
	<stop  offset="0.1263" style="stop-color:#EEF1F6"/>
	<stop  offset="0.2147" style="stop-color:#FBFCFD"/>
	<stop  offset="0.3" style="stop-color:#FFFFFF"/>
	<stop  offset="0.7" style="stop-color:#FFFFFF"/>
	<stop  offset="0.7853" style="stop-color:#FBFCFD"/>
	<stop  offset="0.8737" style="stop-color:#EEF1F6"/>
	<stop  offset="0.9632" style="stop-color:#DAE0EC"/>
	<stop  offset="1" style="stop-color:#CFD7E6"/>
</linearGradient>
<path class="st3" d="M27.02,36c0.93-1.81,2.67-3.04,4.67-3.04c2,0,3.74,1.22,4.67,3.04H27.02z"/>
<path class="st4" d="M28.02,44.59c1.06,0.8,2.28,1.27,3.67,1.27c1.38,0,2.61-0.47,3.67-1.27c0,0-1.83-2.34-3.67-0.82
	C29.86,42.25,28.02,44.59,28.02,44.59z"/>
<path class="st2" d="M37.43,22.7c2.97-2.19,8.32-2.34,11.53,0c0.74,0.54,1.97,0.16,1.7-0.46c-2.8-6.42-12.13-6.41-14.93,0
	C35.45,22.86,36.69,23.24,37.43,22.7z"/>
<path class="st2" d="M25.96,22.7c-2.97-2.19-8.32-2.34-11.53,0c-0.74,0.54-1.97,0.16-1.7-0.46c2.8-6.42,12.13-6.41,14.93,0
	C27.93,22.86,26.69,23.24,25.96,22.7z"/>
<path class="st5" d="M41.69,58.41c0,0.5-0.74,0.5-0.74,0C40.94,57.91,41.69,57.91,41.69,58.41z"/>
<linearGradient id="SVGID_3_" gradientUnits="userSpaceOnUse" x1="49.222" y1="18.8987" x2="41.085" y2="59.1067">
	<stop  offset="0.0485" style="stop-color:#0078BD"/>
	<stop  offset="0.0602" style="stop-color:#2E94CD"/>
	<stop  offset="0.0733" style="stop-color:#5AAFDC"/>
	<stop  offset="0.0866" style="stop-color:#7EC5E9"/>
	<stop  offset="0.0999" style="stop-color:#9BD6F2"/>
	<stop  offset="0.1131" style="stop-color:#AFE2F9"/>
	<stop  offset="0.1263" style="stop-color:#BBEAFE"/>
	<stop  offset="0.1394" style="stop-color:#BFECFF"/>
	<stop  offset="0.152" style="stop-color:#B0E8FF"/>
	<stop  offset="0.176" style="stop-color:#9AE1FF"/>
	<stop  offset="0.2043" style="stop-color:#8ADCFF"/>
	<stop  offset="0.2394" style="stop-color:#7ED9FF"/>
	<stop  offset="0.2885" style="stop-color:#77D7FF"/>
	<stop  offset="0.4242" style="stop-color:#75D6FF"/>
	<stop  offset="0.5399" style="stop-color:#4ABFFA"/>
	<stop  offset="0.6647" style="stop-color:#22AAF6"/>
	<stop  offset="0.7639" style="stop-color:#099DF3"/>
	<stop  offset="0.8242" style="stop-color:#0098F2"/>
</linearGradient>
<path class="st6" d="M41.09,21.19c2.29,14.78,1.57,23.71-0.6,38.5c2.31-0.68,5.51,0.33,7.98-0.95c3.36-9.81,3.82-26.02,0.94-35.83
	C48.04,20.5,41.79,19.6,41.09,21.19z"/>
<path class="st0" d="M50.27,56.95c0,2.08-3.12,2.08-3.12,0C47.15,54.87,50.27,54.87,50.27,56.95z"/>
<path class="st0" d="M52.24,57.64c0,1.59-2.39,1.59-2.39,0S52.24,56.04,52.24,57.64z"/>
<radialGradient id="SVGID_4_" cx="213.3527" cy="117.8029" r="5.5216" gradientTransform="matrix(-1.1164 0 0 1.2807 283.4213 -91.7731)" gradientUnits="userSpaceOnUse">
	<stop  offset="0.1879" style="stop-color:#FFFFFF"/>
	<stop  offset="0.9515" style="stop-color:#FFFFFF;stop-opacity:0"/>
</radialGradient>
<path class="st7" d="M38.72,59h13.02C51.75,49.04,38.72,49.04,38.72,59z"/>
<path class="st5" d="M43.14,55.39c0,0.76-1.13,0.76-1.13,0C42.01,54.64,43.14,54.64,43.14,55.39z"/>
<linearGradient id="SVGID_5_" gradientUnits="userSpaceOnUse" x1="45.8511" y1="59.5317" x2="45.8511" y2="56.4422">
	<stop  offset="0.0667" style="stop-color:#0098F2"/>
	<stop  offset="0.3212" style="stop-color:#1CA7F5"/>
	<stop  offset="0.868" style="stop-color:#63CCFD"/>
	<stop  offset="1" style="stop-color:#75D6FF"/>
</linearGradient>
<path class="st8" d="M50.03,58.52c-0.01-1.37-1.61-1.42-2.31-0.63c-0.42-1.75-2.87-1.92-3.67-0.5c-0.64-0.79-2.68-0.57-2.91,0.61
	c-0.5-0.29-1.74,0.41-1.52,1.15c0.13,0.44,12.3,0.55,12.46,0.02C52.42,58.07,50.38,57.69,50.03,58.52z"/>
<path class="st5" d="M50.82,57.46c0,0.37-0.55,0.37-0.55,0C50.26,57.09,50.82,57.09,50.82,57.46z"/>
<path class="st5" d="M45.56,53.82c0,0.37-0.55,0.37-0.55,0C45.01,53.46,45.56,53.46,45.56,53.82z"/>
<path class="st5" d="M46.47,58.28c0,0.37-0.55,0.37-0.55,0C45.91,57.91,46.47,57.91,46.47,58.28z"/>
<path class="st5" d="M52.46,58.56c0,0.37-0.55,0.37-0.55,0C51.91,58.19,52.46,58.19,52.46,58.56z"/>
<path class="st5" d="M47.29,55.68c0,0.55-0.82,0.55-0.82,0C46.47,55.13,47.29,55.13,47.29,55.68z"/>
<path class="st5" d="M42.42,58.97c0,0.55-0.82,0.55-0.82,0C41.6,58.42,42.42,58.42,42.42,58.97z"/>
<linearGradient id="SVGID_6_" gradientUnits="userSpaceOnUse" x1="210.3966" y1="18.8984" x2="202.2596" y2="59.1068" gradientTransform="matrix(-1 0 0 1 224.5547 0)">
	<stop  offset="0.0485" style="stop-color:#0078BD"/>
	<stop  offset="0.0602" style="stop-color:#2E94CD"/>
	<stop  offset="0.0733" style="stop-color:#5AAFDC"/>
	<stop  offset="0.0866" style="stop-color:#7EC5E9"/>
	<stop  offset="0.0999" style="stop-color:#9BD6F2"/>
	<stop  offset="0.1131" style="stop-color:#AFE2F9"/>
	<stop  offset="0.1263" style="stop-color:#BBEAFE"/>
	<stop  offset="0.1394" style="stop-color:#BFECFF"/>
	<stop  offset="0.152" style="stop-color:#B0E8FF"/>
	<stop  offset="0.176" style="stop-color:#9AE1FF"/>
	<stop  offset="0.2043" style="stop-color:#8ADCFF"/>
	<stop  offset="0.2394" style="stop-color:#7ED9FF"/>
	<stop  offset="0.2885" style="stop-color:#77D7FF"/>
	<stop  offset="0.4242" style="stop-color:#75D6FF"/>
	<stop  offset="0.5399" style="stop-color:#4ABFFA"/>
	<stop  offset="0.6647" style="stop-color:#22AAF6"/>
	<stop  offset="0.7639" style="stop-color:#099DF3"/>
	<stop  offset="0.8242" style="stop-color:#0098F2"/>
</linearGradient>
<path class="st9" d="M22.29,21.19c-2.3,14.78-1.57,23.71,0.6,38.5c-2.31-0.68-5.51,0.33-7.99-0.95c-3.35-9.81-3.82-26.02-0.94-35.83
	C15.34,20.5,21.59,19.6,22.29,21.19z"/>
<path class="st0" d="M13.13,56.95c0,2.08,3.12,2.08,3.12,0C16.24,54.87,13.13,54.87,13.13,56.95z"/>
<path class="st0" d="M11.16,57.64c0,1.59,2.39,1.59,2.39,0S11.16,56.04,11.16,57.64z"/>
<radialGradient id="SVGID_7_" cx="68.9938" cy="117.8029" r="5.5216" gradientTransform="matrix(1.1164 0 0 1.2807 -58.8666 -91.7731)" gradientUnits="userSpaceOnUse">
	<stop  offset="0.1879" style="stop-color:#FFFFFF"/>
	<stop  offset="0.9515" style="stop-color:#FFFFFF;stop-opacity:0"/>
</radialGradient>
<path class="st10" d="M24.67,59H11.65C11.65,49.04,24.67,49.04,24.67,59z"/>
<path class="st5" d="M19.22,55.42c0,0.76,1.13,0.76,1.13,0C20.36,54.66,19.22,54.66,19.22,55.42z"/>
<linearGradient id="SVGID_8_" gradientUnits="userSpaceOnUse" x1="207.0134" y1="59.5317" x2="207.0134" y2="56.4422" gradientTransform="matrix(-1 0 0 1 224.5547 0)">
	<stop  offset="0.0667" style="stop-color:#0098F2"/>
	<stop  offset="0.3212" style="stop-color:#1CA7F5"/>
	<stop  offset="0.868" style="stop-color:#63CCFD"/>
	<stop  offset="1" style="stop-color:#75D6FF"/>
</linearGradient>
<path class="st11" d="M13.36,58.52c0.02-1.37,1.61-1.42,2.31-0.63c0.42-1.75,2.87-1.92,3.67-0.5c0.64-0.79,2.68-0.57,2.91,0.61
	c0.5-0.29,1.74,0.41,1.52,1.15c-0.13,0.44-12.3,0.55-12.46,0.02C10.98,58.07,13.01,57.69,13.36,58.52z"/>
<path class="st5" d="M14.19,56.44c0,0.37,0.55,0.37,0.55,0S14.19,56.07,14.19,56.44z"/>
<path class="st5" d="M16.19,55.13c0,0.37,0.55,0.37,0.55,0C16.75,54.76,16.19,54.76,16.19,55.13z"/>
<path class="st5" d="M20.22,58.51c0,0.37,0.55,0.37,0.55,0C20.78,58.14,20.22,58.14,20.22,58.51z"/>
<path class="st5" d="M11,58.51c0,0.37,0.55,0.37,0.55,0C11.55,58.14,11,58.14,11,58.51z"/>
<path class="st5" d="M16.75,58.1c0,0.55,0.82,0.55,0.82,0C17.57,57.55,16.75,57.55,16.75,58.1z"/>
<path class="st12" d="M44.64,21.86c1.5,9.24,1.52,14.51,1.13,24.66c-0.02,0.44,0.15-0.15,0.32-1.32c0.92-6.3,0.69-16.97-0.87-23.06
	C44.99,21.23,44.52,21.06,44.64,21.86z"/>
<path class="st12" d="M48.05,24.22c1.61,8.61,1.69,13.54,1.42,23.02c-0.01,0.41,0.15-0.14,0.3-1.24c0.85-5.9,0.48-15.87-1.14-21.53
	C48.39,23.62,47.91,23.47,48.05,24.22z"/>
<path class="st12" d="M43.16,25.76c1.2,8.74,1.04,13.7,0.32,23.23c-0.03,0.41,0.16-0.14,0.36-1.23c1.13-5.89,1.24-15.94-0.11-21.72
	C43.53,25.18,43.05,25,43.16,25.76z"/>
<path class="st12" d="M47.62,31.68c0.46,8.3-0.11,12.95-1.63,21.84c-0.06,0.38,0.17-0.12,0.46-1.13c1.62-5.44,2.57-14.86,1.71-20.4
	C48.04,31.17,47.58,30.97,47.62,31.68z"/>
<path class="st12" d="M18.73,21.86c-1.5,9.24-1.51,14.51-1.13,24.66c0.02,0.44-0.15-0.15-0.32-1.32c-0.92-6.3-0.69-16.97,0.87-23.06
	C18.39,21.23,18.86,21.06,18.73,21.86z"/>
<path class="st12" d="M15.33,24.22c-1.61,8.61-1.69,13.54-1.42,23.02c0.01,0.41-0.15-0.14-0.3-1.24c-0.85-5.9-0.48-15.87,1.14-21.53
	C14.99,23.62,15.47,23.47,15.33,24.22z"/>
<path class="st12" d="M20.22,25.76c-1.2,8.74-1.04,13.7-0.32,23.23c0.03,0.41-0.15-0.14-0.36-1.23c-1.13-5.89-1.24-15.94,0.11-21.72
	C19.85,25.18,20.33,25,20.22,25.76z"/>
<path class="st12" d="M15.76,31.68c-0.46,8.3,0.11,12.95,1.63,21.84c0.07,0.38-0.17-0.12-0.46-1.13c-1.62-5.44-2.57-14.86-1.71-20.4
	C15.34,31.17,15.8,30.97,15.76,31.68z"/>
<path class="st13" d="M18.56,8.69c-9.25,6.62-2.92,7.32,5.57,2.69C28.93,8.76,24.65,4.33,18.56,8.69z"/>
<path class="st13" d="M44.81,8.71c-6.09-4.36-10.37,0.07-5.57,2.69C47.74,16.03,54.06,15.33,44.81,8.71z"/>
</svg>
