<?xml version="1.0" encoding="utf-8"?>
<!-- Generator: Adobe Illustrator 24.1.2, SVG Export Plug-In . SVG Version: 6.00 Build 0)  -->
<svg version="1.1" id="Layer_1" xmlns="http://www.w3.org/2000/svg" xmlns:xlink="http://www.w3.org/1999/xlink" x="0px" y="0px"
	 width="64px" height="64px" viewBox="0 0 64 64" style="enable-background:new 0 0 64 64;" xml:space="preserve">
<style type="text/css">
	.st0{fill:#FFE600;}
	.st1{fill:url(#SVGID_1_);}
	.st2{fill:url(#SVGID_2_);}
	.st3{fill:url(#SVGID_3_);}
	.st4{fill:url(#SVGID_4_);}
	.st5{fill:url(#SVGID_5_);}
	.st6{fill:url(#SVGID_6_);}
	.st7{fill:url(#SVGID_7_);}
	.st8{fill:url(#SVGID_8_);}
	.st9{fill:url(#SVGID_9_);}
	.st10{fill:url(#SVGID_10_);}
	.st11{fill:url(#SVGID_11_);}
	.st12{fill:url(#SVGID_12_);}
	.st13{fill:#C4810A;}
	.st14{fill:url(#SVGID_13_);}
	.st15{fill:url(#SVGID_14_);}
	.st16{fill:#1A1626;}
	.st17{fill:#FFFFFF;}
	.st18{fill:#ED7196;}
	.st19{fill:#8F5D08;}
</style>
<path class="st0" d="M7.98,3.21c6.33,1.78,16.59,8.37,16.59,8.37L7.77,26.77c0,0-4.88-9.44-3.53-21.81
	C4.43,3.24,5.93,2.64,7.98,3.21z"/>
<linearGradient id="SVGID_1_" gradientUnits="userSpaceOnUse" x1="608.5113" y1="15.5423" x2="627.4113" y2="15.5423" gradientTransform="matrix(-1 0 0 1 631.2734 0.123)">
	<stop  offset="0" style="stop-color:#BA0085;stop-opacity:0.7"/>
	<stop  offset="1" style="stop-color:#FF87F3;stop-opacity:0.5"/>
</linearGradient>
<path class="st1" d="M8.23,5.17c4.52,2.68,8.46,7.59,11.1,11.46l-11,10.19c0,0-4.18-8.13-3.51-20.19C4.92,4.65,5.95,3.82,8.23,5.17z
	"/>
<path class="st0" d="M55.97,3.21c-6.33,1.78-16.59,8.37-16.59,8.37l16.81,15.19c0,0,4.88-9.44,3.53-21.81
	C59.52,3.24,58.02,2.64,55.97,3.21z"/>
<linearGradient id="SVGID_2_" gradientUnits="userSpaceOnUse" x1="-35.2984" y1="15.5423" x2="-16.3972" y2="15.5423" gradientTransform="matrix(1 0 0 1 76.4844 0.123)">
	<stop  offset="0" style="stop-color:#BA0085;stop-opacity:0.7"/>
	<stop  offset="1" style="stop-color:#FF87F3;stop-opacity:0.5"/>
</linearGradient>
<path class="st2" d="M55.72,5.17c-4.52,2.68-8.46,7.59-11.1,11.46l11,10.19c0,0,4.18-8.13,3.52-20.19
	C59.03,4.65,57.99,3.82,55.72,5.17z"/>
<path class="st0" d="M27.48,18.89c-5.63-4.56-12.62-3.77-16.09-2.96c-1.57,0.36-1.8,0.7-0.67,1.45c1.67,1.11,3.48,2.92,4.98,5.66
	C17.56,26.44,29.89,20.85,27.48,18.89z"/>
<path class="st0" d="M25.54,18.99C18.97,15.92,12.38,18.39,9.2,20c-1.43,0.73-1.58,1.11-0.29,1.57c1.89,0.67,4.08,1.99,6.2,4.29
	C17.75,28.72,28.35,20.3,25.54,18.99z"/>
<path class="st0" d="M36.52,18.89c5.63-4.56,12.62-3.77,16.09-2.96c1.57,0.36,1.8,0.7,0.67,1.45c-1.67,1.11-3.48,2.92-4.98,5.66
	C46.43,26.44,34.11,20.85,36.52,18.89z"/>
<path class="st0" d="M38.46,18.99c6.57-3.07,13.16-0.6,16.33,1.02c1.43,0.73,1.58,1.11,0.29,1.57c-1.89,0.67-4.08,1.99-6.2,4.29
	C46.24,28.72,35.65,20.3,38.46,18.99z"/>
<linearGradient id="SVGID_3_" gradientUnits="userSpaceOnUse" x1="32" y1="60.9999" x2="32" y2="9.2616">
	<stop  offset="0" style="stop-color:#FF9900"/>
	<stop  offset="0.7212" style="stop-color:#FFE600"/>
</linearGradient>
<path class="st3" d="M32,9.26C9.53,9.26,1.05,36.66,4.89,47.23C7.81,55.26,26.13,61,32,61c5.86,0,24.19-5.74,27.11-13.77
	C62.95,36.66,54.47,9.26,32,9.26z"/>
<linearGradient id="SVGID_4_" gradientUnits="userSpaceOnUse" x1="31.9995" y1="21.1113" x2="31.9995" y2="9.2375">
	<stop  offset="0" style="stop-color:#DE9400;stop-opacity:0.5"/>
	<stop  offset="1" style="stop-color:#DE9400"/>
</linearGradient>
<path class="st4" d="M30.17,9.34c0,0,1.83-0.24,3.66,0C33.83,25.03,30.17,25.03,30.17,9.34z"/>
<linearGradient id="SVGID_5_" gradientUnits="userSpaceOnUse" x1="26.36" y1="17.1154" x2="26.36" y2="9.5722">
	<stop  offset="0" style="stop-color:#DE9400;stop-opacity:0.5"/>
	<stop  offset="1" style="stop-color:#DE9400"/>
</linearGradient>
<path class="st5" d="M27.96,9.57c0,0-1.63,0.21-3,0.66C24.09,19.71,26.35,19.31,27.96,9.57z"/>
<linearGradient id="SVGID_6_" gradientUnits="userSpaceOnUse" x1="654.9589" y1="17.1154" x2="654.9589" y2="9.5722" gradientTransform="matrix(-1 0 0 1 692.5996 0)">
	<stop  offset="0" style="stop-color:#DE9400;stop-opacity:0.5"/>
	<stop  offset="1" style="stop-color:#DE9400"/>
</linearGradient>
<path class="st6" d="M36.05,9.57c0,0,1.63,0.21,3,0.66C39.91,19.71,37.65,19.31,36.05,9.57z"/>
<linearGradient id="SVGID_7_" gradientUnits="userSpaceOnUse" x1="53.2096" y1="45.5234" x2="59.8467" y2="45.5234">
	<stop  offset="0" style="stop-color:#DE9400;stop-opacity:0.5"/>
	<stop  offset="1" style="stop-color:#DE9400"/>
</linearGradient>
<path class="st7" d="M59.85,43.98c0,0-0.16,1.83-0.68,3.09C50.77,46.28,51.48,44.24,59.85,43.98z"/>
<linearGradient id="SVGID_8_" gradientUnits="userSpaceOnUse" x1="53.3839" y1="49.848" x2="58.6001" y2="49.848">
	<stop  offset="0" style="stop-color:#DE9400;stop-opacity:0.5"/>
	<stop  offset="1" style="stop-color:#DE9400"/>
</linearGradient>
<path class="st8" d="M58.6,48.34c0,0-1.09,1.95-2.46,3.03C51.59,49.1,52.86,48.15,58.6,48.34z"/>
<linearGradient id="SVGID_9_" gradientUnits="userSpaceOnUse" x1="56.1581" y1="41.2021" x2="59.9791" y2="41.2021">
	<stop  offset="0" style="stop-color:#DE9400;stop-opacity:0.5"/>
	<stop  offset="1" style="stop-color:#DE9400"/>
</linearGradient>
<path class="st9" d="M59.97,42.59c0,0,0.03-2.09-0.01-2.78C54.52,40.99,55.28,42.34,59.97,42.59z"/>
<linearGradient id="SVGID_10_" gradientUnits="userSpaceOnUse" x1="682.3931" y1="45.5234" x2="689.0303" y2="45.5234" gradientTransform="matrix(-1 0 0 1 693.1836 0)">
	<stop  offset="0" style="stop-color:#DE9400;stop-opacity:0.5"/>
	<stop  offset="1" style="stop-color:#DE9400"/>
</linearGradient>
<path class="st10" d="M4.15,43.98c0,0,0.16,1.83,0.68,3.09C13.23,46.28,12.52,44.24,4.15,43.98z"/>
<linearGradient id="SVGID_11_" gradientUnits="userSpaceOnUse" x1="682.568" y1="49.848" x2="687.7847" y2="49.848" gradientTransform="matrix(-1 0 0 1 693.1836 0)">
	<stop  offset="0" style="stop-color:#DE9400;stop-opacity:0.5"/>
	<stop  offset="1" style="stop-color:#DE9400"/>
</linearGradient>
<path class="st11" d="M5.4,48.34c0,0,1.09,1.95,2.46,3.03C12.41,49.1,11.14,48.15,5.4,48.34z"/>
<linearGradient id="SVGID_12_" gradientUnits="userSpaceOnUse" x1="685.3416" y1="41.2021" x2="689.1624" y2="41.2021" gradientTransform="matrix(-1 0 0 1 693.1836 0)">
	<stop  offset="0" style="stop-color:#DE9400;stop-opacity:0.5"/>
	<stop  offset="1" style="stop-color:#DE9400"/>
</linearGradient>
<path class="st12" d="M4.03,42.59c0,0-0.03-2.09,0.01-2.78C9.48,40.99,8.72,42.34,4.03,42.59z"/>
<path class="st13" d="M36.55,38.18c-0.91-0.97-8.18-0.97-9.09,0c-1.39,1.47,2.75,4.09,4.55,4.09C33.8,42.27,37.94,39.65,36.55,38.18
	z"/>
<linearGradient id="SVGID_13_" gradientUnits="userSpaceOnUse" x1="45.306" y1="27.9379" x2="41.5308" y2="48.0786" gradientTransform="matrix(0.9659 0.2588 -0.2588 0.9659 12.0622 -18.3788)">
	<stop  offset="0" style="stop-color:#FF1C23"/>
	<stop  offset="0.4164" style="stop-color:#F31317"/>
	<stop  offset="1" style="stop-color:#DB0100"/>
</linearGradient>
<path class="st14" d="M45.84,24.72c-1.64-5.5-10.17-5.81-11.76,0.12c-0.95,3.57,1.36,6.89,5.93,13.17c1.55,2.13,1.83,2.21,4.24,1.14
	c7.09-3.16,10.76-4.87,11.71-8.44C57.55,24.77,50.01,20.77,45.84,24.72z"/>
<linearGradient id="SVGID_14_" gradientUnits="userSpaceOnUse" x1="31.2771" y1="1.599" x2="27.5008" y2="21.7454" gradientTransform="matrix(0.9659 -0.2588 0.2588 0.9659 -12.2831 26.0914)">
	<stop  offset="0" style="stop-color:#FF1C23"/>
	<stop  offset="0.4164" style="stop-color:#F31317"/>
	<stop  offset="1" style="stop-color:#DB0100"/>
</linearGradient>
<path class="st15" d="M18.16,24.72c-4.17-3.95-11.71,0.05-10.12,5.99c0.96,3.57,4.62,5.28,11.71,8.44c2.41,1.07,2.69,0.99,4.24-1.14
	c4.56-6.28,6.88-9.6,5.93-13.17C28.33,18.91,19.8,19.22,18.16,24.72z"/>
<path class="st16" d="M43.59,43.54c0,8.37-5.19,11.6-11.59,11.6s-11.59-3.23-11.59-11.6c0,0,8.66,1.61,11.59,1.61
	S43.59,43.54,43.59,43.54z"/>
<path class="st17" d="M26.06,46.06c2.11,1.7,9.77,1.7,11.88,0c0.52-0.42,0.02-1.06,0.02-1.06H26.04
	C26.04,45.01,25.54,45.64,26.06,46.06z"/>
<path class="st18" d="M39.85,53.49c-3.25-2.66-12.45-2.66-15.7,0c2.07,1.27,4.82,1.65,7.85,1.65S37.78,54.76,39.85,53.49z"/>
<path class="st17" d="M24.86,45.97c0.22,1.56,1,1.56,1.22,0c0.05-0.39,0-0.96,0-0.96h-1.22C24.86,45.01,24.81,45.58,24.86,45.97z"/>
<path class="st17" d="M37.92,45.97c0.22,1.56,1,1.56,1.22,0c0.05-0.39,0-0.96,0-0.96h-1.22C37.92,45.01,37.87,45.58,37.92,45.97z"/>
<path class="st19" d="M32,55.74c-7.75,0-12.19-4.45-12.19-12.2c0-0.2,0.1-0.39,0.27-0.5c0.17-0.11,0.38-0.13,0.57-0.05
	C20.69,43,24.36,44.55,32,44.55S43.31,43,43.35,42.98c0.19-0.08,0.4-0.06,0.57,0.05c0.17,0.11,0.27,0.3,0.27,0.5
	C44.19,51.29,39.75,55.74,32,55.74z M21.04,44.4c0.4,8.79,6.99,10.13,10.96,10.13s10.56-1.34,10.96-10.13
	c-1.53,0.48-5.1,1.36-10.96,1.36S22.56,44.88,21.04,44.4z"/>
</svg>
