<?xml version="1.0" encoding="utf-8"?>
<!-- Generator: Adobe Illustrator 24.1.2, SVG Export Plug-In . SVG Version: 6.00 Build 0)  -->
<svg version="1.1" id="Layer_1" xmlns="http://www.w3.org/2000/svg" xmlns:xlink="http://www.w3.org/1999/xlink" x="0px" y="0px"
	 width="64px" height="64px" viewBox="0 0 64 64" style="enable-background:new 0 0 64 64;" xml:space="preserve">
<style type="text/css">
	.st0{fill:#FFE600;}
	.st1{fill:url(#SVGID_1_);}
	.st2{fill:url(#SVGID_2_);}
	.st3{fill:url(#SVGID_3_);}
	.st4{fill:#C4810A;}
	.st5{fill:url(#SVGID_4_);}
	.st6{fill:url(#SVGID_5_);}
	.st7{fill:url(#SVGID_6_);}
	.st8{fill:url(#SVGID_7_);}
	.st9{fill:url(#SVGID_8_);}
	.st10{fill:url(#SVGID_9_);}
	.st11{fill:url(#SVGID_10_);}
	.st12{fill:url(#SVGID_11_);}
	.st13{fill:url(#SVGID_12_);}
	.st14{fill:#674D21;}
	.st15{fill:#1A1626;}
	.st16{fill:#FFFFFF;}
	.st17{fill:#ED7196;}
	.st18{fill:#8F5D08;}
	.st19{fill:url(#SVGID_13_);}
	.st20{fill:url(#SVGID_14_);}
	.st21{fill:url(#SVGID_15_);}
	.st22{fill:url(#SVGID_16_);}
</style>
<path class="st0" d="M7.06,6c6.15-0.13,16.91,2.55,16.91,2.55l-12.1,15.9c0,0-6.45-6.2-7.86-16.18C3.83,6.88,5.07,6.05,7.06,6z"/>
<linearGradient id="SVGID_1_" gradientUnits="userSpaceOnUse" x1="618.639" y1="-77.2269" x2="636.4958" y2="-77.2269" gradientTransform="matrix(-0.9659 0.2588 0.2588 0.9659 640.7125 -73.3935)">
	<stop  offset="0" style="stop-color:#BA0085;stop-opacity:0.7"/>
	<stop  offset="1" style="stop-color:#FF87F3;stop-opacity:0.5"/>
</linearGradient>
<path class="st1" d="M7.71,7.47c4.69,1.01,9.33,3.89,12.56,6.28l-7.87,10.6c0,0-5.54-5.34-7.5-14.92C4.58,7.86,5.34,6.96,7.71,7.47z
	"/>
<path class="st0" d="M56.94,6.01c-6.15-0.13-16.91,2.55-16.91,2.55l12.09,15.9c0,0,6.45-6.2,7.86-16.18
	C60.18,6.88,58.93,6.05,56.94,6.01z"/>
<linearGradient id="SVGID_2_" gradientUnits="userSpaceOnUse" x1="-1.7521" y1="100.4259" x2="16.1063" y2="100.4259" gradientTransform="matrix(0.9659 0.2588 -0.2588 0.9659 68.4984 -84.4312)">
	<stop  offset="0" style="stop-color:#BA0085;stop-opacity:0.7"/>
	<stop  offset="1" style="stop-color:#FF87F3;stop-opacity:0.5"/>
</linearGradient>
<path class="st2" d="M56.29,7.47c-4.69,1.01-9.33,3.89-12.56,6.28l7.87,10.6c0,0,5.54-5.34,7.5-14.92
	C59.42,7.86,58.66,6.96,56.29,7.47z"/>
<path class="st0" d="M27.63,15.13c-5.45-4.4-12.21-3.63-15.57-2.86c-1.52,0.35-1.75,0.67-0.65,1.4c1.62,1.07,3.37,2.81,4.82,5.46
	C18.03,22.41,29.96,17.02,27.63,15.13z"/>
<path class="st0" d="M25.75,15.23c-6.36-2.96-12.73-0.58-15.8,0.98c-1.38,0.71-1.53,1.07-0.28,1.51c1.83,0.64,3.95,1.91,6,4.13
	C18.22,24.6,28.46,16.49,25.75,15.23z"/>
<path class="st0" d="M36.37,15.13c5.45-4.4,12.21-3.63,15.57-2.86c1.52,0.35,1.75,0.67,0.65,1.4c-1.62,1.07-3.37,2.81-4.82,5.46
	C45.96,22.41,34.04,17.02,36.37,15.13z"/>
<path class="st0" d="M38.25,15.23c6.36-2.96,12.73-0.58,15.8,0.98c1.38,0.71,1.53,1.07,0.28,1.51c-1.83,0.64-3.95,1.91-6,4.13
	C45.78,24.6,35.53,16.49,38.25,15.23z"/>
<linearGradient id="SVGID_3_" gradientUnits="userSpaceOnUse" x1="32" y1="58.0001" x2="32" y2="6.4591">
	<stop  offset="0" style="stop-color:#FF9900"/>
	<stop  offset="0.7212" style="stop-color:#FFE600"/>
</linearGradient>
<path class="st3" d="M32,6.46C9.53,6.46,1.05,33.75,4.89,44.29C7.81,52.28,26.13,58,32,58c5.86,0,24.19-5.72,27.11-13.71
	C62.95,33.75,54.47,6.46,32,6.46z"/>
<path class="st4" d="M36.55,31.21c-0.91-0.96-8.18-0.96-9.09,0c-1.39,1.46,2.75,4.07,4.55,4.07C33.8,35.28,37.94,32.67,36.55,31.21z
	"/>
<linearGradient id="SVGID_4_" gradientUnits="userSpaceOnUse" x1="31.9994" y1="13.2076" x2="31.9994" y2="6.4353">
	<stop  offset="0" style="stop-color:#DE9400;stop-opacity:0.5"/>
	<stop  offset="1" style="stop-color:#DE9400"/>
</linearGradient>
<path class="st5" d="M30.17,6.54c0,0,1.83-0.23,3.66,0C33.83,15.43,30.17,15.43,30.17,6.54z"/>
<linearGradient id="SVGID_5_" gradientUnits="userSpaceOnUse" x1="26.421" y1="11.45" x2="26.421" y2="6.7691">
	<stop  offset="0" style="stop-color:#DE9400;stop-opacity:0.5"/>
	<stop  offset="1" style="stop-color:#DE9400"/>
</linearGradient>
<path class="st6" d="M27.96,6.77c0,0-1.63,0.21-3,0.66C24.44,13.05,26.97,12.73,27.96,6.77z"/>
<linearGradient id="SVGID_6_" gradientUnits="userSpaceOnUse" x1="655.0201" y1="11.45" x2="655.0201" y2="6.7691" gradientTransform="matrix(-1 0 0 1 692.5996 0)">
	<stop  offset="0" style="stop-color:#DE9400;stop-opacity:0.5"/>
	<stop  offset="1" style="stop-color:#DE9400"/>
</linearGradient>
<path class="st7" d="M36.05,6.77c0,0,1.63,0.21,3,0.66C39.56,13.05,37.03,12.73,36.05,6.77z"/>
<linearGradient id="SVGID_7_" gradientUnits="userSpaceOnUse" x1="53.2089" y1="42.5823" x2="59.8461" y2="42.5823">
	<stop  offset="0" style="stop-color:#DE9400;stop-opacity:0.5"/>
	<stop  offset="1" style="stop-color:#DE9400"/>
</linearGradient>
<path class="st8" d="M59.85,41.04c0,0-0.16,1.82-0.68,3.08C50.77,43.34,51.48,41.3,59.85,41.04z"/>
<linearGradient id="SVGID_8_" gradientUnits="userSpaceOnUse" x1="53.3835" y1="46.8906" x2="58.5995" y2="46.8906">
	<stop  offset="0" style="stop-color:#DE9400;stop-opacity:0.5"/>
	<stop  offset="1" style="stop-color:#DE9400"/>
</linearGradient>
<path class="st9" d="M58.6,45.39c0,0-1.09,1.94-2.46,3.02C51.59,46.15,52.86,45.2,58.6,45.39z"/>
<linearGradient id="SVGID_9_" gradientUnits="userSpaceOnUse" x1="56.1575" y1="38.2779" x2="59.9781" y2="38.2779">
	<stop  offset="0" style="stop-color:#DE9400;stop-opacity:0.5"/>
	<stop  offset="1" style="stop-color:#DE9400"/>
</linearGradient>
<path class="st10" d="M59.96,39.66c0,0,0.03-2.08-0.01-2.77C54.51,38.07,55.28,39.41,59.96,39.66z"/>
<linearGradient id="SVGID_10_" gradientUnits="userSpaceOnUse" x1="682.3929" y1="42.5823" x2="689.0299" y2="42.5823" gradientTransform="matrix(-1 0 0 1 693.1836 0)">
	<stop  offset="0" style="stop-color:#DE9400;stop-opacity:0.5"/>
	<stop  offset="1" style="stop-color:#DE9400"/>
</linearGradient>
<path class="st11" d="M4.15,41.04c0,0,0.16,1.82,0.68,3.08C13.23,43.34,12.52,41.3,4.15,41.04z"/>
<linearGradient id="SVGID_11_" gradientUnits="userSpaceOnUse" x1="682.5676" y1="46.8906" x2="687.7842" y2="46.8906" gradientTransform="matrix(-1 0 0 1 693.1836 0)">
	<stop  offset="0" style="stop-color:#DE9400;stop-opacity:0.5"/>
	<stop  offset="1" style="stop-color:#DE9400"/>
</linearGradient>
<path class="st12" d="M5.4,45.39c0,0,1.09,1.94,2.46,3.02C12.41,46.15,11.14,45.2,5.4,45.39z"/>
<linearGradient id="SVGID_12_" gradientUnits="userSpaceOnUse" x1="685.3411" y1="38.2779" x2="689.1617" y2="38.2779" gradientTransform="matrix(-1 0 0 1 693.1836 0)">
	<stop  offset="0" style="stop-color:#DE9400;stop-opacity:0.5"/>
	<stop  offset="1" style="stop-color:#DE9400"/>
</linearGradient>
<path class="st13" d="M4.04,39.66c0,0-0.03-2.08,0.01-2.77C9.48,38.07,8.72,39.41,4.04,39.66z"/>
<path class="st4" d="M15.92,15.93c-7.16,4.22-2.59,5.14,3.89,2.31C23.47,16.64,20.64,13.15,15.92,15.93z"/>
<path class="st4" d="M48.08,15.93c-4.71-2.78-7.55,0.71-3.89,2.31C50.67,21.06,55.24,20.15,48.08,15.93z"/>
<path class="st14" d="M39.88,27.65c2.87-2.11,8.03-2.25,11.13,0c0.72,0.52,1.9,0.16,1.64-0.45c-2.71-6.18-11.71-6.17-14.41,0
	C37.97,27.81,39.16,28.17,39.88,27.65z"/>
<path class="st14" d="M12.99,27.65c2.87-2.11,8.03-2.25,11.13,0c0.72,0.52,1.9,0.16,1.64-0.45c-2.71-6.18-11.71-6.17-14.41,0
	C11.08,27.81,12.28,28.17,12.99,27.65z"/>
<path class="st15" d="M44.07,40.62c0,7.19-6.52,10.8-12.07,10.8c-5.55,0-12.07-3.61-12.07-10.8c0,0,9.53-1.94,12.07-1.94
	C34.54,38.69,44.07,40.62,44.07,40.62z"/>
<path class="st16" d="M26.51,41.08c3.63-0.54,7.35-0.54,10.98,0c0.71,0.11,1.83-1.46,0.98-1.59c-4.27-0.64-8.67-0.64-12.94,0
	C24.68,39.62,25.8,41.18,26.51,41.08z"/>
<path class="st17" d="M38.99,49.53c-2.9-3.06-11.09-3.06-13.99,0c1.84,1.46,4.29,1.89,6.99,1.89C34.7,51.42,37.15,50.99,38.99,49.53
	z"/>
<path class="st16" d="M24.58,40.57c0.22,1.77,1.04,1.77,1.26,0c0.05-0.44,0-1.09,0-1.09h-1.27C24.58,39.48,24.52,40.13,24.58,40.57z
	"/>
<path class="st16" d="M38.16,40.57c0.22,1.77,1.04,1.77,1.26,0c0.05-0.44,0-1.09,0-1.09h-1.27C38.15,39.48,38.1,40.13,38.16,40.57z"
	/>
<path class="st18" d="M32,52.03c-6.14,0-12.67-4-12.67-11.4c0-0.25,0.16-0.48,0.39-0.56c0.22-0.08,5.4-1.97,12.28-1.97
	c6.88,0,12.06,1.89,12.28,1.97c0.24,0.09,0.39,0.31,0.39,0.56C44.67,48.03,38.14,52.03,32,52.03z M20.54,41.05
	c0.25,6.35,6.02,9.77,11.46,9.77c5.44,0,11.21-3.42,11.46-9.77c-1.34-0.44-5.87-1.76-11.46-1.76C26.4,39.29,21.88,40.61,20.54,41.05
	z"/>
<radialGradient id="SVGID_13_" cx="398.6754" cy="-1066.3508" r="7.8205" fx="401.4587" fy="-1062.3855" gradientTransform="matrix(0.9593 -0.0543 0.0879 1.5045 -235.4402 1660.2554)" gradientUnits="userSpaceOnUse">
	<stop  offset="0.0551" style="stop-color:#73EFFF"/>
	<stop  offset="0.2848" style="stop-color:#70EDFF"/>
	<stop  offset="0.4461" style="stop-color:#67E5FF"/>
	<stop  offset="0.5866" style="stop-color:#57D8FF"/>
	<stop  offset="0.7151" style="stop-color:#42C7FF"/>
	<stop  offset="0.8354" style="stop-color:#25AFFF"/>
	<stop  offset="0.9482" style="stop-color:#0393FF"/>
	<stop  offset="0.9564" style="stop-color:#0091FF"/>
</radialGradient>
<path class="st19" d="M58.93,36.13c-1.53-5.01-8.19-9.08-8.99-9.19c-0.32-0.04-0.53,0.12-0.37,0.67c0.9,3.16,0.76,5.15-0.87,9.45
	C44.22,48.89,62.92,49.19,58.93,36.13z"/>
<linearGradient id="SVGID_14_" gradientUnits="userSpaceOnUse" x1="482.5767" y1="-159.8199" x2="482.5767" y2="-167.9245" gradientTransform="matrix(0.7921 0.8812 -0.7438 0.6685 -451.6196 -280.9492)">
	<stop  offset="0.0528" style="stop-color:#C4EEFF;stop-opacity:0"/>
	<stop  offset="0.4504" style="stop-color:#CDF0FF;stop-opacity:0.4197"/>
	<stop  offset="1" style="stop-color:#D4F2FF"/>
</linearGradient>
<path class="st20" d="M57.28,34.99c-1.38-3.63-6.11-7.04-6.68-7.17c-0.22-0.05-0.36,0.05-0.23,0.45c0.77,2.31,0.97,3.97,0.07,6.69
	C48.09,42.06,60.3,42.94,57.28,34.99z"/>
<radialGradient id="SVGID_15_" cx="168.0424" cy="-1068.5397" r="7.8205" fx="170.8257" fy="-1064.5743" gradientTransform="matrix(-0.9593 -0.0543 -0.0879 1.5045 78.0034 1651.0168)" gradientUnits="userSpaceOnUse">
	<stop  offset="0.0551" style="stop-color:#73EFFF"/>
	<stop  offset="0.2848" style="stop-color:#70EDFF"/>
	<stop  offset="0.4461" style="stop-color:#67E5FF"/>
	<stop  offset="0.5866" style="stop-color:#57D8FF"/>
	<stop  offset="0.7151" style="stop-color:#42C7FF"/>
	<stop  offset="0.8354" style="stop-color:#25AFFF"/>
	<stop  offset="0.9482" style="stop-color:#0393FF"/>
	<stop  offset="0.9564" style="stop-color:#0091FF"/>
</radialGradient>
<path class="st21" d="M5.07,36.13c1.53-5.01,8.19-9.08,8.99-9.19c0.32-0.04,0.53,0.12,0.37,0.67c-0.9,3.16-0.76,5.15,0.87,9.45
	C19.78,48.89,1.08,49.19,5.07,36.13z"/>
<linearGradient id="SVGID_16_" gradientUnits="userSpaceOnUse" x1="357.544" y1="5.0021" x2="357.544" y2="-3.1026" gradientTransform="matrix(-0.7921 0.8812 0.7438 0.6685 293.9882 -280.9492)">
	<stop  offset="0.0528" style="stop-color:#C4EEFF;stop-opacity:0"/>
	<stop  offset="0.4504" style="stop-color:#CDF0FF;stop-opacity:0.4197"/>
	<stop  offset="1" style="stop-color:#D4F2FF"/>
</linearGradient>
<path class="st22" d="M6.72,34.99c1.38-3.63,6.11-7.04,6.68-7.17c0.22-0.05,0.36,0.05,0.23,0.45c-0.77,2.31-0.97,3.97-0.07,6.69
	C15.91,42.06,3.7,42.94,6.72,34.99z"/>
</svg>
