<?xml version="1.0" encoding="utf-8"?>
<!-- Generator: Adobe Illustrator 24.1.2, SVG Export Plug-In . SVG Version: 6.00 Build 0)  -->
<svg version="1.1" id="Layer_1" xmlns="http://www.w3.org/2000/svg" xmlns:xlink="http://www.w3.org/1999/xlink" x="0px" y="0px"
	 width="64px" height="64px" viewBox="0 0 64 64" style="enable-background:new 0 0 64 64;" xml:space="preserve">
<style type="text/css">
	.st0{fill:url(#SVGID_1_);}
	.st1{fill:url(#SVGID_2_);}
	.st2{fill:url(#SVGID_3_);}
	.st3{fill:#302C3B;}
	.st4{fill:#1A1626;}
	.st5{fill:#FFFFFF;}
	.st6{fill:#D69600;}
</style>
<linearGradient id="SVGID_1_" gradientUnits="userSpaceOnUse" x1="32" y1="62" x2="32" y2="2">
	<stop  offset="0" style="stop-color:#FF9500"/>
	<stop  offset="0.1919" style="stop-color:#FFAD00"/>
	<stop  offset="0.5455" style="stop-color:#FFD500"/>
	<stop  offset="0.8272" style="stop-color:#FFED00"/>
	<stop  offset="1" style="stop-color:#FFF600"/>
</linearGradient>
<circle class="st0" cx="32" cy="32" r="30"/>
<radialGradient id="SVGID_2_" cx="14.1894" cy="40.2539" r="10" gradientUnits="userSpaceOnUse">
	<stop  offset="0" style="stop-color:#FF6399;stop-opacity:0.55"/>
	<stop  offset="0.2023" style="stop-color:#FF6596;stop-opacity:0.4387"/>
	<stop  offset="0.3648" style="stop-color:#FF6C8C;stop-opacity:0.3493"/>
	<stop  offset="0.5135" style="stop-color:#FF767B;stop-opacity:0.2676"/>
	<stop  offset="0.654" style="stop-color:#FF8663;stop-opacity:0.1903"/>
	<stop  offset="0.7887" style="stop-color:#FF9A44;stop-opacity:0.1162"/>
	<stop  offset="0.9173" style="stop-color:#FFB21F;stop-opacity:0.0455"/>
	<stop  offset="1" style="stop-color:#FFC403;stop-opacity:0"/>
</radialGradient>
<circle class="st1" cx="14.19" cy="40.25" r="10"/>
<radialGradient id="SVGID_3_" cx="49.8105" cy="40" r="10" gradientUnits="userSpaceOnUse">
	<stop  offset="0" style="stop-color:#FF6399;stop-opacity:0.55"/>
	<stop  offset="0.2023" style="stop-color:#FF6596;stop-opacity:0.4387"/>
	<stop  offset="0.3648" style="stop-color:#FF6C8C;stop-opacity:0.3493"/>
	<stop  offset="0.5135" style="stop-color:#FF767B;stop-opacity:0.2676"/>
	<stop  offset="0.654" style="stop-color:#FF8663;stop-opacity:0.1903"/>
	<stop  offset="0.7887" style="stop-color:#FF9A44;stop-opacity:0.1162"/>
	<stop  offset="0.9173" style="stop-color:#FFB21F;stop-opacity:0.0455"/>
	<stop  offset="1" style="stop-color:#FFC403;stop-opacity:0"/>
</radialGradient>
<circle class="st2" cx="49.81" cy="40" r="10"/>
<path class="st3" d="M32,32L32,32L32,32L32,32z"/>
<path class="st4" d="M37.11,52H26.89c-2.52,0-2.52-4,0-4h10.21C39.63,48,39.63,52,37.11,52z"/>
<circle class="st5" cx="20" cy="29" r="9.5"/>
<circle class="st5" cx="44" cy="29" r="9.5"/>
<circle class="st4" cx="20" cy="29" r="4.5"/>
<circle class="st4" cx="44" cy="29" r="4.5"/>
<path class="st6" d="M18.59,9.84c-10.95,3.06-5.25,5.88,4.32,4.43C28.31,13.45,25.8,7.83,18.59,9.84z"/>
<path class="st6" d="M45.41,9.86c-7.21-2.01-9.72,3.61-4.32,4.43C50.66,15.74,56.36,12.92,45.41,9.86z"/>
</svg>
