<?xml version="1.0" encoding="utf-8"?>
<!-- Generator: Adobe Illustrator 15.0.0, SVG Export Plug-In . SVG Version: 6.00 Build 0)  -->
<!DOCTYPE svg PUBLIC "-//W3C//DTD SVG 1.1//EN" "http://www.w3.org/Graphics/SVG/1.1/DTD/svg11.dtd" [
	<!ENTITY ns_flows "http://ns.adobe.com/Flows/1.0/">
	<!ENTITY ns_extend "http://ns.adobe.com/Extensibility/1.0/">
	<!ENTITY ns_ai "http://ns.adobe.com/AdobeIllustrator/10.0/">
	<!ENTITY ns_graphs "http://ns.adobe.com/Graphs/1.0/">
]>
<svg version="1.1" id="Layer_1" xmlns:x="&ns_extend;" xmlns:i="&ns_ai;" xmlns:graph="&ns_graphs;"
	 xmlns="http://www.w3.org/2000/svg" xmlns:xlink="http://www.w3.org/1999/xlink" xmlns:a="http://ns.adobe.com/AdobeSVGViewerExtensions/3.0/"
	 x="0px" y="0px" width="64px" height="64px" viewBox="0 0 64 64" enable-background="new 0 0 64 64" xml:space="preserve">
<path fill="#FF7A00" d="M11.432,52.718C13.934,51.431,22.5,48.63,22.5,48.63l18.977-0.035c0,0,8.662,2.828,11.148,4.121
	C56.24,54.589,57,57.144,57,59.56c0,3.254-50,3.254-50,0C7,57.142,7.807,54.585,11.432,52.718z"/>
<path fill="#ED6A00" d="M16.027,61.483l-0.695-0.066C15.332,56.384,16.027,56.45,16.027,61.483z"/>
<path fill="#ED6A00" d="M48.666,61.417l-0.693,0.066C47.973,56.45,48.666,56.384,48.666,61.417z"/>
<path fill="#ED6A00" d="M22.5,48.63c0,7.668,18.977,7.633,18.977-0.035l-1.707-0.566H24.311L22.5,48.63z"/>
<path fill="#5E4C3B" d="M24,48.243c0,6.002,16,6.002,16,0c0-2.043,0-6.641,0-6.641H24C24,41.603,24,46.2,24,48.243z"/>
<path fill="#1A1714" d="M47.211,38.786c1.083,0.714,2.331,1.247,3.788,1.52c-2.587-5.887,1.313-18.237-6.682-27.311
	c-11.271,0.337-12.829,36.723,2.882,31.883c-1-0.432-1.628-1.315-1.995-2.43c1.211,0.348,2.626,0.359,4.275-0.148
	C48.167,41.734,47.499,40.399,47.211,38.786z"/>
<path fill="#1A1714" d="M18.92,12.995c-7.995,9.073-3.334,21.424-5.921,27.311c1.456-0.272,2.706-0.806,3.788-1.52
	c-0.288,1.613-0.957,2.948-2.269,3.514c1.647,0.508,3.063,0.496,4.273,0.148c-0.367,1.114-0.993,1.998-1.993,2.43
	C32.508,49.718,30.191,13.332,18.92,12.995z"/>
<path id="Path_521_" fill="#735C48" d="M48.441,25.393c-2.546,0.308-4.383,8.815-2.783,11.062c0.225,0.314,1.536,0.813,2.509-1.168
	c0.538-1.098,2.093-2.013,2.573-4.277C51.358,28.109,50.975,25.086,48.441,25.393z"/>
<path id="Path_520_" fill="#735C48" d="M15.558,25.393c2.546,0.308,4.384,8.815,2.782,11.062c-0.224,0.314-1.537,0.813-2.508-1.168
	c-0.539-1.098-2.094-2.013-2.574-4.277C12.641,28.109,13.025,25.086,15.558,25.393z"/>
<path id="Path_519_" fill="#4A3728" d="M48.372,27.023c-0.664,0.209-1.389,1.22-1.782,2.896c2.322-0.498,1.742,3.362-0.275,3.435
	c0.018,0.389,0.045,0.788,0.092,1.209c0.973-1.41,1.96-0.845,2.938-2.941C50.226,29.731,50.017,26.508,48.372,27.023z"/>
<path id="Path_518_" fill="#4A3728" d="M17.408,29.916c-0.394-1.675-1.116-2.686-1.78-2.893c-1.645-0.516-1.855,2.708-0.975,4.599
	c0.979,2.097,1.966,1.531,2.939,2.941c0.048-0.422,0.074-0.822,0.091-1.21C15.687,33.258,15.115,29.446,17.408,29.916z"/>
<path fill="#735C48" d="M31.999,9.035C20.97,9.035,15.657,18,16.321,29.527c0.137,2.317,0.782,5.661,1.58,8.524
	c1.653,5.954,10.381,11.949,14.098,11.949c3.716,0,12.443-5.995,14.099-11.949c0.797-2.863,1.442-6.207,1.579-8.524
	C48.34,18,43.029,9.035,31.999,9.035z"/>
<path id="Path_517_" fill="#4A3728" d="M34.976,36.108c-0.315-0.219-1.054,0.119-2.977,0.119c-1.921,0-2.66-0.338-2.977-0.119
	c-0.376,0.266,0.225,1.463,2.977,1.463C34.752,37.571,35.354,36.374,34.976,36.108z"/>
<path id="Path_516_" fill="#FFFFFF" d="M29.545,29.086c0.095,0.729-0.401,1.593-1.773,2.24c-0.872,0.412-2.684,0.896-5.065-0.106
	c-1.067-0.449-2.108-1.85-2.015-2.623C21.982,26.167,28.337,25.812,29.545,29.086z"/>
<linearGradient id="Oval_1_" gradientUnits="userSpaceOnUse" x1="-424.582" y1="477.4658" x2="-424.582" y2="478.2246" gradientTransform="matrix(6.5701 0 0 -6.5701 2814.7805 3168.5281)">
	<stop  offset="0" style="stop-color:#A6694A"/>
	<stop  offset="1" style="stop-color:#4F2A1E"/>
	<a:midPointStop  offset="0" style="stop-color:#A6694A"/>
	<a:midPointStop  offset="0.5" style="stop-color:#A6694A"/>
	<a:midPointStop  offset="1" style="stop-color:#4F2A1E"/>
</linearGradient>
<circle id="Oval_76_" fill="url(#Oval_1_)" cx="25.233" cy="29.037" r="2.492"/>
<path id="Path_515_" fill="#1A1626" d="M23.986,28.991c0,1.725,2.497,1.725,2.497,0C26.483,27.391,23.986,27.391,23.986,28.991z"/>
<path id="Path_514_" fill="#AB968C" d="M23.606,28.293c0,0.724,1.046,0.724,1.046,0C24.652,27.623,23.606,27.623,23.606,28.293z"/>
<path id="Path_513_" fill="#4A3728" d="M29.557,29.183c-1.013-3.253-7.924-2.772-8.865-0.586
	C21.039,25.797,28.693,25.058,29.557,29.183z"/>
<path id="Path_512_" fill="#FFFFFF" d="M34.453,29.086c-0.095,0.729,0.401,1.593,1.773,2.24c0.872,0.412,2.684,0.896,5.065-0.106
	c1.069-0.449,2.108-1.85,2.015-2.623C42.018,26.167,35.661,25.812,34.453,29.086z"/>
<linearGradient id="Oval_2_" gradientUnits="userSpaceOnUse" x1="-425.23" y1="477.4658" x2="-425.23" y2="478.2246" gradientTransform="matrix(6.5701 0 0 -6.5701 2832.511 3168.5281)">
	<stop  offset="0" style="stop-color:#A6694A"/>
	<stop  offset="1" style="stop-color:#4F2A1E"/>
	<a:midPointStop  offset="0" style="stop-color:#A6694A"/>
	<a:midPointStop  offset="0.5" style="stop-color:#A6694A"/>
	<a:midPointStop  offset="1" style="stop-color:#4F2A1E"/>
</linearGradient>
<circle id="Oval_75_" fill="url(#Oval_2_)" cx="38.709" cy="29.037" r="2.492"/>
<path id="Path_511_" fill="#1A1626" d="M37.461,28.991c0,1.725,2.497,1.725,2.497,0C39.958,27.391,37.461,27.391,37.461,28.991z"/>
<path id="Path_507_" fill="#AB968C" d="M37.082,28.293c0,0.724,1.046,0.724,1.046,0C38.128,27.623,37.082,27.623,37.082,28.293z"/>
<path id="Path_506_" fill="#4A3728" d="M34.442,29.183c1.012-3.251,7.919-2.786,8.864-0.586
	C42.957,25.797,35.305,25.058,34.442,29.183z"/>
<path fill="#301F12" d="M27.384,42.979c2.813-1.717,6.422-1.717,9.232,0c0.398,0.241,0.447-0.019,0.324-0.227
	c-2.08-3.498-7.801-3.498-9.881,0C26.937,42.961,26.983,43.221,27.384,42.979z"/>
<path fill="#403229" d="M43.237,24.508c-2.637-2.164-7.046,0.862-8.813,0.531c-0.373,0.023-0.017,1.272,0.294,1.254
	c2.426-0.034,6.087-2.916,8.531-0.953C43.57,25.564,43.632,24.813,43.237,24.508z"/>
<path fill="#403229" d="M20.763,24.508c2.635-2.164,7.044,0.862,8.812,0.531c0.373,0.023,0.019,1.272-0.294,1.254
	c-2.424-0.034-6.085-2.916-8.531-0.953C20.428,25.564,20.366,24.813,20.763,24.508z"/>
<path fill="#4A3728" d="M29.632,43.864c1.441-0.822,3.295-0.822,4.738,0c0.203,0.115,0.229-0.01,0.166-0.109
	c-1.068-1.676-4.004-1.676-5.072,0C29.401,43.854,29.425,43.979,29.632,43.864z"/>
<linearGradient id="SVGID_1_" gradientUnits="userSpaceOnUse" x1="31.8354" y1="31.8184" x2="31.8354" y2="6">
	<stop  offset="0" style="stop-color:#1A1714"/>
	<stop  offset="0.0953" style="stop-color:#1F1B18"/>
	<stop  offset="0.6555" style="stop-color:#37322C"/>
	<stop  offset="1" style="stop-color:#403A33"/>
	<a:midPointStop  offset="0" style="stop-color:#1A1714"/>
	<a:midPointStop  offset="0.4" style="stop-color:#1A1714"/>
	<a:midPointStop  offset="1" style="stop-color:#403A33"/>
</linearGradient>
<path fill="url(#SVGID_1_)" d="M32.001,6c-6.712,0-10.064,3.035-10.744,4.474c-8.113,1.852-10.723,15.515-4.649,21.345
	c0.755-6.211,1.48-10.201,5.617-14.405c2.412,3.227,7.424,5.042,11.91,5.042c-2.124-1.54-3.573-3.051-4.71-4.458
	c7.493,3.434,15.885,5.631,17.968,13.821C54.602,20.359,48.613,6,32.001,6z"/>
<path fill="#1A1714" d="M21.421,10.472c-0.103,5.721,2.208,10,12.879,11.982C26.649,22.971,18.8,18.349,21.421,10.472z"/>
<path fill="#1A1714" d="M22.091,17.049c-2.786,2.745-5.913,7.504-5.319,14.769c0.554-6.005,3.313-10.949,5.811-14.152
	C22.405,17.473,22.241,17.267,22.091,17.049z"/>
<path fill="#1A1714" d="M26.868,15.235c5.595,5.342,19.345,4.994,20.688,16.582C43.969,20.546,31.811,23.075,26.868,15.235z"/>
</svg>
