<?xml version="1.0" encoding="utf-8"?>
<!-- Generator: Adobe Illustrator 24.1.2, SVG Export Plug-In . SVG Version: 6.00 Build 0)  -->
<svg version="1.1" id="Layer_1" xmlns="http://www.w3.org/2000/svg" xmlns:xlink="http://www.w3.org/1999/xlink" x="0px" y="0px"
	 width="64px" height="64px" viewBox="0 0 64 64" style="enable-background:new 0 0 64 64;" xml:space="preserve">
<style type="text/css">
	.st0{fill:#C99B71;}
	.st1{fill:#B08863;}
	.st2{fill:url(#SVGID_1_);}
	.st3{opacity:0.3;fill:#B08863;}
	.st4{fill:url(#SVGID_2_);}
	.st5{fill:#0FB4D4;}
</style>
<path class="st0" d="M3.68,52.13c1.14,1.15,0.4,7.83,0.4,8.51c0,1.81,15.68,1.81,15.68,0c0-0.62-0.47-7.57,0.88-8.51H3.68z"/>
<path class="st1" d="M20.06,52.13c-1.21,3.36-0.31,7.75-0.31,8.51c0.36-0.77-0.03-5.33,1.35-8.51H20.06z"/>
<path class="st1" d="M4.18,52.13H3.13c1.44,3.39,0.66,7.82,0.95,8.51C4.04,59.95,5.16,55.53,4.18,52.13z"/>
<radialGradient id="SVGID_1_" cx="231.9832" cy="-608.6631" r="27.3066" gradientTransform="matrix(-6.000000e-03 0.9966 -1.186 7.204800e-03 -708.8922 -199.732)" gradientUnits="userSpaceOnUse">
	<stop  offset="0.6885" style="stop-color:#EBC199"/>
	<stop  offset="0.8861" style="stop-color:#D7AA81"/>
	<stop  offset="1" style="stop-color:#C99B71"/>
</radialGradient>
<path class="st2" d="M26.98,34.6c-3.98,3.54-4.61,7.9-5.22,1.22c-0.32-3.45-0.32-8.18-0.36-14.31c-0.02-3.2-4.54-2.73-4.63-0.45
	c-0.16,4.36-0.25,13.83-0.25,13.83s-0.38-15.54-0.39-16.43c-0.03-2.41-4.86-2.94-4.99,0.25c-0.17,4.35-0.29,15.89-0.29,15.89
	s-0.18-11.13-0.37-14.34c-0.13-2.22-4.14-2.25-4.36,0.41c-0.21,2.55-0.39,13.95-0.39,13.95s-0.16-6.96-0.13-8.44
	c0.06-2.65-3.63-2.26-3.99,0.13c-0.51,3.34-0.52,7.02-0.79,10.04c-1.05,11.82,0.34,19.27,11.05,18.27
	c14.18,1.72,12.02-7.94,19.93-18.57C33.06,34.35,29.94,31.97,26.98,34.6z"/>
<path class="st1" d="M27.91,33.31c-1.4,0.69-3.05,2.69-4.12,4.26c-1,1.47-1.3,0.83-1.4-0.37c-0.24-2.9-0.45-10.49-0.48-14.5
	l-0.01-1.2c-0.01-1.88-1.39-2.75-2.75-2.77c-0.02,0-0.03,0-0.05,0c-0.94,0-1.92,0.41-2.45,1.13c-0.02-0.76-0.03-1.27-0.03-1.41
	c-0.02-1.57-1.57-2.44-3.02-2.46c-1.46-0.01-2.92,0.81-2.99,2.7c-0.01,0.14-0.01,0.29-0.02,0.45c-0.43-0.61-1.2-0.99-2.12-1
	c-0.01,0-0.02,0-0.03,0c-1.28,0-2.71,0.78-2.85,2.49c-0.06,0.72-0.12,2.14-0.17,3.8c-0.38-0.35-0.87-0.52-1.33-0.56
	c-1.29-0.1-2.77,0.76-3.01,2.37c-0.33,2.16-0.45,4.43-0.57,6.62c-0.07,1.22-0.13,2.37-0.22,3.45c-0.76,8.53-0.69,17.55,7.77,18.49
	c-6.64-2.23-7.73-7.29-6.75-18.41c0.1-1.09,0.16-2.25,0.23-3.48c0.12-2.17,0.24-4.41,0.56-6.53c0.16-1.03,1.11-1.6,1.92-1.54
	c0.69,0.05,1.07,0.54,1.06,1.32C5.05,27.65,5.4,35.3,5.4,35.3l0.77-0.17c0,0,0.25-11.91,0.46-14.42c0.09-1.1,0.98-1.59,1.83-1.59
	c0.01,0,0.02,0,0.02,0c0.71,0.01,1.44,0.37,1.49,1.17c0.19,3.17,0.51,14.54,0.51,14.54l0.75,0c0,0,0.26-11.81,0.42-16.1
	c0.05-1.3,1.02-1.76,1.92-1.76c0.01,0,0.02,0,0.03,0c0.98,0.01,2,0.57,2.01,1.49c0.01,0.88,0.55,16.56,0.55,16.56l0.75-0.01
	c0,0,0.21-9.64,0.37-13.95c0.03-0.87,0.96-1.36,1.86-1.36c0.41,0.01,1.73,0.15,1.74,1.79l0.01,1.2c0.02,4.21,0.32,11.4,0.61,14.89
	c0.21,2.62,1.76,2.47,2.76,1c0.94-1.37,2.34-3.49,4.25-4.51c2.18-1.16,3.53,0.95,2.69,1.89c-5.96,6.68-4.05,14.33-14.17,18.82
	c9.9-1.55,9.78-12.83,14.94-18.19C33.65,34.87,31.4,31.59,27.91,33.31z"/>
<path class="st1" d="M17.55,35.35c-1.42-0.26-2.15-0.06-2.15-0.06s0.94-0.34,1.14-1.2C16.92,34.95,17.55,35.35,17.55,35.35z"/>
<path class="st1" d="M11.86,35.3c-0.95-0.38-2.21,0-2.21,0s0.94-0.65,1.22-1.39C11.25,34.76,11.86,35.3,11.86,35.3z"/>
<path class="st1" d="M5.71,34.33c-0.08,0.99-0.99,1.48-0.99,1.48s0.81-0.23,2.33-0.5C7.05,35.31,6.09,35.09,5.71,34.33z"/>
<path class="st3" d="M19.53,40.34c-7.82,2.49-7.99,9.04-7.53,11.68c0.1,0.57,0.29,0.36,0.33-0.01c0.26-2.78,1.15-8.39,7.35-11.4
	C20.28,40.32,20.17,40.14,19.53,40.34z"/>
<path class="st0" d="M60.32,52.13c-1.14,1.15-0.4,7.83-0.4,8.51c0,1.81-15.68,1.81-15.68,0c0-0.62,0.47-7.57-0.88-8.51H60.32z"/>
<path class="st1" d="M43.94,52.13c1.21,3.36,0.31,7.75,0.31,8.51c-0.36-0.77,0.03-5.33-1.35-8.51H43.94z"/>
<path class="st1" d="M59.82,52.13h1.05c-1.44,3.39-0.66,7.82-0.95,8.51C59.96,59.95,58.84,55.53,59.82,52.13z"/>
<radialGradient id="SVGID_2_" cx="697.4748" cy="-605.8607" r="27.3066" gradientTransform="matrix(6.000000e-03 0.9966 1.186 7.204800e-03 766.7754 -663.6611)" gradientUnits="userSpaceOnUse">
	<stop  offset="0.6885" style="stop-color:#EBC199"/>
	<stop  offset="0.8861" style="stop-color:#D7AA81"/>
	<stop  offset="1" style="stop-color:#C99B71"/>
</radialGradient>
<path class="st4" d="M37.02,34.6c3.98,3.54,4.61,7.9,5.22,1.22c0.32-3.45,0.32-8.18,0.36-14.31c0.02-3.2,4.54-2.73,4.63-0.45
	c0.16,4.36,0.25,13.83,0.25,13.83s0.38-15.54,0.39-16.43c0.03-2.41,4.86-2.94,4.99,0.25c0.17,4.35,0.29,15.89,0.29,15.89
	s0.18-11.13,0.37-14.34c0.13-2.22,4.14-2.25,4.36,0.41c0.21,2.55,0.39,13.95,0.39,13.95s0.16-6.96,0.13-8.44
	c-0.06-2.65,3.63-2.26,3.99,0.13c0.51,3.34,0.53,7.02,0.79,10.04c1.05,11.82-0.34,19.27-11.05,18.27
	c-14.18,1.72-12.02-7.94-19.93-18.57C30.94,34.35,34.06,31.97,37.02,34.6z"/>
<path class="st1" d="M36.09,33.31c1.4,0.69,3.05,2.69,4.12,4.26c1,1.47,1.3,0.83,1.4-0.37c0.24-2.9,0.45-10.49,0.48-14.5l0.01-1.2
	c0.01-1.88,1.39-2.75,2.75-2.77c0.02,0,0.03,0,0.05,0c0.94,0,1.92,0.41,2.45,1.13c0.02-0.76,0.03-1.27,0.03-1.41
	c0.02-1.57,1.57-2.44,3.02-2.46c1.46-0.01,2.92,0.81,2.99,2.7c0.01,0.14,0.01,0.29,0.02,0.45c0.43-0.61,1.2-0.99,2.12-1
	c0.01,0,0.02,0,0.03,0c1.28,0,2.71,0.78,2.85,2.49c0.06,0.72,0.12,2.14,0.17,3.8c0.38-0.35,0.87-0.52,1.33-0.56
	c1.29-0.1,2.77,0.76,3.01,2.37c0.33,2.16,0.45,4.43,0.57,6.62c0.07,1.22,0.13,2.37,0.22,3.45c0.76,8.53,0.69,17.55-7.77,18.49
	c6.64-2.23,7.73-7.29,6.75-18.41c-0.1-1.09-0.16-2.25-0.23-3.48c-0.12-2.17-0.24-4.41-0.56-6.53c-0.16-1.03-1.11-1.6-1.92-1.54
	c-0.69,0.05-1.07,0.54-1.06,1.32c0.03,1.48-0.32,9.13-0.32,9.13l-0.77-0.17c0,0-0.25-11.91-0.46-14.42
	c-0.09-1.1-0.98-1.59-1.83-1.59c-0.01,0-0.02,0-0.02,0c-0.71,0.01-1.44,0.37-1.49,1.17c-0.19,3.17-0.51,14.54-0.51,14.54l-0.75,0
	c0,0-0.26-11.81-0.42-16.1c-0.05-1.3-1.02-1.76-1.92-1.76c-0.01,0-0.02,0-0.03,0c-0.98,0.01-2,0.57-2.01,1.49
	c-0.01,0.88-0.55,16.56-0.55,16.56l-0.75-0.01c0,0-0.21-9.64-0.37-13.95c-0.03-0.87-0.96-1.36-1.86-1.36
	c-0.41,0.01-1.73,0.15-1.74,1.79l-0.01,1.2c-0.02,4.21-0.32,11.4-0.61,14.89c-0.21,2.62-1.76,2.47-2.76,1
	c-0.94-1.37-2.34-3.49-4.25-4.51c-2.18-1.16-3.53,0.95-2.69,1.89c5.96,6.68,4.05,14.33,14.17,18.82
	c-9.9-1.55-9.78-12.83-14.94-18.19C30.35,34.87,32.6,31.59,36.09,33.31z"/>
<path class="st1" d="M46.45,35.35c1.42-0.26,2.15-0.06,2.15-0.06s-0.94-0.34-1.14-1.2C47.08,34.95,46.45,35.35,46.45,35.35z"/>
<path class="st1" d="M52.14,35.3c0.95-0.38,2.21,0,2.21,0s-0.94-0.65-1.22-1.39C52.75,34.76,52.14,35.3,52.14,35.3z"/>
<path class="st1" d="M58.29,34.33c0.08,0.99,0.99,1.48,0.99,1.48s-0.81-0.23-2.33-0.5C56.95,35.31,57.91,35.09,58.29,34.33z"/>
<path class="st3" d="M44.47,40.34c7.82,2.49,7.99,9.04,7.53,11.68c-0.1,0.57-0.29,0.36-0.33-0.01c-0.26-2.78-1.15-8.39-7.35-11.4
	C43.72,40.32,43.83,40.14,44.47,40.34z"/>
<path class="st5" d="M30.03,5.06c0,4.17,2,8.94,2,8.94s2-4.77,2-8.94C34.03-1.69,30.03-1.69,30.03,5.06z"/>
<path class="st5" d="M19.8,7.26C21.89,10.87,26,14,26,14s-0.65-5.13-2.73-8.74C19.89-0.59,16.42,1.41,19.8,7.26z"/>
<path class="st5" d="M40.73,5.26C38.65,8.87,38,14,38,14s4.11-3.13,6.2-6.74C47.58,1.42,44.11-0.59,40.73,5.26z"/>
</svg>
