<?xml version="1.0" encoding="utf-8"?>
<!-- Generator: Adobe Illustrator 15.0.0, SVG Export Plug-In . SVG Version: 6.00 Build 0)  -->
<!DOCTYPE svg PUBLIC "-//W3C//DTD SVG 1.1//EN" "http://www.w3.org/Graphics/SVG/1.1/DTD/svg11.dtd" [
	<!ENTITY ns_flows "http://ns.adobe.com/Flows/1.0/">
	<!ENTITY ns_extend "http://ns.adobe.com/Extensibility/1.0/">
	<!ENTITY ns_ai "http://ns.adobe.com/AdobeIllustrator/10.0/">
	<!ENTITY ns_graphs "http://ns.adobe.com/Graphs/1.0/">
]>
<svg version="1.1" id="Layer_1" xmlns:x="&ns_extend;" xmlns:i="&ns_ai;" xmlns:graph="&ns_graphs;"
	 xmlns="http://www.w3.org/2000/svg" xmlns:xlink="http://www.w3.org/1999/xlink" xmlns:a="http://ns.adobe.com/AdobeSVGViewerExtensions/3.0/"
	 x="0px" y="0px" width="64px" height="64px" viewBox="0 0 64 64" enable-background="new 0 0 64 64" xml:space="preserve">
<path fill="#3AB0A2" d="M57.275,52.715c-2.686-1.293-11.776-4.245-11.776-4.245l-21,0.031l-5.614,12.924
	C34.214,62.599,62,61.977,62,59.56C62,57.144,61.18,54.587,57.275,52.715z"/>
<path fill="#2B998D" d="M52.998,61.417l-0.748,0.066C52.25,56.448,52.998,56.382,52.998,61.417z"/>
<path fill="#2B998D" d="M24.499,48.501c0,8.123,21,8.092,21-0.031l-2.109-0.687H26.694L24.499,48.501z"/>
<path fill="#F5BB51" d="M25.999,48.011c0,6.358,18,6.358,18,0c0-2.164,0-7.035,0-7.035h-18
	C25.999,40.976,25.999,45.847,25.999,48.011z"/>
<path id="Path_599_" fill="#FFC940" d="M51.44,25.393c-2.545,0.307-4.383,8.815-2.781,11.061c0.225,0.313,1.535,0.814,2.508-1.168
	c0.539-1.098,2.092-2.014,2.574-4.278C54.358,28.108,53.974,25.086,51.44,25.393z"/>
<path id="Path_598_" fill="#FFC940" d="M18.56,25.393c2.545,0.307,4.383,8.815,2.781,11.061c-0.225,0.313-1.535,0.814-2.51-1.168
	c-0.537-1.098-2.092-2.014-2.572-4.278C15.64,28.108,16.026,25.086,18.56,25.393z"/>
<path id="Path_597_" fill="#F0A429" d="M51.372,27.022c-0.664,0.209-1.389,1.221-1.781,2.898c2.32-0.498,1.74,3.362-0.277,3.434
	c0.02,0.389,0.045,0.787,0.094,1.207c0.971-1.408,1.959-0.844,2.938-2.94C53.226,29.733,53.017,26.508,51.372,27.022z"/>
<path id="Path_596_" fill="#F0A429" d="M20.409,29.917c-0.395-1.676-1.117-2.686-1.781-2.895c-1.643-0.514-1.855,2.711-0.973,4.6
	c0.979,2.096,1.967,1.532,2.939,2.94c0.047-0.42,0.074-0.82,0.09-1.209C18.688,33.259,18.116,29.446,20.409,29.917z"/>
<path id="Path_595_" fill="#FFC940" d="M34.999,9.034c-11.027,0-16.34,8.328-15.676,19.908c0.133,2.33,1.582,9.93,2.947,12.657
	c1.398,2.789,6.074,7.09,8.938,7.98c1.811,0.561,5.773,0.561,7.582,0c2.865-0.891,7.543-5.191,8.939-7.98
	c1.369-2.727,2.814-10.325,2.945-12.657C51.343,17.362,46.03,9.034,34.999,9.034z"/>
<path id="Path_594_" fill="#966F42" d="M46.981,24.543c-2.521-1.336-7.348-1.4-9.146-0.469c-0.387,0.178-0.131,1.441,0.193,1.322
	c2.504-0.99,6.547-1.012,8.893,0.084C47.233,25.624,47.364,24.729,46.981,24.543z"/>
<path id="Path_593_" fill="#966F42" d="M23.019,24.543c2.521-1.336,7.346-1.4,9.146-0.469c0.385,0.178,0.131,1.441-0.193,1.322
	c-2.51-0.99-6.547-1.012-8.895,0.084C22.767,25.624,22.638,24.729,23.019,24.543z"/>
<path id="Path_592_" fill="#F0A429" d="M37.976,36.108c-0.314-0.219-1.053,0.119-2.977,0.119c-1.92,0-2.66-0.338-2.975-0.119
	c-0.377,0.266,0.223,1.461,2.975,1.461C37.753,37.569,38.354,36.374,37.976,36.108z"/>
<path id="Path_591_" fill="#F0A429" d="M34.999,40.646c-2.479-0.729-6.154,0.346-6.154,0.346c1.398,1.521,2.424,3.494,6.154,3.494
	c4.275,0,5.002-2.24,6.156-3.494C41.155,40.991,37.479,39.911,34.999,40.646z"/>
<path id="Path_590_" fill="#FFFFFF" d="M29.767,41.249c2.602,2.176,7.852,2.191,10.467,0C37.462,41.366,32.558,41.368,29.767,41.249
	z"/>
<path id="Path_589_" fill="#FFFFFF" d="M32.546,29.084c0.094,0.73-0.402,1.594-1.773,2.242c-0.871,0.412-2.686,0.896-5.066-0.107
	c-1.066-0.449-2.107-1.848-2.014-2.623C24.983,26.167,31.337,25.811,32.546,29.084z"/>
<linearGradient id="Oval_1_" gradientUnits="userSpaceOnUse" x1="-424.1255" y1="477.4658" x2="-424.1255" y2="478.2236" gradientTransform="matrix(6.5701 0 0 -6.5701 2814.7805 3168.5281)">
	<stop  offset="0" style="stop-color:#A6694A"/>
	<stop  offset="1" style="stop-color:#4F2A1E"/>
	<a:midPointStop  offset="0" style="stop-color:#A6694A"/>
	<a:midPointStop  offset="0.5" style="stop-color:#A6694A"/>
	<a:midPointStop  offset="1" style="stop-color:#4F2A1E"/>
</linearGradient>
<circle id="Oval_78_" fill="url(#Oval_1_)" cx="28.235" cy="29.038" r="2.492"/>
<path id="Path_588_" fill="#1A1626" d="M26.987,28.991c0,1.725,2.496,1.725,2.496,0C29.483,27.391,26.987,27.391,26.987,28.991z"/>
<path id="Path_587_" fill="#AB968C" d="M26.608,28.292c0,0.723,1.045,0.723,1.045,0C27.653,27.624,26.608,27.624,26.608,28.292z"/>
<path id="Path_586_" fill="#F0A429" d="M32.558,29.18c-1.014-3.25-7.926-2.77-8.865-0.584C24.04,25.797,31.694,25.057,32.558,29.18z
	"/>
<path id="Path_585_" fill="#FFFFFF" d="M37.454,29.084c-0.094,0.73,0.4,1.594,1.773,2.242c0.871,0.412,2.684,0.896,5.064-0.107
	c1.07-0.449,2.109-1.848,2.016-2.623C45.017,26.167,38.661,25.811,37.454,29.084z"/>
<linearGradient id="Oval_2_" gradientUnits="userSpaceOnUse" x1="-424.7734" y1="477.4658" x2="-424.7734" y2="478.2236" gradientTransform="matrix(6.5701 0 0 -6.5701 2832.511 3168.5281)">
	<stop  offset="0" style="stop-color:#A6694A"/>
	<stop  offset="1" style="stop-color:#4F2A1E"/>
	<a:midPointStop  offset="0" style="stop-color:#A6694A"/>
	<a:midPointStop  offset="0.5" style="stop-color:#A6694A"/>
	<a:midPointStop  offset="1" style="stop-color:#4F2A1E"/>
</linearGradient>
<circle id="Oval_77_" fill="url(#Oval_2_)" cx="41.708" cy="29.038" r="2.492"/>
<path id="Path_584_" fill="#1A1626" d="M40.462,28.991c0,1.725,2.496,1.725,2.496,0C42.958,27.391,40.462,27.391,40.462,28.991z"/>
<path id="Path_583_" fill="#AB968C" d="M40.081,28.292c0,0.723,1.047,0.723,1.047,0C41.128,27.624,40.081,27.624,40.081,28.292z"/>
<path id="Path_582_" fill="#F0A429" d="M37.442,29.18c1.012-3.248,7.92-2.783,8.865-0.584C45.956,25.797,38.306,25.057,37.442,29.18
	z"/>
<path fill="#7A6056" d="M49.085,11.792C46.671,8.532,42.253,6,34.999,6c-7.252,0-11.668,2.532-14.082,5.793
	C17.499,16.409,52.501,16.409,49.085,11.792z"/>
<linearGradient id="SVGID_1_" gradientUnits="userSpaceOnUse" x1="35" y1="31.7915" x2="35" y2="10.4111">
	<stop  offset="0.5" style="stop-color:#473834"/>
	<stop  offset="0.6387" style="stop-color:#503F3A"/>
	<stop  offset="0.8641" style="stop-color:#68524A"/>
	<stop  offset="1" style="stop-color:#7A6056"/>
	<a:midPointStop  offset="0.5" style="stop-color:#473834"/>
	<a:midPointStop  offset="0.6" style="stop-color:#473834"/>
	<a:midPointStop  offset="1" style="stop-color:#7A6056"/>
</linearGradient>
<path fill="url(#SVGID_1_)" d="M49.085,11.792c-2.414-3.261-6.832,0.275-14.086,0.275c-7.252,0-11.668-3.536-14.082-0.275
	c-3.418,4.616-2.258,19.999-0.736,19.999c0.24,0,0.275-5.381,0.736-9.104c0.373-3.029,1.094-5.969,1.924-6.449
	c2.531-1.467,7.412,0.631,12.158,0.631s9.629-2.098,12.162-0.631c0.828,0.48,1.547,3.42,1.924,6.449
	c0.459,3.723,0.494,9.104,0.734,9.104C51.341,31.792,52.501,16.409,49.085,11.792z"/>
<path fill="#3AB0A2" d="M19.858,44.798c-1.621-0.738-4.076-7.18-4.467-8.764c-0.223-0.897-1.375-6.81-0.564-13.233
	c0.242-1.896-8.92-1.884-9.277-0.36c-1.594,6.76-1.018,16.278-0.482,19.227c0.286,1.589,4.438,10.147,6.824,14.613
	c1.603,2.999,4.632,4.962,6.993,5.144c0,0,5.883-3.439,5.614-12.924C24.499,48.501,22.188,45.857,19.858,44.798z"/>
<path fill="#F5BB51" d="M14.292,22.447c0,1.176-8.326,1.176-8.326,0C5.966,14.711,14.292,14.984,14.292,22.447z"/>
<path fill="#F5BB51" d="M20.456,11.167c-3,0.064-3.258,3.041-4.129,2.325c-0.182-0.146-0.248-0.872-0.154-1.196
	c0.684-2.334,1.729-6.646,2.041-7.859c0.57-2.2-2.426-3.028-2.994-0.829c-0.029,0.108-1.859,8.194-1.99,8.162
	c-0.121-0.031-0.211-9.199-0.268-10.076c-0.146-2.425-3.301-2.162-3.098,0.26c0.008,0.098,0.355,9.816,0.146,9.816
	c-0.18,0-1.857-8.119-2.037-8.968c-0.5-2.377-3.58-1.657-3.027,0.707c0.023,0.091,2.096,8.261,1.902,8.261
	c-0.162,0-2.299-5.128-2.299-5.128C3.886,4.739,1.448,5.567,2.114,7.472c1.414,4.049,2.156,4.635,1.947,8.802
	c-0.184,3.628,1.936,6.22,6.074,6.226c9.045,0.014,6.482-6.492,11.793-9.774C22.587,12.318,21.954,11.137,20.456,11.167z"/>
</svg>
