<?xml version="1.0" encoding="utf-8"?>
<!-- Generator: Adobe Illustrator 15.0.0, SVG Export Plug-In . SVG Version: 6.00 Build 0)  -->
<!DOCTYPE svg PUBLIC "-//W3C//DTD SVG 1.1//EN" "http://www.w3.org/Graphics/SVG/1.1/DTD/svg11.dtd" [
	<!ENTITY ns_flows "http://ns.adobe.com/Flows/1.0/">
	<!ENTITY ns_extend "http://ns.adobe.com/Extensibility/1.0/">
	<!ENTITY ns_ai "http://ns.adobe.com/AdobeIllustrator/10.0/">
	<!ENTITY ns_graphs "http://ns.adobe.com/Graphs/1.0/">
]>
<svg version="1.1" id="Layer_1" xmlns:x="&ns_extend;" xmlns:i="&ns_ai;" xmlns:graph="&ns_graphs;"
	 xmlns="http://www.w3.org/2000/svg" xmlns:xlink="http://www.w3.org/1999/xlink" xmlns:a="http://ns.adobe.com/AdobeSVGViewerExtensions/3.0/"
	 x="0px" y="0px" width="64px" height="64px" viewBox="0 0 64 64" enable-background="new 0 0 64 64" xml:space="preserve">
<linearGradient id="SVGID_1_" gradientUnits="userSpaceOnUse" x1="31.4673" y1="47.1895" x2="31.4673" y2="18.0005">
	<stop  offset="0.1758" style="stop-color:#CFD8DD"/>
	<stop  offset="0.4379" style="stop-color:#D8DFE4"/>
	<stop  offset="1" style="stop-color:#E6EBEF"/>
	<a:midPointStop  offset="0.1758" style="stop-color:#CFD8DD"/>
	<a:midPointStop  offset="0.437" style="stop-color:#CFD8DD"/>
	<a:midPointStop  offset="1" style="stop-color:#E6EBEF"/>
</linearGradient>
<path fill="url(#SVGID_1_)" d="M1.067,38.676v4.865c0,0-1.067,0-1.067,3.648h62.934V37.014c0,0,0-6.119,0-15.688
	c0-2.335-1.365-3.325-3.734-3.325c-9.066,0-35.732,0-35.732,0c-7.825,0-10.046,3.289-21.6,16.453
	C0.877,35.582,1.067,38.676,1.067,38.676z"/>
<linearGradient id="SVGID_2_" gradientUnits="userSpaceOnUse" x1="80.7305" y1="-571.3643" x2="81.9473" y2="-571.3643" gradientTransform="matrix(0 -1 1 0 605.7095 121.9531)">
	<stop  offset="0" style="stop-color:#E6EBEF"/>
	<stop  offset="0.2077" style="stop-color:#E1E7EB"/>
	<stop  offset="0.4527" style="stop-color:#D3DADF"/>
	<stop  offset="0.7164" style="stop-color:#BBC6CB"/>
	<stop  offset="0.9917" style="stop-color:#9AA9AF"/>
	<stop  offset="1" style="stop-color:#99A8AE"/>
	<a:midPointStop  offset="0" style="stop-color:#E6EBEF"/>
	<a:midPointStop  offset="0.6727" style="stop-color:#E6EBEF"/>
	<a:midPointStop  offset="1" style="stop-color:#99A8AE"/>
</linearGradient>
<path fill="url(#SVGID_2_)" d="M61.012,41.141l-0.016-1.043c0,0-41.79-0.412-53.317,0.512
	C19.231,41.531,61.012,41.141,61.012,41.141z"/>
<linearGradient id="SVGID_3_" gradientUnits="userSpaceOnUse" x1="32.0005" y1="54.4883" x2="32.0005" y2="47.1895">
	<stop  offset="0.1758" style="stop-color:#CFD8DD"/>
	<stop  offset="0.4379" style="stop-color:#D8DFE4"/>
	<stop  offset="1" style="stop-color:#E6EBEF"/>
	<a:midPointStop  offset="0.1758" style="stop-color:#CFD8DD"/>
	<a:midPointStop  offset="0.437" style="stop-color:#CFD8DD"/>
	<a:midPointStop  offset="1" style="stop-color:#E6EBEF"/>
</linearGradient>
<path fill="url(#SVGID_3_)" d="M62.934,54.488c0.588,0,1.066-0.549,1.066-1.217v-4.865c0-0.67-0.479-1.217-1.066-1.217H0v6.082
	c0,0.668,0.481,1.217,1.067,1.217H62.934z"/>
<path fill="#E6EBEF" d="M1.426,38.676h3.255v4.865H1.426V38.676z"/>
<linearGradient id="SVGID_4_" gradientUnits="userSpaceOnUse" x1="15.4668" y1="32.5962" x2="15.4668" y2="21.3242">
	<stop  offset="0" style="stop-color:#302C3B"/>
	<stop  offset="0.2358" style="stop-color:#41424F"/>
	<stop  offset="0.7404" style="stop-color:#616B76"/>
	<stop  offset="1" style="stop-color:#6E7B85"/>
	<a:midPointStop  offset="0" style="stop-color:#302C3B"/>
	<a:midPointStop  offset="0.4424" style="stop-color:#302C3B"/>
	<a:midPointStop  offset="1" style="stop-color:#6E7B85"/>
</linearGradient>
<path fill="url(#SVGID_4_)" d="M14.492,23.045c0.829-0.946,2.469-1.721,3.642-1.721h4.446c1.173,0,1.9,1.063,1.615,2.36
	l-1.436,6.551c-0.285,1.298-1.477,2.36-2.65,2.36H7.779c-1.173,0-1.454-0.775-0.625-1.72C8.142,29.75,13.321,24.38,14.492,23.045z"
	/>
<linearGradient id="SVGID_5_" gradientUnits="userSpaceOnUse" x1="44.4316" y1="32.5962" x2="44.4316" y2="21.3242">
	<stop  offset="0" style="stop-color:#302C3B"/>
	<stop  offset="0.2358" style="stop-color:#41424F"/>
	<stop  offset="0.7404" style="stop-color:#616B76"/>
	<stop  offset="1" style="stop-color:#6E7B85"/>
	<a:midPointStop  offset="0" style="stop-color:#302C3B"/>
	<a:midPointStop  offset="0.4424" style="stop-color:#302C3B"/>
	<a:midPointStop  offset="1" style="stop-color:#6E7B85"/>
</linearGradient>
<path fill="url(#SVGID_5_)" d="M29.165,23.716c-0.215-1.315,0.568-2.392,1.742-2.392h27.289c1.174,0,1.539,1.011,1.539,2.337
	c0,1.678,0,4.965,0,6.599c0,1.327-0.365,2.336-1.539,2.336H32.756c-1.173,0-2.311-1.076-2.527-2.391L29.165,23.716z"/>
<path fill="#B3C2C6" d="M12.208,51.836H4.579v-0.152c0-4.506-0.017-7.877-0.031-10.586c-0.038-7.576-0.042-8.55,0.492-9.16
	c3.235-3.687,6.215-6.874,7.992-8.78c0.398-0.426,0.731-0.782,0.985-1.058c0.796-0.86,2.313-1.785,3.763-1.785h5.171
	c0.71,0,1.362,0.374,1.833,1.054c0.46,0.665,0.656,1.502,0.513,2.186c-0.383,1.825-0.867,4.034-1.379,6.373
	c-0.915,4.183-1.862,8.513-2.179,10.388c-1.2,7.109-9.418,11.463-9.502,11.506L12.208,51.836z M4.846,51.531h7.304
	c0.508-0.273,8.186-4.514,9.325-11.273c0.319-1.883,1.267-6.215,2.183-10.403c0.513-2.339,0.996-4.548,1.379-6.371
	c0.123-0.586-0.061-1.341-0.465-1.925c-0.418-0.605-0.996-0.94-1.623-0.94h-5.171c-1.377,0-2.821,0.884-3.579,1.704
	c-0.254,0.274-0.588,0.63-0.986,1.059c-1.777,1.903-4.752,5.089-7.987,8.774c-0.454,0.518-0.448,1.804-0.413,8.941
	C4.829,43.775,4.846,47.102,4.846,51.531z"/>
<path fill="#99A8AE" d="M16.8,34.857h4.267v1.217H16.8V34.857z"/>
<path fill="#E81C27" d="M60.799,41.109v2.432l2.135,2.432v-4.863H60.799z"/>
<path fill="#EA8800" d="M60.799,38.676v2.434h2.135v-4.865L60.799,38.676z"/>
<path fill="#1A1626" d="M60.799,54.49c0-4.746-3.816-8.588-8.533-8.588c-4.707-0.002-8.529,3.848-8.533,8.588H60.799z"/>
<radialGradient id="SVGID_6_" cx="5.9229" cy="94.1855" r="6.4783" gradientTransform="matrix(1.1526 0 0 1.1596 45.4398 -54.7297)" gradientUnits="userSpaceOnUse">
	<stop  offset="0.4909" style="stop-color:#5B666E"/>
	<stop  offset="0.6437" style="stop-color:#525A64"/>
	<stop  offset="0.9181" style="stop-color:#3C3B49"/>
	<stop  offset="1" style="stop-color:#343040"/>
	<a:midPointStop  offset="0.4909" style="stop-color:#5B666E"/>
	<a:midPointStop  offset="0.5765" style="stop-color:#5B666E"/>
	<a:midPointStop  offset="1" style="stop-color:#343040"/>
</radialGradient>
<ellipse fill="url(#SVGID_6_)" cx="52.266" cy="54.488" rx="7.467" ry="7.512"/>
<path fill="#E6EBEF" d="M57.432,54.488c0,2.869-2.311,5.195-5.166,5.195c-2.85,0-5.162-2.326-5.162-5.195
	c0-2.871,2.313-5.197,5.162-5.197C55.121,49.291,57.432,51.617,57.432,54.488z"/>
<path fill="#4E5E67" d="M56.031,55.773c0.137-0.404,0.215-0.836,0.215-1.285c0-0.451-0.078-0.883-0.215-1.285l-2.215,1.285
	L56.031,55.773z"/>
<path fill="#4E5E67" d="M53.041,53.135l2.213-1.283c-0.566-0.65-1.338-1.113-2.213-1.289V53.135z"/>
<path fill="#4E5E67" d="M48.504,53.201c-0.135,0.404-0.215,0.836-0.215,1.287c0,0.449,0.08,0.881,0.215,1.285l2.215-1.285
	L48.504,53.201z"/>
<path fill="#4E5E67" d="M53.041,55.838v2.574c0.877-0.176,1.646-0.639,2.215-1.289L53.041,55.838z"/>
<path fill="#4E5E67" d="M51.492,53.137v-2.574c-0.875,0.176-1.646,0.639-2.213,1.289L51.492,53.137z"/>
<path fill="#4E5E67" d="M51.492,55.84l-2.213,1.283c0.568,0.65,1.338,1.113,2.213,1.289V55.84z"/>
<path fill="#CFD8DD" d="M54.295,54.488c0,1.127-0.906,2.039-2.029,2.039c-1.119,0-2.029-0.912-2.029-2.039
	c0-1.129,0.91-2.043,2.029-2.043C53.389,52.445,54.295,53.359,54.295,54.488z"/>
<path fill="#E6EBEF" d="M52.941,54.488c0,0.373-0.303,0.676-0.676,0.676c-0.369,0-0.672-0.303-0.672-0.676
	c0-0.375,0.303-0.678,0.672-0.678C52.639,53.811,52.941,54.113,52.941,54.488z"/>
<path fill="#4E5E67" d="M52.559,53.266c0,0.387-0.582,0.387-0.582,0C51.977,52.877,52.559,52.877,52.559,53.266z"/>
<path fill="#4E5E67" d="M52.559,55.709c0,0.389-0.582,0.389-0.582,0C51.977,55.322,52.559,55.322,52.559,55.709z"/>
<path fill="#4E5E67" d="M53.465,54.127c-0.336,0.197-0.625-0.309-0.291-0.504C53.508,53.43,53.797,53.936,53.465,54.127z"/>
<path fill="#4E5E67" d="M51.359,55.352c-0.332,0.193-0.623-0.313-0.289-0.506C51.406,54.65,51.695,55.156,51.359,55.352z"/>
<path fill="#4E5E67" d="M53.172,55.352c-0.332-0.195-0.043-0.701,0.293-0.506C53.797,55.039,53.508,55.545,53.172,55.352z"/>
<path fill="#4E5E67" d="M51.07,54.127c-0.336-0.191-0.043-0.697,0.289-0.504C51.695,53.818,51.406,54.324,51.07,54.127z"/>
<path fill="#1A1626" d="M22.4,54.488c0-4.748-3.816-8.588-8.535-8.588c-4.707-0.002-8.527,3.848-8.531,8.588H22.4z"/>
<radialGradient id="SVGID_7_" cx="-27.3926" cy="94.1855" r="6.4783" gradientTransform="matrix(1.1526 0 0 1.1596 45.4398 -54.7297)" gradientUnits="userSpaceOnUse">
	<stop  offset="0.4909" style="stop-color:#5B666E"/>
	<stop  offset="0.6437" style="stop-color:#525A64"/>
	<stop  offset="0.9181" style="stop-color:#3C3B49"/>
	<stop  offset="1" style="stop-color:#343040"/>
	<a:midPointStop  offset="0.4909" style="stop-color:#5B666E"/>
	<a:midPointStop  offset="0.5765" style="stop-color:#5B666E"/>
	<a:midPointStop  offset="1" style="stop-color:#343040"/>
</radialGradient>
<ellipse fill="url(#SVGID_7_)" cx="13.867" cy="54.488" rx="7.467" ry="7.512"/>
<ellipse fill="#E6EBEF" cx="13.868" cy="54.488" rx="5.164" ry="5.195"/>
<path fill="#4E5E67" d="M17.631,55.775c0.137-0.406,0.214-0.838,0.214-1.287c0-0.451-0.077-0.883-0.214-1.285l-2.212,1.285
	L17.631,55.775z"/>
<path fill="#4E5E67" d="M14.642,53.135l2.212-1.283c-0.566-0.65-1.337-1.113-2.212-1.289V53.135z"/>
<path fill="#4E5E67" d="M10.104,53.201c-0.135,0.404-0.212,0.836-0.212,1.287c0,0.449,0.077,0.881,0.212,1.285l2.215-1.285
	L10.104,53.201z"/>
<path fill="#4E5E67" d="M14.642,55.838v2.576c0.879-0.176,1.646-0.641,2.215-1.289L14.642,55.838z"/>
<path fill="#4E5E67" d="M13.092,53.137v-2.574c-0.875,0.176-1.646,0.639-2.212,1.289L13.092,53.137z"/>
<path fill="#4E5E67" d="M13.092,55.84l-2.212,1.285c0.568,0.648,1.337,1.113,2.212,1.289V55.84z"/>
<path fill="#CFD8DD" d="M15.896,54.488c0,1.127-0.906,2.039-2.029,2.039c-1.121,0-2.029-0.912-2.029-2.039
	c0-1.129,0.908-2.043,2.029-2.043C14.99,52.445,15.896,53.359,15.896,54.488z"/>
<path fill="#E6EBEF" d="M14.544,54.488c0,0.375-0.304,0.676-0.677,0.676c-0.371,0-0.673-0.301-0.673-0.676
	c0-0.377,0.302-0.678,0.673-0.678C14.24,53.811,14.544,54.111,14.544,54.488z"/>
<path fill="#4E5E67" d="M14.158,53.268c0,0.385-0.581,0.385-0.581,0C13.577,52.877,14.158,52.877,14.158,53.268z"/>
<path fill="#4E5E67" d="M14.158,55.709c0,0.389-0.581,0.389-0.581,0C13.577,55.322,14.158,55.322,14.158,55.709z"/>
<path fill="#4E5E67" d="M15.064,54.129c-0.335,0.195-0.623-0.311-0.288-0.506C15.108,53.43,15.398,53.934,15.064,54.129z"/>
<path fill="#4E5E67" d="M12.96,55.352c-0.333,0.193-0.623-0.311-0.29-0.506C13.006,54.65,13.296,55.156,12.96,55.352z"/>
<path fill="#4E5E67" d="M14.773,55.352c-0.331-0.195-0.044-0.701,0.292-0.506C15.398,55.041,15.108,55.545,14.773,55.352z"/>
<path fill="#4E5E67" d="M12.671,54.129c-0.335-0.195-0.044-0.699,0.29-0.506C13.296,53.818,13.006,54.324,12.671,54.129z"/>
</svg>
