<?xml version="1.0" encoding="utf-8"?>
<!-- Generator: Adobe Illustrator 15.0.0, SVG Export Plug-In . SVG Version: 6.00 Build 0)  -->
<!DOCTYPE svg PUBLIC "-//W3C//DTD SVG 1.1//EN" "http://www.w3.org/Graphics/SVG/1.1/DTD/svg11.dtd" [
	<!ENTITY ns_flows "http://ns.adobe.com/Flows/1.0/">
	<!ENTITY ns_extend "http://ns.adobe.com/Extensibility/1.0/">
	<!ENTITY ns_ai "http://ns.adobe.com/AdobeIllustrator/10.0/">
	<!ENTITY ns_graphs "http://ns.adobe.com/Graphs/1.0/">
]>
<svg version="1.1" id="Layer_1" xmlns:x="&ns_extend;" xmlns:i="&ns_ai;" xmlns:graph="&ns_graphs;"
	 xmlns="http://www.w3.org/2000/svg" xmlns:xlink="http://www.w3.org/1999/xlink" xmlns:a="http://ns.adobe.com/AdobeSVGViewerExtensions/3.0/"
	 x="0px" y="0px" width="64px" height="64px" viewBox="0 0 64 64" enable-background="new 0 0 64 64" xml:space="preserve">
<linearGradient id="SVGID_1_" gradientUnits="userSpaceOnUse" x1="18" y1="32" x2="46" y2="32">
	<stop  offset="0" style="stop-color:#5B666E"/>
	<stop  offset="0.0382" style="stop-color:#494E59"/>
	<stop  offset="0.0801" style="stop-color:#3B3B48"/>
	<stop  offset="0.1233" style="stop-color:#33303E"/>
	<stop  offset="0.1697" style="stop-color:#302C3B"/>
	<a:midPointStop  offset="0" style="stop-color:#5B666E"/>
	<a:midPointStop  offset="0.2788" style="stop-color:#5B666E"/>
	<a:midPointStop  offset="0.1697" style="stop-color:#302C3B"/>
</linearGradient>
<path fill="url(#SVGID_1_)" d="M46,60c0,1.1-0.9,2-2,2H20c-1.1,0-2-0.9-2-2V4c0-1.1,0.9-2,2-2h24c1.1,0,2,0.9,2,2V60z"/>
<polygon fill="#4E5E67" points="46,4 46,8 52,6 52,4 "/>
<polygon fill="#4E5E67" points="46,23 46,27 52,25 52,23 "/>
<polygon fill="#4E5E67" points="46,42 46,46 52,44 52,42 "/>
<polygon fill="#4E5E67" points="18,4 18,8 12,6 12,4 "/>
<polygon fill="#4E5E67" points="18,23 18,27 12,25 12,23 "/>
<polygon fill="#4E5E67" points="18,42 18,46 12,44 12,42 "/>
<path fill="#4E5E67" d="M25.884,9.523c2.936-4.674,9.303-4.678,12.233,0.002c0.693,1.105,2.418,0.08,1.721-1.033
	C36.086,2.501,27.919,2.505,24.164,8.49C23.464,9.604,25.191,10.629,25.884,9.523L25.884,9.523z"/>
<path fill="#4E5E67" d="M25.884,28.523c2.936-4.674,9.303-4.678,12.233,0.002c0.693,1.105,2.418,0.08,1.721-1.033
	c-3.752-5.99-11.918-5.986-15.674-0.002C23.464,28.604,25.191,29.629,25.884,28.523L25.884,28.523z"/>
<path fill="#4E5E67" d="M25.884,47.523c2.936-4.674,9.303-4.678,12.233,0.002c0.693,1.104,2.418,0.08,1.721-1.033
	c-3.752-5.99-11.918-5.986-15.674-0.002C23.464,47.604,25.191,48.629,25.884,47.523L25.884,47.523z"/>
<linearGradient id="SVGID_2_" gradientUnits="userSpaceOnUse" x1="31.9995" y1="25" x2="31.9995" y2="39.0005">
	<stop  offset="0" style="stop-color:#FFE72E"/>
	<stop  offset="0.2907" style="stop-color:#FFE52A"/>
	<stop  offset="0.5918" style="stop-color:#FFDE1D"/>
	<stop  offset="0.8967" style="stop-color:#FFD209"/>
	<stop  offset="1" style="stop-color:#FFCD00"/>
	<a:midPointStop  offset="0" style="stop-color:#FFE72E"/>
	<a:midPointStop  offset="0.7" style="stop-color:#FFE72E"/>
	<a:midPointStop  offset="1" style="stop-color:#FFCD00"/>
</linearGradient>
<circle fill="url(#SVGID_2_)" cx="32" cy="32" r="7"/>
<linearGradient id="SVGID_3_" gradientUnits="userSpaceOnUse" x1="31.9995" y1="44" x2="31.9995" y2="58">
	<stop  offset="0" style="stop-color:#47DE00"/>
	<stop  offset="0.3084" style="stop-color:#45DA00"/>
	<stop  offset="0.6279" style="stop-color:#41CD00"/>
	<stop  offset="0.9515" style="stop-color:#38B900"/>
	<stop  offset="1" style="stop-color:#37B500"/>
	<a:midPointStop  offset="0" style="stop-color:#47DE00"/>
	<a:midPointStop  offset="0.7" style="stop-color:#47DE00"/>
	<a:midPointStop  offset="1" style="stop-color:#37B500"/>
</linearGradient>
<circle fill="url(#SVGID_3_)" cx="32" cy="51" r="7"/>
<linearGradient id="SVGID_4_" gradientUnits="userSpaceOnUse" x1="-62" y1="64" x2="-62" y2="50" gradientTransform="matrix(1 0 0 -1 94 70)">
	<stop  offset="0" style="stop-color:#FF3B3B"/>
	<stop  offset="0.2558" style="stop-color:#FB3737"/>
	<stop  offset="0.5207" style="stop-color:#F02B2A"/>
	<stop  offset="0.7889" style="stop-color:#DD1616"/>
	<stop  offset="1" style="stop-color:#C90100"/>
	<a:midPointStop  offset="0" style="stop-color:#FF3B3B"/>
	<a:midPointStop  offset="0.5" style="stop-color:#FF3B3B"/>
	<a:midPointStop  offset="0.2558" style="stop-color:#FB3737"/>
	<a:midPointStop  offset="0.5" style="stop-color:#FB3737"/>
	<a:midPointStop  offset="0.5207" style="stop-color:#F02B2A"/>
	<a:midPointStop  offset="0.5" style="stop-color:#F02B2A"/>
	<a:midPointStop  offset="0.7889" style="stop-color:#DD1616"/>
	<a:midPointStop  offset="0.5" style="stop-color:#DD1616"/>
	<a:midPointStop  offset="1" style="stop-color:#C90100"/>
</linearGradient>
<path fill="url(#SVGID_4_)" d="M39,13c0,3.866-3.133,7-7,7c-3.868,0-7-3.134-7-7c0-3.865,3.132-7,7-7C35.867,6,39,9.135,39,13z"/>
</svg>
