<?xml version="1.0" encoding="utf-8"?>
<!-- Generator: Adobe Illustrator 24.1.2, SVG Export Plug-In . SVG Version: 6.00 Build 0)  -->
<svg version="1.1" id="Layer_1" xmlns="http://www.w3.org/2000/svg" xmlns:xlink="http://www.w3.org/1999/xlink" x="0px" y="0px"
	 width="64px" height="64px" viewBox="0 0 64 64" style="enable-background:new 0 0 64 64;" xml:space="preserve">
<style type="text/css">
	.st0{fill:url(#SVGID_1_);}
	.st1{fill:#FFFFFF;}
</style>
<linearGradient id="SVGID_1_" gradientUnits="userSpaceOnUse" x1="32" y1="2" x2="32" y2="62">
	<stop  offset="0" style="stop-color:#00ABF1"/>
	<stop  offset="0.2292" style="stop-color:#00A7EF"/>
	<stop  offset="0.4667" style="stop-color:#009AE9"/>
	<stop  offset="0.7079" style="stop-color:#0086E0"/>
	<stop  offset="0.9504" style="stop-color:#0069D3"/>
	<stop  offset="1" style="stop-color:#0062D0"/>
</linearGradient>
<path class="st0" d="M62,54c0,4.4-3.6,8-8,8H10c-4.4,0-8-3.6-8-8V10c0-4.4,3.6-8,8-8h44c4.4,0,8,3.6,8,8V54z"/>
<polygon class="st1" points="27.93,38.57 26.56,50.76 19.66,50.76 18.28,38.57 16.65,38.57 18.18,52.57 28.03,52.57 29.57,38.57 "/>
<polygon class="st1" points="20.11,36.07 23.11,33.07 26.11,37.07 22.11,39.07 "/>
<circle class="st1" cx="40.01" cy="15.63" r="4.2"/>
<path class="st1" d="M43.27,20.75c-2.66,0-4.68,0-6.53,0c-1.63,0-2.72,0.62-3.31,2.68l-1.96,5.81c-0.1,0.29-0.37,0.49-0.68,0.49
	h-4.24c-1.71,0-1.71,2.45,0,2.45h4.34c1.25,0,2.36-0.77,2.8-1.94l1.42-3.78h0.82v24.5c0,2.15,3.67,2.14,3.67,0V35.44h0.82v15.52
	c0,2.14,3.67,2.14,3.67,0v-24.5h0.82v10.38c0,1.71,2.45,1.71,2.45,0V24.02C47.35,21.87,44.9,20.75,43.27,20.75z"/>
</svg>
