<?xml version="1.0" encoding="utf-8"?>
<!-- Generator: Adobe Illustrator 24.1.2, SVG Export Plug-In . SVG Version: 6.00 Build 0)  -->
<svg version="1.1" id="Layer_1" xmlns="http://www.w3.org/2000/svg" xmlns:xlink="http://www.w3.org/1999/xlink" x="0px" y="0px"
	 width="64px" height="64px" viewBox="0 0 64 64" style="enable-background:new 0 0 64 64;" xml:space="preserve">
<style type="text/css">
	.st0{fill:url(#SVGID_1_);}
	.st1{fill:#FFFFFF;}
</style>
<linearGradient id="SVGID_1_" gradientUnits="userSpaceOnUse" x1="32" y1="2" x2="32" y2="62">
	<stop  offset="0" style="stop-color:#00ABF1"/>
	<stop  offset="0.2292" style="stop-color:#00A7EF"/>
	<stop  offset="0.4667" style="stop-color:#009AE9"/>
	<stop  offset="0.7079" style="stop-color:#0086E0"/>
	<stop  offset="0.9504" style="stop-color:#0069D3"/>
	<stop  offset="1" style="stop-color:#0062D0"/>
</linearGradient>
<path class="st0" d="M62,54c0,4.4-3.6,8-8,8H10c-4.4,0-8-3.6-8-8V10c0-4.4,3.6-8,8-8h44c4.4,0,8,3.6,8,8V54z"/>
<polygon class="st1" points="29.36,35.96 24.72,22.15 21.7,22.15 16.93,35.77 12.4,22.15 8,22.15 15,41.85 18.46,41.85 23.1,28.83 
	27.68,41.85 31.14,41.85 38.15,22.15 34.02,22.15 "/>
<path class="st1" d="M52.06,38.19c-0.84,0.3-1.72,0.46-2.64,0.46c-1.75,0-3.11-0.57-4.07-1.7c-0.96-1.14-1.44-2.79-1.44-4.97
	c0-2.18,0.48-3.82,1.44-4.94c0.96-1.12,2.32-1.67,4.07-1.67c0.92,0,1.8,0.15,2.64,0.46c0.84,0.31,1.7,0.79,2.59,1.45l1.36-3.1
	c-0.77-0.72-1.75-1.28-2.93-1.67c-1.18-0.4-2.43-0.59-3.74-0.59c-2.01,0-3.76,0.41-5.23,1.25c-1.48,0.83-2.61,2-3.4,3.52
	c-0.8,1.51-1.19,3.28-1.19,5.31c0,2.05,0.4,3.83,1.19,5.36c0.79,1.52,1.93,2.7,3.4,3.53c1.48,0.83,3.22,1.25,5.23,1.25
	c1.31,0,2.55-0.2,3.74-0.59c1.18-0.4,2.16-0.96,2.93-1.67l-1.36-3.1C53.76,37.4,52.9,37.88,52.06,38.19z"/>
</svg>
