<?xml version="1.0" encoding="utf-8"?>
<!-- Generator: Adobe Illustrator 15.0.0, SVG Export Plug-In . SVG Version: 6.00 Build 0)  -->
<!DOCTYPE svg PUBLIC "-//W3C//DTD SVG 1.1//EN" "http://www.w3.org/Graphics/SVG/1.1/DTD/svg11.dtd" [
	<!ENTITY ns_flows "http://ns.adobe.com/Flows/1.0/">
	<!ENTITY ns_extend "http://ns.adobe.com/Extensibility/1.0/">
	<!ENTITY ns_ai "http://ns.adobe.com/AdobeIllustrator/10.0/">
	<!ENTITY ns_graphs "http://ns.adobe.com/Graphs/1.0/">
]>
<svg version="1.1" id="Layer_1" xmlns:x="&ns_extend;" xmlns:i="&ns_ai;" xmlns:graph="&ns_graphs;"
	 xmlns="http://www.w3.org/2000/svg" xmlns:xlink="http://www.w3.org/1999/xlink" xmlns:a="http://ns.adobe.com/AdobeSVGViewerExtensions/3.0/"
	 x="0px" y="0px" width="64px" height="64px" viewBox="0 0 64 64" enable-background="new 0 0 64 64" xml:space="preserve">
<radialGradient id="SVGID_1_" cx="-543.394" cy="534.8779" r="21.6818" gradientTransform="matrix(1 0 0 -8.2752 564 4485.4639)" gradientUnits="userSpaceOnUse">
	<stop  offset="0" style="stop-color:#BA6918"/>
	<stop  offset="1" style="stop-color:#6B3815"/>
	<a:midPointStop  offset="0" style="stop-color:#BA6918"/>
	<a:midPointStop  offset="0.5" style="stop-color:#BA6918"/>
	<a:midPointStop  offset="1" style="stop-color:#6B3815"/>
</radialGradient>
<path fill="url(#SVGID_1_)" d="M62,58.228c0,5.03-60,5.03-60,0C2,45.087,62,45.087,62,58.228z"/>
<radialGradient id="SVGID_2_" cx="-539.332" cy="538.0938" r="19.647" gradientTransform="matrix(1 0 0 -8.2752 564 4508.2607)" gradientUnits="userSpaceOnUse">
	<stop  offset="0" style="stop-color:#BA6918"/>
	<stop  offset="1" style="stop-color:#783F17"/>
	<a:midPointStop  offset="0" style="stop-color:#BA6918"/>
	<a:midPointStop  offset="0.5" style="stop-color:#BA6918"/>
	<a:midPointStop  offset="1" style="stop-color:#783F17"/>
</radialGradient>
<path fill="url(#SVGID_2_)" d="M59.419,54.003c0,4.601-54.839,4.601-54.839,0C4.58,45.729,59.419,45.729,59.419,54.003z"/>
<radialGradient id="SVGID_3_" cx="-538.6509" cy="323.6367" r="24.2619" gradientTransform="matrix(1 0 0 -1.0748 564 394.6825)" gradientUnits="userSpaceOnUse">
	<stop  offset="0" style="stop-color:#FFD500"/>
	<stop  offset="1" style="stop-color:#FFB300"/>
	<a:midPointStop  offset="0" style="stop-color:#FFD500"/>
	<a:midPointStop  offset="0.5" style="stop-color:#FFD500"/>
	<a:midPointStop  offset="1" style="stop-color:#FFB300"/>
</radialGradient>
<path fill="url(#SVGID_3_)" d="M58.082,51.165c0,4.375-52.165,4.375-52.165,0C5.917,40.705,58.082,40.705,58.082,51.165z"/>
<path fill="#AB5C10" d="M56.603,49.304c0,3.451-49.205,3.451-49.205,0C7.398,41.063,56.603,41.063,56.603,49.304z"/>
<radialGradient id="SVGID_4_" cx="-531.813" cy="236.6836" r="41.9481" gradientTransform="matrix(1 0 0 -0.8054 564 239.1359)" gradientUnits="userSpaceOnUse">
	<stop  offset="0" style="stop-color:#FFD500"/>
	<stop  offset="0.5333" style="stop-color:#FAA600"/>
	<stop  offset="0.7455" style="stop-color:#FFD500"/>
	<a:midPointStop  offset="0" style="stop-color:#FFD500"/>
	<a:midPointStop  offset="0.5" style="stop-color:#FFD500"/>
	<a:midPointStop  offset="0.5333" style="stop-color:#FAA600"/>
	<a:midPointStop  offset="0.5" style="stop-color:#FAA600"/>
	<a:midPointStop  offset="0.7455" style="stop-color:#FFD500"/>
</radialGradient>
<path fill="url(#SVGID_4_)" d="M58.082,46.771c0,4.375-52.165,4.375-52.165,0c0-15.908,11.678-22.385,26.083-22.385
	S58.082,30.862,58.082,46.771z"/>
<radialGradient id="SVGID_5_" cx="313.6475" cy="691.1904" r="27.3464" gradientTransform="matrix(0.3583 0.4814 0.7152 -0.5695 -592.0829 272.0644)" gradientUnits="userSpaceOnUse">
	<stop  offset="0" style="stop-color:#FFFFFF;stop-opacity:0.5"/>
	<stop  offset="1" style="stop-color:#FFFFFF;stop-opacity:0"/>
	<a:midPointStop  offset="0" style="stop-color:#FFFFFF;stop-opacity:0.5"/>
	<a:midPointStop  offset="0.5" style="stop-color:#FFFFFF;stop-opacity:0.5"/>
	<a:midPointStop  offset="1" style="stop-color:#FFFFFF;stop-opacity:0"/>
</radialGradient>
<path fill="url(#SVGID_5_)" d="M25.244,44.021c-5.581,4.447-12.374,5.002-15.166,1.248c-2.801-3.761-0.543-10.41,5.038-14.854
	c5.581-4.447,12.374-5.004,15.173-1.247C33.088,32.93,30.825,39.58,25.244,44.021z"/>
<radialGradient id="SVGID_6_" cx="-1633.2627" cy="1654.3115" r="16.5595" gradientTransform="matrix(-0.4654 0.3706 0.5506 0.7398 -1617.0397 -583.437)" gradientUnits="userSpaceOnUse">
	<stop  offset="0" style="stop-color:#FFFFFF;stop-opacity:0.5"/>
	<stop  offset="1" style="stop-color:#FFFFFF;stop-opacity:0"/>
	<a:midPointStop  offset="0" style="stop-color:#FFFFFF;stop-opacity:0.5"/>
	<a:midPointStop  offset="0.5" style="stop-color:#FFFFFF;stop-opacity:0.5"/>
	<a:midPointStop  offset="1" style="stop-color:#FFFFFF;stop-opacity:0"/>
</radialGradient>
<path fill="url(#SVGID_6_)" d="M45.392,41.755c-2.605-3.495-2.932-7.75-0.731-9.499c2.202-1.754,6.094-0.34,8.696,3.158
	c2.605,3.497,2.931,7.751,0.73,9.505C51.886,46.672,47.989,45.253,45.392,41.755z"/>
<path fill="#AB5C10" d="M35.149,24.88c0,0.528-6.27,0.528-6.27,0C28.879,21.294,35.149,21.294,35.149,24.88z"/>
<linearGradient id="SVGID_7_" gradientUnits="userSpaceOnUse" x1="401.791" y1="547.5781" x2="406.9941" y2="547.5781" gradientTransform="matrix(0.4073 0 0 -1.5589 -132.7324 871.2299)">
	<stop  offset="0" style="stop-color:#FFB300"/>
	<stop  offset="1" style="stop-color:#D98200"/>
	<a:midPointStop  offset="0" style="stop-color:#FFB300"/>
	<a:midPointStop  offset="0.5" style="stop-color:#FFB300"/>
	<a:midPointStop  offset="1" style="stop-color:#D98200"/>
</linearGradient>
<rect x="30.94" y="15.47" fill="url(#SVGID_7_)" width="2.119" height="4.281"/>
<linearGradient id="SVGID_8_" gradientUnits="userSpaceOnUse" x1="-1821.7095" y1="2454.5791" x2="-1816.4443" y2="2454.5791" gradientTransform="matrix(-1 0 0 0.5317 -1787.0625 -1290.0442)">
	<stop  offset="0" style="stop-color:#D98200"/>
	<stop  offset="1" style="stop-color:#FFB300"/>
	<a:midPointStop  offset="0" style="stop-color:#D98200"/>
	<a:midPointStop  offset="0.5" style="stop-color:#D98200"/>
	<a:midPointStop  offset="1" style="stop-color:#FFB300"/>
</linearGradient>
<path fill="url(#SVGID_8_)" d="M29.413,14.329c0.55-0.246,4.684-0.229,5.203,0c0.117,0.053-0.13,1.38-0.264,1.459
	c-0.365,0.228-4.297,0.233-4.676,0C29.542,15.709,29.294,14.382,29.413,14.329z"/>
<radialGradient id="SVGID_9_" cx="-533.1221" cy="-732.2119" r="5.2031" gradientTransform="matrix(1 0 0 -0.4147 564 -290.7471)" gradientUnits="userSpaceOnUse">
	<stop  offset="0" style="stop-color:#FFD500"/>
	<stop  offset="1" style="stop-color:#FFB300"/>
	<a:midPointStop  offset="0" style="stop-color:#FFD500"/>
	<a:midPointStop  offset="0.5" style="stop-color:#FFD500"/>
	<a:midPointStop  offset="1" style="stop-color:#FFB300"/>
</radialGradient>
<path fill="url(#SVGID_9_)" d="M36.421,14.498c-0.93,0.313-7.934,0.293-8.814,0c-0.199-0.065,0.219-1.764,0.444-1.868
	c1.813-0.833,6.089-0.847,7.925,0C36.202,12.734,36.623,14.434,36.421,14.498z"/>
<radialGradient id="SVGID_10_" cx="-533.1235" cy="361.2871" r="4.171" gradientTransform="matrix(1 0 0 -1.0998 564 419.9481)" gradientUnits="userSpaceOnUse">
	<stop  offset="0" style="stop-color:#FFD500"/>
	<stop  offset="1" style="stop-color:#FFB300"/>
	<a:midPointStop  offset="0" style="stop-color:#FFD500"/>
	<a:midPointStop  offset="0.5" style="stop-color:#FFD500"/>
	<a:midPointStop  offset="1" style="stop-color:#FFB300"/>
</radialGradient>
<path fill="url(#SVGID_10_)" d="M36.354,23.787c-0.919,0.818-7.838,0.774-8.706,0c-0.199-0.174,0.214-1.143,0.438-1.414
	c0.612-0.74,7.196-0.772,7.832,0C36.14,22.646,36.553,23.614,36.354,23.787z"/>
<radialGradient id="SVGID_11_" cx="-532.6567" cy="363.5391" r="2.897" gradientTransform="matrix(1 0 0 -1.0998 564 419.9481)" gradientUnits="userSpaceOnUse">
	<stop  offset="0" style="stop-color:#FFD500"/>
	<stop  offset="1" style="stop-color:#FFB300"/>
	<a:midPointStop  offset="0" style="stop-color:#FFD500"/>
	<a:midPointStop  offset="0.5" style="stop-color:#FFD500"/>
	<a:midPointStop  offset="1" style="stop-color:#FFB300"/>
</radialGradient>
<path fill="url(#SVGID_11_)" d="M34.616,22.263c-0.55,0.488-4.684,0.463-5.203,0c-0.117-0.104,0.129-2.76,0.262-2.922
	c0.366-0.442,4.299-0.463,4.678,0C34.486,19.503,34.733,22.158,34.616,22.263z"/>
</svg>
