<?xml version="1.0" encoding="utf-8"?>
<!-- Generator: Adobe Illustrator 24.1.2, SVG Export Plug-In . SVG Version: 6.00 Build 0)  -->
<svg version="1.1" id="Layer_1" xmlns="http://www.w3.org/2000/svg" xmlns:xlink="http://www.w3.org/1999/xlink" x="0px" y="0px"
	 width="64px" height="64px" viewBox="0 0 64 64" style="enable-background:new 0 0 64 64;" xml:space="preserve">
<style type="text/css">
	.st0{fill:#6E8189;}
	.st1{fill:#302C3B;}
	.st2{fill:#99A8AE;}
	.st3{fill:#CFD8DD;}
	.st4{fill:url(#SVGID_1_);}
	.st5{fill:#3AB0A2;}
	.st6{fill:url(#SVGID_2_);}
	.st7{fill:url(#SVGID_3_);}
	.st8{fill:#E6EBEF;}
	.st9{fill:url(#SVGID_4_);}
	.st10{fill:url(#SVGID_5_);}
	.st11{fill:url(#SVGID_6_);}
	.st12{fill:#FFFFFF;}
</style>
<rect x="29.54" y="27.57" transform="matrix(0.997 -0.0776 0.0776 0.997 -2.1355 2.4077)" class="st0" width="0.78" height="2.26"/>
<polygon class="st0" points="28.88,29.3 28.51,28.98 29.55,27.76 29.92,28.08 "/>
<polygon class="st0" points="28.46,29.35 28.77,28.98 29.99,30.03 29.68,30.39 "/>
<path class="st1" d="M31.4,30.59c0.06,0.74-0.49,1.38-1.23,1.44c-0.74,0.06-1.38-0.49-1.44-1.23c-0.06-0.74,0.49-1.38,1.23-1.44
	C30.69,29.3,31.34,29.85,31.4,30.59z"/>
<path class="st2" d="M30.73,30.64c0.03,0.37-0.25,0.69-0.62,0.72c-0.37,0.03-0.69-0.25-0.72-0.62c-0.03-0.37,0.25-0.69,0.62-0.72
	C30.38,29.99,30.7,30.27,30.73,30.64z"/>
<path class="st2" d="M29.08,29.14c0.02,0.23-0.15,0.43-0.39,0.45c-0.23,0.02-0.43-0.15-0.45-0.39c-0.02-0.23,0.16-0.43,0.39-0.45
	C28.86,28.74,29.06,28.91,29.08,29.14z"/>
<path class="st3" d="M7.49,6l2.32,12.78c0,0,12.85,4.59,14.27,0.15c-4.97-2.2-8.16-2.54-12.96-11.86C10.66,6.16,7.49,6,7.49,6z"/>
<linearGradient id="SVGID_1_" gradientUnits="userSpaceOnUse" x1="12.1105" y1="109.4749" x2="65.4942" y2="109.4749" gradientTransform="matrix(0.9954 0.096 -0.096 0.9954 5.4612 -89.1221)">
	<stop  offset="0.297" style="stop-color:#E6EBEF"/>
	<stop  offset="0.5884" style="stop-color:#E1E7EB"/>
	<stop  offset="0.9319" style="stop-color:#D3DBE0"/>
	<stop  offset="1" style="stop-color:#CFD8DD"/>
</linearGradient>
<path class="st4" d="M8.66,18.18c-2.07,0.33-1.53,1.3-0.84,1.77c4.85,3.35,14.46,6.63,20.75,7.23c3.01,0.29,22.56,2.18,24.95,2.41
	c0.8,0.08,4.61-0.09,5.06-0.34c1.51-0.84,1.81-1.74,0.97-2.7c-0.71-0.81-3.1-2.85-3.6-3.26c-0.5-0.41-3.07-1.39-4.99-1.69
	C46.12,20.83,15.6,17.08,8.66,18.18z"/>
<path class="st1" d="M56.46,25.41c0.89,0.65,1.36,0.11,1.97,0.06c-0.3-0.28-0.62-0.56-0.93-0.84c-0.25-0.02-0.63-0.06-0.91-0.09
	C56.41,24.53,56.31,25.3,56.46,25.41z"/>
<path class="st3" d="M7.42,13.88l-3.15-0.3l6.06,6.44c0,0,4.29,0.41,5.66,0.55c0.41,0.04,0.54-1.37,0.15-1.56
	C12.74,17.32,7.42,13.88,7.42,13.88z"/>
<path class="st5" d="M7.42,13.88l-3.15-0.3l3.12,0.54l8.6,6.45c0.41,0.04,0.54-1.37,0.15-1.56C12.74,17.32,7.42,13.88,7.42,13.88z"
	/>
<path class="st1" d="M51.14,25.43c-0.54-0.05-0.41-1.4,0.13-1.35C51.8,24.14,51.68,25.49,51.14,25.43z"/>
<path class="st1" d="M49.21,25.25c-0.54-0.05-0.41-1.4,0.13-1.34C49.87,23.95,49.74,25.3,49.21,25.25z"/>
<path class="st1" d="M47.28,25.06c-0.54-0.05-0.41-1.4,0.13-1.35C47.94,23.77,47.81,25.11,47.28,25.06z"/>
<path class="st1" d="M45.34,24.88c-0.54-0.05-0.41-1.4,0.13-1.35C46.01,23.58,45.88,24.93,45.34,24.88z"/>
<path class="st1" d="M31.09,23.5c-0.54-0.05-0.41-1.4,0.13-1.35C31.76,22.2,31.63,23.55,31.09,23.5z"/>
<path class="st1" d="M29.16,23.31c-0.54-0.05-0.41-1.4,0.13-1.35C29.82,22.02,29.7,23.37,29.16,23.31z"/>
<path class="st1" d="M27.23,23.13c-0.54-0.05-0.41-1.4,0.13-1.35C27.9,21.83,27.77,23.18,27.23,23.13z"/>
<path class="st1" d="M25.3,22.94c-0.54-0.05-0.41-1.4,0.13-1.35C25.97,21.65,25.83,22.99,25.3,22.94z"/>
<path class="st1" d="M23.37,22.76c-0.54-0.05-0.41-1.4,0.13-1.35C24.04,21.46,23.91,22.81,23.37,22.76z"/>
<path class="st3" d="M45.83,24.72c-5.21-2.98-19.89-10.91-19.89-10.91c-2.01-2.76-3.3-4.59-4.14-4.26
	c-0.24,0.63,1.14,5.13,2.29,6.73c2.88,4.03,13.98,10.95,13.98,10.95s4.75,0.46,7.62,0.74C46.75,28.07,46.83,25.29,45.83,24.72z"/>
<path class="st5" d="M25.91,14.1c0.82,1.21,15.05,9.22,20.64,12.42c0.1-1.04-0.34-1.58-0.72-1.8c-5.21-2.98-19.02-10.31-19.6-11.17
	c-3.09-4.52-4.31-4.29-4.42-4C21.81,9.54,22.88,9.61,25.91,14.1z"/>
<linearGradient id="SVGID_2_" gradientUnits="userSpaceOnUse" x1="47.1688" y1="114.745" x2="47.1688" y2="111.147" gradientTransform="matrix(0.9954 0.096 -0.096 0.9954 5.4612 -89.1221)">
	<stop  offset="0" style="stop-color:#CFD8DD"/>
	<stop  offset="0.0587" style="stop-color:#D3DBE0"/>
	<stop  offset="0.3548" style="stop-color:#E1E7EB"/>
	<stop  offset="0.6061" style="stop-color:#E6EBEF"/>
</linearGradient>
<path class="st6" d="M44.48,26.57c0,0-3.55-1.23-5.59,0.06l-0.18,1.86c1.75,1.66,5.47,1.15,5.47,1.15L44.48,26.57z"/>
<polygon class="st2" points="44.4,29.66 44.69,26.59 44.48,26.56 44.19,29.64 "/>
<polygon class="st2" points="38.72,28.49 38.89,26.63 38.69,26.61 38.51,28.47 "/>
<linearGradient id="SVGID_3_" gradientUnits="userSpaceOnUse" x1="41.9951" y1="110.5696" x2="41.9951" y2="106.971" gradientTransform="matrix(0.9954 0.096 -0.096 0.9954 5.4612 -89.1221)">
	<stop  offset="0" style="stop-color:#CFD8DD"/>
	<stop  offset="0.0587" style="stop-color:#D3DBE0"/>
	<stop  offset="0.3548" style="stop-color:#E1E7EB"/>
	<stop  offset="0.6061" style="stop-color:#E6EBEF"/>
</linearGradient>
<path class="st7" d="M39.73,21.92c0,0-3.56-1.23-5.59,0.06l-0.18,1.86c1.75,1.66,5.47,1.15,5.47,1.15L39.73,21.92z"/>
<polygon class="st2" points="39.65,25 39.94,21.93 39.73,21.91 39.44,24.98 "/>
<polygon class="st2" points="33.97,23.84 34.15,21.97 33.94,21.95 33.76,23.82 "/>
<polygon class="st0" points="27.65,29.63 26.86,29.69 26.69,27.44 27.47,27.37 "/>
<rect x="25.65" y="28.12" transform="matrix(0.6503 -0.7597 0.7597 0.6503 -12.2948 30.0146)" class="st0" width="1.61" height="0.48"/>
<rect x="26.22" y="28.72" transform="matrix(0.6492 -0.7606 0.7606 0.6492 -13.1703 30.4827)" class="st0" width="0.48" height="1.61"/>
<path class="st1" d="M28.63,30.42c0.06,0.74-0.49,1.39-1.23,1.44c-0.74,0.06-1.38-0.49-1.44-1.23c-0.06-0.74,0.49-1.38,1.23-1.44
	C27.93,29.13,28.58,29.68,28.63,30.42z"/>
<path class="st2" d="M27.97,30.47c0.03,0.37-0.25,0.69-0.62,0.72c-0.37,0.03-0.69-0.25-0.72-0.62c-0.03-0.37,0.25-0.69,0.62-0.72
	C27.61,29.83,27.94,30.1,27.97,30.47z"/>
<path class="st2" d="M26.32,28.97c0.02,0.23-0.15,0.43-0.39,0.45c-0.23,0.02-0.43-0.15-0.45-0.39c-0.02-0.23,0.15-0.43,0.39-0.45
	C26.1,28.57,26.3,28.74,26.32,28.97z"/>
<polygon class="st0" points="49.3,31.47 48.51,31.53 48.34,29.27 49.12,29.21 "/>
<polygon class="st0" points="47.76,30.97 47.4,30.66 48.44,29.43 48.81,29.75 "/>
<polygon class="st0" points="47.34,31.02 47.66,30.65 48.88,31.7 48.56,32.07 "/>
<path class="st1" d="M50.28,32.26c0.06,0.74-0.49,1.38-1.23,1.44c-0.74,0.06-1.38-0.49-1.44-1.23c-0.06-0.74,0.49-1.38,1.23-1.44
	C49.58,30.97,50.22,31.52,50.28,32.26z"/>
<path class="st2" d="M49.61,32.31c0.03,0.37-0.25,0.69-0.62,0.72c-0.37,0.03-0.69-0.24-0.72-0.62c-0.03-0.37,0.25-0.69,0.62-0.72
	C49.26,31.67,49.58,31.94,49.61,32.31z"/>
<path class="st2" d="M47.96,30.81c0.02,0.23-0.15,0.43-0.39,0.45c-0.23,0.02-0.43-0.15-0.45-0.38c-0.02-0.23,0.15-0.43,0.39-0.45
	C47.74,30.41,47.95,30.58,47.96,30.81z"/>
<polygon class="st3" points="50.1,30.43 46.83,30.12 46.98,28.57 50.25,28.89 "/>
<rect x="27.73" y="25.3" transform="matrix(0.096 -0.9954 0.9954 0.096 -1.7763 53.3963)" class="st3" width="1.55" height="4.75"/>
<path class="st8" d="M1.29,23.34c-0.67-0.27,19.43,3.78,19.43,3.78S10.35,26.92,1.29,23.34z"/>
<path class="st8" d="M0.01,16.9c-0.54-0.2,15.56,2.89,15.56,2.89S7.27,19.64,0.01,16.9z"/>
<path class="st8" d="M2.31,7.44c-0.46-0.16,13.25,2.3,13.25,2.3S8.49,9.61,2.31,7.44z"/>
<path class="st8" d="M2.03,11.68c-0.28-0.12,8.16,1.72,8.16,1.72S5.84,13.32,2.03,11.68z"/>
<path class="st8" d="M10.22,11.68c-0.58-0.2,16.75,2.9,16.75,2.9S18.04,14.42,10.22,11.68z"/>
<rect x="55.8" y="54.11" class="st3" width="7.2" height="0.89"/>
<linearGradient id="SVGID_4_" gradientUnits="userSpaceOnUse" x1="58.7" y1="16.3333" x2="61.4" y2="16.3333" gradientTransform="matrix(1 0 0 -1 -2 66)">
	<stop  offset="0" style="stop-color:#CFDDE6"/>
	<stop  offset="1" style="stop-color:#99A8AE"/>
</linearGradient>
<rect x="56.7" y="45.22" class="st9" width="2.7" height="8.89"/>
<rect x="56.7" y="50.11" class="st2" width="0.45" height="0.89"/>
<rect x="56.7" y="48.78" class="st2" width="0.45" height="0.89"/>
<rect x="56.7" y="51.44" class="st2" width="0.45" height="0.89"/>
<rect x="56.7" y="52.78" class="st2" width="0.45" height="0.89"/>
<linearGradient id="SVGID_5_" gradientUnits="userSpaceOnUse" x1="57.8" y1="18.8765" x2="62.3" y2="18.8765" gradientTransform="matrix(1 0 0 -1 -2 66)">
	<stop  offset="0" style="stop-color:#CFDDE6"/>
	<stop  offset="1" style="stop-color:#99A8AE"/>
</linearGradient>
<path class="st10" d="M59.4,48.33h-2.7l-0.9-2.22c0,0,2.25-0.44,4.5,0L59.4,48.33z"/>
<rect x="55.8" y="45.67" class="st2" width="4.5" height="0.44"/>
<linearGradient id="SVGID_6_" gradientUnits="userSpaceOnUse" x1="58.25" y1="21.6666" x2="61.85" y2="21.6666" gradientTransform="matrix(1 0 0 -1 -2 66)">
	<stop  offset="0" style="stop-color:#6E7B85"/>
	<stop  offset="0.2596" style="stop-color:#616B76"/>
	<stop  offset="0.7642" style="stop-color:#41424F"/>
	<stop  offset="1" style="stop-color:#302C3B"/>
</linearGradient>
<polygon class="st11" points="59.4,45.22 56.7,45.22 56.25,43.44 59.85,43.44 "/>
<rect x="56.25" y="43" class="st2" width="3.6" height="0.44"/>
<polygon class="st0" points="0,62 58.24,62 64,55 5.76,55 "/>
<polygon class="st12" points="54.54,58.75 60,58.75 60.41,58.25 54.95,58.25 "/>
<polygon class="st12" points="6.01,55.8 11.47,55.8 11.72,55.5 6.26,55.5 "/>
<polygon class="st12" points="3.59,58.75 9.05,58.75 9.46,58.25 4,58.25 "/>
<polygon class="st12" points="1.32,61.5 6.78,61.5 7.03,61.2 1.57,61.2 "/>
<polygon class="st12" points="2.1,60.55 7.56,60.55 7.81,60.25 2.35,60.25 "/>
<polygon class="st12" points="2.89,59.6 8.35,59.6 8.59,59.3 3.13,59.3 "/>
<polygon class="st12" points="4.45,57.7 9.91,57.7 10.16,57.4 4.7,57.4 "/>
<polygon class="st12" points="5.23,56.75 10.69,56.75 10.94,56.45 5.48,56.45 "/>
<polygon class="st12" points="13.78,58.75 19.24,58.75 19.65,58.25 14.19,58.25 "/>
<polygon class="st12" points="23.97,58.75 29.43,58.75 29.84,58.25 24.38,58.25 "/>
<polygon class="st12" points="34.16,58.75 39.62,58.75 40.03,58.25 34.57,58.25 "/>
<polygon class="st12" points="44.35,58.75 49.81,58.75 50.22,58.25 44.76,58.25 "/>
</svg>
