<?xml version="1.0" encoding="utf-8"?>
<!-- Generator: Adobe Illustrator 15.0.0, SVG Export Plug-In . SVG Version: 6.00 Build 0)  -->
<!DOCTYPE svg PUBLIC "-//W3C//DTD SVG 1.1//EN" "http://www.w3.org/Graphics/SVG/1.1/DTD/svg11.dtd" [
	<!ENTITY ns_flows "http://ns.adobe.com/Flows/1.0/">
	<!ENTITY ns_extend "http://ns.adobe.com/Extensibility/1.0/">
	<!ENTITY ns_ai "http://ns.adobe.com/AdobeIllustrator/10.0/">
	<!ENTITY ns_graphs "http://ns.adobe.com/Graphs/1.0/">
]>
<svg version="1.1" id="Layer_1" xmlns:x="&ns_extend;" xmlns:i="&ns_ai;" xmlns:graph="&ns_graphs;"
	 xmlns="http://www.w3.org/2000/svg" xmlns:xlink="http://www.w3.org/1999/xlink" xmlns:a="http://ns.adobe.com/AdobeSVGViewerExtensions/3.0/"
	 x="0px" y="0px" width="64px" height="64px" viewBox="0 0 64 64" enable-background="new 0 0 64 64" xml:space="preserve">
<polygon fill="#CFD8DD" points="63,8.233 44.399,8.233 38.2,12.367 63,12.367 "/>
<polygon fill="#E6EBEF" points="42.334,12.367 42.334,16.5 27.867,16.5 15.57,34.066 63,34.066 63,12.367 "/>
<linearGradient id="SVGID_1_" gradientUnits="userSpaceOnUse" x1="24.9736" y1="19.0835" x2="39.2324" y2="19.0835">
	<stop  offset="0" style="stop-color:#6E7B85"/>
	<stop  offset="0.0025" style="stop-color:#6E7A85"/>
	<stop  offset="0.1583" style="stop-color:#575E6A"/>
	<stop  offset="0.3244" style="stop-color:#464855"/>
	<stop  offset="0.506" style="stop-color:#3A3846"/>
	<stop  offset="0.7128" style="stop-color:#322F3E"/>
	<stop  offset="1" style="stop-color:#302C3B"/>
	<a:midPointStop  offset="0" style="stop-color:#6E7B85"/>
	<a:midPointStop  offset="0.2303" style="stop-color:#6E7B85"/>
	<a:midPointStop  offset="1" style="stop-color:#302C3B"/>
</linearGradient>
<path fill="url(#SVGID_1_)" d="M37.811,17.534H27.143l-2.169,3.1h12.837C39.706,20.633,39.706,17.534,37.811,17.534z"/>
<linearGradient id="SVGID_2_" gradientUnits="userSpaceOnUse" x1="22.0811" y1="23.2168" x2="39.2324" y2="23.2168">
	<stop  offset="0" style="stop-color:#6E7B85"/>
	<stop  offset="0.0025" style="stop-color:#6E7A85"/>
	<stop  offset="0.1583" style="stop-color:#575E6A"/>
	<stop  offset="0.3244" style="stop-color:#464855"/>
	<stop  offset="0.506" style="stop-color:#3A3846"/>
	<stop  offset="0.7128" style="stop-color:#322F3E"/>
	<stop  offset="1" style="stop-color:#302C3B"/>
	<a:midPointStop  offset="0" style="stop-color:#6E7B85"/>
	<a:midPointStop  offset="0.2303" style="stop-color:#6E7B85"/>
	<a:midPointStop  offset="1" style="stop-color:#302C3B"/>
</linearGradient>
<path fill="url(#SVGID_2_)" d="M37.811,21.667H24.25l-2.169,3.1h15.729C39.706,24.767,39.706,21.667,37.811,21.667z"/>
<linearGradient id="SVGID_3_" gradientUnits="userSpaceOnUse" x1="19.1865" y1="27.3501" x2="39.2324" y2="27.3501">
	<stop  offset="0" style="stop-color:#6E7B85"/>
	<stop  offset="0.0025" style="stop-color:#6E7A85"/>
	<stop  offset="0.1583" style="stop-color:#575E6A"/>
	<stop  offset="0.3244" style="stop-color:#464855"/>
	<stop  offset="0.506" style="stop-color:#3A3846"/>
	<stop  offset="0.7128" style="stop-color:#322F3E"/>
	<stop  offset="1" style="stop-color:#302C3B"/>
	<a:midPointStop  offset="0" style="stop-color:#6E7B85"/>
	<a:midPointStop  offset="0.2303" style="stop-color:#6E7B85"/>
	<a:midPointStop  offset="1" style="stop-color:#302C3B"/>
</linearGradient>
<path fill="url(#SVGID_3_)" d="M37.811,28.9c1.896,0,1.896-3.1,0-3.1H21.357l-2.171,3.1H37.811z"/>
<linearGradient id="SVGID_4_" gradientUnits="userSpaceOnUse" x1="16.293" y1="31.4834" x2="39.2324" y2="31.4834">
	<stop  offset="0" style="stop-color:#6E7B85"/>
	<stop  offset="0.0025" style="stop-color:#6E7A85"/>
	<stop  offset="0.1583" style="stop-color:#575E6A"/>
	<stop  offset="0.3244" style="stop-color:#464855"/>
	<stop  offset="0.506" style="stop-color:#3A3846"/>
	<stop  offset="0.7128" style="stop-color:#322F3E"/>
	<stop  offset="1" style="stop-color:#302C3B"/>
	<a:midPointStop  offset="0" style="stop-color:#6E7B85"/>
	<a:midPointStop  offset="0.2303" style="stop-color:#6E7B85"/>
	<a:midPointStop  offset="1" style="stop-color:#302C3B"/>
</linearGradient>
<path fill="url(#SVGID_4_)" d="M37.811,33.033c1.896,0,1.896-3.1,0-3.1H18.464l-2.171,3.1H37.811z"/>
<path fill="#302C3B" d="M42.979,33.033c-1.896,0-1.896-3.1,0-3.1H63v3.1H42.979z"/>
<polygon fill="#CFD8DD" points="43.367,16.5 27.867,16.5 26.834,12.367 44.399,12.367 "/>
<polygon fill="#E6EBEF" points="45.434,12.367 25.8,12.367 26.834,10.3 44.399,10.3 "/>
<polygon fill="#302C3B" points="43.625,15.466 27.608,15.466 27.092,13.4 44.142,13.4 "/>
<rect x="29.675" y="12.883" fill="#CFD8DD" width="1.034" height="3.1"/>
<rect x="33.291" y="12.883" fill="#CFD8DD" width="1.034" height="3.1"/>
<rect x="36.908" y="12.883" fill="#CFD8DD" width="1.034" height="3.1"/>
<rect x="40.524" y="12.883" fill="#CFD8DD" width="1.034" height="3.1"/>
<path fill="#302C3B" d="M58.479,19.674c0,0.588-1.549,0.588-1.549,0V18.49c0-0.589,1.549-0.589,1.549,0V19.674z"/>
<path fill="#302C3B" d="M44.529,19.674c0,0.588-1.551,0.588-1.551,0V18.49c0-0.589,1.551-0.589,1.551,0V19.674z"/>
<path fill="#302C3B" d="M54.992,19.674c0,0.588-1.55,0.588-1.55,0V18.49c0-0.589,1.55-0.589,1.55,0V19.674z"/>
<path fill="#302C3B" d="M51.505,19.674c0,0.588-1.551,0.588-1.551,0V18.49c0-0.589,1.551-0.589,1.551,0V19.674z"/>
<path fill="#302C3B" d="M48.017,19.674c0,0.588-1.55,0.588-1.55,0V18.49c0-0.589,1.55-0.589,1.55,0V19.674z"/>
<path fill="#302C3B" d="M58.479,23.808c0,0.588-1.549,0.588-1.549,0v-1.185c0-0.588,1.549-0.588,1.549,0V23.808z"/>
<path fill="#302C3B" d="M44.529,23.808c0,0.588-1.551,0.588-1.551,0v-1.185c0-0.588,1.551-0.588,1.551,0V23.808z"/>
<path fill="#302C3B" d="M54.992,23.808c0,0.588-1.55,0.588-1.55,0v-1.185c0-0.588,1.55-0.588,1.55,0V23.808z"/>
<path fill="#302C3B" d="M51.505,23.808c0,0.588-1.551,0.588-1.551,0v-1.185c0-0.588,1.551-0.588,1.551,0V23.808z"/>
<path fill="#302C3B" d="M48.017,23.808c0,0.588-1.55,0.588-1.55,0v-1.185c0-0.588,1.55-0.588,1.55,0V23.808z"/>
<path fill="#302C3B" d="M58.479,27.941c0,0.588-1.549,0.588-1.549,0v-1.185c0-0.588,1.549-0.588,1.549,0V27.941z"/>
<path fill="#302C3B" d="M44.529,27.941c0,0.588-1.551,0.588-1.551,0v-1.185c0-0.588,1.551-0.588,1.551,0V27.941z"/>
<path fill="#302C3B" d="M54.992,27.941c0,0.588-1.55,0.588-1.55,0v-1.185c0-0.588,1.55-0.588,1.55,0V27.941z"/>
<path fill="#302C3B" d="M51.505,27.941c0,0.588-1.551,0.588-1.551,0v-1.185c0-0.588,1.551-0.588,1.551,0V27.941z"/>
<path fill="#302C3B" d="M48.017,27.941c0,0.588-1.55,0.588-1.55,0v-1.185c0-0.588,1.55-0.588,1.55,0V27.941z"/>
<path fill="#302C3B" d="M61.967,19.674c0,0.588-1.551,0.588-1.551,0V18.49c0-0.589,1.551-0.589,1.551,0V19.674z"/>
<path fill="#302C3B" d="M61.967,23.808c0,0.588-1.551,0.588-1.551,0v-1.185c0-0.588,1.551-0.588,1.551,0V23.808z"/>
<path fill="#302C3B" d="M61.967,27.941c0,0.588-1.551,0.588-1.551,0v-1.185c0-0.588,1.551-0.588,1.551,0V27.941z"/>
<path fill="#302C3B" d="M63,63H22.246c0-2.266-0.58-4.133-0.58-4.133H63V63z"/>
<linearGradient id="SVGID_5_" gradientUnits="userSpaceOnUse" x1="14.667" y1="52.667" x2="63" y2="52.667">
	<stop  offset="0" style="stop-color:#009AF7"/>
	<stop  offset="0.0787" style="stop-color:#0095EF"/>
	<stop  offset="0.4713" style="stop-color:#007FCC"/>
	<stop  offset="0.7924" style="stop-color:#0072B6"/>
	<stop  offset="1" style="stop-color:#006DAE"/>
	<a:midPointStop  offset="0" style="stop-color:#009AF7"/>
	<a:midPointStop  offset="0.3879" style="stop-color:#009AF7"/>
	<a:midPointStop  offset="1" style="stop-color:#006DAE"/>
</linearGradient>
<path fill="url(#SVGID_5_)" d="M14.667,46.467c2.813,3.514,5.401,7.684,6.999,12.4H63v-12.4H14.667z"/>
<linearGradient id="SVGID_6_" gradientUnits="userSpaceOnUse" x1="32.0005" y1="46.4668" x2="32.0005" y2="34.0664">
	<stop  offset="0" style="stop-color:#C6CFD4"/>
	<stop  offset="0.183" style="stop-color:#CFD7DB"/>
	<stop  offset="0.6525" style="stop-color:#E0E6EA"/>
	<stop  offset="1" style="stop-color:#E6EBEF"/>
	<a:midPointStop  offset="0" style="stop-color:#C6CFD4"/>
	<a:midPointStop  offset="0.3576" style="stop-color:#C6CFD4"/>
	<a:midPointStop  offset="1" style="stop-color:#E6EBEF"/>
</linearGradient>
<path fill="url(#SVGID_6_)" d="M63,34.066H1c0,0,7.391,4.561,13.667,12.4H63V34.066z"/>
<path fill="#302C3B" d="M60.515,41.384h-1.186c-0.558,0-0.558-1.117,0-1.117h1.186C61.073,40.267,61.073,41.384,60.515,41.384z"/>
<path fill="#302C3B" d="M54.357,41.384h-1.185c-0.559,0-0.559-1.117,0-1.117h1.185C54.916,40.267,54.916,41.384,54.357,41.384z"/>
<path fill="#302C3B" d="M48.201,41.384h-1.186c-0.559,0-0.559-1.117,0-1.117h1.186C48.759,40.267,48.759,41.384,48.201,41.384z"/>
<path fill="#302C3B" d="M42.045,41.384h-1.187c-0.558,0-0.558-1.117,0-1.117h1.187C42.604,40.267,42.604,41.384,42.045,41.384z"/>
<path fill="#302C3B" d="M35.894,41.384h-1.185c-0.559,0-0.559-1.117,0-1.117h1.185C36.452,40.267,36.452,41.384,35.894,41.384z"/>
<path fill="#302C3B" d="M29.738,41.384h-1.187c-0.559,0-0.559-1.117,0-1.117h1.187C30.295,40.267,30.295,41.384,29.738,41.384z"/>
<path fill="#302C3B" d="M60.512,44.958h-1.187c-0.558,0-0.558-1.116,0-1.116h1.187C61.07,43.842,61.07,44.958,60.512,44.958z"/>
<path fill="#302C3B" d="M54.355,44.958H53.17c-0.559,0-0.559-1.116,0-1.116h1.186C54.913,43.842,54.913,44.958,54.355,44.958z"/>
<path fill="#302C3B" d="M48.198,44.958h-1.186c-0.558,0-0.558-1.116,0-1.116h1.186C48.756,43.842,48.756,44.958,48.198,44.958z"/>
<path fill="#302C3B" d="M42.041,44.958h-1.186c-0.558,0-0.558-1.116,0-1.116h1.186C42.6,43.842,42.6,44.958,42.041,44.958z"/>
<path fill="#302C3B" d="M35.891,44.958h-1.185c-0.559,0-0.559-1.116,0-1.116h1.185C36.449,43.842,36.449,44.958,35.891,44.958z"/>
<path fill="#302C3B" d="M60.515,48.533H59.33c-0.559,0-0.559-1.117,0-1.117h1.185C61.074,47.416,61.074,48.533,60.515,48.533z"/>
<path fill="#302C3B" d="M54.358,48.533h-1.186c-0.558,0-0.558-1.117,0-1.117h1.186C54.916,47.416,54.916,48.533,54.358,48.533z"/>
<path fill="#302C3B" d="M48.201,48.533h-1.185c-0.56,0-0.56-1.117,0-1.117h1.185C48.76,47.416,48.76,48.533,48.201,48.533z"/>
<rect x="1" y="32" fill="#99A8AE" width="62" height="0.517"/>
<rect x="1" y="32" fill="#99A8AE" width="0.517" height="2.066"/>
<rect x="5.1" y="32" fill="#99A8AE" width="0.516" height="2.066"/>
<rect x="9.198" y="32" fill="#99A8AE" width="0.517" height="2.066"/>
<rect x="13.297" y="32" fill="#99A8AE" width="0.518" height="2.066"/>
<rect x="17.396" y="32" fill="#99A8AE" width="0.517" height="2.066"/>
<rect x="21.494" y="32" fill="#99A8AE" width="0.517" height="2.066"/>
<rect x="25.594" y="32" fill="#99A8AE" width="0.517" height="2.066"/>
<rect x="29.692" y="32" fill="#99A8AE" width="0.517" height="2.066"/>
<rect x="33.791" y="32" fill="#99A8AE" width="0.518" height="2.066"/>
<rect x="37.89" y="32" fill="#99A8AE" width="0.517" height="2.066"/>
<rect x="41.989" y="32" fill="#99A8AE" width="0.517" height="2.066"/>
<rect x="46.088" y="32" fill="#99A8AE" width="0.517" height="2.066"/>
<rect x="50.187" y="32" fill="#99A8AE" width="0.517" height="2.066"/>
<rect x="54.285" y="32" fill="#99A8AE" width="0.517" height="2.066"/>
<rect x="58.385" y="32" fill="#99A8AE" width="0.516" height="2.066"/>
<rect x="62.483" y="32" fill="#99A8AE" width="0.517" height="2.066"/>
<path fill="#302C3B" d="M24.011,37.684c-0.882,0-0.882-1.551,0-1.551h1.778c0.882,0,0.882,1.551,0,1.551H24.011z"/>
<path fill="#302C3B" d="M19.875,37.684c-0.881,0-0.881-1.551,0-1.551h1.779c0.882,0,0.882,1.551,0,1.551H19.875z"/>
<path fill="#302C3B" d="M28.146,37.684c-0.882,0-0.882-1.551,0-1.551h1.779c0.881,0,0.881,1.551,0,1.551H28.146z"/>
<path fill="#302C3B" d="M32.28,37.684c-0.883,0-0.883-1.551,0-1.551h1.777c0.882,0,0.882,1.551,0,1.551H32.28z"/>
<path fill="#E6EBEF" d="M60.3,1h-1.952c-0.385,0-0.841,0.263-1.012,0.582l-3.57,6.652h7.233V1.651C60.999,1.294,60.684,1,60.3,1z"/>
<path fill="#B3C2C6" d="M62.032,3.893h-4.341c0-0.904,1.583-0.904,2.172-0.904c0.926,0,2.17,0,2.17,0L62.032,3.893L62.032,3.893z"/>
</svg>
