<?xml version="1.0" encoding="utf-8"?>
<!-- Generator: Adobe Illustrator 15.0.0, SVG Export Plug-In . SVG Version: 6.00 Build 0)  -->
<!DOCTYPE svg PUBLIC "-//W3C//DTD SVG 1.1//EN" "http://www.w3.org/Graphics/SVG/1.1/DTD/svg11.dtd" [
	<!ENTITY ns_flows "http://ns.adobe.com/Flows/1.0/">
	<!ENTITY ns_extend "http://ns.adobe.com/Extensibility/1.0/">
	<!ENTITY ns_ai "http://ns.adobe.com/AdobeIllustrator/10.0/">
	<!ENTITY ns_graphs "http://ns.adobe.com/Graphs/1.0/">
]>
<svg version="1.1" id="Layer_1" xmlns:x="&ns_extend;" xmlns:i="&ns_ai;" xmlns:graph="&ns_graphs;"
	 xmlns="http://www.w3.org/2000/svg" xmlns:xlink="http://www.w3.org/1999/xlink" xmlns:a="http://ns.adobe.com/AdobeSVGViewerExtensions/3.0/"
	 x="0px" y="0px" width="64px" height="64px" viewBox="0 0 64 64" enable-background="new 0 0 64 64" xml:space="preserve">
<polygon fill="#99A8AE" points="30.817,43.182 30.817,42.137 48.472,42.137 48.472,43.182 "/>
<polygon fill="#B1C3C9" points="32,36.909 32,35.863 48.001,35.863 48.001,36.909 "/>
<rect x="23.281" y="44.682" fill="#99A8AE" width="1.104" height="9.192"/>
<radialGradient id="SVGID_1_" cx="-31.624" cy="7.7578" r="5.0574" gradientTransform="matrix(1.2 0 0 -1.1761 92.9371 65.1751)" gradientUnits="userSpaceOnUse">
	<stop  offset="0.4909" style="stop-color:#5B666E"/>
	<stop  offset="0.6437" style="stop-color:#525A64"/>
	<stop  offset="0.9181" style="stop-color:#3C3B49"/>
	<stop  offset="1" style="stop-color:#343040"/>
	<a:midPointStop  offset="0.4909" style="stop-color:#5B666E"/>
	<a:midPointStop  offset="0.5" style="stop-color:#5B666E"/>
	<a:midPointStop  offset="0.6437" style="stop-color:#525A64"/>
	<a:midPointStop  offset="0.5" style="stop-color:#525A64"/>
	<a:midPointStop  offset="0.9181" style="stop-color:#3C3B49"/>
	<a:midPointStop  offset="0.5" style="stop-color:#3C3B49"/>
	<a:midPointStop  offset="1" style="stop-color:#343040"/>
</radialGradient>
<ellipse fill="url(#SVGID_1_)" cx="54.987" cy="56.052" rx="6.069" ry="5.948"/>
<path fill="#99A8AE" d="M58.958,56.054c-0.002,2.148-1.776,3.891-3.973,3.891c-2.193,0-3.971-1.74-3.971-3.891
	s1.779-3.895,3.971-3.895C57.182,52.159,58.958,53.903,58.958,56.054z"/>
<ellipse fill="#E6EBEF" cx="54.987" cy="56.052" rx="3.404" ry="3.336"/>
<path fill="#4E5E67" d="M55.347,53.563c0,0.467-0.719,0.467-0.719,0C54.628,53.098,55.347,53.098,55.347,53.563z"/>
<path fill="#4E5E67" d="M55.347,58.538c0,0.472-0.719,0.472-0.719,0C54.628,58.075,55.347,58.075,55.347,58.538z"/>
<path fill="#4E5E67" d="M57.364,55.107c-0.412,0.235-0.766-0.368-0.354-0.603C57.419,54.271,57.775,54.878,57.364,55.107z"/>
<path fill="#4E5E67" d="M52.965,57.599c-0.406,0.23-0.763-0.373-0.353-0.604C53.021,56.762,53.378,57.364,52.965,57.599z"/>
<path fill="#4E5E67" d="M57.005,57.599c-0.406-0.234-0.053-0.836,0.357-0.604C57.773,57.226,57.417,57.829,57.005,57.599z"/>
<path fill="#4E5E67" d="M52.612,55.107c-0.412-0.229-0.054-0.831,0.353-0.601C53.378,54.739,53.021,55.343,52.612,55.107z"/>
<path fill="#99A8AE" d="M56.974,56.052c0,1.076-0.888,1.947-1.988,1.947c-1.096,0-1.984-0.871-1.984-1.947
	c0-1.074,0.889-1.944,1.984-1.944C56.086,54.107,56.974,54.978,56.974,56.052z"/>
<path fill="#E6EBEF" d="M56.575,56.052c0,0.861-0.715,1.557-1.592,1.557c-0.875,0-1.585-0.697-1.585-1.557s0.71-1.557,1.585-1.557
	C55.86,54.495,56.575,55.191,56.575,56.052z"/>
<radialGradient id="SVGID_2_" cx="-71.0107" cy="7.7578" r="5.0571" gradientTransform="matrix(1.2 0 0 -1.1761 92.9371 65.1751)" gradientUnits="userSpaceOnUse">
	<stop  offset="0.4909" style="stop-color:#5B666E"/>
	<stop  offset="0.6437" style="stop-color:#525A64"/>
	<stop  offset="0.9181" style="stop-color:#3C3B49"/>
	<stop  offset="1" style="stop-color:#343040"/>
	<a:midPointStop  offset="0.4909" style="stop-color:#5B666E"/>
	<a:midPointStop  offset="0.5" style="stop-color:#5B666E"/>
	<a:midPointStop  offset="0.6437" style="stop-color:#525A64"/>
	<a:midPointStop  offset="0.5" style="stop-color:#525A64"/>
	<a:midPointStop  offset="0.9181" style="stop-color:#3C3B49"/>
	<a:midPointStop  offset="0.5" style="stop-color:#3C3B49"/>
	<a:midPointStop  offset="1" style="stop-color:#343040"/>
</radialGradient>
<ellipse fill="url(#SVGID_2_)" cx="7.723" cy="56.052" rx="6.069" ry="5.948"/>
<path fill="#99A8AE" d="M11.696,56.054c-0.002,2.148-1.778,3.891-3.973,3.891c-2.196,0-3.971-1.742-3.971-3.891
	c0-2.15,1.777-3.895,3.971-3.895C9.918,52.159,11.696,53.903,11.696,56.054z"/>
<ellipse fill="#E6EBEF" cx="7.723" cy="56.052" rx="3.404" ry="3.336"/>
<path fill="#4E5E67" d="M8.082,53.563c0,0.467-0.719,0.467-0.719,0C7.363,53.098,8.082,53.098,8.082,53.563z"/>
<path fill="#4E5E67" d="M8.082,58.538c0,0.472-0.719,0.472-0.719,0C7.363,58.075,8.082,58.075,8.082,58.538z"/>
<path fill="#4E5E67" d="M10.101,55.107c-0.414,0.235-0.768-0.368-0.355-0.603C10.154,54.271,10.511,54.878,10.101,55.107z"/>
<path fill="#4E5E67" d="M5.701,57.599c-0.407,0.23-0.764-0.373-0.354-0.604C5.757,56.762,6.115,57.364,5.701,57.599z"/>
<path fill="#4E5E67" d="M9.742,57.599c-0.406-0.234-0.054-0.836,0.357-0.604C10.508,57.226,10.152,57.829,9.742,57.599z"/>
<path fill="#4E5E67" d="M5.347,55.107c-0.41-0.229-0.053-0.831,0.354-0.601C6.113,54.739,5.757,55.343,5.347,55.107z"/>
<path fill="#99A8AE" d="M9.708,56.052c0,1.076-0.887,1.947-1.986,1.947c-1.097,0-1.984-0.871-1.984-1.947
	c0-1.074,0.887-1.944,1.984-1.944C8.822,54.107,9.708,54.978,9.708,56.052z"/>
<path fill="#E6EBEF" d="M9.313,56.052c0,0.861-0.716,1.557-1.594,1.557c-0.875,0-1.585-0.697-1.585-1.557s0.71-1.557,1.585-1.557
	C8.596,54.495,9.313,55.191,9.313,56.052z"/>
<path fill="#77B516" d="M7.686,47.196c-6.578,0-8.335,6.983-7.487,7.806c1.125,1.081,2.747-3.71,7.987-3.71
	c4.396,0,5.096,2.188,6.804,2.188C16.244,53.479,14.325,47.196,7.686,47.196z"/>
<polygon fill="#99A8AE" points="32.018,40.019 30.952,40.019 30.952,22.714 32.018,22.714 "/>
<linearGradient id="SVGID_3_" gradientUnits="userSpaceOnUse" x1="-81.7979" y1="30.6768" x2="-81.7979" y2="48.8638" gradientTransform="matrix(1 0 0 -1 94 70)">
	<stop  offset="0" style="stop-color:#302C3B"/>
	<stop  offset="0.2926" style="stop-color:#454754"/>
	<stop  offset="0.7557" style="stop-color:#636D78"/>
	<stop  offset="1" style="stop-color:#6E7B85"/>
	<a:midPointStop  offset="0" style="stop-color:#302C3B"/>
	<a:midPointStop  offset="0.5" style="stop-color:#302C3B"/>
	<a:midPointStop  offset="0.2926" style="stop-color:#454754"/>
	<a:midPointStop  offset="0.5" style="stop-color:#454754"/>
	<a:midPointStop  offset="0.7557" style="stop-color:#636D78"/>
	<a:midPointStop  offset="0.5" style="stop-color:#636D78"/>
	<a:midPointStop  offset="1" style="stop-color:#6E7B85"/>
</linearGradient>
<path fill="url(#SVGID_3_)" d="M11.502,22.85c-1.411,1.367-6.077,13.591-6.077,16.474l9.71-0.856l3.843-17.331L11.502,22.85z"/>
<path fill="#302C3B" d="M38.4,41.686c-1.781,0-1.765,1.712-1.765,2.568c0,0.473,0.369,0.855,0.881,0.855h7.946v-3.424H38.4z"/>
<linearGradient id="SVGID_4_" gradientUnits="userSpaceOnUse" x1="-75.8667" y1="14.2725" x2="-75.8667" y2="29.9541" gradientTransform="matrix(1 0 0 -1 94 70)">
	<stop  offset="0" style="stop-color:#77B516"/>
	<stop  offset="0.9753" style="stop-color:#99D334"/>
	<stop  offset="1" style="stop-color:#9AD435"/>
	<a:midPointStop  offset="0" style="stop-color:#77B516"/>
	<a:midPointStop  offset="0.5" style="stop-color:#77B516"/>
	<a:midPointStop  offset="0.9753" style="stop-color:#99D334"/>
	<a:midPointStop  offset="0.5" style="stop-color:#99D334"/>
	<a:midPointStop  offset="1" style="stop-color:#9AD435"/>
</linearGradient>
<path fill="url(#SVGID_4_)" d="M28.799,44.885v7.706H18.133C17.067,52.591,16,51.546,16,50.5V40.046H5.333
	c0,1.711,0.404,15.682,11.879,15.682c2,0,13.241,0,13.241,0l0.479-10.843H28.799z"/>
<path fill="#FFE12C" d="M16,40.046H5.333c0-1.428,0.092-2.435,0.092-2.435h6.598c1.29,0,2.391-0.899,2.609-2.134l2.58-12.628
	l2.649-2.569L16,40.046z"/>
<linearGradient id="SVGID_5_" gradientUnits="userSpaceOnUse" x1="-80.3164" y1="41.9766" x2="-29.999" y2="41.9766" gradientTransform="matrix(1 0 0 -1 94 70)">
	<stop  offset="0" style="stop-color:#FFE600"/>
	<stop  offset="1" style="stop-color:#FFC800"/>
	<a:midPointStop  offset="0" style="stop-color:#FFE600"/>
	<a:midPointStop  offset="0.5" style="stop-color:#FFE600"/>
	<a:midPointStop  offset="1" style="stop-color:#FFC800"/>
</linearGradient>
<path fill="url(#SVGID_5_)" d="M64.001,40.046l-1.766-18.91l-6.208-3.94L46.345,16H15.89c0,0-2.206,0-2.206,2.342l3.529,4.508
	h26.925c1.728,0,2.207,0.47,2.207,2.164v15.033H64.001z"/>
<path fill="#F9B700" d="M60.72,24.524c0.197-0.293,0.92-1.413,1.556-2.939l-0.04-0.448l-0.241-0.152
	c-0.603,1.563-1.304,2.78-1.579,3.203l-4.998-2.276c0.14-0.541,0.577-2.385,0.754-4.605l-0.144-0.11l-0.29-0.045
	c-0.168,2.222-0.604,4.087-0.743,4.641l-8.37-0.919c0.116-0.641,0.372-2.548-0.094-4.846L46.345,16l-0.271,0.016
	c0.483,2.312,0.209,4.255,0.11,4.819H16.351v0.429l29.98-0.002l1.79,0.248v18.537h0.44V21.572l6.528,0.649l5.196,2.387l2.377,15.437
	h0.443L60.72,24.524z"/>
<ellipse fill="#F9B700" cx="47.228" cy="37.833" rx="0.441" ry="0.433"/>
<ellipse fill="#F9B700" cx="47.228" cy="34.408" rx="0.441" ry="0.433"/>
<ellipse fill="#F9B700" cx="47.228" cy="30.983" rx="0.441" ry="0.427"/>
<ellipse fill="#F9B700" cx="47.228" cy="27.559" rx="0.441" ry="0.432"/>
<ellipse fill="#F9B700" cx="47.228" cy="24.133" rx="0.441" ry="0.432"/>
<path fill="#302C3B" d="M22.951,43.397c-0.514,0-0.881,0.383-0.881,0.856c0,0.473,0.368,0.855,0.881,0.855h7.945v-1.712H22.951z"/>
<linearGradient id="SVGID_6_" gradientUnits="userSpaceOnUse" x1="-47.0659" y1="7.7891" x2="-47.0659" y2="30.134" gradientTransform="matrix(1 0 0 -1 94 70)">
	<stop  offset="0" style="stop-color:#77B516"/>
	<stop  offset="0.9753" style="stop-color:#99D334"/>
	<stop  offset="1" style="stop-color:#9AD435"/>
	<a:midPointStop  offset="0" style="stop-color:#77B516"/>
	<a:midPointStop  offset="0.5" style="stop-color:#77B516"/>
	<a:midPointStop  offset="0.9753" style="stop-color:#99D334"/>
	<a:midPointStop  offset="0.5" style="stop-color:#99D334"/>
	<a:midPointStop  offset="1" style="stop-color:#9AD435"/>
</linearGradient>
<path fill="url(#SVGID_6_)" d="M43.396,40.046c-0.851,0-1.579,0.514-1.735,1.324l-2.106,9.824c-0.158,0.81-0.306,1.396-1.154,1.396
	h-5.333c-0.975,0-1.067-0.099-1.067-1.045V39.972h-2.134v15.756h18.011l1.631-4.623H60.47l1.768,4.623h1.764V40.046H43.396z"/>
<path fill="#77B516" d="M58.458,49.454h-6.941c-1.081,0-2.07,0.674-2.554,1.735l-1.894,4.16c-0.079,0.175,0.035,0.378,0.213,0.378
	h1.574c2.352,0,1.329-3.135,3.695-3.135h4.871c2.354,0,1.332,3.135,3.698,3.135h1.575c0.177,0,0.291-0.203,0.211-0.378l-1.895-4.16
	C60.529,50.128,59.54,49.454,58.458,49.454z"/>
<path fill="#77B516" d="M45.175,40.944c-0.605,0-0.605,0.855,0,0.855h18.826v-0.855H45.175z"/>
<path fill="#77B516" d="M44.224,44.368c-0.608,0-0.608,0.857,0,0.857h19.777v-0.857H44.224z"/>
<path fill="#77B516" d="M43.269,47.794c-0.607,0-0.607,0.855,0,0.855h20.732v-0.855H43.269z"/>
<linearGradient id="SVGID_7_" gradientUnits="userSpaceOnUse" x1="8.8271" y1="20.5957" x2="17.2124" y2="20.5957">
	<stop  offset="0" style="stop-color:#FFE600"/>
	<stop  offset="1" style="stop-color:#FFC800"/>
	<a:midPointStop  offset="0" style="stop-color:#FFE600"/>
	<a:midPointStop  offset="0.5" style="stop-color:#FFE600"/>
	<a:midPointStop  offset="1" style="stop-color:#FFC800"/>
</linearGradient>
<path fill="url(#SVGID_7_)" d="M17.212,18.342h-3.529l-4.856,3.426v1.082h8.385V18.342z"/>
</svg>
