<?xml version="1.0" encoding="utf-8"?>
<!-- Generator: Adobe Illustrator 24.1.2, SVG Export Plug-In . SVG Version: 6.00 Build 0)  -->
<svg version="1.1" id="Layer_1" xmlns="http://www.w3.org/2000/svg" xmlns:xlink="http://www.w3.org/1999/xlink" x="0px" y="0px"
	 width="64px" height="64px" viewBox="0 0 64 64" style="enable-background:new 0 0 64 64;" xml:space="preserve">
<style type="text/css">
	.st0{fill:#EBC199;}
	.st1{fill:#B08863;}
	.st2{fill:url(#SVGID_1_);}
	.st3{fill:url(#SVGID_2_);}
	.st4{fill:url(#SVGID_3_);}
	.st5{fill:url(#SVGID_4_);}
</style>
<path class="st0" d="M54.48,57.31c-2.65-2.14-7.82-6.9-10.12-8.67l4.22-20.48c0,0-12.16-1.58-7.87-8.87
	c2.88-4.9,3.91-9.64,0.95-14.83c-3.69-6.49-9.1-2.97-8.93-0.18c0.82,13.97-5.64,21.75-19.56,21.75c-8.22,0-8.22,24.67,0,24.67
	c0.93,0,9.47,0.1,9.74,0.36c4.33,4.19,10.78,5.14,15.49,5.19c6.21,1.96,10.37,5.35,12.3,6.4C54.57,64.78,58.12,60.25,54.48,57.31z"
	/>
<path class="st1" d="M13.17,26.03c3.52,0.34,11.83-0.8,14.67-3.69c4.12-4.18,6.15-10.61,5.71-18.1c-0.05-0.91,0.85-2.16,2.27-2.55
	c1.83-0.5,3.7,0.65,5.12,3.15c2.49,4.38,2.2,8.72-0.95,14.07c-1.16,1.98-1.34,3.78-0.52,5.37c1.92,3.71,8.71,4.63,8.99,4.66
	l0.22-1.56c-1.72-0.22-6.47-1.34-7.75-3.81c-0.57-1.1-0.42-2.38,0.48-3.9c3.46-5.88,3.75-10.69,0.96-15.6
	c-2.59-4.55-5.76-4.25-7.01-3.91c-2.04,0.56-3.56,2.38-3.46,4.15c0.42,7.05-1.45,13.07-5.26,16.94
	C24.12,23.83,20.09,25.61,13.17,26.03z"/>
<path class="st1" d="M55.01,56.71c-1.22-0.98-3.02-2.57-4.76-4.1c-2.03-1.78-4.12-3.62-5.37-4.58l-1.02,1.23
	c1.21,0.93,3.28,2.75,5.29,4.52c1.75,1.54,3.57,3.14,4.81,4.14c1.55,1.25,1.4,2.66,0.8,3.48c-0.67,0.92-2.05,1.45-3.66,0.58
	c-0.43-0.24-1.03-0.63-1.72-1.08c-2.35-1.54-5.91-3.87-10.73-5.39l-0.25-0.04c-4.52-0.05-10.77-0.95-14.92-4.96
	c-0.51-0.49-5.87-0.21-10.32,0.19c7.16,0.06,8.58,0.9,9.28,1.04c4.49,4.24,11.04,5.23,15.81,5.3c4.55,1.45,7.95,3.68,10.2,5.15
	c0.75,0.49,1.34,0.88,1.83,1.15c0.84,0.46,1.66,0.66,2.42,0.66c1.47,0,2.7-0.74,3.39-1.7C57.17,60.82,57.25,58.52,55.01,56.71z"/>
<radialGradient id="SVGID_1_" cx="-30.2422" cy="29.1932" r="6.242" gradientTransform="matrix(1.2956 0 0 2.4301 76.2804 -30.3459)" gradientUnits="userSpaceOnUse">
	<stop  offset="0.2788" style="stop-color:#C99B71"/>
	<stop  offset="0.516" style="stop-color:#D3A77D;stop-opacity:0.6124"/>
	<stop  offset="0.8909" style="stop-color:#EBC199;stop-opacity:0"/>
</radialGradient>
<path class="st2" d="M40.46,24.45c-15.01-1.31-15.54,32.11-0.65,31.56C46.92,55.75,47.52,25.07,40.46,24.45z"/>
<radialGradient id="SVGID_2_" cx="24.0206" cy="9.0814" r="8.2243" gradientTransform="matrix(1.0143 0.1092 -0.0791 0.6739 22.6775 36.5554)" gradientUnits="userSpaceOnUse">
	<stop  offset="0.5212" style="stop-color:#EBC199"/>
	<stop  offset="0.8485" style="stop-color:#C99B71"/>
</radialGradient>
<path class="st3" d="M51.03,43.13c-5.38-0.58-6.34-0.68-11.47-1.23c-3.88-0.42-4.68,6.44-0.83,7.08c2.67,0.45,7.2,1.13,10.7,1.15
	C53.15,50.15,54.72,43.52,51.03,43.13z"/>
<radialGradient id="SVGID_3_" cx="24.703" cy="1.5421" r="8.5462" gradientTransform="matrix(1.0143 0.1092 -0.0762 0.6492 22.9346 34.3655)" gradientUnits="userSpaceOnUse">
	<stop  offset="0.5212" style="stop-color:#EBC199"/>
	<stop  offset="0.8485" style="stop-color:#C99B71"/>
</radialGradient>
<path class="st4" d="M53.21,35.23c-5.71-0.61-7.45-0.35-12.88-0.94c-4.44-0.48-5.16,6.32-0.89,7.58c3.1,0.92,7.52,1.28,11.6,1.25
	C54.63,43.1,56.79,35.62,53.21,35.23z"/>
<radialGradient id="SVGID_4_" cx="25.5321" cy="-6.8148" r="9.1085" gradientTransform="matrix(1.0143 0.1092 -0.0749 0.638 23.2577 31.6134)" gradientUnits="userSpaceOnUse">
	<stop  offset="0.5212" style="stop-color:#EBC199"/>
	<stop  offset="0.8485" style="stop-color:#C99B71"/>
</radialGradient>
<path class="st5" d="M53.94,27.41c-3.08-0.75-7.88-1.73-13.25,0.34c-2.66,1.02-2.24,6-0.18,6.57c2.15,0.59,6.91,0.74,12.7,0.92
	C56.78,35.34,57.26,28.22,53.94,27.41z"/>
<path class="st1" d="M49.45,50.91c-0.01,0-0.02,0-0.03,0c-2.65-0.02-6.3-0.41-10.84-1.16c-2.48-0.41-3.45-2.81-3.13-4.97
	c0.36-2.39,2.08-3.89,4.19-3.67l-0.18,1.56c-1.58-0.16-2.25,1.38-2.39,2.33c-0.21,1.41,0.34,2.96,1.79,3.2
	c4.45,0.74,8,1.13,10.57,1.14c0,0,0.01,0,0.01,0c1.58,0,2.75-1.75,2.85-3.38c0.04-0.57-0.03-1.91-1.37-2.05l0.18-1.56
	c1.84,0.2,2.95,1.65,2.82,3.71C53.8,48.39,52.04,50.91,49.45,50.91z"/>
<path class="st1" d="M50.57,43.92c-4.48,0-8.6-0.46-11.38-1.28c-2.79-0.82-3.79-3.6-3.31-5.79c0.48-2.23,2.32-3.55,4.54-3.32
	l-0.18,1.56c-2.08-0.22-2.63,1.53-2.75,2.08c-0.33,1.52,0.33,3.42,2.19,3.97c2.72,0.8,6.86,1.26,11.35,1.21
	c1.64-0.01,3.09-2.4,3.19-4.37c0.04-0.68-0.06-1.84-1.1-1.95l0.18-1.56c1.69,0.18,2.67,1.56,2.56,3.6
	c-0.15,2.76-2.17,5.85-4.82,5.86C50.88,43.91,50.73,43.92,50.57,43.92z"/>
<path class="st1" d="M53.29,36.02c-0.04,0-0.07,0-0.11,0c-5.69-0.17-10.61-0.32-12.9-0.95c-1.28-0.35-2.17-1.78-2.26-3.65
	c-0.11-2.08,0.82-3.8,2.37-4.4c5.92-2.28,11.21-0.99,13.75-0.37c2.28,0.55,3.13,3.19,2.79,5.52C56.58,34.52,55.16,36.02,53.29,36.02
	z M47.48,27.3c-1.97,0-4.18,0.29-6.49,1.18c-1.08,0.42-1.4,1.8-1.34,2.86c0.06,1.11,0.52,2.07,1.08,2.22
	c2.09,0.57,7.15,0.73,12.5,0.89c1.23,0.07,1.9-1.33,2.07-2.5c0.24-1.61-0.29-3.46-1.57-3.77l0,0C52.37,27.84,50.15,27.3,47.48,27.3z
	"/>
<path class="st1" d="M38.39,32.62c-2.37,2.45-5.47,4.61-9.04,5.68c4.37-0.01,8.17-1.9,10.87-4.36C39.61,33.49,39,33.05,38.39,32.62z
	"/>
<path class="st1" d="M24.23,51.35c0,0-2.18-2.09-2.41-4c-0.85,2.23,0.49,4.28,0.49,4.28L24.23,51.35z"/>
</svg>
