<?xml version="1.0" encoding="utf-8"?>
<!-- Generator: Adobe Illustrator 24.1.2, SVG Export Plug-In . SVG Version: 6.00 Build 0)  -->
<svg version="1.1" id="Layer_1" xmlns="http://www.w3.org/2000/svg" xmlns:xlink="http://www.w3.org/1999/xlink" x="0px" y="0px"
	 width="64px" height="64px" viewBox="0 0 64 64" style="enable-background:new 0 0 64 64;" xml:space="preserve">
<style type="text/css">
	.st0{fill:url(#SVGID_1_);}
	.st1{fill:url(#SVGID_2_);}
	.st2{fill:#1A1626;}
	.st3{fill:url(#SVGID_3_);}
	.st4{fill:url(#SVGID_4_);}
	.st5{opacity:0.2;fill:#302C3B;}
	.st6{fill:url(#SVGID_5_);}
</style>
<linearGradient id="SVGID_1_" gradientUnits="userSpaceOnUse" x1="31.9851" y1="62" x2="31.9851" y2="2">
	<stop  offset="0" style="stop-color:#FF9500"/>
	<stop  offset="0.1919" style="stop-color:#FFAD00"/>
	<stop  offset="0.5455" style="stop-color:#FFD500"/>
	<stop  offset="0.8272" style="stop-color:#FFED00"/>
	<stop  offset="1" style="stop-color:#FFF600"/>
</linearGradient>
<path class="st0" d="M31.99,2c16.56,0,29.98,13.42,29.98,30c0,16.56-13.42,30-29.98,30C15.43,62,2,48.56,2,32
	C2,15.42,15.43,2,31.99,2z"/>
<linearGradient id="SVGID_2_" gradientUnits="userSpaceOnUse" x1="40.3082" y1="20.2127" x2="33.7285" y2="29.6307">
	<stop  offset="0" style="stop-color:#C48324"/>
	<stop  offset="0.284" style="stop-color:#D1932C;stop-opacity:0.716"/>
	<stop  offset="0.8362" style="stop-color:#F2BC40;stop-opacity:0.1638"/>
	<stop  offset="1" style="stop-color:#FDCA47;stop-opacity:0"/>
</linearGradient>
<path class="st1" d="M4.51,19.98C19.37,9.22,54.84,4.48,59.16,44.7C41.74,66.55-7.03,52.07,4.51,19.98z"/>
<path class="st2" d="M41.7,44.15c-6.81-2.44-15.63-0.48-19.76,4.85c-0.34,0.44,0.08,0.97,0.58,0.65c4.05-2.65,12.28-4.15,18-1.9
	C42.71,48.61,44.02,44.98,41.7,44.15z"/>
<ellipse class="st2" cx="21.99" cy="30.5" rx="4" ry="5"/>
<ellipse class="st2" cx="41.99" cy="30.5" rx="4" ry="5"/>
<linearGradient id="SVGID_3_" gradientUnits="userSpaceOnUse" x1="39.0996" y1="1.8688" x2="35.9135" y2="14.6688">
	<stop  offset="0.2485" style="stop-color:#E6E9F2"/>
	<stop  offset="0.9576" style="stop-color:#C2C6CC"/>
</linearGradient>
<path class="st3" d="M57.68,16.52C51.56,10.78,36.66,3.6,24.99,2.74c-3.26,0.78-6.43,2.14-9.36,4.12
	C20.14,9.19,47.48,15.17,57.68,16.52z"/>
<linearGradient id="SVGID_4_" gradientUnits="userSpaceOnUse" x1="51.8881" y1="26.8655" x2="48.7162" y2="32.7016">
	<stop  offset="0.0424" style="stop-color:#C2C6CC"/>
	<stop  offset="1" style="stop-color:#DADEE6"/>
</linearGradient>
<path class="st4" d="M37.48,22.16c8.33,5.98,18.29,15.79,21.67,22.54c2.77-5.77,2.78-11.31,2.78-11.31S51.85,24.42,37.48,22.16z"/>
<path class="st5" d="M40.72,24.61c8.07,2.54,14.92,5.76,21.22,8.79c-4.26-6.3-6.34-13.81-4.26-16.87
	C45.06,9.15,26.81,6.06,15.82,6.74c-0.89,5.37-6.39,9.79-11.31,13.25c14.14-0.53,24.97,1.41,34.58,4.31
	c7.24,5.99,18.48,17.23,20.07,20.4C56.2,38.81,48.24,30.58,40.72,24.61z"/>
<linearGradient id="SVGID_5_" gradientUnits="userSpaceOnUse" x1="4.5096" y1="20.066" x2="62.0002" y2="20.066">
	<stop  offset="0.1" style="stop-color:#DADEE6"/>
	<stop  offset="0.1828" style="stop-color:#E3E7EF"/>
	<stop  offset="0.3441" style="stop-color:#EEF4FB"/>
	<stop  offset="0.5" style="stop-color:#F2F8FF"/>
	<stop  offset="0.6559" style="stop-color:#EEF4FB"/>
	<stop  offset="0.8172" style="stop-color:#E3E7EF"/>
	<stop  offset="0.9" style="stop-color:#DADEE6"/>
</linearGradient>
<path class="st6" d="M15.82,6.74c14.52-0.06,28.88,3.3,41.86,9.79c2.9,4.03,4.69,11.55,4.26,16.87
	C44.81,22.8,24.57,18.06,4.51,19.98C6.35,14.9,10.89,9.31,15.82,6.74z"/>
</svg>
