<?xml version="1.0" encoding="utf-8"?>
<!-- Generator: Adobe Illustrator 24.1.2, SVG Export Plug-In . SVG Version: 6.00 Build 0)  -->
<svg version="1.1" id="Layer_1" xmlns="http://www.w3.org/2000/svg" xmlns:xlink="http://www.w3.org/1999/xlink" x="0px" y="0px"
	 width="64px" height="64px" viewBox="0 0 64 64" style="enable-background:new 0 0 64 64;" xml:space="preserve">
<style type="text/css">
	.st0{fill:url(#SVGID_1_);}
	.st1{fill:#FFFFFF;}
	.st2{fill:#1A1626;}
	.st3{fill:url(#SVGID_2_);}
	.st4{fill:url(#SVGID_3_);}
	.st5{fill:url(#SVGID_4_);}
</style>
<linearGradient id="SVGID_1_" gradientUnits="userSpaceOnUse" x1="32.1444" y1="49.0145" x2="32.1444" y2="-10.9875" gradientTransform="matrix(1 0 0 1 -0.1444 12.9862)">
	<stop  offset="0" style="stop-color:#FF9500"/>
	<stop  offset="0.1919" style="stop-color:#FFAD00"/>
	<stop  offset="0.5455" style="stop-color:#FFD500"/>
	<stop  offset="0.8272" style="stop-color:#FFED00"/>
	<stop  offset="1" style="stop-color:#FFF600"/>
</linearGradient>
<path class="st0" d="M32,2c16.57,0,30,13.43,30,30c0,16.56-13.43,30-30,30C15.43,62,2,48.57,2,32C2,15.43,15.43,2,32,2z"/>
<path class="st1" d="M28,25.42c0,4.7-3.81,8.5-8.5,8.5c-4.69,0-8.5-3.8-8.5-8.5c0-4.69,3.81-8.5,8.5-8.5
	C24.19,16.92,28,20.73,28,25.42z"/>
<path class="st1" d="M51,20c0,5.52-4.48,10-10,10c-5.52,0-10-4.48-10-10c0-5.52,4.48-10,10-10C46.52,10,51,14.48,51,20z"/>
<path class="st2" d="M25.5,26c0,1.93-1.57,3.5-3.5,3.5c-1.93,0-3.5-1.56-3.5-3.5c0-1.93,1.56-3.5,3.5-3.5
	C23.93,22.5,25.5,24.07,25.5,26z"/>
<path class="st2" d="M42.5,19c0,2.49-2.02,4.5-4.5,4.5c-2.49,0-4.5-2.01-4.5-4.5c0-2.48,2.01-4.5,4.5-4.5
	C40.48,14.5,42.5,16.51,42.5,19z"/>
<path class="st2" d="M47.76,33.61c-3.7-0.04-8.87,0.22-15.24,1.34c-6.37,1.12-11.32,2.65-14.78,3.96c-1.75,0.66-2.47,2.33-2.12,3.83
	c1.79,7.56,8.78,12.94,20.2,10.92c11.42-2.01,16.15-9.46,15.24-17.17C50.88,34.96,49.63,33.63,47.76,33.61z"/>
<linearGradient id="SVGID_2_" gradientUnits="userSpaceOnUse" x1="32.5396" y1="-1.5381" x2="64.517" y2="-1.5381" gradientTransform="matrix(0.9848 -0.1736 0.1736 0.9848 -14.2216 49.3225)">
	<stop  offset="0" style="stop-color:#CFD7E6"/>
	<stop  offset="0.0368" style="stop-color:#DAE0EC"/>
	<stop  offset="0.1263" style="stop-color:#EEF1F6"/>
	<stop  offset="0.2147" style="stop-color:#FBFCFD"/>
	<stop  offset="0.3" style="stop-color:#FFFFFF"/>
	<stop  offset="0.7" style="stop-color:#FFFFFF"/>
	<stop  offset="0.7853" style="stop-color:#FBFCFD"/>
	<stop  offset="0.8737" style="stop-color:#EEF1F6"/>
	<stop  offset="0.9632" style="stop-color:#DAE0EC"/>
	<stop  offset="1" style="stop-color:#CFD7E6"/>
</linearGradient>
<path class="st3" d="M47.37,35.63c-2.55-0.01-7.91,0.13-14.5,1.29c-6.59,1.16-11.68,2.87-14.07,3.74c-1.5,0.55-1.41,1.23-0.98,2.48
	c0.38,1.1,0.55,1.38,1.75,1.18c1.1-0.18,14.16-2.5,14.16-2.5s13.06-2.29,14.16-2.5c1.2-0.23,1.26-0.55,1.24-1.71
	C49.11,36.3,48.96,35.64,47.37,35.63z"/>
<linearGradient id="SVGID_3_" gradientUnits="userSpaceOnUse" x1="277.6458" y1="-202.8365" x2="277.6458" y2="-184.0634" gradientTransform="matrix(0.9852 -0.4431 0.4102 0.912 -151.4302 354.1008)">
	<stop  offset="0" style="stop-color:#690900"/>
	<stop  offset="0.0186" style="stop-color:#76120B"/>
	<stop  offset="0.0782" style="stop-color:#9A2C2B"/>
	<stop  offset="0.1433" style="stop-color:#B94247"/>
	<stop  offset="0.2141" style="stop-color:#D2545D"/>
	<stop  offset="0.2928" style="stop-color:#E5626E"/>
	<stop  offset="0.3837" style="stop-color:#F36C7A"/>
	<stop  offset="0.4978" style="stop-color:#FB7181"/>
	<stop  offset="0.7091" style="stop-color:#FD7383"/>
</linearGradient>
<path class="st4" d="M31.98,52.24c0.3,0.66,1.65,3.59,2.18,4.79c2.94,6.53,8.01,8.17,12.45,6.18c4.44-2,6.57-6.89,3.64-13.42
	c-0.54-1.2-1.88-4.12-2.19-4.79c-1.75-3.9-9,1.5-9,1.5S30.23,48.34,31.98,52.24z"/>
<linearGradient id="SVGID_4_" gradientUnits="userSpaceOnUse" x1="39.7883" y1="46.3494" x2="44.9468" y2="57.8167" gradientTransform="matrix(1 0 0 1 -0.7136 0.1573)">
	<stop  offset="0" style="stop-color:#420600;stop-opacity:0.18"/>
	<stop  offset="0.1185" style="stop-color:#5F0800;stop-opacity:0.1658"/>
	<stop  offset="0.2926" style="stop-color:#820B00;stop-opacity:0.1449"/>
	<stop  offset="0.4686" style="stop-color:#9E0D00;stop-opacity:0.1238"/>
	<stop  offset="0.6448" style="stop-color:#B20F00;stop-opacity:0.1026"/>
	<stop  offset="0.8217" style="stop-color:#BE1000;stop-opacity:0.0814"/>
	<stop  offset="1" style="stop-color:#C21000;stop-opacity:0.06"/>
</linearGradient>
<path class="st5" d="M37.84,46.81l6.36,11.02l-4.08-12.05c-0.65,0.41-1.05,0.71-1.05,0.71S38.57,46.6,37.84,46.81z"/>
</svg>
