<?xml version="1.0" encoding="utf-8"?>
<!-- Generator: Adobe Illustrator 24.1.2, SVG Export Plug-In . SVG Version: 6.00 Build 0)  -->
<svg version="1.1" id="Layer_1" xmlns="http://www.w3.org/2000/svg" xmlns:xlink="http://www.w3.org/1999/xlink" x="0px" y="0px"
	 width="64px" height="64px" viewBox="0 0 64 64" style="enable-background:new 0 0 64 64;" xml:space="preserve">
<style type="text/css">
	.st0{fill:url(#SVGID_1_);}
	.st1{fill:#1A1626;}
	.st2{fill:#D69600;}
</style>
<linearGradient id="SVGID_1_" gradientUnits="userSpaceOnUse" x1="32" y1="62" x2="32" y2="2">
	<stop  offset="0" style="stop-color:#FF9500"/>
	<stop  offset="0.1919" style="stop-color:#FFAD00"/>
	<stop  offset="0.5455" style="stop-color:#FFD500"/>
	<stop  offset="0.8272" style="stop-color:#FFED00"/>
	<stop  offset="1" style="stop-color:#FFF600"/>
</linearGradient>
<circle class="st0" cx="32" cy="32" r="30"/>
<path class="st1" d="M37.11,48H26.89c-2.52,0-2.52-4,0-4h10.21C39.63,44,39.63,48,37.11,48z"/>
<ellipse class="st1" cx="22" cy="29.5" rx="4" ry="4.5"/>
<ellipse class="st1" cx="42" cy="28.5" rx="4" ry="5.5"/>
<path class="st2" d="M39.64,12.93c-7.73,2.64-4.41,9.67-1.32,5.98c2.18-2.61,6.81-4.39,11.99-2.16
	C52.67,17.76,48.53,9.9,39.64,12.93z"/>
<path class="st2" d="M23.1,19.29c7.23,0.74,5.97,6.41,1.95,4.95c-3.38-1.23-7.82-1.53-11.72-0.1C11.19,24.92,14.7,18.43,23.1,19.29z
	"/>
</svg>
