<?xml version="1.0" encoding="utf-8"?>
<!-- Generator: Adobe Illustrator 24.1.2, SVG Export Plug-In . SVG Version: 6.00 Build 0)  -->
<svg version="1.1" id="Layer_1" xmlns="http://www.w3.org/2000/svg" xmlns:xlink="http://www.w3.org/1999/xlink" x="0px" y="0px"
	 width="64px" height="64px" viewBox="0 0 64 64" style="enable-background:new 0 0 64 64;" xml:space="preserve">
<style type="text/css">
	.st0{fill:url(#SVGID_1_);}
	.st1{fill:#1A1626;}
	.st2{fill:#FD7383;}
	.st3{fill:url(#SVGID_2_);}
	.st4{fill:url(#SVGID_3_);}
	.st5{fill:url(#SVGID_4_);}
	.st6{fill:url(#SVGID_5_);}
	.st7{fill:url(#SVGID_6_);}
</style>
<linearGradient id="SVGID_1_" gradientUnits="userSpaceOnUse" x1="31.7763" y1="61.5519" x2="31.7763" y2="1.9996" gradientTransform="matrix(1 0 0 1 3.000000e-04 4.000000e-04)">
	<stop  offset="0" style="stop-color:#FF9500"/>
	<stop  offset="0.1919" style="stop-color:#FFAD00"/>
	<stop  offset="0.5455" style="stop-color:#FFD500"/>
	<stop  offset="0.8272" style="stop-color:#FFED00"/>
	<stop  offset="1" style="stop-color:#FFF600"/>
</linearGradient>
<path class="st0" d="M31.78,2c16.45,0,29.78,13.33,29.78,29.78c0,16.44-13.33,29.78-29.78,29.78C15.33,61.55,2,48.22,2,31.78
	C2,15.33,15.33,2,31.78,2z"/>
<path class="st1" d="M42,20.61c-3.03,2.08-7.09,5.23-11.63,9.77c-4.54,4.54-7.69,8.6-9.77,11.63c-1.05,1.53-0.68,3.3,0.46,4.32
	c5.76,5.13,14.5,5.52,22.64-2.62c8.14-8.14,7.74-16.88,2.62-22.64C45.31,19.92,43.53,19.56,42,20.61z"/>
<path class="st2" d="M34.92,46.88c0,0,4.06-1.26,7.39-4.58c3.33-3.32,4.58-7.39,4.58-7.39s-4.1-0.11-7.39,4.58
	C34.81,42.78,34.92,46.88,34.92,46.88z"/>
<linearGradient id="SVGID_2_" gradientUnits="userSpaceOnUse" x1="-318.3649" y1="-14.7724" x2="-286.6266" y2="-14.7724" gradientTransform="matrix(0.7071 -0.7071 0.7071 0.7071 257.8702 -169.9204)">
	<stop  offset="0" style="stop-color:#CFD7E6"/>
	<stop  offset="0.0368" style="stop-color:#DAE0EC"/>
	<stop  offset="0.1263" style="stop-color:#EEF1F6"/>
	<stop  offset="0.2147" style="stop-color:#FBFCFD"/>
	<stop  offset="0.3" style="stop-color:#FFFFFF"/>
	<stop  offset="0.7" style="stop-color:#FFFFFF"/>
	<stop  offset="0.7853" style="stop-color:#FBFCFD"/>
	<stop  offset="0.8737" style="stop-color:#EEF1F6"/>
	<stop  offset="0.9632" style="stop-color:#DAE0EC"/>
	<stop  offset="1" style="stop-color:#CFD7E6"/>
</linearGradient>
<path class="st3" d="M42.83,22.47c-2.08,1.45-6.36,4.61-11.05,9.31c-4.69,4.69-7.86,8.98-9.31,11.05c-0.9,1.3-0.44,1.8,0.62,2.57
	c0.93,0.68,1.23,0.8,2.1-0.04c0.79-0.77,10.09-10.09,10.09-10.09s9.32-9.3,10.09-10.09c0.84-0.87,0.71-1.17,0.04-2.1
	C44.63,22.02,44.13,21.57,42.83,22.47z"/>
<path class="st1" d="M39.47,16.23c-3.4,1.09-9.74,3.74-12.9,5.43c-0.58,0.31-1.07-0.13-0.84-0.77c1.57-4.27,2.89-8.34,4.35-13.26
	c0.27-0.9,1.74-0.6,1.75,0.38c0.02,2.62-0.6,5.72-1.05,7.98c2.36-0.74,5.91-1.45,8.57-1.56C40.4,14.4,40.31,15.96,39.47,16.23z"/>
<path class="st1" d="M14.44,39.35c0.11-2.66,0.82-6.21,1.56-8.57c-2.27,0.44-5.36,1.07-7.98,1.05c-0.98-0.01-1.28-1.48-0.38-1.75
	c4.91-1.46,8.99-2.78,13.26-4.35c0.64-0.23,1.08,0.26,0.77,0.84c-1.69,3.16-4.34,9.5-5.43,12.9C15.96,40.31,14.4,40.4,14.44,39.35z"
	/>
<radialGradient id="SVGID_3_" cx="103.6193" cy="-1123.9703" r="7.8205" fx="106.4026" fy="-1120.005" gradientTransform="matrix(0.5452 -0.8368 1.314 0.8528 1471.2792 1062.6793)" gradientUnits="userSpaceOnUse">
	<stop  offset="0.0551" style="stop-color:#73EFFF"/>
	<stop  offset="0.2848" style="stop-color:#70EDFF"/>
	<stop  offset="0.4461" style="stop-color:#67E5FF"/>
	<stop  offset="0.5866" style="stop-color:#57D8FF"/>
	<stop  offset="0.7151" style="stop-color:#42C7FF"/>
	<stop  offset="0.8354" style="stop-color:#25AFFF"/>
	<stop  offset="0.9482" style="stop-color:#0393FF"/>
	<stop  offset="0.9564" style="stop-color:#0091FF"/>
</radialGradient>
<path class="st4" d="M55.89,13.86c-5.14-1.8-12.65,1.26-13.23,1.87c-0.23,0.24-0.22,0.51,0.33,0.72c3.2,1.2,4.78,2.54,7.38,6.55
	C57.52,34.03,69.28,18.56,55.89,13.86z"/>
<linearGradient id="SVGID_4_" gradientUnits="userSpaceOnUse" x1="288.4463" y1="24.0488" x2="288.4463" y2="15.6245" gradientTransform="matrix(1.1792 -0.1161 0.0979 0.9953 -291.2837 32.1412)">
	<stop  offset="0.0528" style="stop-color:#C4EEFF;stop-opacity:0"/>
	<stop  offset="0.4504" style="stop-color:#CDF0FF;stop-opacity:0.4197"/>
	<stop  offset="1" style="stop-color:#D4F2FF"/>
</linearGradient>
<path class="st5" d="M53.92,14.53c-3.89-1.08-9.66,0.79-10.12,1.17c-0.18,0.15-0.18,0.33,0.23,0.47c2.4,0.78,3.92,1.63,5.64,4.07
	C54.18,26.59,62.43,16.91,53.92,14.53z"/>
<radialGradient id="SVGID_5_" cx="211.5341" cy="-1106.4579" r="7.8205" fx="214.3174" fy="-1102.4926" gradientTransform="matrix(-0.8368 0.5452 0.8528 1.314 1138.0447 1389.4352)" gradientUnits="userSpaceOnUse">
	<stop  offset="0.0551" style="stop-color:#73EFFF"/>
	<stop  offset="0.2848" style="stop-color:#70EDFF"/>
	<stop  offset="0.4461" style="stop-color:#67E5FF"/>
	<stop  offset="0.5866" style="stop-color:#57D8FF"/>
	<stop  offset="0.7151" style="stop-color:#42C7FF"/>
	<stop  offset="0.8354" style="stop-color:#25AFFF"/>
	<stop  offset="0.9482" style="stop-color:#0393FF"/>
	<stop  offset="0.9564" style="stop-color:#0091FF"/>
</radialGradient>
<path class="st6" d="M13.86,55.89c-1.8-5.14,1.26-12.65,1.87-13.23c0.24-0.23,0.51-0.22,0.72,0.33c1.2,3.2,2.54,4.78,6.55,7.38
	C34.03,57.52,18.56,69.28,13.86,55.89z"/>
<linearGradient id="SVGID_6_" gradientUnits="userSpaceOnUse" x1="359.4046" y1="-44.9542" x2="359.4046" y2="-53.3785" gradientTransform="matrix(-0.1161 1.1792 0.9953 0.0979 109.0555 -368.198)">
	<stop  offset="0.0528" style="stop-color:#C4EEFF;stop-opacity:0"/>
	<stop  offset="0.4504" style="stop-color:#CDF0FF;stop-opacity:0.4197"/>
	<stop  offset="1" style="stop-color:#D4F2FF"/>
</linearGradient>
<path class="st7" d="M14.53,53.92c-1.08-3.89,0.79-9.66,1.17-10.12c0.15-0.18,0.33-0.18,0.47,0.23c0.78,2.4,1.63,3.92,4.07,5.64
	C26.59,54.18,16.91,62.43,14.53,53.92z"/>
</svg>
