<?xml version="1.0" encoding="utf-8"?>
<!-- Generator: Adobe Illustrator 15.0.0, SVG Export Plug-In . SVG Version: 6.00 Build 0)  -->
<!DOCTYPE svg PUBLIC "-//W3C//DTD SVG 1.1//EN" "http://www.w3.org/Graphics/SVG/1.1/DTD/svg11.dtd" [
	<!ENTITY ns_flows "http://ns.adobe.com/Flows/1.0/">
	<!ENTITY ns_extend "http://ns.adobe.com/Extensibility/1.0/">
	<!ENTITY ns_ai "http://ns.adobe.com/AdobeIllustrator/10.0/">
	<!ENTITY ns_graphs "http://ns.adobe.com/Graphs/1.0/">
]>
<svg version="1.1" id="Layer_1" xmlns:x="&ns_extend;" xmlns:i="&ns_ai;" xmlns:graph="&ns_graphs;"
	 xmlns="http://www.w3.org/2000/svg" xmlns:xlink="http://www.w3.org/1999/xlink" xmlns:a="http://ns.adobe.com/AdobeSVGViewerExtensions/3.0/"
	 x="0px" y="0px" width="64px" height="64px" viewBox="0 0 64 64" enable-background="new 0 0 64 64" xml:space="preserve">
<path fill="#302C3B" d="M11.432,52.718c2.502-1.288,12.235-4.708,12.235-4.708l16.666-0.029c0,0,9.806,3.441,12.292,4.734
	C56.24,54.587,57,57.144,57,59.56c0,1.231-7.172,1.997-16.082,2.296l-17.827,0.001C14.176,61.559,7,60.793,7,59.56
	C7,57.14,7.807,54.583,11.432,52.718z"/>
<polygon fill="#E6EBEF" points="24.271,47.783 39.729,47.783 38.441,62 25.479,62 "/>
<rect x="23.667" y="41.912" fill="#F5BB51" width="16.666" height="10.205"/>
<path fill="#FFFFFF" d="M40.333,46.91l1.382,1.131c0,0-0.933,2.947-2.32,10.191L32,52.117C32,52.117,37.959,52.229,40.333,46.91z"/>
<path fill="#FFFFFF" d="M23.667,46.91l-1.38,1.131c0,0,0.931,2.947,2.318,10.191L32,52.117C32,52.117,26.041,52.229,23.667,46.91z"
	/>
<path fill="#4E5E67" d="M40.928,61.855c0,0,2.931-3.32,4.738-7.602l-2.3-2.375l3.66-0.688c0,0-2.439-2.057-5.312-3.15
	c0,0-2.029,6.414-5.31,13.959L40.928,61.855z"/>
<path fill="#4E5E67" d="M23.076,61.856c0,0-2.931-3.321-4.739-7.603l2.301-2.375l-3.66-0.688c0,0,2.439-2.057,5.31-3.15
	c0,0,2.03,6.414,5.312,13.959L23.076,61.856z"/>
<path fill="#302C3B" d="M33,58.797c0,1.334-2,1.334-2,0C31,57.465,33,57.465,33,58.797z"/>
<radialGradient id="SVGID_1_" cx="808.3691" cy="-131.2109" r="20.7901" fx="791.7344" fy="-123.6675" gradientTransform="matrix(-0.8901 -1.000000e-004 -5.047310e-005 -0.5047 740.8373 -7.257)" gradientUnits="userSpaceOnUse">
	<stop  offset="0.2606" style="stop-color:#404754"/>
	<stop  offset="0.3636" style="stop-color:#302C3B"/>
	<stop  offset="0.503" style="stop-color:#404754"/>
	<a:midPointStop  offset="0.2606" style="stop-color:#404754"/>
	<a:midPointStop  offset="0.5" style="stop-color:#404754"/>
	<a:midPointStop  offset="0.3636" style="stop-color:#302C3B"/>
	<a:midPointStop  offset="0.5" style="stop-color:#302C3B"/>
	<a:midPointStop  offset="0.503" style="stop-color:#404754"/>
</radialGradient>
<path fill="url(#SVGID_1_)" d="M31.555,52.813c-0.926,2.824-5.699,3.59-5.981,3.174c-0.572-0.848-1.103-4.271-0.011-6.162
	C25.731,49.533,30.849,49.6,31.555,52.813z"/>
<radialGradient id="SVGID_2_" cx="-110.0962" cy="-130.8569" r="20.7933" fx="-126.7335" fy="-123.3123" gradientTransform="matrix(0.8901 -3.000000e-004 1.514193e-004 -0.5047 140.7014 -7.194)" gradientUnits="userSpaceOnUse">
	<stop  offset="0.2606" style="stop-color:#404754"/>
	<stop  offset="0.3636" style="stop-color:#302C3B"/>
	<stop  offset="0.503" style="stop-color:#404754"/>
	<a:midPointStop  offset="0.2606" style="stop-color:#404754"/>
	<a:midPointStop  offset="0.5" style="stop-color:#404754"/>
	<a:midPointStop  offset="0.3636" style="stop-color:#302C3B"/>
	<a:midPointStop  offset="0.5" style="stop-color:#302C3B"/>
	<a:midPointStop  offset="0.503" style="stop-color:#404754"/>
</radialGradient>
<path fill="url(#SVGID_2_)" d="M32.443,52.813c0.926,2.824,5.7,3.59,5.982,3.172c0.572-0.848,1.104-4.271,0.012-6.162
	C38.269,49.531,33.152,49.598,32.443,52.813z"/>
<linearGradient id="SVGID_3_" gradientUnits="userSpaceOnUse" x1="70.0361" y1="54.6133" x2="70.0361" y2="51.3008" gradientTransform="matrix(1.1359 -2.000000e-004 -2.000000e-004 1 -47.5442 -0.1381)">
	<stop  offset="0.097" style="stop-color:#302C3B"/>
	<stop  offset="0.5515" style="stop-color:#404754"/>
	<a:midPointStop  offset="0.097" style="stop-color:#302C3B"/>
	<a:midPointStop  offset="0.5" style="stop-color:#302C3B"/>
	<a:midPointStop  offset="0.5515" style="stop-color:#404754"/>
</linearGradient>
<path fill="url(#SVGID_3_)" d="M32.003,54.375c-1.28,0.002-1.596,0.637-1.601-1.568c-0.002-2.205,0.316-1.57,1.597-1.572
	c1.28,0,1.596-0.639,1.599,1.568C33.602,55.006,33.283,54.375,32.003,54.375z"/>
<path fill="#302C3B" d="M33,58.797c0,1.334-2,1.334-2,0C31,57.465,33,57.465,33,58.797z"/>
<radialGradient id="SVGID_4_" cx="685.5459" cy="-131.1987" r="20.7893" fx="668.9117" fy="-123.6556" gradientTransform="matrix(-0.9613 -1.000000e-004 -5.047310e-005 -0.5047 679.4696 -7.263)" gradientUnits="userSpaceOnUse">
	<stop  offset="0.2606" style="stop-color:#404754"/>
	<stop  offset="0.3636" style="stop-color:#302C3B"/>
	<stop  offset="0.503" style="stop-color:#404754"/>
	<a:midPointStop  offset="0.2606" style="stop-color:#404754"/>
	<a:midPointStop  offset="0.5" style="stop-color:#404754"/>
	<a:midPointStop  offset="0.3636" style="stop-color:#302C3B"/>
	<a:midPointStop  offset="0.5" style="stop-color:#302C3B"/>
	<a:midPointStop  offset="0.503" style="stop-color:#404754"/>
</radialGradient>
<path fill="url(#SVGID_4_)" d="M31.52,52.813c-1,2.824-6.154,3.59-6.459,3.174c-0.619-0.848-1.191-4.271-0.012-6.162
	C25.23,49.533,30.758,49.6,31.52,52.813z"/>
<radialGradient id="SVGID_5_" cx="13.1372" cy="-130.894" r="20.7941" fx="-3.5008" fy="-123.3491" gradientTransform="matrix(0.9613 -3.000000e-004 1.514193e-004 -0.5047 30.9324 -7.1756)" gradientUnits="userSpaceOnUse">
	<stop  offset="0.2606" style="stop-color:#404754"/>
	<stop  offset="0.3636" style="stop-color:#302C3B"/>
	<stop  offset="0.503" style="stop-color:#404754"/>
	<a:midPointStop  offset="0.2606" style="stop-color:#404754"/>
	<a:midPointStop  offset="0.5" style="stop-color:#404754"/>
	<a:midPointStop  offset="0.3636" style="stop-color:#302C3B"/>
	<a:midPointStop  offset="0.5" style="stop-color:#302C3B"/>
	<a:midPointStop  offset="0.503" style="stop-color:#404754"/>
</radialGradient>
<path fill="url(#SVGID_5_)" d="M32.479,52.813c1,2.824,6.156,3.59,6.461,3.172c0.619-0.848,1.193-4.271,0.014-6.162
	C38.771,49.531,33.244,49.598,32.479,52.813z"/>
<linearGradient id="SVGID_6_" gradientUnits="userSpaceOnUse" x1="70.0371" y1="54.6133" x2="70.0371" y2="51.3008" gradientTransform="matrix(1.1359 -2.000000e-004 -2.000000e-004 1 -47.5442 -0.1381)">
	<stop  offset="0.097" style="stop-color:#302C3B"/>
	<stop  offset="0.5515" style="stop-color:#404754"/>
	<a:midPointStop  offset="0.097" style="stop-color:#302C3B"/>
	<a:midPointStop  offset="0.5" style="stop-color:#302C3B"/>
	<a:midPointStop  offset="0.5515" style="stop-color:#404754"/>
</linearGradient>
<path fill="url(#SVGID_6_)" d="M32.004,54.375c-1.383,0.002-1.725,0.637-1.729-1.568c-0.002-2.205,0.342-1.57,1.725-1.572
	c1.383,0,1.723-0.639,1.727,1.568C33.73,55.006,33.387,54.375,32.004,54.375z"/>
<path fill="#473834" d="M47.148,38.785c1.08,0.715,2.326,1.248,3.781,1.521c-2.582-5.888,1.312-18.237-6.669-27.311
	c-11.25,0.338-12.806,36.722,2.876,31.883c-0.998-0.433-1.624-1.315-1.991-2.43c1.209,0.347,2.621,0.358,4.268-0.148
	C48.104,41.734,47.437,40.398,47.148,38.785z"/>
<path fill="#473834" d="M18.91,12.995c-7.979,9.074-3.327,21.423-5.91,27.311c1.454-0.272,2.701-0.806,3.781-1.521
	c-0.287,1.613-0.955,2.949-2.264,3.515c1.645,0.507,3.057,0.495,4.266,0.148c-0.367,1.114-0.991,1.997-1.99,2.43
	C32.474,49.717,30.16,13.333,18.91,12.995z"/>
<path id="Path_225_" fill="#FFC940" d="M48.377,25.392c-2.541,0.308-4.375,8.815-2.778,11.062c0.225,0.314,1.534,0.814,2.505-1.167
	c0.537-1.099,2.089-2.014,2.568-4.278C51.288,28.109,50.905,25.085,48.377,25.392z"/>
<path id="Path_168_" fill="#FFC940" d="M15.555,25.392c2.541,0.308,4.375,8.815,2.776,11.062c-0.224,0.314-1.533,0.814-2.504-1.167
	c-0.538-1.099-2.089-2.014-2.569-4.278C12.642,28.109,13.027,25.085,15.555,25.392z"/>
<path id="Path_167_" fill="#F0A429" d="M48.308,27.023c-0.662,0.209-1.386,1.219-1.778,2.896c2.317-0.498,1.738,3.362-0.275,3.434
	c0.018,0.389,0.045,0.789,0.092,1.209c0.971-1.41,1.956-0.844,2.933-2.94C50.158,29.731,49.949,26.507,48.308,27.023z"/>
<path id="Path_166_" fill="#F0A429" d="M17.4,29.915c-0.393-1.674-1.114-2.685-1.776-2.892c-1.642-0.516-1.852,2.708-0.972,4.599
	c0.977,2.097,1.962,1.53,2.934,2.94c0.048-0.422,0.074-0.822,0.091-1.21C15.684,33.258,15.113,29.445,17.4,29.915z"/>
<path fill="#FFC940" d="M31.965,9.034c-11.008,0-16.311,8.965-15.648,20.493c0.136,2.317,0.78,5.661,1.576,8.526
	C19.543,44.006,28.255,50,31.965,50c3.709,0,12.421-5.994,14.073-11.947c0.795-2.865,1.439-6.209,1.576-8.526
	C48.275,18,42.976,9.034,31.965,9.034z"/>
<path id="Path_165_" fill="#966F42" d="M43.925,24.542c-2.518-1.333-7.336-1.398-9.13-0.47c-0.385,0.18-0.13,1.443,0.192,1.323
	c2.501-0.99,6.536-1.012,8.877,0.084C44.177,25.623,44.307,24.728,43.925,24.542z"/>
<path id="Path_156_" fill="#966F42" d="M20.006,24.542c2.517-1.333,7.332-1.398,9.129-0.47c0.384,0.18,0.131,1.443-0.192,1.323
	c-2.505-0.99-6.534-1.012-8.878,0.084C19.754,25.623,19.625,24.728,20.006,24.542z"/>
<path id="Path_155_" fill="#F0A429" d="M34.936,36.108c-0.313-0.22-1.052,0.118-2.971,0.118c-1.917,0-2.655-0.338-2.971-0.118
	c-0.376,0.265,0.224,1.462,2.971,1.462C34.714,37.57,35.313,36.373,34.936,36.108z"/>
<path id="Path_154_" fill="#F0A429" d="M31.965,40.645c-2.476-0.727-6.144,0.346-6.144,0.346c1.396,1.523,2.421,3.496,6.144,3.496
	c4.266,0,4.992-2.241,6.146-3.496C38.111,40.99,34.439,39.913,31.965,40.645z"/>
<path id="Path_136_" fill="#FFFFFF" d="M26.742,41.248c2.596,2.178,7.837,2.193,10.447,0C34.423,41.367,29.528,41.368,26.742,41.248
	z"/>
<path id="Path_135_" fill="#FFFFFF" d="M29.516,29.085c0.094,0.729-0.401,1.593-1.771,2.241c-0.869,0.411-2.679,0.896-5.057-0.107
	c-1.065-0.449-2.104-1.849-2.011-2.623C21.967,26.167,28.31,25.811,29.516,29.085z"/>
<linearGradient id="Oval_1_" gradientUnits="userSpaceOnUse" x1="-424.5854" y1="477.4658" x2="-424.5854" y2="478.2246" gradientTransform="matrix(6.5701 0 0 -6.5701 2814.7805 3168.5281)">
	<stop  offset="0" style="stop-color:#A6694A"/>
	<stop  offset="1" style="stop-color:#4F2A1E"/>
	<a:midPointStop  offset="0" style="stop-color:#A6694A"/>
	<a:midPointStop  offset="0.5" style="stop-color:#A6694A"/>
	<a:midPointStop  offset="1" style="stop-color:#4F2A1E"/>
</linearGradient>
<circle id="Oval_22_" fill="url(#Oval_1_)" cx="25.212" cy="29.036" r="2.492"/>
<path id="Path_134_" fill="#1A1626" d="M23.967,28.99c0,1.725,2.492,1.725,2.492,0C26.459,27.39,23.967,27.39,23.967,28.99z"/>
<path id="Path_133_" fill="#AB968C" d="M23.588,28.292c0,0.723,1.045,0.723,1.045,0C24.633,27.623,23.588,27.623,23.588,28.292z"/>
<path id="Path_132_" fill="#F0A429" d="M29.528,29.182c-1.013-3.252-7.911-2.772-8.851-0.585
	C21.026,25.796,28.665,25.057,29.528,29.182z"/>
<path id="Path_131_" fill="#FFFFFF" d="M34.414,29.085c-0.093,0.729,0.401,1.593,1.771,2.241c0.87,0.411,2.679,0.896,5.057-0.107
	c1.067-0.449,2.104-1.849,2.011-2.623C41.965,26.167,35.62,25.811,34.414,29.085z"/>
<linearGradient id="Oval_2_" gradientUnits="userSpaceOnUse" x1="-425.2368" y1="477.4658" x2="-425.2368" y2="478.2246" gradientTransform="matrix(6.5701 0 0 -6.5701 2832.511 3168.5281)">
	<stop  offset="0" style="stop-color:#A6694A"/>
	<stop  offset="1" style="stop-color:#4F2A1E"/>
	<a:midPointStop  offset="0" style="stop-color:#A6694A"/>
	<a:midPointStop  offset="0.5" style="stop-color:#A6694A"/>
	<a:midPointStop  offset="1" style="stop-color:#4F2A1E"/>
</linearGradient>
<circle id="Oval_18_" fill="url(#Oval_2_)" cx="38.662" cy="29.036" r="2.492"/>
<path id="Path_130_" fill="#1A1626" d="M37.418,28.99c0,1.725,2.491,1.725,2.491,0C39.909,27.39,37.418,27.39,37.418,28.99z"/>
<path id="Path_129_" fill="#AB968C" d="M37.038,28.292c0,0.723,1.045,0.723,1.045,0C38.083,27.623,37.038,27.623,37.038,28.292z"/>
<path id="Path_128_" fill="#F0A429" d="M34.404,29.182c1.01-3.251,7.904-2.786,8.848-0.585
	C42.902,25.796,35.265,25.057,34.404,29.182z"/>
<linearGradient id="SVGID_7_" gradientUnits="userSpaceOnUse" x1="31.8022" y1="31.8174" x2="31.8022" y2="6">
	<stop  offset="0" style="stop-color:#473834"/>
	<stop  offset="0.2717" style="stop-color:#594640"/>
	<stop  offset="0.7226" style="stop-color:#715950"/>
	<stop  offset="1" style="stop-color:#7A6056"/>
	<a:midPointStop  offset="0" style="stop-color:#473834"/>
	<a:midPointStop  offset="0.4" style="stop-color:#473834"/>
	<a:midPointStop  offset="1" style="stop-color:#7A6056"/>
</linearGradient>
<path fill="url(#SVGID_7_)" d="M31.967,6c-6.698,0-10.046,3.034-10.725,4.473c-8.099,1.852-10.701,15.516-4.64,21.344
	c0.752-6.211,1.477-10.201,5.606-14.404c2.407,3.227,7.409,5.042,11.889,5.042c-2.121-1.541-3.566-3.051-4.702-4.458
	c7.479,3.433,15.855,5.63,17.935,13.821C54.527,20.358,48.549,6,31.967,6z"/>
<path fill="#473834" d="M21.224,10.472c-0.08,4.427,2.185,9.995,12.88,11.982C26.452,22.971,18.603,18.348,21.224,10.472z"/>
<path fill="#473834" d="M21.718,16.613c-2.787,2.746-5.736,7.938-5.144,15.205c0.554-6.005,3.313-10.949,5.811-14.152
	C22.209,17.472,21.867,16.831,21.718,16.613z"/>
<path fill="#473834" d="M26.671,15.235c5.765,5.504,19.175,3.535,20.688,16.583C43.771,20.545,31.612,23.074,26.671,15.235z"/>
</svg>
