<?xml version="1.0" encoding="utf-8"?>
<!-- Generator: Adobe Illustrator 15.0.0, SVG Export Plug-In . SVG Version: 6.00 Build 0)  -->
<!DOCTYPE svg PUBLIC "-//W3C//DTD SVG 1.1//EN" "http://www.w3.org/Graphics/SVG/1.1/DTD/svg11.dtd" [
	<!ENTITY ns_flows "http://ns.adobe.com/Flows/1.0/">
	<!ENTITY ns_extend "http://ns.adobe.com/Extensibility/1.0/">
	<!ENTITY ns_ai "http://ns.adobe.com/AdobeIllustrator/10.0/">
	<!ENTITY ns_graphs "http://ns.adobe.com/Graphs/1.0/">
]>
<svg version="1.1" id="Layer_1" xmlns:x="&ns_extend;" xmlns:i="&ns_ai;" xmlns:graph="&ns_graphs;"
	 xmlns="http://www.w3.org/2000/svg" xmlns:xlink="http://www.w3.org/1999/xlink" xmlns:a="http://ns.adobe.com/AdobeSVGViewerExtensions/3.0/"
	 x="0px" y="0px" width="64px" height="64px" viewBox="0 0 64 64" enable-background="new 0 0 64 64" xml:space="preserve">
<path fill="#6B4435" d="M38.547,37.568c10.143-6.283,7.225-16.45,7.225-16.45l-30.552,5.384c0,0,0.738,10.55,12.418,12.988
	c0,0,2.279,0.162,5.552-0.416C36.463,38.498,38.547,37.568,38.547,37.568z"/>
<linearGradient id="SVGID_1_" gradientUnits="userSpaceOnUse" x1="-19.7729" y1="-109.7705" x2="-19.773" y2="-142.8995" gradientTransform="matrix(0.9848 -0.1736 0.1736 0.9848 82.6266 141.819)">
	<stop  offset="0.05" style="stop-color:#6B4435"/>
	<stop  offset="0.088" style="stop-color:#6E4637"/>
	<stop  offset="0.467" style="stop-color:#865947"/>
	<stop  offset="0.7" style="stop-color:#8F604D"/>
	<a:midPointStop  offset="0.05" style="stop-color:#6B4435"/>
	<a:midPointStop  offset="0.4" style="stop-color:#6B4435"/>
	<a:midPointStop  offset="0.7" style="stop-color:#8F604D"/>
</linearGradient>
<path fill="url(#SVGID_1_)" d="M41.721,22.972c1.947,4.498,2.178,9.252-3.174,14.596c6.355-2.242,9.631-9.19,8.793-13.93
	L41.721,22.972z"/>
<linearGradient id="SVGID_2_" gradientUnits="userSpaceOnUse" x1="1823.0342" y1="-108.9365" x2="1823.0342" y2="-142.0655" gradientTransform="matrix(-0.9848 0.1736 0.1736 0.9848 1836.5131 -168.2025)">
	<stop  offset="0.05" style="stop-color:#6B4435"/>
	<stop  offset="0.088" style="stop-color:#6E4637"/>
	<stop  offset="0.467" style="stop-color:#865947"/>
	<stop  offset="0.7" style="stop-color:#8F604D"/>
	<a:midPointStop  offset="0.05" style="stop-color:#6B4435"/>
	<a:midPointStop  offset="0.4" style="stop-color:#6B4435"/>
	<a:midPointStop  offset="0.7" style="stop-color:#8F604D"/>
</linearGradient>
<path fill="url(#SVGID_2_)" d="M19.661,26.86c-0.287,4.893,1.121,9.437,7.979,12.63c-6.74,0.064-12.195-5.346-13.031-10.085
	L19.661,26.86z"/>
<rect x="7.612" y="28.401" fill="#A3765A" width="4.891" height="2.131"/>
<path fill="#A3765A" d="M58.736,23.307c0.938-1.532-0.471-2.508-2.693,0.176c-1.717,2.07-7.514,5.79-3.326,6.727
	c2.982,0.668,10.254-4.383,11.162-9.465C64.705,16.127,61.1,22.312,58.736,23.307z"/>
<path fill="#A3765A" d="M5.262,23.307c-0.938-1.532,0.471-2.508,2.691,0.176c1.717,2.07,7.516,5.79,3.328,6.727
	c-2.982,0.668-10.254-4.383-11.16-9.465C-0.707,16.127,2.897,22.312,5.262,23.307z"/>
<rect x="51.881" y="28.401" fill="#A3765A" width="4.889" height="2.131"/>
<path fill="#8E3ED6" d="M57.348,30.12h-6.09l0.219,13.132c0,0-2.051-3.752-5.363-6.293c-5.061-3.883-8.887-0.795-13.921-0.795
	c-5.035,0-8.863-3.088-13.924,0.795c-3.314,2.541-5.363,6.293-5.363,6.293l0.221-13.132H7.034c0,0-0.783,15.755-0.488,21
	c0.275,4.844,4.178,6.682,12.223-3.383c0.889,7.057,1.021,7.703,1.021,11.281c0,3.977,24.802,3.977,24.802,0
	c0-3.578,0.133-4.225,1.021-11.281c8.045,10.064,11.947,8.227,12.225,3.383C58.133,45.875,57.348,30.12,57.348,30.12z"/>
<polygon fill="#732EB0" points="14.833,40.418 12.917,42.49 12.809,47.244 "/>
<polygon fill="#732EB0" points="49.549,40.418 51.467,42.49 51.574,47.244 "/>
<path fill="#732EB0" d="M25.424,35.334c0,5.928,13.15,5.904,13.15-0.023C38.574,33.971,25.424,33.994,25.424,35.334z"/>
<path fill="#A3765A" d="M26.52,34.975c0,4.643,10.958,4.643,10.958,0c0-1.578,0-5.135,0-5.135H26.52
	C26.52,29.839,26.522,33.396,26.52,34.975z"/>
<path fill="#B88A6F" d="M27.706,8.003c-7.916,1.394-10.594,8.509-8.654,16.708c0.391,1.646,1.279,3.969,2.213,5.925
	c1.943,4.069,8.969,7.274,11.637,6.803c2.667-0.471,8.171-5.882,8.605-10.369c0.211-2.159,0.25-4.644,0.053-6.325
	C40.574,12.379,35.625,6.608,27.706,8.003z"/>
<path fill="#78513A" d="M38.23,18.492c-1.9-0.723-5.008-0.305-6.105,0.608c-0.234,0.188-0.035,0.913,0.174,0.783
	c1.613-1.033,4.259-1.534,6.042-0.984C38.58,18.969,38.52,18.593,38.23,18.492z"/>
<path fill="#78513A" d="M21.405,21.456c1.539-1.327,4.602-1.998,5.949-1.515c0.281,0.096,0.344,0.848,0.104,0.795
	c-1.869-0.418-4.527,0.012-6.016,1.14C21.243,22.024,21.172,21.649,21.405,21.456z"/>
<path fill="#8C5F44" d="M33.029,27.773c-0.212-0.1-0.619,0.182-1.767,0.385c-1.15,0.203-1.627,0.076-1.791,0.242
	c-0.199,0.198,0.285,0.851,1.934,0.562C33.051,28.67,33.283,27.892,33.029,27.773z"/>
<path id="Path_1644_" fill="#FFFFFF" d="M28.606,23.392c0.158,0.509-0.088,1.194-0.99,1.832c-0.572,0.406-1.813,0.983-3.648,0.564
	c-0.824-0.188-1.748-1.062-1.779-1.63C22.805,22.25,27.323,21.191,28.606,23.392z"/>
<linearGradient id="Oval_1_" gradientUnits="userSpaceOnUse" x1="-433.9507" y1="501.0986" x2="-433.9507" y2="501.6523" gradientTransform="matrix(6.4703 -1.1409 -1.1409 -6.4703 3405.3145 2772.8621)">
	<stop  offset="0" style="stop-color:#A6694A"/>
	<stop  offset="1" style="stop-color:#4F2A1E"/>
	<a:midPointStop  offset="0" style="stop-color:#A6694A"/>
	<a:midPointStop  offset="0.5" style="stop-color:#A6694A"/>
	<a:midPointStop  offset="1" style="stop-color:#4F2A1E"/>
</linearGradient>
<circle id="Oval_222_" fill="url(#Oval_1_)" cx="25.503" cy="23.901" r="1.817"/>
<path id="Path_1643_" fill="#1A1626" d="M24.602,24.026c0.219,1.237,2.014,0.921,1.795-0.316
	C26.194,22.56,24.399,22.876,24.602,24.026z"/>
<path id="Path_1642_" fill="#AB968C" d="M24.243,23.572c0.092,0.521,0.844,0.388,0.752-0.133
	C24.909,22.958,24.157,23.091,24.243,23.572z"/>
<path id="Path_1641_" fill="#45332C" d="M28.627,23.458c-1.143-2.21-6.041-0.99-6.439,0.7
	C22.083,22.104,27.483,20.603,28.627,23.458z"/>
<path id="Path_1640_" fill="#FFFFFF" d="M32.129,22.771c0.023,0.533,0.49,1.091,1.556,1.384c0.678,0.186,2.041,0.305,3.623-0.718
	c0.711-0.457,1.279-1.595,1.115-2.14C37.188,19.715,32.581,20.263,32.129,22.771z"/>
<linearGradient id="Oval_2_" gradientUnits="userSpaceOnUse" x1="-435.1543" y1="501.0986" x2="-435.1543" y2="501.6523" gradientTransform="matrix(6.4703 -1.1409 -1.1409 -6.4703 3422.7754 2769.7839)">
	<stop  offset="0" style="stop-color:#A6694A"/>
	<stop  offset="1" style="stop-color:#4F2A1E"/>
	<a:midPointStop  offset="0" style="stop-color:#A6694A"/>
	<a:midPointStop  offset="0.5" style="stop-color:#A6694A"/>
	<a:midPointStop  offset="1" style="stop-color:#4F2A1E"/>
</linearGradient>
<circle id="Oval_221_" fill="url(#Oval_2_)" cx="35.177" cy="22.196" r="1.818"/>
<path id="Path_1639_" fill="#1A1626" d="M34.273,22.323c0.219,1.237,2.014,0.921,1.795-0.316
	C35.865,20.857,34.072,21.173,34.273,22.323z"/>
<path id="Path_1638_" fill="#AB968C" d="M33.914,21.868c0.092,0.519,0.844,0.387,0.752-0.133
	C34.582,21.254,33.83,21.387,33.914,21.868z"/>
<path id="Path_1637_" fill="#45332C" d="M32.133,22.839c0.314-2.463,5.332-3.003,6.291-1.542
	C37.816,19.331,32.229,19.768,32.133,22.839z"/>
<linearGradient id="SVGID_3_" gradientUnits="userSpaceOnUse" x1="-30.8525" y1="-109.7725" x2="-30.8525" y2="-142.9003" gradientTransform="matrix(0.9848 -0.1736 0.1736 0.9848 82.6266 141.819)">
	<stop  offset="0.05" style="stop-color:#6B4435"/>
	<stop  offset="0.088" style="stop-color:#6E4637"/>
	<stop  offset="0.467" style="stop-color:#865947"/>
	<stop  offset="0.7" style="stop-color:#8F604D"/>
	<a:midPointStop  offset="0.05" style="stop-color:#6B4435"/>
	<a:midPointStop  offset="0.4" style="stop-color:#6B4435"/>
	<a:midPointStop  offset="0.7" style="stop-color:#8F604D"/>
</linearGradient>
<path fill="url(#SVGID_3_)" d="M36.82,7.59c0.678-1.45-7.46-2.824-14.369,0.288c-6.93,2.926-9.092,14.456-7.844,21.526
	c0.736,0.399,4.467-1.575,5.053-2.545c0.08-1.29,0.328-2.646,0.535-4.044c4.869-4.092,10.875-5.913,14.472-10.419
	c-0.256,1.732,2.996,3.284,5.168,6.959c0.703,1.192,1.357,2.395,1.885,3.616c1.4,0.896,3.895,0.995,5.619,0.666
	C46.285,17.658,39.566,6.246,36.82,7.59z"/>
<path fill="#6B4435" d="M15.717,28.101c3.824-7.527,20.085-9.928,21.103-20.511C32.883,17.016,15.956,21.471,15.717,28.101z"/>
<path fill="#854F34" d="M34.506,31.413c-1.666,0.268-4.033,0.416-5.953,0.26c-0.723-0.059-0.91,0.937-0.152,1.037
	c2.133,0.275,4.596,0.057,6.328-0.73C35.146,31.788,34.906,31.348,34.506,31.413z"/>
</svg>
