<?xml version="1.0" encoding="utf-8"?>
<!-- Generator: Adobe Illustrator 15.0.0, SVG Export Plug-In . SVG Version: 6.00 Build 0)  -->
<!DOCTYPE svg PUBLIC "-//W3C//DTD SVG 1.1//EN" "http://www.w3.org/Graphics/SVG/1.1/DTD/svg11.dtd" [
	<!ENTITY ns_flows "http://ns.adobe.com/Flows/1.0/">
	<!ENTITY ns_extend "http://ns.adobe.com/Extensibility/1.0/">
	<!ENTITY ns_ai "http://ns.adobe.com/AdobeIllustrator/10.0/">
	<!ENTITY ns_graphs "http://ns.adobe.com/Graphs/1.0/">
]>
<svg version="1.1" id="Layer_1" xmlns:x="&ns_extend;" xmlns:i="&ns_ai;" xmlns:graph="&ns_graphs;"
	 xmlns="http://www.w3.org/2000/svg" xmlns:xlink="http://www.w3.org/1999/xlink" xmlns:a="http://ns.adobe.com/AdobeSVGViewerExtensions/3.0/"
	 x="0px" y="0px" width="64px" height="64px" viewBox="0 0 64 64" enable-background="new 0 0 64 64" xml:space="preserve">
<path fill="#018BC9" d="M9.786,52.718c2.702-1.288,11.954-4.123,11.954-4.123h20.494c0,0,9.355,2.827,12.041,4.12
	C58.18,54.587,59,57.144,59,59.56c0,3.254-54,3.254-54,0C5,57.14,5.871,54.583,9.786,52.718z"/>
<path fill="#D9AA32" d="M5.758,52.778l12.023-2.947c0,0,0,4.559,0,7.098c0,1.601-12.023,3.755-12.023,2.155
	C5.758,55.571,5.758,52.778,5.758,52.778z"/>
<path fill="#BD8A0B" d="M7.107,52.69c0,0,0.605,6.942,0,6.942C6.494,59.633,7.107,52.69,7.107,52.69z"/>
<path fill="#BD8A0B" d="M8.701,52.192c0,0,0.605,7.413,0,7.413C8.088,59.605,8.701,52.192,8.701,52.192z"/>
<path fill="#BD8A0B" d="M7.873,52.245c0,0,0.218,5.814-0.014,5.295C7.595,56.945,7.873,52.245,7.873,52.245z"/>
<path fill="#BD8A0B" d="M6.264,54.011c0,0,0.224,4.784-0.008,4.262C5.991,57.679,6.264,54.011,6.264,54.011z"/>
<path fill="#BD8A0B" d="M9.639,52.69c0,0-0.591,5.186-0.822,4.666C8.552,56.762,9.639,52.69,9.639,52.69z"/>
<path fill="#BD8A0B" d="M11.029,50.978c0,0,0.4,5.968,0.169,5.448C10.934,55.831,11.029,50.978,11.029,50.978z"/>
<path fill="#BD8A0B" d="M12.919,51.521c0,0,0.108,5.991-0.123,5.472C12.531,56.398,12.919,51.521,12.919,51.521z"/>
<path fill="#BD8A0B" d="M14.164,50.265c0,0,0.666,7.346,0.361,6.859C13.629,55.688,14.164,50.265,14.164,50.265z"/>
<path fill="#BD8A0B" d="M15.845,50.358c0,0,0.304,6.363-0.087,5.57C15.311,55.023,15.845,50.358,15.845,50.358z"/>
<path fill="#BD8A0B" d="M17.262,50.044c0,0,0.407,6.463,0.176,5.943C17.173,55.393,17.262,50.044,17.262,50.044z"/>
<path fill="#BD8A0B" d="M10.295,51.667c0,0,0.605,7.771,0,7.771C9.682,59.438,10.295,51.667,10.295,51.667z"/>
<path fill="#BD8A0B" d="M11.889,51.14c0,0,0.605,8.046,0,8.046C11.275,59.186,11.889,51.14,11.889,51.14z"/>
<path fill="#BD8A0B" d="M13.482,50.599c0,0,0.605,8.258,0,8.258C12.869,58.856,13.482,50.599,13.482,50.599z"/>
<path fill="#BD8A0B" d="M15.076,50.093c0,0,0.605,8.344,0,8.344C14.463,58.437,15.076,50.093,15.076,50.093z"/>
<path fill="#BD8A0B" d="M16.67,49.483c0,0,0.605,8.377,0,8.377C16.057,57.86,16.67,49.483,16.67,49.483z"/>
<path fill="#EDBA37" d="M5.47,53.846c-1.054,0.349-0.15-2.011,0.891-2.052C7.063,51.767,7.491,53.285,5.47,53.846z"/>
<path fill="#D6A832" d="M7.746,51.626c-0.986-0.492,1.5-1.455,2.23-0.764C10.47,51.329,9.549,52.644,7.746,51.626z"/>
<path fill="#D6A832" d="M12.839,50.498c-0.986-0.491,1.5-1.454,2.23-0.764C15.563,50.202,14.642,51.517,12.839,50.498z"/>
<path fill="#D6A832" d="M17.903,49.354c-0.986-0.491,1.5-1.455,2.23-0.764C20.627,49.056,19.706,50.372,17.903,49.354z"/>
<path fill="#FFC42E" d="M5.47,53.846c0.952-0.755-0.22-2.278,1.781-2.257C6.594,52.186,7.606,53.658,5.47,53.846z"/>
<path fill="#EDBA37" d="M6.251,53.669c0.952-0.752-0.22-2.278,1.781-2.256C7.375,52.009,8.388,53.483,6.251,53.669z"/>
<path fill="#FFC42E" d="M7.032,53.495c0.952-0.756-0.22-2.279,1.781-2.259C8.156,51.833,9.169,53.308,7.032,53.495z"/>
<path fill="#EDBA37" d="M7.813,53.318c0.952-0.755-0.22-2.278,1.781-2.257C8.938,51.658,9.95,53.133,7.813,53.318z"/>
<path fill="#FFC42E" d="M8.595,53.144c0.952-0.754-0.22-2.28,1.781-2.258C9.719,51.481,10.731,52.956,8.595,53.144z"/>
<path fill="#EDBA37" d="M9.376,52.968c0.952-0.755-0.22-2.279,1.781-2.257C10.5,51.308,11.513,52.782,9.376,52.968z"/>
<path fill="#FFC42E" d="M10.157,52.791c0.952-0.753-0.22-2.278,1.781-2.257C11.281,51.131,12.294,52.605,10.157,52.791z"/>
<path fill="#EDBA37" d="M10.938,52.616c0.952-0.754-0.22-2.278,1.781-2.256C12.063,50.954,13.075,52.429,10.938,52.616z"/>
<path fill="#FFC42E" d="M11.72,52.44c0.952-0.754-0.22-2.279,1.781-2.257C12.844,50.78,13.856,52.255,11.72,52.44z"/>
<path fill="#EDBA37" d="M12.501,52.266c0.952-0.755-0.22-2.278,1.781-2.259C13.625,50.604,14.638,52.078,12.501,52.266z"/>
<path fill="#FFC42E" d="M13.282,52.089c0.952-0.754-0.22-2.278,1.781-2.256C14.406,50.429,15.419,51.903,13.282,52.089z"/>
<path fill="#EDBA37" d="M14.063,51.915c0.952-0.755-0.22-2.281,1.781-2.259C15.188,50.253,16.2,51.728,14.063,51.915z"/>
<path fill="#FFC42E" d="M14.845,51.738c0.952-0.755-0.22-2.278,1.781-2.257C15.969,50.078,16.981,51.553,14.845,51.738z"/>
<path fill="#EDBA37" d="M15.626,51.562c0.952-0.752-0.22-2.278,1.781-2.256C16.75,49.901,17.763,51.376,15.626,51.562z"/>
<path fill="#FFC42E" d="M16.407,51.388c0.952-0.755-0.22-2.279,1.781-2.257C17.531,49.726,18.544,51.2,16.407,51.388z"/>
<path fill="#EDBA37" d="M17.188,51.211c0.952-0.753-0.22-2.278,1.781-2.257C18.313,49.551,19.325,51.025,17.188,51.211z"/>
<path fill="#FFC42E" d="M17.97,51.036c0.952-0.754-0.22-2.278,1.781-2.258C19.094,49.374,20.106,50.849,17.97,51.036z"/>
<path fill="#EDBA37" d="M18.751,50.86c0.952-0.755-0.22-2.279,1.781-2.257C19.875,49.2,20.888,50.675,18.751,50.86z"/>
<path fill="#FFC42E" d="M19.532,50.686c0.952-0.755-0.22-2.28,1.781-2.259C20.656,49.023,21.669,50.498,19.532,50.686z"/>
<path fill="#EDBA37" d="M20.313,50.509c0.952-0.754-0.22-2.278,1.781-2.256C21.438,48.849,22.45,50.323,20.313,50.509z"/>
<path fill="#FFC42E" d="M21.095,50.333c0.952-0.753-0.22-2.279,1.781-2.257C22.219,48.673,23.231,50.147,21.095,50.333z"/>
<path fill="#D9AA32" d="M58.242,52.778l-12.023-2.947c0,0,0,4.559,0,7.098c0,1.601,12.023,3.755,12.023,2.155
	C58.242,55.571,58.242,52.778,58.242,52.778z"/>
<path fill="#BD8A0B" d="M56.893,52.69c0,0-0.605,6.942,0,6.942C57.506,59.633,56.893,52.69,56.893,52.69z"/>
<path fill="#BD8A0B" d="M55.299,52.192c0,0-0.605,7.413,0,7.413C55.912,59.605,55.299,52.192,55.299,52.192z"/>
<path fill="#BD8A0B" d="M56.127,52.245c0,0-0.218,5.814,0.014,5.295C56.405,56.945,56.127,52.245,56.127,52.245z"/>
<path fill="#BD8A0B" d="M57.736,54.011c0,0-0.224,4.784,0.008,4.262C58.009,57.679,57.736,54.011,57.736,54.011z"/>
<path fill="#BD8A0B" d="M54.361,52.69c0,0,0.591,5.186,0.822,4.666C55.448,56.762,54.361,52.69,54.361,52.69z"/>
<path fill="#BD8A0B" d="M52.971,50.978c0,0-0.4,5.968-0.169,5.448C53.066,55.831,52.971,50.978,52.971,50.978z"/>
<path fill="#BD8A0B" d="M51.081,51.521c0,0-0.108,5.991,0.123,5.472C51.469,56.398,51.081,51.521,51.081,51.521z"/>
<path fill="#BD8A0B" d="M49.836,50.265c0,0-0.666,7.346-0.361,6.859C50.371,55.688,49.836,50.265,49.836,50.265z"/>
<path fill="#BD8A0B" d="M48.155,50.358c0,0-0.304,6.363,0.087,5.57C48.689,55.023,48.155,50.358,48.155,50.358z"/>
<path fill="#BD8A0B" d="M46.738,50.044c0,0-0.407,6.463-0.176,5.943C46.827,55.393,46.738,50.044,46.738,50.044z"/>
<path fill="#BD8A0B" d="M53.705,51.667c0,0-0.605,7.771,0,7.771C54.318,59.438,53.705,51.667,53.705,51.667z"/>
<path fill="#BD8A0B" d="M52.111,51.14c0,0-0.605,8.046,0,8.046C52.725,59.186,52.111,51.14,52.111,51.14z"/>
<path fill="#BD8A0B" d="M50.518,50.599c0,0-0.605,8.258,0,8.258C51.131,58.856,50.518,50.599,50.518,50.599z"/>
<path fill="#BD8A0B" d="M48.924,50.093c0,0-0.605,8.344,0,8.344C49.537,58.437,48.924,50.093,48.924,50.093z"/>
<path fill="#BD8A0B" d="M47.33,49.483c0,0-0.605,8.377,0,8.377C47.943,57.86,47.33,49.483,47.33,49.483z"/>
<path fill="#EDBA37" d="M58.53,53.846c1.054,0.349,0.15-2.011-0.891-2.052C56.938,51.767,56.509,53.285,58.53,53.846z"/>
<path fill="#D6A832" d="M56.254,51.626c0.986-0.492-1.5-1.455-2.23-0.764C53.53,51.329,54.451,52.644,56.254,51.626z"/>
<path fill="#D6A832" d="M51.161,50.498c0.986-0.491-1.5-1.454-2.23-0.764C48.438,50.202,49.358,51.517,51.161,50.498z"/>
<path fill="#D6A832" d="M46.097,49.354c0.986-0.491-1.5-1.455-2.23-0.764C43.373,49.056,44.294,50.372,46.097,49.354z"/>
<path fill="#FFC42E" d="M58.53,53.846c-0.952-0.755,0.22-2.278-1.781-2.257C57.406,52.186,56.394,53.658,58.53,53.846z"/>
<path fill="#EDBA37" d="M57.749,53.669c-0.952-0.752,0.22-2.278-1.781-2.256C56.625,52.009,55.612,53.483,57.749,53.669z"/>
<path fill="#FFC42E" d="M56.968,53.495c-0.952-0.756,0.22-2.279-1.781-2.259C55.844,51.833,54.831,53.308,56.968,53.495z"/>
<path fill="#EDBA37" d="M56.187,53.318c-0.952-0.755,0.22-2.278-1.781-2.257C55.063,51.658,54.05,53.133,56.187,53.318z"/>
<path fill="#FFC42E" d="M55.405,53.144c-0.952-0.754,0.22-2.28-1.781-2.258C54.281,51.481,53.269,52.956,55.405,53.144z"/>
<path fill="#EDBA37" d="M54.624,52.968c-0.952-0.755,0.22-2.279-1.781-2.257C53.5,51.308,52.487,52.782,54.624,52.968z"/>
<path fill="#FFC42E" d="M53.843,52.791c-0.952-0.753,0.22-2.278-1.781-2.257C52.719,51.131,51.706,52.605,53.843,52.791z"/>
<path fill="#EDBA37" d="M53.062,52.616c-0.952-0.754,0.22-2.278-1.781-2.256C51.938,50.954,50.925,52.429,53.062,52.616z"/>
<path fill="#FFC42E" d="M52.28,52.44c-0.952-0.754,0.22-2.279-1.781-2.257C51.156,50.78,50.144,52.255,52.28,52.44z"/>
<path fill="#EDBA37" d="M51.499,52.266c-0.952-0.755,0.22-2.278-1.781-2.259C50.375,50.604,49.362,52.078,51.499,52.266z"/>
<path fill="#FFC42E" d="M50.718,52.089c-0.952-0.754,0.22-2.278-1.781-2.256C49.594,50.429,48.581,51.903,50.718,52.089z"/>
<path fill="#EDBA37" d="M49.937,51.915c-0.952-0.755,0.22-2.281-1.781-2.259C48.813,50.253,47.8,51.728,49.937,51.915z"/>
<path fill="#FFC42E" d="M49.155,51.738c-0.952-0.755,0.22-2.278-1.781-2.257C48.031,50.078,47.019,51.553,49.155,51.738z"/>
<path fill="#EDBA37" d="M48.374,51.562c-0.952-0.752,0.22-2.278-1.781-2.256C47.25,49.901,46.237,51.376,48.374,51.562z"/>
<path fill="#FFC42E" d="M47.593,51.388c-0.952-0.755,0.22-2.279-1.781-2.257C46.469,49.726,45.456,51.2,47.593,51.388z"/>
<path fill="#EDBA37" d="M46.812,51.211c-0.952-0.753,0.22-2.278-1.781-2.257C45.688,49.551,44.675,51.025,46.812,51.211z"/>
<path fill="#FFC42E" d="M46.03,51.036c-0.952-0.754,0.22-2.278-1.781-2.258C44.906,49.374,43.894,50.849,46.03,51.036z"/>
<path fill="#EDBA37" d="M45.249,50.86c-0.952-0.755,0.22-2.279-1.781-2.257C44.125,49.2,43.112,50.675,45.249,50.86z"/>
<path fill="#FFC42E" d="M44.468,50.686c-0.952-0.755,0.22-2.28-1.781-2.259C43.344,49.023,42.331,50.498,44.468,50.686z"/>
<path fill="#EDBA37" d="M43.687,50.509c-0.952-0.754,0.22-2.278-1.781-2.256C42.563,48.849,41.55,50.323,43.687,50.509z"/>
<path fill="#FFC42E" d="M42.905,50.333c-0.952-0.753,0.22-2.279-1.781-2.257C41.781,48.673,40.769,50.147,42.905,50.333z"/>
<path fill="#F5BB51" d="M23.188,51.289l7.738,3.143h2.146c0,0,8.068-1.154,8.068-9.326H23.188V51.289z"/>
<path fill="#006DAE" d="M22.178,48.035c0-0.883,0-2.549,0-3.654c0-0.279,1.242-0.26,1.242-0.26
	c-0.771,8.568,7.506,8.648,7.506,8.648v3.803C30.926,56.572,22.178,56.543,22.178,48.035z"/>
<path fill="#FFE12C" d="M22.178,44.381c0-0.279,1.242-0.26,1.242-0.26c0,8.174,7.506,8.648,7.506,8.648v0.912
	C27.781,53.682,22.178,51.326,22.178,44.381z"/>
<path fill="#006DAE" d="M41.824,48.035c0-0.883,0-2.549,0-3.654c0-0.279-1.242-0.26-1.242-0.26c0.746,8.471-7.51,8.648-7.51,8.648
	v3.803C33.072,56.572,41.824,56.543,41.824,48.035z"/>
<path fill="#FFE12C" d="M41.824,44.381c0-0.279-1.242-0.26-1.242-0.26c0,8.174-7.51,8.648-7.51,8.648v0.912
	C36.219,53.682,41.824,51.326,41.824,44.381z"/>
<polygon fill="#F9B700" points="32,52.77 30.926,52.77 30.926,62 32.539,62 "/>
<rect x="32" y="52.77" fill="#F9C802" width="1.076" height="9.23"/>
<path id="Path_502_" fill="#FFC940" d="M48.44,25.393c-2.545,0.307-4.383,8.814-2.781,11.061c0.225,0.313,1.535,0.814,2.508-1.168
	c0.539-1.098,2.092-2.014,2.574-4.277C51.358,28.107,50.974,25.086,48.44,25.393z"/>
<path id="Path_501_" fill="#FFC940" d="M15.56,25.393c2.545,0.307,4.383,8.814,2.781,11.061c-0.225,0.313-1.535,0.814-2.51-1.168
	c-0.537-1.098-2.092-2.014-2.572-4.277C12.64,28.107,13.026,25.086,15.56,25.393z"/>
<path id="Path_500_" fill="#F0A429" d="M48.372,27.021c-0.664,0.209-1.389,1.221-1.781,2.898c2.32-0.498,1.74,3.361-0.277,3.434
	c0.02,0.389,0.045,0.787,0.094,1.207c0.971-1.408,1.959-0.844,2.938-2.939C50.226,29.732,50.017,26.508,48.372,27.021z"/>
<path id="Path_499_" fill="#F0A429" d="M17.409,29.916c-0.395-1.676-1.117-2.686-1.781-2.895c-1.643-0.514-1.855,2.711-0.973,4.6
	c0.979,2.096,1.967,1.531,2.939,2.939c0.047-0.42,0.074-0.82,0.09-1.209C15.688,33.258,15.116,29.445,17.409,29.916z"/>
<path id="Path_498_" fill="#FFC940" d="M31.999,9.033c-11.027,0-16.34,8.328-15.676,19.908c0.133,2.33,1.582,9.93,2.947,12.656
	c1.398,2.789,6.074,7.09,8.938,7.98c1.811,0.561,5.773,0.561,7.582,0c2.865-0.891,7.543-5.191,8.939-7.98
	c1.369-2.727,2.814-10.324,2.945-12.656C48.343,17.361,43.03,9.033,31.999,9.033z"/>
<path id="Path_497_" fill="#966F42" d="M43.981,24.543c-2.521-1.336-7.348-1.4-9.146-0.469c-0.387,0.178-0.131,1.441,0.193,1.322
	c2.504-0.99,6.547-1.012,8.893,0.084C44.233,25.623,44.364,24.729,43.981,24.543z"/>
<path id="Path_496_" fill="#966F42" d="M20.019,24.543c2.521-1.336,7.346-1.4,9.146-0.469c0.385,0.178,0.131,1.441-0.193,1.322
	c-2.51-0.99-6.547-1.012-8.895,0.084C19.767,25.623,19.638,24.729,20.019,24.543z"/>
<path id="Path_495_" fill="#F0A429" d="M34.976,36.107c-0.314-0.219-1.053,0.119-2.977,0.119c-1.92,0-2.66-0.338-2.975-0.119
	c-0.377,0.266,0.223,1.461,2.975,1.461C34.753,37.568,35.354,36.373,34.976,36.107z"/>
<path id="Path_494_" fill="#F0A429" d="M31.999,40.645c-2.479-0.729-6.154,0.346-6.154,0.346c1.398,1.521,2.424,3.494,6.154,3.494
	c4.275,0,5.002-2.24,6.156-3.494C38.155,40.99,34.479,39.91,31.999,40.645z"/>
<path id="Path_493_" fill="#FFFFFF" d="M26.767,41.248c2.602,2.176,7.852,2.191,10.467,0C34.462,41.365,29.558,41.367,26.767,41.248
	z"/>
<path id="Path_492_" fill="#FFFFFF" d="M29.546,29.084c0.094,0.73-0.402,1.594-1.773,2.242c-0.871,0.412-2.686,0.896-5.066-0.107
	c-1.066-0.449-2.107-1.848-2.014-2.623C21.983,26.166,28.337,25.811,29.546,29.084z"/>
<linearGradient id="Oval_1_" gradientUnits="userSpaceOnUse" x1="-424.5815" y1="477.4658" x2="-424.5815" y2="478.2246" gradientTransform="matrix(6.5701 0 0 -6.5701 2814.7805 3168.5281)">
	<stop  offset="0" style="stop-color:#A6694A"/>
	<stop  offset="1" style="stop-color:#4F2A1E"/>
	<a:midPointStop  offset="0" style="stop-color:#A6694A"/>
	<a:midPointStop  offset="0.5" style="stop-color:#A6694A"/>
	<a:midPointStop  offset="1" style="stop-color:#4F2A1E"/>
</linearGradient>
<circle id="Oval_78_" fill="url(#Oval_1_)" cx="25.235" cy="29.037" r="2.492"/>
<path id="Path_491_" fill="#1A1626" d="M23.987,28.99c0,1.725,2.496,1.725,2.496,0C26.483,27.391,23.987,27.391,23.987,28.99z"/>
<path id="Path_490_" fill="#AB968C" d="M23.608,28.291c0,0.723,1.045,0.723,1.045,0C24.653,27.623,23.608,27.623,23.608,28.291z"/>
<path id="Path_489_" fill="#F0A429" d="M29.558,29.18c-1.014-3.25-7.926-2.77-8.865-0.584C21.04,25.797,28.694,25.057,29.558,29.18z
	"/>
<path id="Path_488_" fill="#FFFFFF" d="M34.454,29.084c-0.094,0.73,0.4,1.594,1.773,2.242c0.871,0.412,2.684,0.896,5.064-0.107
	c1.07-0.449,2.109-1.848,2.016-2.623C42.017,26.166,35.661,25.811,34.454,29.084z"/>
<linearGradient id="Oval_2_" gradientUnits="userSpaceOnUse" x1="-425.23" y1="477.4658" x2="-425.23" y2="478.2246" gradientTransform="matrix(6.5701 0 0 -6.5701 2832.511 3168.5281)">
	<stop  offset="0" style="stop-color:#A6694A"/>
	<stop  offset="1" style="stop-color:#4F2A1E"/>
	<a:midPointStop  offset="0" style="stop-color:#A6694A"/>
	<a:midPointStop  offset="0.5" style="stop-color:#A6694A"/>
	<a:midPointStop  offset="1" style="stop-color:#4F2A1E"/>
</linearGradient>
<circle id="Oval_77_" fill="url(#Oval_2_)" cx="38.708" cy="29.037" r="2.492"/>
<path id="Path_487_" fill="#1A1626" d="M37.462,28.99c0,1.725,2.496,1.725,2.496,0C39.958,27.391,37.462,27.391,37.462,28.99z"/>
<path id="Path_486_" fill="#AB968C" d="M37.081,28.291c0,0.723,1.047,0.723,1.047,0C38.128,27.623,37.081,27.623,37.081,28.291z"/>
<path id="Path_485_" fill="#F0A429" d="M34.442,29.18c1.012-3.248,7.92-2.783,8.865-0.584C42.956,25.797,35.306,25.057,34.442,29.18
	z"/>
<path fill="#7A6056" d="M46.085,11.793C43.671,8.531,39.253,6,31.999,6c-7.252,0-11.668,2.531-14.082,5.793
	C14.499,16.408,49.501,16.408,46.085,11.793z"/>
<linearGradient id="SVGID_1_" gradientUnits="userSpaceOnUse" x1="32.0005" y1="31.791" x2="32.0005" y2="10.4116">
	<stop  offset="0.5" style="stop-color:#473834"/>
	<stop  offset="0.6387" style="stop-color:#503F3A"/>
	<stop  offset="0.8641" style="stop-color:#68524A"/>
	<stop  offset="1" style="stop-color:#7A6056"/>
	<a:midPointStop  offset="0.5" style="stop-color:#473834"/>
	<a:midPointStop  offset="0.6" style="stop-color:#473834"/>
	<a:midPointStop  offset="1" style="stop-color:#7A6056"/>
</linearGradient>
<path fill="url(#SVGID_1_)" d="M46.085,11.793c-2.414-3.262-6.832,0.275-14.086,0.275c-7.252,0-11.668-3.537-14.082-0.275
	c-3.418,4.615-2.258,19.998-0.736,19.998c0.24,0,0.275-5.381,0.736-9.104c0.373-3.029,1.094-5.969,1.924-6.449
	c2.531-1.467,7.412,0.631,12.158,0.631s9.629-2.098,12.162-0.631c0.828,0.48,1.547,3.42,1.924,6.449
	c0.459,3.723,0.494,9.104,0.734,9.104C48.341,31.791,49.501,16.408,46.085,11.793z"/>
<path fill="#FFBB4F" d="M40.154,2.715c0-0.002-1.679,6.516-6.625,6.516c4.772,3.666,8.479,3.666,13.25,0
	C41.834,9.23,40.154,2.713,40.154,2.715z"/>
<path fill="#FFBB4F" d="M23.846,2.715c0-0.002-1.678,6.516-6.625,6.516c4.771,3.666,8.479,3.666,13.252,0
	C25.526,9.23,23.846,2.713,23.846,2.715z"/>
<linearGradient id="SVGID_2_" gradientUnits="userSpaceOnUse" x1="16.7383" y1="11.3389" x2="47.2637" y2="11.3389">
	<stop  offset="0" style="stop-color:#8E3ED6"/>
	<stop  offset="0.2286" style="stop-color:#8A3BD1"/>
	<stop  offset="0.5057" style="stop-color:#7F34C2"/>
	<stop  offset="0.8069" style="stop-color:#6C28AA"/>
	<stop  offset="1" style="stop-color:#5D1E96"/>
	<a:midPointStop  offset="0" style="stop-color:#8E3ED6"/>
	<a:midPointStop  offset="0.6667" style="stop-color:#8E3ED6"/>
	<a:midPointStop  offset="1" style="stop-color:#5D1E96"/>
</linearGradient>
<path fill="url(#SVGID_2_)" d="M47.264,17.631C45.118,9.936,40.007,5.047,31.999,5.047c-8.002,0-13.117,4.889-15.261,12.584H47.264z
	"/>
<radialGradient id="SVGID_3_" cx="-36.1074" cy="146.9297" r="21.2638" gradientTransform="matrix(0.9126 0 0 0.947 64.9526 -127.4804)" gradientUnits="userSpaceOnUse">
	<stop  offset="0" style="stop-color:#FFE14D"/>
	<stop  offset="0.2499" style="stop-color:#FFDF4A"/>
	<stop  offset="0.4691" style="stop-color:#FFD93F"/>
	<stop  offset="0.6767" style="stop-color:#FFCF2D"/>
	<stop  offset="0.8761" style="stop-color:#FFC214"/>
	<stop  offset="1" style="stop-color:#FFB700"/>
	<a:midPointStop  offset="0" style="stop-color:#FFE14D"/>
	<a:midPointStop  offset="0.7333" style="stop-color:#FFE14D"/>
	<a:midPointStop  offset="1" style="stop-color:#FFB700"/>
</radialGradient>
<path fill="url(#SVGID_3_)" d="M49.584,3.854c0,0-3.049,7.359-9.288,7.359C34.061,11.213,31.999,2,31.999,2l0,0
	c0,0-2.06,9.213-8.297,9.213c-6.239,0-9.285-7.359-9.285-7.359l0,0l0.986,17.484h33.193L49.584,3.854L49.584,3.854z"/>
<polygon fill="#018BC9" points="32.036,10.797 29.439,14.217 32.036,17.783 34.561,14.217 "/>
<linearGradient id="SVGID_4_" gradientUnits="userSpaceOnUse" x1="32.0005" y1="14.2285" x2="32.0005" y2="11.377">
	<stop  offset="0" style="stop-color:#75D6FF;stop-opacity:0"/>
	<stop  offset="1" style="stop-color:#75D6FF"/>
	<a:midPointStop  offset="0" style="stop-color:#75D6FF;stop-opacity:0"/>
	<a:midPointStop  offset="0.5" style="stop-color:#75D6FF;stop-opacity:0"/>
	<a:midPointStop  offset="1" style="stop-color:#75D6FF"/>
</linearGradient>
<polygon fill="url(#SVGID_4_)" points="32.031,11.377 29.863,14.229 34.137,14.229 "/>
<polygon fill="#018BC9" points="21.831,12.174 20.109,14.443 21.831,16.809 23.506,14.443 "/>
<linearGradient id="SVGID_5_" gradientUnits="userSpaceOnUse" x1="21.8062" y1="14.4512" x2="21.8062" y2="12.5586">
	<stop  offset="0" style="stop-color:#75D6FF;stop-opacity:0"/>
	<stop  offset="1" style="stop-color:#75D6FF"/>
	<a:midPointStop  offset="0" style="stop-color:#75D6FF;stop-opacity:0"/>
	<a:midPointStop  offset="0.5" style="stop-color:#75D6FF;stop-opacity:0"/>
	<a:midPointStop  offset="1" style="stop-color:#75D6FF"/>
</linearGradient>
<polygon fill="url(#SVGID_5_)" points="21.827,12.559 20.39,14.451 23.223,14.451 "/>
<polygon fill="#018BC9" points="42.218,12.174 40.496,14.443 42.218,16.809 43.891,14.443 "/>
<linearGradient id="SVGID_6_" gradientUnits="userSpaceOnUse" x1="42.1953" y1="14.4512" x2="42.1953" y2="12.5586">
	<stop  offset="0" style="stop-color:#75D6FF;stop-opacity:0"/>
	<stop  offset="1" style="stop-color:#75D6FF"/>
	<a:midPointStop  offset="0" style="stop-color:#75D6FF;stop-opacity:0"/>
	<a:midPointStop  offset="0.5" style="stop-color:#75D6FF;stop-opacity:0"/>
	<a:midPointStop  offset="1" style="stop-color:#75D6FF"/>
</linearGradient>
<polygon fill="url(#SVGID_6_)" points="42.213,12.559 40.779,14.451 43.61,14.451 "/>
<polygon fill="#018BC9" points="48.893,10.998 48.043,13.068 48.614,15.234 50,13.068 "/>
<linearGradient id="SVGID_7_" gradientUnits="userSpaceOnUse" x1="49.2334" y1="13.0781" x2="49.2334" y2="11.3965">
	<stop  offset="0" style="stop-color:#75D6FF;stop-opacity:0"/>
	<stop  offset="1" style="stop-color:#75D6FF"/>
	<a:midPointStop  offset="0" style="stop-color:#75D6FF;stop-opacity:0"/>
	<a:midPointStop  offset="0.5" style="stop-color:#75D6FF;stop-opacity:0"/>
	<a:midPointStop  offset="1" style="stop-color:#75D6FF"/>
</linearGradient>
<polygon fill="url(#SVGID_7_)" points="49.107,11.396 48.467,13.078 50,13.068 "/>
<polygon fill="#018BC9" points="15.11,10.998 15.959,13.068 15.386,15.234 14,13.068 "/>
<linearGradient id="SVGID_8_" gradientUnits="userSpaceOnUse" x1="394.5879" y1="13.0781" x2="394.5879" y2="11.3965" gradientTransform="matrix(-1 0 0 1 409.3555 0)">
	<stop  offset="0" style="stop-color:#75D6FF;stop-opacity:0"/>
	<stop  offset="1" style="stop-color:#75D6FF"/>
	<a:midPointStop  offset="0" style="stop-color:#75D6FF;stop-opacity:0"/>
	<a:midPointStop  offset="0.5" style="stop-color:#75D6FF;stop-opacity:0"/>
	<a:midPointStop  offset="1" style="stop-color:#75D6FF"/>
</linearGradient>
<polygon fill="url(#SVGID_8_)" points="14.896,11.396 15.536,13.078 14,13.068 "/>
<radialGradient id="SVGID_9_" cx="32.1084" cy="20.4502" r="16.9679" gradientUnits="userSpaceOnUse">
	<stop  offset="0" style="stop-color:#FFBB00"/>
	<stop  offset="0.3451" style="stop-color:#FEB800"/>
	<stop  offset="0.6023" style="stop-color:#FAAE00"/>
	<stop  offset="0.8303" style="stop-color:#F39E00"/>
	<stop  offset="1" style="stop-color:#EB8D00"/>
	<a:midPointStop  offset="0" style="stop-color:#FFBB00"/>
	<a:midPointStop  offset="0.7636" style="stop-color:#FFBB00"/>
	<a:midPointStop  offset="1" style="stop-color:#EB8D00"/>
</radialGradient>
<polygon fill="url(#SVGID_9_)" points="48.854,21.338 15.365,21.338 15.356,19.563 48.86,19.563 "/>
<radialGradient id="SVGID_10_" cx="-36.1074" cy="156.7217" r="19.2134" gradientTransform="matrix(0.9126 0 0 0.8297 64.9526 -110.2395)" gradientUnits="userSpaceOnUse">
	<stop  offset="0" style="stop-color:#FFE14D"/>
	<stop  offset="0.203" style="stop-color:#FFD940"/>
	<stop  offset="0.5752" style="stop-color:#FFC51F"/>
	<stop  offset="0.8667" style="stop-color:#FFB300"/>
	<a:midPointStop  offset="0" style="stop-color:#FFE14D"/>
	<a:midPointStop  offset="0.5714" style="stop-color:#FFE14D"/>
	<a:midPointStop  offset="0.8667" style="stop-color:#FFB300"/>
</radialGradient>
<path fill="url(#SVGID_10_)" d="M48.745,20.689c-11.195,0-22.759,0-33.488,0c-0.805-0.234-0.785-1.994-0.009-1.775
	c10.738,0,22.377,0,33.504,0C49.53,18.695,49.548,20.453,48.745,20.689z"/>
</svg>
