<?xml version="1.0" encoding="utf-8"?>
<!-- Generator: Adobe Illustrator 24.1.2, SVG Export Plug-In . SVG Version: 6.00 Build 0)  -->
<svg version="1.1" id="Layer_1" xmlns="http://www.w3.org/2000/svg" xmlns:xlink="http://www.w3.org/1999/xlink" x="0px" y="0px"
	 width="64px" height="64px" viewBox="0 0 64 64" style="enable-background:new 0 0 64 64;" xml:space="preserve">
<style type="text/css">
	.st0{fill:url(#SVGID_1_);}
	.st1{fill:url(#SVGID_2_);}
	.st2{fill:url(#SVGID_3_);}
	.st3{fill:#916B50;}
	.st4{fill:#302C3B;}
	.st5{fill:url(#SVGID_4_);}
	.st6{fill:url(#SVGID_5_);}
	.st7{fill:url(#SVGID_6_);}
	.st8{fill:url(#SVGID_7_);}
	.st9{opacity:0.2;fill:#FFFFFF;}
	.st10{fill:#0FB4D4;}
</style>
<radialGradient id="SVGID_1_" cx="79.2458" cy="41.7238" r="33.954" gradientTransform="matrix(1.0521 0 0 0.8871 -65.6243 -2.1739)" gradientUnits="userSpaceOnUse">
	<stop  offset="0" style="stop-color:#3AB0A2"/>
	<stop  offset="0.4467" style="stop-color:#38AD9F"/>
	<stop  offset="0.7904" style="stop-color:#32A396"/>
	<stop  offset="1" style="stop-color:#2B998D"/>
</radialGradient>
<path class="st0" d="M43.68,34.57c-5.37,8.5-15.35,11.66-15.35,11.66L9.07,41.96c-8.73-1.94-9.66,18.85-1.18,20
	c6.9,0.94,21.89,3.03,26.76,1.48c7.08-2.26,18.7-15.33,22.61-26.41C58.17,34.42,45.31,31.99,43.68,34.57z"/>
<linearGradient id="SVGID_2_" gradientUnits="userSpaceOnUse" x1="127.7834" y1="-103.9335" x2="141.0008" y2="-103.9335" gradientTransform="matrix(1.0428 -0.1204 0.138 0.9933 -74.6211 152.9784)">
	<stop  offset="0" style="stop-color:#916B50"/>
	<stop  offset="0.3458" style="stop-color:#8E684D"/>
	<stop  offset="0.6302" style="stop-color:#845E44"/>
	<stop  offset="0.8921" style="stop-color:#724E35"/>
	<stop  offset="1" style="stop-color:#69452D"/>
</linearGradient>
<path class="st1" d="M56.55,36.47c-1.15,2.11-12.91,1.21-12.12-1.66c0.51-1.86,0.43-4.79,0.43-4.79l12.74-0.59
	C57.61,29.43,57.41,34.88,56.55,36.47z"/>
<linearGradient id="SVGID_3_" gradientUnits="userSpaceOnUse" x1="115.0708" y1="-248.317" x2="101.8601" y2="-242.5217" gradientTransform="matrix(0.9742 -0.2255 0.2255 0.9742 1.8184 289.2203)">
	<stop  offset="0" style="stop-color:#69452D"/>
	<stop  offset="0.1079" style="stop-color:#724E35"/>
	<stop  offset="0.3698" style="stop-color:#845E44"/>
	<stop  offset="0.6542" style="stop-color:#8E684D"/>
	<stop  offset="1" style="stop-color:#916B50"/>
</linearGradient>
<path class="st2" d="M45.05,20.56c-3.36-1.42-4.97,4.45-4.5,6.1c0.54,1.92,3.39,8.06,6.58,8.11c15.31,2.93,12.23-8.42,12.45-8.69
	C66.05,18.41,47.74,21.41,45.05,20.56z"/>
<path class="st3" d="M60.4,9.8c-1.74,6.02-4.6,2.87-4.64,1.92c-0.03-0.67,0.97-1.93,2.11-4.12C58.67,6.09,61.19,7.08,60.4,9.8z"/>
<path class="st4" d="M56.88,0.02L46.02,2.25c-0.56,0.12-0.97,0.62-0.97,1.2l0,24.67c0,0.66,0.52,1.21,1.17,1.23l10.85,0.34
	c0.68,0.02,1.25-0.53,1.25-1.23V1.23C58.32,0.45,57.62-0.13,56.88,0.02z"/>
<linearGradient id="SVGID_4_" gradientUnits="userSpaceOnUse" x1="51.5705" y1="28.477" x2="51.5705" y2="1.1991">
	<stop  offset="0" style="stop-color:#4E5E67"/>
	<stop  offset="1" style="stop-color:#6E8189"/>
</linearGradient>
<path class="st5" d="M56.66,1.21L46.29,3.24c-0.23,0.05-0.4,0.25-0.4,0.49l0,24c0,0.27,0.22,0.5,0.49,0.5l10.37,0.24
	c0.28,0.01,0.51-0.22,0.51-0.5V1.7C57.25,1.39,56.97,1.15,56.66,1.21z"/>
<path class="st3" d="M42.6,24.39c5.5,4.13,9.29,0.26,8.65-2.05c-0.16-0.56-2.47-0.47-6.07-1.73C44.59,20.39,42.58,24.17,42.6,24.39z
	"/>
<linearGradient id="SVGID_5_" gradientUnits="userSpaceOnUse" x1="115.0884" y1="-243.5178" x2="115.0884" y2="-248.2199" gradientTransform="matrix(0.9742 -0.2255 0.2255 0.9742 1.8184 289.2203)">
	<stop  offset="0" style="stop-color:#69452D"/>
	<stop  offset="0.1079" style="stop-color:#724E35"/>
	<stop  offset="0.3698" style="stop-color:#845E44"/>
	<stop  offset="0.6542" style="stop-color:#8E684D"/>
	<stop  offset="1" style="stop-color:#916B50"/>
</linearGradient>
<path class="st6" d="M60.73,24.28c-4.78,4.49-5.42,0.72-5.08-0.17c0.24-0.63,1.67-1.38,3.6-2.93C59.82,20.73,62.8,22.34,60.73,24.28
	z"/>
<linearGradient id="SVGID_6_" gradientUnits="userSpaceOnUse" x1="116.129" y1="-247.1144" x2="116.129" y2="-252.8691" gradientTransform="matrix(0.9742 -0.2255 0.2255 0.9742 1.8184 289.2203)">
	<stop  offset="0" style="stop-color:#69452D"/>
	<stop  offset="0.1079" style="stop-color:#724E35"/>
	<stop  offset="0.3698" style="stop-color:#845E44"/>
	<stop  offset="0.6542" style="stop-color:#8E684D"/>
	<stop  offset="1" style="stop-color:#916B50"/>
</linearGradient>
<path class="st7" d="M61.12,20.24c-4.27,4.63-6.16,1.63-5.96,0.15c0.13-0.94,1.75-2.12,4.16-3.93
	C60.52,15.55,63.46,17.69,61.12,20.24z"/>
<linearGradient id="SVGID_7_" gradientUnits="userSpaceOnUse" x1="116.3261" y1="-251.4274" x2="116.3261" y2="-256.465" gradientTransform="matrix(0.9742 -0.2255 0.2255 0.9742 1.8184 289.2203)">
	<stop  offset="0" style="stop-color:#69452D"/>
	<stop  offset="0.1079" style="stop-color:#724E35"/>
	<stop  offset="0.3698" style="stop-color:#845E44"/>
	<stop  offset="0.6542" style="stop-color:#8E684D"/>
	<stop  offset="1" style="stop-color:#916B50"/>
</linearGradient>
<path class="st8" d="M60.13,16.38c-4.29,4.27-5.57,0.63-5.19-0.38c0.27-0.71,1.37-1.36,3.53-3.1C59.1,12.4,62.38,14.14,60.13,16.38z
	"/>
<path class="st9" d="M46.54,22.76c0.37,0.39,2.58,1.27,3.4,0.76c0.95-0.59,1.05-1.46,0.63-1.56c-0.53-0.13-2.33-0.43-3.34-0.73
	C46.8,21.1,46.06,22.27,46.54,22.76z"/>
<path class="st9" d="M58.15,15.7c-0.12,0.35-0.84,1.03-1.48,1.2c-0.92,0.25-1.74-0.72-1.5-1.2c0.17-0.34,0.6-0.8,1.38-1.18
	C56.97,14.32,58.4,15,58.15,15.7z"/>
<path class="st9" d="M58.78,24.48c-0.12,0.35-0.74,0.85-1.37,1.02c-0.9,0.25-1.41-1.15-1.17-1.61c0.17-0.34,0.73-0.8,1.42-1.03
	C58.09,22.72,59.02,23.79,58.78,24.48z"/>
<path class="st9" d="M58.71,20.67c-0.12,0.38-0.71,1.02-1.39,1.2c-0.97,0.25-1.76-1.17-1.52-1.68c0.17-0.37,0.9-1.13,1.64-1.35
	C57.91,18.69,58.95,19.91,58.71,20.67z"/>
<path class="st10" d="M36.21,11.79c3.11,0,6.67-1.52,6.67-1.52s-3.56-1.52-6.67-1.52C31.17,8.76,31.17,11.79,36.21,11.79z"/>
<path class="st10" d="M37.85,19.55c2.7-1.58,5.03-4.7,5.03-4.7s-3.83,0.49-6.52,2.07C31.99,19.48,33.48,22.11,37.85,19.55z"/>
<path class="st10" d="M36.36,3.67c2.69,1.58,6.52,2.07,6.52,2.07s-2.33-3.12-5.03-4.7C33.48-1.51,31.99,1.11,36.36,3.67z"/>
</svg>
