<?xml version="1.0" encoding="utf-8"?>
<!-- Generator: Adobe Illustrator 15.0.0, SVG Export Plug-In . SVG Version: 6.00 Build 0)  -->
<!DOCTYPE svg PUBLIC "-//W3C//DTD SVG 1.1//EN" "http://www.w3.org/Graphics/SVG/1.1/DTD/svg11.dtd" [
	<!ENTITY ns_flows "http://ns.adobe.com/Flows/1.0/">
	<!ENTITY ns_extend "http://ns.adobe.com/Extensibility/1.0/">
	<!ENTITY ns_ai "http://ns.adobe.com/AdobeIllustrator/10.0/">
	<!ENTITY ns_graphs "http://ns.adobe.com/Graphs/1.0/">
]>
<svg version="1.1" id="Layer_1" xmlns:x="&ns_extend;" xmlns:i="&ns_ai;" xmlns:graph="&ns_graphs;"
	 xmlns="http://www.w3.org/2000/svg" xmlns:xlink="http://www.w3.org/1999/xlink" xmlns:a="http://ns.adobe.com/AdobeSVGViewerExtensions/3.0/"
	 x="0px" y="0px" width="64px" height="64px" viewBox="0 0 64 64" enable-background="new 0 0 64 64" xml:space="preserve">
<path fill="#473834" d="M34.681,29.944c10.418-2.182,10.058-11.627,10.058-11.627L18.516,13.5c0,0-2.604,9.101,6.437,14.723
	c0,0,1.861,0.833,4.779,1.35C32.65,30.09,34.681,29.944,34.681,29.944z"/>
<linearGradient id="SVGID_1_" gradientUnits="userSpaceOnUse" x1="89.292" y1="-43.022" x2="89.292" y2="-72.6626" gradientTransform="matrix(0.9848 0.1736 -0.1736 0.9848 -56.4368 58.068)">
	<stop  offset="0.05" style="stop-color:#473834"/>
	<stop  offset="0.2266" style="stop-color:#594640"/>
	<stop  offset="0.5197" style="stop-color:#715950"/>
	<stop  offset="0.7" style="stop-color:#7A6056"/>
	<a:midPointStop  offset="0.05" style="stop-color:#473834"/>
	<a:midPointStop  offset="0.4" style="stop-color:#473834"/>
	<a:midPointStop  offset="0.7" style="stop-color:#7A6056"/>
</linearGradient>
<path fill="url(#SVGID_1_)" d="M41.796,18.64c0.256,4.379-1,8.446-7.115,11.305c6.011,0.056,9.858-4.784,10.605-9.025L41.796,18.64z
	"/>
<linearGradient id="SVGID_2_" gradientUnits="userSpaceOnUse" x1="1711.0684" y1="-43.8638" x2="1711.0684" y2="-73.5161" gradientTransform="matrix(-0.9848 -0.1736 -0.1736 0.9848 1697.4486 368.0895)">
	<stop  offset="0.05" style="stop-color:#473834"/>
	<stop  offset="0.2266" style="stop-color:#594640"/>
	<stop  offset="0.5197" style="stop-color:#715950"/>
	<stop  offset="0.7" style="stop-color:#7A6056"/>
	<a:midPointStop  offset="0.05" style="stop-color:#473834"/>
	<a:midPointStop  offset="0.4" style="stop-color:#473834"/>
	<a:midPointStop  offset="0.7" style="stop-color:#7A6056"/>
</linearGradient>
<path fill="url(#SVGID_2_)" d="M22.125,15.161c-1.733,4.025-1.94,8.279,2.831,13.063c-5.667-2.006-8.586-8.227-7.842-12.469
	L22.125,15.161z"/>
<path fill="#732EB0" d="M33.547,26.979c4.714,0.988,5.874,4.781,5.878,5.705c0.004,0.758,1.396,6.29,1.708,9.268
	c2.193,2.822,8.094,15.924,4.978,18.508C43.594,60.045,29.367,26.103,33.547,26.979z"/>
<linearGradient id="SVGID_3_" gradientUnits="userSpaceOnUse" x1="24.0474" y1="61.0576" x2="37.822" y2="33.687">
	<stop  offset="0" style="stop-color:#732EB0"/>
	<stop  offset="0.0177" style="stop-color:#742FB1"/>
	<stop  offset="0.3488" style="stop-color:#8237C6"/>
	<stop  offset="0.6777" style="stop-color:#8B3CD2"/>
	<stop  offset="1" style="stop-color:#8E3ED6"/>
	<a:midPointStop  offset="0" style="stop-color:#732EB0"/>
	<a:midPointStop  offset="0.297" style="stop-color:#732EB0"/>
	<a:midPointStop  offset="1" style="stop-color:#8E3ED6"/>
</linearGradient>
<path fill="url(#SVGID_3_)" d="M41.457,41.69c1.272-0.504,2.243-2.535,0.141-4.961c0.006,0.011,0.01,0.02,0.017,0.029
	c-0.668-1.008-1.589-1.89-2.173-2.704c-3.193-4.434-1.23-5.9-7.8-7.931c-3.245-0.052-5.334,0.248-6.636,0.862
	c-0.002,0-0.004,0-0.006,0c-2.555,0.4-4.976,1.688-5.456,6.453c-0.458,4.563-1.433,18.477,0.622,18.844
	c0.392,0.068,1.237-0.09,2.329-0.388c-0.536,13.742,16.512,15.45,21.912,6.817C47.05,54.491,46.031,46.899,41.457,41.69z"/>
<path fill="#F5BB51" d="M43.001,44.915c-0.86-0.307-1.919-1.307-2.649-1.364c-3.785-0.314-5.64-0.866-4.059,2.63
	c0.641,0.274,1.271,0.104,4.061,2.304c0.836,0.665,1.298,0.427,0.9,0.004c-3.177-3.394-0.356-0.634,0.322-0.009
	c0.927,0.853,1.868,0.696,1.371,0.215c-3.219-3.119-1.988-2.16,0.165-0.162c0.485,0.447,1.264,0.117,0.506-0.596
	c-2.392-2.246-1.743-1.853,0.212-0.094c0.431,0.383,1.017,0.277,0.559-0.342c-0.203-0.265-1.367-1.523-1.871-2.006
	C43.413,45.681,43.708,45.165,43.001,44.915z"/>
<path fill="#F5BB51" d="M37.962,63.526c0.388-1.465,2.149,0.041,4.728-3.223c0.385-0.494-3.374,1.897-3.351,0.039
	c2.199-0.621,2.197-2.164,5.787-2.146c0.353,0.25,1.052,1.805,0.979,2.105c-0.936,1.191-1.783,2.039-2.478,2.389
	C42.56,63.23,37.823,64.06,37.962,63.526z"/>
<linearGradient id="SVGID_4_" gradientUnits="userSpaceOnUse" x1="22.3735" y1="44.7207" x2="30.8131" y2="37.1911">
	<stop  offset="0" style="stop-color:#5D1E96"/>
	<stop  offset="1" style="stop-color:#5D1E96;stop-opacity:0"/>
	<a:midPointStop  offset="0" style="stop-color:#5D1E96"/>
	<a:midPointStop  offset="0.3333" style="stop-color:#5D1E96"/>
	<a:midPointStop  offset="1" style="stop-color:#5D1E96;stop-opacity:0"/>
</linearGradient>
<path fill="url(#SVGID_4_)" d="M36.243,43.31c-0.634,0.243-12.506,3.42-12.647,2.806c-0.145-0.614,0.758-8.842,1.311-11.059
	c0.288-1.165,0.585-2.758,0.742-4.223"/>
<linearGradient id="SVGID_5_" gradientUnits="userSpaceOnUse" x1="22.7603" y1="50.6748" x2="35.5315" y2="55.6197">
	<stop  offset="0" style="stop-color:#5D1E96"/>
	<stop  offset="1" style="stop-color:#5D1E96;stop-opacity:0"/>
	<a:midPointStop  offset="0" style="stop-color:#5D1E96"/>
	<a:midPointStop  offset="0.3333" style="stop-color:#5D1E96"/>
	<a:midPointStop  offset="1" style="stop-color:#5D1E96;stop-opacity:0"/>
</linearGradient>
<path fill="url(#SVGID_5_)" d="M34.077,63.999c-5.731,0-12.061-4.017-11.582-12.104c3.375-1.146,12.317-4.298,14.159-5.694"/>
<path fill="#F5BB51" d="M26.712,25.967c-0.688,3.915,6.7,5.221,7.388,1.306l0.801-4.559l-7.389-1.304L26.712,25.967z"/>
<path fill="#FFC940" d="M34.622,1.76C27.562,0.51,23.148,5.675,22.27,13.167c-0.174,1.504-0.139,3.729,0.048,5.658
	c0.385,4.019,6.308,8.875,8.686,9.296c2.38,0.421,6.496-2.531,8.828-5.821c1.157-1.631,2.159-4.108,2.509-5.583
	C44.066,9.377,41.681,3.008,34.622,1.76z"/>
<path fill="#966F42" d="M41.618,14.208c-1.373-1.189-4.104-1.79-5.301-1.356c-0.254,0.085-0.308,0.758-0.095,0.71
	c1.666-0.373,4.04,0.013,5.364,1.021C41.764,14.717,41.827,14.381,41.618,14.208z"/>
<path fill="#966F42" d="M26.616,11.554c1.694-0.646,4.465-0.273,5.444,0.544c0.209,0.168,0.031,0.821-0.154,0.702
	c-1.438-0.925-3.797-1.375-5.387-0.883C26.306,11.983,26.36,11.646,26.616,11.554z"/>
<path fill="#F0A429" d="M34.195,20.5c-0.149-0.148-0.576-0.036-1.599-0.217c-1.025-0.181-1.386-0.434-1.575-0.346
	c-0.227,0.108-0.021,0.806,1.447,1.064C33.938,21.263,34.373,20.68,34.195,20.5z"/>
<path fill="#45332C" d="M31.648,15.054c-1.438,0.596-3.444,0.242-4.593-0.813c-0.174-0.163-0.316-0.048-0.275,0.071
	c0.882,2.358,3.468,2.815,5.1,0.902C31.963,15.119,31.868,14.96,31.648,15.054z"/>
<path fill="#45332C" d="M40.291,16.583c-1.438,0.598-3.444,0.242-4.593-0.814c-0.177-0.161-0.316-0.046-0.272,0.073
	c0.879,2.358,3.465,2.815,5.098,0.9C40.604,16.648,40.511,16.49,40.291,16.583z"/>
<path fill="#D47706" d="M32.115,22.496c-1.525-1.023-1.662-0.325-4.246-0.604c0.767,1.262,1.227,2.79,3.781,3.242
	c2.935,0.521,3.71-0.988,4.663-1.748C33.787,22.761,33.9,22.059,32.115,22.496z"/>
<path fill="#FFFFFF" d="M28.589,22.3c1.36,2.036,4.96,2.648,6.91,1.223C32.881,23.346,31.106,23.032,28.589,22.3z"/>
<linearGradient id="SVGID_6_" gradientUnits="userSpaceOnUse" x1="79.4102" y1="-42.8945" x2="79.4102" y2="-72.6764" gradientTransform="matrix(0.9848 0.1736 -0.1736 0.9848 -56.4368 58.068)">
	<stop  offset="0.05" style="stop-color:#473834"/>
	<stop  offset="0.2266" style="stop-color:#594640"/>
	<stop  offset="0.5197" style="stop-color:#715950"/>
	<stop  offset="0.7" style="stop-color:#7A6056"/>
	<a:midPointStop  offset="0.05" style="stop-color:#473834"/>
	<a:midPointStop  offset="0.4" style="stop-color:#473834"/>
	<a:midPointStop  offset="0.7" style="stop-color:#7A6056"/>
</linearGradient>
<path fill="url(#SVGID_6_)" d="M42.384,4.2c1.009-1.013-5.391-4.659-12.125-4.152c-6.698,0.339-12.031,9.377-13.145,15.707
	c0.497,0.561,4.224,0.042,5.011-0.594c0.462-1.063,1.082-2.127,1.683-3.24c5.33-1.952,10.917-1.646,15.305-4.335
	c-0.742,1.377,1.507,3.679,2.206,7.434c0.226,1.219,0.408,2.431,0.478,3.621c0.9,1.182,1.943,2.027,3.49,2.279
	C46.227,15.565,45.097,3.91,42.384,4.2z"/>
<path fill="#473834" d="M18.443,14.998C23.942,9.835,38.302,12.79,42.384,4.2C36.208,10.923,20.666,9.494,18.443,14.998z"/>
</svg>
