<?xml version="1.0" encoding="utf-8"?>
<!-- Generator: Adobe Illustrator 15.0.0, SVG Export Plug-In . SVG Version: 6.00 Build 0)  -->
<!DOCTYPE svg PUBLIC "-//W3C//DTD SVG 1.1//EN" "http://www.w3.org/Graphics/SVG/1.1/DTD/svg11.dtd" [
	<!ENTITY ns_flows "http://ns.adobe.com/Flows/1.0/">
	<!ENTITY ns_extend "http://ns.adobe.com/Extensibility/1.0/">
	<!ENTITY ns_ai "http://ns.adobe.com/AdobeIllustrator/10.0/">
	<!ENTITY ns_graphs "http://ns.adobe.com/Graphs/1.0/">
]>
<svg version="1.1" id="Layer_1" xmlns:x="&ns_extend;" xmlns:i="&ns_ai;" xmlns:graph="&ns_graphs;"
	 xmlns="http://www.w3.org/2000/svg" xmlns:xlink="http://www.w3.org/1999/xlink" xmlns:a="http://ns.adobe.com/AdobeSVGViewerExtensions/3.0/"
	 x="0px" y="0px" width="64px" height="64px" viewBox="0 0 64 64" enable-background="new 0 0 64 64" xml:space="preserve">
<linearGradient id="SVGID_1_" gradientUnits="userSpaceOnUse" x1="6" y1="34" x2="58" y2="34">
	<stop  offset="0" style="stop-color:#A6B6C4"/>
	<stop  offset="0.0545" style="stop-color:#AFC0CF"/>
	<stop  offset="0.1596" style="stop-color:#BCCDDD"/>
	<stop  offset="0.2874" style="stop-color:#C3D5E5"/>
	<stop  offset="0.5" style="stop-color:#C5D7E8"/>
	<stop  offset="0.7126" style="stop-color:#C3D5E5"/>
	<stop  offset="0.8404" style="stop-color:#BCCDDD"/>
	<stop  offset="0.9455" style="stop-color:#AFC0CF"/>
	<stop  offset="1" style="stop-color:#A6B6C4"/>
	<a:midPointStop  offset="0" style="stop-color:#A6B6C4"/>
	<a:midPointStop  offset="0.2" style="stop-color:#A6B6C4"/>
	<a:midPointStop  offset="0.5" style="stop-color:#C5D7E8"/>
	<a:midPointStop  offset="0.8" style="stop-color:#C5D7E8"/>
	<a:midPointStop  offset="1" style="stop-color:#A6B6C4"/>
</linearGradient>
<path fill="url(#SVGID_1_)" d="M32,6C17.64,6,6,7.032,6,8.583l4.159,48.248C10.759,59.663,19.961,62,32,62
	c12.038,0,21.241-2.337,21.841-5.169L58,8.583C58,7.227,46.358,6,32,6z"/>
<linearGradient id="SVGID_2_" gradientUnits="userSpaceOnUse" x1="9.8779" y1="50.7168" x2="54.1211" y2="50.7168">
	<stop  offset="0" style="stop-color:#E6EBEF;stop-opacity:0"/>
	<stop  offset="0.0954" style="stop-color:#EEF2F4;stop-opacity:0.1907"/>
	<stop  offset="0.3011" style="stop-color:#FBFCFC;stop-opacity:0.6022"/>
	<stop  offset="0.5" style="stop-color:#FFFFFF"/>
	<stop  offset="0.6989" style="stop-color:#FBFCFC;stop-opacity:0.6022"/>
	<stop  offset="0.9046" style="stop-color:#EEF2F4;stop-opacity:0.1907"/>
	<stop  offset="1" style="stop-color:#E6EBEF;stop-opacity:0"/>
	<a:midPointStop  offset="0" style="stop-color:#E6EBEF;stop-opacity:0"/>
	<a:midPointStop  offset="0.3" style="stop-color:#E6EBEF;stop-opacity:0"/>
	<a:midPointStop  offset="0.5" style="stop-color:#FFFFFF"/>
	<a:midPointStop  offset="0.7" style="stop-color:#FFFFFF"/>
	<a:midPointStop  offset="1" style="stop-color:#E6EBEF;stop-opacity:0"/>
</linearGradient>
<path fill="url(#SVGID_2_)" d="M9.878,43.632l0.913,9.611c0.58,2.499,9.52,4.56,21.209,4.56s20.627-2.061,21.209-4.56l0.912-9.611
	H9.878z"/>
<linearGradient id="SVGID_3_" gradientUnits="userSpaceOnUse" x1="6.7832" y1="21.021" x2="57.2256" y2="21.021">
	<stop  offset="0" style="stop-color:#E6EBEF;stop-opacity:0.5"/>
	<stop  offset="0.5" style="stop-color:#FFFFFF"/>
	<stop  offset="1" style="stop-color:#E6EBEF;stop-opacity:0.5"/>
	<a:midPointStop  offset="0" style="stop-color:#E6EBEF;stop-opacity:0.5"/>
	<a:midPointStop  offset="0.5" style="stop-color:#E6EBEF;stop-opacity:0.5"/>
	<a:midPointStop  offset="0.5" style="stop-color:#FFFFFF"/>
	<a:midPointStop  offset="0.5" style="stop-color:#FFFFFF"/>
	<a:midPointStop  offset="1" style="stop-color:#E6EBEF;stop-opacity:0.5"/>
</linearGradient>
<path fill="url(#SVGID_3_)" d="M32,11.169c-12.483,0-22.392-0.672-25.217-1.962l2.139,23.72h46.156l2.147-23.812
	C54.374,10.366,44.646,11.169,32,11.169z"/>
<linearGradient id="SVGID_4_" gradientUnits="userSpaceOnUse" x1="6.7266" y1="8.4546" x2="57.2734" y2="8.4546">
	<stop  offset="0" style="stop-color:#E6EBEF;stop-opacity:0.5"/>
	<stop  offset="0.5" style="stop-color:#FFFFFF"/>
	<stop  offset="1" style="stop-color:#E6EBEF;stop-opacity:0.5"/>
	<a:midPointStop  offset="0" style="stop-color:#E6EBEF;stop-opacity:0.5"/>
	<a:midPointStop  offset="0.5" style="stop-color:#E6EBEF;stop-opacity:0.5"/>
	<a:midPointStop  offset="0.5" style="stop-color:#FFFFFF"/>
	<a:midPointStop  offset="0.5" style="stop-color:#FFFFFF"/>
	<a:midPointStop  offset="1" style="stop-color:#E6EBEF;stop-opacity:0.5"/>
</linearGradient>
<path fill="url(#SVGID_4_)" d="M32,6.268c-17.082,0-25.273,1.181-25.273,2.316c0,1.137,11.316,2.058,25.273,2.058
	c13.959,0,25.273-0.921,25.273-2.058C57.273,7.448,49.082,6.268,32,6.268z"/>
<path opacity="0.3" fill="#42759E" d="M15.135,54.302c14.421,4.278,17.237,5.123,33.73-0.226
	C36.396,55.271,26.747,55.885,15.135,54.302z"/>
<radialGradient id="SVGID_5_" cx="8.7051" cy="47.4473" r="27.188" gradientTransform="matrix(0.9473 0 0 0.5778 24.0964 21.0027)" gradientUnits="userSpaceOnUse">
	<stop  offset="0" style="stop-color:#FFAC07"/>
	<stop  offset="0.1526" style="stop-color:#FBA807"/>
	<stop  offset="0.3108" style="stop-color:#F09B06"/>
	<stop  offset="0.4715" style="stop-color:#DD8705"/>
	<stop  offset="0.6341" style="stop-color:#C26A04"/>
	<stop  offset="0.798" style="stop-color:#A04402"/>
	<stop  offset="0.961" style="stop-color:#761701"/>
	<stop  offset="1" style="stop-color:#6B0B00"/>
	<a:midPointStop  offset="0" style="stop-color:#FFAC07"/>
	<a:midPointStop  offset="0.7" style="stop-color:#FFAC07"/>
	<a:midPointStop  offset="1" style="stop-color:#6B0B00"/>
</radialGradient>
<path fill="url(#SVGID_5_)" d="M10.02,45.853c1.069,8.946,42.89,8.946,43.957,0l1.102-12.926H8.922L10.02,45.853z"/>
<radialGradient id="SVGID_6_" cx="8.3428" cy="31.9395" r="24.3388" gradientTransform="matrix(0.9473 0 0 0.1259 24.0964 28.9054)" gradientUnits="userSpaceOnUse">
	<stop  offset="0" style="stop-color:#FFAC07"/>
	<stop  offset="0.1839" style="stop-color:#FCA807"/>
	<stop  offset="0.3745" style="stop-color:#F19B06"/>
	<stop  offset="0.5682" style="stop-color:#E08705"/>
	<stop  offset="0.764" style="stop-color:#C86A03"/>
	<stop  offset="0.9596" style="stop-color:#AA4501"/>
	<stop  offset="1" style="stop-color:#A33C00"/>
	<a:midPointStop  offset="0" style="stop-color:#FFAC07"/>
	<a:midPointStop  offset="0.7" style="stop-color:#FFAC07"/>
	<a:midPointStop  offset="1" style="stop-color:#A33C00"/>
</radialGradient>
<path fill="url(#SVGID_6_)" d="M32,30.342c-12.719,0-23.078,1.149-23.078,2.585C9.473,34.363,19.281,35.513,32,35.513
	s22.527-1.149,23.078-2.586C55.078,31.491,44.719,30.342,32,30.342z"/>
<linearGradient id="SVGID_7_" gradientUnits="userSpaceOnUse" x1="16.4209" y1="49.9678" x2="16.4209" y2="6.503">
	<stop  offset="0" style="stop-color:#FFFFFF;stop-opacity:0"/>
	<stop  offset="0.1142" style="stop-color:#FFFFFF;stop-opacity:0.1142"/>
	<stop  offset="1" style="stop-color:#FFFFFF"/>
	<a:midPointStop  offset="0" style="stop-color:#FFFFFF;stop-opacity:0"/>
	<a:midPointStop  offset="0.2303" style="stop-color:#FFFFFF;stop-opacity:0"/>
	<a:midPointStop  offset="1" style="stop-color:#FFFFFF"/>
</linearGradient>
<path opacity="0.3" fill="url(#SVGID_7_)" enable-background="new    " d="M10.159,11.789c0,0,2.052,24.399,2.702,34.497
	c0.081,1.267,9.825,5.087,9.821,3.138c-0.028-11.58-0.723-36.75-0.723-36.75S13.096,12.473,10.159,11.789z"/>
</svg>
