<?xml version="1.0" encoding="utf-8"?>
<!-- Generator: Adobe Illustrator 24.1.2, SVG Export Plug-In . SVG Version: 6.00 Build 0)  -->
<svg version="1.1" id="Layer_1" xmlns="http://www.w3.org/2000/svg" xmlns:xlink="http://www.w3.org/1999/xlink" x="0px" y="0px"
	 width="64px" height="64px" viewBox="0 0 64 64" style="enable-background:new 0 0 64 64;" xml:space="preserve">
<style type="text/css">
	.st0{fill:url(#SVGID_1_);}
	.st1{fill:#EA8800;}
	.st2{fill:#B3C2C6;}
	.st3{fill:#CFD8DD;}
	.st4{fill:#E6EBEF;}
	.st5{opacity:0.6;fill:#C2BFAF;}
	.st6{fill:#302C3B;}
	.st7{fill:url(#SVGID_2_);}
	.st8{opacity:0.1;fill:#1A1626;}
	.st9{fill:#9EACB0;}
	.st10{fill:#6E8189;}
	.st11{fill:#4E5E67;}
</style>
<radialGradient id="SVGID_1_" cx="116.5314" cy="-79.5313" r="6.245" gradientTransform="matrix(0.983 0 0 0.9829 -64.9737 112.6575)" gradientUnits="userSpaceOnUse">
	<stop  offset="0" style="stop-color:#FFAA00"/>
	<stop  offset="0.3422" style="stop-color:#FFA700"/>
	<stop  offset="0.5973" style="stop-color:#FF9D00"/>
	<stop  offset="0.8234" style="stop-color:#FF8D00"/>
	<stop  offset="1" style="stop-color:#FF7B00"/>
</radialGradient>
<path class="st0" d="M51.2,30.32c-2.76,0-5,2.24-5,5c0,2.76,2.24,4.99,5,5c2.77,0,5-2.24,5-5C56.2,32.56,53.96,30.32,51.2,30.32z"/>
<path class="st1" d="M52.65,34.48c0-1.26-1.02-2.28-2.29-2.29c-1.26,0-2.29,1.02-2.28,2.29c0,1.26,1.02,2.28,2.28,2.28
	C51.63,36.78,52.65,35.75,52.65,34.48z M50.37,36.64c-1.19,0-2.16-0.96-2.16-2.16c0-1.2,0.96-2.16,2.16-2.16s2.16,0.97,2.16,2.16
	C52.53,35.68,51.56,36.65,50.37,36.64z"/>
<path class="st2" d="M53.44,5.73c-2.05,0.63-3.08-0.27-3.43-1.9c-0.11-0.02-0.22-0.01-0.33-0.02c-0.15,2.08,2.16,3.47,4.26,2.29
	C53.77,5.97,53.61,5.85,53.44,5.73z"/>
<path class="st2" d="M58.27,10.56c-0.63,2.05,0.27,3.08,1.9,3.43c0.02,0.11,0.02,0.22,0.02,0.33c-2.08,0.15-3.47-2.16-2.29-4.26
	C58.02,10.22,58.15,10.39,58.27,10.56z"/>
<path class="st2" d="M57.49,9.85c-1.96-0.25-3-1.69-3.39-3.6C54,6.19,53.89,6.14,53.78,6.08c-0.07,2.16,2.2,4.69,4.2,4.39
	C57.82,10.27,57.66,10.07,57.49,9.85z"/>
<path class="st3" d="M58.87,19.45c0.16-0.19,0.33-0.36,0.5-0.54c-0.07-0.69-0.17-1.44-0.31-2.34c0.55-0.06,1.02-0.18,1.43-0.32
	c-0.05-0.17-0.11-0.34-0.15-0.52c-0.39,0.13-0.83,0.23-1.36,0.29c-0.09-0.55-0.41-2.46-0.41-2.46c0.4-0.1,0.73-0.25,1.03-0.42
	c-0.07-0.18-0.13-0.37-0.19-0.55c-0.28,0.17-0.59,0.32-0.98,0.42c-0.1-0.74-0.2-1.49-0.28-2.22c-0.2-0.18-0.4-0.37-0.6-0.55
	c-0.43,0.16-0.94,0.27-1.56,0.34c-0.05-0.83-0.05-1.49-0.01-2.08c-0.15-0.15-0.29-0.3-0.43-0.45c-0.59,0.04-1.27,0.04-2.1-0.01
	c0.07-0.6,0.19-1.1,0.34-1.53c-0.2-0.22-0.41-0.43-0.62-0.63C52.48,5.79,51.79,5.7,51,5.59c0.08-0.31,0.19-0.56,0.32-0.79
	c-0.17-0.08-0.34-0.18-0.5-0.28c-0.15,0.28-0.27,0.57-0.37,0.93c0,0-1.9-0.32-2.46-0.41c0.05-0.45,0.13-0.83,0.23-1.17
	c-0.18-0.04-0.36-0.06-0.55-0.08c-0.1,0.35-0.19,0.72-0.24,1.16c-0.83-0.13-1.54-0.22-2.19-0.29c-0.22,0.25-0.44,0.5-0.68,0.74
	c0.04,0.56,0.09,1.18,0.17,1.93c-0.5,0-0.96,0.02-1.41,0.05c-0.06,0.19-0.12,0.38-0.19,0.57c0.51-0.04,1.06-0.07,1.66-0.07
	c0.06,0.56,0.28,2.29,0.28,2.29c-0.6,0.03-1.17,0.1-1.69,0.18c-0.11-0.7-0.23-1.4-0.35-2.11c-0.12,0.33-0.25,0.66-0.41,0.98
	c0.07,0.41,0.14,0.84,0.2,1.25c-0.28,0.06-0.54,0.13-0.81,0.2c0.01,0.19,0.02,0.37,0.03,0.56c0.28-0.09,0.57-0.16,0.86-0.22
	c0.13,0.84,0.23,1.6,0.3,2.3c-0.47,0.11-0.92,0.25-1.35,0.41c-0.02-0.21-0.05-0.42-0.08-0.63c-0.18,0.08-0.36,0.16-0.54,0.24
	c0.02,0.21,0.05,0.42,0.08,0.62c-0.17,0.07-0.34,0.17-0.51,0.25c0,0.2,0.01,0.41,0.03,0.6c0.18-0.1,0.36-0.2,0.55-0.28
	c0.07,0.72,0.11,1.41,0.12,2.05c-0.36,0.15-0.74,0.32-1.12,0.52c0-0.29-0.02-0.6-0.04-0.9c-0.19,0.09-0.37,0.17-0.56,0.24
	c0.01,0.32,0.04,0.65,0.04,0.96c-0.39,0.21-1.44,0.82-1.44,0.82c-0.08,0.05-0.13,0.13-0.14,0.22c-0.05,0.68-0.15,1.33-0.29,1.97
	c-0.61,0.25-1.16,0.43-1.68,0.56c-0.09,0.02-0.16,0.08-0.19,0.17c-0.19,0.48-0.43,0.96-0.73,1.5c-0.26,0.02-0.52,0.03-0.78,0.03
	c-0.09,0.18-0.18,0.36-0.28,0.54c0.24,0.01,0.49,0.03,0.72,0.01c-0.1,0.17-1.17,2.11-1.34,2.43c0.13,0.25,0.26,0.5,0.39,0.75
	c0.62,0.03,1.21,0.02,1.81-0.04c-0.15,0.55-0.26,1.08-0.32,1.62l0.43,0.43c0.53-0.06,1.07-0.17,1.62-0.32
	c-0.05,0.54-0.07,1.08-0.05,1.64c0.26,0.18,0.52,0.36,0.78,0.55c0.32-0.16,2.24-1.23,2.4-1.32c-0.01,0.21,0,0.43,0.01,0.64
	c0.19-0.06,0.38-0.13,0.57-0.19c0-0.26-0.01-0.53,0.01-0.79c0.54-0.29,1.02-0.53,1.49-0.72c0.09-0.03,0.15-0.1,0.17-0.19
	c0.13-0.52,0.31-1.05,0.56-1.68c0.57-0.13,1.14-0.21,1.73-0.26c0.23-0.24,0.46-0.47,0.74-0.64c0.19-0.33,0.43-0.75,0.55-0.97
	c0.26,0,0.52,0,0.79,0.01c0.2-0.19,0.42-0.36,0.65-0.52c-0.39-0.03-0.78-0.05-1.14-0.06c0.19-0.38,0.37-0.76,0.52-1.12
	c0.65,0.01,1.33,0.05,2.05,0.12c-0.11,0.25-0.25,0.5-0.38,0.75c0.25-0.11,0.51-0.22,0.77-0.32c0.06-0.12,0.13-0.24,0.18-0.37
	c0.37,0.04,0.76,0.1,1.16,0.15c0.27-0.18,0.57-0.31,0.89-0.43c-0.64-0.1-1.25-0.19-1.82-0.26c0.16-0.43,0.3-0.88,0.41-1.35
	c0.69,0.08,1.45,0.18,2.31,0.3c-0.08,0.39-0.19,0.77-0.3,1.12c0.21-0.06,0.42-0.11,0.62-0.16c0.08-0.29,0.17-0.57,0.23-0.88
	c0.67,0.11,1.35,0.22,2.02,0.33c0.34-0.14,0.68-0.27,1.03-0.38c0.05-0.57,0.09-1.18,0.08-1.84C57.55,19.36,58.25,19.41,58.87,19.45z
	 M58.5,16.61c0.14,0.87,0.23,1.6,0.3,2.27c-0.6-0.03-1.27-0.09-2.12-0.18c-0.01-0.63-0.05-1.32-0.12-2.08
	C57.31,16.64,57.94,16.64,58.5,16.61z M53.28,15.81c0,0-1.5-0.1-2.15-0.13c-0.01-0.62-0.04-1.29-0.1-2.11
	c0.3,0.02,1.76,0.13,2.18,0.15C53.24,14.41,53.27,15.11,53.28,15.81z M53.77,13.83c0.58,0.02,1.27,0.03,1.94,0.01
	c0.06,0.71,0.12,1.41,0.16,2.11c-0.66-0.02-1.34-0.06-2.03-0.11C53.83,15.17,53.8,14.49,53.77,13.83z M43.14,22.33
	c0.14-0.47,0.27-0.93,0.38-1.37c0.52-0.11,1.05-0.2,1.59-0.26c-0.13,0.45-0.28,0.89-0.45,1.34C44.14,22.12,43.64,22.21,43.14,22.33z
	 M44.42,22.64c-0.17,0.41-0.35,0.78-0.5,1.12c-0.45,0.08-0.89,0.18-1.35,0.3c0.15-0.38,0.29-0.75,0.43-1.14
	C43.47,22.82,43.94,22.72,44.42,22.64z M41.96,19.34c0.45-0.18,0.9-0.32,1.34-0.45c-0.06,0.54-0.15,1.07-0.26,1.59
	c-0.44,0.1-0.9,0.23-1.37,0.37C41.79,20.36,41.88,19.85,41.96,19.34z M41.07,21c-0.38,0.14-0.76,0.29-1.13,0.43
	c0.12-0.45,0.22-0.9,0.3-1.35c0.34-0.16,0.72-0.34,1.12-0.5C41.28,20.06,41.19,20.53,41.07,21z M46.13,16.1
	c0.57-0.04,1.18-0.07,1.83-0.07c0,0.65-0.02,1.27-0.07,1.84c-0.64,0-1.25,0.02-1.83,0.06C46.12,17.35,46.14,16.74,46.13,16.1z
	 M45.2,20.12c-0.52,0.06-1.04,0.13-1.55,0.23c0.1-0.51,0.18-1.03,0.23-1.55c0.5-0.11,1.03-0.19,1.57-0.25
	C45.39,19.09,45.3,19.61,45.2,20.12z M48.52,15.48c-0.01-0.62-0.04-1.29-0.1-2.04c0.6,0.02,1.26,0.05,2.04,0.1
	c0.05,0.8,0.08,1.44,0.1,2.04C49.81,15.52,49.14,15.49,48.52,15.48z M47.96,15.48c-0.67,0-1.31,0.02-1.89,0.07
	c0-0.64-0.02-1.32-0.07-2.07c0.57-0.06,1.19-0.1,1.86-0.11C47.91,14.14,47.95,14.84,47.96,15.48z M45.57,16.1
	c0,0.66-0.02,1.29-0.07,1.89c-0.55,0.06-1.1,0.14-1.62,0.25c0.06-0.59,0.09-1.2,0.1-1.84C44.48,16.27,45.02,16.17,45.57,16.1z
	 M42.9,21.09c-0.1,0.43-0.23,0.86-0.38,1.33c-0.41,0.1-0.83,0.21-1.3,0.35c0.14-0.47,0.25-0.89,0.35-1.3
	C42.04,21.33,42.48,21.2,42.9,21.09z M46.02,18.5c0.59-0.05,1.22-0.07,1.89-0.07c-0.08,0.55-0.18,1.08-0.31,1.59
	c-0.64,0.01-1.25,0.04-1.84,0.1C45.87,19.6,45.96,19.06,46.02,18.5z M48.52,16.04c0.64,0.02,1.33,0.05,2.12,0.1
	c-0.02,0.67-0.05,1.29-0.11,1.86c-0.75-0.04-1.44-0.06-2.08-0.06C48.5,17.34,48.52,16.71,48.52,16.04z M50.99,13.01
	c-0.02-0.33-0.13-1.73-0.15-2.1c0,0,1.45,0.11,2.1,0.15c0.04,0.65,0.15,2.11,0.15,2.11C52.72,13.13,51.32,13.03,50.99,13.01z
	 M50.42,12.97c-0.81-0.05-1.49-0.08-2.11-0.1c-0.03-0.66-0.13-2.15-0.13-2.15c0.7,0.02,1.4,0.05,2.09,0.08
	C50.3,11.22,50.4,12.67,50.42,12.97z M48.15,10.16c-0.04-0.7-0.08-1.38-0.1-2.04c0.69,0.05,1.4,0.1,2.11,0.16
	c-0.02,0.68-0.01,1.36,0.01,1.94C49.51,10.2,48.83,10.17,48.15,10.16z M47.63,10.71c0,0,0.09,1.46,0.13,2.08
	c-0.64,0.02-1.23,0.05-1.79,0.11c-0.05-0.75-0.12-1.49-0.18-2.14C46.34,10.72,46.96,10.71,47.63,10.71z M45.44,13.53
	c0.04,0.72,0.06,1.38,0.06,2c-0.52,0.07-1.04,0.17-1.52,0.29c0-0.63-0.03-1.3-0.09-2.01C44.38,13.69,44.9,13.6,45.44,13.53z
	 M43.42,16.55c-0.01,0.61-0.05,1.19-0.11,1.75c-0.42,0.12-0.85,0.25-1.28,0.41c0.06-0.55,0.1-1.12,0.11-1.71
	C42.56,16.83,42.99,16.68,43.42,16.55z M41.44,18.94c-0.42,0.17-0.81,0.35-1.17,0.51c0.07-0.56,0.11-1.13,0.13-1.72
	c0.4-0.22,0.79-0.4,1.17-0.56C41.55,17.78,41.51,18.38,41.44,18.94z M39.6,20.32L39.6,20.32c-0.09,0.45-0.19,0.91-0.33,1.38
	c-0.37,0.14-0.78,0.29-1.21,0.44c0.15-0.45,0.28-0.89,0.38-1.31C38.84,20.66,39.22,20.49,39.6,20.32z M39.07,22.37
	c-0.12,0.37-0.25,0.75-0.4,1.17c-0.47,0.15-0.87,0.27-1.25,0.36c0.16-0.37,0.32-0.74,0.47-1.12C38.3,22.65,38.7,22.51,39.07,22.37z
	 M39.74,22.12c0,0,0.89-0.34,1.22-0.46c-0.11,0.4-0.23,0.84-0.38,1.32c-0.21,0.07-1.05,0.34-1.26,0.41
	C39.47,22.95,39.61,22.53,39.74,22.12z M40.37,23.63c-0.03,0.09-0.29,0.9-0.39,1.23c0,0-0.84,0.28-1.24,0.4
	c0.12-0.4,0.41-1.24,0.41-1.24C39.47,23.92,40.28,23.66,40.37,23.63z M41.03,23.42c0.48-0.15,0.92-0.27,1.32-0.37
	c-0.12,0.3-0.47,1.21-0.47,1.21c-0.41,0.13-0.83,0.26-1.26,0.42C40.69,24.48,40.96,23.64,41.03,23.42z M41.63,24.93
	c-0.14,0.37-0.28,0.77-0.41,1.18c-0.38,0.15-0.75,0.31-1.11,0.47c0.09-0.38,0.21-0.79,0.36-1.25
	C40.88,25.18,41.25,25.05,41.63,24.93z M42.31,24.72c0.47-0.14,0.93-0.24,1.38-0.33l-0.01,0.02c-0.17,0.38-0.33,0.75-0.49,1.14
	c-0.42,0.1-0.86,0.23-1.31,0.39C42.02,25.5,42.16,25.09,42.31,24.72z M45.06,22.56c0.57-0.07,1.16-0.11,1.76-0.13
	c-0.16,0.38-0.34,0.77-0.56,1.17c-0.59,0.01-1.16,0.06-1.72,0.13C44.71,23.37,44.89,22.98,45.06,22.56z M45.29,21.96
	c0.16-0.43,0.29-0.85,0.41-1.28c0.56-0.06,1.14-0.09,1.76-0.1c-0.13,0.43-0.29,0.86-0.46,1.28C46.41,21.87,45.84,21.9,45.29,21.96z
	 M48.47,18.49c0.62,0,1.28,0.02,2,0.06c-0.07,0.54-0.16,1.06-0.28,1.54c-0.71-0.05-1.38-0.08-2.01-0.09
	C48.3,19.53,48.4,19.02,48.47,18.49z M51.2,16.24c0.61,0.03,2.08,0.13,2.08,0.13c0,0.68-0.01,1.28-0.05,1.85
	c-0.72-0.07-1.44-0.13-2.14-0.18C51.15,17.48,51.19,16.89,51.2,16.24z M53.85,16.4c0.73,0.05,1.44,0.09,2.14,0.11
	c0.07,0.79,0.11,1.49,0.12,2.12c-0.52-0.06-2.32-0.29-2.32-0.29C53.83,17.75,53.85,17.11,53.85,16.4z M57.99,13.58
	c0,0,0.33,1.93,0.41,2.47c-0.56,0.03-1.19,0.03-1.96-0.01c-0.05-0.73-0.11-1.48-0.17-2.24C56.93,13.77,57.5,13.7,57.99,13.58z
	 M57.57,10.82c0.08,0.73,0.18,1.5,0.28,2.23c-0.46,0.1-1,0.17-1.62,0.21c-0.06-0.68-0.11-1.41-0.15-2.13
	C56.65,11.06,57.14,10.96,57.57,10.82z M55.52,11.1c0.04,0.73,0.09,1.48,0.15,2.18c-0.7,0.02-1.41,0.01-2-0.02
	c0,0-0.12-1.55-0.15-2.18C54.29,11.12,54.94,11.13,55.52,11.1z M55.39,8.61c-0.03,0.56-0.02,1.19,0.02,1.94
	c-0.55,0.02-1.18,0.01-1.94-0.02c-0.04-0.76-0.04-1.39-0.02-1.94C54.2,8.63,54.83,8.63,55.39,8.61z M52.91,10.49
	c-0.63-0.04-2.18-0.15-2.18-0.15c-0.02-0.59-0.03-1.3-0.01-2.01c0.7,0.06,1.44,0.12,2.18,0.15C52.87,9.05,52.88,9.71,52.91,10.49z
	 M53.18,6.43c-0.14,0.43-0.24,0.92-0.31,1.5c-0.71-0.04-1.45-0.1-2.12-0.15c0.03-0.63,0.1-1.16,0.2-1.63
	C51.77,6.26,52.49,6.36,53.18,6.43z M50.42,6c-0.11,0.49-0.19,1.06-0.23,1.72c-0.75-0.06-1.5-0.12-2.24-0.17
	c-0.04-0.77-0.04-1.4,0-1.96C48.49,5.68,50.42,6,50.42,6z M45.3,7.32c-0.09-0.85-0.15-1.52-0.18-2.12c0.66,0.07,1.4,0.17,2.27,0.3
	c-0.03,0.56-0.03,1.19,0,1.93C46.61,7.37,45.93,7.33,45.3,7.32z M45.37,7.89C46,7.9,46.7,7.94,47.49,8.01
	c0.02,0.7,0.06,1.41,0.11,2.14c-0.71,0-1.35,0.02-1.94,0.06C45.66,10.21,45.43,8.41,45.37,7.89z M43.48,10.91
	c0.53-0.09,1.11-0.15,1.73-0.19c0.07,0.69,0.14,1.46,0.19,2.25c-0.57,0.07-1.11,0.17-1.61,0.29C43.71,12.55,43.61,11.77,43.48,10.91
	z M41.95,14.31c0.44-0.17,0.91-0.32,1.39-0.44c0.05,0.75,0.08,1.45,0.09,2.1c-0.46,0.13-0.9,0.28-1.34,0.46
	C42.07,15.76,42.02,15.05,41.95,14.31z M38.81,18.63c0,0,0.73-0.42,1.02-0.59c-0.03,0.55-0.07,1.1-0.14,1.62
	c0,0-0.83,0.37-1.09,0.48C38.7,19.65,38.77,19.14,38.81,18.63z M36.57,21.48c0.4-0.11,0.8-0.23,1.24-0.4
	c-0.11,0.39-0.23,0.79-0.38,1.21c-0.48,0.13-0.93,0.22-1.37,0.28C36.26,22.19,36.42,21.83,36.57,21.48z M35.11,24.22
	c0.04-0.07,0.08-0.14,0.12-0.21c0.16-0.27,0.33-0.56,0.49-0.84c0.49-0.05,0.99-0.14,1.5-0.26c-0.16,0.37-0.31,0.74-0.47,1.1
	l-0.02,0.03C36.19,24.14,35.65,24.19,35.11,24.22z M34.22,25.86c0.19-0.38,0.4-0.74,0.61-1.07c0.55,0,1.09-0.05,1.64-0.13
	c-0.16,0.38-0.31,0.75-0.46,1.14C35.42,25.87,34.83,25.89,34.22,25.86z M37.14,24.53c0.42-0.09,0.88-0.21,1.37-0.36
	c-0.14,0.42-0.28,0.84-0.4,1.27c-0.52,0.15-1,0.24-1.47,0.32C36.79,25.35,36.96,24.94,37.14,24.53z M36.16,27.84
	c0.07-0.49,0.17-0.97,0.32-1.48c0.47-0.06,0.94-0.15,1.44-0.28c-0.13,0.5-0.22,0.98-0.28,1.44C37.13,27.67,36.65,27.78,36.16,27.84z
	 M38.24,27.37c0.07-0.47,0.17-0.95,0.31-1.47c0.43-0.12,0.85-0.26,1.28-0.4c-0.15,0.49-0.27,0.94-0.36,1.37
	C39.06,27.04,38.65,27.21,38.24,27.37z M38.14,29.77c-0.03-0.61-0.01-1.2,0.06-1.79c0.39-0.14,0.77-0.3,1.14-0.46
	c-0.09,0.55-0.13,1.09-0.13,1.64C38.88,29.37,38.52,29.58,38.14,29.77z M40,28.76c-0.07,0.04-0.15,0.09-0.22,0.13
	c0.02-0.55,0.07-1.09,0.17-1.63l0.05-0.02c0.36-0.16,0.72-0.31,1.08-0.46c-0.12,0.51-0.21,1.01-0.26,1.5
	C40.56,28.44,40.28,28.6,40,28.76z M42.52,27.43c-0.35,0.15-0.71,0.31-1.09,0.51c0.06-0.45,0.16-0.89,0.28-1.37
	c0.42-0.15,0.82-0.28,1.21-0.38C42.76,26.63,42.63,27.03,42.52,27.43z M45.96,24.17c-0.16,0.29-0.59,1.02-0.59,1.02
	c-0.52,0.04-1.02,0.11-1.52,0.21c0.11-0.25,0.22-0.51,0.34-0.76l0.15-0.32C44.86,24.24,45.41,24.19,45.96,24.17z M49.69,22.05
	c-0.74-0.08-1.45-0.12-2.12-0.14c0.17-0.44,0.33-0.89,0.46-1.34c0.65,0,1.35,0.03,2.1,0.09C50.01,21.15,49.86,21.61,49.69,22.05z
	 M50.74,20.21c0.12-0.51,0.22-1.05,0.29-1.61c0.74,0.05,1.49,0.11,2.25,0.19c-0.03,0.61-0.09,1.19-0.19,1.73
	C52.22,20.39,51.44,20.29,50.74,20.21z M56.05,21l-0.11-0.02c-0.77-0.13-1.54-0.26-2.29-0.38c0.08-0.53,0.15-1.09,0.18-1.69
	c0,0,1.75,0.22,2.29,0.28C56.13,19.84,56.11,20.44,56.05,21z"/>
<rect x="-0.86" y="45.29" transform="matrix(0.7071 -0.7071 0.7071 0.7071 -27.1426 26.2472)" class="st3" width="37.95" height="1.2"/>
<rect x="-1.57" y="44.78" transform="matrix(0.7071 -0.7071 0.7071 0.7071 -26.8512 25.5438)" class="st4" width="37.95" height="0.8"/>
<rect x="-0.16" y="46.2" transform="matrix(0.7071 -0.7071 0.7071 0.7071 -27.4362 26.9556)" class="st2" width="37.95" height="0.8"/>
<path class="st5" d="M29.08,36.89c0,0-1.12-0.79-1.99-1.95l-1.11,1.12c0,0,0.86,1.11,1.99,1.95L29.08,36.89z"/>
<path class="st5" d="M20.05,45.92c0,0-0.9-1.06-1.99-1.95L4.85,57.18l1.97,1.97L20.05,45.92z"/>
<path class="st6" d="M4.86,57.16c-1.52,1.28-2.27,1.8-2.27,1.8s-0.28-0.08-0.46,0.09c-0.14,0.14-0.08,0.32-0.08,0.32
	c-0.2,0.2,0.21,0.94,0.93,1.65c0.71,0.72,1.45,1.13,1.65,0.93c0,0,0.18,0.06,0.32-0.08c0.18-0.18,0.09-0.46,0.09-0.46
	s0.53-0.75,1.81-2.27L4.86,57.16z"/>
<linearGradient id="SVGID_2_" gradientUnits="userSpaceOnUse" x1="-67.512" y1="-50.6261" x2="-63.9677" y2="-50.6261" gradientTransform="matrix(0.7071 0.7071 -0.7071 0.7071 15.5116 141.4582)">
	<stop  offset="0" style="stop-color:#E6EBED"/>
	<stop  offset="0.2532" style="stop-color:#DFE4E7"/>
	<stop  offset="0.6149" style="stop-color:#CCD2D4"/>
	<stop  offset="1" style="stop-color:#B1B7BA"/>
</linearGradient>
<path class="st7" d="M5.91,58.09c-0.56-0.56-0.88-1.1-0.91-1.13c-0.02-0.02-0.05-0.01-0.07,0.01c0,0-0.27,0.24-0.36,0.33
	c-0.07,0.06-0.26,0.05-0.36,0.14c-0.55,0.47-1.54,1.38-1.58,1.42c-0.05,0.05-0.04,0.07-0.04,0.09c0,0.09,0.27,0.65,1.03,1.4
	c0,0.01,0.01,0.01,0.01,0.01c0.01,0.01,0.01,0.01,0.02,0.02c0.75,0.75,1.31,1.02,1.4,1.02c0.02,0,0.04,0.01,0.09-0.04
	c0.04-0.04,0.95-1.03,1.42-1.58c0.09-0.1,0.08-0.3,0.14-0.37c0.09-0.09,0.32-0.36,0.32-0.36c0.02-0.01,0.03-0.05,0.01-0.07
	C7.02,58.97,6.49,58.67,5.91,58.09z"/>
<path class="st8" d="M9.32,56.65c0,0-1.26-0.65-2.28-1.67l-1.12,1.13c0,0,1.01,0.96,2.28,1.66L9.32,56.65z"/>
<path class="st8" d="M11.46,54.5c0,0-1.26-0.65-2.27-1.66l-1.12,1.12c0,0,1,0.97,2.27,1.67L11.46,54.5z"/>
<path class="st8" d="M13.61,52.36c0,0-1.26-0.65-2.27-1.67l-1.12,1.13c0,0,1,0.97,2.27,1.67L13.61,52.36z"/>
<path class="st8" d="M15.75,50.22c0,0-1.26-0.65-2.27-1.67l-1.12,1.13c0,0,1,0.97,2.28,1.67L15.75,50.22z"/>
<path class="st8" d="M17.89,48.07c0,0-1.25-0.65-2.27-1.67l-1.12,1.13c0,0,1,0.97,2.27,1.67L17.89,48.07z"/>
<path class="st8" d="M20.04,45.93c0,0-1.26-0.65-2.28-1.67l-1.12,1.13c0,0,1.01,0.97,2.28,1.67L20.04,45.93z"/>
<path class="st2" d="M46.42,7.43c-1.92-1.03-2.07-2.06-4.06-1.95C42.55,6.31,44.83,7.49,46.42,7.43z"/>
<path class="st9" d="M48.02,8.2c-1.8-1.18-1.87-2.23-3.81-2.28C44.32,6.77,46.46,8.13,48.02,8.2z"/>
<path class="st2" d="M49.53,9.09c-1.68-1.33-1.65-2.39-3.55-2.59C46.02,7.38,48,8.91,49.53,9.09z"/>
<path class="st9" d="M50.95,10.11c-1.54-1.47-1.43-2.54-3.28-2.88C47.63,8.11,49.46,9.81,50.95,10.11z"/>
<path class="st2" d="M52.26,11.25c-1.41-1.6-1.21-2.67-3-3.15C49.16,8.98,50.82,10.82,52.26,11.25z"/>
<path class="st9" d="M53.47,12.49c-1.26-1.72-0.99-2.79-2.71-3.41C50.59,9.96,52.08,11.95,53.47,12.49z"/>
<path class="st2" d="M52.16,10.19c-0.23,0.87,1.07,3,2.41,3.65C53.45,12.01,53.81,10.95,52.16,10.19z"/>
<path class="st9" d="M55.54,15.3c-0.96-1.95-0.53-2.99-2.09-3.88C53.15,12.29,54.28,14.53,55.54,15.3z"/>
<path class="st2" d="M56.39,16.85c-0.79-2.05-0.29-3.06-1.77-4.09C54.26,13.61,55.21,15.97,56.39,16.85z"/>
<path class="st9" d="M57.11,18.49c-0.63-2.14-0.06-3.13-1.43-4.29C55.26,15.04,56.01,17.5,57.11,18.49z"/>
<path class="st2" d="M57.7,20.22c-0.45-2.23,0.18-3.18-1.08-4.46C56.13,16.57,56.69,19.12,57.7,20.22z"/>
<path class="st9" d="M57.94,21.1c0.35-0.82,0.62-2.3-0.52-3.7C56.88,18.18,57.03,19.9,57.94,21.1z"/>
<path class="st2" d="M44.42,11.24c-1.79-0.5-2.49-1.46-4-0.61C41.12,11.31,43.24,11.69,44.42,11.24z"/>
<path class="st9" d="M45.88,11.61c-1.68-0.76-2.2-1.8-3.78-1.23C42.66,11.17,44.64,11.88,45.88,11.61z"/>
<path class="st2" d="M47.27,12.19c-1.55-0.99-1.89-2.09-3.51-1.77C44.17,11.28,46,12.27,47.27,12.19z"/>
<path class="st9" d="M48.56,12.96c-1.39-1.18-1.56-2.31-3.2-2.24C45.63,11.62,47.27,12.86,48.56,12.96z"/>
<path class="st2" d="M49.73,13.9c-1.21-1.36-1.21-2.49-2.84-2.66C47.02,12.17,48.46,13.61,49.73,13.9z"/>
<path class="st9" d="M50.77,15c-1.01-1.51-0.85-2.61-2.44-3.01C48.31,12.9,49.54,14.52,50.77,15z"/>
<path class="st2" d="M49.65,12.91c-0.16,0.89,0.83,2.65,2,3.31C50.86,14.59,51.18,13.55,49.65,12.91z"/>
<path class="st9" d="M52.35,17.55c-0.56-1.72-0.08-2.69-1.53-3.54C50.54,14.86,51.28,16.73,52.35,17.55z"/>
<path class="st2" d="M52.86,18.99c-0.3-1.79,0.31-2.67-1.01-3.72C51.44,16.05,51.9,18,52.86,18.99z"/>
<path class="st9" d="M53.14,20.49c-0.02-1.84,0.72-2.6-0.45-3.84C52.16,17.36,52.35,19.35,53.14,20.49z"/>
<path class="st2" d="M53.2,22.04c0.27-1.86,1.13-2.49,0.14-3.9C52.7,18.76,52.58,20.76,53.2,22.04z"/>
<path class="st9" d="M53.21,22.77c0.44-0.81,1.31-1.49,0.54-3.05C53.03,20.23,52.82,21.35,53.21,22.77z"/>
<path class="st3" d="M34.57,20.91c-1.45-0.32-2.81-0.03-4.27,0.01c-0.16,0.01-0.23-0.62-0.04-0.64c0.77-0.1,3.16-0.28,4.62,0.04
	L34.57,20.91z"/>
<path class="st3" d="M34.65,21.31c-1.14-0.09-4.19,1.77-5.27,2.3c-0.15,0.07-0.45-0.5-0.31-0.6c0.85-0.57,4.61-2.43,5.75-2.34
	L34.65,21.31z"/>
<path class="st2" d="M35.22,20.31c-0.58-0.71-1.75,1.46-0.88,1.21C35.08,22.78,36.39,19.81,35.22,20.31z"/>
<path class="st3" d="M42.23,6.01c-1.45-0.32-2.74-0.08-4.1,0.44c-0.15,0.06-0.43-0.5-0.25-0.59c1.4-0.72,2.58-0.91,4.66-0.44
	L42.23,6.01z"/>
<path class="st3" d="M42.27,5.66c-0.55-1-1.38-1.43-2.56-1.68c-0.16-0.03-0.05-0.68,0.12-0.66c1.43,0.1,2.44,1,3.06,2.13L42.27,5.66
	z"/>
<path class="st2" d="M42.9,5.01c-0.59-0.7-1.76,1.46-0.88,1.21C42.76,7.48,44.07,4.51,42.9,5.01z"/>
<path class="st3" d="M40.96,10.28c-1.36-0.6-3.45,0-4.82,0.51c-0.15,0.06,0.01,0.66,0.21,0.61c0.76-0.19,3.15-1.06,4.51-0.46
	L40.96,10.28z"/>
<path class="st3" d="M40.78,10.58c-1.04,0.49-2,1.23-2.72,2.2c-0.1,0.13,0.41,0.54,0.53,0.42c0.72-0.72,1.53-1.58,2.57-2.07
	L40.78,10.58z"/>
<path class="st2" d="M40.91,11.49c-0.89,0.22-0.54-2.22,0.01-1.5C42.25,9.41,41.55,12.58,40.91,11.49z"/>
<path class="st10" d="M57.55,6.45c-6.72-6.72-15.18-6.56-16.66,5.59c-0.29,2.42-2.96,6.08-6.96,10.09
	c-2.59,2.59-0.85,4.81-1.95,6.22c-1.57,2.01-3.48,3.88-1.84,5.51c1.63,1.64,3.49-0.28,5.51-1.85c1.41-1.1,3.64,0.65,6.22-1.94
	c4.01-4.01,7.67-6.67,10.08-6.96C64.12,21.63,64.27,13.17,57.55,6.45z M54.5,6.05c-0.33,0.38-1.16-0.35-0.83-0.72
	C54,4.94,54.83,5.67,54.5,6.05z M58.68,10.33c-0.38,0.33-1.11-0.5-0.73-0.84C58.33,9.16,59.06,10,58.68,10.33z M50.23,3.58
	c-0.27,0.42-1.2-0.17-0.93-0.6C49.58,2.56,50.51,3.16,50.23,3.58z M61.02,14.69c-0.43,0.27-1.02-0.66-0.6-0.93
	C60.84,13.49,61.44,14.42,61.02,14.69z M35.95,28.05c-1.65-1.65-2.14-4.46,0.18-6.79c5.48-5.49,5.86-7.89,6.17-9.88
	c1.57-10.03,7.57-8.75,13.31-3c5.75,5.75,7.02,11.74-3,13.31c-1.99,0.31-4.39,0.68-9.87,6.17C40.41,30.2,37.6,29.71,35.95,28.05z"/>
<path class="st11" d="M31.03,32.97c-0.35-0.35-0.18-1.24,0.89-2.31c1.07-1.07,1.96-1.24,2.31-0.89c0.35,0.35,0.17,1.24-0.89,2.31
	C32.27,33.15,31.39,33.33,31.03,32.97z"/>
<path class="st2" d="M49.92,3.19c-0.72-0.19-1.13,0.77-1.24,1.05c-0.07,0.16,1.05,0.71,1.13,0.57C50.02,4.46,50.13,3.25,49.92,3.19z
	 M49.12,4.11c0.17-0.25,0.36-0.46,0.64-0.62c0.03,0.32-0.02,0.6-0.11,0.89C49.5,4.38,49.29,4.3,49.12,4.11z"/>
<path class="st2" d="M54.14,5.72c-0.22-0.06-1.06,0.24-1.28,0.63c-0.07,0.12,1,0.9,1.09,0.79C54.25,6.79,54.35,5.78,54.14,5.72z
	 M53.32,6.33C53.5,6.14,53.71,6,54,5.93c0.01,0.29-0.06,0.53-0.18,0.77C53.67,6.67,53.46,6.55,53.32,6.33z"/>
<path class="st2" d="M59.19,14.19c-0.14,0.09,0.41,1.19,0.57,1.13c0.28-0.11,1.23-0.52,1.05-1.24
	C60.75,13.87,59.54,13.98,59.19,14.19z M59.63,14.35c0.29-0.1,0.57-0.15,0.89-0.11c-0.17,0.27-0.37,0.46-0.62,0.64
	C59.7,14.71,59.61,14.5,59.63,14.35z"/>
<path class="st2" d="M56.87,10.05c-0.11,0.09,0.66,1.16,0.79,1.09c0.39-0.23,0.69-1.07,0.62-1.28C58.22,9.64,57.2,9.75,56.87,10.05z
	 M57.3,10.18c0.24-0.12,0.48-0.19,0.77-0.18c-0.08,0.28-0.22,0.49-0.41,0.68C57.45,10.54,57.33,10.33,57.3,10.18z"/>
<path class="st6" d="M34.59,27.25c-0.01-0.01,0.78,1.33,2.18,2.16c0.27-0.02,0.64-0.19,0.88-0.26c0.02,0.04-1.98-0.84-2.8-2.8
	C34.78,26.59,34.61,26.98,34.59,27.25z"/>
</svg>
