<?xml version="1.0" encoding="utf-8"?>
<!-- Generator: Adobe Illustrator 24.1.2, SVG Export Plug-In . SVG Version: 6.00 Build 0)  -->
<svg version="1.1" id="Layer_1" xmlns="http://www.w3.org/2000/svg" xmlns:xlink="http://www.w3.org/1999/xlink" x="0px" y="0px"
	 width="64px" height="64px" viewBox="0 0 64 64" style="enable-background:new 0 0 64 64;" xml:space="preserve">
<style type="text/css">
	.st0{fill:url(#SVGID_1_);}
	.st1{fill:url(#SVGID_2_);}
	.st2{fill:url(#SVGID_3_);}
	.st3{fill:#B3C2C6;}
	.st4{fill:url(#SVGID_4_);}
	.st5{fill:url(#SVGID_5_);}
	.st6{fill:url(#SVGID_6_);}
	.st7{fill:#6E8189;}
	.st8{fill:url(#SVGID_7_);}
	.st9{fill:url(#SVGID_8_);}
	.st10{fill:#EFF9FF;}
</style>
<linearGradient id="SVGID_1_" gradientUnits="userSpaceOnUse" x1="24.002" y1="15.9329" x2="42.002" y2="15.9329">
	<stop  offset="0" style="stop-color:#FF000E"/>
	<stop  offset="0.7283" style="stop-color:#DD0004"/>
	<stop  offset="1" style="stop-color:#CF0000"/>
</linearGradient>
<polygon class="st0" points="36,2 24,29.87 29,29.87 42,2 "/>
<linearGradient id="SVGID_2_" gradientUnits="userSpaceOnUse" x1="34.002" y1="15.9329" x2="54" y2="15.9329">
	<stop  offset="0" style="stop-color:#005687"/>
	<stop  offset="0.2619" style="stop-color:#0B669B"/>
	<stop  offset="0.7365" style="stop-color:#1C7FBB"/>
	<stop  offset="1" style="stop-color:#2289C7"/>
</linearGradient>
<polygon class="st1" points="48,2 34,29.87 40,29.87 54,2 "/>
<linearGradient id="SVGID_3_" gradientUnits="userSpaceOnUse" x1="29.002" y1="15.9329" x2="48.002" y2="15.9329">
	<stop  offset="0.3333" style="stop-color:#EEF2F5"/>
	<stop  offset="0.647" style="stop-color:#E4E8EA"/>
	<stop  offset="1" style="stop-color:#D4D7D9"/>
</linearGradient>
<polygon class="st2" points="42,2 29,29.87 34,29.87 48,2 "/>
<path class="st3" d="M40,27.88H24c0,0-4,0-4,3.98v3.98h2v-3.98c0-1.99,2-1.99,2-1.99h16c0,0,2,0,2,1.99v3.98h2v-3.98
	C44,27.88,40,27.88,40,27.88z"/>
<linearGradient id="SVGID_4_" gradientUnits="userSpaceOnUse" x1="22.002" y1="15.9329" x2="40.002" y2="15.9329">
	<stop  offset="0" style="stop-color:#005687"/>
	<stop  offset="0.2619" style="stop-color:#0B669B"/>
	<stop  offset="0.7365" style="stop-color:#1C7FBB"/>
	<stop  offset="1" style="stop-color:#2289C7"/>
</linearGradient>
<polygon class="st4" points="28,2 22,2 34,29.87 40,29.87 "/>
<linearGradient id="SVGID_5_" gradientUnits="userSpaceOnUse" x1="10" y1="15.9329" x2="29.002" y2="15.9329">
	<stop  offset="0" style="stop-color:#CF0000"/>
	<stop  offset="0.2717" style="stop-color:#DD0004"/>
	<stop  offset="1" style="stop-color:#FF000E"/>
</linearGradient>
<polygon class="st5" points="16,2 10,2 24,29.87 29,29.87 "/>
<radialGradient id="SVGID_6_" cx="25.002" cy="17.3113" r="11.7687" gradientTransform="matrix(1 0 0 0.9952 0 -1.2953)" gradientUnits="userSpaceOnUse">
	<stop  offset="0.3333" style="stop-color:#EEF2F5"/>
	<stop  offset="0.647" style="stop-color:#E4E8EA"/>
	<stop  offset="1" style="stop-color:#D4D7D9"/>
</radialGradient>
<polygon class="st6" points="29,29.87 34,29.87 22,2 16,2 "/>
<ellipse class="st7" cx="32" cy="46.08" rx="16" ry="15.92"/>
<linearGradient id="SVGID_7_" gradientUnits="userSpaceOnUse" x1="44.0474" y1="57.2167" x2="44.0474" y2="29.352" gradientTransform="matrix(1.1429 0 0 1.1429 -18.3418 -3.6806)">
	<stop  offset="0" style="stop-color:#BACCD4"/>
	<stop  offset="0.2826" style="stop-color:#CDDCE4"/>
	<stop  offset="0.7282" style="stop-color:#E6F1F8"/>
	<stop  offset="1" style="stop-color:#EFF9FF"/>
</linearGradient>
<ellipse class="st8" cx="32" cy="45.79" rx="16" ry="15.92"/>
<path class="st7" d="M32,31.05c8.01,0,14.5,6.46,14.5,14.43c0,7.97-6.49,14.43-14.5,14.43c-8.01,0-14.5-6.46-14.5-14.43
	C17.5,37.51,23.99,31.05,32,31.05z"/>
<radialGradient id="SVGID_8_" cx="44.0474" cy="44.7132" r="12.6873" gradientTransform="matrix(0.8082 0.8043 -1.6163 1.6085 68.6731 -61.5719)" gradientUnits="userSpaceOnUse">
	<stop  offset="0" style="stop-color:#B8C0C4"/>
	<stop  offset="0.249" style="stop-color:#B2BBBF"/>
	<stop  offset="0.5798" style="stop-color:#A1ABB0"/>
	<stop  offset="0.9552" style="stop-color:#869297"/>
	<stop  offset="1" style="stop-color:#828F94"/>
</radialGradient>
<path class="st9" d="M32,31.35c8.01,0,14.5,6.46,14.5,14.43S40.01,60.21,32,60.21c-8.01,0-14.5-6.46-14.5-14.43
	S23.99,31.35,32,31.35z"/>
<path class="st7" d="M31.31,50.27l3.55-3.71c0.89-0.94,1.52-1.8,1.9-2.56c0.38-0.76,0.57-1.61,0.57-2.54c0-0.88-0.22-1.65-0.65-2.31
	c-0.44-0.66-1.06-1.16-1.87-1.51c-0.81-0.35-1.76-0.53-2.84-0.53c-1.02,0-2.03,0.16-3.02,0.47c-0.99,0.32-1.52,3.49-1.52,3.49
	l0.19,0.28c0.71-0.5,1.42-0.88,2.12-1.14c0.7-0.26,1.39-0.39,2.05-0.39c0.7,0,1.23,0.15,1.6,0.46c0.37,0.31,0.55,0.77,0.55,1.39
	c0,0.52-0.14,1.03-0.41,1.56c-0.27,0.52-0.68,1.09-1.23,1.69l-5.45,7.83l0.19,0.28h10.85v-2.76l-0.19-0.28L31.31,50.27z"/>
<path class="st10" d="M31.12,49.99l3.55-3.71c0.89-0.94,1.52-1.8,1.9-2.56c0.38-0.76,0.57-1.61,0.57-2.54
	c0-0.88-0.22-1.65-0.65-2.31c-0.44-0.66-1.06-1.16-1.87-1.51c-0.81-0.35-1.76-0.53-2.84-0.53c-1.02,0-2.03,0.16-3.02,0.47
	c-0.99,0.32-1.8,0.75-2.44,1.29l1.11,2.47c0.71-0.5,1.42-0.88,2.12-1.14c0.7-0.26,1.39-0.39,2.05-0.39c0.7,0,1.23,0.15,1.6,0.46
	c0.37,0.31,0.55,0.77,0.55,1.39c0,0.52-0.14,1.03-0.41,1.56c-0.27,0.52-0.68,1.09-1.23,1.69l-5.26,5.57v2.54h10.85v-2.76H31.12z"/>
</svg>
