<?xml version="1.0" encoding="utf-8"?>
<!-- Generator: Adobe Illustrator 15.0.0, SVG Export Plug-In . SVG Version: 6.00 Build 0)  -->
<!DOCTYPE svg PUBLIC "-//W3C//DTD SVG 1.1//EN" "http://www.w3.org/Graphics/SVG/1.1/DTD/svg11.dtd" [
	<!ENTITY ns_flows "http://ns.adobe.com/Flows/1.0/">
	<!ENTITY ns_extend "http://ns.adobe.com/Extensibility/1.0/">
	<!ENTITY ns_ai "http://ns.adobe.com/AdobeIllustrator/10.0/">
	<!ENTITY ns_graphs "http://ns.adobe.com/Graphs/1.0/">
]>
<svg version="1.1" id="Layer_1" xmlns:x="&ns_extend;" xmlns:i="&ns_ai;" xmlns:graph="&ns_graphs;"
	 xmlns="http://www.w3.org/2000/svg" xmlns:xlink="http://www.w3.org/1999/xlink" xmlns:a="http://ns.adobe.com/AdobeSVGViewerExtensions/3.0/"
	 x="0px" y="0px" width="64px" height="64px" viewBox="0 0 64 64" enable-background="new 0 0 64 64" xml:space="preserve">
<radialGradient id="SVGID_1_" cx="457.9131" cy="-103.6924" r="18.7148" gradientTransform="matrix(0.658 0.6629 -3.3754 3.4005 -616.2652 72.7229)" gradientUnits="userSpaceOnUse">
	<stop  offset="0" style="stop-color:#9DC400"/>
	<stop  offset="1" style="stop-color:#297124"/>
	<a:midPointStop  offset="0" style="stop-color:#9DC400"/>
	<a:midPointStop  offset="0.5" style="stop-color:#9DC400"/>
	<a:midPointStop  offset="1" style="stop-color:#297124"/>
</radialGradient>
<path fill="url(#SVGID_1_)" d="M47.608,5.131c-8.114,5.788-18.712,22.265-39.419,39.01c-12.648,10.228-3.831,22.521,7.869,16.066
	c20.891-11.524,38.653-32.812,43.528-42.167C65.948,5.832,58.964-2.971,47.608,5.131z"/>
<linearGradient id="SVGID_2_" gradientUnits="userSpaceOnUse" x1="449.4199" y1="-128.2378" x2="449.4199" y2="-154.0298" gradientTransform="matrix(0.7071 0.7071 -0.7071 0.7071 -365.1948 -203.6559)">
	<stop  offset="0" style="stop-color:#297124"/>
	<stop  offset="1" style="stop-color:#297124;stop-opacity:0"/>
	<a:midPointStop  offset="0" style="stop-color:#297124"/>
	<a:midPointStop  offset="0.5" style="stop-color:#297124"/>
	<a:midPointStop  offset="1" style="stop-color:#297124;stop-opacity:0"/>
</linearGradient>
<path opacity="0.5" fill="url(#SVGID_2_)" d="M47.608,5.131c-3.228,2.302-6.848,6.295-11.339,11.323
	c9.741-9.002,8.999-6.476,6.213-1.892c4.272-5.332,15.284-12.233,2.276,5.847c19.778-21.656,16.203-7.063,4.874,2.947
	c9.379-5.145,4.643,2.433,1.54,6.737c3.927-4.774,6.841-9.033,8.414-12.051C65.948,5.832,58.964-2.971,47.608,5.131z"/>
<linearGradient id="SVGID_3_" gradientUnits="userSpaceOnUse" x1="449.4551" y1="-74.8057" x2="449.4551" y2="-103.1572" gradientTransform="matrix(0.7071 0.7071 -0.7071 0.7071 -365.1948 -203.6559)">
	<stop  offset="0" style="stop-color:#297124"/>
	<stop  offset="1" style="stop-color:#297124;stop-opacity:0"/>
	<a:midPointStop  offset="0" style="stop-color:#297124"/>
	<a:midPointStop  offset="0.5" style="stop-color:#297124"/>
	<a:midPointStop  offset="1" style="stop-color:#297124;stop-opacity:0"/>
</linearGradient>
<path opacity="0.5" fill="url(#SVGID_3_)" d="M15.136,40.989c-12.06,10.068-10.413,6.636-6.946,3.152
	c-12.648,10.228-3.831,22.521,7.869,16.066c5.932-3.271,11.611-7.332,16.814-11.682c-8.869,5.794-25.224,17.452-10.772,1.912
	c-9.925,8.664-21.01,13.002-8.229-1.625C-0.511,59.021,6.843,49.086,15.136,40.989z"/>
<path opacity="0.3" fill="#297124" d="M40.149,17.008c-5.885,4.43-16.215,16.849-23.331,22.357
	C25.582,32.991,33.615,24.993,40.149,17.008z"/>
<path opacity="0.3" fill="#297124" d="M40.219,24.164c-5.884,4.43-16.215,16.849-23.33,22.357
	C25.652,40.147,33.684,32.149,40.219,24.164z"/>
<path opacity="0.5" fill="#297124" d="M47.148,26.023c-5.884,4.43-16.215,16.849-23.33,22.357
	C32.581,42.007,40.614,34.009,47.148,26.023z"/>
<path opacity="0.8" fill="#297124" d="M49.843,28.238c-3.926,2.956-10.818,11.24-15.564,14.916
	C40.124,38.901,45.483,33.564,49.843,28.238z"/>
<path opacity="0.3" fill="#297124" d="M35.542,25.382c2.849-1.851,7.057-8.104,10.476-10.44
	C41.737,17.552,38.183,21.342,35.542,25.382z"/>
<path opacity="0.3" fill="#297124" d="M25.069,43.795c-3.023,1.541-7.856,7.319-11.498,9.284
	C18.099,50.932,22.025,47.536,25.069,43.795z"/>
<path fill="#99D100" d="M16.507,43.413c-2.014,0.166-2.033,2.312-2.033,2.312S15.487,44.197,16.507,43.413z"/>
<path fill="#99D100" d="M19.891,41.032c-2.015,0.166-2.034,2.313-2.034,2.313S18.87,41.817,19.891,41.032z"/>
<path fill="#99D100" d="M20.384,38.596c-2.014,0.167-2.034,2.312-2.034,2.312S19.365,39.38,20.384,38.596z"/>
<path fill="#99D100" d="M24.993,36.918c-2.013,0.167-2.033,2.312-2.033,2.312S23.975,37.702,24.993,36.918z"/>
<path fill="#77B516" d="M36.524,32.257c-2.014,0.166-2.034,2.311-2.034,2.311S35.505,33.042,36.524,32.257z"/>
<path fill="#77B516" d="M37.387,29.337c-2.013,0.167-2.034,2.312-2.034,2.312S36.368,30.122,37.387,29.337z"/>
<path fill="#77B516" d="M39.895,28.606c-2.013,0.167-2.033,2.313-2.033,2.313S38.876,29.391,39.895,28.606z"/>
<path fill="#99D100" d="M36.059,26.285c-2.014,0.167-2.034,2.313-2.034,2.313S35.04,27.07,36.059,26.285z"/>
<path fill="#77B516" d="M43.726,19.895c-2.014,0.167-2.034,2.312-2.034,2.312S42.706,20.68,43.726,19.895z"/>
<path fill="#77B516" d="M45.004,22.691c-2.014,0.167-2.034,2.312-2.034,2.312S43.984,23.476,45.004,22.691z"/>
<path fill="#77B516" d="M48.024,20.157c-2.014,0.167-2.033,2.312-2.033,2.312S47.006,20.941,48.024,20.157z"/>
<path fill="#99D100" d="M44.004,14.596c-2.015,0.167-2.035,2.312-2.035,2.312S42.983,15.381,44.004,14.596z"/>
<path fill="#99D100" d="M36.829,18.069c-2.013,0.166-2.033,2.312-2.033,2.312S35.811,18.854,36.829,18.069z"/>
<path fill="#99D100" d="M30.458,25.003c-2.015,0.167-2.035,2.313-2.035,2.313S29.438,25.788,30.458,25.003z"/>
<path fill="#77B516" d="M27.563,27.042c-2.014,0.167-2.032,2.312-2.032,2.312S26.544,27.827,27.563,27.042z"/>
<path fill="#77B516" d="M29.083,39.239c-2.013,0.166-2.033,2.312-2.033,2.312S28.064,40.023,29.083,39.239z"/>
<path fill="#77B516" d="M30.892,36.044c-2.014,0.166-2.033,2.312-2.033,2.312S29.872,36.829,30.892,36.044z"/>
<path fill="#77B516" d="M25.913,44.919c-2.015,0.166-2.035,2.313-2.035,2.313S24.893,45.704,25.913,44.919z"/>
<path fill="#77B516" d="M20.869,45.627c-2.014,0.167-2.033,2.313-2.033,2.313S19.85,46.411,20.869,45.627z"/>
<path fill="#77B516" d="M17.074,47.907c-2.015,0.166-2.034,2.313-2.034,2.313S16.055,48.692,17.074,47.907z"/>
<path fill="#99D100" d="M33.467,27.323c-2.014,0.167-2.033,2.312-2.033,2.312S32.447,28.107,33.467,27.323z"/>
</svg>
