<?xml version="1.0" encoding="utf-8"?>
<!-- Generator: Adobe Illustrator 24.1.2, SVG Export Plug-In . SVG Version: 6.00 Build 0)  -->
<svg version="1.1" id="Layer_1" xmlns="http://www.w3.org/2000/svg" xmlns:xlink="http://www.w3.org/1999/xlink" x="0px" y="0px"
	 width="64px" height="64px" viewBox="0 0 64 64" style="enable-background:new 0 0 64 64;" xml:space="preserve">
<style type="text/css">
	.st0{fill:url(#SVGID_1_);}
	.st1{fill:url(#SVGID_2_);}
	.st2{fill:#E6EBEF;}
	.st3{fill:#B3C2C6;}
	.st4{fill:#DDE2E6;}
	.st5{fill:url(#SVGID_3_);}
	.st6{fill:url(#SVGID_4_);}
	.st7{fill:url(#SVGID_5_);}
	.st8{fill:url(#SVGID_6_);}
	.st9{fill:#302C3B;}
	.st10{fill:#02D6B4;}
</style>
<linearGradient id="SVGID_1_" gradientUnits="userSpaceOnUse" x1="15.0553" y1="40.2075" x2="48.9447" y2="40.2075">
	<stop  offset="0" style="stop-color:#02D6B4"/>
	<stop  offset="0.2206" style="stop-color:#12BFA5"/>
	<stop  offset="0.4882" style="stop-color:#20AA98"/>
	<stop  offset="0.7506" style="stop-color:#289D90"/>
	<stop  offset="1" style="stop-color:#2B998D"/>
</linearGradient>
<path class="st0" d="M45.01,57.37c-0.71,8.84-25.31,8.84-26.01,0c-1.89-23.67-3.94-40.96-3.94-40.96h33.89
	C48.94,16.41,46.9,33.7,45.01,57.37z"/>
<linearGradient id="SVGID_2_" gradientUnits="userSpaceOnUse" x1="14" y1="17.6088" x2="50" y2="17.6088">
	<stop  offset="0" style="stop-color:#E6EBEF"/>
	<stop  offset="0.2666" style="stop-color:#E1E7EB"/>
	<stop  offset="0.567" style="stop-color:#D4DCE0"/>
	<stop  offset="0.8827" style="stop-color:#BDCACE"/>
	<stop  offset="1" style="stop-color:#B3C2C6"/>
</linearGradient>
<path class="st1" d="M50,17.53c0,1.63-8.06,2.95-18,2.95c-9.94,0-18-1.32-18-2.95l0.33-2.8h35.31L50,17.53z"/>
<path class="st2" d="M49.63,14.74c0,1.63-7.9,2.95-17.65,2.95c-9.75,0-17.65-1.32-17.65-2.95c0-1.63,7.91-2.94,17.65-2.94
	C41.73,11.79,49.63,13.11,49.63,14.74z"/>
<path class="st3" d="M44.4,14.75c0,1.03-5.56,1.87-12.42,1.87c-6.86,0-12.42-0.84-12.42-1.87c0-1.03,5.56-1.87,12.42-1.87
	C38.84,12.88,44.4,13.72,44.4,14.75z"/>
<path class="st4" d="M44.4,14.95c0,1-5.56,1.8-12.42,1.8c-6.86,0-12.42-0.81-12.42-1.8c0-0.99,5.56-1.8,12.42-1.8
	C38.84,13.15,44.4,13.95,44.4,14.95z"/>
<linearGradient id="SVGID_3_" gradientUnits="userSpaceOnUse" x1="24.3871" y1="14.607" x2="39.7637" y2="14.607">
	<stop  offset="0" style="stop-color:#E6EBEF"/>
	<stop  offset="0.4448" style="stop-color:#D2DBDF"/>
	<stop  offset="1" style="stop-color:#B3C2C6"/>
</linearGradient>
<path class="st5" d="M39.76,14.81c0,0.72-3.44,1.31-7.69,1.31c-4.25,0-7.69-0.59-7.69-1.31l0.14-1.72h15.08L39.76,14.81z"/>
<path class="st2" d="M32.07,11.79c4.16,0,7.54,0.58,7.54,1.3c0,0.72-3.38,1.31-7.54,1.31c-4.17,0-7.54-0.59-7.54-1.31
	C24.53,12.38,27.9,11.79,32.07,11.79z"/>
<path class="st3" d="M32.07,12.62c1.52,0,2.76,0.21,2.76,0.48c0,0.26-1.24,0.48-2.76,0.48c-1.53,0-2.76-0.21-2.76-0.48
	C29.31,12.83,30.54,12.62,32.07,12.62z"/>
<linearGradient id="SVGID_4_" gradientUnits="userSpaceOnUse" x1="255.1637" y1="19.9298" x2="252.9816" y2="20.6225" gradientTransform="matrix(0.9368 -0.3499 -0.3499 -0.9368 -199.2566 118.6665)">
	<stop  offset="0" style="stop-color:#2B998D"/>
	<stop  offset="0.2494" style="stop-color:#289D90"/>
	<stop  offset="0.5118" style="stop-color:#20AA98"/>
	<stop  offset="0.7794" style="stop-color:#12BFA5"/>
	<stop  offset="1" style="stop-color:#02D6B4"/>
</linearGradient>
<path class="st6" d="M30.23,8.23l0.34,5.27c1.24,0.18,2.54,0.04,2.54,0.04L32.8,7.87L30.23,8.23z"/>
<linearGradient id="SVGID_5_" gradientUnits="userSpaceOnUse" x1="263.6708" y1="23.8793" x2="263.9606" y2="25.8719" gradientTransform="matrix(0.9368 -0.3499 -0.3499 -0.9368 -199.2566 118.6665)">
	<stop  offset="0" style="stop-color:#2B998D"/>
	<stop  offset="0.2494" style="stop-color:#289D90"/>
	<stop  offset="0.5118" style="stop-color:#20AA98"/>
	<stop  offset="0.7794" style="stop-color:#12BFA5"/>
	<stop  offset="1" style="stop-color:#02D6B4"/>
</linearGradient>
<path class="st7" d="M47.73,0c0,0-11.68,2.64-16.9,3.77c-0.35,0.08-0.98,0.35-0.78,1.77l2.47-0.09l15.63-3.24
	C48.79,2.1,48.37-0.11,47.73,0z"/>
<linearGradient id="SVGID_6_" gradientUnits="userSpaceOnUse" x1="236.2009" y1="-7.8393" x2="233.4843" y2="-6.9179" gradientTransform="matrix(0.9153 -0.403 -0.403 -0.9153 -186.5035 94.7664)">
	<stop  offset="0" style="stop-color:#2B998D"/>
	<stop  offset="0.5013" style="stop-color:#15BAA2"/>
	<stop  offset="1" style="stop-color:#02D6B4"/>
</linearGradient>
<path class="st8" d="M32.97,5.63c-0.06-0.27-0.25-0.39-0.56-0.36l-2.1,0.16c-0.55,0.18-0.67,0.42-0.36,0.72
	c-0.2,0.2-0.19,0.39,0.02,0.56C29.78,6.91,29.79,7.1,30,7.28c-0.18,0.15-0.19,0.41,0.03,0.56c-0.37,0.32,0.01,0.68,0.4,0.65
	l2.1-0.16l0,0c0.37-0.03,0.73-0.47,0.35-0.72c0.21-0.17,0.2-0.42-0.02-0.56c0.2-0.18,0.2-0.42-0.02-0.56
	c0.21-0.17,0.2-0.43-0.02-0.56C32.92,5.86,32.97,5.77,32.97,5.63C32.97,5.54,32.98,5.72,32.97,5.63z"/>
<path class="st9" d="M33.04,5.51C33.04,5.6,33.04,5.42,33.04,5.51L33.04,5.51z"/>
<path class="st9" d="M48.13,2.06c-0.49,0.08-0.81-1.81-0.32-1.89C48.3,0.08,48.62,1.98,48.13,2.06z"/>
<path id="Shape_7_" class="st10" d="M32,34.54c3.36,0,6.1,2.65,6.1,5.91c0,3.26-2.73,5.91-6.1,5.91c-3.36,0-6.1-2.65-6.09-5.91
	C25.9,37.2,28.64,34.54,32,34.54z M32,32.58c-4.49,0-8.13,3.53-8.13,7.88c0,4.36,3.64,7.88,8.13,7.88c4.49,0,8.13-3.52,8.13-7.88
	C40.13,36.11,36.49,32.58,32,32.58z"/>
<path id="Combined-Shape_7_" class="st10" d="M33.63,41.25c-0.28,0-0.41-0.13-0.41-0.39v-0.79c0-0.26,0.14-0.39,0.41-0.39h2.64
	c0.27,0,0.41,0.13,0.41,0.39l0,0.39c0,2.5-2.09,4.53-4.67,4.53c-1.26,0-2.43-0.48-3.3-1.33c-0.19-0.19-0.19-0.37,0-0.56l0.86-0.84
	c0.19-0.19,0.38-0.19,0.57,0c0.5,0.48,1.16,0.75,1.87,0.75c1.17,0,2.17-0.75,2.52-1.77L33.63,41.25z"/>
</svg>
