<?xml version="1.0" encoding="utf-8"?>
<!-- Generator: Adobe Illustrator 24.1.2, SVG Export Plug-In . SVG Version: 6.00 Build 0)  -->
<svg version="1.1" id="Layer_1" xmlns="http://www.w3.org/2000/svg" xmlns:xlink="http://www.w3.org/1999/xlink" x="0px" y="0px"
	 width="64px" height="64px" viewBox="0 0 64 64" style="enable-background:new 0 0 64 64;" xml:space="preserve">
<style type="text/css">
	.st0{fill:url(#Oval_1_);}
	.st1{fill:#FFFFFF;}
	.st2{fill:#1A1626;}
	.st3{fill:#D69600;}
	.st4{fill:url(#SVGID_1_);}
	.st5{fill:url(#SVGID_2_);}
</style>
<linearGradient id="Oval_1_" gradientUnits="userSpaceOnUse" x1="-249.3692" y1="-161.8817" x2="-249.3692" y2="-162.8817" gradientTransform="matrix(60 0 0 60 14994.1504 9774.9004)">
	<stop  offset="0" style="stop-color:#FF9500"/>
	<stop  offset="0.1919" style="stop-color:#FFAD00"/>
	<stop  offset="0.5455" style="stop-color:#FFD500"/>
	<stop  offset="0.8272" style="stop-color:#FFED00"/>
	<stop  offset="1" style="stop-color:#FFF600"/>
</linearGradient>
<circle id="Oval_33_" class="st0" cx="32" cy="32" r="30"/>
<circle id="Oval_30_" class="st1" cx="43" cy="30" r="7"/>
<path id="Oval_29_" class="st2" d="M43,25.33c2.58,0,4.67,2.09,4.67,4.67c0,2.58-2.09,4.67-4.67,4.67c-2.58,0-4.67-2.09-4.67-4.67
	C38.33,27.42,40.42,25.33,43,25.33z"/>
<path id="Oval_28_" class="st1" d="M44.21,30.95c1.21,0,2.19,1.13,2.19,2.53c0,1.4-0.98,2.53-2.19,2.53s-2.19-1.13-2.19-2.53
	C42.02,32.08,43,30.95,44.21,30.95z"/>
<path id="Oval_27_" class="st1" d="M41.27,28.52c0.71,0,1.28,0.66,1.28,1.48c0,0.82-0.57,1.48-1.28,1.48s-1.28-0.66-1.28-1.48
	C39.99,29.18,40.56,28.52,41.27,28.52z"/>
<circle id="Oval_15_" class="st1" cx="21" cy="30" r="7"/>
<path id="Oval_13_" class="st2" d="M21,25.33c2.58,0,4.67,2.09,4.67,4.67c0,2.58-2.09,4.67-4.67,4.67s-4.67-2.09-4.67-4.67
	C16.34,27.42,18.42,25.33,21,25.33z"/>
<path id="Oval_11_" class="st1" d="M22.21,30.95c1.21,0,2.19,1.13,2.19,2.53c0,1.4-0.98,2.53-2.19,2.53s-2.19-1.13-2.19-2.53
	C20.02,32.08,21,30.95,22.21,30.95z"/>
<path id="Oval_10_" class="st1" d="M19.27,28.52c0.71,0,1.28,0.66,1.28,1.48c0,0.82-0.57,1.48-1.28,1.48
	c-0.71,0-1.28-0.66-1.28-1.48C17.99,29.18,18.56,28.52,19.27,28.52z"/>
<path class="st2" d="M40.95,44.27c-5.45,4.66-12.45,4.66-17.89,0c-0.77-0.66-1.23,0.05-0.99,0.61c4.18,9.5,15.69,9.5,19.87,0
	C42.18,44.32,41.72,43.61,40.95,44.27z"/>
<path class="st3" d="M15.03,15.77c-9.79,5.79-3.55,7.04,5.32,3.16C25.35,16.74,21.47,11.96,15.03,15.77z"/>
<path class="st3" d="M48.97,15.79c-6.44-3.81-10.32,0.97-5.32,3.16C52.52,22.83,58.76,21.58,48.97,15.79z"/>
<radialGradient id="SVGID_1_" cx="928.0945" cy="-127.2149" r="2.3199" fx="928.0948" fy="-125.5338" gradientTransform="matrix(3.154 0 0 4.4839 -2880.2834 618.6339)" gradientUnits="userSpaceOnUse">
	<stop  offset="0" style="stop-color:#73EFFF"/>
	<stop  offset="0.1871" style="stop-color:#6FECFF"/>
	<stop  offset="0.3641" style="stop-color:#64E3FF"/>
	<stop  offset="0.537" style="stop-color:#51D3FF"/>
	<stop  offset="0.7074" style="stop-color:#36BDFF"/>
	<stop  offset="0.8744" style="stop-color:#14A1FF"/>
	<stop  offset="0.9564" style="stop-color:#0091FF"/>
</radialGradient>
<path class="st4" d="M47.53,41.86c-0.4-1.15-1.01-1.15-1.41,0c-1.16,3.38-4.7,7.95-4.7,11.91c0,2.89,2.42,5.23,5.4,5.23
	c2.98,0,5.4-2.34,5.4-5.23C52.23,49.82,48.68,45.19,47.53,41.86z"/>
<linearGradient id="SVGID_2_" gradientUnits="userSpaceOnUse" x1="846.7817" y1="-129.0978" x2="849.4425" y2="-131.4488" gradientTransform="matrix(2.7319 0 0 3.0921 -2270.2993 451.8473)">
	<stop  offset="0.0528" style="stop-color:#C4EEFF;stop-opacity:0"/>
	<stop  offset="0.4504" style="stop-color:#CDF0FF;stop-opacity:0.4197"/>
	<stop  offset="1" style="stop-color:#D4F2FF"/>
</linearGradient>
<path class="st5" d="M47.26,41.59c-0.14-0.52-0.73-0.52-0.87,0c-0.72,2.7-3.23,7.19-3.23,10.36c0,3.81,7.32,3.81,7.32,0
	C50.49,48.79,47.97,44.26,47.26,41.59z"/>
</svg>
