<?xml version="1.0" encoding="utf-8"?>
<!-- Generator: Adobe Illustrator 15.0.0, SVG Export Plug-In . SVG Version: 6.00 Build 0)  -->
<!DOCTYPE svg PUBLIC "-//W3C//DTD SVG 1.1//EN" "http://www.w3.org/Graphics/SVG/1.1/DTD/svg11.dtd" [
	<!ENTITY ns_flows "http://ns.adobe.com/Flows/1.0/">
	<!ENTITY ns_extend "http://ns.adobe.com/Extensibility/1.0/">
	<!ENTITY ns_ai "http://ns.adobe.com/AdobeIllustrator/10.0/">
	<!ENTITY ns_graphs "http://ns.adobe.com/Graphs/1.0/">
]>
<svg version="1.1" id="Layer_1" xmlns:x="&ns_extend;" xmlns:i="&ns_ai;" xmlns:graph="&ns_graphs;"
	 xmlns="http://www.w3.org/2000/svg" xmlns:xlink="http://www.w3.org/1999/xlink" xmlns:a="http://ns.adobe.com/AdobeSVGViewerExtensions/3.0/"
	 x="0px" y="0px" width="64px" height="64px" viewBox="0 0 64 64" enable-background="new 0 0 64 64" xml:space="preserve">
<path fill="#59656B" d="M63.637,43.331c-1.047-4-0.131-6.648-0.438-10.501c-0.375-4.672-3.035-7.691-7.238-8.626
	c-2.48-0.55,6.877,12.705,6.434,17.672c-0.35,3.911,0.904,8.553,1.154,7.911C64.297,47.894,63.959,44.567,63.637,43.331z"/>
<path fill="#535E63" d="M28.803,46.236c0.66,3.458,2.82,4.245,3.697,9.941c0.354,2.288-2.396,1.952-1.803,4.912h5.205
	c1.645,0-0.141-3.185,0.045-4.931c0.156-1.467,1.66-6.865,1.66-8.717C32.766,44.506,28.23,43.22,28.803,46.236z"/>
<path fill="#59656B" d="M32.02,61.09h-1.354C30.666,59.829,32.02,59.829,32.02,61.09z"/>
<path fill="#59656B" d="M33.373,61.09H32.02C32.02,59.829,33.373,59.829,33.373,61.09z"/>
<path fill="#535E63" d="M44.096,36.12c1.6,10.143,6.336,5.563,9.996,17.099c1.615,5.094-2.195,4.041-1.83,7.871c0,0,4.039,0,5.52,0
	c1.051,0,1.426-2.093,0.967-2.861c-1.121-1.874,1.234-5.024,0.566-6.523c-3.596-8.072,4.092-12.421-1.559-22.434
	C53.984,22.585,42.539,26.232,44.096,36.12z"/>
<path fill="#59656B" d="M53.617,61.09h-1.355C52.262,59.712,53.617,59.712,53.617,61.09z"/>
<path fill="#59656B" d="M54.969,61.09h-1.352C53.617,59.712,54.969,59.712,54.969,61.09z"/>
<linearGradient id="SVGID_1_" gradientUnits="userSpaceOnUse" x1="44.1221" y1="49.8301" x2="37.2416" y2="22.82">
	<stop  offset="0.103" style="stop-color:#5E6A70"/>
	<stop  offset="0.3032" style="stop-color:#6E7A80"/>
	<stop  offset="0.5312" style="stop-color:#79858A"/>
	<stop  offset="0.8" style="stop-color:#7C888D"/>
	<a:midPointStop  offset="0.103" style="stop-color:#5E6A70"/>
	<a:midPointStop  offset="0.2606" style="stop-color:#5E6A70"/>
	<a:midPointStop  offset="0.8" style="stop-color:#7C888D"/>
</linearGradient>
<path fill="url(#SVGID_1_)" d="M60.363,27.182c7.668,14.865-2.285,11.29-12.547,19.049c-3.68,2.781-9.979,2.458-13.01,2.772
	c-1.199,2.166-10.203-0.354-10.262-2.34c-8.752-5.592-9.279-19.158-1.309-22.646c4.164-1.823,6.918,1.377,13.613-0.226
	c3.979-0.953,6.732,0.396,11.051-1.561C50.121,21.226,58.521,23.612,60.363,27.182z"/>
<path fill="#59656B" d="M12.805,23.719c1.088,2.541-0.297,3.816,2.1,6.05c0,0,0.215-1.341,0.824-2.76
	C13.596,26.092,14.271,23.649,12.805,23.719z"/>
<path fill="#1A1626" d="M12.951,23.724c0.891,0.236,0.129,2.509,1.244,4.039c-0.174,1.237-1.592,2.173-1.316-1.757
	C12.943,25.091,12.385,23.571,12.951,23.724z"/>
<linearGradient id="SVGID_2_" gradientUnits="userSpaceOnUse" x1="13.8994" y1="46.3438" x2="13.8994" y2="23.6851">
	<stop  offset="0" style="stop-color:#5E6A70"/>
	<stop  offset="0.2124" style="stop-color:#6E7A80"/>
	<stop  offset="0.4543" style="stop-color:#79858A"/>
	<stop  offset="0.7394" style="stop-color:#7C888D"/>
	<a:midPointStop  offset="0" style="stop-color:#5E6A70"/>
	<a:midPointStop  offset="0.2606" style="stop-color:#5E6A70"/>
	<a:midPointStop  offset="0.7394" style="stop-color:#7C888D"/>
</linearGradient>
<path fill="url(#SVGID_2_)" d="M2.768,38.217c-0.289,0.957,0.643,1.237,0.361,1.61c-0.488,0.646,0.365,2.655,0.338,2.835
	c-0.027,0.178,0.186,0.028,0.105,0.415c-0.232,1.142,1.389,3.049,1.385,1.59c0.936,0.117,1.592,1.553,3.232,1.204
	c0.318,0.939,1.73,0.172,2.105,0.267c3.064,0.767,5.064-4.229,8.301-3.95c0.469,0.04,1.465,1.664,2.705,1.48
	c3.025-0.446,5.406-15.471,2.398-18.722c-3.283-3.55-5.994,1.516-6.713,1.535c-5.322,0.159-2.908,4.516-7.766,5.729
	C8.938,32.285,3.764,34.926,2.768,38.217z"/>
<linearGradient id="SVGID_3_" gradientUnits="userSpaceOnUse" x1="3.0747" y1="32.6289" x2="0.2559" y2="34.591">
	<stop  offset="0.2485" style="stop-color:#D3DDE1"/>
	<stop  offset="0.4751" style="stop-color:#D0DADE"/>
	<stop  offset="0.6616" style="stop-color:#C6D0D4"/>
	<stop  offset="0.8333" style="stop-color:#B6BEC2"/>
	<stop  offset="0.897" style="stop-color:#AEB6BA"/>
	<a:midPointStop  offset="0.2485" style="stop-color:#D3DDE1"/>
	<a:midPointStop  offset="0.7455" style="stop-color:#D3DDE1"/>
	<a:midPointStop  offset="0.897" style="stop-color:#AEB6BA"/>
</linearGradient>
<path fill="url(#SVGID_3_)" d="M0.313,28.909c-0.875,0.364,0.137,6.313,2.42,9.461c0.238,0.332,2.736-2.204,2.471-3.508
	C0.301,32.435,0.926,28.653,0.313,28.909z"/>
<linearGradient id="SVGID_4_" gradientUnits="userSpaceOnUse" x1="4.8843" y1="32.9199" x2="8.1669" y2="30.7767">
	<stop  offset="0.103" style="stop-color:#AEB6BA"/>
	<stop  offset="0.1667" style="stop-color:#B6BEC2"/>
	<stop  offset="0.3384" style="stop-color:#C6D0D4"/>
	<stop  offset="0.5249" style="stop-color:#D0DADE"/>
	<stop  offset="0.7515" style="stop-color:#D3DDE1"/>
	<a:midPointStop  offset="0.103" style="stop-color:#AEB6BA"/>
	<a:midPointStop  offset="0.2545" style="stop-color:#AEB6BA"/>
	<a:midPointStop  offset="0.7515" style="stop-color:#D3DDE1"/>
</linearGradient>
<path fill="url(#SVGID_4_)" d="M5.914,29.272c-0.945-1.228-0.795,2.873-0.096,5.305c0.127,0.442,3.07,0.309,3.545-2.283
	C8.941,31.179,6.807,30.432,5.914,29.272z"/>
<path fill="#1A1626" d="M4.813,43.48c-2.1-0.872,0.57-1.479,0.996-1.195C6.01,42.419,4.926,43.528,4.813,43.48z"/>
<path fill="#1A1626" d="M4.957,44.667c2.873,0.456,4.199-1.71,4.199-1.71S7.449,44.416,4.957,44.667z"/>
<path fill="#59656B" d="M9.703,33.193c-0.896,1.048-1.408,1.977-2.686,2.162C8.168,35.744,9.146,34.386,9.703,33.193z"/>
<path fill="#59656B" d="M5.768,35.694c-0.723,1.604-0.963,3.025-2.684,3.293C4.926,39.604,5.607,37.526,5.768,35.694z"/>
<path fill="#59656B" d="M4.426,41.851c1.049-0.52,1.65-0.424,1.98,0.528C6.426,41.259,5.766,40.751,4.426,41.851z"/>
<path fill="#7C888D" d="M19.738,23.981c0.51,3.204,1.15,4.544-1.129,7.127c0,0-1.564-0.278-2.244-1.733
	C17.809,27.596,17.969,22.507,19.738,23.981z"/>
<linearGradient id="SVGID_5_" gradientUnits="userSpaceOnUse" x1="17.7515" y1="27.3867" x2="20.4854" y2="27.3867">
	<stop  offset="0" style="stop-color:#1A1626"/>
	<stop  offset="0.3893" style="stop-color:#353843"/>
	<stop  offset="0.7752" style="stop-color:#4B545A"/>
	<stop  offset="1" style="stop-color:#535E63"/>
	<a:midPointStop  offset="0" style="stop-color:#1A1626"/>
	<a:midPointStop  offset="0.4121" style="stop-color:#1A1626"/>
	<a:midPointStop  offset="1" style="stop-color:#535E63"/>
</linearGradient>
<path fill="url(#SVGID_5_)" d="M20.012,24.332c-0.838-1.252-1.58-0.633-2.148,2.846c-0.467,2.869,0.668,4.844,0.846,3.344
	C21.209,27.825,20.482,25.029,20.012,24.332z"/>
<path fill="#59656B" d="M17.752,32.867c-0.818-1.563-1.709-2.385-1.193-4.874C15.379,30.347,16.545,32.013,17.752,32.867z"/>
<path fill="#59656B" d="M18.766,41.964c2.756-1.766,2.934-4.2,4.467-11.895C21.309,34.555,21.961,38.784,18.766,41.964z"/>
<linearGradient id="SVGID_6_" gradientUnits="userSpaceOnUse" x1="25.146" y1="53.8125" x2="34.2266" y2="53.8125">
	<stop  offset="0" style="stop-color:#7C888D"/>
	<stop  offset="0.2906" style="stop-color:#727E84"/>
	<stop  offset="1" style="stop-color:#5E6A70"/>
	<a:midPointStop  offset="0" style="stop-color:#7C888D"/>
	<a:midPointStop  offset="0.4545" style="stop-color:#7C888D"/>
	<a:midPointStop  offset="1" style="stop-color:#5E6A70"/>
</linearGradient>
<path fill="url(#SVGID_6_)" d="M25.188,47.145c0.658,3.461,2.82,4.247,3.697,9.943c0.354,2.287-2.396,1.953-1.805,4.912h5.207
	c1.645,0-0.143-3.185,0.043-4.93c0.158-1.47,1.898-6.517,1.896-8.37C30.045,46.106,24.615,44.13,25.188,47.145z"/>
<path fill="#849296" d="M28.404,62h-1.354C27.051,60.737,28.404,60.737,28.404,62z"/>
<path fill="#849296" d="M29.758,62h-1.354C28.404,60.737,29.758,60.737,29.758,62z"/>
<linearGradient id="SVGID_7_" gradientUnits="userSpaceOnUse" x1="55.4922" y1="62" x2="55.4922" y2="26.7822">
	<stop  offset="0" style="stop-color:#5E6A70"/>
	<stop  offset="0.5766" style="stop-color:#727E84"/>
	<stop  offset="1" style="stop-color:#7C888D"/>
	<a:midPointStop  offset="0" style="stop-color:#5E6A70"/>
	<a:midPointStop  offset="0.4061" style="stop-color:#5E6A70"/>
	<a:midPointStop  offset="1" style="stop-color:#7C888D"/>
</linearGradient>
<path fill="url(#SVGID_7_)" d="M47.658,37.028c1.6,10.143,6.336,5.564,9.996,17.1c1.615,5.094-2.195,4.042-1.828,7.872
	c0,0,4.037,0,5.518,0c1.051,0,1.426-2.095,0.967-2.863c-1.121-1.872,1.234-5.021,0.566-6.524
	c-3.596-8.071,4.092-12.418-1.559-22.432C57.547,23.494,46.102,27.142,47.658,37.028z"/>
<path fill="#849296" d="M57.18,62h-1.354C55.826,60.62,57.18,60.62,57.18,62z"/>
<path fill="#849296" d="M58.531,62H57.18C57.18,60.62,58.531,60.62,58.531,62z"/>
<path fill="#59656B" d="M24.779,46.08c0.484-2.426,5.115-0.857,9.814,2.35C30.26,44.391,24.09,42.152,24.779,46.08z"/>
<path fill="#59656B" d="M27.643,33.862c0,0,0.416,10.878,8.584,14.069C29.645,43.319,27.643,33.862,27.643,33.862z"/>
<path fill="#59656B" d="M26.439,24.951c-1.66,7.058,0.094,8.735-2.35,15.76C27.379,34.401,25.844,30.736,26.439,24.951z"/>
<path fill="#59656B" d="M42.652,30.431c0,0-0.592,10.491,7.576,13.685C43.646,39.502,42.652,30.431,42.652,30.431z"/>
<path fill="#59656B" d="M40.705,36.275c0,0,0.359,6.43,8.656,8.115C41.924,41.455,40.705,36.275,40.705,36.275z"/>
<path fill="#849296" d="M28.016,52.724c0,0,1.082,0.699,3.045,0.995C28.674,54.191,28.016,52.724,28.016,52.724z"/>
<path fill="#849296" d="M28.404,53.668c0,0,0.836,0.54,2.355,0.769C28.912,54.804,28.404,53.668,28.404,53.668z"/>
<path fill="#849296" d="M56.865,51.205c0,0,1.08,0.698,3.043,0.996C57.521,52.672,56.865,51.205,56.865,51.205z"/>
<path fill="#849296" d="M57.252,52.149c0,0,0.836,0.541,2.355,0.77C57.762,53.286,57.252,52.149,57.252,52.149z"/>
<path fill="#1A1626" d="M11.333,36.216c-1.067,0.157-1.354,1.123-1.161,1.815c0.146,0.514,2.795,0.125,2.787-0.408
	C12.944,36.847,12.307,36.074,11.333,36.216z"/>
<path fill="#FFFFFF" d="M11.369,36.474c-0.77,0.11-1.311,0.771-1.209,1.478c0.089,0.614,0.811,1.192,1.58,1.081
	c0.768-0.113,1.278-0.985,1.207-1.487C12.846,36.839,12.137,36.358,11.369,36.474z"/>
<path fill="#1A1626" d="M11.271,36.741c0.574-0.087,1.107,0.3,1.188,0.86c0.081,0.563-0.321,1.087-0.896,1.171
	c-0.569,0.084-1.102-0.303-1.184-0.865C10.301,37.349,10.699,36.823,11.271,36.741z"/>
<path fill="#FFFFFF" d="M11.263,37.26c0.056,0.369-0.513,0.451-0.565,0.082C10.643,36.972,11.211,36.887,11.263,37.26z"/>
<path fill="#1A1626" d="M12.287,35.648c0.631-0.182-1.817-0.523-2.176,0.308C9.901,36.44,10.911,36.045,12.287,35.648z"/>
</svg>
