<?xml version="1.0" encoding="utf-8"?>
<!-- Generator: Adobe Illustrator 15.0.0, SVG Export Plug-In . SVG Version: 6.00 Build 0)  -->
<!DOCTYPE svg PUBLIC "-//W3C//DTD SVG 1.1//EN" "http://www.w3.org/Graphics/SVG/1.1/DTD/svg11.dtd" [
	<!ENTITY ns_flows "http://ns.adobe.com/Flows/1.0/">
	<!ENTITY ns_extend "http://ns.adobe.com/Extensibility/1.0/">
	<!ENTITY ns_ai "http://ns.adobe.com/AdobeIllustrator/10.0/">
	<!ENTITY ns_graphs "http://ns.adobe.com/Graphs/1.0/">
]>
<svg version="1.1" id="Layer_1" xmlns:x="&ns_extend;" xmlns:i="&ns_ai;" xmlns:graph="&ns_graphs;"
	 xmlns="http://www.w3.org/2000/svg" xmlns:xlink="http://www.w3.org/1999/xlink" xmlns:a="http://ns.adobe.com/AdobeSVGViewerExtensions/3.0/"
	 x="0px" y="0px" width="64px" height="64px" viewBox="0 0 64 64" enable-background="new 0 0 64 64" xml:space="preserve">
<path fill="#CC8327" d="M47.104,28.896c-14.984,1.643-23.856,11.493-23.856,11.493c-0.275,2.33,1.851,2.163,2.266,2.243
	c0.406,0.078,2.05,1.781,3.931,0.55C33.867,43.078,43.197,41.533,47.104,28.896z"/>
<path fill="#CC8327" d="M19.181,30.176c0.263-0.213,2.256-0.03,2.685,0.206c0.528,0.284,0.056,1.024-0.515,0.871
	c-0.595-0.161-0.942-0.71-1.953-0.544C19.055,30.766,18.854,30.45,19.181,30.176z"/>
<path fill="#DB9135" d="M23.859,26.032c-0.852,0.688-1.646,3.135-2.382,3.947c-0.482,0.532-0.137,1.533,0.46,1.086
	c0.46-0.341,2.185-2.839,3.123-3.92C25.879,26.191,24.886,25.19,23.859,26.032z"/>
<path fill="#E69F45" d="M24.352,25.719c-0.869,0.589-0.313,1.109-0.057,1.781c0.195,0.521,1.713,1.346,2.572,2.237
	c0.762,0.779,2.439-1.084,1.922-2.215C28.357,26.587,25.044,25.252,24.352,25.719z"/>
<path fill="#DB9135" d="M28.432,27.104c-1.025-0.051-1.983,0.76-2.188,1.721c-0.162,0.744,2.437,3.189,2.358,7.385
	c-0.031,1.513,2.309-0.053,2.58-1.744C31.406,33.065,29.25,27.143,28.432,27.104z"/>
<path fill="#CC8327" d="M28.063,20.64c0.338-0.035,1.902,1.202,2.131,1.633c0.285,0.524-0.52,0.887-0.914,0.448
	c-0.406-0.458-0.393-1.105-1.33-1.517C27.631,21.065,27.641,20.692,28.063,20.64z"/>
<path fill="#DB9135" d="M34.27,19.718c-1.094,0.113-3.113,1.726-4.178,2.007c-0.697,0.183-0.963,1.207-0.217,1.158
	c0.576-0.036,3.4-1.187,4.781-1.58C35.869,20.951,35.594,19.575,34.27,19.718z"/>
<path fill="#E69F45" d="M34.854,19.725c-1.051,0.021-0.875,0.759-1.033,1.459c-0.125,0.542,0.688,2.057,0.91,3.269
	c0.207,1.066,2.643,0.423,2.834-0.807C37.723,22.629,35.691,19.712,34.854,19.725z"/>
<path fill="#DB9135" d="M37.5,23.102c-0.83-0.601-2.08-0.443-2.785,0.249c-0.545,0.533,0.273,3.991-2.115,7.456
	c-0.861,1.249,1.961,1.212,3.123-0.055C36.684,29.702,38.162,23.58,37.5,23.102z"/>
<path fill="#CC8327" d="M31.762,16.977c0.334-0.052,1.959,1.104,2.211,1.524c0.309,0.509-0.479,0.91-0.891,0.492
	c-0.471-0.476-0.695-1.203-1.619-1.569C31.242,17.336,31.34,17.048,31.762,16.977z"/>
<path fill="#DB9135" d="M37.912,15.745c-1.088,0.168-2.92,2.073-4.203,2.305c-0.447,0.081-0.715,1.159,0.029,1.071
	c0.57-0.064,3.279-1.351,4.641-1.813C39.572,16.897,39.227,15.537,37.912,15.745z"/>
<path fill="#E69F45" d="M38.568,15.723c-1.049,0.072-0.982,1.069-1.109,1.778c-0.096,0.545,0.867,1.75,1.154,2.95
	c0.262,1.054,2.66,0.289,2.789-0.948C41.508,18.48,39.406,15.667,38.568,15.723z"/>
<path fill="#DB9135" d="M41.309,18.964c-0.859-0.561-2.332-0.104-3,0.621c-0.516,0.56,0.957,3.335-1.5,7.317
	c-0.799,1.289,2.018,1.114,3.115-0.212C40.83,25.597,41.994,19.407,41.309,18.964z"/>
<path fill="#E69F45" d="M24.585,31.147c-1.102,0.083-4.537,1.735-4.704,2.247c-0.205,0.646-0.02,0.838,0.727,0.811
	c0.576-0.021,2.208-0.733,3.612-1.088C25.457,32.798,25.918,31.042,24.585,31.147z"/>
<path fill="#DB9135" d="M25.119,30.947c-1.052,0-0.689,1.33-1.032,1.985c-0.267,0.506,1.234,1.209,1.133,2.43
	c-0.078,1.075,1.548,1.032,2.062-0.133C27.705,34.267,26.321,30.947,25.119,30.947z"/>
<linearGradient id="SVGID_1_" gradientUnits="userSpaceOnUse" x1="3.3872" y1="42.792" x2="11.5527" y2="42.792">
	<stop  offset="0" style="stop-color:#5E3200"/>
	<stop  offset="0.1641" style="stop-color:#72430A"/>
	<stop  offset="0.5014" style="stop-color:#A76F23"/>
	<stop  offset="0.9791" style="stop-color:#FBB54B"/>
	<stop  offset="1" style="stop-color:#FFB84D"/>
	<a:midPointStop  offset="0" style="stop-color:#5E3200"/>
	<a:midPointStop  offset="0.5455" style="stop-color:#5E3200"/>
	<a:midPointStop  offset="1" style="stop-color:#FFB84D"/>
</linearGradient>
<path fill="url(#SVGID_1_)" d="M11.553,37.432c-2.751,1.663-5.264,5.357-7.414,9.892c-0.617,1.298-1.01,0.973-0.552-0.285
	c1.075-2.949,2.831-6.006,2.271-9.372L11.553,37.432z"/>
<path fill="#E69F45" d="M20.814,33.336c-0.832-3.014-5.788-3.81-7.969-1.38c-0.922,1.029,0.47,2.561,1.324,3.421
	c0.714,0.719,1.645-1.369,4.393-0.104C20.184,36.021,21.32,35.183,20.814,33.336z"/>
<linearGradient id="SVGID_2_" gradientUnits="userSpaceOnUse" x1="-0.2959" y1="41.5527" x2="13.4951" y2="33.8348">
	<stop  offset="0" style="stop-color:#5E3200"/>
	<stop  offset="0.1641" style="stop-color:#72430A"/>
	<stop  offset="0.5014" style="stop-color:#A76F23"/>
	<stop  offset="0.9791" style="stop-color:#FBB54B"/>
	<stop  offset="1" style="stop-color:#FFB84D"/>
	<a:midPointStop  offset="0" style="stop-color:#5E3200"/>
	<a:midPointStop  offset="0.5455" style="stop-color:#5E3200"/>
	<a:midPointStop  offset="1" style="stop-color:#FFB84D"/>
</linearGradient>
<path fill="url(#SVGID_2_)" d="M14.389,35.858c-1.118,2.433-4.983,4.692-7.356,3.128c-1.142-0.752-3.112,0.159-5.964,2.585
	c-1.054,0.898-1.374,0.692-0.753-0.354c3.327-5.603,7.904-9.045,11.463-9.532C13.514,31.449,14.965,34.607,14.389,35.858z"/>
<path fill="#F0A648" d="M24.642,36.142c-0.923-1.079-3.166-2.729-4.175-3.439c-0.63-0.443-2.235,1.558-2.14,2.238
	c0.186,1.31,3.7,1.967,5.203,4.879C24.356,41.419,25.877,37.583,24.642,36.142z"/>
<linearGradient id="SVGID_3_" gradientUnits="userSpaceOnUse" x1="35.4512" y1="29.2168" x2="48.1895" y2="29.2168">
	<stop  offset="0" style="stop-color:#EDA951"/>
	<stop  offset="0.2831" style="stop-color:#E09A40"/>
	<stop  offset="0.7044" style="stop-color:#D1892E"/>
	<stop  offset="1" style="stop-color:#CC8327"/>
	<a:midPointStop  offset="0" style="stop-color:#EDA951"/>
	<a:midPointStop  offset="0.3697" style="stop-color:#EDA951"/>
	<a:midPointStop  offset="1" style="stop-color:#CC8327"/>
</linearGradient>
<path fill="url(#SVGID_3_)" d="M48.189,31.224c0,0-3.658-5.201-9.553-7.225c0,0-2.326,0.822-3.186,2.848
	c5.824,3.85,9.852,7.587,9.852,7.587C47.611,33.368,48.189,31.224,48.189,31.224z"/>
<linearGradient id="SVGID_4_" gradientUnits="userSpaceOnUse" x1="38.6367" y1="26.1719" x2="50.8652" y2="26.1719">
	<stop  offset="0" style="stop-color:#F2B466"/>
	<stop  offset="0.2668" style="stop-color:#EFAF5F"/>
	<stop  offset="0.647" style="stop-color:#E6A24D"/>
	<stop  offset="1" style="stop-color:#DB9135"/>
	<a:midPointStop  offset="0" style="stop-color:#F2B466"/>
	<a:midPointStop  offset="0.6303" style="stop-color:#F2B466"/>
	<a:midPointStop  offset="1" style="stop-color:#DB9135"/>
</linearGradient>
<path fill="url(#SVGID_4_)" d="M50.865,27.303c0,0-4.854-3.492-9.346-6.184c0,0-1.949,0.62-2.883,2.88
	c5.516,2.95,9.553,7.225,9.553,7.225C50.967,29.325,50.865,27.303,50.865,27.303z"/>
<linearGradient id="SVGID_5_" gradientUnits="userSpaceOnUse" x1="41.5195" y1="22.5947" x2="52.6865" y2="22.5947">
	<stop  offset="0" style="stop-color:#EDA951"/>
	<stop  offset="0.2831" style="stop-color:#E09A40"/>
	<stop  offset="0.7044" style="stop-color:#D1892E"/>
	<stop  offset="1" style="stop-color:#CC8327"/>
	<a:midPointStop  offset="0" style="stop-color:#EDA951"/>
	<a:midPointStop  offset="0.3697" style="stop-color:#EDA951"/>
	<a:midPointStop  offset="1" style="stop-color:#CC8327"/>
</linearGradient>
<path fill="url(#SVGID_5_)" d="M52.611,22.271c0,0-4.678-2.551-8.459-4.385c0,0-1.691,0.575-2.633,3.233
	c3.232,3.898,9.346,6.184,9.346,6.184C53.238,25.5,52.611,22.271,52.611,22.271z"/>
<linearGradient id="SVGID_6_" gradientUnits="userSpaceOnUse" x1="44.1523" y1="18.3564" x2="53.5605" y2="18.3564">
	<stop  offset="0" style="stop-color:#F2B466"/>
	<stop  offset="0.2668" style="stop-color:#EFAF5F"/>
	<stop  offset="0.647" style="stop-color:#E6A24D"/>
	<stop  offset="1" style="stop-color:#DB9135"/>
	<a:midPointStop  offset="0" style="stop-color:#F2B466"/>
	<a:midPointStop  offset="0.6303" style="stop-color:#F2B466"/>
	<a:midPointStop  offset="1" style="stop-color:#DB9135"/>
</linearGradient>
<path fill="url(#SVGID_6_)" d="M52.783,15.781c-0.473-1.006-3.486-1.559-4.348-1.257c-1.285,0.451-3.523,1.767-4.283,3.362
	c1.943,3.57,8.459,4.385,8.459,4.385C54.486,19.436,53.053,16.356,52.783,15.781z"/>
<path fill="#CC8327" d="M51.701,10.482c-1.031-0.562-2.035-0.795-3.119,0.668c-0.73,0.989,0.088,2.346-0.203,3.651
	c-0.311,1.44,3.732,1.892,4.178,1.125C53.553,14.212,52.486,10.911,51.701,10.482z"/>
<path fill="#DB9135" d="M50.586,6.017c-1.121-0.216-2.152-0.575-2.953,1.009c-0.539,1.074,0.975,2.57,0.934,3.896
	c-0.047,1.462,2.514,1.271,2.947,0.503C52.824,9.107,51.506,6.194,50.586,6.017z"/>
<path fill="#CC8327" d="M47.992,2.042c-1.1,0.061-3.502,1.945-2.75,2.392c0.908,0.534,2.16,1.521,2.602,2.796
	c0.488,1.404,2.857,0.572,2.992-0.271C51.242,4.417,49.01,1.986,47.992,2.042z"/>
<path fill="#DB9135" d="M42.299,0.271c-1.371,4.851,5.75,4.882,6.045,3.026C48.752,0.755,42.551-0.619,42.299,0.271z"/>
<path fill="#5E3200" d="M36.145,11.267c0,0,1.545-0.66,1.938,1.804c0.93-2.446-2.168-3.241-2.168-3.241L36.145,11.267z"/>
<linearGradient id="SVGID_7_" gradientUnits="userSpaceOnUse" x1="31.9819" y1="4.6904" x2="43.3965" y2="4.6904">
	<stop  offset="0" style="stop-color:#EDA951"/>
	<stop  offset="0.2831" style="stop-color:#E09A40"/>
	<stop  offset="0.7044" style="stop-color:#D1892E"/>
	<stop  offset="1" style="stop-color:#CC8327"/>
	<a:midPointStop  offset="0" style="stop-color:#EDA951"/>
	<a:midPointStop  offset="0.3697" style="stop-color:#EDA951"/>
	<a:midPointStop  offset="1" style="stop-color:#CC8327"/>
</linearGradient>
<path fill="url(#SVGID_7_)" d="M42.008,0.325c-5.115,1.766-14.01,8.989-8.035,8.781c1.533-0.053,7.32-4.213,9.061-6.047
	C43.809,2.245,43.285-0.116,42.008,0.325z"/>
<linearGradient id="SVGID_8_" gradientUnits="userSpaceOnUse" x1="31.5181" y1="10.1689" x2="36.4326" y2="10.1689">
	<stop  offset="0" style="stop-color:#F2B466"/>
	<stop  offset="0.2668" style="stop-color:#EFAF5F"/>
	<stop  offset="0.647" style="stop-color:#E6A24D"/>
	<stop  offset="1" style="stop-color:#DB9135"/>
	<a:midPointStop  offset="0" style="stop-color:#F2B466"/>
	<a:midPointStop  offset="0.6303" style="stop-color:#F2B466"/>
	<a:midPointStop  offset="1" style="stop-color:#DB9135"/>
</linearGradient>
<path fill="url(#SVGID_8_)" d="M31.773,8.504c-1.535,3.479,4.338,4.587,4.635,2.733C36.813,8.696,32.15,7.647,31.773,8.504z"/>
<linearGradient id="SVGID_9_" gradientUnits="userSpaceOnUse" x1="33.1855" y1="32.0596" x2="45.3027" y2="32.0596">
	<stop  offset="0" style="stop-color:#F2B466"/>
	<stop  offset="0.2668" style="stop-color:#EFAF5F"/>
	<stop  offset="0.647" style="stop-color:#E6A24D"/>
	<stop  offset="1" style="stop-color:#DB9135"/>
	<a:midPointStop  offset="0" style="stop-color:#F2B466"/>
	<a:midPointStop  offset="0.6303" style="stop-color:#F2B466"/>
	<a:midPointStop  offset="1" style="stop-color:#DB9135"/>
</linearGradient>
<path fill="url(#SVGID_9_)" d="M45.303,34.435c0,0-4.4-6.257-9.852-7.587c0,0-1.529,0.442-2.266,2.281
	c5.029,4.24,9.836,8.144,9.836,8.144C45.055,36.102,45.303,34.435,45.303,34.435z"/>
<linearGradient id="SVGID_10_" gradientUnits="userSpaceOnUse" x1="31.1641" y1="34.2588" x2="43.0215" y2="34.2588">
	<stop  offset="0" style="stop-color:#EDA951"/>
	<stop  offset="0.2831" style="stop-color:#E09A40"/>
	<stop  offset="0.7044" style="stop-color:#D1892E"/>
	<stop  offset="1" style="stop-color:#CC8327"/>
	<a:midPointStop  offset="0" style="stop-color:#EDA951"/>
	<a:midPointStop  offset="0.3697" style="stop-color:#EDA951"/>
	<a:midPointStop  offset="1" style="stop-color:#CC8327"/>
</linearGradient>
<path fill="url(#SVGID_10_)" d="M43.021,37.272c0,0-4.6-6.436-9.836-8.144c0,0-1.518,0.854-2.021,1.818
	c5.195,4.252,9.68,8.442,9.68,8.442C42.703,38.327,43.021,37.272,43.021,37.272z"/>
<linearGradient id="SVGID_11_" gradientUnits="userSpaceOnUse" x1="22.9722" y1="36.6982" x2="40.8438" y2="36.6982">
	<stop  offset="0" style="stop-color:#F2B466"/>
	<stop  offset="0.2668" style="stop-color:#EFAF5F"/>
	<stop  offset="0.647" style="stop-color:#E6A24D"/>
	<stop  offset="1" style="stop-color:#DB9135"/>
	<a:midPointStop  offset="0" style="stop-color:#F2B466"/>
	<a:midPointStop  offset="0.6303" style="stop-color:#F2B466"/>
	<a:midPointStop  offset="1" style="stop-color:#DB9135"/>
</linearGradient>
<path fill="url(#SVGID_11_)" d="M40.844,39.389c0,0-4.443-6.734-9.68-8.442c-2.113,0.532-4.635,4.246-5.369,4.553
	c-1.064,0.444-1.859,1.329-1.969,2.564c-2.403,2.483,0.934,4.358,1.855,2.324c0.167,2.951,3.963,2.308,4.682,0.716
	C35.656,41.917,40.844,39.389,40.844,39.389z"/>
<path fill="#CC8327" d="M63.951,33.79c-0.445-0.654-2.018-1.344-2.611-1.451c-0.725-0.131-0.941,0.611-0.289,0.853
	c0.738,0.27,1.867,0.51,2.332,0.974C63.676,34.463,64.154,34.091,63.951,33.79z"/>
<path fill="#DB9135" d="M61.432,32.231c-0.775-1.295-0.514-5.091-1.012-6.465c-0.221-0.608-1.68-0.122-1.672,0.712
	c0.021,2.281,1.535,5.086,1.77,6.328C60.701,33.784,61.816,32.872,61.432,32.231z"/>
<path fill="#E69F45" d="M60.162,25.256c-2.625-1.257-5.629-2.316-7.43-1.519c-1.629,0.722-0.814,2.594,0.756,2.098
	c2.154-0.681,3.092,0.625,5.105,1.001C59.58,27.02,61.012,25.663,60.162,25.256z"/>
<path fill="#DB9135" d="M52.178,23.821c-0.848,0.084-3.709,4.206-3.992,5.767c-0.344,1.889,2.156,2.256,2.582,0.488
	c0.576-2.393,2.92-2.642,3.012-4.434C53.836,24.565,53.244,23.71,52.178,23.821z"/>
<path fill="#CC8327" d="M60.93,38.973c0.012-0.29-1.926-1.458-2.563-1.596c-0.771-0.175-1.189,0.559-0.52,0.834
	c0.756,0.313,1.529,0.137,2.391,1.007C60.535,39.52,60.916,39.339,60.93,38.973z"/>
<path fill="#DB9135" d="M58.834,37.42c-0.334-1.505,0.139-5.321-0.246-6.676c-0.461-1.64-2.045-1.124-1.854,0.517
	c0.217,1.861,0.984,4.614,0.717,6.389C57.311,38.6,58.902,37.735,58.834,37.42z"/>
<path fill="#E69F45" d="M58.344,29.896c-2.16-0.567-5.484-2.421-7.387-2.09c-1.961,0.344-2.488,2.275-0.684,2.397
	c2.045,0.138,4.896,0.206,6.246,1.25C57.371,32.11,59.33,30.155,58.344,29.896z"/>
<path fill="#F0A648" d="M49.686,28.323c-2.371,0.099-3.713,5.36-6.73,7.243c-1.736,1.084,2.104,2.748,2.855,1.03
	c1.264-2.886,5.043-5.263,5.359-6.048C51.588,29.531,50.893,28.273,49.686,28.323z"/>
<path fill="#694720" d="M25.394,37.02c0.771,0.119,0.972,0.838,0.824,1.351c-0.108,0.384-2.026,0.092-2.017-0.306
	C24.215,37.489,24.688,36.912,25.394,37.02z"/>
<path fill="#FFFFFF" d="M25.364,37.207c0.558,0.084,0.943,0.58,0.863,1.104c-0.07,0.455-0.598,0.887-1.154,0.803
	c-0.559-0.088-0.92-0.734-0.862-1.107C24.291,37.481,24.808,37.122,25.364,37.207z"/>
<path fill="#1A1626" d="M25.436,37.406c-0.418-0.061-0.81,0.227-0.874,0.647c-0.065,0.415,0.222,0.805,0.639,0.868
	c0.413,0.065,0.804-0.224,0.868-0.641C26.134,37.859,25.849,37.472,25.436,37.406z"/>
<path fill="#FFFFFF" d="M25.454,37.946c-0.044,0.274,0.368,0.335,0.408,0.062C25.908,37.729,25.496,37.668,25.454,37.946z"/>
<path fill="#694720" d="M28.678,37.611c-0.877-0.133-1.342,0.582-1.354,1.188c-0.016,0.455,2.168,0.785,2.291,0.349
	C29.795,38.517,29.484,37.732,28.678,37.611z"/>
<path fill="#FFFFFF" d="M28.645,37.825c-0.633-0.096-1.219,0.312-1.311,0.909c-0.08,0.516,0.344,1.163,0.979,1.256
	c0.635,0.097,1.25-0.485,1.314-0.91C29.719,38.483,29.281,37.92,28.645,37.825z"/>
<path fill="#1A1626" d="M28.502,38.02c0.475,0.071,0.797,0.516,0.725,0.992c-0.072,0.475-0.516,0.803-0.99,0.729
	c-0.471-0.068-0.795-0.514-0.723-0.986C27.588,38.275,28.029,37.948,28.502,38.02z"/>
<path fill="#FFFFFF" d="M28.23,38.612c-0.047,0.311-0.52,0.238-0.471-0.072C27.809,38.223,28.279,38.294,28.23,38.612z"/>
<path fill="#CC8327" d="M48.453,49.962c0.162-0.242-0.887-2.234-1.357-2.68c-0.57-0.546-1.309-0.133-0.883,0.445
	c0.486,0.657,1.238,0.903,1.52,2.088C47.83,50.227,48.25,50.267,48.453,49.962z"/>
<path fill="#DB9135" d="M47.473,47.558c0.5-1.459,2.895-4.481,3.277-5.838c0.459-1.64-1.164-2.012-1.857-0.508
	c-0.787,1.702-1.568,4.451-2.723,5.833C45.551,47.785,47.365,47.862,47.473,47.558z"/>
<path fill="#E69F45" d="M50.98,40.869c-1.551-1.593-3.426-4.885-5.229-5.577c-1.855-0.712-3.318,0.67-1.838,1.7
	c1.68,1.168,4.082,2.688,4.693,4.274C48.992,42.264,51.691,41.598,50.98,40.869z"/>
<path fill="#DB9135" d="M44.094,35.06c-2.328-0.463-5.643,4.346-9.025,5.466c-1.945,0.645,1.385,3.165,2.529,1.672
	c1.916-2.506,6.908-3.938,7.404-4.628C45.65,36.68,45.279,35.294,44.094,35.06z"/>
<path fill="#CC8327" d="M44.916,54.748c0.061-0.23-1.137-1.639-1.576-1.904c-0.533-0.323-0.969,0.168-0.531,0.551
	c0.494,0.436,0.967,0.338,1.523,1.311C44.498,54.996,44.834,55.042,44.916,54.748z"/>
<path fill="#DB9135" d="M43.58,52.83c-0.102-1.425,1.285-4.317,1.256-5.508c-0.033-1.436-1.18-1.594-1.689-0.294
	c-0.465,1.189-0.668,5.285-0.633,5.902C42.563,53.732,43.627,53.441,43.58,52.83z"/>
<path fill="#E69F45" d="M44.973,46.857c0.5-0.425-0.762-4.178-1.156-5.524c-0.402-1.383-3.014-0.403-2.135,0.641
	c1.477,1.753,0.816,4.092,1.217,4.594C43.416,47.219,44.346,47.391,44.973,46.857z"/>
<path fill="#F0A648" d="M43.291,40.691c-0.57-0.642-7.977-0.861-9.871,0.671c-0.543,0.438-0.383,2.165,0.328,1.96
	c3.484-1.007,7.67-0.074,8.582-0.404C43.516,42.492,44.014,41.505,43.291,40.691z"/>
<path fill="#F0A648" d="M32.893,41.88c1.176,0.962,3.65,2.461,4.043,3.225c0.492,0.962-2.873,2.377-4.127,2.501
	c-0.965,0.096-1.941-3.715-3.504-4.829C28.428,42.149,31.771,40.962,32.893,41.88z"/>
<path fill="#E69F45" d="M37.285,45.103c1.797,1.506,1.508,7.077-1.121,9.651c-1.115,1.091-3.016-1.371-3.025-2.654
	c-0.012-1.627,1.352-2.947-0.711-4.418C30.723,46.466,35.59,43.678,37.285,45.103z"/>
<linearGradient id="SVGID_12_" gradientUnits="userSpaceOnUse" x1="-52.1333" y1="87.0391" x2="-42.1841" y2="77.7205" gradientTransform="matrix(0.9715 0.237 -0.237 0.9715 91.1768 -8.6249)">
	<stop  offset="0" style="stop-color:#5E3200"/>
	<stop  offset="0.1641" style="stop-color:#72430A"/>
	<stop  offset="0.5014" style="stop-color:#A76F23"/>
	<stop  offset="0.9791" style="stop-color:#FBB54B"/>
	<stop  offset="1" style="stop-color:#FFB84D"/>
	<a:midPointStop  offset="0" style="stop-color:#5E3200"/>
	<a:midPointStop  offset="0.5455" style="stop-color:#5E3200"/>
	<a:midPointStop  offset="1" style="stop-color:#FFB84D"/>
</linearGradient>
<path fill="url(#SVGID_12_)" d="M32.268,59.238c-3.975,0.674-7.483,4.976-14.449,4.754c-1.002-0.032-0.989-0.477,0.188-0.631
	c2.108-0.277,6.742-1.541,7.424-5.534L32.268,59.238z"/>
<linearGradient id="SVGID_13_" gradientUnits="userSpaceOnUse" x1="-54.2471" y1="83.9902" x2="-39.6482" y2="74.2328" gradientTransform="matrix(0.9715 0.237 -0.237 0.9715 91.1768 -8.6249)">
	<stop  offset="0" style="stop-color:#5E3200"/>
	<stop  offset="0.1641" style="stop-color:#72430A"/>
	<stop  offset="0.5014" style="stop-color:#A76F23"/>
	<stop  offset="0.9791" style="stop-color:#FBB54B"/>
	<stop  offset="1" style="stop-color:#FFB84D"/>
	<a:midPointStop  offset="0" style="stop-color:#5E3200"/>
	<a:midPointStop  offset="0.5455" style="stop-color:#5E3200"/>
	<a:midPointStop  offset="1" style="stop-color:#FFB84D"/>
</linearGradient>
<path fill="url(#SVGID_13_)" d="M36.561,55.518c-0.713,2.844-6.082,5.899-9.311,3.021c-1.181-1.057-5.367,0.967-9.59-0.649
	c-1.562-0.597-1.536-0.811-0.09-0.859c10.121-0.338,9.301-4.678,13.57-5.743C33.916,50.595,37.086,53.425,36.561,55.518z"/>
</svg>
