<?xml version="1.0" encoding="utf-8"?>
<!-- Generator: Adobe Illustrator 15.0.0, SVG Export Plug-In . SVG Version: 6.00 Build 0)  -->
<!DOCTYPE svg PUBLIC "-//W3C//DTD SVG 1.1//EN" "http://www.w3.org/Graphics/SVG/1.1/DTD/svg11.dtd" [
	<!ENTITY ns_flows "http://ns.adobe.com/Flows/1.0/">
	<!ENTITY ns_extend "http://ns.adobe.com/Extensibility/1.0/">
	<!ENTITY ns_ai "http://ns.adobe.com/AdobeIllustrator/10.0/">
	<!ENTITY ns_graphs "http://ns.adobe.com/Graphs/1.0/">
]>
<svg version="1.1" id="Layer_1" xmlns:x="&ns_extend;" xmlns:i="&ns_ai;" xmlns:graph="&ns_graphs;"
	 xmlns="http://www.w3.org/2000/svg" xmlns:xlink="http://www.w3.org/1999/xlink" xmlns:a="http://ns.adobe.com/AdobeSVGViewerExtensions/3.0/"
	 x="0px" y="0px" width="64px" height="64px" viewBox="0 0 64 64" enable-background="new 0 0 64 64" xml:space="preserve">
<path fill="#A0A4AB" d="M44.843,35.711c5.592,5.482,6.051,10.115,7.832,13.758c0.328,0.677-0.043,7.883-1.371,9.042
	c-0.383,0.344,1.369,1.161,1.787,0.892c2.771-1.827,1.252-5.328,2.123-7.708c0.309-0.845,1.176-3.379,0.889-4.227
	c-3.777-11.107,2.02-9.21,0.215-17.397C53.854,18.89,33.88,24.915,44.843,35.711z"/>
<path fill="#302C3B" d="M51.444,58.357c-1.012,1.013-1.361,2.426-1.361,2.426l2.678-0.136c0,0,0.637-0.379,0.799-1.614
	C51.737,59.258,51.444,58.357,51.444,58.357z"/>
<path fill="#302C3B" d="M51.835,58.273c0.701-0.541,2.215,0.229,2.479-0.614C54.331,57.475,52.448,57.209,51.835,58.273z"/>
<path fill="#302C3B" d="M54.997,43.31c-0.078-0.416-0.119-0.882-0.158-1.238c-1.441-0.051-4.619-0.645-5.059,0.347
	c0.141,0.279,0.271,0.561,0.395,0.832C50.858,42.369,53.642,43.422,54.997,43.31z"/>
<path fill="#302C3B" d="M55.397,45.186c-0.092-0.332-0.174-0.648-0.246-0.953c-1.643-0.242-4.203-0.979-4.631-0.181
	c0.162,0.387,0.311,0.765,0.455,1.136C51.569,44.24,53.856,45.189,55.397,45.186z"/>
<path fill="#302C3B" d="M55.948,47c-1.939-1.089-4.379-1.704-4.627-0.894c0.109,0.297,0.217,0.589,0.326,0.878
	C52.36,46.175,54.687,47.074,55.948,47z"/>
<path fill="#302C3B" d="M56.063,48.75c0.035-0.189,0.059-0.368,0.072-0.538c-1.266-0.427-3.652-1.43-4.285-0.686
	c0.154,0.404,0.313,0.801,0.477,1.188C52.581,47.788,54.907,48.643,56.063,48.75z"/>
<path fill="#302C3B" d="M55.786,49.925c-1.006-0.192-2.74-1.175-3.076-0.318c0.051,0.226,0.076,0.66,0.074,1.231
	c0.324-1.001,1.828-0.048,2.74-0.045C55.614,50.525,55.702,50.229,55.786,49.925z"/>
<path fill="#302C3B" d="M55.019,52.463c0.047-0.266,0.107-0.525,0.195-0.769c0.021-0.059,0.051-0.145,0.078-0.22
	c-0.764-0.016-2.199-0.453-2.52,0.049c-0.01,0.295-0.023,0.604-0.047,0.931C53.077,51.877,54.308,52.481,55.019,52.463z"/>
<path fill="#302C3B" d="M54.897,54.038c0.004-0.305,0.012-0.606,0.033-0.899c-0.775-0.061-1.945-0.676-2.248-0.08
	c-0.027,0.325-0.063,0.661-0.102,0.998C52.909,53.272,54.093,54.054,54.897,54.038z"/>
<path fill="#302C3B" d="M54.89,54.63c-0.777,0.016-2.164-0.428-2.4,0.147c-0.039,0.277-0.084,0.546-0.131,0.812
	c0.367-0.653,1.701,0.027,2.512,0.035C54.884,55.293,54.888,54.963,54.89,54.63z"/>
<path fill="#302C3B" d="M51.983,57.193c0.318-0.615,1.771-0.028,2.682-0.034c0.066-0.258,0.113-0.519,0.146-0.787
	c-0.861-0.104-2.23-0.748-2.572-0.174C52.163,56.556,52.077,56.893,51.983,57.193z"/>
<path fill="#A0A4AB" d="M15.66,31.002c-2.736,3.82-2.187,10.703-5.342,14.711c-0.085,0.109-0.657,1.267-0.638,1.412
	c0.336,2.459,2.105,5.767,0.661,8.607c-0.239,0.477,2.571,0.773,2.767,0.214c0.852-2.433-0.541-5.522-0.382-7.854
	c2.015-1.051,1.251-5.597,9.034-10.799C30.585,31.387,21.935,22.232,15.66,31.002z"/>
<path fill="#302C3B" d="M10.341,55.732c0.398,1.414-0.781,3.46-0.268,3.525c0.425,0.056,2.661-1.85,2.661-1.85
	s0.414-0.468,0.375-1.462C10.605,56.527,10.341,55.732,10.341,55.732z"/>
<path fill="#302C3B" d="M10.771,55.011c0.679-0.602,2.349-0.139,2.531-0.942C13.302,53.896,11.298,53.953,10.771,55.011z"/>
<path fill="#302C3B" d="M17.526,40.846c0.221-0.239,0.446-0.479,0.7-0.727c-1.003-0.855-3.688-3.364-4.847-2.878
	c-0.062,0.277-0.124,0.56-0.186,0.842C14.253,37.446,16.289,40.382,17.526,40.846z"/>
<path fill="#302C3B" d="M16.184,42.491c0.168-0.236,0.346-0.475,0.543-0.72c-1.166-1.203-2.768-3.539-3.733-2.809
	c-0.088,0.392-0.182,0.781-0.278,1.171C13.764,39.387,14.975,41.665,16.184,42.491z"/>
<path fill="#302C3B" d="M15.293,43.882c0.151-0.263,0.314-0.536,0.499-0.818c-0.901-0.65-2.62-2.719-3.32-2.012
	c-0.073,0.265-0.153,0.521-0.235,0.773C13.373,41.324,14.372,43.359,15.293,43.882z"/>
<path fill="#302C3B" d="M14.553,45.311c0.111-0.229,0.229-0.474,0.36-0.728c-0.948-0.839-2.121-2.38-2.889-2.121
	c-0.113,0.313-0.233,0.618-0.361,0.919C12.564,42.93,13.541,44.644,14.553,45.311z"/>
<path fill="#302C3B" d="M13.896,46.699c0.14-0.274,0.281-0.583,0.436-0.917c-0.882-0.595-2.165-2.326-2.983-1.711
	c-0.109,0.219-0.233,0.427-0.354,0.636C12.005,44.386,12.991,46.122,13.896,46.699z"/>
<path fill="#302C3B" d="M13.095,47.837c0.134-0.119,0.257-0.265,0.373-0.423c-0.76-0.848-1.894-2.35-2.704-2.333
	c-0.143,0.216-0.287,0.43-0.445,0.632C11.127,45.451,12.192,47.168,13.095,47.837z"/>
<path fill="#302C3B" d="M12.726,48.093c0.014-0.298-2.282-2.07-2.914-1.357c0,0-0.407,0.399,0.003,1.13
	C10.235,47.254,11.781,48.251,12.726,48.093z"/>
<path fill="#302C3B" d="M12.791,49.595c-0.035-0.28-0.057-0.559-0.068-0.825c-0.803,0.118-2.434-0.498-2.652,0.12
	c0.06,0.219,0.222,0.819,0.282,1.045C10.574,49.286,12.031,49.719,12.791,49.595z"/>
<path fill="#302C3B" d="M12.987,50.88c-0.044-0.254-0.085-0.503-0.124-0.754c-0.854,0.075-1.96-0.248-2.379,0.316
	c0.065,0.259,0.123,0.521,0.178,0.784C10.939,50.678,12.164,51.022,12.987,50.88z"/>
<path fill="#302C3B" d="M13.073,51.367c-0.75,0.132-2.028-0.063-2.293,0.509c0.035,0.205,0.059,0.411,0.078,0.619
	c0.479-0.516,1.589-0.214,2.349-0.322C13.166,51.904,13.12,51.632,13.073,51.367z"/>
<path fill="#302C3B" d="M10.869,53.838c0.542-0.6,1.639-0.27,2.486-0.4c-0.016-0.217-0.037-0.434-0.065-0.653
	c-0.81,0.029-1.946-0.333-2.397,0.217C10.9,53.279,10.896,53.56,10.869,53.838z"/>
<linearGradient id="SVGID_1_" gradientUnits="userSpaceOnUse" x1="145.748" y1="8.8501" x2="145.748" y2="-7.9585" gradientTransform="matrix(0.9672 -0.2539 0.2539 0.9672 -83.7934 69.7179)">
	<stop  offset="0" style="stop-color:#302C3B"/>
	<stop  offset="0.2939" style="stop-color:#676773"/>
	<stop  offset="0.6265" style="stop-color:#9FA4AC"/>
	<stop  offset="0.8715" style="stop-color:#C2CACF"/>
	<stop  offset="1" style="stop-color:#CFD8DD"/>
	<a:midPointStop  offset="0" style="stop-color:#302C3B"/>
	<a:midPointStop  offset="0.4364" style="stop-color:#302C3B"/>
	<a:midPointStop  offset="1" style="stop-color:#CFD8DD"/>
</linearGradient>
<path fill="url(#SVGID_1_)" d="M59.311,35.693c-2.442-8.596-5.548-10.313-5.548-10.313s2.733,6.075,3.856,8.051
	c1.531,2.688-0.115,2.723,2.973,7.534C60.131,37.574,59.854,37.605,59.311,35.693z"/>
<path fill="#302C3B" d="M60.872,41.843c-0.923-4.174-1.847-3.741-1.92-7.35C59.523,37.352,60.571,37.297,60.872,41.843z"/>
<path fill="#302C3B" d="M60.296,43.521c-0.466-5.702-1.867-5.419-2.254-9.425C58.752,37.676,60.599,36.88,60.296,43.521z"/>
<path fill="#302C3B" d="M61.706,41.873c-1.421-4.297-3.074-4.053-3.769-7.631C59.242,36.916,60.6,36.926,61.706,41.873z"/>
<path fill="#302C3B" d="M59.944,40.862c-1.913-3.407-2.007-6.62-2.007-6.62S58.875,36.977,59.944,40.862z"/>
<path fill="#302C3B" d="M62,40.401c-3.228-3.674-6.584-10.941-6.584-10.941S59.202,36.273,62,40.401z"/>
<path fill="#302C3B" d="M57.892,34.07c0,0,0.441,0.251,0.827-0.395C58.326,33.445,57.892,34.07,57.892,34.07z"/>
<path fill="#302C3B" d="M57.664,33.426c0,0,0.44,0.251,0.828-0.397C58.1,32.802,57.664,33.426,57.664,33.426z"/>
<path fill="#302C3B" d="M57.365,32.791c0,0,0.44,0.253,0.827-0.396C57.801,32.168,57.365,32.791,57.365,32.791z"/>
<path fill="#302C3B" d="M57.084,32.272c0,0,0.381,0.341,0.732-0.563C57.478,31.399,57.084,32.272,57.084,32.272z"/>
<path fill="#302C3B" d="M56.704,31.624c0,0,0.418,0.381,0.805-0.632C57.138,30.647,56.704,31.624,56.704,31.624z"/>
<path fill="#302C3B" d="M56.3,31.102c0,0,0.774,0.2,0.844-1.112C56.45,29.803,56.3,31.102,56.3,31.102z"/>
<path fill="#302C3B" d="M55.901,29.55c0,0,0.386,0.372,0.747-0.62C56.305,28.594,55.901,29.55,55.901,29.55z"/>
<linearGradient id="SVGID_2_" gradientUnits="userSpaceOnUse" x1="18.3423" y1="21.9873" x2="18.3423" y2="3.7349">
	<stop  offset="0.0788" style="stop-color:#302C3B"/>
	<stop  offset="0.2513" style="stop-color:#60606C"/>
	<stop  offset="0.4202" style="stop-color:#888B95"/>
	<stop  offset="0.5828" style="stop-color:#A7ADB4"/>
	<stop  offset="0.7371" style="stop-color:#BDC5CB"/>
	<stop  offset="0.8799" style="stop-color:#CAD3D8"/>
	<stop  offset="1" style="stop-color:#CFD8DD"/>
	<a:midPointStop  offset="0.0788" style="stop-color:#302C3B"/>
	<a:midPointStop  offset="0.3289" style="stop-color:#302C3B"/>
	<a:midPointStop  offset="1" style="stop-color:#CFD8DD"/>
</linearGradient>
<path fill="url(#SVGID_2_)" d="M24.03,18.687l0.48-0.474c0.03-0.11,0.056-0.224,0.08-0.339l-0.389,0.115l0.441-0.39
	c0.011-0.069,0.021-0.143,0.03-0.212l-0.327,0.117l0.392-0.687c0.032-0.411,0.038-0.83,0.02-1.258l-0.76,0.255l0.74-0.561
	c-0.006-0.063-0.01-0.122-0.014-0.184h-0.426l0.396-0.295c-0.011-0.072-0.019-0.143-0.026-0.216h-0.399l0.341-0.377
	c-0.012-0.066-0.025-0.137-0.036-0.203l-0.386,0.19l0.332-0.464c-0.015-0.07-0.025-0.138-0.039-0.203l-0.764,0.667l0.636-1.18
	c-0.077-0.298-0.167-0.592-0.267-0.892l-0.478,0.336l0.408-0.54c-0.023-0.072-0.052-0.14-0.076-0.208l-0.409,0.267l0.275-0.611
	c-0.09-0.235-0.193-0.466-0.297-0.697l-0.368,0.22l0.253-0.465c-0.074-0.15-0.15-0.299-0.226-0.444l-1.061,0.411l0.856-0.785
	c-0.023-0.044-0.047-0.08-0.069-0.119l-0.609,0.272l0.428-0.579c-0.016-0.024-0.029-0.049-0.047-0.075L21.73,9.388l0.648-0.758
	c-0.129-0.19-0.268-0.381-0.405-0.564l-0.589,0.312l0.281-0.705c-0.029-0.038-0.059-0.075-0.089-0.111l-0.319,0.261l0.139-0.472
	c-0.213-0.245-0.432-0.482-0.661-0.707l-0.598,0.571l0.355-0.809c-0.037-0.033-0.073-0.063-0.11-0.097l-0.495,0.507l0.192-0.773
	c-0.048-0.041-0.097-0.081-0.145-0.122l-0.285,0.3l0.035-0.498c-0.047-0.034-0.089-0.071-0.135-0.103l-0.198,0.387V5.475
	c-0.273-0.192-0.55-0.376-0.837-0.538l-0.36,0.542L18.119,4.72c-0.067-0.033-0.136-0.066-0.203-0.098l-0.17,0.464l-0.057-0.568
	c-0.034-0.019-0.068-0.032-0.104-0.048l-0.142,0.762l-0.151-0.883c-0.064-0.025-0.128-0.051-0.193-0.077l-0.205,0.53l-0.264-0.689
	c-0.299-0.091-0.607-0.165-0.919-0.224L15.523,4.62V3.854c-0.023-0.004-0.048-0.009-0.072-0.014l-0.149,0.671v-0.69
	c-0.236-0.036-0.478-0.061-0.722-0.074l-0.079,0.511l-0.213-0.521c-0.763-0.018-1.557,0.064-2.372,0.261
	c0.805,1.179,12.836,17.989,12.836,17.989s-0.063-1.226-0.202-1.687l-0.233-0.262l0.191-0.254c0,0-0.1-0.822-0.133-1.099H24.03z"/>
<path fill="#1A1626" d="M24.769,15.554l-0.771,0.262l0.757-0.572c-0.008-0.058-0.012-0.113-0.017-0.172h-0.438l0.409-0.31
	c-0.009-0.067-0.016-0.133-0.025-0.201h-0.416l0.359-0.396c-0.012-0.068-0.023-0.131-0.032-0.195l-0.408,0.202l0.352-0.489
	c-0.016-0.066-0.03-0.131-0.043-0.193l-0.779,0.683l0.649-1.198c-0.079-0.277-0.138-0.433-0.138-0.433
	c-0.525,1.585-1.942,2.426-1.942,2.426l0.804,3.528c1.095-0.896,1.681-2.131,1.681-2.131C24.78,16.085,24.779,15.815,24.769,15.554z
	"/>
<path fill="#1A1626" d="M23.515,10.645l-0.373,0.221l0.262-0.481c-0.067-0.15-0.141-0.296-0.213-0.437l-1.082,0.42l0.876-0.807
	c-0.021-0.037-0.043-0.07-0.064-0.11l-0.634,0.285l0.448-0.602c-0.015-0.02-0.027-0.039-0.04-0.059L21.73,9.388l0.662-0.775
	c-0.137-0.202-0.272-0.388-0.4-0.556l-0.607,0.32l0.288-0.719c-0.027-0.035-0.058-0.072-0.085-0.105l-0.33,0.269l0.144-0.483
	c-0.248-0.281-0.408-0.433-0.408-0.433c-0.455,1.722-1.833,2.759-1.833,2.759l2.458,3.725c1.276-1.055,1.99-2.528,1.99-2.528
	C23.579,10.786,23.544,10.716,23.515,10.645z"/>
<path fill="#1A1626" d="M18.519,4.931l-0.363,0.548l-0.036-0.771c-0.067-0.037-0.133-0.069-0.196-0.102l-0.177,0.479l-0.058-0.591
	c-0.035-0.014-0.066-0.027-0.101-0.043l-0.144,0.779l-0.155-0.902c-0.063-0.026-0.124-0.05-0.183-0.071l-0.212,0.544l-0.269-0.704
	c-0.45-0.133-0.735-0.177-0.735-0.177c0.673,1.523,0.573,3.293,0.573,3.293l1.936,1.623c0.674-2.124,0.446-3.703,0.446-3.703
	C18.737,5.062,18.629,4.993,18.519,4.931z"/>
<linearGradient id="SVGID_3_" gradientUnits="userSpaceOnUse" x1="34.4131" y1="43.4678" x2="33.3202" y2="22.7302">
	<stop  offset="0" style="stop-color:#707378"/>
	<stop  offset="0.1257" style="stop-color:#91969B"/>
	<stop  offset="0.2553" style="stop-color:#ACB3B8"/>
	<stop  offset="0.3846" style="stop-color:#BFC8CD"/>
	<stop  offset="0.5123" style="stop-color:#CBD4D9"/>
	<stop  offset="0.6364" style="stop-color:#CFD8DD"/>
	<a:midPointStop  offset="0" style="stop-color:#707378"/>
	<a:midPointStop  offset="0.2985" style="stop-color:#707378"/>
	<a:midPointStop  offset="0.6364" style="stop-color:#CFD8DD"/>
</linearGradient>
<path fill="url(#SVGID_3_)" d="M56.663,33.035c0-3.819-1.131-9.914-7.676-11.392c-7.003-1.58-22.734,4.434-24.57-0.242
	C22.52,16.572,22.974,10.85,16.62,7.221c-4.044-2.313-9.509,1.344-5.042,9.953c2.276,4.796,1.51,10.245,2.531,15.938
	c0.696,3.875,1.708,6.787,4.384,8.071c12.029,5.771,19.924-2.037,23.794-2.037C44.824,39.146,56.663,41.522,56.663,33.035z"/>
<path fill="#CFD8DD" d="M9.179,2.907c-0.065-0.542,3.59,1.562,3.736,5.178c0.012,0.231-1.701,0.018-2.747-0.788
	C10.168,7.297,9.411,4.885,9.179,2.907z"/>
<path fill="#99A8AE" d="M9.556,3.785c-0.037-0.381,2.405,1.512,2.467,4.016c0.006,0.162-1.148-0.195-1.847-0.877
	C10.176,6.924,9.694,5.171,9.556,3.785z"/>
<path fill="#302C3B" d="M11.207,4.132V4.42l-0.13-0.238c-0.185,0.072-0.388,0.161-0.611,0.269l0.012,0.275l-0.2-0.182
	c-0.059,0.03-0.12,0.064-0.178,0.096l0.079,0.568l-0.38-0.403c-0.054,0.03-0.106,0.059-0.164,0.095l0.121,0.549L9.409,5.03
	C9.356,5.063,9.306,5.09,9.253,5.123l0.049,0.22L9.174,5.174C9.05,5.25,8.922,5.331,8.791,5.419l0.146,0.453L8.644,5.514
	C8.465,5.626,8.283,5.75,8.091,5.882c1.411,2.233,2.21,4.642,2.21,4.642S15.295,2.688,11.207,4.132z"/>
<path fill="#302C3B" d="M22.514,14.812c-0.844,7.782-6.804,7.654-8.961,13.401c0,0,0,1.136,0.182,2.162
	c2.352-5.45,6.665-4.972,9.7-12.157C23.138,16.4,22.514,14.812,22.514,14.812z"/>
<path fill="#302C3B" d="M27.579,23.15c-7.639,8.451-1.828,14.622-4.725,19.612c0,0,1.227,0.347,2.242,0.41
	c2.366-5.67-3.086-11.258,3.996-19.956C28.492,23.137,27.579,23.15,27.579,23.15z"/>
<path fill="#302C3B" d="M32.564,22.943c-0.903,0.072-1.496,0.179-1.496,0.179c-6.364,8.561-1.962,17.038-3.862,20.188
	c0,0,0.994,0.009,1.58-0.058C31.319,40.522,26.29,33.295,32.564,22.943z"/>
<path fill="#302C3B" d="M35.585,22.564c-0.903,0.071-1.28,0.183-1.28,0.183c-6.364,8.562-1.413,17.056-3.313,20.205
	c0,0,1.419-0.324,2.146-0.527C34.483,37.44,29.741,31.198,35.585,22.564z"/>
<path fill="#302C3B" d="M39.68,21.951c-0.904,0.073-1.962,0.29-1.962,0.29c-6.365,8.558-0.771,16.39-2.672,19.539
	c0,0,0.785-0.215,1.437-0.573C39.016,38.479,33.404,32.303,39.68,21.951z"/>
<path fill="#302C3B" d="M50.847,22.242c-0.959-0.562-2.81-0.77-2.81-0.77c-16.521,6.692-7.828,15.795-9.729,18.943
	c0,0,0.806-0.351,1.515-0.643C42.356,37.043,32.902,26.615,50.847,22.242z"/>
<path fill="#302C3B" d="M54.986,25.92c-0.724-1.485-2.821-2.977-2.821-2.977c-17.686,4.39-8.649,13.482-10.55,16.225
	c0,0,1.195,0.003,1.917,0.057C42.295,36.484,39.608,24.93,54.986,25.92z"/>
<path fill="#302C3B" d="M19.471,9.396c1.063,7.501-3.119,8.927-6.221,14.688c0,0.819,0.168,2.118,0.168,2.118
	c3.029-4.684,6.458-6.397,8.485-13.064C21.401,11.771,20.38,10.183,19.471,9.396z"/>
<path fill="#302C3B" d="M16.467,7.136c1.283,6.175-3.004,8.703-3.986,12.472c0,0,0.317,1.249,0.525,2.481
	c0.602-3.583,5.86-7.35,5.493-13.585C18.499,8.504,17.593,7.565,16.467,7.136z"/>
<linearGradient id="SVGID_4_" gradientUnits="userSpaceOnUse" x1="12.2476" y1="19.5649" x2="10.2367" y2="13.2853">
	<stop  offset="0.2545" style="stop-color:#CFD8DD"/>
	<stop  offset="0.6086" style="stop-color:#D7DFE3"/>
	<stop  offset="1" style="stop-color:#E6EBEF"/>
	<a:midPointStop  offset="0.2545" style="stop-color:#CFD8DD"/>
	<a:midPointStop  offset="0.6098" style="stop-color:#CFD8DD"/>
	<a:midPointStop  offset="1" style="stop-color:#E6EBEF"/>
</linearGradient>
<path fill="url(#SVGID_4_)" d="M14.911,7.201c-0.187-0.856-1.112-4.25-3.06-5.199c-0.235-0.114-0.436,4.311-0.436,4.311
	c-2.707,2.463-6.873,6.869-6.873,6.869c-2.039,2.324,2.413,5.54,3.939,5.255c5.74-1.084,7.109-2.958,7.298-4.759
	C16.229,9.48,14.911,7.201,14.911,7.201z"/>
<path fill="#99A8AE" d="M11.856,2.655c0.064-0.399,1.946,2.131,1.365,4.704c-0.039,0.166-1.425-0.297-1.569-1.35
	C11.652,6.01,11.635,4.103,11.856,2.655z"/>
<path fill="#302C3B" d="M13.203,8.367c0.983,4.269-1.64,3.803,0.218,8.475c0,0,1.156-0.626,1.483-1.156
	C13.447,12.833,15.356,11.176,13.203,8.367z"/>
<path fill="#302C3B" d="M12.584,17.258c-1.548-1.782-1.654-3.101-5.142-2.823c3.103,0.756,2.186,1.92,3.134,3.522
	C10.576,17.957,11.74,17.702,12.584,17.258z"/>
<path fill="#302C3B" d="M9.73,7.511c1.08,0.299,0.79,1.816,2.531,2.502c-1.202-1.23-0.179-2.609-1.714-3.536
	C10.134,6.899,9.73,7.511,9.73,7.511z"/>
<path fill="#302C3B" d="M5.052,14.303c1.281-2.146,4.032-1.553,2.815-4.58c0,0-0.575,0.57-0.782,0.789
	C6.943,11.715,4.946,12.758,5.052,14.303z"/>
<path fill="#302C3B" d="M4.543,13.182c-2.394,2.39-1.929,1.975-2.296,2.56c-0.448,0.715-0.005,0.972-0.229,2.026
	c-0.149,0.715,0.632,1.313,1.227,1.315c0.027,0.643,1.336,0.694,1.643,0.91c0.443,0.313,2.153,0.058,2.665-1.165
	c0.304-0.163,0.618-0.304,0.93-0.392C10.326,16.004,3.377,16.979,4.543,13.182z"/>
<path fill="#1A1626" d="M3.572,17.063c-0.202,0.141-0.689,0.245-0.839,0.057c-0.149-0.191,0.102-0.606,0.302-0.747
	c0.199-0.138,0.482-0.101,0.629,0.092C3.813,16.652,3.77,16.923,3.572,17.063z"/>
<path fill="#1A1626" d="M6.438,18.003c-0.045,0.884-2.899,0.973-3.192,1.08C3.353,18.821,6.271,18.413,6.438,18.003z"/>
<path fill="#1A1626" d="M3.1,15.626c-0.202,0.122-0.168,0.201,0.011,0.134c0.178-0.064,1.051-0.284,1.124,0.629
	c0,0,0.046,0.41,0.157,0.005C4.503,15.982,4.239,14.933,3.1,15.626z"/>
<path fill="#302C3B" d="M19.202,40.434c2.038-5.756-2.437-7.487-1.778-10.268c0,0-0.635,0.254-0.96,0.805
	C15.272,33.899,20.157,34.811,19.202,40.434z"/>
<path fill="#CFD8DD" d="M43.296,37.884c5.822,5.291,6.3,9.762,8.153,13.278c0.345,0.652-0.043,7.604-1.427,8.725
	c0,0,1.02,2.208,2.038,1.229c0.264-0.254,1.223-1.682,1.456-2.501c0.487-1.705-0.037-3.753,0.577-5.308
	c0.321-0.814,1.224-3.259,0.925-4.074c-2.74-7.476-1.017-8.557,0.121-11.254c0.494-1.173,1.635-2.888,1.603-5.33
	C56.553,18.252,35.343,30.625,43.296,37.884z"/>
<path fill="#302C3B" d="M50.573,59.652c0.733-0.519,2.31,0.221,2.581-0.591C53.173,58.887,51.214,58.631,50.573,59.652z"/>
<path fill="#302C3B" d="M53.875,40.764c0.132-0.396,0.295-0.763,0.469-1.124c-1.824-0.249-8.22-1.073-8.554,0.827
	c0.146,0.174,0.289,0.346,0.426,0.52C47.432,39.406,51.978,41.203,53.875,40.764z"/>
<path fill="#302C3B" d="M53.559,43.229c-0.018-0.395-0.003-0.751,0.028-1.084c-2.591-0.503-6.008-0.797-6.573-0.094
	c0.221,0.316,0.432,0.631,0.624,0.941C48.117,41.983,51.364,43.229,53.559,43.229z"/>
<path fill="#302C3B" d="M53.808,45.155c-0.08-0.399-0.138-0.768-0.18-1.113c-1.501-0.051-4.734-0.643-5.191,0.316
	c0.145,0.271,0.28,0.537,0.409,0.801C49.557,44.311,52.398,45.264,53.808,45.155z"/>
<path fill="#302C3B" d="M54.284,47.027c-0.095-0.322-0.18-0.629-0.254-0.922c-1.713-0.233-4.378-0.939-4.822-0.175
	c0.169,0.374,0.323,0.739,0.471,1.098C50.299,46.116,52.679,47.029,54.284,47.027z"/>
<path fill="#302C3B" d="M54.858,48.778c-2.02-1.051-4.56-1.645-4.819-0.862c0.114,0.284,0.228,0.571,0.339,0.848
	C51.122,47.982,53.546,48.852,54.858,48.778z"/>
<path fill="#302C3B" d="M54.979,50.465c0.034-0.181,0.061-0.354,0.075-0.519c-1.32-0.41-3.802-1.376-4.463-0.662
	c0.161,0.395,0.325,0.775,0.498,1.146C51.353,49.54,53.775,50.364,54.979,50.465z"/>
<path fill="#302C3B" d="M54.689,51.6c-1.047-0.185-2.852-1.135-3.203-0.308c0.053,0.221,0.08,0.639,0.08,1.189
	c0.334-0.967,1.899-0.045,2.851-0.045C54.508,52.179,54.601,51.891,54.689,51.6z"/>
<path fill="#302C3B" d="M53.89,54.049c0.048-0.257,0.11-0.505,0.204-0.742c0.021-0.057,0.053-0.139,0.081-0.211
	c-0.797-0.016-2.29-0.439-2.624,0.047c-0.01,0.283-0.025,0.584-0.048,0.898C51.868,53.484,53.149,54.066,53.89,54.049z"/>
<path fill="#302C3B" d="M53.763,55.567c0.003-0.295,0.013-0.584,0.036-0.865c-0.81-0.058-2.026-0.653-2.342-0.08
	c-0.028,0.316-0.065,0.641-0.104,0.964C51.695,54.832,52.928,55.582,53.763,55.567z"/>
<path fill="#302C3B" d="M53.757,56.139c-0.811,0.019-2.254-0.411-2.501,0.146c-0.041,0.264-0.086,0.524-0.136,0.78
	c0.383-0.63,1.771,0.027,2.614,0.035C53.75,56.78,53.755,56.459,53.757,56.139z"/>
<path fill="#302C3B" d="M50.729,58.614c0.331-0.594,1.846-0.029,2.792-0.034c0.069-0.247,0.12-0.499,0.152-0.76
	c-0.896-0.099-2.32-0.721-2.677-0.166C50.916,57.998,50.827,58.321,50.729,58.614z"/>
<path fill="#302C3B" d="M38.18,27.195c0.872-2.892,2.355-4.989,4.083-5.577c0,0,1.884-0.289,3.094-0.236
	C42.098,22.562,39.504,25.209,38.18,27.195z"/>
<path fill="#302C3B" d="M43.554,34.404c1.095-7.423,10.209-7.481,12.3-6.582c0,0,0.492,1.167,0.589,2.524
	C55.586,29.428,47.571,27.847,43.554,34.404z"/>
<path fill="#302C3B" d="M43.554,36.597c3.906-4.919,7.456-6.256,13.15-4.973c0,0,0.258,1.55-0.168,2.843
	C50.124,31.123,46.99,35.754,43.554,36.597z"/>
<path fill="#302C3B" d="M44.038,38.419c3.243-1.27,6.55-5.137,12.172-2.825c0,0-0.324,1.235-1.092,2.394
	C49.228,35.21,48.073,38.863,44.038,38.419z"/>
<path fill="#CFD8DD" d="M14.052,36.237c0.83,4.657,6.161,9.363,6.829,14.44c0.326,2.479,2.645,5.992,1.303,8.983
	c0.046,0.063,1.766,3.827,2.798,0.212c0.823-2.856-1.566-6.623-0.719-8.982c0.767-2.139-3.15-4.942-1.413-14.111
	C25.456,22.938,11.792,23.554,14.052,36.237z"/>
<path fill="#302C3B" d="M22.336,59.273c-0.402,1.367-2.182,2.211-1.434,2.313C21.532,61.675,23.91,62,23.91,62
	s0.737-0.08,0.656-1.095C23.537,60.369,22.336,59.273,22.336,59.273z"/>
<path fill="#302C3B" d="M22.57,58.939c0.641-0.596,2.354-0.136,2.481-0.936C25.041,57.834,23.028,57.887,22.57,58.939z"/>
<path fill="#302C3B" d="M22.435,42.242c-0.017-0.323-0.031-0.654-0.032-1.005c-1.317,0.044-5.003-0.001-5.466,1.134
	c0.157,0.248,0.315,0.498,0.474,0.748C17.696,41.934,21.232,42.732,22.435,42.242z"/>
<path fill="#302C3B" d="M22.677,44.357c-0.053-0.287-0.1-0.583-0.138-0.895c-1.681-0.103-4.481-0.747-4.633,0.438
	c0.219,0.347,0.435,0.699,0.646,1.05C18.748,43.696,21.236,44.563,22.677,44.357z"/>
<path fill="#302C3B" d="M23.052,45.982c-0.084-0.294-0.165-0.606-0.24-0.937c-1.099,0.123-3.789-0.246-3.773,0.748
	c0.137,0.242,0.268,0.482,0.394,0.73C19.867,45.388,22.029,46.216,23.052,45.982z"/>
<path fill="#302C3B" d="M23.561,47.535c-0.09-0.245-0.182-0.504-0.273-0.781c-1.268,0.021-3.194-0.328-3.549,0.378
	c0.146,0.307,0.282,0.614,0.407,0.921C20.455,47.116,22.372,47.723,23.561,47.535z"/>
<path fill="#302C3B" d="M24.096,49c-0.099-0.296-0.222-0.618-0.353-0.969c-1.045,0.151-3.188-0.262-3.319,0.743
	c0.081,0.234,0.142,0.47,0.207,0.707C21.107,48.565,23.048,49.184,24.096,49z"/>
<path fill="#302C3B" d="M24.353,50.378c0.008-0.179-0.009-0.367-0.043-0.563c-1.141-0.113-3.014-0.46-3.571,0.098
	c0.055,0.256,0.107,0.51,0.143,0.765C21.26,49.94,23.239,50.491,24.353,50.378z"/>
<path fill="#302C3B" d="M24.085,52.18c-0.005-0.299,0.01-0.585,0.061-0.856c-1.073,0.014-2.483-0.416-3.069,0.288
	c0.084,0.321,0.188,0.654,0.299,0.99C21.757,51.991,23.145,52.331,24.085,52.18z"/>
<path fill="#302C3B" d="M24.244,53.56c-0.054-0.28-0.095-0.555-0.123-0.822c-0.8,0.117-2.355-0.121-2.533,0.494
	c0.076,0.219,0.15,0.438,0.226,0.663C21.995,53.251,23.487,53.679,24.244,53.56z"/>
<path fill="#302C3B" d="M24.527,54.837c-0.062-0.252-0.12-0.502-0.175-0.751c-0.855,0.073-1.988-0.248-2.372,0.313
	c0.084,0.258,0.159,0.515,0.23,0.778C22.45,54.634,23.707,54.976,24.527,54.837z"/>
<path fill="#302C3B" d="M24.644,55.319c-0.745,0.129-2.043-0.063-2.271,0.504c0.047,0.208,0.086,0.408,0.119,0.617
	c0.448-0.511,1.584-0.214,2.341-0.319C24.772,55.854,24.708,55.583,24.644,55.319z"/>
<path fill="#302C3B" d="M22.592,57.776c0.503-0.598,1.631-0.266,2.473-0.396c-0.03-0.219-0.066-0.435-0.109-0.652
	c-0.813,0.028-1.979-0.331-2.398,0.213C22.585,57.219,22.598,57.498,22.592,57.776z"/>
<path fill="#302C3B" d="M14.977,38.984c-0.834-4.499,4.457-9.715,4.763-9.145C20.316,32.304,15.263,35.772,14.977,38.984z"/>
<path fill="#302C3B" d="M16.272,40.989c-1.441-2.627,3.002-7.68,3.413-7.377C21.241,35.311,16.256,38.981,16.272,40.989z"/>
<path fill="#302C3B" d="M17.121,40.486c2.012-1.404,5.054-0.874,4.858-0.541C20.777,41.291,18.832,40.171,17.121,40.486z"/>
<path fill="#302C3B" d="M10.343,9.514c-1.069,0-1.487,0.912-1.393,1.624c0.069,0.53,2.713,0.53,2.783,0
	C11.831,10.368,11.314,9.514,10.343,9.514z"/>
<path fill="#FFFFFF" d="M10.343,9.766c-0.771,0-1.393,0.579-1.393,1.292c0,0.615,0.622,1.291,1.393,1.291
	c0.768,0,1.391-0.785,1.391-1.291C11.733,10.345,11.11,9.766,10.343,9.766z"/>
<path fill="#1A1626" d="M10.208,10.016c0.573,0,1.039,0.462,1.039,1.031c0,0.564-0.466,1.025-1.039,1.025
	c-0.574,0-1.039-0.461-1.039-1.025C9.169,10.478,9.634,10.016,10.208,10.016z"/>
<path fill="#FFFFFF" d="M10.123,10.529c0,0.376-0.564,0.376-0.564,0C9.559,10.157,10.123,10.157,10.123,10.529z"/>
<path fill="#302C3B" d="M23.94,19.938c-2.875,6.263-8.441,8.402-10.142,12.819c0,0-0.116,1.868,0.113,2.543
	c1.279-4.731,5.113-5.272,10.841-13.313C24.219,20.868,23.94,19.938,23.94,19.938z"/>
<path fill="#302C3B" d="M18.753,39.013c8.453-3.881-1.575-6.176,7.897-16.014c0,0-0.601-0.056-1.181-0.435
	C15.206,33.53,25.521,33.127,18.753,39.013z"/>
<path fill="#302C3B" d="M50.022,59.887C49.503,60.943,47.409,62,48.163,62c0.637,0,3.537,0,3.537,0s0.725-0.063,0.508-1.057
	C51.116,60.553,50.022,59.887,50.022,59.887z"/>
</svg>
