<?xml version="1.0" encoding="utf-8"?>
<!-- Generator: Adobe Illustrator 15.0.0, SVG Export Plug-In . SVG Version: 6.00 Build 0)  -->
<!DOCTYPE svg PUBLIC "-//W3C//DTD SVG 1.1//EN" "http://www.w3.org/Graphics/SVG/1.1/DTD/svg11.dtd" [
	<!ENTITY ns_flows "http://ns.adobe.com/Flows/1.0/">
	<!ENTITY ns_extend "http://ns.adobe.com/Extensibility/1.0/">
	<!ENTITY ns_ai "http://ns.adobe.com/AdobeIllustrator/10.0/">
	<!ENTITY ns_graphs "http://ns.adobe.com/Graphs/1.0/">
]>
<svg version="1.1" id="Layer_1" xmlns:x="&ns_extend;" xmlns:i="&ns_ai;" xmlns:graph="&ns_graphs;"
	 xmlns="http://www.w3.org/2000/svg" xmlns:xlink="http://www.w3.org/1999/xlink" xmlns:a="http://ns.adobe.com/AdobeSVGViewerExtensions/3.0/"
	 x="0px" y="0px" width="64px" height="64px" viewBox="0 0 64 64" enable-background="new 0 0 64 64" xml:space="preserve">
<linearGradient id="SVGID_1_" gradientUnits="userSpaceOnUse" x1="-39.1919" y1="12.8022" x2="-39.1919" y2="-35.855" gradientTransform="matrix(0.9742 0.2257 -0.2257 0.9742 68.829 55.8425)">
	<stop  offset="0.0606" style="stop-color:#302C3B"/>
	<stop  offset="0.0717" style="stop-color:#3D343E"/>
	<stop  offset="0.1074" style="stop-color:#614A45"/>
	<stop  offset="0.145" style="stop-color:#7F5D4B"/>
	<stop  offset="0.1844" style="stop-color:#976B50"/>
	<stop  offset="0.2265" style="stop-color:#A77553"/>
	<stop  offset="0.2732" style="stop-color:#B17B55"/>
	<stop  offset="0.3333" style="stop-color:#B47D56"/>
	<a:midPointStop  offset="0.0606" style="stop-color:#302C3B"/>
	<a:midPointStop  offset="0.2436" style="stop-color:#302C3B"/>
	<a:midPointStop  offset="0.3333" style="stop-color:#B47D56"/>
</linearGradient>
<path fill="url(#SVGID_1_)" d="M37.981,34.941l-8.851-1.554c0.17,1.192,0.529,2.488,1.151,3.927c1.583,3.657,4.24,8.52,3.998,10.671
	c-0.132,1.173-7.861,3.603-10.022,4.952c-1.593,0.995-3.413,3.275-3.972,4.241c-0.317,0.552,0.324,0.931,1.635,0.386
	c0.296-0.121,2.685-2.052,3.315-2.54c3.88-2.999,8.357-2.439,9.965-3.236c1.605-0.799,3.093-1.558,2.818-2.329
	C35.398,42.045,36.176,37.921,37.981,34.941z"/>
<path fill="#302C3B" d="M11.902,41.481c0.178-0.309-0.395,0.166-1.149,0.389C10.582,41.921,11.116,42.851,11.902,41.481z"/>
<path fill="#302C3B" d="M11.394,41.522c0.178-0.31-0.396,0.165-1.149,0.39C10.073,41.962,10.607,42.891,11.394,41.522z"/>
<path fill="#302C3B" d="M11.03,41.562c0.177-0.309-0.396,0.166-1.149,0.389C9.708,42.001,10.243,42.931,11.03,41.562z"/>
<linearGradient id="SVGID_2_" gradientUnits="userSpaceOnUse" x1="-133.8228" y1="-14.4556" x2="-133.8228" y2="-25.9399" gradientTransform="matrix(0.9008 0.4342 -0.4342 0.9008 125.2866 114.1059)">
	<stop  offset="0.0364" style="stop-color:#302C3B"/>
	<stop  offset="0.0888" style="stop-color:#514042"/>
	<stop  offset="0.1501" style="stop-color:#6F5348"/>
	<stop  offset="0.2177" style="stop-color:#88624D"/>
	<stop  offset="0.2927" style="stop-color:#9C6E51"/>
	<stop  offset="0.3791" style="stop-color:#AA7754"/>
	<stop  offset="0.4872" style="stop-color:#B27C56"/>
	<stop  offset="0.6848" style="stop-color:#B47D56"/>
	<a:midPointStop  offset="0.0364" style="stop-color:#302C3B"/>
	<a:midPointStop  offset="0.1852" style="stop-color:#302C3B"/>
	<a:midPointStop  offset="0.6848" style="stop-color:#B47D56"/>
</linearGradient>
<path fill="url(#SVGID_2_)" d="M14.741,33.334c-0.318,0.813-7.096,5.225-7.133,6.438c-0.039,1.279,1.554,2.308,1.819,2.438
	c0.349,0.169,1.683,0.326,2.117,0.091c0.661-0.357-1.916-0.485-1.918-1.426c-0.001-0.438,0.759,0.519,1.204,0.141
	c0.244-0.207-0.563-0.96-0.976-1.228c-0.44-0.284,6.997-3.144,9.42-4.205C21.697,34.521,15.172,32.232,14.741,33.334z"/>
<path fill="#565261" d="M12.266,41.513c0.177-0.31-0.396,0.164-1.15,0.389C10.945,41.951,11.479,42.882,12.266,41.513z"/>
<path fill="#565261" d="M10.852,41.626c-0.057,0.262-0.11-0.057-0.47-0.579C10.3,40.928,11.102,40.472,10.852,41.626z"/>
<linearGradient id="SVGID_3_" gradientUnits="userSpaceOnUse" x1="-15.3872" y1="-6.9102" x2="11.396" y2="-6.9102" gradientTransform="matrix(0.9848 0.1736 -0.1736 0.9848 53.118 44.8935)">
	<stop  offset="0" style="stop-color:#B47D56"/>
	<stop  offset="0.1558" style="stop-color:#AF7A55"/>
	<stop  offset="0.3344" style="stop-color:#A17252"/>
	<stop  offset="0.5244" style="stop-color:#8A634D"/>
	<stop  offset="0.7222" style="stop-color:#6A5047"/>
	<stop  offset="0.9242" style="stop-color:#41373F"/>
	<stop  offset="1" style="stop-color:#302C3B"/>
	<a:midPointStop  offset="0" style="stop-color:#B47D56"/>
	<a:midPointStop  offset="0.6788" style="stop-color:#B47D56"/>
	<a:midPointStop  offset="1" style="stop-color:#302C3B"/>
</linearGradient>
<path fill="url(#SVGID_3_)" d="M42.39,32.092c4.837,2.527,2.853,20.049,11.065,22.489c3.605,1.069,7.012-0.265,9.313-3.477
	c2.069-2.89,1.361-3.428-0.854-1.411c-4.408,4.008-8.219,2.124-9.745-1.507c-2.715-6.451-1.575-20.6-7.271-27.481
	C39.936,14.707,41.239,31.49,42.39,32.092z"/>
<linearGradient id="SVGID_4_" gradientUnits="userSpaceOnUse" x1="-16.5552" y1="-1.0537" x2="2.0142" y2="-1.0537" gradientTransform="matrix(0.9848 0.1736 -0.1736 0.9848 53.118 44.8935)">
	<stop  offset="0" style="stop-color:#FFD1AD"/>
	<stop  offset="0.2672" style="stop-color:#FBCCA8"/>
	<stop  offset="0.5912" style="stop-color:#EEBF99"/>
	<stop  offset="0.9434" style="stop-color:#DAA981"/>
	<stop  offset="1" style="stop-color:#D6A57C"/>
	<a:midPointStop  offset="0" style="stop-color:#FFD1AD"/>
	<a:midPointStop  offset="0.6667" style="stop-color:#FFD1AD"/>
	<a:midPointStop  offset="1" style="stop-color:#D6A57C"/>
</linearGradient>
<path fill="url(#SVGID_4_)" d="M41.277,34.241c5.443,2.547,3.965,17.899,12.178,20.34c-8.794-4.436-4.637-18.708-11.065-22.489
	C35.682,28.146,40.102,33.692,41.277,34.241z"/>
<path fill="#B47D56" d="M16.751,35.601c7.409,2.044,12.226-2.643,16.496-2.097c25.217,3.219,11.728-24.115-5.802-18.821
	c-9.069,2.738-12.199,13.772-16.185,8.58C8.407,19.549,2.888,31.773,16.751,35.601z"/>
<linearGradient id="SVGID_5_" gradientUnits="userSpaceOnUse" x1="-47.2725" y1="-6.168" x2="-19.9795" y2="-6.168" gradientTransform="matrix(0.9848 0.1736 -0.1736 0.9848 53.118 44.8935)">
	<stop  offset="0" style="stop-color:#FFD1AD"/>
	<stop  offset="0.2672" style="stop-color:#FBCCA8"/>
	<stop  offset="0.5912" style="stop-color:#EEBF99"/>
	<stop  offset="0.9434" style="stop-color:#DAA981"/>
	<stop  offset="1" style="stop-color:#D6A57C"/>
	<a:midPointStop  offset="0" style="stop-color:#FFD1AD"/>
	<a:midPointStop  offset="0.6667" style="stop-color:#FFD1AD"/>
	<a:midPointStop  offset="1" style="stop-color:#D6A57C"/>
</linearGradient>
<path fill="url(#SVGID_5_)" d="M16.574,36.016c7.481,1.76,12.236-2.168,16.537-1.934c2.529,0.136,2.274-2.289,0.029-2.819
	c-7.287-1.722-22.59,6.718-24.937-3.876C7.611,30.395,9.225,34.288,16.574,36.016z"/>
<linearGradient id="SVGID_6_" gradientUnits="userSpaceOnUse" x1="-17.2856" y1="21.8159" x2="-17.2856" y2="-26.519" gradientTransform="matrix(0.9848 0.1736 -0.1736 0.9848 53.118 44.8935)">
	<stop  offset="0.0606" style="stop-color:#302C3B"/>
	<stop  offset="0.072" style="stop-color:#453C44"/>
	<stop  offset="0.0982" style="stop-color:#705B56"/>
	<stop  offset="0.1256" style="stop-color:#957665"/>
	<stop  offset="0.1541" style="stop-color:#B38C71"/>
	<stop  offset="0.1841" style="stop-color:#CB9D7B"/>
	<stop  offset="0.216" style="stop-color:#DBAA82"/>
	<stop  offset="0.2514" style="stop-color:#E5B186"/>
	<stop  offset="0.297" style="stop-color:#E8B387"/>
	<stop  offset="0.5344" style="stop-color:#D19B71"/>
	<stop  offset="0.8606" style="stop-color:#B47D56"/>
	<a:midPointStop  offset="0.0606" style="stop-color:#302C3B"/>
	<a:midPointStop  offset="0.2436" style="stop-color:#302C3B"/>
	<a:midPointStop  offset="0.297" style="stop-color:#E8B387"/>
	<a:midPointStop  offset="0.4688" style="stop-color:#E8B387"/>
	<a:midPointStop  offset="0.8606" style="stop-color:#B47D56"/>
</linearGradient>
<path fill="url(#SVGID_6_)" d="M47.116,27.558c0.417-4.319-3.263-9.729-8.833-12.208c4.449,10.127-11.733,12.534-5.189,25.691
	c1.775,3.569,4.688,8.282,4.56,10.444c-0.069,1.177-7.66,4.013-9.747,5.477c-1.538,1.078-3.235,3.451-3.741,4.446
	c-0.288,0.566,0.324,0.865,1.604,0.253c0.291-0.138,2.621-2.146,3.225-2.666c3.717-3.202,8.217-2.883,9.78-3.764
	c1.562-0.882,3.007-1.72,2.691-2.475C34.589,36.174,46.323,35.766,47.116,27.558z"/>
<path fill="#9E6C49" d="M8.067,22.408c-4.356-3.213-3.971-8.229-3.429-7.669c1.729,1.791,3.456,2.772,4.111,5.164
	C9.038,20.949,8.614,22.807,8.067,22.408z"/>
<linearGradient id="SVGID_7_" gradientUnits="userSpaceOnUse" x1="-54.9849" y1="-10.8506" x2="-44.0171" y2="-10.8506" gradientTransform="matrix(0.9848 0.1736 -0.1736 0.9848 53.118 44.8935)">
	<stop  offset="0" style="stop-color:#302C3B"/>
	<stop  offset="0.0378" style="stop-color:#493C41"/>
	<stop  offset="0.0959" style="stop-color:#684F48"/>
	<stop  offset="0.1618" style="stop-color:#84604E"/>
	<stop  offset="0.2363" style="stop-color:#9A6E53"/>
	<stop  offset="0.3232" style="stop-color:#AB7857"/>
	<stop  offset="0.4306" style="stop-color:#B6805A"/>
	<stop  offset="0.5814" style="stop-color:#BD845C"/>
	<stop  offset="1" style="stop-color:#BF855C"/>
	<a:midPointStop  offset="0" style="stop-color:#302C3B"/>
	<a:midPointStop  offset="0.13" style="stop-color:#302C3B"/>
	<a:midPointStop  offset="1" style="stop-color:#BF855C"/>
</linearGradient>
<path fill="url(#SVGID_7_)" d="M8.256,20.503c-2.044,0.332-3.247,1.963-3.726,2.572c-1.052,1.335-0.754,2.093-3.817,4.569
	c-1.338,1.085,0.121,2.646,0.52,2.605c1.65,0.951,2.995,0.645,4.238-0.404c1.284-1.085,6.453,1.269,6.331-5.15
	C11.744,21.678,11.524,19.97,8.256,20.503z"/>
<path id="Shape_31_" fill="#302C3B" d="M0.712,27.645c0.289-0.176-0.257,0.826,0.92,0.914c0.666,0.05-0.545,1.61-0.688,1.576
	C0.187,29.956-0.62,28.461,0.712,27.645z"/>
<path fill="#694830" d="M1.232,30.25c0,0,2.302,0.283,3.421-0.842C4.722,30.094,2.58,31.243,1.232,30.25z"/>
<path fill="#BF855C" d="M9.369,23.093c4.942-3.489,3.599-8.626,3.01-8.025c-1.877,1.91-3.884,2.997-4.3,5.485
	C7.896,21.639,8.747,23.53,9.369,23.093z"/>
<linearGradient id="SVGID_8_" gradientUnits="userSpaceOnUse" x1="225.8154" y1="13.7441" x2="232.2793" y2="13.7441" gradientTransform="matrix(0.8535 -0.4003 0.5206 0.6835 -191.7509 101.4499)">
	<stop  offset="0" style="stop-color:#785647"/>
	<stop  offset="0.0032" style="stop-color:#785647"/>
	<stop  offset="0.3452" style="stop-color:#8D6248"/>
	<stop  offset="0.6807" style="stop-color:#9A6A49"/>
	<stop  offset="1" style="stop-color:#9E6C49"/>
	<a:midPointStop  offset="0" style="stop-color:#785647"/>
	<a:midPointStop  offset="0.303" style="stop-color:#785647"/>
	<a:midPointStop  offset="1" style="stop-color:#9E6C49"/>
</linearGradient>
<path fill="url(#SVGID_8_)" d="M9.731,22.221c3.369-2.452,2.921-6.665,2.375-6.138C8.414,19.642,9.117,22.666,9.731,22.221z"/>
<path fill="#5E3D2A" d="M6.214,23.882c-0.806-0.14-1.243,0.487-1.267,1.032c-0.018,0.404,1.98,0.756,2.102,0.367
	C7.226,24.719,6.949,24.011,6.214,23.882z"/>
<path fill="#FFFFFF" d="M6.181,24.072c-0.58-0.103-1.128,0.249-1.222,0.781c-0.081,0.461,0.298,1.049,0.879,1.15
	c0.58,0.103,1.155-0.404,1.222-0.782C7.155,24.688,6.761,24.172,6.181,24.072z"/>
<path fill="#1A1626" d="M6.046,24.24c0.434,0.076,0.723,0.482,0.647,0.907c-0.073,0.425-0.486,0.709-0.918,0.632
	c-0.436-0.076-0.725-0.48-0.65-0.906C5.201,24.448,5.613,24.166,6.046,24.24z"/>
<path fill="#FFFFFF" d="M5.915,24.615c-0.049,0.279-0.476,0.203-0.428-0.075C5.538,24.26,5.966,24.335,5.915,24.615z"/>
<path fill="#302C3B" d="M16.224,44.208c0.088-0.346-0.335,0.268-1.002,0.688C15.071,44.99,15.838,45.739,16.224,44.208z"/>
<path fill="#302C3B" d="M15.745,44.387c0.087-0.347-0.335,0.266-1.001,0.686C14.592,45.168,15.359,45.917,15.745,44.387z"/>
<path fill="#302C3B" d="M15.405,44.522c0.087-0.346-0.335,0.267-1.002,0.686C14.252,45.304,15.019,46.053,15.405,44.522z"/>
<linearGradient id="SVGID_9_" gradientUnits="userSpaceOnUse" x1="-37.1919" y1="7.4624" x2="-37.1919" y2="-11.063" gradientTransform="matrix(0.9848 0.1736 -0.1736 0.9848 53.118 44.8935)">
	<stop  offset="0.0364" style="stop-color:#302C3B"/>
	<stop  offset="0.0754" style="stop-color:#594A4C"/>
	<stop  offset="0.1237" style="stop-color:#846A5E"/>
	<stop  offset="0.1727" style="stop-color:#A8846D"/>
	<stop  offset="0.2217" style="stop-color:#C49978"/>
	<stop  offset="0.2708" style="stop-color:#D8A780"/>
	<stop  offset="0.32" style="stop-color:#E4B085"/>
	<stop  offset="0.3697" style="stop-color:#E8B387"/>
	<stop  offset="0.5765" style="stop-color:#D19B71"/>
	<stop  offset="0.8606" style="stop-color:#B47D56"/>
	<a:midPointStop  offset="0.0364" style="stop-color:#302C3B"/>
	<a:midPointStop  offset="0.2909" style="stop-color:#302C3B"/>
	<a:midPointStop  offset="0.3697" style="stop-color:#E8B387"/>
	<a:midPointStop  offset="0.4688" style="stop-color:#E8B387"/>
	<a:midPointStop  offset="0.8606" style="stop-color:#B47D56"/>
</linearGradient>
<path fill="url(#SVGID_9_)" d="M18.443,28.887c-0.284-1.873-6.863-3.434-5.096,0.707c1.631,3.813,3.521,4.831,3.404,6.007
	c-0.086,0.867-5.419,6.952-5.126,8.128c0.309,1.243,2.122,1.8,2.412,1.852c0.382,0.067,1.709-0.144,2.064-0.487
	c0.539-0.522-1.977,0.053-2.234-0.851c-0.121-0.421,0.872,0.294,1.197-0.19c0.179-0.266-0.802-0.772-1.272-0.917
	c-0.5-0.153,5.887-4.923,7.934-6.603C23.772,34.854,18.917,31.967,18.443,28.887z"/>
<path fill="#565261" d="M16.583,44.14c0.087-0.347-0.335,0.268-1.001,0.686C15.43,44.922,16.197,45.669,16.583,44.14z"/>
<path fill="#565261" d="M15.252,44.634c0.016,0.267-0.122-0.025-0.61-0.432C14.53,44.112,15.18,43.454,15.252,44.634z"/>
</svg>
