<?xml version="1.0" encoding="utf-8"?>
<!-- Generator: Adobe Illustrator 15.0.0, SVG Export Plug-In . SVG Version: 6.00 Build 0)  -->
<!DOCTYPE svg PUBLIC "-//W3C//DTD SVG 1.1//EN" "http://www.w3.org/Graphics/SVG/1.1/DTD/svg11.dtd" [
	<!ENTITY ns_flows "http://ns.adobe.com/Flows/1.0/">
	<!ENTITY ns_extend "http://ns.adobe.com/Extensibility/1.0/">
	<!ENTITY ns_ai "http://ns.adobe.com/AdobeIllustrator/10.0/">
	<!ENTITY ns_graphs "http://ns.adobe.com/Graphs/1.0/">
]>
<svg version="1.1" id="Layer_1" xmlns:x="&ns_extend;" xmlns:i="&ns_ai;" xmlns:graph="&ns_graphs;"
	 xmlns="http://www.w3.org/2000/svg" xmlns:xlink="http://www.w3.org/1999/xlink" xmlns:a="http://ns.adobe.com/AdobeSVGViewerExtensions/3.0/"
	 x="0px" y="0px" width="64px" height="64px" viewBox="0 0 64 64" enable-background="new 0 0 64 64" xml:space="preserve">
<path fill="#E3C6A3" d="M56.709,28.334c0.027,0.227,0.045,0.447,0.044,0.656c0.392-1.082,0.366-3.111-0.433-4.439
	c0.262,0.309,0.487,0.615,0.639,0.93c-0.268-1.689-1.047-2.676-2.093-3.246c0.456,0.174,0.86,0.387,1.144,0.654
	c-0.674-1.756-3.24-2.295-5.299-1.719c-1.828,0.508-2.938,1.611-3.538,2.857l3.562,1.58c1.102-0.852,3.112-0.318,2.084,2.139
	c-1.443,3.445,2.469,5.291,2.314,4.617C54.848,31.107,56.357,30.422,56.709,28.334z"/>
<path fill="#7A5C4F" d="M18.338,62.029c0.453,0.24,2.338-0.545,1.078-1.766C18.664,60.504,18.262,61.484,18.338,62.029z"/>
<path fill="#EBD4B9" d="M25.264,37.215c-0.756-12.416-10.072-12.871-8.67-0.932c0.475,4.045,3.516,9.719,3.622,10.893
	c0.103,1.15,1.482,2.094,2.196,7.084c0.588,4.107-2.727,4.4-3.249,6.363l3.249,0.861c-0.301-1.635,1.41-2.578,1.412-2.83
	c0.036-4.871,1.871-2.268,0.902-5.514c-0.635-2.127-0.412-5.215-0.596-6.018C23.792,45.637,25.451,40.322,25.264,37.215z"/>
<path fill="#8A6859" d="M18.701,62.344h3.404c0,0,0.307-0.318,0.307-0.859c0,0-2.666-1.477-3.249-0.861
	C18.405,61.424,18.701,62.344,18.701,62.344z"/>
<path fill="#7A5C4F" d="M42.893,62.029c0.453,0.24,2.338-0.545,1.078-1.766C43.219,60.504,42.816,61.484,42.893,62.029z"/>
<path fill="#EBD4B9" d="M49.496,36.75C48.74,24.334,37.17,24.33,39.38,36.143c1.059,5.664,6.554,9.678,6.659,10.85
	c0.104,1.154,0.215,2.277,0.928,7.268c0.586,4.107-2.728,4.4-3.249,6.363l3.249,0.861c-0.301-1.635,1.408-2.578,1.41-2.83
	c0.037-4.871,1.872-2.268,0.904-5.514c-0.635-2.127,0.855-5.396,0.674-6.199C49.616,45.457,49.684,39.857,49.496,36.75z"/>
<path fill="#8A6859" d="M43.255,62.344h3.405c0,0,0.307-0.318,0.307-0.859c0,0-2.667-1.477-3.249-0.861
	C42.959,61.424,43.255,62.344,43.255,62.344z"/>
<path fill="#F0D0AC" d="M16.51,9.258c-4.602-3.613-3.945-8.457-3.383-7.85c1.805,1.936,3.643,3.086,4.245,5.49
	C17.635,7.949,17.086,9.711,16.51,9.258z"/>
<linearGradient id="SVGID_1_" gradientUnits="userSpaceOnUse" x1="8.4033" y1="10.2827" x2="17.0612" y2="10.2827">
	<stop  offset="0" style="stop-color:#C9A985"/>
	<stop  offset="0.0529" style="stop-color:#D1B18D"/>
	<stop  offset="0.2303" style="stop-color:#E5C6A2"/>
	<stop  offset="0.4273" style="stop-color:#F4D5B1"/>
	<stop  offset="0.6574" style="stop-color:#FCDEBA"/>
	<stop  offset="1" style="stop-color:#FFE1BD"/>
	<a:midPointStop  offset="0" style="stop-color:#C9A985"/>
	<a:midPointStop  offset="0.2182" style="stop-color:#C9A985"/>
	<a:midPointStop  offset="1" style="stop-color:#FFE1BD"/>
</linearGradient>
<path fill="url(#SVGID_1_)" d="M15.28,6.043c4.643,0.229,4.256,10.008-2.198,8.273c-4.788-1.285-5.245,0.352-5.451-1.645
	c-1.222-0.141-0.022-0.662-0.53-1.563C6.054,9.547,13.464,6.932,15.28,6.043z"/>
<path fill-rule="evenodd" clip-rule="evenodd" fill="#302C3B" d="M8.591,10.928c0,0-1.192,0.441-1.315,0.018
	C7.105,10.355,8.616,10.635,8.591,10.928z"/>
<path fill="#302C3B" d="M7.688,13.035c-0.05-0.209-0.057-0.363-0.057-0.363s1.278,0.201,2.78,0.014
	C9.346,13.188,7.688,13.035,7.688,13.035z"/>
<radialGradient id="SVGID_2_" cx="33.3486" cy="45.5488" r="39.5121" gradientTransform="matrix(1.0006 -0.1574 0.1044 0.6464 -2.3497 21.355)" gradientUnits="userSpaceOnUse">
	<stop  offset="0" style="stop-color:#E3C6A3"/>
	<stop  offset="0.015" style="stop-color:#E4C8A6"/>
	<stop  offset="0.1352" style="stop-color:#ECD4B9"/>
	<stop  offset="0.2757" style="stop-color:#F1DDC6"/>
	<stop  offset="0.4555" style="stop-color:#F4E2CE"/>
	<stop  offset="0.8061" style="stop-color:#F5E4D0"/>
	<a:midPointStop  offset="0" style="stop-color:#E3C6A3"/>
	<a:midPointStop  offset="0.1758" style="stop-color:#E3C6A3"/>
	<a:midPointStop  offset="0.8061" style="stop-color:#F5E4D0"/>
</radialGradient>
<path fill="url(#SVGID_2_)" d="M50.217,25.158c-8.691-6.141-20.004,2.656-23.802-0.479c-3.648-3.012,0.094-19.727-7.767-20.209
	c-2.471-0.152-4.299,1.188-5.034,2.297c3.315-1.361,7.187,7.289,0.253,7.709c2.721,3.736-2.213,10.18-1.219,18.955
	c0.064,0.561,0.156,1.08,0.272,1.568c0.322,2.063,1.044,3.906,1.579,4.723c0.302,0.469,0.439,0.496,0.561,0.018
	c0.026-0.105,0.07-0.221,0.107-0.332c0.324,1.008,0.699,1.836,1.01,2.311c0.302,0.469,0.439,0.496,0.561,0.018
	c0.068-0.264,0.184-0.557,0.324-0.859c0.258,0.682,0.527,1.242,0.762,1.598c0.302,0.469,0.439,0.498,0.561,0.02
	c0.085-0.328,0.225-0.691,0.422-1.072c1.9,0.668,3.909,0.906,5.539,1.209c1.158,2.012,3.174,2.729,4.268,2.959
	c0.541,0.119,0.658,0.039,0.413-0.385c-0.199-0.348-0.376-0.793-0.51-1.311c1.097,1.008,2.397,1.445,3.2,1.615
	c0.54,0.117,0.656,0.039,0.411-0.387c-0.146-0.256-0.277-0.57-0.394-0.92c1.307,0.658,2.668,0.691,3.482,0.617
	c0.541-0.041,0.633-0.158,0.293-0.488c-0.293-0.291-0.584-0.689-0.852-1.176c1.26,0.705,2.562,0.66,3.314,0.531
	c0.471-0.076,0.545-0.191,0.227-0.51c-0.206-0.205-0.415-0.471-0.619-0.783c1.152,0.527,2.297,0.484,2.984,0.367
	c0.469-0.076,0.546-0.193,0.226-0.508c-0.19-0.193-0.385-0.441-0.576-0.727c0.964,0.305,1.876,0.264,2.458,0.164
	c0.469-0.076,0.545-0.193,0.225-0.51c-0.204-0.205-0.414-0.473-0.619-0.787c1.937-0.334,4.131-0.408,6.835,0.057
	C58.217,42.023,54.238,25.23,50.217,25.158z"/>
<path fill="#FFE1BD" d="M16.979,8.377c-4.562-3.762-3.157-8.959-2.621-8.324c1.716,2.029,3.577,3.221,3.903,5.777
	C18.404,6.949,17.553,8.85,16.979,8.377z"/>
<path fill="#DEB48C" d="M16.662,7.471c-3.108-2.641-2.574-6.926-2.071-6.367C17.971,4.887,17.23,7.951,16.662,7.471z"/>
<path fill="#1A1626" d="M14.129,7.885c-0.77-0.045-1.108,0.588-1.07,1.1c0.03,0.377,1.938,0.49,2.01,0.119
	C15.166,8.557,14.83,7.924,14.129,7.885z"/>
<path fill="#FFFFFF" d="M14.119,8.066c-0.553-0.031-1.026,0.35-1.059,0.859c-0.023,0.439,0.399,0.947,0.953,0.979
	c0.551,0.033,1.036-0.502,1.059-0.861C15.101,8.535,14.671,8.1,14.119,8.066z"/>
<path fill="#1A1626" d="M14.014,8.24c0.412,0.023,0.729,0.371,0.707,0.771c-0.023,0.402-0.379,0.711-0.792,0.689
	c-0.411-0.023-0.728-0.373-0.705-0.775C13.246,8.521,13.601,8.219,14.014,8.24z"/>
<path fill="#FFFFFF" d="M13.932,8.602c-0.017,0.264-0.424,0.242-0.407-0.023C13.54,8.313,13.947,8.336,13.932,8.602z"/>
<path fill="#A18164" d="M14.878,7.422c0.469-0.035-1.198-0.631-1.566-0.104C13.097,7.627,13.859,7.498,14.878,7.422z"/>
<path fill="#7A5C4F" d="M20.094,63.686c0.453,0.24,2.338-0.547,1.079-1.766C20.42,62.158,20.018,63.139,20.094,63.686z"/>
<path fill="#F5E4D0" d="M28.559,38.77c-0.755-12.416-12.104-12.5-10.702-0.561c0.476,4.043,4.01,9.449,4.114,10.621
	c0.104,1.152,1.484,2.096,2.196,7.086c0.588,4.107-2.726,4.4-3.247,6.361l3.247,0.861c-0.299-1.633,1.411-2.576,1.412-2.828
	c0.037-4.871,1.872-2.268,0.903-5.516c-0.635-2.125-0.083-5.348-0.267-6.15C25.878,47.16,28.748,41.877,28.559,38.77z"/>
<path fill="#8A6859" d="M20.455,64h3.406c0,0,0.306-0.318,0.306-0.861c0,0-2.665-1.475-3.247-0.861C20.16,63.08,20.455,64,20.455,64
	z"/>
<path fill="#7A5C4F" d="M46.855,63.686c0.454,0.24,2.339-0.547,1.078-1.766C47.181,62.158,46.779,63.139,46.855,63.686z"/>
<path fill="#F5E4D0" d="M54.078,37.969c-2.174-12.25-14.807-11.814-12.598,0c1.061,5.664,8.018,9.754,8.123,10.926
	c0.104,1.154,0.612,2.031,1.326,7.021c0.587,4.107-2.727,4.4-3.248,6.361l3.248,0.861c-0.299-1.633,1.409-2.576,1.411-2.828
	c0.036-4.871,1.87-2.268,0.903-5.516c-0.635-2.125,0.857-5.395,0.673-6.197C53.578,47.113,54.645,41.156,54.078,37.969z"/>
<path fill="#8A6859" d="M47.217,64h3.406c0,0,0.307-0.318,0.307-0.861c0,0-2.668-1.475-3.248-0.861
	C46.923,63.08,47.217,64,47.217,64z"/>
</svg>
