<?xml version="1.0" encoding="utf-8"?>
<!-- Generator: Adobe Illustrator 15.0.0, SVG Export Plug-In . SVG Version: 6.00 Build 0)  -->
<!DOCTYPE svg PUBLIC "-//W3C//DTD SVG 1.1//EN" "http://www.w3.org/Graphics/SVG/1.1/DTD/svg11.dtd" [
	<!ENTITY ns_flows "http://ns.adobe.com/Flows/1.0/">
	<!ENTITY ns_extend "http://ns.adobe.com/Extensibility/1.0/">
	<!ENTITY ns_ai "http://ns.adobe.com/AdobeIllustrator/10.0/">
	<!ENTITY ns_graphs "http://ns.adobe.com/Graphs/1.0/">
]>
<svg version="1.1" id="Layer_1" xmlns:x="&ns_extend;" xmlns:i="&ns_ai;" xmlns:graph="&ns_graphs;"
	 xmlns="http://www.w3.org/2000/svg" xmlns:xlink="http://www.w3.org/1999/xlink" xmlns:a="http://ns.adobe.com/AdobeSVGViewerExtensions/3.0/"
	 x="0px" y="0px" width="64px" height="64px" viewBox="0 0 64 64" enable-background="new 0 0 64 64" xml:space="preserve">
<path fill="#916F4C" d="M43.05,45.955c-2.528-20.074-1.606-31.201-0.314-32.609c2.223-2.428-0.365,12.417,2.764,30.83
	C45.782,45.844,43.238,47.445,43.05,45.955z"/>
<linearGradient id="SVGID_1_" gradientUnits="userSpaceOnUse" x1="28.5532" y1="26.7095" x2="38.4649" y2="30.8111">
	<stop  offset="0" style="stop-color:#47342A"/>
	<stop  offset="0.1735" style="stop-color:#5B4433"/>
	<stop  offset="0.5301" style="stop-color:#906E4A"/>
	<stop  offset="1" style="stop-color:#DEAC6D"/>
	<a:midPointStop  offset="0" style="stop-color:#47342A"/>
	<a:midPointStop  offset="0.5455" style="stop-color:#47342A"/>
	<a:midPointStop  offset="1" style="stop-color:#DEAC6D"/>
</linearGradient>
<path fill="url(#SVGID_1_)" d="M29.159,46.791c9.529-13.898,6.995-25.637,12.899-30.198c4.632-1.716-0.302-8.312-2.835-2.516
	c-2.977,6.808-14.711,22.616-14.072,30.26C25.295,46.088,27.563,47.404,29.159,46.791z"/>
<linearGradient id="SVGID_2_" gradientUnits="userSpaceOnUse" x1="36.2715" y1="52.2734" x2="36.2715" y2="40.5801">
	<stop  offset="0" style="stop-color:#F2C68C"/>
	<stop  offset="0.1193" style="stop-color:#ECC188"/>
	<stop  offset="0.2809" style="stop-color:#DBB27F"/>
	<stop  offset="0.4668" style="stop-color:#BE9A6E"/>
	<stop  offset="0.6707" style="stop-color:#977858"/>
	<stop  offset="0.8869" style="stop-color:#644D3B"/>
	<stop  offset="1" style="stop-color:#47342A"/>
	<a:midPointStop  offset="0" style="stop-color:#F2C68C"/>
	<a:midPointStop  offset="0.6424" style="stop-color:#F2C68C"/>
	<a:midPointStop  offset="1" style="stop-color:#47342A"/>
</linearGradient>
<path fill="url(#SVGID_2_)" d="M16.813,49.996c0,0,3.604,3.447,11.788,1.859C40.744,49.5,50.36,49.711,54.19,46.943
	c4.258-3.076,2.004-9.293-37.377-4.766V49.996z"/>
<linearGradient id="SVGID_3_" gradientUnits="userSpaceOnUse" x1="23.7954" y1="52.6982" x2="23.7954" y2="39.5316">
	<stop  offset="0" style="stop-color:#47342A;stop-opacity:0"/>
	<stop  offset="1" style="stop-color:#47342A;stop-opacity:0.6"/>
	<a:midPointStop  offset="0" style="stop-color:#47342A;stop-opacity:0"/>
	<a:midPointStop  offset="0.6061" style="stop-color:#47342A;stop-opacity:0"/>
	<a:midPointStop  offset="1" style="stop-color:#47342A;stop-opacity:0.6"/>
</linearGradient>
<path fill="url(#SVGID_3_)" d="M21.578,51.104c1.445,0,2.889,0.016,4.333,0.029c0.372-3.857,0.338-7.754-0.149-11.602h-4.333
	C21.915,43.369,21.95,47.254,21.578,51.104z"/>
<linearGradient id="SVGID_4_" gradientUnits="userSpaceOnUse" x1="29.4272" y1="51.5664" x2="29.4272" y2="39.5313">
	<stop  offset="0" style="stop-color:#47342A;stop-opacity:0"/>
	<stop  offset="1" style="stop-color:#47342A;stop-opacity:0.6"/>
	<a:midPointStop  offset="0" style="stop-color:#47342A;stop-opacity:0"/>
	<a:midPointStop  offset="0.6061" style="stop-color:#47342A;stop-opacity:0"/>
	<a:midPointStop  offset="1" style="stop-color:#47342A;stop-opacity:0.6"/>
</linearGradient>
<path fill="url(#SVGID_4_)" d="M27.167,51.566c1.455-0.475,2.935-0.836,4.438-1.104c0.304-3.641,0.247-7.309-0.213-10.932H27.06
	C27.566,43.521,27.587,47.566,27.167,51.566z"/>
<linearGradient id="SVGID_5_" gradientUnits="userSpaceOnUse" x1="35.0586" y1="50.9297" x2="35.0586" y2="39.5313">
	<stop  offset="0" style="stop-color:#47342A;stop-opacity:0"/>
	<stop  offset="1" style="stop-color:#47342A;stop-opacity:0.6"/>
	<a:midPointStop  offset="0" style="stop-color:#47342A;stop-opacity:0"/>
	<a:midPointStop  offset="0.6061" style="stop-color:#47342A;stop-opacity:0"/>
	<a:midPointStop  offset="1" style="stop-color:#47342A;stop-opacity:0.6"/>
</linearGradient>
<path fill="url(#SVGID_5_)" d="M32.858,50.93c1.426-0.363,2.94-0.555,4.404-0.76c0.277-3.543,0.209-7.111-0.238-10.639H32.69
	C33.171,43.311,33.21,47.137,32.858,50.93z"/>
<linearGradient id="SVGID_6_" gradientUnits="userSpaceOnUse" x1="40.6924" y1="49.877" x2="40.6924" y2="39.5313">
	<stop  offset="0" style="stop-color:#47342A;stop-opacity:0"/>
	<stop  offset="1" style="stop-color:#47342A;stop-opacity:0.6"/>
	<a:midPointStop  offset="0" style="stop-color:#47342A;stop-opacity:0"/>
	<a:midPointStop  offset="0.6061" style="stop-color:#47342A;stop-opacity:0"/>
	<a:midPointStop  offset="1" style="stop-color:#47342A;stop-opacity:0.6"/>
</linearGradient>
<path fill="url(#SVGID_6_)" d="M38.589,49.877c1.447-0.34,2.911-0.604,4.387-0.762c0.183-3.195,0.082-6.408-0.322-9.584h-4.332
	C38.757,42.961,38.839,46.43,38.589,49.877z"/>
<linearGradient id="SVGID_7_" gradientUnits="userSpaceOnUse" x1="46.3164" y1="48.9258" x2="46.3164" y2="39.5313">
	<stop  offset="0" style="stop-color:#47342A;stop-opacity:0"/>
	<stop  offset="1" style="stop-color:#47342A;stop-opacity:0.6"/>
	<a:midPointStop  offset="0" style="stop-color:#47342A;stop-opacity:0"/>
	<a:midPointStop  offset="0.6061" style="stop-color:#47342A;stop-opacity:0"/>
	<a:midPointStop  offset="1" style="stop-color:#47342A;stop-opacity:0.6"/>
</linearGradient>
<path fill="url(#SVGID_7_)" d="M44.279,48.926c0,0,2.685-0.219,4.357-0.779c0.112-2.875,0.012-5.76-0.352-8.615h-4.333
	C44.347,42.645,44.448,45.791,44.279,48.926z"/>
<linearGradient id="SVGID_8_" gradientUnits="userSpaceOnUse" x1="51.9551" y1="48.3125" x2="51.9551" y2="39.5313">
	<stop  offset="0" style="stop-color:#47342A;stop-opacity:0"/>
	<stop  offset="1" style="stop-color:#47342A;stop-opacity:0.6"/>
	<a:midPointStop  offset="0" style="stop-color:#47342A;stop-opacity:0"/>
	<a:midPointStop  offset="0.6061" style="stop-color:#47342A;stop-opacity:0"/>
	<a:midPointStop  offset="1" style="stop-color:#47342A;stop-opacity:0.6"/>
</linearGradient>
<path fill="url(#SVGID_8_)" d="M49.931,48.313c0,0,2.816-0.666,4.395-1.98c0.01-2.271-0.123-4.545-0.41-6.801h-4.332
	C49.952,42.441,50.054,45.383,49.931,48.313z"/>
<path opacity="0.3" fill="#1A1626" d="M52.964,46.363c0.142,0.596-1.27,0.961-1.406,0.365
	C51.409,46.133,52.825,45.768,52.964,46.363z"/>
<path opacity="0.3" fill="#1A1626" d="M47.4,47.75c0.141,0.596-1.271,0.961-1.406,0.365C45.845,47.52,47.26,47.154,47.4,47.75z"/>
<path opacity="0.3" fill="#1A1626" d="M41.624,48.463c0.142,0.598-1.271,0.961-1.406,0.367
	C40.069,48.232,41.485,47.867,41.624,48.463z"/>
<path opacity="0.3" fill="#1A1626" d="M35.964,49.229c0.142,0.596-1.271,0.961-1.406,0.365
	C34.409,48.998,35.824,48.633,35.964,49.229z"/>
<path fill="#DEAC6D" d="M9.619,39.176C8.214,36.133,3.355,19.661,2,11.74C3.134,22.476,8.166,35.98,9.277,39.469
	C9.313,39.578,9.667,39.279,9.619,39.176z"/>
<path fill="#A37D56" d="M6.586,54.369c-2.146,0.498-2.953,1.934-2.675,2.281c0.209,0.264,1.41-1.447,3.415-1.314
	C7.601,55.352,7.015,54.268,6.586,54.369z"/>
<path fill="#916F4C" d="M7.444,55.555c2.149-4.16,2.311-7.049,1.578-7.547c-1.259-0.863,0.004,2.426-2.453,6.125
	C6.345,54.469,7.287,55.863,7.444,55.555z"/>
<linearGradient id="SVGID_9_" gradientUnits="userSpaceOnUse" x1="40.5371" y1="43.582" x2="40.9427" y2="31.1236">
	<stop  offset="0" style="stop-color:#47342A"/>
	<stop  offset="0.1735" style="stop-color:#5B4433"/>
	<stop  offset="0.5301" style="stop-color:#906E4A"/>
	<stop  offset="1" style="stop-color:#DEAC6D"/>
	<a:midPointStop  offset="0" style="stop-color:#47342A"/>
	<a:midPointStop  offset="0.5455" style="stop-color:#47342A"/>
	<a:midPointStop  offset="1" style="stop-color:#DEAC6D"/>
</linearGradient>
<path fill="url(#SVGID_9_)" d="M20.418,42.029c0,0,30.559,2.789,37.78,1.496c4.632-0.83,4.286-5.068,2.847-5.156
	c-9.681-0.59-29.631-4.557-41.681-0.1L20.418,42.029z"/>
<linearGradient id="SVGID_10_" gradientUnits="userSpaceOnUse" x1="18.5923" y1="50.8408" x2="18.5923" y2="36.21">
	<stop  offset="0" style="stop-color:#47342A"/>
	<stop  offset="0.1735" style="stop-color:#5B4433"/>
	<stop  offset="0.5301" style="stop-color:#906E4A"/>
	<stop  offset="1" style="stop-color:#DEAC6D"/>
	<a:midPointStop  offset="0" style="stop-color:#47342A"/>
	<a:midPointStop  offset="0.5455" style="stop-color:#47342A"/>
	<a:midPointStop  offset="1" style="stop-color:#DEAC6D"/>
</linearGradient>
<path fill="url(#SVGID_10_)" d="M10.948,38.127c2.724-1.225,6.236-2.193,14.418-1.846c0.371,0.018,0.757,0.063,0.808,0.404
	c0.178,1.248,0.256,4.639-3.887,5.561c-0.601,0.135-1.822,0.006-1.964,1.506c-0.144,1.498,0.734,4.074-0.961,6.242
	c-1.489,1.904-5.099,0-5.099,0S14.821,44.623,10.948,38.127z"/>
<linearGradient id="SVGID_11_" gradientUnits="userSpaceOnUse" x1="11.3628" y1="52.3525" x2="11.3628" y2="37.6514">
	<stop  offset="0" style="stop-color:#47342A"/>
	<stop  offset="0.0788" style="stop-color:#574031"/>
	<stop  offset="0.3939" style="stop-color:#906E4B"/>
	<stop  offset="0.6635" style="stop-color:#BB905D"/>
	<stop  offset="0.8742" style="stop-color:#D4A469"/>
	<stop  offset="1" style="stop-color:#DEAC6D"/>
	<a:midPointStop  offset="0" style="stop-color:#47342A"/>
	<a:midPointStop  offset="0.4061" style="stop-color:#47342A"/>
	<a:midPointStop  offset="1" style="stop-color:#DEAC6D"/>
</linearGradient>
<path fill="url(#SVGID_11_)" d="M15.625,40.523c-0.315-1.24-1.353-2.273-2.684-2.633c-1.982-0.533-4.813-0.48-6.126,3.436
	C4.691,47.68,10.718,51.971,12.1,52.322c1.377,0.355,3.819-2.488,3.819-2.488S17.082,46.246,15.625,40.523z"/>
<path fill="#DEAC6D" d="M9.946,39.373C8.431,35.629,3.642,15.574,2.56,6c0.588,12.924,5.819,29.443,6.938,33.697
	C9.533,39.83,9.999,39.502,9.946,39.373z"/>
<path fill="#1A1626" d="M11.215,40.205c-1.672,0.445-1.969,2.068-1.542,3.158c0.316,0.816,4.462-0.283,4.361-1.152
	C13.887,40.941,12.743,39.801,11.215,40.205z"/>
<path fill="#FFFFFF" d="M11.314,40.607c-1.204,0.32-1.954,1.5-1.674,2.627c0.245,0.984,1.483,1.799,2.688,1.479
	c1.206-0.318,1.872-1.828,1.674-2.633C13.725,40.945,12.521,40.287,11.314,40.607z"/>
<path fill="#1A1626" d="M11.203,41.061c0.899-0.24,1.811,0.303,2.034,1.203c0.221,0.902-0.327,1.828-1.226,2.064
	c-0.9,0.244-1.813-0.295-2.032-1.201C9.755,42.227,10.301,41.297,11.203,41.061z"/>
<path fill="#FFFFFF" d="M11.277,41.912c0.146,0.596-0.744,0.828-0.886,0.236C10.239,41.551,11.132,41.318,11.277,41.912z"/>
<path fill="#A37D56" d="M10.823,59.438c-2.083,0.711-2.749,2.219-2.44,2.539c0.232,0.242,1.265-1.582,3.271-1.65
	C11.926,60.314,11.243,59.291,10.823,59.438z"/>
<path fill="#916F4C" d="M11.791,60.533c1.743-4.359,1.629-7.256,0.853-7.68c-1.332-0.732,0.234,2.418-1.857,6.35
	C10.597,59.561,11.663,60.857,11.791,60.533z"/>
<path fill="#826344" d="M12.493,52.107c2.09-0.971,5.125-4.902,7.143-3.119c0.389,0.344-0.223,1.129-0.501,1.355
	c-2.087,1.703-4.07,1.113-6.125,3C12.391,53.912,11.275,52.674,12.493,52.107z"/>
<path fill="#BD9A77" d="M46.025,46.191c1.684-0.543,2.567-0.305-0.059-1.543C45.036,44.213,45.066,46.5,46.025,46.191z"/>
<path fill="#BD9A77" d="M46.013,44.311c1.684-0.545,2.568-0.305-0.059-1.543C45.024,42.332,45.054,44.619,46.013,44.311z"/>
<path fill="#BD9A77" d="M46.114,40.809c1.685-0.545,2.568-0.305-0.059-1.543C45.126,38.83,45.155,41.117,46.114,40.809z"/>
<path fill="#BD9A77" d="M46.114,39.082c1.685-0.543,2.568-0.303-0.059-1.541C45.126,37.104,45.155,39.391,46.114,39.082z"/>
<path fill="#BD9A77" d="M46.505,35.965c1.685-0.543,2.569-0.305-0.059-1.543C45.518,33.986,45.548,36.273,46.505,35.965z"/>
<path fill="#BD9A77" d="M46.505,34.338c1.685-0.543,2.569-0.303-0.059-1.541C45.518,32.36,45.548,34.646,46.505,34.338z"/>
<path fill="#BD9A77" d="M46.878,30.699c1.685-0.544,2.569-0.304-0.059-1.542C45.89,28.72,45.921,31.008,46.878,30.699z"/>
<path fill="#BD9A77" d="M47.183,26.449c1.685-0.544,2.568-0.304-0.059-1.542C46.194,24.47,46.224,26.758,47.183,26.449z"/>
<path fill="#A37D56" d="M46.294,52.846c4.35,0.234,6.666,2.535,6.331,3.24c-0.254,0.531-4.157-2.457-7.901-1.613
	C44.216,54.588,45.417,52.799,46.294,52.846z"/>
<path fill="#916F4C" d="M43.894,53.883c-0.226-23.191,1.957-35.79,3.402-37.258c2.486-2.528-1.778,14.133-0.766,35.495
	C46.622,54.053,43.91,55.604,43.894,53.883z"/>
<linearGradient id="SVGID_12_" gradientUnits="userSpaceOnUse" x1="34.0234" y1="30.5947" x2="42.4539" y2="34.7276">
	<stop  offset="0" style="stop-color:#47342A"/>
	<stop  offset="0.1735" style="stop-color:#5B4433"/>
	<stop  offset="0.5301" style="stop-color:#906E4A"/>
	<stop  offset="1" style="stop-color:#DEAC6D"/>
	<a:midPointStop  offset="0" style="stop-color:#47342A"/>
	<a:midPointStop  offset="0.5455" style="stop-color:#47342A"/>
	<a:midPointStop  offset="1" style="stop-color:#DEAC6D"/>
</linearGradient>
<path fill="url(#SVGID_12_)" d="M32.96,50.09c9.529-13.898,7.624-25.617,13.527-30.178c4.634-1.716-0.301-8.312-2.834-2.517
	c-2.979,6.809-15.667,23.787-15.028,31.431C28.769,50.574,31.364,50.705,32.96,50.09z"/>
<path fill="#A37D56" d="M34.759,60.031c3.485-0.623,5.616,0.975,5.438,1.664c-0.136,0.52-3.611-1.385-6.48,0.08
	C33.326,61.973,34.056,60.158,34.759,60.031z"/>
<path fill="#916F4C" d="M33.271,61.855c-2.801-7.01-2.619-11.662-1.371-12.346c2.142-1.176-0.378,3.887,2.988,10.211
	C35.191,60.295,33.478,62.375,33.271,61.855z"/>
<path fill="#826344" d="M31.991,49.15c-3.182,0.311-9.585-2.305-10.736,1.311c-0.221,0.699,1.065,1.215,1.56,1.293
	c3.695,0.58,5.648-1.557,9.435-0.73C33.394,51.273,33.85,48.967,31.991,49.15z"/>
</svg>
