<?xml version="1.0" encoding="utf-8"?>
<!-- Generator: Adobe Illustrator 15.0.0, SVG Export Plug-In . SVG Version: 6.00 Build 0)  -->
<!DOCTYPE svg PUBLIC "-//W3C//DTD SVG 1.1//EN" "http://www.w3.org/Graphics/SVG/1.1/DTD/svg11.dtd" [
	<!ENTITY ns_flows "http://ns.adobe.com/Flows/1.0/">
	<!ENTITY ns_extend "http://ns.adobe.com/Extensibility/1.0/">
	<!ENTITY ns_ai "http://ns.adobe.com/AdobeIllustrator/10.0/">
	<!ENTITY ns_graphs "http://ns.adobe.com/Graphs/1.0/">
]>
<svg version="1.1" id="Layer_1" xmlns:x="&ns_extend;" xmlns:i="&ns_ai;" xmlns:graph="&ns_graphs;"
	 xmlns="http://www.w3.org/2000/svg" xmlns:xlink="http://www.w3.org/1999/xlink" xmlns:a="http://ns.adobe.com/AdobeSVGViewerExtensions/3.0/"
	 x="0px" y="0px" width="64px" height="64px" viewBox="0 0 64 64" enable-background="new 0 0 64 64" xml:space="preserve">
<path fill="#594640" d="M5.38,40.295C5.421,45.22,19.675,23.604,18.118,7.72C10.968-3.659,5.263,26.765,5.38,40.295z"/>
<path fill="#594640" d="M42.705,3.126c-2.521,2.136-10.186,18.805-10.883,28.183c-0.773,10.411,8.071,10.771,9.09,2.839
	c0.791-12.716,6.848-25.84,7.367-28.789C48.576,3.666,46.145,0.217,42.705,3.126z"/>
<linearGradient id="SVGID_1_" gradientUnits="userSpaceOnUse" x1="-200.0703" y1="32.5283" x2="-199.3299" y2="21.2383" gradientTransform="matrix(-1 0 0 1 -167.9014 -15.7598)">
	<stop  offset="0" style="stop-color:#756144"/>
	<stop  offset="0.3276" style="stop-color:#957C5C"/>
	<stop  offset="0.7677" style="stop-color:#BB9C78"/>
	<stop  offset="1" style="stop-color:#C9A883"/>
	<a:midPointStop  offset="0" style="stop-color:#756144"/>
	<a:midPointStop  offset="0.4364" style="stop-color:#756144"/>
	<a:midPointStop  offset="1" style="stop-color:#C9A883"/>
</linearGradient>
<path fill="url(#SVGID_1_)" d="M64,5.879v6.815C40.271,8.962,8.363,19.959,0,22.492V12.053C24.996,2.933,55.686,4.468,64,5.879z"/>
<path fill="#F2E5D3" d="M13.936,14.259c0,0-1.109-8.72,1.352-8.043C17.419,6.796,13.936,14.259,13.936,14.259z"/>
<path fill="#F2E5D3" d="M15.796,14.866c0,0-1.109-8.719,1.352-8.043C19.28,7.403,15.796,14.866,15.796,14.866z"/>
<path fill="#F2E5D3" d="M11.921,14.025c0,0-1.123-8.132,1.334-7.459C15.391,7.153,11.921,14.025,11.921,14.025z"/>
<path fill="#F2E5D3" d="M49.205,10.984c0,0,0.348-8.439-2.281-7.62C45.291,3.869,49.205,10.984,49.205,10.984z"/>
<path fill="#F2E5D3" d="M48.18,11.824c0,0-0.439-9.219-3.068-8.4C43.48,3.932,48.18,11.824,48.18,11.824z"/>
<path fill="#F2E5D3" d="M46.332,11.429c0,0-0.361-8.452-2.992-7.633C41.709,4.303,46.332,11.429,46.332,11.429z"/>
<path fill="#786055" d="M46.229,58.002c-7.084,3.905-21.605,4.239-24.722,3.896c-1.057-0.116-1.23-0.271-0.551-0.869
	c0.988-0.885,2.25-2.657,3.008-4.586C24.91,54.03,48.045,57,46.229,58.002z"/>
<path fill="#786055" d="M18.083,59.094c-4.876,0.944-8.742-1.543-10.512-3.013c-0.813-0.663-0.83-0.921,0.092-1.007
	c1.346-0.14,3.036-0.643,4.844-1.749C14.764,51.943,20.166,58.689,18.083,59.094z"/>
<path fill="#786055" d="M25.176,58.967c-4.087,2.822-8.625,2.096-10.837,1.46c-1.01-0.28-1.13-0.51-0.319-0.959
	c1.176-0.668,2.521-1.808,3.734-3.546C19.265,53.75,26.922,57.761,25.176,58.967z"/>
<path fill="#786055" d="M24.315,36.675c9.33,3.519,15.796-1.889,16.412-2.421c10.916-9.434,26.648,15.275,12.633,20.353
	c-6.221,2.251-8.137,6.136-22.415,6.403c-17.356,0.323-22.152-3.507-24.601-9.304C3.876,45.852,4.916,29.354,24.315,36.675z"/>
<path fill="#8E7368" d="M60.738,36.427c-4.908-8.529-15.295-7.869-21.01-0.996c-0.721,0.868,10.254,19.943,11.363,19.749
	C59.885,53.65,65.646,44.956,60.738,36.427z"/>
<path fill="#786055" d="M61.635,44.307c-0.545-2.701-3.791-4.501-4.525-5.777s-0.664-4.996-2.727-6.819
	c-2.762-2.445-10.646-1.239-14.725,3.668c-0.729,0.873-2.133,6.955,1.121,12.611c3.254,5.651,9.207,7.472,10.324,7.278
	C57.379,54.174,62.363,47.928,61.635,44.307z"/>
<path fill="#FFE1BD" d="M54.965,39.772c0.961-13.307-21.156-7.477-12.639,7.321C50.84,61.89,66.93,45.592,54.965,39.772z"/>
<path fill="#5E564C" d="M57.127,50.418c-3.674,4.23-8.361,2.397-8.361,2.397s0.67-1.968,0.725-4.723
	c0.061-3.144,3.973-5.034,6.432-2.705C58.33,47.673,57.127,50.418,57.127,50.418z"/>
<path fill="#5E564C" d="M46.855,32.571c-5.49,1.077-6.252,6.063-6.252,6.063s2.035,0.405,4.441,1.732
	c2.742,1.521,6.332-0.936,5.549-4.233C49.828,32.898,46.855,32.571,46.855,32.571z"/>
<path id="Shape_9_" fill="#1A1626" d="M46.391,41.411c0.949-0.55,3.82,4.44,2.871,4.99c-0.939,0.544-2.488-0.212-3.211-1.468
	C45.328,43.68,45.449,41.955,46.391,41.411L46.391,41.411z"/>
<path fill="#8E7368" d="M43.357,46.494c-0.701-1.214-0.787-2.674-0.256-4.111c0.098-0.266,0.393-0.401,0.658-0.301
	c0.268,0.099,0.4,0.394,0.303,0.661c-0.426,1.145-0.359,2.295,0.182,3.236c0.545,0.943,1.504,1.574,2.703,1.778
	c0.281,0.048,0.469,0.313,0.422,0.594s-0.313,0.469-0.592,0.422C45.271,48.518,44.057,47.708,43.357,46.494z"/>
<path fill="#1A1626" d="M55.242,46.701c-0.895-1.553-2.559-1.405-3.504-0.676c-0.703,0.543,1.516,4.396,2.334,4.056
	C55.264,49.583,56.059,48.119,55.242,46.701z"/>
<path fill="#FFFFFF" d="M54.881,46.913c-0.648-1.124-2.004-1.549-3.027-0.955c-0.889,0.513-1.338,1.982-0.689,3.106
	c0.645,1.118,2.299,1.37,3.023,0.949C55.211,49.42,55.521,48.031,54.881,46.913z"/>
<path fill="#1A1626" d="M54.406,46.926c0.479,0.835,0.209,1.897-0.607,2.37c-0.816,0.474-1.869,0.178-2.352-0.658
	c-0.48-0.834-0.209-1.897,0.607-2.371C52.871,45.794,53.926,46.091,54.406,46.926z"/>
<path fill="#FFFFFF" d="M53.596,47.234c-0.537,0.311-1.012-0.518-0.477-0.828C53.658,46.095,54.135,46.923,53.596,47.234z"/>
<path fill="#1A1626" d="M49.113,36.072c0.893,1.547-0.066,2.909-1.162,3.365c-0.816,0.338-3.023-3.499-2.324-4.036
	C46.648,34.618,48.301,34.659,49.113,36.072z"/>
<path fill="#FFFFFF" d="M48.752,36.283c0.641,1.114,0.332,2.496-0.688,3.087c-0.881,0.511-2.367,0.169-3.01-0.947
	s-0.035-2.671,0.688-3.089C46.76,34.743,48.109,35.165,48.752,36.283z"/>
<path fill="#1A1626" d="M48.504,36.684c-0.477-0.832-1.525-1.125-2.338-0.653c-0.813,0.469-1.082,1.524-0.604,2.357
	c0.48,0.833,1.527,1.126,2.34,0.655C48.713,38.574,48.984,37.519,48.504,36.684z"/>
<path fill="#FFFFFF" d="M47.838,37.231c-0.535,0.309-0.061,1.131,0.473,0.82C48.846,37.742,48.373,36.921,47.838,37.231z"/>
<path fill="#8E7368" d="M52.301,34.075c-2.527-2.479-2.404-0.497-0.527,1.859C52.834,37.263,53.969,35.706,52.301,34.075z"/>
<path fill="#8E7368" d="M58.551,44.934c-0.574-2.261-2.484-2.057-1.869-0.47C57.779,47.273,59.426,48.371,58.551,44.934z"/>
<linearGradient id="SVGID_2_" gradientUnits="userSpaceOnUse" x1="13.2031" y1="87.4043" x2="20.0329" y2="40.7243" gradientTransform="matrix(1 0 0 1 -1.998 -32.6777)">
	<stop  offset="0" style="stop-color:#786055"/>
	<stop  offset="0.1731" style="stop-color:#7F665B"/>
	<stop  offset="0.5655" style="stop-color:#8A7065"/>
	<stop  offset="1" style="stop-color:#8E7368"/>
	<a:midPointStop  offset="0" style="stop-color:#786055"/>
	<a:midPointStop  offset="0.2727" style="stop-color:#786055"/>
	<a:midPointStop  offset="1" style="stop-color:#8E7368"/>
</linearGradient>
<path fill="url(#SVGID_2_)" d="M19.53,7.918c4.191-3.205,8.921-3.135,7.607-0.517C25.448,10.772,15.3,26.56,16.221,45.861
	c0.797,16.693-11.287,9.914-11.839-1.642C3.489,25.598,15.845,10.736,19.53,7.918z"/>
<path opacity="0.5" fill="#634E48" d="M7.439,28.759c-0.284,5.129,1.403,8.359,5.13,9.599C10.007,36.006,8.268,32.743,7.439,28.759z
	"/>
<path opacity="0.5" fill="#634E48" d="M8.957,27.338c-0.455,2.939,0.245,5.257,2.141,6.911C9.884,32.232,9.159,29.887,8.957,27.338z
	"/>
<path opacity="0.5" fill="#634E48" d="M18.595,11.797c-2.936,0.808-4.516,2.938-4.679,6.429
	C14.875,15.516,16.464,13.335,18.595,11.797z"/>
<path opacity="0.5" fill="#634E48" d="M20.55,11.67c-2.366,0.627-3.818,2.325-4.309,5.128C17.27,14.631,18.732,12.89,20.55,11.67z"
	/>
<path opacity="0.5" fill="#634E48" d="M21.13,13.464c-2.366,0.626-3.818,2.326-4.309,5.127C17.85,16.424,19.314,14.684,21.13,13.464
	z"/>
<path opacity="0.5" fill="#634E48" d="M5.991,43.775c-0.284,5.129,1.403,8.358,5.13,9.598C8.561,51.024,6.82,47.761,5.991,43.775z"
	/>
<path opacity="0.5" fill="#634E48" d="M7.182,41.404c-0.457,2.938,0.243,5.254,2.139,6.908C8.107,46.295,7.382,43.95,7.182,41.404z"
	/>
<path opacity="0.5" fill="#634E48" d="M7.473,32.926c-0.457,2.938,0.243,5.255,2.139,6.909C8.398,37.815,7.673,35.471,7.473,32.926z
	"/>
<linearGradient id="SVGID_3_" gradientUnits="userSpaceOnUse" x1="23.6729" y1="83.6348" x2="15.5949" y2="30.6611" gradientTransform="matrix(0.9984 0.057 -0.057 0.9984 14.5747 -27.182)">
	<stop  offset="0" style="stop-color:#786055"/>
	<stop  offset="0.1731" style="stop-color:#7F665B"/>
	<stop  offset="0.5655" style="stop-color:#8A7065"/>
	<stop  offset="1" style="stop-color:#8E7368"/>
	<a:midPointStop  offset="0" style="stop-color:#786055"/>
	<a:midPointStop  offset="0.2727" style="stop-color:#786055"/>
	<a:midPointStop  offset="1" style="stop-color:#8E7368"/>
</linearGradient>
<path fill="url(#SVGID_3_)" d="M27.416,6.428c1.425-2.972,6.529-3.388,6.346-0.154c-0.238,4.163-3.205,22.692,5.102,39.204
	c7.186,14.284-6.454,16.619-11.429,6.736C19.416,36.285,25.032,11.401,27.416,6.428z"/>
<path opacity="0.5" fill="#634E48" d="M27.032,44.098c-0.157,5.138,1.611,8.247,5.368,9.229
	C29.781,51.156,27.958,48.018,27.032,44.098z"/>
<path opacity="0.5" fill="#634E48" d="M25.196,24.624c-0.157,5.138,1.611,8.246,5.368,9.23
	C27.945,31.682,26.122,28.544,25.196,24.624z"/>
<path opacity="0.5" fill="#634E48" d="M28.165,41.649c-0.384,2.964,0.374,5.229,2.311,6.748
	C29.21,46.467,28.428,44.178,28.165,41.649z"/>
<path opacity="0.5" fill="#634E48" d="M25.04,27.935c-0.384,2.963,0.371,5.226,2.31,6.747C26.086,32.752,25.301,30.46,25.04,27.935z
	"/>
<path opacity="0.5" fill="#634E48" d="M28.939,8.487c-2.464,2.055-3.478,5.203-2.977,9.47C26.315,14.344,27.327,11.127,28.939,8.487
	z"/>
<path opacity="0.5" fill="#634E48" d="M30.449,8.671c-1.656,0.98-2.625,2.922-2.87,5.844C28.229,12.157,29.204,10.175,30.449,8.671z
	"/>
</svg>
