<?xml version="1.0" encoding="utf-8"?>
<!-- Generator: Adobe Illustrator 15.0.0, SVG Export Plug-In . SVG Version: 6.00 Build 0)  -->
<!DOCTYPE svg PUBLIC "-//W3C//DTD SVG 1.1//EN" "http://www.w3.org/Graphics/SVG/1.1/DTD/svg11.dtd" [
	<!ENTITY ns_flows "http://ns.adobe.com/Flows/1.0/">
	<!ENTITY ns_extend "http://ns.adobe.com/Extensibility/1.0/">
	<!ENTITY ns_ai "http://ns.adobe.com/AdobeIllustrator/10.0/">
	<!ENTITY ns_graphs "http://ns.adobe.com/Graphs/1.0/">
]>
<svg version="1.1" id="Layer_1" xmlns:x="&ns_extend;" xmlns:i="&ns_ai;" xmlns:graph="&ns_graphs;"
	 xmlns="http://www.w3.org/2000/svg" xmlns:xlink="http://www.w3.org/1999/xlink" xmlns:a="http://ns.adobe.com/AdobeSVGViewerExtensions/3.0/"
	 x="0px" y="0px" width="64px" height="64px" viewBox="0 0 64 64" enable-background="new 0 0 64 64" xml:space="preserve">
<path fill="#30241D" d="M47.255,61.932c18.676,0.959,23.643-8.391,5.021-8.611C30.16,53.061,13.533,60.199,47.255,61.932z"/>
<path fill="#30241D" d="M26.363,59.852c-5.752,2.049-18.047,2.627-16.5,1.729c4.036-2.334-2.926-1.949-0.687-2.746
	c3.967-1.412,2.216-1.742,1.694-1.973c-1.728-0.754,6.555-1.137,14.086-0.42C28.488,56.781,30.644,58.326,26.363,59.852z"/>
<path fill="#45332A" d="M9.373,58.762c2.027-0.924,2.333-1.305,1.498-1.809C18.082,56.592,19.544,57.939,9.373,58.762z"/>
<path fill="#45332A" d="M10.306,61.293c1.413-1.09,0.087-1.52-0.777-1.84C17.15,58.211,21.255,60.082,10.306,61.293z"/>
<path fill="#1A1626" d="M9.462,61.643c-0.432,0.291,0.84,0.4,1.048,0.344C11.015,61.848,11.199,60.469,9.462,61.643z"/>
<path fill="#1A1626" d="M8.583,59.146c-0.36,0.244,0.706,0.332,0.88,0.287C9.886,59.316,10.042,58.158,8.583,59.146z"/>
<path fill="#1A1626" d="M10.375,56.682c-0.33,0.223,0.639,0.303,0.797,0.262C11.556,56.836,11.696,55.785,10.375,56.682z"/>
<path fill="#DDCEB1" d="M3.348,19.789L2.046,19.48c-0.09,1.421,1.108,2.335,1.394,2.434c0.11,0.037,0.384,0.039,0.476-0.021
	C4.007,21.83,3.202,21.023,3.348,19.789z"/>
<linearGradient id="SVGID_1_" gradientUnits="userSpaceOnUse" x1="2.0308" y1="30.9561" x2="3.958" y2="30.9561">
	<stop  offset="0" style="stop-color:#AD9789"/>
	<stop  offset="0.1954" style="stop-color:#A38E80"/>
	<stop  offset="0.5223" style="stop-color:#8A7669"/>
	<stop  offset="0.9385" style="stop-color:#604F42"/>
	<stop  offset="1" style="stop-color:#59493C"/>
	<a:midPointStop  offset="0" style="stop-color:#AD9789"/>
	<a:midPointStop  offset="0.5939" style="stop-color:#AD9789"/>
	<a:midPointStop  offset="1" style="stop-color:#59493C"/>
</linearGradient>
<path fill="url(#SVGID_1_)" d="M3.693,24.562c-0.574,0.537-0.43-1.27-0.729-1.104c-1.17,0.654-1.016,14.903-0.73,15.002
	c0.109,0.035,1.213-0.168,1.188-1.055C3.261,31.525,4.475,23.831,3.693,24.562z"/>
<linearGradient id="SVGID_2_" gradientUnits="userSpaceOnUse" x1="6.249" y1="16.0566" x2="45.9229" y2="49.5315">
	<stop  offset="0.2182" style="stop-color:#BF7B50"/>
	<stop  offset="0.3841" style="stop-color:#B37148"/>
	<stop  offset="0.6842" style="stop-color:#935732"/>
	<stop  offset="1" style="stop-color:#6B3716"/>
	<a:midPointStop  offset="0.2182" style="stop-color:#BF7B50"/>
	<a:midPointStop  offset="0.5758" style="stop-color:#BF7B50"/>
	<a:midPointStop  offset="1" style="stop-color:#6B3716"/>
</linearGradient>
<path fill="url(#SVGID_2_)" d="M44.446,23.928c0.196-0.023,1.359,0.132,0.613-0.614c-2.664-2.662-6.303-3.417-5.883-3.534
	c0.355-0.1,1.391-0.101,0.354-0.529c-7.143-2.957-13.289-0.759-22.077-7.024c0.41-0.177,0.585-0.258,0.052-0.595
	c-0.725-0.458-1.846-0.605-1.846-0.605s1.343-0.352,0.582-0.577c-2.906-0.861-9.1-0.782-15.365,2.968
	c-1.32,0.79-0.524,6.413,1.08,6.618c0.809,0.104,3.514,1.057,2.816,1.904C2.011,25.293,7.3,22.746,9.537,25.83
	c1.691,2.33,6.092,6.28,6.15,9.209C16.283,64.24,38.694,63.045,46.49,54.168c0.169-0.193-0.157,1.414,0.64,0.359
	c1.339-1.775,1.354-4.209,2.117-6.35c0.164-0.457,0.333,1.943,0.763,0.316c1.249-4.734,0.298-11.596-0.949-15.209
	c-0.312-0.902,1.101,0.688,0.81-0.279C47.836,26.253,44.077,23.971,44.446,23.928z"/>
<path fill="#30241D" d="M1.566,13.021c-0.079-0.069-2.434,0.396-1.219,4.098C0.783,15.884,4.023,15.157,1.566,13.021z"/>
<linearGradient id="SVGID_3_" gradientUnits="userSpaceOnUse" x1="16.5947" y1="12.2617" x2="13.5024" y2="15.3734">
	<stop  offset="0" style="stop-color:#D69368"/>
	<stop  offset="0.2934" style="stop-color:#CE8B60;stop-opacity:0.7066"/>
	<stop  offset="1" style="stop-color:#BF7B50;stop-opacity:0"/>
	<a:midPointStop  offset="0" style="stop-color:#D69368"/>
	<a:midPointStop  offset="0.4424" style="stop-color:#D69368"/>
	<a:midPointStop  offset="1" style="stop-color:#BF7B50;stop-opacity:0"/>
</linearGradient>
<path fill="url(#SVGID_3_)" d="M13.498,15.664c-1.141-0.376-0.791-1.043-0.584-1.533C16.009,6.828,19.25,17.559,13.498,15.664z"/>
<path fill="#4D2915" d="M13.404,15.354c-0.841-0.275-0.583-0.767-0.432-1.127C15.255,8.843,17.643,16.753,13.404,15.354z"/>
<linearGradient id="SVGID_4_" gradientUnits="userSpaceOnUse" x1="2.4443" y1="28.042" x2="13.5153" y2="28.042">
	<stop  offset="0" style="stop-color:#4D2915"/>
	<stop  offset="0.1523" style="stop-color:#673C23"/>
	<stop  offset="0.4044" style="stop-color:#8D5736"/>
	<stop  offset="0.6379" style="stop-color:#A96B44"/>
	<stop  offset="0.8438" style="stop-color:#B9774D"/>
	<stop  offset="1" style="stop-color:#BF7B50"/>
	<a:midPointStop  offset="0" style="stop-color:#4D2915"/>
	<a:midPointStop  offset="0.3515" style="stop-color:#4D2915"/>
	<a:midPointStop  offset="1" style="stop-color:#BF7B50"/>
</linearGradient>
<path fill="url(#SVGID_4_)" d="M11.931,23.397c-4.066,6.124-5.623,4.85-7.437,4.33c0.009-1.879-1.308-1.205-1.667-1.672
	c-0.717-0.938-1.316-0.303-1.174,0.249c-0.493-0.496-1.134,0.535-0.512,1.051c-0.586,0.063-0.54,0.858-0.018,1.094
	c-0.55,0.764,0.458,1.237,1.832,1.465c1.555,0.256,2.889,2.688,4.868,4.321c1.308,1.078,0.556-0.34,0.706-0.197
	c3.223,3.061,7.664,2.193,9.635,0.76c0.129-0.094-0.652,1.643,0.73,0.199c1.329-1.387,1.635-4.2,1.709-3.941
	c0.111,0.392,0.098,1.492,0.481,0.12C23.443,22.767,17.212,15.447,11.931,23.397z"/>
<linearGradient id="SVGID_5_" gradientUnits="userSpaceOnUse" x1="35.7246" y1="56.3369" x2="21.8282" y2="41.0088">
	<stop  offset="0" style="stop-color:#6B3716"/>
	<stop  offset="0.0025" style="stop-color:#6B3716"/>
	<stop  offset="0.6779" style="stop-color:#A76840"/>
	<stop  offset="1" style="stop-color:#BF7B50"/>
	<a:midPointStop  offset="0" style="stop-color:#6B3716"/>
	<a:midPointStop  offset="0.4606" style="stop-color:#6B3716"/>
	<a:midPointStop  offset="1" style="stop-color:#BF7B50"/>
</linearGradient>
<path fill="url(#SVGID_5_)" d="M22.865,37.248c-0.689,0.518,0.148,0.277,0.725,0.217c0.246-0.025-2.757,1.041-3.773,2.797
	c-0.398,0.686,0.154,0.297,0.518,0.188c0.559-0.168-1.947,1.686-2.895,4.492c-0.202,0.602,0,0.809,0.62,0.291
	c0.394-0.326-1.604,2.17-1.601,7.092c0,1.961,0.398,0.732,0.578,0.373c0.162-0.322,0.211,3.652,3.589,6.164
	c1.707,1.27,0.441-0.584,0.706-0.396c2.133,1.504,4.679,3.143,7.338,2.902c0.412-0.037-1.726,0.916,0.486,0.535
	c1.602-0.275,4.971-1.078,6.324-4.936c0.118-0.336-0.137,2.074,1.024,0.209c1.584-2.547,2.428-6.213,2.345-8.625
	c-0.024-0.676,0.693,1.617,0.755-0.041C40.155,33.729,28.527,33.006,22.865,37.248z"/>
<path fill="#30241D" d="M7.156,12.518c-1.114,0-1.551,0.942-1.454,1.681c0.073,0.545,2.839,0.545,2.909,0
	C8.714,13.402,8.174,12.518,7.156,12.518z"/>
<path fill="#FFFFFF" d="M7.156,12.78c-0.803,0-1.454,0.598-1.454,1.334c0,0.636,0.651,1.336,1.454,1.336
	c0.805,0,1.455-0.814,1.455-1.336C8.611,13.377,7.96,12.78,7.156,12.78z"/>
<ellipse fill="#1A1626" cx="7.017" cy="14.101" rx="1.085" ry="1.062"/>
<path fill="#FFFFFF" d="M6.929,13.57c0,0.386-0.591,0.386-0.591,0C6.338,13.183,6.929,13.183,6.929,13.57z"/>
<path opacity="0.5" fill="#4D2915" d="M17.828,14.563c0.436,2.837,1.835,4.354,4.223,4.488
	C20.23,18.141,18.797,16.616,17.828,14.563z"/>
<path opacity="0.5" fill="#4D2915" d="M27.026,21.333c2.276,1.748,4.337,1.876,6.154,0.321
	C31.236,22.256,29.146,22.146,27.026,21.333z"/>
<path opacity="0.5" fill="#4D2915" d="M34.317,18.716c-2.698-0.98-4.701-0.48-5.964,1.55C30.026,19.106,32.051,18.582,34.317,18.716
	z"/>
<path opacity="0.5" fill="#4D2915" d="M38.111,21.458c-2.065-1.994-4.099-2.353-6.079-1.013
	C34.032,20.067,36.096,20.413,38.111,21.458z"/>
<path opacity="0.5" fill="#4D2915" d="M26.264,24.135c-0.298-2.063-1.398-3.385-3.318-3.934
	C24.395,21.181,25.52,22.519,26.264,24.135z"/>
<path opacity="0.5" fill="#4D2915" d="M29.477,17.701c-1.175-0.667-2.332-0.499-3.463,0.53
	C27.154,17.691,28.329,17.513,29.477,17.701z"/>
<path opacity="0.5" fill="#4D2915" d="M19.599,14.934c1.635,2.415,3.696,3.13,6.194,2.07C23.554,17.062,21.449,16.356,19.599,14.934
	z"/>
<path opacity="0.5" fill="#4D2915" d="M23.037,18.316c1.309,1.478,2.994,1.656,5.054,0.479
	C26.252,19.205,24.535,19.041,23.037,18.316z"/>
<path opacity="0.5" fill="#4D2915" d="M45.845,40.422c-0.496,2.352,0.411,3.945,2.769,4.742
	C47.083,43.924,46.145,42.311,45.845,40.422z"/>
<path opacity="0.5" fill="#4D2915" d="M46.407,38.186c-0.261,1.373,0.228,2.436,1.497,3.164
	C47.08,40.438,46.572,39.363,46.407,38.186z"/>
<path opacity="0.5" fill="#4D2915" d="M41.759,35.752c1.727-2.923,1.353-5.445-1.207-7.529
	C41.87,30.542,42.277,33.098,41.759,35.752z"/>
<path opacity="0.5" fill="#4D2915" d="M44.306,40.318c1.41-2.342,1.263-4.514-0.503-6.488C44.65,35.906,44.82,38.107,44.306,40.318z
	"/>
<path opacity="0.5" fill="#4D2915" d="M42.733,37.111c-1.043,2.676-0.613,4.848,1.339,6.477
	C42.986,41.664,42.531,39.465,42.733,37.111z"/>
<path opacity="0.5" fill="#4D2915" d="M35.071,21.858c2.428,1.534,4.642,1.526,6.613-0.079
	C39.588,22.477,37.342,22.504,35.071,21.858z"/>
<path opacity="0.5" fill="#4D2915" d="M47.064,31.987c-0.202-3.024-1.876-4.739-5.069-5.094
	C44.317,28.01,46.038,29.743,47.064,31.987z"/>
<path opacity="0.5" fill="#4D2915" d="M37.43,29.215c0.804-2.923-0.213-5.093-3.112-6.477C36.144,24.557,37.198,26.759,37.43,29.215
	z"/>
<path opacity="0.5" fill="#4D2915" d="M45.704,34.145c0.127-1.76-0.65-3.044-2.361-3.82C44.521,31.381,45.321,32.677,45.704,34.145z
	"/>
<path opacity="0.5" fill="#4D2915" d="M47.216,37.855c0.952-1.563,0.858-3.018-0.321-4.348C47.458,34.9,47.566,36.379,47.216,37.855
	z"/>
<path opacity="0.5" fill="#4D2915" d="M44.594,26.256c-1.324-1.603-3.18-2.112-5.574-1.482
	C41.097,24.788,42.99,25.292,44.594,26.256z"/>
<path opacity="0.5" fill="#4D2915" d="M39.192,29.934c0.691-1.143,0.553-2.429-0.453-3.847
	C39.254,27.424,39.407,28.73,39.192,29.934z"/>
<path opacity="0.5" fill="#4D2915" d="M34.398,25.496c-0.761-1.098-1.992-1.495-3.696-1.155
	C32.132,24.416,33.387,24.808,34.398,25.496z"/>
</svg>
