<?xml version="1.0" encoding="utf-8"?>
<!-- Generator: Adobe Illustrator 15.0.0, SVG Export Plug-In . SVG Version: 6.00 Build 0)  -->
<!DOCTYPE svg PUBLIC "-//W3C//DTD SVG 1.1//EN" "http://www.w3.org/Graphics/SVG/1.1/DTD/svg11.dtd" [
	<!ENTITY ns_flows "http://ns.adobe.com/Flows/1.0/">
	<!ENTITY ns_extend "http://ns.adobe.com/Extensibility/1.0/">
	<!ENTITY ns_ai "http://ns.adobe.com/AdobeIllustrator/10.0/">
	<!ENTITY ns_graphs "http://ns.adobe.com/Graphs/1.0/">
]>
<svg version="1.1" id="Layer_1" xmlns:x="&ns_extend;" xmlns:i="&ns_ai;" xmlns:graph="&ns_graphs;"
	 xmlns="http://www.w3.org/2000/svg" xmlns:xlink="http://www.w3.org/1999/xlink" xmlns:a="http://ns.adobe.com/AdobeSVGViewerExtensions/3.0/"
	 x="0px" y="0px" width="64px" height="64px" viewBox="0 0 64 64" enable-background="new 0 0 64 64" xml:space="preserve">
<linearGradient id="SVGID_1_" gradientUnits="userSpaceOnUse" x1="150.5771" y1="129.5391" x2="154.5957" y2="129.5391" gradientTransform="matrix(0.1544 0.988 -0.988 0.1544 127.1602 -155.4658)">
	<stop  offset="0" style="stop-color:#99A8AE"/>
	<stop  offset="0.2891" style="stop-color:#94A3AA"/>
	<stop  offset="0.6343" style="stop-color:#85969D"/>
	<stop  offset="1" style="stop-color:#6E8088"/>
	<a:midPointStop  offset="0" style="stop-color:#99A8AE"/>
	<a:midPointStop  offset="0.67" style="stop-color:#99A8AE"/>
	<a:midPointStop  offset="1" style="stop-color:#6E8088"/>
</linearGradient>
<path fill="url(#SVGID_1_)" d="M15.301,18.486l-0.155-1.208c-0.164-1.277,0.642-2.462,1.812-2.658l13.214-2.524l0.503,3.5
	L15.301,18.486z"/>
<path fill="#6E8189" d="M19.862,13.307c-0.03-0.219-0.203-0.355-0.361-0.298c-1.003,0.363-1.826,0.323-1.637,1.65l0.452,3.15
	l2.281,0.623C20.598,18.433,20.041,14.529,19.862,13.307z"/>
<path fill="#6E8189" d="M26.641,16.309c0,0,0.062,0.43,0.49,0.356c0.517-0.088,1.277-0.264,1.227-0.631
	c-0.253-1.75-0.253-1.75-0.503-3.5c-0.053-0.366-0.827-0.281-1.344-0.192c-0.43,0.074-0.389,0.259-0.356,0.482L26.641,16.309z"/>
<path fill="#302C3B" d="M27.183,13.964c-0.237,0.04-0.398,0.28-0.362,0.539c0.038,0.258,0.259,0.434,0.495,0.393
	c0.236-0.04,0.399-0.281,0.361-0.54C27.64,14.099,27.419,13.923,27.183,13.964z"/>
<linearGradient id="SVGID_2_" gradientUnits="userSpaceOnUse" x1="60.5674" y1="68.4453" x2="93.6885" y2="68.4453" gradientTransform="matrix(0.8078 0.5894 -0.5894 0.8078 24.2025 -89.9347)">
	<stop  offset="0" style="stop-color:#99A8AE"/>
	<stop  offset="0.2891" style="stop-color:#94A3AA"/>
	<stop  offset="0.6343" style="stop-color:#85969D"/>
	<stop  offset="1" style="stop-color:#6E8088"/>
	<a:midPointStop  offset="0" style="stop-color:#99A8AE"/>
	<a:midPointStop  offset="0.67" style="stop-color:#99A8AE"/>
	<a:midPointStop  offset="1" style="stop-color:#6E8088"/>
</linearGradient>
<path fill="url(#SVGID_2_)" d="M52.329,2.191c1.081-0.187,0.709-1.917,1.985-2.136c2.497-0.426,8.515,1.521,9.51,8.47
	c1.452,10.118-6.574,11.555-6.837,12.774c-0.261,1.22-0.946,1.439-1.687,0.84c-0.742-0.599-22.414-1.676-25.131-3.874
	c-2.717-2.197-6.324-11.126,1.408-12.443C39.31,4.506,48.188,2.894,52.329,2.191z"/>
<linearGradient id="SVGID_3_" gradientUnits="userSpaceOnUse" x1="143.251" y1="106.1211" x2="162.6211" y2="108.4995" gradientTransform="matrix(0.1544 0.988 -0.988 0.1544 127.1602 -155.4658)">
	<stop  offset="0" style="stop-color:#5B666E"/>
	<stop  offset="0.0934" style="stop-color:#555E67"/>
	<stop  offset="0.448" style="stop-color:#41424F"/>
	<stop  offset="0.7618" style="stop-color:#343240"/>
	<stop  offset="1" style="stop-color:#302C3B"/>
	<a:midPointStop  offset="0" style="stop-color:#5B666E"/>
	<a:midPointStop  offset="0.3515" style="stop-color:#5B666E"/>
	<a:midPointStop  offset="1" style="stop-color:#302C3B"/>
</linearGradient>
<path fill="url(#SVGID_3_)" d="M52.416,20.626c1.438-3.21,3.275-5.966,5.17-6.287c3.033-0.518,5.375-0.915,5.005-3.488
	c-0.425-2.979-4.103-1.949-5.679-2.915c-2.035-1.246-1.559-4.797-4.583-5.745c-1.305,0.221-2.757,0.468-4.375,0.744
	c1.728,1.805,1.597,5.144-0.357,5.476C46.498,8.599,35.88,9.243,33.836,9.25c-1.635,0.005-2.822-1.889-3.162-3.221
	c-6.791,1.889-3.109,10.128-0.504,12.236c0.68,0.55,2.547,1.03,4.975,1.449c-0.959-2.27-1.12-5.12,2.073-5.242
	c1.739-0.063,6.657-0.156,8.355-0.1c1.697,0.057,2.625-0.03,2.867,1.662c0.241,1.694-2.169,3.213-1.974,4.565
	c0.02,0.136,0.106,0.317,0.244,0.53c2.266,0.223,4.325,0.412,5.867,0.578C52.354,21.355,52.266,20.962,52.416,20.626z"/>
<path fill="#99A8AE" d="M25.318,15.888c-1.761-0.029-8.473,0.185-8.473,0.185l-0.038,2.36c0,0,6.711-0.213,8.472-0.184
	c0.648,0.012,1.184-0.51,1.193-1.161C26.483,16.437,25.967,15.9,25.318,15.888z"/>
<linearGradient id="SVGID_4_" gradientUnits="userSpaceOnUse" x1="22.4443" y1="173.3594" x2="50.625" y2="173.3594" gradientTransform="matrix(0.9999 0.0165 -0.0165 0.9999 -19.5343 -115.5158)">
	<stop  offset="0" style="stop-color:#5B666E"/>
	<stop  offset="0.0934" style="stop-color:#555E67"/>
	<stop  offset="0.448" style="stop-color:#41424F"/>
	<stop  offset="0.7618" style="stop-color:#343240"/>
	<stop  offset="1" style="stop-color:#302C3B"/>
	<a:midPointStop  offset="0" style="stop-color:#5B666E"/>
	<a:midPointStop  offset="0.3515" style="stop-color:#5B666E"/>
	<a:midPointStop  offset="1" style="stop-color:#302C3B"/>
</linearGradient>
<path fill="url(#SVGID_4_)" d="M0.376,60.483c0,0-0.179-1.525,1.44-1.498c1.619,0.026,5.729,0.073,6.82-0.999
	c1.09-1.069,7.179-3.172,7.212-5.187l11.282,0.928c0,0,1.09,5.243,1.057,7.22c-0.032,1.974-1.221,2.776-3.811,2.734
	c-2.591-0.045-3.045-0.505-4.797-0.532c-1.754-0.031-7.397,0.906-10.84,0.849C5.299,63.94-0.028,62.828,0,61.094
	C0.007,60.7,0.376,60.483,0.376,60.483z"/>
<path fill="#4E5E67" d="M15.849,52.8c-0.017,1.016,11.265,1.981,11.282,0.928S15.865,51.782,15.849,52.8z"/>
<path fill="#1A1626" d="M17.093,52.876c-0.021,0.642,8.772,1.44,8.795,0.778C25.91,52.987,17.114,52.236,17.093,52.876z"/>
<path fill="#302C3B" d="M22.872,49.469l1.026,0.017c0.493,0.01,0.506-1.173,0.02-1.181l-1.026-0.017
	C22.416,48.279,22.367,49.462,22.872,49.469z"/>
<path fill="#302C3B" d="M22.834,51.83l1.026,0.017c0.491,0.01,0.503-1.173,0.019-1.18l-1.025-0.017
	C22.378,50.641,22.328,51.823,22.834,51.83z"/>
<linearGradient id="SVGID_5_" gradientUnits="userSpaceOnUse" x1="40.0557" y1="164.7598" x2="45.5898" y2="164.7598" gradientTransform="matrix(0.9999 0.0165 -0.0165 0.9999 -19.5343 -115.5158)">
	<stop  offset="0" style="stop-color:#5B666E"/>
	<stop  offset="0.0934" style="stop-color:#555E67"/>
	<stop  offset="0.448" style="stop-color:#41424F"/>
	<stop  offset="0.7618" style="stop-color:#343240"/>
	<stop  offset="1" style="stop-color:#302C3B"/>
	<a:midPointStop  offset="0" style="stop-color:#5B666E"/>
	<a:midPointStop  offset="0.3515" style="stop-color:#5B666E"/>
	<a:midPointStop  offset="1" style="stop-color:#302C3B"/>
</linearGradient>
<path fill="url(#SVGID_5_)" d="M23.269,53.877c0.024-1.503,0.101-6.073,0.108-6.561c0.009-0.521-0.215-1.239-2.578-1.277
	c-2.011-0.033-2.944,0.52-2.944,0.52l-0.017,1.005c0,0,1.607,1.696,1.652,5.967C20.661,53.693,22.069,53.823,23.269,53.877z"/>
<linearGradient id="SVGID_6_" gradientUnits="userSpaceOnUse" x1="40.6426" y1="160.8604" x2="45.3408" y2="160.8604" gradientTransform="matrix(0.9999 0.0165 -0.0165 0.9999 -19.5343 -115.5158)">
	<stop  offset="0" style="stop-color:#99A8AE"/>
	<stop  offset="0.2891" style="stop-color:#94A3AA"/>
	<stop  offset="0.6343" style="stop-color:#85969D"/>
	<stop  offset="1" style="stop-color:#6E8088"/>
	<a:midPointStop  offset="0" style="stop-color:#99A8AE"/>
	<a:midPointStop  offset="0.67" style="stop-color:#99A8AE"/>
	<a:midPointStop  offset="1" style="stop-color:#6E8088"/>
</linearGradient>
<path fill="url(#SVGID_6_)" d="M18.474,44.672l-0.04,2.361c-0.002,0.161,1.048,0.312,2.344,0.333
	c1.298,0.021,2.35-0.093,2.352-0.255l0.041-2.36L18.474,44.672z"/>
<ellipse transform="matrix(0.9999 0.0168 -0.0168 0.9999 0.7559 -0.3443)" fill="#6E8189" cx="20.822" cy="44.711" rx="2.348" ry="0.294"/>
<linearGradient id="SVGID_7_" gradientUnits="userSpaceOnUse" x1="19.0615" y1="40.7109" x2="22.583" y2="40.7109">
	<stop  offset="0" style="stop-color:#99A8AE"/>
	<stop  offset="0.2891" style="stop-color:#94A3AA"/>
	<stop  offset="0.6343" style="stop-color:#85969D"/>
	<stop  offset="1" style="stop-color:#6E8088"/>
	<a:midPointStop  offset="0" style="stop-color:#99A8AE"/>
	<a:midPointStop  offset="0.67" style="stop-color:#99A8AE"/>
	<a:midPointStop  offset="1" style="stop-color:#6E8088"/>
</linearGradient>
<path fill="url(#SVGID_7_)" d="M19.062,36.563v8.049c-0.005,0.288,3.518,0.347,3.521,0.058v-8.047L19.062,36.563z"/>
<circle fill="#302C3B" cx="25.299" cy="17.068" r="0.588"/>
<linearGradient id="SVGID_8_" gradientUnits="userSpaceOnUse" x1="76.458" y1="111.7422" x2="87.4521" y2="111.7422" gradientTransform="matrix(1.1727 0.0194 -0.0144 0.8716 -74.6838 -69.5539)">
	<stop  offset="0" style="stop-color:#5B666E"/>
	<stop  offset="0.0934" style="stop-color:#555E67"/>
	<stop  offset="0.448" style="stop-color:#41424F"/>
	<stop  offset="0.7618" style="stop-color:#343240"/>
	<stop  offset="1" style="stop-color:#302C3B"/>
	<a:midPointStop  offset="0" style="stop-color:#5B666E"/>
	<a:midPointStop  offset="0.3515" style="stop-color:#5B666E"/>
	<a:midPointStop  offset="1" style="stop-color:#302C3B"/>
</linearGradient>
<path fill="url(#SVGID_8_)" d="M17.342,15.394h-2.484l-1.294,2.182v6.175l0.917,0.531c0,0-0.102,10.808,3.095,19.108h5.951
	l1.537-1.176V40.4c0,0-0.815-0.395-0.843-0.663c-0.375-3.731,4.958-8.332-0.309-16.965c-0.586-0.96,1.033-3.466,0.955-4.794
	c-0.029-0.518-0.945-1.844-1.181-1.847c-0.235-0.006-6.008,0-6.008,0L17.342,15.394z"/>
</svg>
