<?xml version="1.0" encoding="utf-8"?>
<!-- Generator: Adobe Illustrator 15.0.0, SVG Export Plug-In . SVG Version: 6.00 Build 0)  -->
<!DOCTYPE svg PUBLIC "-//W3C//DTD SVG 1.1//EN" "http://www.w3.org/Graphics/SVG/1.1/DTD/svg11.dtd" [
	<!ENTITY ns_flows "http://ns.adobe.com/Flows/1.0/">
	<!ENTITY ns_extend "http://ns.adobe.com/Extensibility/1.0/">
	<!ENTITY ns_ai "http://ns.adobe.com/AdobeIllustrator/10.0/">
	<!ENTITY ns_graphs "http://ns.adobe.com/Graphs/1.0/">
]>
<svg version="1.1" id="Layer_1" xmlns:x="&ns_extend;" xmlns:i="&ns_ai;" xmlns:graph="&ns_graphs;"
	 xmlns="http://www.w3.org/2000/svg" xmlns:xlink="http://www.w3.org/1999/xlink" xmlns:a="http://ns.adobe.com/AdobeSVGViewerExtensions/3.0/"
	 x="0px" y="0px" width="64px" height="64px" viewBox="0 0 64 64" enable-background="new 0 0 64 64" xml:space="preserve">
<linearGradient id="SVGID_1_" gradientUnits="userSpaceOnUse" x1="-50.3579" y1="201.4238" x2="-42.8286" y2="201.4238" gradientTransform="matrix(0.9227 0.3854 -0.3854 0.9227 136.938 -127.6946)">
	<stop  offset="0" style="stop-color:#5B666E"/>
	<stop  offset="0.0934" style="stop-color:#555E67"/>
	<stop  offset="0.448" style="stop-color:#41424F"/>
	<stop  offset="0.7618" style="stop-color:#343240"/>
	<stop  offset="1" style="stop-color:#302C3B"/>
	<a:midPointStop  offset="0" style="stop-color:#5B666E"/>
	<a:midPointStop  offset="0.3515" style="stop-color:#5B666E"/>
	<a:midPointStop  offset="1" style="stop-color:#302C3B"/>
</linearGradient>
<path fill="url(#SVGID_1_)" d="M16.473,36.428c-0.337-2.181-2.294-2.064-3.121,1.394c-0.344,1.442,0.838,6.059,1.761,6.728
	c0.957,0.687,3.376,0.545,3.614-0.361C19.514,41.212,17.396,42.347,16.473,36.428z"/>
<linearGradient id="SVGID_2_" gradientUnits="userSpaceOnUse" x1="-46.9775" y1="206.125" x2="-41.4365" y2="206.125" gradientTransform="matrix(0.9227 0.3854 -0.3854 0.9227 136.938 -127.6946)">
	<stop  offset="0" style="stop-color:#5B666E"/>
	<stop  offset="1" style="stop-color:#302C3B"/>
	<a:midPointStop  offset="0" style="stop-color:#5B666E"/>
	<a:midPointStop  offset="0.497" style="stop-color:#5B666E"/>
	<a:midPointStop  offset="1" style="stop-color:#302C3B"/>
</linearGradient>
<path fill="url(#SVGID_2_)" d="M18.893,44.453c0.584-1.506-3.775-2.503-4.478-0.692c-0.354,0.922-0.071,3.271,0.584,3.799
	c0.679,0.541,3.408,1.045,3.731,0.244C19.056,47.006,18.576,45.275,18.893,44.453z"/>
<linearGradient id="SVGID_3_" gradientUnits="userSpaceOnUse" x1="-52.3252" y1="219.5742" x2="-47.3325" y2="219.5742" gradientTransform="matrix(0.9227 0.3854 -0.3854 0.9227 136.938 -127.6946)">
	<stop  offset="0" style="stop-color:#5B666E"/>
	<stop  offset="0.0934" style="stop-color:#555E67"/>
	<stop  offset="0.448" style="stop-color:#41424F"/>
	<stop  offset="0.7618" style="stop-color:#343240"/>
	<stop  offset="1" style="stop-color:#302C3B"/>
	<a:midPointStop  offset="0" style="stop-color:#5B666E"/>
	<a:midPointStop  offset="0.3515" style="stop-color:#5B666E"/>
	<a:midPointStop  offset="1" style="stop-color:#302C3B"/>
</linearGradient>
<path fill="url(#SVGID_3_)" d="M8.306,54.797c0.526-1.359-3.403-2.257-4.034-0.625c-0.322,0.834-0.066,2.95,0.524,3.423
	c0.613,0.486,3.07,0.942,3.362,0.224C8.452,57.095,8.02,55.54,8.306,54.797z"/>
<linearGradient id="SVGID_4_" gradientUnits="userSpaceOnUse" x1="-54.5" y1="217.4697" x2="-49.0391" y2="217.4697" gradientTransform="matrix(0.9227 0.3854 -0.3854 0.9227 136.938 -127.6946)">
	<stop  offset="0" style="stop-color:#5B666E"/>
	<stop  offset="0.0934" style="stop-color:#555E67"/>
	<stop  offset="0.448" style="stop-color:#41424F"/>
	<stop  offset="0.7618" style="stop-color:#343240"/>
	<stop  offset="1" style="stop-color:#302C3B"/>
	<a:midPointStop  offset="0" style="stop-color:#5B666E"/>
	<a:midPointStop  offset="0.3515" style="stop-color:#5B666E"/>
	<a:midPointStop  offset="1" style="stop-color:#302C3B"/>
</linearGradient>
<path fill="url(#SVGID_4_)" d="M7.509,52.023c0.575-1.488-3.721-2.47-4.411-0.685c-0.353,0.907-0.072,3.226,0.577,3.742
	c0.664,0.533,3.354,1.031,3.676,0.243C7.668,54.536,7.197,52.833,7.509,52.023z"/>
<linearGradient id="SVGID_5_" gradientUnits="userSpaceOnUse" x1="-65.7676" y1="222.1094" x2="-58.7129" y2="222.1094" gradientTransform="matrix(0.8552 0.5184 -0.5184 0.8552 176.725 -113.7253)">
	<stop  offset="0" style="stop-color:#5B666E"/>
	<stop  offset="0.0542" style="stop-color:#555E67"/>
	<stop  offset="0.2408" style="stop-color:#454854"/>
	<stop  offset="0.4449" style="stop-color:#393846"/>
	<stop  offset="0.6773" style="stop-color:#322F3E"/>
	<stop  offset="1" style="stop-color:#302C3B"/>
	<a:midPointStop  offset="0" style="stop-color:#5B666E"/>
	<a:midPointStop  offset="0.2303" style="stop-color:#5B666E"/>
	<a:midPointStop  offset="1" style="stop-color:#302C3B"/>
</linearGradient>
<path fill="url(#SVGID_5_)" d="M12.456,43.999c0.84-1.506-6.862-3.716-8.35,0.276c-0.348,0.931,5.258,1.34,5.719,0.54
	C10.287,44.021,11.999,44.823,12.456,43.999z"/>
<linearGradient id="SVGID_6_" gradientUnits="userSpaceOnUse" x1="-70.2607" y1="236.3203" x2="-64.1499" y2="236.3203" gradientTransform="matrix(0.7877 0.6161 -0.6161 0.7877 204.554 -98.7649)">
	<stop  offset="0" style="stop-color:#5B666E"/>
	<stop  offset="1" style="stop-color:#302C3B"/>
	<a:midPointStop  offset="0" style="stop-color:#5B666E"/>
	<a:midPointStop  offset="0.497" style="stop-color:#5B666E"/>
	<a:midPointStop  offset="1" style="stop-color:#302C3B"/>
</linearGradient>
<path fill="url(#SVGID_6_)" d="M8.141,45.276c0.993-1.39-3.36-2.994-4.06-1.769c-0.522,0.915-1.456,2.737-0.914,3.491
	c0.559,0.78,3.78,2.795,4.321,2.061C8.032,48.329,7.599,46.033,8.141,45.276z"/>
<linearGradient id="SVGID_7_" gradientUnits="userSpaceOnUse" x1="-56.8989" y1="214.3789" x2="-50.939" y2="214.3789" gradientTransform="matrix(0.9227 0.3854 -0.3854 0.9227 136.938 -127.6946)">
	<stop  offset="0" style="stop-color:#5B666E"/>
	<stop  offset="0.0934" style="stop-color:#555E67"/>
	<stop  offset="0.448" style="stop-color:#41424F"/>
	<stop  offset="0.7618" style="stop-color:#343240"/>
	<stop  offset="1" style="stop-color:#302C3B"/>
	<a:midPointStop  offset="0" style="stop-color:#5B666E"/>
	<a:midPointStop  offset="0.3515" style="stop-color:#5B666E"/>
	<a:midPointStop  offset="1" style="stop-color:#302C3B"/>
</linearGradient>
<path fill="url(#SVGID_7_)" d="M6.988,48.09c0.443-1.152-4.248-2.224-4.82-0.747c-0.384,0.993-0.08,3.521,0.628,4.09
	c0.731,0.582,3.667,1.123,4.014,0.26C7.16,50.834,6.646,48.974,6.988,48.09z"/>
<linearGradient id="SVGID_8_" gradientUnits="userSpaceOnUse" x1="20.1138" y1="325.3535" x2="27.0317" y2="325.3535" gradientTransform="matrix(0.0084 1.4036 -1 0.0174 346.684 14.3451)">
	<stop  offset="0" style="stop-color:#99A8AE"/>
	<stop  offset="0.2891" style="stop-color:#94A3AA"/>
	<stop  offset="0.6343" style="stop-color:#85969D"/>
	<stop  offset="1" style="stop-color:#6E8088"/>
	<a:midPointStop  offset="0" style="stop-color:#99A8AE"/>
	<a:midPointStop  offset="0.67" style="stop-color:#99A8AE"/>
	<a:midPointStop  offset="1" style="stop-color:#6E8088"/>
</linearGradient>
<path fill="url(#SVGID_8_)" d="M26.167,48.156l-8.406,0.251c-1.18,0-1.212,9.612-0.03,9.606l8.408-0.25L26.167,48.156z"/>
<path fill="#1A1626" d="M45.424,45.991c0,0-6.023-3.062-6.851-0.924c-0.681,1.76,5.687,4.636,5.687,4.636L45.424,45.991z"/>
<linearGradient id="SVGID_9_" gradientUnits="userSpaceOnUse" x1="27.6724" y1="89.6279" x2="27.6724" y2="79.5439" gradientTransform="matrix(0.9947 0.1025 -0.1025 0.9947 30.5717 -38.6604)">
	<stop  offset="0" style="stop-color:#6E8088"/>
	<stop  offset="0.3657" style="stop-color:#85969D"/>
	<stop  offset="0.7109" style="stop-color:#94A3AA"/>
	<stop  offset="1" style="stop-color:#99A8AE"/>
	<a:midPointStop  offset="0" style="stop-color:#6E8088"/>
	<a:midPointStop  offset="0.33" style="stop-color:#6E8088"/>
	<a:midPointStop  offset="1" style="stop-color:#99A8AE"/>
</linearGradient>
<path fill="url(#SVGID_9_)" d="M45.287,42.818c0,0-4.249,7.863,1.032,10.009c6.168,2.505,9.143-7.102,9.143-7.102L45.287,42.818z"/>
<linearGradient id="SVGID_10_" gradientUnits="userSpaceOnUse" x1="-39.3936" y1="205.7822" x2="-9.0103" y2="205.7822" gradientTransform="matrix(0.9227 0.3854 -0.3849 0.9215 136.5556 -126.803)">
	<stop  offset="0" style="stop-color:#5B666E"/>
	<stop  offset="0.0934" style="stop-color:#555E67"/>
	<stop  offset="0.448" style="stop-color:#41424F"/>
	<stop  offset="0.7618" style="stop-color:#343240"/>
	<stop  offset="1" style="stop-color:#302C3B"/>
	<a:midPointStop  offset="0" style="stop-color:#5B666E"/>
	<a:midPointStop  offset="0.3515" style="stop-color:#5B666E"/>
	<a:midPointStop  offset="1" style="stop-color:#302C3B"/>
</linearGradient>
<path fill="url(#SVGID_10_)" d="M51.694,51.74c0,0-6.074-0.359-11.804-4.514c0,0-2.858-2.157-0.625-2.993
	c-3.458,1.28-7.063,2.441-17.002,3.038c-3.258,0.201-3.398,11.072-0.967,11.511c2.056,0.371,8.729,0.512,13.927,1.076
	c5.919,0.641,13.243-0.846,15.779-5.329C51.906,52.929,51.694,51.74,51.694,51.74z"/>
<path fill="#6E8189" d="M38.856,45.137c0.444-1.15,3.491-0.201,5.295,0.543l0.175-0.566c-4.818-1.823-6.916-0.844-5.682,1.047
	c1.528,2.199,8.223,5.333,13.05,5.58C45.707,51.265,38.2,46.832,38.856,45.137z"/>
<linearGradient id="SVGID_11_" gradientUnits="userSpaceOnUse" x1="-14.2939" y1="199.5977" x2="-7.5078" y2="199.5977" gradientTransform="matrix(0.9227 0.3854 -0.3854 0.9227 136.938 -127.6946)">
	<stop  offset="0" style="stop-color:#99A8AE"/>
	<stop  offset="0.2891" style="stop-color:#94A3AA"/>
	<stop  offset="0.6343" style="stop-color:#85969D"/>
	<stop  offset="1" style="stop-color:#6E8088"/>
	<a:midPointStop  offset="0" style="stop-color:#99A8AE"/>
	<a:midPointStop  offset="0.67" style="stop-color:#99A8AE"/>
	<a:midPointStop  offset="1" style="stop-color:#6E8088"/>
</linearGradient>
<path fill="url(#SVGID_11_)" d="M53.047,53.67c-0.717,1.854-2.682,2.729-4.388,1.957c-1.71-0.772-2.514-2.896-1.797-4.749
	c0.716-1.851,2.682-2.729,4.392-1.957C52.962,49.691,53.766,51.818,53.047,53.67z"/>
<linearGradient id="SVGID_12_" gradientUnits="userSpaceOnUse" x1="-53.9976" y1="213.5742" x2="-37.6548" y2="213.5742" gradientTransform="matrix(0.9227 0.3854 -0.3854 0.9227 136.938 -127.6946)">
	<stop  offset="0" style="stop-color:#5B666E"/>
	<stop  offset="0.0934" style="stop-color:#555E67"/>
	<stop  offset="0.448" style="stop-color:#41424F"/>
	<stop  offset="0.7618" style="stop-color:#343240"/>
	<stop  offset="1" style="stop-color:#302C3B"/>
	<a:midPointStop  offset="0" style="stop-color:#5B666E"/>
	<a:midPointStop  offset="0.3515" style="stop-color:#5B666E"/>
	<a:midPointStop  offset="1" style="stop-color:#302C3B"/>
</linearGradient>
<path fill="url(#SVGID_12_)" d="M18.792,48.743c1.723-4.455-11.144-7.39-13.212-2.039c-1.05,2.715-0.215,9.648,1.722,11.198
	c1.995,1.603,10.052,3.085,11.007,0.725C19.263,56.271,17.854,51.168,18.792,48.743z"/>
<linearGradient id="SVGID_13_" gradientUnits="userSpaceOnUse" x1="40.0313" y1="15.1289" x2="61.7383" y2="15.1289">
	<stop  offset="0" style="stop-color:#99A8AE"/>
	<stop  offset="0.2891" style="stop-color:#94A3AA"/>
	<stop  offset="0.6343" style="stop-color:#85969D"/>
	<stop  offset="1" style="stop-color:#6E8088"/>
	<a:midPointStop  offset="0" style="stop-color:#99A8AE"/>
	<a:midPointStop  offset="0.67" style="stop-color:#99A8AE"/>
	<a:midPointStop  offset="1" style="stop-color:#6E8088"/>
</linearGradient>
<path fill="url(#SVGID_13_)" d="M61.53,11.242c-0.118-0.185-7.532-6.032-13.721-7.12c-5.621-0.987-6.428,4.317-6.24,6.156
	c0,0-1.158,1.261-1.452,3.32c-0.842,5.911,4.807,5.983,4.396,8.833c-0.162,1.161-1.696,2.199-0.632,3.826
	c0,0,17.152-8.687,17.857-13.637C61.738,12.621,61.648,11.425,61.53,11.242z"/>
<linearGradient id="SVGID_14_" gradientUnits="userSpaceOnUse" x1="42.9102" y1="26.8145" x2="62" y2="26.8145" gradientTransform="matrix(1 0 0 0.9986 0 0.1541)">
	<stop  offset="0" style="stop-color:#5B666E"/>
	<stop  offset="0.0934" style="stop-color:#555E67"/>
	<stop  offset="0.448" style="stop-color:#41424F"/>
	<stop  offset="0.7618" style="stop-color:#343240"/>
	<stop  offset="1" style="stop-color:#302C3B"/>
	<a:midPointStop  offset="0" style="stop-color:#5B666E"/>
	<a:midPointStop  offset="0.3515" style="stop-color:#5B666E"/>
	<a:midPointStop  offset="1" style="stop-color:#302C3B"/>
</linearGradient>
<path fill="url(#SVGID_14_)" d="M61.738,12.621c-1.54-1.112-8.941-6.303-14.222-7.229c-4.657-0.818-6.391,5.456-1.964,10.733
	c5.268,6.283-0.363,8.593-1.672,10.132c-1.029,2.555-1.53,14.346-0.013,19.903c0,0,4.823,2.044,10.626,2.383
	c0,0,3.149-2.429,5.372-18.006c1.576-11.04,2.026-16.002,2.131-17.325C62.017,12.976,61.918,12.748,61.738,12.621z"/>
<path fill="#4E5E67" d="M41.569,10.278c0,0-1.158,1.261-1.452,3.32c-0.387,2.706,0.587,4.188,1.72,5.272
	c0.991,0.873,3.316,1.843,3.105,3.309c-0.208,1.469-1.25,2.098-0.852,2.917C50.721,19.208,41.308,16.563,41.569,10.278z"/>
<path fill="#302C3B" d="M54.494,48.892c-0.005,0-0.012,0-0.017,0c-5.336-0.301-10.664-2.383-10.718-2.403
	c-0.164-0.067-0.251-0.263-0.19-0.445c0.059-0.185,0.244-0.273,0.404-0.21c0.054,0.019,5.297,2.067,10.536,2.36
	c0.174,0.011,0.31,0.173,0.3,0.367C54.803,48.748,54.661,48.892,54.494,48.892z"/>
</svg>
