<?xml version="1.0" encoding="utf-8"?>
<!-- Generator: Adobe Illustrator 15.0.0, SVG Export Plug-In . SVG Version: 6.00 Build 0)  -->
<!DOCTYPE svg PUBLIC "-//W3C//DTD SVG 1.1//EN" "http://www.w3.org/Graphics/SVG/1.1/DTD/svg11.dtd" [
	<!ENTITY ns_flows "http://ns.adobe.com/Flows/1.0/">
	<!ENTITY ns_extend "http://ns.adobe.com/Extensibility/1.0/">
	<!ENTITY ns_ai "http://ns.adobe.com/AdobeIllustrator/10.0/">
	<!ENTITY ns_graphs "http://ns.adobe.com/Graphs/1.0/">
]>
<svg version="1.1" id="Layer_1" xmlns:x="&ns_extend;" xmlns:i="&ns_ai;" xmlns:graph="&ns_graphs;"
	 xmlns="http://www.w3.org/2000/svg" xmlns:xlink="http://www.w3.org/1999/xlink" xmlns:a="http://ns.adobe.com/AdobeSVGViewerExtensions/3.0/"
	 x="0px" y="0px" width="64px" height="64px" viewBox="0 0 64 64" enable-background="new 0 0 64 64" xml:space="preserve">
<path fill="#E81C27" d="M59.477,57.095C58.832,42.747,52.201,30,43.334,29.863c-1.697-1.637-4.18-1.158-4.18-1.158
	c-4.855-1.977-9.451-1.977-14.308,0c0,0-2.482-0.48-4.182,1.158C11.799,30,5.181,42.747,4.523,57.093
	c-0.135,2.948,7.541,4.117,7.48,4.102h39.993C51.938,61.21,59.609,60.043,59.477,57.095z"/>
<path fill="#850000" d="M48.855,35.779H15.144c0,0-6.618,9.85-3.14,25.415c2.509,0.362,5.495,0.64,8.746,0.806h22.503
	c3.25-0.166,6.236-0.443,8.744-0.806C55.475,45.629,48.855,35.779,48.855,35.779z"/>
<path fill="#A3141B" d="M18.013,30.355c0,0,3.285-0.789,6.748,0.221C21.149,28.645,18.013,30.355,18.013,30.355z"/>
<path fill="#A3141B" d="M23.374,28.672c0,0,2.326,0.066,4.47,1.975C25.948,27.977,23.374,28.672,23.374,28.672z"/>
<path fill="#A3141B" d="M45.986,30.355c0,0-3.283-0.789-6.748,0.221C42.852,28.645,45.986,30.355,45.986,30.355z"/>
<path fill="#A3141B" d="M40.625,28.672c0,0-2.326,0.066-4.471,1.975C38.051,27.977,40.625,28.672,40.625,28.672z"/>
<path fill="#006DAE" d="M60.064,43.846c-1.648-3.443-5.475-6.938-8.064-8.277c-5.785-7.016-16.711-2.197-20-2.197
	c-3.291,0-14.216-4.818-20.001,2.197c-2.59,1.34-6.416,4.834-8.064,8.277c-7.943,6.859,11.141,15.621,11.141,15.621
	c4.932-1.152,2.035-4.287,2.035-4.287c-3.35-1.893-3.34-4.949-6.736-7.986c3.166-0.648,6.441-3.689,6.441-3.689
	c0.871,6.273,4.721,6.977,3.934,18.496H32h11.251c-0.787-11.52,3.061-12.223,3.934-18.496c0,0,3.273,3.041,6.439,3.689
	c-3.395,3.037-3.387,6.094-6.736,7.986c0,0-2.896,3.135,2.035,4.287C48.924,59.467,68.008,50.705,60.064,43.846z"/>
<path fill="#006099" d="M14.95,42.688c3.484,0.986,6.178,9.613,16.878,2.002C22.376,49.424,19.44,42.93,14.95,42.688z"/>
<path fill="#006099" d="M49.049,42.688c-3.484,0.986-6.178,9.613-16.876,2.002C41.625,49.424,44.559,42.93,49.049,42.688z"/>
<path fill="#F5BB51" d="M26.501,30.738c0,3.496,10.999,3.496,10.999,0c0-1.189,0-2.904,0-2.904H26.501
	C26.501,27.834,26.501,29.549,26.501,30.738z"/>
<linearGradient id="SVGID_1_" gradientUnits="userSpaceOnUse" x1="32.0005" y1="61.377" x2="32.0005" y2="54.0537">
	<stop  offset="0" style="stop-color:#FF8800"/>
	<stop  offset="0.2113" style="stop-color:#FFA113"/>
	<stop  offset="0.5427" style="stop-color:#FFC32B"/>
	<stop  offset="0.8176" style="stop-color:#FFD83A"/>
	<stop  offset="1" style="stop-color:#FFDF40"/>
	<a:midPointStop  offset="0" style="stop-color:#FF8800"/>
	<a:midPointStop  offset="0.3818" style="stop-color:#FF8800"/>
	<a:midPointStop  offset="1" style="stop-color:#FFDF40"/>
</linearGradient>
<path fill="url(#SVGID_1_)" d="M44.15,56.49c-0.805-0.807-4.615,0.068-8.439-1.48c-3.046-1.236-4.191-1.313-7.423,0
	c-3.812,1.549-7.611,0.676-8.412,1.48c-0.494,0.498-0.732,2.275,0,2.717c1.17,0.705,4.813-0.125,8.396,1.346
	c2.643,1.086,4.75,1.102,7.423,0.033c3.699-1.48,7.41-0.611,8.455-1.379C44.818,58.717,44.645,56.988,44.15,56.49z"/>
<path fill="#FF9E00" d="M28.749,55.459c-0.152,0.164-0.27,0.338-0.344,0.527c-0.258,0.674-0.385,3.078,0,3.676
	c0.07,0.107,0.16,0.211,0.256,0.309C28.448,58.834,28.549,56.369,28.749,55.459z"/>
<path fill="#FF9E00" d="M24.632,56.01c-0.152,0.123-0.271,0.256-0.344,0.398c-0.26,0.508-0.385,2.328,0,2.779
	c0.07,0.082,0.158,0.158,0.256,0.234C24.331,58.563,24.433,56.697,24.632,56.01z"/>
<path fill="#FF9E00" d="M35.252,55.459c0.15,0.164,0.268,0.338,0.342,0.527c0.26,0.674,0.385,3.078,0,3.676
	c-0.07,0.107-0.158,0.211-0.256,0.309C35.551,58.834,35.449,56.369,35.252,55.459z"/>
<path fill="#FF9E00" d="M39.367,56.01c0.154,0.123,0.271,0.256,0.344,0.398c0.26,0.508,0.385,2.328,0,2.779
	c-0.07,0.082-0.158,0.158-0.256,0.234C39.668,58.563,39.566,56.697,39.367,56.01z"/>
<path fill="#F5BB51" d="M46.959,55.135c-2.152,0.355-2.285-0.867-3.09-0.992c-0.479-0.074-0.822,0.615-0.924,1.646
	c-0.094,0.98-1.234,1.986-3.326,3.201c-1.375,0.799-0.328,2.313,0.939,1.756c0.355,0.787,1.426,0.787,1.426,0.787
	c1.879,1.576,5.35-1.283,6.939-2.068C46.965,57.18,46.959,55.135,46.959,55.135z"/>
<path fill="#F0A429" d="M43.102,59.582c0,0-1.006,0.666-2.543,1.164C41.949,60.061,43.102,59.582,43.102,59.582z"/>
<path fill="#F0A429" d="M44.127,60.836c0,0-0.734,0.697-2.143,0.697C43.102,61.359,44.127,60.836,44.127,60.836z"/>
<path fill="#F5BB51" d="M17.04,55.135c2.182,0.361,2.287-0.859,3.09-0.992c0.479-0.078,0.824,0.615,0.924,1.646
	c0.096,0.98,1.236,1.986,3.326,3.201c1.377,0.799,0.33,2.313-0.939,1.756c-0.355,0.787-1.426,0.787-1.426,0.787
	c-1.879,1.576-5.35-1.283-6.939-2.068C17.034,57.18,17.04,55.135,17.04,55.135z"/>
<path fill="#F0A429" d="M20.897,59.582c0,0,1.006,0.666,2.543,1.164C22.05,60.061,20.897,59.582,20.897,59.582z"/>
<path fill="#F0A429" d="M19.872,60.836c0,0,0.734,0.697,2.143,0.697C20.897,61.359,19.872,60.836,19.872,60.836z"/>
<linearGradient id="SVGID_2_" gradientUnits="userSpaceOnUse" x1="31.9995" y1="50.8184" x2="31.9995" y2="36.8164">
	<stop  offset="0" style="stop-color:#FFF047"/>
	<stop  offset="0.2683" style="stop-color:#FFEF66"/>
	<stop  offset="0.5369" style="stop-color:#FFEF7E"/>
	<stop  offset="0.7875" style="stop-color:#FFEE8C"/>
	<stop  offset="1" style="stop-color:#FFEE91"/>
	<a:midPointStop  offset="0" style="stop-color:#FFF047"/>
	<a:midPointStop  offset="0.3273" style="stop-color:#FFF047"/>
	<a:midPointStop  offset="1" style="stop-color:#FFEE91"/>
</linearGradient>
<path fill="url(#SVGID_2_)" d="M32,36.816c-3.861,0-7,3.141-7,7.002c0,3.859,3.138,7,7,7c3.859,0,6.998-3.141,6.998-7
	C38.998,39.957,35.859,36.816,32,36.816L32,36.816z"/>
<g id="Shape_9_">
	<g>
		<linearGradient id="SVGID_3_" gradientUnits="userSpaceOnUse" x1="32.0005" y1="50.3809" x2="32.0005" y2="37.2539">
			<stop  offset="0" style="stop-color:#E81C27"/>
			<stop  offset="0.157" style="stop-color:#EA2324"/>
			<stop  offset="0.3936" style="stop-color:#EE381D"/>
			<stop  offset="0.6805" style="stop-color:#F55A11"/>
			<stop  offset="1" style="stop-color:#FF8800"/>
			<a:midPointStop  offset="0" style="stop-color:#E81C27"/>
			<a:midPointStop  offset="0.6182" style="stop-color:#E81C27"/>
			<a:midPointStop  offset="1" style="stop-color:#FF8800"/>
		</linearGradient>
		<path fill="url(#SVGID_3_)" d="M32,38.895c2.712,0,4.921,2.209,4.921,4.924c0,2.713-2.209,4.922-4.921,4.922
			c-2.713,0-4.924-2.209-4.924-4.922C27.077,41.104,29.288,38.895,32,38.895z M32,37.254c-3.623,0-6.562,2.939-6.562,6.564
			c0,3.623,2.939,6.563,6.562,6.563c3.623,0,6.562-2.939,6.562-6.563C38.563,40.193,35.623,37.254,32,37.254z"/>
	</g>
</g>
<linearGradient id="Combined-Shape_1_" gradientUnits="userSpaceOnUse" x1="32.4956" y1="47.5918" x2="32.4956" y2="43.1602">
	<stop  offset="0" style="stop-color:#E81C27"/>
	<stop  offset="0.157" style="stop-color:#EA2324"/>
	<stop  offset="0.3936" style="stop-color:#EE381D"/>
	<stop  offset="0.6805" style="stop-color:#F55A11"/>
	<stop  offset="1" style="stop-color:#FF8800"/>
	<a:midPointStop  offset="0" style="stop-color:#E81C27"/>
	<a:midPointStop  offset="0.6182" style="stop-color:#E81C27"/>
	<a:midPointStop  offset="1" style="stop-color:#FF8800"/>
</linearGradient>
<path id="Combined-Shape_6_" fill="url(#Combined-Shape_1_)" d="M33.313,44.475c-0.219,0-0.33-0.109-0.33-0.328V43.49
	c0-0.221,0.111-0.33,0.33-0.33h2.131c0.223,0,0.332,0.109,0.332,0.33v0.328c0,2.084-1.689,3.773-3.775,3.773
	c-1.014,0-1.965-0.402-2.668-1.105c-0.156-0.156-0.156-0.307-0.002-0.465l0.701-0.695c0.152-0.154,0.307-0.154,0.461,0
	c0.398,0.398,0.936,0.625,1.508,0.625c0.947,0,1.751-0.617,2.031-1.477H33.313z"/>
<path id="Path_135_" fill="#FFC940" d="M43.223,15.26c-1.738,0.211-2.992,6.029-1.9,7.564c0.154,0.215,1.049,0.557,1.713-0.799
	c0.367-0.75,1.428-1.375,1.758-2.924C45.213,17.119,44.951,15.051,43.223,15.26z"/>
<path id="Path_134_" fill="#FFC940" d="M20.778,15.26c1.736,0.211,2.992,6.029,1.898,7.564c-0.152,0.215-1.049,0.557-1.713-0.799
	c-0.367-0.75-1.428-1.375-1.756-2.924C18.786,17.119,19.05,15.051,20.778,15.26z"/>
<path id="Path_133_" fill="#F0A429" d="M43.176,16.377c-0.453,0.143-0.947,0.832-1.217,1.98c1.584-0.34,1.189,2.299-0.188,2.348
	c0.012,0.266,0.029,0.539,0.063,0.826c0.664-0.963,1.338-0.576,2.004-2.01C44.441,18.229,44.297,16.023,43.176,16.377z"/>
<path id="Path_132_" fill="#F0A429" d="M22.04,18.354c-0.268-1.145-0.762-1.836-1.215-1.977c-1.123-0.354-1.266,1.852-0.664,3.145
	c0.668,1.434,1.342,1.047,2.006,2.01c0.033-0.287,0.051-0.561,0.063-0.826C20.866,20.641,20.476,18.033,22.04,18.354z"/>
<path id="Path_131_" fill="#FFC940" d="M32,4.074c-7.527,0-11.154,5.695-10.701,13.615c0.092,1.592,1.078,6.789,2.012,8.654
	c0.955,1.908,4.144,4.848,6.101,5.457c1.236,0.385,3.939,0.385,5.175,0c1.955-0.609,5.146-3.549,6.102-5.457
	c0.934-1.865,1.92-7.061,2.01-8.654C43.154,9.77,39.529,4.074,32,4.074z"/>
<path id="Path_130_" fill="#966F42" d="M40.178,14.68c-1.721-0.912-5.016-0.955-6.244-0.32c-0.262,0.123-0.088,0.986,0.133,0.904
	c1.711-0.676,4.469-0.691,6.07,0.057C40.35,15.418,40.439,14.807,40.178,14.68z"/>
<path id="Path_129_" fill="#966F42" d="M23.821,14.68c1.723-0.912,5.015-0.955,6.244-0.32c0.262,0.123,0.088,0.986-0.133,0.904
	c-1.713-0.676-4.466-0.691-6.07,0.057C23.649,15.418,23.562,14.807,23.821,14.68z"/>
<path id="Path_128_" fill="#F0A429" d="M34.031,22.588C33.816,22.439,33.311,22.67,32,22.67c-1.313,0-1.816-0.23-2.033-0.082
	c-0.256,0.182,0.154,1,2.033,1C33.879,23.588,34.289,22.77,34.031,22.588z"/>
<path id="Path_127_" fill="#F0A429" d="M32,25.691c-1.693-0.498-4.203,0.236-4.203,0.236c0.955,1.041,1.656,2.391,4.203,2.391
	c2.916,0,3.412-1.533,4.201-2.391C36.201,25.928,33.691,25.189,32,25.691z"/>
<path id="Path_126_" fill="#FFFFFF" d="M28.428,26.104c1.775,1.488,5.359,1.5,7.144,0C33.68,26.184,30.333,26.186,28.428,26.104z"/>
<path fill="#7A6056" d="M41.613,5.961C39.967,3.732,36.951,2,32,2c-4.951,0-7.966,1.732-9.613,3.961
	C20.054,9.119,43.945,9.119,41.613,5.961z"/>
<linearGradient id="SVGID_4_" gradientUnits="userSpaceOnUse" x1="32.0005" y1="19.6367" x2="32.0005" y2="5.0171">
	<stop  offset="0.5" style="stop-color:#473834"/>
	<stop  offset="0.6387" style="stop-color:#503F3A"/>
	<stop  offset="0.8641" style="stop-color:#68524A"/>
	<stop  offset="1" style="stop-color:#7A6056"/>
	<a:midPointStop  offset="0.5" style="stop-color:#473834"/>
	<a:midPointStop  offset="0.6" style="stop-color:#473834"/>
	<a:midPointStop  offset="1" style="stop-color:#7A6056"/>
</linearGradient>
<path fill="url(#SVGID_4_)" d="M41.613,5.961C39.967,3.732,36.951,6.15,32,6.15c-4.951,0-7.966-2.418-9.613-0.189
	c-2.334,3.158-1.541,13.676-0.504,13.676c0.166,0,0.189-3.68,0.504-6.225c0.254-2.072,0.746-4.082,1.313-4.41
	C25.429,8,28.76,9.434,32,9.434c3.238,0,6.572-1.434,8.3-0.432c0.564,0.328,1.057,2.338,1.313,4.41
	c0.314,2.545,0.338,6.225,0.504,6.225C43.154,19.637,43.945,9.119,41.613,5.961z"/>
<path fill="#E81C27" d="M32.018,15.697c-2.746,0.002-8.314-4.523-10.937,0.977c1.143,10.52,8.134,2.352,10.937,2.355
	c2.796,0.004,9.853,8.26,10.9-2.355C40.295,11.172,34.756,15.695,32.018,15.697z"/>
<path id="Path_124_" fill="#FFFFFF" d="M30.327,17.902c0.063,0.496-0.273,1.088-1.211,1.531c-0.594,0.283-1.834,0.613-3.458-0.072
	c-0.729-0.309-1.439-1.262-1.375-1.793C25.165,15.908,29.5,15.664,30.327,17.902z"/>
<linearGradient id="Oval_1_" gradientUnits="userSpaceOnUse" x1="-424.2549" y1="479.2861" x2="-424.2549" y2="479.8037" gradientTransform="matrix(6.5701 0 0 -6.5701 2814.7805 3168.5281)">
	<stop  offset="0" style="stop-color:#A6694A"/>
	<stop  offset="1" style="stop-color:#4F2A1E"/>
	<a:midPointStop  offset="0" style="stop-color:#A6694A"/>
	<a:midPointStop  offset="0.5" style="stop-color:#A6694A"/>
	<a:midPointStop  offset="1" style="stop-color:#4F2A1E"/>
</linearGradient>
<path id="Oval_18_" fill="url(#Oval_1_)" d="M27.381,16.164c0.943,0,1.705,0.764,1.705,1.703c0,0.941-0.762,1.703-1.705,1.703
	c-0.937,0-1.703-0.762-1.703-1.703C25.679,16.928,26.444,16.164,27.381,16.164z"/>
<path id="Path_123_" fill="#1A1626" d="M26.53,17.836c0,1.182,1.707,1.182,1.707,0C28.237,16.742,26.53,16.742,26.53,17.836z"/>
<path id="Path_122_" fill="#AB968C" d="M26.274,17.361c0,0.494,0.712,0.494,0.712,0C26.987,16.904,26.274,16.904,26.274,17.361z"/>
<path id="Path_121_" fill="#A3141B" d="M30.334,17.969c-0.691-2.227-5.41-1.898-6.052-0.4
	C24.522,15.652,29.745,15.148,30.334,17.969z"/>
<path id="Path_120_" fill="#FFFFFF" d="M33.676,17.902c-0.064,0.496,0.273,1.088,1.211,1.531c0.594,0.283,1.83,0.613,3.457-0.072
	c0.727-0.309,1.438-1.262,1.373-1.793C38.838,15.908,34.5,15.664,33.676,17.902z"/>
<linearGradient id="Oval_2_" gradientUnits="userSpaceOnUse" x1="-425.5542" y1="479.2861" x2="-425.5542" y2="479.8037" gradientTransform="matrix(6.5701 0 0 -6.5701 2832.511 3168.5281)">
	<stop  offset="0" style="stop-color:#A6694A"/>
	<stop  offset="1" style="stop-color:#4F2A1E"/>
	<a:midPointStop  offset="0" style="stop-color:#A6694A"/>
	<a:midPointStop  offset="0.5" style="stop-color:#A6694A"/>
	<a:midPointStop  offset="1" style="stop-color:#4F2A1E"/>
</linearGradient>
<circle id="Oval_17_" fill="url(#Oval_2_)" cx="36.58" cy="17.867" r="1.703"/>
<path id="Path_114_" fill="#1A1626" d="M35.727,17.836c0,1.182,1.705,1.182,1.705,0C37.432,16.742,35.727,16.742,35.727,17.836z"/>
<path id="Path_113_" fill="#AB968C" d="M35.469,17.361c0,0.494,0.713,0.494,0.713,0C36.182,16.904,35.469,16.904,35.469,17.361z"/>
<path id="Path_112_" fill="#A3141B" d="M33.666,17.969c0.693-2.223,5.404-1.904,6.051-0.4
	C39.477,15.652,34.256,15.148,33.666,17.969z"/>
</svg>
