<?xml version="1.0" encoding="utf-8"?>
<!-- Generator: Adobe Illustrator 15.0.0, SVG Export Plug-In . SVG Version: 6.00 Build 0)  -->
<!DOCTYPE svg PUBLIC "-//W3C//DTD SVG 1.1//EN" "http://www.w3.org/Graphics/SVG/1.1/DTD/svg11.dtd" [
	<!ENTITY ns_flows "http://ns.adobe.com/Flows/1.0/">
	<!ENTITY ns_extend "http://ns.adobe.com/Extensibility/1.0/">
	<!ENTITY ns_ai "http://ns.adobe.com/AdobeIllustrator/10.0/">
	<!ENTITY ns_graphs "http://ns.adobe.com/Graphs/1.0/">
]>
<svg version="1.1" id="Layer_1" xmlns:x="&ns_extend;" xmlns:i="&ns_ai;" xmlns:graph="&ns_graphs;"
	 xmlns="http://www.w3.org/2000/svg" xmlns:xlink="http://www.w3.org/1999/xlink" xmlns:a="http://ns.adobe.com/AdobeSVGViewerExtensions/3.0/"
	 x="0px" y="0px" width="64px" height="64px" viewBox="0 0 64 64" enable-background="new 0 0 64 64" xml:space="preserve">
<path fill="#7A3B0F" d="M45.554,54.643c-0.868,2.471-0.827,4.646-0.827,4.646c-1.68-0.049-3.122-0.432-4.19-0.822
	c-0.059,1.318-0.723,2.344-0.723,2.344c-0.676-0.311-1.063-0.607-1.268-0.881c-0.61,1.086-1.467,1.73-1.467,1.73
	c-0.321-1.047-1.409-2.375-3.061-3.439L45.554,54.643z"/>
<path fill="#A6561C" d="M18.236,5.646C18.92,6,19.798,8.904,20.663,8.673c-1.496-1.686-1.013-4.521-1.013-4.521
	c0.349,0.427,2.237,2.104,2.386,2.404C22.011,5.616,21.962,4,21.962,4c0.771,2.13,3.965,6.321,6.01,7.294l-9.12,3.336
	C17.915,11.125,18.236,5.646,18.236,5.646z"/>
<radialGradient id="SVGID_1_" cx="214.3574" cy="40.5625" r="7.1621" gradientTransform="matrix(0.9073 -0.3319 0.6327 1.7474 -198.4244 9.9486)" gradientUnits="userSpaceOnUse">
	<stop  offset="0" style="stop-color:#FFC042"/>
	<stop  offset="0.2705" style="stop-color:#F5AE3D"/>
	<stop  offset="0.8099" style="stop-color:#D9802E"/>
	<stop  offset="1" style="stop-color:#CF6E29"/>
	<a:midPointStop  offset="0" style="stop-color:#FFC042"/>
	<a:midPointStop  offset="0.5515" style="stop-color:#FFC042"/>
	<a:midPointStop  offset="1" style="stop-color:#CF6E29"/>
</radialGradient>
<path fill="url(#SVGID_1_)" d="M23.254,4.054c-0.867,2.034,0.453,3.826,0.068,5.384c-1.306-0.774-2.835-4.85-2.835-4.85
	c-0.088,0.586-1.18,3.615,0.059,6.33c-2.259,0.042-3.09-3.804-3.09-3.804c-1.062,4.322,0.927,6.084-2.698,10.668l17.412-6.641
	C24.375,11.729,25.69,7.292,23.254,4.054z"/>
<path fill="#A6561C" d="M31.158,59.379c2.62,1.115,3.96,2.621,3.96,2.621c1.988-1.117,3.479-2.307,4.513-3.262
	c0.913,0.857,2.366,1.129,2.366,1.129c0.615-0.65,0.889-1.102,0.961-1.418c1.428,0.344,2.868,0.23,2.868,0.23
	c-0.282-0.92,0.18-2.523,1.485-4.313L31.158,59.379z"/>
<radialGradient id="SVGID_2_" cx="212.7256" cy="69.1924" r="32.8958" gradientTransform="matrix(0.9073 -0.3319 0.3195 0.8825 -188.2675 38.9166)" gradientUnits="userSpaceOnUse">
	<stop  offset="0" style="stop-color:#FFD073"/>
	<stop  offset="0.1782" style="stop-color:#FCCB6F"/>
	<stop  offset="0.3943" style="stop-color:#F5BC64"/>
	<stop  offset="0.63" style="stop-color:#E9A451"/>
	<stop  offset="0.8782" style="stop-color:#D98238"/>
	<stop  offset="1" style="stop-color:#CF6E29"/>
	<a:midPointStop  offset="0" style="stop-color:#FFD073"/>
	<a:midPointStop  offset="0.6667" style="stop-color:#FFD073"/>
	<a:midPointStop  offset="1" style="stop-color:#CF6E29"/>
</radialGradient>
<path fill="url(#SVGID_2_)" d="M59.429,30.753c3.146,13.305-7.155,22.792-19.922,27.461c-12.765,4.67-26.723,4.061-32.823-8.166
	c-7.836-15.709,2.654-32.151,16.402-37.18C36.834,7.839,55.386,13.658,59.429,30.753z"/>
<radialGradient id="SVGID_3_" cx="207.8545" cy="69.1895" r="19.5565" gradientTransform="matrix(0.7433 -0.6137 0.4274 0.501 -161.6435 123.887)" gradientUnits="userSpaceOnUse">
	<stop  offset="0" style="stop-color:#FDEB99;stop-opacity:0.9"/>
	<stop  offset="1" style="stop-color:#FDEB99;stop-opacity:0"/>
	<a:midPointStop  offset="0" style="stop-color:#FDEB99;stop-opacity:0.9"/>
	<a:midPointStop  offset="0.4485" style="stop-color:#FDEB99;stop-opacity:0.9"/>
	<a:midPointStop  offset="1" style="stop-color:#FDEB99;stop-opacity:0"/>
</radialGradient>
<path fill="url(#SVGID_3_)" d="M11.949,21.45C-2.915,35.705,7.618,61.998,34.251,38.766C55.248,20.443,30.302,3.848,11.949,21.45z"
	/>
<radialGradient id="SVGID_4_" cx="224.5107" cy="92.0889" r="14.1222" gradientTransform="matrix(-0.7322 0.6266 -0.3744 -0.4227 243.71 -56.0732)" gradientUnits="userSpaceOnUse">
	<stop  offset="0" style="stop-color:#FDEB99;stop-opacity:0.9"/>
	<stop  offset="1" style="stop-color:#FDEB99;stop-opacity:0"/>
	<a:midPointStop  offset="0" style="stop-color:#FDEB99;stop-opacity:0.9"/>
	<a:midPointStop  offset="0.4485" style="stop-color:#FDEB99;stop-opacity:0.9"/>
	<a:midPointStop  offset="1" style="stop-color:#FDEB99;stop-opacity:0"/>
</radialGradient>
<path opacity="0.7" fill="url(#SVGID_4_)" d="M36.577,40.453c-19.14,15.605,0.908,28.105,18.681,5.527
	C60.094,39.832,58.743,22.384,36.577,40.453z"/>
<linearGradient id="SVGID_5_" gradientUnits="userSpaceOnUse" x1="-376.9243" y1="231.2285" x2="-376.9243" y2="298.4678" gradientTransform="matrix(0.9397 -0.342 -0.342 -0.9397 476.1348 155.6804)">
	<stop  offset="0" style="stop-color:#A34B2F"/>
	<stop  offset="1" style="stop-color:#A34B2F;stop-opacity:0"/>
	<a:midPointStop  offset="0" style="stop-color:#A34B2F"/>
	<a:midPointStop  offset="0.5" style="stop-color:#A34B2F"/>
	<a:midPointStop  offset="1" style="stop-color:#A34B2F;stop-opacity:0"/>
</linearGradient>
<path opacity="0.6" fill="url(#SVGID_5_)" enable-background="new    " d="M23.65,14.633c3.951,14.458,9.041,28.07,15.369,42.794
	C35.009,41.752,27.471,21.424,23.65,14.633z"/>
<linearGradient id="SVGID_6_" gradientUnits="userSpaceOnUse" x1="-363.1382" y1="231.2451" x2="-363.1382" y2="298.4883" gradientTransform="matrix(0.9397 -0.342 -0.342 -0.9397 476.1348 155.6804)">
	<stop  offset="0" style="stop-color:#A34B2F"/>
	<stop  offset="1" style="stop-color:#A34B2F;stop-opacity:0"/>
	<a:midPointStop  offset="0" style="stop-color:#A34B2F"/>
	<a:midPointStop  offset="0.5" style="stop-color:#A34B2F"/>
	<a:midPointStop  offset="1" style="stop-color:#A34B2F;stop-opacity:0"/>
</linearGradient>
<path opacity="0.6" fill="url(#SVGID_6_)" enable-background="new    " d="M33.865,11.863c11.382,9.841,17.847,25.942,14.475,41.186
	C53.345,39.357,48.296,22.283,33.865,11.863z"/>
<linearGradient id="SVGID_7_" gradientUnits="userSpaceOnUse" x1="-369.6895" y1="231.2354" x2="-369.6895" y2="298.4783" gradientTransform="matrix(0.9397 -0.342 -0.342 -0.9397 476.1348 155.6804)">
	<stop  offset="0" style="stop-color:#A34B2F"/>
	<stop  offset="1" style="stop-color:#A34B2F;stop-opacity:0"/>
	<a:midPointStop  offset="0" style="stop-color:#A34B2F"/>
	<a:midPointStop  offset="0.5" style="stop-color:#A34B2F"/>
	<a:midPointStop  offset="1" style="stop-color:#A34B2F;stop-opacity:0"/>
</linearGradient>
<path opacity="0.6" fill="url(#SVGID_7_)" enable-background="new    " d="M28.703,13.75c8.927,11.601,13.81,26.55,14.802,41.066
	C44.356,40.236,39.938,25.367,28.703,13.75z"/>
<linearGradient id="SVGID_8_" gradientUnits="userSpaceOnUse" x1="-355.644" y1="231.2588" x2="-355.644" y2="298.4983" gradientTransform="matrix(0.9397 -0.342 -0.342 -0.9397 476.1348 155.6804)">
	<stop  offset="0" style="stop-color:#A34B2F"/>
	<stop  offset="1" style="stop-color:#A34B2F;stop-opacity:0"/>
	<a:midPointStop  offset="0" style="stop-color:#A34B2F"/>
	<a:midPointStop  offset="0.5" style="stop-color:#A34B2F"/>
	<a:midPointStop  offset="1" style="stop-color:#A34B2F;stop-opacity:0"/>
</linearGradient>
<path opacity="0.6" fill="url(#SVGID_8_)" enable-background="new    " d="M43.321,14.214c8.575,8.013,12.021,19.301,11.073,30.809
	C57.47,33.197,54.538,21.904,43.321,14.214z"/>
<linearGradient id="SVGID_9_" gradientUnits="userSpaceOnUse" x1="-390.7173" y1="231.2139" x2="-390.7173" y2="298.4538" gradientTransform="matrix(0.9397 -0.342 -0.342 -0.9397 476.1348 155.6804)">
	<stop  offset="0" style="stop-color:#A34B2F"/>
	<stop  offset="1" style="stop-color:#A34B2F;stop-opacity:0"/>
	<a:midPointStop  offset="0" style="stop-color:#A34B2F"/>
	<a:midPointStop  offset="0.5" style="stop-color:#A34B2F"/>
	<a:midPointStop  offset="1" style="stop-color:#A34B2F;stop-opacity:0"/>
</linearGradient>
<path opacity="0.6" fill="url(#SVGID_9_)" enable-background="new    " d="M29.048,60.104
	c-11.381-9.842-17.845-25.941-14.472-41.185C9.569,32.61,14.617,49.684,29.048,60.104z"/>
<linearGradient id="SVGID_10_" gradientUnits="userSpaceOnUse" x1="-384.1655" y1="231.2207" x2="-384.1655" y2="298.4593" gradientTransform="matrix(0.9397 -0.342 -0.342 -0.9397 476.1348 155.6804)">
	<stop  offset="0" style="stop-color:#A34B2F"/>
	<stop  offset="1" style="stop-color:#A34B2F;stop-opacity:0"/>
	<a:midPointStop  offset="0" style="stop-color:#A34B2F"/>
	<a:midPointStop  offset="0.5" style="stop-color:#A34B2F"/>
	<a:midPointStop  offset="1" style="stop-color:#A34B2F;stop-opacity:0"/>
</linearGradient>
<path opacity="0.6" fill="url(#SVGID_10_)" enable-background="new    " d="M34.212,58.217
	c-8.929-11.604-13.811-26.552-14.801-41.065C18.555,31.729,22.977,46.598,34.212,58.217z"/>
<linearGradient id="SVGID_11_" gradientUnits="userSpaceOnUse" x1="-398.21" y1="231.1992" x2="-398.21" y2="298.4388" gradientTransform="matrix(0.9397 -0.342 -0.342 -0.9397 476.1348 155.6804)">
	<stop  offset="0" style="stop-color:#A34B2F"/>
	<stop  offset="1" style="stop-color:#A34B2F;stop-opacity:0"/>
	<a:midPointStop  offset="0" style="stop-color:#A34B2F"/>
	<a:midPointStop  offset="0.5" style="stop-color:#A34B2F"/>
	<a:midPointStop  offset="1" style="stop-color:#A34B2F;stop-opacity:0"/>
</linearGradient>
<path opacity="0.6" fill="url(#SVGID_11_)" enable-background="new    " d="M19.592,57.754C11.019,49.736,7.568,38.447,8.522,26.943
	C5.444,38.77,8.376,50.061,19.592,57.754z"/>
</svg>
