<?xml version="1.0" encoding="utf-8"?>
<!-- Generator: Adobe Illustrator 15.0.0, SVG Export Plug-In . SVG Version: 6.00 Build 0)  -->
<!DOCTYPE svg PUBLIC "-//W3C//DTD SVG 1.1//EN" "http://www.w3.org/Graphics/SVG/1.1/DTD/svg11.dtd" [
	<!ENTITY ns_flows "http://ns.adobe.com/Flows/1.0/">
	<!ENTITY ns_extend "http://ns.adobe.com/Extensibility/1.0/">
	<!ENTITY ns_ai "http://ns.adobe.com/AdobeIllustrator/10.0/">
	<!ENTITY ns_graphs "http://ns.adobe.com/Graphs/1.0/">
]>
<svg version="1.1" id="Layer_1" xmlns:x="&ns_extend;" xmlns:i="&ns_ai;" xmlns:graph="&ns_graphs;"
	 xmlns="http://www.w3.org/2000/svg" xmlns:xlink="http://www.w3.org/1999/xlink" xmlns:a="http://ns.adobe.com/AdobeSVGViewerExtensions/3.0/"
	 x="0px" y="0px" width="64px" height="64px" viewBox="0 0 64 64" enable-background="new 0 0 64 64" xml:space="preserve">
<path fill="#B85800" d="M43.213,37.925c1.082,0.718,2.33,1.253,3.787,1.527c-2.586-5.912,1.314-18.312-6.682-27.42
	C29.049,12.369,27.49,48.9,43.201,44.043c-1-0.436-1.629-1.321-1.996-2.439c1.211,0.348,2.627,0.359,4.275-0.149
	C44.168,40.886,43.5,39.546,43.213,37.925z"/>
<path fill="#B85800" d="M14.922,12.032C6.926,21.141,11.588,33.54,9,39.452c1.457-0.274,2.707-0.81,3.789-1.527
	c-0.289,1.621-0.957,2.961-2.27,3.529c1.648,0.509,3.063,0.497,4.273,0.149c-0.367,1.118-0.992,2.004-1.992,2.439
	C28.51,48.9,26.193,12.369,14.922,12.032z"/>
<path fill="#302C3B" d="M7.432,52.718c2.502-1.289,12.756-4.709,12.756-4.709l15.625-0.029c0,0,10.326,3.441,12.813,4.734
	C52.24,54.587,53,57.144,53,59.56c0,3.254-50,3.254-50,0C3,57.14,3.807,54.583,7.432,52.718z"/>
<path fill="#D9B18D" d="M19.663,49.946c0,3.332,8.337,10.838,8.337,10.838s8.338-7.506,8.338-10.838v-8.035H19.663V49.946z"/>
<path fill="#4E5E67" d="M35.227,42.896c2.385,6.086-1.027,9.057-7.227,17.889v1.215c0,0,8.631-12.807,20.215-10.744
	C40.522,41.56,35.227,42.896,35.227,42.896z"/>
<path fill="#4E5E67" d="M20.775,42.896c0,0-5.296-1.336-12.99,8.359C19.37,49.192,28,61.999,28,61.999v-1.215
	C21.801,51.952,18.389,48.981,20.775,42.896z"/>
<path fill="#FF7A00" d="M35.816,43.116C35.615,52.188,31.523,53.782,28,60.784c0,0,7.894-11.803,18.555-10.404
	C40.712,43.351,35.816,43.116,35.816,43.116z"/>
<path fill="#FF7A00" d="M9.447,50.38C20.106,48.981,28,60.784,28,60.784c-3.523-7.002-7.615-8.596-7.816-17.668
	C20.184,43.116,15.29,43.351,9.447,50.38z"/>
<path id="Path_881_" fill="#EBC199" d="M44.443,23.479c-2.547,0.31-4.383,8.852-2.783,11.104c0.225,0.316,1.535,0.818,2.508-1.171
	c0.539-1.102,2.094-2.021,2.574-4.294C47.359,26.206,46.977,23.171,44.443,23.479z"/>
<path id="Path_880_" fill="#EBC199" d="M11.559,23.479c2.547,0.31,4.385,8.852,2.783,11.104c-0.225,0.316-1.537,0.818-2.508-1.171
	c-0.539-1.102-2.094-2.021-2.574-4.294C8.643,26.206,9.027,23.171,11.559,23.479z"/>
<path id="Path_879_" fill="#C99B71" d="M44.373,25.116c-0.664,0.209-1.389,1.225-1.781,2.907c2.322-0.5,1.742,3.376-0.275,3.45
	c0.018,0.389,0.045,0.79,0.092,1.212c0.973-1.415,1.959-0.848,2.938-2.952C46.227,27.836,46.018,24.598,44.373,25.116z"/>
<path id="Path_878_" fill="#C99B71" d="M13.41,28.02c-0.395-1.68-1.117-2.696-1.781-2.903c-1.645-0.519-1.855,2.72-0.975,4.617
	c0.979,2.104,1.967,1.537,2.939,2.952c0.049-0.423,0.074-0.824,0.092-1.214C11.688,31.375,11.117,27.549,13.41,28.02z"/>
<path fill="#EBC199" d="M28,7.055c-11.029,0-16.342,9.001-15.678,20.575c0.137,2.327,0.783,5.684,1.58,8.56
	C15.557,42.166,24.283,48.185,28,48.185s12.443-6.019,14.1-11.995c0.797-2.876,1.441-6.232,1.578-8.56
	C44.342,16.056,39.031,7.055,28,7.055z"/>
<path id="Path_877_" fill="#A17C5B" d="M39.982,22.625c-2.521-1.338-7.35-1.403-9.146-0.471c-0.387,0.18-0.131,1.449,0.193,1.328
	c2.504-0.993,6.547-1.016,8.893,0.085C40.234,23.71,40.365,22.812,39.982,22.625z"/>
<path id="Path_876_" fill="#A17C5B" d="M16.02,22.625c2.521-1.338,7.346-1.403,9.146-0.471c0.383,0.18,0.131,1.449-0.193,1.328
	c-2.51-0.993-6.547-1.016-8.895,0.085C15.766,23.71,15.637,22.812,16.02,22.625z"/>
<path id="Path_875_" fill="#C99B71" d="M30.977,34.237c-0.314-0.221-1.053,0.118-2.977,0.118c-1.92,0-2.66-0.339-2.977-0.118
	c-0.375,0.266,0.225,1.468,2.977,1.468C30.754,35.705,31.355,34.503,30.977,34.237z"/>
<path id="Path_874_" fill="#C99B71" d="M28,38.793c-2.48-0.73-6.156,0.346-6.156,0.346c1.4,1.529,2.426,3.511,6.156,3.511
	c4.273,0,5.002-2.25,6.158-3.511C34.158,39.139,30.48,38.059,28,38.793z"/>
<path id="Path_873_" fill="#FFFFFF" d="M22.768,39.397c2.602,2.187,7.852,2.202,10.467,0C30.463,39.518,25.559,39.519,22.768,39.397
	z"/>
<path id="Path_872_" fill="#FFFFFF" d="M25.547,27.187c0.094,0.731-0.402,1.601-1.773,2.249c-0.873,0.414-2.684,0.9-5.066-0.106
	c-1.066-0.45-2.107-1.856-2.014-2.633C17.984,24.257,24.338,23.899,25.547,27.187z"/>
<linearGradient id="Oval_1_" gradientUnits="userSpaceOnUse" x1="-425.1909" y1="477.7529" x2="-425.1909" y2="478.5146" gradientTransform="matrix(6.5701 0 0 -6.5701 2814.7805 3168.5281)">
	<stop  offset="0" style="stop-color:#A6694A"/>
	<stop  offset="1" style="stop-color:#4F2A1E"/>
	<a:midPointStop  offset="0" style="stop-color:#A6694A"/>
	<a:midPointStop  offset="0.5" style="stop-color:#A6694A"/>
	<a:midPointStop  offset="1" style="stop-color:#4F2A1E"/>
</linearGradient>
<circle id="Oval_100_" fill="url(#Oval_1_)" cx="21.234" cy="27.138" r="2.502"/>
<path id="Path_871_" fill="#1A1626" d="M19.988,27.092c0,1.731,2.496,1.731,2.496,0C22.484,25.484,19.988,25.484,19.988,27.092z"/>
<path id="Path_870_" fill="#AB968C" d="M19.607,26.391c0,0.727,1.047,0.727,1.047,0C20.654,25.718,19.607,25.718,19.607,26.391z"/>
<path id="Path_869_" fill="#C99B71" d="M25.559,27.283c-1.014-3.266-7.924-2.783-8.865-0.587
	C17.041,23.885,24.695,23.142,25.559,27.283z"/>
<path id="Path_868_" fill="#FFFFFF" d="M30.455,27.187c-0.096,0.731,0.4,1.601,1.773,2.249c0.871,0.414,2.684,0.9,5.064-0.106
	c1.07-0.45,2.109-1.856,2.016-2.633C38.02,24.257,31.662,23.899,30.455,27.187z"/>
<linearGradient id="Oval_2_" gradientUnits="userSpaceOnUse" x1="-425.8384" y1="477.7529" x2="-425.8384" y2="478.5146" gradientTransform="matrix(6.5701 0 0 -6.5701 2832.511 3168.5281)">
	<stop  offset="0" style="stop-color:#A6694A"/>
	<stop  offset="1" style="stop-color:#4F2A1E"/>
	<a:midPointStop  offset="0" style="stop-color:#A6694A"/>
	<a:midPointStop  offset="0.5" style="stop-color:#A6694A"/>
	<a:midPointStop  offset="1" style="stop-color:#4F2A1E"/>
</linearGradient>
<ellipse id="Oval_99_" fill="url(#Oval_2_)" cx="34.711" cy="27.138" rx="2.496" ry="2.502"/>
<path id="Path_867_" fill="#1A1626" d="M33.463,27.092c0,1.731,2.496,1.731,2.496,0C35.959,25.484,33.463,25.484,33.463,27.092z"/>
<path id="Path_866_" fill="#AB968C" d="M33.084,26.391c0,0.727,1.045,0.727,1.045,0C34.129,25.718,33.084,25.718,33.084,26.391z"/>
<path id="Path_865_" fill="#C99B71" d="M30.443,27.283c1.012-3.264,7.92-2.797,8.865-0.587
	C38.959,23.885,31.307,23.142,30.443,27.283z"/>
<linearGradient id="SVGID_1_" gradientUnits="userSpaceOnUse" x1="27.9219" y1="29.1411" x2="27.6622" y2="1.07">
	<stop  offset="0" style="stop-color:#9E440F"/>
	<stop  offset="0.1113" style="stop-color:#B85918"/>
	<stop  offset="0.2636" style="stop-color:#D67121"/>
	<stop  offset="0.4143" style="stop-color:#EB8228"/>
	<stop  offset="0.5612" style="stop-color:#F88D2D"/>
	<stop  offset="0.7" style="stop-color:#FC902E"/>
	<a:midPointStop  offset="0" style="stop-color:#9E440F"/>
	<a:midPointStop  offset="0.3043" style="stop-color:#9E440F"/>
	<a:midPointStop  offset="0.7" style="stop-color:#FC902E"/>
</linearGradient>
<path fill="url(#SVGID_1_)" d="M28.002,2c-6.711,0-10.064,3.047-10.744,4.491C9.145,8.351,6.535,24.076,12.609,29.93
	c0.754-6.235,1.48-10.242,5.617-14.462c6.695,7.244,19.234,7.865,23.09,13.701c-1.414-6.863-12.752-12.69-12.752-12.69
	c7.395,1.674,12.746,5.229,14.83,13.451C50.604,18.425,44.615,2,28.002,2z"/>
<linearGradient id="SVGID_2_" gradientUnits="userSpaceOnUse" x1="16.1792" y1="34.8691" x2="18.0606" y2="-1.1605">
	<stop  offset="0" style="stop-color:#9E440F"/>
	<stop  offset="0.1113" style="stop-color:#B85918"/>
	<stop  offset="0.2636" style="stop-color:#D67121"/>
	<stop  offset="0.4143" style="stop-color:#EB8228"/>
	<stop  offset="0.5612" style="stop-color:#F88D2D"/>
	<stop  offset="0.7" style="stop-color:#FC902E"/>
	<a:midPointStop  offset="0" style="stop-color:#9E440F"/>
	<a:midPointStop  offset="0.3043" style="stop-color:#9E440F"/>
	<a:midPointStop  offset="0.7" style="stop-color:#FC902E"/>
</linearGradient>
<path fill="url(#SVGID_2_)" d="M17.729,36.322c-2.898-9.823-1.502-21.068,2.777-22.949C10.533,12.825,13.178,29.172,17.729,36.322z"
	/>
<path fill="#302C3B" d="M56.429,59.822c-3,1.061-8.905,1.332-8.905,1.332s2.093-5.322,3.626-5.264
	C59.052,56.189,56.639,58.336,56.429,59.822z"/>
<path fill="#D9B18D" d="M46.224,51.941c-0.84-0.645,1.16-2.572,2.362-1.055c0.484,0.615,8.689,7.473,8.689,7.473
	s-3.662-0.305-5.316-2.188C49.046,52.859,47.598,52.996,46.224,51.941z"/>
<linearGradient id="SVGID_3_" gradientUnits="userSpaceOnUse" x1="-273.9551" y1="-155.6953" x2="-246.9546" y2="-155.6953" gradientTransform="matrix(0.2607 -0.2607 0.2607 0.2607 152.3963 15.7485)">
	<stop  offset="0" style="stop-color:#A0A8AB"/>
	<stop  offset="0.0238" style="stop-color:#A2AAAD"/>
	<stop  offset="0.4286" style="stop-color:#C2CACD"/>
	<stop  offset="0.7684" style="stop-color:#D6DDE1"/>
	<stop  offset="1" style="stop-color:#DDE4E8"/>
	<a:midPointStop  offset="0" style="stop-color:#A0A8AB"/>
	<a:midPointStop  offset="0.3758" style="stop-color:#A0A8AB"/>
	<a:midPointStop  offset="1" style="stop-color:#DDE4E8"/>
</linearGradient>
<circle fill="url(#SVGID_3_)" cx="43.905" cy="43.059" r="4.977"/>
<path fill="#9EA7AD" d="M47.263,39.1c-2.244,2.627-4.691,5.074-7.318,7.318c0.092,0.107,0.496,0.512,0.605,0.604
	c2.627-2.244,5.072-4.691,7.316-7.318C47.776,39.596,47.372,39.189,47.263,39.1z"/>
<path fill="#4E5E67" d="M47.499,39.336c-2.244,2.627-4.689,5.074-7.318,7.318c0.014,0.029,0.1,0.117,0.131,0.131
	c2.629-2.244,5.074-4.691,7.318-7.318C47.618,39.436,47.53,39.348,47.499,39.336z"/>
<linearGradient id="SVGID_4_" gradientUnits="userSpaceOnUse" x1="70.7148" y1="-56.9575" x2="78.1836" y2="-56.9575" gradientTransform="matrix(0.7071 -0.7071 0.7071 0.7071 40.8412 145.2803)">
	<stop  offset="0" style="stop-color:#282930"/>
	<stop  offset="0.6493" style="stop-color:#494855"/>
	<stop  offset="1" style="stop-color:#565463"/>
	<a:midPointStop  offset="0" style="stop-color:#282930"/>
	<a:midPointStop  offset="0.4364" style="stop-color:#282930"/>
	<a:midPointStop  offset="1" style="stop-color:#565463"/>
</linearGradient>
<path fill="url(#SVGID_4_)" d="M48.874,42.746c-1.619,1.896-3.385,3.662-5.281,5.281c0.479,0.244,0.957,0.484,1.436,0.727
	l0.002-0.002l13.688,11.07h0.984l0.967-0.967l-0.002-0.982l-11.07-13.688c0.002-0.002,0.002-0.002,0.004-0.004
	C49.358,43.703,49.116,43.227,48.874,42.746z"/>
<path fill="#1A1626" d="M51.212,46.182c-1.283,1.502-2.682,2.902-4.184,4.186c0.096,0.078,0.193,0.156,0.289,0.234
	c1.482-1.268,2.863-2.648,4.131-4.129C51.37,46.375,51.292,46.277,51.212,46.182z"/>
<rect x="58.478" y="58.773" transform="matrix(0.7068 -0.7075 0.7075 0.7068 -24.1947 59.6515)" fill="#9EA7AD" width="2.758" height="0.476"/>
<path opacity="0.2" fill="#302C3B" d="M43.61,47.102c0.346,0.225-0.174,0.768-0.533,0.471C42.706,47.27,43.247,46.857,43.61,47.102z
	"/>
<path opacity="0.2" fill="#302C3B" d="M44.659,46.131c0.348,0.232-0.256,0.865-0.656,0.611
	C43.571,46.455,44.272,45.854,44.659,46.131z"/>
<path opacity="0.2" fill="#302C3B" d="M45.663,45.156c0.277,0.27-0.322,0.881-0.66,0.645C44.626,45.518,45.337,44.84,45.663,45.156z
	"/>
<path opacity="0.2" fill="#302C3B" d="M46.647,44.158c0.236,0.336-0.375,0.938-0.645,0.658
	C45.685,44.492,46.362,43.779,46.647,44.158z"/>
<path opacity="0.2" fill="#302C3B" d="M47.589,43.156c0.254,0.402-0.379,1.004-0.613,0.658
	C46.698,43.428,47.302,42.727,47.589,43.156z"/>
<path opacity="0.2" fill="#302C3B" d="M48.419,42.23c0.297,0.361-0.246,0.879-0.473,0.533C47.702,42.4,48.116,41.861,48.419,42.23z"
	/>
<path opacity="0.2" fill="#302C3B" d="M42.128,46.668c0.379,0.336-0.131,0.697-0.475,0.326
	C41.29,46.648,41.729,46.344,42.128,46.668z"/>
<path opacity="0.2" fill="#302C3B" d="M47.841,40.807c0.373,0.346,0.01,0.854-0.328,0.475C47.19,40.883,47.493,40.443,47.841,40.807
	z"/>
<path opacity="0.2" fill="#302C3B" d="M43.171,45.832c0.463,0.387-0.213,0.947-0.672,0.553
	C42.015,45.996,42.679,45.439,43.171,45.832z"/>
<path opacity="0.2" fill="#302C3B" d="M44.253,44.855c0.439,0.404-0.258,1.047-0.721,0.66
	C43.044,45.115,43.784,44.428,44.253,44.855z"/>
<path opacity="0.2" fill="#302C3B" d="M45.343,43.779c0.408,0.438-0.279,1.125-0.719,0.719
	C44.163,44.064,44.909,43.316,45.343,43.779z"/>
<path opacity="0.2" fill="#302C3B" d="M46.362,42.686c0.385,0.463-0.256,1.162-0.662,0.721
	C45.274,42.938,45.962,42.197,46.362,42.686z"/>
<path opacity="0.2" fill="#302C3B" d="M47.231,41.652c0.395,0.459-0.168,1.137-0.555,0.674
	C46.284,41.834,46.841,41.17,47.231,41.652z"/>
<path opacity="0.2" fill="#302C3B" d="M40.396,45.037c0.352,0.385-0.018,0.715-0.338,0.363
	C39.706,45.078,40.019,44.68,40.396,45.037z"/>
<path opacity="0.2" fill="#302C3B" d="M46.245,39.213c0.352,0.32,0.023,0.688-0.361,0.336
	C45.526,39.172,45.925,38.857,46.245,39.213z"/>
<path opacity="0.2" fill="#302C3B" d="M41.294,44.105c0.463,0.492-0.166,1.082-0.598,0.617
	C40.241,44.281,40.812,43.635,41.294,44.105z"/>
<path opacity="0.2" fill="#302C3B" d="M42.351,43.029c0.488,0.504-0.246,1.219-0.715,0.727
	C41.155,43.277,41.856,42.539,42.351,43.029z"/>
<path opacity="0.2" fill="#302C3B" d="M43.491,41.887c0.498,0.496-0.264,1.258-0.758,0.76C42.241,42.15,42.995,41.395,43.491,41.887
	z"/>
<path opacity="0.2" fill="#302C3B" d="M44.603,40.789c0.49,0.471-0.223,1.205-0.727,0.715C43.386,41.01,44.124,40.311,44.603,40.789
	z"/>
<path opacity="0.2" fill="#302C3B" d="M45.569,39.85c0.465,0.432-0.123,1.061-0.617,0.598C44.479,39.967,45.128,39.395,45.569,39.85
	z"/>
<path opacity="0.2" fill="#302C3B" d="M39.884,43.693c0.336,0.4-0.068,0.871-0.395,0.496C39.142,43.836,39.538,43.314,39.884,43.693
	z"/>
<path opacity="0.2" fill="#302C3B" d="M40.853,42.598c0.432,0.49-0.221,1.184-0.631,0.701
	C39.808,42.838,40.421,42.131,40.853,42.598z"/>
<path opacity="0.2" fill="#302C3B" d="M41.931,41.471c0.465,0.471-0.279,1.23-0.721,0.744C40.78,41.748,41.478,41.02,41.931,41.471z
	"/>
<path opacity="0.2" fill="#302C3B" d="M43.062,40.363c0.484,0.441-0.275,1.186-0.746,0.723
	C41.864,40.633,42.593,39.934,43.062,40.363z"/>
<path opacity="0.2" fill="#302C3B" d="M44.146,39.375c0.484,0.41-0.213,1.064-0.703,0.631
	C42.978,39.576,43.683,38.961,44.146,39.375z"/>
<path opacity="0.2" fill="#302C3B" d="M45.036,38.643c0.373,0.328-0.096,0.732-0.496,0.396
	C44.159,38.691,44.681,38.297,45.036,38.643z"/>
<path opacity="0.2" fill="#302C3B" d="M39.589,42.152c0.25,0.334-0.174,0.844-0.428,0.506
	C38.909,42.336,39.349,41.836,39.589,42.152z"/>
<path opacity="0.2" fill="#302C3B" d="M40.505,41.146c0.299,0.344-0.262,0.953-0.545,0.588
	C39.694,41.389,40.224,40.826,40.505,41.146z"/>
<path opacity="0.2" fill="#302C3B" d="M41.544,40.088c0.336,0.309-0.271,0.916-0.58,0.582
	C40.677,40.357,41.231,39.803,41.544,40.088z"/>
<path opacity="0.2" fill="#302C3B" d="M42.608,39.088c0.367,0.283-0.242,0.84-0.586,0.543C41.7,39.352,42.263,38.824,42.608,39.088z
	"/>
<path opacity="0.2" fill="#302C3B" d="M43.505,38.314c0.338,0.256-0.174,0.678-0.508,0.43
	C42.683,38.504,43.181,38.064,43.505,38.314z"/>
<path opacity="0.2" fill="#302C3B" d="M40.438,40.143c0.182,0.197-0.26,0.654-0.426,0.432
	C39.868,40.371,40.278,39.967,40.438,40.143z"/>
<path opacity="0.2" fill="#302C3B" d="M41.421,39.166c0.223,0.166-0.234,0.607-0.434,0.426
	C40.812,39.432,41.216,39.021,41.421,39.166z"/>
<path fill="#D9B18D" d="M54.204,47.58c1.666,0.037,1.979,1.408,1.979,1.408c1.501,0.256,1.984,1.75,1.984,1.75
	c2.818,1.641-1.775,7.424-2.561,4.283c-1.316,1.447-3.012,0.301-1.868-1.408c-1.445,1.742-2.852-0.369-2.027-1.447
	c0.31-0.404,0.544-0.912,0.905-1.373c-1.494,1.746-2.736-0.219-2.206-1.338c0.591-1.238,1.438-2.346,1.856-2.594
	C53.095,46.371,54.011,47.178,54.204,47.58z"/>
<path fill="#C99B71" d="M50.645,51.074c1.356,1.738,3.051-1.715,3.141-2.404C52.706,50.963,51.235,51.684,50.645,51.074z"/>
<path fill="#C99B71" d="M55.896,55.648c1.356,1.738,2.946-1.688,3.034-2.377C57.853,55.564,56.486,56.258,55.896,55.648z"/>
<path fill="#C99B71" d="M51.797,53.857c1.356,1.738,3.319-1.635,3.85-3.645C54.177,53.783,52.387,54.467,51.797,53.857z"/>
<path fill="#C99B71" d="M53.634,55.398c1.355,1.736,3.43-1.652,3.961-3.664C56.124,55.305,54.224,56.006,53.634,55.398z"/>
</svg>
