<?xml version="1.0" encoding="utf-8"?>
<!-- Generator: Adobe Illustrator 15.0.0, SVG Export Plug-In . SVG Version: 6.00 Build 0)  -->
<!DOCTYPE svg PUBLIC "-//W3C//DTD SVG 1.1//EN" "http://www.w3.org/Graphics/SVG/1.1/DTD/svg11.dtd" [
	<!ENTITY ns_flows "http://ns.adobe.com/Flows/1.0/">
	<!ENTITY ns_extend "http://ns.adobe.com/Extensibility/1.0/">
	<!ENTITY ns_ai "http://ns.adobe.com/AdobeIllustrator/10.0/">
	<!ENTITY ns_graphs "http://ns.adobe.com/Graphs/1.0/">
]>
<svg version="1.1" id="Layer_1" xmlns:x="&ns_extend;" xmlns:i="&ns_ai;" xmlns:graph="&ns_graphs;"
	 xmlns="http://www.w3.org/2000/svg" xmlns:xlink="http://www.w3.org/1999/xlink" xmlns:a="http://ns.adobe.com/AdobeSVGViewerExtensions/3.0/"
	 x="0px" y="0px" width="64px" height="64px" viewBox="0 0 64 64" enable-background="new 0 0 64 64" xml:space="preserve">
<path fill="#018BC9" d="M9.254,52.718c2.402-1.289,12.246-4.709,12.246-4.709l15-0.029c0,0,9.913,3.441,12.301,4.734
	C52.271,54.587,53,57.144,53,59.56c0,3.254-48,3.254-48,0C5,57.14,5.774,54.583,9.254,52.718z"/>
<polygon fill="#F5BB51" points="21.5,49.946 29,54.778 36.5,49.946 36.5,41.911 21.5,41.911 "/>
<rect x="27.5" y="54.483" fill="#01A0E8" width="3" height="7.516"/>
<path fill="#FFFFFF" d="M35.24,51.433c-1.916,0.602-4.033,0.945-6.24,0.945c-2.205,0-4.326-0.344-6.238-0.945L29,59.31L35.24,51.433
	z"/>
<path fill="#01A0E8" d="M36.5,47.118c0,2.123-4.82,4.246-7.5,11.863c-2.68-7.617-7.5-9.74-7.5-11.863c0,0-4.213,2.318-2.639,6.387
	c1.842-0.549,4.973-0.617,4.973-0.617c-0.396,0.836-1.223,3.389-1.223,3.389C26.051,57.075,29,59.624,29,59.624
	s2.949-2.549,6.387-3.348c0,0-0.826-2.553-1.221-3.389c0,0,3.131,0.068,4.971,0.617C40.715,49.437,36.5,47.118,36.5,47.118z"/>
<path fill="#473834" d="M44.146,38.785c1.08,0.714,2.326,1.247,3.781,1.521c-2.582-5.889,1.312-18.237-6.669-27.312
	c-11.25,0.338-12.806,36.722,2.876,31.884c-0.998-0.434-1.624-1.316-1.991-2.43c1.209,0.346,2.621,0.357,4.268-0.148
	C45.102,41.733,44.435,40.398,44.146,38.785z"/>
<path fill="#473834" d="M15.908,12.994c-7.979,9.074-3.327,21.423-5.91,27.312c1.454-0.273,2.701-0.807,3.781-1.521
	c-0.287,1.613-0.955,2.948-2.264,3.515c1.645,0.506,3.057,0.494,4.266,0.148c-0.367,1.113-0.991,1.996-1.99,2.43
	C29.472,49.716,27.158,13.332,15.908,12.994z"/>
<path id="Path_2934_" fill="#FFC940" d="M45.375,25.392c-2.541,0.308-4.375,8.815-2.778,11.062c0.225,0.313,1.534,0.813,2.505-1.167
	c0.537-1.099,2.089-2.014,2.568-4.278C48.286,28.108,47.903,25.085,45.375,25.392z"/>
<path id="Path_2933_" fill="#FFC940" d="M12.553,25.392c2.541,0.308,4.375,8.815,2.776,11.062c-0.224,0.313-1.533,0.813-2.504-1.167
	c-0.538-1.099-2.089-2.014-2.569-4.278C9.64,28.108,10.025,25.085,12.553,25.392z"/>
<path id="Path_2932_" fill="#F0A429" d="M45.306,27.022c-0.662,0.209-1.386,1.22-1.778,2.896c2.317-0.498,1.738,3.362-0.275,3.435
	c0.018,0.389,0.045,0.788,0.092,1.209c0.971-1.41,1.956-0.845,2.933-2.94C47.156,29.731,46.947,26.507,45.306,27.022z"/>
<path id="Path_2931_" fill="#F0A429" d="M14.398,29.915c-0.393-1.675-1.114-2.685-1.776-2.893c-1.642-0.516-1.852,2.709-0.972,4.6
	c0.977,2.096,1.962,1.53,2.934,2.94c0.048-0.422,0.074-0.822,0.091-1.21C12.682,33.257,12.111,29.445,14.398,29.915z"/>
<path fill="#FFC940" d="M28.963,9.034c-11.008,0-16.311,8.965-15.648,20.492c0.136,2.317,0.78,5.661,1.576,8.525
	c1.65,5.953,10.362,11.947,14.072,11.947c3.709,0,12.421-5.994,14.073-11.947c0.795-2.864,1.439-6.208,1.576-8.525
	C45.273,17.999,39.974,9.034,28.963,9.034z"/>
<path id="Path_2930_" fill="#966F42" d="M40.923,24.542c-2.518-1.333-7.336-1.398-9.13-0.47c-0.385,0.18-0.13,1.443,0.192,1.323
	c2.501-0.989,6.536-1.012,8.877,0.085C41.175,25.622,41.305,24.728,40.923,24.542z"/>
<path id="Path_2929_" fill="#966F42" d="M17.004,24.542c2.517-1.333,7.332-1.398,9.129-0.47c0.384,0.18,0.131,1.443-0.192,1.323
	c-2.505-0.989-6.534-1.012-8.878,0.085C16.752,25.622,16.623,24.728,17.004,24.542z"/>
<path id="Path_2928_" fill="#F0A429" d="M31.934,36.108c-0.313-0.22-1.052,0.117-2.971,0.117c-1.917,0-2.655-0.337-2.971-0.117
	c-0.376,0.265,0.224,1.462,2.971,1.462C31.712,37.57,32.312,36.373,31.934,36.108z"/>
<path id="Path_2927_" fill="#F0A429" d="M28.963,40.645c-2.476-0.728-6.144,0.345-6.144,0.345c1.396,1.523,2.421,3.497,6.144,3.497
	c4.266,0,4.992-2.241,6.146-3.497C35.109,40.989,31.438,39.913,28.963,40.645z"/>
<path id="Path_2926_" fill="#FFFFFF" d="M23.74,41.247c2.596,2.178,7.837,2.193,10.447,0C31.421,41.366,26.526,41.368,23.74,41.247z
	"/>
<path id="Path_2925_" fill="#FFFFFF" d="M26.514,29.085c0.094,0.729-0.401,1.593-1.771,2.24c-0.869,0.412-2.679,0.896-5.057-0.106
	c-1.065-0.449-2.104-1.85-2.011-2.623C18.965,26.166,25.308,25.811,26.514,29.085z"/>
<linearGradient id="Oval_1_" gradientUnits="userSpaceOnUse" x1="-425.0425" y1="477.4658" x2="-425.0425" y2="478.2246" gradientTransform="matrix(6.5701 0 0 -6.5701 2814.7805 3168.5281)">
	<stop  offset="0" style="stop-color:#A6694A"/>
	<stop  offset="1" style="stop-color:#4F2A1E"/>
	<a:midPointStop  offset="0" style="stop-color:#A6694A"/>
	<a:midPointStop  offset="0.5" style="stop-color:#A6694A"/>
	<a:midPointStop  offset="1" style="stop-color:#4F2A1E"/>
</linearGradient>
<circle id="Oval_336_" fill="url(#Oval_1_)" cx="22.21" cy="29.036" r="2.492"/>
<path id="Path_2924_" fill="#1A1626" d="M20.965,28.99c0,1.725,2.492,1.725,2.492,0C23.457,27.39,20.965,27.39,20.965,28.99z"/>
<path id="Path_2923_" fill="#AB968C" d="M20.586,28.292c0,0.724,1.045,0.724,1.045,0C21.631,27.623,20.586,27.623,20.586,28.292z"/>
<path id="Path_2922_" fill="#F0A429" d="M26.526,29.182c-1.013-3.253-7.911-2.772-8.851-0.586
	C18.024,25.796,25.663,25.057,26.526,29.182z"/>
<path id="Path_2921_" fill="#FFFFFF" d="M31.412,29.085c-0.093,0.729,0.401,1.593,1.771,2.24c0.87,0.412,2.679,0.896,5.057-0.106
	c1.067-0.449,2.104-1.85,2.011-2.623C38.963,26.166,32.618,25.811,31.412,29.085z"/>
<linearGradient id="Oval_2_" gradientUnits="userSpaceOnUse" x1="-425.6938" y1="477.4658" x2="-425.6938" y2="478.2246" gradientTransform="matrix(6.5701 0 0 -6.5701 2832.511 3168.5281)">
	<stop  offset="0" style="stop-color:#A6694A"/>
	<stop  offset="1" style="stop-color:#4F2A1E"/>
	<a:midPointStop  offset="0" style="stop-color:#A6694A"/>
	<a:midPointStop  offset="0.5" style="stop-color:#A6694A"/>
	<a:midPointStop  offset="1" style="stop-color:#4F2A1E"/>
</linearGradient>
<circle id="Oval_335_" fill="url(#Oval_2_)" cx="35.66" cy="29.036" r="2.492"/>
<path id="Path_2920_" fill="#1A1626" d="M34.416,28.99c0,1.725,2.491,1.725,2.491,0C36.907,27.39,34.416,27.39,34.416,28.99z"/>
<path id="Path_2919_" fill="#AB968C" d="M34.036,28.292c0,0.724,1.045,0.724,1.045,0C35.081,27.623,34.036,27.623,34.036,28.292z"/>
<path id="Path_2918_" fill="#F0A429" d="M31.402,29.182c1.01-3.251,7.904-2.786,8.848-0.586
	C39.9,25.796,32.263,25.057,31.402,29.182z"/>
<linearGradient id="SVGID_1_" gradientUnits="userSpaceOnUse" x1="28.8003" y1="31.8174" x2="28.8003" y2="6">
	<stop  offset="0" style="stop-color:#473834"/>
	<stop  offset="0.2717" style="stop-color:#594640"/>
	<stop  offset="0.7226" style="stop-color:#715950"/>
	<stop  offset="1" style="stop-color:#7A6056"/>
	<a:midPointStop  offset="0" style="stop-color:#473834"/>
	<a:midPointStop  offset="0.4" style="stop-color:#473834"/>
	<a:midPointStop  offset="1" style="stop-color:#7A6056"/>
</linearGradient>
<path fill="url(#SVGID_1_)" d="M28.965,6c-6.698,0-10.046,3.034-10.725,4.473c-8.099,1.853-10.701,15.516-4.64,21.345
	c0.752-6.211,1.477-10.201,5.606-14.404c2.407,3.227,7.409,5.042,11.889,5.042c-2.121-1.541-3.566-3.051-4.702-4.459
	c7.479,3.434,15.855,5.631,17.935,13.821C51.525,20.358,45.547,6,28.965,6z"/>
<path fill="#473834" d="M18.222,10.472c-0.08,4.427,2.185,9.995,12.88,11.981C23.45,22.971,15.601,18.348,18.222,10.472z"/>
<path fill="#473834" d="M18.716,16.612c-2.787,2.746-5.736,7.938-5.144,15.205c0.554-6.005,3.313-10.949,5.811-14.152
	C19.207,17.472,18.865,16.83,18.716,16.612z"/>
<path fill="#473834" d="M23.669,15.234c5.765,5.504,19.175,3.535,20.688,16.583C40.769,20.545,28.61,23.074,23.669,15.234z"/>
<linearGradient id="SVGID_2_" gradientUnits="userSpaceOnUse" x1="187.04" y1="171.2715" x2="194.8882" y2="163.4234" gradientTransform="matrix(0.5 0.866 -0.866 0.5 99.4891 -195.5946)">
	<stop  offset="0" style="stop-color:#565E61"/>
	<stop  offset="0.3805" style="stop-color:#858D91"/>
	<stop  offset="0.7929" style="stop-color:#B2BABF"/>
	<stop  offset="1" style="stop-color:#C4CCD1"/>
	<a:midPointStop  offset="0" style="stop-color:#565E61"/>
	<a:midPointStop  offset="0.4485" style="stop-color:#565E61"/>
	<a:midPointStop  offset="1" style="stop-color:#C4CCD1"/>
</linearGradient>
<path fill="url(#SVGID_2_)" d="M48.566,49.62c-0.637,2.381-1.644,6.551-3.041,11.768c0,0,3.778-0.195,5.676-0.824
	c0,0,1.046-4.016,2.531-9.559c0.387-1.445,3.873-4.314,3.873-4.314l-10.631-3.207C46.975,43.483,48.922,48.298,48.566,49.62z"/>
<linearGradient id="SVGID_3_" gradientUnits="userSpaceOnUse" x1="82.915" y1="332.5176" x2="97.4209" y2="334.2354" gradientTransform="matrix(-0.2588 0.9659 -0.9659 -0.2588 399.1863 39.5688)">
	<stop  offset="0" style="stop-color:#565E61"/>
	<stop  offset="0.062" style="stop-color:#5F676A"/>
	<stop  offset="0.5043" style="stop-color:#9AA3A7"/>
	<stop  offset="0.8293" style="stop-color:#BFC8CD"/>
	<stop  offset="1" style="stop-color:#CDD6DB"/>
	<a:midPointStop  offset="0" style="stop-color:#565E61"/>
	<a:midPointStop  offset="0.4364" style="stop-color:#565E61"/>
	<a:midPointStop  offset="1" style="stop-color:#CDD6DB"/>
</linearGradient>
<path fill="url(#SVGID_3_)" d="M57.035,47.112c2.974-1.578,2.227-10.088,0.047-10.555c0,0-0.885,4.494-1.376,6.023
	c-0.507,1.59-5.707,0.344-5.375-1.295c0.249-1.215,1.504-5.719,1.504-5.719c-2.204-0.977-5.768,5.662-4.86,7.916
	C48.825,48.091,54.67,48.372,57.035,47.112z"/>
<linearGradient id="SVGID_4_" gradientUnits="userSpaceOnUse" x1="105.0098" y1="139.4434" x2="105.0098" y2="135.9746" gradientTransform="matrix(-0.2588 0.9659 -0.9659 -0.2588 209.5106 -8.6099)">
	<stop  offset="0" style="stop-color:#C4CCD1"/>
	<stop  offset="0.1531" style="stop-color:#BDC5CA"/>
	<stop  offset="0.3839" style="stop-color:#A8B0B5"/>
	<stop  offset="0.6636" style="stop-color:#878F93"/>
	<stop  offset="0.9792" style="stop-color:#596164"/>
	<stop  offset="1" style="stop-color:#565E61"/>
	<a:midPointStop  offset="0" style="stop-color:#C4CCD1"/>
	<a:midPointStop  offset="0.6182" style="stop-color:#C4CCD1"/>
	<a:midPointStop  offset="1" style="stop-color:#565E61"/>
</linearGradient>
<path fill="url(#SVGID_4_)" d="M50.136,60.839l1.521-5.73c0.717-2.771-2.619-3.664-3.336-0.895l-1.891,7.111
	C48.554,61.208,50.136,60.839,50.136,60.839z"/>
</svg>
