<?xml version="1.0" encoding="utf-8"?>
<!-- Generator: Adobe Illustrator 24.1.2, SVG Export Plug-In . SVG Version: 6.00 Build 0)  -->
<svg version="1.1" id="Layer_1" xmlns="http://www.w3.org/2000/svg" xmlns:xlink="http://www.w3.org/1999/xlink" x="0px" y="0px"
	 width="64px" height="64px" viewBox="0 0 64 64" style="enable-background:new 0 0 64 64;" xml:space="preserve">
<style type="text/css">
	.st0{fill:url(#SVGID_1_);}
	.st1{fill:url(#SVGID_2_);}
	.st2{fill:url(#SVGID_3_);}
	.st3{fill:url(#SVGID_4_);}
	.st4{fill:url(#SVGID_5_);}
	.st5{fill:url(#SVGID_6_);}
	.st6{fill:url(#SVGID_7_);}
	.st7{fill:url(#SVGID_8_);}
	.st8{fill:url(#SVGID_9_);}
	.st9{fill:url(#SVGID_10_);}
	.st10{fill:url(#SVGID_11_);}
	.st11{fill:url(#SVGID_12_);}
	.st12{fill:url(#SVGID_13_);}
	.st13{fill:url(#SVGID_14_);}
	.st14{fill:url(#SVGID_15_);}
	.st15{fill:url(#SVGID_16_);}
	.st16{fill:url(#SVGID_17_);}
	.st17{fill:url(#SVGID_18_);}
	.st18{fill:url(#SVGID_19_);}
	.st19{fill:url(#SVGID_20_);}
	.st20{fill:url(#SVGID_21_);}
	.st21{fill:url(#SVGID_22_);}
	.st22{fill:url(#SVGID_23_);}
	.st23{fill:url(#SVGID_24_);}
	.st24{fill:#FFC940;}
	.st25{fill:#F0A429;}
	.st26{fill:url(#SVGID_25_);}
	.st27{fill:#966F42;}
	.st28{fill:#FFFFFF;}
	.st29{fill:url(#Oval_1_);}
	.st30{fill:#1A1626;}
	.st31{fill:#AB968C;}
	.st32{fill:url(#Oval_2_);}
	.st33{fill:url(#SVGID_26_);}
	.st34{fill:#00EDD1;}
	.st35{fill:url(#SVGID_27_);}
	.st36{fill:url(#SVGID_28_);}
	.st37{fill:url(#SVGID_29_);}
	.st38{fill:url(#SVGID_30_);}
	.st39{fill:url(#SVGID_31_);}
	.st40{fill:url(#SVGID_32_);}
	.st41{fill:url(#SVGID_33_);}
	.st42{fill:url(#SVGID_34_);}
	.st43{fill:url(#SVGID_35_);}
	.st44{fill:url(#SVGID_36_);}
	.st45{fill:url(#SVGID_37_);}
	.st46{fill:url(#SVGID_38_);}
	.st47{fill:url(#SVGID_39_);}
	.st48{fill:url(#SVGID_40_);}
	.st49{fill:url(#SVGID_41_);}
	.st50{fill:url(#SVGID_42_);}
	.st51{fill:url(#SVGID_43_);}
	.st52{fill:url(#SVGID_44_);}
	.st53{fill:url(#SVGID_45_);}
</style>
<linearGradient id="SVGID_1_" gradientUnits="userSpaceOnUse" x1="47.0408" y1="58.9009" x2="42.4953" y2="55.3146">
	<stop  offset="0" style="stop-color:#00B09B"/>
	<stop  offset="1" style="stop-color:#00EDD1"/>
</linearGradient>
<path class="st0" d="M44.37,59.99c-1.66,0.68-3.01,0.11-0.88-3.02c0,0,0.53-0.75,0.66-2.17c0.29-3.12,6.27,1.65,4.88,1.93
	C46.22,57.29,45.75,58.81,44.37,59.99z"/>
<linearGradient id="SVGID_2_" gradientUnits="userSpaceOnUse" x1="-1026.1831" y1="-1008.8289" x2="-1025.2516" y2="-1009.142" gradientTransform="matrix(2.158 -6.4183 6.4183 2.158 8731.5732 -4345.9307)">
	<stop  offset="0" style="stop-color:#00B09B"/>
	<stop  offset="1" style="stop-color:#00EDD1"/>
</linearGradient>
<path class="st1" d="M43.55,56.88c0.63,0.97,0.11,2.23-0.67,2.98c0.53-0.07,1.05-0.16,1.49,0.13c-1.18,0.93-2.61,2.07-4.53,2.82
	l0.77-4.69C41.91,58.12,42.7,58.05,43.55,56.88z"/>
<linearGradient id="SVGID_3_" gradientUnits="userSpaceOnUse" x1="-1017.6381" y1="-1002.7875" x2="-1016.5472" y2="-1002.7875" gradientTransform="matrix(2.5327 -7.5327 7.5327 2.5327 10168.8506 -5060.8188)">
	<stop  offset="0" style="stop-color:#009987"/>
	<stop  offset="1" style="stop-color:#00EDD1"/>
</linearGradient>
<path class="st2" d="M41.24,58.09c0,0-0.12,0.7-0.63,1.04c1.49,0.56,1.31,2.06-0.29,2.51c0.67,0.18,0.64,0.66,0.64,0.66
	c-1.26,0.62-2.78,1.14-4.7,1.43l1.64-6.09C39.08,58.03,40.23,58.19,41.24,58.09z"/>
<linearGradient id="SVGID_4_" gradientUnits="userSpaceOnUse" x1="-1013.2751" y1="-999.7164" x2="-1012.4437" y2="-999.9959" gradientTransform="matrix(2.7616 -8.2134 8.2134 2.7616 11045.1982 -5497.1016)">
	<stop  offset="0" style="stop-color:#00B09B"/>
	<stop  offset="1" style="stop-color:#00EDD1"/>
</linearGradient>
<path class="st3" d="M39.45,58.02c0.32,0.71-0.24,1.62-1.18,1.87c1.61,1,0.12,2.73-1.39,2.8c0.44,0.39,0.36,0.87,0.36,0.87
	c-1.42,0.29-3.08,0.46-5.05,0.43c0,0,1.33-5.5,4.88-6.65C37.87,57.67,38.68,57.9,39.45,58.02z"/>
<linearGradient id="SVGID_5_" gradientUnits="userSpaceOnUse" x1="-1010.5677" y1="-997.832" x2="-1009.4946" y2="-997.832" gradientTransform="matrix(2.9579 -8.7973 8.7973 2.9579 11798.7324 -5873.6274)">
	<stop  offset="0" style="stop-color:#009987"/>
	<stop  offset="1" style="stop-color:#00EDD1"/>
</linearGradient>
<path class="st4" d="M37.52,57.52c0,0-0.33,0.92-1.5,1.04c1.45,0.62,0.47,2.43-1.12,2.41c1,1.34-0.32,2.37-1.41,2.2
	c0.2,0.46-0.13,0.81-0.13,0.81c-1.27,0.03-2.68-0.01-4.26-0.17c-0.29-0.03-0.58-0.07-0.86-0.11l6.17-7.84
	C35.4,56.58,36.46,57.14,37.52,57.52z"/>
<linearGradient id="SVGID_6_" gradientUnits="userSpaceOnUse" x1="-1008.0676" y1="-995.9516" x2="-1007.1226" y2="-996.2693" gradientTransform="matrix(3.1293 -9.3069 9.3069 3.1293 12454.6563 -6201.0737)">
	<stop  offset="0" style="stop-color:#00B09B"/>
	<stop  offset="1" style="stop-color:#00EDD1"/>
</linearGradient>
<path class="st5" d="M35.47,56.56c-0.34,0.29-0.7,0.52-1.14,0.64c1.05,1.7-0.8,2.56-2.18,2.63c1.6,1.4,0.57,2.47-1.14,2.53
	c0.68,0.74,0.07,1.61,0.07,1.61c-0.64-0.03-1.29-0.07-1.99-0.14c-0.7-0.07-1.39-0.18-2.05-0.33c-2.71-2.23,2.69-9.3,5.95-8.81
	C33.75,55.42,34.6,56.05,35.47,56.56z"/>
<linearGradient id="SVGID_7_" gradientUnits="userSpaceOnUse" x1="-1007.2418" y1="-995.546" x2="-1006.1353" y2="-995.546" gradientTransform="matrix(3.2025 -9.5245 9.5245 3.2025 12734.2324 -6341.4404)">
	<stop  offset="0" style="stop-color:#009987"/>
	<stop  offset="1" style="stop-color:#00EDD1"/>
</linearGradient>
<path class="st6" d="M33.82,55.41c-0.15,1.53-1.7,2.02-2.98,2c1.73,1.62-0.25,2.47-1.8,2.42c1.36,1.97-1.01,2.24-2.39,2.04
	c0.53,0.48,0.92,1,0.81,1.7c-1.78-0.33-3.43-0.9-4.96-1.67c3.83-8.32,10.1-7.62,10.1-7.62C32.98,54.7,33.39,55.07,33.82,55.41z"/>
<linearGradient id="SVGID_8_" gradientUnits="userSpaceOnUse" x1="-1003.4926" y1="-992.7577" x2="-1002.5591" y2="-993.0716" gradientTransform="matrix(3.5339 -10.5102 10.5102 3.5339 14006.7168 -6975.7412)">
	<stop  offset="0" style="stop-color:#00B09B"/>
	<stop  offset="1" style="stop-color:#00EDD1"/>
</linearGradient>
<path class="st7" d="M32.78,54.48c-0.67,0.78-1.5,1.13-2.5,1.19c0.46,1.74-1.77,2.01-2.89,1.92c1.23,1.99-1.03,2.35-2.46,2.09
	c0.79,1.37,0.26,2.34-1.26,2.39c0.07,0.15,0.13,0.3,0.17,0.45c-1.38-0.56-2.66-1.27-3.85-2.11c2.62-6.71,10.98-8.28,10.98-8.28
	C31.48,52.99,32.1,53.78,32.78,54.48z"/>
<linearGradient id="SVGID_9_" gradientUnits="userSpaceOnUse" x1="-1000.395" y1="-990.6887" x2="-999.2258" y2="-990.6887" gradientTransform="matrix(3.8751 -11.5249 11.5249 3.8751 15317.0225 -7628.2153)">
	<stop  offset="0" style="stop-color:#009987"/>
	<stop  offset="1" style="stop-color:#00EDD1"/>
</linearGradient>
<path class="st8" d="M31.54,53c-0.38,0.18-0.78,0.27-1.21,0.24c0.44,1.84-1.2,2.23-2.53,1.71c0.39,2.49-2.32,2.39-3.82,1.71
	c1.03,2.04-0.21,3.28-2.17,2.4c0.2,0.82,0.39,1.73-0.07,2.44c-1.26-0.7-2.42-1.54-3.49-2.48c2.99-8.3,11.74-9.12,11.74-9.12
	C30.17,50.41,30.69,51.7,31.54,53z"/>
<linearGradient id="SVGID_10_" gradientUnits="userSpaceOnUse" x1="-998.5283" y1="-989.2787" x2="-997.6201" y2="-989.5841" gradientTransform="matrix(4.0935 -12.1745 12.1745 4.0935 16154.6592 -8046.895)">
	<stop  offset="0" style="stop-color:#00B09B"/>
	<stop  offset="1" style="stop-color:#00EDD1"/>
</linearGradient>
<path class="st9" d="M30.42,50.95c-0.37,1.15-1.07,1.52-2.27,1.12c-0.06,2.24-1.82,2.76-3.48,1.78c0.21,1.99-1.3,2.78-2.93,2.16
	c-0.22,1.49-0.88,2.7-2.37,1.97c0.15,0.66,0.15,1.31,0,1.96C18.13,59,17.01,57.92,16,56.73c4.67-9.1,13.38-8.76,13.38-8.76
	C29.67,49.03,29.97,49.86,30.42,50.95z"/>
<linearGradient id="SVGID_11_" gradientUnits="userSpaceOnUse" x1="-996.8416" y1="-988.1338" x2="-995.6673" y2="-988.1338" gradientTransform="matrix(4.3483 -12.9324 12.9324 4.3483 17133.791 -8535.7461)">
	<stop  offset="0" style="stop-color:#009987"/>
	<stop  offset="1" style="stop-color:#00EDD1"/>
</linearGradient>
<path class="st10" d="M29.82,49.39c-0.74,0.24-1.23,0.35-1.73-0.32c-0.09,2.31-1.34,3.33-3.33,2.26c-0.45,1.81-1.35,2.38-2.89,1.38
	c-0.31,2.01-1.17,3.06-3.05,2.11c-0.02,1.5-0.31,2.56-1.73,3.11c-0.76-0.76-1.28-1.41-1.89-2.17c1.47-6.34,7.21-11.88,13.63-10.11
	C29.1,46.96,29.42,48.11,29.82,49.39z"/>
<linearGradient id="SVGID_12_" gradientUnits="userSpaceOnUse" x1="-995.0446" y1="-986.7515" x2="-994.1438" y2="-987.0543" gradientTransform="matrix(4.6327 -13.7785 13.7785 4.6327 18226.8066 -9082.2246)">
	<stop  offset="0" style="stop-color:#00B09B"/>
	<stop  offset="1" style="stop-color:#00EDD1"/>
</linearGradient>
<path class="st11" d="M29.1,46.84c-0.88,1.14-1.81,1.87-2.95,0.74c-0.81,2.23-2.13,3.13-3.71,1.09c-0.53,2.4-1.83,3.75-3.67,1.69
	c-0.04,1.83-0.46,4.12-2.59,3.49c0.05,0.92-0.01,1.75-0.41,2.6c-1.11-1.23-1.88-2.5-2.65-3.91c2.19-7.03,8.63-10.27,15.24-9.25
	C28.61,44.49,28.83,45.64,29.1,46.84z"/>
<linearGradient id="SVGID_13_" gradientUnits="userSpaceOnUse" x1="-992.978" y1="-985.4162" x2="-991.83" y2="-985.4162" gradientTransform="matrix(5.0212 -14.9338 14.9338 5.0212 19719.252 -9825.2627)">
	<stop  offset="0" style="stop-color:#009987"/>
	<stop  offset="1" style="stop-color:#00EDD1"/>
</linearGradient>
<path class="st12" d="M28.52,44.08c-0.41-0.26-0.72-0.5-1.03-0.89c0.21,2.9-1.84,3.44-3.79,1.78c-0.45,2.73-2.11,3.34-4.13,1.69
	c0.05,1.88-0.53,3.77-2.58,3.27c-0.31,1.88-1.15,3.42-3.02,2.37c0.13,0.62,0.14,1.18,0.07,1.81c-0.96-1.44-1.52-2.73-2.08-4.24
	c3.84-6.6,8.41-9.36,15.6-9.49C27.99,41.61,28.3,42.66,28.52,44.08z"/>
<linearGradient id="SVGID_14_" gradientUnits="userSpaceOnUse" x1="-994.5275" y1="-986.3998" x2="-993.6738" y2="-986.6868" gradientTransform="matrix(4.7058 -13.9959 13.9959 4.7058 18505.0977 -9225.8809)">
	<stop  offset="0" style="stop-color:#00B09B"/>
	<stop  offset="1" style="stop-color:#00EDD1"/>
</linearGradient>
<path class="st13" d="M27.86,41.3c-0.79,1.4-2,1.67-3.27,0.83c-0.39,2.59-2.38,2.37-4.21,1.41c-0.22,1.91-1.25,3.05-3.07,2.41
	c-0.22,1.8-0.99,3.17-2.76,2.22c0.06,1.64-0.29,2.95-1.94,3.35c-0.83-1.7-1.21-3.38-1.48-5.25c3.51-6.04,9.61-9.2,16.05-6.73
	C27.18,39.54,27.61,40.39,27.86,41.3z"/>
<linearGradient id="SVGID_15_" gradientUnits="userSpaceOnUse" x1="-993.0003" y1="-985.4998" x2="-991.8939" y2="-985.4998" gradientTransform="matrix(5.0092 -14.8979 14.8979 5.0092 19671.9688 -9806.0313)">
	<stop  offset="0" style="stop-color:#009987"/>
	<stop  offset="1" style="stop-color:#00EDD1"/>
</linearGradient>
<path class="st14" d="M27.3,39.77c-0.64,0.08-1.06,0.04-1.49-0.48c-0.96,2.33-2.46,2.51-4.47,1.48c-0.8,1.93-2.15,2.57-3.97,1.75
	c-0.05,1.77-0.82,2.87-2.48,2.02c-0.14,1.95-0.93,3.77-2.88,2.48c0.03,0.73-0.03,1.37-0.3,2.05c-0.63-2.05-0.71-3.71-0.73-5.67
	c2.95-5.84,8.75-7.67,14.63-6.57C26.24,37.79,26.82,38.65,27.3,39.77z"/>
<linearGradient id="SVGID_16_" gradientUnits="userSpaceOnUse" x1="10.6384" y1="45.8836" x2="20.9354" y2="34.3777">
	<stop  offset="0" style="stop-color:#00B09B"/>
	<stop  offset="1" style="stop-color:#00EDD1"/>
</linearGradient>
<path class="st15" d="M20.52,33.87l2.78,3.91c0,0-1.5,3.15-3.69,1.69c-0.43,2.15-3.05,2.85-4.56,1.2c-0.3,2.01-1.28,3.3-2.69,1.28
	c-0.17,1.16-0.44,2.15-1.37,2.87c-0.19-2.29,0.11-4.38,0.81-6.56C14.99,34.91,20.52,33.87,20.52,33.87z"/>
<linearGradient id="SVGID_17_" gradientUnits="userSpaceOnUse" x1="10.7938" y1="43.1033" x2="21.2204" y2="34.6786">
	<stop  offset="0" style="stop-color:#009987"/>
	<stop  offset="1" style="stop-color:#00EDD1"/>
</linearGradient>
<path class="st16" d="M20.69,36.25c-1.23,1.82-3.62,4.09-4.64,0.98c-0.59,1.93-1.75,4.19-2.94,1.34c-0.29,1.17-0.63,2.29-1.92,2.15
	c0.27-1.95,0.96-4.15,1.86-5.19c3.07-3.56,10.67-1.44,12.55,1.3C24.51,38.61,21.97,37.98,20.69,36.25z"/>
<linearGradient id="SVGID_18_" gradientUnits="userSpaceOnUse" x1="-980.6043" y1="-955.4387" x2="-980.4611" y2="-956.3505" gradientTransform="matrix(4.2388 -26.9886 -26.9886 -4.2388 -21593.1016 -30470.7969)">
	<stop  offset="0.103" style="stop-color:#00EDD1"/>
	<stop  offset="0.1777" style="stop-color:#00E5CA"/>
	<stop  offset="0.508" style="stop-color:#00C8B0"/>
	<stop  offset="0.7936" style="stop-color:#00B6A1"/>
	<stop  offset="1" style="stop-color:#00B09B"/>
</linearGradient>
<path class="st17" d="M60.86,31.75c3.48,24.27-8.04,24.01-16.34,25.92c-0.3,0.07-0.57-0.22-0.48-0.54
	c2.2-8.66-15.38-9.58-3.72-26.13c0.23-0.33,0.74-0.2,0.76,0.21c0.26,4.98,4.77,7.09,6.57,14.63c0.1,0.44,0.67,0.45,0.8,0.02
	c2.56-7.94,8.97-7.36,11.6-14.22C60.22,31.22,60.8,31.3,60.86,31.75z"/>
<radialGradient id="SVGID_19_" cx="-981.0726" cy="-954.2142" r="0.8956" gradientTransform="matrix(3.8632 -25.0427 -16.9774 -2.7148 -12360.2568 -27125.6465)" gradientUnits="userSpaceOnUse">
	<stop  offset="0.4786" style="stop-color:#E469EF"/>
	<stop  offset="0.5586" style="stop-color:#BF81E6"/>
	<stop  offset="0.7141" style="stop-color:#7DACD6"/>
	<stop  offset="0.8447" style="stop-color:#4CCBCA"/>
	<stop  offset="0.9439" style="stop-color:#2EDFC3"/>
	<stop  offset="1" style="stop-color:#23E6C0"/>
</radialGradient>
<path class="st18" d="M59.82,32.22c2.79,19.85-4.75,21.66-12.78,23.56c-0.58,0.14-1.16-0.22-1.33-0.82
	c-2.41-8.62-14.31-9.3-4.63-23.75c0.24,1.71,1.7,2.67,1.89,4.55c0.79,1.2,2.29,1.87,2.55,3.65c0.95,1.45,1.8,3.04,2.25,4.98
	c0.09,0.41,0.6,0.45,0.76,0.06c0.97-2.35,2.2-3.87,3.53-5.06c0.84-1.48,2.57-1.94,3.84-2.88C56.62,34.91,58.73,34.21,59.82,32.22z"
	/>
<linearGradient id="SVGID_20_" gradientUnits="userSpaceOnUse" x1="610.9162" y1="90.4146" x2="613.8575" y2="71.5269" gradientTransform="matrix(-0.9881 -0.1539 -0.1539 0.9881 669.3844 60.308)">
	<stop  offset="0.2139" style="stop-color:#00CAAC"/>
	<stop  offset="0.407" style="stop-color:#3EA5BE"/>
	<stop  offset="0.6969" style="stop-color:#9571D8"/>
	<stop  offset="0.9013" style="stop-color:#CC50E9"/>
	<stop  offset="1" style="stop-color:#E143EF"/>
</linearGradient>
<path class="st19" d="M55.9,36.51c3.04,7.06-0.78,17.08-9.19,19.12C52.31,51.85,57.9,46.34,55.9,36.51z"/>
<linearGradient id="SVGID_21_" gradientUnits="userSpaceOnUse" x1="613.186" y1="90.7361" x2="615.6791" y2="74.7266" gradientTransform="matrix(-0.9881 -0.1539 -0.1539 0.9881 669.3844 60.308)">
	<stop  offset="0.2139" style="stop-color:#00CAAC"/>
	<stop  offset="0.407" style="stop-color:#3EA5BE"/>
	<stop  offset="0.6969" style="stop-color:#9571D8"/>
	<stop  offset="0.9013" style="stop-color:#CC50E9"/>
	<stop  offset="1" style="stop-color:#E143EF"/>
</linearGradient>
<path class="st20" d="M52.06,39.39c1.15,5.69,0.65,12.57-5.55,16.2C49.68,51.47,51.89,48.91,52.06,39.39z"/>
<linearGradient id="SVGID_22_" gradientUnits="userSpaceOnUse" x1="619.0615" y1="91.317" x2="622.0632" y2="72.0414" gradientTransform="matrix(-0.9881 -0.1539 -0.1539 0.9881 669.3844 60.308)">
	<stop  offset="0.2139" style="stop-color:#00CAAC"/>
	<stop  offset="0.407" style="stop-color:#3EA5BE"/>
	<stop  offset="0.6969" style="stop-color:#9571D8"/>
	<stop  offset="0.9013" style="stop-color:#CC50E9"/>
	<stop  offset="1" style="stop-color:#E143EF"/>
</linearGradient>
<path class="st21" d="M42.97,35.76c-5.66,8.28,3.17,14.67,3.11,19.51C47.29,50.86,38.54,43.16,42.97,35.76z"/>
<linearGradient id="SVGID_23_" gradientUnits="userSpaceOnUse" x1="617.3384" y1="91.5669" x2="619.811" y2="75.6893" gradientTransform="matrix(-0.9881 -0.1539 -0.1539 0.9881 669.3844 60.308)">
	<stop  offset="0.2139" style="stop-color:#00CAAC"/>
	<stop  offset="0.407" style="stop-color:#3EA5BE"/>
	<stop  offset="0.6969" style="stop-color:#9571D8"/>
	<stop  offset="0.9013" style="stop-color:#CC50E9"/>
	<stop  offset="1" style="stop-color:#E143EF"/>
</linearGradient>
<path class="st22" d="M45.47,39.71c-4.29,8.18,1.55,9.63,0.8,16.07C48.27,49.62,42.79,48.83,45.47,39.71z"/>
<linearGradient id="SVGID_24_" gradientUnits="userSpaceOnUse" x1="4.8017" y1="32.6872" x2="13.1871" y2="32.6872">
	<stop  offset="0.3075" style="stop-color:#FFC940"/>
	<stop  offset="0.6518" style="stop-color:#FEC73F"/>
	<stop  offset="0.8036" style="stop-color:#FBC03A"/>
	<stop  offset="0.9172" style="stop-color:#F6B332"/>
	<stop  offset="1" style="stop-color:#F0A429"/>
</linearGradient>
<path class="st23" d="M11.27,23.88c0,0-1.57,2.18-2.73,4.6c-1.79,1.76-4.72,5.69-5.23,6.29c-0.49,0.59-2.42,1.79-2.58,2.34
	c-0.68,2.33-0.93,2.49-0.55,3.88c0.29,1.05,0.59,0.25,0.55-0.33c-0.06-0.9,0.59-2.33,1.32-1.92c-1,1.37-0.33,2.33,0,1.79
	c0.86-1.38,1.65-2,1.64-3.14c0-0.46,1.39-2.18,4.34-3.62c1.79-0.88,3.14-2.63,4.03-4.21c0.84-1.39,2.4-2.37,2.89-3.29
	C14.21,24.54,12.78,24.58,11.27,23.88z"/>
<path class="st24" d="M42.09,35.3c-4.25-2.73-2.77-6.67-6.8-8.46c-1.04-0.46-1.69-2.64-4.1-5.51c-0.17-1.34-2.11-3.73-5.09-3.73
	c-1.7-0.89-5.87-1.75-10.39-0.33c-1.3,0.2-3.23,0.26-3.44,2.82c-2.57,4.18-1.23,4.68-0.51,5.25c-0.84,2.27,1.24,6.57,1.28,10.08
	c-2.41,6.45,13.01,4.7,10.97,0.51c-1.29-3.39,0.43-3.83,2.81-10.8c1.12,1.54,2.37,2.87,5.13,4.59c1.36,2.41,8.02,7.8,8.02,7.8
	C43.73,45.07,47.87,34.8,42.09,35.3z"/>
<path class="st25" d="M11.49,23.98c-0.23,0.49,0.72,0.94,0.96,0.45C12.66,23.97,11.71,23.52,11.49,23.98z"/>
<path class="st25" d="M22.59,24.42c0.24,0.59,1.35,0.14,1.11-0.45C23.48,23.43,22.37,23.88,22.59,24.42z"/>
<path class="st25" d="M14.22,25.82c-2.61,0.09-3.27-1.18-3.27-1.18C11.03,26.1,12.42,26.63,14.22,25.82z"/>
<path class="st25" d="M25.93,23.68c-1.63,1.18-3.31,2.45-6.35,2.64C22.86,26.74,25.04,25.71,25.93,23.68z"/>
<path class="st25" d="M16.24,34.74c0.29,1.62-0.41,1.55-0.26,2.08C16.14,37.35,17.41,36.36,16.24,34.74z"/>
<linearGradient id="SVGID_25_" gradientUnits="userSpaceOnUse" x1="19.8933" y1="18.2586" x2="19.8933" y2="15.3646">
	<stop  offset="0" style="stop-color:#FFC940"/>
	<stop  offset="0.3152" style="stop-color:#FDC33C"/>
	<stop  offset="0.7272" style="stop-color:#F6B332"/>
	<stop  offset="1" style="stop-color:#F0A429"/>
</linearGradient>
<rect x="16.7" y="15.36" class="st26" width="6.38" height="2.89"/>
<path id="Path_162_" class="st24" d="M26.37,7.61c-1,0.12-1.72,3.46-1.09,4.34c0.09,0.12,0.6,0.32,0.99-0.46
	c0.21-0.43,0.83-0.79,1.01-1.68C27.52,8.68,27.37,7.49,26.37,7.61z"/>
<path id="Path_161_" class="st24" d="M13.41,7.61c1.01,0.12,1.73,3.46,1.1,4.34c-0.09,0.12-0.61,0.32-0.99-0.46
	c-0.21-0.43-0.82-0.79-1.01-1.68C12.26,8.68,12.41,7.49,13.41,7.61z"/>
<path id="Path_160_" class="st25" d="M26.35,8.26c-0.26,0.08-0.55,0.48-0.7,1.14c0.92-0.2,0.69,1.32-0.11,1.35
	c0.01,0.15,0.02,0.31,0.04,0.48c0.38-0.55,0.77-0.33,1.16-1.15C27.08,9.32,26.99,8.05,26.35,8.26z"/>
<path id="Path_159_" class="st25" d="M14.14,9.39c-0.15-0.66-0.44-1.05-0.7-1.14c-0.65-0.2-0.73,1.06-0.38,1.81
	c0.39,0.82,0.78,0.6,1.16,1.15c0.02-0.17,0.03-0.32,0.04-0.48C13.46,10.7,13.24,9.21,14.14,9.39z"/>
<path id="Path_158_" class="st24" d="M19.89,1.19c-4.35,0-6.44,3.27-6.18,7.82c0.05,0.91,0.62,3.9,1.16,4.97
	c0.55,1.1,2.39,2.78,3.52,3.14c0.71,0.22,2.27,0.22,2.99,0c1.13-0.35,2.97-2.04,3.52-3.14c0.54-1.07,1.11-4.05,1.16-4.97
	C26.33,4.46,24.24,1.19,19.89,1.19z"/>
<path id="Path_157_" class="st27" d="M24.62,7.28c-0.99-0.52-2.9-0.55-3.61-0.18c-0.15,0.07-0.05,0.57,0.08,0.52
	c0.99-0.39,2.58-0.4,3.5,0.03C24.72,7.71,24.77,7.35,24.62,7.28z"/>
<path id="Path_156_" class="st27" d="M15.17,7.28c1-0.52,2.9-0.55,3.61-0.18c0.15,0.07,0.05,0.57-0.08,0.52
	c-0.99-0.39-2.58-0.4-3.51,0.03C15.07,7.71,15.02,7.35,15.17,7.28z"/>
<path id="Path_155_" class="st25" d="M21.07,11.82c-0.13-0.09-0.42,0.05-1.17,0.05c-0.76,0-1.05-0.13-1.17-0.05
	c-0.15,0.1,0.09,0.58,1.17,0.58C20.98,12.4,21.21,11.93,21.07,11.82z"/>
<path id="Path_154_" class="st25" d="M19.89,13.6c-0.98-0.29-2.43,0.14-2.43,0.14c0.55,0.6,0.96,1.38,2.43,1.38
	c1.68,0,1.97-0.88,2.43-1.38C22.32,13.74,20.87,13.32,19.89,13.6z"/>
<path id="Path_153_" class="st28" d="M17.83,13.84c1.02,0.86,3.1,0.86,4.13,0C20.86,13.89,18.93,13.89,17.83,13.84z"/>
<path id="Path_152_" class="st28" d="M18.92,9.07c0.04,0.29-0.16,0.63-0.7,0.88c-0.34,0.16-1.06,0.35-2-0.04
	c-0.42-0.17-0.83-0.73-0.8-1.03C15.94,7.92,18.45,7.78,18.92,9.07z"/>
<linearGradient id="Oval_1_" gradientUnits="userSpaceOnUse" x1="-425.801" y1="480.7388" x2="-425.801" y2="481.0369" gradientTransform="matrix(6.5701 0 0 -6.5701 2814.7817 3168.5269)">
	<stop  offset="0" style="stop-color:#A6694A"/>
	<stop  offset="1" style="stop-color:#4F2A1E"/>
</linearGradient>
<path id="Oval_24_" class="st29" d="M17.23,8.07c0.54,0,0.99,0.44,0.99,0.98c0,0.54-0.44,0.98-0.99,0.98s-0.98-0.44-0.98-0.98
	C16.24,8.51,16.68,8.07,17.23,8.07z"/>
<path id="Path_151_" class="st30" d="M16.73,9.03c0,0.68,0.98,0.68,0.98,0C17.72,8.4,16.73,8.4,16.73,9.03z"/>
<path id="Path_150_" class="st31" d="M16.58,8.75c0,0.28,0.41,0.28,0.41,0C17,8.49,16.58,8.49,16.58,8.75z"/>
<path id="Path_149_" class="st25" d="M18.93,9.1c-0.4-1.28-3.12-1.09-3.5-0.23C15.57,7.78,18.59,7.48,18.93,9.1z"/>
<path id="Path_138_" class="st28" d="M20.86,9.07c-0.04,0.29,0.16,0.63,0.7,0.88c0.34,0.16,1.06,0.35,2-0.04
	c0.42-0.17,0.83-0.73,0.8-1.03C23.84,7.92,21.34,7.78,20.86,9.07z"/>
<linearGradient id="Oval_2_" gradientUnits="userSpaceOnUse" x1="-427.6912" y1="480.7388" x2="-427.6912" y2="481.0369" gradientTransform="matrix(6.5701 0 0 -6.5701 2832.5122 3168.5269)">
	<stop  offset="0" style="stop-color:#A6694A"/>
	<stop  offset="1" style="stop-color:#4F2A1E"/>
</linearGradient>
<path id="Oval_23_" class="st32" d="M22.54,8.07c0.54,0,0.99,0.44,0.99,0.98c0,0.54-0.44,0.98-0.99,0.98
	c-0.54,0-0.98-0.44-0.98-0.98C21.55,8.51,21.99,8.07,22.54,8.07z"/>
<path id="Path_137_" class="st30" d="M22.05,9.03c0,0.68,0.98,0.68,0.98,0C23.03,8.4,22.05,8.4,22.05,9.03z"/>
<path id="Path_136_" class="st31" d="M21.9,8.75c0,0.28,0.41,0.28,0.41,0C22.31,8.49,21.9,8.49,21.9,8.75z"/>
<path id="Path_125_" class="st25" d="M20.86,9.1c0.4-1.28,3.12-1.09,3.49-0.23C24.21,7.78,21.2,7.48,20.86,9.1z"/>
<linearGradient id="SVGID_26_" gradientUnits="userSpaceOnUse" x1="19.8924" y1="-0.0523" x2="19.8924" y2="10.402">
	<stop  offset="0.103" style="stop-color:#00EDD1"/>
	<stop  offset="0.1777" style="stop-color:#00E5CA"/>
	<stop  offset="0.508" style="stop-color:#00C8B0"/>
	<stop  offset="0.7936" style="stop-color:#00B6A1"/>
	<stop  offset="1" style="stop-color:#00B09B"/>
</linearGradient>
<path class="st33" d="M25.44,2.28c-0.95-1.28-2.69-1.68-5.55-1.68s-4.6,0.4-5.55,1.68c-1.35,1.81-0.89,7.85-0.29,7.85
	c0.1,0,0.11-2.11,0.29-3.57c0.15-1.19,0.43-2.34,0.76-2.53c1-0.57,2.92,0.25,4.79,0.25c1.87,0,3.79-0.82,4.79-0.25
	c0.33,0.19,0.61,1.34,0.76,2.53c0.18,1.46,0.2,3.57,0.29,3.57C26.33,10.13,26.79,4.09,25.44,2.28z"/>
<path class="st34" d="M25.44,2.28c-0.92-1.3-2.69-2.29-5.55-2.27l0,0l0,0c-2.86-0.02-4.63,0.97-5.55,2.27c0,0,2.34,1.99,5.55,1.99
	C23.11,4.27,25.57,3.86,25.44,2.28z"/>
<linearGradient id="SVGID_27_" gradientUnits="userSpaceOnUse" x1="18.3728" y1="-0.0508" x2="18.3728" y2="10.3973">
	<stop  offset="0.103" style="stop-color:#00EDD1"/>
	<stop  offset="0.1777" style="stop-color:#00E5CA"/>
	<stop  offset="0.508" style="stop-color:#00C8B0"/>
	<stop  offset="0.7936" style="stop-color:#00B6A1"/>
	<stop  offset="1" style="stop-color:#00B09B"/>
</linearGradient>
<path class="st35" d="M14.3,1.6c-0.49,2.49,3.85,3.54,8.18,2.86C18,4.06,15.83,3.21,14.3,1.6z"/>
<path class="st34" d="M14.3,1.6c0.4,1.83,3.3,2.72,5.4,2.83C16.3,3.56,15.95,1.96,14.3,1.6z"/>
<linearGradient id="SVGID_28_" gradientUnits="userSpaceOnUse" x1="19.5411" y1="-0.0536" x2="19.5411" y2="10.4025">
	<stop  offset="0.103" style="stop-color:#00EDD1"/>
	<stop  offset="0.1777" style="stop-color:#00E5CA"/>
	<stop  offset="0.508" style="stop-color:#00C8B0"/>
	<stop  offset="0.7936" style="stop-color:#00B6A1"/>
	<stop  offset="1" style="stop-color:#00B09B"/>
</linearGradient>
<path class="st36" d="M14.67,1.07c-0.07,2.75,5.71,4.6,9.73,2.8C22.37,1.9,16.6,2.45,14.67,1.07z"/>
<path class="st34" d="M14.67,1.07c1.06,1.96,4.13,3.36,7.66,2.73C18.16,3.09,17.16,1.03,14.67,1.07z"/>
<path class="st34" d="M15.33,0.67c1.66,1.41,8.84,4.9,9.86,2.15C24.12,4.19,20.38,0.13,15.33,0.67z"/>
<linearGradient id="SVGID_29_" gradientUnits="userSpaceOnUse" x1="20.3123" y1="-0.0522" x2="20.3123" y2="10.3993">
	<stop  offset="0.103" style="stop-color:#00EDD1"/>
	<stop  offset="0.1777" style="stop-color:#00E5CA"/>
	<stop  offset="0.508" style="stop-color:#00C8B0"/>
	<stop  offset="0.7936" style="stop-color:#00B6A1"/>
	<stop  offset="1" style="stop-color:#00B09B"/>
</linearGradient>
<path class="st37" d="M15.33,0.67c0.28,2.18,8.34,5.08,9.97,2.44C22.85,4.31,16.73,1.96,15.33,0.67z"/>
<linearGradient id="SVGID_30_" gradientUnits="userSpaceOnUse" x1="21.9138" y1="-0.0525" x2="21.9138" y2="10.402">
	<stop  offset="0.103" style="stop-color:#00EDD1"/>
	<stop  offset="0.1777" style="stop-color:#00E5CA"/>
	<stop  offset="0.508" style="stop-color:#00C8B0"/>
	<stop  offset="0.7936" style="stop-color:#00B6A1"/>
	<stop  offset="1" style="stop-color:#00B09B"/>
</linearGradient>
<path class="st38" d="M18.37,1.19c1.91,1.94,7.37,3.73,7.07,1.08C25.33,3.52,21.01,2.61,18.37,1.19z"/>
<linearGradient id="SVGID_31_" gradientUnits="userSpaceOnUse" x1="260.8653" y1="182.8891" x2="262.519" y2="182.8891" gradientTransform="matrix(0.9063 0.4226 -0.4226 0.9063 -116.1314 -240.3339)">
	<stop  offset="0.097" style="stop-color:#F7B500"/>
	<stop  offset="0.4158" style="stop-color:#DB9B00"/>
	<stop  offset="0.781" style="stop-color:#C28300"/>
	<stop  offset="1" style="stop-color:#B87A00"/>
</linearGradient>
<path class="st39" d="M55.23,9.77L31.19,60.99c-0.39,0.82,0.98,1.46,1.37,0.64L56.6,10.41L55.23,9.77z"/>
<linearGradient id="SVGID_32_" gradientUnits="userSpaceOnUse" x1="260.1752" y1="162.6169" x2="263.2769" y2="162.6169" gradientTransform="matrix(0.9063 0.4226 -0.4226 0.9063 -116.1314 -240.3339)">
	<stop  offset="0" style="stop-color:#F7B500"/>
	<stop  offset="0.3531" style="stop-color:#DB9B00"/>
	<stop  offset="0.7575" style="stop-color:#C28300"/>
	<stop  offset="1" style="stop-color:#B87A00"/>
</linearGradient>
<path class="st40" d="M53,19.33c-0.59,0.17-2.11-0.54-2.36-1.1c-0.3-0.69,1.18-2.53,1.18-2.53l2.36,1.1
	C54.18,16.8,53.72,19.12,53,19.33z"/>
<linearGradient id="SVGID_33_" gradientUnits="userSpaceOnUse" x1="258.1304" y1="161.5446" x2="258.1304" y2="151.1405" gradientTransform="matrix(0.9063 0.4226 -0.4226 0.9063 -116.1314 -240.3339)">
	<stop  offset="0" style="stop-color:#F7B500"/>
	<stop  offset="1" style="stop-color:#F7B500"/>
</linearGradient>
<path class="st41" d="M52.04,4.87c-0.7,3.98-2.03,3-3.06,5.38c-0.69,1.6,0.13,2.86,1.22,3.77c0.9,0.74,1.78,0.84,2.37,0.09
	c0.29-0.36,0.24,2.58-0.03,2.45c-1.64-0.76-5.82-2.97-4.41-6.35c1.1-2.63,2.58-2.17,3.37-5.31C51.61,4.52,52.04,4.87,52.04,4.87z"/>
<linearGradient id="SVGID_34_" gradientUnits="userSpaceOnUse" x1="257.6841" y1="162.1695" x2="257.6841" y2="151.2696" gradientTransform="matrix(0.9063 0.4226 -0.4226 0.9063 -116.1314 -240.3339)">
	<stop  offset="0" style="stop-color:#B87A00"/>
	<stop  offset="0.2425" style="stop-color:#C28300"/>
	<stop  offset="0.6469" style="stop-color:#DB9B00"/>
	<stop  offset="1" style="stop-color:#F7B500"/>
</linearGradient>
<path class="st42" d="M51.67,4.82c-0.65,3.69-2.64,2.91-3.5,5.73c-1,3.27,3.07,4.95,4,5.38c0.42,0.2,0,1.13-0.27,1.01
	c-1.64-0.76-5.98-3.04-4.57-6.42c1.1-2.63,3.02-2.48,3.81-5.62C51.23,4.52,51.67,4.82,51.67,4.82z"/>
<linearGradient id="SVGID_35_" gradientUnits="userSpaceOnUse" x1="255.3585" y1="152.3601" x2="255.3585" y2="148.0511" gradientTransform="matrix(0.9063 0.4226 -0.4226 0.9063 -116.1314 -240.3339)">
	<stop  offset="0" style="stop-color:#F7B500"/>
	<stop  offset="1" style="stop-color:#F7B500"/>
</linearGradient>
<path class="st43" d="M50.27,5.37l1.34-0.25c0,0,2.06-2.99,1.87-3.01C53.01,2.07,50.52,3.26,50.27,5.37z"/>
<linearGradient id="SVGID_36_" gradientUnits="userSpaceOnUse" x1="256.2951" y1="151.5652" x2="256.2951" y2="148.0505" gradientTransform="matrix(0.9063 0.4226 -0.4226 0.9063 -116.1314 -240.3339)">
	<stop  offset="0" style="stop-color:#B87A00"/>
	<stop  offset="0.2425" style="stop-color:#C28300"/>
	<stop  offset="0.6469" style="stop-color:#DB9B00"/>
	<stop  offset="1" style="stop-color:#F7B500"/>
</linearGradient>
<path class="st44" d="M51.61,5.11l1.36,0.31c-0.57-1.62,0.7-3.3,0.51-3.31C53.01,2.07,51.85,3,51.61,5.11z"/>
<linearGradient id="SVGID_37_" gradientUnits="userSpaceOnUse" x1="337.3078" y1="161.32" x2="337.3078" y2="150.911" gradientTransform="matrix(-0.9063 -0.4226 -0.4226 0.9063 429.9399 14.5421)">
	<stop  offset="0" style="stop-color:#F7B500"/>
	<stop  offset="1" style="stop-color:#F7B500"/>
</linearGradient>
<path class="st45" d="M62.35,9.67c-2.6,3.1-1,3.48-2.16,5.8c-0.78,1.56-2.28,1.74-3.68,1.49c-1.15-0.21-1.79-0.82-1.59-1.76
	c0.09-0.45-2.13,1.48-1.86,1.6c1.64,0.76,6.01,2.55,7.7-0.71c1.31-2.53,0.01-3.37,1.91-5.99C62.9,9.78,62.35,9.67,62.35,9.67z"/>
<linearGradient id="SVGID_38_" gradientUnits="userSpaceOnUse" x1="336.8619" y1="161.9444" x2="336.8619" y2="151.0398" gradientTransform="matrix(-0.9063 -0.4226 -0.4226 0.9063 429.9399 14.5421)">
	<stop  offset="0" style="stop-color:#B87A00"/>
	<stop  offset="0.2425" style="stop-color:#C28300"/>
	<stop  offset="0.6469" style="stop-color:#DB9B00"/>
	<stop  offset="1" style="stop-color:#F7B500"/>
</linearGradient>
<path class="st46" d="M62.63,9.93c-2.41,2.87-0.53,3.89-2.15,6.36c-1.86,2.86-5.77,0.83-6.7,0.4c-0.42-0.2-0.87,0.73-0.6,0.86
	c1.64,0.76,6.18,2.62,7.86-0.63c1.31-2.53-0.04-3.91,1.86-6.53C63.14,10.06,62.63,9.93,62.63,9.93z"/>
<linearGradient id="SVGID_39_" gradientUnits="userSpaceOnUse" x1="334.527" y1="152.1295" x2="334.527" y2="147.822" gradientTransform="matrix(-0.9063 -0.4226 -0.4226 0.9063 429.9399 14.5421)">
	<stop  offset="0" style="stop-color:#F7B500"/>
	<stop  offset="1" style="stop-color:#F7B500"/>
</linearGradient>
<path class="st47" d="M63.1,11.34l-0.66-1.19c0,0,0.97-3.5,1.1-3.36C63.87,7.13,64.57,9.8,63.1,11.34z"/>
<linearGradient id="SVGID_40_" gradientUnits="userSpaceOnUse" x1="335.4644" y1="151.3356" x2="335.4644" y2="147.8213" gradientTransform="matrix(-0.9063 -0.4226 -0.4226 0.9063 429.9399 14.5421)">
	<stop  offset="0" style="stop-color:#B87A00"/>
	<stop  offset="0.2425" style="stop-color:#C28300"/>
	<stop  offset="0.6469" style="stop-color:#DB9B00"/>
	<stop  offset="1" style="stop-color:#F7B500"/>
</linearGradient>
<path class="st48" d="M62.44,10.16l-1.11-0.84c1.6-0.61,2.08-2.65,2.21-2.52C63.87,7.13,63.9,8.61,62.44,10.16z"/>
<linearGradient id="SVGID_41_" gradientUnits="userSpaceOnUse" x1="261.0308" y1="160.9856" x2="261.0308" y2="148.9019" gradientTransform="matrix(0.9063 0.4226 -0.4226 0.9063 -116.1314 -240.3339)">
	<stop  offset="0" style="stop-color:#F7B500"/>
	<stop  offset="1" style="stop-color:#F7B500"/>
</linearGradient>
<polygon class="st49" points="53.13,15.97 58.15,5.22 57.61,4.97 51.77,15.58 "/>
<linearGradient id="SVGID_42_" gradientUnits="userSpaceOnUse" x1="262.426" y1="160.9843" x2="262.426" y2="148.9017" gradientTransform="matrix(0.9063 0.4226 -0.4226 0.9063 -116.1314 -240.3339)">
	<stop  offset="0.097" style="stop-color:#F7B500"/>
	<stop  offset="0.4158" style="stop-color:#DB9B00"/>
	<stop  offset="0.781" style="stop-color:#C28300"/>
	<stop  offset="1" style="stop-color:#B87A00"/>
</linearGradient>
<polygon class="st50" points="53.13,15.97 58.15,5.22 58.7,5.48 54.31,16.76 "/>
<linearGradient id="SVGID_43_" gradientUnits="userSpaceOnUse" x1="260.9591" y1="149.9502" x2="260.9591" y2="145.9933" gradientTransform="matrix(0.9063 0.4226 -0.4226 0.9063 -116.1314 -240.3339)">
	<stop  offset="0" style="stop-color:#F7B500"/>
	<stop  offset="1" style="stop-color:#F7B500"/>
</linearGradient>
<path class="st51" d="M59.38,2.59L57.9,5.76l-1.6-0.24C56.3,5.52,57.14,4.18,59.38,2.59z"/>
<linearGradient id="SVGID_44_" gradientUnits="userSpaceOnUse" x1="262.506" y1="149.9488" x2="262.506" y2="145.9933" gradientTransform="matrix(0.9063 0.4226 -0.4226 0.9063 -116.1314 -240.3339)">
	<stop  offset="0" style="stop-color:#B87A00"/>
	<stop  offset="0.2425" style="stop-color:#C28300"/>
	<stop  offset="0.6469" style="stop-color:#DB9B00"/>
	<stop  offset="1" style="stop-color:#F7B500"/>
</linearGradient>
<path class="st52" d="M59.38,2.59L57.9,5.76l1.21,1.07C59.11,6.83,59.6,5.33,59.38,2.59z"/>
<linearGradient id="SVGID_45_" gradientUnits="userSpaceOnUse" x1="261.7269" y1="164.1609" x2="261.7269" y2="159.3061" gradientTransform="matrix(0.9063 0.4226 -0.4226 0.9063 -116.1314 -240.3339)">
	<stop  offset="0" style="stop-color:#F7B500"/>
	<stop  offset="1" style="stop-color:#F7B500"/>
</linearGradient>
<path class="st53" d="M53.75,14.65c0,0-1.3,1.12-2.84,0.67c1.29,0.99,0.79,3.73,0.79,3.73s1.78-2.15,3.37-1.79
	C53.72,16.37,53.75,14.65,53.75,14.65z"/>
<path class="st24" d="M42.36,39.43c0,0-0.11-0.63,0.6-0.85c-0.33-0.6,0.24-1.06,0.69-1.05c-0.17-0.22,0.14-0.71,0.14-0.71
	s-1.52,1.2-2.23,0.83c-1.55-0.82-0.48-2.21,0.08-2.45c1.53-0.66,2.32,0.31,3.99,0.71c0.31,0.08,0.88,0.59-0.38,1.23
	c0,0,0.8,0.62-0.25,1.33c0.59,0.39-0.15,1.27-0.71,1.1c-0.06,0.86-0.75,1.07-1.04,0.89C42.41,41.62,40.85,39.71,42.36,39.43z"/>
<path class="st25" d="M42.36,39.43c0.27,0.42,0.89,1.03,0.89,1.03S42.56,40.11,42.36,39.43z"/>
<path class="st25" d="M42.96,38.58c0.27,0.42,1.33,0.99,1.33,0.99S43.16,39.27,42.96,38.58z"/>
<path class="st25" d="M43.64,37.53c0.27,0.42,1.35,0.93,1.35,0.93S43.85,38.22,43.64,37.53z"/>
<path class="st25" d="M43.79,36.82c0.71-0.23,1.45,0.31,1.45,0.31S44.46,36.85,43.79,36.82z"/>
</svg>
