<?xml version="1.0" encoding="utf-8"?>
<!-- Generator: Adobe Illustrator 15.0.0, SVG Export Plug-In . SVG Version: 6.00 Build 0)  -->
<!DOCTYPE svg PUBLIC "-//W3C//DTD SVG 1.1//EN" "http://www.w3.org/Graphics/SVG/1.1/DTD/svg11.dtd" [
	<!ENTITY ns_flows "http://ns.adobe.com/Flows/1.0/">
	<!ENTITY ns_extend "http://ns.adobe.com/Extensibility/1.0/">
	<!ENTITY ns_ai "http://ns.adobe.com/AdobeIllustrator/10.0/">
	<!ENTITY ns_graphs "http://ns.adobe.com/Graphs/1.0/">
]>
<svg version="1.1" id="Layer_1" xmlns:x="&ns_extend;" xmlns:i="&ns_ai;" xmlns:graph="&ns_graphs;"
	 xmlns="http://www.w3.org/2000/svg" xmlns:xlink="http://www.w3.org/1999/xlink" xmlns:a="http://ns.adobe.com/AdobeSVGViewerExtensions/3.0/"
	 x="0px" y="0px" width="64px" height="64px" viewBox="0 0 64 64" enable-background="new 0 0 64 64" xml:space="preserve">
<path id="Path_740_" fill="#FFD8B4" d="M53.635,26.562c-3.35,0.406-5.768,11.621-3.662,14.582c0.295,0.414,2.021,1.072,3.301-1.539
	c0.709-1.447,2.754-2.654,3.387-5.639C57.473,30.144,56.967,26.157,53.635,26.562z"/>
<path id="Path_739_" fill="#FFD8B4" d="M10.367,26.562c3.35,0.406,5.768,11.621,3.66,14.582c-0.295,0.414-2.021,1.072-3.301-1.539
	c-0.709-1.447-2.754-2.654-3.387-5.639C6.527,30.144,7.035,26.157,10.367,26.562z"/>
<path id="Path_738_" fill="#DEB38A" d="M53.543,28.712c-0.873,0.275-1.826,1.607-2.344,3.818c3.055-0.656,2.291,4.432-0.363,4.527
	c0.023,0.512,0.059,1.039,0.121,1.594c1.279-1.859,2.578-1.113,3.865-3.877C55.982,32.282,55.707,28.032,53.543,28.712z"/>
<path id="Path_737_" fill="#DEB38A" d="M12.801,32.524c-0.518-2.207-1.469-3.539-2.342-3.813c-2.164-0.68-2.441,3.57-1.281,6.063
	c1.287,2.764,2.586,2.018,3.867,3.877c0.063-0.557,0.098-1.084,0.119-1.596C10.537,36.931,9.785,31.905,12.801,32.524z"/>
<path fill="#FFD8B4" d="M32,4.999c-14.512,0-21.502,11.818-20.629,27.014c0.18,3.055,1.029,7.463,2.078,11.238
	c2.176,7.848,13.66,15.75,18.551,15.75c4.889,0,16.373-7.902,18.551-15.75c1.049-3.775,1.898-8.184,2.078-11.238
	C53.5,16.817,46.514,4.999,32,4.999z"/>
<path id="Path_736_" fill="#A88868" d="M47.766,25.442c-3.318-1.758-9.67-1.844-12.035-0.619c-0.508,0.236-0.172,1.902,0.254,1.744
	c3.297-1.305,8.615-1.334,11.701,0.111C48.098,26.866,48.27,25.687,47.766,25.442z"/>
<path id="Path_735_" fill="#A88868" d="M16.234,25.442c3.318-1.758,9.666-1.844,12.035-0.619c0.506,0.236,0.172,1.902-0.254,1.744
	c-3.303-1.305-8.613-1.334-11.703,0.111C15.902,26.866,15.732,25.687,16.234,25.442z"/>
<path id="Path_734_" fill="#DEB38A" d="M35.916,40.688c-0.414-0.289-1.387,0.156-3.916,0.156c-2.527,0-3.5-0.445-3.916-0.156
	c-0.496,0.35,0.295,1.928,3.916,1.928C35.623,42.616,36.414,41.038,35.916,40.688z"/>
<path id="Path_733_" fill="#DEB38A" d="M32,46.669c-3.264-0.959-8.1,0.455-8.1,0.455c1.842,2.008,3.191,4.609,8.1,4.609
	c5.623,0,6.58-2.955,8.102-4.609C40.102,47.124,35.262,45.704,32,46.669z"/>
<path id="Path_732_" fill="#FFFFFF" d="M25.115,47.464c3.422,2.871,10.33,2.891,13.771,0C35.24,47.62,28.787,47.622,25.115,47.464z"
	/>
<path id="Path_731_" fill="#FFFFFF" d="M28.771,31.431c0.123,0.961-0.529,2.1-2.334,2.953c-1.146,0.543-3.531,1.182-6.666-0.141
	c-1.404-0.592-2.773-2.438-2.65-3.457C18.82,27.583,27.182,27.114,28.771,31.431z"/>
<linearGradient id="Oval_1_" gradientUnits="userSpaceOnUse" x1="-424.9072" y1="476.9902" x2="-424.9072" y2="477.9902" gradientTransform="matrix(6.5701 0 0 -6.5701 2814.7805 3168.5281)">
	<stop  offset="0" style="stop-color:#A6694A"/>
	<stop  offset="1" style="stop-color:#4F2A1E"/>
	<a:midPointStop  offset="0" style="stop-color:#A6694A"/>
	<a:midPointStop  offset="0.5" style="stop-color:#A6694A"/>
	<a:midPointStop  offset="1" style="stop-color:#4F2A1E"/>
</linearGradient>
<circle id="Oval_84_" fill="url(#Oval_1_)" cx="23.098" cy="31.366" r="3.285"/>
<path id="Path_730_" fill="#1A1626" d="M21.457,31.306c0,2.273,3.285,2.273,3.285,0C24.742,29.196,21.457,29.196,21.457,31.306z"/>
<path id="Path_729_" fill="#AB968C" d="M20.957,30.386c0,0.953,1.377,0.953,1.377,0C22.334,29.503,20.957,29.503,20.957,30.386z"/>
<path id="Path_728_" fill="#DEB38A" d="M28.787,31.558c-1.334-4.287-10.428-3.654-11.666-0.771
	C17.58,27.095,27.65,26.12,28.787,31.558z"/>
<path id="Path_727_" fill="#FFFFFF" d="M35.229,31.431c-0.123,0.961,0.529,2.1,2.334,2.953c1.146,0.543,3.531,1.182,6.666-0.141
	c1.406-0.592,2.773-2.438,2.65-3.457C45.182,27.583,36.818,27.114,35.229,31.431z"/>
<linearGradient id="Oval_2_" gradientUnits="userSpaceOnUse" x1="-424.9072" y1="476.9902" x2="-424.9072" y2="477.9902" gradientTransform="matrix(6.5701 0 0 -6.5701 2832.511 3168.5281)">
	<stop  offset="0" style="stop-color:#A6694A"/>
	<stop  offset="1" style="stop-color:#4F2A1E"/>
	<a:midPointStop  offset="0" style="stop-color:#A6694A"/>
	<a:midPointStop  offset="0.5" style="stop-color:#A6694A"/>
	<a:midPointStop  offset="1" style="stop-color:#4F2A1E"/>
</linearGradient>
<circle id="Oval_83_" fill="url(#Oval_2_)" cx="40.828" cy="31.366" r="3.285"/>
<path id="Path_726_" fill="#1A1626" d="M39.188,31.306c0,2.273,3.285,2.273,3.285,0C42.473,29.196,39.188,29.196,39.188,31.306z"/>
<path id="Path_725_" fill="#AB968C" d="M38.688,30.386c0,0.953,1.377,0.953,1.377,0C40.064,29.503,38.688,29.503,38.688,30.386z"/>
<path id="Path_724_" fill="#DEB38A" d="M35.215,31.558c1.332-4.285,10.42-3.672,11.664-0.771
	C46.418,27.095,36.35,26.12,35.215,31.558z"/>
</svg>
