<?xml version="1.0" encoding="utf-8"?>
<!-- Generator: Adobe Illustrator 15.0.0, SVG Export Plug-In . SVG Version: 6.00 Build 0)  -->
<!DOCTYPE svg PUBLIC "-//W3C//DTD SVG 1.1//EN" "http://www.w3.org/Graphics/SVG/1.1/DTD/svg11.dtd" [
	<!ENTITY ns_flows "http://ns.adobe.com/Flows/1.0/">
	<!ENTITY ns_extend "http://ns.adobe.com/Extensibility/1.0/">
	<!ENTITY ns_ai "http://ns.adobe.com/AdobeIllustrator/10.0/">
	<!ENTITY ns_graphs "http://ns.adobe.com/Graphs/1.0/">
]>
<svg version="1.1" id="Layer_1" xmlns:x="&ns_extend;" xmlns:i="&ns_ai;" xmlns:graph="&ns_graphs;"
	 xmlns="http://www.w3.org/2000/svg" xmlns:xlink="http://www.w3.org/1999/xlink" xmlns:a="http://ns.adobe.com/AdobeSVGViewerExtensions/3.0/"
	 x="0px" y="0px" width="64px" height="64px" viewBox="0 0 64 64" enable-background="new 0 0 64 64" xml:space="preserve">
<path fill="#1E110E" d="M47.184,38.785c1.08,0.715,2.326,1.248,3.781,1.521c-2.582-5.889,1.313-18.238-6.668-27.312
	c-11.25,0.338-12.807,36.722,2.875,31.884c-0.998-0.434-1.623-1.316-1.99-2.43c1.209,0.346,2.621,0.357,4.268-0.148
	C48.139,41.734,47.473,40.398,47.184,38.785z"/>
<path fill="#1E110E" d="M18.945,12.995c-7.979,9.074-3.326,21.423-5.91,27.312c1.455-0.273,2.701-0.807,3.781-1.521
	c-0.287,1.613-0.955,2.949-2.264,3.516c1.645,0.506,3.057,0.494,4.266,0.148c-0.367,1.113-0.99,1.996-1.99,2.43
	C32.51,49.717,30.195,13.333,18.945,12.995z"/>
<path id="Path_3019_" fill="#FFD8B4" d="M48.412,25.392c-2.541,0.308-4.375,8.815-2.777,11.062c0.223,0.314,1.533,0.814,2.504-1.166
	c0.537-1.1,2.09-2.014,2.568-4.279C51.324,28.109,50.939,25.085,48.412,25.392z"/>
<path id="Path_3018_" fill="#FFD8B4" d="M15.59,25.392c2.541,0.308,4.375,8.815,2.777,11.062c-0.225,0.314-1.533,0.814-2.504-1.166
	c-0.539-1.1-2.09-2.014-2.57-4.279C12.678,28.109,13.063,25.085,15.59,25.392z"/>
<path id="Path_3017_" fill="#DEB38A" d="M48.344,27.023c-0.662,0.209-1.387,1.219-1.779,2.896c2.318-0.498,1.738,3.362-0.275,3.434
	c0.018,0.389,0.045,0.789,0.092,1.209c0.971-1.41,1.957-0.844,2.934-2.94C50.193,29.731,49.984,26.507,48.344,27.023z"/>
<path id="Path_3016_" fill="#DEB38A" d="M17.436,29.915c-0.393-1.674-1.113-2.685-1.775-2.892c-1.643-0.516-1.852,2.708-0.973,4.6
	c0.977,2.096,1.963,1.53,2.934,2.94c0.047-0.422,0.074-0.822,0.09-1.209C15.719,33.258,15.148,29.445,17.436,29.915z"/>
<path fill="#FFD8B4" d="M32,9.034c-11.008,0-16.311,8.965-15.648,20.493c0.137,2.317,0.781,5.661,1.576,8.526
	C19.578,44.006,28.291,50,32,50s12.422-5.994,14.072-11.947c0.797-2.865,1.441-6.208,1.578-8.526C48.311,18,43.01,9.034,32,9.034z"
	/>
<path id="Path_3015_" fill="#A88868" d="M43.961,24.542c-2.518-1.333-7.336-1.398-9.131-0.47c-0.385,0.18-0.129,1.443,0.193,1.323
	c2.5-0.99,6.535-1.012,8.877,0.084C44.213,25.623,44.342,24.728,43.961,24.542z"/>
<path id="Path_3014_" fill="#A88868" d="M20.041,24.542c2.518-1.333,7.332-1.398,9.129-0.47c0.385,0.18,0.131,1.443-0.191,1.323
	c-2.506-0.99-6.535-1.012-8.879,0.084C19.789,25.623,19.66,24.728,20.041,24.542z"/>
<path id="Path_3013_" fill="#DEB38A" d="M34.971,36.109c-0.313-0.221-1.051,0.117-2.971,0.117c-1.916,0-2.654-0.338-2.971-0.117
	C28.654,36.373,29.254,37.57,32,37.57C34.75,37.57,35.35,36.373,34.971,36.109z"/>
<path id="Path_3012_" fill="#DEB38A" d="M32,40.645c-2.475-0.727-6.145,0.346-6.145,0.346c1.398,1.523,2.422,3.496,6.145,3.496
	c4.266,0,4.992-2.24,6.146-3.496C38.146,40.99,34.475,39.914,32,40.645z"/>
<path id="Path_3011_" fill="#FFFFFF" d="M26.777,41.248c2.596,2.178,7.838,2.193,10.447,0
	C34.459,41.367,29.563,41.369,26.777,41.248z"/>
<path id="Path_3010_" fill="#FFFFFF" d="M29.551,29.085c0.094,0.729-0.4,1.593-1.77,2.24c-0.869,0.412-2.68,0.897-5.057-0.107
	c-1.066-0.448-2.104-1.849-2.012-2.622C22.002,26.167,28.346,25.811,29.551,29.085z"/>
<linearGradient id="Oval_1_" gradientUnits="userSpaceOnUse" x1="-424.5796" y1="477.4658" x2="-424.5796" y2="478.2246" gradientTransform="matrix(6.5701 0 0 -6.5701 2814.7805 3168.5281)">
	<stop  offset="0" style="stop-color:#A6694A"/>
	<stop  offset="1" style="stop-color:#4F2A1E"/>
	<a:midPointStop  offset="0" style="stop-color:#A6694A"/>
	<a:midPointStop  offset="0.5" style="stop-color:#A6694A"/>
	<a:midPointStop  offset="1" style="stop-color:#4F2A1E"/>
</linearGradient>
<circle id="Oval_346_" fill="url(#Oval_1_)" cx="25.248" cy="29.037" r="2.492"/>
<path id="Path_3009_" fill="#1A1626" d="M24.002,28.99c0,1.725,2.492,1.725,2.492,0C26.494,27.39,24.002,27.39,24.002,28.99z"/>
<path id="Path_3008_" fill="#AB968C" d="M23.623,28.292c0,0.723,1.045,0.723,1.045,0C24.668,27.623,23.623,27.623,23.623,28.292z"/>
<path id="Path_3007_" fill="#DEB38A" d="M29.563,29.182c-1.012-3.252-7.91-2.772-8.85-0.585
	C21.063,25.796,28.701,25.057,29.563,29.182z"/>
<path id="Path_3006_" fill="#FFFFFF" d="M34.449,29.085c-0.092,0.729,0.402,1.593,1.771,2.24c0.869,0.412,2.678,0.897,5.057-0.107
	c1.066-0.448,2.104-1.849,2.01-2.622C42,26.167,35.656,25.811,34.449,29.085z"/>
<linearGradient id="Oval_2_" gradientUnits="userSpaceOnUse" x1="-425.2314" y1="477.4658" x2="-425.2314" y2="478.2246" gradientTransform="matrix(6.5701 0 0 -6.5701 2832.511 3168.5281)">
	<stop  offset="0" style="stop-color:#A6694A"/>
	<stop  offset="1" style="stop-color:#4F2A1E"/>
	<a:midPointStop  offset="0" style="stop-color:#A6694A"/>
	<a:midPointStop  offset="0.5" style="stop-color:#A6694A"/>
	<a:midPointStop  offset="1" style="stop-color:#4F2A1E"/>
</linearGradient>
<circle id="Oval_345_" fill="url(#Oval_2_)" cx="38.697" cy="29.037" r="2.492"/>
<path id="Path_3005_" fill="#1A1626" d="M37.453,28.99c0,1.725,2.492,1.725,2.492,0C39.945,27.39,37.453,27.39,37.453,28.99z"/>
<path id="Path_3004_" fill="#AB968C" d="M37.074,28.292c0,0.723,1.045,0.723,1.045,0C38.119,27.623,37.074,27.623,37.074,28.292z"/>
<path id="Path_3003_" fill="#DEB38A" d="M34.439,29.182c1.01-3.251,7.904-2.786,8.848-0.585
	C42.938,25.796,35.301,25.057,34.439,29.182z"/>
<linearGradient id="SVGID_1_" gradientUnits="userSpaceOnUse" x1="31.8364" y1="31.8179" x2="31.8364" y2="6">
	<stop  offset="0" style="stop-color:#1E110E"/>
	<stop  offset="0.2821" style="stop-color:#31211E"/>
	<stop  offset="0.7266" style="stop-color:#493632"/>
	<stop  offset="1" style="stop-color:#523E3A"/>
	<a:midPointStop  offset="0" style="stop-color:#1E110E"/>
	<a:midPointStop  offset="0.4" style="stop-color:#1E110E"/>
	<a:midPointStop  offset="1" style="stop-color:#523E3A"/>
</linearGradient>
<path fill="url(#SVGID_1_)" d="M32.002,6c-6.699,0-10.045,3.034-10.725,4.473c-8.098,1.852-10.703,15.516-4.641,21.345
	c0.754-6.211,1.479-10.202,5.607-14.405c2.408,3.227,7.41,5.042,11.889,5.042c-2.121-1.541-3.566-3.051-4.701-4.458
	c7.479,3.433,15.855,5.63,17.934,13.821C54.561,20.358,48.584,6,32.002,6z"/>
<path fill="#1E110E" d="M21.26,10.472c-0.08,4.427,2.184,9.995,12.877,11.982C26.488,22.971,18.639,18.348,21.26,10.472z"/>
<path fill="#1E110E" d="M21.752,16.613c-2.785,2.746-5.736,7.938-5.143,15.205c0.553-6.005,3.313-10.95,5.811-14.153
	C22.242,17.472,21.902,16.831,21.752,16.613z"/>
<path fill="#1E110E" d="M26.705,15.235c5.764,5.504,19.174,3.535,20.688,16.583C43.807,20.545,31.648,23.074,26.705,15.235z"/>
<linearGradient id="SVGID_2_" gradientUnits="userSpaceOnUse" x1="32.0005" y1="62" x2="32.0005" y2="38">
	<stop  offset="0" style="stop-color:#99A8AE"/>
	<stop  offset="0.9333" style="stop-color:#CFD8DD"/>
	<stop  offset="0.9818" style="stop-color:#E6EBEF"/>
	<a:midPointStop  offset="0" style="stop-color:#99A8AE"/>
	<a:midPointStop  offset="0.5" style="stop-color:#99A8AE"/>
	<a:midPointStop  offset="0.9333" style="stop-color:#CFD8DD"/>
	<a:midPointStop  offset="0.5" style="stop-color:#CFD8DD"/>
	<a:midPointStop  offset="0.9818" style="stop-color:#E6EBEF"/>
</linearGradient>
<path fill="url(#SVGID_2_)" d="M56.986,38H7.014c-0.625,0-1.078,0.412-1.006,0.916l3.148,22.166C9.227,61.586,9.797,62,10.42,62
	h43.158c0.625,0,1.195-0.414,1.266-0.918l3.148-22.166C58.064,38.412,57.609,38,56.986,38"/>
<path id="Shape_1_" fill="#E6EBEF" d="M32,47.6c1.654,0,3,1.078,3,2.4c0,1.324-1.346,2.4-3,2.4c-1.653,0-3-1.076-3-2.4
	C29,48.678,30.347,47.6,32,47.6z M32,46.801c-2.208,0-4,1.432-4,3.199s1.792,3.201,4,3.201c2.209,0,4-1.434,4-3.201
	S34.209,46.801,32,46.801z"/>
<path id="Combined-Shape_1_" fill="#E6EBEF" d="M32.802,50.32c-0.135,0-0.202-0.053-0.202-0.158v-0.32
	c0-0.109,0.067-0.162,0.202-0.162H34.1c0.135,0,0.202,0.053,0.202,0.162V50c0,1.018-1.03,1.842-2.302,1.842
	c-0.617,0-1.197-0.197-1.625-0.539c-0.096-0.078-0.096-0.15-0.002-0.227l0.427-0.34c0.094-0.074,0.188-0.074,0.281,0
	c0.244,0.193,0.57,0.305,0.919,0.305c0.578,0,1.068-0.301,1.239-0.721H32.802z"/>
</svg>
