<?xml version="1.0" encoding="utf-8"?>
<!-- Generator: Adobe Illustrator 15.0.0, SVG Export Plug-In . SVG Version: 6.00 Build 0)  -->
<!DOCTYPE svg PUBLIC "-//W3C//DTD SVG 1.1//EN" "http://www.w3.org/Graphics/SVG/1.1/DTD/svg11.dtd" [
	<!ENTITY ns_flows "http://ns.adobe.com/Flows/1.0/">
	<!ENTITY ns_extend "http://ns.adobe.com/Extensibility/1.0/">
	<!ENTITY ns_ai "http://ns.adobe.com/AdobeIllustrator/10.0/">
	<!ENTITY ns_graphs "http://ns.adobe.com/Graphs/1.0/">
]>
<svg version="1.1" id="Layer_1" xmlns:x="&ns_extend;" xmlns:i="&ns_ai;" xmlns:graph="&ns_graphs;"
	 xmlns="http://www.w3.org/2000/svg" xmlns:xlink="http://www.w3.org/1999/xlink" xmlns:a="http://ns.adobe.com/AdobeSVGViewerExtensions/3.0/"
	 x="0px" y="0px" width="64px" height="64px" viewBox="0 0 64 64" enable-background="new 0 0 64 64" xml:space="preserve">
<linearGradient id="SVGID_1_" gradientUnits="userSpaceOnUse" x1="30.9272" y1="35.5156" x2="52.709" y2="35.5156">
	<stop  offset="0" style="stop-color:#B9F44C"/>
	<stop  offset="0.1759" style="stop-color:#95E76C"/>
	<stop  offset="0.3211" style="stop-color:#7EDE81"/>
	<stop  offset="0.4131" style="stop-color:#76DB88"/>
	<stop  offset="0.637" style="stop-color:#4AC5A3"/>
	<stop  offset="0.8767" style="stop-color:#20B0BC"/>
	<stop  offset="1" style="stop-color:#10A8C6"/>
	<a:midPointStop  offset="0" style="stop-color:#B9F44C"/>
	<a:midPointStop  offset="0.5" style="stop-color:#B9F44C"/>
	<a:midPointStop  offset="0.1759" style="stop-color:#95E76C"/>
	<a:midPointStop  offset="0.5" style="stop-color:#95E76C"/>
	<a:midPointStop  offset="0.3211" style="stop-color:#7EDE81"/>
	<a:midPointStop  offset="0.5" style="stop-color:#7EDE81"/>
	<a:midPointStop  offset="0.4131" style="stop-color:#76DB88"/>
	<a:midPointStop  offset="0.5" style="stop-color:#76DB88"/>
	<a:midPointStop  offset="0.637" style="stop-color:#4AC5A3"/>
	<a:midPointStop  offset="0.5" style="stop-color:#4AC5A3"/>
	<a:midPointStop  offset="0.8767" style="stop-color:#20B0BC"/>
	<a:midPointStop  offset="0.5" style="stop-color:#20B0BC"/>
	<a:midPointStop  offset="1" style="stop-color:#10A8C6"/>
</linearGradient>
<path fill="url(#SVGID_1_)" d="M50.719,46.471C37.428,47.39,30.927,34.6,30.927,26.133c9.305-5.296,18.805,3.369,18.603,12.023
	C49.471,40.731,55.832,46.121,50.719,46.471z"/>
<path opacity="0.1" fill="#297124" d="M51.12,44.858c-4.161-1.502-6.083-5.083-8.123-8.875c-1.176-2.188-2.379-4.406-4.045-6.222
	c5.385-0.051,7.397,2.612,8.841,6.924c0.041,0.127,0.155,0.206,0.279,0.206c0.031,0,0.063-0.006,0.097-0.017
	c0.153-0.057,0.233-0.231,0.181-0.39c-1.539-4.597-3.842-7.602-9.988-7.327c-1.79-1.723-4.1-2.985-7.405-3.331
	c-0.162-0.019-0.309,0.106-0.324,0.277c-0.016,0.166,0.105,0.316,0.266,0.333c1.5,0.156,2.782,0.511,3.898,1.011
	c-0.919,2.789,0.246,4.443,1.599,6.341c1.314,1.841,2.804,3.929,2.804,7.662c0,0.169,0.132,0.302,0.294,0.302
	c0.166,0,0.297-0.133,0.297-0.302c0-3.934-1.619-6.202-2.92-8.025c-1.295-1.816-2.319-3.268-1.535-5.726
	c3.483,1.785,5.281,5.11,7.147,8.583c2.003,3.721,4.072,7.573,8.447,9.152c0.032,0.011,0.065,0.017,0.097,0.017
	c0.122,0,0.238-0.079,0.277-0.204C51.355,45.088,51.275,44.913,51.12,44.858z"/>
<linearGradient id="SVGID_2_" gradientUnits="userSpaceOnUse" x1="30.9272" y1="13.1133" x2="60.001" y2="13.1133">
	<stop  offset="0" style="stop-color:#B9F44C"/>
	<stop  offset="0.1759" style="stop-color:#95E76C"/>
	<stop  offset="0.3211" style="stop-color:#7EDE81"/>
	<stop  offset="0.4131" style="stop-color:#76DB88"/>
	<stop  offset="0.637" style="stop-color:#4AC5A3"/>
	<stop  offset="0.8767" style="stop-color:#20B0BC"/>
	<stop  offset="1" style="stop-color:#10A8C6"/>
	<a:midPointStop  offset="0" style="stop-color:#B9F44C"/>
	<a:midPointStop  offset="0.5" style="stop-color:#B9F44C"/>
	<a:midPointStop  offset="0.1759" style="stop-color:#95E76C"/>
	<a:midPointStop  offset="0.5" style="stop-color:#95E76C"/>
	<a:midPointStop  offset="0.3211" style="stop-color:#7EDE81"/>
	<a:midPointStop  offset="0.5" style="stop-color:#7EDE81"/>
	<a:midPointStop  offset="0.4131" style="stop-color:#76DB88"/>
	<a:midPointStop  offset="0.5" style="stop-color:#76DB88"/>
	<a:midPointStop  offset="0.637" style="stop-color:#4AC5A3"/>
	<a:midPointStop  offset="0.5" style="stop-color:#4AC5A3"/>
	<a:midPointStop  offset="0.8767" style="stop-color:#20B0BC"/>
	<a:midPointStop  offset="0.5" style="stop-color:#20B0BC"/>
	<a:midPointStop  offset="1" style="stop-color:#10A8C6"/>
</linearGradient>
<path fill="url(#SVGID_2_)" d="M58.545,0.308C38.048-2.781,30.927,18.184,30.927,26.133c9.417,0.452,16.479-0.607,16.718-6.235
	c0.217-5.125,8.243-2.423,6.861-9.877C53.938,6.95,63.566,1.063,58.545,0.308z"/>
<path opacity="0.2" fill="#297124" d="M48.539,7.681c3.233-1.515,6.575-3.079,9.463-5.727c0.123-0.11,0.133-0.305,0.025-0.43
	c-0.109-0.129-0.297-0.14-0.416-0.027c-2.822,2.586-5.976,4.061-9.316,5.628c-6.634,3.105-13.492,6.32-17.59,18.746
	c0.263,0.048,0.41,0.252,0.443,0.483c2.163-1.194,4.14-3.338,6.235-5.608c0.496-0.544,1.002-1.09,1.508-1.625
	c1.859,0.11,2.729,1.083,3.496,1.949c0.652,0.744,1.281,1.459,2.371,1.459c0.538,0,1.186-0.173,2.004-0.603
	c0.146-0.075,0.204-0.261,0.131-0.412c-0.074-0.15-0.25-0.209-0.396-0.134c-2.083,1.092-2.714,0.369-3.673-0.721
	c-0.736-0.831-1.648-1.827-3.412-2.085c3.726-3.84,7.783-6.921,13.405-4.49c0.149,0.064,0.324-0.008,0.388-0.162
	c0.064-0.156-0.009-0.338-0.158-0.402c-7.033-3.033-11.846,2.191-16.093,6.8c-1.857,2.023-3.626,3.934-5.484,5.132
	C35.509,13.788,42.131,10.681,48.539,7.681z"/>
<linearGradient id="SVGID_3_" gradientUnits="userSpaceOnUse" x1="794.4199" y1="32.6865" x2="813.1777" y2="32.6865" gradientTransform="matrix(-1 0 0 1 825.2188 0)">
	<stop  offset="0" style="stop-color:#B9F44C"/>
	<stop  offset="0.1759" style="stop-color:#95E76C"/>
	<stop  offset="0.3211" style="stop-color:#7EDE81"/>
	<stop  offset="0.4131" style="stop-color:#76DB88"/>
	<stop  offset="0.637" style="stop-color:#4AC5A3"/>
	<stop  offset="0.8767" style="stop-color:#20B0BC"/>
	<stop  offset="1" style="stop-color:#10A8C6"/>
	<a:midPointStop  offset="0" style="stop-color:#B9F44C"/>
	<a:midPointStop  offset="0.5" style="stop-color:#B9F44C"/>
	<a:midPointStop  offset="0.1759" style="stop-color:#95E76C"/>
	<a:midPointStop  offset="0.5" style="stop-color:#95E76C"/>
	<a:midPointStop  offset="0.3211" style="stop-color:#7EDE81"/>
	<a:midPointStop  offset="0.5" style="stop-color:#7EDE81"/>
	<a:midPointStop  offset="0.4131" style="stop-color:#76DB88"/>
	<a:midPointStop  offset="0.5" style="stop-color:#76DB88"/>
	<a:midPointStop  offset="0.637" style="stop-color:#4AC5A3"/>
	<a:midPointStop  offset="0.5" style="stop-color:#4AC5A3"/>
	<a:midPointStop  offset="0.8767" style="stop-color:#20B0BC"/>
	<a:midPointStop  offset="0.5" style="stop-color:#20B0BC"/>
	<a:midPointStop  offset="1" style="stop-color:#10A8C6"/>
</linearGradient>
<path fill="url(#SVGID_3_)" d="M13.753,42.123c11.448,0.79,17.045-10.224,17.045-17.518c-8.013-4.563-16.195,2.901-16.021,10.356
	C14.83,37.175,9.351,41.816,13.753,42.123z"/>
<path opacity="0.1" fill="#297124" d="M13.404,40.733c3.584-1.296,5.242-4.379,7-7.642c1.014-1.887,2.048-3.797,3.485-5.362
	c-4.638-0.044-6.373,2.247-7.614,5.961c-0.038,0.11-0.137,0.18-0.242,0.18c-0.029,0-0.055-0.004-0.084-0.015
	c-0.133-0.048-0.202-0.198-0.156-0.336c1.325-3.959,3.311-6.547,8.603-6.31c1.542-1.487,3.531-2.57,6.377-2.868
	c0.139-0.019,0.265,0.09,0.28,0.237c0.012,0.144-0.089,0.275-0.23,0.287c-1.293,0.134-2.393,0.44-3.356,0.869
	c0.793,2.406-0.21,3.829-1.378,5.465c-1.131,1.583-2.415,3.382-2.415,6.599c0,0.144-0.114,0.263-0.254,0.263
	c-0.139,0-0.252-0.119-0.252-0.263c0-3.392,1.393-5.343,2.514-6.912c1.112-1.564,1.998-2.817,1.321-4.934
	c-3.001,1.537-4.547,4.402-6.155,7.391c-1.723,3.206-3.51,6.525-7.275,7.882c-0.027,0.01-0.057,0.017-0.084,0.017
	c-0.105,0-0.204-0.069-0.24-0.178C13.202,40.93,13.271,40.779,13.404,40.733z"/>
<linearGradient id="SVGID_4_" gradientUnits="userSpaceOnUse" x1="794.4199" y1="13.3896" x2="819.46" y2="13.3896" gradientTransform="matrix(-1 0 0 1 825.2188 0)">
	<stop  offset="0" style="stop-color:#B9F44C"/>
	<stop  offset="0.1759" style="stop-color:#95E76C"/>
	<stop  offset="0.3211" style="stop-color:#7EDE81"/>
	<stop  offset="0.4131" style="stop-color:#76DB88"/>
	<stop  offset="0.637" style="stop-color:#4AC5A3"/>
	<stop  offset="0.8767" style="stop-color:#20B0BC"/>
	<stop  offset="1" style="stop-color:#10A8C6"/>
	<a:midPointStop  offset="0" style="stop-color:#B9F44C"/>
	<a:midPointStop  offset="0.5" style="stop-color:#B9F44C"/>
	<a:midPointStop  offset="0.1759" style="stop-color:#95E76C"/>
	<a:midPointStop  offset="0.5" style="stop-color:#95E76C"/>
	<a:midPointStop  offset="0.3211" style="stop-color:#7EDE81"/>
	<a:midPointStop  offset="0.5" style="stop-color:#7EDE81"/>
	<a:midPointStop  offset="0.4131" style="stop-color:#76DB88"/>
	<a:midPointStop  offset="0.5" style="stop-color:#76DB88"/>
	<a:midPointStop  offset="0.637" style="stop-color:#4AC5A3"/>
	<a:midPointStop  offset="0.5" style="stop-color:#4AC5A3"/>
	<a:midPointStop  offset="0.8767" style="stop-color:#20B0BC"/>
	<a:midPointStop  offset="0.5" style="stop-color:#20B0BC"/>
	<a:midPointStop  offset="1" style="stop-color:#10A8C6"/>
</linearGradient>
<path fill="url(#SVGID_4_)" d="M7.014,2.361c17.653-2.662,23.784,15.396,23.784,22.244c-8.11,0.387-14.193-0.527-14.399-5.369
	c-0.185-4.415-7.097-2.09-5.909-8.509C10.979,8.083,2.688,3.012,7.014,2.361z"/>
<path opacity="0.2" fill="#297124" d="M15.627,8.71c-2.783-1.302-5.663-2.652-8.148-4.932c-0.105-0.096-0.114-0.262-0.021-0.37
	c0.094-0.11,0.254-0.119,0.357-0.023c2.432,2.226,5.147,3.498,8.022,4.846c5.715,2.678,11.624,5.446,15.155,16.146
	c-0.226,0.044-0.355,0.217-0.383,0.419c-1.864-1.027-3.567-2.875-5.37-4.834c-0.431-0.466-0.862-0.935-1.3-1.399
	c-1.601,0.094-2.352,0.936-3.01,1.684c-0.562,0.637-1.104,1.254-2.044,1.254c-0.462,0-1.022-0.15-1.725-0.519
	c-0.126-0.067-0.177-0.226-0.114-0.353c0.065-0.131,0.217-0.182,0.343-0.116c1.794,0.938,2.339,0.316,3.166-0.625
	c0.631-0.715,1.417-1.571,2.934-1.794c-3.206-3.307-6.699-5.959-11.545-3.867c-0.13,0.055-0.28-0.006-0.333-0.142
	c-0.057-0.131,0.006-0.287,0.137-0.344c6.06-2.614,10.202,1.886,13.861,5.856c1.599,1.739,3.124,3.39,4.72,4.421
	C26.851,13.971,21.151,11.296,15.627,8.71z"/>
<path fill="#F3CCA8" d="M23.957,18.436c-0.753-0.292-3.063,1-3.899,1.741c-2.379,0.311-4.31,1.765-4.72,1.45
	c-2.021-1.559-4.385-2.6-6.916-5.912c0-2.094-5.75,1.17-1.903,2.183c2.514,0.786,4.6,6.003,7.822,7.713
	c0.905,0.481,7.107-0.353,9.617-1.96C24.718,21.903,24.798,19.665,23.957,18.436z"/>
<path fill="#F3CCA8" d="M37.476,54.349c0.013-0.842-1.283-1.178-3.019-0.202c-2.848-1.165-2.028-2.886-4.739-4.542
	c-0.299-0.184-5.469-1.432-5.463-1.413c0.425,1.261-0.027,3.165,2.249,4.74c2.955,2.05,7.205,5.289,7.205,5.289
	c1.703,1.534,2.729,4.652,5.014,5.459C41.112,64.527,37.371,60.557,37.476,54.349z"/>
<path fill="#F3CCA8" d="M48.943,55.375c-0.036-0.949-1.438-2.647-3.314-1.515c-3.261-1.254-2.741-3.206-5.494-5.662
	c-0.35-0.313-6.843,0.121-6.664,0.318c0.594,0.652,0.98,1.807,2.147,2.567c3.435,2.243,9.364,6.858,9.364,6.858
	c1.351,0.903,2.993,5.031,4.9,5.813C52.549,64.84,49.223,62.367,48.943,55.375z"/>
<linearGradient id="SVGID_5_" gradientUnits="userSpaceOnUse" x1="32.3555" y1="53.4473" x2="32.3555" y2="34.2959">
	<stop  offset="0" style="stop-color:#00B5B5"/>
	<stop  offset="0.3473" style="stop-color:#00C2BC"/>
	<stop  offset="1" style="stop-color:#00D6C8"/>
	<a:midPointStop  offset="0" style="stop-color:#00B5B5"/>
	<a:midPointStop  offset="0.4545" style="stop-color:#00B5B5"/>
	<a:midPointStop  offset="1" style="stop-color:#00D6C8"/>
</linearGradient>
<path fill="url(#SVGID_5_)" d="M39.818,48.987c-1.076-1.89,3.186,1.476,0.432-0.98c-4.152-3.707-1.615-8.057-4.189-13.711
	c-6.269,1.546-10.697,0.182-10.697,0.182c-1.615,4.133-2.478,10.318-1.302,13.808c0.425,1.261,0.341,3.119,2.25,4.775
	c1.213,1.055,0.625-0.346,0.347-0.702c-0.501-0.642,1.817,0.515,1.504,0.073c-0.93-1.305,0.955-0.64,0.527-1.173
	c-1.226-1.536,1.855,0.085,1.416-0.432c-0.898-1.059,1.303-0.327-0.184-1.235c-1.032-0.631,0.844-3.894,0.386-7.379
	c1.258,3.485,2.067,5.104,3.162,6.304c0.594,0.652,0.768,1.717,1.813,2.621c1.237,1.071,0.813-0.021,0.594-0.623
	c-0.576-1.598,2.408,1.246,1.544-0.175c-1.128-1.853,2.322,0.559,1.813-0.287C37.92,47.862,40.369,49.956,39.818,48.987z"/>
<path fill="#F3CCA8" d="M43.767,25.335c-1.369-1.173-1.419-2.515-3.946-4.129c-1.676-3.177-5.375-3.263-5.375-3.263
	c-0.539,0.271,0.398,5.996,6.359,9.286c1.744,0.964,0.379,1.208,3.43,6.38c-0.037,4.296,0.711,5.263,1.094,3.108
	c0.439-0.191,0.405,0.275,1.133,1.7c1.439,2.821,1.367-1.059,1.367-1.059c0.854-0.568-0.757-3.34-1.324-4.503
	C45.619,31.036,45.897,27.159,43.767,25.335z"/>
<linearGradient id="SVGID_6_" gradientUnits="userSpaceOnUse" x1="29.9063" y1="34.8281" x2="29.9063" y2="17.2129">
	<stop  offset="0" style="stop-color:#00D6C8"/>
	<stop  offset="0.6527" style="stop-color:#00C2BC"/>
	<stop  offset="1" style="stop-color:#00B5B5"/>
	<a:midPointStop  offset="0" style="stop-color:#00D6C8"/>
	<a:midPointStop  offset="0.5455" style="stop-color:#00D6C8"/>
	<a:midPointStop  offset="1" style="stop-color:#00B5B5"/>
</linearGradient>
<path fill-rule="evenodd" clip-rule="evenodd" fill="url(#SVGID_6_)" d="M25.471,32.786c0.019-3.485-1.84-5.425-2.392-8.666
	c-0.185-1.097,1.25-4.567,0.553-5.726c1.43-1.406,9.781-1.728,12.831-0.022c-0.728,1.229,0.552,4.035,0.233,5.449
	c-0.693,3.09-1.262,4.59-0.814,8.49C36.154,34.667,26.67,36.323,25.471,32.786z"/>
<path fill="#00B5C2" d="M35.883,32.311c-2.115,2.491-8.847,2.943-10.412,0.498c-0.223,0.11-0.305,1.382-0.107,1.668
	c1.464,2.131,6.569,2.61,10.697-0.182C36.311,34.046,36.014,32.311,35.883,32.311z"/>
<path fill="#F3CCA8" d="M27.436,16.794c-1.641,1.979,2.582,9.754,2.582,9.754s4.223-7.775,2.58-9.754
	C31.802,15.833,28.231,15.833,27.436,16.794z"/>
<path fill="#00E0E0" d="M26.148,21.5c0,0.647-1.031,0.647-1.031,0C25.118,20.852,26.148,20.852,26.148,21.5z"/>
<path fill="#00E0E0" d="M33.818,27.713c0,0.647-1.032,0.647-1.032,0C32.787,27.065,33.818,27.065,33.818,27.713z"/>
<path fill="#00E0E0" d="M27.821,29.078c0,0.647-1.031,0.647-1.031,0C26.79,28.429,27.821,28.429,27.821,29.078z"/>
<path fill="#00E0E0" d="M32.482,32.572c0,0.647-1.031,0.647-1.031,0C31.451,31.923,32.482,31.923,32.482,32.572z"/>
<path fill="#00E0E0" d="M34.418,22.615c0,0.648-1.031,0.648-1.031,0C33.387,21.967,34.418,21.967,34.418,22.615z"/>
<path fill="#7DE0FF" d="M32.613,25.142c0,0.325-0.518,0.325-0.518,0S32.613,24.817,32.613,25.142z"/>
<path fill="#7DE0FF" d="M35.227,19.892c0,0.327-0.518,0.327-0.518,0C34.709,19.567,35.227,19.567,35.227,19.892z"/>
<path fill="#7DE0FF" d="M25.511,19.192c0,0.325-0.518,0.325-0.518,0C24.994,18.865,25.511,18.865,25.511,19.192z"/>
<path fill="#7DE0FF" d="M25.376,24.409c0,0.327-0.52,0.327-0.52,0C24.857,24.083,25.376,24.083,25.376,24.409z"/>
<path fill="#7DE0FF" d="M28.912,32.311c0,0.325-0.517,0.325-0.517,0S28.912,31.986,28.912,32.311z"/>
<path fill="#7DE0FF" d="M31.451,29.319c0,0.325-0.518,0.325-0.518,0C30.933,28.995,31.451,28.995,31.451,29.319z"/>
<path fill="#7DE0FF" d="M34.572,31.096c0,0.327-0.517,0.327-0.517,0C34.056,30.771,34.572,30.771,34.572,31.096z"/>
<path fill="#7DE0FF" d="M35.227,24.653c0,0.327-0.518,0.327-0.518,0C34.709,24.328,35.227,24.328,35.227,24.653z"/>
<path fill="#7DE0FF" d="M28.277,26.236c0,0.325-0.517,0.325-0.517,0S28.277,25.911,28.277,26.236z"/>
<path fill="#F3CCA8" d="M27.165,17.879c0,0,0.919,0.969,2.866,0.969c1.948,0,2.869-0.969,2.869-0.969v-2.748h-5.735V17.879z"/>
<path id="Path_769_" fill="#FFD8B4" d="M35.855,9.249c-0.9,0.107-1.552,3.098-0.984,3.887c0.078,0.111,0.543,0.286,0.889-0.41
	c0.191-0.386,0.742-0.706,0.912-1.502C36.891,10.203,36.754,9.14,35.855,9.249z"/>
<path id="Path_768_" fill="#FFD8B4" d="M24.207,9.249c0.902,0.107,1.554,3.098,0.986,3.887c-0.08,0.111-0.544,0.286-0.89-0.41
	c-0.191-0.386-0.74-0.706-0.911-1.502C23.174,10.203,23.311,9.14,24.207,9.249z"/>
<path id="Path_767_" fill="#DEB38A" d="M35.833,9.821c-0.235,0.073-0.492,0.43-0.632,1.019c0.823-0.175,0.617,1.182-0.098,1.207
	c0.006,0.137,0.016,0.276,0.033,0.425c0.343-0.496,0.693-0.296,1.039-1.033C36.489,10.773,36.416,9.64,35.833,9.821z"/>
<path id="Path_766_" fill="#DEB38A" d="M24.863,10.837c-0.141-0.589-0.396-0.943-0.631-1.017c-0.583-0.181-0.659,0.952-0.345,1.617
	c0.347,0.737,0.696,0.537,1.041,1.033c0.017-0.148,0.025-0.29,0.032-0.425C24.253,12.012,24.051,10.673,24.863,10.837z"/>
<path id="Path_765_" fill="#FFD8B4" d="M30.031,3.498c-3.905,0-5.788,2.928-5.552,6.998c0.048,0.819,0.559,3.49,1.043,4.448
	c0.497,0.981,2.152,2.492,3.167,2.807c0.642,0.195,2.045,0.195,2.687,0c1.014-0.314,2.671-1.825,3.166-2.807
	c0.486-0.958,0.998-3.629,1.043-4.448C35.822,6.425,33.939,3.498,30.031,3.498z"/>
<path id="Path_764_" fill="#A88868" d="M34.276,8.95c-0.894-0.469-2.605-0.491-3.24-0.166C30.9,8.848,30.99,9.292,31.104,9.249
	c0.888-0.347,2.32-0.354,3.152,0.031C34.367,9.33,34.413,9.015,34.276,8.95z"/>
<path id="Path_763_" fill="#A88868" d="M25.787,8.95c0.894-0.469,2.602-0.491,3.241-0.166c0.137,0.064,0.046,0.508-0.069,0.465
	c-0.888-0.347-2.318-0.354-3.151,0.031C25.698,9.33,25.652,9.015,25.787,8.95z"/>
<path id="Path_762_" fill="#DEB38A" d="M31.085,13.015c-0.111-0.077-0.373,0.041-1.055,0.041c-0.679,0-0.941-0.118-1.053-0.041
	c-0.135,0.094,0.079,0.515,1.053,0.515C31.007,13.53,31.22,13.109,31.085,13.015z"/>
<path id="Path_761_" fill="#DEB38A" d="M30.031,14.609c-0.877-0.257-2.181,0.123-2.181,0.123c0.496,0.533,0.86,1.229,2.181,1.229
	c1.516,0,1.773-0.789,2.182-1.229C32.212,14.732,30.911,14.352,30.031,14.609z"/>
<path id="Path_760_" fill="#FFFFFF" d="M28.178,14.821c0.921,0.767,2.78,0.771,3.708,0C30.904,14.863,29.167,14.863,28.178,14.821z"
	/>
<path id="Path_759_" fill="#FFFFFF" d="M29.163,10.546c0.034,0.256-0.144,0.56-0.629,0.787c-0.309,0.144-0.951,0.314-1.794-0.037
	c-0.378-0.159-0.747-0.65-0.713-0.923C26.483,9.521,28.734,9.394,29.163,10.546z"/>
<linearGradient id="Oval_1_" gradientUnits="userSpaceOnUse" x1="-424.2163" y1="480.5283" x2="-424.2163" y2="480.7949" gradientTransform="matrix(6.5701 0 0 -6.5701 2814.7805 3168.5281)">
	<stop  offset="0" style="stop-color:#A6694A"/>
	<stop  offset="1" style="stop-color:#4F2A1E"/>
	<a:midPointStop  offset="0" style="stop-color:#A6694A"/>
	<a:midPointStop  offset="0.5" style="stop-color:#A6694A"/>
	<a:midPointStop  offset="1" style="stop-color:#4F2A1E"/>
</linearGradient>
<ellipse id="Oval_80_" fill="url(#Oval_1_)" cx="27.635" cy="10.528" rx="0.884" ry="0.876"/>
<path id="Path_758_" fill="#1A1626" d="M27.194,10.512c0,0.606,0.883,0.606,0.883,0C28.077,9.95,27.194,9.95,27.194,10.512z"/>
<path id="Path_757_" fill="#AB968C" d="M27.059,10.267c0,0.254,0.37,0.254,0.37,0C27.429,10.032,27.059,10.032,27.059,10.267z"/>
<path id="Path_756_" fill="#DEB38A" d="M29.167,10.58c-0.359-1.144-2.808-0.974-3.14-0.206C26.15,9.39,28.86,9.129,29.167,10.58z"/>
<path id="Path_755_" fill="#FFFFFF" d="M30.9,10.546c-0.031,0.256,0.143,0.56,0.629,0.787c0.309,0.144,0.951,0.314,1.795-0.037
	c0.378-0.159,0.746-0.65,0.715-0.923C33.58,9.521,31.33,9.394,30.9,10.546z"/>
<linearGradient id="Oval_2_" gradientUnits="userSpaceOnUse" x1="-426.1885" y1="480.5283" x2="-426.1885" y2="480.7949" gradientTransform="matrix(6.5701 0 0 -6.5701 2832.511 3168.5281)">
	<stop  offset="0" style="stop-color:#A6694A"/>
	<stop  offset="1" style="stop-color:#4F2A1E"/>
	<a:midPointStop  offset="0" style="stop-color:#A6694A"/>
	<a:midPointStop  offset="0.5" style="stop-color:#A6694A"/>
	<a:midPointStop  offset="1" style="stop-color:#4F2A1E"/>
</linearGradient>
<ellipse id="Oval_79_" fill="url(#Oval_2_)" cx="32.408" cy="10.528" rx="0.886" ry="0.876"/>
<path id="Path_754_" fill="#1A1626" d="M31.966,10.512c0,0.606,0.886,0.606,0.886,0C32.852,9.95,31.966,9.95,31.966,10.512z"/>
<path id="Path_753_" fill="#AB968C" d="M31.832,10.267c0,0.254,0.373,0.254,0.373,0C32.205,10.032,31.832,10.032,31.832,10.267z"/>
<path id="Path_752_" fill="#DEB38A" d="M30.898,10.58c0.357-1.142,2.804-0.979,3.141-0.206C33.914,9.39,31.203,9.129,30.898,10.58z"
	/>
<linearGradient id="SVGID_7_" gradientUnits="userSpaceOnUse" x1="30.0317" y1="2.3843" x2="30.0317" y2="11.7431">
	<stop  offset="0.103" style="stop-color:#00EDD1"/>
	<stop  offset="0.1777" style="stop-color:#00E5CA"/>
	<stop  offset="0.508" style="stop-color:#00C8B0"/>
	<stop  offset="0.7936" style="stop-color:#00B6A1"/>
	<stop  offset="1" style="stop-color:#00B09B"/>
	<a:midPointStop  offset="0.103" style="stop-color:#00EDD1"/>
	<a:midPointStop  offset="0.3624" style="stop-color:#00EDD1"/>
	<a:midPointStop  offset="1" style="stop-color:#00B09B"/>
</linearGradient>
<path fill="url(#SVGID_7_)" d="M35.021,4.467c-0.854-1.146-2.42-1.503-4.991-1.503c-2.568,0-4.133,0.356-4.989,1.503
	c-1.209,1.622-0.799,7.031-0.261,7.031c0.086,0,0.099-1.893,0.261-3.2c0.132-1.067,0.389-2.099,0.682-2.267
	c0.898-0.517,2.627,0.221,4.307,0.221c1.682,0,3.413-0.737,4.309-0.221c0.294,0.168,0.549,1.199,0.682,2.267
	c0.164,1.308,0.176,3.2,0.26,3.2C35.82,11.499,36.232,6.089,35.021,4.467z"/>
<path fill="#00EDD1" d="M35.021,4.469c-0.825-1.169-2.42-2.053-4.991-2.038l0,0l0,0c-2.568-0.015-4.162,0.869-4.989,2.038
	c0,0,2.101,1.783,4.989,1.783C32.919,6.252,35.135,5.89,35.021,4.469z"/>
<linearGradient id="SVGID_8_" gradientUnits="userSpaceOnUse" x1="28.6655" y1="2.3843" x2="28.6655" y2="11.7421">
	<stop  offset="0.103" style="stop-color:#00EDD1"/>
	<stop  offset="0.1777" style="stop-color:#00E5CA"/>
	<stop  offset="0.508" style="stop-color:#00C8B0"/>
	<stop  offset="0.7936" style="stop-color:#00B6A1"/>
	<stop  offset="1" style="stop-color:#00B09B"/>
	<a:midPointStop  offset="0.103" style="stop-color:#00EDD1"/>
	<a:midPointStop  offset="0.3624" style="stop-color:#00EDD1"/>
	<a:midPointStop  offset="1" style="stop-color:#00B09B"/>
</linearGradient>
<path fill="url(#SVGID_8_)" d="M25.006,3.861c-0.444,2.227,3.46,3.169,7.354,2.558C28.33,6.065,26.377,5.308,25.006,3.861z"/>
<path fill="#00EDD1" d="M25.006,3.861c0.364,1.642,2.968,2.433,4.856,2.533C26.807,5.617,26.487,4.19,25.006,3.861z"/>
<linearGradient id="SVGID_9_" gradientUnits="userSpaceOnUse" x1="29.7158" y1="2.3843" x2="29.7158" y2="11.7423">
	<stop  offset="0.103" style="stop-color:#00EDD1"/>
	<stop  offset="0.1777" style="stop-color:#00E5CA"/>
	<stop  offset="0.508" style="stop-color:#00C8B0"/>
	<stop  offset="0.7936" style="stop-color:#00B6A1"/>
	<stop  offset="1" style="stop-color:#00B09B"/>
	<a:midPointStop  offset="0.103" style="stop-color:#00EDD1"/>
	<a:midPointStop  offset="0.3624" style="stop-color:#00EDD1"/>
	<a:midPointStop  offset="1" style="stop-color:#00B09B"/>
</linearGradient>
<path fill="url(#SVGID_9_)" d="M25.341,3.394c-0.057,2.462,5.134,4.112,8.751,2.511C32.257,4.131,27.074,4.625,25.341,3.394z"/>
<path fill="#00EDD1" d="M25.341,3.394c0.957,1.758,3.712,3.013,6.886,2.441C28.479,5.2,27.57,3.352,25.341,3.394z"/>
<path fill="#00EDD1" d="M25.93,3.036c1.489,1.267,7.943,4.381,8.859,1.921C33.834,6.177,30.473,2.543,25.93,3.036z"/>
<linearGradient id="SVGID_10_" gradientUnits="userSpaceOnUse" x1="30.4087" y1="2.3848" x2="30.4087" y2="11.7403">
	<stop  offset="0.103" style="stop-color:#00EDD1"/>
	<stop  offset="0.1777" style="stop-color:#00E5CA"/>
	<stop  offset="0.508" style="stop-color:#00C8B0"/>
	<stop  offset="0.7936" style="stop-color:#00B6A1"/>
	<stop  offset="1" style="stop-color:#00B09B"/>
	<a:midPointStop  offset="0.103" style="stop-color:#00EDD1"/>
	<a:midPointStop  offset="0.3624" style="stop-color:#00EDD1"/>
	<a:midPointStop  offset="1" style="stop-color:#00B09B"/>
</linearGradient>
<path fill="url(#SVGID_10_)" d="M25.93,3.036c0.248,1.954,7.497,4.55,8.959,2.182C32.688,6.288,27.194,4.19,25.93,3.036z"/>
<linearGradient id="SVGID_11_" gradientUnits="userSpaceOnUse" x1="31.8486" y1="2.3833" x2="31.8486" y2="11.745">
	<stop  offset="0.103" style="stop-color:#00EDD1"/>
	<stop  offset="0.1777" style="stop-color:#00E5CA"/>
	<stop  offset="0.508" style="stop-color:#00C8B0"/>
	<stop  offset="0.7936" style="stop-color:#00B6A1"/>
	<stop  offset="1" style="stop-color:#00B09B"/>
	<a:midPointStop  offset="0.103" style="stop-color:#00EDD1"/>
	<a:midPointStop  offset="0.3624" style="stop-color:#00EDD1"/>
	<a:midPointStop  offset="1" style="stop-color:#00B09B"/>
</linearGradient>
<path fill="url(#SVGID_11_)" d="M28.666,3.498c1.715,1.733,6.623,3.342,6.356,0.972C34.922,5.58,31.037,4.767,28.666,3.498z"/>
<path fill="#FFE12C" d="M10.476,8.061L4.848,22.519c-0.086,0.221-0.928-0.077-0.841-0.298L9.593,7.865
	C10.192,7.554,10.476,8.061,10.476,8.061z"/>
<polygon fill="#F9C802" points="11.067,10.102 11.41,8.234 13.225,7.436 11.457,6.554 11.225,4.668 9.789,5.99 7.824,5.621 
	8.709,7.325 7.727,8.979 9.708,8.708 "/>
<path fill="#F3CCA8" d="M5.973,17.173c0,0,0.479-0.171,0.358-0.737c0.542-0.007,0.639-0.577,0.462-0.88
	c0.221,0.038,0.442-0.375,0.442-0.375s-0.246,1.509,0.29,1.849c1.174,0.743,1.761-0.527,1.679-1
	c-0.252-1.463-1.599-1.463-2.137-2.763c-0.097-0.233-0.959-0.073-0.614,1.039c0,0-0.744-0.31-0.831,0.684
	c-0.505-0.254-0.831,0.596-0.494,0.917c-0.577,0.373-0.45,0.929-0.215,1.054C4.429,17.986,6.358,18.313,5.973,17.173z"/>
<path fill="#E6B045" d="M5.973,17.173c-0.401-0.023-1.06-0.213-1.06-0.213S5.416,17.298,5.973,17.173z"/>
<path fill="#E6B045" d="M6.331,16.436c-0.402-0.025-1.203-0.529-1.203-0.529S5.775,16.559,6.331,16.436z"/>
<path fill="#E6B045" d="M6.793,15.556c-0.399-0.022-1.171-0.566-1.171-0.566S6.238,15.679,6.793,15.556z"/>
<path fill="#E6B045" d="M7.235,15.181c-0.116-0.579-0.783-0.875-0.783-0.875S6.951,14.736,7.235,15.181z"/>
</svg>
