<?xml version="1.0" encoding="utf-8"?>
<!-- Generator: Adobe Illustrator 15.0.0, SVG Export Plug-In . SVG Version: 6.00 Build 0)  -->
<!DOCTYPE svg PUBLIC "-//W3C//DTD SVG 1.1//EN" "http://www.w3.org/Graphics/SVG/1.1/DTD/svg11.dtd" [
	<!ENTITY ns_flows "http://ns.adobe.com/Flows/1.0/">
	<!ENTITY ns_extend "http://ns.adobe.com/Extensibility/1.0/">
	<!ENTITY ns_ai "http://ns.adobe.com/AdobeIllustrator/10.0/">
	<!ENTITY ns_graphs "http://ns.adobe.com/Graphs/1.0/">
]>
<svg version="1.1" id="Layer_1" xmlns:x="&ns_extend;" xmlns:i="&ns_ai;" xmlns:graph="&ns_graphs;"
	 xmlns="http://www.w3.org/2000/svg" xmlns:xlink="http://www.w3.org/1999/xlink" xmlns:a="http://ns.adobe.com/AdobeSVGViewerExtensions/3.0/"
	 x="0px" y="0px" width="64px" height="64px" viewBox="0 0 64 64" enable-background="new 0 0 64 64" xml:space="preserve">
<linearGradient id="SVGID_1_" gradientUnits="userSpaceOnUse" x1="-22.4028" y1="-518.6802" x2="-22.4028" y2="-527.4458" gradientTransform="matrix(-2.7664 0.8895 0.8472 2.6347 410.4337 1416.0867)">
	<stop  offset="0" style="stop-color:#DB0100"/>
	<stop  offset="0.5836" style="stop-color:#F31317"/>
	<stop  offset="1" style="stop-color:#FF1C23"/>
	<a:midPointStop  offset="0" style="stop-color:#DB0100"/>
	<a:midPointStop  offset="0.4242" style="stop-color:#DB0100"/>
	<a:midPointStop  offset="1" style="stop-color:#FF1C23"/>
</linearGradient>
<path fill="url(#SVGID_1_)" d="M26.681,9.989c1.811-7.38,13.074-8.346,15.561-0.609c1.669,5.19-0.961,11.332-9.024,20.137
	c-3.408-6.134-16.495-1.49-19.537-10.952C11.191,10.828,20.909,5.049,26.681,9.989z"/>
<path fill="#BA9757" d="M12.312,54.226c-0.643,0.607-1.414,1.112-2.359,1.468c1.036-4.259-3.04-12.09,1.244-19.127
	c7.594-1.106,12.946,23.142,1.844,21.748c0.618-0.408,0.936-1.075,1.05-1.867c-0.771,0.376-1.718,0.551-2.884,0.406
	C12.018,56.318,12.308,55.343,12.312,54.226z"/>
<path fill="#BA9757" d="M28.219,33.564c6.432,5.148,4.771,13.99,7.203,17.639c-1.008-0.012-1.909-0.222-2.719-0.573
	c0.383,1.05,0.992,1.866,1.936,2.092c-1.044,0.534-1.995,0.694-2.847,0.604c0.38,0.705,0.902,1.224,1.625,1.396
	C23.459,59.828,20.703,35.123,28.219,33.564z"/>
<path id="Path_4067_" fill="#EBC199" d="M9.9,45.377c1.742-0.094,3.98,5.402,3.176,7.099c-0.113,0.237-0.936,0.728-1.821-0.487
	c-0.49-0.673-1.641-1.104-2.232-2.566C8.268,47.547,8.165,45.471,9.9,45.377z"/>
<path id="Path_4066_" fill="#C99B71" d="M10.14,46.465c0.469,0.063,1.075,0.654,1.537,1.734c-1.614-0.061-0.77,2.463,0.592,2.273
	c0.034,0.263,0.063,0.535,0.081,0.822c-0.818-0.832-1.413-0.335-2.317-1.627C9.218,48.502,8.977,46.313,10.14,46.465z"/>
<path fill="#EBC199" d="M18.983,32.451c7.392-1.304,12.014,4.088,12.934,11.906c0.183,1.573,0.147,3.895-0.049,5.911
	c-0.402,4.192-5.544,9.25-8.036,9.688c-2.49,0.439-9.05-2.555-10.862-6.355c-0.874-1.83-1.702-3.998-2.069-5.538
	C9.093,40.402,11.591,33.754,18.983,32.451z"/>
<path id="Path_4065_" fill="#A17C5B" d="M12.697,43.767c1.533-1.192,4.761-1.806,6.076-1.396c0.279,0.077,0.258,0.954,0.026,0.913
	c-1.798-0.369-4.509,0.094-5.949,1.107C12.656,44.522,12.464,43.937,12.697,43.767z"/>
<path id="Path_4064_" fill="#A17C5B" d="M28.76,40.935c-1.849-0.598-5.089-0.07-6.186,0.766c-0.236,0.166,0.083,0.984,0.286,0.865
	c1.563-0.96,4.268-1.453,5.971-0.994C29.058,41.63,29.039,41.014,28.76,40.935z"/>
<path id="Path_4063_" fill="#C99B71" d="M20.295,51.057c0.174-0.192,0.716-0.076,1.992-0.359c1.277-0.285,1.717-0.619,1.962-0.521
	c0.288,0.122,0.067,1.007-1.761,1.414C20.656,51.997,20.082,51.289,20.295,51.057z"/>
<path fill="#D1A57B" d="M26.951,53.518c2.169,2.303-3.073,3.247-4.763,0.997L26.951,53.518z"/>
<path fill="#BD926A" d="M25.681,53.14c-1.154-0.341-1.939,0.699-3.494,1.375c1.509,0.393,3.487,0.134,3.666-0.512
	c0,0,0.646,0.322,1.151-0.256C27.571,53.104,26.786,52.325,25.681,53.14z"/>
<path fill="#DEAE83" d="M13.875,47.823c0.312,1.776,6.054,0.765,5.689-1.292C18.712,43.614,13.385,44.639,13.875,47.823z"/>
<path fill="#613F34" d="M13.876,47.823c0.312,1.776,6.054,0.765,5.69-1.293C19.271,47.561,14.477,48.531,13.876,47.823z"/>
<path fill="#DEAE83" d="M29.042,45.149c0.314,1.777-5.425,2.79-5.79,0.733C23.058,42.849,28.413,41.988,29.042,45.149z"/>
<path fill="#613F34" d="M29.042,45.149c0.314,1.777-5.425,2.79-5.79,0.733C23.881,46.749,28.718,46.021,29.042,45.149z"/>
<linearGradient id="SVGID_2_" gradientUnits="userSpaceOnUse" x1="970.8857" y1="-59.252" x2="970.8857" y2="-76.8555" gradientTransform="matrix(-0.9848 0.1736 0.1736 0.9848 988.2044 -62.4643)">
	<stop  offset="0" style="stop-color:#BA9757"/>
	<stop  offset="0.2266" style="stop-color:#C6A265"/>
	<stop  offset="0.7054" style="stop-color:#DBB77D"/>
	<stop  offset="1" style="stop-color:#E3BE86"/>
	<a:midPointStop  offset="0" style="stop-color:#BA9757"/>
	<a:midPointStop  offset="0.4" style="stop-color:#BA9757"/>
	<a:midPointStop  offset="1" style="stop-color:#E3BE86"/>
</linearGradient>
<path fill="url(#SVGID_2_)" d="M18.624,30.414c4.497-0.793,7.105,0.848,7.731,1.732c5.657,0.285,9.022,9.152,5.644,13.783
	c-1.241-4.081-2.2-6.675-5.47-9.008c-1.235,2.451-4.379,4.262-7.388,4.793c1.241-1.286,2.034-2.471,2.629-3.551
	c-4.615,3.191-9.979,5.658-10.406,11.404C5.175,42.727,7.487,32.377,18.624,30.414z"/>
<path fill="#BA9757" d="M26.368,32.145c0.745,3.83-0.299,6.977-7.231,9.571C24.335,41.156,29.059,37.123,26.368,32.145z"/>
<path fill="#BA9757" d="M26.696,36.641c2.195,1.514,4.857,4.338,5.319,9.286c-1.083-3.966-3.52-6.959-5.576-8.813
	C26.534,36.963,26.62,36.806,26.696,36.641z"/>
<path fill="#BA9757" d="M23.272,35.989c-3.125,4.249-12.397,5.644-11.928,13.582C12.418,41.58,20.883,41.838,23.272,35.989z"/>
<path fill="#1A1714" d="M51.689,54.226c0.643,0.607,1.414,1.112,2.359,1.468c-1.036-4.259,3.04-12.09-1.244-19.127
	c-7.594-1.106-12.946,23.142-1.844,21.748c-0.618-0.408-0.936-1.075-1.05-1.867c0.771,0.376,1.718,0.551,2.884,0.406
	C51.983,56.318,51.693,55.343,51.689,54.226z"/>
<path id="Path_4002_" fill="#735C48" d="M54.101,45.377c-1.742-0.094-3.98,5.402-3.176,7.099c0.113,0.237,0.936,0.728,1.821-0.487
	c0.49-0.673,1.641-1.104,2.232-2.566C55.733,47.547,55.836,45.471,54.101,45.377z"/>
<path id="Path_4001_" fill="#4A3728" d="M53.861,46.465c-0.469,0.063-1.075,0.654-1.537,1.734c1.614-0.061,0.77,2.463-0.592,2.273
	c-0.034,0.263-0.063,0.535-0.081,0.822c0.818-0.832,1.413-0.335,2.317-1.627C54.783,48.502,55.024,46.313,53.861,46.465z"/>
<path fill="#735C48" d="M45.018,32.451c-7.392-1.304-12.014,4.088-12.934,11.906c-0.183,1.573-0.147,3.895,0.049,5.911
	c0.402,4.192,5.544,9.25,8.036,9.688c2.49,0.439,9.05-2.555,10.862-6.355c0.874-1.83,1.702-3.998,2.069-5.538
	C54.908,40.402,52.41,33.754,45.018,32.451z"/>
<path id="Path_4000_" fill="#403229" d="M51.304,43.767c-1.533-1.192-4.761-1.806-6.076-1.396c-0.279,0.077-0.258,0.954-0.026,0.913
	c1.798-0.369,4.509,0.094,5.949,1.107C51.345,44.522,51.537,43.937,51.304,43.767z"/>
<path id="Path_3999_" fill="#403229" d="M35.241,40.935c1.849-0.598,5.089-0.07,6.186,0.766c0.236,0.166-0.083,0.984-0.286,0.865
	c-1.563-0.96-4.268-1.453-5.971-0.994C34.943,41.63,34.963,41.014,35.241,40.935z"/>
<path id="Path_3998_" fill="#4A3728" d="M43.706,51.057c-0.174-0.192-0.716-0.076-1.992-0.359c-1.277-0.285-1.717-0.619-1.962-0.521
	c-0.288,0.122-0.067,1.007,1.761,1.414C43.345,51.997,43.919,51.289,43.706,51.057z"/>
<path fill="#61462F" d="M37.051,53.518c-2.169,2.303,3.072,3.247,4.763,0.997L37.051,53.518z"/>
<path fill="#4A3728" d="M38.32,53.14c1.153-0.341,1.938,0.699,3.493,1.375c-1.509,0.393-3.486,0.134-3.665-0.512
	c0,0-0.646,0.322-1.151-0.256C36.431,53.104,37.216,52.325,38.32,53.14z"/>
<path fill="#614B38" d="M50.126,47.823c-0.312,1.776-6.054,0.765-5.689-1.292C45.289,43.614,50.616,44.639,50.126,47.823z"/>
<path fill="#403229" d="M50.125,47.823c-0.312,1.776-6.054,0.765-5.69-1.293C44.729,47.561,49.524,48.531,50.125,47.823z"/>
<path fill="#614B38" d="M34.96,45.149c-0.314,1.777,5.425,2.79,5.789,0.733C40.943,42.849,35.589,41.988,34.96,45.149z"/>
<path fill="#403229" d="M34.96,45.149c-0.314,1.777,5.425,2.79,5.789,0.733C40.12,46.749,35.283,46.021,34.96,45.149z"/>
<linearGradient id="SVGID_3_" gradientUnits="userSpaceOnUse" x1="105.4082" y1="93.3145" x2="105.4082" y2="75.7109" gradientTransform="matrix(0.9848 0.1736 -0.1736 0.9848 -45.3958 -62.4643)">
	<stop  offset="0" style="stop-color:#1A1714"/>
	<stop  offset="0.0953" style="stop-color:#1F1B18"/>
	<stop  offset="0.6555" style="stop-color:#37322C"/>
	<stop  offset="1" style="stop-color:#403A33"/>
	<a:midPointStop  offset="0" style="stop-color:#1A1714"/>
	<a:midPointStop  offset="0.4" style="stop-color:#1A1714"/>
	<a:midPointStop  offset="1" style="stop-color:#403A33"/>
</linearGradient>
<path fill="url(#SVGID_3_)" d="M45.377,30.414c-4.497-0.793-7.104,0.848-7.73,1.732c-5.658,0.285-9.022,9.152-5.644,13.783
	c1.242-4.081,2.201-6.675,5.47-9.008c1.235,2.451,4.379,4.262,7.388,4.793c-1.241-1.286-2.034-2.471-2.629-3.551
	c4.615,3.191,9.979,5.658,10.406,11.404C58.825,42.727,56.513,32.377,45.377,30.414z"/>
<path fill="#1A1714" d="M37.634,32.145c-0.745,3.83,0.299,6.977,7.23,9.571C39.666,41.156,34.942,37.123,37.634,32.145z"/>
<path fill="#1A1714" d="M37.306,36.641c-2.195,1.514-4.858,4.338-5.32,9.286c1.083-3.966,3.52-6.959,5.577-8.813
	C37.468,36.963,37.382,36.806,37.306,36.641z"/>
<path fill="#1A1714" d="M40.729,35.989c3.125,4.249,12.397,5.644,11.928,13.582C51.583,41.58,43.118,41.838,40.729,35.989z"/>
</svg>
