<?xml version="1.0" encoding="utf-8"?>
<!-- Generator: Adobe Illustrator 24.1.2, SVG Export Plug-In . SVG Version: 6.00 Build 0)  -->
<svg version="1.1" id="Layer_1" xmlns="http://www.w3.org/2000/svg" xmlns:xlink="http://www.w3.org/1999/xlink" x="0px" y="0px"
	 width="64px" height="64px" viewBox="0 0 64 64" style="enable-background:new 0 0 64 64;" xml:space="preserve">
<style type="text/css">
	.st0{fill:#BA9757;}
	.st1{fill:#EBC199;}
	.st2{fill:#C98655;}
	.st3{fill:#FFFFFF;}
	.st4{fill:#A17C5B;}
	.st5{fill:#C99B71;}
	.st6{fill:url(#Oval_1_);}
	.st7{fill:#1A1626;}
	.st8{fill:#AB968C;}
	.st9{fill:#45332C;}
	.st10{fill:url(#Oval_2_);}
	.st11{fill:#D1A788;}
	.st12{fill:url(#SVGID_1_);}
</style>
<path class="st0" d="M42,61c20-8,18-27,18-27H4c0,0-2,19,18,27c0,0,4,1,10,1C38,62,42,61,42,61z"/>
<path class="st1" d="M32,5C17.49,5,10.5,16.82,11.37,32.02c0.18,3.05,1.03,7.46,2.08,11.23C15.63,51.1,27.11,59,32,59
	c4.89,0,16.37-7.9,18.55-15.75c1.05-3.78,1.9-8.18,2.08-11.23C53.5,16.82,46.51,5,32,5z"/>
<path class="st2" d="M32,46.66c-3.4-1.5-3.43-0.06-8.68,0.29c1.97,2.24,3.42,5.12,8.68,5.12c6.03,0,7.05-3.27,8.68-5.12
	C35.42,46.6,35.4,45.17,32,46.66z"/>
<path class="st3" d="M24.9,47.51c3.43,3.57,10.82,3.52,14.21,0C33.82,48.08,30.18,48.08,24.9,47.51z"/>
<path class="st4" d="M47.42,26.96c-3.15-1.88-8.81-2.11-11.04-0.83c-0.47,0.26-0.35,1.62,0.06,1.45c3.19-1.33,8.05-1.39,11.05,0.14
	C47.89,27.92,47.9,27.23,47.42,26.96z"/>
<path class="st4" d="M16.58,26.96c3.15-1.88,8.81-2.11,11.05-0.83c0.47,0.26,0.35,1.62-0.06,1.45c-3.19-1.33-8.05-1.4-11.05,0.14
	C16.11,27.92,16.1,27.23,16.58,26.96z"/>
<path class="st5" d="M35.26,41.84c-0.35-0.24-1.16,0.13-3.26,0.13c-2.11,0-2.92-0.37-3.26-0.13c-0.41,0.29,0.24,1.61,3.26,1.61
	C35.02,43.45,35.68,42.13,35.26,41.84z"/>
<path id="Path_2175_" class="st3" d="M28.77,32.66c0.12,0.96-0.53,2.1-2.33,2.95c-1.15,0.54-3.53,1.18-6.67-0.14
	c-1.4-0.59-2.77-2.44-2.65-3.46C18.82,28.81,27.18,28.34,28.77,32.66z"/>
<linearGradient id="Oval_1_" gradientUnits="userSpaceOnUse" x1="-424.9074" y1="476.8038" x2="-424.9074" y2="477.8035" gradientTransform="matrix(6.5701 0 0 -6.5701 2814.7817 3168.5269)">
	<stop  offset="0" style="stop-color:#A6694A"/>
	<stop  offset="1" style="stop-color:#4F2A1E"/>
</linearGradient>
<path id="Oval_324_" class="st6" d="M23.1,29.31c1.81,0,3.29,1.47,3.29,3.29c0,1.81-1.47,3.28-3.29,3.28
	c-1.81,0-3.29-1.47-3.29-3.28C19.81,30.78,21.28,29.31,23.1,29.31z"/>
<path id="Path_2174_" class="st7" d="M21.46,32.53c0,2.27,3.29,2.27,3.29,0C24.74,30.43,21.46,30.43,21.46,32.53z"/>
<path id="Path_2173_" class="st8" d="M20.96,31.61c0,0.95,1.38,0.95,1.38,0C22.33,30.73,20.96,30.73,20.96,31.61z"/>
<path id="Path_2172_" class="st9" d="M28.79,32.79c-1.33-4.29-10.43-3.65-11.67-0.77C17.58,28.32,27.65,27.35,28.79,32.79z"/>
<path id="Path_2171_" class="st3" d="M35.23,32.66c-0.12,0.96,0.53,2.1,2.33,2.95c1.15,0.54,3.53,1.18,6.67-0.14
	c1.41-0.59,2.77-2.44,2.65-3.46C45.18,28.81,36.82,28.34,35.23,32.66z"/>
<linearGradient id="Oval_2_" gradientUnits="userSpaceOnUse" x1="-424.9074" y1="476.8038" x2="-424.9074" y2="477.8035" gradientTransform="matrix(6.5701 0 0 -6.5701 2832.5122 3168.5269)">
	<stop  offset="0" style="stop-color:#A6694A"/>
	<stop  offset="1" style="stop-color:#4F2A1E"/>
</linearGradient>
<path id="Oval_323_" class="st10" d="M40.83,29.31c1.81,0,3.29,1.47,3.29,3.29c0,1.81-1.47,3.28-3.29,3.28
	c-1.81,0-3.29-1.47-3.29-3.28C37.54,30.78,39.01,29.31,40.83,29.31z"/>
<path id="Path_2170_" class="st7" d="M39.19,32.53c0,2.27,3.29,2.27,3.29,0C42.47,30.43,39.19,30.43,39.19,32.53z"/>
<path id="Path_2169_" class="st8" d="M38.69,31.61c0,0.95,1.38,0.95,1.38,0C40.06,30.73,38.69,30.73,38.69,31.61z"/>
<path id="Path_2168_" class="st9" d="M35.21,32.79c1.33-4.29,10.42-3.67,11.66-0.77C46.42,28.32,36.35,27.35,35.21,32.79z"/>
<path class="st11" d="M11.37,32.01c0.18,3.05,1.03,8.46,2.08,12.24C15.63,52.1,27.11,60,32,60c4.89,0,16.37-7.9,18.55-15.75
	c1.05-3.78,1.9-9.18,2.08-12.24c0.12-2.06,0.09-4.05-0.08-5.97c0,0-2.27,18.57-8.59,19.67c-0.95,0.17-1.63-0.88-2.41-1.28
	c-3.11-1.6-15.95-1.61-19.09,0c-0.79,0.4-1.46,1.45-2.41,1.28c-6.31-1.1-8.59-19.67-8.59-19.67C11.28,27.96,11.25,29.95,11.37,32.01
	z M23.88,47.3c2.95-1.27,8.12-0.63,8.12-0.63s5.17-0.64,8.12,0.63c1.33,0.57-2.82,6.49-5.52,5.29c-1.54-0.69-3.66-0.69-5.2,0
	C26.7,53.79,22.55,47.87,23.88,47.3z"/>
<linearGradient id="SVGID_1_" gradientUnits="userSpaceOnUse" x1="32" y1="60.9994" x2="32" y2="2.0006">
	<stop  offset="0.05" style="stop-color:#BA9757"/>
	<stop  offset="0.1973" style="stop-color:#C6A265"/>
	<stop  offset="0.5085" style="stop-color:#DBB77D"/>
	<stop  offset="0.7" style="stop-color:#E3BE86"/>
</linearGradient>
<path class="st12" d="M48.33,7.12c1.66-2.37-12.38-7.36-25.63-3.99C9.46,6.17,2,26,2,38.97C2,47.67,9,59,22,61
	C7.68,50.97,9.99,41.03,14,29c9.94-5.76,21.19-7.11,29-14c-1,3,4.29,6.78,7,14c4.11,10.96,6.22,22.04-8,32c12-2,20-13.33,20-22.03
	C62,28,53.64,5.59,48.33,7.12z"/>
<path class="st0" d="M4.38,37C13.54,24.81,43.2,25.63,48.33,7.12C38.38,22.66,6.89,25.28,4.38,37z"/>
</svg>
