<?xml version="1.0" encoding="utf-8"?>
<!-- Generator: Adobe Illustrator 15.0.0, SVG Export Plug-In . SVG Version: 6.00 Build 0)  -->
<!DOCTYPE svg PUBLIC "-//W3C//DTD SVG 1.1//EN" "http://www.w3.org/Graphics/SVG/1.1/DTD/svg11.dtd" [
	<!ENTITY ns_flows "http://ns.adobe.com/Flows/1.0/">
	<!ENTITY ns_extend "http://ns.adobe.com/Extensibility/1.0/">
	<!ENTITY ns_ai "http://ns.adobe.com/AdobeIllustrator/10.0/">
	<!ENTITY ns_graphs "http://ns.adobe.com/Graphs/1.0/">
]>
<svg version="1.1" id="Layer_1" xmlns:x="&ns_extend;" xmlns:i="&ns_ai;" xmlns:graph="&ns_graphs;"
	 xmlns="http://www.w3.org/2000/svg" xmlns:xlink="http://www.w3.org/1999/xlink" xmlns:a="http://ns.adobe.com/AdobeSVGViewerExtensions/3.0/"
	 x="0px" y="0px" width="64px" height="64px" viewBox="0 0 64 64" enable-background="new 0 0 64 64" xml:space="preserve">
<path fill="#F5C9C9" d="M11.432,52.718C13.934,51.43,22.5,48.595,22.5,48.595h18.977c0,0,8.662,2.827,11.148,4.12
	C56.24,54.587,57,57.144,57,59.56c0,3.254-50,3.254-50,0C7,57.14,7.807,54.583,11.432,52.718z"/>
<path fill="#E8BEBE" d="M16.027,61.483l-0.695-0.066C15.332,56.382,16.027,56.448,16.027,61.483z"/>
<path fill="#E8BEBE" d="M48.666,61.417l-0.693,0.066C47.973,56.448,48.666,56.382,48.666,61.417z"/>
<polygon fill="#5E4C3B" points="23.667,49.947 32,54.779 40.333,49.947 40.333,41.912 23.667,41.912 "/>
<path fill="#D61924" d="M33.781,57.842c-0.479-1.391-3.081-1.391-3.561,0c-0.382,1.107-0.702,2.559-0.97,4.158h5.498
	C34.481,60.4,34.161,58.949,33.781,57.842z"/>
<path fill="#E81C27" d="M33.644,57.842c-0.37,0.506-2.958,0.561-3.285,0c-0.778-1.322-2.055-3.945-2.055-3.945
	s3.225-1.779,3.696-1.779c0.476,0,3.698,1.779,3.698,1.779S34.537,56.631,33.644,57.842z"/>
<path fill="#F5E1E1" d="M40.333,46.908l1.382,1.57c0,0-0.933,2.51-2.32,9.754L32,52.117C32,52.117,37.959,52.229,40.333,46.908z"/>
<path fill="#F5E1E1" d="M23.667,46.908l-1.38,1.57c0,0,0.931,2.51,2.318,9.754L32,52.117C32,52.117,26.041,52.229,23.667,46.908z"/>
<path fill="#1A1714" d="M47.148,38.786c1.08,0.713,2.326,1.247,3.781,1.52c-2.582-5.888,1.313-18.237-6.668-27.311
	c-11.25,0.338-12.807,36.722,2.875,31.883c-0.998-0.433-1.623-1.315-1.99-2.43c1.209,0.347,2.621,0.358,4.266-0.148
	C48.104,41.733,47.436,40.399,47.148,38.786z"/>
<path fill="#1A1714" d="M18.91,12.995c-7.98,9.074-3.328,21.423-5.91,27.311c1.453-0.272,2.701-0.807,3.781-1.52
	c-0.287,1.613-0.955,2.947-2.264,3.514c1.645,0.507,3.057,0.495,4.266,0.148c-0.367,1.114-0.992,1.997-1.99,2.43
	C32.473,49.717,30.16,13.333,18.91,12.995z"/>
<path id="Path_2747_" fill="#735C48" d="M48.377,25.392c-2.541,0.308-4.375,8.815-2.777,11.063c0.223,0.313,1.533,0.813,2.504-1.168
	c0.537-1.099,2.088-2.014,2.568-4.278C51.289,28.109,50.904,25.085,48.377,25.392z"/>
<path id="Path_2746_" fill="#735C48" d="M15.555,25.392c2.541,0.308,4.375,8.815,2.777,11.063c-0.225,0.313-1.535,0.813-2.504-1.168
	c-0.539-1.099-2.09-2.014-2.57-4.278C12.643,28.109,13.027,25.085,15.555,25.392z"/>
<path id="Path_2745_" fill="#4A3728" d="M48.307,27.023c-0.662,0.209-1.385,1.219-1.777,2.896c2.318-0.498,1.738,3.362-0.275,3.434
	c0.018,0.389,0.045,0.789,0.092,1.209c0.971-1.41,1.955-0.844,2.932-2.94C50.158,29.731,49.949,26.507,48.307,27.023z"/>
<path id="Path_2744_" fill="#4A3728" d="M17.4,29.915c-0.393-1.674-1.113-2.685-1.775-2.892c-1.643-0.516-1.854,2.708-0.973,4.599
	c0.977,2.097,1.961,1.53,2.934,2.94c0.047-0.422,0.074-0.822,0.09-1.21C15.684,33.258,15.113,29.445,17.4,29.915z"/>
<path fill="#735C48" d="M31.965,9.034c-11.008,0-16.311,8.965-15.648,20.493c0.137,2.317,0.781,5.661,1.576,8.525
	C19.543,44.005,28.256,50,31.965,50s12.42-5.995,14.072-11.948c0.797-2.864,1.441-6.208,1.576-8.525
	C48.275,18,42.975,9.034,31.965,9.034z"/>
<path id="Path_2743_" fill="#403229" d="M43.926,24.542c-2.518-1.333-7.336-1.398-9.131-0.47c-0.385,0.18-0.131,1.443,0.193,1.323
	c2.5-0.99,6.535-1.012,8.875,0.084C44.176,25.623,44.307,24.728,43.926,24.542z"/>
<path id="Path_2742_" fill="#403229" d="M20.006,24.542c2.518-1.333,7.332-1.398,9.129-0.47c0.385,0.18,0.131,1.443-0.191,1.323
	c-2.506-0.99-6.535-1.012-8.879,0.084C19.754,25.623,19.625,24.728,20.006,24.542z"/>
<path id="Path_2741_" fill="#4A3728" d="M34.936,36.108c-0.314-0.219-1.051,0.118-2.971,0.118c-1.916,0-2.654-0.337-2.971-0.118
	c-0.377,0.266,0.225,1.463,2.971,1.463C34.713,37.571,35.314,36.374,34.936,36.108z"/>
<path id="Path_2740_" fill="#4A3728" d="M31.965,40.646c-2.475-0.729-6.145,0.345-6.145,0.345c1.398,1.522,2.422,3.497,6.145,3.497
	c4.266,0,4.992-2.242,6.146-3.497C38.111,40.99,34.439,39.913,31.965,40.646z"/>
<path id="Path_2739_" fill="#FFFFFF" d="M26.742,41.248c2.596,2.178,7.836,2.192,10.447,0
	C34.424,41.366,29.527,41.368,26.742,41.248z"/>
<path id="Path_2738_" fill="#FFFFFF" d="M29.516,29.085c0.094,0.729-0.4,1.593-1.77,2.241c-0.871,0.411-2.68,0.896-5.057-0.107
	c-1.066-0.449-2.105-1.849-2.012-2.623C21.967,26.167,28.311,25.811,29.516,29.085z"/>
<linearGradient id="Oval_1_" gradientUnits="userSpaceOnUse" x1="-424.5854" y1="477.4658" x2="-424.5854" y2="478.2246" gradientTransform="matrix(6.5701 0 0 -6.5701 2814.7805 3168.5281)">
	<stop  offset="0" style="stop-color:#A6694A"/>
	<stop  offset="1" style="stop-color:#4F2A1E"/>
	<a:midPointStop  offset="0" style="stop-color:#A6694A"/>
	<a:midPointStop  offset="0.5" style="stop-color:#A6694A"/>
	<a:midPointStop  offset="1" style="stop-color:#4F2A1E"/>
</linearGradient>
<circle id="Oval_314_" fill="url(#Oval_1_)" cx="25.211" cy="29.036" r="2.492"/>
<path id="Path_2737_" fill="#1A1626" d="M23.967,28.99c0,1.725,2.492,1.725,2.492,0C26.459,27.39,23.967,27.39,23.967,28.99z"/>
<path id="Path_2736_" fill="#AB968C" d="M23.588,28.292c0,0.723,1.045,0.723,1.045,0C24.633,27.623,23.588,27.623,23.588,28.292z"/>
<path id="Path_2735_" fill="#4A3728" d="M29.527,29.182c-1.012-3.252-7.91-2.772-8.85-0.585
	C21.025,25.796,28.666,25.057,29.527,29.182z"/>
<path id="Path_2734_" fill="#FFFFFF" d="M34.414,29.085c-0.094,0.729,0.402,1.593,1.771,2.241c0.869,0.411,2.678,0.896,5.057-0.107
	c1.066-0.449,2.104-1.849,2.01-2.623C41.965,26.167,35.621,25.811,34.414,29.085z"/>
<linearGradient id="Oval_2_" gradientUnits="userSpaceOnUse" x1="-425.2368" y1="477.4658" x2="-425.2368" y2="478.2246" gradientTransform="matrix(6.5701 0 0 -6.5701 2832.511 3168.5281)">
	<stop  offset="0" style="stop-color:#A6694A"/>
	<stop  offset="1" style="stop-color:#4F2A1E"/>
	<a:midPointStop  offset="0" style="stop-color:#A6694A"/>
	<a:midPointStop  offset="0.5" style="stop-color:#A6694A"/>
	<a:midPointStop  offset="1" style="stop-color:#4F2A1E"/>
</linearGradient>
<circle id="Oval_313_" fill="url(#Oval_2_)" cx="38.662" cy="29.036" r="2.492"/>
<path id="Path_2733_" fill="#1A1626" d="M37.418,28.99c0,1.725,2.492,1.725,2.492,0C39.91,27.39,37.418,27.39,37.418,28.99z"/>
<path id="Path_2732_" fill="#AB968C" d="M37.039,28.292c0,0.723,1.043,0.723,1.043,0C38.082,27.623,37.039,27.623,37.039,28.292z"/>
<path id="Path_2731_" fill="#4A3728" d="M34.404,29.182c1.01-3.251,7.904-2.786,8.848-0.585
	C42.902,25.796,35.266,25.057,34.404,29.182z"/>
<linearGradient id="SVGID_1_" gradientUnits="userSpaceOnUse" x1="31.8013" y1="31.8174" x2="31.8013" y2="6">
	<stop  offset="0" style="stop-color:#1A1714"/>
	<stop  offset="0.0953" style="stop-color:#1F1B18"/>
	<stop  offset="0.6555" style="stop-color:#37322C"/>
	<stop  offset="1" style="stop-color:#403A33"/>
	<a:midPointStop  offset="0" style="stop-color:#1A1714"/>
	<a:midPointStop  offset="0.4" style="stop-color:#1A1714"/>
	<a:midPointStop  offset="1" style="stop-color:#403A33"/>
</linearGradient>
<path fill="url(#SVGID_1_)" d="M31.967,6c-6.699,0-10.045,3.034-10.725,4.473c-8.098,1.852-10.703,15.516-4.641,21.344
	c0.754-6.211,1.479-10.201,5.607-14.404c2.408,3.227,7.41,5.042,11.889,5.042c-2.121-1.541-3.566-3.051-4.701-4.458
	c7.479,3.433,15.854,5.63,17.934,13.821C54.525,20.358,48.549,6,31.967,6z"/>
<path fill="#1A1714" d="M21.223,10.472c-0.078,4.427,2.186,9.995,12.879,11.982C26.451,22.971,18.602,18.348,21.223,10.472z"/>
<path fill="#1A1714" d="M21.717,16.613c-2.787,2.746-5.736,7.938-5.143,15.205c0.553-6.005,3.311-10.949,5.811-14.152
	C22.207,17.472,21.867,16.831,21.717,16.613z"/>
<path fill="#1A1714" d="M26.67,15.235c5.764,5.504,19.174,3.535,20.688,16.583C43.771,20.545,31.613,23.074,26.67,15.235z"/>
</svg>
