<?xml version="1.0" encoding="utf-8"?>
<!-- Generator: Adobe Illustrator 15.0.0, SVG Export Plug-In . SVG Version: 6.00 Build 0)  -->
<!DOCTYPE svg PUBLIC "-//W3C//DTD SVG 1.1//EN" "http://www.w3.org/Graphics/SVG/1.1/DTD/svg11.dtd" [
	<!ENTITY ns_flows "http://ns.adobe.com/Flows/1.0/">
	<!ENTITY ns_extend "http://ns.adobe.com/Extensibility/1.0/">
	<!ENTITY ns_ai "http://ns.adobe.com/AdobeIllustrator/10.0/">
	<!ENTITY ns_graphs "http://ns.adobe.com/Graphs/1.0/">
]>
<svg version="1.1" id="Layer_1" xmlns:x="&ns_extend;" xmlns:i="&ns_ai;" xmlns:graph="&ns_graphs;"
	 xmlns="http://www.w3.org/2000/svg" xmlns:xlink="http://www.w3.org/1999/xlink" xmlns:a="http://ns.adobe.com/AdobeSVGViewerExtensions/3.0/"
	 x="0px" y="0px" width="64px" height="64px" viewBox="0 0 64 64" enable-background="new 0 0 64 64" xml:space="preserve">
<path fill="#3AB0A2" d="M14.248,42.743c1.396-3.02,8.439-3.972,8.439-3.972l18.584-0.027c0,0,7.096,0.96,8.494,3.995
	c4.505,9.78-2.797,9.473-2.797,16.938c0,5.765-29.981,5.765-29.981,0C16.988,52.246,9.737,52.48,14.248,42.743z"/>
<path fill="#2B998D" d="M22.687,38.771c0,7.309,18.584,7.281,18.584-0.027l-1.863-0.619H24.632L22.687,38.771z"/>
<path fill="#4E5E67" d="M24.017,38.33c0,5.721,15.93,5.721,15.93,0c0-1.947,0-6.33,0-6.33h-15.93
	C24.017,32,24.017,36.383,24.017,38.33z"/>
<path fill="#3AB0A2" d="M22.687,38.771c-2.979,0.279-6.027,0.75-6.027,0.75c-6.098-1.242-8.785,1.549-12.619,5.258
	c-2.369,2.291,2.848,10.42,5.707,8.859C12.095,52.355,22.687,38.771,22.687,38.771z"/>
<path fill="#247D73" d="M11.917,50.398c9.381-0.908,10.479-3.078,6.395-8.057C23.937,52.355,11.388,45.623,11.917,50.398z"/>
<path fill="#3E4A52" d="M17.914,49.051c-2.703,2.326-11.145,0.953-13.631-2.229c-1.818-2.326,3.947-3.707,3.928-4.295
	c-0.057-1.754,9.928-0.49,9.604,1.018C17.564,44.701,20.681,46.67,17.914,49.051z"/>
<path fill="#6E8189" d="M17.564,44.701c-5.637-4.42-12.715-0.279-13.162,1.01c-1.813,5.213-5.098,7.201-4.271,8.271
	c1.209,1.564,1.619,3.5,2.104,4.621c0.268,0.619,1.518,0.625,1.52-0.535c0.002-0.945-0.195-2.002-0.07-2.088
	c1.824,2.654,1.379,4.23,1.834,4.748c0.531,0.602,2.543,0.668,1.967-2.373c0,0,0.854,1.475,1.117,2.768
	c0.281,1.373,2.443,1.082,2.594-0.521c0.129-1.377-0.863-3.885-0.863-3.885s0.816,1.242,1.576,2.861
	c0.422,0.902,1.602,0.232,1.846-1.252c0.309-1.879-1.447-5.588-1.379-6.072c0.166-1.152,1.199-0.807,2.301-2.141
	c0,0-1.248,2.389-0.084,4.631c0.768,1.479,2.396,1.008,2.203,0.021c-0.582-2.969,1.123-3.105,1.123-4.652
	C17.917,48.697,18.767,45.645,17.564,44.701z"/>
<path fill="#3E4A52" d="M3.636,58.598c0.156-2.219-1.293-4.539-1.164-4.891c0.193-0.527,0.543-1.357,1.082-2.27
	c0.154,0.518-0.734,1.867-0.484,2.705C3.24,54.707,4.488,57.166,3.636,58.598z"/>
<path fill="#3E4A52" d="M7.316,60.506c0.572-2.184-2.025-5.846-1.896-6.197c0.191-0.527,0.824-2.199,1.201-3.91
	c-0.055,2.205-0.516,3.049-0.588,4.004C5.966,55.305,8.488,58.652,7.316,60.506z"/>
<path fill="#3E4A52" d="M10.99,61.256c0.572-2.186-1.453-5.875-1.559-6.238c-0.34-1.17-0.346-3.195,0.031-4.904
	c-0.057,2.205,0.08,3.652,0.5,4.938C10.244,55.904,12.164,59.402,10.99,61.256z"/>
<path fill="#3AB0A2" d="M41.313,38.771c2.98,0.279,6.027,0.75,6.027,0.75c6.098-1.242,8.785,1.549,12.619,5.258
	c2.369,2.291-2.848,10.42-5.707,8.859C51.904,52.355,41.313,38.771,41.313,38.771z"/>
<path fill="#247D73" d="M52.082,50.398c-9.381-0.908-10.477-3.078-6.395-8.057C40.063,52.355,52.611,45.623,52.082,50.398z"/>
<path fill="#3E4A52" d="M46.086,49.051c2.705,2.326,11.145,0.953,13.633-2.229c1.816-2.326-3.949-3.707-3.93-4.295
	c0.057-1.754-9.926-0.49-9.602,1.018C46.436,44.701,43.318,46.67,46.086,49.051z"/>
<path fill="#6E8189" d="M46.436,44.701c5.637-4.42,12.715-0.279,13.164,1.01c1.811,5.213,5.098,7.201,4.27,8.271
	c-1.209,1.564-1.619,3.5-2.104,4.621c-0.268,0.619-1.516,0.625-1.52-0.535c-0.002-0.945,0.197-2.002,0.07-2.088
	c-1.824,2.654-1.379,4.23-1.834,4.748c-0.531,0.602-2.541,0.668-1.967-2.373c0,0-0.854,1.475-1.117,2.768
	c-0.279,1.373-2.443,1.082-2.594-0.521c-0.129-1.377,0.865-3.885,0.865-3.885s-0.818,1.242-1.576,2.861
	c-0.424,0.902-1.602,0.232-1.846-1.252c-0.311-1.879,1.445-5.588,1.377-6.072c-0.166-1.152-1.199-0.807-2.299-2.141
	c0,0,1.246,2.389,0.082,4.631c-0.768,1.479-2.396,1.008-2.203,0.021c0.582-2.969-1.123-3.105-1.123-4.652
	C46.082,48.697,45.232,45.645,46.436,44.701z"/>
<path fill="#3E4A52" d="M60.363,58.598c-0.156-2.219,1.293-4.539,1.164-4.891c-0.191-0.527-0.543-1.357-1.082-2.27
	c-0.154,0.518,0.734,1.867,0.484,2.705C60.76,54.707,59.512,57.166,60.363,58.598z"/>
<path fill="#3E4A52" d="M56.684,60.506c-0.572-2.184,2.025-5.846,1.896-6.197c-0.191-0.527-0.824-2.199-1.201-3.91
	c0.055,2.205,0.518,3.049,0.588,4.004C58.033,55.305,55.512,58.652,56.684,60.506z"/>
<path fill="#3E4A52" d="M53.01,61.256c-0.572-2.186,1.453-5.875,1.559-6.238c0.34-1.17,0.348-3.195-0.029-4.904
	c0.055,2.205-0.08,3.652-0.502,4.938C53.758,55.904,51.838,59.402,53.01,61.256z"/>
<path fill="#3AB0A2" d="M11.052,39.947c1.143-0.102,2.807,0.066,3.289-0.475c-0.275-0.828,0.215-1.342,0.215-1.342
	S11,38.393,11.052,39.947z"/>
<path fill="#3AB0A2" d="M11.353,40.055c-1.037,0.449-2.371,1.373-3.09,1.137c-0.229-0.84-0.939-1.051-0.939-1.051
	S10.521,38.695,11.353,40.055z"/>
<path fill="#2B998D" d="M12.462,39.715c-1.037,0.449-1.529,0.836-2.248,0.598c-0.229-0.84-0.002-1.848-0.002-1.848
	S11.632,38.355,12.462,39.715z"/>
<path fill="#4E5E67" d="M14.634,39.473c-1.305,0.199-1.684,1.768-4.846,2.398c-1.178,0.164-1.633-0.686-1.633-0.686
	S11.353,38.953,14.634,39.473z"/>
<path fill="#6E8189" d="M14.851,39.473c-1.307,0.199-1.535,1.117-3.127,1.771c-0.475-0.725-2.115-0.602-2.115-0.602
	S11.57,38.953,14.851,39.473z"/>
<path fill="#2B998D" d="M12.253,41.686c-1.037,0.449-3.141,1.135-4.037,0.588c-0.229-0.84-1.441-1.135-1.441-1.135
	S11.423,40.326,12.253,41.686z"/>
<path fill="#2B998D" d="M41.404,53.893c-0.951,1.072-0.592,3.16,0.068,3.473c0.949-0.861,3.199-0.182,3.199-0.182
	S43.125,53.605,41.404,53.893z"/>
<path fill="#2B998D" d="M40.502,54.41c-0.623-1.133-2.467-2.088-2.287-3.229c2.223-0.205,2.215-2.568,2.215-2.568
	S42.727,51.682,40.502,54.41z"/>
<path fill="#247D73" d="M39.053,52.184c-0.361,0.641-2.527,0.564-3.301-0.855c0.227-1.215-0.299-2.863-0.299-2.863
	S38.088,48.455,39.053,52.184z"/>
<path fill="#2B998D" d="M37.391,56.184c-1-1.398-2.961-0.223-4.232-2.059c1.088-0.762,2.594-2.797,2.594-2.797
	S38.328,54.137,37.391,56.184z"/>
<path fill="#247D73" d="M41.473,57.365c-1.516-0.121-1.896,1.404-3.582,2.072c0.326-1.479-0.5-3.254-0.5-3.254
	S41.479,53.756,41.473,57.365z"/>
<path fill="#247D73" d="M39.969,52.91c0.248,1.504,0.684,2.225,1.344,2.539c0.891-0.916,3.016-1.93,3.016-1.93
	S41.697,51.832,39.969,52.91z"/>
<path fill="#4E5E67" d="M41.369,56.504c-1.992-1.354-3.887-0.426-3.887-0.426s0.154-1.732-1.504-4.504
	c1.287,0.553,3.074,0.609,3.074,0.609S41.74,53.379,41.369,56.504z"/>
<path fill="#6E8189" d="M41.369,56.504c-1.992-1.354-3.979-0.32-3.979-0.32s-0.117-1.898-1.113-4.084
	C38.313,53.715,40.297,52.184,41.369,56.504z"/>
<path fill="#2B998D" d="M26.083,54.141c-2.066,2.17-1.939,3.598,0.061,3.768C28.144,58.076,27.47,52.688,26.083,54.141z"/>
<path fill="#2B998D" d="M27.121,56.43c-1.301,0.467-1.338,2.482,0.041,2.6C28.542,59.145,29.714,55.5,27.121,56.43z"/>
<path fill="#2B998D" d="M21.691,55.42c-0.738-0.598-0.918,1.699,0.029,1.781C22.666,57.279,24.119,57.387,21.691,55.42z"/>
<path fill="#247D73" d="M24.07,58.186c-0.994,0.607-0.627,1.16,0.02,1.215C24.734,59.455,24.623,57.85,24.07,58.186z"/>
<path fill="#247D73" d="M19.718,52.1c0.793-0.078,3.098-1.15,0.725-2.951C19.808,48.668,18.923,52.178,19.718,52.1z"/>
<path fill="#2B998D" d="M40.078,46.82c0.639-0.305,1.703-0.875-0.264-1.303C39.123,45.367,37.25,48.168,40.078,46.82z"/>
<path fill="#4E5E67" d="M51.795,45.51c0.703-0.07,3.572-0.268,2.938-0.582C52.639,43.891,51.09,45.58,51.795,45.51z"/>
<path fill="#4E5E67" d="M53.512,46.607c-0.842,0.547,3.129,1.662,3.563,0.754C57.244,47.006,55.355,45.408,53.512,46.607z"/>
<path fill="#2B998D" d="M28.156,48.168c1.061-0.002-0.541-2-3.219-2C23.875,46.168,24.615,48.172,28.156,48.168z"/>
<path id="Path_399_" fill="#6E8189" d="M47.555,19.52c-2.41,0.289-4.152,8.35-2.635,10.479c0.213,0.295,1.455,0.771,2.375-1.107
	c0.512-1.041,1.982-1.908,2.439-4.053C50.32,22.092,49.955,19.229,47.555,19.52z"/>
<path id="Path_398_" fill="#6E8189" d="M16.404,19.52c2.412,0.289,4.152,8.35,2.635,10.479c-0.213,0.295-1.455,0.771-2.377-1.107
	c-0.51-1.041-1.982-1.908-2.438-4.053C13.638,22.092,14.003,19.229,16.404,19.52z"/>
<path id="Path_397_" fill="#4E5E67" d="M47.49,21.063c-0.629,0.197-1.316,1.156-1.688,2.746c2.197-0.473,1.648,3.184-0.264,3.252
	c0.02,0.367,0.043,0.746,0.09,1.145c0.92-1.336,1.855-0.801,2.783-2.785C49.246,23.629,49.049,20.576,47.49,21.063z"/>
<path id="Path_387_" fill="#4E5E67" d="M18.156,23.805c-0.373-1.588-1.059-2.545-1.688-2.742c-1.555-0.486-1.758,2.566-0.922,4.357
	c0.928,1.984,1.863,1.449,2.785,2.785c0.045-0.398,0.07-0.779,0.086-1.146C16.527,26.971,15.984,23.357,18.156,23.805z"/>
<path fill="#302C3B" d="M23.728,7.896l-0.623-3.893c-4.07,1.205-9.186,5.717-10.311,13.563C16.089,11.041,23.728,7.896,23.728,7.896
	z"/>
<path fill="#302C3B" d="M41.018,3.902l-1.895,5.021c0,0,9.182,4.551,11.717,13.236C51.531,11.891,46.041,5.715,41.018,3.902z"/>
<path fill="#E81C27" d="M31.892,14.922C31.988,14.922,31.988,14.922,31.892,14.922C31.988,14.922,31.988,14.922,31.892,14.922z"/>
<path fill="#302C3B" d="M31.984,2C20.916,2,16.187,7.855,16.187,15.873h31.588C47.775,7.855,43.045,2,31.984,2z"/>
<path fill="#6E8189" d="M31.982,8.223c-10.512,0-15.576,2.617-14.939,13.674c0.127,2.225,1.504,9.48,2.807,12.082
	c1.332,2.662,5.789,6.768,8.52,7.619c1.723,0.535,5.5,0.535,7.225,0c2.73-0.852,7.188-4.957,8.52-7.619
	c1.303-2.602,2.682-9.857,2.809-12.082C47.557,10.84,42.492,8.223,31.982,8.223z"/>
<path fill="#302C3B" d="M31.984,6.914c-6.355,0-20.109-2.734-14.543,17.975c0.332-2.443-0.33-5.65,0.711-8.178
	c3.225-7.846,4.131-5.109,13.832-5.109c9.7,0,10.606-2.736,13.831,5.109c1.041,2.527,0.379,5.734,0.711,8.178
	C52.092,4.18,38.34,6.914,31.984,6.914z"/>
<path fill="#302C3B" d="M43.965,17.631c-2.436-1.207-7.092-1.268-8.826-0.426c-0.371,0.164-0.127,1.311,0.186,1.199
	c2.42-0.895,6.318-0.916,8.582,0.078C44.207,18.609,44.334,17.801,43.965,17.631z"/>
<path fill="#302C3B" d="M19.998,17.631c2.434-1.207,7.09-1.268,8.826-0.426c0.371,0.164,0.127,1.311-0.186,1.199
	c-2.422-0.895-6.318-0.916-8.584,0.078C19.753,18.609,19.628,17.801,19.998,17.631z"/>
<path fill="#1A1626" d="M36.389,36.439c0,1.559-1.973,2.131-4.407,2.131c-2.434,0-4.404-0.572-4.404-2.131
	C27.578,30.461,36.389,30.461,36.389,36.439z"/>
<path fill="#302C3B" d="M18.427,10.375c-3.309,2.293-6.275,9.402-6.023,15.781c1.129-5.898,5.086-7.203,5.086-7.203L18.427,10.375z"
	/>
<path fill="#4E5E67" d="M37.668,19.387c-5.213,1.604-2.051,8.943,3.162,7.34S42.881,17.785,37.668,19.387z"/>
<path fill="#4E5E67" d="M26.296,19.387c-5.215-1.602-8.377,5.736-3.166,7.34C28.345,28.33,31.507,20.99,26.296,19.387z"/>
<path fill="#4E5E67" d="M24.152,29.938c-1.072-0.09-1.041,1.93,0.031,2.021C25.257,32.049,25.226,30.027,24.152,29.938z"/>
<path fill="#4E5E67" d="M22.316,30.623c-0.506-0.043-0.492,0.912,0.016,0.955S22.824,30.666,22.316,30.623z"/>
<path fill="#4E5E67" d="M23.07,32.107c-0.346-0.029-0.336,0.623,0.012,0.652C23.427,32.789,23.417,32.137,23.07,32.107z"/>
<path fill="#4E5E67" d="M38.381,35.723c0.693,0.822,2.102-0.629,1.406-1.453C39.092,33.447,37.686,34.898,38.381,35.723z"/>
<path fill="#4E5E67" d="M40.162,36.535c0.328,0.389,0.994-0.297,0.666-0.688C40.498,35.459,39.834,36.146,40.162,36.535z"/>
<path fill="#4E5E67" d="M40.68,34.951c0.225,0.268,0.678-0.201,0.453-0.467C40.91,34.217,40.455,34.688,40.68,34.951z"/>
<path fill="#302C3B" d="M31.011,7.83c2.059,3.67,9.766,5.963,12.415,5.725C41.027,11.129,39.963,4.883,31.011,7.83z"/>
<path fill="#302C3B" d="M20.611,7.633c2.914,4.369,13.819,7.102,17.567,6.818C34.783,11.561,33.277,4.121,20.611,7.633z"/>
<path fill="#302C3B" d="M20.189,6.629c-3.492,5.686,5.596,8.018,9.35,7.789C26.173,12.197,23.914,6.451,20.189,6.629z"/>
<path id="Path_386_" fill="#4E5E67" d="M34.955,28.668c-0.314-0.219-1.053,0.119-2.977,0.119c-1.92,0-2.66-0.338-2.975-0.119
	c-0.377,0.266,0.223,1.461,2.975,1.461C34.732,30.129,35.334,28.934,34.955,28.668z"/>
<path fill="#F46C60" d="M35.67,37.32c0,1.559-1.654,2.131-3.692,2.131c-2.037,0-3.689-0.572-3.689-2.131
	C28.289,34.867,35.67,34.867,35.67,37.32z"/>
<path fill="#E03636" d="M31.982,37.689l0.586-2.186c-0.389-0.027-0.783-0.027-1.17,0L31.982,37.689z"/>
<path fill="#FCC7C3" d="M21.33,22.51c0-3,6.973-3,6.973,0C28.302,26.51,21.33,26.51,21.33,22.51z"/>
<path fill="#FC5A4E" d="M24.884,24.891c-0.037,0.145-0.381,0.395-0.396,0.299c-0.029-0.17-0.168-0.512,0.152-0.68
	c-0.436,0.184-0.197,0.723-0.188,0.771c0.006,0.031-0.002,0.141-0.008,0.213c0.021,0.002,0.041,0.004,0.063,0.004l-0.004-0.238
	C24.503,25.26,24.843,25.176,24.884,24.891z"/>
<path fill="#FC5A4E" d="M25.66,25.324c0.094-0.029,0.1-0.605-0.367-0.74c0.342,0.125,0.363,0.537,0.33,0.672
	c-0.018,0.074-0.383-0.113-0.422-0.227c0.041,0.223,0.404,0.281,0.404,0.281l-0.004,0.129c0.016-0.002,0.031-0.004,0.047-0.008
	C25.64,25.383,25.638,25.332,25.66,25.324z"/>
<path fill="#FC5A4E" d="M26.46,24.563c0.035,0.145-0.148,0.527-0.207,0.451c-0.105-0.137-0.391-0.373-0.186-0.672
	c-0.299,0.367,0.166,0.73,0.197,0.768c0.016,0.02,0.043,0.076,0.066,0.131c0.018-0.006,0.035-0.012,0.053-0.02L26.3,25.068
	C26.3,25.068,26.56,24.834,26.46,24.563z"/>
<path fill="#FC5A4E" d="M27.21,24.541c0.066-0.07-0.211-0.59-0.686-0.494c0.361-0.047,0.58,0.313,0.619,0.447
	c0.02,0.076-0.393,0.076-0.482-0.008c0.146,0.18,0.494,0.066,0.494,0.066l0.09,0.18c0.018-0.014,0.033-0.025,0.049-0.039
	C27.251,24.646,27.187,24.564,27.21,24.541z"/>
<path fill="#FC5A4E" d="M27.472,23.375c0.133,0.123,0.199,0.631,0.09,0.592c-0.197-0.066-0.639-0.115-0.633-0.553
	c-0.057,0.568,0.654,0.625,0.709,0.643c0.029,0.01,0.1,0.053,0.164,0.094c0.014-0.02,0.027-0.037,0.041-0.057l-0.197-0.104
	C27.646,23.99,27.751,23.582,27.472,23.375z"/>
<path fill="#FC5A4E" d="M28.08,22.865c0.021-0.123-0.561-0.463-0.967-0.02c0.324-0.311,0.756-0.096,0.875,0.018
	c0.064,0.064-0.338,0.363-0.475,0.342c0.25,0.082,0.52-0.289,0.52-0.289l0.223,0.137c0.006-0.029,0.01-0.059,0.014-0.086
	C28.201,22.949,28.072,22.908,28.08,22.865z"/>
<path fill="#FC5A4E" d="M27.583,21.9c0.162,0.043,0.441,0.43,0.334,0.447c-0.191,0.031-0.576,0.186-0.762-0.176
	c0.203,0.49,0.811,0.225,0.863,0.215c0.045-0.008,0.207,0.006,0.279,0.014c-0.002-0.025-0.004-0.049-0.006-0.074l-0.295,0.004
	C27.998,22.33,27.904,21.949,27.583,21.9z"/>
<path fill="#FC5A4E" d="M24.13,24.943c-0.039,0.113-0.396,0.303-0.412,0.229c-0.029-0.133-0.006-0.541,0.328-0.668
	c-0.453,0.139-0.455,0.709-0.365,0.738c0.023,0.008,0.018,0.068,0.008,0.123c0.016,0.004,0.031,0.008,0.049,0.012l-0.004-0.15
	C23.734,25.227,24.087,25.164,24.13,24.943z"/>
<path fill="#FC5A4E" d="M23.353,23.973c0.264,0.385-0.098,0.686-0.232,0.859c-0.074,0.098-0.314-0.393-0.27-0.578
	C22.728,24.6,23.06,24.9,23.06,24.9l-0.105,0.191c0.021,0.01,0.045,0.021,0.066,0.031c0.031-0.07,0.064-0.145,0.084-0.168
	C23.144,24.906,23.738,24.445,23.353,23.973z"/>
<path fill="#FC5A4E" d="M22.703,24.158c-0.098,0.09-0.494,0.15-0.463,0.076c0.055-0.133,0.318-0.502,0.658-0.512
	c-0.441-0.02-0.781,0.508-0.729,0.564c0.02,0.02-0.055,0.104-0.102,0.156c0.012,0.012,0.023,0.023,0.035,0.035l0.117-0.188
	C22.22,24.291,22.537,24.348,22.703,24.158z"/>
<path fill="#FC5A4E" d="M22.847,22.953c0.033,0.486-0.561,0.516-0.822,0.58c-0.145,0.035-0.084-0.525,0.088-0.654
	c-0.363,0.215-0.199,0.676-0.199,0.676l-0.346,0.137c0.012,0.029,0.025,0.057,0.039,0.084c0.092-0.047,0.266-0.135,0.32-0.148
	C22.001,23.611,22.955,23.59,22.847,22.953z"/>
<path fill="#FC5A4E" d="M22.21,22.602c-0.18,0.072-0.625-0.178-0.529-0.279c0.176-0.184,0.77-0.596,1.113-0.307
	c-0.42-0.432-1.23,0.188-1.229,0.336c0,0.049-0.143,0.129-0.236,0.178c0,0.031,0.002,0.063,0.002,0.094l0.281-0.221
	C21.613,22.402,21.875,22.787,22.21,22.602z"/>
<linearGradient id="SVGID_1_" gradientUnits="userSpaceOnUse" x1="25.0171" y1="24.5098" x2="25.0171" y2="20.5107">
	<stop  offset="0" style="stop-color:#A6694A"/>
	<stop  offset="1" style="stop-color:#4F2A1E"/>
	<a:midPointStop  offset="0" style="stop-color:#A6694A"/>
	<a:midPointStop  offset="0.5" style="stop-color:#A6694A"/>
	<a:midPointStop  offset="1" style="stop-color:#4F2A1E"/>
</linearGradient>
<path fill="url(#SVGID_1_)" d="M23.017,22.436c0,2.766,4,2.766,4,0C27.017,19.869,23.017,19.869,23.017,22.436z"/>
<path fill="#1A1626" d="M24.185,22.479c0,1.148,1.662,1.148,1.662,0C25.847,21.414,24.185,21.414,24.185,22.479z"/>
<path fill="#3E4A52" d="M28.302,22.514c0,0,0-0.002,0-0.004c0-4-6.973-4-6.973,0c0,0.002,0,0.004,0,0.004
	C22.73,21.457,27.05,21.568,28.302,22.514z"/>
<path fill="#FCC7C3" d="M42.633,22.51c0-3-6.973-3-6.973,0C35.66,26.51,42.633,26.51,42.633,22.51z"/>
<path fill="#FC5A4E" d="M39.078,24.891c0.037,0.145,0.381,0.395,0.396,0.299c0.029-0.17,0.166-0.512-0.154-0.68
	c0.438,0.184,0.197,0.723,0.188,0.771c-0.004,0.031,0.004,0.141,0.01,0.213c-0.021,0.002-0.041,0.004-0.063,0.004l0.004-0.238
	C39.459,25.26,39.119,25.176,39.078,24.891z"/>
<path fill="#FC5A4E" d="M38.303,25.324c-0.094-0.029-0.1-0.605,0.367-0.74c-0.344,0.125-0.363,0.537-0.332,0.672
	c0.02,0.074,0.385-0.113,0.424-0.227c-0.041,0.223-0.404,0.281-0.404,0.281l0.004,0.129c-0.016-0.002-0.031-0.004-0.047-0.008
	C38.322,25.383,38.324,25.332,38.303,25.324z"/>
<path fill="#FC5A4E" d="M37.5,24.563c-0.035,0.145,0.15,0.527,0.209,0.451c0.105-0.137,0.389-0.373,0.186-0.672
	c0.299,0.367-0.168,0.73-0.199,0.768c-0.014,0.02-0.041,0.076-0.066,0.131c-0.018-0.006-0.035-0.012-0.053-0.02l0.086-0.152
	C37.662,25.068,37.402,24.834,37.5,24.563z"/>
<path fill="#FC5A4E" d="M36.752,24.541c-0.066-0.07,0.211-0.59,0.686-0.494c-0.361-0.047-0.582,0.313-0.619,0.447
	c-0.021,0.076,0.393,0.076,0.482-0.008c-0.146,0.18-0.494,0.066-0.494,0.066l-0.092,0.18c-0.016-0.014-0.031-0.025-0.047-0.039
	C36.711,24.646,36.775,24.564,36.752,24.541z"/>
<path fill="#FC5A4E" d="M36.49,23.375c-0.133,0.123-0.201,0.631-0.09,0.592c0.195-0.066,0.639-0.115,0.633-0.553
	c0.055,0.568-0.654,0.625-0.711,0.643c-0.027,0.01-0.1,0.053-0.164,0.094c-0.012-0.02-0.027-0.037-0.039-0.057l0.197-0.104
	C36.316,23.99,36.211,23.582,36.49,23.375z"/>
<path fill="#FC5A4E" d="M35.883,22.865c-0.021-0.123,0.561-0.463,0.967-0.02c-0.324-0.311-0.756-0.096-0.875,0.018
	c-0.064,0.064,0.336,0.363,0.475,0.342c-0.252,0.082-0.52-0.289-0.52-0.289l-0.225,0.137c-0.004-0.029-0.008-0.059-0.012-0.086
	C35.762,22.949,35.891,22.908,35.883,22.865z"/>
<path fill="#FC5A4E" d="M36.379,21.9c-0.164,0.043-0.441,0.43-0.334,0.447c0.191,0.031,0.576,0.186,0.762-0.176
	c-0.203,0.49-0.811,0.225-0.865,0.215c-0.043-0.008-0.205,0.006-0.277,0.014c0.002-0.025,0.004-0.049,0.006-0.074l0.295,0.004
	C35.965,22.33,36.059,21.949,36.379,21.9z"/>
<path fill="#FC5A4E" d="M39.832,24.943c0.039,0.113,0.395,0.303,0.412,0.229c0.029-0.133,0.004-0.541-0.328-0.668
	c0.453,0.139,0.455,0.709,0.363,0.738c-0.023,0.008-0.018,0.068-0.006,0.123c-0.016,0.004-0.033,0.008-0.049,0.012l0.002-0.15
	C40.227,25.227,39.875,25.164,39.832,24.943z"/>
<path fill="#FC5A4E" d="M40.609,23.973c-0.264,0.385,0.098,0.686,0.232,0.859c0.074,0.098,0.313-0.393,0.27-0.578
	c0.123,0.346-0.209,0.646-0.209,0.646l0.104,0.191c-0.021,0.01-0.043,0.021-0.064,0.031c-0.031-0.07-0.066-0.145-0.084-0.168
	C40.818,24.906,40.225,24.445,40.609,23.973z"/>
<path fill="#FC5A4E" d="M41.26,24.158c0.098,0.09,0.492,0.15,0.463,0.076c-0.057-0.133-0.318-0.502-0.658-0.512
	c0.441-0.02,0.781,0.508,0.727,0.564c-0.018,0.02,0.057,0.104,0.104,0.156c-0.012,0.012-0.023,0.023-0.035,0.035l-0.117-0.188
	C41.742,24.291,41.426,24.348,41.26,24.158z"/>
<path fill="#FC5A4E" d="M41.115,22.953c-0.033,0.486,0.559,0.516,0.82,0.58c0.146,0.035,0.084-0.525-0.086-0.654
	c0.363,0.215,0.197,0.676,0.197,0.676l0.348,0.137c-0.014,0.029-0.027,0.057-0.039,0.084c-0.092-0.047-0.266-0.135-0.32-0.148
	C41.959,23.611,41.008,23.59,41.115,22.953z"/>
<path fill="#FC5A4E" d="M41.752,22.602c0.18,0.072,0.625-0.178,0.527-0.279c-0.174-0.184-0.768-0.596-1.113-0.307
	c0.42-0.432,1.232,0.188,1.23,0.336c0,0.049,0.143,0.129,0.236,0.178c0,0.031-0.002,0.063-0.004,0.094l-0.279-0.221
	C42.35,22.402,42.088,22.787,41.752,22.602z"/>
<linearGradient id="SVGID_2_" gradientUnits="userSpaceOnUse" x1="-1825.9199" y1="24.5098" x2="-1825.9199" y2="20.5107" gradientTransform="matrix(-1 0 0 1 -1786.9746 0)">
	<stop  offset="0" style="stop-color:#A6694A"/>
	<stop  offset="1" style="stop-color:#4F2A1E"/>
	<a:midPointStop  offset="0" style="stop-color:#A6694A"/>
	<a:midPointStop  offset="0.5" style="stop-color:#A6694A"/>
	<a:midPointStop  offset="1" style="stop-color:#4F2A1E"/>
</linearGradient>
<path fill="url(#SVGID_2_)" d="M40.945,22.436c0,2.766-4,2.766-4,0C36.945,19.869,40.945,19.869,40.945,22.436z"/>
<path fill="#1A1626" d="M39.777,22.479c0,1.148-1.662,1.148-1.662,0C38.115,21.414,39.777,21.414,39.777,22.479z"/>
<path fill="#3E4A52" d="M35.66,22.514c0,0,0-0.002,0-0.004c0-4,6.973-4,6.973,0c0,0.002,0,0.004,0,0.004
	C41.281,21.01,37.615,20.148,35.66,22.514z"/>
<path fill="#4E5E67" d="M9.992,46.201c-0.496,1.32,2.984,1.379,3.482,0.059S10.492,44.881,9.992,46.201z"/>
<path fill="#4E5E67" d="M10.583,48.5c-0.236,0.625,1.41,0.65,1.646,0.027C12.464,47.902,10.82,47.875,10.583,48.5z"/>
<path fill="#4E5E67" d="M13.375,47.643c-0.162,0.426,0.963,0.443,1.123,0.018C14.66,47.234,13.535,47.215,13.375,47.643z"/>
</svg>
