<?xml version="1.0" encoding="utf-8"?>
<!-- Generator: Adobe Illustrator 15.0.0, SVG Export Plug-In . SVG Version: 6.00 Build 0)  -->
<!DOCTYPE svg PUBLIC "-//W3C//DTD SVG 1.1//EN" "http://www.w3.org/Graphics/SVG/1.1/DTD/svg11.dtd" [
	<!ENTITY ns_flows "http://ns.adobe.com/Flows/1.0/">
	<!ENTITY ns_extend "http://ns.adobe.com/Extensibility/1.0/">
	<!ENTITY ns_ai "http://ns.adobe.com/AdobeIllustrator/10.0/">
	<!ENTITY ns_graphs "http://ns.adobe.com/Graphs/1.0/">
]>
<svg version="1.1" id="Layer_1" xmlns:x="&ns_extend;" xmlns:i="&ns_ai;" xmlns:graph="&ns_graphs;"
	 xmlns="http://www.w3.org/2000/svg" xmlns:xlink="http://www.w3.org/1999/xlink" xmlns:a="http://ns.adobe.com/AdobeSVGViewerExtensions/3.0/"
	 x="0px" y="0px" width="64px" height="64px" viewBox="0 0 64 64" enable-background="new 0 0 64 64" xml:space="preserve">
<rect x="8" y="11.643" fill="#B3C2C6" width="48" height="1"/>
<rect x="8" y="47.357" fill="#B3C2C6" width="48" height="1"/>
<rect x="8" y="18.787" fill="#B3C2C6" width="48" height="1"/>
<rect x="8" y="25.93" fill="#B3C2C6" width="48" height="1"/>
<rect x="8" y="33.072" fill="#B3C2C6" width="48" height="1"/>
<rect x="8" y="40.215" fill="#B3C2C6" width="48" height="1"/>
<linearGradient id="SVGID_1_" gradientUnits="userSpaceOnUse" x1="32.0005" y1="6" x2="32.0005" y2="4">
	<stop  offset="0" style="stop-color:#AB8A59"/>
	<stop  offset="1" style="stop-color:#D9A480"/>
	<a:midPointStop  offset="0" style="stop-color:#AB8A59"/>
	<a:midPointStop  offset="0.5" style="stop-color:#AB8A59"/>
	<a:midPointStop  offset="1" style="stop-color:#D9A480"/>
</linearGradient>
<rect x="7" y="4" fill="url(#SVGID_1_)" width="50" height="2"/>
<linearGradient id="SVGID_2_" gradientUnits="userSpaceOnUse" x1="56" y1="30" x2="60" y2="30">
	<stop  offset="0" style="stop-color:#D9A480"/>
	<stop  offset="1" style="stop-color:#AB8A59"/>
	<a:midPointStop  offset="0" style="stop-color:#D9A480"/>
	<a:midPointStop  offset="0.5" style="stop-color:#D9A480"/>
	<a:midPointStop  offset="1" style="stop-color:#AB8A59"/>
</linearGradient>
<rect x="56" y="2" fill="url(#SVGID_2_)" width="4" height="56"/>
<linearGradient id="SVGID_3_" gradientUnits="userSpaceOnUse" x1="4.0005" y1="30" x2="8.0005" y2="30">
	<stop  offset="0" style="stop-color:#D9A480"/>
	<stop  offset="1" style="stop-color:#AB8A59"/>
	<a:midPointStop  offset="0" style="stop-color:#D9A480"/>
	<a:midPointStop  offset="0.5" style="stop-color:#D9A480"/>
	<a:midPointStop  offset="1" style="stop-color:#AB8A59"/>
</linearGradient>
<rect x="4" y="2" fill="url(#SVGID_3_)" width="4" height="56"/>
<path fill="#F9C802" d="M11.117,9.643C8.923,9.643,9,10.977,9,12.145s-0.077,2.498,2.116,2.498c2.192,0,2.114-1.33,2.114-2.498
	S13.309,9.643,11.117,9.643z"/>
<path fill="#FFE12C" d="M19.034,9.643c-2.192,0-2.116,1.334-2.116,2.502s-0.076,2.498,2.116,2.498s2.114-1.33,2.114-2.498
	S21.226,9.643,19.034,9.643z"/>
<path fill="#F9C802" d="M23.265,9.643c-2.193,0-2.116,1.334-2.116,2.502s-0.077,2.498,2.116,2.498c2.192,0,2.114-1.33,2.114-2.498
	S25.458,9.643,23.265,9.643z"/>
<path fill="#FFE12C" d="M27.498,9.643c-2.193,0-2.117,1.334-2.117,2.502s-0.076,2.498,2.117,2.498c2.191,0,2.113-1.33,2.113-2.498
	S29.689,9.643,27.498,9.643z"/>
<path fill="#F9C802" d="M31.728,9.643c-2.193,0-2.115,1.334-2.115,2.502s-0.078,2.498,2.115,2.498c2.194,0,2.116-1.33,2.116-2.498
	S33.922,9.643,31.728,9.643z"/>
<path fill="#FFE12C" d="M35.961,9.643c-2.193,0-2.117,1.334-2.117,2.502s-0.076,2.498,2.117,2.498c2.191,0,2.113-1.33,2.113-2.498
	S38.152,9.643,35.961,9.643z"/>
<path fill="#F9C802" d="M40.191,9.643c-2.193,0-2.117,1.334-2.117,2.502s-0.076,2.498,2.117,2.498s2.115-1.33,2.115-2.498
	S42.385,9.643,40.191,9.643z"/>
<path fill="#FFE12C" d="M44.422,9.643c-2.191,0-2.115,1.334-2.115,2.502s-0.076,2.498,2.115,2.498c2.193,0,2.115-1.33,2.115-2.498
	S46.615,9.643,44.422,9.643z"/>
<path fill="#F9C802" d="M48.654,9.643c-2.193,0-2.117,1.334-2.117,2.502s-0.076,2.498,2.117,2.498c2.191,0,2.113-1.33,2.113-2.498
	S50.846,9.643,48.654,9.643z"/>
<path fill="#FFE12C" d="M52.887,9.643c-2.195,0-2.119,1.334-2.119,2.502s-0.076,2.498,2.119,2.498c2.191,0,2.113-1.33,2.113-2.498
	S55.078,9.643,52.887,9.643z"/>
<path fill="#F59E01" d="M11.117,16.787C8.923,16.787,9,18.119,9,19.289c0,1.166-0.077,2.498,2.116,2.498
	c2.192,0,2.114-1.332,2.114-2.498C13.231,18.119,13.309,16.787,11.117,16.787z"/>
<path fill="#EA8800" d="M15.348,16.787c-2.192,0-2.116,1.332-2.116,2.502c0,1.166-0.076,2.498,2.116,2.498s2.114-1.332,2.114-2.498
	C17.462,18.119,17.541,16.787,15.348,16.787z"/>
<path fill="#F59E01" d="M23.265,16.787c-2.193,0-2.117,1.332-2.117,2.502c0,1.166-0.076,2.498,2.117,2.498
	c2.191,0,2.113-1.332,2.113-2.498C25.378,18.119,25.457,16.787,23.265,16.787z"/>
<path fill="#EA8800" d="M27.496,16.787c-2.192,0-2.115,1.332-2.115,2.502c0,1.166-0.077,2.498,2.115,2.498
	c2.193,0,2.115-1.332,2.115-2.498C29.611,18.119,29.689,16.787,27.496,16.787z"/>
<path fill="#F59E01" d="M31.728,16.787c-2.193,0-2.117,1.332-2.117,2.502c0,1.166-0.076,2.498,2.117,2.498
	c2.194,0,2.116-1.332,2.116-2.498C33.844,18.119,33.922,16.787,31.728,16.787z"/>
<path fill="#EA8800" d="M35.961,16.787c-2.193,0-2.117,1.332-2.117,2.502c0,1.166-0.076,2.498,2.117,2.498
	c2.191,0,2.113-1.332,2.113-2.498C38.074,18.119,38.152,16.787,35.961,16.787z"/>
<path fill="#F59E01" d="M40.191,16.787c-2.193,0-2.117,1.332-2.117,2.502c0,1.166-0.076,2.498,2.117,2.498s2.115-1.332,2.115-2.498
	C42.307,18.119,42.385,16.787,40.191,16.787z"/>
<path fill="#EA8800" d="M44.422,16.787c-2.191,0-2.115,1.332-2.115,2.502c0,1.166-0.076,2.498,2.115,2.498
	c2.193,0,2.115-1.332,2.115-2.498C46.537,18.119,46.615,16.787,44.422,16.787z"/>
<path fill="#F59E01" d="M48.654,16.787c-2.193,0-2.117,1.332-2.117,2.502c0,1.166-0.076,2.498,2.117,2.498
	c2.191,0,2.113-1.332,2.113-2.498C50.768,18.119,50.846,16.787,48.654,16.787z"/>
<path fill="#EA8800" d="M52.887,16.787c-2.195,0-2.119,1.332-2.119,2.502c0,1.166-0.076,2.498,2.119,2.498
	c2.191,0,2.113-1.332,2.113-2.498C55,18.119,55.078,16.787,52.887,16.787z"/>
<path fill="#FF1C23" d="M11.117,23.93C8.923,23.93,9,25.264,9,26.432s-0.077,2.498,2.116,2.498c2.192,0,2.114-1.33,2.114-2.498
	S13.309,23.93,11.117,23.93z"/>
<path fill="#E30007" d="M15.348,23.93c-2.192,0-2.116,1.334-2.116,2.502s-0.076,2.498,2.116,2.498s2.114-1.33,2.114-2.498
	S17.541,23.93,15.348,23.93z"/>
<path fill="#FF1C23" d="M19.58,23.93c-2.193,0-2.116,1.334-2.116,2.502s-0.077,2.498,2.116,2.498c2.192,0,2.114-1.33,2.114-2.498
	S21.772,23.93,19.58,23.93z"/>
<path fill="#FF1C23" d="M27.496,23.93c-2.192,0-2.115,1.334-2.115,2.502s-0.077,2.498,2.115,2.498c2.193,0,2.115-1.33,2.115-2.498
	S29.689,23.93,27.496,23.93z"/>
<path fill="#E30007" d="M31.728,23.93c-2.193,0-2.117,1.334-2.117,2.502s-0.076,2.498,2.117,2.498c2.194,0,2.116-1.33,2.116-2.498
	S33.922,23.93,31.728,23.93z"/>
<path fill="#FF1C23" d="M35.961,23.93c-2.193,0-2.117,1.334-2.117,2.502s-0.076,2.498,2.117,2.498c2.191,0,2.113-1.33,2.113-2.498
	S38.152,23.93,35.961,23.93z"/>
<path fill="#E30007" d="M40.191,23.93c-2.193,0-2.117,1.334-2.117,2.502s-0.076,2.498,2.117,2.498s2.115-1.33,2.115-2.498
	S42.385,23.93,40.191,23.93z"/>
<path fill="#FF1C23" d="M44.422,23.93c-2.191,0-2.115,1.334-2.115,2.502s-0.076,2.498,2.115,2.498c2.193,0,2.115-1.33,2.115-2.498
	S46.615,23.93,44.422,23.93z"/>
<path fill="#E30007" d="M48.654,23.93c-2.193,0-2.117,1.334-2.117,2.502s-0.076,2.498,2.117,2.498c2.191,0,2.113-1.33,2.113-2.498
	S50.846,23.93,48.654,23.93z"/>
<path fill="#FF1C23" d="M52.887,23.93c-2.195,0-2.119,1.334-2.119,2.502s-0.076,2.498,2.119,2.498c2.191,0,2.113-1.33,2.113-2.498
	S55.078,23.93,52.887,23.93z"/>
<path fill="#A71DDE" d="M11.117,31.074C8.923,31.074,9,32.406,9,33.576c0,1.166-0.077,2.498,2.116,2.498
	c2.192,0,2.114-1.332,2.114-2.498C13.231,32.406,13.309,31.074,11.117,31.074z"/>
<path fill="#BC2AF7" d="M15.348,31.074c-2.192,0-2.116,1.332-2.116,2.502c0,1.166-0.076,2.498,2.116,2.498s2.114-1.332,2.114-2.498
	C17.462,32.406,17.541,31.074,15.348,31.074z"/>
<path fill="#A71DDE" d="M19.58,31.074c-2.193,0-2.116,1.332-2.116,2.502c0,1.166-0.077,2.498,2.116,2.498
	c2.192,0,2.114-1.332,2.114-2.498C21.694,32.406,21.772,31.074,19.58,31.074z"/>
<path fill="#BC2AF7" d="M23.811,31.074c-2.192,0-2.116,1.332-2.116,2.502c0,1.166-0.076,2.498,2.116,2.498s2.114-1.332,2.114-2.498
	C25.925,32.406,26.003,31.074,23.811,31.074z"/>
<path fill="#BC2AF7" d="M31.728,31.074c-2.193,0-2.117,1.332-2.117,2.502c0,1.166-0.076,2.498,2.117,2.498
	c2.194,0,2.116-1.332,2.116-2.498C33.844,32.406,33.922,31.074,31.728,31.074z"/>
<path fill="#A71DDE" d="M35.961,31.074c-2.193,0-2.117,1.332-2.117,2.502c0,1.166-0.076,2.498,2.117,2.498
	c2.191,0,2.113-1.332,2.113-2.498C38.074,32.406,38.152,31.074,35.961,31.074z"/>
<path fill="#BC2AF7" d="M40.191,31.074c-2.193,0-2.117,1.332-2.117,2.502c0,1.166-0.076,2.498,2.117,2.498s2.115-1.332,2.115-2.498
	C42.307,32.406,42.385,31.074,40.191,31.074z"/>
<path fill="#A71DDE" d="M44.422,31.074c-2.191,0-2.115,1.332-2.115,2.502c0,1.166-0.076,2.498,2.115,2.498
	c2.193,0,2.115-1.332,2.115-2.498C46.537,32.406,46.615,31.074,44.422,31.074z"/>
<path fill="#BC2AF7" d="M48.654,31.074c-2.193,0-2.117,1.332-2.117,2.502c0,1.166-0.076,2.498,2.117,2.498
	c2.191,0,2.113-1.332,2.113-2.498C50.768,32.406,50.846,31.074,48.654,31.074z"/>
<path fill="#A71DDE" d="M52.887,31.074c-2.195,0-2.119,1.332-2.119,2.502c0,1.166-0.076,2.498,2.119,2.498
	c2.191,0,2.113-1.332,2.113-2.498C55,32.406,55.078,31.074,52.887,31.074z"/>
<path fill="#018BC9" d="M11.117,38.217C8.923,38.217,9,39.551,9,40.719s-0.077,2.498,2.116,2.498c2.192,0,2.114-1.33,2.114-2.498
	S13.309,38.217,11.117,38.217z"/>
<path fill="#006DAE" d="M15.348,38.217c-2.192,0-2.116,1.334-2.116,2.502s-0.076,2.498,2.116,2.498s2.114-1.33,2.114-2.498
	S17.541,38.217,15.348,38.217z"/>
<path fill="#018BC9" d="M19.58,38.217c-2.193,0-2.116,1.334-2.116,2.502s-0.077,2.498,2.116,2.498c2.192,0,2.114-1.33,2.114-2.498
	S21.772,38.217,19.58,38.217z"/>
<path fill="#006DAE" d="M23.811,38.217c-2.192,0-2.116,1.334-2.116,2.502s-0.076,2.498,2.116,2.498s2.114-1.33,2.114-2.498
	S26.003,38.217,23.811,38.217z"/>
<path fill="#018BC9" d="M28.042,38.217c-2.193,0-2.116,1.334-2.116,2.502s-0.077,2.498,2.116,2.498s2.115-1.33,2.115-2.498
	S30.236,38.217,28.042,38.217z"/>
<path fill="#018BC9" d="M35.961,38.217c-2.193,0-2.117,1.334-2.117,2.502s-0.076,2.498,2.117,2.498c2.191,0,2.113-1.33,2.113-2.498
	S38.152,38.217,35.961,38.217z"/>
<path fill="#006DAE" d="M40.191,38.217c-2.193,0-2.117,1.334-2.117,2.502s-0.076,2.498,2.117,2.498s2.115-1.33,2.115-2.498
	S42.385,38.217,40.191,38.217z"/>
<path fill="#018BC9" d="M44.422,38.217c-2.191,0-2.115,1.334-2.115,2.502s-0.076,2.498,2.115,2.498c2.193,0,2.115-1.33,2.115-2.498
	S46.615,38.217,44.422,38.217z"/>
<path fill="#006DAE" d="M48.654,38.217c-2.193,0-2.117,1.334-2.117,2.502s-0.076,2.498,2.117,2.498c2.191,0,2.113-1.33,2.113-2.498
	S50.846,38.217,48.654,38.217z"/>
<path fill="#018BC9" d="M52.887,38.217c-2.195,0-2.119,1.334-2.119,2.502s-0.076,2.498,2.119,2.498c2.191,0,2.113-1.33,2.113-2.498
	S55.078,38.217,52.887,38.217z"/>
<path fill="#529320" d="M11.117,45.361C8.923,45.361,9,46.693,9,47.863c0,1.166-0.077,2.498,2.116,2.498
	c2.192,0,2.114-1.332,2.114-2.498C13.231,46.693,13.309,45.361,11.117,45.361z"/>
<path fill="#7AB51D" d="M15.348,45.361c-2.192,0-2.116,1.332-2.116,2.502c0,1.166-0.076,2.498,2.116,2.498s2.114-1.332,2.114-2.498
	C17.462,46.693,17.541,45.361,15.348,45.361z"/>
<path fill="#529320" d="M19.58,45.361c-2.193,0-2.116,1.332-2.116,2.502c0,1.166-0.077,2.498,2.116,2.498
	c2.192,0,2.114-1.332,2.114-2.498C21.694,46.693,21.772,45.361,19.58,45.361z"/>
<path fill="#7AB51D" d="M23.811,45.361c-2.192,0-2.116,1.332-2.116,2.502c0,1.166-0.076,2.498,2.116,2.498s2.114-1.332,2.114-2.498
	C25.925,46.693,26.003,45.361,23.811,45.361z"/>
<path fill="#529320" d="M28.042,45.361c-2.193,0-2.116,1.332-2.116,2.502c0,1.166-0.077,2.498,2.116,2.498s2.115-1.332,2.115-2.498
	C30.158,46.693,30.236,45.361,28.042,45.361z"/>
<path fill="#7AB51D" d="M32.275,45.361c-2.193,0-2.117,1.332-2.117,2.502c0,1.166-0.076,2.498,2.117,2.498
	c2.192,0,2.114-1.332,2.114-2.498C34.389,46.693,34.467,45.361,32.275,45.361z"/>
<path fill="#7AB51D" d="M40.191,45.361c-2.193,0-2.117,1.332-2.117,2.502c0,1.166-0.076,2.498,2.117,2.498s2.115-1.332,2.115-2.498
	C42.307,46.693,42.385,45.361,40.191,45.361z"/>
<path fill="#529320" d="M44.422,45.361c-2.191,0-2.115,1.332-2.115,2.502c0,1.166-0.076,2.498,2.115,2.498
	c2.193,0,2.115-1.332,2.115-2.498C46.537,46.693,46.615,45.361,44.422,45.361z"/>
<path fill="#7AB51D" d="M48.654,45.361c-2.193,0-2.117,1.332-2.117,2.502c0,1.166-0.076,2.498,2.117,2.498
	c2.191,0,2.113-1.332,2.113-2.498C50.768,46.693,50.846,45.361,48.654,45.361z"/>
<path fill="#529320" d="M52.887,45.361c-2.195,0-2.119,1.332-2.119,2.502c0,1.166-0.076,2.498,2.119,2.498
	c2.191,0,2.113-1.332,2.113-2.498C55,46.693,55.078,45.361,52.887,45.361z"/>
<path opacity="0.15" fill="#805543" d="M58.254,58c-0.006-0.832-0.012-1.677-0.012-2.553c0-8.935,0.311-16.183,0.693-16.18
	c0.383-0.003,0.691,7.243,0.691,16.182c0.002,0.88-0.004,1.722-0.012,2.551H60L59.998,2h-1.959
	c0.129,3.978,0.205,8.623,0.203,13.613c0.002,14.604-0.635,26.44-1.418,26.441c-0.201,0.001-0.391-0.783-0.566-2.188
	C56.252,46.621,56.154,52.821,56,58H58.254z"/>
<path opacity="0.15" fill="#805543" d="M5.746,2c0.006,0.832,0.011,1.677,0.011,2.553c0,8.935-0.309,16.183-0.693,16.18
	c-0.381,0.003-0.691-7.243-0.691-16.182C4.372,3.671,4.377,2.829,4.385,2H4l0,56h1.96c-0.129-3.978-0.206-8.623-0.204-13.613
	c-0.002-14.604,0.634-26.44,1.418-26.441c0.2-0.001,0.391,0.783,0.566,2.188C7.749,13.379,7.846,7.179,8,2H5.746z"/>
<linearGradient id="SVGID_4_" gradientUnits="userSpaceOnUse" x1="32.0005" y1="62" x2="32.0005" y2="54">
	<stop  offset="0" style="stop-color:#AB8A59"/>
	<stop  offset="1" style="stop-color:#D9A480"/>
	<a:midPointStop  offset="0" style="stop-color:#AB8A59"/>
	<a:midPointStop  offset="0.5" style="stop-color:#AB8A59"/>
	<a:midPointStop  offset="1" style="stop-color:#D9A480"/>
</linearGradient>
<rect x="2" y="54" fill="url(#SVGID_4_)" width="60" height="8"/>
<path opacity="0.15" fill="#805543" d="M2,56.218v3.388c5.872-0.197,12.974-0.318,20.693-0.318
	c19.996,0.002,36.205,0.788,36.207,1.756c-0.002,0.277-1.322,0.539-3.666,0.771C57.646,61.855,59.904,61.92,62,62v-2.969
	c-4.502,0.162-9.717,0.256-15.303,0.257c-16.878,0.001-30.562-0.841-30.562-1.88c0-1.037,13.683-1.88,30.562-1.879
	c5.588-0.001,10.799,0.094,15.303,0.255V54H30.86c-1.322,1.351-10.403,2.396-21.418,2.397C6.812,56.396,4.325,56.329,2,56.218z"/>
</svg>
