<?xml version="1.0" encoding="utf-8"?>
<!-- Generator: Adobe Illustrator 24.1.2, SVG Export Plug-In . SVG Version: 6.00 Build 0)  -->
<svg version="1.1" id="Layer_1" xmlns="http://www.w3.org/2000/svg" xmlns:xlink="http://www.w3.org/1999/xlink" x="0px" y="0px"
	 width="64px" height="64px" viewBox="0 0 64 64" style="enable-background:new 0 0 64 64;" xml:space="preserve">
<style type="text/css">
	.st0{fill:url(#SVGID_1_);}
	.st1{fill:url(#SVGID_2_);}
	.st2{fill:url(#SVGID_3_);}
	.st3{fill:url(#SVGID_4_);}
	.st4{fill:url(#SVGID_5_);}
	.st5{fill:url(#SVGID_6_);}
	.st6{fill:url(#SVGID_7_);}
	.st7{fill:url(#SVGID_8_);}
	.st8{fill:url(#SVGID_9_);}
	.st9{fill:url(#SVGID_10_);}
	.st10{fill:url(#SVGID_11_);}
	.st11{fill:url(#SVGID_12_);}
	.st12{fill:url(#SVGID_13_);}
	.st13{fill:url(#SVGID_14_);}
	.st14{fill:url(#SVGID_15_);}
	.st15{fill:url(#SVGID_16_);}
	.st16{fill:url(#SVGID_17_);}
	.st17{fill:url(#SVGID_18_);}
	.st18{fill:url(#SVGID_19_);}
	.st19{fill:url(#SVGID_20_);}
	.st20{fill:url(#SVGID_21_);}
	.st21{fill:url(#SVGID_22_);}
	.st22{fill:url(#SVGID_23_);}
	.st23{fill:url(#SVGID_24_);}
	.st24{fill:url(#SVGID_25_);}
	.st25{fill:url(#SVGID_26_);}
</style>
<linearGradient id="SVGID_1_" gradientUnits="userSpaceOnUse" x1="631.1785" y1="-156.1485" x2="654.2917" y2="-156.1485" gradientTransform="matrix(0.7071 0.7071 0.7071 -0.7071 -311.3005 -533.6057)">
	<stop  offset="0" style="stop-color:#00859C"/>
	<stop  offset="0.1491" style="stop-color:#009EAE"/>
	<stop  offset="0.3548" style="stop-color:#00B8C2"/>
	<stop  offset="0.5641" style="stop-color:#00CCD0"/>
	<stop  offset="0.7772" style="stop-color:#00D7D8"/>
	<stop  offset="1" style="stop-color:#00DBDB"/>
</linearGradient>
<path class="st0" d="M35.95,12.53c-9.6,9.9,7.38,26.73-6.04,37.84C32.84,38.46,20.25,22.41,35.95,12.53z"/>
<linearGradient id="SVGID_2_" gradientUnits="userSpaceOnUse" x1="631.1152" y1="-180.0419" x2="653.4975" y2="-180.0419" gradientTransform="matrix(0.7071 0.7071 0.7071 -0.7071 -311.3005 -533.6057)">
	<stop  offset="0" style="stop-color:#E84600"/>
	<stop  offset="1" style="stop-color:#FF931F"/>
</linearGradient>
<path class="st1" d="M12.45,61.18L15.27,64c4.67-9.02-1.92-21.73,0.65-32.19C5.65,40.32,13.11,52.1,12.45,61.18z"/>
<linearGradient id="SVGID_3_" gradientUnits="userSpaceOnUse" x1="36.5153" y1="928.7661" x2="34.3311" y2="928.7661" gradientTransform="matrix(-0.7071 0.7071 0.7071 0.7071 -611.7751 -632.3803)">
	<stop  offset="0" style="stop-color:#00859C"/>
	<stop  offset="0.1491" style="stop-color:#009EAE"/>
	<stop  offset="0.3548" style="stop-color:#00B8C2"/>
	<stop  offset="0.5641" style="stop-color:#00CCD0"/>
	<stop  offset="0.7772" style="stop-color:#00D7D8"/>
	<stop  offset="1" style="stop-color:#00DBDB"/>
</linearGradient>
<path class="st2" d="M16.53,47.55L18.08,46c0,0,3.69,3.69,4.86,4.86c0.49,0.49-1.06,2.03-1.55,1.55
	C20.17,51.2,16.53,47.55,16.53,47.55z"/>
<linearGradient id="SVGID_4_" gradientUnits="userSpaceOnUse" x1="36.5153" y1="921.9677" x2="34.331" y2="921.9677" gradientTransform="matrix(-0.7071 0.7071 0.7071 0.7071 -611.7751 -632.3803)">
	<stop  offset="0" style="stop-color:#E84600"/>
	<stop  offset="1" style="stop-color:#FF931F"/>
</linearGradient>
<path class="st3" d="M12.22,43.24c-0.59-0.59,0.95-2.14,1.55-1.55c1.09,1.09,2.98,2.98,4.31,4.31c0.49,0.49-1.06,2.03-1.55,1.55
	C15.23,46.25,13.17,44.2,12.22,43.24z"/>
<linearGradient id="SVGID_5_" gradientUnits="userSpaceOnUse" x1="-297.7797" y1="610.9014" x2="-295.5954" y2="610.9014" gradientTransform="matrix(0.7071 -0.7071 -0.7071 -0.7071 662.7508 257.7104)">
	<stop  offset="0" style="stop-color:#E84600"/>
	<stop  offset="1" style="stop-color:#FF931F"/>
</linearGradient>
<path class="st4" d="M25.47,38.45L23.93,40c0,0-5.87-5.88-7.04-7.04c-0.49-0.49,1.06-2.03,1.55-1.55
	C19.64,32.62,25.47,38.45,25.47,38.45z"/>
<linearGradient id="SVGID_6_" gradientUnits="userSpaceOnUse" x1="-297.7799" y1="600.631" x2="-295.5955" y2="600.631" gradientTransform="matrix(0.7071 -0.7071 -0.7071 -0.7071 662.7508 257.7104)">
	<stop  offset="0" style="stop-color:#00859C"/>
	<stop  offset="0.1491" style="stop-color:#009EAE"/>
	<stop  offset="0.3548" style="stop-color:#00B8C2"/>
	<stop  offset="0.5641" style="stop-color:#00CCD0"/>
	<stop  offset="0.7772" style="stop-color:#00D7D8"/>
	<stop  offset="1" style="stop-color:#00DBDB"/>
</linearGradient>
<path class="st5" d="M32.52,45.49c0.59,0.59-0.95,2.14-1.55,1.55c-1.09-1.09-5.71-5.71-7.04-7.04c-0.49-0.49,1.06-2.03,1.55-1.55
	C26.77,39.75,31.56,44.54,32.52,45.49z"/>
<linearGradient id="SVGID_7_" gradientUnits="userSpaceOnUse" x1="-303.0692" y1="610.9085" x2="-300.8848" y2="610.9085" gradientTransform="matrix(0.7071 -0.7071 -0.7071 -0.7071 662.7508 257.7104)">
	<stop  offset="0" style="stop-color:#E84600"/>
	<stop  offset="1" style="stop-color:#FF931F"/>
</linearGradient>
<path class="st6" d="M21.73,42.19l-1.55,1.55c0,0-5.87-5.87-7.04-7.04c-0.49-0.49,1.06-2.03,1.55-1.55
	C15.9,36.36,21.73,42.19,21.73,42.19z"/>
<linearGradient id="SVGID_8_" gradientUnits="userSpaceOnUse" x1="-303.0673" y1="600.6306" x2="-300.883" y2="600.6306" gradientTransform="matrix(0.7071 -0.7071 -0.7071 -0.7071 662.7508 257.7104)">
	<stop  offset="0" style="stop-color:#00859C"/>
	<stop  offset="0.1491" style="stop-color:#009EAE"/>
	<stop  offset="0.3548" style="stop-color:#00B8C2"/>
	<stop  offset="0.5641" style="stop-color:#00CCD0"/>
	<stop  offset="0.7772" style="stop-color:#00D7D8"/>
	<stop  offset="1" style="stop-color:#00DBDB"/>
</linearGradient>
<path class="st7" d="M28.78,49.23c0.59,0.59-0.95,2.14-1.55,1.55c-1.09-1.09-7.04-7.04-7.04-7.04l0.41-1.14l1.14-0.41
	C21.73,42.19,27.82,48.28,28.78,49.23z"/>
<linearGradient id="SVGID_9_" gradientUnits="userSpaceOnUse" x1="53.7138" y1="929.1481" x2="51.5293" y2="929.1481" gradientTransform="matrix(-0.7071 0.7071 0.7071 0.7071 -588.3968 -655.7588)">
	<stop  offset="0" style="stop-color:#00859C"/>
	<stop  offset="0.1491" style="stop-color:#009EAE"/>
	<stop  offset="0.3548" style="stop-color:#00B8C2"/>
	<stop  offset="0.5641" style="stop-color:#00CCD0"/>
	<stop  offset="0.7772" style="stop-color:#00D7D8"/>
	<stop  offset="1" style="stop-color:#00DBDB"/>
</linearGradient>
<path class="st8" d="M27.74,36.34l1.55-1.55c0,0,4.24,4.24,5.4,5.4c0.49,0.49-1.06,2.03-1.55,1.55
	C31.93,40.53,27.74,36.34,27.74,36.34z"/>
<linearGradient id="SVGID_10_" gradientUnits="userSpaceOnUse" x1="53.7153" y1="921.1895" x2="51.531" y2="921.1895" gradientTransform="matrix(-0.7071 0.7071 0.7071 0.7071 -588.3968 -655.7588)">
	<stop  offset="0" style="stop-color:#E84600"/>
	<stop  offset="1" style="stop-color:#FF931F"/>
</linearGradient>
<path class="st9" d="M22.34,30.93c-0.59-0.59,0.95-2.14,1.55-1.55c1.09,1.09,5.4,5.4,5.4,5.4l-0.41,1.14l-1.14,0.41
	C27.74,36.34,23.3,31.89,22.34,30.93z"/>
<linearGradient id="SVGID_11_" gradientUnits="userSpaceOnUse" x1="11.2185" y1="929.1479" x2="9.0341" y2="929.1479" gradientTransform="matrix(-0.7071 0.7071 0.7071 0.7071 -611.7751 -632.3803)">
	<stop  offset="0" style="stop-color:#E84600"/>
	<stop  offset="1" style="stop-color:#FF931F"/>
</linearGradient>
<path class="st10" d="M34.41,29.67l1.55-1.55c0,0,4.24,4.24,5.4,5.4c0.49,0.49-1.06,2.03-1.55,1.55
	C38.6,33.86,34.41,29.67,34.41,29.67z"/>
<linearGradient id="SVGID_12_" gradientUnits="userSpaceOnUse" x1="11.2198" y1="921.5858" x2="9.0355" y2="921.5858" gradientTransform="matrix(-0.7071 0.7071 0.7071 0.7071 -611.7751 -632.3803)">
	<stop  offset="0" style="stop-color:#00859C"/>
	<stop  offset="0.1491" style="stop-color:#009EAE"/>
	<stop  offset="0.3548" style="stop-color:#00B8C2"/>
	<stop  offset="0.5641" style="stop-color:#00CCD0"/>
	<stop  offset="0.7772" style="stop-color:#00D7D8"/>
	<stop  offset="1" style="stop-color:#00DBDB"/>
</linearGradient>
<path class="st11" d="M29.56,24.81c-0.59-0.59,0.95-2.14,1.55-1.55c1.09,1.09,3.52,3.52,4.86,4.86c0.49,0.49-1.06,2.03-1.55,1.55
	C33.11,28.37,30.51,25.76,29.56,24.81z"/>
<linearGradient id="SVGID_13_" gradientUnits="userSpaceOnUse" x1="-272.9992" y1="610.9085" x2="-270.8149" y2="610.9085" gradientTransform="matrix(0.7071 -0.7071 -0.7071 -0.7071 662.7508 257.7104)">
	<stop  offset="0" style="stop-color:#00859C"/>
	<stop  offset="0.1491" style="stop-color:#009EAE"/>
	<stop  offset="0.3548" style="stop-color:#00B8C2"/>
	<stop  offset="0.5641" style="stop-color:#00CCD0"/>
	<stop  offset="0.7772" style="stop-color:#00D7D8"/>
	<stop  offset="1" style="stop-color:#00DBDB"/>
</linearGradient>
<path class="st12" d="M42.99,20.93l-1.55,1.55c0,0-5.87-5.87-7.04-7.04c-0.49-0.49,1.06-2.03,1.55-1.55
	C37.17,15.1,42.99,20.93,42.99,20.93z"/>
<linearGradient id="SVGID_14_" gradientUnits="userSpaceOnUse" x1="-272.9994" y1="600.631" x2="-270.8151" y2="600.631" gradientTransform="matrix(0.7071 -0.7071 -0.7071 -0.7071 662.7508 257.7104)">
	<stop  offset="0" style="stop-color:#E84600"/>
	<stop  offset="1" style="stop-color:#FF931F"/>
</linearGradient>
<path class="st13" d="M50.04,27.97c0.59,0.59-0.95,2.14-1.55,1.55c-1.09-1.09-5.71-5.71-7.04-7.04c-0.49-0.49,1.06-2.03,1.55-1.55
	C44.29,22.23,49.08,27.01,50.04,27.97z"/>
<linearGradient id="SVGID_15_" gradientUnits="userSpaceOnUse" x1="-278.0292" y1="610.9085" x2="-275.8448" y2="610.9085" gradientTransform="matrix(0.7071 -0.7071 -0.7071 -0.7071 662.7508 257.7104)">
	<stop  offset="0" style="stop-color:#00859C"/>
	<stop  offset="0.1491" style="stop-color:#009EAE"/>
	<stop  offset="0.3548" style="stop-color:#00B8C2"/>
	<stop  offset="0.5641" style="stop-color:#00CCD0"/>
	<stop  offset="0.7772" style="stop-color:#00D7D8"/>
	<stop  offset="1" style="stop-color:#00DBDB"/>
</linearGradient>
<path class="st14" d="M39.44,24.48l-1.55,1.55c0,0-5.87-5.88-7.04-7.04c-0.49-0.49,1.06-2.03,1.55-1.55
	C33.61,18.66,39.44,24.48,39.44,24.48z"/>
<linearGradient id="SVGID_16_" gradientUnits="userSpaceOnUse" x1="-278.0303" y1="600.6306" x2="-275.846" y2="600.6306" gradientTransform="matrix(0.7071 -0.7071 -0.7071 -0.7071 662.7508 257.7104)">
	<stop  offset="0" style="stop-color:#E84600"/>
	<stop  offset="1" style="stop-color:#FF931F"/>
</linearGradient>
<path class="st15" d="M46.48,31.53c0.59,0.59-0.95,2.14-1.55,1.55c-1.09-1.09-7.04-7.04-7.04-7.04l0.41-1.14l1.14-0.41
	C39.44,24.48,45.52,30.57,46.48,31.53z"/>
<linearGradient id="SVGID_17_" gradientUnits="userSpaceOnUse" x1="29.1911" y1="929.1481" x2="27.0068" y2="929.1481" gradientTransform="matrix(-0.7071 0.7071 0.7071 0.7071 -588.3968 -655.7588)">
	<stop  offset="0" style="stop-color:#E84600"/>
	<stop  offset="1" style="stop-color:#FF931F"/>
</linearGradient>
<path class="st16" d="M45.08,19l1.55-1.55c0,0,4.24,4.24,5.4,5.4c0.49,0.49-1.06,2.03-1.55,1.55C49.27,23.19,45.08,19,45.08,19z"/>
<linearGradient id="SVGID_18_" gradientUnits="userSpaceOnUse" x1="29.1911" y1="921.1895" x2="27.0069" y2="921.1895" gradientTransform="matrix(-0.7071 0.7071 0.7071 0.7071 -588.3968 -655.7588)">
	<stop  offset="0" style="stop-color:#00859C"/>
	<stop  offset="0.1491" style="stop-color:#009EAE"/>
	<stop  offset="0.3548" style="stop-color:#00B8C2"/>
	<stop  offset="0.5641" style="stop-color:#00CCD0"/>
	<stop  offset="0.7772" style="stop-color:#00D7D8"/>
	<stop  offset="1" style="stop-color:#00DBDB"/>
</linearGradient>
<path class="st17" d="M39.68,13.59c-0.59-0.59,0.95-2.14,1.55-1.55c1.09,1.09,5.4,5.4,5.4,5.4l-0.41,1.14L45.08,19
	C45.08,19,40.64,14.55,39.68,13.59z"/>
<linearGradient id="SVGID_19_" gradientUnits="userSpaceOnUse" x1="80.6548" y1="929.1481" x2="78.4705" y2="929.1481" gradientTransform="matrix(-0.7071 0.7071 0.7071 0.7071 -588.3968 -655.7588)">
	<stop  offset="0" style="stop-color:#E84600"/>
	<stop  offset="1" style="stop-color:#FF931F"/>
</linearGradient>
<path class="st18" d="M8.69,55.39l1.55-1.55c0,0,4.24,4.24,5.4,5.4c0.49,0.49-1.06,2.03-1.55,1.55
	C12.89,59.58,8.69,55.39,8.69,55.39z"/>
<linearGradient id="SVGID_20_" gradientUnits="userSpaceOnUse" x1="80.6551" y1="921.1895" x2="78.4708" y2="921.1895" gradientTransform="matrix(-0.7071 0.7071 0.7071 0.7071 -588.3968 -655.7588)">
	<stop  offset="0" style="stop-color:#00859C"/>
	<stop  offset="0.1491" style="stop-color:#009EAE"/>
	<stop  offset="0.3548" style="stop-color:#00B8C2"/>
	<stop  offset="0.5641" style="stop-color:#00CCD0"/>
	<stop  offset="0.7772" style="stop-color:#00D7D8"/>
	<stop  offset="1" style="stop-color:#00DBDB"/>
</linearGradient>
<path class="st19" d="M3.29,49.98c-0.59-0.59,0.95-2.14,1.55-1.55c1.09,1.09,5.4,5.4,5.4,5.4l-0.41,1.14l-1.14,0.41
	C8.69,55.39,4.25,50.94,3.29,49.98z"/>
<linearGradient id="SVGID_21_" gradientUnits="userSpaceOnUse" x1="16.8106" y1="929.1481" x2="14.6263" y2="929.1481" gradientTransform="matrix(-0.7071 0.7071 0.7071 0.7071 -588.3968 -655.7588)">
	<stop  offset="0" style="stop-color:#00859C"/>
	<stop  offset="0.1491" style="stop-color:#009EAE"/>
	<stop  offset="0.3548" style="stop-color:#00B8C2"/>
	<stop  offset="0.5641" style="stop-color:#00CCD0"/>
	<stop  offset="0.7772" style="stop-color:#00D7D8"/>
	<stop  offset="1" style="stop-color:#00DBDB"/>
</linearGradient>
<path class="st20" d="M53.84,10.24l1.55-1.55c0,0,4.24,4.24,5.4,5.4c0.49,0.49-1.06,2.03-1.55,1.55
	C58.03,14.43,53.84,10.24,53.84,10.24z"/>
<linearGradient id="SVGID_22_" gradientUnits="userSpaceOnUse" x1="16.8095" y1="921.1895" x2="14.6252" y2="921.1895" gradientTransform="matrix(-0.7071 0.7071 0.7071 0.7071 -588.3968 -655.7588)">
	<stop  offset="0" style="stop-color:#E84600"/>
	<stop  offset="1" style="stop-color:#FF931F"/>
</linearGradient>
<path class="st21" d="M48.43,4.84c-0.59-0.59,0.95-2.14,1.55-1.55c1.09,1.09,5.4,5.4,5.4,5.4l-0.41,1.14l-1.14,0.41
	C53.84,10.24,49.39,5.79,48.43,4.84z"/>
<linearGradient id="SVGID_23_" gradientUnits="userSpaceOnUse" x1="631.9023" y1="-180.0454" x2="654.2916" y2="-180.0454" gradientTransform="matrix(0.7071 0.7071 0.7071 -0.7071 -311.3005 -533.6057)">
	<stop  offset="0" style="stop-color:#00DBDB"/>
	<stop  offset="0.2228" style="stop-color:#00D7D8"/>
	<stop  offset="0.4359" style="stop-color:#00CCD0"/>
	<stop  offset="0.6452" style="stop-color:#00B8C2"/>
	<stop  offset="0.8509" style="stop-color:#009EAE"/>
	<stop  offset="1" style="stop-color:#00859C"/>
</linearGradient>
<path class="st22" d="M2.82,51.55c9.08-0.66,20.87,6.8,29.37-3.46C21.73,50.66,9.02,44.07,0,48.73L2.82,51.55z"/>
<linearGradient id="SVGID_24_" gradientUnits="userSpaceOnUse" x1="631.1151" y1="-156.1414" x2="654.2266" y2="-156.1414" gradientTransform="matrix(0.7071 0.7071 0.7071 -0.7071 -311.3005 -533.6057)">
	<stop  offset="0" style="stop-color:#FF931F"/>
	<stop  offset="1" style="stop-color:#E84600"/>
</linearGradient>
<path class="st23" d="M51.48,28.05c-9.9,9.6-26.73-7.38-37.84,6.04C25.54,31.16,41.59,43.75,51.48,28.05z"/>
<linearGradient id="SVGID_25_" gradientUnits="userSpaceOnUse" x1="631.9023" y1="-134.3482" x2="654.2846" y2="-134.3482" gradientTransform="matrix(0.7071 0.7071 0.7071 -0.7071 -311.3005 -533.6057)">
	<stop  offset="0" style="stop-color:#E84600"/>
	<stop  offset="1" style="stop-color:#FF931F"/>
</linearGradient>
<path class="st24" d="M51.55,2.82L48.73,0c-4.67,9.02,1.92,21.73-0.65,32.19C58.35,23.68,50.89,11.9,51.55,2.82z"/>
<linearGradient id="SVGID_26_" gradientUnits="userSpaceOnUse" x1="631.1082" y1="-134.3411" x2="653.4905" y2="-134.3411" gradientTransform="matrix(0.7071 0.7071 0.7071 -0.7071 -311.3005 -533.6057)">
	<stop  offset="0" style="stop-color:#00DBDB"/>
	<stop  offset="0.2228" style="stop-color:#00D7D8"/>
	<stop  offset="0.4359" style="stop-color:#00CCD0"/>
	<stop  offset="0.6452" style="stop-color:#00B8C2"/>
	<stop  offset="0.8509" style="stop-color:#009EAE"/>
	<stop  offset="1" style="stop-color:#00859C"/>
</linearGradient>
<path class="st25" d="M61.18,12.45c-9.08,0.66-20.87-6.8-29.37,3.46c10.46-2.58,23.17,4.02,32.19-0.65L61.18,12.45z"/>
</svg>
