<?xml version="1.0" encoding="utf-8"?>
<!-- Generator: Adobe Illustrator 15.0.0, SVG Export Plug-In . SVG Version: 6.00 Build 0)  -->
<!DOCTYPE svg PUBLIC "-//W3C//DTD SVG 1.1//EN" "http://www.w3.org/Graphics/SVG/1.1/DTD/svg11.dtd" [
	<!ENTITY ns_flows "http://ns.adobe.com/Flows/1.0/">
	<!ENTITY ns_extend "http://ns.adobe.com/Extensibility/1.0/">
	<!ENTITY ns_ai "http://ns.adobe.com/AdobeIllustrator/10.0/">
	<!ENTITY ns_graphs "http://ns.adobe.com/Graphs/1.0/">
]>
<svg version="1.1" id="Layer_1" xmlns:x="&ns_extend;" xmlns:i="&ns_ai;" xmlns:graph="&ns_graphs;"
	 xmlns="http://www.w3.org/2000/svg" xmlns:xlink="http://www.w3.org/1999/xlink" xmlns:a="http://ns.adobe.com/AdobeSVGViewerExtensions/3.0/"
	 x="0px" y="0px" width="64px" height="64px" viewBox="0 0 64 64" enable-background="new 0 0 64 64" xml:space="preserve">
<path fill="#B51413" d="M15.225,39.442c0.238-0.037-0.359-1.371-0.596-1.361c-0.938,1.639-0.949,2.023-0.701,1.971
	C14.194,40.001,14.717,39.511,15.225,39.442z"/>
<path fill="#B51413" d="M14.629,38.081c-0.713,0.715-0.85,1.713-0.799,2.039C14.702,39.655,14.536,38.892,14.629,38.081z"/>
<path fill="#B51413" d="M13.985,39.114c-0.723,0.293-0.863,1.471-0.783,1.783C14.139,40.317,13.938,39.505,13.985,39.114z"/>
<path fill="#B51413" d="M13.424,39.673c-0.711,0.336-0.859,1.559-0.758,1.863C13.567,40.944,13.391,40.063,13.424,39.673z"/>
<path fill="#B51413" d="M12.854,40.312c-0.695,0.383-0.715,1.439-0.605,1.738C12.975,41.497,12.842,40.694,12.854,40.312z"/>
<path fill="#B51413" d="M12.315,40.985c-0.676,0.43-0.617,1.375-0.496,1.664C12.528,42.052,12.325,41.364,12.315,40.985z"/>
<path fill="#B51413" d="M11.813,41.667c-0.656,0.469-0.656,1.355-0.422,1.703C12.077,42.726,11.844,42.04,11.813,41.667z"/>
<path fill="#B51413" d="M11.307,42.394c-0.639,0.518-0.451,1.395-0.299,1.662C11.667,43.366,11.358,42.759,11.307,42.394z"/>
<path fill="#B51413" d="M10.887,43.097c-0.471,0.508-0.244,0.818-0.824,1.223c-0.297,0.217,0.547,0.404,0.633,0.553
	C11.254,44.04,10.958,43.454,10.887,43.097z"/>
<path fill="#B51413" d="M16.02,39.923c0.258-0.1-0.482-1.328-0.732-1.264c-0.832,1.826-0.879,2.213-0.609,2.127
	C14.956,40.7,15.487,40.106,16.02,39.923z"/>
<path fill="#B51413" d="M15.288,38.659c-0.666,0.854-0.766,1.875-0.709,2.213C15.481,40.261,15.27,39.481,15.288,38.659z"/>
<path fill="#B51413" d="M14.7,39.819c-0.723,0.402-0.846,1.602-0.77,1.928C14.915,41.046,14.674,40.212,14.7,39.819z"/>
<path fill="#B51413" d="M14.143,40.462c-0.713,0.42-0.867,1.666-0.779,1.986C14.321,41.772,14.127,40.854,14.143,40.462z"/>
<path fill="#B51413" d="M13.567,41.171c-0.701,0.438-0.75,1.512-0.658,1.83C13.692,42.397,13.563,41.556,13.567,41.171z"/>
<path fill="#B51413" d="M13.012,41.894c-0.691,0.459-0.684,1.426-0.586,1.738C13.204,43.003,13.02,42.276,13.012,41.894z"/>
<path fill="#B51413" d="M12.481,42.606c-0.684,0.479-0.758,1.387-0.557,1.771C12.694,43.72,12.497,42.985,12.481,42.606z"/>
<path fill="#B51413" d="M11.924,43.351c-0.68,0.506-0.59,1.428-0.473,1.727C12.213,44.392,11.946,43.728,11.924,43.351z"/>
<path fill="#B51413" d="M11.44,44.06c-0.525,0.492-0.342,0.844-0.977,1.199c-0.332,0.189,0.484,0.498,0.549,0.662
	C11.715,45.083,11.471,44.437,11.44,44.06z"/>
<path fill="#B51413" d="M16.391,40.296c0.055-0.314,1.197,0.383,1.172,0.68c-1.471,1.223-1.797,1.328-1.758,1.002
	C15.848,41.642,16.295,40.942,16.391,40.296z"/>
<path fill="#B51413" d="M17.563,40.976c-0.656,0.896-1.523,1.15-1.818,1.131C16.163,40.972,16.858,41.108,17.563,40.976z"/>
<path fill="#B51413" d="M16.635,41.821c-0.26,0.898-1.277,1.203-1.568,1.16C15.555,41.737,16.299,41.903,16.635,41.821z"/>
<path fill="#B51413" d="M16.147,42.558c-0.277,0.891-1.328,1.238-1.613,1.182C15,42.53,15.813,42.632,16.147,42.558z"/>
<path fill="#B51413" d="M15.606,43.325c-0.293,0.879-1.209,1.082-1.492,1.02C14.538,43.349,15.276,43.384,15.606,43.325z"/>
<path fill="#B51413" d="M15.049,44.071c-0.313,0.871-1.141,0.994-1.422,0.922C14.077,43.999,14.719,44.118,15.049,44.071z"/>
<path fill="#B51413" d="M14.502,44.788c-0.334,0.865-1.105,1.072-1.457,0.891C13.52,44.692,14.172,44.825,14.502,44.788z"/>
<path fill="#B51413" d="M13.928,45.542c-0.357,0.859-1.158,0.881-1.43,0.787C12.999,45.345,13.6,45.565,13.928,45.542z"/>
<path fill="#B51413" d="M13.375,46.202c-0.361,0.678-0.686,0.51-0.914,1.303c-0.127,0.412-0.486-0.496-0.635-0.551
	C12.463,46.019,13.047,46.216,13.375,46.202z"/>
<path fill="#B51413" d="M15.639,39.378c0-0.281,1.213,0.244,1.234,0.518c-1.277,1.291-1.604,1.352-1.59,1.059
	C15.293,40.64,15.645,39.972,15.639,39.378z"/>
<path fill="#B51413" d="M16.874,39.896c-0.518,0.916-1.352,1.197-1.637,1.18C15.526,40.011,16.196,40.104,16.874,39.896z"/>
<path fill="#B51413" d="M16.075,40.769c-0.16,0.871-1.143,1.188-1.42,1.131C15.032,40.743,15.749,40.872,16.075,40.769z"/>
<path fill="#B51413" d="M15.67,41.487c-0.197,0.867-1.221,1.189-1.492,1.111C14.569,41.481,15.342,41.575,15.67,41.487z"/>
<path fill="#B51413" d="M15.198,42.228c-0.238,0.85-1.135,1.01-1.402,0.918C14.174,42.237,14.875,42.288,15.198,42.228z"/>
<path fill="#B51413" d="M14.692,42.937c-0.279,0.836-1.094,0.887-1.354,0.781C13.756,42.821,14.368,42.972,14.692,42.937z"/>
<path fill="#B51413" d="M14.176,43.599c-0.318,0.82-1.074,0.932-1.398,0.703C13.241,43.429,13.854,43.612,14.176,43.599z"/>
<path fill="#B51413" d="M13.622,44.278c-0.363,0.803-1.131,0.697-1.377,0.555C12.749,43.985,13.301,44.267,13.622,44.278z"/>
<path fill="#B51413" d="M13.075,44.853c-0.373,0.607-0.664,0.385-0.938,1.105c-0.148,0.371-0.414-0.58-0.551-0.662
	C12.225,44.548,12.762,44.817,13.075,44.853z"/>
<path fill="#B51413" d="M18.838,43.14c0.012-0.297,1.252,0.188,1.264,0.475c-1.383,1.434-1.727,1.516-1.699,1.205
	C18.424,44.489,18.819,43.765,18.838,43.14z"/>
<path fill="#B51413" d="M20.102,43.614c-0.578,0.994-1.459,1.34-1.756,1.336C18.69,43.812,19.387,43.874,20.102,43.614z"/>
<path fill="#B51413" d="M19.233,44.581c-0.201,0.926-1.24,1.314-1.527,1.271C18.147,44.61,18.889,44.708,19.233,44.581z"/>
<path fill="#B51413" d="M18.782,45.362c-0.24,0.922-1.32,1.322-1.6,1.252C17.633,45.417,18.436,45.472,18.782,45.362z"/>
<path fill="#B51413" d="M18.26,46.169c-0.285,0.91-1.227,1.127-1.502,1.045C17.192,46.235,17.92,46.251,18.26,46.169z"/>
<path fill="#B51413" d="M17.704,46.944c-0.328,0.895-1.176,0.996-1.443,0.9C16.735,46.876,17.364,46.999,17.704,46.944z"/>
<path fill="#B51413" d="M17.135,47.673c-0.363,0.879-1.152,1.039-1.482,0.816C16.17,47.546,16.801,47.704,17.135,47.673z"/>
<path fill="#B51413" d="M16.53,48.417c-0.41,0.867-1.207,0.799-1.457,0.664C15.633,48.157,16.2,48.423,16.53,48.417z"/>
<path fill="#B51413" d="M15.94,49.052c-0.416,0.662-0.711,0.445-1.023,1.219c-0.17,0.4-0.408-0.588-0.547-0.666
	C15.065,48.778,15.614,49.034,15.94,49.052z"/>
<path fill="#B51413" d="M17.956,42.218c0.053-0.314,1.197,0.383,1.17,0.682c-1.463,1.215-1.791,1.32-1.752,0.994
	C17.415,43.558,17.86,42.862,17.956,42.218z"/>
<path fill="#B51413" d="M19.125,42.899c-0.652,0.891-1.516,1.143-1.813,1.121C17.727,42.89,18.422,43.03,19.125,42.899z"/>
<path fill="#B51413" d="M18.202,43.739c-0.258,0.896-1.271,1.199-1.561,1.154C17.125,43.653,17.868,43.821,18.202,43.739z"/>
<path fill="#B51413" d="M17.715,44.474c-0.273,0.887-1.322,1.23-1.607,1.174C16.571,44.442,17.383,44.544,17.715,44.474z"/>
<path fill="#B51413" d="M17.178,45.237c-0.293,0.877-1.207,1.076-1.49,1.014C16.11,45.259,16.848,45.296,17.178,45.237z"/>
<path fill="#B51413" d="M16.624,45.981c-0.311,0.867-1.139,0.986-1.418,0.914C15.651,45.905,16.297,46.024,16.624,45.981z"/>
<path fill="#B51413" d="M16.077,46.694c-0.328,0.861-1.1,1.066-1.451,0.887C15.096,46.597,15.75,46.729,16.077,46.694z"/>
<path fill="#B51413" d="M15.504,47.444c-0.354,0.857-1.152,0.877-1.422,0.781C14.579,47.245,15.18,47.466,15.504,47.444z"/>
<path fill="#B51413" d="M14.956,48.103c-0.357,0.676-0.682,0.506-0.91,1.295c-0.125,0.41-0.484-0.496-0.633-0.551
	C14.045,47.919,14.629,48.114,14.956,48.103z"/>
<path fill="#B51413" d="M20.684,45.175c0.248-0.094-0.512-1.303-0.754-1.242c-0.758,1.775-0.789,2.154-0.527,2.074
	C19.67,45.923,20.17,45.351,20.684,45.175z"/>
<path fill="#B51413" d="M19.93,43.933c-0.625,0.83-0.691,1.826-0.625,2.156C20.168,45.501,19.94,44.737,19.93,43.933z"/>
<path fill="#B51413" d="M19.391,45.062c-0.695,0.385-0.777,1.557-0.691,1.877C19.639,46.261,19.379,45.446,19.391,45.062z"/>
<path fill="#B51413" d="M18.868,45.685c-0.686,0.402-0.797,1.619-0.703,1.934C19.081,46.968,18.864,46.067,18.868,45.685z"/>
<path fill="#B51413" d="M18.327,46.37c-0.672,0.422-0.688,1.471-0.59,1.781C18.485,47.571,18.333,46.747,18.327,46.37z"/>
<path fill="#B51413" d="M17.805,47.071c-0.662,0.441-0.625,1.385-0.518,1.691C18.028,48.157,17.825,47.446,17.805,47.071z"/>
<path fill="#B51413" d="M17.309,47.763c-0.656,0.463-0.697,1.348-0.49,1.725C17.551,48.853,17.334,48.136,17.309,47.763z"/>
<path fill="#B51413" d="M16.786,48.481c-0.648,0.49-0.531,1.391-0.408,1.686C17.102,49.503,16.823,48.853,16.786,48.481z"/>
<path fill="#B51413" d="M16.334,49.171c-0.496,0.475-0.305,0.82-0.916,1.162c-0.318,0.184,0.486,0.492,0.557,0.65
	C16.637,50.173,16.377,49.54,16.334,49.171z"/>
<path fill="#B51413" d="M18.196,42.442c0.24-0.047-0.41-1.344-0.645-1.322c-0.887,1.674-0.883,2.059-0.637,1.994
	C17.18,43.05,17.69,42.536,18.196,42.442z"/>
<path fill="#B51413" d="M17.551,41.12c-0.693,0.746-0.793,1.744-0.73,2.068C17.678,42.679,17.485,41.931,17.551,41.12z"/>
<path fill="#B51413" d="M16.94,42.181c-0.715,0.326-0.818,1.504-0.725,1.811C17.137,43.366,16.907,42.571,16.94,42.181z"/>
<path fill="#B51413" d="M16.395,42.763c-0.703,0.369-0.807,1.592-0.693,1.887C16.584,44.019,16.379,43.151,16.395,42.763z"/>
<path fill="#B51413" d="M15.844,43.425c-0.684,0.416-0.666,1.467-0.545,1.756C16.01,44.597,15.846,43.806,15.844,43.425z"/>
<path fill="#B51413" d="M15.327,44.122c-0.664,0.461-0.572,1.396-0.438,1.676C15.581,45.169,15.352,44.497,15.327,44.122z"/>
<path fill="#B51413" d="M14.848,44.823c-0.643,0.5-0.611,1.381-0.363,1.713C15.151,45.862,14.891,45.192,14.848,44.823z"/>
<path fill="#B51413" d="M14.366,45.569c-0.623,0.549-0.404,1.41-0.244,1.664C14.76,46.519,14.428,45.933,14.366,45.569z"/>
<path fill="#B51413" d="M13.967,46.288c-0.453,0.529-0.217,0.828-0.783,1.256c-0.293,0.232,0.563,0.377,0.654,0.518
	C14.37,47.208,14.049,46.642,13.967,46.288z"/>
<path fill="#B51413" d="M21.62,46.144c0.238-0.035-0.359-1.371-0.596-1.361c-0.938,1.639-0.949,2.023-0.701,1.971
	C20.588,46.702,21.114,46.212,21.62,46.144z"/>
<path fill="#B51413" d="M21.024,44.782c-0.713,0.715-0.85,1.715-0.799,2.041C21.096,46.356,20.932,45.593,21.024,44.782z"/>
<path fill="#B51413" d="M20.381,45.817c-0.721,0.291-0.867,1.469-0.783,1.783C20.534,47.021,20.334,46.208,20.381,45.817z"/>
<path fill="#B51413" d="M19.821,46.374c-0.713,0.338-0.859,1.561-0.758,1.863C19.961,47.646,19.788,46.765,19.821,46.374z"/>
<path fill="#B51413" d="M19.249,47.013c-0.693,0.383-0.715,1.439-0.605,1.738C19.37,48.198,19.237,47.396,19.249,47.013z"/>
<path fill="#B51413" d="M18.711,47.688c-0.676,0.43-0.619,1.373-0.496,1.662C18.924,48.753,18.721,48.065,18.711,47.688z"/>
<path fill="#B51413" d="M18.211,48.366c-0.66,0.471-0.658,1.357-0.424,1.705C18.473,49.427,18.239,48.741,18.211,48.366z"/>
<path fill="#B51413" d="M17.702,49.095c-0.639,0.52-0.451,1.395-0.299,1.66C18.061,50.065,17.752,49.46,17.702,49.095z"/>
<path fill="#B51413" d="M17.282,49.796c-0.469,0.51-0.242,0.82-0.822,1.225c-0.297,0.217,0.545,0.406,0.631,0.553
	C17.651,50.741,17.352,50.155,17.282,49.796z"/>
<path fill="#B51413" d="M22.415,46.767c0.256-0.096-0.49-1.32-0.734-1.258c-0.811,1.795-0.854,2.176-0.586,2.096
	C21.368,47.522,21.889,46.942,22.415,46.767z"/>
<path fill="#B51413" d="M21.68,45.509c-0.654,0.836-0.744,1.846-0.686,2.178C21.883,47.095,21.67,46.321,21.68,45.509z"/>
<path fill="#B51413" d="M21.106,46.647c-0.713,0.391-0.822,1.574-0.746,1.898C21.329,47.864,21.084,47.036,21.106,46.647z"/>
<path fill="#B51413" d="M20.561,47.278c-0.705,0.404-0.846,1.635-0.758,1.953C20.747,48.575,20.549,47.665,20.561,47.278z"/>
<path fill="#B51413" d="M19.997,47.972c-0.693,0.422-0.732,1.484-0.639,1.799C20.129,49.185,19.997,48.351,19.997,47.972z"/>
<path fill="#B51413" d="M19.454,48.679c-0.684,0.445-0.666,1.398-0.566,1.711C19.651,49.778,19.461,49.056,19.454,48.679z"/>
<path fill="#B51413" d="M18.932,49.376c-0.674,0.467-0.738,1.361-0.537,1.744C19.153,50.481,18.95,49.751,18.932,49.376z"/>
<path fill="#B51413" d="M18.385,50.104c-0.668,0.494-0.57,1.404-0.455,1.703C18.682,51.138,18.413,50.479,18.385,50.104z"/>
<path fill="#B51413" d="M17.913,50.802c-0.516,0.479-0.328,0.828-0.957,1.172c-0.326,0.184,0.484,0.498,0.551,0.662
	C18.196,51.815,17.948,51.173,17.913,50.802z"/>
<path fill="#B51413" d="M22.967,46.989c0.045-0.303,1.176,0.41,1.16,0.697c-1.398,1.125-1.715,1.215-1.684,0.9
	C22.475,48.267,22.893,47.606,22.967,46.989z"/>
<path fill="#B51413" d="M24.127,47.687c-0.615,0.84-1.451,1.055-1.74,1.023C22.764,47.632,23.444,47.79,24.127,47.687z"/>
<path fill="#B51413" d="M23.247,48.468c-0.23,0.857-1.209,1.115-1.492,1.064C22.196,48.347,22.922,48.534,23.247,48.468z"/>
<path fill="#B51413" d="M22.79,49.161c-0.244,0.85-1.258,1.146-1.537,1.082C21.674,49.093,22.467,49.218,22.79,49.161z"/>
<path fill="#B51413" d="M22.286,49.882c-0.262,0.838-1.148,1.002-1.426,0.93C21.247,49.866,21.965,49.927,22.286,49.882z"/>
<path fill="#B51413" d="M21.764,50.583c-0.281,0.828-1.086,0.916-1.359,0.836C20.815,50.478,21.446,50.614,21.764,50.583z"/>
<path fill="#B51413" d="M21.249,51.255c-0.299,0.82-1.043,0.994-1.393,0.807C20.292,51.128,20.93,51.276,21.249,51.255z"/>
<path fill="#B51413" d="M20.711,51.96c-0.324,0.818-1.104,0.809-1.369,0.709C19.803,51.737,20.393,51.97,20.711,51.96z"/>
<path fill="#B51413" d="M20.19,52.577c-0.332,0.643-0.65,0.469-0.854,1.225c-0.111,0.393-0.484-0.496-0.631-0.555
	C19.299,52.37,19.874,52.579,20.19,52.577z"/>
<path fill="#B51413" d="M22.09,46.194c0.002-0.281,1.213,0.242,1.236,0.514c-1.277,1.293-1.605,1.355-1.592,1.061
	C21.745,47.456,22.098,46.788,22.09,46.194z"/>
<path fill="#B51413" d="M23.327,46.708c-0.52,0.916-1.354,1.199-1.639,1.182C21.977,46.825,22.647,46.919,23.327,46.708z"/>
<path fill="#B51413" d="M22.524,47.583c-0.156,0.871-1.141,1.188-1.418,1.131C21.483,47.558,22.2,47.688,22.524,47.583z"/>
<path fill="#B51413" d="M22.122,48.302c-0.197,0.865-1.219,1.189-1.49,1.109C21.02,48.298,21.793,48.388,22.122,48.302z"/>
<path fill="#B51413" d="M21.651,49.042c-0.24,0.852-1.137,1.008-1.404,0.918C20.624,49.05,21.325,49.104,21.651,49.042z"/>
<path fill="#B51413" d="M21.143,49.751c-0.281,0.834-1.092,0.887-1.354,0.781C20.209,49.638,20.821,49.786,21.143,49.751z"/>
<path fill="#B51413" d="M20.627,50.413c-0.318,0.82-1.072,0.932-1.398,0.703C19.692,50.245,20.305,50.427,20.627,50.413z"/>
<path fill="#B51413" d="M20.073,51.091c-0.363,0.805-1.133,0.699-1.377,0.559C19.2,50.798,19.752,51.081,20.073,51.091z"/>
<path fill="#B51413" d="M19.526,51.665c-0.373,0.607-0.666,0.385-0.938,1.105c-0.148,0.373-0.414-0.578-0.549-0.66
	C18.678,51.36,19.211,51.63,19.526,51.665z"/>
<path fill="#B51413" d="M29.555,30.625c-4.203,2.004-12.15,3.511-14.926,7.457c0.121,1.252,7.723,9.434,9.355,9.795
	c4.117-3.08,6.732-8.627,10.5-12.188L29.555,30.625z"/>
<path fill="#E81C27" d="M25.125,51.048c0.262-0.143-1.242-1.047-1.514-0.928c-0.127,1.896,0.092,2.244,0.352,2.08
	C24.247,52.03,24.571,51.349,25.125,51.048z"/>
<path fill="#D41A24" d="M23.612,50.12c-0.414,0.971,0.023,1.922,0.279,2.188C24.637,51.483,23.987,50.884,23.612,50.12z"/>
<path fill="#E81C27" d="M23.473,51.341c-0.676,0.6-0.143,1.713,0.141,1.953C24.372,52.337,23.649,51.71,23.473,51.341z"/>
<path fill="#D41A24" d="M23.145,52.101c-0.637,0.633-0.08,1.789,0.221,2.01C24.073,53.161,23.34,52.462,23.145,52.101z"/>
<path fill="#E81C27" d="M22.854,52.937c-0.588,0.666,0.018,1.613,0.326,1.826C23.706,53.931,23.069,53.28,22.854,52.937z"/>
<path fill="#D41A24" d="M22.622,53.788c-0.541,0.699,0.094,1.512,0.41,1.711C23.51,54.634,22.86,54.118,22.622,53.788z"/>
<path fill="#E81C27" d="M22.44,54.628c-0.494,0.727,0.035,1.514,0.52,1.711C23.381,55.446,22.698,54.946,22.44,54.628z"/>
<path fill="#D41A24" d="M22.276,55.513c-0.443,0.76,0.303,1.449,0.639,1.615C23.282,56.206,22.553,55.813,22.276,55.513z"/>
<path fill="#E81C27" d="M22.202,56.333c-0.25,0.672,0.201,0.842-0.24,1.473c-0.221,0.334,0.885,0.104,1.076,0.193
	C23.198,56.999,22.497,56.618,22.202,56.333z"/>
<path fill="#D41A24" d="M26.348,51.101c0.246-0.209-1.361-0.951-1.615-0.777c0.109,2.014,0.287,2.379,0.555,2.176
	C25.561,52.292,25.833,51.515,26.348,51.101z"/>
<path fill="#E81C27" d="M24.733,50.323c-0.275,1.072,0.219,2.025,0.488,2.299C25.918,51.655,25.204,51.062,24.733,50.323z"/>
<path fill="#D41A24" d="M24.735,51.63c-0.613,0.697-0.039,1.82,0.244,2.074C25.721,52.618,24.94,51.991,24.735,51.63z"/>
<path fill="#E81C27" d="M24.463,52.464c-0.59,0.707-0.025,1.885,0.268,2.129C25.456,53.544,24.678,52.819,24.463,52.464z"/>
<path fill="#D41A24" d="M24.209,53.362c-0.566,0.719,0.018,1.695,0.314,1.936C25.086,54.394,24.434,53.708,24.209,53.362z"/>
<path fill="#E81C27" d="M23.987,54.267c-0.543,0.732,0.045,1.586,0.348,1.818C24.875,55.161,24.223,54.603,23.987,54.267z"/>
<path fill="#D41A24" d="M23.786,55.147c-0.52,0.748-0.063,1.588,0.402,1.836C24.702,56.038,24.032,55.478,23.786,55.147z"/>
<path fill="#E81C27" d="M23.573,56.071c-0.494,0.77,0.16,1.545,0.477,1.756C24.538,56.858,23.829,56.396,23.573,56.071z"/>
<path fill="#D41A24" d="M23.428,56.929c-0.324,0.684,0.102,0.908-0.436,1.523c-0.275,0.324,0.869,0.215,1.045,0.33
	C24.364,57.708,23.69,57.247,23.428,56.929z"/>
<path fill="#D41A24" d="M27.01,51.259c-0.123-0.305,1.641-0.225,1.787,0.053c-1.002,1.775-1.324,2.023-1.473,1.715
	C27.176,52.708,27.284,51.876,27.01,51.259z"/>
<path fill="#E81C27" d="M28.797,51.312c-0.236,1.104-1.105,1.736-1.467,1.857C27.145,51.966,28.047,51.761,28.797,51.312z"/>
<path fill="#D41A24" d="M28.209,52.497c0.23,0.92-0.785,1.67-1.152,1.768C26.887,52.931,27.864,52.728,28.209,52.497z"/>
<path fill="#E81C27" d="M28.075,53.382c0.207,0.92-0.824,1.723-1.195,1.809C26.708,53.896,27.725,53.603,28.075,53.382z"/>
<path fill="#D41A24" d="M27.897,54.315c0.18,0.92-0.779,1.531-1.15,1.609C26.651,54.841,27.542,54.524,27.897,54.315z"/>
<path fill="#E81C27" d="M27.688,55.241c0.15,0.92-0.754,1.418-1.127,1.486C26.497,55.636,27.327,55.437,27.688,55.241z"/>
<path fill="#D41A24" d="M27.469,56.136c0.125,0.924-0.66,1.471-1.182,1.477C26.256,56.513,27.104,56.321,27.469,56.136z"/>
<path fill="#E81C27" d="M27.245,57.075c0.094,0.93-0.838,1.326-1.213,1.371C26.032,57.335,26.872,57.249,27.245,57.075z"/>
<path fill="#D41A24" d="M26.989,57.921c-0.021,0.771-0.504,0.775-0.301,1.586c0.098,0.426-0.869-0.211-1.076-0.191
	C25.805,58.187,26.61,58.087,26.989,57.921z"/>
<path fill="#E81C27" d="M25.579,50.796c-0.168-0.248,1.574-0.354,1.762-0.121c-0.732,1.746-1.082,1.955-1.24,1.688
	C25.924,52.081,25.94,51.321,25.579,50.796z"/>
<path fill="#D41A24" d="M27.34,50.675c-0.063,1.057-0.877,1.699-1.223,1.818C25.821,51.411,26.667,51.181,27.34,50.675z"/>
<path fill="#E81C27" d="M26.918,51.827c0.336,0.848-0.635,1.59-0.994,1.67C25.676,52.294,26.598,52.073,26.918,51.827z"/>
<path fill="#D41A24" d="M26.874,52.655c0.285,0.861-0.727,1.629-1.094,1.688C25.575,53.169,26.54,52.886,26.874,52.655z"/>
<path fill="#E81C27" d="M26.76,53.534c0.227,0.867-0.734,1.43-1.104,1.475C25.557,54.024,26.415,53.741,26.76,53.534z"/>
<path fill="#D41A24" d="M26.586,54.401c0.17,0.873-0.758,1.303-1.127,1.33C25.418,54.739,26.227,54.585,26.586,54.401z"/>
<path fill="#E81C27" d="M26.375,55.233c0.115,0.877-0.707,1.332-1.227,1.281C25.172,55.522,26.004,55.397,26.375,55.233z"/>
<path fill="#D41A24" d="M26.127,56.097c0.053,0.883-0.916,1.15-1.289,1.141C24.924,56.247,25.745,56.235,26.127,56.097z"/>
<path fill="#E81C27" d="M25.827,56.862c-0.076,0.715-0.553,0.656-0.443,1.424c0.047,0.398-0.834-0.32-1.043-0.328
	C24.645,56.991,25.436,56.979,25.827,56.862z"/>
<path fill="#E81C27" d="M31.592,52.63c-0.164-0.268,1.588-0.422,1.774-0.172c-0.774,1.924-1.129,2.158-1.284,1.869
	C31.913,54.024,31.944,53.196,31.592,52.63z"/>
<path fill="#D41A24" d="M33.366,52.458c-0.088,1.154-0.92,1.875-1.27,2.012C31.821,53.298,32.678,53.024,33.366,52.458z"/>
<path fill="#E81C27" d="M32.918,53.726c0.319,0.916-0.674,1.75-1.039,1.846C31.659,54.263,32.59,54.001,32.918,53.726z"/>
<path fill="#D41A24" d="M32.854,54.63c0.268,0.934-0.766,1.795-1.137,1.865C31.536,55.22,32.512,54.89,32.854,54.63z"/>
<path fill="#E81C27" d="M32.721,55.593c0.209,0.941-0.771,1.576-1.143,1.635C31.502,56.153,32.37,55.825,32.721,55.593z"/>
<path fill="#D41A24" d="M32.528,56.542c0.15,0.949-0.789,1.438-1.162,1.479C31.346,56.938,32.163,56.751,32.528,56.542z"/>
<path fill="#E81C27" d="M32.295,57.456c0.098,0.953-0.738,1.467-1.258,1.424C31.083,57.798,31.92,57.642,32.295,57.456z"/>
<path fill="#D41A24" d="M32.028,58.403c0.037,0.963-0.945,1.277-1.32,1.273C30.815,58.595,31.641,58.563,32.028,58.403z"/>
<path fill="#E81C27" d="M31.711,59.245c-0.094,0.781-0.572,0.729-0.479,1.563c0.041,0.436-0.83-0.33-1.041-0.334
	C30.52,59.413,31.317,59.382,31.711,59.245z"/>
<path fill="#D41A24" d="M30.002,52.228c-0.125-0.303,1.637-0.223,1.787,0.055c-1,1.768-1.324,2.016-1.471,1.707
	C30.167,53.673,30.274,52.845,30.002,52.228z"/>
<path fill="#E81C27" d="M31.79,52.282c-0.238,1.1-1.105,1.729-1.467,1.85C30.135,52.933,31.038,52.729,31.79,52.282z"/>
<path fill="#D41A24" d="M31.2,53.464c0.232,0.916-0.781,1.662-1.148,1.76C29.881,53.894,30.856,53.692,31.2,53.464z"/>
<path fill="#E81C27" d="M31.067,54.343c0.209,0.918-0.822,1.715-1.193,1.801C29.702,54.854,30.717,54.563,31.067,54.343z"/>
<path fill="#D41A24" d="M30.891,55.274c0.18,0.916-0.779,1.523-1.15,1.602C29.645,55.796,30.536,55.481,30.891,55.274z"/>
<path fill="#E81C27" d="M30.682,56.196c0.152,0.916-0.752,1.412-1.125,1.479C29.491,56.587,30.323,56.39,30.682,56.196z"/>
<path fill="#D41A24" d="M30.465,57.085c0.127,0.92-0.658,1.465-1.182,1.471C29.25,57.46,30.098,57.271,30.465,57.085z"/>
<path fill="#E81C27" d="M30.239,58.021c0.096,0.928-0.834,1.32-1.211,1.363C29.028,58.28,29.868,58.192,30.239,58.021z"/>
<path fill="#D41A24" d="M29.985,58.864c-0.02,0.768-0.5,0.77-0.297,1.578c0.098,0.424-0.869-0.211-1.078-0.191
	C28.803,59.128,29.608,59.028,29.985,58.864z"/>
<path fill="#D41A24" d="M34.983,53.569c0.238-0.199-1.381-0.914-1.629-0.748c0.166,1.932,0.355,2.283,0.615,2.09
	C34.235,54.712,34.483,53.966,34.983,53.569z"/>
<path fill="#E81C27" d="M33.354,52.821c-0.242,1.031,0.275,1.945,0.551,2.207C34.571,54.103,33.843,53.53,33.354,52.821z"/>
<path fill="#D41A24" d="M33.394,54.077c-0.588,0.67,0.014,1.748,0.305,1.992C34.401,55.026,33.608,54.425,33.394,54.077z"/>
<path fill="#E81C27" d="M33.147,54.878c-0.567,0.678,0.029,1.811,0.328,2.045C34.165,55.915,33.372,55.218,33.147,54.878z"/>
<path fill="#D41A24" d="M32.92,55.739c-0.541,0.691,0.068,1.629,0.37,1.859C33.825,56.731,33.155,56.071,32.92,55.739z"/>
<path fill="#E81C27" d="M32.727,56.608c-0.52,0.703,0.09,1.523,0.397,1.744C33.636,57.466,32.969,56.931,32.727,56.608z"/>
<path fill="#D41A24" d="M32.551,57.454c-0.494,0.719-0.014,1.525,0.456,1.762C33.491,58.31,32.807,57.772,32.551,57.454z"/>
<path fill="#E81C27" d="M32.368,58.341c-0.471,0.74,0.205,1.484,0.525,1.688C33.349,59.097,32.631,58.651,32.368,58.341z"/>
<path fill="#D41A24" d="M32.247,59.163c-0.301,0.656,0.131,0.873-0.385,1.465c-0.264,0.311,0.867,0.207,1.047,0.314
	C33.202,59.913,32.518,59.472,32.247,59.163z"/>
<path fill="#E81C27" d="M30.42,52.313c0.254-0.154-1.285-0.998-1.551-0.869c-0.043,1.902,0.189,2.242,0.443,2.068
	C29.586,53.331,29.879,52.636,30.42,52.313z"/>
<path fill="#D41A24" d="M28.87,51.444c-0.371,0.988,0.109,1.922,0.375,2.18C29.952,52.769,29.276,52.194,28.87,51.444z"/>
<path fill="#E81C27" d="M28.784,52.673c-0.646,0.625-0.064,1.719,0.229,1.947C29.725,53.632,28.977,53.034,28.784,52.673z"/>
<path fill="#D41A24" d="M28.491,53.444c-0.609,0.66,0,1.793,0.311,2.004C29.463,54.472,28.702,53.8,28.491,53.444z"/>
<path fill="#E81C27" d="M28.237,54.294c-0.557,0.689,0.09,1.615,0.406,1.814C29.131,55.255,28.467,54.63,28.237,54.294z"/>
<path fill="#D41A24" d="M28.045,55.155c-0.51,0.721,0.158,1.51,0.484,1.693C28.969,55.966,28.295,55.476,28.045,55.155z"/>
<path fill="#E81C27" d="M27.899,56.003c-0.459,0.746,0.104,1.514,0.596,1.691C28.875,56.782,28.17,56.31,27.899,56.003z"/>
<path fill="#D41A24" d="M27.776,56.894c-0.408,0.779,0.365,1.441,0.709,1.592C28.809,57.548,28.065,57.185,27.776,56.894z"/>
<path fill="#E81C27" d="M27.737,57.718c-0.219,0.684,0.238,0.836-0.172,1.484c-0.207,0.344,0.887,0.068,1.08,0.15
	C28.76,58.345,28.045,57.993,27.737,57.718z"/>
<path fill="#E81C27" d="M36.663,53.989c0.26-0.143-1.242-1.049-1.514-0.93c-0.127,1.896,0.09,2.244,0.352,2.082
	C35.782,54.972,36.108,54.288,36.663,53.989z"/>
<path fill="#D41A24" d="M35.149,53.06c-0.414,0.971,0.023,1.924,0.279,2.189C36.175,54.425,35.524,53.825,35.149,53.06z"/>
<path fill="#E81C27" d="M35.011,54.282c-0.676,0.598-0.143,1.713,0.143,1.951C35.909,55.278,35.188,54.651,35.011,54.282z"/>
<path fill="#D41A24" d="M34.683,55.04c-0.639,0.635-0.08,1.789,0.221,2.012C35.61,56.103,34.878,55.401,34.683,55.04z"/>
<path fill="#E81C27" d="M34.392,55.876c-0.59,0.668,0.018,1.615,0.324,1.828C35.241,56.872,34.606,56.222,34.392,55.876z"/>
<path fill="#D41A24" d="M34.159,56.729c-0.539,0.699,0.094,1.512,0.41,1.709C35.048,57.575,34.399,57.06,34.159,56.729z"/>
<path fill="#E81C27" d="M33.978,57.567c-0.494,0.729,0.035,1.516,0.52,1.713C34.919,58.386,34.233,57.886,33.978,57.567z"/>
<path fill="#D41A24" d="M33.812,58.452c-0.439,0.762,0.305,1.451,0.641,1.617C34.817,59.146,34.091,58.755,33.812,58.452z"/>
<path fill="#E81C27" d="M33.739,59.274c-0.25,0.672,0.201,0.842-0.238,1.473c-0.223,0.334,0.885,0.104,1.074,0.193
	C34.735,59.938,34.034,59.56,33.739,59.274z"/>
<path fill="#D41A24" d="M37.972,54.169c0.244-0.205-1.365-0.941-1.617-0.771c0.117,1.975,0.297,2.334,0.563,2.137
	C37.19,55.331,37.458,54.571,37.972,54.169z"/>
<path fill="#E81C27" d="M36.354,53.397c-0.271,1.051,0.227,1.988,0.496,2.256C37.542,54.71,36.827,54.124,36.354,53.397z"/>
<path fill="#D41A24" d="M36.36,54.679c-0.607,0.682-0.029,1.785,0.256,2.035C37.351,55.653,36.567,55.034,36.36,54.679z"/>
<path fill="#E81C27" d="M36.095,55.495c-0.588,0.691-0.02,1.85,0.275,2.092C37.089,56.56,36.312,55.843,36.095,55.495z"/>
<path fill="#D41A24" d="M35.845,56.376c-0.563,0.701,0.025,1.662,0.322,1.898C36.726,57.392,36.069,56.714,35.845,56.376z"/>
<path fill="#E81C27" d="M35.626,57.261c-0.537,0.715,0.053,1.555,0.357,1.783C36.517,58.142,35.862,57.591,35.626,57.261z"/>
<path fill="#D41A24" d="M35.431,58.124c-0.516,0.73-0.057,1.557,0.41,1.801C36.349,59.001,35.675,58.45,35.431,58.124z"/>
<path fill="#E81C27" d="M35.222,59.028c-0.492,0.752,0.166,1.516,0.482,1.725C36.188,59.806,35.478,59.347,35.222,59.028z"/>
<path fill="#D41A24" d="M35.081,59.868c-0.322,0.668,0.107,0.891-0.428,1.492c-0.273,0.316,0.867,0.215,1.045,0.328
	C36.021,60.636,35.345,60.183,35.081,59.868z"/>
<path fill="#D41A24" d="M38.759,54.104c-0.131-0.289,1.629-0.188,1.781,0.076c-0.975,1.656-1.293,1.885-1.445,1.592
	C38.94,55.472,39.038,54.69,38.759,54.104z"/>
<path fill="#E81C27" d="M40.54,54.181c-0.223,1.035-1.078,1.617-1.438,1.727C38.901,54.772,39.796,54.593,40.54,54.181z"/>
<path fill="#D41A24" d="M39.97,55.288c0.242,0.869-0.76,1.559-1.123,1.646C38.659,55.677,39.628,55.501,39.97,55.288z"/>
<path fill="#E81C27" d="M39.847,56.118c0.219,0.869-0.797,1.611-1.166,1.684C38.491,56.583,39.501,56.321,39.847,56.118z"/>
<path fill="#D41A24" d="M39.683,56.995c0.191,0.867-0.756,1.43-1.125,1.496C38.45,57.472,39.333,57.187,39.683,56.995z"/>
<path fill="#E81C27" d="M39.487,57.862c0.164,0.869-0.732,1.324-1.102,1.383C38.306,58.216,39.132,58.042,39.487,57.862z"/>
<path fill="#D41A24" d="M39.282,58.702c0.137,0.869-0.637,1.373-1.158,1.371C38.077,59.04,38.919,58.87,39.282,58.702z"/>
<path fill="#E81C27" d="M39.069,59.581c0.107,0.879-0.816,1.238-1.189,1.273C37.866,59.81,38.702,59.739,39.069,59.581z"/>
<path fill="#D41A24" d="M38.825,60.374c-0.008,0.727-0.486,0.723-0.275,1.488c0.104,0.402-0.867-0.211-1.074-0.195
	C37.651,60.608,38.452,60.524,38.825,60.374z"/>
<path fill="#E81C27" d="M37.249,53.812c-0.166-0.25,1.574-0.355,1.762-0.123c-0.732,1.748-1.08,1.957-1.24,1.689
	C37.595,55.095,37.612,54.337,37.249,53.812z"/>
<path fill="#D41A24" d="M39.011,53.688c-0.063,1.057-0.877,1.699-1.221,1.818C37.491,54.427,38.337,54.194,39.011,53.688z"/>
<path fill="#E81C27" d="M38.591,54.841c0.334,0.848-0.635,1.592-0.996,1.672C37.349,55.308,38.271,55.087,38.591,54.841z"/>
<path fill="#D41A24" d="M38.544,55.669c0.285,0.861-0.725,1.631-1.092,1.688C37.245,56.183,38.21,55.901,38.544,55.669z"/>
<path fill="#E81C27" d="M38.433,56.55c0.227,0.867-0.736,1.428-1.105,1.475C37.229,57.038,38.087,56.757,38.433,56.55z"/>
<path fill="#D41A24" d="M38.259,57.417c0.168,0.873-0.758,1.301-1.127,1.33C37.089,57.755,37.899,57.601,38.259,57.417z"/>
<path fill="#E81C27" d="M38.046,58.247c0.115,0.877-0.707,1.332-1.225,1.281C36.845,58.538,37.675,58.411,38.046,58.247z"/>
<path fill="#D41A24" d="M37.798,59.11c0.055,0.885-0.916,1.152-1.289,1.143C36.593,59.261,37.417,59.251,37.798,59.11z"/>
<path fill="#E81C27" d="M37.499,59.878c-0.078,0.713-0.555,0.654-0.445,1.422c0.047,0.4-0.832-0.318-1.043-0.328
	C36.315,60.005,37.106,59.993,37.499,59.878z"/>
<linearGradient id="SVGID_1_" gradientUnits="userSpaceOnUse" x1="37.7285" y1="38.75" x2="33.8499" y2="47.7057">
	<stop  offset="0" style="stop-color:#9E1413"/>
	<stop  offset="0.051" style="stop-color:#A61515"/>
	<stop  offset="0.2699" style="stop-color:#C3181D"/>
	<stop  offset="0.4878" style="stop-color:#D71A23"/>
	<stop  offset="0.7021" style="stop-color:#E41C26"/>
	<stop  offset="0.9091" style="stop-color:#E81C27"/>
	<a:midPointStop  offset="0" style="stop-color:#9E1413"/>
	<a:midPointStop  offset="0.3" style="stop-color:#9E1413"/>
	<a:midPointStop  offset="0.9091" style="stop-color:#E81C27"/>
</linearGradient>
<path fill="url(#SVGID_1_)" d="M32.334,33.874c-3.75,3.756-7.809,11.439-8.723,16.246c0.891,1.055,14.733,4.742,16.872,4.295
	c3.012-4.672,2.777-10.826,5.088-15.758L32.334,33.874z"/>
<radialGradient id="SVGID_2_" cx="44.8408" cy="42.8301" r="10.6399" fx="37.1148" fy="41.347" gradientTransform="matrix(0.9307 0.3657 -0.9375 2.3862 43.2583 -75.7689)" gradientUnits="userSpaceOnUse">
	<stop  offset="0.1455" style="stop-color:#9E1413"/>
	<stop  offset="0.1883" style="stop-color:#A61515;stop-opacity:0.9439"/>
	<stop  offset="0.3722" style="stop-color:#C3181D;stop-opacity:0.7031"/>
	<stop  offset="0.5552" style="stop-color:#D71A23;stop-opacity:0.4635"/>
	<stop  offset="0.7353" style="stop-color:#E41C26;stop-opacity:0.2276"/>
	<stop  offset="0.9091" style="stop-color:#E81C27;stop-opacity:0"/>
	<a:midPointStop  offset="0.1455" style="stop-color:#9E1413"/>
	<a:midPointStop  offset="0.3" style="stop-color:#9E1413"/>
	<a:midPointStop  offset="0.9091" style="stop-color:#E81C27;stop-opacity:0"/>
</radialGradient>
<path fill="url(#SVGID_2_)" d="M32.334,33.874c-3.75,3.756-7.809,11.439-8.723,16.246c0.891,1.055,14.733,4.742,16.872,4.295
	c3.012-4.672,2.777-10.826,5.088-15.758L32.334,33.874z"/>
<radialGradient id="SVGID_3_" cx="54.4082" cy="11.5693" r="15.7897" gradientTransform="matrix(1.0912 0 0 0.7872 -24.4354 5.2207)" gradientUnits="userSpaceOnUse">
	<stop  offset="0.6485" style="stop-color:#AD1111"/>
	<stop  offset="0.7084" style="stop-color:#B31213"/>
	<stop  offset="0.7892" style="stop-color:#C4151A"/>
	<stop  offset="0.8818" style="stop-color:#E01B24"/>
	<stop  offset="0.903" style="stop-color:#E81C27"/>
	<a:midPointStop  offset="0.6485" style="stop-color:#AD1111"/>
	<a:midPointStop  offset="0.6429" style="stop-color:#AD1111"/>
	<a:midPointStop  offset="0.903" style="stop-color:#E81C27"/>
</radialGradient>
<path fill="url(#SVGID_3_)" d="M44.321,19.125c-4.939-2.096-12.042-2.504-17.11,0.387c-8.217-8.631-4.395-14.402-0.826-16.156
	c3.746-1.842,13.625-1.77,16.969,0C46.86,5.208,50.739,10.177,44.321,19.125z"/>
<linearGradient id="SVGID_4_" gradientUnits="userSpaceOnUse" x1="40.1357" y1="28.084" x2="54.7586" y2="5.6739">
	<stop  offset="0" style="stop-color:#9E1413"/>
	<stop  offset="0.051" style="stop-color:#A61515"/>
	<stop  offset="0.2699" style="stop-color:#C3181D"/>
	<stop  offset="0.4878" style="stop-color:#D71A23"/>
	<stop  offset="0.7021" style="stop-color:#E41C26"/>
	<stop  offset="0.9091" style="stop-color:#E81C27"/>
	<a:midPointStop  offset="0" style="stop-color:#9E1413"/>
	<a:midPointStop  offset="0.3" style="stop-color:#9E1413"/>
	<a:midPointStop  offset="0.9091" style="stop-color:#E81C27"/>
</linearGradient>
<path fill="url(#SVGID_4_)" d="M43.354,3.355c11.271,6.441,8.01,12.893,10.232,17.191c1.711,3.313-2.344,11.17-3.844,12.221
	c-3.238,2.265-10.926-5.268-10.832-8.314C39.151,16.703,50.015,13.384,43.354,3.355z"/>
<radialGradient id="SVGID_5_" cx="42.5176" cy="23.333" r="22.3043" fx="52.8903" fy="37.0759" gradientTransform="matrix(0.6205 -0.7842 0.2799 0.2215 9.6055 51.5093)" gradientUnits="userSpaceOnUse">
	<stop  offset="0" style="stop-color:#9E1413"/>
	<stop  offset="0.1396" style="stop-color:#AE1617;stop-opacity:0.8464"/>
	<stop  offset="0.4568" style="stop-color:#CE1920;stop-opacity:0.4975"/>
	<stop  offset="0.7246" style="stop-color:#E11B25;stop-opacity:0.2029"/>
	<stop  offset="0.9091" style="stop-color:#E81C27;stop-opacity:0"/>
	<a:midPointStop  offset="0" style="stop-color:#9E1413"/>
	<a:midPointStop  offset="0.3733" style="stop-color:#9E1413"/>
	<a:midPointStop  offset="0.9091" style="stop-color:#E81C27;stop-opacity:0"/>
</radialGradient>
<path fill="url(#SVGID_5_)" d="M43.354,3.355c11.271,6.441,8.01,12.893,10.232,17.191c1.711,3.313-2.344,11.17-3.844,12.221
	c-3.238,2.265-10.926-5.268-10.832-8.314C39.151,16.703,50.015,13.384,43.354,3.355z"/>
<linearGradient id="SVGID_6_" gradientUnits="userSpaceOnUse" x1="33.0518" y1="40.9385" x2="33.0518" y2="3.3555">
	<stop  offset="0" style="stop-color:#C21413"/>
	<stop  offset="0.1006" style="stop-color:#CB1618"/>
	<stop  offset="0.3532" style="stop-color:#DB1920"/>
	<stop  offset="0.6347" style="stop-color:#E51B25"/>
	<stop  offset="1" style="stop-color:#E81C27"/>
	<a:midPointStop  offset="0" style="stop-color:#C21413"/>
	<a:midPointStop  offset="0.2424" style="stop-color:#C21413"/>
	<a:midPointStop  offset="1" style="stop-color:#E81C27"/>
</linearGradient>
<path fill="url(#SVGID_6_)" d="M26.385,3.355C0.766,15.46,25.579,39.597,43.624,40.919c4.602,0.336,3.033-3.684,4.592-3.926
	c2.67-0.412,2.754-4.287,2.258-4.976C45.946,25.746,18.239,14.361,26.385,3.355z"/>
<radialGradient id="SVGID_7_" cx="40.5537" cy="25.8965" r="37.4558" fx="49.6607" fy="51.3958" gradientTransform="matrix(0.8526 0.5226 -0.1457 0.2377 9.7517 -1.4522)" gradientUnits="userSpaceOnUse">
	<stop  offset="0" style="stop-color:#9E1413"/>
	<stop  offset="0.0416" style="stop-color:#A41515;stop-opacity:0.9432"/>
	<stop  offset="0.34" style="stop-color:#C9191F;stop-opacity:0.5363"/>
	<stop  offset="0.5811" style="stop-color:#E01B25;stop-opacity:0.2076"/>
	<stop  offset="0.7333" style="stop-color:#E81C27;stop-opacity:0"/>
	<a:midPointStop  offset="0" style="stop-color:#9E1413"/>
	<a:midPointStop  offset="0.3933" style="stop-color:#9E1413"/>
	<a:midPointStop  offset="0.7333" style="stop-color:#E81C27;stop-opacity:0"/>
</radialGradient>
<path fill="url(#SVGID_7_)" d="M26.385,3.355C0.766,15.46,25.579,39.597,43.624,40.919c4.602,0.336,3.033-3.684,4.592-3.926
	c2.67-0.412,2.754-4.287,2.258-4.976C45.946,25.746,18.239,14.361,26.385,3.355z"/>
</svg>
