<?xml version="1.0" encoding="utf-8"?>
<!-- Generator: Adobe Illustrator 15.0.0, SVG Export Plug-In . SVG Version: 6.00 Build 0)  -->
<!DOCTYPE svg PUBLIC "-//W3C//DTD SVG 1.1//EN" "http://www.w3.org/Graphics/SVG/1.1/DTD/svg11.dtd" [
	<!ENTITY ns_flows "http://ns.adobe.com/Flows/1.0/">
	<!ENTITY ns_extend "http://ns.adobe.com/Extensibility/1.0/">
	<!ENTITY ns_ai "http://ns.adobe.com/AdobeIllustrator/10.0/">
	<!ENTITY ns_graphs "http://ns.adobe.com/Graphs/1.0/">
]>
<svg version="1.1" id="Layer_1" xmlns:x="&ns_extend;" xmlns:i="&ns_ai;" xmlns:graph="&ns_graphs;"
	 xmlns="http://www.w3.org/2000/svg" xmlns:xlink="http://www.w3.org/1999/xlink" xmlns:a="http://ns.adobe.com/AdobeSVGViewerExtensions/3.0/"
	 x="0px" y="0px" width="64px" height="64px" viewBox="0 0 64 64" enable-background="new 0 0 64 64" xml:space="preserve">
<radialGradient id="SVGID_1_" cx="29.8262" cy="29.668" r="32.4579" gradientTransform="matrix(0.7071 -0.7071 0.5985 0.5985 -9.2228 33.2078)" gradientUnits="userSpaceOnUse">
	<stop  offset="0.7152" style="stop-color:#0038B8"/>
	<stop  offset="0.7832" style="stop-color:#0039BC"/>
	<stop  offset="0.8506" style="stop-color:#003DC8"/>
	<stop  offset="0.9178" style="stop-color:#0043DC"/>
	<stop  offset="0.9846" style="stop-color:#004CF7"/>
	<stop  offset="1" style="stop-color:#004EFF"/>
	<a:midPointStop  offset="0.7152" style="stop-color:#0038B8"/>
	<a:midPointStop  offset="0.7091" style="stop-color:#0038B8"/>
	<a:midPointStop  offset="1" style="stop-color:#004EFF"/>
</radialGradient>
<path fill="url(#SVGID_1_)" d="M29.085,2.022c-41.395,1.302-31.92,67.679,5.336,59.236C75.419,51.974,68.262,0.789,29.085,2.022z"/>
<path fill="#FFFFFF" d="M14.407,33.79c-2.382-22.246,26.527-28.519,33.585-5.585C54.408,49.044,16.927,57.291,14.407,33.79z"/>
<linearGradient id="SVGID_2_" gradientUnits="userSpaceOnUse" x1="31.4995" y1="42.4746" x2="31.4995" y2="19.3135">
	<stop  offset="0" style="stop-color:#009AF7"/>
	<stop  offset="0.2824" style="stop-color:#12A6F3"/>
	<stop  offset="0.8455" style="stop-color:#40C5E9"/>
	<stop  offset="1" style="stop-color:#4ECEE6"/>
	<a:midPointStop  offset="0" style="stop-color:#009AF7"/>
	<a:midPointStop  offset="0.5515" style="stop-color:#009AF7"/>
	<a:midPointStop  offset="1" style="stop-color:#4ECEE6"/>
</linearGradient>
<path fill="url(#SVGID_2_)" d="M23.317,38.803C13.17,27.694,26.345,12.784,39.302,22.404C51.075,31.15,34.039,50.541,23.317,38.803z
	"/>
<linearGradient id="SVGID_3_" gradientUnits="userSpaceOnUse" x1="31.4995" y1="36.748" x2="31.4995" y2="25.0415">
	<stop  offset="0" style="stop-color:#302C3B"/>
	<stop  offset="0.2848" style="stop-color:#343240"/>
	<stop  offset="0.6799" style="stop-color:#41444E"/>
	<stop  offset="1" style="stop-color:#4E585E"/>
	<a:midPointStop  offset="0" style="stop-color:#302C3B"/>
	<a:midPointStop  offset="0.6364" style="stop-color:#302C3B"/>
	<a:midPointStop  offset="1" style="stop-color:#4E585E"/>
</linearGradient>
<path fill="url(#SVGID_3_)" d="M31.37,25.048c7.637,0.344,8.261,10.437,0.146,11.635C24.144,37.772,23.298,24.682,31.37,25.048z"/>
<path fill="#0038B8" d="M45.784,5.276C66.157,17.58,64.37,51.25,32.239,58.527C20.628,61.158,11.79,56.33,6.45,48.511
	c5.229,9.439,14.883,15.714,27.975,12.747C68.657,53.506,69.31,16.542,45.784,5.276z"/>
</svg>
