<?xml version="1.0" encoding="utf-8"?>
<!-- Generator: Adobe Illustrator 15.0.0, SVG Export Plug-In . SVG Version: 6.00 Build 0)  -->
<!DOCTYPE svg PUBLIC "-//W3C//DTD SVG 1.1//EN" "http://www.w3.org/Graphics/SVG/1.1/DTD/svg11.dtd" [
	<!ENTITY ns_flows "http://ns.adobe.com/Flows/1.0/">
	<!ENTITY ns_extend "http://ns.adobe.com/Extensibility/1.0/">
	<!ENTITY ns_ai "http://ns.adobe.com/AdobeIllustrator/10.0/">
	<!ENTITY ns_graphs "http://ns.adobe.com/Graphs/1.0/">
]>
<svg version="1.1" id="Layer_1" xmlns:x="&ns_extend;" xmlns:i="&ns_ai;" xmlns:graph="&ns_graphs;"
	 xmlns="http://www.w3.org/2000/svg" xmlns:xlink="http://www.w3.org/1999/xlink" xmlns:a="http://ns.adobe.com/AdobeSVGViewerExtensions/3.0/"
	 x="0px" y="0px" width="64px" height="64px" viewBox="0 0 64 64" enable-background="new 0 0 64 64" xml:space="preserve">
<linearGradient id="SVGID_1_" gradientUnits="userSpaceOnUse" x1="39.8115" y1="57.5957" x2="53.6777" y2="57.5957">
	<stop  offset="0" style="stop-color:#302C3B"/>
	<stop  offset="1" style="stop-color:#4E5E67"/>
	<a:midPointStop  offset="0" style="stop-color:#302C3B"/>
	<a:midPointStop  offset="0.5" style="stop-color:#302C3B"/>
	<a:midPointStop  offset="1" style="stop-color:#4E5E67"/>
</linearGradient>
<path fill="url(#SVGID_1_)" d="M53.678,57.593c0,1.953-3.104,3.538-6.933,3.538c-3.83,0-6.934-1.585-6.934-3.538
	c0-1.951,3.104-3.532,6.934-3.532C50.573,54.061,53.678,55.642,53.678,57.593z"/>
<linearGradient id="SVGID_2_" gradientUnits="userSpaceOnUse" x1="40.2637" y1="57.1055" x2="53.2236" y2="57.1055">
	<stop  offset="0.2909" style="stop-color:#B3C2C6"/>
	<stop  offset="0.7214" style="stop-color:#D5DDE1"/>
	<stop  offset="1" style="stop-color:#E6EBEF"/>
	<a:midPointStop  offset="0.2909" style="stop-color:#B3C2C6"/>
	<a:midPointStop  offset="0.446" style="stop-color:#B3C2C6"/>
	<a:midPointStop  offset="1" style="stop-color:#E6EBEF"/>
</linearGradient>
<path fill="url(#SVGID_2_)" d="M53.224,57.105c0,1.769-2.901,3.196-6.479,3.196c-3.58,0-6.481-1.428-6.481-3.196
	c0-1.765,2.901-3.195,6.481-3.195C50.322,53.91,53.224,55.341,53.224,57.105z"/>
<linearGradient id="SVGID_3_" gradientUnits="userSpaceOnUse" x1="54.7559" y1="24.2866" x2="54.7559" y2="3.1675">
	<stop  offset="0" style="stop-color:#9CAAAD"/>
	<stop  offset="0.0943" style="stop-color:#9FADB0"/>
	<stop  offset="1" style="stop-color:#B8C7CC"/>
	<a:midPointStop  offset="0" style="stop-color:#9CAAAD"/>
	<a:midPointStop  offset="0.4667" style="stop-color:#9CAAAD"/>
	<a:midPointStop  offset="1" style="stop-color:#B8C7CC"/>
</linearGradient>
<path fill="url(#SVGID_3_)" d="M51.644,24.287c-0.131,0-0.262-0.04-0.373-0.119c-0.267-0.197-0.316-0.561-0.112-0.815
	c6.124-7.61,8.58-12.936,7.302-15.826c-1.037-2.343-4.48-2.734-6.995-3.02c-0.54-0.06-1.03-0.116-1.449-0.186
	c-0.331-0.054-0.553-0.354-0.496-0.67c0.058-0.316,0.373-0.528,0.704-0.476c0.398,0.067,0.87,0.121,1.385,0.181
	c2.654,0.299,6.661,0.753,7.973,3.719c1.481,3.351-0.959,8.906-7.456,16.985C52.005,24.208,51.825,24.287,51.644,24.287z"/>
<linearGradient id="SVGID_4_" gradientUnits="userSpaceOnUse" x1="30.1304" y1="23.7837" x2="30.1304" y2="3.5562">
	<stop  offset="0" style="stop-color:#9CAAAD"/>
	<stop  offset="0.0943" style="stop-color:#9FADB0"/>
	<stop  offset="1" style="stop-color:#B8C7CC"/>
	<a:midPointStop  offset="0" style="stop-color:#9CAAAD"/>
	<a:midPointStop  offset="0.4667" style="stop-color:#9CAAAD"/>
	<a:midPointStop  offset="1" style="stop-color:#B8C7CC"/>
</linearGradient>
<path fill="url(#SVGID_4_)" d="M26.813,23.784C24.779,9.714,26.177,5.747,33.94,3.556l0.346,1.113
	c-6.602,1.861-8.325,4.721-6.268,18.956L26.813,23.784z"/>
<linearGradient id="SVGID_5_" gradientUnits="userSpaceOnUse" x1="4" y1="42.4922" x2="52.5947" y2="42.4922">
	<stop  offset="0" style="stop-color:#00ABF1"/>
	<stop  offset="0.2077" style="stop-color:#00A5EE"/>
	<stop  offset="0.474" style="stop-color:#0095E7"/>
	<stop  offset="0.7708" style="stop-color:#007BDB"/>
	<stop  offset="1" style="stop-color:#0062D0"/>
	<a:midPointStop  offset="0" style="stop-color:#00ABF1"/>
	<a:midPointStop  offset="0.5" style="stop-color:#00ABF1"/>
	<a:midPointStop  offset="0.2077" style="stop-color:#00A5EE"/>
	<a:midPointStop  offset="0.5" style="stop-color:#00A5EE"/>
	<a:midPointStop  offset="0.474" style="stop-color:#0095E7"/>
	<a:midPointStop  offset="0.5" style="stop-color:#0095E7"/>
	<a:midPointStop  offset="0.7708" style="stop-color:#007BDB"/>
	<a:midPointStop  offset="0.5" style="stop-color:#007BDB"/>
	<a:midPointStop  offset="1" style="stop-color:#0062D0"/>
</linearGradient>
<path fill="url(#SVGID_5_)" d="M36.832,36.106c5.23-1.327,8.804-3.242,14.081-9.646c0.529-0.643,1.087-1.32,1.682-2.033
	l-1.906-1.443c-0.598,0.717-1.158,1.396-1.689,2.041c-5.681,6.894-9.668,8.903-13.69,8.665c-2.948-0.174-6.014-2.669-6.68-10.083
	l-2.427,0.196c0.621,9.341,5.293,10.521,5.922,11.869c0.746,1.601-3.502,11.115-4.933,15.088
	c-12.613-8.944-22.689-4.427-23.169,1.837c-0.172,2.264,0.539,6.254,6.859,8.539c5.01,1.811,14.085,1.438,17.467-7.667l0.656-1.704
	C30.783,45.946,34.636,36.664,36.832,36.106z M11.558,59.336c-3.847-1.3-5.758-3.583-5.527-6.601
	c0.367-4.787,9.265-8.672,20.521-0.19C23.079,61.901,14.516,60.338,11.558,59.336z"/>
<linearGradient id="SVGID_6_" gradientUnits="userSpaceOnUse" x1="4.0156" y1="51.0459" x2="40.9141" y2="51.0459">
	<stop  offset="0.0848" style="stop-color:#00ABF1;stop-opacity:0"/>
	<stop  offset="0.5576" style="stop-color:#00ABF1"/>
	<a:midPointStop  offset="0.0848" style="stop-color:#00ABF1;stop-opacity:0"/>
	<a:midPointStop  offset="0.5" style="stop-color:#00ABF1;stop-opacity:0"/>
	<a:midPointStop  offset="0.5576" style="stop-color:#00ABF1"/>
</linearGradient>
<path fill="url(#SVGID_6_)" d="M27.191,50.76c-12.613-8.944-22.689-4.427-23.169,1.837c-0.131,1.724,1.826,2.531,2.008,0.139
	c0.367-4.787,9.265-8.672,20.521-0.19c3.182,2.518,7.468,4.424,14.036,3.623c0.42-0.051,0.453-1.648,0-1.589
	C34.579,55.354,31.024,53.75,27.191,50.76z"/>
<linearGradient id="SVGID_7_" gradientUnits="userSpaceOnUse" x1="42.2988" y1="54.6895" x2="42.3467" y2="55.8009">
	<stop  offset="0" style="stop-color:#CDDEE3"/>
	<stop  offset="0.4398" style="stop-color:#B4C3C7"/>
	<stop  offset="1" style="stop-color:#8F9B9E"/>
	<a:midPointStop  offset="0" style="stop-color:#CDDEE3"/>
	<a:midPointStop  offset="0.5333" style="stop-color:#CDDEE3"/>
	<a:midPointStop  offset="1" style="stop-color:#8F9B9E"/>
</linearGradient>
<path fill="url(#SVGID_7_)" d="M43.864,54.379c-1.176,0.189-2.258,0.323-3.277,0.413c0,0-0.182,0.571,0.031,1.119
	c0.979-0.083,2.004-0.206,3.086-0.378C44.13,55.466,44.288,54.309,43.864,54.379z"/>
<linearGradient id="SVGID_8_" gradientUnits="userSpaceOnUse" x1="47.7324" y1="5.1626" x2="47.7324" y2="2">
	<stop  offset="0" style="stop-color:#302C3B"/>
	<stop  offset="1" style="stop-color:#4E5E67"/>
	<a:midPointStop  offset="0" style="stop-color:#302C3B"/>
	<a:midPointStop  offset="0.5" style="stop-color:#302C3B"/>
	<a:midPointStop  offset="1" style="stop-color:#4E5E67"/>
</linearGradient>
<path fill="url(#SVGID_8_)" d="M50.228,2.927c-0.331-0.342-2.118-0.506-2.118-0.506s-1.754-0.84-2.636-0.148
	C44.95,2.688,44.853,4.299,45.32,4.77c0.792,0.788,2.634,0.146,2.634,0.146s1.797,0.036,2.169-0.27
	C50.495,4.337,50.562,3.274,50.228,2.927z"/>
<linearGradient id="SVGID_9_" gradientUnits="userSpaceOnUse" x1="36.0576" y1="5.0278" x2="36.0576" y2="2.1343">
	<stop  offset="0" style="stop-color:#302C3B"/>
	<stop  offset="1" style="stop-color:#4E5E67"/>
	<a:midPointStop  offset="0" style="stop-color:#302C3B"/>
	<a:midPointStop  offset="0.5" style="stop-color:#302C3B"/>
	<a:midPointStop  offset="1" style="stop-color:#4E5E67"/>
</linearGradient>
<path fill="url(#SVGID_9_)" d="M33.981,4.849c0.364,0.244,1.984,0.063,1.984,0.063s1.727,0.426,2.371-0.354
	c0.378-0.464,0.142-1.913-0.371-2.244c-0.859-0.555-2.368,0.354-2.368,0.354s-1.602,0.297-1.87,0.637
	C33.46,3.647,33.614,4.605,33.981,4.849z"/>
<radialGradient id="SVGID_10_" cx="15.0693" cy="78.8418" r="3.2786" gradientTransform="matrix(1.0527 0 0 1.6665 30.88 -74.903)" gradientUnits="userSpaceOnUse">
	<stop  offset="0" style="stop-color:#E6EBEF"/>
	<stop  offset="0.265" style="stop-color:#D5DCE0"/>
	<stop  offset="0.7881" style="stop-color:#A9B5B8"/>
	<stop  offset="1" style="stop-color:#95A3A6"/>
	<a:midPointStop  offset="0" style="stop-color:#E6EBEF"/>
	<a:midPointStop  offset="0.554" style="stop-color:#E6EBEF"/>
	<a:midPointStop  offset="1" style="stop-color:#95A3A6"/>
</radialGradient>
<path fill="url(#SVGID_10_)" d="M50.188,56.486c0,0.941-1.541,1.699-3.443,1.699c-1.904,0-3.445-0.758-3.445-1.699
	c0-0.938,1.541-1.698,3.445-1.698C48.647,54.788,50.188,55.549,50.188,56.486z"/>
<linearGradient id="SVGID_11_" gradientUnits="userSpaceOnUse" x1="41.9775" y1="53.752" x2="51.5117" y2="53.752">
	<stop  offset="0" style="stop-color:#302C3B"/>
	<stop  offset="1" style="stop-color:#4E5E67"/>
	<a:midPointStop  offset="0" style="stop-color:#302C3B"/>
	<a:midPointStop  offset="0.5" style="stop-color:#302C3B"/>
	<a:midPointStop  offset="1" style="stop-color:#4E5E67"/>
</linearGradient>
<ellipse fill="url(#SVGID_11_)" cx="46.745" cy="53.752" rx="4.767" ry="2.482"/>
<linearGradient id="SVGID_12_" gradientUnits="userSpaceOnUse" x1="43.2998" y1="53.6602" x2="50.1904" y2="53.6602">
	<stop  offset="0.2909" style="stop-color:#B3C2C6"/>
	<stop  offset="0.7214" style="stop-color:#D5DDE1"/>
	<stop  offset="1" style="stop-color:#E6EBEF"/>
	<a:midPointStop  offset="0.2909" style="stop-color:#B3C2C6"/>
	<a:midPointStop  offset="0.446" style="stop-color:#B3C2C6"/>
	<a:midPointStop  offset="1" style="stop-color:#E6EBEF"/>
</linearGradient>
<ellipse fill="url(#SVGID_12_)" cx="46.745" cy="53.659" rx="3.445" ry="1.354"/>
<ellipse fill="#302C3B" cx="46.744" cy="54.188" rx="0.708" ry="0.278"/>
</svg>
