<?xml version="1.0" encoding="utf-8"?>
<!-- Generator: Adobe Illustrator 15.0.0, SVG Export Plug-In . SVG Version: 6.00 Build 0)  -->
<!DOCTYPE svg PUBLIC "-//W3C//DTD SVG 1.1//EN" "http://www.w3.org/Graphics/SVG/1.1/DTD/svg11.dtd" [
	<!ENTITY ns_flows "http://ns.adobe.com/Flows/1.0/">
	<!ENTITY ns_extend "http://ns.adobe.com/Extensibility/1.0/">
	<!ENTITY ns_ai "http://ns.adobe.com/AdobeIllustrator/10.0/">
	<!ENTITY ns_graphs "http://ns.adobe.com/Graphs/1.0/">
]>
<svg version="1.1" id="Layer_1" xmlns:x="&ns_extend;" xmlns:i="&ns_ai;" xmlns:graph="&ns_graphs;"
	 xmlns="http://www.w3.org/2000/svg" xmlns:xlink="http://www.w3.org/1999/xlink" xmlns:a="http://ns.adobe.com/AdobeSVGViewerExtensions/3.0/"
	 x="0px" y="0px" width="64px" height="64px" viewBox="0 0 64 64" enable-background="new 0 0 64 64" xml:space="preserve">
<linearGradient id="SVGID_1_" gradientUnits="userSpaceOnUse" x1="2.9858" y1="50.9961" x2="130.3165" y2="27.9067">
	<stop  offset="0" style="stop-color:#D44E00"/>
	<stop  offset="1" style="stop-color:#300D00"/>
	<a:midPointStop  offset="0" style="stop-color:#D44E00"/>
	<a:midPointStop  offset="0.5" style="stop-color:#D44E00"/>
	<a:midPointStop  offset="1" style="stop-color:#300D00"/>
</linearGradient>
<path fill="url(#SVGID_1_)" d="M2.001,49.053c2.836-1.05,4.508-2.49,6.535-5.801C22.273,20.822,62,25.816,62,37.014
	c0,26.976-31.487,30.178-49.083,18.77C6.147,51.394,2.166,51.839,2.001,49.053z"/>
<linearGradient id="SVGID_2_" gradientUnits="userSpaceOnUse" x1="9.7441" y1="44.2412" x2="108.6428" y2="21.8106">
	<stop  offset="0" style="stop-color:#D44E00"/>
	<stop  offset="1" style="stop-color:#300D00"/>
	<a:midPointStop  offset="0" style="stop-color:#D44E00"/>
	<a:midPointStop  offset="0.5" style="stop-color:#D44E00"/>
	<a:midPointStop  offset="1" style="stop-color:#300D00"/>
</linearGradient>
<path fill="url(#SVGID_2_)" d="M5.587,48.044c0,0,8.605-20.124,32.72-20.124c30.811,0,27.002,17.964,0,20.124
	C12.239,50.127,5.587,48.044,5.587,48.044z"/>
<linearGradient id="SVGID_3_" gradientUnits="userSpaceOnUse" x1="10.9683" y1="60.3291" x2="53.6342" y2="24.5281">
	<stop  offset="0" style="stop-color:#FF8126"/>
	<stop  offset="1" style="stop-color:#CF3E00"/>
	<a:midPointStop  offset="0" style="stop-color:#FF8126"/>
	<a:midPointStop  offset="0.5" style="stop-color:#FF8126"/>
	<a:midPointStop  offset="1" style="stop-color:#CF3E00"/>
</linearGradient>
<path fill="url(#SVGID_3_)" d="M2.083,49.581c-0.617-1.754,2.354-3.679,4.145-6.518C20.853,19.896,61.957,23.147,62,37.014
	c0.045,14.114-36.313,14.059-46.804,14.059C5.409,51.072,2.681,51.278,2.083,49.581z M40.818,28.958
	c-11.046,0-26.232,4.591-32.158,16.854c-0.229,0.476,0.101,1.06,0.583,1.047c1.707-0.043,3.695-0.058,5.93-0.072
	c10.324-0.072,26.487-0.173,36.03-4.099C65.826,36.677,53.373,28.958,40.818,28.958z"/>
<path opacity="0.5" fill="#302C3B" d="M21.009,46.734c9.802-0.176,23.714-0.928,31.411-4.475
	C44.475,39.032,30.565,39.951,21.009,46.734z"/>
<linearGradient id="SVGID_4_" gradientUnits="userSpaceOnUse" x1="-702.0122" y1="40.7676" x2="-702.0122" y2="24.0005" gradientTransform="matrix(-1 0 0 1 -693.6719 0)">
	<stop  offset="0" style="stop-color:#FF7B00"/>
	<stop  offset="0.2417" style="stop-color:#FB6B00"/>
	<stop  offset="0.7114" style="stop-color:#F04200"/>
	<stop  offset="1" style="stop-color:#E82500"/>
	<a:midPointStop  offset="0" style="stop-color:#FF7B00"/>
	<a:midPointStop  offset="0.5576" style="stop-color:#FF7B00"/>
	<a:midPointStop  offset="1" style="stop-color:#E82500"/>
</linearGradient>
<path fill="url(#SVGID_4_)" d="M8.569,24c0.904,5.997,9.177,16.768,0.074,16.768C0.503,40.768,4.15,27.886,8.569,24z"/>
<linearGradient id="SVGID_5_" gradientUnits="userSpaceOnUse" x1="-702.0532" y1="40.7676" x2="-702.0532" y2="26.2905" gradientTransform="matrix(-1 0 0 1 -693.6719 0)">
	<stop  offset="0" style="stop-color:#FFAA00"/>
	<stop  offset="0.1749" style="stop-color:#FFA400"/>
	<stop  offset="0.4181" style="stop-color:#FF9200"/>
	<stop  offset="0.7014" style="stop-color:#FF7400"/>
	<stop  offset="1" style="stop-color:#FF4D00"/>
	<a:midPointStop  offset="0" style="stop-color:#FFAA00"/>
	<a:midPointStop  offset="0.6364" style="stop-color:#FFAA00"/>
	<a:midPointStop  offset="1" style="stop-color:#FF4D00"/>
</linearGradient>
<path fill="url(#SVGID_5_)" d="M8.011,26.29c0.612,3.083,8.026,14.478,0.632,14.478C1.809,40.768,5.91,29.019,8.011,26.29z"/>
<linearGradient id="SVGID_6_" gradientUnits="userSpaceOnUse" x1="416.0313" y1="40.7676" x2="416.0313" y2="28.5024" gradientTransform="matrix(1 0 0 1 -407.4355 0)">
	<stop  offset="0" style="stop-color:#FFB500"/>
	<stop  offset="0.0869" style="stop-color:#FFBA00"/>
	<stop  offset="0.6742" style="stop-color:#FFDA00"/>
	<stop  offset="1" style="stop-color:#FFE600"/>
	<a:midPointStop  offset="0" style="stop-color:#FFB500"/>
	<a:midPointStop  offset="0.4242" style="stop-color:#FFB500"/>
	<a:midPointStop  offset="1" style="stop-color:#FFE600"/>
</linearGradient>
<path fill="url(#SVGID_6_)" d="M8.643,40.768c5.095,0,0.774-9.24-1.106-12.266C7.339,34.231,3.91,40.768,8.643,40.768z"/>
<linearGradient id="SVGID_7_" gradientUnits="userSpaceOnUse" x1="416" y1="40.21" x2="416" y2="30.6392" gradientTransform="matrix(1 0 0 1 -407.4355 0)">
	<stop  offset="0.2424" style="stop-color:#FFF2AB"/>
	<stop  offset="0.3596" style="stop-color:#FFF1A5"/>
	<stop  offset="0.5236" style="stop-color:#FFEF92"/>
	<stop  offset="0.7153" style="stop-color:#FFEC74"/>
	<stop  offset="0.9263" style="stop-color:#FFE74B"/>
	<stop  offset="1" style="stop-color:#FFE53B"/>
	<a:midPointStop  offset="0.2424" style="stop-color:#FFF2AB"/>
	<a:midPointStop  offset="0.6349" style="stop-color:#FFF2AB"/>
	<a:midPointStop  offset="1" style="stop-color:#FFE53B"/>
</linearGradient>
<path fill="url(#SVGID_7_)" d="M8.564,40.21c2.245,0,1.47-5.654-0.734-9.571C8.091,35.28,5.876,40.21,8.564,40.21z"/>
<linearGradient id="SVGID_8_" gradientUnits="userSpaceOnUse" x1="17.4487" y1="29.9028" x2="33.9252" y2="49.5387">
	<stop  offset="0" style="stop-color:#FFE53B"/>
	<stop  offset="0.1212" style="stop-color:#1A1626"/>
	<stop  offset="0.1284" style="stop-color:#221E2C"/>
	<stop  offset="0.1682" style="stop-color:#4B444A"/>
	<stop  offset="0.2129" style="stop-color:#716765"/>
	<stop  offset="0.2616" style="stop-color:#91857C"/>
	<stop  offset="0.3155" style="stop-color:#AD9F90"/>
	<stop  offset="0.3763" style="stop-color:#C3B3A0"/>
	<stop  offset="0.4473" style="stop-color:#D4C3AC"/>
	<stop  offset="0.5351" style="stop-color:#DFCEB5"/>
	<stop  offset="0.6582" style="stop-color:#E6D4BA"/>
	<stop  offset="1" style="stop-color:#E8D6BB"/>
	<a:midPointStop  offset="0" style="stop-color:#FFE53B"/>
	<a:midPointStop  offset="0.5" style="stop-color:#FFE53B"/>
	<a:midPointStop  offset="0.1212" style="stop-color:#1A1626"/>
	<a:midPointStop  offset="0.13" style="stop-color:#1A1626"/>
	<a:midPointStop  offset="1" style="stop-color:#E8D6BB"/>
</linearGradient>
<path fill="url(#SVGID_8_)" d="M43.082,41.74c2.203-1.088,1.012-3.32-1.09-2.275C32.37,44.244,14.958,48.157,9.58,38.46
	c-0.68-1.227-2.26-0.875-1.904,0.525C10.208,48.971,29.665,48.375,43.082,41.74z"/>
<linearGradient id="SVGID_9_" gradientUnits="userSpaceOnUse" x1="34.9053" y1="48.9932" x2="34.9053" y2="29.4061">
	<stop  offset="0" style="stop-color:#825F00;stop-opacity:0.45"/>
	<stop  offset="0.0444" style="stop-color:#7D5B02;stop-opacity:0.4744"/>
	<stop  offset="0.6966" style="stop-color:#362A1C;stop-opacity:0.8331"/>
	<stop  offset="1" style="stop-color:#1A1626"/>
	<a:midPointStop  offset="0" style="stop-color:#825F00;stop-opacity:0.45"/>
	<a:midPointStop  offset="0.4667" style="stop-color:#825F00;stop-opacity:0.45"/>
	<a:midPointStop  offset="1" style="stop-color:#1A1626"/>
</linearGradient>
<path fill="url(#SVGID_9_)" d="M12.63,46.808c9.134-0.086,38.952,0.408,44.552-8.194C52.736,28.895,22.079,29.004,12.63,46.808z"/>
</svg>
