<?xml version="1.0" encoding="utf-8"?>
<!-- Generator: Adobe Illustrator 24.1.2, SVG Export Plug-In . SVG Version: 6.00 Build 0)  -->
<svg version="1.1" id="Layer_1" xmlns="http://www.w3.org/2000/svg" xmlns:xlink="http://www.w3.org/1999/xlink" x="0px" y="0px"
	 width="64px" height="64px" viewBox="0 0 64 64" style="enable-background:new 0 0 64 64;" xml:space="preserve">
<style type="text/css">
	.st0{fill:url(#SVGID_1_);}
	.st1{fill:url(#SVGID_2_);}
	.st2{fill:url(#SVGID_3_);}
	.st3{fill:url(#SVGID_4_);}
	.st4{fill:url(#SVGID_5_);}
	.st5{fill:url(#SVGID_6_);}
	.st6{fill:url(#SVGID_7_);}
	.st7{fill:url(#SVGID_8_);}
	.st8{fill:url(#SVGID_9_);}
	.st9{fill:url(#SVGID_10_);}
	.st10{fill:url(#SVGID_11_);}
	.st11{fill:url(#SVGID_12_);}
	.st12{opacity:0.3;fill:#FFFFFF;}
	.st13{fill:#7A6056;}
	.st14{fill:#57443D;}
	.st15{fill:#6B544C;}
	.st16{fill:#9C7A6E;}
	.st17{fill:#B08A7C;}
</style>
<linearGradient id="SVGID_1_" gradientUnits="userSpaceOnUse" x1="10.4714" y1="47.4134" x2="53.5285" y2="4.3563">
	<stop  offset="0" style="stop-color:#4ECEE6"/>
	<stop  offset="1" style="stop-color:#E8FFFF"/>
</linearGradient>
<rect x="9.55" y="5.27" class="st0" width="44.89" height="41.22"/>
<radialGradient id="SVGID_2_" cx="-55.2045" cy="52.2055" r="4.9284" gradientTransform="matrix(0.9 0 0 -0.9509 70.2286 63.3594)" gradientUnits="userSpaceOnUse">
	<stop  offset="0.5939" style="stop-color:#DEFBFF"/>
	<stop  offset="1" style="stop-color:#DEFBFF;stop-opacity:0"/>
</radialGradient>
<ellipse class="st1" cx="20.54" cy="13.72" rx="4.43" ry="4.69"/>
<radialGradient id="SVGID_3_" cx="283.8212" cy="-222.9743" r="4.6054" gradientTransform="matrix(0.7409 0 0 -0.672 -185.2466 -134.0245)" gradientUnits="userSpaceOnUse">
	<stop  offset="0.5939" style="stop-color:#DEFBFF"/>
	<stop  offset="1" style="stop-color:#DEFBFF;stop-opacity:0"/>
</radialGradient>
<ellipse class="st2" cx="25.04" cy="15.81" rx="3.41" ry="3.1"/>
<radialGradient id="SVGID_4_" cx="-59.9968" cy="49.6868" r="4.4119" gradientTransform="matrix(0.9 0 0 -0.9509 70.2286 63.3594)" gradientUnits="userSpaceOnUse">
	<stop  offset="0.5939" style="stop-color:#DEFBFF"/>
	<stop  offset="1" style="stop-color:#DEFBFF;stop-opacity:0"/>
</radialGradient>
<ellipse class="st3" cx="16.23" cy="16.11" rx="3.97" ry="4.2"/>
<radialGradient id="SVGID_5_" cx="-63.9512" cy="-143.31" r="3.1962" gradientTransform="matrix(0.9 0 0 -0.7301 70.2286 -87.6064)" gradientUnits="userSpaceOnUse">
	<stop  offset="0.5939" style="stop-color:#DEFBFF"/>
	<stop  offset="1" style="stop-color:#DEFBFF;stop-opacity:0"/>
</radialGradient>
<ellipse class="st4" cx="12.67" cy="17.02" rx="2.88" ry="2.33"/>
<radialGradient id="SVGID_6_" cx="-83.4855" cy="234.4851" r="3.1972" gradientTransform="matrix(1.1267 0 0 -0.6419 115.3596 168.8792)" gradientUnits="userSpaceOnUse">
	<stop  offset="0.5939" style="stop-color:#DEFBFF"/>
	<stop  offset="1" style="stop-color:#DEFBFF;stop-opacity:0"/>
</radialGradient>
<ellipse class="st5" cx="21.3" cy="18.36" rx="3.6" ry="2.05"/>
<radialGradient id="SVGID_7_" cx="1827.5483" cy="34.187" r="4.1064" gradientTransform="matrix(-0.9 0 0 -0.9509 1685.2301 63.3594)" gradientUnits="userSpaceOnUse">
	<stop  offset="0.5939" style="stop-color:#DEFBFF"/>
	<stop  offset="1" style="stop-color:#DEFBFF;stop-opacity:0"/>
</radialGradient>
<path class="st6" d="M40.44,26.95c-2.04,0-3.7,1.75-3.7,3.91s1.65,3.91,3.7,3.91s3.7-1.75,3.7-3.91S42.48,26.95,40.44,26.95z"/>
<radialGradient id="SVGID_8_" cx="2569.8633" cy="-247.9506" r="3.8373" gradientTransform="matrix(-0.7409 0 0 -0.672 1940.7053 -134.0245)" gradientUnits="userSpaceOnUse">
	<stop  offset="0.5939" style="stop-color:#DEFBFF"/>
	<stop  offset="1" style="stop-color:#DEFBFF;stop-opacity:0"/>
</radialGradient>
<path class="st7" d="M36.69,30.02c-1.57,0-2.84,1.15-2.84,2.58c0,1.42,1.27,2.58,2.84,2.58c1.57,0,2.84-1.15,2.84-2.58
	C39.54,31.17,38.26,30.02,36.69,30.02z"/>
<radialGradient id="SVGID_9_" cx="1823.5554" cy="32.0883" r="3.6761" gradientTransform="matrix(-0.9 0 0 -0.9509 1685.2301 63.3594)" gradientUnits="userSpaceOnUse">
	<stop  offset="0.5939" style="stop-color:#DEFBFF"/>
	<stop  offset="1" style="stop-color:#DEFBFF;stop-opacity:0"/>
</radialGradient>
<ellipse class="st8" cx="44.03" cy="32.85" rx="3.31" ry="3.5"/>
<radialGradient id="SVGID_10_" cx="1820.2605" cy="-166.0223" r="2.6631" gradientTransform="matrix(-0.9 0 0 -0.7301 1685.2301 -87.6064)" gradientUnits="userSpaceOnUse">
	<stop  offset="0.5939" style="stop-color:#DEFBFF"/>
	<stop  offset="1" style="stop-color:#DEFBFF;stop-opacity:0"/>
</radialGradient>
<path class="st9" d="M47,31.66c-1.32,0-2.4,0.87-2.4,1.94c0,1.07,1.07,1.94,2.4,1.94c1.32,0,2.4-0.87,2.4-1.94
	C49.39,32.53,48.32,31.66,47,31.66z"/>
<radialGradient id="SVGID_11_" cx="1420.333" cy="208.9998" r="2.664" gradientTransform="matrix(-1.1267 0 0 -0.6419 1640.0991 168.8792)" gradientUnits="userSpaceOnUse">
	<stop  offset="0.5939" style="stop-color:#DEFBFF"/>
	<stop  offset="1" style="stop-color:#DEFBFF;stop-opacity:0"/>
</radialGradient>
<path class="st10" d="M39.81,33.01c-1.66,0-3,0.77-3,1.71c0,0.94,1.34,1.71,3,1.71c1.66,0,3-0.77,3-1.71
	C42.81,33.78,41.47,33.01,39.81,33.01z"/>
<linearGradient id="SVGID_12_" gradientUnits="userSpaceOnUse" x1="32" y1="55.611" x2="32" y2="42.5319">
	<stop  offset="0" style="stop-color:#86C400"/>
	<stop  offset="1" style="stop-color:#88DE00"/>
</linearGradient>
<path class="st11" d="M54.45,55.61H9.55V42.88c18.68-1.88,32.29,4.66,44.89,0V55.61z"/>
<polygon class="st12" points="19.75,56.75 8.36,56.75 50.5,5.95 54.45,5.95 "/>
<polygon class="st12" points="10.75,45.16 9.83,34.66 45.45,5.47 49.39,5.47 "/>
<polygon class="st12" points="37,56.75 25.61,56.75 53,11.83 54.79,11.75 "/>
<path class="st13" d="M6,2v60h52V2H6z M30.81,55.34H12.04v-23h18.76V55.34z M30.81,30.8H12.04V8.66h18.76V30.8z M51.96,55.34H32.34
	v-23h19.61V55.34z M51.96,30.8H32.34V8.66h19.61V30.8z"/>
<path class="st14" d="M55.21,58.89H8.79V5.11h46.43V58.89z M9.21,58.46h45.57V5.54H9.21V58.46z"/>
<path class="st15" d="M12.04,8.66V30.8l-0.34,0.34V8.32L12.04,8.66z"/>
<path class="st14" d="M30.81,8.66H12.04L11.7,8.32h19.44L30.81,8.66z"/>
<path class="st16" d="M30.81,30.8V8.66l0.34-0.34v22.82L30.81,30.8z"/>
<path class="st17" d="M12.04,30.8h18.76l0.34,0.34H11.7L12.04,30.8z"/>
<path class="st15" d="M32.34,8.66V30.8L32,31.14V8.32L32.34,8.66z"/>
<path class="st14" d="M51.96,8.66H32.34L32,8.32h20.3L51.96,8.66z"/>
<path class="st16" d="M51.96,30.8V8.66l0.34-0.34v22.82L51.96,30.8z"/>
<path class="st17" d="M32.34,30.8h19.61l0.34,0.34H32L32.34,30.8z"/>
<path class="st15" d="M12.04,32.34v23l-0.34,0.34V32L12.04,32.34z"/>
<path class="st14" d="M30.81,32.34H12.04L11.7,32h19.44L30.81,32.34z"/>
<path class="st16" d="M30.81,55.34v-23L31.15,32v23.68L30.81,55.34z"/>
<path class="st17" d="M12.04,55.34h18.76l0.34,0.34H11.7L12.04,55.34z"/>
<path class="st15" d="M32.34,32.34v23L32,55.68V32L32.34,32.34z"/>
<path class="st14" d="M51.96,32.34H32.34L32,32h20.3L51.96,32.34z"/>
<path class="st16" d="M51.96,55.34v-23L52.3,32v23.68L51.96,55.34z"/>
<path class="st17" d="M32.34,55.34h19.61l0.34,0.34H32L32.34,55.34z"/>
</svg>
