<?xml version="1.0" encoding="utf-8"?>
<!-- Generator: Adobe Illustrator 15.0.0, SVG Export Plug-In . SVG Version: 6.00 Build 0)  -->
<!DOCTYPE svg PUBLIC "-//W3C//DTD SVG 1.1//EN" "http://www.w3.org/Graphics/SVG/1.1/DTD/svg11.dtd" [
	<!ENTITY ns_flows "http://ns.adobe.com/Flows/1.0/">
	<!ENTITY ns_extend "http://ns.adobe.com/Extensibility/1.0/">
	<!ENTITY ns_ai "http://ns.adobe.com/AdobeIllustrator/10.0/">
	<!ENTITY ns_graphs "http://ns.adobe.com/Graphs/1.0/">
]>
<svg version="1.1" id="Layer_1" xmlns:x="&ns_extend;" xmlns:i="&ns_ai;" xmlns:graph="&ns_graphs;"
	 xmlns="http://www.w3.org/2000/svg" xmlns:xlink="http://www.w3.org/1999/xlink" xmlns:a="http://ns.adobe.com/AdobeSVGViewerExtensions/3.0/"
	 x="0px" y="0px" width="64px" height="64px" viewBox="0 0 64 64" enable-background="new 0 0 64 64" xml:space="preserve">
<linearGradient id="SVGID_1_" gradientUnits="userSpaceOnUse" x1="24.4014" y1="5.1177" x2="45.8354" y2="27.6198">
	<stop  offset="0.1394" style="stop-color:#727D82"/>
	<stop  offset="0.2926" style="stop-color:#768286"/>
	<stop  offset="0.4648" style="stop-color:#838F93"/>
	<stop  offset="0.5273" style="stop-color:#8A9699"/>
	<a:midPointStop  offset="0.1394" style="stop-color:#727D82"/>
	<a:midPointStop  offset="0.6825" style="stop-color:#727D82"/>
	<a:midPointStop  offset="0.5273" style="stop-color:#8A9699"/>
</linearGradient>
<path fill="url(#SVGID_1_)" d="M50.537,15.743c3.516,15.733-15.696,12.376-16.473,12.165C23.05,24.9,16.802,11.634,18.683,10.228
	c0.724-0.54,7.793-3.784,8.414-3.995c0.963-0.328,8.169-0.479,12.158,0.735c-0.163,1.88,2.654,2.694,3.979,3.656
	C43.604,10.893,49.523,14.538,50.537,15.743z"/>
<path fill="#ABB5BA" d="M34.271,28.546c-0.48-2.503-5.542-6.407-6.195-7.138c-0.654-0.733-8.364-11.675-9.393-11.181
	c-1.178,0.566-7.021,8.369-7.088,8.785c-0.136,0.855,0.186,3.3-2.869,3.766c-0.578,0.087-1.872,8.288-2.125,8.48
	c-0.544,0.411-3.488,2.854-4.37,3.913c-0.502,0.603-0.033,8.563,0,8.956c0.193,2.32,5.056,9.354,9.277,11.645
	c1.054,0.573,13.495,3.781,15.487,4.072c1.85,0.27,5.835-1.259,6.927-0.73c0.455,0.219,7.03,1.791,7.922,1.896
	C52.532,53.149,39.019,35.974,34.271,28.546z"/>
<linearGradient id="SVGID_2_" gradientUnits="userSpaceOnUse" x1="11.5073" y1="41.1973" x2="45.8574" y2="41.1973">
	<stop  offset="0.4606" style="stop-color:#8A9699"/>
	<stop  offset="0.5328" style="stop-color:#96A2A5"/>
	<stop  offset="0.6705" style="stop-color:#A7B2B6"/>
	<stop  offset="0.8196" style="stop-color:#B2BCC1"/>
	<stop  offset="1" style="stop-color:#B5BFC4"/>
	<a:midPointStop  offset="0.4606" style="stop-color:#8A9699"/>
	<a:midPointStop  offset="0.2556" style="stop-color:#8A9699"/>
	<a:midPointStop  offset="1" style="stop-color:#B5BFC4"/>
</linearGradient>
<path fill="url(#SVGID_2_)" d="M34.271,28.546c-0.48-2.503-5.542-6.407-6.195-7.138c-0.25-0.281-0.996,2.113-1.86,5.22
	c-2.115-1.134-5.043-3.781-5.043-3.781s4.251,6.69,4.123,7.168c-1.135,4.243-2.252,8.542-2.597,8.958
	c-2.163,2.613-9.246,10.012-11.191,16.799c1.054,0.573,13.495,3.781,15.487,4.072c1.85,0.27,5.835-1.259,6.927-0.73
	c0.455,0.219,7.03,1.791,7.922,1.896C52.532,53.149,39.019,35.974,34.271,28.546z"/>
<linearGradient id="SVGID_3_" gradientUnits="userSpaceOnUse" x1="33.7822" y1="38.291" x2="62" y2="38.291">
	<stop  offset="0" style="stop-color:#89969C"/>
	<stop  offset="0.2871" style="stop-color:#859298"/>
	<stop  offset="0.5716" style="stop-color:#79878D"/>
	<stop  offset="0.8543" style="stop-color:#65747B"/>
	<stop  offset="1" style="stop-color:#58676E"/>
	<a:midPointStop  offset="0" style="stop-color:#89969C"/>
	<a:midPointStop  offset="0.7091" style="stop-color:#89969C"/>
	<a:midPointStop  offset="1" style="stop-color:#58676E"/>
</linearGradient>
<path fill="url(#SVGID_3_)" d="M48.771,60.866c10.838-7.654,8.832-12.437,12.938-15.393c1.03-0.779-0.801-6.4-3.609-11.086
	c-0.29-0.484-0.321-1.815,0.345-2.418c-0.336-1.222-1.686-6.822-2.139-7.613c-0.703-1.228-4.025-7.098-5.77-8.613
	c-0.605-0.527-1.227,6.745-2.755,8.045c-2.245,1.911-9.775,0.492-10.847,0.854c-0.741,0.251-2.893,2.814-3.06,3.242
	c-0.584,1.497,1.723,8.965,2.726,10.927c0.143,0.279-0.068,4.794-0.068,4.794s1.187-3.071,1.494-2.416
	c1.409,2.992,5.091,6.506,5.63,7.394C45.754,52.034,48.771,60.866,48.771,60.866z"/>
<path fill="#58676E" d="M58.445,31.97c-2.78,0.755-6.804,0.046-6.721,7.436c1.063-5.059,4.747-4.366,6.537-4.742
	C58.111,34.072,58.38,32.536,58.445,31.97z"/>
<path fill="#58676E" d="M39.254,6.968c-1.543,0.419-6.165,4.836-6.965,5.824c-0.221,0.275-0.094,4.965,0.043,4.854
	c0.203-0.167,1.247-4.492,1.451-4.652c0.27-0.209,5.249-1.069,9.451-2.371C43.082,10.033,39.896,7.603,39.254,6.968z"/>
<path fill="#58676E" d="M36.936,24.642c6.008,2.383,6.043,5.896,5.889,6.282c-1.629,4.067,0.15,8.707,1.712,10.13
	c-1.327-4.02,2.077-9.224,3.577-9.646c0.295-0.081-0.643-5.49,0.236-8.43C45.361,25.878,37.863,23.784,36.936,24.642z"/>
<path fill="#58676E" d="M61.912,45.054c-0.513-1.339-4.724,3.9-6.964,3.322c6.147,3.408-4.522,9.068-6.177,12.49
	c1.106-0.123,10.871-6.979,11.146-8.125c0.214-0.889,0.027-3.693,0.19-4.336C60.219,47.971,62.055,45.422,61.912,45.054z"/>
<path fill="#8A9599" d="M6.601,31.259c1.333,0.829,8.832,8.469,9.273,9.635c0.122,0.322,0.214,1.398-3.506,8.74
	c-1.531-4.834,1.967-3.834-0.123-7.138c-0.092-0.146,0.763-0.513,0.669-0.657c-0.14-0.215-1.334-0.785-1.479-0.995
	c-0.189-0.275-5.621-3.258-9.205-5.672C2.566,34.651,5.779,31.685,6.601,31.259z"/>
<path fill="#8A9599" d="M11.594,19.013c0,0-0.813,2.063-2.869,3.766c4.756,3.479,3.205,6.685,10.788,13.208
	c0.74-4.046-1.44-8.08-1.722-11.235C17.761,24.406,11.594,19.013,11.594,19.013z"/>
<path fill="#58676E" d="M48.771,60.866c-0.614-1.898,0.007-7.568-5.114-12.284c0.865,7.328,0.263,8.821-0.784,8.824
	c-0.256,0-0.336,2.171-1.029,3.604c1.229,0.175,3.105,1.229,3.301,0.94c0.193-0.288,0.893-0.868,1.027-0.893
	C46.559,60.988,48.07,61.034,48.771,60.866z"/>
<path fill="#6A787F" d="M33.203,49.831c0.068-0.475-0.741-1.228-1.275-3.921c-0.015-0.079-1.661-0.514-1.782-2.093
	c-0.389-5.082,0.44-6.475-1.533-10.79c0.994,5.827-2.414,10.262-3.456,10.237c-0.256-0.006-0.048,8.916-5.909,14.74
	c1.413,0.523,7.561,2.075,7.747,1.84c-1.143-6.086,0.808-11.688,0.94-11.706C31.017,47.689,33.133,50.319,33.203,49.831z"/>
<path fill="#C5CDD4" d="M49.898,17.288c0,0-0.52,3.81-1.356,5.942c-0.429,0.998-0.552,4.546-0.552,4.546s-0.365-2.92-0.078-4.102
	c-4.582,2.275-8.853,0.615-10.613,0.939c2.149,0.708,3.504,2.29,3.504,2.29s-3.521-2.218-3.918-1.952
	c-1.008,0.676-2.674,2.679-2.769,3.173c-0.345,1.79,1.253,7.466,1.253,7.466s-2.205-4.916-1.75-7.849
	c-1.008-2.075-4.137-4.901-5.287-5.898c-0.269-0.233-2.117,4.786-2.117,4.786l1.442-5.161l-5.272-7.555c0,0,5.359,6.057,5.949,7.298
	c0.079,0.168,4.711,4.223,5.708,6.204c0.731-1.321,2.698-3.019,2.946-3.086c1.961-0.533,7.658,1.497,11.229-1.496
	C48.979,21.234,49.898,17.288,49.898,17.288z"/>
<path fill="#C5CDD4" d="M48.449,58.942c0,0,0.689-5.208-4.57-10.648c-1.978-1.589-5.46-6.358-5.46-6.358s1.669,3.441,5.032,6.617
	c0.787,4.706,0.406,7.83,0.406,7.83s0.91-3.421,0.02-7.407C48.114,53.634,48.449,58.942,48.449,58.942z"/>
<path fill="#C5CDD4" d="M6.601,31.259c0,0-2.774,2.41-3.438,3.713c4.875,2.745,8.601,5.902,10.287,6.84
	c0.188,0.236-1.131,0.499-0.938,0.728c1.996,2.348-1.036,3.599-0.145,7.095c-2.145-5.424,1.967-3.834-0.123-7.138
	c-0.092-0.146,0.763-0.513,0.669-0.657c-0.14-0.215-1.334-0.785-1.479-0.995c-0.189-0.275-5.621-3.258-9.205-5.672
	C3.955,32.778,6.601,31.259,6.601,31.259z"/>
<path fill="#C5CDD4" d="M14.701,49.125c0,0,5.889-7.703,8.401-9.989c1.109-2.06,2.41-9.251,2.41-9.251l-4.339-7.038l3.927,7.066
	c0,0-1.542,6.889-2.572,8.9C18.83,42.17,14.701,49.125,14.701,49.125z"/>
</svg>
