<?xml version="1.0" encoding="utf-8"?>
<!-- Generator: Adobe Illustrator 15.0.0, SVG Export Plug-In . SVG Version: 6.00 Build 0)  -->
<!DOCTYPE svg PUBLIC "-//W3C//DTD SVG 1.1//EN" "http://www.w3.org/Graphics/SVG/1.1/DTD/svg11.dtd" [
	<!ENTITY ns_flows "http://ns.adobe.com/Flows/1.0/">
	<!ENTITY ns_extend "http://ns.adobe.com/Extensibility/1.0/">
	<!ENTITY ns_ai "http://ns.adobe.com/AdobeIllustrator/10.0/">
	<!ENTITY ns_graphs "http://ns.adobe.com/Graphs/1.0/">
]>
<svg version="1.1" id="Layer_1" xmlns:x="&ns_extend;" xmlns:i="&ns_ai;" xmlns:graph="&ns_graphs;"
	 xmlns="http://www.w3.org/2000/svg" xmlns:xlink="http://www.w3.org/1999/xlink" xmlns:a="http://ns.adobe.com/AdobeSVGViewerExtensions/3.0/"
	 x="0px" y="0px" width="64px" height="64px" viewBox="0 0 64 64" enable-background="new 0 0 64 64" xml:space="preserve">
<path fill="#CFD8DD" d="M54.83,10.787l-4.079-3.844c-0.297-0.284,0.25-0.81,0.545-0.525l3.992,3.926L54.83,10.787z"/>
<path fill="#E6EBEF" d="M54.283,11.313L50.319,7.58c-0.295-0.285,0.252-0.811,0.547-0.525l3.877,3.814L54.283,11.313z"/>
<path fill="#CFD8DD" d="M53.741,11.835l-3.826-3.601c-0.296-0.283,0.25-0.809,0.545-0.525l3.74,3.684L53.741,11.835z"/>
<path fill="#E6EBEF" d="M53.194,12.359l-3.761-3.537c-0.296-0.284,0.25-0.811,0.546-0.525l3.676,3.621L53.194,12.359z"/>
<path fill="#E6EBEF" d="M55.836,9.818l-3.878-3.814c-0.296-0.285-0.842,0.24-0.547,0.525l3.965,3.731L55.836,9.818z"/>
<path fill="#CFD8DD" d="M56.378,9.295l-3.74-3.682c-0.295-0.283-0.84,0.241-0.545,0.524l3.826,3.601L56.378,9.295z"/>
<path fill="#E6EBEF" d="M56.925,8.77L53.249,5.15c-0.295-0.285-0.842,0.239-0.547,0.525l3.763,3.537L56.925,8.77z"/>
<path fill="#B3C2C6" d="M52.648,12.886l-3.655-3.438c-0.295-0.282,0.25-0.809,0.546-0.524l3.569,3.52L52.648,12.886z"/>
<path fill="#99A8AE" d="M52.104,13.411l-3.858-3.632c-0.296-0.283,0.25-0.809,0.545-0.525l3.773,3.715L52.104,13.411z"/>
<path fill="#B3C2C6" d="M51.557,13.937l-4.028-3.794c-0.295-0.285,0.251-0.812,0.545-0.526l3.943,3.877L51.557,13.937z"/>
<path fill="#99A8AE" d="M51.011,14.461l-4.175-3.936c-0.296-0.284,0.249-0.81,0.545-0.525l4.091,4.019L51.011,14.461z"/>
<path fill="#B3C2C6" d="M50.465,14.987l-4.217-3.977c-0.295-0.284,0.251-0.81,0.546-0.524l4.131,4.059L50.465,14.987z"/>
<path fill="#B3C2C6" d="M57.474,8.242l-3.57-3.519c-0.295-0.285-0.842,0.241-0.545,0.525l3.655,3.436L57.474,8.242z"/>
<path fill="#99A8AE" d="M58.019,7.717l-3.771-3.713c-0.295-0.285-0.842,0.24-0.546,0.525l3.858,3.63L58.019,7.717z"/>
<path fill="#B3C2C6" d="M58.565,7.191l-3.942-3.877C54.327,3.03,53.78,3.556,54.076,3.84l4.03,3.794L58.565,7.191z"/>
<path fill="#99A8AE" d="M59.111,6.665l-4.09-4.018c-0.296-0.284-0.841,0.241-0.546,0.525l4.176,3.936L59.111,6.665z"/>
<path fill="#B3C2C6" d="M59.657,6.141l-4.131-4.059c-0.297-0.285-0.842,0.241-0.546,0.524l4.217,3.977L59.657,6.141z"/>
<linearGradient id="SVGID_1_" gradientUnits="userSpaceOnUse" x1="-656.3853" y1="346.2754" x2="-656.3853" y2="336.6729" gradientTransform="matrix(0.7071 -0.7071 0.7071 0.7071 249.2132 -668.0635)">
	<stop  offset="0" style="stop-color:#1A8F80"/>
	<stop  offset="0.0971" style="stop-color:#23998A"/>
	<stop  offset="0.2983" style="stop-color:#30A698"/>
	<stop  offset="0.5491" style="stop-color:#38AEA0"/>
	<stop  offset="1" style="stop-color:#3AB0A2"/>
	<a:midPointStop  offset="0" style="stop-color:#1A8F80"/>
	<a:midPointStop  offset="0.1879" style="stop-color:#1A8F80"/>
	<a:midPointStop  offset="1" style="stop-color:#3AB0A2"/>
</linearGradient>
<path fill="url(#SVGID_1_)" d="M2.302,58.068c9.828-17.508,22.707-21.076,28.869-29.55c2.197-3.019,8.744-1.612,19.797-12.392
	c0.587-0.571,3.529,0.033,2.788,0.848c-8.607,9.461-16.642,13.592-23.538,19.24c-9.625,7.883-16.311,19.113-26.338,25.49
	C1.615,63.145,1.839,58.894,2.302,58.068z"/>
<radialGradient id="SVGID_2_" cx="243.2861" cy="-715.332" r="2.2246" gradientTransform="matrix(0.6514 0.7791 -2.0183 1.563 -1555.8677 949.2833)" gradientUnits="userSpaceOnUse">
	<stop  offset="0" style="stop-color:#FFFFFF;stop-opacity:0.36"/>
	<stop  offset="0.8" style="stop-color:#FFFFFF;stop-opacity:0"/>
	<a:midPointStop  offset="0" style="stop-color:#FFFFFF;stop-opacity:0.36"/>
	<a:midPointStop  offset="0.4242" style="stop-color:#FFFFFF;stop-opacity:0.36"/>
	<a:midPointStop  offset="0.8" style="stop-color:#FFFFFF;stop-opacity:0"/>
</radialGradient>
<path fill="url(#SVGID_2_)" d="M41.333,25.094c2.09-1.173,6.909-4.201,9.684-7.602c0.694-0.852,0.023-0.948-0.563-0.377
	c-3.754,3.66-7.061,5.843-9.781,7.344L41.333,25.094z"/>
<radialGradient id="SVGID_3_" cx="240.3438" cy="-683.8477" r="9.5979" gradientTransform="matrix(0.7347 0.7071 -1.7418 1.6763 -1346.6151 1017.317)" gradientUnits="userSpaceOnUse">
	<stop  offset="0" style="stop-color:#FFFFFF;stop-opacity:0.36"/>
	<stop  offset="0.9152" style="stop-color:#FFFFFF;stop-opacity:0"/>
	<a:midPointStop  offset="0" style="stop-color:#FFFFFF;stop-opacity:0.36"/>
	<a:midPointStop  offset="0.543" style="stop-color:#FFFFFF;stop-opacity:0.36"/>
	<a:midPointStop  offset="0.9152" style="stop-color:#FFFFFF;stop-opacity:0"/>
</radialGradient>
<path fill="url(#SVGID_3_)" d="M32.4,29.783c1.437-1.867,5.484-2.241,8.884-4.795l-0.523-0.503
	c-4.854,2.524-7.954,2.676-9.334,4.573c-6.163,8.473-18.901,11.969-28.729,29.478c-0.462,0.823,7.984-9.802,11.269-12.847
	C20.955,39.21,27.641,35.971,32.4,29.783z"/>
<linearGradient id="SVGID_4_" gradientUnits="userSpaceOnUse" x1="-617.145" y1="346.5684" x2="-617.145" y2="342.2705" gradientTransform="matrix(0.7071 -0.7071 0.7071 0.7071 249.2132 -668.0635)">
	<stop  offset="0" style="stop-color:#1A8F80"/>
	<stop  offset="0.0971" style="stop-color:#23998A"/>
	<stop  offset="0.2983" style="stop-color:#30A698"/>
	<stop  offset="0.5491" style="stop-color:#38AEA0"/>
	<stop  offset="1" style="stop-color:#3AB0A2"/>
	<a:midPointStop  offset="0" style="stop-color:#1A8F80"/>
	<a:midPointStop  offset="0.1879" style="stop-color:#1A8F80"/>
	<a:midPointStop  offset="1" style="stop-color:#3AB0A2"/>
</linearGradient>
<path fill="url(#SVGID_4_)" d="M53.584,17.373c-0.323,0.313-0.784,0.234-1.173,0c-0.798-0.479-1.58-1.012-2.055-1.411
	c-0.344-0.292-0.324-0.817,0-1.13c2.281-2.195,6.842-6.585,9.123-8.779c0.324-0.313,0.972-0.396,1.174,0
	c0.351,0.691,0.908,1.682,1.172,2.26c0.119,0.257,0.324,0.816,0,1.129C59.766,11.424,55.646,15.391,53.584,17.373z"/>
<radialGradient id="SVGID_5_" cx="-623.8315" cy="603.0391" r="6.5262" gradientTransform="matrix(0.7347 -0.7071 0.2528 0.2433 360.8996 -577.3468)" gradientUnits="userSpaceOnUse">
	<stop  offset="0" style="stop-color:#FFFFFF;stop-opacity:0.36"/>
	<stop  offset="0.8" style="stop-color:#FFFFFF;stop-opacity:0"/>
	<a:midPointStop  offset="0" style="stop-color:#FFFFFF;stop-opacity:0.36"/>
	<a:midPointStop  offset="0.4242" style="stop-color:#FFFFFF;stop-opacity:0.36"/>
	<a:midPointStop  offset="0.8" style="stop-color:#FFFFFF;stop-opacity:0"/>
</radialGradient>
<path fill="url(#SVGID_5_)" d="M51.098,15.522c-0.243-0.198-0.175-0.614,0.111-0.89c2.017-1.94,6.048-5.82,8.063-7.761
	c0.287-0.276,0.807-0.401,0.926-0.108C60.406,7.276,51.431,15.795,51.098,15.522z"/>
</svg>
