<?xml version="1.0" encoding="utf-8"?>
<!-- Generator: Adobe Illustrator 24.1.2, SVG Export Plug-In . SVG Version: 6.00 Build 0)  -->
<svg version="1.1" id="Layer_1" xmlns="http://www.w3.org/2000/svg" xmlns:xlink="http://www.w3.org/1999/xlink" x="0px" y="0px"
	 width="64px" height="64px" viewBox="0 0 64 64" style="enable-background:new 0 0 64 64;" xml:space="preserve">
<style type="text/css">
	.st0{fill:url(#SVGID_1_);}
	.st1{fill:url(#SVGID_2_);}
	.st2{fill:url(#SVGID_3_);}
	.st3{fill:url(#SVGID_4_);}
	.st4{fill:url(#SVGID_5_);}
	.st5{fill:url(#SVGID_6_);}
	.st6{fill:url(#SVGID_7_);}
	.st7{fill:url(#SVGID_8_);}
	.st8{fill:url(#SVGID_9_);}
	.st9{fill:url(#SVGID_10_);}
</style>
<linearGradient id="SVGID_1_" gradientUnits="userSpaceOnUse" x1="220.7103" y1="-984.2451" x2="226.7472" y2="-984.2451" gradientTransform="matrix(0.7127 0.7014 -0.7014 0.7127 -804.7076 563.482)">
	<stop  offset="0" style="stop-color:#FFC091"/>
	<stop  offset="0.6261" style="stop-color:#D09576"/>
	<stop  offset="1" style="stop-color:#B88068"/>
</linearGradient>
<path class="st0" d="M62.86,5.18c3.17-3.18-0.96-7.2-4.13-4.02L25.47,34.58c-0.68,0.68,3.46,4.7,4.13,4.02L62.86,5.18z"/>
<linearGradient id="SVGID_2_" gradientUnits="userSpaceOnUse" x1="217.4127" y1="-737.6871" x2="226.2191" y2="-737.6871" gradientTransform="matrix(0.7014 0.7127 0.7127 -0.7014 396.0728 -637.2979)">
	<stop  offset="0" style="stop-color:#FF4D00"/>
	<stop  offset="0.1862" style="stop-color:#F34900"/>
	<stop  offset="0.523" style="stop-color:#D34000"/>
	<stop  offset="0.9694" style="stop-color:#A03000"/>
	<stop  offset="1" style="stop-color:#9C2F00"/>
</linearGradient>
<path class="st1" d="M30.02,39.06c-0.48-1.81-2.57-4.1-4.9-4.92c-1.29-0.45-3.59,1.89-3.49,2.91c0.18,1.81,3.57,5.21,5.39,5.42
	C28.06,42.58,30.37,40.36,30.02,39.06z"/>
<linearGradient id="SVGID_3_" gradientUnits="userSpaceOnUse" x1="-137.4409" y1="201.2855" x2="-133.6662" y2="205.7284" gradientTransform="matrix(-8.000000e-03 1 1 8.000000e-03 -179.1626 170.8426)">
	<stop  offset="0" style="stop-color:#FFFFFF;stop-opacity:0.2"/>
	<stop  offset="0.903" style="stop-color:#FFFFFF;stop-opacity:0"/>
</linearGradient>
<path class="st2" d="M22.62,36.49c-0.71-0.27,1.13-2.17,1.85-1.92c2.94,1.03,4.35,4.48,3.7,5.24C27.31,40.81,25.6,37.61,22.62,36.49
	z"/>
<linearGradient id="SVGID_4_" gradientUnits="userSpaceOnUse" x1="207.4364" y1="-948.825" x2="239.5323" y2="-948.825" gradientTransform="matrix(0.7127 0.7014 -0.7014 0.7127 -804.7076 563.482)">
	<stop  offset="0" style="stop-color:#FF4D00"/>
	<stop  offset="0.1862" style="stop-color:#F34900"/>
	<stop  offset="0.523" style="stop-color:#D34000"/>
	<stop  offset="0.9694" style="stop-color:#A03000"/>
	<stop  offset="1" style="stop-color:#9C2F00"/>
</linearGradient>
<path class="st3" d="M25.8,38.32c-6.35-6.18-16.57-6.1-22.82,0.18l23.01,22.38C32.24,54.6,32.16,44.5,25.8,38.32z"/>
<linearGradient id="SVGID_5_" gradientUnits="userSpaceOnUse" x1="8.2822" y1="45.398" x2="11.4852" y2="51.5157" gradientTransform="matrix(1 -8.000000e-03 8.000000e-03 1 3.4329 -11.7535)">
	<stop  offset="0" style="stop-color:#FFFFFF;stop-opacity:0.2"/>
	<stop  offset="0.903" style="stop-color:#FFFFFF;stop-opacity:0"/>
</linearGradient>
<path class="st4" d="M6.56,37.39c8.07,9.6,10.83,9.46,11.57,6.68c1.23-4.65,4.28-6.98,2.56-8.22C16.32,32.69,5.2,35.77,6.56,37.39z"
	/>
<linearGradient id="SVGID_6_" gradientUnits="userSpaceOnUse" x1="296.8106" y1="-832.5646" x2="332.1884" y2="-832.5646" gradientTransform="matrix(0.7071 0.7071 -0.7071 0.7071 -796.9072 416.3062)">
	<stop  offset="0" style="stop-color:#FF4D00"/>
	<stop  offset="0.1651" style="stop-color:#DE4300"/>
	<stop  offset="0.3447" style="stop-color:#C13A00"/>
	<stop  offset="0.524" style="stop-color:#AC3400"/>
	<stop  offset="0.7009" style="stop-color:#A03000"/>
	<stop  offset="0.8727" style="stop-color:#9C2F00"/>
</linearGradient>
<path class="st5" d="M26.76,62.42c-2.7,2.67-8.58,1.2-17.48-7.59C0.39,46.03-1.1,40.22,1.6,37.55c2.71-2.67,8.58-1.2,17.48,7.59
	C27.98,53.93,29.47,59.74,26.76,62.42z"/>
<linearGradient id="SVGID_7_" gradientUnits="userSpaceOnUse" x1="296.806" y1="-831.7737" x2="332.1837" y2="-831.7737" gradientTransform="matrix(0.7071 0.7071 -0.7071 0.7071 -796.9072 416.3062)">
	<stop  offset="0" style="stop-color:#FF4D00"/>
	<stop  offset="0.1862" style="stop-color:#F34900"/>
	<stop  offset="0.523" style="stop-color:#D34000"/>
	<stop  offset="0.9694" style="stop-color:#A03000"/>
	<stop  offset="1" style="stop-color:#9C2F00"/>
</linearGradient>
<path class="st6" d="M26.2,62.97c-2.48,2.45-8.17,0.79-17.07-8C0.24,46.18-1.44,40.55,1.04,38.1c2.48-2.45,8.17-0.79,17.07,8
	C27,54.9,28.68,60.52,26.2,62.97z"/>
<linearGradient id="SVGID_8_" gradientUnits="userSpaceOnUse" x1="297.2895" y1="-831.5376" x2="331.3578" y2="-831.5376" gradientTransform="matrix(0.7071 0.7071 -0.7071 0.7071 -796.9072 416.3062)">
	<stop  offset="0" style="stop-color:#FFFFFF;stop-opacity:0.2"/>
	<stop  offset="0.903" style="stop-color:#FFFFFF;stop-opacity:0"/>
</linearGradient>
<path class="st7" d="M25.45,62.56C23.24,64.74,17.9,63,9.34,54.53C0.77,46.07-0.99,40.79,1.22,38.61c2.21-2.18,7.54-0.44,16.11,8.03
	C25.89,55.1,27.65,60.38,25.45,62.56z"/>
<linearGradient id="SVGID_9_" gradientUnits="userSpaceOnUse" x1="300.4067" y1="-831.1968" x2="328.5766" y2="-831.1968" gradientTransform="matrix(0.7071 0.7071 -0.7071 0.7071 -796.9072 416.3062)">
	<stop  offset="0" style="stop-color:#701A00"/>
	<stop  offset="5.095243e-03" style="stop-color:#701A00"/>
	<stop  offset="0.6451" style="stop-color:#902100"/>
	<stop  offset="1" style="stop-color:#9C2400"/>
</linearGradient>
<path class="st8" d="M23.23,60.85c-1.5,1.48-5.64-0.22-12.72-7.23c-7.08-7-8.8-11.1-7.31-12.58c1.5-1.48,5.64,0.22,12.73,7.22
	C23,55.27,24.72,59.37,23.23,60.85z"/>
<linearGradient id="SVGID_10_" gradientUnits="userSpaceOnUse" x1="301.409" y1="-832.5867" x2="327.5932" y2="-832.5867" gradientTransform="matrix(0.7071 0.7071 -0.7071 0.7071 -796.9072 416.3062)">
	<stop  offset="0" style="stop-color:#4F0E00"/>
	<stop  offset="0.303" style="stop-color:#5A1000"/>
	<stop  offset="0.8351" style="stop-color:#771600"/>
	<stop  offset="1" style="stop-color:#821800"/>
</linearGradient>
<path class="st9" d="M15.92,48.27c-5.13-5.07-8.71-7.35-10.87-7.67c-0.26,1.89,1.82,5.52,7.43,11.07c5.61,5.54,9.29,7.6,11.19,7.34
	C23.35,56.88,21.04,53.34,15.92,48.27z"/>
</svg>
