<?xml version="1.0" encoding="utf-8"?>
<!-- Generator: Adobe Illustrator 24.1.2, SVG Export Plug-In . SVG Version: 6.00 Build 0)  -->
<svg version="1.1" id="Layer_1" xmlns="http://www.w3.org/2000/svg" xmlns:xlink="http://www.w3.org/1999/xlink" x="0px" y="0px"
	 width="64px" height="64px" viewBox="0 0 64 64" style="enable-background:new 0 0 64 64;" xml:space="preserve">
<style type="text/css">
	.st0{fill:url(#SVGID_1_);}
	.st1{fill:#778991;}
	.st2{fill:url(#SVGID_2_);}
	.st3{fill:url(#SVGID_3_);}
	.st4{fill:#6D7D85;}
	.st5{fill:#339900;}
	.st6{fill:#88DE00;}
	.st7{fill:#86C400;}
	.st8{fill:url(#SVGID_4_);}
	.st9{fill:url(#SVGID_5_);}
	.st10{fill:url(#SVGID_6_);}
	.st11{fill:url(#SVGID_7_);}
	.st12{fill:url(#SVGID_8_);}
	.st13{fill:#FFF778;}
	.st14{fill:url(#SVGID_9_);}
	.st15{fill:url(#SVGID_10_);}
	.st16{fill:url(#SVGID_11_);}
	.st17{fill:url(#SVGID_12_);}
	.st18{fill:url(#SVGID_13_);}
	.st19{fill:url(#SVGID_14_);}
	.st20{fill:url(#SVGID_15_);}
	.st21{fill:url(#SVGID_16_);}
	.st22{fill:url(#SVGID_17_);}
	.st23{fill:url(#SVGID_18_);}
	.st24{fill:url(#SVGID_19_);}
	.st25{fill:url(#SVGID_20_);}
	.st26{fill:url(#SVGID_21_);}
	.st27{fill:url(#SVGID_22_);}
	.st28{fill:url(#SVGID_23_);}
	.st29{fill:#555F69;}
</style>
<linearGradient id="SVGID_1_" gradientUnits="userSpaceOnUse" x1="32" y1="52.791" x2="32" y2="4.2086">
	<stop  offset="0" style="stop-color:#8D9CA3"/>
	<stop  offset="0.2809" style="stop-color:#9CABB1"/>
	<stop  offset="0.6747" style="stop-color:#ABB9BF"/>
	<stop  offset="1" style="stop-color:#B0BEC4"/>
</linearGradient>
<path class="st0" d="M51.25,50.19V22.64c0-24.58-38.5-24.58-38.5,0v27.55H51.25z"/>
<path class="st1" d="M21,31.5v15h22v-15H21z M42.5,46h-21V32h21V46z"/>
<linearGradient id="SVGID_2_" gradientUnits="userSpaceOnUse" x1="32" y1="53" x2="32" y2="2">
	<stop  offset="0" style="stop-color:#64737A"/>
	<stop  offset="0.8176" style="stop-color:#A2B0B6"/>
	<stop  offset="1" style="stop-color:#B0BEC4"/>
</linearGradient>
<path class="st2" d="M15,50.19V22.11C15,10.98,23.54,6,32,6c8.46,0,17,4.98,17,16.11v28.08h4V22.11C53,8.7,42.5,2,32,2
	S11,8.7,11,22.11v28.08H15z"/>
<path class="st1" d="M16.25,50.19V22.11c0-10.26,7.91-14.86,15.75-14.86s15.75,4.59,15.75,14.86v28.08h0.5V22.11
	C48.25,11.5,40.09,6.75,32,6.75c-8.09,0-16.25,4.75-16.25,15.36v28.08H16.25z"/>
<linearGradient id="SVGID_3_" gradientUnits="userSpaceOnUse" x1="32" y1="58" x2="32" y2="50">
	<stop  offset="0" style="stop-color:#64737A"/>
	<stop  offset="0.2167" style="stop-color:#6A7980"/>
	<stop  offset="0.5138" style="stop-color:#7C8A91"/>
	<stop  offset="0.856" style="stop-color:#99A6AC"/>
	<stop  offset="1" style="stop-color:#A7B4BA"/>
</linearGradient>
<path class="st3" d="M56.03,50H7.97C7.43,50,7,50.5,7,51.12V58h50v-6.88C57,50.5,56.57,50,56.03,50z"/>
<path class="st4" d="M57.99,57H6.01C5.45,57,5,57.36,5,57.79V62h54v-4.21C59,57.36,58.55,57,57.99,57z"/>
<path class="st5" d="M9.07,50.91c0,0-2.21,3.52,0.1,11.09C9.68,62,8.16,56.32,9.07,50.91z"/>
<path class="st5" d="M55.27,49.93c0,0,1.33,5.34,1.73,12.07C57.52,62,57.27,53.45,55.27,49.93z"/>
<path class="st6" d="M47.44,62c0.7-1.09,1.11-5.08-0.09-8.8c0.08,3.27-2.01,7.61-1.5,8.8H47.44z"/>
<path class="st6" d="M35,62c0.76-1.09,1.04-5.62-0.26-9.34c0.08,3.27-2.01,8.15-1.47,9.34H35z"/>
<path class="st7" d="M28.91,62c0.54-1.19-1.55-4.45-1.47-7.72c-1.3,3.72-1.01,6.62-0.25,7.72H28.91z"/>
<path class="st7" d="M42.61,62c0.54-1.19-2.15-3.83-2.06-7.1c-1.3,3.72-0.41,6.01,0.34,7.1H42.61z"/>
<path class="st7" d="M46.17,62c0.51-1.19-1.44-4.45-1.36-7.72c-1.2,3.72-0.93,6.62-0.23,7.72H46.17z"/>
<path class="st6" d="M43.62,62c0.89-1.23,1.26-4.77-0.22-9.34c0.09,4-2.34,8-1.59,9.34H43.62z"/>
<path class="st6" d="M59.22,62c0.88-1.23,1.25-4.77-0.22-9.34c0.09,4-2.35,8-1.59,9.34H59.22z"/>
<path class="st6" d="M51.82,62c1.06-1.36,1.52-5.5-0.21-10.86c0.11,4.7-2.8,9.39-1.77,10.86H51.82z"/>
<path class="st7" d="M35.9,62c-0.76-1.09-1.05-3.99,0.25-7.72c-0.08,3.27,2.01,6.53,1.47,7.72H35.9z"/>
<path class="st7" d="M32.82,62c0.76-1.09,1-2.9-0.3-6.62c0.08,3.27-1.97,5.43-1.42,6.62H32.82z"/>
<path class="st7" d="M55.79,62c-0.7-1.09,0.47-3.18,1.67-6.91c-0.08,3.27,0.43,5.72-0.07,6.91H55.79z"/>
<path class="st6" d="M54.56,62c-0.7-1.09-0.81-5.82,0.39-9.54c-0.08,3.27,1.71,8.35,1.2,9.54H54.56z"/>
<path class="st7" d="M52.06,62c-0.5-1.19,1.44-4.45,1.36-7.72c1.2,3.72,0.93,6.62,0.23,7.72H52.06z"/>
<path class="st7" d="M47.59,62c-0.5-1.19,1.44-4.45,1.36-7.72c1.2,3.72,0.93,6.62,0.23,7.72H47.59z"/>
<path class="st6" d="M29.11,62c-0.95-1.23-0.15-3.83,1.44-8.4c-0.1,4,1.33,7.05,0.52,8.4H29.11z"/>
<path class="st6" d="M37.92,62c-1.14-1.36-1.65-5.5,0.22-10.86c-0.12,4.7,3.02,9.39,1.92,10.86H37.92z"/>
<path class="st6" d="M14.54,62c0.7-1.09,1.11-5.08-0.09-8.8c0.08,3.27-2.01,7.61-1.5,8.8H14.54z"/>
<path class="st7" d="M9.7,62c0.54-1.19-2.15-3.83-2.06-7.1c-1.3,3.72-0.41,6.01,0.34,7.1H9.7z"/>
<path class="st7" d="M13.27,62c0.51-1.19-1.44-4.45-1.36-7.72c-1.2,3.72-0.93,6.62-0.23,7.72H13.27z"/>
<path class="st6" d="M10.72,62c0.89-1.23,1.26-4.77-0.22-9.34c0.09,4-2.34,8-1.59,9.34H10.72z"/>
<path class="st6" d="M26.32,62c0.88-1.23,1.25-4.77-0.22-9.34c0.09,4-2.35,8-1.59,9.34H26.32z"/>
<path class="st6" d="M18.91,62c1.06-1.36,1.52-5.5-0.21-10.86c0.11,4.7-2.8,9.39-1.77,10.86H18.91z"/>
<path class="st7" d="M22.89,62c-0.7-1.09,0.47-3.18,1.67-6.91C24.48,58.36,25,60.81,24.49,62H22.89z"/>
<path class="st6" d="M21.66,62c-0.7-1.09-0.81-5.82,0.39-9.54c-0.08,3.27,1.71,8.35,1.2,9.54H21.66z"/>
<path class="st7" d="M19.16,62c-0.5-1.19,1.44-4.45,1.36-7.72c1.2,3.72,0.93,6.62,0.23,7.72H19.16z"/>
<path class="st7" d="M14.68,62c-0.5-1.19,1.44-4.45,1.36-7.72c1.2,3.72,0.93,6.62,0.23,7.72H14.68z"/>
<path class="st6" d="M5.02,62c-1.14-1.36-1.65-5.5,0.22-10.86C5.12,55.84,8.26,60.53,7.16,62H5.02z"/>
<linearGradient id="SVGID_4_" gradientUnits="userSpaceOnUse" x1="54.4296" y1="48.967" x2="52.4253" y2="52.2944" gradientTransform="matrix(-0.9605 0.2782 0.2782 0.9605 93.7164 -13.5061)">
	<stop  offset="0" style="stop-color:#F25252"/>
	<stop  offset="0.1891" style="stop-color:#F35C5C"/>
	<stop  offset="0.5166" style="stop-color:#F87979"/>
	<stop  offset="0.9405" style="stop-color:#FEA6A6"/>
	<stop  offset="1" style="stop-color:#FFADAD"/>
</linearGradient>
<path class="st8" d="M55.01,48.71c1.76-0.43,5.04,1.34,2.88,2.71C56.71,53.28,54.95,50.57,55.01,48.71z"/>
<linearGradient id="SVGID_5_" gradientUnits="userSpaceOnUse" x1="54.5036" y1="48.8124" x2="50.6784" y2="48.7469" gradientTransform="matrix(-0.9605 0.2782 0.2782 0.9605 93.7164 -13.5061)">
	<stop  offset="0" style="stop-color:#F25252"/>
	<stop  offset="0.2505" style="stop-color:#F67171"/>
	<stop  offset="0.5623" style="stop-color:#FB9292"/>
	<stop  offset="0.8235" style="stop-color:#FEA6A6"/>
	<stop  offset="1" style="stop-color:#FFADAD"/>
</linearGradient>
<path class="st9" d="M54.99,48.72c0.84-2.46,3.71-3.95,3.71-1.09C59.54,49.7,56.44,49.79,54.99,48.72z"/>
<linearGradient id="SVGID_6_" gradientUnits="userSpaceOnUse" x1="54.5716" y1="48.968" x2="54.5978" y2="44.9987" gradientTransform="matrix(-0.9605 0.2782 0.2782 0.9605 93.7164 -13.5061)">
	<stop  offset="0" style="stop-color:#F25252"/>
	<stop  offset="0.4914" style="stop-color:#F87D7D"/>
	<stop  offset="1" style="stop-color:#FFADAD"/>
</linearGradient>
<path class="st10" d="M55.02,48.71c1.12-1.5,1.18-4.86-1.08-3.92C50.77,45.39,53.4,47.97,55.02,48.71z"/>
<linearGradient id="SVGID_7_" gradientUnits="userSpaceOnUse" x1="54.4311" y1="48.9346" x2="58.2563" y2="48.201" gradientTransform="matrix(-0.9605 0.2782 0.2782 0.9605 93.7164 -13.5061)">
	<stop  offset="0" style="stop-color:#F25252"/>
	<stop  offset="0.1775" style="stop-color:#F35A5A"/>
	<stop  offset="0.4512" style="stop-color:#F66F6F"/>
	<stop  offset="0.7853" style="stop-color:#FB9393"/>
	<stop  offset="1" style="stop-color:#FFADAD"/>
</linearGradient>
<path class="st11" d="M55.01,48.71c-1.16-1.46-5.12-1.94-3.84,0.33C51.05,51.29,54,50.24,55.01,48.71z"/>
<linearGradient id="SVGID_8_" gradientUnits="userSpaceOnUse" x1="54.5009" y1="48.9839" x2="56.7672" y2="52.3506" gradientTransform="matrix(-0.9605 0.2782 0.2782 0.9605 93.7164 -13.5061)">
	<stop  offset="0" style="stop-color:#F25252"/>
	<stop  offset="0.2671" style="stop-color:#F77474"/>
	<stop  offset="0.5683" style="stop-color:#FB9393"/>
	<stop  offset="0.8234" style="stop-color:#FEA6A6"/>
	<stop  offset="1" style="stop-color:#FFADAD"/>
</linearGradient>
<path class="st12" d="M55,48.7c-1.73,0.54-3.96,3.93-1.25,3.86C56.11,53.53,56.06,50.39,55,48.7z"/>
<path class="st13" d="M54.01,48.94c0.16,0.56,0.75,0.88,1.31,0.72c0.56-0.16,0.88-0.75,0.72-1.31c-0.16-0.56-0.75-0.88-1.31-0.72
	C54.17,47.79,53.84,48.37,54.01,48.94z"/>
<linearGradient id="SVGID_9_" gradientUnits="userSpaceOnUse" x1="89.3372" y1="56.6475" x2="87.7895" y2="59.2169" gradientTransform="matrix(0.9926 -0.1216 0.1216 0.9926 -71.2843 9.0066)">
	<stop  offset="0" style="stop-color:#AB57FF"/>
	<stop  offset="0.1288" style="stop-color:#AE61FF"/>
	<stop  offset="0.3517" style="stop-color:#B47EFF"/>
	<stop  offset="0.6421" style="stop-color:#BFABFF"/>
	<stop  offset="0.9856" style="stop-color:#CEEAFF"/>
	<stop  offset="1" style="stop-color:#CFEDFF"/>
</linearGradient>
<path class="st14" d="M24.33,54.38c-1.38,0.23-3.17,2.48-1.23,2.8C24.51,58.15,24.94,55.69,24.33,54.38z"/>
<linearGradient id="SVGID_10_" gradientUnits="userSpaceOnUse" x1="89.3943" y1="56.5283" x2="86.4406" y2="56.4777" gradientTransform="matrix(0.9926 -0.1216 0.1216 0.9926 -71.2843 9.0066)">
	<stop  offset="0" style="stop-color:#AB57FF"/>
	<stop  offset="0.2162" style="stop-color:#B684FF"/>
	<stop  offset="0.4659" style="stop-color:#C1B1FF"/>
	<stop  offset="0.6889" style="stop-color:#C8D2FF"/>
	<stop  offset="0.8745" style="stop-color:#CDE6FF"/>
	<stop  offset="1" style="stop-color:#CFEDFF"/>
</linearGradient>
<path class="st15" d="M24.34,54.39c-1.34-1.49-3.83-1.68-2.97,0.35C21.41,56.46,23.64,55.59,24.34,54.39z"/>
<linearGradient id="SVGID_11_" gradientUnits="userSpaceOnUse" x1="89.4469" y1="56.6483" x2="89.4671" y2="53.5834" gradientTransform="matrix(0.9926 -0.1216 0.1216 0.9926 -71.2843 9.0066)">
	<stop  offset="0" style="stop-color:#AB57FF"/>
	<stop  offset="0.308" style="stop-color:#B582FF"/>
	<stop  offset="1" style="stop-color:#CFEDFF"/>
</linearGradient>
<path class="st16" d="M24.32,54.39c-1.25-0.73-2.31-3.1-0.42-3.11C26.33,50.74,25.25,53.37,24.32,54.39z"/>
<linearGradient id="SVGID_12_" gradientUnits="userSpaceOnUse" x1="89.3384" y1="56.6225" x2="92.292" y2="56.0561" gradientTransform="matrix(0.9926 -0.1216 0.1216 0.9926 -71.2843 9.0066)">
	<stop  offset="0" style="stop-color:#AB57FF"/>
	<stop  offset="0.1248" style="stop-color:#AD5FFF"/>
	<stop  offset="0.3172" style="stop-color:#B275FF"/>
	<stop  offset="0.5534" style="stop-color:#BB98FF"/>
	<stop  offset="0.8217" style="stop-color:#C6C9FF"/>
	<stop  offset="1" style="stop-color:#CFEDFF"/>
</linearGradient>
<path class="st17" d="M24.33,54.39c0.38-1.39,3.05-2.93,2.83-0.93C27.92,55.01,25.51,55.17,24.33,54.39z"/>
<linearGradient id="SVGID_13_" gradientUnits="userSpaceOnUse" x1="89.3923" y1="56.6606" x2="91.1422" y2="59.2603" gradientTransform="matrix(0.9926 -0.1216 0.1216 0.9926 -71.2843 9.0066)">
	<stop  offset="0" style="stop-color:#AB57FF"/>
	<stop  offset="0.2339" style="stop-color:#B788FF"/>
	<stop  offset="0.4746" style="stop-color:#C1B3FF"/>
	<stop  offset="0.6913" style="stop-color:#C9D3FF"/>
	<stop  offset="0.8737" style="stop-color:#CDE6FF"/>
	<stop  offset="1" style="stop-color:#CFEDFF"/>
</linearGradient>
<path class="st18" d="M24.33,54.38c1.39-0.14,4.01,1.59,2.06,2.36C25.01,58.14,24.09,55.9,24.33,54.38z"/>
<path class="st13" d="M25.11,54.24c0.05,0.45-0.26,0.85-0.71,0.91c-0.45,0.05-0.85-0.26-0.91-0.71s0.26-0.85,0.71-0.91
	C24.65,53.48,25.05,53.79,25.11,54.24z"/>
<linearGradient id="SVGID_14_" gradientUnits="userSpaceOnUse" x1="150.2285" y1="63.2688" x2="148.6808" y2="65.8382" gradientTransform="matrix(0.979 -0.2037 0.2037 0.979 -117.2227 25.1705)">
	<stop  offset="0" style="stop-color:#FFBC70"/>
	<stop  offset="0.183" style="stop-color:#FFC37A"/>
	<stop  offset="0.4997" style="stop-color:#FFD597"/>
	<stop  offset="0.9098" style="stop-color:#FFF3C4"/>
	<stop  offset="1" style="stop-color:#FFFACF"/>
</linearGradient>
<path class="st19" d="M42.79,56.52c-1.36,0.34-2.96,2.74-0.99,2.89C43.28,60.25,43.5,57.77,42.79,56.52z"/>
<linearGradient id="SVGID_15_" gradientUnits="userSpaceOnUse" x1="150.2858" y1="63.1494" x2="147.3319" y2="63.0988" gradientTransform="matrix(0.979 -0.2037 0.2037 0.979 -117.2227 25.1705)">
	<stop  offset="0" style="stop-color:#FFBC70"/>
	<stop  offset="0.2721" style="stop-color:#FFD393"/>
	<stop  offset="0.575" style="stop-color:#FFE8B4"/>
	<stop  offset="0.8286" style="stop-color:#FFF5C8"/>
	<stop  offset="1" style="stop-color:#FFFACF"/>
</linearGradient>
<path class="st20" d="M42.8,56.52c-1.46-1.37-3.96-1.36-2.93,0.6C40.05,58.83,42.2,57.77,42.8,56.52z"/>
<linearGradient id="SVGID_16_" gradientUnits="userSpaceOnUse" x1="150.3385" y1="63.2697" x2="150.3588" y2="60.2045" gradientTransform="matrix(0.979 -0.2037 0.2037 0.979 -117.2227 25.1705)">
	<stop  offset="0" style="stop-color:#FFBC70"/>
	<stop  offset="0.472" style="stop-color:#FFD89B"/>
	<stop  offset="1" style="stop-color:#FFFACF"/>
</linearGradient>
<path class="st21" d="M42.78,56.53c-1.31-0.62-2.56-2.89-0.68-3.06C44.48,52.72,43.62,55.43,42.78,56.53z"/>
<linearGradient id="SVGID_17_" gradientUnits="userSpaceOnUse" x1="150.2299" y1="63.2441" x2="153.1838" y2="62.6776" gradientTransform="matrix(0.979 -0.2037 0.2037 0.979 -117.2227 25.1705)">
	<stop  offset="0" style="stop-color:#FFBC70"/>
	<stop  offset="0.1722" style="stop-color:#FFC178"/>
	<stop  offset="0.4378" style="stop-color:#FFCF8E"/>
	<stop  offset="0.7617" style="stop-color:#FFE6B1"/>
	<stop  offset="1" style="stop-color:#FFFACF"/>
</linearGradient>
<path class="st22" d="M42.79,56.52c0.26-1.42,2.79-3.17,2.74-1.16C46.42,56.85,44.03,57.2,42.79,56.52z"/>
<linearGradient id="SVGID_18_" gradientUnits="userSpaceOnUse" x1="150.2835" y1="63.2821" x2="152.0336" y2="65.8819" gradientTransform="matrix(0.979 -0.2037 0.2037 0.979 -117.2227 25.1705)">
	<stop  offset="0" style="stop-color:#FFBC70"/>
	<stop  offset="0.2879" style="stop-color:#FFD596"/>
	<stop  offset="0.5805" style="stop-color:#FFE9B5"/>
	<stop  offset="0.8284" style="stop-color:#FFF6C8"/>
	<stop  offset="1" style="stop-color:#FFFACF"/>
</linearGradient>
<path class="st23" d="M42.79,56.51c1.38-0.26,4.13,1.25,2.25,2.18C43.78,60.2,42.68,58.04,42.79,56.51z"/>
<path class="st13" d="M43.55,56.31c0.09,0.44-0.19,0.87-0.63,0.96c-0.44,0.09-0.87-0.19-0.96-0.63c-0.09-0.44,0.19-0.87,0.63-0.96
	C43.03,55.59,43.46,55.87,43.55,56.31z"/>
<linearGradient id="SVGID_19_" gradientUnits="userSpaceOnUse" x1="-105.039" y1="86.845" x2="-107.0432" y2="90.1722" gradientTransform="matrix(0.9731 0.2304 -0.2304 0.9731 131.2192 -9.636)">
	<stop  offset="0" style="stop-color:#FF70A6"/>
	<stop  offset="0.183" style="stop-color:#FF7AAC"/>
	<stop  offset="0.4997" style="stop-color:#FF97BE"/>
	<stop  offset="0.9098" style="stop-color:#FFC4D9"/>
	<stop  offset="1" style="stop-color:#FFCFE0"/>
</linearGradient>
<path class="st24" d="M9.05,50.71c-1.78-0.34-4.97,1.59-2.75,2.85C7.58,55.36,9.2,52.57,9.05,50.71z"/>
<linearGradient id="SVGID_20_" gradientUnits="userSpaceOnUse" x1="-104.9648" y1="86.6904" x2="-108.7899" y2="86.6249" gradientTransform="matrix(0.9731 0.2304 -0.2304 0.9731 131.2192 -9.636)">
	<stop  offset="0" style="stop-color:#FF70A6"/>
	<stop  offset="0.2721" style="stop-color:#FF93BC"/>
	<stop  offset="0.575" style="stop-color:#FFB4CF"/>
	<stop  offset="0.8286" style="stop-color:#FFC8DC"/>
	<stop  offset="1" style="stop-color:#FFCFE0"/>
</linearGradient>
<path class="st25" d="M9.07,50.72c-0.96-2.41-3.9-3.77-3.76-0.9C4.57,51.92,7.67,51.86,9.07,50.72z"/>
<linearGradient id="SVGID_21_" gradientUnits="userSpaceOnUse" x1="-104.8967" y1="86.8461" x2="-104.8705" y2="82.8769" gradientTransform="matrix(0.9731 0.2304 -0.2304 0.9731 131.2192 -9.636)">
	<stop  offset="0" style="stop-color:#FF70A6"/>
	<stop  offset="0.472" style="stop-color:#FF9BC0"/>
	<stop  offset="1" style="stop-color:#FFCFE0"/>
</linearGradient>
<path class="st26" d="M9.04,50.71c-1.19-1.44-1.41-4.8,0.89-3.96C13.12,47.19,10.62,49.9,9.04,50.71z"/>
<linearGradient id="SVGID_22_" gradientUnits="userSpaceOnUse" x1="-105.0373" y1="86.8128" x2="-101.2122" y2="86.0793" gradientTransform="matrix(0.9731 0.2304 -0.2304 0.9731 131.2192 -9.636)">
	<stop  offset="0" style="stop-color:#FF70A6"/>
	<stop  offset="0.1722" style="stop-color:#FF78AB"/>
	<stop  offset="0.4378" style="stop-color:#FF8EB8"/>
	<stop  offset="0.7617" style="stop-color:#FFB1CD"/>
	<stop  offset="1" style="stop-color:#FFCFE0"/>
</linearGradient>
<path class="st27" d="M9.05,50.71c1.09-1.52,5.02-2.19,3.85,0.14C13.13,53.09,10.14,52.19,9.05,50.71z"/>
<linearGradient id="SVGID_23_" gradientUnits="userSpaceOnUse" x1="-104.9677" y1="86.8621" x2="-102.7015" y2="90.2287" gradientTransform="matrix(0.9731 0.2304 -0.2304 0.9731 131.2192 -9.636)">
	<stop  offset="0" style="stop-color:#FF70A6"/>
	<stop  offset="0.2879" style="stop-color:#FF96BD"/>
	<stop  offset="0.5805" style="stop-color:#FFB5D0"/>
	<stop  offset="0.8284" style="stop-color:#FFC8DC"/>
	<stop  offset="1" style="stop-color:#FFCFE0"/>
</linearGradient>
<path class="st28" d="M9.06,50.7c1.76,0.46,4.15,3.73,1.44,3.79C8.19,55.58,8.09,52.44,9.06,50.7z"/>
<path class="st13" d="M10.06,50.89c-0.13,0.57-0.7,0.92-1.27,0.78c-0.57-0.13-0.92-0.7-0.78-1.27c0.13-0.57,0.7-0.92,1.27-0.78
	C9.85,49.75,10.2,50.32,10.06,50.89z"/>
<path class="st29" d="M36.96,24.3c0,0-0.26-0.06-0.66-0.18c0.16-0.05,0.64-0.06,0.64-0.06l-0.14-0.3c0,0-0.33-0.07-0.83-0.2
	c0.08-0.04,0.54-0.05,0.54-0.05l-0.14-0.3c0,0-2.38-0.08-3.88-1.73c1.88,0.7,3.66-0.86,3.66-0.86l-0.15-0.27l0.74-1.07l-0.15-0.26
	l0.47-1.04l-0.19-0.3l0.17-1.03l-0.18-0.29l-0.04-1.05l-0.27-0.24c0,0-0.06-0.54-0.44-1.1c0,0-0.04,0.14-0.31,0.56
	c0,0-0.17-0.82-0.77-1.33c0,0-0.1,0.47-0.54,1.27c0,0-0.16-0.64-0.69-0.99c0,0-0.23,1.78-1.98,3.66c-1.28,1.1-2.04,2.13-2.3,2.77
	c-0.54-0.13-0.92-0.19-0.99-0.33c-0.63-1.39-2.09-0.91-1.96,0.03c-0.16,0.12-0.46,0.38-0.46,0.57l0.14,0.3l1.67-0.62
	c0,0,7.56,6.57,7.9,6.16l-0.11-0.26c0,0,0.64,0.02,0.8-0.16l-0.18-0.28c0,0,0.35,0.01,0.5-0.15l-0.13-0.29l0.42-0.27L36.96,24.3z"/>
<path class="st1" d="M37.1,24.61c0,0-0.26-0.06-0.66-0.18c0.22-0.08,0.39-0.2,0.49-0.36c0,0-0.33-0.07-0.83-0.2
	c0.17-0.08,0.31-0.2,0.39-0.35c0,0-2.38-0.08-3.88-1.73c1.88,0.7,3.38-0.4,3.52-1.17c0,0-0.18,0.08-0.51,0.18
	c0.6-0.4,1.01-0.96,1.1-1.51c0,0-0.2,0.12-0.55,0.29c0.51-0.49,0.82-1.09,0.88-1.59c0,0-0.16,0.12-0.45,0.3
	c0.42-0.54,0.6-1.15,0.43-1.62c0,0-0.09,0.1-0.25,0.26c0.23-0.51,0.25-1.07,0.03-1.6c0,0-0.09,0.14-0.28,0.38
	c0.07-0.49-0.01-0.99-0.3-1.42c0,0-0.12,0.26-0.4,0.68c-0.02-0.54-0.24-1.05-0.69-1.45c0,0-0.14,0.53-0.57,1.34
	c-0.07-0.41-0.28-0.78-0.66-1.05c0,0-0.23,1.78-1.98,3.66c-1.28,1.1-2.04,2.12-2.3,2.77c-0.54-0.13-0.92-0.19-0.99-0.33
	c-0.63-1.39-2.09-0.91-1.96,0.03c-0.16,0.12-0.46,0.38-0.46,0.57c0.02-0.01,0.04-0.02,0.06-0.02c0.24-0.07,0.46-0.03,0.62-0.02
	c0.13,0.19,0.33,0.38,0.6,0.57c0.66,0.46,0.29,3.44,4.1,3.92c0.49,0.06,0.88,0.08,1.2,0.06c1.02,1.21,2.65,1.44,2.99,1.02
	c0,0-0.18-0.07-0.46-0.19c0.54,0.05,0.99-0.05,1.15-0.24c0,0-0.16-0.06-0.41-0.17c0.32-0.01,0.58-0.1,0.72-0.26
	c0,0-0.12-0.04-0.33-0.12C36.76,24.96,36.98,24.81,37.1,24.61z"/>
<rect x="26" y="35.5" class="st1" width="12" height="1"/>
<rect x="24" y="38.5" class="st1" width="6" height="1"/>
<rect x="24" y="41.5" class="st1" width="4" height="1"/>
<rect x="30" y="41.5" class="st1" width="10" height="1"/>
<rect x="32" y="38.5" class="st1" width="8" height="1"/>
</svg>
