<?xml version="1.0" encoding="utf-8"?>
<!-- Generator: Adobe Illustrator 15.0.0, SVG Export Plug-In . SVG Version: 6.00 Build 0)  -->
<!DOCTYPE svg PUBLIC "-//W3C//DTD SVG 1.1//EN" "http://www.w3.org/Graphics/SVG/1.1/DTD/svg11.dtd" [
	<!ENTITY ns_flows "http://ns.adobe.com/Flows/1.0/">
	<!ENTITY ns_extend "http://ns.adobe.com/Extensibility/1.0/">
	<!ENTITY ns_ai "http://ns.adobe.com/AdobeIllustrator/10.0/">
	<!ENTITY ns_graphs "http://ns.adobe.com/Graphs/1.0/">
]>
<svg version="1.1" id="Layer_1" xmlns:x="&ns_extend;" xmlns:i="&ns_ai;" xmlns:graph="&ns_graphs;"
	 xmlns="http://www.w3.org/2000/svg" xmlns:xlink="http://www.w3.org/1999/xlink" xmlns:a="http://ns.adobe.com/AdobeSVGViewerExtensions/3.0/"
	 x="0px" y="0px" width="64px" height="64px" viewBox="0 0 64 64" enable-background="new 0 0 64 64" xml:space="preserve">
<path fill="#7E4524" d="M50.971,37.146c0.519,0.059,0.185,1.115,5.822,3.532c0.554,0.235,0.618-0.643,0.312-0.823
	C53.446,37.732,51.114,36.708,50.971,37.146z"/>
<path fill="#7E4524" d="M57.099,40.288c0.038,0.347,1.568,1.317,4.434,2.826c0.451,0.241,0.435-0.681,0.164-0.823
	C58.383,40.537,57.06,39.927,57.099,40.288z"/>
<path fill="#7E4524" d="M63.996,43.094c-0.075-0.201-0.873-0.365-2.211-0.691c-0.249-0.059-0.187,0.49-0.039,0.523
	C63.085,43.232,64.075,43.304,63.996,43.094z"/>
<path fill="#7E4524" d="M51.929,36.919c0.125,0.026,0.126,1.4-0.059,1.444c-1.568,0.387-3.555,2.559-4.573,2.338
	c-0.621-0.133-1.21-1.938-0.973-1.99C48.354,38.265,50.193,36.545,51.929,36.919z"/>
<path fill="#7E4524" d="M37.105,50.989c0.059,0.519,1.117,0.187,3.536,5.815c0.237,0.553-0.643,0.617-0.823,0.311
	C37.693,53.463,36.667,51.134,37.105,50.989z"/>
<path fill="#7E4524" d="M40.253,57.109c0.348,0.037,1.318,1.564,2.83,4.428c0.241,0.449-0.682,0.434-0.824,0.163
	C40.502,58.391,39.892,57.07,40.253,57.109z"/>
<path fill="#7E4524" d="M43.063,63.996c-0.202-0.074-0.366-0.872-0.693-2.207c-0.059-0.248,0.489-0.186,0.525-0.039
	C43.201,63.087,43.274,64.074,43.063,63.996z"/>
<path fill="#7E4524" d="M36.879,51.947c0.027,0.124,1.403,0.125,1.446-0.059c0.388-1.565,2.562-3.549,2.342-4.568
	c-0.135-0.618-1.94-1.207-1.993-0.969C38.227,48.378,36.504,50.215,36.879,51.947z"/>
<path fill="#7E4524" d="M30.23,45.146c-0.272,0.419,0.664,0.813-1.055,6.451c-0.169,0.552-0.821,0.068-0.761-0.27
	C29.144,47.332,29.837,44.986,30.23,45.146z"/>
<path fill="#7E4524" d="M28.722,51.586c0.216,0.238-0.034,1.961-0.707,4.996c-0.104,0.482-0.741-0.089-0.674-0.376
	C28.119,52.689,28.493,51.34,28.722,51.586z"/>
<path fill="#7E4524" d="M26.515,58.396c-0.098-0.179,0.271-0.867,0.85-2.056c0.108-0.219,0.453,0.158,0.388,0.287
	C27.16,57.806,26.613,58.582,26.515,58.396z"/>
<path fill="#7E4524" d="M29.325,45.641c-0.014,0.125,1.128,0.514,1.221,0.355c0.806-1.388,3.226-2.67,3.36-3.703
	c0.08-0.631-1.036-0.811-1.154-0.6C31.751,43.502,29.548,43.881,29.325,45.641z"/>
<path fill="#7E4524" d="M45.153,30.28c0.424-0.268,0.818,0.663,6.481-1.048c0.554-0.169,0.066-0.821-0.271-0.757
	C47.354,29.199,44.997,29.891,45.153,30.28z"/>
<path fill="#7E4524" d="M51.624,28.778c0.239,0.215,1.965-0.031,5.017-0.704c0.482-0.105-0.092-0.736-0.379-0.669
	C52.729,28.179,51.375,28.55,51.624,28.778z"/>
<path fill="#7E4524" d="M58.46,26.579c-0.179-0.096-0.872,0.271-2.065,0.849c-0.218,0.107,0.161,0.451,0.291,0.385
	C57.868,27.222,58.647,26.677,58.46,26.579z"/>
<path fill="#7E4524" d="M45.652,29.38c0.124-0.014,0.517,1.122,0.355,1.216c-1.391,0.804-2.676,3.212-3.717,3.346
	c-0.634,0.08-0.813-1.032-0.603-1.149C43.504,31.796,43.886,29.604,45.652,29.38z"/>
<path fill="#7E4524" d="M23.398,36.951c-0.463-0.006-0.157-0.947-5.174-2.545c-0.489-0.156-0.555,0.609-0.278,0.738
	C21.194,36.658,23.27,37.342,23.398,36.951z"/>
<path fill="#7E4524" d="M17.955,34.766c-0.033-0.29-1.393-0.995-3.938-2.053c-0.403-0.168-0.393,0.627-0.15,0.725
	C16.808,34.666,17.985,35.078,17.955,34.766z"/>
<path fill="#7E4524" d="M11.819,32.945c0.064,0.167,0.774,0.239,1.968,0.406c0.221,0.028,0.169-0.44,0.036-0.458
	C12.632,32.745,11.75,32.769,11.819,32.945z"/>
<path fill="#7E4524" d="M22.492,37.402c-0.099-0.055,0.336-1.154,0.508-1.144c1.466,0.093,3.857-1.138,4.667-0.701
	c0.489,0.27-0.072,1.235-0.293,1.219C25.489,36.613,23.863,38.146,22.492,37.402z"/>
<path fill="#7E4524" d="M36.932,23.476c-0.008-0.461-0.953-0.16-2.557-5.154c-0.159-0.485,0.61-0.55,0.738-0.279
	C36.636,21.279,37.32,23.344,36.932,23.476z"/>
<path fill="#7E4524" d="M34.736,18.053c-0.295-0.033-1.001-1.386-2.064-3.923c-0.169-0.401,0.629-0.391,0.73-0.148
	C34.635,16.913,35.048,18.086,34.736,18.053z"/>
<path fill="#7E4524" d="M32.907,11.943c0.167,0.065,0.239,0.772,0.406,1.959c0.028,0.219-0.441,0.168-0.459,0.038
	C32.706,12.752,32.732,11.874,32.907,11.943z"/>
<path fill="#7E4524" d="M37.382,22.574c-0.053-0.098-1.16,0.333-1.146,0.503c0.089,1.463-1.146,3.842-0.706,4.649
	c0.269,0.487,1.239-0.073,1.223-0.292C36.59,25.556,38.127,23.939,37.382,22.574z"/>
<path fill="#7E4524" d="M50.794,43.669l0.108,0.837c0,0,3.079-0.272,4.544,0.368c0.388,0.171,0.521-0.197,0.107-0.481
	C54.144,43.421,50.794,43.669,50.794,43.669z"/>
<path fill="#7E4524" d="M43.674,50.76l0.841,0.107c0,0-0.274,3.068,0.37,4.524c0.171,0.387-0.199,0.52-0.484,0.109
	C43.424,54.096,43.674,50.76,43.674,50.76z"/>
<path fill="#7E4524" d="M19.57,0.095c-0.076-0.189-0.313-0.069-0.255,0.122c1.079,3.458,2.574,10.168,3.094,13.739
	c1.321,9.094,2.446,11.933,4.837,15.526c0.354,0.529,0.987,0.161,0.667-0.361c-3.265-5.281-3.784-9.568-4.775-15.068
	C21.837,6.842,20.64,2.674,19.57,0.095z"/>
<path fill="#7E4524" d="M0.094,19.483c-0.188-0.078-0.069-0.313,0.123-0.253c3.47,1.074,10.211,2.563,13.795,3.08
	c9.133,1.312,11.981,2.436,15.589,4.817c0.532,0.351,0.161,0.985-0.363,0.663c-5.302-3.249-9.604-3.767-15.13-4.755
	C6.871,21.74,2.683,20.548,0.094,19.483z"/>
<linearGradient id="SVGID_1_" gradientUnits="userSpaceOnUse" x1="-486.5767" y1="634.3008" x2="-486.5767" y2="631.3633" gradientTransform="matrix(0.7071 -0.7071 0.7071 0.7071 -78.1813 -766.4204)">
	<stop  offset="0" style="stop-color:#57270A"/>
	<stop  offset="0.1596" style="stop-color:#5D2C0E"/>
	<stop  offset="0.3816" style="stop-color:#6F3A1A"/>
	<stop  offset="0.6403" style="stop-color:#8D512E"/>
	<stop  offset="0.9245" style="stop-color:#B67149"/>
	<stop  offset="1" style="stop-color:#C27A51"/>
	<a:midPointStop  offset="0" style="stop-color:#57270A"/>
	<a:midPointStop  offset="0.6364" style="stop-color:#57270A"/>
	<a:midPointStop  offset="1" style="stop-color:#C27A51"/>
</linearGradient>
<path fill="url(#SVGID_1_)" d="M25.685,22.937c-0.82,0.358-2.278,1.807-2.636,2.625c-0.254,0.582,0.044,1.861,0.373,2.191
	c0.828,0.825,5.29-3.619,4.462-4.444C27.555,22.981,26.27,22.684,25.685,22.937z"/>
<path fill="#512507" d="M33.333,26.159c10.646,10.606,3.408,17.813-7.238,7.21C24.474,31.759,31.714,24.548,33.333,26.159z"/>
<linearGradient id="SVGID_2_" gradientUnits="userSpaceOnUse" x1="-1698.0503" y1="669.5654" x2="-1698.0503" y2="636.1885" gradientTransform="matrix(-0.7071 0.7071 0.7071 0.7071 -1621.3267 776.724)">
	<stop  offset="0" style="stop-color:#A86A46"/>
	<stop  offset="0.234" style="stop-color:#8D5432"/>
	<stop  offset="0.5426" style="stop-color:#6F3B1C"/>
	<stop  offset="0.8087" style="stop-color:#5D2C0F"/>
	<stop  offset="1" style="stop-color:#57270A"/>
	<a:midPointStop  offset="0" style="stop-color:#A86A46"/>
	<a:midPointStop  offset="0.3636" style="stop-color:#A86A46"/>
	<a:midPointStop  offset="1" style="stop-color:#57270A"/>
</linearGradient>
<path fill="url(#SVGID_2_)" d="M29.914,25.18c3.962-0.969,9.178,1.145,15.98,8.602c6.618,7.265,8.466,14.17,5.584,17.037
	c-2.879,2.867-7.535-0.123-12.229-6.885C35.279,38.218,36.935,29.992,29.914,25.18z"/>
<path fill="#7E4524" d="M33.337,25.783c1.272,0.42,2.449,1.02,3.557,1.712c1.115,0.678,2.166,1.449,3.159,2.284
	c1.989,1.665,3.804,3.526,5.424,5.551c1.648,2.004,3.107,4.17,4.333,6.479c0.61,1.155,1.151,2.357,1.555,3.624
	c0.405,1.253,0.719,2.593,0.521,4.003c0.279-1.411,0.045-2.8-0.289-4.101c-0.361-1.303-0.868-2.538-1.444-3.732
	c-1.169-2.379-2.647-4.564-4.276-6.609c-1.668-2.016-3.496-3.903-5.564-5.521C38.253,27.866,35.951,26.476,33.337,25.783z"/>
<path fill="#7E4524" d="M33.018,26.102c1.258,0.418,2.409,1.041,3.473,1.768c1.073,0.716,2.066,1.535,2.996,2.419
	c1.862,1.768,3.522,3.74,4.999,5.854c1.507,2.088,2.835,4.314,4.016,6.629c0.589,1.158,1.133,2.345,1.598,3.568
	c0.468,1.222,0.905,2.476,1.027,3.832c-0.157-2.746-1.209-5.221-2.281-7.604c-1.119-2.372-2.459-4.615-3.947-6.747
	c-1.522-2.099-3.193-4.102-5.135-5.823C37.828,28.286,35.611,26.791,33.018,26.102z"/>
<path fill="#7E4524" d="M32.131,26.249c1.039,0.76,1.82,1.795,2.402,2.934c0.606,1.129,1.052,2.353,1.452,3.594
	c0.798,2.487,1.495,5.038,2.468,7.469c0.996,2.415,2.265,4.719,3.988,6.643c1.698,1.937,3.812,3.479,6.143,4.615
	c-2.228-1.297-4.223-2.93-5.844-4.883c-1.631-1.947-2.878-4.205-3.829-6.612c-1-2.384-1.688-4.927-2.566-7.396
	c-0.448-1.229-0.938-2.451-1.598-3.569C34.082,27.936,33.221,26.94,32.131,26.249z"/>
<path fill="#7E4524" d="M33.289,26.24c1.015,0.741,1.819,1.711,2.465,2.781c0.659,1.058,1.179,2.21,1.648,3.387
	c0.936,2.357,1.74,4.792,2.721,7.147c1.006,2.339,2.188,4.606,3.718,6.609c1.524,2.008,3.374,3.74,5.478,5.124
	c-1.982-1.536-3.715-3.349-5.162-5.373c-1.446-2.027-2.614-4.261-3.577-6.601c-1.012-2.32-1.809-4.756-2.826-7.093
	c-0.518-1.162-1.081-2.307-1.794-3.351C35.235,27.834,34.354,26.914,33.289,26.24z"/>
<path fill="#7E4524" d="M35.85,27.879c1.738,1.495,2.865,3.528,3.833,5.603c0.958,2.092,1.79,4.261,2.699,6.398
	c0.942,2.117,1.962,4.209,3.25,6.117c1.276,1.91,2.822,3.631,4.609,5.057c-1.657-1.569-3.077-3.36-4.284-5.291
	c-1.208-1.936-2.22-4-3.12-6.128c-0.943-2.106-1.769-4.284-2.808-6.353C38.993,31.224,37.718,29.227,35.85,27.879z"/>
<path fill="#7E4524" d="M39.228,30.858c1.268,1.408,2.261,3.032,3.173,4.697c0.903,1.672,1.737,3.391,2.541,5.13
	c0.843,1.719,1.655,3.458,2.601,5.121c0.942,1.662,2.005,3.264,3.315,4.633c-1.164-1.496-2.101-3.155-2.978-4.845
	c-0.868-1.696-1.682-3.425-2.488-5.167c-0.845-1.718-1.672-3.453-2.658-5.093C41.756,33.697,40.634,32.133,39.228,30.858z"/>
<linearGradient id="SVGID_3_" gradientUnits="userSpaceOnUse" x1="-486.4375" y1="669.5625" x2="-486.4375" y2="636.1738" gradientTransform="matrix(0.7071 -0.7071 0.7071 0.7071 -79.817 -764.7847)">
	<stop  offset="0" style="stop-color:#C27A51"/>
	<stop  offset="0.0755" style="stop-color:#B67149"/>
	<stop  offset="0.3597" style="stop-color:#8D512E"/>
	<stop  offset="0.6184" style="stop-color:#6F3A1A"/>
	<stop  offset="0.8404" style="stop-color:#5D2C0E"/>
	<stop  offset="1" style="stop-color:#57270A"/>
	<a:midPointStop  offset="0" style="stop-color:#C27A51"/>
	<a:midPointStop  offset="0.3636" style="stop-color:#C27A51"/>
	<a:midPointStop  offset="1" style="stop-color:#57270A"/>
</linearGradient>
<path fill="url(#SVGID_3_)" d="M25.299,29.774c-0.972,3.946,1.15,9.142,8.638,15.913c7.293,6.594,14.228,8.432,17.105,5.561
	c2.882-2.866-0.122-7.502-6.913-12.179C38.391,35.119,30.133,36.765,25.299,29.774z"/>
<path fill="#7E4524" d="M25.907,33.184c0.423,1.267,1.025,2.439,1.719,3.54c0.682,1.113,1.455,2.16,2.292,3.146
	c1.672,1.981,3.542,3.791,5.577,5.402c2.011,1.644,4.186,3.097,6.506,4.314c1.158,0.61,2.368,1.147,3.634,1.55
	c1.262,0.404,2.606,0.716,4.024,0.52c-1.419,0.277-2.813,0.043-4.118-0.289c-1.31-0.361-2.55-0.865-3.746-1.439
	c-2.391-1.163-4.585-2.635-6.64-4.259c-2.023-1.659-3.918-3.48-5.541-5.538C27.999,38.077,26.603,35.787,25.907,33.184z"/>
<path fill="#7E4524" d="M26.226,32.863c0.421,1.256,1.046,2.401,1.776,3.461c0.719,1.07,1.541,2.059,2.429,2.984
	c1.773,1.854,3.756,3.506,5.875,4.977c2.097,1.502,4.333,2.824,6.657,3.998c1.162,0.588,2.354,1.129,3.585,1.592
	c1.226,0.469,2.483,0.902,3.846,1.023c-2.756-0.154-5.241-1.203-7.633-2.271c-2.383-1.113-4.638-2.448-6.773-3.929
	c-2.11-1.519-4.119-3.182-5.849-5.114C28.419,37.654,26.919,35.447,26.226,32.863z"/>
<path fill="#7E4524" d="M26.375,31.981c0.764,1.035,1.804,1.814,2.945,2.394c1.133,0.604,2.363,1.046,3.61,1.447
	c2.497,0.794,5.057,1.486,7.5,2.455c2.423,0.992,4.736,2.26,6.667,3.971c1.947,1.693,3.495,3.799,4.636,6.121
	c-1.303-2.221-2.94-4.209-4.902-5.821c-1.956-1.623-4.221-2.868-6.636-3.815c-2.397-0.994-4.952-1.678-7.43-2.554
	c-1.234-0.446-2.46-0.935-3.583-1.593C28.068,33.926,27.068,33.064,26.375,31.981z"/>
<path fill="#7E4524" d="M26.367,33.136c0.743,1.01,1.717,1.813,2.789,2.453c1.063,0.657,2.221,1.175,3.402,1.643
	c2.366,0.931,4.811,1.733,7.176,2.711c2.349,1.004,4.626,2.177,6.637,3.702c2.016,1.516,3.756,3.359,5.146,5.452
	c-1.541-1.972-3.363-3.697-5.397-5.138c-2.034-1.441-4.277-2.604-6.629-3.563c-2.325-1.008-4.772-1.802-7.119-2.815
	c-1.166-0.517-2.317-1.077-3.365-1.788C27.967,35.075,27.042,34.196,26.367,33.136z"/>
<path fill="#7E4524" d="M28.01,35.688c1.502,1.73,3.544,2.854,5.627,3.816c2.1,0.956,4.279,1.783,6.424,2.686
	c2.126,0.938,4.227,1.954,6.142,3.238c1.92,1.272,3.647,2.81,5.077,4.589c-1.574-1.647-3.372-3.062-5.313-4.265
	s-4.013-2.211-6.152-3.107c-2.113-0.939-4.302-1.761-6.379-2.797C31.37,38.817,29.366,37.546,28.01,35.688z"/>
<path fill="#7E4524" d="M31.003,39.051c1.415,1.262,3.043,2.251,4.714,3.158c1.68,0.9,3.407,1.729,5.152,2.532
	c1.726,0.836,3.474,1.647,5.141,2.589c1.673,0.938,3.278,1.995,4.653,3.301c-1.502-1.159-3.168-2.09-4.865-2.963
	c-1.701-0.865-3.439-1.678-5.188-2.48c-1.726-0.84-3.467-1.666-5.113-2.643C33.852,41.57,32.284,40.449,31.003,39.051z"/>
<linearGradient id="SVGID_4_" gradientUnits="userSpaceOnUse" x1="-486.5659" y1="639.8359" x2="-486.5659" y2="633.5234" gradientTransform="matrix(0.7071 -0.7071 0.7071 0.7071 -78.1813 -766.4204)">
	<stop  offset="0" style="stop-color:#57270A"/>
	<stop  offset="0.1596" style="stop-color:#5D2C0E"/>
	<stop  offset="0.3816" style="stop-color:#6F3A1A"/>
	<stop  offset="0.6403" style="stop-color:#8D512E"/>
	<stop  offset="0.9245" style="stop-color:#B67149"/>
	<stop  offset="1" style="stop-color:#C27A51"/>
	<a:midPointStop  offset="0" style="stop-color:#57270A"/>
	<a:midPointStop  offset="0.6364" style="stop-color:#57270A"/>
	<a:midPointStop  offset="1" style="stop-color:#C27A51"/>
</linearGradient>
<path fill="url(#SVGID_4_)" d="M28.708,23.375c-1.667,0.667-4.55,3.54-5.221,5.198c-0.478,1.18,0.25,3.845,0.958,4.549
	c1.78,1.774,10.612-7.022,8.832-8.795C32.569,23.622,29.892,22.899,28.708,23.375z"/>
</svg>
