<?xml version="1.0" encoding="utf-8"?>
<!-- Generator: Adobe Illustrator 24.1.2, SVG Export Plug-In . SVG Version: 6.00 Build 0)  -->
<svg version="1.1" id="Layer_1" xmlns="http://www.w3.org/2000/svg" xmlns:xlink="http://www.w3.org/1999/xlink" x="0px" y="0px"
	 width="64px" height="64px" viewBox="0 0 64 64" style="enable-background:new 0 0 64 64;" xml:space="preserve">
<style type="text/css">
	.st0{fill:url(#SVGID_1_);}
	.st1{fill:url(#SVGID_2_);}
	.st2{opacity:0.5;fill:#ED0707;}
	.st3{opacity:0.5;fill:#0074BA;}
	.st4{fill:url(#SVGID_3_);}
	.st5{fill:url(#SVGID_4_);}
	.st6{fill:url(#SVGID_5_);}
	.st7{fill:url(#SVGID_6_);}
	.st8{fill:url(#SVGID_7_);}
	.st9{fill:url(#SVGID_8_);}
	.st10{fill:url(#SVGID_9_);}
	.st11{fill:url(#SVGID_10_);}
	.st12{fill:url(#SVGID_11_);}
	.st13{fill:url(#SVGID_12_);}
	.st14{fill:url(#SVGID_13_);}
	.st15{fill:url(#SVGID_14_);}
	.st16{fill:url(#SVGID_15_);}
	.st17{fill:url(#SVGID_16_);}
	.st18{fill:url(#SVGID_17_);}
</style>
<linearGradient id="SVGID_1_" gradientUnits="userSpaceOnUse" x1="23.3547" y1="53.8705" x2="16.4147" y2="52.3139">
	<stop  offset="0" style="stop-color:#004F7D"/>
	<stop  offset="0.1897" style="stop-color:#005586"/>
	<stop  offset="0.5057" style="stop-color:#0065A0"/>
	<stop  offset="0.9069" style="stop-color:#007EC9"/>
	<stop  offset="1" style="stop-color:#0085D4"/>
</linearGradient>
<path class="st0" d="M16.23,46.66c0,0-0.26,6.77-0.63,10.16c-0.18,1.66,6.91,2.42,7.01,0.47c0.09-1.61,0.56-3.72,0.56-3.72
	L16.23,46.66z"/>
<radialGradient id="SVGID_2_" cx="50.1668" cy="32.7049" r="30.9641" gradientTransform="matrix(0.6906 0.7601 -0.5208 0.4189 14.4678 -19.1275)" gradientUnits="userSpaceOnUse">
	<stop  offset="0" style="stop-color:#F47A6D"/>
	<stop  offset="0.2297" style="stop-color:#F5766A"/>
	<stop  offset="0.4642" style="stop-color:#F66A60"/>
	<stop  offset="0.701" style="stop-color:#F9554F"/>
	<stop  offset="0.9379" style="stop-color:#FE3937"/>
	<stop  offset="1" style="stop-color:#FF3030"/>
</radialGradient>
<path class="st1" d="M48.9,29.98c-10.87-9.5-40.25-4.82-35.49,12.55c2.24,8.19,12.45,14.66,21.75,18.1C42.7,63.43,56,63.05,56,48.65
	C56,41.16,53.05,33.61,48.9,29.98z"/>
<path class="st2" d="M50.47,48.65c-0.49-0.31-0.88-0.75-1.35-1.13c-0.47-0.38-1.06-0.64-1.67-0.77c-0.61-0.15-1.27-0.11-1.59-0.44
	c-0.33-0.3-0.36-0.9-0.49-1.46c-0.11-0.57-0.29-1.16-0.57-1.7c-0.49-0.97-1.24-1.79-2.07-2.5c0.04-0.07,0.07-0.14,0.12-0.21
	c0.22-0.4,0.51-0.77,0.7-1.34c0.09-0.28,0.11-0.68-0.07-1.02l-0.33-0.61c-0.19-0.4-0.37-0.8-0.51-1.21
	c-0.6-1.66-0.55-3.46-0.69-5.33c0-0.04-0.01-0.07-0.01-0.11c0.91,0.21,1.94,0.18,3.02,0.13c2.31-0.09,5.21-0.14,6.69,2.24
	c0,0-0.86-1.33-1.92-2.43c-1.46-0.74-3.2-0.62-4.8-0.56c-1.15,0.05-2.23,0.08-3.09-0.19c-0.22-1.57-0.8-3.13-1.78-4.42
	c-1.15-1.56-2.71-2.74-4.32-3.77c1.45,1.23,2.82,2.55,3.8,4.09c0.49,0.76,0.86,1.59,1.09,2.44c0.23,0.85,0.32,1.74,0.37,2.63
	c0.02,0.62,0.03,1.25,0.05,1.9c-0.35,0.87-1.06,1.58-1.93,2.18c-0.89,0.63-1.94,1.18-2.73,2.06c-0.81,0.86-1.18,2-1.22,3.09
	c-0.08,1.1,0.15,2.17,0.36,3.23c-0.13-1.07-0.27-2.15-0.1-3.21c0.13-1.05,0.57-2.05,1.35-2.77c0.17-0.16,0.35-0.31,0.55-0.45
	c0.13,0.38,0.13,0.77-0.07,1.16c-0.25,0.5-0.53,1.1-0.54,1.71c-0.02,0.61,0.12,1.19,0.29,1.75c0.19,0.56,0.44,1.09,0.7,1.62
	c-0.22-0.54-0.42-1.09-0.57-1.65c-0.13-0.56-0.22-1.14-0.16-1.7c0.06-0.57,0.33-1.04,0.63-1.57c0.3-0.45,0.31-1.08,0.14-1.6
	c0.57-0.36,1.19-0.68,1.81-1.05c0.56-0.32,1.11-0.73,1.59-1.23c0.08,0.7,0.22,1.41,0.47,2.11c0.15,0.46,0.36,0.91,0.57,1.34
	l0.34,0.61c0.04,0.08,0.05,0.16,0.01,0.33c-0.22,0.67-0.95,1.49-1.22,2.5c-0.14,0.5-0.16,1.06-0.04,1.58
	c0.13,0.49,0.24,0.87,0.31,1.32c0.17,0.87,0.18,1.75,0.08,2.62c-0.1,0.87-0.37,1.73-0.7,2.58c-0.32,0.85-0.74,1.71-0.86,2.7
	c-0.07,0.49,0.03,1.01,0.12,1.44l0.28,1.35c0.16,0.89,0.4,1.81,0.25,2.66c-0.08,0.42-0.39,0.75-0.85,0.85
	c-0.22,0.06-0.46,0.09-0.7,0.09c-0.23,0.01-0.5-0.03-0.75,0.08c-0.51,0.23-0.67,0.71-1,1.03c-0.31,0.35-0.76,0.57-1.24,0.66
	c0.48-0.06,0.96-0.25,1.3-0.6c0.35-0.32,0.58-0.79,1-0.94c0.2-0.08,0.44-0.04,0.69-0.03c0.25,0.01,0.5-0.01,0.75-0.06
	c0.52-0.08,0.99-0.51,1.09-1c0.22-0.97,0-1.89-0.11-2.8l-0.21-1.36c-0.08-0.47-0.13-0.87-0.06-1.29c0.04-0.23,0.1-0.46,0.18-0.69
	c0,0.1,0,0.2,0.01,0.29c0.07,0.87,0.5,1.7,1.1,2.32c0.58,0.64,1.25,1.18,1.7,1.89c0.46,0.7,0.68,1.52,0.74,2.35
	c-0.02-0.83-0.19-1.67-0.63-2.41c-0.42-0.75-1.08-1.34-1.61-1.98c-0.55-0.64-0.88-1.39-0.91-2.19c-0.03-0.59,0.07-1.18,0.22-1.76
	c0.05-0.11,0.1-0.22,0.15-0.33c0.38-0.85,0.72-1.76,0.88-2.71c0.17-0.95,0.16-1.92,0.01-2.87c-0.06-0.46-0.19-0.97-0.29-1.37
	c-0.08-0.38-0.06-0.77,0.06-1.15c0,0,0-0.01,0-0.01c0.71,0.55,1.34,1.17,1.79,1.91c0.28,0.46,0.48,0.96,0.64,1.5
	c0.18,0.51,0.2,1.17,0.78,1.67c0.29,0.23,0.64,0.31,0.96,0.34c0.32,0.03,0.6,0.04,0.89,0.09c0.57,0.09,1.12,0.29,1.59,0.62
	c0.47,0.33,0.9,0.76,1.43,1.05c0.53,0.3,1.14,0.43,1.73,0.49C51.54,49.14,50.96,48.98,50.47,48.65z"/>
<path class="st2" d="M29.12,42.2c-0.17-0.31-0.33-0.64-0.54-0.95c-0.19-0.32-0.51-0.61-0.91-0.76c-0.75-0.22-1.44,0.01-2.07,0.25
	c-0.04-0.07-0.08-0.15-0.13-0.22c-0.43-0.65-0.86-1.23-1.1-1.88c-0.48-1.29-0.46-2.72-0.29-4.12c0.44-0.31,0.88-0.63,1.29-0.98
	c1.2-0.99,4.82-4.22,3.99-7.85c-0.25,1.4-10.73,8.9-13.42,13.77c-1.74,1.14-2.09,2.64-2.39,3.57c0.18,0.54,0.45,1.23,0.45,1.23
	c0.27-0.16,0.16-1.52,1.18-2.94c-0.06,0.32-0.1,0.65-0.07,0.98c0.06,0.86,0.52,1.62,1.01,2.23c0.5,0.62,1.06,1.14,1.61,1.66
	c1.08,1.02,2.05,2.15,2.19,3.55c0.08,1.43,0.62,3.13,2.06,3.86c-0.62-0.45-1.02-1.1-1.25-1.77c-0.2-0.6-0.24-1.2-0.25-1.84
	c0.89,0.29,1.71,0.75,2.35,1.4c0.74,0.74,1.26,1.66,1.79,2.58c0.53,0.92,1.12,1.85,2,2.52c0.87,0.68,1.98,1.01,3.07,1.14
	c-1.09-0.17-2.17-0.54-2.99-1.23c-0.83-0.68-1.36-1.61-1.85-2.54c-0.49-0.93-0.97-1.9-1.73-2.72c-0.7-0.78-1.66-1.34-2.68-1.68
	c-0.14-1.49-1.12-2.78-2.09-3.82c-1.01-1.1-2.17-2.17-2.23-3.42c-0.05-0.62,0.16-1.25,0.5-1.85c0.33-0.6,0.79-1.14,1.3-1.64
	c1.44-1.36,3.29-2.36,5.07-3.5c-0.02,1.23,0.11,2.49,0.64,3.67c0.33,0.73,0.85,1.35,1.29,1.94c0.44,0.58,0.74,1.21,0.8,1.92
	c0.01,0.35,0.03,0.71-0.02,1.07l-0.05,0.57c0,0.22,0.05,0.42,0.13,0.61c0.32,0.74,0.87,1.29,1.35,1.87
	c0.98,1.14,1.94,2.36,2.22,3.84c-0.2-1.49-1.1-2.8-2.02-3.98c-0.45-0.6-0.96-1.2-1.19-1.85c-0.14-0.33-0.06-0.61,0.01-1.01
	c0.08-0.37,0.08-0.76,0.09-1.15c0-0.54-0.16-1.07-0.4-1.57c0.56-0.25,1.16-0.46,1.7-0.32c0.62,0.18,0.97,0.88,1.35,1.47
	c0.37,0.61,0.8,1.23,1.41,1.68c0.6,0.46,1.32,0.71,2.05,0.87c-0.72-0.2-1.41-0.49-1.96-0.96C29.83,43.44,29.45,42.83,29.12,42.2z"/>
<path class="st3" d="M42.02,32.15c0.02,0.4,0.05,0.8,0.07,1.2c0.68-1.15,2.14-1.84,3.63-2c1.46-0.19,2.98,0.01,4.44,0.41
	c-0.29-0.17-0.6-0.31-0.91-0.42c-0.22-0.07-0.45-0.14-0.68-0.19c-1.19-0.27-2.48-0.23-3.62-0.18c-0.15,0.01-0.3,0.01-0.45,0.02
	c-0.49,0.1-0.97,0.25-1.42,0.48C42.7,31.63,42.34,31.87,42.02,32.15z"/>
<path class="st3" d="M46.28,45.45c0.03-0.57-0.21-1.26-0.74-1.65c-0.2-0.16-0.41-0.28-0.62-0.39c0.13,0.29,0.23,0.58,0.31,0.88
	c0.38,0.27,0.58,0.68,0.61,1.17c0,0.26,0.02,0.57,0.08,0.88c0.11,0.09,0.26,0.16,0.43,0.2C46.25,46.21,46.25,45.85,46.28,45.45z"/>
<path class="st3" d="M44.12,43.49c-0.17-0.28-0.37-0.53-0.58-0.78c-0.47-0.27-0.89-0.6-1.24-0.97c-0.08,0.33-0.1,0.67-0.03,1
	c0.01,0.05,0.02,0.1,0.04,0.15c0.43,0.29,0.89,0.53,1.35,0.7c0.22,0.09,0.43,0.17,0.64,0.25C44.23,43.72,44.18,43.6,44.12,43.49z"/>
<path class="st3" d="M38.33,50.19c0.35-0.23,0.74-0.37,1.13-0.45c-0.22,0.7-0.45,1.41-0.64,2.17c-0.08,0.42-0.12,0.89,0.03,1.35
	c0.12,0.45,0.49,0.85,0.76,1.12c0.4,0.42,0.76,0.87,1.06,1.35c-0.05-0.27-0.1-0.53-0.15-0.8l-0.1-0.51
	c-0.11-0.14-0.22-0.28-0.34-0.42c-0.6-0.59-0.73-1.21-0.52-1.95c0.19-0.73,0.54-1.47,0.82-2.25c0.27-0.78,0.5-1.59,0.62-2.41
	c0.13-0.82,0.18-1.66,0.13-2.49c-0.01-0.21-0.03-0.41-0.05-0.62c-0.02-0.19-0.02-0.34-0.01-0.52c0.02-0.31,0.1-0.63,0.21-0.94
	c-0.09-0.49-0.08-1,0.05-1.47c0.27-1,1-1.83,1.22-2.5c0.04-0.16,0.04-0.25-0.01-0.33l-0.34-0.61c-0.22-0.44-0.43-0.88-0.57-1.34
	c-0.24-0.7-0.38-1.4-0.47-2.11c-0.15,0.16-0.32,0.29-0.49,0.43c-0.09,1.2,0.28,2.42,0.82,3.43l0.28,0.52
	c0.03,0.05,0.04,0.16,0.01,0.31c-0.06,0.29-0.22,0.65-0.4,1c-0.36,0.7-0.78,1.44-1.07,2.25c-0.14,0.41-0.26,0.84-0.28,1.3
	c-0.02,0.22,0,0.47,0.02,0.68c0.02,0.19,0.04,0.39,0.05,0.58c0.04,0.77,0.03,1.55-0.07,2.32c-0.05,0.49-0.16,0.97-0.29,1.45
	c-0.71,0.14-1.39,0.44-1.91,0.88c-0.61,0.5-1.04,1.11-1.43,1.7c-0.39,0.6-0.74,1.21-1.2,1.72c-0.45,0.52-1.1,0.92-1.86,0.89
	c0.74,0.12,1.51-0.22,2.05-0.72c0.55-0.49,0.99-1.07,1.44-1.61C37.29,51.05,37.77,50.54,38.33,50.19z"/>
<path class="st3" d="M41.03,55.33c0.07,0.46,0.12,0.93,0.13,1.41c0.18,0.58,0.19,1.2-0.03,1.79c-0.12,0.37-0.32,0.73-0.45,1.13
	c-0.15,0.39-0.12,0.86,0.15,1.18c-0.23-0.35-0.2-0.78-0.02-1.13c0.17-0.36,0.39-0.71,0.55-1.09c0.36-0.76,0.36-1.68,0.05-2.47
	C41.32,55.85,41.18,55.59,41.03,55.33z"/>
<path class="st3" d="M47.7,48.07c-0.45-0.31-0.89-0.64-1.15-1.07c-0.02,0-0.04,0-0.06,0c-0.11-0.01-0.23-0.04-0.35-0.07
	c0.04,0.06,0.06,0.13,0.11,0.19c0.34,0.5,0.85,0.83,1.34,1.12c0.49,0.3,1,0.57,1.37,0.97c0.39,0.4,0.51,0.97,0.43,1.51
	c0.12-0.53,0.03-1.13-0.35-1.58C48.67,48.7,48.17,48.39,47.7,48.07z"/>
<path class="st3" d="M27.71,32.46c-0.14-0.28-0.24-0.58-0.34-0.88c-0.17,0.2-0.34,0.38-0.5,0.55c0.09,0.19,0.19,0.39,0.3,0.57
	c0.4,0.73,0.94,1.41,1.6,1.95c0.65,0.55,1.41,0.94,2.06,1.42c0.65,0.48,1.13,1.17,1.32,1.95c-0.12-0.79-0.55-1.55-1.19-2.1
	c-0.63-0.55-1.35-0.99-1.92-1.55C28.47,33.83,28.03,33.17,27.71,32.46z"/>
<path class="st3" d="M32.23,55.68c-0.24-0.13-0.51-0.17-0.77-0.2c-0.51-0.05-1-0.09-1.44-0.23c-0.9-0.26-1.67-0.83-2.37-1.46
	c-0.34-0.32-0.67-0.66-0.99-1.01c-0.32-0.39-0.82-0.77-1.3-1c-0.81-0.38-1.63-0.6-2.43-0.8c0.06,0.06,0.13,0.12,0.19,0.18
	c0.32,0.35,0.59,0.73,0.84,1.12c0.02,0.01,0.05,0.01,0.07,0.02c0.01,0.05,0.03,0.11,0.05,0.16c0.28,0.47,0.53,0.95,0.77,1.42
	c0.02,0.03,0.03,0.06,0.05,0.09c0.24,0.26,0.51,0.49,0.79,0.69c0.42,0.3,0.86,0.57,1.2,0.92c0.35,0.35,0.54,0.82,0.55,1.32
	c0.05-0.49-0.07-1.02-0.4-1.43c-0.31-0.42-0.73-0.75-1.1-1.09c-0.37-0.34-0.69-0.7-0.89-1.11c-0.11-0.21-0.18-0.44-0.22-0.67
	c0.02,0.01,0.05,0.02,0.08,0.03c0.42,0.19,0.74,0.4,1.06,0.74c0.35,0.36,0.73,0.7,1.13,1.01c0.8,0.62,1.73,1.18,2.8,1.36
	c0.53,0.09,1.07,0.05,1.56,0.02c0.49-0.05,0.97,0.08,1.29,0.48C32.63,56.02,32.47,55.82,32.23,55.68z"/>
<path class="st3" d="M19.95,50.1c-0.08-0.04-0.16-0.07-0.24-0.11c-0.37-0.21-0.63-0.49-0.78-0.84c-0.19-0.48-0.43-0.92-0.69-1.34
	c-0.52-0.84-1.3-1.79-1.79-2.35c-0.92-1.05-1.74-1.6-2.32-0.91l0.19,0.41c0.23-0.47,0.92-0.31,1.77,0.77
	c0.44,0.56,1.05,1.59,1.48,2.42c0.21,0.42,0.41,0.83,0.54,1.26c0.17,0.56,0.6,1.03,1.07,1.33c0.33,0.21,0.66,0.36,1,0.49
	C20.06,50.86,19.99,50.48,19.95,50.1z"/>
<path class="st3" d="M22.83,51.41c-0.24-0.24-0.51-0.45-0.79-0.64c-0.54-0.13-1.07-0.26-1.55-0.44c0.01,0.36,0.04,0.72,0.12,1.07
	c0.52,0.17,1.04,0.29,1.54,0.42c0.44,0.11,0.88,0.21,1.31,0.33C23.26,51.88,23.06,51.64,22.83,51.41z"/>
<path class="st3" d="M22.1,36.98c0.49,0.23,0.89,0.55,1.2,0.94c-0.13-0.49-0.21-0.98-0.25-1.47c-0.17-0.1-0.35-0.19-0.53-0.27
	c-0.21-0.09-0.43-0.15-0.65-0.22c-0.32,0.2-0.63,0.4-0.94,0.59l0.37,0.11C21.57,36.75,21.84,36.85,22.1,36.98z"/>
<path class="st3" d="M25.04,39.88c-0.07-0.84-0.29-1.72-0.87-2.47c-0.04-0.05-0.08-0.09-0.12-0.14c0.06,0.47,0.15,0.93,0.32,1.37
	C24.53,39.07,24.77,39.47,25.04,39.88z"/>
<path class="st3" d="M25.2,42.73c-0.14-0.43-0.12-1.03-0.12-1.62c0-0.01,0-0.02,0-0.03c-0.05-0.08-0.1-0.15-0.16-0.23
	c-0.32-0.43-0.69-0.88-1-1.39c0.09,0.52,0.1,1.08,0.11,1.65c0.02,0.6-0.03,1.21,0.21,1.92c0.12,0.35,0.43,0.75,0.85,0.92
	c0.24,0.09,0.42,0.13,0.58,0.16l0.02-0.28c0.03-0.21,0.03-0.42,0.03-0.63C25.44,43.12,25.3,43.02,25.2,42.73z"/>
<path class="st3" d="M31.08,48.93c-0.64-0.99-1.02-2.1-1.63-3.21c-0.31-0.55-0.73-1.08-1.27-1.49c-0.54-0.42-1.18-0.7-1.83-0.87
	c-0.05-0.01-0.09-0.02-0.13-0.03c-0.01,0.19-0.03,0.37-0.07,0.56c-0.06,0.4-0.14,0.68-0.01,1.01c0.1,0.26,0.24,0.52,0.41,0.77
	c0.3,0.4,0.67,0.73,1.06,1c0.42,0.3,0.86,0.57,1.2,0.92c0.35,0.35,0.54,0.82,0.55,1.32c0.05-0.49-0.07-1.02-0.4-1.43
	c-0.31-0.42-0.73-0.75-1.1-1.09c-0.37-0.34-0.69-0.7-0.89-1.11c-0.14-0.28-0.21-0.58-0.25-0.88c0.87,0.32,1.61,0.87,2.11,1.67
	c0.64,0.96,1.07,2.13,1.89,3.1c0.79,0.98,1.89,1.71,3.09,2.09C32.68,50.71,31.71,49.92,31.08,48.93z"/>
<linearGradient id="SVGID_3_" gradientUnits="userSpaceOnUse" x1="28.8896" y1="5.3781" x2="32.5856" y2="4.3641">
	<stop  offset="0" style="stop-color:#BF0000"/>
	<stop  offset="0.1839" style="stop-color:#D11C20"/>
	<stop  offset="0.387" style="stop-color:#E0343C"/>
	<stop  offset="0.5912" style="stop-color:#EB4550"/>
	<stop  offset="0.7954" style="stop-color:#F2505C"/>
	<stop  offset="1" style="stop-color:#F45360"/>
</linearGradient>
<path class="st4" d="M32.89,7.12l-3.71,0.84c0,0,0.15-1.81-0.79-4.64c-0.18-0.55,3-1.81,3.38-1.11C32.92,4.28,32.89,7.12,32.89,7.12
	z"/>
<linearGradient id="SVGID_4_" gradientUnits="userSpaceOnUse" x1="37.4278" y1="5.5258" x2="39.5193" y2="5.5258">
	<stop  offset="0" style="stop-color:#BF0000"/>
	<stop  offset="0.1839" style="stop-color:#D11C20"/>
	<stop  offset="0.387" style="stop-color:#E0343C"/>
	<stop  offset="0.5912" style="stop-color:#EB4550"/>
	<stop  offset="0.7954" style="stop-color:#F2505C"/>
	<stop  offset="1" style="stop-color:#F45360"/>
</linearGradient>
<path class="st5" d="M39.59,4.03c0.17-0.77-2.43-1.26-2.54-0.7c-0.54,2.74-0.65,4-0.65,4l2.75,0.62C39.15,7.96,39.01,6.6,39.59,4.03
	z"/>
<linearGradient id="SVGID_5_" gradientUnits="userSpaceOnUse" x1="34.0154" y1="4.6608" x2="37.5303" y2="4.6608">
	<stop  offset="0" style="stop-color:#BF0000"/>
	<stop  offset="0.1839" style="stop-color:#D11C20"/>
	<stop  offset="0.387" style="stop-color:#E0343C"/>
	<stop  offset="0.5912" style="stop-color:#EB4550"/>
	<stop  offset="0.7954" style="stop-color:#F2505C"/>
	<stop  offset="1" style="stop-color:#F45360"/>
</linearGradient>
<path class="st6" d="M37.32,2.81c0.06-0.79-2.64-1-2.75-0.44c-0.54,2.74-2.29,4.45-2.29,4.45l5.38,0.45
	C37.66,7.27,37.14,5.29,37.32,2.81z"/>
<linearGradient id="SVGID_6_" gradientUnits="userSpaceOnUse" x1="15.8723" y1="18.3488" x2="15.0092" y2="13.7866">
	<stop  offset="0" style="stop-color:#004F7D"/>
	<stop  offset="0.0194" style="stop-color:#005180"/>
	<stop  offset="0.3063" style="stop-color:#0067A4"/>
	<stop  offset="0.5741" style="stop-color:#0078BE"/>
	<stop  offset="0.8134" style="stop-color:#0082CE"/>
	<stop  offset="1" style="stop-color:#0085D4"/>
</linearGradient>
<path class="st7" d="M19.27,12.39c0,0-4.37,1.22-7.69,2.98c-0.92,0.49-0.42,4.16,0.89,3.64c3.7-1.46,6.8-1.88,6.8-1.88V12.39z"/>
<linearGradient id="SVGID_7_" gradientUnits="userSpaceOnUse" x1="46.2651" y1="24.4762" x2="44.7003" y2="21.4444">
	<stop  offset="0" style="stop-color:#BF0000"/>
	<stop  offset="0.1839" style="stop-color:#D11C20"/>
	<stop  offset="0.387" style="stop-color:#E0343C"/>
	<stop  offset="0.5912" style="stop-color:#EB4550"/>
	<stop  offset="0.7954" style="stop-color:#F2505C"/>
	<stop  offset="1" style="stop-color:#F45360"/>
</linearGradient>
<path class="st8" d="M41.17,22.33l2.03,2.82c0,0,3.22-0.57,5.27-1.99c1.15-0.8-0.34-3.15-1.08-2.77
	C44.44,21.9,41.17,22.33,41.17,22.33z"/>
<linearGradient id="SVGID_8_" gradientUnits="userSpaceOnUse" x1="47.9448" y1="24.4259" x2="48.485" y2="27.7501">
	<stop  offset="0" style="stop-color:#F45360"/>
	<stop  offset="0.2046" style="stop-color:#F2505C"/>
	<stop  offset="0.4088" style="stop-color:#EB4550"/>
	<stop  offset="0.613" style="stop-color:#E0343C"/>
	<stop  offset="0.8161" style="stop-color:#D11C20"/>
	<stop  offset="1" style="stop-color:#BF0000"/>
</linearGradient>
<path class="st9" d="M44.86,25.35l1,3.3c0,0,2.4-1.03,4.92-0.99c0.91,0.02,0.78-2.85,0.12-2.94C47.91,24.3,44.86,25.35,44.86,25.35z
	"/>
<linearGradient id="SVGID_9_" gradientUnits="userSpaceOnUse" x1="12.0411" y1="27.6735" x2="13.4858" y2="24.142">
	<stop  offset="0" style="stop-color:#BF0000"/>
	<stop  offset="0.1839" style="stop-color:#D11C20"/>
	<stop  offset="0.387" style="stop-color:#E0343C"/>
	<stop  offset="0.5912" style="stop-color:#EB4550"/>
	<stop  offset="0.7954" style="stop-color:#F2505C"/>
	<stop  offset="1" style="stop-color:#F45360"/>
</linearGradient>
<path class="st10" d="M17.53,24.44l-2.39,3.98c0,0-3.99-0.8-6.06-2.52c-0.73-0.6,0.74-2.45,1.26-2.29
	C13.65,24.61,17.53,24.44,17.53,24.44z"/>
<linearGradient id="SVGID_10_" gradientUnits="userSpaceOnUse" x1="12.1299" y1="30.983" x2="10.9542" y2="28.0596">
	<stop  offset="0" style="stop-color:#BF0000"/>
	<stop  offset="0.1839" style="stop-color:#D11C20"/>
	<stop  offset="0.387" style="stop-color:#E0343C"/>
	<stop  offset="0.5912" style="stop-color:#EB4550"/>
	<stop  offset="0.7954" style="stop-color:#F2505C"/>
	<stop  offset="1" style="stop-color:#F45360"/>
</linearGradient>
<path class="st11" d="M14.37,26.82l0.26,3.46c0,0-2.83,0.23-5.19,1.76c-0.75,0.49-1.82-1.98-1.29-2.37
	C10.51,27.91,14.37,26.82,14.37,26.82z"/>
<linearGradient id="SVGID_11_" gradientUnits="userSpaceOnUse" x1="23.4091" y1="21.6093" x2="13.5376" y2="12.9909">
	<stop  offset="0" style="stop-color:#004F7D"/>
	<stop  offset="0.0194" style="stop-color:#005180"/>
	<stop  offset="0.3063" style="stop-color:#0067A4"/>
	<stop  offset="0.5741" style="stop-color:#0078BE"/>
	<stop  offset="0.8134" style="stop-color:#0082CE"/>
	<stop  offset="1" style="stop-color:#0085D4"/>
</linearGradient>
<path class="st12" d="M24,8.73c0-0.41-7.73-0.51-7.54,0.75c1.19,7.89,0.56,11.86-1.78,16.68c-1.57,3.22,11.19,5.49,11.2-3.36
	C25.88,20.35,24.02,14.02,24,8.73z"/>
<linearGradient id="SVGID_12_" gradientUnits="userSpaceOnUse" x1="20.216" y1="9.6125" x2="20.216" y2="8.5582">
	<stop  offset="0" style="stop-color:#302C3B;stop-opacity:0.59"/>
	<stop  offset="1" style="stop-color:#302C3B;stop-opacity:0"/>
</linearGradient>
<path class="st13" d="M16.66,9.35c-0.08,0.47,6.59,0.32,7.1-0.48C24.08,8.36,16.82,8.45,16.66,9.35z"/>
<linearGradient id="SVGID_13_" gradientUnits="userSpaceOnUse" x1="50.0876" y1="25.2654" x2="61.9753" y2="25.2654" gradientTransform="matrix(1.0418 0 0 1 -15.382 0)">
	<stop  offset="0" style="stop-color:#AD1651"/>
	<stop  offset="0.3924" style="stop-color:#D3395E"/>
	<stop  offset="0.7837" style="stop-color:#F3566A"/>
	<stop  offset="1" style="stop-color:#FF616E"/>
</linearGradient>
<path class="st14" d="M46.6,24.96c-0.2-3.85-5.82-3.94-7.74-4.88c-2.21-1.07-2.91,5.03-0.76,8.19c1.05,1.54,4.47,2.83,7.04,2.1
	c1.91,0.56,3.7-0.21,3.76-0.39C50.06,26.46,47.37,26.24,46.6,24.96z"/>
<radialGradient id="SVGID_14_" cx="-328.9652" cy="331.0825" r="13.6614" gradientTransform="matrix(0.9578 -0.4564 0.541 0.98 171.3018 -455.7064)" gradientUnits="userSpaceOnUse">
	<stop  offset="0" style="stop-color:#BF0000"/>
	<stop  offset="0.1623" style="stop-color:#CC1518"/>
	<stop  offset="0.504" style="stop-color:#EE4A56"/>
	<stop  offset="0.5562" style="stop-color:#F45360"/>
</radialGradient>
<path class="st15" d="M42.52,13.43c-0.66-12.58-23.73-8.45-18.06,9.36c1.69,5.3,2.21,4.68,4.2,2.36
	C34.21,18.67,38.16,14.97,42.52,13.43z"/>
<linearGradient id="SVGID_15_" gradientUnits="userSpaceOnUse" x1="42.8911" y1="24.6876" x2="36.9966" y2="16.1463">
	<stop  offset="0" style="stop-color:#004F7D"/>
	<stop  offset="0.0194" style="stop-color:#005180"/>
	<stop  offset="0.3063" style="stop-color:#0067A4"/>
	<stop  offset="0.5741" style="stop-color:#0078BE"/>
	<stop  offset="0.8134" style="stop-color:#0082CE"/>
	<stop  offset="1" style="stop-color:#0085D4"/>
</linearGradient>
<path class="st16" d="M49.76,12.92c-5.63-0.55-10.68,0.86-13.23,2.25c-0.87,0.48-2.16-0.08-3.02-0.13c-0.81-0.05-2.45,2.5-1.7,3.1
	c0.79,0.63-2.76,3.79-3.41,6.87c-0.66,3.12,9.77,4.43,9.89,3.4c0.61-4.99,0.94-11.43,10.89-11.25
	C50.91,17.2,50.92,13.03,49.76,12.92z"/>
<linearGradient id="SVGID_16_" gradientUnits="userSpaceOnUse" x1="48.7549" y1="15.041" x2="50.4189" y2="15.041">
	<stop  offset="0" style="stop-color:#302C3B;stop-opacity:0.59"/>
	<stop  offset="1" style="stop-color:#302C3B;stop-opacity:0"/>
</linearGradient>
<path class="st17" d="M49.61,13.11c-0.92,0.1-1.21,3.93-0.28,3.85C50.73,16.86,50.74,12.99,49.61,13.11z"/>
<linearGradient id="SVGID_17_" gradientUnits="userSpaceOnUse" x1="-366.8629" y1="331.5475" x2="-344.7236" y2="331.5475" gradientTransform="matrix(0.9269 -0.4564 0.4755 0.8898 191.8271 -425.8313)">
	<stop  offset="0" style="stop-color:#FF616E"/>
	<stop  offset="0.2163" style="stop-color:#F3566A"/>
	<stop  offset="0.6076" style="stop-color:#D3395E"/>
	<stop  offset="1" style="stop-color:#AD1651"/>
</linearGradient>
<path class="st18" d="M11.64,35.93c-0.97,5.13,1.07,6.67,1.91,7.1c0.11,0.06,1.44-2.04,2.04-3.07c0.95-0.48,2.15-1.86,2.74-3.02
	c1.26-0.28,3.33-1.4,4.5-2.81c1.4-0.38,2.91-1.59,3.74-3.03c1.96-1.16,3.16-3.21,3.11-4.9c-0.03-1.06-1.6-0.85-2.76-2.44
	C24.97,21.08,9.85,23.05,11.64,35.93z"/>
</svg>
