<?xml version="1.0" encoding="utf-8"?>
<!-- Generator: Adobe Illustrator 24.1.2, SVG Export Plug-In . SVG Version: 6.00 Build 0)  -->
<svg version="1.1" id="Layer_1" xmlns="http://www.w3.org/2000/svg" xmlns:xlink="http://www.w3.org/1999/xlink" x="0px" y="0px"
	 width="64px" height="64px" viewBox="0 0 64 64" style="enable-background:new 0 0 64 64;" xml:space="preserve">
<style type="text/css">
	.st0{fill:#CF5248;}
	.st1{fill:url(#SVGID_1_);}
	.st2{fill:#DBC2BA;}
	.st3{fill:#C7A9A1;}
	.st4{fill:url(#SVGID_2_);}
	.st5{fill:url(#SVGID_3_);}
	.st6{fill:url(#SVGID_4_);}
	.st7{fill:url(#SVGID_5_);}
	.st8{fill:url(#SVGID_6_);}
</style>
<path class="st0" d="M25.43,13.37c-11.67,6.34,2.27,20.32,4.71,12.42C30.14,21.55,27.84,15.1,25.43,13.37z"/>
<linearGradient id="SVGID_1_" gradientUnits="userSpaceOnUse" x1="25.8311" y1="13.0421" x2="38.5732" y2="13.0421">
	<stop  offset="0.1515" style="stop-color:#E6DCD8"/>
	<stop  offset="0.3853" style="stop-color:#E4D8D4"/>
	<stop  offset="0.6101" style="stop-color:#DDCEC9"/>
	<stop  offset="0.8305" style="stop-color:#D2BCB5"/>
	<stop  offset="1" style="stop-color:#C7A9A1"/>
</linearGradient>
<path class="st1" d="M38.25,20.83c-0.21-0.13-0.44-0.44-0.55-0.41c-0.2,0.05-0.4-0.22-0.39-0.42c0.01-0.16-0.37-0.53-0.44-0.53
	c-0.13,0.01-0.27-0.18-0.23-0.29c0.02-0.07-0.51-0.86-0.61-0.86c-0.13-0.01-0.24-0.17-0.23-0.27c0.01-0.08-0.41-0.76-0.47-0.77
	c-0.16-0.03-0.25-0.23-0.24-0.36c0.02-0.16-0.11-0.47-0.2-0.49c-0.13-0.04-0.12-0.3-0.03-0.43c0.04-0.06,0.06-0.55-0.04-0.68
	c-0.07-0.09-0.08-0.27-0.02-0.33c0.1-0.09,0.02-0.65-0.07-0.7c-0.18-0.1-0.13-0.36-0.02-0.46c0.21-0.21,0.15-0.56,0.01-0.7
	c-0.18-0.17-0.09-0.56,0-0.69c0.2-0.32,0.15-1.31,0.04-1.4c-0.17-0.13-0.1-0.41,0.02-0.58c0.1-0.15,0.12-0.76,0.01-0.87
	c-0.13-0.13-0.09-0.38,0.03-0.52c0.11-0.13,0.07-0.64-0.02-0.76c-0.17-0.22-0.11-0.56,0.04-0.79c0.02-0.03,0.22-1.08,0.11-1.15
	c-0.14-0.09-0.15-0.39,0.02-0.49c0.11-0.07,0.18-1.06,0.08-1.12c-0.14-0.09-0.14-0.35,0.01-0.44c0.12-0.07,0.09-0.49-0.04-0.54
	c-0.13-0.05,0-0.24,0-0.36c0.02-1.93-5.63-1.88-5.66,0c0,0.12,0.14,0.31,0,0.36c-0.13,0.05-0.1,0.69,0.01,0.75
	c0.15,0.08,0.15,0.35,0.01,0.44c-0.1,0.06-0.02,1.01,0.09,1.07c0.17,0.11,0.17,0.4,0.02,0.49c-0.11,0.07,0,0.67,0.02,0.71
	c0.15,0.23,0.21,0.56,0.04,0.79c-0.09,0.12-0.09,0.9,0.02,1.03c0.11,0.14,0.16,0.39,0.02,0.52c-0.11,0.11-0.09,1.02,0.01,1.17
	c0.11,0.17,0.18,0.45,0.02,0.58c-0.12,0.09-0.13,0.61,0.07,0.92c0.08,0.13,0.18,0.52,0,0.69c-0.14,0.13-0.23,0.65-0.02,0.87
	c0.11,0.11,0.16,0.36-0.02,0.46c-0.09,0.05-0.17,0.61-0.07,0.7c0.06,0.06,0.05,0.24-0.02,0.33c-0.1,0.13-0.08,0.62-0.04,0.68
	c0.09,0.13,0.1,0.39-0.03,0.43c-0.09,0.03-0.22,0.34-0.2,0.49c0.01,0.12-0.08,0.33-0.24,0.36c-0.07,0.01-0.48,0.69-0.47,0.77
	c0.01,0.1-0.1,0.27-0.23,0.27c-0.1,0-0.63,0.79-0.61,0.86c0.04,0.11-0.1,0.3-0.23,0.29c-0.07-0.01-0.44,0.37-0.44,0.53
	c0.01,0.2-0.18,0.47-0.39,0.42c-0.11-0.03-0.34,0.28-0.55,0.41c-0.89,0.52,0.3,3.02,1.06,3.25c0.28,0.08,2.07-1.33,2.03-1.47
	c-0.05-0.2,0.23-0.45,0.45-0.39c0.12,0.03,0.77-0.8,0.74-0.89c-0.05-0.13,0.11-0.36,0.26-0.36c0.11,0,0.43-0.6,0.38-0.75
	c-0.03-0.08,0.12-0.28,0.2-0.31c0.13-0.04,0.44-0.51,0.37-0.65c-0.05-0.1,0.01-0.29,0.14-0.32c0.12-0.03,0.7-0.52,0.81-0.49
	c0.13,0.03,0.19,0.21,0.14,0.32c-0.07,0.14,0.19,0.8,0.32,0.85c0.08,0.03,0.22,0.23,0.2,0.31c-0.05,0.15,0.22,0.88,0.33,0.88
	c0.16,0,0.32,0.23,0.26,0.36c-0.04,0.09,0.73,1.1,0.85,1.06c0.22-0.06,0.5,0.19,0.45,0.39c-0.03,0.14,1.75,1.55,2.03,1.47
	C37.95,23.85,39.15,21.36,38.25,20.83z"/>
<path class="st2" d="M31.12,3.82c0,0,3.68,0.68,3.91-0.03c-0.05-0.08-0.01-0.29-0.01-0.29C34.74,4.1,31.12,3.82,31.12,3.82z"/>
<path class="st2" d="M32.23,15.92c0,0-1.89-0.3-2.63-0.93c0,0,0.06,0.19-0.02,0.33C29.86,16.25,32.23,15.92,32.23,15.92z"/>
<path class="st3" d="M29.31,16.92c0,0-0.03,0.25-0.24,0.36c0.31,0.41,0.7,2.1,2.58,1.98c0-0.19,0.11-0.31,0.11-0.31
	C29.82,18.96,29.62,17.18,29.31,16.92z"/>
<path class="st3" d="M28.59,18.05c0,0-0.02,0.17-0.23,0.27c0.31,0.41,0.82,2.02,2.71,1.9c0.06-0.19,0.16-0.29,0.16-0.29
	C29.29,19.93,28.91,18.31,28.59,18.05z"/>
<path class="st3" d="M27.76,19.19c0,0-0.02,0.18-0.23,0.29c0.31,0.42,0.99,1.98,2.91,1.86c0.01-0.24,0.24-0.36,0.24-0.36
	C28.71,20.98,28.08,19.45,27.76,19.19z"/>
<path class="st3" d="M27.09,20.06c0,0-0.08,0.31-0.39,0.37c0.31,0.43,0.4,1.89,2.55,2.19c0.01-0.24,0.41-0.39,0.41-0.39
	C27.63,22,27.41,20.33,27.09,20.06z"/>
<path class="st3" d="M29.39,4.54c0,0,0.13,0.24,0.01,0.44c0.29,0.79,5.41,0.59,5.65-0.22c-0.12-0.2,0.01-0.44,0.01-0.44
	C33.72,5.28,30.69,5.33,29.39,4.54z"/>
<path class="st2" d="M31.68,6.82c0,0,2.97,0.45,3.27-0.45c-0.13-0.22,0.02-0.49,0.02-0.49C33.73,6.8,31.68,6.82,31.68,6.82z"/>
<path class="st3" d="M29.54,7.25c0,0,0.17,0.44,0.1,0.68c0.34,0.87,4.89,1.17,5.09,0.27c-0.07-0.24,0.1-0.68,0.1-0.68
	C33.7,8.73,30.63,8.27,29.54,7.25z"/>
<path class="st2" d="M29.61,9.09c0,0,0.11,0.28,0.02,0.49c0.23,0.94,2.56,0.43,2.56,0.43S30.64,10.04,29.61,9.09z"/>
<path class="st3" d="M29.65,10.79c0,0,0.1,0.34-0.01,0.54c0.33,1.02,4.88,0.76,5.11-0.3c-0.1-0.21-0.01-0.54-0.01-0.54
	C33.95,11.58,30.44,11.89,29.65,10.79z"/>
<path class="st2" d="M31.76,13.21c0,0,2.67,0.72,2.92-0.13c-0.08-0.14,0.01-0.6,0.01-0.6C34.38,13.33,31.76,13.21,31.76,13.21z"/>
<path class="st3" d="M29.7,13.82c0,0,0.11,0.27,0,0.45c0.38,0.77,4.81,0.78,5.02,0c-0.11-0.18,0-0.45,0-0.45
	C34.22,14.45,30.22,14.47,29.7,13.82z"/>
<path class="st3" d="M34.89,16.43c-0.14-0.14-0.04-0.41-0.04-0.41c-0.78,1.2-4.46,1.2-5.3,0c0,0,0.1,0.27-0.04,0.41
	C29.92,17.85,34.74,17.86,34.89,16.43z"/>
<path class="st3" d="M35.34,17.28c-0.21-0.1-0.24-0.36-0.24-0.36c-0.32,0.26-0.53,1.54-2.47,1.54c0,0,0.1,0.12,0.11,0.31
	C34.61,18.88,35.03,17.69,35.34,17.28z"/>
<path class="st3" d="M36.04,18.32c-0.21-0.11-0.23-0.27-0.23-0.27c-0.32,0.26-0.77,1.58-2.72,1.58c0,0,0.1,0.1,0.16,0.29
	C35.15,20.04,35.73,18.74,36.04,18.32z"/>
<path class="st3" d="M36.88,19.48c-0.21-0.11-0.23-0.29-0.23-0.29c-0.32,0.27-1.07,1.62-3.03,1.62c0,0,0.23,0.12,0.24,0.36
	C35.76,21.28,36.57,19.9,36.88,19.48z"/>
<path class="st3" d="M37.32,20.06C37,20.33,36.78,22,34.75,22.22c0,0,0.4,0.15,0.41,0.39c2.15-0.29,2.24-1.76,2.55-2.19
	C37.4,20.36,37.32,20.06,37.32,20.06z"/>
<path class="st0" d="M8.12,59.29c-0.17,1.39,14.75,2.82,18-1.65C38.1,41.13,10.55,39.25,8.12,59.29z"/>
<linearGradient id="SVGID_2_" gradientUnits="userSpaceOnUse" x1="-562" y1="249.2555" x2="-549.1975" y2="249.2555" gradientTransform="matrix(1 0 0 -1 564 300)">
	<stop  offset="0" style="stop-color:#FF8A8A"/>
	<stop  offset="0.2369" style="stop-color:#FA8382"/>
	<stop  offset="0.6073" style="stop-color:#ED716C"/>
	<stop  offset="1" style="stop-color:#DB574D"/>
</linearGradient>
<path class="st4" d="M5.12,39.49c-2.34,1.34-0.95,7.07-1.98,9.94c-4.02,11.12,3.31,17.67,11.25,7.57C17,53.66,6.48,39.7,5.12,39.49z
	"/>
<linearGradient id="SVGID_3_" gradientUnits="userSpaceOnUse" x1="-559.1979" y1="255.2357" x2="-533.2374" y2="255.2357" gradientTransform="matrix(1 0 0 -1 564 300)">
	<stop  offset="0" style="stop-color:#FF8A8A"/>
	<stop  offset="0.5782" style="stop-color:#E96A64"/>
	<stop  offset="1" style="stop-color:#DB574D"/>
</linearGradient>
<path class="st5" d="M6.11,35.26c-1.22,0.78-1.55,2.63-1.13,4.5C10.5,64.3,28.5,59.4,30.53,45.24C33.51,24.42,7.47,35.47,6.11,35.26
	z"/>
<linearGradient id="SVGID_4_" gradientUnits="userSpaceOnUse" x1="-558.2035" y1="271.7334" x2="-533.0204" y2="271.7334" gradientTransform="matrix(1 0 0 -1 564 300)">
	<stop  offset="0" style="stop-color:#FF8A8A"/>
	<stop  offset="0.2369" style="stop-color:#FA8382"/>
	<stop  offset="0.6073" style="stop-color:#ED716C"/>
	<stop  offset="1" style="stop-color:#DB574D"/>
</linearGradient>
<path class="st6" d="M10.17,27.39c-1.33,3.23-4.04,3.45-4.34,6.94c-1,11.67,25.88,11.68,25.14,4.62c-0.59-5.58,0.83-12.45-1.88-14.7
	c-5.42-4.49-6.3-5.66-3.18-9.73C27.88,11.95,17.47,9.62,10.17,27.39z"/>
<path class="st0" d="M37.22,36.96c15.3-0.09,18.95,22.31,12.19,23.73c-6.56,1.38-9.92-0.72-11.05-3.08
	C36.35,53.42,40.4,45.31,37.22,36.96z"/>
<linearGradient id="SVGID_5_" gradientUnits="userSpaceOnUse" x1="-515.8565" y1="252.5755" x2="-502" y2="252.5755" gradientTransform="matrix(1 0 0 -1 564 300)">
	<stop  offset="0" style="stop-color:#FF8A8A"/>
	<stop  offset="0.2369" style="stop-color:#FA8382"/>
	<stop  offset="0.6073" style="stop-color:#ED716C"/>
	<stop  offset="1" style="stop-color:#DB574D"/>
</linearGradient>
<path class="st7" d="M57.33,33.17c3.53-1.71,7.93,28.82,1.03,28.58c-10.22-0.36-7.69-3.25-9.83-2.75
	C47.39,54.49,48.32,37.54,57.33,33.17z"/>
<linearGradient id="SVGID_6_" gradientUnits="userSpaceOnUse" x1="-530.3172" y1="264.0678" x2="-505.6396" y2="264.0678" gradientTransform="matrix(1 0 0 -1 564 300)">
	<stop  offset="0" style="stop-color:#FF8A8A"/>
	<stop  offset="0.2369" style="stop-color:#FA8382"/>
	<stop  offset="0.6073" style="stop-color:#ED716C"/>
	<stop  offset="1" style="stop-color:#DB574D"/>
</linearGradient>
<path class="st8" d="M51.7,18.14c1.93,2.9-0.05,3.92,5.54,12.3c2.61,3.92,0.67,17.3-5.85,26.67c-4.31,6.19-12.36,0.92-10.36-2.57
	c8.93-15.54-2.05-13.97-5.22-17.56c-2.82-3.2-2.58-8.48-0.76-11.52c3.13-5.21,3.22-6.35,3.13-9.94
	C38.09,12.27,45.14,8.27,51.7,18.14z"/>
</svg>
