<?xml version="1.0" encoding="utf-8"?>
<!-- Generator: Adobe Illustrator 15.0.0, SVG Export Plug-In . SVG Version: 6.00 Build 0)  -->
<!DOCTYPE svg PUBLIC "-//W3C//DTD SVG 1.1//EN" "http://www.w3.org/Graphics/SVG/1.1/DTD/svg11.dtd" [
	<!ENTITY ns_flows "http://ns.adobe.com/Flows/1.0/">
	<!ENTITY ns_extend "http://ns.adobe.com/Extensibility/1.0/">
	<!ENTITY ns_ai "http://ns.adobe.com/AdobeIllustrator/10.0/">
	<!ENTITY ns_graphs "http://ns.adobe.com/Graphs/1.0/">
]>
<svg version="1.1" id="Layer_1" xmlns:x="&ns_extend;" xmlns:i="&ns_ai;" xmlns:graph="&ns_graphs;"
	 xmlns="http://www.w3.org/2000/svg" xmlns:xlink="http://www.w3.org/1999/xlink" xmlns:a="http://ns.adobe.com/AdobeSVGViewerExtensions/3.0/"
	 x="0px" y="0px" width="64px" height="64px" viewBox="0 0 64 64" enable-background="new 0 0 64 64" xml:space="preserve">
<linearGradient id="SVGID_1_" gradientUnits="userSpaceOnUse" x1="895.0713" y1="260.1748" x2="891.7222" y2="250.41" gradientTransform="matrix(0.3895 -0.1138 0.2805 0.9599 -362.6171 -117.7622)">
	<stop  offset="0" style="stop-color:#FFA959"/>
	<stop  offset="0.5799" style="stop-color:#D07725"/>
	<stop  offset="0.8667" style="stop-color:#BD6411"/>
	<a:midPointStop  offset="0" style="stop-color:#FFA959"/>
	<a:midPointStop  offset="0.4545" style="stop-color:#FFA959"/>
	<a:midPointStop  offset="0.8667" style="stop-color:#BD6411"/>
</linearGradient>
<path fill="url(#SVGID_1_)" d="M63.951,22.854c-0.356,3.576-6.472,9.61-10.062,10.149c-3.935,0.59-3.453-5.829-1.006-8.95
	C56.242,19.767,64.153,20.821,63.951,22.854z"/>
<linearGradient id="SVGID_2_" gradientUnits="userSpaceOnUse" x1="-120.564" y1="263.8574" x2="-129.9124" y2="236.6005" gradientTransform="matrix(0.9599 -0.2805 0.2805 0.9599 81.9027 -247.722)">
	<stop  offset="0" style="stop-color:#FFA959"/>
	<stop  offset="0.515" style="stop-color:#FFCE6E"/>
	<stop  offset="0.8667" style="stop-color:#FFE27A"/>
	<a:midPointStop  offset="0" style="stop-color:#FFA959"/>
	<a:midPointStop  offset="0.4545" style="stop-color:#FFA959"/>
	<a:midPointStop  offset="0.8667" style="stop-color:#FFE27A"/>
</linearGradient>
<path fill="url(#SVGID_2_)" d="M63.726,23.206c-4.869,4.348-23.212,20.778-42.367,31.947C13.709,59.612-1.201,32.372,5.727,27.88
	c9.506-6.162,34.237-19.552,39.9-20.857C48.522,6.354,66.413,20.806,63.726,23.206z"/>
<path opacity="0.2" fill="#FC4E00" d="M8.096,27.526c3.126-2,6.308-3.896,9.516-5.747c3.205-1.854,6.463-3.608,9.727-5.352
	c3.292-1.682,6.592-3.351,9.958-4.872c3.37-1.5,6.765-2.985,10.302-4.011c-1.719,0.662-3.4,1.413-5.068,2.199
	c-1.673,0.768-3.333,1.567-4.983,2.389c-3.306,1.637-6.598,3.294-9.858,5.03c-3.285,1.679-6.533,3.44-9.796,5.172
	C14.63,24.068,11.378,25.823,8.096,27.526z"/>
<path opacity="0.2" fill="#FC4E00" d="M12.418,27.526c2.844-2.02,5.813-3.836,8.826-5.564c3.013-1.729,6.097-3.316,9.187-4.887
	c3.118-1.51,6.245-2.995,9.416-4.376c3.173-1.377,6.365-2.704,9.613-3.875l-9.369,4.454c-3.117,1.497-6.24,2.975-9.323,4.539
	c-3.11,1.506-6.179,3.098-9.243,4.703C18.462,24.129,15.428,25.798,12.418,27.526z"/>
<path opacity="0.2" fill="#FC4E00" d="M14.837,28.61c2.903-1.869,5.879-3.614,8.885-5.297c3.007-1.684,6.069-3.256,9.136-4.816
	c3.094-1.499,6.195-2.983,9.345-4.354c3.149-1.365,6.321-2.682,9.56-3.807c-3.118,1.443-6.225,2.902-9.318,4.386
	c-3.091,1.487-6.189,2.962-9.25,4.518c-3.088,1.494-6.136,3.074-9.197,4.635L14.837,28.61z"/>
<path opacity="0.2" fill="#FC4E00" d="M17.034,30.317c2.841-2.006,5.798-3.827,8.801-5.559c3.003-1.732,6.079-3.317,9.167-4.878
	c3.114-1.496,6.244-2.963,9.421-4.31c3.178-1.341,6.379-2.623,9.642-3.724c-3.146,1.421-6.282,2.847-9.404,4.307
	c-3.121,1.463-6.243,2.919-9.324,4.473c-3.104,1.491-6.167,3.082-9.219,4.688C23.063,26.925,20.042,28.603,17.034,30.317z"/>
<path opacity="0.2" fill="#FC4E00" d="M19.168,32.416c2.804-2.007,5.717-3.845,8.671-5.604c2.954-1.76,5.976-3.386,9.007-4.996
	c3.059-1.548,6.127-3.074,9.245-4.489c3.117-1.411,6.257-2.772,9.459-3.968l-9.208,4.544c-3.059,1.531-6.123,3.048-9.148,4.65
	c-3.052,1.544-6.059,3.176-9.067,4.813C25.122,29.006,22.142,30.699,19.168,32.416z"/>
<path opacity="0.2" fill="#FC4E00" d="M21.178,34.783c2.781-2.046,5.654-3.951,8.569-5.782c2.914-1.836,5.897-3.545,8.889-5.234
	c3.021-1.634,6.054-3.241,9.143-4.732c3.088-1.486,6.203-2.919,9.389-4.163c-3.055,1.558-6.099,3.132-9.125,4.732
	c-3.026,1.606-6.055,3.204-9.04,4.889c-3.015,1.627-5.983,3.341-8.954,5.055C27.079,31.261,24.132,33.024,21.178,34.783z"/>
<path opacity="0.2" fill="#FC4E00" d="M22.895,38.366c2.773-2.192,5.63-4.268,8.525-6.279c2.894-2.014,5.86-3.915,8.836-5.794
	c3.01-1.823,6.033-3.62,9.126-5.286c3.093-1.661,6.22-3.264,9.447-4.623c-3.088,1.668-6.134,3.407-9.16,5.181
	c-3.023,1.777-6.042,3.563-9.014,5.435c-3.003,1.816-5.953,3.724-8.912,5.619L22.895,38.366z"/>
<path opacity="0.2" fill="#FC4E00" d="M23.99,41.474c2.882-2.241,5.825-4.388,8.793-6.497c2.966-2.111,5.989-4.137,9.012-6.16
	c3.057-1.968,6.118-3.931,9.245-5.776c3.133-1.833,6.288-3.644,9.582-5.146c-1.575,0.9-3.13,1.833-4.665,2.8
	c-1.548,0.944-3.083,1.91-4.61,2.893c-3.057,1.954-6.114,3.907-9.135,5.926c-3.053,1.962-6.065,3.995-9.101,5.991
	C30.079,37.502,27.052,39.515,23.99,41.474z"/>
<path opacity="0.2" fill="#FC4E00" d="M23.769,45.572c3.079-2.313,6.203-4.556,9.332-6.788l9.432-6.629l9.511-6.506
	c3.181-2.148,6.368-4.288,9.584-6.39c-3.03,2.384-6.137,4.655-9.249,6.916c-3.114,2.257-6.271,4.45-9.411,6.664
	c-3.176,2.159-6.335,4.348-9.534,6.471C30.235,41.433,27.027,43.544,23.769,45.572z"/>
<path opacity="0.2" fill="#FC4E00" d="M23.069,49.191c3.308-2.381,6.647-4.701,9.978-7.034l9.995-6.992
	c3.347-2.308,6.653-4.674,9.965-7.034c1.658-1.176,3.307-2.368,4.946-3.575c1.651-1.188,3.281-2.406,4.897-3.649
	c-3.035,2.752-6.258,5.262-9.495,7.741c-3.244,2.473-6.561,4.837-9.876,7.201c-3.352,2.308-6.702,4.615-10.105,6.838
	C29.972,44.911,26.549,47.099,23.069,49.191z"/>
<path opacity="0.2" fill="#FC4E00" d="M20.956,53.311l10.894-7.331c3.615-2.468,7.229-4.931,10.775-7.501
	c3.583-2.514,7.1-5.127,10.587-7.781c1.748-1.322,3.477-2.673,5.184-4.051c1.722-1.362,3.413-2.764,5.069-4.216
	c-3.104,3.152-6.477,5.998-9.888,8.773c-3.423,2.766-6.953,5.381-10.509,7.954c-3.592,2.519-7.207,4.996-10.895,7.354
	C28.484,48.869,24.755,51.156,20.956,53.311z"/>
<linearGradient id="SVGID_3_" gradientUnits="userSpaceOnUse" x1="-133.585" y1="277.1699" x2="-152.2606" y2="252.4204" gradientTransform="matrix(0.9599 -0.2805 0.2805 0.9599 81.9027 -247.722)">
	<stop  offset="0" style="stop-color:#F09641"/>
	<stop  offset="0.1391" style="stop-color:#F3A34A"/>
	<stop  offset="0.4758" style="stop-color:#FABF5B"/>
	<stop  offset="0.7738" style="stop-color:#FECF65"/>
	<stop  offset="1" style="stop-color:#FFD569"/>
	<a:midPointStop  offset="0" style="stop-color:#F09641"/>
	<a:midPointStop  offset="0.3515" style="stop-color:#F09641"/>
	<a:midPointStop  offset="1" style="stop-color:#FFD569"/>
</linearGradient>
<path fill="url(#SVGID_3_)" d="M24.998,39.322c2.282,8.225,0.657,15.868-7.967,17.438C9.283,58.169,4.551,53.218,1.327,45.35
	c-2.869-7.001-1.386-17.082,7.438-18.376C15.619,25.97,22.714,31.097,24.998,39.322z"/>
<radialGradient id="SVGID_4_" cx="-133.6113" cy="259.2275" r="11.2894" gradientTransform="matrix(0.8669 -0.4894 0.6007 1.1796 -27.3449 -328.5522)" gradientUnits="userSpaceOnUse">
	<stop  offset="0.4667" style="stop-color:#FFEFB0"/>
	<stop  offset="0.5512" style="stop-color:#FEECAA"/>
	<stop  offset="0.6604" style="stop-color:#FBE39A"/>
	<stop  offset="0.783" style="stop-color:#F5D480"/>
	<stop  offset="0.9145" style="stop-color:#EEC05B"/>
	<stop  offset="1" style="stop-color:#E8B13F"/>
	<a:midPointStop  offset="0.4667" style="stop-color:#FFEFB0"/>
	<a:midPointStop  offset="0.6531" style="stop-color:#FFEFB0"/>
	<a:midPointStop  offset="1" style="stop-color:#E8B13F"/>
</radialGradient>
<path fill="url(#SVGID_4_)" d="M23.64,40.063c2.097,7.553,0.605,14.573-7.313,16.013C9.212,57.37,4.868,52.824,1.906,45.599
	c-2.632-6.428-1.271-15.686,6.829-16.874C15.029,27.804,21.544,32.512,23.64,40.063z"/>
<path fill="#594640" d="M17.823,53.665c-6.757,3.506-4.673-5.023-4.673-5.023L17.823,53.665z"/>
<path fill="#785647" d="M20.043,48.125c-1.265-1.529-6.317,0.701-6.317,0.701s3.38,5.692,4.671,5.023
	C19.459,53.297,20.996,49.28,20.043,48.125z"/>
<path fill="#785647" d="M3.095,45.703c-4.191-7.723,3.487-5.569,3.487-5.569L3.095,45.703z"/>
<path fill="#594640" d="M7.845,47.992c1.09-1.515-1.712-7.301-1.712-7.301s-4.288,4.094-3.485,5.57
	C3.306,47.476,7.021,49.131,7.845,47.992z"/>
<path fill="#785647" d="M9.047,50.442c-4.191-7.723,3.489-5.567,3.489-5.567L9.047,50.442z"/>
<path fill="#594640" d="M13.505,53.604c1.092-1.511-1.708-7.3-1.708-7.3s-4.289,4.1-3.489,5.572
	C8.968,53.089,12.683,54.744,13.505,53.604z"/>
<path fill="#594640" d="M4.237,43.309c-4.716-8.686,3.925-6.261,3.925-6.261L4.237,43.309z"/>
<path fill="#785647" d="M10.325,45.57c1.229-1.703-1.919-8.206-1.919-8.206s-4.827,4.602-3.927,6.26
	C5.22,44.987,9.402,46.854,10.325,45.57z"/>
<path fill="#594640" d="M5.992,37.93c-4.189-7.718,3.493-5.569,3.493-5.569L5.992,37.93z"/>
<path fill="#785647" d="M11.192,39.663c1.092-1.514-1.707-7.303-1.707-7.303s-4.294,4.096-3.493,5.569
	C6.652,39.146,10.369,40.801,11.192,39.663z"/>
<path fill="#594640" d="M10.406,44.803c-4.717-8.689,3.927-6.265,3.927-6.265L10.406,44.803z"/>
<path fill="#785647" d="M17.06,46.317c1.23-1.705-1.919-8.208-1.919-8.208s-4.829,4.603-3.927,6.263
	C11.953,45.735,16.135,47.601,17.06,46.317z"/>
<path fill="#594640" d="M15.645,46.877c-1.578-8.778,5.07-3.678,5.07-3.678L15.645,46.877z"/>
<path fill="#785647" d="M20.057,50.58c1.511-0.941,0.658-7.381,0.658-7.381s-5.372,2-5.07,3.678
	C15.893,48.258,18.917,51.287,20.057,50.58z"/>
<path fill="#785647" d="M9.176,37.706c-4.193-7.725,3.49-5.569,3.49-5.569L9.176,37.706z"/>
<path fill="#594640" d="M14.375,39.436c1.091-1.513-1.708-7.299-1.708-7.299s-4.291,4.096-3.49,5.569
	C9.834,38.92,13.551,40.576,14.375,39.436z"/>
<path fill="#594640" d="M13.312,38.995c4.019,7.398,5.775-0.864,5.775-0.864L13.312,38.995z"/>
<path fill="#785647" d="M14.507,31.771c1.634-0.371,4.794,4.846,4.794,4.846s-5.005,2.279-5.774,0.865
	C12.898,36.324,13.281,32.048,14.507,31.771z"/>
<path fill="#594640" d="M22.191,41.985c-1.725,9.607-6.513,1.004-6.513,1.004L22.191,41.985z"/>
<path fill="#785647" d="M18.424,35.489c-1.883,0.141-3.456,7.024-3.456,7.024s6.185,0.83,6.515-1.004
	C21.755,40.005,19.845,35.379,18.424,35.489z"/>
<path fill="#594640" d="M11.545,48.654c-3.274-6.031,2.723-4.347,2.723-4.347L11.545,48.654z"/>
<path fill="#785647" d="M15.601,50.005c0.855-1.184-1.333-5.697-1.333-5.697s-3.35,3.192-2.723,4.347
	C12.06,49.601,14.959,50.893,15.601,50.005z"/>
<path fill="#AB6647" d="M11.858,43.958c-0.924-0.856-4.876,1.698-4.481,3.194C8.535,48.165,12.16,45.219,11.858,43.958z"/>
<path fill="#AB6647" d="M17.806,33.175c-0.921-0.855-4.871,1.695-4.481,3.189C14.487,37.382,18.111,34.438,17.806,33.175z"/>
<path fill="#AB6647" d="M11.152,34.391c0.002-1.319-4.336-3.697-5.125-2.532C6.068,33.492,10.468,35.345,11.152,34.391z"/>
<path fill="#AB6647" d="M18.936,51.831c0.003-1.323-4.337-3.696-5.126-2.534C13.855,50.93,18.252,52.784,18.936,51.831z"/>
<path fill="#AB6647" d="M22.347,42.457c0.002-1.315-4.333-3.692-5.125-2.532C17.266,41.558,21.662,43.414,22.347,42.457z"/>
<path fill="#AB6647" d="M20.341,52.276c0.923-0.699-0.223-6.041-1.544-6.17C17.685,47.006,19.232,52.134,20.341,52.276z"/>
<path fill="#AB6647" d="M10.645,36.059c1.081,0.496,4.071-3.409,3.309-4.727C12.604,30.767,10.026,34.937,10.645,36.059z"/>
<path fill="#AB6647" d="M16.354,40.826c1.083,0.5,4.072-3.408,3.31-4.722C18.312,35.534,15.735,39.705,16.354,40.826z"/>
<path fill="#AB6647" d="M2.443,45.298c1.082,0.501,4.073-3.407,3.309-4.721C4.405,40.007,1.824,44.178,2.443,45.298z"/>
<path fill="#AB6647" d="M2.497,39.344c1.084,0.502,4.073-3.407,3.31-4.719C4.457,34.053,1.875,38.226,2.497,39.344z"/>
<path fill="#AB6647" d="M13.974,48.145c1.086,0.5,4.074-3.41,3.31-4.722C15.936,42.85,13.356,47.022,13.974,48.145z"/>
<path fill="#AB6647" d="M11.496,54.643c0.719,1.083,5.175-0.159,5.119-1.698C15.694,51.637,11.474,53.354,11.496,54.643z"/>
<path fill="#AB6647" d="M8.229,37.971c0.35,1.285,5.008,2.034,5.434,0.622C13.187,37.017,8.609,36.794,8.229,37.971z"/>
<path fill="#AB6647" d="M6.125,51.142c0.353,1.285,5.011,2.035,5.438,0.619C11.087,50.188,6.507,49.961,6.125,51.142z"/>
<path fill="#AB6647" d="M6.167,38.742c-0.669,1.014,1.816,5.802,3.079,5.456C10.037,42.917,7.234,38.479,6.167,38.742z"/>
<path fill="#593A30" d="M17.154,45.936c-3.617,0.806-1.063,7.225,1.814,1.121C21.81,41.039,16.382,41.849,17.154,45.936z"/>
<path fill="#593A30" d="M13.358,48.74c3.279-1.804-0.482-7.432-1.963-0.599C9.929,54.884,14.937,52.563,13.358,48.74z"/>
<path fill="#593A30" d="M6.979,48.273c-2.141,3.242,3.449,6.571,1.962-0.401C7.476,40.99,4.031,45.541,6.979,48.273z"/>
<path fill="#8F563B" d="M9.295,41.537c0.4,3.778,3.662,4.07,5.613,3.198C16.9,43.849,9.025,38.905,9.295,41.537z"/>
<path fill="#8F563B" d="M3.91,47.878c1.209,3.045,3.009,1.83,3.807,0.224C8.523,46.456,3.062,45.748,3.91,47.878z"/>
<path fill="#8F563B" d="M3.26,34.992c1.265,3.186,3.149,1.923,3.986,0.233C8.089,33.507,2.375,32.764,3.26,34.992z"/>
<path fill="#8F563B" d="M17.359,35.54c-2.458-1.568-2.812,1.461-2.347,3.806C15.489,41.744,19.073,36.64,17.359,35.54z"/>
<path fill="#8F563B" d="M15.195,49.732c-2.423-1.549-2.771,1.438-2.313,3.752C13.35,55.849,16.885,50.813,15.195,49.732z"/>
<path fill="#8F563B" d="M21.944,43.214c-2.457,0.788-1.905,3.728-0.868,5.358C22.134,50.24,23.666,42.661,21.944,43.214z"/>
<path fill="#593A30" d="M13.365,38.433c-2.663,2.819,2.21,7.145,1.991-0.036C15.141,31.311,10.974,35.185,13.365,38.433z"/>
<linearGradient id="SVGID_5_" gradientUnits="userSpaceOnUse" x1="145.4307" y1="-433.5972" x2="141.7314" y2="-438.4996" gradientTransform="matrix(0.8812 0.4728 -0.4728 0.8812 -304.4516 336.3285)">
	<stop  offset="0" style="stop-color:#DB893C"/>
	<stop  offset="0.2187" style="stop-color:#DD8D3F"/>
	<stop  offset="0.4555" style="stop-color:#E39A46"/>
	<stop  offset="0.7007" style="stop-color:#EDB053"/>
	<stop  offset="0.9503" style="stop-color:#FCCE65"/>
	<stop  offset="1" style="stop-color:#FFD569"/>
	<a:midPointStop  offset="0" style="stop-color:#DB893C"/>
	<a:midPointStop  offset="0.6909" style="stop-color:#DB893C"/>
	<a:midPointStop  offset="1" style="stop-color:#FFD569"/>
</linearGradient>
<path fill="url(#SVGID_5_)" d="M30.66,22.489c-2.032-2.674-6.208-4.138-8.529-4.153c0.11-0.935,2.189-1.157,3.352-2.138
	c1.376-1.162,6.546,0.411,8.269,3.14C35.479,22.066,31.224,23.23,30.66,22.489z"/>
<linearGradient id="SVGID_6_" gradientUnits="userSpaceOnUse" x1="-1704.0244" y1="-778.4839" x2="-1710.2677" y2="-786.7576" gradientTransform="matrix(-0.6481 -0.7616 -0.7616 0.6481 -1664.0443 -761.9918)">
	<stop  offset="0" style="stop-color:#DB893C"/>
	<stop  offset="0.2187" style="stop-color:#DD8D3F"/>
	<stop  offset="0.4555" style="stop-color:#E39A46"/>
	<stop  offset="0.7007" style="stop-color:#EDB053"/>
	<stop  offset="0.9503" style="stop-color:#FCCE65"/>
	<stop  offset="1" style="stop-color:#FFD569"/>
	<a:midPointStop  offset="0" style="stop-color:#DB893C"/>
	<a:midPointStop  offset="0.6909" style="stop-color:#DB893C"/>
	<a:midPointStop  offset="1" style="stop-color:#FFD569"/>
</linearGradient>
<path fill="url(#SVGID_6_)" d="M32.775,25.081c7.391,4.078,9.433,13.313,9.937,15.728c0.903,0.586,1.728-1.438,3.068-2.111
	c1.481-0.745-1.557-11.885-9.392-17.407C33.813,19.479,31.978,24.643,32.775,25.081z"/>
<linearGradient id="SVGID_7_" gradientUnits="userSpaceOnUse" x1="-123.9204" y1="-753.6704" x2="-128.5761" y2="-759.8403" gradientTransform="matrix(0.8785 0.9586 -0.7372 0.6756 -419.3377 649.3575)">
	<stop  offset="0" style="stop-color:#DB893C"/>
	<stop  offset="0.2187" style="stop-color:#DD8D3F"/>
	<stop  offset="0.4555" style="stop-color:#E39A46"/>
	<stop  offset="0.7007" style="stop-color:#EDB053"/>
	<stop  offset="0.9503" style="stop-color:#FCCE65"/>
	<stop  offset="1" style="stop-color:#FFD569"/>
	<a:midPointStop  offset="0" style="stop-color:#DB893C"/>
	<a:midPointStop  offset="0.6909" style="stop-color:#DB893C"/>
	<a:midPointStop  offset="1" style="stop-color:#FFD569"/>
</linearGradient>
<path fill="url(#SVGID_7_)" d="M31.279,22.603c-1.693-3.944-6.182-8.663-8.777-9.979c-1.948-0.989,1.716-0.756,2.748-2.047
	c1.142-1.432,6.452,3.854,7.787,7.683C34.374,22.094,31.75,23.699,31.279,22.603z"/>
<linearGradient id="SVGID_8_" gradientUnits="userSpaceOnUse" x1="-1556.1807" y1="-308.998" x2="-1560.4919" y2="-314.7115" gradientTransform="matrix(-1.2171 -0.4575 -0.3518 0.9361 -1964.9932 -394.1278)">
	<stop  offset="0" style="stop-color:#DB893C"/>
	<stop  offset="0.2187" style="stop-color:#DD8D3F"/>
	<stop  offset="0.4555" style="stop-color:#E39A46"/>
	<stop  offset="0.7007" style="stop-color:#EDB053"/>
	<stop  offset="0.9503" style="stop-color:#FCCE65"/>
	<stop  offset="1" style="stop-color:#FFD569"/>
	<a:midPointStop  offset="0" style="stop-color:#DB893C"/>
	<a:midPointStop  offset="0.6909" style="stop-color:#DB893C"/>
	<a:midPointStop  offset="1" style="stop-color:#FFD569"/>
</linearGradient>
<path fill="url(#SVGID_8_)" d="M35.126,25.396c4.063,0.203,9.843,2.884,11.958,4.962c1.586,1.558,0.017-1.979,0.757-3.482
	c0.818-1.664-5.762-4.945-9.592-4.84C34.416,22.143,33.997,25.339,35.126,25.396z"/>
<linearGradient id="SVGID_9_" gradientUnits="userSpaceOnUse" x1="-13.5615" y1="116.4238" x2="-9.1482" y2="110.8619" gradientTransform="matrix(0.9944 -0.1062 0.1062 0.9944 33.255 -91.9426)">
	<stop  offset="0" style="stop-color:#F09641"/>
	<stop  offset="0.147" style="stop-color:#F3A148"/>
	<stop  offset="0.7055" style="stop-color:#FCC760"/>
	<stop  offset="1" style="stop-color:#FFD569"/>
	<a:midPointStop  offset="0" style="stop-color:#F09641"/>
	<a:midPointStop  offset="0.4364" style="stop-color:#F09641"/>
	<a:midPointStop  offset="1" style="stop-color:#FFD569"/>
</linearGradient>
<path fill="url(#SVGID_9_)" d="M31.003,19.961c2.414-3.294,3.436-1.242,5.965,0.413c3.685,2.411,1.33,0.589-0.411,4.482
	c-1.521,3.402-1.41,2.695-4.306-0.11C29.351,21.938,28.001,24.056,31.003,19.961z"/>
</svg>
