<?xml version="1.0" encoding="utf-8"?>
<!-- Generator: Adobe Illustrator 24.1.2, SVG Export Plug-In . SVG Version: 6.00 Build 0)  -->
<svg version="1.1" id="Layer_1" xmlns="http://www.w3.org/2000/svg" xmlns:xlink="http://www.w3.org/1999/xlink" x="0px" y="0px"
	 width="64px" height="64px" viewBox="0 0 64 64" style="enable-background:new 0 0 64 64;" xml:space="preserve">
<style type="text/css">
	.st0{fill:url(#SVGID_1_);}
	.st1{fill:#828385;}
	.st2{fill:#FFFFFF;}
</style>
<linearGradient id="SVGID_1_" gradientUnits="userSpaceOnUse" x1="32" y1="23.9375" x2="32" y2="47.702" gradientTransform="matrix(1 0 0 -1 0 66)">
	<stop  offset="0.9139" style="stop-color:#B0B1B3"/>
	<stop  offset="0.9161" style="stop-color:#B4B5B7"/>
	<stop  offset="0.9274" style="stop-color:#C2C3C5"/>
	<stop  offset="0.9414" style="stop-color:#CACBCD"/>
	<stop  offset="0.9665" style="stop-color:#CCCDCF"/>
	<stop  offset="0.9799" style="stop-color:#ACADAF"/>
	<stop  offset="0.9922" style="stop-color:#969699"/>
	<stop  offset="1" style="stop-color:#8E8E91"/>
</linearGradient>
<path class="st0" d="M62.51,46H1.49C0.67,46,0,45.3,0,44.44V19.28C0,18.57,0.55,18,1.22,18h61.56c0.67,0,1.22,0.57,1.22,1.28v25.16
	C64,45.3,63.33,46,62.51,46z"/>
<path class="st1" d="M4.83,26.01H1.88c-0.27,0-0.49-0.23-0.49-0.51v-3.11c0-0.28,0.22-0.51,0.49-0.51h2.96
	c0.27,0,0.49,0.23,0.49,0.51v3.11C5.32,25.78,5.1,26.01,4.83,26.01z"/>
<path class="st1" d="M9.12,26.01H6.16c-0.27,0-0.49-0.23-0.49-0.51v-3.11c0-0.28,0.22-0.51,0.49-0.51h2.96
	c0.27,0,0.49,0.23,0.49,0.51v3.11C9.6,25.78,9.39,26.01,9.12,26.01z"/>
<path class="st1" d="M13.4,26.01h-2.96c-0.27,0-0.49-0.23-0.49-0.51v-3.11c0-0.28,0.22-0.51,0.49-0.51h2.96
	c0.27,0,0.49,0.23,0.49,0.51v3.11C13.89,25.78,13.67,26.01,13.4,26.01z"/>
<path class="st1" d="M17.69,26.01h-2.96c-0.27,0-0.49-0.23-0.49-0.51v-3.11c0-0.28,0.22-0.51,0.49-0.51h2.96
	c0.27,0,0.49,0.23,0.49,0.51v3.11C18.17,25.78,17.96,26.01,17.69,26.01z"/>
<path class="st1" d="M21.97,26.01h-2.96c-0.27,0-0.49-0.23-0.49-0.51v-3.11c0-0.28,0.22-0.51,0.49-0.51h2.96
	c0.27,0,0.49,0.23,0.49,0.51v3.11C22.46,25.78,22.24,26.01,21.97,26.01z"/>
<path class="st1" d="M26.26,26.01H23.3c-0.27,0-0.49-0.23-0.49-0.51v-3.11c0-0.28,0.22-0.51,0.49-0.51h2.96
	c0.27,0,0.49,0.23,0.49,0.51v3.11C26.74,25.78,26.53,26.01,26.26,26.01z"/>
<path class="st1" d="M30.54,26.01h-2.96c-0.27,0-0.49-0.23-0.49-0.51v-3.11c0-0.28,0.22-0.51,0.49-0.51h2.96
	c0.27,0,0.49,0.23,0.49,0.51v3.11C31.03,25.78,30.81,26.01,30.54,26.01z"/>
<path class="st1" d="M34.83,26.01h-2.96c-0.27,0-0.49-0.23-0.49-0.51v-3.11c0-0.28,0.22-0.51,0.49-0.51h2.96
	c0.27,0,0.49,0.23,0.49,0.51v3.11C35.31,25.78,35.1,26.01,34.83,26.01z"/>
<path class="st1" d="M39.11,26.01h-2.96c-0.27,0-0.49-0.23-0.49-0.51v-3.11c0-0.28,0.22-0.51,0.49-0.51h2.96
	c0.27,0,0.49,0.23,0.49,0.51v3.11C39.6,25.78,39.38,26.01,39.11,26.01z"/>
<path class="st1" d="M43.4,26.01h-2.96c-0.27,0-0.49-0.23-0.49-0.51v-3.11c0-0.28,0.22-0.51,0.49-0.51h2.96
	c0.27,0,0.49,0.23,0.49,0.51v3.11C43.88,25.78,43.66,26.01,43.4,26.01z"/>
<path class="st1" d="M47.68,26.01h-2.96c-0.27,0-0.49-0.23-0.49-0.51v-3.11c0-0.28,0.22-0.51,0.49-0.51h2.96
	c0.27,0,0.49,0.23,0.49,0.51v3.11C48.17,25.78,47.95,26.01,47.68,26.01z"/>
<path class="st1" d="M51.97,26.01h-2.96c-0.27,0-0.49-0.23-0.49-0.51v-3.11c0-0.28,0.22-0.51,0.49-0.51h2.96
	c0.27,0,0.49,0.23,0.49,0.51v3.11C52.45,25.78,52.23,26.01,51.97,26.01z"/>
<path class="st1" d="M56.25,26.01h-2.96c-0.27,0-0.49-0.23-0.49-0.51v-3.11c0-0.28,0.22-0.51,0.49-0.51h2.96
	c0.27,0,0.49,0.23,0.49,0.51v3.11C56.74,25.78,56.52,26.01,56.25,26.01z"/>
<path class="st1" d="M62.73,26.01h-5.15c-0.27,0-0.49-0.23-0.49-0.51v-3.11c0-0.28,0.22-0.51,0.49-0.51h5.15
	c0.27,0,0.49,0.23,0.49,0.51v3.11C63.21,25.78,63,26.01,62.73,26.01z"/>
<path class="st1" d="M59.77,26.59h2.96c0.27,0,0.49,0.23,0.49,0.51v3.11c0,0.28-0.22,0.51-0.49,0.51h-2.96
	c-0.27,0-0.49-0.23-0.49-0.51V27.1C59.29,26.82,59.5,26.59,59.77,26.59z"/>
<path class="st1" d="M55.49,26.59h2.96c0.27,0,0.49,0.23,0.49,0.51v3.11c0,0.28-0.22,0.51-0.49,0.51h-2.96
	c-0.27,0-0.49-0.23-0.49-0.51V27.1C55,26.82,55.22,26.59,55.49,26.59z"/>
<path class="st1" d="M51.2,26.59h2.96c0.27,0,0.49,0.23,0.49,0.51v3.11c0,0.28-0.22,0.51-0.49,0.51H51.2
	c-0.27,0-0.49-0.23-0.49-0.51V27.1C50.72,26.82,50.93,26.59,51.2,26.59z"/>
<path class="st1" d="M46.92,26.59h2.96c0.27,0,0.49,0.23,0.49,0.51v3.11c0,0.28-0.22,0.51-0.49,0.51h-2.96
	c-0.27,0-0.49-0.23-0.49-0.51V27.1C46.43,26.82,46.65,26.59,46.92,26.59z"/>
<path class="st1" d="M42.63,26.59h2.96c0.27,0,0.49,0.23,0.49,0.51v3.11c0,0.28-0.22,0.51-0.49,0.51h-2.96
	c-0.27,0-0.49-0.23-0.49-0.51V27.1C42.15,26.82,42.36,26.59,42.63,26.59z"/>
<path class="st1" d="M38.35,26.59h2.96c0.27,0,0.49,0.23,0.49,0.51v3.11c0,0.28-0.22,0.51-0.49,0.51h-2.96
	c-0.27,0-0.49-0.23-0.49-0.51V27.1C37.86,26.82,38.08,26.59,38.35,26.59z"/>
<path class="st1" d="M34.06,26.59h2.96c0.27,0,0.49,0.23,0.49,0.51v3.11c0,0.28-0.22,0.51-0.49,0.51h-2.96
	c-0.27,0-0.49-0.23-0.49-0.51V27.1C33.58,26.82,33.79,26.59,34.06,26.59z"/>
<path class="st1" d="M29.78,26.59h2.96c0.27,0,0.49,0.23,0.49,0.51v3.11c0,0.28-0.22,0.51-0.49,0.51h-2.96
	c-0.27,0-0.49-0.23-0.49-0.51V27.1C29.29,26.82,29.51,26.59,29.78,26.59z"/>
<path class="st1" d="M25.49,26.59h2.96c0.27,0,0.49,0.23,0.49,0.51v3.11c0,0.28-0.22,0.51-0.49,0.51h-2.96
	c-0.27,0-0.49-0.23-0.49-0.51V27.1C25.01,26.82,25.22,26.59,25.49,26.59z"/>
<path class="st1" d="M21.21,26.59h2.96c0.27,0,0.49,0.23,0.49,0.51v3.11c0,0.28-0.22,0.51-0.49,0.51h-2.96
	c-0.27,0-0.49-0.23-0.49-0.51V27.1C20.72,26.82,20.94,26.59,21.21,26.59z"/>
<path class="st1" d="M16.92,26.59h2.96c0.27,0,0.49,0.23,0.49,0.51v3.11c0,0.28-0.22,0.51-0.49,0.51h-2.96
	c-0.27,0-0.49-0.23-0.49-0.51V27.1C16.44,26.82,16.65,26.59,16.92,26.59z"/>
<path class="st1" d="M12.64,26.59h2.96c0.27,0,0.49,0.23,0.49,0.51v3.11c0,0.28-0.22,0.51-0.49,0.51h-2.96
	c-0.27,0-0.49-0.23-0.49-0.51V27.1C12.15,26.82,12.37,26.59,12.64,26.59z"/>
<path class="st1" d="M8.35,26.59h2.96c0.27,0,0.49,0.23,0.49,0.51v3.11c0,0.28-0.22,0.51-0.49,0.51H8.35
	c-0.27,0-0.49-0.23-0.49-0.51V27.1C7.87,26.82,8.08,26.59,8.35,26.59z"/>
<path class="st1" d="M1.88,26.59h5.15c0.27,0,0.49,0.23,0.49,0.51v3.11c0,0.28-0.22,0.51-0.49,0.51H1.88
	c-0.27,0-0.49-0.23-0.49-0.51V27.1C1.39,26.82,1.61,26.59,1.88,26.59z"/>
<path class="st1" d="M52.18,31.3h2.96c0.27,0,0.49,0.23,0.49,0.51v3.11c0,0.28-0.22,0.51-0.49,0.51h-2.96
	c-0.27,0-0.49-0.23-0.49-0.51v-3.11C51.69,31.53,51.91,31.3,52.18,31.3z"/>
<path class="st1" d="M47.89,31.3h2.96c0.27,0,0.49,0.23,0.49,0.51v3.11c0,0.28-0.22,0.51-0.49,0.51h-2.96
	c-0.27,0-0.49-0.23-0.49-0.51v-3.11C47.4,31.53,47.62,31.3,47.89,31.3z"/>
<path class="st1" d="M43.61,31.3h2.96c0.27,0,0.49,0.23,0.49,0.51v3.11c0,0.28-0.22,0.51-0.49,0.51h-2.96
	c-0.27,0-0.49-0.23-0.49-0.51v-3.11C43.12,31.53,43.34,31.3,43.61,31.3z"/>
<path class="st1" d="M39.32,31.3h2.96c0.27,0,0.49,0.23,0.49,0.51v3.11c0,0.28-0.22,0.51-0.49,0.51h-2.96
	c-0.27,0-0.49-0.23-0.49-0.51v-3.11C38.83,31.53,39.05,31.3,39.32,31.3z"/>
<path class="st1" d="M35.04,31.3H38c0.27,0,0.49,0.23,0.49,0.51v3.11c0,0.28-0.22,0.51-0.49,0.51h-2.96c-0.27,0-0.49-0.23-0.49-0.51
	v-3.11C34.55,31.53,34.77,31.3,35.04,31.3z"/>
<path class="st1" d="M30.75,31.3h2.96c0.27,0,0.49,0.23,0.49,0.51v3.11c0,0.28-0.22,0.51-0.49,0.51h-2.96
	c-0.27,0-0.49-0.23-0.49-0.51v-3.11C30.26,31.53,30.48,31.3,30.75,31.3z"/>
<path class="st1" d="M26.47,31.3h2.96c0.27,0,0.49,0.23,0.49,0.51v3.11c0,0.28-0.22,0.51-0.49,0.51h-2.96
	c-0.27,0-0.49-0.23-0.49-0.51v-3.11C25.98,31.53,26.2,31.3,26.47,31.3z"/>
<path class="st1" d="M22.18,31.3h2.96c0.27,0,0.49,0.23,0.49,0.51v3.11c0,0.28-0.22,0.51-0.49,0.51h-2.96
	c-0.27,0-0.49-0.23-0.49-0.51v-3.11C21.69,31.53,21.91,31.3,22.18,31.3z"/>
<path class="st1" d="M17.9,31.3h2.96c0.27,0,0.49,0.23,0.49,0.51v3.11c0,0.28-0.22,0.51-0.49,0.51H17.9c-0.27,0-0.49-0.23-0.49-0.51
	v-3.11C17.41,31.53,17.63,31.3,17.9,31.3z"/>
<path class="st1" d="M13.61,31.3h2.96c0.27,0,0.49,0.23,0.49,0.51v3.11c0,0.28-0.22,0.51-0.49,0.51h-2.96
	c-0.27,0-0.49-0.23-0.49-0.51v-3.11C13.12,31.53,13.34,31.3,13.61,31.3z"/>
<path class="st1" d="M9.33,31.3h2.96c0.27,0,0.49,0.23,0.49,0.51v3.11c0,0.28-0.22,0.51-0.49,0.51H9.33c-0.27,0-0.49-0.23-0.49-0.51
	v-3.11C8.84,31.53,9.06,31.3,9.33,31.3z"/>
<path class="st1" d="M1.88,31.3H8c0.27,0,0.49,0.23,0.49,0.51v3.11c0,0.28-0.22,0.51-0.49,0.51H1.88c-0.27,0-0.49-0.23-0.49-0.51
	v-3.11C1.39,31.53,1.61,31.3,1.88,31.3z"/>
<path class="st1" d="M56.61,31.3h6.12c0.27,0,0.49,0.23,0.49,0.51v3.11c0,0.28-0.22,0.51-0.49,0.51h-6.12
	c-0.27,0-0.49-0.23-0.49-0.51v-3.11C56.12,31.53,56.34,31.3,56.61,31.3z"/>
<path class="st1" d="M14.73,40.89h3.93c0.27,0,0.49,0.23,0.49,0.51v3.11c0,0.28-0.22,0.51-0.49,0.51h-3.93
	c-0.27,0-0.49-0.23-0.49-0.51V41.4C14.24,41.12,14.46,40.89,14.73,40.89z"/>
<path class="st1" d="M41.46,40.89h3.93c0.27,0,0.49,0.23,0.49,0.51v3.11c0,0.28-0.22,0.51-0.49,0.51h-3.93
	c-0.27,0-0.49-0.23-0.49-0.51V41.4C40.97,41.12,41.19,40.89,41.46,40.89z"/>
<path class="st1" d="M20.11,40.89h20c0.27,0,0.49,0.23,0.49,0.51v3.11c0,0.28-0.22,0.51-0.49,0.51h-20c-0.27,0-0.49-0.23-0.49-0.51
	V41.4C19.62,41.12,19.84,40.89,20.11,40.89z"/>
<path class="st1" d="M10.45,40.89h2.96c0.27,0,0.49,0.23,0.49,0.51v3.11c0,0.28-0.22,0.51-0.49,0.51h-2.96
	c-0.27,0-0.49-0.23-0.49-0.51V41.4C9.96,41.12,10.18,40.89,10.45,40.89z"/>
<path class="st1" d="M46.79,40.89h2.96c0.27,0,0.49,0.23,0.49,0.51v3.11c0,0.28-0.22,0.51-0.49,0.51h-2.96
	c-0.27,0-0.49-0.23-0.49-0.51V41.4C46.31,41.12,46.52,40.89,46.79,40.89z"/>
<path class="st1" d="M51.02,42.94h2.96c0.27,0,0.49,0.23,0.49,0.51v1.06c0,0.28-0.22,0.51-0.49,0.51h-2.96
	c-0.27,0-0.49-0.23-0.49-0.51v-1.06C50.54,43.17,50.75,42.94,51.02,42.94z"/>
<path class="st1" d="M55.5,42.94h2.96c0.27,0,0.49,0.23,0.49,0.51v1.06c0,0.28-0.22,0.51-0.49,0.51H55.5
	c-0.27,0-0.49-0.23-0.49-0.51v-1.06C55.01,43.17,55.23,42.94,55.5,42.94z"/>
<path class="st1" d="M55.5,40.54h2.96c0.27,0,0.49,0.23,0.49,0.51v1.06c0,0.28-0.22,0.51-0.49,0.51H55.5
	c-0.27,0-0.49-0.23-0.49-0.51v-1.06C55.01,40.77,55.23,40.54,55.5,40.54z"/>
<path class="st1" d="M59.77,42.94h2.96c0.27,0,0.49,0.23,0.49,0.51v1.06c0,0.28-0.22,0.51-0.49,0.51h-2.96
	c-0.27,0-0.49-0.23-0.49-0.51v-1.06C59.29,43.17,59.5,42.94,59.77,42.94z"/>
<path class="st1" d="M6.16,40.89h2.96c0.27,0,0.49,0.23,0.49,0.51v3.11c0,0.28-0.22,0.51-0.49,0.51H6.16
	c-0.27,0-0.49-0.23-0.49-0.51V41.4C5.67,41.12,5.89,40.89,6.16,40.89z"/>
<path class="st1" d="M1.88,40.89h2.96c0.27,0,0.49,0.23,0.49,0.51v3.11c0,0.28-0.22,0.51-0.49,0.51H1.88
	c-0.27,0-0.49-0.23-0.49-0.51V41.4C1.39,41.12,1.61,40.89,1.88,40.89z"/>
<path class="st1" d="M49.86,36.01h2.96c0.27,0,0.49,0.23,0.49,0.51v3.11c0,0.28-0.22,0.51-0.49,0.51h-2.96
	c-0.27,0-0.49-0.23-0.49-0.51v-3.11C49.37,36.23,49.59,36.01,49.86,36.01z"/>
<path class="st1" d="M45.57,36.01h2.96c0.27,0,0.49,0.23,0.49,0.51v3.11c0,0.28-0.22,0.51-0.49,0.51h-2.96
	c-0.27,0-0.49-0.23-0.49-0.51v-3.11C45.09,36.23,45.31,36.01,45.57,36.01z"/>
<path class="st1" d="M41.29,36.01h2.96c0.27,0,0.49,0.23,0.49,0.51v3.11c0,0.28-0.22,0.51-0.49,0.51h-2.96
	c-0.27,0-0.49-0.23-0.49-0.51v-3.11C40.8,36.23,41.02,36.01,41.29,36.01z"/>
<path class="st1" d="M37,36.01h2.96c0.27,0,0.49,0.23,0.49,0.51v3.11c0,0.28-0.22,0.51-0.49,0.51H37c-0.27,0-0.49-0.23-0.49-0.51
	v-3.11C36.52,36.23,36.74,36.01,37,36.01z"/>
<path class="st1" d="M32.72,36.01h2.96c0.27,0,0.49,0.23,0.49,0.51v3.11c0,0.28-0.22,0.51-0.49,0.51h-2.96
	c-0.27,0-0.49-0.23-0.49-0.51v-3.11C32.23,36.23,32.45,36.01,32.72,36.01z"/>
<path class="st1" d="M28.43,36.01h2.96c0.27,0,0.49,0.23,0.49,0.51v3.11c0,0.28-0.22,0.51-0.49,0.51h-2.96
	c-0.27,0-0.49-0.23-0.49-0.51v-3.11C27.95,36.23,28.17,36.01,28.43,36.01z"/>
<path class="st1" d="M24.15,36.01h2.96c0.27,0,0.49,0.23,0.49,0.51v3.11c0,0.28-0.22,0.51-0.49,0.51h-2.96
	c-0.27,0-0.49-0.23-0.49-0.51v-3.11C23.66,36.23,23.88,36.01,24.15,36.01z"/>
<path class="st1" d="M19.86,36.01h2.96c0.27,0,0.49,0.23,0.49,0.51v3.11c0,0.28-0.22,0.51-0.49,0.51h-2.96
	c-0.27,0-0.49-0.23-0.49-0.51v-3.11C19.38,36.23,19.6,36.01,19.86,36.01z"/>
<path class="st1" d="M15.58,36.01h2.96c0.27,0,0.49,0.23,0.49,0.51v3.11c0,0.28-0.22,0.51-0.49,0.51h-2.96
	c-0.27,0-0.49-0.23-0.49-0.51v-3.11C15.09,36.23,15.31,36.01,15.58,36.01z"/>
<path class="st1" d="M11.29,36.01h2.96c0.27,0,0.49,0.23,0.49,0.51v3.11c0,0.28-0.22,0.51-0.49,0.51h-2.96
	c-0.27,0-0.49-0.23-0.49-0.51v-3.11C10.81,36.23,11.03,36.01,11.29,36.01z"/>
<path class="st1" d="M1.88,36.01h7.95c0.27,0,0.49,0.23,0.49,0.51v3.11c0,0.28-0.22,0.51-0.49,0.51H1.88
	c-0.27,0-0.49-0.23-0.49-0.51v-3.11C1.39,36.23,1.61,36.01,1.88,36.01z"/>
<path class="st1" d="M54.41,36.01h8.31c0.27,0,0.49,0.23,0.49,0.51v3.11c0,0.28-0.22,0.51-0.49,0.51h-8.31
	c-0.27,0-0.49-0.23-0.49-0.51v-3.11C53.93,36.23,54.15,36.01,54.41,36.01z"/>
<path class="st2" d="M4.64,25.8H1.68c-0.27,0-0.49-0.23-0.49-0.51v-3.11c0-0.28,0.22-0.51,0.49-0.51h2.96
	c0.27,0,0.49,0.23,0.49,0.51v3.11C5.13,25.57,4.91,25.8,4.64,25.8z"/>
<path class="st2" d="M8.92,25.8H5.97c-0.27,0-0.49-0.23-0.49-0.51v-3.11c0-0.28,0.22-0.51,0.49-0.51h2.96
	c0.27,0,0.49,0.23,0.49,0.51v3.11C9.41,25.57,9.19,25.8,8.92,25.8z"/>
<path class="st2" d="M13.21,25.8h-2.96c-0.27,0-0.49-0.23-0.49-0.51v-3.11c0-0.28,0.22-0.51,0.49-0.51h2.96
	c0.27,0,0.49,0.23,0.49,0.51v3.11C13.7,25.57,13.48,25.8,13.21,25.8z"/>
<path class="st2" d="M17.49,25.8h-2.96c-0.27,0-0.49-0.23-0.49-0.51v-3.11c0-0.28,0.22-0.51,0.49-0.51h2.96
	c0.27,0,0.49,0.23,0.49,0.51v3.11C17.98,25.57,17.76,25.8,17.49,25.8z"/>
<path class="st2" d="M21.78,25.8h-2.96c-0.27,0-0.49-0.23-0.49-0.51v-3.11c0-0.28,0.22-0.51,0.49-0.51h2.96
	c0.27,0,0.49,0.23,0.49,0.51v3.11C22.27,25.57,22.05,25.8,21.78,25.8z"/>
<path class="st2" d="M26.06,25.8H23.1c-0.27,0-0.49-0.23-0.49-0.51v-3.11c0-0.28,0.22-0.51,0.49-0.51h2.96
	c0.27,0,0.49,0.23,0.49,0.51v3.11C26.55,25.57,26.33,25.8,26.06,25.8z"/>
<path class="st2" d="M30.35,25.8h-2.96c-0.27,0-0.49-0.23-0.49-0.51v-3.11c0-0.28,0.22-0.51,0.49-0.51h2.96
	c0.27,0,0.49,0.23,0.49,0.51v3.11C30.84,25.57,30.62,25.8,30.35,25.8z"/>
<path class="st2" d="M34.63,25.8h-2.96c-0.27,0-0.49-0.23-0.49-0.51v-3.11c0-0.28,0.22-0.51,0.49-0.51h2.96
	c0.27,0,0.49,0.23,0.49,0.51v3.11C35.12,25.57,34.9,25.8,34.63,25.8z"/>
<path class="st2" d="M38.92,25.8h-2.96c-0.27,0-0.49-0.23-0.49-0.51v-3.11c0-0.28,0.22-0.51,0.49-0.51h2.96
	c0.27,0,0.49,0.23,0.49,0.51v3.11C39.4,25.57,39.19,25.8,38.92,25.8z"/>
<path class="st2" d="M43.2,25.8h-2.96c-0.27,0-0.49-0.23-0.49-0.51v-3.11c0-0.28,0.22-0.51,0.49-0.51h2.96
	c0.27,0,0.49,0.23,0.49,0.51v3.11C43.69,25.57,43.47,25.8,43.2,25.8z"/>
<path class="st2" d="M47.49,25.8h-2.96c-0.27,0-0.49-0.23-0.49-0.51v-3.11c0-0.28,0.22-0.51,0.49-0.51h2.96
	c0.27,0,0.49,0.23,0.49,0.51v3.11C47.97,25.57,47.76,25.8,47.49,25.8z"/>
<path class="st2" d="M51.77,25.8h-2.96c-0.27,0-0.49-0.23-0.49-0.51v-3.11c0-0.28,0.22-0.51,0.49-0.51h2.96
	c0.27,0,0.49,0.23,0.49,0.51v3.11C52.26,25.57,52.04,25.8,51.77,25.8z"/>
<path class="st2" d="M56.06,25.8H53.1c-0.27,0-0.49-0.23-0.49-0.51v-3.11c0-0.28,0.22-0.51,0.49-0.51h2.96
	c0.27,0,0.49,0.23,0.49,0.51v3.11C56.54,25.57,56.33,25.8,56.06,25.8z"/>
<path class="st2" d="M62.53,25.8h-5.15c-0.27,0-0.49-0.23-0.49-0.51v-3.11c0-0.28,0.22-0.51,0.49-0.51h5.15
	c0.27,0,0.49,0.23,0.49,0.51v3.11C63.02,25.57,62.8,25.8,62.53,25.8z"/>
<path class="st2" d="M59.58,26.38h2.96c0.27,0,0.49,0.23,0.49,0.51V30c0,0.28-0.22,0.51-0.49,0.51h-2.96
	c-0.27,0-0.49-0.23-0.49-0.51v-3.11C59.09,26.61,59.31,26.38,59.58,26.38z"/>
<path class="st2" d="M55.29,26.38h2.96c0.27,0,0.49,0.23,0.49,0.51V30c0,0.28-0.22,0.51-0.49,0.51h-2.96
	c-0.27,0-0.49-0.23-0.49-0.51v-3.11C54.81,26.61,55.02,26.38,55.29,26.38z"/>
<path class="st2" d="M51.01,26.38h2.96c0.27,0,0.49,0.23,0.49,0.51V30c0,0.28-0.22,0.51-0.49,0.51h-2.96
	c-0.27,0-0.49-0.23-0.49-0.51v-3.11C50.52,26.61,50.74,26.38,51.01,26.38z"/>
<path class="st2" d="M46.72,26.38h2.96c0.27,0,0.49,0.23,0.49,0.51V30c0,0.28-0.22,0.51-0.49,0.51h-2.96
	c-0.27,0-0.49-0.23-0.49-0.51v-3.11C46.24,26.61,46.46,26.38,46.72,26.38z"/>
<path class="st2" d="M42.44,26.38h2.96c0.27,0,0.49,0.23,0.49,0.51V30c0,0.28-0.22,0.51-0.49,0.51h-2.96
	c-0.27,0-0.49-0.23-0.49-0.51v-3.11C41.95,26.61,42.17,26.38,42.44,26.38z"/>
<path class="st2" d="M38.15,26.38h2.96c0.27,0,0.49,0.23,0.49,0.51V30c0,0.28-0.22,0.51-0.49,0.51h-2.96
	c-0.27,0-0.49-0.23-0.49-0.51v-3.11C37.67,26.61,37.89,26.38,38.15,26.38z"/>
<path class="st2" d="M33.87,26.38h2.96c0.27,0,0.49,0.23,0.49,0.51V30c0,0.28-0.22,0.51-0.49,0.51h-2.96
	c-0.27,0-0.49-0.23-0.49-0.51v-3.11C33.38,26.61,33.6,26.38,33.87,26.38z"/>
<path class="st2" d="M29.58,26.38h2.96c0.27,0,0.49,0.23,0.49,0.51V30c0,0.28-0.22,0.51-0.49,0.51h-2.96
	c-0.27,0-0.49-0.23-0.49-0.51v-3.11C29.1,26.61,29.32,26.38,29.58,26.38z"/>
<path class="st2" d="M25.3,26.38h2.96c0.27,0,0.49,0.23,0.49,0.51V30c0,0.28-0.22,0.51-0.49,0.51H25.3c-0.27,0-0.49-0.23-0.49-0.51
	v-3.11C24.81,26.61,25.03,26.38,25.3,26.38z"/>
<path class="st2" d="M21.01,26.38h2.96c0.27,0,0.49,0.23,0.49,0.51V30c0,0.28-0.22,0.51-0.49,0.51h-2.96
	c-0.27,0-0.49-0.23-0.49-0.51v-3.11C20.53,26.61,20.75,26.38,21.01,26.38z"/>
<path class="st2" d="M16.73,26.38h2.96c0.27,0,0.49,0.23,0.49,0.51V30c0,0.28-0.22,0.51-0.49,0.51h-2.96
	c-0.27,0-0.49-0.23-0.49-0.51v-3.11C16.24,26.61,16.46,26.38,16.73,26.38z"/>
<path class="st2" d="M12.44,26.38h2.96c0.27,0,0.49,0.23,0.49,0.51V30c0,0.28-0.22,0.51-0.49,0.51h-2.96
	c-0.27,0-0.49-0.23-0.49-0.51v-3.11C11.96,26.61,12.18,26.38,12.44,26.38z"/>
<path class="st2" d="M8.16,26.38h2.96c0.27,0,0.49,0.23,0.49,0.51V30c0,0.28-0.22,0.51-0.49,0.51H8.16c-0.27,0-0.49-0.23-0.49-0.51
	v-3.11C7.67,26.61,7.89,26.38,8.16,26.38z"/>
<path class="st2" d="M1.68,26.38h5.15c0.27,0,0.49,0.23,0.49,0.51V30c0,0.28-0.22,0.51-0.49,0.51H1.68c-0.27,0-0.49-0.23-0.49-0.51
	v-3.11C1.2,26.61,1.41,26.38,1.68,26.38z"/>
<path class="st2" d="M51.98,31.09h2.96c0.27,0,0.49,0.23,0.49,0.51v3.11c0,0.28-0.22,0.51-0.49,0.51h-2.96
	c-0.27,0-0.49-0.23-0.49-0.51V31.6C51.5,31.31,51.71,31.09,51.98,31.09z"/>
<path class="st2" d="M47.7,31.09h2.96c0.27,0,0.49,0.23,0.49,0.51v3.11c0,0.28-0.22,0.51-0.49,0.51H47.7
	c-0.27,0-0.49-0.23-0.49-0.51V31.6C47.21,31.31,47.43,31.09,47.7,31.09z"/>
<path class="st2" d="M43.41,31.09h2.96c0.27,0,0.49,0.23,0.49,0.51v3.11c0,0.28-0.22,0.51-0.49,0.51h-2.96
	c-0.27,0-0.49-0.23-0.49-0.51V31.6C42.93,31.31,43.14,31.09,43.41,31.09z"/>
<path class="st2" d="M39.13,31.09h2.96c0.27,0,0.49,0.23,0.49,0.51v3.11c0,0.28-0.22,0.51-0.49,0.51h-2.96
	c-0.27,0-0.49-0.23-0.49-0.51V31.6C38.64,31.31,38.86,31.09,39.13,31.09z"/>
<path class="st2" d="M34.84,31.09h2.96c0.27,0,0.49,0.23,0.49,0.51v3.11c0,0.28-0.22,0.51-0.49,0.51h-2.96
	c-0.27,0-0.49-0.23-0.49-0.51V31.6C34.36,31.31,34.57,31.09,34.84,31.09z"/>
<path class="st2" d="M30.56,31.09h2.96c0.27,0,0.49,0.23,0.49,0.51v3.11c0,0.28-0.22,0.51-0.49,0.51h-2.96
	c-0.27,0-0.49-0.23-0.49-0.51V31.6C30.07,31.31,30.29,31.09,30.56,31.09z"/>
<path class="st2" d="M26.27,31.09h2.96c0.27,0,0.49,0.23,0.49,0.51v3.11c0,0.28-0.22,0.51-0.49,0.51h-2.96
	c-0.27,0-0.49-0.23-0.49-0.51V31.6C25.79,31.31,26,31.09,26.27,31.09z"/>
<path class="st2" d="M21.99,31.09h2.96c0.27,0,0.49,0.23,0.49,0.51v3.11c0,0.28-0.22,0.51-0.49,0.51h-2.96
	c-0.27,0-0.49-0.23-0.49-0.51V31.6C21.5,31.31,21.72,31.09,21.99,31.09z"/>
<path class="st2" d="M17.7,31.09h2.96c0.27,0,0.49,0.23,0.49,0.51v3.11c0,0.28-0.22,0.51-0.49,0.51H17.7
	c-0.27,0-0.49-0.23-0.49-0.51V31.6C17.22,31.31,17.43,31.09,17.7,31.09z"/>
<path class="st2" d="M13.42,31.09h2.96c0.27,0,0.49,0.23,0.49,0.51v3.11c0,0.28-0.22,0.51-0.49,0.51h-2.96
	c-0.27,0-0.49-0.23-0.49-0.51V31.6C12.93,31.31,13.15,31.09,13.42,31.09z"/>
<path class="st2" d="M9.13,31.09h2.96c0.27,0,0.49,0.23,0.49,0.51v3.11c0,0.28-0.22,0.51-0.49,0.51H9.13
	c-0.27,0-0.49-0.23-0.49-0.51V31.6C8.65,31.31,8.86,31.09,9.13,31.09z"/>
<path class="st2" d="M1.68,31.09H7.8c0.27,0,0.49,0.23,0.49,0.51v3.11c0,0.28-0.22,0.51-0.49,0.51H1.68c-0.27,0-0.49-0.23-0.49-0.51
	V31.6C1.2,31.31,1.41,31.09,1.68,31.09z"/>
<path class="st2" d="M56.41,31.09h6.12c0.27,0,0.49,0.23,0.49,0.51v3.11c0,0.28-0.22,0.51-0.49,0.51h-6.12
	c-0.27,0-0.49-0.23-0.49-0.51V31.6C55.93,31.31,56.14,31.09,56.41,31.09z"/>
<path class="st2" d="M14.54,40.68h3.93c0.27,0,0.49,0.23,0.49,0.51v3.11c0,0.28-0.22,0.51-0.49,0.51h-3.93
	c-0.27,0-0.49-0.23-0.49-0.51v-3.11C14.05,40.91,14.27,40.68,14.54,40.68z"/>
<path class="st2" d="M41.27,40.68h3.93c0.27,0,0.49,0.23,0.49,0.51v3.11c0,0.28-0.22,0.51-0.49,0.51h-3.93
	c-0.27,0-0.49-0.23-0.49-0.51v-3.11C40.78,40.91,41,40.68,41.27,40.68z"/>
<path class="st2" d="M19.91,40.68h20c0.27,0,0.49,0.23,0.49,0.51v3.11c0,0.28-0.22,0.51-0.49,0.51h-20c-0.27,0-0.49-0.23-0.49-0.51
	v-3.11C19.43,40.91,19.64,40.68,19.91,40.68z"/>
<path class="st2" d="M10.25,40.68h2.96c0.27,0,0.49,0.23,0.49,0.51v3.11c0,0.28-0.22,0.51-0.49,0.51h-2.96
	c-0.27,0-0.49-0.23-0.49-0.51v-3.11C9.77,40.91,9.98,40.68,10.25,40.68z"/>
<path class="st2" d="M46.6,40.68h2.96c0.27,0,0.49,0.23,0.49,0.51v3.11c0,0.28-0.22,0.51-0.49,0.51H46.6
	c-0.27,0-0.49-0.23-0.49-0.51v-3.11C46.11,40.91,46.33,40.68,46.6,40.68z"/>
<path class="st2" d="M50.83,42.72h2.96c0.27,0,0.49,0.23,0.49,0.51v1.06c0,0.28-0.22,0.51-0.49,0.51h-2.96
	c-0.27,0-0.49-0.23-0.49-0.51v-1.06C50.34,42.95,50.56,42.72,50.83,42.72z"/>
<path class="st2" d="M55.31,42.72h2.96c0.27,0,0.49,0.23,0.49,0.51v1.06c0,0.28-0.22,0.51-0.49,0.51h-2.96
	c-0.27,0-0.49-0.23-0.49-0.51v-1.06C54.82,42.95,55.04,42.72,55.31,42.72z"/>
<path class="st2" d="M55.31,40.32h2.96c0.27,0,0.49,0.23,0.49,0.51v1.06c0,0.28-0.22,0.51-0.49,0.51h-2.96
	c-0.27,0-0.49-0.23-0.49-0.51v-1.06C54.82,40.55,55.04,40.32,55.31,40.32z"/>
<path class="st2" d="M59.58,42.72h2.96c0.27,0,0.49,0.23,0.49,0.51v1.06c0,0.28-0.22,0.51-0.49,0.51h-2.96
	c-0.27,0-0.49-0.23-0.49-0.51v-1.06C59.09,42.95,59.31,42.72,59.58,42.72z"/>
<path class="st2" d="M5.97,40.68h2.96c0.27,0,0.49,0.23,0.49,0.51v3.11c0,0.28-0.22,0.51-0.49,0.51H5.97
	c-0.27,0-0.49-0.23-0.49-0.51v-3.11C5.48,40.91,5.7,40.68,5.97,40.68z"/>
<path class="st2" d="M1.68,40.68h2.96c0.27,0,0.49,0.23,0.49,0.51v3.11c0,0.28-0.22,0.51-0.49,0.51H1.68
	c-0.27,0-0.49-0.23-0.49-0.51v-3.11C1.2,40.91,1.41,40.68,1.68,40.68z"/>
<path class="st2" d="M49.67,35.79h2.96c0.27,0,0.49,0.23,0.49,0.51v3.11c0,0.28-0.22,0.51-0.49,0.51h-2.96
	c-0.27,0-0.49-0.23-0.49-0.51V36.3C49.18,36.02,49.4,35.79,49.67,35.79z"/>
<path class="st2" d="M45.38,35.79h2.96c0.27,0,0.49,0.23,0.49,0.51v3.11c0,0.28-0.22,0.51-0.49,0.51h-2.96
	c-0.27,0-0.49-0.23-0.49-0.51V36.3C44.9,36.02,45.11,35.79,45.38,35.79z"/>
<path class="st2" d="M41.1,35.79h2.96c0.27,0,0.49,0.23,0.49,0.51v3.11c0,0.28-0.22,0.51-0.49,0.51H41.1
	c-0.27,0-0.49-0.23-0.49-0.51V36.3C40.61,36.02,40.83,35.79,41.1,35.79z"/>
<path class="st2" d="M36.81,35.79h2.96c0.27,0,0.49,0.23,0.49,0.51v3.11c0,0.28-0.22,0.51-0.49,0.51h-2.96
	c-0.27,0-0.49-0.23-0.49-0.51V36.3C36.33,36.02,36.54,35.79,36.81,35.79z"/>
<path class="st2" d="M32.53,35.79h2.96c0.27,0,0.49,0.23,0.49,0.51v3.11c0,0.28-0.22,0.51-0.49,0.51h-2.96
	c-0.27,0-0.49-0.23-0.49-0.51V36.3C32.04,36.02,32.26,35.79,32.53,35.79z"/>
<path class="st2" d="M28.24,35.79h2.96c0.27,0,0.49,0.23,0.49,0.51v3.11c0,0.28-0.22,0.51-0.49,0.51h-2.96
	c-0.27,0-0.49-0.23-0.49-0.51V36.3C27.76,36.02,27.97,35.79,28.24,35.79z"/>
<path class="st2" d="M23.96,35.79h2.96c0.27,0,0.49,0.23,0.49,0.51v3.11c0,0.28-0.22,0.51-0.49,0.51h-2.96
	c-0.27,0-0.49-0.23-0.49-0.51V36.3C23.47,36.02,23.69,35.79,23.96,35.79z"/>
<path class="st2" d="M19.67,35.79h2.96c0.27,0,0.49,0.23,0.49,0.51v3.11c0,0.28-0.22,0.51-0.49,0.51h-2.96
	c-0.27,0-0.49-0.23-0.49-0.51V36.3C19.19,36.02,19.4,35.79,19.67,35.79z"/>
<path class="st2" d="M15.39,35.79h2.96c0.27,0,0.49,0.23,0.49,0.51v3.11c0,0.28-0.22,0.51-0.49,0.51h-2.96
	c-0.27,0-0.49-0.23-0.49-0.51V36.3C14.9,36.02,15.12,35.79,15.39,35.79z"/>
<path class="st2" d="M11.1,35.79h2.96c0.27,0,0.49,0.23,0.49,0.51v3.11c0,0.28-0.22,0.51-0.49,0.51H11.1
	c-0.27,0-0.49-0.23-0.49-0.51V36.3C10.62,36.02,10.83,35.79,11.1,35.79z"/>
<path class="st2" d="M1.68,35.79h7.95c0.27,0,0.49,0.23,0.49,0.51v3.11c0,0.28-0.22,0.51-0.49,0.51H1.68
	c-0.27,0-0.49-0.23-0.49-0.51V36.3C1.2,36.02,1.41,35.79,1.68,35.79z"/>
<path class="st2" d="M54.22,35.79h8.31c0.27,0,0.49,0.23,0.49,0.51v3.11c0,0.28-0.22,0.51-0.49,0.51h-8.31
	c-0.27,0-0.49-0.23-0.49-0.51V36.3C53.74,36.02,53.95,35.79,54.22,35.79z"/>
</svg>
