<?xml version="1.0" encoding="utf-8"?>
<!-- Generator: Adobe Illustrator 15.0.0, SVG Export Plug-In . SVG Version: 6.00 Build 0)  -->
<!DOCTYPE svg PUBLIC "-//W3C//DTD SVG 1.1//EN" "http://www.w3.org/Graphics/SVG/1.1/DTD/svg11.dtd" [
	<!ENTITY ns_flows "http://ns.adobe.com/Flows/1.0/">
	<!ENTITY ns_extend "http://ns.adobe.com/Extensibility/1.0/">
	<!ENTITY ns_ai "http://ns.adobe.com/AdobeIllustrator/10.0/">
	<!ENTITY ns_graphs "http://ns.adobe.com/Graphs/1.0/">
]>
<svg version="1.1" id="Layer_1" xmlns:x="&ns_extend;" xmlns:i="&ns_ai;" xmlns:graph="&ns_graphs;"
	 xmlns="http://www.w3.org/2000/svg" xmlns:xlink="http://www.w3.org/1999/xlink" xmlns:a="http://ns.adobe.com/AdobeSVGViewerExtensions/3.0/"
	 x="0px" y="0px" width="64px" height="64px" viewBox="0 0 64 64" enable-background="new 0 0 64 64" xml:space="preserve">
<path id="Path" fill="#FFFFFF" d="M13.994,60c-1.066,0-2.123-0.172-3.139-0.51C6.756,58.136,4,54.321,4,50
	c0-2.885,1.25-5.629,3.428-7.531c0.563-0.492,1.174-0.917,1.828-1.27l-0.033-0.003l0.664-2.313c1.654-5.774,7-9.807,12.998-9.807
	c0.598,0,1.211,0.048,1.932,0.151c0.554,0.078,1.095,0.19,1.625,0.334l0.265-0.479C29.129,24.714,33.73,22,38.715,22
	c7.566,0,13.725,6.162,13.725,13.735c0,0.371-0.024,0.73-0.055,1.092l-0.021,0.27c0.584,0.223,1.153,0.493,1.702,0.813
	C57.727,40.019,60,43.947,60,48.16c0,5.548-3.773,10.289-9.176,11.529C49.943,59.896,49.049,60,48.17,60H13.994z"/>
<linearGradient id="Shape_2_" gradientUnits="userSpaceOnUse" x1="-501.9155" y1="698.8809" x2="-501.9155" y2="697.8809" gradientTransform="matrix(60 0 0 -42 30146.9688 29373)">
	<stop  offset="0" style="stop-color:#A3F3FF"/>
	<stop  offset="1" style="stop-color:#38DEFF"/>
	<a:midPointStop  offset="0" style="stop-color:#A3F3FF"/>
	<a:midPointStop  offset="0.5" style="stop-color:#A3F3FF"/>
	<a:midPointStop  offset="1" style="stop-color:#38DEFF"/>
</linearGradient>
<path id="Shape_1_" fill="url(#Shape_2_)" d="M38.715,24c6.475,0,11.725,5.255,11.725,11.735c0,0.315-0.022,0.623-0.047,0.931
	c-2.711,0.207-5.174,1.288-7.108,2.969c1.44-0.827,3.104-1.31,4.887-1.31c0.658,0,1.302,0.066,1.925,0.191
	c1.063,0.211,2.063,0.598,2.973,1.123C56.012,41.339,58,44.513,58,48.16c0,4.67-3.258,8.578-7.623,9.581
	C49.668,57.906,48.932,58,48.17,58l0,0H13.994l0,0c-0.877,0-1.717-0.145-2.506-0.407C8.301,56.54,6,53.539,6,50
	c0-2.407,1.064-4.561,2.744-6.023c0.76-0.666,1.645-1.187,2.617-1.525c0.826-0.288,1.709-0.453,2.633-0.453
	c2.578,0,4.863,1.227,6.326,3.122l0.072-0.001c-1.697-3.126-4.871-5.331-8.584-5.685c1.381-4.82,5.813-8.357,11.075-8.357
	c0.563,0,1.109,0.054,1.648,0.131c1.067,0.154,2.09,0.447,3.041,0.872c3.547,1.584,6.137,4.901,6.713,8.877
	c0-0.022,0.002-0.047,0.002-0.067c0-4.527-2.32-8.513-5.834-10.834C30.455,26.446,34.299,24,38.715,24 M38.715,20
	c-5.395,0-10.396,2.774-13.275,7.3c-0.108-0.019-0.223-0.035-0.334-0.052c-0.821-0.117-1.526-0.172-2.221-0.172
	c-6.885,0-13.021,4.628-14.922,11.255l-0.451,1.577c-0.492,0.315-0.961,0.67-1.404,1.059C3.498,43.244,2,46.538,2,50
	c0,5.188,3.309,9.764,8.232,11.391C11.443,61.794,12.713,62,13.994,62H48.17c1.031,0,2.078-0.122,3.113-0.362
	C57.588,60.188,62,54.646,62,48.16c0-4.926-2.658-9.519-6.936-11.985c-0.207-0.119-0.416-0.232-0.627-0.341
	c0.002-0.032,0.002-0.063,0.002-0.099C54.439,27.06,47.385,20,38.715,20L38.715,20z"/>
</svg>
