<?xml version="1.0" encoding="utf-8"?>
<!-- Generator: Adobe Illustrator 24.1.2, SVG Export Plug-In . SVG Version: 6.00 Build 0)  -->
<svg version="1.1" id="Layer_1" xmlns="http://www.w3.org/2000/svg" xmlns:xlink="http://www.w3.org/1999/xlink" x="0px" y="0px"
	 width="64px" height="64px" viewBox="0 0 64 64" style="enable-background:new 0 0 64 64;" xml:space="preserve">
<style type="text/css">
	.st0{fill:url(#SVGID_1_);}
	.st1{fill:#FFFFFF;}
</style>
<linearGradient id="SVGID_1_" gradientUnits="userSpaceOnUse" x1="-62" y1="68" x2="-62" y2="8" gradientTransform="matrix(1 0 0 -1 94 70)">
	<stop  offset="0" style="stop-color:#BC2AF7"/>
	<stop  offset="0.2161" style="stop-color:#B928F3"/>
	<stop  offset="0.4401" style="stop-color:#B121E6"/>
	<stop  offset="0.6677" style="stop-color:#A217D2"/>
	<stop  offset="0.8964" style="stop-color:#8E08B5"/>
	<stop  offset="0.9949" style="stop-color:#8400A6"/>
</linearGradient>
<path class="st0" d="M62,54c0,4.4-3.6,8-8,8H10c-4.4,0-8-3.6-8-8V10c0-4.4,3.6-8,8-8h44c4.4,0,8,3.6,8,8V54z"/>
<path class="st1" d="M37.91,47.01c-0.05,0-0.09-0.01-0.14-0.02c-0.13-0.04-0.24-0.14-0.3-0.27l-2.6-6.17l-9.58,6.38
	c-0.12,0.08-0.26,0.1-0.39,0.06c-0.13-0.04-0.24-0.14-0.3-0.27l-2.62-6.17l-9.67,6.38c-0.1,0.07-0.23,0.09-0.35,0.07
	c-0.12-0.03-0.23-0.1-0.3-0.2l-1.59-2.41c-0.14-0.22-0.09-0.52,0.12-0.66l13.03-8.63c0.12-0.08,0.26-0.1,0.39-0.06
	c0.13,0.04,0.24,0.14,0.3,0.26l2.63,6.17l9.62-6.38c0.12-0.08,0.26-0.1,0.39-0.06c0.13,0.04,0.24,0.14,0.3,0.27l2.6,6.17l9.63-6.38
	c0.12-0.08,0.26-0.1,0.39-0.06c0.13,0.04,0.24,0.14,0.3,0.27l4.17,9.85c0.1,0.23-0.01,0.51-0.24,0.61l-2.7,1.2
	c-0.12,0.05-0.25,0.05-0.36,0.01c-0.12-0.05-0.21-0.14-0.26-0.25l-2.57-6.17l-9.67,6.38C38.09,46.98,38,47.01,37.91,47.01z"/>
<path class="st1" d="M12.06,28.98c-0.03,0-0.06,0-0.09-0.01c-0.12-0.03-0.23-0.1-0.3-0.2l-1.59-2.41c-0.14-0.22-0.09-0.52,0.12-0.66
	l13.03-8.63c0.12-0.08,0.26-0.1,0.39-0.06c0.13,0.04,0.24,0.14,0.3,0.26l2.63,6.17l9.62-6.38c0.12-0.08,0.26-0.1,0.39-0.06
	c0.13,0.04,0.24,0.14,0.3,0.27l2.6,6.17l9.63-6.38c0.12-0.08,0.26-0.1,0.39-0.06c0.13,0.04,0.24,0.14,0.3,0.27l4.17,9.85
	c0.1,0.23-0.01,0.51-0.24,0.61l-2.7,1.2c-0.12,0.05-0.25,0.05-0.36,0.01c-0.12-0.05-0.21-0.14-0.26-0.25l-2.57-6.17l-9.67,6.38
	c-0.12,0.08-0.26,0.1-0.39,0.06c-0.13-0.04-0.24-0.14-0.3-0.27l-2.6-6.17L25.3,28.9c-0.12,0.08-0.26,0.1-0.39,0.06
	c-0.13-0.04-0.24-0.14-0.3-0.27l-2.62-6.17l-9.67,6.38C12.24,28.95,12.15,28.98,12.06,28.98z"/>
</svg>
