<?xml version="1.0" encoding="utf-8"?>
<!-- Generator: Adobe Illustrator 15.0.0, SVG Export Plug-In . SVG Version: 6.00 Build 0)  -->
<!DOCTYPE svg PUBLIC "-//W3C//DTD SVG 1.1//EN" "http://www.w3.org/Graphics/SVG/1.1/DTD/svg11.dtd" [
	<!ENTITY ns_flows "http://ns.adobe.com/Flows/1.0/">
	<!ENTITY ns_extend "http://ns.adobe.com/Extensibility/1.0/">
	<!ENTITY ns_ai "http://ns.adobe.com/AdobeIllustrator/10.0/">
	<!ENTITY ns_graphs "http://ns.adobe.com/Graphs/1.0/">
]>
<svg version="1.1" id="Layer_1" xmlns:x="&ns_extend;" xmlns:i="&ns_ai;" xmlns:graph="&ns_graphs;"
	 xmlns="http://www.w3.org/2000/svg" xmlns:xlink="http://www.w3.org/1999/xlink" xmlns:a="http://ns.adobe.com/AdobeSVGViewerExtensions/3.0/"
	 x="0px" y="0px" width="64px" height="64px" viewBox="0 0 64 64" enable-background="new 0 0 64 64" xml:space="preserve">
<linearGradient id="SVGID_1_" gradientUnits="userSpaceOnUse" x1="32.0005" y1="1.4766" x2="32.0005" y2="62.1471">
	<stop  offset="0" style="stop-color:#3E3B47"/>
	<stop  offset="1" style="stop-color:#1A1626"/>
	<a:midPointStop  offset="0" style="stop-color:#3E3B47"/>
	<a:midPointStop  offset="0.5" style="stop-color:#3E3B47"/>
	<a:midPointStop  offset="1" style="stop-color:#1A1626"/>
</linearGradient>
<path fill="url(#SVGID_1_)" d="M32,44.856L32,44.856c-8.744,0-15.857-7.113-15.857-15.857c0-8.743,7.113-15.856,15.857-15.857
	c8.744,0,15.857,7.114,15.857,15.857C47.857,37.743,40.744,44.856,32,44.856z M32,18.286c-5.908,0-10.714,4.807-10.714,10.714
	c0,5.908,4.807,10.714,10.714,10.714S42.713,34.907,42.713,29C42.713,23.092,37.908,18.286,32,18.286z"/>
<linearGradient id="SVGID_2_" gradientUnits="userSpaceOnUse" x1="16.6445" y1="1.4766" x2="16.6445" y2="62.1472">
	<stop  offset="0" style="stop-color:#3E3B47"/>
	<stop  offset="1" style="stop-color:#1A1626"/>
	<a:midPointStop  offset="0" style="stop-color:#3E3B47"/>
	<a:midPointStop  offset="0.5" style="stop-color:#3E3B47"/>
	<a:midPointStop  offset="1" style="stop-color:#1A1626"/>
</linearGradient>
<polygon fill="url(#SVGID_2_)" points="12.408,21.874 9.701,19.167 20.882,7.986 23.588,10.693 "/>
<linearGradient id="SVGID_3_" gradientUnits="userSpaceOnUse" x1="50.4404" y1="1.4766" x2="50.4404" y2="62.1472">
	<stop  offset="0" style="stop-color:#3E3B47"/>
	<stop  offset="1" style="stop-color:#1A1626"/>
	<a:midPointStop  offset="0" style="stop-color:#3E3B47"/>
	<a:midPointStop  offset="0.5" style="stop-color:#3E3B47"/>
	<a:midPointStop  offset="1" style="stop-color:#1A1626"/>
</linearGradient>
<polygon fill="url(#SVGID_3_)" points="44.986,20.937 41.35,17.299 55.895,2.753 59.531,6.39 "/>
<linearGradient id="SVGID_4_" gradientUnits="userSpaceOnUse" x1="52.71" y1="1.4766" x2="52.71" y2="62.1472">
	<stop  offset="0" style="stop-color:#3E3B47"/>
	<stop  offset="1" style="stop-color:#1A1626"/>
	<a:midPointStop  offset="0" style="stop-color:#3E3B47"/>
	<a:midPointStop  offset="0.5" style="stop-color:#3E3B47"/>
	<a:midPointStop  offset="1" style="stop-color:#1A1626"/>
</linearGradient>
<polygon fill="url(#SVGID_4_)" points="60.285,17.151 55.143,17.151 55.143,7.143 45.135,7.143 45.135,2 60.285,2 "/>
<linearGradient id="SVGID_5_" gradientUnits="userSpaceOnUse" x1="13.5591" y1="1.4766" x2="13.5591" y2="62.1472">
	<stop  offset="0" style="stop-color:#3E3B47"/>
	<stop  offset="1" style="stop-color:#1A1626"/>
	<a:midPointStop  offset="0" style="stop-color:#3E3B47"/>
	<a:midPointStop  offset="0.5" style="stop-color:#3E3B47"/>
	<a:midPointStop  offset="1" style="stop-color:#1A1626"/>
</linearGradient>
<polygon fill="url(#SVGID_5_)" points="19.014,20.937 4.468,6.39 8.104,2.753 22.65,17.299 "/>
<linearGradient id="SVGID_6_" gradientUnits="userSpaceOnUse" x1="11.29" y1="1.4766" x2="11.29" y2="62.1472">
	<stop  offset="0" style="stop-color:#3E3B47"/>
	<stop  offset="1" style="stop-color:#1A1626"/>
	<a:midPointStop  offset="0" style="stop-color:#3E3B47"/>
	<a:midPointStop  offset="0.5" style="stop-color:#3E3B47"/>
	<a:midPointStop  offset="1" style="stop-color:#1A1626"/>
</linearGradient>
<polygon fill="url(#SVGID_6_)" points="8.857,17.151 3.715,17.151 3.715,2 18.865,2 18.865,7.143 8.857,7.143 "/>
<linearGradient id="SVGID_7_" gradientUnits="userSpaceOnUse" x1="31.9995" y1="1.4673" x2="31.9995" y2="62.1496">
	<stop  offset="0" style="stop-color:#3E3B47"/>
	<stop  offset="1" style="stop-color:#1A1626"/>
	<a:midPointStop  offset="0" style="stop-color:#3E3B47"/>
	<a:midPointStop  offset="0.5" style="stop-color:#3E3B47"/>
	<a:midPointStop  offset="1" style="stop-color:#1A1626"/>
</linearGradient>
<rect x="21.215" y="50" fill="url(#SVGID_7_)" width="21.57" height="5.144"/>
<linearGradient id="SVGID_8_" gradientUnits="userSpaceOnUse" x1="31.999" y1="1.4785" x2="31.999" y2="62.1478">
	<stop  offset="0" style="stop-color:#3E3B47"/>
	<stop  offset="1" style="stop-color:#1A1626"/>
	<a:midPointStop  offset="0" style="stop-color:#3E3B47"/>
	<a:midPointStop  offset="0.5" style="stop-color:#3E3B47"/>
	<a:midPointStop  offset="1" style="stop-color:#1A1626"/>
</linearGradient>
<rect x="29.428" y="41.429" fill="url(#SVGID_8_)" width="5.142" height="20.571"/>
</svg>
