<?xml version="1.0" encoding="utf-8"?>
<!-- Generator: Adobe Illustrator 24.1.2, SVG Export Plug-In . SVG Version: 6.00 Build 0)  -->
<svg version="1.1" id="Layer_1" xmlns="http://www.w3.org/2000/svg" xmlns:xlink="http://www.w3.org/1999/xlink" x="0px" y="0px"
	 width="64px" height="64px" viewBox="0 0 64 64" style="enable-background:new 0 0 64 64;" xml:space="preserve">
<style type="text/css">
	.st0{fill:#768B94;}
	.st1{fill:#6E8189;}
	.st2{fill:#99A8AE;}
	.st3{fill:url(#SVGID_1_);}
	.st4{fill:#302C3B;}
	.st5{fill:url(#SVGID_2_);}
	.st6{fill:url(#SVGID_3_);}
	.st7{fill:url(#SVGID_4_);}
	.st8{fill:#F46C60;}
	.st9{fill:url(#SVGID_5_);}
	.st10{fill:#FFE12C;}
	.st11{fill:#FFFFFF;}
	.st12{fill:#7AB51D;}
	.st13{fill:#F9B700;}
	.st14{fill:#CFD8DD;}
	.st15{fill:#428210;}
</style>
<path class="st0" d="M47.18,8.02c0,0,0.49,1.24-0.58,2.23l-0.75-0.12l0.18-2.29L47.18,8.02z"/>
<path class="st1" d="M48.27,8.46c0,0,0.18,1.25-0.93,2.05l-0.74-0.26l0.58-2.23L48.27,8.46z"/>
<path class="st0" d="M49.28,9.11c0,0,0.16,1.39-1.28,1.83l-0.67-0.44l0.93-2.05L49.28,9.11z"/>
<path class="st1" d="M50.23,9.86c0,0,0,1.52-1.6,1.66L48,10.95l1.28-1.83L50.23,9.86z"/>
<path class="st0" d="M50.98,10.76c0,0-0.29,1.28-1.92,1.28l-0.43-0.52l1.6-1.66L50.98,10.76z"/>
<path class="st1" d="M51.5,11.81c0,0-0.61,1.33-2.15,0.84l-0.29-0.61l1.92-1.28L51.5,11.81z"/>
<path class="st0" d="M51.82,12.94c0,0-1.06,0.55-2.24,0.62l-0.23-0.91l2.15-0.84L51.82,12.94z"/>
<rect x="41" y="50.16" class="st1" width="2" height="4"/>
<path class="st2" d="M52,21.66c-1,1.11-1,2.5-1,2.5s-0.79,0.33-0.75,0.08c0.17-1.16,0.75-2.15,1.08-2.74
	c0.48-0.87-0.33-1.17-0.99-0.28c-1.8,2.42-1.27,1.31,0.01-0.66C51.2,19.23,53.14,20.38,52,21.66z"/>
<linearGradient id="SVGID_1_" gradientUnits="userSpaceOnUse" x1="-326.5811" y1="19.1553" x2="-318.5792" y2="19.1553" gradientTransform="matrix(-1 0 0 1 -270.5811 0)">
	<stop  offset="0.1879" style="stop-color:#FF000E"/>
	<stop  offset="0.4034" style="stop-color:#F4000B"/>
	<stop  offset="0.7765" style="stop-color:#D80005"/>
	<stop  offset="1" style="stop-color:#C40000"/>
</linearGradient>
<path class="st3" d="M50,15.16l-1-2l3-1l1,1.33l1-0.33l2,2l-1,1c0,0,1,2,1,4c0,1.5,0,6,0,6h-2v-6h-4l-2-2L50,15.16z"/>
<path class="st4" d="M48,23.52c0-1.59,0-5.37,0-5.37l2,2c0,0,0,2.17,0,2.9c0,0.99,0.37,1.1,1.32,1.1c0.67,0,2.68,0,2.68,0v2
	c0,0-2.37,0-3.5,0C48.71,26.16,48,25.16,48,23.52z"/>
<polygon class="st1" points="52,26.16 51,28.16 44,28.16 44,26.16 "/>
<linearGradient id="SVGID_2_" gradientUnits="userSpaceOnUse" x1="-326.5811" y1="42.1553" x2="-313.5792" y2="42.1553" gradientTransform="matrix(-1 0 0 1 -270.5811 0)">
	<stop  offset="0" style="stop-color:#5B666E"/>
	<stop  offset="0.0914" style="stop-color:#494E59"/>
	<stop  offset="0.1916" style="stop-color:#3B3B48"/>
	<stop  offset="0.2951" style="stop-color:#33303E"/>
	<stop  offset="0.4061" style="stop-color:#302C3B"/>
	<stop  offset="0.4667" style="stop-color:#302C3B"/>
</linearGradient>
<path class="st5" d="M44,51.16c1.65,0,3,1.35,3,3c0,1.1,0.9,2,2,2c1.1,0,2-0.9,2-2c0-0.79-0.51-1.75-1.1-2.87
	c-0.85-1.62-1.9-3.63-1.9-6.13c0-7.14,6-11.72,6-18v-1h2v1c0,6.37-6,11.01-6,18c0,2.01,0.89,3.71,1.68,5.2
	c0.68,1.3,1.33,2.52,1.33,3.8c0,2.21-1.8,4-4,4c-2.21,0-4-1.79-4-4c0-0.55-0.45-1-1-1h-1v-2H44z"/>
<polygon class="st2" points="43.36,22 10.64,22 13,60 41,60 "/>
<linearGradient id="SVGID_3_" gradientUnits="userSpaceOnUse" x1="-297.5811" y1="60" x2="-297.5811" y2="28" gradientTransform="matrix(-1 0 0 1 -270.5811 0)">
	<stop  offset="0" style="stop-color:#C40000"/>
	<stop  offset="0.2235" style="stop-color:#D80005"/>
	<stop  offset="0.5966" style="stop-color:#F4000B"/>
	<stop  offset="0.8121" style="stop-color:#FF000E"/>
</linearGradient>
<polygon class="st6" points="42,28 12,28 14,60 40,60 "/>
<path class="st1" d="M12,60h30c0.55,0,1,0.45,1,1v1h-1H12h-1v-1C11,60.45,11.45,60,12,60z"/>
<path class="st2" d="M10,2h34c1.1,0,2,0.9,2,2v23c0,1.1-0.9,2-2,2H10c-1.1,0-2-0.9-2-2V4C8,2.9,8.9,2,10,2z"/>
<linearGradient id="SVGID_4_" gradientUnits="userSpaceOnUse" x1="-297.5811" y1="28" x2="-297.5811" y2="3" gradientTransform="matrix(-1 0 0 1 -270.5811 0)">
	<stop  offset="0" style="stop-color:#FF000E"/>
	<stop  offset="0.0225" style="stop-color:#FD000E"/>
	<stop  offset="0.6681" style="stop-color:#D40004"/>
	<stop  offset="1" style="stop-color:#C40000"/>
</linearGradient>
<path class="st7" d="M43.95,3C44.53,3,45,3.49,45,4.09v22.83c0,0.6-0.47,1.09-1.05,1.09H10.05C9.47,28,9,27.51,9,26.91V4.09
	C9,3.49,9.47,3,10.05,3H43.95z"/>
<path id="Shape_2_" class="st8" d="M27,36.25c3.72,0,6.75,3.03,6.75,6.75c0,3.72-3.03,6.75-6.75,6.75c-3.72,0-6.75-3.03-6.75-6.75
	C20.25,39.28,23.28,36.25,27,36.25z M27,34c-4.97,0-9,4.03-9,9c0,4.97,4.03,9,9,9c4.97,0,9-4.03,9-9C36,38.03,31.97,34,27,34z"/>
<path id="Combined-Shape_2_" class="st8" d="M28.8,43.9c-0.3,0-0.45-0.15-0.45-0.45v-0.9c0-0.3,0.15-0.45,0.45-0.45h2.92
	c0.3,0,0.45,0.15,0.45,0.45V43c0,2.86-2.32,5.18-5.18,5.18c-1.39,0-2.69-0.55-3.66-1.52c-0.21-0.22-0.21-0.42,0-0.64l0.96-0.95
	c0.21-0.21,0.42-0.21,0.63,0c0.55,0.54,1.28,0.86,2.07,0.86c1.3,0,2.4-0.85,2.79-2.03H28.8z"/>
<rect x="12" y="6" class="st4" width="30" height="19"/>
<linearGradient id="SVGID_5_" gradientUnits="userSpaceOnUse" x1="29.5" y1="21" x2="29.5" y2="10" gradientTransform="matrix(1 0 0 1 -10 0)">
	<stop  offset="0" style="stop-color:#302C3B"/>
	<stop  offset="1" style="stop-color:#6E7B85"/>
</linearGradient>
<rect x="13" y="10" class="st9" width="13" height="11"/>
<rect x="27" y="10" class="st10" width="4" height="11"/>
<rect x="32" y="10" class="st11" width="4" height="11"/>
<rect x="37" y="10" class="st12" width="4" height="11"/>
<rect x="27.5" y="17.5" class="st13" width="3" height="3"/>
<rect x="32.5" y="17.5" class="st14" width="3" height="3"/>
<rect x="37.5" y="17.5" class="st15" width="3" height="3"/>
<rect x="14.5" y="11.5" class="st14" width="10" height="8"/>
<rect x="17.5" y="12.23" class="st2" width="6" height="3"/>
<rect x="17.5" y="15.98" class="st2" width="6" height="3"/>
<path class="st4" d="M16.55,13.73c-0.06-0.04-0.13-0.07-0.2-0.09c-0.06-0.02-0.11-0.03-0.17-0.05v-0.5
	c0.13,0.02,0.27,0.08,0.39,0.18l0.14-0.3c-0.05-0.04-0.11-0.08-0.18-0.11c-0.07-0.03-0.15-0.06-0.23-0.07
	c-0.03-0.01-0.06-0.01-0.09-0.01v-0.29h-0.32v0.3c-0.07,0.01-0.14,0.03-0.21,0.06c-0.11,0.05-0.2,0.12-0.26,0.21
	c-0.06,0.09-0.1,0.19-0.1,0.3c0,0.1,0.02,0.18,0.05,0.24c0.04,0.06,0.08,0.12,0.15,0.15c0.06,0.04,0.13,0.07,0.2,0.1
	c0.06,0.02,0.13,0.04,0.19,0.05v0.48c-0.07-0.01-0.14-0.02-0.21-0.04c-0.09-0.03-0.18-0.08-0.27-0.14l-0.14,0.3
	c0.09,0.07,0.19,0.12,0.32,0.16c0.08,0.03,0.17,0.04,0.27,0.05v0.29h0.32v-0.3c0.07-0.01,0.14-0.03,0.2-0.06
	c0.11-0.05,0.2-0.12,0.26-0.2c0.06-0.09,0.09-0.18,0.09-0.3c0-0.1-0.02-0.18-0.06-0.24C16.66,13.82,16.61,13.77,16.55,13.73z
	 M15.78,13.44c-0.04-0.03-0.06-0.07-0.06-0.13c0-0.07,0.03-0.13,0.09-0.17c0.03-0.02,0.06-0.03,0.09-0.04v0.41
	C15.86,13.49,15.81,13.47,15.78,13.44z M16.25,14.32c-0.02,0.01-0.05,0.02-0.07,0.03v-0.38c0.04,0.02,0.08,0.03,0.1,0.05
	c0.04,0.03,0.06,0.07,0.06,0.12C16.34,14.22,16.31,14.28,16.25,14.32z"/>
<polygon class="st4" points="15.86,18.13 15.86,16.48 15.42,16.48 15.42,18.48 16.75,18.48 16.75,18.13 "/>
</svg>
