<?xml version="1.0" encoding="utf-8"?>
<!-- Generator: Adobe Illustrator 24.1.2, SVG Export Plug-In . SVG Version: 6.00 Build 0)  -->
<svg version="1.1" id="Layer_1" xmlns="http://www.w3.org/2000/svg" xmlns:xlink="http://www.w3.org/1999/xlink" x="0px" y="0px"
	 width="64px" height="64px" viewBox="0 0 64 64" style="enable-background:new 0 0 64 64;" xml:space="preserve">
<style type="text/css">
	.st0{fill:#69452D;}
	.st1{fill:#543B28;}
	.st2{fill:url(#SVGID_1_);}
	.st3{fill:url(#SVGID_2_);}
	.st4{fill:url(#SVGID_3_);}
	.st5{fill:#916B50;}
	.st6{fill:url(#SVGID_4_);}
	.st7{opacity:0.2;fill:#FFFFFF;}
</style>
<path class="st0" d="M45.11,50.08H14.34c0.92,3.37,0.46,5.21,0.52,7.63c0.1,4.38,29.26,4.38,29.26,0
	C44.12,55.55,43.94,53.07,45.11,50.08z"/>
<path class="st1" d="M13.44,50.08c1.11,3.32,1.12,4.77,1.42,7.63c-0.06-2.46,0.57-4.39,0.04-7.63H13.44z"/>
<path class="st1" d="M44.02,50.08c-0.6,2.61,0.09,5.1,0.09,7.63c0.44-3.19,0.55-5.27,1.58-7.63H44.02z"/>
<radialGradient id="SVGID_1_" cx="-6.0831" cy="31.2992" r="33.332" gradientTransform="matrix(0.8896 0 0 0.9767 41.8108 -8.7048)" gradientUnits="userSpaceOnUse">
	<stop  offset="0.4485" style="stop-color:#916B50"/>
	<stop  offset="0.7052" style="stop-color:#8F694E"/>
	<stop  offset="0.8287" style="stop-color:#876247"/>
	<stop  offset="0.9235" style="stop-color:#7A553C"/>
	<stop  offset="1" style="stop-color:#69452D"/>
</radialGradient>
<path class="st2" d="M7.27,18.19C2.7,38.48,7.65,55.77,31.86,53.96c16.64,4.05,26.41-16.49,26.41-24.73
	C41.97,15.44,7.27,18.19,7.27,18.19z"/>
<path class="st1" d="M20.59,53.15c-3.96-1.36-6.84-3.57-9.12-6.2c-6.52-7.5-5.49-19.69-3.48-28.6l-1.42-0.32
	c-2.99,13.24-1.67,23.57,3.8,29.87C12.92,50.85,16.11,52.48,20.59,53.15L20.59,53.15z"/>
<path class="st1" d="M57.54,29.23c0,4.97-3.92,15.21-11.01,20.74c-2.52,1.97-5.08,3.66-7.98,4.32c3.58-0.16,6.13-1.04,8.88-3.18
	C54.98,45.22,59,34.62,59,29.23H57.54z"/>
<radialGradient id="SVGID_2_" cx="11.7012" cy="240.8798" r="25.9836" gradientTransform="matrix(0.9289 -8.812691e-04 1.171048e-03 0.5109 13.8683 -96.9934)" gradientUnits="userSpaceOnUse">
	<stop  offset="0.2788" style="stop-color:#69452D"/>
	<stop  offset="0.8909" style="stop-color:#69452D;stop-opacity:0"/>
</radialGradient>
<path class="st3" d="M7.12,24.26c-4.23,19.42,38.74,16.57,38.84,7.87C46.16,15.56,8.75,16.78,7.12,24.26z"/>
<path class="st1" d="M39.25,27.17v-1.89c-9.26,1.47-18.19,13.84-9.03,24.39C22.62,37.8,31.49,28.8,39.25,27.17z"/>
<linearGradient id="SVGID_3_" gradientUnits="userSpaceOnUse" x1="-60.3412" y1="122.4604" x2="-58.3179" y2="142.0546" gradientTransform="matrix(0.9955 0.0291 -0.0433 0.8728 77.5277 -93.3784)">
	<stop  offset="0.5576" style="stop-color:#916B50"/>
	<stop  offset="0.7455" style="stop-color:#69452D"/>
</linearGradient>
<path class="st4" d="M6.93,17.04c-0.38-5.41,10.66-7.69,11.01-2.28c0.16,2.55,0.69,10.2,0.69,10.2c0.3,4.84-9.42,5.4-10.55,0.68
	C7.44,22.97,7.09,19.19,6.93,17.04z"/>
<path class="st1" d="M13.41,29.61c-2.67,0-5.42-1.22-6.04-3.81c-0.7-2.92-1.05-7.07-1.16-8.71l0,0c-0.13-1.79,0.79-3.44,2.58-4.63
	c2.34-1.56,5.66-1.97,7.74-0.96c1.29,0.63,2.05,1.77,2.15,3.21c0.16,2.55,0.69,10.19,0.69,10.19c0.15,2.37-1.7,4.18-4.69,4.62
	C14.25,29.58,13.83,29.61,13.41,29.61z M13.83,12.39c-1.41,0-3,0.45-4.23,1.27c-0.78,0.52-2.06,1.64-1.94,3.33l0,0
	c0.11,1.61,0.45,5.66,1.13,8.48c0.52,2.17,3.3,2.97,5.66,2.63c1.75-0.26,3.57-1.21,3.45-3.1l0,0c0,0-0.52-7.64-0.69-10.19
	c-0.06-0.92-0.51-1.6-1.33-2C15.31,12.52,14.59,12.39,13.83,12.39z"/>
<path class="st5" d="M42.38,9.71c1.05-7.14,12.4-5.03,12.4,1.27c0,2.71-0.49,7.84-1.25,10.74c-1.12,4.3-12.07,1.04-12.04-2.63
	C41.5,16.73,41.98,12.44,42.38,9.71z"/>
<path class="st1" d="M49.81,24.48c-0.44,0-0.89-0.03-1.38-0.09c-3.23-0.42-7.7-2.5-7.68-5.31c0.02-2.32,0.48-6.62,0.9-9.48l0,0
	c0.49-3.35,3.18-5.34,6.83-5.08c3.4,0.25,7.02,2.59,7.02,6.45c0,2.86-0.52,8.05-1.28,10.93C53.8,23.56,52.18,24.48,49.81,24.48z
	 M43.1,9.81c-0.42,2.82-0.87,7.03-0.89,9.28c-0.01,1.52,3.16,3.43,6.41,3.86c0.87,0.11,3.73,0.35,4.19-1.42
	c0.72-2.77,1.23-7.79,1.23-10.56c0-2.98-2.92-4.8-5.67-5C46.13,5.8,43.56,6.73,43.1,9.81L43.1,9.81z"/>
<linearGradient id="SVGID_4_" gradientUnits="userSpaceOnUse" x1="-36.5358" y1="105.2689" x2="-32.9888" y2="128.3291" gradientTransform="matrix(0.9809 0.0572 -0.0661 0.8713 65.9548 -82.2891)">
	<stop  offset="0.4979" style="stop-color:#916B50"/>
	<stop  offset="0.6981" style="stop-color:#69452D"/>
</linearGradient>
<path class="st6" d="M17.72,12.61c-0.24-5.88,11.89-7.62,12.09-1.74c0,0,0.29,8.91,0.12,11.83c-0.31,5.43-9.73,7.07-11.09,1.96
	C17.72,20.46,17.83,15.34,17.72,12.61z"/>
<path class="st1" d="M23.47,28.47c-2.68,0-4.73-1.37-5.33-3.63c-0.94-3.53-1.03-7.58-1.1-10.55c-0.01-0.62-0.03-1.18-0.05-1.66
	c-0.08-1.86,0.91-3.53,2.77-4.7c2.56-1.6,6.21-1.9,8.5-0.69c1.42,0.75,2.23,2.02,2.28,3.59c0.01,0.37,0.29,8.98,0.12,11.9
	c-0.19,3.33-3.34,5.38-6.36,5.69C24.02,28.45,23.75,28.47,23.47,28.47z M24.91,7.96c-1.49,0-3.1,0.42-4.37,1.21
	c-0.99,0.62-2.16,1.72-2.09,3.41v0c0.02,0.49,0.03,1.06,0.05,1.68c0.06,2.89,0.15,6.84,1.05,10.21c0.57,2.14,2.76,2.7,4.61,2.51
	c2.4-0.24,4.9-1.81,5.05-4.33c0.16-2.85-0.12-11.68-0.12-11.76c-0.04-1.06-0.54-1.85-1.51-2.36C26.85,8.14,25.91,7.96,24.91,7.96z"
	/>
<path class="st5" d="M29.73,8.02c0.11-6.05,13.27-5.53,12.89,0.5c-0.21,3.35-0.26,8.84-0.64,11.76c-0.67,5.23-11.58,3.8-12.01-0.58
	C29.59,15.81,29.66,11.81,29.73,8.02z"/>
<path class="st1" d="M36.77,24.35c-0.06,0-0.11,0-0.17,0c-3.41-0.05-7.09-1.78-7.37-4.59c-0.38-3.92-0.31-7.89-0.24-11.73l0-0.04
	c0.03-1.71,0.97-3.14,2.65-4.03c2.7-1.43,6.82-1.27,9.39,0.37c1.59,1.02,2.41,2.52,2.3,4.22c-0.08,1.22-0.13,2.73-0.19,4.29
	c-0.1,2.77-0.21,5.63-0.45,7.51C42.38,22.84,40.12,24.35,36.77,24.35z M29.73,8.02l0.73,0.01l0,0.04c-0.07,3.8-0.13,7.73,0.24,11.56
	c0.19,1.91,3.22,3.23,5.94,3.27c2.07,0.02,4.36-0.67,4.62-2.72c0.23-1.82,0.34-4.65,0.44-7.38c0.06-1.58,0.12-3.1,0.19-4.33
	c0.08-1.19-0.48-2.17-1.64-2.91c-2.13-1.36-5.68-1.5-7.92-0.31c-1.22,0.65-1.85,1.58-1.88,2.78L29.73,8.02z"/>
<path class="st5" d="M47.96,18.03c-11.66,0.88-14.37-1.29-18.43-1.26c-5.23,0.03-4.89,13.4,11.23,12.38c0,0,0.32,2.94,2.33,4.72
	c0,0,6.92-5.27,15.18-4.64C58.27,23.54,49.56,17.91,47.96,18.03z"/>
<path class="st1" d="M40.47,29.58l-0.75-0.9c1.75-0.44,3.91-1.64,3.91-1.64S42.66,28.76,40.47,29.58z"/>
<path class="st7" d="M37.46,21.02c-0.98,0.24-7.11-0.69-7.79-1.37c-1.71-1.69-0.98-2.64,0-2.53c1.48,0.17,5.97,1.07,8.36,1.41
	C39.04,18.68,38.11,20.87,37.46,21.02z"/>
<path class="st1" d="M54.54,21.22c-2.4-2.21-5.44-3.99-6.64-3.91c-7.63,0.58-11.42-0.18-14.19-0.73c-1.45-0.29-2.71-0.54-4.13-0.54
	c-0.02,0-0.04,0-0.06,0c-1.31,0.01-2.44,0.7-3.11,1.92c-1.04,1.89-0.78,4.55,0.65,6.79c1.34,2.1,4.8,5.49,13.08,5.16
	c0.23,1.05,0.97,2.95,2.94,3.97c-1.48-2.1-1.68-5.49-1.68-5.49l-0.69,0.04c-8,0.5-11.21-2.57-12.42-4.45
	c-1.31-2.04-1.25-4.14-0.6-5.31c0.29-0.53,0.84-1.15,1.83-1.16c1.29,0.02,2.44,0.22,3.9,0.51c2.85,0.57,6.76,1.34,14.58,0.75
	c0,0,0.01,0,0.01,0c0.56,0,3.28,1.34,5.9,3.87c2.33,2.26,3.62,4.78,3.62,6.77L59,29.23C59,26,56.58,23.09,54.54,21.22z"/>
</svg>
