<?xml version="1.0" encoding="utf-8"?>
<!-- Generator: Adobe Illustrator 15.0.0, SVG Export Plug-In . SVG Version: 6.00 Build 0)  -->
<!DOCTYPE svg PUBLIC "-//W3C//DTD SVG 1.1//EN" "http://www.w3.org/Graphics/SVG/1.1/DTD/svg11.dtd" [
	<!ENTITY ns_flows "http://ns.adobe.com/Flows/1.0/">
	<!ENTITY ns_extend "http://ns.adobe.com/Extensibility/1.0/">
	<!ENTITY ns_ai "http://ns.adobe.com/AdobeIllustrator/10.0/">
	<!ENTITY ns_graphs "http://ns.adobe.com/Graphs/1.0/">
]>
<svg version="1.1" id="Layer_1" xmlns:x="&ns_extend;" xmlns:i="&ns_ai;" xmlns:graph="&ns_graphs;"
	 xmlns="http://www.w3.org/2000/svg" xmlns:xlink="http://www.w3.org/1999/xlink" xmlns:a="http://ns.adobe.com/AdobeSVGViewerExtensions/3.0/"
	 x="0px" y="0px" width="64px" height="64px" viewBox="0 0 64 64" enable-background="new 0 0 64 64" xml:space="preserve">
<linearGradient id="Shape_1_" gradientUnits="userSpaceOnUse" x1="-210.0073" y1="275.0059" x2="-210.0073" y2="276.0391" gradientTransform="matrix(42 0 0 -52 8843 14357.0938)">
	<stop  offset="0" style="stop-color:#FF9900"/>
	<stop  offset="0.022" style="stop-color:#FF9C03"/>
	<stop  offset="0.274" style="stop-color:#FFB91D"/>
	<stop  offset="0.5236" style="stop-color:#FFCE31"/>
	<stop  offset="0.7678" style="stop-color:#FFDB3C"/>
	<stop  offset="1" style="stop-color:#FFDF40"/>
	<a:midPointStop  offset="0" style="stop-color:#FF9900"/>
	<a:midPointStop  offset="0.303" style="stop-color:#FF9900"/>
	<a:midPointStop  offset="1" style="stop-color:#FFDF40"/>
</linearGradient>
<path id="Shape" fill="url(#Shape_1_)" d="M22.7,3.066C20.823,23.966,17.009,27.73,1,29.933C17.009,32.136,20.823,35.9,22.7,56.8
	C24.577,35.9,28.39,32.136,44.4,29.933C28.39,27.73,24.575,23.966,22.7,3.066z"/>
<linearGradient id="Shape_2_" gradientUnits="userSpaceOnUse" x1="-205.1001" y1="268.043" x2="-205.1001" y2="269.0771" gradientTransform="matrix(24 0 0 -26 4973 6997)">
	<stop  offset="0" style="stop-color:#6FAD00"/>
	<stop  offset="0.0389" style="stop-color:#73B202"/>
	<stop  offset="0.2625" style="stop-color:#87CC0F"/>
	<stop  offset="0.4933" style="stop-color:#96DE17"/>
	<stop  offset="0.734" style="stop-color:#9EE91C"/>
	<stop  offset="1" style="stop-color:#A1ED1E"/>
	<a:midPointStop  offset="0" style="stop-color:#6FAD00"/>
	<a:midPointStop  offset="0.2727" style="stop-color:#6FAD00"/>
	<a:midPointStop  offset="1" style="stop-color:#A1ED1E"/>
</linearGradient>
<path id="Shape_62_" fill="url(#Shape_2_)" d="M50.6,1C49.528,11.45,47.349,13.333,38.2,14.433
	c9.148,1.101,11.328,2.983,12.399,13.434c1.072-10.451,3.25-12.333,12.4-13.434C53.85,13.333,51.672,11.45,50.6,1z"/>
<linearGradient id="Shape_3_" gradientUnits="userSpaceOnUse" x1="-205.1079" y1="268" x2="-205.1079" y2="269.0332" gradientTransform="matrix(24 0 0 -26 4967 7031)">
	<stop  offset="0" style="stop-color:#7D0C7A"/>
	<stop  offset="0.094" style="stop-color:#930C90"/>
	<stop  offset="0.254" style="stop-color:#B30DAE"/>
	<stop  offset="0.4208" style="stop-color:#CC0DC6"/>
	<stop  offset="0.5949" style="stop-color:#DD0ED8"/>
	<stop  offset="0.781" style="stop-color:#E80EE2"/>
	<stop  offset="1" style="stop-color:#EB0EE5"/>
	<a:midPointStop  offset="0" style="stop-color:#7D0C7A"/>
	<a:midPointStop  offset="0.2606" style="stop-color:#7D0C7A"/>
	<a:midPointStop  offset="1" style="stop-color:#EB0EE5"/>
</linearGradient>
<path id="Shape_45_" fill="url(#Shape_3_)" d="M44.4,36.134c-1.072,10.45-3.252,12.331-12.4,13.433
	C41.148,50.669,43.328,52.551,44.4,63c1.071-10.449,3.249-12.331,12.399-13.434C47.649,48.465,45.472,46.584,44.4,36.134z"/>
</svg>
