<?xml version="1.0" encoding="utf-8"?>
<!-- Generator: Adobe Illustrator 15.0.0, SVG Export Plug-In . SVG Version: 6.00 Build 0)  -->
<!DOCTYPE svg PUBLIC "-//W3C//DTD SVG 1.1//EN" "http://www.w3.org/Graphics/SVG/1.1/DTD/svg11.dtd" [
	<!ENTITY ns_flows "http://ns.adobe.com/Flows/1.0/">
	<!ENTITY ns_extend "http://ns.adobe.com/Extensibility/1.0/">
	<!ENTITY ns_ai "http://ns.adobe.com/AdobeIllustrator/10.0/">
	<!ENTITY ns_graphs "http://ns.adobe.com/Graphs/1.0/">
]>
<svg version="1.1" id="Layer_1" xmlns:x="&ns_extend;" xmlns:i="&ns_ai;" xmlns:graph="&ns_graphs;"
	 xmlns="http://www.w3.org/2000/svg" xmlns:xlink="http://www.w3.org/1999/xlink" xmlns:a="http://ns.adobe.com/AdobeSVGViewerExtensions/3.0/"
	 x="0px" y="0px" width="64px" height="64px" viewBox="0 0 64 64" enable-background="new 0 0 64 64" xml:space="preserve">
<linearGradient id="SVGID_1_" gradientUnits="userSpaceOnUse" x1="32.0005" y1="61" x2="32.0005" y2="3.0005">
	<stop  offset="0" style="stop-color:#FFAA00"/>
	<stop  offset="0.0326" style="stop-color:#FFAD00"/>
	<stop  offset="0.456" style="stop-color:#FFD500"/>
	<stop  offset="0.7932" style="stop-color:#FFED00"/>
	<stop  offset="1" style="stop-color:#FFF600"/>
	<a:midPointStop  offset="0" style="stop-color:#FFAA00"/>
	<a:midPointStop  offset="0.4" style="stop-color:#FFAA00"/>
	<a:midPointStop  offset="1" style="stop-color:#FFF600"/>
</linearGradient>
<path fill="url(#SVGID_1_)" d="M30.731,4.63c0.697-2.174,1.84-2.174,2.537,0l6.34,19.781l20.324-0.012
	c2.363,0,2.76,1.133,0.882,2.514L44.311,39.071l6.339,19.76c0.699,2.176-0.268,2.824-2.146,1.441L32,48.134L15.497,60.272
	c-1.879,1.383-2.845,0.734-2.146-1.441l6.339-19.76L3.186,26.913c-1.878-1.381-1.481-2.514,0.882-2.514l20.324,0.012L30.731,4.63z"
	/>
</svg>
